<svg width="100" height="100" viewBox="0 0 100 100" fill="none" xmlns="http://www.w3.org/2000/svg">
<path d="M57.6212 87.3297C57.1937 87.3253 56.7455 88.0888 64.5678 77.74L66.9633 78.1284C69.5575 78.545 68.0962 77.1106 70.225 79.9274L64.6263 87.3297L57.6221 87.3297" stroke="#00B0FB" stroke-opacity="0.5" stroke-width="7"/>
<path d="M71.5704 57.4832L67.6768 47.2028C73.2282 46.7099 75.9644 53.9853 71.5704 57.4832Z" fill="#00B0FB"/>
<path d="M55.4697 37.2477L69.1061 73.2701C71.4477 73.1175 73.1309 70.6502 72.2231 68.2382L61.051 38.7464C60.1464 36.3579 57.2854 35.7127 55.4697 37.2477Z" fill="#00B0FB" fill-opacity="0.5"/>
<path d="M74.8207 80.3877L68.5386 89.6184C93.7131 89.6184 93.7047 89.9128 93.7133 89.1565L93.71 68.4976C88.293 60.5375 88.6675 60.9279 88.3112 60.9279C87.9282 60.9279 88.1435 60.8126 74.8207 80.3877Z" fill="#00B0FB"/>
<path d="M36.8546 93.5153C37.8638 95.3757 40.5584 95.1965 41.303 93.1419C41.8439 91.6452 41.5273 91.7049 35.4019 80.4976L28.356 83.2926L30.3978 86.944L33.346 87.9649C34.1258 88.2348 34.0085 88.3095 36.8546 93.5153Z" fill="#00B0FB"/>
<path d="M14.3504 67.0607C19.9125 81.734 19.536 81.4982 20.8449 82.07C22.0397 82.5916 21.6429 82.5127 34.124 77.5619L26.7919 58.1917L15.402 62.7147C14.3448 63.1318 13.676 64.2882 13.8275 65.4605C13.8808 65.8734 13.9088 65.8968 14.3504 67.0607Z" fill="#00B0FB" fill-opacity="0.5"/>
<path d="M7.19922 64.8603V19.4675H69.913" stroke="#00B0FB" stroke-width="2"/>
<path d="M28.802 32.76L21.02 27.4507V38.0693L28.802 32.76Z" fill="#00B0FB"/>
<path d="M8.71784 5.2002C7.32999 5.2002 6.19922 6.33203 6.19922 7.72308V15.2662L68.912 15.2661L68.9117 7.72308C68.9117 6.33203 67.7821 5.2002 66.3932 5.2002H8.71784Z" fill="#00B0FB" fill-opacity="0.5"/>
<mask id="path-10-outside-1_253_7879" maskUnits="userSpaceOnUse" x="2" y="1" width="96" height="98" fill="black">
<rect fill="white" x="2" y="1" width="96" height="98"/>
<path d="M4.59907 67.0596C11.7069 67.0596 10.9079 67.0052 10.9772 67.1876L16.5095 81.7841C17.6509 84.7881 20.9867 86.2378 23.8712 85.0697L25.354 84.4819L27.9014 89.0381C28.2844 89.7229 28.6033 89.7101 31.7151 90.7865L34.0438 95.0461C36.3555 99.3078 42.6259 98.8907 44.3114 94.2311C44.8768 92.6693 44.7487 90.939 43.9583 89.4776L38.4026 79.3124C47.7207 75.6108 49.2654 74.8502 51.9206 74.4544V89.3378C51.9206 91.1065 53.269 92.8165 55.5796 92.8165C55.5796 92.9232 54.4371 92.8187 93.249 92.8165C95.5639 92.8165 96.9155 91.1769 96.9155 89.1501C96.9155 84.9022 96.9155 51.3323 96.9155 48.2707C96.9155 46.3527 95.3569 44.792 93.441 44.792H72.1154V7.72317C72.1154 4.56769 69.5499 2 66.3965 2H8.7189C5.56556 2 3 4.56769 3 7.72317V65.4595C3 66.3438 3.7158 67.0596 4.59907 67.0596ZM6.19922 7.72317C6.19922 6.33211 7.32998 5.20028 8.71784 5.20028H66.3933C67.7822 5.20028 68.9119 6.33211 68.9119 7.72317V15.2662H6.19922V7.72317ZM93.7141 48.2707V62.8139L91.3363 59.3203C89.8887 57.2038 86.7418 57.1921 85.2856 59.3224L73.8532 76.1207L73.0787 74.9814C75.5109 73.01 76.263 69.8854 75.2154 67.1044L72.7352 60.5566C76.9852 57.8983 78.2397 52.2551 75.5003 47.9913C93.7152 47.9913 93.7131 47.8366 93.7131 48.2697L93.7141 48.2707ZM68.5386 89.6184L74.8207 80.3877C88.1435 60.8127 87.928 60.9279 88.311 60.9279C88.6673 60.9279 88.2928 60.5374 93.7099 68.4976L93.7131 89.1565C93.7045 89.9128 93.7131 89.6184 68.5386 89.6184ZM41.3031 93.1419C40.5585 95.1965 37.8639 95.3757 36.8547 93.5153C34.0086 88.3095 34.1259 88.2348 33.3461 87.9649L30.3976 86.944L28.3558 83.2925L35.4018 80.4976C41.5271 91.705 41.844 91.6452 41.3031 93.1419ZM20.8448 82.07C19.5359 81.4982 19.9124 81.734 14.3503 67.0607C13.9087 65.8968 13.881 65.8734 13.8276 65.4605C13.6761 64.2882 14.345 63.1318 15.4022 62.7147L26.792 58.1916L34.1238 77.5619C21.6427 82.5127 22.0395 82.5916 20.8448 82.07ZM6.19922 63.8604V18.4676H68.913V43.9952C68.1119 43.9237 67.3033 43.961 66.5075 44.1168L64.0432 37.6127C62.1401 32.583 55.5529 31.6602 52.343 35.9166L51.5237 37.0015H37.6793C35.5618 37.0015 35.5618 40.2018 37.6793 40.2018H49.1054C46.9783 43.0169 45.328 45.3574 43.3876 47.0856H15.1707C13.0532 47.0856 13.0532 50.2859 15.1707 50.2859H38.042L27.1237 54.6169C25.7412 55.1663 27.1291 55.0009 15.1707 55.0009C13.0532 55.0009 13.0532 58.2012 15.1707 58.2012H18.0968C14.5733 59.5997 11.5618 60.1886 10.7447 63.8604H6.20028H6.19922ZM71.5703 57.4833L67.6766 47.2029C73.2281 46.7101 75.9643 53.9854 71.5703 57.4833ZM69.1061 73.2703L55.4697 37.2479C57.2853 35.7128 60.1464 36.3582 61.051 38.7467L72.2232 68.2384C73.131 70.6503 71.4476 73.1177 69.1061 73.2703ZM37.1011 76.3874L29.7672 57.0118C45.3717 50.8331 44.0212 52.2434 53.1495 40.1591L65.477 72.7252C50.5797 70.0369 52.2641 70.3634 37.1011 76.3874ZM55.1209 74.3232C56.9173 74.4245 59.2236 74.8373 61.1449 75.1968L55.1209 84.0563V74.3232ZM55.5977 89.6195C55.0441 89.6131 54.4637 90.7118 64.5926 75.8188L67.6948 76.3778C71.054 76.9773 69.1616 74.9131 71.9181 78.9668L64.6684 89.6195H55.5988H55.5977ZM12.0312 8.14988C10.5719 8.14988 9.38456 9.33825 9.38456 10.7986C9.38456 12.259 10.5719 13.4474 12.0312 13.4474C13.4905 13.4474 14.6789 12.259 14.6789 10.7986C14.6789 9.33825 13.4916 8.14988 12.0312 8.14988ZM12.0312 11.3502C11.3058 11.3502 11.2973 10.2471 12.0312 10.2471C12.7651 10.2471 12.7587 11.3502 12.0312 11.3502ZM20.1396 8.14988C18.6792 8.14988 17.4919 9.33825 17.4919 10.7986C17.4919 12.259 18.6792 13.4474 20.1396 13.4474C21.6 13.4474 22.7863 12.259 22.7863 10.7986C22.7863 9.33825 21.599 8.14988 20.1396 8.14988ZM20.1396 11.3502C19.4132 11.3502 19.4057 10.2471 20.1396 10.2471C20.8736 10.2471 20.8672 11.3502 20.1396 11.3502ZM28.2556 8.14988C26.7898 8.14988 25.5983 9.33825 25.5983 10.7986C25.5983 12.259 26.7898 13.4474 28.2556 13.4474C29.7213 13.4474 30.9033 12.259 30.9033 10.7986C30.9033 9.33825 29.716 8.14988 28.2556 8.14988ZM28.2556 11.3502C27.528 11.3502 27.5206 10.2471 28.2556 10.2471C28.9767 10.2471 28.9714 11.3502 28.2556 11.3502ZM37.6804 26.9035H57.2778C59.3954 26.9035 59.3954 30.1038 57.2778 30.1038H37.6804C35.5629 30.1038 35.5629 26.9035 37.6804 26.9035ZM20.3221 42.4196C33.2544 33.5974 33.2416 33.9601 33.2416 32.76C33.2416 31.5663 33.2544 31.9226 20.3221 23.0995C19.2649 22.3783 17.8194 23.1347 17.8194 24.4212V41.0968C17.8194 42.3812 19.2606 43.1428 20.3221 42.4196ZM21.0197 27.4508L28.8017 32.76L21.0197 38.0693V27.4508Z"/>
</mask>
<path d="M4.59907 67.0596C11.7069 67.0596 10.9079 67.0052 10.9772 67.1876L16.5095 81.7841C17.6509 84.7881 20.9867 86.2378 23.8712 85.0697L25.354 84.4819L27.9014 89.0381C28.2844 89.7229 28.6033 89.7101 31.7151 90.7865L34.0438 95.0461C36.3555 99.3078 42.6259 98.8907 44.3114 94.2311C44.8768 92.6693 44.7487 90.939 43.9583 89.4776L38.4026 79.3124C47.7207 75.6108 49.2654 74.8502 51.9206 74.4544V89.3378C51.9206 91.1065 53.269 92.8165 55.5796 92.8165C55.5796 92.9232 54.4371 92.8187 93.249 92.8165C95.5639 92.8165 96.9155 91.1769 96.9155 89.1501C96.9155 84.9022 96.9155 51.3323 96.9155 48.2707C96.9155 46.3527 95.3569 44.792 93.441 44.792H72.1154V7.72317C72.1154 4.56769 69.5499 2 66.3965 2H8.7189C5.56556 2 3 4.56769 3 7.72317V65.4595C3 66.3438 3.7158 67.0596 4.59907 67.0596ZM6.19922 7.72317C6.19922 6.33211 7.32998 5.20028 8.71784 5.20028H66.3933C67.7822 5.20028 68.9119 6.33211 68.9119 7.72317V15.2662H6.19922V7.72317ZM93.7141 48.2707V62.8139L91.3363 59.3203C89.8887 57.2038 86.7418 57.1921 85.2856 59.3224L73.8532 76.1207L73.0787 74.9814C75.5109 73.01 76.263 69.8854 75.2154 67.1044L72.7352 60.5566C76.9852 57.8983 78.2397 52.2551 75.5003 47.9913C93.7152 47.9913 93.7131 47.8366 93.7131 48.2697L93.7141 48.2707ZM68.5386 89.6184L74.8207 80.3877C88.1435 60.8127 87.928 60.9279 88.311 60.9279C88.6673 60.9279 88.2928 60.5374 93.7099 68.4976L93.7131 89.1565C93.7045 89.9128 93.7131 89.6184 68.5386 89.6184ZM41.3031 93.1419C40.5585 95.1965 37.8639 95.3757 36.8547 93.5153C34.0086 88.3095 34.1259 88.2348 33.3461 87.9649L30.3976 86.944L28.3558 83.2925L35.4018 80.4976C41.5271 91.705 41.844 91.6452 41.3031 93.1419ZM20.8448 82.07C19.5359 81.4982 19.9124 81.734 14.3503 67.0607C13.9087 65.8968 13.881 65.8734 13.8276 65.4605C13.6761 64.2882 14.345 63.1318 15.4022 62.7147L26.792 58.1916L34.1238 77.5619C21.6427 82.5127 22.0395 82.5916 20.8448 82.07ZM6.19922 63.8604V18.4676H68.913V43.9952C68.1119 43.9237 67.3033 43.961 66.5075 44.1168L64.0432 37.6127C62.1401 32.583 55.5529 31.6602 52.343 35.9166L51.5237 37.0015H37.6793C35.5618 37.0015 35.5618 40.2018 37.6793 40.2018H49.1054C46.9783 43.0169 45.328 45.3574 43.3876 47.0856H15.1707C13.0532 47.0856 13.0532 50.2859 15.1707 50.2859H38.042L27.1237 54.6169C25.7412 55.1663 27.1291 55.0009 15.1707 55.0009C13.0532 55.0009 13.0532 58.2012 15.1707 58.2012H18.0968C14.5733 59.5997 11.5618 60.1886 10.7447 63.8604H6.20028H6.19922ZM71.5703 57.4833L67.6766 47.2029C73.2281 46.7101 75.9643 53.9854 71.5703 57.4833ZM69.1061 73.2703L55.4697 37.2479C57.2853 35.7128 60.1464 36.3582 61.051 38.7467L72.2232 68.2384C73.131 70.6503 71.4476 73.1177 69.1061 73.2703ZM37.1011 76.3874L29.7672 57.0118C45.3717 50.8331 44.0212 52.2434 53.1495 40.1591L65.477 72.7252C50.5797 70.0369 52.2641 70.3634 37.1011 76.3874ZM55.1209 74.3232C56.9173 74.4245 59.2236 74.8373 61.1449 75.1968L55.1209 84.0563V74.3232ZM55.5977 89.6195C55.0441 89.6131 54.4637 90.7118 64.5926 75.8188L67.6948 76.3778C71.054 76.9773 69.1616 74.9131 71.9181 78.9668L64.6684 89.6195H55.5988H55.5977ZM12.0312 8.14988C10.5719 8.14988 9.38456 9.33825 9.38456 10.7986C9.38456 12.259 10.5719 13.4474 12.0312 13.4474C13.4905 13.4474 14.6789 12.259 14.6789 10.7986C14.6789 9.33825 13.4916 8.14988 12.0312 8.14988ZM12.0312 11.3502C11.3058 11.3502 11.2973 10.2471 12.0312 10.2471C12.7651 10.2471 12.7587 11.3502 12.0312 11.3502ZM20.1396 8.14988C18.6792 8.14988 17.4919 9.33825 17.4919 10.7986C17.4919 12.259 18.6792 13.4474 20.1396 13.4474C21.6 13.4474 22.7863 12.259 22.7863 10.7986C22.7863 9.33825 21.599 8.14988 20.1396 8.14988ZM20.1396 11.3502C19.4132 11.3502 19.4057 10.2471 20.1396 10.2471C20.8736 10.2471 20.8672 11.3502 20.1396 11.3502ZM28.2556 8.14988C26.7898 8.14988 25.5983 9.33825 25.5983 10.7986C25.5983 12.259 26.7898 13.4474 28.2556 13.4474C29.7213 13.4474 30.9033 12.259 30.9033 10.7986C30.9033 9.33825 29.716 8.14988 28.2556 8.14988ZM28.2556 11.3502C27.528 11.3502 27.5206 10.2471 28.2556 10.2471C28.9767 10.2471 28.9714 11.3502 28.2556 11.3502ZM37.6804 26.9035H57.2778C59.3954 26.9035 59.3954 30.1038 57.2778 30.1038H37.6804C35.5629 30.1038 35.5629 26.9035 37.6804 26.9035ZM20.3221 42.4196C33.2544 33.5974 33.2416 33.9601 33.2416 32.76C33.2416 31.5663 33.2544 31.9226 20.3221 23.0995C19.2649 22.3783 17.8194 23.1347 17.8194 24.4212V41.0968C17.8194 42.3812 19.2606 43.1428 20.3221 42.4196ZM21.0197 27.4508L28.8017 32.76L21.0197 38.0693V27.4508Z" fill="black"/>
<path d="M4.59907 67.0596C11.7069 67.0596 10.9079 67.0052 10.9772 67.1876L16.5095 81.7841C17.6509 84.7881 20.9867 86.2378 23.8712 85.0697L25.354 84.4819L27.9014 89.0381C28.2844 89.7229 28.6033 89.7101 31.7151 90.7865L34.0438 95.0461C36.3555 99.3078 42.6259 98.8907 44.3114 94.2311C44.8768 92.6693 44.7487 90.939 43.9583 89.4776L38.4026 79.3124C47.7207 75.6108 49.2654 74.8502 51.9206 74.4544V89.3378C51.9206 91.1065 53.269 92.8165 55.5796 92.8165C55.5796 92.9232 54.4371 92.8187 93.249 92.8165C95.5639 92.8165 96.9155 91.1769 96.9155 89.1501C96.9155 84.9022 96.9155 51.3323 96.9155 48.2707C96.9155 46.3527 95.3569 44.792 93.441 44.792H72.1154V7.72317C72.1154 4.56769 69.5499 2 66.3965 2H8.7189C5.56556 2 3 4.56769 3 7.72317V65.4595C3 66.3438 3.7158 67.0596 4.59907 67.0596ZM6.19922 7.72317C6.19922 6.33211 7.32998 5.20028 8.71784 5.20028H66.3933C67.7822 5.20028 68.9119 6.33211 68.9119 7.72317V15.2662H6.19922V7.72317ZM93.7141 48.2707V62.8139L91.3363 59.3203C89.8887 57.2038 86.7418 57.1921 85.2856 59.3224L73.8532 76.1207L73.0787 74.9814C75.5109 73.01 76.263 69.8854 75.2154 67.1044L72.7352 60.5566C76.9852 57.8983 78.2397 52.2551 75.5003 47.9913C93.7152 47.9913 93.7131 47.8366 93.7131 48.2697L93.7141 48.2707ZM68.5386 89.6184L74.8207 80.3877C88.1435 60.8127 87.928 60.9279 88.311 60.9279C88.6673 60.9279 88.2928 60.5374 93.7099 68.4976L93.7131 89.1565C93.7045 89.9128 93.7131 89.6184 68.5386 89.6184ZM41.3031 93.1419C40.5585 95.1965 37.8639 95.3757 36.8547 93.5153C34.0086 88.3095 34.1259 88.2348 33.3461 87.9649L30.3976 86.944L28.3558 83.2925L35.4018 80.4976C41.5271 91.705 41.844 91.6452 41.3031 93.1419ZM20.8448 82.07C19.5359 81.4982 19.9124 81.734 14.3503 67.0607C13.9087 65.8968 13.881 65.8734 13.8276 65.4605C13.6761 64.2882 14.345 63.1318 15.4022 62.7147L26.792 58.1916L34.1238 77.5619C21.6427 82.5127 22.0395 82.5916 20.8448 82.07ZM6.19922 63.8604V18.4676H68.913V43.9952C68.1119 43.9237 67.3033 43.961 66.5075 44.1168L64.0432 37.6127C62.1401 32.583 55.5529 31.6602 52.343 35.9166L51.5237 37.0015H37.6793C35.5618 37.0015 35.5618 40.2018 37.6793 40.2018H49.1054C46.9783 43.0169 45.328 45.3574 43.3876 47.0856H15.1707C13.0532 47.0856 13.0532 50.2859 15.1707 50.2859H38.042L27.1237 54.6169C25.7412 55.1663 27.1291 55.0009 15.1707 55.0009C13.0532 55.0009 13.0532 58.2012 15.1707 58.2012H18.0968C14.5733 59.5997 11.5618 60.1886 10.7447 63.8604H6.20028H6.19922ZM71.5703 57.4833L67.6766 47.2029C73.2281 46.7101 75.9643 53.9854 71.5703 57.4833ZM69.1061 73.2703L55.4697 37.2479C57.2853 35.7128 60.1464 36.3582 61.051 38.7467L72.2232 68.2384C73.131 70.6503 71.4476 73.1177 69.1061 73.2703ZM37.1011 76.3874L29.7672 57.0118C45.3717 50.8331 44.0212 52.2434 53.1495 40.1591L65.477 72.7252C50.5797 70.0369 52.2641 70.3634 37.1011 76.3874ZM55.1209 74.3232C56.9173 74.4245 59.2236 74.8373 61.1449 75.1968L55.1209 84.0563V74.3232ZM55.5977 89.6195C55.0441 89.6131 54.4637 90.7118 64.5926 75.8188L67.6948 76.3778C71.054 76.9773 69.1616 74.9131 71.9181 78.9668L64.6684 89.6195H55.5988H55.5977ZM12.0312 8.14988C10.5719 8.14988 9.38456 9.33825 9.38456 10.7986C9.38456 12.259 10.5719 13.4474 12.0312 13.4474C13.4905 13.4474 14.6789 12.259 14.6789 10.7986C14.6789 9.33825 13.4916 8.14988 12.0312 8.14988ZM12.0312 11.3502C11.3058 11.3502 11.2973 10.2471 12.0312 10.2471C12.7651 10.2471 12.7587 11.3502 12.0312 11.3502ZM20.1396 8.14988C18.6792 8.14988 17.4919 9.33825 17.4919 10.7986C17.4919 12.259 18.6792 13.4474 20.1396 13.4474C21.6 13.4474 22.7863 12.259 22.7863 10.7986C22.7863 9.33825 21.599 8.14988 20.1396 8.14988ZM20.1396 11.3502C19.4132 11.3502 19.4057 10.2471 20.1396 10.2471C20.8736 10.2471 20.8672 11.3502 20.1396 11.3502ZM28.2556 8.14988C26.7898 8.14988 25.5983 9.33825 25.5983 10.7986C25.5983 12.259 26.7898 13.4474 28.2556 13.4474C29.7213 13.4474 30.9033 12.259 30.9033 10.7986C30.9033 9.33825 29.716 8.14988 28.2556 8.14988ZM28.2556 11.3502C27.528 11.3502 27.5206 10.2471 28.2556 10.2471C28.9767 10.2471 28.9714 11.3502 28.2556 11.3502ZM37.6804 26.9035H57.2778C59.3954 26.9035 59.3954 30.1038 57.2778 30.1038H37.6804C35.5629 30.1038 35.5629 26.9035 37.6804 26.9035ZM20.3221 42.4196C33.2544 33.5974 33.2416 33.9601 33.2416 32.76C33.2416 31.5663 33.2544 31.9226 20.3221 23.0995C19.2649 22.3783 17.8194 23.1347 17.8194 24.4212V41.0968C17.8194 42.3812 19.2606 43.1428 20.3221 42.4196ZM21.0197 27.4508L28.8017 32.76L21.0197 38.0693V27.4508Z" stroke="black" mask="url(#path-10-outside-1_253_7879)"/>
</svg>
