<svg width="100" height="100" viewBox="0 0 100 100" fill="none" xmlns="http://www.w3.org/2000/svg">
<path d="M23.9844 95.2822H30.5368V63.8188H23.9844V95.2822Z" fill="#00B0FB"/>
<path d="M60.5127 60.7476V95.282H67.0649L67.0651 60.7476H60.5127Z" fill="#00B0FB"/>
<path d="M69.7866 79.5503V85.6843L69.7832 85.689C82.8182 81.2199 92.2831 69.5431 93.9223 55.8555H88.1376C87.3956 61.0403 85.3161 65.9492 82.0895 70.1118C78.8581 74.2789 74.6179 77.5272 69.7866 79.5503Z" fill="#00B0FB" fill-opacity="0.5"/>
<path d="M83.8052 35.4001C86.044 38.9722 87.5279 43.0184 88.1318 47.194L88.1274 47.1978L93.9164 47.1977C93.0279 39.778 89.8231 32.7817 84.7761 27.2344C84.5389 27.8426 84.2671 28.4424 83.9565 29.0161L85.9663 31.5352C86.3977 32.0744 86.3502 32.8551 85.8628 33.3425L83.8052 35.4001Z" fill="#00B0FB"/>
<path d="M56.1811 19.5957L53.2651 19.9279V23.1372L56.1855 23.4739C56.755 23.5386 57.2251 23.9527 57.3545 24.5134C57.6824 25.9025 58.2258 27.2182 58.9763 28.4216C59.2783 28.9091 59.2436 29.5389 58.8856 29.9875L57.0566 32.2866L59.3213 34.5513L61.6206 32.7223C62.0736 32.3642 62.6991 32.3299 63.1865 32.6318C64.403 33.3867 65.7187 33.9301 67.0947 34.2493C67.6555 34.3787 68.074 34.8489 68.1387 35.4226L68.4707 38.3386L71.6714 38.3386L72.0034 35.4226C72.0681 34.8489 72.4866 34.3786 73.0474 34.2492C74.4148 33.9342 75.7349 33.3865 76.96 32.6273C77.4474 32.3253 78.0729 32.36 78.5215 32.718L80.8208 34.5469L83.0853 32.282L81.2562 29.983C80.8939 29.5301 80.8598 28.9003 81.166 28.4128C81.9123 27.2136 82.4603 25.898 82.7881 24.5047C82.9175 23.9482 83.3876 23.5298 83.957 23.4651L86.873 23.1287L86.8726 19.9279L83.961 19.5957C83.3916 19.531 82.9217 19.1168 82.7923 18.5561C82.4644 17.1671 81.9205 15.8516 81.1657 14.6438C80.8594 14.1563 80.8983 13.5263 81.2563 13.0777L83.0855 10.7787L80.8206 8.51831L78.5214 10.3472C78.0728 10.7052 77.4429 10.7441 76.9555 10.4378C75.7476 9.68287 74.432 9.1351 73.043 8.81158C72.4865 8.68217 72.0682 8.21179 72.0035 7.64239L71.6714 4.73071H68.4708L68.1387 7.64258C68.074 8.21198 67.6598 8.68211 67.099 8.81152C65.7013 9.13508 64.3855 9.68286 63.1864 10.4334C62.6946 10.7397 62.0695 10.7053 61.6165 10.3472L59.3174 8.51831L57.0527 10.7786L58.8813 13.0779C59.2394 13.5266 59.274 14.152 58.9721 14.6394C58.2214 15.8559 57.6737 17.1715 57.3502 18.5562C57.2207 19.1126 56.7505 19.531 56.1811 19.5957Z" fill="#00B0FB" fill-opacity="0.5"/>
<path d="M77.1068 21.5283C77.1068 17.6504 73.9535 14.4971 70.0713 14.4971C66.1934 14.4971 63.0356 17.6504 63.0356 21.5283C63.0356 25.4063 66.189 28.5639 70.0713 28.5639C73.9492 28.5639 77.1068 25.4105 77.1068 21.5283Z" fill="#00B0FB"/>
<path d="M41.5152 21.5322C41.5152 12.2664 33.979 4.73047 24.7134 4.73047C15.4474 4.73047 7.90723 12.2662 7.90723 21.5322C7.90723 30.7982 15.4475 38.3384 24.7134 38.3384C33.9793 38.3384 41.5152 30.7981 41.5152 21.5322Z" fill="#00B0FB" fill-opacity="0.5"/>
<path d="M64.7143 42.3196L46.541 63.2757C46.3038 63.5518 45.9629 63.7199 45.6006 63.7415C45.2382 63.7631 44.8802 63.6424 44.6084 63.3965L27.3154 47.9065L5.32471 69.7593" stroke="#00B0FB" stroke-width="2" stroke-linecap="round"/>
<mask id="path-9-outside-1_253_7571" maskUnits="userSpaceOnUse" x="2" y="1" width="96" height="98" fill="black">
<rect fill="white" x="2" y="1" width="96" height="98"/>
<path d="M95.4225 53.1291H86.9332C86.2344 53.1291 85.652 53.6553 85.5787 54.3498C84.5995 63.9606 78.4784 72.4801 69.7862 76.5693V59.3843C69.7862 58.6337 69.178 58.0255 68.4274 58.0255H59.1532C58.4026 58.0255 57.7943 58.6337 57.7943 59.3843V96.6408C57.7943 97.3914 58.4025 97.9997 59.1532 97.9997H68.4274C69.178 97.9997 69.7862 97.3914 69.7862 96.6408V88.5485C76.934 86.2924 83.2277 82.0436 88.0413 76.2158C93.1357 70.0386 96.1596 62.5634 96.7807 54.596C96.8109 54.2164 96.6815 53.8454 96.4227 53.565C96.1639 53.2847 95.8015 53.1294 95.4262 53.1294L95.4225 53.1291ZM60.5125 95.282V60.7476H67.0649V95.282H60.5125ZM69.7868 85.6842V79.5502C74.6181 77.5271 78.8583 74.279 82.0897 70.1119C85.3163 65.9493 87.3955 61.0404 88.1375 55.8555H93.9221C92.2828 69.5432 82.8184 81.22 69.7834 85.689L69.7868 85.6842ZM3.39578 68.7532C2.8652 68.2183 2.86952 67.3599 3.4001 66.8293L26.3009 44.071C26.8099 43.562 27.6294 43.5404 28.1687 44.0236L45.389 59.4494L62.6567 39.5379C63.1485 38.9685 64.007 38.9081 64.5763 39.3999C65.1457 39.8916 65.2061 40.7501 64.7144 41.3195L46.5411 62.2756C46.3038 62.5517 45.963 62.7199 45.6007 62.7415C45.2384 62.763 44.8803 62.6423 44.6086 62.3964L27.3154 46.9065L5.32454 68.7593C5.05709 69.0224 4.712 69.1562 4.36691 69.1562C4.0175 69.1562 3.66811 69.0224 3.40066 68.755L3.39578 68.7532ZM50.1558 75.5299H40.8902C40.1396 75.5299 39.5314 76.1381 39.5314 76.8887V96.6412C39.5314 97.3917 40.1396 98 40.8902 98H50.1558C50.9064 98 51.5147 97.3918 51.5147 96.6412V76.8887C51.5147 76.1382 50.9064 75.5299 50.1558 75.5299ZM48.797 95.2823H42.2489V78.252H48.797V95.2823ZM31.8959 61.0968H22.6216C21.871 61.0968 21.2628 61.7051 21.2628 62.4557V96.6412C21.2628 97.3917 21.871 98 22.6216 98H31.8959C32.6464 98 33.2547 97.3918 33.2547 96.6412V62.4557C33.2547 61.7051 32.6465 61.0968 31.8959 61.0968ZM30.537 95.2823H23.9846V63.8189H30.537V95.2823ZM13.6314 75.5299H4.36579C3.61522 75.5299 3.00696 76.1381 3.00696 76.8887V96.6412C3.00696 97.3917 3.61518 98 4.36579 98H13.6314C14.382 98 14.9903 97.3918 14.9903 96.6412V76.8887C14.9903 76.1382 14.3821 75.5299 13.6314 75.5299ZM12.2726 95.2823H5.72451V78.252H12.2726V95.2823ZM24.7135 41.0562C35.4761 41.0562 44.233 32.2952 44.233 21.5279C44.233 10.7654 35.4763 2.00849 24.7135 2.00849C13.9467 2.00849 5.18528 10.7652 5.18528 21.5279C5.18528 32.2947 13.9463 41.0562 24.7135 41.0562ZM24.7135 4.73056C33.9792 4.73056 41.5153 12.2665 41.5153 21.5323C41.5153 30.7982 33.9794 38.3385 24.7135 38.3385C15.4477 38.3385 7.90736 30.7983 7.90736 21.5323C7.90736 12.2663 15.4476 4.73056 24.7135 4.73056ZM23.3547 22.5671V29.6241C22.0649 29.2834 20.5725 28.425 19.3344 26.4579C18.9333 25.8195 18.0964 25.6297 17.458 26.0266C16.8196 26.4277 16.6298 27.2646 17.0267 27.903C18.5839 30.3876 20.8184 31.9535 23.3505 32.4064V34.3604C23.3505 35.111 23.9587 35.7192 24.7093 35.7192C25.4599 35.7192 26.0682 35.111 26.0682 34.3604V32.4711C28.803 32.113 31.2144 30.5213 32.1676 28.3947C32.9354 26.6779 32.6895 24.8662 31.4688 23.2917C30.3256 21.8164 28.2336 21.096 26.0725 20.4921V13.4393C27.3623 13.7801 28.859 14.6385 30.0927 16.6055C30.4939 17.2439 31.3308 17.4337 31.9691 17.0326C32.6075 16.6314 32.7974 15.7946 32.3962 15.1562C30.8389 12.6758 28.6045 11.1056 26.0724 10.6485V8.69872C26.0724 7.94814 25.4641 7.33989 24.7135 7.33989C23.963 7.33989 23.3547 7.94811 23.3547 8.69872V10.588C20.6155 10.9461 18.2042 12.5378 17.2553 14.6644C16.4874 16.3813 16.7376 18.193 17.9584 19.7675C19.1016 21.2427 21.1936 21.9631 23.3547 22.5671ZM29.3204 24.9568C29.9114 25.7204 30.0365 26.5054 29.6871 27.2862C29.1651 28.4509 27.7114 29.4086 26.0723 29.7191V23.3263C27.4828 23.7533 28.7769 24.258 29.3204 24.9568ZM19.7355 15.7774C20.2532 14.6171 21.7155 13.6551 23.3546 13.3446V19.7374C21.9441 19.3104 20.65 18.8057 20.1064 18.1025C19.5112 17.339 19.3904 16.554 19.7355 15.7774ZM51.7467 25.6945L54.9517 26.0612C55.2579 27.0878 55.6677 28.0756 56.1725 29.0117L54.1666 31.5352C53.7353 32.0744 53.7827 32.8552 54.2701 33.3426L58.2517 37.3242C58.7391 37.8116 59.5198 37.8591 60.0591 37.4277L62.5826 35.4219C63.5273 35.9309 64.5151 36.3407 65.5374 36.6469L65.8998 39.8476C65.9774 40.5335 66.5598 41.0555 67.25 41.0555H72.8793C73.5695 41.0555 74.1518 40.5379 74.2295 39.8476L74.5919 36.6469C75.6099 36.345 76.5977 35.9352 77.5468 35.4219L80.0703 37.4277C80.5922 37.8418 81.3298 37.8159 81.8216 37.3759C83.8706 40.8139 85.1646 44.7048 85.5701 48.6905C85.6391 49.385 86.2258 49.9113 86.9246 49.9113H95.4138C95.7934 49.9113 96.1558 49.7517 96.4103 49.4756C96.6691 49.1952 96.7985 48.8242 96.7683 48.4446C96.1126 40.0719 92.7221 32.1177 87.1662 25.8288L88.3741 25.6907C89.0599 25.6131 89.5775 25.0308 89.5775 24.3405V18.7112C89.5775 18.021 89.0599 17.4387 88.3696 17.361L85.1733 16.9986C84.867 15.972 84.4572 14.9842 83.9482 14.0438L85.9583 11.5202C86.3897 10.9767 86.3465 10.2003 85.8548 9.70855L81.8733 5.73134C81.3858 5.2439 80.6051 5.20076 80.0659 5.62781L77.5424 7.63365C76.602 7.12463 75.6142 6.71484 74.5875 6.40424L74.2252 3.20787C74.1475 2.52201 73.5652 2 72.8749 2H67.2456C66.5554 2 65.9731 2.51764 65.8954 3.20787L65.533 6.40424C64.5021 6.7105 63.5143 7.12461 62.5782 7.62934L60.0546 5.62351C59.5154 5.19215 58.7347 5.23959 58.2473 5.72703L54.2657 9.70424C53.7783 10.1917 53.7308 10.9724 54.1622 11.5116L56.168 14.0352C55.659 14.9798 55.2492 15.9677 54.9429 16.99L51.738 17.3524C51.0521 17.43 50.5301 18.0124 50.5301 18.7026V24.3319C50.5301 25.0221 51.0477 25.6044 51.7336 25.6821L51.7467 25.6945ZM88.1319 47.1939C87.528 43.0184 86.0442 38.9722 83.8053 35.4001L85.8629 33.3425C86.3504 32.855 86.3978 32.0743 85.9665 31.5351L83.9563 29.016C84.2669 28.4423 84.5387 27.8427 84.7759 27.2344C89.8229 32.7817 93.028 39.7781 93.9165 47.1978H88.1276L88.1319 47.1939ZM53.2651 19.9279L56.1811 19.5958C56.7505 19.5311 57.2207 19.1126 57.3501 18.5562C57.6736 17.1715 58.2214 15.8559 58.972 14.6394C59.274 14.1519 59.2395 13.5265 58.8815 13.0778L57.0525 10.7787L59.3172 8.51829L61.6163 10.3472C62.0693 10.7052 62.6948 10.7398 63.1865 10.4335C64.3857 9.68291 65.7013 9.13506 67.099 8.8115C67.6598 8.68209 68.0739 8.21191 68.1386 7.6425L68.4708 4.73082H71.6714L72.0036 7.6425C72.0683 8.21189 72.4867 8.68209 73.0432 8.8115C74.4322 9.13503 75.7478 9.68285 76.9557 10.4378C77.4431 10.7441 78.0729 10.7052 78.5216 10.3472L80.8207 8.51828L83.0854 10.7787L81.2565 13.0778C80.8984 13.5264 80.8596 14.1562 81.1659 14.6437C81.9207 15.8515 82.4643 17.1672 82.7922 18.5562C82.9216 19.1169 83.3918 19.531 83.9612 19.5958L86.8728 19.9279V23.1286L83.9568 23.465C83.3875 23.5297 82.9173 23.9482 82.7878 24.5046C82.46 25.8979 81.9122 27.2136 81.1659 28.4128C80.8596 28.9003 80.8941 29.53 81.2565 29.983L83.0854 32.2821L80.8207 34.5468L78.5216 32.7179C78.073 32.3599 77.4475 32.3254 76.96 32.6273C75.7349 33.3865 74.4149 33.9344 73.0475 34.2493C72.4867 34.3787 72.0683 34.8489 72.0036 35.4226L71.6714 38.3386H68.4708L68.1386 35.4226C68.0739 34.8489 67.6555 34.3787 67.0947 34.2493C65.7187 33.9301 64.403 33.3866 63.1865 32.6317C62.6991 32.3298 62.0736 32.3643 61.6207 32.7223L59.3215 34.5512L57.0568 32.2866L58.8858 29.9874C59.2438 29.5388 59.2783 28.909 58.9764 28.4216C58.2258 27.2181 57.6822 25.9024 57.3544 24.5134C57.225 23.9526 56.7548 23.5385 56.1854 23.4738L53.2651 23.1373V19.9279ZM70.0713 31.2855C75.4504 31.2855 79.8287 26.9072 79.8287 21.5281C79.8287 16.149 75.4504 11.775 70.0713 11.775C64.6922 11.775 60.3139 16.149 60.3139 21.5281C60.3139 26.9072 64.6922 31.2855 70.0713 31.2855ZM70.0713 14.497C73.9535 14.497 77.1068 17.6503 77.1068 21.5282C77.1068 25.4105 73.9492 28.5638 70.0713 28.5638C66.189 28.5638 63.0357 25.4062 63.0357 21.5282C63.0357 17.6503 66.1933 14.497 70.0713 14.497Z"/>
</mask>
<path d="M95.4225 53.1291H86.9332C86.2344 53.1291 85.652 53.6553 85.5787 54.3498C84.5995 63.9606 78.4784 72.4801 69.7862 76.5693V59.3843C69.7862 58.6337 69.178 58.0255 68.4274 58.0255H59.1532C58.4026 58.0255 57.7943 58.6337 57.7943 59.3843V96.6408C57.7943 97.3914 58.4025 97.9997 59.1532 97.9997H68.4274C69.178 97.9997 69.7862 97.3914 69.7862 96.6408V88.5485C76.934 86.2924 83.2277 82.0436 88.0413 76.2158C93.1357 70.0386 96.1596 62.5634 96.7807 54.596C96.8109 54.2164 96.6815 53.8454 96.4227 53.565C96.1639 53.2847 95.8015 53.1294 95.4262 53.1294L95.4225 53.1291ZM60.5125 95.282V60.7476H67.0649V95.282H60.5125ZM69.7868 85.6842V79.5502C74.6181 77.5271 78.8583 74.279 82.0897 70.1119C85.3163 65.9493 87.3955 61.0404 88.1375 55.8555H93.9221C92.2828 69.5432 82.8184 81.22 69.7834 85.689L69.7868 85.6842ZM3.39578 68.7532C2.8652 68.2183 2.86952 67.3599 3.4001 66.8293L26.3009 44.071C26.8099 43.562 27.6294 43.5404 28.1687 44.0236L45.389 59.4494L62.6567 39.5379C63.1485 38.9685 64.007 38.9081 64.5763 39.3999C65.1457 39.8916 65.2061 40.7501 64.7144 41.3195L46.5411 62.2756C46.3038 62.5517 45.963 62.7199 45.6007 62.7415C45.2384 62.763 44.8803 62.6423 44.6086 62.3964L27.3154 46.9065L5.32454 68.7593C5.05709 69.0224 4.712 69.1562 4.36691 69.1562C4.0175 69.1562 3.66811 69.0224 3.40066 68.755L3.39578 68.7532ZM50.1558 75.5299H40.8902C40.1396 75.5299 39.5314 76.1381 39.5314 76.8887V96.6412C39.5314 97.3917 40.1396 98 40.8902 98H50.1558C50.9064 98 51.5147 97.3918 51.5147 96.6412V76.8887C51.5147 76.1382 50.9064 75.5299 50.1558 75.5299ZM48.797 95.2823H42.2489V78.252H48.797V95.2823ZM31.8959 61.0968H22.6216C21.871 61.0968 21.2628 61.7051 21.2628 62.4557V96.6412C21.2628 97.3917 21.871 98 22.6216 98H31.8959C32.6464 98 33.2547 97.3918 33.2547 96.6412V62.4557C33.2547 61.7051 32.6465 61.0968 31.8959 61.0968ZM30.537 95.2823H23.9846V63.8189H30.537V95.2823ZM13.6314 75.5299H4.36579C3.61522 75.5299 3.00696 76.1381 3.00696 76.8887V96.6412C3.00696 97.3917 3.61518 98 4.36579 98H13.6314C14.382 98 14.9903 97.3918 14.9903 96.6412V76.8887C14.9903 76.1382 14.3821 75.5299 13.6314 75.5299ZM12.2726 95.2823H5.72451V78.252H12.2726V95.2823ZM24.7135 41.0562C35.4761 41.0562 44.233 32.2952 44.233 21.5279C44.233 10.7654 35.4763 2.00849 24.7135 2.00849C13.9467 2.00849 5.18528 10.7652 5.18528 21.5279C5.18528 32.2947 13.9463 41.0562 24.7135 41.0562ZM24.7135 4.73056C33.9792 4.73056 41.5153 12.2665 41.5153 21.5323C41.5153 30.7982 33.9794 38.3385 24.7135 38.3385C15.4477 38.3385 7.90736 30.7983 7.90736 21.5323C7.90736 12.2663 15.4476 4.73056 24.7135 4.73056ZM23.3547 22.5671V29.6241C22.0649 29.2834 20.5725 28.425 19.3344 26.4579C18.9333 25.8195 18.0964 25.6297 17.458 26.0266C16.8196 26.4277 16.6298 27.2646 17.0267 27.903C18.5839 30.3876 20.8184 31.9535 23.3505 32.4064V34.3604C23.3505 35.111 23.9587 35.7192 24.7093 35.7192C25.4599 35.7192 26.0682 35.111 26.0682 34.3604V32.4711C28.803 32.113 31.2144 30.5213 32.1676 28.3947C32.9354 26.6779 32.6895 24.8662 31.4688 23.2917C30.3256 21.8164 28.2336 21.096 26.0725 20.4921V13.4393C27.3623 13.7801 28.859 14.6385 30.0927 16.6055C30.4939 17.2439 31.3308 17.4337 31.9691 17.0326C32.6075 16.6314 32.7974 15.7946 32.3962 15.1562C30.8389 12.6758 28.6045 11.1056 26.0724 10.6485V8.69872C26.0724 7.94814 25.4641 7.33989 24.7135 7.33989C23.963 7.33989 23.3547 7.94811 23.3547 8.69872V10.588C20.6155 10.9461 18.2042 12.5378 17.2553 14.6644C16.4874 16.3813 16.7376 18.193 17.9584 19.7675C19.1016 21.2427 21.1936 21.9631 23.3547 22.5671ZM29.3204 24.9568C29.9114 25.7204 30.0365 26.5054 29.6871 27.2862C29.1651 28.4509 27.7114 29.4086 26.0723 29.7191V23.3263C27.4828 23.7533 28.7769 24.258 29.3204 24.9568ZM19.7355 15.7774C20.2532 14.6171 21.7155 13.6551 23.3546 13.3446V19.7374C21.9441 19.3104 20.65 18.8057 20.1064 18.1025C19.5112 17.339 19.3904 16.554 19.7355 15.7774ZM51.7467 25.6945L54.9517 26.0612C55.2579 27.0878 55.6677 28.0756 56.1725 29.0117L54.1666 31.5352C53.7353 32.0744 53.7827 32.8552 54.2701 33.3426L58.2517 37.3242C58.7391 37.8116 59.5198 37.8591 60.0591 37.4277L62.5826 35.4219C63.5273 35.9309 64.5151 36.3407 65.5374 36.6469L65.8998 39.8476C65.9774 40.5335 66.5598 41.0555 67.25 41.0555H72.8793C73.5695 41.0555 74.1518 40.5379 74.2295 39.8476L74.5919 36.6469C75.6099 36.345 76.5977 35.9352 77.5468 35.4219L80.0703 37.4277C80.5922 37.8418 81.3298 37.8159 81.8216 37.3759C83.8706 40.8139 85.1646 44.7048 85.5701 48.6905C85.6391 49.385 86.2258 49.9113 86.9246 49.9113H95.4138C95.7934 49.9113 96.1558 49.7517 96.4103 49.4756C96.6691 49.1952 96.7985 48.8242 96.7683 48.4446C96.1126 40.0719 92.7221 32.1177 87.1662 25.8288L88.3741 25.6907C89.0599 25.6131 89.5775 25.0308 89.5775 24.3405V18.7112C89.5775 18.021 89.0599 17.4387 88.3696 17.361L85.1733 16.9986C84.867 15.972 84.4572 14.9842 83.9482 14.0438L85.9583 11.5202C86.3897 10.9767 86.3465 10.2003 85.8548 9.70855L81.8733 5.73134C81.3858 5.2439 80.6051 5.20076 80.0659 5.62781L77.5424 7.63365C76.602 7.12463 75.6142 6.71484 74.5875 6.40424L74.2252 3.20787C74.1475 2.52201 73.5652 2 72.8749 2H67.2456C66.5554 2 65.9731 2.51764 65.8954 3.20787L65.533 6.40424C64.5021 6.7105 63.5143 7.12461 62.5782 7.62934L60.0546 5.62351C59.5154 5.19215 58.7347 5.23959 58.2473 5.72703L54.2657 9.70424C53.7783 10.1917 53.7308 10.9724 54.1622 11.5116L56.168 14.0352C55.659 14.9798 55.2492 15.9677 54.9429 16.99L51.738 17.3524C51.0521 17.43 50.5301 18.0124 50.5301 18.7026V24.3319C50.5301 25.0221 51.0477 25.6044 51.7336 25.6821L51.7467 25.6945ZM88.1319 47.1939C87.528 43.0184 86.0442 38.9722 83.8053 35.4001L85.8629 33.3425C86.3504 32.855 86.3978 32.0743 85.9665 31.5351L83.9563 29.016C84.2669 28.4423 84.5387 27.8427 84.7759 27.2344C89.8229 32.7817 93.028 39.7781 93.9165 47.1978H88.1276L88.1319 47.1939ZM53.2651 19.9279L56.1811 19.5958C56.7505 19.5311 57.2207 19.1126 57.3501 18.5562C57.6736 17.1715 58.2214 15.8559 58.972 14.6394C59.274 14.1519 59.2395 13.5265 58.8815 13.0778L57.0525 10.7787L59.3172 8.51829L61.6163 10.3472C62.0693 10.7052 62.6948 10.7398 63.1865 10.4335C64.3857 9.68291 65.7013 9.13506 67.099 8.8115C67.6598 8.68209 68.0739 8.21191 68.1386 7.6425L68.4708 4.73082H71.6714L72.0036 7.6425C72.0683 8.21189 72.4867 8.68209 73.0432 8.8115C74.4322 9.13503 75.7478 9.68285 76.9557 10.4378C77.4431 10.7441 78.0729 10.7052 78.5216 10.3472L80.8207 8.51828L83.0854 10.7787L81.2565 13.0778C80.8984 13.5264 80.8596 14.1562 81.1659 14.6437C81.9207 15.8515 82.4643 17.1672 82.7922 18.5562C82.9216 19.1169 83.3918 19.531 83.9612 19.5958L86.8728 19.9279V23.1286L83.9568 23.465C83.3875 23.5297 82.9173 23.9482 82.7878 24.5046C82.46 25.8979 81.9122 27.2136 81.1659 28.4128C80.8596 28.9003 80.8941 29.53 81.2565 29.983L83.0854 32.2821L80.8207 34.5468L78.5216 32.7179C78.073 32.3599 77.4475 32.3254 76.96 32.6273C75.7349 33.3865 74.4149 33.9344 73.0475 34.2493C72.4867 34.3787 72.0683 34.8489 72.0036 35.4226L71.6714 38.3386H68.4708L68.1386 35.4226C68.0739 34.8489 67.6555 34.3787 67.0947 34.2493C65.7187 33.9301 64.403 33.3866 63.1865 32.6317C62.6991 32.3298 62.0736 32.3643 61.6207 32.7223L59.3215 34.5512L57.0568 32.2866L58.8858 29.9874C59.2438 29.5388 59.2783 28.909 58.9764 28.4216C58.2258 27.2181 57.6822 25.9024 57.3544 24.5134C57.225 23.9526 56.7548 23.5385 56.1854 23.4738L53.2651 23.1373V19.9279ZM70.0713 31.2855C75.4504 31.2855 79.8287 26.9072 79.8287 21.5281C79.8287 16.149 75.4504 11.775 70.0713 11.775C64.6922 11.775 60.3139 16.149 60.3139 21.5281C60.3139 26.9072 64.6922 31.2855 70.0713 31.2855ZM70.0713 14.497C73.9535 14.497 77.1068 17.6503 77.1068 21.5282C77.1068 25.4105 73.9492 28.5638 70.0713 28.5638C66.189 28.5638 63.0357 25.4062 63.0357 21.5282C63.0357 17.6503 66.1933 14.497 70.0713 14.497Z" fill="black"/>
<path d="M95.4225 53.1291H86.9332C86.2344 53.1291 85.652 53.6553 85.5787 54.3498C84.5995 63.9606 78.4784 72.4801 69.7862 76.5693V59.3843C69.7862 58.6337 69.178 58.0255 68.4274 58.0255H59.1532C58.4026 58.0255 57.7943 58.6337 57.7943 59.3843V96.6408C57.7943 97.3914 58.4025 97.9997 59.1532 97.9997H68.4274C69.178 97.9997 69.7862 97.3914 69.7862 96.6408V88.5485C76.934 86.2924 83.2277 82.0436 88.0413 76.2158C93.1357 70.0386 96.1596 62.5634 96.7807 54.596C96.8109 54.2164 96.6815 53.8454 96.4227 53.565C96.1639 53.2847 95.8015 53.1294 95.4262 53.1294L95.4225 53.1291ZM60.5125 95.282V60.7476H67.0649V95.282H60.5125ZM69.7868 85.6842V79.5502C74.6181 77.5271 78.8583 74.279 82.0897 70.1119C85.3163 65.9493 87.3955 61.0404 88.1375 55.8555H93.9221C92.2828 69.5432 82.8184 81.22 69.7834 85.689L69.7868 85.6842ZM3.39578 68.7532C2.8652 68.2183 2.86952 67.3599 3.4001 66.8293L26.3009 44.071C26.8099 43.562 27.6294 43.5404 28.1687 44.0236L45.389 59.4494L62.6567 39.5379C63.1485 38.9685 64.007 38.9081 64.5763 39.3999C65.1457 39.8916 65.2061 40.7501 64.7144 41.3195L46.5411 62.2756C46.3038 62.5517 45.963 62.7199 45.6007 62.7415C45.2384 62.763 44.8803 62.6423 44.6086 62.3964L27.3154 46.9065L5.32454 68.7593C5.05709 69.0224 4.712 69.1562 4.36691 69.1562C4.0175 69.1562 3.66811 69.0224 3.40066 68.755L3.39578 68.7532ZM50.1558 75.5299H40.8902C40.1396 75.5299 39.5314 76.1381 39.5314 76.8887V96.6412C39.5314 97.3917 40.1396 98 40.8902 98H50.1558C50.9064 98 51.5147 97.3918 51.5147 96.6412V76.8887C51.5147 76.1382 50.9064 75.5299 50.1558 75.5299ZM48.797 95.2823H42.2489V78.252H48.797V95.2823ZM31.8959 61.0968H22.6216C21.871 61.0968 21.2628 61.7051 21.2628 62.4557V96.6412C21.2628 97.3917 21.871 98 22.6216 98H31.8959C32.6464 98 33.2547 97.3918 33.2547 96.6412V62.4557C33.2547 61.7051 32.6465 61.0968 31.8959 61.0968ZM30.537 95.2823H23.9846V63.8189H30.537V95.2823ZM13.6314 75.5299H4.36579C3.61522 75.5299 3.00696 76.1381 3.00696 76.8887V96.6412C3.00696 97.3917 3.61518 98 4.36579 98H13.6314C14.382 98 14.9903 97.3918 14.9903 96.6412V76.8887C14.9903 76.1382 14.3821 75.5299 13.6314 75.5299ZM12.2726 95.2823H5.72451V78.252H12.2726V95.2823ZM24.7135 41.0562C35.4761 41.0562 44.233 32.2952 44.233 21.5279C44.233 10.7654 35.4763 2.00849 24.7135 2.00849C13.9467 2.00849 5.18528 10.7652 5.18528 21.5279C5.18528 32.2947 13.9463 41.0562 24.7135 41.0562ZM24.7135 4.73056C33.9792 4.73056 41.5153 12.2665 41.5153 21.5323C41.5153 30.7982 33.9794 38.3385 24.7135 38.3385C15.4477 38.3385 7.90736 30.7983 7.90736 21.5323C7.90736 12.2663 15.4476 4.73056 24.7135 4.73056ZM23.3547 22.5671V29.6241C22.0649 29.2834 20.5725 28.425 19.3344 26.4579C18.9333 25.8195 18.0964 25.6297 17.458 26.0266C16.8196 26.4277 16.6298 27.2646 17.0267 27.903C18.5839 30.3876 20.8184 31.9535 23.3505 32.4064V34.3604C23.3505 35.111 23.9587 35.7192 24.7093 35.7192C25.4599 35.7192 26.0682 35.111 26.0682 34.3604V32.4711C28.803 32.113 31.2144 30.5213 32.1676 28.3947C32.9354 26.6779 32.6895 24.8662 31.4688 23.2917C30.3256 21.8164 28.2336 21.096 26.0725 20.4921V13.4393C27.3623 13.7801 28.859 14.6385 30.0927 16.6055C30.4939 17.2439 31.3308 17.4337 31.9691 17.0326C32.6075 16.6314 32.7974 15.7946 32.3962 15.1562C30.8389 12.6758 28.6045 11.1056 26.0724 10.6485V8.69872C26.0724 7.94814 25.4641 7.33989 24.7135 7.33989C23.963 7.33989 23.3547 7.94811 23.3547 8.69872V10.588C20.6155 10.9461 18.2042 12.5378 17.2553 14.6644C16.4874 16.3813 16.7376 18.193 17.9584 19.7675C19.1016 21.2427 21.1936 21.9631 23.3547 22.5671ZM29.3204 24.9568C29.9114 25.7204 30.0365 26.5054 29.6871 27.2862C29.1651 28.4509 27.7114 29.4086 26.0723 29.7191V23.3263C27.4828 23.7533 28.7769 24.258 29.3204 24.9568ZM19.7355 15.7774C20.2532 14.6171 21.7155 13.6551 23.3546 13.3446V19.7374C21.9441 19.3104 20.65 18.8057 20.1064 18.1025C19.5112 17.339 19.3904 16.554 19.7355 15.7774ZM51.7467 25.6945L54.9517 26.0612C55.2579 27.0878 55.6677 28.0756 56.1725 29.0117L54.1666 31.5352C53.7353 32.0744 53.7827 32.8552 54.2701 33.3426L58.2517 37.3242C58.7391 37.8116 59.5198 37.8591 60.0591 37.4277L62.5826 35.4219C63.5273 35.9309 64.5151 36.3407 65.5374 36.6469L65.8998 39.8476C65.9774 40.5335 66.5598 41.0555 67.25 41.0555H72.8793C73.5695 41.0555 74.1518 40.5379 74.2295 39.8476L74.5919 36.6469C75.6099 36.345 76.5977 35.9352 77.5468 35.4219L80.0703 37.4277C80.5922 37.8418 81.3298 37.8159 81.8216 37.3759C83.8706 40.8139 85.1646 44.7048 85.5701 48.6905C85.6391 49.385 86.2258 49.9113 86.9246 49.9113H95.4138C95.7934 49.9113 96.1558 49.7517 96.4103 49.4756C96.6691 49.1952 96.7985 48.8242 96.7683 48.4446C96.1126 40.0719 92.7221 32.1177 87.1662 25.8288L88.3741 25.6907C89.0599 25.6131 89.5775 25.0308 89.5775 24.3405V18.7112C89.5775 18.021 89.0599 17.4387 88.3696 17.361L85.1733 16.9986C84.867 15.972 84.4572 14.9842 83.9482 14.0438L85.9583 11.5202C86.3897 10.9767 86.3465 10.2003 85.8548 9.70855L81.8733 5.73134C81.3858 5.2439 80.6051 5.20076 80.0659 5.62781L77.5424 7.63365C76.602 7.12463 75.6142 6.71484 74.5875 6.40424L74.2252 3.20787C74.1475 2.52201 73.5652 2 72.8749 2H67.2456C66.5554 2 65.9731 2.51764 65.8954 3.20787L65.533 6.40424C64.5021 6.7105 63.5143 7.12461 62.5782 7.62934L60.0546 5.62351C59.5154 5.19215 58.7347 5.23959 58.2473 5.72703L54.2657 9.70424C53.7783 10.1917 53.7308 10.9724 54.1622 11.5116L56.168 14.0352C55.659 14.9798 55.2492 15.9677 54.9429 16.99L51.738 17.3524C51.0521 17.43 50.5301 18.0124 50.5301 18.7026V24.3319C50.5301 25.0221 51.0477 25.6044 51.7336 25.6821L51.7467 25.6945ZM88.1319 47.1939C87.528 43.0184 86.0442 38.9722 83.8053 35.4001L85.8629 33.3425C86.3504 32.855 86.3978 32.0743 85.9665 31.5351L83.9563 29.016C84.2669 28.4423 84.5387 27.8427 84.7759 27.2344C89.8229 32.7817 93.028 39.7781 93.9165 47.1978H88.1276L88.1319 47.1939ZM53.2651 19.9279L56.1811 19.5958C56.7505 19.5311 57.2207 19.1126 57.3501 18.5562C57.6736 17.1715 58.2214 15.8559 58.972 14.6394C59.274 14.1519 59.2395 13.5265 58.8815 13.0778L57.0525 10.7787L59.3172 8.51829L61.6163 10.3472C62.0693 10.7052 62.6948 10.7398 63.1865 10.4335C64.3857 9.68291 65.7013 9.13506 67.099 8.8115C67.6598 8.68209 68.0739 8.21191 68.1386 7.6425L68.4708 4.73082H71.6714L72.0036 7.6425C72.0683 8.21189 72.4867 8.68209 73.0432 8.8115C74.4322 9.13503 75.7478 9.68285 76.9557 10.4378C77.4431 10.7441 78.0729 10.7052 78.5216 10.3472L80.8207 8.51828L83.0854 10.7787L81.2565 13.0778C80.8984 13.5264 80.8596 14.1562 81.1659 14.6437C81.9207 15.8515 82.4643 17.1672 82.7922 18.5562C82.9216 19.1169 83.3918 19.531 83.9612 19.5958L86.8728 19.9279V23.1286L83.9568 23.465C83.3875 23.5297 82.9173 23.9482 82.7878 24.5046C82.46 25.8979 81.9122 27.2136 81.1659 28.4128C80.8596 28.9003 80.8941 29.53 81.2565 29.983L83.0854 32.2821L80.8207 34.5468L78.5216 32.7179C78.073 32.3599 77.4475 32.3254 76.96 32.6273C75.7349 33.3865 74.4149 33.9344 73.0475 34.2493C72.4867 34.3787 72.0683 34.8489 72.0036 35.4226L71.6714 38.3386H68.4708L68.1386 35.4226C68.0739 34.8489 67.6555 34.3787 67.0947 34.2493C65.7187 33.9301 64.403 33.3866 63.1865 32.6317C62.6991 32.3298 62.0736 32.3643 61.6207 32.7223L59.3215 34.5512L57.0568 32.2866L58.8858 29.9874C59.2438 29.5388 59.2783 28.909 58.9764 28.4216C58.2258 27.2181 57.6822 25.9024 57.3544 24.5134C57.225 23.9526 56.7548 23.5385 56.1854 23.4738L53.2651 23.1373V19.9279ZM70.0713 31.2855C75.4504 31.2855 79.8287 26.9072 79.8287 21.5281C79.8287 16.149 75.4504 11.775 70.0713 11.775C64.6922 11.775 60.3139 16.149 60.3139 21.5281C60.3139 26.9072 64.6922 31.2855 70.0713 31.2855ZM70.0713 14.497C73.9535 14.497 77.1068 17.6503 77.1068 21.5282C77.1068 25.4105 73.9492 28.5638 70.0713 28.5638C66.189 28.5638 63.0357 25.4062 63.0357 21.5282C63.0357 17.6503 66.1933 14.497 70.0713 14.497Z" stroke="black" stroke-width="1.2" mask="url(#path-9-outside-1_253_7571)"/>
</svg>
