<svg width="100" height="100" viewBox="0 0 100 100" fill="none" xmlns="http://www.w3.org/2000/svg">
<path d="M31.2109 11.9727C39.127 10.9724 45.3722 8.97171 49.8015 6.02026" stroke="#00B0FB" stroke-width="2"/>
<path d="M67.3923 10.9727C68.7137 28.1216 62.6213 39.1045 48.8018 44.5222" stroke="#00B0FB" stroke-width="2"/>
<path d="M54.2141 94.954C55.3421 95.6209 56.8035 95.2504 57.4744 94.1225L57.4705 94.1184C58.1127 93.0357 57.7708 91.595 56.7088 90.9034L55.021 89.9031L52.584 93.9866L54.2141 94.954Z" fill="#00B0FB" fill-opacity="0.5"/>
<path d="M71.6806 78.426C72.2981 78.2655 72.8168 77.8827 73.1379 77.3393L73.134 77.3388C73.7185 76.3549 73.488 75.1035 72.6318 74.3049L72.5946 74.2801L72.5943 74.2799C72.471 74.1812 72.3476 74.0825 72.2202 73.9839C72.1872 73.9592 72.1584 73.9386 72.1296 73.9139C70.2195 72.4525 67.8813 71.1888 65.6132 69.9662C64.444 69.3363 63.2338 68.6819 62.11 68.015C58.002 65.7716 53.9557 65.5162 50.0902 67.2493C44.4955 69.9415 40.28 69.9414 37.559 67.2451C36.7728 66.4672 36.4066 65.4998 36.4971 64.4542C36.6248 62.9722 37.6498 61.762 38.4895 61.1733C39.0164 60.8069 39.5557 60.4323 40.1073 60.0536C42.5895 58.3411 45.1541 56.5712 47.764 54.3277C45.4011 52.9239 42.6389 52.8456 39.9879 54.1547C35.3851 56.4311 31.8615 55.192 28.2431 53.6277L21.8213 69.7156L24.3818 70.7858C24.4023 70.7941 24.4188 70.8023 24.4394 70.8105C25.5673 71.3457 26.4935 72.1813 27.1892 73.2639C28.8029 71.7572 31.2893 71.4195 33.2858 72.601C34.459 73.2925 35.2864 74.404 35.6239 75.7254C35.6404 75.7871 35.6527 75.8448 35.6651 75.9066C36.9824 75.5155 38.4522 75.6513 39.7201 76.4087C40.8891 77.0961 41.7164 78.2077 42.0539 79.529L42.0786 79.6401C43.4164 79.2202 44.9231 79.3438 46.2198 80.1095C47.2283 80.7022 47.9817 81.612 48.3851 82.6946C49.8875 81.9413 51.7359 81.9413 53.2878 82.8593C54.4611 83.5509 55.2928 84.6623 55.6263 85.9878C55.7251 86.3871 55.7786 86.7864 55.7827 87.1857L58.1373 88.5854C58.1373 88.5895 58.1415 88.5895 58.1415 88.5895C58.3967 88.7418 58.6519 88.8982 58.9112 89.0546C59.5164 89.421 60.1421 89.8038 60.7431 90.1331C61.8503 90.7382 63.2789 90.3471 63.9251 89.2604C64.2503 88.713 64.3409 88.0749 64.1844 87.4574C64.0281 86.84 63.6411 86.3254 63.1019 86.0002L63.0975 86.0002L51.6456 79.1956C51.0035 78.8127 50.7894 77.9771 51.1722 77.3308C51.5551 76.6887 52.3907 76.4746 53.037 76.8574L66.0616 84.5965C67.1896 85.2675 68.6509 84.8928 69.3219 83.7649C69.9929 82.6411 69.6182 81.18 68.4903 80.509L58.2649 74.433C57.6186 74.0502 57.4087 73.2145 57.7916 72.5682C58.1744 71.9219 59.01 71.7121 59.6563 72.0949L69.8817 78.1709C70.421 78.4919 71.0632 78.5825 71.6806 78.426Z" fill="#00B0FB" fill-opacity="0.5"/>
<path d="M25.235 82.8022C25.3914 83.4197 25.7742 83.9343 26.3176 84.2554C27.4496 84.9222 28.9234 84.5474 29.5985 83.4195C29.6232 83.3742 29.6561 83.3331 29.6849 83.2919L32.7229 78.1874C33.044 77.644 33.1386 77.01 32.9822 76.3967C32.8258 75.7833 32.4389 75.2648 31.8955 74.9437C30.7593 74.2727 29.2939 74.6472 28.6229 75.7751L25.4943 81.0116C25.1732 81.5508 25.0786 82.1848 25.235 82.8022Z" fill="#00B0FB"/>
<path d="M30.3473 88.8654C30.5037 89.4787 30.8906 89.9933 31.4299 90.3144L31.4256 90.3103C32.5536 90.9813 34.0192 90.6067 34.6902 89.4788L35.5794 87.9886C35.5958 87.9639 35.6082 87.935 35.6247 87.9103C35.6288 87.898 35.637 87.8897 35.6452 87.8774L39.1522 81.9949C39.4733 81.4557 39.5641 80.8176 39.4077 80.2001C39.2472 79.5868 38.8643 79.0681 38.3209 78.747C37.9381 78.5206 37.5224 78.4136 37.1066 78.4136C36.2957 78.4136 35.5012 78.8293 35.0566 79.5785L35.0566 79.5827L30.6025 87.0626C30.2814 87.6101 30.1909 88.2479 30.3473 88.8654Z" fill="#00B0FB"/>
<path d="M37.7034 91.101C37.8598 91.7185 38.2468 92.2372 38.7901 92.5582L38.7899 92.5624C39.9179 93.2293 41.3877 92.8547 42.0628 91.7268L42.9108 90.3065C42.9396 90.2489 42.9685 90.1954 43.0014 90.1419C43.022 90.1131 43.0384 90.0883 43.059 90.0595L45.4672 86.0254C45.4754 86.013 45.4795 86.0048 45.4836 85.9965L45.673 85.6796C45.9817 85.1445 46.0723 84.5146 45.9158 83.9054C45.7594 83.292 45.3725 82.7773 44.8333 82.4562C43.7011 81.7893 42.2316 82.16 41.5606 83.2879C41.5524 83.3044 41.54 83.3168 41.5318 83.3291L41.5317 83.3293C41.5194 83.3539 41.5071 83.3785 41.4948 83.399L37.9422 89.3556C37.6376 89.8825 37.5511 90.5 37.7034 91.101Z" fill="#00B0FB"/>
<path d="M45.0844 93.3281C45.2407 93.9415 45.6277 94.4561 46.167 94.7771L46.1711 94.7769C47.3031 95.4479 48.7728 95.0732 49.4479 93.9453L52.7287 88.4498C53.0498 87.9106 53.1444 87.2766 52.988 86.6632C52.8316 86.0458 52.4447 85.5273 51.9013 85.2062C50.7692 84.5352 49.3038 84.9096 48.6287 86.0376L48.0235 87.0502C48.0153 87.0667 48.0071 87.0831 47.9947 87.0996L45.2944 91.6198C45.0144 92.1426 44.9362 92.7436 45.0844 93.3281Z" fill="#00B0FB"/>
<path d="M73.6762 71.6698C73.6766 71.6701 73.6769 71.6703 73.6773 71.6706L73.6734 71.6709L73.6762 71.6698C71.6223 70.1182 69.2269 68.8259 66.9056 67.5747C65.6995 66.9243 64.5594 66.3068 63.4768 65.6646C63.4645 65.6564 63.448 65.6482 63.4357 65.6399C58.5246 62.956 53.6505 62.6637 48.9538 64.7796C48.9414 64.7837 48.9332 64.7878 48.9209 64.7961C44.4668 66.9408 41.2848 67.1177 39.4694 65.3188C39.21 65.0636 39.1896 64.8578 39.2019 64.6931C39.2431 64.2156 39.667 63.6723 40.0457 63.4088C40.5685 63.0424 41.1036 62.6761 41.6511 62.2973C44.1786 60.5561 47.0438 58.5802 49.8841 56.0979C49.917 56.0691 49.9458 56.0403 49.9746 56.0115L49.9746 56.0115C52.6463 53.2081 56.417 52.5328 59.8131 54.2576C64.4195 56.5999 67.9679 55.3814 71.6191 53.85L77.7856 70.0283L73.6762 71.6698Z" fill="#00B0FB"/>
<path d="M61.842 16.7068C57.2643 15.7764 53.226 14.4509 49.8052 12.759C46.3843 14.4509 42.3419 15.7764 37.7686 16.7068C38.0647 26.7017 41.9139 33.2386 49.8052 37.1699C57.7008 33.2423 61.5456 26.7058 61.842 16.7068Z" fill="#00B0FB" fill-opacity="0.5"/>
<mask id="path-11-outside-1_257_10797" maskUnits="userSpaceOnUse" x="4" y="1" width="92" height="98" fill="black">
<rect fill="white" x="4" y="1" width="92" height="98"/>
<path d="M94.4742 69.3497L87.398 42.3043C87.1839 41.4604 86.6199 40.7689 85.8131 40.3531C84.9486 39.9085 83.8907 39.8549 82.9892 40.2049L71.6848 44.5765C69.9559 45.2516 69.0831 47.207 69.746 48.9359L70.6516 51.3111C67.2349 52.7519 64.6168 53.6535 61.0478 51.838C57.3017 49.9362 53.2182 50.2244 49.9204 52.5008C46.6272 50.175 42.5395 49.8703 38.7815 51.7269C35.2207 53.4847 32.6232 52.5749 29.2477 51.1094L30.1986 48.7301C30.8778 47.0094 30.0339 45.0458 28.3132 44.346L17.0836 39.8013C16.1862 39.4391 15.1323 39.4803 14.2597 39.9084C13.4487 40.3077 12.8724 40.991 12.6418 41.8266L5.14978 68.7645C4.64344 70.5758 5.45439 72.3624 7.07627 73.0127L15.5028 76.4089C15.9103 76.5735 16.3343 76.6558 16.7624 76.6558C17.2111 76.6558 17.6557 76.5653 18.0797 76.3842C18.9153 76.0301 19.5616 75.3715 19.8992 74.5276L20.809 72.2471L23.2954 73.2844C24.271 73.7578 24.9832 74.614 25.4236 75.8243L23.1595 79.6116C22.4597 80.7766 22.258 82.1473 22.5956 83.4688C22.929 84.7902 23.7606 85.9017 24.9296 86.5932C25.7405 87.0707 26.6338 87.3012 27.5188 87.3012C27.56 87.3012 27.597 87.2971 27.6382 87.2971C27.4941 88.0298 27.5147 88.7873 27.7082 89.5324C28.0457 90.8538 28.8732 91.9611 30.0381 92.6485C30.8531 93.1343 31.7505 93.3648 32.6355 93.3648C33.5906 93.3648 34.5333 93.0931 35.3483 92.5868C35.7723 93.5459 36.4803 94.3487 37.3983 94.892C38.2093 95.3737 39.1025 95.6001 39.9875 95.6001C40.9508 95.6001 41.9058 95.3243 42.7292 94.8138C43.1532 95.7689 43.8612 96.5716 44.7792 97.115C45.5943 97.5925 46.4875 97.823 47.3725 97.823C48.7475 97.823 50.0976 97.2673 51.0774 96.2505L52.8269 97.2878C53.642 97.7695 54.5353 98 55.4203 98C57.1615 98 58.8617 97.1067 59.8167 95.5054C60.2943 94.7027 60.5248 93.8217 60.533 92.9531C62.6901 93.5336 65.0859 92.6279 66.2632 90.6438C66.8107 89.7258 67.0494 88.6843 66.963 87.6346C68.8113 87.7457 70.6514 86.8483 71.664 85.1482C72.4173 83.8803 72.5573 82.4148 72.1662 81.0975C72.228 81.0851 72.2938 81.0687 72.3556 81.0522C73.6811 80.7147 74.7884 79.8831 75.4799 78.7182C76.3979 77.1746 76.3938 75.3345 75.6281 73.8114L78.765 72.56L79.6459 74.8693C79.9629 75.7132 80.5927 76.3801 81.4201 76.7506C81.8647 76.9482 82.334 77.0511 82.8033 77.0511C83.2108 77.0511 83.6142 76.977 84.0053 76.8288H84.0094L92.4894 73.5562C94.1237 72.9305 94.9594 71.1563 94.4818 69.3409L94.4742 69.3497ZM17.3763 73.5155C17.2858 73.7378 17.1129 73.8366 17.0182 73.8778C16.9235 73.9148 16.7383 73.9684 16.5283 73.886H16.5242L8.09363 70.4858C7.72315 70.3376 7.66963 69.8683 7.77254 69.4896L15.2646 42.5517C15.2893 42.4694 15.3552 42.3994 15.4663 42.3459C15.5692 42.2965 15.6845 42.2718 15.7998 42.2718C15.8944 42.2718 15.985 42.2882 16.0673 42.3212L27.2927 46.8658C27.6343 47.0058 27.8031 47.3886 27.6714 47.722L26.2553 51.2664C26.2553 51.2664 26.2512 51.2746 26.247 51.2787C26.2388 51.2993 26.2306 51.3199 26.2223 51.3405L18.8085 69.9226C18.8085 69.9226 18.8044 69.9308 18.8002 69.9349C18.7961 69.9431 18.792 69.9514 18.792 69.9637L17.3718 73.5204L17.3763 73.5155ZM26.3174 84.2551C25.774 83.934 25.3912 83.4194 25.2348 82.802C25.0784 82.1845 25.1731 81.5505 25.4942 81.0113L28.6227 75.7751C29.2937 74.6471 30.7592 74.2725 31.8954 74.9435C32.4388 75.2646 32.8257 75.7833 32.9821 76.3966C33.1385 77.01 33.0439 77.644 32.7228 78.1873L29.6848 83.2918C29.656 83.333 29.6231 83.3742 29.5984 83.4194C28.9233 84.5473 27.4494 84.922 26.3174 84.2551ZM31.4301 90.3146C30.8909 89.9935 30.5039 89.4789 30.3476 88.8656C30.1911 88.2481 30.2817 87.61 30.6028 87.0626L35.0569 79.5828V79.5787C35.5015 78.8295 36.296 78.4137 37.1069 78.4137C37.5226 78.4137 37.9384 78.5208 38.3212 78.7472C38.8646 79.0683 39.2474 79.5869 39.4079 80.2003C39.5643 80.8178 39.4738 81.4558 39.1527 81.9951L35.6454 87.8775C35.6372 87.8899 35.629 87.8981 35.6249 87.9104C35.6084 87.9351 35.5961 87.9639 35.5796 87.9886L34.6904 89.4789C34.0194 90.6068 32.554 90.9814 31.426 90.3104L31.4301 90.3146ZM38.7905 92.5581C38.2471 92.237 37.8602 91.7183 37.7038 91.1008C37.5515 90.4998 37.6379 89.8824 37.9425 89.3555L41.4951 83.399C41.5074 83.3784 41.5198 83.3537 41.5321 83.329C41.5404 83.3166 41.5527 83.3043 41.5609 83.2878C42.2319 82.1599 43.7015 81.7894 44.8336 82.4563C45.3729 82.7774 45.7598 83.2919 45.9162 83.9053C46.0726 84.5145 45.9821 85.1444 45.6733 85.6795L45.484 85.9965C45.4798 86.0047 45.4757 86.0129 45.4675 86.0253L43.0593 90.0594C43.0387 90.0883 43.0222 90.113 43.0017 90.1418C42.9687 90.1953 42.9399 90.2488 42.9111 90.3064L42.0631 91.7267C41.388 92.8546 39.9184 93.2292 38.7904 92.5623L38.7905 92.5581ZM46.1673 94.7769C45.628 94.4558 45.241 93.9412 45.0847 93.3279C44.9365 92.7433 45.0147 92.1423 45.2946 91.6195L47.995 87.0996C48.0074 87.0831 48.0156 87.0666 48.0238 87.0502L48.629 86.0375C49.3041 84.9096 50.7695 84.535 51.9016 85.206C52.445 85.5271 52.832 86.0457 52.9883 86.6632C53.1448 87.2766 53.0501 87.9105 52.729 88.4498L49.4481 93.9452C48.773 95.0732 47.3034 95.4478 46.1714 94.7768L46.1673 94.7769ZM57.4748 94.1224C56.8038 95.2503 55.3425 95.6208 54.2145 94.9539L52.5843 93.9865L55.0213 89.9029L56.7091 90.9033C57.7711 91.5948 58.1128 93.0356 57.4706 94.1183L57.4748 94.1224ZM73.1378 77.3392C72.8167 77.8825 72.298 78.2654 71.6806 78.4259C71.0631 78.5823 70.4209 78.4917 69.8817 78.1706L59.6563 72.0947C59.01 71.7119 58.1744 71.9218 57.7916 72.5681C57.4087 73.2144 57.6187 74.05 58.265 74.4328L68.4904 80.5088C69.6183 81.1798 69.9929 82.6411 69.3219 83.7649C68.6509 84.8928 67.1896 85.2674 66.0616 84.5964L64.489 83.662L53.0371 76.8574C52.3908 76.4746 51.5552 76.6886 51.1724 77.3308C50.7895 77.9771 51.0036 78.8127 51.6458 79.1956L63.0977 86.0001H63.1018C63.6411 86.3253 64.028 86.8399 64.1844 87.4573C64.3408 88.0748 64.2503 88.7129 63.9251 89.2603C63.2788 90.347 61.8503 90.7381 60.743 90.133C60.142 89.8037 59.5163 89.4209 58.9112 89.0545C58.6518 88.8981 58.3966 88.7417 58.1414 88.5894C58.1414 88.5894 58.1373 88.5894 58.1373 88.5853L55.7826 87.1857C55.7785 86.7864 55.725 86.3871 55.6262 85.9878C55.2927 84.6623 54.4612 83.5508 53.288 82.8592C51.736 81.9412 49.8877 81.9412 48.3852 82.6945C47.9818 81.6119 47.2285 80.7022 46.2199 80.1094C44.9232 79.3437 43.4166 79.2202 42.0787 79.6401C42.0705 79.6031 42.0623 79.566 42.054 79.529C41.7165 78.2076 40.889 77.0961 39.72 76.4087C38.4522 75.6513 36.9825 75.5154 35.6652 75.9065C35.6529 75.8447 35.6405 75.7871 35.6241 75.7254C35.2865 74.404 34.4591 73.2925 33.2858 72.601C31.2894 71.4195 28.803 71.7571 27.1892 73.2637C26.4935 72.1811 25.5673 71.3455 24.4394 70.8103C24.4188 70.8021 24.4023 70.7939 24.3818 70.7856L21.8213 69.7154L28.2431 53.6277C31.8615 55.192 35.3852 56.431 39.988 54.1546C42.639 52.8455 45.4011 52.9237 47.764 54.3275C45.1541 56.571 42.5895 58.3411 40.1074 60.0535C39.5557 60.4323 39.0164 60.8068 38.4895 61.1732C37.6498 61.7619 36.6248 62.9721 36.4972 64.4541C36.4066 65.4997 36.773 66.4671 37.5592 67.245C40.2802 69.9414 44.4955 69.9414 50.0902 67.2492C53.9557 65.5161 58.0021 65.7714 62.1102 68.0148C63.234 68.6817 64.4442 69.3362 65.6133 69.9661C67.8814 71.1887 70.2197 72.4525 72.1297 73.9138C72.1585 73.9385 72.1874 73.9591 72.2203 73.9838C72.3479 74.0826 72.4714 74.1814 72.5949 74.2802C72.6072 74.2884 72.6196 74.2967 72.6319 74.3049C73.4882 75.1035 73.7186 76.3549 73.1341 77.3388L73.1378 77.3392ZM73.6771 71.6707C71.6229 70.1188 69.2271 68.8262 66.9054 67.5748C65.6993 66.9244 64.5589 66.307 63.4764 65.6648C63.464 65.6565 63.4475 65.6483 63.4352 65.6401C58.5242 62.9561 53.6502 62.6639 48.9535 64.7797C48.9412 64.7838 48.9329 64.788 48.9206 64.7962C44.4665 66.9409 41.2845 67.1179 39.469 65.319C39.2097 65.0638 39.1891 64.8579 39.2015 64.6933C39.2426 64.2158 39.6666 63.6724 40.0454 63.4089C40.5681 63.0425 41.1033 62.6761 41.6507 62.2974C44.1782 60.5562 47.0434 58.5802 49.8838 56.098C49.9167 56.0691 49.9455 56.0403 49.9743 56.0115C52.646 53.2081 56.4167 52.5331 59.8127 54.2578C64.4191 56.6002 67.9675 55.3816 71.6187 53.8503L77.7853 70.0286L73.673 71.6711L73.6771 71.6707ZM91.5099 71.0244L83.0299 74.2971C82.8158 74.3794 82.6264 74.3218 82.5318 74.2806C82.4371 74.2395 82.2683 74.1366 82.186 73.9143L72.2899 47.9596C72.1623 47.6303 72.3393 47.2392 72.6728 47.1075L83.9729 42.7399C84.0511 42.707 84.1417 42.6946 84.2323 42.6946C84.3516 42.6946 84.471 42.7193 84.5698 42.7728C84.6768 42.8264 84.7386 42.8963 84.7633 42.9828L91.8437 70.0366C91.9425 70.4112 91.8808 70.8805 91.5062 71.0204L91.5099 71.0244ZM79.9832 52.7553C80.2631 53.451 79.9214 54.2455 79.2257 54.5254C79.0611 54.5913 78.8882 54.6242 78.7194 54.6242C78.1801 54.6242 77.6697 54.299 77.4556 53.768L75.842 49.7298C75.5621 49.0341 75.9038 48.2395 76.5995 47.9596C77.2952 47.6797 78.0897 48.0214 78.3696 48.7171L79.9832 52.7553ZM19.9109 52.3972L21.5905 48.3795C21.8787 47.6879 22.6772 47.3586 23.3688 47.6509C24.0604 47.939 24.3897 48.7376 24.0975 49.4292L22.4179 53.4469C22.1997 53.9697 21.6934 54.2826 21.1623 54.2826C20.9895 54.2826 20.8083 54.2496 20.6395 54.1755C19.948 53.8874 19.6186 53.0888 19.9109 52.3972ZM49.3316 47.2475C49.488 47.3051 49.6486 47.3339 49.8132 47.3339C49.9738 47.3339 50.1384 47.3051 50.2949 47.2475C65.8388 41.3774 72.8119 28.7191 71.0215 9.62276C70.9597 8.98058 70.4616 8.47009 69.8195 8.40011C61.3518 7.44508 54.8889 5.3827 50.6156 2.26243C50.1381 1.91252 49.4877 1.91252 49.0102 2.26243C44.7373 5.3827 38.2739 7.44514 29.8064 8.40011C29.1683 8.47009 28.662 8.98466 28.6044 9.62276C26.8137 28.7191 33.7877 41.3777 49.3316 47.2475ZM31.2111 10.9727C39.1271 9.9724 45.3724 7.97173 49.8016 5.02029C54.2309 7.97184 60.4758 9.96831 68.3921 10.9727C69.7135 28.1216 63.6212 39.1046 49.8016 44.5223C35.9786 39.105 29.8896 28.1227 31.2111 10.9727ZM49.2252 39.916C49.4104 40.0025 49.608 40.0436 49.8056 40.0436C50.0032 40.0436 50.2008 40.0025 50.386 39.916C59.8992 35.4414 64.5431 27.4883 64.58 15.5958C64.5841 14.9372 64.1148 14.3732 63.4685 14.2539C58.4052 13.3112 54.017 11.891 50.4359 10.0263C50.0448 9.82045 49.5755 9.82045 49.1803 10.0263C45.5949 11.891 41.2108 13.3113 36.1477 14.2539C35.5014 14.3733 35.0321 14.9372 35.0362 15.5958C35.0733 27.484 39.7167 35.4373 49.2302 39.916H49.2252ZM49.8056 12.7589C53.2264 14.4509 57.2647 15.7764 61.8424 16.7067C61.546 26.7057 57.7012 33.2422 49.8056 37.1699C41.9142 33.2386 38.0649 26.7016 37.7688 16.7067C42.3422 15.7764 46.3847 14.4509 49.8056 12.7589ZM46.6935 29.3325L43.8614 25.8622C43.388 25.2777 43.4744 24.4214 44.0549 23.948C44.6353 23.4746 45.4956 23.5611 45.969 24.1415L47.842 26.4385L53.7285 20.4902C54.2596 19.9551 55.1199 19.951 55.6509 20.482C56.1861 21.013 56.1902 21.8733 55.6592 22.4044L48.7063 29.4272C48.4511 29.6865 48.1012 29.8306 47.739 29.8306H47.6731C47.2861 29.81 46.928 29.6289 46.6851 29.3325L46.6935 29.3325Z"/>
</mask>
<path d="M94.4742 69.3497L87.398 42.3043C87.1839 41.4604 86.6199 40.7689 85.8131 40.3531C84.9486 39.9085 83.8907 39.8549 82.9892 40.2049L71.6848 44.5765C69.9559 45.2516 69.0831 47.207 69.746 48.9359L70.6516 51.3111C67.2349 52.7519 64.6168 53.6535 61.0478 51.838C57.3017 49.9362 53.2182 50.2244 49.9204 52.5008C46.6272 50.175 42.5395 49.8703 38.7815 51.7269C35.2207 53.4847 32.6232 52.5749 29.2477 51.1094L30.1986 48.7301C30.8778 47.0094 30.0339 45.0458 28.3132 44.346L17.0836 39.8013C16.1862 39.4391 15.1323 39.4803 14.2597 39.9084C13.4487 40.3077 12.8724 40.991 12.6418 41.8266L5.14978 68.7645C4.64344 70.5758 5.45439 72.3624 7.07627 73.0127L15.5028 76.4089C15.9103 76.5735 16.3343 76.6558 16.7624 76.6558C17.2111 76.6558 17.6557 76.5653 18.0797 76.3842C18.9153 76.0301 19.5616 75.3715 19.8992 74.5276L20.809 72.2471L23.2954 73.2844C24.271 73.7578 24.9832 74.614 25.4236 75.8243L23.1595 79.6116C22.4597 80.7766 22.258 82.1473 22.5956 83.4688C22.929 84.7902 23.7606 85.9017 24.9296 86.5932C25.7405 87.0707 26.6338 87.3012 27.5188 87.3012C27.56 87.3012 27.597 87.2971 27.6382 87.2971C27.4941 88.0298 27.5147 88.7873 27.7082 89.5324C28.0457 90.8538 28.8732 91.9611 30.0381 92.6485C30.8531 93.1343 31.7505 93.3648 32.6355 93.3648C33.5906 93.3648 34.5333 93.0931 35.3483 92.5868C35.7723 93.5459 36.4803 94.3487 37.3983 94.892C38.2093 95.3737 39.1025 95.6001 39.9875 95.6001C40.9508 95.6001 41.9058 95.3243 42.7292 94.8138C43.1532 95.7689 43.8612 96.5716 44.7792 97.115C45.5943 97.5925 46.4875 97.823 47.3725 97.823C48.7475 97.823 50.0976 97.2673 51.0774 96.2505L52.8269 97.2878C53.642 97.7695 54.5353 98 55.4203 98C57.1615 98 58.8617 97.1067 59.8167 95.5054C60.2943 94.7027 60.5248 93.8217 60.533 92.9531C62.6901 93.5336 65.0859 92.6279 66.2632 90.6438C66.8107 89.7258 67.0494 88.6843 66.963 87.6346C68.8113 87.7457 70.6514 86.8483 71.664 85.1482C72.4173 83.8803 72.5573 82.4148 72.1662 81.0975C72.228 81.0851 72.2938 81.0687 72.3556 81.0522C73.6811 80.7147 74.7884 79.8831 75.4799 78.7182C76.3979 77.1746 76.3938 75.3345 75.6281 73.8114L78.765 72.56L79.6459 74.8693C79.9629 75.7132 80.5927 76.3801 81.4201 76.7506C81.8647 76.9482 82.334 77.0511 82.8033 77.0511C83.2108 77.0511 83.6142 76.977 84.0053 76.8288H84.0094L92.4894 73.5562C94.1237 72.9305 94.9594 71.1563 94.4818 69.3409L94.4742 69.3497ZM17.3763 73.5155C17.2858 73.7378 17.1129 73.8366 17.0182 73.8778C16.9235 73.9148 16.7383 73.9684 16.5283 73.886H16.5242L8.09363 70.4858C7.72315 70.3376 7.66963 69.8683 7.77254 69.4896L15.2646 42.5517C15.2893 42.4694 15.3552 42.3994 15.4663 42.3459C15.5692 42.2965 15.6845 42.2718 15.7998 42.2718C15.8944 42.2718 15.985 42.2882 16.0673 42.3212L27.2927 46.8658C27.6343 47.0058 27.8031 47.3886 27.6714 47.722L26.2553 51.2664C26.2553 51.2664 26.2512 51.2746 26.247 51.2787C26.2388 51.2993 26.2306 51.3199 26.2223 51.3405L18.8085 69.9226C18.8085 69.9226 18.8044 69.9308 18.8002 69.9349C18.7961 69.9431 18.792 69.9514 18.792 69.9637L17.3718 73.5204L17.3763 73.5155ZM26.3174 84.2551C25.774 83.934 25.3912 83.4194 25.2348 82.802C25.0784 82.1845 25.1731 81.5505 25.4942 81.0113L28.6227 75.7751C29.2937 74.6471 30.7592 74.2725 31.8954 74.9435C32.4388 75.2646 32.8257 75.7833 32.9821 76.3966C33.1385 77.01 33.0439 77.644 32.7228 78.1873L29.6848 83.2918C29.656 83.333 29.6231 83.3742 29.5984 83.4194C28.9233 84.5473 27.4494 84.922 26.3174 84.2551ZM31.4301 90.3146C30.8909 89.9935 30.5039 89.4789 30.3476 88.8656C30.1911 88.2481 30.2817 87.61 30.6028 87.0626L35.0569 79.5828V79.5787C35.5015 78.8295 36.296 78.4137 37.1069 78.4137C37.5226 78.4137 37.9384 78.5208 38.3212 78.7472C38.8646 79.0683 39.2474 79.5869 39.4079 80.2003C39.5643 80.8178 39.4738 81.4558 39.1527 81.9951L35.6454 87.8775C35.6372 87.8899 35.629 87.8981 35.6249 87.9104C35.6084 87.9351 35.5961 87.9639 35.5796 87.9886L34.6904 89.4789C34.0194 90.6068 32.554 90.9814 31.426 90.3104L31.4301 90.3146ZM38.7905 92.5581C38.2471 92.237 37.8602 91.7183 37.7038 91.1008C37.5515 90.4998 37.6379 89.8824 37.9425 89.3555L41.4951 83.399C41.5074 83.3784 41.5198 83.3537 41.5321 83.329C41.5404 83.3166 41.5527 83.3043 41.5609 83.2878C42.2319 82.1599 43.7015 81.7894 44.8336 82.4563C45.3729 82.7774 45.7598 83.2919 45.9162 83.9053C46.0726 84.5145 45.9821 85.1444 45.6733 85.6795L45.484 85.9965C45.4798 86.0047 45.4757 86.0129 45.4675 86.0253L43.0593 90.0594C43.0387 90.0883 43.0222 90.113 43.0017 90.1418C42.9687 90.1953 42.9399 90.2488 42.9111 90.3064L42.0631 91.7267C41.388 92.8546 39.9184 93.2292 38.7904 92.5623L38.7905 92.5581ZM46.1673 94.7769C45.628 94.4558 45.241 93.9412 45.0847 93.3279C44.9365 92.7433 45.0147 92.1423 45.2946 91.6195L47.995 87.0996C48.0074 87.0831 48.0156 87.0666 48.0238 87.0502L48.629 86.0375C49.3041 84.9096 50.7695 84.535 51.9016 85.206C52.445 85.5271 52.832 86.0457 52.9883 86.6632C53.1448 87.2766 53.0501 87.9105 52.729 88.4498L49.4481 93.9452C48.773 95.0732 47.3034 95.4478 46.1714 94.7768L46.1673 94.7769ZM57.4748 94.1224C56.8038 95.2503 55.3425 95.6208 54.2145 94.9539L52.5843 93.9865L55.0213 89.9029L56.7091 90.9033C57.7711 91.5948 58.1128 93.0356 57.4706 94.1183L57.4748 94.1224ZM73.1378 77.3392C72.8167 77.8825 72.298 78.2654 71.6806 78.4259C71.0631 78.5823 70.4209 78.4917 69.8817 78.1706L59.6563 72.0947C59.01 71.7119 58.1744 71.9218 57.7916 72.5681C57.4087 73.2144 57.6187 74.05 58.265 74.4328L68.4904 80.5088C69.6183 81.1798 69.9929 82.6411 69.3219 83.7649C68.6509 84.8928 67.1896 85.2674 66.0616 84.5964L64.489 83.662L53.0371 76.8574C52.3908 76.4746 51.5552 76.6886 51.1724 77.3308C50.7895 77.9771 51.0036 78.8127 51.6458 79.1956L63.0977 86.0001H63.1018C63.6411 86.3253 64.028 86.8399 64.1844 87.4573C64.3408 88.0748 64.2503 88.7129 63.9251 89.2603C63.2788 90.347 61.8503 90.7381 60.743 90.133C60.142 89.8037 59.5163 89.4209 58.9112 89.0545C58.6518 88.8981 58.3966 88.7417 58.1414 88.5894C58.1414 88.5894 58.1373 88.5894 58.1373 88.5853L55.7826 87.1857C55.7785 86.7864 55.725 86.3871 55.6262 85.9878C55.2927 84.6623 54.4612 83.5508 53.288 82.8592C51.736 81.9412 49.8877 81.9412 48.3852 82.6945C47.9818 81.6119 47.2285 80.7022 46.2199 80.1094C44.9232 79.3437 43.4166 79.2202 42.0787 79.6401C42.0705 79.6031 42.0623 79.566 42.054 79.529C41.7165 78.2076 40.889 77.0961 39.72 76.4087C38.4522 75.6513 36.9825 75.5154 35.6652 75.9065C35.6529 75.8447 35.6405 75.7871 35.6241 75.7254C35.2865 74.404 34.4591 73.2925 33.2858 72.601C31.2894 71.4195 28.803 71.7571 27.1892 73.2637C26.4935 72.1811 25.5673 71.3455 24.4394 70.8103C24.4188 70.8021 24.4023 70.7939 24.3818 70.7856L21.8213 69.7154L28.2431 53.6277C31.8615 55.192 35.3852 56.431 39.988 54.1546C42.639 52.8455 45.4011 52.9237 47.764 54.3275C45.1541 56.571 42.5895 58.3411 40.1074 60.0535C39.5557 60.4323 39.0164 60.8068 38.4895 61.1732C37.6498 61.7619 36.6248 62.9721 36.4972 64.4541C36.4066 65.4997 36.773 66.4671 37.5592 67.245C40.2802 69.9414 44.4955 69.9414 50.0902 67.2492C53.9557 65.5161 58.0021 65.7714 62.1102 68.0148C63.234 68.6817 64.4442 69.3362 65.6133 69.9661C67.8814 71.1887 70.2197 72.4525 72.1297 73.9138C72.1585 73.9385 72.1874 73.9591 72.2203 73.9838C72.3479 74.0826 72.4714 74.1814 72.5949 74.2802C72.6072 74.2884 72.6196 74.2967 72.6319 74.3049C73.4882 75.1035 73.7186 76.3549 73.1341 77.3388L73.1378 77.3392ZM73.6771 71.6707C71.6229 70.1188 69.2271 68.8262 66.9054 67.5748C65.6993 66.9244 64.5589 66.307 63.4764 65.6648C63.464 65.6565 63.4475 65.6483 63.4352 65.6401C58.5242 62.9561 53.6502 62.6639 48.9535 64.7797C48.9412 64.7838 48.9329 64.788 48.9206 64.7962C44.4665 66.9409 41.2845 67.1179 39.469 65.319C39.2097 65.0638 39.1891 64.8579 39.2015 64.6933C39.2426 64.2158 39.6666 63.6724 40.0454 63.4089C40.5681 63.0425 41.1033 62.6761 41.6507 62.2974C44.1782 60.5562 47.0434 58.5802 49.8838 56.098C49.9167 56.0691 49.9455 56.0403 49.9743 56.0115C52.646 53.2081 56.4167 52.5331 59.8127 54.2578C64.4191 56.6002 67.9675 55.3816 71.6187 53.8503L77.7853 70.0286L73.673 71.6711L73.6771 71.6707ZM91.5099 71.0244L83.0299 74.2971C82.8158 74.3794 82.6264 74.3218 82.5318 74.2806C82.4371 74.2395 82.2683 74.1366 82.186 73.9143L72.2899 47.9596C72.1623 47.6303 72.3393 47.2392 72.6728 47.1075L83.9729 42.7399C84.0511 42.707 84.1417 42.6946 84.2323 42.6946C84.3516 42.6946 84.471 42.7193 84.5698 42.7728C84.6768 42.8264 84.7386 42.8963 84.7633 42.9828L91.8437 70.0366C91.9425 70.4112 91.8808 70.8805 91.5062 71.0204L91.5099 71.0244ZM79.9832 52.7553C80.2631 53.451 79.9214 54.2455 79.2257 54.5254C79.0611 54.5913 78.8882 54.6242 78.7194 54.6242C78.1801 54.6242 77.6697 54.299 77.4556 53.768L75.842 49.7298C75.5621 49.0341 75.9038 48.2395 76.5995 47.9596C77.2952 47.6797 78.0897 48.0214 78.3696 48.7171L79.9832 52.7553ZM19.9109 52.3972L21.5905 48.3795C21.8787 47.6879 22.6772 47.3586 23.3688 47.6509C24.0604 47.939 24.3897 48.7376 24.0975 49.4292L22.4179 53.4469C22.1997 53.9697 21.6934 54.2826 21.1623 54.2826C20.9895 54.2826 20.8083 54.2496 20.6395 54.1755C19.948 53.8874 19.6186 53.0888 19.9109 52.3972ZM49.3316 47.2475C49.488 47.3051 49.6486 47.3339 49.8132 47.3339C49.9738 47.3339 50.1384 47.3051 50.2949 47.2475C65.8388 41.3774 72.8119 28.7191 71.0215 9.62276C70.9597 8.98058 70.4616 8.47009 69.8195 8.40011C61.3518 7.44508 54.8889 5.3827 50.6156 2.26243C50.1381 1.91252 49.4877 1.91252 49.0102 2.26243C44.7373 5.3827 38.2739 7.44514 29.8064 8.40011C29.1683 8.47009 28.662 8.98466 28.6044 9.62276C26.8137 28.7191 33.7877 41.3777 49.3316 47.2475ZM31.2111 10.9727C39.1271 9.9724 45.3724 7.97173 49.8016 5.02029C54.2309 7.97184 60.4758 9.96831 68.3921 10.9727C69.7135 28.1216 63.6212 39.1046 49.8016 44.5223C35.9786 39.105 29.8896 28.1227 31.2111 10.9727ZM49.2252 39.916C49.4104 40.0025 49.608 40.0436 49.8056 40.0436C50.0032 40.0436 50.2008 40.0025 50.386 39.916C59.8992 35.4414 64.5431 27.4883 64.58 15.5958C64.5841 14.9372 64.1148 14.3732 63.4685 14.2539C58.4052 13.3112 54.017 11.891 50.4359 10.0263C50.0448 9.82045 49.5755 9.82045 49.1803 10.0263C45.5949 11.891 41.2108 13.3113 36.1477 14.2539C35.5014 14.3733 35.0321 14.9372 35.0362 15.5958C35.0733 27.484 39.7167 35.4373 49.2302 39.916H49.2252ZM49.8056 12.7589C53.2264 14.4509 57.2647 15.7764 61.8424 16.7067C61.546 26.7057 57.7012 33.2422 49.8056 37.1699C41.9142 33.2386 38.0649 26.7016 37.7688 16.7067C42.3422 15.7764 46.3847 14.4509 49.8056 12.7589ZM46.6935 29.3325L43.8614 25.8622C43.388 25.2777 43.4744 24.4214 44.0549 23.948C44.6353 23.4746 45.4956 23.5611 45.969 24.1415L47.842 26.4385L53.7285 20.4902C54.2596 19.9551 55.1199 19.951 55.6509 20.482C56.1861 21.013 56.1902 21.8733 55.6592 22.4044L48.7063 29.4272C48.4511 29.6865 48.1012 29.8306 47.739 29.8306H47.6731C47.2861 29.81 46.928 29.6289 46.6851 29.3325L46.6935 29.3325Z" fill="black"/>
<path d="M94.4742 69.3497L87.398 42.3043C87.1839 41.4604 86.6199 40.7689 85.8131 40.3531C84.9486 39.9085 83.8907 39.8549 82.9892 40.2049L71.6848 44.5765C69.9559 45.2516 69.0831 47.207 69.746 48.9359L70.6516 51.3111C67.2349 52.7519 64.6168 53.6535 61.0478 51.838C57.3017 49.9362 53.2182 50.2244 49.9204 52.5008C46.6272 50.175 42.5395 49.8703 38.7815 51.7269C35.2207 53.4847 32.6232 52.5749 29.2477 51.1094L30.1986 48.7301C30.8778 47.0094 30.0339 45.0458 28.3132 44.346L17.0836 39.8013C16.1862 39.4391 15.1323 39.4803 14.2597 39.9084C13.4487 40.3077 12.8724 40.991 12.6418 41.8266L5.14978 68.7645C4.64344 70.5758 5.45439 72.3624 7.07627 73.0127L15.5028 76.4089C15.9103 76.5735 16.3343 76.6558 16.7624 76.6558C17.2111 76.6558 17.6557 76.5653 18.0797 76.3842C18.9153 76.0301 19.5616 75.3715 19.8992 74.5276L20.809 72.2471L23.2954 73.2844C24.271 73.7578 24.9832 74.614 25.4236 75.8243L23.1595 79.6116C22.4597 80.7766 22.258 82.1473 22.5956 83.4688C22.929 84.7902 23.7606 85.9017 24.9296 86.5932C25.7405 87.0707 26.6338 87.3012 27.5188 87.3012C27.56 87.3012 27.597 87.2971 27.6382 87.2971C27.4941 88.0298 27.5147 88.7873 27.7082 89.5324C28.0457 90.8538 28.8732 91.9611 30.0381 92.6485C30.8531 93.1343 31.7505 93.3648 32.6355 93.3648C33.5906 93.3648 34.5333 93.0931 35.3483 92.5868C35.7723 93.5459 36.4803 94.3487 37.3983 94.892C38.2093 95.3737 39.1025 95.6001 39.9875 95.6001C40.9508 95.6001 41.9058 95.3243 42.7292 94.8138C43.1532 95.7689 43.8612 96.5716 44.7792 97.115C45.5943 97.5925 46.4875 97.823 47.3725 97.823C48.7475 97.823 50.0976 97.2673 51.0774 96.2505L52.8269 97.2878C53.642 97.7695 54.5353 98 55.4203 98C57.1615 98 58.8617 97.1067 59.8167 95.5054C60.2943 94.7027 60.5248 93.8217 60.533 92.9531C62.6901 93.5336 65.0859 92.6279 66.2632 90.6438C66.8107 89.7258 67.0494 88.6843 66.963 87.6346C68.8113 87.7457 70.6514 86.8483 71.664 85.1482C72.4173 83.8803 72.5573 82.4148 72.1662 81.0975C72.228 81.0851 72.2938 81.0687 72.3556 81.0522C73.6811 80.7147 74.7884 79.8831 75.4799 78.7182C76.3979 77.1746 76.3938 75.3345 75.6281 73.8114L78.765 72.56L79.6459 74.8693C79.9629 75.7132 80.5927 76.3801 81.4201 76.7506C81.8647 76.9482 82.334 77.0511 82.8033 77.0511C83.2108 77.0511 83.6142 76.977 84.0053 76.8288H84.0094L92.4894 73.5562C94.1237 72.9305 94.9594 71.1563 94.4818 69.3409L94.4742 69.3497ZM17.3763 73.5155C17.2858 73.7378 17.1129 73.8366 17.0182 73.8778C16.9235 73.9148 16.7383 73.9684 16.5283 73.886H16.5242L8.09363 70.4858C7.72315 70.3376 7.66963 69.8683 7.77254 69.4896L15.2646 42.5517C15.2893 42.4694 15.3552 42.3994 15.4663 42.3459C15.5692 42.2965 15.6845 42.2718 15.7998 42.2718C15.8944 42.2718 15.985 42.2882 16.0673 42.3212L27.2927 46.8658C27.6343 47.0058 27.8031 47.3886 27.6714 47.722L26.2553 51.2664C26.2553 51.2664 26.2512 51.2746 26.247 51.2787C26.2388 51.2993 26.2306 51.3199 26.2223 51.3405L18.8085 69.9226C18.8085 69.9226 18.8044 69.9308 18.8002 69.9349C18.7961 69.9431 18.792 69.9514 18.792 69.9637L17.3718 73.5204L17.3763 73.5155ZM26.3174 84.2551C25.774 83.934 25.3912 83.4194 25.2348 82.802C25.0784 82.1845 25.1731 81.5505 25.4942 81.0113L28.6227 75.7751C29.2937 74.6471 30.7592 74.2725 31.8954 74.9435C32.4388 75.2646 32.8257 75.7833 32.9821 76.3966C33.1385 77.01 33.0439 77.644 32.7228 78.1873L29.6848 83.2918C29.656 83.333 29.6231 83.3742 29.5984 83.4194C28.9233 84.5473 27.4494 84.922 26.3174 84.2551ZM31.4301 90.3146C30.8909 89.9935 30.5039 89.4789 30.3476 88.8656C30.1911 88.2481 30.2817 87.61 30.6028 87.0626L35.0569 79.5828V79.5787C35.5015 78.8295 36.296 78.4137 37.1069 78.4137C37.5226 78.4137 37.9384 78.5208 38.3212 78.7472C38.8646 79.0683 39.2474 79.5869 39.4079 80.2003C39.5643 80.8178 39.4738 81.4558 39.1527 81.9951L35.6454 87.8775C35.6372 87.8899 35.629 87.8981 35.6249 87.9104C35.6084 87.9351 35.5961 87.9639 35.5796 87.9886L34.6904 89.4789C34.0194 90.6068 32.554 90.9814 31.426 90.3104L31.4301 90.3146ZM38.7905 92.5581C38.2471 92.237 37.8602 91.7183 37.7038 91.1008C37.5515 90.4998 37.6379 89.8824 37.9425 89.3555L41.4951 83.399C41.5074 83.3784 41.5198 83.3537 41.5321 83.329C41.5404 83.3166 41.5527 83.3043 41.5609 83.2878C42.2319 82.1599 43.7015 81.7894 44.8336 82.4563C45.3729 82.7774 45.7598 83.2919 45.9162 83.9053C46.0726 84.5145 45.9821 85.1444 45.6733 85.6795L45.484 85.9965C45.4798 86.0047 45.4757 86.0129 45.4675 86.0253L43.0593 90.0594C43.0387 90.0883 43.0222 90.113 43.0017 90.1418C42.9687 90.1953 42.9399 90.2488 42.9111 90.3064L42.0631 91.7267C41.388 92.8546 39.9184 93.2292 38.7904 92.5623L38.7905 92.5581ZM46.1673 94.7769C45.628 94.4558 45.241 93.9412 45.0847 93.3279C44.9365 92.7433 45.0147 92.1423 45.2946 91.6195L47.995 87.0996C48.0074 87.0831 48.0156 87.0666 48.0238 87.0502L48.629 86.0375C49.3041 84.9096 50.7695 84.535 51.9016 85.206C52.445 85.5271 52.832 86.0457 52.9883 86.6632C53.1448 87.2766 53.0501 87.9105 52.729 88.4498L49.4481 93.9452C48.773 95.0732 47.3034 95.4478 46.1714 94.7768L46.1673 94.7769ZM57.4748 94.1224C56.8038 95.2503 55.3425 95.6208 54.2145 94.9539L52.5843 93.9865L55.0213 89.9029L56.7091 90.9033C57.7711 91.5948 58.1128 93.0356 57.4706 94.1183L57.4748 94.1224ZM73.1378 77.3392C72.8167 77.8825 72.298 78.2654 71.6806 78.4259C71.0631 78.5823 70.4209 78.4917 69.8817 78.1706L59.6563 72.0947C59.01 71.7119 58.1744 71.9218 57.7916 72.5681C57.4087 73.2144 57.6187 74.05 58.265 74.4328L68.4904 80.5088C69.6183 81.1798 69.9929 82.6411 69.3219 83.7649C68.6509 84.8928 67.1896 85.2674 66.0616 84.5964L64.489 83.662L53.0371 76.8574C52.3908 76.4746 51.5552 76.6886 51.1724 77.3308C50.7895 77.9771 51.0036 78.8127 51.6458 79.1956L63.0977 86.0001H63.1018C63.6411 86.3253 64.028 86.8399 64.1844 87.4573C64.3408 88.0748 64.2503 88.7129 63.9251 89.2603C63.2788 90.347 61.8503 90.7381 60.743 90.133C60.142 89.8037 59.5163 89.4209 58.9112 89.0545C58.6518 88.8981 58.3966 88.7417 58.1414 88.5894C58.1414 88.5894 58.1373 88.5894 58.1373 88.5853L55.7826 87.1857C55.7785 86.7864 55.725 86.3871 55.6262 85.9878C55.2927 84.6623 54.4612 83.5508 53.288 82.8592C51.736 81.9412 49.8877 81.9412 48.3852 82.6945C47.9818 81.6119 47.2285 80.7022 46.2199 80.1094C44.9232 79.3437 43.4166 79.2202 42.0787 79.6401C42.0705 79.6031 42.0623 79.566 42.054 79.529C41.7165 78.2076 40.889 77.0961 39.72 76.4087C38.4522 75.6513 36.9825 75.5154 35.6652 75.9065C35.6529 75.8447 35.6405 75.7871 35.6241 75.7254C35.2865 74.404 34.4591 73.2925 33.2858 72.601C31.2894 71.4195 28.803 71.7571 27.1892 73.2637C26.4935 72.1811 25.5673 71.3455 24.4394 70.8103C24.4188 70.8021 24.4023 70.7939 24.3818 70.7856L21.8213 69.7154L28.2431 53.6277C31.8615 55.192 35.3852 56.431 39.988 54.1546C42.639 52.8455 45.4011 52.9237 47.764 54.3275C45.1541 56.571 42.5895 58.3411 40.1074 60.0535C39.5557 60.4323 39.0164 60.8068 38.4895 61.1732C37.6498 61.7619 36.6248 62.9721 36.4972 64.4541C36.4066 65.4997 36.773 66.4671 37.5592 67.245C40.2802 69.9414 44.4955 69.9414 50.0902 67.2492C53.9557 65.5161 58.0021 65.7714 62.1102 68.0148C63.234 68.6817 64.4442 69.3362 65.6133 69.9661C67.8814 71.1887 70.2197 72.4525 72.1297 73.9138C72.1585 73.9385 72.1874 73.9591 72.2203 73.9838C72.3479 74.0826 72.4714 74.1814 72.5949 74.2802C72.6072 74.2884 72.6196 74.2967 72.6319 74.3049C73.4882 75.1035 73.7186 76.3549 73.1341 77.3388L73.1378 77.3392ZM73.6771 71.6707C71.6229 70.1188 69.2271 68.8262 66.9054 67.5748C65.6993 66.9244 64.5589 66.307 63.4764 65.6648C63.464 65.6565 63.4475 65.6483 63.4352 65.6401C58.5242 62.9561 53.6502 62.6639 48.9535 64.7797C48.9412 64.7838 48.9329 64.788 48.9206 64.7962C44.4665 66.9409 41.2845 67.1179 39.469 65.319C39.2097 65.0638 39.1891 64.8579 39.2015 64.6933C39.2426 64.2158 39.6666 63.6724 40.0454 63.4089C40.5681 63.0425 41.1033 62.6761 41.6507 62.2974C44.1782 60.5562 47.0434 58.5802 49.8838 56.098C49.9167 56.0691 49.9455 56.0403 49.9743 56.0115C52.646 53.2081 56.4167 52.5331 59.8127 54.2578C64.4191 56.6002 67.9675 55.3816 71.6187 53.8503L77.7853 70.0286L73.673 71.6711L73.6771 71.6707ZM91.5099 71.0244L83.0299 74.2971C82.8158 74.3794 82.6264 74.3218 82.5318 74.2806C82.4371 74.2395 82.2683 74.1366 82.186 73.9143L72.2899 47.9596C72.1623 47.6303 72.3393 47.2392 72.6728 47.1075L83.9729 42.7399C84.0511 42.707 84.1417 42.6946 84.2323 42.6946C84.3516 42.6946 84.471 42.7193 84.5698 42.7728C84.6768 42.8264 84.7386 42.8963 84.7633 42.9828L91.8437 70.0366C91.9425 70.4112 91.8808 70.8805 91.5062 71.0204L91.5099 71.0244ZM79.9832 52.7553C80.2631 53.451 79.9214 54.2455 79.2257 54.5254C79.0611 54.5913 78.8882 54.6242 78.7194 54.6242C78.1801 54.6242 77.6697 54.299 77.4556 53.768L75.842 49.7298C75.5621 49.0341 75.9038 48.2395 76.5995 47.9596C77.2952 47.6797 78.0897 48.0214 78.3696 48.7171L79.9832 52.7553ZM19.9109 52.3972L21.5905 48.3795C21.8787 47.6879 22.6772 47.3586 23.3688 47.6509C24.0604 47.939 24.3897 48.7376 24.0975 49.4292L22.4179 53.4469C22.1997 53.9697 21.6934 54.2826 21.1623 54.2826C20.9895 54.2826 20.8083 54.2496 20.6395 54.1755C19.948 53.8874 19.6186 53.0888 19.9109 52.3972ZM49.3316 47.2475C49.488 47.3051 49.6486 47.3339 49.8132 47.3339C49.9738 47.3339 50.1384 47.3051 50.2949 47.2475C65.8388 41.3774 72.8119 28.7191 71.0215 9.62276C70.9597 8.98058 70.4616 8.47009 69.8195 8.40011C61.3518 7.44508 54.8889 5.3827 50.6156 2.26243C50.1381 1.91252 49.4877 1.91252 49.0102 2.26243C44.7373 5.3827 38.2739 7.44514 29.8064 8.40011C29.1683 8.47009 28.662 8.98466 28.6044 9.62276C26.8137 28.7191 33.7877 41.3777 49.3316 47.2475ZM31.2111 10.9727C39.1271 9.9724 45.3724 7.97173 49.8016 5.02029C54.2309 7.97184 60.4758 9.96831 68.3921 10.9727C69.7135 28.1216 63.6212 39.1046 49.8016 44.5223C35.9786 39.105 29.8896 28.1227 31.2111 10.9727ZM49.2252 39.916C49.4104 40.0025 49.608 40.0436 49.8056 40.0436C50.0032 40.0436 50.2008 40.0025 50.386 39.916C59.8992 35.4414 64.5431 27.4883 64.58 15.5958C64.5841 14.9372 64.1148 14.3732 63.4685 14.2539C58.4052 13.3112 54.017 11.891 50.4359 10.0263C50.0448 9.82045 49.5755 9.82045 49.1803 10.0263C45.5949 11.891 41.2108 13.3113 36.1477 14.2539C35.5014 14.3733 35.0321 14.9372 35.0362 15.5958C35.0733 27.484 39.7167 35.4373 49.2302 39.916H49.2252ZM49.8056 12.7589C53.2264 14.4509 57.2647 15.7764 61.8424 16.7067C61.546 26.7057 57.7012 33.2422 49.8056 37.1699C41.9142 33.2386 38.0649 26.7016 37.7688 16.7067C42.3422 15.7764 46.3847 14.4509 49.8056 12.7589ZM46.6935 29.3325L43.8614 25.8622C43.388 25.2777 43.4744 24.4214 44.0549 23.948C44.6353 23.4746 45.4956 23.5611 45.969 24.1415L47.842 26.4385L53.7285 20.4902C54.2596 19.9551 55.1199 19.951 55.6509 20.482C56.1861 21.013 56.1902 21.8733 55.6592 22.4044L48.7063 29.4272C48.4511 29.6865 48.1012 29.8306 47.739 29.8306H47.6731C47.2861 29.81 46.928 29.6289 46.6851 29.3325L46.6935 29.3325Z" stroke="black" mask="url(#path-11-outside-1_257_10797)"/>
</svg>
