<svg width="100" height="100" viewBox="0 0 100 100" fill="none" xmlns="http://www.w3.org/2000/svg">
<path d="M13.843 56.3919V10.5256C13.8514 7.97984 15.9138 5.91727 18.4596 5.90479H89.4669C92.0126 5.91729 94.0753 7.97975 94.0836 10.5255" stroke="#00B0FB" stroke-width="2"/>
<path d="M32.6553 37.4542L30.522 36.0376L30.5137 36.0294C29.5471 35.3753 28.2804 35.3751 27.3137 36.0293L25.1804 37.4461L25.8721 35.0042C26.2054 33.8667 25.8054 32.6459 24.8721 31.9209L24.8721 31.9168L22.8555 30.3502L25.4053 30.2668C26.5927 30.2417 27.6386 29.4793 28.0261 28.3584L28.8721 25.9709L29.7344 28.3584C30.1344 29.4959 31.197 30.2626 32.4011 30.2793V30.2834L34.9512 30.3667L32.9345 31.9336C32.0053 32.6628 31.6178 33.8835 31.9512 35.0127L32.6553 37.4542Z" fill="#00B0FB" fill-opacity="0.5"/>
<path d="M53.9465 13.425L55.8798 18.7583C56.3214 20.0167 57.5007 20.8666 58.834 20.8916L64.4756 21.05L60.0175 24.5291C58.9592 25.3332 58.509 26.7082 58.884 27.9832L60.4423 33.4124L55.7591 30.2123C54.6674 29.4582 53.2174 29.4582 52.1216 30.2124H52.1257L47.4424 33.4122L48.9966 27.9832C49.3758 26.7082 48.9258 25.3332 47.8675 24.5291L43.4092 21.0958L49.0632 20.8916C50.3924 20.8625 51.5632 20.0125 52.0049 18.7583L53.9465 13.425Z" fill="#00B0FB"/>
<path d="M7.50537 60.3577H17.9053C18.7552 60.3618 19.447 61.0453 19.4636 61.8953L19.4636 90.8113C19.4511 91.6654 18.7594 92.353 17.9053 92.3572L7.50527 92.3571C6.65947 92.3529 5.97197 91.6696 5.95947 90.8196V61.9035C5.96363 61.0535 6.65537 60.3618 7.50537 60.3577Z" fill="#00B0FB" fill-opacity="0.5"/>
<path d="M34.3804 41.3836L34.5637 41.0628L34.5676 41.1466C34.7968 40.8675 35.1053 40.6593 35.4512 40.5509C37.247 40.1343 39.1052 40.9174 40.0593 42.4924C41.7759 45.0087 42.1927 49.7339 38.8219 57.3713C38.6094 57.8505 38.6011 58.3963 38.7886 58.8838C38.9802 59.3713 39.3551 59.7629 39.8342 59.9754C40.0884 60.0879 40.3593 60.1463 40.6343 60.1463H60.5093C61.8217 60.3504 62.7926 61.4794 62.7926 62.8128C62.7926 64.1419 61.8219 65.2753 60.5094 65.4795H48.776C48.2261 65.4378 47.6845 65.6294 47.2803 66.0044C46.8761 66.3794 46.647 66.9046 46.647 67.4588C46.647 68.0088 46.8761 68.5337 47.2803 68.9087C47.6844 69.2879 48.2261 69.4753 48.7761 69.4378H57.126C57.8427 69.4378 58.5261 69.7212 59.0344 70.2254C59.8011 70.9962 60.0259 72.1545 59.6093 73.1587C59.1926 74.1629 58.2135 74.8211 57.1261 74.8211H45.3927C44.3552 74.9003 43.5552 75.7628 43.5552 76.8003C43.5552 77.842 44.3553 78.7046 45.3928 78.7796H53.7551C55.2467 78.7796 56.4551 79.9879 56.4551 81.4795C56.4551 82.9711 55.2468 84.1753 53.7552 84.1753H42.0219C40.9343 84.1753 40.051 85.0627 40.051 86.1502C40.051 87.2419 40.9345 88.1253 42.022 88.1253H50.3843C51.8759 88.1253 53.0842 89.3336 53.0842 90.8211C53.0842 92.3127 51.8761 93.521 50.3845 93.521L33.0511 93.5209C31.0678 93.5501 29.101 93.1543 27.2803 92.3585C25.9928 91.8168 24.6761 91.3503 23.3345 90.9628V61.2421C33.3906 55.2178 33.7467 48.8195 34.0009 44.2531L34.0011 44.2502C33.9928 43.2835 34.122 42.3169 34.3845 41.3836L34.3804 41.3836Z" fill="#00B0FB"/>
<path d="M78.9927 25.9712L79.8677 28.3587C80.2593 29.5004 81.3303 30.267 82.5344 30.2795V30.2837L85.0845 30.3672L83.0679 31.9338C82.1096 32.6379 81.6846 33.8671 82.0012 35.0129L82.7261 37.4547L80.5928 36.038C79.6262 35.3838 78.3595 35.3839 77.3928 36.0381L75.2595 37.4546L75.9636 35.013C76.2928 33.8796 75.897 32.6547 74.9595 31.9339L74.9595 31.9297L72.9429 30.3629L75.4929 30.2797C76.6803 30.2422 77.7263 29.4795 78.1179 28.3587L78.9927 25.9712Z" fill="#00B0FB" fill-opacity="0.5"/>
<path fill-rule="evenodd" clip-rule="evenodd" d="M17.9052 60.3578H7.50533C6.65533 60.3619 5.96369 61.0536 5.95953 61.9036V90.8196C5.97203 91.6696 6.65952 92.3529 7.50533 92.3571H17.9052C18.7594 92.3529 19.451 91.6654 19.4635 90.8113V61.8953C19.4468 61.0453 18.7552 60.3619 17.9052 60.3578ZM9.88451 56.3995V10.5333C9.91367 5.83335 13.7179 2.02912 18.4178 2H89.4667C94.1666 2.02917 97.9709 5.83335 98 10.5333V59.0118C97.9667 63.7117 94.1666 67.5117 89.4667 67.545H78.3831V77.6074C78.3914 78.3491 77.9789 79.0324 77.3206 79.3783C76.6581 79.72 75.8623 79.6616 75.2581 79.2283L63.7702 72.6242C63.5577 75.145 61.9453 77.3284 59.5994 78.2784C60.5036 79.9492 60.6494 81.9242 60.0036 83.7074C59.3577 85.4908 57.9786 86.9157 56.2161 87.6199C57.3286 89.6824 57.2744 92.174 56.0786 94.1865C54.8786 96.1948 52.712 97.4282 50.3744 97.4365H33.0498C30.5497 97.449 28.0706 96.9531 25.7665 95.974C24.4999 95.4323 23.1999 94.9823 21.8708 94.6282C20.8374 95.7115 19.4041 96.3282 17.9041 96.324H7.50417C4.46664 96.3198 2.00427 93.8573 2 90.8198V61.8952C2.00417 58.8577 4.46664 56.3953 7.50417 56.3911L9.88451 56.3995ZM55.8798 18.7583L53.9465 13.425L52.0049 18.7583C51.5632 20.0124 50.3924 20.8624 49.0633 20.8916L43.4091 21.0957L47.8674 24.5291C48.9258 25.3333 49.3758 26.7083 48.9966 27.9832L47.4425 33.4123L52.1257 30.2124H52.1216C53.2174 29.4582 54.6674 29.4582 55.7591 30.2124L60.4424 33.4123L58.8841 27.9832C58.5091 26.7083 58.9591 25.3332 60.0174 24.5291L64.4757 21.05L58.834 20.8916C57.5007 20.8666 56.3214 20.0166 55.8798 18.7583ZM57.0007 10.3334H56.9965C56.584 8.99172 55.3423 8.0792 53.9424 8.0792C52.5424 8.0792 51.3007 8.99169 50.884 10.3334L48.4633 16.9792L41.3925 17.225V17.2208C40.0384 17.2833 38.8633 18.1792 38.4384 19.4667C38.0176 20.7583 38.4384 22.175 39.4925 23.025L45.0717 27.3749L43.1217 34.1915C42.7551 35.504 43.2426 36.9081 44.3467 37.7081C45.4509 38.5081 46.9342 38.5415 48.0717 37.7873L53.9466 33.7998L59.8132 37.7581V37.7539C60.9507 38.5081 62.434 38.4789 63.5382 37.6747C64.6381 36.8747 65.1299 35.4748 64.7632 34.1622L62.8007 27.3457L68.3882 23.0248C69.4632 22.179 69.8966 20.7499 69.4715 19.4498C69.0465 18.1498 67.859 17.254 66.4923 17.1998L59.4215 16.954L57.0008 10.3082L57.0007 10.3334ZM30.522 36.0377L32.6553 37.4543L31.9511 35.0126C31.6178 33.8835 32.0053 32.6627 32.9345 31.9335L34.9511 30.3668L32.4011 30.2835V30.2793C31.197 30.2626 30.1345 29.496 29.7345 28.3585L28.872 25.971L28.0262 28.3585C27.6387 29.4793 26.5928 30.2417 25.4054 30.2668L22.8554 30.3501L24.8721 31.9169V31.921C25.8054 32.646 26.2054 33.8668 25.8721 35.0043L25.1804 37.446L27.3137 36.0294C28.2804 35.3752 29.5471 35.3752 30.5137 36.0294L30.522 36.0377ZM30.447 40.7543H30.4511C30.2136 41.8376 30.0887 42.9418 30.0637 44.0501C29.872 47.7084 29.5845 52.8083 21.5304 57.746C20.5304 56.871 19.2471 56.3877 17.9179 56.3918H13.843V10.5256C13.8513 7.97979 15.9138 5.9173 18.4596 5.90482H89.467C92.0128 5.91732 94.0753 7.97979 94.0836 10.5256V59.0126C94.0794 61.5626 92.0169 63.6292 89.467 63.6334H76.4132C75.8882 63.6292 75.3799 63.8375 75.0091 64.2084C74.6382 64.5792 74.4258 65.0792 74.4258 65.6084V74.2249L64.1633 68.2958H64.1675C66.6217 66.6833 67.7299 63.65 66.8883 60.8334C66.0467 58.0167 63.455 56.0918 60.5175 56.0918H43.6014C46.343 48.4752 45.5013 43.2919 43.3764 40.1666C41.8472 37.8374 39.2639 36.4125 36.4764 36.3583L35.9639 34.5874L39.6847 31.6874C40.6514 30.9374 41.043 29.6666 40.6639 28.5082C40.2847 27.3458 39.2222 26.5499 38.0014 26.5124L33.2847 26.354L31.6222 21.9582C31.2098 20.8124 30.1223 20.0457 28.9014 20.0457C27.6848 20.0457 26.5972 20.8124 26.1847 21.9582L24.564 26.3958L19.8598 26.5541H19.8556C18.639 26.5916 17.5723 27.3916 17.1973 28.5499C16.8181 29.7082 17.2098 30.9832 18.1723 31.7291L21.8848 34.6291L20.5847 39.1749C20.2514 40.3458 20.6847 41.5957 21.668 42.3082C22.6514 43.0249 23.9764 43.0499 24.9889 42.3749L28.9055 39.7415L30.4513 40.8081L30.447 40.7543ZM34.5636 41.0627L34.3803 41.3835H34.3845C34.122 42.3168 33.9928 43.2834 34.0011 44.2501C33.747 48.8167 33.3928 55.2164 23.3346 61.242V61.892V90.9627C24.6762 91.3502 25.9929 91.8168 27.2803 92.3585C29.1011 93.1543 31.0678 93.5502 33.0512 93.5209H50.3844C51.876 93.5209 53.0843 92.3126 53.0843 90.821C53.0843 89.3335 51.876 88.1252 50.3844 88.1252H42.022C40.9345 88.1252 40.0511 87.2419 40.0511 86.1502C40.0511 85.0628 40.9344 84.1752 42.022 84.1752H53.7552C55.2468 84.1752 56.4551 82.971 56.4551 81.4794C56.4551 79.9878 55.2468 78.7795 53.7552 78.7795H45.3928C44.3553 78.7045 43.5553 77.842 43.5553 76.8003C43.5553 75.7628 44.3553 74.9004 45.3928 74.8211H57.1261C58.2135 74.8211 59.1927 74.1628 59.6093 73.1587C60.026 72.1545 59.801 70.9962 59.0344 70.2253C58.526 69.7212 57.8427 69.4379 57.126 69.4379H48.7761C48.2261 69.4753 47.6845 69.2879 47.2803 68.9087C46.8761 68.5337 46.647 68.0087 46.647 67.4587C46.647 66.9045 46.8761 66.3795 47.2803 66.0045C47.6845 65.6295 48.2261 65.4378 48.7761 65.4795H60.5093C61.8218 65.2753 62.7926 64.142 62.7926 62.8129C62.7926 61.4795 61.8218 60.3504 60.5093 60.1462H40.6343C40.3593 60.1462 40.0885 60.0879 39.8343 59.9754C39.3551 59.7629 38.9801 59.3712 38.7885 58.8838C38.601 58.3963 38.6093 57.8504 38.8218 57.3712C42.1927 49.7338 41.7759 45.0087 40.0593 42.4924C39.1052 40.9174 37.2469 40.1342 35.4511 40.5508C35.1052 40.6591 34.7969 40.8675 34.5677 41.1466L34.5636 41.0627ZM79.8678 28.3588L78.9928 25.9713L78.1178 28.3588C77.7261 29.4796 76.6803 30.2421 75.4929 30.2796L72.9429 30.3629L74.9595 31.9296V31.9338C75.897 32.6546 76.2929 33.8796 75.9637 35.0129L75.2595 37.4546L77.3928 36.038C78.3595 35.3838 79.6262 35.3838 80.5928 36.038L82.7261 37.4546L82.0011 35.0129C81.6845 33.8671 82.1095 32.6379 83.0678 31.9338L85.0844 30.3671L82.5345 30.2838V30.2796C81.3303 30.2671 80.2595 29.5004 79.8678 28.3588ZM81.7219 21.9588C81.3053 20.813 80.2178 20.0546 78.997 20.0546C77.7803 20.0546 76.6928 20.813 76.272 21.9588L74.6595 26.3963L69.9429 26.5547H69.947C68.7346 26.6047 67.6804 27.4047 67.3053 28.5546C66.9303 29.7088 67.3095 30.9754 68.2637 31.7297L71.9845 34.6297L70.672 39.1755C70.3386 40.3463 70.772 41.6046 71.7594 42.3212C72.7469 43.0379 74.0803 43.0587 75.0886 42.3754L78.9927 39.742L82.9094 42.3754C83.9177 43.0504 85.2427 43.0254 86.2261 42.3087C87.2094 41.5963 87.6427 40.3463 87.3135 39.1754L86.0135 34.6297L89.7343 31.7296C90.6885 30.9755 91.0676 29.7047 90.6885 28.5505C90.3093 27.3963 89.2509 26.6005 88.0385 26.5546L83.3343 26.3963L81.7219 21.9588Z" fill="black"/>
</svg>
