<svg width="100" height="100" viewBox="0 0 100 100" fill="none" xmlns="http://www.w3.org/2000/svg">
<path d="M73.1315 88.6975H43.79C43.7285 88.8103 43.6426 89.0453 43.6426 89.347V94.8001C43.6426 95.1018 43.7285 95.3368 43.79 95.4496H73.1315C73.193 95.3368 73.279 95.1018 73.279 94.8001V89.347C73.279 89.0453 73.193 88.8103 73.1315 88.6975Z" fill="#00B0FB"/>
<path d="M74.558 13.4779C73.907 12.8331 73.0667 12.5136 72.227 12.5176C71.3873 12.5216 70.5487 12.8487 69.9039 13.4998C68.6142 14.8019 68.6237 16.8643 69.9258 18.154C71.2279 19.4437 73.2903 19.4322 74.58 18.1301C75.8696 16.8279 75.8602 14.7676 74.558 13.4779Z" fill="#00B0FB" fill-opacity="0.5"/>
<path d="M43.458 53.3636C43.4092 53.2033 43.3292 53.0543 43.2228 52.925C43.1163 52.7956 42.9854 52.6886 42.8376 52.6099C37.7817 49.9177 34.3381 44.6016 34.3381 38.4622C34.3381 29.6012 41.4937 22.4456 50.3547 22.4456C59.2157 22.4456 66.3713 29.6012 66.3713 38.4622C66.3713 43.6812 63.8853 48.3012 60.0316 51.2272C59.8982 51.3284 59.7859 51.455 59.7014 51.5996" stroke="#00B0FB" stroke-width="0.5"/>
<path d="M55.6205 38.7211C55.5974 35.6112 53.0869 33.1347 49.9761 33.1505C46.8671 33.1688 44.3858 35.6735 44.3975 38.7828C44.4025 40.1314 44.8807 41.3562 45.6706 42.3173C46.2762 40.4363 48.1014 39.0856 50.2052 39.0856C52.173 39.0856 53.9041 40.2637 54.6183 41.9526C55.2472 41.0482 55.6205 39.9553 55.6205 38.7629V38.7211Z" fill="#00B0FB" fill-opacity="0.5"/>
<mask id="path-5-outside-1_247_3105" maskUnits="userSpaceOnUse" x="13" y="1" width="75" height="98" fill="black">
<rect fill="white" x="13" y="1" width="75" height="98"/>
<path fill-rule="evenodd" clip-rule="evenodd" d="M50.3546 2C47.1437 2 44.513 4.63066 44.513 7.84161C44.513 11.0526 47.1437 13.6832 50.3546 13.6832C53.5656 13.6832 56.1963 11.0526 56.1963 7.84161C56.1963 4.63066 53.5656 2 50.3546 2ZM50.3546 4.55022C52.1874 4.55022 53.646 6.0089 53.646 7.84161C53.646 9.67431 52.1874 11.133 50.3546 11.133C48.5219 11.133 47.0633 9.67431 47.0633 7.84161C47.0633 6.0089 48.5219 4.55022 50.3546 4.55022ZM50.3546 5.89308C50.0987 5.89302 49.8453 5.94338 49.6089 6.04129C49.3725 6.13919 49.1577 6.28271 48.9767 6.46366C48.7958 6.64461 48.6522 6.85944 48.5543 7.09587C48.4564 7.3323 48.4061 7.58571 48.4061 7.84161C48.4061 8.09751 48.4564 8.35091 48.5543 8.58734C48.6522 8.82377 48.7958 9.0386 48.9767 9.21955C49.1577 9.4005 49.3725 9.54402 49.6089 9.64193C49.8453 9.73983 50.0987 9.79019 50.3546 9.79014C50.6105 9.79019 50.864 9.73983 51.1004 9.64193C51.3368 9.54402 51.5516 9.4005 51.7326 9.21955C51.9135 9.0386 52.0571 8.82377 52.155 8.58734C52.2529 8.35091 52.3032 8.09751 52.3032 7.84161C52.3032 7.58571 52.2529 7.3323 52.155 7.09587C52.0571 6.85944 51.9135 6.64461 51.7326 6.46366C51.5516 6.28271 51.3368 6.13919 51.1004 6.04129C50.864 5.94338 50.6105 5.89302 50.3546 5.89308ZM28.2394 9.73435C26.7417 9.74154 25.247 10.3151 24.1172 11.4558C21.8577 13.7371 21.8757 17.4585 24.1571 19.7181C26.4384 21.9776 30.1579 21.9596 32.4174 19.6782C34.677 17.3969 34.6589 13.6755 32.3776 11.4159C31.2369 10.2861 29.7371 9.72716 28.2394 9.73435ZM72.2148 9.9834C70.7172 9.99059 69.2204 10.5641 68.0907 11.7048C65.8311 13.9862 65.8491 17.7076 68.1305 19.9671C70.4119 22.2267 74.1313 22.2066 76.3908 19.9253C78.6504 17.6439 78.6343 13.9245 76.353 11.665C75.2123 10.5352 73.7125 9.97621 72.2148 9.9834ZM28.2514 12.2666C29.0911 12.2626 29.9314 12.5841 30.5824 13.229C31.8846 14.5186 31.896 16.581 30.6063 17.8831C29.3167 19.1852 27.2523 19.1947 25.9502 17.905C24.6481 16.6153 24.6386 14.553 25.9283 13.2509C26.5731 12.5998 27.4117 12.2707 28.2514 12.2666ZM72.2268 12.5177C73.0665 12.5137 73.9068 12.8332 74.5579 13.478C75.86 14.7677 75.8695 16.828 74.5798 18.1302C73.2901 19.4323 71.2278 19.4438 69.9256 18.1541C68.6235 16.8644 68.614 14.802 69.9037 13.4999C70.5485 12.8489 71.3871 12.5217 72.2268 12.5177ZM28.2693 13.6195C28.0116 13.6189 27.7563 13.6696 27.5183 13.7684C27.2802 13.8672 27.0642 14.0123 26.8826 14.1953C26.7026 14.3771 26.5601 14.5926 26.4634 14.8295C26.3666 15.0664 26.3175 15.32 26.3188 15.5759C26.3201 15.8317 26.3718 16.0849 26.4709 16.3207C26.5701 16.5566 26.7147 16.7707 26.8966 16.9507C27.0784 17.1307 27.2939 17.2732 27.5308 17.3699C27.7677 17.4667 28.0213 17.5158 28.2772 17.5145C28.5331 17.5132 28.7862 17.4615 29.0221 17.3624C29.258 17.2633 29.472 17.1186 29.652 16.9367C30.015 16.5696 30.2174 16.0734 30.2148 15.5571C30.2122 15.0408 30.0048 14.5467 29.6381 14.1833C29.2738 13.8226 28.782 13.62 28.2693 13.6195ZM72.2427 13.8685C71.9849 13.8682 71.7295 13.9192 71.4915 14.0184C71.2534 14.1175 71.0374 14.263 70.8561 14.4463C70.493 14.8134 70.2906 15.3096 70.2932 15.8259C70.2958 16.3422 70.5033 16.8363 70.87 17.1997C71.0517 17.3799 71.2671 17.5225 71.5039 17.6194C71.7407 17.7163 71.9943 17.7657 72.2502 17.7645C72.5061 17.7634 72.7592 17.7119 72.9952 17.613C73.2312 17.514 73.4453 17.3695 73.6254 17.1878C73.8055 17.006 73.948 16.7905 74.0447 16.5536C74.1414 16.3167 74.1906 16.063 74.1893 15.8072C74.188 15.5513 74.1363 15.2982 74.0371 15.0623C73.938 14.8264 73.7934 14.6123 73.6115 14.4323C73.2472 14.0716 72.7554 13.869 72.2427 13.8685ZM50.2749 14.4025C49.9368 14.4025 49.6124 14.5368 49.3733 14.7759C49.1342 15.0151 48.9998 15.3394 48.9998 15.6776V18.2039C48.9998 18.5421 49.1342 18.8664 49.3733 19.1055C49.6124 19.3447 49.9368 19.479 50.2749 19.479C50.6131 19.479 50.9375 19.3447 51.1766 19.1055C51.4157 18.8664 51.5501 18.5421 51.5501 18.2039V15.6776C51.5501 15.3394 51.4157 15.0151 51.1766 14.7759C50.9375 14.5368 50.6131 14.4025 50.2749 14.4025ZM50.3546 19.8954C40.1154 19.8954 31.7878 28.223 31.7878 38.4622C31.7878 45.5566 35.7769 51.7392 41.64 54.8614C41.9384 55.0199 42.2874 55.0535 42.6106 54.9549C42.9337 54.8563 43.2045 54.6335 43.3634 54.3354C43.4422 54.1876 43.4911 54.0257 43.5074 53.8589C43.5236 53.6922 43.5068 53.5239 43.4579 53.3637C43.4091 53.2035 43.3291 53.0544 43.2227 52.9251C43.1162 52.7958 42.9853 52.6887 42.8375 52.61C37.7816 49.9177 34.338 44.6017 34.338 38.4622C34.338 29.6012 41.4936 22.4456 50.3546 22.4456C59.2156 22.4456 66.3712 29.6012 66.3712 38.4622C66.3712 43.6813 63.8852 48.3013 60.0315 51.2273C59.8981 51.3285 59.7858 51.455 59.7013 51.5997C59.6167 51.7443 59.5615 51.9041 59.5387 52.0701C59.5159 52.2361 59.5261 52.4049 59.5686 52.5669C59.6111 52.729 59.6852 52.881 59.7865 53.0144C59.8877 53.1479 60.0142 53.2601 60.1588 53.3447C60.3035 53.4293 60.4633 53.4845 60.6293 53.5073C60.7952 53.53 60.9641 53.5199 61.1261 53.4773C61.2881 53.4348 61.4402 53.3608 61.5736 53.2595C66.0382 49.8696 68.9215 44.493 68.9215 38.4622C68.9215 28.223 60.5939 19.8954 50.3546 19.8954ZM66.3214 19.987C66.0019 20.0019 65.6997 20.1363 65.4747 20.3636L63.6935 22.1567C63.4552 22.3966 63.322 22.7214 63.3231 23.0595C63.3242 23.3976 63.4596 23.7215 63.6995 23.9598C63.8183 24.0781 63.9593 24.1718 64.1144 24.2355C64.2695 24.2992 64.4356 24.3318 64.6033 24.3312C64.7709 24.3307 64.9368 24.297 65.0915 24.2323C65.2461 24.1675 65.3865 24.0729 65.5046 23.9538L67.2837 22.1607C67.522 21.9208 67.6553 21.5961 67.6541 21.2579C67.653 20.9198 67.5176 20.596 67.2778 20.3576C67.0483 20.1293 66.7406 19.9969 66.4171 19.987C66.3852 19.9859 66.3533 19.9859 66.3214 19.987ZM34.1189 20.0428C33.7992 20.0562 33.4963 20.1891 33.2701 20.4154C33.0311 20.6545 32.8968 20.9788 32.8968 21.317C32.8968 21.6551 33.0311 21.9794 33.2701 22.2185L35.0553 24.0056C35.2944 24.2447 35.6187 24.379 35.9568 24.379C36.295 24.379 36.6193 24.2447 36.8584 24.0056C37.0974 23.7665 37.2317 23.4422 37.2317 23.1041C37.2317 22.766 37.0974 22.4417 36.8584 22.2026L35.0732 20.4154C34.9486 20.2907 34.7994 20.1932 34.6351 20.1291C34.4708 20.0649 34.2951 20.0356 34.1189 20.0428ZM49.9621 30.6004C45.4756 30.6253 41.8304 34.3063 41.8472 38.793C41.8571 41.4512 43.1452 43.8248 45.1287 45.306C45.2256 45.3778 45.3323 45.4355 45.4455 45.4773L45.5072 67.2559L38.4164 60.5197C37.5892 59.734 36.5137 59.3347 35.4498 59.3362C34.3858 59.3378 33.3328 59.7406 32.5509 60.5635L32.1385 60.9978C31.3534 61.8241 31.0333 62.9326 31.1184 63.9505C31.2034 64.9684 31.6351 65.9146 32.272 66.7219L45.1107 82.9975C45.1107 82.9975 45.1585 83.0603 45.2143 83.143C45.242 83.1838 45.2703 83.241 45.2861 83.2705C45.2761 83.2568 45.3032 83.3649 45.3179 83.4916C45.3338 83.6279 45.3388 83.7193 45.3399 83.7367V86.1474H43.5587C42.676 86.1474 42.0008 86.7173 41.6321 87.313C41.2633 87.9086 41.0921 88.6024 41.0921 89.3472V94.8003C41.0921 95.5451 41.2633 96.2388 41.6321 96.8345C42.0008 97.4301 42.676 98 43.5587 98H73.3624C74.2451 98 74.9203 97.4301 75.2891 96.8345C75.6578 96.2388 75.829 95.5451 75.829 94.8003V89.3472C75.829 88.6024 75.6578 87.9086 75.2891 87.313C74.9203 86.7173 74.2451 86.1474 73.3624 86.1474H71.7068C71.677 85.2016 71.6454 83.6902 71.7825 82.9357C71.9036 82.2688 71.9692 82.2426 72.2487 81.6905C72.5283 81.1385 72.9196 80.2636 73.3943 78.5067C73.9747 76.3589 74.0195 72.3366 74.0279 68.5628C74.0363 64.8049 73.9292 61.4918 73.9283 61.4641C74.071 58.9123 71.9028 56.8976 69.4634 56.8976C68.4965 56.8976 67.6096 57.2233 66.8813 57.7603C66.1085 56.4407 64.7358 55.5308 63.1277 55.5308C62.1723 55.5308 61.2993 55.8541 60.5834 56.3895C59.8085 55.0804 58.4401 54.18 56.8398 54.18C56.1659 54.18 55.5375 54.349 54.9709 54.6302V45.1466C55.1208 45.0931 55.2593 45.012 55.3794 44.9075C56.9822 43.5052 57.9531 41.4494 58.077 39.1874C58.1292 39.0572 58.1595 38.9192 58.1667 38.779C58.1667 38.7733 58.1707 38.7688 58.1707 38.7631C58.1701 38.7524 58.1695 38.7418 58.1687 38.7312C58.1695 38.7212 58.1701 38.7113 58.1707 38.7013C58.1706 38.6956 58.1667 38.6911 58.1667 38.6854C58.1592 38.5615 58.1337 38.4393 58.091 38.3228C57.849 34.0223 54.3157 30.5783 49.9641 30.6004L49.9621 30.6004ZM19.8416 31.6125C16.6307 31.6125 14 34.2411 14 37.4521C14 40.663 16.6307 43.2937 19.8416 43.2937C23.0526 43.2937 25.6832 40.663 25.6832 37.4521C25.6832 34.2411 23.0526 31.6125 19.8416 31.6125ZM80.8677 31.6125C77.6567 31.6125 75.0261 34.2411 75.0261 37.4521C75.0261 40.663 77.6567 43.2937 80.8677 43.2937C84.0786 43.2937 86.7093 40.663 86.7093 37.4521C86.7093 34.2411 84.0786 31.6125 80.8677 31.6125ZM49.9761 33.1506C53.0869 33.1348 55.5974 35.6113 55.6205 38.7212C55.6204 38.7265 55.6204 38.7319 55.6205 38.7372C55.6204 38.7458 55.6204 38.7544 55.6205 38.7631C55.6205 39.9555 55.2472 41.0484 54.6183 41.9528C53.9041 40.2639 52.1729 39.0858 50.2052 39.0858C48.1014 39.0858 46.2762 40.4365 45.6706 42.3174C44.8807 41.3564 44.4025 40.1316 44.3975 38.783C44.3858 35.6737 46.867 33.169 49.9761 33.1506ZM19.8416 34.1627C21.6743 34.1627 23.133 35.6194 23.133 37.4521C23.133 39.2848 21.6743 40.7435 19.8416 40.7435C18.0089 40.7435 16.5502 39.2848 16.5502 37.4521C16.5502 35.6194 18.0089 34.1627 19.8416 34.1627ZM80.8677 34.1627C82.7004 34.1627 84.1591 35.6194 84.1591 37.4521C84.1591 39.2848 82.7004 40.7435 80.8677 40.7435C79.035 40.7435 77.5763 39.2848 77.5763 37.4521C77.5763 35.6194 79.035 34.1627 80.8677 34.1627ZM19.8416 35.5056C19.3251 35.5055 18.8298 35.7104 18.4644 36.0754C18.099 36.4405 17.8935 36.9356 17.8931 37.4521C17.893 37.708 17.9434 37.9614 18.0413 38.1978C18.1392 38.4343 18.2827 38.6491 18.4637 38.83C18.6446 39.011 18.8594 39.1545 19.0959 39.2524C19.3323 39.3503 19.5857 39.4007 19.8416 39.4006C20.0975 39.4007 20.3509 39.3503 20.5873 39.2524C20.8238 39.1545 21.0386 39.011 21.2195 38.83C21.4005 38.6491 21.544 38.4343 21.6419 38.1978C21.7398 37.9614 21.7902 37.708 21.7901 37.4521C21.7897 36.9356 21.5842 36.4405 21.2188 36.0754C20.8535 35.7104 20.3581 35.5055 19.8416 35.5056ZM80.8677 35.5056C80.3512 35.5055 79.8558 35.7104 79.4904 36.0754C79.125 36.4405 78.9196 36.9356 78.9191 37.4521C78.9191 37.708 78.9695 37.9614 79.0674 38.1978C79.1653 38.4343 79.3088 38.6491 79.4897 38.83C79.6707 39.011 79.8855 39.1545 80.1219 39.2524C80.3584 39.3503 80.6118 39.4007 80.8677 39.4006C81.1236 39.4007 81.377 39.3503 81.6134 39.2524C81.8499 39.1545 82.0647 39.011 82.2456 38.83C82.4266 38.6491 82.5701 38.4343 82.668 38.1978C82.7659 37.9614 82.8163 37.708 82.8162 37.4521C82.8158 36.9356 82.6103 36.4405 82.2449 36.0754C81.8795 35.7104 81.3841 35.5055 80.8677 35.5056ZM27.4823 36.183C27.1441 36.183 26.8198 36.3173 26.5807 36.5564C26.3416 36.7956 26.2072 37.1199 26.2072 37.4581C26.2072 37.7963 26.3416 38.1206 26.5807 38.3597C26.8198 38.5988 27.1441 38.7332 27.4823 38.7332H30.0086C30.3468 38.7332 30.6712 38.5988 30.9103 38.3597C31.1494 38.1206 31.2838 37.7963 31.2838 37.4581C31.2838 37.1199 31.1494 36.7956 30.9103 36.5564C30.6712 36.3173 30.3468 36.183 30.0086 36.183H27.4823ZM70.597 36.183C70.2589 36.183 69.9345 36.3173 69.6954 36.5564C69.4563 36.7956 69.3219 37.1199 69.3219 37.4581C69.3219 37.7963 69.4563 38.1206 69.6954 38.3597C69.9345 38.5988 70.2589 38.7332 70.597 38.7332H73.1234C73.4615 38.7332 73.7859 38.5988 74.025 38.3597C74.2641 38.1206 74.3985 37.7963 74.3985 37.4581C74.3985 37.1199 74.2641 36.7956 74.025 36.5564C73.7859 36.3173 73.4615 36.183 73.1234 36.183H70.597ZM50.2052 41.6361C51.4931 41.6361 52.4207 42.5544 52.4207 43.6543V58.8242V59.8981V63.5939C52.4207 63.9321 52.5551 64.2564 52.7942 64.4955C53.0333 64.7347 53.3577 64.869 53.6958 64.869C54.034 64.869 54.3583 64.7347 54.5975 64.4955C54.8366 64.2564 54.971 63.9321 54.971 63.5939V58.8242C54.971 57.5973 55.8303 56.7302 56.8398 56.7302C57.8493 56.7302 58.7106 57.5973 58.7106 58.8242V60.0156C58.7107 60.0475 58.7121 60.0794 58.7146 60.1112C58.7143 60.1329 58.7086 60.1533 58.7086 60.175V64.9228C58.7086 65.261 58.843 65.5853 59.0821 65.8244C59.3212 66.0636 59.6456 66.1979 59.9837 66.1979C60.3219 66.1979 60.6462 66.0636 60.8854 65.8244C61.1245 65.5853 61.2588 65.261 61.2588 64.9228V60.175C61.2588 58.9481 62.1182 58.081 63.1277 58.081C64.1372 58.081 64.9985 58.9481 64.9985 60.175V61.4222C64.9989 61.4375 64.9996 61.4528 65.0005 61.468C65.0005 61.4748 64.9985 61.4812 64.9985 61.488V66.16C64.9985 66.4982 65.1329 66.8226 65.372 67.0617C65.6111 67.3008 65.9354 67.4352 66.2736 67.4352C66.6118 67.4352 66.9361 67.3008 67.1753 67.0617C67.4144 66.8226 67.5487 66.4982 67.5487 66.16V61.488C67.5487 60.3099 68.4067 59.4478 69.4634 59.4478C70.516 59.4478 71.4754 60.3361 71.384 61.3764C71.3797 61.4267 71.3784 61.4773 71.3801 61.5278C71.3801 61.5278 71.486 64.8346 71.4777 68.5569C71.4694 72.2791 71.2671 76.6 70.9318 77.8413C70.4907 79.4734 70.2107 80.0685 69.9734 80.5369C69.7362 81.0054 69.4406 81.5522 69.2721 82.4795C69.0427 83.7422 69.081 85.1623 69.1327 86.1474H47.8901V83.6849C47.8901 83.6609 47.8894 83.637 47.8881 83.6131C47.8881 83.6131 47.8787 83.4248 47.8522 83.1967C47.8257 82.9686 47.8112 82.7267 47.6709 82.348V82.346C47.5441 82.0044 47.4271 81.8635 47.3262 81.7144C47.2254 81.5653 47.135 81.4474 47.135 81.4474C47.1317 81.4428 47.1284 81.4381 47.125 81.4335L34.2743 65.1439C33.8999 64.6694 33.6948 64.1487 33.6606 63.7393C33.6264 63.33 33.7055 63.0518 33.9874 62.7551L34.3998 62.3208C34.9698 61.7208 35.9463 61.6915 36.6591 62.3686L44.8517 70.1507C44.8978 70.2264 44.9336 70.296 45.0012 70.3799C45.2243 70.6569 45.7217 71.1067 46.4655 71.0712C46.8766 71.0511 47.2404 70.8303 47.4338 70.6329C47.6284 70.4344 47.7146 70.2583 47.7805 70.1089C47.9124 69.8101 47.953 69.5785 47.9877 69.3638C48.0572 68.9343 48.0614 68.5608 48.0614 68.5608C48.0616 68.5509 48.0616 68.5409 48.0614 68.531L47.9897 43.6503C47.9862 42.5553 48.9173 41.6361 50.2052 41.6361ZM43.7898 88.6977H73.1313C73.1928 88.8104 73.2788 89.0455 73.2788 89.3472V94.8003C73.2788 95.1019 73.1928 95.337 73.1313 95.4498H43.7898C43.7283 95.337 43.6424 95.1019 43.6424 94.8003V89.3472C43.6424 89.0455 43.7283 88.8104 43.7898 88.6977Z"/>
</mask>
<path fill-rule="evenodd" clip-rule="evenodd" d="M50.3546 2C47.1437 2 44.513 4.63066 44.513 7.84161C44.513 11.0526 47.1437 13.6832 50.3546 13.6832C53.5656 13.6832 56.1963 11.0526 56.1963 7.84161C56.1963 4.63066 53.5656 2 50.3546 2ZM50.3546 4.55022C52.1874 4.55022 53.646 6.0089 53.646 7.84161C53.646 9.67431 52.1874 11.133 50.3546 11.133C48.5219 11.133 47.0633 9.67431 47.0633 7.84161C47.0633 6.0089 48.5219 4.55022 50.3546 4.55022ZM50.3546 5.89308C50.0987 5.89302 49.8453 5.94338 49.6089 6.04129C49.3725 6.13919 49.1577 6.28271 48.9767 6.46366C48.7958 6.64461 48.6522 6.85944 48.5543 7.09587C48.4564 7.3323 48.4061 7.58571 48.4061 7.84161C48.4061 8.09751 48.4564 8.35091 48.5543 8.58734C48.6522 8.82377 48.7958 9.0386 48.9767 9.21955C49.1577 9.4005 49.3725 9.54402 49.6089 9.64193C49.8453 9.73983 50.0987 9.79019 50.3546 9.79014C50.6105 9.79019 50.864 9.73983 51.1004 9.64193C51.3368 9.54402 51.5516 9.4005 51.7326 9.21955C51.9135 9.0386 52.0571 8.82377 52.155 8.58734C52.2529 8.35091 52.3032 8.09751 52.3032 7.84161C52.3032 7.58571 52.2529 7.3323 52.155 7.09587C52.0571 6.85944 51.9135 6.64461 51.7326 6.46366C51.5516 6.28271 51.3368 6.13919 51.1004 6.04129C50.864 5.94338 50.6105 5.89302 50.3546 5.89308ZM28.2394 9.73435C26.7417 9.74154 25.247 10.3151 24.1172 11.4558C21.8577 13.7371 21.8757 17.4585 24.1571 19.7181C26.4384 21.9776 30.1579 21.9596 32.4174 19.6782C34.677 17.3969 34.6589 13.6755 32.3776 11.4159C31.2369 10.2861 29.7371 9.72716 28.2394 9.73435ZM72.2148 9.9834C70.7172 9.99059 69.2204 10.5641 68.0907 11.7048C65.8311 13.9862 65.8491 17.7076 68.1305 19.9671C70.4119 22.2267 74.1313 22.2066 76.3908 19.9253C78.6504 17.6439 78.6343 13.9245 76.353 11.665C75.2123 10.5352 73.7125 9.97621 72.2148 9.9834ZM28.2514 12.2666C29.0911 12.2626 29.9314 12.5841 30.5824 13.229C31.8846 14.5186 31.896 16.581 30.6063 17.8831C29.3167 19.1852 27.2523 19.1947 25.9502 17.905C24.6481 16.6153 24.6386 14.553 25.9283 13.2509C26.5731 12.5998 27.4117 12.2707 28.2514 12.2666ZM72.2268 12.5177C73.0665 12.5137 73.9068 12.8332 74.5579 13.478C75.86 14.7677 75.8695 16.828 74.5798 18.1302C73.2901 19.4323 71.2278 19.4438 69.9256 18.1541C68.6235 16.8644 68.614 14.802 69.9037 13.4999C70.5485 12.8489 71.3871 12.5217 72.2268 12.5177ZM28.2693 13.6195C28.0116 13.6189 27.7563 13.6696 27.5183 13.7684C27.2802 13.8672 27.0642 14.0123 26.8826 14.1953C26.7026 14.3771 26.5601 14.5926 26.4634 14.8295C26.3666 15.0664 26.3175 15.32 26.3188 15.5759C26.3201 15.8317 26.3718 16.0849 26.4709 16.3207C26.5701 16.5566 26.7147 16.7707 26.8966 16.9507C27.0784 17.1307 27.2939 17.2732 27.5308 17.3699C27.7677 17.4667 28.0213 17.5158 28.2772 17.5145C28.5331 17.5132 28.7862 17.4615 29.0221 17.3624C29.258 17.2633 29.472 17.1186 29.652 16.9367C30.015 16.5696 30.2174 16.0734 30.2148 15.5571C30.2122 15.0408 30.0048 14.5467 29.6381 14.1833C29.2738 13.8226 28.782 13.62 28.2693 13.6195ZM72.2427 13.8685C71.9849 13.8682 71.7295 13.9192 71.4915 14.0184C71.2534 14.1175 71.0374 14.263 70.8561 14.4463C70.493 14.8134 70.2906 15.3096 70.2932 15.8259C70.2958 16.3422 70.5033 16.8363 70.87 17.1997C71.0517 17.3799 71.2671 17.5225 71.5039 17.6194C71.7407 17.7163 71.9943 17.7657 72.2502 17.7645C72.5061 17.7634 72.7592 17.7119 72.9952 17.613C73.2312 17.514 73.4453 17.3695 73.6254 17.1878C73.8055 17.006 73.948 16.7905 74.0447 16.5536C74.1414 16.3167 74.1906 16.063 74.1893 15.8072C74.188 15.5513 74.1363 15.2982 74.0371 15.0623C73.938 14.8264 73.7934 14.6123 73.6115 14.4323C73.2472 14.0716 72.7554 13.869 72.2427 13.8685ZM50.2749 14.4025C49.9368 14.4025 49.6124 14.5368 49.3733 14.7759C49.1342 15.0151 48.9998 15.3394 48.9998 15.6776V18.2039C48.9998 18.5421 49.1342 18.8664 49.3733 19.1055C49.6124 19.3447 49.9368 19.479 50.2749 19.479C50.6131 19.479 50.9375 19.3447 51.1766 19.1055C51.4157 18.8664 51.5501 18.5421 51.5501 18.2039V15.6776C51.5501 15.3394 51.4157 15.0151 51.1766 14.7759C50.9375 14.5368 50.6131 14.4025 50.2749 14.4025ZM50.3546 19.8954C40.1154 19.8954 31.7878 28.223 31.7878 38.4622C31.7878 45.5566 35.7769 51.7392 41.64 54.8614C41.9384 55.0199 42.2874 55.0535 42.6106 54.9549C42.9337 54.8563 43.2045 54.6335 43.3634 54.3354C43.4422 54.1876 43.4911 54.0257 43.5074 53.8589C43.5236 53.6922 43.5068 53.5239 43.4579 53.3637C43.4091 53.2035 43.3291 53.0544 43.2227 52.9251C43.1162 52.7958 42.9853 52.6887 42.8375 52.61C37.7816 49.9177 34.338 44.6017 34.338 38.4622C34.338 29.6012 41.4936 22.4456 50.3546 22.4456C59.2156 22.4456 66.3712 29.6012 66.3712 38.4622C66.3712 43.6813 63.8852 48.3013 60.0315 51.2273C59.8981 51.3285 59.7858 51.455 59.7013 51.5997C59.6167 51.7443 59.5615 51.9041 59.5387 52.0701C59.5159 52.2361 59.5261 52.4049 59.5686 52.5669C59.6111 52.729 59.6852 52.881 59.7865 53.0144C59.8877 53.1479 60.0142 53.2601 60.1588 53.3447C60.3035 53.4293 60.4633 53.4845 60.6293 53.5073C60.7952 53.53 60.9641 53.5199 61.1261 53.4773C61.2881 53.4348 61.4402 53.3608 61.5736 53.2595C66.0382 49.8696 68.9215 44.493 68.9215 38.4622C68.9215 28.223 60.5939 19.8954 50.3546 19.8954ZM66.3214 19.987C66.0019 20.0019 65.6997 20.1363 65.4747 20.3636L63.6935 22.1567C63.4552 22.3966 63.322 22.7214 63.3231 23.0595C63.3242 23.3976 63.4596 23.7215 63.6995 23.9598C63.8183 24.0781 63.9593 24.1718 64.1144 24.2355C64.2695 24.2992 64.4356 24.3318 64.6033 24.3312C64.7709 24.3307 64.9368 24.297 65.0915 24.2323C65.2461 24.1675 65.3865 24.0729 65.5046 23.9538L67.2837 22.1607C67.522 21.9208 67.6553 21.5961 67.6541 21.2579C67.653 20.9198 67.5176 20.596 67.2778 20.3576C67.0483 20.1293 66.7406 19.9969 66.4171 19.987C66.3852 19.9859 66.3533 19.9859 66.3214 19.987ZM34.1189 20.0428C33.7992 20.0562 33.4963 20.1891 33.2701 20.4154C33.0311 20.6545 32.8968 20.9788 32.8968 21.317C32.8968 21.6551 33.0311 21.9794 33.2701 22.2185L35.0553 24.0056C35.2944 24.2447 35.6187 24.379 35.9568 24.379C36.295 24.379 36.6193 24.2447 36.8584 24.0056C37.0974 23.7665 37.2317 23.4422 37.2317 23.1041C37.2317 22.766 37.0974 22.4417 36.8584 22.2026L35.0732 20.4154C34.9486 20.2907 34.7994 20.1932 34.6351 20.1291C34.4708 20.0649 34.2951 20.0356 34.1189 20.0428ZM49.9621 30.6004C45.4756 30.6253 41.8304 34.3063 41.8472 38.793C41.8571 41.4512 43.1452 43.8248 45.1287 45.306C45.2256 45.3778 45.3323 45.4355 45.4455 45.4773L45.5072 67.2559L38.4164 60.5197C37.5892 59.734 36.5137 59.3347 35.4498 59.3362C34.3858 59.3378 33.3328 59.7406 32.5509 60.5635L32.1385 60.9978C31.3534 61.8241 31.0333 62.9326 31.1184 63.9505C31.2034 64.9684 31.6351 65.9146 32.272 66.7219L45.1107 82.9975C45.1107 82.9975 45.1585 83.0603 45.2143 83.143C45.242 83.1838 45.2703 83.241 45.2861 83.2705C45.2761 83.2568 45.3032 83.3649 45.3179 83.4916C45.3338 83.6279 45.3388 83.7193 45.3399 83.7367V86.1474H43.5587C42.676 86.1474 42.0008 86.7173 41.6321 87.313C41.2633 87.9086 41.0921 88.6024 41.0921 89.3472V94.8003C41.0921 95.5451 41.2633 96.2388 41.6321 96.8345C42.0008 97.4301 42.676 98 43.5587 98H73.3624C74.2451 98 74.9203 97.4301 75.2891 96.8345C75.6578 96.2388 75.829 95.5451 75.829 94.8003V89.3472C75.829 88.6024 75.6578 87.9086 75.2891 87.313C74.9203 86.7173 74.2451 86.1474 73.3624 86.1474H71.7068C71.677 85.2016 71.6454 83.6902 71.7825 82.9357C71.9036 82.2688 71.9692 82.2426 72.2487 81.6905C72.5283 81.1385 72.9196 80.2636 73.3943 78.5067C73.9747 76.3589 74.0195 72.3366 74.0279 68.5628C74.0363 64.8049 73.9292 61.4918 73.9283 61.4641C74.071 58.9123 71.9028 56.8976 69.4634 56.8976C68.4965 56.8976 67.6096 57.2233 66.8813 57.7603C66.1085 56.4407 64.7358 55.5308 63.1277 55.5308C62.1723 55.5308 61.2993 55.8541 60.5834 56.3895C59.8085 55.0804 58.4401 54.18 56.8398 54.18C56.1659 54.18 55.5375 54.349 54.9709 54.6302V45.1466C55.1208 45.0931 55.2593 45.012 55.3794 44.9075C56.9822 43.5052 57.9531 41.4494 58.077 39.1874C58.1292 39.0572 58.1595 38.9192 58.1667 38.779C58.1667 38.7733 58.1707 38.7688 58.1707 38.7631C58.1701 38.7524 58.1695 38.7418 58.1687 38.7312C58.1695 38.7212 58.1701 38.7113 58.1707 38.7013C58.1706 38.6956 58.1667 38.6911 58.1667 38.6854C58.1592 38.5615 58.1337 38.4393 58.091 38.3228C57.849 34.0223 54.3157 30.5783 49.9641 30.6004L49.9621 30.6004ZM19.8416 31.6125C16.6307 31.6125 14 34.2411 14 37.4521C14 40.663 16.6307 43.2937 19.8416 43.2937C23.0526 43.2937 25.6832 40.663 25.6832 37.4521C25.6832 34.2411 23.0526 31.6125 19.8416 31.6125ZM80.8677 31.6125C77.6567 31.6125 75.0261 34.2411 75.0261 37.4521C75.0261 40.663 77.6567 43.2937 80.8677 43.2937C84.0786 43.2937 86.7093 40.663 86.7093 37.4521C86.7093 34.2411 84.0786 31.6125 80.8677 31.6125ZM49.9761 33.1506C53.0869 33.1348 55.5974 35.6113 55.6205 38.7212C55.6204 38.7265 55.6204 38.7319 55.6205 38.7372C55.6204 38.7458 55.6204 38.7544 55.6205 38.7631C55.6205 39.9555 55.2472 41.0484 54.6183 41.9528C53.9041 40.2639 52.1729 39.0858 50.2052 39.0858C48.1014 39.0858 46.2762 40.4365 45.6706 42.3174C44.8807 41.3564 44.4025 40.1316 44.3975 38.783C44.3858 35.6737 46.867 33.169 49.9761 33.1506ZM19.8416 34.1627C21.6743 34.1627 23.133 35.6194 23.133 37.4521C23.133 39.2848 21.6743 40.7435 19.8416 40.7435C18.0089 40.7435 16.5502 39.2848 16.5502 37.4521C16.5502 35.6194 18.0089 34.1627 19.8416 34.1627ZM80.8677 34.1627C82.7004 34.1627 84.1591 35.6194 84.1591 37.4521C84.1591 39.2848 82.7004 40.7435 80.8677 40.7435C79.035 40.7435 77.5763 39.2848 77.5763 37.4521C77.5763 35.6194 79.035 34.1627 80.8677 34.1627ZM19.8416 35.5056C19.3251 35.5055 18.8298 35.7104 18.4644 36.0754C18.099 36.4405 17.8935 36.9356 17.8931 37.4521C17.893 37.708 17.9434 37.9614 18.0413 38.1978C18.1392 38.4343 18.2827 38.6491 18.4637 38.83C18.6446 39.011 18.8594 39.1545 19.0959 39.2524C19.3323 39.3503 19.5857 39.4007 19.8416 39.4006C20.0975 39.4007 20.3509 39.3503 20.5873 39.2524C20.8238 39.1545 21.0386 39.011 21.2195 38.83C21.4005 38.6491 21.544 38.4343 21.6419 38.1978C21.7398 37.9614 21.7902 37.708 21.7901 37.4521C21.7897 36.9356 21.5842 36.4405 21.2188 36.0754C20.8535 35.7104 20.3581 35.5055 19.8416 35.5056ZM80.8677 35.5056C80.3512 35.5055 79.8558 35.7104 79.4904 36.0754C79.125 36.4405 78.9196 36.9356 78.9191 37.4521C78.9191 37.708 78.9695 37.9614 79.0674 38.1978C79.1653 38.4343 79.3088 38.6491 79.4897 38.83C79.6707 39.011 79.8855 39.1545 80.1219 39.2524C80.3584 39.3503 80.6118 39.4007 80.8677 39.4006C81.1236 39.4007 81.377 39.3503 81.6134 39.2524C81.8499 39.1545 82.0647 39.011 82.2456 38.83C82.4266 38.6491 82.5701 38.4343 82.668 38.1978C82.7659 37.9614 82.8163 37.708 82.8162 37.4521C82.8158 36.9356 82.6103 36.4405 82.2449 36.0754C81.8795 35.7104 81.3841 35.5055 80.8677 35.5056ZM27.4823 36.183C27.1441 36.183 26.8198 36.3173 26.5807 36.5564C26.3416 36.7956 26.2072 37.1199 26.2072 37.4581C26.2072 37.7963 26.3416 38.1206 26.5807 38.3597C26.8198 38.5988 27.1441 38.7332 27.4823 38.7332H30.0086C30.3468 38.7332 30.6712 38.5988 30.9103 38.3597C31.1494 38.1206 31.2838 37.7963 31.2838 37.4581C31.2838 37.1199 31.1494 36.7956 30.9103 36.5564C30.6712 36.3173 30.3468 36.183 30.0086 36.183H27.4823ZM70.597 36.183C70.2589 36.183 69.9345 36.3173 69.6954 36.5564C69.4563 36.7956 69.3219 37.1199 69.3219 37.4581C69.3219 37.7963 69.4563 38.1206 69.6954 38.3597C69.9345 38.5988 70.2589 38.7332 70.597 38.7332H73.1234C73.4615 38.7332 73.7859 38.5988 74.025 38.3597C74.2641 38.1206 74.3985 37.7963 74.3985 37.4581C74.3985 37.1199 74.2641 36.7956 74.025 36.5564C73.7859 36.3173 73.4615 36.183 73.1234 36.183H70.597ZM50.2052 41.6361C51.4931 41.6361 52.4207 42.5544 52.4207 43.6543V58.8242V59.8981V63.5939C52.4207 63.9321 52.5551 64.2564 52.7942 64.4955C53.0333 64.7347 53.3577 64.869 53.6958 64.869C54.034 64.869 54.3583 64.7347 54.5975 64.4955C54.8366 64.2564 54.971 63.9321 54.971 63.5939V58.8242C54.971 57.5973 55.8303 56.7302 56.8398 56.7302C57.8493 56.7302 58.7106 57.5973 58.7106 58.8242V60.0156C58.7107 60.0475 58.7121 60.0794 58.7146 60.1112C58.7143 60.1329 58.7086 60.1533 58.7086 60.175V64.9228C58.7086 65.261 58.843 65.5853 59.0821 65.8244C59.3212 66.0636 59.6456 66.1979 59.9837 66.1979C60.3219 66.1979 60.6462 66.0636 60.8854 65.8244C61.1245 65.5853 61.2588 65.261 61.2588 64.9228V60.175C61.2588 58.9481 62.1182 58.081 63.1277 58.081C64.1372 58.081 64.9985 58.9481 64.9985 60.175V61.4222C64.9989 61.4375 64.9996 61.4528 65.0005 61.468C65.0005 61.4748 64.9985 61.4812 64.9985 61.488V66.16C64.9985 66.4982 65.1329 66.8226 65.372 67.0617C65.6111 67.3008 65.9354 67.4352 66.2736 67.4352C66.6118 67.4352 66.9361 67.3008 67.1753 67.0617C67.4144 66.8226 67.5487 66.4982 67.5487 66.16V61.488C67.5487 60.3099 68.4067 59.4478 69.4634 59.4478C70.516 59.4478 71.4754 60.3361 71.384 61.3764C71.3797 61.4267 71.3784 61.4773 71.3801 61.5278C71.3801 61.5278 71.486 64.8346 71.4777 68.5569C71.4694 72.2791 71.2671 76.6 70.9318 77.8413C70.4907 79.4734 70.2107 80.0685 69.9734 80.5369C69.7362 81.0054 69.4406 81.5522 69.2721 82.4795C69.0427 83.7422 69.081 85.1623 69.1327 86.1474H47.8901V83.6849C47.8901 83.6609 47.8894 83.637 47.8881 83.6131C47.8881 83.6131 47.8787 83.4248 47.8522 83.1967C47.8257 82.9686 47.8112 82.7267 47.6709 82.348V82.346C47.5441 82.0044 47.4271 81.8635 47.3262 81.7144C47.2254 81.5653 47.135 81.4474 47.135 81.4474C47.1317 81.4428 47.1284 81.4381 47.125 81.4335L34.2743 65.1439C33.8999 64.6694 33.6948 64.1487 33.6606 63.7393C33.6264 63.33 33.7055 63.0518 33.9874 62.7551L34.3998 62.3208C34.9698 61.7208 35.9463 61.6915 36.6591 62.3686L44.8517 70.1507C44.8978 70.2264 44.9336 70.296 45.0012 70.3799C45.2243 70.6569 45.7217 71.1067 46.4655 71.0712C46.8766 71.0511 47.2404 70.8303 47.4338 70.6329C47.6284 70.4344 47.7146 70.2583 47.7805 70.1089C47.9124 69.8101 47.953 69.5785 47.9877 69.3638C48.0572 68.9343 48.0614 68.5608 48.0614 68.5608C48.0616 68.5509 48.0616 68.5409 48.0614 68.531L47.9897 43.6503C47.9862 42.5553 48.9173 41.6361 50.2052 41.6361ZM43.7898 88.6977H73.1313C73.1928 88.8104 73.2788 89.0455 73.2788 89.3472V94.8003C73.2788 95.1019 73.1928 95.337 73.1313 95.4498H43.7898C43.7283 95.337 43.6424 95.1019 43.6424 94.8003V89.3472C43.6424 89.0455 43.7283 88.8104 43.7898 88.6977Z" fill="black"/>
<path fill-rule="evenodd" clip-rule="evenodd" d="M50.3546 2C47.1437 2 44.513 4.63066 44.513 7.84161C44.513 11.0526 47.1437 13.6832 50.3546 13.6832C53.5656 13.6832 56.1963 11.0526 56.1963 7.84161C56.1963 4.63066 53.5656 2 50.3546 2ZM50.3546 4.55022C52.1874 4.55022 53.646 6.0089 53.646 7.84161C53.646 9.67431 52.1874 11.133 50.3546 11.133C48.5219 11.133 47.0633 9.67431 47.0633 7.84161C47.0633 6.0089 48.5219 4.55022 50.3546 4.55022ZM50.3546 5.89308C50.0987 5.89302 49.8453 5.94338 49.6089 6.04129C49.3725 6.13919 49.1577 6.28271 48.9767 6.46366C48.7958 6.64461 48.6522 6.85944 48.5543 7.09587C48.4564 7.3323 48.4061 7.58571 48.4061 7.84161C48.4061 8.09751 48.4564 8.35091 48.5543 8.58734C48.6522 8.82377 48.7958 9.0386 48.9767 9.21955C49.1577 9.4005 49.3725 9.54402 49.6089 9.64193C49.8453 9.73983 50.0987 9.79019 50.3546 9.79014C50.6105 9.79019 50.864 9.73983 51.1004 9.64193C51.3368 9.54402 51.5516 9.4005 51.7326 9.21955C51.9135 9.0386 52.0571 8.82377 52.155 8.58734C52.2529 8.35091 52.3032 8.09751 52.3032 7.84161C52.3032 7.58571 52.2529 7.3323 52.155 7.09587C52.0571 6.85944 51.9135 6.64461 51.7326 6.46366C51.5516 6.28271 51.3368 6.13919 51.1004 6.04129C50.864 5.94338 50.6105 5.89302 50.3546 5.89308ZM28.2394 9.73435C26.7417 9.74154 25.247 10.3151 24.1172 11.4558C21.8577 13.7371 21.8757 17.4585 24.1571 19.7181C26.4384 21.9776 30.1579 21.9596 32.4174 19.6782C34.677 17.3969 34.6589 13.6755 32.3776 11.4159C31.2369 10.2861 29.7371 9.72716 28.2394 9.73435ZM72.2148 9.9834C70.7172 9.99059 69.2204 10.5641 68.0907 11.7048C65.8311 13.9862 65.8491 17.7076 68.1305 19.9671C70.4119 22.2267 74.1313 22.2066 76.3908 19.9253C78.6504 17.6439 78.6343 13.9245 76.353 11.665C75.2123 10.5352 73.7125 9.97621 72.2148 9.9834ZM28.2514 12.2666C29.0911 12.2626 29.9314 12.5841 30.5824 13.229C31.8846 14.5186 31.896 16.581 30.6063 17.8831C29.3167 19.1852 27.2523 19.1947 25.9502 17.905C24.6481 16.6153 24.6386 14.553 25.9283 13.2509C26.5731 12.5998 27.4117 12.2707 28.2514 12.2666ZM72.2268 12.5177C73.0665 12.5137 73.9068 12.8332 74.5579 13.478C75.86 14.7677 75.8695 16.828 74.5798 18.1302C73.2901 19.4323 71.2278 19.4438 69.9256 18.1541C68.6235 16.8644 68.614 14.802 69.9037 13.4999C70.5485 12.8489 71.3871 12.5217 72.2268 12.5177ZM28.2693 13.6195C28.0116 13.6189 27.7563 13.6696 27.5183 13.7684C27.2802 13.8672 27.0642 14.0123 26.8826 14.1953C26.7026 14.3771 26.5601 14.5926 26.4634 14.8295C26.3666 15.0664 26.3175 15.32 26.3188 15.5759C26.3201 15.8317 26.3718 16.0849 26.4709 16.3207C26.5701 16.5566 26.7147 16.7707 26.8966 16.9507C27.0784 17.1307 27.2939 17.2732 27.5308 17.3699C27.7677 17.4667 28.0213 17.5158 28.2772 17.5145C28.5331 17.5132 28.7862 17.4615 29.0221 17.3624C29.258 17.2633 29.472 17.1186 29.652 16.9367C30.015 16.5696 30.2174 16.0734 30.2148 15.5571C30.2122 15.0408 30.0048 14.5467 29.6381 14.1833C29.2738 13.8226 28.782 13.62 28.2693 13.6195ZM72.2427 13.8685C71.9849 13.8682 71.7295 13.9192 71.4915 14.0184C71.2534 14.1175 71.0374 14.263 70.8561 14.4463C70.493 14.8134 70.2906 15.3096 70.2932 15.8259C70.2958 16.3422 70.5033 16.8363 70.87 17.1997C71.0517 17.3799 71.2671 17.5225 71.5039 17.6194C71.7407 17.7163 71.9943 17.7657 72.2502 17.7645C72.5061 17.7634 72.7592 17.7119 72.9952 17.613C73.2312 17.514 73.4453 17.3695 73.6254 17.1878C73.8055 17.006 73.948 16.7905 74.0447 16.5536C74.1414 16.3167 74.1906 16.063 74.1893 15.8072C74.188 15.5513 74.1363 15.2982 74.0371 15.0623C73.938 14.8264 73.7934 14.6123 73.6115 14.4323C73.2472 14.0716 72.7554 13.869 72.2427 13.8685ZM50.2749 14.4025C49.9368 14.4025 49.6124 14.5368 49.3733 14.7759C49.1342 15.0151 48.9998 15.3394 48.9998 15.6776V18.2039C48.9998 18.5421 49.1342 18.8664 49.3733 19.1055C49.6124 19.3447 49.9368 19.479 50.2749 19.479C50.6131 19.479 50.9375 19.3447 51.1766 19.1055C51.4157 18.8664 51.5501 18.5421 51.5501 18.2039V15.6776C51.5501 15.3394 51.4157 15.0151 51.1766 14.7759C50.9375 14.5368 50.6131 14.4025 50.2749 14.4025ZM50.3546 19.8954C40.1154 19.8954 31.7878 28.223 31.7878 38.4622C31.7878 45.5566 35.7769 51.7392 41.64 54.8614C41.9384 55.0199 42.2874 55.0535 42.6106 54.9549C42.9337 54.8563 43.2045 54.6335 43.3634 54.3354C43.4422 54.1876 43.4911 54.0257 43.5074 53.8589C43.5236 53.6922 43.5068 53.5239 43.4579 53.3637C43.4091 53.2035 43.3291 53.0544 43.2227 52.9251C43.1162 52.7958 42.9853 52.6887 42.8375 52.61C37.7816 49.9177 34.338 44.6017 34.338 38.4622C34.338 29.6012 41.4936 22.4456 50.3546 22.4456C59.2156 22.4456 66.3712 29.6012 66.3712 38.4622C66.3712 43.6813 63.8852 48.3013 60.0315 51.2273C59.8981 51.3285 59.7858 51.455 59.7013 51.5997C59.6167 51.7443 59.5615 51.9041 59.5387 52.0701C59.5159 52.2361 59.5261 52.4049 59.5686 52.5669C59.6111 52.729 59.6852 52.881 59.7865 53.0144C59.8877 53.1479 60.0142 53.2601 60.1588 53.3447C60.3035 53.4293 60.4633 53.4845 60.6293 53.5073C60.7952 53.53 60.9641 53.5199 61.1261 53.4773C61.2881 53.4348 61.4402 53.3608 61.5736 53.2595C66.0382 49.8696 68.9215 44.493 68.9215 38.4622C68.9215 28.223 60.5939 19.8954 50.3546 19.8954ZM66.3214 19.987C66.0019 20.0019 65.6997 20.1363 65.4747 20.3636L63.6935 22.1567C63.4552 22.3966 63.322 22.7214 63.3231 23.0595C63.3242 23.3976 63.4596 23.7215 63.6995 23.9598C63.8183 24.0781 63.9593 24.1718 64.1144 24.2355C64.2695 24.2992 64.4356 24.3318 64.6033 24.3312C64.7709 24.3307 64.9368 24.297 65.0915 24.2323C65.2461 24.1675 65.3865 24.0729 65.5046 23.9538L67.2837 22.1607C67.522 21.9208 67.6553 21.5961 67.6541 21.2579C67.653 20.9198 67.5176 20.596 67.2778 20.3576C67.0483 20.1293 66.7406 19.9969 66.4171 19.987C66.3852 19.9859 66.3533 19.9859 66.3214 19.987ZM34.1189 20.0428C33.7992 20.0562 33.4963 20.1891 33.2701 20.4154C33.0311 20.6545 32.8968 20.9788 32.8968 21.317C32.8968 21.6551 33.0311 21.9794 33.2701 22.2185L35.0553 24.0056C35.2944 24.2447 35.6187 24.379 35.9568 24.379C36.295 24.379 36.6193 24.2447 36.8584 24.0056C37.0974 23.7665 37.2317 23.4422 37.2317 23.1041C37.2317 22.766 37.0974 22.4417 36.8584 22.2026L35.0732 20.4154C34.9486 20.2907 34.7994 20.1932 34.6351 20.1291C34.4708 20.0649 34.2951 20.0356 34.1189 20.0428ZM49.9621 30.6004C45.4756 30.6253 41.8304 34.3063 41.8472 38.793C41.8571 41.4512 43.1452 43.8248 45.1287 45.306C45.2256 45.3778 45.3323 45.4355 45.4455 45.4773L45.5072 67.2559L38.4164 60.5197C37.5892 59.734 36.5137 59.3347 35.4498 59.3362C34.3858 59.3378 33.3328 59.7406 32.5509 60.5635L32.1385 60.9978C31.3534 61.8241 31.0333 62.9326 31.1184 63.9505C31.2034 64.9684 31.6351 65.9146 32.272 66.7219L45.1107 82.9975C45.1107 82.9975 45.1585 83.0603 45.2143 83.143C45.242 83.1838 45.2703 83.241 45.2861 83.2705C45.2761 83.2568 45.3032 83.3649 45.3179 83.4916C45.3338 83.6279 45.3388 83.7193 45.3399 83.7367V86.1474H43.5587C42.676 86.1474 42.0008 86.7173 41.6321 87.313C41.2633 87.9086 41.0921 88.6024 41.0921 89.3472V94.8003C41.0921 95.5451 41.2633 96.2388 41.6321 96.8345C42.0008 97.4301 42.676 98 43.5587 98H73.3624C74.2451 98 74.9203 97.4301 75.2891 96.8345C75.6578 96.2388 75.829 95.5451 75.829 94.8003V89.3472C75.829 88.6024 75.6578 87.9086 75.2891 87.313C74.9203 86.7173 74.2451 86.1474 73.3624 86.1474H71.7068C71.677 85.2016 71.6454 83.6902 71.7825 82.9357C71.9036 82.2688 71.9692 82.2426 72.2487 81.6905C72.5283 81.1385 72.9196 80.2636 73.3943 78.5067C73.9747 76.3589 74.0195 72.3366 74.0279 68.5628C74.0363 64.8049 73.9292 61.4918 73.9283 61.4641C74.071 58.9123 71.9028 56.8976 69.4634 56.8976C68.4965 56.8976 67.6096 57.2233 66.8813 57.7603C66.1085 56.4407 64.7358 55.5308 63.1277 55.5308C62.1723 55.5308 61.2993 55.8541 60.5834 56.3895C59.8085 55.0804 58.4401 54.18 56.8398 54.18C56.1659 54.18 55.5375 54.349 54.9709 54.6302V45.1466C55.1208 45.0931 55.2593 45.012 55.3794 44.9075C56.9822 43.5052 57.9531 41.4494 58.077 39.1874C58.1292 39.0572 58.1595 38.9192 58.1667 38.779C58.1667 38.7733 58.1707 38.7688 58.1707 38.7631C58.1701 38.7524 58.1695 38.7418 58.1687 38.7312C58.1695 38.7212 58.1701 38.7113 58.1707 38.7013C58.1706 38.6956 58.1667 38.6911 58.1667 38.6854C58.1592 38.5615 58.1337 38.4393 58.091 38.3228C57.849 34.0223 54.3157 30.5783 49.9641 30.6004L49.9621 30.6004ZM19.8416 31.6125C16.6307 31.6125 14 34.2411 14 37.4521C14 40.663 16.6307 43.2937 19.8416 43.2937C23.0526 43.2937 25.6832 40.663 25.6832 37.4521C25.6832 34.2411 23.0526 31.6125 19.8416 31.6125ZM80.8677 31.6125C77.6567 31.6125 75.0261 34.2411 75.0261 37.4521C75.0261 40.663 77.6567 43.2937 80.8677 43.2937C84.0786 43.2937 86.7093 40.663 86.7093 37.4521C86.7093 34.2411 84.0786 31.6125 80.8677 31.6125ZM49.9761 33.1506C53.0869 33.1348 55.5974 35.6113 55.6205 38.7212C55.6204 38.7265 55.6204 38.7319 55.6205 38.7372C55.6204 38.7458 55.6204 38.7544 55.6205 38.7631C55.6205 39.9555 55.2472 41.0484 54.6183 41.9528C53.9041 40.2639 52.1729 39.0858 50.2052 39.0858C48.1014 39.0858 46.2762 40.4365 45.6706 42.3174C44.8807 41.3564 44.4025 40.1316 44.3975 38.783C44.3858 35.6737 46.867 33.169 49.9761 33.1506ZM19.8416 34.1627C21.6743 34.1627 23.133 35.6194 23.133 37.4521C23.133 39.2848 21.6743 40.7435 19.8416 40.7435C18.0089 40.7435 16.5502 39.2848 16.5502 37.4521C16.5502 35.6194 18.0089 34.1627 19.8416 34.1627ZM80.8677 34.1627C82.7004 34.1627 84.1591 35.6194 84.1591 37.4521C84.1591 39.2848 82.7004 40.7435 80.8677 40.7435C79.035 40.7435 77.5763 39.2848 77.5763 37.4521C77.5763 35.6194 79.035 34.1627 80.8677 34.1627ZM19.8416 35.5056C19.3251 35.5055 18.8298 35.7104 18.4644 36.0754C18.099 36.4405 17.8935 36.9356 17.8931 37.4521C17.893 37.708 17.9434 37.9614 18.0413 38.1978C18.1392 38.4343 18.2827 38.6491 18.4637 38.83C18.6446 39.011 18.8594 39.1545 19.0959 39.2524C19.3323 39.3503 19.5857 39.4007 19.8416 39.4006C20.0975 39.4007 20.3509 39.3503 20.5873 39.2524C20.8238 39.1545 21.0386 39.011 21.2195 38.83C21.4005 38.6491 21.544 38.4343 21.6419 38.1978C21.7398 37.9614 21.7902 37.708 21.7901 37.4521C21.7897 36.9356 21.5842 36.4405 21.2188 36.0754C20.8535 35.7104 20.3581 35.5055 19.8416 35.5056ZM80.8677 35.5056C80.3512 35.5055 79.8558 35.7104 79.4904 36.0754C79.125 36.4405 78.9196 36.9356 78.9191 37.4521C78.9191 37.708 78.9695 37.9614 79.0674 38.1978C79.1653 38.4343 79.3088 38.6491 79.4897 38.83C79.6707 39.011 79.8855 39.1545 80.1219 39.2524C80.3584 39.3503 80.6118 39.4007 80.8677 39.4006C81.1236 39.4007 81.377 39.3503 81.6134 39.2524C81.8499 39.1545 82.0647 39.011 82.2456 38.83C82.4266 38.6491 82.5701 38.4343 82.668 38.1978C82.7659 37.9614 82.8163 37.708 82.8162 37.4521C82.8158 36.9356 82.6103 36.4405 82.2449 36.0754C81.8795 35.7104 81.3841 35.5055 80.8677 35.5056ZM27.4823 36.183C27.1441 36.183 26.8198 36.3173 26.5807 36.5564C26.3416 36.7956 26.2072 37.1199 26.2072 37.4581C26.2072 37.7963 26.3416 38.1206 26.5807 38.3597C26.8198 38.5988 27.1441 38.7332 27.4823 38.7332H30.0086C30.3468 38.7332 30.6712 38.5988 30.9103 38.3597C31.1494 38.1206 31.2838 37.7963 31.2838 37.4581C31.2838 37.1199 31.1494 36.7956 30.9103 36.5564C30.6712 36.3173 30.3468 36.183 30.0086 36.183H27.4823ZM70.597 36.183C70.2589 36.183 69.9345 36.3173 69.6954 36.5564C69.4563 36.7956 69.3219 37.1199 69.3219 37.4581C69.3219 37.7963 69.4563 38.1206 69.6954 38.3597C69.9345 38.5988 70.2589 38.7332 70.597 38.7332H73.1234C73.4615 38.7332 73.7859 38.5988 74.025 38.3597C74.2641 38.1206 74.3985 37.7963 74.3985 37.4581C74.3985 37.1199 74.2641 36.7956 74.025 36.5564C73.7859 36.3173 73.4615 36.183 73.1234 36.183H70.597ZM50.2052 41.6361C51.4931 41.6361 52.4207 42.5544 52.4207 43.6543V58.8242V59.8981V63.5939C52.4207 63.9321 52.5551 64.2564 52.7942 64.4955C53.0333 64.7347 53.3577 64.869 53.6958 64.869C54.034 64.869 54.3583 64.7347 54.5975 64.4955C54.8366 64.2564 54.971 63.9321 54.971 63.5939V58.8242C54.971 57.5973 55.8303 56.7302 56.8398 56.7302C57.8493 56.7302 58.7106 57.5973 58.7106 58.8242V60.0156C58.7107 60.0475 58.7121 60.0794 58.7146 60.1112C58.7143 60.1329 58.7086 60.1533 58.7086 60.175V64.9228C58.7086 65.261 58.843 65.5853 59.0821 65.8244C59.3212 66.0636 59.6456 66.1979 59.9837 66.1979C60.3219 66.1979 60.6462 66.0636 60.8854 65.8244C61.1245 65.5853 61.2588 65.261 61.2588 64.9228V60.175C61.2588 58.9481 62.1182 58.081 63.1277 58.081C64.1372 58.081 64.9985 58.9481 64.9985 60.175V61.4222C64.9989 61.4375 64.9996 61.4528 65.0005 61.468C65.0005 61.4748 64.9985 61.4812 64.9985 61.488V66.16C64.9985 66.4982 65.1329 66.8226 65.372 67.0617C65.6111 67.3008 65.9354 67.4352 66.2736 67.4352C66.6118 67.4352 66.9361 67.3008 67.1753 67.0617C67.4144 66.8226 67.5487 66.4982 67.5487 66.16V61.488C67.5487 60.3099 68.4067 59.4478 69.4634 59.4478C70.516 59.4478 71.4754 60.3361 71.384 61.3764C71.3797 61.4267 71.3784 61.4773 71.3801 61.5278C71.3801 61.5278 71.486 64.8346 71.4777 68.5569C71.4694 72.2791 71.2671 76.6 70.9318 77.8413C70.4907 79.4734 70.2107 80.0685 69.9734 80.5369C69.7362 81.0054 69.4406 81.5522 69.2721 82.4795C69.0427 83.7422 69.081 85.1623 69.1327 86.1474H47.8901V83.6849C47.8901 83.6609 47.8894 83.637 47.8881 83.6131C47.8881 83.6131 47.8787 83.4248 47.8522 83.1967C47.8257 82.9686 47.8112 82.7267 47.6709 82.348V82.346C47.5441 82.0044 47.4271 81.8635 47.3262 81.7144C47.2254 81.5653 47.135 81.4474 47.135 81.4474C47.1317 81.4428 47.1284 81.4381 47.125 81.4335L34.2743 65.1439C33.8999 64.6694 33.6948 64.1487 33.6606 63.7393C33.6264 63.33 33.7055 63.0518 33.9874 62.7551L34.3998 62.3208C34.9698 61.7208 35.9463 61.6915 36.6591 62.3686L44.8517 70.1507C44.8978 70.2264 44.9336 70.296 45.0012 70.3799C45.2243 70.6569 45.7217 71.1067 46.4655 71.0712C46.8766 71.0511 47.2404 70.8303 47.4338 70.6329C47.6284 70.4344 47.7146 70.2583 47.7805 70.1089C47.9124 69.8101 47.953 69.5785 47.9877 69.3638C48.0572 68.9343 48.0614 68.5608 48.0614 68.5608C48.0616 68.5509 48.0616 68.5409 48.0614 68.531L47.9897 43.6503C47.9862 42.5553 48.9173 41.6361 50.2052 41.6361ZM43.7898 88.6977H73.1313C73.1928 88.8104 73.2788 89.0455 73.2788 89.3472V94.8003C73.2788 95.1019 73.1928 95.337 73.1313 95.4498H43.7898C43.7283 95.337 43.6424 95.1019 43.6424 94.8003V89.3472C43.6424 89.0455 43.7283 88.8104 43.7898 88.6977Z" stroke="black" mask="url(#path-5-outside-1_247_3105)"/>
<path d="M84.1589 37.452C84.1589 35.6193 82.7003 34.1626 80.8676 34.1626C79.0349 34.1626 77.5762 35.6193 77.5762 37.452C77.5762 39.2847 79.0349 40.7434 80.8676 40.7434C82.7003 40.7434 84.1589 39.2847 84.1589 37.452Z" fill="#00B0FB"/>
<path d="M23.1331 37.452C23.1331 35.6193 21.6744 34.1626 19.8417 34.1626C18.009 34.1626 16.5503 35.6193 16.5503 37.452C16.5503 39.2847 18.009 40.7434 19.8417 40.7434C21.6744 40.7434 23.1331 39.2847 23.1331 37.452Z" fill="#00B0FB"/>
<path d="M53.646 7.84143C53.646 6.00873 52.1873 4.55005 50.3546 4.55005C48.5219 4.55005 47.0632 6.00873 47.0632 7.84143C47.0632 9.67414 48.5219 11.1328 50.3546 11.1328C52.1873 11.1328 53.646 9.67414 53.646 7.84143Z" fill="#00B0FB"/>
</svg>
