<svg width="100" height="100" viewBox="0 0 100 100" fill="none" xmlns="http://www.w3.org/2000/svg">
<path d="M5.3103 30.5518V83.5171L69.3575 83.5171" stroke="#00B0FB" stroke-width="2"/>
<path d="M78.1377 27.2413V17.3103H5.3103V27.2415L78.1377 27.2413Z" fill="#00B0FB" fill-opacity="0.5"/>
<path d="M82.3676 75.5202C82.0954 75.3383 81.7754 75.2412 81.448 75.2412C81.0091 75.2415 80.5884 75.416 80.2781 75.7263C79.9678 76.0367 79.7933 76.4576 79.793 76.8965C79.793 77.2238 79.8899 77.5437 80.0718 77.8159C80.2536 78.0881 80.5123 78.3003 80.8147 78.4255C81.1171 78.5508 81.4499 78.5835 81.771 78.5196C82.0921 78.4558 82.3869 78.2982 82.6184 78.0667C82.8499 77.8352 83.0076 77.5403 83.0715 77.2193C83.1354 76.8982 83.1026 76.5655 82.9773 76.2631C82.852 75.9606 82.6397 75.702 82.3676 75.5202Z" fill="#00B0FB" fill-opacity="0.5"/>
<path d="M82.3676 58.9684C82.0954 58.7865 81.7754 58.6895 81.448 58.6895C81.0091 58.6898 80.5884 58.8642 80.2781 59.1746C79.9678 59.4849 79.7933 59.9058 79.793 60.3447C79.793 60.6721 79.8899 60.992 80.0718 61.2642C80.2536 61.5364 80.5123 61.7485 80.8147 61.8738C81.1171 61.9991 81.4499 62.032 81.771 61.9681C82.0921 61.9043 82.3869 61.7464 82.6184 61.515C82.8499 61.2835 83.0076 60.9886 83.0715 60.6675C83.1354 60.3464 83.1026 60.0138 82.9773 59.7113C82.852 59.4089 82.6397 59.1503 82.3676 58.9684Z" fill="#00B0FB" fill-opacity="0.5"/>
<path d="M71.796 67.7009C71.6142 67.9731 71.5171 68.2931 71.5171 68.6205C71.5174 69.0594 71.6919 69.4802 72.0022 69.7905C72.3125 70.1009 72.7332 70.2755 73.1721 70.2758C73.4995 70.2758 73.8196 70.1786 74.0918 69.9967C74.364 69.8149 74.5761 69.5564 74.7014 69.2539C74.8267 68.9515 74.8594 68.6187 74.7955 68.2977C74.7316 67.9766 74.5741 67.6815 74.3426 67.4501C74.1111 67.2186 73.8162 67.061 73.4951 66.9971C73.1741 66.9333 72.8412 66.966 72.5387 67.0913C72.2363 67.2166 71.9779 67.4287 71.796 67.7009Z" fill="#00B0FB"/>
<path d="M35.7888 61.9998L44.0647 70.2756L49.3143 70.2758L38.4137 59.375L35.7888 61.9998Z" fill="#00B0FB" fill-opacity="0.5"/>
<path d="M28.4828 59.375L17.582 70.2758H39.3834L28.4828 59.375Z" fill="#00B0FB"/>
<path d="M15.2415 67.9351V43.793H51.6551" stroke="#00B0FB" stroke-width="2"/>
<path d="M44.7499 48.7733C44.5891 48.6659 44.4001 48.6085 44.2068 48.6085C43.9475 48.6085 43.6988 48.7116 43.5155 48.8949C43.3321 49.0782 43.2292 49.3269 43.2292 49.5862C43.2292 49.7795 43.2864 49.9684 43.3938 50.1292C43.5013 50.2901 43.6542 50.4152 43.8327 50.4892C44.0112 50.5631 44.2077 50.5827 44.3974 50.545C44.5871 50.5073 44.7614 50.4141 44.8981 50.2774C45.0348 50.1406 45.1279 49.9663 45.1656 49.7767C45.2034 49.587 45.1839 49.3905 45.1099 49.212C45.0359 49.0333 44.9107 48.8807 44.7499 48.7733Z" fill="#00B0FB" stroke="black" stroke-width="0.3"/>
<path d="M81.448 50.4976V17.3103C81.4469 16.4327 81.0978 15.5914 80.4772 14.9708C79.8566 14.3503 79.0153 14.0011 78.1377 14H5.31034C4.43273 14.0011 3.59139 14.3503 2.97083 14.9708C2.35027 15.5914 2.00114 16.4327 2 17.3103V83.517C2.00114 84.3946 2.35027 85.236 2.97083 85.8565C3.59139 86.4771 4.43273 86.8262 5.31034 86.8274H79.7929C84.4778 86.8286 88.9829 85.0234 92.3706 81.7873C95.7583 78.5512 97.7679 74.1335 97.9811 69.4534C98.1943 64.7733 96.5948 60.1912 93.5154 56.6605C90.4359 53.1298 86.1137 50.9224 81.448 50.4976ZM78.1377 17.3103V27.2413H5.31034V17.3103H78.1377ZM5.31034 83.517V30.5517H78.1377V50.4976C74.4233 50.8326 70.9017 52.3016 68.0503 54.7054C65.1988 57.1093 63.1554 60.3317 62.197 63.9359C61.2386 67.5402 61.4116 71.3519 62.6924 74.8546C63.9733 78.3572 66.3001 81.3813 69.3575 83.517H5.31034ZM79.7929 83.517C76.8466 83.517 73.9665 82.6434 71.5168 81.0065C69.0671 79.3697 67.1578 77.0432 66.0303 74.3212C64.9028 71.5992 64.6078 68.604 65.1826 65.7144C65.7574 62.8247 67.1761 60.1704 69.2595 58.0871C71.3428 56.0038 73.9971 54.585 76.8867 54.0103C79.7764 53.4355 82.7715 53.7305 85.4935 54.858C88.2155 55.9854 90.542 57.8948 92.1789 60.3445C93.8157 62.7942 94.6894 65.6743 94.6894 68.6205C94.685 72.57 93.1142 76.3564 90.3215 79.1491C87.5288 81.9418 83.7423 83.5127 79.7929 83.517ZM8.62067 22.2758C8.62067 21.9485 8.71774 21.6285 8.89962 21.3563C9.08149 21.0841 9.33999 20.8719 9.64243 20.7467C9.94488 20.6214 10.2777 20.5886 10.5987 20.6525C10.9198 20.7163 11.2147 20.874 11.4462 21.1055C11.6777 21.3369 11.8353 21.6319 11.8992 21.9529C11.9631 22.274 11.9303 22.6068 11.805 22.9092C11.6797 23.2117 11.4676 23.4702 11.1954 23.6521C10.9232 23.8339 10.6032 23.931 10.2758 23.931C9.83686 23.931 9.41586 23.7566 9.10546 23.4462C8.79505 23.1358 8.62067 22.7148 8.62067 22.2758ZM15.2413 22.2758C15.2413 21.9485 15.3384 21.6285 15.5203 21.3563C15.7022 21.0841 15.9607 20.8719 16.2631 20.7467C16.5655 20.6214 16.8983 20.5886 17.2194 20.6525C17.5405 20.7163 17.8354 20.874 18.0669 21.1055C18.2984 21.3369 18.456 21.6319 18.5199 21.9529C18.5837 22.274 18.551 22.6068 18.4257 22.9092C18.3004 23.2117 18.0883 23.4702 17.8161 23.6521C17.5439 23.8339 17.2239 23.931 16.8965 23.931C16.4575 23.931 16.0365 23.7566 15.7261 23.4462C15.4157 23.1358 15.2413 22.7148 15.2413 22.2758ZM21.862 22.2758C21.862 21.9485 21.9591 21.6285 22.141 21.3563C22.3228 21.0841 22.5813 20.8719 22.8838 20.7467C23.1862 20.6214 23.519 20.5886 23.8401 20.6525C24.1612 20.7163 24.4561 20.874 24.6876 21.1055C24.919 21.3369 25.0767 21.6319 25.1405 21.9529C25.2044 22.274 25.1716 22.6068 25.0464 22.9092C24.9211 23.2117 24.7089 23.4702 24.4367 23.6521C24.1646 23.8339 23.8445 23.931 23.5172 23.931C23.0782 23.931 22.6572 23.7566 22.3468 23.4462C22.0364 23.1358 21.862 22.7148 21.862 22.2758ZM81.448 65.3102C82.4301 65.3102 83.3902 65.019 84.2067 64.4734C85.0233 63.9277 85.6597 63.1522 86.0356 62.2449C86.4114 61.3376 86.5097 60.3392 86.3181 59.376C86.1265 58.4128 85.6536 57.528 84.9592 56.8336C84.2647 56.1391 83.38 55.6662 82.4168 55.4746C81.4536 55.283 80.4552 55.3813 79.5478 55.7572C78.6405 56.133 77.865 56.7694 77.3194 57.586C76.7738 58.4026 76.4825 59.3626 76.4825 60.3447C76.4901 60.5555 76.5114 60.7656 76.5461 60.9737L73.7586 63.7145C73.5645 63.6829 73.3687 63.663 73.1722 63.655C71.8553 63.655 70.5923 64.1782 69.6611 65.1094C68.7299 66.0406 68.2067 67.3036 68.2067 68.6205C68.2067 69.9375 68.7299 71.2005 69.6611 72.1317C70.5923 73.0629 71.8553 73.586 73.1722 73.586C73.3359 73.586 73.4905 73.5529 73.6501 73.5377L76.4837 76.8849L76.4825 76.8964C76.4783 78.0527 76.8763 79.1746 77.6083 80.0697C78.3404 80.9649 79.3609 81.5776 80.4951 81.803C81.6293 82.0284 82.8066 81.8523 83.8252 81.305C84.8439 80.7577 85.6405 79.8732 86.0787 78.803C86.5168 77.7329 86.5692 76.5437 86.2268 75.4392C85.8845 74.3346 85.1687 73.3835 84.2021 72.7488C83.2355 72.114 82.0783 71.8351 80.9287 71.9599C79.7791 72.0846 78.7086 72.6053 77.9007 73.4326L76.7391 72.0606C77.616 71.1636 78.1162 69.9648 78.137 68.7105C78.1578 67.4562 77.6975 66.2416 76.8508 65.316L78.1553 64.0332C79.0573 64.8513 80.2303 65.3062 81.448 65.3102ZM81.448 75.2412C81.7754 75.2412 82.0954 75.3383 82.3676 75.5201C82.6398 75.702 82.8519 75.9605 82.9772 76.263C83.1025 76.5654 83.1353 76.8982 83.0714 77.2193C83.0075 77.5404 82.8499 77.8353 82.6184 78.0668C82.3869 78.2982 82.092 78.4559 81.771 78.5197C81.4499 78.5836 81.1171 78.5508 80.8146 78.4255C80.5122 78.3003 80.2537 78.0881 80.0718 77.8159C79.8899 77.5437 79.7929 77.2237 79.7929 76.8964C79.7932 76.4575 79.9677 76.0367 80.278 75.7263C80.5883 75.416 81.0092 75.2415 81.448 75.2412ZM81.448 58.6895C81.7754 58.6895 82.0954 58.7866 82.3676 58.9685C82.6398 59.1503 82.8519 59.4088 82.9772 59.7113C83.1025 60.0137 83.1353 60.3465 83.0714 60.6676C83.0075 60.9887 82.8499 61.2836 82.6184 61.5151C82.3869 61.7466 82.092 61.9042 81.771 61.9681C81.4499 62.0319 81.1171 61.9991 80.8146 61.8739C80.5122 61.7486 80.2537 61.5364 80.0718 61.2643C79.8899 60.9921 79.7929 60.6721 79.7929 60.3447C79.7932 59.9058 79.9677 59.485 80.278 59.1747C80.5883 58.8643 81.0092 58.6898 81.448 58.6895ZM71.517 68.6205C71.517 68.2932 71.6141 67.9732 71.796 67.701C71.9779 67.4288 72.2364 67.2166 72.5388 67.0914C72.8412 66.9661 73.174 66.9333 73.4951 66.9972C73.8162 67.061 74.1111 67.2187 74.3426 67.4502C74.5741 67.6816 74.7317 67.9766 74.7956 68.2976C74.8594 68.6187 74.8267 68.9515 74.7014 69.2539C74.5761 69.5564 74.364 69.8149 74.0918 69.9968C73.8196 70.1786 73.4996 70.2757 73.1722 70.2757C72.7333 70.2754 72.3125 70.1009 72.0022 69.7906C71.6918 69.4802 71.5173 69.0594 71.517 68.6205ZM53.3102 40.4827H13.5862C13.1472 40.4827 12.7262 40.6571 12.4158 40.9675C12.1054 41.2779 11.931 41.6989 11.931 42.1379V71.9309C11.931 72.3698 12.1054 72.7908 12.4158 73.1012C12.7262 73.4117 13.1472 73.586 13.5862 73.586H53.3102C53.7492 73.586 54.1702 73.4117 54.4806 73.1012C54.791 72.7908 54.9654 72.3698 54.9654 71.9309V42.1379C54.9654 41.6989 54.791 41.2779 54.4806 40.9675C54.1702 40.6571 53.7492 40.4827 53.3102 40.4827ZM17.5819 70.2757L28.4827 59.3749L39.3834 70.2757H17.5819ZM44.0646 70.2757L35.7888 61.9999L38.4137 59.3749L49.3145 70.2757H44.0646ZM51.655 67.9351L39.5839 55.864C39.2735 55.5536 38.8525 55.3793 38.4136 55.3793C37.9747 55.3793 37.5537 55.5536 37.2433 55.864L33.4482 59.6593L29.6529 55.864C29.3425 55.5536 28.9215 55.3793 28.4826 55.3793C28.0437 55.3793 27.6227 55.5536 27.3123 55.864L15.2413 67.9351V43.793H51.655V67.9351ZM44.2068 53.724C45.0252 53.724 45.8252 53.4813 46.5057 53.0267C47.1862 52.572 47.7165 51.9257 48.0297 51.1696C48.3429 50.4135 48.4248 49.5815 48.2652 48.7788C48.1055 47.9762 47.7114 47.2389 47.1327 46.6602C46.554 46.0815 45.8167 45.6874 45.014 45.5277C44.2114 45.368 43.3794 45.45 42.6233 45.7632C41.8672 46.0764 41.2209 46.6067 40.7662 47.2872C40.3115 47.9677 40.0689 48.7677 40.0689 49.5861C40.0701 50.6832 40.5065 51.7349 41.2822 52.5107C42.058 53.2864 43.1097 53.7228 44.2068 53.724ZM44.2068 48.7585C44.3705 48.7585 44.5305 48.8071 44.6666 48.898C44.8026 48.9889 44.9087 49.1182 44.9714 49.2694C45.034 49.4206 45.0504 49.587 45.0185 49.7476C44.9865 49.9081 44.9077 50.0556 44.792 50.1713C44.6762 50.287 44.5288 50.3659 44.3682 50.3978C44.2077 50.4297 44.0413 50.4133 43.8901 50.3507C43.7388 50.2881 43.6096 50.182 43.5187 50.0459C43.4277 49.9098 43.3792 49.7498 43.3792 49.5861C43.3792 49.3666 43.4664 49.1561 43.6216 49.0009C43.7768 48.8457 43.9873 48.7585 44.2068 48.7585Z" fill="black"/>
</svg>
