<svg id="Layer_1" data-name="Layer 1" xmlns="http://www.w3.org/2000/svg" viewBox="0 0 78.97 74.08"><defs><style>.cls-1{fill:#01affb;}</style></defs><path d="M15,52.14c-.86,1.82-1.64,2.2-3.57,1.8-1.76-.36-3.51-.72-5.27-1.06S3.59,51.48,4,49.63l4.8-24.18a2.39,2.39,0,0,1,3.09-2.1c2,.37,4,.79,6,1.18a2.56,2.56,0,0,1,2,1.59.77.77,0,0,0,.58.39q6.54,0,13.08,0a1.44,1.44,0,0,0,.8-.32c.68-.52,1.33-1.09,2-1.64a6.46,6.46,0,0,1,8.52-.16,22.35,22.35,0,0,0,5,3.12,12.69,12.69,0,0,0,9.37.15,2.32,2.32,0,0,1,.51-2.29,3.43,3.43,0,0,1,1.49-.82c2-.46,4-.84,6-1.22a2.39,2.39,0,0,1,3,2.09c.86,4.27,1.7,8.54,2.55,12.81L75,49.75A2.42,2.42,0,0,1,73,52.86L67,54a2.37,2.37,0,0,1-2.93-1.8c0-.11-.08-.21-.14-.38-.91.91-1.79,1.77-2.65,2.65a.69.69,0,0,0-.11.5c.39,3.57-1.33,5.63-5,5.88a4.8,4.8,0,0,1-8,3.84c-.09.22-.17.4-.25.58a4.72,4.72,0,0,1-7.57,1.81c-.77-.69-1.43-1.51-2.11-2.23C38,65,38,65,38,65c-.94,3.52-5.44,4.82-8.36,1.78C25,62,20.26,57.36,15.56,52.66ZM31.09,28.85a2.2,2.2,0,0,0-.33-.08c-3.57,0-7.13,0-10.7,0-.43,0-.53.19-.6.57q-1.92,9.72-3.89,19.45a1.08,1.08,0,0,0,.35,1.09q7.73,7.7,15.43,15.42a4.69,4.69,0,0,0,.57.52,2.5,2.5,0,0,0,4-2,2.58,2.58,0,0,0-.86-2q-2-2-4.05-4.05a1.12,1.12,0,0,1,.32-1.93,1.22,1.22,0,0,1,1.36.45l6,6c1,1,2,2.06,3.07,3.06a2.5,2.5,0,0,0,4.15-1,2.55,2.55,0,0,0-.75-2.73C42.4,59,39.72,56.26,37,53.58c-.14-.13-.27-.26-.4-.4a1.11,1.11,0,1,1,1.54-1.6,4.67,4.67,0,0,1,.45.44Q44,57.44,49.46,62.85a2.56,2.56,0,0,0,2.31.87,2.35,2.35,0,0,0,2-1.71,2.42,2.42,0,0,0-.63-2.57c-1.75-1.77-3.52-3.53-5.28-5.3s-3.56-3.55-5.34-5.34c-.6-.61-.65-1.22-.17-1.72s1.13-.46,1.77.16l.34.34c3.35,3.35,6.68,6.7,10.05,10a3.71,3.71,0,0,0,1.31.87,2.39,2.39,0,0,0,2.84-1.06,2.2,2.2,0,0,0-.37-2.9Q50.94,47,43.58,39.58a12.36,12.36,0,0,0-4.27-3,11.89,11.89,0,0,0-1.21-.3c-.16,1.4-.28,2.67-.44,3.94-.53,4.23-2.71,7.09-6.92,8.25-1.29.35-1.73.08-2-1.24-.77-3.57-1.51-7.15-2.35-10.7a4.79,4.79,0,0,1,1.8-5.27C29.13,30.52,30.05,29.71,31.09,28.85Zm28.52,1a14.39,14.39,0,0,1-11.25-.57,37.65,37.65,0,0,1-4.93-3.14c-1.87-1.32-3.9-1.42-5.54-.07-2.86,2.36-5.69,4.75-8.53,7.12a2.39,2.39,0,0,0-.86,2.56c.48,2.06.91,4.14,1.36,6.2.29,1.36.6,2.72.91,4.12a6,6,0,0,0,4.35-4.66c.35-1.68.5-3.41.71-5.11a2.22,2.22,0,0,1,2.41-2.18,7.56,7.56,0,0,1,2.42.61,15.17,15.17,0,0,1,4.71,3.44q6.9,7,13.79,14a4.64,4.64,0,0,1,.48.75C60.9,51.69,62,50.61,63,49.56a1,1,0,0,0,.29-1.05Q62,42,60.73,35.43C60.36,33.61,60,31.78,59.61,29.88ZM72.93,50.57c-1.68-8.43-3.34-16.74-5-25.1L61.28,26.8l5,25.1ZM17.68,26.84l-.46-.14-5.21-1c-1-.2-1-.21-1.18.79l-4.17,21c-.21,1-.4,2.08-.61,3.16l6.64,1.33Z"/><path d="M40.6,10.69c0,1.21,0,2.42,0,3.63,0,.84-.42,1.33-1.11,1.33s-1.12-.48-1.12-1.3c0-2.47,0-4.95,0-7.42,0-.82.43-1.33,1.1-1.34s1.12.51,1.13,1.32C40.61,8.17,40.6,9.43,40.6,10.69Z"/><path d="M29.66,20.59a1.16,1.16,0,0,1-1.75,1.19c-1.1-.61-2.17-1.25-3.26-1.88L21.39,18c-.71-.42-.93-1-.59-1.62a1.15,1.15,0,0,1,1.69-.32c2.16,1.23,4.32,2.47,6.45,3.74A3.12,3.12,0,0,1,29.66,20.59Z"/><path d="M50.29,22.08c-.29-.26-.73-.49-.86-.83a2.08,2.08,0,0,1,.19-1.14c.05-.14.28-.23.44-.32,2.13-1.24,4.26-2.48,6.4-3.69.26-.16.68-.33.89-.22a2,2,0,0,1,.92.9c.2.5-.15.93-.61,1.19-1.49.87-3,1.72-4.47,2.58-.66.39-1.32.78-2,1.15C51,21.83,50.7,21.91,50.29,22.08Z"/><path d="M46.06,17.34c-1.16,0-1.64-.89-1.19-1.71s1.08-1.9,1.63-2.84c.7-1.23,1.41-2.46,2.12-3.68.44-.75,1.08-1,1.67-.6s.69,1,.27,1.71c-1.22,2.14-2.44,4.27-3.7,6.39A3.61,3.61,0,0,1,46.06,17.34Z"/><path d="M29.49,8.35a2.55,2.55,0,0,1,.76.63c1.3,2.19,2.57,4.41,3.84,6.63a1.1,1.1,0,0,1-.35,1.58,1.08,1.08,0,0,1-1.55-.44q-2-3.36-3.89-6.76C27.86,9.21,28.39,8.36,29.49,8.35Z"/><path class="cls-1" d="M72.93,50.57c-1.68-8.43-3.34-16.74-5-25.1L61.28,26.8l5,25.1Z"/><path class="cls-1" d="M17.68,26.84l-.46-.14-5.21-1c-1-.2-1-.21-1.18.79l-4.17,21c-.21,1-.4,2.08-.61,3.16l6.64,1.33Z"/><path class="cls-1" d="M33,65.81a4.69,4.69,0,0,1-.57-.52Q24.7,57.58,17,49.87a1.08,1.08,0,0,1-.35-1.09q2-9.72,3.89-19.45c.07-.37.16-.57.59-.57H20.06c-.43,0-.53.19-.6.57q-1.92,9.72-3.89,19.45a1.08,1.08,0,0,0,.35,1.09q7.73,7.7,15.43,15.42a4.69,4.69,0,0,0,.57.52,2.38,2.38,0,0,0,2,.4A2.69,2.69,0,0,1,33,65.81Z"/></svg>