<svg id="Layer_1" data-name="Layer 1" xmlns="http://www.w3.org/2000/svg" viewBox="0 0 78.97 74.08"><defs><style>.cls-1{fill:#fff;}</style></defs><path class="cls-1" d="M74.55,52.93a4.08,4.08,0,0,1,.17-.42l0-.1,0-11.36c0-.12-.1-.25-.14-.37a4.35,4.35,0,0,0-2.33-2.76,1.15,1.15,0,0,1-.74-1.19q0-4.51,0-9a6.15,6.15,0,0,0-2.24-5,5.42,5.42,0,0,0-2.74-1.26,1.61,1.61,0,0,1-1.29-.9q-3-5.2-6-10.41L56.54,5.21a6.57,6.57,0,0,0-3.1-2.94,6.13,6.13,0,0,0-5.78.51L28.37,14l-7.81,4.55c-1.3.76-2.61,1.52-3.92,2.26a3,3,0,0,1-1.34.37c-.89,0-1.77,0-2.66,0H10.56a6,6,0,0,0-6.11,4.59,6.6,6.6,0,0,0-.22,1.83V43.21q0,11.32,0,22.65a6.2,6.2,0,0,0,5.34,6.37.56.56,0,0,1,.23.08H66.09A7.31,7.31,0,0,0,69,71.09a6.21,6.21,0,0,0,2.5-5.25c0-3,0-6,0-9a1.19,1.19,0,0,1,.76-1.22A4.26,4.26,0,0,0,74.55,52.93ZM62.79,21.17H48.12l-.33-.63,11-6.4ZM55.55,8.54l2,3.39-.5.34c-.14.09-.27.18-.4.25l-2.07,1.21L42.37,20.8a3.33,3.33,0,0,1-1.48.4l-2.15,0H35.21l-.15-.55.21-.3ZM22.44,20.37l.16-.1L23,20l26-15.11c1.93-1.13,3.91-.78,5,.88a.67.67,0,0,1,.1.21l.12.29L54,6.56l-.18.11-.41.26-1,.61Q40.89,14.2,29.45,20.85a2.82,2.82,0,0,1-1.28.35l-2.62,0H22.4l-.16-.54ZM69,65.76c0,2.62-1.45,4.06-4.08,4.06H10.79A3.71,3.71,0,0,1,6.7,65.75v-38a3.68,3.68,0,0,1,4-4H65a3.61,3.61,0,0,1,4,3.92c0,2.11,0,4.23,0,6.34v2.43c0,.13,0,.26,0,.41l0,.6H65.88c-2.29,0-4.45,0-6.65,0a12.22,12.22,0,0,0-3.68.65A9.29,9.29,0,0,0,58.13,56c2.19.11,4.43.1,6.59.09H69l0,.62c0,.19,0,.36,0,.54V58C69,60.57,69,63.17,69,65.76ZM70,53.6H66l-2.11,0H60.79c-.71,0-1.42,0-2.13,0a6.81,6.81,0,0,1-6.57-6.63,6.68,6.68,0,0,1,1.8-4.81A6.18,6.18,0,0,1,58.14,40c3.25-.12,6.56-.12,9.76-.11h2.22a2,2,0,0,1,2.15,2.16c0,3.35,0,6.42,0,9.4A2,2,0,0,1,70,53.6Z"/><path class="cls-1" d="M58.93,43.91h0a2.83,2.83,0,0,0-2,.86,2.79,2.79,0,0,0-.81,2,2.87,2.87,0,0,0,2.86,2.84h0a2.88,2.88,0,0,0,2-.86,2.81,2.81,0,0,0,.83-2A2.86,2.86,0,0,0,58.93,43.91Z"/></svg>