<svg width="100" height="100" viewBox="0 0 100 100" fill="none" xmlns="http://www.w3.org/2000/svg">
<path d="M5 31H87V33H5V31Z" fill="#00B0FB"/>
<path d="M5 72V31H7V72H5Z" fill="#00B0FB"/>
<path d="M67.6 72.55H5.45V31.45H88.15V52C88.15 52.4906 88.3449 52.9612 88.6918 53.3081C89.0388 53.6551 89.5093 53.85 90 53.85C90.4907 53.85 90.9612 53.6551 91.3081 53.3081C91.6551 52.9612 91.85 52.4906 91.85 52V13.6C91.85 13.1094 91.6551 12.6388 91.3081 12.2919C90.9612 11.9449 90.4907 11.75 90 11.75H3.6C3.10935 11.75 2.63879 11.9449 2.29185 12.2919C1.94491 12.6388 1.75 13.1093 1.75 13.6V74.4C1.75 74.8906 1.94491 75.3612 2.29185 75.7081C2.63879 76.0551 3.10935 76.25 3.6 76.25H67.6C68.0907 76.25 68.5612 76.0551 68.9081 75.7081C69.2551 75.3612 69.45 74.8906 69.45 74.4C69.45 73.9093 69.2551 73.4388 68.9082 73.0918C68.5612 72.7449 68.0907 72.55 67.6 72.55ZM88.15 15.45V27.75H5.45V15.45H88.15Z" fill="black" stroke="black" stroke-width="0.5"/>
<path d="M11.6004 24.7999C13.3677 24.7999 14.8004 23.3672 14.8004 21.5999C14.8004 19.8326 13.3677 18.3999 11.6004 18.3999C9.83308 18.3999 8.40039 19.8326 8.40039 21.5999C8.40039 23.3672 9.83308 24.7999 11.6004 24.7999Z" fill="black"/>
<path d="M21.2 24.7999C22.9673 24.7999 24.4 23.3672 24.4 21.5999C24.4 19.8326 22.9673 18.3999 21.2 18.3999C19.4327 18.3999 18 19.8326 18 21.5999C18 23.3672 19.4327 24.7999 21.2 24.7999Z" fill="#00B0FB"/>
<path d="M30.7996 24.7999C32.5669 24.7999 33.9996 23.3672 33.9996 21.5999C33.9996 19.8326 32.5669 18.3999 30.7996 18.3999C29.0323 18.3999 27.5996 19.8326 27.5996 21.5999C27.5996 23.3672 29.0323 24.7999 30.7996 24.7999Z" fill="#00B0FB" fill-opacity="0.5"/>
<path d="M19.6416 53.6001C19.9424 59.8401 21.9424 63.2001 22.8 63.2001C23.6576 63.2001 25.6576 59.8401 25.9584 53.6001H19.6416Z" fill="#00B0FB" fill-opacity="0.5"/>
<path d="M16.4404 50.4C16.5224 47.4633 17.1041 44.5621 18.1604 41.8208C16.4572 42.5999 14.9753 43.7931 13.8517 45.2917C12.7282 46.7904 11.9979 48.5465 11.7275 50.3999L16.4404 50.4Z" fill="#00B0FB" fill-opacity="0.5"/>
<path d="M29.1602 50.3999H33.8722C33.6018 48.5465 32.8718 46.7905 31.7482 45.2919C30.6247 43.7933 29.1437 42.5999 27.4404 41.8208C28.4968 44.5621 29.0782 47.4632 29.1602 50.3999Z" fill="#00B0FB" fill-opacity="0.5"/>
<path d="M8.40039 52.0001C8.40039 54.8481 9.24494 57.6322 10.8272 60.0003C12.4095 62.3684 14.6585 64.2141 17.2897 65.304C19.921 66.3939 22.8164 66.679 25.6097 66.1234C28.403 65.5678 30.9689 64.1963 32.9827 62.1824C34.9966 60.1686 36.3681 57.6027 36.9237 54.8094C37.4793 52.0161 37.1942 49.1207 36.1043 46.4895C35.0144 43.8582 33.1687 41.6092 30.8006 40.0269C28.4325 38.4446 25.6484 37.6001 22.8004 37.6001C18.9826 37.6043 15.3223 39.1228 12.6227 41.8224C9.92312 44.522 8.40463 48.1823 8.40039 52.0001ZM25.9588 50.4001H19.642C19.9428 44.1601 21.9428 40.8001 22.8004 40.8001C23.658 40.8001 25.658 44.1601 25.9588 50.4001ZM22.8004 63.2001C21.9428 63.2001 19.9428 59.8401 19.642 53.6001H25.9588C25.658 59.8401 23.658 63.2001 22.8004 63.2001ZM18.1604 41.8209C17.104 44.5622 16.5224 47.4634 16.4404 50.4001H11.7284C11.9988 48.5467 12.7291 46.7906 13.8526 45.292C14.9761 43.7934 16.4571 42.6 18.1604 41.8209ZM11.7284 53.6001H16.442C16.5235 56.5367 17.1046 59.4379 18.1604 62.1793C16.4571 61.4002 14.9761 60.2068 13.8526 58.7082C12.7291 57.2096 11.9988 55.4535 11.7284 53.6001ZM27.4404 62.1793C28.4967 59.438 29.0784 56.5368 29.1604 53.6001H33.8724C33.602 55.4535 32.8717 57.2096 31.7482 58.7082C30.6246 60.2068 29.1437 61.4002 27.4404 62.1793ZM33.8724 50.4001H29.1604C29.0784 47.4634 28.4967 44.5622 27.4404 41.8209C29.1437 42.6 30.6246 43.7934 31.7482 45.292C32.8717 46.7906 33.602 48.5467 33.8724 50.4001Z" fill="black"/>
<path d="M80 19H84V24H80V19Z" fill="#00B0FB"/>
<path d="M78.8002 26.4H85.2002C85.6245 26.4 86.0315 26.2315 86.3316 25.9314C86.6316 25.6314 86.8002 25.2244 86.8002 24.8V18.4C86.8002 17.9757 86.6316 17.5687 86.3316 17.2687C86.0315 16.9686 85.6245 16.8 85.2002 16.8H78.8002C78.3758 16.8 77.9689 16.9686 77.6688 17.2687C77.3688 17.5687 77.2002 17.9757 77.2002 18.4V24.8C77.2002 25.2244 77.3688 25.6314 77.6688 25.9314C77.9689 26.2315 78.3758 26.4 78.8002 26.4ZM80.4002 20H83.6002V23.2H80.4002V20Z" fill="black"/>
<path d="M83.5996 37.6001H61.1996C60.7753 37.6001 60.3683 37.7687 60.0682 38.0687C59.7682 38.3688 59.5996 38.7758 59.5996 39.2001C59.5996 39.6244 59.7682 40.0314 60.0682 40.3315C60.3683 40.6315 60.7753 40.8001 61.1996 40.8001H83.5996C84.024 40.8001 84.4309 40.6315 84.731 40.3315C85.031 40.0314 85.1996 39.6244 85.1996 39.2001C85.1996 38.7758 85.031 38.3688 84.731 38.0687C84.4309 37.7687 84.024 37.6001 83.5996 37.6001Z" fill="black"/>
<path d="M83.5996 44H61.1996C60.7753 44 60.3683 44.1686 60.0682 44.4686C59.7682 44.7687 59.5996 45.1757 59.5996 45.6C59.5996 46.0243 59.7682 46.4313 60.0682 46.7314C60.3683 47.0314 60.7753 47.2 61.1996 47.2H83.5996C84.024 47.2 84.4309 47.0314 84.731 46.7314C85.031 46.4313 85.1996 46.0243 85.1996 45.6C85.1996 45.1757 85.031 44.7687 84.731 44.4686C84.4309 44.1686 84.024 44 83.5996 44Z" fill="black"/>
<path d="M83.5996 50.3999H61.1996C60.7753 50.3999 60.3683 50.5685 60.0682 50.8685C59.7682 51.1686 59.5996 51.5756 59.5996 51.9999C59.5996 52.4242 59.7682 52.8312 60.0682 53.1313C60.3683 53.4313 60.7753 53.5999 61.1996 53.5999H83.5996C84.024 53.5999 84.4309 53.4313 84.731 53.1313C85.031 52.8312 85.1996 52.4242 85.1996 51.9999C85.1996 51.5756 85.031 51.1686 84.731 50.8685C84.4309 50.5685 84.024 50.3999 83.5996 50.3999Z" fill="black"/>
<path d="M67.6004 56.8H42.0004C41.576 56.8 41.1691 56.9686 40.869 57.2687C40.569 57.5687 40.4004 57.9757 40.4004 58.4C40.4004 58.8244 40.569 59.2314 40.869 59.5314C41.1691 59.8315 41.576 60 42.0004 60H67.6004C68.0247 60 68.4317 59.8315 68.7318 59.5314C69.0318 59.2314 69.2004 58.8244 69.2004 58.4C69.2004 57.9757 69.0318 57.5687 68.7318 57.2687C68.4317 56.9686 68.0247 56.8 67.6004 56.8Z" fill="black"/>
<path d="M67.6004 63.2H42.0004C41.576 63.2 41.1691 63.3685 40.869 63.6686C40.569 63.9686 40.4004 64.3756 40.4004 64.8C40.4004 65.2243 40.569 65.6313 40.869 65.9313C41.1691 66.2314 41.576 66.4 42.0004 66.4H67.6004C68.0247 66.4 68.4317 66.2314 68.7318 65.9313C69.0318 65.6313 69.2004 65.2243 69.2004 64.8C69.2004 64.3756 69.0318 63.9686 68.7318 63.6686C68.4317 63.3685 68.0247 63.2 67.6004 63.2Z" fill="black"/>
<path d="M43 40H54V51H43V40Z" fill="#00B0FB"/>
<path d="M42.0004 37.6001C41.576 37.6001 41.1691 37.7687 40.869 38.0687C40.569 38.3688 40.4004 38.7758 40.4004 39.2001V52.0001C40.4004 52.4244 40.569 52.8314 40.869 53.1315C41.1691 53.4315 41.576 53.6001 42.0004 53.6001H54.8004C55.2247 53.6001 55.6317 53.4315 55.9318 53.1315C56.2318 52.8314 56.4004 52.4244 56.4004 52.0001V39.2001C56.4004 38.7758 56.2318 38.3688 55.9318 38.0687C55.6317 37.7687 55.2247 37.6001 54.8004 37.6001H42.0004ZM53.2004 50.4001H43.6004V40.8001H53.2004V50.4001Z" fill="black"/>
<path d="M76 60H95V85L85.5 80.5L76 85V60Z" fill="#00B0FB" fill-opacity="0.5"/>
<path d="M96.4004 56.8H74.0004C73.576 56.8 73.1691 56.9686 72.869 57.2687C72.569 57.5687 72.4004 57.9757 72.4004 58.4V87.2C72.4004 87.4648 72.4662 87.7254 72.5917 87.9586C72.7172 88.1917 72.8987 88.39 73.1197 88.5357C73.3408 88.6814 73.5946 88.77 73.8583 88.7935C74.122 88.8171 74.3874 88.7748 74.6308 88.6704L85.2004 84.1409L95.77 88.6704C96.0133 88.7748 96.2788 88.8171 96.5425 88.7935C96.8062 88.77 97.06 88.6814 97.281 88.5357C97.5021 88.39 97.6835 88.1917 97.8091 87.9586C97.9346 87.7254 98.0004 87.4648 98.0004 87.2V58.4C98.0004 57.9757 97.8318 57.5687 97.5318 57.2687C97.2317 56.9686 96.8247 56.8 96.4004 56.8ZM94.8004 84.7729L85.8308 80.9328C85.6316 80.8475 85.4171 80.8034 85.2004 80.8034C84.9837 80.8034 84.7692 80.8475 84.57 80.9328L75.6004 84.7729V60H94.8004V84.7729Z" fill="black"/>
<path d="M96.4004 56.55H74.0004C73.5097 56.55 73.0392 56.745 72.6922 57.0919C72.3453 57.4388 72.1504 57.9094 72.1504 58.4V87.2C72.1504 87.5062 72.2264 87.8076 72.3716 88.0771C72.5168 88.3466 72.7265 88.5759 72.9821 88.7444C73.2377 88.9129 73.5311 89.0154 73.8361 89.0426C74.141 89.0698 74.4479 89.0208 74.7293 88.9002L85.2004 84.4128L95.6715 88.9002C95.9529 89.0208 96.2598 89.0698 96.5647 89.0426C96.8696 89.0154 97.163 88.9129 97.4186 88.7444C97.6742 88.5759 97.884 88.3466 98.0292 88.0771C98.1744 87.8076 98.2504 87.5062 98.2504 87.2001V58.4C98.2504 57.9094 98.0555 57.4388 97.7085 57.0919C97.3616 56.745 96.891 56.55 96.4004 56.55Z" stroke="black" stroke-width="0.5"/>
</svg>
