<svg width="116" height="102" viewBox="0 0 116 102" fill="none" xmlns="http://www.w3.org/2000/svg">
<mask id="path-1-outside-1_173_683" maskUnits="userSpaceOnUse" x="0" y="0" width="116" height="102" fill="black">
<rect fill="white" width="116" height="102"/>
<path fill-rule="evenodd" clip-rule="evenodd" d="M4.69612 101C3.71636 100.998 2.77721 100.608 2.08441 99.9156C1.39162 99.2228 1.00167 98.2836 1 97.3039V4.69612C1.00167 3.71636 1.39162 2.77721 2.08441 2.08441C2.77721 1.39162 3.71636 1.00167 4.69612 1H111.07C112.049 1.00167 112.988 1.39162 113.681 2.08441C114.374 2.77721 114.764 3.71636 114.766 4.69612V97.3039C114.764 98.2836 114.374 99.2228 113.681 99.9156C112.988 100.608 112.049 100.998 111.07 101H4.69612ZM111.319 27.0523H4.4471V97.3039C4.4471 97.3709 4.47373 97.4352 4.52115 97.4826C4.56856 97.5301 4.63286 97.5567 4.69991 97.5567H111.07C111.135 97.5558 111.197 97.5295 111.244 97.4834C111.291 97.4371 111.317 97.3746 111.319 97.3089V27.0561V27.0523ZM4.4471 23.609H111.319V4.69612C111.319 4.66292 111.312 4.63004 111.299 4.59937C111.287 4.5687 111.268 4.54083 111.244 4.51735C111.221 4.49388 111.193 4.47526 111.162 4.46255C111.132 4.44985 111.099 4.44331 111.066 4.44331H4.69612C4.62907 4.44331 4.56476 4.46994 4.51735 4.51735C4.46994 4.56477 4.44331 4.62907 4.44331 4.69612V23.609H4.4471ZM12.2502 16.0676H12.503C12.952 16.0555 13.3786 15.8685 13.6919 15.5466C14.0052 15.2247 14.1805 14.7933 14.1805 14.3441C14.1805 13.8949 14.0052 13.4634 13.6919 13.1415C13.3786 12.8196 12.952 12.6327 12.503 12.6205H12.2502C12.0199 12.6143 11.7907 12.6543 11.5761 12.7381C11.3616 12.8219 11.166 12.9478 11.0009 13.1085C10.8358 13.2692 10.7046 13.4613 10.615 13.6735C10.5255 13.8857 10.4793 14.1137 10.4793 14.3441C10.4793 14.5744 10.5255 14.8024 10.615 15.0147C10.7046 15.2269 10.8358 15.419 11.0009 15.5797C11.166 15.7403 11.3616 15.8663 11.5761 15.9501C11.7907 16.0339 12.0199 16.0739 12.2502 16.0676ZM38.3859 16.0676H103.515C103.746 16.0739 103.975 16.0339 104.189 15.9501C104.404 15.8663 104.6 15.7403 104.765 15.5797C104.93 15.419 105.061 15.2269 105.151 15.0147C105.24 14.8024 105.286 14.5744 105.286 14.3441C105.286 14.1137 105.24 13.8857 105.151 13.6735C105.061 13.4613 104.93 13.2692 104.765 13.1085C104.6 12.9478 104.404 12.8219 104.189 12.7381C103.975 12.6543 103.746 12.6143 103.515 12.6205H38.391C37.9419 12.6327 37.5154 12.8196 37.2021 13.1415C36.8888 13.4634 36.7135 13.8949 36.7135 14.3441C36.7135 14.7933 36.8888 15.2247 37.2021 15.5466C37.5154 15.8685 37.9419 16.0555 38.391 16.0676H38.3859ZM20.2138 16.0676H20.4666C20.6968 16.0739 20.926 16.0339 21.1406 15.9501C21.3551 15.8663 21.5507 15.7403 21.7158 15.5797C21.8809 15.419 22.0121 15.2269 22.1017 15.0147C22.1913 14.8024 22.2374 14.5744 22.2374 14.3441C22.2374 14.1137 22.1913 13.8857 22.1017 13.6735C22.0121 13.4613 21.8809 13.2692 21.7158 13.1085C21.5507 12.9478 21.3551 12.8219 21.1406 12.7381C20.926 12.6543 20.6968 12.6143 20.4666 12.6205H20.2138C19.9835 12.6143 19.7543 12.6543 19.5397 12.7381C19.3252 12.8219 19.1296 12.9478 18.9645 13.1085C18.7994 13.2692 18.6682 13.4613 18.5786 13.6735C18.489 13.8857 18.4429 14.1137 18.4429 14.3441C18.4429 14.5744 18.489 14.8024 18.5786 15.0147C18.6682 15.2269 18.7994 15.419 18.9645 15.5797C19.1296 15.7403 19.3252 15.8663 19.5397 15.9501C19.7543 16.0339 19.9835 16.0739 20.2138 16.0676ZM28.1773 16.0676H28.4302C28.6604 16.0739 28.8896 16.0339 29.1042 15.9501C29.3187 15.8663 29.5143 15.7403 29.6794 15.5797C29.8445 15.419 29.9757 15.2269 30.0653 15.0147C30.1549 14.8024 30.201 14.5744 30.201 14.3441C30.201 14.1137 30.1549 13.8857 30.0653 13.6735C29.9757 13.4613 29.8445 13.2692 29.6794 13.1085C29.5143 12.9478 29.3187 12.8219 29.1042 12.7381C28.8896 12.6543 28.6604 12.6143 28.4302 12.6205H28.1773C27.9471 12.6143 27.7179 12.6543 27.5033 12.7381C27.2888 12.8219 27.0932 12.9478 26.9281 13.1085C26.763 13.2692 26.6318 13.4613 26.5422 13.6735C26.4526 13.8857 26.4065 14.1137 26.4065 14.3441C26.4065 14.5744 26.4526 14.8024 26.5422 15.0147C26.6318 15.2269 26.763 15.419 26.9281 15.5797C27.0932 15.7403 27.2888 15.8663 27.5033 15.9501C27.7179 16.0339 27.9471 16.0739 28.1773 16.0676ZM60.4678 36.3697C59.8698 35.7717 59.0829 35.3995 58.2412 35.3166C57.3995 35.2337 56.5551 35.4451 55.8519 35.915C55.1487 36.3849 54.6301 37.084 54.3846 37.8933C54.1391 38.7027 54.1817 39.5721 54.5054 40.3535C54.829 41.1349 55.4136 41.7799 56.1595 42.1786C56.9053 42.5773 57.7664 42.705 58.5959 42.5401C59.4254 42.3751 60.1721 41.9276 60.7086 41.2738C61.2452 40.6201 61.5385 39.8005 61.5385 38.9547C61.5391 38.4746 61.4449 37.999 61.2611 37.5554C61.0774 37.1118 60.8078 36.7088 60.4678 36.3697ZM57.8828 31.852C56.2393 31.8511 54.6462 32.4202 53.3752 33.4622C52.1042 34.5042 51.2338 35.9547 50.9124 37.5666C50.5909 39.1784 50.8383 40.8518 51.6123 42.3017C52.3863 43.7516 53.6392 44.8882 55.1573 45.5179C56.6754 46.1476 58.365 46.2315 59.938 45.7552C61.511 45.2789 62.8702 44.2718 63.784 42.9057C64.6978 41.5396 65.1096 39.8989 64.9493 38.2632C64.7891 36.6274 64.0665 35.0979 62.9049 33.9352C62.2464 33.2741 61.4637 32.7497 60.6019 32.3922C59.74 32.0347 58.8159 31.8511 57.8828 31.852ZM66.3735 54.7492H77.1749C77.3517 54.7433 77.5252 54.6996 77.6837 54.6211C77.8422 54.5426 77.982 54.4311 78.0939 54.2941C78.4114 53.9002 78.5845 53.4096 78.5845 52.9037C78.5845 52.3978 78.4114 51.9071 78.0939 51.5132C77.982 51.3762 77.8422 51.2647 77.6837 51.1862C77.5252 51.1077 77.3517 51.0641 77.1749 51.0581H37.5314C37.3546 51.0641 37.1812 51.1077 37.0227 51.1862C36.8642 51.2647 36.7243 51.3762 36.6124 51.5132C36.295 51.9071 36.1219 52.3978 36.1219 52.9037C36.1219 53.4096 36.295 53.9002 36.6124 54.2941C36.7243 54.4311 36.8642 54.5426 37.0227 54.6211C37.1812 54.6996 37.3546 54.7433 37.5314 54.7492H49.4629C49.9202 54.7492 50.3587 54.9309 50.6821 55.2542C51.0054 55.5776 51.1871 56.0161 51.1871 56.4734V87.2015C51.2032 87.5755 51.3415 87.9339 51.5807 88.2218C51.82 88.5097 52.1471 88.7112 52.5118 88.7955C53.2824 89.0348 54.1075 89.0348 54.8781 88.7955C55.242 88.7103 55.5679 88.5083 55.8062 88.2205C56.0445 87.9327 56.182 87.5748 56.1978 87.2015V71.2174C56.1916 70.9872 56.2316 70.758 56.3154 70.5434C56.3992 70.3288 56.5251 70.1332 56.6858 69.9682C56.8465 69.8031 57.0386 69.6719 57.2508 69.5823C57.463 69.4927 57.691 69.4466 57.9214 69.4466C58.1517 69.4466 58.3797 69.4927 58.592 69.5823C58.8042 69.6719 58.9963 69.8031 59.1569 69.9682C59.3176 70.1332 59.4436 70.3288 59.5274 70.5434C59.6112 70.758 59.6512 70.9872 59.6449 71.2174V87.2015C59.6607 87.5748 59.7983 87.9327 60.0366 88.2205C60.2749 88.5083 60.6008 88.7103 60.9646 88.7955C61.7352 89.0348 62.5603 89.0348 63.3309 88.7955C63.6947 88.7103 64.0207 88.5083 64.259 88.2205C64.4972 87.9327 64.6348 87.5748 64.6506 87.2015V56.4734C64.6506 56.0163 64.8321 55.578 65.1552 55.2547C65.4782 54.9313 65.9165 54.7495 66.3735 54.7492ZM47.7438 58.1976V87.2015C47.7341 88.3031 48.0897 89.3768 48.755 90.2548C49.4203 91.1328 50.3578 91.7656 51.4209 92.0542C52.8981 92.5453 54.4944 92.5453 55.9716 92.0542C56.6826 91.8226 57.3444 91.4608 57.9233 90.9874C58.5026 91.4608 59.1648 91.8226 59.8762 92.0542C61.3534 92.5453 62.9497 92.5453 64.4269 92.0542C65.4898 91.7654 66.427 91.1325 67.092 90.2545C67.7571 89.3765 68.1125 88.3029 68.1028 87.2015V58.1976H77.18C77.8478 58.1913 78.5064 58.0413 79.1111 57.7578C79.7157 57.4742 80.2522 57.0637 80.684 56.5543C81.556 55.5381 82.0354 54.2433 82.0354 52.9043C82.0354 51.5653 81.556 50.2705 80.684 49.2543C80.252 48.7451 79.7155 48.3348 79.1109 48.0512C78.5063 47.7677 77.8478 47.6175 77.18 47.611H37.5314C36.8637 47.6175 36.2051 47.7677 35.6005 48.0512C34.9959 48.3348 34.4594 48.7451 34.0274 49.2543C33.1554 50.2705 32.676 51.5653 32.676 52.9043C32.676 54.2433 33.1554 55.5381 34.0274 56.5543C34.4592 57.0637 34.9957 57.4742 35.6004 57.7578C36.205 58.0413 36.8636 58.1913 37.5314 58.1976H47.7438Z"/>
</mask>
<path fill-rule="evenodd" clip-rule="evenodd" d="M4.69612 101C3.71636 100.998 2.77721 100.608 2.08441 99.9156C1.39162 99.2228 1.00167 98.2836 1 97.3039V4.69612C1.00167 3.71636 1.39162 2.77721 2.08441 2.08441C2.77721 1.39162 3.71636 1.00167 4.69612 1H111.07C112.049 1.00167 112.988 1.39162 113.681 2.08441C114.374 2.77721 114.764 3.71636 114.766 4.69612V97.3039C114.764 98.2836 114.374 99.2228 113.681 99.9156C112.988 100.608 112.049 100.998 111.07 101H4.69612ZM111.319 27.0523H4.4471V97.3039C4.4471 97.3709 4.47373 97.4352 4.52115 97.4826C4.56856 97.5301 4.63286 97.5567 4.69991 97.5567H111.07C111.135 97.5558 111.197 97.5295 111.244 97.4834C111.291 97.4371 111.317 97.3746 111.319 97.3089V27.0561V27.0523ZM4.4471 23.609H111.319V4.69612C111.319 4.66292 111.312 4.63004 111.299 4.59937C111.287 4.5687 111.268 4.54083 111.244 4.51735C111.221 4.49388 111.193 4.47526 111.162 4.46255C111.132 4.44985 111.099 4.44331 111.066 4.44331H4.69612C4.62907 4.44331 4.56476 4.46994 4.51735 4.51735C4.46994 4.56477 4.44331 4.62907 4.44331 4.69612V23.609H4.4471ZM12.2502 16.0676H12.503C12.952 16.0555 13.3786 15.8685 13.6919 15.5466C14.0052 15.2247 14.1805 14.7933 14.1805 14.3441C14.1805 13.8949 14.0052 13.4634 13.6919 13.1415C13.3786 12.8196 12.952 12.6327 12.503 12.6205H12.2502C12.0199 12.6143 11.7907 12.6543 11.5761 12.7381C11.3616 12.8219 11.166 12.9478 11.0009 13.1085C10.8358 13.2692 10.7046 13.4613 10.615 13.6735C10.5255 13.8857 10.4793 14.1137 10.4793 14.3441C10.4793 14.5744 10.5255 14.8024 10.615 15.0147C10.7046 15.2269 10.8358 15.419 11.0009 15.5797C11.166 15.7403 11.3616 15.8663 11.5761 15.9501C11.7907 16.0339 12.0199 16.0739 12.2502 16.0676ZM38.3859 16.0676H103.515C103.746 16.0739 103.975 16.0339 104.189 15.9501C104.404 15.8663 104.6 15.7403 104.765 15.5797C104.93 15.419 105.061 15.2269 105.151 15.0147C105.24 14.8024 105.286 14.5744 105.286 14.3441C105.286 14.1137 105.24 13.8857 105.151 13.6735C105.061 13.4613 104.93 13.2692 104.765 13.1085C104.6 12.9478 104.404 12.8219 104.189 12.7381C103.975 12.6543 103.746 12.6143 103.515 12.6205H38.391C37.9419 12.6327 37.5154 12.8196 37.2021 13.1415C36.8888 13.4634 36.7135 13.8949 36.7135 14.3441C36.7135 14.7933 36.8888 15.2247 37.2021 15.5466C37.5154 15.8685 37.9419 16.0555 38.391 16.0676H38.3859ZM20.2138 16.0676H20.4666C20.6968 16.0739 20.926 16.0339 21.1406 15.9501C21.3551 15.8663 21.5507 15.7403 21.7158 15.5797C21.8809 15.419 22.0121 15.2269 22.1017 15.0147C22.1913 14.8024 22.2374 14.5744 22.2374 14.3441C22.2374 14.1137 22.1913 13.8857 22.1017 13.6735C22.0121 13.4613 21.8809 13.2692 21.7158 13.1085C21.5507 12.9478 21.3551 12.8219 21.1406 12.7381C20.926 12.6543 20.6968 12.6143 20.4666 12.6205H20.2138C19.9835 12.6143 19.7543 12.6543 19.5397 12.7381C19.3252 12.8219 19.1296 12.9478 18.9645 13.1085C18.7994 13.2692 18.6682 13.4613 18.5786 13.6735C18.489 13.8857 18.4429 14.1137 18.4429 14.3441C18.4429 14.5744 18.489 14.8024 18.5786 15.0147C18.6682 15.2269 18.7994 15.419 18.9645 15.5797C19.1296 15.7403 19.3252 15.8663 19.5397 15.9501C19.7543 16.0339 19.9835 16.0739 20.2138 16.0676ZM28.1773 16.0676H28.4302C28.6604 16.0739 28.8896 16.0339 29.1042 15.9501C29.3187 15.8663 29.5143 15.7403 29.6794 15.5797C29.8445 15.419 29.9757 15.2269 30.0653 15.0147C30.1549 14.8024 30.201 14.5744 30.201 14.3441C30.201 14.1137 30.1549 13.8857 30.0653 13.6735C29.9757 13.4613 29.8445 13.2692 29.6794 13.1085C29.5143 12.9478 29.3187 12.8219 29.1042 12.7381C28.8896 12.6543 28.6604 12.6143 28.4302 12.6205H28.1773C27.9471 12.6143 27.7179 12.6543 27.5033 12.7381C27.2888 12.8219 27.0932 12.9478 26.9281 13.1085C26.763 13.2692 26.6318 13.4613 26.5422 13.6735C26.4526 13.8857 26.4065 14.1137 26.4065 14.3441C26.4065 14.5744 26.4526 14.8024 26.5422 15.0147C26.6318 15.2269 26.763 15.419 26.9281 15.5797C27.0932 15.7403 27.2888 15.8663 27.5033 15.9501C27.7179 16.0339 27.9471 16.0739 28.1773 16.0676ZM60.4678 36.3697C59.8698 35.7717 59.0829 35.3995 58.2412 35.3166C57.3995 35.2337 56.5551 35.4451 55.8519 35.915C55.1487 36.3849 54.6301 37.084 54.3846 37.8933C54.1391 38.7027 54.1817 39.5721 54.5054 40.3535C54.829 41.1349 55.4136 41.7799 56.1595 42.1786C56.9053 42.5773 57.7664 42.705 58.5959 42.5401C59.4254 42.3751 60.1721 41.9276 60.7086 41.2738C61.2452 40.6201 61.5385 39.8005 61.5385 38.9547C61.5391 38.4746 61.4449 37.999 61.2611 37.5554C61.0774 37.1118 60.8078 36.7088 60.4678 36.3697ZM57.8828 31.852C56.2393 31.8511 54.6462 32.4202 53.3752 33.4622C52.1042 34.5042 51.2338 35.9547 50.9124 37.5666C50.5909 39.1784 50.8383 40.8518 51.6123 42.3017C52.3863 43.7516 53.6392 44.8882 55.1573 45.5179C56.6754 46.1476 58.365 46.2315 59.938 45.7552C61.511 45.2789 62.8702 44.2718 63.784 42.9057C64.6978 41.5396 65.1096 39.8989 64.9493 38.2632C64.7891 36.6274 64.0665 35.0979 62.9049 33.9352C62.2464 33.2741 61.4637 32.7497 60.6019 32.3922C59.74 32.0347 58.8159 31.8511 57.8828 31.852ZM66.3735 54.7492H77.1749C77.3517 54.7433 77.5252 54.6996 77.6837 54.6211C77.8422 54.5426 77.982 54.4311 78.0939 54.2941C78.4114 53.9002 78.5845 53.4096 78.5845 52.9037C78.5845 52.3978 78.4114 51.9071 78.0939 51.5132C77.982 51.3762 77.8422 51.2647 77.6837 51.1862C77.5252 51.1077 77.3517 51.0641 77.1749 51.0581H37.5314C37.3546 51.0641 37.1812 51.1077 37.0227 51.1862C36.8642 51.2647 36.7243 51.3762 36.6124 51.5132C36.295 51.9071 36.1219 52.3978 36.1219 52.9037C36.1219 53.4096 36.295 53.9002 36.6124 54.2941C36.7243 54.4311 36.8642 54.5426 37.0227 54.6211C37.1812 54.6996 37.3546 54.7433 37.5314 54.7492H49.4629C49.9202 54.7492 50.3587 54.9309 50.6821 55.2542C51.0054 55.5776 51.1871 56.0161 51.1871 56.4734V87.2015C51.2032 87.5755 51.3415 87.9339 51.5807 88.2218C51.82 88.5097 52.1471 88.7112 52.5118 88.7955C53.2824 89.0348 54.1075 89.0348 54.8781 88.7955C55.242 88.7103 55.5679 88.5083 55.8062 88.2205C56.0445 87.9327 56.182 87.5748 56.1978 87.2015V71.2174C56.1916 70.9872 56.2316 70.758 56.3154 70.5434C56.3992 70.3288 56.5251 70.1332 56.6858 69.9682C56.8465 69.8031 57.0386 69.6719 57.2508 69.5823C57.463 69.4927 57.691 69.4466 57.9214 69.4466C58.1517 69.4466 58.3797 69.4927 58.592 69.5823C58.8042 69.6719 58.9963 69.8031 59.1569 69.9682C59.3176 70.1332 59.4436 70.3288 59.5274 70.5434C59.6112 70.758 59.6512 70.9872 59.6449 71.2174V87.2015C59.6607 87.5748 59.7983 87.9327 60.0366 88.2205C60.2749 88.5083 60.6008 88.7103 60.9646 88.7955C61.7352 89.0348 62.5603 89.0348 63.3309 88.7955C63.6947 88.7103 64.0207 88.5083 64.259 88.2205C64.4972 87.9327 64.6348 87.5748 64.6506 87.2015V56.4734C64.6506 56.0163 64.8321 55.578 65.1552 55.2547C65.4782 54.9313 65.9165 54.7495 66.3735 54.7492ZM47.7438 58.1976V87.2015C47.7341 88.3031 48.0897 89.3768 48.755 90.2548C49.4203 91.1328 50.3578 91.7656 51.4209 92.0542C52.8981 92.5453 54.4944 92.5453 55.9716 92.0542C56.6826 91.8226 57.3444 91.4608 57.9233 90.9874C58.5026 91.4608 59.1648 91.8226 59.8762 92.0542C61.3534 92.5453 62.9497 92.5453 64.4269 92.0542C65.4898 91.7654 66.427 91.1325 67.092 90.2545C67.7571 89.3765 68.1125 88.3029 68.1028 87.2015V58.1976H77.18C77.8478 58.1913 78.5064 58.0413 79.1111 57.7578C79.7157 57.4742 80.2522 57.0637 80.684 56.5543C81.556 55.5381 82.0354 54.2433 82.0354 52.9043C82.0354 51.5653 81.556 50.2705 80.684 49.2543C80.252 48.7451 79.7155 48.3348 79.1109 48.0512C78.5063 47.7677 77.8478 47.6175 77.18 47.611H37.5314C36.8637 47.6175 36.2051 47.7677 35.6005 48.0512C34.9959 48.3348 34.4594 48.7451 34.0274 49.2543C33.1554 50.2705 32.676 51.5653 32.676 52.9043C32.676 54.2433 33.1554 55.5381 34.0274 56.5543C34.4592 57.0637 34.9957 57.4742 35.6004 57.7578C36.205 58.0413 36.8636 58.1913 37.5314 58.1976H47.7438Z" fill="#3C7CFF"/>
<path fill-rule="evenodd" clip-rule="evenodd" d="M4.69612 101C3.71636 100.998 2.77721 100.608 2.08441 99.9156C1.39162 99.2228 1.00167 98.2836 1 97.3039V4.69612C1.00167 3.71636 1.39162 2.77721 2.08441 2.08441C2.77721 1.39162 3.71636 1.00167 4.69612 1H111.07C112.049 1.00167 112.988 1.39162 113.681 2.08441C114.374 2.77721 114.764 3.71636 114.766 4.69612V97.3039C114.764 98.2836 114.374 99.2228 113.681 99.9156C112.988 100.608 112.049 100.998 111.07 101H4.69612ZM111.319 27.0523H4.4471V97.3039C4.4471 97.3709 4.47373 97.4352 4.52115 97.4826C4.56856 97.5301 4.63286 97.5567 4.69991 97.5567H111.07C111.135 97.5558 111.197 97.5295 111.244 97.4834C111.291 97.4371 111.317 97.3746 111.319 97.3089V27.0561V27.0523ZM4.4471 23.609H111.319V4.69612C111.319 4.66292 111.312 4.63004 111.299 4.59937C111.287 4.5687 111.268 4.54083 111.244 4.51735C111.221 4.49388 111.193 4.47526 111.162 4.46255C111.132 4.44985 111.099 4.44331 111.066 4.44331H4.69612C4.62907 4.44331 4.56476 4.46994 4.51735 4.51735C4.46994 4.56477 4.44331 4.62907 4.44331 4.69612V23.609H4.4471ZM12.2502 16.0676H12.503C12.952 16.0555 13.3786 15.8685 13.6919 15.5466C14.0052 15.2247 14.1805 14.7933 14.1805 14.3441C14.1805 13.8949 14.0052 13.4634 13.6919 13.1415C13.3786 12.8196 12.952 12.6327 12.503 12.6205H12.2502C12.0199 12.6143 11.7907 12.6543 11.5761 12.7381C11.3616 12.8219 11.166 12.9478 11.0009 13.1085C10.8358 13.2692 10.7046 13.4613 10.615 13.6735C10.5255 13.8857 10.4793 14.1137 10.4793 14.3441C10.4793 14.5744 10.5255 14.8024 10.615 15.0147C10.7046 15.2269 10.8358 15.419 11.0009 15.5797C11.166 15.7403 11.3616 15.8663 11.5761 15.9501C11.7907 16.0339 12.0199 16.0739 12.2502 16.0676ZM38.3859 16.0676H103.515C103.746 16.0739 103.975 16.0339 104.189 15.9501C104.404 15.8663 104.6 15.7403 104.765 15.5797C104.93 15.419 105.061 15.2269 105.151 15.0147C105.24 14.8024 105.286 14.5744 105.286 14.3441C105.286 14.1137 105.24 13.8857 105.151 13.6735C105.061 13.4613 104.93 13.2692 104.765 13.1085C104.6 12.9478 104.404 12.8219 104.189 12.7381C103.975 12.6543 103.746 12.6143 103.515 12.6205H38.391C37.9419 12.6327 37.5154 12.8196 37.2021 13.1415C36.8888 13.4634 36.7135 13.8949 36.7135 14.3441C36.7135 14.7933 36.8888 15.2247 37.2021 15.5466C37.5154 15.8685 37.9419 16.0555 38.391 16.0676H38.3859ZM20.2138 16.0676H20.4666C20.6968 16.0739 20.926 16.0339 21.1406 15.9501C21.3551 15.8663 21.5507 15.7403 21.7158 15.5797C21.8809 15.419 22.0121 15.2269 22.1017 15.0147C22.1913 14.8024 22.2374 14.5744 22.2374 14.3441C22.2374 14.1137 22.1913 13.8857 22.1017 13.6735C22.0121 13.4613 21.8809 13.2692 21.7158 13.1085C21.5507 12.9478 21.3551 12.8219 21.1406 12.7381C20.926 12.6543 20.6968 12.6143 20.4666 12.6205H20.2138C19.9835 12.6143 19.7543 12.6543 19.5397 12.7381C19.3252 12.8219 19.1296 12.9478 18.9645 13.1085C18.7994 13.2692 18.6682 13.4613 18.5786 13.6735C18.489 13.8857 18.4429 14.1137 18.4429 14.3441C18.4429 14.5744 18.489 14.8024 18.5786 15.0147C18.6682 15.2269 18.7994 15.419 18.9645 15.5797C19.1296 15.7403 19.3252 15.8663 19.5397 15.9501C19.7543 16.0339 19.9835 16.0739 20.2138 16.0676ZM28.1773 16.0676H28.4302C28.6604 16.0739 28.8896 16.0339 29.1042 15.9501C29.3187 15.8663 29.5143 15.7403 29.6794 15.5797C29.8445 15.419 29.9757 15.2269 30.0653 15.0147C30.1549 14.8024 30.201 14.5744 30.201 14.3441C30.201 14.1137 30.1549 13.8857 30.0653 13.6735C29.9757 13.4613 29.8445 13.2692 29.6794 13.1085C29.5143 12.9478 29.3187 12.8219 29.1042 12.7381C28.8896 12.6543 28.6604 12.6143 28.4302 12.6205H28.1773C27.9471 12.6143 27.7179 12.6543 27.5033 12.7381C27.2888 12.8219 27.0932 12.9478 26.9281 13.1085C26.763 13.2692 26.6318 13.4613 26.5422 13.6735C26.4526 13.8857 26.4065 14.1137 26.4065 14.3441C26.4065 14.5744 26.4526 14.8024 26.5422 15.0147C26.6318 15.2269 26.763 15.419 26.9281 15.5797C27.0932 15.7403 27.2888 15.8663 27.5033 15.9501C27.7179 16.0339 27.9471 16.0739 28.1773 16.0676ZM60.4678 36.3697C59.8698 35.7717 59.0829 35.3995 58.2412 35.3166C57.3995 35.2337 56.5551 35.4451 55.8519 35.915C55.1487 36.3849 54.6301 37.084 54.3846 37.8933C54.1391 38.7027 54.1817 39.5721 54.5054 40.3535C54.829 41.1349 55.4136 41.7799 56.1595 42.1786C56.9053 42.5773 57.7664 42.705 58.5959 42.5401C59.4254 42.3751 60.1721 41.9276 60.7086 41.2738C61.2452 40.6201 61.5385 39.8005 61.5385 38.9547C61.5391 38.4746 61.4449 37.999 61.2611 37.5554C61.0774 37.1118 60.8078 36.7088 60.4678 36.3697ZM57.8828 31.852C56.2393 31.8511 54.6462 32.4202 53.3752 33.4622C52.1042 34.5042 51.2338 35.9547 50.9124 37.5666C50.5909 39.1784 50.8383 40.8518 51.6123 42.3017C52.3863 43.7516 53.6392 44.8882 55.1573 45.5179C56.6754 46.1476 58.365 46.2315 59.938 45.7552C61.511 45.2789 62.8702 44.2718 63.784 42.9057C64.6978 41.5396 65.1096 39.8989 64.9493 38.2632C64.7891 36.6274 64.0665 35.0979 62.9049 33.9352C62.2464 33.2741 61.4637 32.7497 60.6019 32.3922C59.74 32.0347 58.8159 31.8511 57.8828 31.852ZM66.3735 54.7492H77.1749C77.3517 54.7433 77.5252 54.6996 77.6837 54.6211C77.8422 54.5426 77.982 54.4311 78.0939 54.2941C78.4114 53.9002 78.5845 53.4096 78.5845 52.9037C78.5845 52.3978 78.4114 51.9071 78.0939 51.5132C77.982 51.3762 77.8422 51.2647 77.6837 51.1862C77.5252 51.1077 77.3517 51.0641 77.1749 51.0581H37.5314C37.3546 51.0641 37.1812 51.1077 37.0227 51.1862C36.8642 51.2647 36.7243 51.3762 36.6124 51.5132C36.295 51.9071 36.1219 52.3978 36.1219 52.9037C36.1219 53.4096 36.295 53.9002 36.6124 54.2941C36.7243 54.4311 36.8642 54.5426 37.0227 54.6211C37.1812 54.6996 37.3546 54.7433 37.5314 54.7492H49.4629C49.9202 54.7492 50.3587 54.9309 50.6821 55.2542C51.0054 55.5776 51.1871 56.0161 51.1871 56.4734V87.2015C51.2032 87.5755 51.3415 87.9339 51.5807 88.2218C51.82 88.5097 52.1471 88.7112 52.5118 88.7955C53.2824 89.0348 54.1075 89.0348 54.8781 88.7955C55.242 88.7103 55.5679 88.5083 55.8062 88.2205C56.0445 87.9327 56.182 87.5748 56.1978 87.2015V71.2174C56.1916 70.9872 56.2316 70.758 56.3154 70.5434C56.3992 70.3288 56.5251 70.1332 56.6858 69.9682C56.8465 69.8031 57.0386 69.6719 57.2508 69.5823C57.463 69.4927 57.691 69.4466 57.9214 69.4466C58.1517 69.4466 58.3797 69.4927 58.592 69.5823C58.8042 69.6719 58.9963 69.8031 59.1569 69.9682C59.3176 70.1332 59.4436 70.3288 59.5274 70.5434C59.6112 70.758 59.6512 70.9872 59.6449 71.2174V87.2015C59.6607 87.5748 59.7983 87.9327 60.0366 88.2205C60.2749 88.5083 60.6008 88.7103 60.9646 88.7955C61.7352 89.0348 62.5603 89.0348 63.3309 88.7955C63.6947 88.7103 64.0207 88.5083 64.259 88.2205C64.4972 87.9327 64.6348 87.5748 64.6506 87.2015V56.4734C64.6506 56.0163 64.8321 55.578 65.1552 55.2547C65.4782 54.9313 65.9165 54.7495 66.3735 54.7492ZM47.7438 58.1976V87.2015C47.7341 88.3031 48.0897 89.3768 48.755 90.2548C49.4203 91.1328 50.3578 91.7656 51.4209 92.0542C52.8981 92.5453 54.4944 92.5453 55.9716 92.0542C56.6826 91.8226 57.3444 91.4608 57.9233 90.9874C58.5026 91.4608 59.1648 91.8226 59.8762 92.0542C61.3534 92.5453 62.9497 92.5453 64.4269 92.0542C65.4898 91.7654 66.427 91.1325 67.092 90.2545C67.7571 89.3765 68.1125 88.3029 68.1028 87.2015V58.1976H77.18C77.8478 58.1913 78.5064 58.0413 79.1111 57.7578C79.7157 57.4742 80.2522 57.0637 80.684 56.5543C81.556 55.5381 82.0354 54.2433 82.0354 52.9043C82.0354 51.5653 81.556 50.2705 80.684 49.2543C80.252 48.7451 79.7155 48.3348 79.1109 48.0512C78.5063 47.7677 77.8478 47.6175 77.18 47.611H37.5314C36.8637 47.6175 36.2051 47.7677 35.6005 48.0512C34.9959 48.3348 34.4594 48.7451 34.0274 49.2543C33.1554 50.2705 32.676 51.5653 32.676 52.9043C32.676 54.2433 33.1554 55.5381 34.0274 56.5543C34.4592 57.0637 34.9957 57.4742 35.6004 57.7578C36.205 58.0413 36.8636 58.1913 37.5314 58.1976H47.7438Z" stroke="#3C7CFF" stroke-width="0.6" mask="url(#path-1-outside-1_173_683)"/>
</svg>
