<svg width="100" height="100" viewBox="0 0 100 100" fill="none" xmlns="http://www.w3.org/2000/svg">
<path fill-rule="evenodd" clip-rule="evenodd" d="M45.0305 77.5857H27.5862C26.6337 77.5857 25.8621 76.8141 25.8621 75.8616V72.4133C25.8621 69.5556 28.1768 67.2409 31.0345 67.2409H36.806L35.5733 58.6203H1.72413C0.771548 58.6203 0 57.8487 0 56.8962V1.72413C0 0.771548 0.771548 0 1.72413 0H84.4822C85.4348 0 86.2063 0.771548 86.2063 1.72413V47.422C85.0943 46.9177 83.9391 46.4824 82.7581 46.116V3.44814H3.44825V46.5508H64.2148C61.8225 47.4128 59.5726 48.5766 57.5122 49.999H3.44362V55.1714H51.792C49.3092 58.0937 47.3911 61.5033 46.1972 65.2403L47.1412 58.6196H39.0464L40.2792 67.2403H45.637C45.3654 68.3652 45.1585 69.5161 45.0206 70.6885H31.0245C30.072 70.6885 29.3004 71.4601 29.3004 72.4126V74.1368H44.817C44.817 75.3049 44.886 76.4558 45.0196 77.585L45.0305 77.5857ZM75.8618 11.2071V40.5167C75.8618 41.4693 75.0902 42.2408 74.1377 42.2408H49.9999C49.0473 42.2408 48.2758 41.4693 48.2758 40.5167V11.2071C48.2758 10.2545 49.0473 9.48297 49.9999 9.48297H74.1377C75.0902 9.48297 75.8618 10.2545 75.8618 11.2071ZM72.4135 16.3795V12.9312H51.724V16.3795H72.4135ZM51.724 19.8277V38.7937H72.4135V19.8277H51.724ZM55.1723 25.8622C54.2197 25.8622 53.4481 25.0907 53.4481 24.1381C53.4481 23.1855 54.2197 22.414 55.1723 22.414H68.9653C69.9179 22.414 70.6894 23.1855 70.6894 24.1381C70.6894 25.0907 69.9179 25.8622 68.9653 25.8622H55.1723ZM55.1723 36.207C54.2197 36.207 53.4481 35.4354 53.4481 34.4829C53.4481 33.5303 54.2197 32.7587 55.1723 32.7587H68.9653C69.9179 32.7587 70.6894 33.5303 70.6894 34.4829C70.6894 35.4354 69.9179 36.207 68.9653 36.207H55.1723ZM55.1723 31.0346C54.2197 31.0346 53.4481 30.2631 53.4481 29.3105C53.4481 28.3579 54.2197 27.5864 55.1723 27.5864H68.9653C69.9179 27.5864 70.6894 28.3579 70.6894 29.3105C70.6894 30.2631 69.9179 31.0346 68.9653 31.0346H55.1723ZM28.8364 11.198L29.0864 13.823C29.6123 13.9998 30.1252 14.2153 30.6252 14.4609L32.6553 12.7843C33.2674 12.28 34.1467 12.2541 34.7846 12.7282C36.0604 13.6765 37.1898 14.8058 38.1381 16.0817C38.6122 16.7196 38.5907 17.5989 38.082 18.211L36.4054 20.2411C36.6511 20.7411 36.8623 21.254 37.0433 21.7799L39.6683 22.0299C40.457 22.1031 41.095 22.7109 41.2113 23.4953C41.4398 25.0686 41.4398 26.6677 41.2113 28.2367C41.0949 29.0212 40.457 29.6289 39.6683 29.7022L37.0433 29.9522C36.8666 30.4781 36.651 30.991 36.4054 31.4909L38.082 33.5211C38.5863 34.1331 38.6122 35.0125 38.1381 35.6504C37.1898 36.9262 36.0605 38.0555 34.7846 39.0038C34.1467 39.478 33.2674 39.4564 32.6553 38.9478L30.6252 37.2711C30.1252 37.5168 29.6123 37.728 29.0864 37.909L28.8364 40.534C28.7632 41.3228 28.1554 41.9608 27.371 42.0771C25.7977 42.3055 24.1986 42.3055 22.6296 42.0771C21.8451 41.9607 21.2374 41.3228 21.1641 40.534L20.9141 37.909C20.3883 37.7323 19.8753 37.5168 19.3754 37.2711L17.3453 38.9478C16.7332 39.4521 15.8538 39.478 15.2159 39.0038C13.9401 38.0556 12.8108 36.9263 11.8625 35.6504C11.3883 35.0124 11.4099 34.1331 11.9185 33.5211L13.5952 31.4909C13.3495 30.9909 13.1383 30.478 12.9573 29.9522L10.3323 29.7022C9.54351 29.6289 8.90554 29.0212 8.78924 28.2367C8.56079 26.6634 8.56079 25.0643 8.78924 23.4953C8.90562 22.7109 9.54354 22.1031 10.3323 22.0299L12.9573 21.7799C13.134 21.254 13.3495 20.7411 13.5952 20.2411L11.9185 18.211C11.4142 17.5989 11.3883 16.7196 11.8625 16.0817C12.8108 14.8059 13.94 13.6765 15.2159 12.7282C15.8539 12.2541 16.7332 12.2756 17.3453 12.7843L19.3754 14.4609C19.8754 14.2153 20.3883 14.0041 20.9141 13.823L21.1641 11.198C21.2374 10.4093 21.8451 9.7713 22.6296 9.655C24.2029 9.42655 25.802 9.42655 27.371 9.655C28.1554 9.77138 28.7632 10.4093 28.8364 11.198ZM25.539 12.9437C25.1813 12.9308 24.8192 12.9308 24.4615 12.9437L24.2373 15.3186C24.1684 16.0557 23.6339 16.6678 22.9098 16.8359C21.9141 17.0643 20.9658 17.4609 20.0994 17.9997C19.4701 18.3919 18.6598 18.3359 18.0908 17.866L16.2503 16.3445C15.983 16.5902 15.7287 16.8445 15.4874 17.1074L17.0089 18.948C17.483 19.5212 17.5347 20.3273 17.1425 20.9566C16.6037 21.8229 16.2072 22.7755 15.9787 23.7669C15.8106 24.4911 15.1985 25.0255 14.4615 25.0945L12.0865 25.3186C12.0736 25.6764 12.0736 26.0384 12.0865 26.3962L14.4615 26.6203C15.1985 26.6893 15.8107 27.2238 15.9787 27.9479C16.2072 28.9435 16.6037 29.8918 17.1425 30.7582C17.5347 31.3875 17.4787 32.1979 17.0089 32.7668L15.4874 34.6073C15.733 34.8746 15.9873 35.1289 16.2503 35.3703L18.0908 33.8487C18.6641 33.3746 19.4701 33.3229 20.0994 33.7151C20.9658 34.2539 21.9183 34.6505 22.9098 34.8789C23.6339 35.047 24.1684 35.6591 24.2373 36.3962L24.4615 38.7711C24.8192 38.784 25.1813 38.784 25.539 38.7711L25.7632 36.3962C25.8321 35.6591 26.3666 35.047 27.0907 34.8789C28.0864 34.6505 29.0346 34.2539 29.9011 33.7151C30.5304 33.3229 31.3407 33.3789 31.9097 33.8487L33.7502 35.3703C34.0174 35.1246 34.2718 34.8703 34.5131 34.6073L32.9916 32.7668C32.5175 32.1935 32.4657 31.3875 32.858 30.7582C33.3968 29.8918 33.7933 28.9393 34.0218 27.9479C34.1899 27.2237 34.8019 26.6893 35.539 26.6203L37.9139 26.3962C37.9269 26.0384 37.9269 25.6764 37.9139 25.3186L35.539 25.0945C34.8019 25.0255 34.1898 24.491 34.0218 23.7669C33.7933 22.7712 33.3968 21.823 32.858 20.9566C32.4657 20.3273 32.5218 19.5169 32.9916 18.948L34.5131 17.1074C34.2674 16.8402 34.0131 16.5859 33.7502 16.3445L31.9097 17.866C31.3364 18.3402 30.5304 18.3919 29.9011 17.9997C29.0347 17.4609 28.0822 17.0643 27.0907 16.8359C26.3666 16.6678 25.8321 16.0557 25.7632 15.3186L25.539 12.9437ZM25.0002 19.0083C28.7847 19.0083 31.8536 22.0772 31.8536 25.8617C31.8536 29.6461 28.7847 32.715 25.0002 32.715C21.2158 32.715 18.1469 29.6461 18.1469 25.8617C18.1469 22.0772 21.2158 19.0083 25.0002 19.0083ZM25.0002 22.4566C23.121 22.4566 21.5951 23.9824 21.5951 25.8617C21.5951 27.7409 23.121 29.2668 25.0002 29.2668C26.8795 29.2668 28.4054 27.7409 28.4054 25.8617C28.4054 23.9824 26.8795 22.4566 25.0002 22.4566ZM37.9315 50.8613C38.884 50.8613 39.6556 51.6329 39.6556 52.5855C39.6556 53.538 38.884 54.3096 37.9315 54.3096C36.9789 54.3096 36.2073 53.538 36.2073 52.5855C36.2073 51.6329 36.9789 50.8613 37.9315 50.8613ZM43.1038 50.8613C44.0564 50.8613 44.828 51.6329 44.828 52.5855C44.828 53.538 44.0564 54.3096 43.1038 54.3096C42.1513 54.3096 41.3797 53.538 41.3797 52.5855C41.3797 51.6329 42.1513 50.8613 43.1038 50.8613ZM48.2762 50.8613C49.2288 50.8613 50.0004 51.6329 50.0004 52.5855C50.0004 53.538 49.2288 54.3096 48.2762 54.3096C47.3236 54.3096 46.5521 53.538 46.5521 52.5855C46.5521 51.6329 47.3236 50.8613 48.2762 50.8613ZM74.1387 48.2751C88.4106 48.2751 100.001 59.8656 100.001 74.1375C100.001 88.4094 88.4106 100 74.1387 100C59.8668 100 48.2762 88.4094 48.2762 74.1375C48.2762 59.8656 59.8668 48.2751 74.1387 48.2751ZM74.1387 51.7234C61.768 51.7234 51.7256 61.7664 51.7256 74.1364C51.7256 86.5065 61.7687 96.5495 74.1387 96.5495C86.5087 96.5495 96.5518 86.5065 96.5518 74.1364C96.5518 61.7664 86.5087 51.7234 74.1387 51.7234ZM65.6474 68.0852L60.4578 69.124C59.8931 69.236 59.3069 69.0593 58.9017 68.6541L55.8543 65.6068C55.1819 64.9343 55.1819 63.8395 55.8543 63.1672C56.5267 62.4948 57.6216 62.4948 58.2939 63.1672L60.6905 65.5637L64.7551 64.7491L65.5698 60.6844L63.1732 58.2879C62.5008 57.6155 62.5008 56.5206 63.1732 55.8483C63.8456 55.176 64.9405 55.1759 65.6128 55.8483L68.6602 58.8957C69.0697 59.3051 69.2464 59.887 69.13 60.4517L68.0912 65.6413L74.1429 71.693L80.2377 65.5983L79.6299 64.9862C79.0135 64.3699 78.9532 63.3957 79.4877 62.7104L83.7549 57.2233C84.0566 56.8354 84.5135 56.594 85.0092 56.5595C85.5006 56.5293 85.9833 56.7104 86.3367 57.0595L91.2117 61.9345C91.5609 62.2837 91.7462 62.7664 91.7117 63.2621C91.6816 63.7578 91.4402 64.2146 91.0479 64.5163L85.5609 68.7836C84.8755 69.318 83.8971 69.2577 83.285 68.6413L82.6729 68.0336L76.5782 74.1283L80.1945 77.7446L85.3841 76.7058C85.9488 76.5938 86.535 76.7705 86.9402 77.1757L89.9875 80.223C90.397 80.6325 90.5737 81.2144 90.4574 81.7791L89.2375 87.8738C89.0996 88.5549 88.5651 89.0894 87.884 89.2273L81.7893 90.4472C81.2246 90.5592 80.6384 90.3825 80.2332 89.9774L77.1858 86.93C76.7764 86.5205 76.5996 85.9386 76.716 85.3739L77.7548 80.1843L74.1385 76.568L71.6989 79.0076L72.3067 79.6154C72.9791 80.2878 72.9791 81.3783 72.3067 82.055L64.9921 89.3696C63.6472 90.7144 61.4619 90.7144 60.1171 89.3696L58.8972 88.1497C57.5523 86.8048 57.5523 84.6196 58.8972 83.2747L66.2118 75.9601C66.8842 75.2877 67.9748 75.2877 68.6514 75.9601L69.2592 76.5679L71.6988 74.1283L65.647 68.0766L65.6474 68.0852ZM81.0911 81.0892L80.2765 85.1539L82.0178 86.8952L86.0825 86.0849L86.8928 82.0202L85.1515 80.2789L81.0868 81.0935L81.0911 81.0892ZM87.3885 63.0027L85.2721 60.8863L83.1385 63.6277L84.6428 65.132L87.3842 62.9984L87.3885 63.0027ZM62.5566 86.9375L68.6514 80.8427L67.4315 79.6229L61.3368 85.7176L62.5566 86.9375Z" fill="#3C7CFF"/>
</svg>
