<svg width="100" height="87" viewBox="0 0 100 87" fill="none" xmlns="http://www.w3.org/2000/svg">
<path d="M59.8104 34.7766H40.1904V47.0155H25.9598V86.8007H74.041V56.561H59.8104V34.7766ZM40.1904 81.4059H31.3574V52.413H40.1904V81.4059ZM54.4129 81.4059H45.588V40.1741H54.4129V81.4059ZM68.6435 61.9586V81.4059H59.8104V61.9586H68.6435Z" fill="#3C7CFF"/>
<path d="M86.7949 27.7734C84.4497 12.1745 71.0908 0.588745 55.1546 0.588745C40.6083 0.588745 27.9349 10.4446 24.2403 24.3217C10.6898 25.3985 0 36.7684 0 50.5887C0 63.1272 8.81146 73.6308 20.5619 76.2783V70.7107C11.8179 68.1901 5.39753 60.1343 5.39753 50.5914C5.39753 39.038 14.7919 29.6382 26.3993 29.6382H26.4047H28.6258L29.0522 27.4576C31.4811 15.0163 42.4597 5.98627 55.1546 5.98627C68.8077 5.98627 80.1776 16.2119 81.6106 29.7705L81.7645 31.2332L83.0761 31.8971C90.1873 35.4892 94.6025 42.6517 94.6025 50.5914C94.6025 60.1343 88.1821 68.1901 79.4381 70.7107V76.2783C91.1885 73.6335 100 63.1299 100 50.5887C100 41.0918 94.9776 32.48 86.7949 27.7734Z" fill="#3C7CFF"/>
</svg>
