<svg width="104" height="101" viewBox="0 0 104 101" fill="none" xmlns="http://www.w3.org/2000/svg">
<mask id="path-1-outside-1_179_946" maskUnits="userSpaceOnUse" x="0" y="-0.392944" width="104" height="102" fill="black">
<rect fill="white" y="-0.392944" width="104" height="102"/>
<path d="M102.36 0.607056H2.22683C1.90145 0.607056 1.5894 0.73631 1.35933 0.966384C1.12925 1.19646 1 1.50851 1 1.83388V73.0023C1 73.3277 1.12925 73.6398 1.35933 73.8698C1.5894 74.0999 1.90145 74.2292 2.22683 74.2292H37.6136L33.9744 87.8101H26.2255C24.5291 87.8128 22.903 88.488 21.7036 89.6876C20.5042 90.8872 19.8294 92.5134 19.827 94.2097V99.3814C19.8273 99.706 19.9562 100.017 20.1855 100.247C20.4148 100.477 20.7258 100.606 21.0504 100.607H83.536C83.8614 100.607 84.1735 100.478 84.4035 100.248C84.6336 100.018 84.7629 99.7056 84.7629 99.3802V94.2097C84.7601 92.5136 84.0851 90.8877 82.8858 89.6883C81.6864 88.4889 80.0605 87.8139 78.3644 87.8112H70.612L66.9728 74.2303H102.36C102.685 74.2303 102.997 74.1011 103.227 73.871C103.457 73.6409 103.586 73.3289 103.586 73.0035V1.83388C103.586 1.50851 103.457 1.19646 103.227 0.966384C102.997 0.73631 102.685 0.607056 102.36 0.607056ZM101.134 3.05956V56.6725H3.45251V3.05956H101.134ZM82.3069 94.2097V98.1557H22.2795V94.2097C22.2807 93.1635 22.6968 92.1606 23.4366 91.4208C24.1763 90.6811 25.1793 90.2649 26.2255 90.2637H78.3609C79.4071 90.2649 80.4101 90.6811 81.1498 91.4208C81.8896 92.1606 82.3057 93.1635 82.3069 94.2097ZM68.0737 87.8101H36.5127L40.152 74.2292H64.4344L68.0737 87.8101ZM3.45251 71.7789V59.1262H101.134V71.7789H3.45251ZM91.3799 65.4537C91.3796 65.7787 91.2504 66.0903 91.0206 66.3201C90.7908 66.5498 90.4792 66.6791 90.1543 66.6794H84.566C84.4018 66.6844 84.2383 66.6564 84.0852 66.597C83.932 66.5377 83.7923 66.4481 83.6744 66.3338C83.5565 66.2194 83.4628 66.0825 83.3987 65.9313C83.3347 65.78 83.3017 65.6174 83.3017 65.4531C83.3017 65.2889 83.3347 65.1263 83.3987 64.975C83.4628 64.8237 83.5565 64.6868 83.6744 64.5725C83.7923 64.4581 83.932 64.3686 84.0852 64.3092C84.2383 64.2499 84.4018 64.2219 84.566 64.2269H90.152C90.4771 64.2266 90.7891 64.3554 91.0194 64.585C91.2497 64.8146 91.3793 65.1262 91.3799 65.4514V65.4537ZM23.4536 36.1175C26.3178 36.1181 29.1178 35.2694 31.4996 33.6787C33.8814 32.0879 35.7379 29.8265 36.8344 27.1806C37.9309 24.5346 38.218 21.6229 37.6596 18.8137C37.1012 16.0045 35.7222 13.4241 33.6971 11.3986C31.672 9.37322 29.0917 7.99384 26.2826 7.43496C23.4735 6.87608 20.5618 7.1628 17.9157 8.25887C15.2695 9.35493 13.0079 11.2111 11.4167 13.5926C9.82558 15.9741 8.97643 18.774 8.97665 21.6382C8.98119 25.4765 10.5078 29.1564 13.2217 31.8708C15.9357 34.5851 19.6153 36.1123 23.4536 36.1175ZM30.4965 31.3807L25.5754 22.8639H35.4175C35.2435 24.55 34.7152 26.1804 33.8671 27.6481C33.019 29.1159 31.8704 30.3878 30.4965 31.3807ZM35.4175 20.4114H24.6816V9.67206C27.4322 9.95797 30.0008 11.1813 31.9562 13.1368C33.9117 15.0922 35.135 17.6608 35.4209 20.4114H35.4175ZM22.2291 9.67206V21.6382C22.2297 21.6872 22.2331 21.7361 22.2394 21.7847V21.8224C22.2394 21.8602 22.252 21.898 22.2612 21.9369L22.2703 21.9712C22.2826 22.0168 22.2979 22.0615 22.3161 22.1051C22.3352 22.1508 22.3574 22.1952 22.3825 22.2379V22.2482L28.3747 32.6087C26.7861 33.3207 25.0618 33.6794 23.3211 33.6598C21.5803 33.6403 19.8645 33.243 18.2923 32.4955C16.7201 31.748 15.3289 30.6681 14.2149 29.3303C13.1009 27.9925 12.2906 26.4288 11.8401 24.7473C11.3895 23.0657 11.3094 21.3064 11.6054 19.5908C11.9013 17.8753 12.5661 16.2445 13.554 14.811C14.5418 13.3776 15.8291 12.1757 17.3269 11.2884C18.8247 10.4012 20.4973 9.84967 22.2291 9.67206ZM8.97665 40.2729C8.97696 39.948 9.10622 39.6365 9.33605 39.4069C9.56588 39.1773 9.87746 39.0483 10.2023 39.0483H17.6022C17.7664 39.0433 17.9299 39.0713 18.0831 39.1307C18.2362 39.1901 18.3759 39.2796 18.4938 39.394C18.6117 39.5083 18.7055 39.6452 18.7695 39.7965C18.8335 39.9477 18.8665 40.1103 18.8665 40.2746C18.8665 40.4389 18.8335 40.6014 18.7695 40.7527C18.7055 40.904 18.6117 41.0409 18.4938 41.1552C18.3759 41.2696 18.2362 41.3591 18.0831 41.4185C17.9299 41.4779 17.7664 41.5059 17.6022 41.5008H10.2023C10.0412 41.5008 9.88161 41.4691 9.73276 41.4073C9.5839 41.3456 9.44868 41.2551 9.33484 41.141C9.22099 41.027 9.13076 40.8916 9.06929 40.7426C9.00783 40.5937 8.97635 40.434 8.97665 40.2729ZM37.9306 40.2729C37.9306 40.5981 37.8015 40.9099 37.5717 41.14C37.3419 41.37 37.0301 41.4994 36.705 41.4997H24.3303C24.0115 41.49 23.7091 41.3565 23.4871 41.1276C23.2651 40.8987 23.1409 40.5923 23.1409 40.2735C23.1409 39.9546 23.2651 39.6482 23.4871 39.4193C23.7091 39.1904 24.0115 39.0569 24.3303 39.0472H36.7095C37.0345 39.0475 37.3461 39.1767 37.5759 39.4065C37.8057 39.6363 37.9349 39.9479 37.9352 40.2729H37.9306ZM37.9306 48.6157C37.9306 48.9408 37.8015 49.2526 37.5717 49.4824C37.3418 49.7123 37.03 49.8414 36.705 49.8414H29.3085C28.9835 49.8414 28.6717 49.7123 28.4418 49.4824C28.212 49.2526 28.0829 48.9408 28.0829 48.6157C28.0829 48.2907 28.212 47.9789 28.4418 47.7491C28.6717 47.5192 28.9835 47.3901 29.3085 47.3901H36.7095C37.0346 47.3901 37.3464 47.5192 37.5762 47.7491C37.8061 47.9789 37.9352 48.2907 37.9352 48.6157H37.9306ZM8.97665 48.6157C8.9765 48.4547 9.0081 48.2953 9.06965 48.1465C9.13119 47.9977 9.22147 47.8626 9.33531 47.7487C9.44916 47.6349 9.58433 47.5446 9.73311 47.4831C9.88188 47.4215 10.0413 47.3899 10.2023 47.3901H22.5816C22.9067 47.3901 23.2184 47.5192 23.4483 47.7491C23.6781 47.9789 23.8073 48.2907 23.8073 48.6157C23.8073 48.9408 23.6781 49.2526 23.4483 49.4824C23.2184 49.7123 22.9067 49.8414 22.5816 49.8414H10.2023C10.0413 49.8416 9.88188 49.81 9.73311 49.7484C9.58433 49.6869 9.44916 49.5966 9.33531 49.4828C9.22147 49.3689 9.13119 49.2337 9.06965 49.085C9.0081 48.9362 8.9765 48.7767 8.97665 48.6157ZM47.2211 50.7215H54.4871C54.6481 50.7216 54.8076 50.6901 54.9565 50.6285C55.1053 50.567 55.2406 50.4767 55.3545 50.3629C55.4684 50.2491 55.5588 50.1139 55.6205 49.9651C55.6821 49.8163 55.7139 49.6569 55.7139 49.4958V35.7661C55.7139 35.4408 55.5846 35.1287 55.3546 34.8986C55.1245 34.6686 54.8124 34.5393 54.4871 34.5393H47.2211C46.8965 34.5405 46.5856 34.6703 46.3566 34.9002C46.1275 35.1302 45.9989 35.4415 45.9989 35.7661V49.4901C45.9981 49.6512 46.0291 49.811 46.0902 49.9601C46.1512 50.1092 46.2411 50.2449 46.3546 50.3593C46.4681 50.4736 46.6031 50.5645 46.7518 50.6267C46.9005 50.6888 47.0599 50.721 47.2211 50.7215ZM48.4479 36.9884H53.2614V48.261H48.4479V36.9884ZM60.8112 50.7215H68.0771C68.2381 50.7216 68.3976 50.69 68.5464 50.6285C68.6951 50.567 68.8303 50.4767 68.9442 50.3628C69.058 50.249 69.1483 50.1138 69.2098 49.965C69.2714 49.8163 69.303 49.6568 69.3028 49.4958V28.7691C69.303 28.608 69.2714 28.4485 69.2098 28.2997C69.1483 28.1509 69.0581 28.0156 68.9442 27.9017C68.8304 27.7877 68.6952 27.6974 68.5464 27.6357C68.3977 27.574 68.2382 27.5423 68.0771 27.5423H60.8112C60.6501 27.5423 60.4906 27.574 60.3419 27.6357C60.1931 27.6974 60.0579 27.7877 59.9441 27.9017C59.8302 28.0156 59.74 28.1509 59.6785 28.2997C59.6169 28.4485 59.5853 28.608 59.5855 28.7691V49.4901C59.5846 49.6516 59.6156 49.8116 59.6768 49.9611C59.738 50.1105 59.8282 50.2464 59.9421 50.3608C60.056 50.4753 60.1915 50.5661 60.3406 50.628C60.4898 50.6899 60.6497 50.7216 60.8112 50.7215ZM62.0368 30.0005H66.8514V48.2644H62.0368V30.0005ZM74.4012 50.7215H81.6672C81.9923 50.7215 82.304 50.5924 82.5339 50.3625C82.7637 50.1326 82.8929 49.8209 82.8929 49.4958V20.1573C82.8926 19.8323 82.7633 19.5207 82.5335 19.2909C82.3038 19.0611 81.9922 18.9319 81.6672 18.9316H74.4012C74.0762 18.9316 73.7644 19.0607 73.5345 19.2906C73.3047 19.5205 73.1756 19.8322 73.1756 20.1573V49.4901C73.1746 49.6516 73.2057 49.8116 73.2669 49.9611C73.3281 50.1105 73.4183 50.2464 73.5322 50.3608C73.6461 50.4753 73.7815 50.5661 73.9307 50.628C74.0798 50.6899 74.2397 50.7216 74.4012 50.7215ZM75.6269 21.3898H80.4461V48.2644H75.6269V21.3898ZM87.9867 50.7215H95.2527C95.5778 50.7215 95.8895 50.5924 96.1194 50.3625C96.3492 50.1326 96.4784 49.8209 96.4784 49.4958V11.9586C96.4781 11.6336 96.3488 11.3221 96.119 11.0923C95.8892 10.8625 95.5777 10.7332 95.2527 10.7329H87.9913C87.6661 10.7329 87.3542 10.862 87.1242 11.0919C86.8942 11.3217 86.7648 11.6334 86.7645 11.9586V49.4958C86.7645 49.6569 86.7962 49.8163 86.8579 49.9651C86.9195 50.1139 87.0099 50.2491 87.1239 50.3629C87.2378 50.4767 87.3731 50.567 87.5219 50.6285C87.6707 50.6901 87.8302 50.7216 87.9913 50.7215H87.9867ZM89.2124 13.1843H94.0304V48.2724H89.217L89.2124 13.1843Z"/>
</mask>
<path d="M102.36 0.607056H2.22683C1.90145 0.607056 1.5894 0.73631 1.35933 0.966384C1.12925 1.19646 1 1.50851 1 1.83388V73.0023C1 73.3277 1.12925 73.6398 1.35933 73.8698C1.5894 74.0999 1.90145 74.2292 2.22683 74.2292H37.6136L33.9744 87.8101H26.2255C24.5291 87.8128 22.903 88.488 21.7036 89.6876C20.5042 90.8872 19.8294 92.5134 19.827 94.2097V99.3814C19.8273 99.706 19.9562 100.017 20.1855 100.247C20.4148 100.477 20.7258 100.606 21.0504 100.607H83.536C83.8614 100.607 84.1735 100.478 84.4035 100.248C84.6336 100.018 84.7629 99.7056 84.7629 99.3802V94.2097C84.7601 92.5136 84.0851 90.8877 82.8858 89.6883C81.6864 88.4889 80.0605 87.8139 78.3644 87.8112H70.612L66.9728 74.2303H102.36C102.685 74.2303 102.997 74.1011 103.227 73.871C103.457 73.6409 103.586 73.3289 103.586 73.0035V1.83388C103.586 1.50851 103.457 1.19646 103.227 0.966384C102.997 0.73631 102.685 0.607056 102.36 0.607056ZM101.134 3.05956V56.6725H3.45251V3.05956H101.134ZM82.3069 94.2097V98.1557H22.2795V94.2097C22.2807 93.1635 22.6968 92.1606 23.4366 91.4208C24.1763 90.6811 25.1793 90.2649 26.2255 90.2637H78.3609C79.4071 90.2649 80.4101 90.6811 81.1498 91.4208C81.8896 92.1606 82.3057 93.1635 82.3069 94.2097ZM68.0737 87.8101H36.5127L40.152 74.2292H64.4344L68.0737 87.8101ZM3.45251 71.7789V59.1262H101.134V71.7789H3.45251ZM91.3799 65.4537C91.3796 65.7787 91.2504 66.0903 91.0206 66.3201C90.7908 66.5498 90.4792 66.6791 90.1543 66.6794H84.566C84.4018 66.6844 84.2383 66.6564 84.0852 66.597C83.932 66.5377 83.7923 66.4481 83.6744 66.3338C83.5565 66.2194 83.4628 66.0825 83.3987 65.9313C83.3347 65.78 83.3017 65.6174 83.3017 65.4531C83.3017 65.2889 83.3347 65.1263 83.3987 64.975C83.4628 64.8237 83.5565 64.6868 83.6744 64.5725C83.7923 64.4581 83.932 64.3686 84.0852 64.3092C84.2383 64.2499 84.4018 64.2219 84.566 64.2269H90.152C90.4771 64.2266 90.7891 64.3554 91.0194 64.585C91.2497 64.8146 91.3793 65.1262 91.3799 65.4514V65.4537ZM23.4536 36.1175C26.3178 36.1181 29.1178 35.2694 31.4996 33.6787C33.8814 32.0879 35.7379 29.8265 36.8344 27.1806C37.9309 24.5346 38.218 21.6229 37.6596 18.8137C37.1012 16.0045 35.7222 13.4241 33.6971 11.3986C31.672 9.37322 29.0917 7.99384 26.2826 7.43496C23.4735 6.87608 20.5618 7.1628 17.9157 8.25887C15.2695 9.35493 13.0079 11.2111 11.4167 13.5926C9.82558 15.9741 8.97643 18.774 8.97665 21.6382C8.98119 25.4765 10.5078 29.1564 13.2217 31.8708C15.9357 34.5851 19.6153 36.1123 23.4536 36.1175ZM30.4965 31.3807L25.5754 22.8639H35.4175C35.2435 24.55 34.7152 26.1804 33.8671 27.6481C33.019 29.1159 31.8704 30.3878 30.4965 31.3807ZM35.4175 20.4114H24.6816V9.67206C27.4322 9.95797 30.0008 11.1813 31.9562 13.1368C33.9117 15.0922 35.135 17.6608 35.4209 20.4114H35.4175ZM22.2291 9.67206V21.6382C22.2297 21.6872 22.2331 21.7361 22.2394 21.7847V21.8224C22.2394 21.8602 22.252 21.898 22.2612 21.9369L22.2703 21.9712C22.2826 22.0168 22.2979 22.0615 22.3161 22.1051C22.3352 22.1508 22.3574 22.1952 22.3825 22.2379V22.2482L28.3747 32.6087C26.7861 33.3207 25.0618 33.6794 23.3211 33.6598C21.5803 33.6403 19.8645 33.243 18.2923 32.4955C16.7201 31.748 15.3289 30.6681 14.2149 29.3303C13.1009 27.9925 12.2906 26.4288 11.8401 24.7473C11.3895 23.0657 11.3094 21.3064 11.6054 19.5908C11.9013 17.8753 12.5661 16.2445 13.554 14.811C14.5418 13.3776 15.8291 12.1757 17.3269 11.2884C18.8247 10.4012 20.4973 9.84967 22.2291 9.67206ZM8.97665 40.2729C8.97696 39.948 9.10622 39.6365 9.33605 39.4069C9.56588 39.1773 9.87746 39.0483 10.2023 39.0483H17.6022C17.7664 39.0433 17.9299 39.0713 18.0831 39.1307C18.2362 39.1901 18.3759 39.2796 18.4938 39.394C18.6117 39.5083 18.7055 39.6452 18.7695 39.7965C18.8335 39.9477 18.8665 40.1103 18.8665 40.2746C18.8665 40.4389 18.8335 40.6014 18.7695 40.7527C18.7055 40.904 18.6117 41.0409 18.4938 41.1552C18.3759 41.2696 18.2362 41.3591 18.0831 41.4185C17.9299 41.4779 17.7664 41.5059 17.6022 41.5008H10.2023C10.0412 41.5008 9.88161 41.4691 9.73276 41.4073C9.5839 41.3456 9.44868 41.2551 9.33484 41.141C9.22099 41.027 9.13076 40.8916 9.06929 40.7426C9.00783 40.5937 8.97635 40.434 8.97665 40.2729ZM37.9306 40.2729C37.9306 40.5981 37.8015 40.9099 37.5717 41.14C37.3419 41.37 37.0301 41.4994 36.705 41.4997H24.3303C24.0115 41.49 23.7091 41.3565 23.4871 41.1276C23.2651 40.8987 23.1409 40.5923 23.1409 40.2735C23.1409 39.9546 23.2651 39.6482 23.4871 39.4193C23.7091 39.1904 24.0115 39.0569 24.3303 39.0472H36.7095C37.0345 39.0475 37.3461 39.1767 37.5759 39.4065C37.8057 39.6363 37.9349 39.9479 37.9352 40.2729H37.9306ZM37.9306 48.6157C37.9306 48.9408 37.8015 49.2526 37.5717 49.4824C37.3418 49.7123 37.03 49.8414 36.705 49.8414H29.3085C28.9835 49.8414 28.6717 49.7123 28.4418 49.4824C28.212 49.2526 28.0829 48.9408 28.0829 48.6157C28.0829 48.2907 28.212 47.9789 28.4418 47.7491C28.6717 47.5192 28.9835 47.3901 29.3085 47.3901H36.7095C37.0346 47.3901 37.3464 47.5192 37.5762 47.7491C37.8061 47.9789 37.9352 48.2907 37.9352 48.6157H37.9306ZM8.97665 48.6157C8.9765 48.4547 9.0081 48.2953 9.06965 48.1465C9.13119 47.9977 9.22147 47.8626 9.33531 47.7487C9.44916 47.6349 9.58433 47.5446 9.73311 47.4831C9.88188 47.4215 10.0413 47.3899 10.2023 47.3901H22.5816C22.9067 47.3901 23.2184 47.5192 23.4483 47.7491C23.6781 47.9789 23.8073 48.2907 23.8073 48.6157C23.8073 48.9408 23.6781 49.2526 23.4483 49.4824C23.2184 49.7123 22.9067 49.8414 22.5816 49.8414H10.2023C10.0413 49.8416 9.88188 49.81 9.73311 49.7484C9.58433 49.6869 9.44916 49.5966 9.33531 49.4828C9.22147 49.3689 9.13119 49.2337 9.06965 49.085C9.0081 48.9362 8.9765 48.7767 8.97665 48.6157ZM47.2211 50.7215H54.4871C54.6481 50.7216 54.8076 50.6901 54.9565 50.6285C55.1053 50.567 55.2406 50.4767 55.3545 50.3629C55.4684 50.2491 55.5588 50.1139 55.6205 49.9651C55.6821 49.8163 55.7139 49.6569 55.7139 49.4958V35.7661C55.7139 35.4408 55.5846 35.1287 55.3546 34.8986C55.1245 34.6686 54.8124 34.5393 54.4871 34.5393H47.2211C46.8965 34.5405 46.5856 34.6703 46.3566 34.9002C46.1275 35.1302 45.9989 35.4415 45.9989 35.7661V49.4901C45.9981 49.6512 46.0291 49.811 46.0902 49.9601C46.1512 50.1092 46.2411 50.2449 46.3546 50.3593C46.4681 50.4736 46.6031 50.5645 46.7518 50.6267C46.9005 50.6888 47.0599 50.721 47.2211 50.7215ZM48.4479 36.9884H53.2614V48.261H48.4479V36.9884ZM60.8112 50.7215H68.0771C68.2381 50.7216 68.3976 50.69 68.5464 50.6285C68.6951 50.567 68.8303 50.4767 68.9442 50.3628C69.058 50.249 69.1483 50.1138 69.2098 49.965C69.2714 49.8163 69.303 49.6568 69.3028 49.4958V28.7691C69.303 28.608 69.2714 28.4485 69.2098 28.2997C69.1483 28.1509 69.0581 28.0156 68.9442 27.9017C68.8304 27.7877 68.6952 27.6974 68.5464 27.6357C68.3977 27.574 68.2382 27.5423 68.0771 27.5423H60.8112C60.6501 27.5423 60.4906 27.574 60.3419 27.6357C60.1931 27.6974 60.0579 27.7877 59.9441 27.9017C59.8302 28.0156 59.74 28.1509 59.6785 28.2997C59.6169 28.4485 59.5853 28.608 59.5855 28.7691V49.4901C59.5846 49.6516 59.6156 49.8116 59.6768 49.9611C59.738 50.1105 59.8282 50.2464 59.9421 50.3608C60.056 50.4753 60.1915 50.5661 60.3406 50.628C60.4898 50.6899 60.6497 50.7216 60.8112 50.7215ZM62.0368 30.0005H66.8514V48.2644H62.0368V30.0005ZM74.4012 50.7215H81.6672C81.9923 50.7215 82.304 50.5924 82.5339 50.3625C82.7637 50.1326 82.8929 49.8209 82.8929 49.4958V20.1573C82.8926 19.8323 82.7633 19.5207 82.5335 19.2909C82.3038 19.0611 81.9922 18.9319 81.6672 18.9316H74.4012C74.0762 18.9316 73.7644 19.0607 73.5345 19.2906C73.3047 19.5205 73.1756 19.8322 73.1756 20.1573V49.4901C73.1746 49.6516 73.2057 49.8116 73.2669 49.9611C73.3281 50.1105 73.4183 50.2464 73.5322 50.3608C73.6461 50.4753 73.7815 50.5661 73.9307 50.628C74.0798 50.6899 74.2397 50.7216 74.4012 50.7215ZM75.6269 21.3898H80.4461V48.2644H75.6269V21.3898ZM87.9867 50.7215H95.2527C95.5778 50.7215 95.8895 50.5924 96.1194 50.3625C96.3492 50.1326 96.4784 49.8209 96.4784 49.4958V11.9586C96.4781 11.6336 96.3488 11.3221 96.119 11.0923C95.8892 10.8625 95.5777 10.7332 95.2527 10.7329H87.9913C87.6661 10.7329 87.3542 10.862 87.1242 11.0919C86.8942 11.3217 86.7648 11.6334 86.7645 11.9586V49.4958C86.7645 49.6569 86.7962 49.8163 86.8579 49.9651C86.9195 50.1139 87.0099 50.2491 87.1239 50.3629C87.2378 50.4767 87.3731 50.567 87.5219 50.6285C87.6707 50.6901 87.8302 50.7216 87.9913 50.7215H87.9867ZM89.2124 13.1843H94.0304V48.2724H89.217L89.2124 13.1843Z" fill="#3C7CFF"/>
<path d="M102.36 0.607056H2.22683C1.90145 0.607056 1.5894 0.73631 1.35933 0.966384C1.12925 1.19646 1 1.50851 1 1.83388V73.0023C1 73.3277 1.12925 73.6398 1.35933 73.8698C1.5894 74.0999 1.90145 74.2292 2.22683 74.2292H37.6136L33.9744 87.8101H26.2255C24.5291 87.8128 22.903 88.488 21.7036 89.6876C20.5042 90.8872 19.8294 92.5134 19.827 94.2097V99.3814C19.8273 99.706 19.9562 100.017 20.1855 100.247C20.4148 100.477 20.7258 100.606 21.0504 100.607H83.536C83.8614 100.607 84.1735 100.478 84.4035 100.248C84.6336 100.018 84.7629 99.7056 84.7629 99.3802V94.2097C84.7601 92.5136 84.0851 90.8877 82.8858 89.6883C81.6864 88.4889 80.0605 87.8139 78.3644 87.8112H70.612L66.9728 74.2303H102.36C102.685 74.2303 102.997 74.1011 103.227 73.871C103.457 73.6409 103.586 73.3289 103.586 73.0035V1.83388C103.586 1.50851 103.457 1.19646 103.227 0.966384C102.997 0.73631 102.685 0.607056 102.36 0.607056ZM101.134 3.05956V56.6725H3.45251V3.05956H101.134ZM82.3069 94.2097V98.1557H22.2795V94.2097C22.2807 93.1635 22.6968 92.1606 23.4366 91.4208C24.1763 90.6811 25.1793 90.2649 26.2255 90.2637H78.3609C79.4071 90.2649 80.4101 90.6811 81.1498 91.4208C81.8896 92.1606 82.3057 93.1635 82.3069 94.2097ZM68.0737 87.8101H36.5127L40.152 74.2292H64.4344L68.0737 87.8101ZM3.45251 71.7789V59.1262H101.134V71.7789H3.45251ZM91.3799 65.4537C91.3796 65.7787 91.2504 66.0903 91.0206 66.3201C90.7908 66.5498 90.4792 66.6791 90.1543 66.6794H84.566C84.4018 66.6844 84.2383 66.6564 84.0852 66.597C83.932 66.5377 83.7923 66.4481 83.6744 66.3338C83.5565 66.2194 83.4628 66.0825 83.3987 65.9313C83.3347 65.78 83.3017 65.6174 83.3017 65.4531C83.3017 65.2889 83.3347 65.1263 83.3987 64.975C83.4628 64.8237 83.5565 64.6868 83.6744 64.5725C83.7923 64.4581 83.932 64.3686 84.0852 64.3092C84.2383 64.2499 84.4018 64.2219 84.566 64.2269H90.152C90.4771 64.2266 90.7891 64.3554 91.0194 64.585C91.2497 64.8146 91.3793 65.1262 91.3799 65.4514V65.4537ZM23.4536 36.1175C26.3178 36.1181 29.1178 35.2694 31.4996 33.6787C33.8814 32.0879 35.7379 29.8265 36.8344 27.1806C37.9309 24.5346 38.218 21.6229 37.6596 18.8137C37.1012 16.0045 35.7222 13.4241 33.6971 11.3986C31.672 9.37322 29.0917 7.99384 26.2826 7.43496C23.4735 6.87608 20.5618 7.1628 17.9157 8.25887C15.2695 9.35493 13.0079 11.2111 11.4167 13.5926C9.82558 15.9741 8.97643 18.774 8.97665 21.6382C8.98119 25.4765 10.5078 29.1564 13.2217 31.8708C15.9357 34.5851 19.6153 36.1123 23.4536 36.1175ZM30.4965 31.3807L25.5754 22.8639H35.4175C35.2435 24.55 34.7152 26.1804 33.8671 27.6481C33.019 29.1159 31.8704 30.3878 30.4965 31.3807ZM35.4175 20.4114H24.6816V9.67206C27.4322 9.95797 30.0008 11.1813 31.9562 13.1368C33.9117 15.0922 35.135 17.6608 35.4209 20.4114H35.4175ZM22.2291 9.67206V21.6382C22.2297 21.6872 22.2331 21.7361 22.2394 21.7847V21.8224C22.2394 21.8602 22.252 21.898 22.2612 21.9369L22.2703 21.9712C22.2826 22.0168 22.2979 22.0615 22.3161 22.1051C22.3352 22.1508 22.3574 22.1952 22.3825 22.2379V22.2482L28.3747 32.6087C26.7861 33.3207 25.0618 33.6794 23.3211 33.6598C21.5803 33.6403 19.8645 33.243 18.2923 32.4955C16.7201 31.748 15.3289 30.6681 14.2149 29.3303C13.1009 27.9925 12.2906 26.4288 11.8401 24.7473C11.3895 23.0657 11.3094 21.3064 11.6054 19.5908C11.9013 17.8753 12.5661 16.2445 13.554 14.811C14.5418 13.3776 15.8291 12.1757 17.3269 11.2884C18.8247 10.4012 20.4973 9.84967 22.2291 9.67206ZM8.97665 40.2729C8.97696 39.948 9.10622 39.6365 9.33605 39.4069C9.56588 39.1773 9.87746 39.0483 10.2023 39.0483H17.6022C17.7664 39.0433 17.9299 39.0713 18.0831 39.1307C18.2362 39.1901 18.3759 39.2796 18.4938 39.394C18.6117 39.5083 18.7055 39.6452 18.7695 39.7965C18.8335 39.9477 18.8665 40.1103 18.8665 40.2746C18.8665 40.4389 18.8335 40.6014 18.7695 40.7527C18.7055 40.904 18.6117 41.0409 18.4938 41.1552C18.3759 41.2696 18.2362 41.3591 18.0831 41.4185C17.9299 41.4779 17.7664 41.5059 17.6022 41.5008H10.2023C10.0412 41.5008 9.88161 41.4691 9.73276 41.4073C9.5839 41.3456 9.44868 41.2551 9.33484 41.141C9.22099 41.027 9.13076 40.8916 9.06929 40.7426C9.00783 40.5937 8.97635 40.434 8.97665 40.2729ZM37.9306 40.2729C37.9306 40.5981 37.8015 40.9099 37.5717 41.14C37.3419 41.37 37.0301 41.4994 36.705 41.4997H24.3303C24.0115 41.49 23.7091 41.3565 23.4871 41.1276C23.2651 40.8987 23.1409 40.5923 23.1409 40.2735C23.1409 39.9546 23.2651 39.6482 23.4871 39.4193C23.7091 39.1904 24.0115 39.0569 24.3303 39.0472H36.7095C37.0345 39.0475 37.3461 39.1767 37.5759 39.4065C37.8057 39.6363 37.9349 39.9479 37.9352 40.2729H37.9306ZM37.9306 48.6157C37.9306 48.9408 37.8015 49.2526 37.5717 49.4824C37.3418 49.7123 37.03 49.8414 36.705 49.8414H29.3085C28.9835 49.8414 28.6717 49.7123 28.4418 49.4824C28.212 49.2526 28.0829 48.9408 28.0829 48.6157C28.0829 48.2907 28.212 47.9789 28.4418 47.7491C28.6717 47.5192 28.9835 47.3901 29.3085 47.3901H36.7095C37.0346 47.3901 37.3464 47.5192 37.5762 47.7491C37.8061 47.9789 37.9352 48.2907 37.9352 48.6157H37.9306ZM8.97665 48.6157C8.9765 48.4547 9.0081 48.2953 9.06965 48.1465C9.13119 47.9977 9.22147 47.8626 9.33531 47.7487C9.44916 47.6349 9.58433 47.5446 9.73311 47.4831C9.88188 47.4215 10.0413 47.3899 10.2023 47.3901H22.5816C22.9067 47.3901 23.2184 47.5192 23.4483 47.7491C23.6781 47.9789 23.8073 48.2907 23.8073 48.6157C23.8073 48.9408 23.6781 49.2526 23.4483 49.4824C23.2184 49.7123 22.9067 49.8414 22.5816 49.8414H10.2023C10.0413 49.8416 9.88188 49.81 9.73311 49.7484C9.58433 49.6869 9.44916 49.5966 9.33531 49.4828C9.22147 49.3689 9.13119 49.2337 9.06965 49.085C9.0081 48.9362 8.9765 48.7767 8.97665 48.6157ZM47.2211 50.7215H54.4871C54.6481 50.7216 54.8076 50.6901 54.9565 50.6285C55.1053 50.567 55.2406 50.4767 55.3545 50.3629C55.4684 50.2491 55.5588 50.1139 55.6205 49.9651C55.6821 49.8163 55.7139 49.6569 55.7139 49.4958V35.7661C55.7139 35.4408 55.5846 35.1287 55.3546 34.8986C55.1245 34.6686 54.8124 34.5393 54.4871 34.5393H47.2211C46.8965 34.5405 46.5856 34.6703 46.3566 34.9002C46.1275 35.1302 45.9989 35.4415 45.9989 35.7661V49.4901C45.9981 49.6512 46.0291 49.811 46.0902 49.9601C46.1512 50.1092 46.2411 50.2449 46.3546 50.3593C46.4681 50.4736 46.6031 50.5645 46.7518 50.6267C46.9005 50.6888 47.0599 50.721 47.2211 50.7215ZM48.4479 36.9884H53.2614V48.261H48.4479V36.9884ZM60.8112 50.7215H68.0771C68.2381 50.7216 68.3976 50.69 68.5464 50.6285C68.6951 50.567 68.8303 50.4767 68.9442 50.3628C69.058 50.249 69.1483 50.1138 69.2098 49.965C69.2714 49.8163 69.303 49.6568 69.3028 49.4958V28.7691C69.303 28.608 69.2714 28.4485 69.2098 28.2997C69.1483 28.1509 69.0581 28.0156 68.9442 27.9017C68.8304 27.7877 68.6952 27.6974 68.5464 27.6357C68.3977 27.574 68.2382 27.5423 68.0771 27.5423H60.8112C60.6501 27.5423 60.4906 27.574 60.3419 27.6357C60.1931 27.6974 60.0579 27.7877 59.9441 27.9017C59.8302 28.0156 59.74 28.1509 59.6785 28.2997C59.6169 28.4485 59.5853 28.608 59.5855 28.7691V49.4901C59.5846 49.6516 59.6156 49.8116 59.6768 49.9611C59.738 50.1105 59.8282 50.2464 59.9421 50.3608C60.056 50.4753 60.1915 50.5661 60.3406 50.628C60.4898 50.6899 60.6497 50.7216 60.8112 50.7215ZM62.0368 30.0005H66.8514V48.2644H62.0368V30.0005ZM74.4012 50.7215H81.6672C81.9923 50.7215 82.304 50.5924 82.5339 50.3625C82.7637 50.1326 82.8929 49.8209 82.8929 49.4958V20.1573C82.8926 19.8323 82.7633 19.5207 82.5335 19.2909C82.3038 19.0611 81.9922 18.9319 81.6672 18.9316H74.4012C74.0762 18.9316 73.7644 19.0607 73.5345 19.2906C73.3047 19.5205 73.1756 19.8322 73.1756 20.1573V49.4901C73.1746 49.6516 73.2057 49.8116 73.2669 49.9611C73.3281 50.1105 73.4183 50.2464 73.5322 50.3608C73.6461 50.4753 73.7815 50.5661 73.9307 50.628C74.0798 50.6899 74.2397 50.7216 74.4012 50.7215ZM75.6269 21.3898H80.4461V48.2644H75.6269V21.3898ZM87.9867 50.7215H95.2527C95.5778 50.7215 95.8895 50.5924 96.1194 50.3625C96.3492 50.1326 96.4784 49.8209 96.4784 49.4958V11.9586C96.4781 11.6336 96.3488 11.3221 96.119 11.0923C95.8892 10.8625 95.5777 10.7332 95.2527 10.7329H87.9913C87.6661 10.7329 87.3542 10.862 87.1242 11.0919C86.8942 11.3217 86.7648 11.6334 86.7645 11.9586V49.4958C86.7645 49.6569 86.7962 49.8163 86.8579 49.9651C86.9195 50.1139 87.0099 50.2491 87.1239 50.3629C87.2378 50.4767 87.3731 50.567 87.5219 50.6285C87.6707 50.6901 87.8302 50.7216 87.9913 50.7215H87.9867ZM89.2124 13.1843H94.0304V48.2724H89.217L89.2124 13.1843Z" stroke="#3C7CFF" stroke-width="0.6" mask="url(#path-1-outside-1_179_946)"/>
</svg>
