<svg width="92" height="101" viewBox="0 0 92 101" fill="none" xmlns="http://www.w3.org/2000/svg">
<path d="M81.7579 88.3438V1.80192C81.7579 0.881088 81.0121 0.135254 80.0912 0.135254H25C24.5584 0.135254 24.1334 0.310251 23.8208 0.622753L0.487499 23.9561C0.174998 24.2686 0 24.6936 0 25.1353V88.3438C0 89.2647 0.745835 90.0105 1.66667 90.0105H80.0912C81.012 90.0105 81.7579 89.2646 81.7579 88.3438ZM23.3334 5.82752V18.4697C23.3334 21.2279 21.0917 23.4697 18.3334 23.4697H5.69123L23.3334 5.82752ZM78.4246 86.6777H3.33337V26.8025H18.3328C22.9287 26.8025 26.6662 23.065 26.6662 18.4691V3.46965H78.4208L78.4246 86.6777Z" fill="#3C7CFF"/>
<path d="M90.2166 10.2605C89.2957 10.2605 88.5499 11.0064 88.5499 11.9272V96.8019H11.7915C10.8707 96.8019 10.1248 97.5477 10.1248 98.4685C10.1248 99.3894 10.8707 100.135 11.7915 100.135H90.216C91.1368 100.135 91.8827 99.3894 91.8827 98.4685V11.9267C91.8827 11.0058 91.1374 10.2605 90.2166 10.2605Z" fill="#3C7CFF"/>
<path d="M26.912 36.5114L19.7953 40.7822C18.7578 39.8364 17.3911 39.2405 15.8786 39.2405C12.662 39.2405 10.0452 41.8572 10.0452 45.0739C10.0452 48.2907 12.6619 50.9073 15.8786 50.9073C19.0954 50.9073 21.712 48.2907 21.712 45.0739C21.712 44.5739 21.6287 44.0989 21.512 43.6364L28.6287 39.3655C29.6662 40.3114 31.0329 40.9072 32.5454 40.9072C34.0579 40.9072 35.4245 40.3155 36.4621 39.3655L43.5788 43.6364C43.4621 44.0989 43.3788 44.5739 43.3788 45.0739C43.3788 48.2906 45.9954 50.9073 49.2122 50.9073C52.4289 50.9073 55.0455 48.2907 55.0455 45.0739C55.0455 44.0739 54.7706 43.1447 54.3205 42.3198L63.1205 33.5156C63.9455 33.9615 64.8747 34.2406 65.8747 34.2406C69.0913 34.2406 71.7081 31.624 71.7081 28.4072C71.7081 25.1905 69.0914 22.5739 65.8747 22.5739C62.6579 22.5739 60.0413 25.1905 60.0413 28.4072C60.0413 29.4072 60.3163 30.3364 60.7621 31.1614L51.958 39.9655C51.133 39.5197 50.2038 39.2405 49.2038 39.2405C47.6913 39.2405 46.3247 39.8322 45.2871 40.7822L38.1704 36.5114C38.2871 36.0489 38.3704 35.5739 38.3704 35.0738C38.3704 31.8572 35.7538 29.2404 32.5371 29.2404C29.3203 29.2404 26.7037 31.8571 26.7037 35.0738C26.7037 35.5738 26.787 36.0488 26.9037 36.5114H26.912ZM15.8784 47.5738C14.4992 47.5738 13.3783 46.4529 13.3783 45.0737C13.3783 43.6945 14.4992 42.5737 15.8784 42.5737C17.2576 42.5737 18.3785 43.6945 18.3785 45.0737C18.3785 46.4529 17.2576 47.5738 15.8784 47.5738ZM65.8784 25.9076C67.2576 25.9076 68.3785 27.0285 68.3785 28.4077C68.3785 29.7869 67.2576 30.9077 65.8784 30.9077C64.4992 30.9077 63.3783 29.7869 63.3783 28.4077C63.3783 27.0285 64.4992 25.9076 65.8784 25.9076ZM49.2117 42.5743C50.5909 42.5743 51.7118 43.6951 51.7118 45.0743C51.7118 46.4535 50.5909 47.5744 49.2117 47.5744C47.8325 47.5744 46.7117 46.4535 46.7117 45.0743C46.7117 43.6951 47.8325 42.5743 49.2117 42.5743ZM32.5451 32.5743C33.9243 32.5743 35.0451 33.6951 35.0451 35.0743C35.0451 36.4535 33.9243 37.5744 32.5451 37.5744C31.1659 37.5744 30.045 36.4535 30.045 35.0743C30.045 33.6951 31.1659 32.5743 32.5451 32.5743Z" fill="#3C7CFF"/>
<path d="M70.0459 57.7944H22.4918C21.571 57.7944 20.8251 58.5403 20.8251 59.4611C20.8251 60.3819 21.571 61.1278 22.4918 61.1278H70.0459C70.9668 61.1278 71.7126 60.3819 71.7126 59.4611C71.7126 58.5403 70.9668 57.7944 70.0459 57.7944Z" fill="#3C7CFF"/>
<path d="M13.3334 61.1278H15.8792C16.8001 61.1278 17.5459 60.3819 17.5459 59.4611C17.5459 58.5403 16.8001 57.7944 15.8792 57.7944H13.3334C12.4126 57.7944 11.6667 58.5403 11.6667 59.4611C11.6667 60.3819 12.4126 61.1278 13.3334 61.1278Z" fill="#3C7CFF"/>
<path d="M70.0459 66.9027H22.4918C21.571 66.9027 20.8251 67.6485 20.8251 68.5694C20.8251 69.4902 21.571 70.236 22.4918 70.236H70.0459C70.9668 70.236 71.7126 69.4902 71.7126 68.5694C71.7126 67.6485 70.9668 66.9027 70.0459 66.9027Z" fill="#3C7CFF"/>
<path d="M13.3334 70.236H15.8792C16.8001 70.236 17.5459 69.4902 17.5459 68.5694C17.5459 67.6485 16.8001 66.9027 15.8792 66.9027H13.3334C12.4126 66.9027 11.6667 67.6485 11.6667 68.5694C11.6667 69.4902 12.4126 70.236 13.3334 70.236Z" fill="#3C7CFF"/>
<path d="M70.046 76.0111H13.3334C12.4126 76.0111 11.6667 76.7569 11.6667 77.6778C11.6667 78.5986 12.4126 79.3444 13.3334 79.3444H70.046C70.9668 79.3444 71.7126 78.5986 71.7126 77.6778C71.7126 76.7569 70.9668 76.0111 70.046 76.0111Z" fill="#3C7CFF"/>
</svg>
