<svg width="92" height="101" viewBox="0 0 92 101" fill="none" xmlns="http://www.w3.org/2000/svg">
<path d="M81.7579 88.8041V2.26225C81.7579 1.34142 81.0121 0.595581 80.0912 0.595581H25C24.5584 0.595581 24.1334 0.770578 23.8208 1.08308L0.487499 24.4164C0.174998 24.7289 0 25.1539 0 25.5956V88.8042C0 89.725 0.745835 90.4708 1.66667 90.4708H80.0912C81.012 90.4708 81.7579 89.725 81.7579 88.8041ZM23.3334 6.28785V18.93C23.3334 21.6883 21.0917 23.93 18.3334 23.93H5.69123L23.3334 6.28785ZM78.4246 87.138H3.33337V27.2628H18.3328C22.9287 27.2628 26.6662 23.5253 26.6662 18.9294V3.92998H78.4208L78.4246 87.138Z" fill="#3C7CFF"/>
<path d="M90.2165 10.7209C89.2957 10.7209 88.5498 11.4667 88.5498 12.3875V97.2622H11.7914C10.8706 97.2622 10.1248 98.008 10.1248 98.9289C10.1248 99.8497 10.8706 100.596 11.7914 100.596H90.216C91.1368 100.596 91.8826 99.8497 91.8826 98.9289V12.387C91.8826 11.4662 91.1373 10.7209 90.2165 10.7209Z" fill="#3C7CFF"/>
<path d="M26.9119 36.9717L19.7952 41.2425C18.7577 40.2967 17.3911 39.7009 15.8786 39.7009C12.6619 39.7009 10.0452 42.3175 10.0452 45.5342C10.0452 48.751 12.6618 51.3676 15.8786 51.3676C19.0953 51.3676 21.7119 48.751 21.7119 45.5342C21.7119 45.0342 21.6286 44.5592 21.5119 44.0967L28.6286 39.8259C29.6661 40.7717 31.0328 41.3675 32.5453 41.3675C34.0579 41.3675 35.4245 40.7759 36.462 39.8259L43.5787 44.0967C43.462 44.5592 43.3787 45.0342 43.3787 45.5342C43.3787 48.7509 45.9954 51.3676 49.2121 51.3676C52.4288 51.3676 55.0455 48.751 55.0455 45.5342C55.0455 44.5342 54.7705 43.6051 54.3205 42.7801L63.1205 33.976C63.9455 34.4218 64.8746 34.701 65.8746 34.701C69.0913 34.701 71.708 32.0843 71.708 28.8676C71.708 25.6508 69.0914 23.0342 65.8746 23.0342C62.6579 23.0342 60.0412 25.6508 60.0412 28.8676C60.0412 29.8676 60.3162 30.7967 60.7621 31.6217L51.9579 40.4259C51.1329 39.98 50.2038 39.7009 49.2038 39.7009C47.6912 39.7009 46.3246 40.2925 45.2871 41.2425L38.1704 36.9717C38.2871 36.5092 38.3704 36.0342 38.3704 35.5341C38.3704 32.3175 35.7537 29.7008 32.537 29.7008C29.3202 29.7008 26.7036 32.3174 26.7036 35.5341C26.7036 36.0341 26.7869 36.5091 26.9036 36.9717H26.9119ZM15.8783 48.0341C14.4991 48.0341 13.3783 46.9132 13.3783 45.534C13.3783 44.1548 14.4991 43.034 15.8783 43.034C17.2575 43.034 18.3784 44.1548 18.3784 45.534C18.3784 46.9132 17.2575 48.0341 15.8783 48.0341ZM65.8783 26.368C67.2575 26.368 68.3784 27.4888 68.3784 28.868C68.3784 30.2472 67.2575 31.3681 65.8783 31.3681C64.4991 31.3681 63.3783 30.2472 63.3783 28.868C63.3783 27.4888 64.4991 26.368 65.8783 26.368ZM49.2117 43.0346C50.5909 43.0346 51.7117 44.1555 51.7117 45.5347C51.7117 46.9139 50.5909 48.0347 49.2117 48.0347C47.8325 48.0347 46.7116 46.9139 46.7116 45.5347C46.7116 44.1555 47.8325 43.0346 49.2117 43.0346ZM32.545 33.0346C33.9242 33.0346 35.0451 34.1555 35.0451 35.5347C35.0451 36.9139 33.9242 38.0347 32.545 38.0347C31.1658 38.0347 30.045 36.9139 30.045 35.5347C30.045 34.1555 31.1658 33.0346 32.545 33.0346Z" fill="#3C7CFF"/>
<path d="M70.046 58.2548H22.4919C21.571 58.2548 20.8252 59.0006 20.8252 59.9214C20.8252 60.8423 21.571 61.5881 22.4919 61.5881H70.046C70.9668 61.5881 71.7127 60.8423 71.7127 59.9214C71.7127 59.0006 70.9668 58.2548 70.046 58.2548Z" fill="#3C7CFF"/>
<path d="M13.3334 61.5881H15.8792C16.8001 61.5881 17.5459 60.8423 17.5459 59.9214C17.5459 59.0006 16.8001 58.2548 15.8792 58.2548H13.3334C12.4126 58.2548 11.6667 59.0006 11.6667 59.9214C11.6667 60.8423 12.4126 61.5881 13.3334 61.5881Z" fill="#3C7CFF"/>
<path d="M70.046 67.363H22.4919C21.571 67.363 20.8252 68.1089 20.8252 69.0297C20.8252 69.9505 21.571 70.6964 22.4919 70.6964H70.046C70.9668 70.6964 71.7127 69.9505 71.7127 69.0297C71.7127 68.1089 70.9668 67.363 70.046 67.363Z" fill="#3C7CFF"/>
<path d="M13.3334 70.6964H15.8792C16.8001 70.6964 17.5459 69.9505 17.5459 69.0297C17.5459 68.1089 16.8001 67.363 15.8792 67.363H13.3334C12.4126 67.363 11.6667 68.1089 11.6667 69.0297C11.6667 69.9505 12.4126 70.6964 13.3334 70.6964Z" fill="#3C7CFF"/>
<path d="M70.046 76.4714H13.3334C12.4126 76.4714 11.6667 77.2173 11.6667 78.1381C11.6667 79.0589 12.4126 79.8048 13.3334 79.8048H70.046C70.9668 79.8048 71.7126 79.0589 71.7126 78.1381C71.7126 77.2173 70.9668 76.4714 70.046 76.4714Z" fill="#3C7CFF"/>
</svg>
