<svg width="80" height="102" viewBox="0 0 80 102" fill="none" xmlns="http://www.w3.org/2000/svg">
<path d="M26.4527 25.5631L26.453 25.5633L35.4206 29.804L35.4214 29.8044C35.5897 29.8833 35.772 29.9231 35.9532 29.9231C36.1348 29.9231 36.3168 29.8827 36.4844 29.8047L36.4858 29.804L45.4533 25.5633L45.4536 25.5631C45.8887 25.3567 46.166 24.9192 46.166 24.4374V13.5947C46.166 13.5187 46.1454 13.4559 46.1335 13.4215C46.128 13.4053 46.1242 13.3945 46.1215 13.3871C46.1174 13.3754 46.1161 13.3718 46.1152 13.3676L46.1148 13.3652C46.1019 13.2895 46.0841 13.1846 46.0383 13.0805L46.0384 13.0805L46.036 13.0755C46.0036 13.0061 45.9638 12.9491 45.9344 12.907C45.9333 12.9054 45.9321 12.9037 45.931 12.9021C45.8579 12.7906 45.7691 12.6969 45.667 12.6158C45.6626 12.6102 45.6568 12.6031 45.6502 12.5959C45.6366 12.5809 45.6168 12.5619 45.5898 12.5443L45.5898 12.5443L45.5866 12.5422C45.5666 12.5296 45.5475 12.5212 45.5316 12.5155C45.5305 12.5146 45.5293 12.5136 45.5281 12.5126C45.5103 12.4978 45.4731 12.4668 45.4219 12.4432L45.4203 12.4425L36.4121 8.3592L36.4111 8.35877C36.0832 8.21181 35.7104 8.21312 35.3836 8.35962L35.3823 8.36021L26.5181 12.3942C26.5181 12.3942 26.5181 12.3942 26.5181 12.3942C26.2666 12.5084 26.097 12.7006 25.9799 12.898C25.8473 13.0878 25.7407 13.321 25.7407 13.5942V24.4374C25.7407 24.9191 26.018 25.3567 26.4527 25.5631ZM28.2306 23.6496V15.5608L34.7078 18.6236V26.7125L28.2306 23.6496ZM43.6758 15.5608V23.6496L37.1985 26.7125V18.6236L43.6758 15.5608ZM29.896 13.5931L35.899 10.8615L41.9683 13.613L35.9532 16.457L29.896 13.5931Z" fill="#3C7CFF" stroke="#3C7CFF" stroke-width="0.5"/>
<path d="M19.8954 65.6411C19.8959 64.9531 19.3385 64.396 18.6505 64.396H8.42657C7.73833 64.396 7.18164 64.9533 7.18164 65.6409V99.9214C7.18164 100.61 7.7389 101.166 8.42657 101.166H18.6505C19.3387 101.166 19.8954 100.609 19.8954 99.9214V65.6411ZM19.8954 65.6411L19.6454 65.6409H19.8954V65.6411ZM17.4056 98.6765H9.6715V66.8863H17.4056V98.6765Z" fill="#3C7CFF" stroke="#3C7CFF" stroke-width="0.5"/>
<path d="M38.2961 55.0397H28.0731C27.3848 55.0397 26.8281 55.5969 26.8281 56.2846V99.9214C26.8281 100.61 27.3854 101.166 28.0731 101.166H38.2961C38.9844 101.166 39.541 100.609 39.541 99.9214V56.285C39.541 55.597 38.9844 55.0397 38.2961 55.0397ZM37.0512 98.6765H29.3184V57.53H37.0512V98.6765Z" fill="#3C7CFF" stroke="#3C7CFF" stroke-width="0.5"/>
<path d="M57.943 58.917H47.7191C47.0308 58.917 46.4741 59.4742 46.4741 60.1619V99.9213C46.4741 100.61 47.0314 101.166 47.7191 101.166H57.943C58.6312 101.166 59.1879 100.609 59.1879 99.9213V60.1619C59.1879 59.4742 58.6312 58.917 57.943 58.917ZM56.698 98.6764H48.964V61.4073H56.698V98.6764Z" fill="#3C7CFF" stroke="#3C7CFF" stroke-width="0.5"/>
<path d="M77.588 45.9524H67.3641C66.6758 45.9524 66.1191 46.5096 66.1191 47.1973V99.9213C66.1191 100.61 66.6764 101.166 67.3641 101.166H77.588C78.2762 101.166 78.8329 100.609 78.8329 99.9213V47.1977C78.8329 46.5097 78.2763 45.9524 77.588 45.9524ZM76.3426 98.6764H68.6086V48.4427H76.3426V98.6764Z" fill="#3C7CFF" stroke="#3C7CFF" stroke-width="0.5"/>
<path d="M54.2403 47.3146C53.834 47.0674 53.3653 46.8872 52.8305 46.8872C51.9034 46.8872 51.1221 47.3568 50.6106 48.0298L35.9423 45.1358C35.6186 43.8995 34.5376 42.9571 33.1849 42.9571C31.5833 42.9571 30.2808 44.2597 30.2808 45.8613C30.2808 45.8625 30.2808 45.8637 30.2808 45.8649L15.4732 52.9166C14.9509 52.4755 14.278 52.2039 13.5393 52.2039C11.8783 52.2039 10.5273 53.554 10.5273 55.2159C10.5273 56.8776 11.8781 58.2295 13.5393 58.2295C15.2005 58.2295 16.5512 56.8776 16.5512 55.2159C16.5512 55.1969 16.5505 55.1785 16.5492 55.1611L31.3727 48.1028C31.8661 48.5058 32.4892 48.7654 33.1845 48.7654C34.1392 48.7654 34.9429 48.2779 35.4636 47.5802L50.1319 50.4742C50.4581 51.6744 51.5128 52.5868 52.8301 52.5868C54.4015 52.5868 55.6794 51.3089 55.6794 49.7374C55.6794 49.6236 55.657 49.5227 55.6356 49.4406C55.6306 49.4214 55.6259 49.4039 55.6214 49.3877L71.0074 39.2352C71.4296 39.498 71.9182 39.6884 72.4765 39.6884C74.084 39.6884 75.3913 38.3812 75.3913 36.7736C75.3913 35.1661 74.084 33.8589 72.4765 33.8589C70.869 33.8589 69.5618 35.1661 69.5618 36.7736C69.5618 36.8936 69.5849 37.0005 69.6078 37.0893C69.6147 37.116 69.6212 37.1398 69.6272 37.1617L54.2403 47.3146Z" fill="#3C7CFF" stroke="#3C7CFF" stroke-width="0.5"/>
<path d="M32.6942 38.5409C29.2099 37.9433 26.0477 36.4059 23.4534 34.1359L9.83083 44.9524C8.85543 45.727 7.68222 46.1341 6.46276 46.1341C6.20129 46.1341 5.93813 46.1154 5.67369 46.0776C4.1779 45.8637 2.87312 45.0661 2.00128 43.8318L32.6942 38.5409ZM32.6942 38.5409C33.7779 38.7264 34.8624 38.819 35.9392 38.819C39.8234 38.819 43.6045 37.6245 46.8406 35.3363C55.3726 29.3026 57.4057 17.4518 51.3729 8.91932C45.338 0.387296 33.4863 -1.64586 24.9559 4.38781L32.6942 38.5409ZM0.863078 39.5709C0.553355 41.12 0.884779 42.6857 1.79715 43.9761C2.70869 45.2666 4.07452 46.1014 5.6383 46.3251L5.63834 46.3251C5.91438 46.3645 6.18935 46.3841 6.46276 46.3841C7.73902 46.3841 8.96695 45.9577 9.98631 45.1481L23.4465 34.4606C26.0448 36.6855 29.1917 38.1938 32.652 38.7873L32.6521 38.7874C33.7494 38.9752 34.848 39.069 35.9392 39.069C39.8754 39.069 43.7068 37.8584 46.9849 35.5404L46.859 35.3624L46.9849 35.5404C55.6297 29.427 57.6896 17.4202 51.577 8.77499L51.577 8.77495C45.4624 0.130264 33.4547 -1.92972 24.8116 4.18367C20.6246 7.14391 17.8395 11.5596 16.9734 16.6153C16.3799 20.0747 16.7528 23.5447 17.9844 26.7361L3.42159 35.8651L3.42153 35.8652C2.08227 36.7052 1.17416 38.0226 0.863124 39.5707L0.863078 39.5709ZM33.0723 36.3336L33.0723 36.3335C28.6723 35.5782 24.8306 33.156 22.253 29.5106C19.6753 25.8652 18.6722 21.436 19.4268 17.036C20.1813 12.6361 22.6043 8.79443 26.2484 6.21676C29.1734 4.14872 32.5386 3.15603 35.8743 3.15603C41.1204 3.15603 46.2911 5.61418 49.5431 10.2122C54.8625 17.7368 53.07 28.1867 45.5468 33.5073C41.9013 36.0842 37.4671 37.0893 33.0723 36.3336ZM21.6485 32.7075L8.43723 43.1971L8.43716 43.1972C7.74098 43.7503 6.87699 43.9855 5.99153 43.8598C5.11028 43.7332 4.34455 43.2647 3.83032 42.5386C3.31681 41.8115 3.13045 40.9326 3.30462 40.0602C3.47961 39.187 3.98993 38.448 4.74407 37.9751L19.0375 29.0151C19.3924 29.6732 19.7778 30.3227 20.2199 30.9478C20.662 31.5734 21.1461 32.1535 21.6485 32.7075Z" fill="#3C7CFF" stroke="#3C7CFF" stroke-width="0.5"/>
</svg>
