<svg width="100" height="100" viewBox="0 0 100 100" fill="none" xmlns="http://www.w3.org/2000/svg">
<path d="M10.2446 37.3152C8.94196 41.401 8.2813 45.669 8.2813 49.9995C8.2813 54.5319 9.00341 58.9886 10.4279 63.2456C10.6858 64.016 10.2699 64.8489 9.49946 65.1068C9.34472 65.1584 9.18778 65.1837 9.03304 65.1837C8.41738 65.1837 7.84451 64.7952 7.6382 64.1795C6.11385 59.6207 5.34015 54.8502 5.34015 49.9995C5.34015 45.365 6.04691 40.7974 7.44175 36.4219C7.68868 35.6482 8.51505 35.2213 9.28985 35.4671C10.0635 35.7141 10.4915 36.5415 10.2446 37.3152ZM28.7321 13.8739C28.978 13.8739 29.2271 13.8124 29.4564 13.6818C35.6877 10.1491 42.7915 8.28239 49.9995 8.28239C57.2075 8.28239 64.3112 10.1491 70.5425 13.6818C71.2492 14.0824 72.1469 13.8344 72.5475 13.1276C72.9481 12.4208 72.7 11.5231 71.9933 11.1226C65.3197 7.33969 57.7145 5.34015 49.9995 5.34015C42.2844 5.34015 34.6792 7.33969 28.0056 11.1226C27.2989 11.5231 27.0508 12.4208 27.4514 13.1276C27.7225 13.605 28.2207 13.8739 28.7321 13.8739ZM67.1206 88.0533C61.7267 90.4841 55.9663 91.7176 49.9995 91.7176C44.0327 91.7176 38.2722 90.4852 32.8783 88.0544C32.1375 87.7207 31.2672 88.0511 30.9336 88.7907C30.6 89.5315 30.9292 90.4018 31.67 90.7354C37.4469 93.3385 43.6134 94.6588 49.9995 94.6588C56.3855 94.6588 62.552 93.3385 68.3289 90.7354C69.0697 90.4018 69.3989 89.5315 69.0653 88.7907C68.7317 88.05 67.8614 87.7196 67.1206 88.0533ZM90.4984 65.1068C90.6531 65.1584 90.81 65.1837 90.9648 65.1837C91.5793 65.1837 92.1533 64.7952 92.3596 64.1795C93.8851 59.6207 94.6577 54.8502 94.6577 49.9995C94.6577 45.365 93.9509 40.7974 92.5561 36.4219C92.3091 35.6482 91.4817 35.2202 90.708 35.4671C89.9343 35.7141 89.5063 36.5415 89.7532 37.3152C91.0559 41.401 91.7154 45.6679 91.7154 49.9995C91.7154 54.5319 90.9933 58.9886 89.5688 63.2456C89.3131 64.016 89.728 64.8489 90.4984 65.1068ZM0 28.2975V23.2614C0 18.7125 2.85993 14.7529 6.91498 13.1671C5.73194 11.7734 5.0175 9.97684 5.0175 8.01791C5.0175 3.59632 8.65113 0 13.1166 0C17.5821 0 21.2168 3.59741 21.2168 8.01791C21.2168 9.97684 20.5024 11.7734 19.3194 13.1671C23.3733 14.7529 26.2332 18.7125 26.2332 23.2614V28.2975C26.2332 29.5102 25.2467 30.4968 24.034 30.4968H2.19927C0.9866 30.4968 0 29.5102 0 28.2975ZM7.95865 8.01901C7.95865 10.8186 10.2732 13.0958 13.1166 13.0958C15.9601 13.0958 18.2757 10.8186 18.2757 8.01901C18.2757 5.21943 15.9623 2.94114 13.1177 2.94114C10.2732 2.94114 7.95865 5.21943 7.95865 8.01901ZM2.94114 27.5557H23.2932V23.2625C23.2932 19.2349 20.2171 15.8416 16.2399 15.4169C15.2786 15.8163 14.2239 16.0369 13.1166 16.0369C12.0093 16.0369 10.9558 15.8152 9.9944 15.4169C6.01837 15.8427 2.94114 19.2349 2.94114 23.2625V27.5557ZM99.9989 23.2614V28.2975C99.9989 29.5102 99.0123 30.4968 97.7996 30.4968H75.9627C74.7501 30.4968 73.7635 29.5102 73.7635 28.2975V23.2614C73.7635 18.7125 76.6234 14.7529 80.6784 13.1671C79.4954 11.7734 78.781 9.97684 78.781 8.01791C78.781 3.59632 82.4146 0 86.8801 0C91.3467 0 94.9792 3.59741 94.9792 8.01791C94.9792 9.97684 94.2648 11.7723 93.0817 13.1671C97.139 14.7529 99.9989 18.7125 99.9989 23.2614ZM81.7232 8.01901C81.7232 10.8186 84.0377 13.0958 86.8812 13.0958C89.7258 13.0958 92.0392 10.8186 92.0392 8.01901C92.0392 5.21943 89.7247 2.94224 86.8812 2.94224C84.0377 2.94114 81.7232 5.21943 81.7232 8.01901ZM97.0578 23.2614C97.0578 19.2338 93.9805 15.8405 90.0045 15.4158C89.0431 15.8152 87.9885 16.0358 86.8823 16.0358C85.7761 16.0358 84.7214 15.8141 83.7601 15.4158C79.784 15.8416 76.7068 19.2338 76.7068 23.2614V27.5546H97.0578V23.2614ZM26.2343 92.7646V97.8007C26.2343 99.0134 25.2477 100 24.0351 100H2.19927C0.9866 100 0 99.0134 0 97.8007V92.7646C0 88.2157 2.85993 84.2561 6.91498 82.6703C5.73194 81.2765 5.0175 79.48 5.0175 77.5211C5.0175 73.0995 8.65113 69.5032 13.1166 69.5032C17.5821 69.5032 21.2168 73.1006 21.2168 77.5211C21.2168 79.48 20.5024 81.2754 19.3194 82.6703C23.3744 84.2561 26.2343 88.2146 26.2343 92.7646ZM7.95865 77.5211C7.95865 80.3207 10.2732 82.5979 13.1166 82.5979C15.9601 82.5979 18.2757 80.3207 18.2757 77.5211C18.2757 74.7215 15.9612 72.4443 13.1166 72.4443C10.2721 72.4443 7.95865 74.7215 7.95865 77.5211ZM23.2932 92.7646C23.2932 88.737 20.2171 85.3448 16.2399 84.919C15.2786 85.3184 14.2228 85.5401 13.1166 85.5401C12.0104 85.5401 10.9558 85.3184 9.99331 84.919C6.01727 85.3448 2.94005 88.737 2.94005 92.7646V97.0578H23.2921L23.2932 92.7646ZM99.9989 92.7646V97.8007C99.9989 99.0134 99.0123 100 97.7996 100H75.9627C74.7501 100 73.7635 99.0134 73.7635 97.8007V92.7646C73.7635 88.2157 76.6234 84.2561 80.6784 82.6703C79.4954 81.2765 78.781 79.48 78.781 77.5211C78.781 73.0995 82.4146 69.5032 86.8801 69.5032C91.3467 69.5032 94.9792 73.1006 94.9792 77.5211C94.9792 79.48 94.2648 81.2754 93.0817 82.6703C97.139 84.2561 99.9989 88.2146 99.9989 92.7646ZM81.7232 77.5211C81.7232 80.3207 84.0377 82.5979 86.8812 82.5979C89.7258 82.5979 92.0392 80.3207 92.0392 77.5211C92.0392 74.7215 89.7247 72.4443 86.8812 72.4443C84.0377 72.4432 81.7232 74.7215 81.7232 77.5211ZM74.0236 64.2267C72.9382 64.2267 72.0087 63.5638 71.6531 62.5388L71.5982 62.3797C71.5269 62.4159 71.4555 62.451 71.3831 62.4883C70.4503 62.957 69.4845 63.442 68.431 63.8722C68.2763 63.9359 68.1204 63.9907 67.9635 64.0401C68.9808 65.7916 68.7504 68.0195 67.2688 69.5021C66.2811 70.4898 64.9444 70.9233 63.6516 70.8026C63.5013 71.6959 63.0821 72.5519 62.3951 73.2389C61.3273 74.3067 59.8512 74.727 58.464 74.4987C58.2808 75.3295 57.8659 76.0922 57.2514 76.7068C56.4008 77.5573 55.2672 78.0259 54.0589 78.0259C53.4553 78.0259 52.8704 77.9096 52.3293 77.6857C52.1395 78.094 51.8761 78.477 51.5403 78.8139C50.7918 79.5623 49.7964 79.9728 48.7352 79.9728C48.7264 79.9728 48.7187 79.9728 48.71 79.9728C47.652 79.9662 46.6665 79.5503 45.9356 78.8007L35.545 68.1533C35.4199 68.026 35.285 67.8845 35.1379 67.7319C33.7815 66.3195 31.3989 63.8404 28.3425 62.5476C27.9848 63.5671 27.0574 64.2267 25.9754 64.2267H18.6697C17.4296 64.2267 16.421 63.2181 16.421 61.978V38.3743C16.421 37.2823 17.2013 36.3517 18.2757 36.1607C23.696 35.195 29.1832 35.8051 34.5881 37.9726C35.7042 38.4203 36.2694 39.6605 35.8765 40.7963L35.5472 41.7467C38.8736 42.775 41.7588 42.8002 45.827 41.8948L46.0498 41.6852C48.7528 39.1436 52.3491 38.2689 55.918 39.2851C56.6576 39.4958 57.3732 39.7219 58.0657 39.9414C60.0992 40.5856 62.0472 41.198 64.298 41.3011L64.1235 40.7963C63.7306 39.6605 64.2958 38.4203 65.4119 37.9726C70.8157 35.8051 76.304 35.1961 81.7243 36.1607C82.7987 36.3517 83.579 37.2834 83.579 38.3743V61.978C83.579 63.2181 82.5704 64.2267 81.3303 64.2267H74.0236ZM67.1196 40.4616L74.3308 61.2855H80.6356V38.9603C76.1559 38.2656 71.6147 38.7693 67.1196 40.4616ZM32.8794 40.4616C28.3853 38.7693 23.8441 38.2645 19.3633 38.9592V61.2845H25.6681L32.8794 40.4616ZM65.165 65.1727L63.8997 63.8503C63.228 63.5594 62.6003 63.1369 62.0505 62.5871L51.357 51.9002C50.5328 52.6092 49.6351 53.5661 49.6351 54.7832C49.6351 59.6734 44.904 62.5959 40.3288 62.5959C39.5167 62.5959 38.8582 61.9374 38.8582 61.1253V50.9893C38.8582 49.3256 39.4991 47.8441 40.7107 46.7049L42.0551 45.4407C41.5678 45.4736 41.0893 45.4912 40.6185 45.4912C38.5685 45.4912 36.6425 45.174 34.5837 44.5276L29.3072 59.7645C33.0034 61.2669 35.7195 64.0917 37.2593 65.6951C37.3997 65.841 37.5303 65.9771 37.6499 66.1L48.0405 76.7474C48.2809 76.9932 48.5739 77.0316 48.7275 77.0327H48.7341C49.0107 77.0327 49.2686 76.9274 49.4606 76.7353C49.8491 76.3468 49.8491 75.6906 49.4606 75.3032C49.4584 75.301 49.4562 75.2988 49.454 75.2966C49.4518 75.2944 49.4496 75.2933 49.4474 75.2911L43.6595 69.3605C43.0922 68.7789 43.1031 67.8483 43.6848 67.2809C44.2664 66.7135 45.197 66.7245 45.7644 67.3061L52.945 74.6293C53.5585 75.2428 54.5571 75.2428 55.1706 74.6293C55.4658 74.3341 55.6282 73.939 55.6282 73.5165C55.6282 73.094 55.4658 72.6989 55.1706 72.4037C55.1684 72.4015 55.1662 72.3993 55.164 72.3971C55.1618 72.3949 55.1596 72.3939 55.1574 72.3917L49.3695 66.4611C48.8021 65.8794 48.8131 64.9488 49.3948 64.3814C49.9764 63.8141 50.907 63.825 51.4744 64.4067L58.0876 71.1625C58.7011 71.776 59.6997 71.776 60.3132 71.1625C60.9267 70.549 60.9267 69.5504 60.3132 68.9369C60.311 68.9347 60.3099 68.9325 60.3077 68.9303C60.3055 68.9281 60.3033 68.9259 60.3011 68.9237L54.5132 62.9932C53.9459 62.4115 53.9568 61.4809 54.5385 60.9135C55.1201 60.3461 56.0507 60.3571 56.6181 60.9388L62.9613 67.4246C63.5748 68.0381 64.5735 68.0381 65.187 67.4246C65.7982 66.8112 65.7884 65.8235 65.165 65.1727ZM70.627 59.5779L65.3197 44.2522C62.169 44.3202 59.635 43.5213 57.1778 42.7432C56.5051 42.5303 55.8104 42.3108 55.1124 42.111C52.5269 41.3747 50.0236 41.9837 48.0647 43.8252L42.7245 48.846C42.1012 49.4321 41.7983 50.1322 41.7983 50.9883V59.5143C44.3597 59.0292 46.6929 57.3106 46.6929 54.7821C46.6929 51.8728 48.8867 50.1026 50.0653 49.1511C50.2299 49.0183 50.3726 48.9031 50.4714 48.8153C51.053 48.2973 51.9386 48.3226 52.4896 48.8735L64.1301 60.5064C64.9949 61.3712 66.1867 61.6115 67.3193 61.1495C68.2664 60.7632 69.1794 60.3044 70.0629 59.86C70.2473 59.7667 70.4382 59.6723 70.627 59.5779Z" fill="#3C7CFF"/>
</svg>
