<svg width="100" height="85" viewBox="0 0 100 85" fill="none" xmlns="http://www.w3.org/2000/svg">
<path d="M100 22.1702V8.41319C100 3.72149 96.3294 0 91.8187 0H8.18043C3.66979 0 0 3.72149 0 8.41319V75.8421C0 80.5338 3.66979 84.2553 8.18043 84.2553H91.8187C96.3294 84.2553 100 80.5338 100 75.8421V22.2021C100 22.1966 100 22.1913 100 22.1857C100 22.1802 100 22.1749 100 22.1702ZM8.18043 2.97872H91.8187C94.6868 2.97872 97.0213 5.36404 97.0213 8.41319V20.6383H2.97872V8.41319C2.97872 5.36404 5.31234 2.97872 8.18043 2.97872ZM91.8187 81.2766H8.18043C5.31234 81.2766 2.97872 78.8913 2.97872 75.8421V23.617H97.0213V75.8421C97.0213 78.8913 94.6868 81.2766 91.8187 81.2766Z" fill="#3C7CFF"/>
<path d="M26.0235 18.0919C29.3043 18.0919 31.9737 15.3245 31.9737 11.923C31.9737 8.52148 29.3043 5.75403 26.0235 5.75403C22.7426 5.75403 20.0732 8.52148 20.0732 11.923C20.0732 15.3245 22.7424 18.0919 26.0235 18.0919ZM26.0235 8.73275C27.6618 8.73275 28.9949 10.164 28.9949 11.923C28.9949 13.6819 27.662 15.1132 26.0235 15.1132C24.3849 15.1132 23.052 13.6821 23.052 11.923C23.052 10.1638 24.3847 8.73275 26.0235 8.73275Z" fill="#3C7CFF"/>
<path d="M40.5208 18.0919C43.8016 18.0919 46.471 15.3245 46.471 11.923C46.471 8.52148 43.8016 5.75403 40.5208 5.75403C37.2399 5.75403 34.5706 8.52148 34.5706 11.923C34.5706 15.3245 37.2399 18.0919 40.5208 18.0919ZM40.5208 8.73275C42.1591 8.73275 43.4923 10.164 43.4923 11.923C43.4923 13.6819 42.1593 15.1132 40.5208 15.1132C38.8823 15.1132 37.5493 13.6821 37.5493 11.923C37.5493 10.1638 38.8823 8.73275 40.5208 8.73275Z" fill="#3C7CFF"/>
<path d="M11.5259 18.0919C14.8067 18.0919 17.4761 15.3245 17.4761 11.923C17.4761 8.52148 14.8067 5.75403 11.5259 5.75403C8.24504 5.75403 5.57568 8.52148 5.57568 11.923C5.57568 15.3245 8.24504 18.0919 11.5259 18.0919ZM11.5259 8.73275C13.1642 8.73275 14.4974 10.164 14.4974 11.923C14.4974 13.6819 13.1644 15.1132 11.5259 15.1132C9.88738 15.1132 8.55441 13.6821 8.55441 11.923C8.55441 10.1638 9.88738 8.73275 11.5259 8.73275Z" fill="#3C7CFF"/>
<path d="M69.391 48.5106H67.4468V45.9753C67.4468 37.0226 59.7251 29.6889 50.3191 29.6274C40.9172 29.6274 33.1915 36.9611 33.1915 45.9753V48.5106H30.6089C30.4142 48.5126 30.2218 48.5531 30.0429 48.6298C29.8639 48.7065 29.7019 48.8179 29.5661 48.9575C29.4304 49.0972 29.3237 49.2623 29.2521 49.4433C29.1805 49.6244 29.1454 49.8179 29.1489 50.0125V63.7498C29.1489 64.5723 29.7872 65.3191 30.6089 65.3191H38.8823C39.291 65.3032 39.6782 65.1319 39.9649 64.8403C40.2517 64.5487 40.4164 64.1587 40.4255 63.7498V50.0125C40.4138 49.6108 40.2462 49.2294 39.9581 48.949C39.6701 48.6687 39.2843 48.5115 38.8823 48.5106H36.1702V45.9753C36.1702 38.6036 42.5598 32.6062 50.3094 32.6062C58.074 32.657 64.4681 38.6545 64.4681 45.9753V48.5106H61.7049C61.3083 48.5133 60.9288 48.6727 60.6493 48.9541C60.3698 49.2355 60.2129 49.6159 60.2127 50.0125V63.7498C60.2104 64.1535 60.3645 64.5424 60.6427 64.835C60.9209 65.1276 61.3016 65.3011 61.7049 65.3191H63.617V68.0515C63.617 69.0868 62.8193 70 61.7842 70H57.4413C57.1169 68.9576 56.4299 68.0658 55.5048 67.4862C54.5797 66.9066 53.4776 66.6774 52.3981 66.8401C51.3186 67.0029 50.333 67.5468 49.6199 68.3734C48.9068 69.2 48.5133 70.2547 48.5106 71.3464C48.505 72.4209 48.8775 73.4631 49.5629 74.2906C50.2484 75.1182 51.203 75.6782 52.2598 75.8728C53.3165 76.0674 54.408 75.8841 55.3433 75.355C56.2785 74.8259 56.9978 73.9847 57.3753 72.9787H61.7842C64.4619 72.9787 66.5957 70.7291 66.5957 68.0515V65.3191H69.391C70.2127 65.3191 70.851 64.5723 70.851 63.7498V50.0125C70.8546 49.8179 70.8195 49.6244 70.7479 49.4433C70.6763 49.2623 70.5696 49.0972 70.4338 48.9575C70.2981 48.8179 70.1361 48.7065 69.9571 48.6298C69.7781 48.5531 69.5858 48.5126 69.391 48.5106ZM37.4468 62.3404H32.1276V51.4894H37.4468V62.3404ZM53.0864 72.9257C52.7705 72.9257 52.4617 72.8321 52.1991 72.6566C51.9365 72.4811 51.7318 72.2317 51.6109 71.9399C51.49 71.6481 51.4584 71.3269 51.52 71.0172C51.5817 70.7074 51.7338 70.4228 51.9571 70.1995C52.1805 69.9761 52.465 69.824 52.7748 69.7624C53.0846 69.7008 53.4057 69.7324 53.6975 69.8533C53.9893 69.9741 54.2388 70.1788 54.4142 70.4415C54.5897 70.7041 54.6834 71.0129 54.6834 71.3287C54.6829 71.7521 54.5145 72.1581 54.2151 72.4575C53.9157 72.7569 53.5098 72.9253 53.0864 72.9257ZM67.8723 62.3404H63.1915V51.4894H67.8723V62.3404Z" fill="#3C7CFF"/>
</svg>
