<svg width="100" height="86" viewBox="0 0 100 86" fill="none" xmlns="http://www.w3.org/2000/svg">
<path d="M91.6309 85.6071H8.3691C6.14948 85.6071 4.02076 84.7254 2.45125 83.1558C0.881742 81.5863 0 79.4576 0 77.238V8.87105C0 6.65143 0.881742 4.52272 2.45125 2.9532C4.02076 1.38369 6.14948 0.501953 8.3691 0.501953H91.6309C93.8505 0.501953 95.9792 1.38369 97.5488 2.9532C99.1183 4.52272 100 6.65143 100 8.87105V77.2401C99.9994 79.4594 99.1174 81.5876 97.548 83.1566C95.9785 84.7257 93.8502 85.6071 91.6309 85.6071ZM8.3691 3.93758C7.06009 3.93758 5.8047 4.45758 4.87909 5.38318C3.95348 6.30879 3.43348 7.56419 3.43348 8.8732V77.2401C3.43348 78.5492 3.95348 79.8046 4.87909 80.7302C5.8047 81.6558 7.06009 82.1758 8.3691 82.1758H91.6309C92.9399 82.1758 94.1953 81.6558 95.1209 80.7302C96.0465 79.8046 96.5665 78.5492 96.5665 77.2401V8.87105C96.5665 7.56204 96.0465 6.30665 95.1209 5.38104C94.1953 4.45543 92.9399 3.93543 91.6309 3.93543L8.3691 3.93758Z" fill="#3C7CFF"/>
<path d="M90.4979 25.3388H50.8219C50.4212 25.3385 50.0333 25.1981 49.7253 24.9418L42.4185 18.8732H1.71674C1.26143 18.8732 0.824772 18.6923 0.502821 18.3704C0.18087 18.0484 0 17.6117 0 17.1564C0 16.7011 0.18087 16.2645 0.502821 15.9425C0.824772 15.6206 1.26143 15.4397 1.71674 15.4397H43.0386C43.439 15.4394 43.8269 15.5791 44.1352 15.8345L51.4421 21.9054H89.8777L97.1867 15.8345C97.5375 15.5479 97.9873 15.4115 98.4382 15.4551C98.8891 15.4987 99.3045 15.7188 99.5938 16.0673C99.8832 16.4158 100.023 16.8646 99.983 17.3158C99.9429 17.767 99.7261 18.1841 99.3798 18.4762L91.5944 24.9418C91.287 25.199 90.8987 25.3396 90.4979 25.3388Z" fill="#3C7CFF"/>
<path d="M17.7102 11.7251H12.457C12.0017 11.7251 11.565 11.5442 11.2431 11.2223C10.9211 10.9003 10.7402 10.4637 10.7402 10.0084C10.7402 9.55306 10.9211 9.1164 11.2431 8.79445C11.565 8.4725 12.0017 8.29163 12.457 8.29163H17.7102C18.1655 8.29163 18.6022 8.4725 18.9241 8.79445C19.2461 9.1164 19.4269 9.55306 19.4269 10.0084C19.4269 10.4637 19.2461 10.9003 18.9241 11.2223C18.6022 11.5442 18.1655 11.7251 17.7102 11.7251Z" fill="#3C7CFF"/>
<path d="M30.3733 11.7251H25.1201C24.6648 11.7251 24.2281 11.5442 23.9061 11.2223C23.5842 10.9003 23.4033 10.4637 23.4033 10.0084C23.4033 9.55306 23.5842 9.1164 23.9061 8.79445C24.2281 8.4725 24.6648 8.29163 25.1201 8.29163H30.3733C30.8286 8.29163 31.2652 8.4725 31.5872 8.79445C31.9091 9.1164 32.09 9.55306 32.09 10.0084C32.09 10.4637 31.9091 10.9003 31.5872 11.2223C31.2652 11.5442 30.8286 11.7251 30.3733 11.7251Z" fill="#3C7CFF"/>
<path d="M43.0385 11.7251H37.7831C37.3278 11.7251 36.8912 11.5442 36.5692 11.2223C36.2473 10.9003 36.0664 10.4637 36.0664 10.0084C36.0664 9.55306 36.2473 9.1164 36.5692 8.79445C36.8912 8.4725 37.3278 8.29163 37.7831 8.29163H43.0385C43.4938 8.29163 43.9305 8.4725 44.2524 8.79445C44.5744 9.1164 44.7552 9.55306 44.7552 10.0084C44.7552 10.4637 44.5744 10.9003 44.2524 11.2223C43.9305 11.5442 43.4938 11.7251 43.0385 11.7251Z" fill="#3C7CFF"/>
<path d="M86.0367 18.0728H56.0624C55.6071 18.0728 55.1705 17.8919 54.8485 17.5699C54.5266 17.248 54.3457 16.8113 54.3457 16.356C54.3457 15.9007 54.5266 15.4641 54.8485 15.1421C55.1705 14.8202 55.6071 14.6393 56.0624 14.6393H86.0367C86.492 14.6393 86.9287 14.8202 87.2506 15.1421C87.5726 15.4641 87.7534 15.9007 87.7534 16.356C87.7534 16.8113 87.5726 17.248 87.2506 17.5699C86.9287 17.8919 86.492 18.0728 86.0367 18.0728Z" fill="#3C7CFF"/>
<path d="M86.0367 11.2037H56.0624C55.6071 11.2037 55.1705 11.0229 54.8485 10.7009C54.5266 10.379 54.3457 9.94231 54.3457 9.487C54.3457 9.03169 54.5266 8.59504 54.8485 8.27308C55.1705 7.95113 55.6071 7.77026 56.0624 7.77026H86.0367C86.492 7.77026 86.9287 7.95113 87.2506 8.27308C87.5726 8.59504 87.7534 9.03169 87.7534 9.487C87.7534 9.94231 87.5726 10.379 87.2506 10.7009C86.9287 11.0229 86.492 11.2037 86.0367 11.2037Z" fill="#3C7CFF"/>
<path d="M37.3136 33.3046H9.71918C9.26387 33.3046 8.82721 33.1237 8.50526 32.8018C8.18331 32.4798 8.00244 32.0431 8.00244 31.5878C8.00244 31.1325 8.18331 30.6959 8.50526 30.3739C8.82721 30.052 9.26387 29.8711 9.71918 29.8711H37.3136C37.7689 29.8711 38.2056 30.052 38.5275 30.3739C38.8495 30.6959 39.0303 31.1325 39.0303 31.5878C39.0303 32.0431 38.8495 32.4798 38.5275 32.8018C38.2056 33.1237 37.7689 33.3046 37.3136 33.3046Z" fill="#3C7CFF"/>
<path d="M37.3136 26.4332H9.71918C9.26387 26.4332 8.82721 26.2524 8.50526 25.9304C8.18331 25.6085 8.00244 25.1718 8.00244 24.7165C8.00244 24.2612 8.18331 23.8245 8.50526 23.5026C8.82721 23.1806 9.26387 22.9998 9.71918 22.9998H37.3136C37.7689 22.9998 38.2056 23.1806 38.5275 23.5026C38.8495 23.8245 39.0303 24.2612 39.0303 24.7165C39.0303 25.1718 38.8495 25.6085 38.5275 25.9304C38.2056 26.2524 37.7689 26.4332 37.3136 26.4332Z" fill="#3C7CFF"/>
<path d="M70.8971 75.7488C66.547 75.7493 62.2945 74.4597 58.6773 72.0432C55.0602 69.6266 52.2409 66.1917 50.5759 62.1728C48.911 58.154 48.4753 53.7316 49.3239 49.4651C50.1724 45.1985 52.2672 41.2795 55.3431 38.2035C58.4191 35.1275 62.3382 33.0328 66.6047 32.1842C70.8713 31.3357 75.2936 31.7714 79.3125 33.4363C83.3314 35.1012 86.7663 37.9205 89.1828 41.5377C91.5993 45.1548 92.8889 49.4073 92.8885 53.7574C92.8817 59.5878 90.5626 65.1775 86.4398 69.3002C82.3171 73.4229 76.7275 75.742 70.8971 75.7488ZM70.8971 35.1909C67.2262 35.1905 63.6375 36.2787 60.5851 38.3178C57.5326 40.357 55.1534 43.2555 53.7483 46.6469C52.3432 50.0382 51.9753 53.7701 52.6912 57.3706C53.4071 60.971 55.1746 64.2783 57.7702 66.8742C60.3658 69.4701 63.6729 71.238 67.2733 71.9543C70.8736 72.6706 74.6055 72.3032 77.9971 70.8985C81.3886 69.4938 84.2874 67.1149 86.3269 64.0626C88.3664 61.0104 89.455 57.4219 89.455 53.751C89.4476 48.8318 87.4899 44.1162 84.0111 40.6382C80.5323 37.1602 75.8163 35.2036 70.8971 35.1974V35.1909Z" fill="#3C7CFF"/>
<path d="M70.8969 64.3173C68.8077 64.3178 66.7653 63.6986 65.028 62.5382C63.2908 61.3777 61.9366 59.7282 61.1369 57.7981C60.3372 55.868 60.1279 53.7441 60.5354 51.695C60.9428 49.646 61.9488 47.7638 63.4261 46.2865C64.9034 44.8092 66.7856 43.8032 68.8347 43.3957C70.8838 42.9882 73.0077 43.1976 74.9377 43.9973C76.8678 44.797 78.5174 46.1511 79.6778 47.8884C80.8383 49.6257 81.4574 51.6681 81.457 53.7573C81.4536 56.5569 80.3399 59.2409 78.3602 61.2206C76.3806 63.2003 73.6966 64.3139 70.8969 64.3173ZM70.8969 46.6285C69.4869 46.6281 68.1084 47.0458 66.9358 47.8289C65.7632 48.6119 64.8491 49.7251 64.3093 51.0277C63.7694 52.3303 63.6279 53.7637 63.9027 55.1467C64.1775 56.5297 64.8563 57.8001 65.8532 58.7973C66.8501 59.7945 68.1203 60.4736 69.5032 60.7489C70.8861 61.0241 72.3196 60.8831 73.6223 60.3436C74.9251 59.8041 76.0385 58.8904 76.8219 57.718C77.6054 56.5456 78.0235 55.1673 78.0235 53.7573C78.0218 51.8675 77.2705 50.0556 75.9344 48.7191C74.5984 47.3826 72.7867 46.6308 70.8969 46.6285Z" fill="#3C7CFF"/>
<path d="M70.895 46.6286C70.5952 46.6293 70.3003 46.5516 70.0399 46.403C69.7794 46.2544 69.5625 46.0402 69.4105 45.7817C69.2586 45.5232 69.177 45.2294 69.1739 44.9296C69.1708 44.6298 69.2463 44.3343 69.3928 44.0728L72.1332 39.1929L69.3993 34.3195C69.1768 33.9211 69.1216 33.4507 69.246 33.0116C69.3703 32.5726 69.664 32.2009 70.0624 31.9783C70.4608 31.7558 70.9312 31.7007 71.3703 31.825C71.8094 31.9494 72.181 32.243 72.4036 32.6414L75.6074 38.356C75.7514 38.6126 75.8271 38.9019 75.8271 39.1962C75.8271 39.4904 75.7514 39.7797 75.6074 40.0363L72.4036 45.7509C72.2536 46.0187 72.0345 46.2414 71.7691 46.3957C71.5038 46.5501 71.202 46.6305 70.895 46.6286Z" fill="#3C7CFF"/>
<path d="M85.7892 54.8003C85.6444 54.8011 85.5001 54.7831 85.36 54.7467L79.0145 53.1415C78.796 53.0852 78.5907 52.9863 78.4104 52.8506C78.23 52.7149 78.0782 52.545 77.9635 52.3506C77.8488 52.1562 77.7735 51.9412 77.742 51.7177C77.7104 51.4942 77.7232 51.2667 77.7795 51.0482C77.8359 50.8296 77.9348 50.6243 78.0705 50.444C78.2062 50.2637 78.3761 50.1118 78.5705 49.9971C78.7648 49.8825 78.9799 49.8072 79.2034 49.7756C79.4269 49.7441 79.6544 49.7568 79.8729 49.8132L85.2914 51.193L89.2935 47.2896C89.6196 46.9717 90.0586 46.7964 90.514 46.8023C90.9694 46.8081 91.4037 46.9946 91.7216 47.3207C92.0395 47.6468 92.2148 48.0858 92.2089 48.5412C92.2031 48.9966 92.0166 49.431 91.6905 49.7488L86.9995 54.3239C86.6742 54.6353 86.2395 54.8064 85.7892 54.8003Z" fill="#3C7CFF"/>
<path d="M81.0322 73.032C80.724 73.0319 80.4216 72.9489 80.1566 72.7916L74.5236 69.4504C74.2708 69.3001 74.0609 69.0873 73.914 68.8326C73.767 68.5778 73.688 68.2896 73.6845 67.9955L73.6051 61.4376C73.6023 61.2121 73.6439 60.9883 73.7276 60.7789C73.8113 60.5696 73.9353 60.3788 74.0928 60.2173C74.2502 60.0559 74.4379 59.9271 74.6451 59.8382C74.8523 59.7494 75.0749 59.7022 75.3004 59.6994C75.5258 59.6965 75.7496 59.7382 75.959 59.8218C76.1684 59.9055 76.3592 60.0296 76.5206 60.187C76.682 60.3444 76.8108 60.5321 76.8997 60.7393C76.9886 60.9465 77.0358 61.1692 77.0386 61.3946L77.1094 66.9848L81.9163 69.8388C82.2401 70.031 82.4917 70.3242 82.6325 70.6734C82.7732 71.0225 82.7953 71.4083 82.6953 71.7713C82.5953 72.1342 82.3787 72.4542 82.079 72.682C81.7792 72.9099 81.4129 73.0328 81.0364 73.032H81.0322Z" fill="#3C7CFF"/>
<path d="M56.56 69.8108C56.4026 69.8104 56.2459 69.7887 56.0943 69.7465C55.6561 69.623 55.2849 69.3304 55.0623 68.9332C54.8398 68.536 54.7841 68.0667 54.9076 67.6284L56.6823 61.3194C56.762 61.0366 56.913 60.779 57.1208 60.5712C57.3285 60.3634 57.5862 60.2124 57.869 60.1327L64.178 58.3581C64.3965 58.2922 64.6259 58.2705 64.8528 58.2943C65.0797 58.3181 65.2996 58.3868 65.4996 58.4966C65.6997 58.6064 65.8758 58.7549 66.0178 58.9336C66.1598 59.1122 66.2647 59.3173 66.3264 59.537C66.3882 59.7566 66.4055 59.9864 66.3775 60.2128C66.3494 60.4393 66.2765 60.6578 66.163 60.8558C66.0494 61.0537 65.8976 61.227 65.7163 61.3656C65.5351 61.5041 65.328 61.6052 65.1072 61.6628L59.7274 63.1778L58.2123 68.5576C58.1113 68.9181 57.8951 69.2357 57.5968 69.4619C57.2985 69.6882 56.9344 69.8107 56.56 69.8108Z" fill="#3C7CFF"/>
<path d="M63.2383 51.0514C62.9404 51.0513 62.6476 50.9737 62.3887 50.8262C62.1298 50.6787 61.9138 50.4664 61.7619 50.2102L58.9057 45.4162L53.3155 45.3454C53.0901 45.3425 52.8674 45.2953 52.6602 45.2065C52.453 45.1176 52.2653 44.9888 52.1079 44.8274C51.79 44.5014 51.6146 44.0625 51.6203 43.6072C51.6259 43.1519 51.8123 42.7174 52.1383 42.3995C52.4642 42.0816 52.9031 41.9062 53.3585 41.9119L59.9121 41.9956C60.2062 41.9991 60.4944 42.0781 60.7492 42.225C61.0039 42.3719 61.2167 42.5819 61.367 42.8346L64.7125 48.4677C64.8675 48.7282 64.9507 49.0251 64.9538 49.3283C64.9568 49.6314 64.8795 49.9299 64.7297 50.1935C64.5799 50.4571 64.363 50.6763 64.1011 50.8288C63.8391 50.9814 63.5414 51.0619 63.2383 51.0621V51.0514Z" fill="#3C7CFF"/>
<path d="M14.781 75.7487C10.5771 75.7487 7.15869 72.4568 7.15869 68.4096C7.15869 64.3624 10.5771 61.0813 14.781 61.0813C16.4157 61.0825 18.0094 61.5925 19.3411 62.5405C19.5243 62.6721 19.6797 62.8385 19.7986 63.0302C19.9175 63.2219 19.9974 63.4351 20.0339 63.6577C20.0703 63.8803 20.0626 64.1079 20.0111 64.3275C19.9596 64.547 19.8654 64.7543 19.7338 64.9375C19.6022 65.1207 19.4358 65.2762 19.2441 65.395C19.0524 65.5139 18.8392 65.5938 18.6166 65.6303C18.3941 65.6668 18.1665 65.659 17.9469 65.6076C17.7273 65.5561 17.52 65.4618 17.3368 65.3302C16.5901 64.7998 15.6969 64.5149 14.781 64.5148C12.4698 64.5148 10.5922 66.268 10.5922 68.4204C10.5922 70.5727 12.4698 72.3259 14.781 72.3259C15.6967 72.3265 16.5898 72.0423 17.3368 71.5126C17.52 71.381 17.7273 71.2868 17.9469 71.2353C18.1665 71.1838 18.3941 71.1761 18.6166 71.2125C18.8392 71.249 19.0524 71.329 19.2441 71.4478C19.4358 71.5667 19.6022 71.7222 19.7338 71.9053C19.8654 72.0885 19.9596 72.2958 20.0111 72.5154C20.0626 72.735 20.0703 72.9626 20.0339 73.1852C19.9974 73.4077 19.9175 73.621 19.7986 73.8126C19.6797 74.0043 19.5243 74.1707 19.3411 74.3023C18.0079 75.2457 16.4143 75.7512 14.781 75.7487Z" fill="#3C7CFF"/>
<path d="M46.2832 75.7488C45.8279 75.7488 45.3912 75.5679 45.0693 75.2459C44.7473 74.924 44.5665 74.4873 44.5665 74.032V71.3046L43.133 74.6973C43.002 75.0089 42.782 75.2749 42.5004 75.4619C42.2189 75.649 41.8884 75.7488 41.5504 75.7488C41.2123 75.7488 40.8819 75.649 40.6003 75.4619C40.3188 75.2749 40.0987 75.0089 39.9677 74.6973L38.5429 71.3046V74.032C38.5429 74.4873 38.362 74.924 38.04 75.2459C37.7181 75.5679 37.2814 75.7488 36.8261 75.7488C36.3708 75.7488 35.9341 75.5679 35.6122 75.2459C35.2902 74.924 35.1094 74.4873 35.1094 74.032V62.7852C35.1088 62.3884 35.2457 62.0036 35.4969 61.6963C35.748 61.389 36.0979 61.1782 36.4869 61.0998C36.876 61.0213 37.2802 61.0801 37.6307 61.2662C37.9813 61.4522 38.2566 61.7539 38.4098 62.12L41.5514 69.5986L44.6931 62.12C44.8463 61.7539 45.1216 61.4522 45.4721 61.2662C45.8227 61.0801 46.2269 61.0213 46.616 61.0998C47.005 61.1782 47.3549 61.389 47.606 61.6963C47.8572 62.0036 47.9941 62.3884 47.9935 62.7852V74.032C47.9935 74.4862 47.8135 74.9219 47.493 75.2437C47.1724 75.5654 46.7374 75.7471 46.2832 75.7488Z" fill="#3C7CFF"/>
<path d="M27.6006 70.1264H24.0341C23.5788 70.1264 23.1422 69.9455 22.8202 69.6235C22.4983 69.3016 22.3174 68.8649 22.3174 68.4096V62.798C22.3174 62.3427 22.4983 61.9061 22.8202 61.5841C23.1422 61.2622 23.5788 61.0813 24.0341 61.0813H27.6028C31.0534 61.0813 32.8582 63.3603 32.8582 65.6092C32.8582 67.8581 31.0513 70.1264 27.6006 70.1264ZM25.7487 66.6929H27.6006C28.8603 66.6929 29.4225 66.1435 29.4225 65.5985C29.4225 65.0534 28.8603 64.504 27.6006 64.504H25.7509L25.7487 66.6929Z" fill="#3C7CFF"/>
<path d="M24.0341 75.7488C23.5788 75.7488 23.1422 75.5679 22.8202 75.246C22.4983 74.924 22.3174 74.4874 22.3174 74.0321V68.4097C22.3174 67.9544 22.4983 67.5178 22.8202 67.1958C23.1422 66.8739 23.5788 66.693 24.0341 66.693C24.4894 66.693 24.9261 66.8739 25.248 67.1958C25.57 67.5178 25.7509 67.9544 25.7509 68.4097V74.0321C25.7509 74.4874 25.57 74.924 25.248 75.246C24.9261 75.5679 24.4894 75.7488 24.0341 75.7488Z" fill="#3C7CFF"/>
<path d="M31.1421 75.7488C30.8515 75.7491 30.5656 75.6756 30.3111 75.5352C30.0566 75.3949 29.8419 75.1922 29.6872 74.9462L26.1486 69.3239C26.0238 69.1331 25.9383 68.9193 25.897 68.6951C25.8557 68.4709 25.8595 68.2408 25.9082 68.018C25.9568 67.7953 26.0493 67.5845 26.1803 67.3979C26.3113 67.2114 26.4781 67.0527 26.6711 66.9313C26.864 66.8099 27.0792 66.7282 27.3041 66.6908C27.529 66.6535 27.7591 66.6613 27.9809 66.7138C28.2027 66.7663 28.4119 66.8625 28.5962 66.9967C28.7804 67.1309 28.9361 67.3005 29.0541 67.4955L32.5928 73.1157C32.7566 73.3753 32.8479 73.6741 32.857 73.981C32.8661 74.2878 32.7928 74.5915 32.6447 74.8604C32.4965 75.1293 32.279 75.3536 32.0147 75.5098C31.7504 75.666 31.4491 75.7486 31.1421 75.7488Z" fill="#3C7CFF"/>
<path d="M41.7986 42.0105H9.71918C9.26387 42.0105 8.82721 41.8296 8.50526 41.5077C8.18331 41.1857 8.00244 40.7491 8.00244 40.2938C8.00244 39.8385 8.18331 39.4018 8.50526 39.0798C8.82721 38.7579 9.26387 38.577 9.71918 38.577H41.7986C42.2539 38.577 42.6905 38.7579 43.0125 39.0798C43.3344 39.4018 43.5153 39.8385 43.5153 40.2938C43.5153 40.7491 43.3344 41.1857 43.0125 41.5077C42.6905 41.8296 42.2539 42.0105 41.7986 42.0105Z" fill="#3C7CFF"/>
<path d="M41.7986 49.0169H9.71918C9.26387 49.0169 8.82721 48.836 8.50526 48.514C8.18331 48.1921 8.00244 47.7554 8.00244 47.3001C8.00244 46.8448 8.18331 46.4081 8.50526 46.0862C8.82721 45.7642 9.26387 45.5834 9.71918 45.5834H41.7986C42.2539 45.5834 42.6905 45.7642 43.0125 46.0862C43.3344 46.4081 43.5153 46.8448 43.5153 47.3001C43.5153 47.7554 43.3344 48.1921 43.0125 48.514C42.6905 48.836 42.2539 49.0169 41.7986 49.0169Z" fill="#3C7CFF"/>
<path d="M41.7986 56.0214H9.71918C9.26387 56.0214 8.82721 55.8405 8.50526 55.5185C8.18331 55.1966 8.00244 54.7599 8.00244 54.3046C8.00244 53.8493 8.18331 53.4127 8.50526 53.0907C8.82721 52.7688 9.26387 52.5879 9.71918 52.5879H41.7986C42.2539 52.5879 42.6905 52.7688 43.0125 53.0907C43.3344 53.4127 43.5153 53.8493 43.5153 54.3046C43.5153 54.7599 43.3344 55.1966 43.0125 55.5185C42.6905 55.8405 42.2539 56.0214 41.7986 56.0214Z" fill="#3C7CFF"/>
</svg>
