<svg width="98" height="100" viewBox="0 0 98 100" fill="none" xmlns="http://www.w3.org/2000/svg">
<path d="M92.5494 85.2098H4.54142C2.03198 85.2098 0 83.1668 0 80.6684V17.2329C0 14.7235 2.04308 12.6915 4.54142 12.6915H25.1388L24.9389 14.5347C24.9278 14.6236 24.9389 14.7568 25.0278 14.9012L26.871 17.7437C27.8925 19.3093 28.0036 21.3191 27.1597 22.9736C26.6267 24.0284 26.1714 25.1277 25.7939 26.2603C25.2165 28.0258 23.7175 29.3582 21.8965 29.7468L18.5876 30.4575C18.3322 30.513 18.1435 30.7462 18.1435 31.0015V36.4979C18.1435 36.7644 18.3322 36.9864 18.5876 37.042L21.8965 37.7526C23.7286 38.1412 25.2165 39.4848 25.7939 41.2392C26.1603 42.3606 26.6267 43.471 27.1597 44.5259C28.0036 46.1914 27.8925 48.1901 26.871 49.7557L25.0278 52.5983C24.8834 52.8203 24.9167 53.1201 25.1055 53.2978L28.9918 57.1841C29.1805 57.3729 29.4692 57.4062 29.6913 57.2618L32.5339 55.4186C34.0995 54.3971 36.1093 54.286 37.7637 55.1299C38.8186 55.6629 39.9178 56.1181 41.0504 56.4957C42.8159 57.0731 44.1483 58.572 44.537 60.3931L45.2476 63.702C45.3031 63.9574 45.5363 64.1461 45.7917 64.1461H51.288C51.5545 64.1461 51.7766 63.9574 51.8321 63.702L52.5428 60.3931C52.9314 58.5609 54.2749 57.0731 56.0293 56.4957C57.1508 56.1292 58.2612 55.6629 59.316 55.1299C60.9705 54.286 62.9802 54.3971 64.5459 55.4186L67.3884 57.2618C67.6105 57.4062 67.9103 57.3729 68.0879 57.1841L71.9742 53.2978C72.163 53.109 72.1963 52.8203 72.052 52.5983L70.2088 49.7557C69.1872 48.1901 69.0762 46.1803 69.9201 44.5259C70.453 43.471 70.9083 42.3606 71.2747 41.2392C71.8521 39.4737 73.3511 38.1412 75.1721 37.7526L78.481 37.042C78.7364 36.9864 78.9252 36.7533 78.9252 36.4979V31.0015C78.9252 30.7351 78.7364 30.5019 78.481 30.4575L75.1721 29.7468C73.3511 29.3582 71.8521 28.0258 71.2636 26.2603C70.8972 25.1277 70.4308 24.0284 69.8978 22.9736C69.054 21.308 69.165 19.3093 70.1865 17.7437L72.0298 14.9012C72.1186 14.7679 72.1297 14.6236 72.1186 14.5347L71.9187 12.6915H92.5161C95.0255 12.6915 97.0575 14.7346 97.0575 17.2329V80.6795C97.1019 83.1779 95.0589 85.2098 92.5494 85.2098ZM4.54142 16.0115C3.87519 16.0115 3.33111 16.5556 3.33111 17.2218V80.6684C3.33111 81.3347 3.87519 81.8787 4.54142 81.8787H92.5494C93.2156 81.8787 93.7597 81.3347 93.7597 80.6684V17.2329C93.7597 16.5667 93.2156 16.0226 92.5494 16.0226H75.2054C75.1166 16.2558 74.9945 16.489 74.8501 16.7111L73.0069 19.5536C72.6294 20.131 72.596 20.8639 72.8958 21.4746C73.5066 22.6738 74.0284 23.9396 74.4504 25.2165C74.6613 25.8605 75.2165 26.3491 75.8828 26.4934L79.1917 27.193C80.9794 27.5705 82.2785 29.1694 82.2785 31.0015V36.4979C82.2785 38.33 80.9794 39.9289 79.1917 40.3065L75.8828 41.0171C75.2054 41.1614 74.6613 41.65 74.4504 42.294C74.0284 43.5709 73.5066 44.8368 72.8958 46.036C72.5849 46.6467 72.6294 47.3795 73.0069 47.9569L74.8612 50.7772C75.8494 52.3096 75.6385 54.3526 74.3504 55.6518L70.4641 59.5381C69.1761 60.8261 67.1219 61.0482 65.5896 60.0488L62.7471 58.2056C62.1697 57.8281 61.4368 57.7837 60.8261 58.0946C59.6269 58.7053 58.3611 59.2272 57.0842 59.6491C56.4402 59.8601 55.9516 60.4042 55.8072 61.0815L55.1077 64.3904C54.7302 66.1781 53.1312 67.4772 51.2991 67.4772H45.8028C43.9818 67.4772 42.3718 66.1781 41.9942 64.3904L41.2947 61.0815C41.1503 60.4042 40.6618 59.8601 40.0178 59.6491C38.7297 59.2272 37.475 58.7053 36.2758 58.0946C35.6651 57.7837 34.9323 57.8281 34.3549 58.2056L31.5123 60.0488C29.98 61.0371 27.9369 60.8261 26.6378 59.5381L22.7515 55.6518C21.4635 54.3637 21.2414 52.3096 22.2407 50.7772L24.0839 47.9347C24.4615 47.3573 24.4948 46.6245 24.195 46.0138C23.5843 44.8035 23.0624 43.5487 22.6405 42.2718C22.4295 41.6278 21.8854 41.1392 21.2081 41.006L17.8992 40.2953C16.1115 39.9178 14.8123 38.3189 14.8123 36.4868V30.9904C14.8123 29.1694 16.1115 27.5594 17.8992 27.1819L21.2081 26.4823C21.8854 26.338 22.4295 25.8494 22.6405 25.2054C23.0624 23.9174 23.5843 22.6627 24.195 21.4635C24.5059 20.8528 24.4615 20.1199 24.0839 19.5425L22.2296 16.7C22.0853 16.4779 21.9742 16.2558 21.8743 16.0115H4.54142Z" fill="#3C7CFF"/>
<path d="M58.8716 100H38.2188V81.8788H58.8716V100ZM41.5499 96.6689H55.5405V85.2099H41.5499V96.6689Z" fill="#3C7CFF"/>
<path d="M67.022 96.6689H30.0688V100H67.022V96.6689Z" fill="#3C7CFF"/>
<path d="M95.4251 69.6536H1.6543V72.9847H95.4251V69.6536Z" fill="#3C7CFF"/>
<path d="M37.9633 42.9824L29.1914 33.7441L37.9633 24.4948L40.3839 26.7821L33.7883 33.7441L40.3839 40.6951L37.9633 42.9824Z" fill="#3C7CFF"/>
<path d="M59.1272 42.9824L56.7065 40.6951L63.3021 33.7441L56.7065 26.7821L59.1272 24.4948L67.8991 33.7441L59.1272 42.9824Z" fill="#3C7CFF"/>
<path d="M54.7606 23.1899L51.687 21.9054L42.336 44.2813L45.4096 45.5658L54.7606 23.1899Z" fill="#3C7CFF"/>
<path d="M51.2993 67.4772H45.8029C43.9819 67.4772 42.3719 66.1781 41.9944 64.3904L41.2948 61.0815C41.1505 60.4042 40.6619 59.8601 40.0179 59.6491C38.7299 59.2272 37.4752 58.7053 36.276 58.0946C35.6653 57.7837 34.9324 57.8281 34.355 58.2056L31.5125 60.0488C29.9802 61.0371 27.9371 60.8261 26.638 59.5381L22.7517 55.6518C21.4636 54.3638 21.2415 52.3096 22.2409 50.7773L24.0841 47.9347C24.4616 47.3573 24.4949 46.6245 24.1951 46.0138C23.5844 44.8035 23.0626 43.5487 22.6406 42.2718C22.4296 41.6278 21.8856 41.1392 21.2082 41.006L17.8993 40.2954C16.1116 39.9178 14.8125 38.3189 14.8125 36.4868V30.9904C14.8125 29.1694 16.1116 27.5594 17.8993 27.1819L21.2082 26.4823C21.8856 26.338 22.4296 25.8494 22.6406 25.2054C23.0626 23.9174 23.5844 22.6627 24.1951 21.4635C24.506 20.8528 24.4616 20.1199 24.0841 19.5425L22.2298 16.7C21.7523 15.956 21.5302 15.0566 21.6191 14.1794C21.6302 14.024 21.6635 13.8574 21.6968 13.6909C21.8634 12.9802 22.2187 12.3362 22.7405 11.8254L26.6268 7.93915C27.926 6.65112 29.9691 6.42905 31.5014 7.42838L34.3439 9.2716C34.9213 9.64912 35.6542 9.68243 36.2649 9.38263C37.4641 8.77193 38.7299 8.25005 40.0068 7.82811C40.6508 7.61714 41.1394 7.07306 41.2837 6.39574L41.9833 3.08683C42.3608 1.29913 43.9597 0 45.7918 0H51.2882C53.1203 0 54.7192 1.29913 55.0968 3.08683L55.7963 6.39574C55.9406 7.07306 56.4292 7.61714 57.0732 7.82811C58.3501 8.25005 59.6049 8.77193 60.8152 9.38263C61.4259 9.69354 62.1587 9.64912 62.7361 9.2716L65.5787 7.42838C67.111 6.44015 69.154 6.65112 70.4532 7.93915L74.3395 11.8254C74.8503 12.3362 75.2167 12.9913 75.3832 13.6909C75.4165 13.8463 75.4499 14.0129 75.461 14.1683C75.5498 15.0455 75.3388 15.9449 74.8503 16.6889L73.007 19.5314C72.6295 20.1088 72.5962 20.8417 72.896 21.4524C73.5067 22.6516 74.0286 23.9174 74.4505 25.1943C74.6615 25.8383 75.2167 26.3269 75.8829 26.4712L79.1918 27.1708C80.9795 27.5483 82.2786 29.1472 82.2786 30.9793V36.4757C82.2786 38.3078 80.9795 39.9067 79.1918 40.2842L75.8829 40.9949C75.2056 41.1392 74.6615 41.6278 74.4505 42.2718C74.0286 43.5487 73.5067 44.8146 72.896 46.0138C72.5851 46.6245 72.6295 47.3573 73.007 47.9347L74.8614 50.7773C75.8496 52.3096 75.6386 54.3526 74.3506 55.6518L70.4643 59.5381C69.1763 60.8261 67.1221 61.0482 65.5898 60.0488L62.7472 58.2056C62.1698 57.8281 61.437 57.7837 60.8263 58.0946C59.6271 58.7053 58.3612 59.2272 57.0843 59.6491C56.4403 59.8601 55.9517 60.4042 55.8074 61.0815L55.1079 64.3904C54.7192 66.1781 53.1203 67.4772 51.2993 67.4772ZM35.4099 54.5636C36.2205 54.5636 37.031 54.7524 37.775 55.1188C38.8298 55.6518 39.9291 56.107 41.0617 56.4846C42.8272 57.062 44.1596 58.561 44.5482 60.382L45.2589 63.6909C45.3144 63.9462 45.5476 64.135 45.8029 64.135H51.2993C51.5658 64.135 51.7879 63.9462 51.8434 63.6909L52.554 60.382C52.9426 58.5498 54.2862 57.062 56.0406 56.4846C57.162 56.1181 58.2724 55.6518 59.3273 55.1188C60.9817 54.2749 62.9915 54.386 64.5571 55.4075L67.3997 57.2507C67.6217 57.3951 67.9215 57.3617 68.0992 57.173L71.9855 53.2867C72.1743 53.0979 72.2076 52.8092 72.0632 52.5872L70.22 49.7446C69.1985 48.179 69.0874 46.1692 69.9313 44.5148C70.4643 43.4599 70.9195 42.3495 71.286 41.2281C71.8634 39.4626 73.3624 38.1301 75.1834 37.7415L78.4923 37.0309C78.7477 36.9753 78.9364 36.7422 78.9364 36.4868V30.9904C78.9364 30.724 78.7477 30.4908 78.4923 30.4464L75.1834 29.7357C73.3624 29.3471 71.8634 28.0147 71.2749 26.2492C70.9084 25.1166 70.4421 24.0173 69.9091 22.9625C69.0652 21.2969 69.1763 19.2982 70.1978 17.7326L72.041 14.8901C72.1298 14.7568 72.141 14.6125 72.1298 14.5236V14.5125C72.1298 14.5014 72.1298 14.4792 72.1187 14.457C72.0965 14.346 72.041 14.2572 71.9633 14.1794L68.077 10.2931C67.8882 10.1044 67.5995 10.0711 67.3775 10.2154L64.5349 12.0586C62.9693 13.0802 60.9706 13.1912 59.3051 12.3473C58.2391 11.8143 57.1398 11.3591 56.0184 10.9816C54.2529 10.4042 52.9204 8.90517 52.5318 7.08417L51.8212 3.77526C51.7656 3.51987 51.5325 3.33111 51.2771 3.33111H45.7807C45.5143 3.33111 45.2922 3.50877 45.2367 3.77526L44.526 7.08417C44.1374 8.91628 42.7938 10.4042 41.0395 10.9816C39.918 11.348 38.8076 11.8143 37.7528 12.3473C36.0872 13.1912 34.0885 13.0691 32.5229 12.0586L29.6804 10.2154C29.4583 10.0711 29.1696 10.1044 28.9697 10.2931L25.0834 14.1794C25.0057 14.2572 24.9613 14.346 24.928 14.4459C24.9169 14.4681 24.9169 14.4903 24.9169 14.5014V14.5125C24.9058 14.6014 24.9169 14.7346 25.0057 14.879L26.8489 17.7215C27.8705 19.2871 27.9815 21.2969 27.1376 22.9514C26.6046 24.0062 26.1494 25.1055 25.7719 26.2381C25.1945 28.0036 23.6955 29.336 21.8745 29.7246L18.5656 30.4353C18.3102 30.4908 18.1214 30.724 18.1214 30.9793V36.4757C18.1214 36.7422 18.3102 36.9642 18.5656 37.0198L21.8745 37.7304C23.7066 38.119 25.1945 39.4626 25.7719 41.217C26.1383 42.3384 26.6046 43.4488 27.1376 44.5037C27.9815 46.1692 27.8705 48.1679 26.8489 49.7335L25.0057 52.5761C24.8614 52.7981 24.8947 53.0979 25.0834 53.2756L28.9697 57.1619C29.1585 57.3506 29.4472 57.384 29.6693 57.2396L32.5118 55.3964C33.4001 54.8523 34.4105 54.5636 35.4099 54.5636Z" fill="#3C7CFF"/>
</svg>
