<svg width="102" height="89" viewBox="0 0 102 89" fill="none" xmlns="http://www.w3.org/2000/svg">
<path d="M7.0766 88.0415H94.9234C98.422 88.0415 101.25 85.0709 101.25 81.4425V7.35177C101.25 3.72067 98.4221 0.75 94.9234 0.75H7.0766C3.57789 0.75 0.75 3.72067 0.75 7.35177V81.4397C0.75 85.0708 3.57789 88.0415 7.0766 88.0415ZM4.68262 7.35177C4.68262 5.85739 5.7793 4.68262 7.0766 4.68262H94.9234C96.2207 4.68262 97.3174 5.85739 97.3174 7.35177V81.4425C97.3174 82.9369 96.2207 84.1117 94.9234 84.1117H7.0766C5.7793 84.1117 4.68262 82.9369 4.68262 81.4425V7.35177Z" fill="#3C7CFF" stroke="#3C7CFF" stroke-width="0.5"/>
<path d="M2.71631 27.1763H99.2837C100.369 27.1763 101.25 26.2956 101.25 25.21C101.25 24.1244 100.369 23.2437 99.2837 23.2437H2.71631C1.63072 23.2437 0.75 24.1244 0.75 25.21C0.75 26.2956 1.63072 27.1763 2.71631 27.1763Z" fill="#3C7CFF" stroke="#3C7CFF" stroke-width="0.5"/>
<path d="M7.66626 13.9616C7.66626 17.5606 10.5924 20.4868 14.1914 20.4868C17.7905 20.4868 20.7166 17.5606 20.7166 13.9616C20.7166 10.3625 17.7905 7.4364 14.1914 7.4364C10.5924 7.4364 7.66626 10.3625 7.66626 13.9616ZM11.5989 13.9616C11.5989 12.5335 12.7609 11.369 14.1914 11.369C15.6193 11.369 16.784 12.5337 16.784 13.9616C16.784 15.3895 15.6193 16.5541 14.1914 16.5541C12.7636 16.5541 11.5989 15.3895 11.5989 13.9616Z" fill="#3C7CFF" stroke="#3C7CFF" stroke-width="0.5"/>
<path d="M23.428 13.9616C23.428 17.5606 26.3541 20.4868 29.9532 20.4868C33.5522 20.4868 36.4783 17.5606 36.4783 13.9616C36.4783 10.3625 33.5522 7.4364 29.9532 7.4364C26.3541 7.4364 23.428 10.3625 23.428 13.9616ZM27.3606 13.9616C27.3606 12.5335 28.5226 11.369 29.9532 11.369C31.3837 11.369 32.5457 12.5335 32.5457 13.9616C32.5457 15.3896 31.3837 16.5541 29.9532 16.5541C28.5253 16.5541 27.3606 15.3895 27.3606 13.9616Z" fill="#3C7CFF" stroke="#3C7CFF" stroke-width="0.5"/>
<path d="M39.1895 13.9616C39.1895 17.5606 42.1156 20.4868 45.7146 20.4868C49.3137 20.4868 52.2398 17.5606 52.2398 13.9616C52.2398 10.3625 49.3137 7.4364 45.7146 7.4364C42.1156 7.4364 39.1895 10.3625 39.1895 13.9616ZM43.1221 13.9616C43.1221 12.5335 44.2841 11.369 45.7146 11.369C47.1452 11.369 48.3072 12.5335 48.3072 13.9616C48.3072 15.3896 47.1452 16.5541 45.7146 16.5541C44.2867 16.5541 43.1221 15.3895 43.1221 13.9616Z" fill="#3C7CFF" stroke="#3C7CFF" stroke-width="0.5"/>
<path d="M58.3135 15.7833H92.3674C93.453 15.7833 94.3337 14.9026 94.3337 13.817C94.3337 12.7314 93.453 11.8507 92.3674 11.8507H58.3135C57.2279 11.8507 56.3472 12.7314 56.3472 13.817C56.3472 14.9026 57.2279 15.7833 58.3135 15.7833Z" fill="#3C7CFF" stroke="#3C7CFF" stroke-width="0.5"/>
<path d="M11.0342 80.1834H61.2016C62.2903 80.1834 63.1679 79.3024 63.1679 78.217C63.1679 77.1315 62.2872 76.2507 61.2016 76.2507H11.0342C9.94859 76.2507 9.06787 77.1315 9.06787 78.217C9.06787 79.3026 9.94859 80.1834 11.0342 80.1834Z" fill="#3C7CFF" stroke="#3C7CFF" stroke-width="0.5"/>
<path d="M11.0342 35.0343H51.6782C52.7637 35.0343 53.6445 34.1536 53.6445 33.068C53.6445 31.9824 52.7637 31.1017 51.6782 31.1017H11.0342C9.94859 31.1017 9.06787 31.9824 9.06787 33.068C9.06787 34.1536 9.94859 35.0343 11.0342 35.0343Z" fill="#3C7CFF" stroke="#3C7CFF" stroke-width="0.5"/>
<path d="M11.0342 63.6357H51.6782C52.7637 63.6357 53.6445 62.755 53.6445 61.6694C53.6445 60.5838 52.7637 59.7031 51.6782 59.7031H11.0342C9.94859 59.7031 9.06787 60.5838 9.06787 61.6694C9.06787 62.755 9.94859 63.6357 11.0342 63.6357Z" fill="#3C7CFF" stroke="#3C7CFF" stroke-width="0.5"/>
<path d="M11.0342 71.908H55.9987C57.0843 71.908 57.965 71.0272 57.965 69.9417C57.965 68.8561 57.0843 67.9753 55.9987 67.9753H11.0342C9.94859 67.9753 9.06787 68.8561 9.06787 69.9417C9.06787 71.0272 9.94859 71.908 11.0342 71.908Z" fill="#3C7CFF" stroke="#3C7CFF" stroke-width="0.5"/>
<path d="M11.0342 55.3605H68.6852C69.7708 55.3605 70.6516 54.4798 70.6516 53.3942V41.3403C70.6516 40.2547 69.7708 39.374 68.6852 39.374H11.0342C9.94859 39.374 9.06787 40.2547 9.06787 41.3403V53.3942C9.06787 54.4798 9.94859 55.3605 11.0342 55.3605ZM66.7161 43.3095V51.4279H13.0005V43.3095H66.7161Z" fill="#3C7CFF" stroke="#3C7CFF" stroke-width="0.5"/>
<path d="M69.6611 80.1833H90.9661C92.0517 80.1833 92.9324 79.3025 92.9324 78.217V68.9233C92.9324 67.8378 92.0517 66.957 90.9661 66.957H69.6611C68.5755 66.957 67.6948 67.8378 67.6948 68.9233V78.217C67.6948 79.3025 68.5755 80.1833 69.6611 80.1833ZM88.9998 70.8897V76.2506H71.6274V70.8897H88.9998Z" fill="#3C7CFF" stroke="#3C7CFF" stroke-width="0.5"/>
</svg>
