<svg width="100" height="88" viewBox="0 0 100 88" fill="none" xmlns="http://www.w3.org/2000/svg">
<path d="M69.0168 65.3684H60.4517C59.5884 65.3684 58.8892 64.6692 58.8892 63.8059C58.8892 62.9426 59.5884 62.2434 60.4517 62.2434H69.0168C70.0395 62.2434 70.8716 61.4042 70.8716 60.3723C70.8716 59.3404 70.0395 58.5012 69.0168 58.5012H52.561C51.6978 58.5012 50.9985 57.802 50.9985 56.9387C50.9985 56.0754 51.6978 55.3762 52.561 55.3762H69.0168C71.7629 55.3762 73.9966 57.6178 73.9966 60.3723C73.9966 63.1269 71.7629 65.3684 69.0168 65.3684Z" fill="#3C7CFF"/>
<path d="M70.1808 72.2362H60.4517C59.5884 72.2362 58.8892 71.537 58.8892 70.6737C58.8892 69.8104 59.5884 69.1112 60.4517 69.1112H70.1808C71.2036 69.1112 72.0356 68.272 72.0356 67.2401C72.0356 66.2082 71.2036 65.369 70.1808 65.369H60.4517C59.5884 65.369 58.8892 64.6698 58.8892 63.8065C58.8892 62.9432 59.5884 62.244 60.4517 62.244H70.1808C72.9269 62.244 75.1606 64.4856 75.1606 67.2401C75.1606 69.9947 72.9263 72.2362 70.1808 72.2362Z" fill="#3C7CFF"/>
<path d="M68.5073 79.1034H60.2007C59.3374 79.1034 58.6382 78.4042 58.6382 77.5409C58.6382 76.6776 59.3374 75.9784 60.2007 75.9784H68.5073C69.5301 75.9784 70.3621 75.1392 70.3621 74.1073C70.3621 73.0754 69.5301 72.2362 68.5073 72.2362H60.4526C59.5894 72.2362 58.8901 71.537 58.8901 70.6737C58.8901 69.8104 59.5894 69.1112 60.4526 69.1112H68.5073C71.2534 69.1112 73.4871 71.3527 73.4871 74.1073C73.4871 76.8619 71.2528 79.1034 68.5073 79.1034Z" fill="#3C7CFF"/>
<path d="M65.3242 85.9706H35.8047C34.9414 85.9706 34.2422 85.2714 34.2422 84.4081C34.2422 83.5448 34.9414 82.8456 35.8047 82.8456H65.3242C66.347 82.8456 67.179 82.0064 67.179 80.9745C67.179 79.9426 66.347 79.1034 65.3242 79.1034H60.2005C59.3372 79.1034 58.638 78.4042 58.638 77.5409C58.638 76.6776 59.3372 75.9784 60.2005 75.9784H65.3242C68.0703 75.9784 70.304 78.2199 70.304 80.9745C70.304 83.729 68.0697 85.9706 65.3242 85.9706Z" fill="#3C7CFF"/>
<path d="M52.5626 58.5019C52.4402 58.5019 52.3165 58.4875 52.1922 58.4569C51.3537 58.2532 50.8393 57.4081 51.0431 56.5696L51.9695 52.7571C52.5392 50.4133 52.5932 47.9608 52.1258 45.6653C51.6251 43.2056 50.6746 41.4394 49.2996 40.4153C48.6596 39.9387 47.8517 39.8723 47.1382 40.2388C46.4168 40.6093 45.9949 41.3137 46.0099 42.1223C46.0822 46.0273 45.6824 53.2668 42.1941 57.8808C41.674 58.5689 40.6941 58.705 40.0053 58.1848C39.3172 57.6646 39.1811 56.6842 39.7013 55.996C42.6225 52.1321 42.95 45.6816 42.8856 42.1803C42.8484 40.1822 43.9311 38.373 45.7104 37.4589C47.4819 36.5494 49.5724 36.7213 51.1662 37.9094C53.1759 39.4068 54.5288 41.8066 55.1876 45.0422C55.7456 47.7851 55.6831 50.7082 55.006 53.4954L54.0796 57.3079C53.9064 58.022 53.2671 58.5019 52.5626 58.5019Z" fill="#3C7CFF"/>
<path d="M35.8049 87.5012H26.4019C25.5386 87.5012 24.8394 86.802 24.8394 85.9387V55.4081C24.8394 54.5448 25.5386 53.8456 26.4019 53.8456H35.8049C36.6681 53.8456 37.3674 54.5448 37.3674 55.4081V85.9387C37.3674 86.802 36.6681 87.5012 35.8049 87.5012ZM27.9644 84.3762H34.2424V56.9706H27.9644V84.3762Z" fill="#3C7CFF"/>
<path d="M40.9479 58.5012H35.8047C34.9414 58.5012 34.2422 57.802 34.2422 56.9387C34.2422 56.0754 34.9414 55.3762 35.8047 55.3762H40.9479C41.8112 55.3762 42.5104 56.0754 42.5104 56.9387C42.5104 57.802 41.8112 58.5012 40.9479 58.5012Z" fill="#3C7CFF"/>
<path d="M98.4375 32.5872H1.5625C0.699219 32.5872 0 31.8879 0 31.0247V1.80591C0 0.942627 0.699219 0.243408 1.5625 0.243408H98.4375C99.3008 0.243408 100 0.942627 100 1.80591V31.0247C100 31.8879 99.3008 32.5872 98.4375 32.5872ZM3.125 29.4622H96.875V3.36841H3.125V29.4622Z" fill="#3C7CFF"/>
<path d="M28.7862 26.8684C28.5193 26.8684 28.2524 26.8001 28.0108 26.6627L23.0089 23.8033L18.0069 26.6627C17.4731 26.9681 16.8103 26.9316 16.3129 26.5703C15.8155 26.2089 15.5766 25.5898 15.7016 24.9882L16.8748 19.3476L12.6098 15.4739C12.1547 15.0605 11.9842 14.4192 12.1743 13.8346C12.3644 13.25 12.8793 12.8313 13.49 12.7643L19.2172 12.1373L21.5838 6.88407C21.8364 6.32353 22.3937 5.9635 23.0082 5.9635C23.6228 5.9635 24.1808 6.32418 24.4327 6.88407L26.7993 12.1373L32.5265 12.7643C33.1378 12.8313 33.6521 13.25 33.8422 13.8346C34.0323 14.4192 33.8618 15.0605 33.4067 15.4739L29.1417 19.3476L30.3149 24.9882C30.4399 25.5898 30.201 26.2096 29.7036 26.5703C29.4327 26.7682 29.1098 26.8684 28.7862 26.8684ZM23.0089 20.4414C23.2765 20.4414 23.5441 20.5097 23.7843 20.6471L26.5499 22.2278L25.9008 19.1087C25.7882 18.567 25.9705 18.0058 26.38 17.6341L28.7381 15.4921L25.5707 15.1451C25.0206 15.0852 24.5434 14.7382 24.3162 14.2337L23.0076 11.3287L21.699 14.2337C21.4718 14.7382 20.9946 15.0852 20.4444 15.1451L17.2771 15.4921L19.6352 17.6341C20.0447 18.0065 20.227 18.567 20.1144 19.1087L19.4653 22.2278L22.2309 20.6471C22.4737 20.5097 22.7413 20.4414 23.0089 20.4414Z" fill="#3C7CFF"/>
<path d="M55.7774 26.8684C55.5105 26.8684 55.2436 26.8001 55.0021 26.6627L50.0001 23.8033L44.9982 26.6627C44.4643 26.9681 43.8015 26.9316 43.3041 26.5703C42.8067 26.2089 42.5678 25.5898 42.6928 24.9882L43.866 19.3476L39.601 15.4739C39.1459 15.0605 38.9754 14.4192 39.1655 13.8346C39.3556 13.25 39.8705 12.8313 40.4812 12.7643L46.2084 12.1373L48.575 6.88407C48.8276 6.32353 49.3849 5.9635 49.9995 5.9635C50.614 5.9635 51.1713 6.32418 51.4239 6.88407L53.7905 12.1373L59.5177 12.7643C60.129 12.8313 60.644 13.25 60.8334 13.8346C61.0235 14.4192 60.853 15.0605 60.3979 15.4739L56.1329 19.3476L57.3061 24.9889C57.4311 25.5905 57.1922 26.2102 56.6948 26.5709C56.4233 26.7682 56.101 26.8684 55.7774 26.8684ZM50.0001 20.4414C50.2677 20.4414 50.5353 20.5097 50.7755 20.6471L53.5411 22.2278L52.892 19.1087C52.7794 18.567 52.9617 18.0058 53.3712 17.6341L55.7293 15.4921L52.562 15.1451C52.0118 15.0852 51.5346 14.7382 51.3074 14.2337L49.9988 11.3287L48.6902 14.2337C48.463 14.7382 47.9858 15.0852 47.4357 15.1451L44.2683 15.4921L46.6264 17.6341C47.0359 18.0065 47.2182 18.567 47.1056 19.1087L46.4565 22.2278L49.2221 20.6471C49.4649 20.5097 49.7325 20.4414 50.0001 20.4414Z" fill="#3C7CFF"/>
<path d="M82.7682 26.8684C82.5012 26.8684 82.2343 26.8001 81.9928 26.6627L76.9908 23.8033L71.9889 26.6627C71.455 26.9681 70.7923 26.9316 70.2949 26.5703C69.7975 26.2089 69.5585 25.5898 69.6835 24.9882L70.8567 19.3476L66.5917 15.4739C66.1367 15.0605 65.9661 14.4192 66.1562 13.8346C66.3463 13.25 66.8613 12.8313 67.4719 12.7643L73.1992 12.1373L75.5657 6.88407C75.8183 6.32353 76.3756 5.9635 76.9902 5.9635C77.6048 5.9635 78.1627 6.32418 78.4147 6.88407L80.7812 12.1373L86.5084 12.7643C87.1197 12.8313 87.6347 13.25 87.8242 13.8346C88.0143 14.4192 87.8437 15.0605 87.3886 15.4739L83.1236 19.3476L84.2968 24.9889C84.4218 25.5905 84.1829 26.2102 83.6855 26.5709C83.414 26.7682 83.0917 26.8684 82.7682 26.8684ZM76.9908 20.4414C77.2584 20.4414 77.526 20.5097 77.7662 20.6471L80.5318 22.2278L79.8828 19.1087C79.7701 18.567 79.9524 18.0058 80.3619 17.6341L82.72 15.4921L79.5527 15.1451C79.0026 15.0852 78.5253 14.7382 78.2981 14.2337L76.9895 11.3287L75.6809 14.2337C75.4537 14.7382 74.9765 15.0852 74.4264 15.1451L71.2591 15.4921L73.6171 17.6341C74.0266 18.0065 74.2089 18.567 74.0963 19.1087L73.4472 22.2278L76.2128 20.6471C76.4557 20.5097 76.7232 20.4414 76.9908 20.4414Z" fill="#3C7CFF"/>
</svg>
