<svg width="100" height="98" viewBox="0 0 100 98" fill="none" xmlns="http://www.w3.org/2000/svg">
<path d="M93.8317 42.1916C93.3993 30.856 88.5921 20.1287 80.4193 12.2617C72.2466 4.39478 61.3439 0 50 0C38.6561 0 27.7534 4.39478 19.5807 12.2617C11.4079 20.1287 6.60072 30.856 6.16831 42.1916C4.33899 42.9966 2.78252 44.315 1.68764 45.987C0.592767 47.6591 0.00652165 49.6128 0 51.6114V63.183C0 65.918 1.08648 68.541 3.02043 70.4749C4.95438 72.4089 7.57738 73.4954 10.3124 73.4954C12.0809 73.4954 13.7771 72.794 15.0291 71.545C16.2811 70.296 16.9865 68.6014 16.9908 66.833V47.9774C16.9825 46.3265 16.3617 44.7375 15.2485 43.5183C14.1354 42.2991 12.6092 41.5367 10.9659 41.3787C11.3734 31.295 15.6658 21.7599 22.9446 14.7693C30.2233 7.77884 39.924 3.87496 50.0159 3.87496C60.1079 3.87496 69.8086 7.77884 77.0873 14.7693C84.366 21.7599 88.6585 31.295 89.066 41.3787C87.4242 41.5369 85.8998 42.3 84.7893 43.5195C83.6787 44.739 83.0613 46.328 83.0571 47.9774V66.833C83.0668 68.4981 83.6982 70.0995 84.8276 71.3232C85.9569 72.5469 87.5026 73.3045 89.1616 73.4476V78.2292C89.1574 80.8065 88.1317 83.2771 86.3093 85.0995C84.4868 86.9219 82.0163 87.9476 79.439 87.9519H72.139C71.8115 86.9386 71.2676 86.0086 70.5451 85.2263C69.8748 84.5522 69.0775 84.0178 68.1993 83.6539C67.321 83.29 66.3794 83.104 65.4288 83.1065H57.9535C56.9067 83.1008 55.8719 83.3295 54.9251 83.7759C53.4388 84.4732 52.2339 85.6552 51.5081 87.1277C50.7823 88.6003 50.5788 90.2759 50.931 91.8793C51.2832 93.4828 52.1702 94.9188 53.4463 95.9517C54.7224 96.9845 56.3118 97.5527 57.9535 97.563H65.3809C66.8683 97.5581 68.3184 97.097 69.5355 96.2419C70.7526 95.3869 71.678 94.179 72.1868 92.7813H79.3911C83.2366 92.7771 86.9234 91.2476 89.6426 88.5284C92.3617 85.8093 93.8912 82.1225 93.8954 78.277V72.6347C95.7116 71.823 97.2542 70.5033 98.3373 68.8348C99.4205 67.1663 99.9979 65.2201 100 63.2308V51.6114C99.9915 49.6133 99.4044 47.6604 98.3098 45.9887C97.2152 44.3171 95.6598 42.9982 93.8317 42.1916ZM12.2091 47.9774V66.833C12.2049 67.3332 12.0032 67.8116 11.648 68.1638C11.2927 68.5161 10.8127 68.7138 10.3124 68.7137C8.84555 68.7137 7.43878 68.131 6.40156 67.0938C5.36434 66.0566 4.78164 64.6498 4.78164 63.183V51.6114C4.78584 50.1459 5.3699 48.7415 6.40621 47.7052C7.44252 46.6689 8.84684 46.0849 10.3124 46.0807C10.8142 46.0848 11.2942 46.286 11.649 46.6408C12.0038 46.9956 12.205 47.4756 12.2091 47.9774ZM67.7399 90.8368C67.6234 91.3852 67.3226 91.8772 66.8877 92.231C66.4527 92.5848 65.9097 92.779 65.3491 92.7813H57.9535C57.3025 92.7813 56.6781 92.5227 56.2178 92.0624C55.7575 91.6021 55.4989 90.9777 55.4989 90.3267C55.4989 89.6757 55.7575 89.0514 56.2178 88.5911C56.6781 88.1308 57.3025 87.8722 57.9535 87.8722H65.3809C65.7048 87.872 66.0255 87.9369 66.3239 88.0628C66.6223 88.1887 66.8924 88.3732 67.1183 88.6054C67.347 88.8296 67.5284 89.0975 67.6516 89.3932C67.7749 89.6889 67.8374 90.0064 67.8355 90.3267C67.8205 90.4995 67.7885 90.6703 67.7399 90.8368ZM95.1865 63.183C95.1865 64.6498 94.6038 66.0566 93.5666 67.0938C92.5293 68.131 91.1226 68.7137 89.6557 68.7137C89.1554 68.7138 88.6754 68.5161 88.3201 68.1638C87.9649 67.8116 87.7632 67.3332 87.759 66.833V47.9774C87.7632 47.4756 87.9643 46.9956 88.3191 46.6408C88.6739 46.286 89.154 46.0848 89.6557 46.0807C91.1213 46.0849 92.5256 46.6689 93.5619 47.7052C94.5982 48.7415 95.1823 50.1459 95.1865 51.6114V63.183Z" fill="#3C7CFF"/>
<path d="M65.4607 64.0119C68.1465 64.0119 70.7224 62.9461 72.6231 61.0485C74.5237 59.1508 75.5935 56.5765 75.5978 53.8908V33.1703C75.5978 31.8399 75.3355 30.5225 74.8258 29.2935C74.3162 28.0645 73.5692 26.948 72.6277 26.008C71.6862 25.0679 70.5686 24.3227 69.3388 23.8151C68.109 23.3074 66.7912 23.0471 65.4607 23.0492H34.5076C31.8218 23.0492 29.2458 24.115 27.3452 26.0126C25.4446 27.9103 24.3747 30.4846 24.3705 33.1703V53.8908C24.3747 56.5765 25.4446 59.1508 27.3452 61.0485C29.2458 62.9461 31.8218 64.0119 34.5076 64.0119H34.6988V69.447C34.694 70.4361 34.9861 71.4039 35.5374 72.2251C36.0886 73.0464 36.8737 73.6832 37.7909 74.0533C38.6953 74.4254 39.6903 74.5179 40.6477 74.319C41.6051 74.1202 42.481 73.639 43.1623 72.9376L52.0562 64.0916L65.4607 64.0119ZM49.3785 59.8838L39.8152 69.447C39.8152 69.447 39.8152 69.5267 39.6558 69.447C39.6193 69.436 39.588 69.4122 39.5675 69.3801C39.547 69.3479 39.5388 69.3094 39.5442 69.2717V61.6211C39.5442 60.987 39.2923 60.3789 38.844 59.9305C38.3956 59.4822 37.7875 59.2303 37.1534 59.2303H34.5076C33.09 59.2303 31.7302 58.6682 30.7263 57.6673C29.7224 56.6664 29.1563 55.3084 29.1521 53.8908V33.1703C29.1563 31.7528 29.7224 30.3947 30.7263 29.3938C31.7302 28.3929 33.09 27.8308 34.5076 27.8308H65.4607C66.8783 27.8308 68.2381 28.3929 69.2419 29.3938C70.2458 30.3947 70.8119 31.7528 70.8161 33.1703V53.8908C70.8119 55.3084 70.2458 56.6664 69.2419 57.6673C68.2381 58.6682 66.8783 59.2303 65.4607 59.2303H51.1158C50.7973 59.2179 50.4795 59.2693 50.1811 59.3815C49.8828 59.4938 49.6098 59.6645 49.3785 59.8838Z" fill="#3C7CFF"/>
<path d="M38.3647 40.4225C37.6687 40.4257 36.9892 40.6349 36.4121 41.0239C35.8349 41.4129 35.3859 41.9641 35.1217 42.608C34.8576 43.2519 34.7901 43.9597 34.9278 44.6419C35.0655 45.3242 35.4022 45.9503 35.8955 46.4413C36.3888 46.9324 37.0164 47.2663 37.6993 47.4009C38.3821 47.5355 39.0896 47.4649 39.7323 47.1978C40.375 46.9307 40.9242 46.4792 41.3105 45.9003C41.6969 45.3214 41.9031 44.641 41.9031 43.945C41.9031 43.4811 41.8115 43.0217 41.6335 42.5933C41.4554 42.1649 41.1945 41.7759 40.8658 41.4486C40.537 41.1213 40.1468 40.8621 39.7176 40.6861C39.2884 40.51 38.8286 40.4204 38.3647 40.4225Z" fill="#3C7CFF"/>
<path d="M49.9841 40.4225C49.2875 40.4225 48.6064 40.6291 48.0272 41.0161C47.4479 41.4032 46.9964 41.9533 46.7298 42.597C46.4632 43.2406 46.3934 43.9489 46.5294 44.6322C46.6653 45.3155 47.0008 45.9431 47.4934 46.4357C47.986 46.9283 48.6137 47.2638 49.2969 47.3997C49.9802 47.5357 50.6885 47.4659 51.3321 47.1993C51.9758 46.9327 52.5259 46.4812 52.913 45.9019C53.3 45.3227 53.5066 44.6416 53.5066 43.945C53.5066 43.0107 53.1355 42.1148 52.4749 41.4542C51.8143 40.7936 50.9184 40.4225 49.9841 40.4225Z" fill="#3C7CFF"/>
<path d="M61.5875 40.4225C60.8915 40.4256 60.212 40.6349 59.6349 41.0239C59.0577 41.4128 58.6087 41.9641 58.3445 42.608C58.0803 43.2519 58.0129 43.9596 58.1506 44.6419C58.2883 45.3241 58.625 45.9503 59.1183 46.4413C59.6115 46.9323 60.2392 47.2662 60.922 47.4009C61.6049 47.5355 62.3123 47.4648 62.9551 47.1977C63.5978 46.9307 64.147 46.4792 64.5333 45.9003C64.9197 45.3214 65.1259 44.641 65.1259 43.945C65.1217 43.0093 64.747 42.1134 64.0839 41.4532C63.4208 40.7931 62.5232 40.4225 61.5875 40.4225Z" fill="#3C7CFF"/>
</svg>
