<svg width="100" height="101" viewBox="0 0 100 101" fill="none" xmlns="http://www.w3.org/2000/svg">
<path d="M97.9096 17.3936H12.4991C11.9466 17.3936 11.4167 17.6131 11.0261 18.0038C10.6354 18.3944 10.4159 18.9243 10.4159 19.4768C10.4159 20.0293 10.6354 20.5592 11.0261 20.9498C11.4167 21.3405 11.9466 21.56 12.4991 21.56H95.8264V90.305C95.8264 91.9625 95.168 93.5521 93.996 94.7241C92.824 95.8961 91.2344 96.5546 89.5769 96.5546H10.4159C8.75843 96.5546 7.16884 95.8961 5.99682 94.7241C4.8248 93.5521 4.16637 91.9625 4.16637 90.305V11.1441C4.16637 9.48658 4.8248 7.89698 5.99682 6.72496C7.16884 5.55294 8.75843 4.89451 10.4159 4.89451H89.5644C90.3976 4.84891 91.2312 4.97923 92.0107 5.277C92.7903 5.57476 93.4984 6.03331 94.0891 6.6228C94.6798 7.21229 95.1397 7.91952 95.4391 8.69849C95.7384 9.47746 95.8704 10.3107 95.8264 11.1441C95.8264 11.6966 96.0459 12.2264 96.4366 12.6171C96.8273 13.0078 97.3571 13.2272 97.9096 13.2272C98.4621 13.2272 98.992 13.0078 99.3827 12.6171C99.7733 12.2264 99.9928 11.6966 99.9928 11.1441C100.045 9.76217 99.8115 8.38437 99.3066 7.09697C98.8017 5.80957 98.0363 4.64032 97.0585 3.66248C96.0806 2.68464 94.9114 1.91928 93.624 1.41435C92.3366 0.909422 90.9588 0.675807 89.5769 0.728143H10.4159C7.65446 0.73145 5.00705 1.8299 3.05441 3.78255C1.10176 5.73519 0.0033078 8.3826 0 11.1441L0 90.305C0.0033078 93.0665 1.10176 95.7139 3.05441 97.6665C5.00705 99.6192 7.65446 100.718 10.4159 100.721H89.5769C92.3383 100.718 94.9858 99.6192 96.9384 97.6665C98.8911 95.7139 99.9895 93.0665 99.9928 90.305V19.4768C99.9928 18.9243 99.7733 18.3944 99.3827 18.0038C98.992 17.6131 98.4621 17.3936 97.9096 17.3936Z" fill="#3C7CFF"/>
<path d="M12.4992 9.06079C11.9467 9.06079 11.4168 9.28027 11.0262 9.67094C10.6355 10.0616 10.416 10.5915 10.416 11.144C10.416 11.6965 10.6355 12.2263 11.0262 12.617C11.4168 13.0077 11.9467 13.2272 12.4992 13.2272H16.6656C17.2181 13.2272 17.7479 13.0077 18.1386 12.617C18.5293 12.2263 18.7487 11.6965 18.7487 11.144C18.7487 10.5915 18.5293 10.0616 18.1386 9.67094C17.7479 9.28027 17.2181 9.06079 16.6656 9.06079H12.4992Z" fill="#3C7CFF"/>
<path d="M24.9982 9.06079C24.4457 9.06079 23.9159 9.28027 23.5252 9.67094C23.1345 10.0616 22.915 10.5915 22.915 11.144C22.915 11.6965 23.1345 12.2263 23.5252 12.617C23.9159 13.0077 24.4457 13.2272 24.9982 13.2272H29.1646C29.7171 13.2272 30.2469 13.0077 30.6376 12.617C31.0283 12.2263 31.2478 11.6965 31.2478 11.144C31.2478 10.5915 31.0283 10.0616 30.6376 9.67094C30.2469 9.28027 29.7171 9.06079 29.1646 9.06079H24.9982Z" fill="#3C7CFF"/>
<path d="M85.4106 9.06079C84.8581 9.06079 84.3282 9.28027 83.9375 9.67094C83.5469 10.0616 83.3274 10.5915 83.3274 11.144C83.3274 11.6965 83.5469 12.2263 83.9375 12.617C84.3282 13.0077 84.8581 13.2272 85.4106 13.2272H89.5769C90.1294 13.2272 90.6593 13.0077 91.05 12.617C91.4407 12.2263 91.6601 11.6965 91.6601 11.144C91.6601 10.5915 91.4407 10.0616 91.05 9.67094C90.6593 9.28027 90.1294 9.06079 89.5769 9.06079H85.4106Z" fill="#3C7CFF"/>
<path d="M20.8318 71.5562C21.3843 71.5562 21.9142 71.3368 22.3049 70.9461C22.6955 70.5554 22.915 70.0256 22.915 69.4731C22.915 68.9206 22.6955 68.3907 22.3049 68C21.9142 67.6094 21.3843 67.3899 20.8318 67.3899C19.1743 67.3899 17.5847 68.0483 16.4127 69.2203C15.2407 70.3924 14.5823 71.9819 14.5823 73.6394V81.9722C14.5823 83.6297 15.2407 85.2192 16.4127 86.3913C17.5847 87.5633 19.1743 88.2217 20.8318 88.2217H37.4973C39.1548 88.2217 40.7444 87.5633 41.9164 86.3913C43.0884 85.2192 43.7468 83.6297 43.7468 81.9722V73.6394C43.7468 71.9819 43.0884 70.3924 41.9164 69.2203C40.7444 68.0483 39.1548 67.3899 37.4973 67.3899H31.2477V63.2235H68.745V67.3899H62.4955C60.838 67.3899 59.2484 68.0483 58.0764 69.2203C56.9044 70.3924 56.2459 71.9819 56.2459 73.6394V81.9722C56.2459 83.6297 56.9044 85.2192 58.0764 86.3913C59.2484 87.5633 60.838 88.2217 62.4955 88.2217H79.161C80.8185 88.2217 82.408 87.5633 83.5801 86.3913C84.7521 85.2192 85.4105 83.6297 85.4105 81.9722V73.6394C85.4105 71.9819 84.7521 70.3924 83.5801 69.2203C82.408 68.0483 80.8185 67.3899 79.161 67.3899C78.6085 67.3899 78.0786 67.6094 77.6879 68C77.2973 68.3907 77.0778 68.9206 77.0778 69.4731C77.0778 70.0256 77.2973 70.5554 77.6879 70.9461C78.0786 71.3368 78.6085 71.5562 79.161 71.5562C79.7135 71.5562 80.2433 71.7757 80.634 72.1664C81.0247 72.5571 81.2441 73.0869 81.2441 73.6394V81.9722C81.2441 82.5247 81.0247 83.0545 80.634 83.4452C80.2433 83.8359 79.7135 84.0554 79.161 84.0554H62.4955C61.943 84.0554 61.4131 83.8359 61.0225 83.4452C60.6318 83.0545 60.4123 82.5247 60.4123 81.9722V73.6394C60.4123 73.0869 60.6318 72.5571 61.0225 72.1664C61.4131 71.7757 61.943 71.5562 62.4955 71.5562H70.8282C71.3807 71.5562 71.9106 71.3368 72.3013 70.9461C72.6919 70.5554 72.9114 70.0256 72.9114 69.4731V61.1403C72.9114 60.5878 72.6919 60.058 72.3013 59.6673C71.9106 59.2766 71.3807 59.0571 70.8282 59.0571H52.0796V50.7244H58.3291C59.9866 50.7244 61.5762 50.066 62.7482 48.894C63.9202 47.7219 64.5787 46.1323 64.5787 44.4749V36.1421C64.5787 34.4846 63.9202 32.895 62.7482 31.723C61.5762 30.551 59.9866 29.8926 58.3291 29.8926H41.6637C40.0062 29.8926 38.4166 30.551 37.2446 31.723C36.0725 32.895 35.4141 34.4846 35.4141 36.1421V44.4749C35.4141 46.1323 36.0725 47.7219 37.2446 48.894C38.4166 50.066 40.0062 50.7244 41.6637 50.7244C42.2162 50.7244 42.746 50.5049 43.1367 50.1143C43.5274 49.7236 43.7468 49.1937 43.7468 48.6412C43.7468 48.0887 43.5274 47.5589 43.1367 47.1682C42.746 46.7775 42.2162 46.558 41.6637 46.558C41.1112 46.558 40.5813 46.3386 40.1906 45.9479C39.8 45.5572 39.5805 45.0274 39.5805 44.4749V36.1421C39.5805 35.5896 39.8 35.0598 40.1906 34.6691C40.5813 34.2784 41.1112 34.0589 41.6637 34.0589H58.3291C58.8816 34.0589 59.4115 34.2784 59.8022 34.6691C60.1928 35.0598 60.4123 35.5896 60.4123 36.1421V44.4749C60.4123 45.0274 60.1928 45.5572 59.8022 45.9479C59.4115 46.3386 58.8816 46.558 58.3291 46.558H49.9964C49.4439 46.558 48.914 46.7775 48.5234 47.1682C48.1327 47.5589 47.9132 48.0887 47.9132 48.6412V59.0571H29.1646C28.6121 59.0571 28.0822 59.2766 27.6915 59.6673C27.3009 60.058 27.0814 60.5878 27.0814 61.1403V69.4731C27.0814 70.0256 27.3009 70.5554 27.6915 70.9461C28.0822 71.3368 28.6121 71.5562 29.1646 71.5562H37.4973C38.0498 71.5562 38.5797 71.7757 38.9703 72.1664C39.361 72.5571 39.5805 73.0869 39.5805 73.6394V81.9722C39.5805 82.5247 39.361 83.0545 38.9703 83.4452C38.5797 83.8359 38.0498 84.0554 37.4973 84.0554H20.8318C20.2793 84.0554 19.7495 83.8359 19.3588 83.4452C18.9681 83.0545 18.7486 82.5247 18.7486 81.9722V73.6394C18.7486 73.0869 18.9681 72.5571 19.3588 72.1664C19.7495 71.7757 20.2793 71.5562 20.8318 71.5562Z" fill="#3C7CFF"/>
</svg>
