<svg width="102" height="102" viewBox="0 0 102 102" fill="none" xmlns="http://www.w3.org/2000/svg">
<mask id="path-1-outside-1_120_67" maskUnits="userSpaceOnUse" x="0" y="0" width="102" height="102" fill="black">
<rect fill="white" width="102" height="102"/>
<path fill-rule="evenodd" clip-rule="evenodd" d="M34.5439 59.9341L32.5072 61.9709L32.5055 61.9692L32.5072 62.0862L34.3872 63.9662C34.9532 64.5323 35.0563 65.4016 34.631 66.0871C33.5445 67.8388 32.7391 69.7746 32.2637 71.8003C32.1719 72.1917 31.9549 72.5231 31.6594 72.7573L31.6581 72.7557C31.3702 72.9913 30.9794 73.1296 30.589 73.1296L27.8755 73.1508L27.8514 73.2112L27.8725 79.2744L30.5886 79.2986C30.9888 79.2986 31.3614 79.4351 31.659 79.671L31.6577 79.6726C31.9547 79.9087 32.1721 80.2395 32.2633 80.628C32.7389 82.6543 33.5439 84.5895 34.6306 86.3418C35.0556 87.0273 34.9528 87.8966 34.3868 88.4626L32.5072 90.3423L32.5055 90.3406L32.5072 90.4576L36.7541 94.7044H36.8695L38.7497 92.8242C39.3157 92.2581 40.1848 92.1551 40.8705 92.5803C42.6225 93.6664 44.5578 94.4722 46.5835 94.9474C47.367 95.1312 47.9129 95.8216 47.9129 96.6221L47.934 99.336L47.9945 99.3602L54.0577 99.3391L54.0821 96.6229C54.0821 96.2227 54.2186 95.8501 54.4544 95.5526L54.4561 95.5538C54.6919 95.2569 55.0229 95.0394 55.4115 94.9482C57.4378 94.4726 59.3729 93.6676 61.1253 92.5809C61.8108 92.1559 62.6801 92.2588 63.2461 92.8248L65.1833 94.7273C65.2046 94.7273 65.2257 94.7195 65.2411 94.7042L69.4878 90.4574V90.342L67.6076 88.4616C67.0416 87.8956 66.9385 87.0265 67.3637 86.3408C68.4503 84.5889 69.2556 82.6537 69.7311 80.6278C69.9137 79.8497 70.6041 79.2984 71.4058 79.2984L74.1196 79.2773L74.1438 79.2169L74.1227 73.1536L71.4066 73.1294C71.0064 73.1294 70.6338 72.993 70.3362 72.7571L70.3375 72.7554C70.0405 72.5196 69.8231 72.1886 69.7319 71.8001C69.2563 69.7737 68.4513 67.8386 67.3646 66.0862C66.9395 65.4007 67.0424 64.5314 67.6084 63.9654L69.511 62.0282L69.4878 61.9704L65.2411 57.7235H65.1257L63.2455 59.6039C62.6795 60.1699 61.8104 60.273 61.1247 59.8478C59.3725 58.7615 57.4376 57.9559 55.4117 57.4804C55.1299 57.4143 54.8788 57.2829 54.6727 57.1036L51.4557 59.2822C51.1664 59.4783 50.7962 59.4635 50.5266 59.2732L47.3227 57.1036C47.1165 57.2827 46.8657 57.4143 46.5837 57.4804C44.5572 57.9559 42.6233 58.7611 40.8705 59.8476C40.1848 60.2726 39.3157 60.1697 38.7497 59.6037L36.8119 57.7005C36.7906 57.7005 36.7695 57.7083 36.7543 57.7235L34.5439 59.9341ZM54.5719 72.8655C55.3348 72.1025 56.4941 73.2616 55.7309 74.0246L50.1921 79.5634C49.872 79.8835 49.3531 79.8835 49.033 79.5634L46.2636 76.794C45.5007 76.031 46.6598 74.8717 47.4227 75.6349L49.6126 77.8248L54.5719 72.8655ZM99.4878 53.0698L96.2512 54.1145C96.02 54.1891 95.8753 54.3916 95.8757 54.6334L95.8823 58.0346C95.8862 60.1492 93.1743 61.019 91.9413 59.3148L89.9475 56.5595C89.8029 56.3595 89.5733 56.2851 89.3389 56.3619L86.1061 57.4192C84.1071 58.0729 82.4266 55.7744 83.6722 54.0667L85.6766 51.319C85.8174 51.126 85.8174 50.8698 85.6766 50.6766L83.6722 47.9287C82.4266 46.2212 84.1073 43.9225 86.1061 44.5763L89.3389 45.6335C89.5735 45.7101 89.8029 45.636 89.9475 45.4359L91.9413 42.6805C93.1743 40.9765 95.8862 41.8458 95.8823 43.9607L95.8757 47.3619C95.8753 47.6035 96.02 47.8062 96.2512 47.8805L99.4878 48.9253C101.497 49.5735 101.497 52.4216 99.4878 53.0698ZM95.7515 52.5583L98.9882 51.5135C99.488 51.3522 99.488 50.6424 98.9882 50.4813L95.7515 49.4366C94.8386 49.1419 94.2408 48.3222 94.2426 47.3617L94.2492 43.9605C94.2502 43.4356 93.5791 43.2092 93.2668 43.6408L91.273 46.3962C90.7129 47.1701 89.7406 47.4863 88.8327 47.1893L85.6 46.1321C85.0946 45.9669 84.6805 46.5417 84.9911 46.9678L86.9955 49.7157C87.5632 50.494 87.5632 51.501 86.9955 52.2791L84.9911 55.0268C84.6805 55.4531 85.0946 56.0277 85.6 55.8625L88.8327 54.8053C89.7408 54.5084 90.7132 54.8246 91.273 55.5984L93.2668 58.3539C93.5791 58.7854 94.2502 58.5592 94.2492 58.0344L94.2426 54.6332C94.2408 53.6729 94.8386 52.8529 95.7515 52.5583ZM84.7684 20.1741L83.2023 23.2331C83.0879 23.4567 83.1267 23.704 83.3052 23.8819L85.7399 26.3073C86.8164 27.3796 86.4976 29.1511 85.1893 29.8181L85.1899 29.8193C84.7889 30.0232 84.3241 30.1003 83.8482 30.0241L80.455 29.48C80.2105 29.4408 79.9822 29.5554 79.8701 29.7765L78.3158 32.8416C77.3581 34.7298 74.525 34.2952 74.1955 32.1891L73.6643 28.7939C73.6266 28.5531 73.4417 28.3682 73.2011 28.3305L69.8057 27.7993C67.6976 27.4696 67.2662 24.6361 69.1532 23.6792L72.2183 22.1249C72.4392 22.0128 72.554 21.7843 72.5148 21.54L71.9707 18.1468C71.8972 17.6871 71.971 17.1906 72.1769 16.8057L72.1755 16.8051C72.8358 15.5063 74.6096 15.1728 75.6875 16.2551L78.1131 18.6898C78.291 18.8683 78.5383 18.9071 78.7619 18.7927L81.8209 17.2266C83.7087 16.26 85.7348 18.2859 84.7684 20.1741ZM81.7485 22.4902L83.3146 19.4313C83.5609 18.9501 83.0445 18.4339 82.5635 18.6802L79.5046 20.2463C78.6475 20.685 77.6329 20.5244 76.9538 19.8426L74.5285 17.4078C74.2303 17.1086 73.7872 17.2496 73.6356 17.548L73.6344 17.5474C73.5837 17.6484 73.5649 17.7674 73.5846 17.8906L74.1287 21.2838C74.2817 22.2386 73.8167 23.1479 72.9546 23.5852L69.8895 25.1396C69.4075 25.384 69.5227 26.1023 70.0553 26.1857L73.4507 26.7169C74.41 26.8669 75.1281 27.585 75.2781 28.5443L75.8093 31.9397C75.8925 32.4717 76.6101 32.5891 76.8554 32.1055L78.4098 29.0404C78.8471 28.1783 79.7564 27.7133 80.7112 27.8664L84.1044 28.4104C84.2271 28.4301 84.3458 28.4109 84.447 28.3594L84.4477 28.3608C84.7561 28.1959 84.8796 27.7582 84.5872 27.4667L82.1524 25.0414C81.4706 24.3619 81.3098 23.3473 81.7485 22.4902ZM2.50677 48.9251L5.74342 47.8803C5.97437 47.8057 6.11926 47.6033 6.11885 47.3615L6.11229 43.9603C6.10839 41.8454 8.82022 40.9761 10.0533 42.6801L12.047 45.4355C12.1917 45.6353 12.4212 45.7097 12.6557 45.6331L15.8884 44.5759C17.8873 43.9221 19.5679 46.2206 18.3226 47.9283L16.3182 50.6762C16.1774 50.8692 16.1774 51.1256 16.3182 51.3186L18.3226 54.0663C19.5681 55.774 17.8873 58.0723 15.8884 57.4188L12.6557 56.3615C12.421 56.2849 12.1917 56.3591 12.047 56.5591L10.0533 59.3144C8.82022 61.0185 6.10839 60.1488 6.11229 58.0342L6.11885 54.633C6.11926 54.3913 5.97458 54.1887 5.74342 54.1143L2.50677 53.0696C0.497642 52.4214 0.497847 49.5735 2.50677 48.9251ZM6.24303 49.4364L3.00638 50.4811C2.50656 50.6424 2.50656 51.352 3.00638 51.5133L6.24303 52.558C7.15599 52.8527 7.75377 53.6725 7.75193 54.633L7.74537 58.0342C7.74434 58.5588 8.41549 58.7854 8.7278 58.3536L10.7216 55.5982C11.2816 54.8244 12.254 54.5082 13.1618 54.8051L16.3946 55.8623C16.9 56.0275 17.3141 55.4527 17.0034 55.0266L14.999 52.2789C14.4314 51.5008 14.4314 50.4936 14.999 49.7155L17.0034 46.9676C17.3141 46.5415 16.9 45.9667 16.3946 46.1319L13.1618 47.1891C12.254 47.4861 11.2816 47.1698 10.7216 46.396L8.7278 43.6406C8.41549 43.209 7.74434 43.4354 7.74537 43.9603L7.75193 47.3615C7.75377 48.322 7.15599 49.1419 6.24303 49.4364ZM20.1739 17.2264L23.2329 18.7925C23.4563 18.9069 23.7038 18.8681 23.8817 18.6896L26.307 16.2549C27.379 15.1788 29.1506 15.4968 29.8179 16.8055L29.8191 16.8049C30.023 17.2059 30.1001 17.6707 30.0238 18.1468L29.4795 21.54C29.4404 21.7843 29.5549 22.0128 29.7763 22.1249L32.8414 23.6792C34.7298 24.6369 34.2945 27.4702 32.1889 27.7993L28.7934 28.3305C28.5522 28.3682 28.3684 28.5496 28.3301 28.7937L27.7989 32.1891C27.4698 34.2946 24.6366 34.7307 23.6786 32.8416L22.1242 29.7765C22.0121 29.5554 21.7836 29.4406 21.5393 29.4798L18.1461 30.0238C16.0489 30.3601 14.7507 27.8047 16.2542 26.307L18.689 23.8817C18.8675 23.7038 18.9062 23.4565 18.7919 23.2329L17.2258 20.1739C16.2598 18.2861 18.2857 16.26 20.1739 17.2264ZM22.4902 20.2461L19.4312 18.68C18.9501 18.4337 18.4339 18.9501 18.6802 19.4313L20.2462 22.4902C20.685 23.3473 20.5243 24.3619 19.8425 25.041L17.4078 27.4663C17.0239 27.8487 17.3572 28.4957 17.8906 28.4102L21.2838 27.8661C22.2386 27.7131 23.148 28.178 23.5852 29.0402L25.1395 32.1053C25.3861 32.5916 26.1029 32.4697 26.1857 31.9395L26.7169 28.5441C26.8663 27.5887 27.5858 26.8667 28.5442 26.7167L31.9397 26.1855C32.4719 26.1023 32.5891 25.3845 32.1055 25.1394L29.0404 23.585C28.1782 23.1479 27.7132 22.2384 27.8663 21.2836L28.4106 17.8904C28.4303 17.7674 28.411 17.6488 28.3596 17.5476L28.361 17.5469C28.1961 17.2385 27.7581 17.115 27.4669 17.4074L25.0416 19.8421C24.3618 20.5242 23.3472 20.6848 22.4902 20.2461ZM53.0732 2.50946L54.1208 5.75492C54.1958 5.98751 54.3999 6.13342 54.6432 6.13301L58.0536 6.12645C60.1718 6.12256 61.0429 8.8389 59.3361 10.0742L56.573 12.0735C56.3718 12.2192 56.297 12.4502 56.374 12.6864L57.4341 15.928C58.0889 17.9304 55.7865 19.6139 54.0759 18.3663L51.3207 16.3563C51.1264 16.2147 50.8682 16.2147 50.6739 16.3563L47.9186 18.3663C46.2083 19.6139 43.9057 17.9306 44.5605 15.928L45.6206 12.6864C45.6978 12.4502 45.623 12.2192 45.4216 12.0735L42.6587 10.0742C40.9517 8.83869 41.823 6.12235 43.9412 6.12645L47.3516 6.13301C47.5948 6.13342 47.799 5.98751 47.874 5.75492L48.9216 2.50946C49.571 0.496848 52.4234 0.496848 53.0732 2.50946ZM52.5646 6.25433L51.517 3.00887C51.3545 2.50577 50.6399 2.50556 50.4776 3.00887L49.43 6.25433C49.1347 7.16872 48.3135 7.76773 47.3516 7.76589L43.9412 7.75933C43.4127 7.7583 43.185 8.43416 43.6194 8.74852L46.3823 10.7478C47.1575 11.3087 47.4741 12.2829 47.1768 13.1924L46.1167 16.434C45.9503 16.9428 46.5292 17.3598 46.9581 17.0469L49.7134 15.037C50.4928 14.4685 51.5018 14.4685 52.2814 15.037L55.0366 17.0469C55.4658 17.3598 56.0445 16.9428 55.8781 16.434L54.818 13.1924C54.5206 12.2829 54.8372 11.3089 55.6125 10.7478L58.3755 8.74852C58.81 8.43437 58.5823 7.7583 58.0538 7.75933L54.6434 7.76589C53.6812 7.76773 52.8597 7.16893 52.5646 6.25433ZM50.8829 22.3822C56.333 22.3822 60.7513 26.8007 60.7513 32.2506C60.7513 36.0231 58.6229 39.3678 55.3926 41.0304C63.1832 43.0202 68.8544 50.1063 68.8544 58.3368V59.0199L70.7024 60.8739C71.324 61.5948 71.2939 62.5983 70.6465 63.2457L68.7405 65.1721C68.7384 65.1909 68.7425 65.211 68.7536 65.2288C69.9415 67.1465 70.8092 69.2253 71.3258 71.4294L71.3525 71.4785L71.3537 71.4769L74.0614 71.4906C75.006 71.4906 75.7824 72.2673 75.7824 73.2116V79.2175C75.7824 80.1618 75.006 80.9385 74.0614 80.9385L71.3408 80.9614C71.334 80.9706 71.3285 80.9836 71.3248 80.9997C70.8119 83.1972 69.9366 85.2881 68.7525 87.1995L68.7659 87.3029L70.7022 89.2453C71.3238 89.9662 71.2937 90.9697 70.6463 91.6171L66.3993 95.8641C65.7282 96.5352 64.6368 96.5352 63.9656 95.8641L62.0393 93.958C62.0204 93.956 62.0003 93.9601 61.9825 93.9711C60.0666 95.1579 57.9839 96.028 55.782 96.5434L55.7328 96.57L55.7344 96.5713L55.7207 99.279C55.7207 100.224 54.9442 101 53.9997 101H47.9938C47.0493 101 46.2729 100.224 46.2729 99.279L46.2591 96.5703C46.2489 96.5573 46.2323 96.5471 46.2114 96.5422C44.0084 96.026 41.9286 95.1575 40.0117 93.9699L39.9082 93.9832L38.0279 95.8634C37.3568 96.5346 36.2653 96.5346 35.5942 95.8634L31.3479 91.6169C30.6702 90.9392 30.6851 89.8256 31.3495 89.1848L31.3479 89.1832L33.2539 87.2568C33.256 87.238 33.2519 87.2179 33.2408 87.2001C32.0538 85.2842 31.1839 83.2015 30.6685 80.9995L30.6419 80.9504L30.6407 80.952L27.9329 80.9383C26.9884 80.9383 26.2119 80.1618 26.2119 79.2173V73.2114C26.2119 72.2669 26.9884 71.4904 27.9329 71.4904L30.6425 71.4783L30.6413 71.4769C30.6544 71.4667 30.6644 71.4501 30.6691 71.4294C31.1847 69.229 32.0545 67.1433 33.2414 65.2294L33.2281 65.1257L31.3481 63.2457C30.6704 62.568 30.6853 61.4544 31.3497 60.8136L31.3481 60.812L33.1402 59.0199V58.3368C33.1402 50.162 38.7351 43.1133 46.4509 41.0697C40.4662 38.0556 39.1364 30.0417 43.9053 25.2726C45.6909 23.4868 48.158 22.3822 50.8829 22.3822ZM56.7019 26.4318C53.4884 23.2184 48.2779 23.2184 45.0644 26.4318C41.8509 29.6453 41.8509 34.8561 45.0644 38.0696C48.2779 41.2831 53.4884 41.2831 56.7019 38.0696C59.9154 34.8559 59.9154 29.6453 56.7019 26.4318ZM54.4231 55.3016L50.9973 57.6216L46.7075 54.7166L48.9898 42.2438C50.3208 42.0774 51.6736 42.0774 53.0046 42.2438L55.2869 54.7166L54.4231 55.3016ZM56.2861 56.0115C56.6507 55.7646 57.0982 55.5353 56.9902 54.9457L54.7227 42.554C61.5964 44.1865 66.7498 50.1934 67.185 57.3501L66.3998 56.5648C65.7286 55.8937 64.6372 55.8937 63.966 56.5648L62.0856 58.4453L61.9821 58.4586C60.2097 57.3608 58.3077 56.5396 56.2861 56.0115ZM47.2719 42.554L45.0043 54.9457L45.0052 54.9459C44.8978 55.533 45.341 55.7625 45.7087 56.0115C43.6871 56.5396 41.7849 57.3606 40.0123 58.4588C39.9944 58.4698 39.9744 58.4741 39.9555 58.4719L38.0288 56.565C37.6931 56.2294 37.2523 56.0617 36.8119 56.0617C35.9125 56.0617 35.4671 56.6929 34.8099 57.3503C35.2446 50.1936 40.3979 44.1865 47.2719 42.554ZM50.9973 66.1721C56.5435 66.1721 61.0396 70.6684 61.0396 76.2144C61.0396 81.7604 56.5433 86.2568 50.9973 86.2568C45.4513 86.2568 40.9549 81.7604 40.9549 76.2144C40.9549 70.6684 45.4513 66.1721 50.9973 66.1721ZM56.9392 70.2727C60.2207 73.5543 60.2207 78.875 56.9392 82.1564C53.6579 85.4377 48.3369 85.4379 45.0556 82.1564C41.7743 78.8748 41.774 73.5543 45.0556 70.2727C48.3369 66.9912 53.6577 66.9912 56.9392 70.2727ZM37.5912 70.7025C36.5756 71.0564 36.0373 69.5137 37.0533 69.1591L39.0009 68.4788C39.427 68.3302 39.893 68.5554 40.0416 68.9815L40.7219 70.9291C41.0656 71.9142 39.6055 72.4743 39.1987 71.5189C38.1673 74.127 38.0493 76.9258 38.7419 79.5105C40.6353 86.5765 48.1018 90.6146 55.0319 88.4104C56.0545 88.0852 56.5505 89.6404 55.525 89.9664C47.7026 92.4545 39.2965 87.9054 37.1603 79.9331C36.3539 76.9235 36.5236 73.6547 37.7974 70.6303L37.5912 70.7025ZM63.4717 83.6021C64.5095 83.4093 64.8306 84.9729 63.7967 85.2022L61.8147 85.6436C61.3427 85.758 60.9001 85.4776 60.8033 85.002L60.3611 83.0156C60.1287 81.9672 61.7227 81.6129 61.9557 82.6634L62.0028 82.8746C65.278 77.4731 64.2056 70.4244 59.233 66.3299C55.1289 62.9504 49.4304 62.4875 44.8535 65.0395C43.9156 65.5624 43.1186 64.1359 44.0594 63.6113C53.1078 58.5662 64.4406 64.4228 65.4436 74.7783C65.7343 77.7822 65.0874 80.8801 63.4717 83.6021Z"/>
</mask>
<path fill-rule="evenodd" clip-rule="evenodd" d="M34.5439 59.9341L32.5072 61.9709L32.5055 61.9692L32.5072 62.0862L34.3872 63.9662C34.9532 64.5323 35.0563 65.4016 34.631 66.0871C33.5445 67.8388 32.7391 69.7746 32.2637 71.8003C32.1719 72.1917 31.9549 72.5231 31.6594 72.7573L31.6581 72.7557C31.3702 72.9913 30.9794 73.1296 30.589 73.1296L27.8755 73.1508L27.8514 73.2112L27.8725 79.2744L30.5886 79.2986C30.9888 79.2986 31.3614 79.4351 31.659 79.671L31.6577 79.6726C31.9547 79.9087 32.1721 80.2395 32.2633 80.628C32.7389 82.6543 33.5439 84.5895 34.6306 86.3418C35.0556 87.0273 34.9528 87.8966 34.3868 88.4626L32.5072 90.3423L32.5055 90.3406L32.5072 90.4576L36.7541 94.7044H36.8695L38.7497 92.8242C39.3157 92.2581 40.1848 92.1551 40.8705 92.5803C42.6225 93.6664 44.5578 94.4722 46.5835 94.9474C47.367 95.1312 47.9129 95.8216 47.9129 96.6221L47.934 99.336L47.9945 99.3602L54.0577 99.3391L54.0821 96.6229C54.0821 96.2227 54.2186 95.8501 54.4544 95.5526L54.4561 95.5538C54.6919 95.2569 55.0229 95.0394 55.4115 94.9482C57.4378 94.4726 59.3729 93.6676 61.1253 92.5809C61.8108 92.1559 62.6801 92.2588 63.2461 92.8248L65.1833 94.7273C65.2046 94.7273 65.2257 94.7195 65.2411 94.7042L69.4878 90.4574V90.342L67.6076 88.4616C67.0416 87.8956 66.9385 87.0265 67.3637 86.3408C68.4503 84.5889 69.2556 82.6537 69.7311 80.6278C69.9137 79.8497 70.6041 79.2984 71.4058 79.2984L74.1196 79.2773L74.1438 79.2169L74.1227 73.1536L71.4066 73.1294C71.0064 73.1294 70.6338 72.993 70.3362 72.7571L70.3375 72.7554C70.0405 72.5196 69.8231 72.1886 69.7319 71.8001C69.2563 69.7737 68.4513 67.8386 67.3646 66.0862C66.9395 65.4007 67.0424 64.5314 67.6084 63.9654L69.511 62.0282L69.4878 61.9704L65.2411 57.7235H65.1257L63.2455 59.6039C62.6795 60.1699 61.8104 60.273 61.1247 59.8478C59.3725 58.7615 57.4376 57.9559 55.4117 57.4804C55.1299 57.4143 54.8788 57.2829 54.6727 57.1036L51.4557 59.2822C51.1664 59.4783 50.7962 59.4635 50.5266 59.2732L47.3227 57.1036C47.1165 57.2827 46.8657 57.4143 46.5837 57.4804C44.5572 57.9559 42.6233 58.7611 40.8705 59.8476C40.1848 60.2726 39.3157 60.1697 38.7497 59.6037L36.8119 57.7005C36.7906 57.7005 36.7695 57.7083 36.7543 57.7235L34.5439 59.9341ZM54.5719 72.8655C55.3348 72.1025 56.4941 73.2616 55.7309 74.0246L50.1921 79.5634C49.872 79.8835 49.3531 79.8835 49.033 79.5634L46.2636 76.794C45.5007 76.031 46.6598 74.8717 47.4227 75.6349L49.6126 77.8248L54.5719 72.8655ZM99.4878 53.0698L96.2512 54.1145C96.02 54.1891 95.8753 54.3916 95.8757 54.6334L95.8823 58.0346C95.8862 60.1492 93.1743 61.019 91.9413 59.3148L89.9475 56.5595C89.8029 56.3595 89.5733 56.2851 89.3389 56.3619L86.1061 57.4192C84.1071 58.0729 82.4266 55.7744 83.6722 54.0667L85.6766 51.319C85.8174 51.126 85.8174 50.8698 85.6766 50.6766L83.6722 47.9287C82.4266 46.2212 84.1073 43.9225 86.1061 44.5763L89.3389 45.6335C89.5735 45.7101 89.8029 45.636 89.9475 45.4359L91.9413 42.6805C93.1743 40.9765 95.8862 41.8458 95.8823 43.9607L95.8757 47.3619C95.8753 47.6035 96.02 47.8062 96.2512 47.8805L99.4878 48.9253C101.497 49.5735 101.497 52.4216 99.4878 53.0698ZM95.7515 52.5583L98.9882 51.5135C99.488 51.3522 99.488 50.6424 98.9882 50.4813L95.7515 49.4366C94.8386 49.1419 94.2408 48.3222 94.2426 47.3617L94.2492 43.9605C94.2502 43.4356 93.5791 43.2092 93.2668 43.6408L91.273 46.3962C90.7129 47.1701 89.7406 47.4863 88.8327 47.1893L85.6 46.1321C85.0946 45.9669 84.6805 46.5417 84.9911 46.9678L86.9955 49.7157C87.5632 50.494 87.5632 51.501 86.9955 52.2791L84.9911 55.0268C84.6805 55.4531 85.0946 56.0277 85.6 55.8625L88.8327 54.8053C89.7408 54.5084 90.7132 54.8246 91.273 55.5984L93.2668 58.3539C93.5791 58.7854 94.2502 58.5592 94.2492 58.0344L94.2426 54.6332C94.2408 53.6729 94.8386 52.8529 95.7515 52.5583ZM84.7684 20.1741L83.2023 23.2331C83.0879 23.4567 83.1267 23.704 83.3052 23.8819L85.7399 26.3073C86.8164 27.3796 86.4976 29.1511 85.1893 29.8181L85.1899 29.8193C84.7889 30.0232 84.3241 30.1003 83.8482 30.0241L80.455 29.48C80.2105 29.4408 79.9822 29.5554 79.8701 29.7765L78.3158 32.8416C77.3581 34.7298 74.525 34.2952 74.1955 32.1891L73.6643 28.7939C73.6266 28.5531 73.4417 28.3682 73.2011 28.3305L69.8057 27.7993C67.6976 27.4696 67.2662 24.6361 69.1532 23.6792L72.2183 22.1249C72.4392 22.0128 72.554 21.7843 72.5148 21.54L71.9707 18.1468C71.8972 17.6871 71.971 17.1906 72.1769 16.8057L72.1755 16.8051C72.8358 15.5063 74.6096 15.1728 75.6875 16.2551L78.1131 18.6898C78.291 18.8683 78.5383 18.9071 78.7619 18.7927L81.8209 17.2266C83.7087 16.26 85.7348 18.2859 84.7684 20.1741ZM81.7485 22.4902L83.3146 19.4313C83.5609 18.9501 83.0445 18.4339 82.5635 18.6802L79.5046 20.2463C78.6475 20.685 77.6329 20.5244 76.9538 19.8426L74.5285 17.4078C74.2303 17.1086 73.7872 17.2496 73.6356 17.548L73.6344 17.5474C73.5837 17.6484 73.5649 17.7674 73.5846 17.8906L74.1287 21.2838C74.2817 22.2386 73.8167 23.1479 72.9546 23.5852L69.8895 25.1396C69.4075 25.384 69.5227 26.1023 70.0553 26.1857L73.4507 26.7169C74.41 26.8669 75.1281 27.585 75.2781 28.5443L75.8093 31.9397C75.8925 32.4717 76.6101 32.5891 76.8554 32.1055L78.4098 29.0404C78.8471 28.1783 79.7564 27.7133 80.7112 27.8664L84.1044 28.4104C84.2271 28.4301 84.3458 28.4109 84.447 28.3594L84.4477 28.3608C84.7561 28.1959 84.8796 27.7582 84.5872 27.4667L82.1524 25.0414C81.4706 24.3619 81.3098 23.3473 81.7485 22.4902ZM2.50677 48.9251L5.74342 47.8803C5.97437 47.8057 6.11926 47.6033 6.11885 47.3615L6.11229 43.9603C6.10839 41.8454 8.82022 40.9761 10.0533 42.6801L12.047 45.4355C12.1917 45.6353 12.4212 45.7097 12.6557 45.6331L15.8884 44.5759C17.8873 43.9221 19.5679 46.2206 18.3226 47.9283L16.3182 50.6762C16.1774 50.8692 16.1774 51.1256 16.3182 51.3186L18.3226 54.0663C19.5681 55.774 17.8873 58.0723 15.8884 57.4188L12.6557 56.3615C12.421 56.2849 12.1917 56.3591 12.047 56.5591L10.0533 59.3144C8.82022 61.0185 6.10839 60.1488 6.11229 58.0342L6.11885 54.633C6.11926 54.3913 5.97458 54.1887 5.74342 54.1143L2.50677 53.0696C0.497642 52.4214 0.497847 49.5735 2.50677 48.9251ZM6.24303 49.4364L3.00638 50.4811C2.50656 50.6424 2.50656 51.352 3.00638 51.5133L6.24303 52.558C7.15599 52.8527 7.75377 53.6725 7.75193 54.633L7.74537 58.0342C7.74434 58.5588 8.41549 58.7854 8.7278 58.3536L10.7216 55.5982C11.2816 54.8244 12.254 54.5082 13.1618 54.8051L16.3946 55.8623C16.9 56.0275 17.3141 55.4527 17.0034 55.0266L14.999 52.2789C14.4314 51.5008 14.4314 50.4936 14.999 49.7155L17.0034 46.9676C17.3141 46.5415 16.9 45.9667 16.3946 46.1319L13.1618 47.1891C12.254 47.4861 11.2816 47.1698 10.7216 46.396L8.7278 43.6406C8.41549 43.209 7.74434 43.4354 7.74537 43.9603L7.75193 47.3615C7.75377 48.322 7.15599 49.1419 6.24303 49.4364ZM20.1739 17.2264L23.2329 18.7925C23.4563 18.9069 23.7038 18.8681 23.8817 18.6896L26.307 16.2549C27.379 15.1788 29.1506 15.4968 29.8179 16.8055L29.8191 16.8049C30.023 17.2059 30.1001 17.6707 30.0238 18.1468L29.4795 21.54C29.4404 21.7843 29.5549 22.0128 29.7763 22.1249L32.8414 23.6792C34.7298 24.6369 34.2945 27.4702 32.1889 27.7993L28.7934 28.3305C28.5522 28.3682 28.3684 28.5496 28.3301 28.7937L27.7989 32.1891C27.4698 34.2946 24.6366 34.7307 23.6786 32.8416L22.1242 29.7765C22.0121 29.5554 21.7836 29.4406 21.5393 29.4798L18.1461 30.0238C16.0489 30.3601 14.7507 27.8047 16.2542 26.307L18.689 23.8817C18.8675 23.7038 18.9062 23.4565 18.7919 23.2329L17.2258 20.1739C16.2598 18.2861 18.2857 16.26 20.1739 17.2264ZM22.4902 20.2461L19.4312 18.68C18.9501 18.4337 18.4339 18.9501 18.6802 19.4313L20.2462 22.4902C20.685 23.3473 20.5243 24.3619 19.8425 25.041L17.4078 27.4663C17.0239 27.8487 17.3572 28.4957 17.8906 28.4102L21.2838 27.8661C22.2386 27.7131 23.148 28.178 23.5852 29.0402L25.1395 32.1053C25.3861 32.5916 26.1029 32.4697 26.1857 31.9395L26.7169 28.5441C26.8663 27.5887 27.5858 26.8667 28.5442 26.7167L31.9397 26.1855C32.4719 26.1023 32.5891 25.3845 32.1055 25.1394L29.0404 23.585C28.1782 23.1479 27.7132 22.2384 27.8663 21.2836L28.4106 17.8904C28.4303 17.7674 28.411 17.6488 28.3596 17.5476L28.361 17.5469C28.1961 17.2385 27.7581 17.115 27.4669 17.4074L25.0416 19.8421C24.3618 20.5242 23.3472 20.6848 22.4902 20.2461ZM53.0732 2.50946L54.1208 5.75492C54.1958 5.98751 54.3999 6.13342 54.6432 6.13301L58.0536 6.12645C60.1718 6.12256 61.0429 8.8389 59.3361 10.0742L56.573 12.0735C56.3718 12.2192 56.297 12.4502 56.374 12.6864L57.4341 15.928C58.0889 17.9304 55.7865 19.6139 54.0759 18.3663L51.3207 16.3563C51.1264 16.2147 50.8682 16.2147 50.6739 16.3563L47.9186 18.3663C46.2083 19.6139 43.9057 17.9306 44.5605 15.928L45.6206 12.6864C45.6978 12.4502 45.623 12.2192 45.4216 12.0735L42.6587 10.0742C40.9517 8.83869 41.823 6.12235 43.9412 6.12645L47.3516 6.13301C47.5948 6.13342 47.799 5.98751 47.874 5.75492L48.9216 2.50946C49.571 0.496848 52.4234 0.496848 53.0732 2.50946ZM52.5646 6.25433L51.517 3.00887C51.3545 2.50577 50.6399 2.50556 50.4776 3.00887L49.43 6.25433C49.1347 7.16872 48.3135 7.76773 47.3516 7.76589L43.9412 7.75933C43.4127 7.7583 43.185 8.43416 43.6194 8.74852L46.3823 10.7478C47.1575 11.3087 47.4741 12.2829 47.1768 13.1924L46.1167 16.434C45.9503 16.9428 46.5292 17.3598 46.9581 17.0469L49.7134 15.037C50.4928 14.4685 51.5018 14.4685 52.2814 15.037L55.0366 17.0469C55.4658 17.3598 56.0445 16.9428 55.8781 16.434L54.818 13.1924C54.5206 12.2829 54.8372 11.3089 55.6125 10.7478L58.3755 8.74852C58.81 8.43437 58.5823 7.7583 58.0538 7.75933L54.6434 7.76589C53.6812 7.76773 52.8597 7.16893 52.5646 6.25433ZM50.8829 22.3822C56.333 22.3822 60.7513 26.8007 60.7513 32.2506C60.7513 36.0231 58.6229 39.3678 55.3926 41.0304C63.1832 43.0202 68.8544 50.1063 68.8544 58.3368V59.0199L70.7024 60.8739C71.324 61.5948 71.2939 62.5983 70.6465 63.2457L68.7405 65.1721C68.7384 65.1909 68.7425 65.211 68.7536 65.2288C69.9415 67.1465 70.8092 69.2253 71.3258 71.4294L71.3525 71.4785L71.3537 71.4769L74.0614 71.4906C75.006 71.4906 75.7824 72.2673 75.7824 73.2116V79.2175C75.7824 80.1618 75.006 80.9385 74.0614 80.9385L71.3408 80.9614C71.334 80.9706 71.3285 80.9836 71.3248 80.9997C70.8119 83.1972 69.9366 85.2881 68.7525 87.1995L68.7659 87.3029L70.7022 89.2453C71.3238 89.9662 71.2937 90.9697 70.6463 91.6171L66.3993 95.8641C65.7282 96.5352 64.6368 96.5352 63.9656 95.8641L62.0393 93.958C62.0204 93.956 62.0003 93.9601 61.9825 93.9711C60.0666 95.1579 57.9839 96.028 55.782 96.5434L55.7328 96.57L55.7344 96.5713L55.7207 99.279C55.7207 100.224 54.9442 101 53.9997 101H47.9938C47.0493 101 46.2729 100.224 46.2729 99.279L46.2591 96.5703C46.2489 96.5573 46.2323 96.5471 46.2114 96.5422C44.0084 96.026 41.9286 95.1575 40.0117 93.9699L39.9082 93.9832L38.0279 95.8634C37.3568 96.5346 36.2653 96.5346 35.5942 95.8634L31.3479 91.6169C30.6702 90.9392 30.6851 89.8256 31.3495 89.1848L31.3479 89.1832L33.2539 87.2568C33.256 87.238 33.2519 87.2179 33.2408 87.2001C32.0538 85.2842 31.1839 83.2015 30.6685 80.9995L30.6419 80.9504L30.6407 80.952L27.9329 80.9383C26.9884 80.9383 26.2119 80.1618 26.2119 79.2173V73.2114C26.2119 72.2669 26.9884 71.4904 27.9329 71.4904L30.6425 71.4783L30.6413 71.4769C30.6544 71.4667 30.6644 71.4501 30.6691 71.4294C31.1847 69.229 32.0545 67.1433 33.2414 65.2294L33.2281 65.1257L31.3481 63.2457C30.6704 62.568 30.6853 61.4544 31.3497 60.8136L31.3481 60.812L33.1402 59.0199V58.3368C33.1402 50.162 38.7351 43.1133 46.4509 41.0697C40.4662 38.0556 39.1364 30.0417 43.9053 25.2726C45.6909 23.4868 48.158 22.3822 50.8829 22.3822ZM56.7019 26.4318C53.4884 23.2184 48.2779 23.2184 45.0644 26.4318C41.8509 29.6453 41.8509 34.8561 45.0644 38.0696C48.2779 41.2831 53.4884 41.2831 56.7019 38.0696C59.9154 34.8559 59.9154 29.6453 56.7019 26.4318ZM54.4231 55.3016L50.9973 57.6216L46.7075 54.7166L48.9898 42.2438C50.3208 42.0774 51.6736 42.0774 53.0046 42.2438L55.2869 54.7166L54.4231 55.3016ZM56.2861 56.0115C56.6507 55.7646 57.0982 55.5353 56.9902 54.9457L54.7227 42.554C61.5964 44.1865 66.7498 50.1934 67.185 57.3501L66.3998 56.5648C65.7286 55.8937 64.6372 55.8937 63.966 56.5648L62.0856 58.4453L61.9821 58.4586C60.2097 57.3608 58.3077 56.5396 56.2861 56.0115ZM47.2719 42.554L45.0043 54.9457L45.0052 54.9459C44.8978 55.533 45.341 55.7625 45.7087 56.0115C43.6871 56.5396 41.7849 57.3606 40.0123 58.4588C39.9944 58.4698 39.9744 58.4741 39.9555 58.4719L38.0288 56.565C37.6931 56.2294 37.2523 56.0617 36.8119 56.0617C35.9125 56.0617 35.4671 56.6929 34.8099 57.3503C35.2446 50.1936 40.3979 44.1865 47.2719 42.554ZM50.9973 66.1721C56.5435 66.1721 61.0396 70.6684 61.0396 76.2144C61.0396 81.7604 56.5433 86.2568 50.9973 86.2568C45.4513 86.2568 40.9549 81.7604 40.9549 76.2144C40.9549 70.6684 45.4513 66.1721 50.9973 66.1721ZM56.9392 70.2727C60.2207 73.5543 60.2207 78.875 56.9392 82.1564C53.6579 85.4377 48.3369 85.4379 45.0556 82.1564C41.7743 78.8748 41.774 73.5543 45.0556 70.2727C48.3369 66.9912 53.6577 66.9912 56.9392 70.2727ZM37.5912 70.7025C36.5756 71.0564 36.0373 69.5137 37.0533 69.1591L39.0009 68.4788C39.427 68.3302 39.893 68.5554 40.0416 68.9815L40.7219 70.9291C41.0656 71.9142 39.6055 72.4743 39.1987 71.5189C38.1673 74.127 38.0493 76.9258 38.7419 79.5105C40.6353 86.5765 48.1018 90.6146 55.0319 88.4104C56.0545 88.0852 56.5505 89.6404 55.525 89.9664C47.7026 92.4545 39.2965 87.9054 37.1603 79.9331C36.3539 76.9235 36.5236 73.6547 37.7974 70.6303L37.5912 70.7025ZM63.4717 83.6021C64.5095 83.4093 64.8306 84.9729 63.7967 85.2022L61.8147 85.6436C61.3427 85.758 60.9001 85.4776 60.8033 85.002L60.3611 83.0156C60.1287 81.9672 61.7227 81.6129 61.9557 82.6634L62.0028 82.8746C65.278 77.4731 64.2056 70.4244 59.233 66.3299C55.1289 62.9504 49.4304 62.4875 44.8535 65.0395C43.9156 65.5624 43.1186 64.1359 44.0594 63.6113C53.1078 58.5662 64.4406 64.4228 65.4436 74.7783C65.7343 77.7822 65.0874 80.8801 63.4717 83.6021Z" fill="#3C7CFF"/>
<path fill-rule="evenodd" clip-rule="evenodd" d="M34.5439 59.9341L32.5072 61.9709L32.5055 61.9692L32.5072 62.0862L34.3872 63.9662C34.9532 64.5323 35.0563 65.4016 34.631 66.0871C33.5445 67.8388 32.7391 69.7746 32.2637 71.8003C32.1719 72.1917 31.9549 72.5231 31.6594 72.7573L31.6581 72.7557C31.3702 72.9913 30.9794 73.1296 30.589 73.1296L27.8755 73.1508L27.8514 73.2112L27.8725 79.2744L30.5886 79.2986C30.9888 79.2986 31.3614 79.4351 31.659 79.671L31.6577 79.6726C31.9547 79.9087 32.1721 80.2395 32.2633 80.628C32.7389 82.6543 33.5439 84.5895 34.6306 86.3418C35.0556 87.0273 34.9528 87.8966 34.3868 88.4626L32.5072 90.3423L32.5055 90.3406L32.5072 90.4576L36.7541 94.7044H36.8695L38.7497 92.8242C39.3157 92.2581 40.1848 92.1551 40.8705 92.5803C42.6225 93.6664 44.5578 94.4722 46.5835 94.9474C47.367 95.1312 47.9129 95.8216 47.9129 96.6221L47.934 99.336L47.9945 99.3602L54.0577 99.3391L54.0821 96.6229C54.0821 96.2227 54.2186 95.8501 54.4544 95.5526L54.4561 95.5538C54.6919 95.2569 55.0229 95.0394 55.4115 94.9482C57.4378 94.4726 59.3729 93.6676 61.1253 92.5809C61.8108 92.1559 62.6801 92.2588 63.2461 92.8248L65.1833 94.7273C65.2046 94.7273 65.2257 94.7195 65.2411 94.7042L69.4878 90.4574V90.342L67.6076 88.4616C67.0416 87.8956 66.9385 87.0265 67.3637 86.3408C68.4503 84.5889 69.2556 82.6537 69.7311 80.6278C69.9137 79.8497 70.6041 79.2984 71.4058 79.2984L74.1196 79.2773L74.1438 79.2169L74.1227 73.1536L71.4066 73.1294C71.0064 73.1294 70.6338 72.993 70.3362 72.7571L70.3375 72.7554C70.0405 72.5196 69.8231 72.1886 69.7319 71.8001C69.2563 69.7737 68.4513 67.8386 67.3646 66.0862C66.9395 65.4007 67.0424 64.5314 67.6084 63.9654L69.511 62.0282L69.4878 61.9704L65.2411 57.7235H65.1257L63.2455 59.6039C62.6795 60.1699 61.8104 60.273 61.1247 59.8478C59.3725 58.7615 57.4376 57.9559 55.4117 57.4804C55.1299 57.4143 54.8788 57.2829 54.6727 57.1036L51.4557 59.2822C51.1664 59.4783 50.7962 59.4635 50.5266 59.2732L47.3227 57.1036C47.1165 57.2827 46.8657 57.4143 46.5837 57.4804C44.5572 57.9559 42.6233 58.7611 40.8705 59.8476C40.1848 60.2726 39.3157 60.1697 38.7497 59.6037L36.8119 57.7005C36.7906 57.7005 36.7695 57.7083 36.7543 57.7235L34.5439 59.9341ZM54.5719 72.8655C55.3348 72.1025 56.4941 73.2616 55.7309 74.0246L50.1921 79.5634C49.872 79.8835 49.3531 79.8835 49.033 79.5634L46.2636 76.794C45.5007 76.031 46.6598 74.8717 47.4227 75.6349L49.6126 77.8248L54.5719 72.8655ZM99.4878 53.0698L96.2512 54.1145C96.02 54.1891 95.8753 54.3916 95.8757 54.6334L95.8823 58.0346C95.8862 60.1492 93.1743 61.019 91.9413 59.3148L89.9475 56.5595C89.8029 56.3595 89.5733 56.2851 89.3389 56.3619L86.1061 57.4192C84.1071 58.0729 82.4266 55.7744 83.6722 54.0667L85.6766 51.319C85.8174 51.126 85.8174 50.8698 85.6766 50.6766L83.6722 47.9287C82.4266 46.2212 84.1073 43.9225 86.1061 44.5763L89.3389 45.6335C89.5735 45.7101 89.8029 45.636 89.9475 45.4359L91.9413 42.6805C93.1743 40.9765 95.8862 41.8458 95.8823 43.9607L95.8757 47.3619C95.8753 47.6035 96.02 47.8062 96.2512 47.8805L99.4878 48.9253C101.497 49.5735 101.497 52.4216 99.4878 53.0698ZM95.7515 52.5583L98.9882 51.5135C99.488 51.3522 99.488 50.6424 98.9882 50.4813L95.7515 49.4366C94.8386 49.1419 94.2408 48.3222 94.2426 47.3617L94.2492 43.9605C94.2502 43.4356 93.5791 43.2092 93.2668 43.6408L91.273 46.3962C90.7129 47.1701 89.7406 47.4863 88.8327 47.1893L85.6 46.1321C85.0946 45.9669 84.6805 46.5417 84.9911 46.9678L86.9955 49.7157C87.5632 50.494 87.5632 51.501 86.9955 52.2791L84.9911 55.0268C84.6805 55.4531 85.0946 56.0277 85.6 55.8625L88.8327 54.8053C89.7408 54.5084 90.7132 54.8246 91.273 55.5984L93.2668 58.3539C93.5791 58.7854 94.2502 58.5592 94.2492 58.0344L94.2426 54.6332C94.2408 53.6729 94.8386 52.8529 95.7515 52.5583ZM84.7684 20.1741L83.2023 23.2331C83.0879 23.4567 83.1267 23.704 83.3052 23.8819L85.7399 26.3073C86.8164 27.3796 86.4976 29.1511 85.1893 29.8181L85.1899 29.8193C84.7889 30.0232 84.3241 30.1003 83.8482 30.0241L80.455 29.48C80.2105 29.4408 79.9822 29.5554 79.8701 29.7765L78.3158 32.8416C77.3581 34.7298 74.525 34.2952 74.1955 32.1891L73.6643 28.7939C73.6266 28.5531 73.4417 28.3682 73.2011 28.3305L69.8057 27.7993C67.6976 27.4696 67.2662 24.6361 69.1532 23.6792L72.2183 22.1249C72.4392 22.0128 72.554 21.7843 72.5148 21.54L71.9707 18.1468C71.8972 17.6871 71.971 17.1906 72.1769 16.8057L72.1755 16.8051C72.8358 15.5063 74.6096 15.1728 75.6875 16.2551L78.1131 18.6898C78.291 18.8683 78.5383 18.9071 78.7619 18.7927L81.8209 17.2266C83.7087 16.26 85.7348 18.2859 84.7684 20.1741ZM81.7485 22.4902L83.3146 19.4313C83.5609 18.9501 83.0445 18.4339 82.5635 18.6802L79.5046 20.2463C78.6475 20.685 77.6329 20.5244 76.9538 19.8426L74.5285 17.4078C74.2303 17.1086 73.7872 17.2496 73.6356 17.548L73.6344 17.5474C73.5837 17.6484 73.5649 17.7674 73.5846 17.8906L74.1287 21.2838C74.2817 22.2386 73.8167 23.1479 72.9546 23.5852L69.8895 25.1396C69.4075 25.384 69.5227 26.1023 70.0553 26.1857L73.4507 26.7169C74.41 26.8669 75.1281 27.585 75.2781 28.5443L75.8093 31.9397C75.8925 32.4717 76.6101 32.5891 76.8554 32.1055L78.4098 29.0404C78.8471 28.1783 79.7564 27.7133 80.7112 27.8664L84.1044 28.4104C84.2271 28.4301 84.3458 28.4109 84.447 28.3594L84.4477 28.3608C84.7561 28.1959 84.8796 27.7582 84.5872 27.4667L82.1524 25.0414C81.4706 24.3619 81.3098 23.3473 81.7485 22.4902ZM2.50677 48.9251L5.74342 47.8803C5.97437 47.8057 6.11926 47.6033 6.11885 47.3615L6.11229 43.9603C6.10839 41.8454 8.82022 40.9761 10.0533 42.6801L12.047 45.4355C12.1917 45.6353 12.4212 45.7097 12.6557 45.6331L15.8884 44.5759C17.8873 43.9221 19.5679 46.2206 18.3226 47.9283L16.3182 50.6762C16.1774 50.8692 16.1774 51.1256 16.3182 51.3186L18.3226 54.0663C19.5681 55.774 17.8873 58.0723 15.8884 57.4188L12.6557 56.3615C12.421 56.2849 12.1917 56.3591 12.047 56.5591L10.0533 59.3144C8.82022 61.0185 6.10839 60.1488 6.11229 58.0342L6.11885 54.633C6.11926 54.3913 5.97458 54.1887 5.74342 54.1143L2.50677 53.0696C0.497642 52.4214 0.497847 49.5735 2.50677 48.9251ZM6.24303 49.4364L3.00638 50.4811C2.50656 50.6424 2.50656 51.352 3.00638 51.5133L6.24303 52.558C7.15599 52.8527 7.75377 53.6725 7.75193 54.633L7.74537 58.0342C7.74434 58.5588 8.41549 58.7854 8.7278 58.3536L10.7216 55.5982C11.2816 54.8244 12.254 54.5082 13.1618 54.8051L16.3946 55.8623C16.9 56.0275 17.3141 55.4527 17.0034 55.0266L14.999 52.2789C14.4314 51.5008 14.4314 50.4936 14.999 49.7155L17.0034 46.9676C17.3141 46.5415 16.9 45.9667 16.3946 46.1319L13.1618 47.1891C12.254 47.4861 11.2816 47.1698 10.7216 46.396L8.7278 43.6406C8.41549 43.209 7.74434 43.4354 7.74537 43.9603L7.75193 47.3615C7.75377 48.322 7.15599 49.1419 6.24303 49.4364ZM20.1739 17.2264L23.2329 18.7925C23.4563 18.9069 23.7038 18.8681 23.8817 18.6896L26.307 16.2549C27.379 15.1788 29.1506 15.4968 29.8179 16.8055L29.8191 16.8049C30.023 17.2059 30.1001 17.6707 30.0238 18.1468L29.4795 21.54C29.4404 21.7843 29.5549 22.0128 29.7763 22.1249L32.8414 23.6792C34.7298 24.6369 34.2945 27.4702 32.1889 27.7993L28.7934 28.3305C28.5522 28.3682 28.3684 28.5496 28.3301 28.7937L27.7989 32.1891C27.4698 34.2946 24.6366 34.7307 23.6786 32.8416L22.1242 29.7765C22.0121 29.5554 21.7836 29.4406 21.5393 29.4798L18.1461 30.0238C16.0489 30.3601 14.7507 27.8047 16.2542 26.307L18.689 23.8817C18.8675 23.7038 18.9062 23.4565 18.7919 23.2329L17.2258 20.1739C16.2598 18.2861 18.2857 16.26 20.1739 17.2264ZM22.4902 20.2461L19.4312 18.68C18.9501 18.4337 18.4339 18.9501 18.6802 19.4313L20.2462 22.4902C20.685 23.3473 20.5243 24.3619 19.8425 25.041L17.4078 27.4663C17.0239 27.8487 17.3572 28.4957 17.8906 28.4102L21.2838 27.8661C22.2386 27.7131 23.148 28.178 23.5852 29.0402L25.1395 32.1053C25.3861 32.5916 26.1029 32.4697 26.1857 31.9395L26.7169 28.5441C26.8663 27.5887 27.5858 26.8667 28.5442 26.7167L31.9397 26.1855C32.4719 26.1023 32.5891 25.3845 32.1055 25.1394L29.0404 23.585C28.1782 23.1479 27.7132 22.2384 27.8663 21.2836L28.4106 17.8904C28.4303 17.7674 28.411 17.6488 28.3596 17.5476L28.361 17.5469C28.1961 17.2385 27.7581 17.115 27.4669 17.4074L25.0416 19.8421C24.3618 20.5242 23.3472 20.6848 22.4902 20.2461ZM53.0732 2.50946L54.1208 5.75492C54.1958 5.98751 54.3999 6.13342 54.6432 6.13301L58.0536 6.12645C60.1718 6.12256 61.0429 8.8389 59.3361 10.0742L56.573 12.0735C56.3718 12.2192 56.297 12.4502 56.374 12.6864L57.4341 15.928C58.0889 17.9304 55.7865 19.6139 54.0759 18.3663L51.3207 16.3563C51.1264 16.2147 50.8682 16.2147 50.6739 16.3563L47.9186 18.3663C46.2083 19.6139 43.9057 17.9306 44.5605 15.928L45.6206 12.6864C45.6978 12.4502 45.623 12.2192 45.4216 12.0735L42.6587 10.0742C40.9517 8.83869 41.823 6.12235 43.9412 6.12645L47.3516 6.13301C47.5948 6.13342 47.799 5.98751 47.874 5.75492L48.9216 2.50946C49.571 0.496848 52.4234 0.496848 53.0732 2.50946ZM52.5646 6.25433L51.517 3.00887C51.3545 2.50577 50.6399 2.50556 50.4776 3.00887L49.43 6.25433C49.1347 7.16872 48.3135 7.76773 47.3516 7.76589L43.9412 7.75933C43.4127 7.7583 43.185 8.43416 43.6194 8.74852L46.3823 10.7478C47.1575 11.3087 47.4741 12.2829 47.1768 13.1924L46.1167 16.434C45.9503 16.9428 46.5292 17.3598 46.9581 17.0469L49.7134 15.037C50.4928 14.4685 51.5018 14.4685 52.2814 15.037L55.0366 17.0469C55.4658 17.3598 56.0445 16.9428 55.8781 16.434L54.818 13.1924C54.5206 12.2829 54.8372 11.3089 55.6125 10.7478L58.3755 8.74852C58.81 8.43437 58.5823 7.7583 58.0538 7.75933L54.6434 7.76589C53.6812 7.76773 52.8597 7.16893 52.5646 6.25433ZM50.8829 22.3822C56.333 22.3822 60.7513 26.8007 60.7513 32.2506C60.7513 36.0231 58.6229 39.3678 55.3926 41.0304C63.1832 43.0202 68.8544 50.1063 68.8544 58.3368V59.0199L70.7024 60.8739C71.324 61.5948 71.2939 62.5983 70.6465 63.2457L68.7405 65.1721C68.7384 65.1909 68.7425 65.211 68.7536 65.2288C69.9415 67.1465 70.8092 69.2253 71.3258 71.4294L71.3525 71.4785L71.3537 71.4769L74.0614 71.4906C75.006 71.4906 75.7824 72.2673 75.7824 73.2116V79.2175C75.7824 80.1618 75.006 80.9385 74.0614 80.9385L71.3408 80.9614C71.334 80.9706 71.3285 80.9836 71.3248 80.9997C70.8119 83.1972 69.9366 85.2881 68.7525 87.1995L68.7659 87.3029L70.7022 89.2453C71.3238 89.9662 71.2937 90.9697 70.6463 91.6171L66.3993 95.8641C65.7282 96.5352 64.6368 96.5352 63.9656 95.8641L62.0393 93.958C62.0204 93.956 62.0003 93.9601 61.9825 93.9711C60.0666 95.1579 57.9839 96.028 55.782 96.5434L55.7328 96.57L55.7344 96.5713L55.7207 99.279C55.7207 100.224 54.9442 101 53.9997 101H47.9938C47.0493 101 46.2729 100.224 46.2729 99.279L46.2591 96.5703C46.2489 96.5573 46.2323 96.5471 46.2114 96.5422C44.0084 96.026 41.9286 95.1575 40.0117 93.9699L39.9082 93.9832L38.0279 95.8634C37.3568 96.5346 36.2653 96.5346 35.5942 95.8634L31.3479 91.6169C30.6702 90.9392 30.6851 89.8256 31.3495 89.1848L31.3479 89.1832L33.2539 87.2568C33.256 87.238 33.2519 87.2179 33.2408 87.2001C32.0538 85.2842 31.1839 83.2015 30.6685 80.9995L30.6419 80.9504L30.6407 80.952L27.9329 80.9383C26.9884 80.9383 26.2119 80.1618 26.2119 79.2173V73.2114C26.2119 72.2669 26.9884 71.4904 27.9329 71.4904L30.6425 71.4783L30.6413 71.4769C30.6544 71.4667 30.6644 71.4501 30.6691 71.4294C31.1847 69.229 32.0545 67.1433 33.2414 65.2294L33.2281 65.1257L31.3481 63.2457C30.6704 62.568 30.6853 61.4544 31.3497 60.8136L31.3481 60.812L33.1402 59.0199V58.3368C33.1402 50.162 38.7351 43.1133 46.4509 41.0697C40.4662 38.0556 39.1364 30.0417 43.9053 25.2726C45.6909 23.4868 48.158 22.3822 50.8829 22.3822ZM56.7019 26.4318C53.4884 23.2184 48.2779 23.2184 45.0644 26.4318C41.8509 29.6453 41.8509 34.8561 45.0644 38.0696C48.2779 41.2831 53.4884 41.2831 56.7019 38.0696C59.9154 34.8559 59.9154 29.6453 56.7019 26.4318ZM54.4231 55.3016L50.9973 57.6216L46.7075 54.7166L48.9898 42.2438C50.3208 42.0774 51.6736 42.0774 53.0046 42.2438L55.2869 54.7166L54.4231 55.3016ZM56.2861 56.0115C56.6507 55.7646 57.0982 55.5353 56.9902 54.9457L54.7227 42.554C61.5964 44.1865 66.7498 50.1934 67.185 57.3501L66.3998 56.5648C65.7286 55.8937 64.6372 55.8937 63.966 56.5648L62.0856 58.4453L61.9821 58.4586C60.2097 57.3608 58.3077 56.5396 56.2861 56.0115ZM47.2719 42.554L45.0043 54.9457L45.0052 54.9459C44.8978 55.533 45.341 55.7625 45.7087 56.0115C43.6871 56.5396 41.7849 57.3606 40.0123 58.4588C39.9944 58.4698 39.9744 58.4741 39.9555 58.4719L38.0288 56.565C37.6931 56.2294 37.2523 56.0617 36.8119 56.0617C35.9125 56.0617 35.4671 56.6929 34.8099 57.3503C35.2446 50.1936 40.3979 44.1865 47.2719 42.554ZM50.9973 66.1721C56.5435 66.1721 61.0396 70.6684 61.0396 76.2144C61.0396 81.7604 56.5433 86.2568 50.9973 86.2568C45.4513 86.2568 40.9549 81.7604 40.9549 76.2144C40.9549 70.6684 45.4513 66.1721 50.9973 66.1721ZM56.9392 70.2727C60.2207 73.5543 60.2207 78.875 56.9392 82.1564C53.6579 85.4377 48.3369 85.4379 45.0556 82.1564C41.7743 78.8748 41.774 73.5543 45.0556 70.2727C48.3369 66.9912 53.6577 66.9912 56.9392 70.2727ZM37.5912 70.7025C36.5756 71.0564 36.0373 69.5137 37.0533 69.1591L39.0009 68.4788C39.427 68.3302 39.893 68.5554 40.0416 68.9815L40.7219 70.9291C41.0656 71.9142 39.6055 72.4743 39.1987 71.5189C38.1673 74.127 38.0493 76.9258 38.7419 79.5105C40.6353 86.5765 48.1018 90.6146 55.0319 88.4104C56.0545 88.0852 56.5505 89.6404 55.525 89.9664C47.7026 92.4545 39.2965 87.9054 37.1603 79.9331C36.3539 76.9235 36.5236 73.6547 37.7974 70.6303L37.5912 70.7025ZM63.4717 83.6021C64.5095 83.4093 64.8306 84.9729 63.7967 85.2022L61.8147 85.6436C61.3427 85.758 60.9001 85.4776 60.8033 85.002L60.3611 83.0156C60.1287 81.9672 61.7227 81.6129 61.9557 82.6634L62.0028 82.8746C65.278 77.4731 64.2056 70.4244 59.233 66.3299C55.1289 62.9504 49.4304 62.4875 44.8535 65.0395C43.9156 65.5624 43.1186 64.1359 44.0594 63.6113C53.1078 58.5662 64.4406 64.4228 65.4436 74.7783C65.7343 77.7822 65.0874 80.8801 63.4717 83.6021Z" stroke="#3C7CFF" stroke-width="1.2" mask="url(#path-1-outside-1_120_67)"/>
</svg>
