<svg width="100" height="100" viewBox="0 0 100 100" fill="none" xmlns="http://www.w3.org/2000/svg">
<path d="M88.9458 8.71367C90.4897 9.80864 91.6793 11.3277 92.3731 13.0833H7.62728C8.32102 11.3277 9.51069 9.80864 11.0546 8.71368C12.6953 7.55005 14.6558 6.92235 16.6672 6.91663H83.3332C85.3446 6.92235 87.3051 7.55005 88.9458 8.71367Z" stroke="white" stroke-width="0.5"/>
<path d="M53.0834 66.6667C53.0834 68.3696 51.703 69.75 50.0001 69.75C48.2972 69.75 46.9167 68.3696 46.9167 66.6667C46.9167 64.9638 48.2972 63.5834 50.0001 63.5834C51.703 63.5834 53.0834 64.9638 53.0834 66.6667Z" stroke="white" stroke-width="0.5"/>
<path d="M78.0664 73.5833C79.2906 73.5844 80.5002 73.3174 81.6102 72.801C82.7202 72.2846 83.7036 71.5313 84.4913 70.5942L84.4928 70.5925C85.2699 69.6507 85.8397 68.5557 86.165 67.3788C86.4903 66.2019 86.5637 64.9697 86.3805 63.7625L86.3805 63.7625L86.3795 63.7564C85.8675 60.8677 85.0111 58.0508 83.8288 55.3659L83.8279 55.3641L83.2279 54.0307L83.2281 54.0307L83.2245 54.0235C82.8064 53.1683 82.0657 52.5142 81.1654 52.2051C80.265 51.8961 79.2787 51.9573 78.4235 52.3754C77.5683 52.7935 76.9142 53.5342 76.6051 54.4346C76.2962 55.3343 76.3572 56.3198 76.7744 57.1746C76.7747 57.1752 76.7751 57.1758 76.7754 57.1765L77.2713 58.2344C77.2717 58.2353 77.2721 58.2361 77.2724 58.237C78.2075 60.3525 78.8947 62.5691 79.3202 64.8425C79.3519 65.0418 79.3406 65.2456 79.287 65.4402C79.2333 65.6357 79.1382 65.8174 79.0081 65.973L79.0071 65.9742C78.8928 66.1128 78.7492 66.2244 78.5866 66.3009C78.4241 66.3774 78.2466 66.4169 78.067 66.4167H78.0666H76.6666C75.7163 66.4167 74.8048 66.7942 74.1328 67.4662C73.4608 68.1382 73.0833 69.0496 73.0833 70C73.0833 70.9504 73.4608 71.8618 74.1328 72.5338C74.8048 73.2058 75.7163 73.5833 76.6666 73.5833H78.0664ZM78.0664 73.5833L78.0666 73.3333V73.5833H78.0664ZM20.7113 64.9511L20.7115 64.9512L20.713 64.9424C21.4037 60.9301 22.9242 57.1073 25.176 53.7181L27.4587 55.879C27.7912 56.2134 28.1865 56.479 28.6219 56.6604C29.0586 56.8423 29.5269 56.936 30 56.936C30.473 56.936 30.9414 56.8423 31.378 56.6604C31.8144 56.4786 32.2104 56.2123 32.5434 55.8768C32.8789 55.5438 33.1452 55.1477 33.327 54.7114C33.509 54.2747 33.6026 53.8064 33.6026 53.3333C33.6026 52.8603 33.509 52.3919 33.327 51.9553C33.1452 51.5188 32.8788 51.1227 32.5432 50.7896C32.543 50.7895 32.5428 50.7893 32.5427 50.7892L29.8604 48.1069C34.4452 43.895 40.2361 41.2277 46.4166 40.4807V43.3333C46.4166 44.2837 46.7942 45.1951 47.4662 45.8671C48.1382 46.5391 49.0496 46.9167 50 46.9167C50.9503 46.9167 51.8618 46.5391 52.5338 45.8671C53.2058 45.1951 53.5833 44.2837 53.5833 43.3333V40.5425C55.3936 40.7291 57.1825 41.085 58.9267 41.6057C59.8338 41.8902 60.8167 41.8029 61.6595 41.363C62.5028 40.9229 63.1367 40.1658 63.4218 39.2583C63.7069 38.3507 63.6198 37.3671 63.1796 36.5238C62.7395 35.6805 61.9824 35.0466 61.0749 34.7615L61.0742 34.7613C57.4885 33.6465 53.7548 33.0808 49.9998 33.0833C41.3076 33.0898 32.8965 36.1631 26.2478 41.762C19.5992 47.3609 15.1393 55.1261 13.6537 63.6902C13.4354 64.9272 13.488 66.1967 13.808 67.4113C14.128 68.626 14.7077 69.7569 15.5071 70.7258L15.5092 70.7283C16.2998 71.6616 17.2836 72.4122 18.3926 72.9281C19.5016 73.4441 20.7094 73.7131 21.9326 73.7167H21.9333H23.3333C24.2837 73.7167 25.1951 73.3391 25.8671 72.6671C26.5391 71.9951 26.9166 71.0837 26.9166 70.1333C26.9166 69.183 26.5391 68.2715 25.8671 67.5995C25.1951 66.9275 24.2837 66.55 23.3333 66.55H21.9333H21.933C21.7533 66.5502 21.5758 66.5107 21.4133 66.4342C21.2509 66.3578 21.1075 66.2464 20.9932 66.1081C20.8631 65.9485 20.7703 65.7619 20.7215 65.5618C20.6727 65.3616 20.6692 65.1529 20.7113 64.9511ZM9.77234 90.2276L9.59556 90.4044L9.77233 90.2276C7.94386 88.3992 6.91663 85.9192 6.91663 83.3333V20.25H93.0833V83.3333C93.0833 85.9192 92.0561 88.3992 90.2276 90.2276C88.3991 92.0561 85.9192 93.0833 83.3333 93.0833H16.6666C14.0808 93.0833 11.6008 92.0561 9.77234 90.2276ZM50.0014 56.4167H50C47.2815 56.4167 44.6744 57.4966 42.7521 59.4188C40.8299 61.3411 39.75 63.9482 39.75 66.6667C39.75 69.3851 40.8299 71.9923 42.7521 73.9145C44.6744 75.8368 47.2815 76.9167 50 76.9167C52.7184 76.9167 55.3256 75.8368 57.2478 73.9145C59.1701 71.9923 60.25 69.3851 60.25 66.6667V66.6661C60.2466 65.2121 59.934 63.776 59.3336 62.4532L75.8767 45.9101C76.5513 45.2355 76.9303 44.3206 76.9303 43.3667C76.9303 42.4127 76.5513 41.4978 75.8767 40.8232C75.2022 40.1487 74.2873 39.7697 73.3333 39.7697C72.3793 39.7697 71.4644 40.1487 70.7899 40.8232L54.2478 57.3653C52.9172 56.7492 51.4691 56.4254 50.0014 56.4167Z" stroke="white" stroke-width="0.5"/>
<path d="M16.6667 6.41667L16.666 6.41667C14.5512 6.42261 12.4901 7.0825 10.7652 8.30587C9.0402 9.52925 7.73587 11.2562 7.03096 13.25L6.91312 13.5833H7.26667H92.7333H93.0869L92.969 13.25C92.2641 11.2562 90.9598 9.52925 89.2348 8.30587C87.5099 7.0825 85.4488 6.42261 83.334 6.41667H83.3333L16.6667 6.41667ZM6.66667 19.75H6.41667V20V83.3333C6.41667 86.0518 7.49657 88.6589 9.41882 90.5812C11.3411 92.5034 13.9482 93.5833 16.6667 93.5833H83.3333C86.0518 93.5833 88.6589 92.5034 90.5812 90.5812C92.5034 88.6589 93.5833 86.0518 93.5833 83.3333V20V19.75H93.3333H6.66667ZM16.6667 0.25H83.3333C85.4892 0.25 87.624 0.67463 89.6157 1.49964C91.6075 2.32466 93.4172 3.5339 94.9417 5.05833C96.4661 6.58276 97.6753 8.39252 98.5004 10.3843C99.3254 12.376 99.75 14.5108 99.75 16.6667V83.3333C99.75 87.6873 98.0204 91.8629 94.9417 94.9417C91.8629 98.0204 87.6873 99.75 83.3333 99.75H16.6667C14.5108 99.75 12.376 99.3254 10.3843 98.5004C8.39252 97.6753 6.58276 96.4661 5.05833 94.9417C1.97961 91.8629 0.25 87.6873 0.25 83.3333V16.6667C0.25 12.3127 1.97961 8.13705 5.05833 5.05833C6.58276 3.5339 8.39252 2.32466 10.3843 1.49964C12.376 0.67463 14.5108 0.25 16.6667 0.25Z" fill="#3C7CFF" stroke="white" stroke-width="0.5"/>
<path d="M78.0666 66.5333H76.6666C75.7825 66.5333 74.9347 66.8845 74.3096 67.5096C73.6844 68.1348 73.3333 68.9826 73.3333 69.8666C73.3333 70.7507 73.6844 71.5986 74.3096 72.2237C74.9347 72.8488 75.7825 73.2 76.6666 73.2H78.0666C79.2543 73.201 80.4278 72.942 81.5047 72.441C82.5816 71.94 83.5357 71.2092 84.2999 70.3M78.0666 66.5333L78.0663 66.7833M78.0666 66.5333C78.2832 66.5336 78.4971 66.4859 78.693 66.3937C78.889 66.3015 79.0621 66.167 79.1999 66L78.0663 66.7833M78.0666 66.5333V66.7833H78.0663M78.0663 66.7833H76.6666C75.8488 66.7833 75.0646 67.1082 74.4863 67.6864C73.9081 68.2646 73.5833 69.0489 73.5833 69.8666C73.5833 70.6844 73.9081 71.4687 74.4863 72.0469C75.0646 72.6251 75.8488 72.95 76.6666 72.95H78.0666H78.0668C79.218 72.951 80.3555 72.6999 81.3993 72.2143C82.4428 71.7288 83.3673 71.0208 84.1079 70.1399M84.1079 70.1399C84.1077 70.1401 84.1075 70.1404 84.1072 70.1407L84.2999 70.3M84.1079 70.1399C84.1081 70.1396 84.1083 70.1394 84.1085 70.1391L84.2999 70.3M84.1079 70.1399C84.8444 69.2487 85.3836 68.2116 85.6901 67.0969C85.9965 65.9827 86.0635 64.8164 85.8867 63.6745M84.2999 70.3C85.0592 69.3814 85.6152 68.3123 85.9312 67.1632C86.2472 66.014 86.3161 64.811 86.1333 63.6333M86.1333 63.6333L85.8872 63.6773C85.887 63.6764 85.8868 63.6754 85.8867 63.6745M86.1333 63.6333C85.6222 60.7757 84.7717 57.9893 83.5999 55.3333L83.3719 55.4359L83.3716 55.4351C84.5348 58.0717 85.3791 60.8377 85.8867 63.6745M86.1333 63.6333L85.8862 63.6717C85.8864 63.6726 85.8865 63.6736 85.8867 63.6745M82.7736 54.1063L83.3712 55.4342L79.3923 66.1597C79.5679 65.9493 79.6964 65.7037 79.7691 65.4394C79.8419 65.1749 79.857 64.8978 79.8134 64.627L79.8135 64.627L79.8123 64.6207C79.3796 62.3072 78.6803 60.0515 77.7286 57.8989L77.7286 57.8989L77.7263 57.8939L77.2263 56.8272L77.2263 56.8272L77.2245 56.8235C76.8647 56.0874 76.8119 55.2385 77.078 54.4636C77.344 53.6886 77.907 53.0511 78.6431 52.6912C79.3791 52.3314 80.228 52.2787 81.003 52.5447C81.7767 52.8103 82.4134 53.3719 82.7736 54.1063Z" fill="#3C7CFF" stroke="white" stroke-width="0.5"/>
<path d="M29.1447 48.09L29.3293 47.9174C34.0904 43.4668 40.1616 40.6728 46.639 39.9516L46.9167 39.9207V40.2001V43.3334C46.9167 44.1511 47.2415 44.9354 47.8198 45.5136C48.398 46.0919 49.1823 46.4167 50 46.4167C50.8178 46.4167 51.602 46.0919 52.1803 45.5136C52.7585 44.9354 53.0834 44.1511 53.0834 43.3334V40.2667V39.9922L53.3566 40.0178C55.2934 40.199 57.2076 40.5706 59.0716 41.1272L59.075 41.1282C59.856 41.3736 60.7025 41.2986 61.4282 40.9198C62.1539 40.541 62.6995 39.8895 62.9448 39.1085C63.1902 38.3274 63.1152 37.481 62.7365 36.7552C62.3577 36.0295 61.7062 35.484 60.9253 35.2386C57.3879 34.1389 53.7045 33.5809 50.0002 33.5834L50 33.5834C41.4447 33.5843 33.1629 36.5972 26.6069 42.0938C20.0509 47.5904 15.6395 55.2197 14.1462 63.6437C13.9404 64.8094 13.99 66.0059 14.2915 67.1507C14.593 68.2949 15.139 69.3602 15.8919 70.2731C16.6355 71.1506 17.5607 71.8563 18.6036 72.3415C19.6469 72.8269 20.7833 73.0801 21.9341 73.0834H23.3334C24.1511 73.0834 24.9354 72.7585 25.5136 72.1803C26.0918 71.6021 26.4167 70.8178 26.4167 70C26.4167 69.1823 26.0918 68.398 25.5136 67.8198C24.9354 67.2416 24.1511 66.9167 23.3334 66.9167H21.9337H21.9334V66.6667C21.7168 66.667 21.5028 66.6193 21.3069 66.5271C21.1109 66.4349 20.9378 66.3004 20.8 66.1334L29.1447 48.09ZM29.1447 48.09L29.3193 48.2728L32.1859 51.2728L32.1859 51.2728L32.1906 51.2775C32.4796 51.5642 32.709 51.9052 32.8656 52.2809C33.0221 52.6567 33.1027 53.0597 33.1027 53.4667C33.1027 53.8738 33.0221 54.2768 32.8656 54.6525C32.709 55.0282 32.4796 55.3692 32.1906 55.6559L32.1892 55.6573C31.9026 55.9463 31.5615 56.1757 31.1858 56.3322C30.8101 56.4888 30.4071 56.5694 30 56.5694C29.593 56.5694 29.19 56.4888 28.8142 56.3322C28.4385 56.1757 28.0975 55.9463 27.8109 55.6573L27.8101 55.6566L25.3101 53.1566L25.0968 52.9432L24.9268 53.1926C22.5628 56.6599 20.9592 60.5882 20.2212 64.7193L29.1447 48.09Z" fill="#3C7CFF" stroke="white" stroke-width="0.5"/>
<path d="M75.5232 45.5231L58.9298 62.1165H58.6011L58.775 62.4755C59.4082 63.7827 59.7413 65.2149 59.75 66.6673C59.7498 68.5954 59.178 70.4802 58.1068 72.0833C57.0355 73.6867 55.5127 74.9364 53.7312 75.6743C51.9496 76.4123 49.9892 76.6054 48.0979 76.2292C46.2066 75.853 44.4693 74.9244 43.1057 73.5608C41.7422 72.1972 40.8136 70.46 40.4373 68.5686C40.0611 66.6773 40.2542 64.7169 40.9922 62.9353C41.7301 61.1538 42.9798 59.631 44.5832 58.5597C46.1866 57.4883 48.0716 56.9165 50 56.9165H50.0003C51.4505 56.915 52.8828 57.237 54.1928 57.859L54.3521 57.9347L54.4768 57.81L71.1435 41.1433C71.431 40.8557 71.7724 40.6276 72.1482 40.4719C72.5239 40.3163 72.9266 40.2362 73.3333 40.2362C73.74 40.2362 74.1428 40.3163 74.5185 40.4719L74.6142 40.241L74.5185 40.4719C74.8942 40.6276 75.2356 40.8557 75.5232 41.1433C75.8108 41.4309 76.0389 41.7723 76.1946 42.148L76.4174 42.0557L76.1946 42.148C76.3502 42.5238 76.4303 42.9265 76.4303 43.3332C76.4303 43.7399 76.3502 44.1426 76.1946 44.5183L76.4255 44.614L76.1946 44.5183C76.0389 44.8941 75.8108 45.2355 75.5232 45.5231ZM48.0092 69.6459C48.5985 70.0397 49.2913 70.2498 50 70.2498C50.9504 70.2498 51.8618 69.8723 52.5338 69.2003C53.2058 68.5283 53.5833 67.6169 53.5833 66.6665C53.5833 65.9578 53.3732 65.265 52.9794 64.6757C52.5857 64.0864 52.0261 63.6272 51.3713 63.3559C50.7165 63.0847 49.996 63.0138 49.3009 63.152C48.6058 63.2903 47.9673 63.6316 47.4662 64.1327C46.9651 64.6338 46.6238 65.2723 46.4855 65.9674C46.3473 66.6625 46.4182 67.383 46.6894 68.0378C46.9607 68.6926 47.4199 69.2522 48.0092 69.6459Z" fill="#3C7CFF" stroke="white" stroke-width="0.5"/>
</svg>
