<svg width="102" height="74" viewBox="0 0 102 74" fill="none" xmlns="http://www.w3.org/2000/svg">
<mask id="path-1-outside-1_192_1251" maskUnits="userSpaceOnUse" x="0" y="0" width="102" height="74" fill="black">
<rect fill="white" width="102" height="74"/>
<path fill-rule="evenodd" clip-rule="evenodd" d="M37.7772 38.4014C37.5044 38.1279 37.1452 37.9575 36.7609 37.9193C36.3765 37.881 35.9908 37.9772 35.6694 38.1915C35.3481 38.4058 35.111 38.7249 34.9986 39.0945C34.8862 39.464 34.9055 39.8611 35.0531 40.218C35.2008 40.5749 35.4676 40.8696 35.8082 41.0518C36.1488 41.234 36.542 41.2924 36.9208 41.2171C37.2997 41.1418 37.6407 40.9375 37.8857 40.6389C38.1307 40.3403 38.2646 39.966 38.2645 39.5797C38.2648 39.3609 38.222 39.1442 38.1383 38.942C38.0547 38.7398 37.932 38.5561 37.7772 38.4014ZM36.5988 35.2558C37.6002 35.2554 38.5708 35.6023 39.3451 36.2374C40.1194 36.8724 40.6496 37.7563 40.8452 38.7385C41.0409 39.7206 40.89 40.7402 40.4182 41.6235C39.9464 42.5068 39.1829 43.1992 38.2578 43.5827C37.3327 43.9662 36.3033 44.017 35.3449 43.7266C34.3865 43.4361 33.5585 42.8224 33.0019 41.9899C32.4453 41.1574 32.1946 40.1576 32.2926 39.161C32.3905 38.1644 32.8309 37.2325 33.5389 36.5243C33.9402 36.1216 34.4171 35.8023 34.9422 35.5846C35.4674 35.3669 36.0303 35.2552 36.5988 35.2558ZM69.3291 27.6026C69.6027 27.8748 69.8199 28.1983 69.9683 28.5546C70.1166 28.9109 70.1932 29.2929 70.1936 29.6789V61.9941C70.1901 62.773 69.8792 63.519 69.3284 64.0697C68.7776 64.6205 68.0316 64.9315 67.2528 64.935H6.60359C5.82451 64.9318 5.07824 64.6209 4.52723 64.0701C3.97623 63.5193 3.66511 62.7732 3.66159 61.9941V29.6744C3.66453 28.8952 3.97546 28.1487 4.52659 27.5978C5.07772 27.0468 5.82433 26.7362 6.60359 26.7336H67.2528C67.6387 26.7338 68.0209 26.8103 68.3772 26.9587C68.7335 27.107 69.057 27.3243 69.3291 27.5981V27.6026ZM9.214 47.1016V44.5658C9.18664 44.2316 9.03458 43.92 8.78803 43.6928C8.54148 43.4656 8.21847 43.3395 7.8832 43.3395C7.54793 43.3395 7.22492 43.4656 6.97837 43.6928C6.73182 43.92 6.57976 44.2316 6.5524 44.5658V47.1016C6.57976 47.4358 6.73182 47.7474 6.97837 47.9746C7.22492 48.2018 7.54793 48.3279 7.8832 48.3279C8.21847 48.3279 8.54148 48.2018 8.78803 47.9746C9.03458 47.7474 9.18664 47.4358 9.214 47.1016ZM60.7323 31.0642V60.6032C60.7323 60.9573 60.5916 61.297 60.3412 61.5474C60.0908 61.7978 59.7512 61.9385 59.397 61.9385H13.2798C12.9257 61.9385 12.5861 61.7978 12.3357 61.5474C12.0853 61.297 11.9446 60.9573 11.9446 60.6032V31.0642C11.9446 30.7101 12.0853 30.3704 12.3357 30.12C12.5861 29.8696 12.9257 29.729 13.2798 29.729H59.397C59.7512 29.729 60.0908 29.8696 60.3412 30.12C60.5916 30.3704 60.7323 30.7101 60.7323 31.0642ZM36.8603 49.4172L29.7145 44.5647C29.4994 44.3998 29.239 44.3047 28.9683 44.2922C28.6976 44.2796 28.4295 44.3503 28.2001 44.4946L14.6084 53.0346V32.395H58.0662V51.3422L45.4804 44.5124C45.2681 44.3969 45.0282 44.3418 44.7867 44.353C44.5453 44.3641 44.3115 44.4412 44.1107 44.5758L36.8625 49.4127L36.8603 49.4172ZM36.166 52.1489C36.1281 52.1255 36.0914 52.0999 36.0547 52.0732L28.8811 47.2007L14.6084 56.1746V59.278H58.0662V54.3687L44.9129 47.2329L39.2292 51.025L41.1409 52.3236C41.2849 52.4214 41.4082 52.5466 41.5038 52.6921C41.5994 52.8376 41.6654 53.0005 41.6981 53.1715C41.7307 53.3425 41.7294 53.5183 41.6941 53.6887C41.6588 53.8592 41.5903 54.0211 41.4925 54.1651C41.3947 54.3091 41.2694 54.4324 41.1239 54.528C40.9784 54.6236 40.8156 54.6896 40.6446 54.7223C40.4735 54.7549 40.2978 54.7536 40.1273 54.7183C39.9568 54.683 39.795 54.6145 39.651 54.5167L36.1626 52.1489H36.166ZM66.6285 48.0519V43.6122C66.6028 43.2767 66.4514 42.9632 66.2046 42.7346C65.9577 42.5059 65.6337 42.3788 65.2972 42.3788C64.9607 42.3788 64.6366 42.5059 64.3897 42.7346C64.1429 42.9632 63.9915 43.2767 63.9658 43.6122V48.0519C63.9915 48.3874 64.1429 48.7008 64.3897 48.9295C64.6366 49.1582 64.9607 49.2852 65.2972 49.2852C65.6337 49.2852 65.9577 49.1582 66.2046 48.9295C66.4514 48.7008 66.6028 48.3874 66.6285 48.0519ZM57.4765 24.072V6.60247C57.4797 5.1176 58.071 3.69446 59.121 2.6445C60.171 1.59453 61.5941 1.00323 63.079 1H95.3975C96.8822 1.00382 98.305 1.5953 99.3549 2.64514C100.405 3.69499 100.996 5.11778 101 6.60247V67.2505C100.996 68.7352 100.405 70.158 99.3549 71.2078C98.305 72.2577 96.8822 72.8492 95.3975 72.853H63.079C61.6542 72.8489 60.284 72.3038 59.2458 71.328C58.2076 70.3522 57.5788 69.0184 57.4865 67.5966H6.60359C5.11852 67.5936 3.6951 67.0025 2.64489 65.9525C1.59468 64.9025 1.00323 63.4792 1 61.9941V29.6744C1.00323 28.1894 1.59468 26.7661 2.64489 25.7161C3.6951 24.6661 5.11852 24.0749 6.60359 24.072H57.4765ZM77.9703 9.21066H80.5062C80.8403 9.18331 81.152 9.03125 81.3792 8.78469C81.6064 8.53814 81.7325 8.21513 81.7325 7.87986C81.7325 7.54459 81.6064 7.22159 81.3792 6.97503C81.152 6.72848 80.8403 6.57642 80.5062 6.54906H77.9703C77.7864 6.53401 77.6014 6.55724 77.4269 6.61729C77.2524 6.67733 77.0923 6.77289 76.9566 6.89794C76.8209 7.02298 76.7126 7.1748 76.6385 7.3438C76.5644 7.51281 76.5262 7.69533 76.5262 7.87986C76.5262 8.06439 76.5644 8.24691 76.6385 8.41592C76.7126 8.58492 76.8209 8.73673 76.9566 8.86178C77.0923 8.98683 77.2524 9.08239 77.4269 9.14244C77.6014 9.20248 77.7864 9.22571 77.9703 9.21066ZM63.138 24.072V13.2787C63.138 12.9246 63.2786 12.585 63.529 12.3345C63.7795 12.0841 64.1191 11.9435 64.4732 11.9435H94.0078C94.3619 11.9435 94.7015 12.0841 94.9519 12.3345C95.2023 12.585 95.343 12.9246 95.343 13.2787V59.3948C95.343 59.7489 95.2023 60.0886 94.9519 60.339C94.7015 60.5894 94.3619 60.7301 94.0078 60.7301H72.8552V61.9985C72.852 63.4834 72.2607 64.9065 71.2107 65.9565C70.1608 67.0065 68.7376 67.5978 67.2528 67.601H60.1581C60.2466 68.3145 60.5919 68.9713 61.1294 69.4487C61.667 69.9261 62.3601 70.1913 63.079 70.1947H95.3975C96.1764 70.1912 96.9224 69.8803 97.4732 69.3295C98.0239 68.7787 98.3349 68.0327 98.3384 67.2539V6.59914C98.3358 5.81967 98.0252 5.07283 97.4743 4.52135C96.9235 3.96986 96.177 3.65843 95.3975 3.65492H63.079C62.3001 3.65843 61.5541 3.9694 61.0034 4.52016C60.4526 5.07092 60.1416 5.81691 60.1381 6.5958V24.0653L63.138 24.072ZM92.677 45.9199L84.4429 41.527L81.5499 43.7891L82.3088 44.3455C82.5913 44.555 82.7791 44.8682 82.8307 45.2161C82.8824 45.5641 82.7937 45.9183 82.5842 46.2009C82.3746 46.4835 82.0614 46.6712 81.7135 46.7229C81.3655 46.7745 81.0113 46.6858 80.7287 46.4763L74.5443 41.9142L72.8552 43.2828V58.0662H92.677V45.9199ZM79.3356 42.1545L83.4916 38.9066C83.6982 38.7441 83.9486 38.6468 84.2107 38.6269C84.4728 38.6071 84.7349 38.6657 84.9637 38.7953L92.6747 42.9123V14.6051H65.7996V24.072H67.2528C68.7376 24.0752 70.1608 24.6665 71.2107 25.7165C72.2607 26.7664 72.852 28.1896 72.8552 29.6744V39.869L73.6697 39.2103C73.9016 39.0234 74.1893 38.9193 74.4871 38.9147C74.7848 38.91 75.0756 39.0051 75.3132 39.1847L79.3356 42.1545ZM77.0156 66.6252H81.4564C81.7906 66.5978 82.1022 66.4458 82.3294 66.1992C82.5566 65.9527 82.6827 65.6297 82.6827 65.2944C82.6827 64.9591 82.5566 64.6361 82.3294 64.3895C82.1022 64.143 81.7906 63.9909 81.4564 63.9636H77.0156C76.6815 63.9909 76.3698 64.143 76.1426 64.3895C75.9154 64.6361 75.7893 64.9591 75.7893 65.2944C75.7893 65.6297 75.9154 65.9527 76.1426 66.1992C76.3698 66.4458 76.6815 66.5978 77.0156 66.6252ZM79.2166 35.7876H79.2611C79.8914 35.7876 80.4959 35.5372 80.9417 35.0915C81.3874 34.6458 81.6378 34.0412 81.6378 33.4109C81.6378 32.7805 81.3874 32.176 80.9417 31.7303C80.4959 31.2846 79.8914 31.0342 79.2611 31.0342H79.2166C78.5862 31.0342 77.9817 31.2846 77.5359 31.7303C77.0902 32.176 76.8398 32.7805 76.8398 33.4109C76.8398 34.0412 77.0902 34.6458 77.5359 35.0915C77.9817 35.5372 78.5862 35.7876 79.2166 35.7876Z"/>
</mask>
<path fill-rule="evenodd" clip-rule="evenodd" d="M37.7772 38.4014C37.5044 38.1279 37.1452 37.9575 36.7609 37.9193C36.3765 37.881 35.9908 37.9772 35.6694 38.1915C35.3481 38.4058 35.111 38.7249 34.9986 39.0945C34.8862 39.464 34.9055 39.8611 35.0531 40.218C35.2008 40.5749 35.4676 40.8696 35.8082 41.0518C36.1488 41.234 36.542 41.2924 36.9208 41.2171C37.2997 41.1418 37.6407 40.9375 37.8857 40.6389C38.1307 40.3403 38.2646 39.966 38.2645 39.5797C38.2648 39.3609 38.222 39.1442 38.1383 38.942C38.0547 38.7398 37.932 38.5561 37.7772 38.4014ZM36.5988 35.2558C37.6002 35.2554 38.5708 35.6023 39.3451 36.2374C40.1194 36.8724 40.6496 37.7563 40.8452 38.7385C41.0409 39.7206 40.89 40.7402 40.4182 41.6235C39.9464 42.5068 39.1829 43.1992 38.2578 43.5827C37.3327 43.9662 36.3033 44.017 35.3449 43.7266C34.3865 43.4361 33.5585 42.8224 33.0019 41.9899C32.4453 41.1574 32.1946 40.1576 32.2926 39.161C32.3905 38.1644 32.8309 37.2325 33.5389 36.5243C33.9402 36.1216 34.4171 35.8023 34.9422 35.5846C35.4674 35.3669 36.0303 35.2552 36.5988 35.2558ZM69.3291 27.6026C69.6027 27.8748 69.8199 28.1983 69.9683 28.5546C70.1166 28.9109 70.1932 29.2929 70.1936 29.6789V61.9941C70.1901 62.773 69.8792 63.519 69.3284 64.0697C68.7776 64.6205 68.0316 64.9315 67.2528 64.935H6.60359C5.82451 64.9318 5.07824 64.6209 4.52723 64.0701C3.97623 63.5193 3.66511 62.7732 3.66159 61.9941V29.6744C3.66453 28.8952 3.97546 28.1487 4.52659 27.5978C5.07772 27.0468 5.82433 26.7362 6.60359 26.7336H67.2528C67.6387 26.7338 68.0209 26.8103 68.3772 26.9587C68.7335 27.107 69.057 27.3243 69.3291 27.5981V27.6026ZM9.214 47.1016V44.5658C9.18664 44.2316 9.03458 43.92 8.78803 43.6928C8.54148 43.4656 8.21847 43.3395 7.8832 43.3395C7.54793 43.3395 7.22492 43.4656 6.97837 43.6928C6.73182 43.92 6.57976 44.2316 6.5524 44.5658V47.1016C6.57976 47.4358 6.73182 47.7474 6.97837 47.9746C7.22492 48.2018 7.54793 48.3279 7.8832 48.3279C8.21847 48.3279 8.54148 48.2018 8.78803 47.9746C9.03458 47.7474 9.18664 47.4358 9.214 47.1016ZM60.7323 31.0642V60.6032C60.7323 60.9573 60.5916 61.297 60.3412 61.5474C60.0908 61.7978 59.7512 61.9385 59.397 61.9385H13.2798C12.9257 61.9385 12.5861 61.7978 12.3357 61.5474C12.0853 61.297 11.9446 60.9573 11.9446 60.6032V31.0642C11.9446 30.7101 12.0853 30.3704 12.3357 30.12C12.5861 29.8696 12.9257 29.729 13.2798 29.729H59.397C59.7512 29.729 60.0908 29.8696 60.3412 30.12C60.5916 30.3704 60.7323 30.7101 60.7323 31.0642ZM36.8603 49.4172L29.7145 44.5647C29.4994 44.3998 29.239 44.3047 28.9683 44.2922C28.6976 44.2796 28.4295 44.3503 28.2001 44.4946L14.6084 53.0346V32.395H58.0662V51.3422L45.4804 44.5124C45.2681 44.3969 45.0282 44.3418 44.7867 44.353C44.5453 44.3641 44.3115 44.4412 44.1107 44.5758L36.8625 49.4127L36.8603 49.4172ZM36.166 52.1489C36.1281 52.1255 36.0914 52.0999 36.0547 52.0732L28.8811 47.2007L14.6084 56.1746V59.278H58.0662V54.3687L44.9129 47.2329L39.2292 51.025L41.1409 52.3236C41.2849 52.4214 41.4082 52.5466 41.5038 52.6921C41.5994 52.8376 41.6654 53.0005 41.6981 53.1715C41.7307 53.3425 41.7294 53.5183 41.6941 53.6887C41.6588 53.8592 41.5903 54.0211 41.4925 54.1651C41.3947 54.3091 41.2694 54.4324 41.1239 54.528C40.9784 54.6236 40.8156 54.6896 40.6446 54.7223C40.4735 54.7549 40.2978 54.7536 40.1273 54.7183C39.9568 54.683 39.795 54.6145 39.651 54.5167L36.1626 52.1489H36.166ZM66.6285 48.0519V43.6122C66.6028 43.2767 66.4514 42.9632 66.2046 42.7346C65.9577 42.5059 65.6337 42.3788 65.2972 42.3788C64.9607 42.3788 64.6366 42.5059 64.3897 42.7346C64.1429 42.9632 63.9915 43.2767 63.9658 43.6122V48.0519C63.9915 48.3874 64.1429 48.7008 64.3897 48.9295C64.6366 49.1582 64.9607 49.2852 65.2972 49.2852C65.6337 49.2852 65.9577 49.1582 66.2046 48.9295C66.4514 48.7008 66.6028 48.3874 66.6285 48.0519ZM57.4765 24.072V6.60247C57.4797 5.1176 58.071 3.69446 59.121 2.6445C60.171 1.59453 61.5941 1.00323 63.079 1H95.3975C96.8822 1.00382 98.305 1.5953 99.3549 2.64514C100.405 3.69499 100.996 5.11778 101 6.60247V67.2505C100.996 68.7352 100.405 70.158 99.3549 71.2078C98.305 72.2577 96.8822 72.8492 95.3975 72.853H63.079C61.6542 72.8489 60.284 72.3038 59.2458 71.328C58.2076 70.3522 57.5788 69.0184 57.4865 67.5966H6.60359C5.11852 67.5936 3.6951 67.0025 2.64489 65.9525C1.59468 64.9025 1.00323 63.4792 1 61.9941V29.6744C1.00323 28.1894 1.59468 26.7661 2.64489 25.7161C3.6951 24.6661 5.11852 24.0749 6.60359 24.072H57.4765ZM77.9703 9.21066H80.5062C80.8403 9.18331 81.152 9.03125 81.3792 8.78469C81.6064 8.53814 81.7325 8.21513 81.7325 7.87986C81.7325 7.54459 81.6064 7.22159 81.3792 6.97503C81.152 6.72848 80.8403 6.57642 80.5062 6.54906H77.9703C77.7864 6.53401 77.6014 6.55724 77.4269 6.61729C77.2524 6.67733 77.0923 6.77289 76.9566 6.89794C76.8209 7.02298 76.7126 7.1748 76.6385 7.3438C76.5644 7.51281 76.5262 7.69533 76.5262 7.87986C76.5262 8.06439 76.5644 8.24691 76.6385 8.41592C76.7126 8.58492 76.8209 8.73673 76.9566 8.86178C77.0923 8.98683 77.2524 9.08239 77.4269 9.14244C77.6014 9.20248 77.7864 9.22571 77.9703 9.21066ZM63.138 24.072V13.2787C63.138 12.9246 63.2786 12.585 63.529 12.3345C63.7795 12.0841 64.1191 11.9435 64.4732 11.9435H94.0078C94.3619 11.9435 94.7015 12.0841 94.9519 12.3345C95.2023 12.585 95.343 12.9246 95.343 13.2787V59.3948C95.343 59.7489 95.2023 60.0886 94.9519 60.339C94.7015 60.5894 94.3619 60.7301 94.0078 60.7301H72.8552V61.9985C72.852 63.4834 72.2607 64.9065 71.2107 65.9565C70.1608 67.0065 68.7376 67.5978 67.2528 67.601H60.1581C60.2466 68.3145 60.5919 68.9713 61.1294 69.4487C61.667 69.9261 62.3601 70.1913 63.079 70.1947H95.3975C96.1764 70.1912 96.9224 69.8803 97.4732 69.3295C98.0239 68.7787 98.3349 68.0327 98.3384 67.2539V6.59914C98.3358 5.81967 98.0252 5.07283 97.4743 4.52135C96.9235 3.96986 96.177 3.65843 95.3975 3.65492H63.079C62.3001 3.65843 61.5541 3.9694 61.0034 4.52016C60.4526 5.07092 60.1416 5.81691 60.1381 6.5958V24.0653L63.138 24.072ZM92.677 45.9199L84.4429 41.527L81.5499 43.7891L82.3088 44.3455C82.5913 44.555 82.7791 44.8682 82.8307 45.2161C82.8824 45.5641 82.7937 45.9183 82.5842 46.2009C82.3746 46.4835 82.0614 46.6712 81.7135 46.7229C81.3655 46.7745 81.0113 46.6858 80.7287 46.4763L74.5443 41.9142L72.8552 43.2828V58.0662H92.677V45.9199ZM79.3356 42.1545L83.4916 38.9066C83.6982 38.7441 83.9486 38.6468 84.2107 38.6269C84.4728 38.6071 84.7349 38.6657 84.9637 38.7953L92.6747 42.9123V14.6051H65.7996V24.072H67.2528C68.7376 24.0752 70.1608 24.6665 71.2107 25.7165C72.2607 26.7664 72.852 28.1896 72.8552 29.6744V39.869L73.6697 39.2103C73.9016 39.0234 74.1893 38.9193 74.4871 38.9147C74.7848 38.91 75.0756 39.0051 75.3132 39.1847L79.3356 42.1545ZM77.0156 66.6252H81.4564C81.7906 66.5978 82.1022 66.4458 82.3294 66.1992C82.5566 65.9527 82.6827 65.6297 82.6827 65.2944C82.6827 64.9591 82.5566 64.6361 82.3294 64.3895C82.1022 64.143 81.7906 63.9909 81.4564 63.9636H77.0156C76.6815 63.9909 76.3698 64.143 76.1426 64.3895C75.9154 64.6361 75.7893 64.9591 75.7893 65.2944C75.7893 65.6297 75.9154 65.9527 76.1426 66.1992C76.3698 66.4458 76.6815 66.5978 77.0156 66.6252ZM79.2166 35.7876H79.2611C79.8914 35.7876 80.4959 35.5372 80.9417 35.0915C81.3874 34.6458 81.6378 34.0412 81.6378 33.4109C81.6378 32.7805 81.3874 32.176 80.9417 31.7303C80.4959 31.2846 79.8914 31.0342 79.2611 31.0342H79.2166C78.5862 31.0342 77.9817 31.2846 77.5359 31.7303C77.0902 32.176 76.8398 32.7805 76.8398 33.4109C76.8398 34.0412 77.0902 34.6458 77.5359 35.0915C77.9817 35.5372 78.5862 35.7876 79.2166 35.7876Z" fill="#3C7CFF"/>
<path fill-rule="evenodd" clip-rule="evenodd" d="M37.7772 38.4014C37.5044 38.1279 37.1452 37.9575 36.7609 37.9193C36.3765 37.881 35.9908 37.9772 35.6694 38.1915C35.3481 38.4058 35.111 38.7249 34.9986 39.0945C34.8862 39.464 34.9055 39.8611 35.0531 40.218C35.2008 40.5749 35.4676 40.8696 35.8082 41.0518C36.1488 41.234 36.542 41.2924 36.9208 41.2171C37.2997 41.1418 37.6407 40.9375 37.8857 40.6389C38.1307 40.3403 38.2646 39.966 38.2645 39.5797C38.2648 39.3609 38.222 39.1442 38.1383 38.942C38.0547 38.7398 37.932 38.5561 37.7772 38.4014ZM36.5988 35.2558C37.6002 35.2554 38.5708 35.6023 39.3451 36.2374C40.1194 36.8724 40.6496 37.7563 40.8452 38.7385C41.0409 39.7206 40.89 40.7402 40.4182 41.6235C39.9464 42.5068 39.1829 43.1992 38.2578 43.5827C37.3327 43.9662 36.3033 44.017 35.3449 43.7266C34.3865 43.4361 33.5585 42.8224 33.0019 41.9899C32.4453 41.1574 32.1946 40.1576 32.2926 39.161C32.3905 38.1644 32.8309 37.2325 33.5389 36.5243C33.9402 36.1216 34.4171 35.8023 34.9422 35.5846C35.4674 35.3669 36.0303 35.2552 36.5988 35.2558ZM69.3291 27.6026C69.6027 27.8748 69.8199 28.1983 69.9683 28.5546C70.1166 28.9109 70.1932 29.2929 70.1936 29.6789V61.9941C70.1901 62.773 69.8792 63.519 69.3284 64.0697C68.7776 64.6205 68.0316 64.9315 67.2528 64.935H6.60359C5.82451 64.9318 5.07824 64.6209 4.52723 64.0701C3.97623 63.5193 3.66511 62.7732 3.66159 61.9941V29.6744C3.66453 28.8952 3.97546 28.1487 4.52659 27.5978C5.07772 27.0468 5.82433 26.7362 6.60359 26.7336H67.2528C67.6387 26.7338 68.0209 26.8103 68.3772 26.9587C68.7335 27.107 69.057 27.3243 69.3291 27.5981V27.6026ZM9.214 47.1016V44.5658C9.18664 44.2316 9.03458 43.92 8.78803 43.6928C8.54148 43.4656 8.21847 43.3395 7.8832 43.3395C7.54793 43.3395 7.22492 43.4656 6.97837 43.6928C6.73182 43.92 6.57976 44.2316 6.5524 44.5658V47.1016C6.57976 47.4358 6.73182 47.7474 6.97837 47.9746C7.22492 48.2018 7.54793 48.3279 7.8832 48.3279C8.21847 48.3279 8.54148 48.2018 8.78803 47.9746C9.03458 47.7474 9.18664 47.4358 9.214 47.1016ZM60.7323 31.0642V60.6032C60.7323 60.9573 60.5916 61.297 60.3412 61.5474C60.0908 61.7978 59.7512 61.9385 59.397 61.9385H13.2798C12.9257 61.9385 12.5861 61.7978 12.3357 61.5474C12.0853 61.297 11.9446 60.9573 11.9446 60.6032V31.0642C11.9446 30.7101 12.0853 30.3704 12.3357 30.12C12.5861 29.8696 12.9257 29.729 13.2798 29.729H59.397C59.7512 29.729 60.0908 29.8696 60.3412 30.12C60.5916 30.3704 60.7323 30.7101 60.7323 31.0642ZM36.8603 49.4172L29.7145 44.5647C29.4994 44.3998 29.239 44.3047 28.9683 44.2922C28.6976 44.2796 28.4295 44.3503 28.2001 44.4946L14.6084 53.0346V32.395H58.0662V51.3422L45.4804 44.5124C45.2681 44.3969 45.0282 44.3418 44.7867 44.353C44.5453 44.3641 44.3115 44.4412 44.1107 44.5758L36.8625 49.4127L36.8603 49.4172ZM36.166 52.1489C36.1281 52.1255 36.0914 52.0999 36.0547 52.0732L28.8811 47.2007L14.6084 56.1746V59.278H58.0662V54.3687L44.9129 47.2329L39.2292 51.025L41.1409 52.3236C41.2849 52.4214 41.4082 52.5466 41.5038 52.6921C41.5994 52.8376 41.6654 53.0005 41.6981 53.1715C41.7307 53.3425 41.7294 53.5183 41.6941 53.6887C41.6588 53.8592 41.5903 54.0211 41.4925 54.1651C41.3947 54.3091 41.2694 54.4324 41.1239 54.528C40.9784 54.6236 40.8156 54.6896 40.6446 54.7223C40.4735 54.7549 40.2978 54.7536 40.1273 54.7183C39.9568 54.683 39.795 54.6145 39.651 54.5167L36.1626 52.1489H36.166ZM66.6285 48.0519V43.6122C66.6028 43.2767 66.4514 42.9632 66.2046 42.7346C65.9577 42.5059 65.6337 42.3788 65.2972 42.3788C64.9607 42.3788 64.6366 42.5059 64.3897 42.7346C64.1429 42.9632 63.9915 43.2767 63.9658 43.6122V48.0519C63.9915 48.3874 64.1429 48.7008 64.3897 48.9295C64.6366 49.1582 64.9607 49.2852 65.2972 49.2852C65.6337 49.2852 65.9577 49.1582 66.2046 48.9295C66.4514 48.7008 66.6028 48.3874 66.6285 48.0519ZM57.4765 24.072V6.60247C57.4797 5.1176 58.071 3.69446 59.121 2.6445C60.171 1.59453 61.5941 1.00323 63.079 1H95.3975C96.8822 1.00382 98.305 1.5953 99.3549 2.64514C100.405 3.69499 100.996 5.11778 101 6.60247V67.2505C100.996 68.7352 100.405 70.158 99.3549 71.2078C98.305 72.2577 96.8822 72.8492 95.3975 72.853H63.079C61.6542 72.8489 60.284 72.3038 59.2458 71.328C58.2076 70.3522 57.5788 69.0184 57.4865 67.5966H6.60359C5.11852 67.5936 3.6951 67.0025 2.64489 65.9525C1.59468 64.9025 1.00323 63.4792 1 61.9941V29.6744C1.00323 28.1894 1.59468 26.7661 2.64489 25.7161C3.6951 24.6661 5.11852 24.0749 6.60359 24.072H57.4765ZM77.9703 9.21066H80.5062C80.8403 9.18331 81.152 9.03125 81.3792 8.78469C81.6064 8.53814 81.7325 8.21513 81.7325 7.87986C81.7325 7.54459 81.6064 7.22159 81.3792 6.97503C81.152 6.72848 80.8403 6.57642 80.5062 6.54906H77.9703C77.7864 6.53401 77.6014 6.55724 77.4269 6.61729C77.2524 6.67733 77.0923 6.77289 76.9566 6.89794C76.8209 7.02298 76.7126 7.1748 76.6385 7.3438C76.5644 7.51281 76.5262 7.69533 76.5262 7.87986C76.5262 8.06439 76.5644 8.24691 76.6385 8.41592C76.7126 8.58492 76.8209 8.73673 76.9566 8.86178C77.0923 8.98683 77.2524 9.08239 77.4269 9.14244C77.6014 9.20248 77.7864 9.22571 77.9703 9.21066ZM63.138 24.072V13.2787C63.138 12.9246 63.2786 12.585 63.529 12.3345C63.7795 12.0841 64.1191 11.9435 64.4732 11.9435H94.0078C94.3619 11.9435 94.7015 12.0841 94.9519 12.3345C95.2023 12.585 95.343 12.9246 95.343 13.2787V59.3948C95.343 59.7489 95.2023 60.0886 94.9519 60.339C94.7015 60.5894 94.3619 60.7301 94.0078 60.7301H72.8552V61.9985C72.852 63.4834 72.2607 64.9065 71.2107 65.9565C70.1608 67.0065 68.7376 67.5978 67.2528 67.601H60.1581C60.2466 68.3145 60.5919 68.9713 61.1294 69.4487C61.667 69.9261 62.3601 70.1913 63.079 70.1947H95.3975C96.1764 70.1912 96.9224 69.8803 97.4732 69.3295C98.0239 68.7787 98.3349 68.0327 98.3384 67.2539V6.59914C98.3358 5.81967 98.0252 5.07283 97.4743 4.52135C96.9235 3.96986 96.177 3.65843 95.3975 3.65492H63.079C62.3001 3.65843 61.5541 3.9694 61.0034 4.52016C60.4526 5.07092 60.1416 5.81691 60.1381 6.5958V24.0653L63.138 24.072ZM92.677 45.9199L84.4429 41.527L81.5499 43.7891L82.3088 44.3455C82.5913 44.555 82.7791 44.8682 82.8307 45.2161C82.8824 45.5641 82.7937 45.9183 82.5842 46.2009C82.3746 46.4835 82.0614 46.6712 81.7135 46.7229C81.3655 46.7745 81.0113 46.6858 80.7287 46.4763L74.5443 41.9142L72.8552 43.2828V58.0662H92.677V45.9199ZM79.3356 42.1545L83.4916 38.9066C83.6982 38.7441 83.9486 38.6468 84.2107 38.6269C84.4728 38.6071 84.7349 38.6657 84.9637 38.7953L92.6747 42.9123V14.6051H65.7996V24.072H67.2528C68.7376 24.0752 70.1608 24.6665 71.2107 25.7165C72.2607 26.7664 72.852 28.1896 72.8552 29.6744V39.869L73.6697 39.2103C73.9016 39.0234 74.1893 38.9193 74.4871 38.9147C74.7848 38.91 75.0756 39.0051 75.3132 39.1847L79.3356 42.1545ZM77.0156 66.6252H81.4564C81.7906 66.5978 82.1022 66.4458 82.3294 66.1992C82.5566 65.9527 82.6827 65.6297 82.6827 65.2944C82.6827 64.9591 82.5566 64.6361 82.3294 64.3895C82.1022 64.143 81.7906 63.9909 81.4564 63.9636H77.0156C76.6815 63.9909 76.3698 64.143 76.1426 64.3895C75.9154 64.6361 75.7893 64.9591 75.7893 65.2944C75.7893 65.6297 75.9154 65.9527 76.1426 66.1992C76.3698 66.4458 76.6815 66.5978 77.0156 66.6252ZM79.2166 35.7876H79.2611C79.8914 35.7876 80.4959 35.5372 80.9417 35.0915C81.3874 34.6458 81.6378 34.0412 81.6378 33.4109C81.6378 32.7805 81.3874 32.176 80.9417 31.7303C80.4959 31.2846 79.8914 31.0342 79.2611 31.0342H79.2166C78.5862 31.0342 77.9817 31.2846 77.5359 31.7303C77.0902 32.176 76.8398 32.7805 76.8398 33.4109C76.8398 34.0412 77.0902 34.6458 77.5359 35.0915C77.9817 35.5372 78.5862 35.7876 79.2166 35.7876Z" stroke="#3C7CFF" stroke-width="0.6" mask="url(#path-1-outside-1_192_1251)"/>
</svg>
