<svg width="100" height="85" viewBox="0 0 100 85" fill="none" xmlns="http://www.w3.org/2000/svg">
<path d="M100 22.7658V9.00877C100 4.31707 96.3294 0.595581 91.8187 0.595581H8.18043C3.66979 0.595581 0 4.31707 0 9.00877V76.4377C0 81.1294 3.66979 84.8509 8.18043 84.8509H91.8187C96.3294 84.8509 100 81.1294 100 76.4377V22.7977C100 22.7922 100 22.7869 100 22.7813C100 22.7758 100 22.7705 100 22.7658ZM8.18043 3.5743H91.8187C94.6868 3.5743 97.0213 5.95962 97.0213 9.00877V21.2339H2.97872V9.00877C2.97872 5.95962 5.31234 3.5743 8.18043 3.5743ZM91.8187 81.8722H8.18043C5.31234 81.8722 2.97872 79.4869 2.97872 76.4377V24.2126H97.0213V76.4377C97.0213 79.4869 94.6868 81.8722 91.8187 81.8722Z" fill="#3C7CFF"/>
<path d="M26.0235 18.6875C29.3043 18.6875 31.9737 15.92 31.9737 12.5185C31.9737 9.11706 29.3043 6.34961 26.0235 6.34961C22.7426 6.34961 20.0732 9.11706 20.0732 12.5185C20.0732 15.92 22.7424 18.6875 26.0235 18.6875ZM26.0235 9.32833C27.6618 9.32833 28.9949 10.7596 28.9949 12.5185C28.9949 14.2775 27.662 15.7088 26.0235 15.7088C24.3849 15.7088 23.052 14.2777 23.052 12.5185C23.052 10.7594 24.3847 9.32833 26.0235 9.32833Z" fill="#3C7CFF"/>
<path d="M40.5208 18.6875C43.8016 18.6875 46.471 15.92 46.471 12.5185C46.471 9.11706 43.8016 6.34961 40.5208 6.34961C37.2399 6.34961 34.5706 9.11706 34.5706 12.5185C34.5706 15.92 37.2399 18.6875 40.5208 18.6875ZM40.5208 9.32833C42.1591 9.32833 43.4923 10.7596 43.4923 12.5185C43.4923 14.2775 42.1593 15.7088 40.5208 15.7088C38.8823 15.7088 37.5493 14.2777 37.5493 12.5185C37.5493 10.7594 38.8823 9.32833 40.5208 9.32833Z" fill="#3C7CFF"/>
<path d="M11.5259 18.6875C14.8067 18.6875 17.4761 15.92 17.4761 12.5185C17.4761 9.11706 14.8067 6.34961 11.5259 6.34961C8.24504 6.34961 5.57568 9.11706 5.57568 12.5185C5.57568 15.92 8.24504 18.6875 11.5259 18.6875ZM11.5259 9.32833C13.1642 9.32833 14.4974 10.7596 14.4974 12.5185C14.4974 14.2775 13.1644 15.7088 11.5259 15.7088C9.88738 15.7088 8.55441 14.2777 8.55441 12.5185C8.55441 10.7594 9.88738 9.32833 11.5259 9.32833Z" fill="#3C7CFF"/>
<path d="M69.391 49.1062H67.4468V46.5709C67.4468 37.6181 59.7251 30.2845 50.3191 30.223C40.9172 30.223 33.1915 37.5566 33.1915 46.5709V49.1062H30.6089C30.4142 49.1082 30.2218 49.1487 30.0429 49.2254C29.8639 49.3021 29.7019 49.4135 29.5661 49.5531C29.4304 49.6927 29.3237 49.8578 29.2521 50.0389C29.1805 50.22 29.1454 50.4134 29.1489 50.6081V64.3454C29.1489 65.1679 29.7872 65.9147 30.6089 65.9147H38.8823C39.291 65.8987 39.6782 65.7275 39.9649 65.4359C40.2517 65.1443 40.4164 64.7542 40.4255 64.3454V50.6081C40.4138 50.2064 40.2462 49.8249 39.9581 49.5446C39.6701 49.2643 39.2843 49.107 38.8823 49.1062H36.1702V46.5709C36.1702 39.1992 42.5598 33.2017 50.3094 33.2017C58.074 33.2526 64.4681 39.25 64.4681 46.5709V49.1062H61.7049C61.3083 49.1089 60.9288 49.2683 60.6493 49.5497C60.3698 49.831 60.2129 50.2115 60.2127 50.6081V64.3454C60.2104 64.7491 60.3645 65.138 60.6427 65.4306C60.9209 65.7232 61.3016 65.8967 61.7049 65.9147H63.617V68.6471C63.617 69.6824 62.8193 70.5956 61.7842 70.5956H57.4413C57.1169 69.5532 56.4299 68.6614 55.5048 68.0818C54.5797 67.5021 53.4776 67.2729 52.3981 67.4357C51.3186 67.5984 50.333 68.1424 49.6199 68.969C48.9068 69.7956 48.5133 70.8503 48.5106 71.942C48.505 73.0165 48.8775 74.0587 49.5629 74.8862C50.2484 75.7137 51.203 76.2738 52.2598 76.4684C53.3165 76.663 54.408 76.4797 55.3433 75.9506C56.2785 75.4215 56.9978 74.5803 57.3753 73.5743H61.7842C64.4619 73.5743 66.5957 71.3247 66.5957 68.6471V65.9147H69.391C70.2127 65.9147 70.851 65.1679 70.851 64.3454V50.6081C70.8546 50.4134 70.8195 50.22 70.7479 50.0389C70.6763 49.8578 70.5696 49.6927 70.4338 49.5531C70.2981 49.4135 70.1361 49.3021 69.9571 49.2254C69.7781 49.1487 69.5858 49.1082 69.391 49.1062ZM37.4468 62.936H32.1276V52.0849H37.4468V62.936ZM53.0864 73.5213C52.7705 73.5213 52.4617 73.4277 52.1991 73.2522C51.9365 73.0767 51.7318 72.8273 51.6109 72.5355C51.49 72.2436 51.4584 71.9225 51.52 71.6127C51.5817 71.3029 51.7338 71.0184 51.9571 70.795C52.1805 70.5717 52.465 70.4196 52.7748 70.358C53.0846 70.2963 53.4057 70.328 53.6975 70.4488C53.9893 70.5697 54.2388 70.7744 54.4142 71.037C54.5897 71.2997 54.6834 71.6084 54.6834 71.9243C54.6829 72.3477 54.5145 72.7537 54.2151 73.0531C53.9157 73.3525 53.5098 73.5209 53.0864 73.5213ZM67.8723 62.936H63.1915V52.0849H67.8723V62.936Z" fill="#3C7CFF"/>
</svg>
