<svg width="100" height="85" viewBox="0 0 100 85" fill="none" xmlns="http://www.w3.org/2000/svg">
<path d="M100 22.4363V8.6793C100 3.9876 96.3294 0.266113 91.8187 0.266113H8.18043C3.66979 0.266113 0 3.9876 0 8.6793V76.1082C0 80.7999 3.66979 84.5214 8.18043 84.5214H91.8187C96.3294 84.5214 100 80.7999 100 76.1082V22.4682C100 22.4627 100 22.4574 100 22.4519C100 22.4463 100 22.441 100 22.4363ZM8.18043 3.24484H91.8187C94.6868 3.24484 97.0213 5.63016 97.0213 8.6793V20.9044H2.97872V8.6793C2.97872 5.63016 5.31234 3.24484 8.18043 3.24484ZM91.8187 81.5427H8.18043C5.31234 81.5427 2.97872 79.1574 2.97872 76.1082V23.8831H97.0213V76.1082C97.0213 79.1574 94.6868 81.5427 91.8187 81.5427Z" fill="#3C7CFF"/>
<path d="M26.0235 18.358C29.3043 18.358 31.9737 15.5906 31.9737 12.1891C31.9737 8.78759 29.3043 6.02014 26.0235 6.02014C22.7426 6.02014 20.0732 8.78759 20.0732 12.1891C20.0732 15.5906 22.7424 18.358 26.0235 18.358ZM26.0235 8.99886C27.6618 8.99886 28.9949 10.4301 28.9949 12.1891C28.9949 13.948 27.662 15.3793 26.0235 15.3793C24.3849 15.3793 23.052 13.9482 23.052 12.1891C23.052 10.4299 24.3847 8.99886 26.0235 8.99886Z" fill="#3C7CFF"/>
<path d="M40.5208 18.358C43.8016 18.358 46.471 15.5906 46.471 12.1891C46.471 8.78759 43.8016 6.02014 40.5208 6.02014C37.2399 6.02014 34.5706 8.78759 34.5706 12.1891C34.5706 15.5906 37.2399 18.358 40.5208 18.358ZM40.5208 8.99886C42.1591 8.99886 43.4923 10.4301 43.4923 12.1891C43.4923 13.948 42.1593 15.3793 40.5208 15.3793C38.8823 15.3793 37.5493 13.9482 37.5493 12.1891C37.5493 10.4299 38.8823 8.99886 40.5208 8.99886Z" fill="#3C7CFF"/>
<path d="M11.5259 18.358C14.8067 18.358 17.4761 15.5906 17.4761 12.1891C17.4761 8.78759 14.8067 6.02014 11.5259 6.02014C8.24504 6.02014 5.57568 8.78759 5.57568 12.1891C5.57568 15.5906 8.24504 18.358 11.5259 18.358ZM11.5259 8.99886C13.1642 8.99886 14.4974 10.4301 14.4974 12.1891C14.4974 13.948 13.1644 15.3793 11.5259 15.3793C9.88738 15.3793 8.55441 13.9482 8.55441 12.1891C8.55441 10.4299 9.88738 8.99886 11.5259 8.99886Z" fill="#3C7CFF"/>
<path d="M69.391 48.7767H67.4468V46.2414C67.4468 37.2887 59.7251 29.955 50.3191 29.8936C40.9172 29.8936 33.1915 37.2272 33.1915 46.2414V48.7767H30.6089C30.4142 48.7787 30.2218 48.8193 30.0429 48.896C29.8639 48.9727 29.7019 49.084 29.5661 49.2236C29.4304 49.3633 29.3237 49.5284 29.2521 49.7094C29.1805 49.8905 29.1454 50.084 29.1489 50.2787V64.0159C29.1489 64.8384 29.7872 65.5853 30.6089 65.5853H38.8823C39.291 65.5693 39.6782 65.398 39.9649 65.1064C40.2517 64.8148 40.4164 64.4248 40.4255 64.0159V50.2787C40.4138 49.8769 40.2462 49.4955 39.9581 49.2151C39.6701 48.9348 39.2843 48.7776 38.8823 48.7767H36.1702V46.2414C36.1702 38.8697 42.5598 32.8723 50.3094 32.8723C58.074 32.9231 64.4681 38.9206 64.4681 46.2414V48.7767H61.7049C61.3083 48.7794 60.9288 48.9389 60.6493 49.2202C60.3698 49.5016 60.2129 49.8821 60.2127 50.2787V64.0159C60.2104 64.4196 60.3645 64.8086 60.6427 65.1011C60.9209 65.3937 61.3016 65.5672 61.7049 65.5853H63.617V68.3176C63.617 69.3529 62.8193 70.2661 61.7842 70.2661H57.4413C57.1169 69.2237 56.4299 68.332 55.5048 67.7523C54.5797 67.1727 53.4776 66.9435 52.3981 67.1062C51.3186 67.269 50.333 67.8129 49.6199 68.6395C48.9068 69.4661 48.5133 70.5208 48.5106 71.6125C48.505 72.687 48.8775 73.7292 49.5629 74.5568C50.2484 75.3843 51.203 75.9444 52.2598 76.139C53.3165 76.3335 54.408 76.1502 55.3433 75.6211C56.2785 75.092 56.9978 74.2509 57.3753 73.2448H61.7842C64.4619 73.2448 66.5957 70.9953 66.5957 68.3176V65.5853H69.391C70.2127 65.5853 70.851 64.8384 70.851 64.0159V50.2787C70.8546 50.084 70.8195 49.8905 70.7479 49.7094C70.6763 49.5284 70.5696 49.3633 70.4338 49.2236C70.2981 49.084 70.1361 48.9727 69.9571 48.896C69.7781 48.8193 69.5858 48.7787 69.391 48.7767ZM37.4468 62.6065H32.1276V51.7555H37.4468V62.6065ZM53.0864 73.1919C52.7705 73.1919 52.4617 73.0982 52.1991 72.9227C51.9365 72.7472 51.7318 72.4978 51.6109 72.206C51.49 71.9142 51.4584 71.5931 51.52 71.2833C51.5817 70.9735 51.7338 70.6889 51.9571 70.4656C52.1805 70.2422 52.465 70.0901 52.7748 70.0285C53.0846 69.9669 53.4057 69.9985 53.6975 70.1194C53.9893 70.2403 54.2388 70.4449 54.4142 70.7076C54.5897 70.9702 54.6834 71.279 54.6834 71.5948C54.6829 72.0182 54.5145 72.4242 54.2151 72.7236C53.9157 73.023 53.5098 73.1914 53.0864 73.1919ZM67.8723 62.6065H63.1915V51.7555H67.8723V62.6065Z" fill="#3C7CFF"/>
</svg>
