<svg width="100" height="101" viewBox="0 0 100 101" fill="none" xmlns="http://www.w3.org/2000/svg">
<path d="M50.1577 97.0795C26.9605 97.0795 8.08988 78.2089 8.08988 55.0117V53.3937H6.15638L11.3259 45.1209L16.4954 53.3937H14.5619V55.0117C14.5619 74.6396 30.5298 90.6075 50.1577 90.6075C65.7923 90.6075 79.8236 80.1521 84.2779 65.1808L81.1778 64.2585C80.0727 67.9735 78.301 71.3664 76.0456 74.3597V45.3038H63.1016V84.6242C61.0371 85.5335 58.8673 86.2163 56.6296 86.6807V35.5958H43.9656L47.323 31.6787C48.1837 32.101 49.1367 32.3598 50.1577 32.3598C52.0993 32.3598 53.824 31.4829 55.0117 30.1238L63.2489 34.2416C63.155 34.68 63.1016 35.1315 63.1016 35.5958C63.1016 39.1651 66.0043 42.0678 69.5736 42.0678C73.1429 42.0678 76.0456 39.1651 76.0456 35.5958C76.0456 32.0265 73.1429 29.1238 69.5736 29.1238C67.632 29.1238 65.9072 30.0008 64.7196 31.3599L56.4824 27.2421C56.5763 26.8036 56.6296 26.3522 56.6296 25.8879C56.6296 22.3186 53.727 19.4159 50.1577 19.4159C46.5884 19.4159 43.6857 22.3186 43.6857 25.8879C43.6857 27.2632 44.1242 28.5349 44.8588 29.585L33.5749 42.749C32.7157 42.3267 31.7627 42.0678 30.7418 42.0678C27.1725 42.0678 24.2698 44.9705 24.2698 48.5398C24.2698 52.109 27.1725 55.0117 30.7418 55.0117C34.3111 55.0117 37.2137 52.109 37.2137 48.5398C37.2137 47.1645 36.7753 45.8927 36.0407 44.8426L43.6857 35.9226V86.713C41.4318 86.2535 39.2718 85.5416 37.2137 84.6388V58.2477H24.2698V74.3694C20.5209 69.3682 18.1651 63.2667 17.8367 56.6297H22.3347L11.3259 39.0146L0.31543 56.6297H4.8814C5.73732 80.8656 25.7195 100.315 50.1577 100.315C71.4634 100.315 89.6302 85.8248 94.3402 65.0789L91.1835 64.3621C86.8117 83.6259 69.9425 97.0795 50.1577 97.0795ZM69.5736 32.3598C71.3582 32.3598 72.8096 33.8112 72.8096 35.5958C72.8096 37.3805 71.3582 38.8318 69.5736 38.8318C67.7889 38.8318 66.3376 37.3805 66.3376 35.5958C66.3376 33.8112 67.7889 32.3598 69.5736 32.3598ZM50.1577 22.6519C51.9423 22.6519 53.3937 24.1032 53.3937 25.8879C53.3937 27.6725 51.9423 29.1238 50.1577 29.1238C48.373 29.1238 46.9217 27.6725 46.9217 25.8879C46.9217 24.1032 48.373 22.6519 50.1577 22.6519ZM30.7418 51.7757C28.9571 51.7757 27.5058 50.3244 27.5058 48.5398C27.5058 46.7551 28.9571 45.3038 30.7418 45.3038C32.5264 45.3038 33.9778 46.7551 33.9778 48.5398C33.9778 50.3244 32.5264 51.7757 30.7418 51.7757ZM66.3376 48.5398H72.8096V78.0455C70.8647 79.9482 68.6885 81.5969 66.3376 82.9625V48.5398ZM46.9217 38.8318H53.3937V87.1871C52.3242 87.2971 51.2482 87.3716 50.1577 87.3716C49.0655 87.3716 47.9863 87.3149 46.9217 87.2098V38.8318ZM27.5058 61.4837H33.9778V82.9884C31.6187 81.618 29.4409 79.9757 27.5058 78.0746V61.4837Z" fill="#3C7CFF"/>
<path d="M17.7979 35.5958C27.611 35.5958 35.5958 27.611 35.5958 17.7979C35.5958 17.3465 35.5618 16.9032 35.5279 16.4598C40.0453 14.1655 45.0756 12.9439 50.1578 12.9439C67.4573 12.9439 81.6326 26.5917 82.4788 43.6858H77.9807L88.9896 61.3009L100 43.6858H95.434C94.5781 19.4499 74.5959 0 50.1578 0C43.134 0 36.1654 1.66815 29.9118 4.79573C26.7308 1.82995 22.4788 0 17.7979 0C7.98479 0 0 7.98479 0 17.7979C0 27.611 7.98479 35.5958 17.7979 35.5958ZM3.33145 16.1799C3.64372 13.3759 4.75528 10.8147 6.43152 8.71936L8.64493 10.9328L10.9328 8.64493L8.71936 6.43152C10.8147 4.75528 13.3759 3.64372 16.1799 3.33145V6.47197H19.4159V3.33145C22.2199 3.64372 24.7812 4.75528 26.8765 6.43152L24.6631 8.64493L26.9509 10.9328L29.1643 8.71936C30.8405 10.8147 31.9521 13.3759 32.2644 16.1799H29.1239V19.4159H32.2644C31.9521 22.2199 30.8405 24.7812 29.1643 26.8765L26.9509 24.6631L24.6631 26.9509L26.8765 29.1643C24.7812 30.8405 22.2199 31.9521 19.4159 32.2644V29.1239H16.1799V32.2644C13.3759 31.9521 10.8147 30.8405 8.71936 29.1643L10.9328 26.9509L8.64493 24.6631L6.43152 26.8765C4.75528 24.7812 3.64372 22.2199 3.33145 19.4159H6.47197V16.1799H3.33145ZM92.2255 45.3038V46.9218H94.159L88.9896 55.1946L83.8201 46.9218H85.7536V45.3038C85.7536 25.6759 69.7856 9.70795 50.1578 9.70795C44.9009 9.70795 39.6877 10.8842 34.9519 13.1235C34.371 10.9975 33.4099 9.03325 32.1398 7.302C37.7413 4.64526 43.9269 3.23598 50.1578 3.23598C73.3549 3.23598 92.2255 22.1066 92.2255 45.3038Z" fill="#3C7CFF"/>
<path d="M16.1797 22.6518H19.4157V17.128L14.0876 11.7999L11.7998 14.0878L16.1797 18.4677V22.6518Z" fill="#3C7CFF"/>
</svg>
