<svg width="118" height="100" viewBox="0 0 118 100" fill="none" xmlns="http://www.w3.org/2000/svg">
<path d="M111.408 0H23.1513C19.7045 0 16.9009 2.80358 16.9009 6.2504V43.74C12.1612 46.3052 8.93994 51.2845 8.93994 56.9955C8.93994 61.2931 10.7671 65.173 13.6899 67.9254C10.3417 69.1619 7.32545 71.253 4.97418 74.0169C1.76697 77.7866 0 82.575 0 87.4992V97.1541C0 98.7238 1.27622 100 2.84587 100H45.5672C47.1368 100 48.413 98.7238 48.413 97.1541V93.3062H92.0954C94.8592 93.3062 97.1067 91.0575 97.1067 88.2949C97.1067 85.5311 94.858 83.2836 92.0954 83.2836H85.5375L80.7081 73.4608H111.409C114.856 73.4608 117.659 70.6572 117.659 67.2104V6.2504C117.658 2.80486 114.855 0 111.408 0ZM12.4009 56.9955C12.4009 50.5772 17.6967 45.3558 24.2059 45.3558C30.7151 45.3558 36.0122 50.5772 36.0122 56.9955C36.0122 63.4137 30.7164 68.6352 24.2059 68.6352C17.6967 68.6339 12.4009 63.4125 12.4009 56.9955ZM42.3997 53.9805L42.9545 56.4484L40.7788 55.1581C40.338 54.8967 39.8114 54.8505 39.3373 55.0133C39.1143 53.3424 38.6159 51.7561 37.8855 50.303C38.3327 50.1441 38.703 49.8072 38.8952 49.36L39.896 47.0382L40.8967 49.3612C41.1478 49.943 41.695 50.3402 42.3254 50.3991L44.8432 50.6336L42.943 52.3032C42.4689 52.7184 42.26 53.3629 42.3997 53.9805ZM39.336 58.9893L39.896 58.6574L44.6408 61.4725C44.9137 61.634 45.2187 61.7147 45.5236 61.7147C45.8811 61.7147 46.2386 61.6032 46.541 61.3841C47.0997 60.9779 47.3636 60.2783 47.2124 59.6043L46.0016 54.2227L50.1441 50.5798C50.6631 50.1236 50.8604 49.4022 50.6477 48.7462C50.4337 48.0889 49.8507 47.6225 49.1626 47.5584L43.6695 47.0471L41.4861 41.982C41.2132 41.3477 40.5879 40.9364 39.8972 40.9364C39.2066 40.9364 38.5813 41.3477 38.3084 41.982L36.125 47.0471L35.7111 47.0856C33.3483 44.4063 30.0488 42.5573 26.3201 42.0448V9.41788H108.243V64.0429H37.7023C38.53 62.4963 39.0938 60.7934 39.336 58.9893ZM44.9521 96.5404H3.45963V87.4992C3.45963 79.2115 9.26028 72.1397 17.3315 70.4701C19.3996 71.5067 21.7342 72.0949 24.2059 72.0949C26.6776 72.0949 29.0135 71.5067 31.0803 70.4701C39.1502 72.1397 44.9521 79.2115 44.9521 87.4992V96.5404ZM43.4389 74.0169C43.2774 73.8272 43.1108 73.6427 42.9443 73.4608H53.8511L49.0217 83.2836H47.9735C47.2662 79.8918 45.7197 76.6962 43.4389 74.0169ZM93.6458 88.2949C93.6458 89.1508 92.95 89.8466 92.0954 89.8466H48.413V87.4992C48.413 87.2468 48.4054 86.9956 48.3964 86.7432H92.0954C92.95 86.7445 93.6458 87.4403 93.6458 88.2949ZM81.6806 83.2836H52.8785L57.7079 73.4608H76.8512L81.6806 83.2836ZM114.199 67.2104C114.199 68.748 112.947 69.9999 111.409 69.9999H38.8593C37.5613 69.158 36.1749 68.461 34.7244 67.9254C34.8705 67.787 35.0153 67.6473 35.1563 67.5038H109.973C110.929 67.5038 111.703 66.7299 111.703 65.774V7.68807C111.703 6.73219 110.927 5.95825 109.973 5.95825H24.5877C23.6318 5.95825 22.8579 6.73219 22.8579 7.68807V41.9576C22.0045 42.032 21.1691 42.1729 20.3618 42.3818V6.2504C20.3618 4.71279 21.6137 3.46091 23.1513 3.46091H111.409C112.947 3.46091 114.199 4.71279 114.199 6.2504V67.2104ZM49.6598 12.051H34.0902C33.1343 12.051 32.3604 12.825 32.3604 13.7809V35.7136C32.3604 36.6695 33.1356 37.4435 34.0902 37.4435H49.6598C50.6157 37.4435 51.3896 36.6695 51.3896 35.7136V13.7821C51.3896 12.8263 50.6144 12.051 49.6598 12.051ZM47.9287 33.9838H35.82V15.512H47.9287V33.9838ZM58.4511 37.4447H71.5311C72.487 37.4447 73.2609 36.6708 73.2609 35.7149V13.7821C73.2609 12.8263 72.4857 12.0523 71.5311 12.0523H58.4511C57.4952 12.0523 56.7213 12.8263 56.7213 13.7821V35.7136C56.7213 36.6695 57.4952 37.4447 58.4511 37.4447ZM60.1822 15.512H69.8025V33.9838H60.1822V15.512ZM100.469 23.2231C101.425 23.2231 102.199 22.4492 102.199 21.4933V13.7821C102.199 12.8263 101.424 12.0523 100.469 12.0523H82.8069C81.851 12.0523 81.0771 12.8263 81.0771 13.7821V21.4933C81.0771 22.4492 81.8523 23.2231 82.8069 23.2231H100.469ZM84.538 15.512H98.7392V19.7622H84.538V15.512ZM99.886 38.2776H83.3899C82.434 38.2776 81.6601 37.5037 81.6601 36.5478C81.6601 35.5919 82.4353 34.818 83.3899 34.818H99.886C100.842 34.818 101.616 35.5919 101.616 36.5478C101.617 37.5024 100.842 38.2776 99.886 38.2776ZM99.886 27.1056C100.842 27.1056 101.616 27.8795 101.616 28.8354C101.616 29.7913 100.841 30.5652 99.886 30.5652H83.3899C82.434 30.5652 81.6601 29.7913 81.6601 28.8354C81.6601 27.8795 82.4353 27.1056 83.3899 27.1056H99.886ZM103.929 47.5571L98.4355 47.0459L96.2521 41.9794C95.9791 41.3452 95.3538 40.9338 94.6632 40.9338C93.9725 40.9338 93.3473 41.3452 93.0743 41.9794L90.8909 47.0446L85.3978 47.5558C84.7097 47.6199 84.1267 48.0876 83.9127 48.7436C83.6987 49.401 83.8973 50.1211 84.4163 50.5772L88.5589 54.2201L87.348 59.6017C87.1968 60.2757 87.4608 60.9754 88.0194 61.3815C88.5781 61.7877 89.3251 61.8223 89.9197 61.47L94.6645 58.6548L99.4093 61.47C99.6822 61.6314 99.9872 61.7121 100.292 61.7121C100.65 61.7121 101.007 61.6007 101.31 61.3815C101.868 60.9754 102.132 60.2757 101.981 59.6017L100.77 54.2201L104.914 50.5772C105.433 50.1211 105.63 49.3997 105.418 48.7436C105.2 48.0876 104.617 47.6212 103.929 47.5571ZM97.7115 52.3006C97.2361 52.7184 97.0273 53.3629 97.1657 53.9805L97.7205 56.4484L95.5448 55.1581C95.2731 54.9966 94.9669 54.9159 94.6619 54.9159C94.3569 54.9159 94.0507 54.9966 93.7791 55.1581L91.6033 56.4484L92.1582 53.9805C92.2965 53.3629 92.0877 52.7196 91.6123 52.3006L89.7134 50.6311L92.2325 50.3966C92.8629 50.3376 93.41 49.9404 93.6612 49.3587L94.6619 47.0356L95.6639 49.3587C95.9151 49.9404 96.4622 50.3376 97.0926 50.3966L99.6105 50.6311L97.7115 52.3006ZM76.545 47.5571L71.0518 47.0459L68.8684 41.9807C68.5955 41.3464 67.9702 40.9351 67.2796 40.9351C66.5889 40.9351 65.9636 41.3464 65.6907 41.9807L63.5073 47.0459L58.0142 47.5571C57.3261 47.6212 56.7431 48.0889 56.5291 48.7449C56.3151 49.4022 56.5137 50.1224 57.0327 50.5785L61.1752 54.2201L59.9644 59.6017C59.8132 60.2757 60.0771 60.9754 60.6358 61.3815C61.1945 61.7877 61.9415 61.8223 62.536 61.47L67.2809 58.6548L72.0257 61.47C72.2986 61.6314 72.6036 61.7121 72.9085 61.7121C73.266 61.7121 73.6235 61.6007 73.9259 61.3815C74.4846 60.9754 74.7485 60.2757 74.5973 59.6017L73.3865 54.2201L77.5303 50.5772C78.0493 50.1211 78.2466 49.3997 78.0339 48.7436C77.8173 48.0876 77.2331 47.6212 76.545 47.5571ZM70.3279 52.3006C69.8525 52.7184 69.6436 53.3629 69.782 53.9805L70.3369 56.4484L68.1611 55.1581C67.8895 54.9966 67.5833 54.9159 67.2783 54.9159C66.9733 54.9159 66.6671 54.9966 66.3954 55.1581L64.2197 56.4484L64.7745 53.9805C64.9129 53.3629 64.7041 52.7196 64.2287 52.3006L62.3297 50.6311L64.8489 50.3966C65.4793 50.3376 66.0264 49.9404 66.2776 49.3587L67.2783 47.0369L68.279 49.36C68.5302 49.9417 69.0773 50.3389 69.7077 50.3979L72.2256 50.6323L70.3279 52.3006Z" fill="#3C7CFF"/>
</svg>
