<svg width="101" height="70" viewBox="0 0 101 70" fill="none" xmlns="http://www.w3.org/2000/svg">
<mask id="path-1-outside-1_192_1328" maskUnits="userSpaceOnUse" x="0" y="0" width="89" height="67" fill="black">
<rect fill="white" width="89" height="67"/>
<path fill-rule="evenodd" clip-rule="evenodd" d="M38.0121 43.9658C38.0121 44.5516 38.4868 45.0262 39.0725 45.0262H51.6152C52.201 45.0262 52.6756 44.5516 52.6756 43.9658C52.6756 43.3801 52.201 42.9054 51.6152 42.9054H39.0725C38.4868 42.9054 38.0121 43.3801 38.0121 43.9658ZM54.3257 48.7055V63.9002C52.3091 63.5298 50.392 62.1156 48.6922 59.9012C46.7001 57.3038 45.0247 53.647 43.8298 49.2806H52.1951C52.9699 49.2806 53.698 49.071 54.3257 48.7055ZM54.3257 3.22288V18.4185C53.698 18.053 52.9699 17.8425 52.1951 17.8425H43.9399L43.8483 17.7753C45.0422 13.4381 46.7098 9.80561 48.6922 7.22184C50.393 5.00648 52.3091 3.59324 54.3257 3.22288ZM56.4465 21.5228V3.22288C59.618 3.80084 62.5263 6.94406 64.7456 11.7335C65.5818 13.5365 66.3138 15.5648 66.9219 17.7743C63.9561 19.9575 60.3519 21.3142 56.4465 21.5228ZM56.4465 63.9002V45.2436C60.3831 45.4541 64.0204 46.8323 67.0028 49.0515C66.3791 51.376 65.6189 53.5056 64.7465 55.3896C62.5273 60.178 59.618 63.3222 56.4465 63.9002ZM56.4465 23.6465V32.5011L68.9131 32.5021C68.8439 28.0119 68.3332 23.7713 67.4726 19.9741C64.2953 22.1231 60.5176 23.4496 56.4465 23.6465ZM85.8027 32.5011H71.034C70.9579 27.4895 70.3459 22.7625 69.3166 18.5764C71.8838 16.4088 73.9384 13.6545 75.2727 10.521C81.5211 15.9195 85.5035 23.7683 85.8027 32.5011ZM78.2789 53.619C79.6461 52.0598 80.8543 50.3622 81.8809 48.5512C82.0463 49.0054 81.9539 49.5347 81.6011 49.9061L79.9276 51.6005L81.4221 53.1135C80.9033 53.8025 80.3537 54.4756 79.773 55.1308L78.2789 53.619ZM70.0616 45.0153C69.8644 46.124 69.6395 47.2037 69.3888 48.2504C69.5339 48.3739 69.6773 48.4993 69.819 48.6266C69.7928 49.6754 69.8392 50.7222 69.957 51.7593C69.5828 51.338 69.1906 50.9331 68.7816 50.5456C67.4093 55.2766 65.1617 60.2385 61.8304 63.3125C65.5335 62.5141 68.9865 61.0423 72.0537 59.0311C72.0623 59.0491 72.071 59.067 72.0797 59.085C72.3815 59.707 72.7107 60.313 73.0659 60.9012C62.8039 67.5404 49.405 67.9864 38.5813 61.4499C33.6915 58.4968 29.6409 54.2931 26.872 49.2806H10.883C8.54381 49.2806 6.63254 47.3693 6.63254 45.0292V27.1679C0.901646 25.3453 -0.93263 18.0443 3.36847 13.7422C7.94149 9.16917 15.7396 11.5804 17.0115 17.8425H26.872C28.9869 14.0131 31.8504 10.6555 35.2646 7.96744C35.9605 7.36511 37.7529 6.17312 38.5813 5.67313C51.4095 -2.07235 67.8527 -0.0129319 78.4062 10.5405C85.1071 17.2414 88.2764 26.1367 87.9139 34.9132C87.6761 34.7149 87.4432 34.5094 87.2155 34.2971C86.1841 33.3163 84.5749 33.3163 83.5434 34.2971C83.4253 34.4072 83.3058 34.5155 83.1849 34.6219H71.034C71.0057 36.4873 70.9031 38.3132 70.7324 40.0864C70.5174 40.442 70.3798 40.8514 70.3434 41.2911L70.0616 45.0153ZM67.5418 46.8401C68.3605 43.1228 68.8459 38.9893 68.9131 34.6219H56.4465V43.1198C60.5468 43.3187 64.3499 44.6637 67.5418 46.8401ZM48.9359 63.3125C45.7245 60.3476 43.4379 55.529 41.9916 50.5466C39.8308 52.5904 38.1593 55.1011 37.1164 57.9071C40.5949 60.5211 44.6095 62.3797 48.9359 63.3125ZM40.2528 49.2806C38.1671 51.3293 36.5024 53.7912 35.3874 56.5085C33.0093 54.4335 30.9557 51.9949 29.3154 49.2806H40.2528ZM61.8304 3.80962C65.0984 6.82516 67.3225 11.6574 68.6997 16.2967C70.8108 14.3211 72.4813 11.8806 73.5495 9.13798C70.1256 6.58832 66.149 4.7404 61.8304 3.80962ZM35.4975 10.52C36.6798 13.2968 38.4322 15.7889 40.629 17.8425H29.3154C30.981 15.0862 33.0717 12.6145 35.4975 10.52ZM48.9359 3.81059C44.6543 4.73358 40.6748 6.56395 37.2217 9.13603C38.284 11.865 39.9497 14.3094 42.0734 16.2987C43.5179 11.4313 45.7781 6.72672 48.9359 3.81059ZM20.0641 36.2857H13.8663C12.7182 36.2857 11.7728 37.2311 11.7728 38.3782V42.923C11.7728 44.0721 12.7133 45.0165 13.8663 45.0165H20.0641C20.6411 45.0165 21.1645 44.7816 21.5436 44.4025L21.5416 44.4005C21.9218 44.0204 22.1576 43.499 22.1576 42.923V38.3782C22.1576 37.2301 21.2171 36.2857 20.0641 36.2857ZM20.0368 42.8967V38.4065H13.8936V42.8967H20.0368ZM17.1577 19.9633L17.1099 20.4789C17.1085 20.4915 17.1068 20.5044 17.1051 20.5173L17.1081 20.4935C16.9022 22.1086 16.2266 23.5761 15.1577 24.8024L54.3257 24.8804V22.0939C54.3257 20.9243 53.3647 19.9633 52.1951 19.9633H17.1577ZM17.1051 20.5173C17.1045 20.5217 17.1039 20.5261 17.1033 20.5305C17.1022 20.539 17.1012 20.5475 17.1002 20.5559L17.1051 20.5173ZM12.2163 26.9194C11.187 27.3492 10.114 27.5577 8.99995 27.547C8.9171 27.546 8.83523 27.5441 8.75336 27.5412V30.3189L54.3257 30.2273V26.9924L12.2163 26.9194ZM13.5515 23.4194L13.3059 15.2422L13.6451 23.3112L13.7815 23.1446L13.9531 22.9145L14.1899 22.5549L14.263 22.4311L14.4004 22.1777L14.4326 22.1134L14.5554 21.8502L14.6119 21.7167C15.4959 19.515 15.0437 16.98 13.3059 15.2422C10.9755 12.9118 7.19783 12.9118 4.86747 15.2422C1.52834 18.5813 3.20862 24.3453 7.92004 25.3112C8.55648 25.4418 9.26895 25.4603 9.92391 25.3677L10.652 25.2196L11.072 25.089L11.2774 25.0112L11.2065 25.0393C11.2411 25.0268 11.275 25.0132 11.3089 24.9993L11.3449 24.9857L11.4785 24.9291L11.61 24.8697L11.805 24.7742L12.0584 24.6367L12.1822 24.5636L12.304 24.4876L12.5418 24.3268C12.6782 24.2293 12.8098 24.127 12.9375 24.0188C12.9736 23.9886 13.0096 23.9574 13.0457 23.9253C13.0817 23.8931 13.1168 23.8609 13.1519 23.8288L13.2036 23.78L13.4063 23.5773L13.455 23.5256L13.5515 23.4194ZM13.0447 23.9253C13.0096 23.9565 12.9745 23.9876 12.9375 24.0188L13.0447 23.9253ZM11.3089 24.9993C11.3199 24.9948 11.331 24.9902 11.342 24.9857L11.2774 25.0112L11.3089 24.9993ZM12.5145 16.4059C12.0408 16.0648 11.381 16.172 11.0399 16.6456L8.21244 20.5676L6.63936 18.9945C6.22514 18.5803 5.55459 18.5803 5.14036 18.9945C4.72614 19.4078 4.72614 20.0793 5.14036 20.4935L7.59159 22.9448L7.59354 22.9418C8.0487 23.397 8.81866 23.3375 9.1978 22.8122L12.7543 17.8805C13.0954 17.4068 12.9882 16.747 12.5145 16.4059ZM16.9189 21.4799C16.9121 21.5072 16.9053 21.5335 16.8975 21.5608L16.9189 21.4799ZM8.75336 32.431L54.3257 32.3403L54.3266 45.0292C54.3266 46.1987 53.3656 47.1597 52.1961 47.1597H10.8839C9.71436 47.1597 8.75336 46.1987 8.75336 45.0292V32.431ZM13.0447 23.9253L13.1509 23.8288C13.1159 23.8609 13.0808 23.8931 13.0447 23.9253ZM14.0749 22.7372L13.994 22.8561C14.0127 22.8277 14.0319 22.7998 14.0512 22.7718C14.0591 22.7603 14.067 22.7488 14.0749 22.7372ZM40.3844 40.6199C40.3844 41.2057 40.859 41.6803 41.4448 41.6803H51.6152C52.201 41.6803 52.6756 41.2057 52.6756 40.6199C52.6756 40.0341 52.201 39.5595 51.6152 39.5595H41.4448C40.859 39.5595 40.3844 40.0341 40.3844 40.6199Z"/>
</mask>
<path fill-rule="evenodd" clip-rule="evenodd" d="M38.0121 43.9658C38.0121 44.5516 38.4868 45.0262 39.0725 45.0262H51.6152C52.201 45.0262 52.6756 44.5516 52.6756 43.9658C52.6756 43.3801 52.201 42.9054 51.6152 42.9054H39.0725C38.4868 42.9054 38.0121 43.3801 38.0121 43.9658ZM54.3257 48.7055V63.9002C52.3091 63.5298 50.392 62.1156 48.6922 59.9012C46.7001 57.3038 45.0247 53.647 43.8298 49.2806H52.1951C52.9699 49.2806 53.698 49.071 54.3257 48.7055ZM54.3257 3.22288V18.4185C53.698 18.053 52.9699 17.8425 52.1951 17.8425H43.9399L43.8483 17.7753C45.0422 13.4381 46.7098 9.80561 48.6922 7.22184C50.393 5.00648 52.3091 3.59324 54.3257 3.22288ZM56.4465 21.5228V3.22288C59.618 3.80084 62.5263 6.94406 64.7456 11.7335C65.5818 13.5365 66.3138 15.5648 66.9219 17.7743C63.9561 19.9575 60.3519 21.3142 56.4465 21.5228ZM56.4465 63.9002V45.2436C60.3831 45.4541 64.0204 46.8323 67.0028 49.0515C66.3791 51.376 65.6189 53.5056 64.7465 55.3896C62.5273 60.178 59.618 63.3222 56.4465 63.9002ZM56.4465 23.6465V32.5011L68.9131 32.5021C68.8439 28.0119 68.3332 23.7713 67.4726 19.9741C64.2953 22.1231 60.5176 23.4496 56.4465 23.6465ZM85.8027 32.5011H71.034C70.9579 27.4895 70.3459 22.7625 69.3166 18.5764C71.8838 16.4088 73.9384 13.6545 75.2727 10.521C81.5211 15.9195 85.5035 23.7683 85.8027 32.5011ZM78.2789 53.619C79.6461 52.0598 80.8543 50.3622 81.8809 48.5512C82.0463 49.0054 81.9539 49.5347 81.6011 49.9061L79.9276 51.6005L81.4221 53.1135C80.9033 53.8025 80.3537 54.4756 79.773 55.1308L78.2789 53.619ZM70.0616 45.0153C69.8644 46.124 69.6395 47.2037 69.3888 48.2504C69.5339 48.3739 69.6773 48.4993 69.819 48.6266C69.7928 49.6754 69.8392 50.7222 69.957 51.7593C69.5828 51.338 69.1906 50.9331 68.7816 50.5456C67.4093 55.2766 65.1617 60.2385 61.8304 63.3125C65.5335 62.5141 68.9865 61.0423 72.0537 59.0311C72.0623 59.0491 72.071 59.067 72.0797 59.085C72.3815 59.707 72.7107 60.313 73.0659 60.9012C62.8039 67.5404 49.405 67.9864 38.5813 61.4499C33.6915 58.4968 29.6409 54.2931 26.872 49.2806H10.883C8.54381 49.2806 6.63254 47.3693 6.63254 45.0292V27.1679C0.901646 25.3453 -0.93263 18.0443 3.36847 13.7422C7.94149 9.16917 15.7396 11.5804 17.0115 17.8425H26.872C28.9869 14.0131 31.8504 10.6555 35.2646 7.96744C35.9605 7.36511 37.7529 6.17312 38.5813 5.67313C51.4095 -2.07235 67.8527 -0.0129319 78.4062 10.5405C85.1071 17.2414 88.2764 26.1367 87.9139 34.9132C87.6761 34.7149 87.4432 34.5094 87.2155 34.2971C86.1841 33.3163 84.5749 33.3163 83.5434 34.2971C83.4253 34.4072 83.3058 34.5155 83.1849 34.6219H71.034C71.0057 36.4873 70.9031 38.3132 70.7324 40.0864C70.5174 40.442 70.3798 40.8514 70.3434 41.2911L70.0616 45.0153ZM67.5418 46.8401C68.3605 43.1228 68.8459 38.9893 68.9131 34.6219H56.4465V43.1198C60.5468 43.3187 64.3499 44.6637 67.5418 46.8401ZM48.9359 63.3125C45.7245 60.3476 43.4379 55.529 41.9916 50.5466C39.8308 52.5904 38.1593 55.1011 37.1164 57.9071C40.5949 60.5211 44.6095 62.3797 48.9359 63.3125ZM40.2528 49.2806C38.1671 51.3293 36.5024 53.7912 35.3874 56.5085C33.0093 54.4335 30.9557 51.9949 29.3154 49.2806H40.2528ZM61.8304 3.80962C65.0984 6.82516 67.3225 11.6574 68.6997 16.2967C70.8108 14.3211 72.4813 11.8806 73.5495 9.13798C70.1256 6.58832 66.149 4.7404 61.8304 3.80962ZM35.4975 10.52C36.6798 13.2968 38.4322 15.7889 40.629 17.8425H29.3154C30.981 15.0862 33.0717 12.6145 35.4975 10.52ZM48.9359 3.81059C44.6543 4.73358 40.6748 6.56395 37.2217 9.13603C38.284 11.865 39.9497 14.3094 42.0734 16.2987C43.5179 11.4313 45.7781 6.72672 48.9359 3.81059ZM20.0641 36.2857H13.8663C12.7182 36.2857 11.7728 37.2311 11.7728 38.3782V42.923C11.7728 44.0721 12.7133 45.0165 13.8663 45.0165H20.0641C20.6411 45.0165 21.1645 44.7816 21.5436 44.4025L21.5416 44.4005C21.9218 44.0204 22.1576 43.499 22.1576 42.923V38.3782C22.1576 37.2301 21.2171 36.2857 20.0641 36.2857ZM20.0368 42.8967V38.4065H13.8936V42.8967H20.0368ZM17.1577 19.9633L17.1099 20.4789C17.1085 20.4915 17.1068 20.5044 17.1051 20.5173L17.1081 20.4935C16.9022 22.1086 16.2266 23.5761 15.1577 24.8024L54.3257 24.8804V22.0939C54.3257 20.9243 53.3647 19.9633 52.1951 19.9633H17.1577ZM17.1051 20.5173C17.1045 20.5217 17.1039 20.5261 17.1033 20.5305C17.1022 20.539 17.1012 20.5475 17.1002 20.5559L17.1051 20.5173ZM12.2163 26.9194C11.187 27.3492 10.114 27.5577 8.99995 27.547C8.9171 27.546 8.83523 27.5441 8.75336 27.5412V30.3189L54.3257 30.2273V26.9924L12.2163 26.9194ZM13.5515 23.4194L13.3059 15.2422L13.6451 23.3112L13.7815 23.1446L13.9531 22.9145L14.1899 22.5549L14.263 22.4311L14.4004 22.1777L14.4326 22.1134L14.5554 21.8502L14.6119 21.7167C15.4959 19.515 15.0437 16.98 13.3059 15.2422C10.9755 12.9118 7.19783 12.9118 4.86747 15.2422C1.52834 18.5813 3.20862 24.3453 7.92004 25.3112C8.55648 25.4418 9.26895 25.4603 9.92391 25.3677L10.652 25.2196L11.072 25.089L11.2774 25.0112L11.2065 25.0393C11.2411 25.0268 11.275 25.0132 11.3089 24.9993L11.3449 24.9857L11.4785 24.9291L11.61 24.8697L11.805 24.7742L12.0584 24.6367L12.1822 24.5636L12.304 24.4876L12.5418 24.3268C12.6782 24.2293 12.8098 24.127 12.9375 24.0188C12.9736 23.9886 13.0096 23.9574 13.0457 23.9253C13.0817 23.8931 13.1168 23.8609 13.1519 23.8288L13.2036 23.78L13.4063 23.5773L13.455 23.5256L13.5515 23.4194ZM13.0447 23.9253C13.0096 23.9565 12.9745 23.9876 12.9375 24.0188L13.0447 23.9253ZM11.3089 24.9993C11.3199 24.9948 11.331 24.9902 11.342 24.9857L11.2774 25.0112L11.3089 24.9993ZM12.5145 16.4059C12.0408 16.0648 11.381 16.172 11.0399 16.6456L8.21244 20.5676L6.63936 18.9945C6.22514 18.5803 5.55459 18.5803 5.14036 18.9945C4.72614 19.4078 4.72614 20.0793 5.14036 20.4935L7.59159 22.9448L7.59354 22.9418C8.0487 23.397 8.81866 23.3375 9.1978 22.8122L12.7543 17.8805C13.0954 17.4068 12.9882 16.747 12.5145 16.4059ZM16.9189 21.4799C16.9121 21.5072 16.9053 21.5335 16.8975 21.5608L16.9189 21.4799ZM8.75336 32.431L54.3257 32.3403L54.3266 45.0292C54.3266 46.1987 53.3656 47.1597 52.1961 47.1597H10.8839C9.71436 47.1597 8.75336 46.1987 8.75336 45.0292V32.431ZM13.0447 23.9253L13.1509 23.8288C13.1159 23.8609 13.0808 23.8931 13.0447 23.9253ZM14.0749 22.7372L13.994 22.8561C14.0127 22.8277 14.0319 22.7998 14.0512 22.7718C14.0591 22.7603 14.067 22.7488 14.0749 22.7372ZM40.3844 40.6199C40.3844 41.2057 40.859 41.6803 41.4448 41.6803H51.6152C52.201 41.6803 52.6756 41.2057 52.6756 40.6199C52.6756 40.0341 52.201 39.5595 51.6152 39.5595H41.4448C40.859 39.5595 40.3844 40.0341 40.3844 40.6199Z" fill="#3C7CFF"/>
<path d="M54.3257 63.9002L54.2715 64.1953L54.6257 64.2603V63.9002H54.3257ZM54.3257 48.7055H54.6257V48.1837L54.1747 48.4463L54.3257 48.7055ZM48.6922 59.9012L48.4542 60.0838L48.4543 60.0839L48.6922 59.9012ZM43.8298 49.2806V48.9806H43.4366L43.5404 49.3597L43.8298 49.2806ZM54.3257 18.4185L54.1747 18.6778L54.6257 18.9404V18.4185H54.3257ZM54.3257 3.22288H54.6257V2.86276L54.2715 2.92782L54.3257 3.22288ZM43.9399 17.8425L43.7624 18.0844L43.8416 18.1425H43.9399V17.8425ZM43.8483 17.7753L43.559 17.6956L43.5042 17.8948L43.6708 18.0171L43.8483 17.7753ZM48.6922 7.22184L48.4543 7.03915L48.4542 7.03922L48.6922 7.22184ZM56.4465 3.22288L56.5003 2.92774L56.1465 2.86327V3.22288H56.4465ZM56.4465 21.5228H56.1465V21.8392L56.4625 21.8223L56.4465 21.5228ZM64.7456 11.7335L64.4734 11.8596L64.4734 11.8597L64.7456 11.7335ZM66.9219 17.7743L67.0998 18.0159L67.2659 17.8936L67.2112 17.6947L66.9219 17.7743ZM56.4465 45.2436L56.4625 44.944L56.1465 44.9271V45.2436H56.4465ZM56.4465 63.9002H56.1465V64.2598L56.5003 64.1953L56.4465 63.9002ZM67.0028 49.0515L67.2926 49.1293L67.3454 48.9325L67.1819 48.8108L67.0028 49.0515ZM64.7465 55.3896L65.0187 55.5158L65.0188 55.5157L64.7465 55.3896ZM56.4465 32.5011H56.1465V32.8011L56.4465 32.8011L56.4465 32.5011ZM56.4465 23.6465L56.432 23.3469L56.1465 23.3607V23.6465H56.4465ZM68.9131 32.5021L68.9131 32.8021L69.2178 32.8021L69.2131 32.4975L68.9131 32.5021ZM67.4726 19.9741L67.7652 19.9077L67.6682 19.4796L67.3045 19.7256L67.4726 19.9741ZM71.034 32.5011L70.734 32.5057L70.7385 32.8011H71.034V32.5011ZM85.8027 32.5011V32.8011H86.1132L86.1025 32.4909L85.8027 32.5011ZM69.3166 18.5764L69.1231 18.3472L68.9809 18.4673L69.0253 18.648L69.3166 18.5764ZM75.2727 10.521L75.4688 10.294L75.1577 10.0252L74.9967 10.4035L75.2727 10.521ZM78.2789 53.619L78.0533 53.4212L77.8692 53.6313L78.0655 53.8299L78.2789 53.619ZM81.8809 48.5512L82.1628 48.4486L81.9404 47.8379L81.6199 48.4033L81.8809 48.5512ZM81.6011 49.9061L81.8146 50.117L81.8186 50.1127L81.6011 49.9061ZM79.9276 51.6005L79.7141 51.3896L79.5059 51.6005L79.7141 51.8113L79.9276 51.6005ZM81.4221 53.1135L81.6617 53.294L81.8175 53.087L81.6355 52.9027L81.4221 53.1135ZM79.773 55.1308L79.5597 55.3417L79.785 55.5697L79.9976 55.3298L79.773 55.1308ZM70.0616 45.0153L70.3569 45.0678L70.3596 45.053L70.3607 45.0379L70.0616 45.0153ZM69.3888 48.2504L69.097 48.1805L69.0541 48.3595L69.1943 48.4788L69.3888 48.2504ZM69.819 48.6266L70.1189 48.6341L70.1224 48.4958L70.0195 48.4034L69.819 48.6266ZM69.957 51.7593L69.7327 51.9585L70.3619 52.667L70.2551 51.7255L69.957 51.7593ZM68.7816 50.5456L68.9879 50.3278L68.6306 49.9894L68.4934 50.4621L68.7816 50.5456ZM61.8304 63.3125L61.627 63.092L60.8192 63.8374L61.8936 63.6057L61.8304 63.3125ZM72.0537 59.0311L72.324 58.901L72.1755 58.5925L71.8892 58.7802L72.0537 59.0311ZM72.0797 59.085L71.8098 59.2159L71.8098 59.2159L72.0797 59.085ZM73.0659 60.9012L73.2289 61.1531L73.4731 60.9951L73.3227 60.7461L73.0659 60.9012ZM38.5813 61.4499L38.4262 61.7067L38.4262 61.7067L38.5813 61.4499ZM26.872 49.2806L27.1346 49.1355L27.049 48.9806H26.872V49.2806ZM6.63254 27.1679H6.93254V26.9485L6.72346 26.882L6.63254 27.1679ZM3.36847 13.7422L3.15633 13.5301L3.15631 13.5301L3.36847 13.7422ZM17.0115 17.8425L16.7175 17.9022L16.7663 18.1425H17.0115V17.8425ZM26.872 17.8425V18.1425H27.049L27.1346 17.9876L26.872 17.8425ZM35.2646 7.96744L35.4504 8.2034L35.4609 8.19427L35.2646 7.96744ZM38.5813 5.67313L38.7363 5.92998L38.7364 5.92995L38.5813 5.67313ZM78.4062 10.5405L78.6183 10.3284L78.6183 10.3284L78.4062 10.5405ZM87.9139 34.9132L87.7217 35.1436L88.1886 35.5331L88.2136 34.9256L87.9139 34.9132ZM87.2155 34.2971L87.0088 34.5145L87.0109 34.5165L87.2155 34.2971ZM83.5434 34.2971L83.748 34.5165L83.7501 34.5145L83.5434 34.2971ZM83.1849 34.6219V34.9219H83.2982L83.3832 34.8471L83.1849 34.6219ZM71.034 34.6219V34.3219H70.7385L70.734 34.6174L71.034 34.6219ZM70.7324 40.0864L70.9891 40.2416L71.0245 40.1832L71.031 40.1152L70.7324 40.0864ZM70.3434 41.2911L70.0444 41.2663L70.0443 41.2684L70.3434 41.2911ZM68.9131 34.6219L69.2131 34.6266L69.2178 34.3219H68.9131V34.6219ZM67.5418 46.8401L67.3728 47.0879L67.7394 47.3379L67.8348 46.9046L67.5418 46.8401ZM56.4465 34.6219V34.3219H56.1465V34.6219H56.4465ZM56.4465 43.1198H56.1465V43.4057L56.432 43.4195L56.4465 43.1198ZM41.9916 50.5466L42.2797 50.463L42.1426 49.9908L41.7854 50.3287L41.9916 50.5466ZM48.9359 63.3125L48.8727 63.6057L49.9466 63.8373L49.1394 63.0921L48.9359 63.3125ZM37.1164 57.9071L36.8352 57.8026L36.7572 58.0124L36.9362 58.1469L37.1164 57.9071ZM35.3874 56.5085L35.1902 56.7346L35.5059 57.01L35.6649 56.6224L35.3874 56.5085ZM40.2528 49.2806L40.463 49.4946L40.9864 48.9806H40.2528V49.2806ZM29.3154 49.2806V48.9806H28.7836L29.0586 49.4357L29.3154 49.2806ZM68.6997 16.2967L68.4121 16.3821L68.5502 16.8475L68.9047 16.5158L68.6997 16.2967ZM61.8304 3.80962L61.8936 3.51635L60.8193 3.2848L61.627 4.03009L61.8304 3.80962ZM73.5495 9.13798L73.8291 9.24686L73.912 9.03388L73.7287 8.89737L73.5495 9.13798ZM40.629 17.8425V18.1425H41.3893L40.8339 17.6234L40.629 17.8425ZM35.4975 10.52L35.7736 10.4025L35.6126 10.0244L35.3015 10.293L35.4975 10.52ZM29.3154 17.8425L29.0586 17.6873L28.7836 18.1425H29.3154V17.8425ZM37.2217 9.13603L37.0425 8.89544L36.8592 9.03193L36.9421 9.24486L37.2217 9.13603ZM48.9359 3.81059L49.1394 4.03099L49.9463 3.28589L48.8727 3.51733L48.9359 3.81059ZM42.0734 16.2987L41.8684 16.5176L42.2229 16.8497L42.3611 16.384L42.0734 16.2987ZM21.5436 44.4025L21.7557 44.6146L21.9677 44.4026L21.7558 44.1904L21.5436 44.4025ZM21.5416 44.4005L21.3295 44.1884L21.1175 44.4004L21.3294 44.6126L21.5416 44.4005ZM20.0368 38.4065H20.3368V38.1065H20.0368V38.4065ZM20.0368 42.8967V43.1967H20.3368V42.8967H20.0368ZM13.8936 38.4065V38.1065H13.5936V38.4065H13.8936ZM13.8936 42.8967H13.5936V43.1967H13.8936V42.8967ZM17.1099 20.4789L17.408 20.5133L17.4087 20.5066L17.1099 20.4789ZM17.1577 19.9633V19.6633H16.8842L16.859 19.9357L17.1577 19.9633ZM17.1081 20.4935L17.4057 20.5312L16.8105 20.4556L17.1081 20.4935ZM15.1577 24.8024L14.9316 24.6053L14.4994 25.1011L15.1571 25.1024L15.1577 24.8024ZM54.3257 24.8804L54.3251 25.1804L54.6257 25.181V24.8804H54.3257ZM17.1033 20.5305L17.4008 20.5692L17.4008 20.5692L17.1033 20.5305ZM17.1002 20.5559L16.8022 20.5215L17.3978 20.5936L17.1002 20.5559ZM8.99995 27.547L8.99642 27.847L8.99706 27.847L8.99995 27.547ZM12.2163 26.9194L12.2168 26.6194L12.1564 26.6192L12.1007 26.6425L12.2163 26.9194ZM8.75336 27.5412L8.76407 27.2414L8.45336 27.2303V27.5412H8.75336ZM8.75336 30.3189H8.45336V30.6195L8.75396 30.6189L8.75336 30.3189ZM54.3257 30.2273L54.3263 30.5273L54.6257 30.5267V30.2273H54.3257ZM54.3257 26.9924H54.6257V26.693L54.3262 26.6924L54.3257 26.9924ZM13.5515 23.4194L13.7736 23.6211L13.855 23.5315L13.8514 23.4104L13.5515 23.4194ZM13.6451 23.3112L13.3454 23.3238L13.3784 24.1105L13.8772 23.5013L13.6451 23.3112ZM13.7815 23.1446L14.0139 23.3348L14.022 23.3239L13.7815 23.1446ZM13.9531 22.9145L14.1936 23.0939L14.1988 23.0869L14.2036 23.0795L13.9531 22.9145ZM14.1899 22.5549L14.4405 22.7199L14.4445 22.7138L14.4482 22.7075L14.1899 22.5549ZM14.263 22.4311L14.5215 22.5838L14.5267 22.5741L14.263 22.4311ZM14.4004 22.1777L14.6643 22.3208L14.6688 22.3119L14.4004 22.1777ZM14.4326 22.1134L14.701 22.2476L14.7045 22.2403L14.4326 22.1134ZM14.5554 21.8502L14.8274 21.9772L14.8317 21.9672L14.5554 21.8502ZM14.6119 21.7167L14.8882 21.8337L14.8903 21.8285L14.6119 21.7167ZM4.86747 15.2422L4.65533 15.03L4.86747 15.2422ZM7.92004 25.3112L7.98035 25.0173L7.98029 25.0173L7.92004 25.3112ZM9.92391 25.3677L9.9659 25.6648L9.97486 25.6635L9.98372 25.6617L9.92391 25.3677ZM10.652 25.2196L10.7118 25.5136L10.7266 25.5105L10.741 25.5061L10.652 25.2196ZM11.072 25.089L11.1611 25.3754L11.1698 25.3728L11.1783 25.3695L11.072 25.089ZM11.2065 25.0393L11.0962 24.7603L11.3086 25.3214L11.2065 25.0393ZM11.3449 24.9857L11.4512 25.2664L11.4619 25.2619L11.3449 24.9857ZM11.4785 24.9291L11.5955 25.2055L11.602 25.2025L11.4785 24.9291ZM11.61 24.8697L11.7336 25.1432L11.742 25.1391L11.61 24.8697ZM11.805 24.7742L11.9371 25.0438L11.948 25.0379L11.805 24.7742ZM12.0584 24.6367L12.2015 24.9006L12.2109 24.8951L12.0584 24.6367ZM12.1822 24.5636L12.3347 24.822L12.341 24.8182L12.1822 24.5636ZM12.304 24.4876L12.4629 24.7423L12.472 24.7361L12.304 24.4876ZM12.5418 24.3268L12.7099 24.5754L12.7162 24.5709L12.5418 24.3268ZM13.0457 23.9253L12.846 23.7014L12.846 23.7014L13.0457 23.9253ZM13.1519 23.8288L13.3547 24.0499L13.3578 24.047L13.1519 23.8288ZM13.2036 23.78L13.4095 23.9983L13.4157 23.9922L13.2036 23.78ZM13.4063 23.5773L13.6185 23.7895L13.6245 23.7832L13.4063 23.5773ZM13.455 23.5256L13.6733 23.7315L13.6771 23.7274L13.455 23.5256ZM13.0447 23.9253L13.244 24.1495L12.8474 23.6993L13.0447 23.9253ZM11.342 24.9857L11.4566 25.2629L11.2316 24.7067L11.342 24.9857ZM11.0399 16.6456L11.2832 16.8211L11.2833 16.821L11.0399 16.6456ZM12.5145 16.4059L12.6898 16.1624L12.6898 16.1624L12.5145 16.4059ZM8.21244 20.5676L8.0003 20.7797L8.24961 21.029L8.45579 20.743L8.21244 20.5676ZM6.63936 18.9945L6.42723 19.2067L6.42723 19.2067L6.63936 18.9945ZM5.14036 18.9945L5.35225 19.2069L5.3525 19.2067L5.14036 18.9945ZM5.14036 20.4935L4.92823 20.7057L4.92823 20.7057L5.14036 20.4935ZM7.59159 22.9448L7.37946 23.1569L7.63814 23.4156L7.84115 23.1112L7.59159 22.9448ZM7.59354 22.9418L7.80567 22.7297L7.54699 22.471L7.34397 22.7754L7.59354 22.9418ZM9.1978 22.8122L9.44106 22.9878L9.44113 22.9877L9.1978 22.8122ZM12.7543 17.8805L12.9976 18.056L12.9977 18.0558L12.7543 17.8805ZM16.9189 21.4799L17.21 21.5526L16.6289 21.403L16.9189 21.4799ZM16.8975 21.5608L16.6075 21.4839L17.1859 21.6432L16.8975 21.5608ZM54.3257 32.3403L54.6257 32.3403L54.6256 32.0397L54.3251 32.0403L54.3257 32.3403ZM8.75336 32.431L8.75277 32.131L8.45336 32.1315V32.431H8.75336ZM54.3266 45.0292L54.6266 45.0292L54.6266 45.0291L54.3266 45.0292ZM13.0447 23.9253L12.843 23.7032L13.2444 24.1491L13.0447 23.9253ZM13.1509 23.8288L13.3537 24.0499L12.9492 23.6067L13.1509 23.8288ZM13.994 22.8561L13.7435 22.6911L14.2421 23.0248L13.994 22.8561ZM14.0749 22.7372L14.3229 22.9059L13.8272 22.568L14.0749 22.7372ZM14.0512 22.7718L13.804 22.6017L13.804 22.6018L14.0512 22.7718ZM39.0725 44.7262C38.6525 44.7262 38.3121 44.3859 38.3121 43.9658H37.7121C37.7121 44.7173 38.3211 45.3262 39.0725 45.3262V44.7262ZM51.6152 44.7262H39.0725V45.3262H51.6152V44.7262ZM52.3756 43.9658C52.3756 44.3859 52.0353 44.7262 51.6152 44.7262V45.3262C52.3666 45.3262 52.9756 44.7173 52.9756 43.9658H52.3756ZM51.6152 43.2054C52.0353 43.2054 52.3756 43.5458 52.3756 43.9658H52.9756C52.9756 43.2144 52.3666 42.6054 51.6152 42.6054V43.2054ZM39.0725 43.2054H51.6152V42.6054H39.0725V43.2054ZM38.3121 43.9658C38.3121 43.5458 38.6524 43.2054 39.0725 43.2054V42.6054C38.3211 42.6054 37.7121 43.2144 37.7121 43.9658H38.3121ZM54.6257 63.9002V48.7055H54.0257V63.9002H54.6257ZM48.4543 60.0839C50.1784 62.33 52.154 63.8064 54.2715 64.1953L54.3799 63.6051C52.4643 63.2533 50.6056 61.9012 48.9302 59.7186L48.4543 60.0839ZM43.5404 49.3597C44.7419 53.7503 46.4313 57.4463 48.4542 60.0838L48.9303 59.7187C46.9689 57.1614 45.3074 53.5436 44.1191 49.2014L43.5404 49.3597ZM52.1951 48.9806H43.8298V49.5806H52.1951V48.9806ZM54.1747 48.4463C53.5914 48.786 52.9152 48.9806 52.1951 48.9806V49.5806C53.0247 49.5806 53.8047 49.3561 54.4766 48.9648L54.1747 48.4463ZM54.6257 18.4185V3.22288H54.0257V18.4185H54.6257ZM52.1951 18.1425C52.9149 18.1425 53.5911 18.338 54.1747 18.6778L54.4766 18.1593C53.8049 17.7681 53.025 17.5425 52.1951 17.5425V18.1425ZM43.9399 18.1425H52.1951V17.5425H43.9399V18.1425ZM43.6708 18.0171L43.7624 18.0844L44.1174 17.6007L44.0258 17.5334L43.6708 18.0171ZM48.4542 7.03922C46.4411 9.66299 44.7596 13.3344 43.559 17.6956L44.1375 17.8549C45.3248 13.5418 46.9785 9.94824 48.9303 7.40446L48.4542 7.03922ZM54.2715 2.92782C52.154 3.31672 50.1794 4.79207 48.4543 7.03915L48.9302 7.40452C50.6066 5.22088 52.4643 3.86977 54.3799 3.51795L54.2715 2.92782ZM56.1465 3.22288V21.5228H56.7465V3.22288H56.1465ZM65.0178 11.6073C62.789 6.79749 59.8232 3.5333 56.5003 2.92774L56.3927 3.51802C59.4127 4.06838 62.2636 7.09064 64.4734 11.8596L65.0178 11.6073ZM67.2112 17.6947C66.5992 15.4714 65.8618 13.4273 65.0177 11.6072L64.4734 11.8597C65.3018 13.6458 66.0283 15.6582 66.6327 17.8539L67.2112 17.6947ZM56.4625 21.8223C60.4279 21.6105 64.0881 20.2328 67.0998 18.0159L66.7441 17.5327C63.8241 19.6822 60.2758 21.0178 56.4305 21.2232L56.4625 21.8223ZM56.1465 45.2436V63.9002H56.7465V45.2436H56.1465ZM67.1819 48.8108C64.1534 46.5573 60.4596 45.1578 56.4625 44.944L56.4305 45.5432C60.3065 45.7505 63.8875 47.1073 66.8237 49.2922L67.1819 48.8108ZM65.0188 55.5157C65.8992 53.6141 66.665 51.4681 67.2926 49.1293L66.7131 48.9738C66.0932 51.284 65.3385 53.3972 64.4743 55.2636L65.0188 55.5157ZM56.5003 64.1953C59.8232 63.5898 62.79 60.3246 65.0187 55.5158L64.4744 55.2635C62.2646 60.0314 59.4128 63.0547 56.3927 63.605L56.5003 64.1953ZM56.7465 32.5011V23.6465H56.1465V32.5011H56.7465ZM68.9132 32.2021L56.4465 32.2011L56.4465 32.8011L68.9131 32.8021L68.9132 32.2021ZM67.18 20.0404C68.0358 23.816 68.5443 28.036 68.6132 32.5067L69.2131 32.4975C69.1436 27.9879 68.6307 23.7265 67.7652 19.9077L67.18 20.0404ZM56.461 23.9462C60.5887 23.7465 64.4193 22.4015 67.6407 20.2225L67.3045 19.7256C64.1713 21.8448 60.4465 23.1527 56.432 23.3469L56.461 23.9462ZM71.034 32.8011H85.8027V32.2011H71.034V32.8011ZM69.0253 18.648C70.0488 22.8107 70.6583 27.5151 70.734 32.5057L71.3339 32.4966C71.2576 27.4639 70.6429 22.7143 69.608 18.5048L69.0253 18.648ZM74.9967 10.4035C73.681 13.4931 71.655 16.2094 69.1231 18.3472L69.5102 18.8056C72.1127 16.6082 74.1958 13.8158 75.5487 10.6385L74.9967 10.4035ZM86.1025 32.4909C85.8004 23.6717 81.7783 15.7453 75.4688 10.294L75.0765 10.748C81.2639 16.0938 85.2066 23.865 85.5029 32.5114L86.1025 32.4909ZM78.5044 53.8168C79.8851 52.2423 81.1052 50.5281 82.1419 48.6992L81.6199 48.4033C80.6035 50.1964 79.4071 51.8773 78.0533 53.4212L78.5044 53.8168ZM81.599 48.6539C81.7271 49.0057 81.6547 49.4141 81.3836 49.6995L81.8186 50.1127C82.253 49.6554 82.3655 49.0052 82.1628 48.4486L81.599 48.6539ZM81.3876 49.6953L79.7141 51.3896L80.141 51.8113L81.8145 50.1169L81.3876 49.6953ZM79.7141 51.8113L81.2086 53.3244L81.6355 52.9027L80.141 51.3896L79.7141 51.8113ZM79.9976 55.3298C80.5835 54.6686 81.1382 53.9893 81.6617 53.294L81.1824 52.9331C80.6685 53.6157 80.1238 54.2826 79.5485 54.9319L79.9976 55.3298ZM79.9864 54.92L78.4922 53.4082L78.0655 53.8299L79.5597 55.3417L79.9864 54.92ZM69.7662 44.9628C69.57 46.0658 69.3464 47.1397 69.097 48.1805L69.6805 48.3203C69.9327 47.2676 70.1588 46.1822 70.3569 45.0678L69.7662 44.9628ZM69.1943 48.4788C69.3374 48.6006 69.4788 48.7243 69.6186 48.8498L70.0195 48.4034C69.8758 48.2743 69.7303 48.1472 69.5833 48.0219L69.1943 48.4788ZM69.5191 48.6191C69.4925 49.6818 69.5396 50.7423 69.6589 51.7931L70.2551 51.7255C70.1389 50.702 70.093 49.6691 70.1189 48.6341L69.5191 48.6191ZM68.5753 50.7634C68.978 51.145 69.3642 51.5437 69.7327 51.9585L70.1813 51.5601C69.8014 51.1324 69.4032 50.7212 68.9879 50.3278L68.5753 50.7634ZM62.0339 63.533C65.4252 60.4035 67.692 55.3786 69.0697 50.6292L68.4934 50.4621C67.1265 55.1746 64.8983 60.0734 61.627 63.092L62.0339 63.533ZM71.8892 58.7802C68.8523 60.7716 65.4334 62.2288 61.7672 63.0192L61.8936 63.6057C65.6335 62.7994 69.1208 61.313 72.2182 59.282L71.8892 58.7802ZM71.7834 59.1613C71.7921 59.1795 71.8009 59.1977 71.8098 59.2159L72.3496 58.9541C72.3411 58.9364 72.3325 58.9187 72.324 58.901L71.7834 59.1613ZM71.8098 59.2159C72.1156 59.8462 72.4492 60.4602 72.8091 61.0563L73.3227 60.7461C72.9722 60.1657 72.6474 59.5678 72.3496 58.954L71.8098 59.2159ZM38.4262 61.7067C49.3502 68.3038 62.8726 67.8532 73.2289 61.1531L72.903 60.6493C62.7352 67.2275 49.4597 67.669 38.7364 61.1931L38.4262 61.7067ZM26.6094 49.4256C29.4038 54.4843 33.4915 58.7264 38.4262 61.7067L38.7364 61.1931C33.8915 58.2671 29.878 54.102 27.1346 49.1355L26.6094 49.4256ZM10.883 49.5806H26.872V48.9806H10.883V49.5806ZM6.33254 45.0292C6.33254 47.5349 8.37808 49.5806 10.883 49.5806V48.9806C8.70954 48.9806 6.93254 47.2036 6.93254 45.0292H6.33254ZM6.33254 27.1679V45.0292H6.93254V27.1679H6.33254ZM3.15631 13.5301C-1.30504 17.9924 0.598236 25.5636 6.54162 27.4538L6.72346 26.882C1.20506 25.127 -0.560222 18.0961 3.58062 13.9543L3.15631 13.5301ZM17.3055 17.7828C15.9864 11.2882 7.89989 8.7865 3.15633 13.5301L3.5806 13.9543C7.98308 9.55184 15.4928 11.8726 16.7175 17.9022L17.3055 17.7828ZM26.872 17.5425H17.0115V18.1425H26.872V17.5425ZM35.079 7.73173C31.6336 10.4444 28.7438 13.8328 26.6093 17.6975L27.1346 17.9876C29.23 14.1935 32.0673 10.8666 35.4502 8.20315L35.079 7.73173ZM38.4263 5.41628C37.5951 5.91793 35.7844 7.12072 35.0683 7.74061L35.4609 8.19427C36.1365 7.6095 37.9106 6.42831 38.7363 5.92998L38.4263 5.41628ZM78.6183 10.3284C67.9678 -0.322126 51.3732 -2.40085 38.4262 5.41631L38.7364 5.92995C51.4459 -1.74385 67.7377 0.296262 78.194 10.7526L78.6183 10.3284ZM88.2136 34.9256C88.5794 26.0688 85.381 17.0911 78.6183 10.3284L78.194 10.7526C84.8332 17.3918 87.9733 26.2046 87.6142 34.9009L88.2136 34.9256ZM88.1061 34.6829C87.8725 34.488 87.6438 34.2863 87.4201 34.0777L87.0109 34.5165C87.2426 34.7326 87.4797 34.9417 87.7217 35.1436L88.1061 34.6829ZM87.4223 34.0797C86.275 32.9888 84.484 32.9888 83.3367 34.0797L83.7501 34.5145C84.6658 33.6438 86.0932 33.6438 87.0088 34.5145L87.4223 34.0797ZM83.3388 34.0777C83.2228 34.1859 83.1054 34.2923 82.9867 34.3968L83.3832 34.8471C83.5062 34.7388 83.6278 34.6286 83.748 34.5165L83.3388 34.0777ZM83.1849 34.3219H71.034V34.9219H83.1849V34.3219ZM70.734 34.6174C70.7059 36.4748 70.6037 38.2926 70.4338 40.0577L71.031 40.1152C71.2025 38.3338 71.3056 36.4999 71.3339 34.6265L70.734 34.6174ZM70.4757 39.9312C70.2372 40.3257 70.0847 40.7796 70.0444 41.2663L70.6424 41.3158C70.6749 40.9232 70.7977 40.5584 70.9891 40.2416L70.4757 39.9312ZM70.0443 41.2684L69.7624 44.9926L70.3607 45.0379L70.6426 41.3137L70.0443 41.2684ZM68.6132 34.6173C68.5462 38.9658 68.0629 43.0791 67.2488 46.7755L67.8348 46.9046C68.6581 43.1664 69.1456 39.0129 69.2131 34.6266L68.6132 34.6173ZM56.4465 34.9219H68.9131V34.3219H56.4465V34.9219ZM56.7465 43.1198V34.6219H56.1465V43.1198H56.7465ZM67.7108 46.5922C64.4746 44.3856 60.6184 43.0218 56.461 42.8202L56.432 43.4195C60.4752 43.6156 64.2251 44.9417 67.3728 47.0879L67.7108 46.5922ZM41.7035 50.6303C43.1559 55.6334 45.4621 60.5137 48.7324 63.5329L49.1394 63.0921C45.9869 60.1816 43.72 55.4246 42.2797 50.463L41.7035 50.6303ZM37.3976 58.0116C38.4243 55.2491 40.07 52.7771 42.1977 50.7646L41.7854 50.3287C39.5916 52.4038 37.8942 54.9531 36.8352 57.8026L37.3976 58.0116ZM48.9991 63.0192C44.7158 62.0958 40.741 60.2556 37.2966 57.6673L36.9362 58.1469C40.4488 60.7866 44.5032 62.6637 48.8727 63.6057L48.9991 63.0192ZM35.6649 56.6224C36.7643 53.9431 38.406 51.5151 40.463 49.4946L40.0426 49.0665C37.9282 51.1434 36.2404 53.6393 35.1099 56.3946L35.6649 56.6224ZM29.0586 49.4357C30.7151 52.1769 32.7888 54.6393 35.1902 56.7346L35.5846 56.2825C33.2297 54.2277 31.1963 51.813 29.5721 49.1254L29.0586 49.4357ZM40.2528 48.9806H29.3154V49.5806H40.2528V48.9806ZM68.9873 16.2114C67.6046 11.5534 65.361 6.65923 62.0339 3.58914L61.627 4.03009C64.8358 6.99108 67.0405 11.7614 68.4121 16.3821L68.9873 16.2114ZM73.27 9.0291C72.2183 11.7293 70.5735 14.1323 68.4947 16.0777L68.9047 16.5158C71.048 14.51 72.7443 12.032 73.8291 9.24686L73.27 9.0291ZM61.7672 4.10288C66.0428 5.02439 69.98 6.85393 73.3703 9.3786L73.7287 8.89737C70.2712 6.32271 66.2553 4.45641 61.8936 3.51635L61.7672 4.10288ZM40.8339 17.6234C38.6673 15.5981 36.9393 13.1405 35.7736 10.4025L35.2215 10.6375C36.4203 13.4531 38.197 15.9798 40.4242 18.0617L40.8339 17.6234ZM29.3154 18.1425H40.629V17.5425H29.3154V18.1425ZM35.3015 10.293C32.8518 12.408 30.7407 14.9039 29.0586 17.6873L29.5721 17.9977C31.2214 15.2685 33.2915 12.8211 35.6936 10.7471L35.3015 10.293ZM37.4009 9.37663C40.8201 6.82982 44.7601 5.01766 48.9991 4.10385L48.8727 3.51733C44.5485 4.4495 40.5296 6.29808 37.0425 8.89544L37.4009 9.37663ZM42.2785 16.0797C40.1871 14.1208 38.5471 11.7138 37.5012 9.0272L36.9421 9.24486C38.021 12.0162 39.7123 14.4981 41.8684 16.5176L42.2785 16.0797ZM48.7324 3.59019C45.5165 6.55992 43.2365 11.3251 41.7858 16.2133L42.3611 16.384C43.7993 11.5376 46.0396 6.89352 49.1394 4.03099L48.7324 3.59019ZM13.8663 36.5857H20.0641V35.9857H13.8663V36.5857ZM12.0728 38.3782C12.0728 37.3968 12.8838 36.5857 13.8663 36.5857V35.9857C12.5526 35.9857 11.4728 37.0653 11.4728 38.3782H12.0728ZM12.0728 42.923V38.3782H11.4728V42.923H12.0728ZM13.8663 44.7165C12.8794 44.7165 12.0728 43.9068 12.0728 42.923H11.4728C11.4728 44.2374 12.5473 45.3165 13.8663 45.3165V44.7165ZM20.0641 44.7165H13.8663V45.3165H20.0641V44.7165ZM21.3315 44.1903C21.006 44.5158 20.558 44.7165 20.0641 44.7165V45.3165C20.7241 45.3165 21.3229 45.0475 21.7557 44.6146L21.3315 44.1903ZM21.3294 44.6126L21.3314 44.6145L21.7558 44.1904L21.7539 44.1885L21.3294 44.6126ZM21.8576 42.923C21.8576 43.4151 21.6565 43.8614 21.3295 44.1884L21.7538 44.6127C22.187 44.1794 22.4576 43.5829 22.4576 42.923H21.8576ZM21.8576 38.3782V42.923H22.4576V38.3782H21.8576ZM20.0641 36.5857C21.0511 36.5857 21.8576 37.3955 21.8576 38.3782H22.4576C22.4576 37.0647 21.383 35.9857 20.0641 35.9857V36.5857ZM19.7368 38.4065V42.8967H20.3368V38.4065H19.7368ZM13.8936 38.7065H20.0368V38.1065H13.8936V38.7065ZM14.1936 42.8967V38.4065H13.5936V42.8967H14.1936ZM20.0368 42.5967H13.8936V43.1967H20.0368V42.5967ZM17.4087 20.5066L17.4564 19.991L16.859 19.9357L16.8112 20.4512L17.4087 20.5066ZM16.8119 20.4445C16.8108 20.4543 16.8094 20.4647 16.8077 20.478L17.4025 20.5566C17.4041 20.5441 17.4062 20.5288 17.408 20.5133L16.8119 20.4445ZM17.4027 20.555L17.4057 20.5312L16.8105 20.4559L16.8075 20.4796L17.4027 20.555ZM15.3839 24.9995C16.4905 23.73 17.192 22.2075 17.4057 20.5315L16.8105 20.4556C16.6123 22.0097 15.9627 23.4223 14.9316 24.6053L15.3839 24.9995ZM54.3263 24.5804L15.1583 24.5024L15.1571 25.1024L54.3251 25.1804L54.3263 24.5804ZM54.0257 22.0939V24.8804H54.6257V22.0939H54.0257ZM52.1951 20.2633C53.199 20.2633 54.0257 21.09 54.0257 22.0939H54.6257C54.6257 20.7586 53.5304 19.6633 52.1951 19.6633V20.2633ZM17.1577 20.2633H52.1951V19.6633H17.1577V20.2633ZM16.8077 20.478C16.8071 20.4823 16.8065 20.4871 16.8059 20.4918L17.4008 20.5692C17.4014 20.5652 17.4019 20.5611 17.4025 20.5566L16.8077 20.478ZM16.8059 20.4918C16.8047 20.5009 16.8034 20.511 16.8022 20.5215L17.3982 20.5903C17.3989 20.584 17.3998 20.5772 17.4008 20.5692L16.8059 20.4918ZM17.3978 20.5936L17.4027 20.555L16.8075 20.4796L16.8026 20.5182L17.3978 20.5936ZM8.99706 27.847C10.1516 27.8581 11.265 27.6417 12.3319 27.1962L12.1007 26.6425C11.1091 27.0566 10.0764 27.2574 9.00283 27.247L8.99706 27.847ZM8.74265 27.841C8.82692 27.844 8.91119 27.846 8.99642 27.847L9.00348 27.247C8.92302 27.2461 8.84354 27.2442 8.76407 27.2414L8.74265 27.841ZM9.05336 30.3189V27.5412H8.45336V30.3189H9.05336ZM54.3251 29.9273L8.75276 30.0189L8.75396 30.6189L54.3263 30.5273L54.3251 29.9273ZM54.0257 26.9924V30.2273H54.6257V26.9924H54.0257ZM12.2157 27.2194L54.3252 27.2924L54.3262 26.6924L12.2168 26.6194L12.2157 27.2194ZM13.0061 15.2512L13.2517 23.4284L13.8514 23.4104L13.6058 15.2332L13.0061 15.2512ZM13.9448 23.2986L13.6057 15.2296L13.0062 15.2548L13.3454 23.3238L13.9448 23.2986ZM13.5494 22.9545L13.413 23.1212L13.8772 23.5013L14.0137 23.3346L13.5494 22.9545ZM13.7126 22.7352L13.5411 22.9652L14.022 23.3239L14.1936 23.0939L13.7126 22.7352ZM13.9394 22.3899L13.7025 22.7496L14.2036 23.0795L14.4405 22.7199L13.9394 22.3899ZM14.0047 22.2786L13.9316 22.4024L14.4482 22.7075L14.5213 22.5837L14.0047 22.2786ZM14.1367 22.0347L13.9993 22.2881L14.5267 22.5741L14.6642 22.3207L14.1367 22.0347ZM14.1643 21.9792L14.1321 22.0435L14.6688 22.3119L14.7009 22.2476L14.1643 21.9792ZM14.2836 21.7234L14.1607 21.9865L14.7045 22.2403L14.8273 21.9771L14.2836 21.7234ZM14.3357 21.5998L14.2791 21.7333L14.8317 21.9672L14.8882 21.8337L14.3357 21.5998ZM13.0938 15.4543C14.7436 17.1041 15.1744 19.5107 14.3335 21.6049L14.8903 21.8285C15.8175 19.5193 15.3438 16.8558 13.518 15.03L13.0938 15.4543ZM5.0796 15.4543C7.29281 13.2411 10.8806 13.2411 13.0938 15.4543L13.518 15.03C11.0705 12.5825 7.10286 12.5825 4.65533 15.03L5.0796 15.4543ZM7.98029 25.0173C3.50389 24.0996 1.90877 18.6251 5.0796 15.4543L4.65533 15.03C1.14792 18.5375 2.91336 24.591 7.85979 25.6051L7.98029 25.0173ZM9.88191 25.0707C9.25962 25.1586 8.5818 25.1407 7.98035 25.0173L7.85974 25.6051C8.53117 25.7428 9.27828 25.762 9.9659 25.6648L9.88191 25.0707ZM10.5921 24.9256L9.86409 25.0737L9.98372 25.6617L10.7118 25.5136L10.5921 24.9256ZM10.983 24.8025L10.5629 24.9331L10.741 25.5061L11.1611 25.3754L10.983 24.8025ZM11.1711 24.7307L10.9658 24.8084L11.1783 25.3695L11.3836 25.2918L11.1711 24.7307ZM11.3169 25.3182L11.3877 25.2902L11.167 24.7323L11.0962 24.7603L11.3169 25.3182ZM11.1951 24.7217C11.1625 24.7351 11.1331 24.7468 11.1045 24.7572L11.3086 25.3214C11.3491 25.3067 11.3876 25.2913 11.4227 25.2769L11.1951 24.7217ZM11.2387 24.7051L11.2027 24.7187L11.4151 25.2799L11.4511 25.2662L11.2387 24.7051ZM11.3615 24.6529L11.228 24.7094L11.4619 25.2619L11.5954 25.2054L11.3615 24.6529ZM11.4865 24.5963L11.3549 24.6557L11.602 25.2025L11.7336 25.1431L11.4865 24.5963ZM11.673 24.5048L11.478 24.6003L11.742 25.1391L11.937 25.0436L11.673 24.5048ZM11.9154 24.373L11.6619 24.5105L11.948 25.0379L12.2014 24.9005L11.9154 24.373ZM12.0296 24.3053L11.9058 24.3784L12.2109 24.8951L12.3347 24.822L12.0296 24.3053ZM12.1452 24.2331L12.0233 24.3091L12.341 24.8182L12.4628 24.7421L12.1452 24.2331ZM12.3737 24.0783L12.1359 24.2391L12.472 24.7361L12.7098 24.5753L12.3737 24.0783ZM12.7436 23.7899C12.6223 23.8927 12.4972 23.99 12.3674 24.0827L12.7162 24.5709C12.8593 24.4687 12.9974 24.3613 13.1314 24.2477L12.7436 23.7899ZM12.846 23.7014C12.8122 23.7315 12.7785 23.7607 12.7448 23.7889L13.1302 24.2488C13.1687 24.2165 13.2071 24.1833 13.2454 24.1491L12.846 23.7014ZM12.9492 23.6076C12.9139 23.64 12.8803 23.6708 12.846 23.7014L13.2454 24.1491C13.2832 24.1154 13.3198 24.0819 13.3546 24.0499L12.9492 23.6076ZM12.9977 23.5618L12.9461 23.6105L13.3578 24.047L13.4094 23.9983L12.9977 23.5618ZM13.1942 23.3652L12.9914 23.5679L13.4157 23.9922L13.6184 23.7894L13.1942 23.3652ZM13.2368 23.3198L13.1881 23.3714L13.6245 23.7832L13.6733 23.7315L13.2368 23.3198ZM13.3295 23.2177L13.233 23.3239L13.6771 23.7274L13.7736 23.6211L13.3295 23.2177ZM12.8454 23.7011C12.8098 23.7326 12.7777 23.7612 12.7443 23.7893L13.1307 24.2483C13.1713 24.2141 13.2093 24.1803 13.244 24.1495L12.8454 23.7011ZM13.1348 24.2448L13.2419 24.1513L12.8474 23.6993L12.7402 23.7928L13.1348 24.2448ZM11.2275 24.7084C11.2164 24.713 11.2057 24.7174 11.1951 24.7217L11.4227 25.2769C11.4342 25.2722 11.4456 25.2675 11.4566 25.2629L11.2275 24.7084ZM11.3877 25.2902L11.4524 25.2646L11.2316 24.7067L11.167 24.7323L11.3877 25.2902ZM11.2027 24.7187L11.1711 24.7307L11.3836 25.2918L11.4151 25.2799L11.2027 24.7187ZM11.2833 16.821C11.5276 16.4818 11.9999 16.405 12.3392 16.6493L12.6898 16.1624C12.0818 15.7245 11.2344 15.8622 10.7964 16.4703L11.2833 16.821ZM8.45579 20.743L11.2832 16.8211L10.7965 16.4702L7.96908 20.3922L8.45579 20.743ZM6.42723 19.2067L8.0003 20.7797L8.42457 20.3555L6.8515 18.7824L6.42723 19.2067ZM5.3525 19.2067C5.64956 18.9096 6.13017 18.9096 6.42723 19.2067L6.8515 18.7824C6.32012 18.251 5.45961 18.251 4.92823 18.7824L5.3525 19.2067ZM5.3525 20.2814C5.05529 19.9842 5.05565 19.5028 5.35225 19.2069L4.92848 18.7822C4.39663 19.3128 4.39699 20.1744 4.92823 20.7057L5.3525 20.2814ZM7.80372 22.7326L5.3525 20.2814L4.92823 20.7057L7.37946 23.1569L7.80372 22.7326ZM7.34397 22.7754L7.34202 22.7783L7.84115 23.1112L7.8431 23.1083L7.34397 22.7754ZM8.95454 22.6366C8.68378 23.0118 8.13045 23.0545 7.80567 22.7297L7.38141 23.154C7.96694 23.7395 8.95355 23.6633 9.44106 22.9878L8.95454 22.6366ZM12.5109 17.705L8.95447 22.6367L9.44113 22.9877L12.9976 18.056L12.5109 17.705ZM12.3392 16.6493C12.6784 16.8936 12.7552 17.3659 12.5108 17.7052L12.9977 18.0558C13.4356 17.4478 13.298 16.6004 12.6898 16.1624L12.3392 16.6493ZM16.6279 21.4071C16.6214 21.4328 16.6155 21.4556 16.609 21.4784L17.1859 21.6432C17.195 21.6114 17.2027 21.5815 17.21 21.5526L16.6279 21.4071ZM17.1875 21.6376L17.2089 21.5567L16.6289 21.403L16.6075 21.4839L17.1875 21.6376ZM54.3251 32.0403L8.75277 32.131L8.75396 32.7309L54.3263 32.6403L54.3251 32.0403ZM54.6266 45.0291L54.6257 32.3403L54.0257 32.3403L54.0266 45.0292L54.6266 45.0291ZM52.1961 47.4597C53.5313 47.4597 54.6266 46.3644 54.6266 45.0292H54.0266C54.0266 46.0331 53.2 46.8597 52.1961 46.8597V47.4597ZM10.8839 47.4597H52.1961V46.8597H10.8839V47.4597ZM8.45336 45.0292C8.45336 46.3644 9.54867 47.4597 10.8839 47.4597V46.8597C9.88004 46.8597 9.05336 46.0331 9.05336 45.0292H8.45336ZM8.45336 32.431V45.0292H9.05336V32.431H8.45336ZM13.2464 24.1473L13.3526 24.0508L12.9492 23.6067L12.843 23.7032L13.2464 24.1473ZM12.9482 23.6076C12.9129 23.64 12.8793 23.6708 12.845 23.7014L13.2444 24.1491C13.2822 24.1154 13.3188 24.0819 13.3537 24.0499L12.9482 23.6076ZM14.2421 23.0248L14.3229 22.9059L13.8269 22.5684L13.746 22.6873L14.2421 23.0248ZM13.804 22.6018C13.785 22.6294 13.7641 22.6598 13.7435 22.6911L14.2446 23.0211C14.2613 22.9956 14.2788 22.9703 14.2984 22.9417L13.804 22.6018ZM13.8272 22.568C13.8196 22.5791 13.8119 22.5902 13.804 22.6017L14.2983 22.9418C14.3062 22.9304 14.3144 22.9184 14.3226 22.9064L13.8272 22.568ZM41.4448 41.3803C41.0247 41.3803 40.6844 41.04 40.6844 40.6199H40.0844C40.0844 41.3713 40.6934 41.9803 41.4448 41.9803V41.3803ZM51.6152 41.3803H41.4448V41.9803H51.6152V41.3803ZM52.3756 40.6199C52.3756 41.04 52.0353 41.3803 51.6152 41.3803V41.9803C52.3666 41.9803 52.9756 41.3713 52.9756 40.6199H52.3756ZM51.6152 39.8595C52.0353 39.8595 52.3756 40.1998 52.3756 40.6199H52.9756C52.9756 39.8684 52.3666 39.2595 51.6152 39.2595V39.8595ZM41.4448 39.8595H51.6152V39.2595H41.4448V39.8595ZM40.6844 40.6199C40.6844 40.1998 41.0247 39.8595 41.4448 39.8595V39.2595C40.6934 39.2595 40.0844 39.8684 40.0844 40.6199H40.6844Z" fill="#3C7CFF" mask="url(#path-1-outside-1_192_1328)"/>
<path d="M100.9 49.1205L100.506 43.9362C100.411 42.7964 99.499 41.8996 98.3639 41.8287C95.0184 41.6867 91.8318 40.3572 89.3689 38.0764C88.4986 37.2546 87.1408 37.2546 86.2705 38.0764C83.8076 40.3573 80.621 41.6868 77.2755 41.8287C76.1405 41.8996 75.2281 42.7964 75.133 43.9362L74.7379 49.1205H74.7393C74.484 52.4701 75.1249 55.8279 76.598 58.8446C78.0712 61.8599 80.3196 64.4248 83.1124 66.2716C92.8745 72.189 102.063 58.0189 100.9 49.1205ZM84.6317 53.9934C85.0404 54.422 85.035 55.1018 84.6154 55.5222C84.1972 55.9426 83.5211 55.9494 83.0947 55.5372L80.9142 53.3464C80.4947 52.9178 80.4947 52.2298 80.9142 51.8012L83.0947 49.6104C83.5211 49.1982 84.1972 49.205 84.6168 49.6254C85.0349 50.0458 85.0417 50.7256 84.6317 51.1542L83.2196 52.5738L84.6317 53.9934ZM89.9173 49.5723L87.7898 56.2431C87.5997 56.8095 86.9941 57.1167 86.4279 56.9351C85.8631 56.7522 85.5482 56.1475 85.7219 55.5756L87.8495 48.9048C88.0396 48.3397 88.6451 48.0326 89.21 48.2155C89.7748 48.397 90.0897 49.0017 89.9173 49.5723ZM94.7236 53.3466L92.5431 55.5374H92.5445C92.3408 55.7435 92.0639 55.8595 91.7747 55.8595C91.4868 55.8609 91.2099 55.7448 91.0049 55.5401C90.8012 55.3353 90.6872 55.0569 90.6872 54.7662C90.6885 54.4754 90.8039 54.1983 91.0076 53.9936L92.4196 52.574L91.0076 51.1544C90.5989 50.7258 90.6043 50.046 91.0239 49.6256C91.442 49.2052 92.1182 49.1984 92.5445 49.6106L94.725 51.8014C95.1446 52.23 95.1446 52.918 94.725 53.3466L94.7236 53.3466Z" fill="#3C7CFF"/>
</svg>
