<svg width="115" height="102" viewBox="0 0 115 102" fill="none" xmlns="http://www.w3.org/2000/svg">
<path d="M24.7353 16.9958L16.3302 25.401L12.761 21.8318C12.0822 21.1236 10.967 21.1096 10.2597 21.7869C9.55071 22.4657 9.53647 23.5814 10.214 24.289L10.2139 24.289L10.2155 24.2905L10.2368 24.3119L10.2581 24.3332L15.0791 29.1542L15.079 29.1543L15.0824 29.1573C15.4273 29.4722 15.8778 29.6528 16.3444 29.6528C16.8109 29.6528 17.2632 29.4722 17.5955 29.14L27.2375 19.498C27.9307 18.8048 27.9307 17.6891 27.2375 16.9958C26.5442 16.3026 25.4285 16.3026 24.7353 16.9958Z" fill="#3C7CFF" stroke="#3C7CFF" stroke-width="0.2"/>
<path d="M97.8604 52.549C98.8346 52.549 99.6243 51.7593 99.6243 50.7851C99.6243 49.8109 98.8346 49.0212 97.8604 49.0212C96.8863 49.0212 96.0965 49.8109 96.0965 50.7851C96.0965 51.7593 96.8863 52.549 97.8604 52.549Z" fill="#3C7CFF" stroke="#3C7CFF" stroke-width="0.2"/>
<path d="M104.672 59.692V38.8996C97.7434 38.0652 92.2636 32.5998 91.443 25.6708H35.7625C34.9041 28.897 33.4839 31.9536 31.5434 34.6732C28.6182 38.8398 24.4675 42.4191 19.5918 45.0423C19.0645 45.3285 18.4457 45.3284 17.9184 45.0422L104.672 59.692ZM104.672 59.692C102.643 57.9204 100.029 56.9423 97.3202 56.9423H94.6466H94.6464C88.4622 56.9566 83.4398 61.9643 83.4398 68.149V73.3613C81.7918 73.7822 80.3099 74.6792 79.1939 75.9463C79.0784 75.9244 78.9627 75.9133 78.8468 75.9133H24.3123C23.4919 68.9844 18.0263 63.5048 11.0833 62.6843L104.672 59.692ZM104.644 30.5766C104.629 27.8583 102.441 25.6708 99.7378 25.6708L94.9762 25.6846C95.76 30.6683 99.6608 34.5824 104.644 35.3527L104.644 30.5771L104.644 30.5766ZM104.644 30.5766H104.744M99.752 22.143H36.4241C36.544 21.1376 36.6103 20.1196 36.6103 19.1143V10.7523C36.6103 9.92371 36.0379 9.20013 35.2237 9.0192L35.2235 9.01917C32.2026 8.35259 29.2672 7.30316 26.5308 5.87111L26.5306 5.87102C24.1346 4.62342 21.9084 3.0921 19.8661 1.33355C19.2166 0.759999 18.2377 0.761315 17.5755 1.30309L17.5749 1.30361C15.9721 2.63689 14.2559 3.84246 12.4548 4.89196C9.27771 6.73578 5.84547 8.11153 2.25729 8.96253C1.45677 9.14404 0.9 9.86825 0.9 10.6812V19.1001C0.9 24.5828 2.65622 29.9641 5.98096 34.673C6.47393 35.3772 7.0081 36.053 7.55552 36.7136V71.0075C7.55552 75.6561 11.3261 79.4411 15.9891 79.4411H77.3368C77.1594 80.1229 77.083 80.8269 77.083 81.517V92.6664C77.083 97.3149 80.8536 101.1 85.5166 101.1H106.422C111.07 101.1 114.855 97.3294 114.855 92.6664V81.517V81.5166C114.841 77.6714 112.243 74.323 108.513 73.3615V68.149C108.513 66.7774 108.262 65.4335 107.774 64.1589C108.036 63.8479 108.186 63.4456 108.186 63.0294V30.5766C108.186 25.928 104.415 22.143 99.752 22.143ZM8.8609 32.624L8.86065 32.6236C5.95663 28.5155 4.44198 23.8425 4.44198 19.1001V12.0516C7.86534 11.1112 11.1617 9.73523 14.2334 7.93753C15.7791 7.0382 17.2692 6.02823 18.69 4.93498C20.626 6.48303 22.7153 7.84925 24.9165 8.99216C27.5172 10.3491 30.2579 11.3976 33.0968 12.138V19.1001C33.0968 23.8422 31.5681 28.5153 28.6781 32.6236C26.2229 36.0948 22.8106 39.1323 18.7762 41.4545C14.7139 39.1464 11.3019 36.1091 8.8609 32.624Z" fill="#3C7CFF" stroke="#3C7CFF" stroke-width="0.2"/>
<path d="M95.9694 80.3077C93.8237 80.2791 92.0726 82.0017 92.0579 84.1471C92.0579 84.1471 92.0579 84.1471 92.0579 84.1472L92.1579 84.1479M95.9694 80.3077L94.2053 91.8842C94.2053 92.8638 94.9896 93.6481 95.9692 93.6481C96.9488 93.6481 97.7331 92.8638 97.7331 91.8842V87.6519M95.9694 80.3077C97.4723 80.2936 98.8586 81.1545 99.501 82.5122L95.9694 80.3077ZM92.1579 84.1479C92.1437 85.6127 92.9827 86.9637 94.3053 87.5894M92.1579 84.1479C92.1721 82.0574 93.8787 80.3793 95.9692 80.4077C97.434 80.3935 98.785 81.2325 99.4107 82.5551M92.1579 84.1479L99.4107 82.5551M94.3053 87.5894H94.2053V87.6521C94.2243 87.6615 94.2434 87.6707 94.2625 87.6798L94.3053 87.5894ZM94.3053 87.5894V91.8842C94.3053 92.8086 95.0448 93.5481 95.9692 93.5481C96.8936 93.5481 97.6331 92.8086 97.6331 91.8842V87.5894M97.6331 87.5894L97.6761 87.6797C97.6952 87.6706 97.7142 87.6613 97.7331 87.6519M97.6331 87.5894C99.5103 86.6935 100.307 84.4323 99.4107 82.5551M97.6331 87.5894H97.7331V87.6519M97.7331 87.6519L99.4107 82.5551" fill="#3C7CFF" stroke="#3C7CFF" stroke-width="0.2"/>
<path d="M35.5431 50.785C35.5431 38.4711 45.5427 28.4715 57.8707 28.4715C57.8707 28.4715 57.8708 28.4715 57.8708 28.4715V28.5715L35.5431 50.785ZM35.5431 50.785C35.5431 63.1131 45.5426 73.1127 57.8566 73.1127M35.5431 50.785L57.8566 73.1127M57.8566 73.1127C70.1847 73.1127 80.1843 63.1132 80.1843 50.7992M57.8566 73.1127L80.1843 50.7992M80.1843 50.7992C80.1843 44.8851 77.8273 39.1996 73.6418 35.0141L80.1843 50.7992ZM71.1541 64.0677L71.1538 64.068C63.812 71.4098 51.9154 71.4097 44.5879 64.0681C37.2601 56.7262 37.2462 44.8295 44.5877 37.5021C51.9296 30.1743 63.8263 30.1604 71.1537 37.5019L71.1538 37.502C74.6761 41.0243 76.6566 45.8057 76.6566 50.785V50.7853C76.6707 55.7787 74.6903 60.5598 71.1541 64.0677Z" fill="#3C7CFF" stroke="#3C7CFF" stroke-width="0.2"/>
<path d="M66.6595 40.7448C66.6168 39.8062 65.8773 39.0667 64.953 39.0667V38.9667H50.7886C49.809 38.9667 49.0248 39.7509 49.0248 40.7305C49.0248 41.7101 49.809 42.4944 50.7886 42.4944H55.7376C57.3955 42.4944 58.8833 43.4621 59.5668 44.9538H50.7886C49.809 44.9538 49.0248 45.7381 49.0248 46.7177C49.0248 47.6973 49.809 48.4815 50.7886 48.4815H59.5667C58.8826 49.973 57.3818 50.9409 55.7376 50.9409H50.7744H50.6891H50.618H50.6081L50.5984 50.9428L50.5288 50.9568L50.4451 50.9707L50.4374 50.972L50.4299 50.9745L50.3909 50.9875L50.2928 51.012H50.2909H50.2747L50.2593 51.0171L50.1313 51.0598L50.1245 51.062L50.1182 51.0652L50.0639 51.0924L49.9671 51.1339L49.9667 51.133L49.955 51.14L49.8839 51.1827L49.8839 51.1827L49.8128 51.2254L49.8125 51.2249L49.8043 51.2311L49.7531 51.2695C49.7289 51.2835 49.7116 51.3009 49.7028 51.3098C49.7022 51.3104 49.7016 51.311 49.7011 51.3115C49.694 51.3186 49.6911 51.3212 49.6904 51.3218C49.6776 51.3283 49.6659 51.3358 49.6552 51.3448C49.644 51.3543 49.6358 51.3638 49.6296 51.372C49.6267 51.3758 49.6244 51.3793 49.6228 51.3815L49.6206 51.3849L49.5518 51.4537L49.5091 51.4964L49.5087 51.4959L49.5017 51.5046L49.4449 51.5757L49.4448 51.5757L49.443 51.5782L49.4003 51.6351L49.3999 51.6348L49.3945 51.6436L49.3519 51.7147L49.3516 51.7146L49.3482 51.7215C49.3441 51.7295 49.3402 51.7356 49.3331 51.7463L49.3325 51.7471C49.3254 51.7577 49.3154 51.7727 49.3055 51.7926C49.3015 51.8006 49.2975 51.8067 49.2904 51.8174L49.2899 51.8182C49.2828 51.8288 49.2728 51.8438 49.2629 51.8637C49.2588 51.8717 49.2549 51.8778 49.2478 51.8885L49.2472 51.8893C49.2401 51.8999 49.2301 51.9149 49.2202 51.9348C49.2181 51.939 49.2158 51.943 49.2126 51.9486L49.2117 51.9501C49.2089 51.955 49.2045 51.9625 49.2006 51.9703C49.1932 51.9852 49.1863 52.0031 49.1831 52.0247C49.1781 52.0366 49.1748 52.0464 49.1723 52.0539L49.1721 52.0545C49.1688 52.0645 49.167 52.0695 49.1633 52.077C49.1512 52.1012 49.1454 52.1247 49.142 52.1381L49.1415 52.1401C49.1377 52.1555 49.1363 52.1593 49.1349 52.1623L49.1243 52.1834V52.207C49.1243 52.2069 49.1243 52.2069 49.1243 52.2069C49.1243 52.2069 49.124 52.2101 49.121 52.2205C49.1208 52.2213 49.1205 52.2225 49.12 52.2239C49.1187 52.2283 49.1168 52.2349 49.1155 52.2398C49.1143 52.2444 49.1118 52.2544 49.1106 52.2666L49.0972 52.347L49.0959 52.3552V52.3635V52.3636V52.3638V52.364V52.3641V52.3643V52.3645V52.3646V52.3648V52.365V52.3651V52.3653V52.3655V52.3656V52.3658V52.366V52.3661V52.3663V52.3665V52.3666V52.3668V52.367V52.3671V52.3673V52.3675V52.3676V52.3678V52.368V52.3681V52.3683V52.3685V52.3686V52.3688V52.369V52.3691V52.3693V52.3695V52.3696V52.3698V52.37V52.3701V52.3703V52.3705V52.3706V52.3708V52.371V52.3711V52.3713V52.3715V52.3716V52.3718V52.372V52.3721V52.3723V52.3725V52.3726V52.3728V52.373V52.3731V52.3733V52.3735V52.3736V52.3738V52.374V52.3741V52.3743V52.3745V52.3746V52.3748V52.375V52.3751V52.3753V52.3755V52.3756V52.3758V52.376V52.3761V52.3763V52.3765V52.3766V52.3768V52.377V52.3771V52.3773V52.3775V52.3776V52.3778V52.378V52.3781V52.3783V52.3785V52.3786V52.3788V52.379V52.3791V52.3793V52.3795V52.3796V52.3798V52.38V52.3801V52.3803V52.3805V52.3806V52.3808V52.381V52.3811V52.3813V52.3815V52.3816V52.3818V52.382V52.3821V52.3823V52.3825V52.3826V52.3828V52.383V52.3831V52.3833V52.3835V52.3836V52.3838V52.384V52.3841V52.3843V52.3845V52.3846V52.3848V52.385V52.3851V52.3853V52.3855V52.3856V52.3858V52.386V52.3861V52.3863V52.3865V52.3866V52.3868V52.387V52.3871V52.3873V52.3875V52.3876V52.3878V52.388V52.3881V52.3883V52.3885V52.3886V52.3888V52.389V52.3891V52.3893V52.3895V52.3896V52.3898V52.39V52.3901V52.3903V52.3905V52.3906V52.3908V52.391V52.3911V52.3913V52.3915V52.3916V52.3918V52.392V52.3921V52.3923V52.3925V52.3926V52.3928V52.393V52.3931V52.3933V52.3935V52.3936V52.3938V52.394V52.3941V52.3943V52.3945V52.3946V52.3948V52.395V52.3951V52.3953V52.3955V52.3956V52.3958V52.396V52.3961V52.3963V52.3965V52.3966V52.3968V52.397V52.3971V52.3973V52.3975V52.3976V52.3978V52.398V52.3981V52.3983V52.3985V52.3986V52.3988V52.399V52.3991V52.3993V52.3995V52.3996V52.3998V52.4V52.4001V52.4003V52.4005V52.4006V52.4008V52.401V52.4011V52.4013V52.4015V52.4016V52.4018V52.402V52.4021V52.4023V52.4025V52.4026V52.4028V52.403V52.4031V52.4033V52.4035V52.4036V52.4038V52.404V52.4041V52.4043V52.4045V52.4046V52.4048V52.405V52.4051V52.4053V52.4055V52.4056V52.4058V52.406V52.4061V52.4063V52.4065V52.4066V52.4068V52.407V52.4071V52.4073V52.4075V52.4076V52.4078V52.408V52.4081V52.4083V52.4085V52.4086V52.4088V52.409V52.4091V52.4093V52.4095V52.4096V52.4098V52.41V52.4101V52.4103V52.4105V52.4106V52.4108V52.411V52.4111V52.4113V52.4115V52.4116V52.4118V52.412V52.4121V52.4123V52.4125V52.4126V52.4128V52.413V52.4131V52.4133V52.4135V52.4136V52.4138V52.414V52.4141V52.4143V52.4145V52.4146V52.4148V52.415V52.4151V52.4153V52.4155V52.4156V52.4158V52.416V52.4161V52.4163V52.4165V52.4166V52.4168V52.417V52.4171V52.4173V52.4175V52.4176V52.4178V52.418V52.4181V52.4183V52.4185V52.4186V52.4188V52.419V52.4191V52.4193V52.4195V52.4196V52.4198V52.42V52.4201V52.4203V52.4205V52.4206V52.4208V52.421V52.4211V52.4213V52.4215V52.4216V52.4218V52.422V52.4221V52.4223V52.4225V52.4226V52.4228V52.423V52.4231V52.4233V52.4235V52.4236V52.4238V52.424V52.4241V52.4243V52.4245V52.4246V52.4248V52.425V52.4251V52.4253V52.4255V52.4256V52.4258V52.426V52.4261V52.4263V52.4265V52.4266V52.4268V52.427V52.4271V52.4273V52.4275V52.4276V52.4278V52.428V52.4281V52.4283V52.4285V52.4286V52.4288V52.429V52.4291V52.4293V52.4295V52.4296V52.4298V52.43V52.4301V52.4303V52.4305V52.4306V52.4308V52.431V52.4311V52.4313V52.4315V52.4316V52.4318V52.432V52.4321V52.4323V52.4325V52.4326V52.4328V52.433V52.4331V52.4333V52.4335V52.4336V52.4338V52.434V52.4341V52.4343V52.4345V52.4346V52.4348V52.435V52.4351V52.4353V52.4355V52.4356V52.4358V52.436V52.4361V52.4363V52.4365V52.4366V52.4368V52.437V52.4371V52.4373V52.4375V52.4376V52.4378V52.438V52.4381V52.4383V52.4385V52.4386V52.4388V52.439V52.4391V52.4393V52.4395V52.4396V52.4398V52.44V52.4401V52.4403V52.4405V52.4406V52.4408V52.441V52.4411V52.4413V52.4415V52.4416V52.4418V52.442V52.4421V52.4423V52.4425V52.4426V52.4428V52.443V52.4431V52.4433V52.4435V52.4436V52.4438V52.444V52.4441V52.4443V52.4445V52.4446V52.4448V52.445V52.4451V52.4453V52.4455V52.4456V52.4458V52.446V52.4461V52.4463V52.4465V52.4466V52.4468V52.447V52.4471V52.4473V52.4475V52.4476V52.4478V52.448V52.4481V52.4483V52.4485V52.4486V52.4488C49.0959 52.4798 49.0944 52.485 49.0922 52.4894C49.0721 52.5296 49.0743 52.5672 49.0771 52.5892C49.078 52.5961 49.0795 52.6054 49.0803 52.6104C49.0806 52.6119 49.0807 52.6129 49.0808 52.6136C49.0815 52.6179 49.0816 52.6195 49.0816 52.6197V52.6198V52.62V52.6201V52.6203V52.6204V52.6206V52.6208V52.6209V52.6211V52.6213V52.6214V52.6216V52.6218V52.6219V52.6221V52.6222V52.6224V52.6226V52.6227V52.6229V52.623V52.6232V52.6234V52.6235V52.6237V52.6238V52.624V52.6242V52.6243V52.6245V52.6246V52.6248V52.6249V52.6251V52.6252V52.6254V52.6256V52.6257V52.6259V52.626V52.6262V52.6263V52.6265V52.6266V52.6268V52.6269V52.6271V52.6272V52.6274V52.6275V52.6277V52.6278V52.628V52.6281V52.6283V52.6284V52.6286V52.6287V52.6289V52.629V52.6292V52.6293V52.6295V52.6296V52.6298V52.6299V52.6301V52.6302V52.6304V52.6305V52.6306V52.6308V52.6309V52.6311V52.6312V52.6314V52.6315V52.6317V52.6318V52.6319V52.6321V52.6322V52.6324V52.6325V52.6326V52.6328V52.6329V52.6331V52.6332V52.6333V52.6335V52.6336V52.6338V52.6339V52.634V52.6342V52.6343V52.6345V52.6346V52.6347V52.6349V52.635V52.6351V52.6353V52.6354V52.6356V52.6357V52.6358V52.636V52.6361V52.6362V52.6364V52.6365V52.6366V52.6368V52.6369V52.637V52.6372V52.6373V52.6374V52.6376V52.6377V52.6378V52.6379V52.6381V52.6382V52.6383V52.6385V52.6386V52.6387V52.6389V52.639V52.6391V52.6392V52.6394V52.6395V52.6396V52.6398V52.6399V52.64V52.6401V52.6403V52.6404V52.6405V52.6406V52.6408V52.6409V52.641V52.6411V52.6413V52.6414V52.6415V52.6416V52.6418V52.6419V52.642V52.6421V52.6423V52.6424V52.6425V52.6426V52.6428V52.6429V52.643V52.6431V52.6432V52.6434V52.6435V52.6436V52.6437V52.6438V52.644V52.6441V52.6442V52.6443V52.6444V52.6446V52.6447V52.6448V52.6449V52.645V52.6451V52.6453V52.6454V52.6455V52.6456V52.6457V52.6459V52.646V52.6461V52.6462V52.6463V52.6464V52.6465V52.6467V52.6468V52.6469V52.647V52.6471V52.6472V52.6473V52.6475V52.6476V52.6477V52.6478V52.6479V52.648V52.6481V52.6483V52.6484V52.6485V52.6486V52.6487V52.6488V52.6489V52.649V52.6491V52.6493V52.6494V52.6495V52.6496V52.6497V52.6498V52.6499V52.65V52.6501V52.6502V52.6504V52.6505V52.6506V52.6507V52.6508V52.6509V52.651V52.6511V52.6512V52.6513V52.6514V52.6515V52.6516V52.6518V52.6519V52.652V52.6521V52.6522V52.6523V52.6524V52.6525V52.6526V52.6527V52.6528V52.6529V52.653V52.6531V52.6532V52.6533V52.6534V52.6535V52.6536V52.6537V52.6539V52.654V52.6541V52.6542V52.6543V52.6544V52.6545V52.6546V52.6547V52.6548V52.6549V52.655V52.6551V52.6552V52.6553V52.6554V52.6555V52.6556V52.6557V52.6558V52.6559V52.656V52.6561V52.6562V52.6563V52.6564V52.6565V52.6566V52.6567V52.6568V52.6569V52.657V52.6571V52.6572V52.6573V52.6574V52.6575V52.6576V52.6577V52.6578V52.6579V52.658V52.6581V52.6581V52.6582V52.6583V52.6584V52.6585V52.6586V52.6587V52.6588V52.6589V52.659V52.6591V52.6592V52.6593V52.6594V52.6595V52.6596V52.6597V52.6598V52.6599V52.66V52.6601V52.6602V52.6603V52.6603V52.6604V52.6605V52.6606V52.6607V52.6608V52.6609V52.661V52.6611V52.6612V52.6613V52.6614V52.6615V52.6616V52.6617V52.6617V52.6618V52.6619V52.662V52.6621V52.6622V52.6623V52.6624V52.6625V52.6626V52.6627V52.6628V52.6628V52.6629V52.663V52.6631V52.6632V52.6633V52.6634V52.6635V52.6636V52.6637V52.6638V52.6638V52.6639V52.664V52.6641V52.6642V52.6643V52.6644V52.6645V52.6646V52.6646V52.6647V52.6648V52.6649V52.665V52.6651V52.6652V52.6653V52.6654V52.6655V52.6655V52.6656V52.6657V52.6658V52.6659V52.666V52.6661V52.6662V52.6662V52.6663V52.6664V52.6665V52.6666V52.6667V52.6668V52.6669V52.6669V52.667V52.6671V52.6672V52.6673V52.6674V52.6675V52.6676V52.6676V52.6677V52.6678V52.6679V52.668V52.6681V52.6682V52.6682V52.6683V52.6684V52.6685V52.6686V52.6687V52.6688V52.6688V52.6689V52.669V52.6691V52.6692V52.6693V52.6694V52.6694V52.6695V52.6696V52.6697V52.6698V52.6699V52.67V52.67V52.6701V52.6702V52.6703V52.6704V52.6705V52.6706V52.6706V52.6707V52.6708V52.6709V52.671V52.6711V52.6711V52.6712V52.6713V52.6714V52.6715V52.6716V52.6717V52.6717V52.6718V52.6719V52.672V52.6721V52.6722V52.6722V52.6723V52.6724V52.6725V52.6726V52.6727V52.6727V52.6728V52.6729V52.673V52.6731V52.6732V52.6732V52.6733V52.6734V52.6735V52.6736V52.6737V52.6738V52.6738V52.6739V52.674V52.6741V52.6742V52.6743V52.6743V52.6744V52.6745V52.6746V52.6747V52.6748V52.6748V52.6749V52.675V52.6751V52.6752V52.6753V52.6753V52.6754V52.6755V52.6756V52.6757V52.6758V52.6758V52.6759V52.676V52.6761V52.6762V52.6763V52.6763V52.6906V52.6907V52.6909V52.6911V52.6912V52.6914V52.6916V52.6917V52.6919V52.6921V52.6922V52.6924V52.6926V52.6927V52.6929V52.6931V52.6932V52.6934V52.6936V52.6937V52.6939V52.6941V52.6942V52.6944V52.6946V52.6947V52.6949V52.6951V52.6952V52.6954V52.6956V52.6957V52.6959V52.6961V52.6962V52.6964V52.6966V52.6967V52.6969V52.6971V52.6972V52.6974V52.6976V52.6977V52.6979V52.6981V52.6982V52.6984V52.6986V52.6987V52.6989V52.6991V52.6992V52.6994V52.6996V52.6997V52.6999V52.7001V52.7002V52.7004V52.7006V52.7007V52.7009V52.7011V52.7013V52.7014V52.7016V52.7018V52.7019V52.7021V52.7023V52.7024V52.7026V52.7028V52.7029V52.7031V52.7033V52.7034V52.7036V52.7038V52.7039V52.7041V52.7043V52.7044V52.7046V52.7048V52.705V52.7051V52.7053V52.7055V52.7056V52.7058V52.706V52.7061V52.7063V52.7065V52.7066V52.7068V52.707V52.7072V52.7073V52.7075V52.7077V52.7078V52.708V52.7082V52.7083V52.7085V52.7087V52.7089V52.709V52.7092V52.7094V52.7095V52.7097V52.7099V52.7101V52.7102V52.7104V52.7106V52.7107V52.7109V52.7111V52.7113V52.7114V52.7116V52.7118V52.7119V52.7121V52.7123V52.7125V52.7126V52.7128V52.713V52.7131V52.7133V52.7135V52.7137V52.7138V52.714V52.7142V52.7144V52.7145V52.7147V52.7149V52.715V52.7152V52.7154V52.7156V52.7157V52.7159V52.7161V52.7163V52.7164V52.7166V52.7168V52.717V52.7171V52.7173V52.7175V52.7177V52.7178V52.718V52.7182V52.7184V52.7185V52.7187V52.7189V52.7191V52.7192V52.7194V52.7196V52.7198V52.7199V52.7201V52.7203V52.7205V52.7206V52.7208V52.721V52.7212V52.7213V52.7215V52.7217V52.7219V52.7221V52.7222V52.7224V52.7226V52.7228V52.7229V52.7231V52.7233V52.7235V52.7237V52.7238V52.724V52.7242V52.7244V52.7246V52.7247V52.7249V52.7251V52.7253V52.7255V52.7256V52.7258V52.726V52.7262V52.7264V52.7265V52.7267V52.7269V52.7271V52.7273V52.7274V52.7276V52.7278V52.728V52.7282V52.7283V52.7285V52.7287V52.7289V52.7291V52.7293V52.7294V52.7296V52.7298V52.73V52.7302V52.7304V52.7305V52.7307V52.7309V52.7311V52.7313V52.7315V52.7316V52.7318V52.732V52.7322V52.7324V52.7326V52.7328V52.7329V52.7331V52.7333V52.7335V52.7337V52.7339V52.7341V52.7342V52.7344V52.7346V52.7348V52.735V52.7352V52.7354V52.7356V52.7357V52.7359V52.7361V52.7363V52.7365V52.7367V52.7369V52.7371V52.7373V52.7374V52.7376V52.7378V52.738V52.7382V52.7384V52.7386V52.7388V52.739V52.7392V52.7394V52.7395V52.7397V52.7399V52.7401V52.7403V52.7405V52.7407V52.7409V52.7411V52.7413V52.7415V52.7417V52.7419V52.7421V52.7422V52.7424V52.7426V52.7428V52.743V52.7432V52.7434V52.7436V52.7438V52.744V52.7442V52.7444V52.7446V52.7448V52.745V52.7452V52.7454V52.7456V52.7458V52.746V52.7462V52.7464V52.7466V52.7468V52.747V52.7472V52.7474V52.7476V52.7478V52.748V52.7482V52.7484V52.7486V52.7488V52.749V52.7492V52.7494V52.7496V52.7498V52.75V52.7502V52.7504V52.7506V52.7508V52.751V52.7512V52.7514V52.7516V52.7518V52.752V52.7522V52.7524V52.7526V52.7528V52.753V52.7532V52.7534V52.7536V52.7538V52.754V52.7543V52.7545V52.7547V52.7549V52.7551V52.7553V52.7555V52.7557V52.7559V52.7561V52.7563V52.7565V52.7567V52.757V52.7572V52.7574V52.7576V52.7578V52.758V52.7582V52.7584V52.7586V52.7589V52.7591V52.7593V52.7595V52.7597V52.7599V52.7601V52.7603V52.7606V52.7608V52.761V52.7612V52.7614V52.7616V52.7618V52.7621V52.7623V52.7625V52.7627V52.7629V52.7631V52.7633V52.7636V52.7638V52.764V52.7642V52.7644V52.7647V52.7649V52.7651V52.7653V52.7655V52.7657V52.766V52.7662V52.7664V52.7666V52.7668V52.7671V52.7673V52.7675V52.7677V52.768V52.7682V52.7684V52.7686V52.7688V52.7691V52.7693V52.7695V52.7697V52.77V52.7702V52.7704V52.7706V52.7709V52.7711V52.7713V52.7715V52.7718V52.772V52.7722V52.7725V52.7727V52.7729V52.7731V52.7734V52.7736V52.7738V52.7741V52.7743V52.7745V52.7747V52.775V52.7752V52.7754V52.7757V52.7759V52.7761V52.7764V52.7766V52.7768V52.7771V52.7773V52.7775V52.7778V52.778V52.7782V52.7785V52.7787V52.7789V52.7792V52.7794V52.7796V52.7799V52.7801V52.7804V52.7806V52.7808V52.7811V52.7813V52.7816V52.7818V52.782V52.7823V52.7825V52.7827V52.783V52.7832V52.7835V52.7837V52.784V52.7842V52.7844V52.7847V52.7849V52.7852V52.7854V52.7857V52.7859V52.7861V52.7864V52.7866V52.7869V52.7871V52.7874V52.7876V52.7879V52.7881V52.7884V52.7886V52.7889V52.7891V52.7894V52.7896V52.7899V52.7901V52.7903V52.7904V52.7906V52.7908V52.7909V52.7911V52.7913V52.7914V52.7916V52.7918V52.7919V52.7921V52.7922V52.7924V52.7926V52.7927V52.7929V52.7931V52.7932V52.7934V52.7935V52.7937V52.7939V52.794V52.7942V52.7943V52.7945V52.7946V52.7948V52.795V52.7951V52.7953V52.7954V52.7956V52.7957V52.7959V52.7961V52.7962V52.7964V52.7965V52.7967V52.7968V52.797V52.7971V52.7973V52.7974V52.7976V52.7978V52.7979V52.7981V52.7982V52.7984V52.7985V52.7987V52.7988V52.799V52.7991V52.7993V52.7994V52.7996V52.7997V52.7999V52.8V52.8002V52.8003V52.8005V52.8006V52.8008V52.8009V52.801V52.8012V52.8013V52.8015V52.8016V52.8018V52.8019V52.8021V52.8022V52.8024V52.8025V52.8026V52.8028V52.8029V52.8031V52.8032V52.8034V52.8035V52.8037V52.8038V52.8039V52.8041V52.8042V52.8044V52.8045V52.8047V52.8048V52.8049V52.8051V52.8052V52.8054V52.8055V52.8056V52.8058V52.8059V52.8061V52.8062V52.8063V52.8065V52.8066V52.8068V52.8069V52.807V52.8072V52.8073V52.8074V52.8076V52.8077V52.8079V52.808V52.8081V52.8083V52.8084V52.8085V52.8087V52.8088V52.8089V52.8091V52.8092V52.8094V52.8095V52.8096V52.8098V52.8099V52.81V52.8102V52.8103V52.8104V52.8106V52.8107V52.8108V52.811V52.8111V52.8112V52.8114V52.8115V52.8116V52.8118V52.8119V52.812V52.8122V52.8123V52.8124V52.8126V52.8127V52.8128V52.8129V52.8131V52.8132V52.8133V52.8135V52.8136V52.8137V52.8139V52.814V52.8141V52.8143V52.8144V52.8145V52.8146V52.8148V52.8149V52.815V52.8152V52.8153V52.8154V52.8156V52.8157V52.8158V52.8159V52.8161V52.8162V52.8163V52.8165V52.8166V52.8167V52.8168V52.817V52.8171V52.8172V52.8173V52.8175V52.8176V52.8177V52.8179V52.818V52.8181V52.8182V52.8184V52.8185V52.8186V52.8187V52.8189V52.819V52.8191V52.8193V52.8194V52.8195V52.8196V52.8198V52.8199V52.82V52.8201V52.8203V52.8204V52.8205V52.8206V52.8208V52.8209V52.821V52.8211V52.8213V52.8214V52.8215V52.8217V52.8218V52.8219V52.822V52.8222V52.8223V52.8224V52.8225V52.8227V52.8228V52.8229V52.823V52.8232V52.8233V52.8234V52.8235V52.8237V52.8238V52.8239V52.824V52.8242V52.8243V52.8244V52.8245V52.8247V52.8248V52.8249V52.825V52.8252V52.8253V52.8254V52.8255V52.8257V52.8258V52.8259V52.826V52.8262V52.8263V52.8264V52.8265V52.8267V52.8268V52.8269V52.827V52.8272V52.8273V52.8274V52.8275V52.8277V52.8278V52.8279V52.828V52.8282V52.8283V52.8284V52.8285V52.8287V52.8288V52.8289V52.829V52.8292V52.8293V52.8294V52.8295V52.8297V52.8298V52.8299V52.83V52.8302V52.8303V52.8304V52.8305V52.8307V52.8308V52.8309V52.8311V52.8312V52.8313V52.8314V52.8316V52.8317V52.8318V52.8319V52.8321V52.8322V52.8323V52.8324V52.8326V52.8327V52.8328V52.833V52.8331V52.8332V52.8333V52.8335V52.8336V52.8337V52.8338V52.834V52.8341V52.8342V52.8344V52.8345V52.8346V52.8347V52.8349V52.835V52.8351V52.8353V52.8354V52.8355V52.8356V52.8358V52.8359V52.836V52.8362V52.8363V52.8364V52.8365V52.8367V52.8368V52.8369V52.8371V52.8372V52.8373V52.8375V52.8376V52.8377V52.8378V52.838V52.8381V52.8382V52.8384V52.8385V52.8386V52.8388V52.8389V52.839V52.8392V52.8393V52.8394V52.8396V52.8397V52.8398V52.84V52.8401V52.8402V52.8404V52.8405V52.8406V52.8408V52.8409V52.841V52.8412V52.8413V52.8414V52.8416V52.8417V52.8418V52.842V52.8421V52.8422V52.8424V52.8425V52.8426V52.8428V52.8429V52.8431V52.8432V52.8433V52.8435V52.8436V52.8437V52.8439V52.844V52.8442V52.8443V52.8444V52.8446V52.8447V52.8448V52.845V52.8451V52.8453V52.8454V52.8455V52.8457V52.8458V52.846V52.8461V52.8462V52.8464V52.8465V52.8467V52.8468V52.847V52.8471V52.8472V52.8474V52.8475V52.8477V52.8478V52.848V52.8481V52.8482V52.8484V52.8485V52.8487V52.8488V52.849V52.8491V52.8493V52.8494V52.8495V52.8497V52.8498V52.85V52.8501V52.8503V52.8504V52.8506V52.8507V52.8509V52.851V52.8512V52.8513V52.8515V52.8516V52.8518V52.8519V52.8521V52.8522V52.8524V52.8525V52.8527V52.8528V52.853V52.8531V52.8533V52.8534V52.8536V52.8537V52.8539V52.854V52.8542V52.8543V52.8545V52.8546V52.8548V52.855V52.8551V52.8553V52.8554V52.8556V52.8557V52.8559V52.856V52.8562V52.8564V52.8565V52.8567V52.8568V52.857V52.8571V52.8573V52.8575V52.8576V52.8578V52.8579V52.8581V52.8583V52.8584V52.8586V52.8588V52.8589V52.8591V52.8592V52.8594V52.8596V52.8597V52.8599V52.8601V52.8602V52.8604V52.8606V52.8607V52.8609V52.861V52.8612V52.8695L49.083 52.8777L49.1816 52.8612L49.1959 52.9465V52.9466C49.1959 52.975 49.1959 53.0034 49.2101 53.0319C49.2243 53.0603 49.2243 53.0745 49.2243 53.0888C49.2243 53.103 49.2385 53.1599 49.2527 53.1883C49.2527 53.1942 49.2552 53.2001 49.258 53.207C49.2621 53.2167 49.267 53.2285 49.267 53.2452M66.6595 40.7448V40.759C66.6595 41.6833 65.9058 42.4229 64.9814 42.4086H62.0945C62.6491 43.2192 63.0331 44.1152 63.2464 45.068H64.9814C65.9058 45.068 66.6453 45.8075 66.6453 46.7319C66.6453 47.6563 65.9058 48.3958 64.9814 48.3958H63.2464C62.45 51.8657 59.364 54.326 55.7945 54.3402M66.6595 40.7448L66.7594 40.7402L66.7596 40.7448H66.6595ZM55.7945 54.3402H54.9555L62.706 61.8348M55.7945 54.3402L55.7949 54.4402L55.7945 54.4402V54.3402ZM62.706 61.8348L62.7202 61.849C63.3744 62.5032 63.3886 63.5556 62.7487 64.2097M62.706 61.8348L62.7755 61.7629L62.7767 61.7641L62.706 61.8348ZM62.7487 64.2097C62.0945 64.8639 61.0421 64.8781 60.3879 64.2382L49.6794 53.8709M62.7487 64.2097L62.8202 64.2797L62.8194 64.2804L62.7487 64.2097ZM49.6794 53.8709L49.6083 53.7998M49.6794 53.8709L49.6098 53.9428L49.6087 53.9416L49.6794 53.8709ZM49.6083 53.7998L49.5656 53.7571M49.6083 53.7998L49.5376 53.8705L49.5376 53.8705L49.6083 53.7998ZM49.5656 53.7571L49.5087 53.686C49.5016 53.6789 49.4945 53.6683 49.4874 53.6576C49.4803 53.6469 49.4732 53.6363 49.4661 53.6292M49.5656 53.7571L49.4949 53.8279L49.487 53.82L49.5656 53.7571ZM49.4661 53.6292C49.459 53.6149 49.4518 53.6043 49.4447 53.5936C49.4376 53.5829 49.4305 53.5723 49.4234 53.5581C49.4163 53.5438 49.4092 53.5332 49.4021 53.5225C49.395 53.5118 49.3878 53.5012 49.3807 53.4869C49.3736 53.4727 49.3701 53.4621 49.3665 53.4514C49.363 53.4407 49.3594 53.4301 49.3523 53.4158C49.3381 53.4016 49.3239 53.3732 49.3096 53.3448L49.3096 53.3447C49.3025 53.3305 49.2954 53.3127 49.2883 53.295C49.2812 53.2772 49.2741 53.2594 49.267 53.2452M49.4661 53.6292L49.3954 53.6999L49.3839 53.6884L49.3766 53.6739L49.4661 53.6292ZM49.267 53.2452L49.1775 53.2899L49.167 53.2688V53.2452H49.267Z" fill="#3C7CFF" stroke="#3C7CFF" stroke-width="0.2"/>
<path d="M17.8804 52.549C18.8546 52.549 19.6443 51.7593 19.6443 50.7851C19.6443 49.8109 18.8546 49.0212 17.8804 49.0212C16.9063 49.0212 16.1166 49.8109 16.1166 50.7851C16.1166 51.7593 16.9063 52.549 17.8804 52.549Z" fill="#3C7CFF" stroke="#3C7CFF" stroke-width="0.2"/>
</svg>
