<svg width="100" height="102" viewBox="0 0 100 102" fill="none" xmlns="http://www.w3.org/2000/svg">
<mask id="path-1-outside-1_125_720" maskUnits="userSpaceOnUse" x="3" y="0" width="94" height="102" fill="black">
<rect fill="white" x="3" width="94" height="102"/>
<path fill-rule="evenodd" clip-rule="evenodd" d="M48.0918 52.2909C47.7271 52.0124 47.4155 51.6676 47.1756 51.2741C46.8308 50.7094 46.6319 50.0496 46.6319 49.3456C46.6319 48.3222 47.0463 47.3961 47.7172 46.7253C48.388 46.0544 49.3141 45.64 50.3375 45.64C51.3609 45.64 52.2882 46.0544 52.959 46.7253C53.6298 47.3961 54.0443 48.3222 54.0443 49.3456C54.0443 50.0485 53.8453 50.7094 53.5016 51.2741C53.2607 51.6676 52.949 52.0124 52.5843 52.2909V53.4911C52.5843 54.1078 52.3324 54.6681 51.9256 55.0748L51.9245 55.077L51.9256 55.0792C51.5189 55.4859 50.9575 55.7379 50.3375 55.7379C49.7186 55.7379 49.1572 55.4848 48.7505 55.0792C48.3438 54.6725 48.0918 54.1111 48.0918 53.4911V52.2909ZM40.8596 34.9342C40.8596 35.4979 40.4032 35.9543 39.8395 35.9543C39.2759 35.9543 38.8183 35.4979 38.8183 34.9342V17.2438H34.7104C34.6077 17.3521 34.5005 17.456 34.3888 17.5576C33.2074 18.6363 31.5839 19.3071 29.8035 19.3071H21.1931V22.1883H32.8206C33.3842 22.1883 33.8407 22.6458 33.8407 23.2084C33.8407 23.772 33.3842 24.2284 32.8206 24.2284H20.1741H7.52549C6.96185 24.2284 6.50542 23.772 6.50542 23.2084C6.50542 22.6447 6.96296 22.1883 7.52549 22.1883H19.153V19.3071H10.5426C8.76217 19.3071 7.13868 18.6374 5.95725 17.5576C4.75041 16.4547 4 14.9273 4 13.242C4 11.5566 4.7493 10.0292 5.95725 8.92627C6.99611 7.97693 8.37868 7.34367 9.90934 7.20552C9.90823 7.15911 9.90823 7.11158 9.90823 7.06406C9.90823 5.37315 10.6542 3.84581 11.86 2.74396C13.0403 1.66531 14.6638 1 16.4497 1C18.0268 1 19.4779 1.52053 20.6085 2.38367C21.413 2.99925 22.0562 3.78834 22.4707 4.69126C22.695 4.59511 22.9271 4.51002 23.1647 4.43708C23.819 4.23593 24.5119 4.12763 25.2259 4.12763C26.5399 4.12763 27.7667 4.48902 28.7934 5.10902C29.6941 5.65387 30.4423 6.39765 30.9617 7.27404C32.3863 7.51276 33.6561 8.18249 34.6032 9.13073C35.6852 10.2138 36.3483 11.6582 36.3483 13.242C36.3483 13.9272 36.2245 14.5869 35.9957 15.2025H39.8417C40.4054 15.2025 40.8618 15.6601 40.8618 16.2226V34.9342H40.8596ZM61.8578 34.9342C61.8578 35.4979 61.4003 35.9543 60.8366 35.9543C60.2741 35.9543 59.8166 35.4979 59.8166 34.9342V16.2226C59.8166 15.6601 60.2741 15.2025 60.8366 15.2025H67.7185V5.7456C67.7185 4.85262 68.0832 4.04253 68.6701 3.45569C69.2569 2.86884 70.0681 2.50414 70.96 2.50414H92.734C93.627 2.50414 94.4382 2.86884 95.025 3.45569C95.6119 4.04253 95.9766 4.85372 95.9766 5.7456V16.7056C95.9766 17.5985 95.6119 18.4097 95.025 18.9966C94.4382 19.5834 93.627 19.9481 92.734 19.9481H70.96C70.067 19.9481 69.2569 19.5834 68.6701 18.9966C68.2037 18.5302 67.8777 17.9223 67.7638 17.2449H61.8578V34.9342ZM61.8578 84.1352H69.0215C68.6082 82.2995 68.3905 80.3909 68.3905 78.4303C68.3905 78.0546 68.5949 77.7264 68.8966 77.5506C70.8351 76.43 72.9283 75.5514 75.1364 74.9601C77.2804 74.3865 79.5306 74.0804 81.847 74.0804C84.1645 74.0804 86.4136 74.3865 88.5576 74.9601C90.7657 75.5514 92.86 76.4289 94.7974 77.5495C95.1422 77.7496 95.3267 78.1209 95.3035 78.4933C95.2925 83.177 94.037 87.569 91.851 91.3564C89.5743 95.2996 86.292 98.5864 82.3565 100.863C82.0238 101.055 81.626 101.039 81.3187 100.853C77.391 98.5765 74.1152 95.2941 71.8419 91.3564C70.9003 89.7263 70.1333 87.9845 69.5619 86.1555C69.4956 86.1687 69.426 86.1765 69.3564 86.1765H60.8355C60.273 86.1765 59.8154 85.7189 59.8154 85.1564V66.5266C59.8154 65.9629 60.273 65.5065 60.8355 65.5065C61.3992 65.5065 61.8567 65.9629 61.8567 66.5266L61.8578 84.1352ZM33.1157 84.1452C33.1621 84.1385 33.2096 84.1352 33.2582 84.1352H38.8195V66.5266C38.8195 65.9629 39.277 65.5065 39.8406 65.5065C40.4043 65.5065 40.8607 65.964 40.8607 66.5266V85.1553C40.8607 85.7189 40.4043 86.1754 39.8406 86.1754H33.4826C33.5279 86.6241 33.5511 87.0794 33.5511 87.5403C33.5511 91.2337 32.0536 94.5791 29.6333 96.9994C27.213 99.4197 23.8687 100.917 20.1741 100.917C16.4796 100.917 13.1364 99.4197 10.715 96.9994C8.29469 94.5791 6.79718 91.2348 6.79718 87.5403C6.79718 83.8457 8.29469 80.5025 10.715 78.0811C13.1364 75.6608 16.4807 74.1633 20.1741 74.1633C23.8676 74.1633 27.2119 75.6608 29.6333 78.0811C31.2844 79.7344 32.5056 81.8155 33.1157 84.1452ZM73.9063 22.7243H89.7876C90.3513 22.7243 90.8088 22.2668 90.8088 21.7042C90.8088 21.1417 90.3513 20.6842 89.7876 20.6842H73.9063C73.3427 20.6842 72.8863 21.1417 72.8863 21.7042C72.8863 22.2668 73.3427 22.7243 73.9063 22.7243ZM92.734 4.54428H70.96C70.6306 4.54428 70.3311 4.68021 70.1123 4.89793C69.8946 5.11675 69.7587 5.41626 69.7587 5.7456V16.7056C69.7587 17.0349 69.8946 17.3355 70.1123 17.5532C70.33 17.7709 70.6306 17.9069 70.96 17.9069H92.734C93.0634 17.9069 93.364 17.7709 93.5817 17.5532C93.7994 17.3355 93.9353 17.0349 93.9353 16.7056V5.7456C93.9353 5.41626 93.7994 5.11675 93.5817 4.89793C93.364 4.68021 93.0634 4.54428 92.734 4.54428ZM11.0687 9.21804H10.5426C9.28602 9.21804 8.1488 9.68331 7.32877 10.4326C6.53415 11.1587 6.04125 12.1534 6.04125 13.242C6.04125 14.3305 6.53415 15.3252 7.32877 16.0513C8.1488 16.8006 9.28602 17.2659 10.5426 17.2659H20.173H29.8035C31.0601 17.2659 32.1973 16.8006 33.0173 16.0513C33.8119 15.3263 34.3048 14.3317 34.3048 13.242C34.3048 12.2186 33.8694 11.2781 33.1588 10.5663C32.4238 9.8314 31.396 9.3385 30.2411 9.23793C29.882 9.21472 29.546 9.00032 29.3824 8.64998C29.0409 7.91725 28.4662 7.29394 27.7401 6.85519C27.0229 6.42196 26.1575 6.16888 25.2248 6.16888C24.7053 6.16888 24.2135 6.24403 23.7615 6.38328C23.294 6.52695 22.8575 6.74135 22.4674 7.01101C22.3535 7.09059 22.222 7.14806 22.0772 7.17458C21.5247 7.28068 20.9909 6.91818 20.8848 6.3656C20.7024 5.42731 20.152 4.59843 19.3729 4.00274C18.5871 3.40264 17.5682 3.04014 16.4497 3.04014C15.1865 3.04014 14.0493 3.5021 13.2304 4.2503C12.438 4.97419 11.9484 5.96884 11.9484 7.06296C11.9484 7.21658 11.9572 7.36577 11.9749 7.51055C11.9915 7.64538 12.0147 7.77469 12.0434 7.89846C12.0722 7.9924 12.0887 8.09298 12.0887 8.19686C12.0898 8.7616 11.6323 9.21804 11.0687 9.21804ZM90.0893 90.3441C92.0212 86.9987 93.1639 83.1406 93.2645 79.0227C91.6288 78.1297 89.8749 77.4224 88.0315 76.9295C86.0632 76.4024 83.9899 76.1216 81.847 76.1216C79.7041 76.1216 77.6319 76.4024 75.6625 76.9295C73.819 77.4224 72.0651 78.1297 70.4306 79.0227C70.5312 83.1406 71.6739 86.9976 73.6046 90.3441C75.6006 93.801 78.4409 96.7132 81.847 98.7975C85.2531 96.7121 88.0945 93.801 90.0893 90.3441ZM86.1339 82.031L81.6901 87.1767L79.5184 85.5974C79.0631 85.2669 78.4254 85.3686 78.0949 85.825C77.7645 86.2804 77.8662 86.918 78.3226 87.2485L81.2491 89.377L81.2502 89.3759C81.6724 89.6832 82.2681 89.6202 82.6162 89.2179L87.6723 83.3638C88.0404 82.9394 87.9939 82.2962 87.5685 81.9293C87.1441 81.5591 86.502 81.6055 86.1339 82.031ZM28.1899 79.5256C26.1387 77.4744 23.3051 76.2056 20.1741 76.2056C17.0432 76.2056 14.2096 77.4744 12.1584 79.5256C10.1072 81.5768 8.83843 84.4104 8.83843 87.5414C8.83843 90.6723 10.1072 93.506 12.1584 95.5571C14.2096 97.6083 17.0443 98.8771 20.1741 98.8771C23.304 98.8771 26.1387 97.6083 28.1899 95.5571C30.2411 93.506 31.5099 90.6723 31.5099 87.5414C31.5099 84.4104 30.2411 81.5768 28.1899 79.5256ZM17.766 93.3413V95.6478C17.766 96.2114 18.2235 96.6678 18.7872 96.6678C19.3508 96.6678 19.8072 96.2103 19.8072 95.6478V93.3413C19.8072 92.7776 19.3497 92.3201 18.7872 92.3201C18.2224 92.3201 17.766 92.7776 17.766 93.3413ZM22.5823 95.6864V86.6661C22.5823 86.0019 22.3115 85.3995 21.875 84.9641C21.4396 84.5276 20.8372 84.2579 20.1741 84.2579C19.5144 84.2579 18.9131 84.5287 18.4744 84.9663L18.4722 84.9652C18.0356 85.4006 17.7649 86.003 17.7649 86.6672V89.4555C17.7649 90.0191 18.2224 90.4756 18.7861 90.4756C19.3497 90.4756 19.8061 90.018 19.8061 89.4555V86.6672C19.8061 86.5666 19.8481 86.4749 19.9144 86.4086L19.9122 86.4063L19.9144 86.4053C19.9785 86.34 20.0703 86.3003 20.173 86.3003C20.2725 86.3003 20.3642 86.3422 20.4305 86.4097C20.498 86.476 20.54 86.5677 20.54 86.6683V95.6887C20.54 96.2523 20.9964 96.7087 21.56 96.7087C22.1248 96.7065 22.5823 96.249 22.5823 95.6864ZM25.5221 94.9184V93.3413C25.5221 92.7776 25.0656 92.3201 24.502 92.3201C23.9384 92.3201 23.4819 92.7776 23.4819 93.3413V94.9184C23.4819 95.482 23.9395 95.9384 24.502 95.9384C25.0656 95.9384 25.5221 95.482 25.5221 94.9184ZM25.5221 89.4544V86.6661C25.5221 85.194 24.9208 83.8567 23.9516 82.8875C22.9835 81.9183 21.6462 81.317 20.1741 81.317C18.7021 81.317 17.3648 81.9183 16.3956 82.8875C15.4274 83.8556 14.8251 85.194 14.8251 86.6661V94.7868C14.8251 95.3505 15.2827 95.8069 15.8452 95.8069C16.4077 95.8069 16.8653 95.3494 16.8653 94.7868V86.6661C16.8653 85.7565 17.2377 84.9298 17.8378 84.3308C18.4379 83.7307 19.2646 83.3583 20.173 83.3583C21.0815 83.3583 21.9082 83.7307 22.5083 84.3308C23.1084 84.9298 23.4808 85.7576 23.4808 86.6661V89.4544C23.4808 90.018 23.9384 90.4745 24.5009 90.4745C25.0656 90.4756 25.5221 90.018 25.5221 89.4544ZM11.8854 89.4544V92.8042C11.8854 93.3678 12.3429 93.8242 12.9055 93.8242C13.4691 93.8242 13.9266 93.3678 13.9266 92.8042V89.4544C13.9266 88.8908 13.4691 88.4343 12.9055 88.4343C12.3418 88.4343 11.8854 88.8919 11.8854 89.4544ZM28.4629 93.3413V86.6661C28.4629 84.385 27.5302 82.3128 26.0282 80.8109C24.5263 79.309 22.4541 78.3762 20.173 78.3762C17.892 78.3762 15.8198 79.309 14.3179 80.8109C12.8159 82.3128 11.8843 84.385 11.8843 86.6661C11.8843 87.2286 12.3418 87.6861 12.9043 87.6861C13.468 87.6861 13.9255 87.2286 13.9255 86.6661C13.9255 84.9486 14.6284 83.387 15.7612 82.2531C16.894 81.1203 18.4556 80.4163 20.1741 80.4163C21.8916 80.4163 23.4532 81.1203 24.586 82.2531C25.7188 83.3859 26.4228 84.9475 26.4228 86.6661V93.3413C26.4228 93.9049 26.8803 94.3614 27.4428 94.3614C28.0054 94.3614 28.4629 93.9049 28.4629 93.3413ZM43.4015 37.4827H39.8395C38.6835 37.4827 37.6336 37.9546 36.8721 38.7161C36.1118 39.4765 35.6399 40.5264 35.6399 41.6824V59.6977C35.6399 60.8537 36.1118 61.9036 36.8721 62.664C37.6325 63.4244 38.6835 63.8963 39.8395 63.8963H60.8366C61.9926 63.8963 63.0425 63.4244 63.8029 62.664C64.5633 61.9036 65.0352 60.8537 65.0352 59.6977V41.6813C65.0352 40.5253 64.5633 39.4753 63.8029 38.715C63.0425 37.9546 61.9926 37.4816 60.8366 37.4816H57.2747V36.8207C57.2747 35.1409 56.6989 33.6047 55.7694 32.4841C54.7969 31.3093 53.4386 30.5798 51.9301 30.5798H48.7439C47.2364 30.5798 45.8782 31.3093 44.9056 32.4841C43.9773 33.6058 43.4004 35.1409 43.4004 36.8207L43.4015 37.4827ZM55.2345 37.4827H45.4427V36.8207C45.4427 35.6283 45.8384 34.554 46.4772 33.7826C47.0717 33.0654 47.8752 32.62 48.745 32.62H51.9312C52.8021 32.62 53.6055 33.0654 54.2001 33.7826C54.8389 34.554 55.2356 35.6283 55.2356 36.8207L55.2345 37.4827ZM80.754 57.9372C81.6879 57.9372 82.5333 58.3152 83.1445 58.9274C83.7567 59.5397 84.1347 60.384 84.1347 61.3179C84.1347 62.2507 83.7567 63.0961 83.1445 63.7084C82.5333 64.3207 81.6879 64.6986 80.754 64.6986C79.8201 64.6986 78.9758 64.3207 78.3635 63.7084C78.0386 63.3835 77.78 62.9922 77.6076 62.5579H70.9545V62.5546C70.6583 62.5546 70.3654 62.4264 70.1654 62.1788L66.494 57.6841C66.1392 57.2476 66.2055 56.6077 66.641 56.2529C67.0775 55.8993 67.7174 55.9645 68.0722 56.401L71.4341 60.5178H77.4683C77.6164 59.9055 77.9314 59.3596 78.3635 58.9285C78.9758 58.3163 79.8212 57.9372 80.754 57.9372ZM81.7022 60.3708C81.4602 60.1276 81.1253 59.9784 80.7551 59.9784C80.3848 59.9784 80.05 60.1287 79.808 60.3708C79.5659 60.6128 79.4156 60.9477 79.4156 61.3179C79.4156 61.6881 79.5659 62.023 79.808 62.265C80.05 62.5071 80.3848 62.6574 80.7551 62.6574C81.1253 62.6574 81.4602 62.5071 81.7022 62.265C81.9454 62.023 82.0946 61.6881 82.0946 61.3179C82.0946 60.9477 81.9454 60.6128 81.7022 60.3708ZM79.609 48.1719C80.5429 48.1719 81.3872 48.551 81.9995 49.1622C82.6118 49.7744 82.9897 50.6199 82.9897 51.5526C82.9897 52.4865 82.6118 53.332 81.9995 53.9431C81.3872 54.5554 80.5418 54.9333 79.609 54.9333C78.6752 54.9333 77.8297 54.5543 77.2186 53.9431C76.8395 53.5651 76.5499 53.0966 76.3853 52.5738H67.2842C66.7206 52.5738 66.2641 52.1163 66.2641 51.5526C66.2641 50.989 66.7217 50.5326 67.2842 50.5326H76.3853C76.5499 50.0087 76.8406 49.5412 77.2186 49.1622C77.8297 48.551 78.6752 48.1719 79.609 48.1719ZM80.5562 50.6055C80.313 50.3635 79.9782 50.2132 79.609 50.2132C79.2388 50.2132 78.9028 50.3635 78.6619 50.6055C78.4188 50.8486 78.2696 51.1835 78.2696 51.5526C78.2696 51.9229 78.4199 52.2588 78.6619 52.5009C78.9039 52.7429 79.2388 52.8932 79.609 52.8932C79.9782 52.8932 80.3141 52.7429 80.5562 52.5009C80.7982 52.2588 80.9485 51.924 80.9485 51.5526C80.9485 51.1835 80.7982 50.8475 80.5562 50.6055ZM81.0557 38.5172C81.9896 38.5172 82.835 38.8951 83.4462 39.5074C84.0584 40.1186 84.4364 40.964 84.4364 41.8979C84.4364 42.8317 84.0584 43.6761 83.4462 44.2884C82.835 44.9006 81.9896 45.2786 81.0557 45.2786C80.1218 45.2786 79.2775 44.9006 78.6652 44.2884C78.2088 43.8319 77.8816 43.2451 77.7457 42.5886H71.4352L68.0733 46.7054C67.7185 47.1408 67.0786 47.2071 66.6421 46.8524C66.2055 46.4976 66.1403 45.8577 66.4951 45.4212L70.1665 40.9264C70.3676 40.6789 70.6605 40.5518 70.9556 40.5518V40.5485H77.9557C78.1259 40.1572 78.369 39.8047 78.6663 39.5085C79.2775 38.8951 80.1229 38.5172 81.0557 38.5172ZM82.0039 40.9496C81.7619 40.7065 81.427 40.5573 81.0568 40.5573C80.6866 40.5573 80.3517 40.7076 80.1097 40.9496C79.8676 41.1917 79.7173 41.5265 79.7173 41.8968C79.7173 42.267 79.8676 42.6019 80.1097 42.8439C80.3517 43.0859 80.6866 43.2362 81.0568 43.2362C81.427 43.2362 81.7619 43.0859 82.0039 42.8439C82.2471 42.6008 82.3963 42.267 82.3963 41.8968C82.3963 41.5265 82.2471 41.1917 82.0039 40.9496ZM19.9222 59.9784C19.5519 59.9784 19.2171 60.1287 18.975 60.3708C18.733 60.6128 18.5827 60.9477 18.5827 61.3179C18.5827 61.687 18.733 62.023 18.975 62.265C19.2182 62.5071 19.5519 62.6574 19.9222 62.6574C20.2924 62.6574 20.6273 62.5071 20.8693 62.265C21.1124 62.023 21.2616 61.6881 21.2616 61.3179C21.2616 60.9477 21.1113 60.6128 20.8693 60.3708C20.6273 60.1276 20.2924 59.9784 19.9222 59.9784ZM17.5317 58.9274C18.144 58.3152 18.9883 57.9372 19.9222 57.9372C20.856 57.9372 21.7015 58.3152 22.3126 58.9274C22.7437 59.3584 23.0586 59.9055 23.2078 60.5167H29.2421L32.604 56.3999C32.9587 55.9634 33.5986 55.8982 34.0352 56.2518C34.4717 56.6066 34.5369 57.2465 34.1822 57.683L30.5108 62.1777C30.3097 62.4253 30.0179 62.5524 29.7217 62.5535V62.5568H23.0686C22.8962 62.9911 22.6376 63.3824 22.3126 63.7073C21.7015 64.3195 20.856 64.6975 19.9222 64.6975C18.9883 64.6975 18.144 64.3195 17.5317 63.7073C16.9194 63.095 16.5415 62.2507 16.5415 61.3168C16.5415 60.3829 16.9194 59.5397 17.5317 58.9274ZM21.0682 50.2132C20.698 50.2132 20.3631 50.3635 20.1211 50.6055C19.8791 50.8486 19.7288 51.1835 19.7288 51.5526C19.7288 51.9229 19.8791 52.2588 20.1211 52.5009C20.3631 52.7429 20.698 52.8932 21.0682 52.8932C21.4374 52.8932 21.7733 52.7429 22.0154 52.5009C22.2574 52.2588 22.4077 51.924 22.4077 51.5526C22.4077 51.1835 22.2574 50.8475 22.0154 50.6055C21.7733 50.3624 21.4385 50.2132 21.0682 50.2132ZM18.6777 49.1622C19.29 48.551 20.1344 48.1719 21.0682 48.1719C22.0021 48.1719 22.8464 48.551 23.4587 49.1622C23.8378 49.5412 24.1262 50.0098 24.292 50.5326H33.392C33.9556 50.5326 34.412 50.989 34.412 51.5526C34.412 52.1163 33.9545 52.5738 33.392 52.5738H24.292C24.1262 53.0966 23.8367 53.5651 23.4587 53.9431C22.8464 54.5554 22.001 54.9333 21.0682 54.9333C20.1344 54.9333 19.29 54.5543 18.6777 53.9431C18.0655 53.332 17.6875 52.4865 17.6875 51.5526C17.6875 50.6199 18.0655 49.7744 18.6777 49.1622ZM19.6205 40.5573C19.2502 40.5573 18.9154 40.7076 18.6733 40.9496C18.4313 41.1917 18.281 41.5265 18.281 41.8968C18.281 42.267 18.4313 42.6019 18.6733 42.8439C18.9154 43.0859 19.2502 43.2362 19.6205 43.2362C19.9907 43.2362 20.3256 43.0859 20.5676 42.8439C20.8107 42.6008 20.9599 42.267 20.9599 41.8968C20.9599 41.5265 20.8096 41.1917 20.5676 40.9496C20.3256 40.7076 19.9907 40.5573 19.6205 40.5573ZM17.23 39.5074C17.8422 38.8951 18.6877 38.5172 19.6205 38.5172C20.5543 38.5172 21.3998 38.8951 22.0109 39.5074C22.3082 39.8047 22.5503 40.1572 22.7216 40.5474H29.7217V40.5507C30.0179 40.5507 30.3097 40.6789 30.5108 40.9253L34.1822 45.4201C34.5369 45.8566 34.4706 46.4965 34.0352 46.8512C33.5997 47.206 32.9587 47.1397 32.604 46.7043L29.2421 42.5875H22.9304C22.7945 43.244 22.4685 43.8308 22.0109 44.2873C21.3998 44.8995 20.5543 45.2775 19.6205 45.2775C18.6866 45.2775 17.8422 44.8995 17.23 44.2873C16.6177 43.675 16.2397 42.8306 16.2397 41.8968C16.2397 40.9629 16.6177 40.1186 17.23 39.5074ZM60.8366 39.5229H56.2546H44.4216H39.8395C39.2472 39.5229 38.7078 39.766 38.3166 40.1572C37.9254 40.5485 37.6811 41.0889 37.6811 41.6813V59.6966C37.6811 60.289 37.9243 60.8283 38.3166 61.2196C38.7078 61.6108 39.2472 61.8539 39.8395 61.8539H60.8366C61.429 61.8539 61.9683 61.6108 62.3596 61.2196C62.7508 60.8283 62.9939 60.289 62.9939 59.6966V41.6813C62.9939 41.0889 62.7508 40.5496 62.3596 40.1572C61.9683 39.766 61.4301 39.5229 60.8366 39.5229ZM51.1509 50.8033C51.4029 50.663 51.614 50.4585 51.7632 50.2132C51.9157 49.9634 52.0041 49.6661 52.0041 49.3456C52.0041 48.8859 51.8173 48.4692 51.5167 48.1686C51.2161 47.868 50.7995 47.6812 50.3386 47.6812C49.8789 47.6812 49.4633 47.8669 49.1616 48.1686C48.861 48.4692 48.6742 48.8859 48.6742 49.3456C48.6742 49.6672 48.7627 49.9645 48.9141 50.2132C49.0644 50.4585 49.2755 50.6619 49.5263 50.8022C49.8844 50.9614 50.1331 51.3195 50.1331 51.7361V53.4911C50.1331 53.5464 50.1563 53.5983 50.1938 53.6359C50.2314 53.6735 50.2834 53.6967 50.3375 53.6967C50.3928 53.6967 50.4447 53.6735 50.4823 53.6359L50.4845 53.6381C50.521 53.6005 50.5431 53.5486 50.5431 53.4911V51.7361C50.5431 51.3206 50.7929 50.9625 51.1509 50.8033Z"/>
</mask>
<path fill-rule="evenodd" clip-rule="evenodd" d="M48.0918 52.2909C47.7271 52.0124 47.4155 51.6676 47.1756 51.2741C46.8308 50.7094 46.6319 50.0496 46.6319 49.3456C46.6319 48.3222 47.0463 47.3961 47.7172 46.7253C48.388 46.0544 49.3141 45.64 50.3375 45.64C51.3609 45.64 52.2882 46.0544 52.959 46.7253C53.6298 47.3961 54.0443 48.3222 54.0443 49.3456C54.0443 50.0485 53.8453 50.7094 53.5016 51.2741C53.2607 51.6676 52.949 52.0124 52.5843 52.2909V53.4911C52.5843 54.1078 52.3324 54.6681 51.9256 55.0748L51.9245 55.077L51.9256 55.0792C51.5189 55.4859 50.9575 55.7379 50.3375 55.7379C49.7186 55.7379 49.1572 55.4848 48.7505 55.0792C48.3438 54.6725 48.0918 54.1111 48.0918 53.4911V52.2909ZM40.8596 34.9342C40.8596 35.4979 40.4032 35.9543 39.8395 35.9543C39.2759 35.9543 38.8183 35.4979 38.8183 34.9342V17.2438H34.7104C34.6077 17.3521 34.5005 17.456 34.3888 17.5576C33.2074 18.6363 31.5839 19.3071 29.8035 19.3071H21.1931V22.1883H32.8206C33.3842 22.1883 33.8407 22.6458 33.8407 23.2084C33.8407 23.772 33.3842 24.2284 32.8206 24.2284H20.1741H7.52549C6.96185 24.2284 6.50542 23.772 6.50542 23.2084C6.50542 22.6447 6.96296 22.1883 7.52549 22.1883H19.153V19.3071H10.5426C8.76217 19.3071 7.13868 18.6374 5.95725 17.5576C4.75041 16.4547 4 14.9273 4 13.242C4 11.5566 4.7493 10.0292 5.95725 8.92627C6.99611 7.97693 8.37868 7.34367 9.90934 7.20552C9.90823 7.15911 9.90823 7.11158 9.90823 7.06406C9.90823 5.37315 10.6542 3.84581 11.86 2.74396C13.0403 1.66531 14.6638 1 16.4497 1C18.0268 1 19.4779 1.52053 20.6085 2.38367C21.413 2.99925 22.0562 3.78834 22.4707 4.69126C22.695 4.59511 22.9271 4.51002 23.1647 4.43708C23.819 4.23593 24.5119 4.12763 25.2259 4.12763C26.5399 4.12763 27.7667 4.48902 28.7934 5.10902C29.6941 5.65387 30.4423 6.39765 30.9617 7.27404C32.3863 7.51276 33.6561 8.18249 34.6032 9.13073C35.6852 10.2138 36.3483 11.6582 36.3483 13.242C36.3483 13.9272 36.2245 14.5869 35.9957 15.2025H39.8417C40.4054 15.2025 40.8618 15.6601 40.8618 16.2226V34.9342H40.8596ZM61.8578 34.9342C61.8578 35.4979 61.4003 35.9543 60.8366 35.9543C60.2741 35.9543 59.8166 35.4979 59.8166 34.9342V16.2226C59.8166 15.6601 60.2741 15.2025 60.8366 15.2025H67.7185V5.7456C67.7185 4.85262 68.0832 4.04253 68.6701 3.45569C69.2569 2.86884 70.0681 2.50414 70.96 2.50414H92.734C93.627 2.50414 94.4382 2.86884 95.025 3.45569C95.6119 4.04253 95.9766 4.85372 95.9766 5.7456V16.7056C95.9766 17.5985 95.6119 18.4097 95.025 18.9966C94.4382 19.5834 93.627 19.9481 92.734 19.9481H70.96C70.067 19.9481 69.2569 19.5834 68.6701 18.9966C68.2037 18.5302 67.8777 17.9223 67.7638 17.2449H61.8578V34.9342ZM61.8578 84.1352H69.0215C68.6082 82.2995 68.3905 80.3909 68.3905 78.4303C68.3905 78.0546 68.5949 77.7264 68.8966 77.5506C70.8351 76.43 72.9283 75.5514 75.1364 74.9601C77.2804 74.3865 79.5306 74.0804 81.847 74.0804C84.1645 74.0804 86.4136 74.3865 88.5576 74.9601C90.7657 75.5514 92.86 76.4289 94.7974 77.5495C95.1422 77.7496 95.3267 78.1209 95.3035 78.4933C95.2925 83.177 94.037 87.569 91.851 91.3564C89.5743 95.2996 86.292 98.5864 82.3565 100.863C82.0238 101.055 81.626 101.039 81.3187 100.853C77.391 98.5765 74.1152 95.2941 71.8419 91.3564C70.9003 89.7263 70.1333 87.9845 69.5619 86.1555C69.4956 86.1687 69.426 86.1765 69.3564 86.1765H60.8355C60.273 86.1765 59.8154 85.7189 59.8154 85.1564V66.5266C59.8154 65.9629 60.273 65.5065 60.8355 65.5065C61.3992 65.5065 61.8567 65.9629 61.8567 66.5266L61.8578 84.1352ZM33.1157 84.1452C33.1621 84.1385 33.2096 84.1352 33.2582 84.1352H38.8195V66.5266C38.8195 65.9629 39.277 65.5065 39.8406 65.5065C40.4043 65.5065 40.8607 65.964 40.8607 66.5266V85.1553C40.8607 85.7189 40.4043 86.1754 39.8406 86.1754H33.4826C33.5279 86.6241 33.5511 87.0794 33.5511 87.5403C33.5511 91.2337 32.0536 94.5791 29.6333 96.9994C27.213 99.4197 23.8687 100.917 20.1741 100.917C16.4796 100.917 13.1364 99.4197 10.715 96.9994C8.29469 94.5791 6.79718 91.2348 6.79718 87.5403C6.79718 83.8457 8.29469 80.5025 10.715 78.0811C13.1364 75.6608 16.4807 74.1633 20.1741 74.1633C23.8676 74.1633 27.2119 75.6608 29.6333 78.0811C31.2844 79.7344 32.5056 81.8155 33.1157 84.1452ZM73.9063 22.7243H89.7876C90.3513 22.7243 90.8088 22.2668 90.8088 21.7042C90.8088 21.1417 90.3513 20.6842 89.7876 20.6842H73.9063C73.3427 20.6842 72.8863 21.1417 72.8863 21.7042C72.8863 22.2668 73.3427 22.7243 73.9063 22.7243ZM92.734 4.54428H70.96C70.6306 4.54428 70.3311 4.68021 70.1123 4.89793C69.8946 5.11675 69.7587 5.41626 69.7587 5.7456V16.7056C69.7587 17.0349 69.8946 17.3355 70.1123 17.5532C70.33 17.7709 70.6306 17.9069 70.96 17.9069H92.734C93.0634 17.9069 93.364 17.7709 93.5817 17.5532C93.7994 17.3355 93.9353 17.0349 93.9353 16.7056V5.7456C93.9353 5.41626 93.7994 5.11675 93.5817 4.89793C93.364 4.68021 93.0634 4.54428 92.734 4.54428ZM11.0687 9.21804H10.5426C9.28602 9.21804 8.1488 9.68331 7.32877 10.4326C6.53415 11.1587 6.04125 12.1534 6.04125 13.242C6.04125 14.3305 6.53415 15.3252 7.32877 16.0513C8.1488 16.8006 9.28602 17.2659 10.5426 17.2659H20.173H29.8035C31.0601 17.2659 32.1973 16.8006 33.0173 16.0513C33.8119 15.3263 34.3048 14.3317 34.3048 13.242C34.3048 12.2186 33.8694 11.2781 33.1588 10.5663C32.4238 9.8314 31.396 9.3385 30.2411 9.23793C29.882 9.21472 29.546 9.00032 29.3824 8.64998C29.0409 7.91725 28.4662 7.29394 27.7401 6.85519C27.0229 6.42196 26.1575 6.16888 25.2248 6.16888C24.7053 6.16888 24.2135 6.24403 23.7615 6.38328C23.294 6.52695 22.8575 6.74135 22.4674 7.01101C22.3535 7.09059 22.222 7.14806 22.0772 7.17458C21.5247 7.28068 20.9909 6.91818 20.8848 6.3656C20.7024 5.42731 20.152 4.59843 19.3729 4.00274C18.5871 3.40264 17.5682 3.04014 16.4497 3.04014C15.1865 3.04014 14.0493 3.5021 13.2304 4.2503C12.438 4.97419 11.9484 5.96884 11.9484 7.06296C11.9484 7.21658 11.9572 7.36577 11.9749 7.51055C11.9915 7.64538 12.0147 7.77469 12.0434 7.89846C12.0722 7.9924 12.0887 8.09298 12.0887 8.19686C12.0898 8.7616 11.6323 9.21804 11.0687 9.21804ZM90.0893 90.3441C92.0212 86.9987 93.1639 83.1406 93.2645 79.0227C91.6288 78.1297 89.8749 77.4224 88.0315 76.9295C86.0632 76.4024 83.9899 76.1216 81.847 76.1216C79.7041 76.1216 77.6319 76.4024 75.6625 76.9295C73.819 77.4224 72.0651 78.1297 70.4306 79.0227C70.5312 83.1406 71.6739 86.9976 73.6046 90.3441C75.6006 93.801 78.4409 96.7132 81.847 98.7975C85.2531 96.7121 88.0945 93.801 90.0893 90.3441ZM86.1339 82.031L81.6901 87.1767L79.5184 85.5974C79.0631 85.2669 78.4254 85.3686 78.0949 85.825C77.7645 86.2804 77.8662 86.918 78.3226 87.2485L81.2491 89.377L81.2502 89.3759C81.6724 89.6832 82.2681 89.6202 82.6162 89.2179L87.6723 83.3638C88.0404 82.9394 87.9939 82.2962 87.5685 81.9293C87.1441 81.5591 86.502 81.6055 86.1339 82.031ZM28.1899 79.5256C26.1387 77.4744 23.3051 76.2056 20.1741 76.2056C17.0432 76.2056 14.2096 77.4744 12.1584 79.5256C10.1072 81.5768 8.83843 84.4104 8.83843 87.5414C8.83843 90.6723 10.1072 93.506 12.1584 95.5571C14.2096 97.6083 17.0443 98.8771 20.1741 98.8771C23.304 98.8771 26.1387 97.6083 28.1899 95.5571C30.2411 93.506 31.5099 90.6723 31.5099 87.5414C31.5099 84.4104 30.2411 81.5768 28.1899 79.5256ZM17.766 93.3413V95.6478C17.766 96.2114 18.2235 96.6678 18.7872 96.6678C19.3508 96.6678 19.8072 96.2103 19.8072 95.6478V93.3413C19.8072 92.7776 19.3497 92.3201 18.7872 92.3201C18.2224 92.3201 17.766 92.7776 17.766 93.3413ZM22.5823 95.6864V86.6661C22.5823 86.0019 22.3115 85.3995 21.875 84.9641C21.4396 84.5276 20.8372 84.2579 20.1741 84.2579C19.5144 84.2579 18.9131 84.5287 18.4744 84.9663L18.4722 84.9652C18.0356 85.4006 17.7649 86.003 17.7649 86.6672V89.4555C17.7649 90.0191 18.2224 90.4756 18.7861 90.4756C19.3497 90.4756 19.8061 90.018 19.8061 89.4555V86.6672C19.8061 86.5666 19.8481 86.4749 19.9144 86.4086L19.9122 86.4063L19.9144 86.4053C19.9785 86.34 20.0703 86.3003 20.173 86.3003C20.2725 86.3003 20.3642 86.3422 20.4305 86.4097C20.498 86.476 20.54 86.5677 20.54 86.6683V95.6887C20.54 96.2523 20.9964 96.7087 21.56 96.7087C22.1248 96.7065 22.5823 96.249 22.5823 95.6864ZM25.5221 94.9184V93.3413C25.5221 92.7776 25.0656 92.3201 24.502 92.3201C23.9384 92.3201 23.4819 92.7776 23.4819 93.3413V94.9184C23.4819 95.482 23.9395 95.9384 24.502 95.9384C25.0656 95.9384 25.5221 95.482 25.5221 94.9184ZM25.5221 89.4544V86.6661C25.5221 85.194 24.9208 83.8567 23.9516 82.8875C22.9835 81.9183 21.6462 81.317 20.1741 81.317C18.7021 81.317 17.3648 81.9183 16.3956 82.8875C15.4274 83.8556 14.8251 85.194 14.8251 86.6661V94.7868C14.8251 95.3505 15.2827 95.8069 15.8452 95.8069C16.4077 95.8069 16.8653 95.3494 16.8653 94.7868V86.6661C16.8653 85.7565 17.2377 84.9298 17.8378 84.3308C18.4379 83.7307 19.2646 83.3583 20.173 83.3583C21.0815 83.3583 21.9082 83.7307 22.5083 84.3308C23.1084 84.9298 23.4808 85.7576 23.4808 86.6661V89.4544C23.4808 90.018 23.9384 90.4745 24.5009 90.4745C25.0656 90.4756 25.5221 90.018 25.5221 89.4544ZM11.8854 89.4544V92.8042C11.8854 93.3678 12.3429 93.8242 12.9055 93.8242C13.4691 93.8242 13.9266 93.3678 13.9266 92.8042V89.4544C13.9266 88.8908 13.4691 88.4343 12.9055 88.4343C12.3418 88.4343 11.8854 88.8919 11.8854 89.4544ZM28.4629 93.3413V86.6661C28.4629 84.385 27.5302 82.3128 26.0282 80.8109C24.5263 79.309 22.4541 78.3762 20.173 78.3762C17.892 78.3762 15.8198 79.309 14.3179 80.8109C12.8159 82.3128 11.8843 84.385 11.8843 86.6661C11.8843 87.2286 12.3418 87.6861 12.9043 87.6861C13.468 87.6861 13.9255 87.2286 13.9255 86.6661C13.9255 84.9486 14.6284 83.387 15.7612 82.2531C16.894 81.1203 18.4556 80.4163 20.1741 80.4163C21.8916 80.4163 23.4532 81.1203 24.586 82.2531C25.7188 83.3859 26.4228 84.9475 26.4228 86.6661V93.3413C26.4228 93.9049 26.8803 94.3614 27.4428 94.3614C28.0054 94.3614 28.4629 93.9049 28.4629 93.3413ZM43.4015 37.4827H39.8395C38.6835 37.4827 37.6336 37.9546 36.8721 38.7161C36.1118 39.4765 35.6399 40.5264 35.6399 41.6824V59.6977C35.6399 60.8537 36.1118 61.9036 36.8721 62.664C37.6325 63.4244 38.6835 63.8963 39.8395 63.8963H60.8366C61.9926 63.8963 63.0425 63.4244 63.8029 62.664C64.5633 61.9036 65.0352 60.8537 65.0352 59.6977V41.6813C65.0352 40.5253 64.5633 39.4753 63.8029 38.715C63.0425 37.9546 61.9926 37.4816 60.8366 37.4816H57.2747V36.8207C57.2747 35.1409 56.6989 33.6047 55.7694 32.4841C54.7969 31.3093 53.4386 30.5798 51.9301 30.5798H48.7439C47.2364 30.5798 45.8782 31.3093 44.9056 32.4841C43.9773 33.6058 43.4004 35.1409 43.4004 36.8207L43.4015 37.4827ZM55.2345 37.4827H45.4427V36.8207C45.4427 35.6283 45.8384 34.554 46.4772 33.7826C47.0717 33.0654 47.8752 32.62 48.745 32.62H51.9312C52.8021 32.62 53.6055 33.0654 54.2001 33.7826C54.8389 34.554 55.2356 35.6283 55.2356 36.8207L55.2345 37.4827ZM80.754 57.9372C81.6879 57.9372 82.5333 58.3152 83.1445 58.9274C83.7567 59.5397 84.1347 60.384 84.1347 61.3179C84.1347 62.2507 83.7567 63.0961 83.1445 63.7084C82.5333 64.3207 81.6879 64.6986 80.754 64.6986C79.8201 64.6986 78.9758 64.3207 78.3635 63.7084C78.0386 63.3835 77.78 62.9922 77.6076 62.5579H70.9545V62.5546C70.6583 62.5546 70.3654 62.4264 70.1654 62.1788L66.494 57.6841C66.1392 57.2476 66.2055 56.6077 66.641 56.2529C67.0775 55.8993 67.7174 55.9645 68.0722 56.401L71.4341 60.5178H77.4683C77.6164 59.9055 77.9314 59.3596 78.3635 58.9285C78.9758 58.3163 79.8212 57.9372 80.754 57.9372ZM81.7022 60.3708C81.4602 60.1276 81.1253 59.9784 80.7551 59.9784C80.3848 59.9784 80.05 60.1287 79.808 60.3708C79.5659 60.6128 79.4156 60.9477 79.4156 61.3179C79.4156 61.6881 79.5659 62.023 79.808 62.265C80.05 62.5071 80.3848 62.6574 80.7551 62.6574C81.1253 62.6574 81.4602 62.5071 81.7022 62.265C81.9454 62.023 82.0946 61.6881 82.0946 61.3179C82.0946 60.9477 81.9454 60.6128 81.7022 60.3708ZM79.609 48.1719C80.5429 48.1719 81.3872 48.551 81.9995 49.1622C82.6118 49.7744 82.9897 50.6199 82.9897 51.5526C82.9897 52.4865 82.6118 53.332 81.9995 53.9431C81.3872 54.5554 80.5418 54.9333 79.609 54.9333C78.6752 54.9333 77.8297 54.5543 77.2186 53.9431C76.8395 53.5651 76.5499 53.0966 76.3853 52.5738H67.2842C66.7206 52.5738 66.2641 52.1163 66.2641 51.5526C66.2641 50.989 66.7217 50.5326 67.2842 50.5326H76.3853C76.5499 50.0087 76.8406 49.5412 77.2186 49.1622C77.8297 48.551 78.6752 48.1719 79.609 48.1719ZM80.5562 50.6055C80.313 50.3635 79.9782 50.2132 79.609 50.2132C79.2388 50.2132 78.9028 50.3635 78.6619 50.6055C78.4188 50.8486 78.2696 51.1835 78.2696 51.5526C78.2696 51.9229 78.4199 52.2588 78.6619 52.5009C78.9039 52.7429 79.2388 52.8932 79.609 52.8932C79.9782 52.8932 80.3141 52.7429 80.5562 52.5009C80.7982 52.2588 80.9485 51.924 80.9485 51.5526C80.9485 51.1835 80.7982 50.8475 80.5562 50.6055ZM81.0557 38.5172C81.9896 38.5172 82.835 38.8951 83.4462 39.5074C84.0584 40.1186 84.4364 40.964 84.4364 41.8979C84.4364 42.8317 84.0584 43.6761 83.4462 44.2884C82.835 44.9006 81.9896 45.2786 81.0557 45.2786C80.1218 45.2786 79.2775 44.9006 78.6652 44.2884C78.2088 43.8319 77.8816 43.2451 77.7457 42.5886H71.4352L68.0733 46.7054C67.7185 47.1408 67.0786 47.2071 66.6421 46.8524C66.2055 46.4976 66.1403 45.8577 66.4951 45.4212L70.1665 40.9264C70.3676 40.6789 70.6605 40.5518 70.9556 40.5518V40.5485H77.9557C78.1259 40.1572 78.369 39.8047 78.6663 39.5085C79.2775 38.8951 80.1229 38.5172 81.0557 38.5172ZM82.0039 40.9496C81.7619 40.7065 81.427 40.5573 81.0568 40.5573C80.6866 40.5573 80.3517 40.7076 80.1097 40.9496C79.8676 41.1917 79.7173 41.5265 79.7173 41.8968C79.7173 42.267 79.8676 42.6019 80.1097 42.8439C80.3517 43.0859 80.6866 43.2362 81.0568 43.2362C81.427 43.2362 81.7619 43.0859 82.0039 42.8439C82.2471 42.6008 82.3963 42.267 82.3963 41.8968C82.3963 41.5265 82.2471 41.1917 82.0039 40.9496ZM19.9222 59.9784C19.5519 59.9784 19.2171 60.1287 18.975 60.3708C18.733 60.6128 18.5827 60.9477 18.5827 61.3179C18.5827 61.687 18.733 62.023 18.975 62.265C19.2182 62.5071 19.5519 62.6574 19.9222 62.6574C20.2924 62.6574 20.6273 62.5071 20.8693 62.265C21.1124 62.023 21.2616 61.6881 21.2616 61.3179C21.2616 60.9477 21.1113 60.6128 20.8693 60.3708C20.6273 60.1276 20.2924 59.9784 19.9222 59.9784ZM17.5317 58.9274C18.144 58.3152 18.9883 57.9372 19.9222 57.9372C20.856 57.9372 21.7015 58.3152 22.3126 58.9274C22.7437 59.3584 23.0586 59.9055 23.2078 60.5167H29.2421L32.604 56.3999C32.9587 55.9634 33.5986 55.8982 34.0352 56.2518C34.4717 56.6066 34.5369 57.2465 34.1822 57.683L30.5108 62.1777C30.3097 62.4253 30.0179 62.5524 29.7217 62.5535V62.5568H23.0686C22.8962 62.9911 22.6376 63.3824 22.3126 63.7073C21.7015 64.3195 20.856 64.6975 19.9222 64.6975C18.9883 64.6975 18.144 64.3195 17.5317 63.7073C16.9194 63.095 16.5415 62.2507 16.5415 61.3168C16.5415 60.3829 16.9194 59.5397 17.5317 58.9274ZM21.0682 50.2132C20.698 50.2132 20.3631 50.3635 20.1211 50.6055C19.8791 50.8486 19.7288 51.1835 19.7288 51.5526C19.7288 51.9229 19.8791 52.2588 20.1211 52.5009C20.3631 52.7429 20.698 52.8932 21.0682 52.8932C21.4374 52.8932 21.7733 52.7429 22.0154 52.5009C22.2574 52.2588 22.4077 51.924 22.4077 51.5526C22.4077 51.1835 22.2574 50.8475 22.0154 50.6055C21.7733 50.3624 21.4385 50.2132 21.0682 50.2132ZM18.6777 49.1622C19.29 48.551 20.1344 48.1719 21.0682 48.1719C22.0021 48.1719 22.8464 48.551 23.4587 49.1622C23.8378 49.5412 24.1262 50.0098 24.292 50.5326H33.392C33.9556 50.5326 34.412 50.989 34.412 51.5526C34.412 52.1163 33.9545 52.5738 33.392 52.5738H24.292C24.1262 53.0966 23.8367 53.5651 23.4587 53.9431C22.8464 54.5554 22.001 54.9333 21.0682 54.9333C20.1344 54.9333 19.29 54.5543 18.6777 53.9431C18.0655 53.332 17.6875 52.4865 17.6875 51.5526C17.6875 50.6199 18.0655 49.7744 18.6777 49.1622ZM19.6205 40.5573C19.2502 40.5573 18.9154 40.7076 18.6733 40.9496C18.4313 41.1917 18.281 41.5265 18.281 41.8968C18.281 42.267 18.4313 42.6019 18.6733 42.8439C18.9154 43.0859 19.2502 43.2362 19.6205 43.2362C19.9907 43.2362 20.3256 43.0859 20.5676 42.8439C20.8107 42.6008 20.9599 42.267 20.9599 41.8968C20.9599 41.5265 20.8096 41.1917 20.5676 40.9496C20.3256 40.7076 19.9907 40.5573 19.6205 40.5573ZM17.23 39.5074C17.8422 38.8951 18.6877 38.5172 19.6205 38.5172C20.5543 38.5172 21.3998 38.8951 22.0109 39.5074C22.3082 39.8047 22.5503 40.1572 22.7216 40.5474H29.7217V40.5507C30.0179 40.5507 30.3097 40.6789 30.5108 40.9253L34.1822 45.4201C34.5369 45.8566 34.4706 46.4965 34.0352 46.8512C33.5997 47.206 32.9587 47.1397 32.604 46.7043L29.2421 42.5875H22.9304C22.7945 43.244 22.4685 43.8308 22.0109 44.2873C21.3998 44.8995 20.5543 45.2775 19.6205 45.2775C18.6866 45.2775 17.8422 44.8995 17.23 44.2873C16.6177 43.675 16.2397 42.8306 16.2397 41.8968C16.2397 40.9629 16.6177 40.1186 17.23 39.5074ZM60.8366 39.5229H56.2546H44.4216H39.8395C39.2472 39.5229 38.7078 39.766 38.3166 40.1572C37.9254 40.5485 37.6811 41.0889 37.6811 41.6813V59.6966C37.6811 60.289 37.9243 60.8283 38.3166 61.2196C38.7078 61.6108 39.2472 61.8539 39.8395 61.8539H60.8366C61.429 61.8539 61.9683 61.6108 62.3596 61.2196C62.7508 60.8283 62.9939 60.289 62.9939 59.6966V41.6813C62.9939 41.0889 62.7508 40.5496 62.3596 40.1572C61.9683 39.766 61.4301 39.5229 60.8366 39.5229ZM51.1509 50.8033C51.4029 50.663 51.614 50.4585 51.7632 50.2132C51.9157 49.9634 52.0041 49.6661 52.0041 49.3456C52.0041 48.8859 51.8173 48.4692 51.5167 48.1686C51.2161 47.868 50.7995 47.6812 50.3386 47.6812C49.8789 47.6812 49.4633 47.8669 49.1616 48.1686C48.861 48.4692 48.6742 48.8859 48.6742 49.3456C48.6742 49.6672 48.7627 49.9645 48.9141 50.2132C49.0644 50.4585 49.2755 50.6619 49.5263 50.8022C49.8844 50.9614 50.1331 51.3195 50.1331 51.7361V53.4911C50.1331 53.5464 50.1563 53.5983 50.1938 53.6359C50.2314 53.6735 50.2834 53.6967 50.3375 53.6967C50.3928 53.6967 50.4447 53.6735 50.4823 53.6359L50.4845 53.6381C50.521 53.6005 50.5431 53.5486 50.5431 53.4911V51.7361C50.5431 51.3206 50.7929 50.9625 51.1509 50.8033Z" fill="#3C7CFF"/>
<path fill-rule="evenodd" clip-rule="evenodd" d="M48.0918 52.2909C47.7271 52.0124 47.4155 51.6676 47.1756 51.2741C46.8308 50.7094 46.6319 50.0496 46.6319 49.3456C46.6319 48.3222 47.0463 47.3961 47.7172 46.7253C48.388 46.0544 49.3141 45.64 50.3375 45.64C51.3609 45.64 52.2882 46.0544 52.959 46.7253C53.6298 47.3961 54.0443 48.3222 54.0443 49.3456C54.0443 50.0485 53.8453 50.7094 53.5016 51.2741C53.2607 51.6676 52.949 52.0124 52.5843 52.2909V53.4911C52.5843 54.1078 52.3324 54.6681 51.9256 55.0748L51.9245 55.077L51.9256 55.0792C51.5189 55.4859 50.9575 55.7379 50.3375 55.7379C49.7186 55.7379 49.1572 55.4848 48.7505 55.0792C48.3438 54.6725 48.0918 54.1111 48.0918 53.4911V52.2909ZM40.8596 34.9342C40.8596 35.4979 40.4032 35.9543 39.8395 35.9543C39.2759 35.9543 38.8183 35.4979 38.8183 34.9342V17.2438H34.7104C34.6077 17.3521 34.5005 17.456 34.3888 17.5576C33.2074 18.6363 31.5839 19.3071 29.8035 19.3071H21.1931V22.1883H32.8206C33.3842 22.1883 33.8407 22.6458 33.8407 23.2084C33.8407 23.772 33.3842 24.2284 32.8206 24.2284H20.1741H7.52549C6.96185 24.2284 6.50542 23.772 6.50542 23.2084C6.50542 22.6447 6.96296 22.1883 7.52549 22.1883H19.153V19.3071H10.5426C8.76217 19.3071 7.13868 18.6374 5.95725 17.5576C4.75041 16.4547 4 14.9273 4 13.242C4 11.5566 4.7493 10.0292 5.95725 8.92627C6.99611 7.97693 8.37868 7.34367 9.90934 7.20552C9.90823 7.15911 9.90823 7.11158 9.90823 7.06406C9.90823 5.37315 10.6542 3.84581 11.86 2.74396C13.0403 1.66531 14.6638 1 16.4497 1C18.0268 1 19.4779 1.52053 20.6085 2.38367C21.413 2.99925 22.0562 3.78834 22.4707 4.69126C22.695 4.59511 22.9271 4.51002 23.1647 4.43708C23.819 4.23593 24.5119 4.12763 25.2259 4.12763C26.5399 4.12763 27.7667 4.48902 28.7934 5.10902C29.6941 5.65387 30.4423 6.39765 30.9617 7.27404C32.3863 7.51276 33.6561 8.18249 34.6032 9.13073C35.6852 10.2138 36.3483 11.6582 36.3483 13.242C36.3483 13.9272 36.2245 14.5869 35.9957 15.2025H39.8417C40.4054 15.2025 40.8618 15.6601 40.8618 16.2226V34.9342H40.8596ZM61.8578 34.9342C61.8578 35.4979 61.4003 35.9543 60.8366 35.9543C60.2741 35.9543 59.8166 35.4979 59.8166 34.9342V16.2226C59.8166 15.6601 60.2741 15.2025 60.8366 15.2025H67.7185V5.7456C67.7185 4.85262 68.0832 4.04253 68.6701 3.45569C69.2569 2.86884 70.0681 2.50414 70.96 2.50414H92.734C93.627 2.50414 94.4382 2.86884 95.025 3.45569C95.6119 4.04253 95.9766 4.85372 95.9766 5.7456V16.7056C95.9766 17.5985 95.6119 18.4097 95.025 18.9966C94.4382 19.5834 93.627 19.9481 92.734 19.9481H70.96C70.067 19.9481 69.2569 19.5834 68.6701 18.9966C68.2037 18.5302 67.8777 17.9223 67.7638 17.2449H61.8578V34.9342ZM61.8578 84.1352H69.0215C68.6082 82.2995 68.3905 80.3909 68.3905 78.4303C68.3905 78.0546 68.5949 77.7264 68.8966 77.5506C70.8351 76.43 72.9283 75.5514 75.1364 74.9601C77.2804 74.3865 79.5306 74.0804 81.847 74.0804C84.1645 74.0804 86.4136 74.3865 88.5576 74.9601C90.7657 75.5514 92.86 76.4289 94.7974 77.5495C95.1422 77.7496 95.3267 78.1209 95.3035 78.4933C95.2925 83.177 94.037 87.569 91.851 91.3564C89.5743 95.2996 86.292 98.5864 82.3565 100.863C82.0238 101.055 81.626 101.039 81.3187 100.853C77.391 98.5765 74.1152 95.2941 71.8419 91.3564C70.9003 89.7263 70.1333 87.9845 69.5619 86.1555C69.4956 86.1687 69.426 86.1765 69.3564 86.1765H60.8355C60.273 86.1765 59.8154 85.7189 59.8154 85.1564V66.5266C59.8154 65.9629 60.273 65.5065 60.8355 65.5065C61.3992 65.5065 61.8567 65.9629 61.8567 66.5266L61.8578 84.1352ZM33.1157 84.1452C33.1621 84.1385 33.2096 84.1352 33.2582 84.1352H38.8195V66.5266C38.8195 65.9629 39.277 65.5065 39.8406 65.5065C40.4043 65.5065 40.8607 65.964 40.8607 66.5266V85.1553C40.8607 85.7189 40.4043 86.1754 39.8406 86.1754H33.4826C33.5279 86.6241 33.5511 87.0794 33.5511 87.5403C33.5511 91.2337 32.0536 94.5791 29.6333 96.9994C27.213 99.4197 23.8687 100.917 20.1741 100.917C16.4796 100.917 13.1364 99.4197 10.715 96.9994C8.29469 94.5791 6.79718 91.2348 6.79718 87.5403C6.79718 83.8457 8.29469 80.5025 10.715 78.0811C13.1364 75.6608 16.4807 74.1633 20.1741 74.1633C23.8676 74.1633 27.2119 75.6608 29.6333 78.0811C31.2844 79.7344 32.5056 81.8155 33.1157 84.1452ZM73.9063 22.7243H89.7876C90.3513 22.7243 90.8088 22.2668 90.8088 21.7042C90.8088 21.1417 90.3513 20.6842 89.7876 20.6842H73.9063C73.3427 20.6842 72.8863 21.1417 72.8863 21.7042C72.8863 22.2668 73.3427 22.7243 73.9063 22.7243ZM92.734 4.54428H70.96C70.6306 4.54428 70.3311 4.68021 70.1123 4.89793C69.8946 5.11675 69.7587 5.41626 69.7587 5.7456V16.7056C69.7587 17.0349 69.8946 17.3355 70.1123 17.5532C70.33 17.7709 70.6306 17.9069 70.96 17.9069H92.734C93.0634 17.9069 93.364 17.7709 93.5817 17.5532C93.7994 17.3355 93.9353 17.0349 93.9353 16.7056V5.7456C93.9353 5.41626 93.7994 5.11675 93.5817 4.89793C93.364 4.68021 93.0634 4.54428 92.734 4.54428ZM11.0687 9.21804H10.5426C9.28602 9.21804 8.1488 9.68331 7.32877 10.4326C6.53415 11.1587 6.04125 12.1534 6.04125 13.242C6.04125 14.3305 6.53415 15.3252 7.32877 16.0513C8.1488 16.8006 9.28602 17.2659 10.5426 17.2659H20.173H29.8035C31.0601 17.2659 32.1973 16.8006 33.0173 16.0513C33.8119 15.3263 34.3048 14.3317 34.3048 13.242C34.3048 12.2186 33.8694 11.2781 33.1588 10.5663C32.4238 9.8314 31.396 9.3385 30.2411 9.23793C29.882 9.21472 29.546 9.00032 29.3824 8.64998C29.0409 7.91725 28.4662 7.29394 27.7401 6.85519C27.0229 6.42196 26.1575 6.16888 25.2248 6.16888C24.7053 6.16888 24.2135 6.24403 23.7615 6.38328C23.294 6.52695 22.8575 6.74135 22.4674 7.01101C22.3535 7.09059 22.222 7.14806 22.0772 7.17458C21.5247 7.28068 20.9909 6.91818 20.8848 6.3656C20.7024 5.42731 20.152 4.59843 19.3729 4.00274C18.5871 3.40264 17.5682 3.04014 16.4497 3.04014C15.1865 3.04014 14.0493 3.5021 13.2304 4.2503C12.438 4.97419 11.9484 5.96884 11.9484 7.06296C11.9484 7.21658 11.9572 7.36577 11.9749 7.51055C11.9915 7.64538 12.0147 7.77469 12.0434 7.89846C12.0722 7.9924 12.0887 8.09298 12.0887 8.19686C12.0898 8.7616 11.6323 9.21804 11.0687 9.21804ZM90.0893 90.3441C92.0212 86.9987 93.1639 83.1406 93.2645 79.0227C91.6288 78.1297 89.8749 77.4224 88.0315 76.9295C86.0632 76.4024 83.9899 76.1216 81.847 76.1216C79.7041 76.1216 77.6319 76.4024 75.6625 76.9295C73.819 77.4224 72.0651 78.1297 70.4306 79.0227C70.5312 83.1406 71.6739 86.9976 73.6046 90.3441C75.6006 93.801 78.4409 96.7132 81.847 98.7975C85.2531 96.7121 88.0945 93.801 90.0893 90.3441ZM86.1339 82.031L81.6901 87.1767L79.5184 85.5974C79.0631 85.2669 78.4254 85.3686 78.0949 85.825C77.7645 86.2804 77.8662 86.918 78.3226 87.2485L81.2491 89.377L81.2502 89.3759C81.6724 89.6832 82.2681 89.6202 82.6162 89.2179L87.6723 83.3638C88.0404 82.9394 87.9939 82.2962 87.5685 81.9293C87.1441 81.5591 86.502 81.6055 86.1339 82.031ZM28.1899 79.5256C26.1387 77.4744 23.3051 76.2056 20.1741 76.2056C17.0432 76.2056 14.2096 77.4744 12.1584 79.5256C10.1072 81.5768 8.83843 84.4104 8.83843 87.5414C8.83843 90.6723 10.1072 93.506 12.1584 95.5571C14.2096 97.6083 17.0443 98.8771 20.1741 98.8771C23.304 98.8771 26.1387 97.6083 28.1899 95.5571C30.2411 93.506 31.5099 90.6723 31.5099 87.5414C31.5099 84.4104 30.2411 81.5768 28.1899 79.5256ZM17.766 93.3413V95.6478C17.766 96.2114 18.2235 96.6678 18.7872 96.6678C19.3508 96.6678 19.8072 96.2103 19.8072 95.6478V93.3413C19.8072 92.7776 19.3497 92.3201 18.7872 92.3201C18.2224 92.3201 17.766 92.7776 17.766 93.3413ZM22.5823 95.6864V86.6661C22.5823 86.0019 22.3115 85.3995 21.875 84.9641C21.4396 84.5276 20.8372 84.2579 20.1741 84.2579C19.5144 84.2579 18.9131 84.5287 18.4744 84.9663L18.4722 84.9652C18.0356 85.4006 17.7649 86.003 17.7649 86.6672V89.4555C17.7649 90.0191 18.2224 90.4756 18.7861 90.4756C19.3497 90.4756 19.8061 90.018 19.8061 89.4555V86.6672C19.8061 86.5666 19.8481 86.4749 19.9144 86.4086L19.9122 86.4063L19.9144 86.4053C19.9785 86.34 20.0703 86.3003 20.173 86.3003C20.2725 86.3003 20.3642 86.3422 20.4305 86.4097C20.498 86.476 20.54 86.5677 20.54 86.6683V95.6887C20.54 96.2523 20.9964 96.7087 21.56 96.7087C22.1248 96.7065 22.5823 96.249 22.5823 95.6864ZM25.5221 94.9184V93.3413C25.5221 92.7776 25.0656 92.3201 24.502 92.3201C23.9384 92.3201 23.4819 92.7776 23.4819 93.3413V94.9184C23.4819 95.482 23.9395 95.9384 24.502 95.9384C25.0656 95.9384 25.5221 95.482 25.5221 94.9184ZM25.5221 89.4544V86.6661C25.5221 85.194 24.9208 83.8567 23.9516 82.8875C22.9835 81.9183 21.6462 81.317 20.1741 81.317C18.7021 81.317 17.3648 81.9183 16.3956 82.8875C15.4274 83.8556 14.8251 85.194 14.8251 86.6661V94.7868C14.8251 95.3505 15.2827 95.8069 15.8452 95.8069C16.4077 95.8069 16.8653 95.3494 16.8653 94.7868V86.6661C16.8653 85.7565 17.2377 84.9298 17.8378 84.3308C18.4379 83.7307 19.2646 83.3583 20.173 83.3583C21.0815 83.3583 21.9082 83.7307 22.5083 84.3308C23.1084 84.9298 23.4808 85.7576 23.4808 86.6661V89.4544C23.4808 90.018 23.9384 90.4745 24.5009 90.4745C25.0656 90.4756 25.5221 90.018 25.5221 89.4544ZM11.8854 89.4544V92.8042C11.8854 93.3678 12.3429 93.8242 12.9055 93.8242C13.4691 93.8242 13.9266 93.3678 13.9266 92.8042V89.4544C13.9266 88.8908 13.4691 88.4343 12.9055 88.4343C12.3418 88.4343 11.8854 88.8919 11.8854 89.4544ZM28.4629 93.3413V86.6661C28.4629 84.385 27.5302 82.3128 26.0282 80.8109C24.5263 79.309 22.4541 78.3762 20.173 78.3762C17.892 78.3762 15.8198 79.309 14.3179 80.8109C12.8159 82.3128 11.8843 84.385 11.8843 86.6661C11.8843 87.2286 12.3418 87.6861 12.9043 87.6861C13.468 87.6861 13.9255 87.2286 13.9255 86.6661C13.9255 84.9486 14.6284 83.387 15.7612 82.2531C16.894 81.1203 18.4556 80.4163 20.1741 80.4163C21.8916 80.4163 23.4532 81.1203 24.586 82.2531C25.7188 83.3859 26.4228 84.9475 26.4228 86.6661V93.3413C26.4228 93.9049 26.8803 94.3614 27.4428 94.3614C28.0054 94.3614 28.4629 93.9049 28.4629 93.3413ZM43.4015 37.4827H39.8395C38.6835 37.4827 37.6336 37.9546 36.8721 38.7161C36.1118 39.4765 35.6399 40.5264 35.6399 41.6824V59.6977C35.6399 60.8537 36.1118 61.9036 36.8721 62.664C37.6325 63.4244 38.6835 63.8963 39.8395 63.8963H60.8366C61.9926 63.8963 63.0425 63.4244 63.8029 62.664C64.5633 61.9036 65.0352 60.8537 65.0352 59.6977V41.6813C65.0352 40.5253 64.5633 39.4753 63.8029 38.715C63.0425 37.9546 61.9926 37.4816 60.8366 37.4816H57.2747V36.8207C57.2747 35.1409 56.6989 33.6047 55.7694 32.4841C54.7969 31.3093 53.4386 30.5798 51.9301 30.5798H48.7439C47.2364 30.5798 45.8782 31.3093 44.9056 32.4841C43.9773 33.6058 43.4004 35.1409 43.4004 36.8207L43.4015 37.4827ZM55.2345 37.4827H45.4427V36.8207C45.4427 35.6283 45.8384 34.554 46.4772 33.7826C47.0717 33.0654 47.8752 32.62 48.745 32.62H51.9312C52.8021 32.62 53.6055 33.0654 54.2001 33.7826C54.8389 34.554 55.2356 35.6283 55.2356 36.8207L55.2345 37.4827ZM80.754 57.9372C81.6879 57.9372 82.5333 58.3152 83.1445 58.9274C83.7567 59.5397 84.1347 60.384 84.1347 61.3179C84.1347 62.2507 83.7567 63.0961 83.1445 63.7084C82.5333 64.3207 81.6879 64.6986 80.754 64.6986C79.8201 64.6986 78.9758 64.3207 78.3635 63.7084C78.0386 63.3835 77.78 62.9922 77.6076 62.5579H70.9545V62.5546C70.6583 62.5546 70.3654 62.4264 70.1654 62.1788L66.494 57.6841C66.1392 57.2476 66.2055 56.6077 66.641 56.2529C67.0775 55.8993 67.7174 55.9645 68.0722 56.401L71.4341 60.5178H77.4683C77.6164 59.9055 77.9314 59.3596 78.3635 58.9285C78.9758 58.3163 79.8212 57.9372 80.754 57.9372ZM81.7022 60.3708C81.4602 60.1276 81.1253 59.9784 80.7551 59.9784C80.3848 59.9784 80.05 60.1287 79.808 60.3708C79.5659 60.6128 79.4156 60.9477 79.4156 61.3179C79.4156 61.6881 79.5659 62.023 79.808 62.265C80.05 62.5071 80.3848 62.6574 80.7551 62.6574C81.1253 62.6574 81.4602 62.5071 81.7022 62.265C81.9454 62.023 82.0946 61.6881 82.0946 61.3179C82.0946 60.9477 81.9454 60.6128 81.7022 60.3708ZM79.609 48.1719C80.5429 48.1719 81.3872 48.551 81.9995 49.1622C82.6118 49.7744 82.9897 50.6199 82.9897 51.5526C82.9897 52.4865 82.6118 53.332 81.9995 53.9431C81.3872 54.5554 80.5418 54.9333 79.609 54.9333C78.6752 54.9333 77.8297 54.5543 77.2186 53.9431C76.8395 53.5651 76.5499 53.0966 76.3853 52.5738H67.2842C66.7206 52.5738 66.2641 52.1163 66.2641 51.5526C66.2641 50.989 66.7217 50.5326 67.2842 50.5326H76.3853C76.5499 50.0087 76.8406 49.5412 77.2186 49.1622C77.8297 48.551 78.6752 48.1719 79.609 48.1719ZM80.5562 50.6055C80.313 50.3635 79.9782 50.2132 79.609 50.2132C79.2388 50.2132 78.9028 50.3635 78.6619 50.6055C78.4188 50.8486 78.2696 51.1835 78.2696 51.5526C78.2696 51.9229 78.4199 52.2588 78.6619 52.5009C78.9039 52.7429 79.2388 52.8932 79.609 52.8932C79.9782 52.8932 80.3141 52.7429 80.5562 52.5009C80.7982 52.2588 80.9485 51.924 80.9485 51.5526C80.9485 51.1835 80.7982 50.8475 80.5562 50.6055ZM81.0557 38.5172C81.9896 38.5172 82.835 38.8951 83.4462 39.5074C84.0584 40.1186 84.4364 40.964 84.4364 41.8979C84.4364 42.8317 84.0584 43.6761 83.4462 44.2884C82.835 44.9006 81.9896 45.2786 81.0557 45.2786C80.1218 45.2786 79.2775 44.9006 78.6652 44.2884C78.2088 43.8319 77.8816 43.2451 77.7457 42.5886H71.4352L68.0733 46.7054C67.7185 47.1408 67.0786 47.2071 66.6421 46.8524C66.2055 46.4976 66.1403 45.8577 66.4951 45.4212L70.1665 40.9264C70.3676 40.6789 70.6605 40.5518 70.9556 40.5518V40.5485H77.9557C78.1259 40.1572 78.369 39.8047 78.6663 39.5085C79.2775 38.8951 80.1229 38.5172 81.0557 38.5172ZM82.0039 40.9496C81.7619 40.7065 81.427 40.5573 81.0568 40.5573C80.6866 40.5573 80.3517 40.7076 80.1097 40.9496C79.8676 41.1917 79.7173 41.5265 79.7173 41.8968C79.7173 42.267 79.8676 42.6019 80.1097 42.8439C80.3517 43.0859 80.6866 43.2362 81.0568 43.2362C81.427 43.2362 81.7619 43.0859 82.0039 42.8439C82.2471 42.6008 82.3963 42.267 82.3963 41.8968C82.3963 41.5265 82.2471 41.1917 82.0039 40.9496ZM19.9222 59.9784C19.5519 59.9784 19.2171 60.1287 18.975 60.3708C18.733 60.6128 18.5827 60.9477 18.5827 61.3179C18.5827 61.687 18.733 62.023 18.975 62.265C19.2182 62.5071 19.5519 62.6574 19.9222 62.6574C20.2924 62.6574 20.6273 62.5071 20.8693 62.265C21.1124 62.023 21.2616 61.6881 21.2616 61.3179C21.2616 60.9477 21.1113 60.6128 20.8693 60.3708C20.6273 60.1276 20.2924 59.9784 19.9222 59.9784ZM17.5317 58.9274C18.144 58.3152 18.9883 57.9372 19.9222 57.9372C20.856 57.9372 21.7015 58.3152 22.3126 58.9274C22.7437 59.3584 23.0586 59.9055 23.2078 60.5167H29.2421L32.604 56.3999C32.9587 55.9634 33.5986 55.8982 34.0352 56.2518C34.4717 56.6066 34.5369 57.2465 34.1822 57.683L30.5108 62.1777C30.3097 62.4253 30.0179 62.5524 29.7217 62.5535V62.5568H23.0686C22.8962 62.9911 22.6376 63.3824 22.3126 63.7073C21.7015 64.3195 20.856 64.6975 19.9222 64.6975C18.9883 64.6975 18.144 64.3195 17.5317 63.7073C16.9194 63.095 16.5415 62.2507 16.5415 61.3168C16.5415 60.3829 16.9194 59.5397 17.5317 58.9274ZM21.0682 50.2132C20.698 50.2132 20.3631 50.3635 20.1211 50.6055C19.8791 50.8486 19.7288 51.1835 19.7288 51.5526C19.7288 51.9229 19.8791 52.2588 20.1211 52.5009C20.3631 52.7429 20.698 52.8932 21.0682 52.8932C21.4374 52.8932 21.7733 52.7429 22.0154 52.5009C22.2574 52.2588 22.4077 51.924 22.4077 51.5526C22.4077 51.1835 22.2574 50.8475 22.0154 50.6055C21.7733 50.3624 21.4385 50.2132 21.0682 50.2132ZM18.6777 49.1622C19.29 48.551 20.1344 48.1719 21.0682 48.1719C22.0021 48.1719 22.8464 48.551 23.4587 49.1622C23.8378 49.5412 24.1262 50.0098 24.292 50.5326H33.392C33.9556 50.5326 34.412 50.989 34.412 51.5526C34.412 52.1163 33.9545 52.5738 33.392 52.5738H24.292C24.1262 53.0966 23.8367 53.5651 23.4587 53.9431C22.8464 54.5554 22.001 54.9333 21.0682 54.9333C20.1344 54.9333 19.29 54.5543 18.6777 53.9431C18.0655 53.332 17.6875 52.4865 17.6875 51.5526C17.6875 50.6199 18.0655 49.7744 18.6777 49.1622ZM19.6205 40.5573C19.2502 40.5573 18.9154 40.7076 18.6733 40.9496C18.4313 41.1917 18.281 41.5265 18.281 41.8968C18.281 42.267 18.4313 42.6019 18.6733 42.8439C18.9154 43.0859 19.2502 43.2362 19.6205 43.2362C19.9907 43.2362 20.3256 43.0859 20.5676 42.8439C20.8107 42.6008 20.9599 42.267 20.9599 41.8968C20.9599 41.5265 20.8096 41.1917 20.5676 40.9496C20.3256 40.7076 19.9907 40.5573 19.6205 40.5573ZM17.23 39.5074C17.8422 38.8951 18.6877 38.5172 19.6205 38.5172C20.5543 38.5172 21.3998 38.8951 22.0109 39.5074C22.3082 39.8047 22.5503 40.1572 22.7216 40.5474H29.7217V40.5507C30.0179 40.5507 30.3097 40.6789 30.5108 40.9253L34.1822 45.4201C34.5369 45.8566 34.4706 46.4965 34.0352 46.8512C33.5997 47.206 32.9587 47.1397 32.604 46.7043L29.2421 42.5875H22.9304C22.7945 43.244 22.4685 43.8308 22.0109 44.2873C21.3998 44.8995 20.5543 45.2775 19.6205 45.2775C18.6866 45.2775 17.8422 44.8995 17.23 44.2873C16.6177 43.675 16.2397 42.8306 16.2397 41.8968C16.2397 40.9629 16.6177 40.1186 17.23 39.5074ZM60.8366 39.5229H56.2546H44.4216H39.8395C39.2472 39.5229 38.7078 39.766 38.3166 40.1572C37.9254 40.5485 37.6811 41.0889 37.6811 41.6813V59.6966C37.6811 60.289 37.9243 60.8283 38.3166 61.2196C38.7078 61.6108 39.2472 61.8539 39.8395 61.8539H60.8366C61.429 61.8539 61.9683 61.6108 62.3596 61.2196C62.7508 60.8283 62.9939 60.289 62.9939 59.6966V41.6813C62.9939 41.0889 62.7508 40.5496 62.3596 40.1572C61.9683 39.766 61.4301 39.5229 60.8366 39.5229ZM51.1509 50.8033C51.4029 50.663 51.614 50.4585 51.7632 50.2132C51.9157 49.9634 52.0041 49.6661 52.0041 49.3456C52.0041 48.8859 51.8173 48.4692 51.5167 48.1686C51.2161 47.868 50.7995 47.6812 50.3386 47.6812C49.8789 47.6812 49.4633 47.8669 49.1616 48.1686C48.861 48.4692 48.6742 48.8859 48.6742 49.3456C48.6742 49.6672 48.7627 49.9645 48.9141 50.2132C49.0644 50.4585 49.2755 50.6619 49.5263 50.8022C49.8844 50.9614 50.1331 51.3195 50.1331 51.7361V53.4911C50.1331 53.5464 50.1563 53.5983 50.1938 53.6359C50.2314 53.6735 50.2834 53.6967 50.3375 53.6967C50.3928 53.6967 50.4447 53.6735 50.4823 53.6359L50.4845 53.6381C50.521 53.6005 50.5431 53.5486 50.5431 53.4911V51.7361C50.5431 51.3206 50.7929 50.9625 51.1509 50.8033Z" stroke="#3C7CFF" stroke-width="0.4" mask="url(#path-1-outside-1_125_720)"/>
</svg>
