<svg width="100" height="94" viewBox="0 0 100 94" fill="none" xmlns="http://www.w3.org/2000/svg">
<path d="M65 60.5276H63.3334V53.8609C63.3334 46.5109 57.35 40.5276 50 40.5276C42.65 40.5276 36.6667 46.5109 36.6667 53.8609V60.5276H35C30.4 60.5276 26.6667 64.2609 26.6667 68.8609V85.5276C26.6667 90.1276 30.4 93.8609 35 93.8609H65C69.6 93.8609 73.3334 90.1276 73.3334 85.5276V68.8609C73.3334 64.2609 69.6 60.5276 65 60.5276ZM40 53.8609C40 48.3443 44.4834 43.8609 50 43.8609C55.5167 43.8609 60 48.3443 60 53.8609V60.5276H40V53.8609ZM70 85.5276C70 88.2776 67.75 90.5276 65 90.5276H35C32.25 90.5276 30 88.2776 30 85.5276V68.8609C30 66.1109 32.25 63.8609 35 63.8609H65C67.75 63.8609 70 66.1109 70 68.8609V85.5276Z" fill="#3C7CFF"/>
<path d="M90 0.527588H10C4.48333 0.527588 0 5.01092 0 10.5276V60.5276C0 66.0443 4.48333 70.5276 10 70.5276H21.6667C22.5833 70.5276 23.3333 69.7776 23.3333 68.8609C23.3333 67.9443 22.5833 67.1943 21.6667 67.1943H10C6.31667 67.1943 3.33333 64.2109 3.33333 60.5276V33.8609H96.6667V60.5276C96.6667 64.2109 93.6833 67.1943 90 67.1943H78.3333C77.4167 67.1943 76.6667 67.9443 76.6667 68.8609C76.6667 69.7776 77.4167 70.5276 78.3333 70.5276H90C95.5167 70.5276 100 66.0443 100 60.5276V10.5276C100 5.01092 95.5167 0.527588 90 0.527588ZM10 3.86092H90C93.6833 3.86092 96.6667 6.84425 96.6667 10.5276V13.8609H3.33333V10.5276C3.33333 6.84425 6.31667 3.86092 10 3.86092ZM3.33333 30.5276V17.1943H96.6667V30.5276H3.33333Z" fill="#3C7CFF"/>
<path d="M21.6667 57.1943H11.6667C10.75 57.1943 10 56.4443 10 55.5276C10 54.611 10.75 53.861 11.6667 53.861H21.6667C22.5833 53.861 23.3333 54.611 23.3333 55.5276C23.3333 56.4443 22.5833 57.1943 21.6667 57.1943Z" fill="#3C7CFF"/>
<path d="M28.3333 48.8609H11.6667C10.75 48.8609 10 48.1109 10 47.1943C10 46.2776 10.75 45.5276 11.6667 45.5276H28.3333C29.25 45.5276 30 46.2776 30 47.1943C30 48.1109 29.25 48.8609 28.3333 48.8609Z" fill="#3C7CFF"/>
<path d="M83.3334 58.8609C79.65 58.8609 76.6667 55.8776 76.6667 52.1943C76.6667 48.5109 79.65 45.5276 83.3334 45.5276C87.0167 45.5276 90 48.5109 90 52.1943C90 55.8776 87.0167 58.8609 83.3334 58.8609ZM83.3334 48.8609C81.5 48.8609 80 50.3609 80 52.1943C80 54.0276 81.5 55.5276 83.3334 55.5276C85.1667 55.5276 86.6667 54.0276 86.6667 52.1943C86.6667 50.3609 85.1667 48.8609 83.3334 48.8609Z" fill="#3C7CFF"/>
<path d="M55 73.861C55 71.111 52.75 68.861 50 68.861C47.25 68.861 45 71.111 45 73.861C45 76.0276 46.4 77.861 48.3333 78.561V83.861C48.3333 84.7776 49.0833 85.5276 50 85.5276C50.9167 85.5276 51.6667 84.7776 51.6667 83.861V78.561C53.6 77.8776 55 76.0443 55 73.861ZM50 72.1943C50.9167 72.1943 51.6667 72.9443 51.6667 73.861C51.6667 74.7776 50.9167 75.5276 50 75.5276C49.0833 75.5276 48.3333 74.7776 48.3333 73.861C48.3333 72.9443 49.0833 72.1943 50 72.1943Z" fill="#3C7CFF"/>
</svg>
