<svg width="102" height="102" viewBox="0 0 102 102" fill="none" xmlns="http://www.w3.org/2000/svg">
<path d="M65.2046 87.0936H59.5227C57.4986 87.0936 55.8436 88.7486 55.8436 90.7727V93.0455C55.8436 95.0696 57.4986 96.7246 59.5227 96.7246H65.2046C67.2287 96.7246 68.8836 95.0696 68.8836 93.0455V90.7727C68.8836 88.7486 67.2287 87.0936 65.2046 87.0936ZM66.0709 93.0455C66.0709 93.5213 65.6804 93.9118 65.2046 93.9118H59.5227C59.0469 93.9118 58.6564 93.5213 58.6564 93.0455V90.7727C58.6564 90.2969 59.0469 89.9064 59.5227 89.9064H65.2046C65.6804 89.9064 66.0709 90.2969 66.0709 90.7727V93.0455Z" fill="#3C7CFF" stroke="#3C7CFF" stroke-width="0.54"/>
<path d="M11.2272 54.6791H24.8635C25.6377 54.6791 26.2699 54.0468 26.2699 53.2727V44.1818C26.2699 43.4077 25.6377 42.7754 24.8635 42.7754H11.2272C10.4531 42.7754 9.82082 43.4077 9.82082 44.1818V53.2727C9.82082 54.0468 10.4531 54.6791 11.2272 54.6791ZM12.6335 45.5882H23.4572V51.8663H12.6335V45.5882Z" fill="#3C7CFF" stroke="#3C7CFF" stroke-width="0.54"/>
<path d="M45.3181 52.4064H55.5454C56.3195 52.4064 56.9518 51.7741 56.9518 51C56.9518 50.2259 56.3195 49.5936 55.5454 49.5936H45.3181C44.544 49.5936 43.9118 50.2259 43.9118 51C43.9118 51.7741 44.544 52.4064 45.3181 52.4064Z" fill="#3C7CFF" stroke="#3C7CFF" stroke-width="0.54"/>
<path d="M30.5454 60.9573H11.2272C10.4531 60.9573 9.82082 61.5895 9.82082 62.3637C9.82082 63.1378 10.4531 63.77 11.2272 63.77H30.5454C31.3195 63.77 31.9517 63.1378 31.9517 62.3637C31.9517 61.5895 31.3195 60.9573 30.5454 60.9573Z" fill="#3C7CFF" stroke="#3C7CFF" stroke-width="0.54"/>
<path d="M98.4573 68.1618H98.4686V46.2955C98.4686 45.9682 98.2141 45.7092 97.9137 45.7017L97.9102 45.7016C95.7935 45.6215 93.6765 45.3698 91.6161 44.9463L91.6158 44.9462C87.8504 44.168 84.2229 42.8176 80.8249 40.9414M98.4573 68.1618L80.9545 40.7045M98.4573 68.1618V68.4318C98.4573 73.9521 95.9832 79.1018 91.6722 82.5505L91.8409 82.7614L91.6722 82.5505L80.9241 91.1513C80.9237 91.1516 80.9233 91.152 80.9229 91.1523C80.7031 91.3241 80.3992 91.3241 80.1794 91.1523C80.179 91.152 80.1786 91.1516 80.1782 91.1513L69.4301 82.5505L69.2614 82.7614L69.43 82.5505C65.119 79.1017 62.645 73.9634 62.645 68.4318V46.2955C62.645 45.9656 62.8906 45.7093 63.1998 45.7018L63.2034 45.7016C65.3088 45.6215 67.4258 45.3698 69.4973 44.9463L69.4978 44.9462C73.263 44.168 76.9021 42.8177 80.2892 40.9411M98.4573 68.1618L80.1591 40.7045M80.8249 40.9414C80.8246 40.9412 80.8243 40.9411 80.824 40.9409L80.9545 40.7045M80.8249 40.9414C80.825 40.9414 80.8251 40.9415 80.8252 40.9416L80.9545 40.7045M80.8249 40.9414C80.7395 40.8949 80.6478 40.8723 80.5568 40.8723C80.466 40.8723 80.3744 40.8948 80.2892 40.9411M80.9545 40.7045C80.8295 40.6364 80.6932 40.6023 80.5568 40.6023C80.4205 40.6023 80.2841 40.6364 80.1591 40.7045M80.2892 40.9411C80.2894 40.941 80.2897 40.9409 80.2899 40.9407L80.1591 40.7045M80.2892 40.9411C80.2889 40.9413 80.2887 40.9414 80.2884 40.9416L80.1591 40.7045M36.2273 98.4573H88.5C90.2259 98.4573 91.6391 97.0441 91.6391 95.3182V86.1756L82.6805 93.3468L36.2273 98.4573ZM36.2273 98.4573C34.5014 98.4573 33.0882 97.0441 33.0882 95.3182V71.7245M36.2273 98.4573L33.0882 71.7245M33.0882 71.7245H60.0861C60.8905 76.8256 63.5441 81.456 67.6609 84.7449L33.0882 71.7245ZM80.5455 94.0995C79.793 94.0995 79.0398 93.8526 78.4109 93.3472L80.5455 94.0995ZM80.5455 94.0995C81.2979 94.0995 82.0511 93.8526 82.6801 93.3472L80.5455 94.0995ZM101.27 46.2955C101.27 44.548 99.9736 43.0968 98.27 42.908V42.8872L98.0096 42.8779C96.8258 42.8356 95.6401 42.7138 94.4518 42.54V6.68182C94.4518 3.39634 91.7855 0.73 88.5 0.73H36.2273C32.9418 0.73 30.2755 3.39634 30.2755 6.68182V16.6391H5.54545C2.88497 16.6391 0.73 18.7941 0.73 21.4545V66.9091C0.73 69.5696 2.88497 71.7245 5.54545 71.7245H30.2755V95.3182C30.2755 98.6037 32.9418 101.27 36.2273 101.27H88.5C91.7855 101.27 94.4518 98.6037 94.4518 95.3182V83.87C98.8054 79.9146 101.27 74.3655 101.27 68.4318V46.2955ZM63.0816 42.8779L63.0804 42.8779C62.1738 42.9133 61.3666 43.2975 60.7795 43.9118H33.9545C33.1804 43.9118 32.5482 44.5441 32.5482 45.3182C32.5482 46.0923 33.1804 46.7245 33.9545 46.7245H59.8209V68.4318C59.8209 68.5927 59.8255 68.7532 59.8317 68.9118H5.54545C4.44457 68.9118 3.54273 68.01 3.54273 66.9091V38.77H78.3601C75.3745 40.3598 72.2031 41.4992 68.9115 42.1787C66.9942 42.5735 65.0434 42.8102 63.0816 42.8779ZM71.1845 3.54273V4.40909C71.1845 5.50997 70.2827 6.41182 69.1818 6.41182H55.5455C54.4446 6.41182 53.5427 5.50997 53.5427 4.40909V3.54273H71.1845ZM33.0882 6.68182C33.0882 4.95594 34.5014 3.54273 36.2273 3.54273H50.73V4.40909C50.73 7.06957 52.885 9.22455 55.5455 9.22455H69.1818C71.8423 9.22455 73.9973 7.06957 73.9973 4.40909V3.54273H88.5C90.2259 3.54273 91.6391 4.95593 91.6391 6.68182V42.0631C88.3401 41.3335 85.1599 40.1295 82.1799 38.4817C82.1061 38.438 82.0256 38.4041 81.9518 38.3766V21.4659C81.9518 18.8054 79.7968 16.6505 77.1364 16.6505H33.0882V6.69318V6.68182ZM3.54273 28.5427H79.1391V35.9573H3.54273V28.5427ZM5.54545 19.4518H77.1364C78.2372 19.4518 79.1391 20.3537 79.1391 21.4545V25.73H3.54273V21.4545C3.54273 20.3537 4.44457 19.4518 5.54545 19.4518ZM67.661 84.745L78.4104 93.3468L67.661 84.745Z" fill="#3C7CFF" stroke="#3C7CFF" stroke-width="0.54"/>
<path d="M85.8705 59.6591L85.8409 59.6295L85.6499 59.8204L79.409 66.0613L75.9863 62.6386C75.4377 62.09 74.5508 62.09 74.0022 62.6386C73.4536 63.1872 73.4536 64.0741 74.0022 64.6227L78.4226 69.0432C78.7048 69.3254 79.0596 69.4518 79.4204 69.4518C79.7874 69.4518 80.1374 69.31 80.4132 69.048L80.4132 69.0481L80.4181 69.0432L87.6454 61.8159C88.194 61.2673 88.194 60.3804 87.6454 59.8318C87.1621 59.3485 86.4163 59.291 85.8705 59.6591Z" fill="#3C7CFF" stroke="#3C7CFF" stroke-width="0.54"/>
<path d="M80.5455 49.5936C72.8737 49.5936 66.6392 55.8282 66.6392 63.5C66.6392 71.1719 72.8737 77.4064 80.5455 77.4064C88.2174 77.4064 94.4519 71.1719 94.4519 63.5C94.4519 55.8282 88.2174 49.5936 80.5455 49.5936ZM80.5455 74.5936C74.4333 74.5936 69.4519 69.6123 69.4519 63.5C69.4519 57.3878 74.4333 52.4064 80.5455 52.4064C86.6578 52.4064 91.6392 57.3878 91.6392 63.5C91.6392 69.6123 86.6578 74.5936 80.5455 74.5936Z" fill="#3C7CFF" stroke="#3C7CFF" stroke-width="0.54"/>
</svg>
