<svg width="100" height="102" viewBox="0 0 100 102" fill="none" xmlns="http://www.w3.org/2000/svg">
<path d="M10.1796 101.519H89.8243C95.4356 101.519 100 96.9505 100 91.3392C100 59.5777 100 23.5052 100 10.1796C100 4.56835 95.4356 0 89.8243 0H10.1757C4.56438 0 0 4.56835 0 10.1796C0 23.507 0 59.5775 0 91.3392C0 96.9505 4.56835 101.519 10.1796 101.519ZM95.9393 91.3392C95.9393 94.7139 93.1951 97.4581 89.8243 97.4581H10.1796C6.80488 97.4581 4.06075 94.7139 4.06075 91.3392V20.6289H95.9393V91.3392ZM4.06075 10.1796C4.06075 6.80493 6.80488 4.06075 10.1757 4.06075H89.8243C93.1951 4.06075 95.9393 6.80493 95.9393 10.1796V16.5682H4.06075V10.1796Z" fill="#3C7CFF"/>
<path d="M66.5384 8.28406H61.3038C60.1816 8.28406 59.2734 9.19218 59.2734 10.3144C59.2734 11.4367 60.1816 12.3448 61.3038 12.3448H66.5384C67.6606 12.3448 68.5688 11.4367 68.5688 10.3144C68.5688 9.19218 67.6606 8.28406 66.5384 8.28406Z" fill="#3C7CFF"/>
<path d="M77.6856 8.28406H72.451C71.3288 8.28406 70.4207 9.19218 70.4207 10.3144C70.4207 11.4367 71.3288 12.3448 72.451 12.3448H77.6856C78.8079 12.3448 79.716 11.4367 79.716 10.3144C79.716 9.19218 78.8079 8.28406 77.6856 8.28406Z" fill="#3C7CFF"/>
<path d="M88.8368 8.28406H83.5982C82.476 8.28406 81.5679 9.19218 81.5679 10.3144C81.5679 11.4367 82.476 12.3448 83.5982 12.3448H88.8368C89.959 12.3448 90.8672 11.4367 90.8672 10.3144C90.8672 9.19218 89.959 8.28406 88.8368 8.28406Z" fill="#3C7CFF"/>
<path d="M15.6125 67.0858H30.8483C32.4841 67.0858 33.8586 66.2104 34.7221 64.9562H39.805C42.5135 77.0822 53.0964 85.7478 65.7493 85.7478C80.4616 85.7478 92.4297 73.7559 92.4297 59.0198C92.4297 44.3075 80.4616 32.3394 65.7493 32.3394C53.2977 32.3394 42.4905 41.2064 39.8082 53.1309H34.7202C33.8564 51.8795 32.4828 51.0053 30.8483 51.0053H15.6125C11.179 51.0053 7.57031 54.61 7.57031 59.0436C7.57031 63.4771 11.179 67.0858 15.6125 67.0858ZM65.7493 36.4001C78.2211 36.4001 88.369 46.548 88.369 59.0198C88.369 71.5193 78.2211 81.687 65.7493 81.687C54.5109 81.687 45.1045 73.6646 43.3795 62.5531C43.1812 61.4943 43.086 60.3363 43.086 59.0198C43.086 57.7349 43.1812 56.5928 43.3914 55.4745C45.0847 44.6009 54.6973 36.4001 65.7493 36.4001ZM35.6506 57.1916H39.0848C39.0451 57.7785 39.0253 58.3853 39.0253 59.0198C39.0253 59.6741 39.0451 60.2967 39.0887 60.8955H35.6506V57.1916ZM15.6125 55.0661H30.8483C31.2488 55.0661 31.574 55.3913 31.574 55.7878V62.2993C31.574 62.6998 31.2488 63.025 30.8483 63.025H15.6125C13.4156 63.025 11.6311 61.2405 11.6311 59.0436C11.6311 56.8506 13.4156 55.0661 15.6125 55.0661Z" fill="#3C7CFF"/>
<path d="M50.1332 60.5543C48.5391 61.169 47.6944 62.9654 48.206 64.6269C48.3923 65.2495 48.6263 65.8285 49.0189 66.7683C49.7724 68.2753 51.5053 68.9732 53.2224 68.3942C53.9323 68.1166 54.769 68.311 55.348 68.8899C55.9269 69.457 56.1014 70.3255 55.808 71.067C55.114 72.7246 55.7643 74.5845 57.3109 75.3856C57.9732 75.7345 58.6315 76.0161 59.2779 76.25C60.8958 76.8925 62.7358 76.1311 63.4615 74.5369C64.1674 73.026 66.6221 73.034 67.2526 74.6955C67.7721 75.9566 69.0094 76.7259 70.2903 76.7259C70.6353 76.7259 70.9842 76.6704 71.3213 76.5554C72.051 76.3294 72.7529 76.0716 73.3953 75.7702C74.9379 75.0643 75.6716 73.2838 75.0965 71.6024C74.815 70.8251 74.9895 69.9924 75.5407 69.4411C76.1593 68.8423 77.0317 68.6758 77.8169 68.993C79.4428 69.6275 81.2789 68.9811 82.076 67.4623C82.4091 66.8278 82.6827 66.1933 82.996 65.4082C83.5432 63.7743 82.7977 62.0493 81.1916 61.284C80.4659 60.9588 80.0139 60.2489 80.0139 59.436C80.0139 58.5874 80.5373 57.8379 81.3661 57.5127C82.988 56.8544 83.797 55.0302 83.2299 53.4123C83.0079 52.7183 82.7541 52.0243 82.4646 51.4255C81.7587 49.8076 79.8988 49.07 78.2968 49.6926C77.5076 49.9662 76.6788 49.7996 76.1236 49.2445C75.5288 48.6338 75.3543 47.7693 75.6676 46.9999C76.3536 45.3423 75.6993 43.4864 74.0893 42.6537C73.4548 42.3483 72.8084 42.0509 72.162 41.813C70.5282 41.2023 68.7437 41.9518 67.9744 43.5816C67.3042 45.033 64.8217 44.9775 64.2031 43.4349C63.5765 41.8328 61.8158 41.004 60.1305 41.5195L60.0948 41.5274C59.4285 41.7416 58.7623 42.0152 58.0406 42.3245C56.4782 43.074 55.7683 44.8823 56.379 46.5042C56.6526 47.2537 56.4702 48.0944 55.9111 48.6496C55.3162 49.2445 54.4478 49.411 53.6903 49.1255C52.0367 48.4355 50.1848 49.0819 49.2886 50.8029C49.003 51.4057 48.7215 52.0124 48.5034 52.6073C47.8649 54.249 48.658 56.093 50.2324 56.7711C50.962 57.1161 51.43 57.8537 51.43 58.6389C51.43 59.4875 50.9105 60.2529 50.1332 60.5543ZM55.4907 58.6389C55.4907 56.5332 54.3764 54.5623 52.5522 53.4242C52.5998 53.3052 52.6553 53.1902 52.7069 53.0712C54.8721 53.6859 57.1959 53.1069 58.7782 51.5247C60.293 50.0177 60.8918 47.8129 60.3842 45.7428C60.5032 45.6953 60.6222 45.6477 60.7451 45.6041C61.8119 47.571 63.8502 48.8043 66.1224 48.8043C68.2876 48.8043 70.2784 47.6622 71.357 45.8618C71.476 45.9173 71.5949 45.9689 71.7139 46.0204C71.0794 48.146 71.6465 50.4698 73.2367 52.0997C74.7357 53.5987 76.9405 54.1895 79.0264 53.6978C79.074 53.8207 79.1176 53.9397 79.1652 54.0626C77.1904 55.1294 75.9531 57.1637 75.9531 59.436C75.9531 61.6052 77.1031 63.5999 78.9114 64.6706C78.8599 64.7895 78.8044 64.9045 78.7528 65.0235C76.6392 64.4049 74.3153 64.96 72.6855 66.5542C71.1706 68.0691 70.5758 70.2937 71.0794 72.344C70.9565 72.3915 70.8296 72.4391 70.7027 72.4827C69.6597 70.5356 67.5976 69.2706 65.3492 69.2706C63.176 69.2706 61.2289 70.377 60.1067 72.2171C59.9877 72.1655 59.8727 72.1139 59.7537 72.0624C60.3882 69.8972 59.8053 67.5654 58.2032 66.003C56.6566 64.4564 54.42 63.8695 52.4253 64.385C52.3777 64.2661 52.3302 64.1471 52.2865 64.0242C54.2297 62.9773 55.4907 60.8993 55.4907 58.6389Z" fill="#3C7CFF"/>
<path d="M65.7335 67.1254C70.1869 67.1254 73.8074 63.5048 73.8074 59.0515C73.8074 54.5981 70.1869 50.9775 65.7335 50.9775C61.2841 50.9775 57.6636 54.5981 57.6636 59.0515C57.6636 63.5048 61.2841 67.1254 65.7335 67.1254ZM65.7335 55.0383C67.9463 55.0383 69.7466 56.8387 69.7466 59.0515C69.7466 61.2643 67.9463 63.0646 65.7335 63.0646C63.5247 63.0646 61.7243 61.2643 61.7243 59.0515C61.7243 56.8387 63.5247 55.0383 65.7335 55.0383Z" fill="#3C7CFF"/>
</svg>
