<svg width="100" height="103" viewBox="0 0 100 103" fill="none" xmlns="http://www.w3.org/2000/svg">
<path d="M10.1796 102.24H89.8243C95.4356 102.24 100 97.6714 100 92.0601C100 60.2987 100 24.2261 100 10.9006C100 5.28929 95.4356 0.720947 89.8243 0.720947H10.1757C4.56438 0.720947 0 5.28929 0 10.9006C0 24.2279 0 60.2984 0 92.0601C0 97.6714 4.56835 102.24 10.1796 102.24ZM95.9393 92.0601C95.9393 95.4348 93.1951 98.179 89.8243 98.179H10.1796C6.80488 98.179 4.06075 95.4348 4.06075 92.0601V21.3499H95.9393V92.0601ZM4.06075 10.9006C4.06075 7.52588 6.80488 4.7817 10.1757 4.7817H89.8243C93.1951 4.7817 95.9393 7.52588 95.9393 10.9006V17.2891H4.06075V10.9006Z" fill="#3C7CFF"/>
<path d="M66.5384 9.005H61.3038C60.1816 9.005 59.2734 9.91312 59.2734 11.0354C59.2734 12.1576 60.1816 13.0658 61.3038 13.0658H66.5384C67.6606 13.0658 68.5688 12.1576 68.5688 11.0354C68.5688 9.91312 67.6606 9.005 66.5384 9.005Z" fill="#3C7CFF"/>
<path d="M77.6856 9.005H72.451C71.3288 9.005 70.4207 9.91312 70.4207 11.0354C70.4207 12.1576 71.3288 13.0658 72.451 13.0658H77.6856C78.8079 13.0658 79.716 12.1576 79.716 11.0354C79.716 9.91312 78.8079 9.005 77.6856 9.005Z" fill="#3C7CFF"/>
<path d="M88.8368 9.005H83.5982C82.476 9.005 81.5679 9.91312 81.5679 11.0354C81.5679 12.1576 82.476 13.0658 83.5982 13.0658H88.8368C89.959 13.0658 90.8672 12.1576 90.8672 11.0354C90.8672 9.91312 89.959 9.005 88.8368 9.005Z" fill="#3C7CFF"/>
<path d="M15.6125 67.8067H30.8483C32.4841 67.8067 33.8586 66.9313 34.7221 65.6772H39.805C42.5135 77.8032 53.0964 86.4687 65.7493 86.4687C80.4616 86.4687 92.4297 74.4768 92.4297 59.7407C92.4297 45.0284 80.4616 33.0603 65.7493 33.0603C53.2977 33.0603 42.4905 41.9273 39.8082 53.8518H34.7202C33.8564 52.6004 32.4828 51.7263 30.8483 51.7263H15.6125C11.179 51.7263 7.57031 55.331 7.57031 59.7645C7.57031 64.198 11.179 67.8067 15.6125 67.8067ZM65.7493 37.1211C78.2211 37.1211 88.369 47.269 88.369 59.7407C88.369 72.2402 78.2211 82.408 65.7493 82.408C54.5109 82.408 45.1045 74.3856 43.3795 63.274C43.1812 62.2152 43.086 61.0573 43.086 59.7407C43.086 58.4559 43.1812 57.3138 43.3914 56.1955C45.0847 45.3219 54.6973 37.1211 65.7493 37.1211ZM35.6506 57.9126H39.0848C39.0451 58.4995 39.0253 59.1062 39.0253 59.7407C39.0253 60.395 39.0451 61.0176 39.0887 61.6164H35.6506V57.9126ZM15.6125 55.787H30.8483C31.2488 55.787 31.574 56.1122 31.574 56.5088V63.0202C31.574 63.4208 31.2488 63.7459 30.8483 63.7459H15.6125C13.4156 63.7459 11.6311 61.9614 11.6311 59.7645C11.6311 57.5715 13.4156 55.787 15.6125 55.787Z" fill="#3C7CFF"/>
<path d="M50.1332 61.2752C48.5391 61.8899 47.6944 63.6863 48.206 65.3479C48.3923 65.9705 48.6263 66.5495 49.0189 67.4893C49.7724 68.9962 51.5053 69.6942 53.2224 69.1152C53.9323 68.8376 54.769 69.0319 55.348 69.6109C55.9269 70.178 56.1014 71.0464 55.808 71.788C55.114 73.4456 55.7643 75.3055 57.3109 76.1065C57.9732 76.4555 58.6315 76.737 59.2779 76.971C60.8958 77.6134 62.7358 76.852 63.4615 75.2579C64.1674 73.747 66.6221 73.7549 67.2526 75.4165C67.7721 76.6775 69.0094 77.4469 70.2903 77.4469C70.6353 77.4469 70.9842 77.3913 71.3213 77.2763C72.051 77.0503 72.7529 76.7925 73.3953 76.4912C74.9379 75.7853 75.6716 74.0047 75.0965 72.3233C74.815 71.5461 74.9895 70.7133 75.5407 70.1621C76.1593 69.5633 77.0317 69.3967 77.8169 69.714C79.4428 70.3485 81.2789 69.7021 82.076 68.1833C82.4091 67.5488 82.6827 66.9143 82.996 66.1291C83.5432 64.4953 82.7977 62.7703 81.1916 62.0049C80.4659 61.6797 80.0139 60.9699 80.0139 60.1569C80.0139 59.3083 80.5373 58.5588 81.3661 58.2336C82.988 57.5753 83.797 55.7512 83.2299 54.1332C83.0079 53.4392 82.7541 52.7453 82.4646 52.1465C81.7587 50.5285 79.8988 49.7909 78.2968 50.4135C77.5076 50.6871 76.6788 50.5206 76.1236 49.9654C75.5288 49.3547 75.3543 48.4902 75.6676 47.7209C76.3536 46.0633 75.6993 44.2074 74.0893 43.3746C73.4548 43.0693 72.8084 42.7718 72.162 42.5339C70.5282 41.9232 68.7437 42.6727 67.9744 44.3026C67.3042 45.754 64.8217 45.6984 64.2031 44.1558C63.5765 42.5537 61.8158 41.7249 60.1305 42.2405L60.0948 42.2484C59.4285 42.4625 58.7623 42.7362 58.0406 43.0455C56.4782 43.795 55.7683 45.6033 56.379 47.2252C56.6526 47.9747 56.4702 48.8154 55.9111 49.3706C55.3162 49.9654 54.4478 50.132 53.6904 49.8464C52.0367 49.1564 50.1848 49.8028 49.2886 51.5239C49.003 52.1266 48.7215 52.7334 48.5034 53.3282C47.8649 54.97 48.658 56.814 50.2324 57.4921C50.962 57.8371 51.43 58.5747 51.43 59.3599C51.43 60.2085 50.9105 60.9739 50.1332 61.2752ZM55.4907 59.3599C55.4907 57.2541 54.3764 55.2832 52.5522 54.1451C52.5998 54.0262 52.6553 53.9112 52.7069 53.7922C54.8721 54.4069 57.1959 53.8279 58.7782 52.2456C60.293 50.7387 60.8918 48.5338 60.3842 46.4638C60.5032 46.4162 60.6222 46.3686 60.7451 46.325C61.8119 48.2919 63.8502 49.5252 66.1224 49.5252C68.2876 49.5252 70.2784 48.3831 71.357 46.5828C71.476 46.6383 71.5949 46.6898 71.7139 46.7414C71.0794 48.8669 71.6465 51.1908 73.2367 52.8206C74.7357 54.3196 76.9405 54.9105 79.0264 54.4187C79.074 54.5417 79.1176 54.6606 79.1652 54.7836C77.1904 55.8503 75.9531 57.8847 75.9531 60.1569C75.9531 62.3261 77.1031 64.3208 78.9114 65.3915C78.8599 65.5105 78.8044 65.6255 78.7528 65.7444C76.6392 65.1258 74.3153 65.681 72.6855 67.2752C71.1706 68.79 70.5758 71.0147 71.0794 73.0649C70.9565 73.1125 70.8296 73.1601 70.7027 73.2037C69.6597 71.2566 67.5976 69.9916 65.3492 69.9916C63.176 69.9916 61.2289 71.098 60.1067 72.938C59.9877 72.8864 59.8727 72.8349 59.7537 72.7833C60.3882 70.6181 59.8053 68.2864 58.2032 66.7239C56.6566 65.1774 54.42 64.5905 52.4253 65.106C52.3777 64.987 52.3302 64.868 52.2865 64.7451C54.2297 63.6982 55.4907 61.6202 55.4907 59.3599Z" fill="#3C7CFF"/>
<path d="M65.7335 67.8463C70.1869 67.8463 73.8074 64.2257 73.8074 59.7724C73.8074 55.3191 70.1869 51.6985 65.7335 51.6985C61.2841 51.6985 57.6636 55.3191 57.6636 59.7724C57.6636 64.2257 61.2841 67.8463 65.7335 67.8463ZM65.7335 55.7592C67.9463 55.7592 69.7466 57.5596 69.7466 59.7724C69.7466 61.9852 67.9463 63.7856 65.7335 63.7856C63.5247 63.7856 61.7243 61.9852 61.7243 59.7724C61.7243 57.5596 63.5247 55.7592 65.7335 55.7592Z" fill="#3C7CFF"/>
</svg>
