<svg width="100" height="103" viewBox="0 0 100 103" fill="none" xmlns="http://www.w3.org/2000/svg">
<path d="M10.1796 102.372H89.8243C95.4356 102.372 100 97.8035 100 92.1922C100 60.4308 100 24.3582 100 11.0327C100 5.42137 95.4356 0.853027 89.8243 0.853027H10.1757C4.56438 0.853027 0 5.42137 0 11.0327C0 24.36 0 60.4305 0 92.1922C0 97.8035 4.56835 102.372 10.1796 102.372ZM95.9393 92.1922C95.9393 95.5669 93.1951 98.3111 89.8243 98.3111H10.1796C6.80488 98.3111 4.06075 95.5669 4.06075 92.1922V21.482H95.9393V92.1922ZM4.06075 11.0327C4.06075 7.65796 6.80488 4.91378 10.1757 4.91378H89.8243C93.1951 4.91378 95.9393 7.65796 95.9393 11.0327V17.4212H4.06075V11.0327Z" fill="#3C7CFF"/>
<path d="M66.5384 9.13708H61.3038C60.1816 9.13708 59.2734 10.0452 59.2734 11.1675C59.2734 12.2897 60.1816 13.1978 61.3038 13.1978H66.5384C67.6606 13.1978 68.5688 12.2897 68.5688 11.1675C68.5688 10.0452 67.6606 9.13708 66.5384 9.13708Z" fill="#3C7CFF"/>
<path d="M77.6858 9.13708H72.4513C71.329 9.13708 70.4209 10.0452 70.4209 11.1675C70.4209 12.2897 71.329 13.1978 72.4513 13.1978H77.6858C78.8081 13.1978 79.7162 12.2897 79.7162 11.1675C79.7162 10.0452 78.8081 9.13708 77.6858 9.13708Z" fill="#3C7CFF"/>
<path d="M88.8368 9.13708H83.5982C82.476 9.13708 81.5679 10.0452 81.5679 11.1675C81.5679 12.2897 82.476 13.1978 83.5982 13.1978H88.8368C89.959 13.1978 90.8672 12.2897 90.8672 11.1675C90.8672 10.0452 89.959 9.13708 88.8368 9.13708Z" fill="#3C7CFF"/>
<path d="M15.6125 67.9388H30.8483C32.4841 67.9388 33.8586 67.0634 34.7221 65.8093H39.805C42.5135 77.9353 53.0964 86.6008 65.7493 86.6008C80.4616 86.6008 92.4297 74.6089 92.4297 59.8728C92.4297 45.1605 80.4616 33.1924 65.7493 33.1924C53.2977 33.1924 42.4905 42.0594 39.8082 53.9839H34.7202C33.8564 52.7325 32.4828 51.8584 30.8483 51.8584H15.6125C11.179 51.8584 7.57031 55.4631 7.57031 59.8966C7.57031 64.3301 11.179 67.9388 15.6125 67.9388ZM65.7493 37.2531C78.2211 37.2531 88.369 47.4011 88.369 59.8728C88.369 72.3723 78.2211 82.54 65.7493 82.54C54.5109 82.54 45.1045 74.5177 43.3795 63.4061C43.1812 62.3473 43.086 61.1894 43.086 59.8728C43.086 58.5879 43.1812 57.4459 43.3914 56.3276C45.0847 45.454 54.6973 37.2531 65.7493 37.2531ZM35.6506 58.0447H39.0848C39.0451 58.6316 39.0253 59.2383 39.0253 59.8728C39.0253 60.5271 39.0451 61.1497 39.0887 61.7485H35.6506V58.0447ZM15.6125 55.9191H30.8483C31.2488 55.9191 31.574 56.2443 31.574 56.6408V63.1523C31.574 63.5529 31.2488 63.878 30.8483 63.878H15.6125C13.4156 63.878 11.6311 62.0935 11.6311 59.8966C11.6311 57.7036 13.4156 55.9191 15.6125 55.9191Z" fill="#3C7CFF"/>
<path d="M50.133 61.4073C48.5388 62.022 47.6942 63.8184 48.2057 65.48C48.3921 66.1026 48.6261 66.6815 49.0187 67.6214C49.7721 69.1283 51.5051 69.8262 53.2222 69.2473C53.932 68.9697 54.7687 69.164 55.3477 69.743C55.9267 70.31 56.1012 71.1785 55.8077 71.9201C55.1137 73.5777 55.7641 75.4375 57.3107 76.2386C57.9729 76.5875 58.6312 76.8691 59.2776 77.1031C60.8956 77.7455 62.7356 76.9841 63.4613 75.3899C64.1672 73.8791 66.6219 73.887 67.2524 75.5486C67.7719 76.8096 69.0091 77.5789 70.29 77.5789C70.635 77.5789 70.984 77.5234 71.3211 77.4084C72.0507 77.1824 72.7526 76.9246 73.3951 76.6232C74.9377 75.9174 75.6713 74.1368 75.0963 72.4554C74.8147 71.6782 74.9892 70.8454 75.5404 70.2942C76.1591 69.6954 77.0315 69.5288 77.8167 69.8461C79.4426 70.4806 81.2786 69.8342 82.0757 68.3154C82.4088 67.6809 82.6825 67.0464 82.9957 66.2612C83.543 64.6274 82.7975 62.9023 81.1914 62.137C80.4657 61.8118 80.0136 61.102 80.0136 60.289C80.0136 59.4404 80.5371 58.6909 81.3659 58.3657C82.9878 57.7074 83.7968 55.8833 83.2297 54.2653C83.0076 53.5713 82.7538 52.8774 82.4643 52.2786C81.7585 50.6606 79.8986 49.923 78.2965 50.5456C77.5074 50.8192 76.6786 50.6527 76.1234 50.0975C75.5285 49.4868 75.3541 48.6223 75.6673 47.853C76.3534 46.1954 75.6991 44.3395 74.089 43.5067C73.4546 43.2013 72.8082 42.9039 72.1618 42.666C70.528 42.0553 68.7434 42.8048 67.9741 44.4346C67.3039 45.886 64.8215 45.8305 64.2029 44.2879C63.5763 42.6858 61.8156 41.857 60.1302 42.3725L60.0945 42.3805C59.4283 42.5946 58.7621 42.8682 58.0403 43.1775C56.4779 43.927 55.7681 45.7353 56.3788 47.3573C56.6524 48.1068 56.47 48.9475 55.9108 49.5026C55.316 50.0975 54.4475 50.264 53.6901 49.9785C52.0365 49.2885 50.1845 49.9349 49.2883 51.656C49.0028 52.2587 48.7212 52.8655 48.5031 53.4603C47.8647 55.102 48.6578 56.946 50.2321 57.6242C50.9618 57.9692 51.4297 58.7068 51.4297 59.4919C51.4297 60.3406 50.9102 61.1059 50.133 61.4073ZM55.4905 59.4919C55.4905 57.3862 54.3762 55.4153 52.552 54.2772C52.5996 54.1582 52.6551 54.0432 52.7066 53.9243C54.8718 54.5389 57.1957 53.96 58.7779 52.3777C60.2928 50.8708 60.8916 48.6659 60.384 46.5959C60.503 46.5483 60.6219 46.5007 60.7449 46.4571C61.8116 48.424 63.8499 49.6573 66.1222 49.6573C68.2874 49.6573 70.2781 48.5152 71.3568 46.7148C71.4757 46.7704 71.5947 46.8219 71.7137 46.8735C71.0792 48.999 71.6462 51.3228 73.2364 52.9527C74.7354 54.4517 76.9403 55.0426 79.0262 54.5508C79.0738 54.6738 79.1174 54.7927 79.165 54.9157C77.1901 55.9824 75.9529 58.0167 75.9529 60.289C75.9529 62.4582 77.1029 64.4529 78.9112 65.5236C78.8596 65.6426 78.8041 65.7576 78.7526 65.8765C76.6389 65.2579 74.315 65.8131 72.6852 67.4072C71.1704 68.9221 70.5755 71.1468 71.0792 73.197C70.9562 73.2446 70.8293 73.2922 70.7024 73.3358C69.6595 71.3887 67.5974 70.1237 65.3489 70.1237C63.1758 70.1237 61.2287 71.2301 60.1064 73.0701C59.9874 73.0185 59.8724 72.967 59.7535 72.9154C60.388 70.7502 59.805 68.4185 58.2029 66.856C56.6564 65.3094 54.4198 64.7225 52.4251 65.2381C52.3775 65.1191 52.3299 65.0001 52.2863 64.8772C54.2294 63.8303 55.4905 61.7523 55.4905 59.4919Z" fill="#3C7CFF"/>
<path d="M65.7335 67.9784C70.1869 67.9784 73.8074 64.3578 73.8074 59.9045C73.8074 55.4511 70.1869 51.8306 65.7335 51.8306C61.2841 51.8306 57.6636 55.4511 57.6636 59.9045C57.6636 64.3578 61.2841 67.9784 65.7335 67.9784ZM65.7335 55.8913C67.9463 55.8913 69.7466 57.6917 69.7466 59.9045C69.7466 62.1173 67.9463 63.9177 65.7335 63.9177C63.5247 63.9177 61.7243 62.1173 61.7243 59.9045C61.7243 57.6917 63.5247 55.8913 65.7335 55.8913Z" fill="#3C7CFF"/>
</svg>
