<svg width="100" height="100" viewBox="0 0 100 100" fill="none" xmlns="http://www.w3.org/2000/svg">
<path fill-rule="evenodd" clip-rule="evenodd" d="M37.8422 27.4301L40.1369 29.4449L42.8735 28.2907L43.289 22.5723C43.3407 21.8264 43.9514 21.2566 44.6746 21.2571L55.5251 21.255C56.2848 21.255 56.9021 21.8751 56.9161 22.6452L57.3262 28.2909L60.0629 29.4451L64.3274 25.7005C64.8755 25.2175 65.7052 25.2434 66.2183 25.7671L73.8906 33.582C74.4337 34.1353 74.4337 35.0324 73.8906 35.5856L70.2791 39.8524L71.4131 42.6391L77.0271 43.0626C77.7594 43.1152 78.3187 43.7373 78.3183 44.4739L78.3204 55.5259C78.3204 56.2996 77.7115 56.9284 76.9555 56.9427L71.4128 57.3604L70.2789 60.1475L73.9559 64.4919C74.4301 65.0502 74.4048 65.8953 73.8906 66.418L66.2183 74.233C65.6752 74.7862 64.7945 74.7862 64.2512 74.233L60.063 70.5545L57.3261 71.7089L56.9106 77.4277C56.8591 78.1736 56.2482 78.7434 55.525 78.7429L44.6745 78.745C43.9149 78.745 43.2976 78.1249 43.2835 77.3548L42.8734 71.7091L40.1374 70.5539L35.8723 74.2995C35.3242 74.7825 34.4943 74.7567 33.9813 74.233L26.3089 66.418C25.7657 65.8647 25.7657 64.9677 26.3089 64.4144L29.9205 60.1476L28.7877 57.3637L23.1133 56.9579C22.2988 56.9881 19.5985 58.4857 16.0095 56.3107C16.7549 74.8717 31.7646 89.6182 50.0997 89.6182C68.9451 89.6182 84.2194 74.06 84.2194 54.8644V51.0907C84.2194 50.3081 84.8424 49.6736 85.6106 49.6736H93.0205C93.7888 49.6736 94.4117 50.3081 94.4117 51.0907V54.8644C94.4117 79.7901 74.5705 100 50.0996 100C20.1892 100 -0.927498 70.4983 7.72035 41.653C6.30478 39.9555 5.99212 37.3884 7.36479 35.5809C6.55774 31.758 3.89669 31.4212 2.05356 25.9534C-2.20984 13.3032 6.98881 0 20.2306 0C26.2314 0 31.6477 2.80909 35.2009 7.29972H76.0741L76.0792 5.4656C76.0783 4.37415 77.2627 3.67965 78.1934 4.26438L88.5348 10.7559C89.4347 11.312 89.4277 12.6191 88.5522 13.1693L78.2957 19.6075C77.2364 20.3398 76.074 19.5284 76.074 18.4706V16.6366H39.2334C39.7779 20.3178 39.2845 24.0735 37.8422 27.4301ZM39.0379 32.2103L36.5094 29.9901C35.1632 32.1641 33.6679 32.8634 33.0953 35.5802C34.7039 37.7003 34.0068 40.8323 31.918 42.4464C33.6205 45.128 31.8241 49.3625 28.4211 50.2245C28.2094 51.783 27.5784 53.2076 26.6465 54.3746L29.9184 54.611C30.4837 54.6496 30.9909 55.0409 31.1575 55.627C32.9769 62.0121 34.8698 58.6274 29.1867 65.3419L35.038 71.3019C41.9307 65.2487 38.3796 67.6589 44.4909 69.2687C45.0756 69.4009 45.5307 69.9109 45.5751 70.5505L45.9645 75.9109H54.2353C54.8743 67.1746 53.9436 70.7562 59.5864 67.6178C60.081 67.3434 60.7115 67.3921 61.1621 67.7895L65.1619 71.302L71.0132 65.342C65.0688 58.3192 67.4382 61.9363 69.017 55.7136C69.1467 55.1178 69.6473 54.6541 70.2754 54.6088L75.538 54.2121V45.7878L70.2761 45.3883C69.7133 45.3476 69.2085 44.9567 69.0424 44.3727C67.2221 37.988 65.3313 41.3716 71.0132 34.6582L65.1619 28.6982C58.2746 34.7457 61.8309 32.3439 55.709 30.7312C55.1243 30.599 54.669 30.089 54.6248 29.4494L54.2353 24.0892H45.9645C45.3256 32.8265 46.2563 29.243 40.6136 32.3821C40.119 32.6565 39.4885 32.6077 39.0379 32.2103ZM25.5601 50.3988L14.9183 50.4685C16.3318 56.05 24.2127 56.0352 25.5601 50.3988ZM50.0999 34.6043C41.753 34.6043 34.9853 41.4978 34.9853 49.9999C34.9853 63.6693 51.2879 70.5618 60.7872 60.8858C70.2867 51.2098 63.5197 34.6043 50.0999 34.6043ZM58.8203 41.1174C51.0724 33.2256 37.7679 38.8422 37.7679 49.9999C37.7679 61.1576 51.0724 66.7742 58.8203 58.8823C63.636 53.9771 63.636 46.0226 58.8203 41.1174ZM9.1345 32.3559C9.41292 32.8779 9.64744 33.4338 9.83466 34.0401C10.8794 33.806 14.3724 33.9048 15.6268 33.9048V24.9726L14.4745 24.2951C11.6099 26.9158 7.03216 24.8342 7.03216 20.9146C7.03216 18.4075 9.03606 16.3681 11.4961 16.3681C14.3228 16.3681 16.4452 19.0318 15.8642 21.8542C17.1187 22.5921 18.4088 23.0395 18.4093 24.162V33.9049H21.4654V18.2093C21.4673 16.7994 23.0454 16.6928 24.5079 16.2937C24.816 10.4838 33.4288 10.706 33.4288 16.5421C33.4288 21.0343 27.659 22.7951 25.2307 19.0262L24.248 19.2944V33.9047C25.5631 33.9047 29.5617 33.801 30.6267 34.0403C32.0109 29.5597 36.6665 27.8831 36.6665 19.5757C36.6665 4.8063 18.9922 -2.83905 8.60861 7.73757C4.211 12.2169 2.62159 18.9177 4.68399 25.035C5.94285 28.768 7.63607 29.5481 9.1345 32.3559ZM37.069 10.134C37.6955 11.2905 38.2105 12.5182 38.5989 13.8025H77.4652C78.8824 13.8025 78.8564 15.1604 78.8564 15.9393L85.1822 11.9682L78.8564 7.99724C78.8564 8.77614 78.8824 10.134 77.4652 10.134H37.069ZM13.2249 53.5428C12.6334 52.5843 12.2262 51.4958 12.0541 50.3288C10.7864 50.0187 9.77299 49.2553 9.06438 48.2953C5.14041 73.9361 24.5695 97.1661 50.0999 97.1661C73.0352 97.1661 91.6296 78.2263 91.6296 54.8647V52.508H87.0021V54.8647C87.0021 75.6244 70.4808 92.4527 50.0998 92.4527C29.3227 92.4527 12.6414 75.1215 13.2249 53.5428ZM13.2463 47.6546L27.1023 47.5661C29.6311 47.5497 30.9694 43.5666 28.4784 43.5666H11.9822C9.53594 43.5666 10.7778 47.5753 13.2463 47.6546ZM11.9823 40.7325H28.4786C31.4693 40.7325 32.3732 36.7389 29.3421 36.7389H11.1187C8.08755 36.7389 8.9926 40.7325 11.9823 40.7325ZM11.4963 19.2022C9.28024 19.2022 9.28046 22.6272 11.4963 22.6272C13.7081 22.6272 13.7166 19.2022 11.4963 19.2022ZM28.9652 14.8295C26.7533 14.8295 26.7448 18.2545 28.9652 18.2545C31.1816 18.2545 31.18 14.8295 28.9652 14.8295ZM92.2923 32.7739C90.5594 30.848 87.3776 30.9832 85.6194 32.7739C82.6508 35.7977 84.7761 40.9788 88.9558 40.9788C93.1245 40.9788 95.267 35.804 92.2923 32.7739ZM87.5865 37.5671C89.4467 39.4089 92.1105 36.5957 90.3253 34.7774C88.4944 32.9199 85.7819 35.7802 87.5865 37.5671ZM50.1 41.0934C45.2719 41.0934 41.3559 45.0811 41.3559 50C41.3559 57.9066 50.7863 61.8961 56.2827 56.2976C61.7791 50.6991 57.8626 41.0934 50.1 41.0934ZM54.3157 45.7059C50.571 41.8917 44.1384 44.6049 44.1384 50C44.1384 55.3951 50.5709 58.1085 54.3157 54.294C56.6433 51.9231 56.6436 48.0767 54.3157 45.7059ZM81.2015 26.8565C80.4332 26.8565 79.8103 27.4911 79.8103 28.2735V44.0705C79.8103 44.8531 80.4332 45.4876 81.2015 45.4876H96.7102C97.4784 45.4876 98.1014 44.8531 98.1014 44.0705V28.2735C98.1014 27.4911 97.4784 26.8565 96.7102 26.8565H81.2015ZM95.3189 29.6906H82.5927V42.6533H95.3189V29.6906Z" fill="#3C7CFF"/>
</svg>
