<?xml version="1.0" encoding="utf-8"?>
<!-- Generator: Adobe Illustrator 24.3.0, SVG Export Plug-In . SVG Version: 6.00 Build 0)  -->
<svg version="1.1" id="Layer_1" xmlns="http://www.w3.org/2000/svg" xmlns:xlink="http://www.w3.org/1999/xlink" x="0px" y="0px"
	 viewBox="0 0 11115 1505.9" style="enable-background:new 0 0 11115 1505.9;" xml:space="preserve">
<style type="text/css">
	.st0{fill:#0AF8C5;}
</style>
<g>
	<path class="st0" d="M0,18.3h369.4l186.7,1004.6L1045.2,18.3h371.4L700.2,1485.6H269.9L0,18.3z"/>
	<path class="st0" d="M1593.2,18.3h393.7l-221.2,1467.4H1372L1593.2,18.3z"/>
	<path class="st0" d="M2265,18.3h584.5c405.9,0,562.2,138,525.7,387.6c-20.3,136-93.4,235.4-286.2,324.7
		c245.6,77.1,233.4,245.6,217.2,355.2c-42.6,274-225.3,399.8-647.4,399.8h-615L2265,18.3z M2717.5,1189.3
		c113.7,0,184.7-75.1,196.9-152.2c12.2-81.2-44.7-142.1-142.1-142.1h-245.6l-44.7,294.3H2717.5z M2819,590.6
		c91.3,0,158.3-56.8,170.5-134c14.2-87.3-50.7-142.1-144.1-142.1H2614l-42.6,276H2819z"/>
	<path class="st0" d="M3711,18.3h1075.7L4735.9,345H4056l-36.5,243.5h568.3L4539,907.2h-570.3l-38.6,249.6h686l-50.7,328.8H3487.7
		L3711,18.3z"/>
	<path class="st0" d="M5021,18.3h395.8l444.5,817.9l123.8-817.9h393.7l-223.3,1467.4h-355.2l-476.9-874.7l-131.9,874.7h-393.7
		L5021,18.3z"/>
	<path class="st0" d="M6658.9,18.3h1075.7L7683.8,345h-679.9l-36.5,243.5h568.3l-48.7,318.6h-570.3l-38.6,249.6h686l-50.7,328.8
		H6435.6L6658.9,18.3z"/>
	<path class="st0" d="M7891.8,18.3h379.5l105.5,787.5l336.9-787.5h274l107.6,787.5l336.9-787.5h379.5l-659.6,1467.4h-292.3
		L8750.3,688l-353.1,797.6h-288.2L7891.8,18.3z"/>
	<path class="st0" d="M9738.7,1039.1h407.9c6.1,103.5,87.3,164.4,223.3,164.4c123.8,0,245.6-30.4,261.8-134
		c12.2-89.3-105.5-109.6-225.3-129.9l-221.2-38.6c-223.3-36.5-351.1-182.7-318.6-432.3C9909.1,172.5,10213.6,0,10548.5,0
		c357.2,0,576.4,221.2,566.2,462.7h-397.8c6.1-113.7-69-158.3-205-158.3c-154.2,0-209,62.9-217.2,115.7
		c-10.1,67,16.2,105.5,140,127.9l221.2,38.6c412,73.1,397.8,336.9,375.5,483c-36.5,249.6-338.9,436.4-704.3,436.4
		C10020.8,1505.9,9714.3,1365.9,9738.7,1039.1z"/>
</g>
</svg>
