<?xml version="1.0" encoding="utf-8"?>
<!-- Generator: Adobe Illustrator 24.3.0, SVG Export Plug-In . SVG Version: 6.00 Build 0)  -->
<svg version="1.1" id="Layer_1" xmlns="http://www.w3.org/2000/svg" xmlns:xlink="http://www.w3.org/1999/xlink" x="0px" y="0px"
	 viewBox="0 0 6476.2 1560.9" style="enable-background:new 0 0 6476.2 1560.9;" xml:space="preserve">
<style type="text/css">
	.st0{fill:#F8F8F8;}
	.st1{fill:#000814;}
	.st2{fill:#0066B3;}
	.st3{fill-rule:evenodd;clip-rule:evenodd;fill:#FFFFFF;}
</style>
<g>
	<path class="st0" d="M156.1,0h6164c86.2,0,156.1,69.9,156.1,156.1v1248.7c0,86.2-69.9,156.1-156.1,156.1h-6164
		C69.9,1560.9,0,1491,0,1404.8V156.1C0,69.9,69.9,0,156.1,0z"/>
	<path class="st1" d="M3199.1,557V1011H3126l-214-309.3h-3.8V1011H2826V557h73.6l213.7,309.5h4V557H3199.1z M3436,1017.7
		c-34.1,0-63.6-7.1-88.5-21.3c-24.7-14.3-43.7-34.6-57-60.8c-13.3-26.3-20-57.3-20-92.9c0-35,6.7-65.8,20-92.2
		c13.5-26.6,32.2-47.3,56.3-62.1c24.1-14.9,52.4-22.4,84.9-22.4c21,0,40.8,3.4,59.4,10.2c18.8,6.7,35.3,17,49.7,31
		c14.5,14,25.9,31.9,34.1,53.7c8.3,21.6,12.4,47.3,12.4,77.2v24.6h-279.1v-54.1h202.2c-0.1-15.4-3.5-29-10-41
		c-6.5-12.1-15.6-21.7-27.3-28.6c-11.5-6.9-25-10.4-40.4-10.4c-16.4,0-30.8,4-43.2,12c-12.4,7.8-22.1,18.2-29,31
		c-6.8,12.7-10.3,26.7-10.4,41.9v47.2c0,19.8,3.6,36.8,10.9,51c7.2,14,17.4,24.8,30.4,32.4c13,7.4,28.2,11.1,45.7,11.1
		c11.7,0,22.2-1.6,31.7-4.9c9.5-3.4,17.7-8.4,24.6-14.9c6.9-6.5,12.2-14.6,15.7-24.2l74.9,8.4c-4.7,19.8-13.7,37.1-27.1,51.9
		c-13.2,14.6-30,26-50.5,34.1C3486,1013.7,3462.5,1017.7,3436,1017.7z M3723.8,1011l-96.2-340.6h81.8l59.9,239.5h3.1l61.2-239.5
		h80.9l61.2,238.1h3.3l59-238.1h82l-96.5,340.6h-83.6l-63.8-230.1h-4.7l-63.9,230.1H3723.8z M4171.6,1011v-51l175.6-220.2V737
		h-169.8v-66.5h268v54.8l-167.2,216.4v2.9h172.9v66.5H4171.6z"/>
	<path class="st2" d="M4656.7,1011l75.4-454.1h82.3l-63.9,385.1h200l-11.5,69H4656.7z M5167.9,557l-75.4,454.1h-82.3l75.4-454.1
		H5167.9z M5317.8,557l59,357.4h4.6L5558.5,557h90.5L5413.5,1011H5312L5227.5,557H5317.8z M5633.4,1011l75.4-454.1h295.3l-11.5,69
		h-213.1l-20.4,123.3h197.8l-11.6,69h-197.8l-20.4,123.9h214.9l-11.5,69H5633.4z"/>
	<path class="st2" d="M0,156.1C0,69.9,69.9,0,156.1,0h2139.3v1560.9H156.1C69.9,1560.9,0,1491,0,1404.8V156.1z"/>
	<path class="st3" d="M940.7,489.3c-15.3,4.6-24.8,16-28.9,34.6c-0.9,4.2-1.3,83.5-1.3,257.1c0,205,0.3,252.3,1.7,258.2
		c3.4,14.9,11.7,25.9,23.5,31.2c5,2.3,8,2.8,16.5,2.7c11.8,0,19.9-2,32.2-7.8c12.8-6,367.9-232.7,376.1-240.1
		c8.3-7.5,16.1-18.4,19.2-26.7c3.4-9,3-28.9-0.6-37.6c-3.8-8.9-9.3-16.4-18-24.5c-5.2-4.9-58.7-39.6-182.5-118.5
		c-96.3-61.4-180.2-114.5-186.5-118C973,489.2,954.1,485.3,940.7,489.3z"/>
</g>
</svg>
