<?xml version="1.0" encoding="utf-8"?>
<!-- Generator: Adobe Illustrator 24.3.0, SVG Export Plug-In . SVG Version: 6.00 Build 0)  -->
<svg version="1.1" id="Layer_1" xmlns="http://www.w3.org/2000/svg" xmlns:xlink="http://www.w3.org/1999/xlink" x="0px" y="0px"
	 viewBox="0 0 6476.2 1560.9" style="enable-background:new 0 0 6476.2 1560.9;" xml:space="preserve">
<style type="text/css">
	.st0{fill:#FFFFFF;}
</style>
<g>
	<path class="st0" d="M392.1,0C305.9,0,236,69.9,236,156.1v1248.7c0,86.2,69.9,156.1,156.1,156.1h2139.3V0H392.1z M1615.9,798.6
		c-3.1,8.3-11,19.2-19.2,26.7c-8.2,7.4-363.3,234-376.1,240.1c-12.4,5.8-20.4,7.7-32.2,7.8c-8.6,0-11.6-0.5-16.6-2.7
		c-11.8-5.3-20.1-16.3-23.5-31.2c-1.3-5.8-1.6-53.2-1.7-258.2c0-173.6,0.4-252.9,1.3-257.1c4-18.6,13.6-30,28.9-34.6
		c13.4-4,32.3-0.1,51.6,10.7c6.3,3.5,90.2,56.6,186.5,118c123.8,78.9,177.2,113.7,182.5,118.5c8.7,8.1,14.2,15.6,18,24.5
		C1618.9,769.7,1619.2,789.7,1615.9,798.6z"/>
	<polygon class="st0" points="3353.4,557 3435.2,557 3435.2,1011 3362,1011 3148.1,701.7 3144.3,701.7 3144.3,1011 3062,1011 
		3062,557 3135.7,557 3349.4,866.5 3353.4,866.5 	"/>
	<path class="st0" d="M3823.5,838.1c0-29.8-4.1-55.6-12.4-77.2c-8.3-21.7-19.7-39.6-34.1-53.7c-14.3-14-30.9-24.4-49.7-31
		c-18.6-6.8-38.4-10.2-59.4-10.2c-32.5,0-60.8,7.5-84.9,22.4c-24.1,14.8-42.9,35.5-56.3,62.1c-13.3,26.5-19.9,57.2-19.9,92.2
		c0,35.6,6.6,66.6,19.9,92.9c13.3,26.2,32.3,46.4,57,60.8c24.8,14.2,54.3,21.3,88.5,21.3c26.5,0,50-4,70.5-12
		c20.5-8.1,37.4-19.5,50.6-34.1c13.3-14.8,22.3-32.1,27.1-51.9l-74.9-8.4c-3.6,9.6-8.8,17.7-15.8,24.2c-6.9,6.5-15.2,11.4-24.6,14.8
		c-9.5,3.2-20,4.9-31.7,4.9c-17.4,0-32.7-3.7-45.7-11.1c-13-7.5-23.1-18.3-30.4-32.4c-7-13.7-10.6-30-10.9-49h237.2V838.1z
		 M3586.4,808.6c0.8-13.3,4.2-25.7,10.2-37c6.9-12.9,16.6-23.2,29.1-31c12.4-8,26.8-12,43.2-12c15.4,0,28.8,3.5,40.4,10.4
		c11.7,6.9,20.8,16.5,27.3,28.6c6.5,12,9.8,25.6,10,41H3586.4z"/>
	<polygon class="st0" points="4274,670.5 4356,670.5 4259.6,1011 4176,1011 4112.2,780.9 4107.5,780.9 4043.6,1011 3959.8,1011 
		3863.6,670.5 3945.4,670.5 4005.3,909.9 4008.4,909.9 4069.6,670.5 4150.5,670.5 4211.7,908.6 4215,908.6 	"/>
	<polygon class="st0" points="4514.3,944.5 4687.2,944.5 4687.2,1011 4407.6,1011 4407.6,960 4583.2,739.9 4583.2,737 4413.4,737 
		4413.4,670.5 4681.4,670.5 4681.4,725.2 4514.3,941.6 	"/>
	<polygon class="st0" points="4986.5,942.1 5186.5,942.1 5175,1011 4892.7,1011 4968.1,557 5050.4,557 	"/>
	<polygon class="st0" points="5321.7,557 5404,557 5328.6,1011 5246.3,1011 	"/>
	<polygon class="st0" points="5885,557 5649.6,1011 5548,1011 5463.6,557 5553.8,557 5612.8,914.4 5617.4,914.4 5794.6,557 	"/>
	<polygon class="st0" points="6015.6,625.9 5995.2,749.2 6193,749.2 6181.4,818.1 5983.7,818.1 5963.2,942.1 6178.1,942.1 
		6166.6,1011 5869.5,1011 5944.9,557 6240.2,557 6228.7,625.9 	"/>
	<path class="st0" d="M4514.3,944.5v-2.9l167.2-216.4v-54.8h-268V737h169.8v2.9L4407.6,960v51h279.6v-66.5H4514.3z M4274,670.5
		l-59,238.1h-3.3l-61.2-238.1h-80.9l-61.2,239.5h-3.1l-59.9-239.5h-81.8l96.2,340.5h83.8l63.9-230.1h4.7L4176,1011h83.6l96.5-340.5
		H4274z M3823.5,838.1c0-29.8-4.1-55.6-12.4-77.2c-8.3-21.7-19.7-39.6-34.1-53.7c-14.3-14-30.9-24.4-49.7-31
		c-18.6-6.8-38.4-10.2-59.4-10.2c-32.5,0-60.8,7.5-84.9,22.4c-24.1,14.8-42.9,35.5-56.3,62.1c-13.3,26.5-19.9,57.2-19.9,92.2
		c0,35.6,6.6,66.6,19.9,92.9c13.3,26.2,32.3,46.4,57,60.8c24.8,14.2,54.3,21.3,88.5,21.3c26.5,0,50-4,70.5-12
		c20.5-8.1,37.4-19.5,50.6-34.1c13.3-14.8,22.3-32.1,27.1-51.9l-74.9-8.4c-3.6,9.6-8.8,17.7-15.8,24.2c-6.9,6.5-15.2,11.4-24.6,14.8
		c-9.5,3.2-20,4.9-31.7,4.9c-17.4,0-32.7-3.7-45.7-11.1c-13-7.5-23.1-18.3-30.4-32.4c-7-13.7-10.6-30-10.9-49h237.2V838.1z
		 M3586.4,808.6c0.8-13.3,4.2-25.7,10.2-37c6.9-12.9,16.6-23.2,29.1-31c12.4-8,26.8-12,43.2-12c15.4,0,28.8,3.5,40.4,10.4
		c11.7,6.9,20.8,16.5,27.3,28.6c6.5,12,9.8,25.6,10,41H3586.4z M3353.4,557v309.5h-4L3135.7,557H3062V1011h82.3V701.7h3.8L3362,1011
		h73.2V557H3353.4z"/>
	<path class="st0" d="M6228.7,625.9l11.5-69h-295.3l-75.4,454.1h297.1l11.5-69h-214.9l20.4-123.9h197.8l11.5-69h-197.8l20.4-123.3
		H6228.7z M5794.6,557l-177.2,357.4h-4.6l-59-357.4h-90.3L5548,1011h101.5L5885,557H5794.6z M5321.7,557l-75.4,454.1h82.3L5404,557
		H5321.7z M4986.5,942.1l63.9-385.1h-82.3l-75.4,454.1H5175l11.5-69H4986.5z"/>
	<path class="st0" d="M392.1,0C305.9,0,236,69.9,236,156.1v1248.7c0,86.2,69.9,156.1,156.1,156.1h2139.3V0H392.1z M1615.9,798.6
		c-3.1,8.3-11,19.2-19.2,26.7c-8.2,7.4-363.3,234-376.1,240.1c-12.4,5.8-20.4,7.7-32.2,7.8c-8.6,0-11.6-0.5-16.6-2.7
		c-11.8-5.3-20.1-16.3-23.5-31.2c-1.3-5.8-1.6-53.2-1.7-258.2c0-173.6,0.4-252.9,1.3-257.1c4-18.6,13.6-30,28.9-34.6
		c13.4-4,32.3-0.1,51.6,10.7c6.3,3.5,90.2,56.6,186.5,118c123.8,78.9,177.2,113.7,182.5,118.5c8.7,8.1,14.2,15.6,18,24.5
		C1618.9,769.7,1619.2,789.7,1615.9,798.6z"/>
</g>
</svg>
