<?xml version="1.0" encoding="utf-8"?>
<!-- Generator: Adobe Illustrator 24.3.0, SVG Export Plug-In . SVG Version: 6.00 Build 0)  -->
<svg version="1.1" id="Layer_1" xmlns="http://www.w3.org/2000/svg" xmlns:xlink="http://www.w3.org/1999/xlink" x="0px" y="0px"
	 width="1589.8px" height="1609.4px" viewBox="0 0 1589.8 1609.4" style="enable-background:new 0 0 1589.8 1609.4;"
	 xml:space="preserve">
<style type="text/css">
	.st0{fill:#037971;}
	.st1{fill:#2A9C8E;}
	.st2{fill:#037870;}
	.st3{fill:#F5AD2D;}
	.st4{fill:#2D3A3A;}
	.st5{fill:#FEFEFE;}
	.st6{fill:#FDFEFE;}
	.st7{fill:#F8FBFA;}
	.st8{fill:#F6FAFA;}
	.st9{fill:#FAFCFC;}
	.st10{fill:#F4F9F8;}
	.st11{fill:#F8FBFB;}
	.st12{fill:#F7FAFA;}
	.st13{fill:#F0F6F6;}
	.st14{fill:#F7FBFA;}
	.st15{fill:#047971;}
</style>
<g>
	<path class="st0" d="M1589,128.5c-5,52-9.9,103.1-14.9,154.2c-4.1,41.6-8.2,83.2-12.3,124.8c-5.2,53.4-10.4,106.7-15.6,160.1
		c-4,41.2-7.8,82.3-11.8,123.5c-5.1,52.9-10.4,105.8-15.5,158.7c-4.9,51.1-9.6,102.2-14.6,153.3c-5,52-12.7,103.9-14.4,156
		c-0.9,29.2-14.3,38.5-38.5,46.8c-82.9,28.4-163.8,61.7-243.6,98.1c-107.1,48.9-200.5,117.4-287.5,195.5
		c-38.3,34.4-76.4,68.9-114,104c-7.8,7.3-12.1,8-20.6,0.5c-68.8-60.3-138.1-120-209-177.8c-120.3-97.9-255.1-166.6-404.7-206.7
		c-20.2-5.4-40-12.1-60.1-17.7c-6.6-1.8-9.6-4.6-10.2-11.8c-3-33.5-6.6-66.9-9.8-100.4c-5.1-52.9-10.2-105.8-15.2-158.8
		c-4.1-43-8-86-12.1-128.9c-5-52.9-10.2-105.8-15.2-158.8c-4.1-43-8-86-12.1-128.9C32.2,461.5,27,408.6,22,355.6
		c-4-42.1-8-84.1-12-126.2C6.8,195.5,4,161.5,0.2,127.6c-0.9-8.2,0.8-11.3,8.7-13.2c117.9-28.3,235.4-58.5,355.3-77.9
		C529.4,9.8,695.6-4,863.1,1c128.4,3.8,255.8,18,382.5,39.3c111.7,18.7,221.1,47.4,331.1,73.1C1585.9,115.5,1592,118.5,1589,128.5z"
		/>
	<path class="st1" d="M1468.9,217.5c-3.4,31.7-7,64.5-10.3,97.3c-2.2,22.1-4,44.2-6.1,66.2c-3.4,34.6-7.1,69.2-10.4,103.9
		c-3.1,32.4-5.6,64.9-8.7,97.3c-3.2,33.7-6.9,67.4-10.2,101.2c-3.1,31.1-5.8,62.2-8.8,93.2c-3.4,34.6-7,69.3-10.4,103.9
		c-2.1,21.2-3.9,42.3-6,63.5c-3.4,34.6-7,69.3-10.4,103.9c-1.8,18.5-3.8,36.9-4.9,55.4c-0.6,9.2-6.2,11.8-13.5,14.4
		c-85.1,30.5-168.4,65.6-249.4,105.7c-72.3,35.8-138.2,81.4-200.9,132c-40.3,32.5-78.4,67.3-117.2,101.5c-6.5,5.8-9.6,4.5-15.5-0.5
		c-70.4-60.6-141.5-120.3-217.4-174.2c-47.9-34-97.5-64.9-150.8-89.7c-64.3-29.9-130.2-55.5-198.7-74.1c-9-2.5-14.4-6.7-15.1-16.1
		c-2.8-33.4-5.3-66.8-8.4-100.1c-4.1-43.7-9-87.2-13.2-130.9c-3.1-32.4-5.5-64.9-8.6-97.3c-3.2-33.7-7-67.4-10.3-101.2
		c-2.2-21.6-3.9-43.3-6-64.9c-3.5-36-7.2-72-10.5-108c-3.1-33.8-5.5-67.7-8.7-101.4c-3.1-33.3-7.2-66.5-10.2-99.8
		c-2.7-29.3-4.4-58.6-8.6-87.8c-0.8-5.7,1.6-9.1,7.7-10.7c65-16.3,129.9-32.5,196-43.7c41.9-7.1,83.6-14.7,125.7-20.8
		c34-5,68.2-8.4,102.4-11.8c40.5-4,81.1-7.2,121.7-10.7c0.9-0.1,1.8-0.2,2.7-0.2c56.4-0.5,112.7-5.3,169.1-2.6
		c58.4,2.8,116.8,5.4,174.9,11.2c75.5,7.5,150.7,17.7,225.5,31.4c70.8,13,141.1,27.7,210.7,46.1
		C1469.1,202.7,1469.1,202.7,1468.9,217.5z"/>
	<path class="st2" d="M785,167.6c38.2,0,66.9-1,95.6,0.2c47,2.1,93.9,5.9,140.8,10.2c54.1,4.9,107.9,11.8,161.4,20.2
		c61.6,9.7,122.9,21.5,183.7,35.7c7,1.6,14.1,3.1,21.2,4.8c22.2,5.3,23.8,8.6,21,31.7c-4.2,35.5-7.1,71.1-10.8,106.6
		c-4.4,42.7-9.1,85.4-13.3,128.1c-3.2,32.4-5.5,64.9-8.6,97.3c-3.2,32.8-7.1,65.6-10.4,98.4c-3.1,32-5.6,64-8.7,96
		c-3.2,33.3-6.9,66.5-10.2,99.8c-2.2,22.5-4.1,45.1-6.1,67.6c-2.9,32-5.5,64-8.7,96c-0.8,8.5-5.4,14.1-14.5,17.5
		c-88.1,33-174.5,70.1-257.5,114.4c-54.5,29.1-105.1,64.5-153.7,102.6c-36,28.2-71.5,57.2-104.9,88.6c-5.6,5.2-8.6,5.1-14.5,0.3
		c-42-34.5-83.9-69.2-126.8-102.5c-62.1-48.1-126.2-93.4-196.8-128.4c-59.8-29.7-121.8-54.4-185.4-74.9
		c-21.6-6.9-20.5-7.2-22.1-29.1c-2.5-33.3-6.8-66.5-10.1-99.8c-3.1-31.1-5.8-62.2-8.7-93.2c-3.5-36.5-7.1-72.9-10.5-109.4
		c-3-32.9-5.6-65.8-8.7-98.7c-3.2-33.3-6.9-66.5-10.2-99.8c-2.2-22.5-4-45.1-6.1-67.6c-3.4-36-7.1-72-10.4-108c-3-32-5.8-64-8.6-96
		c-0.2-2.3,0.1-4.6-0.1-6.8c-2.4-25-2.3-24.7,22.3-30.9c66.2-16.9,133.4-29.1,200.7-40.2c53.5-8.8,107.3-15.6,161.4-20.1
		c36.5-3.1,73.1-5.5,109.6-8.5C715.5,166.5,755,169.4,785,167.6z"/>
	<path class="st3" d="M729,1104.3c-27.6,12.3-52.9,29.2-83.9,40.9c6.7-11.9,14.5-19.2,21.7-26.9c35.3-37.8,70.5-75.9,106.5-113.1
		c9.8-10.2,8.5-16.4-1-25.1c-18.1-16.5-36.1-33.2-53-50.9c-15.9-16.6-15-18.8,3.8-31.6c47.1-31.8,96.9-59.2,146.7-86.4
		c22.3-12.2,45.1-23.5,67.8-35.1c4.3-2.2,8.5-5,16-4.9c-16.9,24.4-38.6,42.3-55.8,64c-3.5,8.7-9.8,15.3-16.2,21.7
		c-17.8,17.6-35.2,35.6-51.8,54.2c-7.6,8.5-7.7,14.9,0.8,21.7c16.4,13.1,30.8,28.3,45.6,43c2.6,2.6,5.2,5.1,7.6,7.8
		c13.5,15,12.7,24.1-4.5,35.3c-35.4,23.2-71.6,45.2-108.9,65.2C756.8,1091.2,744.8,1101.8,729,1104.3z"/>
	<path class="st4" d="M729,1104.3c38.8-22.6,77.8-45,116.4-67.9c12.9-7.6,24.9-16.7,37.6-24.6c9.9-6.2,9.5-12.8,2.7-20.9
		c-14.7-17.4-31.4-32.8-48.5-47.8c-22.6-19.9-23-20.1-2.5-42.1c20.7-22.3,41.9-44,63-65.9c14.6-2.4,25.8-12.2,38.7-18.4
		c15.5-7.4,30.7-15.5,48.6-24.5c-3.5,11.9-10.7,18.1-16.7,24.5c-33.8,36.2-67.9,72.1-101.9,108.1c-12.5,13.2-12.6,14.4,0.7,27.2
		c14.4,13.8,29.4,27.1,43.6,41.2c19.7,19.6,19.2,23.9-4.8,39.4c-22.1,14.2-44.2,28.6-67.2,41.3c-44.1,24.4-87.5,50.1-133.3,71.3
		c-3.5,1.6-6.7,4.7-12.2,3.7c8.2-12,17.7-22.1,27.3-32.1C723.7,1113.2,729.9,1111.1,729,1104.3z"/>
	<path class="st5" d="M846.3,450.9c29.2,15.7,31.2,53.7,61.5,64.9c-37.5,9.7-62.6-3.9-80.1-44.7c-4.1-9.5-6.6-19.7-17.9-25.9
		c25.6-3.8,37.3-22.7,30.4-45.5c-3.8-12.5-22.1-22.1-34.3-18.4c-4.5,1.4-3.9,4.5-3.9,7.4c0,37.8,0,75.5,0,113.3
		c0,7.9,5.1,11.7,11.3,15.2c-19.9,0-39.7,0-59.6,0c11.1-3.3,13-11.5,12.9-21.8c-0.3-34.1-0.2-68.2-0.1-102.4
		c0-8.6-0.7-16.5-11.2-19.9c29.8-1.2,59.1-3.6,88.1,0.3c22.5,3,34.2,16.4,35.1,35.3C879.7,429.7,869.9,443.3,846.3,450.9z"/>
	<path class="st5" d="M1207.6,348.1c-12.3,5.9-11.9,13.3-5.6,22.4c8.9,13,17.3,26.3,26.8,40.8c10.3-16,19.5-30.4,28.8-44.8
		c5.7-8.9-0.3-13.7-8.1-18.7c18.4,0,35.2,0,52,0c-22.2,6.4-28.7,27.5-40.4,43.5c-8,11-20.5,22.7-20.6,34.2
		c-0.1,11.5,12.6,23.2,19.8,34.7c7.5,11.9,15.4,23.6,22.8,35.6c6.5,10.4,14.6,18.2,27.3,21.1c-24.9,0-49.9,0-76.4,0
		c13.5-5.6,11.6-13.3,5.1-22.7c-10.3-14.8-19.7-30.2-30.2-46.4c-11.7,17.3-22.6,33-33,48.8c-6.7,10.2-5.7,12.8,7,20.4
		c-19.1,0-37,0-54.8,0c16.1-2.2,23.9-14.6,32.1-26.5c11.2-16,22.2-32.2,33.9-47.8c4.9-6.5,5.2-11.1,0.5-17.9
		c-12.4-18-24-36.4-35.7-54.8c-6.8-10.7-15.1-19-28.2-21.8C1155.9,348.1,1181,348.1,1207.6,348.1z"/>
	<path class="st5" d="M651.7,520.8c-42.8-0.1-72.6-17.2-84-46.5c-19.2-49.6,11.3-99.2,64.3-104.7c14.1-1.5,28.3-1.7,42.1,1.3
		c41.2,9,63.7,39.3,60.6,81.2c-2.7,37.6-31,64.6-71.1,68C658.7,520.5,653.7,520.6,651.7,520.8z"/>
	<path class="st6" d="M476.4,449.3c25.1-7.8,34.5-22.2,30.8-45c-1.2-7.5-4.5-13.8-10.9-18.1c-7.6-5.1-16.7-7.6-24.7-4.6
		c-7.7,2.9-3.4,12-3.5,18.2c-0.4,31.9-0.2,63.7-0.2,95.6c0,9.4,0,18.6,11.9,21.8c-19.8,0-39.7,0-59.5,0
		c10.4-3.7,12.5-11.9,12.4-21.8c-0.2-33.7-0.1-67.4,0-101.1c0-9.6-1.2-18.2-16.4-21.4c32.8,0,61.4-1.2,89.8,0.4
		c20.5,1.2,34.3,14.5,38.4,31.6c3.9,16.6-3.5,36.3-17.2,45.9C513,460.8,493.4,460.5,476.4,449.3z"/>
	<path class="st5" d="M380.5,379.9c-12.1-22.9-29.2-30.7-50.1-23.8c-8.7,2.9-15.3,8.1-17.5,17.4c-2.4,9.8,2.5,16.8,10.1,22
		c15.8,10.7,31.8,21.1,47.7,31.7c22.8,15.1,30.5,30.8,25.7,52.2c-5.1,22.5-22,37.4-47.3,40.5c-15.4,1.9-30.9,1.5-46.1-2.5
		c-20.9-5.6-26.1-13.3-22-34.4c1.1-5.7,2.2-11.7,7.1-16.8c1.1,4.8,1.9,9.2,3,13.5c7,27,41.3,40.7,65,26.1
		c15.5-9.5,17.7-28.4,3.1-39.8c-16.1-12.6-33.7-23.1-50.5-34.8c-22-15.4-28.2-29.7-23.3-51.8c4.1-18.5,15.9-29.5,33.7-33.6
		c19.8-4.7,39.9,0.6,59.9,0.3c4.5-0.1,5,2.9,4.6,6.5C382.5,361.3,381.5,370.1,380.5,379.9z"/>
	<path class="st6" d="M999,517.1c-20,0-40,0-60,0c10.5-3.7,12.8-11.5,12.7-21.4c-0.2-34.6-0.4-69.2,0.1-103.8
		c0.1-9.2-2.8-12.3-11.6-11.1c-3.6,0.5-7.3,0.1-10.9,0.1c-18.9,0.2-23.3,3.4-29.4,21.6c-0.5-0.3-1.6-0.6-1.6-1
		c0.1-10.4-3.4-23.6,1.6-30.5c4.5-6.2,18.2,0.6,27.9,0.4c35-0.8,70.1,2.2,105-2.1c5.4-0.7,7.3-0.2,7.1,5.5
		c-0.3,9.5-0.1,19.1-0.8,29.1c-2.8-9.8-6.1-19.1-17.2-21.9c-9.9-2.5-19.9-0.9-29.9-1.1c-5.5-0.1-5,4.2-5,7.7
		c0,37.3-0.1,74.6,0.1,112C987.1,508.7,991,514.3,999,517.1z"/>
	<path class="st6" d="M1119,517.1c-20.6,0-41.3,0-66.7,0c17.1-4.1,17.9-13.9,17.7-24.9c-0.4-32.7-0.3-65.4,0-98.1
		c0.1-10.1-2.1-17.8-12.8-21.5c20.4,0,40.7,0,61.1,0c-11.3,2.8-13.3,10.7-13.2,20.8c0.3,34.1,0.3,68.1,0,102.2
		C1104.8,506.3,1107.2,514.2,1119,517.1z"/>
	<path class="st7" d="M687.1,631.2c13,13.3,21.5,30.7,38.3,40.2c-15.5,0.6-22-2.6-32.1-16c-7.3-9.7-13.1-20.7-24.9-28.6
		c5.8-1,10.1-1.8,14.4-2.5c11.5-1.8,14.3-10.6,14.5-20c0.3-9.6-5-16.4-14.8-18.6c-3.5-0.8-7.3-0.3-10.9-0.9
		c-9.3-1.5-12.7,1.7-12.3,11.6c0.8,19.5,0.3,39.1,0.2,58.7c0,6.5,0,12.7,7.7,17.2c-9,0-16.3,0-23.6,0c7.8-11.2,8.2-80.9,0-92.5
		c11,0,21.4-0.1,31.8,0c18.9,0.2,29.3,6.3,32.5,18.8C711.4,611.7,704.7,622.2,687.1,631.2z"/>
	<path class="st8" d="M1166,672.9c10.1-10.6,11.3-79.8,1.4-92.7c11,0,21.2-0.2,31.3,0.1c11.5,0.3,22,3.7,26.3,15.6
		c4,11.2-1.9,19.1-12.7,25.6c3.9,1.9,6.6,2.9,9,4.3c9.6,5.3,14.8,12.9,13.3,24.5c-1.4,11.1-8.5,16.8-18.2,19.7
		C1200.4,674.8,1183.8,671.7,1166,672.9z"/>
	<path class="st9" d="M574,674.2c-31.7-0.4-53.2-20.5-53-49.7c0.1-26.4,23.8-47.3,53.2-46.8c29.4,0.5,50.8,21.3,50.6,49.2
		C624.6,653.8,602.3,674.6,574,674.2z"/>
	<path class="st10" d="M465.8,630.6c12.9-1,24.2-4.5,28.8-18.2c3-9.1,1.3-17.4-6.6-23.1c-8.7-6.3-19.1-5.3-28.9-3.7
		c-3.3,0.6-2.3,5.5-2.3,8.5c-0.1,20.9,0.1,41.8-0.1,62.7c-0.1,6.3,1.9,11.3,7.4,15.6c-8.5,0-16.2,0-23.9,0
		c8.9-10.1,10-79.3,0.9-92.3c11.8,0,23.1-0.3,34.3,0.1c12.9,0.4,24.4,4,29.9,17.2c4.2,10.3,1.6,19.9-5.7,27.7
		C490,635.4,478.2,635,465.8,630.6z"/>
	<path class="st11" d="M957.4,641.7c1,14-9.5,26.1-26.4,30.8c-25.3,6.9-51.8-3.4-63.8-24.7c-12.6-22.5-8.8-53.7,8.8-70.7
		c16.7-16.2,51.5-19.7,71.4-7.4c8.8,5.4,5.2,14.4,8.8,24.4c-15.3-24.3-31.2-31.4-52.7-25.4c-19.7,5.6-31.7,23.7-32,48.5
		c-0.3,24.3,11.6,44.1,30.2,50.1C923.5,674.5,940.7,666.5,957.4,641.7z"/>
	<path class="st12" d="M1056.6,580.3c8,0,13.4,0,21,0c-3.9,3.7-5.4,6.8-5.3,10.8c0.3,17.3-0.3,34.6,0.5,51.9
		c0.7,16.4,11.1,26.3,26.7,27.2c16.5,0.9,29.8-7.8,31.4-23.7c1.9-18.9,1-38.1,1.2-57.2c0-3.5-2.7-5.6-4.8-8.2
		c5.4-1.9,10.7-1.4,17.2-0.2c-6.2,4.3-5.7,10.2-5.6,15.9c0,14.6,0.3,29.1-0.2,43.7c-0.7,21.8-14.1,33.6-37.7,33.7
		c-23.4,0.2-37.8-11.6-38.8-32.9c-0.7-15.4-0.2-30.9-0.2-46.4C1062,590,1062.4,585,1056.6,580.3z"/>
	<path class="st7" d="M366.6,646.2c0.7,9.3,2.9,15.8,9.1,20c8.6,5.9,21.4,4.4,28.6-3.5c7.2-7.8,6.9-19.9-1.3-28.2
		c-9.3-9.3-19.4-17.8-28.7-27.1c-10.7-10.7-11.5-24.7-2.6-35.6c7-8.7,28.9-13.4,37.9-7.7c4.9,3.1,1.7,8.2,0.3,14
		c-1.9-2.6-3.3-5.9-5.8-7.6c-8.7-5.7-17.6-5.1-24.6,2.6c-7.1,7.8-6.8,17,0.5,24.5c9.1,9.5,19.3,18,28.7,27.1
		c12.4,12.1,13.4,30,2.6,41.4c-9.3,9.8-34.4,11.2-44.3,2.1C360.1,662.2,362.4,655.3,366.6,646.2z"/>
	<path class="st13" d="M755.3,672.2c5.4-4.4,7.2-9.5,7.1-15.9c-0.3-20.5-0.5-41,0.1-61.4c0.2-8.8-3.2-11.6-11.1-10.3
		c-8.4,1.3-18.5-4.2-24.6,6.3c-4.3-11.3-1-13,10.9-12c20.3,1.8,41.1,2.2,61.3-0.2c13.4-1.6,12,3.9,10.6,12.2
		c-5.3-5.2-29.5-9.1-34.7-5.7c-3.4,2.2-2.3,5.6-2.3,8.6c-0.1,20.9,0.1,41.9-0.1,62.8c-0.1,6.4,1.4,11.6,10.3,15.5
		C772.1,672.2,764.6,672.2,755.3,672.2z"/>
	<path class="st14" d="M980.2,672.6c9.5-11.4,10.5-78.6,2-92.2c6.8,0,13.5,0,20.6,0c-2.4,4-5.7,6.6-5.7,11.1
		c0,23.1,0.1,46.3-0.1,69.4c-0.1,5.7,2.8,6.8,7.6,6.7c12.9-0.2,26.1,1.6,38.1-9c-0.9,10.3-4,14.6-13.6,14.1
		C1013.1,672.1,997.2,672.6,980.2,672.6z"/>
	<path class="st0" d="M599.9,445.4c0.2-16.3,2.5-31.4,10.8-45.1c18.2-29.8,59.1-30.4,76,0.2c16,28.9,16,59.6-0.1,88.5
		c-17,30.5-57.7,29.8-76,0C602.3,475.4,600.2,460.3,599.9,445.4z"/>
	<path class="st15" d="M1191.7,622.4c7.2,1.8,14.1,2.7,20.3,5.3c9.7,4,12.6,12.2,11.6,22.3c-1,9.6-7,14.5-15.5,16.6
		c-4.3,1.1-9.1,0.3-13.5,1c-9.6,1.5-11.2-3.3-10.9-11.6c0.5-19.1-0.2-38.2,0.4-57.3c0.1-5.2-4.4-14,6.9-14.1
		c10.3-0.1,20.7,0.3,23.8,13C1217.9,610.9,1211.3,618.2,1191.7,622.4z"/>
	<path class="st0" d="M613.6,626.8c-0.3,24.6-18.5,43.5-41.4,43c-22.9-0.5-40.4-19.9-39.9-44.5c0.5-25.2,17.7-42.9,41.4-42.6
		C597,583,613.9,601.8,613.6,626.8z"/>
</g>
</svg>
