<?xml version="1.0" encoding="utf-8"?>
<!-- Generator: Adobe Illustrator 24.3.0, SVG Export Plug-In . SVG Version: 6.00 Build 0)  -->
<svg version="1.1" id="Layer_1" xmlns="http://www.w3.org/2000/svg" xmlns:xlink="http://www.w3.org/1999/xlink" x="0px" y="0px"
	 width="1589.8px" height="1609.4px" viewBox="0 0 1589.8 1609.4" style="enable-background:new 0 0 1589.8 1609.4;"
	 xml:space="preserve">
<style type="text/css">
	.st0{fill:#FFFFFF;}
</style>
<g>
	<path class="st0" d="M686.7,400.5c-16.9-30.6-57.8-30-76-0.2c-8.3,13.6-10.6,28.7-10.8,45.1c0.2,14.9,2.4,30,10.7,43.7
		c18.3,29.9,59,30.5,76,0C702.8,460.1,702.7,429.4,686.7,400.5z M686.7,400.5c-16.9-30.6-57.8-30-76-0.2
		c-8.3,13.6-10.6,28.7-10.8,45.1c0.2,14.9,2.4,30,10.7,43.7c18.3,29.9,59,30.5,76,0C702.8,460.1,702.7,429.4,686.7,400.5z
		 M686.7,400.5c-16.9-30.6-57.8-30-76-0.2c-8.3,13.6-10.6,28.7-10.8,45.1c0.2,14.9,2.4,30,10.7,43.7c18.3,29.9,59,30.5,76,0
		C702.8,460.1,702.7,429.4,686.7,400.5z M686.7,400.5c-16.9-30.6-57.8-30-76-0.2c-8.3,13.6-10.6,28.7-10.8,45.1
		c0.2,14.9,2.4,30,10.7,43.7c18.3,29.9,59,30.5,76,0C702.8,460.1,702.7,429.4,686.7,400.5z M686.7,400.5c-16.9-30.6-57.8-30-76-0.2
		c-8.3,13.6-10.6,28.7-10.8,45.1c0.2,14.9,2.4,30,10.7,43.7c18.3,29.9,59,30.5,76,0C702.8,460.1,702.7,429.4,686.7,400.5z
		 M686.7,400.5c-16.9-30.6-57.8-30-76-0.2c-8.3,13.6-10.6,28.7-10.8,45.1c0.2,14.9,2.4,30,10.7,43.7c18.3,29.9,59,30.5,76,0
		C702.8,460.1,702.7,429.4,686.7,400.5z M686.7,400.5c-16.9-30.6-57.8-30-76-0.2c-8.3,13.6-10.6,28.7-10.8,45.1
		c0.2,14.9,2.4,30,10.7,43.7c18.3,29.9,59,30.5,76,0C702.8,460.1,702.7,429.4,686.7,400.5z M1212,627.7c-6.2-2.6-13.1-3.5-20.2-5.3
		c19.5-4.3,26.2-11.5,22.9-24.7c-3.2-12.7-13.6-13.1-23.8-13c-11.3,0.1-6.7,8.9-6.9,14.1c-0.5,19.1,0.1,38.2-0.4,57.3
		c-0.2,8.3,1.3,13.1,10.9,11.6c4.5-0.7,9.2,0.1,13.5-1c8.5-2.1,14.6-7,15.5-16.6C1224.5,640,1221.6,631.8,1212,627.7z M686.7,400.5
		c-16.9-30.6-57.8-30-76-0.2c-8.3,13.6-10.6,28.7-10.8,45.1c0.2,14.9,2.4,30,10.7,43.7c18.3,29.9,59,30.5,76,0
		C702.8,460.1,702.7,429.4,686.7,400.5z M1212,627.7c-6.2-2.6-13.1-3.5-20.2-5.3c19.5-4.3,26.2-11.5,22.9-24.7
		c-3.2-12.7-13.6-13.1-23.8-13c-11.3,0.1-6.7,8.9-6.9,14.1c-0.5,19.1,0.1,38.2-0.4,57.3c-0.2,8.3,1.3,13.1,10.9,11.6
		c4.5-0.7,9.2,0.1,13.5-1c8.5-2.1,14.6-7,15.5-16.6C1224.5,640,1221.6,631.8,1212,627.7z M686.7,400.5c-16.9-30.6-57.8-30-76-0.2
		c-8.3,13.6-10.6,28.7-10.8,45.1c0.2,14.9,2.4,30,10.7,43.7c18.3,29.9,59,30.5,76,0C702.8,460.1,702.7,429.4,686.7,400.5z
		 M1212,627.7c-6.2-2.6-13.1-3.5-20.2-5.3c19.5-4.3,26.2-11.5,22.9-24.7c-3.2-12.7-13.6-13.1-23.8-13c-11.3,0.1-6.7,8.9-6.9,14.1
		c-0.5,19.1,0.1,38.2-0.4,57.3c-0.2,8.3,1.3,13.1,10.9,11.6c4.5-0.7,9.2,0.1,13.5-1c8.5-2.1,14.6-7,15.5-16.6
		C1224.5,640,1221.6,631.8,1212,627.7z M686.7,400.5c-16.9-30.6-57.8-30-76-0.2c-8.3,13.6-10.6,28.7-10.8,45.1
		c0.2,14.9,2.4,30,10.7,43.7c18.3,29.9,59,30.5,76,0C702.8,460.1,702.7,429.4,686.7,400.5z M1212,627.7c-6.2-2.6-13.1-3.5-20.2-5.3
		c19.5-4.3,26.2-11.5,22.9-24.7c-3.2-12.7-13.6-13.1-23.8-13c-11.3,0.1-6.7,8.9-6.9,14.1c-0.5,19.1,0.1,38.2-0.4,57.3
		c-0.2,8.3,1.3,13.1,10.9,11.6c4.5-0.7,9.2,0.1,13.5-1c8.5-2.1,14.6-7,15.5-16.6C1224.5,640,1221.6,631.8,1212,627.7z M686.7,400.5
		c-16.9-30.6-57.8-30-76-0.2c-8.3,13.6-10.6,28.7-10.8,45.1c0.2,14.9,2.4,30,10.7,43.7c18.3,29.9,59,30.5,76,0
		C702.8,460.1,702.7,429.4,686.7,400.5z M1212,627.7c-6.2-2.6-13.1-3.5-20.2-5.3c19.5-4.3,26.2-11.5,22.9-24.7
		c-3.2-12.7-13.6-13.1-23.8-13c-11.3,0.1-6.7,8.9-6.9,14.1c-0.5,19.1,0.1,38.2-0.4,57.3c-0.2,8.3,1.3,13.1,10.9,11.6
		c4.5-0.7,9.2,0.1,13.5-1c8.5-2.1,14.6-7,15.5-16.6C1224.5,640,1221.6,631.8,1212,627.7z M686.7,400.5c-16.9-30.6-57.8-30-76-0.2
		c-8.3,13.6-10.6,28.7-10.8,45.1c0.2,14.9,2.4,30,10.7,43.7c18.3,29.9,59,30.5,76,0C702.8,460.1,702.7,429.4,686.7,400.5z
		 M1212,627.7c-6.2-2.6-13.1-3.5-20.2-5.3c19.5-4.3,26.2-11.5,22.9-24.7c-3.2-12.7-13.6-13.1-23.8-13c-11.3,0.1-6.7,8.9-6.9,14.1
		c-0.5,19.1,0.1,38.2-0.4,57.3c-0.2,8.3,1.3,13.1,10.9,11.6c4.5-0.7,9.2,0.1,13.5-1c8.5-2.1,14.6-7,15.5-16.6
		C1224.5,640,1221.6,631.8,1212,627.7z M573.7,582.7c-23.7-0.3-40.9,17.4-41.4,42.6c-0.5,24.6,16.9,44.1,39.9,44.5
		c22.9,0.5,41-18.4,41.4-43C613.9,601.8,597,583,573.7,582.7z M686.7,400.5c-16.9-30.6-57.8-30-76-0.2
		c-8.3,13.6-10.6,28.7-10.8,45.1c0.2,14.9,2.4,30,10.7,43.7c18.3,29.9,59,30.5,76,0C702.8,460.1,702.7,429.4,686.7,400.5z
		 M1212,627.7c-6.2-2.6-13.1-3.5-20.2-5.3c19.5-4.3,26.2-11.5,22.9-24.7c-3.2-12.7-13.6-13.1-23.8-13c-11.3,0.1-6.7,8.9-6.9,14.1
		c-0.5,19.1,0.1,38.2-0.4,57.3c-0.2,8.3,1.3,13.1,10.9,11.6c4.5-0.7,9.2,0.1,13.5-1c8.5-2.1,14.6-7,15.5-16.6
		C1224.5,640,1221.6,631.8,1212,627.7z M686.7,400.5c-16.9-30.6-57.8-30-76-0.2c-8.3,13.6-10.6,28.7-10.8,45.1
		c0.2,14.9,2.4,30,10.7,43.7c18.3,29.9,59,30.5,76,0C702.8,460.1,702.7,429.4,686.7,400.5z M573.7,582.7
		c-23.7-0.3-40.9,17.4-41.4,42.6c-0.5,24.6,16.9,44.1,39.9,44.5c22.9,0.5,41-18.4,41.4-43C613.9,601.8,597,583,573.7,582.7z
		 M1212,627.7c-6.2-2.6-13.1-3.5-20.2-5.3c19.5-4.3,26.2-11.5,22.9-24.7c-3.2-12.7-13.6-13.1-23.8-13c-11.3,0.1-6.7,8.9-6.9,14.1
		c-0.5,19.1,0.1,38.2-0.4,57.3c-0.2,8.3,1.3,13.1,10.9,11.6c4.5-0.7,9.2,0.1,13.5-1c8.5-2.1,14.6-7,15.5-16.6
		C1224.5,640,1221.6,631.8,1212,627.7z M573.7,582.7c-23.7-0.3-40.9,17.4-41.4,42.6c-0.5,24.6,16.9,44.1,39.9,44.5
		c22.9,0.5,41-18.4,41.4-43C613.9,601.8,597,583,573.7,582.7z M686.7,400.5c-16.9-30.6-57.8-30-76-0.2
		c-8.3,13.6-10.6,28.7-10.8,45.1c0.2,14.9,2.4,30,10.7,43.7c18.3,29.9,59,30.5,76,0C702.8,460.1,702.7,429.4,686.7,400.5z
		 M1212,627.7c-6.2-2.6-13.1-3.5-20.2-5.3c19.5-4.3,26.2-11.5,22.9-24.7c-3.2-12.7-13.6-13.1-23.8-13c-11.3,0.1-6.7,8.9-6.9,14.1
		c-0.5,19.1,0.1,38.2-0.4,57.3c-0.2,8.3,1.3,13.1,10.9,11.6c4.5-0.7,9.2,0.1,13.5-1c8.5-2.1,14.6-7,15.5-16.6
		C1224.5,640,1221.6,631.8,1212,627.7z M686.7,400.5c-16.9-30.6-57.8-30-76-0.2c-8.3,13.6-10.6,28.7-10.8,45.1
		c0.2,14.9,2.4,30,10.7,43.7c18.3,29.9,59,30.5,76,0C702.8,460.1,702.7,429.4,686.7,400.5z M573.7,582.7
		c-23.7-0.3-40.9,17.4-41.4,42.6c-0.5,24.6,16.9,44.1,39.9,44.5c22.9,0.5,41-18.4,41.4-43C613.9,601.8,597,583,573.7,582.7z
		 M1212,627.7c-6.2-2.6-13.1-3.5-20.2-5.3c19.5-4.3,26.2-11.5,22.9-24.7c-3.2-12.7-13.6-13.1-23.8-13c-11.3,0.1-6.7,8.9-6.9,14.1
		c-0.5,19.1,0.1,38.2-0.4,57.3c-0.2,8.3,1.3,13.1,10.9,11.6c4.5-0.7,9.2,0.1,13.5-1c8.5-2.1,14.6-7,15.5-16.6
		C1224.5,640,1221.6,631.8,1212,627.7z M1576.7,113.3c-110.1-25.6-219.5-54.4-331.2-73C1118.9,19,991.5,4.8,863.1,1
		C695.6-4,529.4,9.8,364.1,36.5C244.3,55.9,126.8,86.1,8.9,114.4c-7.9,1.9-9.6,5.1-8.7,13.2C4,161.5,6.8,195.5,10,229.4
		c4,42.1,8,84.2,12,126.2c5.1,52.9,10.2,105.8,15.2,158.7c4.1,43,8,86,12.1,128.9c5,52.9,10.2,105.8,15.2,158.8
		c4.1,43,8,86,12.1,129c5,52.9,10.1,105.8,15.2,158.8c3.2,33.5,6.9,66.9,9.8,100.4c0.6,7.2,3.6,10,10.2,11.8
		c20.1,5.5,40,12.3,60.1,17.7c149.6,40.1,284.4,108.8,404.7,206.7c71,57.8,140.3,117.4,209,177.8c8.5,7.5,12.8,6.8,20.6-0.5
		c37.7-35.1,75.8-69.6,114.1-104c87-78.1,180.4-146.6,287.5-195.5c79.8-36.4,160.7-69.7,243.6-98.1c24.2-8.3,37.6-17.7,38.5-46.8
		c1.6-52.1,9.3-104,14.4-156c4.9-51.1,9.6-102.2,14.6-153.3c5.1-52.9,10.4-105.8,15.5-158.7c4-41.2,7.8-82.3,11.8-123.5
		c5.2-53.4,10.4-106.7,15.6-160.1c4.1-41.6,8.2-83.2,12.3-124.8c5-51.1,9.9-102.2,14.9-154.2C1592,118.5,1585.9,115.5,1576.7,113.3z
		 M1468.9,217.5c-3.4,31.7-7,64.5-10.3,97.3c-2.2,22.1-4,44.2-6.1,66.2c-3.4,34.6-7.1,69.2-10.4,103.9c-3.1,32.4-5.6,64.9-8.7,97.3
		c-3.2,33.7-6.9,67.4-10.2,101.2c-3.1,31.1-5.8,62.2-8.8,93.2c-3.4,34.6-7,69.3-10.4,103.9c-2.1,21.2-3.9,42.3-6,63.5
		c-3.4,34.6-7,69.3-10.5,103.9c-1.8,18.4-3.8,36.9-4.9,55.4c-0.6,9.2-6.2,11.8-13.5,14.4c-85.1,30.5-168.4,65.6-249.4,105.7
		c-72.3,35.8-138.2,81.4-200.9,132c-40.3,32.5-78.4,67.3-117.1,101.5c-6.5,5.8-9.6,4.5-15.5-0.5c-70.4-60.6-141.5-120.3-217.4-174.2
		c-47.9-34-97.5-64.9-150.8-89.7c-64.3-29.9-130.2-55.5-198.7-74.1c-9-2.4-14.4-6.7-15.2-16.1c-2.8-33.4-5.3-66.8-8.4-100.1
		c-4.1-43.7-9-87.2-13.2-130.9c-3.1-32.4-5.5-64.9-8.6-97.3c-3.2-33.8-7-67.4-10.3-101.2c-2.2-21.6-3.9-43.3-6-64.9
		c-3.5-36-7.2-72-10.5-108c-3.1-33.8-5.5-67.7-8.7-101.4c-3.1-33.3-7.2-66.5-10.2-99.8c-2.6-29.3-4.4-58.6-8.6-87.8
		c-0.8-5.7,1.5-9.1,7.7-10.7c65-16.2,129.9-32.5,196-43.7c41.9-7.1,83.7-14.7,125.7-20.8c34-5,68.2-8.4,102.4-11.8
		c40.5-4,81.1-7.2,121.6-10.7c0.9-0.1,1.8-0.2,2.7-0.2c56.4-0.5,112.7-5.3,169.1-2.6c58.4,2.8,116.8,5.4,174.9,11.2
		c75.5,7.5,150.7,17.7,225.5,31.4c70.8,13,141.1,27.7,210.7,46.1C1469.1,202.7,1469.1,202.7,1468.9,217.5z M1387.6,238.7
		c-7-1.7-14.1-3.1-21.2-4.8c-60.8-14.2-122.1-26.1-183.7-35.7c-53.5-8.4-107.3-15.3-161.4-20.2c-46.9-4.2-93.8-8.1-140.8-10.2
		c-28.6-1.3-57.4-0.2-95.5-0.2c-30,1.8-69.5-1.1-109.1,2.1c-36.5,3-73.1,5.4-109.6,8.5c-54.1,4.5-107.9,11.3-161.4,20.1
		c-67.3,11.1-134.5,23.3-200.7,40.2c-24.6,6.3-24.7,6-22.3,30.9c0.2,2.3-0.1,4.6,0.1,6.8c2.8,32,5.6,64,8.6,96c3.4,36,7,72,10.4,108
		c2.1,22.5,3.9,45.1,6.1,67.6c3.3,33.3,7,66.5,10.2,99.8c3.1,32.9,5.7,65.8,8.7,98.7c3.4,36.5,7,72.9,10.5,109.4
		c2.9,31.1,5.6,62.2,8.7,93.2c3.3,33.3,7.6,66.5,10.1,99.8c1.7,21.9,0.6,22.1,22.1,29.1c63.6,20.5,125.6,45.2,185.4,74.9
		c70.6,35,134.8,80.3,196.8,128.4c43,33.3,84.8,68,126.8,102.5c5.9,4.8,9,5,14.5-0.2c33.4-31.4,68.8-60.3,104.9-88.6
		c48.6-38.1,99.1-73.5,153.7-102.6c83.1-44.3,169.4-81.4,257.5-114.4c9.1-3.4,13.6-9,14.4-17.5c3.2-31.9,5.8-64,8.7-96
		c2-22.5,3.9-45.1,6.1-67.6c3.3-33.3,7-66.5,10.2-99.8c3.1-32,5.6-64,8.7-96c3.2-32.8,7.2-65.6,10.4-98.4
		c3.1-32.4,5.4-64.9,8.6-97.3c4.2-42.7,8.9-85.4,13.3-128.1c3.6-35.5,6.6-71.1,10.8-106.6C1411.3,247.4,1409.8,244,1387.6,238.7z
		 M899.9,371c4.5-6.2,18.2,0.6,27.9,0.4c35-0.8,70.1,2.2,105-2.1c5.4-0.7,7.3-0.2,7.1,5.5c-0.3,9.5-0.1,19.1-0.8,29.2
		c-2.8-9.8-6.1-19.1-17.2-21.9c-9.9-2.5-19.9-0.9-29.9-1.1c-5.5-0.1-5,4.2-5,7.7c0,37.3-0.1,74.6,0.1,112c0,8,3.9,13.6,11.9,16.4
		h-60c10.5-3.7,12.8-11.5,12.7-21.4c-0.2-34.6-0.4-69.2,0.1-103.8c0.1-9.2-2.8-12.3-11.6-11.1c-3.6,0.5-7.3,0.1-10.9,0.1
		c-18.9,0.2-23.3,3.4-29.4,21.6c-0.6-0.3-1.6-0.6-1.6-1C898.4,391.1,894.9,377.9,899.9,371z M901.6,667.4
		c21.9,7.1,39.2-0.9,55.8-25.7c1,14-9.5,26.1-26.4,30.8c-25.3,6.9-51.8-3.4-63.8-24.7c-12.6-22.5-8.8-53.7,8.8-70.7
		c16.7-16.2,51.5-19.7,71.4-7.4c8.8,5.4,5.2,14.4,8.8,24.4c-15.3-24.3-31.2-31.4-52.7-25.3c-19.8,5.6-31.7,23.7-32,48.5
		C871.1,641.6,883,661.4,901.6,667.4z M766.8,495.5c-0.3-34.1-0.2-68.2-0.1-102.4c0-8.6-0.7-16.5-11.2-19.9
		c29.8-1.2,59.1-3.6,88.1,0.3c22.5,3,34.2,16.4,35.1,35.3c1,20.9-8.8,34.5-32.4,42.2c29.2,15.7,31.2,53.7,61.5,64.9
		c-37.5,9.7-62.6-3.9-80.1-44.7c-4.1-9.5-6.7-19.7-17.9-25.9c25.6-3.8,37.3-22.7,30.4-45.5c-3.8-12.5-22.1-22.1-34.3-18.4
		c-4.5,1.4-3.8,4.5-3.8,7.4c-0.1,37.8,0,75.5,0,113.3c0,7.9,5.1,11.7,11.3,15.2h-59.6C765,513.9,766.9,505.7,766.8,495.5z
		 M799,578.7c13.4-1.6,12,4,10.6,12.2c-5.3-5.2-29.5-9.1-34.7-5.7c-3.3,2.2-2.3,5.6-2.3,8.6c-0.1,20.9,0.1,41.9-0.1,62.8
		c-0.1,6.4,1.5,11.6,10.3,15.5h-27.4c5.4-4.4,7.2-9.5,7.1-15.9c-0.3-20.5-0.5-41,0.1-61.4c0.2-8.8-3.2-11.6-11.1-10.3
		c-8.4,1.3-18.5-4.2-24.6,6.3c-4.3-11.3-1-13,10.9-12C758,580.7,778.8,581.1,799,578.7z M632,369.5c14.1-1.5,28.3-1.7,42.1,1.3
		c41.2,8.9,63.7,39.3,60.6,81.2c-2.8,37.5-31,64.6-71.1,68c-5,0.4-10,0.5-12,0.6c-42.8,0-72.6-17.2-84-46.5
		C548.5,424.6,579,375.1,632,369.5z M302.9,517.4c-20.9-5.6-26.1-13.3-22-34.4c1.1-5.7,2.2-11.7,7.1-16.8c1.1,4.8,1.9,9.2,3,13.5
		c7,27,41.3,40.7,65,26.1c15.5-9.5,17.7-28.4,3-39.8c-16.1-12.6-33.8-23.1-50.5-34.8c-22-15.4-28.2-29.8-23.3-51.9
		c4.1-18.5,15.9-29.5,33.7-33.6c19.8-4.7,39.9,0.6,59.9,0.3c4.5-0.1,5,2.9,4.6,6.5c-1,8.8-1.9,17.6-3,27.4
		c-12.1-22.9-29.2-30.7-50.1-23.8c-8.7,2.9-15.3,8.1-17.5,17.4c-2.4,9.8,2.5,16.8,10.1,22c15.8,10.8,31.8,21.1,47.7,31.7
		c22.8,15.1,30.5,30.8,25.7,52.2c-5.1,22.5-22,37.4-47.3,40.5C333.5,521.8,318.1,521.4,302.9,517.4z M411,666.1
		c-9.3,9.8-34.4,11.2-44.3,2.1c-6.6-6-4.4-12.9-0.2-22c0.7,9.3,2.9,15.8,9,20c8.6,6,21.4,4.4,28.6-3.5c7.2-7.8,6.9-19.9-1.3-28.2
		c-9.3-9.3-19.4-17.8-28.7-27.1c-10.7-10.7-11.5-24.7-2.6-35.6c7-8.7,28.9-13.4,37.9-7.7c4.9,3.1,1.7,8.2,0.3,14
		c-1.9-2.6-3.3-5.9-5.8-7.6c-8.7-5.7-17.6-5.1-24.6,2.6c-7.1,7.8-6.8,17,0.5,24.5c9.1,9.5,19.3,18,28.7,27.1
		C420.9,636.8,421.9,654.7,411,666.1z M432.6,394.3c0-9.6-1.2-18.2-16.4-21.4c32.8,0,61.3-1.2,89.8,0.4
		c20.5,1.2,34.3,14.5,38.4,31.6c3.9,16.6-3.5,36.3-17.2,46c-14.1,9.9-33.7,9.6-50.7-1.6c25.1-7.8,34.5-22.2,30.8-45
		c-1.2-7.5-4.5-13.8-11-18.1c-7.6-5.1-16.7-7.6-24.7-4.6c-7.7,2.9-3.4,12-3.5,18.2c-0.4,31.9-0.2,63.7-0.2,95.6
		c0,9.4,0,18.6,11.9,21.8h-59.5c10.4-3.7,12.5-11.9,12.4-21.8C432.4,461.7,432.5,428,432.6,394.3z M499.6,625.1
		c-9.6,10.3-21.4,9.8-33.7,5.5c12.9-1,24.2-4.5,28.8-18.2c3-9.1,1.3-17.4-6.6-23.1c-8.7-6.3-19.1-5.3-28.9-3.6
		c-3.3,0.6-2.3,5.5-2.3,8.5c-0.1,20.9,0.1,41.8-0.1,62.7c-0.1,6.3,1.9,11.3,7.4,15.6h-23.9c8.9-10.1,10-79.3,0.9-92.3
		c11.8,0,23.1-0.3,34.3,0.1c12.9,0.4,24.4,4,29.8,17.2C509.4,607.7,506.9,617.2,499.6,625.1z M574,674.2
		c-31.7-0.4-53.1-20.5-53-49.7c0.1-26.4,23.8-47.3,53.2-46.8c29.4,0.5,50.8,21.2,50.7,49.2C624.6,653.8,602.3,674.6,574,674.2z
		 M643.7,579.9c11,0,21.4-0.1,31.8,0c18.9,0.2,29.3,6.3,32.5,18.8c3.3,13-3.3,23.4-20.9,32.4c13,13.3,21.5,30.7,38.3,40.2
		c-15.5,0.6-22-2.6-32.1-16c-7.4-9.7-13.1-20.7-24.9-28.5c5.8-1,10.1-1.8,14.4-2.5c11.5-1.8,14.3-10.6,14.5-20
		c0.3-9.6-5-16.4-14.8-18.6c-3.5-0.8-7.3-0.3-10.9-0.9c-9.3-1.5-12.7,1.8-12.3,11.6c0.8,19.5,0.3,39.1,0.2,58.7
		c0,6.5,0,12.7,7.7,17.2h-23.6C651.5,661.2,651.9,591.5,643.7,579.9z M645.1,1145.2c6.7-11.9,14.5-19.2,21.7-26.9
		c35.4-37.8,70.5-75.9,106.5-113.1c9.8-10.2,8.5-16.4-1.1-25.1c-18.1-16.5-36.1-33.2-53-51c-15.9-16.6-15-18.8,3.8-31.5
		c47.1-31.8,96.9-59.2,146.7-86.4c22.3-12.2,45.1-23.5,67.8-35.1c4.3-2.2,8.5-5,16-4.9c-16.9,24.4-38.6,42.3-55.8,63.9c0,0,0,0,0,0
		c-21,21.9-42.3,43.6-62.9,65.9c-20.4,22-20,22.2,2.5,42.1c17,15,33.8,30.4,48.5,47.8c6.8,8.1,7.2,14.8-2.7,20.9
		c-12.7,7.9-24.7,17-37.6,24.6c-38.7,22.9-77.6,45.3-116.4,67.9C701.4,1116.6,676,1133.6,645.1,1145.2z M1029,672.8
		c-15.9-0.7-31.8-0.2-48.8-0.2c9.5-11.4,10.5-78.6,2-92.1h20.6c-2.4,4-5.7,6.6-5.7,11.1c0,23.1,0.1,46.3-0.1,69.4
		c-0.1,5.7,2.8,6.8,7.6,6.7c12.9-0.2,26.1,1.6,38-9C1041.7,668.9,1038.5,673.2,1029,672.8z M1069.9,492.2c-0.4-32.7-0.3-65.4,0-98.1
		c0.1-10.1-2.1-17.8-12.8-21.5h61.1c-11.3,2.8-13.3,10.7-13.2,20.8c0.3,34.1,0.3,68.2,0,102.2c-0.1,10.7,2.3,18.7,14,21.5h-66.7
		C1069.4,513,1070.1,503.2,1069.9,492.2z M1138.9,596.8c0,14.6,0.3,29.1-0.2,43.7c-0.7,21.8-14.1,33.6-37.7,33.7
		c-23.4,0.2-37.8-11.6-38.8-32.9c-0.7-15.4-0.2-30.9-0.2-46.4c0-5,0.4-10-5.4-14.6h21c-3.9,3.7-5.4,6.8-5.3,10.8
		c0.3,17.3-0.3,34.6,0.5,51.9c0.7,16.4,11.1,26.3,26.7,27.2c16.5,0.9,29.8-7.8,31.4-23.7c1.9-18.9,1-38.1,1.2-57.2
		c0-3.5-2.7-5.6-4.8-8.2c5.4-1.9,10.7-1.4,17.2-0.2C1138.4,585.2,1138.9,591,1138.9,596.8z M1234.5,650.2
		c-1.4,11.1-8.5,16.8-18.2,19.7c-16,4.9-32.5,1.8-50.4,3c10.1-10.6,11.3-79.8,1.4-92.7c11,0,21.2-0.2,31.3,0.1
		c11.5,0.3,22,3.7,26.3,15.6c4,11.2-1.9,19.1-12.7,25.6c4,1.9,6.6,2.9,9,4.3C1230.8,631,1236,638.6,1234.5,650.2z M1234,516.8
		c13.5-5.6,11.6-13.3,5.1-22.7c-10.3-14.8-19.7-30.2-30.2-46.4c-11.7,17.3-22.6,33-33,48.8c-6.7,10.2-5.8,12.8,7,20.4h-54.8
		c16.1-2.2,23.9-14.6,32.1-26.5c11.2-16,22.2-32.2,33.9-47.8c4.9-6.5,5.2-11.1,0.5-17.9c-12.4-18-24-36.4-35.7-54.9
		c-6.8-10.7-15.1-19-28.2-21.8h76.8c-12.3,5.9-11.9,13.3-5.6,22.4c8.9,13,17.3,26.3,26.8,40.8c10.3-16,19.5-30.4,28.8-44.8
		c5.8-8.9-0.2-13.7-8.2-18.7h52c-22.2,6.4-28.7,27.5-40.4,43.5c-8,11-20.4,22.7-20.6,34.2c-0.1,11.5,12.6,23.2,19.8,34.7
		c7.5,11.9,15.4,23.6,22.8,35.5c6.5,10.4,14.6,18.2,27.3,21.1H1234z M1212,627.7c-6.2-2.6-13.1-3.5-20.2-5.3
		c19.5-4.3,26.2-11.5,22.9-24.7c-3.2-12.7-13.6-13.1-23.8-13c-11.3,0.1-6.7,8.9-6.9,14.1c-0.5,19.1,0.1,38.2-0.4,57.3
		c-0.2,8.3,1.3,13.1,10.9,11.6c4.5-0.7,9.2,0.1,13.5-1c8.5-2.1,14.6-7,15.5-16.6C1224.5,640,1221.6,631.8,1212,627.7z M686.7,489
		c16.1-28.9,16.1-59.6,0.1-88.5c-16.9-30.6-57.8-30-76-0.2c-8.3,13.6-10.6,28.7-10.8,45.1c0.2,14.9,2.4,30,10.7,43.7
		C628.9,518.9,669.7,519.5,686.7,489z M573.7,582.7c-23.7-0.3-40.9,17.4-41.4,42.6c-0.5,24.6,16.9,44.1,39.9,44.5
		c22.9,0.5,41-18.4,41.4-43C613.9,601.8,597,583,573.7,582.7z M1212,627.7c-6.2-2.6-13.1-3.5-20.2-5.3c19.5-4.3,26.2-11.5,22.9-24.7
		c-3.2-12.7-13.6-13.1-23.8-13c-11.3,0.1-6.7,8.9-6.9,14.1c-0.5,19.1,0.1,38.2-0.4,57.3c-0.2,8.3,1.3,13.1,10.9,11.6
		c4.5-0.7,9.2,0.1,13.5-1c8.5-2.1,14.6-7,15.5-16.6C1224.5,640,1221.6,631.8,1212,627.7z M573.7,582.7
		c-23.7-0.3-40.9,17.4-41.4,42.6c-0.5,24.6,16.9,44.1,39.9,44.5c22.9,0.5,41-18.4,41.4-43C613.9,601.8,597,583,573.7,582.7z
		 M686.7,400.5c-16.9-30.6-57.8-30-76-0.2c-8.3,13.6-10.6,28.7-10.8,45.1c0.2,14.9,2.4,30,10.7,43.7c18.3,29.9,59,30.5,76,0
		C702.8,460.1,702.7,429.4,686.7,400.5z M1212,627.7c-6.2-2.6-13.1-3.5-20.2-5.3c19.5-4.3,26.2-11.5,22.9-24.7
		c-3.2-12.7-13.6-13.1-23.8-13c-11.3,0.1-6.7,8.9-6.9,14.1c-0.5,19.1,0.1,38.2-0.4,57.3c-0.2,8.3,1.3,13.1,10.9,11.6
		c4.5-0.7,9.2,0.1,13.5-1c8.5-2.1,14.6-7,15.5-16.6C1224.5,640,1221.6,631.8,1212,627.7z M686.7,400.5c-16.9-30.6-57.8-30-76-0.2
		c-8.3,13.6-10.6,28.7-10.8,45.1c0.2,14.9,2.4,30,10.7,43.7c18.3,29.9,59,30.5,76,0C702.8,460.1,702.7,429.4,686.7,400.5z
		 M573.7,582.7c-23.7-0.3-40.9,17.4-41.4,42.6c-0.5,24.6,16.9,44.1,39.9,44.5c22.9,0.5,41-18.4,41.4-43
		C613.9,601.8,597,583,573.7,582.7z M1212,627.7c-6.2-2.6-13.1-3.5-20.2-5.3c19.5-4.3,26.2-11.5,22.9-24.7
		c-3.2-12.7-13.6-13.1-23.8-13c-11.3,0.1-6.7,8.9-6.9,14.1c-0.5,19.1,0.1,38.2-0.4,57.3c-0.2,8.3,1.3,13.1,10.9,11.6
		c4.5-0.7,9.2,0.1,13.5-1c8.5-2.1,14.6-7,15.5-16.6C1224.5,640,1221.6,631.8,1212,627.7z M573.7,582.7
		c-23.7-0.3-40.9,17.4-41.4,42.6c-0.5,24.6,16.9,44.1,39.9,44.5c22.9,0.5,41-18.4,41.4-43C613.9,601.8,597,583,573.7,582.7z
		 M686.7,400.5c-16.9-30.6-57.8-30-76-0.2c-8.3,13.6-10.6,28.7-10.8,45.1c0.2,14.9,2.4,30,10.7,43.7c18.3,29.9,59,30.5,76,0
		C702.8,460.1,702.7,429.4,686.7,400.5z M1212,627.7c-6.2-2.6-13.1-3.5-20.2-5.3c19.5-4.3,26.2-11.5,22.9-24.7
		c-3.2-12.7-13.6-13.1-23.8-13c-11.3,0.1-6.7,8.9-6.9,14.1c-0.5,19.1,0.1,38.2-0.4,57.3c-0.2,8.3,1.3,13.1,10.9,11.6
		c4.5-0.7,9.2,0.1,13.5-1c8.5-2.1,14.6-7,15.5-16.6C1224.5,640,1221.6,631.8,1212,627.7z M686.7,400.5c-16.9-30.6-57.8-30-76-0.2
		c-8.3,13.6-10.6,28.7-10.8,45.1c0.2,14.9,2.4,30,10.7,43.7c18.3,29.9,59,30.5,76,0C702.8,460.1,702.7,429.4,686.7,400.5z
		 M573.7,582.7c-23.7-0.3-40.9,17.4-41.4,42.6c-0.5,24.6,16.9,44.1,39.9,44.5c22.9,0.5,41-18.4,41.4-43
		C613.9,601.8,597,583,573.7,582.7z M1212,627.7c-6.2-2.6-13.1-3.5-20.2-5.3c19.5-4.3,26.2-11.5,22.9-24.7
		c-3.2-12.7-13.6-13.1-23.8-13c-11.3,0.1-6.7,8.9-6.9,14.1c-0.5,19.1,0.1,38.2-0.4,57.3c-0.2,8.3,1.3,13.1,10.9,11.6
		c4.5-0.7,9.2,0.1,13.5-1c8.5-2.1,14.6-7,15.5-16.6C1224.5,640,1221.6,631.8,1212,627.7z M686.7,400.5c-16.9-30.6-57.8-30-76-0.2
		c-8.3,13.6-10.6,28.7-10.8,45.1c0.2,14.9,2.4,30,10.7,43.7c18.3,29.9,59,30.5,76,0C702.8,460.1,702.7,429.4,686.7,400.5z
		 M1212,627.7c-6.2-2.6-13.1-3.5-20.2-5.3c19.5-4.3,26.2-11.5,22.9-24.7c-3.2-12.7-13.6-13.1-23.8-13c-11.3,0.1-6.7,8.9-6.9,14.1
		c-0.5,19.1,0.1,38.2-0.4,57.3c-0.2,8.3,1.3,13.1,10.9,11.6c4.5-0.7,9.2,0.1,13.5-1c8.5-2.1,14.6-7,15.5-16.6
		C1224.5,640,1221.6,631.8,1212,627.7z M686.7,400.5c-16.9-30.6-57.8-30-76-0.2c-8.3,13.6-10.6,28.7-10.8,45.1
		c0.2,14.9,2.4,30,10.7,43.7c18.3,29.9,59,30.5,76,0C702.8,460.1,702.7,429.4,686.7,400.5z M1212,627.7c-6.2-2.6-13.1-3.5-20.2-5.3
		c19.5-4.3,26.2-11.5,22.9-24.7c-3.2-12.7-13.6-13.1-23.8-13c-11.3,0.1-6.7,8.9-6.9,14.1c-0.5,19.1,0.1,38.2-0.4,57.3
		c-0.2,8.3,1.3,13.1,10.9,11.6c4.5-0.7,9.2,0.1,13.5-1c8.5-2.1,14.6-7,15.5-16.6C1224.5,640,1221.6,631.8,1212,627.7z M686.7,400.5
		c-16.9-30.6-57.8-30-76-0.2c-8.3,13.6-10.6,28.7-10.8,45.1c0.2,14.9,2.4,30,10.7,43.7c18.3,29.9,59,30.5,76,0
		C702.8,460.1,702.7,429.4,686.7,400.5z M1212,627.7c-6.2-2.6-13.1-3.5-20.2-5.3c19.5-4.3,26.2-11.5,22.9-24.7
		c-3.2-12.7-13.6-13.1-23.8-13c-11.3,0.1-6.7,8.9-6.9,14.1c-0.5,19.1,0.1,38.2-0.4,57.3c-0.2,8.3,1.3,13.1,10.9,11.6
		c4.5-0.7,9.2,0.1,13.5-1c8.5-2.1,14.6-7,15.5-16.6C1224.5,640,1221.6,631.8,1212,627.7z M686.7,400.5c-16.9-30.6-57.8-30-76-0.2
		c-8.3,13.6-10.6,28.7-10.8,45.1c0.2,14.9,2.4,30,10.7,43.7c18.3,29.9,59,30.5,76,0C702.8,460.1,702.7,429.4,686.7,400.5z
		 M686.7,400.5c-16.9-30.6-57.8-30-76-0.2c-8.3,13.6-10.6,28.7-10.8,45.1c0.2,14.9,2.4,30,10.7,43.7c18.3,29.9,59,30.5,76,0
		C702.8,460.1,702.7,429.4,686.7,400.5z M686.7,400.5c-16.9-30.6-57.8-30-76-0.2c-8.3,13.6-10.6,28.7-10.8,45.1
		c0.2,14.9,2.4,30,10.7,43.7c18.3,29.9,59,30.5,76,0C702.8,460.1,702.7,429.4,686.7,400.5z M686.7,400.5c-16.9-30.6-57.8-30-76-0.2
		c-8.3,13.6-10.6,28.7-10.8,45.1c0.2,14.9,2.4,30,10.7,43.7c18.3,29.9,59,30.5,76,0C702.8,460.1,702.7,429.4,686.7,400.5z
		 M686.7,400.5c-16.9-30.6-57.8-30-76-0.2c-8.3,13.6-10.6,28.7-10.8,45.1c0.2,14.9,2.4,30,10.7,43.7c18.3,29.9,59,30.5,76,0
		C702.8,460.1,702.7,429.4,686.7,400.5z M686.7,400.5c-16.9-30.6-57.8-30-76-0.2c-8.3,13.6-10.6,28.7-10.8,45.1
		c0.2,14.9,2.4,30,10.7,43.7c18.3,29.9,59,30.5,76,0C702.8,460.1,702.7,429.4,686.7,400.5z M686.7,400.5c-16.9-30.6-57.8-30-76-0.2
		c-8.3,13.6-10.6,28.7-10.8,45.1c0.2,14.9,2.4,30,10.7,43.7c18.3,29.9,59,30.5,76,0C702.8,460.1,702.7,429.4,686.7,400.5z"/>
	<path class="st0" d="M686.7,400.5c-16.9-30.6-57.8-30-76-0.2c-8.3,13.6-10.6,28.7-10.8,45.1c0.2,14.9,2.4,30,10.7,43.7
		c18.3,29.9,59,30.5,76,0C702.8,460.1,702.7,429.4,686.7,400.5z M686.7,400.5c-16.9-30.6-57.8-30-76-0.2
		c-8.3,13.6-10.6,28.7-10.8,45.1c0.2,14.9,2.4,30,10.7,43.7c18.3,29.9,59,30.5,76,0C702.8,460.1,702.7,429.4,686.7,400.5z
		 M686.7,400.5c-16.9-30.6-57.8-30-76-0.2c-8.3,13.6-10.6,28.7-10.8,45.1c0.2,14.9,2.4,30,10.7,43.7c18.3,29.9,59,30.5,76,0
		C702.8,460.1,702.7,429.4,686.7,400.5z M686.7,400.5c-16.9-30.6-57.8-30-76-0.2c-8.3,13.6-10.6,28.7-10.8,45.1
		c0.2,14.9,2.4,30,10.7,43.7c18.3,29.9,59,30.5,76,0C702.8,460.1,702.7,429.4,686.7,400.5z M686.7,400.5c-16.9-30.6-57.8-30-76-0.2
		c-8.3,13.6-10.6,28.7-10.8,45.1c0.2,14.9,2.4,30,10.7,43.7c18.3,29.9,59,30.5,76,0C702.8,460.1,702.7,429.4,686.7,400.5z
		 M686.7,400.5c-16.9-30.6-57.8-30-76-0.2c-8.3,13.6-10.6,28.7-10.8,45.1c0.2,14.9,2.4,30,10.7,43.7c18.3,29.9,59,30.5,76,0
		C702.8,460.1,702.7,429.4,686.7,400.5z M686.7,400.5c-16.9-30.6-57.8-30-76-0.2c-8.3,13.6-10.6,28.7-10.8,45.1
		c0.2,14.9,2.4,30,10.7,43.7c18.3,29.9,59,30.5,76,0C702.8,460.1,702.7,429.4,686.7,400.5z M1212,627.7c-6.2-2.6-13.1-3.5-20.2-5.3
		c19.5-4.3,26.2-11.5,22.9-24.7c-3.2-12.7-13.6-13.1-23.8-13c-11.3,0.1-6.7,8.9-6.9,14.1c-0.5,19.1,0.1,38.2-0.4,57.3
		c-0.2,8.3,1.3,13.1,10.9,11.6c4.5-0.7,9.2,0.1,13.5-1c8.5-2.1,14.6-7,15.5-16.6C1224.5,640,1221.6,631.8,1212,627.7z M1212,627.7
		c-6.2-2.6-13.1-3.5-20.2-5.3c19.5-4.3,26.2-11.5,22.9-24.7c-3.2-12.7-13.6-13.1-23.8-13c-11.3,0.1-6.7,8.9-6.9,14.1
		c-0.5,19.1,0.1,38.2-0.4,57.3c-0.2,8.3,1.3,13.1,10.9,11.6c4.5-0.7,9.2,0.1,13.5-1c8.5-2.1,14.6-7,15.5-16.6
		C1224.5,640,1221.6,631.8,1212,627.7z M686.7,400.5c-16.9-30.6-57.8-30-76-0.2c-8.3,13.6-10.6,28.7-10.8,45.1
		c0.2,14.9,2.4,30,10.7,43.7c18.3,29.9,59,30.5,76,0C702.8,460.1,702.7,429.4,686.7,400.5z M686.7,400.5c-16.9-30.6-57.8-30-76-0.2
		c-8.3,13.6-10.6,28.7-10.8,45.1c0.2,14.9,2.4,30,10.7,43.7c18.3,29.9,59,30.5,76,0C702.8,460.1,702.7,429.4,686.7,400.5z
		 M1212,627.7c-6.2-2.6-13.1-3.5-20.2-5.3c19.5-4.3,26.2-11.5,22.9-24.7c-3.2-12.7-13.6-13.1-23.8-13c-11.3,0.1-6.7,8.9-6.9,14.1
		c-0.5,19.1,0.1,38.2-0.4,57.3c-0.2,8.3,1.3,13.1,10.9,11.6c4.5-0.7,9.2,0.1,13.5-1c8.5-2.1,14.6-7,15.5-16.6
		C1224.5,640,1221.6,631.8,1212,627.7z M1212,627.7c-6.2-2.6-13.1-3.5-20.2-5.3c19.5-4.3,26.2-11.5,22.9-24.7
		c-3.2-12.7-13.6-13.1-23.8-13c-11.3,0.1-6.7,8.9-6.9,14.1c-0.5,19.1,0.1,38.2-0.4,57.3c-0.2,8.3,1.3,13.1,10.9,11.6
		c4.5-0.7,9.2,0.1,13.5-1c8.5-2.1,14.6-7,15.5-16.6C1224.5,640,1221.6,631.8,1212,627.7z M686.7,400.5c-16.9-30.6-57.8-30-76-0.2
		c-8.3,13.6-10.6,28.7-10.8,45.1c0.2,14.9,2.4,30,10.7,43.7c18.3,29.9,59,30.5,76,0C702.8,460.1,702.7,429.4,686.7,400.5z
		 M686.7,400.5c-16.9-30.6-57.8-30-76-0.2c-8.3,13.6-10.6,28.7-10.8,45.1c0.2,14.9,2.4,30,10.7,43.7c18.3,29.9,59,30.5,76,0
		C702.8,460.1,702.7,429.4,686.7,400.5z M1212,627.7c-6.2-2.6-13.1-3.5-20.2-5.3c19.5-4.3,26.2-11.5,22.9-24.7
		c-3.2-12.7-13.6-13.1-23.8-13c-11.3,0.1-6.7,8.9-6.9,14.1c-0.5,19.1,0.1,38.2-0.4,57.3c-0.2,8.3,1.3,13.1,10.9,11.6
		c4.5-0.7,9.2,0.1,13.5-1c8.5-2.1,14.6-7,15.5-16.6C1224.5,640,1221.6,631.8,1212,627.7z M1212,627.7c-6.2-2.6-13.1-3.5-20.2-5.3
		c19.5-4.3,26.2-11.5,22.9-24.7c-3.2-12.7-13.6-13.1-23.8-13c-11.3,0.1-6.7,8.9-6.9,14.1c-0.5,19.1,0.1,38.2-0.4,57.3
		c-0.2,8.3,1.3,13.1,10.9,11.6c4.5-0.7,9.2,0.1,13.5-1c8.5-2.1,14.6-7,15.5-16.6C1224.5,640,1221.6,631.8,1212,627.7z M686.7,400.5
		c-16.9-30.6-57.8-30-76-0.2c-8.3,13.6-10.6,28.7-10.8,45.1c0.2,14.9,2.4,30,10.7,43.7c18.3,29.9,59,30.5,76,0
		C702.8,460.1,702.7,429.4,686.7,400.5z M573.7,582.7c-23.7-0.3-40.9,17.4-41.4,42.6c-0.5,24.6,16.9,44.1,39.9,44.5
		c22.9,0.5,41-18.4,41.4-43C613.9,601.8,597,583,573.7,582.7z M686.7,400.5c-16.9-30.6-57.8-30-76-0.2
		c-8.3,13.6-10.6,28.7-10.8,45.1c0.2,14.9,2.4,30,10.7,43.7c18.3,29.9,59,30.5,76,0C702.8,460.1,702.7,429.4,686.7,400.5z
		 M1212,627.7c-6.2-2.6-13.1-3.5-20.2-5.3c19.5-4.3,26.2-11.5,22.9-24.7c-3.2-12.7-13.6-13.1-23.8-13c-11.3,0.1-6.7,8.9-6.9,14.1
		c-0.5,19.1,0.1,38.2-0.4,57.3c-0.2,8.3,1.3,13.1,10.9,11.6c4.5-0.7,9.2,0.1,13.5-1c8.5-2.1,14.6-7,15.5-16.6
		C1224.5,640,1221.6,631.8,1212,627.7z M1212,627.7c-6.2-2.6-13.1-3.5-20.2-5.3c19.5-4.3,26.2-11.5,22.9-24.7
		c-3.2-12.7-13.6-13.1-23.8-13c-11.3,0.1-6.7,8.9-6.9,14.1c-0.5,19.1,0.1,38.2-0.4,57.3c-0.2,8.3,1.3,13.1,10.9,11.6
		c4.5-0.7,9.2,0.1,13.5-1c8.5-2.1,14.6-7,15.5-16.6C1224.5,640,1221.6,631.8,1212,627.7z M573.7,582.7
		c-23.7-0.3-40.9,17.4-41.4,42.6c-0.5,24.6,16.9,44.1,39.9,44.5c22.9,0.5,41-18.4,41.4-43C613.9,601.8,597,583,573.7,582.7z
		 M686.7,400.5c-16.9-30.6-57.8-30-76-0.2c-8.3,13.6-10.6,28.7-10.8,45.1c0.2,14.9,2.4,30,10.7,43.7c18.3,29.9,59,30.5,76,0
		C702.8,460.1,702.7,429.4,686.7,400.5z M573.7,582.7c-23.7-0.3-40.9,17.4-41.4,42.6c-0.5,24.6,16.9,44.1,39.9,44.5
		c22.9,0.5,41-18.4,41.4-43C613.9,601.8,597,583,573.7,582.7z M686.7,400.5c-16.9-30.6-57.8-30-76-0.2
		c-8.3,13.6-10.6,28.7-10.8,45.1c0.2,14.9,2.4,30,10.7,43.7c18.3,29.9,59,30.5,76,0C702.8,460.1,702.7,429.4,686.7,400.5z
		 M1212,627.7c-6.2-2.6-13.1-3.5-20.2-5.3c19.5-4.3,26.2-11.5,22.9-24.7c-3.2-12.7-13.6-13.1-23.8-13c-11.3,0.1-6.7,8.9-6.9,14.1
		c-0.5,19.1,0.1,38.2-0.4,57.3c-0.2,8.3,1.3,13.1,10.9,11.6c4.5-0.7,9.2,0.1,13.5-1c8.5-2.1,14.6-7,15.5-16.6
		C1224.5,640,1221.6,631.8,1212,627.7z M1212,627.7c-6.2-2.6-13.1-3.5-20.2-5.3c19.5-4.3,26.2-11.5,22.9-24.7
		c-3.2-12.7-13.6-13.1-23.8-13c-11.3,0.1-6.7,8.9-6.9,14.1c-0.5,19.1,0.1,38.2-0.4,57.3c-0.2,8.3,1.3,13.1,10.9,11.6
		c4.5-0.7,9.2,0.1,13.5-1c8.5-2.1,14.6-7,15.5-16.6C1224.5,640,1221.6,631.8,1212,627.7z M573.7,582.7
		c-23.7-0.3-40.9,17.4-41.4,42.6c-0.5,24.6,16.9,44.1,39.9,44.5c22.9,0.5,41-18.4,41.4-43C613.9,601.8,597,583,573.7,582.7z
		 M686.7,400.5c-16.9-30.6-57.8-30-76-0.2c-8.3,13.6-10.6,28.7-10.8,45.1c0.2,14.9,2.4,30,10.7,43.7c18.3,29.9,59,30.5,76,0
		C702.8,460.1,702.7,429.4,686.7,400.5z M1387.6,238.7c-7-1.7-14.1-3.1-21.2-4.8c-60.8-14.2-122.1-26.1-183.7-35.7
		c-53.5-8.4-107.3-15.3-161.4-20.2c-46.9-4.2-93.8-8.1-140.8-10.2c-28.6-1.3-57.4-0.2-95.5-0.2c-30,1.8-69.5-1.1-109.1,2.1
		c-36.5,3-73.1,5.4-109.6,8.5c-54.1,4.5-107.9,11.3-161.4,20.1c-67.3,11.1-134.5,23.3-200.7,40.2c-24.6,6.3-24.7,6-22.3,30.9
		c0.2,2.3-0.1,4.6,0.1,6.8c2.8,32,5.6,64,8.6,96c3.4,36,7,72,10.4,108c2.1,22.5,3.9,45.1,6.1,67.6c3.3,33.3,7,66.5,10.2,99.8
		c3.1,32.9,5.7,65.8,8.7,98.7c3.4,36.5,7,72.9,10.5,109.4c2.9,31.1,5.6,62.2,8.7,93.2c3.3,33.3,7.6,66.5,10.1,99.8
		c1.7,21.9,0.6,22.1,22.1,29.1c63.6,20.5,125.6,45.2,185.4,74.9c70.6,35,134.8,80.3,196.8,128.4c43,33.3,84.8,68,126.8,102.5
		c5.9,4.8,9,5,14.5-0.2c33.4-31.4,68.8-60.3,104.9-88.6c48.6-38.1,99.1-73.5,153.7-102.6c83.1-44.3,169.4-81.4,257.5-114.4
		c9.1-3.4,13.6-9,14.4-17.5c3.2-31.9,5.8-64,8.7-96c2-22.5,3.9-45.1,6.1-67.6c3.3-33.3,7-66.5,10.2-99.8c3.1-32,5.6-64,8.7-96
		c3.2-32.8,7.2-65.6,10.4-98.4c3.1-32.4,5.4-64.9,8.6-97.3c4.2-42.7,8.9-85.4,13.3-128.1c3.6-35.5,6.6-71.1,10.8-106.6
		C1411.3,247.4,1409.8,244,1387.6,238.7z M899.9,371c4.5-6.2,18.2,0.6,27.9,0.4c35-0.8,70.1,2.2,105-2.1c5.4-0.7,7.3-0.2,7.1,5.5
		c-0.3,9.5-0.1,19.1-0.8,29.2c-2.8-9.8-6.1-19.1-17.2-21.9c-9.9-2.5-19.9-0.9-29.9-1.1c-5.5-0.1-5,4.2-5,7.7
		c0,37.3-0.1,74.6,0.1,112c0,8,3.9,13.6,11.9,16.4h-60c10.5-3.7,12.8-11.5,12.7-21.4c-0.2-34.6-0.4-69.2,0.1-103.8
		c0.1-9.2-2.8-12.3-11.6-11.1c-3.6,0.5-7.3,0.1-10.9,0.1c-18.9,0.2-23.3,3.4-29.4,21.6c-0.6-0.3-1.6-0.6-1.6-1
		C898.4,391.1,894.9,377.9,899.9,371z M901.6,667.4c21.9,7.1,39.2-0.9,55.8-25.7c1,14-9.5,26.1-26.4,30.8
		c-25.3,6.9-51.8-3.4-63.8-24.7c-12.6-22.5-8.8-53.7,8.8-70.7c16.7-16.2,51.5-19.7,71.4-7.4c8.8,5.4,5.2,14.4,8.8,24.4
		c-15.3-24.3-31.2-31.4-52.7-25.3c-19.8,5.6-31.7,23.7-32,48.5C871.1,641.6,883,661.4,901.6,667.4z M766.8,495.5
		c-0.3-34.1-0.2-68.2-0.1-102.4c0-8.6-0.7-16.5-11.2-19.9c29.8-1.2,59.1-3.6,88.1,0.3c22.5,3,34.2,16.4,35.1,35.3
		c1,20.9-8.8,34.5-32.4,42.2c29.2,15.7,31.2,53.7,61.5,64.9c-37.5,9.7-62.6-3.9-80.1-44.7c-4.1-9.5-6.7-19.7-17.9-25.9
		c25.6-3.8,37.3-22.7,30.4-45.5c-3.8-12.5-22.1-22.1-34.3-18.4c-4.5,1.4-3.8,4.5-3.8,7.4c-0.1,37.8,0,75.5,0,113.3
		c0,7.9,5.1,11.7,11.3,15.2h-59.6C765,513.9,766.9,505.7,766.8,495.5z M799,578.7c13.4-1.6,12,4,10.6,12.2
		c-5.3-5.2-29.5-9.1-34.7-5.7c-3.3,2.2-2.3,5.6-2.3,8.6c-0.1,20.9,0.1,41.9-0.1,62.8c-0.1,6.4,1.5,11.6,10.3,15.5h-27.4
		c5.4-4.4,7.2-9.5,7.1-15.9c-0.3-20.5-0.5-41,0.1-61.4c0.2-8.8-3.2-11.6-11.1-10.3c-8.4,1.3-18.5-4.2-24.6,6.3
		c-4.3-11.3-1-13,10.9-12C758,580.7,778.8,581.1,799,578.7z M632,369.5c14.1-1.5,28.3-1.7,42.1,1.3c41.2,8.9,63.7,39.3,60.6,81.2
		c-2.8,37.5-31,64.6-71.1,68c-5,0.4-10,0.5-12,0.6c-42.8,0-72.6-17.2-84-46.5C548.5,424.6,579,375.1,632,369.5z M302.9,517.4
		c-20.9-5.6-26.1-13.3-22-34.4c1.1-5.7,2.2-11.7,7.1-16.8c1.1,4.8,1.9,9.2,3,13.5c7,27,41.3,40.7,65,26.1c15.5-9.5,17.7-28.4,3-39.8
		c-16.1-12.6-33.8-23.1-50.5-34.8c-22-15.4-28.2-29.8-23.3-51.9c4.1-18.5,15.9-29.5,33.7-33.6c19.8-4.7,39.9,0.6,59.9,0.3
		c4.5-0.1,5,2.9,4.6,6.5c-1,8.8-1.9,17.6-3,27.4c-12.1-22.9-29.2-30.7-50.1-23.8c-8.7,2.9-15.3,8.1-17.5,17.4
		c-2.4,9.8,2.5,16.8,10.1,22c15.8,10.8,31.8,21.1,47.7,31.7c22.8,15.1,30.5,30.8,25.7,52.2c-5.1,22.5-22,37.4-47.3,40.5
		C333.5,521.8,318.1,521.4,302.9,517.4z M411,666.1c-9.3,9.8-34.4,11.2-44.3,2.1c-6.6-6-4.4-12.9-0.2-22c0.7,9.3,2.9,15.8,9,20
		c8.6,6,21.4,4.4,28.6-3.5c7.2-7.8,6.9-19.9-1.3-28.2c-9.3-9.3-19.4-17.8-28.7-27.1c-10.7-10.7-11.5-24.7-2.6-35.6
		c7-8.7,28.9-13.4,37.9-7.7c4.9,3.1,1.7,8.2,0.3,14c-1.9-2.6-3.3-5.9-5.8-7.6c-8.7-5.7-17.6-5.1-24.6,2.6c-7.1,7.8-6.8,17,0.5,24.5
		c9.1,9.5,19.3,18,28.7,27.1C420.9,636.8,421.9,654.7,411,666.1z M432.6,394.3c0-9.6-1.2-18.2-16.4-21.4c32.8,0,61.3-1.2,89.8,0.4
		c20.5,1.2,34.3,14.5,38.4,31.6c3.9,16.6-3.5,36.3-17.2,46c-14.1,9.9-33.7,9.6-50.7-1.6c25.1-7.8,34.5-22.2,30.8-45
		c-1.2-7.5-4.5-13.8-11-18.1c-7.6-5.1-16.7-7.6-24.7-4.6c-7.7,2.9-3.4,12-3.5,18.2c-0.4,31.9-0.2,63.7-0.2,95.6
		c0,9.4,0,18.6,11.9,21.8h-59.5c10.4-3.7,12.5-11.9,12.4-21.8C432.4,461.7,432.5,428,432.6,394.3z M499.6,625.1
		c-9.6,10.3-21.4,9.8-33.7,5.5c12.9-1,24.2-4.5,28.8-18.2c3-9.1,1.3-17.4-6.6-23.1c-8.7-6.3-19.1-5.3-28.9-3.6
		c-3.3,0.6-2.3,5.5-2.3,8.5c-0.1,20.9,0.1,41.8-0.1,62.7c-0.1,6.3,1.9,11.3,7.4,15.6h-23.9c8.9-10.1,10-79.3,0.9-92.3
		c11.8,0,23.1-0.3,34.3,0.1c12.9,0.4,24.4,4,29.8,17.2C509.4,607.7,506.9,617.2,499.6,625.1z M574,674.2
		c-31.7-0.4-53.1-20.5-53-49.7c0.1-26.4,23.8-47.3,53.2-46.8c29.4,0.5,50.8,21.2,50.7,49.2C624.6,653.8,602.3,674.6,574,674.2z
		 M643.7,579.9c11,0,21.4-0.1,31.8,0c18.9,0.2,29.3,6.3,32.5,18.8c3.3,13-3.3,23.4-20.9,32.4c13,13.3,21.5,30.7,38.3,40.2
		c-15.5,0.6-22-2.6-32.1-16c-7.4-9.7-13.1-20.7-24.9-28.5c5.8-1,10.1-1.8,14.4-2.5c11.5-1.8,14.3-10.6,14.5-20
		c0.3-9.6-5-16.4-14.8-18.6c-3.5-0.8-7.3-0.3-10.9-0.9c-9.3-1.5-12.7,1.8-12.3,11.6c0.8,19.5,0.3,39.1,0.2,58.7
		c0,6.5,0,12.7,7.7,17.2h-23.6C651.5,661.2,651.9,591.5,643.7,579.9z M645.1,1145.2c6.7-11.9,14.5-19.2,21.7-26.9
		c35.4-37.8,70.5-75.9,106.5-113.1c9.8-10.2,8.5-16.4-1.1-25.1c-18.1-16.5-36.1-33.2-53-51c-15.9-16.6-15-18.8,3.8-31.5
		c47.1-31.8,96.9-59.2,146.7-86.4c22.3-12.2,45.1-23.5,67.8-35.1c4.3-2.2,8.5-5,16-4.9c-16.9,24.4-38.6,42.3-55.8,63.9c0,0,0,0,0,0
		c-21,21.9-42.3,43.6-62.9,65.9c-20.4,22-20,22.2,2.5,42.1c17,15,33.8,30.4,48.5,47.8c6.8,8.1,7.2,14.8-2.7,20.9
		c-12.7,7.9-24.7,17-37.6,24.6c-38.7,22.9-77.6,45.3-116.4,67.9C701.4,1116.6,676,1133.6,645.1,1145.2z M1029,672.8
		c-15.9-0.7-31.8-0.2-48.8-0.2c9.5-11.4,10.5-78.6,2-92.1h20.6c-2.4,4-5.7,6.6-5.7,11.1c0,23.1,0.1,46.3-0.1,69.4
		c-0.1,5.7,2.8,6.8,7.6,6.7c12.9-0.2,26.1,1.6,38-9C1041.7,668.9,1038.5,673.2,1029,672.8z M1069.9,492.2c-0.4-32.7-0.3-65.4,0-98.1
		c0.1-10.1-2.1-17.8-12.8-21.5h61.1c-11.3,2.8-13.3,10.7-13.2,20.8c0.3,34.1,0.3,68.2,0,102.2c-0.1,10.7,2.3,18.7,14,21.5h-66.7
		C1069.4,513,1070.1,503.2,1069.9,492.2z M1138.9,596.8c0,14.6,0.3,29.1-0.2,43.7c-0.7,21.8-14.1,33.6-37.7,33.7
		c-23.4,0.2-37.8-11.6-38.8-32.9c-0.7-15.4-0.2-30.9-0.2-46.4c0-5,0.4-10-5.4-14.6h21c-3.9,3.7-5.4,6.8-5.3,10.8
		c0.3,17.3-0.3,34.6,0.5,51.9c0.7,16.4,11.1,26.3,26.7,27.2c16.5,0.9,29.8-7.8,31.4-23.7c1.9-18.9,1-38.1,1.2-57.2
		c0-3.5-2.7-5.6-4.8-8.2c5.4-1.9,10.7-1.4,17.2-0.2C1138.4,585.2,1138.9,591,1138.9,596.8z M1234.5,650.2
		c-1.4,11.1-8.5,16.8-18.2,19.7c-16,4.9-32.5,1.8-50.4,3c10.1-10.6,11.3-79.8,1.4-92.7c11,0,21.2-0.2,31.3,0.1
		c11.5,0.3,22,3.7,26.3,15.6c4,11.2-1.9,19.1-12.7,25.6c4,1.9,6.6,2.9,9,4.3C1230.8,631,1236,638.6,1234.5,650.2z M1234,516.8
		c13.5-5.6,11.6-13.3,5.1-22.7c-10.3-14.8-19.7-30.2-30.2-46.4c-11.7,17.3-22.6,33-33,48.8c-6.7,10.2-5.8,12.8,7,20.4h-54.8
		c16.1-2.2,23.9-14.6,32.1-26.5c11.2-16,22.2-32.2,33.9-47.8c4.9-6.5,5.2-11.1,0.5-17.9c-12.4-18-24-36.4-35.7-54.9
		c-6.8-10.7-15.1-19-28.2-21.8h76.8c-12.3,5.9-11.9,13.3-5.6,22.4c8.9,13,17.3,26.3,26.8,40.8c10.3-16,19.5-30.4,28.8-44.8
		c5.8-8.9-0.2-13.7-8.2-18.7h52c-22.2,6.4-28.7,27.5-40.4,43.5c-8,11-20.4,22.7-20.6,34.2c-0.1,11.5,12.6,23.2,19.8,34.7
		c7.5,11.9,15.4,23.6,22.8,35.5c6.5,10.4,14.6,18.2,27.3,21.1H1234z M1212,627.7c-6.2-2.6-13.1-3.5-20.2-5.3
		c19.5-4.3,26.2-11.5,22.9-24.7c-3.2-12.7-13.6-13.1-23.8-13c-11.3,0.1-6.7,8.9-6.9,14.1c-0.5,19.1,0.1,38.2-0.4,57.3
		c-0.2,8.3,1.3,13.1,10.9,11.6c4.5-0.7,9.2,0.1,13.5-1c8.5-2.1,14.6-7,15.5-16.6C1224.5,640,1221.6,631.8,1212,627.7z M686.7,489
		c16.1-28.9,16.1-59.6,0.1-88.5c-16.9-30.6-57.8-30-76-0.2c-8.3,13.6-10.6,28.7-10.8,45.1c0.2,14.9,2.4,30,10.7,43.7
		C628.9,518.9,669.7,519.5,686.7,489z M573.7,582.7c-23.7-0.3-40.9,17.4-41.4,42.6c-0.5,24.6,16.9,44.1,39.9,44.5
		c22.9,0.5,41-18.4,41.4-43C613.9,601.8,597,583,573.7,582.7z M686.7,400.5c-16.9-30.6-57.8-30-76-0.2
		c-8.3,13.6-10.6,28.7-10.8,45.1c0.2,14.9,2.4,30,10.7,43.7c18.3,29.9,59,30.5,76,0C702.8,460.1,702.7,429.4,686.7,400.5z
		 M573.7,582.7c-23.7-0.3-40.9,17.4-41.4,42.6c-0.5,24.6,16.9,44.1,39.9,44.5c22.9,0.5,41-18.4,41.4-43
		C613.9,601.8,597,583,573.7,582.7z M1212,627.7c-6.2-2.6-13.1-3.5-20.2-5.3c19.5-4.3,26.2-11.5,22.9-24.7
		c-3.2-12.7-13.6-13.1-23.8-13c-11.3,0.1-6.7,8.9-6.9,14.1c-0.5,19.1,0.1,38.2-0.4,57.3c-0.2,8.3,1.3,13.1,10.9,11.6
		c4.5-0.7,9.2,0.1,13.5-1c8.5-2.1,14.6-7,15.5-16.6C1224.5,640,1221.6,631.8,1212,627.7z M1212,627.7c-6.2-2.6-13.1-3.5-20.2-5.3
		c19.5-4.3,26.2-11.5,22.9-24.7c-3.2-12.7-13.6-13.1-23.8-13c-11.3,0.1-6.7,8.9-6.9,14.1c-0.5,19.1,0.1,38.2-0.4,57.3
		c-0.2,8.3,1.3,13.1,10.9,11.6c4.5-0.7,9.2,0.1,13.5-1c8.5-2.1,14.6-7,15.5-16.6C1224.5,640,1221.6,631.8,1212,627.7z M686.7,400.5
		c-16.9-30.6-57.8-30-76-0.2c-8.3,13.6-10.6,28.7-10.8,45.1c0.2,14.9,2.4,30,10.7,43.7c18.3,29.9,59,30.5,76,0
		C702.8,460.1,702.7,429.4,686.7,400.5z M573.7,582.7c-23.7-0.3-40.9,17.4-41.4,42.6c-0.5,24.6,16.9,44.1,39.9,44.5
		c22.9,0.5,41-18.4,41.4-43C613.9,601.8,597,583,573.7,582.7z M686.7,400.5c-16.9-30.6-57.8-30-76-0.2
		c-8.3,13.6-10.6,28.7-10.8,45.1c0.2,14.9,2.4,30,10.7,43.7c18.3,29.9,59,30.5,76,0C702.8,460.1,702.7,429.4,686.7,400.5z
		 M573.7,582.7c-23.7-0.3-40.9,17.4-41.4,42.6c-0.5,24.6,16.9,44.1,39.9,44.5c22.9,0.5,41-18.4,41.4-43
		C613.9,601.8,597,583,573.7,582.7z M1212,627.7c-6.2-2.6-13.1-3.5-20.2-5.3c19.5-4.3,26.2-11.5,22.9-24.7
		c-3.2-12.7-13.6-13.1-23.8-13c-11.3,0.1-6.7,8.9-6.9,14.1c-0.5,19.1,0.1,38.2-0.4,57.3c-0.2,8.3,1.3,13.1,10.9,11.6
		c4.5-0.7,9.2,0.1,13.5-1c8.5-2.1,14.6-7,15.5-16.6C1224.5,640,1221.6,631.8,1212,627.7z M1212,627.7c-6.2-2.6-13.1-3.5-20.2-5.3
		c19.5-4.3,26.2-11.5,22.9-24.7c-3.2-12.7-13.6-13.1-23.8-13c-11.3,0.1-6.7,8.9-6.9,14.1c-0.5,19.1,0.1,38.2-0.4,57.3
		c-0.2,8.3,1.3,13.1,10.9,11.6c4.5-0.7,9.2,0.1,13.5-1c8.5-2.1,14.6-7,15.5-16.6C1224.5,640,1221.6,631.8,1212,627.7z M686.7,400.5
		c-16.9-30.6-57.8-30-76-0.2c-8.3,13.6-10.6,28.7-10.8,45.1c0.2,14.9,2.4,30,10.7,43.7c18.3,29.9,59,30.5,76,0
		C702.8,460.1,702.7,429.4,686.7,400.5z M573.7,582.7c-23.7-0.3-40.9,17.4-41.4,42.6c-0.5,24.6,16.9,44.1,39.9,44.5
		c22.9,0.5,41-18.4,41.4-43C613.9,601.8,597,583,573.7,582.7z M686.7,400.5c-16.9-30.6-57.8-30-76-0.2
		c-8.3,13.6-10.6,28.7-10.8,45.1c0.2,14.9,2.4,30,10.7,43.7c18.3,29.9,59,30.5,76,0C702.8,460.1,702.7,429.4,686.7,400.5z
		 M1212,627.7c-6.2-2.6-13.1-3.5-20.2-5.3c19.5-4.3,26.2-11.5,22.9-24.7c-3.2-12.7-13.6-13.1-23.8-13c-11.3,0.1-6.7,8.9-6.9,14.1
		c-0.5,19.1,0.1,38.2-0.4,57.3c-0.2,8.3,1.3,13.1,10.9,11.6c4.5-0.7,9.2,0.1,13.5-1c8.5-2.1,14.6-7,15.5-16.6
		C1224.5,640,1221.6,631.8,1212,627.7z M1212,627.7c-6.2-2.6-13.1-3.5-20.2-5.3c19.5-4.3,26.2-11.5,22.9-24.7
		c-3.2-12.7-13.6-13.1-23.8-13c-11.3,0.1-6.7,8.9-6.9,14.1c-0.5,19.1,0.1,38.2-0.4,57.3c-0.2,8.3,1.3,13.1,10.9,11.6
		c4.5-0.7,9.2,0.1,13.5-1c8.5-2.1,14.6-7,15.5-16.6C1224.5,640,1221.6,631.8,1212,627.7z M686.7,400.5c-16.9-30.6-57.8-30-76-0.2
		c-8.3,13.6-10.6,28.7-10.8,45.1c0.2,14.9,2.4,30,10.7,43.7c18.3,29.9,59,30.5,76,0C702.8,460.1,702.7,429.4,686.7,400.5z
		 M686.7,400.5c-16.9-30.6-57.8-30-76-0.2c-8.3,13.6-10.6,28.7-10.8,45.1c0.2,14.9,2.4,30,10.7,43.7c18.3,29.9,59,30.5,76,0
		C702.8,460.1,702.7,429.4,686.7,400.5z M1212,627.7c-6.2-2.6-13.1-3.5-20.2-5.3c19.5-4.3,26.2-11.5,22.9-24.7
		c-3.2-12.7-13.6-13.1-23.8-13c-11.3,0.1-6.7,8.9-6.9,14.1c-0.5,19.1,0.1,38.2-0.4,57.3c-0.2,8.3,1.3,13.1,10.9,11.6
		c4.5-0.7,9.2,0.1,13.5-1c8.5-2.1,14.6-7,15.5-16.6C1224.5,640,1221.6,631.8,1212,627.7z M1212,627.7c-6.2-2.6-13.1-3.5-20.2-5.3
		c19.5-4.3,26.2-11.5,22.9-24.7c-3.2-12.7-13.6-13.1-23.8-13c-11.3,0.1-6.7,8.9-6.9,14.1c-0.5,19.1,0.1,38.2-0.4,57.3
		c-0.2,8.3,1.3,13.1,10.9,11.6c4.5-0.7,9.2,0.1,13.5-1c8.5-2.1,14.6-7,15.5-16.6C1224.5,640,1221.6,631.8,1212,627.7z M686.7,400.5
		c-16.9-30.6-57.8-30-76-0.2c-8.3,13.6-10.6,28.7-10.8,45.1c0.2,14.9,2.4,30,10.7,43.7c18.3,29.9,59,30.5,76,0
		C702.8,460.1,702.7,429.4,686.7,400.5z M686.7,400.5c-16.9-30.6-57.8-30-76-0.2c-8.3,13.6-10.6,28.7-10.8,45.1
		c0.2,14.9,2.4,30,10.7,43.7c18.3,29.9,59,30.5,76,0C702.8,460.1,702.7,429.4,686.7,400.5z M686.7,400.5c-16.9-30.6-57.8-30-76-0.2
		c-8.3,13.6-10.6,28.7-10.8,45.1c0.2,14.9,2.4,30,10.7,43.7c18.3,29.9,59,30.5,76,0C702.8,460.1,702.7,429.4,686.7,400.5z
		 M686.7,400.5c-16.9-30.6-57.8-30-76-0.2c-8.3,13.6-10.6,28.7-10.8,45.1c0.2,14.9,2.4,30,10.7,43.7c18.3,29.9,59,30.5,76,0
		C702.8,460.1,702.7,429.4,686.7,400.5z M686.7,400.5c-16.9-30.6-57.8-30-76-0.2c-8.3,13.6-10.6,28.7-10.8,45.1
		c0.2,14.9,2.4,30,10.7,43.7c18.3,29.9,59,30.5,76,0C702.8,460.1,702.7,429.4,686.7,400.5z M686.7,400.5c-16.9-30.6-57.8-30-76-0.2
		c-8.3,13.6-10.6,28.7-10.8,45.1c0.2,14.9,2.4,30,10.7,43.7c18.3,29.9,59,30.5,76,0C702.8,460.1,702.7,429.4,686.7,400.5z
		 M686.7,400.5c-16.9-30.6-57.8-30-76-0.2c-8.3,13.6-10.6,28.7-10.8,45.1c0.2,14.9,2.4,30,10.7,43.7c18.3,29.9,59,30.5,76,0
		C702.8,460.1,702.7,429.4,686.7,400.5z"/>
	<path class="st0" d="M686.7,400.5c-16.9-30.6-57.8-30-76-0.2c-8.3,13.6-10.6,28.7-10.8,45.1c0.2,14.9,2.4,30,10.7,43.7
		c18.3,29.9,59,30.5,76,0C702.8,460.1,702.7,429.4,686.7,400.5z M686.7,400.5c-16.9-30.6-57.8-30-76-0.2
		c-8.3,13.6-10.6,28.7-10.8,45.1c0.2,14.9,2.4,30,10.7,43.7c18.3,29.9,59,30.5,76,0C702.8,460.1,702.7,429.4,686.7,400.5z
		 M686.7,400.5c-16.9-30.6-57.8-30-76-0.2c-8.3,13.6-10.6,28.7-10.8,45.1c0.2,14.9,2.4,30,10.7,43.7c18.3,29.9,59,30.5,76,0
		C702.8,460.1,702.7,429.4,686.7,400.5z M686.7,400.5c-16.9-30.6-57.8-30-76-0.2c-8.3,13.6-10.6,28.7-10.8,45.1
		c0.2,14.9,2.4,30,10.7,43.7c18.3,29.9,59,30.5,76,0C702.8,460.1,702.7,429.4,686.7,400.5z M686.7,400.5c-16.9-30.6-57.8-30-76-0.2
		c-8.3,13.6-10.6,28.7-10.8,45.1c0.2,14.9,2.4,30,10.7,43.7c18.3,29.9,59,30.5,76,0C702.8,460.1,702.7,429.4,686.7,400.5z
		 M686.7,400.5c-16.9-30.6-57.8-30-76-0.2c-8.3,13.6-10.6,28.7-10.8,45.1c0.2,14.9,2.4,30,10.7,43.7c18.3,29.9,59,30.5,76,0
		C702.8,460.1,702.7,429.4,686.7,400.5z M686.7,400.5c-16.9-30.6-57.8-30-76-0.2c-8.3,13.6-10.6,28.7-10.8,45.1
		c0.2,14.9,2.4,30,10.7,43.7c18.3,29.9,59,30.5,76,0C702.8,460.1,702.7,429.4,686.7,400.5z M1212,627.7c-6.2-2.6-13.1-3.5-20.2-5.3
		c19.5-4.3,26.2-11.5,22.9-24.7c-3.2-12.7-13.6-13.1-23.8-13c-11.3,0.1-6.7,8.9-6.9,14.1c-0.5,19.1,0.1,38.2-0.4,57.3
		c-0.2,8.3,1.3,13.1,10.9,11.6c4.5-0.7,9.2,0.1,13.5-1c8.5-2.1,14.6-7,15.5-16.6C1224.5,640,1221.6,631.8,1212,627.7z M1212,627.7
		c-6.2-2.6-13.1-3.5-20.2-5.3c19.5-4.3,26.2-11.5,22.9-24.7c-3.2-12.7-13.6-13.1-23.8-13c-11.3,0.1-6.7,8.9-6.9,14.1
		c-0.5,19.1,0.1,38.2-0.4,57.3c-0.2,8.3,1.3,13.1,10.9,11.6c4.5-0.7,9.2,0.1,13.5-1c8.5-2.1,14.6-7,15.5-16.6
		C1224.5,640,1221.6,631.8,1212,627.7z M686.7,400.5c-16.9-30.6-57.8-30-76-0.2c-8.3,13.6-10.6,28.7-10.8,45.1
		c0.2,14.9,2.4,30,10.7,43.7c18.3,29.9,59,30.5,76,0C702.8,460.1,702.7,429.4,686.7,400.5z M686.7,400.5c-16.9-30.6-57.8-30-76-0.2
		c-8.3,13.6-10.6,28.7-10.8,45.1c0.2,14.9,2.4,30,10.7,43.7c18.3,29.9,59,30.5,76,0C702.8,460.1,702.7,429.4,686.7,400.5z
		 M1212,627.7c-6.2-2.6-13.1-3.5-20.2-5.3c19.5-4.3,26.2-11.5,22.9-24.7c-3.2-12.7-13.6-13.1-23.8-13c-11.3,0.1-6.7,8.9-6.9,14.1
		c-0.5,19.1,0.1,38.2-0.4,57.3c-0.2,8.3,1.3,13.1,10.9,11.6c4.5-0.7,9.2,0.1,13.5-1c8.5-2.1,14.6-7,15.5-16.6
		C1224.5,640,1221.6,631.8,1212,627.7z M1212,627.7c-6.2-2.6-13.1-3.5-20.2-5.3c19.5-4.3,26.2-11.5,22.9-24.7
		c-3.2-12.7-13.6-13.1-23.8-13c-11.3,0.1-6.7,8.9-6.9,14.1c-0.5,19.1,0.1,38.2-0.4,57.3c-0.2,8.3,1.3,13.1,10.9,11.6
		c4.5-0.7,9.2,0.1,13.5-1c8.5-2.1,14.6-7,15.5-16.6C1224.5,640,1221.6,631.8,1212,627.7z M686.7,400.5c-16.9-30.6-57.8-30-76-0.2
		c-8.3,13.6-10.6,28.7-10.8,45.1c0.2,14.9,2.4,30,10.7,43.7c18.3,29.9,59,30.5,76,0C702.8,460.1,702.7,429.4,686.7,400.5z
		 M686.7,400.5c-16.9-30.6-57.8-30-76-0.2c-8.3,13.6-10.6,28.7-10.8,45.1c0.2,14.9,2.4,30,10.7,43.7c18.3,29.9,59,30.5,76,0
		C702.8,460.1,702.7,429.4,686.7,400.5z M1212,627.7c-6.2-2.6-13.1-3.5-20.2-5.3c19.5-4.3,26.2-11.5,22.9-24.7
		c-3.2-12.7-13.6-13.1-23.8-13c-11.3,0.1-6.7,8.9-6.9,14.1c-0.5,19.1,0.1,38.2-0.4,57.3c-0.2,8.3,1.3,13.1,10.9,11.6
		c4.5-0.7,9.2,0.1,13.5-1c8.5-2.1,14.6-7,15.5-16.6C1224.5,640,1221.6,631.8,1212,627.7z M1212,627.7c-6.2-2.6-13.1-3.5-20.2-5.3
		c19.5-4.3,26.2-11.5,22.9-24.7c-3.2-12.7-13.6-13.1-23.8-13c-11.3,0.1-6.7,8.9-6.9,14.1c-0.5,19.1,0.1,38.2-0.4,57.3
		c-0.2,8.3,1.3,13.1,10.9,11.6c4.5-0.7,9.2,0.1,13.5-1c8.5-2.1,14.6-7,15.5-16.6C1224.5,640,1221.6,631.8,1212,627.7z M686.7,400.5
		c-16.9-30.6-57.8-30-76-0.2c-8.3,13.6-10.6,28.7-10.8,45.1c0.2,14.9,2.4,30,10.7,43.7c18.3,29.9,59,30.5,76,0
		C702.8,460.1,702.7,429.4,686.7,400.5z M573.7,582.7c-23.7-0.3-40.9,17.4-41.4,42.6c-0.5,24.6,16.9,44.1,39.9,44.5
		c22.9,0.5,41-18.4,41.4-43C613.9,601.8,597,583,573.7,582.7z M686.7,400.5c-16.9-30.6-57.8-30-76-0.2
		c-8.3,13.6-10.6,28.7-10.8,45.1c0.2,14.9,2.4,30,10.7,43.7c18.3,29.9,59,30.5,76,0C702.8,460.1,702.7,429.4,686.7,400.5z
		 M1212,627.7c-6.2-2.6-13.1-3.5-20.2-5.3c19.5-4.3,26.2-11.5,22.9-24.7c-3.2-12.7-13.6-13.1-23.8-13c-11.3,0.1-6.7,8.9-6.9,14.1
		c-0.5,19.1,0.1,38.2-0.4,57.3c-0.2,8.3,1.3,13.1,10.9,11.6c4.5-0.7,9.2,0.1,13.5-1c8.5-2.1,14.6-7,15.5-16.6
		C1224.5,640,1221.6,631.8,1212,627.7z M1212,627.7c-6.2-2.6-13.1-3.5-20.2-5.3c19.5-4.3,26.2-11.5,22.9-24.7
		c-3.2-12.7-13.6-13.1-23.8-13c-11.3,0.1-6.7,8.9-6.9,14.1c-0.5,19.1,0.1,38.2-0.4,57.3c-0.2,8.3,1.3,13.1,10.9,11.6
		c4.5-0.7,9.2,0.1,13.5-1c8.5-2.1,14.6-7,15.5-16.6C1224.5,640,1221.6,631.8,1212,627.7z M573.7,582.7
		c-23.7-0.3-40.9,17.4-41.4,42.6c-0.5,24.6,16.9,44.1,39.9,44.5c22.9,0.5,41-18.4,41.4-43C613.9,601.8,597,583,573.7,582.7z
		 M686.7,400.5c-16.9-30.6-57.8-30-76-0.2c-8.3,13.6-10.6,28.7-10.8,45.1c0.2,14.9,2.4,30,10.7,43.7c18.3,29.9,59,30.5,76,0
		C702.8,460.1,702.7,429.4,686.7,400.5z M573.7,582.7c-23.7-0.3-40.9,17.4-41.4,42.6c-0.5,24.6,16.9,44.1,39.9,44.5
		c22.9,0.5,41-18.4,41.4-43C613.9,601.8,597,583,573.7,582.7z M686.7,400.5c-16.9-30.6-57.8-30-76-0.2
		c-8.3,13.6-10.6,28.7-10.8,45.1c0.2,14.9,2.4,30,10.7,43.7c18.3,29.9,59,30.5,76,0C702.8,460.1,702.7,429.4,686.7,400.5z
		 M1212,627.7c-6.2-2.6-13.1-3.5-20.2-5.3c19.5-4.3,26.2-11.5,22.9-24.7c-3.2-12.7-13.6-13.1-23.8-13c-11.3,0.1-6.7,8.9-6.9,14.1
		c-0.5,19.1,0.1,38.2-0.4,57.3c-0.2,8.3,1.3,13.1,10.9,11.6c4.5-0.7,9.2,0.1,13.5-1c8.5-2.1,14.6-7,15.5-16.6
		C1224.5,640,1221.6,631.8,1212,627.7z M1212,627.7c-6.2-2.6-13.1-3.5-20.2-5.3c19.5-4.3,26.2-11.5,22.9-24.7
		c-3.2-12.7-13.6-13.1-23.8-13c-11.3,0.1-6.7,8.9-6.9,14.1c-0.5,19.1,0.1,38.2-0.4,57.3c-0.2,8.3,1.3,13.1,10.9,11.6
		c4.5-0.7,9.2,0.1,13.5-1c8.5-2.1,14.6-7,15.5-16.6C1224.5,640,1221.6,631.8,1212,627.7z M573.7,582.7
		c-23.7-0.3-40.9,17.4-41.4,42.6c-0.5,24.6,16.9,44.1,39.9,44.5c22.9,0.5,41-18.4,41.4-43C613.9,601.8,597,583,573.7,582.7z
		 M686.7,400.5c-16.9-30.6-57.8-30-76-0.2c-8.3,13.6-10.6,28.7-10.8,45.1c0.2,14.9,2.4,30,10.7,43.7c18.3,29.9,59,30.5,76,0
		C702.8,460.1,702.7,429.4,686.7,400.5z M1387.6,238.7c-7-1.7-14.1-3.1-21.2-4.8c-60.8-14.2-122.1-26.1-183.7-35.7
		c-53.5-8.4-107.3-15.3-161.4-20.2c-46.9-4.2-93.8-8.1-140.8-10.2c-28.6-1.3-57.4-0.2-95.5-0.2c-30,1.8-69.5-1.1-109.1,2.1
		c-36.5,3-73.1,5.4-109.6,8.5c-54.1,4.5-107.9,11.3-161.4,20.1c-67.3,11.1-134.5,23.3-200.7,40.2c-24.6,6.3-24.7,6-22.3,30.9
		c0.2,2.3-0.1,4.6,0.1,6.8c2.8,32,5.6,64,8.6,96c3.4,36,7,72,10.4,108c2.1,22.5,3.9,45.1,6.1,67.6c3.3,33.3,7,66.5,10.2,99.8
		c3.1,32.9,5.7,65.8,8.7,98.7c3.4,36.5,7,72.9,10.5,109.4c2.9,31.1,5.6,62.2,8.7,93.2c3.3,33.3,7.6,66.5,10.1,99.8
		c1.7,21.9,0.6,22.1,22.1,29.1c63.6,20.5,125.6,45.2,185.4,74.9c70.6,35,134.8,80.3,196.8,128.4c43,33.3,84.8,68,126.8,102.5
		c5.9,4.8,9,5,14.5-0.2c33.4-31.4,68.8-60.3,104.9-88.6c48.6-38.1,99.1-73.5,153.7-102.6c83.1-44.3,169.4-81.4,257.5-114.4
		c9.1-3.4,13.6-9,14.4-17.5c3.2-31.9,5.8-64,8.7-96c2-22.5,3.9-45.1,6.1-67.6c3.3-33.3,7-66.5,10.2-99.8c3.1-32,5.6-64,8.7-96
		c3.2-32.8,7.2-65.6,10.4-98.4c3.1-32.4,5.4-64.9,8.6-97.3c4.2-42.7,8.9-85.4,13.3-128.1c3.6-35.5,6.6-71.1,10.8-106.6
		C1411.3,247.4,1409.8,244,1387.6,238.7z M899.9,371c4.5-6.2,18.2,0.6,27.9,0.4c35-0.8,70.1,2.2,105-2.1c5.4-0.7,7.3-0.2,7.1,5.5
		c-0.3,9.5-0.1,19.1-0.8,29.2c-2.8-9.8-6.1-19.1-17.2-21.9c-9.9-2.5-19.9-0.9-29.9-1.1c-5.5-0.1-5,4.2-5,7.7
		c0,37.3-0.1,74.6,0.1,112c0,8,3.9,13.6,11.9,16.4h-60c10.5-3.7,12.8-11.5,12.7-21.4c-0.2-34.6-0.4-69.2,0.1-103.8
		c0.1-9.2-2.8-12.3-11.6-11.1c-3.6,0.5-7.3,0.1-10.9,0.1c-18.9,0.2-23.3,3.4-29.4,21.6c-0.6-0.3-1.6-0.6-1.6-1
		C898.4,391.1,894.9,377.9,899.9,371z M901.6,667.4c21.9,7.1,39.2-0.9,55.8-25.7c1,14-9.5,26.1-26.4,30.8
		c-25.3,6.9-51.8-3.4-63.8-24.7c-12.6-22.5-8.8-53.7,8.8-70.7c16.7-16.2,51.5-19.7,71.4-7.4c8.8,5.4,5.2,14.4,8.8,24.4
		c-15.3-24.3-31.2-31.4-52.7-25.3c-19.8,5.6-31.7,23.7-32,48.5C871.1,641.6,883,661.4,901.6,667.4z M766.8,495.5
		c-0.3-34.1-0.2-68.2-0.1-102.4c0-8.6-0.7-16.5-11.2-19.9c29.8-1.2,59.1-3.6,88.1,0.3c22.5,3,34.2,16.4,35.1,35.3
		c1,20.9-8.8,34.5-32.4,42.2c29.2,15.7,31.2,53.7,61.5,64.9c-37.5,9.7-62.6-3.9-80.1-44.7c-4.1-9.5-6.7-19.7-17.9-25.9
		c25.6-3.8,37.3-22.7,30.4-45.5c-3.8-12.5-22.1-22.1-34.3-18.4c-4.5,1.4-3.8,4.5-3.8,7.4c-0.1,37.8,0,75.5,0,113.3
		c0,7.9,5.1,11.7,11.3,15.2h-59.6C765,513.9,766.9,505.7,766.8,495.5z M799,578.7c13.4-1.6,12,4,10.6,12.2
		c-5.3-5.2-29.5-9.1-34.7-5.7c-3.3,2.2-2.3,5.6-2.3,8.6c-0.1,20.9,0.1,41.9-0.1,62.8c-0.1,6.4,1.5,11.6,10.3,15.5h-27.4
		c5.4-4.4,7.2-9.5,7.1-15.9c-0.3-20.5-0.5-41,0.1-61.4c0.2-8.8-3.2-11.6-11.1-10.3c-8.4,1.3-18.5-4.2-24.6,6.3
		c-4.3-11.3-1-13,10.9-12C758,580.7,778.8,581.1,799,578.7z M632,369.5c14.1-1.5,28.3-1.7,42.1,1.3c41.2,8.9,63.7,39.3,60.6,81.2
		c-2.8,37.5-31,64.6-71.1,68c-5,0.4-10,0.5-12,0.6c-42.8,0-72.6-17.2-84-46.5C548.5,424.6,579,375.1,632,369.5z M302.9,517.4
		c-20.9-5.6-26.1-13.3-22-34.4c1.1-5.7,2.2-11.7,7.1-16.8c1.1,4.8,1.9,9.2,3,13.5c7,27,41.3,40.7,65,26.1c15.5-9.5,17.7-28.4,3-39.8
		c-16.1-12.6-33.8-23.1-50.5-34.8c-22-15.4-28.2-29.8-23.3-51.9c4.1-18.5,15.9-29.5,33.7-33.6c19.8-4.7,39.9,0.6,59.9,0.3
		c4.5-0.1,5,2.9,4.6,6.5c-1,8.8-1.9,17.6-3,27.4c-12.1-22.9-29.2-30.7-50.1-23.8c-8.7,2.9-15.3,8.1-17.5,17.4
		c-2.4,9.8,2.5,16.8,10.1,22c15.8,10.8,31.8,21.1,47.7,31.7c22.8,15.1,30.5,30.8,25.7,52.2c-5.1,22.5-22,37.4-47.3,40.5
		C333.5,521.8,318.1,521.4,302.9,517.4z M411,666.1c-9.3,9.8-34.4,11.2-44.3,2.1c-6.6-6-4.4-12.9-0.2-22c0.7,9.3,2.9,15.8,9,20
		c8.6,6,21.4,4.4,28.6-3.5c7.2-7.8,6.9-19.9-1.3-28.2c-9.3-9.3-19.4-17.8-28.7-27.1c-10.7-10.7-11.5-24.7-2.6-35.6
		c7-8.7,28.9-13.4,37.9-7.7c4.9,3.1,1.7,8.2,0.3,14c-1.9-2.6-3.3-5.9-5.8-7.6c-8.7-5.7-17.6-5.1-24.6,2.6c-7.1,7.8-6.8,17,0.5,24.5
		c9.1,9.5,19.3,18,28.7,27.1C420.9,636.8,421.9,654.7,411,666.1z M432.6,394.3c0-9.6-1.2-18.2-16.4-21.4c32.8,0,61.3-1.2,89.8,0.4
		c20.5,1.2,34.3,14.5,38.4,31.6c3.9,16.6-3.5,36.3-17.2,46c-14.1,9.9-33.7,9.6-50.7-1.6c25.1-7.8,34.5-22.2,30.8-45
		c-1.2-7.5-4.5-13.8-11-18.1c-7.6-5.1-16.7-7.6-24.7-4.6c-7.7,2.9-3.4,12-3.5,18.2c-0.4,31.9-0.2,63.7-0.2,95.6
		c0,9.4,0,18.6,11.9,21.8h-59.5c10.4-3.7,12.5-11.9,12.4-21.8C432.4,461.7,432.5,428,432.6,394.3z M499.6,625.1
		c-9.6,10.3-21.4,9.8-33.7,5.5c12.9-1,24.2-4.5,28.8-18.2c3-9.1,1.3-17.4-6.6-23.1c-8.7-6.3-19.1-5.3-28.9-3.6
		c-3.3,0.6-2.3,5.5-2.3,8.5c-0.1,20.9,0.1,41.8-0.1,62.7c-0.1,6.3,1.9,11.3,7.4,15.6h-23.9c8.9-10.1,10-79.3,0.9-92.3
		c11.8,0,23.1-0.3,34.3,0.1c12.9,0.4,24.4,4,29.8,17.2C509.4,607.7,506.9,617.2,499.6,625.1z M574,674.2
		c-31.7-0.4-53.1-20.5-53-49.7c0.1-26.4,23.8-47.3,53.2-46.8c29.4,0.5,50.8,21.2,50.7,49.2C624.6,653.8,602.3,674.6,574,674.2z
		 M643.7,579.9c11,0,21.4-0.1,31.8,0c18.9,0.2,29.3,6.3,32.5,18.8c3.3,13-3.3,23.4-20.9,32.4c13,13.3,21.5,30.7,38.3,40.2
		c-15.5,0.6-22-2.6-32.1-16c-7.4-9.7-13.1-20.7-24.9-28.5c5.8-1,10.1-1.8,14.4-2.5c11.5-1.8,14.3-10.6,14.5-20
		c0.3-9.6-5-16.4-14.8-18.6c-3.5-0.8-7.3-0.3-10.9-0.9c-9.3-1.5-12.7,1.8-12.3,11.6c0.8,19.5,0.3,39.1,0.2,58.7
		c0,6.5,0,12.7,7.7,17.2h-23.6C651.5,661.2,651.9,591.5,643.7,579.9z M645.1,1145.2c6.7-11.9,14.5-19.2,21.7-26.9
		c35.4-37.8,70.5-75.9,106.5-113.1c9.8-10.2,8.5-16.4-1.1-25.1c-18.1-16.5-36.1-33.2-53-51c-15.9-16.6-15-18.8,3.8-31.5
		c47.1-31.8,96.9-59.2,146.7-86.4c22.3-12.2,45.1-23.5,67.8-35.1c4.3-2.2,8.5-5,16-4.9c-16.9,24.4-38.6,42.3-55.8,63.9c0,0,0,0,0,0
		c-21,21.9-42.3,43.6-62.9,65.9c-20.4,22-20,22.2,2.5,42.1c17,15,33.8,30.4,48.5,47.8c6.8,8.1,7.2,14.8-2.7,20.9
		c-12.7,7.9-24.7,17-37.6,24.6c-38.7,22.9-77.6,45.3-116.4,67.9C701.4,1116.6,676,1133.6,645.1,1145.2z M1029,672.8
		c-15.9-0.7-31.8-0.2-48.8-0.2c9.5-11.4,10.5-78.6,2-92.1h20.6c-2.4,4-5.7,6.6-5.7,11.1c0,23.1,0.1,46.3-0.1,69.4
		c-0.1,5.7,2.8,6.8,7.6,6.7c12.9-0.2,26.1,1.6,38-9C1041.7,668.9,1038.5,673.2,1029,672.8z M1069.9,492.2c-0.4-32.7-0.3-65.4,0-98.1
		c0.1-10.1-2.1-17.8-12.8-21.5h61.1c-11.3,2.8-13.3,10.7-13.2,20.8c0.3,34.1,0.3,68.2,0,102.2c-0.1,10.7,2.3,18.7,14,21.5h-66.7
		C1069.4,513,1070.1,503.2,1069.9,492.2z M1138.9,596.8c0,14.6,0.3,29.1-0.2,43.7c-0.7,21.8-14.1,33.6-37.7,33.7
		c-23.4,0.2-37.8-11.6-38.8-32.9c-0.7-15.4-0.2-30.9-0.2-46.4c0-5,0.4-10-5.4-14.6h21c-3.9,3.7-5.4,6.8-5.3,10.8
		c0.3,17.3-0.3,34.6,0.5,51.9c0.7,16.4,11.1,26.3,26.7,27.2c16.5,0.9,29.8-7.8,31.4-23.7c1.9-18.9,1-38.1,1.2-57.2
		c0-3.5-2.7-5.6-4.8-8.2c5.4-1.9,10.7-1.4,17.2-0.2C1138.4,585.2,1138.9,591,1138.9,596.8z M1234.5,650.2
		c-1.4,11.1-8.5,16.8-18.2,19.7c-16,4.9-32.5,1.8-50.4,3c10.1-10.6,11.3-79.8,1.4-92.7c11,0,21.2-0.2,31.3,0.1
		c11.5,0.3,22,3.7,26.3,15.6c4,11.2-1.9,19.1-12.7,25.6c4,1.9,6.6,2.9,9,4.3C1230.8,631,1236,638.6,1234.5,650.2z M1234,516.8
		c13.5-5.6,11.6-13.3,5.1-22.7c-10.3-14.8-19.7-30.2-30.2-46.4c-11.7,17.3-22.6,33-33,48.8c-6.7,10.2-5.8,12.8,7,20.4h-54.8
		c16.1-2.2,23.9-14.6,32.1-26.5c11.2-16,22.2-32.2,33.9-47.8c4.9-6.5,5.2-11.1,0.5-17.9c-12.4-18-24-36.4-35.7-54.9
		c-6.8-10.7-15.1-19-28.2-21.8h76.8c-12.3,5.9-11.9,13.3-5.6,22.4c8.9,13,17.3,26.3,26.8,40.8c10.3-16,19.5-30.4,28.8-44.8
		c5.8-8.9-0.2-13.7-8.2-18.7h52c-22.2,6.4-28.7,27.5-40.4,43.5c-8,11-20.4,22.7-20.6,34.2c-0.1,11.5,12.6,23.2,19.8,34.7
		c7.5,11.9,15.4,23.6,22.8,35.5c6.5,10.4,14.6,18.2,27.3,21.1H1234z M1212,627.7c-6.2-2.6-13.1-3.5-20.2-5.3
		c19.5-4.3,26.2-11.5,22.9-24.7c-3.2-12.7-13.6-13.1-23.8-13c-11.3,0.1-6.7,8.9-6.9,14.1c-0.5,19.1,0.1,38.2-0.4,57.3
		c-0.2,8.3,1.3,13.1,10.9,11.6c4.5-0.7,9.2,0.1,13.5-1c8.5-2.1,14.6-7,15.5-16.6C1224.5,640,1221.6,631.8,1212,627.7z M686.7,489
		c16.1-28.9,16.1-59.6,0.1-88.5c-16.9-30.6-57.8-30-76-0.2c-8.3,13.6-10.6,28.7-10.8,45.1c0.2,14.9,2.4,30,10.7,43.7
		C628.9,518.9,669.7,519.5,686.7,489z M573.7,582.7c-23.7-0.3-40.9,17.4-41.4,42.6c-0.5,24.6,16.9,44.1,39.9,44.5
		c22.9,0.5,41-18.4,41.4-43C613.9,601.8,597,583,573.7,582.7z M686.7,400.5c-16.9-30.6-57.8-30-76-0.2
		c-8.3,13.6-10.6,28.7-10.8,45.1c0.2,14.9,2.4,30,10.7,43.7c18.3,29.9,59,30.5,76,0C702.8,460.1,702.7,429.4,686.7,400.5z
		 M573.7,582.7c-23.7-0.3-40.9,17.4-41.4,42.6c-0.5,24.6,16.9,44.1,39.9,44.5c22.9,0.5,41-18.4,41.4-43
		C613.9,601.8,597,583,573.7,582.7z M1212,627.7c-6.2-2.6-13.1-3.5-20.2-5.3c19.5-4.3,26.2-11.5,22.9-24.7
		c-3.2-12.7-13.6-13.1-23.8-13c-11.3,0.1-6.7,8.9-6.9,14.1c-0.5,19.1,0.1,38.2-0.4,57.3c-0.2,8.3,1.3,13.1,10.9,11.6
		c4.5-0.7,9.2,0.1,13.5-1c8.5-2.1,14.6-7,15.5-16.6C1224.5,640,1221.6,631.8,1212,627.7z M1212,627.7c-6.2-2.6-13.1-3.5-20.2-5.3
		c19.5-4.3,26.2-11.5,22.9-24.7c-3.2-12.7-13.6-13.1-23.8-13c-11.3,0.1-6.7,8.9-6.9,14.1c-0.5,19.1,0.1,38.2-0.4,57.3
		c-0.2,8.3,1.3,13.1,10.9,11.6c4.5-0.7,9.2,0.1,13.5-1c8.5-2.1,14.6-7,15.5-16.6C1224.5,640,1221.6,631.8,1212,627.7z M686.7,400.5
		c-16.9-30.6-57.8-30-76-0.2c-8.3,13.6-10.6,28.7-10.8,45.1c0.2,14.9,2.4,30,10.7,43.7c18.3,29.9,59,30.5,76,0
		C702.8,460.1,702.7,429.4,686.7,400.5z M573.7,582.7c-23.7-0.3-40.9,17.4-41.4,42.6c-0.5,24.6,16.9,44.1,39.9,44.5
		c22.9,0.5,41-18.4,41.4-43C613.9,601.8,597,583,573.7,582.7z M686.7,400.5c-16.9-30.6-57.8-30-76-0.2
		c-8.3,13.6-10.6,28.7-10.8,45.1c0.2,14.9,2.4,30,10.7,43.7c18.3,29.9,59,30.5,76,0C702.8,460.1,702.7,429.4,686.7,400.5z
		 M573.7,582.7c-23.7-0.3-40.9,17.4-41.4,42.6c-0.5,24.6,16.9,44.1,39.9,44.5c22.9,0.5,41-18.4,41.4-43
		C613.9,601.8,597,583,573.7,582.7z M1212,627.7c-6.2-2.6-13.1-3.5-20.2-5.3c19.5-4.3,26.2-11.5,22.9-24.7
		c-3.2-12.7-13.6-13.1-23.8-13c-11.3,0.1-6.7,8.9-6.9,14.1c-0.5,19.1,0.1,38.2-0.4,57.3c-0.2,8.3,1.3,13.1,10.9,11.6
		c4.5-0.7,9.2,0.1,13.5-1c8.5-2.1,14.6-7,15.5-16.6C1224.5,640,1221.6,631.8,1212,627.7z M1212,627.7c-6.2-2.6-13.1-3.5-20.2-5.3
		c19.5-4.3,26.2-11.5,22.9-24.7c-3.2-12.7-13.6-13.1-23.8-13c-11.3,0.1-6.7,8.9-6.9,14.1c-0.5,19.1,0.1,38.2-0.4,57.3
		c-0.2,8.3,1.3,13.1,10.9,11.6c4.5-0.7,9.2,0.1,13.5-1c8.5-2.1,14.6-7,15.5-16.6C1224.5,640,1221.6,631.8,1212,627.7z M686.7,400.5
		c-16.9-30.6-57.8-30-76-0.2c-8.3,13.6-10.6,28.7-10.8,45.1c0.2,14.9,2.4,30,10.7,43.7c18.3,29.9,59,30.5,76,0
		C702.8,460.1,702.7,429.4,686.7,400.5z M573.7,582.7c-23.7-0.3-40.9,17.4-41.4,42.6c-0.5,24.6,16.9,44.1,39.9,44.5
		c22.9,0.5,41-18.4,41.4-43C613.9,601.8,597,583,573.7,582.7z M686.7,400.5c-16.9-30.6-57.8-30-76-0.2
		c-8.3,13.6-10.6,28.7-10.8,45.1c0.2,14.9,2.4,30,10.7,43.7c18.3,29.9,59,30.5,76,0C702.8,460.1,702.7,429.4,686.7,400.5z
		 M1212,627.7c-6.2-2.6-13.1-3.5-20.2-5.3c19.5-4.3,26.2-11.5,22.9-24.7c-3.2-12.7-13.6-13.1-23.8-13c-11.3,0.1-6.7,8.9-6.9,14.1
		c-0.5,19.1,0.1,38.2-0.4,57.3c-0.2,8.3,1.3,13.1,10.9,11.6c4.5-0.7,9.2,0.1,13.5-1c8.5-2.1,14.6-7,15.5-16.6
		C1224.5,640,1221.6,631.8,1212,627.7z M1212,627.7c-6.2-2.6-13.1-3.5-20.2-5.3c19.5-4.3,26.2-11.5,22.9-24.7
		c-3.2-12.7-13.6-13.1-23.8-13c-11.3,0.1-6.7,8.9-6.9,14.1c-0.5,19.1,0.1,38.2-0.4,57.3c-0.2,8.3,1.3,13.1,10.9,11.6
		c4.5-0.7,9.2,0.1,13.5-1c8.5-2.1,14.6-7,15.5-16.6C1224.5,640,1221.6,631.8,1212,627.7z M686.7,400.5c-16.9-30.6-57.8-30-76-0.2
		c-8.3,13.6-10.6,28.7-10.8,45.1c0.2,14.9,2.4,30,10.7,43.7c18.3,29.9,59,30.5,76,0C702.8,460.1,702.7,429.4,686.7,400.5z
		 M686.7,400.5c-16.9-30.6-57.8-30-76-0.2c-8.3,13.6-10.6,28.7-10.8,45.1c0.2,14.9,2.4,30,10.7,43.7c18.3,29.9,59,30.5,76,0
		C702.8,460.1,702.7,429.4,686.7,400.5z M1212,627.7c-6.2-2.6-13.1-3.5-20.2-5.3c19.5-4.3,26.2-11.5,22.9-24.7
		c-3.2-12.7-13.6-13.1-23.8-13c-11.3,0.1-6.7,8.9-6.9,14.1c-0.5,19.1,0.1,38.2-0.4,57.3c-0.2,8.3,1.3,13.1,10.9,11.6
		c4.5-0.7,9.2,0.1,13.5-1c8.5-2.1,14.6-7,15.5-16.6C1224.5,640,1221.6,631.8,1212,627.7z M1212,627.7c-6.2-2.6-13.1-3.5-20.2-5.3
		c19.5-4.3,26.2-11.5,22.9-24.7c-3.2-12.7-13.6-13.1-23.8-13c-11.3,0.1-6.7,8.9-6.9,14.1c-0.5,19.1,0.1,38.2-0.4,57.3
		c-0.2,8.3,1.3,13.1,10.9,11.6c4.5-0.7,9.2,0.1,13.5-1c8.5-2.1,14.6-7,15.5-16.6C1224.5,640,1221.6,631.8,1212,627.7z M686.7,400.5
		c-16.9-30.6-57.8-30-76-0.2c-8.3,13.6-10.6,28.7-10.8,45.1c0.2,14.9,2.4,30,10.7,43.7c18.3,29.9,59,30.5,76,0
		C702.8,460.1,702.7,429.4,686.7,400.5z M686.7,400.5c-16.9-30.6-57.8-30-76-0.2c-8.3,13.6-10.6,28.7-10.8,45.1
		c0.2,14.9,2.4,30,10.7,43.7c18.3,29.9,59,30.5,76,0C702.8,460.1,702.7,429.4,686.7,400.5z M686.7,400.5c-16.9-30.6-57.8-30-76-0.2
		c-8.3,13.6-10.6,28.7-10.8,45.1c0.2,14.9,2.4,30,10.7,43.7c18.3,29.9,59,30.5,76,0C702.8,460.1,702.7,429.4,686.7,400.5z
		 M686.7,400.5c-16.9-30.6-57.8-30-76-0.2c-8.3,13.6-10.6,28.7-10.8,45.1c0.2,14.9,2.4,30,10.7,43.7c18.3,29.9,59,30.5,76,0
		C702.8,460.1,702.7,429.4,686.7,400.5z M686.7,400.5c-16.9-30.6-57.8-30-76-0.2c-8.3,13.6-10.6,28.7-10.8,45.1
		c0.2,14.9,2.4,30,10.7,43.7c18.3,29.9,59,30.5,76,0C702.8,460.1,702.7,429.4,686.7,400.5z M686.7,400.5c-16.9-30.6-57.8-30-76-0.2
		c-8.3,13.6-10.6,28.7-10.8,45.1c0.2,14.9,2.4,30,10.7,43.7c18.3,29.9,59,30.5,76,0C702.8,460.1,702.7,429.4,686.7,400.5z
		 M686.7,400.5c-16.9-30.6-57.8-30-76-0.2c-8.3,13.6-10.6,28.7-10.8,45.1c0.2,14.9,2.4,30,10.7,43.7c18.3,29.9,59,30.5,76,0
		C702.8,460.1,702.7,429.4,686.7,400.5z"/>
	<path class="st0" d="M883.6,983.6c13.5,15,12.7,24.1-4.5,35.3c-35.4,23.2-71.5,45.2-108.9,65.2c-13.5,7.2-25.5,17.8-41.3,20.3
		c38.8-22.6,77.8-45,116.4-67.9c12.9-7.6,24.9-16.7,37.6-24.6c9.9-6.2,9.5-12.8,2.7-20.9c-14.7-17.4-31.4-32.8-48.5-47.8
		c-22.6-19.9-23-20.1-2.5-42.1c20.6-22.3,41.9-44,62.9-65.9c-3.5,8.7-9.8,15.3-16.2,21.7c-17.8,17.6-35.1,35.6-51.8,54.2
		c-7.6,8.4-7.7,14.9,0.8,21.7c16.4,13.1,30.8,28.3,45.6,43C878.5,978.3,881.2,980.8,883.6,983.6z"/>
	<path class="st0" d="M866.3,924.8c-12.5,13.2-12.6,14.4,0.7,27.2c14.4,13.8,29.4,27.1,43.5,41.2c19.8,19.6,19.2,24-4.8,39.4
		c-22.1,14.2-44.2,28.6-67.2,41.3c-44,24.4-87.5,50.1-133.3,71.3c-3.5,1.6-6.6,4.7-12.2,3.7c8.2-12,17.7-22.1,27.3-32.1
		c3.4-3.6,9.6-5.7,8.7-12.5c38.8-22.6,77.8-45,116.4-67.9c12.9-7.6,24.9-16.7,37.6-24.6c9.9-6.2,9.5-12.8,2.7-20.9
		c-14.7-17.4-31.4-32.8-48.5-47.8c-22.6-19.9-23-20.1-2.5-42.1c20.6-22.3,41.9-44,62.9-65.9c0,0,0,0,0,0
		c14.6-2.4,25.8-12.2,38.7-18.4c15.5-7.4,30.7-15.5,48.6-24.5c-3.5,11.9-10.7,18.1-16.7,24.5C934.5,852.9,900.3,888.8,866.3,924.8z"
		/>
	<path class="st0" d="M686.7,489c-17,30.5-57.7,29.9-76,0c-8.4-13.7-10.5-28.8-10.7-43.7c0.2-16.3,2.5-31.4,10.8-45.1
		c18.2-29.8,59.1-30.4,76,0.2C702.7,429.4,702.8,460.1,686.7,489z"/>
	<path class="st0" d="M1223.5,650.1c-1,9.6-7,14.5-15.5,16.6c-4.3,1.1-9.1,0.3-13.5,1c-9.6,1.5-11.2-3.3-10.9-11.6
		c0.5-19.1-0.2-38.2,0.4-57.3c0.1-5.2-4.4-14,6.9-14.1c10.3-0.1,20.7,0.3,23.8,13c3.3,13.2-3.3,20.4-22.9,24.7
		c7.2,1.8,14.1,2.7,20.2,5.3C1221.6,631.8,1224.5,640,1223.5,650.1z"/>
	<path class="st0" d="M613.6,626.8c-0.3,24.6-18.5,43.5-41.4,43c-22.9-0.5-40.4-19.9-39.9-44.5c0.5-25.2,17.7-42.9,41.4-42.6
		C597,583,613.9,601.8,613.6,626.8z"/>
	<path class="st0" d="M686.7,489c-17,30.5-57.7,29.9-76,0c-8.4-13.7-10.5-28.8-10.7-43.7c0.2-16.3,2.5-31.4,10.8-45.1
		c18.2-29.8,59.1-30.4,76,0.2C702.7,429.4,702.8,460.1,686.7,489z"/>
	<path class="st0" d="M1223.5,650.1c-1,9.6-7,14.5-15.5,16.6c-4.3,1.1-9.1,0.3-13.5,1c-9.6,1.5-11.2-3.3-10.9-11.6
		c0.5-19.1-0.2-38.2,0.4-57.3c0.1-5.2-4.4-14,6.9-14.1c10.3-0.1,20.7,0.3,23.8,13c3.3,13.2-3.3,20.4-22.9,24.7
		c7.2,1.8,14.1,2.7,20.2,5.3C1221.6,631.8,1224.5,640,1223.5,650.1z"/>
	<path class="st0" d="M613.6,626.8c-0.3,24.6-18.5,43.5-41.4,43c-22.9-0.5-40.4-19.9-39.9-44.5c0.5-25.2,17.7-42.9,41.4-42.6
		C597,583,613.9,601.8,613.6,626.8z"/>
</g>
</svg>
