<?xml version="1.0" encoding="utf-8"?>
<!-- Generator: Adobe Illustrator 24.3.0, SVG Export Plug-In . SVG Version: 6.00 Build 0)  -->
<svg version="1.1" id="Layer_1" xmlns="http://www.w3.org/2000/svg" xmlns:xlink="http://www.w3.org/1999/xlink" x="0px" y="0px"
	 viewBox="0 0 163.2 25.7" style="enable-background:new 0 0 163.2 25.7;" xml:space="preserve">
<style type="text/css">
	.st0{fill:#FFFFFF;}
</style>
<path class="st0" d="M9.6,6.7c-2.8,0-5.1,0.9-6.9,2.7C0.9,11.3,0,13.5,0,16.2s0.9,5,2.8,6.8c1.8,1.8,4.3,2.7,7.3,2.7
	c3.4,0,6-1.1,7.7-3.3l-4.3-3c-0.9,0.8-2,1.3-3.3,1.3c-2.1,0-3.4-0.7-4-2.2h12.4c0.2-0.7,0.3-1.4,0.3-2.2c0-2.7-0.9-5-2.6-6.8
	C14.5,7.6,12.3,6.7,9.6,6.7z M6.1,14.3c0.5-1.7,1.7-2.5,3.5-2.5s2.9,0.8,3.4,2.5H6.1z M38.1,7.2h-6.9l-4.6,7.5V0h-6v25.2h6v-7.7
	l5.1,7.7h6.7l-6.3-9L38.1,7.2z M46.7,6.7c-2.7,0-4.9,0.9-6.8,2.8c-1.9,1.8-2.8,4.1-2.8,6.8s0.9,4.9,2.8,6.8c1.9,1.8,4.1,2.8,6.8,2.8
	s5-0.9,6.8-2.8c1.9-1.8,2.8-4.1,2.8-6.8s-0.9-4.9-2.8-6.8C51.7,7.6,49.4,6.7,46.7,6.7z M49.3,18.9c-0.7,0.7-1.6,1-2.6,1
	s-1.9-0.3-2.6-1s-1-1.6-1-2.7s0.3-2,1-2.7s1.5-1,2.6-1s1.9,0.3,2.6,1s1,1.6,1,2.7C50.4,17.3,50,18.2,49.3,18.9z M78.7,6.7
	c-2.2,0-4,0.8-5.2,2.3c-1-1.5-2.5-2.3-4.6-2.3S65.1,7.4,64,8.9V7.2h-6v18h6v-9.8c0-0.9,0.2-1.7,0.6-2.2s1-0.8,1.9-0.8
	c1.5,0,2.3,0.8,2.3,2.5v10.3h6v-9.8c0-0.9,0.2-1.7,0.6-2.2s1-0.8,1.9-0.8c1.5,0,2.2,0.8,2.2,2.5v10.3h6v-11c0-2.3-0.6-4.2-1.8-5.5
	S80.8,6.7,78.7,6.7z M108.5,6.7c-2.2,0-4,0.8-5.2,2.3c-1-1.5-2.5-2.3-4.6-2.3s-3.8,0.7-4.9,2.2V7.2h-6v18h6v-9.8
	c0-0.9,0.2-1.7,0.6-2.2s1-0.8,1.9-0.8c1.5,0,2.3,0.8,2.3,2.5v10.3h6v-9.8c0-0.9,0.2-1.7,0.6-2.2s1-0.8,1.9-0.8
	c1.5,0,2.2,0.8,2.2,2.5v10.3h6v-11c0-2.3-0.6-4.2-1.8-5.5C112.2,7.4,110.6,6.7,108.5,6.7z M130.3,8.9c-1.2-1.4-2.9-2.2-5.1-2.2
	c-2.4,0-4.4,0.9-6,2.7s-2.4,4.1-2.4,6.8s0.8,5,2.4,6.8s3.6,2.7,6,2.7c2.2,0,3.9-0.7,5.1-2.2v1.7h6v-18h-6V8.9z M129.2,19
	c-0.7,0.7-1.6,1.1-2.7,1.1s-2-0.4-2.7-1.1s-1-1.7-1-2.8c0-1.2,0.3-2.1,1-2.8s1.6-1.1,2.7-1.1s2,0.4,2.7,1.1s1,1.7,1,2.8
	C130.3,17.4,129.9,18.3,129.2,19z M144.8,10.5V7.2h-6v18h6v-7.5c0-1.6,0.6-2.8,1.7-3.5s2.4-1,3.7-0.8V6.8c-1.2,0-2.4,0.3-3.4,1
	S145.1,9.4,144.8,10.5z M163.2,12.9V7.2h-3.7v-5l-6,1.8v3.2h-2.7v5.7h2.7v5.4c0,2.9,0.7,4.8,2.2,5.9s4,1.4,7.5,1v-5.4
	c-1.3,0.1-2.3,0-2.9-0.2s-0.9-0.7-0.9-1.5v-5.2L163.2,12.9z"/>
</svg>
