<svg id="OBJECTS" xmlns="http://www.w3.org/2000/svg" viewBox="0 0 725.78 368.97"><defs><style>.cls-1{opacity:0.3;}.cls-2{fill:#222;}.cls-3{fill:#c0fffd;}.cls-4{fill:#cecece;}.cls-5{fill:#fff;}.cls-6{fill:#3c7cff;}.cls-7{fill:#263238;}.cls-8{fill:none;}</style></defs><g class="cls-1"><path class="cls-2" d="M95.87,78.74H84.21L83,67.55a26.86,26.86,0,0,1-6.26-2.62l-8.76,7L59.7,63.69l7-8.8a26.56,26.56,0,0,1-2.58-6.28L53,47.37V35.71l11.19-1.24a26.68,26.68,0,0,1,2.62-6.27l-7-8.76,8.24-8.24,8.8,7a27,27,0,0,1,6.28-2.59L84.39,4.51H96.05l1.24,11.2a26.44,26.44,0,0,1,6.26,2.62l8.77-7,8.24,8.25-7,8.8a27,27,0,0,1,2.59,6.28l11.14,1.23V47.54l-11.2,1.25a26.61,26.61,0,0,1-2.62,6.26l7,8.76-8.25,8.25-8.8-7a26.56,26.56,0,0,1-6.28,2.58Zm-11.09-.63H95.31l1.22-11,.21-.06a26.21,26.21,0,0,0,6.52-2.68l.19-.11,8.7,7,7.44-7.44-6.93-8.65.11-.19a26.29,26.29,0,0,0,2.73-6.5l0-.21L126.61,47V36.45l-11-1.22,0-.21a25.87,25.87,0,0,0-2.69-6.52l-.1-.19,6.95-8.7-7.44-7.44-8.66,6.93-.19-.11a26.29,26.29,0,0,0-6.5-2.73l-.21-.05L95.48,5.15H85l-1.23,11-.21.05A26.21,26.21,0,0,0,77,18.89l-.19.11-8.69-6.95-7.44,7.44,6.92,8.66-.11.19a25.73,25.73,0,0,0-2.72,6.5l-.06.21L53.65,36.28V46.8l11,1.23.06.21a25.84,25.84,0,0,0,2.68,6.52l.11.19-7,8.69L68,71.08l8.66-6.92.19.11A26.26,26.26,0,0,0,83.34,67l.21.06Zm5.35-22.93a13.56,13.56,0,1,1,13.55-13.55A13.57,13.57,0,0,1,90.13,55.18Zm0-26.47a12.92,12.92,0,1,0,12.92,12.92A12.93,12.93,0,0,0,90.13,28.71Z"/><path class="cls-2" d="M145.65,50.69l-2.07-7.29a18,18,0,0,1-4.33-1l-5,5.63-6.52-4.66,3.69-6.62A18.22,18.22,0,0,1,129,33l-7.54.41-1.32-7.9,7.3-2.07a17.48,17.48,0,0,1,1-4.33l-5.62-5,4.65-6.52,6.62,3.69a18.29,18.29,0,0,1,3.78-2.34l-.42-7.54L145.41,0l2.07,7.3a17.51,17.51,0,0,1,4.32,1l5-5.62,6.52,4.65L159.67,14A17.87,17.87,0,0,1,162,17.74l7.54-.42,1.32,7.9-7.29,2.08a18,18,0,0,1-1,4.32l5.63,5-4.66,6.52-6.62-3.69a17.8,17.8,0,0,1-3.77,2.34l.41,7.54Zm-6.58-9.06.2.08a17.36,17.36,0,0,0,4.58,1.08l.22,0,2,7.16,6.79-1.13-.41-7.41.2-.09a17.26,17.26,0,0,0,4-2.48l.17-.14,6.51,3.63,4-5.6-5.53-4.95.08-.2A17.36,17.36,0,0,0,163,27l0-.22,7.16-2L169,18l-7.41.41-.09-.2a17.11,17.11,0,0,0-2.48-4L158.9,14l3.63-6.5-5.6-4-5,5.53-.2-.08a17.34,17.34,0,0,0-4.58-1.07l-.22,0L145,.72l-6.78,1.14.41,7.4-.2.09a17.32,17.32,0,0,0-4,2.48l-.17.14-6.5-3.63-4,5.6,5.53,5-.08.2a17.34,17.34,0,0,0-1.07,4.58l0,.22-7.17,2L122,32.71l7.4-.41.09.2a17.26,17.26,0,0,0,2.48,4l.14.17-3.63,6.51,5.6,4Zm6.45-7.08a9.2,9.2,0,1,1,9.08-10.72,9.19,9.19,0,0,1-7.55,10.59h0A9,9,0,0,1,145.52,34.55Zm0-17.77a8.6,8.6,0,0,0-1.42.12,8.57,8.57,0,0,0,2.83,16.9h0a8.57,8.57,0,0,0-1.41-17Z"/></g><path class="cls-3" d="M674.78,245.62V225l-21.72-4.85a55.11,55.11,0,0,0-5-12L660,189.33l-14.59-14.6-18.77,11.92a55.53,55.53,0,0,0-12-5L609.77,160H589.13l-4.84,21.71a55.4,55.4,0,0,0-12,5l-18.77-11.92-14.59,14.6,11.92,18.76a55.61,55.61,0,0,0-5,12L524.12,225v20.64l21.72,4.84a55.4,55.4,0,0,0,5,12l-11.92,18.76,14.59,14.6,18.77-11.92a55.4,55.4,0,0,0,12,5l4.84,21.71h20.64l4.85-21.71a55.53,55.53,0,0,0,12-5l18.77,11.92L660,281.26,648.09,262.5a54.91,54.91,0,0,0,5-12ZM599.45,262a26.69,26.69,0,1,1,26.69-26.69A26.69,26.69,0,0,1,599.45,262Z"/><path class="cls-2" d="M609.77,312.06H589.13a1.44,1.44,0,0,1-1.4-1.12l-4.66-20.89a57.66,57.66,0,0,1-10.77-4.44l-18,11.46a1.43,1.43,0,0,1-1.78-.2l-14.6-14.59a1.44,1.44,0,0,1-.19-1.78l11.46-18.05a56.61,56.61,0,0,1-4.44-10.77L523.81,247a1.43,1.43,0,0,1-1.12-1.4V225a1.42,1.42,0,0,1,1.12-1.4l20.89-4.66a56.43,56.43,0,0,1,4.44-10.78l-11.46-18a1.43,1.43,0,0,1,.19-1.78l14.6-14.6a1.43,1.43,0,0,1,1.78-.2l18,11.47a57,57,0,0,1,10.77-4.45l4.66-20.88a1.44,1.44,0,0,1,1.4-1.13h20.64a1.43,1.43,0,0,1,1.4,1.13l4.66,20.88A57,57,0,0,1,626.6,185l18-11.47a1.42,1.42,0,0,1,1.78.2l14.6,14.6a1.42,1.42,0,0,1,.19,1.78l-11.46,18a56.43,56.43,0,0,1,4.44,10.78l20.89,4.66a1.42,1.42,0,0,1,1.12,1.4v20.64a1.43,1.43,0,0,1-1.12,1.4l-20.89,4.66a56.61,56.61,0,0,1-4.44,10.77l11.46,18.05a1.42,1.42,0,0,1-.19,1.78l-14.6,14.59a1.42,1.42,0,0,1-1.78.2l-18-11.46a57.66,57.66,0,0,1-10.77,4.44l-4.66,20.89A1.43,1.43,0,0,1,609.77,312.06Zm-19.49-2.87h18.34l4.6-20.59a1.41,1.41,0,0,1,1-1.07A54.26,54.26,0,0,0,626,282.69a1.44,1.44,0,0,1,1.47,0l17.8,11.3,13-13-11.31-17.79a1.46,1.46,0,0,1,0-1.47,53.84,53.84,0,0,0,4.84-11.73,1.44,1.44,0,0,1,1.07-1l20.59-4.59V226.13l-20.59-4.6a1.43,1.43,0,0,1-1.07-1,53.84,53.84,0,0,0-4.84-11.73,1.46,1.46,0,0,1,0-1.47l11.31-17.79-13-13-17.8,11.3a1.39,1.39,0,0,1-1.47,0,54.26,54.26,0,0,0-11.72-4.84,1.41,1.41,0,0,1-1-1.06l-4.6-20.6H590.28L585.69,182a1.45,1.45,0,0,1-1,1.06A54.13,54.13,0,0,0,573,187.9a1.39,1.39,0,0,1-1.47,0l-17.79-11.3-13,13L552,207.32a1.44,1.44,0,0,1,0,1.47,54.34,54.34,0,0,0-4.84,11.73,1.43,1.43,0,0,1-1.07,1l-20.59,4.6v18.34l20.59,4.59a1.43,1.43,0,0,1,1.07,1,54.34,54.34,0,0,0,4.84,11.73,1.44,1.44,0,0,1,0,1.47l-11.31,17.79,13,13,17.79-11.3a1.44,1.44,0,0,1,1.47,0,54.13,54.13,0,0,0,11.73,4.84,1.44,1.44,0,0,1,1,1.07Zm84.5-63.57h0Zm-75.33,17.8a28.13,28.13,0,1,1,28.13-28.12A28.15,28.15,0,0,1,599.45,263.42Zm0-53.38a25.26,25.26,0,1,0,25.26,25.26A25.29,25.29,0,0,0,599.45,210Z"/><path class="cls-4" d="M135.55,37.06H590.23a10.46,10.46,0,0,1,10.46,10.46V345.75a0,0,0,0,1,0,0H125.1a0,0,0,0,1,0,0V47.51A10.46,10.46,0,0,1,135.55,37.06Z"/><path class="cls-2" d="M600.68,346.25H125.1a.5.5,0,0,1-.5-.5V47.51a11,11,0,0,1,11-10.95H590.23a11,11,0,0,1,10.95,10.95V345.75A.5.5,0,0,1,600.68,346.25Zm-475.08-1H600.18V47.51a10,10,0,0,0-9.95-9.95H135.55a10,10,0,0,0-10,9.95Z"/><rect class="cls-3" x="200.56" y="330.89" width="326.85" height="16.1"/><path class="cls-2" d="M527.9,347.5H200.06V330.39H527.9Zm-326.84-1H526.9V331.39H201.06Z"/><rect class="cls-5" x="200.56" y="338.65" width="326.85" height="8.35"/><path class="cls-2" d="M527.4,347.5H200.56a.5.5,0,0,1-.5-.5v-8.35a.5.5,0,0,1,.5-.5H527.4a.5.5,0,0,1,.5.5V347A.5.5,0,0,1,527.4,347.5Zm-326.34-1H526.9v-7.35H201.06Z"/><path class="cls-3" d="M89,361s24.77-52.76,19.39-54.29-16.67,6.88-16.67,6.88,33.11-88.69,24.54-95.57-24.57,28.29-24.57,28.29,17.09-54.29,15.08-74.93-23.72-.77-23.72-.77,17.39-74.16,1.24-78-15.61,84.87-15.61,84.87S63.42,114.07,57,131.66s7.13,76.46,7.13,76.46-8.87-19.88-13.8-1.53,9.8,92.52,9.8,92.52-12.52-12.24-13.69,3.06,25.92,62.69,25.92,62.69l15.33,1.53Z"/><path class="cls-2" d="M83.76,363.83a.5.5,0,0,0,.43-.25c.85-1.51,20.74-37,16.83-44.07a3.42,3.42,0,0,0-2.87-2c-3.52-.21-8.33,4.94-11.1,8.3,5.6-14.21,24.31-62.72,20.83-68.29a2.14,2.14,0,0,0-2-1.14c-4.16.27-11.12,13.84-13.87,19.55.74-15.44,3.47-79.95-2.46-84.19a1.41,1.41,0,0,0-1.41-.17c-3.38,1.35-5.46,9.77-6.74,19.07.82-28.57,1.23-69-2.8-71.72a1.19,1.19,0,0,0-1.18-.1c-6.54,2.9-6.53,92.61-6.43,113.46-2.74-8.25-9.27-26.57-13.39-26.18-1.38.14-2.22,1.93-2.65,5.63C53.21,247,64.13,281.15,69.61,297c-4.23-8.15-10.84-19.28-15.07-18.62-1.83.3-2.95,2.55-3.39,6.87-1.61,15.5,6.53,40.48,11.57,54.1-.75-1-1.45-1.56-2-1.45-.79.15-1.13,1.12-1.13,3.22,0,9.18,5.18,20.38,5.4,20.86a.5.5,0,1,0,.91-.43c0-.11-5.31-11.47-5.31-20.43,0-2,.34-2.24.35-2.25.74,0,3.08,4.18,5.21,9.21.22.54.35.85.37.88a.49.49,0,0,0,.65.27.51.51,0,0,0,.27-.65q-.2-.5-.42-1c-2.66-6.47-16.89-42.33-14.84-62.2.38-3.71,1.27-5.78,2.57-6,4.63-.78,14.48,18.53,17.89,26a.5.5,0,0,0,.64.26.5.5,0,0,0,.28-.64c-.2-.53-19.81-53.64-17.56-73.17.49-4.18,1.39-4.71,1.75-4.75h.08c3.09,0,9.75,17.45,13.26,28.54a.5.5,0,0,0,.55.35.5.5,0,0,0,.42-.5c-.3-45.35,1-113.61,5.82-115.76a.18.18,0,0,1,.21,0c3.76,2.57,3.24,50.24,1.83,87.37-.35,5.86-.44,10.23-.45,10.78a.5.5,0,0,0,1,0c.08-1.63.24-5.42.44-10.59.85-14,3-33,7.66-34.84a.41.41,0,0,1,.46.06c5,3.57,3.08,63.18,1.91,85.85a.51.51,0,0,0,.38.51.5.5,0,0,0,.58-.28c2.66-5.83,10.4-21,14.11-21.26a1.15,1.15,0,0,1,1.07.67c3,4.84-15,52.65-22.22,70.66a.51.51,0,0,0,.23.63.5.5,0,0,0,.64-.15c2.15-3,8.47-10.68,12.25-10.68h.16a2.45,2.45,0,0,1,2,1.46c3,5.44-11.11,32.95-16.82,43.09a.51.51,0,0,0,.19.68A.54.54,0,0,0,83.76,363.83Z"/><path class="cls-2" d="M86.64,356.54s5.37,6.56,21.47,11.93H619.85s11.93-3,17.3-11.33Z"/><path class="cls-2" d="M619.91,369l-512,0c-16-5.35-21.48-11.81-21.7-12.08l-.67-.82h1.06l551.42.6-.49.77c-5.41,8.42-17.1,11.42-17.6,11.54Zm-511.72-1h511.6c.86-.23,11.2-3.11,16.41-10.34L87.82,357C89.82,359,95.81,363.83,108.19,368Z"/><rect class="cls-6" x="85.55" y="344.79" width="552.76" height="12.54" rx="1.89"/><path d="M636.41,357.83h-549a2.4,2.4,0,0,1-2.39-2.4v-8.75a2.39,2.39,0,0,1,2.39-2.39h549a2.39,2.39,0,0,1,2.39,2.39v8.75A2.4,2.4,0,0,1,636.41,357.83Zm-549-12.54a1.39,1.39,0,0,0-1.39,1.39v8.75a1.4,1.4,0,0,0,1.39,1.4h549a1.4,1.4,0,0,0,1.39-1.4v-8.75a1.39,1.39,0,0,0-1.39-1.39Z"/><path class="cls-2" d="M636.41,357.83h-549a2.39,2.39,0,0,1-2.39-2.4v-8.75a2.39,2.39,0,0,1,2.39-2.39h549a2.39,2.39,0,0,1,2.39,2.39v8.75A2.39,2.39,0,0,1,636.41,357.83Zm-549-12.54a1.39,1.39,0,0,0-1.39,1.39v8.75a1.4,1.4,0,0,0,1.39,1.4h549a1.4,1.4,0,0,0,1.39-1.4v-8.75a1.39,1.39,0,0,0-1.39-1.39Z"/><circle class="cls-2" cx="362.79" cy="46.39" r="4.17"/><rect class="cls-5" x="144.06" y="61.31" width="437" height="246.96"/><path class="cls-2" d="M581.06,308.76h-437a.5.5,0,0,1-.5-.5V61.31a.5.5,0,0,1,.5-.5h437a.5.5,0,0,1,.5.5v247A.5.5,0,0,1,581.06,308.76Zm-436.5-1h436V61.81h-436Z"/><rect class="cls-2" x="144.39" y="61.17" width="437" height="14.95"/><path class="cls-2" d="M581.39,76.62h-437a.5.5,0,0,1-.5-.5v-15a.51.51,0,0,1,.5-.5h437a.5.5,0,0,1,.5.5v15A.5.5,0,0,1,581.39,76.62Zm-436.5-1h436v-14h-436Z"/><path class="cls-2" d="M546.4,292H365.91a.5.5,0,0,1-.5-.5v-102a.5.5,0,0,1,.5-.5H546.4a.51.51,0,0,1,.5.5v102A.5.5,0,0,1,546.4,292Zm-180-1H545.9v-101H366.41Z"/><path class="cls-2" d="M546.4,292H365.91a.5.5,0,0,1-.5-.5V279.27a.5.5,0,0,1,.5-.5H546.4a.51.51,0,0,1,.5.5v12.26A.5.5,0,0,1,546.4,292Zm-180-1H545.9V279.77H366.41Z"/><path class="cls-2" d="M457.12,254.86a19.58,19.58,0,1,1,19.58-19.58A19.6,19.6,0,0,1,457.12,254.86Zm0-38.15a18.58,18.58,0,1,0,18.58,18.57A18.59,18.59,0,0,0,457.12,216.71Z"/><path class="cls-4" d="M467.9,235l-17.21-9.93a.32.32,0,0,0-.35,0,.33.33,0,0,0-.17.3v19.87a.33.33,0,0,0,.17.3.31.31,0,0,0,.18,0,.26.26,0,0,0,.17,0l17.21-9.93a.35.35,0,0,0,.18-.31A.35.35,0,0,0,467.9,235Z"/><path d="M450.52,245.83a.55.55,0,0,1-.31-.08.61.61,0,0,1-.31-.53V225.35a.61.61,0,0,1,.31-.53.61.61,0,0,1,.61,0L468,234.75a.62.62,0,0,1,0,1.07l-17.21,9.93A.54.54,0,0,1,450.52,245.83Zm0-20.57h0a.12.12,0,0,0,0,.08v19.87a.12.12,0,0,0,0,.08h.09l17.21-9.94s0,0,0-.08a.07.07,0,0,0,0-.07l-17.21-9.94Z"/><path class="cls-6" d="M431.43,128.14l34.87,19.5,41.46-36.72a.5.5,0,0,1,.6,0l37.38,23.95V94.55h-179v83.68l64.17-50A.5.5,0,0,1,431.43,128.14Zm-41.37,3.32a13.62,13.62,0,1,1,13.61-13.61A13.63,13.63,0,0,1,390.06,131.46Z"/><path class="cls-5" d="M390.06,105.23a12.62,12.62,0,1,0,12.61,12.62A12.63,12.63,0,0,0,390.06,105.23Z"/><path class="cls-4" d="M466.69,148.62a.49.49,0,0,1-.57.07l-34.88-19.51-63.57,49.57H545.74V136l-37.6-24.09Z"/><path class="cls-7" d="M365.79,179.5a.36.36,0,0,1,0-.09A.36.36,0,0,0,365.79,179.5Z"/><path class="cls-7" d="M366,179.67a.53.53,0,0,1-.12-.1A.58.58,0,0,0,366,179.67Z"/><path class="cls-2" d="M546.24,93.55h-180a.5.5,0,0,0-.5.5v85.2s0,0,0,.06a.5.5,0,0,1,.19-.45l.8-.63V94.55h179v40.27l.77.49a.5.5,0,0,1,.15.69.49.49,0,0,1-.69.15l-.23-.14v42.74H367.67l-1.15.89a.45.45,0,0,1-.31.11h180a.5.5,0,0,0,.5-.5V94.05A.5.5,0,0,0,546.24,93.55Z"/><path class="cls-7" d="M366.21,179.75a.46.46,0,0,1-.2-.05A.46.46,0,0,0,366.21,179.75Z"/><path class="cls-7" d="M365.82,179.56h0l0-.07S365.8,179.54,365.82,179.56Z"/><path class="cls-7" d="M366,179.7s0,0-.05,0S366,179.7,366,179.7Z"/><path class="cls-2" d="M367.67,178.75l63.57-49.57,34.88,19.51a.49.49,0,0,0,.57-.07l41.45-36.7L545.74,136v-1.19l-37.38-23.95a.5.5,0,0,0-.6,0L466.3,147.64l-34.87-19.5a.5.5,0,0,0-.55,0l-64.17,50v.52Z"/><path class="cls-7" d="M365.75,179.41a.38.38,0,0,1,0-.1A.38.38,0,0,0,365.75,179.41Z"/><path class="cls-7" d="M546,136.15a.49.49,0,0,0,.69-.15.5.5,0,0,0-.15-.69l-.77-.49V136Z"/><path class="cls-7" d="M367.67,178.75h-1v-.52l-.8.63a.5.5,0,0,0-.19.45.38.38,0,0,0,0,.1.36.36,0,0,0,0,.09l0,.07a.53.53,0,0,0,.12.1s0,0,.05,0a.46.46,0,0,0,.51-.06Z"/><path class="cls-2" d="M390.06,104.23a13.62,13.62,0,1,0,13.61,13.62A13.64,13.64,0,0,0,390.06,104.23Zm0,26.23a12.62,12.62,0,1,1,12.61-12.61A12.63,12.63,0,0,1,390.06,130.46Z"/><rect class="cls-4" x="180.32" y="193.06" width="14.12" height="96.38" rx="0.5"/><path class="cls-2" d="M193.93,289.94H180.82a1,1,0,0,1-1-1V193.56a1,1,0,0,1,1-1h13.11a1,1,0,0,1,1,1v95.38A1,1,0,0,1,193.93,289.94Zm-13.11-96.38v95.38h13.11V193.56Z"/><rect class="cls-8" x="219.47" y="251.88" width="12.11" height="36.56"/><path class="cls-2" d="M232.09,250.88H219a.5.5,0,0,0-.5.5v37.56a.5.5,0,0,0,.5.5h13.12a.51.51,0,0,0,.5-.5V251.38A.5.5,0,0,0,232.09,250.88Zm-.5,37.56H219.47V251.88h12.12Z"/><rect class="cls-3" x="199.39" y="235.98" width="14.12" height="53.46" rx="0.5"/><path class="cls-2" d="M213,289.94H199.89a1,1,0,0,1-1-1V236.48a1,1,0,0,1,1-1H213a1,1,0,0,1,1,1v52.46A1,1,0,0,1,213,289.94Zm-13.12-53.46v52.46H213V236.48Z"/><path class="cls-7" d="M325.21,231.21H287.66a.5.5,0,0,1,0-1h37.55a.5.5,0,0,1,0,1Z"/><path class="cls-7" d="M325.21,243.73H287.66a.5.5,0,0,1-.5-.5.5.5,0,0,1,.5-.5h37.55a.5.5,0,0,1,.5.5A.5.5,0,0,1,325.21,243.73Z"/><path class="cls-2" d="M325.21,256.25H287.66a.5.5,0,0,1-.5-.5.5.5,0,0,1,.5-.5h37.55a.5.5,0,0,1,.5.5A.5.5,0,0,1,325.21,256.25Z"/><path class="cls-2" d="M325.21,268.77H287.66a.5.5,0,0,1-.5-.5.5.5,0,0,1,.5-.5h37.55a.5.5,0,0,1,.5.5A.5.5,0,0,1,325.21,268.77Z"/><path class="cls-2" d="M325.21,281.28H287.66a.5.5,0,0,1-.5-.5.5.5,0,0,1,.5-.5h37.55a.5.5,0,0,1,.5.5A.5.5,0,0,1,325.21,281.28Z"/><path class="cls-2" d="M187.56,150l-8.18-50.21h5.82l5.4,36.07L197.35,100h5l6.82,36.08,5.27-36.26h5.7L212,150H207l-7-37.2L192.89,150Z"/><path class="cls-2" d="M337.87,106.9h-104a.51.51,0,0,1-.5-.5.5.5,0,0,1,.5-.5h104a.5.5,0,0,1,.5.5A.51.51,0,0,1,337.87,106.9Z"/><path class="cls-2" d="M337.87,117.93h-104a.51.51,0,0,1-.5-.5.5.5,0,0,1,.5-.5h104a.5.5,0,0,1,.5.5A.51.51,0,0,1,337.87,117.93Z"/><path class="cls-2" d="M337.87,129h-104a.51.51,0,0,1-.5-.5.5.5,0,0,1,.5-.5h104a.5.5,0,0,1,.5.5A.51.51,0,0,1,337.87,129Z"/><path class="cls-2" d="M337.87,140h-104a.51.51,0,0,1-.5-.5.5.5,0,0,1,.5-.5h104a.5.5,0,0,1,.5.5A.51.51,0,0,1,337.87,140Z"/><path class="cls-2" d="M621.26,57.6h30.17c3.38,0,6.15-3.4,6.15-7.56V9.71c0-4.15-2.77-7.55-6.15-7.55H591c-3.37,0-6.14,3.4-6.14,7.55V50c0,4.16,2.77,7.56,6.14,7.56h14.48"/><path class="cls-5" d="M610.74,42.67l-12.72-9V28.93l12.72-9.07v4.8l-9.12,6.62,9.12,6.63Z"/><path class="cls-5" d="M614.6,44.27l9.7-36h4.13l-9.73,36Z"/><path class="cls-5" d="M632.3,42.67V37.91l9.16-6.67-9.16-6.58v-4.8l12.76,9v4.76Z"/><path class="cls-6" d="M298.94,161.33H238.5c-3.38,0-6.15,3.4-6.15,7.55v40.33c0,4.16,2.77,7.56,6.15,7.56H253l-9.48,20.86,25.26-20.86h30.18c3.38,0,6.14-3.4,6.14-7.56V168.88C305.08,164.73,302.32,161.33,298.94,161.33Z"/><path d="M242.16,239.4l10-22.13H238.5c-3.67,0-6.65-3.62-6.65-8.06V168.88c0-4.44,3-8,6.65-8h60.44c3.66,0,6.64,3.61,6.64,8v40.33c0,4.44-3,8.06-6.64,8.06h-30Zm-3.66-77.57c-3.12,0-5.65,3.16-5.65,7v40.33c0,3.89,2.53,7.06,5.65,7.06h15.25l-8.9,19.6,23.73-19.6h30.36c3.11,0,5.64-3.17,5.64-7.06V168.88c0-3.89-2.53-7-5.64-7Z"/><path class="cls-5" d="M258.24,201.84l-12.71-9V188.1L258.24,179v4.8l-9.11,6.62,9.11,6.63Z"/><path class="cls-5" d="M262.11,203.44l9.69-36h4.13l-9.73,36Z"/><path class="cls-5" d="M279.8,201.84v-4.76l9.16-6.67-9.16-6.58V179l12.76,9v4.76Z"/><rect class="cls-2" x="0.78" y="363.63" width="724.23" height="4.84" transform="translate(725.78 732.09) rotate(180)"/><path class="cls-2" d="M725,369H.78c-.43,0-.78-.23-.78-.5v-4.84c0-.28.35-.5.78-.5H725c.43,0,.78.22.78.5v4.84C725.78,368.74,725.43,369,725,369ZM1.56,368H724.23v-3.84H1.56Z"/></svg>