<svg id="Layer_1" data-name="Layer 1" xmlns="http://www.w3.org/2000/svg" viewBox="0 0 50.13 59.74"><defs><style>.cls-1,.cls-3{fill:#00b0fb;}.cls-2{fill:#222;}.cls-3{opacity:0.4;}</style></defs><path class="cls-1" d="M17.83,14.68a18,18,0,0,1-.57-2.3A18.65,18.65,0,0,0,4.9,25,21.19,21.19,0,0,0,4.12,32c0,.44-.08.66-.55.81a2.27,2.27,0,0,0-.39.16,1.63,1.63,0,0,1,.3-.07l2.61-.46C5.1,24.67,11,16.06,17.83,14.68Z"/><path class="cls-2" d="M40,25a25.75,25.75,0,0,1,.75,7.59l.36.14a3.75,3.75,0,0,1,2.75,3.61c0,2.17,0,4.33,0,6.5A3.73,3.73,0,0,1,40,46.62c-.58,0-1.15,0-1.73,0-.1,1.21-.17,2.37-.32,3.51a11.78,11.78,0,0,1-.52,2.28,6.59,6.59,0,0,1-6.1,4.67c-1.37.13-2.76.1-4.14.12a.65.65,0,0,0-.73.43,3.38,3.38,0,0,1-3.17,2.09c-.91,0-1.81,0-2.71,0a3.49,3.49,0,1,1,.05-7c.8,0,1.6,0,2.4,0a3.46,3.46,0,0,1,3.53,2.29c0,.07.08.14.18.32,1.63-.1,3.32-.1,5-.31a4.55,4.55,0,0,0,4-3.7c.22-.82.33-1.68.51-2.6l-.74,0A2.83,2.83,0,0,1,32.45,46q-.06-6.37,0-12.75a2.87,2.87,0,0,1,2.32-2.81,12.54,12.54,0,0,0-1-5.11c0-.1-.14-.27-.2-.26-.69,0-1.4-.27-2.05.33-2.87,2.62-5.77,5.21-8.66,7.82-.38.34-.76.62-1.29.38S21,32.91,21,32.4c0-2.2,0-4.41,0-6.62V25c-.29,0-.54,0-.79,0-2.46.19-3.31-.9-3.18-3.2.06-1.11,0-2.24,0-3.37C13.1,19,9,25.19,9.09,30.41a10.38,10.38,0,0,1,1.1.57,2.77,2.77,0,0,1,1.18,2.32q0,6.31,0,12.64a2.84,2.84,0,0,1-2.31,2.83A2.89,2.89,0,0,1,5.83,47c0-.13-.11-.26-.18-.41-.66,0-1.32,0-2,0A3.67,3.67,0,0,1,0,43.08C0,40.79,0,38.5,0,36.22a3.59,3.59,0,0,1,2.54-3.38c.47-.15.56-.37.55-.81A21.19,21.19,0,0,1,3.9,25,18.67,18.67,0,0,1,16.46,12.3c.43-.13.6-.3.59-.77,0-3,0-6,0-9A2.36,2.36,0,0,1,19.58,0C29,.05,38.31,0,47.68,0a2.16,2.16,0,0,1,2.45,2.43V22.61A2.18,2.18,0,0,1,47.66,25H40Zm-17,5.5c.24-.19.38-.29.51-.41,2.4-2.16,4.81-4.31,7.19-6.49a1.88,1.88,0,0,1,1.4-.53c5.14,0,10.27,0,15.41,0,.6,0,.78-.14.78-.77q0-9.84,0-19.68c0-.57-.14-.75-.73-.74H19.75C19,2,19,2,19,2.75V18.64c0,1.28,0,2.56,0,3.85,0,.46.13.66.62.63.7,0,1.4,0,2.1,0,1,0,1.25.29,1.25,1.26Zm-17.83,2c.39.13.57,0,.75-.35a4,4,0,0,1,.9-1.17,1.1,1.1,0,0,0,.4-.86A16.22,16.22,0,0,1,10,21.47a13.81,13.81,0,0,1,6.54-5c.19-.07.45-.26.47-.42.05-.61,0-1.23,0-1.86C10.05,15.33,4,24.62,5.1,32.58ZM38.23,44.7H40a1.84,1.84,0,0,0,1.92-1.88c0-2.14,0-4.28,0-6.43a1.69,1.69,0,0,0-1.31-1.73,15.45,15.45,0,0,0-2.36,0Zm-32.67,0V34.58c-.71,0-1.39,0-2.07,0A1.7,1.7,0,0,0,2,36.19c0,2.29,0,4.57,0,6.86A1.73,1.73,0,0,0,3.6,44.68C4.23,44.72,4.87,44.69,5.56,44.69Zm3.89-5.07c0-2,0-4.09,0-6.14a1,1,0,0,0-.62-1c-.69-.27-1.29.23-1.3,1.09V45.74c0,.73.36,1.13,1,1.14s1-.41,1-1.18Zm24.91,0v4.09c0,.7,0,1.4,0,2.11a1,1,0,1,0,1.91,0c0-.16,0-.32,0-.48V34.23c0-.34,0-.69,0-1A.95.95,0,0,0,34.43,33a2.32,2.32,0,0,0-.07.65Zm-12.42,15c-.48,0-1,0-1.44,0A1.56,1.56,0,0,0,19,56.18a1.52,1.52,0,0,0,1.41,1.59,26,26,0,0,0,3.06,0,1.49,1.49,0,0,0,1.39-1.6,1.54,1.54,0,0,0-1.52-1.48C22.86,54.67,22.4,54.69,21.94,54.69ZM36,25c.24,1.68.51,3.31.7,4.94a1.46,1.46,0,0,0,.56,1.22,2.29,2.29,0,0,1,.72,1c.17.41.39.51.83.37,0-.6,0-1.21,0-1.83a18.37,18.37,0,0,0-.72-5.27c0-.17-.25-.4-.39-.41C37.07,25,36.45,25,36,25Z"/><path class="cls-2" d="M20.84,39.62a1,1,0,0,1-2,0,1,1,0,0,1,2,0Z"/><path class="cls-2" d="M29.16,39.59a1,1,0,0,1-2,0,1,1,0,0,1,2,0Z"/><path class="cls-2" d="M15.69,40.59a1,1,0,0,1-1-1,1,1,0,0,1,2,0A1,1,0,0,1,15.69,40.59Z"/><path class="cls-2" d="M25,39.64a1,1,0,0,1-2-.06,1,1,0,0,1,2,.06Z"/><path class="cls-1" d="M22.93,30.54V24.38c0-1-.29-1.26-1.25-1.26-.7,0-1.4,0-2.1,0-.49,0-.63-.17-.62-.63,0-1.29,0-2.57,0-3.85V2.75c0-.8,0-.8.78-.8H47.49c.59,0,.73.17.73.74q0,9.84,0,19.68c0,.63-.18.77-.78.77-5.14,0-10.27,0-15.41,0a1.88,1.88,0,0,0-1.4.53c-2.38,2.18-4.79,4.33-7.19,6.49C23.31,30.25,23.17,30.35,22.93,30.54ZM33.5,8.12h9a4,4,0,0,0,.6,0,.89.89,0,0,0,.81-.84.87.87,0,0,0-.63-1,2,2,0,0,0-.65-.08H24.31a1.91,1.91,0,0,0-.59.06.89.89,0,0,0-.67,1,.89.89,0,0,0,.83.88,4,4,0,0,0,.6,0Zm0,3.45h-9c-.2,0-.4,0-.6,0a.89.89,0,0,0-.84.87.86.86,0,0,0,.66,1,2.38,2.38,0,0,0,.71.08H42.59a2.41,2.41,0,0,0,.76-.1.88.88,0,0,0,.59-1,.89.89,0,0,0-.8-.85,4,4,0,0,0-.6,0Zm-6.58,7.26c1,0,1.92,0,2.88,0,.68,0,1.07-.37,1.07-.95a1,1,0,0,0-1.07-1q-2.85,0-5.7,0a1,1,0,0,0-1.08,1,1,1,0,0,0,1.08.95C25.06,18.84,26,18.83,26.94,18.83Z"/><path class="cls-3" d="M5.56,44.69c-.69,0-1.33,0-2,0A1.73,1.73,0,0,1,2,43.05c0-2.29,0-4.57,0-6.86a1.7,1.7,0,0,1,1.53-1.6c.68-.05,1.36,0,2.07,0Z"/><path class="cls-2" d="M33.5,8.12h-9a4,4,0,0,1-.6,0,.89.89,0,0,1-.83-.88.89.89,0,0,1,.67-1,1.91,1.91,0,0,1,.59-.06H42.66a2,2,0,0,1,.65.08.87.87,0,0,1,.63,1,.89.89,0,0,1-.81.84,4,4,0,0,1-.6,0Z"/><path class="cls-2" d="M33.52,11.57h9a4,4,0,0,1,.6,0,.89.89,0,0,1,.8.85.88.88,0,0,1-.59,1,2.41,2.41,0,0,1-.76.1H24.42a2.38,2.38,0,0,1-.71-.08.86.86,0,0,1-.66-1,.89.89,0,0,1,.84-.87c.2,0,.4,0,.6,0Z"/><path class="cls-2" d="M26.94,18.83c-.94,0-1.88,0-2.82,0A1,1,0,0,1,23,17.88a1,1,0,0,1,1.08-1q2.85,0,5.7,0a1,1,0,0,1,1.07,1c0,.58-.39.94-1.07.95C28.86,18.84,27.9,18.83,26.94,18.83Z"/></svg>