<svg id="Layer_1" data-name="Layer 1" xmlns="http://www.w3.org/2000/svg" viewBox="0 0 78.97 74.08"><defs><style>.cls-1{fill:#222;}.cls-2{fill:#3c7cff;}</style></defs><path class="cls-1" d="M8.75,6.3v4.47H55.3V6.3ZM46.06,9.49H44.78a1,1,0,1,1,0-1.91h1.28a1,1,0,0,1,0,1.91Zm5.1,0H49.88a1,1,0,1,1,0-1.91h1.28a1,1,0,0,1,0,1.91Z"/><path class="cls-2" d="M31.64,34.62a3.51,3.51,0,1,0,3.51,3.5A3.5,3.5,0,0,0,31.64,34.62Z"/><path class="cls-1" d="M17.68,43.8H16.4V42.52a1,1,0,0,0-1.91,0v2.23a1,1,0,0,0,1,1h2.23a1,1,0,0,0,0-1.91Z"/><path class="cls-1" d="M15.45,39.07a1,1,0,0,0,.95-1V33.7a1,1,0,1,0-1.91,0v4.41A1,1,0,0,0,15.45,39.07Z"/><path class="cls-1" d="M15.45,30.24a1,1,0,0,0,.95-1V24.87a1,1,0,1,0-1.91,0v4.41A1,1,0,0,0,15.45,30.24Z"/><path class="cls-1" d="M17.68,17.27H15.45a1,1,0,0,0-1,1v2.23a1,1,0,0,0,1.91,0V19.18h1.28a1,1,0,0,0,0-1.91Z"/><path class="cls-1" d="M30,19.18h4.1a1,1,0,0,0,0-1.91H30a1,1,0,1,0,0,1.91Z"/><path class="cls-1" d="M26.83,18.23a1,1,0,0,0-.95-1h-4.1a1,1,0,1,0,0,1.91h4.1A1,1,0,0,0,26.83,18.23Z"/><path class="cls-1" d="M38.18,19.18h4.09a1,1,0,1,0,0-1.91H38.18a1,1,0,1,0,0,1.91Z"/><path class="cls-1" d="M46.37,19.18h1.28v1.28a1,1,0,0,0,1.91,0V18.23a1,1,0,0,0-1-1H46.37a1,1,0,0,0,0,1.91Z"/><path class="cls-1" d="M49.56,30.28V24.87a1,1,0,1,0-1.91,0v5.41h1.91Z"/><path class="cls-1" d="M24,44c0-.05-.06-.1-.08-.16h-2a1,1,0,1,0,0,1.91h2.25Z"/><path class="cls-1" d="M56.26,4.39H7.79a1,1,0,0,0-1,1V51.26a1,1,0,0,0,1,1H23v.26h0V49.89h0v.41H8.75V12.68H55.3V30.29h1.92V5.34A1,1,0,0,0,56.26,4.39Zm-1,6.38H8.75V6.3H55.3Z"/><path class="cls-2" d="M49,41.4a1,1,0,0,0-1.57,0l-4.83,6.9-3.87-4.43a1,1,0,0,0-1.44,0l-8.93,10.2a1,1,0,0,0-.15,1,1,1,0,0,0,.87.56H54.28a1.14,1.14,0,0,1-.15-.23h.36l-.27-1.61s.09-.46.2-.51a4.7,4.7,0,0,0,.41-.26l.05.07.29,0,.4.48s.8.26.87.19l.06-.1a1.85,1.85,0,0,1,.21.45,1.36,1.36,0,0,1,.8.84,1.64,1.64,0,0,1,.24-1.06Zm4.58,12.35H31.2L38,46l3.46,4-.84,1.21a1,1,0,0,0,.23,1.33.94.94,0,0,0,.55.17,1,1,0,0,0,.78-.4l6-8.6,6.27,8.94Z"/><path class="cls-2" d="M59.7,29.51H26.54A3.52,3.52,0,0,0,23,33V57.25a3.51,3.51,0,0,0,3.51,3.51H56.82v-.85l-.14-.1-.1-.1a1.52,1.52,0,0,1-.39-.67l0-.19H26.54A1.6,1.6,0,0,1,25,57.25V33a1.59,1.59,0,0,1,1.59-1.59H59.7A1.6,1.6,0,0,1,61.3,33V56.35h.45A1.41,1.41,0,0,1,63.2,55h0V33A3.51,3.51,0,0,0,59.7,29.51Z"/><path class="cls-1" d="M71.35,59.43c-.77-1.2-1.55-2.4-2.33-3.6l-.79-1.22a2.26,2.26,0,0,0-2-1,2.3,2.3,0,0,0-1.8.91,2.31,2.31,0,0,0-3,.61A2.4,2.4,0,0,0,60,54.84a2.37,2.37,0,0,0-1.22.64L57,52.66l-.17-.25A2.3,2.3,0,0,0,53,55.08l4.37,6.75-1.58-.66a2.62,2.62,0,0,0-3.21.92,2.59,2.59,0,0,0,.5,3.54L56.2,68l2.9,2.25a9.28,9.28,0,0,0,4,1.92,7.79,7.79,0,0,0,1.44.13,7.42,7.42,0,0,0,1.69-.19,8,8,0,0,0,3.79-2.1,8.52,8.52,0,0,0,1.3-10.62ZM60.42,64.38a.91.91,0,0,0,.07-1.1l-5.94-9.16a.57.57,0,0,1-.07-.47.47.47,0,0,1,.3-.31.54.54,0,0,1,.63.26l4.06,6.28a.91.91,0,0,0,1,.41.9.9,0,0,0,.71-.77,1,1,0,0,0-.16-.63l-.31-.49c-.22-.34-.43-.68-.66-1a.52.52,0,0,1-.07-.39.45.45,0,0,1,.2-.31.51.51,0,0,1,.72.17L62.3,59.1a.92.92,0,0,0,1.05.43.9.9,0,0,0,.57-1.24,1.27,1.27,0,0,0-.13-.22l-.3-.47L63,56.76a.52.52,0,0,1-.05-.47.51.51,0,0,1,.35-.29.48.48,0,0,1,.53.22l1.41,2.19a.94.94,0,0,0,.62.41.9.9,0,0,0,.92-1.36l-.82-1.26a.53.53,0,0,1,.08-.7.49.49,0,0,1,.69,0l.09.13L67.63,57l2.17,3.35a6.73,6.73,0,0,1-.12,7.34,6.29,6.29,0,0,1-3.8,2.69,5.89,5.89,0,0,1-3.36-.21A8.35,8.35,0,0,1,60,68.74l-2.6-2-1.59-1.23-1.61-1.25a.81.81,0,0,1-.2-1,.84.84,0,0,1,.72-.44.66.66,0,0,1,.3.07l3.32,1.38,1,.41A.91.91,0,0,0,60.42,64.38Zm.29-4.91Z"/></svg>