<svg id="Layer_1" data-name="Layer 1" xmlns="http://www.w3.org/2000/svg" viewBox="0 0 78.97 74.08"><defs><style>.cls-1{fill:#222;}.cls-2{fill:#3c7cff;}</style></defs><path class="cls-1" d="M71.63,22.44c0-.25,0-.49,0-.73a7.2,7.2,0,0,0-4.85-6.57,11.12,11.12,0,0,0-3-.47c-.55,0-1.57,0-2.69,0V16.8c1.46,0,2.86,0,3.65.07a5.1,5.1,0,0,1,4.72,4.81c0,.32,0,.64,0,.95V49.15H9.53c0-.28,0-.51,0-.75,0-8.67,0-17.33,0-26a5.35,5.35,0,0,1,4-5.45,7.65,7.65,0,0,1,1.59-.15l3.31,0V14.65H16.77a20.47,20.47,0,0,0-3.42.14,7.28,7.28,0,0,0-6,7.45q0,15.15,0,30.3a8.43,8.43,0,0,0,.13,1.67,7.37,7.37,0,0,0,7.37,6c4.65,0,9.3,0,14,0h.75v4.28c-.63,0-1.21,0-1.79,0a3.33,3.33,0,0,0-3.45,3.52q0,.92,0,1.83c0,1.47.42,1.88,1.92,1.88h26.5c.17,0,.34,0,.51,0a1.38,1.38,0,0,0,1.45-1.48c0-.68,0-1.37,0-2A3.41,3.41,0,0,0,51,64.54c-.53,0-1,0-1.57,0V60.26h.88c4.58,0,9.15,0,13.73,0a9.22,9.22,0,0,0,2.5-.37,7.51,7.51,0,0,0,5.14-7.42C71.6,42.44,71.63,32.44,71.63,22.44ZM39.46,56.62a1.88,1.88,0,0,1-1.89-1.9,1.91,1.91,0,1,1,3.81,0A1.88,1.88,0,0,1,39.46,56.62Z"/><path class="cls-2" d="M58.22,6H21.08c-2.46,0-3.73,1-4.37,3.34l0,.07V39.46l.06.2c0,.17.09.34.14.51a3.93,3.93,0,0,0,3.59,2.66c.11,0,.22,0,.34,0H58.13A3.89,3.89,0,0,0,62,40.21a4.42,4.42,0,0,0,.22-1.34q0-14.47,0-28.95A3.89,3.89,0,0,0,58.22,6Zm2.09,21.92-1-1-.55-.56L53.49,21c-.7-.7-1.15-.7-1.84,0L41.58,31.09a1.14,1.14,0,0,0-.16.22l-.38.55-2.57-2.59L36,26.75a1,1,0,0,0-1.68,0L20.74,40.29a1.37,1.37,0,0,0-.17.23l-.27.37L20,40.78A2,2,0,0,1,18.65,39a2.8,2.8,0,0,1,0-.29V10.18a2,2,0,0,1,2.24-2.26H58.08a2,2,0,0,1,2.23,2.23Z"/><path class="cls-2" d="M27.85,11.78h0a5.37,5.37,0,0,0-5.34,5.32,5.39,5.39,0,0,0,5.34,5.37h0a5.35,5.35,0,0,0,0-10.69Zm0,8.73h0a3.4,3.4,0,0,1-2.4-1,3.33,3.33,0,0,1-1-2.39,3.39,3.39,0,0,1,3.38-3.34h0a3.4,3.4,0,0,1,3.38,3.41A3.41,3.41,0,0,1,27.84,20.51Z"/></svg>