<svg id="Layer_1" data-name="Layer 1" xmlns="http://www.w3.org/2000/svg" viewBox="0 0 78.97 74.08"><defs><style>.cls-1{fill:#222;}.cls-2{fill:#3c7cff;}</style></defs><path class="cls-1" d="M71.63,22.43c0-.24,0-.48,0-.72a7.2,7.2,0,0,0-4.85-6.57,11.12,11.12,0,0,0-3-.47c-1.42-.07-5.83,0-7.26,0V16.8c1.75,0,6.48,0,8.22.07a5.1,5.1,0,0,1,4.72,4.81c0,.32,0,.64,0,.95V49.15H9.53c0-.28,0-.51,0-.75,0-8.67,0-17.33,0-26a5.36,5.36,0,0,1,4-5.45,7.65,7.65,0,0,1,1.59-.15c2.36,0,5.69,0,8.05,0l.23,0V14.65H20.62c-1.43,0-2.64,0-3.85,0a20.47,20.47,0,0,0-3.42.14,7.28,7.28,0,0,0-6,7.45q0,15.15,0,30.3a8.43,8.43,0,0,0,.13,1.67,7.37,7.37,0,0,0,7.37,6c4.65,0,9.3,0,14,0h.75v4.28c-.63,0-1.21,0-1.79,0a3.33,3.33,0,0,0-3.45,3.52q0,.92,0,1.83c0,1.47.42,1.88,1.92,1.88h26.5c.17,0,.34,0,.51,0a1.38,1.38,0,0,0,1.45-1.48c0-.68,0-1.37,0-2A3.41,3.41,0,0,0,51,64.54c-.53,0-1,0-1.57,0V60.26h.88c4.58,0,9.15,0,13.73,0a9.22,9.22,0,0,0,2.5-.37,7.51,7.51,0,0,0,5.14-7.42C71.6,42.44,71.63,32.44,71.63,22.43ZM39.46,56.62a1.88,1.88,0,0,1-1.89-1.9,1.91,1.91,0,1,1,3.81,0A1.88,1.88,0,0,1,39.46,56.62Z"/><path class="cls-2" d="M56.39,17.3l2.73-2.84c.42-.39.85-.77,1.25-1.18a2.67,2.67,0,0,0,0-4.21L54.69,3.39c-1.47-1.46-2.91-1.46-4.37,0L39.69,14l-.8.77a6.14,6.14,0,0,0-.53-.72q-4.89-4.92-9.8-9.81a4.94,4.94,0,0,0-7.43,0c-.57.57-1.14,1.13-1.7,1.7-2.32,2.33-2.31,5.2,0,7.54l1.18,1.19,2.48,2.48c2.24,2.2,4.45,4.42,6.73,6.7-.2.22-.39.43-.58.62L18.73,35c-1.54,1.53-1.53,2.93,0,4.47L24.31,45c1.47,1.47,2.88,1.45,4.36,0L39.25,34.41l.61-.58c2.35,2.36,4.65,4.7,7,7a4.14,4.14,0,0,0,1.57,1c3.27,1,6.55,2,9.83,3a1.46,1.46,0,0,0,1.88-1.94C59,39.45,57.9,36.09,56.75,32.74a2.64,2.64,0,0,0-.66-.94c-2.34-2.36-4.71-4.71-7.09-7.1l.51-.54C51.8,21.87,54.07,19.57,56.39,17.3Zm-33-3.17c-1-.92-2.06-1.82-3-2.86a2.61,2.61,0,0,1,.2-3.47c.75-.8,1.52-1.57,2.32-2.32a2.65,2.65,0,0,1,3.59-.14c1,.91,1.9,1.94,2.79,2.87Zm31.88,21,2.4,7.16-7.43-2.23ZM46.63,23.86c-1.31-1.1-1.8-1.25-2.32-.69s-.38,1,.66,2.19l-3.65,3.7c-.48-.51-1-1.1-1.54-1.64a1.09,1.09,0,0,0-1.66-.13c-.46.47-.41,1.08.17,1.66s1.12,1.08,1.64,1.58l-3.65,3.66c-.66-.42-1.25-1.71-2.29-.64s.25,1.55.67,2.16L31,39.39c-.43-.47-.94-1-1.48-1.59a1.16,1.16,0,0,0-1.73-.17A1.14,1.14,0,0,0,28,39.3c.53.54,1.08,1.05,1.67,1.61-1,1-1.9,2-2.86,2.87a.7.7,0,0,1-.68-.07c-2-2-4.09-4-6.09-6.1-.14-.13,0-.54,0-.8s.22-.25.34-.37L51.72,5.06c.79-.79.79-.79,1.6,0,1.82,1.83,3.63,3.66,5.47,5.47.48.46.51.79,0,1.25S57.66,13,57.08,13.6c-.79-.57-1.35-1.74-2.44-.73-.53.49-.32,1,.66,2.11l-3.69,3.7c-.43-.46-1-1.07-1.51-1.63a1.09,1.09,0,1,0-1.53,1.51c.57.57,1.17,1.1,1.73,1.63Z"/></svg>