<svg id="Layer_1" data-name="Layer 1" xmlns="http://www.w3.org/2000/svg" viewBox="0 0 78.97 74.08"><defs><style>.cls-1{fill:#fff;}</style></defs><path class="cls-1" d="M71.63,22.28c0-.25,0-.49,0-.73A7.2,7.2,0,0,0,66.76,15a11.12,11.12,0,0,0-3-.47l-5.69,0v2.19c3.08,0,6.23,0,6.65,0a5.1,5.1,0,0,1,4.72,4.82c0,.31,0,.63,0,.94V49H9.53c0-.29,0-.52,0-.76,0-8.66,0-17.33,0-26a5.36,5.36,0,0,1,4-5.45,7.65,7.65,0,0,1,1.59-.15h3.6V14.5a50.85,50.85,0,0,0-5.37.15,7.27,7.27,0,0,0-6,7.44q0,15.15,0,30.3a8.43,8.43,0,0,0,.13,1.67,7.39,7.39,0,0,0,7.37,6h14.7v4.29c-.63,0-1.21,0-1.79,0a3.33,3.33,0,0,0-3.45,3.52q0,.91,0,1.83c0,1.47.42,1.88,1.92,1.88h27a1.38,1.38,0,0,0,1.45-1.48c0-.68,0-1.36,0-2A3.41,3.41,0,0,0,51,64.38c-.53,0-1,0-1.57,0V60.1h.88c4.58,0,9.15,0,13.73,0a8.51,8.51,0,0,0,2.5-.37,7.51,7.51,0,0,0,5.14-7.42C71.6,42.28,71.63,32.28,71.63,22.28ZM39.46,56.46a1.88,1.88,0,0,1-1.89-1.9,1.91,1.91,0,1,1,3.81,0A1.88,1.88,0,0,1,39.46,56.46Z"/><path class="cls-1" d="M32.44,17.21A2.75,2.75,0,1,0,35.19,20,2.75,2.75,0,0,0,32.44,17.21Z"/><path class="cls-1" d="M20.94,24.83H19.87V23.75a.81.81,0,0,0-1.62,0v1.88a.81.81,0,0,0,.81.81h1.88a.81.81,0,1,0,0-1.61Z"/><path class="cls-1" d="M19.06,20.38a.8.8,0,0,0,.81-.8V14.85a.81.81,0,0,0-1.62,0v4.73A.8.8,0,0,0,19.06,20.38Z"/><path class="cls-1" d="M19.06,13.39a.8.8,0,0,0,.81-.8V8.86a.81.81,0,0,0-1.62,0v3.73A.8.8,0,0,0,19.06,13.39Z"/><path class="cls-1" d="M20.94,2.45H19.06a.81.81,0,0,0-.81.81V5.14a.81.81,0,1,0,1.62,0V4.07h1.07a.81.81,0,0,0,0-1.62Z"/><path class="cls-1" d="M31.32,4.07h3.45a.81.81,0,1,0,0-1.62H31.32a.81.81,0,1,0,0,1.62Z"/><path class="cls-1" d="M28.67,3.26a.81.81,0,0,0-.81-.81H24.4a.81.81,0,0,0,0,1.62h3.46A.82.82,0,0,0,28.67,3.26Z"/><path class="cls-1" d="M38.23,4.07h3.46a.81.81,0,1,0,0-1.62H38.23a.81.81,0,0,0,0,1.62Z"/><path class="cls-1" d="M45.15,4.07h1.07V5.14a.81.81,0,1,0,1.62,0V3.26A.81.81,0,0,0,47,2.45H45.15a.81.81,0,0,0,0,1.62Z"/><path class="cls-1" d="M47.84,10.28V8.86a.81.81,0,0,0-1.62,0v1.42h1.62Z"/><path class="cls-1" d="M26.26,25a.91.91,0,0,1-.07-.14H24.48a.81.81,0,1,0,0,1.61h1.9Z"/><path class="cls-1" d="M47.37,19.09a.82.82,0,0,0-.66-.34.81.81,0,0,0-.66.34L42,24.91l-3.27-3.73a.8.8,0,0,0-.61-.28.81.81,0,0,0-.61.28L30,29.78a.83.83,0,0,0-.12.87.79.79,0,0,0,.73.47H51.81a2,2,0,0,1-.12-.19H52l-.05-.34a1.35,1.35,0,0,1-1.11-1l-.25-.11H32.35l5.75-6.58L41,26.27l-.71,1A.81.81,0,0,0,41,28.56a.82.82,0,0,0,.66-.34L46.71,21l4.07,5.82a1.64,1.64,0,0,1,.56-.1,1.37,1.37,0,0,1,1.38,1,1.51,1.51,0,0,1,.88,1.83h0s0,0,.06-.08a1.59,1.59,0,0,1,.18.37,1.19,1.19,0,0,1,.67.72,1.4,1.4,0,0,1,.2-.9Z"/><path class="cls-1" d="M56.39,9.07h-28a3,3,0,0,0-3,3V32.47a3,3,0,0,0,3,3H49.21a1.43,1.43,0,0,1,1.45-1.56,1.54,1.54,0,0,1,.63.13,1.1,1.1,0,0,1,0-.18H28.42a1.35,1.35,0,0,1-1.35-1.34V12a1.35,1.35,0,0,1,1.35-1.35h28A1.34,1.34,0,0,1,57.73,12v16.6a1.54,1.54,0,0,1,.5-.08,1.36,1.36,0,0,1,1.12.51V12A3,3,0,0,0,56.39,9.07Z"/><path class="cls-1" d="M64.8,32.23c-.64-1-1.3-2-2-3l-.67-1a1.88,1.88,0,0,0-1.64-.88,1.94,1.94,0,0,0-1.52.76,1.88,1.88,0,0,0-1.34-.2,1.86,1.86,0,0,0-1.14.72,2,2,0,0,0-1.3-.21,1.91,1.91,0,0,0-1,.54l-1.54-2.38c0-.08-.1-.14-.15-.21a1.94,1.94,0,0,0-3.16,2.25L53,34.26l-1.33-.56a2.22,2.22,0,0,0-2.29,3.76l2.61,2,2.45,1.9A7.89,7.89,0,0,0,57.88,43a7,7,0,0,0,1.2.11A6.36,6.36,0,0,0,60.52,43a6.84,6.84,0,0,0,3.19-1.77,7,7,0,0,0,2.13-4.33A6.91,6.91,0,0,0,64.8,32.23ZM55.59,36.4a.76.76,0,0,0,0-.92l-5-7.73a.48.48,0,0,1-.06-.4.43.43,0,0,1,.25-.26.45.45,0,0,1,.53.22l3.43,5.3a.76.76,0,0,0,1.4-.31.8.8,0,0,0-.13-.53l-.27-.41c-.18-.29-.36-.57-.55-.85a.42.42,0,0,1-.06-.33.4.4,0,0,1,.17-.26.42.42,0,0,1,.61.14L57.17,32a.77.77,0,0,0,1.37-.68,1.86,1.86,0,0,0-.11-.19l-.26-.4-.45-.7a.44.44,0,0,1,0-.4.41.41,0,0,1,.3-.24.4.4,0,0,1,.44.18l1.19,1.85a.76.76,0,0,0,1.13.19.75.75,0,0,0,.17-1l-.69-1.06a.45.45,0,0,1,.06-.59.41.41,0,0,1,.58,0,.76.76,0,0,1,.08.11l.73,1.12c.61.94,1.22,1.88,1.82,2.83A5.47,5.47,0,0,1,64.37,36a5.55,5.55,0,0,1-1,3.25,5.28,5.28,0,0,1-3.21,2.26,4.84,4.84,0,0,1-2.83-.17,7,7,0,0,1-2.09-1.21l-2.2-1.71-1.34-1-1.36-1.06a.65.65,0,0,1-.16-.87.7.7,0,0,1,.6-.37.8.8,0,0,1,.26,0l2.79,1.17.82.35A.78.78,0,0,0,55.59,36.4Zm.24-4.14h0Z"/></svg>