<?xml version="1.0" encoding="utf-8"?>
<!-- Generator: Adobe Illustrator 24.3.0, SVG Export Plug-In . SVG Version: 6.00 Build 0)  -->
<svg version="1.1" id="Icons" xmlns="http://www.w3.org/2000/svg" xmlns:xlink="http://www.w3.org/1999/xlink" x="0px" y="0px"
	 width="500px" height="500px" viewBox="0 0 500 500" style="enable-background:new 0 0 500 500;" xml:space="preserve">
<style type="text/css">
	.st0{fill:#222222;}
	.st1{fill:#CECECE;}
	.st2{fill:#C0FFFD;}
	.st3{fill:#CECECE;stroke:#263238;stroke-width:0.75;stroke-miterlimit:10;}
	.st4{fill:#FFFFFF;}
	.st5{fill:#3C7CFF;}
	.st6{fill:#999999;}
	.st7{fill:#BFBFBF;}
	.st8{fill:#263238;}
	.st9{fill:#407BFF;}
	.st10{opacity:0.5;}
	.st11{opacity:0.3;}
	.st12{fill:#7A7A7A;}
	.st13{fill:#92E3A9;}
</style>
<g>
	<g>
		
			<rect x="17.2" y="427.2" transform="matrix(-1 -1.224647e-16 1.224647e-16 -1 500.0003 859.3184)" class="st0" width="465.5" height="4.8"/>
		<path class="st0" d="M482.8,432.6H17.2c-0.3,0-0.5-0.2-0.5-0.5v-4.8c0-0.3,0.2-0.5,0.5-0.5h465.5c0.3,0,0.5,0.2,0.5,0.5v4.8
			C483.3,432.4,483,432.6,482.8,432.6z M17.7,431.6h464.5v-3.8H17.7V431.6z"/>
	</g>
	<g>
		<g>
			<g>
				<g>
					<g>
						<path class="st1" d="M401,389.6c0,0-2.7-75.7-27-102.6c0,0,19.8,47.2,21.6,103.5L401,389.6z"/>
					</g>
				</g>
				<g>
					<g>
						<g>
							<path class="st2" d="M406,364.9c0.1,0.2-0.7,0.9,2,1.1c6.8,0.3,18.8-0.1,23.3-6.3c6.4-8.8-8.4-8-6.9-12.9
								c1.5-4.8,17.4-0.8,20.5-7.8c3.1-6.9-8.5-5.6-7.9-9.2c0.5-3.6,12.7,1.1,16.7-6.2c4-7.3-6.6-3.4-4.9-6.5
								c1.7-3,15.2-15.7,9.8-18.5c-5.4-2.8-18.1,10.3-22.3,11.7c-4.2,1.4-5.1-11.6-10.6-7.2c-5.5,4.3-2,23.9-8.4,26.3
								c-4.8,1.8-2.2-5.2-8-5C401.3,324.9,398.6,352.3,406,364.9z"/>
						</g>
					</g>
					<g>
						<g>
							<g>
								<g>
									<g>
										<g>
											<path class="st0" d="M400.9,388.7C400.9,388.7,400.9,388.7,400.9,388.7c-0.2,0-0.3-0.2-0.3-0.4
												c5.7-45.4,31.9-63.8,32.2-64c0.1-0.1,0.3-0.1,0.4,0.1c0.1,0.1,0.1,0.3-0.1,0.4c-0.3,0.2-26.3,18.4-31.9,63.6
												C401.2,388.6,401,388.7,400.9,388.7z"/>
										</g>
										<g>
											<path class="st0" d="M436.9,330.6C436.9,330.6,436.9,330.5,436.9,330.6c-6.2-1.3-10.1-0.1-10.1-0.1
												c-0.2,0.1-0.3,0-0.4-0.2c-0.1-0.2,0-0.3,0.2-0.4c0.2-0.1,4-1.3,10.4,0.1c0.2,0,0.3,0.2,0.2,0.4
												C437.2,330.4,437.1,330.6,436.9,330.6z"/>
										</g>
										<g>
											<path class="st0" d="M421.8,336c-0.2,0-0.3-0.1-0.3-0.3c-0.1-13.7,7.9-24.4,8-24.5c0.1-0.1,0.3-0.2,0.4-0.1
												c0.1,0.1,0.2,0.3,0.1,0.4c-0.1,0.1-7.9,10.6-7.8,24.1C422.2,335.8,422,336,421.8,336C421.8,336,421.8,336,421.8,336z"/>
										</g>
										<g>
											<path class="st0" d="M414,347.6c-0.1,0-0.2,0-0.2-0.1c-0.1-0.1-0.1-0.3,0-0.4c0.1-0.1,5.9-5.4,13.6-2.7
												c0.2,0.1,0.2,0.2,0.2,0.4c-0.1,0.2-0.2,0.2-0.4,0.2c-7.3-2.6-12.9,2.5-12.9,2.5C414.2,347.5,414.1,347.6,414,347.6z"/>
										</g>
										<g>
											<path class="st0" d="M409.9,355.7c-0.1,0-0.2-0.1-0.3-0.2c0-0.1-3-7.2-1.4-17c0-0.2,0.2-0.3,0.4-0.3
												c0.2,0,0.3,0.2,0.3,0.4c-1.6,9.6,1.3,16.6,1.3,16.7c0.1,0.2,0,0.3-0.2,0.4C410,355.7,409.9,355.7,409.9,355.7z"/>
										</g>
									</g>
								</g>
							</g>
						</g>
					</g>
				</g>
				<g>
					<g>
						<path class="st1" d="M396.4,388.4c0,0,3.1-87,31-117.9c0,0-22.8,54.3-24.8,118.9L396.4,388.4z"/>
					</g>
					<g>
						<g>
							<path class="st2" d="M402.6,390.6c0,0,4.9-93.3-21.4-131c0,0,19.1,62.7,15.1,130.7L402.6,390.6z"/>
						</g>
					</g>
				</g>
				<g>
					<g>
						<g>
							<path class="st2" d="M395.5,368.6c-5.6,0.1-15.1-5.1-18.8-10.1c-3.8-5.1,6.9-1.9,5.8-6c-1.1-4-14.2-1-16.7-6.8
								c-2.4-5.7,7.1-4.4,6.7-7.4c-0.4-2.9-10.2-2.3-13.4-8.4c-3.2-6.1,5.5-2.7,4.1-5.2c-1.4-2.5-12.2-13.2-7.7-15.4
								c4.5-2.2,14.7,8.9,18.1,10.1c3.4,1.2,4.2-6.4,8.6-2.8c4.4,3.7,1.1,19.7,6.3,21.8c3.9,1.6,2.2-5.8,6.7-3.9
								C403.1,337.8,397.7,368.5,395.5,368.6z"/>
						</g>
					</g>
					<g>
						<g>
							<path class="st0" d="M398,389.5c-0.2,0-0.3-0.1-0.3-0.3c-1.6-40.1-29-67.5-29.3-67.8c-0.1-0.1-0.1-0.3,0-0.4
								c0.1-0.1,0.3-0.1,0.4,0c0.3,0.3,27.9,27.8,29.5,68.2C398.3,389.4,398.1,389.5,398,389.5C398,389.5,398,389.5,398,389.5z"/>
						</g>
						<g>
							<path class="st0" d="M379.6,336.5C379.6,336.5,379.5,336.5,379.6,336.5c-0.1,0-0.1,0-0.2,0l-0.1-0.1
								c-3.6-1.5-7.7-2.3-11.4-2.2c-0.2,0-0.3-0.1-0.3-0.3c0-0.2,0.1-0.3,0.3-0.3c3.8-0.1,7.9,0.7,11.6,2.3l0.1,0.1c0,0,0,0,0.1,0
								c0.1,0.1,0.2,0.2,0.2,0.3C379.9,336.4,379.7,336.5,379.6,336.5z"/>
						</g>
						<g>
							<path class="st0" d="M383.4,341.7C383.4,341.7,383.4,341.7,383.4,341.7c-0.2,0-0.3-0.2-0.3-0.3c1.1-11.9-5-21.7-5.1-21.7
								c-0.1-0.1-0.1-0.3,0.1-0.4c0.1-0.1,0.3-0.1,0.4,0.1c0.1,0.1,6.3,10.1,5.2,22.1C383.7,341.6,383.6,341.7,383.4,341.7z"/>
						</g>
						<g>
							<path class="st0" d="M387.4,348.5c-0.1,0-0.2,0-0.2-0.1c0,0-4.5-4.5-11.2-2.8c-0.2,0-0.3-0.1-0.4-0.2c0-0.2,0.1-0.3,0.2-0.4
								c7-1.8,11.7,2.9,11.8,2.9c0.1,0.1,0.1,0.3,0,0.4C387.6,348.5,387.5,348.5,387.4,348.5z"/>
						</g>
						<g>
							<path class="st0" d="M392.5,359.9c-0.1,0-0.1,0-0.1,0c-0.2-0.1-0.2-0.3-0.1-0.4c0-0.1,3.1-6,2.4-14.6c0-0.2,0.1-0.3,0.3-0.3
								c0.2,0,0.3,0.1,0.3,0.3c0.7,8.8-2.5,14.8-2.5,14.9C392.7,359.8,392.6,359.9,392.5,359.9z"/>
						</g>
					</g>
				</g>
			</g>
			<g>
				<path class="st3" d="M377.9,406.3c0,11.2,9.8,20.3,21.8,20.3c12,0,21.8-9.1,21.8-20.3c0-6.3-6.9-12-13-15.7h-17.6
					C384.8,394.3,377.9,400,377.9,406.3z"/>
			</g>
			<g>
				<path class="st2" d="M386.5,407.6h-3.8c-0.2,0-0.4-0.2-0.4-0.4s0.2-0.4,0.4-0.4h3.8c0.2,0,0.4,0.2,0.4,0.4
					S386.8,407.6,386.5,407.6z"/>
			</g>
			<g>
				<path class="st2" d="M417,407.6h-26.3c-0.2,0-0.4-0.2-0.4-0.4s0.2-0.4,0.4-0.4H417c0.2,0,0.4,0.2,0.4,0.4S417.2,407.6,417,407.6
					z"/>
			</g>
		</g>
	</g>
	<g>
		<g>
			<g>
				<rect x="40.6" y="185.3" class="st4" width="323.7" height="241.7"/>
				<path class="st0" d="M364.2,427.4H40.6c-0.2,0-0.4-0.2-0.4-0.4V185.3c0-0.2,0.2-0.4,0.4-0.4h323.7c0.2,0,0.4,0.2,0.4,0.4V427
					C364.6,427.2,364.5,427.4,364.2,427.4z M41,426.6h322.8V185.7H41V426.6z"/>
			</g>
		</g>
	</g>
	<g>
		<g>
			<g>
				<g>
					<path class="st0" d="M95.7,215.1c-0.1,0-0.1,0-0.2-0.1l-5.4-3.3c-0.1-0.1-0.2-0.2-0.2-0.3c0-0.1,0.1-0.3,0.2-0.4l5.2-3.6
						c0.2-0.1,0.5-0.1,0.6,0.1c0.1,0.2,0.1,0.5-0.1,0.6l-4.7,3.2l4.9,2.9c0.2,0.1,0.3,0.4,0.1,0.6C96,215,95.9,215.1,95.7,215.1z"/>
				</g>
				<g>
					<path class="st0" d="M98.3,211.8h-8c-0.2,0-0.4-0.2-0.4-0.4s0.2-0.4,0.4-0.4h8c0.2,0,0.4,0.2,0.4,0.4S98.5,211.8,98.3,211.8z"
						/>
				</g>
				<g>
					<g>
						<path class="st0" d="M111.2,215.1c-0.1,0-0.3-0.1-0.3-0.2c-0.1-0.2-0.1-0.5,0.1-0.6l4.7-3.2l-4.9-2.9
							c-0.2-0.1-0.3-0.4-0.1-0.6c0.1-0.2,0.4-0.3,0.6-0.1l5.4,3.3c0.1,0.1,0.2,0.2,0.2,0.3c0,0.1-0.1,0.3-0.2,0.4l-5.2,3.6
							C111.4,215.1,111.3,215.1,111.2,215.1z"/>
					</g>
					<g>
						<path class="st0" d="M116.4,211.5h-8c-0.2,0-0.4-0.2-0.4-0.4s0.2-0.4,0.4-0.4h8c0.2,0,0.4,0.2,0.4,0.4
							S116.6,211.5,116.4,211.5z"/>
					</g>
				</g>
			</g>
			<g>
				<g>
					<path class="st0" d="M131.3,216.8c-2.7,0-4.9-2.2-4.9-4.9c0-2.7,2.2-4.9,4.9-4.9c2.7,0,4.9,2.2,4.9,4.9c0,0.2-0.2,0.4-0.4,0.4
						s-0.4-0.2-0.4-0.4c0-2.2-1.8-4-4-4s-4,1.8-4,4c0,2.2,1.8,4,4,4c0.2,0,0.4,0.2,0.4,0.4S131.5,216.8,131.3,216.8z"/>
				</g>
				<g>
					<path class="st0" d="M135.8,212.4c0,0-0.1,0-0.1,0l-2.8-0.8c-0.2-0.1-0.4-0.3-0.3-0.5c0.1-0.2,0.3-0.4,0.5-0.3l2.4,0.7l1-1.8
						c0.1-0.2,0.4-0.3,0.6-0.2c0.2,0.1,0.3,0.4,0.2,0.6l-1.2,2.1C136.1,212.4,135.9,212.4,135.8,212.4z"/>
				</g>
			</g>
			<g>
				<g>
					<path class="st0" d="M270.9,214.7c-1,0-1.9-0.4-2.7-1.1c-0.7-0.7-1.1-1.7-1.1-2.7c0-1,0.4-1.9,1.1-2.7c0.7-0.7,1.7-1.1,2.7-1.1
						c1,0,1.9,0.4,2.7,1.1c0.7,0.7,1.1,1.7,1.1,2.7c0,1-0.4,1.9-1.1,2.7C272.8,214.3,271.9,214.7,270.9,214.7z M270.9,208
						c-0.8,0-1.5,0.3-2.1,0.9c-0.6,0.6-0.9,1.3-0.9,2.1c0,0.8,0.3,1.5,0.9,2.1c1.1,1.1,3,1.1,4.1,0c0,0,0,0,0,0
						c0.6-0.5,0.9-1.3,0.9-2.1c0-0.8-0.3-1.5-0.9-2.1C272.4,208.3,271.7,208,270.9,208z"/>
				</g>
				<g>
					<path class="st0" d="M276.4,216.8c-0.1,0-0.2,0-0.3-0.1l-3.1-3.1c-0.2-0.2-0.2-0.4,0-0.6c0.2-0.2,0.4-0.2,0.6,0l3.1,3.1
						c0.2,0.2,0.2,0.4,0,0.6C276.6,216.8,276.5,216.8,276.4,216.8z"/>
				</g>
			</g>
			<g>
				<path class="st0" d="M252.6,216.8h-98.6c-3.1,0-5.5-2.5-5.5-5.5s2.5-5.5,5.5-5.5h98.6c3.1,0,5.5,2.5,5.5,5.5
					S255.6,216.8,252.6,216.8z M153.9,206.6c-2.6,0-4.7,2.1-4.7,4.7s2.1,4.7,4.7,4.7h98.6c2.6,0,4.7-2.1,4.7-4.7s-2.1-4.7-4.7-4.7
					H153.9z"/>
			</g>
		</g>
		<g>
			<rect x="40.6" y="185.3" class="st0" width="323.7" height="13.6"/>
		</g>
		<g>
			<g>
				<path class="st4" d="M56.5,192c0,2.2-1.8,4.1-4.1,4.1c-2.2,0-4.1-1.8-4.1-4.1c0-2.2,1.8-4.1,4.1-4.1
					C54.7,187.9,56.5,189.7,56.5,192z"/>
			</g>
			<g>
				<path class="st4" d="M69,192c0,2.2-1.8,4.1-4.1,4.1c-2.2,0-4.1-1.8-4.1-4.1c0-2.2,1.8-4.1,4.1-4.1C67.2,187.9,69,189.7,69,192z"
					/>
			</g>
			<g>
				<path class="st4" d="M81.5,192c0,2.2-1.8,4.1-4.1,4.1c-2.2,0-4.1-1.8-4.1-4.1c0-2.2,1.8-4.1,4.1-4.1
					C79.7,187.9,81.5,189.7,81.5,192z"/>
			</g>
		</g>
	</g>
	<g>
		<g>
			<g>
				<rect x="168.4" y="385.5" class="st5" width="71.8" height="28"/>
				<path class="st0" d="M240.6,414H168v-28.9h72.7V414z M168.8,413.2h71V386h-71V413.2z"/>
			</g>
			<g>
				<g>
					<path class="st4" d="M183.7,404.3v-8.6h1v7.7h2.4v0.9H183.7z"/>
				</g>
				<g>
					<path class="st4" d="M187.8,397.9c0-1.3,0.6-2.2,2-2.2c1.3,0,2,0.8,2,2.2v4.4c0,1.3-0.6,2.2-2,2.2c-1.3,0-2-0.9-2-2.2V397.9z
						 M188.7,402.3c0,0.8,0.3,1.2,1,1.2c0.7,0,1-0.5,1-1.2v-4.5c0-0.8-0.3-1.2-1-1.2c-0.7,0-1,0.5-1,1.2V402.3z"/>
				</g>
				<g>
					<path class="st4" d="M193.5,402.6l-0.3,1.7h-0.9l1.6-8.6h1.4l1.6,8.6h-1l-0.3-1.7H193.5z M193.7,401.8h1.9l-1-4.9L193.7,401.8z
						"/>
				</g>
				<g>
					<path class="st4" d="M199.7,395.8c1.3,0,1.9,0.8,1.9,2.1v4.3c0,1.3-0.6,2.1-1.9,2.1h-2v-8.6H199.7z M199.7,403.5
						c0.7,0,1-0.4,1-1.2v-4.4c0-0.8-0.3-1.2-1-1.2h-1v6.8H199.7z"/>
				</g>
				<g>
					<path class="st4" d="M207.6,404.3h-0.9l-1.4-6.8v6.8h-0.8v-8.6h1.3l1.4,6.8l1.4-6.8h1.3v8.6H209v-6.9L207.6,404.3z"/>
				</g>
				<g>
					<path class="st4" d="M210.8,397.9c0-1.3,0.6-2.2,2-2.2c1.3,0,2,0.8,2,2.2v4.4c0,1.3-0.6,2.2-2,2.2c-1.3,0-2-0.9-2-2.2V397.9z
						 M211.7,402.3c0,0.8,0.3,1.2,1,1.2c0.7,0,1-0.5,1-1.2v-4.5c0-0.8-0.3-1.2-1-1.2c-0.7,0-1,0.5-1,1.2V402.3z"/>
				</g>
				<g>
					<path class="st4" d="M217.5,395.8c1.3,0,1.9,0.7,1.9,2v0.7c0,0.9-0.3,1.5-1.1,1.8c0.8,0.2,1.1,0.9,1.1,1.8v1.3
						c0,0.4,0,0.7,0.2,1h-1c-0.1-0.2-0.2-0.5-0.2-1V402c0-1-0.5-1.3-1.2-1.3h-0.7v3.7h-1v-8.6H217.5z M217.3,399.8
						c0.8,0,1.2-0.2,1.2-1.2v-0.8c0-0.8-0.3-1.2-1-1.2h-0.9v3.2H217.3z"/>
				</g>
				<g>
					<path class="st4" d="M223.5,399.6v0.9h-2.1v3h2.6v0.9h-3.5v-8.6h3.5v0.9h-2.6v2.9H223.5z"/>
				</g>
			</g>
		</g>
	</g>
	<g>
		<rect x="73.4" y="233.7" class="st1" width="71.9" height="41.4"/>
		<path class="st0" d="M145.8,275.4H73v-42.2h72.8V275.4z M73.9,274.6H145v-40.5H73.9V274.6z"/>
	</g>
	<g>
		<g>
			<rect x="77.8" y="281.9" class="st6" width="18.8" height="4.5"/>
		</g>
		<g>
			<rect x="100" y="281.9" class="st6" width="18.8" height="4.5"/>
		</g>
		<g>
			<rect x="122.1" y="281.9" class="st6" width="18.8" height="4.5"/>
		</g>
	</g>
	<g>
		<g>
			<rect x="83.6" y="290.3" class="st7" width="2.9" height="2.6"/>
		</g>
		<g>
			<rect x="88.1" y="290.3" class="st7" width="10.8" height="2.6"/>
		</g>
		<g>
			<rect x="100.8" y="290.3" class="st7" width="10.8" height="2.6"/>
		</g>
		<g>
			<rect x="129.8" y="290.3" class="st7" width="5.4" height="2.6"/>
		</g>
		<g>
			<rect x="113.5" y="290.3" class="st7" width="14.7" height="2.6"/>
		</g>
	</g>
	<g>
		<g>
			
				<rect x="121.8" y="294.7" transform="matrix(-1 -1.224647e-16 1.224647e-16 -1 254.4029 591.8693)" class="st7" width="10.8" height="2.6"/>
		</g>
		<g>
			
				<rect x="109.2" y="294.7" transform="matrix(-1 -1.224647e-16 1.224647e-16 -1 229.0935 591.8693)" class="st7" width="10.8" height="2.6"/>
		</g>
		<g>
			
				<rect x="85.6" y="294.7" transform="matrix(-1 -1.224647e-16 1.224647e-16 -1 176.5441 591.8693)" class="st7" width="5.4" height="2.6"/>
		</g>
		<g>
			
				<rect x="92.5" y="294.7" transform="matrix(-1 -1.224647e-16 1.224647e-16 -1 199.7388 591.8693)" class="st7" width="14.7" height="2.6"/>
		</g>
	</g>
	<g>
		<g>
			<g>
				<path class="st4" d="M76,275l15-15.3c4.6-4.4,11.5-5.3,17.1-2.3l32,17.6L76,275z"/>
				<path class="st0" d="M140.1,275.5L140.1,275.5l-64.1,0c-0.2,0-0.3-0.1-0.4-0.3c-0.1-0.2,0-0.3,0.1-0.5l15-15.3
					c4.8-4.6,11.8-5.5,17.6-2.3l32,17.6c0.2,0.1,0.3,0.3,0.2,0.5C140.5,275.3,140.3,275.5,140.1,275.5z M77,274.6l61.4,0L108,257.8
					c-5.4-3-12.1-2.1-16.6,2.2L77,274.6z"/>
			</g>
		</g>
		<g>
			<g>
				<path class="st4" d="M114.9,272.3c0.8,1.1,1.3,1.7,1.3,1.7"/>
				<path class="st0" d="M116.3,274.4c-0.1,0-0.3-0.1-0.3-0.2l-1.3-1.7c-0.1-0.2-0.1-0.4,0.1-0.6c0.2-0.1,0.4-0.1,0.6,0.1l1.3,1.7
					c0.1,0.2,0.1,0.4-0.1,0.6C116.4,274.4,116.3,274.4,116.3,274.4z"/>
			</g>
			<g>
				<path class="st4" d="M99.9,256.8c1.1-0.1,2.3,0.2,3.9,1.5c1.1,0.9,6.4,7.7,9.7,12.1"/>
				<path class="st0" d="M113.5,270.8c-0.1,0-0.3-0.1-0.3-0.2c-5.3-7-8.9-11.4-9.7-12c-1.4-1.1-2.5-1.6-3.6-1.4
					c-0.2,0-0.4-0.1-0.5-0.4c0-0.2,0.1-0.4,0.4-0.5c1.4-0.2,2.7,0.3,4.2,1.6c1.1,0.9,5.9,7.1,9.8,12.1c0.1,0.2,0.1,0.4-0.1,0.6
					C113.7,270.8,113.6,270.8,113.5,270.8z"/>
			</g>
		</g>
		<g>
			<path class="st4" d="M127.7,245.5c0,3-2.4,5.4-5.4,5.4c-3,0-5.4-2.4-5.4-5.4c0-3,2.4-5.4,5.4-5.4
				C125.2,240,127.7,242.5,127.7,245.5z"/>
		</g>
	</g>
	<g>
		<rect x="167.8" y="310" class="st1" width="71.9" height="41.4"/>
		<path class="st0" d="M240.1,351.8h-72.8v-42.2h72.8V351.8z M168.2,351h71.1v-40.5h-71.1V351z"/>
	</g>
	<g>
		<g>
			<rect x="172.2" y="358.3" class="st6" width="18.8" height="4.5"/>
		</g>
		<g>
			<rect x="194.3" y="358.3" class="st6" width="18.8" height="4.5"/>
		</g>
		<g>
			<rect x="216.4" y="358.3" class="st6" width="18.8" height="4.5"/>
		</g>
	</g>
	<g>
		<g>
			<rect x="177.9" y="366.6" class="st7" width="2.9" height="2.6"/>
		</g>
		<g>
			<rect x="182.5" y="366.6" class="st7" width="10.8" height="2.6"/>
		</g>
		<g>
			<rect x="195.2" y="366.6" class="st7" width="10.8" height="2.6"/>
		</g>
		<g>
			<rect x="224.1" y="366.6" class="st7" width="5.4" height="2.6"/>
		</g>
		<g>
			<rect x="207.9" y="366.6" class="st7" width="14.7" height="2.6"/>
		</g>
	</g>
	<g>
		<g>
			
				<rect x="216.2" y="371" transform="matrix(-1 -1.224647e-16 1.224647e-16 -1 443.114 744.6027)" class="st7" width="10.8" height="2.6"/>
		</g>
		<g>
			
				<rect x="203.5" y="371" transform="matrix(-1 -1.224647e-16 1.224647e-16 -1 417.8047 744.6027)" class="st7" width="10.8" height="2.6"/>
		</g>
		<g>
			
				<rect x="179.9" y="371" transform="matrix(-1 -1.224647e-16 1.224647e-16 -1 365.2552 744.6027)" class="st7" width="5.4" height="2.6"/>
		</g>
		<g>
			
				<rect x="186.9" y="371" transform="matrix(-1 -1.224647e-16 1.224647e-16 -1 388.45 744.6027)" class="st7" width="14.7" height="2.6"/>
		</g>
	</g>
	<g>
		<g>
			<g>
				<polygon class="st4" points="194.2,329.2 206.2,351.3 222.7,351.3 				"/>
				<path class="st0" d="M222.7,351.7h-16.5c-0.2,0-0.3-0.1-0.4-0.2l-12-22.1c-0.1-0.2-0.1-0.4,0.1-0.5c0.2-0.1,0.4-0.1,0.5,0
					L223,351c0.1,0.1,0.2,0.3,0.1,0.5C223,351.6,222.9,351.7,222.7,351.7z M206.4,350.9h15l-26-20.1L206.4,350.9z"/>
			</g>
			<g>
				<polygon class="st4" points="171.2,351.3 194.2,329.2 206.2,351.3 				"/>
				<path class="st0" d="M206.2,351.7h-35c-0.2,0-0.3-0.1-0.4-0.3c-0.1-0.2,0-0.3,0.1-0.5l23-22.1c0.1-0.1,0.2-0.1,0.4-0.1
					c0.1,0,0.2,0.1,0.3,0.2l12,22.1c0.1,0.1,0.1,0.3,0,0.4C206.5,351.6,206.3,351.7,206.2,351.7z M172.2,350.9h33.2l-11.4-21
					L172.2,350.9z"/>
			</g>
		</g>
		<g>
			<path class="st0" d="M195.7,345.1h-2.6c-0.2,0-0.4-0.2-0.4-0.4s0.2-0.4,0.4-0.4h2.6c0.2,0,0.4,0.2,0.4,0.4S196,345.1,195.7,345.1
				z"/>
		</g>
		<g>
			<path class="st0" d="M191.4,345.1h-7.9c-0.2,0-0.4-0.2-0.4-0.4s0.2-0.4,0.4-0.4h7.9c0.2,0,0.4,0.2,0.4,0.4
				S191.6,345.1,191.4,345.1z"/>
		</g>
		<g>
			<path class="st0" d="M211.9,348h-2.5c-0.2,0-0.4-0.2-0.4-0.4s0.2-0.4,0.4-0.4h2.5c0.2,0,0.4,0.2,0.4,0.4S212.1,348,211.9,348z"/>
		</g>
		<g>
			<path class="st0" d="M208.2,348h-3.7c-0.2,0-0.4-0.2-0.4-0.4s0.2-0.4,0.4-0.4h3.7c0.2,0,0.4,0.2,0.4,0.4S208.4,348,208.2,348z"/>
		</g>
		<g>
			<path class="st0" d="M199.1,338.8h-8.7c-0.2,0-0.4-0.2-0.4-0.4s0.2-0.4,0.4-0.4h8.7c0.2,0,0.4,0.2,0.4,0.4
				S199.4,338.8,199.1,338.8z"/>
		</g>
	</g>
	<g>
		<g>
			<path class="st4" d="M220.7,321.9c0,3-2.4,5.4-5.4,5.4c-3,0-5.4-2.4-5.4-5.4c0-3,2.4-5.4,5.4-5.4
				C218.2,316.4,220.7,318.9,220.7,321.9z"/>
		</g>
	</g>
	<g>
		<rect x="261.9" y="233.7" class="st2" width="71.9" height="41.4"/>
		<path class="st0" d="M334.3,275.4h-72.8v-42.2h72.8V275.4z M262.3,274.6h71.1v-40.5h-71.1V274.6z"/>
	</g>
	<g>
		<g>
			<rect x="266.3" y="281.9" class="st6" width="18.8" height="4.5"/>
		</g>
		<g>
			<rect x="288.4" y="281.9" class="st6" width="18.8" height="4.5"/>
		</g>
		<g>
			<rect x="310.6" y="281.9" class="st6" width="18.8" height="4.5"/>
		</g>
	</g>
	<g>
		<g>
			<rect x="272" y="290.3" class="st7" width="2.9" height="2.6"/>
		</g>
		<g>
			<rect x="276.6" y="290.3" class="st7" width="10.8" height="2.6"/>
		</g>
		<g>
			<rect x="289.3" y="290.3" class="st7" width="10.8" height="2.6"/>
		</g>
		<g>
			<rect x="318.2" y="290.3" class="st7" width="5.4" height="2.6"/>
		</g>
		<g>
			<rect x="302" y="290.3" class="st7" width="14.7" height="2.6"/>
		</g>
	</g>
	<g>
		<g>
			
				<rect x="310.3" y="294.7" transform="matrix(-1 -1.224647e-16 1.224647e-16 -1 631.3608 591.8693)" class="st7" width="10.8" height="2.6"/>
		</g>
		<g>
			
				<rect x="297.6" y="294.7" transform="matrix(-1 -1.224647e-16 1.224647e-16 -1 606.0513 591.8693)" class="st7" width="10.8" height="2.6"/>
		</g>
		<g>
			
				<rect x="274.1" y="294.7" transform="matrix(-1 -1.224647e-16 1.224647e-16 -1 553.5019 591.8693)" class="st7" width="5.4" height="2.6"/>
		</g>
		<g>
			
				<rect x="281" y="294.7" transform="matrix(-1 -1.224647e-16 1.224647e-16 -1 576.6968 591.8693)" class="st7" width="14.7" height="2.6"/>
		</g>
	</g>
	<g>
		<g>
			<path class="st4" d="M323.7,245.5c0,3-2.4,5.4-5.4,5.4c-3,0-5.4-2.4-5.4-5.4c0-3,2.4-5.4,5.4-5.4
				C321.2,240,323.7,242.5,323.7,245.5z"/>
		</g>
	</g>
	<g>
		<g>
			<polygon class="st4" points="272.2,275.1 295.2,253 323.7,275.1 			"/>
			<path class="st0" d="M323.7,275.6h-51.5c-0.2,0-0.3-0.1-0.4-0.3c-0.1-0.2,0-0.3,0.1-0.5l23-22.1c0.2-0.1,0.4-0.2,0.5,0l28.5,22.1
				c0.1,0.1,0.2,0.3,0.1,0.5C324.1,275.4,323.9,275.6,323.7,275.6z M273.3,274.7h49.2l-27.3-21.1L273.3,274.7z"/>
		</g>
		<g>
			<polygon class="st4" points="287.3,260.6 296.8,257.2 305,260.6 295.2,253 			"/>
			<path class="st0" d="M305,261c-0.1,0-0.1,0-0.2,0l-8.1-3.4l-9.3,3.4c-0.2,0.1-0.4,0-0.5-0.2c-0.1-0.2-0.1-0.4,0.1-0.5l7.9-7.6
				c0.2-0.1,0.4-0.2,0.5,0l9.8,7.6c0.2,0.1,0.2,0.4,0.1,0.5C305.3,261,305.2,261,305,261z M295.2,253.6l-6.2,6l7.6-2.8
				c0.1,0,0.2,0,0.3,0l5.3,2.2L295.2,253.6z"/>
		</g>
		<g>
			<line class="st4" x1="300.5" y1="264.1" x2="305" y2="272.1"/>
			<path class="st0" d="M305,272.5c-0.1,0-0.3-0.1-0.4-0.2l-4.6-8.1c-0.1-0.2,0-0.5,0.2-0.6c0.2-0.1,0.5,0,0.6,0.2l4.6,8.1
				c0.1,0.2,0,0.5-0.2,0.6C305.2,272.5,305.1,272.5,305,272.5z"/>
		</g>
		<g>
			<line class="st4" x1="298.2" y1="260" x2="299.4" y2="262.3"/>
			<path class="st0" d="M299.4,262.7c-0.1,0-0.3-0.1-0.4-0.2l-1.3-2.2c-0.1-0.2,0-0.5,0.2-0.6c0.2-0.1,0.5,0,0.6,0.2l1.3,2.2
				c0.1,0.2,0,0.5-0.2,0.6C299.6,262.7,299.5,262.7,299.4,262.7z"/>
		</g>
		<g>
			<line class="st4" x1="292.9" y1="261.1" x2="288.5" y2="269.6"/>
			<path class="st0" d="M288.5,270.1c-0.1,0-0.1,0-0.2,0c-0.2-0.1-0.3-0.4-0.2-0.6l4.4-8.5c0.1-0.2,0.4-0.3,0.6-0.2
				c0.2,0.1,0.3,0.4,0.2,0.6l-4.4,8.5C288.8,270,288.6,270.1,288.5,270.1z"/>
		</g>
	</g>
	<g>
		<rect x="261.9" y="310.8" class="st5" width="71.9" height="41.4"/>
		<path class="st0" d="M334.3,352.6h-72.8v-42.2h72.8V352.6z M262.3,351.7h71.1v-40.5h-71.1V351.7z"/>
	</g>
	<g>
		<g>
			<rect x="266.3" y="359" class="st6" width="18.8" height="4.5"/>
		</g>
		<g>
			<rect x="288.4" y="359" class="st6" width="18.8" height="4.5"/>
		</g>
		<g>
			<rect x="310.6" y="359" class="st6" width="18.8" height="4.5"/>
		</g>
	</g>
	<g>
		<g>
			<rect x="272" y="367.4" class="st7" width="2.9" height="2.6"/>
		</g>
		<g>
			<rect x="276.6" y="367.4" class="st7" width="10.8" height="2.6"/>
		</g>
		<g>
			<rect x="289.3" y="367.4" class="st7" width="10.8" height="2.6"/>
		</g>
		<g>
			<rect x="318.2" y="367.4" class="st7" width="5.4" height="2.6"/>
		</g>
		<g>
			<rect x="302" y="367.4" class="st7" width="14.7" height="2.6"/>
		</g>
	</g>
	<g>
		<g>
			
				<rect x="310.3" y="371.8" transform="matrix(-1 -1.224647e-16 1.224647e-16 -1 631.3608 746.1415)" class="st7" width="10.8" height="2.6"/>
		</g>
		<g>
			
				<rect x="297.6" y="371.8" transform="matrix(-1 -1.224647e-16 1.224647e-16 -1 606.0513 746.1415)" class="st7" width="10.8" height="2.6"/>
		</g>
		<g>
			
				<rect x="274.1" y="371.8" transform="matrix(-1 -1.224647e-16 1.224647e-16 -1 553.5019 746.1415)" class="st7" width="5.4" height="2.6"/>
		</g>
		<g>
			
				<rect x="281" y="371.8" transform="matrix(-1 -1.224647e-16 1.224647e-16 -1 576.6968 746.1415)" class="st7" width="14.7" height="2.6"/>
		</g>
	</g>
	<g>
		<g>
			<path class="st4" d="M303.4,322.6c0,3-2.4,5.4-5.4,5.4c-3,0-5.4-2.4-5.4-5.4c0-3,2.4-5.4,5.4-5.4
				C301,317.2,303.4,319.6,303.4,322.6z"/>
		</g>
	</g>
	<g>
		<g>
			<path class="st4" d="M324.3,352.1h-51.5l8.9-9.9c2.3-2.5,5.5-3.9,8.9-3.9h13.7c2.9,0,5.8,1.1,8,3L324.3,352.1z"/>
			<path class="st0" d="M324.3,352.6h-51.5c-0.2,0-0.3-0.1-0.4-0.2s0-0.3,0.1-0.5l8.9-9.9c2.3-2.6,5.7-4.1,9.2-4.1h13.7
				c3,0,6,1.1,8.2,3.1l12.1,10.8c0.1,0.1,0.2,0.3,0.1,0.5C324.7,352.5,324.5,352.6,324.3,352.6z M273.8,351.7h49.5L312,341.7
				c-2.1-1.9-4.8-2.9-7.7-2.9h-13.7c-3.3,0-6.4,1.4-8.6,3.8L273.8,351.7z"/>
		</g>
		<g>
			<g>
				<path class="st0" d="M288.2,350.3c-0.1,0-0.1,0-0.2-0.1c-0.2-0.1-0.3-0.4-0.2-0.6l3.1-5.5c0.1-0.2,0.4-0.3,0.6-0.2
					c0.2,0.1,0.3,0.4,0.2,0.6l-3.1,5.5C288.5,350.2,288.3,350.3,288.2,350.3z"/>
			</g>
			<g>
				<path class="st0" d="M292.4,342.9c-0.1,0-0.1,0-0.2-0.1c-0.2-0.1-0.3-0.4-0.2-0.6l1.3-2.2c0.1-0.2,0.4-0.3,0.6-0.2
					c0.2,0.1,0.3,0.4,0.2,0.6l-1.3,2.2C292.6,342.9,292.5,342.9,292.4,342.9z"/>
			</g>
			<g>
				<path class="st0" d="M304.9,346.8c-0.2,0-0.3-0.1-0.4-0.2l-3.2-6.1c-0.1-0.2,0-0.5,0.2-0.6c0.2-0.1,0.5,0,0.6,0.2l3.2,6.1
					c0.1,0.2,0,0.5-0.2,0.6C305,346.8,304.9,346.8,304.9,346.8z"/>
			</g>
		</g>
	</g>
	<g>
		<rect x="167.8" y="233.7" class="st5" width="71.9" height="41.4"/>
		<path class="st0" d="M240.1,275.4h-72.8v-42.2h72.8V275.4z M168.2,274.6h71.1v-40.5h-71.1V274.6z"/>
	</g>
	<g>
		<g>
			<rect x="172.2" y="281.9" class="st6" width="18.8" height="4.5"/>
		</g>
		<g>
			<rect x="194.3" y="281.9" class="st6" width="18.8" height="4.5"/>
		</g>
		<g>
			<rect x="216.4" y="281.9" class="st6" width="18.8" height="4.5"/>
		</g>
	</g>
	<g>
		<g>
			<rect x="177.9" y="290.3" class="st7" width="2.9" height="2.6"/>
		</g>
		<g>
			<rect x="182.5" y="290.3" class="st7" width="10.8" height="2.6"/>
		</g>
		<g>
			<rect x="195.2" y="290.3" class="st7" width="10.8" height="2.6"/>
		</g>
		<g>
			<rect x="224.1" y="290.3" class="st7" width="5.4" height="2.6"/>
		</g>
		<g>
			<rect x="207.9" y="290.3" class="st7" width="14.7" height="2.6"/>
		</g>
	</g>
	<g>
		<g>
			
				<rect x="216.2" y="294.7" transform="matrix(-1 -1.224647e-16 1.224647e-16 -1 443.114 591.8693)" class="st7" width="10.8" height="2.6"/>
		</g>
		<g>
			
				<rect x="203.5" y="294.7" transform="matrix(-1 -1.224647e-16 1.224647e-16 -1 417.8047 591.8693)" class="st7" width="10.8" height="2.6"/>
		</g>
		<g>
			
				<rect x="179.9" y="294.7" transform="matrix(-1 -1.224647e-16 1.224647e-16 -1 365.2552 591.8693)" class="st7" width="5.4" height="2.6"/>
		</g>
		<g>
			
				<rect x="186.9" y="294.7" transform="matrix(-1 -1.224647e-16 1.224647e-16 -1 388.45 591.8693)" class="st7" width="14.7" height="2.6"/>
		</g>
	</g>
	<g>
		<g>
			<g>
				<g>
					<polygon class="st4" points="167.8,275.1 191.4,252.4 203.7,275.1 					"/>
					<path class="st0" d="M203.7,275.5h-35.9c-0.2,0-0.3-0.1-0.4-0.3c-0.1-0.2,0-0.3,0.1-0.5l23.6-22.7c0.1-0.1,0.2-0.1,0.4-0.1
						c0.1,0,0.2,0.1,0.3,0.2l12.3,22.7c0.1,0.1,0.1,0.3,0,0.4C204,275.4,203.9,275.5,203.7,275.5z M168.8,274.7H203l-11.7-21.6
						L168.8,274.7z"/>
				</g>
				<g>
					<polygon class="st4" points="193,275.1 223.7,245.6 239.7,275.1 					"/>
					<path class="st0" d="M239.7,275.5H193c-0.2,0-0.3-0.1-0.4-0.3c-0.1-0.2,0-0.3,0.1-0.5l30.7-29.5c0.1-0.1,0.2-0.1,0.4-0.1
						c0.1,0,0.2,0.1,0.3,0.2l16,29.5c0.1,0.1,0.1,0.3,0,0.4C240,275.4,239.9,275.5,239.7,275.5z M194.1,274.7H239l-15.4-28.4
						L194.1,274.7z"/>
				</g>
			</g>
			<g>
				<path class="st4" d="M209.3,245.9c0,3-2.4,5.4-5.4,5.4c-3,0-5.4-2.4-5.4-5.4c0-3,2.4-5.4,5.4-5.4
					C206.9,240.4,209.3,242.9,209.3,245.9z"/>
			</g>
		</g>
		<g>
			<line class="st4" x1="219.5" y1="254.4" x2="221.6" y2="252.4"/>
			<path class="st0" d="M219.5,254.8c-0.1,0-0.2,0-0.3-0.1c-0.2-0.2-0.2-0.4,0-0.6l2-2c0.2-0.2,0.4-0.2,0.6,0c0.2,0.2,0.2,0.4,0,0.6
				l-2,2C219.7,254.8,219.6,254.8,219.5,254.8z"/>
		</g>
		<g>
			<line class="st4" x1="203.7" y1="270" x2="217.5" y2="256.4"/>
			<path class="st0" d="M203.7,270.4c-0.1,0-0.2,0-0.3-0.1c-0.2-0.2-0.2-0.4,0-0.6l13.7-13.6c0.2-0.2,0.4-0.2,0.6,0
				c0.2,0.2,0.2,0.4,0,0.6L204,270.3C203.9,270.4,203.8,270.4,203.7,270.4z"/>
		</g>
		<g>
			<line class="st4" x1="188.8" y1="258.5" x2="190.2" y2="257.2"/>
			<path class="st0" d="M188.8,259c-0.1,0-0.2,0-0.3-0.1c-0.2-0.2-0.2-0.4,0-0.6l1.4-1.3c0.2-0.2,0.4-0.2,0.6,0
				c0.2,0.2,0.2,0.4,0,0.6l-1.4,1.3C189,258.9,188.9,259,188.8,259z"/>
		</g>
		<g>
			<line class="st4" x1="179.4" y1="267.5" x2="187.4" y2="259.9"/>
			<path class="st0" d="M179.4,268c-0.1,0-0.2,0-0.3-0.1c-0.2-0.2-0.2-0.4,0-0.6l8-7.7c0.2-0.2,0.4-0.2,0.6,0c0.2,0.2,0.2,0.4,0,0.6
				l-8,7.7C179.6,267.9,179.5,268,179.4,268z"/>
		</g>
	</g>
	<g>
		<rect x="73.6" y="310.8" class="st2" width="71.9" height="41.4"/>
		<path class="st0" d="M145.9,352.6H73.2v-42.2h72.8V352.6z M74,351.7h71.1v-40.5H74V351.7z"/>
	</g>
	<g>
		<g>
			<rect x="78" y="359" class="st6" width="18.8" height="4.5"/>
		</g>
		<g>
			<rect x="100.1" y="359" class="st6" width="18.8" height="4.5"/>
		</g>
		<g>
			<rect x="122.2" y="359" class="st6" width="18.8" height="4.5"/>
		</g>
	</g>
	<g>
		<g>
			<rect x="83.7" y="367.4" class="st7" width="2.9" height="2.6"/>
		</g>
		<g>
			<rect x="88.3" y="367.4" class="st7" width="10.8" height="2.6"/>
		</g>
		<g>
			<rect x="100.9" y="367.4" class="st7" width="10.8" height="2.6"/>
		</g>
		<g>
			<rect x="129.9" y="367.4" class="st7" width="5.4" height="2.6"/>
		</g>
		<g>
			<rect x="113.7" y="367.4" class="st7" width="14.7" height="2.6"/>
		</g>
	</g>
	<g>
		<g>
			
				<rect x="122" y="371.8" transform="matrix(-1 -1.224647e-16 1.224647e-16 -1 254.6894 746.1415)" class="st7" width="10.8" height="2.6"/>
		</g>
		<g>
			
				<rect x="109.3" y="371.8" transform="matrix(-1 -1.224647e-16 1.224647e-16 -1 229.38 746.1415)" class="st7" width="10.8" height="2.6"/>
		</g>
		<g>
			
				<rect x="85.7" y="371.8" transform="matrix(-1 -1.224647e-16 1.224647e-16 -1 176.8306 746.1415)" class="st7" width="5.4" height="2.6"/>
		</g>
		<g>
			
				<rect x="92.7" y="371.8" transform="matrix(-1 -1.224647e-16 1.224647e-16 -1 200.0254 746.1415)" class="st7" width="14.7" height="2.6"/>
		</g>
	</g>
	<g>
		<g>
			<path class="st4" d="M115.1,322.6c0,3-2.4,5.4-5.4,5.4s-5.4-2.4-5.4-5.4c0-3,2.4-5.4,5.4-5.4S115.1,319.6,115.1,322.6z"/>
		</g>
	</g>
	<g>
		<g>
			<polygon class="st4" points="104.2,352.1 114.2,334.4 124.6,352.1 			"/>
			<path class="st0" d="M124.6,352.5h-20.4c-0.1,0-0.3-0.1-0.4-0.2c-0.1-0.1-0.1-0.3,0-0.4l10.1-17.7c0.1-0.1,0.2-0.2,0.4-0.2
				c0.1,0,0.3,0.1,0.4,0.2l10.4,17.7c0.1,0.1,0.1,0.3,0,0.4C124.9,352.4,124.8,352.5,124.6,352.5z M104.9,351.7h19l-9.6-16.4
				L104.9,351.7z"/>
		</g>
		<g>
			<polygon class="st4" points="107,352.1 114.3,339.4 121.7,352 			"/>
			<path class="st0" d="M107,352.6c-0.1,0-0.3-0.1-0.4-0.2c-0.1-0.1-0.1-0.3,0-0.4l7.2-12.7c0.1-0.1,0.2-0.2,0.4-0.2
				c0.2,0,0.3,0.1,0.4,0.2l7.4,12.6c0.1,0.1,0.1,0.3,0,0.4c-0.1,0.1-0.2,0.2-0.4,0.2L107,352.6C107,352.6,107,352.6,107,352.6z
				 M114.3,340.3l-6.5,11.5l13.2-0.1L114.3,340.3z"/>
		</g>
		<g>
			<line class="st4" x1="114.2" y1="339.4" x2="114.3" y2="352"/>
			<path class="st0" d="M114.3,352.5c-0.2,0-0.4-0.2-0.4-0.4l-0.1-12.6c0-0.2,0.2-0.4,0.4-0.4c0,0,0,0,0,0c0.2,0,0.4,0.2,0.4,0.4
				l0.1,12.6C114.7,352.3,114.5,352.5,114.3,352.5C114.3,352.5,114.3,352.5,114.3,352.5z"/>
		</g>
		<g>
			<polygon class="st4" points="114.2,334.4 124.6,352.1 146,352 135.6,334.3 			"/>
			<path class="st0" d="M124.6,352.5c-0.1,0-0.3-0.1-0.4-0.2l-10.4-17.7c-0.1-0.1-0.1-0.3,0-0.4c0.1-0.1,0.2-0.2,0.4-0.2l21.3-0.1
				c0.2,0,0.3,0.1,0.4,0.2l10.4,17.8c0.1,0.1,0.1,0.3,0,0.4c-0.1,0.1-0.2,0.2-0.4,0.2L124.6,352.5
				C124.6,352.5,124.6,352.5,124.6,352.5z M115,334.8l9.9,16.8l20.4-0.1l-9.9-16.9L115,334.8z"/>
		</g>
		<g>
			<polygon class="st4" points="123.9,338.9 127.9,345.9 136.4,345.8 132.3,338.9 			"/>
			<path class="st0" d="M127.9,346.3c-0.1,0-0.3-0.1-0.4-0.2l-4.1-6.9c-0.1-0.1-0.1-0.3,0-0.4c0.1-0.1,0.2-0.2,0.4-0.2l8.4-0.1
				c0.1,0,0.3,0.1,0.4,0.2l4.1,6.9c0.1,0.1,0.1,0.3,0,0.4c-0.1,0.1-0.2,0.2-0.4,0.2L127.9,346.3
				C127.9,346.3,127.9,346.3,127.9,346.3z M124.6,339.3l3.6,6.1l7.5-0.1l-3.6-6.1L124.6,339.3z"/>
		</g>
	</g>
</g>
</svg>
