<?xml version="1.0" encoding="utf-8"?>
<!-- Generator: Adobe Illustrator 24.3.0, SVG Export Plug-In . SVG Version: 6.00 Build 0)  -->
<svg version="1.1" id="Icons" xmlns="http://www.w3.org/2000/svg" xmlns:xlink="http://www.w3.org/1999/xlink" x="0px" y="0px"
	 width="466.5px" height="247.7px" viewBox="0 0 466.5 247.7" style="enable-background:new 0 0 466.5 247.7;" xml:space="preserve"
	>
<style type="text/css">
	.st0{fill:#222222;}
	.st1{fill:#CECECE;}
	.st2{fill:#C0FFFD;}
	.st3{fill:#CECECE;stroke:#263238;stroke-width:0.75;stroke-miterlimit:10;}
	.st4{fill:#FFFFFF;}
	.st5{fill:#3C7CFF;}
	.st6{fill:#999999;}
	.st7{fill:#BFBFBF;}
	.st8{fill:none;}
</style>
<g>
	<g>
		<rect x="0.6" y="242.4" class="st0" width="465.5" height="4.8"/>
		<path class="st0" d="M466.1,247.7H0.5c-0.3,0-0.5-0.2-0.5-0.5v-4.8c0-0.3,0.2-0.5,0.5-0.5H466c0.3,0,0.5,0.2,0.5,0.5v4.8
			C466.6,247.5,466.3,247.7,466.1,247.7z M1,246.7h464.5v-3.8H1V246.7z"/>
	</g>
	<g>
		<g>
			<g>
				<g>
					<g>
						<path class="st1" d="M384.3,204.7c0,0-2.7-75.7-27-102.6c0,0,19.8,47.2,21.6,103.5L384.3,204.7z"/>
					</g>
				</g>
				<g>
					<g>
						<g>
							<path class="st2" d="M389.3,180c0.1,0.2-0.7,0.9,2,1.1c6.8,0.3,18.8-0.1,23.3-6.3c6.4-8.8-8.4-8-6.9-12.9
								c1.5-4.8,17.4-0.8,20.5-7.8c3.1-6.9-8.5-5.6-7.9-9.2c0.5-3.6,12.7,1.1,16.7-6.2c4-7.3-6.6-3.4-4.9-6.5
								c1.7-3,15.2-15.7,9.8-18.5c-5.4-2.8-18.1,10.3-22.3,11.7c-4.2,1.4-5.1-11.6-10.6-7.2c-5.5,4.3-2,23.9-8.4,26.3
								c-4.8,1.8-2.2-5.2-8-5C384.6,140,381.9,167.4,389.3,180z"/>
						</g>
					</g>
					<g>
						<g>
							<g>
								<g>
									<g>
										<g>
											<path class="st0" d="M384.2,203.8L384.2,203.8c-0.2,0-0.3-0.2-0.3-0.4c5.7-45.4,31.9-63.8,32.2-64
												c0.1-0.1,0.3-0.1,0.4,0.1c0.1,0.1,0.1,0.3-0.1,0.4c-0.3,0.2-26.3,18.4-31.9,63.6C384.5,203.7,384.3,203.8,384.2,203.8z"
												/>
										</g>
										<g>
											<path class="st0" d="M420.2,145.7C420.2,145.7,420.2,145.6,420.2,145.7c-6.2-1.3-10.1-0.1-10.1-0.1
												c-0.2,0.1-0.3,0-0.4-0.2s0-0.3,0.2-0.4s4-1.3,10.4,0.1c0.2,0,0.3,0.2,0.2,0.4C420.5,145.5,420.4,145.7,420.2,145.7z"/>
										</g>
										<g>
											<path class="st0" d="M405.1,151.1c-0.2,0-0.3-0.1-0.3-0.3c-0.1-13.7,7.9-24.4,8-24.5s0.3-0.2,0.4-0.1s0.2,0.3,0.1,0.4
												s-7.9,10.6-7.8,24.1C405.5,150.9,405.3,151.1,405.1,151.1L405.1,151.1z"/>
										</g>
										<g>
											<path class="st0" d="M397.3,162.7c-0.1,0-0.2,0-0.2-0.1c-0.1-0.1-0.1-0.3,0-0.4s5.9-5.4,13.6-2.7
												c0.2,0.1,0.2,0.2,0.2,0.4c-0.1,0.2-0.2,0.2-0.4,0.2c-7.3-2.6-12.9,2.5-12.9,2.5C397.5,162.6,397.4,162.7,397.3,162.7z"/>
										</g>
										<g>
											<path class="st0" d="M393.2,170.8c-0.1,0-0.2-0.1-0.3-0.2c0-0.1-3-7.2-1.4-17c0-0.2,0.2-0.3,0.4-0.3
												c0.2,0,0.3,0.2,0.3,0.4c-1.6,9.6,1.3,16.6,1.3,16.7C393.6,170.6,393.5,170.7,393.2,170.8
												C393.3,170.8,393.2,170.8,393.2,170.8z"/>
										</g>
									</g>
								</g>
							</g>
						</g>
					</g>
				</g>
				<g>
					<g>
						<path class="st1" d="M379.7,203.5c0,0,3.1-87,31-117.9c0,0-22.8,54.3-24.8,118.9L379.7,203.5z"/>
					</g>
					<g>
						<g>
							<path class="st2" d="M385.9,205.7c0,0,4.9-93.3-21.4-131c0,0,19.1,62.7,15.1,130.7L385.9,205.7z"/>
						</g>
					</g>
				</g>
				<g>
					<g>
						<g>
							<path class="st2" d="M378.8,183.7c-5.6,0.1-15.1-5.1-18.8-10.1c-3.8-5.1,6.9-1.9,5.8-6c-1.1-4-14.2-1-16.7-6.8
								c-2.4-5.7,7.1-4.4,6.7-7.4c-0.4-2.9-10.2-2.3-13.4-8.4c-3.2-6.1,5.5-2.7,4.1-5.2s-12.2-13.2-7.7-15.4
								c4.5-2.2,14.7,8.9,18.1,10.1s4.2-6.4,8.6-2.8c4.4,3.7,1.1,19.7,6.3,21.8c3.9,1.6,2.2-5.8,6.7-3.9
								C386.4,152.9,381,183.6,378.8,183.7z"/>
						</g>
					</g>
					<g>
						<g>
							<path class="st0" d="M381.3,204.6c-0.2,0-0.3-0.1-0.3-0.3c-1.6-40.1-29-67.5-29.3-67.8c-0.1-0.1-0.1-0.3,0-0.4s0.3-0.1,0.4,0
								c0.3,0.3,27.9,27.8,29.5,68.2C381.6,204.5,381.4,204.6,381.3,204.6L381.3,204.6z"/>
						</g>
						<g>
							<path class="st0" d="M362.9,151.6C362.9,151.6,362.8,151.6,362.9,151.6c-0.1,0-0.1,0-0.2,0l-0.1-0.1
								c-3.6-1.5-7.7-2.3-11.4-2.2c-0.2,0-0.3-0.1-0.3-0.3c0-0.2,0.1-0.3,0.3-0.3c3.8-0.1,7.9,0.7,11.6,2.3l0.1,0.1c0,0,0,0,0.1,0
								c0.1,0.1,0.2,0.2,0.2,0.3C363.2,151.5,363,151.6,362.9,151.6z"/>
						</g>
						<g>
							<path class="st0" d="M366.7,156.8L366.7,156.8c-0.2,0-0.3-0.2-0.3-0.3c1.1-11.9-5-21.7-5.1-21.7c-0.1-0.1-0.1-0.3,0.1-0.4
								c0.1-0.1,0.3-0.1,0.4,0.1c0.1,0.1,6.3,10.1,5.2,22.1C367,156.7,366.9,156.8,366.7,156.8z"/>
						</g>
						<g>
							<path class="st0" d="M370.7,163.6c-0.1,0-0.2,0-0.2-0.1c0,0-4.5-4.5-11.2-2.8c-0.2,0-0.3-0.1-0.4-0.2c0-0.2,0.1-0.3,0.2-0.4
								c7-1.8,11.7,2.9,11.8,2.9c0.1,0.1,0.1,0.3,0,0.4C370.9,163.6,370.8,163.6,370.7,163.6z"/>
						</g>
						<g>
							<path class="st0" d="M375.8,175c-0.1,0-0.1,0-0.1,0c-0.2-0.1-0.2-0.3-0.1-0.4c0-0.1,3.1-6,2.4-14.6c0-0.2,0.1-0.3,0.3-0.3
								c0.2,0,0.3,0.1,0.3,0.3c0.7,8.8-2.5,14.8-2.5,14.9C376,174.9,375.9,175,375.8,175z"/>
						</g>
					</g>
				</g>
			</g>
			<g>
				<path class="st3" d="M361.2,221.4c0,11.2,9.8,20.3,21.8,20.3s21.8-9.1,21.8-20.3c0-6.3-6.9-12-13-15.7h-17.6
					C368.1,209.4,361.2,215.1,361.2,221.4z"/>
			</g>
			<g>
				<path class="st2" d="M369.8,222.7H366c-0.2,0-0.4-0.2-0.4-0.4s0.2-0.4,0.4-0.4h3.8c0.2,0,0.4,0.2,0.4,0.4
					S370.1,222.7,369.8,222.7z"/>
			</g>
			<g>
				<path class="st2" d="M400.3,222.7H374c-0.2,0-0.4-0.2-0.4-0.4s0.2-0.4,0.4-0.4h26.3c0.2,0,0.4,0.2,0.4,0.4
					S400.5,222.7,400.3,222.7z"/>
			</g>
		</g>
	</g>
	<g>
		<g>
			<g>
				<rect x="23.9" y="0.4" class="st4" width="323.7" height="241.7"/>
				<path class="st0" d="M347.5,242.5H23.9c-0.2,0-0.4-0.2-0.4-0.4V0.4c0-0.2,0.2-0.4,0.4-0.4h323.7c0.2,0,0.4,0.2,0.4,0.4v241.7
					C347.9,242.3,347.8,242.5,347.5,242.5z M24.3,241.7h322.8V0.8H24.3V241.7z"/>
			</g>
		</g>
	</g>
	<g>
		<g>
			<g>
				<g>
					<path class="st0" d="M79,30.2c-0.1,0-0.1,0-0.2-0.1l-5.4-3.3c-0.1-0.1-0.2-0.2-0.2-0.3s0.1-0.3,0.2-0.4l5.2-3.6
						c0.2-0.1,0.5-0.1,0.6,0.1c0.1,0.2,0.1,0.5-0.1,0.6l-4.7,3.2l4.9,2.9c0.2,0.1,0.3,0.4,0.1,0.6C79.3,30.1,79.2,30.2,79,30.2z"/>
				</g>
				<g>
					<path class="st0" d="M81.6,26.9h-8c-0.2,0-0.4-0.2-0.4-0.4s0.2-0.4,0.4-0.4h8c0.2,0,0.4,0.2,0.4,0.4S81.8,26.9,81.6,26.9z"/>
				</g>
				<g>
					<g>
						<path class="st0" d="M94.5,30.2c-0.1,0-0.3-0.1-0.3-0.2c-0.1-0.2-0.1-0.5,0.1-0.6l4.7-3.2l-4.9-2.9c-0.2-0.1-0.3-0.4-0.1-0.6
							c0.1-0.2,0.4-0.3,0.6-0.1l5.4,3.3c0.1,0.1,0.2,0.2,0.2,0.3s-0.1,0.3-0.2,0.4l-5.2,3.6C94.7,30.2,94.6,30.2,94.5,30.2z"/>
					</g>
					<g>
						<path class="st0" d="M99.7,26.6h-8c-0.2,0-0.4-0.2-0.4-0.4s0.2-0.4,0.4-0.4h8c0.2,0,0.4,0.2,0.4,0.4S99.9,26.6,99.7,26.6z"/>
					</g>
				</g>
			</g>
			<g>
				<g>
					<path class="st0" d="M114.6,31.9c-2.7,0-4.9-2.2-4.9-4.9s2.2-4.9,4.9-4.9s4.9,2.2,4.9,4.9c0,0.2-0.2,0.4-0.4,0.4
						s-0.4-0.2-0.4-0.4c0-2.2-1.8-4-4-4s-4,1.8-4,4s1.8,4,4,4c0.2,0,0.4,0.2,0.4,0.4S114.8,31.9,114.6,31.9z"/>
				</g>
				<g>
					<path class="st0" d="M119.1,27.5H119l-2.8-0.8c-0.2-0.1-0.4-0.3-0.3-0.5c0.1-0.2,0.3-0.4,0.5-0.3l2.4,0.7l1-1.8
						c0.1-0.2,0.4-0.3,0.6-0.2c0.2,0.1,0.3,0.4,0.2,0.6l-1.2,2.1C119.4,27.5,119.2,27.5,119.1,27.5z"/>
				</g>
			</g>
			<g>
				<g>
					<path class="st0" d="M254.2,29.8c-1,0-1.9-0.4-2.7-1.1c-0.7-0.7-1.1-1.7-1.1-2.7s0.4-1.9,1.1-2.7c0.7-0.7,1.7-1.1,2.7-1.1
						s1.9,0.4,2.7,1.1C257.6,24,258,25,258,26s-0.4,1.9-1.1,2.7C256.1,29.4,255.2,29.8,254.2,29.8z M254.2,23.1
						c-0.8,0-1.5,0.3-2.1,0.9c-0.6,0.6-0.9,1.3-0.9,2.1s0.3,1.5,0.9,2.1c1.1,1.1,3,1.1,4.1,0l0,0c0.6-0.5,0.9-1.3,0.9-2.1
						s-0.3-1.5-0.9-2.1C255.7,23.4,255,23.1,254.2,23.1z"/>
				</g>
				<g>
					<path class="st0" d="M259.7,31.9c-0.1,0-0.2,0-0.3-0.1l-3.1-3.1c-0.2-0.2-0.2-0.4,0-0.6c0.2-0.2,0.4-0.2,0.6,0l3.1,3.1
						c0.2,0.2,0.2,0.4,0,0.6C259.9,31.9,259.8,31.9,259.7,31.9z"/>
				</g>
			</g>
			<g>
				<path class="st0" d="M235.9,31.9h-98.6c-3.1,0-5.5-2.5-5.5-5.5s2.5-5.5,5.5-5.5h98.6c3.1,0,5.5,2.5,5.5,5.5
					S238.9,31.9,235.9,31.9z M137.2,21.7c-2.6,0-4.7,2.1-4.7,4.7s2.1,4.7,4.7,4.7h98.6c2.6,0,4.7-2.1,4.7-4.7s-2.1-4.7-4.7-4.7
					H137.2z"/>
			</g>
		</g>
		<g>
			<rect x="23.9" y="0.4" class="st0" width="323.7" height="13.6"/>
		</g>
		<g>
			<g>
				<path class="st4" d="M39.8,7.1c0,2.2-1.8,4.1-4.1,4.1c-2.2,0-4.1-1.8-4.1-4.1c0-2.2,1.8-4.1,4.1-4.1S39.8,4.8,39.8,7.1z"/>
			</g>
			<g>
				<path class="st4" d="M52.3,7.1c0,2.2-1.8,4.1-4.1,4.1c-2.2,0-4.1-1.8-4.1-4.1c0-2.2,1.8-4.1,4.1-4.1C50.5,3,52.3,4.8,52.3,7.1z"
					/>
			</g>
			<g>
				<path class="st4" d="M64.8,7.1c0,2.2-1.8,4.1-4.1,4.1c-2.2,0-4.1-1.8-4.1-4.1c0-2.2,1.8-4.1,4.1-4.1S64.8,4.8,64.8,7.1z"/>
			</g>
		</g>
	</g>
	<g>
		<g>
			<g>
				<rect x="151.7" y="200.6" class="st5" width="71.8" height="28"/>
				<path class="st0" d="M223.9,229.1h-72.6v-28.9H224L223.9,229.1L223.9,229.1z M152.1,228.3h71v-27.2h-71V228.3z"/>
			</g>
			<g>
				<g>
					<path class="st4" d="M167,219.4v-8.6h1v7.7h2.4v0.9H167z"/>
				</g>
				<g>
					<path class="st4" d="M171.1,213c0-1.3,0.6-2.2,2-2.2c1.3,0,2,0.8,2,2.2v4.4c0,1.3-0.6,2.2-2,2.2c-1.3,0-2-0.9-2-2.2V213z
						 M172,217.4c0,0.8,0.3,1.2,1,1.2s1-0.5,1-1.2v-4.5c0-0.8-0.3-1.2-1-1.2s-1,0.5-1,1.2V217.4z"/>
				</g>
				<g>
					<path class="st4" d="M176.8,217.7l-0.3,1.7h-0.9l1.6-8.6h1.4l1.6,8.6h-1l-0.3-1.7H176.8z M177,216.9h1.9l-1-4.9L177,216.9z"/>
				</g>
				<g>
					<path class="st4" d="M183,210.9c1.3,0,1.9,0.8,1.9,2.1v4.3c0,1.3-0.6,2.1-1.9,2.1h-2v-8.6h2V210.9z M183,218.6
						c0.7,0,1-0.4,1-1.2V213c0-0.8-0.3-1.2-1-1.2h-1v6.8L183,218.6L183,218.6z"/>
				</g>
				<g>
					<path class="st4" d="M190.9,219.4H190l-1.4-6.8v6.8h-0.8v-8.6h1.3l1.4,6.8l1.4-6.8h1.3v8.6h-0.9v-6.9L190.9,219.4z"/>
				</g>
				<g>
					<path class="st4" d="M194.1,213c0-1.3,0.6-2.2,2-2.2c1.3,0,2,0.8,2,2.2v4.4c0,1.3-0.6,2.2-2,2.2c-1.3,0-2-0.9-2-2.2V213z
						 M195,217.4c0,0.8,0.3,1.2,1,1.2s1-0.5,1-1.2v-4.5c0-0.8-0.3-1.2-1-1.2s-1,0.5-1,1.2V217.4z"/>
				</g>
				<g>
					<path class="st4" d="M200.8,210.9c1.3,0,1.9,0.7,1.9,2v0.7c0,0.9-0.3,1.5-1.1,1.8c0.8,0.2,1.1,0.9,1.1,1.8v1.3
						c0,0.4,0,0.7,0.2,1h-1c-0.1-0.2-0.2-0.5-0.2-1v-1.4c0-1-0.5-1.3-1.2-1.3h-0.7v3.7h-1v-8.6L200.8,210.9L200.8,210.9z
						 M200.6,214.9c0.8,0,1.2-0.2,1.2-1.2v-0.8c0-0.8-0.3-1.2-1-1.2h-0.9v3.2H200.6z"/>
				</g>
				<g>
					<path class="st4" d="M206.8,214.7v0.9h-2.1v3h2.6v0.9h-3.5v-8.6h3.5v0.9h-2.6v2.9L206.8,214.7L206.8,214.7z"/>
				</g>
			</g>
		</g>
	</g>
	<g>
		<rect x="56.7" y="48.8" class="st1" width="71.9" height="41.4"/>
		<path class="st0" d="M129.1,90.5H56.3V48.3h72.8V90.5z M57.2,89.7h71.1V49.2H57.2V89.7z"/>
	</g>
	<g>
		<g>
			<rect x="61.1" y="97" class="st6" width="18.8" height="4.5"/>
		</g>
		<g>
			<rect x="83.3" y="97" class="st6" width="18.8" height="4.5"/>
		</g>
		<g>
			<rect x="105.4" y="97" class="st6" width="18.8" height="4.5"/>
		</g>
	</g>
	<g>
		<g>
			<rect x="66.9" y="105.4" class="st7" width="2.9" height="2.6"/>
		</g>
		<g>
			<rect x="71.4" y="105.4" class="st7" width="10.8" height="2.6"/>
		</g>
		<g>
			<rect x="84.1" y="105.4" class="st7" width="10.8" height="2.6"/>
		</g>
		<g>
			<rect x="113.1" y="105.4" class="st7" width="5.4" height="2.6"/>
		</g>
		<g>
			<rect x="96.8" y="105.4" class="st7" width="14.7" height="2.6"/>
		</g>
	</g>
	<g>
		<g>
			<rect x="105.1" y="109.7" class="st7" width="10.8" height="2.6"/>
		</g>
		<g>
			<rect x="92.4" y="109.7" class="st7" width="10.8" height="2.6"/>
		</g>
		<g>
			<rect x="68.8" y="109.7" class="st7" width="5.4" height="2.6"/>
		</g>
		<g>
			<rect x="75.8" y="109.7" class="st7" width="14.7" height="2.6"/>
		</g>
	</g>
	<g>
		<g>
			<g>
				<path class="st4" d="M59.3,90.1l15-15.3c4.6-4.4,11.5-5.3,17.1-2.3l32,17.6L59.3,90.1z"/>
				<path class="st0" d="M123.4,90.6L123.4,90.6H59.3c-0.2,0-0.3-0.1-0.4-0.3c-0.1-0.2,0-0.3,0.1-0.5l15-15.3
					c4.8-4.6,11.8-5.5,17.6-2.3l32,17.6c0.2,0.1,0.3,0.3,0.2,0.5C123.8,90.4,123.6,90.6,123.4,90.6z M60.3,89.7h61.4L91.3,72.9
					c-5.4-3-12.1-2.1-16.6,2.2L60.3,89.7z"/>
			</g>
		</g>
		<g>
			<g>
				<path class="st4" d="M98.2,87.4c0.8,1.1,1.3,1.7,1.3,1.7"/>
				<path class="st0" d="M99.6,89.5c-0.1,0-0.3-0.1-0.3-0.2L98,87.6c-0.1-0.2-0.1-0.4,0.1-0.6c0.2-0.1,0.4-0.1,0.6,0.1l1.3,1.7
					c0.1,0.2,0.1,0.4-0.1,0.6C99.7,89.5,99.6,89.5,99.6,89.5z"/>
			</g>
			<g>
				<path class="st4" d="M83.2,71.9c1.1-0.1,2.3,0.2,3.9,1.5c1.1,0.9,6.4,7.7,9.7,12.1"/>
				<path class="st0" d="M96.8,85.9c-0.1,0-0.3-0.1-0.3-0.2c-5.3-7-8.9-11.4-9.7-12c-1.4-1.1-2.5-1.6-3.6-1.4
					c-0.2,0-0.4-0.1-0.5-0.4c0-0.2,0.1-0.4,0.4-0.5c1.4-0.2,2.7,0.3,4.2,1.6c1.1,0.9,5.9,7.1,9.8,12.1c0.1,0.2,0.1,0.4-0.1,0.6
					C97,85.9,96.9,85.9,96.8,85.9z"/>
			</g>
		</g>
		<g>
			<path class="st4" d="M111,60.6c0,3-2.4,5.4-5.4,5.4s-5.4-2.4-5.4-5.4s2.4-5.4,5.4-5.4C108.5,55.1,111,57.6,111,60.6z"/>
		</g>
	</g>
	<g>
		<rect x="151.1" y="125.1" class="st1" width="71.9" height="41.4"/>
		<path class="st0" d="M223.4,166.9h-72.8v-42.2h72.8V166.9z M151.5,166.1h71.1v-40.5h-71.1L151.5,166.1L151.5,166.1z"/>
	</g>
	<g>
		<g>
			<rect x="155.5" y="173.4" class="st6" width="18.8" height="4.5"/>
		</g>
		<g>
			<rect x="177.6" y="173.4" class="st6" width="18.8" height="4.5"/>
		</g>
		<g>
			<rect x="199.7" y="173.4" class="st6" width="18.8" height="4.5"/>
		</g>
	</g>
	<g>
		<g>
			<rect x="161.2" y="181.7" class="st7" width="2.9" height="2.6"/>
		</g>
		<g>
			<rect x="165.8" y="181.7" class="st7" width="10.8" height="2.6"/>
		</g>
		<g>
			<rect x="178.5" y="181.7" class="st7" width="10.8" height="2.6"/>
		</g>
		<g>
			<rect x="207.4" y="181.7" class="st7" width="5.4" height="2.6"/>
		</g>
		<g>
			<rect x="191.2" y="181.7" class="st7" width="14.7" height="2.6"/>
		</g>
	</g>
	<g>
		<g>
			<rect x="199.4" y="186.1" class="st7" width="10.8" height="2.6"/>
		</g>
		<g>
			<rect x="186.8" y="186.1" class="st7" width="10.8" height="2.6"/>
		</g>
		<g>
			<rect x="163.3" y="186.1" class="st7" width="5.4" height="2.6"/>
		</g>
		<g>
			<rect x="170.2" y="186.1" class="st7" width="14.7" height="2.6"/>
		</g>
	</g>
	<g>
		<g>
			<g>
				<polygon class="st4" points="177.5,144.3 189.5,166.4 206,166.4 				"/>
				<path class="st0" d="M206,166.8h-16.5c-0.2,0-0.3-0.1-0.4-0.2l-12-22.1c-0.1-0.2-0.1-0.4,0.1-0.5c0.2-0.1,0.4-0.1,0.5,0
					l28.6,22.1c0.1,0.1,0.2,0.3,0.1,0.5C206.3,166.7,206.2,166.8,206,166.8z M189.7,166h15l-26-20.1L189.7,166z"/>
			</g>
			<g>
				<polygon class="st4" points="154.5,166.4 177.5,144.3 189.5,166.4 				"/>
				<path class="st0" d="M189.5,166.8h-35c-0.2,0-0.3-0.1-0.4-0.3c-0.1-0.2,0-0.3,0.1-0.5l23-22.1c0.1-0.1,0.2-0.1,0.4-0.1
					c0.1,0,0.2,0.1,0.3,0.2l12,22.1c0.1,0.1,0.1,0.3,0,0.4C189.8,166.7,189.6,166.8,189.5,166.8z M155.5,166h33.2l-11.4-21
					L155.5,166z"/>
			</g>
		</g>
		<g>
			<path class="st0" d="M179,160.2h-2.6c-0.2,0-0.4-0.2-0.4-0.4s0.2-0.4,0.4-0.4h2.6c0.2,0,0.4,0.2,0.4,0.4S179.3,160.2,179,160.2z"
				/>
		</g>
		<g>
			<path class="st0" d="M174.7,160.2h-7.9c-0.2,0-0.4-0.2-0.4-0.4s0.2-0.4,0.4-0.4h7.9c0.2,0,0.4,0.2,0.4,0.4
				S174.9,160.2,174.7,160.2z"/>
		</g>
		<g>
			<path class="st0" d="M195.2,163.1h-2.5c-0.2,0-0.4-0.2-0.4-0.4s0.2-0.4,0.4-0.4h2.5c0.2,0,0.4,0.2,0.4,0.4
				S195.4,163.1,195.2,163.1z"/>
		</g>
		<g>
			<path class="st0" d="M191.5,163.1h-3.7c-0.2,0-0.4-0.2-0.4-0.4s0.2-0.4,0.4-0.4h3.7c0.2,0,0.4,0.2,0.4,0.4
				S191.7,163.1,191.5,163.1z"/>
		</g>
		<g>
			<path class="st0" d="M182.4,153.9h-8.7c-0.2,0-0.4-0.2-0.4-0.4s0.2-0.4,0.4-0.4h8.7c0.2,0,0.4,0.2,0.4,0.4
				S182.7,153.9,182.4,153.9z"/>
		</g>
	</g>
	<g>
		<g>
			<path class="st4" d="M204,137c0,3-2.4,5.4-5.4,5.4s-5.4-2.4-5.4-5.4s2.4-5.4,5.4-5.4C201.5,131.5,204,134,204,137z"/>
		</g>
	</g>
	<g>
		<rect x="245.2" y="48.8" class="st2" width="71.9" height="41.4"/>
		<path class="st0" d="M317.6,90.5h-72.8V48.3h72.8V90.5z M245.6,89.7h71.1V49.2h-71.1V89.7z"/>
	</g>
	<g>
		<g>
			<rect x="249.6" y="97" class="st6" width="18.8" height="4.5"/>
		</g>
		<g>
			<rect x="271.7" y="97" class="st6" width="18.8" height="4.5"/>
		</g>
		<g>
			<rect x="293.9" y="97" class="st6" width="18.8" height="4.5"/>
		</g>
	</g>
	<g>
		<g>
			<rect x="255.3" y="105.4" class="st7" width="2.9" height="2.6"/>
		</g>
		<g>
			<rect x="259.9" y="105.4" class="st7" width="10.8" height="2.6"/>
		</g>
		<g>
			<rect x="272.6" y="105.4" class="st7" width="10.8" height="2.6"/>
		</g>
		<g>
			<rect x="301.5" y="105.4" class="st7" width="5.4" height="2.6"/>
		</g>
		<g>
			<rect x="285.3" y="105.4" class="st7" width="14.7" height="2.6"/>
		</g>
	</g>
	<g>
		<g>
			<rect x="293.6" y="109.7" class="st7" width="10.8" height="2.6"/>
		</g>
		<g>
			<rect x="281" y="109.7" class="st7" width="10.8" height="2.6"/>
		</g>
		<g>
			<rect x="257.3" y="109.7" class="st7" width="5.4" height="2.6"/>
		</g>
		<g>
			<rect x="264.3" y="109.7" class="st7" width="14.7" height="2.6"/>
		</g>
	</g>
	<g>
		<g>
			<path class="st4" d="M307,60.6c0,3-2.4,5.4-5.4,5.4s-5.4-2.4-5.4-5.4s2.4-5.4,5.4-5.4C304.5,55.1,307,57.6,307,60.6z"/>
		</g>
	</g>
	<g>
		<g>
			<polygon class="st4" points="255.5,90.2 278.5,68.1 307,90.2 			"/>
			<path class="st0" d="M307,90.7h-51.5c-0.2,0-0.3-0.1-0.4-0.3c-0.1-0.2,0-0.3,0.1-0.5l23-22.1c0.2-0.1,0.4-0.2,0.5,0l28.5,22.1
				c0.1,0.1,0.2,0.3,0.1,0.5C307.4,90.5,307.2,90.7,307,90.7z M256.6,89.8h49.2l-27.3-21.1L256.6,89.8z"/>
		</g>
		<g>
			<polygon class="st4" points="270.6,75.7 280.1,72.3 288.3,75.7 278.5,68.1 			"/>
			<path class="st0" d="M288.3,76.1c-0.1,0-0.1,0-0.2,0l-8.1-3.4l-9.3,3.4c-0.2,0.1-0.4,0-0.5-0.2s-0.1-0.4,0.1-0.5l7.9-7.6
				c0.2-0.1,0.4-0.2,0.5,0l9.8,7.6c0.2,0.1,0.2,0.4,0.1,0.5C288.6,76.1,288.5,76.1,288.3,76.1z M278.5,68.7l-6.2,6l7.6-2.8
				c0.1,0,0.2,0,0.3,0l5.3,2.2L278.5,68.7z"/>
		</g>
		<g>
			<line class="st8" x1="283.8" y1="79.2" x2="288.3" y2="87.2"/>
			<path class="st0" d="M288.3,87.6c-0.1,0-0.3-0.1-0.4-0.2l-4.6-8.1c-0.1-0.2,0-0.5,0.2-0.6s0.5,0,0.6,0.2l4.6,8.1
				c0.1,0.2,0,0.5-0.2,0.6C288.5,87.6,288.4,87.6,288.3,87.6z"/>
		</g>
		<g>
			<line class="st8" x1="281.5" y1="75.1" x2="282.7" y2="77.4"/>
			<path class="st0" d="M282.7,77.8c-0.1,0-0.3-0.1-0.4-0.2l-1.3-2.2c-0.1-0.2,0-0.5,0.2-0.6s0.5,0,0.6,0.2l1.3,2.2
				c0.1,0.2,0,0.5-0.2,0.6C282.9,77.8,282.8,77.8,282.7,77.8z"/>
		</g>
		<g>
			<line class="st8" x1="276.2" y1="76.2" x2="271.8" y2="84.7"/>
			<path class="st0" d="M271.8,85.2c-0.1,0-0.1,0-0.2,0c-0.2-0.1-0.3-0.4-0.2-0.6l4.4-8.5c0.1-0.2,0.4-0.3,0.6-0.2
				c0.2,0.1,0.3,0.4,0.2,0.6l-4.4,8.5C272.1,85.1,271.9,85.2,271.8,85.2z"/>
		</g>
	</g>
	<g>
		<rect x="245.2" y="125.9" class="st5" width="71.9" height="41.4"/>
		<path class="st0" d="M317.6,167.7h-72.8v-42.2h72.8V167.7z M245.6,166.8h71.1v-40.5h-71.1V166.8z"/>
	</g>
	<g>
		<g>
			<rect x="249.6" y="174.1" class="st6" width="18.8" height="4.5"/>
		</g>
		<g>
			<rect x="271.7" y="174.1" class="st6" width="18.8" height="4.5"/>
		</g>
		<g>
			<rect x="293.9" y="174.1" class="st6" width="18.8" height="4.5"/>
		</g>
	</g>
	<g>
		<g>
			<rect x="255.3" y="182.5" class="st7" width="2.9" height="2.6"/>
		</g>
		<g>
			<rect x="259.9" y="182.5" class="st7" width="10.8" height="2.6"/>
		</g>
		<g>
			<rect x="272.6" y="182.5" class="st7" width="10.8" height="2.6"/>
		</g>
		<g>
			<rect x="301.5" y="182.5" class="st7" width="5.4" height="2.6"/>
		</g>
		<g>
			<rect x="285.3" y="182.5" class="st7" width="14.7" height="2.6"/>
		</g>
	</g>
	<g>
		<g>
			<rect x="293.6" y="186.8" class="st7" width="10.8" height="2.6"/>
		</g>
		<g>
			<rect x="281" y="186.8" class="st7" width="10.8" height="2.6"/>
		</g>
		<g>
			<rect x="257.3" y="186.8" class="st7" width="5.4" height="2.6"/>
		</g>
		<g>
			<rect x="264.3" y="186.8" class="st7" width="14.7" height="2.6"/>
		</g>
	</g>
	<g>
		<g>
			<path class="st4" d="M286.7,137.7c0,3-2.4,5.4-5.4,5.4s-5.4-2.4-5.4-5.4s2.4-5.4,5.4-5.4S286.7,134.7,286.7,137.7z"/>
		</g>
	</g>
	<g>
		<g>
			<path class="st4" d="M307.6,167.2h-51.5l8.9-9.9c2.3-2.5,5.5-3.9,8.9-3.9h13.7c2.9,0,5.8,1.1,8,3L307.6,167.2z"/>
			<path class="st0" d="M307.6,167.7h-51.5c-0.2,0-0.3-0.1-0.4-0.2s0-0.3,0.1-0.5l8.9-9.9c2.3-2.6,5.7-4.1,9.2-4.1h13.7
				c3,0,6,1.1,8.2,3.1l12.1,10.8c0.1,0.1,0.2,0.3,0.1,0.5C308,167.6,307.8,167.7,307.6,167.7z M257.1,166.8h49.5l-11.3-10
				c-2.1-1.9-4.8-2.9-7.7-2.9h-13.7c-3.3,0-6.4,1.4-8.6,3.8L257.1,166.8z"/>
		</g>
		<g>
			<g>
				<path class="st0" d="M271.5,165.4c-0.1,0-0.1,0-0.2-0.1c-0.2-0.1-0.3-0.4-0.2-0.6l3.1-5.5c0.1-0.2,0.4-0.3,0.6-0.2
					c0.2,0.1,0.3,0.4,0.2,0.6l-3.1,5.5C271.8,165.3,271.6,165.4,271.5,165.4z"/>
			</g>
			<g>
				<path class="st0" d="M275.7,158c-0.1,0-0.1,0-0.2-0.1c-0.2-0.1-0.3-0.4-0.2-0.6l1.3-2.2c0.1-0.2,0.4-0.3,0.6-0.2
					c0.2,0.1,0.3,0.4,0.2,0.6l-1.3,2.2C275.9,158,275.8,158,275.7,158z"/>
			</g>
			<g>
				<path class="st0" d="M288.2,161.9c-0.2,0-0.3-0.1-0.4-0.2l-3.2-6.1c-0.1-0.2,0-0.5,0.2-0.6s0.5,0,0.6,0.2l3.2,6.1
					c0.1,0.2,0,0.5-0.2,0.6C288.3,161.9,288.2,161.9,288.2,161.9z"/>
			</g>
		</g>
	</g>
	<g>
		<rect x="151.1" y="48.8" class="st5" width="71.9" height="41.4"/>
		<path class="st0" d="M223.4,90.5h-72.8V48.3h72.8V90.5z M151.5,89.7h71.1V49.2h-71.1L151.5,89.7L151.5,89.7z"/>
	</g>
	<g>
		<g>
			<rect x="155.5" y="97" class="st6" width="18.8" height="4.5"/>
		</g>
		<g>
			<rect x="177.6" y="97" class="st6" width="18.8" height="4.5"/>
		</g>
		<g>
			<rect x="199.7" y="97" class="st6" width="18.8" height="4.5"/>
		</g>
	</g>
	<g>
		<g>
			<rect x="161.2" y="105.4" class="st7" width="2.9" height="2.6"/>
		</g>
		<g>
			<rect x="165.8" y="105.4" class="st7" width="10.8" height="2.6"/>
		</g>
		<g>
			<rect x="178.5" y="105.4" class="st7" width="10.8" height="2.6"/>
		</g>
		<g>
			<rect x="207.4" y="105.4" class="st7" width="5.4" height="2.6"/>
		</g>
		<g>
			<rect x="191.2" y="105.4" class="st7" width="14.7" height="2.6"/>
		</g>
	</g>
	<g>
		<g>
			<rect x="199.4" y="109.7" class="st7" width="10.8" height="2.6"/>
		</g>
		<g>
			<rect x="186.8" y="109.7" class="st7" width="10.8" height="2.6"/>
		</g>
		<g>
			<rect x="163.3" y="109.7" class="st7" width="5.4" height="2.6"/>
		</g>
		<g>
			<rect x="170.2" y="109.7" class="st7" width="14.7" height="2.6"/>
		</g>
	</g>
	<g>
		<g>
			<g>
				<g>
					<polygon class="st4" points="151.1,90.2 174.7,67.5 187,90.2 					"/>
					<path class="st0" d="M187,90.6h-35.9c-0.2,0-0.3-0.1-0.4-0.3c-0.1-0.2,0-0.3,0.1-0.5l23.6-22.7c0.1-0.1,0.2-0.1,0.4-0.1
						c0.1,0,0.2,0.1,0.3,0.2l12.3,22.7c0.1,0.1,0.1,0.3,0,0.4C187.3,90.5,187.2,90.6,187,90.6z M152.1,89.8h34.2l-11.7-21.6
						L152.1,89.8z"/>
				</g>
				<g>
					<polygon class="st4" points="176.3,90.2 207,60.7 223,90.2 					"/>
					<path class="st0" d="M223,90.6h-46.7c-0.2,0-0.3-0.1-0.4-0.3c-0.1-0.2,0-0.3,0.1-0.5l30.7-29.5c0.1-0.1,0.2-0.1,0.4-0.1
						c0.1,0,0.2,0.1,0.3,0.2l16,29.5c0.1,0.1,0.1,0.3,0,0.4C223.3,90.5,223.2,90.6,223,90.6z M177.4,89.8h44.9l-15.4-28.4
						L177.4,89.8z"/>
				</g>
			</g>
			<g>
				<path class="st4" d="M192.6,61c0,3-2.4,5.4-5.4,5.4s-5.4-2.4-5.4-5.4s2.4-5.4,5.4-5.4C190.2,55.5,192.6,58,192.6,61z"/>
			</g>
		</g>
		<g>
			<line class="st8" x1="202.8" y1="69.5" x2="204.9" y2="67.5"/>
			<path class="st0" d="M202.8,69.9c-0.1,0-0.2,0-0.3-0.1c-0.2-0.2-0.2-0.4,0-0.6l2-2c0.2-0.2,0.4-0.2,0.6,0c0.2,0.2,0.2,0.4,0,0.6
				l-2,2C203,69.9,202.9,69.9,202.8,69.9z"/>
		</g>
		<g>
			<line class="st8" x1="187" y1="85.1" x2="200.8" y2="71.5"/>
			<path class="st0" d="M187,85.5c-0.1,0-0.2,0-0.3-0.1c-0.2-0.2-0.2-0.4,0-0.6l13.7-13.6c0.2-0.2,0.4-0.2,0.6,0
				c0.2,0.2,0.2,0.4,0,0.6l-13.7,13.6C187.2,85.5,187.1,85.5,187,85.5z"/>
		</g>
		<g>
			<line class="st8" x1="172.1" y1="73.6" x2="173.5" y2="72.3"/>
			<path class="st0" d="M172.1,74.1c-0.1,0-0.2,0-0.3-0.1c-0.2-0.2-0.2-0.4,0-0.6l1.4-1.3c0.2-0.2,0.4-0.2,0.6,0
				c0.2,0.2,0.2,0.4,0,0.6l-1.4,1.3C172.3,74,172.2,74.1,172.1,74.1z"/>
		</g>
		<g>
			<line class="st8" x1="162.7" y1="82.6" x2="170.7" y2="75"/>
			<path class="st0" d="M162.7,83.1c-0.1,0-0.2,0-0.3-0.1c-0.2-0.2-0.2-0.4,0-0.6l8-7.7c0.2-0.2,0.4-0.2,0.6,0
				c0.2,0.2,0.2,0.4,0,0.6l-8,7.7C162.9,83,162.8,83.1,162.7,83.1z"/>
		</g>
	</g>
	<g>
		<rect x="56.9" y="125.9" class="st2" width="71.9" height="41.4"/>
		<path class="st0" d="M129.2,167.7H56.5v-42.2h72.8v42.2H129.2z M57.3,166.8h71.1v-40.5H57.3V166.8z"/>
	</g>
	<g>
		<g>
			<rect x="61.3" y="174.1" class="st6" width="18.8" height="4.5"/>
		</g>
		<g>
			<rect x="83.4" y="174.1" class="st6" width="18.8" height="4.5"/>
		</g>
		<g>
			<rect x="105.5" y="174.1" class="st6" width="18.8" height="4.5"/>
		</g>
	</g>
	<g>
		<g>
			<rect x="67" y="182.5" class="st7" width="2.9" height="2.6"/>
		</g>
		<g>
			<rect x="71.6" y="182.5" class="st7" width="10.8" height="2.6"/>
		</g>
		<g>
			<rect x="84.2" y="182.5" class="st7" width="10.8" height="2.6"/>
		</g>
		<g>
			<rect x="113.2" y="182.5" class="st7" width="5.4" height="2.6"/>
		</g>
		<g>
			<rect x="97" y="182.5" class="st7" width="14.7" height="2.6"/>
		</g>
	</g>
	<g>
		<g>
			<rect x="105.2" y="186.8" class="st7" width="10.8" height="2.6"/>
		</g>
		<g>
			<rect x="92.6" y="186.8" class="st7" width="10.8" height="2.6"/>
		</g>
		<g>
			<rect x="69" y="186.8" class="st7" width="5.4" height="2.6"/>
		</g>
		<g>
			<rect x="75.9" y="186.8" class="st7" width="14.7" height="2.6"/>
		</g>
	</g>
	<g>
		<g>
			<path class="st4" d="M98.4,137.7c0,3-2.4,5.4-5.4,5.4s-5.4-2.4-5.4-5.4s2.4-5.4,5.4-5.4S98.4,134.7,98.4,137.7z"/>
		</g>
	</g>
	<g>
		<g>
			<polygon class="st4" points="87.5,167.2 97.5,149.5 107.9,167.2 			"/>
			<path class="st0" d="M107.9,167.6H87.5c-0.1,0-0.3-0.1-0.4-0.2c-0.1-0.1-0.1-0.3,0-0.4l10.1-17.7c0.1-0.1,0.2-0.2,0.4-0.2
				c0.1,0,0.3,0.1,0.4,0.2l10.4,17.7c0.1,0.1,0.1,0.3,0,0.4C108.2,167.5,108.1,167.6,107.9,167.6z M88.2,166.8h19l-9.6-16.4
				L88.2,166.8z"/>
		</g>
		<g>
			<polygon class="st4" points="90.3,167.2 97.6,154.5 105,167.1 			"/>
			<path class="st0" d="M90.3,167.7c-0.1,0-0.3-0.1-0.4-0.2c-0.1-0.1-0.1-0.3,0-0.4l7.2-12.7c0.1-0.1,0.2-0.2,0.4-0.2
				c0.2,0,0.3,0.1,0.4,0.2l7.4,12.6c0.1,0.1,0.1,0.3,0,0.4c-0.1,0.1-0.2,0.2-0.4,0.2L90.3,167.7L90.3,167.7z M97.6,155.4l-6.5,11.5
				l13.2-0.1L97.6,155.4z"/>
		</g>
		<g>
			<line class="st8" x1="97.5" y1="154.5" x2="97.6" y2="167.1"/>
			<path class="st0" d="M97.6,167.6c-0.2,0-0.4-0.2-0.4-0.4l-0.1-12.6c0-0.2,0.2-0.4,0.4-0.4l0,0c0.2,0,0.4,0.2,0.4,0.4l0.1,12.6
				C98,167.4,97.8,167.6,97.6,167.6L97.6,167.6z"/>
		</g>
		<g>
			<polygon class="st4" points="97.5,149.5 107.9,167.2 129.3,167.1 118.9,149.4 			"/>
			<path class="st0" d="M107.9,167.6c-0.1,0-0.3-0.1-0.4-0.2l-10.4-17.7c-0.1-0.1-0.1-0.3,0-0.4c0.1-0.1,0.2-0.2,0.4-0.2l21.3-0.1
				c0.2,0,0.3,0.1,0.4,0.2l10.4,17.8c0.1,0.1,0.1,0.3,0,0.4s-0.2,0.2-0.4,0.2L107.9,167.6L107.9,167.6z M98.3,149.9l9.9,16.8
				l20.4-0.1l-9.9-16.9L98.3,149.9z"/>
		</g>
		<g>
			<polygon class="st4" points="107.2,154 111.2,161 119.7,160.9 115.6,154 			"/>
			<path class="st0" d="M111.2,161.4c-0.1,0-0.3-0.1-0.4-0.2l-4.1-6.9c-0.1-0.1-0.1-0.3,0-0.4c0.1-0.1,0.2-0.2,0.4-0.2l8.4-0.1
				c0.1,0,0.3,0.1,0.4,0.2l4.1,6.9c0.1,0.1,0.1,0.3,0,0.4s-0.2,0.2-0.4,0.2L111.2,161.4L111.2,161.4z M107.9,154.4l3.6,6.1l7.5-0.1
				l-3.6-6.1L107.9,154.4z"/>
		</g>
	</g>
</g>
</svg>
