<?xml version="1.0" encoding="utf-8"?>
<!-- Generator: Adobe Illustrator 24.3.0, SVG Export Plug-In . SVG Version: 6.00 Build 0)  -->
<svg version="1.1" id="Icons" xmlns="http://www.w3.org/2000/svg" xmlns:xlink="http://www.w3.org/1999/xlink" x="0px" y="0px"
	 width="500px" height="500px" viewBox="0 0 500 500" style="enable-background:new 0 0 500 500;" xml:space="preserve">
<style type="text/css">
	.st0{fill:#222222;}
	.st1{fill:#CECECE;}
	.st2{fill:#C0FFFD;}
	.st3{fill:#CECECE;stroke:#263238;stroke-width:0.75;stroke-miterlimit:10;}
	.st4{fill:#FFFFFF;}
	.st5{fill:#3C7CFF;}
	.st6{fill:#999999;}
	.st7{fill:#BFBFBF;}
	.st8{fill:#263238;}
	.st9{fill:#407BFF;}
	.st10{opacity:0.5;}
	.st11{opacity:0.3;}
	.st12{fill:#7A7A7A;}
	.st13{fill:#92E3A9;}
</style>
<g>
	<g>
		
			<rect x="14.6" y="427.2" transform="matrix(-1 -1.224647e-16 1.224647e-16 -1 494.7185 859.3184)" class="st0" width="465.5" height="4.8"/>
	</g>
	<g>
		<path class="st0" d="M480.1,432.6H14.6c-0.3,0-0.5-0.2-0.5-0.5v-4.8c0-0.3,0.2-0.5,0.5-0.5h465.5c0.3,0,0.5,0.2,0.5,0.5v4.8
			C480.6,432.4,480.4,432.6,480.1,432.6z M15.1,431.6h464.5v-3.8H15.1V431.6z"/>
	</g>
</g>
<g>
	<g>
		<g>
			<g>
				<g>
					<g>
						<g>
							<path class="st1" d="M425.2,388.6c0,0-2.7-78-27.8-105.8c0,0,20.4,48.7,22.3,106.7L425.2,388.6z"/>
						</g>
					</g>
				</g>
				<g>
					<g>
						<g>
							<g>
								<path class="st2" d="M430.4,363.1c0.1,0.2-0.8,1,2.1,1.1c7,0.3,19.3-0.1,24-6.5c6.6-9-8.6-8.3-7.1-13.3
									c1.5-5,17.9-0.9,21.1-8c3.2-7.1-8.7-5.8-8.1-9.4c0.6-3.7,13.1,1.1,17.2-6.4c4.1-7.6-6.8-3.5-5-6.7
									c1.8-3.1,15.7-16.1,10.1-19.1c-5.6-2.9-18.7,10.7-23,12.1c-4.3,1.4-5.3-11.9-10.9-7.5c-5.7,4.5-2,24.6-8.6,27.1
									c-4.9,1.9-2.2-5.4-8.3-5.1C425.5,321.9,422.7,350.2,430.4,363.1z"/>
							</g>
						</g>
					</g>
					<g>
						<g>
							<g>
								<g>
									<g>
										<g>
											<g>
												<path class="st0" d="M425.1,387.7C425.1,387.7,425.1,387.7,425.1,387.7c-0.2,0-0.3-0.2-0.3-0.4
													c5.9-46.8,32.9-65.8,33.2-66c0.1-0.1,0.4-0.1,0.5,0.1c0.1,0.1,0.1,0.4-0.1,0.5c-0.3,0.2-27.1,19-32.9,65.5
													C425.4,387.6,425.3,387.7,425.1,387.7z"/>
											</g>
										</g>
										<g>
											<g>
												<path class="st0" d="M462.3,327.7C462.2,327.7,462.2,327.7,462.3,327.7c-6.4-1.4-10.4-0.1-10.4-0.1
													c-0.2,0.1-0.4,0-0.4-0.2c-0.1-0.2,0-0.4,0.2-0.4c0.2-0.1,4.2-1.3,10.7,0.1c0.2,0,0.3,0.2,0.2,0.4
													C462.6,327.6,462.4,327.7,462.3,327.7z"/>
											</g>
										</g>
										<g>
											<g>
												<path class="st0" d="M446.7,333.3c-0.2,0-0.3-0.1-0.3-0.3c-0.1-14.1,8.1-25.2,8.2-25.3c0.1-0.1,0.3-0.2,0.5-0.1
													c0.1,0.1,0.2,0.3,0.1,0.5c-0.1,0.1-8.2,11-8.1,24.9C447,333.1,446.9,333.3,446.7,333.3
													C446.7,333.3,446.7,333.3,446.7,333.3z"/>
											</g>
										</g>
										<g>
											<g>
												<path class="st0" d="M438.6,345.3c-0.1,0-0.2,0-0.2-0.1c-0.1-0.1-0.1-0.3,0-0.5c0.1-0.1,6.1-5.6,14-2.8
													c0.2,0.1,0.3,0.2,0.2,0.4c-0.1,0.2-0.2,0.3-0.4,0.2c-7.5-2.7-13.3,2.6-13.3,2.6C438.8,345.2,438.7,345.3,438.6,345.3z"
													/>
											</g>
										</g>
										<g>
											<g>
												<path class="st0" d="M434.4,353.6c-0.1,0-0.2-0.1-0.3-0.2c0-0.1-3.1-7.4-1.4-17.5c0-0.2,0.2-0.3,0.4-0.3
													c0.2,0,0.3,0.2,0.3,0.4c-1.6,9.9,1.3,17.1,1.4,17.2c0.1,0.2,0,0.4-0.2,0.4C434.5,353.6,434.4,353.6,434.4,353.6z"/>
											</g>
										</g>
									</g>
								</g>
							</g>
						</g>
					</g>
				</g>
				<g>
					<g>
						<g>
							<path class="st1" d="M420.5,387.3c0,0,3.2-89.7,31.9-121.6c0,0-23.5,55.9-25.6,122.6L420.5,387.3z"/>
						</g>
					</g>
					<g>
						<g>
							<g>
								<path class="st2" d="M426.9,389.6c0,0,5.1-96.2-22-135c0,0,19.6,64.7,15.6,134.8L426.9,389.6z"/>
							</g>
						</g>
					</g>
				</g>
				<g>
					<g>
						<g>
							<g>
								<path class="st2" d="M419.5,366.9c-5.7,0.1-15.6-5.2-19.4-10.4c-3.9-5.3,7.1-2,6-6.1c-1.1-4.1-14.7-1.1-17.2-7
									c-2.5-5.9,7.3-4.6,6.9-7.6c-0.4-3-10.5-2.4-13.8-8.7c-3.3-6.3,5.7-2.8,4.3-5.4c-1.4-2.6-12.6-13.6-7.9-15.9
									c4.7-2.3,15.1,9.1,18.7,10.4c3.5,1.3,4.3-6.6,8.9-2.8c4.6,3.8,1.1,20.3,6.5,22.5c4,1.6,2.3-5.9,6.9-4
									C427.4,335.2,421.8,366.8,419.5,366.9z"/>
							</g>
						</g>
					</g>
					<g>
						<g>
							<g>
								<path class="st0" d="M422.1,388.5c-0.2,0-0.3-0.1-0.3-0.3c-1.6-41.4-29.9-69.6-30.2-69.9c-0.1-0.1-0.1-0.3,0-0.5
									c0.1-0.1,0.3-0.1,0.5,0c0.3,0.3,28.8,28.7,30.4,70.3C422.4,388.4,422.3,388.5,422.1,388.5
									C422.1,388.5,422.1,388.5,422.1,388.5z"/>
							</g>
						</g>
						<g>
							<g>
								<path class="st0" d="M403.1,333.9C403.1,333.9,403.1,333.9,403.1,333.9c-0.1,0-0.1,0-0.2,0l-0.2-0.1
									c-3.7-1.6-7.9-2.4-11.7-2.3c-0.2,0-0.3-0.1-0.3-0.3c0-0.2,0.1-0.3,0.3-0.3c3.9-0.1,8.2,0.8,12,2.4l0.2,0.1c0,0,0,0,0.1,0
									c0.1,0.1,0.2,0.2,0.2,0.3C403.4,333.7,403.3,333.9,403.1,333.9z"/>
							</g>
						</g>
						<g>
							<g>
								<path class="st0" d="M407.1,339.2C407.1,339.2,407.1,339.2,407.1,339.2c-0.2,0-0.3-0.2-0.3-0.4c1.1-12.2-5.2-22.3-5.2-22.4
									c-0.1-0.2-0.1-0.4,0.1-0.4c0.1-0.1,0.4-0.1,0.4,0.1c0.1,0.1,6.5,10.4,5.3,22.8C407.4,339.1,407.3,339.2,407.1,339.2z"/>
							</g>
						</g>
						<g>
							<g>
								<path class="st0" d="M411.2,346.3c-0.1,0-0.2,0-0.2-0.1c0,0-4.7-4.7-11.5-2.9c-0.2,0-0.4-0.1-0.4-0.2c0-0.2,0.1-0.4,0.2-0.4
									c7.2-1.9,12.1,3,12.1,3c0.1,0.1,0.1,0.3,0,0.5C411.4,346.2,411.3,346.3,411.2,346.3z"/>
							</g>
						</g>
						<g>
							<g>
								<path class="st0" d="M416.4,357.9c-0.1,0-0.1,0-0.2,0c-0.2-0.1-0.2-0.3-0.1-0.4c0-0.1,3.2-6.2,2.5-15c0-0.2,0.1-0.3,0.3-0.3
									c0.2,0,0.3,0.1,0.3,0.3c0.7,9-2.5,15.3-2.6,15.4C416.7,357.9,416.6,357.9,416.4,357.9z"/>
							</g>
						</g>
					</g>
				</g>
			</g>
			<g>
				<g>
					<path class="st1" d="M401.4,405.8c0,11.6,10.1,21,22.5,21c12.4,0,22.5-9.4,22.5-21c0-6.5-7.1-12.4-13.4-16.2h-18.2
						C408.5,393.4,401.4,399.3,401.4,405.8z"/>
					<path class="st8" d="M423.8,427.1c-12.6,0-22.8-9.6-22.8-21.3c0-6.7,7.4-12.7,13.6-16.5l0.1-0.1H433l0.1,0.1
						c6.2,3.8,13.6,9.8,13.6,16.5C446.7,417.6,436.4,427.1,423.8,427.1z M414.8,390c-6,3.7-13.1,9.5-13.1,15.8
						c0,11.3,9.9,20.6,22.1,20.6s22.1-9.2,22.1-20.6c0-6.4-7.1-12.1-13.1-15.8H414.8z"/>
				</g>
			</g>
			<g>
				<g>
					<path class="st2" d="M410.3,407.1h-3.9c-0.2,0-0.4-0.2-0.4-0.4s0.2-0.4,0.4-0.4h3.9c0.2,0,0.4,0.2,0.4,0.4
						S410.5,407.1,410.3,407.1z"/>
				</g>
			</g>
			<g>
				<g>
					<path class="st2" d="M441.7,407.1h-27.1c-0.2,0-0.4-0.2-0.4-0.4s0.2-0.4,0.4-0.4h27.1c0.2,0,0.4,0.2,0.4,0.4
						S441.9,407.1,441.7,407.1z"/>
				</g>
			</g>
		</g>
	</g>
</g>
<g>
	<path class="st4" d="M392.9,199.4h-68.2c-11.8,0-21.3,9.6-21.3,21.3v184.4c0,11.8,9.6,21.3,21.3,21.3h68.2
		c11.8,0,21.3-9.6,21.3-21.3V220.7C414.3,208.9,404.7,199.4,392.9,199.4z"/>
	<path class="st0" d="M392.9,426.9h-68.2c-12,0-21.8-9.8-21.8-21.8V220.7c0-12,9.8-21.8,21.8-21.8h68.2c12,0,21.8,9.8,21.8,21.8
		v184.4C414.8,417.1,405,426.9,392.9,426.9z M324.7,199.9c-11.5,0-20.8,9.3-20.8,20.8v184.4c0,11.5,9.3,20.8,20.8,20.8h68.2
		c11.5,0,20.8-9.3,20.8-20.8V220.7c0-11.5-9.3-20.8-20.8-20.8H324.7z"/>
</g>
<g>
	<path class="st5" d="M414.3,210.5v45H303.3v-45c0-6.1,5-11.1,11.1-11.1h88.6C409.3,199.4,414.3,204.4,414.3,210.5z"/>
	<path d="M414.8,256H302.8v-45.5c0-6.4,5.2-11.6,11.6-11.6h88.6c6.4,0,11.6,5.2,11.6,11.6V256z M303.8,255h109.9v-44.5
		c0-5.9-4.8-10.6-10.6-10.6h-88.6c-5.9,0-10.6,4.8-10.6,10.6V255z"/>
</g>
<g>
	<g>
		<path class="st4" d="M334.7,223.6c0,2.2-1.6,3.6-4.3,3.6h-2.3v2.9h-1.9V220h4.1C333.1,220,334.7,221.4,334.7,223.6z M332.8,223.6
			c0-1.3-0.8-2-2.5-2h-2.2v4h2.2C332,225.6,332.8,224.9,332.8,223.6z"/>
	</g>
	<g>
		<path class="st4" d="M340.8,222.3v1.7c-0.2,0-0.3,0-0.4,0c-1.4,0-2.2,0.8-2.2,2.4v3.7h-1.8v-7.7h1.7v1.1
			C338.6,222.7,339.5,222.3,340.8,222.3z"/>
	</g>
	<g>
		<path class="st4" d="M349.5,226.8h-6c0.2,1.1,1.2,1.8,2.5,1.8c0.9,0,1.5-0.3,2.1-0.8l1,1.1c-0.7,0.8-1.8,1.3-3.1,1.3
			c-2.6,0-4.2-1.7-4.2-3.9c0-2.3,1.7-3.9,4-3.9c2.2,0,3.9,1.6,3.9,4C349.5,226.4,349.5,226.7,349.5,226.8z M343.4,225.6h4.4
			c-0.1-1.1-1-1.9-2.2-1.9C344.4,223.8,343.6,224.5,343.4,225.6z"/>
	</g>
	<g>
		<path class="st4" d="M364.1,225.7v4.4h-1.8v-4.2c0-1.4-0.6-2-1.7-2c-1.2,0-2,0.8-2,2.3v3.9h-1.8v-4.2c0-1.4-0.6-2-1.7-2
			c-1.2,0-2,0.8-2,2.3v3.9h-1.8v-7.7h1.7v1c0.6-0.7,1.5-1.1,2.5-1.1c1.1,0,2.1,0.4,2.6,1.3c0.6-0.8,1.7-1.3,2.9-1.3
			C362.8,222.3,364.1,223.4,364.1,225.7z"/>
	</g>
	<g>
		<path class="st4" d="M366.1,220.1c0-0.6,0.5-1.1,1.2-1.1c0.7,0,1.2,0.4,1.2,1c0,0.6-0.5,1.1-1.2,1.1
			C366.6,221.1,366.1,220.7,366.1,220.1z M366.4,222.4h1.8v7.7h-1.8V222.4z"/>
	</g>
	<g>
		<path class="st4" d="M378,222.4v7.7h-1.7v-1c-0.6,0.7-1.5,1.1-2.5,1.1c-2,0-3.3-1.1-3.3-3.4v-4.4h1.8v4.1c0,1.4,0.7,2.1,1.8,2.1
			c1.3,0,2.1-0.8,2.1-2.3v-3.9H378z"/>
	</g>
	<g>
		<path class="st4" d="M393.2,225.7v4.4h-1.8v-4.2c0-1.4-0.6-2-1.7-2c-1.2,0-2,0.8-2,2.3v3.9h-1.8v-4.2c0-1.4-0.6-2-1.7-2
			c-1.2,0-2,0.8-2,2.3v3.9h-1.8v-7.7h1.7v1c0.6-0.7,1.5-1.1,2.5-1.1c1.1,0,2.1,0.4,2.6,1.3c0.6-0.8,1.7-1.3,2.9-1.3
			C391.9,222.3,393.2,223.4,393.2,225.7z"/>
	</g>
</g>
<g>
	<g>
		<path class="st5" d="M383.5,414.4h-49.4c-5.4,0-9.8-4.4-9.8-9.8v-4c0-5.4,4.4-9.8,9.8-9.8h49.4c5.4,0,9.8,4.4,9.8,9.8v4
			C393.3,409.9,388.9,414.4,383.5,414.4z"/>
	</g>
	<g>
		<g>
			<g>
				<path class="st4" d="M340.9,404.3c0,2.2-1.7,3.6-4.4,3.8l-0.4,1.8h-1.6l0.4-1.8c-1.5-0.1-2.9-0.6-3.7-1.2l1.1-2
					c0.9,0.6,1.9,1,3.1,1.1l0.6-2.7c-1.5-0.5-3.2-1.1-3.2-3c0-2.2,1.8-3.6,4.5-3.8l0.4-1.8h1.6l-0.4,1.8c1.1,0.1,2.2,0.4,3,0.9l-1,2
					c-0.7-0.5-1.5-0.7-2.4-0.8l-0.6,2.8C339.3,401.9,340.9,402.5,340.9,404.3z M336.2,401l0.5-2.3c-0.9,0.2-1.4,0.7-1.5,1.3
					C335.3,400.5,335.7,400.8,336.2,401z M338.3,404.8c0-0.5-0.4-0.8-0.9-1l-0.4,2.2C337.8,405.8,338.3,405.4,338.3,404.8z"/>
			</g>
		</g>
	</g>
</g>
<g>
	<g>
		<rect x="329" y="342.3" class="st0" width="57.3" height="2.3"/>
	</g>
</g>
<g>
	<g>
		<rect x="329" y="304.2" class="st0" width="57.3" height="2.3"/>
	</g>
</g>
<g>
	<g>
		<rect x="329" y="267.6" class="st0" width="57.3" height="2.3"/>
	</g>
</g>
<g>
	<g>
		<ellipse transform="matrix(0.7071 -0.7071 0.7071 0.7071 -98.3226 336.5943)" class="st9" cx="357.1" cy="287" rx="10" ry="10"/>
	</g>
	<g>
		<g>
			<polygon class="st4" points="364.3,284.8 358.5,290.6 355.9,293.2 353.2,290.6 355.9,287.9 361.6,282.2 			"/>
		</g>
		<g>
			<polygon class="st4" points="358.5,290.6 355.9,293.2 350.2,287.6 352.9,284.9 355.9,287.9 			"/>
		</g>
	</g>
</g>
<g>
	<g>
		<circle class="st9" cx="357.1" cy="323.7" r="10"/>
	</g>
	<g>
		<g>
			<polygon class="st4" points="364.3,321.6 358.5,327.3 355.9,330 353.2,327.3 355.9,324.6 361.6,318.9 			"/>
		</g>
		<g>
			<polygon class="st4" points="358.5,327.3 355.9,330 350.2,324.3 352.9,321.6 355.9,324.6 			"/>
		</g>
	</g>
</g>
<g>
	<g>
		<circle class="st9" cx="357.1" cy="363.1" r="10"/>
	</g>
	<g>
		<g>
			<polygon class="st4" points="364.3,361 358.5,366.7 355.9,369.4 353.2,366.7 355.9,364 361.6,358.3 			"/>
		</g>
		<g>
			<polygon class="st4" points="358.5,366.7 355.9,369.4 350.2,363.7 352.9,361 355.9,364 			"/>
		</g>
	</g>
</g>
<g>
	<g>
		<polygon class="st4" points="344.1,239.6 345.9,242.6 349.4,243.4 347.1,246.1 347.3,249.6 344.1,248.3 340.8,249.6 341.1,246.1 
			338.8,243.4 342.2,242.6 		"/>
	</g>
	<g>
		<polygon class="st4" points="357.1,239.6 359,242.6 362.4,243.4 360.2,246.1 360.4,249.6 357.1,248.3 353.9,249.6 354.1,246.1 
			351.9,243.4 355.3,242.6 		"/>
	</g>
	<g>
		<polygon class="st4" points="370.2,239.6 372.1,242.6 375.5,243.4 373.2,246.1 373.5,249.6 370.2,248.3 366.9,249.6 367.2,246.1 
			364.9,243.4 368.3,242.6 		"/>
	</g>
</g>
<g>
	<path class="st1" d="M261.7,186.4h-66.3c-12.3,0-22.3,10-22.3,22.3v182.5c0,12.3,10,22.3,22.3,22.3h66.3c12.3,0,22.3-10,22.3-22.3
		V208.7C284,196.4,274,186.4,261.7,186.4z"/>
	<path class="st0" d="M261.7,414h-66.3c-12.6,0-22.8-10.2-22.8-22.8V208.7c0-12.6,10.2-22.8,22.8-22.8h66.3
		c12.6,0,22.8,10.2,22.8,22.8v182.5C284.5,403.8,274.2,414,261.7,414z M195.3,186.9c-12,0-21.8,9.8-21.8,21.8v182.5
		c0,12,9.8,21.8,21.8,21.8h66.3c12,0,21.8-9.8,21.8-21.8V208.7c0-12-9.8-21.8-21.8-21.8H195.3z"/>
</g>
<g>
	<path class="st5" d="M284,197.6v45H173v-45c0-6.1,5-11.1,11.1-11.1h88.6C279,186.4,284,191.4,284,197.6z"/>
	<path d="M284.5,243.1H172.5v-45.5c0-6.4,5.2-11.6,11.6-11.6h88.6c6.4,0,11.6,5.2,11.6,11.6V243.1z M173.5,242.1h109.9v-44.5
		c0-5.9-4.8-10.6-10.6-10.6h-88.6c-5.9,0-10.6,4.8-10.6,10.6V242.1z"/>
</g>
<g>
	<g>
		<path class="st4" d="M195.9,216.1l0.6-1.5c0.8,0.6,2.1,1.1,3.3,1.1c1.6,0,2.2-0.6,2.2-1.3c0-2.2-6-0.7-6-4.5c0-1.6,1.3-3,4.1-3
			c1.2,0,2.5,0.3,3.4,0.9l-0.6,1.5c-0.9-0.5-1.9-0.8-2.8-0.8c-1.6,0-2.2,0.6-2.2,1.4c0,2.1,6,0.7,6,4.5c0,1.6-1.3,3-4.1,3
			C198.3,217.3,196.7,216.8,195.9,216.1z"/>
	</g>
	<g>
		<path class="st4" d="M210.3,216.8c-0.4,0.3-1.1,0.5-1.7,0.5c-1.7,0-2.7-0.9-2.7-2.6V211h-1.3v-1.4h1.3v-1.8h1.8v1.8h2.1v1.4h-2.1
			v3.7c0,0.7,0.4,1.2,1.1,1.2c0.4,0,0.7-0.1,1-0.3L210.3,216.8z"/>
	</g>
	<g>
		<path class="st4" d="M218.2,212.7v4.5h-1.7v-0.9c-0.4,0.7-1.3,1-2.4,1c-1.8,0-2.9-1-2.9-2.3c0-1.3,0.9-2.3,3.2-2.3h2v-0.1
			c0-1.1-0.6-1.7-1.9-1.7c-0.9,0-1.8,0.3-2.3,0.8l-0.7-1.3c0.8-0.6,2-1,3.3-1C216.9,209.4,218.2,210.5,218.2,212.7z M216.4,214.8
			v-0.9h-1.9c-1.2,0-1.6,0.5-1.6,1c0,0.6,0.5,1.1,1.5,1.1C215.3,216,216.1,215.6,216.4,214.8z"/>
	</g>
	<g>
		<path class="st4" d="M228.1,212.8v4.4h-1.8V213c0-1.4-0.7-2-1.8-2c-1.3,0-2.1,0.8-2.1,2.3v3.9h-1.8v-7.7h1.7v1
			c0.6-0.7,1.5-1.1,2.6-1.1C226.7,209.4,228.1,210.5,228.1,212.8z"/>
	</g>
	<g>
		<path class="st4" d="M238,206.5v10.7h-1.7v-1c-0.6,0.7-1.5,1.1-2.5,1.1c-2.2,0-3.9-1.6-3.9-3.9c0-2.4,1.7-3.9,3.9-3.9
			c1,0,1.9,0.3,2.5,1v-3.9H238z M236.2,213.3c0-1.5-1-2.4-2.3-2.4c-1.3,0-2.3,0.9-2.3,2.4c0,1.5,1,2.4,2.3,2.4
			C235.2,215.7,236.2,214.8,236.2,213.3z"/>
	</g>
	<g>
		<path class="st4" d="M246.8,212.7v4.5h-1.7v-0.9c-0.4,0.7-1.3,1-2.4,1c-1.8,0-2.9-1-2.9-2.3c0-1.3,0.9-2.3,3.2-2.3h2v-0.1
			c0-1.1-0.6-1.7-1.9-1.7c-0.9,0-1.8,0.3-2.3,0.8l-0.7-1.3c0.8-0.6,2-1,3.3-1C245.5,209.4,246.8,210.5,246.8,212.7z M245,214.8v-0.9
			h-1.9c-1.2,0-1.6,0.5-1.6,1c0,0.6,0.5,1.1,1.5,1.1C243.9,216,244.7,215.6,245,214.8z"/>
	</g>
	<g>
		<path class="st4" d="M253.5,209.4v1.7c-0.2,0-0.3,0-0.4,0c-1.4,0-2.2,0.8-2.2,2.4v3.7h-1.8v-7.7h1.7v1.1
			C251.3,209.8,252.2,209.4,253.5,209.4z"/>
	</g>
	<g>
		<path class="st4" d="M262.5,206.5v10.7h-1.7v-1c-0.6,0.7-1.5,1.1-2.5,1.1c-2.2,0-3.9-1.6-3.9-3.9c0-2.4,1.7-3.9,3.9-3.9
			c1,0,1.9,0.3,2.5,1v-3.9H262.5z M260.7,213.3c0-1.5-1-2.4-2.3-2.4c-1.3,0-2.3,0.9-2.3,2.4c0,1.5,1,2.4,2.3,2.4
			C259.7,215.7,260.7,214.8,260.7,213.3z"/>
	</g>
</g>
<g>
	<g>
		<path class="st5" d="M254.1,401.4h-49.4c-5.4,0-9.8-4.4-9.8-9.8v-4c0-5.4,4.4-9.8,9.8-9.8h49.4c5.4,0,9.8,4.4,9.8,9.8v4
			C264,397,259.6,401.4,254.1,401.4z"/>
	</g>
</g>
<g>
	<g>
		<rect x="199.6" y="329.4" class="st0" width="57.3" height="2.3"/>
	</g>
</g>
<g>
	<g>
		<rect x="199.6" y="291.3" class="st0" width="57.3" height="2.3"/>
	</g>
</g>
<g>
	<g>
		<rect x="199.6" y="254.7" class="st0" width="57.3" height="2.3"/>
	</g>
</g>
<g>
	<g>
		
			<ellipse transform="matrix(0.2298 -0.9732 0.9732 0.2298 -127.3635 460.696)" class="st9" cx="227.4" cy="310.8" rx="10" ry="10"/>
	</g>
	<g>
		<g>
			<polygon class="st4" points="234.5,308.7 228.8,314.4 226.1,317.1 223.4,314.4 226.1,311.7 231.8,306 			"/>
		</g>
		<g>
			<polygon class="st4" points="228.8,314.4 226.1,317.1 220.4,311.4 223.1,308.7 226.1,311.7 			"/>
		</g>
	</g>
</g>
<g>
	<g>
		
			<ellipse transform="matrix(0.9239 -0.3827 0.3827 0.9239 -116.6499 114.0045)" class="st9" cx="228.2" cy="350.2" rx="10" ry="10"/>
	</g>
	<g>
		<g>
			<polygon class="st4" points="235.4,348.1 229.6,353.8 227,356.5 224.3,353.8 227,351.1 232.7,345.4 			"/>
		</g>
		<g>
			<polygon class="st4" points="229.6,353.8 227,356.5 221.3,350.8 224,348.1 227,351.1 			"/>
		</g>
	</g>
</g>
<g>
	<g>
		<g class="st10">
			<circle class="st4" cx="227.4" cy="274.2" r="9.9"/>
		</g>
	</g>
	<g>
		<g>
			
				<rect x="221.4" y="272.3" transform="matrix(0.7071 -0.7071 0.7071 0.7071 -127.2629 241.0806)" class="st4" width="12" height="3.7"/>
		</g>
		<g>
			
				<rect x="221.4" y="272.3" transform="matrix(-0.7071 -0.7071 0.7071 -0.7071 194.2953 628.7972)" class="st4" width="12" height="3.7"/>
		</g>
	</g>
</g>
<g>
	<g>
		<g>
			<g>
				<polygon class="st9" points="272.9,198.9 272.9,225.3 278.5,219.8 278.5,198.9 				"/>
			</g>
			<g>
				<g>
					<polygon class="st9" points="284,198.9 284,225.3 278.5,219.8 278.5,198.9 					"/>
				</g>
			</g>
		</g>
		<g class="st11">
			<g>
				<polygon points="284,198.9 284,225.3 278.5,219.8 272.9,225.3 272.9,198.9 				"/>
			</g>
		</g>
		<g>
			<g>
				<path class="st9" d="M281.2,172.5L281.2,172.5c0.8,1.5,2.6,2.1,4.2,1.4l0,0c2.3-1.1,4.9,0.8,4.5,3.3l0,0
					c-0.2,1.7,0.9,3.3,2.6,3.6l0,0c2.5,0.4,3.5,3.5,1.7,5.3l0,0c-1.2,1.2-1.2,3.2,0,4.4l0,0c1.8,1.8,0.8,4.9-1.7,5.3l0,0
					c-1.7,0.3-2.8,1.9-2.6,3.6l0,0c0.3,2.5-2.2,4.4-4.5,3.3l0,0c-1.5-0.7-3.4-0.1-4.2,1.4l0,0c-1.2,2.2-4.4,2.2-5.6,0l0,0
					c-0.8-1.5-2.6-2.1-4.2-1.4l0,0c-2.3,1.1-4.9-0.8-4.5-3.3l0,0c0.2-1.7-0.9-3.3-2.6-3.6l0,0c-2.5-0.4-3.5-3.5-1.7-5.3l0,0
					c1.2-1.2,1.2-3.2,0-4.4l0,0c-1.8-1.8-0.8-4.9,1.7-5.3l0,0c1.7-0.3,2.8-1.9,2.6-3.6l0,0c-0.3-2.5,2.2-4.4,4.5-3.3l0,0
					c1.5,0.7,3.4,0.1,4.2-1.4l0,0C276.8,170.2,280,170.2,281.2,172.5z"/>
			</g>
			<g>
				<path class="st1" d="M281.2,172.5L281.2,172.5c0.8,1.5,2.6,2.1,4.2,1.4l0,0c2.3-1.1,4.9,0.8,4.5,3.3l0,0
					c-0.2,1.7,0.9,3.3,2.6,3.6l0,0c2.5,0.4,3.5,3.5,1.7,5.3l0,0c-1.2,1.2-1.2,3.2,0,4.4l0,0c1.8,1.8,0.8,4.9-1.7,5.3l0,0
					c-1.7,0.3-2.8,1.9-2.6,3.6l0,0c0.3,2.5-2.2,4.4-4.5,3.3l0,0c-1.5-0.7-3.4-0.1-4.2,1.4l0,0c-1.2,2.2-4.4,2.2-5.6,0l0,0
					c-0.8-1.5-2.6-2.1-4.2-1.4l0,0c-2.3,1.1-4.9-0.8-4.5-3.3l0,0c0.2-1.7-0.9-3.3-2.6-3.6l0,0c-2.5-0.4-3.5-3.5-1.7-5.3l0,0
					c1.2-1.2,1.2-3.2,0-4.4l0,0c-1.8-1.8-0.8-4.9,1.7-5.3l0,0c1.7-0.3,2.8-1.9,2.6-3.6l0,0c-0.3-2.5,2.2-4.4,4.5-3.3l0,0
					c1.5,0.7,3.4,0.1,4.2-1.4l0,0C276.8,170.2,280,170.2,281.2,172.5z"/>
			</g>
		</g>
	</g>
	<g>
		<g>
			<g>
				<path class="st9" d="M273.4,184.9h-1.4c-0.7,0-1.3,0.5-1.3,1.2l-0.3,6.6c0,0.7,0.5,1.2,1.2,1.2h1.4c0.7,0,1.3-0.5,1.3-1.2
					l0.3-6.6C274.6,185.4,274,184.9,273.4,184.9z"/>
			</g>
			<g>
				<path class="st9" d="M284.8,184.9h-3.4l0.9-2.2c0.1-0.2,0.1-0.5,0.1-0.8l-0.2-1.7c-0.1-0.7-0.7-1.2-1.4-1.2h-1.7l0,0
					c-0.1,1.8-0.7,3.4-1.8,4.8l-1,1.3c-0.3,0.3-0.4,0.8-0.5,1.2l-0.3,6.2c0,0.8,0.6,1.5,1.4,1.5h5.9c0.5,0,1-0.2,1.4-0.6l0.5-0.6
					c0.2-0.2,0.4-0.5,0.4-0.8l1.1-5c0.1-0.5,0-0.9-0.3-1.3l0,0C285.8,185.1,285.3,184.9,284.8,184.9z"/>
			</g>
		</g>
	</g>
</g>
<g>
	<g>
		<polygon class="st4" points="227.4,225.3 229.2,228.3 232.6,229.2 230.4,231.9 230.6,235.4 227.4,234.1 224.1,235.4 224.4,231.9 
			222.1,229.2 225.5,228.3 		"/>
	</g>
</g>
<g>
	<g>
		<g>
			<path class="st4" d="M211.9,391.4c0,2.2-1.7,3.6-4.4,3.8l-0.4,1.8h-1.6l0.4-1.8c-1.5-0.1-2.9-0.6-3.7-1.2l1.1-2
				c0.9,0.6,1.9,1,3.1,1.1l0.6-2.7c-1.5-0.5-3.2-1.1-3.2-3c0-2.2,1.8-3.6,4.5-3.8l0.4-1.8h1.6l-0.4,1.8c1.1,0.1,2.2,0.4,3,0.9l-1,2
				c-0.7-0.5-1.5-0.7-2.4-0.8l-0.6,2.8C210.3,389,211.9,389.6,211.9,391.4z M207.2,388.1l0.5-2.3c-0.9,0.2-1.4,0.7-1.5,1.3
				C206.3,387.6,206.7,387.9,207.2,388.1z M209.2,391.9c0-0.5-0.4-0.8-0.9-1l-0.4,2.2C208.7,392.9,209.2,392.5,209.2,391.9z"/>
		</g>
	</g>
</g>
<g>
	<g>
		<g>
			<path class="st2" d="M129.5,199.4H62.4c-12.1,0-21.9,9.8-21.9,21.9v183.2c0,12.1,9.8,21.9,21.9,21.9h67.1
				c12.1,0,21.9-9.8,21.9-21.9V221.3C151.4,209.2,141.6,199.4,129.5,199.4z"/>
			<path class="st0" d="M129.5,426.9H62.4C50,426.9,40,416.9,40,404.5V221.3c0-12.4,10.1-22.4,22.4-22.4h67.1
				c12.4,0,22.4,10.1,22.4,22.4v183.2C151.9,416.9,141.8,426.9,129.5,426.9z M62.4,199.9c-11.8,0-21.4,9.6-21.4,21.4v183.2
				c0,11.8,9.6,21.4,21.4,21.4h67.1c11.8,0,21.4-9.6,21.4-21.4V221.3c0-11.8-9.6-21.4-21.4-21.4H62.4z"/>
		</g>
		<g>
			<path class="st9" d="M151.4,210.5v45H40.5v-45c0-6.1,5-11.1,11.1-11.1h88.6C146.4,199.4,151.4,204.4,151.4,210.5z"/>
		</g>
		<g>
			<path class="st5" d="M151.4,210.5v45H40.5v-45c0-6.1,5-11.1,11.1-11.1h88.6C146.4,199.4,151.4,204.4,151.4,210.5z"/>
			<path d="M151.9,256H40v-45.5c0-6.4,5.2-11.6,11.6-11.6h88.6c6.4,0,11.6,5.2,11.6,11.6V256z M41,255h109.9v-44.5
				c0-5.9-4.8-10.6-10.6-10.6H51.6c-5.9,0-10.6,4.8-10.6,10.6V255z"/>
		</g>
		<g>
			<g>
				<path class="st4" d="M86.8,227.4c0,1.7-1.4,2.7-3.9,2.7h-5V220h4.7c2.4,0,3.7,1,3.7,2.6c0,1-0.5,1.8-1.3,2.2
					C86.1,225.2,86.8,226.1,86.8,227.4z M79.7,221.5v2.8h2.6c1.3,0,2-0.5,2-1.4c0-0.9-0.7-1.4-2-1.4H79.7z M84.9,227.2
					c0-1-0.8-1.5-2.2-1.5h-3v2.9h3C84.2,228.6,84.9,228.2,84.9,227.2z"/>
			</g>
			<g>
				<path class="st4" d="M95.1,225.6v4.5h-1.7v-0.9c-0.4,0.7-1.3,1-2.4,1c-1.8,0-2.9-1-2.9-2.3c0-1.3,0.9-2.3,3.2-2.3h2v-0.1
					c0-1.1-0.6-1.7-1.9-1.7c-0.9,0-1.8,0.3-2.3,0.8l-0.7-1.3c0.8-0.6,2-1,3.3-1C93.8,222.3,95.1,223.4,95.1,225.6z M93.3,227.7v-0.9
					h-1.9c-1.2,0-1.6,0.5-1.6,1c0,0.6,0.5,1.1,1.5,1.1C92.2,228.9,93,228.5,93.3,227.7z"/>
			</g>
			<g>
				<path class="st4" d="M96.5,229.3l0.7-1.4c0.7,0.4,1.7,0.8,2.7,0.8c1.1,0,1.6-0.3,1.6-0.8c0-1.5-4.8-0.1-4.8-3.2
					c0-1.5,1.3-2.4,3.4-2.4c1,0,2.2,0.2,2.9,0.7l-0.7,1.4c-0.7-0.4-1.5-0.6-2.2-0.6c-1.1,0-1.6,0.4-1.6,0.9c0,1.6,4.8,0.2,4.8,3.2
					c0,1.4-1.3,2.4-3.5,2.4C98.5,230.2,97.2,229.8,96.5,229.3z"/>
			</g>
			<g>
				<path class="st4" d="M104.6,220.1c0-0.6,0.5-1.1,1.2-1.1c0.7,0,1.2,0.4,1.2,1c0,0.6-0.5,1.1-1.2,1.1
					C105,221.1,104.6,220.7,104.6,220.1z M104.8,222.4h1.8v7.7h-1.8V222.4z"/>
			</g>
			<g>
				<path class="st4" d="M108.3,226.3c0-2.3,1.7-3.9,4.2-3.9c1.5,0,2.7,0.6,3.3,1.8l-1.4,0.8c-0.5-0.7-1.2-1.1-1.9-1.1
					c-1.3,0-2.3,0.9-2.3,2.4c0,1.5,1,2.4,2.3,2.4c0.8,0,1.5-0.3,1.9-1.1l1.4,0.8c-0.6,1.2-1.8,1.8-3.3,1.8
					C110.1,230.2,108.3,228.6,108.3,226.3z"/>
			</g>
		</g>
		<g>
			<g>
				<g class="st10">
					
						<ellipse transform="matrix(0.7071 -0.7071 0.7071 0.7071 -202.7737 162.0872)" class="st4" cx="94.3" cy="325.8" rx="9.9" ry="9.9"/>
				</g>
			</g>
			<g>
				<g>
					
						<rect x="88.3" y="323.9" transform="matrix(0.7071 -0.7071 0.7071 0.7071 -202.7726 162.0852)" class="st4" width="12" height="3.7"/>
				</g>
				<g>
					
						<rect x="88.3" y="323.9" transform="matrix(-0.7071 -0.7071 0.7071 -0.7071 -69.4542 622.8578)" class="st4" width="12" height="3.7"/>
				</g>
			</g>
		</g>
		<g>
			<g>
				<circle class="st9" cx="94.7" cy="362.2" r="10"/>
			</g>
			<g>
				<g>
					<polygon class="st4" points="101.9,360.1 96.1,365.8 93.5,368.5 90.8,365.8 93.5,363.1 99.2,357.4 					"/>
				</g>
				<g>
					<polygon class="st4" points="96.1,365.8 93.5,368.5 87.8,362.8 90.5,360.1 93.5,363.1 					"/>
				</g>
			</g>
		</g>
		<g>
			<g>
				<path class="st5" d="M120.6,414.4H71.2c-5.4,0-9.8-4.4-9.8-9.8v-4c0-5.4,4.4-9.8,9.8-9.8h49.4c5.4,0,9.8,4.4,9.8,9.8v4
					C130.5,409.9,126.1,414.4,120.6,414.4z"/>
			</g>
			<g>
				<g>
					<g>
						<path class="st4" d="M76.3,404.8c0,2.2-1.7,3.6-4.4,3.8l-0.4,1.8h-1.6l0.4-1.8c-1.5-0.1-2.9-0.6-3.7-1.2l1.1-2
							c0.9,0.6,1.9,1,3.1,1.1l0.6-2.7c-1.5-0.5-3.2-1.1-3.2-3c0-2.2,1.8-3.6,4.5-3.8l0.4-1.8h1.6l-0.4,1.8c1.1,0.1,2.2,0.4,3,0.9
							l-1,2c-0.7-0.5-1.5-0.7-2.4-0.8l-0.6,2.8C74.7,402.3,76.3,402.9,76.3,404.8z M71.7,401.4l0.5-2.3c-0.9,0.2-1.4,0.7-1.5,1.3
							C70.7,400.9,71.1,401.2,71.7,401.4z M73.7,405.2c0-0.5-0.4-0.8-0.9-1l-0.4,2.2C73.2,406.3,73.7,405.8,73.7,405.2z"/>
					</g>
				</g>
			</g>
		</g>
		<g>
			<g>
				<rect x="66.1" y="342.3" class="st0" width="57.3" height="2.3"/>
			</g>
		</g>
		<g>
			<g>
				<rect x="66.1" y="304.2" class="st0" width="57.3" height="2.3"/>
			</g>
		</g>
		<g>
			<g>
				<rect x="66.1" y="267.6" class="st0" width="57.3" height="2.3"/>
			</g>
		</g>
		<g>
			<g>
				<g class="st10">
					
						<ellipse transform="matrix(0.7071 -0.7071 0.7071 0.7071 -175.3866 150.7431)" class="st4" cx="94.3" cy="287.1" rx="9.9" ry="9.9"/>
				</g>
			</g>
			<g>
				<g>
					
						<rect x="88.3" y="285.2" transform="matrix(0.7071 -0.7071 0.7071 0.7071 -175.3857 150.7413)" class="st4" width="12" height="3.7"/>
				</g>
				<g>
					
						<rect x="88.3" y="285.2" transform="matrix(-0.7071 -0.7071 0.7071 -0.7071 -42.0672 556.7391)" class="st4" width="12" height="3.7"/>
				</g>
			</g>
		</g>
	</g>
</g>
</svg>
