<?xml version="1.0" encoding="utf-8"?>
<!-- Generator: Adobe Illustrator 24.3.0, SVG Export Plug-In . SVG Version: 6.00 Build 0)  -->
<svg version="1.1" id="Icons" xmlns="http://www.w3.org/2000/svg" xmlns:xlink="http://www.w3.org/1999/xlink" x="0px" y="0px"
	 width="500px" height="500px" viewBox="0 0 500 500" style="enable-background:new 0 0 500 500;" xml:space="preserve">
<style type="text/css">
	.st0{fill:#222222;}
	.st1{fill:#CECECE;}
	.st2{fill:#C0FFFD;}
	.st3{fill:#CECECE;stroke:#263238;stroke-width:0.75;stroke-miterlimit:10;}
	.st4{fill:#FFFFFF;}
	.st5{fill:#3C7CFF;}
	.st6{fill:#999999;}
	.st7{fill:#BFBFBF;}
	.st8{fill:#263238;}
	.st9{fill:#407BFF;}
	.st10{opacity:0.5;}
	.st11{opacity:0.3;}
	.st12{fill:#7A7A7A;}
	.st13{fill:#92E3A9;}
</style>
<g>
	<g>
		
			<rect x="17.2" y="427.2" transform="matrix(-1 -1.224647e-16 1.224647e-16 -1 500.0003 859.3184)" class="st0" width="465.5" height="4.8"/>
		<path class="st0" d="M482.8,432.6H17.2c-0.3,0-0.5-0.2-0.5-0.5v-4.8c0-0.3,0.2-0.5,0.5-0.5h465.5c0.3,0,0.5,0.2,0.5,0.5v4.8
			C483.3,432.4,483,432.6,482.8,432.6z M17.7,431.6h464.5v-3.8H17.7V431.6z"/>
	</g>
	<g>
		<g>
			<g>
				<g>
					<g>
						<g>
							<path class="st1" d="M395.1,385.5c0,0-3-86.3-30.7-116.9c0,0,22.6,53.8,24.6,117.9L395.1,385.5z"/>
						</g>
					</g>
					<g>
						<g>
							<g>
								<path class="st2" d="M400.9,357.4c0.1,0.2-0.8,1.1,2.3,1.2c7.7,0.3,21.4-0.1,26.5-7.1c7.3-10-9.5-9.1-7.9-14.7
									c1.7-5.5,19.8-1,23.3-8.8c3.6-7.9-9.6-6.4-9-10.4c0.6-4.1,14.4,1.2,19-7.1c4.6-8.4-7.5-3.9-5.5-7.4
									c2-3.5,17.4-17.9,11.2-21.1c-6.2-3.2-20.7,11.8-25.4,13.4c-4.8,1.6-5.8-13.2-12.1-8.3c-6.3,4.9-2.2,27.3-9.5,30
									c-5.4,2-2.5-5.9-9.2-5.7C395.5,311.8,392.4,343.1,400.9,357.4z"/>
							</g>
						</g>
						<g>
							<g>
								<g>
									<g>
										<g>
											<g>
												<path class="st0" d="M395,384.5C395,384.5,395,384.5,395,384.5c-0.2,0-0.4-0.2-0.4-0.4c6.5-51.8,36.4-72.7,36.7-72.9
													c0.2-0.1,0.4-0.1,0.5,0.1c0.1,0.2,0.1,0.4-0.1,0.5c-0.3,0.2-29.9,21-36.4,72.4C395.4,384.4,395.2,384.5,395,384.5z"/>
											</g>
											<g>
												<path class="st0" d="M436.1,318.2C436.1,318.2,436.1,318.2,436.1,318.2c-7.1-1.5-11.5-0.2-11.6-0.1
													c-0.2,0.1-0.4,0-0.5-0.2c-0.1-0.2,0-0.4,0.2-0.5c0.2-0.1,4.6-1.4,11.9,0.1c0.2,0,0.3,0.2,0.3,0.4
													C436.4,318.1,436.3,318.2,436.1,318.2z"/>
											</g>
											<g>
												<path class="st0" d="M418.9,324.4c-0.2,0-0.4-0.2-0.4-0.4c-0.1-15.6,9-27.8,9.1-27.9c0.1-0.2,0.3-0.2,0.5-0.1
													c0.2,0.1,0.2,0.3,0.1,0.5c-0.1,0.1-9,12.1-8.9,27.5C419.3,324.2,419.1,324.4,418.9,324.4
													C418.9,324.4,418.9,324.4,418.9,324.4z"/>
											</g>
											<g>
												<path class="st0" d="M410,337.6c-0.1,0-0.2,0-0.3-0.1c-0.1-0.1-0.1-0.4,0-0.5c0.1-0.1,6.7-6.2,15.5-3
													c0.2,0.1,0.3,0.3,0.2,0.5c-0.1,0.2-0.3,0.3-0.5,0.2c-8.3-3-14.7,2.8-14.7,2.9C410.2,337.6,410.1,337.6,410,337.6z"/>
											</g>
											<g>
												<path class="st0" d="M405.3,346.9c-0.1,0-0.3-0.1-0.3-0.2c0-0.1-3.4-8.2-1.6-19.4c0-0.2,0.2-0.3,0.4-0.3
													c0.2,0,0.3,0.2,0.3,0.4c-1.8,11,1.5,18.9,1.5,19c0.1,0.2,0,0.4-0.2,0.5C405.4,346.9,405.4,346.9,405.3,346.9z"/>
											</g>
										</g>
									</g>
								</g>
							</g>
						</g>
					</g>
					<g>
						<g>
							<path class="st1" d="M389.9,384.1c0,0,3.5-99.2,35.3-134.4c0,0-26,61.8-28.3,135.6L389.9,384.1z"/>
						</g>
						<g>
							<g>
								<path class="st2" d="M397,386.6c0,0,5.6-106.4-24.4-149.3c0,0,21.7,71.5,17.2,149L397,386.6z"/>
							</g>
						</g>
					</g>
					<g>
						<g>
							<g>
								<path class="st2" d="M388.8,361.5c-6.4,0.1-17.2-5.8-21.5-11.5c-4.3-5.8,7.8-2.2,6.6-6.8c-1.2-4.6-16.2-1.2-19-7.7
									c-2.8-6.5,8-5,7.6-8.4c-0.4-3.3-11.6-2.7-15.2-9.6c-3.6-7,6.3-3.1,4.7-5.9c-1.5-2.9-13.9-15-8.7-17.6
									c5.2-2.5,16.7,10.1,20.6,11.5c3.9,1.4,4.8-7.3,9.8-3.1c5,4.2,1.3,22.4,7.2,24.9c4.4,1.8,2.5-6.6,7.6-4.5
									C397.6,326.4,391.4,361.5,388.8,361.5z"/>
							</g>
						</g>
						<g>
							<g>
								<path class="st0" d="M391.7,385.5c-0.2,0-0.4-0.2-0.4-0.3c-1.8-45.7-33.1-76.9-33.4-77.3c-0.1-0.1-0.1-0.4,0-0.5
									c0.1-0.1,0.4-0.1,0.5,0c0.3,0.3,31.8,31.7,33.6,77.7C392.1,385.3,391.9,385.5,391.7,385.5
									C391.7,385.5,391.7,385.5,391.7,385.5z"/>
							</g>
							<g>
								<path class="st0" d="M370.7,325C370.7,325,370.7,325,370.7,325c-0.1,0-0.1,0-0.2-0.1l-0.2-0.1c-4.1-1.7-8.7-2.6-13-2.5
									c-0.2,0-0.4-0.2-0.4-0.4c0-0.2,0.2-0.4,0.4-0.4c4.3-0.1,9,0.8,13.2,2.6l0.2,0.1c0,0,0,0,0.1,0c0.1,0.1,0.2,0.2,0.2,0.4
									C371.1,324.9,370.9,325,370.7,325z"/>
							</g>
							<g>
								<path class="st0" d="M375.1,330.9C375.1,330.9,375.1,330.9,375.1,330.9c-0.2,0-0.4-0.2-0.4-0.4c1.3-13.5-5.7-24.7-5.8-24.8
									c-0.1-0.2-0.1-0.4,0.1-0.5c0.2-0.1,0.4-0.1,0.5,0.1c0.1,0.1,7.2,11.5,5.9,25.2C375.5,330.8,375.3,330.9,375.1,330.9z"/>
							</g>
							<g>
								<path class="st0" d="M379.7,338.7c-0.1,0-0.2,0-0.3-0.1c-0.1-0.1-5.2-5.2-12.7-3.2c-0.2,0.1-0.4-0.1-0.4-0.3
									c-0.1-0.2,0.1-0.4,0.3-0.4c7.9-2.1,13.4,3.3,13.4,3.4c0.1,0.1,0.1,0.4,0,0.5C379.9,338.7,379.8,338.7,379.7,338.7z"/>
							</g>
							<g>
								<path class="st0" d="M385.5,351.6c-0.1,0-0.1,0-0.2,0c-0.2-0.1-0.2-0.3-0.2-0.5c0-0.1,3.5-6.8,2.8-16.6
									c0-0.2,0.1-0.4,0.3-0.4c0.2,0,0.4,0.1,0.4,0.3c0.8,10-2.8,16.9-2.8,17C385.7,351.6,385.6,351.6,385.5,351.6z"/>
							</g>
						</g>
					</g>
				</g>
				<g>
					<path class="st3" d="M368.8,404.6c0,12.8,11.1,23.2,24.8,23.2c13.7,0,24.8-10.4,24.8-23.2c0-7.2-7.9-13.7-14.8-17.9h-20.1
						C376.7,390.9,368.8,397.3,368.8,404.6z"/>
				</g>
				<g>
					<path class="st2" d="M378.7,406h-4.3c-0.3,0-0.5-0.2-0.5-0.5c0-0.3,0.2-0.5,0.5-0.5h4.3c0.3,0,0.5,0.2,0.5,0.5
						C379.1,405.8,378.9,406,378.7,406z"/>
				</g>
				<g>
					<path class="st2" d="M413.4,406h-30c-0.3,0-0.5-0.2-0.5-0.5c0-0.3,0.2-0.5,0.5-0.5h30c0.3,0,0.5,0.2,0.5,0.5
						C413.8,405.8,413.6,406,413.4,406z"/>
				</g>
			</g>
		</g>
	</g>
	<g>
		<g>
			<g>
				<g>
					<g>
						<polygon class="st12" points="234.7,422.6 160.8,422.6 171.9,381.8 223.6,381.8 						"/>
						<path class="st0" d="M235.2,423h-74.9l11.3-41.5h52.3L235.2,423z M161.3,422.2h72.8l-10.9-40h-51.1L161.3,422.2z"/>
					</g>
					<g>
						<polygon class="st0" points="229.6,404.1 223.6,381.8 171.9,381.8 165.8,404.1 						"/>
						<path class="st0" d="M229.6,404.5h-63.8c-0.1,0-0.2-0.1-0.3-0.2c-0.1-0.1-0.1-0.2-0.1-0.3l6.1-22.3c0-0.2,0.2-0.3,0.4-0.3
							h51.7c0.2,0,0.3,0.1,0.4,0.3L230,404c0,0.1,0,0.2-0.1,0.3C229.9,404.4,229.8,404.5,229.6,404.5z M166.4,403.7h62.8l-5.8-21.5
							h-51.1L166.4,403.7z"/>
					</g>
					<g>
						<rect x="141.6" y="422.6" class="st12" width="112.2" height="4.1"/>
						<path class="st0" d="M254.3,427.1h-113v-4.9h113V427.1z M142,426.3h111.4V423H142V426.3z"/>
					</g>
				</g>
				<g>
					<rect x="38.1" y="183.5" class="st0" width="319.2" height="202.6"/>
					<path class="st0" d="M357.7,386.5h-320V183.1h320V386.5z M38.5,385.7H357V183.9H38.5V385.7z"/>
				</g>
				<g>
					<rect x="48.4" y="191.2" class="st4" width="298.7" height="187.2"/>
					<path class="st0" d="M347.5,378.8H48v-188h299.5V378.8z M48.8,378h298V191.6h-298V378z"/>
				</g>
			</g>
		</g>
		<g>
			<rect x="100.6" y="267.5" class="st0" width="236.2" height="0.8"/>
		</g>
		<g>
			<rect x="100.6" y="336.9" class="st0" width="236.2" height="0.8"/>
		</g>
		<g>
			<g>
				<rect x="54.5" y="206.7" class="st1" width="43.9" height="165.8"/>
			</g>
			<g>
				<g>
					<path class="st0" d="M61.5,230.4c-1.8,0-3.3-1.5-3.3-3.3s1.5-3.3,3.3-3.3c1.8,0,3.3,1.5,3.3,3.3S63.4,230.4,61.5,230.4z
						 M61.5,224.5c-1.4,0-2.6,1.1-2.6,2.6c0,1.4,1.1,2.6,2.6,2.6c1.4,0,2.6-1.1,2.6-2.6C64.1,225.7,62.9,224.5,61.5,224.5z"/>
				</g>
				<g>
					<rect x="68.8" y="226.9" class="st0" width="21.2" height="0.8"/>
				</g>
			</g>
			<g>
				<g>
					<path class="st0" d="M61.5,245.9c-1.8,0-3.3-1.5-3.3-3.3c0-1.8,1.5-3.3,3.3-3.3c1.8,0,3.3,1.5,3.3,3.3
						C64.9,244.4,63.4,245.9,61.5,245.9z M61.5,240c-1.4,0-2.6,1.1-2.6,2.6c0,1.4,1.1,2.6,2.6,2.6c1.4,0,2.6-1.1,2.6-2.6
						C64.1,241.2,62.9,240,61.5,240z"/>
				</g>
				<g>
					<rect x="68.8" y="242.4" class="st0" width="21.2" height="0.8"/>
				</g>
			</g>
			<g>
				<g>
					<path class="st0" d="M61.5,261.4c-1.8,0-3.3-1.5-3.3-3.3c0-1.8,1.5-3.3,3.3-3.3c1.8,0,3.3,1.5,3.3,3.3
						C64.9,259.9,63.4,261.4,61.5,261.4z M61.5,255.5c-1.4,0-2.6,1.1-2.6,2.6c0,1.4,1.1,2.6,2.6,2.6c1.4,0,2.6-1.1,2.6-2.6
						C64.1,256.7,62.9,255.5,61.5,255.5z"/>
				</g>
				<g>
					<rect x="68.8" y="257.9" class="st0" width="21.2" height="0.8"/>
				</g>
			</g>
			<g>
				<g>
					<path class="st0" d="M61.5,276.9c-1.8,0-3.3-1.5-3.3-3.3c0-1.8,1.5-3.3,3.3-3.3c1.8,0,3.3,1.5,3.3,3.3
						C64.9,275.4,63.4,276.9,61.5,276.9z M61.5,271.1c-1.4,0-2.6,1.1-2.6,2.6c0,1.4,1.1,2.6,2.6,2.6c1.4,0,2.6-1.1,2.6-2.6
						C64.1,272.2,62.9,271.1,61.5,271.1z"/>
				</g>
				<g>
					<rect x="68.8" y="273.4" class="st0" width="21.2" height="0.8"/>
				</g>
			</g>
			<g>
				<g>
					<path class="st0" d="M61.5,292.5c-1.8,0-3.3-1.5-3.3-3.3s1.5-3.3,3.3-3.3c1.8,0,3.3,1.5,3.3,3.3S63.4,292.5,61.5,292.5z
						 M61.5,286.6c-1.4,0-2.6,1.1-2.6,2.6s1.1,2.6,2.6,2.6c1.4,0,2.6-1.1,2.6-2.6S62.9,286.6,61.5,286.6z"/>
				</g>
				<g>
					<rect x="68.8" y="288.9" class="st0" width="21.2" height="0.8"/>
				</g>
			</g>
			<g>
				<g>
					<path class="st0" d="M61.5,308c-1.8,0-3.3-1.5-3.3-3.3c0-1.8,1.5-3.3,3.3-3.3c1.8,0,3.3,1.5,3.3,3.3
						C64.9,306.5,63.4,308,61.5,308z M61.5,302.1c-1.4,0-2.6,1.1-2.6,2.6s1.1,2.6,2.6,2.6c1.4,0,2.6-1.1,2.6-2.6
						S62.9,302.1,61.5,302.1z"/>
				</g>
				<g>
					<rect x="68.8" y="304.4" class="st0" width="21.2" height="0.8"/>
				</g>
			</g>
		</g>
	</g>
	<g>
		<g>
			<rect x="288.1" y="157.8" class="st2" width="56.9" height="34.7"/>
			<path class="st0" d="M344.9,192.9h-56.9c-0.2,0-0.4-0.2-0.4-0.4v-34.7c0-0.2,0.2-0.4,0.4-0.4h56.9c0.2,0,0.4,0.2,0.4,0.4v34.7
				C345.3,192.8,345.2,192.9,344.9,192.9z M288.5,192.1h56.1v-34h-56.1V192.1z"/>
		</g>
		<g>
			<polygon class="st2" points="288.1,157.8 316.5,180 344.9,157.8 			"/>
			<path class="st0" d="M316.5,180.4c-0.1,0-0.2,0-0.2-0.1l-28.4-22.2c-0.1-0.1-0.2-0.3-0.1-0.4c0.1-0.2,0.2-0.3,0.4-0.3h56.9
				c0.2,0,0.3,0.1,0.4,0.3c0.1,0.2,0,0.3-0.1,0.4l-28.4,22.2C316.7,180.4,316.6,180.4,316.5,180.4z M289.2,158.2l27.3,21.3
				l27.3-21.3H289.2z"/>
		</g>
		<g>
			<line class="st13" x1="288.1" y1="192.5" x2="304.9" y2="170.9"/>
			<path class="st0" d="M288.1,192.9c-0.1,0-0.2,0-0.2-0.1c-0.2-0.1-0.2-0.4-0.1-0.6l16.8-21.6c0.1-0.2,0.4-0.2,0.6-0.1
				c0.2,0.1,0.2,0.4,0.1,0.6l-16.8,21.6C288.3,192.9,288.2,192.9,288.1,192.9z"/>
		</g>
		<g>
			<line class="st13" x1="344.9" y1="192.5" x2="327.8" y2="170.8"/>
			<path class="st0" d="M344.9,192.9c-0.1,0-0.2-0.1-0.3-0.2l-17-21.8c-0.1-0.2-0.1-0.4,0.1-0.6c0.2-0.1,0.4-0.1,0.6,0.1l17,21.8
				c0.1,0.2,0.1,0.4-0.1,0.6C345,192.9,344.9,192.9,344.9,192.9z"/>
		</g>
	</g>
	<g>
		<g>
			
				<ellipse transform="matrix(0.9738 -0.2273 0.2273 0.9738 -27.9506 50.1931)" class="st2" cx="203.9" cy="146.4" rx="19.4" ry="19.4"/>
			<path class="st0" d="M203.9,166.2c-10.9,0-19.8-8.9-19.8-19.8s8.9-19.8,19.8-19.8c10.9,0,19.8,8.9,19.8,19.8
				S214.8,166.2,203.9,166.2z M203.9,127.4c-10.5,0-19,8.5-19,19s8.5,19,19,19c10.5,0,19-8.5,19-19S214.4,127.4,203.9,127.4z"/>
		</g>
		<g>
			<path class="st0" d="M216.8,143.8c-1.4-1.1-4.7-2.7-10.9-2.9h-2h-0.7h-2c-6.2,0.2-9.5,1.9-10.9,2.9c-1.4,1.1-2.5,2.9-2.1,4.6
				c0.4,1.7,2,3.2,2.3,3.5c0.3,0.3,0.6,0.4,1.3,0.1c0.7-0.3,5.6-2.8,5.9-3.3c0.3-0.5-0.1-2.2-0.1-2.2c0.4-0.4,1-0.3,1-0.3l5-0.1
				l5,0.1c0,0,0.6-0.1,1,0.3c0,0-0.4,1.7-0.1,2.2c0.3,0.5,5.1,3,5.9,3.3c0.7,0.3,1,0.3,1.3-0.1c0.3-0.3,1.9-1.8,2.3-3.5
				C219.3,146.7,218.2,144.9,216.8,143.8z"/>
			<path class="st0" d="M191.1,152.6c-0.3,0-0.6-0.1-0.8-0.4c-1.3-1.3-2.1-2.5-2.4-3.7c-0.5-2,0.8-3.9,2.3-5c1.4-1,4.7-2.8,11.1-3
				l4.6,0c6.5,0.2,9.8,2,11.1,3l0,0c1.5,1.1,2.7,3.1,2.3,5c-0.3,1.2-1.1,2.4-2.3,3.6c-0.6,0.6-1.1,0.5-1.8,0.2
				c-0.4-0.2-5.6-2.8-6-3.5c-0.3-0.5-0.1-1.6,0-2.2c-0.2-0.1-0.4-0.1-0.5-0.1l-5-0.1l-5,0.1c-0.1,0-0.4,0-0.5,0.1
				c0.1,0.6,0.3,1.7,0,2.2c-0.4,0.7-5.6,3.3-6,3.5C191.7,152.5,191.4,152.6,191.1,152.6z M208.6,145.7c0.2,0,0.8,0,1.2,0.4l0.2,0.2
				l-0.1,0.2c-0.2,0.7-0.3,1.7-0.1,1.9c0.4,0.4,4.8,2.8,5.7,3.2c0.7,0.3,0.8,0.2,0.9,0c1.5-1.5,2-2.6,2.2-3.3c0.4-1.6-0.7-3.3-2-4.2
				l0,0c-1-0.8-4.2-2.6-10.7-2.9l-4.6,0c-6.5,0.2-9.6,2.1-10.7,2.9c-1.2,0.9-2.4,2.6-2,4.2c0.2,0.7,0.7,1.8,2.1,3.3
				c0.2,0.2,0.3,0.3,0.9,0c0.9-0.4,5.3-2.7,5.7-3.2c0.1-0.2,0-1.2-0.2-1.9l-0.1-0.2l0.2-0.2c0.5-0.5,1.2-0.4,1.3-0.4l4.9-0.1
				L208.6,145.7C208.6,145.7,208.6,145.7,208.6,145.7z"/>
		</g>
	</g>
	<g>
		<g>
			<path class="st0" d="M330.3,249.1h-9.4V240h9.4V249.1z M321.7,248.3h7.8v-7.6h-7.8V248.3z M329.9,237.6h-8.8v-7.5l0.2-0.1
				c1.6-1.2,3-2.6,4.3-4.2c1.3-1.5,2.3-3.1,3-4.8c0.7-1.7,1.1-3.5,1.1-5.3c0-1.2-0.2-2.1-0.6-2.6c-0.4-0.5-1-0.7-1.8-0.7
				c-0.8,0-1.3,0.2-1.7,0.6c-0.4,0.4-0.6,1-0.6,1.8c0,0.5,0.1,1,0.2,1.4c0.1,0.4,0.3,0.9,0.4,1.4l0.1,0.4l-8.7,2l-0.1-0.3
				c-0.3-0.9-0.5-1.7-0.7-2.6c-0.2-0.8-0.3-1.7-0.3-2.6c0-3.3,1-5.9,3-7.7c2-1.8,4.9-2.8,8.5-2.8c3.7,0,6.6,1,8.7,3
				c2,2,3.1,4.8,3.1,8.4c0,2.2-0.4,4.3-1.1,6.3c-0.7,2-1.8,3.9-3.2,5.6c-1.4,1.7-3,3.3-5,4.8V237.6z M322,236.8h7.2v-5.1l0.2-0.1
				c1.9-1.5,3.6-3.1,5-4.8c1.4-1.7,2.4-3.5,3.1-5.4c0.7-1.9,1.1-3.9,1.1-6c0-3.4-0.9-6-2.8-7.9c-1.9-1.8-4.6-2.7-8.1-2.7
				c-3.5,0-6.2,0.9-8,2.6c-1.8,1.7-2.8,4.1-2.8,7.1c0,0.9,0.1,1.7,0.2,2.5c0.1,0.7,0.3,1.4,0.6,2.1l7.2-1.7c-0.1-0.4-0.2-0.7-0.3-1
				c-0.1-0.5-0.2-1-0.2-1.6c0-1,0.3-1.8,0.8-2.4c0.6-0.6,1.3-0.9,2.3-0.9c1.1,0,1.9,0.3,2.4,1c0.5,0.7,0.8,1.7,0.8,3.1
				c0,1.9-0.4,3.8-1.2,5.6c-0.8,1.8-1.8,3.5-3.1,5c-1.3,1.5-2.7,2.9-4.3,4.1V236.8z"/>
		</g>
	</g>
	<g>
		<g>
			<rect x="62.6" y="157.6" class="st0" width="47.5" height="4.5"/>
			<path class="st0" d="M110.1,162.4H62.6c-0.2,0-0.4-0.2-0.4-0.4v-4.5c0-0.2,0.2-0.4,0.4-0.4h47.5c0.2,0,0.4,0.2,0.4,0.4v4.5
				C110.5,162.3,110.3,162.4,110.1,162.4z M63,161.7h46.7V158H63V161.7z"/>
		</g>
		<g>
			<rect x="62.6" y="162.1" class="st2" width="47.5" height="38.9"/>
			<path class="st0" d="M110.1,201.4H62.6c-0.2,0-0.4-0.2-0.4-0.4v-38.9c0-0.2,0.2-0.4,0.4-0.4h47.5c0.2,0,0.4,0.2,0.4,0.4V201
				C110.5,201.2,110.3,201.4,110.1,201.4z M63,200.6h46.7v-38.1H63V200.6z"/>
		</g>
		<g>
			<polygon class="st0" points="97.7,181.5 77.3,169.7 77.3,193.3 			"/>
			<path class="st0" d="M77.3,193.7c-0.1,0-0.1,0-0.2-0.1c-0.1-0.1-0.2-0.2-0.2-0.3v-23.6c0-0.1,0.1-0.3,0.2-0.3
				c0.1-0.1,0.3-0.1,0.4,0l20.5,11.8c0.1,0.1,0.2,0.2,0.2,0.3s-0.1,0.3-0.2,0.3l-20.5,11.8C77.4,193.7,77.3,193.7,77.3,193.7z
				 M77.6,170.4v22.3l19.3-11.1L77.6,170.4z"/>
		</g>
	</g>
	<g>
		<g>
			<polygon class="st2" points="113.1,275.1 114.2,278.5 117.8,278.5 114.8,280.7 116,284.1 113.1,282 110.1,284.1 111.3,280.7 
				108.3,278.5 111.9,278.5 			"/>
			<path class="st0" d="M116.7,285.1l-3.7-2.7l-3.7,2.7l1.4-4.3l-3.7-2.7h4.5l1.4-4.3l1.4,4.3h4.5l-3.7,2.7L116.7,285.1z
				 M113.1,281.5l2.2,1.6l-0.8-2.5l2.2-1.6h-2.7l-0.8-2.5l-0.8,2.5h-2.7l2.2,1.6l-0.8,2.5L113.1,281.5z"/>
		</g>
		<g>
			<polygon class="st2" points="127.2,275.1 128.3,278.5 131.9,278.5 129,280.7 130.1,284.1 127.2,282 124.3,284.1 125.4,280.7 
				122.5,278.5 126.1,278.5 			"/>
			<path class="st0" d="M130.9,285.1l-3.7-2.7l-3.7,2.7l1.4-4.3l-3.7-2.7h4.5l1.4-4.3l1.4,4.3h4.5l-3.7,2.7L130.9,285.1z
				 M127.2,281.5l2.2,1.6l-0.8-2.5l2.2-1.6H128l-0.8-2.5l-0.8,2.5h-2.7l2.2,1.6l-0.8,2.5L127.2,281.5z"/>
		</g>
		<g>
			<polygon class="st2" points="141.4,275.1 142.5,278.5 146.1,278.5 143.2,280.7 144.3,284.1 141.4,282 138.4,284.1 139.6,280.7 
				136.6,278.5 140.2,278.5 			"/>
			<path class="st0" d="M145,285.1l-3.7-2.7l-3.7,2.7l1.4-4.3l-3.7-2.7h4.5l1.4-4.3l1.4,4.3h4.5l-3.7,2.7L145,285.1z M137.9,278.9
				l2.2,1.6l-0.8,2.5l2.2-1.6l2.2,1.6l-0.8-2.5l2.2-1.6h-2.7l-0.8-2.5l-0.8,2.5H137.9z"/>
		</g>
	</g>
	<g>
		<g>
			<polygon class="st4" points="258,340 259.1,343.4 262.7,343.4 259.8,345.5 260.9,348.9 258,346.8 255.1,348.9 256.2,345.5 
				253.3,343.4 256.9,343.4 			"/>
			<path class="st0" d="M261.7,349.9l-3.7-2.7l-3.7,2.7l1.4-4.3l-3.7-2.7h4.5l1.4-4.3l1.4,4.3h4.5l-3.7,2.7L261.7,349.9z M258,346.3
				l2.2,1.6l-0.8-2.5l2.2-1.6h-2.7l-0.8-2.5l-0.8,2.5h-2.7l2.2,1.6l-0.8,2.5L258,346.3z"/>
		</g>
		<g>
			<polygon class="st4" points="272.2,340 273.3,343.4 276.9,343.4 274,345.5 275.1,348.9 272.2,346.8 269.3,348.9 270.4,345.5 
				267.5,343.4 271.1,343.4 			"/>
			<path class="st0" d="M275.8,349.9l-3.7-2.7l-3.7,2.7l1.4-4.3l-3.7-2.7h4.5l1.4-4.3l1.4,4.3h4.5l-3.7,2.7L275.8,349.9z
				 M272.2,346.3l2.2,1.6l-0.8-2.5l2.2-1.6H273l-0.8-2.5l-0.8,2.5h-2.7l2.2,1.6l-0.8,2.5L272.2,346.3z"/>
		</g>
		<g>
			<polygon class="st4" points="286.3,340 287.4,343.4 291,343.4 288.1,345.5 289.2,348.9 286.3,346.8 283.4,348.9 284.5,345.5 
				281.6,343.4 285.2,343.4 			"/>
			<path class="st0" d="M290,349.9l-3.7-2.7l-3.7,2.7l1.4-4.3l-3.7-2.7h4.5l1.4-4.3l1.4,4.3h4.5l-3.7,2.7L290,349.9z M282.8,343.8
				l2.2,1.6l-0.8,2.5l2.2-1.6l2.2,1.6l-0.8-2.5l2.2-1.6h-2.7l-0.8-2.5l-0.8,2.5H282.8z"/>
		</g>
	</g>
	<g>
		<g>
			<path class="st1" d="M183.6,322h96.3c3.5,0,6.3-2.8,6.3-6.3v-35.2l8.3-6.7h-14.5h-6.7h-89.6c-3.5,0-6.3,2.8-6.3,6.3v35.6
				C177.4,319.1,180.2,322,183.6,322z"/>
			<path class="st0" d="M279.9,322.3h-96.3c-3.7,0-6.7-3-6.7-6.7v-35.6c0-3.7,3-6.7,6.7-6.7h112l-9,7.3v35
				C286.6,319.4,283.6,322.3,279.9,322.3z M183.6,274.2c-3.2,0-5.9,2.6-5.9,5.9v35.6c0,3.2,2.6,5.9,5.9,5.9h96.3
				c3.2,0,5.9-2.6,5.9-5.9v-35.4l7.6-6.1H183.6z"/>
		</g>
		<g>
			<path class="st0" d="M225.2,308.9h-33.6c-0.2,0-0.4-0.2-0.4-0.4c0-0.2,0.2-0.4,0.4-0.4h33.6c0.2,0,0.4,0.2,0.4,0.4
				C225.6,308.7,225.4,308.9,225.2,308.9z"/>
		</g>
		<g>
			<path class="st0" d="M271.4,308.9h-39.8c-0.2,0-0.4-0.2-0.4-0.4c0-0.2,0.2-0.4,0.4-0.4h39.8c0.2,0,0.4,0.2,0.4,0.4
				C271.8,308.7,271.6,308.9,271.4,308.9z"/>
		</g>
		<g>
			<path class="st0" d="M205,299.8h-13.4c-0.2,0-0.4-0.2-0.4-0.4c0-0.2,0.2-0.4,0.4-0.4H205c0.2,0,0.4,0.2,0.4,0.4
				C205.3,299.6,205.2,299.8,205,299.8z"/>
		</g>
		<g>
			<path class="st0" d="M237.9,299.8h-28c-0.2,0-0.4-0.2-0.4-0.4c0-0.2,0.2-0.4,0.4-0.4h28c0.2,0,0.4,0.2,0.4,0.4
				C238.3,299.6,238.1,299.8,237.9,299.8z"/>
		</g>
		<g>
			<path class="st0" d="M271.4,299.8H245c-0.2,0-0.4-0.2-0.4-0.4c0-0.2,0.2-0.4,0.4-0.4h26.4c0.2,0,0.4,0.2,0.4,0.4
				C271.8,299.6,271.6,299.8,271.4,299.8z"/>
		</g>
		<g>
			<path class="st0" d="M203.5,290.7h-12c-0.2,0-0.4-0.2-0.4-0.4c0-0.2,0.2-0.4,0.4-0.4h12c0.2,0,0.4,0.2,0.4,0.4
				C203.9,290.6,203.8,290.7,203.5,290.7z"/>
		</g>
		<g>
			<path class="st0" d="M271.4,290.7h-61.1c-0.2,0-0.4-0.2-0.4-0.4c0-0.2,0.2-0.4,0.4-0.4h61.1c0.2,0,0.4,0.2,0.4,0.4
				C271.8,290.6,271.6,290.7,271.4,290.7z"/>
		</g>
	</g>
	<g>
		<g>
			<path class="st5" d="M294.6,205.4h-96.3c-3.5,0-6.3,2.8-6.3,6.3v35.2l-8.3,6.7h14.5h6.7h89.6c3.5,0,6.3-2.8,6.3-6.3v-35.6
				C300.9,208.2,298.1,205.4,294.6,205.4z"/>
			<path class="st0" d="M294.6,253.9h-112l9-7.3v-35c0-3.7,3-6.7,6.7-6.7h96.3c3.7,0,6.7,3,6.7,6.7v35.6
				C301.3,250.9,298.3,253.9,294.6,253.9z M184.9,253.1h109.7c3.2,0,5.9-2.6,5.9-5.9v-35.6c0-3.2-2.6-5.9-5.9-5.9h-96.3
				c-3.2,0-5.9,2.6-5.9,5.9V247L184.9,253.1z"/>
		</g>
		<g>
			<path class="st4" d="M286.7,219.2h-63.3c-0.2,0-0.4-0.2-0.4-0.4s0.2-0.4,0.4-0.4h63.3c0.2,0,0.4,0.2,0.4,0.4
				S286.9,219.2,286.7,219.2z"/>
		</g>
		<g>
			<path class="st4" d="M220.2,219.2h-13.4c-0.2,0-0.4-0.2-0.4-0.4s0.2-0.4,0.4-0.4h13.4c0.2,0,0.4,0.2,0.4,0.4
				S220.4,219.2,220.2,219.2z"/>
		</g>
		<g>
			<path class="st4" d="M286.7,228.3h-38.5c-0.2,0-0.4-0.2-0.4-0.4s0.2-0.4,0.4-0.4h38.5c0.2,0,0.4,0.2,0.4,0.4
				S286.9,228.3,286.7,228.3z"/>
		</g>
		<g>
			<path class="st4" d="M242.9,228.3h-36c-0.2,0-0.4-0.2-0.4-0.4s0.2-0.4,0.4-0.4h36c0.2,0,0.4,0.2,0.4,0.4S243.1,228.3,242.9,228.3
				z"/>
		</g>
		<g>
			<path class="st4" d="M286.7,237.4h-9.4c-0.2,0-0.4-0.2-0.4-0.4c0-0.2,0.2-0.4,0.4-0.4h9.4c0.2,0,0.4,0.2,0.4,0.4
				C287.1,237.2,286.9,237.4,286.7,237.4z"/>
		</g>
		<g>
			<path class="st4" d="M270.5,237.4h-63.7c-0.2,0-0.4-0.2-0.4-0.4c0-0.2,0.2-0.4,0.4-0.4h63.7c0.2,0,0.4,0.2,0.4,0.4
				C270.9,237.2,270.7,237.4,270.5,237.4z"/>
		</g>
	</g>
	<g>
		<g>
			<path class="st2" d="M223.3,373.5H127c-3.5,0-6.3-2.8-6.3-6.3v-35.2l-8.3-6.7H127h6.7h89.6c3.5,0,6.3,2.8,6.3,6.3v35.6
				C229.5,370.7,226.7,373.5,223.3,373.5z"/>
			<path class="st0" d="M223.3,373.9H127c-3.7,0-6.7-3-6.7-6.7v-35l-9-7.3h112c3.7,0,6.7,3,6.7,6.7v35.6
				C229.9,370.9,226.9,373.9,223.3,373.9z M113.5,325.8l7.6,6.1v35.4c0,3.2,2.6,5.9,5.9,5.9h96.3c3.2,0,5.9-2.6,5.9-5.9v-35.6
				c0-3.2-2.6-5.9-5.9-5.9H113.5z"/>
		</g>
		<g>
			<path class="st0" d="M215.3,360.5h-12.5c-0.2,0-0.4-0.2-0.4-0.4s0.2-0.4,0.4-0.4h12.5c0.2,0,0.4,0.2,0.4,0.4
				S215.6,360.5,215.3,360.5z"/>
		</g>
		<g>
			<path class="st0" d="M197.5,360.5h-44c-0.2,0-0.4-0.2-0.4-0.4s0.2-0.4,0.4-0.4h44c0.2,0,0.4,0.2,0.4,0.4S197.7,360.5,197.5,360.5
				z"/>
		</g>
		<g>
			<path class="st0" d="M150,360.5h-14.5c-0.2,0-0.4-0.2-0.4-0.4s0.2-0.4,0.4-0.4H150c0.2,0,0.4,0.2,0.4,0.4S150.2,360.5,150,360.5z
				"/>
		</g>
		<g>
			<path class="st0" d="M215.3,351.4h-22.1c-0.2,0-0.4-0.2-0.4-0.4c0-0.2,0.2-0.4,0.4-0.4h22.1c0.2,0,0.4,0.2,0.4,0.4
				C215.7,351.2,215.6,351.4,215.3,351.4z"/>
		</g>
		<g>
			<path class="st0" d="M188.3,351.4h-52.8c-0.2,0-0.4-0.2-0.4-0.4c0-0.2,0.2-0.4,0.4-0.4h52.8c0.2,0,0.4,0.2,0.4,0.4
				C188.7,351.2,188.5,351.4,188.3,351.4z"/>
		</g>
		<g>
			<path class="st0" d="M215.3,342.3H205c-0.2,0-0.4-0.2-0.4-0.4c0-0.2,0.2-0.4,0.4-0.4h10.4c0.2,0,0.4,0.2,0.4,0.4
				C215.7,342.1,215.6,342.3,215.3,342.3z"/>
		</g>
		<g>
			<path class="st0" d="M201.1,342.3h-42.2c-0.2,0-0.4-0.2-0.4-0.4c0-0.2,0.2-0.4,0.4-0.4h42.2c0.2,0,0.4,0.2,0.4,0.4
				C201.5,342.1,201.3,342.3,201.1,342.3z"/>
		</g>
		<g>
			<path class="st0" d="M154.6,342.3h-19.1c-0.2,0-0.4-0.2-0.4-0.4c0-0.2,0.2-0.4,0.4-0.4h19.1c0.2,0,0.4,0.2,0.4,0.4
				C155,342.1,154.8,342.3,154.6,342.3z"/>
		</g>
	</g>
	<g>
		<g>
			<g>
				<g>
					<path class="st1" d="M174.3,267.9c-1.5-4.5-3.5-11.9-3.6-12.7c-0.2-1.2-1.2-2.6-1.9-3c-0.7-0.4-9.4-5.9-9.4-5.9
						s-4.3-1.2-7.5-1.6s-11.6-0.4-11.6-0.4s-11.3,2.9-12.1,4.5c-0.6,1.3-0.3,13.5-0.1,19.1H174.3z"/>
					<path class="st0" d="M174.9,268.3h-47.2l0-0.5c-0.3-9.2-0.4-17.9,0.2-19.1c0.8-1.7,10.4-4.2,12.4-4.7l0.1,0
						c0.3,0,8.4,0,11.6,0.4c3.3,0.4,7.5,1.6,7.6,1.6l0.1,0c0.1,0.1,8.7,5.5,9.4,5.8c0.8,0.5,1.9,1.9,2.1,3.3
						c0.1,0.8,2.1,8.2,3.6,12.7L174.9,268.3z M128.4,267.5h45.4c-1.5-4.7-3.3-11.5-3.4-12.3c-0.2-1.1-1.1-2.4-1.7-2.7
						c-0.7-0.4-8.6-5.4-9.4-5.8c-0.5-0.1-4.4-1.2-7.4-1.6c-3.1-0.4-10.8-0.4-11.5-0.4c-4.6,1.2-11.3,3.3-11.8,4.3
						C128,250.1,128.3,262.5,128.4,267.5z"/>
				</g>
				<g>
					
						<rect x="168.4" y="256.6" transform="matrix(0.985 -0.1723 0.1723 0.985 -42.6282 33.0026)" class="st0" width="0.8" height="10.8"/>
				</g>
				<g>
					<polygon class="st0" points="158.9,250.2 162.7,247.8 159.4,246.3 					"/>
				</g>
				<g>
					<path class="st0" d="M145.1,255.9c0,0,4.9-3.2,5.5-3.2c0.6,0,2.4,0.3,2.4,0.3s1.1-1.4,2.3-1.1c1.2,0.3,5.3,2.3,5.3,2.3
						s-3.5-4.3-4.1-5c-0.6-0.7-6.3-1.2-7.4-0.2S145.1,255.9,145.1,255.9z"/>
				</g>
			</g>
		</g>
		<g>
			<g>
				<path class="st1" d="M133.5,267.9c0.5-2.8,0.5-4.8,0.5-4.8l-1.2-6.6c0,0-0.8-7.3-4-7.7c-3.2-0.4-5.6,4.2-6.4,5.2
					c-0.8,0.9-4.6,10.7-6.6,13.9H133.5z"/>
				<path class="st0" d="M133.8,268.3H115l0.4-0.6c1.2-1.8,3-5.9,4.4-9.2c1.2-2.8,1.9-4.4,2.3-4.8c0.1-0.2,0.3-0.4,0.5-0.8
					c1.2-1.7,3.3-4.9,6.2-4.6c3.5,0.4,4.3,7.7,4.3,8l1.2,6.6l0,0c0,0.1-0.1,2-0.5,4.8L133.8,268.3z M116.5,267.5h16.7
					c0.4-2.4,0.4-4.1,0.5-4.4l-1.2-6.6c-0.2-2-1.3-7.1-3.6-7.4c-2.4-0.3-4.4,2.7-5.5,4.2c-0.2,0.4-0.4,0.7-0.6,0.8
					c-0.3,0.3-1.2,2.4-2.1,4.6C119.3,261.8,117.7,265.4,116.5,267.5z"/>
			</g>
		</g>
		<g>
			<path class="st4" d="M142.5,241.4c0,0-2,0.5-2.2,1c-0.2,0.4-0.8,2.9-0.8,2.9s0.5,2.5,1.2,4.3s2.7,4.8,2.7,5.3
				c0,0.5,0.3,2.3,1,2.2c0.7-0.1,1-1.8,1.9-2.7c0.9-0.8,4.3-3.3,4.5-3.3s2,2.1,2.2,1.8c0.3-0.3,1.7-2.2,1.7-2.2s0.3-0.6,0.7-0.3
				c0.4,0.3,2,2.4,3,3.2c1,0.8,2.3,1.5,2.2,0.5c-0.1-1-1.7-3.6-1.7-3.9s1-3.2,1.1-3.7c0.1-0.6-1-3.4-1.9-4.3c-1-1-2-1.3-2-1.3
				S148.5,240.5,142.5,241.4z"/>
			<path class="st0" d="M144.2,257.5c-0.2,0-0.3,0-0.5-0.2c-0.6-0.5-0.8-2-0.8-2.4c0-0.2-0.6-1.2-1-2c-0.6-1.1-1.3-2.3-1.6-3.2
				c-0.7-1.8-1.2-4.3-1.2-4.4l0-0.1l0-0.1c0.1-0.3,0.6-2.5,0.8-3c0.2-0.5,1.5-0.9,2.5-1.2l0,0c6-0.9,13.7-0.5,13.7-0.4l0.1,0
				c0,0,1.2,0.4,2.2,1.4c1,1,2.2,3.9,2,4.7c-0.1,0.2-0.2,0.7-0.4,1.4c-0.3,0.7-0.7,2-0.7,2.2c0,0.1,0.3,0.6,0.5,1
				c0.5,1,1.1,2.2,1.2,3c0.1,0.5-0.2,0.8-0.3,0.9c-0.7,0.4-1.9-0.5-2.5-1c-0.6-0.5-1.3-1.3-1.9-2c-0.4-0.5-0.9-1.1-1.1-1.2
				c0,0,0,0,0,0c-0.1,0-0.1,0.1-0.1,0.1l0,0.1c-0.2,0.3-1.5,2-1.8,2.3l-0.1,0.1l-0.2,0c-0.3,0-0.7-0.4-1.6-1.2
				c-0.2-0.2-0.5-0.5-0.6-0.6c-0.7,0.4-3.4,2.4-4.2,3.1c-0.4,0.3-0.6,0.9-0.9,1.4c-0.4,0.7-0.7,1.3-1.2,1.4
				C144.3,257.5,144.3,257.5,144.2,257.5z M139.8,245.2c0.1,0.5,0.6,2.6,1.2,4.2c0.3,0.9,1,2.1,1.6,3.1c0.8,1.5,1.1,2,1.1,2.4
				c0,0.6,0.3,1.8,0.6,1.8c0.2,0,0.4-0.6,0.7-1c0.3-0.5,0.6-1.2,1-1.6c0.5-0.5,4.3-3.4,4.8-3.4c0.3,0,0.5,0.2,1.1,0.9
				c0.3,0.3,0.7,0.7,1,0.9c0.3-0.4,1-1.4,1.5-2c0.1-0.1,0.2-0.4,0.6-0.5c0.2,0,0.4-0.1,0.7,0.1c0.3,0.1,0.6,0.6,1.3,1.3
				c0.6,0.7,1.3,1.5,1.8,1.9c0.8,0.6,1.4,0.9,1.6,0.9c0,0,0,0,0-0.1c-0.1-0.6-0.7-1.9-1.2-2.7c-0.4-0.8-0.5-1-0.6-1.2
				c0-0.3,0.1-0.9,0.7-2.6c0.2-0.6,0.4-1.1,0.4-1.3c0.1-0.4-0.9-3-1.8-4c-0.8-0.8-1.6-1.1-1.8-1.2c-0.7,0-7.8-0.4-13.5,0.4
				c-0.9,0.2-1.8,0.6-2,0.7C140.5,242.8,140.1,244.2,139.8,245.2z"/>
		</g>
		<g>
			<path class="st4" d="M142,237.3c0,0,0.4,6.8,0.8,7.5c0.4,0.8,7.7,5,8.2,5.4c0.5,0.4,2,1.6,2,1.6s1.8-2.8,2.3-3.6
				c0.5-0.8,2.1-2.6,2.3-3.4c0.2-0.8-0.7-5.1-0.7-5.1L142,237.3z"/>
			<path class="st0" d="M153,252.4l-2.3-1.8c-0.1-0.1-1-0.6-1.8-1.1c-4.1-2.5-6.2-3.8-6.5-4.4c-0.4-0.8-0.8-6.6-0.8-7.7l0-0.5
				l15.6,2.5l0.1,0.3c0.1,0.7,0.9,4.4,0.7,5.3c-0.1,0.6-0.7,1.4-1.6,2.5c-0.3,0.4-0.6,0.8-0.7,1c-0.5,0.8-2.3,3.6-2.3,3.6L153,252.4
				z M142.4,237.8c0.2,2.7,0.5,6.4,0.7,6.9c0.3,0.5,4.3,2.9,6.2,4.1c1.2,0.7,1.8,1.1,1.9,1.2l1.6,1.3c0.5-0.8,1.6-2.6,2-3.3
				c0.2-0.3,0.4-0.6,0.8-1.1c0.6-0.8,1.3-1.8,1.4-2.2c0.1-0.5-0.3-2.9-0.6-4.7L142.4,237.8z"/>
		</g>
		<g>
			<path class="st0" d="M154.6,239.3l-3,4.3l4.2,3.3l0.3,0.1c0.6-0.8,1.3-1.8,1.4-2.3c0.2-0.8-0.7-5.1-0.7-5.1L154.6,239.3z"/>
		</g>
		<g>
			<g>
				<path class="st4" d="M140.1,214.3c0,0-2.9,1.6-3.6,4.8s1.6,9.6,1.6,9.8c0.1,0.2-1.4-0.1-1.4,1.8c0,1.9,1.7,4,1.7,4
					s0.6,1.5,1.7,1.9c1.1,0.4,1.3-0.2,1.3-0.2s0.7,3.4,3.9,5.7s5.8,3.1,8.8,1.7c3-1.4,4.5-7.2,4.9-9.7c0.3-2.6-0.8-9.7-1.3-11.5
					c-0.5-1.8-0.7-5.6-3.4-7.9S145.1,210.5,140.1,214.3z"/>
				<path class="st0" d="M151.2,245c-1.9,0-3.8-0.8-6.1-2.5c-2.5-1.9-3.5-4.3-3.9-5.4c-0.3,0.1-0.7,0.1-1.2-0.1
					c-1.2-0.4-1.8-1.7-2-2c-0.3-0.3-1.8-2.4-1.8-4.2c0-1.5,0.8-1.9,1.3-2c-1.5-4.4-2-7.8-1.5-9.7c0.7-3.2,3.5-4.8,3.8-5
					c5.1-3.9,11.8-2,14.8,0.5c2.3,1.9,2.9,4.9,3.3,6.8c0.1,0.5,0.2,0.9,0.3,1.3c0.5,1.9,1.6,9.1,1.3,11.7c-0.3,2.3-1.7,8.4-5.1,10
					C153.3,244.7,152.3,245,151.2,245z M141.6,235l0.3,1.4c0,0,0.8,3.3,3.8,5.5c3.3,2.4,5.7,2.9,8.4,1.6c2.7-1.3,4.3-6.4,4.6-9.4
					c0.3-2.4-0.8-9.5-1.3-11.4c-0.1-0.4-0.2-0.8-0.3-1.3c-0.4-2-0.9-4.6-3-6.4c-2.8-2.3-9.1-4.1-13.8-0.4l0,0c0,0-2.7,1.6-3.4,4.5
					c-0.4,1.8,0.1,5.1,1.5,9.4c0,0.1,0.1,0.2,0.1,0.3c0.1,0.3-0.1,0.5-0.5,0.6c-0.4,0.1-0.9,0.2-0.9,1.3c0,1.7,1.6,3.8,1.7,3.8
					l0.1,0.1c0,0,0.6,1.3,1.5,1.6c0.6,0.2,0.8,0.1,0.8,0L141.6,235z"/>
			</g>
			<g>
				<path class="st0" d="M149.2,224.7c0,0,0.5,1.3,0.3,1.5c-0.2,0.1-3,0.2-3.9,0.7c-0.9,0.4-1.5,0.9-1.5,0.9s0.3-1.7,1.1-2.1
					c0.8-0.4,1.8-0.8,2.5-0.8C148.5,224.8,149.1,223.9,149.2,224.7z"/>
			</g>
			<g>
				<path class="st0" d="M152.7,223.8c0,0,0.1,1.4,0.3,1.4c0.2,0,2.3-1,3.2-1c0.9,0,1.5,0.3,1.5,0.3s-0.9-1.5-1.6-1.5
					s-1.7,0-2.2,0.3C153.3,223.7,152.5,223.1,152.7,223.8z"/>
			</g>
			<g>
				<path class="st0" d="M138.1,229c0,0,0.5,1.6,1.1,1.8c0.6,0.2,1-0.2,0.9-1.7c0-0.6,0-1.1,0.1-1.5c0.1-0.6,0.2-1,0.2-1.1
					c0.1-0.2,0.4,1.2,0.4,1.2s1.1-0.4,1.3-2.4c0.2-2-0.1-3.5,0-4c0.1-0.5,1.4-1.6,1.4-1.6l-0.2,1.3c0,0,2.2-0.4,4-0.6
					c1.8-0.2,4.1-1.1,4.1-1.1l-0.8,1.5c0,0,1.2,0.6,3.3-1.1c2.1-1.7,1.4-3.5,1.4-3.5l1.4,2.2l0.7,2.1l0.7,3.1c0,0,0.6-1.4,0.6-2.1
					c0.1-0.6,0-3,0-3s0.1,1.9,0.6,0.7c0.4-1.1,1.2-1.2,0.2-2.6c-0.9-1.4-3.2-3.1-3.4-3.2c-0.2-0.1,2,0.5,1.9-0.3
					c-0.1-0.8-4.7-2.9-7-3.7c-2.4-0.7-6.9-0.7-9.9,1.2c-3,2-5.4,4.9-5.4,4.9s-1.7,2.9-1.7,6s2.2,4.8,2.3,5.1
					c1.2,2.2,0.7-0.1,0.4-0.8C136.7,226.1,136.7,227.9,138.1,229z"/>
				<path class="st0" d="M139.5,231.2c-0.1,0-0.3,0-0.4-0.1c-0.7-0.3-1.2-1.5-1.3-1.9c-0.4-0.3-0.6-0.6-0.8-1c-0.4,0-0.7-0.5-1-1.1
					c0,0-0.1-0.1-0.2-0.2c-0.6-0.7-2.2-2.4-2.2-5.1c0-3.1,1.7-6.1,1.8-6.2c0.1-0.2,2.5-3,5.5-5c3.2-2.1,7.9-2,10.2-1.3
					c1.3,0.4,7.2,2.7,7.3,4c0,0.2-0.1,0.4-0.2,0.6c-0.2,0.1-0.4,0.2-0.7,0.3c0.8,0.7,1.8,1.6,2.3,2.4c0.8,1.2,0.6,1.6,0.1,2.3
					c-0.1,0.2-0.3,0.4-0.4,0.7c-0.1,0.2-0.2,0.5-0.5,0.6c0,0.6,0,1.2,0,1.5c-0.1,0.7-0.6,2-0.6,2.2l-0.5,1.2l-1-4.4l-0.7-2l-0.6-1
					c-0.2,0.7-0.6,1.5-1.5,2.3c-2.2,1.8-3.6,1.2-3.7,1.2L150,221l0.5-0.9c-0.9,0.3-2.1,0.7-3.2,0.8c-1.8,0.2-3.9,0.6-3.9,0.6
					l-0.5,0.1l0.1-0.7c-0.2,0.3-0.4,0.5-0.4,0.6c0,0.1,0,0.6,0,1c0,0.7,0.1,1.7,0,2.9c-0.2,2.2-1.5,2.7-1.6,2.8l-0.4,0.2l0,0
					c0,0.3,0,0.5,0,0.8c0,1.1-0.1,1.7-0.5,2C139.9,231.1,139.7,231.2,139.5,231.2z M137.4,227.5c0.2,0.4,0.5,0.8,0.9,1.2l0.1,0.1
					l0,0.1c0.2,0.7,0.6,1.5,0.9,1.6c0.1,0,0.2,0,0.2,0c0,0,0.2-0.2,0.2-1.3c0-0.5,0-1.1,0.1-1.6c0.1-0.6,0.2-1,0.3-1.1l0.1-0.3
					l0.3,0c0.3,0,0.4,0.1,0.6,1c0.3-0.3,0.6-0.8,0.7-1.8c0.1-1.1,0-2.1,0-2.8c0-0.6-0.1-1,0-1.2c0.1-0.6,1.2-1.5,1.5-1.8l0.8-0.7
					l-0.3,1.8c0.8-0.1,2.2-0.4,3.5-0.5c1.7-0.2,4-1.1,4-1.1l1-0.4l-1.1,2c0.5,0,1.3-0.2,2.4-1.1c1.8-1.5,1.3-3,1.2-3l-1.3-3.7
					l3.4,5.6l0.7,2.1l0.4,1.8c0.1-0.3,0.1-0.5,0.1-0.6c0-0.5,0-2.1,0-2.9l0.8,0c0,0.1,0,0.1,0,0.2c0.1-0.1,0.1-0.2,0.2-0.4
					c0.3-0.5,0.4-0.6-0.1-1.4c-0.8-1.3-2.9-2.9-3.2-3l-0.3-0.1l0.2-0.7l0.4,0.1c0.9,0.2,1.3,0.1,1.4,0.1c-0.4-0.6-4.2-2.5-6.7-3.3
					c-2.2-0.7-6.6-0.8-9.6,1.2c-2.9,1.9-5.3,4.8-5.3,4.8l0,0c0,0-1.7,2.8-1.7,5.7c0,2.4,1.4,4,2,4.6c0-0.2,0-0.3,0-0.3v-2.2l0.8,2
					C137.1,226.1,137.4,226.9,137.4,227.5z"/>
			</g>
			<g>
				<path class="st0" d="M148.9,229c0.1,0.6-0.2,1.1-0.6,1.2c-0.4,0-0.8-0.4-0.9-1c-0.1-0.6,0.2-1.1,0.6-1.2
					C148.4,227.9,148.8,228.4,148.9,229z"/>
			</g>
			<g>
				<path class="st0" d="M156.1,227.8c0.1,0.6-0.2,1.1-0.6,1.2c-0.4,0-0.8-0.4-0.9-1c-0.1-0.6,0.2-1.1,0.6-1.2
					C155.7,226.7,156,227.2,156.1,227.8z"/>
			</g>
			<g>
				<path class="st0" d="M153.5,235.5c-0.4,0-1-0.2-1.4-0.4c-0.2-0.1-0.4-0.2-0.6-0.2l0.1-0.8c0.2,0,0.4,0.1,0.7,0.2
					c0.4,0.1,1,0.4,1.3,0.3c0.4-0.1,1-1.2,1-1.5c0-0.2-0.4-0.9-0.9-1.4l0.6-0.5c0.3,0.4,1,1.4,1,1.9c0,0.6-0.8,2-1.6,2.2
					C153.8,235.5,153.6,235.5,153.5,235.5z"/>
			</g>
		</g>
		<g>
			<path class="st0" d="M152,238.3c-1.3,0-2.3-0.4-2.3-0.4l0.3-0.7c0.2,0.1,4,1.5,6.5-1.9l0.6,0.5
				C155.5,237.9,153.5,238.3,152,238.3z"/>
		</g>
		<g>
			<path class="st0" d="M151.4,237.9c0,0,0.7,2.1,2,1.9c2-0.3,2.3-3.3,2.3-3.3S154.2,238.1,151.4,237.9z"/>
			<path class="st0" d="M153.2,240.3c-1.4,0-2.2-2.1-2.2-2.2l-0.2-0.6l0.6,0c2.6,0.1,4-1.2,4.1-1.2l0.8-0.8l-0.1,1.1
				c0,0.1-0.4,3.3-2.7,3.7C153.4,240.3,153.3,240.3,153.2,240.3z M152,238.4c0.3,0.5,0.7,1.2,1.3,1.2c1-0.2,1.6-1.2,1.8-2
				C154.5,237.9,153.4,238.3,152,238.4z"/>
		</g>
		<g>
			<path class="st4" d="M154.9,238.9c-1.1-0.3-2.4-0.3-3.3-0.2c0.3,0.6,0.9,1.4,1.7,1.3C154.1,239.8,154.6,239.4,154.9,238.9z"/>
			<path class="st0" d="M153.2,240.3c-0.5,0-1.2-0.3-1.9-1.5l-0.3-0.5l0.6,0c0.9-0.1,2.2-0.1,3.4,0.2l0.5,0.1l-0.3,0.5
				c-0.5,0.7-1.1,1.1-1.8,1.2C153.4,240.3,153.3,240.3,153.2,240.3z M152.4,239c0.3,0.3,0.6,0.6,1,0.5c0.3,0,0.6-0.2,0.9-0.4
				C153.6,239,152.9,239,152.4,239z"/>
		</g>
	</g>
</g>
</svg>
