<?xml version="1.0" encoding="utf-8"?>
<!-- Generator: Adobe Illustrator 24.3.0, SVG Export Plug-In . SVG Version: 6.00 Build 0)  -->
<svg version="1.1" id="Icons" xmlns="http://www.w3.org/2000/svg" xmlns:xlink="http://www.w3.org/1999/xlink" x="0px" y="0px"
	 viewBox="0 0 466.5 276.4" style="enable-background:new 0 0 466.5 276.4;" xml:space="preserve">
<style type="text/css">
	.st0{opacity:0.5;}
	.st1{fill:#C0FFFD;}
	.st2{fill:#222222;}
	.st3{fill:#CECECE;}
	.st4{fill:#FFFFFF;}
	.st5{fill:#3C7CFF;}
	.st6{fill:#616161;}
</style>
<g>
	<g>
		<g class="st0">
			<path class="st1" d="M53.2,268.5c0,0-24.8-52.8-19.4-54.3c5.4-1.5,16.7,6.9,16.7,6.9s-33.1-88.7-24.5-95.6
				c8.6-6.9,24.6,28.3,24.6,28.3S33.4,99.5,35.4,78.9s23.7-0.8,23.7-0.8s-17.4-74.2-1.2-78C74-3.7,73.5,85,73.5,85
				s5.3-63.5,11.8-45.9c6.5,17.6-7.1,76.5-7.1,76.5S87,95.7,91.9,114c4.9,18.4-9.8,92.5-9.8,92.5s12.5-12.2,13.7,3.1
				c1.2,15.3-25.9,62.7-25.9,62.7l-15.3,1.5L53.2,268.5z"/>
		</g>
		<g>
			<path class="st2" d="M58.5,271.3c-0.2,0-0.3-0.1-0.4-0.3c-0.8-1.5-20.7-37-16.8-44.1c0.7-1.2,1.6-1.9,2.9-2
				c3.5-0.2,8.3,4.9,11.1,8.3c-5.6-14.2-24.3-62.7-20.8-68.3c0.6-1,1.4-1.2,2-1.1c4.2,0.3,11.1,13.8,13.9,19.5
				c-0.7-15.4-3.5-80,2.5-84.2c0.4-0.3,0.9-0.4,1.4-0.2c3.4,1.4,5.5,9.8,6.7,19.1c-0.8-28.6-1.2-69,2.8-71.7
				c0.4-0.2,0.8-0.3,1.2-0.1c6.5,2.9,6.5,92.6,6.4,113.5c2.7-8.2,9.3-26.6,13.4-26.2c1.4,0.1,2.2,1.9,2.6,5.6
				c1.8,15.2-9.2,49.4-14.6,65.3c4.2-8.1,10.8-19.3,15.1-18.6c1.8,0.3,2.9,2.5,3.4,6.9c1.6,15.5-6.5,40.5-11.6,54.1
				c0.7-1,1.4-1.6,2-1.4c0.8,0.2,1.1,1.1,1.1,3.2c0,9.2-5.2,20.4-5.4,20.9c-0.1,0.2-0.4,0.4-0.7,0.2c-0.2-0.1-0.4-0.4-0.2-0.7
				c0.1-0.1,5.3-11.5,5.3-20.4c0-2-0.3-2.2-0.3-2.2c-0.7,0-3.1,4.2-5.2,9.2c-0.2,0.5-0.4,0.8-0.4,0.9c-0.1,0.3-0.4,0.4-0.7,0.3
				c-0.3-0.1-0.4-0.4-0.3-0.7c0.1-0.3,0.3-0.7,0.4-1c2.7-6.5,16.9-42.3,14.8-62.2c-0.4-3.7-1.3-5.8-2.6-6
				c-4.6-0.8-14.5,18.5-17.9,26c-0.1,0.2-0.4,0.4-0.6,0.3c-0.2-0.1-0.4-0.4-0.3-0.6c0.2-0.5,19.8-53.6,17.6-73.2
				c-0.5-4.2-1.4-4.7-1.8-4.8c0,0-0.1,0-0.1,0c-3.1,0-9.8,17.4-13.3,28.5c-0.1,0.2-0.3,0.4-0.6,0.3c-0.2,0-0.4-0.2-0.4-0.5
				c0.3-45.4-1-113.6-5.8-115.8c-0.1,0-0.1,0-0.2,0c-3.8,2.6-3.2,50.2-1.8,87.4c0.4,5.9,0.4,10.2,0.4,10.8c0,0.3-0.2,0.5-0.5,0.5
				c-0.3,0-0.5-0.2-0.5-0.5c-0.1-1.6-0.2-5.4-0.4-10.6c-0.8-14-3-33-7.7-34.8c-0.2-0.1-0.3-0.1-0.5,0.1c-5,3.6-3.1,63.2-1.9,85.9
				c0,0.2-0.1,0.5-0.4,0.5c-0.2,0.1-0.5-0.1-0.6-0.3c-2.7-5.8-10.4-21-14.1-21.3c-0.3,0-0.7,0-1.1,0.7c-3,4.8,15,52.6,22.2,70.7
				c0.1,0.2,0,0.5-0.2,0.6c-0.2,0.1-0.5,0.1-0.6-0.1c-2.1-3-8.5-10.7-12.3-10.7c-0.1,0-0.1,0-0.2,0c-0.9,0-1.5,0.5-2,1.5
				c-3,5.4,11.1,33,16.8,43.1c0.1,0.2,0.1,0.5-0.2,0.7C58.6,271.3,58.5,271.3,58.5,271.3z"/>
		</g>
	</g>
	<g id="XMLID_225_">
		<g id="XMLID_224_">
			<polygon class="st3" points="32.7,227.3 19.5,270.7 55.2,270.7 68.7,227.5 			"/>
			<path class="st2" d="M55.2,271.2H19.5c-0.2,0-0.3-0.1-0.4-0.2c-0.1-0.1-0.1-0.3-0.1-0.4l13.2-43.4c0.1-0.2,0.3-0.4,0.5-0.4
				c0,0,0,0,0,0l36.1,0.2c0.2,0,0.3,0.1,0.4,0.2c0.1,0.1,0.1,0.3,0.1,0.4l-13.6,43.2C55.6,271.1,55.4,271.2,55.2,271.2z M20.2,270.2
				h34.6L68.1,228l-35-0.2L20.2,270.2z"/>
		</g>
		<g id="XMLID_223_">
			<g id="XMLID_205_">
				<polygon class="st4" points="115.9,270.6 41.5,270.6 32.7,227.3 107,227.3 				"/>
				<path class="st2" d="M115.9,271.1H41.5c-0.2,0-0.4-0.2-0.5-0.4l-8.8-43.3c0-0.1,0-0.3,0.1-0.4c0.1-0.1,0.2-0.2,0.4-0.2H107
					c0.2,0,0.4,0.2,0.5,0.4l8.8,43.3c0,0.1,0,0.3-0.1,0.4C116.1,271.1,116,271.1,115.9,271.1z M41.9,270.1h73.3l-8.6-42.3H33.3
					L41.9,270.1z"/>
			</g>
			<g id="XMLID_207_">
				<g id="XMLID_206_">
					<path class="st2" d="M108.2,263.8h-62c-0.2,0-0.4-0.2-0.5-0.4l-4.6-22.7c0-0.1,0-0.3,0.1-0.4c0.1-0.1,0.2-0.2,0.4-0.2h62
						c0.2,0,0.4,0.2,0.5,0.4l4.6,22.7c0,0.1,0,0.3-0.1,0.4C108.5,263.7,108.3,263.8,108.2,263.8z M46.6,262.8h61l-4.4-21.7h-61
						L46.6,262.8z"/>
				</g>
				<g id="XMLID_208_">
					<path class="st2" d="M51.5,263.7c-0.2,0-0.4-0.2-0.5-0.4l-4.6-22.5c-0.1-0.3,0.1-0.5,0.4-0.6c0.3-0.1,0.5,0.1,0.6,0.4l4.6,22.5
						c0.1,0.3-0.1,0.5-0.4,0.6C51.6,263.7,51.5,263.7,51.5,263.7z"/>
				</g>
				<g id="XMLID_209_">
					<path class="st2" d="M57.2,263.7c-0.2,0-0.4-0.2-0.5-0.4l-4.6-22.5c-0.1-0.3,0.1-0.5,0.4-0.6c0.3-0.1,0.5,0.1,0.6,0.4l4.6,22.5
						c0.1,0.3-0.1,0.5-0.4,0.6C57.2,263.7,57.2,263.7,57.2,263.7z"/>
				</g>
				<g id="XMLID_210_">
					<path class="st2" d="M62.9,263.7c-0.2,0-0.4-0.2-0.5-0.4l-4.6-22.5c-0.1-0.3,0.1-0.5,0.4-0.6c0.3-0.1,0.5,0.1,0.6,0.4l4.6,22.5
						c0.1,0.3-0.1,0.5-0.4,0.6C62.9,263.7,62.9,263.7,62.9,263.7z"/>
				</g>
				<g id="XMLID_211_">
					<path class="st2" d="M68.5,263.7c-0.2,0-0.4-0.2-0.5-0.4l-4.6-22.5c-0.1-0.3,0.1-0.5,0.4-0.6c0.3-0.1,0.5,0.1,0.6,0.4l4.6,22.5
						c0.1,0.3-0.1,0.5-0.4,0.6C68.6,263.7,68.6,263.7,68.5,263.7z"/>
				</g>
				<g id="XMLID_212_">
					<path class="st2" d="M74.2,263.7c-0.2,0-0.4-0.2-0.5-0.4l-4.6-22.5c-0.1-0.3,0.1-0.5,0.4-0.6c0.3-0.1,0.5,0.1,0.6,0.4l4.6,22.5
						c0.1,0.3-0.1,0.5-0.4,0.6C74.3,263.7,74.3,263.7,74.2,263.7z"/>
				</g>
				<g id="XMLID_213_">
					<path class="st2" d="M79.9,263.7c-0.2,0-0.4-0.2-0.5-0.4l-4.6-22.5c-0.1-0.3,0.1-0.5,0.4-0.6c0.3-0.1,0.5,0.1,0.6,0.4l4.6,22.5
						c0.1,0.3-0.1,0.5-0.4,0.6C80,263.7,79.9,263.7,79.9,263.7z"/>
				</g>
				<g id="XMLID_214_">
					<path class="st2" d="M85.6,263.7c-0.2,0-0.4-0.2-0.5-0.4l-4.6-22.5c-0.1-0.3,0.1-0.5,0.4-0.6c0.3-0.1,0.5,0.1,0.6,0.4l4.6,22.5
						c0.1,0.3-0.1,0.5-0.4,0.6C85.7,263.7,85.6,263.7,85.6,263.7z"/>
				</g>
				<g id="XMLID_215_">
					<path class="st2" d="M91.3,263.7c-0.2,0-0.4-0.2-0.5-0.4l-4.6-22.5c-0.1-0.3,0.1-0.5,0.4-0.6c0.3-0.1,0.5,0.1,0.6,0.4l4.6,22.5
						c0.1,0.3-0.1,0.5-0.4,0.6C91.4,263.7,91.3,263.7,91.3,263.7z"/>
				</g>
				<g id="XMLID_216_">
					<path class="st2" d="M97,263.7c-0.2,0-0.4-0.2-0.5-0.4l-4.6-22.5c-0.1-0.3,0.1-0.5,0.4-0.6c0.3-0.1,0.5,0.1,0.6,0.4l4.6,22.5
						c0.1,0.3-0.1,0.5-0.4,0.6C97,263.7,97,263.7,97,263.7z"/>
				</g>
				<g id="XMLID_217_">
					<path class="st2" d="M102.7,263.7c-0.2,0-0.4-0.2-0.5-0.4l-4.6-22.5c-0.1-0.3,0.1-0.5,0.4-0.6c0.3-0.1,0.5,0.1,0.6,0.4
						l4.6,22.5c0.1,0.3-0.1,0.5-0.4,0.6C102.7,263.7,102.7,263.7,102.7,263.7z"/>
				</g>
				<g id="XMLID_218_">
					<path class="st2" d="M104.3,245.6H42.6c-0.3,0-0.5-0.2-0.5-0.5s0.2-0.5,0.5-0.5h61.6c0.3,0,0.5,0.2,0.5,0.5
						S104.5,245.6,104.3,245.6z"/>
				</g>
				<g id="XMLID_219_">
					<path class="st2" d="M105.2,250.1H43.5c-0.3,0-0.5-0.2-0.5-0.5s0.2-0.5,0.5-0.5h61.6c0.3,0,0.5,0.2,0.5,0.5
						S105.5,250.1,105.2,250.1z"/>
				</g>
				<g id="XMLID_220_">
					<path class="st2" d="M106.1,254.7H44.5c-0.3,0-0.5-0.2-0.5-0.5s0.2-0.5,0.5-0.5h61.6c0.3,0,0.5,0.2,0.5,0.5
						S106.4,254.7,106.1,254.7z"/>
				</g>
				<g id="XMLID_221_">
					<path class="st2" d="M107,259.2H45.4c-0.3,0-0.5-0.2-0.5-0.5s0.2-0.5,0.5-0.5H107c0.3,0,0.5,0.2,0.5,0.5S107.3,259.2,107,259.2
						z"/>
				</g>
			</g>
			<g id="XMLID_222_">
				<polygon class="st2" points="68.6,236.7 41,236.7 40.6,234.5 68.1,234.5 				"/>
			</g>
		</g>
	</g>
	<g>
		<g>
			<path class="st4" d="M444.2,159.8h-89.7c-8.5,0-16.2,6.9-17.1,15.4l-11,97.2h105L444.2,159.8z"/>
			<path class="st2" d="M431.5,273h-105c-0.1,0-0.3-0.1-0.4-0.2s-0.1-0.2-0.1-0.4l11-97.2c1-8.7,8.9-15.8,17.6-15.8h89.7
				c0.1,0,0.3,0.1,0.4,0.2s0.1,0.2,0.1,0.4L432,272.5C432,272.8,431.7,273,431.5,273z M327,272h104l12.6-111.6h-89.1
				c-8.2,0-15.7,6.7-16.6,14.9L327,272z"/>
		</g>
		<g>
			<path class="st3" d="M444.7,159.8L444.7,159.8c-7.1,0-13.4,5.7-14.2,12.8l-11.3,99.8h25.5l11.3-99.8
				C456.8,165.6,451.8,159.8,444.7,159.8z"/>
			<path class="st2" d="M444.7,273h-25.5c-0.1,0-0.3-0.1-0.4-0.2s-0.1-0.2-0.1-0.4l11.3-99.8c0.8-7.3,7.4-13.2,14.7-13.2
				c3.5,0,6.7,1.4,9,3.9c2.3,2.5,3.3,5.9,2.9,9.5l-11.3,99.8C445.2,272.8,445,273,444.7,273z M419.7,272h24.5l11.3-99.4
				c0.4-3.3-0.6-6.4-2.6-8.7c-2-2.3-5-3.5-8.2-3.5c-6.8,0-13,5.5-13.7,12.3L419.7,272z"/>
		</g>
	</g>
	<g>
		<g>
			<g>
				<g id="XMLID_173_">
					<path class="st5" d="M325.5,130.6c0,0-7.6,5.8-20.3,11.1c-12.7,5.3-17.9,6.9-17.9,6.9l3.5,121.8h92.5c0,0-11.8-76.4-11.8-102
						s1.1-30.6,1.1-30.6l-30.4-7.8L325.5,130.6z"/>
					<path class="st2" d="M383.3,271h-92.5c-0.3,0-0.5-0.2-0.5-0.5l-3.5-121.8c0-0.2,0.1-0.4,0.4-0.5c0.1,0,5.3-1.6,17.8-6.9
						c12.5-5.2,20.1-11,20.2-11.1c0.1-0.1,0.2-0.1,0.3-0.1l16.6-0.5c0,0,0.1,0,0.1,0l30.4,7.8c0.3,0.1,0.4,0.3,0.4,0.6
						c0,0-1,5.3-1,30.5c0,25.3,11.7,101.2,11.8,101.9c0,0.1,0,0.3-0.1,0.4C383.6,270.9,383.5,271,383.3,271z M291.4,270h91.4
						c-1.1-7.1-11.8-77.3-11.8-101.5c0-21.6,0.7-28.5,1-30.2l-29.9-7.6l-16.4,0.5c-1.1,0.8-8.6,6.2-20.3,11.1
						c-10.8,4.5-16.2,6.3-17.5,6.8L291.4,270z"/>
				</g>
				<g>
					<g id="XMLID_176_">
						<path class="st2" d="M315.5,135.8c0,0-4.6,31.1-5.1,62.4c-0.5,31.3,5.5,73,5.5,73h-31.1h-36.6c0,0,12-20.9,17.9-50.7
							c5-25.3,9-68.3,10.1-68.8C277.1,151.1,313,137.9,315.5,135.8z"/>
						<path class="st2" d="M315.8,271.7h-67.7c-0.2,0-0.3-0.1-0.4-0.2s-0.1-0.3,0-0.5c0.1-0.2,12-21.2,17.8-50.6
							c2.9-14.6,5.4-34.9,7.3-49.7c2.2-17.7,2.5-19.1,3.1-19.4c0.3-0.1,2.2-0.9,6.2-2.4c10.2-3.9,31.3-11.9,33.1-13.4
							c0.2-0.1,0.4-0.2,0.6-0.1c0.2,0.1,0.3,0.3,0.3,0.5c0,0.3-4.6,31.4-5.1,62.3c-0.5,30.9,5.4,72.5,5.5,72.9c0,0.1,0,0.3-0.1,0.4
							C316.1,271.6,316,271.7,315.8,271.7z M249,270.7h66.3c-0.7-5.1-5.9-43.5-5.4-72.5c0.5-27.8,4.2-55.7,5-61.4
							c-4,2.1-17.8,7.5-32.4,13c-3,1.1-5.4,2.1-6,2.3c-0.4,1.1-1.5,9.3-2.6,18.7c-1.9,14.9-4.4,35.2-7.3,49.8
							C261.3,247,251.1,266.7,249,270.7z"/>
					</g>
					<g id="XMLID_174_">
						<path class="st6" d="M284.7,271.7c-0.2,0-0.5-0.2-0.5-0.4c-0.3-1.9-6.9-46.8-6.5-57.7c0.3-10.8,2.1-47.7,2.1-48.1
							c0-0.3,0.2-0.5,0.5-0.5c0.3,0,0.5,0.2,0.5,0.5c0,0.4-1.8,37.2-2.1,48.1c-0.3,10.8,6.5,57.1,6.5,57.5
							C285.2,271.4,285.1,271.6,284.7,271.7C284.8,271.7,284.7,271.7,284.7,271.7z"/>
					</g>
				</g>
				<g id="XMLID_178_">
					<path class="st2" d="M353.5,132.6c0,0-8.7,39.8-9.4,72.5c-0.7,32.7-3,66.3-3,66.3h54.8c0,0,0.7-29.9,0-40.1
						c-0.7-10.3-0.7-8.1-0.7-8.1l21.2,5.5c0,0-13.6-65.6-16.1-72.8c-2.5-7.2-1.2-9.5-2.8-10.8C395.9,143.7,353.5,132.6,353.5,132.6z
						"/>
					<path class="st2" d="M395.9,271.9h-54.8c-0.1,0-0.3-0.1-0.4-0.2c-0.1-0.1-0.1-0.2-0.1-0.4c0-0.3,2.3-34,3-66.3
						c0.7-32.4,9.3-72.2,9.4-72.6c0-0.1,0.1-0.2,0.2-0.3c0.1-0.1,0.3-0.1,0.4-0.1c4.4,1.1,42.6,11.2,44.2,12.5
						c0.9,0.7,1.1,1.7,1.3,3.3c0.2,1.6,0.5,4,1.7,7.7c2.5,7.2,15.5,70.2,16.1,72.9c0,0.2,0,0.3-0.1,0.5s-0.3,0.2-0.5,0.1l-20.5-5.3
						c0.1,1.2,0.3,3.4,0.6,7.4c0.7,10.2,0,39.9,0,40.2C396.4,271.6,396.2,271.9,395.9,271.9z M341.7,270.9h53.7
						c0.1-3.9,0.6-30.2,0-39.6c-0.4-5.3-0.5-7.2-0.6-7.9c-0.1-0.1-0.1-0.2-0.1-0.3c0-0.5,0.3-0.7,0.5-0.7c0.2,0,0.3,0,0.4,0.3
						l20.1,5.2c-1.6-7.5-13.6-65.3-15.9-72c-1.3-3.8-1.6-6.2-1.8-7.9c-0.2-1.6-0.3-2.2-0.9-2.7c-1.3-0.9-26.4-7.7-43.3-12.2
						c-1,4.8-8.6,41.6-9.2,71.9C344,235.2,342,266.4,341.7,270.9z"/>
				</g>
			</g>
			<g id="XMLID_203_">
				<g id="XMLID_204_">
					<path class="st4" d="M254.6,244.1c0,0,2.5,3.9,5,6c2.4,2.1,7.6,1,10.4,3.8c2.8,2.9-0.3,11.5-3.8,14.5c-6,5.2-2.8-10.5-2.8-10.5
						s-3.5,2.5-6.9,3.2c-3.4,0.8-12.1-1.9-15.1-2c-2.9-0.1-7-0.7-8.6-3.9c-1.6-3.3,8.1-7.2,12.4-8.7
						C249.5,245,254.6,244.1,254.6,244.1z"/>
					<path class="st2" d="M264.2,270.1c-0.3,0-0.5-0.1-0.8-0.2c-2.1-1.2-1.2-7.8-0.7-10.8c-1.3,0.8-3.7,2.1-6.1,2.7
						c-2.3,0.5-6.6-0.4-10.3-1.2c-2-0.4-3.8-0.8-4.9-0.8c-3-0.1-7.3-0.7-9-4.2c-0.3-0.6-0.3-1.2,0-1.9c1.2-3,8.5-6,12.7-7.6
						c4.3-1.6,9.4-2.4,9.4-2.4c0.2,0,0.4,0.1,0.5,0.2c0,0,2.5,3.9,4.9,5.9c1,0.9,2.6,1.1,4.3,1.4c2.1,0.4,4.5,0.8,6.1,2.4
						c0.9,0.9,1.3,2.4,1.2,4.2c-0.2,3.9-2.4,8.8-5,11.1C265.6,269.7,264.8,270.1,264.2,270.1z M263.4,257.5c0.1,0,0.2,0,0.3,0.1
						c0.2,0.1,0.3,0.3,0.2,0.5c-0.8,4-1.3,10.1,0,10.9c0.4,0.2,1.1-0.1,2-0.8c2.4-2,4.5-6.8,4.7-10.4c0.1-1.6-0.3-2.8-0.9-3.5
						c-1.4-1.4-3.5-1.8-5.6-2.2c-1.8-0.3-3.6-0.6-4.8-1.7c-2.1-1.8-4.2-4.9-4.9-5.8c-1.2,0.2-5.3,1-8.9,2.3
						c-6.9,2.5-11.4,5.1-12.2,7c-0.2,0.4-0.2,0.7,0,1.1c1.5,3,5.3,3.5,8.1,3.7c1.1,0,2.9,0.4,5,0.9c3.5,0.7,7.9,1.6,9.9,1.2
						c3.3-0.8,6.7-3.1,6.7-3.2C263.2,257.5,263.3,257.5,263.4,257.5z"/>
				</g>
				<g id="XMLID_191_">
					<path class="st4" d="M236.1,248.7c0,0-3.1-0.9-5.1,1.7c-2,2.6-6,14.5-4.8,16.8c1.2,2.3,4.2-0.9,5.6-4.7
						c1.4-3.8,2.4-5.2,2.4-5.2s1.6,0.8,2.7-1.3C238,254,239.1,250.9,236.1,248.7z"/>
					<path class="st2" d="M227.2,268.5c-0.6,0-1.2-0.4-1.5-1c-1.4-2.7,2.9-14.8,4.9-17.3c2.2-2.9,5.6-1.9,5.6-1.9
						c0.1,0,0.1,0,0.1,0.1c2.5,1.8,2.9,4.5,1,8c-0.9,1.6-2.1,1.8-2.9,1.6c-0.4,0.6-1.2,2.1-2.2,4.8c-1,2.7-3.1,5.7-4.9,5.8
						C227.3,268.5,227.3,268.5,227.2,268.5z M234.8,249.1c-1,0-2.3,0.3-3.4,1.7c-2.2,2.8-5.8,14.3-4.8,16.3c0.3,0.5,0.5,0.5,0.7,0.5
						c1-0.1,2.9-2.1,4-5.1c1.4-3.8,2.5-5.2,2.5-5.3c0.1-0.2,0.4-0.3,0.6-0.2c0.1,0.1,1.2,0.5,2-1.1c1.6-3,1.4-5.1-0.6-6.6
						C235.7,249.2,235.3,249.1,234.8,249.1z"/>
				</g>
				<g id="XMLID_202_">
					<path class="st4" d="M241.7,246.7c0,0-3.2-2-6.1,1c-2.8,3-0.9,15.6,0.6,19.5c1.5,3.9,4.3,3.4,4.7,1c0.4-2.4,0.9-14.2,1.1-17
						S241.7,246.7,241.7,246.7z"/>
					<path class="st2" d="M239.1,270.5c-1.3,0-2.6-1.2-3.3-3.2c-1.4-3.7-3.6-16.7-0.5-20c3.1-3.3,6.6-1.1,6.7-1.1
						c0.1,0.1,0.2,0.2,0.2,0.3c0,0.1,0.5,1.8,0.4,4.6c0,0.6-0.1,1.6-0.1,2.8c-0.2,4.6-0.6,12.4-0.9,14.3c-0.2,1.3-1.1,2.2-2.1,2.3
						C239.3,270.5,239.2,270.5,239.1,270.5z M239.3,246.5c-1,0-2.1,0.3-3.2,1.5c-2.6,2.8-0.8,15,0.7,18.9c0.8,2,1.8,2.6,2.5,2.5
						c0.6-0.1,1.1-0.6,1.3-1.5c0.3-1.9,0.7-9.6,0.9-14.2c0.1-1.2,0.1-2.2,0.1-2.8c0.1-2.1-0.2-3.6-0.3-4.1
						C241,246.8,240.2,246.5,239.3,246.5z"/>
				</g>
				<g id="XMLID_200_">
					<path class="st4" d="M247.7,245.3c0,0-3.3-2.1-6.1,1c-2.8,3.2-0.7,16.5,0.8,20.6c1.5,4.1,4.4,3.6,4.7,1.1s0.8-15.1,0.9-18
						C248.2,247.1,247.7,245.3,247.7,245.3z"/>
					<path class="st2" d="M245.4,270.5c-1.3,0-2.6-1.2-3.4-3.4c-1.5-4-3.8-17.6-0.7-21.1c3-3.5,6.7-1.1,6.7-1.1
						c0.1,0.1,0.2,0.2,0.2,0.3c0,0.1,0.5,1.9,0.4,4.9c0,0.6-0.1,1.6-0.1,2.9c-0.2,4.9-0.5,13.1-0.8,15.1c-0.2,1.3-1,2.3-2.1,2.4
						C245.5,270.5,245.5,270.5,245.4,270.5z M245.2,245.1c-1,0-2.1,0.3-3.2,1.6c-2.6,2.9-0.7,15.9,0.9,20.1c0.8,2.1,1.9,2.8,2.6,2.7
						c0.6-0.1,1.1-0.7,1.2-1.5c0.3-2,0.6-10.1,0.8-15c0-1.3,0.1-2.3,0.1-2.9c0.1-2.3-0.2-3.8-0.3-4.4
						C247,245.4,246.2,245.1,245.2,245.1z"/>
				</g>
				<g id="XMLID_199_">
					<path class="st4" d="M256.5,246.9c0,0-2.3-5.2-6.1-4.4c-3.8,0.9-5,6-4.3,13.8c0.7,7.8,2.2,14,4.3,14.2s4.4-4.5,4.8-10.6
						c0.4-6.1,1-9.7,1-9.7"/>
					<path class="st2" d="M250.5,271.1c-0.1,0-0.2,0-0.2,0c-2.8-0.4-4.1-8.2-4.7-14.7c-0.8-8.6,0.8-13.5,4.7-14.3
						c4.1-0.9,6.6,4.4,6.7,4.6c0.1,0.3,0,0.5-0.3,0.7c-0.3,0.1-0.5,0-0.7-0.3c0,0-2.2-4.8-5.6-4.1c-4.1,0.9-4.4,7.7-3.9,13.3
						c0.9,9.9,2.6,13.6,3.8,13.8c0.3,0,0.6-0.1,1-0.4c1.3-1.1,2.9-4.6,3.3-9.7c0.4-6,1-9.7,1.1-9.8c0-0.3,0.3-0.5,0.6-0.4
						c0.3,0,0.5,0.3,0.4,0.6c0,0-0.6,3.7-1,9.7c-0.3,4.7-1.8,8.9-3.6,10.4C251.6,270.9,251,271.1,250.5,271.1z"/>
				</g>
			</g>
			<g id="XMLID_188_">
				<g id="XMLID_185_">
					<rect x="281.8" y="192.4" class="st5" width="23.6" height="36.2"/>
					<path class="st2" d="M305.4,229.1h-23.6c-0.3,0-0.5-0.2-0.5-0.5v-36.2c0-0.3,0.2-0.5,0.5-0.5h23.6c0.3,0,0.5,0.2,0.5,0.5v36.2
						C305.9,228.9,305.6,229.1,305.4,229.1z M282.3,228.1h22.6v-35.2h-22.6V228.1z"/>
				</g>
				<g id="XMLID_186_">
					<rect x="290.9" y="181.9" class="st4" width="4.3" height="16.7"/>
					<path class="st2" d="M295.2,199.1h-4.3c-0.3,0-0.5-0.2-0.5-0.5v-16.7c0-0.3,0.2-0.5,0.5-0.5h4.3c0.3,0,0.5,0.2,0.5,0.5v16.7
						C295.7,198.9,295.5,199.1,295.2,199.1z M291.4,198.1h3.3v-15.7h-3.3V198.1z"/>
				</g>
				<g id="XMLID_187_">
					<rect x="287.6" y="202.5" class="st4" width="10.1" height="13.2"/>
					<path class="st2" d="M297.7,216.3h-10.1c-0.3,0-0.5-0.2-0.5-0.5v-13.2c0-0.3,0.2-0.5,0.5-0.5h10.1c0.3,0,0.5,0.2,0.5,0.5v13.2
						C298.2,216.1,298,216.3,297.7,216.3z M288.1,215.3h9.1V203h-9.1V215.3z"/>
				</g>
				<g id="XMLID_189_">
					<path class="st2" d="M299.8,220.2h-13.9c-0.3,0-0.5-0.2-0.5-0.5s0.2-0.5,0.5-0.5h13.9c0.3,0,0.5,0.2,0.5,0.5
						S300,220.2,299.8,220.2z"/>
				</g>
				<g id="XMLID_190_">
					<path class="st2" d="M301.6,223.1h-17.8c-0.3,0-0.5-0.2-0.5-0.5s0.2-0.5,0.5-0.5h17.8c0.3,0,0.5,0.2,0.5,0.5
						S301.9,223.1,301.6,223.1z"/>
				</g>
			</g>
		</g>
		<g>
			<g id="XMLID_171_">
				<path class="st5" d="M323.1,125.5c0,0-7.6,5.1-9,9.2c-1.4,4.1-7.2,21.4-9.5,27.9c-2.3,6.5-15.4,12.2-13.6,13.4
					c1.8,1.2,18.9,2.8,18.9,2.8s3.9,15.2,4.8,19.1c0.9,3.9,6.2,15.7,6.2,15.7s15.7-18.9,18.2-24c2.5-5.1,5.8-9.9,5.8-9.9
					s6.7,1.6,11,2.3c4.2,0.7,15.9,1.8,15.4-0.2c-0.5-1.9-6.4-10.4-8.7-18.7c-2.3-8.3-0.9-26.5-3.7-33.6c-2.8-7.1-9-8.1-11.1-8.7
					C345.5,120.4,326.2,122.5,323.1,125.5z"/>
				<path class="st2" d="M320.8,214.2C320.7,214.2,320.7,214.2,320.8,214.2c-0.2,0-0.4-0.1-0.5-0.3c-0.2-0.5-5.3-11.9-6.2-15.8
					c-0.8-3.5-4.1-16.5-4.7-18.7c-2.9-0.3-17.1-1.7-18.8-2.9c-0.2-0.2-0.4-0.4-0.4-0.7c0-0.9,1.2-1.7,4-3.7c3.6-2.5,8.5-5.9,9.8-9.6
					c1.4-4,4.1-12,6.3-18.4c1.4-4.3,2.7-7.9,3.3-9.6c1.4-4.1,8.6-9,9.2-9.4c3.5-3.2,23.1-5.2,25-4.7l0.4,0.1c2.5,0.6,8.3,2,11.1,8.9
					c1.5,3.8,1.8,10.9,2.1,17.8c0.3,5.9,0.5,12,1.6,15.9c1.5,5.5,4.6,11.1,6.7,14.8c1,1.9,1.8,3.2,2,3.9c0.1,0.3,0,0.6-0.2,0.9
					c-1.6,1.8-13.6,0.3-15.7-0.1c-3.7-0.6-9.2-1.9-10.7-2.2c-0.7,1.1-3.5,5.2-5.6,9.6c-2.5,5.1-17.6,23.4-18.3,24.1
					C321.1,214.2,320.9,214.2,320.8,214.2z M291.3,175.7c1.6,0.8,12.1,2.1,18.6,2.7c0.2,0,0.4,0.2,0.4,0.4c0,0.2,3.9,15.3,4.8,19.1
					c0.7,3.2,4.7,12.3,5.8,14.9c2.7-3.3,15.5-18.8,17.6-23.3c2.5-5.1,5.8-9.9,5.9-10c0.1-0.2,0.3-0.2,0.5-0.2
					c0.1,0,6.8,1.6,10.9,2.3c5.7,0.9,14.2,1.3,14.8,0.4c-0.2-0.5-0.9-1.9-1.9-3.6c-2.1-3.8-5.2-9.4-6.8-15.1
					c-1.1-3.9-1.4-10.1-1.6-16.1c-0.3-6.8-0.6-13.8-2.1-17.4c-2.6-6.4-8-7.7-10.4-8.3l-0.4-0.1c-2-0.5-21,1.6-24.1,4.5
					c0,0,0,0-0.1,0.1c-0.1,0.1-7.5,5.1-8.8,8.9c-0.6,1.6-1.8,5.3-3.3,9.5c-2.2,6.4-4.9,14.4-6.3,18.4c-1.4,4-6.5,7.5-10.2,10.1
					C293.4,173.9,291.6,175.2,291.3,175.7z M323.1,125.5L323.1,125.5L323.1,125.5z"/>
			</g>
			<g>
				<g id="XMLID_172_">
					<path class="st4" d="M320.6,120c0,0,2.3,12.9,1.9,23.3c-0.4,10.4-4.1,33.8-3.9,45.8c0.2,12,1.9,23.9,1.9,23.9
						s17.3-23.9,23.7-43.3c6.4-19.4,8.1-36.1,8.1-37.3c0-1.2,0.4-30.1,0.4-30.1S334.4,121.6,320.6,120z"/>
					<path class="st2" d="M320.6,213.5c0,0-0.1,0-0.1,0c-0.2,0-0.3-0.2-0.4-0.4c0-0.1-1.8-12-2-23.9c-0.1-7,1.1-17.9,2.2-27.6
						c0.8-7.1,1.5-13.9,1.7-18.2c0.3-10.3-1.9-23.1-1.9-23.2c0-0.2,0-0.3,0.1-0.4c0.1-0.1,0.3-0.2,0.4-0.2
						c13.4,1.5,31.6-17.3,31.8-17.5c0.1-0.1,0.4-0.2,0.5-0.1c0.2,0.1,0.3,0.3,0.3,0.5c0,0.3-0.4,28.8-0.4,30c0,1.3-1.8,18-8.2,37.5
						c-6.3,19.3-23.6,43.2-23.8,43.4C320.9,213.4,320.7,213.5,320.6,213.5z M321.2,120.6c0.5,2.8,2.1,13.8,1.8,22.8
						c-0.2,4.4-0.9,11.2-1.7,18.3c-1.1,9.6-2.3,20.5-2.2,27.4c0.1,9.6,1.3,19.2,1.8,22.6c3.4-4.8,17.4-25.3,22.9-42.1
						c6.3-19.4,8.1-35.9,8.1-37.1c0-1.1,0.3-23.2,0.3-28.8C348.5,107.4,333.4,121.4,321.2,120.6z"/>
				</g>
				<g>
					<path class="st2" d="M352.6,114.6c0.1-6.5,0.1-12.2,0.1-12.2s-18.4,19.3-32.2,17.7c0,0,0.6,3.6,1.2,8.6
						c2.1,1.4,4.2,2.4,5.9,2.7c6.4,1.3,13.5-2.3,18.4-8.4C347.9,120.7,350.3,117.6,352.6,114.6z"/>
					<path class="st2" d="M330.3,132.1c-0.9,0-1.8-0.1-2.7-0.3c-1.6-0.3-3.6-1.2-6.1-2.8c-0.1-0.1-0.2-0.2-0.2-0.4
						c-0.5-4.9-1.2-8.5-1.2-8.6c0-0.2,0-0.3,0.1-0.4c0.1-0.1,0.3-0.2,0.4-0.2c13.4,1.5,31.6-17.3,31.8-17.5c0.1-0.1,0.4-0.2,0.5-0.1
						c0.2,0.1,0.3,0.3,0.3,0.5l-0.1,12.2c0,0.1,0,0.2-0.1,0.3c-2.3,3-4.7,6.1-6.5,8.3C342.1,128.8,336,132.1,330.3,132.1z
						 M322.3,128.3c2.2,1.4,4.1,2.2,5.5,2.5c6,1.2,13-2,17.9-8.2c1.8-2.2,4.1-5.2,6.4-8.2l0.1-10.8c-3.8,3.8-18.8,17.8-31.1,17
						C321.4,121.8,321.9,124.7,322.3,128.3z M352.6,114.6L352.6,114.6L352.6,114.6z"/>
				</g>
			</g>
		</g>
		<g>
			<g id="XMLID_167_">
				<ellipse class="st2" cx="365.2" cy="38.6" rx="17.6" ry="17.4"/>
				<path class="st2" d="M365.2,56.5c-10,0-18.1-8-18.1-17.9s8.1-17.9,18.1-17.9s18.1,8,18.1,17.9S375.2,56.5,365.2,56.5z
					 M365.2,21.7c-9.4,0-17.1,7.6-17.1,16.9s7.7,16.9,17.1,16.9c9.4,0,17.1-7.6,17.1-16.9S374.7,21.7,365.2,21.7z"/>
			</g>
			<g id="XMLID_156_">
				<path class="st2" d="M294,69c0,0-9.4-2.6-11-7.7c-1.5-5.1,4.1-23,22.5-32.2c18.4-9.2,35.2-4.1,42.6-2c7.4,2,12.8,5.9,17.6,19.4
					c4.9,13.5,5.1,24,3.6,29.1c-1.5,5.1-3.3,8.9-3.3,8.9s-9.4,1-12-2.8c-2.6-3.8-1.5-23-12.5-27.6c-11-4.6-31.9-2-37,2.6
					C299.4,61.4,294,69,294,69z"/>
				<path class="st2" d="M363.2,85.2c-3.1,0-7.9-0.5-9.7-3.2c-0.8-1.2-1.3-3.8-1.8-7c-1.3-7.3-3-17.3-10.5-20.4
					c-11.2-4.7-31.8-1.8-36.5,2.5c-5,4.5-10.3,12.1-10.4,12.2c-0.1,0.2-0.3,0.2-0.5,0.2c-0.4-0.1-9.7-2.7-11.3-8
					c-1.6-5.4,4.3-23.6,22.7-32.8c18-9,34.4-4.5,42.3-2.3l0.7,0.2c7.7,2.1,13,6,18,19.7c5,13.9,5.1,24.3,3.6,29.4
					c-1.5,5.1-3.3,9-3.3,9c-0.1,0.2-0.2,0.3-0.4,0.3C365.9,85.1,364.8,85.2,363.2,85.2z M326.3,51.3c5.6,0,11.2,0.8,15.4,2.5
					c7.9,3.3,9.8,14,11.1,21.1c0.5,3,1,5.5,1.7,6.6c2.1,3.2,9.7,2.7,11.2,2.6c0.4-0.9,1.9-4.3,3.2-8.6c1.4-4.7,1.3-15.1-3.6-28.8
					c-4.8-13.3-9.9-17.1-17.3-19.1l-0.7-0.2c-7.8-2.2-23.9-6.6-41.6,2.2c-17.9,8.9-23.8,26.4-22.2,31.6c1.3,4.3,8.6,6.7,10.3,7.2
					c1-1.5,5.8-8,10.3-12C307.6,53.3,317,51.3,326.3,51.3z"/>
			</g>
			<g>
				<g id="XMLID_157_">
					<path class="st4" d="M292.5,65.7c0,0,2.3,14.6,2.3,22.5s6.4,18.9,9.7,22c3.3,3.1,14.3,13.5,20.7,14.8
						c6.4,1.3,13.5-2.3,18.4-8.4c4.9-6.1,14.3-18.4,14.3-18.4s7.1,1,9.7-6.4c2.6-7.4,1.3-15.8-3.1-16.9c-4.3-1-7.4,4.1-7.4,4.1
						s-3.6-13.8-8.2-20.7s-6.6-10-6.6-10l8.5-10.6c0.4-0.5,0.3-1.2-0.2-1.6l0,0c-0.5-0.3-1.1-0.2-1.5,0.2l-8.3,10.7
						c0,0-16.3-2.8-30.6,4.3C295.8,58.6,292.5,65.7,292.5,65.7z"/>
					<path class="st2" d="M327.8,125.7c-0.9,0-1.8-0.1-2.7-0.3c-6.2-1.2-16.4-10.8-20.3-14.3l-0.6-0.6c-3.4-3.1-9.9-14.3-9.9-22.3
						c0-7.8-2.3-22.2-2.3-22.4c0-0.1,0-0.2,0-0.3c0.1-0.3,3.6-7.4,17.8-14.5c13.2-6.6,28.3-4.8,30.6-4.4l8.1-10.4
						c0.5-0.7,1.5-0.8,2.2-0.3c0.4,0.3,0.6,0.6,0.7,1.1c0.1,0.4-0.1,0.9-0.3,1.2l-8.2,10.3l6.4,9.7c3.9,5.9,7,16.4,8,19.8
						c1.2-1.5,3.8-4.2,7.3-3.4c1.3,0.3,2.5,1.3,3.3,2.7c1.9,3.5,2,9.4,0.1,14.8c-2.4,6.8-8.5,6.8-9.9,6.7
						c-1.3,1.7-9.7,12.6-14.1,18.2C339.5,122.4,333.4,125.7,327.8,125.7z M293,65.8c0.3,1.6,2.3,15,2.3,22.4
						c0,7.8,6.3,18.6,9.5,21.6l0.6,0.6c3.8,3.5,13.9,12.9,19.8,14.1c6,1.2,13-2,17.9-8.2c4.8-6.1,14.2-18.3,14.3-18.4
						c0.1-0.1,0.3-0.2,0.5-0.2c0.3,0,6.8,0.9,9.2-6.1c1.7-5,1.7-10.7-0.1-13.9c-0.7-1.2-1.6-2-2.6-2.3c-3.9-0.9-6.8,3.8-6.9,3.9
						c-0.1,0.2-0.3,0.3-0.5,0.2c-0.2,0-0.4-0.2-0.4-0.4c0-0.1-3.6-13.8-8.1-20.5l-6.6-10c-0.1-0.2-0.1-0.4,0-0.6l8.5-10.6
						c0.1-0.1,0.1-0.3,0.1-0.4s-0.1-0.3-0.2-0.4c-0.3-0.2-0.6-0.1-0.8,0.1l-8.3,10.7c-0.1,0.1-0.3,0.2-0.5,0.2
						c-0.2,0-16.3-2.7-30.3,4.3C297.4,58.3,293.5,64.8,293,65.8z"/>
				</g>
				<g id="XMLID_164_">
					<path class="st2" d="M342.6,83.7c-0.1,0-0.2,0-0.3-0.1c-0.2-0.2-0.3-0.5-0.1-0.7l2.3-3.1c0.2-0.2,0.5-0.3,0.7-0.1
						c0.2,0.2,0.3,0.5,0.1,0.7l-2.3,3.1C342.9,83.6,342.8,83.7,342.6,83.7z"/>
				</g>
				<g id="XMLID_158_">
					<path class="st2" d="M319.1,100.6c-0.7,0-1.3-0.1-2-0.2c-3.5-0.8-4.1-2.4-4.2-2.6c-0.1-0.3,0.1-0.5,0.3-0.6
						c0.3-0.1,0.5,0,0.6,0.3c0,0,0.6,1.3,3.5,2c3,0.7,5.9-0.4,7.9-2.9c0.2-0.2,0.5-0.2,0.7-0.1c0.2,0.2,0.2,0.5,0.1,0.7
						C324.3,99.4,321.8,100.6,319.1,100.6z"/>
				</g>
				<g id="XMLID_160_">
					<path class="st2" d="M326.1,112.8c-0.7,0-1.2-0.2-1.7-0.5c-1.3-0.8-1.6-2.5-1.7-3.2l-5.6-2.9c-0.2-0.1-0.3-0.4-0.2-0.6
						c0.1-0.2,0.4-0.4,0.6-0.3c0.1,0,9.3,2.6,17.1-5.2c0.2-0.2,0.4-0.2,0.6-0.1c0.2,0.1,0.3,0.3,0.2,0.6c-0.1,0.4-2.4,10-7.2,11.8
						C327.4,112.7,326.7,112.8,326.1,112.8z M320.1,106.7l3.3,1.7c0.2,0.1,0.3,0.2,0.3,0.4c0,0,0.1,1.9,1.3,2.7
						c0.7,0.4,1.7,0.4,2.9,0c3.2-1.2,5.2-6.7,6.1-9.5C328.8,106.4,323.3,106.9,320.1,106.7z"/>
				</g>
				<g id="XMLID_161_">
					<path class="st2" d="M326.4,87.4c-0.2,0-0.5-0.1-0.7-0.3c-0.4-0.4-0.4-1,0-1.4c0.3-0.3,6.9-7,17-4.6c0.5,0.1,0.9,0.7,0.7,1.2
						c-0.1,0.5-0.7,0.9-1.2,0.7c-9-2.1-14.9,3.8-15.1,4.1C327,87.3,326.7,87.4,326.4,87.4z"/>
				</g>
				<g id="XMLID_159_">
					<path class="st2" d="M309.8,86.9c-0.3,0-0.5-0.1-0.7-0.3c-0.2-0.2-5.2-5.1-10.3-2.4c-0.5,0.3-1.1,0.1-1.3-0.4
						c-0.3-0.5-0.1-1.1,0.4-1.3c6.5-3.4,12.4,2.5,12.7,2.7c0.4,0.4,0.4,1,0,1.4C310.3,86.8,310.1,86.9,309.8,86.9z"/>
				</g>
				<g id="XMLID_163_">
					<path class="st2" d="M299.4,85.4c-0.1,0-0.3,0-0.4-0.1l-2.8-2.8c-0.2-0.2-0.2-0.5,0-0.7s0.5-0.2,0.7,0l2.8,2.8
						c0.2,0.2,0.2,0.5,0,0.7C299.6,85.3,299.5,85.4,299.4,85.4z"/>
				</g>
				<g id="XMLID_165_">
					<path class="st2" d="M324.6,73.1c-0.1,0-0.2,0-0.3-0.1c-0.2-0.2-0.2-0.5-0.1-0.7c0.1-0.1,8-9.1,19.3-0.6
						c0.2,0.2,0.3,0.5,0.1,0.7c-0.2,0.2-0.5,0.3-0.7,0.1c-10.6-7.9-17.7,0.1-18,0.4C324.9,73.1,324.8,73.1,324.6,73.1z"/>
				</g>
				<g id="XMLID_166_">
					<path class="st2" d="M295.5,73.6c-0.1,0-0.3-0.1-0.4-0.2c-0.2-0.2-0.2-0.5,0-0.7c7.1-6.3,14.4-0.8,14.4-0.8
						c0.2,0.2,0.3,0.5,0.1,0.7c-0.2,0.2-0.5,0.3-0.7,0.1c-0.3-0.2-6.7-5-13.1,0.7C295.8,73.6,295.7,73.6,295.5,73.6z"/>
				</g>
				<g id="XMLID_162_">
					<path class="st2" d="M332.4,85c0,0.7-0.6,1.2-1.2,1.2c-0.7,0-1.2-0.6-1.2-1.2c0-0.7,0.6-1.2,1.2-1.2
						C331.9,83.8,332.4,84.3,332.4,85z"/>
				</g>
				<g id="XMLID_168_">
					<path class="st2" d="M303.3,84c0,0.7-0.6,1.2-1.2,1.2c-0.7,0-1.2-0.6-1.2-1.2c0-0.7,0.6-1.2,1.2-1.2
						C302.7,82.7,303.3,83.3,303.3,84z"/>
				</g>
			</g>
		</g>
		<g>
			<g id="XMLID_169_">
				<path class="st5" d="M363.6,59.1c0,0,0.9,11.5-1.2,20.2l3.4,1.1c0,0,2.7-13.3,1.4-20.7L363.6,59.1z"/>
				<path class="st2" d="M365.7,80.8c-0.1,0-0.1,0-0.2,0l-3.4-1.1c-0.3-0.1-0.4-0.3-0.3-0.6c2.1-8.5,1.2-19.9,1.2-20
					c0-0.2,0-0.3,0.2-0.4c0.1-0.1,0.3-0.1,0.4-0.1l3.5,0.5c0.2,0,0.4,0.2,0.4,0.4c1.2,7.4-1.3,20.3-1.4,20.9c0,0.1-0.1,0.3-0.2,0.3
					C365.9,80.8,365.8,80.8,365.7,80.8z M362.9,78.9l2.4,0.8c0.5-2.5,2.3-13.2,1.4-19.6l-2.6-0.4C364.3,62.1,364.6,71.5,362.9,78.9z
					"/>
			</g>
			<g id="XMLID_170_">
				<path class="st5" d="M340.7,25.5c0,0,11.7,5.1,15.7,18.2c4.1,13.1,3.5,17.1,6,18.6c2.5,1.4,7.2,2.3,7.4-0.9
					c0.2-3.2-0.9-17.4-8-26.2C356.6,28.5,345.2,25.6,340.7,25.5z"/>
				<path class="st2" d="M367.1,64c-1.7,0-3.6-0.7-4.8-1.3c-1.7-0.9-2.1-2.8-3.1-6.9c-0.6-2.8-1.5-6.6-3.2-11.9
					c-4-12.7-15.3-17.8-15.5-17.9c-0.2-0.1-0.3-0.3-0.3-0.6c0.1-0.2,0.3-0.4,0.5-0.4c4.9,0.2,16.3,3.3,21.6,9.9
					c7.4,9.2,8.2,24,8.1,26.5c-0.1,1-0.5,1.8-1.3,2.2C368.5,63.9,367.8,64,367.1,64z M343.2,26.2c3.7,2.2,10.8,7.7,13.8,17.3
					c1.7,5.4,2.6,9.2,3.2,12c0.9,3.8,1.3,5.6,2.6,6.3c1.8,1,4.6,1.6,5.9,0.9c0.5-0.3,0.8-0.7,0.8-1.4c0.1-2.5-0.7-16.8-7.8-25.8
					C357.2,30.1,348.6,27.1,343.2,26.2z"/>
			</g>
			<g id="XMLID_175_">
				<path class="st5" d="M365,76.7c-5.1-1.6-10.7,2-12.5,7.9c-1.7,5.5,0.5,11.1,4.8,13.1c-1.7,4.3-5.9,13.5-13.9,21.8
					c-1-0.2-2.2,0.1-3.3,0.8c-1.8,1.2-2.6,3.2-1.8,4.5c0.8,1.3,3,1.3,4.8,0.1c1.7-1.1,2.5-3,1.9-4.2c8.3-8.6,12.5-17.9,14.2-22.3
					c4.9,1,10-2.5,11.7-8.1C372.7,84.3,370.1,78.2,365,76.7z"/>
				<path class="st2" d="M340.3,126.3C340.3,126.3,340.3,126.3,340.3,126.3c-1.1,0-2-0.4-2.5-1.2c-0.5-0.7-0.6-1.7-0.2-2.7
					c0.4-0.9,1.1-1.8,2.1-2.5c1.1-0.7,2.3-1.1,3.4-1c7.5-7.8,11.6-16.3,13.5-21c-4.3-2.3-6.3-8-4.6-13.5c0.9-3,2.8-5.5,5.2-7
					c2.5-1.6,5.3-2,7.9-1.2c2.6,0.8,4.7,2.7,5.9,5.4c1.2,2.7,1.3,5.8,0.4,8.8c-1.7,5.6-6.9,9.3-11.9,8.5c-1.9,4.8-6.1,13.6-14,21.9
					c0.4,1.5-0.5,3.3-2.2,4.5C342.4,125.9,341.3,126.3,340.3,126.3z M342.7,119.9c-0.8,0-1.7,0.3-2.4,0.8c-0.8,0.5-1.4,1.2-1.7,2
					c-0.3,0.7-0.3,1.3,0.1,1.8c0.3,0.5,0.9,0.7,1.6,0.7c0,0,0,0,0,0c0.8,0,1.7-0.3,2.5-0.8c1.5-1,2.2-2.6,1.7-3.6
					c-0.1-0.2,0-0.4,0.1-0.6c8.1-8.4,12.3-17.5,14.1-22.1c0.1-0.2,0.3-0.4,0.6-0.3c4.6,0.9,9.5-2.5,11.1-7.8
					c0.8-2.8,0.7-5.6-0.4-8.1c-1.1-2.4-2.9-4.2-5.2-4.9l0,0c-2.3-0.7-4.8-0.3-7.1,1.1c-2.3,1.4-4,3.7-4.8,6.5
					c-1.6,5.2,0.4,10.5,4.5,12.5c0.2,0.1,0.3,0.4,0.3,0.6c-1.8,4.7-6,13.7-14.1,21.9c-0.1,0.1-0.3,0.2-0.4,0.1
					C343.1,119.9,342.9,119.9,342.7,119.9z"/>
			</g>
			<g>
				<path class="st5" d="M369.3,88.2c-0.9,3.8-4.3,6.2-7.6,5.5c-3.4-0.8-5.4-4.4-4.5-8.2c0.9-3.8,4.3-6.2,7.6-5.5
					C368.1,80.8,370.2,84.5,369.3,88.2z"/>
				<path class="st2" d="M362.9,94.4c-0.4,0-0.9,0-1.3-0.1c-3.6-0.8-5.8-4.8-4.9-8.8c0.4-2,1.5-3.6,3.1-4.7c1.6-1.1,3.4-1.5,5.1-1.1
					c1.8,0.4,3.2,1.5,4.2,3.2c0.9,1.7,1.2,3.7,0.7,5.6C369,91.9,366.1,94.4,362.9,94.4z M363.6,80.4c-1.1,0-2.2,0.4-3.2,1.1
					c-1.3,1-2.3,2.4-2.7,4.2c-0.8,3.5,1.1,6.9,4.1,7.6c3.1,0.7,6.2-1.6,7-5.1c0.4-1.7,0.2-3.5-0.6-4.9c-0.8-1.4-2-2.4-3.5-2.7
					C364.3,80.4,363.9,80.4,363.6,80.4z"/>
			</g>
		</g>
		<g>
			<g id="XMLID_184_">
				<g id="XMLID_180_">
					<path class="st4" d="M368.3,150.6c0,0-4.9-12.4-6-14.7c-1.1-2.3,7.6-15.9,9-17.9c1.4-1.9,4.1-6,4.1-6.9
						c0-0.9-10.1-10.8-12.2-12.4c-2.1-1.6-5.7,1.9-5.7,1.9s-9.2,12.2-9.2,13.6s4.4,5.8,4.4,5.8s-6.9,9.9-6,13.8
						c0.9,3.9,4.4,7.2,4.4,7.2l4.9,19.1L368.3,150.6z"/>
					<path class="st2" d="M356.1,160.8c-0.1,0-0.1,0-0.2,0c-0.2-0.1-0.3-0.2-0.3-0.3l-4.9-19c-0.6-0.6-3.6-3.7-4.5-7.4
						c-0.8-3.7,4.6-12,5.9-13.8c-1.2-1.2-4.3-4.5-4.3-5.9c0-1.5,7.1-11,9.3-13.9c0.2-0.2,3.9-3.9,6.4-2c1.1,0.8,12.4,11.4,12.4,12.8
						c0,1.4-4.1,7.1-4.2,7.2c-2.4,3.3-9.8,15.6-9,17.4c1.1,2.3,5.8,14.2,6,14.7c0.1,0.2,0,0.4-0.2,0.6l-12.2,9.7
						C356.3,160.8,356.2,160.8,356.1,160.8z M361.9,98.9c-1.5,0-3.3,1.5-4,2.2c-4.3,5.8-9,12.4-9,13.3c0,0.7,2.2,3.4,4.3,5.5
						c0.2,0.2,0.2,0.4,0.1,0.6c-1.9,2.7-6.6,10.4-5.9,13.4c0.8,3.7,4.2,7,4.3,7c0.1,0.1,0.1,0.1,0.1,0.2l4.8,18.3l11.3-9
						c-0.8-2-4.9-12.3-5.9-14.3c-1.3-2.9,9-18.2,9.1-18.4c1.8-2.4,4-6,4-6.6c-0.4-1-9.8-10.3-12-12C362.6,99,362.3,98.9,361.9,98.9z
						"/>
				</g>
				<g id="XMLID_179_">
					<path class="st2" d="M352.8,120.7c-0.1,0-0.3-0.1-0.4-0.2c-0.2-0.2-0.1-0.5,0.1-0.7c3-2.4,5.5-5,5.3-5.6
						c-0.4-1-1.8-0.9-1.8-0.9c-0.3,0-0.5-0.2-0.5-0.4c0-0.3,0.2-0.5,0.4-0.5c0.1,0,2.2-0.2,2.8,1.6c0.6,1.6-3.7,5.3-5.6,6.8
						C353,120.7,352.9,120.7,352.8,120.7z"/>
				</g>
				<g id="XMLID_181_">
					<path class="st2" d="M371.3,118.6c-0.1,0-0.2,0-0.2-0.1c-0.2-0.1-0.3-0.4-0.2-0.7c0,0,1-1.9,1.4-3.6
						c-0.2-1.6-13.8-10.8-15.3-11.4c-0.2,0-0.4-0.2-0.4-0.5c0-0.3,0.2-0.5,0.5-0.5c0.9,0,13.4,8.5,15.7,11.3
						c0.4,0.5,0.6,0.9,0.5,1.3c-0.4,1.8-1.4,3.8-1.5,3.9C371.7,118.5,371.5,118.6,371.3,118.6z"/>
				</g>
				<g id="XMLID_182_">
					<path class="st2" d="M372.7,114.9c-0.1,0-0.3-0.1-0.4-0.2c-0.2-0.2-0.2-0.5,0-0.7c0,0,1.2-1.1,0.9-2.3
						c-0.4-1-7.8-6.1-14.8-10.5c-0.2-0.1-0.3-0.5-0.2-0.7c0.1-0.2,0.5-0.3,0.7-0.2c3.5,2.2,14.9,9.4,15.2,11.1
						c0.4,1.9-1.2,3.3-1.2,3.3C373,114.8,372.9,114.9,372.7,114.9z"/>
				</g>
				<g id="XMLID_183_">
					<path class="st2" d="M373.4,115.2c-0.1,0-0.2,0-0.3-0.1c-0.2-0.2-0.2-0.5-0.1-0.7c0,0,1.5-1.9,1.8-3.3
						c-0.2-1-7.7-6.7-14.8-11.5c-0.2-0.2-0.3-0.5-0.1-0.7c0.2-0.2,0.5-0.3,0.7-0.1c7.1,4.8,15.6,11,15.2,12.5c-0.4,1.7-2,3.7-2,3.7
						C373.7,115.2,373.6,115.2,373.4,115.2z"/>
				</g>
			</g>
			<g id="XMLID_177_">
				<path class="st2" d="M370.4,149.2l-23.7,13.6c0,0,30.8,73.2,36.4,83.1c5.7,9.9,20.9,12.2,28.8,9.5c8-2.7,11.8-18.6,9.2-25.3
					c-2.7-6.7-21.7-36.1-30.9-50.7C381,164.8,370.4,149.2,370.4,149.2z"/>
				<path class="st2" d="M405,256.9c-8.1,0-17.9-3.3-22.2-10.8c-5.6-9.8-36.1-82.4-36.4-83.1c-0.1-0.2,0-0.5,0.2-0.6l23.7-13.6
					c0.2-0.1,0.5-0.1,0.7,0.2c0.1,0.2,10.7,15.7,19.8,30.2c2,3.2,4.5,7.1,7.2,11.4c9.7,15.2,21.7,34.2,23.8,39.5
					c1.7,4.3,0.8,12-2,18c-1.4,2.9-3.8,6.7-7.5,8C410.1,256.6,407.6,256.9,405,256.9z M347.4,163c2.5,5.9,30.9,73.2,36.2,82.6
					c5.5,9.6,20.4,11.9,28.2,9.3c2.7-0.9,5.1-3.5,7-7.4c2.7-5.8,3.5-13.2,1.9-17.2c-2.1-5.2-14.1-24.1-23.7-39.3
					c-2.7-4.2-5.2-8.2-7.2-11.4c-8.3-13.2-17.8-27.3-19.5-29.8L347.4,163z"/>
			</g>
			<g>
				<path class="st6" d="M390.6,248.3c-0.2,0-0.3-0.1-0.4-0.2c-6.6-9.9-32.4-59.5-32.7-60c-0.1-0.2,0-0.5,0.2-0.7
					c0.2-0.1,0.5,0,0.7,0.2c0.3,0.5,26.1,50.1,32.6,60c0.2,0.2,0.1,0.5-0.1,0.7C390.8,248.3,390.7,248.3,390.6,248.3z"/>
			</g>
			<g>
				<path class="st6" d="M409.3,211.6c-0.2,0-0.3-0.1-0.4-0.2l-36.7-56c-0.2-0.2-0.1-0.5,0.1-0.7c0.2-0.2,0.5-0.1,0.7,0.1l36.7,56
					c0.2,0.2,0.1,0.5-0.1,0.7C409.4,211.6,409.3,211.6,409.3,211.6z"/>
			</g>
		</g>
	</g>
	<g>
		<g id="XMLID_152_">
			<g id="XMLID_201_">
				<path class="st4" d="M268.6,82.7V50.5c0-2.6-2.1-4.7-4.7-4.7h-78.5c-2.6,0-4.7,2.1-4.7,4.7v32.2c0,2.6,2.1,4.7,4.7,4.7h67.4
					l15.3,14.8l-3.1-14.9C267.1,86.7,268.6,84.9,268.6,82.7z"/>
				<path class="st2" d="M268.2,102.7c-0.1,0-0.3,0-0.3-0.1l-15.2-14.6h-67.2c-2.9,0-5.2-2.3-5.2-5.2V50.5c0-2.9,2.3-5.2,5.2-5.2
					h78.5c2.9,0,5.2,2.3,5.2,5.2v32.2c0,2.2-1.4,4.1-3.4,4.8l3,14.5c0,0.2-0.1,0.4-0.2,0.5C268.3,102.6,268.3,102.7,268.2,102.7z
					 M185.4,46.3c-2.3,0-4.2,1.9-4.2,4.2v32.2c0,2.3,1.9,4.2,4.2,4.2h67.4c0.1,0,0.3,0.1,0.3,0.1l14.2,13.6l-2.7-13.4
					c-0.1-0.3,0.1-0.5,0.4-0.6c1.8-0.5,3.1-2.1,3.1-4V50.5c0-2.3-1.9-4.2-4.2-4.2H185.4z"/>
			</g>
			<g id="XMLID_194_">
				<g id="XMLID_192_">
					<circle class="st2" cx="209.2" cy="66" r="3.5"/>
				</g>
				<g id="XMLID_197_">
					<circle class="st2" cx="224.7" cy="66" r="3.5"/>
				</g>
				<g id="XMLID_198_">
					<circle class="st2" cx="240.2" cy="66" r="3.5"/>
				</g>
			</g>
		</g>
		<g id="XMLID_196_">
			<path class="st3" d="M193.5,82v-7.2l-7.6-1.7c-0.4-1.5-1-2.9-1.7-4.2l4.2-6.5l-5.1-5.1l-6.5,4.2c-1.3-0.7-2.7-1.3-4.2-1.7
				l-1.7-7.6h-7.2l-1.7,7.6c-1.5,0.4-2.9,1-4.2,1.7l-6.5-4.2l-5.1,5.1l4.2,6.5c-0.7,1.3-1.3,2.7-1.7,4.2l-7.6,1.7V82l7.6,1.7
				c0.4,1.5,1,2.9,1.7,4.2l-4.2,6.5l5.1,5.1l6.5-4.2c1.3,0.7,2.7,1.3,4.2,1.7l1.7,7.6h7.2l1.7-7.6c1.5-0.4,2.9-1,4.2-1.7l6.5,4.2
				l5.1-5.1l-4.2-6.5c0.7-1.3,1.3-2.7,1.7-4.2L193.5,82z M167.2,87.7c-5.1,0-9.3-4.2-9.3-9.3c0-5.1,4.2-9.3,9.3-9.3
				c5.1,0,9.3,4.2,9.3,9.3C176.5,83.5,172.4,87.7,167.2,87.7z"/>
			<path class="st2" d="M170.8,105.1h-7.2c-0.2,0-0.4-0.2-0.5-0.4l-1.6-7.3c-1.3-0.4-2.6-0.9-3.8-1.5l-6.3,4
				c-0.2,0.1-0.5,0.1-0.6-0.1l-5.1-5.1c-0.2-0.2-0.2-0.4-0.1-0.6l4-6.3c-0.6-1.2-1.2-2.4-1.5-3.8l-7.3-1.6c-0.2-0.1-0.4-0.3-0.4-0.5
				v-7.2c0-0.2,0.2-0.4,0.4-0.5l7.3-1.6c0.4-1.3,0.9-2.6,1.5-3.8l-4-6.3c-0.1-0.2-0.1-0.5,0.1-0.6l5.1-5.1c0.2-0.2,0.4-0.2,0.6-0.1
				l6.3,4c1.2-0.6,2.4-1.2,3.8-1.5l1.6-7.3c0.1-0.2,0.3-0.4,0.5-0.4h7.2c0.2,0,0.4,0.2,0.5,0.4l1.6,7.3c1.3,0.4,2.6,0.9,3.8,1.5
				l6.3-4c0.2-0.1,0.5-0.1,0.6,0.1l5.1,5.1c0.2,0.2,0.2,0.4,0.1,0.6l-4,6.3c0.6,1.2,1.2,2.4,1.5,3.8l7.3,1.6
				c0.2,0.1,0.4,0.3,0.4,0.5V82c0,0.2-0.2,0.4-0.4,0.5l-7.3,1.6c-0.4,1.3-0.9,2.6-1.5,3.8l4,6.3c0.1,0.2,0.1,0.5-0.1,0.6l-5.1,5.1
				c-0.2,0.2-0.4,0.2-0.6,0.1l-6.3-4c-1.2,0.6-2.4,1.2-3.8,1.5l-1.6,7.3C171.3,105,171.1,105.1,170.8,105.1z M164,104.1h6.4l1.6-7.2
				c0-0.2,0.2-0.3,0.4-0.4c1.4-0.4,2.8-1,4.1-1.7c0.2-0.1,0.4-0.1,0.5,0l6.2,3.9l4.5-4.5l-3.9-6.2c-0.1-0.2-0.1-0.4,0-0.5
				c0.7-1.3,1.3-2.6,1.7-4.1c0-0.2,0.2-0.3,0.4-0.4l7.2-1.6v-6.4l-7.2-1.6c-0.2,0-0.3-0.2-0.4-0.4c-0.4-1.4-1-2.8-1.7-4.1
				c-0.1-0.2-0.1-0.4,0-0.5l3.9-6.2l-4.5-4.5l-6.2,3.9c-0.2,0.1-0.4,0.1-0.5,0c-1.3-0.7-2.6-1.3-4.1-1.7c-0.2,0-0.3-0.2-0.4-0.4
				l-1.6-7.2H164l-1.6,7.2c0,0.2-0.2,0.3-0.4,0.4c-1.4,0.4-2.8,1-4.1,1.7c-0.2,0.1-0.4,0.1-0.5,0l-6.2-3.9l-4.5,4.5l3.9,6.2
				c0.1,0.2,0.1,0.4,0,0.5c-0.7,1.3-1.3,2.6-1.7,4.1c0,0.2-0.2,0.3-0.4,0.4l-7.2,1.6v6.4l7.2,1.6c0.2,0,0.3,0.2,0.4,0.4
				c0.4,1.4,1,2.8,1.7,4.1c0.1,0.2,0.1,0.4,0,0.5l-3.9,6.2l4.5,4.5l6.2-3.9c0.2-0.1,0.4-0.1,0.5,0c1.3,0.7,2.6,1.3,4.1,1.7
				c0.2,0.1,0.3,0.2,0.4,0.4L164,104.1z M193.5,82L193.5,82L193.5,82z M167.2,88.2c-5.4,0-9.8-4.4-9.8-9.8s4.4-9.8,9.8-9.8
				c5.4,0,9.8,4.4,9.8,9.8S172.6,88.2,167.2,88.2z M167.2,69.6c-4.9,0-8.8,3.9-8.8,8.8s3.9,8.8,8.8,8.8c4.9,0,8.8-3.9,8.8-8.8
				S172.1,69.6,167.2,69.6z"/>
		</g>
	</g>
	<g>
		<g>
			
				<rect x="130" y="264.4" transform="matrix(-1 -1.224647e-16 1.224647e-16 -1 425.4405 535.4919)" class="st4" width="165.4" height="6.7"/>
			<path class="st2" d="M295.4,271.6H130c-0.3,0-0.5-0.2-0.5-0.5v-6.7c0-0.3,0.2-0.5,0.5-0.5h165.4c0.3,0,0.5,0.2,0.5,0.5v6.7
				C295.9,271.4,295.7,271.6,295.4,271.6z M130.5,270.6h164.4v-5.7H130.5V270.6z"/>
		</g>
		<g>
			
				<rect x="104.6" y="264.4" transform="matrix(-1 -1.224647e-16 1.224647e-16 -1 353.4118 535.4919)" class="st4" width="144.2" height="6.7"/>
			<path class="st2" d="M248.8,271.6H104.6c-0.3,0-0.5-0.2-0.5-0.5v-6.7c0-0.3,0.2-0.5,0.5-0.5h144.2c0.3,0,0.5,0.2,0.5,0.5v6.7
				C249.3,271.4,249.1,271.6,248.8,271.6z M105.1,270.6h143.2v-5.7H105.1V270.6z"/>
		</g>
		<g>
			<polygon class="st4" points="101.8,252.5 239.7,252.5 224.9,147.3 87,147.3 			"/>
			<path class="st2" d="M239.7,253H101.8c-0.2,0-0.5-0.2-0.5-0.4L86.5,147.3c0-0.1,0-0.3,0.1-0.4c0.1-0.1,0.2-0.2,0.4-0.2h137.9
				c0.2,0,0.5,0.2,0.5,0.4l14.9,105.3c0,0.1,0,0.3-0.1,0.4C240,253,239.9,253,239.7,253z M102.3,252h136.9l-14.7-104.3H87.5
				L102.3,252z"/>
		</g>
		<g>
			<polygon class="st3" points="96.1,252.5 234,252.5 219.2,147.3 81.3,147.3 			"/>
			<path class="st2" d="M234,253H96.1c-0.2,0-0.5-0.2-0.5-0.4L80.8,147.3c0-0.1,0-0.3,0.1-0.4c0.1-0.1,0.2-0.2,0.4-0.2h137.9
				c0.2,0,0.5,0.2,0.5,0.4l14.9,105.3c0,0.1,0,0.3-0.1,0.4C234.3,253,234.2,253,234,253z M96.6,252h136.9l-14.7-104.3H81.8L96.6,252
				z"/>
		</g>
		<g>
			<path class="st4" d="M138.4,203.6l-13.8,67.5h35.6l13.8-67.5H138.4z M162.5,223.6c-0.1,0.6-0.6,1-1.2,1l-20.2-0.2
				c-0.8,0-1.4-0.8-1.2-1.5l1.8-7.6c0.1-0.6,0.6-1,1.2-1l20.2,0.2c0.8,0,1.4,0.8,1.2,1.5L162.5,223.6z"/>
			<path class="st2" d="M160.1,271.6h-35.6c-0.2,0-0.3-0.1-0.4-0.2c-0.1-0.1-0.1-0.3-0.1-0.4l13.8-67.5c0-0.2,0.3-0.4,0.5-0.4H174
				c0.2,0,0.3,0.1,0.4,0.2c0.1,0.1,0.1,0.3,0.1,0.4l-13.8,67.5C160.6,271.4,160.4,271.6,160.1,271.6z M125.2,270.6h34.6l13.6-66.5
				h-34.6L125.2,270.6z M161.3,225.1C161.3,225.1,161.3,225.1,161.3,225.1l-20.2-0.2c-0.5,0-1-0.3-1.4-0.7c-0.3-0.4-0.4-1-0.3-1.5
				l1.8-7.6c0.2-0.8,0.9-1.3,1.7-1.3c0,0,0,0,0,0l20.2,0.2c0.5,0,1,0.3,1.4,0.7c0.3,0.4,0.4,1,0.3,1.5l-1.8,7.6
				C162.8,224.5,162.1,225.1,161.3,225.1z M143,214.8c-0.4,0-0.7,0.2-0.7,0.6l-1.8,7.6c-0.1,0.2,0,0.5,0.1,0.6
				c0.1,0.2,0.4,0.3,0.6,0.3l20.2,0.2c0,0,0,0,0,0c0.4,0,0.7-0.2,0.7-0.6c0,0,0,0,0,0l1.8-7.6c0.1-0.2,0-0.5-0.1-0.6
				c-0.1-0.2-0.4-0.3-0.6-0.3L143,214.8C143,214.8,143,214.8,143,214.8z"/>
		</g>
	</g>
	<g>
		
			<rect x="0.5" y="271.1" transform="matrix(-1 -1.224647e-16 1.224647e-16 -1 466.5028 547.0071)" class="st2" width="465.5" height="4.8"/>
		<path class="st2" d="M466,276.4H0.5c-0.3,0-0.5-0.2-0.5-0.5v-4.8c0-0.3,0.2-0.5,0.5-0.5H466c0.3,0,0.5,0.2,0.5,0.5v4.8
			C466.5,276.2,466.3,276.4,466,276.4z M1,275.4h464.5v-3.8H1V275.4z"/>
	</g>
</g>
</svg>
