<?xml version="1.0" encoding="utf-8"?>
<!-- Generator: Adobe Illustrator 24.3.0, SVG Export Plug-In . SVG Version: 6.00 Build 0)  -->
<svg version="1.1" id="Layer_1" xmlns="http://www.w3.org/2000/svg" xmlns:xlink="http://www.w3.org/1999/xlink" x="0px" y="0px"
	 viewBox="0 0 51.2 51.2" style="enable-background:new 0 0 51.2 51.2;" xml:space="preserve">
<style type="text/css">
	.st0{fill:#00B0FB;}
	.st1{fill:#222222;}
	.st2{opacity:0.4;fill:#00B0FB;}
	.st3{fill:#FFFFFF;}
	.st4{opacity:0.4;}
	.st5{fill:none;}
</style>
<g>
	<path class="st5" d="M11.9,43.2h27.3c0-1.2,0-2.3,0-3.4c0-0.3-0.1-0.6-0.3-0.8c-1.7-1.8-3.5-3.5-5.3-5.3c-0.1-0.1-0.2-0.2-0.4-0.4
		c-0.2,0.2-0.3,0.3-0.4,0.5c-1.7,1.7-3.5,3.5-5.2,5.2c-0.8,0.8-1.3,0.9-1.7,0.5c-0.5-0.4-0.3-0.9,0.5-1.7c0.1-0.1,0.3-0.2,0.5-0.3
		c-2.2-2.6-4.3-5-6.4-7.5c-0.1,0.2-0.3,0.3-0.4,0.4c-2.4,2.9-4.9,5.8-7.3,8.6c-0.6,0.7-1,1.4-0.8,2.3C12,42,11.9,42.6,11.9,43.2z"/>
	<path class="st5" d="M1.7,8.5v38.2c0,0.5,0.1,1,0.3,1.4c0.5,0.4,1,0.8,1.6,1.2c0.3,0.1,0.6,0.1,0.9,0.1h42.2c0.2,0,0.4,0,0.7,0
		c1.3-0.2,2.2-1.3,2.2-2.8V8.5H1.7z M40.9,43.2c0,1.1-0.7,1.7-1.8,1.8H12.2c-0.8,0-1.4-0.2-1.8-0.9c-0.2-0.3-0.2-0.7-0.2-1.1
		c0-0.1,0-0.1,0-0.2V16.2c0-1.3,0.7-2,2-2H39c1.3,0,2,0.7,2,2c0,0.7,0,1.5,0,2.3v23.9C40.9,42.7,40.9,42.9,40.9,43.2z"/>
	<path class="st5" d="M29.8,26.2c0.9,0,1.7-0.8,1.7-1.7c0-0.9-0.8-1.7-1.7-1.7c-1,0-1.7,0.7-1.7,1.7C28.1,25.4,28.9,26.2,29.8,26.2z
		"/>
	<path class="st5" d="M3.6,49.3c-0.7-0.2-1.2-0.6-1.6-1.2C2.5,48.5,3,48.9,3.6,49.3z"/>
	<path class="st0" d="M30.7,19.3c0-0.1,0-0.2,0-0.3c0-0.1,0-0.2,0-0.3c0,0.1,0,0.2,0,0.3C30.7,19.1,30.7,19.2,30.7,19.3z"/>
	<path class="st2" d="M46.7,1.7c-14.1,0-28.1,0-42.2,0c-1.7,0-2.8,1.1-2.8,2.8v2.3c14.6,0,32.4,0,47,0h0.7V4.5
		C49.5,2.8,48.4,1.7,46.7,1.7z M4.3,5.1c-0.5,0-0.9-0.4-0.8-0.9c0-0.4,0.4-0.8,0.8-0.8c0.5,0,0.9,0.4,0.9,0.8
		C5.1,4.7,4.7,5.1,4.3,5.1z M7.7,5.1c-0.5,0-0.8-0.4-0.8-0.8c0-0.5,0.4-0.9,0.9-0.9c0.5,0,0.8,0.4,0.8,0.9C8.5,4.8,8.1,5.1,7.7,5.1z
		 M11.1,5.1c-0.5,0-0.8-0.4-0.8-0.9c0-0.5,0.4-0.8,0.8-0.8c0.5,0,0.9,0.4,0.9,0.8C11.9,4.8,11.6,5.1,11.1,5.1z M46.8,5.1H33.4
		c-0.5,0-0.8-0.1-1-0.6c-0.1-0.5,0.2-1,0.7-1.1c0.2,0,0.3,0,0.5,0h12.9c0.1,0,0.2,0,0.3,0c0.6,0,0.9,0.4,0.9,0.8
		C47.8,4.7,47.4,5.1,46.8,5.1z"/>
	<path class="st0" d="M5.4,49.6c-0.3,0-0.5-0.2-0.8-0.3c-0.7-0.2-1.2-0.6-1.6-1.2c-0.2-0.4-0.3-0.9-0.3-1.4V8.5h4
		C6.1,8.3,5.5,8.1,5,7.8C4.3,8,3.5,8.2,2.6,8.2C2.1,8.2,1.5,8.1,1,8v39.6c0.1,0.2,0.1,0.4,0.2,0.6c0.5,1.5,1.6,2.5,3.1,2.9
		c0.1,0,0.3,0,0.4,0C4.8,50.5,5,50.1,5.4,49.6z"/>
	<path class="st1" d="M51.2,44.7V4.5c0-2.2-1.2-3.9-3.2-4.4C47.6,0.1,47.2,0,46.8,0C32.6,0,18.5,0,4.4,0C4,0,3.6,0.1,3.2,0.2
		C1.9,0.5,0.9,1.3,0.4,2.6C0.2,2.9,0.2,3.1,0.1,3.4c0,0.1,0,0.1-0.1,0.2v44c0.1,0.2,0.1,0.4,0.2,0.6c0.5,1.5,1.6,2.5,3.1,2.9
		c0.1,0,44.1,0.1,44.1,0.1c0.3-0.1,0.7-0.2,1-0.3c1.7-0.7,2.6-2,2.7-3.8C51.2,46.2,51.2,45.5,51.2,44.7z M49.5,46.7
		c0,1.5-0.8,2.5-2.2,2.8c-0.2,0-0.4,0-0.7,0H4.5c-0.3,0-0.6,0-0.9-0.1c-0.7-0.2-1.2-0.6-1.6-1.2c-0.2-0.4-0.3-0.9-0.3-1.4V8.5h47.8
		V46.7z M49.5,6.8h-0.7c-14.6,0-32.4,0-47,0V4.5c0-1.7,1.1-2.8,2.8-2.8c14.1,0,28.1,0,42.2,0c1.7,0,2.8,1.1,2.8,2.8V6.8z"/>
	<path class="st1" d="M10.5,44.1c0.4,0.7,1,0.9,1.8,0.9c8.9,0,17.8,0,26.7,0c0.1,0,0.2,0,0.2,0c1.1,0,1.7-0.7,1.8-1.8
		c0-0.2,0-0.5,0-0.8l0-23.9c0-0.8,0-1.5,0-2.3c0-1.3-0.7-2-2-2c-8.9,0-17.9,0-26.8,0c-1.3,0-2,0.7-2,2c0,0.7,0,1.5,0,2.3h0v23.9h0
		c0,0.1,0,0.2,0,0.2v0.2c0,0.1,0,0.2,0,0.2C10.3,43.4,10.3,43.7,10.5,44.1z M12,16h27.2v20.9c-0.2-0.2-0.3-0.3-0.4-0.4
		c-1.6-1.6-3.1-3.1-4.7-4.7c-0.7-0.7-1-0.7-1.7,0c-1.4,1.4-2.7,2.7-4.1,4.1c-0.1,0.1-0.3,0.2-0.4,0.4c-0.7-0.8-1.4-1.7-2.1-2.5
		c-1.5-1.8-3-3.6-4.5-5.3c-0.6-0.7-1.1-0.7-1.7,0c-2.4,2.9-4.9,5.7-7.3,8.6c-0.1,0.1-0.2,0.2-0.4,0.4V16z M12.8,39.1
		c2.5-2.9,4.9-5.8,7.3-8.6c0.1-0.1,0.2-0.2,0.4-0.4c2.1,2.5,4.2,4.9,6.4,7.5c-0.2,0.1-0.4,0.2-0.5,0.3c-0.8,0.8-0.9,1.3-0.5,1.7
		c0.4,0.4,0.9,0.3,1.7-0.5c1.7-1.7,3.5-3.5,5.2-5.2c0.1-0.1,0.3-0.3,0.4-0.5c0.2,0.1,0.3,0.3,0.4,0.4c1.8,1.8,3.5,3.5,5.3,5.3
		c0.2,0.2,0.3,0.5,0.3,0.8c0,1.1,0,2.3,0,3.4H11.9c0-0.6,0.1-1.2,0-1.8C11.8,40.5,12.2,39.8,12.8,39.1z"/>
	<path class="st1" d="M46.8,3.4c-0.1,0-0.2,0-0.3,0c-4.3,0-8.6,0-12.9,0c-0.2,0-0.3,0-0.5,0c-0.5,0.1-0.8,0.6-0.7,1.1
		c0.1,0.5,0.5,0.6,1,0.6c2.2,0,4.4,0,6.6,0c2.2,0,4.5,0,6.7,0c0.6,0,1-0.4,1-0.9C47.7,3.8,47.4,3.4,46.8,3.4z"/>
	<path class="st1" d="M4.2,3.4c-0.4,0-0.8,0.4-0.8,0.8c0,0.5,0.4,0.9,0.9,0.9c0.5,0,0.8-0.4,0.8-0.9C5.1,3.8,4.7,3.4,4.2,3.4z"/>
	<path class="st1" d="M7.7,3.4c-0.5,0-0.9,0.4-0.9,0.9c0,0.4,0.4,0.8,0.8,0.8c0.5,0,0.9-0.3,0.9-0.8C8.5,3.8,8.1,3.4,7.7,3.4z"/>
	<path class="st1" d="M11.1,3.4c-0.4,0-0.8,0.4-0.8,0.8c0,0.5,0.4,0.9,0.8,0.9c0.5,0,0.9-0.4,0.9-0.8C11.9,3.8,11.5,3.4,11.1,3.4z"
		/>
	<path class="st0" d="M19.6,28.4c0.6-0.7,1.1-0.7,1.7,0c1.5,1.8,3,3.6,4.5,5.3c0.7,0.8,1.4,1.6,2.1,2.5c0.2-0.2,0.3-0.3,0.4-0.4
		c1.4-1.4,2.7-2.7,4.1-4.1c0.7-0.7,1-0.6,1.7,0c1.6,1.6,3.1,3.1,4.7,4.7c0.1,0.1,0.2,0.2,0.4,0.4V16H12v21.4
		c0.2-0.2,0.3-0.3,0.4-0.4C14.8,34.1,17.2,31.3,19.6,28.4z M35.4,23.6c0.2,0,0.4,0,0.5,0c0.4,0.1,0.7,0.5,0.7,0.9
		c0,0.4-0.3,0.8-0.8,0.8c-0.2,0-0.3,0-0.5,0c-0.8,0-1.3-0.3-1.2-0.9C34.1,23.9,34.5,23.6,35.4,23.6z M30.7,30c0,0.1,0,0.3,0,0.4
		c0,0.5-0.4,0.8-0.8,0.8c-0.4,0-0.8-0.3-0.9-0.8c0-0.3,0-0.6,0-0.8c0-0.5,0.4-0.9,0.9-0.9c0.5,0,0.8,0.4,0.8,0.9
		C30.7,29.8,30.7,29.9,30.7,30C30.7,30,30.7,30,30.7,30z M29.9,17.7c0.5,0,0.8,0.4,0.8,0.9c0,0.1,0,0.2,0,0.3c0,0.1,0,0.2,0,0.3
		c0,0.6-0.4,0.9-0.8,0.9c-0.5,0-0.8-0.4-0.9-0.9c0-0.2,0-0.5,0-0.7C29,18,29.4,17.6,29.9,17.7z M29.8,21.1c1.9,0,3.4,1.5,3.4,3.4
		c0,1.9-1.6,3.4-3.4,3.4c-1.9,0-3.4-1.6-3.4-3.4C26.5,22.6,28,21.1,29.8,21.1z M24.3,23.6c0.2,0,0.4,0,0.6,0
		c0.4,0.1,0.7,0.5,0.6,0.9c-0.1,0.4-0.3,0.7-0.8,0.8c-0.2,0-0.3,0-0.5,0c-0.9,0-1.3-0.3-1.3-0.8C23,23.9,23.4,23.6,24.3,23.6z"/>
	<path class="st1" d="M29.8,27.9c1.9,0,3.5-1.5,3.4-3.4c0-1.9-1.5-3.4-3.4-3.4c-1.9,0-3.4,1.5-3.4,3.4
		C26.4,26.3,27.9,27.9,29.8,27.9z M29.9,22.8c0.9,0,1.7,0.8,1.7,1.7c0,0.9-0.8,1.7-1.7,1.7c-0.9,0-1.7-0.8-1.7-1.7
		C28.2,23.5,28.9,22.8,29.9,22.8z"/>
	<path class="st1" d="M24.3,25.3c0.2,0,0.3,0,0.5,0c0.5,0,0.7-0.3,0.8-0.8c0.1-0.4-0.2-0.8-0.6-0.9c-0.2,0-0.4,0-0.6,0
		c-0.8,0-1.3,0.3-1.3,0.9C23,25,23.4,25.3,24.3,25.3z"/>
	<path class="st1" d="M35.4,25.3c0.2,0,0.3,0,0.5,0c0.5,0,0.8-0.4,0.8-0.8c0-0.4-0.3-0.8-0.7-0.9c-0.2,0-0.4,0-0.5,0
		c-0.9,0-1.3,0.3-1.3,0.8C34.1,25,34.5,25.3,35.4,25.3z"/>
	<path class="st1" d="M29.8,28.7c-0.5,0-0.8,0.4-0.9,0.9c0,0.3,0,0.6,0,0.8c0,0.5,0.4,0.8,0.9,0.8c0.5,0,0.8-0.3,0.8-0.8
		c0-0.1,0-0.3,0-0.4c0,0,0,0,0,0c0-0.1,0-0.2,0-0.3C30.7,29.1,30.3,28.7,29.8,28.7z"/>
	<path class="st1" d="M29.8,20.2c0.5,0,0.8-0.3,0.8-0.9c0-0.1,0-0.2,0-0.3c0-0.1,0-0.2,0-0.3c0-0.6-0.3-0.9-0.8-0.9
		c-0.5,0-0.9,0.3-0.9,0.9c0,0.2,0,0.5,0,0.7C29,19.8,29.3,20.2,29.8,20.2z"/>
</g>
</svg>
