<?xml version="1.0" encoding="utf-8"?>
<!-- Generator: Adobe Illustrator 24.3.0, SVG Export Plug-In . SVG Version: 6.00 Build 0)  -->
<svg version="1.1" id="Icons" xmlns="http://www.w3.org/2000/svg" xmlns:xlink="http://www.w3.org/1999/xlink" x="0px" y="0px"
	 viewBox="0 0 466.5 267" style="enable-background:new 0 0 466.5 267;" xml:space="preserve">
<style type="text/css">
	.st0{fill:#C0FFFD;}
	.st1{fill:#222222;}
	.st2{fill:#CECECE;}
	.st3{fill:#FFFFFF;}
	.st4{fill:#3C7CFF;}
</style>
<g>
	<g>
		<g>
			<path class="st0" d="M424.7,259.4c0,0,21.8-46.3,17-47.7c-4.7-1.3-14.6,6-14.6,6s29.1-77.9,21.6-84c-7.5-6-21.6,24.9-21.6,24.9
				s15-47.7,13.2-65.8s-20.8-0.7-20.8-0.7s15.3-65.2,1.1-68.5c-14.2-3.4-13.7,74.6-13.7,74.6s-4.7-55.8-10.3-40.3
				c-5.7,15.4,6.3,67.2,6.3,67.2s-7.8-17.5-12.1-1.3c-4.3,16.1,8.6,81.3,8.6,81.3s-11-10.7-12,2.7c-1,13.4,22.1,56.7,22.1,56.7
				l14.2-0.3L424.7,259.4z"/>
		</g>
		<g>
			<path class="st1" d="M420.1,261.9c0.2,0,0.3-0.1,0.4-0.2c0.7-1.3,18.2-32.5,14.8-38.7c-0.6-1.1-1.4-1.7-2.5-1.7
				c-3.1-0.2-7.3,4.3-9.8,7.3c4.9-12.5,21.4-55.1,18.3-60c-0.6-0.9-1.3-1-1.7-1c-3.7,0.2-9.8,12.2-12.2,17.2
				c0.7-13.6,3.1-70.2-2.2-74c-0.4-0.3-0.8-0.3-1.2-0.2c-3,1.2-4.8,8.6-5.9,16.8c0.7-25.1,1.1-60.6-2.5-63c-0.3-0.2-0.7-0.3-1-0.1
				c-5.7,2.6-5.7,81.4-5.7,99.7c-2.4-7.2-8.1-23.3-11.8-23c-1.2,0.1-2,1.7-2.3,4.9c-1.5,13.4,8,43.4,12.9,57.3
				c-3.7-7.2-9.5-16.9-13.2-16.4c-1.6,0.3-2.6,2.2-3,6c-1.4,13.6,5.7,35.6,10.2,47.5c-0.7-0.9-1.3-1.4-1.8-1.3c-0.7,0.1-1,1-1,2.8
				c0,8.1,4.6,17.9,4.7,18.3c1,4.4,1.5,2.5,1.6,2.7c2.7,3.9-0.7-2.9-0.8-3.1c0-0.1-4.7-10.1-4.7-18c0-1.7,0.3-2,0.3-2
				c0.7,0,2.7,3.7,4.6,8.1c0.2,0.5,0.3,0.7,0.3,0.8c0.1,0.2,0.4,0.3,0.6,0.2c0.2-0.1,0.3-0.3,0.2-0.6c-0.1-0.3-0.2-0.6-0.4-0.9
				c-2.3-5.7-14.8-37.2-13-54.6c0.3-3.3,1.1-5.1,2.3-5.3c4.1-0.7,12.7,16.3,15.7,22.9c0.1,0.2,0.4,0.3,0.6,0.2
				c0.2-0.1,0.3-0.3,0.2-0.6c-0.2-0.5-17.4-47.1-15.4-64.3c0.4-3.7,1.2-4.1,1.5-4.2c0,0,0,0,0.1,0c2.7,0,8.6,15.3,11.6,25.1
				c0.1,0.2,0.3,0.3,0.5,0.3s0.4-0.2,0.4-0.4c-0.3-39.8,0.9-99.8,5.1-101.7c0.1,0,0.1,0,0.2,0c3.3,2.3,2.8,44.1,1.6,76.8
				c-0.3,5.2-0.4,9-0.4,9.5c0,0.2,0.2,0.4,0.4,0.4c0.2,0,0.4-0.2,0.5-0.4c0.1-1.4,0.2-4.8,0.4-9.3c0.7-12.3,2.7-29,6.7-30.6
				c0.2-0.1,0.3,0,0.4,0.1c4.4,3.1,2.7,55.5,1.7,75.4c0,0.2,0.1,0.4,0.3,0.4c0.2,0.1,0.4-0.1,0.5-0.2c2.3-5.1,9.1-18.5,12.4-18.7
				c0.2,0,0.6,0,0.9,0.6c2.7,4.3-13.2,46.3-19.5,62.1c-0.1,0.2,0,0.4,0.2,0.5s0.4,0.1,0.6-0.1c1.9-2.6,7.4-9.4,10.8-9.4h0.1
				c0.8,0,1.3,0.5,1.8,1.3c2.7,4.8-9.8,29-14.8,37.9c-0.1,0.2,0,0.5,0.2,0.6C419.9,261.8,420,261.9,420.1,261.9z"/>
		</g>
	</g>
	<g>
		<g>
			<g>
				<rect x="68.4" y="5.5" class="st2" width="328.6" height="250.7"/>
				<path class="st2" d="M397.4,256.7H67.9V5.1h329.4v251.6H397.4z M68.8,255.8h327.7V6H68.8V255.8z"/>
			</g>
			<g>
				<rect x="64.5" y="0.4" class="st3" width="328.6" height="250.7"/>
				<path class="st1" d="M393.1,251.5H64.5c-0.2,0-0.4-0.2-0.4-0.4V0.4c0-0.2,0.2-0.4,0.4-0.4h328.6c0.2,0,0.4,0.2,0.4,0.4v250.7
					C393.5,251.3,393.3,251.5,393.1,251.5z M64.9,250.7h327.7V0.8H64.9V250.7z"/>
			</g>
			<g>
				<rect x="64.5" y="0.4" class="st4" width="328.6" height="47.5"/>
				<path class="st1" d="M393.1,48.3H64.5c-0.2,0-0.4-0.2-0.4-0.4V0.4c0-0.2,0.2-0.4,0.4-0.4h328.6c0.2,0,0.4,0.2,0.4,0.4v47.5
					C393.5,48.1,393.3,48.3,393.1,48.3z M64.9,47.4h327.7V0.8H64.9V47.4z"/>
			</g>
			<g>
				<g>
					<rect x="64.5" y="0.4" class="st2" width="328.6" height="12.7"/>
					<path class="st1" d="M393.1,13.5H64.5c-0.2,0-0.4-0.2-0.4-0.4V0.4c0-0.2,0.2-0.4,0.4-0.4h328.6c0.2,0,0.4,0.2,0.4,0.4v12.7
						C393.5,13.3,393.3,13.5,393.1,13.5z M64.9,12.7h327.7V0.9H64.9V12.7z"/>
				</g>
				<g>
					<rect x="77" y="3.8" class="st3" width="116" height="6.1"/>
					<path class="st4" d="M193,10.4H77c-0.2,0-0.4-0.2-0.4-0.4V3.9c0-0.2,0.2-0.4,0.4-0.4h116c0.2,0,0.4,0.2,0.4,0.4V10
						C193.4,10.2,193.2,10.4,193,10.4z M77.5,9.5h115.1V4.2H77.5V9.5z"/>
				</g>
				<g>
					<path class="st3" d="M366.5,6.5c0-1.2-1-2.2-2.2-2.2s-2.2,1-2.2,2.2s1,2.2,2.2,2.2S366.5,7.7,366.5,6.5z"/>
					<path class="st1" d="M364.3,9.1c-1.5,0-2.6-1.2-2.6-2.6c0-1.5,1.2-2.6,2.6-2.6s2.6,1.2,2.6,2.6C367,7.9,365.8,9.1,364.3,9.1z
						 M364.3,4.7c-1,0-1.8,0.8-1.8,1.8s0.8,1.8,1.8,1.8s1.8-0.8,1.8-1.8S365.3,4.7,364.3,4.7z"/>
				</g>
				<g>
					<path class="st3" d="M376.2,6.5c0-1.2-1-2.2-2.2-2.2s-2.2,1-2.2,2.2s1,2.2,2.2,2.2S376.2,7.7,376.2,6.5z"/>
					<path class="st1" d="M374,9.1c-1.5,0-2.6-1.2-2.6-2.6c0-1.5,1.2-2.6,2.6-2.6c1.5,0,2.6,1.2,2.6,2.6
						C376.6,7.9,375.4,9.1,374,9.1z M374,4.7c-1,0-1.8,0.8-1.8,1.8s0.8,1.8,1.8,1.8s1.8-0.8,1.8-1.8C375.7,5.5,375,4.7,374,4.7z"/>
				</g>
				<g>
					<circle class="st3" cx="383.7" cy="6.5" r="2.2"/>
					<path class="st1" d="M383.7,9.1c-1.5,0-2.6-1.2-2.6-2.6c0-1.5,1.2-2.6,2.6-2.6c1.5,0,2.6,1.2,2.6,2.6S385.1,9.1,383.7,9.1z
						 M383.7,4.7c-1,0-1.8,0.8-1.8,1.8s0.8,1.8,1.8,1.8s1.8-0.8,1.8-1.8C385.4,5.5,384.6,4.7,383.7,4.7z"/>
				</g>
			</g>
		</g>
		<g>
			<g>
				<rect x="93.1" y="66.4" class="st2" width="86.2" height="159.7"/>
				<path class="st1" d="M179.3,226.5H93.1c-0.2,0-0.4-0.2-0.4-0.4V66.4c0-0.2,0.2-0.4,0.4-0.4h86.2c0.2,0,0.4,0.2,0.4,0.4v159.7
					C179.8,226.3,179.6,226.5,179.3,226.5z M93.6,225.6h85.3V66.8H93.6V225.6z"/>
			</g>
			<g>
				<rect x="93.1" y="66.4" class="st3" width="86.2" height="31.6"/>
				<path class="st1" d="M179.3,98.4H93.1c-0.2,0-0.4-0.2-0.4-0.4V66.4c0-0.2,0.2-0.4,0.4-0.4h86.2c0.2,0,0.4,0.2,0.4,0.4V98
					C179.8,98.3,179.6,98.4,179.3,98.4z M93.6,97.6h85.3V66.9H93.6V97.6z"/>
			</g>
			<g>
				<path class="st0" d="M158.2,209.7h-44c-4.9,0-8.9-4-8.9-8.9v-1.6c0-4.9,4-8.9,8.9-8.9h44c4.9,0,8.9,4,8.9,8.9v1.6
					C167.1,205.7,163.1,209.7,158.2,209.7z"/>
				<path class="st1" d="M158.8,210.1h-45.1c-4.8,0-8.8-3.9-8.8-8.8v-2.6c0-4.8,3.9-8.8,8.8-8.8h45.1c4.8,0,8.8,3.9,8.8,8.8v2.6
					C167.6,206.2,163.6,210.1,158.8,210.1z M113.7,190.8c-4.4,0-7.9,3.5-7.9,7.9v2.6c0,4.4,3.5,7.9,7.9,7.9h45.1
					c4.4,0,7.9-3.5,7.9-7.9v-2.6c0-4.4-3.5-7.9-7.9-7.9H113.7z"/>
			</g>
			<g>
				<g>
					<path class="st1" d="M159.4,135.2H112c-0.2,0-0.4-0.2-0.4-0.4s0.2-0.4,0.4-0.4h47.4c0.2,0,0.4,0.2,0.4,0.4
						S159.7,135.2,159.4,135.2z"/>
				</g>
				<g>
					<path class="st1" d="M159.4,144.4H112c-0.2,0-0.4-0.2-0.4-0.4s0.2-0.4,0.4-0.4h47.4c0.2,0,0.4,0.2,0.4,0.4
						S159.7,144.4,159.4,144.4z"/>
				</g>
				<g>
					<path class="st1" d="M159.4,153.5H112c-0.2,0-0.4-0.2-0.4-0.4s0.2-0.4,0.4-0.4h47.4c0.2,0,0.4,0.2,0.4,0.4
						S159.7,153.5,159.4,153.5z"/>
				</g>
			</g>
			<g>
				<g>
					<path class="st1" d="M116.4,81.8c-0.5,0-0.9-0.1-1.3-0.3c-0.3-0.2-0.6-0.5-0.8-0.9s-0.3-0.9-0.3-1.4l1.3-0.3
						c0,0.3,0.1,0.6,0.1,0.9c0.1,0.3,0.2,0.4,0.3,0.6c0.1,0.1,0.3,0.2,0.5,0.2c0.3,0,0.4-0.1,0.5-0.2c0.1-0.2,0.2-0.3,0.2-0.6
						c0-0.4-0.1-0.7-0.3-0.9s-0.4-0.5-0.7-0.7l-1.1-0.9c-0.3-0.3-0.5-0.5-0.7-0.9c-0.2-0.3-0.3-0.7-0.3-1.2c0-0.7,0.2-1.2,0.6-1.6
						c0.4-0.4,0.9-0.5,1.6-0.5c0.4,0,0.7,0.1,1,0.2c0.3,0.1,0.5,0.3,0.6,0.5c0.2,0.2,0.3,0.5,0.4,0.7c0.1,0.3,0.1,0.6,0.1,0.9
						l-1.3,0.2c0-0.3,0-0.5-0.1-0.7c0-0.2-0.1-0.4-0.2-0.5c-0.1-0.1-0.3-0.2-0.5-0.2s-0.4,0.1-0.5,0.2c-0.1,0.2-0.2,0.3-0.2,0.6
						s0.1,0.5,0.2,0.7c0.1,0.2,0.3,0.4,0.5,0.6l1.1,0.9c0.4,0.3,0.7,0.6,0.9,1s0.4,0.9,0.4,1.4c0,0.4-0.1,0.8-0.3,1.1
						s-0.4,0.6-0.7,0.7C117.2,81.7,116.8,81.8,116.4,81.8z"/>
				</g>
				<g>
					<path class="st1" d="M120.3,81.7v-7.4h-1.4v-1.1h4.3v1.1h-1.3v7.4H120.3z"/>
				</g>
				<g>
					<path class="st1" d="M123.3,81.7l1.7-8.5h1.7l1.7,8.5H127l-0.3-2h-1.5l-0.3,2H123.3z M125.3,78.7h1.2l-0.6-3.6L125.3,78.7z"/>
				</g>
				<g>
					<path class="st1" d="M129.2,81.7v-8.5h1.1l2.1,4.9v-4.9h1.3v8.5h-1l-2.1-5.1v5.1H129.2z"/>
				</g>
				<g>
					<path class="st1" d="M135,81.7v-8.5h2c0.7,0,1.2,0.1,1.6,0.3c0.4,0.2,0.7,0.5,0.8,0.9c0.2,0.4,0.2,0.9,0.2,1.5V79
						c0,0.6-0.1,1.1-0.2,1.5c-0.2,0.4-0.4,0.7-0.8,0.9c-0.4,0.2-0.9,0.3-1.6,0.3H135z M136.5,80.6h0.5c0.4,0,0.6-0.1,0.8-0.2
						c0.2-0.1,0.2-0.3,0.3-0.6c0-0.2,0.1-0.5,0.1-0.9v-3.3c0-0.3,0-0.6-0.1-0.8c0-0.2-0.2-0.4-0.3-0.5c-0.2-0.1-0.4-0.1-0.7-0.1
						h-0.5v6.4H136.5z"/>
				</g>
				<g>
					<path class="st1" d="M140.3,81.7l1.7-8.5h1.7l1.7,8.5H144l-0.3-2h-1.5l-0.3,2H140.3z M142.3,78.7h1.2l-0.6-3.6L142.3,78.7z"/>
				</g>
				<g>
					<path class="st1" d="M146.2,81.7v-8.5h2c0.6,0,1.1,0.1,1.5,0.2c0.4,0.1,0.7,0.4,0.9,0.7s0.3,0.8,0.3,1.3c0,0.3,0,0.7-0.1,0.9
						c-0.1,0.3-0.2,0.5-0.3,0.7c-0.2,0.2-0.4,0.3-0.6,0.4l1.2,4.2h-1.6l-1-3.9h-0.7v3.9h-1.6V81.7z M147.8,76.8h0.5
						c0.3,0,0.5,0,0.7-0.1s0.3-0.2,0.4-0.4c0.1-0.2,0.1-0.4,0.1-0.7c0-0.4-0.1-0.8-0.2-1c-0.2-0.2-0.5-0.3-0.9-0.3h-0.6V76.8z"/>
				</g>
				<g>
					<path class="st1" d="M152.1,81.7v-8.5h2c0.7,0,1.2,0.1,1.6,0.3c0.4,0.2,0.7,0.5,0.8,0.9c0.2,0.4,0.2,0.9,0.2,1.5V79
						c0,0.6-0.1,1.1-0.2,1.5c-0.2,0.4-0.4,0.7-0.8,0.9c-0.4,0.2-0.9,0.3-1.6,0.3H152.1z M153.7,80.6h0.5c0.4,0,0.6-0.1,0.8-0.2
						c0.2-0.1,0.2-0.3,0.3-0.6c0-0.2,0.1-0.5,0.1-0.9v-3.3c0-0.3,0-0.6-0.1-0.8c0-0.2-0.2-0.4-0.3-0.5c-0.2-0.1-0.4-0.1-0.7-0.1
						h-0.5v6.4H153.7z"/>
				</g>
			</g>
			<g>
				<g>
					<path class="st1" d="M123.1,203.8c-0.5,0-0.9-0.1-1.3-0.3c-0.3-0.2-0.6-0.5-0.8-0.9s-0.3-0.9-0.3-1.4l1.3-0.3
						c0,0.3,0.1,0.6,0.1,0.9c0.1,0.3,0.2,0.4,0.3,0.6c0.1,0.1,0.3,0.2,0.5,0.2c0.3,0,0.4-0.1,0.5-0.2c0.1-0.2,0.2-0.3,0.2-0.6
						c0-0.4-0.1-0.7-0.3-0.9c-0.2-0.2-0.4-0.5-0.7-0.7l-1.1-0.9c-0.3-0.3-0.5-0.5-0.7-0.9c-0.2-0.3-0.3-0.7-0.3-1.2
						c0-0.7,0.2-1.2,0.6-1.6c0.4-0.4,0.9-0.5,1.6-0.5c0.4,0,0.7,0.1,1,0.2s0.5,0.3,0.6,0.5c0.2,0.2,0.3,0.5,0.4,0.7
						c0.1,0.3,0.1,0.6,0.1,0.9l-1.3,0.2c0-0.3,0-0.5-0.1-0.7c0-0.2-0.1-0.4-0.2-0.5c-0.1-0.1-0.3-0.2-0.5-0.2s-0.4,0.1-0.5,0.2
						c-0.1,0.2-0.2,0.3-0.2,0.6c0,0.3,0.1,0.5,0.2,0.7c0.1,0.2,0.3,0.4,0.5,0.6l1.1,0.9c0.4,0.3,0.7,0.6,0.9,1s0.4,0.9,0.4,1.4
						c0,0.4-0.1,0.8-0.3,1.1c-0.2,0.3-0.4,0.6-0.7,0.7C123.9,203.7,123.6,203.8,123.1,203.8z"/>
				</g>
				<g>
					<path class="st1" d="M126.1,196.6v-1.2h1.4v1.2H126.1z M126.1,203.7v-6.1h1.4v6.1H126.1z"/>
				</g>
				<g>
					<path class="st1" d="M130.4,205.7c-0.4,0-0.8,0-1.1-0.1s-0.6-0.2-0.7-0.4c-0.2-0.2-0.3-0.4-0.3-0.7c0-0.2,0-0.4,0.1-0.5
						c0.1-0.2,0.2-0.3,0.3-0.4s0.3-0.2,0.5-0.3c-0.2-0.1-0.4-0.2-0.5-0.3c-0.1-0.1-0.2-0.3-0.2-0.5s0.1-0.4,0.2-0.6
						c0.1-0.2,0.3-0.3,0.5-0.5c-0.2-0.2-0.4-0.4-0.5-0.7c-0.1-0.3-0.2-0.6-0.2-1c0-0.5,0.1-0.9,0.2-1.2c0.2-0.3,0.4-0.6,0.7-0.7
						c0.3-0.2,0.6-0.2,1.1-0.2c0.3,0,0.6,0,0.8,0.1s0.4,0.2,0.5,0.4c0.1-0.1,0.2-0.2,0.3-0.3c0.1-0.1,0.3-0.2,0.5-0.3l0.2-0.1
						l0.3,0.8c-0.1,0-0.2,0.1-0.3,0.1s-0.3,0.1-0.4,0.2c-0.1,0.1-0.2,0.1-0.3,0.1c0.1,0.1,0.1,0.3,0.2,0.5c0,0.2,0.1,0.4,0.1,0.6
						c0,0.4-0.1,0.8-0.2,1.1c-0.1,0.3-0.3,0.6-0.6,0.7c-0.3,0.2-0.6,0.3-1.1,0.3c-0.1,0-0.3,0-0.4,0c-0.1,0-0.3-0.1-0.4-0.1
						c0,0.1-0.1,0.1-0.1,0.2s-0.1,0.1-0.1,0.2s0,0.1,0.1,0.2c0.1,0,0.2,0.1,0.4,0.1l1.3,0.1c0.5,0,0.9,0.2,1.1,0.5
						c0.2,0.3,0.4,0.6,0.4,1.1c0,0.4-0.1,0.7-0.2,0.9c-0.2,0.2-0.4,0.4-0.8,0.6C131.4,205.6,131,205.7,130.4,205.7z M130.6,204.6
						c0.4,0,0.7,0,0.9-0.1s0.3-0.2,0.3-0.4c0-0.1,0-0.2-0.1-0.3c0-0.1-0.1-0.1-0.3-0.2c-0.1,0-0.3-0.1-0.5-0.1l-1-0.1
						c-0.1,0.1-0.1,0.1-0.2,0.2c-0.1,0.1-0.1,0.1-0.1,0.2s-0.1,0.2-0.1,0.2c0,0.2,0.1,0.3,0.3,0.4
						C129.9,204.6,130.2,204.6,130.6,204.6z M130.5,200.8c0.1,0,0.2,0,0.3-0.1c0.1,0,0.1-0.1,0.2-0.2c0-0.1,0.1-0.2,0.1-0.4
						c0-0.2,0-0.3,0-0.5s0-0.4,0-0.5c0-0.2,0-0.3-0.1-0.4c0-0.1-0.1-0.2-0.2-0.2c-0.1,0-0.2-0.1-0.3-0.1s-0.2,0-0.3,0.1
						c-0.1,0-0.1,0.1-0.2,0.2c0,0.1-0.1,0.2-0.1,0.4c0,0.2,0,0.3,0,0.5s0,0.4,0,0.5c0,0.2,0,0.3,0.1,0.4c0,0.1,0.1,0.2,0.2,0.2
						C130.3,200.8,130.4,200.8,130.5,200.8z"/>
				</g>
				<g>
					<path class="st1" d="M133.6,203.7v-6.1h1.4v0.6c0.2-0.2,0.4-0.4,0.7-0.5c0.2-0.1,0.5-0.2,0.8-0.2s0.5,0.1,0.6,0.2
						s0.3,0.3,0.3,0.5c0.1,0.2,0.1,0.4,0.1,0.7v4.8h-1.4v-4.6c0-0.2,0-0.3-0.1-0.4s-0.2-0.1-0.3-0.1s-0.2,0-0.3,0.1
						s-0.2,0.1-0.3,0.2v4.8H133.6z"/>
				</g>
				<g>
					<path class="st1" d="M142.1,203.8c-0.2,0-0.4-0.1-0.6-0.2c-0.2-0.1-0.3-0.3-0.3-0.5c-0.1-0.2-0.1-0.4-0.1-0.7v-4.8h1.4v4.6
						c0,0.2,0,0.3,0.1,0.4s0.2,0.2,0.3,0.2s0.2,0,0.3-0.1s0.2-0.1,0.3-0.2v-4.9h1.4v6.1h-1.4v-0.6c-0.2,0.2-0.4,0.4-0.7,0.5
						C142.7,203.7,142.4,203.8,142.1,203.8z"/>
				</g>
				<g>
					<path class="st1" d="M146.1,205.7v-8.1h1.4v0.5c0.2-0.2,0.4-0.3,0.6-0.4c0.2-0.1,0.4-0.2,0.7-0.2s0.5,0.1,0.7,0.2
						s0.3,0.3,0.4,0.5c0.1,0.2,0.2,0.4,0.2,0.7c0,0.2,0.1,0.5,0.1,0.7v2.1c0,0.4,0,0.8-0.1,1.1c-0.1,0.3-0.2,0.6-0.5,0.8
						c-0.2,0.2-0.5,0.3-0.8,0.3c-0.2,0-0.4-0.1-0.6-0.2c-0.2-0.1-0.4-0.2-0.6-0.4v2.5h-1.5V205.7z M148.2,202.8
						c0.2,0,0.3-0.1,0.3-0.2c0.1-0.1,0.1-0.2,0.1-0.4c0-0.2,0-0.4,0-0.6v-2.2c0-0.2,0-0.4,0-0.5c0-0.2-0.1-0.3-0.2-0.4
						c-0.1-0.1-0.2-0.1-0.3-0.1s-0.2,0-0.3,0.1s-0.2,0.1-0.3,0.2v3.8c0.1,0.1,0.2,0.1,0.3,0.2C147.9,202.7,148.1,202.8,148.2,202.8z
						"/>
				</g>
			</g>
			<g>
				<g>
					<path class="st1" d="M122.3,124v-1.6c-1.3-0.1-2.3-0.5-3-1.3s-1-2-1.1-3.5l2.5-0.5c0,0.6,0.1,1.1,0.2,1.6
						c0.1,0.5,0.3,0.8,0.6,1.1c0.3,0.3,0.6,0.4,1,0.4c0.5,0,0.8-0.1,1-0.4s0.3-0.6,0.3-1.1c0-0.7-0.2-1.2-0.5-1.7
						c-0.3-0.4-0.7-0.9-1.2-1.3l-2-1.7c-0.4-0.3-0.7-0.7-0.9-1c-0.3-0.4-0.5-0.8-0.6-1.2c-0.2-0.4-0.2-1-0.2-1.6
						c0-1.2,0.3-2.1,1-2.8c0.7-0.7,1.6-1,2.7-1.1v-1.6h0.8v1.5c0.7,0,1.2,0.2,1.6,0.4c0.4,0.3,0.8,0.6,1,1c0.3,0.4,0.4,0.8,0.6,1.3
						c0.1,0.5,0.2,1,0.2,1.5l-2.4,0.4c0-0.5-0.1-0.9-0.2-1.3c-0.1-0.4-0.2-0.7-0.4-0.9c-0.2-0.2-0.5-0.3-0.9-0.3s-0.8,0.2-1,0.4
						c-0.2,0.3-0.3,0.6-0.3,1c0,0.6,0.1,1,0.4,1.3c0.2,0.3,0.5,0.7,0.9,1l2,1.7c0.4,0.4,0.8,0.8,1.2,1.2c0.4,0.4,0.6,0.9,0.9,1.5
						c0.2,0.5,0.3,1.2,0.3,1.9c0,0.7-0.1,1.3-0.4,1.9c-0.3,0.5-0.7,1-1.2,1.3s-1.1,0.5-1.8,0.6v1.6h-1.1V124z"/>
				</g>
				<g>
					<path class="st1" d="M131.9,122.4c-1,0-1.9-0.2-2.4-0.6c-0.6-0.4-1-0.9-1.2-1.6s-0.3-1.5-0.3-2.5h2.6c0,0.5,0,1,0.1,1.4
						s0.2,0.7,0.4,0.9c0.2,0.2,0.5,0.3,0.9,0.3c0.5,0,0.8-0.1,1-0.4s0.3-0.7,0.4-1.2c0.1-0.5,0.1-1.1,0.1-1.8c0-0.6,0-1.1-0.1-1.6
						s-0.2-0.8-0.4-1.1c-0.2-0.3-0.5-0.4-1-0.4c-0.4,0-0.7,0.1-0.9,0.4s-0.4,0.6-0.5,1h-2.3l0.2-8.7h7.1v2.4h-4.8l-0.2,3.8
						c0.2-0.2,0.5-0.4,0.8-0.6c0.4-0.1,0.8-0.2,1.2-0.3c0.8,0,1.5,0.1,2,0.5s0.9,0.9,1.1,1.7c0.2,0.7,0.4,1.6,0.4,2.6
						c0,0.8-0.1,1.6-0.2,2.3c-0.1,0.7-0.3,1.3-0.6,1.8s-0.7,0.9-1.2,1.2C133.5,122.3,132.8,122.4,131.9,122.4z"/>
				</g>
				<g>
					<path class="st1" d="M137.3,122.2v-1.8h1.7v1.8H137.3z"/>
				</g>
				<g>
					<path class="st1" d="M142.9,122.3c-0.6,0-1.1-0.1-1.5-0.3c-0.4-0.2-0.7-0.5-0.9-0.9s-0.3-0.9-0.3-1.5c0,0,0,0,0-0.1v-0.1h1.7
						c0,0.5,0.1,0.8,0.2,1.1c0.1,0.2,0.4,0.4,0.8,0.4c0.2,0,0.4-0.1,0.6-0.2c0.1-0.1,0.2-0.4,0.3-0.7c0.1-0.3,0.1-0.8,0.1-1.3v-1.3
						c-0.1,0.2-0.3,0.4-0.6,0.5c-0.2,0.1-0.5,0.2-0.9,0.2c-0.6,0-1-0.1-1.4-0.4c-0.3-0.3-0.6-0.7-0.7-1.1c-0.1-0.5-0.2-1-0.2-1.6
						c0-0.7,0.1-1.3,0.3-1.9c0.2-0.5,0.5-0.9,0.9-1.3c0.4-0.3,1-0.5,1.6-0.5c0.7,0,1.2,0.1,1.6,0.4c0.4,0.3,0.7,0.7,0.9,1.2
						s0.3,1.1,0.3,1.8v3.8c0,0.7-0.1,1.3-0.2,1.9c-0.2,0.6-0.4,1-0.8,1.3C144.2,122.2,143.6,122.3,142.9,122.3z M142.9,116.7
						c0.2,0,0.4-0.1,0.6-0.2c0.1-0.1,0.3-0.3,0.3-0.4v-1.7c0-0.3,0-0.6-0.1-0.8c-0.1-0.3-0.1-0.5-0.3-0.6c-0.1-0.2-0.3-0.2-0.6-0.2
						c-0.2,0-0.4,0.1-0.6,0.2c-0.1,0.2-0.2,0.4-0.3,0.7c-0.1,0.3-0.1,0.6-0.1,1s0,0.7,0,1s0.1,0.6,0.2,0.7
						C142.3,116.6,142.6,116.7,142.9,116.7z"/>
				</g>
				<g>
					<path class="st1" d="M149.7,122.3c-0.6,0-1.1-0.1-1.5-0.3c-0.4-0.2-0.7-0.5-0.9-0.9s-0.3-0.9-0.3-1.5c0,0,0,0,0-0.1v-0.1h1.7
						c0,0.5,0.1,0.8,0.2,1.1c0.1,0.2,0.4,0.4,0.8,0.4c0.2,0,0.4-0.1,0.6-0.2c0.1-0.1,0.2-0.4,0.3-0.7c0.1-0.3,0.1-0.8,0.1-1.3v-1.3
						c-0.1,0.2-0.3,0.4-0.6,0.5c-0.2,0.1-0.5,0.2-0.9,0.2c-0.6,0-1-0.1-1.4-0.4c-0.3-0.3-0.6-0.7-0.7-1.1c-0.1-0.5-0.2-1-0.2-1.6
						c0-0.7,0.1-1.3,0.3-1.9c0.2-0.5,0.5-0.9,0.9-1.3c0.4-0.3,1-0.5,1.6-0.5c0.7,0,1.2,0.1,1.6,0.4c0.4,0.3,0.7,0.7,0.9,1.2
						s0.3,1.1,0.3,1.8v3.8c0,0.7-0.1,1.3-0.2,1.9c-0.2,0.6-0.4,1-0.8,1.3C151,122.2,150.5,122.3,149.7,122.3z M149.7,116.7
						c0.2,0,0.4-0.1,0.6-0.2c0.1-0.1,0.3-0.3,0.3-0.4v-1.7c0-0.3,0-0.6-0.1-0.8c-0.1-0.3-0.1-0.5-0.3-0.6c-0.1-0.2-0.3-0.2-0.6-0.2
						c-0.2,0-0.4,0.1-0.6,0.2c-0.1,0.2-0.2,0.4-0.3,0.7c-0.1,0.3-0.1,0.6-0.1,1s0,0.7,0,1s0.1,0.6,0.2,0.7
						C149.2,116.6,149.4,116.7,149.7,116.7z"/>
				</g>
			</g>
			<g>
				<polygon class="st4" points="136.2,85 137.3,88.2 140.6,88.2 137.9,90.2 139,93.4 136.2,91.4 133.5,93.4 134.5,90.2 131.8,88.2 
					135.2,88.2 				"/>
			</g>
		</g>
		<g>
			<g>
				<rect x="280.6" y="66.4" class="st2" width="86.2" height="159.7"/>
				<path class="st1" d="M366.8,226.5h-86.2c-0.2,0-0.4-0.2-0.4-0.4V66.4c0-0.2,0.2-0.4,0.4-0.4h86.2c0.2,0,0.4,0.2,0.4,0.4v159.7
					C367.2,226.3,367,226.5,366.8,226.5z M281,225.6h85.3V66.8H281V225.6z"/>
			</g>
			<g>
				<rect x="280.6" y="66.4" class="st3" width="86.2" height="31.6"/>
				<path class="st1" d="M366.8,98.4h-86.2c-0.2,0-0.4-0.2-0.4-0.4V66.4c0-0.2,0.2-0.4,0.4-0.4h86.2c0.2,0,0.4,0.2,0.4,0.4V98
					C367.2,98.3,367,98.4,366.8,98.4z M281,97.6h85.3V66.9H281V97.6z"/>
			</g>
			<g>
				<path class="st0" d="M345.7,209.7h-44c-4.9,0-8.9-4-8.9-8.9v-1.6c0-4.9,4-8.9,8.9-8.9h44c4.9,0,8.9,4,8.9,8.9v1.6
					C354.6,205.7,350.6,209.7,345.7,209.7z"/>
				<path class="st1" d="M346.2,210.1h-45.1c-4.8,0-8.8-3.9-8.8-8.8v-2.6c0-4.8,3.9-8.8,8.8-8.8h45.1c4.8,0,8.8,3.9,8.8,8.8v2.6
					C355,206.2,351.1,210.1,346.2,210.1z M301.1,190.8c-4.4,0-7.9,3.5-7.9,7.9v2.6c0,4.4,3.5,7.9,7.9,7.9h45.1
					c4.4,0,7.9-3.5,7.9-7.9v-2.6c0-4.4-3.5-7.9-7.9-7.9H301.1z"/>
			</g>
			<g>
				<g>
					<path class="st1" d="M304.1,81.7v-8.5h2.1c0.4,0,0.7,0,1,0.1s0.6,0.2,0.8,0.4c0.2,0.2,0.4,0.4,0.5,0.7s0.2,0.6,0.2,1.1
						c0,0.3,0,0.6-0.1,0.9c-0.1,0.2-0.2,0.4-0.4,0.6c-0.2,0.1-0.4,0.2-0.7,0.3c0.3,0.1,0.6,0.2,0.8,0.4c0.2,0.2,0.4,0.4,0.5,0.7
						s0.2,0.6,0.2,1s-0.1,0.8-0.2,1.1s-0.3,0.6-0.5,0.8s-0.5,0.4-0.7,0.5c-0.3,0.1-0.6,0.2-1,0.2h-2.5V81.7z M305.7,76.7h0.5
						c0.3,0,0.5,0,0.7-0.1s0.3-0.2,0.4-0.4s0.1-0.4,0.1-0.7s-0.1-0.5-0.2-0.7s-0.3-0.3-0.5-0.3c-0.2-0.1-0.5-0.1-0.8-0.1h-0.3
						L305.7,76.7L305.7,76.7z M305.7,80.6h0.6c0.5,0,0.8-0.1,1-0.3s0.3-0.6,0.3-1.1c0-0.3,0-0.6-0.1-0.8s-0.2-0.4-0.4-0.5
						c-0.2-0.1-0.4-0.2-0.7-0.2h-0.5v2.9H305.7z"/>
				</g>
				<g>
					<path class="st1" d="M312.3,81.8c-0.6,0-1.1-0.1-1.5-0.3s-0.6-0.6-0.7-1s-0.2-0.9-0.2-1.5v-5.8h1.5v6c0,0.3,0,0.5,0.1,0.8
						c0,0.2,0.1,0.4,0.2,0.6c0.1,0.1,0.3,0.2,0.6,0.2c0.3,0,0.5-0.1,0.6-0.2c0.1-0.1,0.2-0.3,0.2-0.6c0-0.2,0.1-0.5,0.1-0.8v-6h1.5
						V79c0,0.6-0.1,1.1-0.2,1.5s-0.4,0.8-0.7,1C313.5,81.7,313,81.8,312.3,81.8z"/>
				</g>
				<g>
					<path class="st1" d="M318.1,81.8c-0.5,0-0.9-0.1-1.3-0.3c-0.3-0.2-0.6-0.5-0.8-0.9c-0.2-0.4-0.3-0.9-0.3-1.4l1.3-0.3
						c0,0.3,0.1,0.6,0.1,0.9c0.1,0.3,0.2,0.4,0.3,0.6c0.1,0.1,0.3,0.2,0.5,0.2c0.3,0,0.4-0.1,0.5-0.2c0.1-0.2,0.2-0.3,0.2-0.6
						c0-0.4-0.1-0.7-0.3-0.9c-0.2-0.2-0.4-0.5-0.7-0.7l-1.1-0.9c-0.3-0.3-0.5-0.5-0.7-0.9c-0.2-0.3-0.3-0.7-0.3-1.2
						c0-0.7,0.2-1.2,0.6-1.6c0.4-0.4,0.9-0.5,1.6-0.5c0.4,0,0.7,0.1,1,0.2c0.3,0.1,0.5,0.3,0.6,0.5c0.2,0.2,0.3,0.5,0.4,0.7
						c0.1,0.3,0.1,0.6,0.1,0.9l-1.3,0.2c0-0.3,0-0.5-0.1-0.7c0-0.2-0.1-0.4-0.2-0.5s-0.3-0.2-0.5-0.2s-0.4,0.1-0.5,0.2
						c-0.1,0.2-0.2,0.3-0.2,0.6s0.1,0.5,0.2,0.7s0.3,0.4,0.5,0.6l1.1,0.9c0.4,0.3,0.7,0.6,0.9,1c0.2,0.4,0.4,0.9,0.4,1.4
						c0,0.4-0.1,0.8-0.3,1.1c-0.2,0.3-0.4,0.6-0.7,0.7C318.9,81.7,318.6,81.8,318.1,81.8z"/>
				</g>
				<g>
					<path class="st1" d="M321.1,81.7v-8.5h1.5v8.5H321.1z"/>
				</g>
				<g>
					<path class="st1" d="M324,81.7v-8.5h1.1l2.1,4.9v-4.9h1.3v8.5h-1l-2.1-5.1v5.1H324z"/>
				</g>
				<g>
					<path class="st1" d="M329.7,81.7v-8.5h3.6v1.1h-2v2.5h1.6v1.1h-1.6v2.8h2v1.1h-3.6V81.7z"/>
				</g>
				<g>
					<path class="st1" d="M336.4,81.8c-0.5,0-0.9-0.1-1.3-0.3c-0.3-0.2-0.6-0.5-0.8-0.9c-0.2-0.4-0.3-0.9-0.3-1.4l1.3-0.3
						c0,0.3,0.1,0.6,0.1,0.9c0.1,0.3,0.2,0.4,0.3,0.6c0.1,0.1,0.3,0.2,0.5,0.2c0.3,0,0.4-0.1,0.5-0.2c0.1-0.2,0.2-0.3,0.2-0.6
						c0-0.4-0.1-0.7-0.3-0.9c-0.2-0.2-0.4-0.5-0.7-0.7l-1.1-0.9c-0.3-0.3-0.5-0.5-0.7-0.9c-0.2-0.3-0.3-0.7-0.3-1.2
						c0-0.7,0.2-1.2,0.6-1.6c0.4-0.4,0.9-0.5,1.6-0.5c0.4,0,0.7,0.1,1,0.2c0.3,0.1,0.5,0.3,0.6,0.5c0.2,0.2,0.3,0.5,0.4,0.7
						c0.1,0.3,0.1,0.6,0.1,0.9l-1.3,0.2c0-0.3,0-0.5-0.1-0.7c0-0.2-0.1-0.4-0.2-0.5s-0.3-0.2-0.5-0.2s-0.4,0.1-0.5,0.2
						c-0.1,0.2-0.2,0.3-0.2,0.6s0.1,0.5,0.2,0.7s0.3,0.4,0.5,0.6l1.1,0.9c0.4,0.3,0.7,0.6,0.9,1c0.2,0.4,0.4,0.9,0.4,1.4
						c0,0.4-0.1,0.8-0.3,1.1c-0.2,0.3-0.4,0.6-0.7,0.7C337.2,81.7,336.8,81.8,336.4,81.8z"/>
				</g>
				<g>
					<path class="st1" d="M341.5,81.8c-0.5,0-0.9-0.1-1.3-0.3c-0.3-0.2-0.6-0.5-0.8-0.9c-0.2-0.4-0.3-0.9-0.3-1.4l1.3-0.3
						c0,0.3,0.1,0.6,0.1,0.9c0.1,0.3,0.2,0.4,0.3,0.6c0.1,0.1,0.3,0.2,0.5,0.2c0.3,0,0.4-0.1,0.5-0.2c0.1-0.2,0.2-0.3,0.2-0.6
						c0-0.4-0.1-0.7-0.3-0.9c-0.2-0.2-0.4-0.5-0.7-0.7l-1.1-0.9c-0.3-0.3-0.5-0.5-0.7-0.9c-0.2-0.3-0.3-0.7-0.3-1.2
						c0-0.7,0.2-1.2,0.6-1.6c0.4-0.4,0.9-0.5,1.6-0.5c0.4,0,0.7,0.1,1,0.2c0.3,0.1,0.5,0.3,0.6,0.5c0.2,0.2,0.3,0.5,0.4,0.7
						c0.1,0.3,0.1,0.6,0.1,0.9l-1.3,0.2c0-0.3,0-0.5-0.1-0.7c0-0.2-0.1-0.4-0.2-0.5s-0.3-0.2-0.5-0.2s-0.4,0.1-0.5,0.2
						c-0.1,0.2-0.2,0.3-0.2,0.6s0.1,0.5,0.2,0.7s0.3,0.4,0.5,0.6l1.1,0.9c0.4,0.3,0.7,0.6,0.9,1c0.2,0.4,0.4,0.9,0.4,1.4
						c0,0.4-0.1,0.8-0.3,1.1c-0.2,0.3-0.4,0.6-0.7,0.7C342.3,81.7,342,81.8,341.5,81.8z"/>
				</g>
			</g>
			<g>
				<g>
					<path class="st1" d="M311.3,203.8c-0.5,0-0.9-0.1-1.3-0.3c-0.3-0.2-0.6-0.5-0.8-0.9c-0.2-0.4-0.3-0.9-0.3-1.4l1.3-0.3
						c0,0.3,0.1,0.6,0.1,0.9c0.1,0.3,0.2,0.4,0.3,0.6c0.1,0.1,0.3,0.2,0.5,0.2c0.3,0,0.4-0.1,0.5-0.2c0.1-0.2,0.2-0.3,0.2-0.6
						c0-0.4-0.1-0.7-0.3-0.9c-0.2-0.2-0.4-0.5-0.7-0.7l-1.1-0.9c-0.3-0.3-0.5-0.5-0.7-0.9c-0.2-0.3-0.3-0.7-0.3-1.2
						c0-0.7,0.2-1.2,0.6-1.6s0.9-0.5,1.6-0.5c0.4,0,0.7,0.1,1,0.2s0.5,0.3,0.6,0.5c0.2,0.2,0.3,0.5,0.4,0.7c0.1,0.3,0.1,0.6,0.1,0.9
						l-1.3,0.2c0-0.3,0-0.5-0.1-0.7c0-0.2-0.1-0.4-0.2-0.5s-0.3-0.2-0.5-0.2s-0.4,0.1-0.5,0.2c-0.1,0.2-0.2,0.3-0.2,0.6
						c0,0.3,0.1,0.5,0.2,0.7s0.3,0.4,0.5,0.6l1.1,0.9c0.4,0.3,0.7,0.6,0.9,1c0.2,0.4,0.4,0.9,0.4,1.4c0,0.4-0.1,0.8-0.3,1.1
						c-0.2,0.3-0.4,0.6-0.7,0.7C312.1,203.7,311.8,203.8,311.3,203.8z"/>
				</g>
				<g>
					<path class="st1" d="M314.3,196.6v-1.2h1.4v1.2H314.3z M314.3,203.7v-6.1h1.4v6.1H314.3z"/>
				</g>
				<g>
					<path class="st1" d="M318.6,205.7c-0.4,0-0.8,0-1.1-0.1c-0.3-0.1-0.6-0.2-0.7-0.4c-0.2-0.2-0.3-0.4-0.3-0.7
						c0-0.2,0-0.4,0.1-0.5c0.1-0.2,0.2-0.3,0.3-0.4c0.1-0.1,0.3-0.2,0.5-0.3c-0.2-0.1-0.4-0.2-0.5-0.3c-0.1-0.1-0.2-0.3-0.2-0.5
						s0.1-0.4,0.2-0.6s0.3-0.3,0.5-0.5c-0.2-0.2-0.4-0.4-0.5-0.7c-0.1-0.3-0.2-0.6-0.2-1c0-0.5,0.1-0.9,0.2-1.2
						c0.2-0.3,0.4-0.6,0.7-0.7c0.3-0.2,0.6-0.2,1.1-0.2c0.3,0,0.6,0,0.8,0.1c0.2,0.1,0.4,0.2,0.5,0.4c0.1-0.1,0.2-0.2,0.3-0.3
						c0.1-0.1,0.3-0.2,0.5-0.3l0.2-0.1l0.3,0.8c-0.1,0-0.2,0.1-0.3,0.1c-0.1,0-0.3,0.1-0.4,0.2s-0.2,0.1-0.3,0.1
						c0.1,0.1,0.1,0.3,0.2,0.5c0,0.2,0.1,0.4,0.1,0.6c0,0.4-0.1,0.8-0.2,1.1c-0.1,0.3-0.3,0.6-0.6,0.7c-0.3,0.2-0.6,0.3-1.1,0.3
						c-0.1,0-0.3,0-0.4,0s-0.3-0.1-0.4-0.1c0,0.1-0.1,0.1-0.1,0.2s-0.1,0.1-0.1,0.2s0,0.1,0.1,0.2c0.1,0,0.2,0.1,0.4,0.1l1.3,0.1
						c0.5,0,0.9,0.2,1.1,0.5s0.4,0.6,0.4,1.1c0,0.4-0.1,0.7-0.2,0.9c-0.2,0.2-0.4,0.4-0.8,0.6C319.6,205.6,319.2,205.7,318.6,205.7z
						 M318.8,204.6c0.4,0,0.7,0,0.9-0.1c0.2-0.1,0.3-0.2,0.3-0.4c0-0.1,0-0.2-0.1-0.3c0-0.1-0.1-0.1-0.3-0.2c-0.1,0-0.3-0.1-0.5-0.1
						l-1-0.1c-0.1,0.1-0.1,0.1-0.2,0.2s-0.1,0.1-0.1,0.2s-0.1,0.2-0.1,0.2c0,0.2,0.1,0.3,0.3,0.4
						C318.1,204.6,318.4,204.6,318.8,204.6z M318.7,200.8c0.1,0,0.2,0,0.3-0.1c0.1,0,0.1-0.1,0.2-0.2c0-0.1,0.1-0.2,0.1-0.4
						c0-0.2,0-0.3,0-0.5s0-0.4,0-0.5c0-0.2,0-0.3-0.1-0.4c0-0.1-0.1-0.2-0.2-0.2s-0.2-0.1-0.3-0.1c-0.1,0-0.2,0-0.3,0.1
						c-0.1,0-0.1,0.1-0.2,0.2c0,0.1-0.1,0.2-0.1,0.4c0,0.2,0,0.3,0,0.5s0,0.4,0,0.5c0,0.2,0,0.3,0.1,0.4c0,0.1,0.1,0.2,0.2,0.2
						C318.5,200.8,318.6,200.8,318.7,200.8z"/>
				</g>
				<g>
					<path class="st1" d="M321.8,203.7v-6.1h1.4v0.6c0.2-0.2,0.4-0.4,0.7-0.5c0.2-0.1,0.5-0.2,0.8-0.2s0.5,0.1,0.6,0.2
						s0.3,0.3,0.3,0.5c0.1,0.2,0.1,0.4,0.1,0.7v4.8h-1.4v-4.6c0-0.2,0-0.3-0.1-0.4s-0.2-0.1-0.3-0.1c-0.1,0-0.2,0-0.3,0.1
						c-0.1,0.1-0.2,0.1-0.3,0.2v4.8H321.8z"/>
				</g>
				<g>
					<path class="st1" d="M330.3,203.8c-0.2,0-0.4-0.1-0.6-0.2s-0.3-0.3-0.3-0.5c-0.1-0.2-0.1-0.4-0.1-0.7v-4.8h1.4v4.6
						c0,0.2,0,0.3,0.1,0.4s0.2,0.2,0.3,0.2c0.1,0,0.2,0,0.3-0.1c0.1-0.1,0.2-0.1,0.3-0.2v-4.9h1.4v6.1h-1.4v-0.6
						c-0.2,0.2-0.4,0.4-0.7,0.5C330.9,203.7,330.6,203.8,330.3,203.8z"/>
				</g>
				<g>
					<path class="st1" d="M334.3,205.7v-8.1h1.4v0.5c0.2-0.2,0.4-0.3,0.6-0.4s0.4-0.2,0.7-0.2c0.3,0,0.5,0.1,0.7,0.2
						s0.3,0.3,0.4,0.5s0.2,0.4,0.2,0.7c0,0.2,0.1,0.5,0.1,0.7v2.1c0,0.4,0,0.8-0.1,1.1c-0.1,0.3-0.2,0.6-0.5,0.8
						c-0.2,0.2-0.5,0.3-0.8,0.3c-0.2,0-0.4-0.1-0.6-0.2s-0.4-0.2-0.6-0.4v2.5h-1.5V205.7z M336.4,202.8c0.2,0,0.3-0.1,0.3-0.2
						c0.1-0.1,0.1-0.2,0.1-0.4c0-0.2,0-0.4,0-0.6v-2.2c0-0.2,0-0.4,0-0.5c0-0.2-0.1-0.3-0.2-0.4s-0.2-0.1-0.3-0.1
						c-0.1,0-0.2,0-0.3,0.1c-0.1,0.1-0.2,0.1-0.3,0.2v3.8c0.1,0.1,0.2,0.1,0.3,0.2C336.2,202.7,336.3,202.8,336.4,202.8z"/>
				</g>
			</g>
			<g>
				<g>
					<path class="st1" d="M305.7,124v-1.6c-1.3-0.1-2.3-0.5-3-1.3s-1-2-1.1-3.5l2.5-0.5c0,0.6,0.1,1.1,0.2,1.6s0.3,0.8,0.6,1.1
						c0.3,0.3,0.6,0.4,1,0.4c0.5,0,0.8-0.1,1-0.4s0.3-0.6,0.3-1.1c0-0.7-0.2-1.2-0.5-1.7c-0.3-0.4-0.7-0.9-1.2-1.3l-2-1.7
						c-0.4-0.3-0.7-0.7-0.9-1c-0.3-0.4-0.5-0.8-0.6-1.2c-0.2-0.4-0.2-1-0.2-1.6c0-1.2,0.3-2.1,1-2.8c0.7-0.7,1.6-1,2.7-1.1v-1.6h0.8
						v1.5c0.7,0,1.2,0.2,1.6,0.4c0.4,0.3,0.8,0.6,1,1c0.3,0.4,0.4,0.8,0.6,1.3c0.1,0.5,0.2,1,0.2,1.5l-2.4,0.4
						c0-0.5-0.1-0.9-0.2-1.3s-0.2-0.7-0.4-0.9c-0.2-0.2-0.5-0.3-0.9-0.3s-0.8,0.2-1,0.4c-0.2,0.3-0.3,0.6-0.3,1c0,0.6,0.1,1,0.4,1.3
						c0.2,0.3,0.5,0.7,0.9,1l2,1.7c0.4,0.4,0.8,0.8,1.2,1.2c0.4,0.4,0.6,0.9,0.9,1.5c0.2,0.5,0.3,1.2,0.3,1.9c0,0.7-0.1,1.3-0.4,1.9
						c-0.3,0.5-0.7,1-1.2,1.3s-1.1,0.5-1.8,0.6v1.6h-1.1V124z"/>
				</g>
				<g>
					<path class="st1" d="M311.3,122.2v-1.9l3.9-6c0.3-0.4,0.6-0.9,0.8-1.3c0.3-0.4,0.5-0.8,0.6-1.2c0.2-0.4,0.2-0.9,0.2-1.4
						c0-0.6-0.1-1-0.3-1.3c-0.2-0.3-0.5-0.5-1-0.5c-0.4,0-0.7,0.1-1,0.3c-0.2,0.2-0.4,0.5-0.5,0.9s-0.1,0.8-0.1,1.2v0.7h-2.6V111
						c0-0.9,0.1-1.7,0.4-2.5c0.3-0.7,0.7-1.3,1.3-1.7c0.6-0.4,1.4-0.6,2.4-0.6c1.3,0,2.4,0.4,3,1.1c0.7,0.7,1,1.7,1,3
						c0,0.6-0.1,1.2-0.3,1.8c-0.2,0.5-0.4,1-0.7,1.5c-0.3,0.5-0.6,1-1,1.5l-3.2,4.9h4.8v2.2H311.3z"/>
				</g>
				<g>
					<path class="st1" d="M325,122.4c-1,0-1.9-0.2-2.4-0.6c-0.6-0.4-1-0.9-1.2-1.6s-0.3-1.5-0.3-2.5h2.6c0,0.5,0,1,0.1,1.4
						s0.2,0.7,0.4,0.9c0.2,0.2,0.5,0.3,0.9,0.3c0.5,0,0.8-0.1,1-0.4s0.3-0.7,0.4-1.2s0.1-1.1,0.1-1.8c0-0.6,0-1.1-0.1-1.6
						s-0.2-0.8-0.4-1.1c-0.2-0.3-0.5-0.4-1-0.4c-0.4,0-0.7,0.1-0.9,0.4c-0.2,0.3-0.4,0.6-0.5,1h-2.3l0.2-8.7h7.1v2.4h-4.8l-0.2,3.8
						c0.2-0.2,0.5-0.4,0.8-0.6c0.4-0.1,0.8-0.2,1.2-0.3c0.8,0,1.5,0.1,2,0.5s0.9,0.9,1.1,1.7c0.2,0.7,0.4,1.6,0.4,2.6
						c0,0.8-0.1,1.6-0.2,2.3c-0.1,0.7-0.3,1.3-0.6,1.8c-0.3,0.5-0.7,0.9-1.2,1.2C326.5,122.3,325.8,122.4,325,122.4z"/>
				</g>
				<g>
					<path class="st1" d="M330.3,122.2v-1.8h1.7v1.8H330.3z"/>
				</g>
				<g>
					<path class="st1" d="M335.9,122.3c-0.6,0-1.1-0.1-1.5-0.3c-0.4-0.2-0.7-0.5-0.9-0.9c-0.2-0.4-0.3-0.9-0.3-1.5c0,0,0,0,0-0.1
						v-0.1h1.7c0,0.5,0.1,0.8,0.2,1.1c0.1,0.2,0.4,0.4,0.8,0.4c0.2,0,0.4-0.1,0.6-0.2c0.1-0.1,0.2-0.4,0.3-0.7
						c0.1-0.3,0.1-0.8,0.1-1.3v-1.3c-0.1,0.2-0.3,0.4-0.6,0.5c-0.2,0.1-0.5,0.2-0.9,0.2c-0.6,0-1-0.1-1.4-0.4
						c-0.3-0.3-0.6-0.7-0.7-1.1c-0.1-0.5-0.2-1-0.2-1.6c0-0.7,0.1-1.3,0.3-1.9c0.2-0.5,0.5-0.9,0.9-1.3c0.4-0.3,1-0.5,1.6-0.5
						c0.7,0,1.2,0.1,1.6,0.4s0.7,0.7,0.9,1.2c0.2,0.5,0.3,1.1,0.3,1.8v3.8c0,0.7-0.1,1.3-0.2,1.9c-0.2,0.6-0.4,1-0.8,1.3
						C337.2,122.2,336.6,122.3,335.9,122.3z M335.9,116.7c0.2,0,0.4-0.1,0.6-0.2c0.1-0.1,0.3-0.3,0.3-0.4v-1.7c0-0.3,0-0.6-0.1-0.8
						c-0.1-0.3-0.1-0.5-0.3-0.6c-0.1-0.2-0.3-0.2-0.6-0.2c-0.2,0-0.4,0.1-0.6,0.2c-0.1,0.2-0.2,0.4-0.3,0.7c-0.1,0.3-0.1,0.6-0.1,1
						s0,0.7,0,1s0.1,0.6,0.2,0.7C335.4,116.6,335.6,116.7,335.9,116.7z"/>
				</g>
				<g>
					<path class="st1" d="M342.8,122.3c-0.6,0-1.1-0.1-1.5-0.3c-0.4-0.2-0.7-0.5-0.9-0.9c-0.2-0.4-0.3-0.9-0.3-1.5c0,0,0,0,0-0.1
						v-0.1h1.7c0,0.5,0.1,0.8,0.2,1.1c0.1,0.2,0.4,0.4,0.8,0.4c0.2,0,0.4-0.1,0.6-0.2c0.1-0.1,0.2-0.4,0.3-0.7
						c0.1-0.3,0.1-0.8,0.1-1.3v-1.3c-0.1,0.2-0.3,0.4-0.6,0.5c-0.2,0.1-0.5,0.2-0.9,0.2c-0.6,0-1-0.1-1.4-0.4
						c-0.3-0.3-0.6-0.7-0.7-1.1c-0.1-0.5-0.2-1-0.2-1.6c0-0.7,0.1-1.3,0.3-1.9c0.2-0.5,0.5-0.9,0.9-1.3c0.4-0.3,1-0.5,1.6-0.5
						c0.7,0,1.2,0.1,1.6,0.4s0.7,0.7,0.9,1.2c0.2,0.5,0.3,1.1,0.3,1.8v3.8c0,0.7-0.1,1.3-0.2,1.9c-0.2,0.6-0.4,1-0.8,1.3
						C344.1,122.2,343.5,122.3,342.8,122.3z M342.8,116.7c0.2,0,0.4-0.1,0.6-0.2c0.1-0.1,0.3-0.3,0.3-0.4v-1.7c0-0.3,0-0.6-0.1-0.8
						c-0.1-0.3-0.1-0.5-0.3-0.6c-0.1-0.2-0.3-0.2-0.6-0.2c-0.2,0-0.4,0.1-0.6,0.2c-0.1,0.2-0.2,0.4-0.3,0.7c-0.1,0.3-0.1,0.6-0.1,1
						s0,0.7,0,1s0.1,0.6,0.2,0.7C342.2,116.6,342.5,116.7,342.8,116.7z"/>
				</g>
			</g>
			<g>
				<g>
					<path class="st1" d="M347.4,135.2H300c-0.2,0-0.4-0.2-0.4-0.4s0.2-0.4,0.4-0.4h47.4c0.2,0,0.4,0.2,0.4,0.4
						S347.6,135.2,347.4,135.2z"/>
				</g>
				<g>
					<path class="st1" d="M347.4,144.4H300c-0.2,0-0.4-0.2-0.4-0.4s0.2-0.4,0.4-0.4h47.4c0.2,0,0.4,0.2,0.4,0.4
						S347.6,144.4,347.4,144.4z"/>
				</g>
				<g>
					<path class="st1" d="M347.4,153.5H300c-0.2,0-0.4-0.2-0.4-0.4s0.2-0.4,0.4-0.4h47.4c0.2,0,0.4,0.2,0.4,0.4
						S347.6,153.5,347.4,153.5z"/>
				</g>
				<g>
					<path class="st1" d="M347.4,162.7H300c-0.2,0-0.4-0.2-0.4-0.4s0.2-0.4,0.4-0.4h47.4c0.2,0,0.4,0.2,0.4,0.4
						S347.6,162.7,347.4,162.7z"/>
				</g>
				<g>
					<path class="st1" d="M347.4,171.9H300c-0.2,0-0.4-0.2-0.4-0.4c0-0.2,0.2-0.4,0.4-0.4h47.4c0.2,0,0.4,0.2,0.4,0.4
						S347.6,171.9,347.4,171.9z"/>
				</g>
			</g>
			<g>
				<g>
					<polygon class="st4" points="301.5,85 302.5,88.2 305.9,88.2 303.2,90.2 304.2,93.4 301.5,91.4 298.8,93.4 299.8,90.2 
						297.1,88.2 300.5,88.2 					"/>
				</g>
				<g>
					<polygon class="st4" points="312.6,85 313.6,88.2 317,88.2 314.3,90.2 315.3,93.4 312.6,91.4 309.9,93.4 310.9,90.2 
						308.2,88.2 311.5,88.2 					"/>
				</g>
				<g>
					<polygon class="st4" points="323.7,85 324.7,88.2 328.1,88.2 325.4,90.2 326.4,93.4 323.7,91.4 320.9,93.4 322,90.2 
						319.3,88.2 322.6,88.2 					"/>
				</g>
				<g>
					<polygon class="st4" points="334.8,85 335.8,88.2 339.2,88.2 336.4,90.2 337.5,93.4 334.8,91.4 332,93.4 333.1,90.2 
						330.3,88.2 333.7,88.2 					"/>
				</g>
				<g>
					<polygon class="st4" points="345.8,85 346.9,88.2 350.3,88.2 347.5,90.2 348.6,93.4 345.8,91.4 343.1,93.4 344.2,90.2 
						341.4,88.2 344.8,88.2 					"/>
				</g>
			</g>
		</g>
		<g>
			<g>
				<rect x="186.5" y="66.4" class="st0" width="86.2" height="159.7"/>
				<path class="st1" d="M272.7,226.5h-86.2c-0.2,0-0.4-0.2-0.4-0.4V66.4c0-0.2,0.2-0.4,0.4-0.4h86.2c0.2,0,0.4,0.2,0.4,0.4v159.7
					C273.1,226.3,272.9,226.5,272.7,226.5z M186.9,225.6h85.4V66.8H187L186.9,225.6L186.9,225.6z"/>
			</g>
			<g>
				<rect x="186.5" y="66.4" class="st3" width="86.2" height="31.6"/>
				<path class="st1" d="M272.7,98.4h-86.2c-0.2,0-0.4-0.2-0.4-0.4V66.4c0-0.2,0.2-0.4,0.4-0.4h86.2c0.2,0,0.4,0.2,0.4,0.4V98
					C273.1,98.3,272.9,98.4,272.7,98.4z M186.9,97.6h85.4V66.9H187L186.9,97.6L186.9,97.6z"/>
			</g>
			<g>
				<path class="st0" d="M251.6,209.7h-44c-4.9,0-8.9-4-8.9-8.9v-1.6c0-4.9,4-8.9,8.9-8.9h44c4.9,0,8.9,4,8.9,8.9v1.6
					C260.5,205.7,256.5,209.7,251.6,209.7z"/>
				<path class="st1" d="M252.1,210.1H207c-4.8,0-8.8-3.9-8.8-8.8v-2.6c0-4.8,3.9-8.8,8.8-8.8h45.1c4.8,0,8.8,3.9,8.8,8.8v2.6
					C260.9,206.2,257,210.1,252.1,210.1z M207.1,190.8c-4.4,0-7.9,3.5-7.9,7.9v2.6c0,4.4,3.5,7.9,7.9,7.9h45.1
					c4.4,0,7.9-3.5,7.9-7.9v-2.6c0-4.4-3.5-7.9-7.9-7.9H207.1z"/>
			</g>
			<g>
				<g>
					<path class="st1" d="M210.7,81.7v-8.5h2.5c0.5,0,0.9,0.1,1.2,0.3s0.6,0.5,0.7,0.8c0.2,0.4,0.2,0.8,0.2,1.3c0,0.6-0.1,1-0.3,1.3
						s-0.5,0.6-0.8,0.7c-0.3,0.2-0.7,0.2-1.2,0.2h-0.7v3.8L210.7,81.7L210.7,81.7z M212.3,76.8h0.6c0.3,0,0.5,0,0.7-0.1
						s0.3-0.2,0.3-0.4c0.1-0.2,0.1-0.4,0.1-0.7s0-0.6-0.1-0.8c0-0.2-0.1-0.3-0.3-0.4c-0.2-0.1-0.4-0.1-0.7-0.1h-0.6V76.8z"/>
				</g>
				<g>
					<path class="st1" d="M216.2,81.7v-8.5h2c0.6,0,1.1,0.1,1.5,0.2c0.4,0.1,0.7,0.4,0.9,0.7s0.3,0.8,0.3,1.3c0,0.3,0,0.7-0.1,0.9
						c-0.1,0.3-0.2,0.5-0.3,0.7c-0.2,0.2-0.4,0.3-0.6,0.4l1.2,4.2h-1.6l-1-3.9h-0.7v3.9h-1.6V81.7z M217.8,76.8h0.5
						c0.3,0,0.5,0,0.7-0.1s0.3-0.2,0.4-0.4c0.1-0.2,0.1-0.4,0.1-0.7c0-0.4-0.1-0.8-0.2-1c-0.2-0.2-0.5-0.3-0.9-0.3h-0.6V76.8z"/>
				</g>
				<g>
					<path class="st1" d="M222.1,81.7v-8.5h3.6v1.1h-2v2.5h1.6v1.1h-1.6v2.8h2v1.1h-3.6V81.7z"/>
				</g>
				<g>
					<path class="st1" d="M226.6,81.7l0.1-8.5h1.6l1.2,5.9l1.3-5.9h1.6l0.2,8.5h-1.2l-0.1-5.9l-1.2,5.9h-0.9l-1.2-6l-0.1,6H226.6z"
						/>
				</g>
				<g>
					<path class="st1" d="M233.8,81.7v-8.5h1.5v8.5H233.8z"/>
				</g>
				<g>
					<path class="st1" d="M239,81.8c-0.6,0-1.1-0.1-1.5-0.3s-0.6-0.6-0.7-1c-0.1-0.4-0.2-0.9-0.2-1.5v-5.8h1.5v6
						c0,0.3,0,0.5,0.1,0.8c0,0.2,0.1,0.4,0.2,0.6c0.1,0.1,0.3,0.2,0.6,0.2c0.3,0,0.5-0.1,0.6-0.2c0.1-0.1,0.2-0.3,0.2-0.6
						c0-0.2,0.1-0.5,0.1-0.8v-6h1.5V79c0,0.6-0.1,1.1-0.2,1.5s-0.4,0.8-0.7,1C240.1,81.7,239.6,81.8,239,81.8z"/>
				</g>
				<g>
					<path class="st1" d="M242.6,81.7l0.1-8.5h1.6l1.2,5.9l1.3-5.9h1.6l0.2,8.5h-1.2l-0.1-5.9l-1.2,5.9h-0.9l-1.2-6l-0.1,6H242.6z"
						/>
				</g>
			</g>
			<g>
				<g>
					<path class="st1" d="M217.3,203.8c-0.5,0-0.9-0.1-1.3-0.3c-0.3-0.2-0.6-0.5-0.8-0.9s-0.3-0.9-0.3-1.4l1.3-0.3
						c0,0.3,0.1,0.6,0.1,0.9c0.1,0.3,0.2,0.4,0.3,0.6c0.1,0.1,0.3,0.2,0.5,0.2c0.3,0,0.4-0.1,0.5-0.2c0.1-0.2,0.2-0.3,0.2-0.6
						c0-0.4-0.1-0.7-0.3-0.9c-0.2-0.2-0.4-0.5-0.7-0.7l-1.1-0.9c-0.3-0.3-0.5-0.5-0.7-0.9c-0.2-0.3-0.3-0.7-0.3-1.2
						c0-0.7,0.2-1.2,0.6-1.6c0.4-0.4,0.9-0.5,1.6-0.5c0.4,0,0.7,0.1,1,0.2s0.5,0.3,0.6,0.5c0.2,0.2,0.3,0.5,0.4,0.7
						c0.1,0.3,0.1,0.6,0.1,0.9l-1.3,0.2c0-0.3,0-0.5-0.1-0.7c0-0.2-0.1-0.4-0.2-0.5c-0.1-0.1-0.3-0.2-0.5-0.2s-0.4,0.1-0.5,0.2
						c-0.1,0.2-0.2,0.3-0.2,0.6c0,0.3,0.1,0.5,0.2,0.7c0.1,0.2,0.3,0.4,0.5,0.6l1.1,0.9c0.4,0.3,0.7,0.6,0.9,1s0.4,0.9,0.4,1.4
						c0,0.4-0.1,0.8-0.3,1.1c-0.2,0.3-0.4,0.6-0.7,0.7C218.1,203.7,217.7,203.8,217.3,203.8z"/>
				</g>
				<g>
					<path class="st1" d="M220.2,196.6v-1.2h1.4v1.2H220.2z M220.2,203.7v-6.1h1.4v6.1H220.2z"/>
				</g>
				<g>
					<path class="st1" d="M224.6,205.7c-0.4,0-0.8,0-1.1-0.1s-0.6-0.2-0.7-0.4c-0.2-0.2-0.3-0.4-0.3-0.7c0-0.2,0-0.4,0.1-0.5
						c0.1-0.2,0.2-0.3,0.3-0.4s0.3-0.2,0.5-0.3c-0.2-0.1-0.4-0.2-0.5-0.3c-0.1-0.1-0.2-0.3-0.2-0.5s0.1-0.4,0.2-0.6
						c0.1-0.2,0.3-0.3,0.5-0.5c-0.2-0.2-0.4-0.4-0.5-0.7c-0.1-0.3-0.2-0.6-0.2-1c0-0.5,0.1-0.9,0.2-1.2c0.2-0.3,0.4-0.6,0.7-0.7
						c0.3-0.2,0.6-0.2,1.1-0.2c0.3,0,0.6,0,0.8,0.1s0.4,0.2,0.5,0.4c0.1-0.1,0.2-0.2,0.3-0.3c0.1-0.1,0.3-0.2,0.5-0.3l0.2-0.1
						l0.3,0.8c-0.1,0-0.2,0.1-0.3,0.1s-0.3,0.1-0.4,0.2c-0.1,0.1-0.2,0.1-0.3,0.1c0.1,0.1,0.1,0.3,0.2,0.5c0,0.2,0.1,0.4,0.1,0.6
						c0,0.4-0.1,0.8-0.2,1.1c-0.1,0.3-0.3,0.6-0.6,0.7c-0.3,0.2-0.6,0.3-1.1,0.3c-0.1,0-0.3,0-0.4,0c-0.1,0-0.3-0.1-0.4-0.1
						c0,0.1-0.1,0.1-0.1,0.2s-0.1,0.1-0.1,0.2s0,0.1,0.1,0.2c0.1,0,0.2,0.1,0.4,0.1l1.3,0.1c0.5,0,0.9,0.2,1.1,0.5
						c0.2,0.3,0.4,0.6,0.4,1.1c0,0.4-0.1,0.7-0.2,0.9c-0.2,0.2-0.4,0.4-0.8,0.6C225.6,205.6,225.1,205.7,224.6,205.7z M224.7,204.6
						c0.4,0,0.7,0,0.9-0.1s0.3-0.2,0.3-0.4c0-0.1,0-0.2-0.1-0.3s-0.1-0.1-0.3-0.2c-0.1,0-0.3-0.1-0.5-0.1l-1-0.1
						c-0.1,0.1-0.1,0.1-0.2,0.2c-0.1,0.1-0.1,0.1-0.1,0.2s-0.1,0.2-0.1,0.2c0,0.2,0.1,0.3,0.3,0.4
						C224,204.6,224.3,204.6,224.7,204.6z M224.6,200.8c0.1,0,0.2,0,0.3-0.1c0.1,0,0.1-0.1,0.2-0.2c0-0.1,0.1-0.2,0.1-0.4
						c0-0.2,0-0.3,0-0.5s0-0.4,0-0.5c0-0.2,0-0.3-0.1-0.4c0-0.1-0.1-0.2-0.2-0.2c-0.1,0-0.2-0.1-0.3-0.1s-0.2,0-0.3,0.1
						c-0.1,0-0.1,0.1-0.2,0.2c0,0.1-0.1,0.2-0.1,0.4c0,0.2,0,0.3,0,0.5s0,0.4,0,0.5c0,0.2,0,0.3,0.1,0.4c0,0.1,0.1,0.2,0.2,0.2
						C224.4,200.8,224.5,200.8,224.6,200.8z"/>
				</g>
				<g>
					<path class="st1" d="M227.7,203.7v-6.1h1.4v0.6c0.2-0.2,0.4-0.4,0.7-0.5c0.2-0.1,0.5-0.2,0.8-0.2s0.5,0.1,0.6,0.2
						s0.3,0.3,0.3,0.5c0.1,0.2,0.1,0.4,0.1,0.7v4.8h-1.4v-4.6c0-0.2,0-0.3-0.1-0.4s-0.2-0.1-0.3-0.1s-0.2,0-0.3,0.1
						s-0.2,0.1-0.3,0.2v4.8H227.7z"/>
				</g>
				<g>
					<path class="st1" d="M236.2,203.8c-0.2,0-0.4-0.1-0.6-0.2c-0.2-0.1-0.3-0.3-0.3-0.5c-0.1-0.2-0.1-0.4-0.1-0.7v-4.8h1.4v4.6
						c0,0.2,0,0.3,0.1,0.4s0.2,0.2,0.3,0.2s0.2,0,0.3-0.1s0.2-0.1,0.3-0.2v-4.9h1.4v6.1h-1.4v-0.6c-0.2,0.2-0.4,0.4-0.7,0.5
						C236.8,203.7,236.5,203.8,236.2,203.8z"/>
				</g>
				<g>
					<path class="st1" d="M240.2,205.7v-8.1h1.4v0.5c0.2-0.2,0.4-0.3,0.6-0.4s0.4-0.2,0.7-0.2c0.3,0,0.5,0.1,0.7,0.2
						s0.3,0.3,0.4,0.5s0.2,0.4,0.2,0.7c0,0.2,0.1,0.5,0.1,0.7v2.1c0,0.4,0,0.8-0.1,1.1c-0.1,0.3-0.2,0.6-0.5,0.8
						c-0.2,0.2-0.5,0.3-0.8,0.3c-0.2,0-0.4-0.1-0.6-0.2s-0.4-0.2-0.6-0.4v2.5h-1.5V205.7z M242.3,202.8c0.2,0,0.3-0.1,0.3-0.2
						c0.1-0.1,0.1-0.2,0.1-0.4c0-0.2,0-0.4,0-0.6v-2.2c0-0.2,0-0.4,0-0.5c0-0.2-0.1-0.3-0.2-0.4s-0.2-0.1-0.3-0.1
						c-0.1,0-0.2,0-0.3,0.1c-0.1,0.1-0.2,0.1-0.3,0.2v3.8c0.1,0.1,0.2,0.1,0.3,0.2C242.1,202.7,242.2,202.8,242.3,202.8z"/>
				</g>
			</g>
			<g>
				<g>
					<path class="st1" d="M212.6,124v-1.6c-1.3-0.1-2.3-0.5-3-1.3s-1-2-1.1-3.5l2.5-0.5c0,0.6,0.1,1.1,0.2,1.6
						c0.1,0.5,0.3,0.8,0.6,1.1c0.3,0.3,0.6,0.4,1,0.4c0.5,0,0.8-0.1,1-0.4s0.3-0.6,0.3-1.1c0-0.7-0.2-1.2-0.5-1.7
						c-0.3-0.4-0.7-0.9-1.2-1.3l-2-1.7c-0.4-0.3-0.7-0.7-0.9-1c-0.3-0.4-0.5-0.8-0.6-1.2c-0.2-0.4-0.2-1-0.2-1.6
						c0-1.2,0.3-2.1,1-2.8c0.7-0.7,1.6-1,2.7-1.1v-1.6h0.8v1.5c0.7,0,1.2,0.2,1.6,0.4c0.4,0.3,0.8,0.6,1,1c0.3,0.4,0.4,0.8,0.6,1.3
						c0.1,0.5,0.2,1,0.2,1.5l-2.4,0.4c0-0.5-0.1-0.9-0.2-1.3c-0.1-0.4-0.2-0.7-0.4-0.9c-0.2-0.2-0.5-0.3-0.9-0.3s-0.8,0.2-1,0.4
						c-0.2,0.3-0.3,0.6-0.3,1c0,0.6,0.1,1,0.4,1.3c0.2,0.3,0.5,0.7,0.9,1l2,1.7c0.4,0.4,0.8,0.8,1.2,1.2c0.4,0.4,0.6,0.9,0.9,1.5
						c0.2,0.5,0.3,1.2,0.3,1.9c0,0.7-0.1,1.3-0.4,1.9c-0.3,0.5-0.7,1-1.2,1.3s-1.1,0.5-1.8,0.6v1.6h-1.1V124z"/>
				</g>
				<g>
					<path class="st1" d="M220.4,122.2v-12.7c-0.1,0-0.2,0.1-0.5,0.2c-0.2,0.1-0.5,0.2-0.7,0.2c-0.3,0.1-0.5,0.1-0.7,0.2
						s-0.4,0.1-0.5,0.2v-2c0.2-0.1,0.4-0.2,0.7-0.3c0.3-0.1,0.6-0.2,0.9-0.4c0.3-0.1,0.6-0.3,0.9-0.5c0.3-0.2,0.5-0.4,0.6-0.6h2.1
						v15.7L220.4,122.2L220.4,122.2z"/>
				</g>
				<g>
					<path class="st1" d="M229.9,122.4c-1,0-1.9-0.2-2.4-0.6c-0.6-0.4-1-0.9-1.2-1.6s-0.3-1.5-0.3-2.5h2.6c0,0.5,0,1,0.1,1.4
						s0.2,0.7,0.4,0.9c0.2,0.2,0.5,0.3,0.9,0.3c0.5,0,0.8-0.1,1-0.4s0.3-0.7,0.4-1.2c0.1-0.5,0.1-1.1,0.1-1.8c0-0.6,0-1.1-0.1-1.6
						s-0.2-0.8-0.4-1.1c-0.2-0.3-0.5-0.4-1-0.4c-0.4,0-0.7,0.1-0.9,0.4s-0.4,0.6-0.5,1h-2.3l0.2-8.7h7.1v2.4h-4.8l-0.2,3.8
						c0.2-0.2,0.5-0.4,0.8-0.6c0.4-0.1,0.8-0.2,1.2-0.3c0.8,0,1.5,0.1,2,0.5s0.9,0.9,1.1,1.7c0.2,0.7,0.4,1.6,0.4,2.6
						c0,0.8-0.1,1.6-0.2,2.3c-0.1,0.7-0.3,1.3-0.6,1.8s-0.7,0.9-1.2,1.2C231.4,122.3,230.7,122.4,229.9,122.4z"/>
				</g>
				<g>
					<path class="st1" d="M235.2,122.2v-1.8h1.7v1.8H235.2z"/>
				</g>
				<g>
					<path class="st1" d="M240.8,122.3c-0.6,0-1.1-0.1-1.5-0.3c-0.4-0.2-0.7-0.5-0.9-0.9s-0.3-0.9-0.3-1.5c0,0,0,0,0-0.1v-0.1h1.7
						c0,0.5,0.1,0.8,0.2,1.1c0.1,0.2,0.4,0.4,0.8,0.4c0.2,0,0.4-0.1,0.6-0.2c0.1-0.1,0.2-0.4,0.3-0.7c0.1-0.3,0.1-0.8,0.1-1.3v-1.3
						c-0.1,0.2-0.3,0.4-0.6,0.5c-0.2,0.1-0.5,0.2-0.9,0.2c-0.6,0-1-0.1-1.4-0.4c-0.3-0.3-0.6-0.7-0.7-1.1c-0.1-0.5-0.2-1-0.2-1.6
						c0-0.7,0.1-1.3,0.3-1.9c0.2-0.5,0.5-0.9,0.9-1.3c0.4-0.3,1-0.5,1.6-0.5c0.7,0,1.2,0.1,1.6,0.4s0.7,0.7,0.9,1.2
						c0.2,0.5,0.3,1.1,0.3,1.8v3.8c0,0.7-0.1,1.3-0.2,1.9c-0.2,0.6-0.4,1-0.8,1.3C242.1,122.2,241.5,122.3,240.8,122.3z
						 M240.8,116.7c0.2,0,0.4-0.1,0.6-0.2c0.1-0.1,0.3-0.3,0.3-0.4v-1.7c0-0.3,0-0.6-0.1-0.8c-0.1-0.3-0.1-0.5-0.3-0.6
						c-0.1-0.2-0.3-0.2-0.6-0.2c-0.2,0-0.4,0.1-0.6,0.2c-0.1,0.2-0.2,0.4-0.3,0.7c-0.1,0.3-0.1,0.6-0.1,1s0,0.7,0,1s0.1,0.6,0.2,0.7
						C240.3,116.6,240.5,116.7,240.8,116.7z"/>
				</g>
				<g>
					<path class="st1" d="M247.7,122.3c-0.6,0-1.1-0.1-1.5-0.3c-0.4-0.2-0.7-0.5-0.9-0.9c-0.2-0.4-0.3-0.9-0.3-1.5c0,0,0,0,0-0.1
						v-0.1h1.7c0,0.5,0.1,0.8,0.2,1.1c0.1,0.2,0.4,0.4,0.8,0.4c0.2,0,0.4-0.1,0.6-0.2c0.1-0.1,0.2-0.4,0.3-0.7
						c0.1-0.3,0.1-0.8,0.1-1.3v-1.3c-0.1,0.2-0.3,0.4-0.6,0.5c-0.2,0.1-0.5,0.2-0.9,0.2c-0.6,0-1-0.1-1.4-0.4
						c-0.3-0.3-0.6-0.7-0.7-1.1c-0.1-0.5-0.2-1-0.2-1.6c0-0.7,0.1-1.3,0.3-1.9c0.2-0.5,0.5-0.9,0.9-1.3c0.4-0.3,1-0.5,1.6-0.5
						c0.7,0,1.2,0.1,1.6,0.4s0.7,0.7,0.9,1.2c0.2,0.5,0.3,1.1,0.3,1.8v3.8c0,0.7-0.1,1.3-0.2,1.9c-0.2,0.6-0.4,1-0.8,1.3
						C249,122.2,248.4,122.3,247.7,122.3z M247.7,116.7c0.2,0,0.4-0.1,0.6-0.2c0.1-0.1,0.3-0.3,0.3-0.4v-1.7c0-0.3,0-0.6-0.1-0.8
						c-0.1-0.3-0.1-0.5-0.3-0.6c-0.1-0.2-0.3-0.2-0.6-0.2c-0.2,0-0.4,0.1-0.6,0.2c-0.1,0.2-0.2,0.4-0.3,0.7c-0.1,0.3-0.1,0.6-0.1,1
						s0,0.7,0,1s0.1,0.6,0.2,0.7C247.1,116.6,247.4,116.7,247.7,116.7z"/>
				</g>
			</g>
			<g>
				<g>
					<path class="st1" d="M253.3,135.2h-47.4c-0.2,0-0.4-0.2-0.4-0.4s0.2-0.4,0.4-0.4h47.4c0.2,0,0.4,0.2,0.4,0.4
						S253.6,135.2,253.3,135.2z"/>
				</g>
				<g>
					<path class="st1" d="M253.3,144.4h-47.4c-0.2,0-0.4-0.2-0.4-0.4s0.2-0.4,0.4-0.4h47.4c0.2,0,0.4,0.2,0.4,0.4
						S253.6,144.4,253.3,144.4z"/>
				</g>
				<g>
					<path class="st1" d="M253.3,153.5h-47.4c-0.2,0-0.4-0.2-0.4-0.4s0.2-0.4,0.4-0.4h47.4c0.2,0,0.4,0.2,0.4,0.4
						S253.6,153.5,253.3,153.5z"/>
				</g>
				<g>
					<path class="st1" d="M253.3,162.7h-47.4c-0.2,0-0.4-0.2-0.4-0.4s0.2-0.4,0.4-0.4h47.4c0.2,0,0.4,0.2,0.4,0.4
						S253.6,162.7,253.3,162.7z"/>
				</g>
			</g>
			<g>
				<g>
					<polygon class="st4" points="218.7,85 219.7,88.2 223.1,88.2 220.4,90.2 221.4,93.4 218.7,91.4 215.9,93.4 217,90.2 
						214.3,88.2 217.6,88.2 					"/>
				</g>
				<g>
					<polygon class="st4" points="229.6,85 230.6,88.2 234,88.2 231.3,90.2 232.3,93.4 229.6,91.4 226.9,93.4 227.9,90.2 
						225.2,88.2 228.6,88.2 					"/>
				</g>
				<g>
					<polygon class="st4" points="240.5,85 241.6,88.2 244.9,88.2 242.2,90.2 243.2,93.4 240.5,91.4 237.8,93.4 238.8,90.2 
						236.1,88.2 239.5,88.2 					"/>
				</g>
			</g>
		</g>
		<g>
			<g>
				<path class="st3" d="M91,42.1V28h4.1c0.8,0,1.5,0.2,2.1,0.5c0.5,0.3,0.9,0.8,1.2,1.4c0.2,0.6,0.4,1.3,0.4,2.2s-0.2,1.7-0.5,2.2
					c-0.3,0.6-0.7,1-1.3,1.2c-0.6,0.3-1.2,0.4-2,0.4h-1.4v6.2L91,42.1L91,42.1z M93.5,34.1h1c0.5,0,0.8-0.1,1.1-0.2
					c0.3-0.1,0.4-0.3,0.5-0.6c0.1-0.3,0.1-0.7,0.1-1.2s0-0.9-0.1-1.2c-0.1-0.3-0.2-0.6-0.5-0.7C95.4,30,95,30,94.4,30h-1v4.1H93.5z"
					/>
			</g>
			<g>
				<path class="st3" d="M100,42.1V28h3.4c0.9,0,1.7,0.1,2.4,0.3c0.7,0.2,1.2,0.6,1.5,1.2c0.3,0.5,0.5,1.3,0.5,2.2
					c0,0.6-0.1,1.1-0.2,1.5c-0.1,0.5-0.3,0.8-0.5,1.2c-0.2,0.3-0.6,0.6-1,0.7l2,6.9h-2.6l-1.7-6.4h-1.2V42H100V42.1z M102.6,34.1
					h0.8c0.5,0,0.9-0.1,1.2-0.2c0.3-0.1,0.5-0.4,0.6-0.7c0.1-0.3,0.2-0.7,0.2-1.2c0-0.7-0.1-1.2-0.4-1.6c-0.3-0.4-0.8-0.5-1.5-0.5
					h-0.9C102.6,29.9,102.6,34.1,102.6,34.1z"/>
			</g>
			<g>
				<path class="st3" d="M109.8,42.1V28h2.5v14.1H109.8z"/>
			</g>
			<g>
				<path class="st3" d="M118.3,42.3c-1,0-1.8-0.2-2.4-0.6c-0.6-0.4-1-1-1.2-1.7s-0.3-1.5-0.3-2.4v-5c0-1,0.1-1.8,0.3-2.5
					s0.6-1.2,1.2-1.6c0.6-0.4,1.4-0.6,2.4-0.6s1.7,0.2,2.3,0.5c0.5,0.3,0.9,0.8,1.2,1.4c0.2,0.6,0.3,1.3,0.3,2.1v1.2h-2.5v-1.2
					c0-0.4,0-0.8-0.1-1.1c0-0.3-0.2-0.6-0.3-0.8c-0.2-0.2-0.5-0.3-0.9-0.3s-0.8,0.1-1,0.3s-0.3,0.5-0.4,0.8
					c-0.1,0.3-0.1,0.7-0.1,1.2v6.1c0,0.5,0,0.9,0.1,1.3c0.1,0.3,0.2,0.6,0.4,0.7c0.2,0.2,0.5,0.3,0.9,0.3s0.7-0.1,0.9-0.3
					s0.3-0.5,0.3-0.8s0.1-0.7,0.1-1.1v-1.3h2.5V38c0,0.8-0.1,1.6-0.3,2.2c-0.2,0.6-0.6,1.1-1.2,1.5
					C120.1,42.1,119.3,42.3,118.3,42.3z"/>
			</g>
			<g>
				<path class="st3" d="M124,42.1V28h2.5v14.1H124z"/>
			</g>
			<g>
				<path class="st3" d="M128.7,42.1V28h1.8l3.4,8v-8h2.1v14.1h-1.7l-3.4-8.4v8.4H128.7z"/>
			</g>
			<g>
				<path class="st3" d="M141.6,42.3c-0.9,0-1.7-0.2-2.2-0.6c-0.5-0.4-0.9-1-1.2-1.7c-0.2-0.7-0.4-1.6-0.4-2.6v-4.7
					c0-1,0.1-1.9,0.3-2.6c0.2-0.7,0.6-1.3,1.2-1.7c0.6-0.4,1.4-0.6,2.4-0.6s1.7,0.2,2.3,0.5s1,0.8,1.2,1.4c0.2,0.6,0.4,1.3,0.4,2.2
					v0.7h-2.3v-0.8c0-0.5,0-0.8-0.1-1.2c-0.1-0.3-0.2-0.6-0.4-0.7c-0.2-0.2-0.5-0.3-0.9-0.3c-0.5,0-0.8,0.1-1,0.3s-0.3,0.5-0.4,0.9
					c-0.1,0.4-0.1,0.8-0.1,1.2v5.9c0,0.5,0,0.9,0.1,1.3c0.1,0.4,0.2,0.6,0.5,0.8c0.2,0.2,0.5,0.3,0.9,0.3s0.7-0.1,1-0.3
					c0.2-0.2,0.4-0.5,0.5-0.9s0.1-0.8,0.1-1.3v-1.3H142v-1.6h3.8V42h-1.6l-0.2-1.4c-0.2,0.5-0.5,0.8-0.8,1.1
					C142.8,42.2,142.3,42.3,141.6,42.3z"/>
			</g>
			<g>
				<path class="st3" d="M152,42.1V28h4.1c0.8,0,1.5,0.2,2.1,0.5c0.5,0.3,0.9,0.8,1.2,1.4c0.2,0.6,0.4,1.3,0.4,2.2s-0.2,1.7-0.5,2.2
					c-0.3,0.6-0.7,1-1.3,1.2c-0.6,0.3-1.2,0.4-2,0.4h-1.4v6.2L152,42.1L152,42.1z M154.6,34.1h1c0.5,0,0.8-0.1,1.1-0.2
					c0.3-0.1,0.4-0.3,0.5-0.6s0.1-0.7,0.1-1.2s0-0.9-0.1-1.2s-0.2-0.6-0.5-0.7c-0.2-0.2-0.6-0.2-1.2-0.2h-1L154.6,34.1L154.6,34.1z"
					/>
			</g>
			<g>
				<path class="st3" d="M161.1,42.1V28h2.6v12.3h3.4v1.8H161.1z"/>
			</g>
			<g>
				<path class="st3" d="M167.7,42.1l2.8-14.1h2.7l2.8,14.1h-2.4l-0.6-3.2h-2.4l-0.6,3.2H167.7z M170.9,37.2h1.9l-1-5.9L170.9,37.2z
					"/>
			</g>
			<g>
				<path class="st3" d="M177.4,42.1V28h1.8l3.4,8v-8h2.1v14.1H183l-3.4-8.4v8.4H177.4z"/>
			</g>
			<g>
				<path class="st3" d="M190.4,42.3c-0.8,0-1.6-0.2-2.1-0.5c-0.6-0.3-1-0.8-1.3-1.4c-0.3-0.6-0.5-1.4-0.5-2.3l2.2-0.4
					c0,0.5,0.1,1,0.2,1.4c0.1,0.4,0.3,0.7,0.5,1c0.2,0.2,0.5,0.3,0.9,0.3s0.7-0.1,0.9-0.4c0.2-0.2,0.3-0.6,0.3-0.9
					c0-0.6-0.1-1.1-0.4-1.5c-0.3-0.4-0.6-0.8-1.1-1.2l-1.8-1.6c-0.5-0.4-0.9-0.9-1.2-1.4s-0.4-1.2-0.4-2c0-1.1,0.3-2,1-2.6
					c0.6-0.6,1.5-0.9,2.7-0.9c0.7,0,1.2,0.1,1.6,0.3c0.4,0.2,0.8,0.5,1.1,0.8c0.3,0.4,0.5,0.8,0.6,1.2c0.1,0.5,0.2,0.9,0.2,1.4
					l-2.2,0.4c0-0.4-0.1-0.8-0.1-1.2c-0.1-0.3-0.2-0.6-0.4-0.8s-0.5-0.3-0.8-0.3c-0.4,0-0.7,0.1-0.9,0.4c-0.2,0.2-0.3,0.6-0.3,0.9
					c0,0.5,0.1,0.9,0.3,1.2s0.5,0.6,0.9,0.9l1.8,1.5c0.6,0.5,1.1,1.1,1.5,1.7c0.4,0.7,0.6,1.4,0.6,2.4c0,0.7-0.1,1.3-0.4,1.8
					c-0.3,0.5-0.7,0.9-1.2,1.2C191.7,42.2,191.1,42.3,190.4,42.3z"/>
			</g>
		</g>
		<g>
			<g>
				<rect x="92" y="18.4" class="st3" width="14" height="0.9"/>
			</g>
			<g>
				<rect x="122.8" y="18.4" class="st3" width="14" height="0.9"/>
			</g>
			<g>
				<rect x="153.6" y="18.4" class="st3" width="14" height="0.9"/>
			</g>
			<g>
				<rect x="184.4" y="18.4" class="st3" width="14" height="0.9"/>
			</g>
			<g>
				<rect x="215.2" y="18.4" class="st3" width="14" height="0.9"/>
			</g>
			<g>
				<g>
					<rect x="355.1" y="18.4" class="st3" width="7.4" height="0.9"/>
				</g>
				<g>
					<rect x="355.1" y="21.7" class="st3" width="7.4" height="0.9"/>
				</g>
				<g>
					<rect x="355.1" y="25" class="st3" width="7.4" height="0.9"/>
				</g>
			</g>
		</g>
	</g>
	<g>
		<rect x="0.6" y="261.7" class="st1" width="465.5" height="4.8"/>
		<path class="st1" d="M466.1,267H0.5c-0.3,0-0.5-0.2-0.5-0.5v-4.8c0-0.3,0.2-0.5,0.5-0.5H466c0.3,0,0.5,0.2,0.5,0.5v4.8
			C466.6,266.8,466.3,267,466.1,267z M1,266h464.5v-3.8H1V266z"/>
	</g>
</g>
</svg>
