<?xml version="1.0" encoding="utf-8"?>
<!-- Generator: Adobe Illustrator 24.3.0, SVG Export Plug-In . SVG Version: 6.00 Build 0)  -->
<svg version="1.1" id="Floor" xmlns="http://www.w3.org/2000/svg" xmlns:xlink="http://www.w3.org/1999/xlink" x="0px" y="0px"
	 width="750px" height="500px" viewBox="0 0 750 500" style="enable-background:new 0 0 750 500;" xml:space="preserve">
<style type="text/css">
	.st0{fill:#C0FFFD;}
	.st1{fill:#222222;}
	.st2{fill:#CECECE;}
	.st3{fill:#FFFFFF;}
	.st4{fill:#3C7CFF;}
</style>
<g>
	<g>
		<path class="st0" d="M615.3,389.6c0,0,24.8-52.8,19.4-54.3c-5.4-1.5-16.7,6.9-16.7,6.9s33.1-88.7,24.5-95.6
			c-8.6-6.9-24.6,28.3-24.6,28.3s17.1-54.3,15.1-74.9c-2-20.6-23.7-0.8-23.7-0.8s17.4-74.2,1.2-78c-16.1-3.8-15.6,84.9-15.6,84.9
			s-5.3-63.5-11.8-45.9c-6.5,17.6,7.1,76.5,7.1,76.5s-8.9-19.9-13.8-1.5c-4.9,18.4,9.8,92.5,9.8,92.5s-12.5-12.2-13.7,3.1
			c-1.2,15.3,25.1,64.6,25.1,64.6l16.1-0.4L615.3,389.6z"/>
	</g>
	<g>
		<path class="st1" d="M610.1,392.4c0.2,0,0.3-0.1,0.4-0.3c0.8-1.5,20.7-37,16.8-44.1c-0.7-1.2-1.6-1.9-2.9-2
			c-3.5-0.2-8.3,4.9-11.1,8.3c5.6-14.2,24.3-62.7,20.8-68.3c-0.6-1-1.4-1.2-2-1.1c-4.2,0.3-11.1,13.8-13.9,19.5
			c0.7-15.4,3.5-80-2.5-84.2c-0.4-0.3-0.9-0.4-1.4-0.2c-3.4,1.4-5.5,9.8-6.7,19.1c0.8-28.6,1.2-69-2.8-71.7
			c-0.4-0.2-0.8-0.3-1.2-0.1c-6.5,2.9-6.5,92.6-6.4,113.5c-2.7-8.2-9.3-26.6-13.4-26.2c-1.4,0.1-2.2,1.9-2.6,5.6
			c-1.8,15.2,9.2,49.4,14.6,65.3c-4.2-8.1-10.8-19.3-15.1-18.6c-1.8,0.3-2.9,2.5-3.4,6.9c-1.6,15.5,6.5,40.5,11.6,54.1
			c-0.7-1-1.4-1.6-2-1.4c-0.8,0.2-1.1,1.1-1.1,3.2c0,9.2,5.3,20.3,5.4,20.9c1.2,5.1,1.7,2.8,1.8,3.1c3,4.5-0.8-3.3-0.9-3.5
			c-0.1-0.1-5.3-11.5-5.3-20.4c0-2,0.3-2.2,0.3-2.2c0.7,0,3.1,4.2,5.2,9.2c0.2,0.5,0.4,0.8,0.4,0.9c0.1,0.3,0.4,0.4,0.7,0.3
			c0.3-0.1,0.4-0.4,0.3-0.7c-0.1-0.3-0.3-0.7-0.4-1c-2.7-6.5-16.9-42.3-14.8-62.2c0.4-3.7,1.3-5.8,2.6-6c4.6-0.8,14.5,18.5,17.9,26
			c0.1,0.2,0.4,0.4,0.6,0.3c0.2-0.1,0.4-0.4,0.3-0.6c-0.2-0.5-19.8-53.6-17.6-73.2c0.5-4.2,1.4-4.7,1.8-4.8c0,0,0.1,0,0.1,0
			c3.1,0,9.8,17.4,13.3,28.5c0.1,0.2,0.3,0.4,0.6,0.3c0.2,0,0.4-0.2,0.4-0.5c-0.3-45.4,1-113.6,5.8-115.8c0.1,0,0.1,0,0.2,0
			c3.8,2.6,3.2,50.2,1.8,87.4c-0.4,5.9-0.4,10.2-0.4,10.8c0,0.3,0.2,0.5,0.5,0.5c0.3,0,0.5-0.2,0.5-0.5c0.1-1.6,0.2-5.4,0.4-10.6
			c0.8-14,3-33,7.7-34.8c0.2-0.1,0.3-0.1,0.5,0.1c5,3.6,3.1,63.2,1.9,85.9c0,0.2,0.1,0.5,0.4,0.5c0.2,0.1,0.5-0.1,0.6-0.3
			c2.7-5.8,10.4-21,14.1-21.3c0.3,0,0.7,0,1.1,0.7c3,4.8-15,52.6-22.2,70.7c-0.1,0.2,0,0.5,0.2,0.6c0.2,0.1,0.5,0.1,0.6-0.1
			c2.1-3,8.5-10.7,12.3-10.7c0.1,0,0.1,0,0.2,0c0.9,0,1.5,0.5,2,1.5c3,5.4-11.1,33-16.8,43.1c-0.1,0.2-0.1,0.5,0.2,0.7
			C609.9,392.4,610,392.4,610.1,392.4z"/>
	</g>
</g>
<g>
	<g>
		<g>
			<rect x="209.7" y="100.6" class="st2" width="374" height="285.4"/>
			<path class="st2" d="M584.2,386.5h-375V100.1h375V386.5z M210.2,385.5h373V101.1h-373V385.5z"/>
		</g>
		<g>
			<rect x="205.3" y="94.7" class="st3" width="374" height="285.4"/>
			<path class="st1" d="M579.3,380.6h-374c-0.3,0-0.5-0.2-0.5-0.5V94.7c0-0.3,0.2-0.5,0.5-0.5h374c0.3,0,0.5,0.2,0.5,0.5v285.4
				C579.8,380.4,579.6,380.6,579.3,380.6z M205.8,379.6h373V95.2h-373V379.6z"/>
		</g>
		<g>
			<rect x="205.3" y="94.7" class="st4" width="374" height="54.1"/>
			<path class="st1" d="M579.3,149.3h-374c-0.3,0-0.5-0.2-0.5-0.5V94.7c0-0.3,0.2-0.5,0.5-0.5h374c0.3,0,0.5,0.2,0.5,0.5v54.1
				C579.8,149.1,579.6,149.3,579.3,149.3z M205.8,148.3h373V95.2h-373V148.3z"/>
		</g>
		<g>
			<g>
				<rect x="205.3" y="94.7" class="st2" width="374" height="14.5"/>
				<path class="st1" d="M579.3,109.7h-374c-0.3,0-0.5-0.2-0.5-0.5V94.7c0-0.3,0.2-0.5,0.5-0.5h374c0.3,0,0.5,0.2,0.5,0.5v14.5
					C579.8,109.5,579.6,109.7,579.3,109.7z M205.8,108.7h373V95.2h-373V108.7z"/>
			</g>
			<g>
				<rect x="219.6" y="98.7" class="st3" width="132" height="7"/>
				<path class="st4" d="M351.6,106.2h-132c-0.3,0-0.5-0.2-0.5-0.5v-7c0-0.3,0.2-0.5,0.5-0.5h132c0.3,0,0.5,0.2,0.5,0.5v7
					C352.1,106,351.9,106.2,351.6,106.2z M220.1,105.2h131v-6h-131V105.2z"/>
			</g>
			<g>
				<path class="st3" d="M549.1,101.7c0-1.4-1.1-2.5-2.5-2.5c-1.4,0-2.5,1.1-2.5,2.5s1.1,2.5,2.5,2.5
					C548,104.2,549.1,103.1,549.1,101.7z"/>
				<path class="st1" d="M546.6,104.7c-1.7,0-3-1.3-3-3c0-1.7,1.3-3,3-3s3,1.3,3,3C549.6,103.3,548.3,104.7,546.6,104.7z
					 M546.6,99.7c-1.1,0-2,0.9-2,2c0,1.1,0.9,2,2,2s2-0.9,2-2C548.6,100.6,547.7,99.7,546.6,99.7z"/>
			</g>
			<g>
				<path class="st3" d="M560.1,101.7c0-1.4-1.1-2.5-2.5-2.5c-1.4,0-2.5,1.1-2.5,2.5s1.1,2.5,2.5,2.5
					C559,104.2,560.1,103.1,560.1,101.7z"/>
				<path class="st1" d="M557.6,104.7c-1.7,0-3-1.3-3-3c0-1.7,1.3-3,3-3c1.7,0,3,1.3,3,3C560.6,103.3,559.3,104.7,557.6,104.7z
					 M557.6,99.7c-1.1,0-2,0.9-2,2c0,1.1,0.9,2,2,2s2-0.9,2-2C559.6,100.6,558.7,99.7,557.6,99.7z"/>
			</g>
			<g>
				<circle class="st3" cx="568.6" cy="101.7" r="2.5"/>
				<path class="st1" d="M568.6,104.7c-1.7,0-3-1.3-3-3c0-1.7,1.3-3,3-3c1.7,0,3,1.3,3,3C571.6,103.3,570.3,104.7,568.6,104.7z
					 M568.6,99.7c-1.1,0-2,0.9-2,2c0,1.1,0.9,2,2,2s2-0.9,2-2C570.6,100.6,569.7,99.7,568.6,99.7z"/>
			</g>
		</g>
	</g>
	<g>
		<g>
			<rect x="237.9" y="169.9" class="st2" width="98.1" height="181.7"/>
			<path class="st1" d="M336,352.1h-98.1c-0.3,0-0.5-0.2-0.5-0.5V169.9c0-0.3,0.2-0.5,0.5-0.5H336c0.3,0,0.5,0.2,0.5,0.5v181.7
				C336.5,351.9,336.3,352.1,336,352.1z M238.4,351.1h97.1V170.4h-97.1V351.1z"/>
		</g>
		<g>
			<rect x="237.9" y="169.9" class="st3" width="98.1" height="36"/>
			<path class="st1" d="M336,206.4h-98.1c-0.3,0-0.5-0.2-0.5-0.5v-36c0-0.3,0.2-0.5,0.5-0.5H336c0.3,0,0.5,0.2,0.5,0.5v36
				C336.5,206.2,336.3,206.4,336,206.4z M238.4,205.4h97.1v-35h-97.1V205.4z"/>
		</g>
		<g>
			<path class="st0" d="M312.6,333h-51.3c-5.2,0-9.5-4.3-9.5-9.5v-3c0-5.2,4.3-9.5,9.5-9.5h51.3c5.2,0,9.5,4.3,9.5,9.5v3
				C322.1,328.7,317.9,333,312.6,333z"/>
			<path class="st1" d="M312.6,333.5h-51.3c-5.5,0-10-4.5-10-10v-3c0-5.5,4.5-10,10-10h51.3c5.5,0,10,4.5,10,10v3
				C322.6,329,318.1,333.5,312.6,333.5z M261.3,311.5c-5,0-9,4-9,9v3c0,5,4,9,9,9h51.3c5,0,9-4,9-9v-3c0-5-4-9-9-9H261.3z"/>
		</g>
		<g>
			<g>
				<path class="st1" d="M313.4,248.2h-54c-0.3,0-0.5-0.2-0.5-0.5s0.2-0.5,0.5-0.5h54c0.3,0,0.5,0.2,0.5,0.5
					S313.7,248.2,313.4,248.2z"/>
			</g>
			<g>
				<path class="st1" d="M313.4,258.6h-54c-0.3,0-0.5-0.2-0.5-0.5s0.2-0.5,0.5-0.5h54c0.3,0,0.5,0.2,0.5,0.5
					S313.7,258.6,313.4,258.6z"/>
			</g>
			<g>
				<path class="st1" d="M313.4,269.1h-54c-0.3,0-0.5-0.2-0.5-0.5s0.2-0.5,0.5-0.5h54c0.3,0,0.5,0.2,0.5,0.5
					S313.7,269.1,313.4,269.1z"/>
			</g>
		</g>
		<g>
			<g>
				<path class="st1" d="M264.4,187.5c-0.6,0-1.1-0.1-1.5-0.3c-0.4-0.2-0.7-0.6-0.9-1c-0.2-0.4-0.3-1-0.3-1.6l1.5-0.3
					c0,0.4,0.1,0.7,0.1,1c0.1,0.3,0.2,0.5,0.3,0.7c0.2,0.2,0.4,0.2,0.6,0.2c0.3,0,0.5-0.1,0.6-0.3c0.1-0.2,0.2-0.4,0.2-0.7
					c0-0.4-0.1-0.8-0.3-1s-0.4-0.5-0.8-0.8l-1.2-1.1c-0.3-0.3-0.6-0.6-0.8-1c-0.2-0.4-0.3-0.8-0.3-1.4c0-0.8,0.2-1.4,0.7-1.8
					c0.4-0.4,1.1-0.6,1.8-0.6c0.5,0,0.8,0.1,1.1,0.2c0.3,0.1,0.5,0.3,0.7,0.6c0.2,0.2,0.3,0.5,0.4,0.8c0.1,0.3,0.1,0.6,0.2,1
					l-1.5,0.3c0-0.3-0.1-0.6-0.1-0.8c-0.1-0.2-0.1-0.4-0.3-0.6c-0.1-0.1-0.3-0.2-0.6-0.2c-0.3,0-0.5,0.1-0.6,0.3
					c-0.1,0.2-0.2,0.4-0.2,0.6c0,0.3,0.1,0.6,0.2,0.8c0.1,0.2,0.3,0.4,0.6,0.7l1.2,1.1c0.4,0.3,0.7,0.7,1,1.2c0.3,0.5,0.4,1,0.4,1.6
					c0,0.5-0.1,0.9-0.3,1.2c-0.2,0.4-0.5,0.6-0.9,0.8C265.3,187.4,264.9,187.5,264.4,187.5z"/>
			</g>
			<g>
				<path class="st1" d="M268.8,187.3v-8.4h-1.5v-1.3h4.8v1.3h-1.5v8.4H268.8z"/>
			</g>
			<g>
				<path class="st1" d="M272.3,187.3l1.9-9.7h1.9l1.9,9.7h-1.6l-0.4-2.2h-1.7l-0.4,2.2H272.3z M274.5,183.9h1.3l-0.7-4.1
					L274.5,183.9z"/>
			</g>
			<g>
				<path class="st1" d="M279,187.3v-9.7h1.2l2.4,5.5v-5.5h1.5v9.7h-1.2l-2.4-5.8v5.8H279z"/>
			</g>
			<g>
				<path class="st1" d="M285.5,187.3v-9.7h2.3c0.8,0,1.4,0.1,1.9,0.3c0.4,0.2,0.8,0.5,0.9,1c0.2,0.4,0.3,1,0.3,1.7v3.6
					c0,0.7-0.1,1.3-0.3,1.8c-0.2,0.5-0.5,0.8-0.9,1c-0.4,0.2-1,0.3-1.8,0.3H285.5z M287.3,186.1h0.5c0.4,0,0.7-0.1,0.9-0.2
					c0.2-0.1,0.3-0.4,0.3-0.6c0-0.3,0.1-0.6,0.1-1v-3.7c0-0.4,0-0.7-0.1-0.9c-0.1-0.2-0.2-0.4-0.3-0.5c-0.2-0.1-0.5-0.2-0.9-0.2
					h-0.5V186.1z"/>
			</g>
			<g>
				<path class="st1" d="M291.6,187.3l1.9-9.7h1.9l1.9,9.7h-1.6l-0.4-2.2h-1.7l-0.4,2.2H291.6z M293.9,183.9h1.3l-0.7-4.1
					L293.9,183.9z"/>
			</g>
			<g>
				<path class="st1" d="M298.4,187.3v-9.7h2.3c0.7,0,1.2,0.1,1.7,0.2c0.5,0.2,0.8,0.4,1,0.8c0.2,0.4,0.4,0.9,0.4,1.5
					c0,0.4,0,0.7-0.1,1.1c-0.1,0.3-0.2,0.6-0.4,0.8c-0.2,0.2-0.4,0.4-0.7,0.5l1.4,4.8h-1.8l-1.2-4.5h-0.8v4.5H298.4z M300.1,181.8
					h0.6c0.3,0,0.6,0,0.8-0.1c0.2-0.1,0.4-0.3,0.4-0.5c0.1-0.2,0.1-0.5,0.1-0.8c0-0.5-0.1-0.9-0.3-1.1c-0.2-0.2-0.5-0.4-1-0.4h-0.6
					V181.8z"/>
			</g>
			<g>
				<path class="st1" d="M305.1,187.3v-9.7h2.3c0.8,0,1.4,0.1,1.9,0.3c0.4,0.2,0.8,0.5,0.9,1c0.2,0.4,0.3,1,0.3,1.7v3.6
					c0,0.7-0.1,1.3-0.3,1.8c-0.2,0.5-0.5,0.8-0.9,1c-0.4,0.2-1,0.3-1.8,0.3H305.1z M306.8,186.1h0.5c0.4,0,0.7-0.1,0.9-0.2
					c0.2-0.1,0.3-0.4,0.3-0.6c0-0.3,0.1-0.6,0.1-1v-3.7c0-0.4,0-0.7-0.1-0.9c-0.1-0.2-0.2-0.4-0.3-0.5c-0.2-0.1-0.5-0.2-0.9-0.2
					h-0.5V186.1z"/>
			</g>
		</g>
		<g>
			<g>
				<path class="st1" d="M272.1,326.3c-0.6,0-1.1-0.1-1.5-0.3c-0.4-0.2-0.7-0.6-0.9-1c-0.2-0.4-0.3-1-0.3-1.6l1.5-0.3
					c0,0.4,0.1,0.7,0.1,1c0.1,0.3,0.2,0.5,0.3,0.7c0.2,0.2,0.4,0.2,0.6,0.2c0.3,0,0.5-0.1,0.6-0.3c0.1-0.2,0.2-0.4,0.2-0.7
					c0-0.4-0.1-0.8-0.3-1c-0.2-0.3-0.4-0.5-0.8-0.8l-1.2-1.1c-0.3-0.3-0.6-0.6-0.8-1c-0.2-0.4-0.3-0.8-0.3-1.4
					c0-0.8,0.2-1.4,0.7-1.8c0.4-0.4,1.1-0.6,1.8-0.6c0.5,0,0.8,0.1,1.1,0.2c0.3,0.1,0.5,0.3,0.7,0.6c0.2,0.2,0.3,0.5,0.4,0.8
					c0.1,0.3,0.1,0.7,0.2,1l-1.5,0.3c0-0.3-0.1-0.6-0.1-0.8c-0.1-0.2-0.1-0.4-0.3-0.6c-0.1-0.1-0.3-0.2-0.6-0.2
					c-0.3,0-0.5,0.1-0.6,0.3c-0.1,0.2-0.2,0.4-0.2,0.6c0,0.3,0.1,0.6,0.2,0.8c0.1,0.2,0.3,0.4,0.6,0.7l1.2,1.1
					c0.4,0.3,0.7,0.7,1,1.2c0.3,0.5,0.4,1,0.4,1.6c0,0.5-0.1,0.9-0.3,1.2c-0.2,0.4-0.5,0.6-0.9,0.8
					C273,326.2,272.6,326.3,272.1,326.3z"/>
			</g>
			<g>
				<path class="st1" d="M275.4,318.1v-1.4h1.6v1.4H275.4z M275.4,326.1v-6.9h1.6v6.9H275.4z"/>
			</g>
			<g>
				<path class="st1" d="M280.4,328.4c-0.5,0-0.9,0-1.2-0.1c-0.4-0.1-0.6-0.2-0.8-0.4c-0.2-0.2-0.3-0.5-0.3-0.8c0-0.2,0-0.4,0.1-0.6
					c0.1-0.2,0.2-0.3,0.4-0.5c0.2-0.1,0.3-0.2,0.5-0.3c-0.3-0.1-0.5-0.2-0.6-0.3c-0.1-0.2-0.2-0.4-0.2-0.6c0-0.3,0.1-0.5,0.2-0.7
					c0.1-0.2,0.3-0.4,0.6-0.6c-0.2-0.2-0.4-0.5-0.6-0.8c-0.1-0.3-0.2-0.7-0.2-1.2c0-0.5,0.1-1,0.3-1.3c0.2-0.4,0.4-0.6,0.8-0.8
					c0.3-0.2,0.7-0.3,1.2-0.3c0.4,0,0.7,0.1,0.9,0.2c0.2,0.1,0.5,0.3,0.6,0.5c0.1-0.1,0.2-0.2,0.3-0.4c0.2-0.1,0.3-0.3,0.6-0.4
					l0.2-0.1l0.4,0.9c-0.1,0-0.2,0.1-0.4,0.1c-0.1,0.1-0.3,0.1-0.4,0.2c-0.1,0.1-0.3,0.1-0.3,0.2c0.1,0.2,0.1,0.4,0.2,0.6
					c0,0.2,0.1,0.5,0.1,0.7c0,0.5-0.1,0.9-0.2,1.3c-0.2,0.4-0.4,0.6-0.7,0.8c-0.3,0.2-0.7,0.3-1.2,0.3c-0.2,0-0.3,0-0.5,0
					c-0.2,0-0.3-0.1-0.4-0.1c0,0.1-0.1,0.1-0.1,0.2c0,0.1-0.1,0.2-0.1,0.3c0,0.1,0,0.2,0.1,0.2c0.1,0.1,0.3,0.1,0.5,0.1l1.5,0.1
					c0.6,0.1,1,0.2,1.3,0.5c0.3,0.3,0.4,0.7,0.4,1.2c0,0.4-0.1,0.8-0.3,1c-0.2,0.3-0.5,0.5-0.9,0.6
					C281.5,328.4,281,328.4,280.4,328.4z M280.5,327.2c0.4,0,0.8,0,1-0.1c0.2-0.1,0.3-0.2,0.3-0.5c0-0.1,0-0.2-0.1-0.3
					c-0.1-0.1-0.2-0.1-0.3-0.2c-0.1-0.1-0.3-0.1-0.6-0.1l-1.2-0.1c-0.1,0.1-0.2,0.1-0.2,0.2c-0.1,0.1-0.1,0.2-0.2,0.2
					c0,0.1-0.1,0.2-0.1,0.3c0,0.2,0.1,0.3,0.3,0.4C279.7,327.2,280.1,327.2,280.5,327.2z M280.4,322.9c0.1,0,0.3,0,0.3-0.1
					c0.1-0.1,0.2-0.1,0.2-0.3c0-0.1,0.1-0.3,0.1-0.4c0-0.2,0-0.4,0-0.6c0-0.2,0-0.4,0-0.6c0-0.2,0-0.3-0.1-0.4
					c0-0.1-0.1-0.2-0.2-0.3c-0.1-0.1-0.2-0.1-0.4-0.1c-0.1,0-0.3,0-0.4,0.1c-0.1,0.1-0.2,0.1-0.2,0.3c0,0.1-0.1,0.3-0.1,0.4
					c0,0.2,0,0.4,0,0.6c0,0.2,0,0.4,0,0.6c0,0.2,0,0.3,0.1,0.4c0,0.1,0.1,0.2,0.2,0.3C280.2,322.9,280.3,322.9,280.4,322.9z"/>
			</g>
			<g>
				<path class="st1" d="M283.9,326.1v-6.9h1.6v0.7c0.2-0.2,0.5-0.4,0.8-0.6c0.3-0.1,0.6-0.2,0.9-0.2c0.3,0,0.5,0.1,0.7,0.2
					c0.2,0.1,0.3,0.3,0.4,0.6c0.1,0.2,0.1,0.5,0.1,0.8v5.5h-1.6v-5.2c0-0.2,0-0.4-0.1-0.5c-0.1-0.1-0.2-0.2-0.4-0.2
					c-0.1,0-0.2,0-0.4,0.1c-0.1,0.1-0.3,0.1-0.4,0.2v5.5H283.9z"/>
			</g>
			<g>
				<path class="st1" d="M293.7,326.3c-0.3,0-0.5-0.1-0.7-0.2c-0.2-0.1-0.3-0.3-0.4-0.6c-0.1-0.2-0.1-0.5-0.1-0.8v-5.5h1.6v5.2
					c0,0.2,0,0.4,0.1,0.5c0.1,0.1,0.2,0.2,0.4,0.2c0.1,0,0.2,0,0.4-0.1c0.1-0.1,0.2-0.1,0.4-0.2v-5.6h1.6v6.9h-1.6v-0.7
					c-0.2,0.2-0.5,0.4-0.8,0.6C294.3,326.2,294,326.3,293.7,326.3z"/>
			</g>
			<g>
				<path class="st1" d="M298.2,328.4v-9.2h1.6v0.5c0.2-0.2,0.4-0.3,0.7-0.5c0.2-0.1,0.5-0.2,0.8-0.2c0.3,0,0.6,0.1,0.8,0.2
					c0.2,0.1,0.4,0.3,0.5,0.6c0.1,0.2,0.2,0.5,0.2,0.8c0,0.3,0.1,0.5,0.1,0.8v2.4c0,0.5-0.1,0.9-0.2,1.2c-0.1,0.4-0.3,0.7-0.5,0.9
					c-0.2,0.2-0.5,0.3-0.9,0.3c-0.2,0-0.5-0.1-0.7-0.2c-0.2-0.1-0.4-0.3-0.6-0.5v2.8H298.2z M300.6,325.1c0.2,0,0.3-0.1,0.4-0.2
					c0.1-0.1,0.1-0.3,0.2-0.5c0-0.2,0-0.4,0-0.6v-2.5c0-0.2,0-0.4,0-0.6c0-0.2-0.1-0.3-0.2-0.4c-0.1-0.1-0.2-0.2-0.4-0.2
					c-0.1,0-0.3,0-0.4,0.1c-0.1,0.1-0.2,0.1-0.3,0.2v4.4c0.1,0.1,0.2,0.1,0.3,0.2C300.3,325.1,300.4,325.1,300.6,325.1z"/>
			</g>
		</g>
		<g>
			<g>
				<path class="st1" d="M271.1,235.5v-1.9c-1.5-0.1-2.6-0.6-3.4-1.5s-1.2-2.2-1.2-3.9l2.8-0.6c0,0.7,0.1,1.3,0.2,1.8
					c0.1,0.5,0.3,0.9,0.6,1.2c0.3,0.3,0.7,0.4,1.1,0.4c0.5,0,0.9-0.2,1.1-0.5c0.2-0.3,0.3-0.7,0.3-1.2c0-0.8-0.2-1.4-0.5-1.9
					c-0.4-0.5-0.8-1-1.4-1.5l-2.3-2c-0.4-0.4-0.8-0.8-1.1-1.2c-0.3-0.4-0.6-0.9-0.7-1.4c-0.2-0.5-0.3-1.1-0.3-1.8
					c0-1.3,0.4-2.4,1.1-3.1c0.8-0.8,1.8-1.2,3.1-1.2v-1.8h0.9v1.8c0.8,0,1.4,0.2,1.9,0.5c0.5,0.3,0.9,0.7,1.2,1.1
					c0.3,0.4,0.5,1,0.6,1.5c0.1,0.6,0.2,1.1,0.3,1.7l-2.8,0.5c0-0.6-0.1-1.1-0.2-1.5c-0.1-0.4-0.3-0.8-0.5-1.1
					c-0.2-0.3-0.6-0.4-1.1-0.3c-0.5,0-0.9,0.2-1.1,0.5c-0.3,0.3-0.4,0.7-0.4,1.2c0,0.6,0.1,1.1,0.4,1.5c0.3,0.4,0.6,0.8,1,1.2l2.2,2
					c0.5,0.4,0.9,0.9,1.3,1.4c0.4,0.5,0.7,1.1,1,1.7c0.2,0.6,0.4,1.3,0.4,2.1c0,0.8-0.2,1.5-0.5,2.1s-0.8,1.1-1.3,1.5
					c-0.6,0.4-1.3,0.6-2.1,0.7v1.9H271.1z"/>
			</g>
			<g>
				<path class="st1" d="M282.1,233.7c-1.2,0-2.1-0.2-2.8-0.7c-0.7-0.4-1.1-1.1-1.4-1.9c-0.2-0.8-0.4-1.8-0.4-2.8h3
					c0,0.6,0,1.1,0.1,1.6c0.1,0.5,0.2,0.8,0.5,1.1c0.2,0.3,0.6,0.4,1.1,0.4c0.5,0,0.9-0.2,1.1-0.5c0.2-0.3,0.3-0.8,0.4-1.4
					c0.1-0.6,0.1-1.3,0.1-2.1c0-0.7,0-1.3-0.1-1.8c-0.1-0.5-0.2-0.9-0.5-1.2c-0.2-0.3-0.6-0.4-1.1-0.4c-0.4,0-0.8,0.1-1.1,0.4
					c-0.3,0.3-0.5,0.7-0.6,1.1h-2.6l0.2-9.9h8v2.7h-5.5l-0.2,4.3c0.2-0.3,0.5-0.5,1-0.6c0.4-0.2,0.9-0.3,1.4-0.3
					c0.9,0,1.7,0.2,2.3,0.6c0.6,0.4,1,1.1,1.3,1.9c0.3,0.8,0.4,1.8,0.4,3c0,0.9-0.1,1.8-0.2,2.6c-0.1,0.8-0.4,1.5-0.7,2.1
					c-0.3,0.6-0.8,1-1.4,1.4C283.9,233.5,283.1,233.7,282.1,233.7z"/>
			</g>
			<g>
				<path class="st1" d="M288.2,233.4v-2.1h2v2.1H288.2z"/>
			</g>
			<g>
				<path class="st1" d="M294.5,233.6c-0.7,0-1.3-0.1-1.7-0.4c-0.4-0.2-0.8-0.6-1-1.1c-0.2-0.5-0.3-1-0.3-1.7c0,0,0,0,0-0.1
					s0-0.1,0-0.1h2c0,0.5,0.1,0.9,0.2,1.2c0.1,0.3,0.4,0.4,0.9,0.4c0.3,0,0.5-0.1,0.6-0.2c0.1-0.2,0.3-0.4,0.3-0.8
					c0.1-0.4,0.1-0.9,0.1-1.5V228c-0.1,0.2-0.4,0.4-0.6,0.5c-0.3,0.1-0.6,0.2-1,0.2c-0.7,0-1.2-0.1-1.6-0.5
					c-0.4-0.3-0.7-0.7-0.8-1.3c-0.2-0.5-0.2-1.1-0.2-1.8c0-0.8,0.1-1.5,0.3-2.1c0.2-0.6,0.5-1.1,1-1.4c0.5-0.3,1.1-0.5,1.8-0.5
					c0.8,0,1.4,0.2,1.8,0.5c0.5,0.3,0.8,0.8,1,1.4c0.2,0.6,0.3,1.3,0.3,2v4.3c0,0.8-0.1,1.5-0.3,2.1c-0.2,0.6-0.5,1.1-1,1.5
					C296,233.4,295.4,233.6,294.5,233.6z M294.5,227.2c0.3,0,0.5-0.1,0.7-0.2c0.2-0.1,0.3-0.3,0.4-0.4v-1.9c0-0.4,0-0.7-0.1-1
					c-0.1-0.3-0.2-0.5-0.3-0.7c-0.2-0.2-0.4-0.3-0.7-0.3c-0.3,0-0.5,0.1-0.7,0.3c-0.2,0.2-0.3,0.4-0.3,0.8c-0.1,0.3-0.1,0.7-0.1,1.1
					c0,0.4,0,0.8,0.1,1.2c0,0.4,0.1,0.6,0.3,0.8C293.9,227,294.2,227.2,294.5,227.2z"/>
			</g>
			<g>
				<path class="st1" d="M302.3,233.6c-0.7,0-1.3-0.1-1.7-0.4c-0.4-0.2-0.8-0.6-1-1.1c-0.2-0.5-0.3-1-0.3-1.7c0,0,0,0,0-0.1
					s0-0.1,0-0.1h2c0,0.5,0.1,0.9,0.2,1.2c0.1,0.3,0.4,0.4,0.9,0.4c0.3,0,0.5-0.1,0.6-0.2c0.1-0.2,0.3-0.4,0.3-0.8
					c0.1-0.4,0.1-0.9,0.1-1.5V228c-0.1,0.2-0.4,0.4-0.6,0.5c-0.3,0.1-0.6,0.2-1,0.2c-0.7,0-1.2-0.1-1.6-0.5
					c-0.4-0.3-0.7-0.7-0.8-1.3c-0.2-0.5-0.2-1.1-0.2-1.8c0-0.8,0.1-1.5,0.3-2.1c0.2-0.6,0.5-1.1,1-1.4c0.5-0.3,1.1-0.5,1.8-0.5
					c0.8,0,1.4,0.2,1.8,0.5c0.5,0.3,0.8,0.8,1,1.4c0.2,0.6,0.3,1.3,0.3,2v4.3c0,0.8-0.1,1.5-0.3,2.1c-0.2,0.6-0.5,1.1-1,1.5
					C303.8,233.4,303.2,233.6,302.3,233.6z M302.4,227.2c0.3,0,0.5-0.1,0.7-0.2c0.2-0.1,0.3-0.3,0.4-0.4v-1.9c0-0.4,0-0.7-0.1-1
					c-0.1-0.3-0.2-0.5-0.3-0.7c-0.2-0.2-0.4-0.3-0.7-0.3c-0.3,0-0.5,0.1-0.7,0.3c-0.2,0.2-0.3,0.4-0.3,0.8c-0.1,0.3-0.1,0.7-0.1,1.1
					c0,0.4,0,0.8,0.1,1.2c0,0.4,0.1,0.6,0.3,0.8C301.8,227,302,227.2,302.4,227.2z"/>
			</g>
		</g>
		<g>
			<polygon class="st4" points="287,191.1 288.2,194.8 292,194.8 288.9,197 290.1,200.7 287,198.4 283.9,200.7 285.1,197 282,194.8 
				285.8,194.8 			"/>
		</g>
	</g>
	<g>
		<g>
			<rect x="451.3" y="169.9" class="st2" width="98.1" height="181.7"/>
			<path class="st1" d="M549.4,352.1h-98.1c-0.3,0-0.5-0.2-0.5-0.5V169.9c0-0.3,0.2-0.5,0.5-0.5h98.1c0.3,0,0.5,0.2,0.5,0.5v181.7
				C549.9,351.9,549.7,352.1,549.4,352.1z M451.8,351.1h97.1V170.4h-97.1V351.1z"/>
		</g>
		<g>
			<rect x="451.3" y="169.9" class="st3" width="98.1" height="36"/>
			<path class="st1" d="M549.4,206.4h-98.1c-0.3,0-0.5-0.2-0.5-0.5v-36c0-0.3,0.2-0.5,0.5-0.5h98.1c0.3,0,0.5,0.2,0.5,0.5v36
				C549.9,206.2,549.7,206.4,549.4,206.4z M451.8,205.4h97.1v-35h-97.1V205.4z"/>
		</g>
		<g>
			<path class="st0" d="M526,333h-51.3c-5.2,0-9.5-4.3-9.5-9.5v-3c0-5.2,4.3-9.5,9.5-9.5H526c5.2,0,9.5,4.3,9.5,9.5v3
				C535.5,328.7,531.2,333,526,333z"/>
			<path class="st1" d="M526,333.5h-51.3c-5.5,0-10-4.5-10-10v-3c0-5.5,4.5-10,10-10H526c5.5,0,10,4.5,10,10v3
				C536,329,531.5,333.5,526,333.5z M474.7,311.5c-5,0-9,4-9,9v3c0,5,4,9,9,9H526c5,0,9-4,9-9v-3c0-5-4-9-9-9H474.7z"/>
		</g>
		<g>
			<g>
				<path class="st1" d="M478.1,187.3v-9.7h2.4c0.4,0,0.8,0,1.2,0.1c0.3,0.1,0.6,0.2,0.9,0.4c0.3,0.2,0.4,0.4,0.6,0.8
					c0.1,0.3,0.2,0.7,0.2,1.2c0,0.4-0.1,0.7-0.2,1c-0.1,0.3-0.3,0.5-0.5,0.7c-0.2,0.2-0.5,0.3-0.8,0.3c0.4,0.1,0.7,0.2,1,0.4
					c0.3,0.2,0.4,0.5,0.6,0.8c0.1,0.3,0.2,0.7,0.2,1.2c0,0.5-0.1,0.9-0.2,1.2c-0.1,0.4-0.3,0.7-0.5,0.9c-0.2,0.2-0.5,0.4-0.9,0.5
					c-0.3,0.1-0.7,0.2-1.2,0.2H478.1z M479.9,181.6h0.6c0.4,0,0.6-0.1,0.8-0.2c0.2-0.1,0.3-0.3,0.4-0.5c0.1-0.2,0.1-0.5,0.1-0.8
					c0-0.3-0.1-0.6-0.2-0.8c-0.1-0.2-0.3-0.3-0.5-0.4c-0.2-0.1-0.5-0.1-0.9-0.1h-0.3V181.6z M479.9,186.1h0.7c0.5,0,0.9-0.1,1.1-0.4
					c0.2-0.3,0.3-0.7,0.3-1.2c0-0.4,0-0.7-0.1-1c-0.1-0.2-0.2-0.4-0.5-0.5c-0.2-0.1-0.5-0.2-0.8-0.2h-0.6V186.1z"/>
			</g>
			<g>
				<path class="st1" d="M487.4,187.5c-0.7,0-1.3-0.1-1.7-0.4c-0.4-0.3-0.7-0.6-0.8-1.1c-0.2-0.5-0.2-1.1-0.2-1.8v-6.6h1.7v6.8
					c0,0.3,0,0.6,0.1,0.9c0,0.3,0.1,0.5,0.3,0.6c0.1,0.2,0.4,0.2,0.7,0.2c0.3,0,0.5-0.1,0.7-0.2c0.1-0.2,0.2-0.4,0.3-0.6
					c0-0.3,0.1-0.6,0.1-0.9v-6.8h1.7v6.6c0,0.7-0.1,1.3-0.2,1.8c-0.2,0.5-0.4,0.9-0.8,1.1C488.7,187.3,488.2,187.5,487.4,187.5z"/>
			</g>
			<g>
				<path class="st1" d="M494,187.5c-0.6,0-1.1-0.1-1.5-0.3c-0.4-0.2-0.7-0.6-0.9-1c-0.2-0.4-0.3-1-0.3-1.6l1.5-0.3
					c0,0.4,0.1,0.7,0.1,1c0.1,0.3,0.2,0.5,0.3,0.7c0.2,0.2,0.4,0.2,0.6,0.2c0.3,0,0.5-0.1,0.6-0.3c0.1-0.2,0.2-0.4,0.2-0.7
					c0-0.4-0.1-0.8-0.3-1c-0.2-0.3-0.4-0.5-0.8-0.8l-1.2-1.1c-0.3-0.3-0.6-0.6-0.8-1c-0.2-0.4-0.3-0.8-0.3-1.4
					c0-0.8,0.2-1.4,0.7-1.8c0.4-0.4,1.1-0.6,1.8-0.6c0.5,0,0.8,0.1,1.1,0.2c0.3,0.1,0.5,0.3,0.7,0.6c0.2,0.2,0.3,0.5,0.4,0.8
					c0.1,0.3,0.1,0.6,0.2,1l-1.5,0.3c0-0.3,0-0.6-0.1-0.8c-0.1-0.2-0.1-0.4-0.3-0.6c-0.1-0.1-0.3-0.2-0.6-0.2
					c-0.3,0-0.5,0.1-0.6,0.3c-0.1,0.2-0.2,0.4-0.2,0.6c0,0.3,0.1,0.6,0.2,0.8c0.1,0.2,0.3,0.4,0.6,0.7l1.2,1.1
					c0.4,0.3,0.7,0.7,1,1.2c0.3,0.5,0.4,1,0.4,1.6c0,0.5-0.1,0.9-0.3,1.2c-0.2,0.4-0.5,0.6-0.9,0.8
					C494.9,187.4,494.5,187.5,494,187.5z"/>
			</g>
			<g>
				<path class="st1" d="M497.4,187.3v-9.7h1.8v9.7H497.4z"/>
			</g>
			<g>
				<path class="st1" d="M500.7,187.3v-9.7h1.2l2.4,5.5v-5.5h1.5v9.7h-1.2l-2.4-5.8v5.8H500.7z"/>
			</g>
			<g>
				<path class="st1" d="M507.2,187.3v-9.7h4.1v1.2H509v2.8h1.8v1.2H509v3.2h2.3v1.2H507.2z"/>
			</g>
			<g>
				<path class="st1" d="M514.8,187.5c-0.6,0-1.1-0.1-1.5-0.3c-0.4-0.2-0.7-0.6-0.9-1c-0.2-0.4-0.3-1-0.3-1.6l1.5-0.3
					c0,0.4,0.1,0.7,0.1,1c0.1,0.3,0.2,0.5,0.3,0.7c0.2,0.2,0.4,0.2,0.6,0.2c0.3,0,0.5-0.1,0.6-0.3c0.1-0.2,0.2-0.4,0.2-0.7
					c0-0.4-0.1-0.8-0.3-1c-0.2-0.3-0.4-0.5-0.8-0.8l-1.2-1.1c-0.3-0.3-0.6-0.6-0.8-1c-0.2-0.4-0.3-0.8-0.3-1.4
					c0-0.8,0.2-1.4,0.7-1.8c0.4-0.4,1.1-0.6,1.8-0.6c0.5,0,0.8,0.1,1.1,0.2c0.3,0.1,0.5,0.3,0.7,0.6c0.2,0.2,0.3,0.5,0.4,0.8
					c0.1,0.3,0.1,0.6,0.2,1l-1.5,0.3c0-0.3-0.1-0.6-0.1-0.8c-0.1-0.2-0.1-0.4-0.3-0.6c-0.1-0.1-0.3-0.2-0.6-0.2
					c-0.3,0-0.5,0.1-0.6,0.3c-0.1,0.2-0.2,0.4-0.2,0.6c0,0.3,0.1,0.6,0.2,0.8c0.1,0.2,0.3,0.4,0.6,0.7l1.2,1.1
					c0.4,0.3,0.7,0.7,1,1.2c0.3,0.5,0.4,1,0.4,1.6c0,0.5-0.1,0.9-0.3,1.2c-0.2,0.4-0.5,0.6-0.9,0.8
					C515.7,187.4,515.3,187.5,514.8,187.5z"/>
			</g>
			<g>
				<path class="st1" d="M520.7,187.5c-0.6,0-1.1-0.1-1.5-0.3c-0.4-0.2-0.7-0.6-0.9-1c-0.2-0.4-0.3-1-0.3-1.6l1.5-0.3
					c0,0.4,0.1,0.7,0.1,1c0.1,0.3,0.2,0.5,0.3,0.7c0.2,0.2,0.4,0.2,0.6,0.2c0.3,0,0.5-0.1,0.6-0.3c0.1-0.2,0.2-0.4,0.2-0.7
					c0-0.4-0.1-0.8-0.3-1c-0.2-0.3-0.4-0.5-0.8-0.8l-1.2-1.1c-0.3-0.3-0.6-0.6-0.8-1c-0.2-0.4-0.3-0.8-0.3-1.4
					c0-0.8,0.2-1.4,0.7-1.8c0.4-0.4,1.1-0.6,1.8-0.6c0.5,0,0.8,0.1,1.1,0.2c0.3,0.1,0.5,0.3,0.7,0.6c0.2,0.2,0.3,0.5,0.4,0.8
					c0.1,0.3,0.1,0.6,0.2,1l-1.5,0.3c0-0.3,0-0.6-0.1-0.8c-0.1-0.2-0.1-0.4-0.3-0.6c-0.1-0.1-0.3-0.2-0.6-0.2
					c-0.3,0-0.5,0.1-0.6,0.3c-0.1,0.2-0.2,0.4-0.2,0.6c0,0.3,0.1,0.6,0.2,0.8c0.1,0.2,0.3,0.4,0.6,0.7l1.2,1.1
					c0.4,0.3,0.7,0.7,1,1.2c0.3,0.5,0.4,1,0.4,1.6c0,0.5-0.1,0.9-0.3,1.2c-0.2,0.4-0.5,0.6-0.9,0.8
					C521.6,187.4,521.1,187.5,520.7,187.5z"/>
			</g>
		</g>
		<g>
			<g>
				<path class="st1" d="M486.3,326.3c-0.6,0-1.1-0.1-1.5-0.3c-0.4-0.2-0.7-0.6-0.9-1c-0.2-0.4-0.3-1-0.3-1.6l1.5-0.3
					c0,0.4,0.1,0.7,0.1,1c0.1,0.3,0.2,0.5,0.3,0.7c0.2,0.2,0.4,0.2,0.6,0.2c0.3,0,0.5-0.1,0.6-0.3c0.1-0.2,0.2-0.4,0.2-0.7
					c0-0.4-0.1-0.8-0.3-1c-0.2-0.3-0.4-0.5-0.8-0.8l-1.2-1.1c-0.3-0.3-0.6-0.6-0.8-1c-0.2-0.4-0.3-0.8-0.3-1.4
					c0-0.8,0.2-1.4,0.7-1.8c0.4-0.4,1.1-0.6,1.8-0.6c0.5,0,0.8,0.1,1.1,0.2c0.3,0.1,0.5,0.3,0.7,0.6c0.2,0.2,0.3,0.5,0.4,0.8
					c0.1,0.3,0.1,0.7,0.2,1l-1.5,0.3c0-0.3,0-0.6-0.1-0.8c-0.1-0.2-0.1-0.4-0.3-0.6c-0.1-0.1-0.3-0.2-0.6-0.2
					c-0.3,0-0.5,0.1-0.6,0.3c-0.1,0.2-0.2,0.4-0.2,0.6c0,0.3,0.1,0.6,0.2,0.8c0.1,0.2,0.3,0.4,0.6,0.7l1.2,1.1
					c0.4,0.3,0.7,0.7,1,1.2c0.3,0.5,0.4,1,0.4,1.6c0,0.5-0.1,0.9-0.3,1.2c-0.2,0.4-0.5,0.6-0.9,0.8
					C487.2,326.2,486.8,326.3,486.3,326.3z"/>
			</g>
			<g>
				<path class="st1" d="M489.6,318.1v-1.4h1.6v1.4H489.6z M489.6,326.1v-6.9h1.6v6.9H489.6z"/>
			</g>
			<g>
				<path class="st1" d="M494.6,328.4c-0.5,0-0.9,0-1.2-0.1c-0.4-0.1-0.6-0.2-0.8-0.4c-0.2-0.2-0.3-0.5-0.3-0.8c0-0.2,0-0.4,0.1-0.6
					c0.1-0.2,0.2-0.3,0.4-0.5c0.2-0.1,0.3-0.2,0.5-0.3c-0.3-0.1-0.5-0.2-0.6-0.3c-0.1-0.2-0.2-0.4-0.2-0.6c0-0.3,0.1-0.5,0.2-0.7
					c0.1-0.2,0.3-0.4,0.6-0.6c-0.2-0.2-0.4-0.5-0.6-0.8c-0.1-0.3-0.2-0.7-0.2-1.2c0-0.5,0.1-1,0.3-1.3c0.2-0.4,0.4-0.6,0.8-0.8
					c0.3-0.2,0.7-0.3,1.2-0.3c0.4,0,0.7,0.1,0.9,0.2c0.2,0.1,0.5,0.3,0.6,0.5c0.1-0.1,0.2-0.2,0.3-0.4c0.2-0.1,0.3-0.3,0.6-0.4
					l0.2-0.1l0.4,0.9c-0.1,0-0.2,0.1-0.4,0.1c-0.1,0.1-0.3,0.1-0.4,0.2c-0.1,0.1-0.3,0.1-0.3,0.2c0.1,0.2,0.1,0.4,0.2,0.6
					c0,0.2,0.1,0.5,0.1,0.7c0,0.5-0.1,0.9-0.2,1.3c-0.2,0.4-0.4,0.6-0.7,0.8c-0.3,0.2-0.7,0.3-1.2,0.3c-0.2,0-0.3,0-0.5,0
					c-0.2,0-0.3-0.1-0.4-0.1c0,0.1-0.1,0.1-0.1,0.2c0,0.1-0.1,0.2-0.1,0.3c0,0.1,0,0.2,0.1,0.2c0.1,0.1,0.3,0.1,0.5,0.1l1.5,0.1
					c0.6,0.1,1,0.2,1.3,0.5c0.3,0.3,0.4,0.7,0.4,1.2c0,0.4-0.1,0.8-0.3,1c-0.2,0.3-0.5,0.5-0.9,0.6
					C495.7,328.4,495.2,328.4,494.6,328.4z M494.8,327.2c0.4,0,0.8,0,1-0.1c0.2-0.1,0.3-0.2,0.3-0.5c0-0.1,0-0.2-0.1-0.3
					c-0.1-0.1-0.2-0.1-0.3-0.2c-0.1-0.1-0.3-0.1-0.6-0.1l-1.2-0.1c-0.1,0.1-0.2,0.1-0.2,0.2c-0.1,0.1-0.1,0.2-0.2,0.2
					s-0.1,0.2-0.1,0.3c0,0.2,0.1,0.3,0.3,0.4C494,327.2,494.3,327.2,494.8,327.2z M494.7,322.9c0.1,0,0.3,0,0.3-0.1
					c0.1-0.1,0.2-0.1,0.2-0.3c0-0.1,0.1-0.3,0.1-0.4c0-0.2,0-0.4,0-0.6c0-0.2,0-0.4,0-0.6c0-0.2,0-0.3-0.1-0.4
					c0-0.1-0.1-0.2-0.2-0.3c-0.1-0.1-0.2-0.1-0.4-0.1c-0.1,0-0.3,0-0.4,0.1c-0.1,0.1-0.2,0.1-0.2,0.3c0,0.1-0.1,0.3-0.1,0.4
					c0,0.2,0,0.4,0,0.6c0,0.2,0,0.4,0,0.6c0,0.2,0,0.3,0.1,0.4c0,0.1,0.1,0.2,0.2,0.3C494.4,322.9,494.5,322.9,494.7,322.9z"/>
			</g>
			<g>
				<path class="st1" d="M498.2,326.1v-6.9h1.6v0.7c0.2-0.2,0.5-0.4,0.8-0.6c0.3-0.1,0.6-0.2,0.9-0.2c0.3,0,0.5,0.1,0.7,0.2
					c0.2,0.1,0.3,0.3,0.4,0.6c0.1,0.2,0.1,0.5,0.1,0.8v5.5H501v-5.2c0-0.2,0-0.4-0.1-0.5c-0.1-0.1-0.2-0.2-0.4-0.2
					c-0.1,0-0.2,0-0.4,0.1c-0.1,0.1-0.3,0.1-0.4,0.2v5.5H498.2z"/>
			</g>
			<g>
				<path class="st1" d="M507.9,326.3c-0.3,0-0.5-0.1-0.7-0.2c-0.2-0.1-0.3-0.3-0.4-0.6c-0.1-0.2-0.1-0.5-0.1-0.8v-5.5h1.6v5.2
					c0,0.2,0,0.4,0.1,0.5c0.1,0.1,0.2,0.2,0.4,0.2c0.1,0,0.2,0,0.4-0.1c0.1-0.1,0.2-0.1,0.4-0.2v-5.6h1.6v6.9h-1.6v-0.7
					c-0.2,0.2-0.5,0.4-0.8,0.6C508.5,326.2,508.2,326.3,507.9,326.3z"/>
			</g>
			<g>
				<path class="st1" d="M512.5,328.4v-9.2h1.6v0.5c0.2-0.2,0.4-0.3,0.7-0.5c0.2-0.1,0.5-0.2,0.8-0.2c0.3,0,0.6,0.1,0.8,0.2
					c0.2,0.1,0.4,0.3,0.5,0.6c0.1,0.2,0.2,0.5,0.2,0.8c0,0.3,0.1,0.5,0.1,0.8v2.4c0,0.5-0.1,0.9-0.2,1.2c-0.1,0.4-0.3,0.7-0.5,0.9
					c-0.2,0.2-0.5,0.3-0.9,0.3c-0.2,0-0.5-0.1-0.7-0.2c-0.2-0.1-0.4-0.3-0.6-0.5v2.8H512.5z M514.8,325.1c0.2,0,0.3-0.1,0.4-0.2
					c0.1-0.1,0.1-0.3,0.2-0.5c0-0.2,0-0.4,0-0.6v-2.5c0-0.2,0-0.4,0-0.6c0-0.2-0.1-0.3-0.2-0.4c-0.1-0.1-0.2-0.2-0.4-0.2
					c-0.1,0-0.3,0-0.4,0.1c-0.1,0.1-0.2,0.1-0.3,0.2v4.4c0.1,0.1,0.2,0.1,0.3,0.2C514.5,325.1,514.7,325.1,514.8,325.1z"/>
			</g>
		</g>
		<g>
			<g>
				<path class="st1" d="M479.9,235.5v-1.9c-1.5-0.1-2.6-0.6-3.4-1.5c-0.7-0.9-1.2-2.2-1.2-3.9l2.8-0.6c0,0.7,0.1,1.3,0.2,1.8
					c0.1,0.5,0.3,0.9,0.6,1.2c0.3,0.3,0.7,0.4,1.1,0.4c0.5,0,0.9-0.2,1.1-0.5c0.2-0.3,0.3-0.7,0.3-1.2c0-0.8-0.2-1.4-0.5-1.9
					c-0.4-0.5-0.8-1-1.4-1.5l-2.3-2c-0.4-0.4-0.8-0.8-1.1-1.2c-0.3-0.4-0.6-0.9-0.7-1.4c-0.2-0.5-0.3-1.1-0.3-1.8
					c0-1.3,0.4-2.4,1.1-3.1c0.8-0.8,1.8-1.2,3.1-1.2v-1.8h0.9v1.8c0.8,0,1.4,0.2,1.9,0.5c0.5,0.3,0.9,0.7,1.2,1.1
					c0.3,0.4,0.5,1,0.6,1.5c0.1,0.6,0.2,1.1,0.3,1.7l-2.8,0.5c0-0.6-0.1-1.1-0.2-1.5c-0.1-0.4-0.3-0.8-0.5-1.1
					c-0.2-0.3-0.6-0.4-1.1-0.3c-0.5,0-0.9,0.2-1.1,0.5c-0.3,0.3-0.4,0.7-0.4,1.2c0,0.6,0.1,1.1,0.4,1.5c0.3,0.4,0.6,0.8,1,1.2l2.2,2
					c0.5,0.4,0.9,0.9,1.3,1.4c0.4,0.5,0.7,1.1,1,1.7c0.2,0.6,0.4,1.3,0.4,2.1c0,0.8-0.2,1.5-0.5,2.1c-0.3,0.6-0.8,1.1-1.3,1.5
					c-0.6,0.4-1.3,0.6-2.1,0.7v1.9H479.9z"/>
			</g>
			<g>
				<path class="st1" d="M486.3,233.4v-2.2l4.4-6.8c0.3-0.5,0.6-1,0.9-1.4c0.3-0.5,0.5-0.9,0.7-1.4c0.2-0.5,0.3-1,0.3-1.6
					c0-0.7-0.1-1.2-0.4-1.5c-0.2-0.4-0.6-0.5-1.1-0.5c-0.5,0-0.8,0.1-1.1,0.4c-0.3,0.3-0.4,0.6-0.5,1c-0.1,0.4-0.1,0.9-0.1,1.4v0.7
					h-3v-0.8c0-1.1,0.2-2,0.5-2.8c0.3-0.8,0.8-1.4,1.5-1.9c0.7-0.5,1.6-0.7,2.7-0.7c1.5,0,2.7,0.4,3.4,1.2c0.8,0.8,1.1,2,1.1,3.4
					c0,0.7-0.1,1.4-0.3,2c-0.2,0.6-0.5,1.2-0.8,1.7c-0.3,0.5-0.7,1.1-1.1,1.7l-3.7,5.6h5.4v2.4H486.3z"/>
			</g>
			<g>
				<path class="st1" d="M501.8,233.7c-1.2,0-2.1-0.2-2.8-0.7c-0.7-0.4-1.1-1.1-1.4-1.9c-0.2-0.8-0.4-1.8-0.4-2.8h3
					c0,0.6,0,1.1,0.1,1.6c0.1,0.5,0.2,0.8,0.5,1.1c0.2,0.3,0.6,0.4,1.1,0.4c0.5,0,0.9-0.2,1.1-0.5c0.2-0.3,0.3-0.8,0.4-1.4
					c0.1-0.6,0.1-1.3,0.1-2.1c0-0.7,0-1.3-0.1-1.8c-0.1-0.5-0.2-0.9-0.5-1.2c-0.2-0.3-0.6-0.4-1.1-0.4c-0.4,0-0.8,0.1-1.1,0.4
					c-0.3,0.3-0.5,0.7-0.6,1.1h-2.6l0.2-9.9h8v2.7h-5.5l-0.2,4.3c0.2-0.3,0.5-0.5,1-0.6c0.4-0.2,0.9-0.3,1.4-0.3
					c0.9,0,1.7,0.2,2.3,0.6c0.6,0.4,1,1.1,1.3,1.9c0.3,0.8,0.4,1.8,0.4,3c0,0.9-0.1,1.8-0.2,2.6c-0.1,0.8-0.4,1.5-0.7,2.1
					c-0.3,0.6-0.8,1-1.4,1.4C503.6,233.5,502.8,233.7,501.8,233.7z"/>
			</g>
			<g>
				<path class="st1" d="M507.9,233.4v-2.1h2v2.1H507.9z"/>
			</g>
			<g>
				<path class="st1" d="M514.2,233.6c-0.7,0-1.3-0.1-1.7-0.4c-0.5-0.2-0.8-0.6-1-1.1c-0.2-0.5-0.3-1-0.3-1.7c0,0,0,0,0-0.1
					s0-0.1,0-0.1h2c0,0.5,0.1,0.9,0.2,1.2c0.1,0.3,0.4,0.4,0.9,0.4c0.3,0,0.5-0.1,0.6-0.2c0.1-0.2,0.3-0.4,0.3-0.8
					c0.1-0.4,0.1-0.9,0.1-1.5V228c-0.1,0.2-0.3,0.4-0.6,0.5c-0.3,0.1-0.6,0.2-1,0.2c-0.7,0-1.2-0.1-1.6-0.5
					c-0.4-0.3-0.7-0.7-0.8-1.3c-0.2-0.5-0.2-1.1-0.2-1.8c0-0.8,0.1-1.5,0.3-2.1c0.2-0.6,0.5-1.1,1-1.4c0.5-0.3,1.1-0.5,1.8-0.5
					c0.8,0,1.4,0.2,1.8,0.5c0.5,0.3,0.8,0.8,1,1.4c0.2,0.6,0.3,1.3,0.3,2v4.3c0,0.8-0.1,1.5-0.3,2.1c-0.2,0.6-0.5,1.1-1,1.5
					C515.7,233.4,515.1,233.6,514.2,233.6z M514.3,227.2c0.3,0,0.5-0.1,0.7-0.2c0.2-0.1,0.3-0.3,0.4-0.4v-1.9c0-0.4,0-0.7-0.1-1
					c-0.1-0.3-0.2-0.5-0.3-0.7c-0.2-0.2-0.4-0.3-0.7-0.3c-0.3,0-0.5,0.1-0.7,0.3c-0.2,0.2-0.3,0.4-0.3,0.8c-0.1,0.3-0.1,0.7-0.1,1.1
					c0,0.4,0,0.8,0.1,1.2c0,0.4,0.1,0.6,0.3,0.8C513.7,227,513.9,227.2,514.3,227.2z"/>
			</g>
			<g>
				<path class="st1" d="M522.1,233.6c-0.7,0-1.3-0.1-1.7-0.4c-0.4-0.2-0.8-0.6-1-1.1c-0.2-0.5-0.3-1-0.3-1.7c0,0,0,0,0-0.1
					s0-0.1,0-0.1h2c0,0.5,0.1,0.9,0.2,1.2c0.1,0.3,0.4,0.4,0.9,0.4c0.3,0,0.5-0.1,0.6-0.2c0.2-0.2,0.3-0.4,0.3-0.8
					c0.1-0.4,0.1-0.9,0.1-1.5V228c-0.1,0.2-0.4,0.4-0.6,0.5c-0.3,0.1-0.6,0.2-1,0.2c-0.7,0-1.2-0.1-1.6-0.5
					c-0.4-0.3-0.7-0.7-0.8-1.3c-0.2-0.5-0.2-1.1-0.2-1.8c0-0.8,0.1-1.5,0.3-2.1c0.2-0.6,0.5-1.1,1-1.4c0.5-0.3,1.1-0.5,1.8-0.5
					c0.8,0,1.4,0.2,1.8,0.5c0.5,0.3,0.8,0.8,1,1.4c0.2,0.6,0.3,1.3,0.3,2v4.3c0,0.8-0.1,1.5-0.3,2.1c-0.2,0.6-0.5,1.1-1,1.5
					C523.5,233.4,522.9,233.6,522.1,233.6z M522.1,227.2c0.3,0,0.5-0.1,0.7-0.2c0.2-0.1,0.3-0.3,0.4-0.4v-1.9c0-0.4,0-0.7-0.1-1
					c-0.1-0.3-0.2-0.5-0.3-0.7c-0.2-0.2-0.4-0.3-0.7-0.3c-0.3,0-0.5,0.1-0.7,0.3c-0.2,0.2-0.3,0.4-0.3,0.8c-0.1,0.3-0.1,0.7-0.1,1.1
					c0,0.4,0,0.8,0.1,1.2c0,0.4,0.1,0.6,0.3,0.8C521.5,227,521.7,227.2,522.1,227.2z"/>
			</g>
		</g>
		<g>
			<g>
				<path class="st1" d="M527.3,248.2h-54c-0.3,0-0.5-0.2-0.5-0.5s0.2-0.5,0.5-0.5h54c0.3,0,0.5,0.2,0.5,0.5
					S527.6,248.2,527.3,248.2z"/>
			</g>
			<g>
				<path class="st1" d="M527.3,258.6h-54c-0.3,0-0.5-0.2-0.5-0.5s0.2-0.5,0.5-0.5h54c0.3,0,0.5,0.2,0.5,0.5
					S527.6,258.6,527.3,258.6z"/>
			</g>
			<g>
				<path class="st1" d="M527.3,269.1h-54c-0.3,0-0.5-0.2-0.5-0.5s0.2-0.5,0.5-0.5h54c0.3,0,0.5,0.2,0.5,0.5
					S527.6,269.1,527.3,269.1z"/>
			</g>
			<g>
				<path class="st1" d="M527.3,279.5h-54c-0.3,0-0.5-0.2-0.5-0.5s0.2-0.5,0.5-0.5h54c0.3,0,0.5,0.2,0.5,0.5
					S527.6,279.5,527.3,279.5z"/>
			</g>
			<g>
				<path class="st1" d="M527.3,290h-54c-0.3,0-0.5-0.2-0.5-0.5s0.2-0.5,0.5-0.5h54c0.3,0,0.5,0.2,0.5,0.5S527.6,290,527.3,290z"/>
			</g>
		</g>
		<g>
			<g>
				<polygon class="st4" points="475.1,191.1 476.3,194.8 480.1,194.8 477,197 478.2,200.7 475.1,198.4 472,200.7 473.2,197 
					470.1,194.8 473.9,194.8 				"/>
			</g>
			<g>
				<polygon class="st4" points="487.7,191.1 488.9,194.8 492.7,194.8 489.6,197 490.8,200.7 487.7,198.4 484.6,200.7 485.8,197 
					482.7,194.8 486.5,194.8 				"/>
			</g>
			<g>
				<polygon class="st4" points="500.3,191.1 501.5,194.8 505.4,194.8 502.3,197 503.4,200.7 500.3,198.4 497.2,200.7 498.4,197 
					495.3,194.8 499.1,194.8 				"/>
			</g>
			<g>
				<polygon class="st4" points="513,191.1 514.1,194.8 518,194.8 514.9,197 516.1,200.7 513,198.4 509.9,200.7 511,197 
					507.9,194.8 511.8,194.8 				"/>
			</g>
			<g>
				<polygon class="st4" points="525.6,191.1 526.8,194.8 530.6,194.8 527.5,197 528.7,200.7 525.6,198.4 522.5,200.7 523.7,197 
					520.6,194.8 524.4,194.8 				"/>
			</g>
		</g>
	</g>
	<g>
		<g>
			<rect x="344.2" y="169.9" class="st0" width="98.1" height="181.7"/>
			<path class="st1" d="M442.3,352.1h-98.1c-0.3,0-0.5-0.2-0.5-0.5V169.9c0-0.3,0.2-0.5,0.5-0.5h98.1c0.3,0,0.5,0.2,0.5,0.5v181.7
				C442.8,351.9,442.6,352.1,442.3,352.1z M344.7,351.1h97.1V170.4h-97.1V351.1z"/>
		</g>
		<g>
			<rect x="344.2" y="169.9" class="st3" width="98.1" height="36"/>
			<path class="st1" d="M442.3,206.4h-98.1c-0.3,0-0.5-0.2-0.5-0.5v-36c0-0.3,0.2-0.5,0.5-0.5h98.1c0.3,0,0.5,0.2,0.5,0.5v36
				C442.8,206.2,442.6,206.4,442.3,206.4z M344.7,205.4h97.1v-35h-97.1V205.4z"/>
		</g>
		<g>
			<path class="st0" d="M418.9,333h-51.3c-5.2,0-9.5-4.3-9.5-9.5v-3c0-5.2,4.3-9.5,9.5-9.5h51.3c5.2,0,9.5,4.3,9.5,9.5v3
				C428.4,328.7,424.2,333,418.9,333z"/>
			<path class="st1" d="M418.9,333.5h-51.3c-5.5,0-10-4.5-10-10v-3c0-5.5,4.5-10,10-10h51.3c5.5,0,10,4.5,10,10v3
				C428.9,329,424.4,333.5,418.9,333.5z M367.6,311.5c-5,0-9,4-9,9v3c0,5,4,9,9,9h51.3c5,0,9-4,9-9v-3c0-5-4-9-9-9H367.6z"/>
		</g>
		<g>
			<g>
				<path class="st1" d="M371.8,187.3v-9.7h2.9c0.6,0,1.1,0.1,1.4,0.3c0.4,0.2,0.6,0.5,0.8,0.9c0.2,0.4,0.3,0.9,0.3,1.5
					c0,0.6-0.1,1.1-0.3,1.5c-0.2,0.4-0.5,0.7-0.9,0.8c-0.4,0.2-0.8,0.3-1.4,0.3h-1v4.3H371.8z M373.5,181.8h0.7c0.3,0,0.6,0,0.8-0.1
					c0.2-0.1,0.3-0.2,0.4-0.4c0.1-0.2,0.1-0.5,0.1-0.8c0-0.4,0-0.6-0.1-0.9c-0.1-0.2-0.2-0.4-0.3-0.5c-0.2-0.1-0.4-0.2-0.8-0.2h-0.7
					V181.8z"/>
			</g>
			<g>
				<path class="st1" d="M378,187.3v-9.7h2.3c0.7,0,1.2,0.1,1.7,0.2c0.5,0.2,0.8,0.4,1,0.8c0.2,0.4,0.4,0.9,0.4,1.5
					c0,0.4,0,0.7-0.1,1.1c-0.1,0.3-0.2,0.6-0.4,0.8c-0.2,0.2-0.4,0.4-0.7,0.5l1.4,4.8h-1.8l-1.2-4.5h-0.8v4.5H378z M379.8,181.8h0.6
					c0.3,0,0.6,0,0.8-0.1s0.3-0.3,0.4-0.5c0.1-0.2,0.1-0.5,0.1-0.8c0-0.5-0.1-0.9-0.3-1.1c-0.2-0.2-0.5-0.4-1-0.4h-0.6V181.8z"/>
			</g>
			<g>
				<path class="st1" d="M384.7,187.3v-9.7h4.1v1.2h-2.3v2.8h1.8v1.2h-1.8v3.2h2.3v1.2H384.7z"/>
			</g>
			<g>
				<path class="st1" d="M389.8,187.3l0.2-9.7h1.8l1.4,6.7l1.4-6.7h1.8l0.2,9.7h-1.3l-0.1-6.8l-1.4,6.8h-1.1l-1.4-6.8l-0.1,6.8
					H389.8z"/>
			</g>
			<g>
				<path class="st1" d="M398,187.3v-9.7h1.8v9.7H398z"/>
			</g>
			<g>
				<path class="st1" d="M404,187.5c-0.7,0-1.3-0.1-1.7-0.4c-0.4-0.3-0.7-0.6-0.8-1.1c-0.2-0.5-0.2-1.1-0.2-1.8v-6.6h1.7v6.8
					c0,0.3,0,0.6,0.1,0.9c0,0.3,0.1,0.5,0.3,0.6c0.1,0.2,0.4,0.2,0.7,0.2c0.3,0,0.5-0.1,0.7-0.2c0.1-0.2,0.2-0.4,0.3-0.6
					c0-0.3,0.1-0.6,0.1-0.9v-6.8h1.7v6.6c0,0.7-0.1,1.3-0.2,1.8c-0.2,0.5-0.4,0.9-0.8,1.1C405.3,187.3,404.7,187.5,404,187.5z"/>
			</g>
			<g>
				<path class="st1" d="M408.1,187.3l0.2-9.7h1.8l1.4,6.7l1.4-6.7h1.8l0.2,9.7h-1.3l-0.1-6.8l-1.4,6.8h-1.1l-1.4-6.8l-0.1,6.8
					H408.1z"/>
			</g>
		</g>
		<g>
			<g>
				<path class="st1" d="M379.2,326.3c-0.6,0-1.1-0.1-1.5-0.3c-0.4-0.2-0.7-0.6-0.9-1c-0.2-0.4-0.3-1-0.3-1.6l1.5-0.3
					c0,0.4,0.1,0.7,0.1,1c0.1,0.3,0.2,0.5,0.3,0.7c0.2,0.2,0.4,0.2,0.6,0.2c0.3,0,0.5-0.1,0.6-0.3c0.1-0.2,0.2-0.4,0.2-0.7
					c0-0.4-0.1-0.8-0.3-1c-0.2-0.3-0.4-0.5-0.8-0.8l-1.2-1.1c-0.3-0.3-0.6-0.6-0.8-1c-0.2-0.4-0.3-0.8-0.3-1.4
					c0-0.8,0.2-1.4,0.7-1.8c0.4-0.4,1.1-0.6,1.8-0.6c0.5,0,0.8,0.1,1.1,0.2c0.3,0.1,0.5,0.3,0.7,0.6c0.2,0.2,0.3,0.5,0.4,0.8
					c0.1,0.3,0.1,0.7,0.2,1l-1.5,0.3c0-0.3,0-0.6-0.1-0.8c-0.1-0.2-0.1-0.4-0.3-0.6c-0.1-0.1-0.3-0.2-0.6-0.2
					c-0.3,0-0.5,0.1-0.6,0.3c-0.1,0.2-0.2,0.4-0.2,0.6c0,0.3,0.1,0.6,0.2,0.8c0.1,0.2,0.3,0.4,0.6,0.7l1.2,1.1
					c0.4,0.3,0.7,0.7,1,1.2c0.3,0.5,0.4,1,0.4,1.6c0,0.5-0.1,0.9-0.3,1.2c-0.2,0.4-0.5,0.6-0.9,0.8
					C380.1,326.2,379.7,326.3,379.2,326.3z"/>
			</g>
			<g>
				<path class="st1" d="M382.5,318.1v-1.4h1.6v1.4H382.5z M382.5,326.1v-6.9h1.6v6.9H382.5z"/>
			</g>
			<g>
				<path class="st1" d="M387.5,328.4c-0.5,0-0.9,0-1.2-0.1c-0.4-0.1-0.6-0.2-0.8-0.4c-0.2-0.2-0.3-0.5-0.3-0.8c0-0.2,0-0.4,0.1-0.6
					c0.1-0.2,0.2-0.3,0.4-0.5c0.2-0.1,0.3-0.2,0.5-0.3c-0.3-0.1-0.5-0.2-0.6-0.3c-0.1-0.2-0.2-0.4-0.2-0.6c0-0.3,0.1-0.5,0.2-0.7
					c0.1-0.2,0.3-0.4,0.6-0.6c-0.2-0.2-0.4-0.5-0.6-0.8c-0.1-0.3-0.2-0.7-0.2-1.2c0-0.5,0.1-1,0.3-1.3c0.2-0.4,0.4-0.6,0.8-0.8
					c0.3-0.2,0.7-0.3,1.2-0.3c0.4,0,0.7,0.1,0.9,0.2c0.2,0.1,0.5,0.3,0.6,0.5c0.1-0.1,0.2-0.2,0.3-0.4c0.2-0.1,0.3-0.3,0.6-0.4
					l0.2-0.1l0.4,0.9c-0.1,0-0.2,0.1-0.4,0.1c-0.1,0.1-0.3,0.1-0.4,0.2c-0.1,0.1-0.3,0.1-0.3,0.2c0.1,0.2,0.1,0.4,0.2,0.6
					c0,0.2,0.1,0.5,0.1,0.7c0,0.5-0.1,0.9-0.2,1.3c-0.2,0.4-0.4,0.6-0.7,0.8c-0.3,0.2-0.7,0.3-1.2,0.3c-0.2,0-0.3,0-0.5,0
					c-0.2,0-0.3-0.1-0.4-0.1c0,0.1-0.1,0.1-0.1,0.2c0,0.1-0.1,0.2-0.1,0.3c0,0.1,0,0.2,0.1,0.2c0.1,0.1,0.3,0.1,0.5,0.1l1.5,0.1
					c0.6,0.1,1,0.2,1.3,0.5c0.3,0.3,0.4,0.7,0.4,1.2c0,0.4-0.1,0.8-0.3,1c-0.2,0.3-0.5,0.5-0.9,0.6
					C388.7,328.4,388.1,328.4,387.5,328.4z M387.7,327.2c0.4,0,0.8,0,1-0.1c0.2-0.1,0.3-0.2,0.3-0.5c0-0.1,0-0.2-0.1-0.3
					c-0.1-0.1-0.2-0.1-0.3-0.2c-0.1-0.1-0.3-0.1-0.6-0.1l-1.2-0.1c-0.1,0.1-0.2,0.1-0.2,0.2c-0.1,0.1-0.1,0.2-0.2,0.2
					c0,0.1-0.1,0.2-0.1,0.3c0,0.2,0.1,0.3,0.3,0.4C386.9,327.2,387.2,327.2,387.7,327.2z M387.6,322.9c0.1,0,0.3,0,0.3-0.1
					c0.1-0.1,0.2-0.1,0.2-0.3c0-0.1,0.1-0.3,0.1-0.4c0-0.2,0-0.4,0-0.6c0-0.2,0-0.4,0-0.6c0-0.2,0-0.3-0.1-0.4
					c0-0.1-0.1-0.2-0.2-0.3c-0.1-0.1-0.2-0.1-0.4-0.1c-0.1,0-0.3,0-0.4,0.1c-0.1,0.1-0.2,0.1-0.2,0.3c0,0.1-0.1,0.3-0.1,0.4
					c0,0.2,0,0.4,0,0.6c0,0.2,0,0.4,0,0.6c0,0.2,0,0.3,0.1,0.4c0,0.1,0.1,0.2,0.2,0.3C387.3,322.9,387.4,322.9,387.6,322.9z"/>
			</g>
			<g>
				<path class="st1" d="M391.1,326.1v-6.9h1.6v0.7c0.2-0.2,0.5-0.4,0.8-0.6c0.3-0.1,0.6-0.2,0.9-0.2c0.3,0,0.5,0.1,0.7,0.2
					c0.2,0.1,0.3,0.3,0.4,0.6c0.1,0.2,0.1,0.5,0.1,0.8v5.5H394v-5.2c0-0.2,0-0.4-0.1-0.5c-0.1-0.1-0.2-0.2-0.4-0.2
					c-0.1,0-0.2,0-0.4,0.1c-0.1,0.1-0.3,0.1-0.4,0.2v5.5H391.1z"/>
			</g>
			<g>
				<path class="st1" d="M400.8,326.3c-0.3,0-0.5-0.1-0.7-0.2c-0.2-0.1-0.3-0.3-0.4-0.6c-0.1-0.2-0.1-0.5-0.1-0.8v-5.5h1.6v5.2
					c0,0.2,0,0.4,0.1,0.5c0.1,0.1,0.2,0.2,0.4,0.2c0.1,0,0.2,0,0.4-0.1c0.1-0.1,0.2-0.1,0.4-0.2v-5.6h1.6v6.9h-1.6v-0.7
					c-0.2,0.2-0.5,0.4-0.8,0.6C401.4,326.2,401.1,326.3,400.8,326.3z"/>
			</g>
			<g>
				<path class="st1" d="M405.4,328.4v-9.2h1.6v0.5c0.2-0.2,0.4-0.3,0.7-0.5c0.2-0.1,0.5-0.2,0.8-0.2c0.3,0,0.6,0.1,0.8,0.2
					c0.2,0.1,0.4,0.3,0.5,0.6c0.1,0.2,0.2,0.5,0.2,0.8c0,0.3,0.1,0.5,0.1,0.8v2.4c0,0.5-0.1,0.9-0.2,1.2c-0.1,0.4-0.3,0.7-0.5,0.9
					c-0.2,0.2-0.5,0.3-0.9,0.3c-0.2,0-0.5-0.1-0.7-0.2c-0.2-0.1-0.4-0.3-0.6-0.5v2.8H405.4z M407.7,325.1c0.2,0,0.3-0.1,0.4-0.2
					c0.1-0.1,0.1-0.3,0.2-0.5c0-0.2,0-0.4,0-0.6v-2.5c0-0.2,0-0.4,0-0.6c0-0.2-0.1-0.3-0.2-0.4c-0.1-0.1-0.2-0.2-0.4-0.2
					c-0.1,0-0.3,0-0.4,0.1c-0.1,0.1-0.2,0.1-0.3,0.2v4.4c0.1,0.1,0.2,0.1,0.3,0.2C407.5,325.1,407.6,325.1,407.7,325.1z"/>
			</g>
		</g>
		<g>
			<g>
				<path class="st1" d="M373.9,235.5v-1.9c-1.5-0.1-2.6-0.6-3.4-1.5c-0.7-0.9-1.2-2.2-1.2-3.9l2.8-0.6c0,0.7,0.1,1.3,0.2,1.8
					c0.1,0.5,0.3,0.9,0.6,1.2c0.3,0.3,0.7,0.4,1.1,0.4c0.5,0,0.9-0.2,1.1-0.5c0.2-0.3,0.3-0.7,0.3-1.2c0-0.8-0.2-1.4-0.5-1.9
					c-0.4-0.5-0.8-1-1.4-1.5l-2.3-2c-0.4-0.4-0.8-0.8-1.1-1.2c-0.3-0.4-0.6-0.9-0.7-1.4c-0.2-0.5-0.3-1.1-0.3-1.8
					c0-1.3,0.4-2.4,1.1-3.1c0.8-0.8,1.8-1.2,3.1-1.2v-1.8h0.9v1.8c0.8,0,1.4,0.2,1.9,0.5c0.5,0.3,0.9,0.7,1.2,1.1
					c0.3,0.4,0.5,1,0.6,1.5c0.1,0.6,0.2,1.1,0.3,1.7l-2.8,0.5c0-0.6-0.1-1.1-0.2-1.5c-0.1-0.4-0.3-0.8-0.5-1.1
					c-0.2-0.3-0.6-0.4-1.1-0.3c-0.5,0-0.9,0.2-1.1,0.5c-0.3,0.3-0.4,0.7-0.4,1.2c0,0.6,0.1,1.1,0.4,1.5c0.3,0.4,0.6,0.8,1,1.2l2.2,2
					c0.5,0.4,0.9,0.9,1.3,1.4c0.4,0.5,0.7,1.1,1,1.7c0.2,0.6,0.4,1.3,0.4,2.1c0,0.8-0.2,1.5-0.5,2.1c-0.3,0.6-0.8,1.1-1.3,1.5
					c-0.6,0.4-1.3,0.6-2.1,0.7v1.9H373.9z"/>
			</g>
			<g>
				<path class="st1" d="M382.8,233.4v-14.5c-0.1,0-0.3,0.1-0.5,0.2c-0.3,0.1-0.5,0.2-0.8,0.3c-0.3,0.1-0.6,0.2-0.8,0.2
					c-0.3,0.1-0.4,0.1-0.5,0.2v-2.3c0.2-0.1,0.5-0.2,0.8-0.3c0.3-0.1,0.6-0.3,1-0.5c0.3-0.2,0.7-0.4,1-0.6c0.3-0.2,0.5-0.4,0.7-0.6
					h2.3v17.9H382.8z"/>
			</g>
			<g>
				<path class="st1" d="M393.6,233.7c-1.2,0-2.1-0.2-2.8-0.7c-0.7-0.4-1.1-1.1-1.4-1.9c-0.2-0.8-0.4-1.8-0.4-2.8h3
					c0,0.6,0,1.1,0.1,1.6c0.1,0.5,0.2,0.8,0.5,1.1c0.2,0.3,0.6,0.4,1.1,0.4c0.5,0,0.9-0.2,1.1-0.5c0.2-0.3,0.3-0.8,0.4-1.4
					c0.1-0.6,0.1-1.3,0.1-2.1c0-0.7,0-1.3-0.1-1.8c-0.1-0.5-0.2-0.9-0.5-1.2c-0.2-0.3-0.6-0.4-1.1-0.4c-0.4,0-0.8,0.1-1.1,0.4
					c-0.3,0.3-0.5,0.7-0.6,1.1h-2.6l0.2-9.9h8v2.7H392l-0.2,4.3c0.2-0.3,0.5-0.5,1-0.6c0.4-0.2,0.9-0.3,1.4-0.3
					c0.9,0,1.7,0.2,2.3,0.6c0.6,0.4,1,1.1,1.3,1.9c0.3,0.8,0.4,1.8,0.4,3c0,0.9-0.1,1.8-0.2,2.6c-0.1,0.8-0.4,1.5-0.7,2.1
					c-0.3,0.6-0.8,1-1.4,1.4C395.3,233.5,394.5,233.7,393.6,233.7z"/>
			</g>
			<g>
				<path class="st1" d="M399.7,233.4v-2.1h2v2.1H399.7z"/>
			</g>
			<g>
				<path class="st1" d="M406,233.6c-0.7,0-1.3-0.1-1.7-0.4c-0.5-0.2-0.8-0.6-1-1.1c-0.2-0.5-0.3-1-0.3-1.7c0,0,0,0,0-0.1
					s0-0.1,0-0.1h2c0,0.5,0.1,0.9,0.2,1.2c0.1,0.3,0.4,0.4,0.9,0.4c0.3,0,0.5-0.1,0.6-0.2c0.1-0.2,0.3-0.4,0.3-0.8
					c0.1-0.4,0.1-0.9,0.1-1.5V228c-0.1,0.2-0.3,0.4-0.6,0.5c-0.3,0.1-0.6,0.2-1,0.2c-0.7,0-1.2-0.1-1.6-0.5
					c-0.4-0.3-0.7-0.7-0.8-1.3c-0.2-0.5-0.2-1.1-0.2-1.8c0-0.8,0.1-1.5,0.3-2.1c0.2-0.6,0.5-1.1,1-1.4c0.5-0.3,1.1-0.5,1.8-0.5
					c0.8,0,1.4,0.2,1.8,0.5c0.5,0.3,0.8,0.8,1,1.4c0.2,0.6,0.3,1.3,0.3,2v4.3c0,0.8-0.1,1.5-0.3,2.1c-0.2,0.6-0.5,1.1-1,1.5
					C407.5,233.4,406.8,233.6,406,233.6z M406,227.2c0.3,0,0.5-0.1,0.7-0.2c0.2-0.1,0.3-0.3,0.4-0.4v-1.9c0-0.4,0-0.7-0.1-1
					c-0.1-0.3-0.2-0.5-0.3-0.7c-0.2-0.2-0.4-0.3-0.7-0.3c-0.3,0-0.5,0.1-0.7,0.3c-0.2,0.2-0.3,0.4-0.3,0.8c-0.1,0.3-0.1,0.7-0.1,1.1
					c0,0.4,0,0.8,0.1,1.2c0,0.4,0.1,0.6,0.3,0.8C405.4,227,405.7,227.2,406,227.2z"/>
			</g>
			<g>
				<path class="st1" d="M413.8,233.6c-0.7,0-1.3-0.1-1.7-0.4c-0.4-0.2-0.8-0.6-1-1.1c-0.2-0.5-0.3-1-0.3-1.7c0,0,0,0,0-0.1
					s0-0.1,0-0.1h2c0,0.5,0.1,0.9,0.2,1.2c0.1,0.3,0.4,0.4,0.9,0.4c0.3,0,0.5-0.1,0.6-0.2c0.2-0.2,0.3-0.4,0.3-0.8
					c0.1-0.4,0.1-0.9,0.1-1.5V228c-0.1,0.2-0.4,0.4-0.6,0.5c-0.3,0.1-0.6,0.2-1,0.2c-0.7,0-1.2-0.1-1.6-0.5
					c-0.4-0.3-0.7-0.7-0.8-1.3c-0.2-0.5-0.2-1.1-0.2-1.8c0-0.8,0.1-1.5,0.3-2.1c0.2-0.6,0.5-1.1,1-1.4c0.5-0.3,1.1-0.5,1.8-0.5
					c0.8,0,1.4,0.2,1.8,0.5c0.5,0.3,0.8,0.8,1,1.4c0.2,0.6,0.3,1.3,0.3,2v4.3c0,0.8-0.1,1.5-0.3,2.1c-0.2,0.6-0.5,1.1-1,1.5
					C415.3,233.4,414.7,233.6,413.8,233.6z M413.8,227.2c0.3,0,0.5-0.1,0.7-0.2c0.2-0.1,0.3-0.3,0.4-0.4v-1.9c0-0.4,0-0.7-0.1-1
					c-0.1-0.3-0.2-0.5-0.3-0.7c-0.2-0.2-0.4-0.3-0.7-0.3c-0.3,0-0.5,0.1-0.7,0.3c-0.2,0.2-0.3,0.4-0.3,0.8c-0.1,0.3-0.1,0.7-0.1,1.1
					c0,0.4,0,0.8,0.1,1.2c0,0.4,0.1,0.6,0.3,0.8C413.2,227,413.5,227.2,413.8,227.2z"/>
			</g>
		</g>
		<g>
			<g>
				<path class="st1" d="M420.2,248.2h-54c-0.3,0-0.5-0.2-0.5-0.5s0.2-0.5,0.5-0.5h54c0.3,0,0.5,0.2,0.5,0.5
					S420.5,248.2,420.2,248.2z"/>
			</g>
			<g>
				<path class="st1" d="M420.2,258.6h-54c-0.3,0-0.5-0.2-0.5-0.5s0.2-0.5,0.5-0.5h54c0.3,0,0.5,0.2,0.5,0.5
					S420.5,258.6,420.2,258.6z"/>
			</g>
			<g>
				<path class="st1" d="M420.2,269.1h-54c-0.3,0-0.5-0.2-0.5-0.5s0.2-0.5,0.5-0.5h54c0.3,0,0.5,0.2,0.5,0.5
					S420.5,269.1,420.2,269.1z"/>
			</g>
			<g>
				<path class="st1" d="M420.2,279.5h-54c-0.3,0-0.5-0.2-0.5-0.5s0.2-0.5,0.5-0.5h54c0.3,0,0.5,0.2,0.5,0.5
					S420.5,279.5,420.2,279.5z"/>
			</g>
		</g>
		<g>
			<g>
				<polygon class="st4" points="380.8,191.1 382,194.8 385.8,194.8 382.7,197 383.9,200.7 380.8,198.4 377.7,200.7 378.9,197 
					375.8,194.8 379.6,194.8 				"/>
			</g>
			<g>
				<polygon class="st4" points="393.3,191.1 394.4,194.8 398.3,194.8 395.2,197 396.4,200.7 393.3,198.4 390.1,200.7 391.3,197 
					388.2,194.8 392.1,194.8 				"/>
			</g>
			<g>
				<polygon class="st4" points="405.7,191.1 406.9,194.8 410.7,194.8 407.6,197 408.8,200.7 405.7,198.4 402.6,200.7 403.8,197 
					400.7,194.8 404.5,194.8 				"/>
			</g>
		</g>
	</g>
	<g>
		<g>
			<path class="st3" d="M235.5,142.2v-16h4.7c1,0,1.7,0.2,2.3,0.5c0.6,0.4,1,0.9,1.3,1.6c0.3,0.7,0.4,1.5,0.4,2.5
				c0,1-0.2,1.9-0.5,2.5c-0.4,0.6-0.9,1.1-1.5,1.4c-0.6,0.3-1.4,0.4-2.3,0.4h-1.6v7.1H235.5z M238.4,133.1h1.1
				c0.5,0,0.9-0.1,1.2-0.2c0.3-0.2,0.5-0.4,0.6-0.7c0.1-0.3,0.2-0.8,0.2-1.4c0-0.6,0-1-0.1-1.4c-0.1-0.4-0.3-0.6-0.6-0.8
				c-0.3-0.2-0.7-0.3-1.3-0.3h-1.1V133.1z"/>
		</g>
		<g>
			<path class="st3" d="M245.8,142.2v-16h3.8c1.1,0,2,0.1,2.7,0.4c0.7,0.3,1.3,0.7,1.7,1.3c0.4,0.6,0.6,1.5,0.6,2.5
				c0,0.6-0.1,1.2-0.2,1.7c-0.1,0.5-0.3,1-0.6,1.3c-0.3,0.4-0.7,0.6-1.2,0.8l2.2,7.9H252l-1.9-7.3h-1.3v7.3H245.8z M248.7,133.1h0.9
				c0.6,0,1-0.1,1.4-0.2c0.3-0.2,0.6-0.4,0.7-0.8c0.1-0.4,0.2-0.8,0.2-1.4c0-0.8-0.1-1.4-0.4-1.8c-0.3-0.4-0.9-0.6-1.7-0.6h-1.1
				V133.1z"/>
		</g>
		<g>
			<path class="st3" d="M256.9,142.2v-16h2.9v16H256.9z"/>
		</g>
		<g>
			<path class="st3" d="M266.6,142.5c-1.2,0-2.1-0.2-2.8-0.7c-0.7-0.5-1.1-1.1-1.4-1.9c-0.3-0.8-0.4-1.7-0.4-2.8v-5.7
				c0-1.1,0.1-2,0.4-2.8c0.3-0.8,0.7-1.4,1.4-1.9c0.7-0.4,1.6-0.7,2.8-0.7c1.1,0,2,0.2,2.6,0.6c0.6,0.4,1.1,0.9,1.3,1.6
				c0.3,0.7,0.4,1.5,0.4,2.4v1.3h-2.8v-1.4c0-0.4,0-0.9-0.1-1.2c0-0.4-0.2-0.7-0.4-0.9c-0.2-0.2-0.6-0.3-1.1-0.3
				c-0.5,0-0.9,0.1-1.1,0.3c-0.2,0.2-0.4,0.5-0.4,0.9c-0.1,0.4-0.1,0.8-0.1,1.3v7c0,0.6,0,1.1,0.1,1.4c0.1,0.4,0.3,0.7,0.5,0.8
				c0.2,0.2,0.6,0.3,1,0.3c0.5,0,0.8-0.1,1-0.3c0.2-0.2,0.3-0.5,0.4-0.9c0.1-0.4,0.1-0.8,0.1-1.3v-1.4h2.8v1.3
				c0,0.9-0.1,1.8-0.4,2.5c-0.2,0.7-0.7,1.3-1.3,1.7C268.6,142.3,267.7,142.5,266.6,142.5z"/>
		</g>
		<g>
			<path class="st3" d="M273,142.2v-16h2.9v16H273z"/>
		</g>
		<g>
			<path class="st3" d="M278.4,142.2v-16h2l3.9,9.1v-9.1h2.4v16h-1.9l-3.9-9.6v9.6H278.4z"/>
		</g>
		<g>
			<path class="st3" d="M293.1,142.5c-1.1,0-1.9-0.2-2.5-0.7c-0.6-0.4-1.1-1.1-1.3-1.9c-0.3-0.8-0.4-1.8-0.4-2.9v-5.4
				c0-1.1,0.1-2.1,0.4-3c0.3-0.8,0.7-1.5,1.4-1.9c0.7-0.4,1.6-0.7,2.8-0.7c1.1,0,2,0.2,2.6,0.6c0.6,0.4,1.1,0.9,1.4,1.6
				c0.3,0.7,0.4,1.5,0.4,2.5v0.8h-2.8v-0.9c0-0.5,0-1-0.1-1.3c-0.1-0.4-0.2-0.6-0.4-0.8c-0.2-0.2-0.6-0.3-1.1-0.3
				c-0.5,0-0.9,0.1-1.1,0.4c-0.2,0.3-0.4,0.6-0.4,1c-0.1,0.4-0.1,0.9-0.1,1.3v6.7c0,0.6,0,1,0.1,1.4c0.1,0.4,0.3,0.7,0.5,0.9
				c0.2,0.2,0.6,0.3,1.1,0.3c0.5,0,0.8-0.1,1.1-0.4c0.2-0.2,0.4-0.6,0.5-1c0.1-0.4,0.1-0.9,0.1-1.5V136h-1.7v-1.8h4.3v8.1h-1.9
				l-0.2-1.6c-0.2,0.5-0.5,1-1,1.3C294.4,142.3,293.9,142.5,293.1,142.5z"/>
		</g>
		<g>
			<path class="st3" d="M305,142.2v-16h4.7c1,0,1.7,0.2,2.3,0.5c0.6,0.4,1,0.9,1.3,1.6c0.3,0.7,0.4,1.5,0.4,2.5c0,1-0.2,1.9-0.5,2.5
				c-0.4,0.6-0.9,1.1-1.5,1.4c-0.6,0.3-1.4,0.4-2.3,0.4h-1.6v7.1H305z M307.9,133.1h1.1c0.5,0,0.9-0.1,1.2-0.2
				c0.3-0.2,0.5-0.4,0.6-0.7c0.1-0.3,0.2-0.8,0.2-1.4c0-0.6,0-1-0.1-1.4c-0.1-0.4-0.3-0.6-0.6-0.8c-0.3-0.2-0.7-0.3-1.3-0.3h-1.1
				V133.1z"/>
		</g>
		<g>
			<path class="st3" d="M315.3,142.2v-16h2.9v14h3.9v2H315.3z"/>
		</g>
		<g>
			<path class="st3" d="M322.8,142.2l3.2-16h3.1l3.2,16h-2.7l-0.6-3.7h-2.8l-0.7,3.7H322.8z M326.5,136.7h2.2l-1.1-6.7L326.5,136.7z
				"/>
		</g>
		<g>
			<path class="st3" d="M333.8,142.2v-16h2l3.9,9.1v-9.1h2.4v16h-1.9l-3.9-9.6v9.6H333.8z"/>
		</g>
		<g>
			<path class="st3" d="M348.6,142.5c-1,0-1.8-0.2-2.4-0.6c-0.6-0.4-1.1-0.9-1.5-1.6c-0.3-0.7-0.5-1.6-0.6-2.7l2.5-0.5
				c0,0.6,0.1,1.2,0.2,1.6c0.1,0.5,0.3,0.8,0.6,1.1c0.3,0.3,0.6,0.4,1,0.4c0.5,0,0.8-0.1,1-0.4c0.2-0.3,0.3-0.6,0.3-1.1
				c0-0.7-0.2-1.3-0.5-1.7c-0.3-0.4-0.7-0.9-1.3-1.3l-2-1.8c-0.6-0.5-1-1-1.4-1.6c-0.3-0.6-0.5-1.3-0.5-2.2c0-1.3,0.4-2.2,1.1-2.9
				c0.7-0.7,1.7-1,3-1c0.8,0,1.4,0.1,1.9,0.3c0.5,0.2,0.9,0.5,1.2,1c0.3,0.4,0.5,0.9,0.7,1.4c0.1,0.5,0.2,1.1,0.3,1.6l-2.5,0.4
				c0-0.5-0.1-0.9-0.2-1.3c-0.1-0.4-0.2-0.7-0.5-0.9c-0.2-0.2-0.5-0.3-1-0.3c-0.4,0-0.8,0.1-1,0.4c-0.2,0.3-0.3,0.6-0.3,1.1
				c0,0.5,0.1,1,0.3,1.3c0.2,0.3,0.5,0.7,1,1.1l2,1.8c0.7,0.6,1.2,1.2,1.7,1.9c0.5,0.7,0.7,1.6,0.7,2.7c0,0.8-0.2,1.4-0.5,2
				c-0.3,0.6-0.8,1.1-1.4,1.4C350.1,142.3,349.4,142.5,348.6,142.5z"/>
		</g>
	</g>
	<g>
		<g>
			<rect x="236.7" y="115.3" class="st3" width="15.9" height="1"/>
		</g>
		<g>
			<rect x="271.7" y="115.3" class="st3" width="15.9" height="1"/>
		</g>
		<g>
			<rect x="306.7" y="115.3" class="st3" width="15.9" height="1"/>
		</g>
		<g>
			<rect x="341.8" y="115.3" class="st3" width="15.9" height="1"/>
		</g>
		<g>
			<rect x="376.8" y="115.3" class="st3" width="15.9" height="1"/>
		</g>
		<g>
			<g>
				<rect x="536.1" y="115.3" class="st3" width="8.4" height="1"/>
			</g>
			<g>
				<rect x="536.1" y="119" class="st3" width="8.4" height="1"/>
			</g>
			<g>
				<rect x="536.1" y="122.7" class="st3" width="8.4" height="1"/>
			</g>
		</g>
	</g>
</g>
<g>
	
		<rect x="129.6" y="392.9" transform="matrix(-1 -1.224647e-16 1.224647e-16 -1 789.0306 790.5715)" class="st1" width="529.9" height="4.8"/>
	<path class="st1" d="M659.4,398.2H129.6c-0.3,0-0.6-0.2-0.6-0.5v-4.8c0-0.3,0.3-0.5,0.6-0.5h529.9c0.3,0,0.6,0.2,0.6,0.5v4.8
		C660,398,659.8,398.2,659.4,398.2z M130.2,397.2h528.7v-3.8H130.2V397.2z"/>
</g>
</svg>
