<?xml version="1.0" encoding="utf-8"?>
<!-- Generator: Adobe Illustrator 24.3.0, SVG Export Plug-In . SVG Version: 6.00 Build 0)  -->
<svg version="1.1" id="Floor" xmlns="http://www.w3.org/2000/svg" xmlns:xlink="http://www.w3.org/1999/xlink" x="0px" y="0px"
	 viewBox="0 0 643.7 304.6" style="enable-background:new 0 0 643.7 304.6;" xml:space="preserve">
<style type="text/css">
	.st0{fill:#CECECE;}
	.st1{fill:#C0FFFD;}
	.st2{fill:#222222;}
	.st3{fill:#CECECE;stroke:#263238;stroke-width:0.75;stroke-miterlimit:10;}
	.st4{fill:#407BFF;}
	.st5{fill:#FFFFFF;stroke:#222222;stroke-miterlimit:10;}
	.st6{fill:#3C7CFF;stroke:#000000;stroke-miterlimit:10;}
	.st7{fill:#FFFFFF;}
	.st8{fill:#3C7CFF;}
	.st9{fill:#C0FFFD;stroke:#222222;stroke-miterlimit:10;}
	.st10{fill:#263238;}
	.st11{opacity:0.5;fill:#FFFFFF;enable-background:new    ;}
	.st12{opacity:0.3;}
	.st13{fill:#FFFFFF;stroke:#000000;stroke-miterlimit:10;}
	.st14{fill:#CECECE;stroke:#222222;stroke-miterlimit:10;}
</style>
<g>
	<g>
		<g>
			<g>
				<g>
					<g>
						<g>
							<path class="st0" d="M545,231.2c0,0-4.1-115.8-41.2-156.9c0,0,30.3,72.2,33,158.3L545,231.2z"/>
						</g>
					</g>
					<g>
						<g>
							<g>
								<path class="st1" d="M552.7,193.4c0.1,0.2-1.1,1.4,3.1,1.6c10.4,0.5,28.7-0.2,35.6-9.6c9.9-13.4-12.8-12.3-10.6-19.7
									s26.5-1.3,31.3-11.9s-12.9-8.6-12.1-14c0.8-5.4,19.4,1.7,25.5-9.5c6.2-11.2-10.1-5.3-7.4-9.9c2.6-4.6,23.3-24,15-28.3
									s-27.7,15.8-34.1,18c-6.4,2.1-7.8-17.7-16.2-11.1s-3,36.6-12.8,40.3c-7.3,2.7-3.3-8-12.3-7.6
									C545.5,132.3,541.3,174.3,552.7,193.4z"/>
							</g>
						</g>
						<g>
							<g>
								<g>
									<g>
										<g>
											<g>
												<path class="st2" d="M544.9,229.9C544.9,229.9,544.8,229.9,544.9,229.9c-0.3,0-0.5-0.3-0.5-0.5
													c8.7-69.5,48.8-97.6,49.2-97.9c0.2-0.2,0.5-0.1,0.7,0.1c0.2,0.2,0.1,0.5-0.1,0.7c-0.4,0.3-40.2,28.2-48.8,97.2
													C545.3,229.7,545.1,229.9,544.9,229.9z"/>
											</g>
											<g>
												<path class="st2" d="M600,140.9L600,140.9c-9.6-2-15.4-0.2-15.5-0.2c-0.3,0.1-0.5-0.1-0.6-0.3c-0.1-0.3,0.1-0.5,0.3-0.6
													s6.2-1.9,15.9,0.2c0.3,0.1,0.4,0.3,0.4,0.6C600.5,140.8,600.3,140.9,600,140.9z"/>
											</g>
											<g>
												<path class="st2" d="M576.9,149.2c-0.3,0-0.5-0.2-0.5-0.5c-0.1-21,12.1-37.3,12.2-37.5c0.2-0.2,0.5-0.3,0.7-0.1
													s0.3,0.5,0.1,0.7c-0.1,0.2-12.1,16.3-12,36.9C577.4,149,577.2,149.2,576.9,149.2L576.9,149.2z"/>
											</g>
											<g>
												<path class="st2" d="M564.9,167c-0.1,0-0.3-0.1-0.4-0.2c-0.2-0.2-0.2-0.5,0-0.7c0.1-0.1,9-8.3,20.7-4.1
													c0.3,0.1,0.4,0.4,0.3,0.6c-0.1,0.3-0.4,0.4-0.6,0.3c-11.1-4-19.7,3.8-19.8,3.9C565.2,166.9,565.1,167,564.9,167z"/>
											</g>
											<g>
												<path class="st2" d="M558.7,179.4c-0.2,0-0.4-0.1-0.4-0.3c0-0.1-4.6-11-2.1-26c0-0.3,0.3-0.4,0.6-0.4s0.4,0.3,0.4,0.6
													c-2.4,14.7,2,25.4,2,25.5c0.1,0.2,0,0.5-0.3,0.6C558.8,179.4,558.7,179.4,558.7,179.4z"/>
											</g>
										</g>
									</g>
								</g>
							</g>
						</g>
					</g>
					<g>
						<g>
							<path class="st0" d="M538,229.4c0,0,4.7-133.1,47.4-180.4c0,0-34.9,83-38,181.9L538,229.4z"/>
						</g>
						<g>
							<g>
								<path class="st1" d="M547.5,232.7c0,0,7.5-142.7-32.7-200.3c0,0,29.1,96,23.1,200L547.5,232.7z"/>
							</g>
						</g>
					</g>
					<g>
						<g>
							<g>
								<path class="st1" d="M536.6,199.1c-8.5,0.2-23.1-7.8-28.8-15.5c-5.8-7.8,10.5-3,8.8-9.1s-21.8-1.6-25.5-10.4
									s10.8-6.8,10.2-11.3s-15.6-3.6-20.4-12.9c-4.8-9.3,8.4-4.1,6.3-8s-18.7-20.2-11.7-23.6c6.9-3.4,22.5,13.6,27.7,15.5
									s6.4-9.8,13.2-4.2c6.8,5.6,1.7,30.1,9.7,33.3c5.9,2.4,3.4-8.8,10.3-6C548.3,152,540,199,536.6,199.1z"/>
							</g>
						</g>
						<g>
							<g>
								<path class="st2" d="M540.4,231.2c-0.3,0-0.5-0.2-0.5-0.5c-2.4-61.4-44.4-103.3-44.8-103.7c-0.2-0.2-0.2-0.5,0-0.7
									s0.5-0.2,0.7,0c0.4,0.4,42.7,42.5,45.1,104.3C540.9,230.9,540.7,231.1,540.4,231.2L540.4,231.2z"/>
							</g>
							<g>
								<path class="st2" d="M512.3,150C512.3,150,512.2,150,512.3,150c-0.1,0-0.2,0-0.3-0.1l-0.2-0.1c-5.5-2.3-11.7-3.5-17.4-3.4
									c-0.3,0-0.5-0.2-0.5-0.5s0.2-0.5,0.5-0.5c5.8-0.1,12.1,1.1,17.8,3.5l0.2,0.1h0.1c0.2,0.1,0.3,0.3,0.3,0.5
									C512.7,149.9,512.5,150,512.3,150z"/>
							</g>
							<g>
								<path class="st2" d="M518.2,158L518.2,158c-0.3,0-0.5-0.3-0.5-0.5c1.7-18.2-7.7-33.1-7.8-33.3s-0.1-0.5,0.1-0.7
									c0.2-0.1,0.5-0.1,0.7,0.1c0.1,0.2,9.6,15.4,7.9,33.9C518.7,157.8,518.4,158,518.2,158z"/>
							</g>
							<g>
								<path class="st2" d="M524.3,168.5c-0.1,0-0.3,0-0.3-0.1c-0.1-0.1-6.9-6.9-17.1-4.2c-0.3,0.1-0.5-0.1-0.6-0.3
									c-0.1-0.3,0.1-0.5,0.3-0.6c10.7-2.8,17.9,4.4,18,4.5c0.2,0.2,0.2,0.5,0,0.7C524.5,168.4,524.4,168.5,524.3,168.5z"/>
							</g>
							<g>
								<path class="st2" d="M532,185.8c-0.1,0-0.2,0-0.2-0.1c-0.2-0.1-0.3-0.4-0.2-0.7c0-0.1,4.7-9.2,3.7-22.3
									c0-0.3,0.2-0.5,0.4-0.5c0.3,0,0.5,0.2,0.5,0.4c1,13.4-3.8,22.7-3.8,22.8C532.4,185.7,532.2,185.8,532,185.8z"/>
							</g>
						</g>
					</g>
				</g>
				<g>
					<path class="st3" d="M509.7,256.8c0,17.2,14.9,31.1,33.3,31.1c18.4,0,33.3-13.9,33.3-31.1c0-9.7-10.6-18.3-19.8-24.1h-27
						C520.3,238.4,509.7,247.1,509.7,256.8z"/>
				</g>
				<g>
					<path class="st1" d="M522.9,258.7h-5.8c-0.4,0-0.6-0.3-0.6-0.6s0.3-0.6,0.6-0.6h5.8c0.4,0,0.6,0.3,0.6,0.6
						S523.3,258.7,522.9,258.7z"/>
				</g>
				<g>
					<path class="st1" d="M569.5,258.7h-40.2c-0.4,0-0.6-0.3-0.6-0.6s0.3-0.6,0.6-0.6h40.2c0.4,0,0.6,0.3,0.6,0.6
						S569.8,258.7,569.5,258.7z"/>
				</g>
			</g>
		</g>
	</g>
	<g>
		<g>
			<rect x="7.5" y="288.3" class="st2" width="629" height="3.1"/>
		</g>
	</g>
	<path class="st4" d="M465.6,288.6h-86c-10.3,0-18.6-8.3-18.6-18.6V55c0-10.3,8.3-18.6,18.6-18.6h86c10.3,0,18.6,8.3,18.6,18.6v215
		C484.3,280.3,475.9,288.6,465.6,288.6z"/>
	<path class="st5" d="M460.6,36.4h-75.8c-13.1,0-23.7,10.6-23.7,23.7V265c0,13.1,10.6,23.7,23.7,23.7h75.8
		c13.1,0,23.7-10.6,23.7-23.7V60.1C484.3,47,473.6,36.4,460.6,36.4z"/>
	<path class="st6" d="M484.3,48.7v50H361v-50c0-6.8,5.5-12.4,12.4-12.4h98.5C478.7,36.4,484.3,41.9,484.3,48.7z"/>
	<g>
		<path class="st7" d="M395.9,63.3c0,2.5-1.8,4-4.8,4h-2.5v3.2h-2.1V59.3h4.6C394.1,59.3,395.9,60.8,395.9,63.3z M393.8,63.3
			c0-1.4-0.9-2.2-2.8-2.2h-2.4v4.4h2.4C392.9,65.5,393.8,64.7,393.8,63.3z"/>
		<path class="st7" d="M402.6,61.9v1.9c-0.2,0-0.3,0-0.5,0c-1.5,0-2.5,0.9-2.5,2.6v4.1h-2V62h1.9v1.2
			C400.2,62.3,401.2,61.9,402.6,61.9z"/>
		<path class="st7" d="M412.3,66.9h-6.7c0.2,1.2,1.3,2,2.8,2c1,0,1.7-0.3,2.3-0.9l1.1,1.2c-0.8,0.9-2,1.4-3.4,1.4
			c-2.9,0-4.7-1.8-4.7-4.4c0-2.5,1.9-4.4,4.4-4.4s4.3,1.7,4.3,4.4C412.3,66.4,412.3,66.7,412.3,66.9z M405.5,65.6h4.8
			c-0.2-1.2-1.1-2.1-2.4-2.1C406.7,63.5,405.7,64.3,405.5,65.6z"/>
		<path class="st7" d="M428.5,65.6v4.9h-2v-4.6c0-1.5-0.7-2.3-1.9-2.3c-1.3,0-2.2,0.9-2.2,2.6v4.3h-2v-4.6c0-1.5-0.7-2.3-1.9-2.3
			c-1.3,0-2.2,0.9-2.2,2.6v4.3h-2V62h1.9v1.1c0.6-0.8,1.6-1.2,2.8-1.2c1.2,0,2.3,0.5,2.9,1.4c0.7-0.9,1.8-1.4,3.2-1.4
			C427.1,61.9,428.5,63,428.5,65.6z"/>
		<path class="st7" d="M430.8,59.4c0-0.7,0.5-1.2,1.3-1.2c0.7,0,1.3,0.5,1.3,1.2s-0.5,1.2-1.3,1.2C431.3,60.6,430.8,60,430.8,59.4z
			 M431.1,62h2v8.5h-2V62z"/>
		<path class="st7" d="M444,62v8.5h-1.9v-1.1c-0.6,0.8-1.6,1.2-2.8,1.2c-2.2,0-3.7-1.2-3.7-3.8V62h2v4.6c0,1.6,0.7,2.3,2,2.3
			c1.4,0,2.3-0.9,2.3-2.6V62H444z"/>
		<path class="st7" d="M460.9,65.6v4.9h-2v-4.6c0-1.5-0.7-2.3-1.9-2.3c-1.3,0-2.2,0.9-2.2,2.6v4.3h-2v-4.6c0-1.5-0.7-2.3-1.9-2.3
			c-1.3,0-2.2,0.9-2.2,2.6v4.3h-2V62h1.9v1.1c0.6-0.8,1.6-1.2,2.8-1.2c1.2,0,2.3,0.5,2.9,1.4c0.7-0.9,1.8-1.4,3.2-1.4
			C459.4,61.9,460.9,63,460.9,65.6z"/>
	</g>
	<g>
		<path class="st8" d="M451.2,275.2h-57.1c-5.4,0-9.8-4.4-9.8-9.8v-6.6c0-5.4,4.4-9.8,9.8-9.8h57.1c5.4,0,9.8,4.4,9.8,9.8v6.6
			C461,270.8,456.6,275.2,451.2,275.2z"/>
		<g>
			<g>
				<path class="st7" d="M402.7,264.1c0,2.4-1.9,4-4.9,4.2l-0.4,2h-1.8l0.4-2c-1.7-0.2-3.2-0.7-4.1-1.4l1.2-2.2
					c1,0.7,2.2,1.2,3.4,1.3l0.6-3c-1.7-0.5-3.5-1.2-3.5-3.3c0-2.4,2-4,5-4.2l0.4-2h1.8l-0.4,2c1.3,0.1,2.4,0.5,3.3,1l-1.1,2.2
					c-0.8-0.5-1.7-0.8-2.7-0.9l-0.6,3.2C401,261.4,402.7,262,402.7,264.1z M397.6,260.4l0.5-2.6c-1,0.2-1.6,0.8-1.6,1.4
					S396.9,260.1,397.6,260.4z M399.8,264.6c0-0.5-0.4-0.8-1-1.1l-0.5,2.5C399.3,265.7,399.8,265.2,399.8,264.6z"/>
			</g>
		</g>
	</g>
	<g>
		<rect x="389.5" y="195.1" class="st2" width="63.6" height="2.6"/>
	</g>
	<g>
		<rect x="389.5" y="152.9" class="st2" width="63.6" height="2.6"/>
	</g>
	<g>
		<rect x="389.5" y="112.2" class="st2" width="63.6" height="2.6"/>
	</g>
	<g>
		<ellipse class="st4" cx="420.8" cy="133.7" rx="11.1" ry="11.1"/>
		<g>
			<polygon class="st7" points="428.7,131.3 422.4,137.7 419.4,140.6 416.4,137.7 419.4,134.7 425.8,128.3 			"/>
			<polygon class="st7" points="422.4,137.7 419.4,140.6 413.1,134.3 416.1,131.4 419.4,134.7 			"/>
		</g>
	</g>
	<g>
		<circle class="st4" cx="420.8" cy="174.5" r="11.1"/>
		<g>
			<polygon class="st7" points="428.7,172.1 422.4,178.5 419.4,181.5 416.4,178.5 419.4,175.5 425.8,169.2 			"/>
			<polygon class="st7" points="422.4,178.5 419.4,181.5 413.1,175.2 416.1,172.2 419.4,175.5 			"/>
		</g>
	</g>
	<g>
		<circle class="st4" cx="420.8" cy="218.3" r="11.1"/>
		<g>
			<polygon class="st7" points="428.7,215.9 422.4,222.3 419.4,225.3 416.4,222.3 419.4,219.3 425.8,213 			"/>
			<polygon class="st7" points="422.4,222.3 419.4,225.3 413.1,219 416.1,216 419.4,219.3 			"/>
		</g>
	</g>
	<g>
		<polygon class="st7" points="406.3,81 408.4,84.4 412.2,85.3 409.6,88.3 409.9,92.2 406.3,90.7 402.7,92.2 403,88.3 400.4,85.3 
			404.2,84.4 		"/>
		<polygon class="st7" points="420.8,81 422.9,84.4 426.7,85.3 424.2,88.3 424.4,92.2 420.8,90.7 417.2,92.2 417.5,88.3 414.9,85.3 
			418.7,84.4 		"/>
		<polygon class="st7" points="435.3,81 437.4,84.4 441.2,85.3 438.7,88.3 438.9,92.2 435.3,90.7 431.7,92.2 432,88.3 429.5,85.3 
			433.2,84.4 		"/>
	</g>
	<path class="st4" d="M320.9,274.3h-86c-10.3,0-18.6-8.3-18.6-18.6v-215c0-10.3,8.3-18.6,18.6-18.6h86c10.3,0,18.6,8.3,18.6,18.6
		v215C339.5,265.9,331.1,274.3,320.9,274.3z"/>
	<path class="st9" d="M314.7,22H241c-13.7,0-24.8,11.1-24.8,24.8v202.7c0,13.7,11.1,24.8,24.8,24.8h73.7c13.7,0,24.8-11.1,24.8-24.8
		V46.8C339.5,33.1,328.4,22,314.7,22z"/>
	<path class="st6" d="M339.5,34.4v50H216.3v-50c0-6.8,5.5-12.4,12.4-12.4h98.5C333.9,22,339.5,27.5,339.5,34.4z"/>
	<g>
		<path class="st7" d="M241.7,55l0.7-1.6c0.9,0.7,2.3,1.2,3.7,1.2c1.7,0,2.5-0.6,2.5-1.5c0-2.4-6.7-0.8-6.7-5c0-1.8,1.4-3.3,4.5-3.3
			c1.3,0,2.8,0.4,3.7,1l-0.7,1.6c-1-0.6-2.1-0.9-3.1-0.9c-1.7,0-2.4,0.7-2.4,1.5c0,2.4,6.6,0.8,6.6,4.9c0,1.8-1.5,3.3-4.5,3.3
			C244.3,56.3,242.6,55.8,241.7,55z"/>
		<path class="st7" d="M257.6,55.7c-0.5,0.4-1.2,0.6-1.9,0.6c-1.9,0-2.9-1-2.9-2.9v-4.1h-1.4v-1.6h1.4v-2h2v2h2.3v1.6h-2.3v4.1
			c0,0.8,0.4,1.3,1.2,1.3c0.4,0,0.8-0.1,1.1-0.4L257.6,55.7z"/>
		<path class="st7" d="M266.4,51.1v5h-1.9v-1c-0.5,0.7-1.4,1.2-2.7,1.2c-2,0-3.2-1.1-3.2-2.6c0-1.4,1-2.5,3.6-2.5h2.2V51
			c0-1.2-0.7-1.9-2.1-1.9c-1,0-2,0.3-2.6,0.8l-0.8-1.5c0.9-0.7,2.2-1.1,3.6-1.1C265,47.5,266.4,48.7,266.4,51.1z M264.4,53.5v-1
			h-2.1c-1.4,0-1.7,0.5-1.7,1.1c0,0.7,0.6,1.2,1.6,1.2C263.2,54.8,264.1,54.4,264.4,53.5z"/>
		<path class="st7" d="M277.4,51.3v4.9h-2v-4.6c0-1.5-0.8-2.3-2-2.3c-1.4,0-2.4,0.9-2.4,2.6v4.3h-2v-8.5h1.9v1.1
			c0.7-0.8,1.7-1.2,2.9-1.2C275.9,47.5,277.4,48.7,277.4,51.3z"/>
		<path class="st7" d="M288.4,44.3v11.9h-1.9v-1.1c-0.7,0.8-1.7,1.2-2.8,1.2c-2.5,0-4.3-1.7-4.3-4.4s1.8-4.4,4.3-4.4
			c1.1,0,2.1,0.4,2.8,1.2v-4.4C286.5,44.3,288.4,44.3,288.4,44.3z M286.4,51.9c0-1.6-1.1-2.7-2.5-2.7s-2.5,1-2.5,2.7
			c0,1.6,1.1,2.7,2.5,2.7C285.3,54.6,286.4,53.5,286.4,51.9z"/>
		<path class="st7" d="M298.2,51.1v5h-1.9v-1c-0.5,0.7-1.4,1.2-2.7,1.2c-2,0-3.2-1.1-3.2-2.6c0-1.4,1-2.5,3.6-2.5h2.2V51
			c0-1.2-0.7-1.9-2.1-1.9c-1,0-2,0.3-2.6,0.8l-0.8-1.5c0.9-0.7,2.2-1.1,3.6-1.1C296.8,47.5,298.2,48.7,298.2,51.1z M296.2,53.5v-1
			h-2.1c-1.4,0-1.7,0.5-1.7,1.1c0,0.7,0.6,1.2,1.6,1.2S295.8,54.4,296.2,53.5z"/>
		<path class="st7" d="M305.7,47.5v1.9c-0.2,0-0.3,0-0.5,0c-1.5,0-2.5,0.9-2.5,2.6v4.1h-2v-8.5h1.9v1.2
			C303.2,48,304.3,47.5,305.7,47.5z"/>
		<path class="st7" d="M315.7,44.3v11.9h-1.9v-1.1c-0.7,0.8-1.7,1.2-2.8,1.2c-2.5,0-4.3-1.7-4.3-4.4s1.8-4.4,4.3-4.4
			c1.1,0,2.1,0.4,2.8,1.2v-4.4C313.8,44.3,315.7,44.3,315.7,44.3z M313.7,51.9c0-1.6-1.1-2.7-2.5-2.7s-2.5,1-2.5,2.7
			c0,1.6,1.1,2.7,2.5,2.7C312.6,54.6,313.7,53.5,313.7,51.9z"/>
	</g>
	<g>
		<path class="st8" d="M307.5,260.9h-57.1c-5.4,0-9.8-4.4-9.8-9.8v-6.6c0-5.4,4.4-9.8,9.8-9.8h57.1c5.4,0,9.8,4.4,9.8,9.8v6.6
			C317.3,256.5,312.9,260.9,307.5,260.9z"/>
	</g>
	<g>
		<rect x="245.8" y="180.8" class="st2" width="63.6" height="2.6"/>
	</g>
	<g>
		<rect x="245.8" y="138.5" class="st2" width="63.6" height="2.6"/>
	</g>
	<g>
		<rect x="245.8" y="97.8" class="st2" width="63.6" height="2.6"/>
	</g>
	<g>
		<ellipse class="st4" cx="276.7" cy="160.3" rx="11.1" ry="11.1"/>
		<g>
			<polygon class="st7" points="284.5,157.8 278.2,164.1 275.2,167.1 272.2,164.1 275.2,161.2 281.6,154.8 			"/>
			<polygon class="st7" points="278.2,164.1 275.2,167.1 268.9,160.8 271.9,157.9 275.2,161.2 			"/>
		</g>
	</g>
	<g>
		<ellipse class="st4" cx="277.7" cy="204" rx="11.1" ry="11.1"/>
		<g>
			<polygon class="st7" points="285.5,201.6 279.1,207.9 276.2,210.9 273.2,207.9 276.2,205 282.5,198.6 			"/>
			<polygon class="st7" points="279.1,207.9 276.2,210.9 269.9,204.6 272.8,201.6 276.2,205 			"/>
		</g>
	</g>
	<g>
		<g>
			<circle class="st10" cx="276.6" cy="119.5" r="10.9"/>
			<circle class="st11" cx="276.6" cy="119.5" r="10.9"/>
		</g>
		<g>
			
				<rect x="270.1" y="117.4" transform="matrix(0.7071 -0.7071 0.7071 0.7071 -3.4296 230.6732)" class="st7" width="13.3" height="4.2"/>
			
				<rect x="274.6" y="112.8" transform="matrix(0.7071 -0.7071 0.7071 0.7071 -3.4138 230.6391)" class="st7" width="4.2" height="13.3"/>
		</g>
	</g>
	<g>
		<g>
			<g>
				<polygon class="st4" points="327.2,35.8 327.2,65.2 333.4,59 333.4,35.8 				"/>
				<g>
					<polygon class="st4" points="339.6,35.8 339.6,65.2 333.4,59 333.4,35.8 					"/>
				</g>
			</g>
			<g class="st12">
				<polygon points="339.6,35.8 339.6,65.2 333.4,59 327.2,65.2 327.2,35.8 				"/>
			</g>
			<g>
				<path class="st4" d="M336.4,6.5L336.4,6.5c0.9,1.7,2.9,2.3,4.6,1.5l0,0c2.5-1.2,5.4,0.9,5,3.6l0,0c-0.3,1.9,1,3.6,2.9,3.9l0,0
					c2.8,0.5,3.9,3.9,1.9,5.9l0,0c-1.3,1.4-1.3,3.5,0,4.9l0,0c2,2,0.9,5.4-1.9,5.9l0,0c-1.9,0.3-3.1,2.1-2.9,3.9l0,0
					c0.4,2.8-2.5,4.9-5,3.6l0,0c-1.7-0.8-3.7-0.2-4.6,1.5l0,0c-1.3,2.5-4.9,2.5-6.2,0l0,0c-0.9-1.7-2.9-2.3-4.6-1.5l0,0
					c-2.5,1.2-5.4-0.9-5-3.6l0,0c0.3-1.9-1-3.6-2.9-3.9l0,0c-2.8-0.5-3.9-3.9-1.9-5.9l0,0c1.3-1.4,1.3-3.5,0-4.9l0,0
					c-2-2-0.9-5.4,1.9-5.9l0,0c1.9-0.3,3.1-2.1,2.9-3.9l0,0c-0.4-2.8,2.5-4.9,5-3.6l0,0c1.7,0.8,3.7,0.2,4.6-1.5l0,0
					C331.5,4,335.1,4,336.4,6.5z"/>
				<path class="st13" d="M336.4,6.5L336.4,6.5c0.9,1.7,2.9,2.3,4.6,1.5l0,0c2.5-1.2,5.4,0.9,5,3.6l0,0c-0.3,1.9,1,3.6,2.9,3.9l0,0
					c2.8,0.5,3.9,3.9,1.9,5.9l0,0c-1.3,1.4-1.3,3.5,0,4.9l0,0c2,2,0.9,5.4-1.9,5.9l0,0c-1.9,0.3-3.1,2.1-2.9,3.9l0,0
					c0.4,2.8-2.5,4.9-5,3.6l0,0c-1.7-0.8-3.7-0.2-4.6,1.5l0,0c-1.3,2.5-4.9,2.5-6.2,0l0,0c-0.9-1.7-2.9-2.3-4.6-1.5l0,0
					c-2.5,1.2-5.4-0.9-5-3.6l0,0c0.3-1.9-1-3.6-2.9-3.9l0,0c-2.8-0.5-3.9-3.9-1.9-5.9l0,0c1.3-1.4,1.3-3.5,0-4.9l0,0
					c-2-2-0.9-5.4,1.9-5.9l0,0c1.9-0.3,3.1-2.1,2.9-3.9l0,0c-0.4-2.8,2.5-4.9,5-3.6l0,0c1.7,0.8,3.7,0.2,4.6-1.5l0,0
					C331.5,4,335.1,4,336.4,6.5z"/>
			</g>
		</g>
		<g>
			<g>
				<path class="st4" d="M327.7,20.2h-1.6c-0.8,0-1.4,0.6-1.4,1.4l-0.4,7.4c0,0.8,0.5,1.4,1.3,1.4h1.6c0.8,0,1.4-0.6,1.4-1.4
					l0.4-7.4C329.1,20.9,328.5,20.2,327.7,20.2z"/>
				<path class="st4" d="M340.5,20.2h-3.7l1-2.4c0.1-0.3,0.2-0.6,0.1-0.8l-0.2-1.9c-0.1-0.8-0.7-1.4-1.5-1.4h-1.9l0,0
					c-0.1,1.9-0.8,3.8-2,5.3l-1.1,1.4c-0.3,0.4-0.5,0.8-0.5,1.3l-0.4,6.9c0,0.9,0.7,1.7,1.6,1.7h6.5c0.6,0,1.1-0.3,1.5-0.7l0.6-0.7
					c0.2-0.3,0.4-0.6,0.5-0.9l1.2-5.5c0.1-0.5,0-1.1-0.3-1.5l0,0C341.6,20.5,341,20.2,340.5,20.2z"/>
			</g>
		</g>
	</g>
	<g>
		<polygon class="st7" points="276.6,65.2 278.7,68.5 282.5,69.5 280,72.5 280.3,76.4 276.6,74.9 273,76.4 273.3,72.5 270.8,69.5 
			274.6,68.5 		"/>
	</g>
	<g>
		<g>
			<path class="st7" d="M259.4,249.8c0,2.4-1.9,4-4.9,4.2l-0.4,2h-1.8l0.4-2c-1.7-0.2-3.2-0.7-4.1-1.4l1.2-2.2
				c1,0.7,2.2,1.2,3.4,1.3l0.6-3c-1.7-0.5-3.5-1.2-3.5-3.3c0-2.4,2-4,5-4.2l0.4-2h1.8l-0.4,2c1.3,0.1,2.4,0.5,3.3,1l-1.1,2.2
				c-0.8-0.5-1.7-0.8-2.7-0.9l-0.6,3.2C257.6,247.1,259.4,247.7,259.4,249.8z M254.3,246.1l0.5-2.6c-1,0.2-1.6,0.8-1.6,1.4
				C253.2,245.5,253.6,245.8,254.3,246.1z M256.5,250.2c0-0.5-0.4-0.8-1-1.1l-0.5,2.5C255.9,251.4,256.5,250.9,256.5,250.2z"/>
		</g>
	</g>
	<g>
		<g>
			<g>
				<path class="st10" d="M173.6,288.6h-86c-10.3,0-18.6-8.3-18.6-18.6V55c0-10.3,8.3-18.6,18.6-18.6h86c10.3,0,18.6,8.3,18.6,18.6
					v215C192.2,280.3,183.9,288.6,173.6,288.6z"/>
			</g>
			<path class="st14" d="M167.8,36.4H93.3C79.9,36.4,69,47.3,69,60.7v203.6c0,13.4,10.9,24.3,24.3,24.3h74.5
				c13.4,0,24.3-10.9,24.3-24.3V60.7C192.2,47.3,181.3,36.4,167.8,36.4z"/>
			<path class="st4" d="M192.2,48.7v50H69v-50c0-6.8,5.5-12.4,12.4-12.4h98.5C186.6,36.4,192.2,41.9,192.2,48.7z"/>
			<path class="st6" d="M192.2,48.7v50H69v-50c0-6.8,5.5-12.4,12.4-12.4h98.5C186.6,36.4,192.2,41.9,192.2,48.7z"/>
			<g>
				<path class="st7" d="M120.5,67.5c0,1.9-1.5,3-4.4,3h-5.6V59.3h5.2c2.7,0,4.1,1.1,4.1,2.9c0,1.2-0.6,2-1.4,2.5
					C119.6,65.1,120.5,66,120.5,67.5z M112.6,60.9V64h2.9c1.4,0,2.3-0.5,2.3-1.5s-0.8-1.6-2.3-1.6H112.6z M118.4,67.3
					c0-1.1-0.8-1.6-2.4-1.6h-3.4v3.2h3.4C117.5,68.9,118.4,68.4,118.4,67.3z"/>
				<path class="st7" d="M129.6,65.5v5h-1.9v-1c-0.5,0.7-1.4,1.2-2.7,1.2c-2,0-3.2-1.1-3.2-2.6c0-1.4,1-2.5,3.6-2.5h2.2v-0.1
					c0-1.2-0.7-1.9-2.1-1.9c-1,0-2,0.3-2.6,0.8l-0.8-1.5c0.9-0.7,2.2-1.1,3.6-1.1C128.2,61.9,129.6,63,129.6,65.5z M127.6,67.8v-1
					h-2.1c-1.4,0-1.7,0.5-1.7,1.1c0,0.7,0.6,1.2,1.6,1.2C126.5,69.2,127.3,68.7,127.6,67.8z"/>
				<path class="st7" d="M131.2,69.7l0.8-1.5c0.8,0.5,1.9,0.8,3,0.8c1.3,0,1.8-0.4,1.8-0.9c0-1.6-5.3-0.1-5.3-3.5
					c0-1.6,1.5-2.7,3.8-2.7c1.1,0,2.4,0.3,3.2,0.7l-0.8,1.5c-0.8-0.5-1.6-0.6-2.4-0.6c-1.2,0-1.8,0.4-1.8,1c0,1.7,5.3,0.2,5.3,3.5
					c0,1.6-1.5,2.6-3.9,2.6C133.4,70.6,132,70.2,131.2,69.7z"/>
				<path class="st7" d="M140.2,59.4c0-0.7,0.5-1.2,1.3-1.2c0.7,0,1.3,0.5,1.3,1.2s-0.5,1.2-1.3,1.2C140.7,60.6,140.2,60,140.2,59.4
					z M140.4,62h2v8.5h-2V62z"/>
				<path class="st7" d="M144.4,66.2c0-2.6,1.9-4.4,4.6-4.4c1.7,0,3,0.7,3.6,2l-1.5,0.9c-0.5-0.8-1.3-1.2-2.1-1.2
					c-1.5,0-2.6,1-2.6,2.7s1.1,2.7,2.6,2.7c0.8,0,1.6-0.4,2.1-1.2l1.5,0.9c-0.7,1.3-2,2-3.6,2C146.3,70.6,144.4,68.8,144.4,66.2z"/>
			</g>
			<g>
				<g>
					<ellipse class="st10" cx="128.7" cy="176.9" rx="10.9" ry="10.9"/>
					<ellipse class="st11" cx="128.7" cy="176.9" rx="10.9" ry="10.9"/>
				</g>
				<g>
					
						<rect x="122.2" y="174.8" transform="matrix(0.7071 -0.7071 0.7071 0.7071 -87.3409 142.9086)" class="st7" width="13.3" height="4.2"/>
					
						<rect x="126.7" y="170.2" transform="matrix(0.7071 -0.7071 0.7071 0.7071 -87.3301 142.8867)" class="st7" width="4.2" height="13.3"/>
				</g>
			</g>
			<g>
				<circle class="st4" cx="129.3" cy="217.3" r="11.1"/>
				<g>
					<polygon class="st7" points="137.2,214.9 130.8,221.3 127.8,224.3 124.9,221.3 127.8,218.3 134.2,211.9 					"/>
					<polygon class="st7" points="130.8,221.3 127.8,224.3 121.5,217.9 124.5,215 127.8,218.3 					"/>
				</g>
			</g>
			<g>
				<path class="st8" d="M159.1,275.2H102c-5.4,0-9.8-4.4-9.8-9.8v-6.6c0-5.4,4.4-9.8,9.8-9.8h57.1c5.4,0,9.8,4.4,9.8,9.8v6.6
					C169,270.8,164.6,275.2,159.1,275.2z"/>
				<g>
					<g>
						<path class="st7" d="M108.8,264.6c0,2.4-1.9,4-4.9,4.2l-0.4,2h-1.8l0.4-2c-1.7-0.2-3.2-0.7-4.1-1.4l1.2-2.2
							c1,0.7,2.2,1.2,3.4,1.3l0.6-3c-1.7-0.5-3.5-1.2-3.5-3.3c0-2.4,2-4,5-4.2l0.4-2h1.8l-0.4,2c1.3,0.1,2.4,0.5,3.3,1l-1.1,2.2
							c-0.8-0.5-1.7-0.8-2.7-0.9l-0.6,3.2C107.1,261.8,108.8,262.5,108.8,264.6z M103.7,260.9l0.5-2.6c-1,0.2-1.6,0.8-1.6,1.4
							S103,260.6,103.7,260.9z M105.9,265c0-0.5-0.4-0.8-1-1.1l-0.5,2.5C105.4,266.2,105.9,265.7,105.9,265z"/>
					</g>
				</g>
			</g>
			<g>
				<rect x="97.5" y="195.1" class="st2" width="63.6" height="2.6"/>
			</g>
			<g>
				<rect x="97.5" y="152.9" class="st2" width="63.6" height="2.6"/>
			</g>
			<g>
				<rect x="97.5" y="112.2" class="st2" width="63.6" height="2.6"/>
			</g>
			<g>
				<g>
					<ellipse class="st10" cx="128.7" cy="133.9" rx="10.9" ry="10.9"/>
					<ellipse class="st11" cx="128.7" cy="133.9" rx="10.9" ry="10.9"/>
				</g>
				<g>
					
						<rect x="122.1" y="131.7" transform="matrix(0.7071 -0.7071 0.7071 0.7071 -56.924 130.2276)" class="st7" width="13.3" height="4.2"/>
					
						<rect x="126.7" y="127.2" transform="matrix(0.7071 -0.7071 0.7071 0.7071 -56.9113 130.266)" class="st7" width="4.2" height="13.3"/>
				</g>
			</g>
		</g>
	</g>
</g>
</svg>
