<?xml version="1.0" encoding="utf-8"?>
<!-- Generator: Adobe Illustrator 24.3.0, SVG Export Plug-In . SVG Version: 6.00 Build 0)  -->
<svg version="1.1" id="Layer_1" xmlns="http://www.w3.org/2000/svg" xmlns:xlink="http://www.w3.org/1999/xlink" x="0px" y="0px"
	 viewBox="0 0 33 48.4" style="enable-background:new 0 0 33 48.4;" xml:space="preserve">
<style type="text/css">
	.st0{fill:#00B0FB;}
	.st1{fill:#222222;}
	.st2{opacity:0.4;fill:#00B0FB;}
	.st3{fill:#FFFFFF;}
	.st4{opacity:0.4;}
	.st5{fill:none;}
</style>
<g>
	<g>
		<path class="st0" d="M8.1,42.7c0.6,0,1.1,0.2,1.6,0.4c0.5,0.2,0.9,0.5,1.3,0.8c0,0,0.1,0,0.1,0c0.5,0,1,0.1,1.5,0.2c0,0,0,0,0.1,0
			c0.1,0,0.1,0.1,0.2,0.1c0-0.3,0-0.5,0.1-0.7c-2.1-0.4-4.2-1.4-6.2-2.9c-3.2-2.4-4.8-5.7-4.6-9.8C2.3,28.8,3,26.9,4,25.1
			c1.7-2.9,3.8-5.5,6-8.1c0.5-0.6,1-1.2,1.6-1.8c0,0,0.4-0.3,0.5-0.4c-0.1-0.1-0.5,0-0.6-0.2c-0.2,0-0.4,0-0.6,0
			c-0.3,0-0.6,0-0.9-0.1c0,0,0.1,0.1,0.1,0.1c-0.2,0.2-0.4,0.5-0.6,0.7c-2.5,2.8-4.8,5.6-6.7,8.9c-1.2,2.1-1.9,4.3-2,6.7
			c-0.1,4.3,1.6,7.8,4.9,10.5c0.5,0.4,0.9,0.7,1.4,1.1C7.4,42.6,7.8,42.6,8.1,42.7z"/>
	</g>
	<g>
		<path class="st1" d="M24.6,40.4c-0.9,0.7-1.8,1.3-2.8,1.7c-5.5,2.2-10.9,1.9-15.7-1.7c-3.2-2.4-4.8-5.6-4.6-9.7
			c0.1-2,0.8-3.9,1.8-5.6c1.7-2.9,3.8-5.5,6-8c0.5-0.6,1-1.2,1.6-1.7c0.1-0.1,0.4-0.2,0.5-0.2c2.6,0,5.2,0,7.9,0
			c0.2,0,0.4,0.1,0.5,0.2c1.5,1.7,2.9,3.4,4.4,5.1c0.1-0.6,0.3-1.2,0.5-1.8c-1.1-1.3-2.2-2.6-3.3-3.9c1.2-0.7,1.8-1.7,1.6-3.1
			c-0.2-1.5-1.2-2.2-2.7-2.5c0.1-0.1,0.2-0.2,0.3-0.4c0.7-0.7,1.4-1.3,2-2c1-1.1,1-2.6,0.2-3.7c-0.8-1.1-2.4-1.5-3.7-0.8
			c-0.6,0.3-0.7,0.3-1-0.4c-0.4-1.2-1.5-2-2.8-2c-1.3,0-2.4,0.8-2.8,2c-0.2,0.7-0.3,0.7-1,0.4c-2-1-4.3,0.4-4.2,2.7
			c0,0.8,0.3,1.5,0.9,2.1c0.7,0.7,1.4,1.4,2.2,2.2C9,9.6,8,10.3,7.7,11.7C7.4,13,7.9,14,9.3,14.9c-0.2,0.2-0.4,0.5-0.6,0.7
			c-2.5,2.7-4.8,5.6-6.7,8.7c-1.2,2-1.9,4.2-2,6.6c-0.1,4.3,1.6,7.7,4.9,10.4c2.7,2.2,5.8,3.3,9.3,3.5c3,0.2,6-0.3,8.7-1.7
			c0.9-0.5,1.8-1.1,2.7-1.7C25.2,41.2,24.9,40.8,24.6,40.4z M9.2,6.2C8.7,5.6,8.6,4.8,9,4.2c0.5-0.6,1.2-0.8,2-0.4
			c1.3,0.7,2.4,0.2,2.8-1.2c0.2-0.7,0.8-1.2,1.4-1.2c0.7,0,1.2,0.4,1.4,1.1c0.4,1.4,1.6,1.9,2.9,1.2c0.7-0.4,1.5-0.2,1.9,0.4
			c0.5,0.6,0.4,1.4-0.2,2c-1,1-2.1,2.1-3.1,3.1c-0.1,0.1-0.3,0.2-0.5,0.2c-0.8,0-1.7,0-2.5,0c-0.8,0-1.6,0-2.4,0
			c-0.2,0-0.4-0.1-0.6-0.2C11.2,8.2,10.2,7.2,9.2,6.2z M9.1,12.2c0-0.8,0.7-1.4,1.6-1.4c1.6,0,3.1,0,4.7,0v0c1.6,0,3.2,0,4.8,0
			c0.7,0,1.2,0.5,1.4,1.1c0.1,0.6-0.1,1.2-0.7,1.5c-0.2,0.1-0.5,0.2-0.8,0.2c-3.1,0-6.2,0-9.3,0C9.7,13.7,9.1,13.1,9.1,12.2z"/>
	</g>
	<g class="st4">
		<path class="st0" d="M15.3,10.8c1.6,0,3.2,0,4.8,0c0.7,0,1.2,0.5,1.4,1.1c0.1,0.6-0.1,1.2-0.7,1.5c-0.2,0.1-0.5,0.2-0.8,0.2
			c-3.1,0-6.2,0-9.3,0c-0.9,0-1.6-0.6-1.6-1.4c0-0.8,0.7-1.4,1.6-1.4C12.2,10.8,13.8,10.8,15.3,10.8C15.3,10.8,15.3,10.8,15.3,10.8z
			"/>
	</g>
	<g>
		<path class="st1" d="M24.6,40.3c3.2-2.4,4.8-5.4,4.6-9.4c-0.1-2-0.8-3.9-1.8-5.6c-1.7-2.9-3.9-5.4-6-8c-0.2-0.3-0.4-0.4-0.6-0.7
			l2,0c2.2,2.5,4.2,5,5.9,7.9c1.2,2,1.9,4.2,2,6.6c0.1,4.3-1.8,7.6-5,10.3C23,43.6,20,44.9,16.6,45c-1.4,0.1-2.9-0.2-4.3-0.4
			l0.1-1.4C16.6,44.2,20.8,43.2,24.6,40.3z"/>
	</g>
	<g>
		<circle class="st0" cx="22.9" cy="38.3" r="9.4"/>
		<path class="st1" d="M22.9,48.4c-5.6,0-10.1-4.5-10.1-10.1c0-5.6,4.5-10.1,10.1-10.1c5.6,0,10.1,4.5,10.1,10.1
			C33,43.9,28.5,48.4,22.9,48.4z M22.9,29.7c-4.7,0-8.6,3.9-8.6,8.6s3.9,8.6,8.6,8.6s8.6-3.9,8.6-8.6S27.7,29.7,22.9,29.7z"/>
	</g>
	<g>
		<path class="st1" d="M22.3,43.5c-0.5-0.2-1-0.3-1.4-0.5c-0.8-0.4-1.3-1-1.5-1.8c-0.1-0.4,0-0.7,0.3-0.8c0.3-0.1,0.6,0.1,0.7,0.5
			c0.4,1.1,1.5,1.7,2.8,1.5c0.4-0.1,0.8-0.2,1.2-0.4c1-0.5,1.1-1.7,0.2-2.3c-0.4-0.3-1-0.4-1.5-0.6c-0.5-0.2-1-0.2-1.5-0.4
			c-1.3-0.4-2-1.3-2-2.6c0-1.2,0.8-2.2,2.1-2.6c0.2-0.1,0.4-0.1,0.6-0.2c0-0.2,0-0.5,0-0.7c0-0.3,0.2-0.6,0.5-0.6
			c0.3,0,0.6,0.2,0.6,0.6c0,0.2,0,0.5,0,0.8c0.2,0.1,0.4,0.1,0.6,0.2c0.9,0.3,1.6,0.9,2,1.8c0.2,0.4,0.1,0.7-0.2,0.9
			c-0.3,0.2-0.6,0-0.8-0.4c-0.7-1.5-2.4-1.6-3.4-1c-0.5,0.3-0.8,0.8-0.8,1.4c0,0.6,0.4,1,0.9,1.2c0.6,0.2,1.3,0.4,1.9,0.5
			c0.8,0.2,1.6,0.5,2.2,1.2c1,1.2,0.8,2.9-0.5,3.7c-0.5,0.3-1,0.5-1.5,0.6c-0.3,0.1-0.3,0.2-0.3,0.4c0,0.2,0,0.3,0,0.5
			c0,0.3-0.3,0.5-0.6,0.5c-0.3,0-0.5-0.2-0.5-0.6c0-0.1,0-0.2,0-0.4C22.3,43.7,22.3,43.6,22.3,43.5z"/>
	</g>
</g>
</svg>
