<?xml version="1.0" encoding="utf-8"?>
<!-- Generator: Adobe Illustrator 24.3.0, SVG Export Plug-In . SVG Version: 6.00 Build 0)  -->
<svg version="1.1" id="Layer_1" xmlns="http://www.w3.org/2000/svg" xmlns:xlink="http://www.w3.org/1999/xlink" x="0px" y="0px"
	 viewBox="0 0 371.3 371.6" style="enable-background:new 0 0 371.3 371.6;" xml:space="preserve">
<style type="text/css">
	.st0{fill:#00B0FB;}
	.st1{fill:#FFFFFF;}
	.st2{opacity:0.4;fill:#00B0FB;}
</style>
<g>
	<g>
		<path class="st0" d="M42.9,221.1c-1.9,0-3.7,0.5-5.6,0.5c-6.7,0-8.6-2.3-8.6-9.1c0-50.3,0-100.6,0-150.9c0-6.6,2-8.6,8.6-8.6
			c4.9,0,9.7,0,14.6,0c1.7-5.2,3.9-10.2,7-14.7c-7.4,0-14.9,0-22.3,0c-14,0-22.6,8.6-22.6,22.6c0,50.8,0,101.5,0,152.3
			c0,13.9,8.6,22.5,22.7,22.5c0.1,0,0.2,0,0.3,0C37.6,230.5,39.8,225.5,42.9,221.1z"/>
	</g>
	<g>
		<path class="st1" d="M285.6,147.8c19.5,0,38.4-0.1,57.2,0.1c3.6,0,7.6,0.9,10.7,2.5c6.6,3.5,9.3,9.6,9.3,17c0,21.2,0,42.4,0,63.7
			c0,21.5,0,42.9,0,64.4c0,13.9-7.4,21.2-21.3,21.2c-15.8,0-31.7-0.1-47.5,0.1c-2,0-4.4,0.9-5.9,2.2c-16.3,13-32.5,26.2-48.7,39.4
			c-0.7,0.6-1.5,1.1-2.7,2c-3.1-14.7-6.1-28.9-9.2-43.6c-1.4,0-2.7,0-4.1,0c-21.3,0-42.7,0-64,0c-9.7,0-16.9-5.3-19.1-14
			c-0.5-2-0.6-4.2-0.6-6.3c-0.1-8.4,0-16.9,0-26.2c-10.4,7.3-20.3,14.2-31,21.7c0.6-9.8,1.1-19,1.7-28.1c0.6-9.1,1.2-18.2,1.9-27.9
			c-1.5,0-2.9,0-4.2,0c-25.7,0-51.4,0-77,0c-14,0-22.7-8.6-22.7-22.5c0-50.8,0-101.5,0-152.3c0-14,8.6-22.6,22.6-22.6
			c77.4,0,154.8,0,232.2,0c14.1,0,22.5,8.5,22.5,22.6c0,27.4,0,54.9,0,82.3C285.6,144.7,285.6,146.1,285.6,147.8z M125.4,262.1
			c1.7-1.2,2.8-1.9,3.8-2.6c17.3-12.1,34.5-24.3,51.8-36.3c1.7-1.2,4-1.9,6.1-1.9c25.2-0.1,50.4-0.1,75.6-0.1c6.4,0,8.1-1.7,8.1-8.1
			c0-50.5,0-101.1,0-151.6c0-6.5-1.8-8.3-8.4-8.3c-76.9,0-153.8,0-230.8,0c-6.6,0-8.6,2-8.6,8.6c0,50.3,0,100.6,0,150.9
			c0,6.8,1.8,8.6,8.5,8.6c30.6,0,61.2,0,91.8,0c1.4,0,2.8,0,4.5,0C127.1,234.8,126.3,248.1,125.4,262.1z M285.6,162.8
			c0,1.7,0,3,0,4.2c0,15.6,0,31.2,0,46.8c0,13.6-8.6,22.1-22.2,22.1c-23.9,0-47.8,0-71.8,0.1c-1.9,0-4.1,0.7-5.7,1.8
			c-9.6,6.5-19,13.3-28.6,19.9c-2,1.4-2.9,2.9-2.9,5.4c0.1,10.8,0.1,21.6,0.1,32.4c0,5.6,0.8,6.4,6.6,6.4c24.7,0,49.5,0,74.2,0
			c1.4,0,2.8,0,4.3,0c2.3,10.7,4.4,21,6.7,31.7c1.5-1.1,2.6-2,3.7-2.8c11-8.9,22-18,33.1-26.8c1.6-1.2,3.9-2,6-2.1
			c17.8-0.2,35.7-0.1,53.5-0.1c4.5,0,5.7-1.1,5.7-5.6c0-42.8,0-85.6,0-128.4c0-4.3-1.1-5.3-5.5-5.3c-17.8,0-35.7,0-53.5,0
			C288.1,162.6,287.1,162.7,285.6,162.8z"/>
		<path class="st1" d="M314.2,98.4c-4.8,0-9.5,0-14.6,0c0-1.3,0-2.6,0-3.8c0-12.1,0-24.1,0-36.2c0-19.4-12.8-32.2-32.1-32.2
			c-17.7,0-35.4,0-53.1,0c-1.3,0-2.5,0-4.1,0c0-5,0-9.7,0-14.8c1.3,0,2.4,0,3.6,0c18.1,0,36.1,0,54.2,0
			c26.7,0.1,46.3,19.7,46.3,46.5c0,12.3,0,24.6,0,36.9C314.4,95.9,314.3,97,314.2,98.4z"/>
		<path class="st1" d="M109.8,299.2c5.5,0,10.1,0,15,0c0.2,1.5,0.3,3,0.6,4.4c2.7,14.8,14.4,24.5,30.1,24.8c4.8,0.1,9.6,0,14.6,0
			c0,4.9,0,9.6,0,14.2c-24.6,2.9-47.9-2.5-57.8-31C110.9,307.8,110.6,303.6,109.8,299.2z"/>
		<path class="st1" d="M175.7,25.8c0-4.8,0-9.4,0-14.2c6.7,0,13.4,0,20.3,0c0,4.7,0,9.3,0,14.2C189.2,25.8,182.5,25.8,175.7,25.8z"
			/>
		<path class="st1" d="M192.8,328.7c0,4.8,0,9.5,0,14.3c-4.3,0-8.5,0-12.8,0c0-4.8,0-9.5,0-14.3
			C184.3,328.7,188.4,328.7,192.8,328.7z"/>
		<path class="st0" d="M285.6,162.8c1.5-0.1,2.5-0.2,3.5-0.2c17.8,0,35.7,0,53.5,0c4.4,0,5.5,1.1,5.5,5.3c0,42.8,0,85.6,0,128.4
			c0,4.4-1.2,5.6-5.7,5.6c-17.8,0-35.7-0.1-53.5,0.1c-2,0-4.4,0.8-6,2.1c-11.1,8.8-22.1,17.8-33.1,26.8c-1.1,0.9-2.2,1.7-3.7,2.8
			c-2.3-10.7-4.5-21.1-6.7-31.7c-1.5,0-2.9,0-4.3,0c-24.7,0-49.5,0-74.2,0c-5.8,0-6.6-0.8-6.6-6.4c0-10.8,0.1-21.6-0.1-32.4
			c0-2.5,0.8-4,2.9-5.4c9.6-6.6,19-13.4,28.6-19.9c1.6-1.1,3.8-1.8,5.7-1.8c23.9-0.1,47.8-0.1,71.8-0.1c13.7,0,22.2-8.5,22.2-22.1
			c0-15.6,0-31.2,0-46.8C285.6,165.7,285.6,164.5,285.6,162.8z M219.6,256.7c5.4,0,10.5,0,15.7,0c0-4.9,0-9.6,0-14.3
			c-5.4,0-10.5,0-15.7,0C219.6,247.2,219.6,251.8,219.6,256.7z M252.9,242.3c0,4.9,0,9.6,0,14.4c5.3,0,10.4,0,15.5,0
			c0-5,0-9.7,0-14.4C263.1,242.3,258.1,242.3,252.9,242.3z M301.5,256.8c0-5.1,0-9.8,0-14.5c-5.3,0-10.3,0-15.4,0
			c0,4.9,0,9.6,0,14.5C291.3,256.8,296.3,256.8,301.5,256.8z"/>
		<path class="st2" d="M231.8,105.6c-56.6,0-112.9,0-169.5,0c0-4.8,0-9.4,0-14.3c56.6,0,113,0,169.5,0
			C231.8,96.2,231.8,100.9,231.8,105.6z"/>
		<path class="st2" d="M62.3,142.8c0-4.7,0-9.5,0-14.3c56.6,0,112.9,0,169.5,0c0,4.8,0,9.4,0,14.3C175.4,142.8,119,142.8,62.3,142.8
			z"/>
		<path class="st2" d="M62.3,180.1c0-5,0-9.6,0-14.4c35.9,0,71.6,0,107.6,0c0,4.7,0,9.4,0,14.4C134.2,180.1,98.4,180.1,62.3,180.1z"
			/>
		<path class="st1" d="M219.6,256.7c0-4.9,0-9.5,0-14.3c5.2,0,10.3,0,15.7,0c0,4.6,0,9.4,0,14.3C230.1,256.7,225,256.7,219.6,256.7z
			"/>
		<path class="st1" d="M252.9,242.3c5.2,0,10.2,0,15.5,0c0,4.7,0,9.4,0,14.4c-5,0-10.1,0-15.5,0
			C252.9,251.9,252.9,247.2,252.9,242.3z"/>
		<path class="st1" d="M301.5,256.8c-5.2,0-10.2,0-15.4,0c0-4.8,0-9.6,0-14.5c5.1,0,10.1,0,15.4,0
			C301.5,247,301.5,251.7,301.5,256.8z"/>
	</g>
</g>
</svg>
