<?xml version="1.0" encoding="utf-8"?>
<!-- Generator: Adobe Illustrator 24.3.0, SVG Export Plug-In . SVG Version: 6.00 Build 0)  -->
<svg version="1.1" id="Layer_1" xmlns="http://www.w3.org/2000/svg" xmlns:xlink="http://www.w3.org/1999/xlink" x="0px" y="0px"
	 viewBox="0 0 371.3 371.6" style="enable-background:new 0 0 371.3 371.6;" xml:space="preserve">
<style type="text/css">
	.st0{fill:#00B0FB;}
	.st1{fill:#FFFFFF;}
	.st2{opacity:0.4;fill:#00B0FB;}
</style>
<g>
	<path class="st0" d="M38.3,323.8c2.8,0.4,5.5,0.9,8.2,1.4c2.4-3.6-3.6-3-0.7-6.4l3.8-4.1V59.1h8.7c-0.3-2-0.5-4-0.8-6
		c-6.6-0.5-13.1-1.3-19.5-2.5c0,2.3-0.1,4.5-0.1,6.8c0,84-0.1,168,0,251.9C38.1,314.1,38.2,319,38.3,323.8z"/>
	<path class="st1" d="M338,185.8c0,49,0,98,0,147c0,14.5-8.7,25.5-22.3,28.3c-1.6,0.3-3.3,0.5-4.9,0.5c-83.2,0-166.3,0.1-249.5,0
		c-13.8,0-24.5-9.5-27-23c-0.1-0.8-0.2-1.6-0.3-2.5c-0.2-9-0.7-17.9-0.7-26.9c-0.1-84,0-168,0-251.9c0-7.4,0.3-14.8,0.7-22.3
		C34.8,21.9,46.3,10.7,59.4,10c1.5-0.1,3.1-0.1,4.6-0.1c81.3,0,162.5,0,243.8,0c6.4,0,12.5,0.9,17.8,4.7c8.4,5.8,12.3,14,12.3,24.2
		c0,44.6,0,89.3,0,133.9C338,177,338,181.4,338,185.8z M45,314.7c93.9,0,187.5,0,281.2,0c0-85.4,0-170.5,0-255.5
		c-93.8,0-187.4,0-281.2,0C45,144.4,45,229.4,45,314.7z M326.8,47.6c0-4,0.4-7.8-0.1-11.5c-0.4-2.8-1.4-5.8-2.9-8.2
		c-3.6-5.6-9.2-7.2-15.7-7.1c-81.5,0-162.9,0-244.4,0c-0.9,0-1.9,0-2.8,0c-6.7,0.5-11.7,3.6-14.5,9.7c-2.5,5.5-1.4,11.2-1.5,17
		C139.1,47.6,232.7,47.6,326.8,47.6z M326.6,326.3c-94.1,0-187.8,0-281.9,0c0.2,3.8,0,7.3,0.5,10.8c1.2,8.2,8.1,13.7,17.2,13.7
		c82.3,0,164.6,0,247,0c1.6,0,3.3-0.2,4.9-0.6c6.6-1.8,11-6.1,12.2-12.9C327.1,333.8,326.6,330.1,326.6,326.3z"/>
	<path class="st0" d="M326.8,47.6c-94.1,0-187.7,0-281.8,0c0.1-5.8-1.1-11.6,1.5-17c2.8-6.1,7.8-9.2,14.5-9.7c0.9-0.1,1.9,0,2.8,0
		c81.5,0,162.9,0,244.4,0c6.4,0,12.1,1.6,15.7,7.1c1.5,2.4,2.5,5.3,2.9,8.2C327.2,39.8,326.8,43.6,326.8,47.6z M114.9,27.6
		C114.9,27.6,114.9,27.6,114.9,27.6c-1.8-0.1-3.5-0.1-5.3-0.1c-0.2,0-0.5,0-0.7,0c-3,0.3-5.1,2.5-5.1,5.3c0,2.8,2,5.3,5,5.4
		c4,0.2,8,0.2,12,0c2.9-0.1,5-2.6,4.9-5.5c-0.1-3-1.7-4.9-4.7-5.2C118.9,27.5,116.9,27.6,114.9,27.6z M85,38.4c2,0,4,0.1,6,0
		c2.9-0.2,5.1-2.6,4.9-5.5c-0.2-2.9-1.7-5-4.7-5.2c-4.1-0.2-8.3-0.2-12.4,0c-3,0.2-4.6,2.2-4.7,5.2c-0.1,2.9,1.9,5.2,4.9,5.5
		C81,38.5,83,38.4,85,38.4z M144.7,38.4C144.7,38.4,144.7,38.4,144.7,38.4c1.8,0,3.5,0.1,5.3,0c3.2-0.2,5.3-2.4,5.3-5.4
		c0-3-1.9-5.2-5-5.3c-3.8-0.2-7.5-0.2-11.3,0c-3,0.1-5,2.6-5,5.4c0,2.8,2.1,5.1,5.1,5.4C140.9,38.5,142.8,38.4,144.7,38.4z"/>
	<path class="st0" d="M326.6,326.3c0,3.8,0.5,7.5-0.1,11c-1.2,6.7-5.5,11.1-12.2,12.9c-1.6,0.4-3.3,0.6-4.9,0.6
		c-82.3,0-164.6,0-247,0c-9.1,0-16-5.5-17.2-13.7c-0.5-3.5-0.4-7-0.5-10.8C138.9,326.3,232.6,326.3,326.6,326.3z M185.5,343.6
		C185.5,343.6,185.5,343.7,185.5,343.6c2.4,0,4.7,0,7.1,0c0.2,0,0.5,0,0.7,0c3.4-0.4,5.6-2.8,5.5-5.8c-0.1-2.9-2.4-5.1-5.6-5.2
		c-4.9-0.1-9.9-0.1-14.9,0c-3.4,0.1-5.8,2.4-5.8,5.4c-0.1,3,2.2,5.4,5.7,5.6C180.6,343.8,183.1,343.6,185.5,343.6z"/>
	<g>
		<path class="st1" d="M176.6,180.5c11.1,0,21.1,3.4,30.1,9.9c3.8,2.7,4.7,5.7,2.6,8.6c-2,2.8-5.3,2.9-9,0.3
			c-23.5-16.5-55.2-5.2-61.4,21.9c-5.2,22.5,9.4,44.5,31.7,47.8c23.2,3.5,43.2-12.6,45.3-36.5c0.1-0.6,0-1.2,0.1-1.8
			c0.3-3.8,2.4-5.9,5.7-5.7c3.1,0.2,5.1,2.4,5.1,6c0,10.5-3.1,20-9.2,28.5c-13.4,18.5-36.7,25.6-57.9,17.9
			c-20.8-7.5-34-27.9-32.7-50.4C128.4,201.2,150.5,180.4,176.6,180.5z"/>
		<path class="st2" d="M167.2,165c-27.6,0-55.3,0-82.9,0c-1.2,0-2.4,0.1-3.5-0.1c-2.9-0.6-4.5-2.5-4.4-5.5c0.1-2.8,1.6-4.6,4.4-5.1
			c1.2-0.2,2.4-0.2,3.5-0.2c55.3,0,110.5,0,165.8,0c1.2,0,2.4,0,3.5,0.2c2.8,0.5,4.4,2.3,4.4,5.1c0.1,3-1.5,4.9-4.4,5.5
			c-1.1,0.2-2.4,0.1-3.5,0.1C222.5,165,194.8,165,167.2,165z"/>
		<path class="st2" d="M234.9,99.1c19.2,0,38.5,0,57.7,0c1.2,0,2.4-0.1,3.5,0.2c2.7,0.7,4.3,2.4,4.3,5.3c0,2.8-1.5,4.7-4.3,5.3
			c-1.1,0.3-2.3,0.2-3.5,0.2c-38.6,0-77.2,0-115.8,0c-1.1,0-2.1,0-3.2-0.2c-2.8-0.5-4.4-2.3-4.4-5.1c-0.1-3.1,1.6-4.9,4.4-5.5
			c1.1-0.3,2.3-0.1,3.5-0.1C196.5,99.1,215.7,99.1,234.9,99.1z"/>
		<path class="st1" d="M186.9,234.6c0.7-1.1,1.3-2.3,2.2-3.2c14.7-14.8,29.5-29.5,44.3-44.3c0.8-0.8,1.6-1.8,2.6-2.3
			c2.4-1.4,4.8-1.3,6.8,0.7c2,2,2.2,4.4,0.7,6.8c-0.6,0.9-1.4,1.6-2.1,2.4c-16.6,16.6-33.2,33.2-49.8,49.8
			c-4.2,4.2-6.6,4.2-10.7,0.2c-6.3-6.2-12.7-12.3-19-18.5c-3-3-3.4-6.3-1.1-8.7c2.3-2.4,5.8-2.2,8.7,0.8
			c5.2,5.5,10.2,11.1,15.4,16.6C185.5,234.7,186.2,234.7,186.9,234.6z"/>
		<path class="st2" d="M244.4,126.6c16.5,0,33.1,0,49.6,0c4.1,0,6.5,2.1,6.4,5.4c-0.1,3-1.7,4.9-4.6,5.3c-1.2,0.2-2.4,0.1-3.5,0.1
			c-31.9,0-63.7,0-95.6,0c-1.2,0-2.4,0.1-3.5-0.1c-3-0.5-4.6-2.3-4.6-5.3c0-3,1.7-4.9,4.6-5.4c1.4-0.2,2.8-0.1,4.2-0.1
			C213,126.6,228.7,126.6,244.4,126.6z"/>
		<path class="st2" d="M126.8,137.5c-14.2,0-28.3,0-42.5,0c-1.2,0-2.4,0.1-3.5-0.1c-2.8-0.5-4.3-2.3-4.4-5.2c-0.1-3,1.5-4.9,4.5-5.5
			c0.9-0.2,1.9-0.1,2.8-0.1c28.9,0,57.8,0,86.8,0c0.8,0,1.7,0,2.5,0.1c3,0.3,5,2.6,5,5.4c0,2.9-2,5.1-5,5.3c-2.5,0.2-5,0.1-7.4,0.1
			C152.5,137.5,139.7,137.5,126.8,137.5z"/>
		<path class="st2" d="M117.9,99.1c11.7,0,23.4,0,35,0c3.9,0,6.4,2.4,6.4,5.6c-0.1,3.1-2.5,5.2-6.2,5.4c-0.9,0-1.9,0-2.8,0
			c-16.5,0-33,0-49.5,0c-5.7,0-11.3,0-17,0c-4.9,0-7.4-1.9-7.3-5.6c0.1-3.5,2.5-5.4,7.2-5.4C95,99.1,106.4,99.1,117.9,99.1z"/>
		<path class="st2" d="M283.2,165c-3.8,0-7.5,0.1-11.3,0c-3.6-0.1-6.1-2.4-6-5.6c0.1-3,2.4-5.2,5.9-5.3c7.6-0.1,15.3-0.1,23,0
			c3.5,0,5.7,2.2,5.7,5.4c0,3.2-2.3,5.4-6,5.5C290.7,165.1,286.9,165,283.2,165z"/>
	</g>
	<path class="st1" d="M114.9,27.6c2,0,4-0.2,6,0c3,0.3,4.6,2.2,4.7,5.2c0.1,2.9-1.9,5.3-4.9,5.5c-4,0.2-8,0.2-12,0
		c-2.9-0.1-5-2.6-5-5.4c0-2.9,2.1-5,5.1-5.3c0.2,0,0.5,0,0.7,0C111.3,27.5,113.1,27.5,114.9,27.6C114.9,27.6,114.9,27.6,114.9,27.6z
		"/>
	<path class="st1" d="M85,38.4c-2,0-4,0.1-6,0c-2.9-0.2-5-2.6-4.9-5.5c0.1-3,1.7-5,4.7-5.2c4.1-0.2,8.3-0.2,12.4,0
		c3,0.2,4.6,2.3,4.7,5.2c0.2,2.8-2,5.2-4.9,5.5C89,38.5,87,38.4,85,38.4z"/>
	<path class="st1" d="M144.7,38.4c-1.9,0-3.8,0.1-5.7,0c-2.9-0.2-5.1-2.6-5.1-5.4c0-2.8,2.1-5.2,5-5.4c3.8-0.2,7.5-0.2,11.3,0
		c3.1,0.2,5,2.4,5,5.3c0,3-2.1,5.2-5.3,5.4C148.2,38.5,146.4,38.4,144.7,38.4C144.7,38.4,144.7,38.4,144.7,38.4z"/>
	<path class="st1" d="M185.5,343.6c-2.5,0-5,0.1-7.4,0c-3.5-0.2-5.7-2.6-5.7-5.6c0.1-3,2.4-5.3,5.8-5.4c4.9-0.1,9.9-0.1,14.9,0
		c3.2,0.1,5.5,2.3,5.6,5.2c0.2,3-2.1,5.4-5.5,5.8c-0.2,0-0.5,0-0.7,0C190.3,343.7,187.9,343.7,185.5,343.6
		C185.5,343.7,185.5,343.6,185.5,343.6z"/>
</g>
</svg>
