<?xml version="1.0" encoding="utf-8"?>
<!-- Generator: Adobe Illustrator 24.3.0, SVG Export Plug-In . SVG Version: 6.00 Build 0)  -->
<svg version="1.1" id="Layer_1" xmlns="http://www.w3.org/2000/svg" xmlns:xlink="http://www.w3.org/1999/xlink" x="0px" y="0px"
	 viewBox="0 0 371.3 371.6" style="enable-background:new 0 0 371.3 371.6;" xml:space="preserve">
<style type="text/css">
	.st0{fill:#00B0FB;}
	.st1{fill:#FFFFFF;}
	.st2{opacity:0.4;fill:#00B0FB;}
</style>
<g>
	<g>
		<path class="st0" d="M97.7,298.3c-0.1,0.4-0.2,0.7-0.3,1.1c-21.5-30-27.9-88.3,10.9-131.7c25.6-28.6,62.7-40.8,98.2-35.7
			c4.7-2.4,8.4,0.1,13.3-1.7c-9.6-2.5-18-5.9-28.4-5.9c-65.7-0.2-120,50.7-120.3,116.6c-0.1,30.4,11,58,29.5,79.1
			C99.7,312.9,98.7,305.6,97.7,298.3z"/>
	</g>
	<g>
		<path class="st1" d="M185.5,121.8c-65.7-0.2-119.4,53.3-119.6,119.3c-0.2,66.2,52.9,119.5,119.2,119.8
			c66,0.2,119.6-53.1,119.7-119.3C305,175.9,251.3,122,185.5,121.8z M269.8,311.2c-0.1,0.9-0.8,1.8-1.5,2.6
			c-17.8,20.1-39.9,32.7-66.6,36.5c-37.3,5.3-69-6.1-95.9-32.3c-5.1-5-5.8-10.3-4.7-16.4c1.4-8.1,5.6-14.9,13.3-17.7
			c15.1-5.7,30.5-10.3,46-15.5c9.3,19.4,39.5,19,48.7,2.3c0.5-0.9,2.5-1.6,3.5-1.3c13.8,4.3,27.8,8.5,41.4,13.5
			C266.8,287.5,270.8,299.1,269.8,311.2z M213.7,175.7c3,4.1,4.6,8.7,4.4,14.6c-8.3-6.9-16.8-1.2-25.2-1.6
			c-8.8-0.4-17.6-0.7-26.4-1.5c-4.5-0.4-8.8-0.7-13.2,1.5c0.5-1.3,1-2.5,1.4-3.8c1.4-3.9,2.9-7.7,4.1-11.6
			c1.6-5.6,7.2-9.9,14.9-10.4c5.1-0.3,10.4,0,15.5,0.4c8,0.7,16,1.7,23.7,2.6c-0.6,1.3-2.2,3.2-2.1,4.9
			C210.7,172.5,212.5,174.1,213.7,175.7z M158.1,200.4c0-3.9,1.8-5,6.2-4.2c10.4,1.9,20.8,2.6,31.3,1.5c3.9-0.4,7.7-1.1,11.6-1.6
			c3.8-0.5,5.2,0.7,5.2,4.5c0.1,4.4,0,8.9,0,13.3h-0.2c0,4.9,0.6,9.9-0.1,14.8c-1.9,13.9-14.2,24.1-27.7,23.5
			c-14.3-0.7-25.4-11.4-26.2-26C157.7,217.6,158,209,158.1,200.4z M197.7,270c-7,5-14.5,5.3-22.2,1.7c-5.8-2.7-7.9-7.5-6.6-14.4
			c10.8,5,21.6,5.1,32.2,0.2C202.8,263.1,201.8,267.1,197.7,270z M271.7,285.1c-3.9-5.7-9.5-9.3-16.1-11.5c-13.3-4.3-26.7-8.6-40-13
			c-1.6-0.5-4.3-1.4-4.3-2.3c-0.2-3-0.6-7,1-9c6.6-8.2,9.7-17.3,9.3-27.7c-0.1-2.3,0.1-4.6-0.1-6.8c-0.3-4.3,1-8,2.8-11.9
			c5-10.8,3.6-21.4-2.6-31.8c2.8-2,5.9-3.8,8.3-6.3c1.4-1.4,2.8-4.1,2.4-5.6c-0.5-1.5-3.2-2.8-5.2-3.2c-2.8-0.5-5.8-0.2-8.7-0.1
			c-10.1,0.1-20.1-0.5-30.2-1.9c-7.3-1-15.2-0.4-22.5,1.3c-9.4,2.1-15,8.8-16.5,18.7c-0.2,1.4-0.8,2.9-1.6,4.2
			c-4.4,7.3-4.8,14.8-1.5,22.5c2,4.8,2.9,9.6,2.7,14.7c-0.2,4.3,0,8.6,0.3,12.9c0.5,7.3,3.1,13.9,8,19.3c3,3.3,2.1,6.8,2,10.3
			c0,0.7-1.6,1.7-2.6,2c-12.2,4-24.4,8.3-36.8,11.9c-14.4,4.1-24.2,12.5-27.7,27.6c-21.5-30-27.9-88.3,10.9-131.7
			c39.4-44.1,106.6-49.4,152.2-11.7c46.7,38.6,50.6,102.1,23.8,142.9C276.7,294.3,274.6,289.4,271.7,285.1z"/>
		<path class="st1" d="M356,131.3c-4.8-6.2-9.7-12.3-14.3-18.6c-0.8-1.1-1.2-3.3-0.7-4.6c2.5-7.5,5.5-14.9,7.9-22.5
			c0.6-1.8,0.5-4.9-0.7-6.1c-1.2-1.1-4.2-1.2-6.1-0.6c-7.4,2.4-14.8,5.1-22.1,7.9c-2,0.8-3.4,0.6-5.1-0.8c-6.2-5-12.4-9.9-18.9-14.6
			c-1.5-1.1-4.4-2-5.6-1.3c-1.5,0.9-2.6,3.6-2.6,5.5c-0.1,7.8,0.3,15.7,0.7,23.5c0.1,2.5-0.7,3.9-2.8,5.2c-6.5,4.2-12.9,8.5-19.1,13
			c-1.6,1.2-3.3,3.7-3.1,5.3c0.2,1.6,2.7,3.5,4.5,4.1c7,2.4,14.2,4.4,21.4,6.2c2.8,0.7,4.4,2,5.2,5c1.8,7.2,3.9,14.4,6.2,21.4
			c0.7,2,2.6,4.4,4.3,4.8c1.4,0.3,4-1.6,5.2-3.2c2.8-3.4,5.1-7.2,7.6-10.9c2.4-3.5,4.2-8.5,7.5-10.2c3.5-1.7,8.6-0.3,13-0.2h1.5v0.3
			c3.9,0,7.8,0.3,11.7-0.1c2-0.2,4.5-0.9,5.8-2.4C359.4,135.5,357.5,133.2,356,131.3z M331.3,130.3c-7.8-1.4-13,1.1-16.5,8.3
			c-1.8,3.7-4.6,6.9-7.4,10.9c-1.9-6.4-3.8-12.2-5.2-18c-0.9-3.4-2.7-5.1-6-6c-5.7-1.5-11.3-3.2-17.9-5.2c5.3-3.6,9.8-7,14.6-9.9
			c3.6-2.2,5-4.8,4.7-9c-0.3-5.6-0.1-11.3-0.1-17.4c5,3.9,9.9,7.5,14.5,11.3c2.4,2,4.7,2.4,7.7,1.3c5.6-2.2,11.3-4.1,17.9-6.5
			c-2.1,5.8-3.6,10.9-5.7,15.8c-2,4.5-1.5,8,1.9,11.6c3.6,3.9,6.6,8.3,10,12.8C339.4,130.4,335.2,131,331.3,130.3z"/>
		<path class="st1" d="M104.2,117.5c-5.7-4.2-11.5-8.2-17.6-11.9c-3.4-2.1-5.1-4.3-4.4-8.5c0.5-3.1,0.1-6.3,0.1-9.5H83
			c0-3.8-0.1-7.6,0-11.4c0-2.5,0.2-5.4-2.6-6c-1.8-0.4-4.5,0.3-6,1.5C68,76.2,61.9,81.1,55.8,86c-1.7,1.4-3.1,1.6-5.1,0.8
			c-7.1-2.7-14.2-5.2-21.4-7.8c-2.4-0.9-4.8-2-7.1,0.2c-2.3,2.2-1.3,4.6-0.4,7c2.6,7.1,5,14.3,7.8,21.4c0.8,2.2,0.6,3.7-0.9,5.5
			c-4.9,6.1-9.8,12.2-14.4,18.6c-1.1,1.6-1.8,4.4-1.1,6c0.6,1.3,3.5,2.3,5.3,2.3c7.8,0,15.7-0.3,23.5-0.7c2.3-0.1,3.7,0.5,4.9,2.5
			c4.3,6.6,8.6,13.1,13.2,19.4c1.2,1.6,3.7,3.3,5.3,3.1c1.6-0.3,3.5-2.7,4.1-4.6c2.4-7.3,4.5-14.7,6.5-22.2c0.6-2.3,1.7-3.6,4.1-4.2
			c7.6-2,15.1-4.1,22.5-6.6c1.8-0.6,4.1-2.6,4.5-4.3C107.5,121.1,105.7,118.6,104.2,117.5z M77.4,124.6c-6,1-8.9,4.2-10,10
			c-0.9,4.8-2.6,9.4-4.2,14.9c-3.7-5.5-7.2-10.3-10.3-15.2c-2-3.1-4.4-4.4-8.1-4.2c-5.8,0.3-11.6,0.1-17.9,0.1
			c2.9-3.7,5.6-7.8,8.9-11.3c4.3-4.5,5.1-9,2.3-14.6c-2.1-4.2-3.3-8.9-5.2-14.2c6.4,2.3,11.9,4.1,17.4,6.3c3.3,1.4,5.9,1,8.7-1.3
			c4.5-3.8,9.3-7.3,14.1-11c0,6.3,0.2,12.1-0.1,17.9c-0.2,3.5,0.8,6,3.9,7.9c5,3.1,9.8,6.6,15.4,10.4
			C86.9,121.9,82.3,123.8,77.4,124.6z"/>
		<path class="st1" d="M214.4,66.5c5.7-5,11.2-10.2,16.6-15.6c1.3-1.3,2.4-4,1.9-5.5c-0.5-1.5-3-3-4.8-3.3
			c-7.8-1.3-15.8-2.2-23.7-3.1c-2.2-0.2-3.3-1-4.2-3c-3.1-6.9-6.4-13.7-9.6-20.6c-1.1-2.3-2-4.8-5.1-4.9c-3.2-0.1-4.2,2.4-5.3,4.7
			c-3.3,7-6.4,14-9.9,20.9c-0.6,1.3-2.4,2.5-3.8,2.7c-7.9,1.2-15.8,1.9-23.6,3.2c-1.9,0.3-4.6,1.7-5,3.1c-0.5,1.7,0.7,4.4,2,5.8
			c5.2,5.3,10.6,10.5,16.3,15.3c2.6,2.2,3,4.4,2.4,7.5c-1.7,7.8-3.1,15.6-4.5,22.7c-0.2,5,3.1,7.2,7.1,5.1
			c7.1-3.8,14.2-7.6,21.2-11.7c2.3-1.3,4-1.2,6.2,0.1c6.8,3.9,13.6,7.7,20.6,11.3c1.6,0.8,4.4,1.1,5.5,0.3c1.3-1,2.1-3.7,1.8-5.5
			c-1.1-7.6-2.6-15.2-4.2-22.7C211.4,70.4,212.2,68.5,214.4,66.5z M204.7,63.2c-2.3,2.1-3.2,4.2-2.4,7.4c1.4,6,2.3,12.1,3.6,18.8
			c-5.9-3.2-11.2-6-16.5-9.1c-2.8-1.6-5.3-1.7-8.1-0.1c-5.2,3.1-10.6,5.9-16.6,9.2c1.2-6.4,2.1-12.1,3.4-17.8c0.9-3.8,0.1-6.5-2.8-9
			c-4.4-3.8-8.5-7.9-13.3-12.4c5.7-0.7,10.7-1.7,15.6-1.9c5.6-0.2,9.1-2.4,10.9-7.9c1.6-4.7,4.2-9.1,6.7-14.4
			c2.8,6,5.5,11.3,7.9,16.8c1.4,3.1,3.3,4.8,6.8,5.1c5.9,0.5,11.7,1.4,18.8,2.3C213.6,54.9,209.2,59.1,204.7,63.2z"/>
		<path class="st0" d="M160.4,268.3c9.3,19.4,39.5,19,48.7,2.2c0.5-0.9,2.5-1.6,3.5-1.3c13.8,4.3,27.8,8.5,41.4,13.5
			c12.9,4.7,16.9,16.3,15.9,28.4c-0.1,0.9-0.8,1.8-1.5,2.6c-17.8,20.1-39.9,32.7-66.6,36.5c-37.3,5.3-69-6.1-95.9-32.3
			c-5.1-5-5.8-10.3-4.7-16.4c1.4-8.1,5.6-14.9,13.3-17.7C129.5,278.2,145,273.5,160.4,268.3z"/>
		<path class="st2" d="M297.5,84c5,3.9,9.9,7.5,14.5,11.3c2.4,2,4.7,2.4,7.7,1.3c5.6-2.2,11.3-4.1,17.9-6.5
			c-2.1,5.8-3.6,10.9-5.7,15.8c-2,4.5-1.4,8,1.9,11.7c3.6,3.9,6.6,8.3,10,12.8c-4.4,0-8.6,0.6-12.5-0.1c-7.8-1.4-13,1.1-16.5,8.3
			c-1.8,3.7-4.6,6.9-7.4,10.9c-1.9-6.4-3.8-12.2-5.2-18c-0.8-3.4-2.7-5.1-6-5.9c-5.7-1.5-11.3-3.2-17.9-5.2c5.3-3.6,9.8-7,14.6-9.9
			c3.6-2.2,5-4.8,4.7-9C297.2,95.9,297.5,90.2,297.5,84z"/>
		<path class="st2" d="M73.1,84.1c0,6.3,0.2,12.1-0.1,17.9c-0.2,3.5,0.8,6,3.9,7.9c5,3.1,9.8,6.6,15.5,10.4
			c-5.4,1.6-10.1,3.5-14.9,4.3c-6,1-8.9,4.2-10,10c-0.9,4.8-2.6,9.4-4.2,14.9c-3.7-5.5-7.2-10.3-10.3-15.2c-2-3.1-4.4-4.4-8.1-4.2
			c-5.8,0.3-11.6,0.1-17.9,0.1c2.9-3.7,5.6-7.8,8.9-11.3c4.3-4.5,5.1-9,2.3-14.6c-2.1-4.2-3.3-8.9-5.2-14.2
			c6.3,2.3,11.9,4.1,17.4,6.3c3.3,1.4,5.9,1,8.7-1.3C63.5,91.3,68.3,87.8,73.1,84.1z"/>
		<path class="st2" d="M218.7,50.1c-5.1,4.8-9.5,9-14,13.1c-2.3,2.1-3.2,4.2-2.4,7.4c1.4,6,2.3,12.1,3.6,18.8
			c-5.9-3.2-11.2-6-16.5-9.1c-2.8-1.7-5.3-1.7-8.1-0.1c-5.2,3.1-10.6,5.9-16.6,9.2c1.2-6.4,2.1-12.1,3.4-17.8c0.9-3.8,0.1-6.5-2.9-9
			c-4.4-3.8-8.5-7.9-13.3-12.4c5.7-0.7,10.7-1.7,15.6-1.9c5.6-0.2,9.1-2.4,10.9-7.9c1.6-4.7,4.2-9.1,6.7-14.4
			c2.9,6,5.6,11.3,7.9,16.8c1.3,3.1,3.3,4.8,6.7,5.1C205.8,48.3,211.7,49.2,218.7,50.1z"/>
	</g>
</g>
</svg>
