<?xml version="1.0" encoding="utf-8"?>
<!-- Generator: Adobe Illustrator 24.3.0, SVG Export Plug-In . SVG Version: 6.00 Build 0)  -->
<svg version="1.1" id="Layer_1" xmlns="http://www.w3.org/2000/svg" xmlns:xlink="http://www.w3.org/1999/xlink" x="0px" y="0px"
	 viewBox="0 0 371.3 371.6" style="enable-background:new 0 0 371.3 371.6;" xml:space="preserve">
<style type="text/css">
	.st0{fill:#00B0FB;}
	.st1{fill:#FFFFFF;}
	.st2{opacity:0.4;fill:#00B0FB;}
</style>
<g>
	<g>
		<path class="st0" d="M280.9,260.9c0,2.7,0,5.4,0,8.1c0,5.5-1.5,7-6.8,7c-58.9,0-117.9,0-176.8,0c-5.4,0-6.9-1.5-6.9-6.9
			c0-1.3,0-2.5,0-3.8c-1.4,0.2-2.8,0.3-4.2,0.3c-2,0-4-0.2-5.9-0.5c0,1.2-0.1,2.4-0.1,3.5c0,11.6,5.9,17.6,17.5,17.6
			c18.2,0,36.5,0,54.7,0c1.2,0,2.5,0.1,3.8,0.2v8.8c3.3-0.6,6.7-1.1,10.1-1.4c0-1.3,0-2.6,0-3.8v-3.5H205v8
			c3.4,0.4,6.8,0.9,10.1,1.5v-9.8h4c18.1,0,36.3,0,54.4,0c11.6,0,17.5-5.9,17.5-17.5c0-2.7,0-5.5,0-8.2
			C287.7,260.7,284.3,260.8,280.9,260.9z"/>
		<path class="st0" d="M202.8,244.9c-0.9-0.4-1.7-0.8-2.6-1.2c-2.5-0.1-5-0.1-7.5-0.3c0,0.8,0,1.7,0,2.6h-14.3c0-1.4,0-2.7,0-4
			c-4.6-0.7-9.2-1.5-13.8-2.6c3.5,2.1,4.6,5.3,3.9,10.4c-0.6,4.7,1.6,6.4,6.3,6.5c5.8,0.1,11.7,0,17.5,0c10.1,0,10.6-0.4,10.3-10.3
			C202.7,245.6,202.8,245.3,202.8,244.9z"/>
		<path class="st0" d="M150.5,235.4c-5,0.9-10.1,1.5-15.3,1.8c1.7,1.7,3.4,3.3,5.1,5c2.8,2.8,5.2,2.7,8.2,0c0.9-0.8,1.7-1.7,2.5-2.5
			c1.7-1.7,2.7-2.6,3.6-2.9C153.2,236.3,151.9,235.9,150.5,235.4z"/>
		<path class="st0" d="M178.5,242c0,1.3,0,2.7,0,4h14.3c0-0.9,0-1.7,0-2.6C187.9,243.1,183.2,242.6,178.5,242z"/>
	</g>
	<g>
		<path class="st1" d="M351.5,296.5c-0.4,0.9-0.7,1.8-1.1,2.7c-2.7,7.4-9.5,11.6-17.5,11c-7.2-0.5-13.5-6.1-15-13.2
			c-1.6-7.7,1.9-15.3,8.9-18.7c2.1-1,2.7-2.1,2.7-4.3c-0.1-17.3-0.1-34.5-0.1-51.8c0-1,0-2.1,0-3.3c-12.9,0-25.5,0-38.4,0
			c0,1.4,0,2.7,0,3.9c0,16.9,0,33.9,0,50.8c0,11.6-5.9,17.5-17.5,17.5c-18.1,0-36.3,0-54.4,0c-1.3,0-2.5,0-4,0c0,12.8,0,25.3,0,38.1
			c14,0,27.9,0,42.2,0c0.3-0.6,0.6-1.4,1.1-2.3c3.6-7.2,11.6-10.8,19.3-8.9c7.4,1.8,12.8,8.6,12.8,16.3c0.1,7.9-5.1,14.7-12.8,16.6
			c-7.6,1.9-15.6-1.4-19.1-8.5c-1.2-2.4-2.6-2.9-5-2.9c-13.6,0.1-27.2,0-40.8,0c-6.8,0-8-1.1-8-7.8c0-12.2,0-24.4,0-36.6
			c0-1.2,0-2.3,0-3.8c-12.9,0-25.6,0-38.7,0c0,1.2,0,2.3,0,3.5c0,12.7,0,25.5,0,38.2c0,4.8-1.6,6.4-6.4,6.4c-14.2,0-28.5,0.1-42.7,0
			c-2.2,0-3.4,0.5-4.4,2.6c-3.6,7.3-11.5,10.7-19.3,8.7c-7.6-2-12.8-8.8-12.7-16.7c0.1-7.7,5.5-14.5,12.9-16.2
			c7.8-1.8,15.6,1.9,19.3,9.1c0.4,0.8,0.7,1.5,1.1,2.3c14.1,0,28.1,0,42.2,0c0-12.7,0-25.1,0-38c-1.3-0.1-2.5-0.2-3.8-0.2
			c-18.2,0-36.5,0-54.7,0c-11.6,0-17.5-6-17.5-17.6c0-16.8,0-33.7,0-50.5c0-1.3,0-2.6,0-4.1c-12.7,0-25.3,0-38.3,0c0,0.9,0,2,0,3
			c0,17.4,0,34.8,0,52.1c0,2.1,0.5,3.2,2.5,4.1c7.3,3.5,10.9,11.5,9,19.2c-1.9,7.6-8.7,12.9-16.6,12.8c-7.9-0.1-14.5-5.3-16.4-13.1
			c-1.8-7.6,1.7-15.4,8.9-18.9c2.2-1,2.6-2.4,2.6-4.5c-0.1-19.2,0-38.4,0-57.6c0-6.2,1.4-7.6,7.7-7.6c12.3,0,24.6,0,36.9,0
			c1.2,0,2.3,0,3.7,0c0-15.3,0-30.2,0-45.7c-1.2,0-2.3,0-3.5,0c-12.5,0-25,0-37.6,0c-5.6,0-7.2-1.5-7.2-7.1c0-19.3,0-38.6,0-58
			c0-2.3-0.4-3.6-2.7-4.7C22,89.8,18.5,82,20.2,74.5c1.8-7.8,8.4-13.1,16.3-13.2c7.9-0.1,14.8,5.1,16.7,12.7
			c2,7.6-1.5,15.6-8.5,19.2c-2.3,1.1-3,2.4-3,4.9c0.1,18.1,0.1,36.2,0.1,54.6c12.7,0,25.3,0,38.3,0c0-1.1,0-2.4,0-3.6
			c0-17.2,0-34.3,0-51.5c0-11,6.1-17.1,17-17.1c18.4,0,36.7,0,55.1,0c1.3,0,2.5,0,4,0c0-12.9,0-25.3,0-38.1
			c-0.8-0.1-1.6-0.3-2.5-0.3c-12.4,0-24.8,0-37.2,0c-1.6,0-2.6,0.2-3.5,2c-3.6,7.6-11,11.2-18.9,9.6c-7.1-1.4-12.9-7.9-13.4-15.2
			c-0.6-8.2,4.1-15,12.2-17.7c0.5-0.2,0.9-0.4,1.4-0.7c2.2,0,4.3,0,6.5,0c5.1,1.7,9.7,4.3,12,9.5c0.9,2.1,2.2,2.5,4.2,2.5
			c14.2-0.1,28.5-0.1,42.8,0c5,0,6.5,1.6,6.6,6.6c0,10.8,0,21.6,0,32.4c0,3,0,6,0,9.2c13,0,25.7,0,38.7,0c0-1.3,0-2.5,0-3.7
			c0-12.2,0-24.4,0-36.6c0-6.8,1.1-7.9,7.8-7.9c13.9,0,27.9,0,41.8-0.1c1.1,0,2.8-0.5,3.2-1.3c2.5-5.7,7.1-8.8,12.7-10.6
			c2.2,0,4.3,0,6.5,0c0.5,0.2,0.9,0.5,1.4,0.7c8.1,2.7,12.7,9.5,12.2,17.8c-0.5,7.3-6.2,13.8-13.4,15.2c-8,1.6-15.3-2.1-18.9-9.6
			c-0.8-1.7-1.8-2-3.5-2c-12.4,0-24.8,0-37.2,0c-0.8,0-1.6,0.2-2.5,0.3c0,12.7,0,25.2,0,38.1c1.4,0,2.7,0,4,0c18.1,0,36.3,0,54.4,0
			c11.6,0,17.6,5.9,17.6,17.5c0,16.9,0,33.9,0,50.8c0,1.3,0,2.5,0,3.9c12.9,0,25.5,0,38.4,0c0-1.2,0-2.2,0-3.3
			c0-17.3,0-34.5,0.1-51.8c0-2.2-0.6-3.3-2.7-4.4c-7-3.4-10.5-11-8.9-18.7c1.5-6.9,7.7-12.5,14.7-13.1c8-0.7,14.9,3.4,17.7,10.7
			c0.4,1,0.8,2,1.2,3c0,2.2,0,4.3,0,6.5c-1.8,5-4.3,9.5-9.4,11.7c-2.2,1-2.6,2.3-2.6,4.4c0.1,19.3,0,38.6,0,58
			c0,5.8-1.5,7.3-7.3,7.3c-12.5,0-25,0-37.6,0c-1.1,0-2.3,0-3.4,0c0,15.5,0,30.4,0,45.7c1.4,0,2.5,0,3.7,0c12.6,0,25.3,0,37.9,0
			c5,0,6.6,1.7,6.6,6.7c0,0.9,0,1.7,0,2.6c0,18.7,0,37.3,0,56c0,1.2,0.4,3.3,1.2,3.6c5.7,2.4,8.8,7,10.8,12.6
			C351.5,292.2,351.5,294.4,351.5,296.5z M90.3,185.7c0,29.5,0,58.9,0,88.4c0,5.4,1.5,6.9,6.9,6.9c58.9,0,117.9,0,176.8,0
			c5.4,0,6.8-1.5,6.8-7c0-58.8,0-117.7,0-176.5c0-5.7-1.4-7.1-7.1-7.1c-58.8,0-117.7,0-176.5,0c-5.6,0-7,1.4-7,7.1
			C90.3,127,90.3,156.4,90.3,185.7z M97.7,341.5c3.7,0,6.8-3,6.9-6.7c0.1-3.8-3.2-7.1-7-7.1c-3.7,0-6.8,3.1-6.9,6.8
			C90.6,338.4,93.7,341.5,97.7,341.5z M273.6,341.5c3.9,0,6.9-3.1,6.9-7c0-3.7-3.1-6.7-6.8-6.8c-3.8-0.1-7,3.1-7.1,6.9
			C266.6,338.3,269.8,341.5,273.6,341.5z M273.5,30.1c-3.8,0.1-7,3.3-6.8,7.1c0.1,3.7,3.2,6.7,6.9,6.7c3.8,0,6.9-3.1,6.9-7
			C280.5,33.1,277.4,30.1,273.5,30.1z M29.9,293.5c0.1,3.7,3.1,6.8,6.8,6.8c3.8,0,7-3.2,7-7c-0.1-3.9-3.2-6.8-7.2-6.7
			C32.7,286.7,29.9,289.7,29.9,293.5z M341.3,293.4c0-3.8-2.9-6.7-6.7-6.8c-4,0-7.1,2.9-7,6.8c0,3.7,3.1,6.8,6.8,6.9
			C338.1,300.4,341.3,297.3,341.3,293.4z M104.6,37c0-3.7-3-6.8-6.8-6.9c-3.9-0.1-7.1,2.9-7.1,6.8c0,3.7,3,6.8,6.7,6.9
			C101.2,44,104.5,40.8,104.6,37z M36.8,85c3.9,0,6.8-2.9,6.9-6.7c0.1-3.8-3.2-7.1-7-7.1c-3.8,0-6.9,3.3-6.8,7.1
			C30,82.2,32.9,85,36.8,85z M341.3,78.2c0-3.9-3.1-7.1-6.9-7c-3.7,0.1-6.8,3.2-6.8,6.8c-0.1,3.8,2.9,6.8,6.7,6.9
			C338.3,85.1,341.3,82.2,341.3,78.2z"/>
		<path class="st2" d="M97.7,341.5c-3.9,0-7-3.1-6.9-7c0.1-3.7,3.2-6.8,6.9-6.8c3.8,0,7,3.3,7,7.1
			C104.5,338.4,101.4,341.4,97.7,341.5z"/>
		<path class="st2" d="M273.6,341.5c-3.9,0-7-3.1-7-6.9c0-3.8,3.3-6.9,7.1-6.9c3.7,0.1,6.7,3.1,6.8,6.8
			C280.6,338.4,277.5,341.4,273.6,341.5z"/>
		<path class="st2" d="M273.5,30.1c3.9-0.1,7,2.9,7,6.8c0,3.9-3.1,7-6.9,7c-3.7,0-6.8-3.1-6.9-6.7C266.5,33.4,269.7,30.2,273.5,30.1
			z"/>
		<path class="st2" d="M29.9,293.5c-0.1-3.9,2.8-6.8,6.6-6.9c4-0.1,7.1,2.8,7.2,6.7c0.1,3.8-3.2,7.1-7,7
			C33.1,300.3,30,297.2,29.9,293.5z"/>
		<path class="st2" d="M341.3,293.4c0,3.9-3.2,7.1-7,7c-3.7-0.1-6.8-3.2-6.8-6.9c0-3.9,3-6.9,7-6.8
			C338.5,286.7,341.3,289.5,341.3,293.4z"/>
		<path class="st2" d="M104.6,37c0,3.8-3.3,7-7.1,6.9c-3.7-0.1-6.7-3.2-6.7-6.9c0-3.9,3.2-6.9,7.1-6.8
			C101.5,30.2,104.6,33.4,104.6,37z"/>
		<path class="st2" d="M36.8,85c-3.9,0-6.8-2.7-6.9-6.6c-0.1-3.9,3-7.1,6.8-7.1c3.8,0,7,3.3,7,7.1C43.6,82.1,40.7,84.9,36.8,85z"/>
		<path class="st2" d="M341.3,78.2c0,4-3,6.8-7.1,6.7c-3.8-0.1-6.7-3.1-6.7-6.9c0.1-3.7,3.2-6.8,6.8-6.8
			C338.2,71.2,341.4,74.4,341.3,78.2z"/>
		<path class="st1" d="M144.3,121.7c1.7,1.1,3.5,1.7,4.4,3c3.9,5.5,8.1,6.8,14.4,3.1c5-2.9,5.4-2.3,5.4-8.2c0-8.7,0.7-9.4,9.4-9.4
			c6.2,0,12.3,0,18.5,0c4.8,0,7,1.8,6.4,6.4c-0.8,6.8,1.3,10.5,8.2,12.3c5.4,1.4,5.2,2.1,9.3-2c6.3-6.3,7.1-6.3,13.5,0.1
			c4.3,4.3,8.6,8.5,12.8,12.8c3.6,3.6,3.9,6.1,0,9.2c-5,4-6.6,7.7-3,13.9c3.2,5.3,2.5,5.7,8.9,5.7c1.2,0,2.4,0,3.6,0
			c3.2,0.2,5.1,1.9,5.2,5.1c0.1,8,0.1,16,0,24c-0.1,3.3-2,5-5.4,5.2c-3.3,0.2-7.4-0.8-9.7,0.7c-2.2,1.5-2.3,5.8-4,8.6
			c-1.8,3-1.5,5,1.2,7c1.5,1.2,2.8,2.7,4.1,4.1c2.3,2.5,2.4,5,0,7.5c-5.5,5.6-11.1,11.2-16.7,16.7c-2.6,2.5-5,2.4-7.7-0.1
			c-2.4-2.2-4.4-5.7-7.1-6.3c-2.5-0.6-5.6,2.4-8.5,3.1c-4,0.9-4.8,3-4.7,6.8c0.3,9.9-0.3,10.3-10.3,10.3c-5.8,0-11.7,0-17.5,0
			c-4.7,0-6.9-1.8-6.3-6.5c0.9-6.7-1.4-10.2-8-12.1c-5.6-1.6-5.4-2.2-9.6,1.9c-0.8,0.8-1.7,1.7-2.5,2.5c-2.9,2.8-5.3,2.8-8.2,0
			c-5.5-5.4-10.9-10.8-16.3-16.3c-2.7-2.7-2.6-5.2,0-7.9c1.8-1.9,3.8-3.6,5.4-5.6c0.6-0.8,0.8-2.3,0.5-3.2c-1.1-3.1-2.4-6.3-3.9-9.2
			c-0.5-1-1.8-1.9-2.9-2c-2.4-0.3-5,0-7.4-0.1c-3.8-0.1-5.7-1.8-5.7-5.6c-0.1-7.8-0.1-15.5,0-23.3c0.1-3.6,1.9-5.3,5.5-5.4
			c3.2-0.1,7.2,0.9,9.5-0.6c2.2-1.5,2.4-5.8,4-8.5c1.9-3.2,1.6-5.4-1.4-7.5c-1-0.7-1.9-1.8-2.8-2.7c-3.8-3.8-3.8-5.8-0.1-9.5
			c5-5.1,10-10.1,15.1-15.1C141.1,123.6,142.6,122.8,144.3,121.7z M192.7,251.1c0-2.9,0-5.5,0-8.1c0-3.8,1.2-4.9,4.8-6.2
			c5.3-2,10.6-4.1,15.8-6.5c3.4-1.6,5.1-1.6,7.8,1.1c1.9,1.9,3.7,3.9,5.3,5.6c3.7-3.5,7-6.7,10.8-10.3c-2-1.8-4.1-3.6-6-5.4
			c-2.7-2.7-2.6-4.3-1-7.8c2.4-5.2,4.6-10.4,6.5-15.8c1.3-3.5,2.4-4.7,6.3-4.7c2.7,0,5.3,0,8,0c0-4.9,0-9.4,0-14.3
			c-2.9,0-5.7,0-8.5,0c-3,0-4.6-1.5-5.7-4.3c-2.1-5.6-4.4-11.2-6.9-16.7c-1.2-2.7-1.2-5,0.9-7c2.1-2,4.2-4,5.8-5.5
			c-3.7-3.7-6.9-7-10.3-10.4c-1.7,1.7-3.6,3.7-5.4,5.6c-2.3,2.4-4.6,2.4-7.6,1c-5.2-2.5-10.6-4.7-16.1-6.6c-3.1-1.1-4.7-2.8-4.6-6.1
			c0.1-2.7,0-5.3,0-8.1c-4.9,0-9.5,0-14.3,0c0,2.9,0,5.6,0,8.3c0,3.2-1.5,4.8-4.5,5.9c-5.5,2-11,4.3-16.4,6.8
			c-2.9,1.3-5.1,1.3-7.3-1c-1.9-2-3.8-4.1-5.4-5.8c-3.7,3.5-7.1,6.7-10.4,9.8c0.1,0.2,0.1,0.3,0.1,0.4c1.8,1.9,3.6,3.7,5.4,5.6
			c2.6,2.7,2.6,4.4,1,7.8c-2.4,5.2-4.6,10.4-6.5,15.8c-1.3,3.5-2.5,4.7-6.3,4.7c-2.7,0-5.3,0-7.9,0c0,5,0,9.5,0,14.3
			c2.8,0,5.5,0,8.2,0c3.3-0.1,5,1.6,6,4.7c1.9,5.4,4.1,10.6,6.5,15.8c1.7,3.6,1.7,5.2-1.1,8.1c-1.9,1.9-3.9,3.6-6.1,5.8
			c2.2,2,4,3.4,5.5,5.1c1.6,1.7,2.9,3.7,4.6,5.7c2.7-2.8,4.5-4.8,6.3-6.6c2.8-2.7,4.4-2.7,7.8-1.1c5.3,2.4,10.6,4.6,16.1,6.6
			c3,1.1,4.6,2.7,4.5,5.8c0,2.8,0,5.5,0,8.4C183.3,251.1,187.8,251.1,192.7,251.1z"/>
		<path class="st0" d="M192.7,251.1c-4.9,0-9.4,0-14.3,0c0-2.9,0-5.7,0-8.4c0-3.2-1.6-4.8-4.5-5.8c-5.4-2-10.8-4.2-16.1-6.6
			c-3.4-1.6-5-1.6-7.8,1.1c-1.8,1.8-3.6,3.7-6.3,6.6c-1.6-2.1-3-4-4.6-5.7c-1.5-1.7-3.3-3.1-5.5-5.1c2.3-2.1,4.3-3.9,6.1-5.8
			c2.9-2.9,2.8-4.5,1.1-8.1c-2.4-5.2-4.6-10.4-6.5-15.8c-1.1-3.1-2.7-4.7-6-4.7c-2.7,0.1-5.3,0-8.2,0c0-4.8,0-9.3,0-14.3
			c2.6,0,5.3,0,7.9,0c3.8,0,5-1.3,6.3-4.7c1.9-5.3,4.1-10.6,6.5-15.8c1.6-3.4,1.7-5.1-1-7.8c-1.8-1.9-3.6-3.7-5.4-5.6
			c-0.1-0.1-0.1-0.2-0.1-0.4c3.3-3.1,6.7-6.3,10.4-9.8c1.6,1.8,3.5,3.8,5.4,5.8c2.2,2.3,4.4,2.3,7.3,1c5.3-2.5,10.8-4.7,16.4-6.8
			c2.9-1.1,4.5-2.7,4.5-5.9c0-2.7,0-5.4,0-8.3c4.8,0,9.3,0,14.3,0c0,2.8,0.1,5.4,0,8.1c-0.1,3.3,1.5,5,4.6,6.1
			c5.4,1.9,10.8,4.1,16.1,6.6c3,1.4,5.3,1.3,7.6-1c1.9-1.9,3.7-3.9,5.4-5.6c3.4,3.5,6.6,6.7,10.3,10.4c-1.7,1.6-3.8,3.5-5.8,5.5
			c-2.2,2.1-2.2,4.3-0.9,7c2.5,5.5,4.8,11,6.9,16.7c1.1,2.8,2.7,4.3,5.7,4.3c2.8,0,5.6,0,8.5,0c0,4.8,0,9.3,0,14.3c-2.7,0-5.3,0-8,0
			c-3.8,0-5,1.2-6.3,4.7c-2,5.3-4.1,10.6-6.5,15.8c-1.6,3.5-1.7,5.1,1,7.8c1.9,1.9,4,3.6,6,5.4c-3.8,3.6-7.1,6.8-10.8,10.3
			c-1.6-1.7-3.4-3.7-5.3-5.6c-2.7-2.7-4.4-2.6-7.8-1.1c-5.2,2.4-10.4,4.6-15.8,6.5c-3.6,1.3-4.7,2.4-4.8,6.2
			C192.7,245.6,192.7,248.2,192.7,251.1z M185.7,152.6c-18.4-0.1-33.1,14.5-33.3,32.9c-0.2,18.5,14.6,33.4,33.1,33.5
			c18.4,0.1,33.1-14.6,33.3-32.9C219,167.6,204.2,152.7,185.7,152.6z"/>
		<path class="st1" d="M185.7,152.6c18.5,0.1,33.2,15,33.1,33.4c-0.2,18.4-14.9,33-33.3,32.9c-18.5-0.1-33.3-15-33.1-33.5
			C152.6,167.2,167.4,152.6,185.7,152.6z M185.6,209c12.7,0,23.3-10.6,23.3-23.3c0-12.6-10.4-23.1-23.1-23.2
			c-12.7-0.1-23.4,10.4-23.4,23.1C162.3,198.4,172.9,209,185.6,209z"/>
	</g>
</g>
</svg>
