<?xml version="1.0" encoding="utf-8"?>
<!-- Generator: Adobe Illustrator 24.3.0, SVG Export Plug-In . SVG Version: 6.00 Build 0)  -->
<svg version="1.1" id="Layer_1" xmlns="http://www.w3.org/2000/svg" xmlns:xlink="http://www.w3.org/1999/xlink" x="0px" y="0px"
	 viewBox="0 0 371.3 371.6" style="enable-background:new 0 0 371.3 371.6;" xml:space="preserve">
<style type="text/css">
	.st0{fill:#00B0FB;}
	.st1{fill:#FFFFFF;}
	.st2{opacity:0.4;fill:#00B0FB;}
</style>
<g>
	<g>
		<path class="st0" d="M235.4,307.9H232V83.8h4.7c-0.8-3.4-1.3-6.8-1.5-10.3c-0.3,0-0.6,0-0.9,0c-1.1,0-1.9-0.2-2.2-0.8
			c-0.7,0-1.4,0.1-2.1,0.1c-3.8,0-7.5-0.5-11.1-1.4c0,0.7,0,1.3-0.1,2h2.8v4.9c0,72.9,0,145.8,0.1,218.6c0,7.4-1.5,15,2,22.4h-5.8
			c0.7,0.6,1.3,1.1,1.9,1.7c1.3,1.2,2.5,2.5,3.6,3.8c1.9-0.2,3.7-0.4,5.6-0.4c0.5,0,1.1,0,1.6,0C231,318.9,232.8,313.2,235.4,307.9z
			"/>
		<path class="st0" d="M235.4,307.9H232V83.8h4.7c-0.8-3.4-1.3-6.8-1.5-10.3c-0.3,0-0.6,0-0.9,0c-1.1,0-1.9-0.2-2.2-0.8
			c-0.7,0-1.4,0.1-2.1,0.1c-3.8,0-7.5-0.5-11.1-1.4c0,0.7,0,1.3-0.1,2h2.8v4.9c0,72.9,0,145.8,0.1,218.6c0,7.4-1.5,15,2,22.4h-5.8
			c0.7,0.6,1.3,1.1,1.9,1.7c1.3,1.2,2.5,2.5,3.6,3.8c1.9-0.2,3.7-0.4,5.6-0.4c0.5,0,1.1,0,1.6,0C231,318.9,232.8,313.2,235.4,307.9z
			"/>
	</g>
	<path class="st2" d="M189.3,273.9c2.6,2.3,1.4,6.8-2,7.9c-1.1,0.4-2.4,0.5-3.6,0.5c-26.4,0-52.8,0-79.2,0c-1,0-2,0-3-0.3
		c-2.6-0.7-4-2.5-3.7-5.2c0.2-2.7,1.8-4.4,4.5-4.5c3.6-0.2,7.2-0.1,10.8-0.1c10.3,0,20.7,0,31,0c13.4,0,26.7-0.1,40.1,0.1
		C185.9,272.3,188,272.8,189.3,273.9z"/>
	<path class="st2" d="M186.6,236.9c-1.1,0.2-2.2,0.2-3.3,0.2c-26.1,0-52.1,0-78.2,0c-1.4,0-3-0.1-4.3-0.5c-2.3-0.8-3.2-2.7-3-5.1
		c0.2-2.4,1.6-3.9,4-4.4c1.1-0.2,2.2-0.1,3.4-0.1c13,0,26,0,39.1,0c13.5,0,27,0,40.4,0c2.7,0,4.9,0.7,5.8,3.6
		C191.3,233.5,189.6,236.3,186.6,236.9z"/>
	<path class="st2" d="M190.6,254.8c-0.1,3-2.2,4.8-5.7,4.8c-13.6,0-27.2,0-40.8,0c-13,0-26,0-39.1,0c-1.1,0-2.5,0.4-3.3-0.2
		c-1.5-1.1-3.5-2.5-3.7-4.1c-0.2-1.6,1.2-3.6,2.3-5c0.5-0.7,2.1-0.8,3.1-0.8c27.2,0,54.4-0.1,81.5,0
		C188.5,249.5,190.7,251.7,190.6,254.8z"/>
	<path class="st0" d="M357.8,67.8c-2.9-13.4-12.6-23.1-26.1-25.4c-4.6-0.8-9.4-0.5-14.1-0.5c-5.5,0-7.7,2.2-7.7,7.9
		c0,4.3,0,8.7,0,13h-36.5c0-10.9,0.1-21.4,0-32c-0.1-9.2-6.1-16.2-15.2-17.4c-4.2-0.5-8.5-0.3-12.8-0.3
		c-10.9,0.1-18.1,7.3-18.3,18.2c-0.1,4.3,0,8.6,0,12.8v18.6H61.4c0-4.8,0.1-9.4,0-14c-0.1-3.9-2.2-6.7-5.6-6.8
		c-5.3-0.2-10.6-0.5-15.8,0.3c-16,2.5-27,15.6-27,32.1c-0.1,36.3,0,72.6,0,109c0,37.8,0,75.6,0,113.4c0,16.5,11,30,27.3,32.1
		c7.2,0.9,36.7,0.7,52.9,0.6c0,0,0.1,0,0.1,0c45.7,0,91.3,0,137-0.1c3,0,4.3,0.9,5.4,3.6c2.8,6.8,5.9,13.6,9.2,20.3
		c1,2,2.8,3.5,4.3,5.3h2.7c1.4-1.9,3.2-3.7,4.2-5.8c3.2-6.7,6.3-13.4,9.2-20.2c1-2.3,2.2-3.1,4.7-3.1c17.7,0.1,35.5,0.1,53.2,0.1
		c18.7,0,30.3-9,34.9-27.1c0.1-0.2,0.3-0.4,0.4-0.5V69.7C358.2,69,357.9,68.4,357.8,67.8z M93,319.4c-15,0-42,0-47.9,0
		c-11.6-0.1-21.1-8.8-22.1-20c-0.9-11.1,6.8-21.2,18.2-23.2c3.7-0.6,7.6-0.5,11.4-0.5c6.8-0.1,8.8-2,8.8-8.9V142.4
		c0-12.9,0-58.1,0-65.4c0-1.2,0.1-2.4,0.1-3.6H227v4.9c0,72.9,0,145.8,0.1,218.6c0,7.4-1.5,15,2,22.4H93z M237.2,63H263v10.5h-8.5
		c-4.9,0-9.9-0.1-14.8,0c-1.8,0-2.7-0.5-2.6-2.5C237.3,68.5,237.2,65.9,237.2,63z M250.3,340.9c-3.5-7.8-6.8-14.9-10.1-22.4h20.3
		C257,326.1,253.7,333.2,250.3,340.9z M263.3,279.6v28.2h-25.9V83.8h25.9v170.7c0,0.8,0,1.6,0,2.3
		C263.3,264.4,263.3,272,263.3,279.6z M263.3,52.6h-25.8c-0.1-0.8-0.3-1.7-0.3-2.6c0-6.1-0.1-12.1,0-18.2c0.1-5.9,2.9-8.6,8.8-8.6
		c3.1,0,6.3-0.1,9.4,0c5.1,0.2,7.8,3,7.9,8.1C263.3,38.3,263.3,45.2,263.3,52.6z M327.6,319.1c-18.6,0.5-37.3,0.1-55.1,0.1
		c0.3-5.6,0.8-11.1,0.8-16.6c0.1-17.3,0-34.6,0.1-52c0-0.3,0-0.7,0-1c0-49.2,0-124.7,0-172v-4.2h36.5v192.7c0,7.7,1.7,9.4,9.2,9.4
		c3.4,0,6.8-0.2,10.1,0.3c11.4,1.6,19.4,11.3,19,22.5C347.8,309.1,338.9,318.9,327.6,319.1z"/>
	<path class="st1" d="M357.8,67.8c-2.9-13.4-12.6-23.1-26.1-25.4c-4.6-0.8-9.4-0.5-14.1-0.5c-5.5,0-7.7,2.2-7.7,7.9
		c0,4.3,0,8.7,0,13h-36.5c0-10.9,0.1-21.4,0-32c-0.1-9.2-6.1-16.2-15.2-17.4c-4.2-0.5-8.5-0.3-12.8-0.3
		c-10.9,0.1-18.1,7.3-18.3,18.2c-0.1,4.3,0,8.6,0,12.8v18.6H61.4c0-4.8,0.1-9.4,0-14c-0.1-3.9-2.2-6.7-5.6-6.8
		c-5.3-0.2-10.6-0.5-15.8,0.3c-16,2.5-27,15.6-27,32.1c-0.1,36.3,0,72.6,0,109c0,37.8,0,75.6,0,113.4c0,16.5,11,30,27.3,32.1
		c7.2,0.9,36.7,0.7,52.9,0.6c0,0,0.1,0,0.1,0c45.7,0,91.3,0,137-0.1c3,0,4.3,0.9,5.4,3.6c2.8,6.8,5.9,13.6,9.2,20.3
		c1,2,2.8,3.5,4.3,5.3h2.7c1.4-1.9,3.2-3.7,4.2-5.8c3.2-6.7,6.3-13.4,9.2-20.2c1-2.3,2.2-3.1,4.7-3.1c17.7,0.1,35.5,0.1,53.2,0.1
		c18.7,0,30.3-9,34.9-27.1c0.1-0.2,0.3-0.4,0.4-0.5V69.7C358.2,69,357.9,68.4,357.8,67.8z M23,74.6c0-15.2,13.5-25.8,28.3-22v212.9
		c-10.7-0.9-20,1.5-28.3,8.6v-27.8C23,189.1,23,131.9,23,74.6z M93,319.4c-15,0-42,0-47.9,0c-11.6-0.1-21.1-8.8-22.1-20
		c-0.9-11.1,6.8-21.2,18.2-23.2c3.7-0.6,7.6-0.5,11.4-0.5c6.8-0.1,8.8-2,8.8-8.9V142.4c0-12.9,0-58.1,0-65.4c0-1.2,0.1-2.4,0.1-3.6
		H227v4.9c0,72.9,0,145.8,0.1,218.6c0,7.4-1.5,15,2,22.4H93z M237.2,63H263v10.5h-8.5c-4.9,0-9.9-0.1-14.8,0c-1.8,0-2.7-0.5-2.6-2.5
		C237.3,68.5,237.2,65.9,237.2,63z M250.3,340.9c-3.5-7.8-6.8-14.9-10.1-22.4h20.3C257,326.1,253.7,333.2,250.3,340.9z M263.3,279.6
		v28.2h-25.9V83.8h25.9v170.7c0,0.8,0,1.6,0,2.3C263.3,264.4,263.3,272,263.3,279.6z M263.3,52.6h-25.8c-0.1-0.8-0.3-1.7-0.3-2.6
		c0-6.1-0.1-12.1,0-18.2c0.1-5.9,2.9-8.6,8.8-8.6c3.1,0,6.3-0.1,9.4,0c5.1,0.2,7.8,3,7.9,8.1C263.3,38.3,263.3,45.2,263.3,52.6z
		 M327.6,319.1c-18.6,0.5-37.3,0.1-55.1,0.1c0.3-5.6,0.8-11.1,0.8-16.6c0.1-17.3,0-34.6,0.1-52c0-0.3,0-0.7,0-1
		c0-49.2,0-124.7,0-172v-4.2h36.5v192.7c0,7.7,1.7,9.4,9.2,9.4c3.4,0,6.8-0.2,10.1,0.3c11.4,1.6,19.4,11.3,19,22.5
		C347.8,309.1,338.9,318.9,327.6,319.1z M348.2,272c0,0.4-0.1,0.9-0.1,2.1c-8.1-7.3-17.5-9.3-27.9-8.5V52.3
		c13.4-1.6,23.3,3.8,26.8,14.7c0.7,2.2,1.1,4.6,1.1,6.9C348.3,140,348.3,206,348.2,272z"/>
	<path class="st1" d="M190.9,158.5c0-6.3-0.1-12.6,0-18.9c0.1-4.2-1.5-7-5.3-8.9c-12.3-6.1-24.5-12.3-36.6-18.7
		c-3.3-1.7-6.3-1.7-9.6,0c-12.2,6.3-24.4,12.6-36.6,18.7c-3.5,1.8-5.2,4.2-5.2,8.2c0.1,13.1,0.1,26.1,0,39.1c0,3.9,1.6,6.5,5.1,8.3
		c12.3,6.2,24.6,12.5,36.9,18.8c3.2,1.7,6.1,1.6,9.3,0c12.3-6.4,24.6-12.6,36.9-18.8c3.5-1.8,5.2-4.4,5.1-8.3
		C190.8,171.5,190.9,165,190.9,158.5z M139.1,193.2c-1-0.4-1.8-0.6-2.5-1c-8.7-4.4-17.4-8.9-26.1-13.2c-1.9-1-2.8-2-2.8-4.3
		c0.2-8.8,0.1-17.5,0.1-26.3c0-1,0.1-1.9,0.2-3.4c3,1.5,5.7,2.9,8.4,4.2c6.8,3.5,13.6,6.9,20.4,10.5c1,0.6,2.2,2,2.3,3.1
		C139.2,172.8,139.1,182.8,139.1,193.2z M145.4,151.4c-0.6,0.3-1.6,0.4-2.1,0.1c-9.6-4.8-19.1-9.7-29.2-14.8c1.2-0.7,2-1.3,2.8-1.7
		c8.4-4.3,16.8-8.6,25.2-12.8c1-0.5,2.5-0.8,3.3-0.4c9.5,4.7,19,9.6,29.1,14.8C164.4,141.7,154.9,146.6,145.4,151.4z M180.7,174.9
		c0,1.2-0.8,2.9-1.7,3.4c-9.3,4.9-18.7,9.7-28.1,14.5c-0.4,0.2-0.8,0.2-1.5,0.4c0-10.4,0-20.6,0-30.8c0-0.7,0.4-1.6,0.9-1.9
		c9.9-5.1,19.9-10.2,30.5-15.6v9.2C180.7,160.9,180.8,167.9,180.7,174.9z"/>
</g>
</svg>
