<svg width="100" height="100" viewBox="0 0 100 100" fill="none" xmlns="http://www.w3.org/2000/svg">
<path d="M53.8392 70.5554C53.6203 69.7535 53.8981 68.8979 54.5474 68.377L58.2035 65.4388L53.5182 65.2103C52.6878 65.1703 51.9606 64.6422 51.6649 63.8644L50 59.478L48.3351 63.8611C48.0394 64.6378 47.3122 65.1673 46.4808 65.2073L41.7955 65.4355L45.4515 68.375C46.0998 68.8959 46.3776 69.7515 46.1598 70.5535L44.9295 75.0809L48.8539 72.5119C49.5496 72.0572 50.4483 72.0573 51.144 72.512L55.0694 75.0818L53.8392 70.5554Z" fill="#00B0FB" fill-opacity="0.5"/>
<path d="M25.9789 57.9036C25.698 58.6413 25.0076 59.1433 24.2193 59.1812L21.2526 59.3274L23.569 61.1892C24.1836 61.6828 24.4477 62.4942 24.2404 63.2561L23.4606 66.1249L25.9474 64.4969C26.6083 64.0633 27.4618 64.0643 28.1227 64.4968L30.6085 66.1239L29.8286 63.256C29.6213 62.494 29.8855 61.6827 30.5011 61.1881L32.8175 59.3263L29.8486 59.1822C29.0604 59.1443 28.37 58.6424 28.0901 57.9046L27.0345 55.1252L25.9789 57.9036Z" fill="#00B0FB"/>
<path d="M75.7607 63.255C75.5533 62.493 75.8175 61.6816 76.4331 61.187L78.7495 59.3263L75.7807 59.1822C74.9924 59.1443 74.302 58.6424 74.0221 57.9046L72.9666 55.1252L71.912 57.9036C71.6311 58.6413 70.9407 59.1433 70.1524 59.1812L67.1836 59.3254L69.501 61.187C70.1156 61.6806 70.3797 62.492 70.1724 63.2539L69.3926 66.1227L71.8794 64.4948C72.2099 64.279 72.5877 64.1707 72.9666 64.1707C73.3454 64.1707 73.7243 64.2791 74.0547 64.4958L76.5405 66.1227L75.7607 63.255Z" fill="#00B0FB"/>
<path d="M76.4639 14.971C76.9046 15.3039 77.5317 15.2165 77.8646 14.7759C78.1975 14.3352 78.1102 13.7081 77.6695 13.3752L76.4639 14.971ZM77.6695 13.3752C69.7318 7.3783 59.995 4.09717 50 4.09717V6.09717C59.5586 6.09717 68.8724 9.23568 76.4639 14.971L77.6695 13.3752ZM50 4.09717C24.6879 4.09717 4.09723 24.6878 4.09723 50H6.09723C6.09723 25.7924 25.7924 6.09717 50 6.09717V4.09717ZM4.09723 50C4.09723 58.1182 6.24417 66.0967 10.3098 73.0743L12.0378 72.0674C8.15147 65.3974 6.09723 57.7667 6.09723 50H4.09723Z" fill="#00B0FB"/>
<path d="M23.5342 85.0282C23.0936 84.6952 22.4665 84.7824 22.1335 85.223C21.8004 85.6635 21.8876 86.2907 22.3282 86.6237L23.5342 85.0282ZM22.3282 86.6237C30.264 92.6218 40.003 95.9039 50 95.9039V93.9039C40.4393 93.9039 31.1235 90.7644 23.5342 85.0282L22.3282 86.6237ZM50 95.9039C75.3121 95.9039 95.9028 75.3131 95.9028 50.001H93.9028C93.9028 74.2085 74.2076 93.9039 50 93.9039V95.9039ZM95.9028 50.001C95.9028 41.8847 93.7547 33.9074 89.6892 26.9299L87.9611 27.9368C91.8475 34.6069 93.9028 42.2365 93.9028 50.001H95.9028Z" fill="#00B0FB"/>
<path d="M71.2922 24.8235C69.0968 24.8235 67.3109 26.6094 67.3109 28.8047C67.3109 31 69.0968 32.7859 71.2921 32.7859C73.4875 32.7859 75.2734 31 75.2734 28.8047C75.2734 26.6094 73.4875 24.8235 71.2922 24.8235Z" fill="#00B0FB" fill-opacity="0.5"/>
<path d="M50 23.6289C47.2374 23.6289 44.9895 25.8768 44.9895 28.6394C44.9895 31.4019 47.2374 33.6488 50 33.6488C52.7625 33.6488 55.0105 31.4019 55.0105 28.6394C55.0105 25.8768 52.7625 23.6289 50 23.6289Z" fill="#00B0FB"/>
<path d="M28.7078 24.8235C26.5125 24.8235 24.7266 26.6094 24.7266 28.8047C24.7266 31 26.5125 32.7859 28.7078 32.7859C30.9031 32.7859 32.689 31 32.689 28.8047C32.689 26.6094 30.9031 24.8235 28.7078 24.8235Z" fill="#00B0FB" fill-opacity="0.5"/>
<path d="M28.7078 35.8821C24.4929 35.8821 20.8895 38.6478 19.7192 42.5448L36.606 42.5449C36.7871 42.1123 36.9881 41.6913 37.208 41.2819C35.6747 38.0248 32.3449 35.8821 28.7078 35.8821Z" fill="#00B0FB" fill-opacity="0.5"/>
<path d="M50 36.7461C44.738 36.7461 40.26 40.2874 38.9582 45.2253H61.0418C59.7399 40.2874 55.262 36.7461 50 36.7461Z" fill="#00B0FB"/>
<path d="M62.7919 41.282C63.0118 41.6914 63.2128 42.1123 63.3938 42.5449L80.2807 42.5458C79.1104 38.6477 75.507 35.8831 71.2921 35.8831C67.655 35.8831 64.3252 38.0248 62.7919 41.282Z" fill="#00B0FB" fill-opacity="0.5"/>
<path d="M62.8866 63.9169C62.6162 63.0834 61.8753 62.5173 60.9997 62.4741L54.3264 62.1489L51.9554 55.9029C51.6449 55.0852 50.8777 54.5558 50 54.5558C49.1234 54.5558 48.3561 55.0841 48.0446 55.9029L45.6736 62.15L39.0003 62.4752C38.1247 62.5183 37.3838 63.0834 37.1133 63.918C36.8429 64.7515 37.1091 65.645 37.7922 66.1943L43.0005 70.3797L41.2472 76.8267C41.0178 77.6729 41.3272 78.5516 42.0354 79.0673C42.4038 79.3357 42.8331 79.4704 43.2636 79.4704C43.6603 79.4704 44.0581 79.3557 44.4096 79.1252L50 75.4649L55.5904 79.1241C56.3239 79.604 57.2553 79.5809 57.9646 79.0663C58.6739 78.5506 58.9833 77.6718 58.7528 76.8257L57.0006 70.3787L62.2078 66.1933C62.8909 65.6439 63.1582 64.7504 62.8866 63.9169ZM54.5474 68.377C53.8981 68.898 53.6203 69.7536 53.8392 70.5555L55.0694 75.0819L51.144 72.5119C50.4483 72.0573 49.5496 72.0573 48.8539 72.5119L44.9295 75.0808L46.1598 70.5534C46.3776 69.7515 46.0998 68.8959 45.4515 68.3749L41.7955 65.4356L46.4808 65.2072C47.3122 65.1672 48.0394 64.6378 48.3351 63.8612L50 59.4779L51.6649 63.8643C51.9606 64.6421 52.6878 65.1704 53.5182 65.2103L58.2035 65.4387L54.5474 68.377ZM19.7035 68.1371C19.4856 68.9401 19.7793 69.7746 20.4528 70.2629C20.8032 70.5176 21.2105 70.6449 21.6189 70.6449C21.9956 70.6449 22.3724 70.5365 22.707 70.3176L27.0356 67.4846L31.3641 70.3176C32.0597 70.7733 32.9448 70.7512 33.6173 70.2629C34.2898 69.7736 34.5834 68.939 34.3655 68.1371L33.0079 63.1455L37.0407 59.9041C37.689 59.3832 37.9416 58.535 37.6848 57.7436C37.428 56.9522 36.725 56.4154 35.8936 56.3744L30.7263 56.1229L28.8899 51.2871C28.5952 50.5104 27.867 50.0084 27.0345 50.0084C26.2021 50.0084 25.4738 50.5104 25.1791 51.2871L23.3427 56.1239L18.1754 56.3754C17.344 56.4165 16.6421 56.9532 16.3842 57.7446C16.1274 58.536 16.38 59.3832 17.0283 59.9052L21.06 63.1466L19.7035 68.1371ZM24.2193 59.1811C25.0076 59.1433 25.698 58.6413 25.979 57.9035L27.0345 55.1252L28.0901 57.9046C28.37 58.6423 29.0604 59.1443 29.8486 59.1822L32.8175 59.3264L30.5011 61.1881C29.8855 61.6827 29.6213 62.4941 29.8286 63.256L30.6085 66.1238L28.1227 64.4968C27.4618 64.0643 26.6083 64.0632 25.9474 64.4968L23.4606 66.1249L24.2404 63.256C24.4477 62.4941 24.1836 61.6827 23.569 61.1891L21.2526 59.3274L24.2193 59.1811ZM83.6158 57.7436C83.359 56.9522 82.656 56.4154 81.8246 56.3744L76.6573 56.1229L74.8209 51.286C74.5262 50.5094 73.7979 50.0074 72.9655 50.0074C72.133 50.0074 71.4048 50.5094 71.1101 51.286L69.2737 56.1229L64.1064 56.3744C63.275 56.4154 62.573 56.9522 62.3152 57.7436C62.0584 58.535 62.311 59.3821 62.9593 59.9041L66.9921 63.1455L65.6345 68.1381C65.4166 68.9411 65.7102 69.7757 66.3838 70.264C66.7342 70.5187 67.1415 70.646 67.5498 70.646C67.9266 70.646 68.3034 70.5376 68.638 70.3187L72.9665 67.4856L77.2951 70.3187C77.9918 70.7744 78.8758 70.7523 79.5483 70.264C80.2207 69.7746 80.5144 68.9401 80.2965 68.1381L78.9389 63.1466L82.9717 59.9052C83.62 59.3832 83.8736 58.535 83.6158 57.7436ZM76.4331 61.187C75.8175 61.6816 75.5533 62.4931 75.7607 63.255L76.5405 66.1228L74.0547 64.4958C73.7243 64.279 73.3454 64.1706 72.9665 64.1706C72.5877 64.1706 72.2099 64.279 71.8794 64.4947L69.3926 66.1228L70.1724 63.2539C70.3797 62.492 70.1156 61.6806 69.501 61.187L67.1836 59.3253L70.1524 59.1811C70.9407 59.1433 71.631 58.6413 71.912 57.9035L72.9665 55.1252L74.0221 57.9046C74.302 58.6423 74.9924 59.1443 75.7807 59.1822L78.7495 59.3264L76.4331 61.187ZM11.1738 72.5708C11.6042 73.3096 11.3548 74.2578 10.615 74.6883C10.3697 74.8314 10.1014 74.8987 9.83723 74.8987C9.30471 74.8987 8.78588 74.623 8.49752 74.1294C4.24688 66.8342 2 58.4897 2 50C2 37.1786 6.99259 25.1255 16.059 16.059C25.1244 6.99259 37.1786 2 50 2C60.2062 2 70.1587 5.27191 78.3496 11.2674L77.3487 7.75874C77.1141 6.93681 77.5908 6.08016 78.4127 5.84547C79.2346 5.61079 80.0913 6.08752 80.327 6.90945L82.6781 15.1497C82.8086 15.6075 82.7212 16.1001 82.4413 16.4852C82.1614 16.8704 81.7204 17.1051 81.2447 17.1219L72.6803 17.4292C72.6614 17.4303 72.6424 17.4303 72.6235 17.4303C71.7942 17.4303 71.1069 16.7736 71.0775 15.938C71.047 15.0834 71.7152 14.3657 72.5698 14.3352L77.0667 14.1731C69.3021 8.30704 59.7768 5.09722 50 5.09722C25.2402 5.09722 5.09722 25.2402 5.09722 50C5.09722 57.9425 7.19781 65.7471 11.1738 72.5708ZM98 50C98 62.8214 93.0074 74.8756 83.941 83.941C74.8756 93.0074 62.8214 98 50 98C39.7928 98 29.8413 94.7291 21.6515 88.7357L22.6513 92.2402C22.8859 93.0621 22.4092 93.9188 21.5873 94.1535C21.4452 94.1945 21.3021 94.2135 21.1621 94.2135C20.4886 94.2135 19.8677 93.7704 19.674 93.0895L17.323 84.8492C17.1925 84.3914 17.2798 83.8989 17.5597 83.5137C17.8397 83.1285 18.2806 82.8938 18.7563 82.877L27.3208 82.5697C28.1795 82.536 28.893 83.2075 28.9236 84.0609C28.9541 84.9155 28.2869 85.6332 27.4313 85.6638L22.9312 85.8258C30.6937 91.693 40.2211 94.9038 50 94.9038C74.7598 94.9038 94.9028 74.7609 94.9028 50.001C94.9028 42.0607 92.8011 34.2571 88.8252 27.4334C88.3947 26.6946 88.6441 25.7464 89.384 25.3159C90.1228 24.8855 91.071 25.1349 91.5014 25.8748C95.7531 33.169 98 41.5124 98 50ZM76.2816 33.8193C77.5708 32.5365 78.3696 30.7621 78.3696 28.8046C78.3696 24.9023 75.1945 21.7273 71.2911 21.7273C67.3888 21.7273 64.2137 24.9023 64.2137 28.8046C64.2137 30.7695 65.0188 32.5491 66.3154 33.833C64.0874 34.8086 62.1647 36.4198 60.8218 38.4773C59.3401 36.8229 57.4857 35.5169 55.3957 34.6834C57.0574 33.1974 58.1066 31.0399 58.1066 28.6405C58.1066 24.1699 54.4695 20.5338 50 20.5338C45.5294 20.5338 41.8934 24.1709 41.8934 28.6405C41.8934 31.0399 42.9415 33.1984 44.6043 34.6834C42.5132 35.5169 40.6599 36.8229 39.1771 38.4773C37.8342 36.4209 35.9115 34.8086 33.6836 33.833C34.9801 32.5491 35.7852 30.7695 35.7852 28.8046C35.7852 24.9023 32.6101 21.7273 28.7078 21.7273C24.8055 21.7273 21.6304 24.9023 21.6304 28.8046C21.6304 30.7621 22.4292 32.5365 23.7184 33.8193C19.7151 35.5579 16.7873 39.3339 16.2958 43.9287C16.2485 44.3654 16.3895 44.8011 16.6841 45.1284C16.9778 45.4547 17.3966 45.642 17.8355 45.642H35.7042C35.6484 45.9609 35.5989 46.2829 35.5642 46.6092C35.5169 47.0459 35.6579 47.4816 35.9526 47.8089C36.2462 48.1351 36.665 48.3225 37.1039 48.3225H62.8982C63.3371 48.3225 63.7559 48.1362 64.0495 47.8089C64.3432 47.4827 64.4842 47.0459 64.4379 46.6092C64.4032 46.2829 64.3537 45.9609 64.2979 45.642H82.1666C82.6055 45.642 83.0243 45.4557 83.3179 45.1284C83.6116 44.8011 83.7526 44.3654 83.7063 43.9287C83.2138 39.3339 80.2849 35.5579 76.2816 33.8193ZM67.3109 28.8046C67.3109 26.6093 69.0969 24.8234 71.2922 24.8234C73.4875 24.8234 75.2734 26.6093 75.2734 28.8046C75.2734 31 73.4875 32.7859 71.2922 32.7859C69.0969 32.7859 67.3109 31 67.3109 28.8046ZM44.9895 28.6394C44.9895 25.8769 47.2374 23.6289 50 23.6289C52.7626 23.6289 55.0105 25.8769 55.0105 28.6394C55.0105 31.402 52.7626 33.6488 50 33.6488C47.2374 33.6488 44.9895 31.402 44.9895 28.6394ZM24.7266 28.8046C24.7266 26.6093 26.5125 24.8234 28.7078 24.8234C30.9031 24.8234 32.6891 26.6093 32.6891 28.8046C32.6891 31 30.9031 32.7859 28.7078 32.7859C26.5125 32.7859 24.7266 31 24.7266 28.8046ZM19.7193 42.5448C20.8895 38.6478 24.493 35.882 28.7078 35.882C32.3449 35.882 35.6747 38.0247 37.2081 41.2819C36.9881 41.6913 36.7871 42.1123 36.6061 42.5448H19.7193ZM38.9582 45.2253C40.26 40.2874 44.738 36.7461 50 36.7461C55.262 36.7461 59.74 40.2874 61.0418 45.2253H38.9582ZM63.3939 42.5448C63.2129 42.1123 63.0119 41.6913 62.7919 41.2819C64.3253 38.0247 67.6551 35.8831 71.2922 35.8831C75.507 35.8831 79.1105 38.6478 80.2807 42.5458L63.3939 42.5448Z" fill="black"/>
</svg>
