<?xml version="1.0" encoding="utf-8"?>
<!-- Generator: Adobe Illustrator 24.3.0, SVG Export Plug-In . SVG Version: 6.00 Build 0)  -->
<svg version="1.1" id="Layer_1" xmlns="http://www.w3.org/2000/svg" xmlns:xlink="http://www.w3.org/1999/xlink" x="0px" y="0px"
	 width="1945.3px" height="599.7px" viewBox="0 0 1945.3 599.7" style="enable-background:new 0 0 1945.3 599.7;"
	 xml:space="preserve">
<style type="text/css">
	.st0{fill:#FFFFFF;}
</style>
<g>
	<path class="st0" d="M5,429.2L5,429.2L5,429.2z M170.5,5L170.5,5L170.5,5z M34.4,224.9v149.3l75-75L34.4,224.9z M374.2,35H224.9
		l75,75L374.2,35z M182.4,599.7L182.4,599.7h-0.6h-0.6h-0.6h-0.6h-0.6l0,0l0,0h-0.6H178h-0.6h-0.6h-0.6h-0.6h-0.6h-0.6l0,0l0,0h-0.6
		H173h-0.6l0,0l0,0l0,0l0,0l0,0c0,0-0.6,0-0.6-0.6l0,0l0,0l0,0l0,0l0,0l0,0l0,0L5,429.2l-0.6-0.6l0,0l0,0l0,0l0,0l0,0l0,0l0,0l0,0
		l0,0l0,0l0,0l0,0l0,0l0,0l0,0l0,0l0,0l0,0l0,0l0,0l0,0l0,0l0,0c-3.7-6.9-4.4-9.4-4.4-12.5V182.4v-0.6l0,0l0,0l0,0l0,0v-0.6v-0.6
		v-0.6l0,0l0,0v-0.6v-0.6V178v-0.6v-0.6v-0.6v-0.6v-0.6l0,0l0,0v-0.6l0,0l0,0l0,0v-0.6l0,0l0,0l0,0l0,0l0,0l0,0l0,0l0,0l0,0l0,0l0,0
		l0,0l0,0l0,0L169.9,5l0.6-0.6l0,0l0,0l0,0l0,0l0,0l0,0l0,0l0,0l0,0l0,0l0,0l0,0l0,0l0,0l0,0l0,0l0,0l0,0l0,0l0,0l0,0l0,0
		C177.4,0.6,179.9,0,183,0h234.3h0.6l0,0l0,0l0,0l0,0h0.6h0.6h0.6l0,0l0,0h0.6h0.6h0.6h0.6h0.6h0.6h0.6h0.6l0,0l0,0l0,0l0,0l0,0l0,0
		l0,0l0,0l0,0l0,0l0,0l0,0l0,0l0,0l0,0l0,0l0,0l0,0l0,0l0,0l0,0l0,0l0,0l0,0l0,0l165.5,165.5c6.9,6.9,6.9,18.1,0,25l-58.7,58.1
		C512.3,268,486,278,460.4,278c-25.6,0-51.2-10-71.2-29.4l-53.7-53.7c-6.9-6.9-6.9-18.1,0-25c6.9-6.9,18.1-6.9,25,0l53.7,53.7
		c12.5,12.5,29.4,19.4,46.2,19.4c16.9,0,33.1-6.2,46.2-19.4l46.2-46.2L416.1,42.5l-104.3,105L199.9,259.3c-6.9,6.9-18.1,6.9-25,0
		c-6.9-6.9-6.9-18.1,0-25l99.3-99.3l-91.8-93.1L41.9,182.4l216.8,216.8c6.9,6.9,6.9,18.1,0,25c-6.9,6.9-18.1,6.9-25,0l-100-100
		l-91.8,92.5l140.6,140.6l211.8-211.8c19.4-19.4,45.6-29.4,71.2-29.4s51.2,10,71.2,29.4l58.7,58.1l0,0l0,0l0,0l0,0l0,0l0,0l0,0l0,0
		l0,0l0,0l0,0l0,0v0.6v0.6v0.6v0.6v0.6v0.6v0.6v0.6v0.6v0.6v0.6v0.6v0.6v0.6v0.6v0.6v0.6v0.6v0.6v0.6c0,4.4-1.9,8.7-5,12.5
		L429.2,594.1l0,0l0,0l0,0l0,0l0,0l0,0l0,0l0,0l0,0l0,0l0,0l0,0l0,0l0,0l0,0l0,0l0,0l0,0l0,0l0,0l0,0l0,0l0,0l0,0
		c-2.5,1.2-5,1.9-8.1,1.9L182.4,599.7z M511.6,370.5c-13.1-12.5-29.4-19.4-46.2-19.4c-16.9,0-33.1,6.2-46.2,19.4L224.9,564.7h149.3
		L341.1,531c-6.9-6.9-6.9-18.1,0-25c6.9-6.9,18.1-6.9,25,0l51.2,51.2l140.6-140.6L511.6,370.5z"/>
	<path class="st0" d="M690.9,137.4c-15.6,0-28.1-3.7-36.9-11.2c-8.7-8.1-12.5-18.7-12.5-32.5c0-14.4,4.4-25,12.5-32.5
		c8.7-7.5,21.2-11.2,36.9-11.2c33.1,0,49.4,15,49.4,44.4S724,137.4,690.9,137.4z M690.9,535.4c-13.1,0-23.7-3.7-30.6-11.9
		c-6.9-8.1-10.6-19.4-10.6-33.1V244.9c0-30.6,13.7-45.6,41.2-45.6c28.1,0,41.9,15,41.9,45.6v245.5c0,14.4-3.7,25.6-10.6,33.1
		C715.3,531.6,704.7,535.4,690.9,535.4z"/>
	<path class="st0" d="M862.7,536.6c-28.7,0-42.5-14.4-42.5-42.5v-253c0-28.1,13.7-41.9,40.6-41.9c27.5,0,40.6,13.7,40.6,41.9v20.6
		c16.2-38.1,50.6-60,103.1-64.3c19.4-2.5,30,8.7,31.9,32.5c2.5,23.7-9.4,36.9-35,39.4l-15,1.2c-55,5.6-82.5,33.7-82.5,84.3v138.7
		C904.6,522.3,890.8,536.6,862.7,536.6z"/>
	<path class="st0" d="M1123.2,536.6c-27.5,0-41.2-14.4-41.2-42.5V96.2c0-28.1,13.7-41.9,41.2-41.9c28.1,0,41.9,13.7,41.9,41.9V343
		h1.2l110.6-116.2c8.7-8.7,16.9-15.6,23.1-20.6c6.9-5,15.6-7.5,27.5-7.5s20,3.1,26.2,9.4c6.2,5.6,9.4,13.1,9.4,21.2
		c0,8.7-3.7,16.9-11.9,25.6l-100.6,105.6L1362.5,481c8.1,8.7,11.9,16.9,10.6,26.2c-0.6,8.7-3.7,15.6-10.6,21.2
		c-6.9,5.6-15,8.1-25.6,8.1c-12.5,0-22.5-2.5-30-7.5c-6.9-5-15-12.5-24.4-21.9l-116.2-121.8h-1.2v108.1
		C1165.1,522.3,1151.3,536.6,1123.2,536.6z"/>
	<path class="st0" d="M1551.8,537.9c-74.3,0-111.8-41.9-111.8-124.9V96.2c0-28.1,13.7-41.9,41.2-41.9c28.1,0,41.9,13.7,41.9,41.9
		v312.4c0,40,16.9,60,50,60c3.7,0,6.9,0,10,0c3.1-0.6,6.2-0.6,9.4-1.2c6.2-0.6,10.6,0.6,12.5,5.6c2.5,3.7,3.1,12.5,3.1,25.6
		c0,11.2-2.5,20-6.9,26.2c-4.4,6.2-11.9,10-21.9,11.2C1571.1,537.2,1561.1,537.9,1551.8,537.9z"/>
	<path class="st0" d="M1811,537.9c-36.9,0-68.7-6.9-95.6-20.6s-47.5-33.1-62.5-58.7c-14.4-25.6-21.2-55.6-21.2-90
		c0-33.7,6.9-63.7,20.6-88.7c14.4-25.6,33.7-45,58.1-59.3c25-15,53.1-21.9,85-21.9c46.2,0,83.1,15,109.3,44.4
		c27.5,29.4,40.6,69.3,40.6,120.6c0,16.2-10.6,25-31.9,25h-201.8c6.2,58.1,39.4,87.5,100.6,87.5c11.9,0,24.4-1.2,38.7-3.7
		c15-3.1,28.7-8.1,41.2-15.6c11.9-6.9,21.2-8.7,29.4-6.2c8.1,2.5,13.7,6.9,16.9,13.7c3.7,6.9,3.7,15,1.2,24.4
		c-2.5,8.7-8.7,15.6-18.7,21.9c-15.6,10-33.7,16.9-54.3,21.9C1847.3,535.4,1828.5,537.9,1811,537.9z M1799.2,254.3
		c-24.4,0-44.4,7.5-59.3,22.5c-15,15-24.4,35.6-27.5,61.2h164.3c-1.9-27.5-9.4-48.1-22.5-62.5C1841,261.8,1822.9,254.3,1799.2,254.3
		z"/>
</g>
</svg>
