<?xml version="1.0" encoding="utf-8"?>
<!-- Generator: Adobe Illustrator 24.3.0, SVG Export Plug-In . SVG Version: 6.00 Build 0)  -->
<svg version="1.1" id="Layer_1" xmlns="http://www.w3.org/2000/svg" xmlns:xlink="http://www.w3.org/1999/xlink" x="0px" y="0px"
	 viewBox="0 0 379.4 376.1" style="enable-background:new 0 0 379.4 376.1;" xml:space="preserve">
<style type="text/css">
	.st0{fill:#00B0FB;}
	.st1{opacity:0.4;fill:#00B0FB;enable-background:new    ;}
	.st2{fill:#FFFFFF;}
</style>
<g>
	<path class="st0" d="M198.8,310.1c2.7,0.9,5.5,1.8,8.5,3.3c3.4,1.7,6.5,3.9,9.8,5.8c6.7,3.9,13.8,7,21,10.1
		c1.1,0.4,2.1,0.8,3.2,1.2c0,0,0.1,0,0.1,0c3.3-0.4,6.6-0.9,10-1.3c4.6-0.2,9.1,0.7,13.2,2.4c0-0.6-0.1-1.1-0.1-1.7
		c-0.1-2.8,0.1-5.4,0.7-8.1c-4.1,0.7-8.4,1-12.7,1c-15.8,0-30.4-4.9-42.5-13.1c-4.2-2.8-8-6-11.6-9.6
		c-13.7-13.8-22.2-32.9-22.2-53.9c0-14,3.7-27.1,10.2-38.4c1.9-3.3,4.1-6.4,6.4-9.4c5.1-6.4,11.3-12,18.2-16.6
		c3.4-2.2,7-4.2,10.7-5.9c8.5-3.8,17.9-6.1,27.8-6.5c1.2-0.1,2.4-0.1,3.6-0.1c1.5,0,3,0.1,4.5,0.2c-0.1-3.1,0.2-6.1,0.9-8.9
		c-0.1,0-0.3,0.1-0.4,0.1c-2.2,1.6-4.7,2.8-7.3,3.6c-4.5,2.3-9.3,3.4-14.5,3.2H230c-2.6,0-5.2-0.3-7.7-0.8c-0.3,0.3-0.7,0.5-1,0.8
		c-2.3,1.8-4.6,3.5-6.9,5.2c-10.2,8.5-20.3,18.2-33.6,21.2c0,0.1,0,0.3,0,0.4c-0.4,0.5-0.7,1-1.1,1.5c-21,30.4-20.3,70.1-0.6,99.6
		C187.3,298,193.8,303.4,198.8,310.1z"/>
	<g>
		<path class="st0" d="M198.8,310.1c2.7,0.9,5.5,1.8,8.5,3.3c3.4,1.7,6.5,3.9,9.8,5.8c6.7,3.9,13.8,7,21,10.1
			c1.1,0.4,2.1,0.8,3.2,1.2c0,0,0.1,0,0.1,0c3.3-0.4,6.6-0.9,10-1.3c4.6-0.2,9.1,0.7,13.2,2.4c0-0.6-0.1-1.1-0.1-1.7
			c-0.1-2.8,0.1-5.4,0.7-8.1c-4.1,0.7-8.4,1-12.7,1c-15.8,0-30.4-4.9-42.5-13.1c-4.2-2.8-8-6-11.6-9.6
			c-13.7-13.8-22.2-32.9-22.2-53.9c0-14,3.7-27.1,10.2-38.4c1.9-3.3,4.1-6.4,6.4-9.4c5.1-6.4,11.3-12,18.2-16.6
			c3.4-2.2,7-4.2,10.7-5.9c8.5-3.8,17.9-6.1,27.8-6.5c1.2-0.1,2.4-0.1,3.6-0.1c1.5,0,3,0.1,4.5,0.2c-0.1-3.1,0.2-6.1,0.9-8.9
			c-0.1,0-0.3,0.1-0.4,0.1c-2.2,1.6-4.7,2.8-7.3,3.6c-4.5,2.3-9.3,3.4-14.5,3.2H230c-2.6,0-5.2-0.3-7.7-0.8c-0.3,0.3-0.7,0.5-1,0.8
			c-2.3,1.8-4.6,3.5-6.9,5.2c-10.2,8.5-20.3,18.2-33.6,21.2c0,0.1,0,0.3,0,0.4c-0.4,0.5-0.7,1-1.1,1.5c-21,30.4-20.3,70.1-0.6,99.6
			C187.3,298,193.8,303.4,198.8,310.1z"/>
	</g>
	<path class="st1" d="M120.1,177.2c0,21.2,0,42.4,0,63.6c0,21.1,0,42.2,0,63.2c0,6.1-1.9,8-8.1,8c-11.9,0-23.7,0-35.6,0
		c-5.9,0-8-2-8-7.8c0-42.3,0-84.6,0-126.8c0-9.5,5.6-15.2,15.1-15.3c7.2-0.1,14.5-0.1,21.7,0C114.6,162.3,120.1,167.9,120.1,177.2z"
		/>
	<path class="st2" d="M246.6,20.3C242.8,5.7,227.8-3,213.1,0.9c-14.5,3.9-23,18.9-18.9,33.7c0.7,2.4,0.2,3.5-1.8,4.8
		c-14.3,9.9-28.6,20-42.8,30.1c-2.3,1.6-3.7,1.6-6.1,0c-17-11.7-40-1.2-42.3,19.3c-0.3,2.4-1.2,3.1-3.4,3.5
		c-14.3,3-28.5,6.1-42.7,9.4c-2.5,0.6-3.7,0-5-2.2c-6.2-10-17.9-14.8-29.1-12.1C7.1,90.7-1.5,103.3,0.2,117.7
		c1.6,13.1,13.4,23.3,27,23.3c14.1,0,25.2-10.1,27.1-24.5c0.1-1.1,1.4-2.5,2.4-2.8c3.4-1,7-1.7,10.5-2.4c12-2.6,24.1-5.2,36.1-7.8
		c0.8,1.3,1.4,2.3,2.1,3.4c6.4,9,15.1,13.5,26.1,12c17-2.3,27.1-18,22.8-34.6c-0.3-1.1,0-3.2,0.7-3.7c15.5-11.1,31.2-22,46.9-33
		c7.2,6,15.4,8.3,24.5,6.2C241.5,50.1,250.4,35.2,246.6,20.3z M27,129c-8.5-0.1-15-6.8-15-15.3c0.1-8.5,6.8-15.1,15.3-15
		c8.5,0.1,15,6.8,15,15.3C42.2,122.5,35.5,129,27,129z M128.1,107.1c-8.4,0-15.1-6.8-15.1-15.3c0-8.4,6.8-15.3,15.2-15.2
		c8.4,0,15.1,6.8,15.1,15.3C143.3,100.2,136.5,107.1,128.1,107.1z M220.5,42.3c-8.5,0.1-15.2-6.5-15.3-15c-0.1-8.5,6.5-15.3,15-15.3
		c8.5-0.1,15.2,6.5,15.3,15C235.5,35.5,228.9,42.2,220.5,42.3z"/>
	<path class="st0" d="M308.9,246.1c0,33.1-26.9,60-60,60c-33.1,0-60-26.8-60-60c0-33.1,26.9-60,60-60
		C282,186.1,308.9,213,308.9,246.1z"/>
	<path class="st0" d="M372.8,338.6c-14.9-14.9-29.8-29.8-44.7-44.7c-0.9-0.9-1.8-1.9-2.6-2.8c25.3-44.6,8.9-98-32.6-121.9
		c-11.2-6.5-23.4-10.2-35.6-11.3c0-19.6,0.1-50.7,0-64.1c-0.1-8.6-5.9-14.2-14.5-14.2c-7.1-0.1-14.2,0-21.3,0
		c-10.2,0-15.7,5.5-15.7,15.8c0,8.9,0,17.7,0,26.6c0,7.3,0,33.1,0,46.8c-6,3.4-11.7,7.4-16.9,12.2c0-12.8,0-27.7,0-31.7
		c-0.1-8.9-5.9-14.8-14.8-14.9c-7.4-0.1-14.7-0.1-22.1,0c-9,0.1-14.7,5.9-14.7,14.8c0,51.8,0,103.6,0,155.3c0,5.5,2,7.5,7.4,7.6
		c5.2,0,30.2,0,45,0c0.9,0.9,1.9,1.7,2.9,2.5c28.9,23.8,69.8,26.9,102,7.6c13,13.1,35.8,35.9,48.1,48c5.2,5.2,11.8,7,19,5.5
		c8.5-1.8,14.3-7.1,16.8-15.3C380.8,352.1,378.9,344.7,372.8,338.6z M217.7,96.2c0-4.7,0.1-4.8,4.9-4.8h18c4.7,0,4.8,0.1,4.8,4.9
		c0,12.5,0,42.3,0,61.2c-9.4,0.4-18.8,2.3-27.6,5.6C217.7,142.3,217.7,110.3,217.7,96.2z M149.5,300.1c-0.2-0.9-0.3-1.3-0.3-1.7
		c0-49.5,0-99.1-0.1-148.6c0-2.9,1.3-3.6,3.9-3.6c6.6,0.1,13.2,0.1,19.8,0c3.2-0.1,4.1,1.3,4,4.3c-0.1,5.1-0.1,31.2-0.1,43.9
		c-0.4,0.5-0.7,1-1.1,1.5c-22.2,32-20.2,74.3,2.7,104.2C166.1,300.1,152.5,300.1,149.5,300.1z M248.4,322.8
		c-15.8,0-30.4-4.9-42.5-13.1c-4.2-2.8-8-6-11.6-9.6c-13.7-13.8-22.2-32.9-22.2-53.9c0-14,3.7-27.1,10.2-38.4
		c1.9-3.3,4.1-6.4,6.4-9.4c5.1-6.4,11.3-12,18.2-16.6c3.4-2.2,7-4.2,10.7-5.9c8.5-3.8,17.9-6.1,27.8-6.5c1.2-0.1,2.4-0.1,3.6-0.1
		c2.8,0,5.5,0.2,8.1,0.5c38.5,4.2,68.4,36.9,68.3,76.4C325.4,288.8,291,322.9,248.4,322.8z"/>
	<g>
		<path d="M372.8,338.6c-14.9-14.9-29.8-29.8-44.7-44.7c-0.9-0.9-1.8-1.9-2.6-2.8c25.3-44.6,8.9-98-32.6-121.9
			c-11.2-6.5-23.4-10.2-35.6-11.3c0-19.6,0.1-50.7,0-64.1c-0.1-8.6-5.9-14.2-14.5-14.2c-7.1-0.1-14.2,0-21.3,0
			c-10.2,0-15.7,5.5-15.7,15.8c0,8.9,0,17.7,0,26.6c0,7.3,0,33.1,0,46.8c-6,3.4-11.7,7.4-16.9,12.2c0-12.8,0-27.7,0-31.7
			c-0.1-8.9-5.9-14.8-14.8-14.9c-7.4-0.1-14.7-0.1-22.1,0c-9,0.1-14.7,5.9-14.7,14.8c0,51.8,0,103.6,0,155.3c0,5.5,2,7.5,7.4,7.6
			c5.2,0,30.2,0,45,0c0.9,0.9,1.9,1.7,2.9,2.5c28.9,23.8,69.8,26.9,102,7.6c13,13.1,35.8,35.9,48.1,48c5.2,5.2,11.8,7,19,5.5
			c8.5-1.8,14.3-7.1,16.8-15.3C380.8,352.1,378.9,344.7,372.8,338.6z M217.7,96.2c0-4.7,0.1-4.8,4.9-4.8h18c4.7,0,4.8,0.1,4.8,4.9
			c0,12.5,0,42.3,0,61.2c-9.4,0.4-18.8,2.3-27.6,5.6C217.7,142.3,217.7,110.3,217.7,96.2z M149.5,300.1c-0.2-0.9-0.3-1.3-0.3-1.7
			c0-49.5,0-99.1-0.1-148.6c0-2.9,1.3-3.6,3.9-3.6c6.6,0.1,13.2,0.1,19.8,0c3.2-0.1,4.1,1.3,4,4.3c-0.1,5.1-0.1,31.2-0.1,43.9
			c-0.4,0.5-0.7,1-1.1,1.5c-22.2,32-20.2,74.3,2.7,104.2C166.1,300.1,152.5,300.1,149.5,300.1z M248.4,322.8
			c-15.8,0-30.4-4.9-42.5-13.1c-4.2-2.8-8-6-11.6-9.6c-13.7-13.8-22.2-32.9-22.2-53.9c0-14,3.7-27.1,10.2-38.4
			c1.9-3.3,4.1-6.4,6.4-9.4c5.1-6.4,11.3-12,18.2-16.6c3.4-2.2,7-4.2,10.7-5.9c8.5-3.8,17.9-6.1,27.8-6.5c1.2-0.1,2.4-0.1,3.6-0.1
			c2.8,0,5.5,0.2,8.1,0.5c38.5,4.2,68.4,36.9,68.3,76.4C325.4,288.8,291,322.9,248.4,322.8z M359.9,363.6c-4.2,1.2-7.5-0.4-10.4-3.4
			c-11.2-11.2-32.2-32.3-45.1-45.1c5-4,9.8-8.6,14.1-13.9c1.2,1.1,2.2,2,3.1,3c13.5,13.5,27,27,40.5,40.5c0.9,0.9,1.8,1.7,2.6,2.7
			C369.6,353.2,367.1,361.6,359.9,363.6z"/>
		<path d="M246.6,20.3C242.8,5.7,227.8-3,213.1,0.9c-14.5,3.9-23,18.9-18.9,33.7c0.7,2.4,0.2,3.5-1.8,4.8
			c-14.3,9.9-28.6,20-42.8,30.1c-2.3,1.6-3.7,1.6-6.1,0c-17-11.7-40-1.2-42.3,19.3c-0.3,2.4-1.2,3.1-3.4,3.5
			c-14.3,3-28.5,6.1-42.7,9.4c-2.5,0.6-3.7,0-5-2.2c-6.2-10-17.9-14.8-29.1-12.1C7.1,90.7-1.5,103.3,0.2,117.7
			c1.6,13.1,13.4,23.3,27,23.3c14.1,0,25.2-10.1,27.1-24.5c0.1-1.1,1.4-2.5,2.4-2.8c3.4-1,7-1.7,10.5-2.4c12-2.6,24.1-5.2,36.1-7.8
			c0.8,1.3,1.4,2.3,2.1,3.4c6.4,9,15.1,13.5,26.1,12c17-2.3,27.1-18,22.8-34.6c-0.3-1.1,0-3.2,0.7-3.7c15.5-11.1,31.2-22,46.9-33
			c7.2,6,15.4,8.3,24.5,6.2C241.5,50.1,250.4,35.2,246.6,20.3z M27,129c-8.5-0.1-15-6.8-15-15.3c0.1-8.5,6.8-15.1,15.3-15
			c8.5,0.1,15,6.8,15,15.3C42.2,122.5,35.5,129,27,129z M128.1,107.1c-8.4,0-15.1-6.8-15.1-15.3c0-8.4,6.8-15.3,15.2-15.2
			c8.4,0,15.1,6.8,15.1,15.3C143.3,100.2,136.5,107.1,128.1,107.1z M220.5,42.3c-8.5,0.1-15.2-6.5-15.3-15
			c-0.1-8.5,6.5-15.3,15-15.3c8.5-0.1,15.2,6.5,15.3,15C235.5,35.5,228.9,42.2,220.5,42.3z"/>
		<path d="M120.1,177.2c0-9.3-5.5-15-14.8-15.1c-7.2-0.1-14.5-0.1-21.7,0c-9.5,0.2-15.1,5.8-15.1,15.3c0,42.3,0,84.6,0,126.8
			c0,5.8,2.1,7.8,8,7.8c11.9,0,23.7,0,35.6,0c6.2,0,8.1-1.9,8.1-8c0-21.1,0-42.2,0-63.2C120.1,219.6,120.1,198.4,120.1,177.2z
			 M108.1,298.1c0,0.5-0.1,1-0.2,1.7H80.5V179.5c0-5.4,0.1-5.4,5.4-5.4c6.2,0,12.5,0,18.7,0c2.5,0,3.6,0.9,3.6,3.5
			C108.1,217.7,108.1,257.9,108.1,298.1z"/>
		<path d="M51.6,196.4c0-8.8-6-14.3-14.8-14.4c-7,0-14,0-21,0C5.4,182.1,0,187.4,0,197.7c0,17.5,0,34.9,0,52.4c0,18.1,0,36.2,0,54.3
			c0,5.7,2,7.6,7.7,7.7c12.2,0,24.5,0.1,36.7,0c5,0,7.2-2.2,7.2-7.1C51.6,268.8,51.7,232.6,51.6,196.4z M39.6,297.3
			c0,1.7-0.2,2.9-2.4,2.8c-8.2-0.1-16.4,0-25.3,0v-101c0-5,0-5,4.9-5.1c6.2,0,12.5,0.1,18.7,0c2.9-0.1,4.1,0.9,4.1,3.8
			C39.6,231,39.6,264.1,39.6,297.3z"/>
		<path d="M248.9,186.1c-33.1,0-60,26.9-60,60c0,33.1,26.9,60,60,60c33.1,0,60-26.8,60-60C308.9,213,282,186.1,248.9,186.1z
			 M248.9,294.1c-26.5,0-48-21.5-48-48c0-26.5,21.5-48,48-48s48,21.5,48,48C296.9,272.6,275.4,294.1,248.9,294.1z"/>
	</g>
</g>
</svg>
