<?xml version="1.0" encoding="utf-8"?>
<!-- Generator: Adobe Illustrator 24.3.0, SVG Export Plug-In . SVG Version: 6.00 Build 0)  -->
<svg version="1.1" id="Layer_1" xmlns="http://www.w3.org/2000/svg" xmlns:xlink="http://www.w3.org/1999/xlink" x="0px" y="0px"
	 width="4230.9px" height="1415.7px" viewBox="0 0 4230.9 1415.7" style="enable-background:new 0 0 4230.9 1415.7;"
	 xml:space="preserve">
<style type="text/css">
	.st0{fill:#222222;}
	.st1{fill:#F54EA3;}
</style>
<g>
	<g>
		<path class="st0" d="M787.8,1200.4H360.5L292,1402.7H0L414.3,257.6h323l414.3,1145.1H856.3L787.8,1200.4z M716.1,985.1
			L574.2,565.9L433.9,985.1H716.1z"/>
		<path class="st0" d="M2583.7,492.5l-246.3,910.2h-308.3l-143.5-590.5l-148.4,590.5h-306.7l-247.9-910.2h278.9l128.9,650.8
			l153.3-650.8h295.2l155,647.6l127.2-647.6H2583.7z"/>
		<path class="st0" d="M2687.3,699.7c35.3-70.7,83.4-125,144.4-163.1c60.9-38.1,128.9-57.1,203.9-57.1c64.2,0,120.4,13.1,168.8,39.2
			c48.4,26.1,85.6,60.3,111.7,102.8V492.5H3595v910.2h-278.9v-128.9c-27.2,42.4-65,76.7-113.4,102.8
			c-48.4,26.1-104.7,39.2-168.8,39.2c-74,0-141.4-19.3-202.3-57.9c-60.9-38.6-109-93.5-144.4-164.7c-35.3-71.2-53-153.6-53-247.1
			C2634.3,852.5,2652,770.4,2687.3,699.7z M3258.2,782.9c-38.6-40.2-85.6-60.4-141.1-60.4c-55.5,0-102.5,19.9-141.1,59.5
			c-38.6,39.7-57.9,94.3-57.9,163.9c0,69.6,19.3,124.8,57.9,165.6c38.6,40.8,85.6,61.2,141.1,61.2c55.5,0,102.5-20.1,141.1-60.3
			c38.6-40.2,57.9-95.1,57.9-164.7C3316.1,878,3296.8,823.1,3258.2,782.9z"/>
	</g>
	<circle class="st1" cx="4015.9" cy="215" r="215"/>
</g>
</svg>
