<svg width="100" height="100" viewBox="0 0 100 100" fill="none" xmlns="http://www.w3.org/2000/svg">
<ellipse cx="49.9981" cy="16.8018" rx="10.2479" ry="10.2479" fill="#00B0FB"/>
<ellipse cx="75.6177" cy="19.8763" rx="4.09915" ry="4.09915" fill="#00B0FB" fill-opacity="0.5"/>
<ellipse cx="18.2295" cy="44.4712" rx="4.09915" ry="4.09915" fill="#00B0FB" fill-opacity="0.5"/>
<path fill-rule="evenodd" clip-rule="evenodd" d="M52.316 91.2756C52.4931 91.6202 52.916 91.756 53.2606 91.5789L94.2116 70.5332C94.5562 70.3561 94.692 69.9331 94.5149 69.5885C94.3378 69.2439 93.9148 69.1081 93.5702 69.2852L54.65 89.2873C53.9736 89.6349 53.1903 89.7127 52.4587 89.5048L20.2882 80.3633C20.2828 80.3618 20.2791 80.3569 20.2791 80.3513C20.2791 80.3444 20.2735 80.3388 20.2666 80.3388H20.2019H14.6641C14.3693 80.3388 14.1304 80.5777 14.1304 80.8725C14.1304 81.1501 14.3431 81.3813 14.6198 81.4044L20.1747 81.8673C20.2309 81.8719 20.2791 81.8276 20.2791 81.7712C20.2791 81.7074 20.3399 81.6613 20.4013 81.6783L52.0511 90.4677C52.1209 90.4871 52.1306 90.5821 52.0662 90.6152C52.027 90.6353 52.0116 90.6833 52.0317 90.7224L52.316 91.2756Z" fill="#00B0FB"/>
<rect x="4.90747" y="62.9172" width="7.17352" height="24.5949" fill="#00B0FB"/>
<path d="M15.0835 67.0246C18.5943 62.2489 23.554 58.7182 29.0022 57.0609C34.5344 55.3756 40.5669 55.6117 46.1192 58.4139L60.1742 66.5282C61.6474 67.3728 62.6321 68.742 63.0404 70.259C63.2406 71.0076 63.3007 71.8002 63.2086 72.5808L73.8766 69.1421L87.6908 61.8806C89.1679 61.104 90.8292 60.9439 92.3263 61.3482C93.8274 61.7485 95.1684 62.7092 96.0092 64.1663L97.174 66.1919C98.0267 67.6571 98.1948 69.3304 97.7905 70.8515C97.3822 72.3687 96.3974 73.7378 94.9323 74.5824L54.7729 94.9705C54.2965 95.2107 53.7761 95.2468 53.2998 95.1146L18.997 85.5073H15.086V88.3975C15.086 89.5304 14.1693 90.4471 13.0365 90.4471H4.04958C2.91667 90.4471 2 89.5303 2 88.3975V61.713C2 60.5801 2.9167 59.6634 4.04958 59.6634H13.0365C14.1694 59.6634 15.086 60.5801 15.086 61.713V67.0291L15.0835 67.0246ZM17.7736 36.8897C19.7432 36.8897 21.5245 37.6903 22.8175 38.9793C23.3619 39.5238 23.8223 40.1602 24.1666 40.8607L29.2224 40.0001C30.3633 37.31 32.0126 34.8841 34.0501 32.8466C34.4584 32.4382 34.8828 32.0459 35.3231 31.6697L19.9277 21.9222C18.6747 23.011 17.0375 23.6755 15.2481 23.6755C13.2786 23.6755 11.4932 22.8749 10.2042 21.5859C8.91525 20.2969 8.11458 18.5115 8.11458 16.542C8.11458 14.5724 8.9152 12.787 10.2042 11.4981C11.4932 10.2091 13.2786 9.40842 15.2481 9.40842C17.2177 9.40842 18.9991 10.209 20.292 11.4981C21.581 12.787 22.3817 14.5724 22.3817 16.542C22.3817 17.2105 22.2896 17.859 22.1175 18.4714L38.9547 29.1272C40.3598 28.3386 41.8569 27.6901 43.4302 27.2137C42.5976 26.7013 41.833 26.0928 41.1444 25.4043C38.8787 23.1386 37.4736 20.0002 37.4736 16.5376C37.4736 13.0749 38.8787 9.94049 41.1444 7.67079C43.4101 5.40509 46.5485 4 50.0112 4C53.4738 4 56.6082 5.40509 58.8779 7.67079C61.1437 9.93649 62.5487 13.0749 62.5487 16.5376C62.5487 20.0002 61.1437 23.1346 58.8779 25.4043C58.1934 26.0889 57.4248 26.7013 56.5922 27.2137C57.8412 27.594 59.046 28.0784 60.1949 28.6629L68.7294 22.4941C68.4733 21.7576 68.3331 20.965 68.3331 20.1443C68.3331 18.1748 69.1338 16.3894 70.4228 15.1004C71.7118 13.8114 73.4971 13.0108 75.4667 13.0108C77.4362 13.0108 79.2176 13.8114 80.5106 15.1004C81.7996 16.3894 82.6002 18.1748 82.6002 20.1443C82.6002 22.1138 81.7996 23.8952 80.5106 25.1882C79.2216 26.4772 77.4362 27.2779 75.4667 27.2779C73.8334 27.2779 72.3283 26.7294 71.1233 25.8047L63.9017 31.0248C64.6263 31.5932 65.3148 32.2017 65.9633 32.8501C68.161 35.0478 69.9104 37.7019 71.0512 40.6522L80.3784 42.5136C80.7106 41.8851 81.135 41.3126 81.6354 40.8163C82.9244 39.5273 84.7098 38.7267 86.6793 38.7267C88.6488 38.7267 90.4302 39.5273 91.7232 40.8163C93.0122 42.1053 93.8129 43.8907 93.8129 45.8602C93.8129 47.8298 93.0122 49.6112 91.7232 50.9041C90.4342 52.1931 88.6488 52.9938 86.6793 52.9938C84.7098 52.9938 82.9244 52.1932 81.6354 50.9041C80.4945 49.7632 79.7379 48.2341 79.5778 46.5328L72.2642 45.0757C72.4644 46.2886 72.5685 47.5335 72.5685 48.8025C72.5685 49.9354 71.6518 50.8521 70.5189 50.8521H29.5069C28.374 50.8521 27.4573 49.9354 27.4573 48.8025C27.4573 47.2893 27.6054 45.8122 27.8896 44.3831L24.8673 44.8955C24.6712 46.5167 23.9266 47.9699 22.8297 49.0667C21.5408 50.3557 19.7554 51.1563 17.7858 51.1563C15.8163 51.1563 14.0309 50.3557 12.7419 49.0667C11.453 47.7777 10.6523 45.9923 10.6523 44.0228C10.6523 42.0533 11.4529 40.2679 12.7419 38.9789C14.0309 37.6899 15.8163 36.8892 17.7858 36.8892L17.7736 36.8897ZM19.9193 41.8775C19.3709 41.3291 18.6104 40.9888 17.7736 40.9888C16.937 40.9888 16.1764 41.3291 15.6279 41.8775C15.0795 42.426 14.7392 43.1865 14.7392 44.0232C14.7392 44.86 15.0795 45.6205 15.6279 46.1689C16.1763 46.7174 16.9369 47.0576 17.7736 47.0576C18.6103 47.0576 19.3709 46.7174 19.9193 46.1689C20.4677 45.6205 20.808 44.86 20.808 44.0232C20.808 43.1865 20.4677 42.426 19.9193 41.8775ZM88.8086 43.715C88.2602 43.1666 87.4997 42.8263 86.6629 42.8263C85.8262 42.8263 85.0657 43.1666 84.5172 43.715C83.9688 44.2634 83.6285 45.0239 83.6285 45.8607C83.6285 46.6973 83.9688 47.4579 84.5172 48.0064C85.0657 48.5548 85.8262 48.8951 86.6629 48.8951C87.4997 48.8951 88.2602 48.5548 88.8086 48.0064C89.3571 47.458 89.6973 46.6974 89.6973 45.8607C89.6973 45.024 89.3571 44.2635 88.8086 43.715ZM77.5964 18.0031C77.048 17.4546 76.2875 17.1144 75.4507 17.1144C74.6141 17.1144 73.8535 17.4546 73.305 18.0031C72.7566 18.5515 72.4163 19.312 72.4163 20.1488C72.4163 20.9855 72.7566 21.746 73.305 22.2945C73.8535 22.8429 74.614 23.1831 75.4507 23.1831C76.2874 23.1831 77.048 22.8429 77.5964 22.2945C78.1449 21.746 78.4851 20.9855 78.4851 20.1488C78.4851 19.312 78.1449 18.5515 77.5964 18.0031ZM17.386 14.4003C16.8376 13.8519 16.0771 13.5116 15.2403 13.5116C14.4037 13.5116 13.6431 13.8519 13.0946 14.4003C12.5462 14.9487 12.206 15.7093 12.206 16.546C12.206 17.3827 12.5462 18.1432 13.0946 18.6917C13.6431 19.2401 14.4036 19.5804 15.2403 19.5804C16.077 19.5804 16.8376 19.2401 17.386 18.6917C17.9345 18.1433 18.2747 17.3827 18.2747 16.546C18.2747 15.7093 17.9345 14.9488 17.386 14.4003ZM37.4575 46.7488V42.9178C37.4575 41.7849 38.3742 40.8682 39.5071 40.8682C40.64 40.8682 41.5567 41.7849 41.5567 42.9178V46.7488H49.9953H58.4339V42.9178C58.4339 41.7849 59.3506 40.8682 60.4835 40.8682C61.6164 40.8682 62.5331 41.7849 62.5331 42.9178V46.7488H68.3416C68.2015 45.4798 67.9333 44.2468 67.549 43.07L67.541 43.042C66.6283 40.2599 65.071 37.7699 63.0495 35.7483C59.711 32.4098 55.0954 30.3442 49.9999 30.3442C44.9043 30.3442 40.2884 32.4098 36.9502 35.7483C34.064 38.6346 32.1305 42.4735 31.6581 46.7484H37.4666L37.4575 46.7488ZM55.9642 10.5768C54.439 9.05163 52.3254 8.10688 49.9956 8.10688C47.6659 8.10688 45.5562 9.05161 44.027 10.5768C42.5019 12.102 41.5571 14.2156 41.5571 16.5454C41.5571 18.8751 42.5018 20.9848 44.027 22.514C45.5522 24.0392 47.6659 24.9839 49.9956 24.9839C52.3254 24.9839 54.435 24.0392 55.9642 22.514C57.4894 20.9888 58.4341 18.8751 58.4341 16.5454C58.4341 14.2156 57.4894 12.106 55.9642 10.5768ZM15.0803 81.403H19.2555C19.4396 81.407 19.6237 81.431 19.8079 81.4831L53.63 90.9544L92.9081 71.0151C93.3764 70.7348 93.6967 70.2825 93.8288 69.7861C93.9649 69.2737 93.9088 68.7133 93.6286 68.229L92.4637 66.2074C92.1915 65.735 91.7512 65.4228 91.2628 65.2907C90.7264 65.1466 90.1259 65.2066 89.5895 65.4908L75.6309 72.8325L75.3026 72.9686L60.767 77.6522C59.9264 78.721 58.7775 79.4576 57.5285 79.7898C56.0113 80.1981 54.334 80.026 52.8649 79.1773L38.9063 71.1191C37.9295 70.5547 37.5973 69.3017 38.1617 68.3249C38.7261 67.3481 39.9791 67.016 40.9559 67.5803L54.9145 75.6386C55.3989 75.9188 55.9593 75.9708 56.4717 75.8347C56.9841 75.6986 57.4404 75.3704 57.7166 74.89L58.8815 72.8604C59.1617 72.376 59.2137 71.8156 59.0816 71.3032C58.9455 70.7948 58.6133 70.3345 58.1289 70.0542L44.2778 62.0521C39.7144 59.7503 34.7465 59.5581 30.1788 60.9512C25.3071 62.4364 20.8837 65.7149 17.8609 70.1583C17.5006 70.7428 16.8521 71.1351 16.1156 71.1351H15.0748V81.3912L15.0803 81.403ZM10.9811 63.7572H6.09339V86.3425H10.9811V63.7572Z" fill="black"/>
</svg>
