<svg width="100" height="100" viewBox="0 0 100 100" fill="none" xmlns="http://www.w3.org/2000/svg">
<path d="M82 85.2V94.8H94.7998L94.8 85.2H82Z" fill="#00B0FB"/>
<path d="M6.2002 17V81H95.8002" stroke="#00B0FB" stroke-width="2"/>
<path d="M14.8002 85.2H5.2002V94.8L14.7998 94.8L14.8002 85.2Z" fill="#00B0FB"/>
<path d="M94.7998 14.8V5.19995H5.2002V14.8L94.7998 14.8Z" fill="#00B0FB" fill-opacity="0.5"/>
<path d="M3.6 98.15H96.4C96.8641 98.15 97.3092 97.9656 97.6374 97.6374C97.9656 97.3092 98.15 96.8641 98.15 96.4V3.6C98.15 3.13587 97.9656 2.69075 97.6374 2.36256C97.3092 2.03437 96.8641 1.85 96.4 1.85H3.6C3.13587 1.85 2.69075 2.03437 2.36256 2.36256C2.03437 2.69075 1.85 3.13587 1.85 3.6V96.4C1.85 96.8641 2.03437 97.3092 2.36256 97.6374C2.69075 97.9656 3.13587 98.15 3.6 98.15ZM5.35 85.35H14.65V94.65H5.35V85.35ZM78.65 85.35V94.65H18.15V85.35H78.65ZM5.35 81.85V18.15H94.65V81.85H5.35ZM82.15 94.65V85.35H94.65V94.65H82.15ZM94.65 5.35V14.65H5.35V5.35H94.65Z" fill="black" stroke="black" stroke-width="0.3"/>
<path d="M9.9999 11.7999C10.994 11.7999 11.7999 10.994 11.7999 9.9999C11.7999 9.00579 10.994 8.1999 9.9999 8.1999C9.00579 8.1999 8.1999 9.00579 8.1999 9.9999C8.1999 10.994 9.00579 11.7999 9.9999 11.7999Z" fill="black" stroke="black" stroke-width="0.4"/>
<path d="M16.3998 11.7999C17.3939 11.7999 18.1998 10.994 18.1998 9.9999C18.1998 9.00579 17.3939 8.1999 16.3998 8.1999C15.4057 8.1999 14.5998 9.00579 14.5998 9.9999C14.5998 10.994 15.4057 11.7999 16.3998 11.7999Z" fill="black" stroke="black" stroke-width="0.4"/>
<path d="M22.8002 11.7999C23.7943 11.7999 24.6002 10.994 24.6002 9.9999C24.6002 9.00579 23.7943 8.1999 22.8002 8.1999C21.8061 8.1999 21.0002 9.00579 21.0002 9.9999C21.0002 10.994 21.8061 11.7999 22.8002 11.7999Z" fill="black" stroke="black" stroke-width="0.4"/>
<path d="M79.0056 55.3377C78.6759 55.8309 78.5 56.4107 78.5 57.0039C78.5009 57.7991 78.8175 58.5615 79.3799 59.1238C79.9423 59.686 80.7046 60.0023 81.5 60.0033C82.0933 60.0033 82.6732 59.8274 83.1665 59.4979C83.6599 59.1683 84.0444 58.6998 84.2715 58.1518C84.4985 57.6038 84.5579 57.0007 84.4421 56.4189C84.3264 55.8372 84.0411 55.3028 83.6215 54.8833C83.2019 54.4639 82.6673 54.1782 82.0854 54.0625C81.5034 53.9468 80.8999 54.0062 80.3517 54.2332C79.8036 54.4602 79.3352 54.8444 79.0056 55.3377Z" fill="#00B0FB" fill-opacity="0.5"/>
<path d="M77 69.0007H86L86.0002 67.5012C86.0002 66.308 85.5259 65.1638 84.682 64.3201C83.8381 63.4764 82.6933 63.0024 81.4998 63.0024C80.3064 63.0024 79.1619 63.4764 78.318 64.3201C77.4741 65.1638 77 66.3081 77 67.5012V69.0007Z" fill="#00B0FB" fill-opacity="0.5"/>
<path d="M85.694 61.288C86.5468 60.4546 87.1318 59.3861 87.3745 58.2189C87.6171 57.0516 87.5063 55.8386 87.0563 54.7345C86.6062 53.6305 85.8373 52.6856 84.8476 52.0204C83.858 51.3553 82.6925 51 81.5 51C80.3075 51 79.142 51.3553 78.1524 52.0204C77.1627 52.6856 76.3938 53.6305 75.9437 54.7345C75.4937 55.8386 75.3829 57.0516 75.6255 58.2189C75.8682 59.3861 76.4532 60.4546 77.306 61.288C76.2884 61.974 75.4548 62.8993 74.8784 63.9826C74.3019 65.0659 74.0003 66.2742 74 67.5012V70.5004C74 70.8981 74.158 71.2795 74.4393 71.5608C74.7206 71.842 75.1022 72 75.5 72H87.5C87.8978 72 88.2794 71.842 88.5607 71.5608C88.842 71.2795 89 70.8981 89 70.5004V67.5012C88.9997 66.2742 88.6981 65.0659 88.1216 63.9826C87.5452 62.8993 86.7116 61.974 85.694 61.288ZM78.5 57.004C78.5 56.4108 78.6759 55.831 79.0056 55.3377C79.3352 54.8445 79.8038 54.4601 80.352 54.2331C80.9001 54.0061 81.5033 53.9467 82.0853 54.0624C82.6672 54.1782 83.2018 54.4638 83.6213 54.8832C84.0409 55.3027 84.3266 55.8371 84.4424 56.4189C84.5581 57.0007 84.4987 57.6037 84.2716 58.1517C84.0446 58.6998 83.6601 59.1682 83.1667 59.4978C82.6734 59.8273 82.0933 60.0032 81.5 60.0032C80.7046 60.0023 79.9421 59.686 79.3797 59.1237C78.8173 58.5615 78.5009 57.7992 78.5 57.004ZM86 69.0008H77V67.5012C77 66.308 77.4741 65.1638 78.318 64.3201C79.1619 63.4764 80.3065 63.0024 81.5 63.0024C82.6935 63.0024 83.8381 63.4764 84.682 64.3201C85.5259 65.1638 86 66.308 86 67.5012V69.0008Z" fill="black"/>
<path d="M65.561 64.5001C65.561 64.1755 65.6654 63.8597 65.8586 63.6001L68.5366 60L67.0486 59.9999C66.654 59.9999 66.2758 59.842 65.9968 59.5607C65.7178 59.2794 65.561 58.8978 65.561 58.5L65.5608 55.5001C65.5603 55.1024 65.4037 54.721 65.1248 54.4398C64.8459 54.1586 64.4676 54.0004 64.0731 54H16.4637C16.0692 54.0004 15.6908 54.1587 15.4118 54.4399C15.1329 54.7211 14.976 55.1023 14.9756 55.5V67.5C14.976 67.8977 15.1332 68.2789 15.4121 68.5601C15.691 68.8413 16.0689 68.9996 16.4634 69L64.0732 68.9999C64.4677 68.9994 64.8456 68.8414 65.1245 68.5602C65.4034 68.279 65.5606 67.8977 65.561 67.5V64.5001Z" fill="#00B0FB"/>
<path d="M71.5122 57H68.5366V55.5C68.5353 54.3069 68.0646 53.1631 67.2278 52.3195C66.3911 51.4759 65.2565 51.0013 64.0732 51H16.4634C15.2801 51.0013 14.1455 51.4759 13.3088 52.3195C12.472 53.1631 12.0013 54.3069 12 55.5V67.5C12.0013 68.6931 12.472 69.8369 13.3088 70.6805C14.1455 71.5241 15.2801 71.9987 16.4634 72H64.0732C65.2565 71.9987 66.3911 71.5241 67.2278 70.6805C68.0646 69.8369 68.5353 68.6931 68.5366 67.5V65.0001L72.7024 59.4C72.8682 59.1771 72.9692 58.9122 72.994 58.6347C73.0188 58.3573 72.9665 58.0783 72.8429 57.8292C72.7194 57.58 72.5294 57.3705 72.2944 57.224C72.0593 57.0776 71.7885 57 71.5122 57ZM65.8585 63.6C65.6654 63.8596 65.561 64.1754 65.561 64.5V67.5C65.5605 67.8977 65.4036 68.279 65.1247 68.5602C64.8458 68.8414 64.4676 68.9996 64.0732 69H16.4634C16.069 68.9996 15.6908 68.8414 15.4119 68.5602C15.1329 68.279 14.9761 67.8977 14.9756 67.5V55.5C14.9761 55.1023 15.1329 54.721 15.4119 54.4398C15.6908 54.1586 16.069 54.0004 16.4634 54H64.0732C64.4676 54.0004 64.8458 54.1586 65.1247 54.4398C65.4036 54.721 65.5605 55.1023 65.561 55.5V58.5C65.561 58.8978 65.7177 59.2794 65.9967 59.5607C66.2758 59.842 66.6542 60 67.0488 60H68.5366L65.8585 63.6Z" fill="black"/>
<path d="M60.5385 57H25.4615C25.0739 57 24.7022 57.158 24.4281 57.4393C24.154 57.7206 24 58.1022 24 58.5C24 58.8978 24.154 59.2794 24.4281 59.5607C24.7022 59.842 25.0739 60 25.4615 60H60.5385C60.9261 60 61.2978 59.842 61.5719 59.5607C61.846 59.2794 62 58.8978 62 58.5C62 58.1022 61.846 57.7206 61.5719 57.4393C61.2978 57.158 60.9261 57 60.5385 57Z" fill="black"/>
<path d="M55.5 63H19.5C19.1022 63 18.7206 63.158 18.4393 63.4393C18.158 63.7206 18 64.1022 18 64.5C18 64.8978 18.158 65.2794 18.4393 65.5607C18.7206 65.842 19.1022 66 19.5 66H55.5C55.8978 66 56.2794 65.842 56.5607 65.5607C56.842 65.2794 57 64.8978 57 64.5C57 64.1022 56.842 63.7206 56.5607 63.4393C56.2794 63.158 55.8978 63 55.5 63Z" fill="black"/>
<path d="M61.5 66C62.3284 66 63 65.3284 63 64.5C63 63.6716 62.3284 63 61.5 63C60.6716 63 60 63.6716 60 64.5C60 65.3284 60.6716 66 61.5 66Z" fill="black"/>
<path d="M21.9944 28.3377C22.3241 28.8309 22.5 29.4107 22.5 30.0039C22.4991 30.7991 22.1825 31.5615 21.6201 32.1238C21.0577 32.686 20.2954 33.0023 19.5 33.0033C18.9067 33.0033 18.3268 32.8274 17.8335 32.4979C17.3401 32.1683 16.9556 31.6998 16.7285 31.1518C16.5015 30.6038 16.4421 30.0007 16.5579 29.4189C16.6736 28.8372 16.9589 28.3028 17.3785 27.8833C17.7981 27.4639 18.3327 27.1782 18.9146 27.0625C19.4966 26.9468 20.1001 27.0062 20.6483 27.2332C21.1964 27.4602 21.6648 27.8444 21.9944 28.3377Z" fill="#00B0FB"/>
<path d="M24 42.0007H15L14.9998 40.5012C14.9998 39.308 15.4741 38.1638 16.318 37.3201C17.1619 36.4764 18.3067 36.0024 19.5002 36.0024C20.6936 36.0024 21.8381 36.4764 22.682 37.3201C23.5259 38.1638 24 39.3081 24 40.5012V42.0007Z" fill="#00B0FB"/>
<path d="M15.306 34.288C14.4532 33.4546 13.8682 32.3861 13.6255 31.2189C13.3829 30.0516 13.4937 28.8386 13.9437 27.7345C14.3938 26.6305 15.1627 25.6856 16.1524 25.0204C17.142 24.3553 18.3075 24 19.5 24C20.6925 24 21.858 24.3553 22.8476 25.0204C23.8373 25.6856 24.6062 26.6305 25.0563 27.7345C25.5063 28.8386 25.6171 30.0516 25.3745 31.2189C25.1318 32.3861 24.5468 33.4546 23.694 34.288C24.7116 34.974 25.5452 35.8993 26.1216 36.9826C26.6981 38.0659 26.9997 39.2742 27 40.5012V43.5004C27 43.8981 26.842 44.2795 26.5607 44.5608C26.2794 44.842 25.8978 45 25.5 45H13.5C13.1022 45 12.7206 44.842 12.4393 44.5608C12.158 44.2795 12 43.8981 12 43.5004V40.5012C12.0003 39.2742 12.3019 38.0659 12.8784 36.9826C13.4548 35.8993 14.2884 34.974 15.306 34.288ZM22.5 30.004C22.5 29.4108 22.3241 28.831 21.9944 28.3377C21.6648 27.8445 21.1962 27.4601 20.648 27.2331C20.0999 27.0061 19.4967 26.9467 18.9147 27.0624C18.3328 27.1782 17.7982 27.4638 17.3787 27.8832C16.9591 28.3027 16.6734 28.8371 16.5576 29.4189C16.4419 30.0007 16.5013 30.6037 16.7284 31.1517C16.9554 31.6998 17.3399 32.1682 17.8333 32.4978C18.3266 32.8273 18.9067 33.0032 19.5 33.0032C20.2954 33.0023 21.0579 32.686 21.6203 32.1237C22.1827 31.5615 22.4991 30.7992 22.5 30.004ZM15 42.0008H24V40.5012C24 39.308 23.5259 38.1638 22.682 37.3201C21.8381 36.4764 20.6935 36.0024 19.5 36.0024C18.3065 36.0024 17.1619 36.4764 16.318 37.3201C15.4741 38.1638 15 39.308 15 40.5012V42.0008Z" fill="black"/>
<path d="M35.439 37.5001C35.439 37.1755 35.3346 36.8597 35.1414 36.6001L32.4634 33L33.9514 32.9999C34.346 32.9999 34.7242 32.842 35.0032 32.5607C35.2822 32.2794 35.439 31.8978 35.439 31.5L35.4392 28.5001C35.4397 28.1024 35.5963 27.721 35.8752 27.4398C36.1541 27.1586 36.5324 27.0004 36.9269 27H84.5363C84.9308 27.0004 85.3092 27.1587 85.5882 27.4399C85.8671 27.7211 86.024 28.1023 86.0244 28.5V40.5C86.024 40.8977 85.8668 41.2789 85.5879 41.5601C85.309 41.8413 84.9311 41.9996 84.5366 42L36.9268 41.9999C36.5323 41.9994 36.1544 41.8414 35.8755 41.5602C35.5966 41.279 35.4394 40.8977 35.439 40.5V37.5001Z" fill="#00B0FB" fill-opacity="0.5"/>
<path d="M29.4878 30H32.4634V28.5C32.4647 27.3069 32.9354 26.1631 33.7722 25.3195C34.6089 24.4759 35.7435 24.0013 36.9268 24H84.5366C85.7199 24.0013 86.8545 24.4759 87.6912 25.3195C88.528 26.1631 88.9987 27.3069 89 28.5V40.5C88.9987 41.6931 88.528 42.8369 87.6912 43.6805C86.8545 44.5241 85.7199 44.9987 84.5366 45H36.9268C35.7435 44.9987 34.6089 44.5241 33.7722 43.6805C32.9354 42.8369 32.4647 41.6931 32.4634 40.5V38.0001L28.2976 32.4C28.1318 32.1771 28.0308 31.9122 28.006 31.6347C27.9812 31.3573 28.0335 31.0783 28.1571 30.8292C28.2806 30.58 28.4706 30.3705 28.7056 30.224C28.9407 30.0776 29.2115 30 29.4878 30ZM35.1415 36.6C35.3346 36.8596 35.439 37.1754 35.439 37.5V40.5C35.4395 40.8977 35.5964 41.279 35.8753 41.5602C36.1542 41.8414 36.5324 41.9996 36.9268 42H84.5366C84.931 41.9996 85.3092 41.8414 85.5881 41.5602C85.8671 41.279 86.0239 40.8977 86.0244 40.5V28.5C86.0239 28.1023 85.8671 27.721 85.5881 27.4398C85.3092 27.1586 84.931 27.0004 84.5366 27H36.9268C36.5324 27.0004 36.1542 27.1586 35.8753 27.4398C35.5964 27.721 35.4395 28.1023 35.439 28.5V31.5C35.439 31.8978 35.2823 32.2794 35.0033 32.5607C34.7242 32.842 34.3458 33 33.9512 33H32.4634L35.1415 36.6Z" fill="black"/>
<path d="M40.4615 30H75.5385C75.9261 30 76.2978 30.158 76.5719 30.4393C76.846 30.7206 77 31.1022 77 31.5C77 31.8978 76.846 32.2794 76.5719 32.5607C76.2978 32.842 75.9261 33 75.5385 33H40.4615C40.0739 33 39.7022 32.842 39.4281 32.5607C39.154 32.2794 39 31.8978 39 31.5C39 31.1022 39.154 30.7206 39.4281 30.4393C39.7022 30.158 40.0739 30 40.4615 30Z" fill="black"/>
<path d="M45.5 36H81.5C81.8978 36 82.2794 36.158 82.5607 36.4393C82.842 36.7206 83 37.1022 83 37.5C83 37.8978 82.842 38.2794 82.5607 38.5607C82.2794 38.842 81.8978 39 81.5 39H45.5C45.1022 39 44.7206 38.842 44.4393 38.5607C44.158 38.2794 44 37.8978 44 37.5C44 37.1022 44.158 36.7206 44.4393 36.4393C44.7206 36.158 45.1022 36 45.5 36Z" fill="black"/>
<path d="M39.5 39C38.6716 39 38 38.3284 38 37.5C38 36.6716 38.6716 36 39.5 36C40.3284 36 41 36.6716 41 37.5C41 38.3284 40.3284 39 39.5 39Z" fill="black"/>
<path d="M90.0002 88.1999H86.8002C86.3228 88.1999 85.865 88.3895 85.5274 88.7271C85.1898 89.0647 85.0002 89.5225 85.0002 89.9999C85.0002 90.4773 85.1898 90.9351 85.5274 91.2727C85.865 91.6103 86.3228 91.7999 86.8002 91.7999H90.0002C90.4776 91.7999 90.9354 91.6103 91.273 91.2727C91.6106 90.9351 91.8002 90.4773 91.8002 89.9999C91.8002 89.5225 91.6106 89.0647 91.273 88.7271C90.9354 88.3895 90.4776 88.1999 90.0002 88.1999Z" fill="black" stroke="black" stroke-width="0.4"/>
<path d="M9.9999 91.7999C10.994 91.7999 11.7999 90.994 11.7999 89.9999C11.7999 89.0058 10.994 88.1999 9.9999 88.1999C9.00579 88.1999 8.1999 89.0058 8.1999 89.9999C8.1999 90.994 9.00579 91.7999 9.9999 91.7999Z" fill="black" stroke="black" stroke-width="0.4"/>
</svg>
