<svg width="100" height="100" viewBox="0 0 100 100" fill="none" xmlns="http://www.w3.org/2000/svg">
<path d="M30.6468 28.7812C31.5449 26.0172 35.4551 26.0172 36.3532 28.7812L37.6535 32.7832C38.0551 34.0193 39.207 34.8561 40.5067 34.8561H44.7147C47.6208 34.8561 48.8292 38.575 46.478 40.2832L43.0737 42.7566C42.0222 43.5205 41.5823 44.8746 41.9839 46.1107L43.2842 50.1127C44.1823 52.8766 41.0188 55.175 38.6677 53.4668L35.2634 50.9934C34.2119 50.2295 32.7881 50.2295 31.7366 50.9934L28.3323 53.4668C25.9812 55.175 22.8177 52.8766 23.7158 50.1127L25.0161 46.1107C25.4177 44.8746 24.9778 43.5205 23.9263 42.7566L20.522 40.2832C18.1708 38.575 19.3792 34.8561 22.2853 34.8561H26.4933C27.793 34.8561 28.9449 34.0193 29.3465 32.7832L30.6468 28.7812Z" fill="#00B0FB"/>
<path d="M46.1306 34.48L39.857 32.808L36.2554 27.528C35.9338 27.0566 35.5018 26.6709 34.9971 26.4046C34.4923 26.1382 33.9301 25.9994 33.3594 26C32.7891 25.9986 32.2271 26.1366 31.7223 26.4021C31.2176 26.6676 30.7854 27.0524 30.4634 27.5232L26.8602 32.8032L20.5866 34.48C20.0217 34.6263 19.5029 34.9131 19.0786 35.3137C18.6542 35.7142 18.338 36.2156 18.1594 36.7712C17.9833 37.3192 17.9481 37.9028 18.0571 38.468C18.1662 39.0331 18.416 39.5617 18.7834 40.0048L22.8106 44.88L22.5178 51.1328C22.4921 51.7001 22.6072 52.265 22.8528 52.7771C23.0985 53.2891 23.4672 53.7323 23.9258 54.0672C24.392 54.4118 24.936 54.6359 25.5096 54.7196C26.0832 54.8033 26.6686 54.7441 27.2138 54.5472L33.3594 52.3072L39.5002 54.5376C40.0447 54.7373 40.6302 54.7988 41.2043 54.7167C41.7784 54.6347 42.3231 54.4115 42.7898 54.0672C43.2487 53.7322 43.6175 53.2887 43.8632 52.7764C44.1089 52.264 44.2239 51.6988 44.1978 51.1312L43.905 44.88L47.9274 40.0048C48.2951 39.5619 48.5452 39.0334 48.6546 38.4682C48.7639 37.903 48.729 37.3193 48.553 36.7712C48.3746 36.2164 48.0591 35.7155 47.6356 35.315C47.2122 34.9145 46.6946 34.6273 46.1306 34.48ZM45.4586 37.9696L41.0394 43.3184C40.7866 43.6254 40.6571 44.0155 40.6762 44.4128L40.9962 51.28C40.999 51.3212 40.9907 51.3624 40.9721 51.3993C40.9535 51.4361 40.9254 51.4673 40.8906 51.4896C40.8475 51.5209 40.7973 51.541 40.7445 51.548C40.6917 51.5549 40.638 51.5486 40.5882 51.5296L33.9034 49.1008C33.5514 48.9733 33.1659 48.9733 32.8138 49.1008L26.121 51.5312C26.0716 51.5495 26.0184 51.5552 25.9662 51.5479C25.914 51.5407 25.8644 51.5206 25.8218 51.4896C25.7869 51.4678 25.7585 51.437 25.7396 51.4004C25.7208 51.3637 25.7121 51.3227 25.7146 51.2816L26.0346 44.4128C26.0538 44.0155 25.9243 43.6254 25.6714 43.3184L21.257 37.9664C21.2295 37.9379 21.2106 37.9022 21.2027 37.8633C21.1947 37.8245 21.198 37.7842 21.2122 37.7472C21.2267 37.7021 21.2528 37.6617 21.2879 37.6299C21.323 37.5982 21.3659 37.5763 21.4122 37.5664L28.257 35.7424C28.6267 35.6445 28.9491 35.4175 29.1658 35.1024L33.105 29.3296C33.1349 29.2908 33.1733 29.2593 33.2173 29.2377C33.2613 29.216 33.3096 29.2048 33.3586 29.2048C33.4076 29.2048 33.456 29.216 33.5 29.2377C33.5439 29.2593 33.5823 29.2908 33.6122 29.3296L37.5498 35.1008C37.7666 35.4159 38.089 35.6429 38.4586 35.7408L45.3034 37.5648C45.3497 37.5747 45.3926 37.5966 45.4277 37.6283C45.4629 37.6601 45.489 37.7005 45.5034 37.7456C45.5172 37.7829 45.5203 37.8234 45.5124 37.8624C45.5045 37.9014 45.4859 37.9374 45.4586 37.9664V37.9696Z" fill="black"/>
<path d="M30.2982 27.4105L30.2984 27.4103C30.6387 26.9126 31.0956 26.5057 31.6292 26.2251C32.1627 25.9444 32.7568 25.7985 33.3596 25.8M30.2982 27.4105L22.5178 51.1328C22.4921 51.7001 22.6072 52.265 22.8528 52.7771C23.0985 53.2891 23.4672 53.7323 23.9258 54.0672L23.807 54.228C23.8071 54.2282 23.8072 54.2283 23.8074 54.2284C24.2999 54.5923 24.8747 54.829 25.4807 54.9175C26.0869 55.006 26.7056 54.9434 27.2818 54.7353L27.2823 54.7351L33.3596 52.52L39.4314 54.7254C39.4315 54.7254 39.4316 54.7254 39.4316 54.7255C40.0071 54.9365 40.6259 55.0015 41.2326 54.9147C41.8393 54.828 42.415 54.5922 42.9082 54.2285C43.3936 53.874 43.7836 53.4048 44.0436 52.8628C44.3035 52.3207 44.4252 51.7226 44.3976 51.122L44.3976 51.1219L44.1084 44.9478L48.0813 40.1326C48.4705 39.6637 48.7352 39.1044 48.8509 38.5062C48.9667 37.908 48.9297 37.2902 48.7435 36.7101L48.7434 36.71C48.5547 36.1231 48.221 35.5933 47.7731 35.1697C47.3253 34.7461 46.7779 34.4424 46.1816 34.2866C46.1814 34.2866 46.1813 34.2865 46.1812 34.2865L39.9804 32.6339L36.4207 27.4153C36.0807 26.9169 35.624 26.5092 35.0904 26.2277C34.5569 25.9462 33.9628 25.7994 33.3596 25.8M30.2982 27.4105L26.7369 32.6292L20.5365 34.2864C20.5363 34.2865 20.536 34.2865 20.5358 34.2866C19.9385 34.4414 19.39 34.7447 18.9413 35.1682C18.4924 35.592 18.1579 36.1223 17.969 36.71C17.969 36.71 17.969 36.71 17.969 36.71L18.1594 36.7712L30.2982 27.4105ZM33.3596 25.8C33.3597 25.8 33.3598 25.8 33.3599 25.8L33.3594 26L33.3592 25.8C33.3593 25.8 33.3595 25.8 33.3596 25.8Z" stroke="black" stroke-width="0.4"/>
<path d="M84.3135 71.9595C84.8863 71.153 85.1959 70.1892 85.2 69.2C85.1959 68.2107 84.8863 67.2469 84.3135 66.4404C83.7407 65.6339 82.9327 65.0241 82 64.6943V73.7056C82.9327 73.3758 83.7407 72.766 84.3135 71.9595Z" fill="#00B0FB"/>
<path d="M76.0682 52.0686C75.7682 52.3687 75.5996 52.7756 75.5996 53.2V85.2C75.5996 85.6243 75.7683 86.0312 76.0684 86.3313C76.3684 86.6314 76.7758 86.7999 77.2002 86.7999C77.6245 86.7999 78.031 86.6314 78.3311 86.3313C78.6311 86.0313 78.7998 85.6243 78.7998 85.2L78.7997 53.2C78.7997 52.7756 78.6316 52.3688 78.3316 52.0687C78.0315 51.7687 77.6241 51.6001 77.1997 51.6001C76.7754 51.6001 76.3683 51.7685 76.0682 52.0686Z" fill="#00B0FB" fill-opacity="0.5"/>
<path d="M45.2002 94.8H51.6002L51.5997 92.9249C51.5996 92.5006 51.4315 92.0935 51.1314 91.7935L49.8061 90.4689C49.3588 90.0244 49.0048 89.4955 48.7634 88.913C48.522 88.3304 48.3986 87.7058 48.4004 87.0753L48.4002 78.8H45.2002V94.8Z" fill="#00B0FB"/>
<path d="M35.3844 64.3999L8.02441 64.4079C7.24501 64.3267 6.52315 63.9581 6.00098 63.3738C5.47881 62.7895 5.19371 62.0316 5.20031 61.248L5.2002 18" stroke="#00B0FB" stroke-width="2"/>
<path d="M13.2004 8.3999H8.40039C7.5517 8.3999 6.73757 8.73704 6.13745 9.33716C5.53734 9.93727 5.2002 10.7514 5.2002 11.6001V14.8L62.7998 14.8001L62.7996 11.5999C62.7996 10.7512 62.4625 9.93728 61.8624 9.33716C61.2622 8.73704 60.4485 8.3999 59.5998 8.3999H54.7998L54.7997 10C54.7997 10.4243 54.6316 10.8313 54.3316 11.1313C54.0315 11.4314 53.6241 11.6 53.1997 11.6C52.7754 11.6 52.3683 11.4314 52.0682 11.1314C51.7682 10.8313 51.5996 10.4242 51.5996 9.9999L51.6 8.3999H42L41.9999 10C41.9999 10.4243 41.8318 10.8313 41.5318 11.1313C41.2317 11.4314 40.8243 11.6 40.3999 11.6C39.9756 11.6 39.5685 11.4314 39.2684 11.1314C38.9684 10.8313 38.7998 10.4242 38.7998 9.9999L38.8002 8.3999H29.2002L29.2001 10C29.2001 10.4243 29.031 10.8313 28.731 11.1313C28.4309 11.4314 28.0245 11.6 27.6001 11.6C27.1758 11.6 26.7687 11.4314 26.4686 11.1314C26.1686 10.8313 26 10.4242 26 9.9999L26.0004 8.3999H16.4004L16.4003 10C16.4003 10.4243 16.2312 10.8313 15.9312 11.1313C15.6311 11.4314 15.2247 11.6 14.8003 11.6C14.376 11.6 13.9689 11.4314 13.6688 11.1314C13.3688 10.8313 13.2002 10.4242 13.2002 9.9999L13.2004 8.3999Z" fill="#00B0FB" fill-opacity="0.5"/>
<path d="M51.5996 82H54.7996V78.8H51.5996V82Z" fill="#00B0FB" fill-opacity="0.5"/>
<mask id="path-9-outside-1_257_8851" maskUnits="userSpaceOnUse" x="1" y="1" width="88" height="98" fill="black">
<rect fill="white" x="1" y="1" width="88" height="98"/>
<path d="M7.872 67.6H34.1488C34.0293 68.2424 33.9795 68.8957 34 69.5488C34.0722 71.7587 34.9093 73.8749 36.3684 75.5362C37.8274 77.1975 39.8179 78.3008 42 78.6576V94.8C42 95.6487 42.3371 96.4626 42.9373 97.0627C43.5374 97.6629 44.3513 98 45.2 98H51.6C52.4487 98 53.2626 97.6629 53.8627 97.0627C54.4629 96.4626 54.8 95.6487 54.8 94.8V92.9248C54.8014 92.2943 54.6779 91.6697 54.4365 91.0872C54.1951 90.5047 53.8406 89.9759 53.3936 89.5312L52.0688 88.2064C51.7687 87.9064 51.6001 87.4995 51.6 87.0752V85.2H54.8C55.6487 85.2 56.4626 84.8629 57.0627 84.2627C57.6629 83.6626 58 82.8487 58 82V78.8H58.3568C58.9005 78.8002 59.4352 78.939 59.9104 79.2032L72.5088 86.2016C72.7593 87.3581 73.4282 88.3813 74.387 89.0748C75.3458 89.7683 76.527 90.0832 77.7038 89.959C78.8806 89.8348 79.97 89.2803 80.7629 88.402C81.5559 87.5236 81.9964 86.3833 82 85.2V77.04C83.8085 76.6728 85.4344 75.6916 86.6022 74.2628C87.7701 72.834 88.408 71.0454 88.408 69.2C88.408 67.3546 87.7701 65.566 86.6022 64.1372C85.4344 62.7084 83.8085 61.7272 82 61.36V53.2C81.9964 52.0167 81.5559 50.8764 80.7629 49.998C79.97 49.1197 78.8806 48.5652 77.7038 48.441C76.527 48.3168 75.3458 48.6317 74.387 49.3252C73.4282 50.0187 72.7593 51.0419 72.5088 52.1984L66 55.8144V11.6C66 9.90261 65.3257 8.27475 64.1255 7.07452C62.9253 5.87428 61.2974 5.2 59.6 5.2H54.8V3.6C54.8 3.17565 54.6314 2.76869 54.3314 2.46863C54.0313 2.16857 53.6243 2 53.2 2C52.7757 2 52.3687 2.16857 52.0686 2.46863C51.7686 2.76869 51.6 3.17565 51.6 3.6V5.2H42V3.6C42 3.17565 41.8314 2.76869 41.5314 2.46863C41.2313 2.16857 40.8243 2 40.4 2C39.9757 2 39.5687 2.16857 39.2686 2.46863C38.9686 2.76869 38.8 3.17565 38.8 3.6V5.2H29.2V3.6C29.2 3.17565 29.0314 2.76869 28.7314 2.46863C28.4313 2.16857 28.0243 2 27.6 2C27.1757 2 26.7687 2.16857 26.4686 2.46863C26.1686 2.76869 26 3.17565 26 3.6V5.2H16.4V3.6C16.4 3.17565 16.2314 2.76869 15.9314 2.46863C15.6313 2.16857 15.2243 2 14.8 2C14.3757 2 13.9687 2.16857 13.6686 2.46863C13.3686 2.76869 13.2 3.17565 13.2 3.6V5.2H8.4C6.70262 5.2 5.07475 5.87428 3.87452 7.07452C2.67428 8.27475 2 9.90261 2 11.6V61.248C1.99916 62.8516 2.60337 64.3965 3.69193 65.5741C4.7805 66.7516 6.27326 67.4751 7.872 67.6ZM51.6 94.8H45.2V78.8H48.4V87.0752C48.3982 87.7058 48.5216 88.3305 48.763 88.913C49.0044 89.4955 49.3591 90.0243 49.8064 90.4688L51.1312 91.7936C51.4313 92.0936 51.5999 92.5005 51.6 92.9248V94.8ZM54.8 82H51.6V78.8H54.8V82ZM58.3568 75.6H43.6C41.9405 75.6071 40.3437 74.967 39.1486 73.8156C37.9536 72.6642 37.2545 71.0922 37.2 69.4336C37.1775 68.6028 37.3239 67.7761 37.6303 67.0036C37.9366 66.2311 38.3966 65.5288 38.9824 64.9392C39.631 64.2663 40.408 63.7302 41.2673 63.3628C42.1267 62.9954 43.051 62.804 43.9856 62.8H58.3568C59.4437 62.8015 60.513 62.5262 61.464 62L72.4 55.92V82.48L61.464 76.4C60.513 75.8738 59.4437 75.5985 58.3568 75.6ZM85.2 69.2C85.1959 70.1892 84.8863 71.153 84.3135 71.9595C83.7407 72.766 82.9327 73.3759 82 73.7056V64.6944C82.9327 65.0241 83.7407 65.634 84.3135 66.4405C84.8863 67.247 85.1959 68.2108 85.2 69.2ZM75.6 53.2C75.6 52.7757 75.7686 52.3687 76.0686 52.0686C76.3687 51.7686 76.7757 51.6 77.2 51.6C77.6244 51.6 78.0313 51.7686 78.3314 52.0686C78.6314 52.3687 78.8 52.7757 78.8 53.2V85.2C78.8 85.6244 78.6314 86.0313 78.3314 86.3314C78.0313 86.6314 77.6244 86.8 77.2 86.8C76.7757 86.8 76.3687 86.6314 76.0686 86.3314C75.7686 86.0313 75.6 85.6244 75.6 85.2V53.2ZM59.9104 59.1968C59.4352 59.461 58.9005 59.5998 58.3568 59.6H43.9856C42.6219 59.6052 41.2731 59.8838 40.0188 60.4191C38.7646 60.9544 37.6304 61.7357 36.6832 62.7168C36.1905 63.2292 35.7549 63.7936 35.384 64.4L8.024 64.408C7.24459 64.3268 6.52341 63.9581 6.00124 63.3738C5.47907 62.7895 5.1934 62.0316 5.2 61.248V18H62.8V57.592L59.9104 59.1968ZM8.4 8.4H13.2V10C13.2 10.4243 13.3686 10.8313 13.6686 11.1314C13.9687 11.4314 14.3757 11.6 14.8 11.6C15.2243 11.6 15.6313 11.4314 15.9314 11.1314C16.2314 10.8313 16.4 10.4243 16.4 10V8.4H26V10C26 10.4243 26.1686 10.8313 26.4686 11.1314C26.7687 11.4314 27.1757 11.6 27.6 11.6C28.0243 11.6 28.4313 11.4314 28.7314 11.1314C29.0314 10.8313 29.2 10.4243 29.2 10V8.4H38.8V10C38.8 10.4243 38.9686 10.8313 39.2686 11.1314C39.5687 11.4314 39.9757 11.6 40.4 11.6C40.8243 11.6 41.2313 11.4314 41.5314 11.1314C41.8314 10.8313 42 10.4243 42 10V8.4H51.6V10C51.6 10.4243 51.7686 10.8313 52.0686 11.1314C52.3687 11.4314 52.7757 11.6 53.2 11.6C53.6243 11.6 54.0313 11.4314 54.3314 11.1314C54.6314 10.8313 54.8 10.4243 54.8 10V8.4H59.6C60.4487 8.4 61.2626 8.73714 61.8627 9.33726C62.4629 9.93737 62.8 10.7513 62.8 11.6V14.8H5.2V11.6C5.2 10.7513 5.53714 9.93737 6.13726 9.33726C6.73738 8.73714 7.55131 8.4 8.4 8.4Z"/>
</mask>
<path d="M7.872 67.6H34.1488C34.0293 68.2424 33.9795 68.8957 34 69.5488C34.0722 71.7587 34.9093 73.8749 36.3684 75.5362C37.8274 77.1975 39.8179 78.3008 42 78.6576V94.8C42 95.6487 42.3371 96.4626 42.9373 97.0627C43.5374 97.6629 44.3513 98 45.2 98H51.6C52.4487 98 53.2626 97.6629 53.8627 97.0627C54.4629 96.4626 54.8 95.6487 54.8 94.8V92.9248C54.8014 92.2943 54.6779 91.6697 54.4365 91.0872C54.1951 90.5047 53.8406 89.9759 53.3936 89.5312L52.0688 88.2064C51.7687 87.9064 51.6001 87.4995 51.6 87.0752V85.2H54.8C55.6487 85.2 56.4626 84.8629 57.0627 84.2627C57.6629 83.6626 58 82.8487 58 82V78.8H58.3568C58.9005 78.8002 59.4352 78.939 59.9104 79.2032L72.5088 86.2016C72.7593 87.3581 73.4282 88.3813 74.387 89.0748C75.3458 89.7683 76.527 90.0832 77.7038 89.959C78.8806 89.8348 79.97 89.2803 80.7629 88.402C81.5559 87.5236 81.9964 86.3833 82 85.2V77.04C83.8085 76.6728 85.4344 75.6916 86.6022 74.2628C87.7701 72.834 88.408 71.0454 88.408 69.2C88.408 67.3546 87.7701 65.566 86.6022 64.1372C85.4344 62.7084 83.8085 61.7272 82 61.36V53.2C81.9964 52.0167 81.5559 50.8764 80.7629 49.998C79.97 49.1197 78.8806 48.5652 77.7038 48.441C76.527 48.3168 75.3458 48.6317 74.387 49.3252C73.4282 50.0187 72.7593 51.0419 72.5088 52.1984L66 55.8144V11.6C66 9.90261 65.3257 8.27475 64.1255 7.07452C62.9253 5.87428 61.2974 5.2 59.6 5.2H54.8V3.6C54.8 3.17565 54.6314 2.76869 54.3314 2.46863C54.0313 2.16857 53.6243 2 53.2 2C52.7757 2 52.3687 2.16857 52.0686 2.46863C51.7686 2.76869 51.6 3.17565 51.6 3.6V5.2H42V3.6C42 3.17565 41.8314 2.76869 41.5314 2.46863C41.2313 2.16857 40.8243 2 40.4 2C39.9757 2 39.5687 2.16857 39.2686 2.46863C38.9686 2.76869 38.8 3.17565 38.8 3.6V5.2H29.2V3.6C29.2 3.17565 29.0314 2.76869 28.7314 2.46863C28.4313 2.16857 28.0243 2 27.6 2C27.1757 2 26.7687 2.16857 26.4686 2.46863C26.1686 2.76869 26 3.17565 26 3.6V5.2H16.4V3.6C16.4 3.17565 16.2314 2.76869 15.9314 2.46863C15.6313 2.16857 15.2243 2 14.8 2C14.3757 2 13.9687 2.16857 13.6686 2.46863C13.3686 2.76869 13.2 3.17565 13.2 3.6V5.2H8.4C6.70262 5.2 5.07475 5.87428 3.87452 7.07452C2.67428 8.27475 2 9.90261 2 11.6V61.248C1.99916 62.8516 2.60337 64.3965 3.69193 65.5741C4.7805 66.7516 6.27326 67.4751 7.872 67.6ZM51.6 94.8H45.2V78.8H48.4V87.0752C48.3982 87.7058 48.5216 88.3305 48.763 88.913C49.0044 89.4955 49.3591 90.0243 49.8064 90.4688L51.1312 91.7936C51.4313 92.0936 51.5999 92.5005 51.6 92.9248V94.8ZM54.8 82H51.6V78.8H54.8V82ZM58.3568 75.6H43.6C41.9405 75.6071 40.3437 74.967 39.1486 73.8156C37.9536 72.6642 37.2545 71.0922 37.2 69.4336C37.1775 68.6028 37.3239 67.7761 37.6303 67.0036C37.9366 66.2311 38.3966 65.5288 38.9824 64.9392C39.631 64.2663 40.408 63.7302 41.2673 63.3628C42.1267 62.9954 43.051 62.804 43.9856 62.8H58.3568C59.4437 62.8015 60.513 62.5262 61.464 62L72.4 55.92V82.48L61.464 76.4C60.513 75.8738 59.4437 75.5985 58.3568 75.6ZM85.2 69.2C85.1959 70.1892 84.8863 71.153 84.3135 71.9595C83.7407 72.766 82.9327 73.3759 82 73.7056V64.6944C82.9327 65.0241 83.7407 65.634 84.3135 66.4405C84.8863 67.247 85.1959 68.2108 85.2 69.2ZM75.6 53.2C75.6 52.7757 75.7686 52.3687 76.0686 52.0686C76.3687 51.7686 76.7757 51.6 77.2 51.6C77.6244 51.6 78.0313 51.7686 78.3314 52.0686C78.6314 52.3687 78.8 52.7757 78.8 53.2V85.2C78.8 85.6244 78.6314 86.0313 78.3314 86.3314C78.0313 86.6314 77.6244 86.8 77.2 86.8C76.7757 86.8 76.3687 86.6314 76.0686 86.3314C75.7686 86.0313 75.6 85.6244 75.6 85.2V53.2ZM59.9104 59.1968C59.4352 59.461 58.9005 59.5998 58.3568 59.6H43.9856C42.6219 59.6052 41.2731 59.8838 40.0188 60.4191C38.7646 60.9544 37.6304 61.7357 36.6832 62.7168C36.1905 63.2292 35.7549 63.7936 35.384 64.4L8.024 64.408C7.24459 64.3268 6.52341 63.9581 6.00124 63.3738C5.47907 62.7895 5.1934 62.0316 5.2 61.248V18H62.8V57.592L59.9104 59.1968ZM8.4 8.4H13.2V10C13.2 10.4243 13.3686 10.8313 13.6686 11.1314C13.9687 11.4314 14.3757 11.6 14.8 11.6C15.2243 11.6 15.6313 11.4314 15.9314 11.1314C16.2314 10.8313 16.4 10.4243 16.4 10V8.4H26V10C26 10.4243 26.1686 10.8313 26.4686 11.1314C26.7687 11.4314 27.1757 11.6 27.6 11.6C28.0243 11.6 28.4313 11.4314 28.7314 11.1314C29.0314 10.8313 29.2 10.4243 29.2 10V8.4H38.8V10C38.8 10.4243 38.9686 10.8313 39.2686 11.1314C39.5687 11.4314 39.9757 11.6 40.4 11.6C40.8243 11.6 41.2313 11.4314 41.5314 11.1314C41.8314 10.8313 42 10.4243 42 10V8.4H51.6V10C51.6 10.4243 51.7686 10.8313 52.0686 11.1314C52.3687 11.4314 52.7757 11.6 53.2 11.6C53.6243 11.6 54.0313 11.4314 54.3314 11.1314C54.6314 10.8313 54.8 10.4243 54.8 10V8.4H59.6C60.4487 8.4 61.2626 8.73714 61.8627 9.33726C62.4629 9.93737 62.8 10.7513 62.8 11.6V14.8H5.2V11.6C5.2 10.7513 5.53714 9.93737 6.13726 9.33726C6.73738 8.73714 7.55131 8.4 8.4 8.4Z" fill="black"/>
<path d="M7.872 67.6H34.1488C34.0293 68.2424 33.9795 68.8957 34 69.5488C34.0722 71.7587 34.9093 73.8749 36.3684 75.5362C37.8274 77.1975 39.8179 78.3008 42 78.6576V94.8C42 95.6487 42.3371 96.4626 42.9373 97.0627C43.5374 97.6629 44.3513 98 45.2 98H51.6C52.4487 98 53.2626 97.6629 53.8627 97.0627C54.4629 96.4626 54.8 95.6487 54.8 94.8V92.9248C54.8014 92.2943 54.6779 91.6697 54.4365 91.0872C54.1951 90.5047 53.8406 89.9759 53.3936 89.5312L52.0688 88.2064C51.7687 87.9064 51.6001 87.4995 51.6 87.0752V85.2H54.8C55.6487 85.2 56.4626 84.8629 57.0627 84.2627C57.6629 83.6626 58 82.8487 58 82V78.8H58.3568C58.9005 78.8002 59.4352 78.939 59.9104 79.2032L72.5088 86.2016C72.7593 87.3581 73.4282 88.3813 74.387 89.0748C75.3458 89.7683 76.527 90.0832 77.7038 89.959C78.8806 89.8348 79.97 89.2803 80.7629 88.402C81.5559 87.5236 81.9964 86.3833 82 85.2V77.04C83.8085 76.6728 85.4344 75.6916 86.6022 74.2628C87.7701 72.834 88.408 71.0454 88.408 69.2C88.408 67.3546 87.7701 65.566 86.6022 64.1372C85.4344 62.7084 83.8085 61.7272 82 61.36V53.2C81.9964 52.0167 81.5559 50.8764 80.7629 49.998C79.97 49.1197 78.8806 48.5652 77.7038 48.441C76.527 48.3168 75.3458 48.6317 74.387 49.3252C73.4282 50.0187 72.7593 51.0419 72.5088 52.1984L66 55.8144V11.6C66 9.90261 65.3257 8.27475 64.1255 7.07452C62.9253 5.87428 61.2974 5.2 59.6 5.2H54.8V3.6C54.8 3.17565 54.6314 2.76869 54.3314 2.46863C54.0313 2.16857 53.6243 2 53.2 2C52.7757 2 52.3687 2.16857 52.0686 2.46863C51.7686 2.76869 51.6 3.17565 51.6 3.6V5.2H42V3.6C42 3.17565 41.8314 2.76869 41.5314 2.46863C41.2313 2.16857 40.8243 2 40.4 2C39.9757 2 39.5687 2.16857 39.2686 2.46863C38.9686 2.76869 38.8 3.17565 38.8 3.6V5.2H29.2V3.6C29.2 3.17565 29.0314 2.76869 28.7314 2.46863C28.4313 2.16857 28.0243 2 27.6 2C27.1757 2 26.7687 2.16857 26.4686 2.46863C26.1686 2.76869 26 3.17565 26 3.6V5.2H16.4V3.6C16.4 3.17565 16.2314 2.76869 15.9314 2.46863C15.6313 2.16857 15.2243 2 14.8 2C14.3757 2 13.9687 2.16857 13.6686 2.46863C13.3686 2.76869 13.2 3.17565 13.2 3.6V5.2H8.4C6.70262 5.2 5.07475 5.87428 3.87452 7.07452C2.67428 8.27475 2 9.90261 2 11.6V61.248C1.99916 62.8516 2.60337 64.3965 3.69193 65.5741C4.7805 66.7516 6.27326 67.4751 7.872 67.6ZM51.6 94.8H45.2V78.8H48.4V87.0752C48.3982 87.7058 48.5216 88.3305 48.763 88.913C49.0044 89.4955 49.3591 90.0243 49.8064 90.4688L51.1312 91.7936C51.4313 92.0936 51.5999 92.5005 51.6 92.9248V94.8ZM54.8 82H51.6V78.8H54.8V82ZM58.3568 75.6H43.6C41.9405 75.6071 40.3437 74.967 39.1486 73.8156C37.9536 72.6642 37.2545 71.0922 37.2 69.4336C37.1775 68.6028 37.3239 67.7761 37.6303 67.0036C37.9366 66.2311 38.3966 65.5288 38.9824 64.9392C39.631 64.2663 40.408 63.7302 41.2673 63.3628C42.1267 62.9954 43.051 62.804 43.9856 62.8H58.3568C59.4437 62.8015 60.513 62.5262 61.464 62L72.4 55.92V82.48L61.464 76.4C60.513 75.8738 59.4437 75.5985 58.3568 75.6ZM85.2 69.2C85.1959 70.1892 84.8863 71.153 84.3135 71.9595C83.7407 72.766 82.9327 73.3759 82 73.7056V64.6944C82.9327 65.0241 83.7407 65.634 84.3135 66.4405C84.8863 67.247 85.1959 68.2108 85.2 69.2ZM75.6 53.2C75.6 52.7757 75.7686 52.3687 76.0686 52.0686C76.3687 51.7686 76.7757 51.6 77.2 51.6C77.6244 51.6 78.0313 51.7686 78.3314 52.0686C78.6314 52.3687 78.8 52.7757 78.8 53.2V85.2C78.8 85.6244 78.6314 86.0313 78.3314 86.3314C78.0313 86.6314 77.6244 86.8 77.2 86.8C76.7757 86.8 76.3687 86.6314 76.0686 86.3314C75.7686 86.0313 75.6 85.6244 75.6 85.2V53.2ZM59.9104 59.1968C59.4352 59.461 58.9005 59.5998 58.3568 59.6H43.9856C42.6219 59.6052 41.2731 59.8838 40.0188 60.4191C38.7646 60.9544 37.6304 61.7357 36.6832 62.7168C36.1905 63.2292 35.7549 63.7936 35.384 64.4L8.024 64.408C7.24459 64.3268 6.52341 63.9581 6.00124 63.3738C5.47907 62.7895 5.1934 62.0316 5.2 61.248V18H62.8V57.592L59.9104 59.1968ZM8.4 8.4H13.2V10C13.2 10.4243 13.3686 10.8313 13.6686 11.1314C13.9687 11.4314 14.3757 11.6 14.8 11.6C15.2243 11.6 15.6313 11.4314 15.9314 11.1314C16.2314 10.8313 16.4 10.4243 16.4 10V8.4H26V10C26 10.4243 26.1686 10.8313 26.4686 11.1314C26.7687 11.4314 27.1757 11.6 27.6 11.6C28.0243 11.6 28.4313 11.4314 28.7314 11.1314C29.0314 10.8313 29.2 10.4243 29.2 10V8.4H38.8V10C38.8 10.4243 38.9686 10.8313 39.2686 11.1314C39.5687 11.4314 39.9757 11.6 40.4 11.6C40.8243 11.6 41.2313 11.4314 41.5314 11.1314C41.8314 10.8313 42 10.4243 42 10V8.4H51.6V10C51.6 10.4243 51.7686 10.8313 52.0686 11.1314C52.3687 11.4314 52.7757 11.6 53.2 11.6C53.6243 11.6 54.0313 11.4314 54.3314 11.1314C54.6314 10.8313 54.8 10.4243 54.8 10V8.4H59.6C60.4487 8.4 61.2626 8.73714 61.8627 9.33726C62.4629 9.93737 62.8 10.7513 62.8 11.6V14.8H5.2V11.6C5.2 10.7513 5.53714 9.93737 6.13726 9.33726C6.73738 8.73714 7.55131 8.4 8.4 8.4Z" stroke="black" stroke-width="0.8" mask="url(#path-9-outside-1_257_8851)"/>
<path d="M58.0004 65.8C57.523 65.8 57.0652 65.9896 56.7276 66.3272C56.39 66.6648 56.2004 67.1226 56.2004 67.6V70.8C56.2004 71.2774 56.39 71.7352 56.7276 72.0728C57.0652 72.4104 57.523 72.6 58.0004 72.6C58.4778 72.6 58.9356 72.4104 59.2732 72.0728C59.6107 71.7352 59.8004 71.2774 59.8004 70.8V67.6C59.8004 67.1226 59.6107 66.6648 59.2732 66.3272C58.9356 65.9896 58.4778 65.8 58.0004 65.8Z" fill="black" stroke="black" stroke-width="0.4"/>
<path d="M51.6 65.8H43.6C43.1226 65.8 42.6648 65.9896 42.3272 66.3272C41.9896 66.6648 41.8 67.1226 41.8 67.6C41.8 68.0774 41.9896 68.5352 42.3272 68.8728C42.6648 69.2104 43.1226 69.4 43.6 69.4H51.6C52.0774 69.4 52.5352 69.2104 52.8728 68.8728C53.2104 68.5352 53.4 68.0774 53.4 67.6C53.4 67.1226 53.2104 66.6648 52.8728 66.3272C52.5352 65.9896 52.0774 65.8 51.6 65.8Z" fill="black" stroke="black" stroke-width="0.4"/>
<path d="M66.8036 62.7893L66.8036 62.7893L63.6037 64.3893C63.6037 64.3893 63.6037 64.3893 63.6036 64.3893C63.1764 64.6027 62.8515 64.9771 62.7003 65.43C62.5491 65.883 62.584 66.3775 62.7974 66.8048C63.0107 67.232 63.3851 67.557 63.8381 67.7082C64.2911 67.8594 64.7856 67.8245 65.2128 67.6111L65.2129 67.6111L68.4128 66.0112C68.6244 65.9056 68.8131 65.7593 68.9682 65.5808C69.1233 65.4022 69.2417 65.1948 69.3166 64.9705C69.3914 64.7461 69.4214 64.5093 69.4047 64.2733C69.388 64.0374 69.3249 63.8071 69.2192 63.5956C69.1136 63.384 68.9674 63.1953 68.7888 63.0403C68.6103 62.8852 68.4029 62.7668 68.1786 62.6919C67.9542 62.6171 67.7173 62.5871 67.4814 62.6038C67.2455 62.6205 67.0152 62.6836 66.8036 62.7893Z" fill="black" stroke="black" stroke-width="0.4"/>
<path d="M96.3996 67.4001H93.1996C92.7222 67.4001 92.2644 67.5897 91.9268 67.9273C91.5893 68.2649 91.3996 68.7227 91.3996 69.2001C91.3996 69.6775 91.5893 70.1353 91.9268 70.4729C92.2644 70.8105 92.7222 71.0001 93.1996 71.0001H96.3996C96.877 71.0001 97.3348 70.8105 97.6724 70.4729C98.01 70.1353 98.1996 69.6775 98.1996 69.2001C98.1996 68.7227 98.01 68.2649 97.6724 67.9273C97.3348 67.5897 96.877 67.4001 96.3996 67.4001Z" fill="black" stroke="black" stroke-width="0.4"/>
<path d="M90.7221 76.9803L90.7221 76.9803L90.7196 76.9779C90.3801 76.65 89.9255 76.4686 89.4535 76.4727C88.9815 76.4768 88.5301 76.6661 88.1963 76.9998C87.8626 77.3335 87.6733 77.785 87.6692 78.257C87.6651 78.7289 87.8465 79.1836 88.1744 79.5231L88.1744 79.5231L88.1769 79.5256L90.4393 81.788L90.4392 81.788L90.4417 81.7904C90.7812 82.1183 91.2359 82.2997 91.7079 82.2956C92.1798 82.2915 92.6313 82.1022 92.965 81.7685C93.2987 81.4347 93.488 80.9833 93.4921 80.5113C93.4963 80.0394 93.3148 79.5847 92.9869 79.2452L92.987 79.2452L92.9845 79.2427L90.7221 76.9803Z" fill="black" stroke="black" stroke-width="0.4"/>
<path d="M92.9848 56.6122L92.9847 56.6122C92.6472 56.2747 92.1894 56.0852 91.7121 56.0852C91.2348 56.0852 90.7771 56.2747 90.4395 56.6122L90.4395 56.6122L88.1783 58.875C88.007 59.0408 87.8703 59.239 87.7762 59.458C87.6819 59.6776 87.6322 59.9138 87.6301 60.1528C87.6281 60.3918 87.6736 60.6289 87.7641 60.8501C87.8546 61.0713 87.9883 61.2723 88.1573 61.4413C88.3263 61.6103 88.5273 61.7439 88.7485 61.8344C88.9697 61.9249 89.2067 61.9705 89.4457 61.9684C89.6847 61.9663 89.9209 61.9167 90.1405 61.8223C90.3596 61.7282 90.5578 61.5915 90.7236 61.4202L92.9848 59.1574C93.3222 58.8199 93.5118 58.3621 93.5118 57.8848C93.5118 57.4075 93.3222 56.9498 92.9848 56.6122Z" fill="black" stroke="black" stroke-width="0.4"/>
</svg>
