<svg width="100" height="100" viewBox="0 0 100 100" fill="none" xmlns="http://www.w3.org/2000/svg">
<path d="M10.5459 90.4541H19.3913V56.218H10.5459V90.4541Z" fill="#00B0FB" fill-opacity="0.5"/>
<path d="M58.5049 58.1284C59.2305 58.5874 59.8454 59.2014 60.3053 59.9265C60.7652 60.6515 61.059 61.4695 61.1649 62.3216C61.2708 63.1736 61.1864 64.0388 60.918 64.8543L54.2998 84.9632C53.9183 86.1253 53.1795 87.137 52.1885 87.8537C51.1974 88.5705 50.0044 88.9556 48.7812 88.9541L33.5996 88.9541C31.678 88.9565 29.7926 88.4348 28.1455 87.4451L23.9092 84.8997" stroke="#00B0FB" stroke-width="2"/>
<path d="M86.3301 41.6306C87.8645 40.0962 88.7265 38.0152 88.7265 35.8452V17.7544C88.7265 15.5844 87.8647 13.5035 86.3303 11.9691C84.7959 10.4348 82.7147 9.57275 80.5448 9.57275H51.6633C49.4934 9.57275 47.4122 10.4346 45.8778 11.969C44.3435 13.5034 43.4814 15.5845 43.4814 17.7544V30.0999C44.75 30.8193 45.819 31.8444 46.5908 33.0818C48.1635 35.6272 48.4087 38.8999 47.3359 42.7817C48.6404 43.6016 50.1498 44.0363 51.6904 44.0361L65.2178 44.0361C65.7022 44.0351 66.1746 44.1889 66.5654 44.4751C66.9563 44.7613 67.2453 45.1648 67.3906 45.627C68.6546 49.3065 71.2491 52.3805 74.6637 54.2452C74.0025 51.4221 74.0776 48.4764 74.8818 45.6907C75.015 45.212 75.3006 44.7902 75.6963 44.4898C76.092 44.1893 76.5754 44.0268 77.0723 44.0271L80.5449 44.027C82.7149 44.027 84.7957 43.165 86.3301 41.6306Z" fill="#00B0FB"/>
<path d="M80.5451 5H51.6907C48.3152 5 45.078 6.3409 42.6912 8.72771C40.3044 11.1145 38.9635 14.3517 38.9635 17.7272V28.9817C38.1567 29.1218 37.4048 29.4833 36.7916 30.0259C36.1784 30.5684 35.728 31.2707 35.4908 32.0544C35.4585 32.1615 35.4341 32.2709 35.418 32.3817L34.8362 36.5907C34.6644 37.8228 34.3057 39.0214 33.7726 40.1453L28.0726 52.1361C27.6967 53.0163 27.1272 53.8004 26.4063 54.43C25.6854 55.0596 24.8318 55.5185 23.909 55.7725C23.8503 54.6527 23.3602 53.5993 22.5416 52.8331C21.7229 52.067 20.6393 51.6478 19.5181 51.6634H10.4272C9.85626 51.6513 9.28851 51.7522 8.75661 51.9602C8.22471 52.1682 7.73913 52.4792 7.32776 52.8753C6.91638 53.2715 6.58732 53.745 6.35947 54.2687C6.13161 54.7924 6.00945 55.356 6 55.927V90.7359C6.01915 91.8828 6.49195 92.9754 7.3149 93.7745C8.13785 94.5736 9.24389 95.0141 10.3909 94.9995H19.4817C20.6303 95.0165 21.7387 94.5771 22.5636 93.7778C23.3885 92.9784 23.8626 91.8844 23.8817 90.7359V90.1995L25.7817 91.3359C28.1312 92.7499 30.8213 93.4979 33.5635 93.4995H48.7452C50.9345 93.5089 53.0702 92.8228 54.8446 91.5403C56.6189 90.2578 57.9401 88.445 58.6179 86.3632L65.2451 66.2269C65.7211 64.7734 65.8691 63.2324 65.6786 61.7148C65.4881 60.1972 64.9637 58.7406 64.1431 57.4498C63.3226 56.1591 62.2263 55.0661 60.933 54.2495C59.6397 53.4329 58.1815 52.9129 56.6634 52.727C52.2998 52.1907 48.318 51.8634 45.618 51.8179C45.5248 50.2888 45.6751 48.7545 46.0634 47.2725C47.8105 48.1363 49.7326 48.5872 51.6816 48.5907H63.6542C65.9179 54.0452 70.336 57.1997 73.7906 58.9633C74.5009 59.3215 75.3021 59.4592 76.0912 59.3587C76.8804 59.2583 77.6215 58.9243 78.2194 58.3996C78.8174 57.8749 79.2449 57.1835 79.4471 56.4141C79.6493 55.6447 79.6169 54.8324 79.3542 54.0816C78.7693 52.3256 78.6165 50.4546 78.9087 48.627H80.5451C83.9205 48.627 87.1577 47.2861 89.5446 44.8993C91.9314 42.5125 93.2723 39.2753 93.2723 35.8998V17.7545C93.2759 16.0808 92.9493 14.4229 92.3113 12.8756C91.6733 11.3283 90.7364 9.92207 89.5542 8.73735C88.372 7.55263 86.9678 6.61271 85.4219 5.9714C83.8759 5.3301 82.2187 5 80.5451 5ZM19.3908 90.4541H10.5454V56.2179H19.3908V90.4541ZM56.1088 57.2724C56.961 57.3772 57.7794 57.6696 58.505 58.1285C59.2307 58.5875 59.8456 59.2015 60.3055 59.9266C60.7654 60.6516 61.0588 61.4696 61.1647 62.3217C61.2706 63.1737 61.1863 64.0387 60.9179 64.8542L54.2997 84.9632C53.9182 86.1253 53.1791 87.137 52.1881 87.8538C51.197 88.5706 50.0047 88.9557 48.7816 88.9541H33.5999C31.6783 88.9565 29.7924 88.4348 28.1453 87.445L23.909 84.8996V60.427H24.0908C25.8639 60.1182 27.5331 59.3756 28.9495 58.2653C30.366 57.155 31.4857 55.7114 32.209 54.0634L37.818 42.0998C38.5486 40.5561 39.0391 38.9098 39.2725 37.218L39.7907 33.4998C40.3857 33.6135 40.952 33.845 41.4562 34.1807C41.9605 34.5163 42.3926 34.9494 42.7271 35.4544C43.7089 37.0362 43.6907 39.4725 42.7271 42.4998C41.1998 47.1089 40.7271 50.7634 41.318 53.3634C41.5107 54.2186 41.9898 54.9822 42.676 55.5278C43.3621 56.0734 44.2141 56.3682 45.0907 56.3634C48.7772 56.4656 52.4554 56.7691 56.1088 57.2724ZM88.7268 35.8453C88.7268 38.0152 87.8648 40.0963 86.3305 41.6307C84.7961 43.1651 82.715 44.0271 80.5451 44.0271H77.0723C76.5755 44.0268 76.0923 44.1893 75.6966 44.4897C75.3009 44.7902 75.0146 45.212 74.8815 45.6907C74.0773 48.4764 74.0021 51.4221 74.6633 54.2452C71.2487 52.3805 68.6546 49.3066 67.3906 45.6271C67.2453 45.1649 66.9561 44.7613 66.5652 44.4752C66.1744 44.189 65.7023 44.0352 65.2179 44.0362H51.6907C50.15 44.0363 48.6406 43.6014 47.3361 42.7816C48.4089 38.8998 48.1634 35.6271 46.5907 33.0817C45.8189 31.8443 44.7502 30.8193 43.4816 30.0999V17.7545C43.4816 15.5845 44.3436 13.5035 45.878 11.9691C47.4124 10.4347 49.4935 9.5727 51.6634 9.5727H80.5451C82.715 9.5727 84.7961 10.4347 86.3305 11.9691C87.8648 13.5035 88.7268 15.5845 88.7268 17.7545V35.8453Z" fill="black"/>
<path d="M71.7456 19.9451L62.9093 28.7724L59.6366 25.5451C59.2099 25.1183 58.6311 24.8786 58.0275 24.8786C57.424 24.8786 56.8452 25.1183 56.4185 25.5451C55.9917 25.9719 55.752 26.5507 55.752 27.1542C55.752 27.7577 55.9917 28.3365 56.4185 28.7633L61.3003 33.636C61.5114 33.8476 61.7622 34.0155 62.0383 34.1301C62.3144 34.2447 62.6104 34.3037 62.9093 34.3037C63.2083 34.3037 63.5043 34.2447 63.7804 34.1301C64.0565 34.0155 64.3073 33.8476 64.5184 33.636L74.9547 23.1542C75.3815 22.7274 75.6212 22.1486 75.6212 21.5451C75.6212 20.9416 75.3815 20.3628 74.9547 19.936C74.528 19.5093 73.9492 19.2695 73.3456 19.2695C72.7421 19.2695 72.1633 19.5093 71.7366 19.936L71.7456 19.9451Z" fill="black"/>
</svg>
