<svg width="100" height="100" viewBox="0 0 100 100" fill="none" xmlns="http://www.w3.org/2000/svg">
<path d="M75.1529 19.0022H6.57227V41.8623L27.1465 41.8625L27.1464 35.0044L24.8606 35.0043C24.2543 35.0043 23.6725 34.7634 23.2438 34.3347C22.8151 33.906 22.5742 33.3246 22.5742 32.7183C22.5742 32.112 22.8154 31.5306 23.2441 31.1019C23.6729 30.6732 24.2541 30.4324 24.8604 30.4324H56.8643C57.4705 30.4324 58.0527 30.6731 58.4814 31.1018C58.9102 31.5305 59.151 32.112 59.151 32.7183C59.151 33.3246 58.9094 33.906 58.4807 34.3347C58.052 34.7634 57.4704 35.0044 56.8641 35.0044H54.5781V41.8623L75.1523 41.8624L75.1529 19.0022Z" fill="#00B0FB" fill-opacity="0.5"/>
<path d="M40.8623 54.9367L50.0064 47.6221L50.0069 35.0044H31.7188V47.6221L40.8623 54.9367Z" fill="#00B0FB"/>
<path d="M92.7841 57.6057C92.336 57.1811 91.747 56.9366 91.1299 56.9192L73.2909 57.1277C72.8419 57.1332 72.4045 57.2717 72.0341 57.5256C71.6637 57.7796 71.3777 58.1378 71.2107 58.5547C71.0438 58.9716 71.0041 59.4285 71.0967 59.8679C71.1893 60.3073 71.4094 60.7094 71.7305 61.0234C72.1638 61.4408 72.7431 61.6727 73.3447 61.6698L79.2695 61.6004C79.7345 61.5845 80.1928 61.7156 80.5791 61.9749C80.9654 62.2341 81.2604 62.6086 81.4219 63.0449C81.5922 63.4752 81.6273 63.9472 81.5236 64.3982C81.42 64.8492 81.1824 65.2582 80.8413 65.571L64.759 80.3274C64.3579 80.6951 63.8386 80.9077 63.2948 80.927C62.751 80.9462 62.218 80.7708 61.7919 80.4323L49.4997 70.6587C49.0911 70.3356 48.5844 70.1624 48.0636 70.1677C47.5428 70.173 47.0398 70.3565 46.6379 70.6877L25.6952 88.074C25.464 88.266 25.2735 88.5019 25.134 88.7681C24.9945 89.0342 24.9091 89.3252 24.8828 89.6245C24.8564 89.9238 24.8897 90.2253 24.9805 90.5117C25.0713 90.7981 25.2181 91.0638 25.4121 91.2932C25.8004 91.7484 26.3513 92.0334 26.9473 92.087C27.5432 92.1407 28.1363 91.9586 28.5996 91.58L46.7432 76.5869C47.1471 76.2533 47.6529 76.0687 48.1768 76.0638C48.7006 76.0589 49.2101 76.234 49.6201 76.5601L62.0127 86.4119C62.4354 86.7503 62.9657 86.9257 63.5068 86.9065C64.048 86.8872 64.5643 86.6746 64.9619 86.3071L84.6426 68.2511C84.9749 67.946 85.3902 67.746 85.8359 67.6765C86.2817 67.6069 86.738 67.6712 87.1475 67.8606C87.5569 68.05 87.9011 68.3564 88.1367 68.7412C88.3723 69.126 88.4891 69.5716 88.4716 70.0225L88.1833 77.585C88.1605 78.1871 88.3784 78.7737 88.7881 79.2156C89.1977 79.6575 89.766 79.9186 90.3682 79.9414C90.9703 79.9642 91.5561 79.7467 91.998 79.3371C92.4399 78.9274 92.7018 78.359 92.7246 77.7568L93.4272 59.2767C93.4396 58.969 93.3887 58.662 93.2782 58.3746C93.1676 58.0873 92.9995 57.8257 92.7841 57.6057Z" fill="#00B0FB"/>
<path d="M62.6425 14.4301L59.8877 7.57202H21.835L19.0938 14.4301" stroke="#00B0FB" stroke-width="2"/>
<path d="M6.57204 46.4344V67.0086C6.57343 68.2208 7.05557 69.3829 7.91269 70.24C8.76982 71.0971 9.93193 71.5793 11.1441 71.5807H38.4033L22.7751 84.5556C21.3856 85.7169 20.5126 87.3813 20.3471 89.1846C20.1817 90.9879 20.7372 92.7833 21.8923 94.1781C23.0473 95.5728 24.7078 96.4532 26.5103 96.6267C28.3129 96.8002 30.1108 96.2526 31.5107 95.1038L48.225 81.2917L59.1684 89.9904C60.4415 91.0101 62.0382 91.5391 63.6682 91.4813C65.2983 91.4236 66.8536 90.7829 68.0513 89.6756L83.694 75.3244L83.6159 77.4106C83.5817 78.3086 83.7248 79.2045 84.0369 80.0472C84.3489 80.8898 84.824 81.6628 85.4348 82.3219C86.0456 82.981 86.7802 83.5134 87.5968 83.8886C88.4133 84.2638 89.2958 84.4745 90.1938 84.5086C91.0917 84.5428 91.9877 84.3997 92.8303 84.0877C93.673 83.7756 94.446 83.3006 95.1051 82.6897C95.7642 82.0789 96.2966 81.3443 96.6718 80.5277C97.047 79.7112 97.2577 78.8287 97.2918 77.9307L97.995 59.4495C98.0303 58.5229 97.8769 57.5987 97.544 56.7332C97.2112 55.8677 96.7059 55.0789 96.0589 54.4147C95.4119 53.7504 94.6366 53.2246 93.7801 52.8692C92.9237 52.5137 92.0039 52.3361 91.0767 52.347L75.1527 52.5335V46.4344C76.3648 46.4331 77.527 45.9509 78.3841 45.0938C79.2412 44.2367 79.7233 43.0746 79.7247 41.8624V19.0022C79.7233 17.79 79.2412 16.6279 78.3841 15.7708C77.527 14.9137 76.3648 14.4315 75.1527 14.4301H67.1717C67.1832 13.8502 67.0831 13.2734 66.877 12.7313L64.1334 5.87548C63.7974 5.02485 63.2126 4.29535 62.4555 3.78235C61.6983 3.26934 60.804 2.99669 59.8895 3.00003H21.8353C20.921 2.99668 20.027 3.26906 19.2699 3.78162C18.5128 4.29417 17.9278 5.02309 17.5914 5.87319L14.8477 12.7324C14.6416 13.2742 14.5415 13.8506 14.553 14.4301H6.57204C5.35989 14.4315 4.19777 14.9137 3.34065 15.7708C2.48353 16.6279 2.00139 17.79 2 19.0022V41.8624C2.00139 43.0746 2.48353 44.2367 3.34065 45.0938C4.19777 45.9509 5.35989 46.4331 6.57204 46.4344ZM91.1303 56.9191C91.7474 56.9366 92.3364 57.181 92.7845 57.6056C92.9999 57.8256 93.168 58.0874 93.2785 58.3747C93.3891 58.6621 93.4398 58.969 93.4275 59.2767L92.7242 77.7569C92.7014 78.359 92.4404 78.9274 91.9985 79.3371C91.5566 79.7468 90.97 79.9641 90.3679 79.9413C89.7658 79.9185 89.1973 79.6574 88.7877 79.2155C88.378 78.7736 88.1607 78.1871 88.1835 77.585L88.4715 70.0226C88.4889 69.5718 88.3726 69.1259 88.137 68.7411C87.9014 68.3563 87.5572 68.0499 87.1478 67.8605C86.7383 67.671 86.2819 67.607 85.8362 67.6766C85.3904 67.7461 84.9752 67.946 84.6429 68.2511L64.9616 86.307C64.564 86.6746 64.0477 86.8873 63.5066 86.9066C62.9654 86.9258 62.4354 86.7503 62.0126 86.4119L49.6203 76.5601C49.2103 76.2341 48.7007 76.0588 48.1768 76.0637C47.6529 76.0686 47.1467 76.2533 46.7427 76.5869L28.5997 91.58C28.1363 91.9586 27.5431 92.1406 26.9472 92.087C26.3512 92.0334 25.8 91.7484 25.4117 91.2932C25.2177 91.0637 25.0711 90.7981 24.9803 90.5117C24.8895 90.2253 24.8563 89.9238 24.8826 89.6245C24.909 89.3252 24.9944 89.0341 25.1338 88.7679C25.2733 88.5018 25.4641 88.266 25.6952 88.074L46.6378 70.6877C47.0397 70.3565 47.5429 70.1729 48.0637 70.1676C48.5845 70.1623 49.0913 70.3356 49.4999 70.6587L61.7918 80.4323C62.2179 80.7708 62.7508 80.9461 63.2946 80.9269C63.8385 80.9077 64.3576 80.6951 64.7587 80.3274L80.8412 65.5709C81.1823 65.2581 81.4204 64.8492 81.5241 64.3981C81.6277 63.9471 81.592 63.4752 81.4217 63.0449C81.2603 62.6085 80.9654 62.2341 80.5791 61.9748C80.1928 61.7155 79.7346 61.5846 79.2696 61.6005L73.3447 61.6697C72.7431 61.6726 72.1641 61.4407 71.7308 61.0234C71.4097 60.7094 71.1889 60.3073 71.0963 59.8679C71.0037 59.4285 71.0434 58.9715 71.2104 58.5546C71.3774 58.1377 71.6642 57.7797 72.0345 57.5258C72.4049 57.2718 72.8422 57.1333 73.2913 57.1278L91.1303 56.9191ZM58.0047 71.5807H67.5283L63.1064 75.6381L58.0047 71.5807ZM70.5806 53.1265C69.553 53.575 68.6513 54.2692 67.9549 55.148C67.2585 56.0267 66.7886 57.0632 66.5866 58.1661C66.3847 59.269 66.4568 60.4047 66.7967 61.4732C67.1365 62.5417 67.7337 63.5104 68.5357 64.294C69.1275 64.86 69.8214 65.3084 70.5806 65.6153V67.0086H52.2378C51.0459 66.1031 49.5903 65.6129 48.0935 65.6129C46.5967 65.6129 45.1411 66.1031 43.9493 67.0086H11.1441V46.4344H27.1462V48.7205C27.146 49.0632 27.2229 49.4016 27.3713 49.7106C27.5197 50.0196 27.7358 50.2912 28.0035 50.5053L39.4336 59.6494C39.8391 59.9738 40.343 60.1506 40.8624 60.1506C41.3817 60.1506 41.8856 59.9738 42.2911 59.6494L53.7212 50.5053C53.9889 50.2912 54.205 50.0196 54.3534 49.7106C54.5018 49.4016 54.5787 49.0632 54.5785 48.7205V46.4344H70.5806V53.1265ZM50.0065 47.6221L40.8624 54.9367L31.7183 47.6221V35.0043H50.0065V47.6221ZM21.8353 7.57207H59.8873L62.6421 14.4301H19.0938L21.8353 7.57207ZM6.57204 19.0022H75.1527V41.8624H54.5785V35.0043H56.8645C57.4708 35.0043 58.0523 34.7635 58.481 34.3348C58.9097 33.9061 59.1505 33.3246 59.1505 32.7183C59.1505 32.112 58.9097 31.5306 58.481 31.1018C58.0523 30.6731 57.4708 30.4323 56.8645 30.4323H24.8602C24.2539 30.4323 23.6725 30.6731 23.2438 31.1018C22.815 31.5306 22.5742 32.112 22.5742 32.7183C22.5742 33.3246 22.815 33.9061 23.2438 34.3348C23.6725 34.7635 24.2539 35.0043 24.8602 35.0043H27.1462V41.8624H6.57204V19.0022Z" fill="black"/>
</svg>
