<svg width="100" height="100" viewBox="0 0 100 100" fill="none" xmlns="http://www.w3.org/2000/svg">
<path d="M19.1162 88.7371C19.6757 88.9034 20.0839 89.3721 20.1595 89.9316L20.5684 92.6382L25.5273 92.638L26.0566 90.0071C26.1776 89.4628 26.6012 89.0242 27.1455 88.8881C28.4005 88.5706 29.6258 88.102 30.79 87.467C31.289 87.1948 31.8931 87.2401 32.3467 87.5728L34.4639 89.1301L38.078 85.6827L36.6112 83.4751C36.2937 82.9913 36.2786 82.3865 36.5811 81.9027C37.2464 80.814 37.7753 79.6194 38.1533 78.3492C38.3045 77.8049 38.7579 77.4118 39.3174 77.3211L41.9482 76.9128L42.0695 71.923L39.4988 71.409C38.9545 71.3032 38.5159 70.8798 38.3798 70.3354C38.0623 69.0351 37.5791 67.8103 36.9743 66.6914C36.7021 66.1924 36.7474 65.5724 37.0801 65.1188L38.6526 63.002L35.2349 59.4185L33.0276 60.9001C32.5438 61.2177 31.939 61.2177 31.4551 60.9304C30.3362 60.25 29.1416 59.7207 27.8866 59.3579C27.3422 59.2067 26.9336 58.7379 26.858 58.1785L26.465 55.4719H21.4902L20.9613 58.0879C20.8554 58.6322 20.4475 59.0556 19.9183 59.2068L19.7521 59.2522C18.4366 59.6151 17.3024 60.0686 16.2439 60.6432C15.745 60.9154 15.1398 60.87 14.6862 60.5374L12.5698 58.98L8.95605 62.4275L10.4072 64.6199C10.7096 65.0886 10.7244 65.7085 10.422 66.1924C10.1801 66.6006 9.92316 67.0543 9.66611 67.6138C9.34858 68.2942 9.06198 69.0047 8.85029 69.7607C8.68397 70.3051 8.22948 70.6983 7.67002 70.7891L5.03991 71.1973L4.91895 76.1719L7.50391 76.686C8.06336 76.7919 8.50259 77.2152 8.63867 77.7747C8.94108 79.0145 9.40973 80.2393 10.0297 81.4187C10.3018 81.9177 10.2558 82.5225 9.92311 82.9761L8.35059 85.1082L11.7832 88.6917L13.9912 87.1947C14.4599 86.8772 15.0796 86.8621 15.5635 87.1646C16.6975 87.8601 17.8915 88.3893 19.1162 88.7371Z" fill="#00B0FB" fill-opacity="0.5"/>
<path d="M28.4912 92.6682H79.4773C81.6093 92.6682 83.3335 90.9295 83.3486 88.7975L83.3481 85.0779H41.1621L41.1775 85.1082C41.5555 85.6979 41.4795 86.4839 40.9654 86.9678L35.5976 92.0938C35.0835 92.5927 34.2979 92.6379 33.7233 92.2146L33.3905 91.9577L33.3876 91.9562C33.3281 91.9265 33.2684 91.8967 33.2387 91.8669L31.3492 90.4758C30.5025 90.8841 29.6252 91.2168 28.7331 91.489L28.4912 92.6682Z" fill="#00B0FB" fill-opacity="0.5"/>
<path d="M94.082 66.1341L94.0821 32.627C94.0821 31.9164 93.5074 31.3418 92.7968 31.3418H47.7832C47.0725 31.3418 46.498 31.9164 46.498 32.627" stroke="#00B0FB" stroke-width="2"/>
<path d="M79.4922 7.90308H29.1562C27.0243 7.90308 25.3008 9.64194 25.3008 11.7739V15.4937L83.333 15.4935L83.3328 11.7588C83.3328 9.62681 81.6091 7.90308 79.4922 7.90308Z" fill="#00B0FB" fill-opacity="0.5"/>
<path d="M59.5034 87.2771H49.1156C48.1762 87.2771 47.4141 88.0392 47.4141 88.9787C47.4141 89.9181 48.1762 90.6802 49.1156 90.6802H59.5034C60.4428 90.6802 61.2049 89.9181 61.2049 88.9787C61.2049 88.0409 60.4596 87.2771 59.5034 87.2771Z" fill="black" stroke="black" stroke-width="0.5"/>
<path d="M49.1303 13.4151H59.518C60.4575 13.4151 61.2196 12.653 61.2196 11.7135C61.2196 10.7741 60.4575 10.012 59.518 10.012H49.1303C48.1908 10.012 47.4287 10.7741 47.4287 11.7135C47.4287 12.6513 48.174 13.4151 49.1303 13.4151Z" fill="black" stroke="black" stroke-width="0.5"/>
<path d="M26.2861 53.5841V19.4119H84.3335" stroke="#00B0FB" stroke-width="2"/>
<mask id="path-8-outside-1_257_9592" maskUnits="userSpaceOnUse" x="1" y="4" width="98" height="93" fill="black">
<rect fill="white" x="1" y="4" width="98" height="93"/>
<path d="M93.8116 27.4236H86.2514V11.7588C86.2514 8.02409 83.2273 5 79.5077 5H29.1566C25.4219 5 22.3827 8.03921 22.3827 11.774V52.5689H20.2961C19.6005 52.5689 19.0108 53.0528 18.8747 53.7332L18.285 56.6514C17.3778 56.9236 16.516 57.2562 15.6692 57.6645L13.2953 55.9256C12.7207 55.5023 11.9345 55.5628 11.4355 56.0466L6.05261 61.1724C5.53852 61.6563 5.46291 62.4425 5.84093 63.0322L7.47393 65.4969C7.32273 65.769 7.17152 66.0715 7.02032 66.389C6.77839 66.9182 6.53647 67.4777 6.3399 68.0522L3.40654 68.5058C2.711 68.6117 2.1969 69.2014 2.18178 69.912L2.00033 77.3362C1.98521 78.0468 2.48419 78.6668 3.17973 78.8029L6.08285 79.3774C6.3399 80.2544 6.67255 81.1314 7.0808 81.9781L5.31171 84.3672C4.88834 84.9418 4.94882 85.728 5.43267 86.2421L10.5585 91.5947C11.0424 92.1088 11.8286 92.1845 12.4183 91.7913L14.8981 90.1281C15.7146 90.5817 16.5764 90.9446 17.4383 91.2621L17.8768 94.3316C17.9826 95.0422 18.5875 95.5714 19.3132 95.5714H79.4926C83.2273 95.5714 86.2514 92.5322 86.2514 88.7975V69.3223H93.8116C96.1251 69.3223 98 67.4474 98 65.134V31.6271C98 29.3137 96.1251 27.4236 93.8116 27.4236ZM29.1566 7.90312H79.4926C81.6094 7.90312 83.3332 9.62685 83.3332 11.7588V15.4936H25.3009V11.774C25.3009 9.64198 27.0247 7.90312 29.1566 7.90312ZM20.16 89.9315C20.0844 89.372 19.6761 88.9033 19.1167 88.737C17.8919 88.3892 16.6974 87.86 15.5634 87.1645C15.0795 86.8621 14.4596 86.8772 13.9908 87.1947L11.7833 88.6916L8.35092 85.1081L9.92344 82.9761C10.2561 82.5225 10.3015 81.9177 10.0293 81.4187C9.40935 80.2393 8.94062 79.0145 8.63821 77.7747C8.50212 77.2152 8.06363 76.7918 7.50417 76.686L4.91858 76.1719L5.03954 71.1973L7.6705 70.789C8.22996 70.6983 8.68357 70.3052 8.84989 69.7608C9.06158 69.0048 9.34887 68.2942 9.6664 67.6137C9.92344 67.0543 10.1805 66.6007 10.4224 66.1924C10.7248 65.7086 10.7097 65.0886 10.4073 64.6199L8.95574 62.4274L12.5695 58.98L14.6864 60.5374C15.14 60.87 15.7448 60.9154 16.2438 60.6432C17.3022 60.0686 18.4363 59.615 19.7517 59.2521L19.9181 59.2068C20.4473 59.0556 20.8555 58.6322 20.9614 58.0879L21.4906 55.472H23.8342C23.8342 55.472 23.8342 55.472 23.8494 55.472C23.8645 55.472 23.8494 55.472 23.8645 55.472H26.4652L26.8583 58.1786C26.9339 58.738 27.3422 59.2068 27.8865 59.358C29.1415 59.7209 30.336 60.2501 31.4549 60.9305C31.9388 61.2178 32.5436 61.2178 33.0275 60.9003L35.2351 59.4185L38.6523 63.002L37.0798 65.1189C36.7471 65.5725 36.7017 66.1924 36.9739 66.6914C37.5787 67.8103 38.0626 69.0351 38.3801 70.3354C38.5162 70.8797 38.9547 71.3031 39.499 71.409L42.0695 71.9231L41.9485 76.9128L39.3176 77.3211C38.7581 77.4118 38.3045 77.8049 38.1533 78.3493C37.7753 79.6194 37.2461 80.8139 36.5808 81.9025C36.2784 82.3864 36.2935 82.9912 36.611 83.4751L38.0777 85.6827L34.4639 89.1301L32.3471 87.5727C31.8934 87.2401 31.2886 87.1947 30.7896 87.4669C29.6254 88.1019 28.4006 88.5707 27.1456 88.8882C26.6013 89.0243 26.1779 89.4628 26.057 90.0071L25.5277 92.6381H20.5682L20.16 89.9315ZM79.4775 92.6683H28.4913L28.7333 91.4889C29.6254 91.2167 30.5024 90.8841 31.3491 90.4758L33.2392 91.8669C33.2694 91.8972 33.3299 91.9274 33.3904 91.9576L33.723 92.2147C34.2976 92.6381 35.0839 92.5927 35.5979 92.0937L40.9657 86.9679C41.4798 86.484 41.5554 85.6978 41.1774 85.1081L41.1623 85.0778H83.3483V88.7975C83.3332 90.9295 81.6094 92.6683 79.4775 92.6683ZM83.3332 82.1596H39.7712C40.1038 81.4792 40.4214 80.7988 40.6784 80.073L43.6118 79.6194C44.3073 79.5135 44.8214 78.9238 44.8365 78.2132L45.018 70.789C45.0331 70.0784 44.5493 69.4584 43.8537 69.3223L40.9506 68.7327C40.6784 67.8254 40.3458 66.9484 39.9375 66.1319L41.6915 63.758C42.1149 63.1834 42.0695 62.3972 41.5705 61.8831L36.4598 56.5305C35.976 56.0164 35.1897 55.9408 34.6 56.3339L32.1354 57.9971C31.3189 57.5586 30.4721 57.1806 29.5951 56.8782L29.1415 53.8239C29.0357 53.1132 28.4309 52.584 27.7051 52.584H25.2858V18.4118H83.3332V27.4387H48.7981C46.4847 27.4387 44.6097 29.3137 44.6097 31.6271V65.134C44.6097 67.4474 46.4847 69.3223 48.7981 69.3223H54.0298V73.677C54.0298 74.7959 54.6648 75.7939 55.693 76.2475C56.071 76.4138 56.4642 76.5046 56.8573 76.5046C57.5226 76.5046 58.1879 76.2626 58.7171 75.7939L66.0354 69.3223H83.3332V82.1596ZM95.0969 65.134C95.0969 65.8446 94.5223 66.4192 93.8116 66.4192H65.4759C65.1282 66.4192 64.7804 66.5553 64.5082 66.7821L56.9178 73.4956V67.8859C56.9178 67.0845 56.2676 66.4343 55.4662 66.4343H48.783C48.0723 66.4343 47.4977 65.8598 47.4977 65.1491V31.6271C47.4977 30.9164 48.0723 30.3419 48.783 30.3419H93.7965C94.5072 30.3419 95.0818 30.9164 95.0818 31.6271V65.134H95.0969Z"/>
</mask>
<path d="M93.8116 27.4236H86.2514V11.7588C86.2514 8.02409 83.2273 5 79.5077 5H29.1566C25.4219 5 22.3827 8.03921 22.3827 11.774V52.5689H20.2961C19.6005 52.5689 19.0108 53.0528 18.8747 53.7332L18.285 56.6514C17.3778 56.9236 16.516 57.2562 15.6692 57.6645L13.2953 55.9256C12.7207 55.5023 11.9345 55.5628 11.4355 56.0466L6.05261 61.1724C5.53852 61.6563 5.46291 62.4425 5.84093 63.0322L7.47393 65.4969C7.32273 65.769 7.17152 66.0715 7.02032 66.389C6.77839 66.9182 6.53647 67.4777 6.3399 68.0522L3.40654 68.5058C2.711 68.6117 2.1969 69.2014 2.18178 69.912L2.00033 77.3362C1.98521 78.0468 2.48419 78.6668 3.17973 78.8029L6.08285 79.3774C6.3399 80.2544 6.67255 81.1314 7.0808 81.9781L5.31171 84.3672C4.88834 84.9418 4.94882 85.728 5.43267 86.2421L10.5585 91.5947C11.0424 92.1088 11.8286 92.1845 12.4183 91.7913L14.8981 90.1281C15.7146 90.5817 16.5764 90.9446 17.4383 91.2621L17.8768 94.3316C17.9826 95.0422 18.5875 95.5714 19.3132 95.5714H79.4926C83.2273 95.5714 86.2514 92.5322 86.2514 88.7975V69.3223H93.8116C96.1251 69.3223 98 67.4474 98 65.134V31.6271C98 29.3137 96.1251 27.4236 93.8116 27.4236ZM29.1566 7.90312H79.4926C81.6094 7.90312 83.3332 9.62685 83.3332 11.7588V15.4936H25.3009V11.774C25.3009 9.64198 27.0247 7.90312 29.1566 7.90312ZM20.16 89.9315C20.0844 89.372 19.6761 88.9033 19.1167 88.737C17.8919 88.3892 16.6974 87.86 15.5634 87.1645C15.0795 86.8621 14.4596 86.8772 13.9908 87.1947L11.7833 88.6916L8.35092 85.1081L9.92344 82.9761C10.2561 82.5225 10.3015 81.9177 10.0293 81.4187C9.40935 80.2393 8.94062 79.0145 8.63821 77.7747C8.50212 77.2152 8.06363 76.7918 7.50417 76.686L4.91858 76.1719L5.03954 71.1973L7.6705 70.789C8.22996 70.6983 8.68357 70.3052 8.84989 69.7608C9.06158 69.0048 9.34887 68.2942 9.6664 67.6137C9.92344 67.0543 10.1805 66.6007 10.4224 66.1924C10.7248 65.7086 10.7097 65.0886 10.4073 64.6199L8.95574 62.4274L12.5695 58.98L14.6864 60.5374C15.14 60.87 15.7448 60.9154 16.2438 60.6432C17.3022 60.0686 18.4363 59.615 19.7517 59.2521L19.9181 59.2068C20.4473 59.0556 20.8555 58.6322 20.9614 58.0879L21.4906 55.472H23.8342C23.8342 55.472 23.8342 55.472 23.8494 55.472C23.8645 55.472 23.8494 55.472 23.8645 55.472H26.4652L26.8583 58.1786C26.9339 58.738 27.3422 59.2068 27.8865 59.358C29.1415 59.7209 30.336 60.2501 31.4549 60.9305C31.9388 61.2178 32.5436 61.2178 33.0275 60.9003L35.2351 59.4185L38.6523 63.002L37.0798 65.1189C36.7471 65.5725 36.7017 66.1924 36.9739 66.6914C37.5787 67.8103 38.0626 69.0351 38.3801 70.3354C38.5162 70.8797 38.9547 71.3031 39.499 71.409L42.0695 71.9231L41.9485 76.9128L39.3176 77.3211C38.7581 77.4118 38.3045 77.8049 38.1533 78.3493C37.7753 79.6194 37.2461 80.8139 36.5808 81.9025C36.2784 82.3864 36.2935 82.9912 36.611 83.4751L38.0777 85.6827L34.4639 89.1301L32.3471 87.5727C31.8934 87.2401 31.2886 87.1947 30.7896 87.4669C29.6254 88.1019 28.4006 88.5707 27.1456 88.8882C26.6013 89.0243 26.1779 89.4628 26.057 90.0071L25.5277 92.6381H20.5682L20.16 89.9315ZM79.4775 92.6683H28.4913L28.7333 91.4889C29.6254 91.2167 30.5024 90.8841 31.3491 90.4758L33.2392 91.8669C33.2694 91.8972 33.3299 91.9274 33.3904 91.9576L33.723 92.2147C34.2976 92.6381 35.0839 92.5927 35.5979 92.0937L40.9657 86.9679C41.4798 86.484 41.5554 85.6978 41.1774 85.1081L41.1623 85.0778H83.3483V88.7975C83.3332 90.9295 81.6094 92.6683 79.4775 92.6683ZM83.3332 82.1596H39.7712C40.1038 81.4792 40.4214 80.7988 40.6784 80.073L43.6118 79.6194C44.3073 79.5135 44.8214 78.9238 44.8365 78.2132L45.018 70.789C45.0331 70.0784 44.5493 69.4584 43.8537 69.3223L40.9506 68.7327C40.6784 67.8254 40.3458 66.9484 39.9375 66.1319L41.6915 63.758C42.1149 63.1834 42.0695 62.3972 41.5705 61.8831L36.4598 56.5305C35.976 56.0164 35.1897 55.9408 34.6 56.3339L32.1354 57.9971C31.3189 57.5586 30.4721 57.1806 29.5951 56.8782L29.1415 53.8239C29.0357 53.1132 28.4309 52.584 27.7051 52.584H25.2858V18.4118H83.3332V27.4387H48.7981C46.4847 27.4387 44.6097 29.3137 44.6097 31.6271V65.134C44.6097 67.4474 46.4847 69.3223 48.7981 69.3223H54.0298V73.677C54.0298 74.7959 54.6648 75.7939 55.693 76.2475C56.071 76.4138 56.4642 76.5046 56.8573 76.5046C57.5226 76.5046 58.1879 76.2626 58.7171 75.7939L66.0354 69.3223H83.3332V82.1596ZM95.0969 65.134C95.0969 65.8446 94.5223 66.4192 93.8116 66.4192H65.4759C65.1282 66.4192 64.7804 66.5553 64.5082 66.7821L56.9178 73.4956V67.8859C56.9178 67.0845 56.2676 66.4343 55.4662 66.4343H48.783C48.0723 66.4343 47.4977 65.8598 47.4977 65.1491V31.6271C47.4977 30.9164 48.0723 30.3419 48.783 30.3419H93.7965C94.5072 30.3419 95.0818 30.9164 95.0818 31.6271V65.134H95.0969Z" fill="black"/>
<path d="M93.8116 27.4236H86.2514V11.7588C86.2514 8.02409 83.2273 5 79.5077 5H29.1566C25.4219 5 22.3827 8.03921 22.3827 11.774V52.5689H20.2961C19.6005 52.5689 19.0108 53.0528 18.8747 53.7332L18.285 56.6514C17.3778 56.9236 16.516 57.2562 15.6692 57.6645L13.2953 55.9256C12.7207 55.5023 11.9345 55.5628 11.4355 56.0466L6.05261 61.1724C5.53852 61.6563 5.46291 62.4425 5.84093 63.0322L7.47393 65.4969C7.32273 65.769 7.17152 66.0715 7.02032 66.389C6.77839 66.9182 6.53647 67.4777 6.3399 68.0522L3.40654 68.5058C2.711 68.6117 2.1969 69.2014 2.18178 69.912L2.00033 77.3362C1.98521 78.0468 2.48419 78.6668 3.17973 78.8029L6.08285 79.3774C6.3399 80.2544 6.67255 81.1314 7.0808 81.9781L5.31171 84.3672C4.88834 84.9418 4.94882 85.728 5.43267 86.2421L10.5585 91.5947C11.0424 92.1088 11.8286 92.1845 12.4183 91.7913L14.8981 90.1281C15.7146 90.5817 16.5764 90.9446 17.4383 91.2621L17.8768 94.3316C17.9826 95.0422 18.5875 95.5714 19.3132 95.5714H79.4926C83.2273 95.5714 86.2514 92.5322 86.2514 88.7975V69.3223H93.8116C96.1251 69.3223 98 67.4474 98 65.134V31.6271C98 29.3137 96.1251 27.4236 93.8116 27.4236ZM29.1566 7.90312H79.4926C81.6094 7.90312 83.3332 9.62685 83.3332 11.7588V15.4936H25.3009V11.774C25.3009 9.64198 27.0247 7.90312 29.1566 7.90312ZM20.16 89.9315C20.0844 89.372 19.6761 88.9033 19.1167 88.737C17.8919 88.3892 16.6974 87.86 15.5634 87.1645C15.0795 86.8621 14.4596 86.8772 13.9908 87.1947L11.7833 88.6916L8.35092 85.1081L9.92344 82.9761C10.2561 82.5225 10.3015 81.9177 10.0293 81.4187C9.40935 80.2393 8.94062 79.0145 8.63821 77.7747C8.50212 77.2152 8.06363 76.7918 7.50417 76.686L4.91858 76.1719L5.03954 71.1973L7.6705 70.789C8.22996 70.6983 8.68357 70.3052 8.84989 69.7608C9.06158 69.0048 9.34887 68.2942 9.6664 67.6137C9.92344 67.0543 10.1805 66.6007 10.4224 66.1924C10.7248 65.7086 10.7097 65.0886 10.4073 64.6199L8.95574 62.4274L12.5695 58.98L14.6864 60.5374C15.14 60.87 15.7448 60.9154 16.2438 60.6432C17.3022 60.0686 18.4363 59.615 19.7517 59.2521L19.9181 59.2068C20.4473 59.0556 20.8555 58.6322 20.9614 58.0879L21.4906 55.472H23.8342C23.8342 55.472 23.8342 55.472 23.8494 55.472C23.8645 55.472 23.8494 55.472 23.8645 55.472H26.4652L26.8583 58.1786C26.9339 58.738 27.3422 59.2068 27.8865 59.358C29.1415 59.7209 30.336 60.2501 31.4549 60.9305C31.9388 61.2178 32.5436 61.2178 33.0275 60.9003L35.2351 59.4185L38.6523 63.002L37.0798 65.1189C36.7471 65.5725 36.7017 66.1924 36.9739 66.6914C37.5787 67.8103 38.0626 69.0351 38.3801 70.3354C38.5162 70.8797 38.9547 71.3031 39.499 71.409L42.0695 71.9231L41.9485 76.9128L39.3176 77.3211C38.7581 77.4118 38.3045 77.8049 38.1533 78.3493C37.7753 79.6194 37.2461 80.8139 36.5808 81.9025C36.2784 82.3864 36.2935 82.9912 36.611 83.4751L38.0777 85.6827L34.4639 89.1301L32.3471 87.5727C31.8934 87.2401 31.2886 87.1947 30.7896 87.4669C29.6254 88.1019 28.4006 88.5707 27.1456 88.8882C26.6013 89.0243 26.1779 89.4628 26.057 90.0071L25.5277 92.6381H20.5682L20.16 89.9315ZM79.4775 92.6683H28.4913L28.7333 91.4889C29.6254 91.2167 30.5024 90.8841 31.3491 90.4758L33.2392 91.8669C33.2694 91.8972 33.3299 91.9274 33.3904 91.9576L33.723 92.2147C34.2976 92.6381 35.0839 92.5927 35.5979 92.0937L40.9657 86.9679C41.4798 86.484 41.5554 85.6978 41.1774 85.1081L41.1623 85.0778H83.3483V88.7975C83.3332 90.9295 81.6094 92.6683 79.4775 92.6683ZM83.3332 82.1596H39.7712C40.1038 81.4792 40.4214 80.7988 40.6784 80.073L43.6118 79.6194C44.3073 79.5135 44.8214 78.9238 44.8365 78.2132L45.018 70.789C45.0331 70.0784 44.5493 69.4584 43.8537 69.3223L40.9506 68.7327C40.6784 67.8254 40.3458 66.9484 39.9375 66.1319L41.6915 63.758C42.1149 63.1834 42.0695 62.3972 41.5705 61.8831L36.4598 56.5305C35.976 56.0164 35.1897 55.9408 34.6 56.3339L32.1354 57.9971C31.3189 57.5586 30.4721 57.1806 29.5951 56.8782L29.1415 53.8239C29.0357 53.1132 28.4309 52.584 27.7051 52.584H25.2858V18.4118H83.3332V27.4387H48.7981C46.4847 27.4387 44.6097 29.3137 44.6097 31.6271V65.134C44.6097 67.4474 46.4847 69.3223 48.7981 69.3223H54.0298V73.677C54.0298 74.7959 54.6648 75.7939 55.693 76.2475C56.071 76.4138 56.4642 76.5046 56.8573 76.5046C57.5226 76.5046 58.1879 76.2626 58.7171 75.7939L66.0354 69.3223H83.3332V82.1596ZM95.0969 65.134C95.0969 65.8446 94.5223 66.4192 93.8116 66.4192H65.4759C65.1282 66.4192 64.7804 66.5553 64.5082 66.7821L56.9178 73.4956V67.8859C56.9178 67.0845 56.2676 66.4343 55.4662 66.4343H48.783C48.0723 66.4343 47.4977 65.8598 47.4977 65.1491V31.6271C47.4977 30.9164 48.0723 30.3419 48.783 30.3419H93.7965C94.5072 30.3419 95.0818 30.9164 95.0818 31.6271V65.134H95.0969Z" stroke="black" mask="url(#path-8-outside-1_257_9592)"/>
<path d="M33 74C33 78.9706 28.9706 83 24 83C19.0294 83 15 78.9706 15 74C15 69.0294 19.0294 65 24 65C28.9706 65 33 69.0294 33 74Z" fill="#00B0FB"/>
<path d="M33.4206 74.0699C33.4206 68.5963 28.9751 64.1509 23.5015 64.1509C18.0431 64.1509 13.5977 68.5963 13.5977 74.0699C13.5977 79.5435 18.0431 83.9889 23.5015 83.9889C28.9751 83.9889 33.4206 79.5435 33.4206 74.0699ZM23.5015 81.0858C19.6458 81.0858 16.5008 77.9407 16.5008 74.0699C16.5008 70.1991 19.6458 67.054 23.5015 67.054C27.3724 67.054 30.5174 70.1991 30.5174 74.0699C30.5174 77.9407 27.3724 81.0858 23.5015 81.0858Z" fill="black"/>
<path d="M33.6706 74.0699C33.6706 68.4582 29.1132 63.9009 23.5015 63.9009C17.9047 63.9009 13.3477 68.4585 13.3477 74.0699C13.3477 79.6813 17.9047 84.2389 23.5015 84.2389C29.1132 84.2389 33.6706 79.6816 33.6706 74.0699Z" stroke="black" stroke-width="0.5"/>
<path d="M65.869 52.9922L61.5597 48.6829L65.869 44.3735C66.4436 43.799 66.4436 42.8917 65.869 42.3172C65.2944 41.7426 64.3872 41.7426 63.8126 42.3172L58.4751 47.6547C58.203 47.9268 58.0518 48.3049 58.0518 48.6829C58.0518 49.076 58.203 49.4389 58.4751 49.7111L63.8126 55.0486C64.0999 55.3359 64.4628 55.4719 64.8408 55.4719C65.2188 55.4719 65.5817 55.3359 65.869 55.0486C66.4436 54.4891 66.4436 53.5668 65.869 52.9922Z" fill="black"/>
<path d="M78.7813 42.3172C78.2067 41.7426 77.2995 41.7426 76.7249 42.3172C76.1503 42.8917 76.1503 43.8141 76.7249 44.3735L81.0342 48.6829L76.7249 52.9922C76.1503 53.5668 76.1503 54.474 76.7249 55.0486C77.0122 55.3359 77.3902 55.4719 77.7531 55.4719C78.1311 55.4719 78.494 55.3359 78.7813 55.0486L84.1188 49.7111C84.3909 49.4389 84.5421 49.0609 84.5421 48.6829C84.5421 48.2897 84.3909 47.9268 84.1188 47.6547L78.7813 42.3172Z" fill="black"/>
<path d="M75.3182 34.2429C74.547 34.0312 73.7456 34.4849 73.534 35.256L66.2913 61.3236C66.0796 62.0948 66.5332 62.8962 67.3043 63.1078C67.4404 63.1381 67.5614 63.1683 67.6975 63.1683C68.3325 63.1683 68.9222 62.745 69.1037 62.1099L76.3464 36.0423C76.5429 35.2711 76.0893 34.4697 75.3182 34.2429Z" fill="black"/>
</svg>
