<svg width="100" height="100" viewBox="0 0 100 100" fill="none" xmlns="http://www.w3.org/2000/svg">
<path d="M16.9262 84.5308L16.7159 86.837C16.6353 87.721 16.7397 88.6119 17.0225 89.4533C17.3052 90.2947 17.7602 91.068 18.3583 91.7239C18.9564 92.3797 19.6847 92.9038 20.4965 93.2628C21.3083 93.6217 22.1859 93.8075 23.0735 93.8086L77.3574 93.8086C78.2456 93.8075 79.1238 93.6216 79.9361 93.2622C80.7483 92.9029 81.4767 92.3782 82.0749 91.7217C82.6731 91.0651 83.128 90.2911 83.4104 89.449C83.6928 88.6069 83.7964 87.7153 83.7151 86.8308L83.472 84.0601" stroke="#00B0FB" stroke-width="2"/>
<path d="M13.5461 75.3366L8.06885 70.3906L15.3193 69.063C15.5715 69.0158 15.8087 68.909 16.011 68.7512C16.2133 68.5934 16.3748 68.3893 16.4819 68.1562C17.1691 66.654 18.2677 64.2075 19.2634 61.9886L19.5315 61.3933L23.0405 67.8975C23.1632 68.1251 23.3393 68.3194 23.5537 68.4639C23.7682 68.6083 24.0145 68.6985 24.2715 68.7266L31.6219 69.5276L26.514 74.8755C26.2317 75.1736 26.0739 75.5682 26.073 75.9788C26.0728 76.0887 26.0842 76.1983 26.1072 76.3059L27.614 83.5146L20.9552 80.3162C20.6259 80.1602 20.2534 80.1205 19.8987 80.2039H19.8922L19.8861 80.207H19.8797L19.8733 80.2104H19.8671L19.8608 80.2136H19.853L19.8499 80.2168H19.8404L19.8341 80.22L19.8279 80.2231H19.8199L19.8138 80.2263H19.8077L19.8011 80.2295L19.795 80.2327H19.7887L19.7825 80.2358C19.6716 80.2706 19.565 80.3177 19.4646 80.3762L16.5006 82.0903C15.3864 82.7355 14.1882 83.4241 13.0818 84.063L14.059 76.7329C14.0937 76.476 14.0651 76.2145 13.9757 75.9712C13.8864 75.7278 13.7389 75.5099 13.5461 75.3366Z" fill="#00B0FB" fill-opacity="0.5"/>
<path d="M43.8451 75.0905L38.5625 69.9451L45.8662 68.8793C46.1211 68.8413 46.3632 68.7424 46.5718 68.591C46.7804 68.4397 46.9493 68.2404 47.0645 68.0099L50.354 61.3872L53.6187 68.0066C53.7377 68.2425 53.9127 68.4457 54.1284 68.5984C54.3441 68.751 54.5939 68.8484 54.856 68.8823C55.0087 68.9041 56.3347 69.1007 57.9927 69.3438C59.741 69.6024 61.0826 69.8018 62.1142 69.9514L56.8396 75.0906C56.6546 75.2712 56.5164 75.4941 56.4366 75.74C56.3568 75.9859 56.3379 76.2474 56.3816 76.5022L57.6234 83.7825L51.1036 80.3449C50.8742 80.2251 50.6191 80.1626 50.3602 80.1626C50.1014 80.1626 49.8465 80.2252 49.617 80.345L43.0598 83.7886L44.3033 76.5024C44.347 76.2475 44.3281 75.9859 44.2483 75.74C44.1685 75.4941 44.03 75.2711 43.8451 75.0905Z" fill="#00B0FB"/>
<path d="M74.5901 76.5086C74.6055 76.418 74.6133 76.3263 74.6135 76.2344C74.6131 76.0214 74.5702 75.8105 74.4874 75.6142C74.4046 75.4179 74.2836 75.2401 74.1314 75.0911L68.8613 69.9551L76.1523 68.8798C76.2744 68.8605 76.3956 68.8281 76.5107 68.7832L76.5154 68.78L76.5217 68.7769L76.5264 68.7769L76.5278 68.7737L76.5344 68.7737L76.5408 68.7705L76.5439 68.7673L76.5486 68.7673L76.5532 68.7639L76.5596 68.7608L76.5642 68.7576L76.5706 68.7577C76.9104 68.606 77.1866 68.3404 77.3513 68.0067L80.6128 61.3965L83.8726 68.0034C83.9869 68.2358 84.1562 68.4368 84.3655 68.5894C84.5748 68.7419 84.8178 68.8414 85.074 68.8792L92.3979 69.9451L87.0968 75.0906C86.91 75.2713 86.7703 75.495 86.6899 75.7422C86.6095 75.9894 86.5908 76.2525 86.6355 76.5085L87.9007 83.7824L85.7411 82.6481L85.727 82.6419L81.3545 80.345C81.2084 80.2681 81.0495 80.2144 80.8868 80.186C80.5399 80.1257 80.1828 80.1816 79.8709 80.345L73.3262 83.7826L74.5901 76.5086Z" fill="#00B0FB" fill-opacity="0.5"/>
<path d="M61.5613 41.314C61.3246 40.9424 61.2041 40.5087 61.2152 40.0683C61.2049 39.7772 61.2558 39.4872 61.3641 39.2168C61.4725 38.9465 61.6361 38.7019 61.8446 38.4985C62.0531 38.2952 62.3019 38.1375 62.5748 38.0359C62.8478 37.9343 63.1388 37.891 63.4296 37.9086C63.8701 37.9085 64.3008 38.0397 64.6664 38.2855C65.032 38.5314 65.3157 38.8807 65.4818 39.2887C65.6479 39.6968 65.6887 40.145 65.5988 40.5763C65.5088 41.0076 65.2923 41.4022 64.9769 41.7099C64.6615 42.0175 64.2615 42.2241 63.8281 42.3033C63.3947 42.3825 62.9477 42.3307 62.5439 42.1545C62.1401 41.9783 61.7979 41.6856 61.5613 41.314Z" fill="#00B0FB"/>
<path d="M35.103 41.3147C34.8664 40.9429 34.746 40.509 34.7572 40.0684C34.7467 39.7772 34.7975 39.4871 34.9059 39.2166C35.0143 38.9461 35.1779 38.7012 35.3866 38.4978C35.5953 38.2944 35.8444 38.1369 36.1176 38.0355C36.3908 37.934 36.6822 37.8908 36.973 37.9087C37.4138 37.9088 37.8445 38.0401 38.2101 38.2862C38.5757 38.5322 38.8597 38.8818 39.0258 39.2901C39.1918 39.6983 39.2323 40.1468 39.1421 40.5782C39.052 41.0096 38.8352 41.4043 38.5196 41.712C38.204 42.0196 37.8039 42.2261 37.3703 42.3052C36.9368 42.3842 36.4894 42.3322 36.0855 42.1558C35.6816 41.9794 35.3396 41.6866 35.103 41.3147Z" fill="#00B0FB"/>
<mask id="path-7-outside-1_251_5112" maskUnits="userSpaceOnUse" x="2" y="1" width="96" height="98" fill="black">
<rect fill="white" x="2" y="1" width="96" height="98"/>
<path d="M77.3574 98H23.0735C21.7424 97.9995 20.426 97.7216 19.2083 97.184C17.9907 96.6464 16.8983 95.861 16.0011 94.8778C15.1038 93.8947 14.4213 92.7353 13.997 91.4736C13.5727 90.212 13.416 88.8758 13.5368 87.5502L13.5432 87.4786C12.9121 87.8401 12.3387 88.1704 11.865 88.4385C11.6068 88.5865 11.3124 88.6593 11.0151 88.6486C10.7177 88.638 10.4292 88.5444 10.1823 88.3784C9.93539 88.2124 9.73984 87.9806 9.6178 87.7092C9.49576 87.4378 9.45208 87.1377 9.49172 86.8428L10.7851 77.1412L3.52654 70.5902C3.30542 70.3905 3.14458 70.133 3.06222 69.8466C2.97986 69.5603 2.97925 69.2567 3.06048 68.97C3.1417 68.6834 3.30151 68.4252 3.52184 68.2246C3.74216 68.0241 4.01421 67.8892 4.30721 67.8352L13.9249 66.0743C14.4514 64.9119 15.1248 63.4159 15.7932 61.9262L18.5154 30.8435C18.7088 28.4443 19.8027 26.2072 21.5775 24.5813C23.3522 22.9554 25.6764 22.0612 28.0832 22.0782H35.3774V16.8237C35.3774 12.8922 36.9392 9.12176 39.7192 6.34177C42.4992 3.56178 46.2697 2 50.2012 2C54.1327 2 57.9032 3.56178 60.6832 6.34177C63.4631 9.12176 65.0249 12.8922 65.0249 16.8237V22.0782H72.3472C74.7495 22.0728 77.0661 22.9699 78.8382 24.5919C80.6102 26.2139 81.7083 28.4423 81.9149 30.8357L84.6979 62.4623L86.3638 65.8406L96.0654 67.2524C96.3602 67.2955 96.637 67.4203 96.8645 67.6126C97.0921 67.8049 97.2612 68.057 97.3528 68.3405C97.4444 68.6239 97.4549 68.9274 97.3829 69.2165C97.311 69.5056 97.1596 69.7688 96.9458 69.9762L89.9248 76.7921L91.6 86.4284C91.6514 86.7221 91.6194 87.0243 91.5078 87.3007C91.3961 87.5772 91.2092 87.8168 90.9682 87.9923C90.7272 88.1679 90.4419 88.2724 90.1445 88.294C89.8472 88.3156 89.5497 88.2534 89.2859 88.1145L86.8301 86.8242L86.8939 87.5504C87.0148 88.8759 86.8581 90.2121 86.4338 91.4737C86.0095 92.7354 85.3269 93.8947 84.4297 94.8779C83.5324 95.8611 82.4401 96.6465 81.2224 97.184C80.0048 97.7216 78.6884 97.9995 77.3574 98ZM16.9263 85.5307L16.7159 87.837C16.6353 88.7209 16.7397 89.612 17.0225 90.4534C17.3053 91.2948 17.7602 92.068 18.3583 92.7239C18.9564 93.3797 19.6845 93.9038 20.4963 94.2628C21.3082 94.6217 22.1858 94.8076 23.0735 94.8087H77.3574C78.2456 94.8076 79.1238 94.6215 79.936 94.2621C80.7482 93.9028 81.4767 93.3781 82.0749 92.7216C82.673 92.065 83.1278 91.2911 83.4103 90.449C83.6927 89.6069 83.7965 88.7152 83.7151 87.8308L83.472 85.0601L80.6126 83.558L71.9407 88.1145C71.6778 88.2557 71.3801 88.3193 71.0824 88.2977C70.7847 88.2762 70.4993 88.1705 70.2593 87.9929C70.0561 87.8448 69.8907 87.6507 69.7767 87.4264C69.6627 87.2022 69.6033 86.9542 69.6033 86.7027C69.6035 86.6108 69.6113 86.519 69.6267 86.4284L71.3018 76.789L65.4864 71.1231L59.6678 76.7921L61.3134 86.4347C61.3631 86.7281 61.3297 87.0296 61.2172 87.3051C61.1046 87.5807 60.9172 87.8192 60.6763 87.9939C60.4353 88.1686 60.1503 88.2725 59.8534 88.2938C59.5566 88.3151 59.2597 88.253 58.9962 88.1145L50.3573 83.5612L41.6855 88.1145C41.4223 88.2529 41.1255 88.315 40.8288 88.2936C40.5321 88.2723 40.2473 88.1683 40.0066 87.9936C39.7658 87.8188 39.5788 87.5802 39.4666 87.3048C39.3543 87.0293 39.3214 86.7279 39.3715 86.4347L41.017 76.7921L34.8431 70.7741L29.4031 76.4742L31.3993 86.0233C31.4222 86.1308 31.4337 86.2405 31.4335 86.3505C31.4337 86.5925 31.3788 86.8313 31.2729 87.0489C31.1671 87.2665 31.0131 87.4572 30.8227 87.6065C30.5868 87.787 30.3061 87.8996 30.0108 87.932C29.7155 87.9644 29.417 87.9154 29.1476 87.7904L20.334 83.5612C19.678 83.9414 18.9082 84.3871 18.0963 84.8546L16.9263 85.5307ZM8.06889 70.3907L13.5462 75.3367C13.7389 75.51 13.8864 75.7278 13.9757 75.9712C14.0651 76.2145 14.0936 76.476 14.0589 76.7329L13.0818 84.063C14.1882 83.4241 15.3865 82.7354 16.5007 82.0902L19.4645 80.3761C19.5649 80.3176 19.6715 80.2706 19.7824 80.2359L19.7886 80.2327H19.795L19.8012 80.2295L19.8076 80.2263H19.8138L19.8201 80.2231H19.8279L19.8341 80.2199L19.8405 80.2167H19.8498L19.853 80.2135H19.8608L19.867 80.2103H19.8734L19.8798 80.2071H19.886L19.8922 80.2039H19.8986C20.2533 80.1206 20.6258 80.1601 20.9551 80.3161L27.6141 83.5145L26.1072 76.306C26.0843 76.1984 26.0728 76.0887 26.073 75.9787C26.0739 75.5682 26.2316 75.1736 26.5139 74.8755L31.6219 69.5275L24.2716 68.7265C24.0146 68.6984 23.7682 68.6083 23.5538 68.4639C23.3393 68.3195 23.1632 68.1251 23.0406 67.8975L19.5315 61.3933L19.2634 61.9886C18.2677 64.2075 17.1691 66.654 16.4819 68.1562C16.3748 68.3893 16.2133 68.5933 16.011 68.7511C15.8088 68.9089 15.5716 69.0159 15.3194 69.0631L8.06889 70.3907ZM38.5626 69.9451L43.8452 75.0905C44.0302 75.2711 44.1685 75.494 44.2483 75.7399C44.3281 75.9858 44.347 76.2474 44.3033 76.5023L43.0598 83.7887L49.617 80.3449C49.8465 80.2252 50.1015 80.1626 50.3603 80.1626C50.6192 80.1626 50.8742 80.2252 51.1036 80.3449L57.6235 83.7825L56.3816 76.5023C56.3379 76.2474 56.3568 75.9858 56.4366 75.7399C56.5164 75.494 56.6547 75.2711 56.8397 75.0905L62.1143 69.9514C61.0827 69.8018 59.741 69.6023 57.9927 69.3437C56.3347 69.1006 55.0086 68.9042 54.8559 68.8824C54.5938 68.8485 54.344 68.751 54.1284 68.5983C53.9127 68.4457 53.7377 68.2425 53.6186 68.0066L50.354 61.3871L47.0645 68.0098C46.9493 68.2403 46.7803 68.4397 46.5717 68.591C46.3631 68.7424 46.1211 68.8413 45.8662 68.8793L38.5626 69.9451ZM74.6132 76.2343C74.613 76.3262 74.6052 76.4179 74.5898 76.5085L73.326 83.7825L79.8707 80.3449C80.1827 80.1816 80.5398 80.1258 80.8867 80.186C81.0493 80.2144 81.2081 80.2681 81.3542 80.3449L85.7267 82.6418L85.7407 82.6481L87.9005 83.7825L86.6352 76.5085C86.5905 76.2524 86.6092 75.9893 86.6896 75.7422C86.77 75.495 86.9097 75.2712 87.0964 75.0905L92.3977 69.945L85.0738 68.8791C84.8176 68.8413 84.5744 68.7419 84.3651 68.5893C84.1558 68.4368 83.9867 68.2357 83.8724 68.0033L80.6125 61.3964L77.351 68.0066C77.1863 68.3403 76.9101 68.6059 76.5703 68.7577H76.5639L76.5592 68.7609L76.553 68.764L76.5483 68.7672H76.5437L76.5405 68.7704L76.5341 68.7736H76.5277L76.5261 68.7768H76.5214L76.5152 68.78L76.5105 68.7832C76.3954 68.8281 76.2742 68.8605 76.1521 68.8798L68.861 69.955L74.1311 75.091C74.2833 75.24 74.4043 75.4179 74.4871 75.6142C74.5699 75.8104 74.6127 76.0212 74.6132 76.2343ZM56.1103 65.8437C56.7055 65.931 57.533 66.0494 58.4586 66.1865C61.0983 66.5761 64.5779 67.0934 65.4957 67.2181L74.8594 65.8437L79.182 57.0831C79.3042 56.8359 79.4885 56.6247 79.7169 56.4701C79.9452 56.3155 80.2098 56.2228 80.4847 56.2011L80.4925 56.1979H80.5408L80.5424 56.1948H80.681L80.6888 56.1979H80.7106C80.7896 56.2035 80.8682 56.2139 80.9459 56.2291L78.7363 31.1224C78.5983 29.5238 77.8651 28.0353 76.682 26.9514C75.4988 25.8675 73.9519 25.2673 72.3473 25.2695H65.0251V34.9417C66.138 35.2451 67.1176 35.9119 67.8079 36.8361C68.4983 37.7602 68.8598 38.8887 68.8351 40.0419C68.81 41.4545 68.233 42.8012 67.2276 43.7938C66.2222 44.7864 64.8682 45.346 63.4554 45.353C62.0425 45.3599 60.6831 44.8135 59.668 43.8309C58.6529 42.8482 58.0628 41.5072 58.0238 40.0949V40.0419C57.9991 38.8887 58.3606 37.7602 59.051 36.8361C59.7413 35.9119 60.7209 35.2451 61.8338 34.9417V25.2695H38.569V34.9433C39.6818 35.2463 40.6613 35.9128 41.3517 36.8367C42.0421 37.7606 42.4037 38.8888 42.3789 40.0419C42.3536 41.4544 41.7765 42.8009 40.7711 43.7934C39.7657 44.7858 38.4119 45.3455 36.9992 45.3526C35.5865 45.3598 34.2271 44.8138 33.2117 43.8315C32.1964 42.8492 31.6058 41.5086 31.5661 40.0965V40.0404C31.5422 38.8872 31.9043 37.7592 32.5949 36.8354C33.2855 35.9117 34.2649 35.2451 35.3776 34.9417V25.2695H28.0832C26.4768 25.2573 24.9253 25.8532 23.7402 26.9377C22.5551 28.0222 21.8241 29.5149 21.6942 31.1161L19.4985 56.1979C19.6501 56.2071 19.7996 56.2375 19.9426 56.2883L19.9551 56.2947L19.9676 56.2979L19.98 56.3041L19.9925 56.3073L19.9972 56.3105C20.1095 56.3572 20.2182 56.4157 20.3182 56.485L20.3247 56.4882L20.3356 56.4976L20.3402 56.5008L20.3574 56.5133L20.3621 56.5164L20.3683 56.5196L20.3715 56.5228L20.373 56.526L20.3871 56.5354L20.3886 56.5386L20.3934 56.5418L20.4027 56.5481L20.4074 56.5513L20.4089 56.5545L20.4153 56.5577L20.4169 56.5609L20.4201 56.5641L20.4248 56.5673L20.4311 56.5705V56.5737L20.4435 56.583L20.4515 56.5894L20.4546 56.5926L20.4593 56.5958L20.4656 56.6022L20.4703 56.6054L20.4734 56.6085L20.4766 56.6117L20.4813 56.6149L20.486 56.6211L20.5093 56.643L20.5203 56.6523L20.5296 56.6617L20.5483 56.6804L20.5592 56.6929L20.5748 56.7116L20.5795 56.7148L20.5827 56.718L20.5842 56.7212L20.6326 56.7773L20.6497 56.796L20.6513 56.7992L20.6591 56.8085L20.67 56.8241L20.6746 56.8305C20.714 56.8821 20.7499 56.9362 20.7821 56.9926L20.7868 56.9989L20.8071 57.0363L25.4523 65.6473L35.1821 66.7068C35.5058 66.7424 35.8109 66.8762 36.0563 67.0902L44.5785 65.8436L48.9307 57.083C49.0629 56.8171 49.2667 56.5933 49.5191 56.437C49.7716 56.2806 50.0627 56.1978 50.3596 56.1979C50.6569 56.198 50.9498 56.2812 51.2023 56.4382C51.4548 56.5951 51.6584 56.8196 51.7901 57.0861L56.1103 65.8437ZM61.2152 40.0684C61.2041 40.5088 61.3246 40.9425 61.5613 41.3141C61.7979 41.6857 62.14 41.9783 62.5438 42.1545C62.9476 42.3307 63.3947 42.3825 63.8281 42.3034C64.2614 42.2242 64.6614 42.0176 64.9767 41.71C65.2921 41.4023 65.5086 41.0077 65.5986 40.5764C65.6885 40.1452 65.6479 39.6969 65.4818 39.2888C65.3157 38.8808 65.0317 38.5315 64.6661 38.2857C64.3006 38.0398 63.87 37.9086 63.4294 37.9086C63.1387 37.8911 62.8475 37.9345 62.5746 38.0361C62.3016 38.1377 62.0529 38.2952 61.8444 38.4986C61.6359 38.702 61.4723 38.9467 61.3639 39.217C61.2555 39.4873 61.2049 39.7773 61.2152 40.0684ZM34.7573 40.0684C34.7461 40.509 34.8665 40.9429 35.1031 41.3147C35.3397 41.6866 35.6818 41.9794 36.0857 42.1558C36.4896 42.3323 36.9369 42.3843 37.3704 42.3052C37.804 42.2261 38.2042 42.0196 38.5198 41.712C38.8354 41.4044 39.0521 41.0096 39.1423 40.5782C39.2324 40.1468 39.1919 39.6983 39.0259 39.2901C38.8599 38.8818 38.5759 38.5323 38.2102 38.2862C37.8446 38.0402 37.4139 37.9087 36.9732 37.9086C36.6823 37.8907 36.3909 37.9339 36.1177 38.0353C35.8445 38.1368 35.5955 38.2943 35.3868 38.4977C35.1781 38.7011 35.0143 38.9459 34.9059 39.2164C34.7975 39.487 34.7469 39.7772 34.7573 40.0684ZM38.5688 22.0782H61.8337V16.8237C61.8337 13.7386 60.6081 10.7799 58.4266 8.59839C56.2451 6.41689 53.2864 5.19133 50.2012 5.19133C47.1161 5.19133 44.1574 6.41689 41.9759 8.59839C39.7944 10.7799 38.5688 13.7386 38.5688 16.8237V22.0782Z"/>
</mask>
<path d="M77.3574 98H23.0735C21.7424 97.9995 20.426 97.7216 19.2083 97.184C17.9907 96.6464 16.8983 95.861 16.0011 94.8778C15.1038 93.8947 14.4213 92.7353 13.997 91.4736C13.5727 90.212 13.416 88.8758 13.5368 87.5502L13.5432 87.4786C12.9121 87.8401 12.3387 88.1704 11.865 88.4385C11.6068 88.5865 11.3124 88.6593 11.0151 88.6486C10.7177 88.638 10.4292 88.5444 10.1823 88.3784C9.93539 88.2124 9.73984 87.9806 9.6178 87.7092C9.49576 87.4378 9.45208 87.1377 9.49172 86.8428L10.7851 77.1412L3.52654 70.5902C3.30542 70.3905 3.14458 70.133 3.06222 69.8466C2.97986 69.5603 2.97925 69.2567 3.06048 68.97C3.1417 68.6834 3.30151 68.4252 3.52184 68.2246C3.74216 68.0241 4.01421 67.8892 4.30721 67.8352L13.9249 66.0743C14.4514 64.9119 15.1248 63.4159 15.7932 61.9262L18.5154 30.8435C18.7088 28.4443 19.8027 26.2072 21.5775 24.5813C23.3522 22.9554 25.6764 22.0612 28.0832 22.0782H35.3774V16.8237C35.3774 12.8922 36.9392 9.12176 39.7192 6.34177C42.4992 3.56178 46.2697 2 50.2012 2C54.1327 2 57.9032 3.56178 60.6832 6.34177C63.4631 9.12176 65.0249 12.8922 65.0249 16.8237V22.0782H72.3472C74.7495 22.0728 77.0661 22.9699 78.8382 24.5919C80.6102 26.2139 81.7083 28.4423 81.9149 30.8357L84.6979 62.4623L86.3638 65.8406L96.0654 67.2524C96.3602 67.2955 96.637 67.4203 96.8645 67.6126C97.0921 67.8049 97.2612 68.057 97.3528 68.3405C97.4444 68.6239 97.4549 68.9274 97.3829 69.2165C97.311 69.5056 97.1596 69.7688 96.9458 69.9762L89.9248 76.7921L91.6 86.4284C91.6514 86.7221 91.6194 87.0243 91.5078 87.3007C91.3961 87.5772 91.2092 87.8168 90.9682 87.9923C90.7272 88.1679 90.4419 88.2724 90.1445 88.294C89.8472 88.3156 89.5497 88.2534 89.2859 88.1145L86.8301 86.8242L86.8939 87.5504C87.0148 88.8759 86.8581 90.2121 86.4338 91.4737C86.0095 92.7354 85.3269 93.8947 84.4297 94.8779C83.5324 95.8611 82.4401 96.6465 81.2224 97.184C80.0048 97.7216 78.6884 97.9995 77.3574 98ZM16.9263 85.5307L16.7159 87.837C16.6353 88.7209 16.7397 89.612 17.0225 90.4534C17.3053 91.2948 17.7602 92.068 18.3583 92.7239C18.9564 93.3797 19.6845 93.9038 20.4963 94.2628C21.3082 94.6217 22.1858 94.8076 23.0735 94.8087H77.3574C78.2456 94.8076 79.1238 94.6215 79.936 94.2621C80.7482 93.9028 81.4767 93.3781 82.0749 92.7216C82.673 92.065 83.1278 91.2911 83.4103 90.449C83.6927 89.6069 83.7965 88.7152 83.7151 87.8308L83.472 85.0601L80.6126 83.558L71.9407 88.1145C71.6778 88.2557 71.3801 88.3193 71.0824 88.2977C70.7847 88.2762 70.4993 88.1705 70.2593 87.9929C70.0561 87.8448 69.8907 87.6507 69.7767 87.4264C69.6627 87.2022 69.6033 86.9542 69.6033 86.7027C69.6035 86.6108 69.6113 86.519 69.6267 86.4284L71.3018 76.789L65.4864 71.1231L59.6678 76.7921L61.3134 86.4347C61.3631 86.7281 61.3297 87.0296 61.2172 87.3051C61.1046 87.5807 60.9172 87.8192 60.6763 87.9939C60.4353 88.1686 60.1503 88.2725 59.8534 88.2938C59.5566 88.3151 59.2597 88.253 58.9962 88.1145L50.3573 83.5612L41.6855 88.1145C41.4223 88.2529 41.1255 88.315 40.8288 88.2936C40.5321 88.2723 40.2473 88.1683 40.0066 87.9936C39.7658 87.8188 39.5788 87.5802 39.4666 87.3048C39.3543 87.0293 39.3214 86.7279 39.3715 86.4347L41.017 76.7921L34.8431 70.7741L29.4031 76.4742L31.3993 86.0233C31.4222 86.1308 31.4337 86.2405 31.4335 86.3505C31.4337 86.5925 31.3788 86.8313 31.2729 87.0489C31.1671 87.2665 31.0131 87.4572 30.8227 87.6065C30.5868 87.787 30.3061 87.8996 30.0108 87.932C29.7155 87.9644 29.417 87.9154 29.1476 87.7904L20.334 83.5612C19.678 83.9414 18.9082 84.3871 18.0963 84.8546L16.9263 85.5307ZM8.06889 70.3907L13.5462 75.3367C13.7389 75.51 13.8864 75.7278 13.9757 75.9712C14.0651 76.2145 14.0936 76.476 14.0589 76.7329L13.0818 84.063C14.1882 83.4241 15.3865 82.7354 16.5007 82.0902L19.4645 80.3761C19.5649 80.3176 19.6715 80.2706 19.7824 80.2359L19.7886 80.2327H19.795L19.8012 80.2295L19.8076 80.2263H19.8138L19.8201 80.2231H19.8279L19.8341 80.2199L19.8405 80.2167H19.8498L19.853 80.2135H19.8608L19.867 80.2103H19.8734L19.8798 80.2071H19.886L19.8922 80.2039H19.8986C20.2533 80.1206 20.6258 80.1601 20.9551 80.3161L27.6141 83.5145L26.1072 76.306C26.0843 76.1984 26.0728 76.0887 26.073 75.9787C26.0739 75.5682 26.2316 75.1736 26.5139 74.8755L31.6219 69.5275L24.2716 68.7265C24.0146 68.6984 23.7682 68.6083 23.5538 68.4639C23.3393 68.3195 23.1632 68.1251 23.0406 67.8975L19.5315 61.3933L19.2634 61.9886C18.2677 64.2075 17.1691 66.654 16.4819 68.1562C16.3748 68.3893 16.2133 68.5933 16.011 68.7511C15.8088 68.9089 15.5716 69.0159 15.3194 69.0631L8.06889 70.3907ZM38.5626 69.9451L43.8452 75.0905C44.0302 75.2711 44.1685 75.494 44.2483 75.7399C44.3281 75.9858 44.347 76.2474 44.3033 76.5023L43.0598 83.7887L49.617 80.3449C49.8465 80.2252 50.1015 80.1626 50.3603 80.1626C50.6192 80.1626 50.8742 80.2252 51.1036 80.3449L57.6235 83.7825L56.3816 76.5023C56.3379 76.2474 56.3568 75.9858 56.4366 75.7399C56.5164 75.494 56.6547 75.2711 56.8397 75.0905L62.1143 69.9514C61.0827 69.8018 59.741 69.6023 57.9927 69.3437C56.3347 69.1006 55.0086 68.9042 54.8559 68.8824C54.5938 68.8485 54.344 68.751 54.1284 68.5983C53.9127 68.4457 53.7377 68.2425 53.6186 68.0066L50.354 61.3871L47.0645 68.0098C46.9493 68.2403 46.7803 68.4397 46.5717 68.591C46.3631 68.7424 46.1211 68.8413 45.8662 68.8793L38.5626 69.9451ZM74.6132 76.2343C74.613 76.3262 74.6052 76.4179 74.5898 76.5085L73.326 83.7825L79.8707 80.3449C80.1827 80.1816 80.5398 80.1258 80.8867 80.186C81.0493 80.2144 81.2081 80.2681 81.3542 80.3449L85.7267 82.6418L85.7407 82.6481L87.9005 83.7825L86.6352 76.5085C86.5905 76.2524 86.6092 75.9893 86.6896 75.7422C86.77 75.495 86.9097 75.2712 87.0964 75.0905L92.3977 69.945L85.0738 68.8791C84.8176 68.8413 84.5744 68.7419 84.3651 68.5893C84.1558 68.4368 83.9867 68.2357 83.8724 68.0033L80.6125 61.3964L77.351 68.0066C77.1863 68.3403 76.9101 68.6059 76.5703 68.7577H76.5639L76.5592 68.7609L76.553 68.764L76.5483 68.7672H76.5437L76.5405 68.7704L76.5341 68.7736H76.5277L76.5261 68.7768H76.5214L76.5152 68.78L76.5105 68.7832C76.3954 68.8281 76.2742 68.8605 76.1521 68.8798L68.861 69.955L74.1311 75.091C74.2833 75.24 74.4043 75.4179 74.4871 75.6142C74.5699 75.8104 74.6127 76.0212 74.6132 76.2343ZM56.1103 65.8437C56.7055 65.931 57.533 66.0494 58.4586 66.1865C61.0983 66.5761 64.5779 67.0934 65.4957 67.2181L74.8594 65.8437L79.182 57.0831C79.3042 56.8359 79.4885 56.6247 79.7169 56.4701C79.9452 56.3155 80.2098 56.2228 80.4847 56.2011L80.4925 56.1979H80.5408L80.5424 56.1948H80.681L80.6888 56.1979H80.7106C80.7896 56.2035 80.8682 56.2139 80.9459 56.2291L78.7363 31.1224C78.5983 29.5238 77.8651 28.0353 76.682 26.9514C75.4988 25.8675 73.9519 25.2673 72.3473 25.2695H65.0251V34.9417C66.138 35.2451 67.1176 35.9119 67.8079 36.8361C68.4983 37.7602 68.8598 38.8887 68.8351 40.0419C68.81 41.4545 68.233 42.8012 67.2276 43.7938C66.2222 44.7864 64.8682 45.346 63.4554 45.353C62.0425 45.3599 60.6831 44.8135 59.668 43.8309C58.6529 42.8482 58.0628 41.5072 58.0238 40.0949V40.0419C57.9991 38.8887 58.3606 37.7602 59.051 36.8361C59.7413 35.9119 60.7209 35.2451 61.8338 34.9417V25.2695H38.569V34.9433C39.6818 35.2463 40.6613 35.9128 41.3517 36.8367C42.0421 37.7606 42.4037 38.8888 42.3789 40.0419C42.3536 41.4544 41.7765 42.8009 40.7711 43.7934C39.7657 44.7858 38.4119 45.3455 36.9992 45.3526C35.5865 45.3598 34.2271 44.8138 33.2117 43.8315C32.1964 42.8492 31.6058 41.5086 31.5661 40.0965V40.0404C31.5422 38.8872 31.9043 37.7592 32.5949 36.8354C33.2855 35.9117 34.2649 35.2451 35.3776 34.9417V25.2695H28.0832C26.4768 25.2573 24.9253 25.8532 23.7402 26.9377C22.5551 28.0222 21.8241 29.5149 21.6942 31.1161L19.4985 56.1979C19.6501 56.2071 19.7996 56.2375 19.9426 56.2883L19.9551 56.2947L19.9676 56.2979L19.98 56.3041L19.9925 56.3073L19.9972 56.3105C20.1095 56.3572 20.2182 56.4157 20.3182 56.485L20.3247 56.4882L20.3356 56.4976L20.3402 56.5008L20.3574 56.5133L20.3621 56.5164L20.3683 56.5196L20.3715 56.5228L20.373 56.526L20.3871 56.5354L20.3886 56.5386L20.3934 56.5418L20.4027 56.5481L20.4074 56.5513L20.4089 56.5545L20.4153 56.5577L20.4169 56.5609L20.4201 56.5641L20.4248 56.5673L20.4311 56.5705V56.5737L20.4435 56.583L20.4515 56.5894L20.4546 56.5926L20.4593 56.5958L20.4656 56.6022L20.4703 56.6054L20.4734 56.6085L20.4766 56.6117L20.4813 56.6149L20.486 56.6211L20.5093 56.643L20.5203 56.6523L20.5296 56.6617L20.5483 56.6804L20.5592 56.6929L20.5748 56.7116L20.5795 56.7148L20.5827 56.718L20.5842 56.7212L20.6326 56.7773L20.6497 56.796L20.6513 56.7992L20.6591 56.8085L20.67 56.8241L20.6746 56.8305C20.714 56.8821 20.7499 56.9362 20.7821 56.9926L20.7868 56.9989L20.8071 57.0363L25.4523 65.6473L35.1821 66.7068C35.5058 66.7424 35.8109 66.8762 36.0563 67.0902L44.5785 65.8436L48.9307 57.083C49.0629 56.8171 49.2667 56.5933 49.5191 56.437C49.7716 56.2806 50.0627 56.1978 50.3596 56.1979C50.6569 56.198 50.9498 56.2812 51.2023 56.4382C51.4548 56.5951 51.6584 56.8196 51.7901 57.0861L56.1103 65.8437ZM61.2152 40.0684C61.2041 40.5088 61.3246 40.9425 61.5613 41.3141C61.7979 41.6857 62.14 41.9783 62.5438 42.1545C62.9476 42.3307 63.3947 42.3825 63.8281 42.3034C64.2614 42.2242 64.6614 42.0176 64.9767 41.71C65.2921 41.4023 65.5086 41.0077 65.5986 40.5764C65.6885 40.1452 65.6479 39.6969 65.4818 39.2888C65.3157 38.8808 65.0317 38.5315 64.6661 38.2857C64.3006 38.0398 63.87 37.9086 63.4294 37.9086C63.1387 37.8911 62.8475 37.9345 62.5746 38.0361C62.3016 38.1377 62.0529 38.2952 61.8444 38.4986C61.6359 38.702 61.4723 38.9467 61.3639 39.217C61.2555 39.4873 61.2049 39.7773 61.2152 40.0684ZM34.7573 40.0684C34.7461 40.509 34.8665 40.9429 35.1031 41.3147C35.3397 41.6866 35.6818 41.9794 36.0857 42.1558C36.4896 42.3323 36.9369 42.3843 37.3704 42.3052C37.804 42.2261 38.2042 42.0196 38.5198 41.712C38.8354 41.4044 39.0521 41.0096 39.1423 40.5782C39.2324 40.1468 39.1919 39.6983 39.0259 39.2901C38.8599 38.8818 38.5759 38.5323 38.2102 38.2862C37.8446 38.0402 37.4139 37.9087 36.9732 37.9086C36.6823 37.8907 36.3909 37.9339 36.1177 38.0353C35.8445 38.1368 35.5955 38.2943 35.3868 38.4977C35.1781 38.7011 35.0143 38.9459 34.9059 39.2164C34.7975 39.487 34.7469 39.7772 34.7573 40.0684ZM38.5688 22.0782H61.8337V16.8237C61.8337 13.7386 60.6081 10.7799 58.4266 8.59839C56.2451 6.41689 53.2864 5.19133 50.2012 5.19133C47.1161 5.19133 44.1574 6.41689 41.9759 8.59839C39.7944 10.7799 38.5688 13.7386 38.5688 16.8237V22.0782Z" fill="black"/>
<path d="M77.3574 98H23.0735C21.7424 97.9995 20.426 97.7216 19.2083 97.184C17.9907 96.6464 16.8983 95.861 16.0011 94.8778C15.1038 93.8947 14.4213 92.7353 13.997 91.4736C13.5727 90.212 13.416 88.8758 13.5368 87.5502L13.5432 87.4786C12.9121 87.8401 12.3387 88.1704 11.865 88.4385C11.6068 88.5865 11.3124 88.6593 11.0151 88.6486C10.7177 88.638 10.4292 88.5444 10.1823 88.3784C9.93539 88.2124 9.73984 87.9806 9.6178 87.7092C9.49576 87.4378 9.45208 87.1377 9.49172 86.8428L10.7851 77.1412L3.52654 70.5902C3.30542 70.3905 3.14458 70.133 3.06222 69.8466C2.97986 69.5603 2.97925 69.2567 3.06048 68.97C3.1417 68.6834 3.30151 68.4252 3.52184 68.2246C3.74216 68.0241 4.01421 67.8892 4.30721 67.8352L13.9249 66.0743C14.4514 64.9119 15.1248 63.4159 15.7932 61.9262L18.5154 30.8435C18.7088 28.4443 19.8027 26.2072 21.5775 24.5813C23.3522 22.9554 25.6764 22.0612 28.0832 22.0782H35.3774V16.8237C35.3774 12.8922 36.9392 9.12176 39.7192 6.34177C42.4992 3.56178 46.2697 2 50.2012 2C54.1327 2 57.9032 3.56178 60.6832 6.34177C63.4631 9.12176 65.0249 12.8922 65.0249 16.8237V22.0782H72.3472C74.7495 22.0728 77.0661 22.9699 78.8382 24.5919C80.6102 26.2139 81.7083 28.4423 81.9149 30.8357L84.6979 62.4623L86.3638 65.8406L96.0654 67.2524C96.3602 67.2955 96.637 67.4203 96.8645 67.6126C97.0921 67.8049 97.2612 68.057 97.3528 68.3405C97.4444 68.6239 97.4549 68.9274 97.3829 69.2165C97.311 69.5056 97.1596 69.7688 96.9458 69.9762L89.9248 76.7921L91.6 86.4284C91.6514 86.7221 91.6194 87.0243 91.5078 87.3007C91.3961 87.5772 91.2092 87.8168 90.9682 87.9923C90.7272 88.1679 90.4419 88.2724 90.1445 88.294C89.8472 88.3156 89.5497 88.2534 89.2859 88.1145L86.8301 86.8242L86.8939 87.5504C87.0148 88.8759 86.8581 90.2121 86.4338 91.4737C86.0095 92.7354 85.3269 93.8947 84.4297 94.8779C83.5324 95.8611 82.4401 96.6465 81.2224 97.184C80.0048 97.7216 78.6884 97.9995 77.3574 98ZM16.9263 85.5307L16.7159 87.837C16.6353 88.7209 16.7397 89.612 17.0225 90.4534C17.3053 91.2948 17.7602 92.068 18.3583 92.7239C18.9564 93.3797 19.6845 93.9038 20.4963 94.2628C21.3082 94.6217 22.1858 94.8076 23.0735 94.8087H77.3574C78.2456 94.8076 79.1238 94.6215 79.936 94.2621C80.7482 93.9028 81.4767 93.3781 82.0749 92.7216C82.673 92.065 83.1278 91.2911 83.4103 90.449C83.6927 89.6069 83.7965 88.7152 83.7151 87.8308L83.472 85.0601L80.6126 83.558L71.9407 88.1145C71.6778 88.2557 71.3801 88.3193 71.0824 88.2977C70.7847 88.2762 70.4993 88.1705 70.2593 87.9929C70.0561 87.8448 69.8907 87.6507 69.7767 87.4264C69.6627 87.2022 69.6033 86.9542 69.6033 86.7027C69.6035 86.6108 69.6113 86.519 69.6267 86.4284L71.3018 76.789L65.4864 71.1231L59.6678 76.7921L61.3134 86.4347C61.3631 86.7281 61.3297 87.0296 61.2172 87.3051C61.1046 87.5807 60.9172 87.8192 60.6763 87.9939C60.4353 88.1686 60.1503 88.2725 59.8534 88.2938C59.5566 88.3151 59.2597 88.253 58.9962 88.1145L50.3573 83.5612L41.6855 88.1145C41.4223 88.2529 41.1255 88.315 40.8288 88.2936C40.5321 88.2723 40.2473 88.1683 40.0066 87.9936C39.7658 87.8188 39.5788 87.5802 39.4666 87.3048C39.3543 87.0293 39.3214 86.7279 39.3715 86.4347L41.017 76.7921L34.8431 70.7741L29.4031 76.4742L31.3993 86.0233C31.4222 86.1308 31.4337 86.2405 31.4335 86.3505C31.4337 86.5925 31.3788 86.8313 31.2729 87.0489C31.1671 87.2665 31.0131 87.4572 30.8227 87.6065C30.5868 87.787 30.3061 87.8996 30.0108 87.932C29.7155 87.9644 29.417 87.9154 29.1476 87.7904L20.334 83.5612C19.678 83.9414 18.9082 84.3871 18.0963 84.8546L16.9263 85.5307ZM8.06889 70.3907L13.5462 75.3367C13.7389 75.51 13.8864 75.7278 13.9757 75.9712C14.0651 76.2145 14.0936 76.476 14.0589 76.7329L13.0818 84.063C14.1882 83.4241 15.3865 82.7354 16.5007 82.0902L19.4645 80.3761C19.5649 80.3176 19.6715 80.2706 19.7824 80.2359L19.7886 80.2327H19.795L19.8012 80.2295L19.8076 80.2263H19.8138L19.8201 80.2231H19.8279L19.8341 80.2199L19.8405 80.2167H19.8498L19.853 80.2135H19.8608L19.867 80.2103H19.8734L19.8798 80.2071H19.886L19.8922 80.2039H19.8986C20.2533 80.1206 20.6258 80.1601 20.9551 80.3161L27.6141 83.5145L26.1072 76.306C26.0843 76.1984 26.0728 76.0887 26.073 75.9787C26.0739 75.5682 26.2316 75.1736 26.5139 74.8755L31.6219 69.5275L24.2716 68.7265C24.0146 68.6984 23.7682 68.6083 23.5538 68.4639C23.3393 68.3195 23.1632 68.1251 23.0406 67.8975L19.5315 61.3933L19.2634 61.9886C18.2677 64.2075 17.1691 66.654 16.4819 68.1562C16.3748 68.3893 16.2133 68.5933 16.011 68.7511C15.8088 68.9089 15.5716 69.0159 15.3194 69.0631L8.06889 70.3907ZM38.5626 69.9451L43.8452 75.0905C44.0302 75.2711 44.1685 75.494 44.2483 75.7399C44.3281 75.9858 44.347 76.2474 44.3033 76.5023L43.0598 83.7887L49.617 80.3449C49.8465 80.2252 50.1015 80.1626 50.3603 80.1626C50.6192 80.1626 50.8742 80.2252 51.1036 80.3449L57.6235 83.7825L56.3816 76.5023C56.3379 76.2474 56.3568 75.9858 56.4366 75.7399C56.5164 75.494 56.6547 75.2711 56.8397 75.0905L62.1143 69.9514C61.0827 69.8018 59.741 69.6023 57.9927 69.3437C56.3347 69.1006 55.0086 68.9042 54.8559 68.8824C54.5938 68.8485 54.344 68.751 54.1284 68.5983C53.9127 68.4457 53.7377 68.2425 53.6186 68.0066L50.354 61.3871L47.0645 68.0098C46.9493 68.2403 46.7803 68.4397 46.5717 68.591C46.3631 68.7424 46.1211 68.8413 45.8662 68.8793L38.5626 69.9451ZM74.6132 76.2343C74.613 76.3262 74.6052 76.4179 74.5898 76.5085L73.326 83.7825L79.8707 80.3449C80.1827 80.1816 80.5398 80.1258 80.8867 80.186C81.0493 80.2144 81.2081 80.2681 81.3542 80.3449L85.7267 82.6418L85.7407 82.6481L87.9005 83.7825L86.6352 76.5085C86.5905 76.2524 86.6092 75.9893 86.6896 75.7422C86.77 75.495 86.9097 75.2712 87.0964 75.0905L92.3977 69.945L85.0738 68.8791C84.8176 68.8413 84.5744 68.7419 84.3651 68.5893C84.1558 68.4368 83.9867 68.2357 83.8724 68.0033L80.6125 61.3964L77.351 68.0066C77.1863 68.3403 76.9101 68.6059 76.5703 68.7577H76.5639L76.5592 68.7609L76.553 68.764L76.5483 68.7672H76.5437L76.5405 68.7704L76.5341 68.7736H76.5277L76.5261 68.7768H76.5214L76.5152 68.78L76.5105 68.7832C76.3954 68.8281 76.2742 68.8605 76.1521 68.8798L68.861 69.955L74.1311 75.091C74.2833 75.24 74.4043 75.4179 74.4871 75.6142C74.5699 75.8104 74.6127 76.0212 74.6132 76.2343ZM56.1103 65.8437C56.7055 65.931 57.533 66.0494 58.4586 66.1865C61.0983 66.5761 64.5779 67.0934 65.4957 67.2181L74.8594 65.8437L79.182 57.0831C79.3042 56.8359 79.4885 56.6247 79.7169 56.4701C79.9452 56.3155 80.2098 56.2228 80.4847 56.2011L80.4925 56.1979H80.5408L80.5424 56.1948H80.681L80.6888 56.1979H80.7106C80.7896 56.2035 80.8682 56.2139 80.9459 56.2291L78.7363 31.1224C78.5983 29.5238 77.8651 28.0353 76.682 26.9514C75.4988 25.8675 73.9519 25.2673 72.3473 25.2695H65.0251V34.9417C66.138 35.2451 67.1176 35.9119 67.8079 36.8361C68.4983 37.7602 68.8598 38.8887 68.8351 40.0419C68.81 41.4545 68.233 42.8012 67.2276 43.7938C66.2222 44.7864 64.8682 45.346 63.4554 45.353C62.0425 45.3599 60.6831 44.8135 59.668 43.8309C58.6529 42.8482 58.0628 41.5072 58.0238 40.0949V40.0419C57.9991 38.8887 58.3606 37.7602 59.051 36.8361C59.7413 35.9119 60.7209 35.2451 61.8338 34.9417V25.2695H38.569V34.9433C39.6818 35.2463 40.6613 35.9128 41.3517 36.8367C42.0421 37.7606 42.4037 38.8888 42.3789 40.0419C42.3536 41.4544 41.7765 42.8009 40.7711 43.7934C39.7657 44.7858 38.4119 45.3455 36.9992 45.3526C35.5865 45.3598 34.2271 44.8138 33.2117 43.8315C32.1964 42.8492 31.6058 41.5086 31.5661 40.0965V40.0404C31.5422 38.8872 31.9043 37.7592 32.5949 36.8354C33.2855 35.9117 34.2649 35.2451 35.3776 34.9417V25.2695H28.0832C26.4768 25.2573 24.9253 25.8532 23.7402 26.9377C22.5551 28.0222 21.8241 29.5149 21.6942 31.1161L19.4985 56.1979C19.6501 56.2071 19.7996 56.2375 19.9426 56.2883L19.9551 56.2947L19.9676 56.2979L19.98 56.3041L19.9925 56.3073L19.9972 56.3105C20.1095 56.3572 20.2182 56.4157 20.3182 56.485L20.3247 56.4882L20.3356 56.4976L20.3402 56.5008L20.3574 56.5133L20.3621 56.5164L20.3683 56.5196L20.3715 56.5228L20.373 56.526L20.3871 56.5354L20.3886 56.5386L20.3934 56.5418L20.4027 56.5481L20.4074 56.5513L20.4089 56.5545L20.4153 56.5577L20.4169 56.5609L20.4201 56.5641L20.4248 56.5673L20.4311 56.5705V56.5737L20.4435 56.583L20.4515 56.5894L20.4546 56.5926L20.4593 56.5958L20.4656 56.6022L20.4703 56.6054L20.4734 56.6085L20.4766 56.6117L20.4813 56.6149L20.486 56.6211L20.5093 56.643L20.5203 56.6523L20.5296 56.6617L20.5483 56.6804L20.5592 56.6929L20.5748 56.7116L20.5795 56.7148L20.5827 56.718L20.5842 56.7212L20.6326 56.7773L20.6497 56.796L20.6513 56.7992L20.6591 56.8085L20.67 56.8241L20.6746 56.8305C20.714 56.8821 20.7499 56.9362 20.7821 56.9926L20.7868 56.9989L20.8071 57.0363L25.4523 65.6473L35.1821 66.7068C35.5058 66.7424 35.8109 66.8762 36.0563 67.0902L44.5785 65.8436L48.9307 57.083C49.0629 56.8171 49.2667 56.5933 49.5191 56.437C49.7716 56.2806 50.0627 56.1978 50.3596 56.1979C50.6569 56.198 50.9498 56.2812 51.2023 56.4382C51.4548 56.5951 51.6584 56.8196 51.7901 57.0861L56.1103 65.8437ZM61.2152 40.0684C61.2041 40.5088 61.3246 40.9425 61.5613 41.3141C61.7979 41.6857 62.14 41.9783 62.5438 42.1545C62.9476 42.3307 63.3947 42.3825 63.8281 42.3034C64.2614 42.2242 64.6614 42.0176 64.9767 41.71C65.2921 41.4023 65.5086 41.0077 65.5986 40.5764C65.6885 40.1452 65.6479 39.6969 65.4818 39.2888C65.3157 38.8808 65.0317 38.5315 64.6661 38.2857C64.3006 38.0398 63.87 37.9086 63.4294 37.9086C63.1387 37.8911 62.8475 37.9345 62.5746 38.0361C62.3016 38.1377 62.0529 38.2952 61.8444 38.4986C61.6359 38.702 61.4723 38.9467 61.3639 39.217C61.2555 39.4873 61.2049 39.7773 61.2152 40.0684ZM34.7573 40.0684C34.7461 40.509 34.8665 40.9429 35.1031 41.3147C35.3397 41.6866 35.6818 41.9794 36.0857 42.1558C36.4896 42.3323 36.9369 42.3843 37.3704 42.3052C37.804 42.2261 38.2042 42.0196 38.5198 41.712C38.8354 41.4044 39.0521 41.0096 39.1423 40.5782C39.2324 40.1468 39.1919 39.6983 39.0259 39.2901C38.8599 38.8818 38.5759 38.5323 38.2102 38.2862C37.8446 38.0402 37.4139 37.9087 36.9732 37.9086C36.6823 37.8907 36.3909 37.9339 36.1177 38.0353C35.8445 38.1368 35.5955 38.2943 35.3868 38.4977C35.1781 38.7011 35.0143 38.9459 34.9059 39.2164C34.7975 39.487 34.7469 39.7772 34.7573 40.0684ZM38.5688 22.0782H61.8337V16.8237C61.8337 13.7386 60.6081 10.7799 58.4266 8.59839C56.2451 6.41689 53.2864 5.19133 50.2012 5.19133C47.1161 5.19133 44.1574 6.41689 41.9759 8.59839C39.7944 10.7799 38.5688 13.7386 38.5688 16.8237V22.0782Z" stroke="black" mask="url(#path-7-outside-1_251_5112)"/>
</svg>
