<svg width="100" height="100" viewBox="0 0 100 100" fill="none" xmlns="http://www.w3.org/2000/svg">
<path d="M77.2 46.8C80.72 46.8 83.6 43.92 83.6 40.4C83.6 36.88 80.72 34 77.2 34C73.68 34 70.8 36.88 70.8 40.4C70.8 43.92 73.68 46.8 77.2 46.8Z" fill="#00B0FB"/>
<path d="M77.2 46.8C80.72 46.8 83.6 43.92 83.6 40.4C83.6 36.88 80.72 34 77.2 34C73.68 34 70.8 36.88 70.8 40.4C70.8 43.92 73.68 46.8 77.2 46.8ZM77.2 37.2C78.96 37.2 80.4 38.64 80.4 40.4C80.4 42.16 78.96 43.6 77.2 43.6C75.44 43.6 74 42.16 74 40.4C74 38.64 75.44 37.2 77.2 37.2Z" fill="black"/>
<path d="M77.2 62.8C80.72 62.8 83.6 59.92 83.6 56.4C83.6 52.88 80.72 50 77.2 50C73.68 50 70.8 52.88 70.8 56.4C70.8 59.92 73.68 62.8 77.2 62.8Z" fill="#00B0FB" fill-opacity="0.5"/>
<path d="M77.2 62.8C80.72 62.8 83.6 59.92 83.6 56.4C83.6 52.88 80.72 50 77.2 50C73.68 50 70.8 52.88 70.8 56.4C70.8 59.92 73.68 62.8 77.2 62.8ZM77.2 53.2C78.96 53.2 80.4 54.64 80.4 56.4C80.4 58.16 78.96 59.6 77.2 59.6C75.44 59.6 74 58.16 74 56.4C74 54.64 75.44 53.2 77.2 53.2Z" fill="black"/>
<path d="M77.2 78.8C80.72 78.8 83.6 75.92 83.6 72.4C83.6 68.88 80.72 66 77.2 66C73.68 66 70.8 68.88 70.8 72.4C70.8 75.92 73.68 78.8 77.2 78.8ZM77.2 69.2C78.96 69.2 80.4 70.64 80.4 72.4C80.4 74.16 78.96 75.6 77.2 75.6C75.44 75.6 74 74.16 74 72.4C74 70.64 75.44 69.2 77.2 69.2Z" fill="black"/>
<path d="M48.9333 34C48.9333 51.084 42.2475 64.9333 34 64.9333C25.7525 64.9333 19.0667 51.084 19.0667 34C19.0667 16.916 25.7525 3.06667 34 3.06667C42.2475 3.06667 48.9333 16.916 48.9333 34Z" fill="#00B0FB" fill-opacity="0.5"/>
<path d="M32.88 66C33.2 66 33.52 66 34 66C34.48 66 34.64 66 35.12 66C42.96 65.68 50.16 62.64 55.6 57.68L54.96 56.88C54.32 56.24 54 55.6 53.68 54.96C53.36 55.28 53.04 55.6 52.72 55.76C50.96 54.64 49.04 53.68 47.12 52.88C48.88 47.76 49.68 41.68 49.84 35.6H53.2C53.52 34.32 54.16 33.2 54.96 32.4H50C49.84 26.32 49.04 20.24 47.28 15.12C49.2 14.32 50.96 13.36 52.88 12.24C56.72 15.6 59.6 19.92 61.36 24.72V24.4H64.72C60.56 11.76 48.88 2.48 35.12 2C34.8 2 34.48 2 34 2C16.4 2 2 16.4 2 34C2 51.28 15.76 65.36 32.88 66ZM18 57.84C19.28 57.04 20.72 56.4 22 55.76C22.96 57.84 24.08 59.76 25.2 61.36C22.64 60.56 20.24 59.44 18 57.84ZM46.8 35.6C46.64 41.52 45.84 47.12 44.24 51.76C37.36 49.52 30.48 49.52 23.76 51.76C22.16 47.12 21.36 41.36 21.2 35.6H46.8ZM21.2 32.4C21.36 26.64 22.16 20.88 23.76 16.24C27.12 17.36 30.64 18 34 18C37.36 18 40.88 17.36 44.24 16.24C45.84 20.88 46.64 26.64 46.8 32.4H21.2ZM34 62.8C30 62.8 26.96 59.6 24.88 54.64C30.96 52.56 37.04 52.56 43.12 54.64C41.52 58.48 38.64 62.8 34 62.8ZM50 57.84C47.76 59.44 45.36 60.56 42.8 61.36C44.08 59.76 45.2 58 46 55.76C47.28 56.4 48.56 57.04 50 57.84ZM50 10.16C48.72 10.96 47.28 11.6 46 12.24C45.04 10.16 43.92 8.24 42.8 6.64C45.36 7.44 47.76 8.56 50 10.16ZM34 5.2C38 5.2 41.04 8.4 43.12 13.36C37.04 15.44 30.96 15.44 24.88 13.36C26.96 8.4 30 5.2 34 5.2ZM25.2 6.64C23.92 8.08 22.8 10 22 12.08C20.56 11.6 19.28 10.8 18 10.16C20.24 8.56 22.64 7.44 25.2 6.64ZM15.28 12.24C17.04 13.36 18.96 14.32 20.72 15.12C19.12 20.08 18.16 26 18 32.4H5.2C5.68 24.4 9.52 17.2 15.28 12.24ZM18.16 35.6C18.32 41.68 19.12 47.76 20.88 52.88C18.96 53.68 17.2 54.64 15.28 55.76C9.52 50.8 5.68 43.6 5.36 35.6H18.16Z" fill="black"/>
<path d="M89.4667 36.6667H94.8L89.4667 42V36.6667Z" fill="#00B0FB"/>
<path d="M64.9333 36.6667H59.6L64.9333 42V36.6667Z" fill="#00B0FB"/>
<path d="M89.4667 53.2H94.8L89.4667 58.5333V53.2Z" fill="#00B0FB" fill-opacity="0.5"/>
<path d="M64.9333 53.2H59.6L64.9333 58.5333V53.2Z" fill="#00B0FB" fill-opacity="0.5"/>
<path d="M97.2 54.64C97.68 54.16 98 53.36 98 52.72C98 51.28 96.72 50 95.28 50H90V45.84L97.2 38.64C97.68 38.16 98 37.36 98 36.72C98 35.28 96.72 34 95.28 34H90V27.6H64.4V34H59.12C57.68 34 56.4 35.28 56.4 36.72C56.4 37.52 56.72 38.16 57.2 38.64L64.4 45.84V50H59.12C57.68 50 56.4 51.28 56.4 52.72C56.4 53.52 56.72 54.16 57.2 54.64L64.4 61.84V66H59.12C57.68 66 56.4 67.28 56.4 68.72C56.4 69.52 56.72 70.16 57.2 70.64L64.4 77.84V85.2H75.6V94.8H2V98H98V94.8H78.8V85.2H90V77.84L97.2 70.64C97.68 70.16 98 69.36 98 68.72C98 67.28 96.72 66 95.28 66H90V61.84L97.2 54.64ZM90 37.2H94.16L90 41.36V37.2ZM90 53.2H94.16L90 57.36V53.2ZM64.4 73.36L60.24 69.2H64.4V73.36ZM64.4 57.36L60.24 53.2H64.4V57.36ZM64.4 41.36L60.24 37.2H64.4V41.36ZM86.8 82H67.6V30.8H86.8V82ZM94.16 69.2L90 73.36V69.2H94.16Z" fill="black"/>
<path d="M2 93.7333H75.6V94.8H2V93.7333Z" fill="#00B0FB"/>
<path d="M74.5333 85.2H75.6V94.8H74.5333V85.2Z" fill="#00B0FB"/>
</svg>
