<svg width="97" height="97" viewBox="0 0 97 97" fill="none" xmlns="http://www.w3.org/2000/svg">
<path d="M72.0942 74.0891V79.5642C72.0942 81.0884 71.131 82.7328 69.6669 82.7328L16.2988 82.7329C14.8347 82.7329 13.8721 81.1085 13.8721 79.5642V74.0891H32.3634L33.6471 77.4583L52.3192 77.4584L53.6029 74.0891H72.0942Z" fill="#00B0FB" fill-opacity="0.5"/>
<path d="M6.54883 37.8523L14.4707 70.322L35.2682 70.3221L36.5519 73.6914L51.3735 73.6913L52.657 70.3221H57.3903" stroke="#00B0FB" stroke-width="2"/>
<path d="M66.8194 24.2306L63.4311 27.5988C55.8694 17.0698 40.1663 16.7485 32.2645 27.1576C25.7666 35.6814 27.4314 47.8549 35.9349 54.3328C40.1869 57.5818 45.3607 58.7851 50.2743 58.1233C60.8632 56.6796 68.2438 46.9924 66.9001 36.4436L70.8911 32.4526C72.6159 38.7307 71.7938 45.4892 68.4245 51.1648L67.8429 52.1674L72.9768 56.6198L68.7855 61.4531L63.6512 57.0009L62.7288 57.7228C58.5362 61.0921 53.302 62.9373 47.9472 62.9974C35.7935 63.1381 25.4245 54.1727 23.8001 42.1196C22.9576 35.8631 24.5623 29.465 28.5132 24.2906C38.2004 11.5952 57.2128 11.7155 66.8194 24.2306Z" fill="#00B0FB" fill-opacity="0.5"/>
<path d="M40.3652 44.0249L38.1792 41.8188L48.2878 31.731L55.7086 39.2116L70.9705 24.0094L68.8044 21.8232L78.2501 18.9954L75.3423 28.4216L73.1764 26.2356L58.9165 40.4553L55.7079 43.644L48.287 36.1633L40.3652 44.0249Z" fill="#00B0FB"/>
<path d="M69.2266 65.1844L76.7273 56.5605L92.0498 69.8778L84.5491 78.5015L69.2266 65.1844Z" fill="#00B0FB"/>
<path d="M48.2871 32.0851L55.5311 39.3878L55.7075 39.5657L55.885 39.3889L71.1469 24.1865L71.3236 24.0106L71.1481 23.8334L69.2753 21.9434L77.8736 19.3694L75.2266 27.9494L73.3542 26.0596L73.1776 25.8815L73 26.0586L58.7406 40.2779L58.7403 40.2782L55.7092 43.2904L48.4649 35.9873L48.2888 35.8098L48.1113 35.9859L40.367 43.6714L38.5324 41.82L48.2871 32.0851ZM40.5018 48.1943L48.2462 40.5088L55.4705 47.7918L55.6467 47.9694L55.8242 47.7932L63.9664 39.708C63.8225 42.9669 62.688 46.1315 60.6437 48.8077L60.6436 48.8078C55.1721 55.9783 44.9993 57.3814 37.7484 51.9086C30.5992 46.4967 29.1761 36.2253 34.6482 29.0148C41.4201 20.1231 54.8057 20.5743 61.0595 29.5758L55.7084 34.9268L48.4847 27.6248L48.3085 27.4466L48.1307 27.6233L34.0322 41.6417L33.8551 41.8178L34.031 41.9951L39.1824 47.1865L39.1853 47.1895L40.1453 48.19L40.3214 48.3734L40.5018 48.1943ZM63.4613 27.2161C55.7385 16.7845 40.0104 16.5408 32.0655 27.0063C25.4839 35.6401 27.17 47.9702 35.7828 54.5317C40.09 57.8229 45.3315 59.0415 50.3078 58.3713L50.3082 58.3712C60.9927 56.9144 68.452 47.1712 67.1631 36.5342L70.7607 32.9367C72.3195 39.0322 71.4683 45.5473 68.2092 51.0373L68.2079 51.0395L67.6263 52.0423L67.5226 52.2211L67.6788 52.3566L72.6241 56.645L68.7601 61.1006L63.8148 56.8121L63.6592 56.6772L63.4969 56.8041L62.5744 57.5261L62.5719 57.5281C58.4236 60.8618 53.2439 62.688 47.9443 62.7476H47.9442C35.9169 62.8868 25.6553 54.0145 24.0477 42.0865C23.214 35.8943 24.8018 29.563 28.7116 24.4426L28.7117 24.4425C38.2531 11.9381 56.9371 11.9965 66.4863 24.2091L63.4613 27.2161ZM75.152 74.3568L84.6854 82.66L84.8743 82.8246L85.0384 82.6353L96.1889 69.7793L96.3526 69.5905L96.1638 69.4267L76.6097 52.4602L76.4214 52.2968L76.2575 52.4847L74.777 54.1817L71.726 51.5279C75.0519 45.2174 75.7059 37.8687 73.6722 31.1002L76.4691 33.9132L76.7625 34.2084L76.8852 33.8107L82.7214 14.8983L82.8594 14.4511L82.4109 14.5851L66.5066 19.3365C60.3641 13.4383 52.0735 10.9223 44.0439 11.9889L44.0431 11.989C31.7702 13.6599 22.1365 23.4292 20.7092 35.7529H2H1.68165L1.75713 36.0622L10.815 73.1758V79.5635C10.815 82.746 13.0526 85.79 16.2996 85.79H69.6675C72.8939 85.79 75.152 82.7466 75.152 79.5635V74.3568ZM65.0911 65.6538L71.2843 71.0312H59.4551L57.768 64.1124C59.7794 63.2979 61.7182 62.2499 63.5166 60.9511L66.5685 63.6056L66.0124 64.2546L66.008 64.2595L65.0696 65.2974L64.8985 65.4866L65.0911 65.6538ZM34.5233 71.2122L34.4619 71.0512H34.2896H13.6884L5.88848 39.0815H20.5025C20.6202 56.8806 37.5232 69.6953 54.6448 65.1515L56.0925 71.0512H51.6781H51.5058L51.4445 71.2122L50.2223 74.4205H35.7455L34.5233 71.2122ZM52.3191 77.7083H52.4914L52.5527 77.5473L53.7749 74.3391H71.844V79.5642C71.844 80.2778 71.6174 81.0191 71.225 81.5761C70.8337 82.1316 70.2955 82.4829 69.6668 82.4829H16.2989C15.6691 82.4829 15.1311 82.1355 14.7406 81.5833C14.3489 81.0293 14.1221 80.2884 14.1221 79.5642V74.3391H32.1912L33.4134 77.5473L33.4747 77.7083H33.647H52.3191ZM69.5791 65.1597L76.7517 56.9132L91.6968 69.9023L84.5242 78.1488L69.5791 65.1597Z" fill="black" stroke="black" stroke-width="0.5"/>
</svg>
