<svg width="100" height="100" viewBox="0 0 100 100" fill="none" xmlns="http://www.w3.org/2000/svg">
<rect x="22" y="10" width="33" height="21" fill="#00B0FB" fill-opacity="0.5"/>
<path d="M14 97C12.8954 97 12 96.1231 12 95.0417V4.95833C12 3.87675 12.8954 3 14 3C15.1046 3 16 3.87675 16 4.95833V95.0417C16 96.1231 15.1046 97 14 97Z" fill="#00B0FB"/>
<path d="M13 98C11.8954 98 11 97.1044 11 96V4C11 2.8954 11.8954 2 13 2C14.1046 2 15 2.8954 15 4V96C15 97.1044 14.1046 98 13 98Z" fill="black"/>
<path d="M94.0833 89H5.91667C4.85809 89 4 88.1044 4 87C4 85.8956 4.85809 85 5.91667 85H94.0833C95.1419 85 96 85.8956 96 87C96 88.1044 95.1419 89 94.0833 89Z" fill="#00B0FB"/>
<path d="M96 90H4C2.8954 90 2 89.1044 2 88C2 86.8956 2.8954 86 4 86H96C97.1046 86 98 86.8956 98 88C98 89.1044 97.1046 90 96 90Z" fill="black"/>
<path d="M12.4004 10.3999H8.40039C7.29579 10.3999 6.40039 9.5045 6.40039 8.3999C6.40039 7.2953 7.29579 6.3999 8.40039 6.3999H12.4004C13.505 6.3999 14.4004 7.2953 14.4004 8.3999C14.4004 9.5045 13.505 10.3999 12.4004 10.3999Z" fill="black"/>
<path d="M12.4004 20.3999H8.40039C7.29579 20.3999 6.40039 19.5045 6.40039 18.3999C6.40039 17.2953 7.29579 16.3999 8.40039 16.3999H12.4004C13.505 16.3999 14.4004 17.2953 14.4004 18.3999C14.4004 19.5045 13.505 20.3999 12.4004 20.3999Z" fill="black"/>
<path d="M12.4004 30.3999H8.40039C7.29579 30.3999 6.40039 29.5045 6.40039 28.3999C6.40039 27.2953 7.29579 26.3999 8.40039 26.3999H12.4004C13.505 26.3999 14.4004 27.2953 14.4004 28.3999C14.4004 29.5045 13.505 30.3999 12.4004 30.3999Z" fill="black"/>
<path d="M12.4004 40.3999H8.40039C7.29579 40.3999 6.40039 39.5045 6.40039 38.3999C6.40039 37.2953 7.29579 36.3999 8.40039 36.3999H12.4004C13.505 36.3999 14.4004 37.2953 14.4004 38.3999C14.4004 39.5045 13.505 40.3999 12.4004 40.3999Z" fill="black"/>
<path d="M12.4004 50.3999H8.40039C7.29579 50.3999 6.40039 49.5045 6.40039 48.3999C6.40039 47.2953 7.29579 46.3999 8.40039 46.3999H12.4004C13.505 46.3999 14.4004 47.2953 14.4004 48.3999C14.4004 49.5045 13.505 50.3999 12.4004 50.3999Z" fill="black"/>
<path d="M12.4004 60.3999H8.40039C7.29579 60.3999 6.40039 59.5043 6.40039 58.3999C6.40039 57.2955 7.29579 56.3999 8.40039 56.3999H12.4004C13.505 56.3999 14.4004 57.2955 14.4004 58.3999C14.4004 59.5043 13.505 60.3999 12.4004 60.3999Z" fill="black"/>
<path d="M12.4004 70.3999H8.40039C7.29579 70.3999 6.40039 69.5043 6.40039 68.3999C6.40039 67.2955 7.29579 66.3999 8.40039 66.3999H12.4004C13.505 66.3999 14.4004 67.2955 14.4004 68.3999C14.4004 69.5043 13.505 70.3999 12.4004 70.3999Z" fill="black"/>
<path d="M12.4004 80.3999H8.40039C7.29579 80.3999 6.40039 79.5043 6.40039 78.3999C6.40039 77.2955 7.29579 76.3999 8.40039 76.3999H12.4004C13.505 76.3999 14.4004 77.2955 14.4004 78.3999C14.4004 79.5043 13.505 80.3999 12.4004 80.3999Z" fill="black"/>
<path d="M92.4004 94.3999C91.2958 94.3999 90.4004 93.5043 90.4004 92.3999V88.3999C90.4004 87.2955 91.2958 86.3999 92.4004 86.3999C93.505 86.3999 94.4004 87.2955 94.4004 88.3999V92.3999C94.4004 93.5043 93.505 94.3999 92.4004 94.3999Z" fill="black"/>
<path d="M82.4004 94.3999C81.2958 94.3999 80.4004 93.5043 80.4004 92.3999V88.3999C80.4004 87.2955 81.2958 86.3999 82.4004 86.3999C83.505 86.3999 84.4004 87.2955 84.4004 88.3999V92.3999C84.4004 93.5043 83.505 94.3999 82.4004 94.3999Z" fill="black"/>
<path d="M72.4004 94.3999C71.2958 94.3999 70.4004 93.5043 70.4004 92.3999V88.3999C70.4004 87.2955 71.2958 86.3999 72.4004 86.3999C73.505 86.3999 74.4004 87.2955 74.4004 88.3999V92.3999C74.4004 93.5043 73.505 94.3999 72.4004 94.3999Z" fill="black"/>
<path d="M62.4004 94.3999C61.2958 94.3999 60.4004 93.5043 60.4004 92.3999V88.3999C60.4004 87.2955 61.2958 86.3999 62.4004 86.3999C63.505 86.3999 64.4004 87.2955 64.4004 88.3999V92.3999C64.4004 93.5043 63.505 94.3999 62.4004 94.3999Z" fill="black"/>
<path d="M52.4004 94.3999C51.2958 94.3999 50.4004 93.5043 50.4004 92.3999V88.3999C50.4004 87.2955 51.2958 86.3999 52.4004 86.3999C53.505 86.3999 54.4004 87.2955 54.4004 88.3999V92.3999C54.4004 93.5043 53.505 94.3999 52.4004 94.3999Z" fill="black"/>
<path d="M42.4004 94.3999C41.2958 94.3999 40.4004 93.5043 40.4004 92.3999V88.3999C40.4004 87.2955 41.2958 86.3999 42.4004 86.3999C43.505 86.3999 44.4004 87.2955 44.4004 88.3999V92.3999C44.4004 93.5043 43.505 94.3999 42.4004 94.3999Z" fill="black"/>
<path d="M32.4004 94.3999C31.2958 94.3999 30.4004 93.5043 30.4004 92.3999V88.3999C30.4004 87.2955 31.2958 86.3999 32.4004 86.3999C33.505 86.3999 34.4004 87.2955 34.4004 88.3999V92.3999C34.4004 93.5043 33.505 94.3999 32.4004 94.3999Z" fill="black"/>
<path d="M22.4004 94.3999C21.2958 94.3999 20.4004 93.5043 20.4004 92.3999V88.3999C20.4004 87.2955 21.2958 86.3999 22.4004 86.3999C23.505 86.3999 24.4004 87.2955 24.4004 88.3999V92.3999C24.4004 93.5043 23.505 94.3999 22.4004 94.3999Z" fill="black"/>
<path d="M56.4004 34.3999H20.4004C19.2958 34.3999 18.4004 33.5045 18.4004 32.3999V8.3999C18.4004 7.2953 19.2958 6.3999 20.4004 6.3999H56.4004C57.505 6.3999 58.4004 7.2953 58.4004 8.3999V32.3999C58.4004 33.5045 57.505 34.3999 56.4004 34.3999ZM22.4004 30.3999H54.4004V10.3999H22.4004V30.3999Z" fill="black"/>
<path d="M48.4004 18.3999H28.4004C27.2958 18.3999 26.4004 17.5045 26.4004 16.3999C26.4004 15.2953 27.2958 14.3999 28.4004 14.3999H48.4004C49.505 14.3999 50.4004 15.2953 50.4004 16.3999C50.4004 17.5045 49.505 18.3999 48.4004 18.3999Z" fill="black"/>
<path d="M34.4004 26.3999H28.4004C27.2958 26.3999 26.4004 25.5045 26.4004 24.3999C26.4004 23.2953 27.2958 22.3999 28.4004 22.3999H34.4004C35.505 22.3999 36.4004 23.2953 36.4004 24.3999C36.4004 25.5045 35.505 26.3999 34.4004 26.3999Z" fill="black"/>
<circle cx="26.5" cy="70.5" r="5.5" fill="#00B0FB"/>
<path d="M26.4004 78.3999C21.9892 78.3999 18.4004 74.8111 18.4004 70.3999C18.4004 65.9887 21.9892 62.3999 26.4004 62.3999C30.8116 62.3999 34.4004 65.9887 34.4004 70.3999C34.4004 74.8111 30.8116 78.3999 26.4004 78.3999ZM26.4004 66.3999C24.1948 66.3999 22.4004 68.1943 22.4004 70.3999C22.4004 72.6055 24.1948 74.3999 26.4004 74.3999C28.606 74.3999 30.4004 72.6055 30.4004 70.3999C30.4004 68.1943 28.606 66.3999 26.4004 66.3999Z" fill="black"/>
<circle cx="46.5" cy="50.5" r="5.5" fill="#00B0FB" fill-opacity="0.5"/>
<path d="M46.4004 58.3999C41.9892 58.3999 38.4004 54.8111 38.4004 50.3999C38.4004 45.9887 41.9892 42.3999 46.4004 42.3999C50.8116 42.3999 54.4004 45.9887 54.4004 50.3999C54.4004 54.8111 50.8116 58.3999 46.4004 58.3999ZM46.4004 46.3999C44.1948 46.3999 42.4004 48.1943 42.4004 50.3999C42.4004 52.6055 44.1948 54.3999 46.4004 54.3999C48.606 54.3999 50.4004 52.6055 50.4004 50.3999C50.4004 48.1943 48.606 46.3999 46.4004 46.3999Z" fill="black"/>
<circle cx="66.5" cy="70.5" r="5.5" fill="#00B0FB"/>
<path d="M66.4004 78.3999C61.9892 78.3999 58.4004 74.8111 58.4004 70.3999C58.4004 65.9887 61.9892 62.3999 66.4004 62.3999C70.8116 62.3999 74.4004 65.9887 74.4004 70.3999C74.4004 74.8111 70.8116 78.3999 66.4004 78.3999ZM66.4004 66.3999C64.1948 66.3999 62.4004 68.1943 62.4004 70.3999C62.4004 72.6055 64.1948 74.3999 66.4004 74.3999C68.606 74.3999 70.4004 72.6055 70.4004 70.3999C70.4004 68.1943 68.606 66.3999 66.4004 66.3999Z" fill="black"/>
<circle cx="86.5" cy="50.5" r="5.5" fill="#00B0FB" fill-opacity="0.5"/>
<path d="M86.4004 58.3999C81.9892 58.3999 78.4004 54.8111 78.4004 50.3999C78.4004 45.9887 81.9892 42.3999 86.4004 42.3999C90.8116 42.3999 94.4004 45.9887 94.4004 50.3999C94.4004 54.8111 90.8116 58.3999 86.4004 58.3999ZM86.4004 46.3999C84.1948 46.3999 82.4004 48.1943 82.4004 50.3999C82.4004 52.6055 84.1948 54.3999 86.4004 54.3999C88.606 54.3999 90.4004 52.6055 90.4004 50.3999C90.4004 48.1943 88.606 46.3999 86.4004 46.3999Z" fill="black"/>
<path d="M69.2274 67.5721C68.4464 66.7911 68.4464 65.5247 69.2274 64.7437L80.7433 53.2277C81.5243 52.4469 82.7907 52.4469 83.5719 53.2277C84.353 54.0087 84.353 55.2751 83.5719 56.0563L72.056 67.5723C71.2746 68.3533 70.0084 68.3531 69.2274 67.5721Z" fill="black"/>
<path d="M60.7433 67.572L49.2274 56.056C48.4464 55.275 48.4464 54.0086 49.2274 53.2274C50.0084 52.4466 51.2748 52.4466 52.0558 53.2274L63.5717 64.7434C64.3527 65.5244 64.3527 66.7908 63.5717 67.5718C62.7905 68.3532 61.5243 68.353 60.7433 67.572Z" fill="black"/>
<path d="M30.6416 68.1579C30.1298 68.1579 29.6178 67.9625 29.2274 67.5721C28.4464 66.7911 28.4464 65.5247 29.2274 64.7437L40.7433 53.2277C41.5243 52.4469 42.7907 52.4469 43.5719 53.2277C44.353 54.0087 44.353 55.2751 43.5719 56.0563L32.0559 67.5723C31.6653 67.9627 31.1534 68.1579 30.6416 68.1579Z" fill="black"/>
</svg>
