<svg width="100" height="100" viewBox="0 0 100 100" fill="none" xmlns="http://www.w3.org/2000/svg">
<path d="M82.0593 24.5964C86.6751 31.1083 89.3177 38.7785 89.6797 46.862" stroke="#00B0FB" stroke-width="2"/>
<path d="M5.88672 46.8622C6.24875 38.7787 8.89131 31.1085 13.5071 24.5967" stroke="#00B0FB" stroke-width="2"/>
<path d="M13.5071 72.9699C8.89132 66.4581 6.24875 58.788 5.88672 50.7043" stroke="#00B0FB" stroke-width="2"/>
<path d="M89.6775 50.7043C89.4386 56.0987 88.1915 61.286 85.9585 66.1704" stroke="#00B0FB" stroke-width="2"/>
<path d="M37.1184 79.0828C40.0876 86.4811 43.9747 90.7242 47.7832 90.7242C51.0888 90.7242 53.7915 87.5996 55.4766 84.9784C58.0527 80.9714 60.1568 75.251 61.5645 68.4331L59.5963 63.4204C59.5455 63.2909 59.5045 63.1602 59.4687 63.0287C55.6871 61.9337 51.7629 61.3774 47.7832 61.3774C42.7222 61.3774 37.8002 62.2763 33.2014 63.9768C34.0492 69.5903 35.3715 74.7303 37.1184 79.0828Z" fill="#00B0FB"/>
<path d="M58.448 18.4837C55.4788 11.0854 51.5916 6.84229 47.7832 6.84229C43.9748 6.84229 40.0876 11.0853 37.1184 18.4836C35.3715 22.8362 34.0492 27.9761 33.2014 33.5896C37.8002 35.2901 42.7222 36.1891 47.7832 36.1891C52.8442 36.1891 57.7661 35.2901 62.3649 33.5897C61.5171 27.9762 60.1949 22.8363 58.448 18.4837Z" fill="#00B0FB"/>
<path d="M62.8697 37.4949C58.0897 39.1571 53.0039 40.0314 47.7832 40.0314C42.5625 40.0314 37.4766 39.1571 32.6966 37.4949C32.3692 40.5227 32.174 43.6594 32.1182 46.8621L63.4481 46.8622C63.3923 43.6596 63.1971 40.5226 62.8697 37.4949Z" fill="#00B0FB" fill-opacity="0.5"/>
<path d="M63.4467 50.7043H32.1182C32.174 53.907 32.3691 57.0439 32.6965 60.0717C37.4765 58.4094 42.5625 57.5352 47.7832 57.5352C52.128 57.5352 56.4136 58.1434 60.5449 59.3406C61.24 58.7026 62.1232 58.3671 63.0334 58.3704C63.2624 55.8596 63.401 53.2948 63.4467 50.7043Z" fill="#00B0FB" fill-opacity="0.5"/>
<path d="M66.0088 32.0452C71.1696 29.5555 75.8147 25.9943 79.6488 21.5112C78.9464 20.693 78.2105 19.897 77.4399 19.1265C71.6607 13.3473 64.4912 9.46506 56.6863 7.78638C58.6697 10.0956 60.4698 13.2055 62.0137 17.0525C63.765 21.4161 65.1115 26.508 66.0088 32.0452Z" fill="#00B0FB" fill-opacity="0.5"/>
<path d="M33.5527 17.0526C35.0967 13.2056 36.8967 10.0956 38.8801 7.78638C31.0752 9.46506 23.9056 13.3473 18.1264 19.1265C17.3558 19.897 16.62 20.693 15.9175 21.5112C19.7516 25.9943 24.3969 29.5553 29.5576 32.0451C30.4549 26.5079 31.8014 21.4162 33.5527 17.0526Z" fill="#00B0FB" fill-opacity="0.5"/>
<path d="M29.5575 65.5215C24.3967 68.0112 19.7516 71.5723 15.9175 76.0553C16.62 76.8736 17.3559 77.6694 18.1265 78.4399C23.9057 84.2191 31.0752 88.1013 38.8801 89.78C36.8967 87.4708 35.0967 84.361 33.5527 80.5141C31.8014 76.1504 30.4548 71.0587 29.5575 65.5215Z" fill="#00B0FB" fill-opacity="0.5"/>
<path d="M58.7084 87.0562C58.0645 88.0577 57.3945 88.9612 56.7026 89.7679C60.7325 88.894 64.6188 87.4303 68.231 85.4105L64.0017 74.6399C62.5995 79.5684 60.8027 83.7984 58.7084 87.0562Z" fill="#00B0FB" fill-opacity="0.5"/>
<path d="M78.8723 81.3621L90.153 92.1791L93.8854 88.4467L82.4497 77.4689C82.0087 77.0456 81.7953 76.4378 81.8752 75.8318C81.9552 75.2259 82.3186 74.6941 82.8542 74.3996L88.6846 71.1942L63.2888 62.3123L73.1423 87.4055L75.8152 81.9084C76.0837 81.3561 76.6 80.9655 77.2046 80.8574C77.3172 80.8372 77.4303 80.8274 77.5427 80.8274C78.0339 80.8274 78.5115 81.0161 78.8723 81.3621Z" fill="#00B0FB"/>
<path d="M97.0137 86.1235L86.9958 76.5072L91.4693 74.0477C92.6503 73.3984 93.3145 72.1608 93.2026 70.8177C93.0907 69.4746 92.2309 68.364 90.9588 67.9191L89.5993 67.4436C92.23 61.5715 93.5664 55.3057 93.5664 48.7832C93.5664 36.5541 88.8041 25.0569 80.1568 16.4096C71.5095 7.76228 60.0123 3 47.7832 3C35.554 3 24.0569 7.76228 15.4096 16.4096C6.76228 25.0569 2 36.5541 2 48.7832C2 61.0124 6.76228 72.5095 15.4096 81.1568C24.0569 89.8042 35.554 94.5664 47.7832 94.5664C55.4499 94.5664 62.9638 92.6525 69.6469 89.0162L69.9619 89.8183C70.4503 91.0621 71.6287 91.8997 72.964 91.9521C74.3017 92.0023 75.5395 91.2617 76.1238 90.0601L78.117 85.9608L87.9427 95.3827C88.5589 95.9736 89.3604 96.2679 90.1617 96.2679C90.9857 96.2678 91.8095 95.9563 92.4304 95.3354L97.0604 90.7054C97.675 90.0909 98.0086 89.274 97.9998 88.405C97.991 87.5358 97.6408 86.7256 97.0137 86.1235ZM66.7913 59.4667C67.0733 56.6035 67.2391 53.6684 67.2896 50.7043H89.6775C89.4387 56.0986 88.1916 61.286 85.9585 66.1703L66.7913 59.4667ZM47.7832 90.7243C43.9747 90.7243 40.0876 86.4812 37.1184 79.0829C35.3715 74.7303 34.0493 69.5904 33.2015 63.9769C37.8003 62.2765 42.7222 61.3774 47.7832 61.3774C51.763 61.3774 55.6871 61.9337 59.4687 63.0287C59.5046 63.1601 59.5454 63.2911 59.5963 63.4205L61.5646 68.4332C60.1568 75.2511 58.0526 80.9715 55.4765 84.9785C53.7914 87.5997 51.0887 90.7243 47.7832 90.7243ZM13.5072 72.9699C8.89143 66.4581 6.24886 58.7879 5.88683 50.7043H28.2758C28.3386 54.4157 28.5832 58.0488 28.9992 61.5409C23.1506 64.1698 17.8699 68.037 13.5072 72.9699ZM13.5072 24.5966C17.8699 29.5295 23.1506 33.3967 28.9992 36.0256C28.5832 39.5177 28.3386 43.1508 28.2758 46.8621H5.88683C6.24886 38.7786 8.89142 31.1084 13.5072 24.5966ZM47.7832 6.84217C51.5916 6.84217 55.4788 11.0852 58.448 18.4836C60.1949 22.8362 61.5171 27.9761 62.3649 33.5896C57.7661 35.2901 52.8442 36.1891 47.7832 36.1891C42.7222 36.1891 37.8003 35.29 33.2015 33.5896C34.0493 27.9761 35.3715 22.8361 37.1184 18.4836C40.0876 11.0852 43.9748 6.84217 47.7832 6.84217ZM47.7832 40.0313C53.0039 40.0313 58.0898 39.1571 62.8697 37.4948C63.1971 40.5226 63.3923 43.6595 63.4482 46.8621H32.1182C32.174 43.6595 32.3692 40.5226 32.6966 37.4948C37.4766 39.157 42.5625 40.0313 47.7832 40.0313ZM82.0592 24.5965C86.675 31.1084 89.3176 38.7785 89.6796 46.8621H67.2906C67.2277 43.1508 66.9831 39.5178 66.5672 36.0257C72.4158 33.3967 77.6965 29.5295 82.0592 24.5965ZM32.1182 50.7043H63.4467C63.401 53.2948 63.2624 55.8595 63.0335 58.3703C62.1232 58.367 61.24 58.7025 60.5449 59.3405C56.4136 58.1434 52.128 57.5352 47.7832 57.5352C42.5625 57.5352 37.4766 58.4095 32.6966 60.0717C32.3692 57.0439 32.174 53.9069 32.1182 50.7043ZM79.6488 21.5111C75.8147 25.9942 71.1696 29.5554 66.0088 32.0451C65.1115 26.5079 63.765 21.4162 62.0137 17.0525C60.4698 13.2056 58.6698 10.0955 56.6864 7.78633C64.4913 9.46501 71.6608 13.3472 77.44 19.1264C78.2106 19.897 78.9464 20.6929 79.6488 21.5111ZM38.88 7.78632C36.8966 10.0955 35.0966 13.2056 33.5527 17.0525C31.8013 21.4161 30.4549 26.5079 29.5575 32.0451C24.3968 29.5553 19.7517 25.9942 15.9175 21.5112C16.62 20.693 17.3558 19.897 18.1264 19.1264C23.9056 13.3472 31.0751 9.465 38.88 7.78632ZM15.9175 76.0553C19.7517 71.5722 24.3968 68.0111 29.5575 65.5214C30.4549 71.0586 31.8013 76.1503 33.5527 80.514C35.0966 84.3609 36.8966 87.4709 38.88 89.7801C31.0751 88.1014 23.9056 84.2192 18.1264 78.44C17.3558 77.6694 16.62 76.8735 15.9175 76.0553ZM56.7026 89.7679C57.3945 88.9613 58.0645 88.0577 58.7083 87.0562C60.8027 83.7985 62.5995 79.5684 64.0018 74.6399L68.2311 85.4105C64.6188 87.4303 60.7325 88.8941 56.7026 89.7679ZM90.1531 92.1791L78.8724 81.362C78.5116 81.016 78.034 80.8275 77.5428 80.8275C77.4304 80.8275 77.3172 80.8373 77.2047 80.8575C76.6001 80.9656 76.0836 81.3562 75.8151 81.9085L73.1423 87.4055L63.2888 62.3122L88.6846 71.1941L82.8543 74.3997C82.3187 74.6941 81.9552 75.2259 81.8753 75.8318C81.7954 76.4378 82.0086 77.0456 82.4496 77.469L93.8855 88.4466L90.1531 92.1791Z" fill="black"/>
</svg>
