<svg width="100" height="100" viewBox="0 0 100 100" fill="none" xmlns="http://www.w3.org/2000/svg">
<rect x="22" y="10" width="33" height="21" fill="#00B0FB" fill-opacity="0.5"/>
<path d="M14 97C12.8954 97 12 96.1231 12 95.0417V4.95833C12 3.87675 12.8954 3 14 3C15.1046 3 16 3.87675 16 4.95833V95.0417C16 96.1231 15.1046 97 14 97Z" fill="#00B0FB"/>
<path d="M13 98C11.8954 98 11 97.1044 11 96V4C11 2.8954 11.8954 2 13 2C14.1046 2 15 2.8954 15 4V96C15 97.1044 14.1046 98 13 98Z" fill="black"/>
<path d="M94.0833 89H5.91667C4.85809 89 4 88.1044 4 87C4 85.8956 4.85809 85 5.91667 85H94.0833C95.1419 85 96 85.8956 96 87C96 88.1044 95.1419 89 94.0833 89Z" fill="#00B0FB"/>
<path d="M96 90H4C2.8954 90 2 89.1044 2 88C2 86.8956 2.8954 86 4 86H96C97.1046 86 98 86.8956 98 88C98 89.1044 97.1046 90 96 90Z" fill="black"/>
<path d="M12.3999 10.3999H8.3999C7.2953 10.3999 6.3999 9.5045 6.3999 8.3999C6.3999 7.2953 7.2953 6.3999 8.3999 6.3999H12.3999C13.5045 6.3999 14.3999 7.2953 14.3999 8.3999C14.3999 9.5045 13.5045 10.3999 12.3999 10.3999Z" fill="black"/>
<path d="M12.3999 20.3999H8.3999C7.2953 20.3999 6.3999 19.5045 6.3999 18.3999C6.3999 17.2953 7.2953 16.3999 8.3999 16.3999H12.3999C13.5045 16.3999 14.3999 17.2953 14.3999 18.3999C14.3999 19.5045 13.5045 20.3999 12.3999 20.3999Z" fill="black"/>
<path d="M12.3999 30.3999H8.3999C7.2953 30.3999 6.3999 29.5045 6.3999 28.3999C6.3999 27.2953 7.2953 26.3999 8.3999 26.3999H12.3999C13.5045 26.3999 14.3999 27.2953 14.3999 28.3999C14.3999 29.5045 13.5045 30.3999 12.3999 30.3999Z" fill="black"/>
<path d="M12.3999 40.3999H8.3999C7.2953 40.3999 6.3999 39.5045 6.3999 38.3999C6.3999 37.2953 7.2953 36.3999 8.3999 36.3999H12.3999C13.5045 36.3999 14.3999 37.2953 14.3999 38.3999C14.3999 39.5045 13.5045 40.3999 12.3999 40.3999Z" fill="black"/>
<path d="M12.3999 50.3999H8.3999C7.2953 50.3999 6.3999 49.5045 6.3999 48.3999C6.3999 47.2953 7.2953 46.3999 8.3999 46.3999H12.3999C13.5045 46.3999 14.3999 47.2953 14.3999 48.3999C14.3999 49.5045 13.5045 50.3999 12.3999 50.3999Z" fill="black"/>
<path d="M12.3999 60.3999H8.3999C7.2953 60.3999 6.3999 59.5043 6.3999 58.3999C6.3999 57.2955 7.2953 56.3999 8.3999 56.3999H12.3999C13.5045 56.3999 14.3999 57.2955 14.3999 58.3999C14.3999 59.5043 13.5045 60.3999 12.3999 60.3999Z" fill="black"/>
<path d="M12.3999 70.3999H8.3999C7.2953 70.3999 6.3999 69.5043 6.3999 68.3999C6.3999 67.2955 7.2953 66.3999 8.3999 66.3999H12.3999C13.5045 66.3999 14.3999 67.2955 14.3999 68.3999C14.3999 69.5043 13.5045 70.3999 12.3999 70.3999Z" fill="black"/>
<path d="M12.3999 80.3999H8.3999C7.2953 80.3999 6.3999 79.5043 6.3999 78.3999C6.3999 77.2955 7.2953 76.3999 8.3999 76.3999H12.3999C13.5045 76.3999 14.3999 77.2955 14.3999 78.3999C14.3999 79.5043 13.5045 80.3999 12.3999 80.3999Z" fill="black"/>
<path d="M92.3999 94.3999C91.2953 94.3999 90.3999 93.5043 90.3999 92.3999V88.3999C90.3999 87.2955 91.2953 86.3999 92.3999 86.3999C93.5045 86.3999 94.3999 87.2955 94.3999 88.3999V92.3999C94.3999 93.5043 93.5045 94.3999 92.3999 94.3999Z" fill="black"/>
<path d="M82.3999 94.3999C81.2953 94.3999 80.3999 93.5043 80.3999 92.3999V88.3999C80.3999 87.2955 81.2953 86.3999 82.3999 86.3999C83.5045 86.3999 84.3999 87.2955 84.3999 88.3999V92.3999C84.3999 93.5043 83.5045 94.3999 82.3999 94.3999Z" fill="black"/>
<path d="M72.3999 94.3999C71.2953 94.3999 70.3999 93.5043 70.3999 92.3999V88.3999C70.3999 87.2955 71.2953 86.3999 72.3999 86.3999C73.5045 86.3999 74.3999 87.2955 74.3999 88.3999V92.3999C74.3999 93.5043 73.5045 94.3999 72.3999 94.3999Z" fill="black"/>
<path d="M62.3999 94.3999C61.2953 94.3999 60.3999 93.5043 60.3999 92.3999V88.3999C60.3999 87.2955 61.2953 86.3999 62.3999 86.3999C63.5045 86.3999 64.3999 87.2955 64.3999 88.3999V92.3999C64.3999 93.5043 63.5045 94.3999 62.3999 94.3999Z" fill="black"/>
<path d="M52.3999 94.3999C51.2953 94.3999 50.3999 93.5043 50.3999 92.3999V88.3999C50.3999 87.2955 51.2953 86.3999 52.3999 86.3999C53.5045 86.3999 54.3999 87.2955 54.3999 88.3999V92.3999C54.3999 93.5043 53.5045 94.3999 52.3999 94.3999Z" fill="black"/>
<path d="M42.3999 94.3999C41.2953 94.3999 40.3999 93.5043 40.3999 92.3999V88.3999C40.3999 87.2955 41.2953 86.3999 42.3999 86.3999C43.5045 86.3999 44.3999 87.2955 44.3999 88.3999V92.3999C44.3999 93.5043 43.5045 94.3999 42.3999 94.3999Z" fill="black"/>
<path d="M32.3999 94.3999C31.2953 94.3999 30.3999 93.5043 30.3999 92.3999V88.3999C30.3999 87.2955 31.2953 86.3999 32.3999 86.3999C33.5045 86.3999 34.3999 87.2955 34.3999 88.3999V92.3999C34.3999 93.5043 33.5045 94.3999 32.3999 94.3999Z" fill="black"/>
<path d="M22.3999 94.3999C21.2953 94.3999 20.3999 93.5043 20.3999 92.3999V88.3999C20.3999 87.2955 21.2953 86.3999 22.3999 86.3999C23.5045 86.3999 24.3999 87.2955 24.3999 88.3999V92.3999C24.3999 93.5043 23.5045 94.3999 22.3999 94.3999Z" fill="black"/>
<path d="M56.3999 34.3999H20.3999C19.2953 34.3999 18.3999 33.5045 18.3999 32.3999V8.3999C18.3999 7.2953 19.2953 6.3999 20.3999 6.3999H56.3999C57.5045 6.3999 58.3999 7.2953 58.3999 8.3999V32.3999C58.3999 33.5045 57.5045 34.3999 56.3999 34.3999ZM22.3999 30.3999H54.3999V10.3999H22.3999V30.3999Z" fill="black"/>
<path d="M48.3999 18.3999H28.3999C27.2953 18.3999 26.3999 17.5045 26.3999 16.3999C26.3999 15.2953 27.2953 14.3999 28.3999 14.3999H48.3999C49.5045 14.3999 50.3999 15.2953 50.3999 16.3999C50.3999 17.5045 49.5045 18.3999 48.3999 18.3999Z" fill="black"/>
<path d="M34.3999 26.3999H28.3999C27.2953 26.3999 26.3999 25.5045 26.3999 24.3999C26.3999 23.2953 27.2953 22.3999 28.3999 22.3999H34.3999C35.5045 22.3999 36.3999 23.2953 36.3999 24.3999C36.3999 25.5045 35.5045 26.3999 34.3999 26.3999Z" fill="black"/>
<circle cx="26.5" cy="70.5" r="5.5" fill="#00B0FB"/>
<path d="M26.3999 78.3999C21.9887 78.3999 18.3999 74.8111 18.3999 70.3999C18.3999 65.9887 21.9887 62.3999 26.3999 62.3999C30.8111 62.3999 34.3999 65.9887 34.3999 70.3999C34.3999 74.8111 30.8111 78.3999 26.3999 78.3999ZM26.3999 66.3999C24.1943 66.3999 22.3999 68.1943 22.3999 70.3999C22.3999 72.6055 24.1943 74.3999 26.3999 74.3999C28.6055 74.3999 30.3999 72.6055 30.3999 70.3999C30.3999 68.1943 28.6055 66.3999 26.3999 66.3999Z" fill="black"/>
<circle cx="46.5" cy="50.5" r="5.5" fill="#00B0FB" fill-opacity="0.5"/>
<path d="M46.3999 58.3999C41.9887 58.3999 38.3999 54.8111 38.3999 50.3999C38.3999 45.9887 41.9887 42.3999 46.3999 42.3999C50.8111 42.3999 54.3999 45.9887 54.3999 50.3999C54.3999 54.8111 50.8111 58.3999 46.3999 58.3999ZM46.3999 46.3999C44.1943 46.3999 42.3999 48.1943 42.3999 50.3999C42.3999 52.6055 44.1943 54.3999 46.3999 54.3999C48.6055 54.3999 50.3999 52.6055 50.3999 50.3999C50.3999 48.1943 48.6055 46.3999 46.3999 46.3999Z" fill="black"/>
<circle cx="66.5" cy="70.5" r="5.5" fill="#00B0FB"/>
<path d="M66.3999 78.3999C61.9887 78.3999 58.3999 74.8111 58.3999 70.3999C58.3999 65.9887 61.9887 62.3999 66.3999 62.3999C70.8111 62.3999 74.3999 65.9887 74.3999 70.3999C74.3999 74.8111 70.8111 78.3999 66.3999 78.3999ZM66.3999 66.3999C64.1943 66.3999 62.3999 68.1943 62.3999 70.3999C62.3999 72.6055 64.1943 74.3999 66.3999 74.3999C68.6055 74.3999 70.3999 72.6055 70.3999 70.3999C70.3999 68.1943 68.6055 66.3999 66.3999 66.3999Z" fill="black"/>
<circle cx="86.5" cy="50.5" r="5.5" fill="#00B0FB" fill-opacity="0.5"/>
<path d="M86.3999 58.3999C81.9887 58.3999 78.3999 54.8111 78.3999 50.3999C78.3999 45.9887 81.9887 42.3999 86.3999 42.3999C90.8111 42.3999 94.3999 45.9887 94.3999 50.3999C94.3999 54.8111 90.8111 58.3999 86.3999 58.3999ZM86.3999 46.3999C84.1943 46.3999 82.3999 48.1943 82.3999 50.3999C82.3999 52.6055 84.1943 54.3999 86.3999 54.3999C88.6055 54.3999 90.3999 52.6055 90.3999 50.3999C90.3999 48.1943 88.6055 46.3999 86.3999 46.3999Z" fill="black"/>
<path d="M69.2278 67.5721C68.4468 66.7911 68.4468 65.5247 69.2278 64.7437L80.7438 53.2277C81.5248 52.4469 82.7912 52.4469 83.5724 53.2277C84.3534 54.0087 84.3534 55.2751 83.5724 56.0563L72.0564 67.5723C71.275 68.3533 70.0088 68.3531 69.2278 67.5721Z" fill="black"/>
<path d="M60.7438 67.572L49.2278 56.056C48.4468 55.275 48.4468 54.0086 49.2278 53.2274C50.0088 52.4466 51.2752 52.4466 52.0562 53.2274L63.5722 64.7434C64.3532 65.5244 64.3532 66.7908 63.5722 67.5718C62.791 68.3532 61.5248 68.353 60.7438 67.572Z" fill="black"/>
<path d="M30.642 68.1579C30.1302 68.1579 29.6182 67.9625 29.2278 67.5721C28.4468 66.7911 28.4468 65.5247 29.2278 64.7437L40.7438 53.2277C41.5248 52.4469 42.7912 52.4469 43.5724 53.2277C44.3534 54.0087 44.3534 55.2751 43.5724 56.0563L32.0564 67.5723C31.6658 67.9627 31.1538 68.1579 30.642 68.1579Z" fill="black"/>
</svg>
