<?xml version="1.0" encoding="utf-8"?>
<!-- Generator: Adobe Illustrator 24.3.0, SVG Export Plug-In . SVG Version: 6.00 Build 0)  -->
<svg version="1.1" id="Layer_1" xmlns="http://www.w3.org/2000/svg" xmlns:xlink="http://www.w3.org/1999/xlink" x="0px" y="0px"
	 width="7314.1px" height="1976.9px" viewBox="0 0 7314.1 1976.9" style="enable-background:new 0 0 7314.1 1976.9;"
	 xml:space="preserve">
<style type="text/css">
	.st0{fill:#24F2B4;}
	.st1{fill:#FFFFFF;}
</style>
<g>
	<path class="st0" d="M0,0v850.2h845.2V0H0z M676.8,676.6H171.6V174h505.1V676.6z"/>
	<polygon class="st0" points="1133.4,0 1123.7,174 1807.6,850.2 1980.5,850.2 1980.5,676.6 1294.7,0 	"/>
	<polygon class="st0" points="1803.7,0 1131.4,676.6 1131.4,850.2 1302.4,850.2 1980.5,174 1980.5,0 	"/>
	<polygon class="st0" points="1123.7,1130 1980.5,1130 1980.5,1976.9 1131.4,1976.9 	"/>
	<polygon class="st0" points="422.6,1130 845.2,1553.4 424.2,1976.9 0,1553.4 	"/>
	<polygon class="st1" points="2596.5,0 2596.5,1976.9 3960.5,1976.9 3960.5,1527.7 3105.5,1516 3105.5,1130 3898.3,1130 
		3894.4,723.3 3105.5,731 3101.7,455.1 3960.5,455.1 3960.5,0 	"/>
	<rect x="4232.5" class="st1" width="505.2" height="1976.9"/>
	<rect x="5087.4" class="st1" width="513" height="1976.9"/>
	<polygon class="st1" points="5864.6,0 5864.6,1976.9 7314.1,1976.9 	"/>
</g>
</svg>
