<svg width="100" height="100" viewBox="0 0 100 100" fill="none" xmlns="http://www.w3.org/2000/svg">
<rect x="22" y="10" width="33" height="21" fill="#00B0FB" fill-opacity="0.5"/>
<path d="M14 97C12.8954 97 12 96.1231 12 95.0417V4.95833C12 3.87675 12.8954 3 14 3C15.1046 3 16 3.87675 16 4.95833V95.0417C16 96.1231 15.1046 97 14 97Z" fill="#00B0FB"/>
<path d="M13 98C11.8954 98 11 97.1044 11 96V4C11 2.8954 11.8954 2 13 2C14.1046 2 15 2.8954 15 4V96C15 97.1044 14.1046 98 13 98Z" fill="black"/>
<path d="M94.0833 89H5.91667C4.85809 89 4 88.1044 4 87C4 85.8956 4.85809 85 5.91667 85H94.0833C95.1419 85 96 85.8956 96 87C96 88.1044 95.1419 89 94.0833 89Z" fill="#00B0FB"/>
<path d="M96 90H4C2.8954 90 2 89.1044 2 88C2 86.8956 2.8954 86 4 86H96C97.1046 86 98 86.8956 98 88C98 89.1044 97.1046 90 96 90Z" fill="black"/>
<path d="M12.4 10.3999H8.4C7.2954 10.3999 6.4 9.5045 6.4 8.3999C6.4 7.2953 7.2954 6.3999 8.4 6.3999H12.4C13.5046 6.3999 14.4 7.2953 14.4 8.3999C14.4 9.5045 13.5046 10.3999 12.4 10.3999Z" fill="black"/>
<path d="M12.4 20.3999H8.4C7.2954 20.3999 6.4 19.5045 6.4 18.3999C6.4 17.2953 7.2954 16.3999 8.4 16.3999H12.4C13.5046 16.3999 14.4 17.2953 14.4 18.3999C14.4 19.5045 13.5046 20.3999 12.4 20.3999Z" fill="black"/>
<path d="M12.4 30.3999H8.4C7.2954 30.3999 6.4 29.5045 6.4 28.3999C6.4 27.2953 7.2954 26.3999 8.4 26.3999H12.4C13.5046 26.3999 14.4 27.2953 14.4 28.3999C14.4 29.5045 13.5046 30.3999 12.4 30.3999Z" fill="black"/>
<path d="M12.4 40.3999H8.4C7.2954 40.3999 6.4 39.5045 6.4 38.3999C6.4 37.2953 7.2954 36.3999 8.4 36.3999H12.4C13.5046 36.3999 14.4 37.2953 14.4 38.3999C14.4 39.5045 13.5046 40.3999 12.4 40.3999Z" fill="black"/>
<path d="M12.4 50.3999H8.4C7.2954 50.3999 6.4 49.5045 6.4 48.3999C6.4 47.2953 7.2954 46.3999 8.4 46.3999H12.4C13.5046 46.3999 14.4 47.2953 14.4 48.3999C14.4 49.5045 13.5046 50.3999 12.4 50.3999Z" fill="black"/>
<path d="M12.4 60.3999H8.4C7.2954 60.3999 6.4 59.5043 6.4 58.3999C6.4 57.2955 7.2954 56.3999 8.4 56.3999H12.4C13.5046 56.3999 14.4 57.2955 14.4 58.3999C14.4 59.5043 13.5046 60.3999 12.4 60.3999Z" fill="black"/>
<path d="M12.4 70.3999H8.4C7.2954 70.3999 6.4 69.5043 6.4 68.3999C6.4 67.2955 7.2954 66.3999 8.4 66.3999H12.4C13.5046 66.3999 14.4 67.2955 14.4 68.3999C14.4 69.5043 13.5046 70.3999 12.4 70.3999Z" fill="black"/>
<path d="M12.4 80.3999H8.4C7.2954 80.3999 6.4 79.5043 6.4 78.3999C6.4 77.2955 7.2954 76.3999 8.4 76.3999H12.4C13.5046 76.3999 14.4 77.2955 14.4 78.3999C14.4 79.5043 13.5046 80.3999 12.4 80.3999Z" fill="black"/>
<path d="M92.4 94.3999C91.2954 94.3999 90.4 93.5043 90.4 92.3999V88.3999C90.4 87.2955 91.2954 86.3999 92.4 86.3999C93.5046 86.3999 94.4 87.2955 94.4 88.3999V92.3999C94.4 93.5043 93.5046 94.3999 92.4 94.3999Z" fill="black"/>
<path d="M82.4 94.3999C81.2954 94.3999 80.4 93.5043 80.4 92.3999V88.3999C80.4 87.2955 81.2954 86.3999 82.4 86.3999C83.5046 86.3999 84.4 87.2955 84.4 88.3999V92.3999C84.4 93.5043 83.5046 94.3999 82.4 94.3999Z" fill="black"/>
<path d="M72.4 94.3999C71.2954 94.3999 70.4 93.5043 70.4 92.3999V88.3999C70.4 87.2955 71.2954 86.3999 72.4 86.3999C73.5046 86.3999 74.4 87.2955 74.4 88.3999V92.3999C74.4 93.5043 73.5046 94.3999 72.4 94.3999Z" fill="black"/>
<path d="M62.4 94.3999C61.2954 94.3999 60.4 93.5043 60.4 92.3999V88.3999C60.4 87.2955 61.2954 86.3999 62.4 86.3999C63.5046 86.3999 64.4 87.2955 64.4 88.3999V92.3999C64.4 93.5043 63.5046 94.3999 62.4 94.3999Z" fill="black"/>
<path d="M52.4 94.3999C51.2954 94.3999 50.4 93.5043 50.4 92.3999V88.3999C50.4 87.2955 51.2954 86.3999 52.4 86.3999C53.5046 86.3999 54.4 87.2955 54.4 88.3999V92.3999C54.4 93.5043 53.5046 94.3999 52.4 94.3999Z" fill="black"/>
<path d="M42.4 94.3999C41.2954 94.3999 40.4 93.5043 40.4 92.3999V88.3999C40.4 87.2955 41.2954 86.3999 42.4 86.3999C43.5046 86.3999 44.4 87.2955 44.4 88.3999V92.3999C44.4 93.5043 43.5046 94.3999 42.4 94.3999Z" fill="black"/>
<path d="M32.4 94.3999C31.2954 94.3999 30.4 93.5043 30.4 92.3999V88.3999C30.4 87.2955 31.2954 86.3999 32.4 86.3999C33.5046 86.3999 34.4 87.2955 34.4 88.3999V92.3999C34.4 93.5043 33.5046 94.3999 32.4 94.3999Z" fill="black"/>
<path d="M22.4 94.3999C21.2954 94.3999 20.4 93.5043 20.4 92.3999V88.3999C20.4 87.2955 21.2954 86.3999 22.4 86.3999C23.5046 86.3999 24.4 87.2955 24.4 88.3999V92.3999C24.4 93.5043 23.5046 94.3999 22.4 94.3999Z" fill="black"/>
<path d="M56.4 34.3999H20.4C19.2954 34.3999 18.4 33.5045 18.4 32.3999V8.3999C18.4 7.2953 19.2954 6.3999 20.4 6.3999H56.4C57.5046 6.3999 58.4 7.2953 58.4 8.3999V32.3999C58.4 33.5045 57.5046 34.3999 56.4 34.3999ZM22.4 30.3999H54.4V10.3999H22.4V30.3999Z" fill="black"/>
<path d="M48.4 18.3999H28.4C27.2954 18.3999 26.4 17.5045 26.4 16.3999C26.4 15.2953 27.2954 14.3999 28.4 14.3999H48.4C49.5046 14.3999 50.4 15.2953 50.4 16.3999C50.4 17.5045 49.5046 18.3999 48.4 18.3999Z" fill="black"/>
<path d="M34.4 26.3999H28.4C27.2954 26.3999 26.4 25.5045 26.4 24.3999C26.4 23.2953 27.2954 22.3999 28.4 22.3999H34.4C35.5046 22.3999 36.4 23.2953 36.4 24.3999C36.4 25.5045 35.5046 26.3999 34.4 26.3999Z" fill="black"/>
<circle cx="26.5" cy="70.5" r="5.5" fill="#00B0FB"/>
<path d="M26.4 78.3999C21.9888 78.3999 18.4 74.8111 18.4 70.3999C18.4 65.9887 21.9888 62.3999 26.4 62.3999C30.8112 62.3999 34.4 65.9887 34.4 70.3999C34.4 74.8111 30.8112 78.3999 26.4 78.3999ZM26.4 66.3999C24.1944 66.3999 22.4 68.1943 22.4 70.3999C22.4 72.6055 24.1944 74.3999 26.4 74.3999C28.6056 74.3999 30.4 72.6055 30.4 70.3999C30.4 68.1943 28.6056 66.3999 26.4 66.3999Z" fill="black"/>
<circle cx="46.5" cy="50.5" r="5.5" fill="#00B0FB" fill-opacity="0.5"/>
<path d="M46.4 58.3999C41.9888 58.3999 38.4 54.8111 38.4 50.3999C38.4 45.9887 41.9888 42.3999 46.4 42.3999C50.8112 42.3999 54.4 45.9887 54.4 50.3999C54.4 54.8111 50.8112 58.3999 46.4 58.3999ZM46.4 46.3999C44.1944 46.3999 42.4 48.1943 42.4 50.3999C42.4 52.6055 44.1944 54.3999 46.4 54.3999C48.6056 54.3999 50.4 52.6055 50.4 50.3999C50.4 48.1943 48.6056 46.3999 46.4 46.3999Z" fill="black"/>
<circle cx="66.5" cy="70.5" r="5.5" fill="#00B0FB"/>
<path d="M66.4 78.3999C61.9888 78.3999 58.4 74.8111 58.4 70.3999C58.4 65.9887 61.9888 62.3999 66.4 62.3999C70.8112 62.3999 74.4 65.9887 74.4 70.3999C74.4 74.8111 70.8112 78.3999 66.4 78.3999ZM66.4 66.3999C64.1944 66.3999 62.4 68.1943 62.4 70.3999C62.4 72.6055 64.1944 74.3999 66.4 74.3999C68.6056 74.3999 70.4 72.6055 70.4 70.3999C70.4 68.1943 68.6056 66.3999 66.4 66.3999Z" fill="black"/>
<circle cx="86.5" cy="50.5" r="5.5" fill="#00B0FB" fill-opacity="0.5"/>
<path d="M86.4 58.3999C81.9888 58.3999 78.4 54.8111 78.4 50.3999C78.4 45.9887 81.9888 42.3999 86.4 42.3999C90.8112 42.3999 94.4 45.9887 94.4 50.3999C94.4 54.8111 90.8112 58.3999 86.4 58.3999ZM86.4 46.3999C84.1944 46.3999 82.4 48.1943 82.4 50.3999C82.4 52.6055 84.1944 54.3999 86.4 54.3999C88.6056 54.3999 90.4 52.6055 90.4 50.3999C90.4 48.1943 88.6056 46.3999 86.4 46.3999Z" fill="black"/>
<path d="M69.2278 67.5721C68.4468 66.7911 68.4468 65.5247 69.2278 64.7437L80.7438 53.2277C81.5248 52.4469 82.7912 52.4469 83.5724 53.2277C84.3534 54.0087 84.3534 55.2751 83.5724 56.0563L72.0564 67.5723C71.275 68.3533 70.0088 68.3531 69.2278 67.5721Z" fill="black"/>
<path d="M60.7438 67.572L49.2278 56.056C48.4468 55.275 48.4468 54.0086 49.2278 53.2274C50.0088 52.4466 51.2752 52.4466 52.0562 53.2274L63.5722 64.7434C64.3532 65.5244 64.3532 66.7908 63.5722 67.5718C62.791 68.3532 61.5248 68.353 60.7438 67.572Z" fill="black"/>
<path d="M30.642 68.1579C30.1302 68.1579 29.6182 67.9625 29.2278 67.5721C28.4468 66.7911 28.4468 65.5247 29.2278 64.7437L40.7438 53.2277C41.5248 52.4469 42.7912 52.4469 43.5724 53.2277C44.3534 54.0087 44.3534 55.2751 43.5724 56.0563L32.0564 67.5723C31.6658 67.9627 31.1538 68.1579 30.642 68.1579Z" fill="black"/>
</svg>
