<svg width="100" height="100" viewBox="0 0 100 100" fill="none" xmlns="http://www.w3.org/2000/svg">
<path d="M46 40C35.4377 41.3682 26.0933 46.789 24.144 53.6298" stroke="#00B0FB" stroke-width="2"/>
<path d="M75.0652 53.6298C73.1158 46.789 63.0623 41.3682 52.5 40" stroke="#00B0FB" stroke-width="2"/>
<path d="M76.5057 54.6209C76.1799 54.6212 75.8628 54.515 75.6028 54.3187C75.3428 54.1223 75.154 53.8463 75.0652 53.5328C73.1158 46.692 65.6462 41.7929 55.0839 40.4247C54.6948 40.368 54.3436 40.1607 54.1059 39.8475C53.8681 39.5343 53.7629 39.1402 53.8129 38.7502C53.8629 38.3602 54.064 38.0054 54.373 37.7623C54.682 37.5191 55.0742 37.4071 55.465 37.4502C67.2544 38.9746 75.6635 44.6912 77.9501 52.7115C78.0042 52.9008 78.0204 53.0989 77.9979 53.2945C77.9753 53.4901 77.9144 53.6793 77.8187 53.8513C77.7229 54.0234 77.5942 54.1748 77.4399 54.2971C77.2855 54.4193 77.1086 54.5099 76.9192 54.5637C76.7848 54.6023 76.6456 54.6216 76.5057 54.6209ZM22.7015 54.6209C22.5623 54.6214 22.4237 54.6022 22.2899 54.5637C22.1005 54.5099 21.9236 54.4193 21.7692 54.2971C21.6149 54.1748 21.4862 54.0234 21.3904 53.8513C21.2947 53.6793 21.2338 53.4901 21.2112 53.2945C21.1887 53.0989 21.2049 52.9008 21.259 52.7115C23.5456 44.6817 31.949 38.9765 43.7441 37.4502C44.135 37.4071 44.5271 37.5191 44.8361 37.7623C45.1451 38.0054 45.3462 38.3602 45.3962 38.7502C45.4462 39.1402 45.341 39.5343 45.1032 39.8475C44.8655 40.1607 44.5143 40.368 44.1252 40.4247C33.5629 41.7929 26.0933 46.692 24.144 53.5328C24.055 53.8466 23.866 54.1228 23.6056 54.3192C23.3451 54.5157 23.0277 54.6216 22.7015 54.6209Z" fill="black"/>
<mask id="path-4-outside-1_221_1178" maskUnits="userSpaceOnUse" x="30.9585" y="1" width="37" height="41" fill="black">
<rect fill="white" x="30.9585" y="1" width="37" height="41"/>
<path d="M49.6036 41.0403C39.8302 41.0403 31.9585 29.3347 31.9585 19.6432C31.9585 17.3263 32.4149 15.032 33.3015 12.8914C34.1882 10.7509 35.4877 8.8059 37.1261 7.16757C38.7644 5.52925 40.7094 4.22966 42.8499 3.34301C44.9905 2.45636 47.2848 2 49.6017 2C51.9186 2 54.2129 2.45636 56.3535 3.34301C58.494 4.22966 60.439 5.52925 62.0773 7.16757C63.7157 8.8059 65.0152 10.7509 65.9019 12.8914C66.7885 15.032 67.2449 17.3263 67.2449 19.6432C67.2468 29.3347 59.3789 41.0403 49.6036 41.0403ZM49.6036 41.0403C39.8302 41.0403 31.9585 29.3347 31.9585 19.6432C31.9585 17.3263 32.4149 15.032 33.3015 12.8914C34.1882 10.7509 35.4877 8.8059 37.1261 7.16757C38.7644 5.52925 40.7094 4.22966 42.8499 3.34301C44.9905 2.45636 47.2848 2 49.6017 2C51.9186 2 54.2129 2.45636 56.3535 3.34301"/>
</mask>
<path d="M49.6036 41.0403C39.8302 41.0403 31.9585 29.3347 31.9585 19.6432C31.9585 17.3263 32.4149 15.032 33.3015 12.8914C34.1882 10.7509 35.4877 8.8059 37.1261 7.16757C38.7644 5.52925 40.7094 4.22966 42.8499 3.34301C44.9905 2.45636 47.2848 2 49.6017 2C51.9186 2 54.2129 2.45636 56.3535 3.34301C58.494 4.22966 60.439 5.52925 62.0773 7.16757C63.7157 8.8059 65.0152 10.7509 65.9019 12.8914C66.7885 15.032 67.2449 17.3263 67.2449 19.6432C67.2468 29.3347 59.3789 41.0403 49.6036 41.0403ZM49.6036 41.0403C39.8302 41.0403 31.9585 29.3347 31.9585 19.6432C31.9585 17.3263 32.4149 15.032 33.3015 12.8914C34.1882 10.7509 35.4877 8.8059 37.1261 7.16757C38.7644 5.52925 40.7094 4.22966 42.8499 3.34301C44.9905 2.45636 47.2848 2 49.6017 2C51.9186 2 54.2129 2.45636 56.3535 3.34301" fill="black"/>
<path d="M49.6036 41.0403C39.8302 41.0403 31.9585 29.3347 31.9585 19.6432C31.9585 17.3263 32.4149 15.032 33.3015 12.8914C34.1882 10.7509 35.4877 8.8059 37.1261 7.16757C38.7644 5.52925 40.7094 4.22966 42.8499 3.34301C44.9905 2.45636 47.2848 2 49.6017 2C51.9186 2 54.2129 2.45636 56.3535 3.34301C58.494 4.22966 60.439 5.52925 62.0773 7.16757C63.7157 8.8059 65.0152 10.7509 65.9019 12.8914C66.7885 15.032 67.2449 17.3263 67.2449 19.6432C67.2468 29.3347 59.3789 41.0403 49.6036 41.0403ZM49.6036 41.0403C39.8302 41.0403 31.9585 29.3347 31.9585 19.6432C31.9585 17.3263 32.4149 15.032 33.3015 12.8914C34.1882 10.7509 35.4877 8.8059 37.1261 7.16757C38.7644 5.52925 40.7094 4.22966 42.8499 3.34301C44.9905 2.45636 47.2848 2 49.6017 2C51.9186 2 54.2129 2.45636 56.3535 3.34301" stroke="black" mask="url(#path-4-outside-1_221_1178)"/>
<path d="M39.2546 9.29349C41.9997 6.54798 45.7211 5.00241 49.6036 4.99536C53.4863 5.00041 57.2085 6.54545 59.9535 9.2915C62.6985 12.0376 64.2421 15.7603 64.2456 19.6431C64.2456 27.9245 57.4905 38.0428 49.6036 38.0428C41.7167 38.0428 34.9578 27.9245 34.9578 19.6431C34.9643 15.7606 36.5094 12.039 39.2546 9.29349Z" fill="#00B0FB"/>
<path d="M59.983 98C59.786 98.0003 59.5908 97.9617 59.4088 97.8864C59.2267 97.8111 59.0613 97.7007 58.922 97.5614C58.7827 97.4221 58.6722 97.2566 58.597 97.0746C58.5217 96.8925 58.4831 96.6974 58.4833 96.5004V82.3462H13.1891C11.5483 82.3442 9.97523 81.6915 8.81498 80.5312C7.65473 79.371 7.00202 77.7979 7 76.1571V58.3976C7.00202 56.7568 7.65473 55.1837 8.81498 54.0235C9.97523 52.8632 11.5483 52.2105 13.1891 52.2085H86.0181C87.6589 52.2105 89.232 52.8632 90.3922 54.0235C91.5525 55.1837 92.2052 56.7568 92.2072 58.3976V76.1571C92.2052 77.7979 91.5525 79.371 90.3922 80.5312C89.232 81.6915 87.6589 82.3442 86.0181 82.3462H79.0839L60.9491 97.6475C60.6788 97.8755 60.3365 98.0004 59.983 98ZM13.1891 55.2078C12.3434 55.2088 11.5327 55.5452 10.9347 56.1432C10.3367 56.7412 10.0003 57.5519 9.99929 58.3976V76.1571C10.0003 77.0029 10.3366 77.8139 10.9346 78.4122C11.5325 79.0105 12.3433 79.3473 13.1891 79.3488H59.983C60.1798 79.3486 60.3748 79.3871 60.5567 79.4623C60.7387 79.5374 60.904 79.6477 61.0433 79.7868C61.1825 79.9259 61.293 80.0911 61.3684 80.2729C61.4438 80.4548 61.4826 80.6497 61.4826 80.8465V93.2743L77.569 79.707C77.8392 79.4789 78.1815 79.354 78.5351 79.3545H86.0181C86.8639 79.353 87.6747 79.0162 88.2726 78.4179C88.8706 77.8196 89.2069 77.0086 89.2079 76.1628V58.4033C89.2069 57.5577 88.8705 56.7469 88.2725 56.1489C87.6745 55.5509 86.8638 55.2145 86.0181 55.2135L13.1891 55.2078Z" fill="black"/>
<path d="M77.8825 60.5898L79.6508 66.0318H85.3729L80.7436 69.3952L82.5118 74.8373L77.8825 71.4739L73.2532 74.8373L75.0215 69.3952L70.3922 66.0318H76.1143L77.8825 60.5898Z" fill="#00B0FB"/>
<path d="M59.1774 60.5898L60.9457 66.0318H66.6678L62.0385 69.3952L63.8067 74.8373L59.1774 71.4739L54.5481 74.8373L56.3164 69.3952L51.6871 66.0318H57.4092L59.1774 60.5898Z" fill="#00B0FB" fill-opacity="0.5"/>
<path d="M40.4723 60.5898L42.2405 66.0318H47.9627L43.3334 69.3952L45.1016 74.8373L40.4723 71.4739L35.843 74.8373L37.6112 69.3952L32.9819 66.0318H38.7041L40.4723 60.5898Z" fill="#00B0FB"/>
<path d="M21.7672 60.5898L23.5354 66.0318H29.2576L24.6283 69.3952L26.3965 74.8373L21.7672 71.4739L17.1379 74.8373L18.9061 69.3952L14.2768 66.0318H19.999L21.7672 60.5898Z" fill="#00B0FB" fill-opacity="0.5"/>
<path d="M25.7274 75.5398C25.5018 75.5396 25.2791 75.4888 25.0758 75.3911L21.3371 73.5885L17.5909 75.3911C17.3469 75.5089 17.0756 75.5583 16.8058 75.5343C16.536 75.5102 16.2777 75.4135 16.0584 75.2544C15.8392 75.0953 15.6671 74.8798 15.5605 74.6308C15.4538 74.3818 15.4167 74.1085 15.4529 73.84L16.0112 69.7222L13.1472 66.7248C12.9595 66.5286 12.8287 66.2852 12.7685 66.0204C12.7084 65.7556 12.7213 65.4795 12.8058 65.2215C12.8903 64.9635 13.0433 64.7333 13.2484 64.5554C13.4535 64.3775 13.703 64.2586 13.9704 64.2115L18.0558 63.4702L20.0242 59.8116C20.1526 59.5731 20.3431 59.3738 20.5756 59.2349C20.8081 59.096 21.0739 59.0227 21.3447 59.0227C21.6156 59.0227 21.8814 59.096 22.1139 59.2349C22.3464 59.3738 22.5369 59.5731 22.6653 59.8116L24.6337 63.4702L28.7191 64.2115C28.9859 64.2597 29.2345 64.3794 29.4387 64.5577C29.6428 64.7361 29.7948 64.9664 29.8785 65.2243C29.9621 65.4821 29.9743 65.7578 29.9138 66.022C29.8533 66.2863 29.7222 66.5291 29.5347 66.7248L26.6554 69.7222L27.2138 73.84C27.2423 74.052 27.2252 74.2676 27.1635 74.4723C27.1019 74.6771 26.9972 74.8663 26.8564 75.0273C26.7157 75.1883 26.5421 75.3173 26.3474 75.4057C26.1527 75.4941 25.9413 75.5398 25.7274 75.5398ZM21.3447 70.4234C21.5704 70.4234 21.7931 70.4742 21.9964 70.5721L23.8753 71.4791L23.5875 69.4173C23.5577 69.194 23.5783 68.9667 23.6479 68.7524C23.7175 68.538 23.8343 68.342 23.9896 68.1787L25.4321 66.6734L23.3818 66.3018C23.1603 66.2615 22.9508 66.1721 22.7684 66.0402C22.5861 65.9083 22.4356 65.7373 22.328 65.5396L21.3371 63.697L20.3463 65.5396C20.2387 65.7373 20.0882 65.9083 19.9058 66.0402C19.7235 66.1721 19.5139 66.2615 19.2925 66.3018L17.2422 66.6734L18.6846 68.1787C18.84 68.342 18.9568 68.538 19.0263 68.7524C19.0959 68.9667 19.1166 69.194 19.0867 69.4173L18.8066 71.4886L20.6854 70.5816C20.888 70.4804 21.1108 70.4264 21.3371 70.4234H21.3447Z" fill="black"/>
<path d="M35.7886 75.5397C35.5747 75.54 35.3631 75.4945 35.1683 75.4062C34.9734 75.3179 34.7997 75.1889 34.6589 75.0279C34.518 74.8668 34.4133 74.6775 34.3518 74.4726C34.2903 74.2677 34.2734 74.052 34.3023 73.84L34.8587 69.7202L32.0004 66.7229C31.8133 66.527 31.6828 66.2841 31.6227 66.02C31.5625 65.7559 31.575 65.4805 31.6589 65.2229C31.7427 64.9654 31.8947 64.7353 32.0988 64.5572C32.3029 64.3791 32.5514 64.2596 32.8179 64.2114L36.9014 63.4701L38.8698 59.8115C38.9982 59.5731 39.1887 59.3738 39.4212 59.2349C39.6537 59.096 39.9195 59.0227 40.1903 59.0227C40.4612 59.0227 40.7269 59.096 40.9594 59.2349C41.192 59.3738 41.3825 59.5731 41.5109 59.8115L43.4735 63.4701L47.5628 64.2114C47.8295 64.2597 48.0782 64.3793 48.2823 64.5577C48.4865 64.736 48.6385 64.9664 48.7222 65.2242C48.8058 65.482 48.818 65.7577 48.7575 66.022C48.697 66.2862 48.5659 66.5291 48.3784 66.7248L45.5029 69.7222L46.0593 73.84C46.0956 74.1084 46.0584 74.3817 45.9518 74.6307C45.8451 74.8798 45.6731 75.0953 45.4538 75.2543C45.2345 75.4134 44.9763 75.5101 44.7064 75.5342C44.4366 75.5583 44.1653 75.5088 43.9213 75.3911L40.1827 73.5866L36.4384 75.3911C36.2357 75.4887 36.0136 75.5395 35.7886 75.5397ZM36.0858 66.6657L37.5264 68.1711C37.6818 68.3339 37.7987 68.5296 37.8683 68.7436C37.9379 68.9577 37.9584 69.1847 37.9285 69.4077L37.6465 71.4809L39.5329 70.572C39.7359 70.4742 39.9584 70.4235 40.1837 70.4235C40.409 70.4235 40.6314 70.4742 40.8344 70.572L42.7132 71.479L42.4331 69.4173C42.4033 69.1937 42.4241 68.9664 42.494 68.752C42.5639 68.5375 42.6812 68.3416 42.8371 68.1787L44.2777 66.6752L42.2216 66.2941C42.0001 66.2541 41.7904 66.1648 41.6081 66.0329C41.4257 65.9009 41.2753 65.7297 41.1679 65.5319L40.1808 63.695L39.1918 65.5338C39.0847 65.7314 38.9345 65.9025 38.7525 66.0344C38.5705 66.1663 38.3612 66.2557 38.14 66.296L36.0858 66.6657Z" fill="black"/>
<path d="M63.4186 75.5397C63.1936 75.5395 62.9715 75.4887 62.7688 75.3911L59.0245 73.5866L55.2859 75.3911C55.0419 75.5088 54.7706 75.5583 54.5008 75.5342C54.2309 75.5101 53.9727 75.4134 53.7534 75.2543C53.5341 75.0953 53.3621 74.8798 53.2554 74.6307C53.1488 74.3817 53.1116 74.1084 53.1479 73.84L53.7043 69.7222L50.8346 66.7248C50.647 66.5291 50.516 66.2862 50.4554 66.022C50.3949 65.7577 50.4071 65.482 50.4908 65.2242C50.5744 64.9664 50.7264 64.736 50.9306 64.5577C51.1347 64.3793 51.3834 64.2597 51.6501 64.2114L55.7394 63.4701L57.7021 59.8115C57.8304 59.5731 58.021 59.3738 58.2535 59.2349C58.486 59.096 58.7518 59.0227 59.0226 59.0227C59.2934 59.0227 59.5592 59.096 59.7917 59.2349C60.0242 59.3738 60.2147 59.5731 60.3431 59.8115L62.3115 63.4701L66.395 64.2114C66.6618 64.2597 66.9104 64.3793 67.1146 64.5577C67.3187 64.736 67.4707 64.9664 67.5544 65.2242C67.6381 65.482 67.6503 65.7577 67.5897 66.022C67.5292 66.2862 67.3982 66.5291 67.2106 66.7248L64.3409 69.7202L64.903 73.8381C64.9322 74.0502 64.9155 74.2661 64.8541 74.4713C64.7927 74.6764 64.6881 74.866 64.5472 75.0273C64.4064 75.1885 64.2326 75.3177 64.0376 75.4061C63.8425 75.4945 63.6308 75.5401 63.4167 75.5397H63.4186ZM59.0245 70.4234C59.2495 70.4236 59.4716 70.4744 59.6743 70.572L61.5569 71.479L61.2749 69.4173C61.2441 69.1936 61.2642 68.9658 61.3339 68.751C61.4035 68.5362 61.5208 68.3399 61.677 68.1768L63.1175 66.6714L61.0672 66.2998C60.8461 66.2595 60.6367 66.1701 60.4547 66.0382C60.2727 65.9063 60.1226 65.7352 60.0154 65.5376L59.0264 63.6988L58.0393 65.5357C57.9319 65.7336 57.7815 65.9047 57.5991 66.0367C57.4168 66.1686 57.2071 66.2579 56.9856 66.2979L54.9295 66.679L56.3701 68.1825C56.526 68.3454 56.6433 68.5414 56.7132 68.7558C56.7831 68.9702 56.8039 69.1975 56.7741 69.4211L56.494 71.4924L58.3728 70.5854C58.575 70.4829 58.7978 70.4275 59.0245 70.4234Z" fill="black"/>
<path d="M73.4798 75.5397C73.2659 75.5397 73.0546 75.494 72.8598 75.4056C72.6651 75.3172 72.4915 75.1882 72.3508 75.0272C72.21 74.8663 72.1053 74.677 72.0437 74.4723C71.982 74.2675 71.9649 74.0519 71.9935 73.84L72.5518 69.7222L69.6802 66.7248C69.4926 66.5291 69.3616 66.2862 69.301 66.022C69.2405 65.7577 69.2527 65.482 69.3364 65.2242C69.42 64.9664 69.572 64.736 69.7762 64.5577C69.9803 64.3793 70.229 64.2597 70.4957 64.2114L74.5811 63.4702L76.5496 59.8116C76.6779 59.5731 76.8685 59.3738 77.101 59.2349C77.3335 59.096 77.5992 59.0227 77.8701 59.0227C78.141 59.022 78.4071 59.0951 78.6397 59.2341C78.8723 59.3731 79.0627 59.5727 79.1906 59.8116L81.159 63.4702L85.2368 64.2114C85.5036 64.2597 85.7522 64.3793 85.9564 64.5577C86.1605 64.736 86.3125 64.9664 86.3962 65.2242C86.4798 65.482 86.4921 65.7577 86.4315 66.022C86.371 66.2862 86.24 66.5291 86.0524 66.7248L83.1884 69.7222L83.7467 73.84C83.7821 74.1075 83.7446 74.3795 83.6383 74.6275C83.532 74.8754 83.3608 75.0901 83.1427 75.2489C82.9246 75.4077 82.6677 75.5048 82.399 75.5298C82.1304 75.5548 81.86 75.5069 81.6163 75.3911L77.8777 73.5885L74.1391 75.3911C73.9334 75.4899 73.7079 75.5407 73.4798 75.5397ZM73.7751 66.6638L75.2176 68.1692C75.3729 68.3324 75.4897 68.5284 75.5593 68.7428C75.6289 68.9571 75.6495 69.1844 75.6197 69.4078L75.3395 71.479L77.2184 70.572C77.4217 70.4742 77.6445 70.4234 77.8701 70.4234C78.0957 70.4234 78.3184 70.4742 78.5218 70.572L80.4006 71.479L80.1205 69.4173C80.0907 69.1939 80.1113 68.9667 80.1809 68.7523C80.2505 68.538 80.3672 68.342 80.5226 68.1787L81.965 66.6733L79.9147 66.3018C79.6933 66.2614 79.4837 66.172 79.3014 66.0401C79.119 65.9083 78.9686 65.7372 78.861 65.5395L77.8701 63.6969L76.8792 65.5395C76.7716 65.7372 76.6211 65.9083 76.4388 66.0401C76.2564 66.172 76.0469 66.2614 75.8255 66.3018L73.7751 66.6638Z" fill="black"/>
</svg>
