<svg width="100" height="100" viewBox="0 0 100 100" fill="none" xmlns="http://www.w3.org/2000/svg">
<path fill-rule="evenodd" clip-rule="evenodd" d="M74.6933 73.4622L76.9728 71.1827L75.6139 69.8238C75.3836 69.5937 75.2374 69.2929 75.1987 68.9697C75.16 68.6464 75.2311 68.3195 75.4005 68.0416C75.7124 67.53 75.9841 66.9951 76.2133 66.4416C76.4273 65.9245 76.6034 65.3927 76.7403 64.8501C76.7951 64.5088 76.9697 64.1981 77.2328 63.9738C77.4959 63.7496 77.8303 63.6264 78.176 63.6264H80.096V60.402H78.176C77.8509 60.4014 77.5353 60.2919 77.2799 60.0908C77.0244 59.8897 76.8438 59.6085 76.7669 59.2926C76.4906 58.1601 76.0462 57.0755 75.4485 56.0746C75.2506 55.7946 75.1582 55.4535 75.1874 55.1119C75.2167 54.7703 75.3659 54.4502 75.6085 54.208L76.9675 52.8478L74.6933 50.5642L73.3344 51.9242C73.1042 52.1543 72.8033 52.3003 72.4801 52.339C72.1569 52.3777 71.83 52.3067 71.552 52.1374C70.5624 51.5282 69.4859 51.0734 68.3595 50.7882C68.0181 50.7332 67.7074 50.5582 67.4832 50.2949C67.259 50.0316 67.1359 49.6973 67.136 49.3514V47.4314H63.9125V49.3514C63.9131 49.6778 63.8036 49.9949 63.6018 50.2514C63.3999 50.5078 63.1174 50.6885 62.8 50.7646C61.6664 51.0381 60.5812 51.4831 59.5819 52.0842C59.3018 52.2819 58.9609 52.3743 58.6193 52.345C58.2778 52.3158 57.9575 52.1666 57.7152 51.9241L56.3541 50.5642L54.0747 52.8437L55.44 54.2015C55.6702 54.4315 55.8164 54.7321 55.8551 55.0552C55.8937 55.3783 55.8227 55.7049 55.6533 55.9827C55.0472 56.9725 54.5948 58.0486 54.3115 59.1742C54.2565 59.5156 54.0816 59.8264 53.8183 60.0506C53.555 60.2748 53.2205 60.398 52.8747 60.3979L50.9547 60.3978V63.6213L52.8747 63.6212C53.2 63.6211 53.5159 63.7304 53.7715 63.9316C54.0271 64.1329 54.2076 64.4143 54.2837 64.7306C54.5534 65.8681 54.9955 66.9577 55.5947 67.9615C55.7922 68.2419 55.8845 68.583 55.8552 68.9246C55.826 69.2663 55.677 69.5867 55.4347 69.8293L54.0747 71.1829L56.3541 73.4622L57.7141 72.1033C57.9442 71.8733 58.2449 71.7274 58.5679 71.6887C58.8909 71.65 59.2176 71.7208 59.4955 71.89C60.0048 72.2021 60.5376 72.4742 61.0891 72.7039C61.6089 72.92 62.1436 73.0981 62.6891 73.2371C63.0304 73.2919 63.341 73.4665 63.5652 73.7296C63.7895 73.9928 63.9126 74.3274 63.9125 74.6731V76.5931L67.136 76.5929V74.6731C67.136 74.3478 67.2454 74.0318 67.4466 73.7762C67.6478 73.5206 67.9292 73.3403 68.2453 73.2639C68.826 73.1227 69.3948 72.9366 69.9467 72.7072C70.4682 72.4909 70.9731 72.2362 71.4571 71.9455C71.7373 71.7477 72.0784 71.6553 72.4201 71.6846C72.7619 71.7139 73.0823 71.8629 73.3248 72.1054L74.6837 73.4645L74.6933 73.4622ZM69.3259 58.2091C70.2057 59.0887 70.7532 60.2461 70.8753 61.4841C70.9974 62.7222 70.6864 63.9642 69.9954 64.9987C69.3043 66.0331 68.2759 66.796 67.0855 67.1572C65.8951 67.5184 64.6162 67.4557 63.4668 66.9797C62.3174 66.5037 61.3687 65.6437 60.7822 64.5466C60.1957 63.4495 60.0078 62.1829 60.2504 60.9628C60.4931 59.7426 61.1514 58.6444 62.113 57.8552C63.0747 57.066 64.2802 56.6346 65.5243 56.6346C66.2304 56.6337 66.9298 56.7723 67.5822 57.0424C68.2346 57.3126 68.8272 57.7092 69.3259 58.2091Z" fill="#00B0FB"/>
<path d="M67.4051 36.3765C67.3621 35.9418 67.1698 35.5354 66.8608 35.2267C66.6857 35.0513 66.4777 34.9124 66.2487 34.8175C66.0197 34.7227 65.7742 34.674 65.5264 34.6743C65.0896 34.6743 64.6662 34.8256 64.3285 35.1027C63.9909 35.3798 63.7597 35.7654 63.6745 36.1938C63.5893 36.6223 63.6553 37.0672 63.8612 37.4524C64.0672 37.8377 64.4003 38.1395 64.8039 38.3066C65.2075 38.4737 65.6566 38.4957 66.0746 38.3688C66.4926 38.2419 66.8537 37.9741 67.0963 37.6108C67.3389 37.2475 67.448 36.8113 67.4051 36.3765Z" fill="#00B0FB" fill-opacity="0.5"/>
<path d="M37.9779 61.8292C37.9349 61.3945 37.7426 60.9881 37.4336 60.6793C37.2586 60.5038 37.0506 60.3646 36.8216 60.2698C36.5926 60.1749 36.3471 60.1263 36.0992 60.1267C35.6624 60.1267 35.239 60.2782 34.9014 60.5554C34.5637 60.8325 34.3325 61.2181 34.2473 61.6465C34.1621 62.0749 34.2281 62.5196 34.434 62.9048C34.64 63.2901 34.9731 63.5921 35.3767 63.7593C35.7803 63.9264 36.2294 63.9484 36.6474 63.8215C37.0654 63.6946 37.4265 63.4267 37.6691 63.0635C37.9117 62.7002 38.0208 62.2639 37.9779 61.8292Z" fill="#00B0FB" fill-opacity="0.5"/>
<path d="M88.8067 39.6344C88.7637 39.1996 88.5714 38.7933 88.2624 38.4845C88.0872 38.3093 87.8791 38.1702 87.6501 38.0754C87.4212 37.9806 87.1758 37.9318 86.928 37.9319C86.4912 37.9318 86.0678 38.0832 85.7301 38.3603C85.3925 38.6374 85.1613 39.0232 85.0761 39.4517C84.9909 39.8801 85.0569 40.3248 85.2628 40.71C85.4688 41.0952 85.8019 41.3971 86.2055 41.5642C86.6091 41.7313 87.0582 41.7533 87.4762 41.6264C87.8942 41.4995 88.2553 41.2316 88.4979 40.8684C88.7405 40.5051 88.8496 40.0691 88.8067 39.6344Z" fill="#00B0FB" fill-opacity="0.5"/>
<path d="M84.9667 81.0465C84.9237 80.6118 84.7314 80.2054 84.4224 79.8966C84.2474 79.7211 84.0394 79.5819 83.8104 79.4871C83.5813 79.3922 83.3359 79.3436 83.088 79.344C82.6512 79.344 82.2278 79.4953 81.8901 79.7724C81.5525 80.0495 81.3213 80.4353 81.2361 80.8638C81.1509 81.2922 81.2169 81.7369 81.4228 82.1221C81.6288 82.5074 81.9619 82.8092 82.3655 82.9763C82.7691 83.1434 83.2182 83.1654 83.6362 83.0385C84.0542 82.9116 84.4153 82.6438 84.6579 82.2805C84.9005 81.9172 85.0096 81.4812 84.9667 81.0465Z" fill="#00B0FB" fill-opacity="0.5"/>
<path d="M47.9384 81.0465C47.8955 80.6118 47.7031 80.2054 47.3941 79.8966C47.2191 79.7211 47.0111 79.5819 46.7821 79.4871C46.5531 79.3922 46.3076 79.3436 46.0597 79.344C45.6229 79.344 45.1996 79.4953 44.8619 79.7724C44.5242 80.0495 44.2931 80.4353 44.2078 80.8638C44.1226 81.2922 44.1886 81.7369 44.3946 82.1221C44.6005 82.5074 44.9337 82.8092 45.3373 82.9763C45.7409 83.1434 46.1899 83.1654 46.6079 83.0385C47.0259 82.9116 47.387 82.6438 47.6296 82.2805C47.8722 81.9172 47.9814 81.4812 47.9384 81.0465Z" fill="#00B0FB" fill-opacity="0.5"/>
<path d="M7.2736 10.9089C6.64737 10.912 6.04766 11.1622 5.60484 11.605C5.16202 12.0478 4.91189 12.6475 4.9088 13.2738V25.6407H95.0912V13.2737C95.0876 12.6476 94.8372 12.0483 94.3946 11.6056C93.9518 11.1629 93.3525 10.9126 92.7264 10.9089H7.2736Z" fill="#00B0FB" fill-opacity="0.5"/>
<path d="M4.9088 28.5505V87.6631C4.91244 88.2891 5.16276 88.8885 5.60546 89.3312C6.04816 89.7739 6.64754 90.024 7.2736 90.0277L92.7264 90.0276C93.3526 90.0245 93.9523 89.7746 94.3952 89.3318C94.838 88.889 95.0881 88.2893 95.0912 87.663" stroke="#00B0FB" stroke-width="2"/>
<path fill-rule="evenodd" clip-rule="evenodd" d="M18.3509 48.8939C18.486 49.029 18.5932 49.1894 18.6663 49.3659C18.7394 49.5424 18.7771 49.7316 18.7771 49.9227C18.7771 50.1137 18.7394 50.3029 18.6663 50.4794C18.5932 50.656 18.486 50.8164 18.3509 50.9515C18.2158 51.0866 18.0554 51.1937 17.8789 51.2669C17.7024 51.34 17.5132 51.3776 17.3221 51.3776C17.1311 51.3776 16.9419 51.34 16.7654 51.2669C16.5888 51.1937 16.4284 51.0866 16.2933 50.9515L11.3419 45.9989C11.2067 45.864 11.0994 45.7037 11.0262 45.5273C10.953 45.3508 10.9154 45.1617 10.9154 44.9707C10.9154 44.7796 10.953 44.5905 11.0262 44.4141C11.0994 44.2376 11.2067 44.0773 11.3419 43.9424L16.2933 38.9899C16.566 38.7171 16.9359 38.5639 17.3216 38.5639C17.7073 38.5639 18.0772 38.7171 18.3499 38.9899C18.6226 39.2626 18.7758 39.6325 18.7758 40.0181C18.7758 40.4038 18.6226 40.7737 18.3499 41.0464L14.4267 44.9707L18.3509 48.8939ZM30.1184 41.0464C29.8457 40.7737 29.6925 40.4038 29.6925 40.0181C29.6925 39.6325 29.8457 39.2626 30.1184 38.9899C30.3911 38.7171 30.761 38.5639 31.1467 38.5639C31.5323 38.5639 31.9022 38.7171 32.1749 38.9899L37.1275 43.9424C37.4 44.2152 37.5531 44.585 37.5531 44.9707C37.5531 45.3563 37.4 45.7261 37.1275 45.9989L32.1749 50.9515C31.9 51.2141 31.5333 51.3588 31.1531 51.3544C30.7729 51.35 30.4095 51.197 30.1407 50.9281C29.872 50.6592 29.7191 50.2957 29.715 49.9155C29.7108 49.5353 29.8556 49.1686 30.1184 48.8939L34.0416 44.9707L30.1184 41.0464ZM23.2085 54.4149C23.1647 54.6047 23.0831 54.7838 22.9686 54.9414C22.8541 55.099 22.7091 55.232 22.5422 55.3325C22.3753 55.4329 22.1899 55.4988 21.9971 55.5261C21.8042 55.5535 21.6078 55.5418 21.4195 55.4917C21.2313 55.4416 21.055 55.3542 20.9012 55.2346C20.7474 55.115 20.6193 54.9657 20.5244 54.7956C20.4295 54.6255 20.3697 54.438 20.3487 54.2444C20.3277 54.0507 20.3459 53.8548 20.4021 53.6683L25.2608 35.5349C25.3697 35.174 25.6146 34.8694 25.9439 34.6857C26.2731 34.502 26.6609 34.4535 27.0253 34.5504C27.3896 34.6474 27.702 34.8822 27.8965 35.2052C28.0909 35.5283 28.1521 35.9142 28.0672 36.2816L23.2085 54.4149ZM74.6933 73.4624L76.9728 71.1829L75.6139 69.824C75.3836 69.5939 75.2374 69.293 75.1987 68.9697C75.16 68.6465 75.2311 68.3196 75.4005 68.0416C75.7124 67.5301 75.9842 66.9951 76.2133 66.4416C76.4273 65.9246 76.6034 65.3927 76.7403 64.8501C76.7951 64.5088 76.9697 64.1982 77.2328 63.9739C77.4959 63.7497 77.8303 63.6266 78.176 63.6267H80.096V60.4021H78.176C77.8509 60.4016 77.5353 60.2919 77.2799 60.0908C77.0244 59.8897 76.8438 59.6087 76.7669 59.2928C76.4906 58.1603 76.0462 57.0755 75.4485 56.0747C75.2506 55.7947 75.1582 55.4537 75.1874 55.1121C75.2167 54.7705 75.3659 54.4502 75.6085 54.208L76.9675 52.848L74.6933 50.5643L73.3344 51.9243C73.1042 52.1544 72.8033 52.3005 72.4801 52.3392C72.1569 52.3778 71.8301 52.3069 71.552 52.1376C70.5624 51.5284 69.4859 51.0735 68.3595 50.7883C68.0181 50.7332 67.7074 50.5584 67.4832 50.2951C67.259 50.0318 67.1359 49.6973 67.136 49.3515V47.4315H63.9125V49.3515C63.9131 49.6778 63.8036 49.9949 63.6018 50.2514C63.3999 50.5078 63.1174 50.6887 62.8 50.7648C61.6664 51.0382 60.5812 51.4832 59.5819 52.0843C59.3018 52.2819 58.9609 52.3743 58.6193 52.345C58.2778 52.3158 57.9576 52.1667 57.7152 51.9243L56.3541 50.5643L54.0747 52.8437L55.44 54.2016C55.6702 54.4316 55.8164 54.7323 55.8551 55.0553C55.8937 55.3784 55.8227 55.7051 55.6533 55.9829C55.0472 56.9728 54.5948 58.0488 54.3115 59.1744C54.2565 59.5158 54.0816 59.8265 53.8183 60.0507C53.555 60.2749 53.2205 60.398 52.8747 60.3979H50.9547V63.6213H52.8747C53.2 63.6211 53.5159 63.7305 53.7715 63.9317C54.0271 64.133 54.2076 64.4144 54.2837 64.7307C54.5534 65.8682 54.9955 66.9578 55.5947 67.9616C55.7922 68.2419 55.8845 68.583 55.8552 68.9246C55.826 69.2663 55.677 69.5867 55.4347 69.8293L54.0747 71.1829L56.3541 73.4624L57.7141 72.1035C57.9442 71.8734 58.2449 71.7274 58.5679 71.6887C58.8909 71.65 59.2176 71.7209 59.4955 71.8901C60.0048 72.2022 60.5376 72.4743 61.0891 72.704C61.6089 72.9201 62.1436 73.0983 62.6891 73.2373C63.0304 73.2921 63.341 73.4667 63.5653 73.7298C63.7895 73.993 63.9126 74.3274 63.9125 74.6731V76.5931H67.136V74.6731C67.136 74.3478 67.2454 74.032 67.4466 73.7764C67.6478 73.5208 67.9292 73.3403 68.2453 73.264C68.826 73.1228 69.3948 72.9366 69.9467 72.7072C70.4682 72.4909 70.9731 72.2364 71.4571 71.9456C71.7373 71.7478 72.0784 71.6554 72.4201 71.6847C72.7619 71.714 73.0823 71.8631 73.3248 72.1056L74.6837 73.4645L74.6933 73.4624ZM69.3259 58.2091C70.2057 59.0886 70.7533 60.246 70.8753 61.4841C70.9974 62.7221 70.6864 63.9642 69.9954 64.9986C69.3043 66.0331 68.2759 66.7959 67.0855 67.1571C65.8951 67.5184 64.6162 67.4556 63.4668 66.9796C62.3174 66.5036 61.3687 65.6438 60.7822 64.5467C60.1957 63.4495 60.0078 62.183 60.2504 60.9629C60.4931 59.7427 61.1514 58.6444 62.113 57.8552C63.0747 57.066 64.2802 56.6346 65.5243 56.6347C66.2304 56.6337 66.9298 56.7723 67.5822 57.0425C68.2346 57.3126 68.8272 57.7091 69.3259 58.2091ZM65.5243 53.7291C67.4421 53.7284 69.3009 54.3927 70.7838 55.6089C72.2667 56.8251 73.282 58.5179 73.6567 60.3988C74.0313 62.2797 73.7422 64.2323 72.8385 65.9239C71.9348 67.6155 70.4725 68.9414 68.7008 69.6757C66.929 70.4099 64.9575 70.5071 63.1222 69.9506C61.2868 69.3941 59.7012 68.2184 58.6356 66.6239C57.57 65.0293 57.0902 63.1146 57.2781 61.2059C57.466 59.2973 58.31 57.5129 59.6661 56.1568C60.4345 55.3862 61.3476 54.775 62.353 54.3584C63.3583 53.9418 64.436 53.7279 65.5243 53.7291ZM98 87.6629V13.2736C97.9972 11.8758 97.4407 10.5361 96.4523 9.54772C95.4639 8.55933 94.1242 8.00282 92.7264 8H7.2736C5.87582 8.00282 4.5361 8.55933 3.54772 9.54772C2.55933 10.5361 2.00282 11.8758 2 13.2736V87.6629C2.00282 89.0607 2.55933 90.4004 3.54772 91.3888C4.5361 92.3772 5.87582 92.9337 7.2736 92.9365H92.7264C94.1242 92.9337 95.4639 92.3772 96.4523 91.3888C97.4407 90.4004 97.9972 89.0607 98 87.6629ZM95.0912 28.5504H4.9088V87.6629C4.91244 88.289 5.16276 88.8884 5.60546 89.3311C6.04816 89.7738 6.64754 90.0241 7.2736 90.0277H92.7264C93.3526 90.0246 93.9523 89.7745 94.3952 89.3317C94.838 88.8889 95.0881 88.2892 95.0912 87.6629V28.5504ZM4.9088 25.6405V13.2736C4.91188 12.6474 5.16202 12.0477 5.60484 11.6048C6.04766 11.162 6.64737 10.9119 7.2736 10.9088H92.7264C93.3525 10.9124 93.9519 11.1628 94.3946 11.6055C94.8372 12.0482 95.0876 12.6475 95.0912 13.2736V25.6405H4.9088ZM37.6395 19.504C37.4452 19.5093 37.2518 19.4755 37.0707 19.4048C36.8897 19.3341 36.7246 19.2278 36.5853 19.0922C36.446 18.9567 36.3353 18.7945 36.2597 18.6155C36.1841 18.4364 36.1451 18.244 36.1451 18.0496C36.1451 17.8552 36.1841 17.6628 36.2597 17.4837C36.3353 17.3047 36.446 17.1425 36.5853 17.007C36.7246 16.8714 36.8897 16.7651 37.0707 16.6944C37.2518 16.6237 37.4452 16.5899 37.6395 16.5952H84.1931C84.3874 16.5899 84.5808 16.6237 84.7618 16.6944C84.9429 16.7651 85.1079 16.8714 85.2472 17.007C85.3865 17.1425 85.4972 17.3047 85.5728 17.4837C85.6484 17.6628 85.6874 17.8552 85.6874 18.0496C85.6874 18.244 85.6484 18.4364 85.5728 18.6155C85.4972 18.7945 85.3865 18.9567 85.2472 19.0922C85.1079 19.2278 84.9429 19.3341 84.7618 19.4048C84.5808 19.4755 84.3874 19.5093 84.1931 19.504H37.6395ZM12.4661 19.504C12.0872 19.4937 11.7273 19.336 11.4629 19.0644C11.1985 18.7927 11.0506 18.4287 11.0506 18.0496C11.0506 17.6705 11.1985 17.3065 11.4629 17.0348C11.7273 16.7632 12.0872 16.6055 12.4661 16.5952C12.6604 16.5899 12.8538 16.6237 13.0349 16.6944C13.216 16.7651 13.381 16.8714 13.5203 17.007C13.6596 17.1425 13.7703 17.3047 13.8459 17.4837C13.9215 17.6628 13.9605 17.8552 13.9605 18.0496C13.9605 18.244 13.9215 18.4364 13.8459 18.6155C13.7703 18.7945 13.6596 18.9567 13.5203 19.0922C13.381 19.2278 13.216 19.3341 13.0349 19.4048C12.8538 19.4755 12.6604 19.5093 12.4661 19.504ZM20.56 19.504C20.3657 19.5093 20.1723 19.4755 19.9912 19.4048C19.8102 19.3341 19.6451 19.2278 19.5058 19.0922C19.3665 18.9567 19.2558 18.7945 19.1802 18.6155C19.1046 18.4364 19.0657 18.244 19.0657 18.0496C19.0657 17.8552 19.1046 17.6628 19.1802 17.4837C19.2558 17.3047 19.3665 17.1425 19.5058 17.007C19.6451 16.8714 19.8102 16.7651 19.9912 16.6944C20.1723 16.6237 20.3657 16.5899 20.56 16.5952C20.7543 16.5899 20.9477 16.6237 21.1288 16.6944C21.3098 16.7651 21.4749 16.8714 21.6142 17.007C21.7535 17.1425 21.8642 17.3047 21.9398 17.4837C22.0154 17.6628 22.0543 17.8552 22.0543 18.0496C22.0543 18.244 22.0154 18.4364 21.9398 18.6155C21.8642 18.7945 21.7535 18.9567 21.6142 19.0922C21.4749 19.2278 21.3098 19.3341 21.1288 19.4048C20.9477 19.4755 20.7543 19.5093 20.56 19.504ZM28.6528 19.504C28.2739 19.4937 27.9139 19.336 27.6496 19.0644C27.3852 18.7927 27.2373 18.4287 27.2373 18.0496C27.2373 17.6705 27.3852 17.3065 27.6496 17.0348C27.9139 16.7632 28.2739 16.6055 28.6528 16.5952H28.6592C29.0381 16.6055 29.3981 16.7632 29.6624 17.0348C29.9268 17.3065 30.0747 17.6705 30.0747 18.0496C30.0747 18.4287 29.9268 18.7927 29.6624 19.0644C29.3981 19.336 29.0381 19.4937 28.6592 19.504H28.6528ZM66.8608 35.2267C67.1698 35.5354 67.3622 35.9418 67.4051 36.3765C67.448 36.8113 67.3389 37.2474 67.0963 37.6107C66.8537 37.974 66.4926 38.2419 66.0746 38.3687C65.6566 38.4956 65.2075 38.4736 64.8039 38.3065C64.4003 38.1394 64.0672 37.8375 63.8612 37.4522C63.6553 37.067 63.5893 36.6223 63.6745 36.1938C63.7597 35.7654 63.9909 35.3798 64.3286 35.1026C64.6662 34.8255 65.0896 34.6741 65.5264 34.6741C65.7742 34.6739 66.0197 34.7225 66.2487 34.8173C66.4777 34.9122 66.6857 35.0513 66.8608 35.2267ZM37.4336 60.6795C37.7426 60.9882 37.935 61.3946 37.9779 61.8293C38.0208 62.2641 37.9117 62.7002 37.6691 63.0635C37.4265 63.4268 37.0654 63.6947 36.6474 63.8215C36.2294 63.9484 35.7803 63.9264 35.3767 63.7593C34.9731 63.5922 34.64 63.2903 34.434 62.905C34.2281 62.5198 34.1621 62.0751 34.2473 61.6466C34.3325 61.2182 34.5637 60.8326 34.9014 60.5554C35.239 60.2783 35.6624 60.1269 36.0992 60.1269C36.3471 60.1265 36.5926 60.1752 36.8216 60.27C37.0506 60.3648 37.2586 60.504 37.4336 60.6795ZM88.2624 38.4843C88.5714 38.793 88.7638 39.1994 88.8067 39.6341C88.8496 40.0689 88.7405 40.505 88.4979 40.8683C88.2553 41.2316 87.8942 41.4995 87.4762 41.6263C87.0582 41.7532 86.6091 41.7312 86.2055 41.5641C85.8019 41.397 85.4688 41.0951 85.2628 40.7098C85.0569 40.3246 84.9909 39.8799 85.0761 39.4514C85.1613 39.023 85.3925 38.6374 85.7302 38.3602C86.0678 38.0831 86.4912 37.9317 86.928 37.9317C87.1758 37.9317 87.4212 37.9805 87.6502 38.0753C87.8791 38.1701 88.0872 38.3091 88.2624 38.4843ZM84.4224 79.8965C84.7314 80.2053 84.9238 80.6117 84.9667 81.0464C85.0096 81.4811 84.9005 81.9173 84.6579 82.2806C84.4153 82.6438 84.0542 82.9117 83.6362 83.0386C83.2182 83.1655 82.7691 83.1435 82.3655 82.9764C81.9619 82.8092 81.6288 82.5074 81.4228 82.1221C81.2169 81.7369 81.1509 81.2921 81.2361 80.8637C81.3213 80.4353 81.5525 80.0496 81.8902 79.7725C82.2278 79.4954 82.6512 79.344 83.088 79.344C83.3359 79.3436 83.5814 79.3922 83.8104 79.4871C84.0394 79.5819 84.2474 79.721 84.4224 79.8965ZM47.3941 79.8965C47.7031 80.2053 47.8955 80.6117 47.9384 81.0464C47.9814 81.4811 47.8722 81.9173 47.6296 82.2806C47.387 82.6438 47.0259 82.9117 46.6079 83.0386C46.1899 83.1655 45.7409 83.1435 45.3373 82.9764C44.9337 82.8092 44.6005 82.5074 44.3946 82.1221C44.1886 81.7369 44.1226 81.2921 44.2078 80.8637C44.2931 80.4353 44.5242 80.0496 44.8619 79.7725C45.1996 79.4954 45.6229 79.344 46.0597 79.344C46.3076 79.3436 46.5531 79.3922 46.7821 79.4871C47.0111 79.5819 47.2191 79.721 47.3941 79.8965ZM78.8096 73.4645L79.36 72.9141C79.8176 72.4544 80.0745 71.8321 80.0745 71.1835C80.0745 70.5348 79.8176 69.9125 79.36 69.4528L78.448 68.5408C78.6123 68.218 78.7637 67.8891 78.9024 67.5541C79.0404 67.222 79.1655 66.8843 79.2779 66.5408H80.5685C81.2143 66.5394 81.8332 66.2825 82.2901 65.8261L82.2987 65.8165C82.5257 65.5905 82.706 65.3219 82.8291 65.0261C82.9523 64.7303 83.016 64.4132 83.0165 64.0928V59.9403C83.015 59.2949 82.758 58.6763 82.3019 58.2197L82.2933 58.2112C81.8363 57.7527 81.2159 57.4945 80.5685 57.4933H79.2747C79.1616 57.1449 79.0361 56.8046 78.8981 56.4725C78.7595 56.1387 78.608 55.8091 78.4437 55.4869L79.3557 54.5749C79.5827 54.348 79.7627 54.0786 79.8855 53.7821C80.0083 53.4856 80.0715 53.1679 80.0715 52.8469C80.0715 52.526 80.0083 52.2082 79.8855 51.9117C79.7627 51.6152 79.5827 51.3459 79.3557 51.1189L78.8928 50.656L85.0325 44.2315C86.0847 44.6847 87.2643 44.7467 88.3582 44.4062C89.4521 44.0657 90.3882 43.3451 90.9972 42.3747C91.6062 41.4044 91.8481 40.2482 91.6791 39.115C91.5101 37.9819 90.9413 36.9466 90.0757 36.1961C89.21 35.4457 88.1044 35.0297 86.9588 35.0232C85.8131 35.0167 84.7029 35.4202 83.8288 36.1608C82.9547 36.9013 82.3743 37.9301 82.1924 39.0613C82.0106 40.1924 82.2393 41.3513 82.8373 42.3285L76.8405 48.6037L76.4245 48.1867C75.9865 47.7478 75.3977 47.4924 74.7779 47.4726C74.1582 47.4528 73.5542 47.67 73.0891 48.08C73.0469 48.1133 73.0067 48.1489 72.9685 48.1867L72.0555 49.0997C71.7333 48.9362 71.4027 48.7847 71.0635 48.6453C70.7243 48.506 70.3865 48.3804 70.0501 48.2688V46.9781C70.0487 46.3327 69.7917 45.7141 69.3355 45.2576L69.3259 45.248C68.869 44.7899 68.2491 44.5317 67.6021 44.5301H66.9835V41.1381C68.0728 40.7911 69.0021 40.0661 69.6036 39.0939C70.2052 38.1217 70.4393 36.9665 70.2637 35.8368C70.0881 34.7071 69.5144 33.6775 68.6461 32.9338C67.7779 32.19 66.6723 31.7813 65.5291 31.7813C64.3858 31.7813 63.2803 32.19 62.412 32.9338C61.5438 33.6775 60.9701 34.7071 60.7945 35.8368C60.6189 36.9665 60.853 38.1217 61.4545 39.0939C62.0561 40.0661 62.9854 40.7911 64.0747 41.1381V44.5301H63.4571C62.8112 44.5312 62.1919 44.7868 61.7333 45.2416L61.7248 45.2512C61.2665 45.7079 61.0083 46.3279 61.0069 46.9749V48.2656C60.6628 48.3787 60.3246 48.5042 59.9925 48.6421C59.6604 48.7801 59.3298 48.9316 59.0005 49.0965L58.0885 48.1835C57.6505 47.7451 57.0619 47.4901 56.4424 47.4703C55.823 47.4505 55.2193 47.6673 54.7541 48.0768C54.7117 48.1101 54.6711 48.1457 54.6325 48.1835L51.7003 51.1157C51.2427 51.5755 50.9858 52.1977 50.9858 52.8464C50.9858 53.4951 51.2427 54.1173 51.7003 54.5771L52.6133 55.4891C52.4505 55.8126 52.299 56.1433 52.1589 56.4811C52.0188 56.8188 51.8933 57.157 51.7824 57.4955H50.4917C49.8463 57.497 49.2278 57.754 48.7712 58.2101L48.7616 58.2187C48.3037 58.6756 48.0455 59.2955 48.0437 59.9424V60.5611H40.6699C40.3228 59.4709 39.5974 58.5407 38.6246 57.9386C37.6518 57.3364 36.4957 57.102 35.3652 57.2776C34.2347 57.4532 33.2042 58.0273 32.4599 58.8961C31.7155 59.765 31.3064 60.8714 31.3064 62.0155C31.3064 63.1595 31.7155 64.2659 32.4599 65.1348C33.2042 66.0036 34.2347 66.5777 35.3652 66.7533C36.4957 66.9289 37.6518 66.6945 38.6246 66.0923C39.5974 65.4902 40.3228 64.56 40.6699 63.4699H48.0352V64.0885C48.0369 64.7339 48.2938 65.3524 48.7499 65.8091L48.7595 65.8187C49.2164 66.2766 49.8363 66.5347 50.4832 66.5365H51.7739C51.8869 66.8814 52.0124 67.2196 52.1504 67.5509C52.2901 67.8891 52.4427 68.2197 52.6048 68.5419L51.6917 69.4549C51.2529 69.8927 50.9976 70.4814 50.9777 71.101C50.9579 71.7206 51.1751 72.3244 51.5851 72.7893C51.6181 72.8309 51.6544 72.8715 51.6917 72.9109L52.1184 73.3376L48.3317 77.0069C47.325 76.4657 46.1579 76.3024 45.0412 76.5464C43.9246 76.7905 42.932 77.4259 42.2429 78.3378C41.5538 79.2497 41.2135 80.378 41.2836 81.5188C41.3536 82.6597 41.8294 83.7379 42.6249 84.5586C43.4204 85.3794 44.4833 85.8885 45.6214 85.9941C46.7595 86.0997 47.8979 85.7948 48.8308 85.1345C49.7638 84.4741 50.4298 83.5019 50.7086 82.3934C50.9874 81.2849 50.8605 80.1133 50.3509 79.0901L54.1696 75.3888L54.6261 75.8453C55.0859 76.3029 55.7081 76.5598 56.3568 76.5598C57.0055 76.5598 57.6277 76.3029 58.0875 75.8453L58.9995 74.9323C59.3223 75.0951 59.653 75.2469 59.9915 75.3877C60.33 75.5285 60.6681 75.6537 61.0059 75.7632V77.0539C61.0055 77.3753 61.0688 77.6937 61.192 77.9906C61.3152 78.2876 61.4959 78.5572 61.7237 78.784C61.9499 79.0113 62.2186 79.1916 62.5146 79.3148C62.8106 79.438 63.1279 79.5016 63.4485 79.5019H67.6C68.1894 79.4999 68.758 79.2838 69.2 78.8939C69.2428 78.8606 69.2838 78.825 69.3227 78.7872C69.5503 78.5603 69.7309 78.2906 69.8541 77.9937C69.9773 77.6968 70.0407 77.3785 70.0405 77.0571V75.7643C70.3883 75.6512 70.7282 75.5257 71.0603 75.3877C71.3973 75.2455 71.7262 75.0944 72.0469 74.9344L72.96 75.8475C73.4198 76.305 74.042 76.5619 74.6907 76.5619C75.3393 76.5619 75.9616 76.305 76.4213 75.8475L76.7349 75.5339L79.12 78.5312C78.475 79.4782 78.1901 80.6246 78.3166 81.7633C78.4432 82.9021 78.9728 83.958 79.81 84.7403C80.6471 85.5225 81.7364 85.9796 82.8811 86.0288C84.0258 86.078 85.1503 85.7161 86.0515 85.0086C86.9526 84.301 87.571 83.2945 87.7948 82.1708C88.0186 81.0471 87.8331 79.8805 87.2718 78.8816C86.7105 77.8828 85.8104 77.1177 84.7342 76.7246C83.658 76.3315 82.4767 76.3363 81.4037 76.7381L78.8096 73.4645Z" fill="black"/>
</svg>
