<svg width="100" height="100" viewBox="0 0 100 100" fill="none" xmlns="http://www.w3.org/2000/svg">
<path d="M51.4375 55.2961V26.5441L67.8956 20.8379L67.8956 49.5899L51.4375 55.2961Z" fill="#00B0FB"/>
<path d="M48.1646 26.5441V55.2961L31.7065 49.5899V20.8379L48.1646 26.5441Z" fill="#00B0FB"/>
<path d="M28.4337 29.6498H28.4334L28.4377 50.7439C28.4377 51.4215 28.8638 52.0524 29.5371 52.2868L40.1058 55.9517L24.7517 55.9516V29.6498H28.4334L28.4334 29.645L28.4337 29.6498Z" fill="#00B0FB" fill-opacity="0.5"/>
<path d="M74.846 55.9518H59.4963L69.9282 52.3343C70.6441 52.1596 71.1726 51.516 71.1726 50.7489L71.1683 29.6499H74.846L74.846 55.9518Z" fill="#00B0FB" fill-opacity="0.5"/>
<path d="M83.7958 12.0535C83.2972 11.5549 82.6154 11.248 81.8653 11.248H17.7337C16.9794 11.248 16.2976 11.5549 15.799 12.0535C15.3047 12.5478 14.9936 13.2339 14.9936 13.9882V64.1382L14.9974 64.1339" stroke="#00B0FB" stroke-width="2"/>
<path d="M8.51929 67.4067H91.0777C90.6729 69.1496 89.778 70.7094 88.5507 71.9367C86.8375 73.6499 84.4681 74.711 81.8643 74.711L17.7327 74.711C15.1289 74.711 12.7595 73.6498 11.0464 71.9367C9.8233 70.7094 8.92839 69.1498 8.51929 67.4067Z" fill="#00B0FB" fill-opacity="0.5"/>
<path d="M71.1684 26.3778H76.4868C77.3902 26.3778 78.1232 27.1108 78.1232 28.0142V57.5889C78.1232 58.4923 77.3902 59.2253 76.4868 59.2253H23.1196C22.2162 59.2253 21.4832 58.4923 21.4832 57.5889V28.0142C21.4832 27.1108 22.2162 26.3778 23.1196 26.3778H28.4338V18.5409C28.4338 17.6374 29.1667 16.9044 30.0702 16.9044C30.3088 16.9044 30.539 16.9556 30.7435 17.0493L49.8013 23.659L69.0043 16.9982C69.8566 16.7084 70.7856 17.1601 71.0753 18.0081C71.1393 18.1829 71.1648 18.3618 71.1648 18.5366V26.3735L71.1684 26.3778ZM51.4375 26.544V55.2961L67.8956 49.5898V20.8378L51.4375 26.544ZM48.1646 55.2961V26.544L31.7065 20.8378V49.5898L48.1646 55.2961ZM28.4336 29.65H24.7517V55.9517H40.1057L29.5371 52.2868C28.8638 52.0524 28.4377 51.4217 28.4377 50.7441L28.4334 29.645L28.4336 29.65ZM59.4963 55.9517H74.846V29.65H71.1683L71.1726 50.749C71.1726 51.516 70.6441 52.1596 69.9282 52.3342L59.4963 55.9517ZM36.3649 86.9413H39.4161V77.9879H17.7335C14.2263 77.9879 11.0386 76.556 8.73313 74.2547C6.42762 71.9492 5 68.7616 5 65.2544V14.7335C5 11.2263 6.43187 8.03864 8.73313 5.73313C11.0386 3.42762 14.2263 2 17.7335 2H81.8651C85.3723 2 88.5599 3.43187 90.8654 5.73313C93.171 8.03864 94.5986 11.2263 94.5986 14.7335V65.2544C94.5986 68.7616 93.1667 71.9492 90.8654 74.2547C88.5599 76.5602 85.3723 77.9879 81.8651 77.9879H60.1824V86.9413H63.2337C64.7508 86.9413 66.1315 87.5635 67.133 88.565C68.1387 89.5664 68.7609 90.9472 68.7609 92.4685C68.7609 93.9898 68.1387 95.3749 67.1372 96.3763L67.0307 96.4743C66.0378 97.4161 64.6954 97.9999 63.2294 97.9999H36.3603C34.8433 97.9999 33.4625 97.3777 32.4611 96.3762C31.4553 95.3748 30.8331 93.994 30.8331 92.4727C30.8331 90.9514 31.4553 89.5663 32.4568 88.5649L32.5633 88.4669C33.5563 87.5251 34.8988 86.9413 36.3649 86.9413ZM42.689 86.9413H56.9096V77.9879H42.689V86.9413ZM63.2338 90.2142H36.3648C35.7767 90.2142 35.2354 90.4443 34.8349 90.815L34.771 90.8789C34.3619 91.2881 34.1062 91.8506 34.1062 92.4685C34.1062 93.0864 34.3619 93.6531 34.771 94.0622C35.1758 94.4713 35.7426 94.727 36.3648 94.727H63.2338C63.8219 94.727 64.3632 94.4969 64.7637 94.1262L64.8276 94.0622C65.2367 93.6531 65.4924 93.0906 65.4924 92.4727C65.4924 91.8548 65.2367 91.2881 64.8276 90.879C64.4227 90.4698 63.856 90.2142 63.2338 90.2142ZM8.26838 64.1339H11.7245V13.9839C11.7245 12.3262 12.3978 10.8261 13.4888 9.73518C14.5755 8.64849 16.0798 7.97089 17.7375 7.97089H81.8691C83.5268 7.97089 85.0269 8.64847 86.1136 9.73518C87.2003 10.8219 87.8779 12.3262 87.8779 13.9796V64.1296H91.3298V14.7258C91.3298 12.1221 90.2686 9.75263 88.5555 8.03951C86.8423 6.32639 84.4729 5.26522 81.8691 5.26522H17.7375C15.1337 5.26522 12.7643 6.3306 11.0512 8.03951C9.33806 9.75263 8.27689 12.1178 8.27689 14.7258V64.1296L8.26838 64.1339ZM14.9974 64.1339H84.6012V13.9839C84.6012 13.2339 84.2944 12.5478 83.7958 12.0534C83.2972 11.5549 82.6154 11.248 81.8653 11.248H17.7337C16.9794 11.248 16.2976 11.5549 15.799 12.0534C15.3047 12.5478 14.9936 13.2339 14.9936 13.9881V64.1381L14.9974 64.1339ZM91.0825 67.4067H8.5193C8.92841 69.1497 9.82332 70.7094 11.0464 71.9367C12.7595 73.6498 15.1289 74.711 17.7327 74.711H81.8643C84.4681 74.711 86.8375 73.6498 88.5507 71.9367C89.778 70.7094 90.6729 69.1496 91.0777 67.4067H91.0825Z" fill="black"/>
</svg>
