<svg width="100" height="100" viewBox="0 0 100 100" fill="none" xmlns="http://www.w3.org/2000/svg">
<path d="M9.28534 85.6617H23.3332C27.64 85.6513 31.7846 84.0128 34.934 81.0751C38.0834 78.1374 40.0057 74.1175 40.3152 69.8217C35.597 65.3231 32.2647 59.5675 30.7144 53.2354C28.4156 52.113 25.8915 51.5293 23.3334 51.5287C18.807 51.5287 14.4659 53.3268 11.2653 56.5274C8.06469 59.728 6.26671 64.0689 6.26671 68.5952C6.25954 70.8372 6.69842 73.0582 7.55723 75.1293C8.41604 77.2003 9.67803 79.0799 11.2697 80.6589C11.4674 80.8582 11.6239 81.0948 11.7301 81.3547C11.8363 81.6146 11.89 81.893 11.8884 82.1737C11.8888 82.7371 11.666 83.2776 11.2693 83.6776L9.28534 85.6617Z" fill="#00B0FB" fill-opacity="0.5"/>
<path fill-rule="evenodd" clip-rule="evenodd" d="M63.8673 74.9952C56.9576 74.9947 50.2618 72.5984 44.9209 68.2145C39.5799 63.8307 35.9238 57.7306 34.5762 50.9535C33.2286 44.1765 34.2732 37.1419 37.5308 31.0483C40.7884 24.9547 46.0576 20.179 52.4415 17.5351C58.8254 14.8913 65.9286 14.5429 72.5407 16.5491C79.1528 18.5552 84.8643 22.7919 88.7028 28.5373C92.5413 34.2827 94.2688 41.1814 93.5912 48.0578C92.9135 54.9342 89.8733 61.3628 84.9871 66.2485C84.5865 66.6467 84.3603 67.1875 84.3579 67.7524C84.3577 68.0339 84.4132 68.3128 84.5212 68.5728C84.6292 68.8327 84.7869 69.0688 84.9865 69.2673L90.715 74.9951L63.8673 74.9952ZM46.7995 48.3288C48.5668 48.3288 49.9995 46.8961 49.9995 45.1288C49.9995 43.3615 48.5668 41.9288 46.7995 41.9288C45.0322 41.9288 43.5996 43.3615 43.5996 45.1288C43.5996 46.8961 45.0322 48.3288 46.7995 48.3288ZM67.066 45.1288C67.066 46.8961 65.6333 48.3288 63.866 48.3288C62.0987 48.3288 60.666 46.8961 60.666 45.1288C60.666 43.3615 62.0987 41.9288 63.866 41.9288C65.6333 41.9288 67.066 43.3615 67.066 45.1288ZM80.9325 48.3288C82.6998 48.3288 84.1325 46.8961 84.1325 45.1288C84.1325 43.3615 82.6998 41.9288 80.9325 41.9288C79.1652 41.9288 77.7325 43.3615 77.7325 45.1288C77.7325 46.8961 79.1652 48.3288 80.9325 48.3288Z" fill="#00B0FB"/>
<path d="M89.4662 67.7098C93.1191 63.5679 95.7124 58.6015 97.0235 53.2368C98.3347 47.8722 98.3246 42.2695 96.9941 36.9096C95.6636 31.5497 93.0524 26.5927 89.3846 22.4639C85.7169 18.3352 81.1021 15.1581 75.9363 13.2053C70.7706 11.2524 65.2081 10.5822 59.7263 11.252C54.2445 11.9219 49.0071 13.9119 44.4636 17.0512C39.9201 20.1905 36.2062 24.3854 33.6405 29.2758C31.0749 34.1662 29.7342 39.6062 29.7336 45.1287C29.7336 46.1954 29.7869 47.262 29.8829 48.3287C26.6854 47.2973 23.2896 47.0356 19.9719 47.565C16.6542 48.0945 13.5084 49.4 10.7908 51.3753C8.07313 53.3506 5.86046 55.9399 4.33294 58.9323C2.80543 61.9246 2.00626 65.2355 2.00051 68.5951C1.98603 73.5187 3.68702 78.2935 6.81113 82.099L2.62984 86.2909C2.33025 86.5886 2.12572 86.9684 2.04217 87.3824C1.95862 87.7963 1.99981 88.2257 2.16051 88.6163C2.3229 89.0055 2.59702 89.3379 2.94825 89.5714C3.29948 89.805 3.71205 89.9291 4.13383 89.9282H23.3336C28.2267 89.9285 32.9711 88.2467 36.7716 85.1647C40.5721 82.0828 43.1976 77.788 44.2081 73.0004C49.9515 77.0787 56.8224 79.2671 63.8665 79.2617H95.8662C96.2879 79.2626 96.7005 79.1384 97.0518 78.9049C97.403 78.6714 97.6771 78.339 97.8395 77.9497C98.0002 77.5592 98.0414 77.1298 97.9578 76.7158C97.8743 76.3019 97.6698 75.922 97.3702 75.6244L89.4662 67.7098ZM23.3332 85.6617H9.28534L11.2693 83.6776C11.666 83.2776 11.8888 82.7371 11.8884 82.1737C11.89 81.893 11.8363 81.6146 11.7301 81.3547C11.6239 81.0948 11.4674 80.8582 11.2697 80.6589C9.67803 79.0799 8.41604 77.2003 7.55723 75.1293C6.69842 73.0582 6.25954 70.8372 6.26671 68.5952C6.26671 64.0689 8.06469 59.728 11.2653 56.5274C14.4659 53.3268 18.807 51.5287 23.3334 51.5287C25.8915 51.5293 28.4156 52.113 30.7144 53.2354C32.2647 59.5675 35.597 65.3231 40.3152 69.8217C40.0057 74.1175 38.0834 78.1374 34.934 81.0751C31.7846 84.0128 27.64 85.6513 23.3332 85.6617ZM63.8673 74.9952C56.9576 74.9947 50.2618 72.5984 44.9209 68.2145C39.5799 63.8307 35.9238 57.7306 34.5762 50.9535C33.2286 44.1765 34.2732 37.1419 37.5308 31.0483C40.7884 24.9547 46.0576 20.179 52.4415 17.5351C58.8254 14.8913 65.9286 14.5429 72.5407 16.5491C79.1528 18.5552 84.8643 22.7919 88.7028 28.5373C92.5413 34.2827 94.2688 41.1814 93.5912 48.0578C92.9135 54.9342 89.8733 61.3628 84.9871 66.2485C84.5865 66.6467 84.3603 67.1875 84.3579 67.7524C84.3577 68.0339 84.4132 68.3128 84.5212 68.5728C84.6292 68.8327 84.7869 69.0688 84.9865 69.2673L90.715 74.9951L63.8673 74.9952Z" fill="black"/>
<path d="M63.866 38.7289C62.6002 38.7289 61.3629 39.1042 60.3104 39.8075C59.2579 40.5107 58.4376 41.5102 57.9532 42.6797C57.4688 43.8491 57.3421 45.1359 57.5891 46.3774C57.836 47.6188 58.4455 48.7592 59.3406 49.6542C60.2356 50.5493 61.376 51.1588 62.6174 51.4058C63.8589 51.6527 65.1457 51.526 66.3152 51.0416C67.4846 50.5572 68.4841 49.7369 69.1874 48.6844C69.8906 47.632 70.2659 46.3946 70.2659 45.1288C70.2659 43.4314 69.5917 41.8036 68.3914 40.6034C67.1912 39.4031 65.5634 38.7289 63.866 38.7289ZM63.866 47.2621C63.4441 47.2621 63.0316 47.137 62.6808 46.9026C62.33 46.6682 62.0566 46.335 61.8951 45.9452C61.7336 45.5554 61.6914 45.1264 61.7737 44.7126C61.856 44.2988 62.0592 43.9187 62.3575 43.6203C62.6559 43.322 63.036 43.1188 63.4498 43.0365C63.8636 42.9542 64.2926 42.9964 64.6824 43.1579C65.0722 43.3193 65.4054 43.5928 65.6398 43.9436C65.8742 44.2944 65.9993 44.7069 65.9993 45.1288C65.9993 45.6946 65.7746 46.2372 65.3745 46.6373C64.9744 47.0374 64.4318 47.2621 63.866 47.2621Z" fill="black"/>
<path d="M87.3324 45.1288C87.3324 43.863 86.9571 42.6257 86.2538 41.5732C85.5506 40.5207 84.5511 39.7004 83.3816 39.216C82.2122 38.7316 80.9254 38.6049 79.6839 38.8518C78.4425 39.0988 77.3021 39.7083 76.4071 40.6034C75.512 41.4984 74.9025 42.6388 74.6555 43.8802C74.4086 45.1217 74.5353 46.4085 75.0197 47.578C75.5041 48.7474 76.3244 49.7469 77.3769 50.4502C78.4294 51.1534 79.6667 51.5287 80.9325 51.5287C82.6299 51.5287 84.2577 50.8545 85.4579 49.6542C86.6581 48.454 87.3324 46.8262 87.3324 45.1288ZM80.9325 47.2621C80.5106 47.2621 80.0981 47.137 79.7473 46.9026C79.3965 46.6682 79.123 46.335 78.9616 45.9452C78.8001 45.5554 78.7579 45.1264 78.8402 44.7126C78.9225 44.2988 79.1257 43.9187 79.424 43.6203C79.7224 43.322 80.1025 43.1188 80.5163 43.0365C80.9301 42.9542 81.3591 42.9964 81.7489 43.1579C82.1387 43.3194 82.4719 43.5928 82.7063 43.9436C82.9407 44.2944 83.0658 44.7069 83.0658 45.1288C83.0658 45.6946 82.841 46.2372 82.441 46.6373C82.0409 47.0374 81.4983 47.2621 80.9325 47.2621Z" fill="black"/>
<path d="M46.7995 38.7289C45.5337 38.7289 44.2964 39.1042 43.2439 39.8075C42.1915 40.5107 41.3712 41.5102 40.8868 42.6797C40.4024 43.8491 40.2756 45.1359 40.5226 46.3774C40.7695 47.6188 41.379 48.7592 42.2741 49.6542C43.1691 50.5493 44.3095 51.1588 45.551 51.4058C46.7924 51.6527 48.0792 51.526 49.2487 51.0416C50.4181 50.5572 51.4176 49.7369 52.1209 48.6844C52.8241 47.632 53.1995 46.3946 53.1995 45.1288C53.1995 43.4314 52.5252 41.8036 51.325 40.6034C50.1247 39.4031 48.4969 38.7289 46.7995 38.7289ZM46.7995 47.2621C46.3776 47.2621 45.9651 47.137 45.6143 46.9026C45.2635 46.6682 44.9901 46.335 44.8286 45.9452C44.6671 45.5554 44.6249 45.1264 44.7072 44.7126C44.7895 44.2988 44.9927 43.9187 45.291 43.6203C45.5894 43.322 45.9695 43.1188 46.3833 43.0365C46.7972 42.9542 47.2261 42.9964 47.6159 43.1579C48.0057 43.3193 48.3389 43.5928 48.5733 43.9436C48.8077 44.2944 48.9328 44.7069 48.9328 45.1288C48.9328 45.6946 48.7081 46.2372 48.308 46.6373C47.9079 47.0374 47.3653 47.2621 46.7995 47.2621Z" fill="black"/>
<path d="M22.2665 57.9287C21.7007 57.9287 21.158 58.1534 20.758 58.5535C20.3579 58.9536 20.1331 59.4962 20.1331 60.062V68.5952C20.1331 69.161 20.3579 69.7036 20.758 70.1037C21.158 70.5038 21.7007 70.7285 22.2665 70.7285C22.8322 70.7285 23.3749 70.5038 23.7749 70.1037C24.175 69.7036 24.3998 69.161 24.3998 68.5952V60.062C24.3998 59.4962 24.175 58.9536 23.7749 58.5535C23.3749 58.1534 22.8322 57.9287 22.2665 57.9287Z" fill="#00B0FB"/>
<path d="M23.3331 57.9287C22.7673 57.9287 22.2247 58.1534 21.8246 58.5535C21.4246 58.9536 21.1998 59.4962 21.1998 60.062V68.5952C21.1998 69.161 21.4246 69.7036 21.8246 70.1037C22.2247 70.5038 22.7673 70.7285 23.3331 70.7285C23.8989 70.7285 24.4415 70.5038 24.8416 70.1037C25.2417 69.7036 25.4664 69.161 25.4664 68.5952V60.062C25.4664 59.4962 25.2417 58.9536 24.8416 58.5535C24.4415 58.1534 23.8989 57.9287 23.3331 57.9287Z" fill="black"/>
<path d="M22.2665 79.2618C23.4446 79.2618 24.3998 78.3067 24.3998 77.1285C24.3998 75.9503 23.4446 74.9952 22.2665 74.9952C21.0883 74.9952 20.1331 75.9503 20.1331 77.1285C20.1331 78.3067 21.0883 79.2618 22.2665 79.2618Z" fill="#00B0FB"/>
<path d="M23.3331 79.2618C24.5113 79.2618 25.4664 78.3067 25.4664 77.1285C25.4664 75.9503 24.5113 74.9952 23.3331 74.9952C22.1549 74.9952 21.1998 75.9503 21.1998 77.1285C21.1998 78.3067 22.1549 79.2618 23.3331 79.2618Z" fill="black"/>
</svg>
