<?xml version="1.0" encoding="utf-8"?>
<!-- Generator: Adobe Illustrator 24.3.0, SVG Export Plug-In . SVG Version: 6.00 Build 0)  -->
<svg version="1.1" id="Layer_1" xmlns="http://www.w3.org/2000/svg" xmlns:xlink="http://www.w3.org/1999/xlink" x="0px" y="0px"
	 viewBox="0 0 7405.2 2232.2" style="enable-background:new 0 0 7405.2 2232.2;" xml:space="preserve">
<style type="text/css">
	.st0{fill:#FFFFFF;}
</style>
<g>
	<g>
		<path class="st0" d="M0.2,1080.9c3.2-179.1,51.6-346.2,138-502.9c23.8-43.2,46.5-99.3,113.1-70.8c70.9,30.3,38.3,83.3,15.2,125.8
			c-162,298.8-162.7,599.3-15,902.7c22.4,46,49.9,105-6.1,133.7c-69.9,35.9-100.1-30.9-125.1-80.8C40.1,1429-3.2,1260.2,0.2,1080.9z
			"/>
	</g>
	<g>
		<path class="st0" d="M3233.9,695.5h179.9v823.2h-122.3V928.4l-89.4,590.4h-122.3l-96.4-582.1v582.1h-112.9V695.5h179.9l95.3,584.5
			L3233.9,695.5z"/>
		<path class="st0" d="M3861.8,1042.4V1160h-177.6v241.1h223.4v117.6h-352.8V695.5h352.8v117.6h-223.4v229.3H3861.8z"/>
		<path class="st0" d="M4239.3,695.5c64.3,0,112.5,17.3,144.7,51.7c32.1,34.5,48.2,85.1,48.2,151.7v416.3
			c0,66.6-16.1,117.2-48.2,151.7c-32.2,34.5-80.4,51.7-144.7,51.7h-204.6V695.5H4239.3z M4164.1,1401.1h72.9
			c21.2,0,37.4-6.3,48.8-18.8c11.4-12.5,17.1-32.9,17.1-61.2V893.1c0-28.2-5.7-48.6-17.1-61.2c-11.4-12.5-27.6-18.8-48.8-18.8h-72.9
			V1401.1z"/>
		<path class="st0" d="M4690.9,695.5v823.2h-129.4V695.5H4690.9z"/>
		<path class="st0" d="M5120.2,1518.7l-22.3-149.4h-158.8l-22.3,149.4h-118.8l131.7-823.2H5119l131.7,823.2H5120.2z M5080.2,1257.7
			l-62.3-416.3l-62.3,416.3H5080.2z"/>
		<path class="st0" d="M5883.4,1061.3v117.6h-167v339.9H5587V695.5h342.2v117.6h-212.9v248.1H5883.4z"/>
		<path class="st0" d="M6168,695.5v705.6h212.9v117.6h-342.2V695.5H6168z"/>
		<path class="st0" d="M6791.3,1042.4V1160h-177.6v241.1h223.4v117.6h-352.8V695.5h352.8v117.6h-223.4v229.3H6791.3z"/>
		<path class="st0" d="M7260.5,1095.4l144.7,423.4h-136.4L7162.9,1193l-107,325.8h-121.1l144.7-423.4l-135.2-399.8h134.1l97.6,303.4
			l100-303.4h120L7260.5,1095.4z"/>
	</g>
	<path class="st0" d="M973.4,4c171.6-15.1,882.5-27.4,1190.4,752.3c16.4,41.6-12.1,88-56.7,90.8c-1.1,0.1-2.3,0.1-3.5,0.2
		c-46.8,1.3-88.8-28.7-104.3-72.9c-57.5-163.8-298-681.4-1022.2-604.1c-43.1,4.6-82.8-26-87.8-69.1c-1.3-11.6-0.2-24.1,4.6-37.4
		C906.3,30.1,937.7,7.1,973.4,4z"/>
	<path class="st0" d="M2134.3,1568.6c-73.9,155.7-422.9,775.1-1251.2,646c-44.2-6.9-69.8-54.9-49.6-94.8c0.5-1,1.1-2,1.6-3.1
		c22.5-41,69.7-62,115.6-53.1c170.4,33.3,738.5,87.8,1038.3-576c17.8-39.5,64.4-58.3,104-40.8c10.6,4.7,20.9,12,29.9,22.9
		C2145.8,1497.5,2149.7,1536.2,2134.3,1568.6z"/>
	<circle class="st0" cx="2164.5" cy="1129.7" r="116.3"/>
	<path class="st0" d="M956,1630.2c8.4,31,20.6,60.9,36.9,88.5c166.3,282.3,434-171.9,434-171.9l242.9-553.6
		c2.9-6.6,9.6-11.1,16.8-10.7c8,0.5,16.5,6.7,16.5,30.9l-0.8,230.7c-0.4,64.1,36.4,123.1,94.9,149.2
		c103.4,46.1,134.3-71.6,134.3-71.6v-298.4c0-108.1-57.3-208.9-151.5-261.9c-136.3-76.8-223.2,14.3-223.2,14.3l-182.6,410.5
		c-34,76.3-63.3,154.8-85.5,235.3c-0.4,1.6-0.9,3.1-1.3,4.7c-27.7,92.7-161.1,87.3-182.4-7.1L900.4,511.7
		c-23.3-103.3-71-199.8-140.1-280C676.9,135,616.5,123.5,616.5,123.5c-98.2-44.9-148.3-1.9-172.9,41c-14.7,25.6-21.9,54.9-21.9,84.5
		v1767.6c0,122.4,115.8,126.1,115.8,126.1c93.2,11.3,80-126.1,80-126.1l3.7-1609.8c0-10.6,2.2-21.2,7-30.7
		c5.2-10.4,13.8-20.6,27.8-20.8c12.7-0.2,23.9,8.5,27.8,20.7c3.4,10.7,8,29.1,12.8,60.2L956,1630.2z"/>
</g>
</svg>
