<?xml version="1.0" encoding="utf-8"?>
<!-- Generator: Adobe Illustrator 24.3.0, SVG Export Plug-In . SVG Version: 6.00 Build 0)  -->
<svg version="1.1" id="Layer_1" xmlns="http://www.w3.org/2000/svg" xmlns:xlink="http://www.w3.org/1999/xlink" x="0px" y="0px"
	 width="5301.2px" height="1594px" viewBox="0 0 5301.2 1594" style="enable-background:new 0 0 5301.2 1594;" xml:space="preserve"
	>
<style type="text/css">
	.st0{fill:#FFFFFF;}
	.st1{fill:#D21C3F;}
	.st2{fill:#D18524;}
	.st3{fill:#FD8C2C;}
	.st4{fill:#FDC077;}
	.st5{fill:#F0708B;}
</style>
<g>
	<g>
		<g>
			<path class="st0" d="M2046,290.8h487.1v120.8h-177v534.9h-134V411.6H2046V290.8z"/>
			<path class="st0" d="M2665.2,843c11.2,15.3,29.3,23,54.3,23c17.5,0,32.6-3.6,45.4-10.8c12.8-7.2,22.8-17.3,30-30.4
				c7.2-13.1,10.8-28.7,10.8-46.8V515.6h120.8v430.9h-120.8v-65.6c-13.7,24.4-31.2,42.9-52.5,55.7c-21.2,12.8-47.2,19.2-77.8,19.2
				c-51.2,0-89.5-14.7-114.7-44c-25.3-29.3-37.9-69.6-37.9-120.8V515.6h125.5v262.3C2648.4,806,2654,827.7,2665.2,843z"/>
			<path class="st0" d="M3165.4,946.5h-119V515.6h119V946.5z M3267.1,624.7c-8.4-4.1-18.9-6.1-31.4-6.1c-15,0-27.8,4.1-38.4,12.2
				c-10.6,8.1-18.6,19.5-23.9,34.2c-5.3,14.7-8,32.3-8,52.9l-33.7-33.7c0-34.3,6.6-64.8,19.7-91.3c13.1-26.5,30.3-47.8,51.5-63.7
				c21.2-15.9,43.1-23.9,65.6-23.9c15.6,0,30.4,2.8,44.5,8.4c14.1,5.6,25.4,14,34.2,25.3l-55.3,103
				C3283.8,634.5,3275.5,628.8,3267.1,624.7z"/>
			<path class="st0" d="M3554.2,843c11.2,15.3,29.3,23,54.3,23c17.5,0,32.6-3.6,45.4-10.8c12.8-7.2,22.8-17.3,30-30.4
				c7.2-13.1,10.8-28.7,10.8-46.8V515.6h120.8v430.9h-120.8v-65.6c-13.7,24.4-31.2,42.9-52.5,55.7c-21.2,12.8-47.2,19.2-77.8,19.2
				c-51.2,0-89.5-14.7-114.7-44c-25.3-29.3-37.9-69.6-37.9-120.8V515.6h125.5v262.3C3537.3,806,3543,827.7,3554.2,843z"/>
			<path class="st0" d="M4080.6,290.8v538.6H4342v117.1h-395.3V290.8H4080.6z"/>
			<path class="st0" d="M4503.1,844.8c6.2,9.1,14.8,15.9,25.8,20.6c10.9,4.7,23,7,36.1,7c18.7,0,35.6-3.9,50.6-11.7
				c15-7.8,27.2-19,36.5-33.7c9.4-14.7,14.1-32.3,14.1-52.9l15,56.2c0,27.5-7.7,50.6-23,69.3c-15.3,18.7-35,32.8-59,42.2
				c-24,9.4-49.2,14.1-75.4,14.1c-26.9,0-51.8-5.3-74.9-15.9c-23.1-10.6-41.7-26.1-55.7-46.4c-14.1-20.3-21.1-45.1-21.1-74.5
				c0-41.8,14.7-74.9,44-99.3c29.3-24.4,70.9-36.5,124.6-36.5c27.5,0,51.7,2.8,72.6,8.4c20.9,5.6,38.6,12.5,52.9,20.6
				c14.4,8.1,24.7,15.9,30.9,23.4v56.2c-16.9-12.5-35.8-21.9-56.7-28.1c-20.9-6.2-42.9-9.4-66-9.4c-18.7,0-34,2.3-45.9,7
				c-11.9,4.7-20.6,11.2-26.2,19.7c-5.6,8.4-8.4,18.9-8.4,31.4C4493.7,825,4496.9,835.8,4503.1,844.8z M4401.9,554.9
				c22.5-11.9,50-23.3,82.4-34.2c32.5-10.9,68.7-16.4,108.7-16.4c36.8,0,69.6,5.3,98.4,15.9c28.7,10.6,51.2,26.1,67.4,46.4
				c16.2,20.3,24.4,45.1,24.4,74.5v305.4h-117.1V666.4c0-11.9-1.9-22-5.6-30.4c-3.7-8.4-9.5-15.5-17.3-21.1
				c-7.8-5.6-17-9.7-27.6-12.2c-10.6-2.5-22.5-3.7-35.6-3.7c-20,0-39,2.2-57.1,6.6c-18.1,4.4-33.7,9.7-46.8,15.9
				c-13.1,6.2-22.8,11.6-29,15.9L4401.9,554.9z"/>
			<path class="st0" d="M4959.3,515.6l105.9,259.5L5171,515.6h130.2l-236.1,475.9l-236.1-475.9H4959.3z"/>
		</g>
		<g>
			<path class="st0" d="M2060.4,1206.5h24.2c5,0,9.5-0.9,13.5-2.6c4-1.7,7.1-4.2,9.4-7.5c2.3-3.3,3.4-7.3,3.4-12
				c0-7.1-2.5-12.7-7.5-16.6c-5-3.9-11.3-5.9-18.8-5.9h-20.3v117.7h22.5c6.4,0,12.1-1.1,17-3.4c4.9-2.3,8.8-5.6,11.6-9.8
				c2.8-4.3,4.2-9.5,4.2-15.6c0-4.6-0.8-8.6-2.4-12.2c-1.6-3.6-3.8-6.6-6.7-9c-2.9-2.4-6.4-4.2-10.4-5.5c-4-1.2-8.4-1.8-13.3-1.8
				h-26.3v-10.1h26.3c7.3,0,14,0.8,20.1,2.4c6.1,1.6,11.5,4,16.2,7.2c4.6,3.2,8.2,7.3,10.8,12.3c2.6,5,3.9,10.9,3.9,17.8
				c0,9.8-2.2,18-6.7,24.5c-4.5,6.5-10.6,11.3-18.2,14.6c-7.6,3.2-16.3,4.8-26,4.8H2046v-149.8h38.5c9,0,16.8,1.4,23.4,4.1
				c6.6,2.7,11.8,6.8,15.5,12.3c3.7,5.5,5.6,12.5,5.6,21.1c0,7-1.9,13-5.6,18c-3.7,5-8.9,8.8-15.5,11.3s-14.4,3.9-23.4,3.9h-24.2
				V1206.5z"/>
			<path class="st0" d="M2213.6,1145.9v149.8h-18.2v-149.8H2213.6z M2205.5,1145.9h75.6v17.1h-75.6V1145.9z M2205.5,1205.9h71.3
				v17.1h-71.3V1205.9z M2205.5,1278.7h75.6v17.1h-75.6V1278.7z"/>
			<path class="st0" d="M2359.5,1266.2c3.8,4.6,8,8.1,12.7,10.7c4.7,2.6,10.1,3.9,16.1,3.9c8,0,14.4-2.2,19.3-6.6
				c4.9-4.4,7.3-10.1,7.3-16.9c0-6.7-1.6-12.1-4.7-16.1c-3.1-4-7.2-7.2-12.3-9.7c-5.1-2.5-10.5-4.7-16.2-6.7c-3.7-1.3-7.8-3-12.4-5
				c-4.6-2.1-8.9-4.7-13.1-7.9c-4.1-3.2-7.5-7.2-10.2-11.9c-2.6-4.7-4-10.5-4-17.3c0-7.4,1.9-14.1,5.6-19.9
				c3.7-5.9,8.8-10.5,15.4-13.8c6.6-3.4,14.1-5,22.5-5c8.1,0,15.2,1.5,21.3,4.6c6.1,3.1,11.2,7,15.5,11.8c4.3,4.8,7.6,9.8,10.1,15.1
				l-15.6,9c-1.9-3.7-4.2-7.3-7.1-10.9c-2.9-3.6-6.3-6.5-10.4-8.8c-4.1-2.3-9-3.4-14.9-3.4c-8.1,0-14.1,2-17.8,5.9
				c-3.7,3.9-5.6,8.3-5.6,13.2c0,4.1,1.1,8,3.2,11.5c2.1,3.5,5.7,6.8,10.8,9.8c5.1,3.1,12,6.1,20.7,9.1c4,1.4,8.2,3.3,12.6,5.6
				c4.4,2.3,8.5,5.2,12.3,8.7c3.8,3.5,6.9,7.7,9.3,12.6c2.4,4.9,3.6,10.8,3.6,17.7c0,6.6-1.3,12.5-3.7,17.8
				c-2.5,5.3-5.9,9.8-10.3,13.5c-4.4,3.7-9.3,6.6-14.8,8.6c-5.5,2-11.2,3-17.2,3c-8.1,0-15.7-1.7-22.6-5.2
				c-6.9-3.5-13-8.1-18.2-13.9c-5.2-5.8-9.5-12-12.7-18.5l14.6-9.8C2352.1,1256.4,2355.7,1261.7,2359.5,1266.2z"/>
			<path class="st0" d="M2475.4,1145.9h95.3v17.1h-38.5v132.7H2514v-132.7h-38.5V1145.9z"/>
			<path class="st0" d="M2732.3,1145.9v149.8h-18.2v-149.8H2732.3z M2724.2,1145.9h67v17.1h-67V1145.9z M2724.2,1205.9h64.9v17.1
				h-64.9V1205.9z"/>
			<path class="st0" d="M2848.2,1190.4c3.8-9.3,9.1-17.5,15.9-24.4c6.8-6.9,14.9-12.3,24.2-16.3c9.3-3.9,19.3-5.9,30.2-5.9
				c11,0,21.1,2,30.3,5.9c9.2,3.9,17.2,9.3,24.1,16.3c6.9,6.9,12.2,15.1,15.9,24.4c3.8,9.3,5.7,19.5,5.7,30.5
				c0,10.8-1.9,21-5.7,30.4c-3.8,9.4-9.1,17.6-15.9,24.5c-6.8,6.9-14.9,12.3-24.1,16.3c-9.2,3.9-19.3,5.9-30.3,5.9
				c-10.8,0-20.9-2-30.2-5.9c-9.3-3.9-17.3-9.3-24.2-16.3c-6.8-6.9-12.2-15.1-15.9-24.5c-3.8-9.4-5.7-19.5-5.7-30.4
				C2842.5,1209.9,2844.4,1199.7,2848.2,1190.4z M2869.2,1251c4.9,8.8,11.7,15.8,20.2,21c8.6,5.1,18.3,7.7,29.1,7.7
				c11,0,20.7-2.6,29.2-7.7c8.5-5.1,15.2-12.1,20.1-21c4.9-8.8,7.4-18.9,7.4-30.2c0-11.3-2.5-21.3-7.4-30.2
				c-4.9-8.8-11.6-15.8-20.1-21c-8.5-5.1-18.2-7.7-29.2-7.7c-10.8,0-20.6,2.6-29.1,7.7c-8.6,5.1-15.3,12.1-20.2,21
				c-4.9,8.8-7.4,18.9-7.4,30.2C2861.8,1232.1,2864.3,1242.2,2869.2,1251z"/>
			<path class="st0" d="M3068.4,1145.9v149.8h-18.2v-149.8H3068.4z M3060.2,1145.9h30.6c9.7,0,18.4,1.8,26,5.5
				c7.6,3.6,13.7,8.8,18.2,15.5c4.5,6.7,6.7,14.7,6.7,24c0,9.1-2.2,17.1-6.7,23.9c-4.5,6.8-10.6,12-18.2,15.6
				c-7.6,3.6-16.3,5.5-26,5.5h-30.6v-16.1h30.6c6.4,0,12.1-1.1,17-3.4c4.9-2.3,8.8-5.6,11.6-9.8c2.8-4.3,4.2-9.5,4.2-15.6
				c0-6.1-1.4-11.3-4.2-15.6c-2.8-4.3-6.6-7.6-11.6-9.8c-4.9-2.3-10.6-3.4-17-3.4h-30.6V1145.9z M3097.3,1221.9l53.5,73.9h-22.5
				l-51.4-73.9H3097.3z"/>
			<path class="st0" d="M3312.4,1145.9v149.8h-18.2v-149.8H3312.4z M3304.3,1295.8v-18.2h34.9c8.4,0,16.1-1.3,23.1-4
				c7-2.6,13-6.4,18-11.3c5-4.9,8.8-10.9,11.6-17.9c2.7-7,4.1-14.8,4.1-23.5c0-8.7-1.4-16.6-4.1-23.5c-2.7-7-6.6-13-11.6-17.9
				c-5-4.9-11-8.7-18-11.3c-7-2.6-14.7-4-23.1-4h-34.9v-18.2h34.9c14.6,0,27.5,3.1,38.7,9.4c11.3,6.3,20.1,15,26.5,26.2
				c6.4,11.2,9.6,24.3,9.6,39.3s-3.2,28.1-9.6,39.3c-6.4,11.2-15.3,19.9-26.5,26.2c-11.3,6.3-24.2,9.4-38.7,9.4H3304.3z"/>
			<path class="st0" d="M3491.6,1239.3l-1.7,3.9l-22.3,52.7h-20.3l69.6-157.3l69.6,157.3h-20.3l-21.8-51.4l-1.7-4.3l-25.7-60.4
				L3491.6,1239.3z M3484.1,1233.7h66.4l6.4,17.1h-79.2L3484.1,1233.7z"/>
			<path class="st0" d="M3604.6,1145.9h95.3v17.1h-38.5v132.7h-18.2v-132.7h-38.5V1145.9z"/>
			<path class="st0" d="M3767.3,1145.9v149.8h-18.2v-149.8H3767.3z"/>
			<path class="st0" d="M3963.1,1145.9v157.3l-113.5-119v111.5h-18.2v-157.3l113.5,119v-111.5H3963.1z"/>
			<path class="st0" d="M4096.9,1219.8h69.6c0,10.4-1.6,20.3-4.7,29.6c-3.1,9.3-7.8,17.7-13.9,24.9c-6.1,7.3-13.7,13-22.6,17.2
				c-8.9,4.2-19.1,6.3-30.5,6.3c-10.8,0-20.9-1.9-30.2-5.7c-9.3-3.8-17.3-9.1-24.2-16.1c-6.8-6.9-12.2-15.1-15.9-24.5
				c-3.8-9.4-5.7-19.7-5.7-30.8c0-11.1,1.9-21.4,5.7-30.8c3.8-9.4,9.1-17.6,15.9-24.5c6.8-6.9,14.9-12.3,24.2-16.1
				c9.3-3.8,19.3-5.7,30.2-5.7c9.3,0,17.8,1.2,25.6,3.6c7.8,2.4,14.8,6,21,10.7c6.2,4.7,11.5,10.6,15.7,17.6l-12.8,11.8
				c-4.7-8-11.3-14.2-19.7-18.7c-8.4-4.5-18.3-6.7-29.8-6.7c-10.6,0-20.1,2.5-28.7,7.5c-8.6,5-15.4,11.9-20.4,20.7
				c-5.1,8.8-7.6,19-7.6,30.7c0,11.6,2.5,21.8,7.6,30.6c5.1,8.8,11.9,15.8,20.4,20.8c8.6,5,18.1,7.5,28.7,7.5c7.4,0,14.1-1.1,20-3.3
				c5.9-2.2,11-5.3,15.3-9.3c4.3-4,7.8-8.6,10.6-13.7c2.8-5.1,4.8-10.6,6.1-16.5h-49.9V1219.8z"/>
			<path class="st0" d="M4489.7,1145.9h20.3l-58.9,157.3l-45-116.4l-45,116.4l-58.9-157.3h20.3l39.8,110.2l43.7-117.7l44.5,117.7
				L4489.7,1145.9z"/>
			<path class="st0" d="M4577.5,1145.9v149.8h-18.2v-149.8H4577.5z M4569.4,1145.9h75.6v17.1h-75.6V1145.9z M4569.4,1205.9h71.3
				v17.1h-71.3V1205.9z M4569.4,1278.7h75.6v17.1h-75.6V1278.7z"/>
			<path class="st0" d="M4721.3,1206.5h24.2c5,0,9.5-0.9,13.5-2.6c4-1.7,7.1-4.2,9.4-7.5c2.3-3.3,3.4-7.3,3.4-12
				c0-7.1-2.5-12.7-7.5-16.6c-5-3.9-11.3-5.9-18.8-5.9h-20.3v117.7h22.5c6.4,0,12.1-1.1,17-3.4c4.9-2.3,8.8-5.6,11.6-9.8
				c2.8-4.3,4.2-9.5,4.2-15.6c0-4.6-0.8-8.6-2.4-12.2c-1.6-3.6-3.8-6.6-6.7-9c-2.9-2.4-6.4-4.2-10.4-5.5c-4-1.2-8.4-1.8-13.3-1.8
				h-26.3v-10.1h26.3c7.3,0,14,0.8,20.1,2.4c6.1,1.6,11.5,4,16.2,7.2c4.6,3.2,8.2,7.3,10.8,12.3c2.6,5,3.9,10.9,3.9,17.8
				c0,9.8-2.2,18-6.7,24.5c-4.5,6.5-10.6,11.3-18.2,14.6c-7.6,3.2-16.3,4.8-26,4.8H4707v-149.8h38.5c9,0,16.8,1.4,23.4,4.1
				c6.6,2.7,11.8,6.8,15.5,12.3c3.7,5.5,5.6,12.5,5.6,21.1c0,7-1.9,13-5.6,18c-3.7,5-8.9,8.8-15.5,11.3c-6.6,2.6-14.5,3.9-23.4,3.9
				h-24.2V1206.5z"/>
			<path class="st0" d="M4872.8,1266.2c3.8,4.6,8,8.1,12.7,10.7c4.7,2.6,10.1,3.9,16.1,3.9c8,0,14.4-2.2,19.3-6.6
				c4.9-4.4,7.3-10.1,7.3-16.9c0-6.7-1.6-12.1-4.7-16.1c-3.1-4-7.2-7.2-12.3-9.7c-5.1-2.5-10.5-4.7-16.2-6.7c-3.7-1.3-7.8-3-12.4-5
				c-4.6-2.1-8.9-4.7-13.1-7.9c-4.1-3.2-7.5-7.2-10.2-11.9c-2.6-4.7-4-10.5-4-17.3c0-7.4,1.9-14.1,5.6-19.9
				c3.7-5.9,8.8-10.5,15.4-13.8c6.6-3.4,14.1-5,22.5-5c8.1,0,15.2,1.5,21.3,4.6c6.1,3.1,11.2,7,15.5,11.8c4.3,4.8,7.6,9.8,10.1,15.1
				l-15.6,9c-1.9-3.7-4.2-7.3-7.1-10.9c-2.9-3.6-6.3-6.5-10.4-8.8c-4.1-2.3-9-3.4-14.9-3.4c-8.1,0-14.1,2-17.8,5.9
				c-3.7,3.9-5.6,8.3-5.6,13.2c0,4.1,1.1,8,3.2,11.5c2.1,3.5,5.7,6.8,10.8,9.8c5.1,3.1,12,6.1,20.7,9.1c4,1.4,8.2,3.3,12.6,5.6
				c4.4,2.3,8.5,5.2,12.3,8.7c3.8,3.5,6.9,7.7,9.3,12.6c2.4,4.9,3.6,10.8,3.6,17.7c0,6.6-1.3,12.5-3.7,17.8
				c-2.5,5.3-5.9,9.8-10.3,13.5c-4.4,3.7-9.3,6.6-14.8,8.6c-5.5,2-11.2,3-17.2,3c-8.1,0-15.7-1.7-22.6-5.2
				c-6.9-3.5-13-8.1-18.2-13.9c-5.2-5.8-9.5-12-12.7-18.5l14.6-9.8C4865.4,1256.4,4869,1261.7,4872.8,1266.2z"/>
			<path class="st0" d="M5021.9,1145.9v149.8h-18.2v-149.8H5021.9z"/>
			<path class="st0" d="M5071.1,1145.9h95.3v17.1h-38.5v132.7h-18.2v-132.7h-38.5V1145.9z"/>
			<path class="st0" d="M5233.8,1145.9v149.8h-18.2v-149.8H5233.8z M5225.7,1145.9h75.6v17.1h-75.6V1145.9z M5225.7,1205.9h71.3
				v17.1h-71.3V1205.9z M5225.7,1278.7h75.6v17.1h-75.6V1278.7z"/>
		</g>
	</g>
	<g>
		<path class="st1" d="M402,134.1c0,0,162.6,205.1,446.7,315.4c0,0,533.1,256.5,264,1038.7c0,0,597.1-281.8,635-874.7
			c0,0,12.6-582-504.6-543.3c0,0-157-7.6-294.4,166.3C948.6,236.4,687.9-32.8,402,134.1z"/>
		<path class="st2" d="M1075.1,992.4c4.3,28.2,50.7,360.5-123.7,564.4c0,0-471-49.1-704.4-401.1c0,0-0.1-0.1-0.1-0.1
			c-5.7-8.6-11.2-17.4-16.6-26.3c-3.6-6-7.1-12-10.6-18.2c0,0,266.3,50.5,305.6,11.2c0,0-555.1-241.1-483.6-597.1
			c0,0,1.2,0.7,3.5,2.1c0.5,0.3,1,0.6,1.5,0.9c0.1,0,0.1,0.1,0.2,0.1c0.6,0.4,1.2,0.7,1.9,1.1c2.5,1.5,5.6,3.2,9.2,5.4
			c65.3,38.2,307.2,176.7,357.9,167c58.9-11.2-336.4-195.1-246.7-631.6c0,0,225.5,217.2,473.2,353.3C394.1,285.2,147.5,0,147.5,0
			l-13,63c-30.1,146.5-11.6,283.6,54.9,407.6c35.4,65.9,78.8,118,116.9,157.6c-24.3-11.5-53.9-26.4-90.1-45.6
			c-81.6-43.4-155.6-87.4-156.3-87.8l-43-25.6L7,518.2c-32,159.3,46.7,320.7,227.5,466.6c59.6,48.1,120.6,86.9,170.2,115.3
			c-82.2-5.7-177.1-23.6-178.3-23.8l-74.9-14.2l37.5,66.4c94.5,167.6,255.9,300.9,466.5,385.5c158,63.5,286.9,77.5,292.4,78.1
			l18.5,1.9C1141.1,1389.7,1080.4,1022,1075.1,992.4z M1075.1,992.4c-0.1-0.6-0.2-1.1-0.2-1.4C1075,991.3,1075,991.8,1075.1,992.4z"
			/>
		<path class="st3" d="M966.3,1594c0,0-484.9-83.5-719.3-438.3c0,0-0.1-0.1-0.1-0.1c-5.7-8.6-11.2-17.4-16.6-26.3
			c-3.6-6-7.1-12-10.6-18.2c0,0,266.3,50.5,305.6,11.2c0,0-555.1-241.1-483.6-597.1c0,0,1.2,0.7,3.5,2.1c0.5,0.3,1,0.6,1.5,0.9
			c0.1,0,0.1,0.1,0.2,0.1c0.6,0.4,1.2,0.7,1.9,1.1c2.5,1.5,5.6,3.2,9.2,5.4c58.1,33.8,254.7,145,304.7,135.5
			C421.6,659,57.8,436.5,147.5,0c0,0,246.5,285.2,494.9,423.4c3.9,2.2,7.9,4.3,11.8,6.4c0,0,373.8,191.6,420.5,560.7
			c0,0,0,0.2,0.1,0.5c0,0.3,0.1,0.8,0.2,1.4C1080.4,1022,1141.1,1389.7,966.3,1594z"/>
		<path class="st4" d="M587,488.7c0,0,372.9,386.9,414.9,605.6C1001.9,1094.3,1083.2,648.5,587,488.7z"/>
		<path class="st5" d="M1203.8,157.9l459.8,378.5C1663.5,536.4,1646.7,73.8,1203.8,157.9z"/>
	</g>
</g>
</svg>
