<?xml version="1.0" encoding="utf-8"?>
<!-- Generator: Adobe Illustrator 24.3.0, SVG Export Plug-In . SVG Version: 6.00 Build 0)  -->
<svg version="1.1" id="Layer_1" xmlns="http://www.w3.org/2000/svg" xmlns:xlink="http://www.w3.org/1999/xlink" x="0px" y="0px"
	 width="5301.2px" height="1594px" viewBox="0 0 5301.2 1594" style="enable-background:new 0 0 5301.2 1594;" xml:space="preserve"
	>
<style type="text/css">
	.st0{fill:#FFFFFF;}
</style>
<g>
	<g>
		<g>
			<path class="st0" d="M2028.4,290.8v120.8h176.1v534.9h133.9V411.6h177.1V290.8H2028.4z"/>
			<path class="st0" d="M2788.1,515.6v262.3c0,18.1-3.6,33.7-10.8,46.8c-7.2,13.1-17.2,23.3-30,30.5c-12.8,7.2-28,10.8-45.4,10.8
				c-25,0-43.1-7.6-54.3-22.9c-11.2-15.3-16.9-37-16.9-65.1V515.6h-125.5V791c0,51.2,12.6,91.5,37.9,120.8
				c25.3,29.4,63.5,44,114.8,44c30.6,0,56.5-6.4,77.8-19.2c21.2-12.8,38.7-31.4,52.4-55.7v65.6h120.8V515.6H2788.1z"/>
			<path class="st0" d="M3295.3,513.7c-14.1-5.6-28.9-8.4-44.5-8.4c-22.5,0-44.4,8-65.6,23.9c-14.3,10.8-26.8,23.9-37.5,39.5
				c-5.1,7.5-9.8,15.5-14.1,24.2c-13.1,26.5-19.7,57-19.7,91.3l33.7,33.7c0-20.6,2.6-38.2,8-52.9c5.3-14.7,13.3-26.1,23.9-34.2
				c10.6-8.1,23.4-12.2,38.4-12.2c12.5,0,22.9,2,31.4,6.1c8.4,4.1,16.7,9.8,24.8,17.3l55.3-103
				C3320.7,527.8,3309.3,519.3,3295.3,513.7z M3028.8,515.6v430.9h119V515.6H3028.8z"/>
			<path class="st0" d="M3677,515.6v262.3c0,18.1-3.6,33.7-10.8,46.8c-7.2,13.1-17.2,23.3-30,30.5c-12.8,7.2-28,10.8-45.4,10.8
				c-25,0-43.1-7.6-54.3-22.9c-11.2-15.3-16.9-37-16.9-65.1V515.6h-125.5V791c0,51.2,12.6,91.5,37.9,120.8
				c25.3,29.4,63.5,44,114.7,44c30.6,0,56.5-6.4,77.8-19.2c21.2-12.8,38.7-31.4,52.4-55.7v65.6h120.8V515.6H3677z"/>
			<path class="st0" d="M4063,829.4V290.8h-134v655.7h395.3V829.4H4063z"/>
			<path class="st0" d="M4741.2,566.6c-16.2-20.3-38.7-35.7-67.4-46.4c-28.7-10.6-61.5-15.9-98.4-15.9c-40,0-76.2,5.5-108.7,16.4
				c-32.5,10.9-60,22.3-82.4,34.2l45,82.4c6.2-4.4,15.9-9.7,29-15.9c13.1-6.2,28.7-11.5,46.8-15.9c18.1-4.4,37.1-6.6,57.1-6.6
				c13.1,0,25,1.3,35.6,3.8c10.6,2.5,19.8,6.5,27.6,12.2c7.8,5.6,13.6,12.7,17.3,21.1s5.6,18.6,5.6,30.4v280.1h117.1V641.1
				C4765.5,611.8,4757.4,586.9,4741.2,566.6z M4510.7,761.5c11.9-4.7,27.2-7,45.9-7c23.1,0,45.1,3.1,66,9.4c9,2.7,17.6,5.9,25.8,9.8
				c11,5.1,21.3,11.2,30.9,18.3v-56.2c-6.2-7.5-16.5-15.3-30.9-23.4c-14.4-8.1-32-15-52.9-20.6c-20.9-5.6-45.1-8.4-72.6-8.4
				c-53.7,0-95.2,12.2-124.6,36.5c-29.4,24.4-44,57.5-44,99.3c0,29.4,7,54.2,21.1,74.5c14,20.3,32.6,35.8,55.7,46.4
				c23.1,10.6,48.1,15.9,74.9,15.9c26.2,0,51.4-4.7,75.4-14c24-9.4,43.7-23.4,59-42.2c2.9-3.6,5.6-7.4,8-11.3c10-16.5,15-35.8,15-58
				l-15-56.2c0,20.6-4.7,38.3-14.1,52.9c-9.4,14.7-21.5,25.9-36.5,33.7c-15,7.8-31.8,11.7-50.6,11.7c-13.1,0-25.1-2.3-36.1-7
				c-10.9-4.7-19.5-11.5-25.8-20.6c-6.3-9-9.4-19.8-9.4-32.3c0-12.5,2.8-23,8.4-31.4C4490.1,772.7,4498.8,766.2,4510.7,761.5z"/>
			<path class="st0" d="M5153.3,515.6l-105.8,259.5l-105.9-259.5h-130.2l236.1,475.9l236.1-475.9H5153.3z"/>
		</g>
		<g>
			<path class="st0" d="M2116.1,1234.1c-2.6-5-6.2-9.1-10.8-12.3c-4.6-3.2-10-5.6-16.2-7.2c-0.9-0.2-1.8-0.4-2.7-0.6
				c1.3-0.4,2.6-0.8,3.9-1.3c6.6-2.6,11.8-6.3,15.5-11.3c3.7-5,5.6-11,5.6-18c0-8.6-1.9-15.6-5.6-21.1c-3.7-5.5-8.9-9.6-15.5-12.3
				c-6.6-2.7-14.5-4.1-23.4-4.1h-38.5v149.8h40.7c9.7,0,18.4-1.6,26-4.8c7.6-3.2,13.7-8.1,18.2-14.6c4.5-6.5,6.7-14.7,6.7-24.5
				C2120,1245.1,2118.7,1239.1,2116.1,1234.1z M2046.5,1162h20.3c7.6,0,13.8,2,18.8,5.9c5,3.9,7.5,9.4,7.5,16.6
				c0,4.7-1.1,8.7-3.4,12c-2.3,3.3-5.4,5.8-9.4,7.5c-4,1.7-8.5,2.6-13.5,2.6h-20.3V1162z M2097.6,1266.5c-2.8,4.3-6.6,7.6-11.6,9.8
				c-4.9,2.3-10.6,3.4-17,3.4h-22.5v-57.4h22.5c4.8,0,9.3,0.6,13.3,1.8c4,1.2,7.5,3,10.4,5.5c2.9,2.4,5.2,5.4,6.7,9
				c1.6,3.6,2.4,7.6,2.4,12.2C2101.8,1257,2100.4,1262.2,2097.6,1266.5z"/>
			<path class="st0" d="M2187.8,1278.7v17.1h75.6v-17.1H2187.8z M2187.8,1205.9v17.1h71.3v-17.1H2187.8z M2187.8,1145.9v17.1h75.6
				v-17.1H2187.8z M2177.8,1145.9v149.8h18.2v-149.8H2177.8z"/>
			<path class="st0" d="M2412.4,1237.5c-2.4-4.9-5.5-9.1-9.3-12.6s-7.9-6.4-12.3-8.7c-4.4-2.3-8.6-4.1-12.6-5.6
				c-8.7-3-15.6-6-20.7-9.1c-5.1-3.1-8.7-6.3-10.8-9.8c-2.1-3.5-3.2-7.3-3.2-11.5c0-4.8,1.9-9.2,5.6-13.2c3.7-3.9,9.6-5.9,17.8-5.9
				c5.8,0,10.8,1.1,14.9,3.4c4.1,2.3,7.5,5.2,10.4,8.8c2.9,3.6,5.2,7.2,7.1,10.9l15.6-9c-2.4-5.3-5.8-10.3-10.1-15.1
				c-4.3-4.8-9.4-8.7-15.5-11.8c-6.1-3.1-13.2-4.6-21.3-4.6c-8.4,0-15.9,1.7-22.5,5c-6.6,3.3-11.7,7.9-15.4,13.8
				c-3.7,5.8-5.6,12.5-5.6,19.9c0,6.9,1.3,12.6,4,17.3c2.6,4.7,6,8.7,10.2,11.9c4.1,3.2,8.5,5.8,13.1,7.9c4.6,2.1,8.7,3.7,12.4,5
				c5.7,2,11.1,4.2,16.2,6.7c5.1,2.5,9.2,5.8,12.3,9.7c3.1,4,4.7,9.3,4.7,16.1c0,6.8-2.4,12.5-7.3,16.9c-4.8,4.4-11.3,6.6-19.3,6.6
				c-6,0-11.3-1.3-16-3.8c-4.7-2.6-9-6.1-12.7-10.7c-3.8-4.6-7.4-9.8-10.8-15.8l-14.6,9.8c3.3,6.6,7.5,12.7,12.7,18.5
				c5.2,5.8,11.3,10.4,18.2,13.9c6.9,3.5,14.4,5.2,22.6,5.2c6,0,11.7-1,17.2-3c5.5-2,10.4-4.8,14.8-8.6c4.3-3.7,7.8-8.2,10.3-13.5
				c2.5-5.3,3.8-11.2,3.8-17.8C2416,1248.3,2414.8,1242.4,2412.4,1237.5z"/>
			<path class="st0" d="M2457.8,1145.9v17.1h38.5v132.7h18.2v-132.7h38.5v-17.1H2457.8z"/>
			<path class="st0" d="M2706.5,1205.9v17.1h64.9v-17.1H2706.5z M2706.5,1145.9v17.1h67v-17.1H2706.5z M2696.4,1145.9v149.8h18.2
				v-149.8H2696.4z"/>
			<path class="st0" d="M2971.2,1190.4c-3.8-9.3-9.1-17.5-15.9-24.4c-6.8-6.9-14.9-12.3-24.1-16.3c-9.2-3.9-19.3-5.9-30.3-5.9
				c-10.9,0-20.9,2-30.2,5.9c-9.3,3.9-17.3,9.3-24.2,16.3c-6.8,6.9-12.2,15.1-15.9,24.4c-3.8,9.3-5.7,19.5-5.7,30.5
				c0,10.8,1.9,21,5.7,30.4c3.8,9.4,9.1,17.6,15.9,24.5c6.8,6.9,14.9,12.3,24.2,16.3c9.3,3.9,19.3,5.9,30.2,5.9
				c11,0,21.1-2,30.3-5.9c9.2-3.9,17.2-9.3,24.1-16.3c6.9-6.9,12.2-15.1,15.9-24.5c3.8-9.4,5.7-19.6,5.7-30.4
				C2976.8,1209.9,2974.9,1199.7,2971.2,1190.4z M2950.2,1251.1c-4.9,8.9-11.6,15.8-20.1,21c-8.5,5.1-18.2,7.7-29.2,7.7
				c-10.9,0-20.6-2.6-29.1-7.7c-8.6-5.1-15.3-12.1-20.2-21c-4.9-8.8-7.4-18.9-7.4-30.2s2.5-21.3,7.4-30.2c4.9-8.8,11.7-15.8,20.2-21
				c8.6-5.1,18.3-7.7,29.1-7.7c11,0,20.7,2.6,29.2,7.7c8.5,5.1,15.2,12.1,20.1,21c4.9,8.9,7.4,18.9,7.4,30.2
				S2955.1,1242.2,2950.2,1251.1z"/>
			<path class="st0" d="M3088.4,1234.2l-8.8-12.2h-20.3l9.7,13.9l41.7,59.9h22.5L3088.4,1234.2z M3117.4,1166.9
				c-4.5-6.7-10.6-11.9-18.2-15.5c-7.6-3.6-16.3-5.5-26-5.5h-30.6v16.1h30.6c6.4,0,12.1,1.1,17,3.4c4.9,2.3,8.8,5.6,11.6,9.9
				c2.8,4.3,4.2,9.5,4.2,15.6c0,6.1-1.4,11.3-4.2,15.6c-2.8,4.3-6.6,7.6-11.6,9.8c-4.9,2.3-10.6,3.4-17,3.4h-30.6v16.1h30.6
				c5.4,0,10.5-0.6,15.3-1.7c3.8-0.9,7.4-2.2,10.7-3.8c7.6-3.6,13.7-8.8,18.2-15.6c4.5-6.8,6.7-14.7,6.7-23.9
				C3124.1,1181.6,3121.9,1173.6,3117.4,1166.9z M3032.5,1145.9v149.8h18.2v-149.8H3032.5z"/>
			<path class="st0" d="M3386.8,1181.6c-6.4-11.2-15.3-19.9-26.5-26.2c-11.3-6.3-24.2-9.4-38.8-9.4h-34.9v18.2h34.9
				c8.4,0,16.1,1.3,23.1,4s13,6.4,18,11.3c5,4.9,8.8,10.9,11.6,17.9c2.7,7,4.1,14.8,4.1,23.6c0,8.7-1.4,16.5-4.1,23.5
				c-2.7,7-6.6,13-11.6,17.9c-5,4.9-11,8.7-18,11.3c-7,2.7-14.7,4-23.1,4h-34.9v18.2h34.9c14.6,0,27.5-3.1,38.8-9.4
				c11.3-6.3,20.1-15,26.5-26.2c6.4-11.2,9.6-24.3,9.6-39.3C3396.4,1205.9,3393.2,1192.8,3386.8,1181.6z M3276.5,1145.9v149.8h18.2
				v-149.8H3276.5z"/>
			<path class="st0" d="M3532.8,1233.7h-66.4l-6.4,17.1h79.2L3532.8,1233.7z M3499.1,1138.5l-69.6,157.3h20.3l19-45l3.2-7.7l1.7-3.8
				l2.4-5.6l22.9-53.9l23,53.9l2.7,6.4l1.7,4.3l2.7,6.4l19.1,45h20.3L3499.1,1138.5z"/>
			<path class="st0" d="M3586.9,1145.9v17.1h38.5v132.7h18.2v-132.7h38.5v-17.1H3586.9z"/>
			<path class="st0" d="M3731.4,1145.9v149.8h18.2v-149.8H3731.4z"/>
			<path class="st0" d="M3927.3,1145.9v111.5l-113.4-119v157.3h18.2v-111.5l113.4,119v-157.3H3927.3z"/>
			<path class="st0" d="M4079.2,1219.8v17.1h49.9c-1.3,5.9-3.3,11.4-6.1,16.5c-2.8,5.1-6.3,9.7-10.6,13.7c-4.3,4-9.4,7.1-15.3,9.3
				c-5.9,2.2-12.6,3.3-20,3.3c-10.6,0-20.1-2.5-28.7-7.5c-8.6-5-15.4-11.9-20.4-20.8c-5.1-8.8-7.6-19.1-7.6-30.6
				c0-11.7,2.5-22,7.6-30.7c5.1-8.8,11.9-15.7,20.4-20.7c8.6-5,18.1-7.5,28.7-7.5c11.4,0,21.3,2.2,29.8,6.7
				c8.4,4.5,15,10.7,19.7,18.7l12.8-11.8c-4.3-7-9.5-12.8-15.7-17.5c-6.2-4.7-13.2-8.3-21-10.7c-7.8-2.4-16.3-3.6-25.6-3.6
				c-10.9,0-20.9,1.9-30.2,5.7c-9.3,3.8-17.3,9.1-24.2,16.1c-6.8,6.9-12.2,15.1-15.9,24.5c-3.8,9.4-5.7,19.7-5.7,30.8
				c0,11.1,1.9,21.4,5.7,30.8c3.8,9.4,9.1,17.6,15.9,24.5c6.9,6.9,14.9,12.3,24.2,16.1c9.3,3.8,19.3,5.7,30.2,5.7
				c11.4,0,21.6-2.1,30.5-6.3c8.9-4.2,16.4-10,22.6-17.2c6.1-7.3,10.8-15.6,13.9-24.9c3.1-9.3,4.7-19.2,4.7-29.6H4079.2z"/>
			<path class="st0" d="M4472,1145.9l-39,110.2l-44.5-117.7l-43.7,117.7l-39.8-110.2h-20.3l58.9,157.3l44.9-116.5l45,116.5
				l58.9-157.3H4472z"/>
			<path class="st0" d="M4551.7,1278.7v17.1h75.6v-17.1H4551.7z M4551.7,1205.9v17.1h71.3v-17.1H4551.7z M4551.7,1145.9v17.1h75.6
				v-17.1H4551.7z M4541.6,1145.9v149.8h18.2v-149.8H4541.6z"/>
			<path class="st0" d="M4777.1,1234.1c-2.6-5-6.2-9.1-10.8-12.3c-4.6-3.2-10-5.6-16.2-7.2c-0.9-0.2-1.8-0.4-2.7-0.6
				c1.3-0.4,2.6-0.8,3.9-1.3c6.6-2.6,11.8-6.3,15.5-11.3c3.7-5,5.6-11,5.6-18c0-8.6-1.9-15.6-5.6-21.1c-3.7-5.5-8.9-9.6-15.5-12.3
				c-6.6-2.7-14.5-4.1-23.4-4.1h-38.5v149.8h40.7c9.7,0,18.4-1.6,26-4.8c7.6-3.2,13.7-8.1,18.2-14.6c4.5-6.5,6.7-14.7,6.7-24.5
				C4780.9,1245.1,4779.6,1239.1,4777.1,1234.1z M4707.5,1162h20.3c7.6,0,13.9,2,18.8,5.9c5,3.9,7.5,9.4,7.5,16.6
				c0,4.7-1.1,8.7-3.4,12c-2.3,3.3-5.4,5.8-9.4,7.5c-4,1.7-8.5,2.6-13.5,2.6h-20.3V1162z M4758.6,1266.5c-2.8,4.3-6.6,7.6-11.6,9.8
				c-4.9,2.3-10.6,3.4-17,3.4h-22.5v-57.4h22.5c4.8,0,9.3,0.6,13.3,1.8c4,1.2,7.5,3,10.4,5.5c2.9,2.4,5.2,5.4,6.7,9
				c1.6,3.6,2.4,7.6,2.4,12.2C4762.7,1257,4761.3,1262.2,4758.6,1266.5z"/>
			<path class="st0" d="M4925.6,1237.5c-2.4-4.9-5.5-9.1-9.3-12.6c-3.8-3.5-7.9-6.4-12.3-8.7c-4.4-2.3-8.6-4.1-12.6-5.6
				c-8.7-3-15.6-6-20.7-9.1c-5.1-3.1-8.7-6.3-10.8-9.8c-2.1-3.5-3.2-7.3-3.2-11.5c0-4.8,1.8-9.2,5.6-13.2c3.7-3.9,9.6-5.9,17.8-5.9
				c5.9,0,10.8,1.1,14.9,3.4c4.1,2.3,7.5,5.2,10.4,8.8c2.9,3.6,5.2,7.2,7.1,10.9l15.6-9c-2.4-5.3-5.8-10.3-10.1-15.1
				c-4.3-4.8-9.5-8.7-15.5-11.8c-6.1-3.1-13.2-4.6-21.3-4.6c-8.4,0-15.9,1.7-22.5,5c-6.6,3.3-11.7,7.9-15.4,13.8
				c-3.7,5.8-5.6,12.5-5.6,19.9c0,6.9,1.3,12.6,4,17.3c2.6,4.7,6,8.7,10.2,11.9c4.1,3.2,8.5,5.8,13.1,7.9c4.6,2.1,8.7,3.7,12.4,5
				c5.7,2,11.1,4.2,16.2,6.7c5.1,2.5,9.2,5.8,12.3,9.7c3.1,4,4.7,9.3,4.7,16.1c0,6.8-2.4,12.5-7.3,16.9c-4.9,4.4-11.3,6.6-19.3,6.6
				c-6,0-11.3-1.3-16-3.8c-4.7-2.6-9-6.1-12.7-10.7c-3.8-4.6-7.4-9.8-10.8-15.8l-14.5,9.8c3.3,6.6,7.5,12.7,12.7,18.5
				c5.2,5.8,11.3,10.4,18.2,13.9c6.9,3.5,14.4,5.2,22.6,5.2c6,0,11.7-1,17.2-3c5.5-2,10.4-4.8,14.8-8.6c4.3-3.7,7.8-8.2,10.3-13.5
				c2.5-5.3,3.7-11.2,3.7-17.8C4929.3,1248.3,4928.1,1242.4,4925.6,1237.5z"/>
			<path class="st0" d="M4986,1145.9v149.8h18.2v-149.8H4986z"/>
			<path class="st0" d="M5053.4,1145.9v17.1h38.5v132.7h18.2v-132.7h38.5v-17.1H5053.4z"/>
			<path class="st0" d="M5208,1278.7v17.1h75.6v-17.1H5208z M5208,1205.9v17.1h71.3v-17.1H5208z M5208,1145.9v17.1h75.6v-17.1H5208z
				 M5197.9,1145.9v149.8h18.2v-149.8H5197.9z"/>
		</g>
	</g>
	<g>
		<path class="st0" d="M1225.3,70.1c0,0-157-7.6-294.4,166.2c0,0-260.7-269.1-546.7-102.3c0,0,162.6,205.1,446.7,315.4
			c0,0,533.1,256.5,264,1038.7c0,0,597.2-281.8,635-874.7C1730,613.5,1742.6,31.5,1225.3,70.1z M1186.1,157.9
			c443-84.1,459.8,378.5,459.8,378.5L1186.1,157.9z"/>
		<path class="st0" d="M1057.4,992.1c0,0,0-0.1,0-0.1c0-0.3-0.1-0.5-0.1-0.7C1057.3,991.5,1057.3,991.8,1057.4,992.1
			c0,0.1,0,0.2,0,0.3C1057.4,992.3,1057.4,992.2,1057.4,992.1z M1071.8,1165.2C1071.8,1165.2,1071.8,1165.2,1071.8,1165.2
			c0-3.4-0.1-6.6-0.1-9.8c-0.1-4.8-0.2-9.6-0.3-14.3c-0.1-3.1-0.2-6.2-0.3-9.3c-0.1-1.5-0.1-3.1-0.2-4.6c0-0.1,0-0.2,0-0.3
			c-0.1-2.5-0.2-4.9-0.3-7.3c-0.3-6-0.6-11.9-1-17.6c-0.3-4.6-0.6-9-0.9-13.4c-1.7-22.9-3.8-42.7-5.7-58.3c0-0.2,0-0.3-0.1-0.5
			c-0.2-1.4-0.4-2.8-0.5-4.2c-0.2-1.4-0.3-2.7-0.5-4c0-0.3-0.1-0.5-0.1-0.8c-0.2-1.1-0.3-2.2-0.4-3.2c0-0.1,0-0.2,0-0.3
			c-0.2-1-0.3-2-0.4-3c0-0.3-0.1-0.6-0.1-1c-0.1-0.9-0.2-1.7-0.4-2.6c-0.2-1.2-0.4-2.4-0.5-3.5c-0.2-1.4-0.4-2.7-0.6-3.9
			c-0.1-0.8-0.2-1.5-0.4-2.2c-0.2-1.1-0.3-2.1-0.5-3c-0.2-1-0.3-1.8-0.4-2.6c-0.1-0.4-0.1-0.8-0.2-1.2c0-0.1,0-0.1,0-0.2
			c0-0.2-0.1-0.4-0.1-0.6c0-0.3-0.1-0.5-0.1-0.7c4.6,30.1,50.1,360.9-123.8,564.1c0,0-471-49.2-704.4-401.1
			C463.7,1510.5,948.6,1594,948.6,1594c18.9-22.1,35-46.1,48.8-71.3c1.1-2.1,2.3-4.2,3.4-6.3c1.1-2.1,2.2-4.2,3.3-6.4
			c1.1-2.1,2.1-4.3,3.2-6.4c1.1-2.2,2.1-4.3,3.1-6.5c4.1-8.7,7.9-17.5,11.5-26.4c0.9-2.2,1.8-4.5,2.6-6.7c1.3-3.3,2.6-6.7,3.8-10.1
			c0.6-1.7,1.2-3.4,1.8-5.1c1.8-5.1,3.5-10.2,5.2-15.3c0.4-1.1,0.7-2.3,1.1-3.4c1.1-3.4,2.1-6.9,3.2-10.3c0.3-1.1,0.7-2.3,1-3.4
			c0.7-2.3,1.3-4.6,2-6.9c0.3-1.1,0.6-2.3,1-3.4c4.2-15.1,7.8-30.4,10.9-45.6c1.6-7.9,3.1-15.9,4.5-23.8c1.4-8,2.6-16,3.8-24
			c0.1-0.7,0.2-1.5,0.3-2.2c0.3-2.2,0.6-4.5,0.9-6.7c0.2-1.5,0.4-3.1,0.6-4.6c0.3-2.1,0.5-4.3,0.8-6.4c0.2-1.6,0.4-3.2,0.6-4.8
			c0.8-7,1.5-14,2.1-20.9c0.3-2.9,0.5-5.8,0.7-8.6c0.2-1.9,0.3-3.8,0.4-5.6c0.1-1.7,0.2-3.4,0.4-5.1c1.8-26.2,2.5-51.6,2.5-75.6
			C1071.9,1169.7,1071.8,1167.5,1071.8,1165.2z M345,670.2c-49.6,9.4-243.2-99.9-303.2-134.6c67.4,39.4,306,175.8,356.4,166.2
			c58.9-11.2-336.4-195.1-246.7-631.6c0,0,225.5,217.2,473.2,353.3C376.4,285.2,129.8,0,129.8,0C40.1,436.5,403.9,659,345,670.2z
			 M221.9,1144.2c-3.1-4.9-6.2-9.9-9.2-14.9C215.7,1134.3,218.8,1139.3,221.9,1144.2z M31.2,529.4c-0.7-0.4-1.3-0.8-1.9-1.1
			C29.8,528.6,30.5,529,31.2,529.4z"/>
		<path class="st0" d="M1071.8,1165.2C1071.8,1165.2,1071.8,1165.2,1071.8,1165.2c0-3.4-0.1-6.6-0.1-9.8c-0.1-4.8-0.2-9.6-0.3-14.3
			c-0.1-3.1-0.2-6.2-0.3-9.3c-0.1-1.5-0.1-3.1-0.2-4.6c0-0.1,0-0.2,0-0.3c-0.1-2.5-0.2-4.9-0.3-7.3c-0.3-6-0.6-11.9-1-17.6
			c-0.3-4.6-0.6-9-0.9-13.4c-1.7-22.9-3.8-42.7-5.7-58.3c0-0.2,0-0.3-0.1-0.5c-0.2-1.4-0.3-2.8-0.5-4.2c-0.2-1.4-0.3-2.7-0.5-4
			c0-0.3-0.1-0.5-0.1-0.8c-0.2-1.1-0.3-2.2-0.4-3.2c0-0.1,0-0.2,0-0.3c-0.2-1-0.3-2-0.4-3c0-0.3-0.1-0.6-0.1-1
			c-0.1-0.9-0.2-1.7-0.4-2.6c-0.2-1.2-0.4-2.4-0.5-3.5c-0.2-1.4-0.4-2.7-0.6-3.9c-0.1-0.8-0.2-1.5-0.4-2.2c-0.2-1.1-0.3-2.1-0.5-3
			c-0.2-1-0.3-1.8-0.4-2.6c-0.1-0.4-0.1-0.8-0.2-1.2c0-0.1,0-0.1,0-0.2c0-0.2-0.1-0.4-0.1-0.6c0-0.3-0.1-0.5-0.1-0.7
			c0-0.1,0-0.2-0.1-0.3c0-0.1,0-0.2,0-0.3h0c0,0,0-0.1,0-0.1c0-0.3-0.1-0.5-0.1-0.7c0-0.1,0-0.2,0-0.3c-0.1-0.3-0.1-0.5-0.1-0.5
			c-46.7-369.1-420.5-560.7-420.5-560.7c-3.9-2.1-7.9-4.3-11.8-6.4C376.4,285.2,129.8,0,129.8,0C40.1,436.5,403.9,659,345,670.2
			c-49.6,9.4-243.2-99.9-303.2-134.6c-0.5-0.3-1-0.6-1.5-0.9c-3.6-2.1-6.7-3.9-9.2-5.3c-0.7-0.4-1.3-0.8-1.9-1.1
			c-0.1,0-0.1-0.1-0.2-0.1c-0.5-0.3-1-0.6-1.5-0.9c-2.3-1.3-3.5-2.1-3.5-2.1c-71.5,356,483.6,597.1,483.6,597.1
			c-39.3,39.3-305.6-11.2-305.6-11.2c3.5,6.1,7,12.2,10.6,18.2c3,5,6.1,10,9.2,14.9c1,1.6,2.1,3.3,3.1,4.9c1.4,2.2,2.8,4.3,4.2,6.5
			c0,0.1,0,0.1,0.1,0.1C463.7,1510.5,948.6,1594,948.6,1594c18.9-22.1,35-46.1,48.8-71.3c1.1-2.1,2.3-4.2,3.4-6.3
			c1.1-2.1,2.2-4.2,3.3-6.4c1.1-2.1,2.1-4.3,3.2-6.4c1.1-2.2,2.1-4.3,3.1-6.5c4.1-8.7,7.9-17.5,11.5-26.4c0.9-2.2,1.8-4.5,2.6-6.7
			c1.3-3.3,2.6-6.7,3.8-10.1c0.6-1.7,1.2-3.4,1.8-5.1c1.8-5.1,3.5-10.2,5.2-15.3c0.4-1.1,0.7-2.3,1.1-3.4c1.1-3.4,2.2-6.9,3.2-10.3
			c0.3-1.1,0.7-2.3,1-3.4c0.7-2.3,1.3-4.6,2-6.9c0.3-1.1,0.6-2.3,1-3.4c4.2-15.1,7.8-30.4,10.9-45.6c1.6-7.9,3.1-15.9,4.5-23.8
			c1.4-8,2.6-16,3.8-24c0.1-0.7,0.2-1.5,0.3-2.2c0.3-2.2,0.6-4.5,0.9-6.7c0.2-1.5,0.4-3.1,0.6-4.6c0.3-2.1,0.5-4.3,0.8-6.4
			c0.2-1.6,0.4-3.2,0.6-4.8c0.8-7,1.5-14,2.1-20.9c0.3-2.9,0.5-5.8,0.7-8.6c0.2-1.9,0.3-3.8,0.4-5.6c0.1-1.7,0.2-3.4,0.4-5.1
			c1.8-26.2,2.5-51.6,2.5-75.6C1071.9,1169.7,1071.8,1167.5,1071.8,1165.2z M984.2,1094.3c-42.1-218.7-414.9-605.6-414.9-605.6
			C1065.5,648.5,984.2,1094.3,984.2,1094.3z"/>
	</g>
</g>
</svg>
