<svg width="98" height="98" viewBox="0 0 98 98" fill="none" xmlns="http://www.w3.org/2000/svg">
<mask id="path-1-outside-1_206_1546" maskUnits="userSpaceOnUse" x="0" y="0" width="98" height="98" fill="black">
<rect fill="white" width="98" height="98"/>
<path fill-rule="evenodd" clip-rule="evenodd" d="M61.1487 53.9828C61.1487 47.2839 55.6989 41.8341 49.0001 41.8341C42.3012 41.8341 36.8526 47.2839 36.8526 53.9828V69.2939C36.8526 70.9659 38.2133 72.3277 39.884 72.3277H58.1173C59.7893 72.3277 61.1487 70.9659 61.1487 69.2939V53.9828ZM38.3223 43.3786C35.6183 46.1023 33.9427 49.8495 33.9427 53.9828V62.0177H23.8913C22.9217 62.0177 22.1336 61.2283 22.1336 60.2599V45.8314C22.1336 41.2641 25.8501 37.5501 30.4149 37.5501C34.0481 37.5501 37.2547 39.9587 38.3223 43.3786ZM30.4149 34.6413C32.6801 34.6413 34.5249 32.799 34.5249 30.5313C34.5249 28.266 32.6801 26.4237 30.4149 26.4237C28.1496 26.4237 26.3073 28.266 26.3073 30.5313C26.3073 32.799 28.1496 34.6413 30.4149 34.6413ZM43.7991 33.7232C43.7991 36.5915 46.1318 38.9254 49.0001 38.9254C51.8683 38.9254 54.201 36.5915 54.201 33.7232C54.201 30.8574 51.8683 28.5247 49.0001 28.5247C46.1318 28.5247 43.7991 30.8574 43.7991 33.7232ZM59.679 43.3786C60.7454 39.9587 63.9508 37.5501 67.5852 37.5501C72.1512 37.5501 75.8665 41.2641 75.8665 45.8314V60.2599C75.8665 61.2283 75.0795 62.0177 74.11 62.0177H64.0575V53.9828C64.0575 49.8495 62.3818 46.1023 59.679 43.3786ZM67.5852 34.6413C69.8504 34.6413 71.6928 32.799 71.6928 30.5313C71.6928 28.266 69.8504 26.4237 67.5852 26.4237C65.32 26.4237 63.4752 28.266 63.4752 30.5313C63.4752 32.799 65.32 34.6413 67.5852 34.6413ZM58.1173 75.2365H39.884C36.6075 75.2365 33.9427 72.5692 33.9427 69.2939V64.9265H23.8913C21.3172 64.9265 19.2248 62.8341 19.2248 60.2599V45.8314C19.2248 41.3548 21.8664 37.4876 25.6711 35.6979C24.275 34.4158 23.3986 32.5734 23.3986 30.5313C23.3986 26.6615 26.5464 23.515 30.4149 23.515C34.2846 23.515 37.4337 26.6615 37.4337 30.5313C37.4337 32.5771 36.5536 34.4219 35.1513 35.7053C37.6065 36.8637 39.6033 38.8923 40.6954 41.4309C41.638 40.8045 42.6542 40.2823 43.7292 39.879C41.9936 38.3922 40.8903 36.1845 40.8903 33.7232C40.8903 29.254 44.5285 25.6147 49.0001 25.6147C53.4729 25.6147 57.111 29.254 57.111 33.7232C57.111 36.1845 56.0066 38.3922 54.2709 39.879C55.3459 40.2823 56.362 40.8045 57.3034 41.4309C58.3968 38.8923 60.3936 36.8637 62.85 35.7053C61.4478 34.4219 60.5664 32.5771 60.5664 30.5313C60.5664 26.6615 63.7167 23.515 67.5852 23.515C71.4549 23.515 74.6015 26.6615 74.6015 30.5313C74.6015 32.5734 73.7263 34.4158 72.3289 35.6979C76.1337 37.4876 78.7753 41.3548 78.7753 45.8314V60.2599C78.7753 62.8341 76.6829 64.9265 74.11 64.9265H64.0575V69.2939C64.0575 72.5692 61.3926 75.2365 58.1173 75.2365ZM50.1094 77.1192L53.886 81.5688C54.4057 82.1817 54.3297 83.0985 53.7168 83.6183C53.1038 84.1393 52.1878 84.0651 51.6673 83.4516L50.455 82.0223V95.5462C50.455 96.3492 49.8029 97 49.0001 97C38.5602 97 28.6326 93.7051 20.2937 87.4721C12.2318 81.4462 6.14952 72.8645 3.16844 63.3035C2.92941 62.5374 3.35596 61.721 4.12452 61.482C4.89064 61.2442 5.70703 61.672 5.946 62.4381C11.7035 80.9056 28.3115 93.4624 47.5463 94.068V82.0223L46.334 83.4516C45.8131 84.0644 44.8949 84.138 44.2833 83.6183C43.6704 83.0985 43.5956 82.1817 44.1153 81.5688L47.8907 77.1192C48.5392 76.3673 49.6591 76.5166 50.1094 77.1192ZM47.8907 20.8796L44.1153 16.43C43.5956 15.8171 43.6704 14.9003 44.2833 14.3805C44.8949 13.8583 45.813 13.9344 46.334 14.546L47.5463 15.9764V2.45495C47.5463 1.64964 48.1971 1 49.0001 1C59.4399 1 69.3675 4.29366 77.7076 10.5267C85.7696 16.5526 91.8518 25.1342 94.8317 34.6952C95.0707 35.4613 94.6417 36.2777 93.8756 36.5168C93.1239 36.7496 92.2986 36.3414 92.0553 35.5594C86.2966 17.0931 69.6898 4.53511 50.455 3.93082V15.9764L51.6673 14.546C52.1871 13.9356 53.1064 13.8608 53.7168 14.3805C54.3297 14.9003 54.4057 15.8171 53.886 16.43L50.1094 20.8796L49.5958 21.2644C48.9311 21.5444 48.3768 21.3656 47.8907 20.8796ZM7.38139 51.6673C6.34808 52.5453 6.98282 54.2304 8.32279 54.2304C8.65501 54.2304 8.99086 54.1164 9.26417 53.886L13.8155 50.0113C14.4278 49.3557 14.3199 48.3765 13.7125 47.8906L9.26417 44.1128C8.65133 43.5956 7.73318 43.6691 7.21472 44.282C6.69378 44.8949 6.76974 45.8118 7.38139 46.3315L8.81065 47.5462H3.9321C4.53759 28.3102 17.0932 11.7034 35.5619 5.94598C36.328 5.70575 36.757 4.89056 36.5168 4.12322C36.2778 3.35716 35.4638 2.92813 34.6953 3.16838C25.1355 6.14945 16.5526 12.2293 10.5267 20.2936C4.29494 28.6326 1 38.5589 1 49C1 49.8029 1.65212 50.455 2.45503 50.455H8.81065L7.38139 51.6673ZM97.0001 49C97.0001 48.1959 96.3492 47.5462 95.5463 47.5462H89.1906L90.6199 46.3315C91.2303 45.8118 91.3064 44.8949 90.7866 44.282C90.2669 43.6691 89.35 43.5932 88.7371 44.1128L84.2876 47.8906C83.6995 48.3597 83.5737 49.2893 84.1466 49.9684L88.7371 53.886C89.0105 54.1164 89.3451 54.2304 89.6773 54.2304C91.023 54.2304 91.6489 52.5417 90.6199 51.6673L89.1906 50.455H94.068C93.4625 69.6898 80.9069 86.2953 62.4382 92.0528C61.6721 92.2931 61.2431 93.1082 61.4846 93.8755C61.7285 94.6553 62.5535 95.0695 63.3048 94.8304C72.8646 91.8493 81.4487 85.7695 87.4746 77.7051C93.7052 69.3662 97.0001 59.4399 97.0001 49Z"/>
</mask>
<path fill-rule="evenodd" clip-rule="evenodd" d="M61.1487 53.9828C61.1487 47.2839 55.6989 41.8341 49.0001 41.8341C42.3012 41.8341 36.8526 47.2839 36.8526 53.9828V69.2939C36.8526 70.9659 38.2133 72.3277 39.884 72.3277H58.1173C59.7893 72.3277 61.1487 70.9659 61.1487 69.2939V53.9828ZM38.3223 43.3786C35.6183 46.1023 33.9427 49.8495 33.9427 53.9828V62.0177H23.8913C22.9217 62.0177 22.1336 61.2283 22.1336 60.2599V45.8314C22.1336 41.2641 25.8501 37.5501 30.4149 37.5501C34.0481 37.5501 37.2547 39.9587 38.3223 43.3786ZM30.4149 34.6413C32.6801 34.6413 34.5249 32.799 34.5249 30.5313C34.5249 28.266 32.6801 26.4237 30.4149 26.4237C28.1496 26.4237 26.3073 28.266 26.3073 30.5313C26.3073 32.799 28.1496 34.6413 30.4149 34.6413ZM43.7991 33.7232C43.7991 36.5915 46.1318 38.9254 49.0001 38.9254C51.8683 38.9254 54.201 36.5915 54.201 33.7232C54.201 30.8574 51.8683 28.5247 49.0001 28.5247C46.1318 28.5247 43.7991 30.8574 43.7991 33.7232ZM59.679 43.3786C60.7454 39.9587 63.9508 37.5501 67.5852 37.5501C72.1512 37.5501 75.8665 41.2641 75.8665 45.8314V60.2599C75.8665 61.2283 75.0795 62.0177 74.11 62.0177H64.0575V53.9828C64.0575 49.8495 62.3818 46.1023 59.679 43.3786ZM67.5852 34.6413C69.8504 34.6413 71.6928 32.799 71.6928 30.5313C71.6928 28.266 69.8504 26.4237 67.5852 26.4237C65.32 26.4237 63.4752 28.266 63.4752 30.5313C63.4752 32.799 65.32 34.6413 67.5852 34.6413ZM58.1173 75.2365H39.884C36.6075 75.2365 33.9427 72.5692 33.9427 69.2939V64.9265H23.8913C21.3172 64.9265 19.2248 62.8341 19.2248 60.2599V45.8314C19.2248 41.3548 21.8664 37.4876 25.6711 35.6979C24.275 34.4158 23.3986 32.5734 23.3986 30.5313C23.3986 26.6615 26.5464 23.515 30.4149 23.515C34.2846 23.515 37.4337 26.6615 37.4337 30.5313C37.4337 32.5771 36.5536 34.4219 35.1513 35.7053C37.6065 36.8637 39.6033 38.8923 40.6954 41.4309C41.638 40.8045 42.6542 40.2823 43.7292 39.879C41.9936 38.3922 40.8903 36.1845 40.8903 33.7232C40.8903 29.254 44.5285 25.6147 49.0001 25.6147C53.4729 25.6147 57.111 29.254 57.111 33.7232C57.111 36.1845 56.0066 38.3922 54.2709 39.879C55.3459 40.2823 56.362 40.8045 57.3034 41.4309C58.3968 38.8923 60.3936 36.8637 62.85 35.7053C61.4478 34.4219 60.5664 32.5771 60.5664 30.5313C60.5664 26.6615 63.7167 23.515 67.5852 23.515C71.4549 23.515 74.6015 26.6615 74.6015 30.5313C74.6015 32.5734 73.7263 34.4158 72.3289 35.6979C76.1337 37.4876 78.7753 41.3548 78.7753 45.8314V60.2599C78.7753 62.8341 76.6829 64.9265 74.11 64.9265H64.0575V69.2939C64.0575 72.5692 61.3926 75.2365 58.1173 75.2365ZM50.1094 77.1192L53.886 81.5688C54.4057 82.1817 54.3297 83.0985 53.7168 83.6183C53.1038 84.1393 52.1878 84.0651 51.6673 83.4516L50.455 82.0223V95.5462C50.455 96.3492 49.8029 97 49.0001 97C38.5602 97 28.6326 93.7051 20.2937 87.4721C12.2318 81.4462 6.14952 72.8645 3.16844 63.3035C2.92941 62.5374 3.35596 61.721 4.12452 61.482C4.89064 61.2442 5.70703 61.672 5.946 62.4381C11.7035 80.9056 28.3115 93.4624 47.5463 94.068V82.0223L46.334 83.4516C45.8131 84.0644 44.8949 84.138 44.2833 83.6183C43.6704 83.0985 43.5956 82.1817 44.1153 81.5688L47.8907 77.1192C48.5392 76.3673 49.6591 76.5166 50.1094 77.1192ZM47.8907 20.8796L44.1153 16.43C43.5956 15.8171 43.6704 14.9003 44.2833 14.3805C44.8949 13.8583 45.813 13.9344 46.334 14.546L47.5463 15.9764V2.45495C47.5463 1.64964 48.1971 1 49.0001 1C59.4399 1 69.3675 4.29366 77.7076 10.5267C85.7696 16.5526 91.8518 25.1342 94.8317 34.6952C95.0707 35.4613 94.6417 36.2777 93.8756 36.5168C93.1239 36.7496 92.2986 36.3414 92.0553 35.5594C86.2966 17.0931 69.6898 4.53511 50.455 3.93082V15.9764L51.6673 14.546C52.1871 13.9356 53.1064 13.8608 53.7168 14.3805C54.3297 14.9003 54.4057 15.8171 53.886 16.43L50.1094 20.8796L49.5958 21.2644C48.9311 21.5444 48.3768 21.3656 47.8907 20.8796ZM7.38139 51.6673C6.34808 52.5453 6.98282 54.2304 8.32279 54.2304C8.65501 54.2304 8.99086 54.1164 9.26417 53.886L13.8155 50.0113C14.4278 49.3557 14.3199 48.3765 13.7125 47.8906L9.26417 44.1128C8.65133 43.5956 7.73318 43.6691 7.21472 44.282C6.69378 44.8949 6.76974 45.8118 7.38139 46.3315L8.81065 47.5462H3.9321C4.53759 28.3102 17.0932 11.7034 35.5619 5.94598C36.328 5.70575 36.757 4.89056 36.5168 4.12322C36.2778 3.35716 35.4638 2.92813 34.6953 3.16838C25.1355 6.14945 16.5526 12.2293 10.5267 20.2936C4.29494 28.6326 1 38.5589 1 49C1 49.8029 1.65212 50.455 2.45503 50.455H8.81065L7.38139 51.6673ZM97.0001 49C97.0001 48.1959 96.3492 47.5462 95.5463 47.5462H89.1906L90.6199 46.3315C91.2303 45.8118 91.3064 44.8949 90.7866 44.282C90.2669 43.6691 89.35 43.5932 88.7371 44.1128L84.2876 47.8906C83.6995 48.3597 83.5737 49.2893 84.1466 49.9684L88.7371 53.886C89.0105 54.1164 89.3451 54.2304 89.6773 54.2304C91.023 54.2304 91.6489 52.5417 90.6199 51.6673L89.1906 50.455H94.068C93.4625 69.6898 80.9069 86.2953 62.4382 92.0528C61.6721 92.2931 61.2431 93.1082 61.4846 93.8755C61.7285 94.6553 62.5535 95.0695 63.3048 94.8304C72.8646 91.8493 81.4487 85.7695 87.4746 77.7051C93.7052 69.3662 97.0001 59.4399 97.0001 49Z" fill="#3C7CFF"/>
<path fill-rule="evenodd" clip-rule="evenodd" d="M61.1487 53.9828C61.1487 47.2839 55.6989 41.8341 49.0001 41.8341C42.3012 41.8341 36.8526 47.2839 36.8526 53.9828V69.2939C36.8526 70.9659 38.2133 72.3277 39.884 72.3277H58.1173C59.7893 72.3277 61.1487 70.9659 61.1487 69.2939V53.9828ZM38.3223 43.3786C35.6183 46.1023 33.9427 49.8495 33.9427 53.9828V62.0177H23.8913C22.9217 62.0177 22.1336 61.2283 22.1336 60.2599V45.8314C22.1336 41.2641 25.8501 37.5501 30.4149 37.5501C34.0481 37.5501 37.2547 39.9587 38.3223 43.3786ZM30.4149 34.6413C32.6801 34.6413 34.5249 32.799 34.5249 30.5313C34.5249 28.266 32.6801 26.4237 30.4149 26.4237C28.1496 26.4237 26.3073 28.266 26.3073 30.5313C26.3073 32.799 28.1496 34.6413 30.4149 34.6413ZM43.7991 33.7232C43.7991 36.5915 46.1318 38.9254 49.0001 38.9254C51.8683 38.9254 54.201 36.5915 54.201 33.7232C54.201 30.8574 51.8683 28.5247 49.0001 28.5247C46.1318 28.5247 43.7991 30.8574 43.7991 33.7232ZM59.679 43.3786C60.7454 39.9587 63.9508 37.5501 67.5852 37.5501C72.1512 37.5501 75.8665 41.2641 75.8665 45.8314V60.2599C75.8665 61.2283 75.0795 62.0177 74.11 62.0177H64.0575V53.9828C64.0575 49.8495 62.3818 46.1023 59.679 43.3786ZM67.5852 34.6413C69.8504 34.6413 71.6928 32.799 71.6928 30.5313C71.6928 28.266 69.8504 26.4237 67.5852 26.4237C65.32 26.4237 63.4752 28.266 63.4752 30.5313C63.4752 32.799 65.32 34.6413 67.5852 34.6413ZM58.1173 75.2365H39.884C36.6075 75.2365 33.9427 72.5692 33.9427 69.2939V64.9265H23.8913C21.3172 64.9265 19.2248 62.8341 19.2248 60.2599V45.8314C19.2248 41.3548 21.8664 37.4876 25.6711 35.6979C24.275 34.4158 23.3986 32.5734 23.3986 30.5313C23.3986 26.6615 26.5464 23.515 30.4149 23.515C34.2846 23.515 37.4337 26.6615 37.4337 30.5313C37.4337 32.5771 36.5536 34.4219 35.1513 35.7053C37.6065 36.8637 39.6033 38.8923 40.6954 41.4309C41.638 40.8045 42.6542 40.2823 43.7292 39.879C41.9936 38.3922 40.8903 36.1845 40.8903 33.7232C40.8903 29.254 44.5285 25.6147 49.0001 25.6147C53.4729 25.6147 57.111 29.254 57.111 33.7232C57.111 36.1845 56.0066 38.3922 54.2709 39.879C55.3459 40.2823 56.362 40.8045 57.3034 41.4309C58.3968 38.8923 60.3936 36.8637 62.85 35.7053C61.4478 34.4219 60.5664 32.5771 60.5664 30.5313C60.5664 26.6615 63.7167 23.515 67.5852 23.515C71.4549 23.515 74.6015 26.6615 74.6015 30.5313C74.6015 32.5734 73.7263 34.4158 72.3289 35.6979C76.1337 37.4876 78.7753 41.3548 78.7753 45.8314V60.2599C78.7753 62.8341 76.6829 64.9265 74.11 64.9265H64.0575V69.2939C64.0575 72.5692 61.3926 75.2365 58.1173 75.2365ZM50.1094 77.1192L53.886 81.5688C54.4057 82.1817 54.3297 83.0985 53.7168 83.6183C53.1038 84.1393 52.1878 84.0651 51.6673 83.4516L50.455 82.0223V95.5462C50.455 96.3492 49.8029 97 49.0001 97C38.5602 97 28.6326 93.7051 20.2937 87.4721C12.2318 81.4462 6.14952 72.8645 3.16844 63.3035C2.92941 62.5374 3.35596 61.721 4.12452 61.482C4.89064 61.2442 5.70703 61.672 5.946 62.4381C11.7035 80.9056 28.3115 93.4624 47.5463 94.068V82.0223L46.334 83.4516C45.8131 84.0644 44.8949 84.138 44.2833 83.6183C43.6704 83.0985 43.5956 82.1817 44.1153 81.5688L47.8907 77.1192C48.5392 76.3673 49.6591 76.5166 50.1094 77.1192ZM47.8907 20.8796L44.1153 16.43C43.5956 15.8171 43.6704 14.9003 44.2833 14.3805C44.8949 13.8583 45.813 13.9344 46.334 14.546L47.5463 15.9764V2.45495C47.5463 1.64964 48.1971 1 49.0001 1C59.4399 1 69.3675 4.29366 77.7076 10.5267C85.7696 16.5526 91.8518 25.1342 94.8317 34.6952C95.0707 35.4613 94.6417 36.2777 93.8756 36.5168C93.1239 36.7496 92.2986 36.3414 92.0553 35.5594C86.2966 17.0931 69.6898 4.53511 50.455 3.93082V15.9764L51.6673 14.546C52.1871 13.9356 53.1064 13.8608 53.7168 14.3805C54.3297 14.9003 54.4057 15.8171 53.886 16.43L50.1094 20.8796L49.5958 21.2644C48.9311 21.5444 48.3768 21.3656 47.8907 20.8796ZM7.38139 51.6673C6.34808 52.5453 6.98282 54.2304 8.32279 54.2304C8.65501 54.2304 8.99086 54.1164 9.26417 53.886L13.8155 50.0113C14.4278 49.3557 14.3199 48.3765 13.7125 47.8906L9.26417 44.1128C8.65133 43.5956 7.73318 43.6691 7.21472 44.282C6.69378 44.8949 6.76974 45.8118 7.38139 46.3315L8.81065 47.5462H3.9321C4.53759 28.3102 17.0932 11.7034 35.5619 5.94598C36.328 5.70575 36.757 4.89056 36.5168 4.12322C36.2778 3.35716 35.4638 2.92813 34.6953 3.16838C25.1355 6.14945 16.5526 12.2293 10.5267 20.2936C4.29494 28.6326 1 38.5589 1 49C1 49.8029 1.65212 50.455 2.45503 50.455H8.81065L7.38139 51.6673ZM97.0001 49C97.0001 48.1959 96.3492 47.5462 95.5463 47.5462H89.1906L90.6199 46.3315C91.2303 45.8118 91.3064 44.8949 90.7866 44.282C90.2669 43.6691 89.35 43.5932 88.7371 44.1128L84.2876 47.8906C83.6995 48.3597 83.5737 49.2893 84.1466 49.9684L88.7371 53.886C89.0105 54.1164 89.3451 54.2304 89.6773 54.2304C91.023 54.2304 91.6489 52.5417 90.6199 51.6673L89.1906 50.455H94.068C93.4625 69.6898 80.9069 86.2953 62.4382 92.0528C61.6721 92.2931 61.2431 93.1082 61.4846 93.8755C61.7285 94.6553 62.5535 95.0695 63.3048 94.8304C72.8646 91.8493 81.4487 85.7695 87.4746 77.7051C93.7052 69.3662 97.0001 59.4399 97.0001 49Z" stroke="#3C7CFF" stroke-width="1.38" mask="url(#path-1-outside-1_206_1546)"/>
</svg>
