<svg width="83" height="98" viewBox="0 0 83 98" fill="none" xmlns="http://www.w3.org/2000/svg">
<mask id="path-1-outside-1_206_1512" maskUnits="userSpaceOnUse" x="0" y="0" width="83" height="98" fill="black">
<rect fill="white" width="83" height="98"/>
<path d="M41.1594 35.23C34.0594 35.23 28.2894 41 28.2894 48.1C28.2894 55.2 34.0594 60.98 41.1594 60.98C48.2594 60.98 54.0294 55.21 54.0294 48.11C54.0294 41.01 48.2594 35.23 41.1594 35.23ZM41.1594 58.64C35.3494 58.64 30.6294 53.92 30.6294 48.11C30.6294 42.3 35.3494 37.58 41.1594 37.58C46.9694 37.58 51.6894 42.3 51.6894 48.11C51.6894 53.92 46.9694 58.64 41.1594 58.64ZM41.1594 64.24C26.7394 64.24 15.0094 75.97 15.0094 90.39V92.67C15.0094 95.06 16.9494 97 19.3394 97H62.9694C65.3594 97 67.2994 95.06 67.2994 92.67V90.39C67.3094 75.96 55.5794 64.24 41.1594 64.24ZM64.9694 92.67C64.9694 93.77 64.0794 94.66 62.9794 94.66H19.3494C18.2494 94.66 17.3594 93.77 17.3594 92.67V90.39C17.3594 77.26 28.0394 66.58 41.1694 66.58C54.2994 66.58 64.9794 77.26 64.9794 90.39V92.67H64.9694ZM33.3094 17.66L32.0194 24.39C31.8594 25.22 32.1794 26.04 32.8694 26.53C33.2494 26.8 33.6894 26.94 34.1294 26.94C34.4794 26.94 34.8394 26.85 35.1694 26.67L41.1694 23.36L47.1694 26.67C47.9094 27.08 48.7894 27.02 49.4694 26.53C50.1494 26.04 50.4794 25.21 50.3194 24.39L49.0294 17.66L54.0294 12.98C54.6394 12.4 54.8594 11.55 54.5994 10.75C54.3394 9.95 53.6594 9.39 52.8194 9.28L46.0194 8.43L43.1094 2.23C42.7494 1.47 41.9994 1 41.1594 1C40.3194 1 39.5694 1.47 39.2194 2.24L36.3094 8.44L29.5094 9.29C28.6694 9.39 27.9894 9.96 27.7294 10.76C27.4694 11.56 27.6894 12.41 28.2994 12.99L33.3094 17.66ZM36.7094 10.75C37.4494 10.66 38.0694 10.2 38.3894 9.53L41.1594 3.61L43.9394 9.53C44.2494 10.2 44.8794 10.66 45.6194 10.75L52.1094 11.56L47.3294 16.03C46.7894 16.54 46.5494 17.27 46.6894 18L47.9294 24.42L42.1994 21.26C41.5494 20.9 40.7794 20.9 40.1294 21.26L34.3994 24.42L35.6294 18C35.7694 17.27 35.5294 16.53 34.9894 16.03L30.2094 11.56L36.7094 10.75ZM81.2294 22.78C80.9894 22.03 80.3494 21.5 79.5694 21.4L73.7894 20.68L71.3194 15.41C70.9894 14.7 70.2894 14.25 69.4994 14.25C68.7094 14.25 68.0094 14.69 67.6794 15.41L65.2094 20.68L59.4294 21.4C58.6494 21.5 58.0094 22.02 57.7694 22.78C57.5294 23.53 57.7294 24.33 58.3094 24.87L62.5594 28.85L61.4594 34.57C61.3094 35.34 61.6094 36.11 62.2494 36.58C62.5994 36.84 63.0194 36.97 63.4294 36.97C63.7594 36.97 64.0994 36.89 64.3994 36.72L69.4994 33.91L74.5994 36.72C75.2894 37.1 76.1194 37.05 76.7594 36.59C77.3994 36.13 77.6994 35.36 77.5494 34.58L76.4494 28.86L80.6994 24.88C81.2594 24.33 81.4694 23.53 81.2294 22.78ZM74.7094 27.26C74.1994 27.74 73.9794 28.43 74.1094 29.11L75.1094 34.31L70.4694 31.75C70.1694 31.58 69.8294 31.5 69.4994 31.5C69.1694 31.5 68.8294 31.58 68.5294 31.75L63.8894 34.31L64.8894 29.11C65.0194 28.43 64.7994 27.74 64.2894 27.26L60.4194 23.64L65.6794 22.98C66.3694 22.89 66.9594 22.47 67.2494 21.84L69.4994 17.04L71.7494 21.84C72.0394 22.47 72.6294 22.9 73.3194 22.98L78.5794 23.64L74.7094 27.26ZM20.0794 36.57C20.7194 36.11 21.0194 35.34 20.8694 34.56L19.7694 28.84L24.0194 24.86C24.5994 24.32 24.7994 23.52 24.5594 22.77C24.3194 22.02 23.6794 21.49 22.8994 21.39L17.1194 20.67L14.6494 15.4C14.3194 14.69 13.6194 14.24 12.8294 14.24C12.0394 14.24 11.3394 14.68 11.0094 15.4L8.53943 20.67L2.75944 21.4C1.97944 21.5 1.33943 22.02 1.09943 22.78C0.859434 23.53 1.05943 24.33 1.63943 24.87L5.88943 28.85L4.78943 34.57C4.63943 35.34 4.93944 36.11 5.57943 36.58C5.92943 36.84 6.34944 36.97 6.75944 36.97C7.08944 36.97 7.42943 36.89 7.72943 36.72L12.8294 33.91L17.9294 36.72C18.6094 37.09 19.4394 37.04 20.0794 36.57ZM12.8194 31.5C12.4894 31.5 12.1494 31.58 11.8494 31.75L7.20943 34.31L8.20943 29.11C8.33943 28.43 8.11944 27.74 7.60944 27.26L3.73943 23.64L8.99943 22.98C9.68944 22.89 10.2794 22.47 10.5694 21.84L12.8194 17.04L15.0694 21.84C15.3694 22.47 15.9494 22.9 16.6394 22.98L21.8994 23.64L18.0294 27.26C17.5194 27.74 17.2994 28.43 17.4294 29.11L18.4294 34.31L13.7894 31.75C13.4894 31.59 13.1594 31.5 12.8194 31.5Z"/>
</mask>
<path d="M41.1594 35.23C34.0594 35.23 28.2894 41 28.2894 48.1C28.2894 55.2 34.0594 60.98 41.1594 60.98C48.2594 60.98 54.0294 55.21 54.0294 48.11C54.0294 41.01 48.2594 35.23 41.1594 35.23ZM41.1594 58.64C35.3494 58.64 30.6294 53.92 30.6294 48.11C30.6294 42.3 35.3494 37.58 41.1594 37.58C46.9694 37.58 51.6894 42.3 51.6894 48.11C51.6894 53.92 46.9694 58.64 41.1594 58.64ZM41.1594 64.24C26.7394 64.24 15.0094 75.97 15.0094 90.39V92.67C15.0094 95.06 16.9494 97 19.3394 97H62.9694C65.3594 97 67.2994 95.06 67.2994 92.67V90.39C67.3094 75.96 55.5794 64.24 41.1594 64.24ZM64.9694 92.67C64.9694 93.77 64.0794 94.66 62.9794 94.66H19.3494C18.2494 94.66 17.3594 93.77 17.3594 92.67V90.39C17.3594 77.26 28.0394 66.58 41.1694 66.58C54.2994 66.58 64.9794 77.26 64.9794 90.39V92.67H64.9694ZM33.3094 17.66L32.0194 24.39C31.8594 25.22 32.1794 26.04 32.8694 26.53C33.2494 26.8 33.6894 26.94 34.1294 26.94C34.4794 26.94 34.8394 26.85 35.1694 26.67L41.1694 23.36L47.1694 26.67C47.9094 27.08 48.7894 27.02 49.4694 26.53C50.1494 26.04 50.4794 25.21 50.3194 24.39L49.0294 17.66L54.0294 12.98C54.6394 12.4 54.8594 11.55 54.5994 10.75C54.3394 9.95 53.6594 9.39 52.8194 9.28L46.0194 8.43L43.1094 2.23C42.7494 1.47 41.9994 1 41.1594 1C40.3194 1 39.5694 1.47 39.2194 2.24L36.3094 8.44L29.5094 9.29C28.6694 9.39 27.9894 9.96 27.7294 10.76C27.4694 11.56 27.6894 12.41 28.2994 12.99L33.3094 17.66ZM36.7094 10.75C37.4494 10.66 38.0694 10.2 38.3894 9.53L41.1594 3.61L43.9394 9.53C44.2494 10.2 44.8794 10.66 45.6194 10.75L52.1094 11.56L47.3294 16.03C46.7894 16.54 46.5494 17.27 46.6894 18L47.9294 24.42L42.1994 21.26C41.5494 20.9 40.7794 20.9 40.1294 21.26L34.3994 24.42L35.6294 18C35.7694 17.27 35.5294 16.53 34.9894 16.03L30.2094 11.56L36.7094 10.75ZM81.2294 22.78C80.9894 22.03 80.3494 21.5 79.5694 21.4L73.7894 20.68L71.3194 15.41C70.9894 14.7 70.2894 14.25 69.4994 14.25C68.7094 14.25 68.0094 14.69 67.6794 15.41L65.2094 20.68L59.4294 21.4C58.6494 21.5 58.0094 22.02 57.7694 22.78C57.5294 23.53 57.7294 24.33 58.3094 24.87L62.5594 28.85L61.4594 34.57C61.3094 35.34 61.6094 36.11 62.2494 36.58C62.5994 36.84 63.0194 36.97 63.4294 36.97C63.7594 36.97 64.0994 36.89 64.3994 36.72L69.4994 33.91L74.5994 36.72C75.2894 37.1 76.1194 37.05 76.7594 36.59C77.3994 36.13 77.6994 35.36 77.5494 34.58L76.4494 28.86L80.6994 24.88C81.2594 24.33 81.4694 23.53 81.2294 22.78ZM74.7094 27.26C74.1994 27.74 73.9794 28.43 74.1094 29.11L75.1094 34.31L70.4694 31.75C70.1694 31.58 69.8294 31.5 69.4994 31.5C69.1694 31.5 68.8294 31.58 68.5294 31.75L63.8894 34.31L64.8894 29.11C65.0194 28.43 64.7994 27.74 64.2894 27.26L60.4194 23.64L65.6794 22.98C66.3694 22.89 66.9594 22.47 67.2494 21.84L69.4994 17.04L71.7494 21.84C72.0394 22.47 72.6294 22.9 73.3194 22.98L78.5794 23.64L74.7094 27.26ZM20.0794 36.57C20.7194 36.11 21.0194 35.34 20.8694 34.56L19.7694 28.84L24.0194 24.86C24.5994 24.32 24.7994 23.52 24.5594 22.77C24.3194 22.02 23.6794 21.49 22.8994 21.39L17.1194 20.67L14.6494 15.4C14.3194 14.69 13.6194 14.24 12.8294 14.24C12.0394 14.24 11.3394 14.68 11.0094 15.4L8.53943 20.67L2.75944 21.4C1.97944 21.5 1.33943 22.02 1.09943 22.78C0.859434 23.53 1.05943 24.33 1.63943 24.87L5.88943 28.85L4.78943 34.57C4.63943 35.34 4.93944 36.11 5.57943 36.58C5.92943 36.84 6.34944 36.97 6.75944 36.97C7.08944 36.97 7.42943 36.89 7.72943 36.72L12.8294 33.91L17.9294 36.72C18.6094 37.09 19.4394 37.04 20.0794 36.57ZM12.8194 31.5C12.4894 31.5 12.1494 31.58 11.8494 31.75L7.20943 34.31L8.20943 29.11C8.33943 28.43 8.11944 27.74 7.60944 27.26L3.73943 23.64L8.99943 22.98C9.68944 22.89 10.2794 22.47 10.5694 21.84L12.8194 17.04L15.0694 21.84C15.3694 22.47 15.9494 22.9 16.6394 22.98L21.8994 23.64L18.0294 27.26C17.5194 27.74 17.2994 28.43 17.4294 29.11L18.4294 34.31L13.7894 31.75C13.4894 31.59 13.1594 31.5 12.8194 31.5Z" fill="#3C7CFF"/>
<path d="M41.1594 35.23C34.0594 35.23 28.2894 41 28.2894 48.1C28.2894 55.2 34.0594 60.98 41.1594 60.98C48.2594 60.98 54.0294 55.21 54.0294 48.11C54.0294 41.01 48.2594 35.23 41.1594 35.23ZM41.1594 58.64C35.3494 58.64 30.6294 53.92 30.6294 48.11C30.6294 42.3 35.3494 37.58 41.1594 37.58C46.9694 37.58 51.6894 42.3 51.6894 48.11C51.6894 53.92 46.9694 58.64 41.1594 58.64ZM41.1594 64.24C26.7394 64.24 15.0094 75.97 15.0094 90.39V92.67C15.0094 95.06 16.9494 97 19.3394 97H62.9694C65.3594 97 67.2994 95.06 67.2994 92.67V90.39C67.3094 75.96 55.5794 64.24 41.1594 64.24ZM64.9694 92.67C64.9694 93.77 64.0794 94.66 62.9794 94.66H19.3494C18.2494 94.66 17.3594 93.77 17.3594 92.67V90.39C17.3594 77.26 28.0394 66.58 41.1694 66.58C54.2994 66.58 64.9794 77.26 64.9794 90.39V92.67H64.9694ZM33.3094 17.66L32.0194 24.39C31.8594 25.22 32.1794 26.04 32.8694 26.53C33.2494 26.8 33.6894 26.94 34.1294 26.94C34.4794 26.94 34.8394 26.85 35.1694 26.67L41.1694 23.36L47.1694 26.67C47.9094 27.08 48.7894 27.02 49.4694 26.53C50.1494 26.04 50.4794 25.21 50.3194 24.39L49.0294 17.66L54.0294 12.98C54.6394 12.4 54.8594 11.55 54.5994 10.75C54.3394 9.95 53.6594 9.39 52.8194 9.28L46.0194 8.43L43.1094 2.23C42.7494 1.47 41.9994 1 41.1594 1C40.3194 1 39.5694 1.47 39.2194 2.24L36.3094 8.44L29.5094 9.29C28.6694 9.39 27.9894 9.96 27.7294 10.76C27.4694 11.56 27.6894 12.41 28.2994 12.99L33.3094 17.66ZM36.7094 10.75C37.4494 10.66 38.0694 10.2 38.3894 9.53L41.1594 3.61L43.9394 9.53C44.2494 10.2 44.8794 10.66 45.6194 10.75L52.1094 11.56L47.3294 16.03C46.7894 16.54 46.5494 17.27 46.6894 18L47.9294 24.42L42.1994 21.26C41.5494 20.9 40.7794 20.9 40.1294 21.26L34.3994 24.42L35.6294 18C35.7694 17.27 35.5294 16.53 34.9894 16.03L30.2094 11.56L36.7094 10.75ZM81.2294 22.78C80.9894 22.03 80.3494 21.5 79.5694 21.4L73.7894 20.68L71.3194 15.41C70.9894 14.7 70.2894 14.25 69.4994 14.25C68.7094 14.25 68.0094 14.69 67.6794 15.41L65.2094 20.68L59.4294 21.4C58.6494 21.5 58.0094 22.02 57.7694 22.78C57.5294 23.53 57.7294 24.33 58.3094 24.87L62.5594 28.85L61.4594 34.57C61.3094 35.34 61.6094 36.11 62.2494 36.58C62.5994 36.84 63.0194 36.97 63.4294 36.97C63.7594 36.97 64.0994 36.89 64.3994 36.72L69.4994 33.91L74.5994 36.72C75.2894 37.1 76.1194 37.05 76.7594 36.59C77.3994 36.13 77.6994 35.36 77.5494 34.58L76.4494 28.86L80.6994 24.88C81.2594 24.33 81.4694 23.53 81.2294 22.78ZM74.7094 27.26C74.1994 27.74 73.9794 28.43 74.1094 29.11L75.1094 34.31L70.4694 31.75C70.1694 31.58 69.8294 31.5 69.4994 31.5C69.1694 31.5 68.8294 31.58 68.5294 31.75L63.8894 34.31L64.8894 29.11C65.0194 28.43 64.7994 27.74 64.2894 27.26L60.4194 23.64L65.6794 22.98C66.3694 22.89 66.9594 22.47 67.2494 21.84L69.4994 17.04L71.7494 21.84C72.0394 22.47 72.6294 22.9 73.3194 22.98L78.5794 23.64L74.7094 27.26ZM20.0794 36.57C20.7194 36.11 21.0194 35.34 20.8694 34.56L19.7694 28.84L24.0194 24.86C24.5994 24.32 24.7994 23.52 24.5594 22.77C24.3194 22.02 23.6794 21.49 22.8994 21.39L17.1194 20.67L14.6494 15.4C14.3194 14.69 13.6194 14.24 12.8294 14.24C12.0394 14.24 11.3394 14.68 11.0094 15.4L8.53943 20.67L2.75944 21.4C1.97944 21.5 1.33943 22.02 1.09943 22.78C0.859434 23.53 1.05943 24.33 1.63943 24.87L5.88943 28.85L4.78943 34.57C4.63943 35.34 4.93944 36.11 5.57943 36.58C5.92943 36.84 6.34944 36.97 6.75944 36.97C7.08944 36.97 7.42943 36.89 7.72943 36.72L12.8294 33.91L17.9294 36.72C18.6094 37.09 19.4394 37.04 20.0794 36.57ZM12.8194 31.5C12.4894 31.5 12.1494 31.58 11.8494 31.75L7.20943 34.31L8.20943 29.11C8.33943 28.43 8.11944 27.74 7.60944 27.26L3.73943 23.64L8.99943 22.98C9.68944 22.89 10.2794 22.47 10.5694 21.84L12.8194 17.04L15.0694 21.84C15.3694 22.47 15.9494 22.9 16.6394 22.98L21.8994 23.64L18.0294 27.26C17.5194 27.74 17.2994 28.43 17.4294 29.11L18.4294 34.31L13.7894 31.75C13.4894 31.59 13.1594 31.5 12.8194 31.5Z" stroke="#3C7CFF" stroke-width="1.4" mask="url(#path-1-outside-1_206_1512)"/>
</svg>
