<svg width="102" height="92" viewBox="0 0 102 92" fill="none" xmlns="http://www.w3.org/2000/svg">
<mask id="path-1-outside-1_201_23" maskUnits="userSpaceOnUse" x="0" y="0" width="103" height="92" fill="black">
<rect fill="white" width="103" height="92"/>
<path d="M100.552 57.6689C99.7635 56.46 98.2346 56.21 97.7335 56.1278C94.1035 55.5389 90.7412 57.0567 87.7668 58.3978L87.1457 58.6778C83.6668 60.2355 80.1801 61.8733 76.7823 63.5433C75.0868 64.3778 73.3957 65.2267 71.7423 66.0733C72.2401 64.3033 71.6601 62.28 70.2234 61.0889C68.689 59.8155 66.6434 59.7033 64.8423 59.7033H64.8168C62.7779 59.7044 60.7112 59.7644 58.7101 59.82C54.3501 59.9444 49.8367 60.0744 45.4656 59.5967C42.4834 59.2722 39.4423 58.6533 36.5012 58.0555C30.7223 56.8811 24.7511 55.6667 18.77 56.5511L17.9067 56.6778L17.9256 82.3578L48.319 89.1945C50.1345 89.6012 52.139 90.0523 54.1768 90.0523C54.7412 90.0523 55.3112 90.0178 55.8768 89.9367C59.1723 89.4745 61.9801 87.5878 64.4579 85.9223L98.0979 63.3167C98.8735 62.7944 99.7524 62.2044 100.363 61.2911C101.137 60.1378 101.212 58.6811 100.552 57.6689ZM98.6846 60.1689C98.2924 60.7522 97.6213 61.2055 96.9713 61.6422L63.3301 84.2478C61.0345 85.7911 58.4323 87.54 55.5956 87.9389C53.3523 88.2556 51.0167 87.7311 48.7612 87.2234L19.9434 80.7422L19.9289 58.4367C25.2567 57.8322 30.5323 58.9044 36.0978 60.0355C39.0834 60.6422 42.1712 61.2689 45.2456 61.6044C49.7567 62.0956 54.3379 61.9644 58.769 61.8389C60.7545 61.7811 62.8079 61.7233 64.8179 61.7233H64.8456C66.3568 61.7233 67.9157 61.7978 68.9334 62.6422C69.8568 63.4078 70.1668 64.9011 69.6257 65.9711C69.2479 66.7167 68.7134 67.0822 67.9923 67.2478C67.6323 67.2678 67.2445 67.2789 66.8245 67.2922L65.9934 67.32L65.9945 67.3656C65.8334 67.3611 65.6679 67.3544 65.4968 67.3489C65.1157 67.3333 64.7379 67.32 64.3679 67.32H47.7479L47.5567 67.3389C47.3279 67.3822 41.9523 68.4456 39.2578 70.9989L40.6467 72.4656C42.7434 70.4789 47.1645 69.4845 47.8512 69.34H64.3679C64.7123 69.34 65.0634 69.3544 65.4179 69.3678C66.3179 69.4033 67.3168 69.44 68.2668 69.2545C69.4268 69.1845 70.4234 69.03 71.3534 68.5467C73.409 67.4789 75.5346 66.4044 77.6723 65.3544C81.049 63.6944 84.5146 62.0678 87.9724 60.52L88.5979 60.2378C91.4446 58.9533 94.3824 57.62 97.4068 58.12C98.1713 58.2422 98.6601 58.4633 98.8613 58.77C99.1057 59.15 98.9579 59.76 98.6846 60.1689Z"/>
<path d="M14.4678 50.5967H4.01112C2.35 50.5967 1 51.9478 1 53.6078V83.2745C1 84.9345 2.35 86.2856 4.01112 86.2856H14.4678C16.1278 86.2856 17.4789 84.9345 17.4789 83.2745V53.6078C17.4789 51.9467 16.1267 50.5967 14.4678 50.5967ZM15.4578 83.2745C15.4578 83.8212 15.0134 84.2656 14.4667 84.2656H4.01112C3.46445 84.2656 3.02 83.8223 3.02 83.2745V53.6078C3.02 53.0611 3.46445 52.6167 4.01112 52.6167H14.4678C15.0145 52.6167 15.4589 53.06 15.4589 53.6078V83.2745H15.4578Z"/>
<path d="M33.8389 39.2289L28.7878 44.2356L34.8323 50.2245L39.9234 45.1834C42.0589 46.5445 44.3878 47.4834 46.8678 47.9845V55.0556H55.4078V47.9234C57.8578 47.3912 60.2156 46.4045 62.3134 45.0323L67.3645 50.0367L73.409 44.0467L68.3156 39.0012C69.669 36.9067 70.6312 34.5612 71.1356 32.1345H78.2768V23.6556H71.0768C70.5401 21.2334 69.5456 18.9011 68.1679 16.8256L73.2212 11.82L67.1756 5.83112L62.0856 10.8733C59.9501 9.51112 57.6201 8.57223 55.1423 8.07112V1H46.6012V8.13223C44.1523 8.66446 41.7934 9.65112 39.6956 11.0222L34.6445 6.0189L28.6 12.0078L33.6934 17.0522C32.3234 19.1667 31.3778 21.47 30.8722 23.9211H23.7322V32.4H30.9322C31.4667 34.8234 32.46 37.1534 33.8389 39.2289ZM25.75 25.9423H32.5711L32.7089 25.0934C33.1545 22.3489 34.2011 19.7989 35.8211 17.51L36.3167 16.8111L31.4689 12.0089L34.6423 8.86335L39.47 13.6456L40.1634 13.15C42.4489 11.5145 45.0123 10.4411 47.7823 9.96001L48.6189 9.81557V3.02111H53.1189V9.78001L53.9701 9.91557C56.7434 10.3567 59.3223 11.3956 61.6334 13.0022L62.3223 13.4811L67.1723 8.67668L70.3467 11.8222L65.5223 16.6022L66.0345 17.3022C67.6601 19.5322 68.7734 22.14 69.2512 24.8434L69.3979 25.6778H76.2545V30.1167H69.4334L69.2956 30.9645C68.8512 33.7089 67.8023 36.2623 66.1834 38.5489L65.689 39.2489L70.5368 44.049L67.3623 47.1934L62.5356 42.4112L61.8412 42.9078C59.5567 44.5423 56.9934 45.6167 54.2234 46.0956L53.3856 46.2412V53.0345H48.8867V46.2767L48.0356 46.1412C45.2623 45.7001 42.6834 44.6612 40.3723 43.0556L39.6834 42.5756L34.8323 47.3801L31.6578 44.2345L36.4834 39.4556L35.9711 38.7534C34.3234 36.4912 33.2411 33.9545 32.7545 31.2134L32.6078 30.3789H25.7522V25.9423H25.75Z"/>
<path d="M51.0023 40.6533C58.0234 40.6533 63.7368 34.99 63.7368 28.0277C63.7368 21.0655 58.0234 15.4021 51.0023 15.4021C43.9801 15.4021 38.2678 21.0666 38.2678 28.0277C38.2678 34.9911 43.9801 40.6533 51.0023 40.6533ZM51.0023 17.4233C56.9101 17.4233 61.7168 22.181 61.7168 28.0288C61.7168 33.8766 56.9112 38.6344 51.0023 38.6344C45.0934 38.6344 40.2879 33.8766 40.2879 28.0288C40.2879 22.181 45.0934 17.4233 51.0023 17.4233Z"/>
</mask>
<path d="M100.552 57.6689C99.7635 56.46 98.2346 56.21 97.7335 56.1278C94.1035 55.5389 90.7412 57.0567 87.7668 58.3978L87.1457 58.6778C83.6668 60.2355 80.1801 61.8733 76.7823 63.5433C75.0868 64.3778 73.3957 65.2267 71.7423 66.0733C72.2401 64.3033 71.6601 62.28 70.2234 61.0889C68.689 59.8155 66.6434 59.7033 64.8423 59.7033H64.8168C62.7779 59.7044 60.7112 59.7644 58.7101 59.82C54.3501 59.9444 49.8367 60.0744 45.4656 59.5967C42.4834 59.2722 39.4423 58.6533 36.5012 58.0555C30.7223 56.8811 24.7511 55.6667 18.77 56.5511L17.9067 56.6778L17.9256 82.3578L48.319 89.1945C50.1345 89.6012 52.139 90.0523 54.1768 90.0523C54.7412 90.0523 55.3112 90.0178 55.8768 89.9367C59.1723 89.4745 61.9801 87.5878 64.4579 85.9223L98.0979 63.3167C98.8735 62.7944 99.7524 62.2044 100.363 61.2911C101.137 60.1378 101.212 58.6811 100.552 57.6689ZM98.6846 60.1689C98.2924 60.7522 97.6213 61.2055 96.9713 61.6422L63.3301 84.2478C61.0345 85.7911 58.4323 87.54 55.5956 87.9389C53.3523 88.2556 51.0167 87.7311 48.7612 87.2234L19.9434 80.7422L19.9289 58.4367C25.2567 57.8322 30.5323 58.9044 36.0978 60.0355C39.0834 60.6422 42.1712 61.2689 45.2456 61.6044C49.7567 62.0956 54.3379 61.9644 58.769 61.8389C60.7545 61.7811 62.8079 61.7233 64.8179 61.7233H64.8456C66.3568 61.7233 67.9157 61.7978 68.9334 62.6422C69.8568 63.4078 70.1668 64.9011 69.6257 65.9711C69.2479 66.7167 68.7134 67.0822 67.9923 67.2478C67.6323 67.2678 67.2445 67.2789 66.8245 67.2922L65.9934 67.32L65.9945 67.3656C65.8334 67.3611 65.6679 67.3544 65.4968 67.3489C65.1157 67.3333 64.7379 67.32 64.3679 67.32H47.7479L47.5567 67.3389C47.3279 67.3822 41.9523 68.4456 39.2578 70.9989L40.6467 72.4656C42.7434 70.4789 47.1645 69.4845 47.8512 69.34H64.3679C64.7123 69.34 65.0634 69.3544 65.4179 69.3678C66.3179 69.4033 67.3168 69.44 68.2668 69.2545C69.4268 69.1845 70.4234 69.03 71.3534 68.5467C73.409 67.4789 75.5346 66.4044 77.6723 65.3544C81.049 63.6944 84.5146 62.0678 87.9724 60.52L88.5979 60.2378C91.4446 58.9533 94.3824 57.62 97.4068 58.12C98.1713 58.2422 98.6601 58.4633 98.8613 58.77C99.1057 59.15 98.9579 59.76 98.6846 60.1689Z" fill="#3C7CFF"/>
<path d="M14.4678 50.5967H4.01112C2.35 50.5967 1 51.9478 1 53.6078V83.2745C1 84.9345 2.35 86.2856 4.01112 86.2856H14.4678C16.1278 86.2856 17.4789 84.9345 17.4789 83.2745V53.6078C17.4789 51.9467 16.1267 50.5967 14.4678 50.5967ZM15.4578 83.2745C15.4578 83.8212 15.0134 84.2656 14.4667 84.2656H4.01112C3.46445 84.2656 3.02 83.8223 3.02 83.2745V53.6078C3.02 53.0611 3.46445 52.6167 4.01112 52.6167H14.4678C15.0145 52.6167 15.4589 53.06 15.4589 53.6078V83.2745H15.4578Z" fill="#3C7CFF"/>
<path d="M33.8389 39.2289L28.7878 44.2356L34.8323 50.2245L39.9234 45.1834C42.0589 46.5445 44.3878 47.4834 46.8678 47.9845V55.0556H55.4078V47.9234C57.8578 47.3912 60.2156 46.4045 62.3134 45.0323L67.3645 50.0367L73.409 44.0467L68.3156 39.0012C69.669 36.9067 70.6312 34.5612 71.1356 32.1345H78.2768V23.6556H71.0768C70.5401 21.2334 69.5456 18.9011 68.1679 16.8256L73.2212 11.82L67.1756 5.83112L62.0856 10.8733C59.9501 9.51112 57.6201 8.57223 55.1423 8.07112V1H46.6012V8.13223C44.1523 8.66446 41.7934 9.65112 39.6956 11.0222L34.6445 6.0189L28.6 12.0078L33.6934 17.0522C32.3234 19.1667 31.3778 21.47 30.8722 23.9211H23.7322V32.4H30.9322C31.4667 34.8234 32.46 37.1534 33.8389 39.2289ZM25.75 25.9423H32.5711L32.7089 25.0934C33.1545 22.3489 34.2011 19.7989 35.8211 17.51L36.3167 16.8111L31.4689 12.0089L34.6423 8.86335L39.47 13.6456L40.1634 13.15C42.4489 11.5145 45.0123 10.4411 47.7823 9.96001L48.6189 9.81557V3.02111H53.1189V9.78001L53.9701 9.91557C56.7434 10.3567 59.3223 11.3956 61.6334 13.0022L62.3223 13.4811L67.1723 8.67668L70.3467 11.8222L65.5223 16.6022L66.0345 17.3022C67.6601 19.5322 68.7734 22.14 69.2512 24.8434L69.3979 25.6778H76.2545V30.1167H69.4334L69.2956 30.9645C68.8512 33.7089 67.8023 36.2623 66.1834 38.5489L65.689 39.2489L70.5368 44.049L67.3623 47.1934L62.5356 42.4112L61.8412 42.9078C59.5567 44.5423 56.9934 45.6167 54.2234 46.0956L53.3856 46.2412V53.0345H48.8867V46.2767L48.0356 46.1412C45.2623 45.7001 42.6834 44.6612 40.3723 43.0556L39.6834 42.5756L34.8323 47.3801L31.6578 44.2345L36.4834 39.4556L35.9711 38.7534C34.3234 36.4912 33.2411 33.9545 32.7545 31.2134L32.6078 30.3789H25.7522V25.9423H25.75Z" fill="#3C7CFF"/>
<path d="M51.0023 40.6533C58.0234 40.6533 63.7368 34.99 63.7368 28.0277C63.7368 21.0655 58.0234 15.4021 51.0023 15.4021C43.9801 15.4021 38.2678 21.0666 38.2678 28.0277C38.2678 34.9911 43.9801 40.6533 51.0023 40.6533ZM51.0023 17.4233C56.9101 17.4233 61.7168 22.181 61.7168 28.0288C61.7168 33.8766 56.9112 38.6344 51.0023 38.6344C45.0934 38.6344 40.2879 33.8766 40.2879 28.0288C40.2879 22.181 45.0934 17.4233 51.0023 17.4233Z" fill="#3C7CFF"/>
<path d="M100.552 57.6689C99.7635 56.46 98.2346 56.21 97.7335 56.1278C94.1035 55.5389 90.7412 57.0567 87.7668 58.3978L87.1457 58.6778C83.6668 60.2355 80.1801 61.8733 76.7823 63.5433C75.0868 64.3778 73.3957 65.2267 71.7423 66.0733C72.2401 64.3033 71.6601 62.28 70.2234 61.0889C68.689 59.8155 66.6434 59.7033 64.8423 59.7033H64.8168C62.7779 59.7044 60.7112 59.7644 58.7101 59.82C54.3501 59.9444 49.8367 60.0744 45.4656 59.5967C42.4834 59.2722 39.4423 58.6533 36.5012 58.0555C30.7223 56.8811 24.7511 55.6667 18.77 56.5511L17.9067 56.6778L17.9256 82.3578L48.319 89.1945C50.1345 89.6012 52.139 90.0523 54.1768 90.0523C54.7412 90.0523 55.3112 90.0178 55.8768 89.9367C59.1723 89.4745 61.9801 87.5878 64.4579 85.9223L98.0979 63.3167C98.8735 62.7944 99.7524 62.2044 100.363 61.2911C101.137 60.1378 101.212 58.6811 100.552 57.6689ZM98.6846 60.1689C98.2924 60.7522 97.6213 61.2055 96.9713 61.6422L63.3301 84.2478C61.0345 85.7911 58.4323 87.54 55.5956 87.9389C53.3523 88.2556 51.0167 87.7311 48.7612 87.2234L19.9434 80.7422L19.9289 58.4367C25.2567 57.8322 30.5323 58.9044 36.0978 60.0355C39.0834 60.6422 42.1712 61.2689 45.2456 61.6044C49.7567 62.0956 54.3379 61.9644 58.769 61.8389C60.7545 61.7811 62.8079 61.7233 64.8179 61.7233H64.8456C66.3568 61.7233 67.9157 61.7978 68.9334 62.6422C69.8568 63.4078 70.1668 64.9011 69.6257 65.9711C69.2479 66.7167 68.7134 67.0822 67.9923 67.2478C67.6323 67.2678 67.2445 67.2789 66.8245 67.2922L65.9934 67.32L65.9945 67.3656C65.8334 67.3611 65.6679 67.3544 65.4968 67.3489C65.1157 67.3333 64.7379 67.32 64.3679 67.32H47.7479L47.5567 67.3389C47.3279 67.3822 41.9523 68.4456 39.2578 70.9989L40.6467 72.4656C42.7434 70.4789 47.1645 69.4845 47.8512 69.34H64.3679C64.7123 69.34 65.0634 69.3544 65.4179 69.3678C66.3179 69.4033 67.3168 69.44 68.2668 69.2545C69.4268 69.1845 70.4234 69.03 71.3534 68.5467C73.409 67.4789 75.5346 66.4044 77.6723 65.3544C81.049 63.6944 84.5146 62.0678 87.9724 60.52L88.5979 60.2378C91.4446 58.9533 94.3824 57.62 97.4068 58.12C98.1713 58.2422 98.6601 58.4633 98.8613 58.77C99.1057 59.15 98.9579 59.76 98.6846 60.1689Z" stroke="#3C7CFF" stroke-width="2" mask="url(#path-1-outside-1_201_23)"/>
<path d="M14.4678 50.5967H4.01112C2.35 50.5967 1 51.9478 1 53.6078V83.2745C1 84.9345 2.35 86.2856 4.01112 86.2856H14.4678C16.1278 86.2856 17.4789 84.9345 17.4789 83.2745V53.6078C17.4789 51.9467 16.1267 50.5967 14.4678 50.5967ZM15.4578 83.2745C15.4578 83.8212 15.0134 84.2656 14.4667 84.2656H4.01112C3.46445 84.2656 3.02 83.8223 3.02 83.2745V53.6078C3.02 53.0611 3.46445 52.6167 4.01112 52.6167H14.4678C15.0145 52.6167 15.4589 53.06 15.4589 53.6078V83.2745H15.4578Z" stroke="#3C7CFF" stroke-width="2" mask="url(#path-1-outside-1_201_23)"/>
<path d="M33.8389 39.2289L28.7878 44.2356L34.8323 50.2245L39.9234 45.1834C42.0589 46.5445 44.3878 47.4834 46.8678 47.9845V55.0556H55.4078V47.9234C57.8578 47.3912 60.2156 46.4045 62.3134 45.0323L67.3645 50.0367L73.409 44.0467L68.3156 39.0012C69.669 36.9067 70.6312 34.5612 71.1356 32.1345H78.2768V23.6556H71.0768C70.5401 21.2334 69.5456 18.9011 68.1679 16.8256L73.2212 11.82L67.1756 5.83112L62.0856 10.8733C59.9501 9.51112 57.6201 8.57223 55.1423 8.07112V1H46.6012V8.13223C44.1523 8.66446 41.7934 9.65112 39.6956 11.0222L34.6445 6.0189L28.6 12.0078L33.6934 17.0522C32.3234 19.1667 31.3778 21.47 30.8722 23.9211H23.7322V32.4H30.9322C31.4667 34.8234 32.46 37.1534 33.8389 39.2289ZM25.75 25.9423H32.5711L32.7089 25.0934C33.1545 22.3489 34.2011 19.7989 35.8211 17.51L36.3167 16.8111L31.4689 12.0089L34.6423 8.86335L39.47 13.6456L40.1634 13.15C42.4489 11.5145 45.0123 10.4411 47.7823 9.96001L48.6189 9.81557V3.02111H53.1189V9.78001L53.9701 9.91557C56.7434 10.3567 59.3223 11.3956 61.6334 13.0022L62.3223 13.4811L67.1723 8.67668L70.3467 11.8222L65.5223 16.6022L66.0345 17.3022C67.6601 19.5322 68.7734 22.14 69.2512 24.8434L69.3979 25.6778H76.2545V30.1167H69.4334L69.2956 30.9645C68.8512 33.7089 67.8023 36.2623 66.1834 38.5489L65.689 39.2489L70.5368 44.049L67.3623 47.1934L62.5356 42.4112L61.8412 42.9078C59.5567 44.5423 56.9934 45.6167 54.2234 46.0956L53.3856 46.2412V53.0345H48.8867V46.2767L48.0356 46.1412C45.2623 45.7001 42.6834 44.6612 40.3723 43.0556L39.6834 42.5756L34.8323 47.3801L31.6578 44.2345L36.4834 39.4556L35.9711 38.7534C34.3234 36.4912 33.2411 33.9545 32.7545 31.2134L32.6078 30.3789H25.7522V25.9423H25.75Z" stroke="#3C7CFF" stroke-width="2" mask="url(#path-1-outside-1_201_23)"/>
<path d="M51.0023 40.6533C58.0234 40.6533 63.7368 34.99 63.7368 28.0277C63.7368 21.0655 58.0234 15.4021 51.0023 15.4021C43.9801 15.4021 38.2678 21.0666 38.2678 28.0277C38.2678 34.9911 43.9801 40.6533 51.0023 40.6533ZM51.0023 17.4233C56.9101 17.4233 61.7168 22.181 61.7168 28.0288C61.7168 33.8766 56.9112 38.6344 51.0023 38.6344C45.0934 38.6344 40.2879 33.8766 40.2879 28.0288C40.2879 22.181 45.0934 17.4233 51.0023 17.4233Z" stroke="#3C7CFF" stroke-width="2" mask="url(#path-1-outside-1_201_23)"/>
</svg>
