<svg width="81" height="102" viewBox="0 0 81 102" fill="none" xmlns="http://www.w3.org/2000/svg">
<mask id="path-1-outside-1_154_3" maskUnits="userSpaceOnUse" x="0" y="0" width="81" height="102" fill="black">
<rect fill="white" width="81" height="102"/>
<path d="M75.9954 38.7833C76.046 37.9034 75.3737 37.1483 74.4938 37.0978C73.6042 37.0526 72.8577 37.7195 72.8083 38.5994C72.0015 52.5731 62.9585 62.0055 57.5545 67.6419C56.8542 68.3723 56.2508 69.0102 55.7001 69.6125C55.6291 69.6104 55.5602 69.6018 55.4892 69.6018H25.4323C25.3624 69.6018 25.2946 69.6104 25.2247 69.6125C24.6729 69.0091 24.0684 68.3701 23.366 67.6376C17.963 62.0012 8.91786 52.5678 8.11328 38.5983C8.06272 37.7184 7.30761 37.0472 6.42773 37.0967C5.54785 37.1472 4.87449 37.9023 4.92612 38.7822C5.79955 53.9285 15.3535 63.8922 21.062 69.8459C21.3696 70.1675 21.6579 70.4687 21.9365 70.7613C20.4854 71.8359 19.5388 73.5559 19.5388 75.4963C19.5388 77.1916 20.2627 78.7179 21.4126 79.7935C20.2627 80.8703 19.5388 82.3955 19.5388 84.0908C19.5388 87.3403 22.1828 89.9843 25.4334 89.9843H26.9684C28.3204 97.4267 34.3011 100.887 39.9224 100.998C40.0117 100.998 40.102 101 40.1913 101C45.7965 101 52.1644 97.5687 53.8263 89.9843H55.4914C58.7409 89.9843 61.3859 87.3403 61.3859 84.0908C61.3859 82.3955 60.662 80.8692 59.5122 79.7935C60.662 78.7168 61.3859 77.1916 61.3859 75.4963C61.3859 73.5569 60.4404 71.838 58.9905 70.7635C59.268 70.472 59.5552 70.1719 59.8617 69.8513C65.5702 63.8965 75.1241 53.9306 75.9986 38.7822L75.9954 38.7833ZM40.2053 97.8085C40.1311 97.8085 40.0569 97.8085 39.9826 97.8064C35.8586 97.7257 31.4743 95.2635 30.2276 89.9853H50.5423C49.045 95.3905 44.4756 97.8085 40.2053 97.8085ZM58.1902 84.0929C58.1902 85.5816 56.979 86.7928 55.4892 86.7928H25.4323C23.9425 86.7928 22.7314 85.5816 22.7314 84.0929C22.7314 82.6042 23.9425 81.392 25.4323 81.392H55.4892C56.979 81.392 58.1902 82.6031 58.1902 84.0929ZM25.4312 78.1994C23.9415 78.1994 22.7303 76.9883 22.7303 75.4985C22.7303 74.0087 23.9415 72.7964 25.4312 72.7964H55.4881C56.9779 72.7964 58.1891 74.0087 58.1891 75.4985C58.1891 76.9883 56.9779 78.1994 55.4881 78.1994H25.4312ZM7.63461 21.8214C12.8827 8.98132 25.4571 1.00323 40.4516 1H40.4592C55.4527 1 68.027 8.97272 73.2805 21.8095C73.6139 22.626 73.2235 23.5575 72.4071 23.892C71.5906 24.2254 70.6591 23.835 70.3246 23.0186C64.6452 9.13945 51.1737 4.19361 40.4592 4.19361H40.4527C29.7382 4.19576 16.2656 9.14482 10.5905 23.0293C10.3377 23.6478 9.74074 24.0221 9.11148 24.0221C8.91033 24.0221 8.70596 23.9834 8.50804 23.9028C7.69162 23.5693 7.30008 22.6378 7.63461 21.8214ZM74.9467 25.4775C72.7652 25.4775 70.928 26.8974 70.259 28.855H56.6208C55.7388 28.855 55.0245 29.5704 55.0245 30.4513V48.9245C53.0679 49.5936 51.6481 51.4308 51.6481 53.6111C51.6481 56.354 53.879 58.5849 56.6208 58.5849C59.3626 58.5849 61.5957 56.354 61.5957 53.6111C61.5957 51.4297 60.1748 49.5936 58.2182 48.9245V32.0487H70.2601C70.9291 34.0063 72.7663 35.4262 74.9477 35.4262C77.6896 35.4262 79.9205 33.1942 79.9205 30.4513C79.9205 27.7084 77.6896 25.4775 74.9477 25.4775H74.9467ZM56.6197 55.3913C55.6387 55.3913 54.8406 54.5932 54.8406 53.6111C54.8406 52.6291 55.6387 51.8309 56.6197 51.8309C57.6007 51.8309 58.401 52.6301 58.401 53.6111C58.401 54.5921 57.6018 55.3913 56.6197 55.3913ZM74.9467 32.2326C73.9646 32.2326 73.1654 31.4334 73.1654 30.4513C73.1654 29.4692 73.9646 28.6711 74.9467 28.6711C75.9287 28.6711 76.7258 29.4703 76.7258 30.4513C76.7258 31.4323 75.9277 32.2326 74.9467 32.2326ZM10.6604 32.0487H22.7023V48.9245C20.7457 49.5936 19.3248 51.4308 19.3248 53.6111C19.3248 56.354 21.5557 58.5849 24.2986 58.5849C27.0415 58.5849 29.2724 56.354 29.2724 53.6111C29.2724 51.4297 27.8525 49.5936 25.8959 48.9245V30.4513C25.8959 29.5693 25.1806 28.855 24.2997 28.855H10.6615C9.99244 26.8984 8.15415 25.4775 5.97381 25.4775C3.23198 25.4775 1 27.7084 1 30.4513C1 33.1942 3.2309 35.4262 5.97381 35.4262C8.15523 35.4262 9.99136 34.0053 10.6604 32.0487ZM24.2986 55.3924C23.3165 55.3924 22.5184 54.5943 22.5184 53.6122C22.5184 52.6301 23.3176 51.832 24.2986 51.832C25.2796 51.832 26.0788 52.6312 26.0788 53.6122C26.0788 54.5932 25.2807 55.3924 24.2986 55.3924ZM4.19253 30.4524C4.19253 29.4703 4.99066 28.6722 5.97273 28.6722C6.9548 28.6722 7.75401 29.4714 7.75401 30.4524C7.75401 31.4334 6.9548 32.2337 5.97273 32.2337C4.99066 32.2337 4.19253 31.4345 4.19253 30.4524ZM45.433 16.0462C45.433 13.3033 43.2021 11.0724 40.4592 11.0724C37.7163 11.0724 35.4843 13.3033 35.4843 16.0462C35.4843 18.2276 36.9052 20.0648 38.8618 20.7339V56.0539C36.9041 56.723 35.4843 58.5602 35.4843 60.7406C35.4843 63.4835 37.7163 65.7154 40.4592 65.7154C43.2021 65.7154 45.433 63.4835 45.433 60.7406C45.433 58.5602 44.0131 56.723 42.0554 56.0539V20.7328C44.012 20.0638 45.433 18.2265 45.433 16.0462ZM40.4592 14.266C41.4412 14.266 42.2394 15.0652 42.2394 16.0462C42.2394 17.0272 41.4402 17.8275 40.4592 17.8275C39.4782 17.8275 38.6779 17.0283 38.6779 16.0462C38.6779 15.0641 39.4771 14.266 40.4592 14.266ZM40.4592 62.5229C39.4771 62.5229 38.6779 61.7237 38.6779 60.7416C38.6779 59.7596 39.4771 58.9625 40.4592 58.9625C41.4412 58.9625 42.2394 59.7606 42.2394 60.7416C42.2394 61.7226 41.4402 62.5229 40.4592 62.5229Z"/>
</mask>
<path d="M75.9954 38.7833C76.046 37.9034 75.3737 37.1483 74.4938 37.0978C73.6042 37.0526 72.8577 37.7195 72.8083 38.5994C72.0015 52.5731 62.9585 62.0055 57.5545 67.6419C56.8542 68.3723 56.2508 69.0102 55.7001 69.6125C55.6291 69.6104 55.5602 69.6018 55.4892 69.6018H25.4323C25.3624 69.6018 25.2946 69.6104 25.2247 69.6125C24.6729 69.0091 24.0684 68.3701 23.366 67.6376C17.963 62.0012 8.91786 52.5678 8.11328 38.5983C8.06272 37.7184 7.30761 37.0472 6.42773 37.0967C5.54785 37.1472 4.87449 37.9023 4.92612 38.7822C5.79955 53.9285 15.3535 63.8922 21.062 69.8459C21.3696 70.1675 21.6579 70.4687 21.9365 70.7613C20.4854 71.8359 19.5388 73.5559 19.5388 75.4963C19.5388 77.1916 20.2627 78.7179 21.4126 79.7935C20.2627 80.8703 19.5388 82.3955 19.5388 84.0908C19.5388 87.3403 22.1828 89.9843 25.4334 89.9843H26.9684C28.3204 97.4267 34.3011 100.887 39.9224 100.998C40.0117 100.998 40.102 101 40.1913 101C45.7965 101 52.1644 97.5687 53.8263 89.9843H55.4914C58.7409 89.9843 61.3859 87.3403 61.3859 84.0908C61.3859 82.3955 60.662 80.8692 59.5122 79.7935C60.662 78.7168 61.3859 77.1916 61.3859 75.4963C61.3859 73.5569 60.4404 71.838 58.9905 70.7635C59.268 70.472 59.5552 70.1719 59.8617 69.8513C65.5702 63.8965 75.1241 53.9306 75.9986 38.7822L75.9954 38.7833ZM40.2053 97.8085C40.1311 97.8085 40.0569 97.8085 39.9826 97.8064C35.8586 97.7257 31.4743 95.2635 30.2276 89.9853H50.5423C49.045 95.3905 44.4756 97.8085 40.2053 97.8085ZM58.1902 84.0929C58.1902 85.5816 56.979 86.7928 55.4892 86.7928H25.4323C23.9425 86.7928 22.7314 85.5816 22.7314 84.0929C22.7314 82.6042 23.9425 81.392 25.4323 81.392H55.4892C56.979 81.392 58.1902 82.6031 58.1902 84.0929ZM25.4312 78.1994C23.9415 78.1994 22.7303 76.9883 22.7303 75.4985C22.7303 74.0087 23.9415 72.7964 25.4312 72.7964H55.4881C56.9779 72.7964 58.1891 74.0087 58.1891 75.4985C58.1891 76.9883 56.9779 78.1994 55.4881 78.1994H25.4312ZM7.63461 21.8214C12.8827 8.98132 25.4571 1.00323 40.4516 1H40.4592C55.4527 1 68.027 8.97272 73.2805 21.8095C73.6139 22.626 73.2235 23.5575 72.4071 23.892C71.5906 24.2254 70.6591 23.835 70.3246 23.0186C64.6452 9.13945 51.1737 4.19361 40.4592 4.19361H40.4527C29.7382 4.19576 16.2656 9.14482 10.5905 23.0293C10.3377 23.6478 9.74074 24.0221 9.11148 24.0221C8.91033 24.0221 8.70596 23.9834 8.50804 23.9028C7.69162 23.5693 7.30008 22.6378 7.63461 21.8214ZM74.9467 25.4775C72.7652 25.4775 70.928 26.8974 70.259 28.855H56.6208C55.7388 28.855 55.0245 29.5704 55.0245 30.4513V48.9245C53.0679 49.5936 51.6481 51.4308 51.6481 53.6111C51.6481 56.354 53.879 58.5849 56.6208 58.5849C59.3626 58.5849 61.5957 56.354 61.5957 53.6111C61.5957 51.4297 60.1748 49.5936 58.2182 48.9245V32.0487H70.2601C70.9291 34.0063 72.7663 35.4262 74.9477 35.4262C77.6896 35.4262 79.9205 33.1942 79.9205 30.4513C79.9205 27.7084 77.6896 25.4775 74.9477 25.4775H74.9467ZM56.6197 55.3913C55.6387 55.3913 54.8406 54.5932 54.8406 53.6111C54.8406 52.6291 55.6387 51.8309 56.6197 51.8309C57.6007 51.8309 58.401 52.6301 58.401 53.6111C58.401 54.5921 57.6018 55.3913 56.6197 55.3913ZM74.9467 32.2326C73.9646 32.2326 73.1654 31.4334 73.1654 30.4513C73.1654 29.4692 73.9646 28.6711 74.9467 28.6711C75.9287 28.6711 76.7258 29.4703 76.7258 30.4513C76.7258 31.4323 75.9277 32.2326 74.9467 32.2326ZM10.6604 32.0487H22.7023V48.9245C20.7457 49.5936 19.3248 51.4308 19.3248 53.6111C19.3248 56.354 21.5557 58.5849 24.2986 58.5849C27.0415 58.5849 29.2724 56.354 29.2724 53.6111C29.2724 51.4297 27.8525 49.5936 25.8959 48.9245V30.4513C25.8959 29.5693 25.1806 28.855 24.2997 28.855H10.6615C9.99244 26.8984 8.15415 25.4775 5.97381 25.4775C3.23198 25.4775 1 27.7084 1 30.4513C1 33.1942 3.2309 35.4262 5.97381 35.4262C8.15523 35.4262 9.99136 34.0053 10.6604 32.0487ZM24.2986 55.3924C23.3165 55.3924 22.5184 54.5943 22.5184 53.6122C22.5184 52.6301 23.3176 51.832 24.2986 51.832C25.2796 51.832 26.0788 52.6312 26.0788 53.6122C26.0788 54.5932 25.2807 55.3924 24.2986 55.3924ZM4.19253 30.4524C4.19253 29.4703 4.99066 28.6722 5.97273 28.6722C6.9548 28.6722 7.75401 29.4714 7.75401 30.4524C7.75401 31.4334 6.9548 32.2337 5.97273 32.2337C4.99066 32.2337 4.19253 31.4345 4.19253 30.4524ZM45.433 16.0462C45.433 13.3033 43.2021 11.0724 40.4592 11.0724C37.7163 11.0724 35.4843 13.3033 35.4843 16.0462C35.4843 18.2276 36.9052 20.0648 38.8618 20.7339V56.0539C36.9041 56.723 35.4843 58.5602 35.4843 60.7406C35.4843 63.4835 37.7163 65.7154 40.4592 65.7154C43.2021 65.7154 45.433 63.4835 45.433 60.7406C45.433 58.5602 44.0131 56.723 42.0554 56.0539V20.7328C44.012 20.0638 45.433 18.2265 45.433 16.0462ZM40.4592 14.266C41.4412 14.266 42.2394 15.0652 42.2394 16.0462C42.2394 17.0272 41.4402 17.8275 40.4592 17.8275C39.4782 17.8275 38.6779 17.0283 38.6779 16.0462C38.6779 15.0641 39.4771 14.266 40.4592 14.266ZM40.4592 62.5229C39.4771 62.5229 38.6779 61.7237 38.6779 60.7416C38.6779 59.7596 39.4771 58.9625 40.4592 58.9625C41.4412 58.9625 42.2394 59.7606 42.2394 60.7416C42.2394 61.7226 41.4402 62.5229 40.4592 62.5229Z" fill="#3C7CFF"/>
<path d="M75.9954 38.7833C76.046 37.9034 75.3737 37.1483 74.4938 37.0978C73.6042 37.0526 72.8577 37.7195 72.8083 38.5994C72.0015 52.5731 62.9585 62.0055 57.5545 67.6419C56.8542 68.3723 56.2508 69.0102 55.7001 69.6125C55.6291 69.6104 55.5602 69.6018 55.4892 69.6018H25.4323C25.3624 69.6018 25.2946 69.6104 25.2247 69.6125C24.6729 69.0091 24.0684 68.3701 23.366 67.6376C17.963 62.0012 8.91786 52.5678 8.11328 38.5983C8.06272 37.7184 7.30761 37.0472 6.42773 37.0967C5.54785 37.1472 4.87449 37.9023 4.92612 38.7822C5.79955 53.9285 15.3535 63.8922 21.062 69.8459C21.3696 70.1675 21.6579 70.4687 21.9365 70.7613C20.4854 71.8359 19.5388 73.5559 19.5388 75.4963C19.5388 77.1916 20.2627 78.7179 21.4126 79.7935C20.2627 80.8703 19.5388 82.3955 19.5388 84.0908C19.5388 87.3403 22.1828 89.9843 25.4334 89.9843H26.9684C28.3204 97.4267 34.3011 100.887 39.9224 100.998C40.0117 100.998 40.102 101 40.1913 101C45.7965 101 52.1644 97.5687 53.8263 89.9843H55.4914C58.7409 89.9843 61.3859 87.3403 61.3859 84.0908C61.3859 82.3955 60.662 80.8692 59.5122 79.7935C60.662 78.7168 61.3859 77.1916 61.3859 75.4963C61.3859 73.5569 60.4404 71.838 58.9905 70.7635C59.268 70.472 59.5552 70.1719 59.8617 69.8513C65.5702 63.8965 75.1241 53.9306 75.9986 38.7822L75.9954 38.7833ZM40.2053 97.8085C40.1311 97.8085 40.0569 97.8085 39.9826 97.8064C35.8586 97.7257 31.4743 95.2635 30.2276 89.9853H50.5423C49.045 95.3905 44.4756 97.8085 40.2053 97.8085ZM58.1902 84.0929C58.1902 85.5816 56.979 86.7928 55.4892 86.7928H25.4323C23.9425 86.7928 22.7314 85.5816 22.7314 84.0929C22.7314 82.6042 23.9425 81.392 25.4323 81.392H55.4892C56.979 81.392 58.1902 82.6031 58.1902 84.0929ZM25.4312 78.1994C23.9415 78.1994 22.7303 76.9883 22.7303 75.4985C22.7303 74.0087 23.9415 72.7964 25.4312 72.7964H55.4881C56.9779 72.7964 58.1891 74.0087 58.1891 75.4985C58.1891 76.9883 56.9779 78.1994 55.4881 78.1994H25.4312ZM7.63461 21.8214C12.8827 8.98132 25.4571 1.00323 40.4516 1H40.4592C55.4527 1 68.027 8.97272 73.2805 21.8095C73.6139 22.626 73.2235 23.5575 72.4071 23.892C71.5906 24.2254 70.6591 23.835 70.3246 23.0186C64.6452 9.13945 51.1737 4.19361 40.4592 4.19361H40.4527C29.7382 4.19576 16.2656 9.14482 10.5905 23.0293C10.3377 23.6478 9.74074 24.0221 9.11148 24.0221C8.91033 24.0221 8.70596 23.9834 8.50804 23.9028C7.69162 23.5693 7.30008 22.6378 7.63461 21.8214ZM74.9467 25.4775C72.7652 25.4775 70.928 26.8974 70.259 28.855H56.6208C55.7388 28.855 55.0245 29.5704 55.0245 30.4513V48.9245C53.0679 49.5936 51.6481 51.4308 51.6481 53.6111C51.6481 56.354 53.879 58.5849 56.6208 58.5849C59.3626 58.5849 61.5957 56.354 61.5957 53.6111C61.5957 51.4297 60.1748 49.5936 58.2182 48.9245V32.0487H70.2601C70.9291 34.0063 72.7663 35.4262 74.9477 35.4262C77.6896 35.4262 79.9205 33.1942 79.9205 30.4513C79.9205 27.7084 77.6896 25.4775 74.9477 25.4775H74.9467ZM56.6197 55.3913C55.6387 55.3913 54.8406 54.5932 54.8406 53.6111C54.8406 52.6291 55.6387 51.8309 56.6197 51.8309C57.6007 51.8309 58.401 52.6301 58.401 53.6111C58.401 54.5921 57.6018 55.3913 56.6197 55.3913ZM74.9467 32.2326C73.9646 32.2326 73.1654 31.4334 73.1654 30.4513C73.1654 29.4692 73.9646 28.6711 74.9467 28.6711C75.9287 28.6711 76.7258 29.4703 76.7258 30.4513C76.7258 31.4323 75.9277 32.2326 74.9467 32.2326ZM10.6604 32.0487H22.7023V48.9245C20.7457 49.5936 19.3248 51.4308 19.3248 53.6111C19.3248 56.354 21.5557 58.5849 24.2986 58.5849C27.0415 58.5849 29.2724 56.354 29.2724 53.6111C29.2724 51.4297 27.8525 49.5936 25.8959 48.9245V30.4513C25.8959 29.5693 25.1806 28.855 24.2997 28.855H10.6615C9.99244 26.8984 8.15415 25.4775 5.97381 25.4775C3.23198 25.4775 1 27.7084 1 30.4513C1 33.1942 3.2309 35.4262 5.97381 35.4262C8.15523 35.4262 9.99136 34.0053 10.6604 32.0487ZM24.2986 55.3924C23.3165 55.3924 22.5184 54.5943 22.5184 53.6122C22.5184 52.6301 23.3176 51.832 24.2986 51.832C25.2796 51.832 26.0788 52.6312 26.0788 53.6122C26.0788 54.5932 25.2807 55.3924 24.2986 55.3924ZM4.19253 30.4524C4.19253 29.4703 4.99066 28.6722 5.97273 28.6722C6.9548 28.6722 7.75401 29.4714 7.75401 30.4524C7.75401 31.4334 6.9548 32.2337 5.97273 32.2337C4.99066 32.2337 4.19253 31.4345 4.19253 30.4524ZM45.433 16.0462C45.433 13.3033 43.2021 11.0724 40.4592 11.0724C37.7163 11.0724 35.4843 13.3033 35.4843 16.0462C35.4843 18.2276 36.9052 20.0648 38.8618 20.7339V56.0539C36.9041 56.723 35.4843 58.5602 35.4843 60.7406C35.4843 63.4835 37.7163 65.7154 40.4592 65.7154C43.2021 65.7154 45.433 63.4835 45.433 60.7406C45.433 58.5602 44.0131 56.723 42.0554 56.0539V20.7328C44.012 20.0638 45.433 18.2265 45.433 16.0462ZM40.4592 14.266C41.4412 14.266 42.2394 15.0652 42.2394 16.0462C42.2394 17.0272 41.4402 17.8275 40.4592 17.8275C39.4782 17.8275 38.6779 17.0283 38.6779 16.0462C38.6779 15.0641 39.4771 14.266 40.4592 14.266ZM40.4592 62.5229C39.4771 62.5229 38.6779 61.7237 38.6779 60.7416C38.6779 59.7596 39.4771 58.9625 40.4592 58.9625C41.4412 58.9625 42.2394 59.7606 42.2394 60.7416C42.2394 61.7226 41.4402 62.5229 40.4592 62.5229Z" stroke="#3C7CFF" stroke-width="0.8" mask="url(#path-1-outside-1_154_3)"/>
</svg>
