<svg width="100" height="100" viewBox="0 0 100 100" fill="none" xmlns="http://www.w3.org/2000/svg">
<path d="M94.299 0H5.70121C2.5567 0 0 2.5567 0 5.70121V94.297C0 97.4415 2.5567 100 5.70121 100H94.299C97.4435 100 100 97.4415 100 94.297V5.70121C100 2.5567 97.4435 0 94.299 0ZM5.70121 4.00007H94.299C95.2364 4.00007 96.0001 4.76376 96.0001 5.70121V19.9902H4.00007V5.70121C4.00007 4.76376 4.76376 4.00007 5.70121 4.00007ZM94.299 96.0001H5.70121C4.76376 96.0001 4.00007 95.2364 4.00007 94.297V23.9903H96.0001V94.297C96.0001 95.2364 95.2364 96.0001 94.299 96.0001Z" fill="#3C7CFF"/>
<path d="M83.7833 13.9943H86.504C87.6094 13.9943 88.5041 13.0998 88.5041 11.9943C88.5041 10.8888 87.6094 9.99438 86.504 9.99438H83.7833C82.6778 9.99438 81.7834 10.8888 81.7834 11.9943C81.7834 13.0998 82.6778 13.9943 83.7833 13.9943Z" fill="#3C7CFF"/>
<path d="M73.5372 13.9943H76.2579C77.3634 13.9943 78.258 13.0998 78.258 11.9943C78.258 10.8888 77.3634 9.99438 76.2579 9.99438H73.5372C72.4317 9.99438 71.5373 10.8888 71.5373 11.9943C71.5373 13.0998 72.4317 13.9943 73.5372 13.9943Z" fill="#3C7CFF"/>
<path d="M63.2892 13.9943H66.0098C67.1153 13.9943 68.0099 13.0998 68.0099 11.9943C68.0099 10.8888 67.1153 9.99438 66.0098 9.99438H63.2892C62.1837 9.99438 61.2892 10.8888 61.2892 11.9943C61.2892 13.0998 62.1837 13.9943 63.2892 13.9943Z" fill="#3C7CFF"/>
<path d="M13.4942 13.9943H48.1778C49.2833 13.9943 50.1778 13.0998 50.1778 11.9943C50.1778 10.8888 49.2833 9.99438 48.1778 9.99438H13.4942C12.3887 9.99438 11.4941 10.8888 11.4941 11.9943C11.4941 13.0998 12.3887 13.9943 13.4942 13.9943Z" fill="#3C7CFF"/>
<path d="M73.5364 35.4137L78.2637 40.1425C78.6544 40.5332 79.1662 40.7285 79.6778 40.7285C80.1896 40.7285 80.7012 40.5332 81.0919 40.1425C81.8731 39.3613 81.8731 38.0956 81.0919 37.3144L73.0586 29.2793C72.9537 29.1744 72.8178 29.1188 72.6934 29.0433C72.3837 28.8465 72.0373 28.7031 71.6427 28.7031C71.2097 28.7031 70.8308 28.8695 70.5035 29.103C70.4138 29.1649 70.309 29.2009 70.2306 29.2793L62.1974 37.3144C61.4161 38.0956 61.4161 39.3613 62.1974 40.1425C62.9786 40.9238 64.2443 40.9238 65.0255 40.1425L69.5252 35.6414C68.3503 56.4579 52.2186 73.667 31.4964 76.0885C30.6413 73.3154 28.3001 71.1611 25.4161 70.6192C22.1564 70.0059 18.8947 71.3945 17.1192 74.1739C15.2735 77.0665 15.4961 80.7676 17.7012 83.8339C17.9278 84.1465 18.2111 84.4278 18.5118 84.6406C20.1934 85.8515 22.0665 86.4629 23.8946 86.4629C25.3926 86.4629 26.8595 86.0508 28.1621 85.2207C30.029 84.0324 31.2522 82.171 31.6814 80.0908C54.6099 77.5523 72.458 58.4518 73.5364 35.4137ZM26.0137 81.8477C24.4824 82.8183 22.6016 82.6542 20.9435 81.4922C19.6817 79.7363 19.5176 77.8535 20.4922 76.3242C21.2384 75.1543 22.5157 74.4746 23.8868 74.4746C24.1465 74.4746 24.4102 74.5 24.6738 74.5488C26.2169 74.8398 27.5001 76.123 27.793 77.67C28.1056 79.3203 27.4082 80.9609 26.0137 81.8477Z" fill="#3C7CFF"/>
<path d="M31.502 46.4435C31.8927 46.8341 32.4045 47.0295 32.9161 47.0295C33.4279 47.0295 33.9395 46.8341 34.3302 46.4435L36.4854 44.2894L38.6407 46.4435C39.0314 46.8341 39.5432 47.0295 40.0548 47.0295C40.5666 47.0295 41.0782 46.8341 41.4689 46.4435C42.2501 45.6623 42.2501 44.3966 41.4689 43.6154L39.3143 41.462L41.4689 39.3087C42.2501 38.5275 42.2501 37.2618 41.4689 36.4807C40.6875 35.6995 39.422 35.6995 38.6407 36.4807L36.4854 38.6348L34.3302 36.4807C33.5489 35.6995 32.2833 35.6995 31.502 36.4807C30.7208 37.2618 30.7208 38.5275 31.502 39.3087L33.6566 41.462L31.502 43.6154C30.7208 44.3966 30.7208 45.6623 31.502 46.4435Z" fill="#3C7CFF"/>
<path d="M76.131 75.2949C71.7189 75.2949 68.1309 78.8829 68.1309 83.2951C68.1309 87.707 71.7189 91.295 76.131 91.295C80.543 91.295 84.131 87.707 84.131 83.2951C84.131 78.8829 80.543 75.2949 76.131 75.2949ZM76.131 87.295C73.9259 87.295 72.131 85.5 72.131 83.2951C72.131 81.09 73.9259 79.295 76.131 79.295C78.336 79.295 80.1309 81.09 80.1309 83.2951C80.1309 85.5 78.336 87.295 76.131 87.295Z" fill="#3C7CFF"/>
</svg>
