<svg width="98" height="98" viewBox="0 0 98 98" fill="none" xmlns="http://www.w3.org/2000/svg">
<mask id="path-1-outside-1_206_1602" maskUnits="userSpaceOnUse" x="0" y="0" width="98" height="98" fill="black">
<rect fill="white" width="98" height="98"/>
<path d="M88.9993 15.4007H84.9353C83.1753 13.4423 80.6329 12.2007 77.7994 12.2007C77.617 12.2007 77.433 12.2215 77.249 12.2327L74.5434 2.1848C74.4154 1.7112 74.0778 1.32241 73.6282 1.13041C73.1786 0.935211 72.6618 0.96081 72.233 1.19601L63.4891 5.96557H63.4859L46.1916 15.4007H8.99993C4.58877 15.4007 1 18.9895 1 23.4006V81.0001C1 85.4113 4.58877 89.0001 8.99993 89.0001H32.8701L28.5502 94.4C28.1662 94.8816 28.0926 95.5392 28.3582 96.0944C28.6254 96.6464 29.1838 97 29.7998 97H68.1994C68.8154 97 69.3738 96.6464 69.641 96.0944C69.9066 95.5392 69.833 94.8816 69.449 94.4L65.1291 89.0001H88.9993C93.4104 89.0001 96.9992 85.4113 96.9992 81.0001V23.4006C96.9992 18.9895 93.4104 15.4007 88.9993 15.4007ZM88.9993 18.6007C91.6456 18.6007 93.7992 20.7542 93.7992 23.4006V74.6002H44.1996V71.4002H47.3996C50.046 71.4002 52.1996 69.2466 52.1996 66.6003C52.1996 65.3715 51.7356 64.2499 50.974 63.4003C51.7356 62.5507 52.1996 61.4291 52.1996 60.2003C52.1996 58.9715 51.7356 57.8499 50.974 57.0003C51.7356 56.1507 52.1996 55.0292 52.1996 53.8004C52.1996 52.5716 51.7356 51.45 50.974 50.6004C51.7356 49.7508 52.1996 48.6292 52.1996 47.4004C52.1996 46.8372 52.0844 46.3028 51.9052 45.8004H84.1993C84.6985 45.8004 85.1657 45.5684 85.4697 45.1732C85.7737 44.778 85.8745 44.2644 85.7449 43.7844L82.1241 30.335C82.1273 30.3334 82.1305 30.3302 82.1353 30.3286C82.1417 30.3254 82.1465 30.3222 82.1513 30.319C82.5769 30.103 82.9785 29.855 83.3625 29.5846C83.4841 29.4982 83.5929 29.399 83.7097 29.3078C83.9673 29.1078 84.2185 28.903 84.4521 28.679C84.5785 28.5574 84.6937 28.4278 84.8137 28.2998C85.0153 28.0838 85.2105 27.8646 85.3913 27.631C85.5049 27.4854 85.6105 27.335 85.7145 27.183C85.8777 26.9462 86.0281 26.703 86.1689 26.4534C86.2601 26.2902 86.3481 26.1286 86.4297 25.9606C86.5577 25.6982 86.6665 25.4278 86.7705 25.1542C86.8345 24.9846 86.9017 24.8182 86.9561 24.6454C87.0505 24.3414 87.1209 24.0278 87.1849 23.7126C87.2169 23.559 87.2601 23.4086 87.2825 23.2534C87.3561 22.7766 87.3993 22.2934 87.3993 21.8006C87.3993 21.2838 87.3465 20.7782 87.2681 20.2838C87.2585 20.2246 87.2521 20.1654 87.2409 20.1078C87.1481 19.5895 87.0121 19.0887 86.8393 18.6023H88.9993V18.6007ZM13.2319 42.6005C11.9855 39.5349 11.9855 36.0661 13.2319 33.0005H18.5999V42.6005H13.2319ZM47.366 18.4055L63.2363 9.74794L72.081 42.6005H21.7998V32.3509L47.366 18.4055ZM24.9998 45.8004H47.3996C48.2828 45.8004 48.9996 46.5172 48.9996 47.4004C48.9996 48.2836 48.2828 49.0004 47.3996 49.0004H42.5997C41.7149 49.0004 40.9997 49.7156 40.9997 50.6004C40.9997 51.4852 41.7149 52.2004 42.5997 52.2004H47.3996C48.2828 52.2004 48.9996 52.9172 48.9996 53.8004C48.9996 54.6836 48.2828 55.4003 47.3996 55.4003H42.5997C41.7149 55.4003 40.9997 56.1155 40.9997 57.0003C40.9997 57.8851 41.7149 58.6003 42.5997 58.6003H47.3996C48.2828 58.6003 48.9996 59.3171 48.9996 60.2003C48.9996 61.0835 48.2828 61.8003 47.3996 61.8003H42.5997C41.7149 61.8003 40.9997 62.5155 40.9997 63.4003C40.9997 64.2851 41.7149 65.0003 42.5997 65.0003H47.3996C48.2828 65.0003 48.9996 65.7171 48.9996 66.6003C48.9996 67.4835 48.2828 68.2002 47.3996 68.2002H42.5997C41.7149 68.2002 40.9997 68.9154 40.9997 69.8002V74.6002H24.9998V45.8004ZM82.8889 17.9671C83.0857 18.2295 83.2569 18.5031 83.4105 18.7831C83.4377 18.8343 83.4649 18.8855 83.4921 18.9383C83.6169 19.1783 83.7225 19.4263 83.8137 19.6775C83.8649 19.8231 83.9065 19.9718 83.9481 20.1222C84.0009 20.3078 84.0553 20.4934 84.0905 20.6838C84.1545 21.047 84.1993 21.4182 84.1993 21.8006C84.1993 22.1174 84.1689 22.4278 84.1241 22.735C84.1097 22.831 84.0873 22.9222 84.0697 23.0166C84.0281 23.2294 83.9785 23.439 83.9161 23.6438C83.8857 23.743 83.8537 23.8422 83.8185 23.9398C83.7449 24.1446 83.6585 24.3446 83.5641 24.5398C83.5257 24.6182 83.4921 24.6998 83.4521 24.7766C83.3097 25.0438 83.1529 25.3014 82.9737 25.5446C82.9577 25.567 82.9369 25.5878 82.9193 25.6102C82.7545 25.8294 82.5737 26.0358 82.3817 26.2326C82.3177 26.2982 82.2489 26.359 82.1817 26.4214C82.0233 26.5702 81.8569 26.711 81.6809 26.8438C81.6025 26.903 81.5241 26.9622 81.4425 27.0182C81.3849 27.0582 81.3209 27.0902 81.2601 27.1286L81.0393 26.3094L78.105 15.4103C80.0649 15.5015 81.7769 16.4951 82.8889 17.9671ZM74.5226 14.4135V14.4167L78.6665 29.8054L82.1113 42.6005H75.3946L66.1258 8.17195L71.9834 4.97678L74.5226 14.4135ZM8.99993 18.6007H40.3245L19.7918 29.8006H12.1999C11.5935 29.8006 11.0399 30.143 10.7679 30.6854C8.53914 35.1413 8.53914 40.4597 10.7679 44.9172C11.0399 45.458 11.5935 45.8004 12.1999 45.8004H21.7998V74.6002H4.19997V23.4006C4.19997 20.7542 6.35355 18.6007 8.99993 18.6007ZM64.8699 93.8H33.1293L36.9677 89.0001H61.0315L64.8699 93.8ZM88.9993 85.8001H8.99993C6.35355 85.8001 4.19997 83.6465 4.19997 81.0001V77.8002H93.7992V81.0001C93.7992 83.6465 91.6456 85.8001 88.9993 85.8001Z"/>
</mask>
<path d="M88.9993 15.4007H84.9353C83.1753 13.4423 80.6329 12.2007 77.7994 12.2007C77.617 12.2007 77.433 12.2215 77.249 12.2327L74.5434 2.1848C74.4154 1.7112 74.0778 1.32241 73.6282 1.13041C73.1786 0.935211 72.6618 0.96081 72.233 1.19601L63.4891 5.96557H63.4859L46.1916 15.4007H8.99993C4.58877 15.4007 1 18.9895 1 23.4006V81.0001C1 85.4113 4.58877 89.0001 8.99993 89.0001H32.8701L28.5502 94.4C28.1662 94.8816 28.0926 95.5392 28.3582 96.0944C28.6254 96.6464 29.1838 97 29.7998 97H68.1994C68.8154 97 69.3738 96.6464 69.641 96.0944C69.9066 95.5392 69.833 94.8816 69.449 94.4L65.1291 89.0001H88.9993C93.4104 89.0001 96.9992 85.4113 96.9992 81.0001V23.4006C96.9992 18.9895 93.4104 15.4007 88.9993 15.4007ZM88.9993 18.6007C91.6456 18.6007 93.7992 20.7542 93.7992 23.4006V74.6002H44.1996V71.4002H47.3996C50.046 71.4002 52.1996 69.2466 52.1996 66.6003C52.1996 65.3715 51.7356 64.2499 50.974 63.4003C51.7356 62.5507 52.1996 61.4291 52.1996 60.2003C52.1996 58.9715 51.7356 57.8499 50.974 57.0003C51.7356 56.1507 52.1996 55.0292 52.1996 53.8004C52.1996 52.5716 51.7356 51.45 50.974 50.6004C51.7356 49.7508 52.1996 48.6292 52.1996 47.4004C52.1996 46.8372 52.0844 46.3028 51.9052 45.8004H84.1993C84.6985 45.8004 85.1657 45.5684 85.4697 45.1732C85.7737 44.778 85.8745 44.2644 85.7449 43.7844L82.1241 30.335C82.1273 30.3334 82.1305 30.3302 82.1353 30.3286C82.1417 30.3254 82.1465 30.3222 82.1513 30.319C82.5769 30.103 82.9785 29.855 83.3625 29.5846C83.4841 29.4982 83.5929 29.399 83.7097 29.3078C83.9673 29.1078 84.2185 28.903 84.4521 28.679C84.5785 28.5574 84.6937 28.4278 84.8137 28.2998C85.0153 28.0838 85.2105 27.8646 85.3913 27.631C85.5049 27.4854 85.6105 27.335 85.7145 27.183C85.8777 26.9462 86.0281 26.703 86.1689 26.4534C86.2601 26.2902 86.3481 26.1286 86.4297 25.9606C86.5577 25.6982 86.6665 25.4278 86.7705 25.1542C86.8345 24.9846 86.9017 24.8182 86.9561 24.6454C87.0505 24.3414 87.1209 24.0278 87.1849 23.7126C87.2169 23.559 87.2601 23.4086 87.2825 23.2534C87.3561 22.7766 87.3993 22.2934 87.3993 21.8006C87.3993 21.2838 87.3465 20.7782 87.2681 20.2838C87.2585 20.2246 87.2521 20.1654 87.2409 20.1078C87.1481 19.5895 87.0121 19.0887 86.8393 18.6023H88.9993V18.6007ZM13.2319 42.6005C11.9855 39.5349 11.9855 36.0661 13.2319 33.0005H18.5999V42.6005H13.2319ZM47.366 18.4055L63.2363 9.74794L72.081 42.6005H21.7998V32.3509L47.366 18.4055ZM24.9998 45.8004H47.3996C48.2828 45.8004 48.9996 46.5172 48.9996 47.4004C48.9996 48.2836 48.2828 49.0004 47.3996 49.0004H42.5997C41.7149 49.0004 40.9997 49.7156 40.9997 50.6004C40.9997 51.4852 41.7149 52.2004 42.5997 52.2004H47.3996C48.2828 52.2004 48.9996 52.9172 48.9996 53.8004C48.9996 54.6836 48.2828 55.4003 47.3996 55.4003H42.5997C41.7149 55.4003 40.9997 56.1155 40.9997 57.0003C40.9997 57.8851 41.7149 58.6003 42.5997 58.6003H47.3996C48.2828 58.6003 48.9996 59.3171 48.9996 60.2003C48.9996 61.0835 48.2828 61.8003 47.3996 61.8003H42.5997C41.7149 61.8003 40.9997 62.5155 40.9997 63.4003C40.9997 64.2851 41.7149 65.0003 42.5997 65.0003H47.3996C48.2828 65.0003 48.9996 65.7171 48.9996 66.6003C48.9996 67.4835 48.2828 68.2002 47.3996 68.2002H42.5997C41.7149 68.2002 40.9997 68.9154 40.9997 69.8002V74.6002H24.9998V45.8004ZM82.8889 17.9671C83.0857 18.2295 83.2569 18.5031 83.4105 18.7831C83.4377 18.8343 83.4649 18.8855 83.4921 18.9383C83.6169 19.1783 83.7225 19.4263 83.8137 19.6775C83.8649 19.8231 83.9065 19.9718 83.9481 20.1222C84.0009 20.3078 84.0553 20.4934 84.0905 20.6838C84.1545 21.047 84.1993 21.4182 84.1993 21.8006C84.1993 22.1174 84.1689 22.4278 84.1241 22.735C84.1097 22.831 84.0873 22.9222 84.0697 23.0166C84.0281 23.2294 83.9785 23.439 83.9161 23.6438C83.8857 23.743 83.8537 23.8422 83.8185 23.9398C83.7449 24.1446 83.6585 24.3446 83.5641 24.5398C83.5257 24.6182 83.4921 24.6998 83.4521 24.7766C83.3097 25.0438 83.1529 25.3014 82.9737 25.5446C82.9577 25.567 82.9369 25.5878 82.9193 25.6102C82.7545 25.8294 82.5737 26.0358 82.3817 26.2326C82.3177 26.2982 82.2489 26.359 82.1817 26.4214C82.0233 26.5702 81.8569 26.711 81.6809 26.8438C81.6025 26.903 81.5241 26.9622 81.4425 27.0182C81.3849 27.0582 81.3209 27.0902 81.2601 27.1286L81.0393 26.3094L78.105 15.4103C80.0649 15.5015 81.7769 16.4951 82.8889 17.9671ZM74.5226 14.4135V14.4167L78.6665 29.8054L82.1113 42.6005H75.3946L66.1258 8.17195L71.9834 4.97678L74.5226 14.4135ZM8.99993 18.6007H40.3245L19.7918 29.8006H12.1999C11.5935 29.8006 11.0399 30.143 10.7679 30.6854C8.53914 35.1413 8.53914 40.4597 10.7679 44.9172C11.0399 45.458 11.5935 45.8004 12.1999 45.8004H21.7998V74.6002H4.19997V23.4006C4.19997 20.7542 6.35355 18.6007 8.99993 18.6007ZM64.8699 93.8H33.1293L36.9677 89.0001H61.0315L64.8699 93.8ZM88.9993 85.8001H8.99993C6.35355 85.8001 4.19997 83.6465 4.19997 81.0001V77.8002H93.7992V81.0001C93.7992 83.6465 91.6456 85.8001 88.9993 85.8001Z" fill="#3C7CFF"/>
<path d="M88.9993 15.4007H84.9353C83.1753 13.4423 80.6329 12.2007 77.7994 12.2007C77.617 12.2007 77.433 12.2215 77.249 12.2327L74.5434 2.1848C74.4154 1.7112 74.0778 1.32241 73.6282 1.13041C73.1786 0.935211 72.6618 0.96081 72.233 1.19601L63.4891 5.96557H63.4859L46.1916 15.4007H8.99993C4.58877 15.4007 1 18.9895 1 23.4006V81.0001C1 85.4113 4.58877 89.0001 8.99993 89.0001H32.8701L28.5502 94.4C28.1662 94.8816 28.0926 95.5392 28.3582 96.0944C28.6254 96.6464 29.1838 97 29.7998 97H68.1994C68.8154 97 69.3738 96.6464 69.641 96.0944C69.9066 95.5392 69.833 94.8816 69.449 94.4L65.1291 89.0001H88.9993C93.4104 89.0001 96.9992 85.4113 96.9992 81.0001V23.4006C96.9992 18.9895 93.4104 15.4007 88.9993 15.4007ZM88.9993 18.6007C91.6456 18.6007 93.7992 20.7542 93.7992 23.4006V74.6002H44.1996V71.4002H47.3996C50.046 71.4002 52.1996 69.2466 52.1996 66.6003C52.1996 65.3715 51.7356 64.2499 50.974 63.4003C51.7356 62.5507 52.1996 61.4291 52.1996 60.2003C52.1996 58.9715 51.7356 57.8499 50.974 57.0003C51.7356 56.1507 52.1996 55.0292 52.1996 53.8004C52.1996 52.5716 51.7356 51.45 50.974 50.6004C51.7356 49.7508 52.1996 48.6292 52.1996 47.4004C52.1996 46.8372 52.0844 46.3028 51.9052 45.8004H84.1993C84.6985 45.8004 85.1657 45.5684 85.4697 45.1732C85.7737 44.778 85.8745 44.2644 85.7449 43.7844L82.1241 30.335C82.1273 30.3334 82.1305 30.3302 82.1353 30.3286C82.1417 30.3254 82.1465 30.3222 82.1513 30.319C82.5769 30.103 82.9785 29.855 83.3625 29.5846C83.4841 29.4982 83.5929 29.399 83.7097 29.3078C83.9673 29.1078 84.2185 28.903 84.4521 28.679C84.5785 28.5574 84.6937 28.4278 84.8137 28.2998C85.0153 28.0838 85.2105 27.8646 85.3913 27.631C85.5049 27.4854 85.6105 27.335 85.7145 27.183C85.8777 26.9462 86.0281 26.703 86.1689 26.4534C86.2601 26.2902 86.3481 26.1286 86.4297 25.9606C86.5577 25.6982 86.6665 25.4278 86.7705 25.1542C86.8345 24.9846 86.9017 24.8182 86.9561 24.6454C87.0505 24.3414 87.1209 24.0278 87.1849 23.7126C87.2169 23.559 87.2601 23.4086 87.2825 23.2534C87.3561 22.7766 87.3993 22.2934 87.3993 21.8006C87.3993 21.2838 87.3465 20.7782 87.2681 20.2838C87.2585 20.2246 87.2521 20.1654 87.2409 20.1078C87.1481 19.5895 87.0121 19.0887 86.8393 18.6023H88.9993V18.6007ZM13.2319 42.6005C11.9855 39.5349 11.9855 36.0661 13.2319 33.0005H18.5999V42.6005H13.2319ZM47.366 18.4055L63.2363 9.74794L72.081 42.6005H21.7998V32.3509L47.366 18.4055ZM24.9998 45.8004H47.3996C48.2828 45.8004 48.9996 46.5172 48.9996 47.4004C48.9996 48.2836 48.2828 49.0004 47.3996 49.0004H42.5997C41.7149 49.0004 40.9997 49.7156 40.9997 50.6004C40.9997 51.4852 41.7149 52.2004 42.5997 52.2004H47.3996C48.2828 52.2004 48.9996 52.9172 48.9996 53.8004C48.9996 54.6836 48.2828 55.4003 47.3996 55.4003H42.5997C41.7149 55.4003 40.9997 56.1155 40.9997 57.0003C40.9997 57.8851 41.7149 58.6003 42.5997 58.6003H47.3996C48.2828 58.6003 48.9996 59.3171 48.9996 60.2003C48.9996 61.0835 48.2828 61.8003 47.3996 61.8003H42.5997C41.7149 61.8003 40.9997 62.5155 40.9997 63.4003C40.9997 64.2851 41.7149 65.0003 42.5997 65.0003H47.3996C48.2828 65.0003 48.9996 65.7171 48.9996 66.6003C48.9996 67.4835 48.2828 68.2002 47.3996 68.2002H42.5997C41.7149 68.2002 40.9997 68.9154 40.9997 69.8002V74.6002H24.9998V45.8004ZM82.8889 17.9671C83.0857 18.2295 83.2569 18.5031 83.4105 18.7831C83.4377 18.8343 83.4649 18.8855 83.4921 18.9383C83.6169 19.1783 83.7225 19.4263 83.8137 19.6775C83.8649 19.8231 83.9065 19.9718 83.9481 20.1222C84.0009 20.3078 84.0553 20.4934 84.0905 20.6838C84.1545 21.047 84.1993 21.4182 84.1993 21.8006C84.1993 22.1174 84.1689 22.4278 84.1241 22.735C84.1097 22.831 84.0873 22.9222 84.0697 23.0166C84.0281 23.2294 83.9785 23.439 83.9161 23.6438C83.8857 23.743 83.8537 23.8422 83.8185 23.9398C83.7449 24.1446 83.6585 24.3446 83.5641 24.5398C83.5257 24.6182 83.4921 24.6998 83.4521 24.7766C83.3097 25.0438 83.1529 25.3014 82.9737 25.5446C82.9577 25.567 82.9369 25.5878 82.9193 25.6102C82.7545 25.8294 82.5737 26.0358 82.3817 26.2326C82.3177 26.2982 82.2489 26.359 82.1817 26.4214C82.0233 26.5702 81.8569 26.711 81.6809 26.8438C81.6025 26.903 81.5241 26.9622 81.4425 27.0182C81.3849 27.0582 81.3209 27.0902 81.2601 27.1286L81.0393 26.3094L78.105 15.4103C80.0649 15.5015 81.7769 16.4951 82.8889 17.9671ZM74.5226 14.4135V14.4167L78.6665 29.8054L82.1113 42.6005H75.3946L66.1258 8.17195L71.9834 4.97678L74.5226 14.4135ZM8.99993 18.6007H40.3245L19.7918 29.8006H12.1999C11.5935 29.8006 11.0399 30.143 10.7679 30.6854C8.53914 35.1413 8.53914 40.4597 10.7679 44.9172C11.0399 45.458 11.5935 45.8004 12.1999 45.8004H21.7998V74.6002H4.19997V23.4006C4.19997 20.7542 6.35355 18.6007 8.99993 18.6007ZM64.8699 93.8H33.1293L36.9677 89.0001H61.0315L64.8699 93.8ZM88.9993 85.8001H8.99993C6.35355 85.8001 4.19997 83.6465 4.19997 81.0001V77.8002H93.7992V81.0001C93.7992 83.6465 91.6456 85.8001 88.9993 85.8001Z" stroke="#3C7CFF" stroke-width="0.8" mask="url(#path-1-outside-1_206_1602)"/>
</svg>
