<svg width="100" height="101" viewBox="0 0 100 101" fill="none" xmlns="http://www.w3.org/2000/svg">
<path d="M93.3333 0.472412H6.66667C4.89856 0.472412 3.20286 1.17479 1.95262 2.42503C0.702379 3.67528 0 5.37097 0 7.13908L0 93.8057C0 95.5739 0.702379 97.2695 1.95262 98.5198C3.20286 99.77 4.89856 100.472 6.66667 100.472H93.3333C95.1014 100.472 96.7971 99.77 98.0474 98.5198C99.2976 97.2695 100 95.5739 100 93.8057V7.13908C100 5.37097 99.2976 3.67528 98.0474 2.42503C96.7971 1.17479 95.1014 0.472412 93.3333 0.472412ZM6.66667 3.80575H93.3333C94.2174 3.80575 95.0652 4.15693 95.6904 4.78206C96.3155 5.40718 96.6667 6.25502 96.6667 7.13908V13.8057H3.33333V7.13908C3.33333 6.25502 3.68452 5.40718 4.30964 4.78206C4.93476 4.15693 5.78261 3.80575 6.66667 3.80575ZM93.3333 97.1391H6.66667C5.78261 97.1391 4.93476 96.7879 4.30964 96.1628C3.68452 95.5376 3.33333 94.6898 3.33333 93.8057V17.1391H96.6667V93.8057C96.6667 94.6898 96.3155 95.5376 95.6904 96.1628C95.0652 96.7879 94.2174 97.1391 93.3333 97.1391Z" fill="#3C7CFF"/>
<path d="M8.33341 10.4724H10.0001C10.4421 10.4724 10.866 10.2968 11.1786 9.98422C11.4912 9.67165 11.6667 9.24773 11.6667 8.8057C11.6667 8.36368 11.4912 7.93975 11.1786 7.62719C10.866 7.31463 10.4421 7.13904 10.0001 7.13904H8.33341C7.89139 7.13904 7.46746 7.31463 7.1549 7.62719C6.84234 7.93975 6.66675 8.36368 6.66675 8.8057C6.66675 9.24773 6.84234 9.67165 7.1549 9.98422C7.46746 10.2968 7.89139 10.4724 8.33341 10.4724Z" fill="#3C7CFF"/>
<path d="M16.6667 10.4724H18.3333C18.7754 10.4724 19.1993 10.2968 19.5118 9.98422C19.8244 9.67165 20 9.24773 20 8.8057C20 8.36368 19.8244 7.93975 19.5118 7.62719C19.1993 7.31463 18.7754 7.13904 18.3333 7.13904H16.6667C16.2246 7.13904 15.8007 7.31463 15.4882 7.62719C15.1756 7.93975 15 8.36368 15 8.8057C15 9.24773 15.1756 9.67165 15.4882 9.98422C15.8007 10.2968 16.2246 10.4724 16.6667 10.4724Z" fill="#3C7CFF"/>
<path d="M24.9999 10.4724H26.6666C27.1086 10.4724 27.5325 10.2968 27.8451 9.98422C28.1577 9.67165 28.3333 9.24773 28.3333 8.8057C28.3333 8.36368 28.1577 7.93975 27.8451 7.62719C27.5325 7.31463 27.1086 7.13904 26.6666 7.13904H24.9999C24.5579 7.13904 24.134 7.31463 23.8214 7.62719C23.5088 7.93975 23.3333 8.36368 23.3333 8.8057C23.3333 9.24773 23.5088 9.67165 23.8214 9.98422C24.134 10.2968 24.5579 10.4724 24.9999 10.4724Z" fill="#3C7CFF"/>
<path d="M81.6667 10.4724H91.6667C92.1087 10.4724 92.5326 10.2968 92.8452 9.98422C93.1577 9.67165 93.3333 9.24773 93.3333 8.8057C93.3333 8.36368 93.1577 7.93975 92.8452 7.62719C92.5326 7.31463 92.1087 7.13904 91.6667 7.13904H81.6667C81.2246 7.13904 80.8007 7.31463 80.4882 7.62719C80.1756 7.93975 80 8.36368 80 8.8057C80 9.24773 80.1756 9.67165 80.4882 9.98422C80.8007 10.2968 81.2246 10.4724 81.6667 10.4724Z" fill="#3C7CFF"/>
<path d="M63.3334 70.4725C63.3291 69.442 63.0066 68.4381 62.4099 67.598C61.8133 66.7578 60.9716 66.1226 60.0001 65.7791V63.8058C60.0034 61.343 59.0978 58.9656 57.4567 57.1291C59.0887 55.2951 59.9934 52.9274 60.0001 50.4725V48.4991C61.1112 48.1078 62.048 47.3358 62.6445 46.3199C63.241 45.304 63.4587 44.1098 63.2591 42.9488C63.0594 41.7878 62.4554 40.7349 61.5538 39.9766C60.6523 39.2183 59.5115 38.8036 58.3334 38.8058H41.6667C40.4887 38.8036 39.3479 39.2183 38.4463 39.9766C37.5448 40.7349 36.9407 41.7878 36.7411 42.9488C36.5415 44.1098 36.7592 45.304 37.3557 46.3199C37.9522 47.3358 38.8889 48.1078 40.0001 48.4991V50.4725C40.0071 52.9319 40.9149 55.3035 42.5517 57.1391C40.9149 58.9747 40.0071 61.3464 40.0001 63.8058V65.7791C38.8889 66.1705 37.9522 66.9425 37.3557 67.9584C36.7592 68.9742 36.5415 70.1684 36.7411 71.3294C36.9407 72.4904 37.5448 73.5433 38.4463 74.3016C39.3479 75.0599 40.4887 75.4747 41.6667 75.4725H58.3334C59.6595 75.4725 60.9313 74.9457 61.8689 74.008C62.8066 73.0703 63.3334 71.7985 63.3334 70.4725ZM43.3334 65.4725V63.8058C43.3373 62.7715 43.5799 61.7521 44.0425 60.827C44.505 59.9019 45.175 59.0961 46.0001 58.4725C46.2071 58.3172 46.3751 58.1159 46.4908 57.8845C46.6065 57.6531 46.6667 57.3979 46.6667 57.1391C46.6667 56.8804 46.6065 56.6252 46.4908 56.3938C46.3751 56.1623 46.2071 55.961 46.0001 55.8058C45.175 55.1821 44.505 54.3764 44.0425 53.4513C43.5799 52.5262 43.3373 51.5067 43.3334 50.4725V48.8058H56.6667V50.4725C56.6631 51.5068 56.4206 52.5263 55.958 53.4514C55.4955 54.3766 54.8254 55.1823 54.0001 55.8058C53.7921 55.9621 53.6237 56.165 53.5082 56.3981C53.3927 56.6312 53.3334 56.8882 53.335 57.1483C53.3366 57.4085 53.3991 57.6646 53.5175 57.8963C53.6359 58.128 53.8069 58.3287 54.0167 58.4825C54.8379 59.1064 55.5042 59.9112 55.9638 60.8345C56.4234 61.7577 56.6639 62.7745 56.6667 63.8058V65.4725H43.3334ZM41.6667 42.1391H58.3334C58.7754 42.1391 59.1994 42.3147 59.5119 42.6273C59.8245 42.9398 60.0001 43.3638 60.0001 43.8058C60.0001 44.2478 59.8245 44.6717 59.5119 44.9843C59.1994 45.2969 58.7754 45.4725 58.3334 45.4725H41.6667C41.2247 45.4725 40.8008 45.2969 40.4882 44.9843C40.1757 44.6717 40.0001 44.2478 40.0001 43.8058C40.0001 43.3638 40.1757 42.9398 40.4882 42.6273C40.8008 42.3147 41.2247 42.1391 41.6667 42.1391ZM58.3334 72.1391H41.6667C41.2247 72.1391 40.8008 71.9635 40.4882 71.651C40.1757 71.3384 40.0001 70.9145 40.0001 70.4725C40.0001 70.0304 40.1757 69.6065 40.4882 69.294C40.8008 68.9814 41.2247 68.8058 41.6667 68.8058H58.3334C58.7754 68.8058 59.1994 68.9814 59.5119 69.294C59.8245 69.6065 60.0001 70.0304 60.0001 70.4725C60.0001 70.9145 59.8245 71.3384 59.5119 71.651C59.1994 71.9635 58.7754 72.1391 58.3334 72.1391Z" fill="#3C7CFF"/>
<path d="M49.9999 32.139C50.4419 32.139 50.8659 31.9634 51.1784 31.6509C51.491 31.3383 51.6666 30.9144 51.6666 30.4724V23.8057C51.6666 23.3637 51.491 22.9398 51.1784 22.6272C50.8659 22.3146 50.4419 22.139 49.9999 22.139C49.5579 22.139 49.134 22.3146 48.8214 22.6272C48.5088 22.9398 48.3333 23.3637 48.3333 23.8057V30.4724C48.3333 30.9144 48.5088 31.3383 48.8214 31.6509C49.134 31.9634 49.5579 32.139 49.9999 32.139Z" fill="#3C7CFF"/>
<path d="M35.2233 34.8792C35.4459 35.2589 35.8096 35.5351 36.2351 35.6476C36.6606 35.7601 37.1133 35.6997 37.4945 35.4797C37.8756 35.2596 38.1543 34.8977 38.2696 34.473C38.3849 34.0483 38.3275 33.5951 38.11 33.2126L34.7767 27.4392C34.668 27.2481 34.5227 27.0804 34.349 26.9458C34.1752 26.8111 33.9766 26.7121 33.7645 26.6545C33.5524 26.5969 33.3309 26.5819 33.113 26.6102C32.895 26.6385 32.6848 26.7097 32.4944 26.8196C32.3041 26.9295 32.1374 27.076 32.0039 27.2506C31.8703 27.4252 31.7727 27.6245 31.7165 27.837C31.6603 28.0495 31.6467 28.271 31.6765 28.4888C31.7063 28.7065 31.7788 28.9163 31.89 29.1059L35.2233 34.8792Z" fill="#3C7CFF"/>
<path d="M27.7399 42.3625L21.9666 39.0292C21.777 38.918 21.5673 38.8454 21.3495 38.8157C21.1317 38.7859 20.9102 38.7995 20.6977 38.8557C20.4852 38.9118 20.2859 39.0095 20.1113 39.143C19.9367 39.2765 19.7902 39.4433 19.6803 39.6336C19.5704 39.824 19.4993 40.0342 19.4709 40.2521C19.4426 40.4701 19.4577 40.6915 19.5153 40.9036C19.5728 41.1158 19.6718 41.3144 19.8065 41.4881C19.9412 41.6618 20.1089 41.8072 20.2999 41.9158L26.0733 45.2492C26.2629 45.3603 26.4726 45.4329 26.6904 45.4627C26.9082 45.4924 27.1297 45.4788 27.3422 45.4227C27.5547 45.3665 27.754 45.2688 27.9286 45.1353C28.1032 45.0018 28.2496 44.8351 28.3595 44.6447C28.4694 44.4544 28.5406 44.2441 28.5689 44.0262C28.5973 43.8082 28.5822 43.5868 28.5246 43.3747C28.467 43.1625 28.3681 42.9639 28.2334 42.7902C28.0987 42.6165 27.931 42.4711 27.7399 42.3625Z" fill="#3C7CFF"/>
<path d="M25 57.1391C25 56.6971 24.8244 56.2731 24.5118 55.9606C24.1993 55.648 23.7754 55.4724 23.3333 55.4724H16.6667C16.2246 55.4724 15.8007 55.648 15.4882 55.9606C15.1756 56.2731 15 56.6971 15 57.1391C15 57.5811 15.1756 58.005 15.4882 58.3176C15.8007 58.6302 16.2246 58.8057 16.6667 58.8057H23.3333C23.7754 58.8057 24.1993 58.6302 24.5118 58.3176C24.8244 58.005 25 57.5811 25 57.1391Z" fill="#3C7CFF"/>
<path d="M26.0733 69.0292L20.2999 72.3625C20.1089 72.4711 19.9412 72.6165 19.8065 72.7902C19.6718 72.9639 19.5728 73.1625 19.5153 73.3747C19.4577 73.5868 19.4426 73.8082 19.4709 74.0262C19.4993 74.2441 19.5704 74.4543 19.6803 74.6447C19.7902 74.8351 19.9367 75.0018 20.1113 75.1353C20.2859 75.2688 20.4852 75.3665 20.6977 75.4227C20.9102 75.4788 21.1317 75.4924 21.3495 75.4627C21.5673 75.4329 21.777 75.3603 21.9666 75.2492L27.7399 71.9158C27.931 71.8072 28.0987 71.6618 28.2334 71.4881C28.3681 71.3144 28.467 71.1158 28.5246 70.9036C28.5822 70.6915 28.5973 70.4701 28.5689 70.2521C28.5406 70.0342 28.4694 69.824 28.3595 69.6336C28.2496 69.4433 28.1032 69.2765 27.9286 69.143C27.754 69.0095 27.5547 68.9118 27.3422 68.8557C27.1297 68.7995 26.9082 68.7859 26.6904 68.8157C26.4726 68.8454 26.2629 68.918 26.0733 69.0292Z" fill="#3C7CFF"/>
<path d="M37.5 78.7892C37.1172 78.5682 36.6623 78.5083 36.2353 78.6227C35.8084 78.7371 35.4443 79.0164 35.2233 79.3992L31.89 85.1725C31.7788 85.3622 31.7063 85.5719 31.6765 85.7897C31.6467 86.0074 31.6603 86.2289 31.7165 86.4414C31.7727 86.6539 31.8703 86.8532 32.0039 87.0278C32.1374 87.2024 32.3041 87.3489 32.4944 87.4588C32.6848 87.5687 32.895 87.6399 33.113 87.6682C33.3309 87.6965 33.5524 87.6815 33.7645 87.6239C33.9766 87.5663 34.1752 87.4673 34.349 87.3326C34.5227 87.198 34.668 87.0303 34.7767 86.8392L38.11 81.0659C38.331 80.6831 38.3909 80.2282 38.2765 79.8012C38.1621 79.3743 37.8828 79.0102 37.5 78.7892Z" fill="#3C7CFF"/>
<path d="M49.9999 82.139C49.5579 82.139 49.134 82.3146 48.8214 82.6272C48.5088 82.9398 48.3333 83.3637 48.3333 83.8057V90.4724C48.3333 90.9144 48.5088 91.3383 48.8214 91.6509C49.134 91.9634 49.5579 92.139 49.9999 92.139C50.4419 92.139 50.8659 91.9634 51.1784 91.6509C51.491 91.3383 51.6666 90.9144 51.6666 90.4724V83.8057C51.6666 83.3637 51.491 82.9398 51.1784 82.6272C50.8659 82.3146 50.4419 82.139 49.9999 82.139Z" fill="#3C7CFF"/>
<path d="M64.7767 79.3991C64.668 79.208 64.5227 79.0403 64.349 78.9056C64.1752 78.7709 63.9766 78.672 63.7645 78.6144C63.5524 78.5568 63.3309 78.5417 63.113 78.5701C62.895 78.5984 62.6848 78.6696 62.4945 78.7795C62.3041 78.8894 62.1374 79.0358 62.0038 79.2104C61.8703 79.385 61.7727 79.5843 61.7165 79.7968C61.6603 80.0093 61.6467 80.2308 61.6765 80.4486C61.7063 80.6664 61.7788 80.8761 61.89 81.0657L65.2233 86.8391C65.332 87.0301 65.4773 87.1978 65.651 87.3325C65.8247 87.4672 66.0234 87.5662 66.2355 87.6237C66.4476 87.6813 66.669 87.6964 66.887 87.6681C67.105 87.6397 67.3152 87.5686 67.5055 87.4587C67.6959 87.3488 67.8626 87.2023 67.9961 87.0277C68.1297 86.8531 68.2273 86.6538 68.2835 86.4413C68.3397 86.2288 68.3533 86.0073 68.3235 85.7895C68.2937 85.5717 68.2212 85.362 68.11 85.1724L64.7767 79.3991Z" fill="#3C7CFF"/>
<path d="M79.7 72.3624L73.9267 69.0291C73.5441 68.8116 73.091 68.7542 72.6663 68.8695C72.2415 68.9848 71.8796 69.2635 71.6596 69.6446C71.4395 70.0257 71.3792 70.4785 71.4916 70.904C71.6041 71.3294 71.8804 71.6932 72.26 71.9158L78.0334 75.2491C78.223 75.3603 78.4327 75.4328 78.6505 75.4626C78.8683 75.4924 79.0898 75.4788 79.3023 75.4226C79.5148 75.3664 79.7141 75.2688 79.8887 75.1352C80.0633 75.0017 80.2097 74.835 80.3197 74.6446C80.4296 74.4543 80.5007 74.2441 80.529 74.0261C80.5574 73.8081 80.5423 73.5867 80.4847 73.3746C80.4271 73.1625 80.3282 72.9638 80.1935 72.7901C80.0588 72.6164 79.8911 72.4711 79.7 72.3624Z" fill="#3C7CFF"/>
<path d="M83.3333 55.4724H76.6667C76.2246 55.4724 75.8007 55.648 75.4882 55.9606C75.1756 56.2731 75 56.6971 75 57.1391C75 57.5811 75.1756 58.005 75.4882 58.3176C75.8007 58.6302 76.2246 58.8057 76.6667 58.8057H83.3333C83.7754 58.8057 84.1993 58.6302 84.5118 58.3176C84.8244 58.005 85 57.5811 85 57.1391C85 56.6971 84.8244 56.2731 84.5118 55.9606C84.1993 55.648 83.7754 55.4724 83.3333 55.4724Z" fill="#3C7CFF"/>
<path d="M73.0951 45.4725C73.3877 45.4731 73.6753 45.396 73.9284 45.2492L79.7017 41.9158C79.8928 41.8072 80.0605 41.6618 80.1952 41.4881C80.3298 41.3144 80.4288 41.1158 80.4864 40.9036C80.544 40.6915 80.5591 40.4701 80.5307 40.2521C80.5024 40.0342 80.4312 39.824 80.3213 39.6336C80.2114 39.4433 80.065 39.2765 79.8904 39.143C79.7158 39.0095 79.5165 38.9118 79.304 38.8557C79.0915 38.7995 78.87 38.7859 78.6522 38.8157C78.4344 38.8454 78.2247 38.918 78.0351 39.0292L72.2617 42.3625C71.944 42.5459 71.6957 42.8291 71.5553 43.1681C71.4149 43.507 71.3903 43.8828 71.4853 44.2372C71.5802 44.5916 71.7894 44.9047 72.0805 45.1281C72.3716 45.3514 72.7282 45.4725 73.0951 45.4725Z" fill="#3C7CFF"/>
<path d="M67.5 26.8275C67.3104 26.7181 67.101 26.6472 66.884 26.6187C66.6669 26.5903 66.4464 26.6049 66.235 26.6617C66.0235 26.7185 65.8254 26.8164 65.6518 26.9498C65.4782 27.0832 65.3326 27.2495 65.2233 27.4391L61.89 33.2125C61.7788 33.4021 61.7063 33.6118 61.6765 33.8296C61.6467 34.0474 61.6603 34.2689 61.7165 34.4814C61.7727 34.6939 61.8703 34.8932 62.0038 35.0678C62.1374 35.2424 62.3041 35.3889 62.4945 35.4988C62.6848 35.6087 62.895 35.6798 63.113 35.7082C63.3309 35.7365 63.5524 35.7214 63.7645 35.6638C63.9766 35.6062 64.1752 35.5073 64.349 35.3726C64.5227 35.2379 64.668 35.0702 64.7767 34.8791L68.11 29.1058C68.2197 28.9162 68.2909 28.7068 68.3196 28.4897C68.3483 28.2725 68.334 28.0518 68.2773 27.8402C68.2206 27.6286 68.1228 27.4302 67.9895 27.2565C67.8561 27.0827 67.6898 26.9369 67.5 26.8275Z" fill="#3C7CFF"/>
</svg>
