<svg width="100" height="100" viewBox="0 0 100 100" fill="none" xmlns="http://www.w3.org/2000/svg">
<path d="M20.8026 66.1818H15.4389C14.6357 66.1818 13.9844 66.8323 13.9844 67.6363C13.9844 68.4403 14.6357 69.0909 15.4389 69.0909H20.8026C21.6058 69.0909 22.2571 68.4403 22.2571 67.6363C22.2571 66.8323 21.6058 66.1818 20.8026 66.1818Z" fill="#3C7CFF"/>
<path d="M98.2479 7.81818C98.2479 4.47128 95.5258 1.75 92.1797 1.75H7.81818C4.47203 1.75 1.75 4.47128 1.75 7.81818V70.9815C1.75 74.3284 4.47203 77.0497 7.81818 77.0497H36.9845L35.3725 84.9471C32.1718 85.1013 29.6129 87.7458 29.6129 90.9844V96.5455C29.6129 97.4876 30.3762 98.25 31.3175 98.25H68.6811C69.6224 98.25 70.3857 97.4876 70.3857 96.5455V90.9844C70.3857 87.7458 67.8266 85.1012 64.6254 84.9471L63.0139 77.0497H92.1797C95.5258 77.0497 98.2479 74.3284 98.2479 70.9815V60.3102C98.2491 60.3004 98.25 60.2893 98.25 60.277C98.25 60.2647 98.2491 60.2535 98.2479 60.2438V7.81818ZM7.81818 5.15909H92.1797C93.646 5.15909 94.8388 6.35252 94.8388 7.81818V58.5724H5.15909V7.81818C5.15909 6.35252 6.35189 5.15909 7.81818 5.15909ZM66.9766 90.9844V94.8409H33.022V90.9844C33.022 89.5273 34.2084 88.3409 35.6655 88.3409H36.7678H63.2301H64.3324C65.7902 88.3409 66.9766 89.5273 66.9766 90.9844ZM59.5345 77.0497L61.1427 84.9318H38.8552L40.4641 77.0497H59.5345ZM92.1797 73.6406H60.9261H39.0724H7.81818C6.35189 73.6406 5.15909 72.4472 5.15909 70.9815V61.9815H94.8388V70.9815C94.8388 72.4472 93.646 73.6406 92.1797 73.6406Z" fill="#3C7CFF" stroke="#3C7CFF" stroke-width="0.5"/>
<path d="M33.8586 42.4398V32.6448H43.7207V42.4398V42.6898H43.9707H46.7686H47.0186V42.4398V21.0142V20.7642H46.7686H43.9707H43.7207V21.0142V29.7299H33.8586V21.0142V20.7642H33.6086H30.843H30.593V21.0142V42.4398V42.6898H30.843H33.6086H33.8586V42.4398Z" fill="#3C7CFF" stroke="#3C7CFF" stroke-width="0.5"/>
<path d="M51.5416 21.0545L51.3289 21.0865V21.3017V42.3754V42.5984L51.5504 42.6238C52.9602 42.7854 54.6224 42.8816 56.6014 42.8816C60.7997 42.8816 64.1822 41.7915 66.2491 39.7239C68.3097 37.6976 69.4071 34.7679 69.4071 31.2199C69.4071 27.6955 68.2724 25.1453 66.3063 23.3441C64.3674 21.5356 61.4666 20.6066 57.4594 20.6066C55.2515 20.6066 53.2369 20.7993 51.5416 21.0545ZM66.0147 31.3142V31.3157C66.0147 34.163 65.2252 36.3641 63.743 37.8536C62.261 39.3429 60.0518 40.1557 57.141 40.1557C56.1641 40.1557 55.2573 40.1299 54.5944 40.035V23.5404C55.2989 23.4053 56.2958 23.2988 57.5862 23.2988C60.4664 23.2988 62.5722 24.0889 63.9543 25.4639C65.3363 26.8388 66.0299 28.8333 66.0147 31.3142Z" fill="#3C7CFF" stroke="#3C7CFF" stroke-width="0.5"/>
</svg>
