<svg width="100" height="100" viewBox="0 0 100 100" fill="none" xmlns="http://www.w3.org/2000/svg">
<path d="M46.7686 48.5776L46.7678 48.5774C40.19 47.2877 35.0741 42.1731 33.74 35.5488C33.6272 34.9833 33.0641 34.5829 32.4861 34.698L32.4861 34.698C31.9208 34.8106 31.5203 35.3734 31.635 35.9512C33.0952 43.3837 38.8894 49.1778 46.3218 50.6381L46.3457 50.6428H46.37H46.5439C47.0325 50.6428 47.5019 50.3168 47.5751 49.792C47.7437 49.2335 47.309 48.6853 46.7686 48.5776Z" fill="#3C7CFF" stroke="#3C7CFF" stroke-width="0.5"/>
<path d="M32.4861 29.9954L32.5103 30.0003H32.5349H32.7088C33.2021 30.0003 33.6758 29.6681 33.7419 29.1345C35.0346 22.5611 40.1475 17.4494 46.7688 16.1158C47.3342 16.003 47.7347 15.44 47.6195 14.862C47.5069 14.2964 46.9437 13.8958 46.3657 14.011L46.3652 14.0111C38.8936 15.5134 33.1438 21.2593 31.6816 28.7311C31.5121 29.3224 31.9284 29.8843 32.4861 29.9954Z" fill="#3C7CFF" stroke="#3C7CFF" stroke-width="0.5"/>
<path d="M53.2176 16.1159L53.2176 16.1159L53.2186 16.1161C59.838 17.4058 64.912 22.5199 66.2462 29.145L66.2462 29.145L66.2472 29.1497C66.3593 29.655 66.8092 30.0003 67.2773 30.0003H67.4512H67.4758L67.5 29.9955C68.0656 29.8828 68.4662 29.3197 68.351 28.7416L68.3509 28.7412C66.8479 21.2659 61.0971 15.5141 53.62 14.0554C53.0421 13.9406 52.4792 14.3411 52.3666 14.9066C52.2486 15.4986 52.6668 16.0061 53.2176 16.1159Z" fill="#3C7CFF" stroke="#3C7CFF" stroke-width="0.5"/>
<path d="M66.2458 35.5943L66.2459 35.5936C66.3586 35.028 66.9217 34.6274 67.4998 34.7426M66.2458 35.5943L67.4998 34.7426M66.2458 35.5943C64.9561 42.172 59.8416 47.2879 53.2173 48.6221M66.2458 35.5943L53.2173 48.6221M67.4998 34.7426C68.0745 34.857 68.462 35.4262 68.3516 36.0366L68.3507 36.0417L68.3506 36.0417C66.8456 43.4723 61.095 49.2669 53.6193 50.7272L53.5956 50.7318H53.5714H53.3975C52.9294 50.7318 52.4795 50.3865 52.3674 49.8813L52.3663 49.876L52.3663 49.876C52.2512 49.2979 52.6518 48.7348 53.2173 48.6221M67.4998 34.7426L53.2173 48.6221" fill="#3C7CFF" stroke="#3C7CFF" stroke-width="0.5"/>
<path d="M69.896 31.2907H64.4569C63.9508 24.1502 58.214 18.4132 51.0735 17.9072V12.4682C51.0735 11.9021 50.6204 11.3896 49.995 11.3896C49.3758 11.3896 48.9164 11.8514 48.9164 12.4682V17.9073C41.776 18.4134 36.0389 24.1502 35.533 31.2907H30.0939C29.5279 31.2907 29.0154 31.7438 29.0154 32.3692C29.0154 32.9884 29.4772 33.4478 30.0939 33.4478H35.533C36.0391 40.5882 41.776 46.3253 48.9164 46.8312V52.2703C48.9164 52.8363 49.3695 53.3488 49.995 53.3488C50.6142 53.3488 51.0735 52.887 51.0735 52.2703V46.8312C58.2139 46.3251 63.951 40.5882 64.4569 33.4478H69.896C70.4621 33.4478 70.9745 32.9947 70.9745 32.3692C70.9745 31.75 70.5128 31.2907 69.896 31.2907ZM49.993 32.687C47.9488 32.687 46.3149 31.0531 46.3149 29.0089C46.3149 26.9647 47.9488 25.3309 49.993 25.3309C52.0371 25.3309 53.671 26.9647 53.671 29.0089C53.671 31.0531 52.0371 32.687 49.993 32.687ZM49.993 34.8458C50.7816 34.8458 51.5247 34.6786 52.1832 34.4249C54.9204 35.3354 56.8999 37.9252 56.8999 40.9689V42.6275C54.9532 43.949 52.5565 44.7322 49.993 44.7322C47.4294 44.7322 45.0323 43.9489 43.086 42.6243V40.9655C43.086 37.9251 45.0645 35.3761 47.8043 34.4223C48.4623 34.6773 49.2048 34.8458 49.993 34.8458ZM62.3558 32.3267C62.3558 35.6173 61.1156 38.5653 59.0572 40.7539C58.994 37.3592 57.0465 34.4276 54.2522 32.9541C55.203 31.9218 55.7856 30.5226 55.7856 29.0087C55.7856 25.8155 53.1863 23.2162 49.9931 23.2162C46.8 23.2162 44.2006 25.8156 44.2006 29.0087C44.2006 30.5256 44.7843 31.9245 45.7365 32.9568C42.9452 34.4623 40.9952 37.3525 40.9292 40.7462C38.871 38.5214 37.6307 35.5739 37.6307 32.3267C37.6307 25.5261 43.1926 19.9642 49.9932 19.9642C56.7938 19.9642 62.3558 25.5261 62.3558 32.3267Z" fill="#3C7CFF" stroke="#3C7CFF" stroke-width="0.5"/>
<path fill-rule="evenodd" clip-rule="evenodd" d="M0 69.7324V9.13986C0 5.7485 2.74838 3 6.13986 3H93.8601C97.2515 3 100 5.74838 100 9.13986V69.7324C100 73.1238 97.2516 75.8723 93.8601 75.8723H63.7803L66.6668 83.9602C68.0577 84.3889 69.3438 85.151 70.3917 86.1989C72.0779 87.8851 73.0258 90.1714 73.0258 92.553V94.3059C73.0258 95.6396 71.9398 96.7209 70.6108 96.7209H29.3894C28.0557 96.7209 26.9744 95.6396 26.9744 94.3059V92.553C26.9744 90.1714 27.9223 87.8851 29.6086 86.1989C30.6565 85.151 31.9378 84.3889 33.3334 83.9602L36.2152 75.8723H6.14023C2.74887 75.8723 0 73.1239 0 69.7324ZM95.1695 56.2241V9.13986C95.1695 8.41585 94.5836 7.82999 93.8597 7.82999H6.13937C5.41536 7.82999 4.82475 8.41587 4.82475 9.13986V56.2241H95.1695ZM6.13962 71.0421H93.8599C94.5839 71.0421 95.1698 70.4562 95.1698 69.7322V61.0536H4.82536V69.7322C4.82536 70.4562 5.41564 71.0421 6.13962 71.0421ZM61.3974 83.5688L58.6537 75.8714H41.3445L38.6009 83.5688H61.3974ZM35.9573 88.3987C34.857 88.3987 33.7996 88.8369 33.0232 89.6133C32.3992 90.2373 31.9943 91.0328 31.8562 91.8901H68.1379C67.9997 91.0328 67.5996 90.2373 66.9756 89.6133C66.1992 88.8369 65.1418 88.3987 64.0415 88.3987H35.9573ZM45.56 68.4593C44.2262 68.4593 43.145 67.378 43.145 66.0443C43.145 64.7154 44.2262 63.6293 45.56 63.6293H54.4386C55.7723 63.6293 56.8536 64.7153 56.8536 66.0443C56.8536 67.378 55.7723 68.4593 54.4386 68.4593H45.56Z" fill="#3C7CFF"/>
</svg>
