<svg width="100" height="100" viewBox="0 0 100 100" fill="none" xmlns="http://www.w3.org/2000/svg">
<path d="M11.0273 100H89.4805C95.0078 100 99.5039 95.5 99.5039 89.9727C99.5039 58.6864 99.5039 23.1535 99.5039 10.0273C99.5039 4.5 95.0078 0 89.4805 0H11.0234C5.49609 0 1 4.5 1 10.0273C1 23.1553 1 58.6861 1 89.9727C1 95.5 5.5 100 11.0273 100ZM95.5039 89.9727C95.5039 93.2969 92.8008 96 89.4805 96H11.0273C7.70307 96 5 93.2969 5 89.9727V20.3203H95.5039V89.9727ZM5 10.0273C5 6.70312 7.70307 4 11.0234 4H89.4805C92.8008 4 95.5039 6.70312 95.5039 10.0273V16.3203H5V10.0273Z" fill="#3C7CFF"/>
<path d="M66.543 8.16016H61.3867C60.2812 8.16016 59.3867 9.05469 59.3867 10.1602C59.3867 11.2656 60.2812 12.1602 61.3867 12.1602H66.543C67.6484 12.1602 68.543 11.2656 68.543 10.1602C68.543 9.05469 67.6484 8.16016 66.543 8.16016Z" fill="#3C7CFF"/>
<path d="M77.5234 8.16016H72.3672C71.2617 8.16016 70.3672 9.05469 70.3672 10.1602C70.3672 11.2656 71.2617 12.1602 72.3672 12.1602H77.5234C78.6289 12.1602 79.5234 11.2656 79.5234 10.1602C79.5234 9.05469 78.6289 8.16016 77.5234 8.16016Z" fill="#3C7CFF"/>
<path d="M88.5078 8.16016H83.3477C82.2422 8.16016 81.3477 9.05469 81.3477 10.1602C81.3477 11.2656 82.2422 12.1602 83.3477 12.1602H88.5078C89.6133 12.1602 90.5078 11.2656 90.5078 10.1602C90.5078 9.05469 89.6133 8.16016 88.5078 8.16016Z" fill="#3C7CFF"/>
<path d="M16.3789 66.082H31.3867C32.998 66.082 34.3521 65.2197 35.2026 63.9844H40.2095C42.8774 75.929 53.302 84.4648 65.7656 84.4648C80.2578 84.4648 92.0469 72.6523 92.0469 58.1367C92.0469 43.6445 80.2578 31.8555 65.7656 31.8555C53.5002 31.8555 42.8547 40.5898 40.2126 52.3359H35.2007C34.3499 51.1033 32.9968 50.2422 31.3867 50.2422H16.3789C12.0117 50.2422 8.45703 53.793 8.45703 58.1602C8.45703 62.5273 12.0117 66.082 16.3789 66.082ZM65.7656 35.8555C78.0508 35.8555 88.0469 45.8516 88.0469 58.1367C88.0469 70.4492 78.0508 80.4648 65.7656 80.4648C54.6953 80.4648 45.4297 72.5625 43.7305 61.6172C43.5352 60.5742 43.4414 59.4336 43.4414 58.1367C43.4414 56.8711 43.5352 55.7461 43.7422 54.6445C45.4102 43.9336 54.8789 35.8555 65.7656 35.8555ZM36.1172 56.3359H39.5C39.4609 56.9141 39.4414 57.5117 39.4414 58.1367C39.4414 58.7812 39.4609 59.3945 39.5039 59.9844H36.1172V56.3359ZM16.3789 54.2422H31.3867C31.7812 54.2422 32.1016 54.5625 32.1016 54.9531V61.3672C32.1016 61.7617 31.7812 62.082 31.3867 62.082H16.3789C14.2148 62.082 12.457 60.3242 12.457 58.1602C12.457 56 14.2148 54.2422 16.3789 54.2422Z" fill="#3C7CFF"/>
<path d="M50.3832 59.6483C48.8129 60.2538 47.9808 62.0233 48.4847 63.66C48.6683 64.2733 48.8988 64.8436 49.2855 65.7694C50.0277 67.2538 51.7347 67.9413 53.4261 67.371C54.1254 67.0975 54.9496 67.289 55.5199 67.8593C56.0902 68.4179 56.2621 69.2733 55.973 70.0038C55.2894 71.6366 55.93 73.4686 57.4535 74.2577C58.1058 74.6015 58.7543 74.8788 59.391 75.1093C60.9847 75.7421 62.7972 74.9921 63.5121 73.4218C64.2074 71.9335 66.6254 71.9413 67.2464 73.578C67.7582 74.8202 68.9769 75.578 70.2386 75.578C70.5785 75.578 70.9222 75.5233 71.2543 75.41C71.973 75.1874 72.6644 74.9335 73.2972 74.6366C74.8168 73.9413 75.5394 72.1874 74.973 70.5311C74.6957 69.7655 74.8675 68.9452 75.4105 68.4022C76.0199 67.8124 76.8793 67.6483 77.6527 67.9608C79.2543 68.5858 81.0629 67.9491 81.848 66.453C82.1761 65.828 82.4457 65.203 82.7543 64.4296C83.2933 62.8202 82.5589 61.121 80.9769 60.3671C80.2621 60.0468 79.8168 59.3475 79.8168 58.5468C79.8168 57.7108 80.3324 56.9725 81.1488 56.6522C82.7464 56.0038 83.5433 54.2069 82.9847 52.6132C82.766 51.9296 82.516 51.246 82.2308 50.6561C81.5355 49.0624 79.7034 48.3358 78.1254 48.9491C77.348 49.2186 76.5316 49.0546 75.9847 48.5077C75.3988 47.9061 75.2269 47.0546 75.5355 46.2968C76.2113 44.664 75.5668 42.8358 73.9808 42.0155C73.3558 41.7147 72.7191 41.4218 72.0824 41.1874C70.473 40.5858 68.7152 41.3241 67.9574 42.9296C67.2972 44.3593 64.8519 44.3046 64.2425 42.785C63.6254 41.2069 61.891 40.3905 60.2308 40.8983L60.1957 40.9061C59.5394 41.1171 58.8832 41.3866 58.1722 41.6913C56.6332 42.4296 55.9339 44.2108 56.5355 45.8085C56.805 46.5468 56.6254 47.3749 56.0746 47.9218C55.4886 48.5077 54.6332 48.6718 53.8871 48.3905C52.2582 47.7108 50.4339 48.3475 49.5511 50.0429C49.2699 50.6366 48.9925 51.2343 48.7777 51.8202C48.1488 53.4374 48.93 55.2538 50.4808 55.9218C51.1996 56.2616 51.6605 56.9882 51.6605 57.7616C51.6605 58.5975 51.1488 59.3515 50.3832 59.6483ZM55.6605 57.7616C55.6605 55.6874 54.5629 53.746 52.766 52.6249C52.8129 52.5077 52.8675 52.3944 52.9183 52.2772C55.0511 52.8827 57.3402 52.3124 58.8988 50.7538C60.391 49.2694 60.9808 47.0975 60.4808 45.0585C60.598 45.0116 60.7152 44.9647 60.8363 44.9218C61.8871 46.8593 63.8949 48.0741 66.1332 48.0741C68.266 48.0741 70.2269 46.9491 71.2894 45.1757C71.4066 45.2304 71.5238 45.2811 71.641 45.3319C71.016 47.4257 71.5746 49.7147 73.141 51.3202C74.6175 52.7968 76.7894 53.3788 78.8441 52.8944C78.891 53.0155 78.9339 53.1327 78.9808 53.2538C77.0355 54.3046 75.8168 56.3085 75.8168 58.5468C75.8168 60.6835 76.9496 62.6483 78.7308 63.703C78.68 63.8202 78.6254 63.9335 78.5746 64.0507C76.4925 63.4413 74.2034 63.9882 72.598 65.5585C71.1058 67.0507 70.5199 69.2421 71.016 71.2616C70.8949 71.3085 70.7699 71.3554 70.6449 71.3983C69.6175 69.4804 67.5863 68.2343 65.3714 68.2343C63.2308 68.2343 61.3129 69.3241 60.2074 71.1366C60.0902 71.0858 59.9769 71.035 59.8597 70.9843C60.4847 68.8515 59.9105 66.5546 58.3324 65.0155C56.8089 63.4921 54.6058 62.914 52.641 63.4218C52.5941 63.3046 52.5472 63.1874 52.5043 63.0663C54.4183 62.035 55.6605 59.9882 55.6605 57.7616Z" fill="#3C7CFF"/>
<path d="M65.75 66.1211C70.1367 66.1211 73.7031 62.5547 73.7031 58.168C73.7031 53.7812 70.1367 50.2148 65.75 50.2148C61.3672 50.2148 57.8008 53.7812 57.8008 58.168C57.8008 62.5547 61.3672 66.1211 65.75 66.1211ZM65.75 54.2148C67.9297 54.2148 69.7031 55.9883 69.7031 58.168C69.7031 60.3477 67.9297 62.1211 65.75 62.1211C63.5742 62.1211 61.8008 60.3477 61.8008 58.168C61.8008 55.9883 63.5742 54.2148 65.75 54.2148Z" fill="#3C7CFF"/>
</svg>
