<svg width="100" height="87" viewBox="0 0 100 87" fill="none" xmlns="http://www.w3.org/2000/svg">
<g clip-path="url(#clip0_171_640)">
<path d="M-407.365 64.2073C-407.401 64.2317 -407.434 64.2561 -407.479 64.2764L-404.484 69.4604L-401.591 67.7921V67.7961C-401.107 67.5235 -400.504 67.5967 -400.102 67.9792C-398.547 69.4766 -396.35 70.8154 -394.254 71.3687C-393.693 71.507 -393.298 72.0075 -393.298 72.5854V75.9179H-387.317V72.5813C-387.317 72.0279 -386.946 71.5396 -386.413 71.3851C-384.212 70.7503 -382.198 69.5865 -380.546 67.9996C-380.147 67.5928 -379.52 67.5073 -379.028 67.7921L-376.139 69.4605L-373.14 64.2684L-375.964 62.6408V62.6367C-376.485 62.3763 -376.758 61.7863 -376.615 61.2166C-376.07 58.9787 -376.07 56.6431 -376.615 54.405C-376.754 53.8639 -376.509 53.3023 -376.029 53.0297L-373.14 51.3614L-376.139 46.1734L-378.967 47.8091H-378.971C-379.455 48.1265 -380.094 48.0654 -380.513 47.6667C-381.343 46.8651 -382.267 46.1693 -383.268 45.5915C-383.744 45.3148 -384.236 45.0706 -384.745 44.855C-384.794 44.8346 -384.835 44.8143 -384.879 44.7939C-385.364 44.5946 -385.86 44.4155 -386.365 44.269C-386.926 44.1388 -387.325 43.6343 -387.325 43.0524V39.7199H-393.306V43.0524C-393.306 43.6139 -393.677 44.1062 -394.218 44.2567C-396.415 44.8915 -398.429 46.0512 -400.081 47.6381C-400.48 48.045 -401.102 48.1305 -401.599 47.8456L-404.492 46.1773L-407.487 51.3612L-404.671 52.9929C-404.142 53.2533 -403.869 53.8393 -404.008 54.409C-404.358 55.825 -404.488 57.2857 -404.39 58.7383V58.8075V58.8116C-404.337 59.6254 -404.211 60.4311 -404.012 61.2245C-403.886 61.7657 -404.126 62.3272 -404.606 62.6079L-407.365 64.2073ZM-1198.2 9.49893L-1205.28 13.5842C-1205.67 13.808 -1206.14 13.808 -1206.53 13.5883C-1206.91 13.3645 -1207.15 12.9535 -1207.16 12.51V4.25393C-1207.16 3.79007 -1206.91 3.36689 -1206.49 3.14716C-1206.09 2.92743 -1205.59 2.95592 -1205.21 3.21227L-1198.12 7.29758C-1197.73 7.52952 -1197.49 7.96083 -1197.5 8.41654C-1197.51 8.87634 -1197.78 9.29137 -1198.19 9.49893L-1198.2 9.49893ZM-1202.95 9.36872L-1201.25 8.38402L-1204.66 6.41871V10.3534L-1202.95 9.36872ZM-1202.49 16.575H-1191.92C-1190.38 16.5709 -1189.14 15.3258 -1189.13 13.7877V3.00122C-1189.14 1.46309 -1190.38 0.21799 -1191.92 0.213927H-1214.62C-1216.16 0.209858 -1217.41 1.45497 -1217.42 3.00122V13.7804C-1217.42 15.0296 -1216.58 16.1282 -1215.38 16.4659C-1214.74 16.6449 -1214.35 17.2919 -1214.5 17.943L-1215.08 20.5105L-1211.61 16.9582C-1211.37 16.7141 -1211.05 16.5798 -1210.71 16.5798H-1207.07C-1207.05 16.5757 -1207.02 16.5757 -1207 16.5798C-1206.98 16.5757 -1206.96 16.5757 -1206.94 16.5798L-1202.49 16.575ZM-1198.29 19.0733H-1205.75V20.0987C-1205.75 21.6368 -1204.5 22.8819 -1202.96 22.886H-1184.17H-1184.18C-1183.84 22.8819 -1183.52 23.0203 -1183.28 23.2603L-1179.81 26.8208L-1180.39 24.2533H-1180.4C-1180.54 23.6063 -1180.15 22.9593 -1179.52 22.7802C-1178.31 22.4425 -1177.47 21.3439 -1177.47 20.0907V9.32399C-1177.48 7.78587 -1178.73 6.54482 -1180.26 6.54076H-1186.64V13.7917C-1186.65 16.7092 -1189.01 19.0733 -1191.93 19.0814L-1198.29 19.0733ZM-1208.24 19.0733H-1210.18L-1216.38 25.4251C-1216.77 25.8238 -1217.38 25.9174 -1217.86 25.6529C-1218.36 25.3884 -1218.61 24.831 -1218.49 24.2858L-1217.16 18.4223H-1217.16C-1218.85 17.4946 -1219.91 15.7204 -1219.92 13.7877V3.00127C-1219.91 0.0837712 -1217.55 -2.28029 -1214.63 -2.28435H-1191.93C-1189.01 -2.28028 -1186.65 0.0797091 -1186.64 3.00127V4.04294H-1180.26C-1177.34 4.04701 -1174.98 6.41106 -1174.98 9.32856V20.1077V20.1037C-1174.98 22.0365 -1176.04 23.8105 -1177.74 24.7382L-1176.4 30.6017V30.6057C-1176.29 31.1469 -1176.54 31.6963 -1177.03 31.9607C-1177.52 32.2252 -1178.12 32.1357 -1178.51 31.7451L-1184.71 25.3893H-1202.96C-1205.88 25.3852 -1208.24 23.0211 -1208.25 20.1036L-1208.24 19.0733ZM-1156.16 71.1077L-1152.28 85.5848V85.5888C-1152.1 86.2561 -1152.5 86.9398 -1153.17 87.1188C-1153.83 87.2938 -1154.52 86.8991 -1154.7 86.2318L-1158.48 72.1005H-1174.37L-1178.7 86.2693H-1178.7C-1178.9 86.9244 -1179.59 87.2987 -1180.25 87.1034C-1180.91 86.9 -1181.29 86.2082 -1181.09 85.5491L-1176.51 70.5918V70.5877C-1176.38 70.0099 -1175.88 69.5908 -1175.28 69.5908H-1158.36L-1153.87 51.0689C-1153.71 50.4057 -1153.04 49.9947 -1152.37 50.1575C-1151.7 50.3202 -1151.29 50.9957 -1151.45 51.663L-1156.16 71.1077ZM-1186.09 55.7348L-1173.39 53.4724L-1170.99 49.9892L-1171.08 46.7584C-1171.32 40.3334 -1165.28 38.1117 -1160.89 40.0283C-1158.66 40.9927 -1157.02 42.958 -1157.18 45.7167C-1157.11 46.8602 -1157.1 52.1458 -1157.16 56.7115C-1157.21 60.3492 -1157.31 63.6044 -1157.48 64.1578C-1157.9 65.5901 -1158.79 66.8433 -1160.01 67.7141C-1162.05 69.2156 -1163.11 69.1708 -1165.32 69.2237C-1169.53 69.3214 -1174.75 69.1952 -1178.65 69.3254L-1184.42 87.0015C-1185.79 91.4326 -1191.85 91.9901 -1194.02 87.9048H-1194.02C-1194.67 86.68 -1194.81 85.2477 -1194.4 83.9253L-1187.85 62.5222C-1189.25 61.1794 -1189.52 59.035 -1188.5 57.383C-1187.96 56.5163 -1187.08 55.9182 -1186.08 55.7351L-1186.09 55.7348ZM-1168.59 46.5143L-1167 44.2073H-1167C-1166.45 43.3772 -1165.57 42.8116 -1164.59 42.6448C-1163.6 42.4779 -1162.59 42.7261 -1161.79 43.3284C-1160.12 44.6061 -1159.64 47.0026 -1160.85 48.7727L-1168.09 59.3602C-1168.79 60.3775 -1169.65 60.8169 -1170.8 61.0286L-1184.72 63.5025H-1184.72C-1185 63.5513 -1185.29 63.5676 -1185.58 63.5473L-1192.03 84.6452C-1192.24 85.341 -1192.17 86.0897 -1191.83 86.7285C-1191.49 87.3714 -1190.91 87.8515 -1190.21 88.0673C-1189.52 88.2789 -1188.77 88.2016 -1188.13 87.8557C-1187.52 87.5342 -1187.05 86.9931 -1186.83 86.338C-1186.81 86.2729 -1186.79 86.2159 -1186.77 86.1467L-1180.76 67.7259V67.73C-1180.59 67.2173 -1180.11 66.8714 -1179.58 66.8673C-1177.7 66.7738 -1175.18 66.7778 -1172.44 66.7778L-1165.12 66.7249C-1163.57 66.6965 -1162.81 66.6802 -1161.48 65.6995H-1161.48C-1160.71 65.1543 -1160.14 64.3608 -1159.87 63.4535C-1159.77 63.128 -1159.7 60.121 -1159.66 56.6867C-1159.59 51.9097 -1159.59 46.4165 -1159.66 45.8555V45.8514C-1159.67 45.7741 -1159.68 45.6927 -1159.67 45.6113C-1159.46 42.4334 -1163.55 41.1029 -1166.2 42.2788C-1167.59 42.8932 -1168.63 44.2563 -1168.6 46.5106L-1168.59 46.5143ZM-1172.44 55.8405L-1185.69 58.2086C-1186.73 58.3917 -1187.04 60.064 -1186.06 60.8209V60.8168C-1185.8 61.0244 -1185.45 61.1098 -1185.13 61.0406L-1171.26 58.5707C-1170.75 58.4731 -1170.47 58.3795 -1170.18 57.9604L-1162.94 47.3645C-1162.28 46.4083 -1163.08 44.915 -1164.22 45.1143V45.1184C-1164.52 45.1794 -1164.79 45.3503 -1164.96 45.6067C-1167.13 48.8416 -1169.4 52.0479 -1171.61 55.2624C-1171.79 55.5717 -1172.11 55.7873 -1172.47 55.8524L-1172.44 55.8405ZM-1166.19 22.1249V22.1289C-1161.61 22.2836 -1158.03 26.1084 -1158.17 30.686C-1158.16 30.7348 -1158.16 30.7877 -1158.17 30.8366C-1158.27 33.0053 -1159.22 35.044 -1160.81 36.5209C-1162.41 38.0143 -1164.53 38.8158 -1166.72 38.7467C-1166.78 38.7507 -1166.83 38.7507 -1166.88 38.7467C-1169.04 38.6409 -1171.08 37.6969 -1172.56 36.1141C-1175.69 32.753 -1175.5 27.4919 -1172.14 24.363C-1170.53 22.8534 -1168.39 22.0518 -1166.18 22.1332L-1166.19 22.1249ZM-1162.23 26.4625C-1165.76 22.6742 -1172.12 25.0627 -1172.3 30.2263V30.2304C-1172.36 31.7726 -1171.79 33.27 -1170.74 34.3971C-1169.71 35.5038 -1168.29 36.163 -1166.78 36.2403H-1166.74H-1166.74C-1165.18 36.3095 -1163.66 35.7479 -1162.52 34.6818C-1161.41 33.6524 -1160.75 32.2323 -1160.67 30.7227V30.6739V30.6779C-1160.6 29.1195 -1161.17 27.5977 -1162.24 26.4583L-1162.23 26.4625ZM-1242.94 71.1239L-1247.64 51.6698C-1247.8 51.0024 -1247.39 50.3269 -1246.72 50.1642C-1246.06 50.0096 -1245.39 50.4165 -1245.22 51.0798L-1240.74 69.6016H-1223.82C-1223.22 69.5976 -1222.7 70.0167 -1222.59 70.5985L-1218 85.5558H-1218C-1217.81 86.215 -1218.18 86.9108 -1218.83 87.1102C-1219.49 87.3055 -1220.19 86.9352 -1220.39 86.2761L-1224.72 72.1073H-1240.61L-1244.39 86.2386V86.2426C-1244.57 86.9059 -1245.26 87.3046 -1245.92 87.1256C-1246.24 87.0402 -1246.52 86.8326 -1246.68 86.5437C-1246.85 86.2589 -1246.89 85.9171 -1246.81 85.5957L-1242.94 71.1239ZM-1202.63 51.3562L-1217 52.8617C-1217.35 52.9024 -1217.7 52.7885 -1217.96 52.5484L-1227.7 44.565C-1228.8 43.6739 -1230.15 44.6301 -1230 46.0217C-1229.96 46.4448 -1229.76 46.8355 -1229.44 47.104L-1225.8 50.111C-1225.75 50.1436 -1225.7 50.1843 -1225.66 50.2209L-1218.78 55.8971C-1218.34 56.2633 -1217.99 56.2918 -1217.41 56.2267L-1202.28 54.6399C-1201.05 54.5137 -1200.57 52.646 -1201.63 51.698H-1201.63C-1201.9 51.4457 -1202.27 51.3236 -1202.63 51.3562L-1202.63 51.3562ZM-1216.74 50.3268L-1213.66 50.0053L-1205.34 47.3198V47.3157C-1204.84 47.157 -1204.49 46.7094 -1204.44 46.1886C-1204.4 45.6637 -1204.68 45.1673 -1205.14 44.9273C-1205.45 44.7645 -1205.8 44.732 -1206.13 44.8378L-1217.13 48.3982C-1217.61 48.5447 -1218.14 48.386 -1218.46 47.9994L-1223.88 43.2061C-1226.33 41.0536 -1230.95 40.0648 -1233.4 42.673C-1235.01 44.3861 -1236.22 47.2792 -1237.19 50.5628C-1238.19 53.9401 -1238.9 57.6918 -1239.5 61.0201C-1239.6 62.1798 -1239.47 63.1238 -1239.16 63.8847V63.8888C-1238.84 64.609 -1238.34 65.2316 -1237.7 65.6833C-1236.29 66.7249 -1235.48 66.6802 -1233.82 66.7249C-1231.47 66.7778 -1229.03 66.7778 -1226.74 66.7738C-1223.99 66.7738 -1221.46 66.7738 -1219.6 66.8633V66.8592C-1219.06 66.8633 -1218.58 67.2132 -1218.42 67.7218L-1212.37 86.2239C-1212.06 87.2859 -1211.12 88.0509 -1210.03 88.1608C-1208.92 88.2666 -1207.86 87.701 -1207.34 86.7204C-1207 86.0815 -1206.92 85.3329 -1207.13 84.637L-1213.8 62.8558H-1213.8C-1213.99 62.2454 -1214.39 61.7164 -1214.93 61.3706C-1215.47 61.0206 -1216.12 60.8742 -1216.76 60.9515C-1216.81 60.9596 -1216.86 60.9637 -1216.92 60.9637C-1219.19 60.9759 -1221.08 61.0207 -1222.61 61.0573C-1226.4 61.159 -1228.21 61.2038 -1229.17 60.3371C-1230.33 59.2954 -1229.91 58.0706 -1229.12 55.7147C-1228.77 54.6608 -1228.32 53.318 -1227.89 51.5847L-1231.01 49.0415C-1232.74 47.5685 -1233 44.9969 -1231.6 43.2065C-1230.96 42.3887 -1230.02 41.8678 -1228.98 41.7621C-1227.95 41.6603 -1226.92 41.9818 -1226.12 42.6532L-1216.74 50.3268ZM-1203.22 48.9107L-1202.89 48.8741C-1199.5 48.5201 -1197.25 52.7031 -1199.38 55.5758H-1199.37C-1200 56.4425 -1200.96 57.004 -1202.03 57.1179L-1215.49 58.5381H-1215.48C-1214.82 58.6642 -1214.18 58.9165 -1213.61 59.2868C-1212.57 59.9541 -1211.8 60.9673 -1211.45 62.1473L-1204.79 83.9327C-1203.43 88.372 -1208.14 92.2538 -1212.23 90.0728C-1213.45 89.4299 -1214.36 88.3272 -1214.77 87.0088L-1220.55 69.3245C-1224.45 69.1943 -1229.68 69.3245 -1233.88 69.2227C-1236.09 69.1698 -1237.14 69.2105 -1239.19 67.7132C-1241.42 66.0774 -1242.26 63.6564 -1241.99 60.7551C-1241.98 60.7104 -1241.97 60.6615 -1241.96 60.6127C-1241.35 57.1989 -1240.61 53.3495 -1239.59 49.8783C-1238.53 46.265 -1237.13 43.0221 -1235.22 40.9834C-1231.78 37.3173 -1225.66 38.3426 -1222.24 41.3456L-1217.18 45.793L-1206.88 42.4605C-1203.7 41.4392 -1200.81 44.7961 -1202.35 47.8031C-1202.57 48.2181 -1202.86 48.5925 -1203.21 48.9058L-1203.22 48.9107ZM-1219.25 58.4932C-1219.65 58.3305 -1220.03 58.1026 -1220.36 57.8218L-1225.8 53.3337C-1226.16 54.5991 -1226.51 55.645 -1226.79 56.4994C-1227.24 57.8382 -1227.6 58.4241 -1227.53 58.4769C-1227.3 58.6845 -1225.81 58.6478 -1222.69 58.5746C-1221.7 58.542 -1220.56 58.5136 -1219.25 58.4973V58.4932ZM-1227.63 24.2203C-1232.79 24.3993 -1235.18 30.7632 -1231.4 34.2952C-1227.61 37.8271 -1221.42 34.9869 -1221.61 29.8314H-1221.6C-1221.73 26.621 -1224.42 24.1104 -1227.63 24.2203ZM-1233.51 24.3668C-1230.38 21.0098 -1225.12 20.8227 -1221.76 23.9517C-1218.41 27.0849 -1218.22 32.338 -1221.34 35.7028C-1224.47 39.0598 -1229.73 39.2468 -1233.09 36.1178C-1236.44 32.9847 -1236.63 27.7316 -1233.51 24.3668ZM15.9701 60.1741C15.2825 60.1741 14.7208 59.6125 14.7208 58.9249C14.7208 58.2332 15.2825 57.6757 15.9701 57.6757H48.8232C49.515 57.6757 50.0723 58.2332 50.0723 58.9249C50.0723 59.6126 49.5149 60.1741 48.8232 60.1741H15.9701ZM24.3156 46.5751C24.3156 47.2628 23.754 47.8243 23.0664 47.8243C22.3746 47.8243 21.8131 47.2628 21.8131 46.5751C21.8131 45.1184 19.9943 44.6993 19.152 45.5538V45.5497C18.8834 45.8223 18.7329 46.1886 18.7369 46.5751V52.3572C18.7369 53.7976 20.5518 54.2208 21.4022 53.3785V53.3745C21.6667 53.1018 21.8173 52.7356 21.8173 52.3531C21.8173 51.6655 22.3748 51.104 23.0664 51.104C23.7582 51.104 24.3156 51.6655 24.3156 52.3531C24.3156 54.5423 22.5455 56.3123 20.3605 56.3123C19.1602 56.3123 18.2 55.9705 17.3779 55.1485H17.3739C16.6333 54.4121 16.2181 53.407 16.2181 52.3613V46.5751C16.2181 44.3859 17.9922 42.6159 20.1772 42.6159C21.3816 42.6159 22.338 42.9537 23.16 43.7756V43.7716C23.9006 44.5121 24.3156 45.5172 24.3156 46.567V46.5751ZM48.5625 46.6687C48.5625 47.3564 48.0009 47.9179 47.3132 47.9179C46.6215 47.9179 46.0641 47.3563 46.0641 46.6687C46.0601 46.0421 45.6857 45.4806 45.1079 45.2405C44.5302 45.0004 43.8668 45.1347 43.4233 45.5782C42.9799 46.0177 42.8495 46.6809 43.0896 47.2587C43.3256 47.8365 43.8912 48.2149 44.5138 48.2149C48.1067 48.2149 49.9175 52.5729 47.3784 55.116C44.8394 57.6591 40.4692 55.8484 40.4692 52.2595C40.4692 51.5678 41.0308 51.0104 41.7224 51.0104C42.41 51.0104 42.9717 51.5678 42.9717 52.2595C42.9717 52.8821 43.3501 53.4476 43.9279 53.6837C44.5016 53.9238 45.1689 53.7895 45.6084 53.346C46.0479 52.9024 46.1781 52.2392 45.938 51.6614C45.6979 51.0876 45.1364 50.7133 44.5098 50.7133C40.9209 50.7133 39.1143 46.3473 41.6533 43.8082C44.1924 41.2691 48.5583 43.0758 48.5583 46.6646L48.5625 46.6687ZM33.6459 55.055V55.0509C33.6459 55.7426 33.0883 56.3041 32.3966 56.3041C31.705 56.3041 31.1475 55.7426 31.1475 55.0509V46.3025C31.1475 45.7858 30.8503 45.1266 30.4801 45.1266C29.9796 45.1266 29.7762 45.0452 29.5361 45.3585H29.5321C29.3328 45.6312 29.2269 45.9648 29.2391 46.3026V55.0509C29.2391 55.7426 28.6775 56.3041 27.9858 56.3041C27.2982 56.3041 26.7367 55.7426 26.7367 55.0509V46.3026C26.7367 44.4267 28.0226 42.6242 29.8984 42.6242C30.871 42.6242 31.5503 42.6242 32.3966 43.3729C33.2307 42.6242 33.9185 42.6242 34.895 42.6242C36.7709 42.6242 38.0607 44.4187 38.0607 46.3026V55.0509H38.0648C38.0648 55.7426 37.5033 56.3041 36.8116 56.3041C36.124 56.3041 35.5625 55.7426 35.5625 55.0509V46.3026C35.5625 45.7858 35.2736 45.1266 34.8992 45.1266C34.3905 45.1266 34.1953 45.0452 33.9552 45.3586C33.7559 45.6312 33.65 45.9648 33.6622 46.3026L33.6459 55.055ZM74.5312 14.9716C79.996 14.9716 84.6996 18.8331 85.7655 24.1961C86.8315 29.559 83.963 34.9263 78.9094 37.018C73.8597 39.1094 68.0364 37.3394 64.9978 32.7943C61.9623 28.2492 62.5607 22.1902 66.4261 18.3245C68.5786 16.1761 71.4918 14.9716 74.5312 14.9716ZM80.8625 20.0945C78.2991 17.5311 74.4457 16.762 71.0969 18.1495C67.7482 19.537 65.5671 22.8045 65.5671 26.4259C65.5671 30.0514 67.7482 33.3147 71.0969 34.7022C74.4457 36.0897 78.2991 35.3207 80.8625 32.7613C84.3579 29.2619 84.3579 23.5896 80.8625 20.0945ZM80.9236 7.58214C83.3976 8.42442 85.6802 9.74276 87.6415 11.4681L91.6698 9.14058H91.6658C92.2639 8.79879 93.0248 9.00223 93.3706 9.59631L98.5179 18.5196C98.8557 19.1178 98.6522 19.8746 98.0581 20.2205L94.038 22.5398H94.0339C94.5507 25.0992 94.5507 27.736 94.0339 30.2954L98.0623 32.6229C98.6604 32.9687 98.8597 33.7296 98.5179 34.3278L93.3706 43.247C93.1957 43.5441 92.9108 43.7557 92.5771 43.837C92.2394 43.9143 91.8895 43.8533 91.6006 43.6621L90.9252 43.2837V70.692C90.9252 71.3797 90.3636 71.9412 89.676 71.9412H52.7865V79.9612H62.7271C64.5867 79.9652 66.0922 81.4707 66.0962 83.3303V85.4585C66.0962 86.1502 65.5347 86.7076 64.847 86.7076H28.3074C27.6156 86.7076 27.0583 86.1502 27.0583 85.4585V83.3344C27.0624 81.4748 28.5679 79.9652 30.4315 79.9612H40.364V71.9412H3.47034C2.77856 71.9412 2.22107 71.3837 2.22107 70.692V15.3087C2.22107 14.6169 2.77869 14.0595 3.47034 14.0595H53.1161L55.6836 9.59991H55.6876C56.0334 9.0099 56.7903 8.81052 57.3844 9.14825L61.4169 11.4758C63.374 9.74638 65.6567 8.42398 68.1266 7.58169V2.94305C68.1266 2.25132 68.6882 1.69388 69.3759 1.69388H79.6744C80.3662 1.69388 80.9237 2.25134 80.9237 2.94305L80.9236 7.58214ZM88.4227 41.8269L87.6293 41.3712C87.1572 41.7862 86.6649 42.1809 86.1522 42.5471V66.0659L86.1562 66.07C86.1562 66.7617 85.5947 67.3191 84.9071 67.3191H8.23523C7.54346 67.3191 6.98193 66.7617 6.98193 66.07V19.9273C6.98193 19.2355 7.54358 18.6781 8.23523 18.6781H50.4633C50.4877 18.6293 50.5081 18.5764 50.5365 18.5316L51.6718 16.5663L4.71973 16.5622V69.4393H88.427L88.4227 41.8269ZM83.658 44.0893C82.7791 44.5491 81.8635 44.9438 80.9236 45.2693V49.912V49.908C80.9236 50.5997 80.3661 51.1612 79.6744 51.1612H69.3799C68.6881 51.1612 68.1307 50.5997 68.1307 49.908V45.2693C65.6609 44.427 63.3822 43.1046 61.4209 41.3834L57.3844 43.7109C56.7863 44.0486 56.0294 43.8452 55.6836 43.247L50.5322 34.3277V34.3318C50.1945 33.7337 50.3979 32.9727 50.9921 32.631L55.0122 30.3116L55.0162 30.3075C54.5076 27.7482 54.5076 25.1114 55.0162 22.548L52.6442 21.1726H9.48364V64.8247H83.666L83.658 44.0893ZM83.2185 11.3581C82.0142 10.6623 80.7283 10.1089 79.3895 9.72235C78.824 9.58807 78.4252 9.08352 78.4252 8.50568V4.19256H70.6249V8.50568C70.6289 9.06314 70.2587 9.55547 69.7216 9.71006C66.9912 10.4913 64.4929 11.9358 62.4502 13.9092C62.0514 14.2917 61.4493 14.365 60.9691 14.0923L57.2174 11.9276L54.9672 15.8298L54.9713 15.8258C54.9347 15.899 54.8981 15.9682 54.8533 16.0374L53.3192 18.6944L53.4901 18.7921L53.4861 18.788C53.5593 18.8206 53.6284 18.8613 53.6976 18.906L56.9895 20.8062C57.5144 21.0666 57.791 21.6526 57.6527 22.2223C56.9731 24.9851 56.9731 27.866 57.6527 30.6288C57.783 31.1659 57.5388 31.7275 57.0587 32.0041L53.3152 34.1648L57.2174 40.9275L60.8956 38.8075H60.8997C61.3879 38.486 62.0308 38.5471 62.45 38.9499C64.4844 40.9111 66.9624 42.3475 69.6765 43.1369C70.234 43.2712 70.6288 43.7716 70.6328 44.3454V48.6626H78.425V44.3454C78.425 43.788 78.7953 43.2997 79.3324 43.1451C81.0454 42.6568 82.6689 41.9041 84.1501 40.9153C84.1949 40.8787 84.2396 40.8502 84.2844 40.8177C85.1105 40.2602 85.8876 39.6336 86.6078 38.9459C87.0066 38.5634 87.6088 38.4902 88.089 38.7628L90.2048 39.9876L90.2008 39.9835C90.274 40.0161 90.3431 40.0527 90.4124 40.0974L91.8406 40.9316L95.7428 34.1689L92.0237 32.0245H92.0197C91.5273 31.7478 91.2831 31.1781 91.4174 30.6289C92.0928 27.8701 92.0928 24.9851 91.4174 22.2264C91.2913 21.6852 91.5314 21.1277 92.0115 20.8511L95.7507 18.6945L91.8406 11.9277L88.1622 14.0518C87.674 14.3732 87.0311 14.3122 86.6119 13.9094C85.5865 12.9247 84.4474 12.0702 83.2185 11.3581ZM42.8665 79.9612H50.2883V71.9412H42.8665V79.9612ZM62.7268 82.4595H30.4352V82.4636C29.9551 82.4636 29.5643 82.8501 29.5603 83.3303V84.2051H63.5936C63.5936 83.6029 63.6953 83.0699 63.3413 82.7159H63.3373C63.1746 82.5531 62.9548 82.4636 62.7269 82.4636L62.7268 82.4595ZM-1013.21 -2.37171L-1016.51 10.7064C-1016.62 11.1499 -1016.97 11.4958 -1017.41 11.6097C-1017.86 11.7196 -1018.33 11.5853 -1018.64 11.2517L-1020.46 9.48572C-1024.47 14.4215 -1029.67 18.9015 -1035.75 21.7461C-1041.32 24.3422 -1047.61 25.5913 -1054.39 24.5985C-1055.88 24.3788 -1055.79 22.1286 -1054.18 22.1124C-1049.99 21.9333 -1045.44 20.3343 -1040.57 17.1278C-1036.04 14.1411 -1031.25 9.7751 -1026.23 3.88302L-1028.26 1.9177V1.91363C-1028.58 1.60032 -1028.71 1.14459 -1028.6 0.713321C-1028.49 0.282051 -1028.15 -0.0597935 -1027.73 -0.181866L-1014.77 -3.87655C-1014.34 -3.99455 -1013.88 -3.87655 -1013.56 -3.57138C-1013.24 -3.26213 -1013.11 -2.8064 -1013.22 -2.37513L-1013.21 -2.37171ZM-1017.28 3.55683L-1016.16 -0.886506L-1024.97 1.61183L-1023.66 2.88141V2.88548C-1023.2 3.34121 -1023.16 4.07361 -1023.57 4.57413C-1029.82 12.0733 -1036.7 18.3887 -1043.78 21.8148C-1034.65 19.9186 -1027.05 13.9412 -1021.57 6.86163V6.85756C-1021.35 6.57273 -1021.02 6.38962 -1020.66 6.36114C-1020.3 6.33673 -1019.95 6.46693 -1019.69 6.71921L-1018.39 7.9888L-1017.28 3.55683ZM-1013.26 48.9954H-1003.58L-1003.57 17.0735H-1013.26L-1013.26 48.9954ZM-1015.76 21.4975V15.8212C-1015.76 15.1335 -1015.2 14.572 -1014.51 14.572H-1002.32C-1001.63 14.572 -1001.07 15.1336 -1001.07 15.8212V50.2452C-1001.07 50.9369 -1001.63 51.4943 -1002.32 51.4943H-1051.08C-1051.77 51.4943 -1052.33 50.9369 -1052.33 50.2452V37.0577C-1052.33 36.37 -1051.77 35.8085 -1051.08 35.8085H-1040.13L-1040.14 29.884C-1040.14 29.1923 -1039.58 28.6348 -1038.89 28.6348H-1027.94L-1027.94 22.7511C-1027.94 22.0594 -1027.38 21.5019 -1026.69 21.5019L-1015.76 21.4975ZM-1015.76 23.9958H-1025.45V48.9958H-1015.76V23.9958ZM-1027.94 31.1288H-1037.64V48.9882H-1027.94V31.1288ZM-1040.13 38.2984H-1049.83V48.988H-1040.13V38.2984ZM-1088.52 62.489L-1082.43 59.7262C-1080.73 58.9531 -1078.73 59.8279 -1078.02 61.5207C-1077.11 60.8208 -1076.2 60.0843 -1075.31 59.3356C-1064.59 50.3879 -1059.8 51.1446 -1042.5 52.8781C-1039.74 53.1548 -1038.06 54.3714 -1037.32 55.9217L-1037.33 55.9136C-1036.8 57.0366 -1036.75 58.3224 -1037.19 59.4821L-1030.46 56.1985C-1028.51 55.2382 -1026.31 54.9045 -1024.16 55.2423C-1022.36 55.5312 -1020.8 56.3124 -1019.79 57.3378L-1017.45 56.1984C-1012.64 53.8465 -1007.1 55.6206 -1005.79 58.7537C-1002.94 57.8748 -1000.24 58.1719 -998.451 59.0914C-996.885 59.9012 -995.741 61.3417 -995.965 63.1117C-996.136 64.4626 -997.117 65.8868 -999.196 67.1237L-1015.34 76.7388C-1016.13 77.2108 -1021.41 79.1599 -1026.76 80.9503C-1029.87 81.992 -1036.59 84.1363 -1037.56 84.1811L-1067.75 85.4303V85.4262C-1067.93 85.4344 -1068.12 85.4506 -1068.3 85.4791C-1067.99 87.0538 -1068.81 88.6285 -1070.28 89.2714L-1076.48 92.0871C-1078.19 92.7504 -1080.12 91.9122 -1080.8 90.2113L-1090.34 66.8676C-1091.02 65.1586 -1090.22 63.2217 -1088.54 62.4934L-1088.52 62.489ZM-1077.04 63.9132L-1069.2 83.1069L-1069.2 83.1029C-1068.75 83.0133 -1068.3 82.9564 -1067.84 82.932C-1066.59 82.8791 -1056.53 82.4762 -1048.12 82.1304C-1043.75 81.9513 -1039.81 81.7886 -1037.76 81.6991C-1035.58 81.2026 -1031.53 79.9331 -1027.54 78.5944C-1022.32 76.8406 -1017.26 74.9974 -1016.6 74.6068L-1000.45 64.9957C-998.44 63.7954 -997.553 62.359 -999.579 61.3174C-1001.04 60.5728 -1003.39 60.4344 -1005.91 61.4639L-1024.81 69.1705L-1024.9 69.2072L-1025.01 69.2438H-1025.02C-1025.05 69.256 -1025.09 69.2601 -1025.12 69.2723C-1025.16 69.2845 -1025.2 69.2885 -1025.24 69.3007H-1025.25L-1025.38 69.3252H-1025.39L-1025.53 69.3455H-1025.54L-1025.68 69.3659H-1025.7L-1025.85 69.3821H-1025.86L-1026.02 69.4025H-1026.04L-1026.2 69.4187H-1026.23L-1026.39 69.4391H-1026.43C-1026.48 69.4391 -1026.53 69.4391 -1026.59 69.4513H-1026.62C-1026.68 69.4513 -1026.74 69.4635 -1026.8 69.4635H-1026.81L-1026.82 69.4513C-1026.88 69.4594 -1026.94 69.4635 -1027.01 69.4635H-1027.04C-1027.11 69.4635 -1027.17 69.4635 -1027.25 69.4757H-1027.49H-1027.7H-1027.72H-1027.93H-1027.97H-1028.19H-1031.39C-1033.4 69.3984 -1036.94 69.1909 -1038.06 68.8938L-1039.31 68.5643L-1046.71 66.5989C-1046.71 66.5989 -1046.73 66.5989 -1046.74 66.5867L-1057.87 63.6286C-1059.28 63.2583 -1058.99 61.1425 -1057.52 61.179L-1044.82 61.4801C-1042.42 61.5412 -1040.71 60.5849 -1039.9 59.3724C-1039.42 58.6644 -1039.21 57.7651 -1039.57 57.0124C-1039.96 56.2027 -1040.98 55.5558 -1042.75 55.3767C-1059.22 53.7247 -1063.79 52.9922 -1073.71 61.2686C-1074.84 62.2126 -1075.93 63.0956 -1077.04 63.9257L-1077.04 63.9132ZM-1081.41 62.0008L-1087.5 64.7636V64.7595C-1087.96 64.9426 -1088.19 65.4553 -1088.02 65.9192L-1078.49 89.2671C-1078.32 89.6903 -1077.85 89.91 -1077.42 89.7676L-1071.3 86.9925C-1070.85 86.8053 -1070.62 86.3008 -1070.78 85.8369L-1071.09 85.0801C-1071.11 85.0394 -1071.13 84.9946 -1071.14 84.9499L-1079.68 64.0436C-1079.71 63.9826 -1079.74 63.9215 -1079.76 63.8564L-1080.32 62.4892V62.4852C-1080.49 62.0498 -1080.98 61.83 -1081.42 61.9969L-1081.41 62.0008ZM-1046.26 63.9295L-1047.09 63.9051L-1046.53 64.0516L-1046.26 63.9295ZM-1029.18 67.0302C-1027.56 67.0546 -1026.24 67.0098 -1025.82 66.8755H-1025.8C-1025.78 66.8755 -1025.78 66.8755 -1025.77 66.8633L-1008.14 59.6734C-1008.71 58.4691 -1010.56 57.8138 -1011.96 57.6593L-1011.96 57.6552C-1013.48 57.5046 -1015 57.7773 -1016.36 58.4527L-1033.58 66.8593C-1032.83 66.9081 -1032.12 66.9407 -1031.53 66.9651C-1030.79 66.9976 -1029.99 67.018 -1029.21 67.0302L-1029.18 67.0302ZM-1035.79 65.1543L-1022.24 58.534L-1022.24 58.5299C-1022.95 58.1027 -1023.74 57.8179 -1024.56 57.6999C-1026.2 57.4435 -1027.88 57.6999 -1029.37 58.4364L-1042.85 65.02L-1039 66.0454C-1038.26 65.8501 -1036.05 65.2723 -1035.79 65.1461L-1035.79 65.1543ZM-710.175 62.1758C-706.143 62.1758 -704.104 67.0789 -706.961 69.9313C-709.817 72.7837 -714.716 70.7532 -714.716 66.7168H-714.721C-714.721 64.2104 -712.686 62.1758 -710.18 62.1758H-710.175ZM-708.735 65.2764C-709.317 64.6945 -710.196 64.5196 -710.961 64.8329C-711.722 65.1503 -712.222 65.8908 -712.222 66.7168C-712.222 67.5429 -711.722 68.2875 -710.961 68.6008C-710.2 68.9182 -709.321 68.7473 -708.735 68.1654C-707.938 67.3679 -707.938 66.0739 -708.735 65.2764ZM-766.962 62.1921C-762.93 62.1921 -760.891 67.0953 -763.748 69.9477C-766.604 72.8 -771.499 70.7696 -771.499 66.7332C-771.499 64.2267 -769.469 62.1921 -766.962 62.1921ZM-765.501 65.2887C-766.087 64.7068 -766.966 64.5319 -767.727 64.8492C-768.488 65.1626 -768.989 65.9072 -768.993 66.7332C-768.989 67.5592 -768.492 68.2998 -767.727 68.6172C-766.966 68.9345 -766.087 68.7596 -765.501 68.1818C-764.704 67.3802 -764.704 66.0903 -765.501 65.2887ZM-710.171 17.7866C-706.139 17.7866 -704.1 22.6857 -706.957 25.5421C-709.813 28.3945 -714.712 26.3641 -714.712 22.3277L-714.716 22.3317C-714.716 21.1274 -714.236 19.9717 -713.386 19.1213C-712.535 18.2668 -711.38 17.7908 -710.175 17.7908L-710.171 17.7866ZM-708.727 20.8913C-709.313 20.3094 -710.192 20.1345 -710.953 20.4478C-711.713 20.7652 -712.214 21.5057 -712.218 22.3317C-712.214 23.1578 -711.717 23.9024 -710.953 24.2198C-710.192 24.5331 -709.313 24.3622 -708.727 23.7763C-708.344 23.3938 -708.129 22.877 -708.129 22.3318C-708.129 21.7906 -708.344 21.2738 -708.727 20.8913ZM-729.398 51.5841H-726.338C-724.645 51.58 -723.278 50.2129 -723.27 48.5202V39.8897C-723.278 38.197 -724.645 36.8298 -726.338 36.8217H-729.402L-729.398 51.5841ZM-726.334 54.0824H-730.651L-730.647 54.0865C-731.338 54.0865 -731.9 53.525 -731.9 52.8373V35.5728C-731.9 34.881 -731.338 34.3236 -730.647 34.3236H-726.338C-723.266 34.3277 -720.775 36.8179 -720.767 39.8901V48.5163C-720.775 51.5884 -723.265 54.0745 -726.338 54.0828L-726.334 54.0824ZM-734.065 39.8856L-734.061 39.8896C-734.061 40.5814 -734.622 41.1388 -735.31 41.1388C-736.002 41.1388 -736.559 40.5814 -736.559 39.8896C-736.563 38.6527 -737.308 37.5337 -738.455 37.0617C-739.599 36.5857 -740.913 36.8461 -741.792 37.7209C-743.725 39.6497 -742.353 42.9536 -739.627 42.9536C-734.671 42.9536 -732.205 48.9594 -735.692 52.4507C-739.184 55.9419 -745.194 53.4557 -745.194 48.5119C-745.194 47.8202 -744.636 47.2628 -743.944 47.2628C-743.253 47.2628 -742.695 47.8202 -742.695 48.5119C-742.695 51.2423 -739.387 52.6094 -737.462 50.6807C-735.538 48.7519 -736.925 45.4399 -739.631 45.4399C-744.571 45.4399 -747.065 39.4381 -743.57 35.9387C-740.071 32.4353 -734.069 34.9337 -734.069 39.8775L-734.065 39.8856ZM-746.979 39.8856L-746.975 39.8896C-746.975 40.5814 -747.537 41.1388 -748.229 41.1388C-748.916 41.1388 -749.478 40.5814 -749.478 39.8896C-749.478 37.1593 -752.79 35.7962 -754.714 37.7209C-756.639 39.6456 -755.268 42.9536 -752.55 42.9536C-747.59 42.9536 -745.12 48.9594 -748.611 52.4507C-752.102 55.9419 -758.112 53.4557 -758.112 48.5119C-758.112 47.8202 -757.551 47.2628 -756.859 47.2628C-756.171 47.2628 -755.61 47.8202 -755.61 48.5119C-755.61 51.2422 -752.302 52.6094 -750.377 50.6807C-748.448 48.7519 -749.836 45.4398 -752.546 45.4398C-757.482 45.4398 -759.976 39.4381 -756.481 35.9387C-752.985 32.4353 -746.979 34.9337 -746.979 39.8775V39.8856ZM-767.561 28.7085H-711.311L-711.307 28.7126C-710.615 28.7126 -710.057 29.27 -710.057 29.9617V58.4492C-710.057 59.141 -710.615 59.6984 -711.307 59.6984H-767.557C-768.248 59.6984 -768.806 59.1409 -768.806 58.4492V29.9544C-768.806 29.2668 -768.248 28.7053 -767.557 28.7053L-767.561 28.7085ZM-712.56 31.2068H-766.299L-766.295 57.1954H-712.556L-712.56 31.2068ZM-691.197 59.7797H-685.126V55.9264H-691.197V59.7797ZM-685.126 62.2781H-691.197V66.1233H-685.126V62.2781ZM-691.197 40.7854H-685.126V36.2851H-691.197V40.7854ZM-685.126 43.2837H-691.197V47.7921H-685.126V43.2837ZM-691.197 33.7826H-685.126V29.2822H-691.197V33.7826ZM-691.197 26.7716H-685.126V22.2713H-691.197V26.7716ZM-685.142 68.6258H-692.467C-693.154 68.6258 -693.716 68.0643 -693.716 67.3726V54.6653C-693.716 53.9776 -693.154 53.4161 -692.467 53.4161H-685.142V50.2911H-692.467C-693.154 50.2911 -693.716 49.7296 -693.716 49.0419V21.019C-693.716 20.3314 -693.154 19.7698 -692.467 19.7698H-685.142V18.5207C-685.151 15.8798 -687.291 13.7396 -689.932 13.7273H-699.632L-699.636 74.6857H-689.932C-687.291 74.6775 -685.151 72.5372 -685.142 69.8923V68.6258ZM-702.138 74.6805V13.719H-771.597H-771.592C-774.237 13.7272 -776.378 15.8675 -776.386 18.5123V69.8759C-776.378 72.5167 -774.237 74.6569 -771.592 74.6652L-702.138 74.6805ZM-766.961 17.7919C-762.929 17.7919 -760.89 22.691 -763.747 25.5475C-766.603 28.3998 -771.498 26.3694 -771.498 22.333C-771.502 21.1286 -771.022 19.973 -770.172 19.1226C-769.321 18.2681 -768.166 17.7919 -766.961 17.7919ZM-765.513 20.8926C-766.094 20.3066 -766.973 20.1317 -767.738 20.445C-768.503 20.7623 -769 21.5069 -769 22.333C-769 23.159 -768.503 23.9036 -767.738 24.221C-766.973 24.5343 -766.099 24.3634 -765.513 23.7775C-765.13 23.395 -764.914 22.8782 -764.914 22.333C-764.914 21.7918 -765.13 21.2751 -765.513 20.8926ZM-771.604 11.2287H-689.943C-685.922 11.2409 -682.667 14.5002 -682.651 18.5204V69.8756C-682.667 73.8958 -685.922 77.1551 -689.943 77.1672H-771.6C-775.624 77.155 -778.883 73.8958 -778.891 69.8756V18.5245C-778.883 14.5003 -775.624 11.241 -771.6 11.2329L-771.604 11.2287ZM208.906 44.1922C208.215 44.1922 207.657 43.6348 207.657 42.9431C207.657 42.2554 208.215 41.6939 208.906 41.6939H216.035C216.727 41.6939 217.285 42.2554 217.285 42.9431C217.285 43.6348 216.727 44.1922 216.035 44.1922H208.906ZM209.781 32.7662C209.089 32.7662 208.532 32.2087 208.532 31.517C208.532 30.8253 209.09 30.2679 209.781 30.2679H212.231C212.923 30.2679 213.48 30.8253 213.48 31.517C213.48 32.2088 212.922 32.7662 212.231 32.7662H209.781ZM207.234 27.0492C206.546 27.0492 205.985 26.4918 205.985 25.8001C205.985 25.1083 206.546 24.5509 207.234 24.5509H216.035C216.727 24.5509 217.284 25.1083 217.284 25.8001C217.284 26.4918 216.727 27.0492 216.035 27.0492H207.234ZM202.298 28.5995C205.045 31.342 205.867 35.4721 204.378 39.061C202.892 42.6458 199.393 44.9855 195.511 44.9855C191.625 44.9855 188.126 42.6458 186.641 39.061C185.156 35.4721 185.978 31.342 188.724 28.5995C192.472 24.8479 198.547 24.8479 202.298 28.5995ZM200.541 30.3614C198.51 28.331 195.454 27.7206 192.797 28.8233C190.144 29.9219 188.415 32.5098 188.415 35.3866C188.415 38.2593 190.144 40.8472 192.797 41.95C195.454 43.0486 198.51 42.4382 200.541 40.4078C201.875 39.0772 202.624 37.2706 202.624 35.3866C202.624 33.5027 201.875 31.696 200.541 30.3614ZM208.329 35.3826H208.333C208.333 40.0171 205.834 44.2896 201.798 46.5596C197.757 48.8302 192.809 48.7447 188.85 46.3318L187.182 48.0001C187.182 48.1222 187.194 48.2483 187.182 48.3704H213.667V48.2809C213.667 47.5932 214.225 47.0317 214.916 47.0317H223.343V42.5843C223.343 41.8926 223.905 41.3311 224.592 41.3311H233.019V36.9243C233.019 36.2326 233.581 35.6751 234.268 35.6751H236.767L236.771 33.2663L236.628 33.4087C236.177 33.8604 235.456 33.8929 234.96 33.4941L227.554 27.4721L210.651 38.971L210.655 38.967C210.122 39.3169 209.41 39.207 209.003 38.7147C208.601 38.2223 208.633 37.5021 209.077 37.0463L226.911 19.5901H226.915C227.359 19.1547 228.054 19.114 228.551 19.4924L235.472 24.8758L236.754 23.594V17.344H182.436V43.7034C182.591 43.6952 182.745 43.6952 182.9 43.7034L184.568 42.035H184.564C182.477 38.613 182.111 34.4097 183.58 30.6746C185.049 26.9434 188.178 24.1113 192.039 23.029C195.901 21.9425 200.047 22.732 203.245 25.1571C206.44 27.5782 208.315 31.3583 208.315 35.3704L208.329 35.3826ZM186.836 44.8145C186.571 44.5745 186.323 44.3262 186.079 44.0577L185.453 44.6843C185.587 44.7983 185.725 44.9122 185.855 45.0383C185.986 45.1645 186.095 45.2947 186.209 45.4412L186.836 44.8145ZM202.798 42.6783C205.643 39.8299 206.571 35.59 205.179 31.8179C203.783 28.0459 200.324 25.4255 196.312 25.1121C192.304 24.7948 188.476 26.8415 186.51 30.3489C184.545 33.8605 184.797 38.1939 187.161 41.4489C187.177 41.4611 187.186 41.4774 187.198 41.4937C187.507 41.9128 187.849 42.3075 188.219 42.6777C188.585 43.048 188.98 43.3898 189.403 43.6991C189.419 43.7072 189.432 43.7194 189.448 43.7316C193.554 46.7101 199.214 46.2631 202.798 42.6783ZM184.659 47.8663C184.659 47.8256 184.643 47.7931 184.635 47.7564C184.48 47.1664 184.077 46.6781 183.532 46.4096C182.982 46.1451 182.348 46.1329 181.79 46.3729C181.75 46.3933 181.709 46.4136 181.664 46.434C181.485 46.5316 181.314 46.6578 181.172 46.8043L172.566 55.4102V55.4061C171.776 56.2159 171.78 57.5098 172.582 58.3114C173.38 59.109 174.673 59.1171 175.483 58.3236L184.081 49.7218C184.26 49.5468 184.399 49.3393 184.5 49.1114C184.614 48.851 184.675 48.5662 184.675 48.2773C184.679 48.1471 184.667 48.0128 184.643 47.8826L184.659 47.8663ZM186.376 50.8652C186.225 51.0889 186.05 51.2965 185.863 51.4918L177.253 60.0815C174.405 62.9257 169.469 60.936 169.469 56.8547V56.8588C169.465 55.6502 169.945 54.4906 170.796 53.6361L179.406 45.0261C179.573 44.8592 179.752 44.7087 179.939 44.5703V26.5245H165.331V64.8266H230.635V59.9926H214.916C214.224 59.9926 213.667 59.4311 213.667 58.7435V50.8659L186.376 50.8652ZM187.157 21.3318C186.465 21.3318 185.904 20.7744 185.904 20.0827C185.904 19.391 186.465 18.8335 187.157 18.8335H216.035C216.727 18.8335 217.284 19.391 217.284 20.0827C217.284 20.7744 216.727 21.3318 216.035 21.3318H187.157ZM247.68 17.511L242.59 18.8741L242.919 19.1996H242.915C243.151 19.4356 243.286 19.753 243.286 20.0867C243.286 20.4203 243.151 20.7377 242.915 20.9737L238.899 24.9899L238.879 25.0061L236.466 27.415H236.47C235.998 27.887 235.245 27.9074 234.749 27.4638L227.872 22.1293L220.845 29.006L226.904 24.876C227.376 24.5505 228.01 24.5912 228.438 24.9737L235.64 30.8371L244.218 22.2596V22.2637C244.453 22.0277 244.771 21.8934 245.104 21.8934C245.438 21.8934 245.756 22.0277 245.988 22.2637L246.313 22.5892L247.68 17.511ZM244.49 15.7816L249.108 14.5446L249.104 14.5487C249.536 14.4266 249.999 14.5487 250.317 14.862C250.638 15.1794 250.764 15.6392 250.646 16.0706L248.177 25.2787H248.181C248.083 25.7263 247.749 26.0844 247.314 26.2146C246.874 26.3448 246.402 26.2268 246.077 25.9053L245.1 24.9328L239.253 30.78V35.6872H242.683L242.687 31.431C242.687 30.7434 243.245 30.1819 243.937 30.1819H253.609C254.301 30.1819 254.862 30.7434 254.862 31.431V58.7383C254.862 59.4301 254.3 59.9875 253.609 59.9875H237.337V70.1559H237.341C237.341 70.8477 236.779 71.4092 236.088 71.4092H203.617V78.2084H212.255C213.085 78.2084 213.879 78.538 214.465 79.124C215.051 79.7099 215.38 80.5033 215.38 81.3335V83.2093C215.38 83.897 214.823 84.4585 214.131 84.4585H181.823C181.135 84.4585 180.574 83.8969 180.574 83.2093V81.3335C180.574 79.6082 181.974 78.2085 183.699 78.2085H192.337V71.4051H159.862C159.171 71.4051 158.613 70.8477 158.613 70.156V21.1976C158.613 20.5059 159.171 19.9485 159.862 19.9485H179.938V8.987C179.942 6.19971 182.197 3.94138 184.984 3.93325H234.215H234.211C236.998 3.94139 239.253 6.19971 239.257 8.987V17.3732C239.415 17.2024 239.623 17.0762 239.851 17.0152L244.49 15.7816ZM239.257 21.0958L240.266 20.0867L239.294 19.1101L239.257 19.0735V21.0958ZM245.19 57.4927H252.359V32.6843H245.19V57.4927ZM234.838 59.991H233.125V66.0783C233.125 66.77 232.564 67.3315 231.876 67.3315H164.082C163.395 67.3315 162.833 66.77 162.833 66.0783V25.27C162.833 24.5823 163.395 24.0208 164.082 24.0208H179.944V22.442L161.117 22.4461V68.9065H234.839L234.838 59.991ZM242.688 38.1774H235.518V57.4931H242.688V38.1774ZM233.02 43.8334H225.846V57.4886H233.02V43.8334ZM223.348 49.5218H216.166V57.4889H223.339L223.348 49.5218ZM201.545 7.79058C204.227 7.79058 205.586 11.0498 203.686 12.9501C201.785 14.8503 198.518 13.4994 198.518 10.8138C198.522 9.14141 199.877 7.79058 201.545 7.79058ZM201.92 10.4436C201.432 9.95124 200.671 10.6959 201.171 11.1882C201.672 11.6806 202.42 10.9359 201.92 10.4436ZM194.612 7.79058C197.297 7.79058 198.652 11.0498 196.748 12.9501C194.844 14.8503 191.585 13.4912 191.585 10.8057C191.593 9.13735 192.944 7.79058 194.612 7.79058ZM194.982 10.4436C194.494 9.95124 193.749 10.6959 194.237 11.1882C194.726 11.6806 195.474 10.9359 194.982 10.4436ZM182.442 14.8463H236.759V8.98693C236.755 7.57901 235.616 6.44381 234.212 6.43974H184.985C183.581 6.44381 182.442 7.58318 182.438 8.98693L182.442 14.8463ZM187.67 7.79068C190.356 7.79068 191.715 11.05 189.815 12.9502C189.103 13.6663 188.077 13.9796 187.084 13.7843C186.095 13.589 185.266 12.9095 184.879 11.9776C184.492 11.0418 184.594 9.97972 185.156 9.13743C185.717 8.29515 186.661 7.79068 187.67 7.79068ZM188.041 10.4315C187.548 9.93916 186.804 10.6838 187.296 11.1761C187.784 11.6685 188.533 10.9239 188.041 10.4315ZM213.805 7.48964H233.3C233.992 7.48964 234.549 8.05116 234.549 8.74287V12.8688C234.549 13.5605 233.991 14.118 233.3 14.118H213.805C213.113 14.118 212.556 13.5605 212.556 12.8688V8.74287C212.556 8.0552 213.113 7.4937 213.805 7.4937V7.48964ZM232.047 9.98797H215.058V11.6156H232.047V9.98797ZM194.839 78.2088H201.114L201.11 71.4055H194.839V78.2088ZM212.255 80.7071H183.695C183.349 80.7071 183.072 80.9879 183.072 81.3338V81.9604H212.881C212.881 81.5291 212.951 81.1425 212.698 80.8903C212.58 80.7723 212.422 80.7071 212.255 80.7071ZM-907.641 44.2894L-917.284 49.864C-917.671 50.0797 -918.143 50.0756 -918.525 49.8559C-918.908 49.6321 -919.144 49.2252 -919.148 48.7817V37.5671C-919.148 37.1033 -918.892 36.6719 -918.477 36.4563C-918.061 36.2406 -917.565 36.2732 -917.183 36.5417L-912.426 39.2883L-907.572 42.0959L-907.567 42.0918C-907.177 42.3238 -906.941 42.7551 -906.957 43.2108C-906.969 43.6665 -907.234 44.0775 -907.641 44.285L-907.641 44.2894ZM-913.671 44.8998L-910.684 43.1746L-913.679 41.4494L-916.662 39.7242V46.6211L-913.671 44.8998ZM-925.516 30.8612H-924.613C-924.637 29.8643 -924.613 28.8756 -924.576 27.8827H-928.979C-930.936 27.8827 -932.458 26.1981 -932.458 24.2409L-932.462 1.02322C-932.462 -0.938026 -930.94 -2.61855 -928.983 -2.61855H-900.097C-899.707 -2.61855 -899.316 -2.54937 -898.946 -2.41103C-898.71 -2.4802 -898.474 -2.54123 -898.238 -2.60227C-889.009 -4.95414 -878.76 -4.20143 -870.003 -0.0305998C-860.755 4.37211 -853.373 12.4694 -850.354 24.3423C-849.5 27.6911 -849.105 29.6971 -849.113 31.3044C-849.142 33.046 -849.63 34.1974 -850.57 35.7966C-851.64 37.6276 -850.57 39.0274 -848.442 41.7984C-847.909 42.5023 -847.315 43.2754 -846.717 44.0892C-843.669 48.2762 -841.622 51.3524 -841.606 53.7084C-841.586 56.4956 -843.848 57.9686 -849.553 58.347C-850.037 58.3836 -850.192 58.5993 -850.163 59.055C-850.122 59.6287 -849.862 59.9176 -849.537 60.3815C-848.32 62.1312 -848.633 65.3335 -850.594 66.7047L-850.599 66.7088C-851.302 67.2215 -852.116 67.5592 -852.975 67.6975C-851.16 70.554 -852.401 73.4145 -855.986 74.4236C-856.193 74.4846 -855.791 74.5497 -855.807 74.8101C-855.819 74.9688 -855.831 75.1438 -855.856 75.3839C-856.966 85.6988 -860.816 85.3977 -867.88 84.8524C-868.295 84.8158 -868.734 84.7832 -869.178 84.7507V84.7425C-869.275 84.7588 -869.377 84.7588 -869.475 84.7425L-869.951 84.6896C-871.285 84.6083 -872.726 84.5472 -874.244 84.5879C-875.961 84.6286 -877.279 85.125 -878.288 86.1342C-879.366 87.2288 -880.164 88.9418 -880.766 91.3547L-880.77 91.3588C-880.925 91.9813 -881.519 92.3842 -882.154 92.2987L-915.784 87.6153C-916.178 87.5583 -916.52 87.3182 -916.712 86.9683C-916.899 86.6143 -916.907 86.1952 -916.736 85.8371C-913.489 78.3828 -912.093 73.8371 -912.183 69.8621C-912.264 65.9356 -913.818 62.3833 -916.476 56.984L-917.293 55.4704H-925.517C-927.206 55.4704 -928.528 54.0259 -928.528 52.3291V33.9937C-928.528 32.3051 -927.206 30.8525 -925.517 30.8525L-925.516 30.8612ZM-922.114 30.8612H-904.976V27.8827H-922.082C-922.139 28.8674 -922.151 29.8561 -922.119 30.8612H-922.114ZM-902.477 30.8734V30.8694C-902.338 30.8775 -902.196 30.8979 -902.062 30.9304L-898.762 27.7932C-897.586 26.7434 -895.812 26.7434 -894.636 27.7932L-889.676 32.5051L-880.809 22.7517C-879.804 21.649 -877.762 21.6205 -876.643 22.6744L-869.644 29.2296L-869.648 14.1827C-869.648 13.5154 -870.116 12.8969 -870.759 12.8969H-901.382C-902.025 12.8969 -902.492 13.5235 -902.492 14.1827V30.8702L-902.477 30.8734ZM-900.064 32.4807V32.4767C-899.811 32.9446 -899.677 33.4695 -899.677 34.0025V40.0816H-870.747C-870.104 40.0816 -869.636 39.4549 -869.636 38.7957V31.4064C-870.116 31.6912 -870.723 31.6301 -871.134 31.2477L-878.332 24.4972C-878.511 24.3303 -878.958 24.4361 -878.958 24.432L-891.234 37.9373C-891.698 38.4459 -892.484 38.4825 -892.992 38.0227C-893.24 37.7989 -893.387 37.4856 -893.403 37.156C-893.419 36.8264 -893.301 36.5009 -893.078 36.2568L-891.348 34.3525L-896.349 29.5999L-896.345 29.5958C-896.561 29.4778 -896.817 29.4778 -897.033 29.5958L-900.064 32.4807ZM-899.681 42.5759V52.3497C-899.681 54.0465 -901.004 55.4909 -902.692 55.4909H-914.464L-914.297 55.7961L-914.293 55.7921C-914.281 55.8083 -914.273 55.8287 -914.265 55.8531C-911.441 61.5985 -909.785 65.3908 -909.683 69.8302C-909.594 73.9358 -910.863 78.4321 -913.817 85.3823L-882.889 89.6913C-881.966 86.603 -880.562 84.2755 -878.246 83.0588C-885.038 81.069 -890.905 77.4842 -894.747 71.5026H-894.751C-895.121 70.9207 -894.95 70.1476 -894.368 69.7774C-893.79 69.4111 -893.025 69.578 -892.651 70.1517C-887.76 77.777 -879.122 81.0892 -869.734 82.2205C-869.014 82.2612 -868.335 82.314 -867.683 82.3669C-862.174 82.7983 -859.175 83.0343 -858.325 75.1282C-858.178 73.7326 -858.378 72.524 -856.648 72.0357C-854.785 71.5067 -854.056 70.5099 -855.147 68.931V68.9269C-855.794 68.0277 -856.709 67.3604 -857.763 67.0186C-858.081 66.9128 -858.345 66.689 -858.491 66.392C-858.642 66.0909 -858.666 65.745 -858.561 65.4317C-858.337 64.7888 -857.645 64.4429 -856.998 64.6504C-855.216 65.2323 -853.377 65.7694 -851.961 64.6382C-851.216 64.0442 -851.127 62.388 -851.611 61.794C-853.56 59.4014 -852.714 56.077 -849.719 55.8817C-845.686 55.609 -844.095 54.9377 -844.095 53.7454C-844.108 52.1219 -845.971 49.3875 -848.738 45.579C-849.365 44.7163 -849.926 43.988 -850.427 43.3288C-853.226 39.6789 -854.638 37.8356 -852.718 34.5559C-852.001 33.3271 -851.623 32.4726 -851.607 31.2926C-851.586 29.8359 -852.262 26.7109 -853.076 23.8464C-856.103 13.2339 -862.89 6.13803 -871.077 2.23178C-879.056 -1.58499 -888.386 -2.34989 -896.879 -0.364264C-896.704 0.0792575 -896.614 0.547195 -896.614 1.02324V10.3982H-870.744C-868.713 10.3982 -867.134 12.1479 -867.134 14.1824V38.7834C-867.134 40.822 -868.713 42.5676 -870.744 42.5676L-899.681 42.5759ZM-902.692 33.3678L-925.515 33.3597C-925.816 33.3597 -926.024 33.6811 -926.024 33.9985V52.3339C-926.024 52.6595 -925.816 52.9768 -925.515 52.9768H-902.692C-902.391 52.9768 -902.18 52.6595 -902.18 52.3339V33.9985L-902.176 34.0026C-902.172 33.7788 -902.273 33.5672 -902.452 33.4329C-902.521 33.3922 -902.603 33.3678 -902.684 33.3678L-902.692 33.3678ZM-916.405 8.18033L-906.371 4.84783V3.62303L-916.405 6.95553V8.18033ZM-906.371 7.46418L-916.405 10.7967V21.0588C-916.454 24.1838 -921.011 25.73 -923.782 23.6711C-926.728 21.4778 -924.856 17.4211 -920.811 17.4211L-920.807 17.417C-920.156 17.417 -919.509 17.5391 -918.903 17.7791V6.06872C-918.903 5.48278 -918.5 4.97413 -917.927 4.84392L-905.626 0.750487V0.754556C-905.463 0.681314 -905.292 0.648764 -905.117 0.648764C-904.425 0.648764 -903.868 1.20622 -903.868 1.89793V11.4601C-903.209 10.7806 -902.309 10.3981 -901.365 10.3981H-899.115V1.02314C-899.111 0.620306 -899.302 0.241889 -899.632 0.00995111C-899.66 0.00181246 -899.685 -0.0103929 -899.709 -0.0307388C-899.827 -0.0917742 -899.962 -0.124327 -900.096 -0.124327H-928.978C-929.552 -0.124327 -929.959 0.433132 -929.959 1.02317L-929.963 24.2492C-929.963 24.8392 -929.548 25.3886 -928.982 25.3886H-904.975V19.2485C-906.509 20.6279 -909.316 20.9493 -911.249 19.5048C-914.195 17.3197 -912.323 13.2548 -908.279 13.2548V13.2589C-907.624 13.2589 -906.977 13.3769 -906.37 13.6129L-906.371 7.46418ZM-906.786 17.5065C-905.284 16.3916 -908.21 15.0325 -909.768 16.1881C-911.27 17.303 -908.344 18.6621 -906.786 17.5065ZM-919.318 21.6731C-917.817 20.5582 -920.742 19.1992 -922.301 20.3548C-923.802 21.4697 -920.876 22.8288 -919.318 21.6731ZM-890.896 15.8381C-887.283 15.8381 -885.456 20.2327 -888.011 22.788C-890.567 25.3433 -894.965 23.5205 -894.965 19.9113L-894.961 19.9153C-894.961 17.6651 -893.142 15.8422 -890.892 15.8381L-890.896 15.8381ZM-889.781 18.8045C-890.233 18.3528 -890.908 18.2186 -891.494 18.4627C-892.08 18.7068 -892.463 19.2765 -892.463 19.9153C-892.463 20.546 -892.08 21.1197 -891.494 21.3598C-890.908 21.6039 -890.233 21.4696 -889.781 21.022C-889.488 20.7291 -889.321 20.3303 -889.321 19.9153C-889.321 19.4962 -889.488 19.0975 -889.781 18.8045ZM-255.848 23.2967H-230.176V23.3007C-229.484 23.3007 -228.923 23.8582 -228.923 24.5499V38.4166H-224.288C-223.6 38.4166 -223.039 38.974 -223.039 39.6657V52.5803C-223.039 53.2721 -223.6 53.8295 -224.288 53.8295H-237.207C-237.895 53.8295 -238.456 53.272 -238.456 52.5803V39.6657C-238.456 38.974 -237.895 38.4166 -237.207 38.4166H-231.421L-231.417 25.8072H-255.847C-256.351 28.2893 -258.292 30.2302 -260.774 30.7348V38.4171H-255.566C-254.878 38.4171 -254.317 38.9746 -254.317 39.6663V52.5808C-254.317 53.1668 -254.724 53.6754 -255.298 53.8056L-254.643 54.8798C-253.418 53.4394 -251.33 53.1057 -249.719 54.0863C-248.315 52.4425 -245.882 52.1495 -244.132 53.4231C-243.143 52.3611 -241.63 51.9705 -240.254 52.4221C-239.229 52.7395 -238.195 53.5208 -237.426 54.8472C-232.308 63.6973 -233.37 64.6739 -230.981 71.8962H-230.985C-229.883 71.6683 -228.759 72.1729 -228.202 73.1494L-225.284 78.1991H-225.289C-224.894 78.8135 -224.78 79.5663 -224.971 80.2702C-225.158 80.9742 -225.638 81.5642 -226.285 81.9019L-243.616 91.9117C-244.938 92.7621 -246.7 92.2006 -247.306 90.9433L-250.236 85.8692C-250.667 85.1327 -250.704 84.2294 -250.338 83.4604C-253.113 81.5642 -255.729 79.2489 -257.548 76.7668C-258.439 75.5583 -259.928 73.0681 -260.779 71.5992C-262.573 68.5109 -260.555 65.4875 -257.743 65.1417C-260.111 60.7757 -260.095 60.7187 -264.067 53.8219H-268.485C-269.173 53.8219 -269.735 53.2645 -269.735 52.5728V39.6655C-269.735 38.9737 -269.173 38.4163 -268.485 38.4163H-263.277V30.734C-265.759 30.2295 -267.696 28.2885 -268.201 25.8064H-292.261V38.4158H-286.845C-286.154 38.4158 -285.592 38.9732 -285.592 39.6649V52.5795C-285.592 53.2713 -286.154 53.8287 -286.845 53.8287H-299.76C-300.452 53.8287 -301.009 53.2712 -301.009 52.5795V39.6649C-301.009 38.9732 -300.452 38.4158 -299.76 38.4158H-294.759V24.5564C-294.759 23.8647 -294.202 23.3072 -293.51 23.3072H-268.201C-267.696 20.8211 -265.759 18.8802 -263.273 18.3796V10.7055H-272.982C-275.496 10.7014 -277.535 8.66286 -277.535 6.14818V0.630573C-277.535 -1.88005 -275.496 -3.91859 -272.982 -3.92672H-251.066H-251.07C-248.555 -3.91858 -246.517 -1.88005 -246.513 0.630573V6.13599C-246.513 8.65474 -248.551 10.7014 -251.07 10.7055H-260.779V18.3878H-260.775C-258.293 18.8923 -256.352 20.8292 -255.847 23.3154L-255.848 23.2967ZM-262.078 28.3545H-261.959C-260.971 28.3464 -260.027 27.9435 -259.335 27.2396C-257.854 25.7544 -257.854 23.3496 -259.335 21.8644C-260.027 21.1564 -260.971 20.7576 -261.959 20.7495H-262.078H-262.073C-264.157 20.7739 -265.829 22.4706 -265.825 24.5499C-265.825 26.6292 -264.153 28.326 -262.073 28.3544L-262.078 28.3545ZM-255.913 68.4868H-255.909C-255.921 68.4705 -255.933 68.4542 -255.941 68.4339C-255.945 68.4257 -255.954 68.4217 -255.958 68.4095C-256.999 66.6395 -259.917 68.0962 -258.619 70.3463C-257.854 71.6647 -256.34 74.1916 -255.535 75.2861C-253.748 77.7194 -251.103 79.9777 -248.361 81.7762L-233.224 73.0401C-235.739 65.5775 -234.6 64.7068 -239.58 56.0922C-240.683 54.1838 -242.221 54.5988 -242.465 55.4249L-240.101 59.5183V59.5224C-239.763 60.1164 -239.963 60.8774 -240.557 61.2232C-241.151 61.5691 -241.916 61.3697 -242.262 60.7756L-244.821 56.3323C-245.936 54.4076 -247.682 55.1645 -248.015 56.0352L-245.68 60.0879H-245.676C-245.334 60.6861 -245.537 61.447 -246.131 61.7928C-246.725 62.1346 -247.486 61.9312 -247.832 61.3412L-250.396 56.906C-251.372 55.2173 -253.504 56.202 -252.878 57.7849L-250.379 62.1387H-250.375C-250.042 62.7328 -250.245 63.4897 -250.835 63.8314C-251.429 64.1692 -252.186 63.9657 -252.532 63.3757L-255.055 59.0097C-255.067 58.9853 -255.087 58.969 -255.095 58.9446L-258.534 53.3049C-258.57 53.252 -258.599 53.1991 -258.627 53.1462L-260.446 50.1595C-261.085 49.0894 -262.192 49.3376 -262.656 49.952C-262.904 50.2816 -262.961 50.7739 -262.635 51.3314L-262.322 51.8766C-262.293 51.9295 -262.261 51.9784 -262.232 52.0272C-256.922 61.2353 -257.793 59.9048 -253.753 67.2574L-251.206 71.6642L-251.21 71.6682C-250.864 72.2623 -251.067 73.0273 -251.661 73.3731C-251.95 73.54 -252.292 73.5847 -252.613 73.4993C-252.931 73.4138 -253.203 73.2022 -253.37 72.9174L-255.913 68.4868ZM-248.08 84.6118L-245.106 89.7672C-245.045 89.8689 -244.939 89.7957 -244.898 89.7672L-227.426 79.672L-227.39 79.5296L-230.36 74.3742L-230.502 74.3375L-231.052 74.6549L-231.048 74.6631C-231.076 74.6793 -231.105 74.6915 -231.133 74.7119L-248.039 84.4734L-248.08 84.6118ZM-265.276 51.3316C-265.732 49.1302 -264.096 47.2097 -262.017 46.9574C-260.658 46.7906 -259.205 47.3277 -258.285 48.9105L-256.816 51.3194V40.9149H-267.233V51.3316H-265.276ZM-225.538 40.9149H-235.955V51.3316H-225.538V40.9149ZM-288.092 40.9149H-298.508V51.3316H-288.092V40.9149ZM-251.072 -1.42363H-272.987H-272.983C-274.119 -1.41956 -275.038 -0.499965 -275.038 0.631264V6.13668C-275.034 7.27189 -274.119 8.18751 -272.983 8.19158H-251.068H-251.072C-249.937 8.19158 -249.013 7.27198 -249.013 6.13668V0.631264C-249.013 -0.499882 -249.936 -1.42363 -251.072 -1.42363ZM-600.145 61.7316C-594.753 61.7316 -590.383 66.1017 -590.379 71.4931C-590.379 76.6526 -594.395 80.9251 -599.547 81.2384H-599.608C-599.787 81.2384 -599.958 81.2506 -600.137 81.2506C-600.316 81.2506 -600.491 81.2507 -600.661 81.2384H-600.657C-600.678 81.2425 -600.698 81.2425 -600.714 81.2384C-605.87 80.9292 -609.894 76.6568 -609.894 71.4931C-609.894 66.1017 -605.524 61.7316 -600.133 61.7316H-600.145ZM-595.01 66.3621C-597.846 63.5259 -602.444 63.5259 -605.28 66.3621C-608.112 69.1982 -608.112 73.7921 -605.28 76.6323C-604.023 77.8896 -602.35 78.6424 -600.576 78.7441H-599.717C-597.943 78.6464 -596.267 77.8936 -595.01 76.6323C-592.178 73.7921 -592.177 69.1982 -595.01 66.3621ZM-593.439 56.1V56.0959C-591.897 56.7714 -590.46 57.6706 -589.187 58.7733L-585.952 56.8975C-585.358 56.5598 -584.601 56.7632 -584.255 57.3532L-579.958 64.7873C-579.91 64.8768 -579.873 64.9745 -579.84 65.0721H-560.634L-560.455 63.9206V63.9084H-560.459C-560.439 63.7293 -560.386 63.5584 -560.3 63.3997C-560.28 63.3753 -560.268 63.3509 -560.252 63.3306V63.3143L-556.085 56.0918L-593.439 56.1ZM-582.286 67.5865L-583.645 68.3718V68.3677C-583.254 70.4348 -583.254 72.5547 -583.645 74.6177L-580.418 76.4936C-580.129 76.6563 -579.922 76.9289 -579.836 77.2463C-579.751 77.5678 -579.796 77.9096 -579.962 78.1944L-580.28 78.7519H-547.04C-546.186 78.7519 -545.372 78.1497 -545.372 77.2952V57.0442L-551.829 68.2056H-551.833C-551.915 68.3643 -552.029 68.5067 -552.167 68.6207L-559.976 74.895C-560.378 75.2083 -560.932 75.249 -561.375 74.9927C-561.819 74.7364 -562.059 74.2359 -561.986 73.7313L-561.034 67.5831L-582.286 67.5865ZM-581.724 81.2458L-584.259 85.6322H-584.255C-584.43 85.9292 -584.715 86.1408 -585.049 86.2181C-585.382 86.2995 -585.736 86.2344 -586.021 86.0472L-589.187 84.2203C-590.782 85.5915 -592.617 86.6535 -594.603 87.3453V91.0724C-594.603 91.7642 -595.164 92.3216 -595.852 92.3216H-604.438C-605.129 92.3216 -605.691 91.7642 -605.691 91.0724V87.3493C-607.672 86.6535 -609.512 85.5956 -611.107 84.2243L-614.337 86.1002H-614.333C-614.932 86.4419 -615.692 86.2344 -616.038 85.6404L-620.331 78.1982C-620.665 77.6 -620.461 76.8472 -619.867 76.5014L-616.645 74.6418C-617.039 72.5747 -617.039 70.4508 -616.645 68.3837L-619.875 66.52V66.516C-620.172 66.3451 -620.384 66.0602 -620.461 65.7225C-620.543 65.3889 -620.478 65.0389 -620.29 64.75L-616.038 57.3811C-615.697 56.7829 -614.936 56.5795 -614.338 56.9213L-612.388 58.0524V0.0242891C-612.388 -2.20144 -610.452 -3.93488 -608.222 -3.93488H-561.225C-560.842 -3.96743 -560.464 -3.82501 -560.195 -3.54833L-543.277 12.1298C-543.264 12.1298 -543.252 12.1542 -543.24 12.1664L-543.228 12.1786V12.1908C-543.008 12.4187 -542.882 12.7239 -542.886 13.0453V33.2234L-540.424 28.9591L-540.388 28.8899L-540.347 28.8329L-537.543 23.9745V23.9704C-537.063 23.1037 -536.258 22.469 -535.31 22.2004C-534.357 21.9359 -533.336 22.0661 -532.482 22.5585L-530.419 23.7507C-528.661 24.7679 -528.059 27.014 -529.072 28.7718L-531.912 33.6954H-531.916C-531.924 33.7198 -531.936 33.7442 -531.953 33.7605C-531.965 33.7849 -531.977 33.8093 -531.989 33.8256L-542.886 52.6933V77.2787C-542.886 79.533 -544.852 81.2379 -547.053 81.2379L-581.724 81.2458ZM-609.878 57.8208L-609.873 57.8168C-608.592 56.8931 -607.18 56.1648 -605.686 55.644V51.9168C-605.686 51.225 -605.129 50.6676 -604.437 50.6676H-595.852C-595.16 50.6676 -594.602 51.2251 -594.602 51.9168V53.6014H-554.629L-545.376 37.5732L-545.372 14.3024H-557.009C-559.865 14.3024 -562.352 12.1092 -562.352 9.25678V-1.42864H-608.221C-609.088 -1.42864 -609.89 -0.818285 -609.89 0.0199022L-609.878 57.8208ZM-593.003 59.1148L-592.999 59.1107C-593.988 58.537 -595.046 58.0853 -596.145 57.7679C-596.706 57.6336 -597.105 57.1331 -597.105 56.5513V53.1618H-603.192V56.5513C-603.192 57.1087 -603.563 57.597 -604.096 57.7516C-606.33 58.3945 -608.368 59.5704 -610.044 61.1777C-610.443 61.5846 -611.07 61.6701 -611.562 61.3852L-611.676 61.3161C-611.729 61.2876 -611.782 61.2591 -611.831 61.2225L-614.5 59.6803L-617.548 64.9618L-614.63 66.6424L-614.634 66.6464C-614.138 66.9191 -613.89 67.4887 -614.024 68.0339C-614.581 70.3045 -614.581 72.6726 -614.024 74.9431C-613.894 75.4843 -614.134 76.0458 -614.618 76.3225L-617.552 78.0192L-614.504 83.2968L-611.627 81.6284V81.6325C-611.139 81.307 -610.492 81.368 -610.073 81.7749C-608.494 83.2926 -606.281 84.6435 -604.148 85.2092H-604.153C-603.587 85.3435 -603.192 85.848 -603.192 86.4258V89.8113H-597.105V86.438C-597.105 85.8806 -596.735 85.3882 -596.193 85.2337C-593.951 84.5907 -591.901 83.4067 -590.22 81.7872C-589.821 81.4047 -589.219 81.3315 -588.735 81.6041L-585.797 83.3049L-583.571 79.4475C-583.543 79.3946 -583.514 79.3417 -583.482 79.2929L-582.745 78.0193L-585.618 76.3632H-585.614C-586.139 76.1028 -586.412 75.5169 -586.273 74.9472C-585.72 72.6848 -585.716 70.3248 -586.261 68.0624C-586.407 67.5171 -586.172 66.9475 -585.683 66.6626L-583.315 65.2995V65.2954C-583.266 65.2628 -583.217 65.2344 -583.16 65.2099L-582.745 64.9699L-585.793 59.6883L-588.67 61.3566V61.3526C-589.154 61.67 -589.797 61.613 -590.216 61.2102C-591.054 60.4004 -591.99 59.6967 -593.003 59.1148ZM-564.561 34.1513L-564.557 34.1472C-565.248 34.1472 -565.806 33.5857 -565.806 32.894C-565.806 32.2063 -565.248 31.6448 -564.557 31.6448H-553.391C-552.699 31.6448 -552.142 32.2063 -552.142 32.894C-552.142 33.5857 -552.699 34.1472 -553.391 34.1472L-564.561 34.1513ZM-555.137 67.8263L-558.262 66.0237L-558.323 66.4184L-558.319 66.4143C-558.323 66.4875 -558.335 66.5608 -558.352 66.634L-559.011 70.9431L-555.137 67.8263ZM-557.509 63.5823L-553.395 65.9627L-545.257 51.8763L-545.249 51.8681C-545.221 51.7949 -545.184 51.7257 -545.135 51.6606L-534.719 33.6106L-538.841 31.2302L-542.987 38.412L-542.983 38.4079C-543.015 38.4811 -543.056 38.5503 -543.105 38.6154L-552.224 54.4112V54.4153C-552.171 54.5537 -552.146 54.7001 -552.146 54.8466C-552.146 55.457 -552.586 55.9778 -553.188 56.0795L-557.509 63.5823ZM-537.591 29.0813L-533.47 31.4534L-531.215 27.5513L-531.211 27.5431C-530.89 26.9735 -531.085 26.2532 -531.647 25.9196L-533.714 24.7274C-534.296 24.3937 -534.975 24.5931 -535.366 25.2279L-537.591 29.0813ZM-564.561 24.2269L-564.557 24.2188C-565.249 24.2188 -565.806 23.6572 -565.806 22.9696C-565.806 22.2779 -565.249 21.7164 -564.557 21.7164H-553.392C-552.7 21.7164 -552.142 22.2779 -552.142 22.9696C-552.142 23.6572 -552.7 24.2188 -553.392 24.2188L-564.561 24.2269ZM-577.834 20.8781L-592.69 29.4556C-593.077 29.6794 -593.553 29.6794 -593.94 29.4556C-594.326 29.2318 -594.562 28.8209 -594.566 28.3732V11.218C-594.566 10.7582 -594.31 10.331 -593.903 10.1113C-593.496 9.89561 -593 9.92002 -592.617 10.1764L-585.264 14.4203L-577.847 18.7091V18.7131C-577.464 18.9369 -577.228 19.3479 -577.228 19.7873C-577.228 20.2308 -577.464 20.6418 -577.847 20.8656L-577.834 20.8781ZM-586.513 22.9981L-580.955 19.7918L-592.063 13.3872V26.2091L-586.513 22.9981ZM-600.083 5.57418H-573.329C-571.469 5.57418 -570.017 7.17741 -570.017 9.04095V30.5378C-570.017 32.4137 -571.473 34.0005 -573.329 34.0005H-600.083C-601.943 34.0005 -603.399 32.4014 -603.399 30.5378L-603.395 9.03679C-603.395 7.16095 -601.939 5.57001 -600.079 5.57001L-600.083 5.57418ZM-573.329 8.07251H-600.083C-600.563 8.07251 -600.901 8.54045 -600.901 9.03687L-600.897 30.5379C-600.897 31.0343 -600.559 31.5063 -600.079 31.5063H-573.325C-572.853 31.5063 -572.515 31.0343 -572.515 30.5379L-572.523 9.03687C-572.523 8.54045 -572.861 8.07251 -573.333 8.07251H-573.329ZM-601.853 44.6038H-601.857C-602.545 44.6038 -603.106 44.0463 -603.106 43.3546C-603.106 42.6629 -602.545 42.1054 -601.857 42.1054H-553.396C-552.704 42.1054 -552.146 42.6629 -552.146 43.3546C-552.146 44.0463 -552.704 44.6038 -553.396 44.6038H-601.853ZM-557 11.7996H-547.303L-549.203 10.0337L-559.84 0.178556L-559.844 9.26064C-559.844 10.7173 -558.497 11.8078 -557.004 11.8078L-557 11.7996ZM-97.4998 28.1246C-92.682 28.1246 -88.7717 32.0308 -88.7717 36.8526C-88.7677 39.1679 -89.6873 41.3896 -91.327 43.0253C-92.9628 44.6611 -95.1844 45.5847 -97.4998 45.5847C-99.8151 45.5847 -102.037 44.661 -103.672 43.0253C-107.078 39.6155 -107.078 34.0898 -103.672 30.6795C-102.037 29.0438 -99.8151 28.1246 -97.4998 28.1246ZM-93.097 32.454C-94.2649 31.2862 -95.8477 30.627 -97.4998 30.627C-99.1517 30.627 -100.739 31.2862 -101.906 32.454C-104.332 34.8872 -104.332 38.8261 -101.906 41.2552C-100.739 42.4271 -99.1519 43.0822 -97.4998 43.0822C-95.8478 43.0822 -94.2649 42.4271 -93.097 41.2552C-91.9252 40.0915 -91.2701 38.5046 -91.2701 36.8566C-91.2701 35.2046 -91.9252 33.6218 -93.097 32.454ZM-92.4664 22.8145H-92.4705C-90.7859 23.4248 -89.2234 24.3363 -87.8562 25.496L-85.1056 23.9131C-84.5115 23.5754 -83.7546 23.7829 -83.4088 24.3729L-79.6368 30.9118C-79.295 31.5099 -79.5024 32.2709 -80.0966 32.6167L-82.8351 34.1995V34.1954C-82.5137 35.9654 -82.5137 37.7762 -82.8351 39.5421L-80.1007 41.1208C-79.5066 41.4667 -79.2991 42.2276 -79.6409 42.8257L-83.4128 49.3646V49.3605C-83.7587 49.9546 -84.5197 50.1581 -85.1178 49.8163L-87.8643 48.2334H-87.8601C-89.2273 49.3931 -90.7899 50.2965 -92.4785 50.9027V54.0602C-92.4785 54.7479 -93.04 55.3094 -93.7277 55.3094H-101.276C-101.967 55.3094 -102.525 54.7479 -102.525 54.0602V50.8945C-104.218 50.2923 -105.784 49.3849 -107.151 48.2171L-109.894 49.808C-110.492 50.1458 -111.249 49.9423 -111.595 49.3482L-115.367 42.8175V42.8134C-115.7 42.2153 -115.489 41.4625 -114.895 41.1207L-112.156 39.5379L-112.152 39.542C-112.478 37.772 -112.478 35.9613 -112.152 34.1953L-114.895 32.6044C-115.489 32.2626 -115.696 31.5017 -115.354 30.9035L-111.583 24.3728C-111.237 23.7787 -110.476 23.5712 -109.882 23.913L-107.135 25.4958C-105.768 24.3321 -104.201 23.4247 -102.509 22.8184V19.665C-102.509 18.9733 -101.951 18.4118 -101.259 18.4118H-93.7114C-93.0197 18.4118 -92.4622 18.9733 -92.4622 19.665L-92.4664 22.8145ZM-91.2904 26.1022L-91.2946 26.1063C-92.149 25.6099 -93.0564 25.2192 -94.0045 24.9385C-94.566 24.8082 -94.9647 24.3037 -94.9647 23.7218V20.9142H-100.01V23.738C-100.01 24.2955 -100.381 24.7878 -100.922 24.9384C-102.867 25.4999 -104.649 26.5293 -106.102 27.9372C-106.505 28.3197 -107.107 28.3929 -107.587 28.1162L-110.045 26.6921L-112.572 31.0662L-110.191 32.4416V32.4456C-109.666 32.702 -109.394 33.292 -109.532 33.8617C-110.016 35.831 -110.016 37.8859 -109.532 39.8553C-109.402 40.3965 -109.642 40.954 -110.122 41.2306L-112.567 42.6467L-110.041 47.0208L-107.648 45.6455C-107.164 45.3241 -106.517 45.381 -106.098 45.7879C-104.73 47.1063 -102.81 48.2863 -100.958 48.7705H-100.963C-100.401 48.9089 -100.006 49.4094 -100.006 49.9872V52.8111H-94.9607V49.9913C-94.9607 49.4298 -94.5905 48.9374 -94.0533 48.7869C-92.1205 48.2294 -90.3506 47.2081 -88.8979 45.8165C-88.4991 45.4096 -87.8766 45.3241 -87.3802 45.609L-84.9266 47.025L-82.3997 42.6508L-84.7802 41.2755C-85.3051 41.011 -85.5778 40.4251 -85.4353 39.8554C-84.9552 37.886 -84.9552 35.8312 -85.4353 33.8618C-85.5696 33.3206 -85.3295 32.7631 -84.8494 32.4824L-82.4037 31.0704L-84.9307 26.6963L-87.3152 28.0797V28.0838C-87.8035 28.4052 -88.4463 28.3442 -88.8695 27.9413C-89.5938 27.2374 -90.4077 26.6271 -91.2825 26.1225L-91.2904 26.1022ZM-108.433 2.75845C-105.182 2.75845 -103.538 6.71762 -105.841 9.00845C-108.144 11.2993 -112.091 9.6717 -112.091 6.41647C-112.091 4.39418 -110.455 2.75845 -108.433 2.75845ZM-107.611 5.59866H-107.615C-107.949 5.26907 -108.445 5.17141 -108.881 5.35045C-109.312 5.52949 -109.597 5.9486 -109.601 6.42056C-109.601 6.88849 -109.32 7.31574 -108.885 7.49889C-108.449 7.68203 -107.949 7.58434 -107.615 7.25474C-107.16 6.79901 -107.16 6.06256 -107.615 5.60683L-107.611 5.59866ZM-117.861 2.75845C-114.606 2.75845 -112.966 6.71762 -115.269 9.00845C-117.572 11.2993 -121.519 9.6717 -121.519 6.41647C-121.515 4.39418 -119.879 2.75439 -117.857 2.75439L-117.861 2.75845ZM-117.039 5.59866C-117.373 5.26907 -117.873 5.16735 -118.304 5.34638C-118.74 5.52948 -119.025 5.94859 -119.025 6.42054C-119.025 6.88848 -118.744 7.31166 -118.309 7.49471C-117.877 7.67782 -117.377 7.58016 -117.039 7.25464C-116.823 7.03491 -116.697 6.73788 -116.697 6.42863C-116.697 6.11938 -116.823 5.82235 -117.039 5.60669L-117.039 5.59866ZM-137.339 13.6065L-137.343 3.95074C-137.339 0.414806 -134.47 -2.45384 -130.934 -2.4579H-64.0605C-60.5247 -2.44976 -57.6559 0.414806 -57.6519 3.95074V53.9955C-57.6559 57.5315 -60.5247 60.396 -64.0605 60.4001H-65.1958V74.8407H-65.1917C-65.1917 75.5325 -65.7532 76.0899 -66.4448 76.0899H-103.334V84.1099H-93.4019C-91.5422 84.114 -90.0327 85.6195 -90.0287 87.4831V89.6072C-90.0287 90.2989 -90.5903 90.8564 -91.282 90.8564H-127.809C-128.501 90.8564 -129.058 90.2989 -129.058 89.6072V87.4831C-129.054 85.6236 -127.545 84.114 -125.685 84.1099H-115.744L-115.748 76.094H-152.659C-153.347 76.094 -153.908 75.5325 -153.908 74.8407V19.4532C-153.908 18.7656 -153.347 18.2041 -152.659 18.2041H-137.347L-137.339 13.6065ZM-134.841 12.3573H-60.1459L-60.1499 3.95074C-60.1539 1.79418 -61.9037 0.0485561 -64.0603 0.040431H-130.934C-133.091 0.0485685 -134.836 1.79418 -134.844 3.95074L-134.841 12.3573ZM-60.1459 14.8556H-134.849V53.9952C-134.841 56.1518 -133.091 57.8974 -130.935 57.9015H-64.0608C-61.9042 57.8974 -60.1544 56.1518 -60.1504 53.9952L-60.1459 14.8556ZM-127.289 2.75876C-124.033 2.75876 -122.394 6.71793 -124.697 9.00876C-127 11.2996 -130.947 9.67201 -130.947 6.41678C-130.943 4.39856 -129.307 2.76283 -127.289 2.75876ZM-126.454 5.59897C-126.788 5.26938 -127.289 5.16766 -127.724 5.34669C-128.159 5.52572 -128.444 5.9489 -128.444 6.42086C-128.444 6.89282 -128.164 7.31604 -127.728 7.49919C-127.293 7.68234 -126.792 7.58464 -126.454 7.25505C-126.007 6.79524 -126.007 6.06286 -126.454 5.60713V5.59897ZM-91.7659 2.3722H-65.2847C-64.597 2.3722 -64.0354 2.93372 -64.0354 3.62137V9.22439C-64.0354 9.91612 -64.597 10.4736 -65.2847 10.4736H-91.7659C-92.4576 10.4736 -93.0192 9.9161 -93.0192 9.22439V3.62137C-93.0192 2.9337 -92.4575 2.3722 -91.7659 2.3722ZM-66.5377 4.87053H-90.517V7.97928H-66.5377V4.87053ZM-67.6853 60.4039H-69.9478V70.2346C-69.9478 70.9263 -70.5052 71.4838 -71.1969 71.4838H-147.894C-148.581 71.4838 -149.143 70.9263 -149.143 70.2346V24.0763C-149.143 23.3845 -148.581 22.8271 -147.894 22.8271H-137.347L-137.343 20.7071H-151.401L-151.405 73.5883H-67.6937L-67.6853 60.4039ZM-72.4501 60.4039L-130.934 60.4079C-134.47 60.4039 -137.339 57.5393 -137.343 53.9993V25.3253H-146.641L-146.637 68.9774H-72.4587L-72.4501 60.4039ZM-113.263 84.1101H-105.841L-105.837 76.0942H-113.259L-113.263 84.1101ZM-93.4021 86.6084H-125.694V86.6125C-126.174 86.6125 -126.561 86.9991 -126.561 87.4792V88.354H-92.5189C-92.5189 87.7518 -92.4253 87.2188 -92.7793 86.8648H-92.7834C-92.9462 86.702 -93.1659 86.6125 -93.3938 86.6125L-93.4021 86.6084ZM-384.319 58.898L-392.758 63.7646V63.7687C-393.141 63.9925 -393.617 63.9925 -394.003 63.7727C-394.39 63.5489 -394.63 63.138 -394.63 62.6944V52.9369C-394.63 52.469 -394.369 52.0376 -393.95 51.8261C-393.535 51.6104 -393.035 51.6511 -392.652 51.9197L-388.53 54.3001L-384.307 56.7333C-383.92 56.9571 -383.684 57.3721 -383.688 57.8198C-383.692 58.2673 -383.932 58.6783 -384.319 58.9021L-384.319 58.898ZM-389.779 59.1707L-387.424 57.8116L-389.779 56.4525L-392.123 55.0935V60.5256L-389.779 59.1707ZM-390.28 46.5852V46.5893C-384.083 46.5934 -379.061 51.6186 -379.061 57.8153C-379.061 64.0124 -384.082 69.0341 -390.28 69.0372C-393.258 69.0372 -396.115 67.8572 -398.219 65.7495C-400.326 63.6459 -401.506 60.7894 -401.506 57.8109C-401.506 51.6097 -396.481 46.5852 -390.28 46.5852ZM-384.115 51.6471C-385.751 50.0114 -387.969 49.0918 -390.284 49.0918C-392.599 49.0918 -394.817 50.0114 -396.453 51.6471C-399.858 55.0528 -399.858 60.5786 -396.453 63.9888C-394.817 65.6245 -392.599 66.5441 -390.284 66.5441C-387.969 66.5441 -385.751 65.6245 -384.115 63.9888C-380.71 60.579 -380.71 55.0533 -384.115 51.6471ZM-410.234 64.4316H-418.82V71.8005H-409.579V71.8046C-407.793 71.8087 -406.34 73.2572 -406.336 75.0476V77.0415C-406.336 77.7292 -406.898 78.2907 -407.589 78.2907H-441.866H-441.862C-442.554 78.2907 -443.115 77.7291 -443.115 77.0415V75.0476C-443.111 73.2572 -441.659 71.8087 -439.868 71.8046H-430.632L-430.636 64.4316H-465.158C-465.849 64.4316 -466.407 63.8741 -466.407 63.1824V11.2376C-466.407 10.5459 -465.849 9.98848 -465.158 9.98848H-384.294C-383.606 9.98848 -383.045 10.5459 -383.045 11.2376V42.8658C-381.755 43.4965 -380.551 44.2899 -379.46 45.2298L-376.278 43.3866C-375.68 43.0489 -374.919 43.2523 -374.577 43.8464L-370.337 51.191L-370.333 51.1951C-369.996 51.7891 -370.199 52.5501 -370.793 52.8959L-373.971 54.7351L-373.967 54.731C-373.585 56.7695 -373.585 58.8652 -373.967 60.9037L-370.789 62.7347H-370.793C-370.199 63.0806 -369.996 63.8374 -370.333 64.4315L-374.573 71.7802H-374.577C-374.923 72.3742 -375.68 72.5777 -376.278 72.2359L-379.46 70.3967C-381.031 71.7517 -382.837 72.7974 -384.795 73.481V77.1635C-384.795 77.8512 -385.352 78.4127 -386.044 78.4127H-394.528C-395.219 78.4127 -395.777 77.8511 -395.777 77.1635V73.4892C-397.734 72.8015 -399.541 71.7558 -401.111 70.4049L-404.293 72.2441L-404.297 72.24C-404.594 72.415 -404.948 72.4557 -405.278 72.354C-405.608 72.2563 -405.884 72.0244 -406.039 71.7151L-410.234 64.4316ZM-385.543 37.3201L-385.548 12.491H-463.912L-463.908 61.9378H-408.39L-406.596 60.8962C-406.649 60.6317 -406.69 60.3631 -406.726 60.0987H-460.685C-461.377 60.0987 -461.935 59.5371 -461.935 58.8495V15.5672C-461.935 14.8755 -461.377 14.318 -460.685 14.318H-388.762C-388.07 14.318 -387.508 14.8755 -387.508 15.5672V37.2224H-386.052C-385.881 37.2183 -385.71 37.255 -385.555 37.3241L-385.543 37.3201ZM-406.885 57.6045V57.6126C-406.877 56.6442 -406.779 55.6839 -406.596 54.7359L-409.774 52.8967C-410.368 52.5508 -410.576 51.794 -410.234 51.1959L-405.994 43.8432C-405.648 43.2491 -404.887 43.0457 -404.289 43.3915L-401.107 45.2266C-399.537 43.8757 -397.726 42.8299 -395.773 42.1464V38.4681C-395.773 37.7763 -395.211 37.2189 -394.524 37.2189H-390.007V16.821H-459.436V57.6085L-406.885 57.6045ZM-416.805 49.202L-434.062 49.2061V51.6109H-416.805V49.202ZM-435.316 46.7037H-434.543V45.3284C-434.543 44.4088 -434.03 43.5624 -433.216 43.1351C-433.859 39.6968 -433.953 36.1812 -433.497 32.7185C-433.489 32.6452 -433.473 32.5761 -433.448 32.5109C-432.878 30.0411 -431.784 27.7176 -430.246 25.7035C-428.59 23.5957 -426.543 21.8256 -424.216 20.4951C-423.78 20.2469 -423.235 20.2835 -422.836 20.5887C-422.437 20.8898 -422.258 21.4025 -422.385 21.8908C-422.564 22.5296 -422.677 23.1888 -422.726 23.852C-421.196 24.2549 -420.016 24.7309 -419.158 25.2681C-418.116 25.9313 -417.51 26.7044 -417.331 27.5956C-414.718 29.4429 -413.534 30.0939 -413.534 30.0939H-413.539C-413.075 30.3462 -412.818 30.863 -412.9 31.3838C-413.05 32.7999 -413.266 34.7611 -414.841 35.1883C-415.406 35.3388 -417.587 35.0092 -418.218 34.9157L-418.222 34.9116C-419.231 34.7366 -420.248 34.639 -421.274 34.6186C-421.469 34.6146 -421.66 34.5942 -421.852 34.5576C-420.444 37.3978 -418.69 38.9236 -418.328 42.8909C-417.172 43.131 -416.338 44.1441 -416.33 45.3242V46.6995H-415.557C-414.865 46.6995 -414.308 47.261 -414.308 47.9527V52.8599V52.8558C-414.308 53.5475 -414.865 54.105 -415.557 54.105H-435.312C-436.004 54.105 -436.561 53.5475 -436.561 52.8558V47.9527C-436.561 47.261 -436.004 46.7035 -435.312 46.7035L-435.316 46.7037ZM-418.828 45.3446H-432.045V46.7037H-418.828V45.3446ZM-430.726 42.8463H-420.843C-421.408 38.4314 -424.334 37.2229 -425.363 31.9213L-425.359 31.9254C-425.465 31.372 -425.188 30.8226 -424.688 30.5744C-424.187 30.3262 -423.581 30.4401 -423.203 30.8552C-422.454 31.6893 -421.795 32.1165 -421.229 32.1248C-419.077 32.1248 -417.368 32.6252 -415.459 32.7229C-415.435 32.5968 -415.435 32.255 -415.423 31.8725C-416.127 31.4412 -417.376 30.6314 -419.219 29.3172L-419.223 29.3131C-419.589 29.073 -419.801 28.6498 -419.772 28.2104C-419.723 27.3111 -422.828 26.3346 -424.167 26.0619C-425.176 25.8544 -425.237 25.004 -425.237 24.1861C-426.368 25.0609 -427.385 26.0782 -428.26 27.2093C-429.587 28.9428 -430.531 30.9406 -431.023 33.0687C-431.255 34.916 -431.332 36.7797 -431.247 38.6433C-431.186 40.0553 -431.011 41.4627 -430.726 42.8463ZM-421.319 71.8057L-421.323 64.4326H-428.13V71.8016L-421.319 71.8057ZM-409.579 74.304H-439.865L-439.869 74.3081C-440.276 74.3081 -440.609 74.6376 -440.613 75.0445V75.7851H-408.834C-408.834 75.2765 -408.753 74.8208 -409.042 74.5359C-409.184 74.3935 -409.371 74.3162 -409.571 74.3162L-409.579 74.304Z" fill="#3C7CFF"/>
</g>
<defs>
<clipPath id="clip0_171_640">
<rect width="100" height="87" fill="white"/>
</clipPath>
</defs>
</svg>
