<svg width="102" height="101" viewBox="0 0 102 101" fill="none" xmlns="http://www.w3.org/2000/svg">
<mask id="path-1-outside-1_173_644" maskUnits="userSpaceOnUse" x="0" y="-0.404419" width="102" height="102" fill="black">
<rect fill="white" y="-0.404419" width="102" height="102"/>
<path d="M82.9456 84.0702H33.519C30.6232 84.0702 28.1482 82.4155 27.5001 80.0483L24.9414 70.7059H86.983C87.6199 70.7059 88.1767 70.3449 88.3368 69.8262L100.956 28.78C101.064 28.4284 100.972 28.0565 100.706 27.769C100.442 27.4831 100.036 27.3143 99.6017 27.3143H82.7351C82.7333 26.8643 82.7612 26.4174 82.7221 25.9627L88.4933 23.8049C89.1916 23.5439 89.5101 22.8611 89.2065 22.272L84.0313 12.1781C83.7259 11.578 82.8934 11.3046 82.1783 11.5718L76.8559 13.575C75.7982 12.4999 74.6286 11.5234 73.366 10.6608L75.4667 6.12949C75.746 5.52792 75.3922 4.84822 74.6696 4.61227L62.5835 0.67469C61.874 0.441873 61.0564 0.740316 60.7752 1.34189L58.6764 5.87011C57.0358 5.78261 55.3858 5.84355 53.7321 6.04043L51.4434 1.55596C51.138 0.957509 50.3018 0.679378 49.5867 0.948133L37.6104 5.46386C36.9139 5.72636 36.5973 6.41075 36.9009 6.99826L39.4094 11.8515C38.3181 12.7124 37.3106 13.6718 36.4018 14.7172L30.422 12.7671C29.7125 12.5343 28.8968 12.8265 28.6138 13.4359L23.8445 23.7486C23.567 24.3518 23.9227 25.0299 24.6415 25.2658L30.9286 27.3159H13.0545L10.073 16.4282C9.92773 15.8953 9.36346 15.5188 8.71167 15.5188H2.3967C1.62572 15.5188 1 16.0438 1 16.6907C1 17.3375 1.62572 17.8626 2.3967 17.8626H7.59989L24.7775 80.5733C25.7198 84.0124 29.314 86.414 33.519 86.414H38.9829C37.1374 87.9172 35.9809 90.0094 35.9809 92.3329C35.9809 96.8877 40.3982 100.596 45.8286 100.596C51.259 100.596 55.6763 96.8893 55.6763 92.3329C55.6763 90.0094 54.5198 87.9172 52.6743 86.414H76.098C74.2525 87.9172 73.096 90.0094 73.096 92.3329C73.096 96.8877 77.5133 100.596 82.9437 100.596C88.3741 100.596 92.7914 96.8893 92.7914 92.3329C92.7933 87.7766 88.3759 84.0702 82.9456 84.0702ZM30.7126 15.3766L36.413 17.2344C37.0275 17.4329 37.7166 17.25 38.0816 16.7907C39.2269 15.3469 40.51 14.1219 42.0016 13.0437C42.4653 12.7093 42.6143 12.1609 42.3722 11.689L40.0127 7.12639L49.4358 3.57475L51.5942 7.80609C51.8531 8.30923 52.4769 8.60299 53.1343 8.49673C55.2498 8.16548 57.3784 8.09204 59.453 8.27485C60.075 8.32954 60.6728 8.02797 60.9018 7.53421L62.874 3.28256L72.3567 6.37169L70.3845 10.6218C70.1573 11.1124 70.3473 11.6718 70.852 11.9874C72.5206 13.0296 74.0234 14.2859 75.3214 15.7234C75.7162 16.1594 76.4164 16.3078 77.0049 16.086L82.0256 14.1984L86.0965 22.1361L80.6699 24.1658C80.113 24.3736 79.7816 24.8611 79.8523 25.3705C79.9417 26.0299 79.9883 26.6737 79.992 27.3159H72.3623C71.7198 20.5439 65.0622 15.1391 56.7695 15.1391C48.7636 15.1391 41.7353 20.3454 40.9383 27.3159H34.0348C34.0386 27.1159 34.0479 26.9159 34.0665 26.7143C34.1112 26.2002 33.7518 25.7237 33.1782 25.5362L26.9564 23.5064L30.7126 15.3766ZM56.7713 17.4797C63.5221 17.4797 68.8929 21.8173 69.5279 27.3143H43.7559C44.5511 21.572 50.3632 17.4797 56.7713 17.4797ZM97.8009 29.6581L95.9982 35.5239H54.3671C53.5961 35.5239 52.9704 36.0489 52.9704 36.6958C52.9704 37.3427 53.5961 37.8677 54.3671 37.8677H95.2775L93.4748 43.7334H56.2294C55.4584 43.7334 54.8327 44.2584 54.8327 44.9053C54.8327 45.5522 55.4584 46.0772 56.2294 46.0772H92.7523L90.9496 51.9414H58.0917C57.3207 51.9414 56.695 52.4664 56.695 53.1133C56.695 53.7602 57.3207 54.2852 58.0917 54.2852H90.2289L88.4262 60.151H59.9539C59.183 60.151 58.5572 60.676 58.5572 61.3229C58.5572 61.9698 59.183 62.4948 59.9539 62.4948H87.7055L85.9028 68.3605H24.2989L13.697 29.6581H97.8009ZM52.8848 92.3329C52.8848 95.5955 49.7208 98.2518 45.8305 98.2518C41.9402 98.2518 38.7762 95.597 38.7762 92.3329C38.7762 89.0688 41.9402 86.414 45.8305 86.414C49.7189 86.414 52.8848 89.0688 52.8848 92.3329ZM82.9456 98.2502C79.0553 98.2502 75.8913 95.5955 75.8913 92.3313C75.8913 89.0672 79.0553 86.4125 82.9456 86.4125C86.8358 86.4125 89.9998 89.0672 89.9998 92.3313C89.9998 95.5955 86.8358 98.2502 82.9456 98.2502Z"/>
</mask>
<path d="M82.9456 84.0702H33.519C30.6232 84.0702 28.1482 82.4155 27.5001 80.0483L24.9414 70.7059H86.983C87.6199 70.7059 88.1767 70.3449 88.3368 69.8262L100.956 28.78C101.064 28.4284 100.972 28.0565 100.706 27.769C100.442 27.4831 100.036 27.3143 99.6017 27.3143H82.7351C82.7333 26.8643 82.7612 26.4174 82.7221 25.9627L88.4933 23.8049C89.1916 23.5439 89.5101 22.8611 89.2065 22.272L84.0313 12.1781C83.7259 11.578 82.8934 11.3046 82.1783 11.5718L76.8559 13.575C75.7982 12.4999 74.6286 11.5234 73.366 10.6608L75.4667 6.12949C75.746 5.52792 75.3922 4.84822 74.6696 4.61227L62.5835 0.67469C61.874 0.441873 61.0564 0.740316 60.7752 1.34189L58.6764 5.87011C57.0358 5.78261 55.3858 5.84355 53.7321 6.04043L51.4434 1.55596C51.138 0.957509 50.3018 0.679378 49.5867 0.948133L37.6104 5.46386C36.9139 5.72636 36.5973 6.41075 36.9009 6.99826L39.4094 11.8515C38.3181 12.7124 37.3106 13.6718 36.4018 14.7172L30.422 12.7671C29.7125 12.5343 28.8968 12.8265 28.6138 13.4359L23.8445 23.7486C23.567 24.3518 23.9227 25.0299 24.6415 25.2658L30.9286 27.3159H13.0545L10.073 16.4282C9.92773 15.8953 9.36346 15.5188 8.71167 15.5188H2.3967C1.62572 15.5188 1 16.0438 1 16.6907C1 17.3375 1.62572 17.8626 2.3967 17.8626H7.59989L24.7775 80.5733C25.7198 84.0124 29.314 86.414 33.519 86.414H38.9829C37.1374 87.9172 35.9809 90.0094 35.9809 92.3329C35.9809 96.8877 40.3982 100.596 45.8286 100.596C51.259 100.596 55.6763 96.8893 55.6763 92.3329C55.6763 90.0094 54.5198 87.9172 52.6743 86.414H76.098C74.2525 87.9172 73.096 90.0094 73.096 92.3329C73.096 96.8877 77.5133 100.596 82.9437 100.596C88.3741 100.596 92.7914 96.8893 92.7914 92.3329C92.7933 87.7766 88.3759 84.0702 82.9456 84.0702ZM30.7126 15.3766L36.413 17.2344C37.0275 17.4329 37.7166 17.25 38.0816 16.7907C39.2269 15.3469 40.51 14.1219 42.0016 13.0437C42.4653 12.7093 42.6143 12.1609 42.3722 11.689L40.0127 7.12639L49.4358 3.57475L51.5942 7.80609C51.8531 8.30923 52.4769 8.60299 53.1343 8.49673C55.2498 8.16548 57.3784 8.09204 59.453 8.27485C60.075 8.32954 60.6728 8.02797 60.9018 7.53421L62.874 3.28256L72.3567 6.37169L70.3845 10.6218C70.1573 11.1124 70.3473 11.6718 70.852 11.9874C72.5206 13.0296 74.0234 14.2859 75.3214 15.7234C75.7162 16.1594 76.4164 16.3078 77.0049 16.086L82.0256 14.1984L86.0965 22.1361L80.6699 24.1658C80.113 24.3736 79.7816 24.8611 79.8523 25.3705C79.9417 26.0299 79.9883 26.6737 79.992 27.3159H72.3623C71.7198 20.5439 65.0622 15.1391 56.7695 15.1391C48.7636 15.1391 41.7353 20.3454 40.9383 27.3159H34.0348C34.0386 27.1159 34.0479 26.9159 34.0665 26.7143C34.1112 26.2002 33.7518 25.7237 33.1782 25.5362L26.9564 23.5064L30.7126 15.3766ZM56.7713 17.4797C63.5221 17.4797 68.8929 21.8173 69.5279 27.3143H43.7559C44.5511 21.572 50.3632 17.4797 56.7713 17.4797ZM97.8009 29.6581L95.9982 35.5239H54.3671C53.5961 35.5239 52.9704 36.0489 52.9704 36.6958C52.9704 37.3427 53.5961 37.8677 54.3671 37.8677H95.2775L93.4748 43.7334H56.2294C55.4584 43.7334 54.8327 44.2584 54.8327 44.9053C54.8327 45.5522 55.4584 46.0772 56.2294 46.0772H92.7523L90.9496 51.9414H58.0917C57.3207 51.9414 56.695 52.4664 56.695 53.1133C56.695 53.7602 57.3207 54.2852 58.0917 54.2852H90.2289L88.4262 60.151H59.9539C59.183 60.151 58.5572 60.676 58.5572 61.3229C58.5572 61.9698 59.183 62.4948 59.9539 62.4948H87.7055L85.9028 68.3605H24.2989L13.697 29.6581H97.8009ZM52.8848 92.3329C52.8848 95.5955 49.7208 98.2518 45.8305 98.2518C41.9402 98.2518 38.7762 95.597 38.7762 92.3329C38.7762 89.0688 41.9402 86.414 45.8305 86.414C49.7189 86.414 52.8848 89.0688 52.8848 92.3329ZM82.9456 98.2502C79.0553 98.2502 75.8913 95.5955 75.8913 92.3313C75.8913 89.0672 79.0553 86.4125 82.9456 86.4125C86.8358 86.4125 89.9998 89.0672 89.9998 92.3313C89.9998 95.5955 86.8358 98.2502 82.9456 98.2502Z" fill="#3C7CFF"/>
<path d="M82.9456 84.0702H33.519C30.6232 84.0702 28.1482 82.4155 27.5001 80.0483L24.9414 70.7059H86.983C87.6199 70.7059 88.1767 70.3449 88.3368 69.8262L100.956 28.78C101.064 28.4284 100.972 28.0565 100.706 27.769C100.442 27.4831 100.036 27.3143 99.6017 27.3143H82.7351C82.7333 26.8643 82.7612 26.4174 82.7221 25.9627L88.4933 23.8049C89.1916 23.5439 89.5101 22.8611 89.2065 22.272L84.0313 12.1781C83.7259 11.578 82.8934 11.3046 82.1783 11.5718L76.8559 13.575C75.7982 12.4999 74.6286 11.5234 73.366 10.6608L75.4667 6.12949C75.746 5.52792 75.3922 4.84822 74.6696 4.61227L62.5835 0.67469C61.874 0.441873 61.0564 0.740316 60.7752 1.34189L58.6764 5.87011C57.0358 5.78261 55.3858 5.84355 53.7321 6.04043L51.4434 1.55596C51.138 0.957509 50.3018 0.679378 49.5867 0.948133L37.6104 5.46386C36.9139 5.72636 36.5973 6.41075 36.9009 6.99826L39.4094 11.8515C38.3181 12.7124 37.3106 13.6718 36.4018 14.7172L30.422 12.7671C29.7125 12.5343 28.8968 12.8265 28.6138 13.4359L23.8445 23.7486C23.567 24.3518 23.9227 25.0299 24.6415 25.2658L30.9286 27.3159H13.0545L10.073 16.4282C9.92773 15.8953 9.36346 15.5188 8.71167 15.5188H2.3967C1.62572 15.5188 1 16.0438 1 16.6907C1 17.3375 1.62572 17.8626 2.3967 17.8626H7.59989L24.7775 80.5733C25.7198 84.0124 29.314 86.414 33.519 86.414H38.9829C37.1374 87.9172 35.9809 90.0094 35.9809 92.3329C35.9809 96.8877 40.3982 100.596 45.8286 100.596C51.259 100.596 55.6763 96.8893 55.6763 92.3329C55.6763 90.0094 54.5198 87.9172 52.6743 86.414H76.098C74.2525 87.9172 73.096 90.0094 73.096 92.3329C73.096 96.8877 77.5133 100.596 82.9437 100.596C88.3741 100.596 92.7914 96.8893 92.7914 92.3329C92.7933 87.7766 88.3759 84.0702 82.9456 84.0702ZM30.7126 15.3766L36.413 17.2344C37.0275 17.4329 37.7166 17.25 38.0816 16.7907C39.2269 15.3469 40.51 14.1219 42.0016 13.0437C42.4653 12.7093 42.6143 12.1609 42.3722 11.689L40.0127 7.12639L49.4358 3.57475L51.5942 7.80609C51.8531 8.30923 52.4769 8.60299 53.1343 8.49673C55.2498 8.16548 57.3784 8.09204 59.453 8.27485C60.075 8.32954 60.6728 8.02797 60.9018 7.53421L62.874 3.28256L72.3567 6.37169L70.3845 10.6218C70.1573 11.1124 70.3473 11.6718 70.852 11.9874C72.5206 13.0296 74.0234 14.2859 75.3214 15.7234C75.7162 16.1594 76.4164 16.3078 77.0049 16.086L82.0256 14.1984L86.0965 22.1361L80.6699 24.1658C80.113 24.3736 79.7816 24.8611 79.8523 25.3705C79.9417 26.0299 79.9883 26.6737 79.992 27.3159H72.3623C71.7198 20.5439 65.0622 15.1391 56.7695 15.1391C48.7636 15.1391 41.7353 20.3454 40.9383 27.3159H34.0348C34.0386 27.1159 34.0479 26.9159 34.0665 26.7143C34.1112 26.2002 33.7518 25.7237 33.1782 25.5362L26.9564 23.5064L30.7126 15.3766ZM56.7713 17.4797C63.5221 17.4797 68.8929 21.8173 69.5279 27.3143H43.7559C44.5511 21.572 50.3632 17.4797 56.7713 17.4797ZM97.8009 29.6581L95.9982 35.5239H54.3671C53.5961 35.5239 52.9704 36.0489 52.9704 36.6958C52.9704 37.3427 53.5961 37.8677 54.3671 37.8677H95.2775L93.4748 43.7334H56.2294C55.4584 43.7334 54.8327 44.2584 54.8327 44.9053C54.8327 45.5522 55.4584 46.0772 56.2294 46.0772H92.7523L90.9496 51.9414H58.0917C57.3207 51.9414 56.695 52.4664 56.695 53.1133C56.695 53.7602 57.3207 54.2852 58.0917 54.2852H90.2289L88.4262 60.151H59.9539C59.183 60.151 58.5572 60.676 58.5572 61.3229C58.5572 61.9698 59.183 62.4948 59.9539 62.4948H87.7055L85.9028 68.3605H24.2989L13.697 29.6581H97.8009ZM52.8848 92.3329C52.8848 95.5955 49.7208 98.2518 45.8305 98.2518C41.9402 98.2518 38.7762 95.597 38.7762 92.3329C38.7762 89.0688 41.9402 86.414 45.8305 86.414C49.7189 86.414 52.8848 89.0688 52.8848 92.3329ZM82.9456 98.2502C79.0553 98.2502 75.8913 95.5955 75.8913 92.3313C75.8913 89.0672 79.0553 86.4125 82.9456 86.4125C86.8358 86.4125 89.9998 89.0672 89.9998 92.3313C89.9998 95.5955 86.8358 98.2502 82.9456 98.2502Z" stroke="#3C7CFF" stroke-width="0.6" mask="url(#path-1-outside-1_173_644)"/>
</svg>
