<svg width="102" height="99" viewBox="0 0 102 99" fill="none" xmlns="http://www.w3.org/2000/svg">
<mask id="path-1-outside-1_179_873" maskUnits="userSpaceOnUse" x="0" y="0" width="102" height="99" fill="black">
<rect fill="white" width="102" height="99"/>
<path fill-rule="evenodd" clip-rule="evenodd" d="M30.8836 34.7997C30.8836 34.166 31.3958 33.6539 32.0294 33.6539C32.6631 33.6539 33.1752 34.166 33.1752 34.7997V35.3509C33.9 35.5462 34.5511 35.9195 35.0718 36.4186C35.8661 37.1781 36.3565 38.2328 36.3565 39.4004C36.3565 40.0341 35.8444 40.5462 35.2107 40.5462C34.5771 40.5462 34.065 40.034 34.065 39.4004C34.065 38.8795 33.8436 38.4108 33.4877 38.0679C33.1188 37.7164 32.6023 37.495 32.0294 37.495C31.4521 37.495 30.9399 37.712 30.571 38.0679C30.2151 38.4108 29.9938 38.8839 29.9938 39.4004C29.9938 39.9212 30.2151 40.39 30.571 40.7328C30.9399 41.0844 31.4564 41.3057 32.0294 41.3057C33.2099 41.3057 34.2863 41.7702 35.0719 42.5211C35.8662 43.2806 36.3566 44.3353 36.3566 45.5029C36.3566 46.6704 35.8661 47.7208 35.0719 48.4847C34.5511 48.9838 33.9 49.3571 33.1753 49.5524V50.1036C33.1753 50.7373 32.6631 51.2494 32.0295 51.2494C31.3958 51.2494 30.8837 50.7372 30.8837 50.1036V49.5524C30.1589 49.3571 29.5078 48.9838 28.987 48.4847C28.1927 47.7251 27.7023 46.6704 27.7023 45.5029C27.7023 44.8692 28.2145 44.3571 28.8481 44.3571C29.4817 44.3571 29.9939 44.8692 29.9939 45.5029C29.9939 46.0237 30.2153 46.4925 30.5712 46.8353C30.9401 47.1869 31.4566 47.4082 32.0295 47.4082C32.6068 47.4082 33.1189 47.1912 33.4878 46.8353C33.8437 46.4924 34.0651 46.0193 34.0651 45.5029C34.0651 44.982 33.8437 44.5133 33.4878 44.1704C33.1189 43.8189 32.6024 43.5975 32.0295 43.5975C30.8489 43.5975 29.7726 43.1331 28.9869 42.3822C28.1927 41.6226 27.7023 40.5679 27.7023 39.4004C27.7023 38.2328 28.1927 37.1825 28.9869 36.4186C29.5078 35.9195 30.1588 35.5462 30.8836 35.3509V34.7997ZM32.0294 29.7823C28.5312 29.7823 25.3627 31.2015 23.071 33.4932C20.7794 35.7849 19.3601 38.9533 19.3601 42.4516C19.3601 45.9498 20.7794 49.1183 23.071 51.4099C25.3627 53.7016 28.5312 55.1209 32.0294 55.1209C35.5276 55.1209 38.6961 53.7016 40.9878 51.4099C43.2794 49.1183 44.6987 45.9498 44.6987 42.4516C44.6987 38.9533 43.2794 35.7849 40.9878 33.4932C38.6961 31.2015 35.5276 29.7823 32.0294 29.7823ZM44.0128 51.4102C45.8834 48.9145 46.9902 45.8111 46.9902 42.4518C46.9902 39.0925 45.8835 35.9934 44.0128 33.4934V4.01888C44.0128 3.81922 44.0952 3.63693 44.2298 3.50239C44.3643 3.37218 44.5423 3.28538 44.7463 3.28538H81.912C82.1116 3.28538 82.2939 3.36784 82.4285 3.50239C82.5587 3.63693 82.6455 3.81489 82.6455 4.01888V55.5769C82.6455 55.7765 82.563 55.9588 82.4285 56.0933C82.2939 56.2236 82.1116 56.3104 81.912 56.3104H44.7463C44.5466 56.3104 44.3643 56.2279 44.2298 56.0933C44.0996 55.9588 44.0128 55.7808 44.0128 55.5769V51.4058V51.4102ZM75.5018 10.7545H51.075V18.9489H75.5018V10.7545ZM49.9283 8.46712C49.2947 8.46712 48.7826 8.97928 48.7826 9.6129V20.0991C48.7826 20.7327 49.2947 21.2448 49.9283 21.2448H76.6473C77.281 21.2448 77.7931 20.7327 77.7931 20.0991V9.6129C77.7931 8.97922 77.281 8.46712 76.6473 8.46712H49.9283ZM54.0777 27.4561H51.0786V30.4552H54.0777V27.4561ZM49.9283 25.1644C49.2947 25.1644 48.7826 25.6766 48.7826 26.3102V31.601C48.7826 32.2347 49.2947 32.7468 49.9283 32.7468H55.2192C55.8528 32.7468 56.3649 32.2346 56.3649 31.601V26.3102C56.3649 25.6765 55.8528 25.1644 55.2192 25.1644H49.9283ZM54.0777 37.1311H51.0786V40.1302H54.0777V37.1311ZM49.9283 34.8394C49.2947 34.8394 48.7826 35.3516 48.7826 35.9852V41.276C48.7826 41.9097 49.2947 42.4218 49.9283 42.4218H55.2192C55.8528 42.4218 56.3649 41.9096 56.3649 41.276V35.9852C56.3649 35.3515 55.8528 34.8394 55.2192 34.8394H49.9283ZM54.0777 46.8062H51.0786V49.8053H54.0777V46.8062ZM49.9283 44.5145C49.2947 44.5145 48.7826 45.0266 48.7826 45.6603V50.9511C48.7826 51.5847 49.2947 52.0968 49.9283 52.0968H55.2192C55.8528 52.0968 56.3649 51.5847 56.3649 50.9511V45.6603C56.3649 45.0266 55.8528 44.5145 55.2192 44.5145H49.9283ZM64.824 27.4566H61.8248V30.4558H64.824V27.4566ZM60.679 25.165C60.0453 25.165 59.5332 25.6771 59.5332 26.3107V31.6015C59.5332 32.2352 60.0453 32.7473 60.679 32.7473H65.9697C66.6034 32.7473 67.1155 32.2352 67.1155 31.6015V26.3107C67.1155 25.6771 66.6034 25.165 65.9697 25.165H60.679ZM64.824 37.1317H61.8248V40.1308H64.824V37.1317ZM60.679 34.84C60.0453 34.84 59.5332 35.3522 59.5332 35.9858V41.2766C59.5332 41.9103 60.0453 42.4224 60.679 42.4224H65.9697C66.6034 42.4224 67.1155 41.9102 67.1155 41.2766V35.9858C67.1155 35.3521 66.6034 34.84 65.9697 34.84H60.679ZM64.824 46.8067H61.8248V49.8058H64.824V46.8067ZM60.679 44.515C60.0453 44.515 59.5332 45.0272 59.5332 45.6608V50.9516C59.5332 51.5853 60.0453 52.0974 60.679 52.0974H65.9697C66.6034 52.0974 67.1155 51.5852 67.1155 50.9516V45.6608C67.1155 45.0271 66.6034 44.515 65.9697 44.515H60.679ZM75.5746 27.4572H72.5754V30.4563H75.5746V27.4572ZM71.4296 25.1655C70.7959 25.1655 70.2838 25.6777 70.2838 26.3113V31.6021C70.2838 32.2358 70.7959 32.7479 71.4296 32.7479H76.7203C77.354 32.7479 77.8661 32.2357 77.8661 31.6021V26.3113C77.8661 25.6776 77.354 25.1655 76.7203 25.1655H71.4296ZM75.5746 37.1322H72.5754V49.8056H75.5746V37.1322ZM71.4296 34.8405C70.7959 34.8405 70.2838 35.3527 70.2838 35.9863V50.9519C70.2838 51.5856 70.7959 52.0977 71.4296 52.0977H76.7203C77.354 52.0977 77.8661 51.5856 77.8661 50.9519V35.9863C77.8661 35.3527 77.354 34.8405 76.7203 34.8405H71.4296ZM78.9642 91.3863H23.4429V95.54H78.9687V91.3863H78.9642ZM64.7153 89.099C63.8429 88.5348 63.0356 87.8837 62.3021 87.1502C59.9409 84.7891 58.3872 81.6163 58.1094 78.0964H44.2938C44.016 81.6121 42.4622 84.7891 40.1011 87.1502C39.3719 87.8794 38.5603 88.5348 37.6879 89.099H64.7153ZM60.4097 78.0964H95.4965C97.0113 78.0964 98.3872 77.4757 99.3811 76.4818C100.379 75.4836 100.996 74.1077 100.996 72.5973L101 11.0781C101 9.56334 100.379 8.18745 99.3854 7.19356C98.3872 6.19529 97.0113 5.579 95.5009 5.579H84.9323V4.02088C84.9323 3.19189 84.5937 2.43232 84.0469 1.88543C83.5 1.33855 82.7447 1 81.9114 1H44.7457C43.9167 1 43.1571 1.33855 42.6103 1.88543C42.0634 2.43231 41.7248 3.18754 41.7248 4.02088V5.579H6.49913C4.98435 5.579 3.60845 6.19965 2.61456 7.19356C1.61629 8.19183 1 9.56768 1 11.0781V72.5973C1 74.112 1.62066 75.4879 2.61456 76.4818C3.61283 77.4801 4.98868 78.0964 6.49913 78.0964H41.9937C41.7246 80.9827 40.4313 83.5825 38.4824 85.5313C36.2818 87.7319 33.248 89.099 29.9103 89.099H22.6924C22.2671 89.099 21.8808 89.2726 21.5987 89.5504C21.3209 89.8282 21.1473 90.2144 21.1473 90.6441V96.2908C21.1473 96.7118 21.3209 97.0981 21.603 97.3802L21.5987 97.3846C21.8808 97.6667 22.2627 97.836 22.6924 97.836H79.706C80.1313 97.836 80.5176 97.6624 80.7997 97.3846L80.7954 97.3802C81.0775 97.0981 81.2511 96.7118 81.2511 96.2908V90.6441C81.2511 90.2188 81.0775 89.8325 80.7997 89.5504C80.5176 89.2682 80.1357 89.099 79.706 89.099H72.4881C69.1504 89.099 66.1165 87.7318 63.916 85.5313C61.9672 83.5825 60.6738 80.9826 60.4047 78.0964H60.4097ZM98.7088 70.3402V72.5971C98.7088 73.4782 98.3485 74.2812 97.7626 74.8628C97.181 75.4444 96.378 75.8047 95.4969 75.8047H6.49878C5.6177 75.8047 4.81477 75.4444 4.23311 74.8628C3.6515 74.2812 3.28692 73.4783 3.28692 72.5971V70.3402H98.7088ZM3.29172 68.0486H98.7132L98.7089 11.0784C98.7089 10.1973 98.3486 9.39434 97.7627 8.81267C97.1811 8.23107 96.3781 7.87083 95.497 7.87083H84.9284V55.5832C84.9284 56.4122 84.5899 57.1718 84.043 57.7187C83.4961 58.2656 82.7409 58.6041 81.9075 58.6041H44.7418C43.9128 58.6041 43.1533 58.2656 42.6064 57.7187C42.0595 57.1718 41.721 56.4166 41.721 55.5832V53.8514C39.1081 56.0737 35.7271 57.4148 32.029 57.4148C27.897 57.4148 24.1601 55.7395 21.4518 53.0354C18.7434 50.3271 17.0724 46.5901 17.0724 42.4582C17.0724 38.3263 18.7478 34.5893 21.4518 31.8809C24.1601 29.1726 27.8971 27.5016 32.029 27.5016C35.7269 27.5016 39.1081 28.8427 41.721 31.0649V7.86594H6.49972C5.61864 7.86594 4.81571 8.22618 4.23404 8.80779C3.65244 9.38939 3.28786 10.1923 3.28786 11.0735V68.0437L3.29172 68.0486Z"/>
</mask>
<path fill-rule="evenodd" clip-rule="evenodd" d="M30.8836 34.7997C30.8836 34.166 31.3958 33.6539 32.0294 33.6539C32.6631 33.6539 33.1752 34.166 33.1752 34.7997V35.3509C33.9 35.5462 34.5511 35.9195 35.0718 36.4186C35.8661 37.1781 36.3565 38.2328 36.3565 39.4004C36.3565 40.0341 35.8444 40.5462 35.2107 40.5462C34.5771 40.5462 34.065 40.034 34.065 39.4004C34.065 38.8795 33.8436 38.4108 33.4877 38.0679C33.1188 37.7164 32.6023 37.495 32.0294 37.495C31.4521 37.495 30.9399 37.712 30.571 38.0679C30.2151 38.4108 29.9938 38.8839 29.9938 39.4004C29.9938 39.9212 30.2151 40.39 30.571 40.7328C30.9399 41.0844 31.4564 41.3057 32.0294 41.3057C33.2099 41.3057 34.2863 41.7702 35.0719 42.5211C35.8662 43.2806 36.3566 44.3353 36.3566 45.5029C36.3566 46.6704 35.8661 47.7208 35.0719 48.4847C34.5511 48.9838 33.9 49.3571 33.1753 49.5524V50.1036C33.1753 50.7373 32.6631 51.2494 32.0295 51.2494C31.3958 51.2494 30.8837 50.7372 30.8837 50.1036V49.5524C30.1589 49.3571 29.5078 48.9838 28.987 48.4847C28.1927 47.7251 27.7023 46.6704 27.7023 45.5029C27.7023 44.8692 28.2145 44.3571 28.8481 44.3571C29.4817 44.3571 29.9939 44.8692 29.9939 45.5029C29.9939 46.0237 30.2153 46.4925 30.5712 46.8353C30.9401 47.1869 31.4566 47.4082 32.0295 47.4082C32.6068 47.4082 33.1189 47.1912 33.4878 46.8353C33.8437 46.4924 34.0651 46.0193 34.0651 45.5029C34.0651 44.982 33.8437 44.5133 33.4878 44.1704C33.1189 43.8189 32.6024 43.5975 32.0295 43.5975C30.8489 43.5975 29.7726 43.1331 28.9869 42.3822C28.1927 41.6226 27.7023 40.5679 27.7023 39.4004C27.7023 38.2328 28.1927 37.1825 28.9869 36.4186C29.5078 35.9195 30.1588 35.5462 30.8836 35.3509V34.7997ZM32.0294 29.7823C28.5312 29.7823 25.3627 31.2015 23.071 33.4932C20.7794 35.7849 19.3601 38.9533 19.3601 42.4516C19.3601 45.9498 20.7794 49.1183 23.071 51.4099C25.3627 53.7016 28.5312 55.1209 32.0294 55.1209C35.5276 55.1209 38.6961 53.7016 40.9878 51.4099C43.2794 49.1183 44.6987 45.9498 44.6987 42.4516C44.6987 38.9533 43.2794 35.7849 40.9878 33.4932C38.6961 31.2015 35.5276 29.7823 32.0294 29.7823ZM44.0128 51.4102C45.8834 48.9145 46.9902 45.8111 46.9902 42.4518C46.9902 39.0925 45.8835 35.9934 44.0128 33.4934V4.01888C44.0128 3.81922 44.0952 3.63693 44.2298 3.50239C44.3643 3.37218 44.5423 3.28538 44.7463 3.28538H81.912C82.1116 3.28538 82.2939 3.36784 82.4285 3.50239C82.5587 3.63693 82.6455 3.81489 82.6455 4.01888V55.5769C82.6455 55.7765 82.563 55.9588 82.4285 56.0933C82.2939 56.2236 82.1116 56.3104 81.912 56.3104H44.7463C44.5466 56.3104 44.3643 56.2279 44.2298 56.0933C44.0996 55.9588 44.0128 55.7808 44.0128 55.5769V51.4058V51.4102ZM75.5018 10.7545H51.075V18.9489H75.5018V10.7545ZM49.9283 8.46712C49.2947 8.46712 48.7826 8.97928 48.7826 9.6129V20.0991C48.7826 20.7327 49.2947 21.2448 49.9283 21.2448H76.6473C77.281 21.2448 77.7931 20.7327 77.7931 20.0991V9.6129C77.7931 8.97922 77.281 8.46712 76.6473 8.46712H49.9283ZM54.0777 27.4561H51.0786V30.4552H54.0777V27.4561ZM49.9283 25.1644C49.2947 25.1644 48.7826 25.6766 48.7826 26.3102V31.601C48.7826 32.2347 49.2947 32.7468 49.9283 32.7468H55.2192C55.8528 32.7468 56.3649 32.2346 56.3649 31.601V26.3102C56.3649 25.6765 55.8528 25.1644 55.2192 25.1644H49.9283ZM54.0777 37.1311H51.0786V40.1302H54.0777V37.1311ZM49.9283 34.8394C49.2947 34.8394 48.7826 35.3516 48.7826 35.9852V41.276C48.7826 41.9097 49.2947 42.4218 49.9283 42.4218H55.2192C55.8528 42.4218 56.3649 41.9096 56.3649 41.276V35.9852C56.3649 35.3515 55.8528 34.8394 55.2192 34.8394H49.9283ZM54.0777 46.8062H51.0786V49.8053H54.0777V46.8062ZM49.9283 44.5145C49.2947 44.5145 48.7826 45.0266 48.7826 45.6603V50.9511C48.7826 51.5847 49.2947 52.0968 49.9283 52.0968H55.2192C55.8528 52.0968 56.3649 51.5847 56.3649 50.9511V45.6603C56.3649 45.0266 55.8528 44.5145 55.2192 44.5145H49.9283ZM64.824 27.4566H61.8248V30.4558H64.824V27.4566ZM60.679 25.165C60.0453 25.165 59.5332 25.6771 59.5332 26.3107V31.6015C59.5332 32.2352 60.0453 32.7473 60.679 32.7473H65.9697C66.6034 32.7473 67.1155 32.2352 67.1155 31.6015V26.3107C67.1155 25.6771 66.6034 25.165 65.9697 25.165H60.679ZM64.824 37.1317H61.8248V40.1308H64.824V37.1317ZM60.679 34.84C60.0453 34.84 59.5332 35.3522 59.5332 35.9858V41.2766C59.5332 41.9103 60.0453 42.4224 60.679 42.4224H65.9697C66.6034 42.4224 67.1155 41.9102 67.1155 41.2766V35.9858C67.1155 35.3521 66.6034 34.84 65.9697 34.84H60.679ZM64.824 46.8067H61.8248V49.8058H64.824V46.8067ZM60.679 44.515C60.0453 44.515 59.5332 45.0272 59.5332 45.6608V50.9516C59.5332 51.5853 60.0453 52.0974 60.679 52.0974H65.9697C66.6034 52.0974 67.1155 51.5852 67.1155 50.9516V45.6608C67.1155 45.0271 66.6034 44.515 65.9697 44.515H60.679ZM75.5746 27.4572H72.5754V30.4563H75.5746V27.4572ZM71.4296 25.1655C70.7959 25.1655 70.2838 25.6777 70.2838 26.3113V31.6021C70.2838 32.2358 70.7959 32.7479 71.4296 32.7479H76.7203C77.354 32.7479 77.8661 32.2357 77.8661 31.6021V26.3113C77.8661 25.6776 77.354 25.1655 76.7203 25.1655H71.4296ZM75.5746 37.1322H72.5754V49.8056H75.5746V37.1322ZM71.4296 34.8405C70.7959 34.8405 70.2838 35.3527 70.2838 35.9863V50.9519C70.2838 51.5856 70.7959 52.0977 71.4296 52.0977H76.7203C77.354 52.0977 77.8661 51.5856 77.8661 50.9519V35.9863C77.8661 35.3527 77.354 34.8405 76.7203 34.8405H71.4296ZM78.9642 91.3863H23.4429V95.54H78.9687V91.3863H78.9642ZM64.7153 89.099C63.8429 88.5348 63.0356 87.8837 62.3021 87.1502C59.9409 84.7891 58.3872 81.6163 58.1094 78.0964H44.2938C44.016 81.6121 42.4622 84.7891 40.1011 87.1502C39.3719 87.8794 38.5603 88.5348 37.6879 89.099H64.7153ZM60.4097 78.0964H95.4965C97.0113 78.0964 98.3872 77.4757 99.3811 76.4818C100.379 75.4836 100.996 74.1077 100.996 72.5973L101 11.0781C101 9.56334 100.379 8.18745 99.3854 7.19356C98.3872 6.19529 97.0113 5.579 95.5009 5.579H84.9323V4.02088C84.9323 3.19189 84.5937 2.43232 84.0469 1.88543C83.5 1.33855 82.7447 1 81.9114 1H44.7457C43.9167 1 43.1571 1.33855 42.6103 1.88543C42.0634 2.43231 41.7248 3.18754 41.7248 4.02088V5.579H6.49913C4.98435 5.579 3.60845 6.19965 2.61456 7.19356C1.61629 8.19183 1 9.56768 1 11.0781V72.5973C1 74.112 1.62066 75.4879 2.61456 76.4818C3.61283 77.4801 4.98868 78.0964 6.49913 78.0964H41.9937C41.7246 80.9827 40.4313 83.5825 38.4824 85.5313C36.2818 87.7319 33.248 89.099 29.9103 89.099H22.6924C22.2671 89.099 21.8808 89.2726 21.5987 89.5504C21.3209 89.8282 21.1473 90.2144 21.1473 90.6441V96.2908C21.1473 96.7118 21.3209 97.0981 21.603 97.3802L21.5987 97.3846C21.8808 97.6667 22.2627 97.836 22.6924 97.836H79.706C80.1313 97.836 80.5176 97.6624 80.7997 97.3846L80.7954 97.3802C81.0775 97.0981 81.2511 96.7118 81.2511 96.2908V90.6441C81.2511 90.2188 81.0775 89.8325 80.7997 89.5504C80.5176 89.2682 80.1357 89.099 79.706 89.099H72.4881C69.1504 89.099 66.1165 87.7318 63.916 85.5313C61.9672 83.5825 60.6738 80.9826 60.4047 78.0964H60.4097ZM98.7088 70.3402V72.5971C98.7088 73.4782 98.3485 74.2812 97.7626 74.8628C97.181 75.4444 96.378 75.8047 95.4969 75.8047H6.49878C5.6177 75.8047 4.81477 75.4444 4.23311 74.8628C3.6515 74.2812 3.28692 73.4783 3.28692 72.5971V70.3402H98.7088ZM3.29172 68.0486H98.7132L98.7089 11.0784C98.7089 10.1973 98.3486 9.39434 97.7627 8.81267C97.1811 8.23107 96.3781 7.87083 95.497 7.87083H84.9284V55.5832C84.9284 56.4122 84.5899 57.1718 84.043 57.7187C83.4961 58.2656 82.7409 58.6041 81.9075 58.6041H44.7418C43.9128 58.6041 43.1533 58.2656 42.6064 57.7187C42.0595 57.1718 41.721 56.4166 41.721 55.5832V53.8514C39.1081 56.0737 35.7271 57.4148 32.029 57.4148C27.897 57.4148 24.1601 55.7395 21.4518 53.0354C18.7434 50.3271 17.0724 46.5901 17.0724 42.4582C17.0724 38.3263 18.7478 34.5893 21.4518 31.8809C24.1601 29.1726 27.8971 27.5016 32.029 27.5016C35.7269 27.5016 39.1081 28.8427 41.721 31.0649V7.86594H6.49972C5.61864 7.86594 4.81571 8.22618 4.23404 8.80779C3.65244 9.38939 3.28786 10.1923 3.28786 11.0735V68.0437L3.29172 68.0486Z" fill="#3C7CFF"/>
<path fill-rule="evenodd" clip-rule="evenodd" d="M30.8836 34.7997C30.8836 34.166 31.3958 33.6539 32.0294 33.6539C32.6631 33.6539 33.1752 34.166 33.1752 34.7997V35.3509C33.9 35.5462 34.5511 35.9195 35.0718 36.4186C35.8661 37.1781 36.3565 38.2328 36.3565 39.4004C36.3565 40.0341 35.8444 40.5462 35.2107 40.5462C34.5771 40.5462 34.065 40.034 34.065 39.4004C34.065 38.8795 33.8436 38.4108 33.4877 38.0679C33.1188 37.7164 32.6023 37.495 32.0294 37.495C31.4521 37.495 30.9399 37.712 30.571 38.0679C30.2151 38.4108 29.9938 38.8839 29.9938 39.4004C29.9938 39.9212 30.2151 40.39 30.571 40.7328C30.9399 41.0844 31.4564 41.3057 32.0294 41.3057C33.2099 41.3057 34.2863 41.7702 35.0719 42.5211C35.8662 43.2806 36.3566 44.3353 36.3566 45.5029C36.3566 46.6704 35.8661 47.7208 35.0719 48.4847C34.5511 48.9838 33.9 49.3571 33.1753 49.5524V50.1036C33.1753 50.7373 32.6631 51.2494 32.0295 51.2494C31.3958 51.2494 30.8837 50.7372 30.8837 50.1036V49.5524C30.1589 49.3571 29.5078 48.9838 28.987 48.4847C28.1927 47.7251 27.7023 46.6704 27.7023 45.5029C27.7023 44.8692 28.2145 44.3571 28.8481 44.3571C29.4817 44.3571 29.9939 44.8692 29.9939 45.5029C29.9939 46.0237 30.2153 46.4925 30.5712 46.8353C30.9401 47.1869 31.4566 47.4082 32.0295 47.4082C32.6068 47.4082 33.1189 47.1912 33.4878 46.8353C33.8437 46.4924 34.0651 46.0193 34.0651 45.5029C34.0651 44.982 33.8437 44.5133 33.4878 44.1704C33.1189 43.8189 32.6024 43.5975 32.0295 43.5975C30.8489 43.5975 29.7726 43.1331 28.9869 42.3822C28.1927 41.6226 27.7023 40.5679 27.7023 39.4004C27.7023 38.2328 28.1927 37.1825 28.9869 36.4186C29.5078 35.9195 30.1588 35.5462 30.8836 35.3509V34.7997ZM32.0294 29.7823C28.5312 29.7823 25.3627 31.2015 23.071 33.4932C20.7794 35.7849 19.3601 38.9533 19.3601 42.4516C19.3601 45.9498 20.7794 49.1183 23.071 51.4099C25.3627 53.7016 28.5312 55.1209 32.0294 55.1209C35.5276 55.1209 38.6961 53.7016 40.9878 51.4099C43.2794 49.1183 44.6987 45.9498 44.6987 42.4516C44.6987 38.9533 43.2794 35.7849 40.9878 33.4932C38.6961 31.2015 35.5276 29.7823 32.0294 29.7823ZM44.0128 51.4102C45.8834 48.9145 46.9902 45.8111 46.9902 42.4518C46.9902 39.0925 45.8835 35.9934 44.0128 33.4934V4.01888C44.0128 3.81922 44.0952 3.63693 44.2298 3.50239C44.3643 3.37218 44.5423 3.28538 44.7463 3.28538H81.912C82.1116 3.28538 82.2939 3.36784 82.4285 3.50239C82.5587 3.63693 82.6455 3.81489 82.6455 4.01888V55.5769C82.6455 55.7765 82.563 55.9588 82.4285 56.0933C82.2939 56.2236 82.1116 56.3104 81.912 56.3104H44.7463C44.5466 56.3104 44.3643 56.2279 44.2298 56.0933C44.0996 55.9588 44.0128 55.7808 44.0128 55.5769V51.4058V51.4102ZM75.5018 10.7545H51.075V18.9489H75.5018V10.7545ZM49.9283 8.46712C49.2947 8.46712 48.7826 8.97928 48.7826 9.6129V20.0991C48.7826 20.7327 49.2947 21.2448 49.9283 21.2448H76.6473C77.281 21.2448 77.7931 20.7327 77.7931 20.0991V9.6129C77.7931 8.97922 77.281 8.46712 76.6473 8.46712H49.9283ZM54.0777 27.4561H51.0786V30.4552H54.0777V27.4561ZM49.9283 25.1644C49.2947 25.1644 48.7826 25.6766 48.7826 26.3102V31.601C48.7826 32.2347 49.2947 32.7468 49.9283 32.7468H55.2192C55.8528 32.7468 56.3649 32.2346 56.3649 31.601V26.3102C56.3649 25.6765 55.8528 25.1644 55.2192 25.1644H49.9283ZM54.0777 37.1311H51.0786V40.1302H54.0777V37.1311ZM49.9283 34.8394C49.2947 34.8394 48.7826 35.3516 48.7826 35.9852V41.276C48.7826 41.9097 49.2947 42.4218 49.9283 42.4218H55.2192C55.8528 42.4218 56.3649 41.9096 56.3649 41.276V35.9852C56.3649 35.3515 55.8528 34.8394 55.2192 34.8394H49.9283ZM54.0777 46.8062H51.0786V49.8053H54.0777V46.8062ZM49.9283 44.5145C49.2947 44.5145 48.7826 45.0266 48.7826 45.6603V50.9511C48.7826 51.5847 49.2947 52.0968 49.9283 52.0968H55.2192C55.8528 52.0968 56.3649 51.5847 56.3649 50.9511V45.6603C56.3649 45.0266 55.8528 44.5145 55.2192 44.5145H49.9283ZM64.824 27.4566H61.8248V30.4558H64.824V27.4566ZM60.679 25.165C60.0453 25.165 59.5332 25.6771 59.5332 26.3107V31.6015C59.5332 32.2352 60.0453 32.7473 60.679 32.7473H65.9697C66.6034 32.7473 67.1155 32.2352 67.1155 31.6015V26.3107C67.1155 25.6771 66.6034 25.165 65.9697 25.165H60.679ZM64.824 37.1317H61.8248V40.1308H64.824V37.1317ZM60.679 34.84C60.0453 34.84 59.5332 35.3522 59.5332 35.9858V41.2766C59.5332 41.9103 60.0453 42.4224 60.679 42.4224H65.9697C66.6034 42.4224 67.1155 41.9102 67.1155 41.2766V35.9858C67.1155 35.3521 66.6034 34.84 65.9697 34.84H60.679ZM64.824 46.8067H61.8248V49.8058H64.824V46.8067ZM60.679 44.515C60.0453 44.515 59.5332 45.0272 59.5332 45.6608V50.9516C59.5332 51.5853 60.0453 52.0974 60.679 52.0974H65.9697C66.6034 52.0974 67.1155 51.5852 67.1155 50.9516V45.6608C67.1155 45.0271 66.6034 44.515 65.9697 44.515H60.679ZM75.5746 27.4572H72.5754V30.4563H75.5746V27.4572ZM71.4296 25.1655C70.7959 25.1655 70.2838 25.6777 70.2838 26.3113V31.6021C70.2838 32.2358 70.7959 32.7479 71.4296 32.7479H76.7203C77.354 32.7479 77.8661 32.2357 77.8661 31.6021V26.3113C77.8661 25.6776 77.354 25.1655 76.7203 25.1655H71.4296ZM75.5746 37.1322H72.5754V49.8056H75.5746V37.1322ZM71.4296 34.8405C70.7959 34.8405 70.2838 35.3527 70.2838 35.9863V50.9519C70.2838 51.5856 70.7959 52.0977 71.4296 52.0977H76.7203C77.354 52.0977 77.8661 51.5856 77.8661 50.9519V35.9863C77.8661 35.3527 77.354 34.8405 76.7203 34.8405H71.4296ZM78.9642 91.3863H23.4429V95.54H78.9687V91.3863H78.9642ZM64.7153 89.099C63.8429 88.5348 63.0356 87.8837 62.3021 87.1502C59.9409 84.7891 58.3872 81.6163 58.1094 78.0964H44.2938C44.016 81.6121 42.4622 84.7891 40.1011 87.1502C39.3719 87.8794 38.5603 88.5348 37.6879 89.099H64.7153ZM60.4097 78.0964H95.4965C97.0113 78.0964 98.3872 77.4757 99.3811 76.4818C100.379 75.4836 100.996 74.1077 100.996 72.5973L101 11.0781C101 9.56334 100.379 8.18745 99.3854 7.19356C98.3872 6.19529 97.0113 5.579 95.5009 5.579H84.9323V4.02088C84.9323 3.19189 84.5937 2.43232 84.0469 1.88543C83.5 1.33855 82.7447 1 81.9114 1H44.7457C43.9167 1 43.1571 1.33855 42.6103 1.88543C42.0634 2.43231 41.7248 3.18754 41.7248 4.02088V5.579H6.49913C4.98435 5.579 3.60845 6.19965 2.61456 7.19356C1.61629 8.19183 1 9.56768 1 11.0781V72.5973C1 74.112 1.62066 75.4879 2.61456 76.4818C3.61283 77.4801 4.98868 78.0964 6.49913 78.0964H41.9937C41.7246 80.9827 40.4313 83.5825 38.4824 85.5313C36.2818 87.7319 33.248 89.099 29.9103 89.099H22.6924C22.2671 89.099 21.8808 89.2726 21.5987 89.5504C21.3209 89.8282 21.1473 90.2144 21.1473 90.6441V96.2908C21.1473 96.7118 21.3209 97.0981 21.603 97.3802L21.5987 97.3846C21.8808 97.6667 22.2627 97.836 22.6924 97.836H79.706C80.1313 97.836 80.5176 97.6624 80.7997 97.3846L80.7954 97.3802C81.0775 97.0981 81.2511 96.7118 81.2511 96.2908V90.6441C81.2511 90.2188 81.0775 89.8325 80.7997 89.5504C80.5176 89.2682 80.1357 89.099 79.706 89.099H72.4881C69.1504 89.099 66.1165 87.7318 63.916 85.5313C61.9672 83.5825 60.6738 80.9826 60.4047 78.0964H60.4097ZM98.7088 70.3402V72.5971C98.7088 73.4782 98.3485 74.2812 97.7626 74.8628C97.181 75.4444 96.378 75.8047 95.4969 75.8047H6.49878C5.6177 75.8047 4.81477 75.4444 4.23311 74.8628C3.6515 74.2812 3.28692 73.4783 3.28692 72.5971V70.3402H98.7088ZM3.29172 68.0486H98.7132L98.7089 11.0784C98.7089 10.1973 98.3486 9.39434 97.7627 8.81267C97.1811 8.23107 96.3781 7.87083 95.497 7.87083H84.9284V55.5832C84.9284 56.4122 84.5899 57.1718 84.043 57.7187C83.4961 58.2656 82.7409 58.6041 81.9075 58.6041H44.7418C43.9128 58.6041 43.1533 58.2656 42.6064 57.7187C42.0595 57.1718 41.721 56.4166 41.721 55.5832V53.8514C39.1081 56.0737 35.7271 57.4148 32.029 57.4148C27.897 57.4148 24.1601 55.7395 21.4518 53.0354C18.7434 50.3271 17.0724 46.5901 17.0724 42.4582C17.0724 38.3263 18.7478 34.5893 21.4518 31.8809C24.1601 29.1726 27.8971 27.5016 32.029 27.5016C35.7269 27.5016 39.1081 28.8427 41.721 31.0649V7.86594H6.49972C5.61864 7.86594 4.81571 8.22618 4.23404 8.80779C3.65244 9.38939 3.28786 10.1923 3.28786 11.0735V68.0437L3.29172 68.0486Z" stroke="#3C7CFF" mask="url(#path-1-outside-1_179_873)"/>
</svg>
