<svg width="98" height="80" viewBox="0 0 98 80" fill="none" xmlns="http://www.w3.org/2000/svg">
<mask id="path-1-outside-1_209_1701" maskUnits="userSpaceOnUse" x="0" y="0" width="98" height="80" fill="black">
<rect fill="white" width="98" height="80"/>
<path d="M8.51419 7.86238C8.51419 7.11704 9.12359 6.50763 9.86893 6.50763C10.6143 6.50763 11.2237 7.11704 11.2237 7.86238C11.2237 8.60773 10.6143 9.21713 9.86893 9.21713C9.12359 9.21713 8.51419 8.60773 8.51419 7.86238ZM14.5942 9.21713C15.3395 9.21713 15.9489 8.60773 15.9489 7.86238C15.9489 7.11704 15.3395 6.50763 14.5942 6.50763C13.8488 6.50763 13.2394 7.11704 13.2394 7.86238C13.2394 8.60773 13.8488 9.21713 14.5942 9.21713ZM19.3194 9.21713C20.0648 9.21713 20.6742 8.60773 20.6742 7.86238C20.6742 7.11704 20.0648 6.50763 19.3194 6.50763C18.5741 6.50763 17.9647 7.11704 17.9647 7.86238C17.9647 8.60773 18.5741 9.21713 19.3194 9.21713ZM29.309 17.1488C28.5589 17.1488 27.9542 17.7535 27.9542 18.5036V64.5799C27.9542 65.33 28.5589 65.9347 29.309 65.9347C30.059 65.9347 30.6637 65.33 30.6637 64.5799V18.5036C30.6637 17.7535 30.059 17.1488 29.309 17.1488ZM21.7945 19.2723H9.87361C9.12358 19.2723 8.51886 19.8771 8.51886 20.6271C8.51886 21.3771 9.12359 21.9818 9.87361 21.9818H21.7945C22.5446 21.9818 23.1493 21.3771 23.1493 20.6271C23.1493 19.8771 22.5446 19.2723 21.7945 19.2723ZM21.7945 25.2492H9.87361C9.12358 25.2492 8.51886 25.854 8.51886 26.604C8.51886 27.354 9.12359 27.9587 9.87361 27.9587H21.7945C22.5446 27.9587 23.1493 27.354 23.1493 26.604C23.1493 25.854 22.5446 25.2492 21.7945 25.2492ZM21.7945 31.2261H9.87361C9.12358 31.2261 8.51886 31.8309 8.51886 32.5809C8.51886 33.3309 9.12359 33.9356 9.87361 33.9356H21.7945C22.5446 33.9356 23.1493 33.3309 23.1493 32.5809C23.1493 31.8309 22.5446 31.2261 21.7945 31.2261ZM21.7945 37.203H9.87361C9.12358 37.203 8.51886 37.8078 8.51886 38.5578C8.51886 39.3078 9.12359 39.9125 9.87361 39.9125H21.7945C22.5446 39.9125 23.1493 39.3078 23.1493 38.5578C23.1493 37.8078 22.5446 37.203 21.7945 37.203ZM21.7945 43.1846H9.87361C9.12358 43.1846 8.51886 43.7894 8.51886 44.5394C8.51886 45.2894 9.12359 45.8941 9.87361 45.8941H21.7945C22.5446 45.8941 23.1493 45.2894 23.1493 44.5394C23.1493 43.7894 22.5446 43.1846 21.7945 43.1846ZM21.7945 49.1615H9.87361C9.12358 49.1615 8.51886 49.7663 8.51886 50.5163C8.51886 51.2663 9.12359 51.871 9.87361 51.871H21.7945C22.5446 51.871 23.1493 51.2663 23.1493 50.5163C23.1493 49.7663 22.5446 49.1615 21.7945 49.1615ZM21.7945 55.1385H9.87361C9.12358 55.1385 8.51886 55.7432 8.51886 56.4932C8.51886 57.2432 9.12359 57.8479 9.87361 57.8479H21.7945C22.5446 57.8479 23.1493 57.2432 23.1493 56.4932C23.1493 55.7432 22.5446 55.1385 21.7945 55.1385ZM21.7945 61.1154H9.87361C9.12358 61.1154 8.51886 61.7201 8.51886 62.4701C8.51886 63.2201 9.12359 63.8249 9.87361 63.8249H21.7945C22.5446 63.8249 23.1493 63.2201 23.1493 62.4701C23.1493 61.7201 22.5446 61.1154 21.7945 61.1154ZM97 59.3575V64.5468C97 65.1843 96.5547 65.7375 95.9265 65.8735L93.4091 66.4126L92.6825 68.1657L94.0842 70.3268C94.4311 70.8612 94.3561 71.5691 93.9061 72.0191L90.2356 75.6897C89.7809 76.1444 89.0777 76.2147 88.5432 75.8678L86.3822 74.4661L84.6337 75.188L84.0946 77.7101C83.9633 78.3335 83.4102 78.7836 82.7679 78.7836H77.5786C76.9411 78.7836 76.3879 78.3382 76.252 77.7101L75.7129 75.188L73.9644 74.4661L71.8033 75.8678C71.2689 76.2147 70.561 76.1397 70.111 75.6897L66.4405 72.0191C66.1826 71.7613 66.0514 71.4238 66.0467 71.0769L6.05802 71.0628C3.26884 71.0628 1 68.794 1 66.0095V6.05802C1 3.26884 3.26884 1 6.05802 1H84.2396C87.0288 1 89.2976 3.26884 89.2976 6.05802V47.8166C89.6399 47.8212 89.9774 47.9525 90.2352 48.2103L93.9057 51.8808C94.3604 52.3356 94.4307 53.0387 94.0838 53.5732L92.6822 55.7342L93.4088 57.4874L95.9261 58.0265C96.5496 58.1577 96.9996 58.7109 96.9996 59.3532L97 59.3575ZM3.70962 6.05797V12.016H86.5883V6.05797C86.5883 4.76418 85.5335 3.70945 84.2397 3.70945H6.05814C4.76435 3.70945 3.70962 4.7642 3.70962 6.05797ZM6.05814 68.3532H67.5241L67.66 68.1469L66.9334 66.3937L64.4161 65.8546C63.7926 65.7234 63.3426 65.1702 63.3426 64.528V59.3387C63.3426 58.7011 63.7879 58.148 64.4161 58.012L66.9334 57.4729L67.66 55.7197L66.2537 53.5587C65.9068 53.0243 65.9771 52.3164 66.4318 51.8617L70.1023 48.1912C70.557 47.7364 71.2602 47.6661 71.7946 48.013L73.9557 49.4147L75.7042 48.6928L76.2433 46.1707C76.3746 45.5473 76.9277 45.0972 77.57 45.0972H82.7593C83.3968 45.0972 83.95 45.5426 84.086 46.1707L84.625 48.6928L86.3735 49.4147L86.5845 49.2787V14.711L3.70943 14.7203V66.0086C3.70943 67.3024 4.76437 68.3532 6.05814 68.3532ZM94.2903 60.4402L92.1479 59.9808C91.712 59.887 91.351 59.587 91.1776 59.1745L89.9025 56.1087C89.729 55.6962 89.7759 55.2274 90.015 54.8524L91.2057 53.0148L89.0869 50.896L87.2493 52.0867C86.8743 52.3304 86.4055 52.3726 85.993 52.2039L82.9272 50.9382C82.5147 50.7694 82.21 50.4038 82.1209 49.9678L81.6615 47.8208H78.666L78.2066 49.9678C78.1129 50.4038 77.8129 50.7647 77.4003 50.9382L74.3345 52.2039C73.922 52.3726 73.4532 52.3305 73.0782 52.0867L71.2406 50.896L69.1218 53.0148L70.3172 54.8524C70.5609 55.2274 70.6031 55.6962 70.4344 56.1087L69.164 59.1745C68.9952 59.587 68.6296 59.887 68.1936 59.9808L66.0513 60.4402V63.4357L68.1936 63.8951C68.6296 63.9888 68.9905 64.2888 69.164 64.7014L70.4344 67.7672C70.6078 68.1797 70.561 68.6485 70.3172 69.0235L69.1218 70.861L71.2406 72.9799L73.0782 71.7892C73.4532 71.5454 73.922 71.5032 74.3345 71.672L77.4003 72.9377C77.8128 73.1064 78.1176 73.4721 78.2066 73.9081L78.666 76.0551H81.6615L82.1209 73.9081C82.2146 73.4721 82.5147 73.1111 82.9272 72.9377L85.993 71.672C86.4055 71.5032 86.8743 71.5454 87.2493 71.7892L89.0869 72.9799L91.2057 70.861L90.015 69.0235C89.7712 68.6485 89.729 68.1797 89.9025 67.7672L91.1776 64.7014C91.3463 64.2888 91.712 63.9888 92.1479 63.8951L94.2903 63.4357V60.4402ZM88.1634 61.9403C88.1634 66.3468 84.5772 69.9329 80.1707 69.9329C75.7642 69.9329 72.178 66.3468 72.178 61.9403C72.178 57.5338 75.7642 53.9476 80.1707 53.9476C84.5772 53.9476 88.1634 57.5338 88.1634 61.9403ZM85.4538 61.9403C85.4538 59.0245 83.0818 56.6572 80.1708 56.6572C77.255 56.6572 74.8878 59.0293 74.8878 61.9403C74.8878 64.8561 77.2598 67.2233 80.1708 67.2233C83.0866 67.2233 85.4538 64.8513 85.4538 61.9403ZM73.3224 39.9167H43.9953C41.6515 39.9167 39.7435 38.0089 39.7435 35.6649V29.299C39.7435 26.9551 41.6514 25.0471 43.9953 25.0471H73.3224C75.6616 25.0471 77.5696 26.955 77.5696 29.299V35.6649C77.5696 38.0088 75.6664 39.9167 73.3224 39.9167ZM43.9953 37.2072H73.3224C74.1709 37.2072 74.8599 36.5182 74.8599 35.6649V29.299C74.8599 28.4458 74.1709 27.7566 73.3224 27.7566H43.9953C43.1609 27.7566 42.453 28.4645 42.453 29.299V35.6649C42.453 36.5181 43.1421 37.2072 43.9953 37.2072Z"/>
</mask>
<path d="M8.51419 7.86238C8.51419 7.11704 9.12359 6.50763 9.86893 6.50763C10.6143 6.50763 11.2237 7.11704 11.2237 7.86238C11.2237 8.60773 10.6143 9.21713 9.86893 9.21713C9.12359 9.21713 8.51419 8.60773 8.51419 7.86238ZM14.5942 9.21713C15.3395 9.21713 15.9489 8.60773 15.9489 7.86238C15.9489 7.11704 15.3395 6.50763 14.5942 6.50763C13.8488 6.50763 13.2394 7.11704 13.2394 7.86238C13.2394 8.60773 13.8488 9.21713 14.5942 9.21713ZM19.3194 9.21713C20.0648 9.21713 20.6742 8.60773 20.6742 7.86238C20.6742 7.11704 20.0648 6.50763 19.3194 6.50763C18.5741 6.50763 17.9647 7.11704 17.9647 7.86238C17.9647 8.60773 18.5741 9.21713 19.3194 9.21713ZM29.309 17.1488C28.5589 17.1488 27.9542 17.7535 27.9542 18.5036V64.5799C27.9542 65.33 28.5589 65.9347 29.309 65.9347C30.059 65.9347 30.6637 65.33 30.6637 64.5799V18.5036C30.6637 17.7535 30.059 17.1488 29.309 17.1488ZM21.7945 19.2723H9.87361C9.12358 19.2723 8.51886 19.8771 8.51886 20.6271C8.51886 21.3771 9.12359 21.9818 9.87361 21.9818H21.7945C22.5446 21.9818 23.1493 21.3771 23.1493 20.6271C23.1493 19.8771 22.5446 19.2723 21.7945 19.2723ZM21.7945 25.2492H9.87361C9.12358 25.2492 8.51886 25.854 8.51886 26.604C8.51886 27.354 9.12359 27.9587 9.87361 27.9587H21.7945C22.5446 27.9587 23.1493 27.354 23.1493 26.604C23.1493 25.854 22.5446 25.2492 21.7945 25.2492ZM21.7945 31.2261H9.87361C9.12358 31.2261 8.51886 31.8309 8.51886 32.5809C8.51886 33.3309 9.12359 33.9356 9.87361 33.9356H21.7945C22.5446 33.9356 23.1493 33.3309 23.1493 32.5809C23.1493 31.8309 22.5446 31.2261 21.7945 31.2261ZM21.7945 37.203H9.87361C9.12358 37.203 8.51886 37.8078 8.51886 38.5578C8.51886 39.3078 9.12359 39.9125 9.87361 39.9125H21.7945C22.5446 39.9125 23.1493 39.3078 23.1493 38.5578C23.1493 37.8078 22.5446 37.203 21.7945 37.203ZM21.7945 43.1846H9.87361C9.12358 43.1846 8.51886 43.7894 8.51886 44.5394C8.51886 45.2894 9.12359 45.8941 9.87361 45.8941H21.7945C22.5446 45.8941 23.1493 45.2894 23.1493 44.5394C23.1493 43.7894 22.5446 43.1846 21.7945 43.1846ZM21.7945 49.1615H9.87361C9.12358 49.1615 8.51886 49.7663 8.51886 50.5163C8.51886 51.2663 9.12359 51.871 9.87361 51.871H21.7945C22.5446 51.871 23.1493 51.2663 23.1493 50.5163C23.1493 49.7663 22.5446 49.1615 21.7945 49.1615ZM21.7945 55.1385H9.87361C9.12358 55.1385 8.51886 55.7432 8.51886 56.4932C8.51886 57.2432 9.12359 57.8479 9.87361 57.8479H21.7945C22.5446 57.8479 23.1493 57.2432 23.1493 56.4932C23.1493 55.7432 22.5446 55.1385 21.7945 55.1385ZM21.7945 61.1154H9.87361C9.12358 61.1154 8.51886 61.7201 8.51886 62.4701C8.51886 63.2201 9.12359 63.8249 9.87361 63.8249H21.7945C22.5446 63.8249 23.1493 63.2201 23.1493 62.4701C23.1493 61.7201 22.5446 61.1154 21.7945 61.1154ZM97 59.3575V64.5468C97 65.1843 96.5547 65.7375 95.9265 65.8735L93.4091 66.4126L92.6825 68.1657L94.0842 70.3268C94.4311 70.8612 94.3561 71.5691 93.9061 72.0191L90.2356 75.6897C89.7809 76.1444 89.0777 76.2147 88.5432 75.8678L86.3822 74.4661L84.6337 75.188L84.0946 77.7101C83.9633 78.3335 83.4102 78.7836 82.7679 78.7836H77.5786C76.9411 78.7836 76.3879 78.3382 76.252 77.7101L75.7129 75.188L73.9644 74.4661L71.8033 75.8678C71.2689 76.2147 70.561 76.1397 70.111 75.6897L66.4405 72.0191C66.1826 71.7613 66.0514 71.4238 66.0467 71.0769L6.05802 71.0628C3.26884 71.0628 1 68.794 1 66.0095V6.05802C1 3.26884 3.26884 1 6.05802 1H84.2396C87.0288 1 89.2976 3.26884 89.2976 6.05802V47.8166C89.6399 47.8212 89.9774 47.9525 90.2352 48.2103L93.9057 51.8808C94.3604 52.3356 94.4307 53.0387 94.0838 53.5732L92.6822 55.7342L93.4088 57.4874L95.9261 58.0265C96.5496 58.1577 96.9996 58.7109 96.9996 59.3532L97 59.3575ZM3.70962 6.05797V12.016H86.5883V6.05797C86.5883 4.76418 85.5335 3.70945 84.2397 3.70945H6.05814C4.76435 3.70945 3.70962 4.7642 3.70962 6.05797ZM6.05814 68.3532H67.5241L67.66 68.1469L66.9334 66.3937L64.4161 65.8546C63.7926 65.7234 63.3426 65.1702 63.3426 64.528V59.3387C63.3426 58.7011 63.7879 58.148 64.4161 58.012L66.9334 57.4729L67.66 55.7197L66.2537 53.5587C65.9068 53.0243 65.9771 52.3164 66.4318 51.8617L70.1023 48.1912C70.557 47.7364 71.2602 47.6661 71.7946 48.013L73.9557 49.4147L75.7042 48.6928L76.2433 46.1707C76.3746 45.5473 76.9277 45.0972 77.57 45.0972H82.7593C83.3968 45.0972 83.95 45.5426 84.086 46.1707L84.625 48.6928L86.3735 49.4147L86.5845 49.2787V14.711L3.70943 14.7203V66.0086C3.70943 67.3024 4.76437 68.3532 6.05814 68.3532ZM94.2903 60.4402L92.1479 59.9808C91.712 59.887 91.351 59.587 91.1776 59.1745L89.9025 56.1087C89.729 55.6962 89.7759 55.2274 90.015 54.8524L91.2057 53.0148L89.0869 50.896L87.2493 52.0867C86.8743 52.3304 86.4055 52.3726 85.993 52.2039L82.9272 50.9382C82.5147 50.7694 82.21 50.4038 82.1209 49.9678L81.6615 47.8208H78.666L78.2066 49.9678C78.1129 50.4038 77.8129 50.7647 77.4003 50.9382L74.3345 52.2039C73.922 52.3726 73.4532 52.3305 73.0782 52.0867L71.2406 50.896L69.1218 53.0148L70.3172 54.8524C70.5609 55.2274 70.6031 55.6962 70.4344 56.1087L69.164 59.1745C68.9952 59.587 68.6296 59.887 68.1936 59.9808L66.0513 60.4402V63.4357L68.1936 63.8951C68.6296 63.9888 68.9905 64.2888 69.164 64.7014L70.4344 67.7672C70.6078 68.1797 70.561 68.6485 70.3172 69.0235L69.1218 70.861L71.2406 72.9799L73.0782 71.7892C73.4532 71.5454 73.922 71.5032 74.3345 71.672L77.4003 72.9377C77.8128 73.1064 78.1176 73.4721 78.2066 73.9081L78.666 76.0551H81.6615L82.1209 73.9081C82.2146 73.4721 82.5147 73.1111 82.9272 72.9377L85.993 71.672C86.4055 71.5032 86.8743 71.5454 87.2493 71.7892L89.0869 72.9799L91.2057 70.861L90.015 69.0235C89.7712 68.6485 89.729 68.1797 89.9025 67.7672L91.1776 64.7014C91.3463 64.2888 91.712 63.9888 92.1479 63.8951L94.2903 63.4357V60.4402ZM88.1634 61.9403C88.1634 66.3468 84.5772 69.9329 80.1707 69.9329C75.7642 69.9329 72.178 66.3468 72.178 61.9403C72.178 57.5338 75.7642 53.9476 80.1707 53.9476C84.5772 53.9476 88.1634 57.5338 88.1634 61.9403ZM85.4538 61.9403C85.4538 59.0245 83.0818 56.6572 80.1708 56.6572C77.255 56.6572 74.8878 59.0293 74.8878 61.9403C74.8878 64.8561 77.2598 67.2233 80.1708 67.2233C83.0866 67.2233 85.4538 64.8513 85.4538 61.9403ZM73.3224 39.9167H43.9953C41.6515 39.9167 39.7435 38.0089 39.7435 35.6649V29.299C39.7435 26.9551 41.6514 25.0471 43.9953 25.0471H73.3224C75.6616 25.0471 77.5696 26.955 77.5696 29.299V35.6649C77.5696 38.0088 75.6664 39.9167 73.3224 39.9167ZM43.9953 37.2072H73.3224C74.1709 37.2072 74.8599 36.5182 74.8599 35.6649V29.299C74.8599 28.4458 74.1709 27.7566 73.3224 27.7566H43.9953C43.1609 27.7566 42.453 28.4645 42.453 29.299V35.6649C42.453 36.5181 43.1421 37.2072 43.9953 37.2072Z" fill="#3C7CFF"/>
<path d="M8.51419 7.86238C8.51419 7.11704 9.12359 6.50763 9.86893 6.50763C10.6143 6.50763 11.2237 7.11704 11.2237 7.86238C11.2237 8.60773 10.6143 9.21713 9.86893 9.21713C9.12359 9.21713 8.51419 8.60773 8.51419 7.86238ZM14.5942 9.21713C15.3395 9.21713 15.9489 8.60773 15.9489 7.86238C15.9489 7.11704 15.3395 6.50763 14.5942 6.50763C13.8488 6.50763 13.2394 7.11704 13.2394 7.86238C13.2394 8.60773 13.8488 9.21713 14.5942 9.21713ZM19.3194 9.21713C20.0648 9.21713 20.6742 8.60773 20.6742 7.86238C20.6742 7.11704 20.0648 6.50763 19.3194 6.50763C18.5741 6.50763 17.9647 7.11704 17.9647 7.86238C17.9647 8.60773 18.5741 9.21713 19.3194 9.21713ZM29.309 17.1488C28.5589 17.1488 27.9542 17.7535 27.9542 18.5036V64.5799C27.9542 65.33 28.5589 65.9347 29.309 65.9347C30.059 65.9347 30.6637 65.33 30.6637 64.5799V18.5036C30.6637 17.7535 30.059 17.1488 29.309 17.1488ZM21.7945 19.2723H9.87361C9.12358 19.2723 8.51886 19.8771 8.51886 20.6271C8.51886 21.3771 9.12359 21.9818 9.87361 21.9818H21.7945C22.5446 21.9818 23.1493 21.3771 23.1493 20.6271C23.1493 19.8771 22.5446 19.2723 21.7945 19.2723ZM21.7945 25.2492H9.87361C9.12358 25.2492 8.51886 25.854 8.51886 26.604C8.51886 27.354 9.12359 27.9587 9.87361 27.9587H21.7945C22.5446 27.9587 23.1493 27.354 23.1493 26.604C23.1493 25.854 22.5446 25.2492 21.7945 25.2492ZM21.7945 31.2261H9.87361C9.12358 31.2261 8.51886 31.8309 8.51886 32.5809C8.51886 33.3309 9.12359 33.9356 9.87361 33.9356H21.7945C22.5446 33.9356 23.1493 33.3309 23.1493 32.5809C23.1493 31.8309 22.5446 31.2261 21.7945 31.2261ZM21.7945 37.203H9.87361C9.12358 37.203 8.51886 37.8078 8.51886 38.5578C8.51886 39.3078 9.12359 39.9125 9.87361 39.9125H21.7945C22.5446 39.9125 23.1493 39.3078 23.1493 38.5578C23.1493 37.8078 22.5446 37.203 21.7945 37.203ZM21.7945 43.1846H9.87361C9.12358 43.1846 8.51886 43.7894 8.51886 44.5394C8.51886 45.2894 9.12359 45.8941 9.87361 45.8941H21.7945C22.5446 45.8941 23.1493 45.2894 23.1493 44.5394C23.1493 43.7894 22.5446 43.1846 21.7945 43.1846ZM21.7945 49.1615H9.87361C9.12358 49.1615 8.51886 49.7663 8.51886 50.5163C8.51886 51.2663 9.12359 51.871 9.87361 51.871H21.7945C22.5446 51.871 23.1493 51.2663 23.1493 50.5163C23.1493 49.7663 22.5446 49.1615 21.7945 49.1615ZM21.7945 55.1385H9.87361C9.12358 55.1385 8.51886 55.7432 8.51886 56.4932C8.51886 57.2432 9.12359 57.8479 9.87361 57.8479H21.7945C22.5446 57.8479 23.1493 57.2432 23.1493 56.4932C23.1493 55.7432 22.5446 55.1385 21.7945 55.1385ZM21.7945 61.1154H9.87361C9.12358 61.1154 8.51886 61.7201 8.51886 62.4701C8.51886 63.2201 9.12359 63.8249 9.87361 63.8249H21.7945C22.5446 63.8249 23.1493 63.2201 23.1493 62.4701C23.1493 61.7201 22.5446 61.1154 21.7945 61.1154ZM97 59.3575V64.5468C97 65.1843 96.5547 65.7375 95.9265 65.8735L93.4091 66.4126L92.6825 68.1657L94.0842 70.3268C94.4311 70.8612 94.3561 71.5691 93.9061 72.0191L90.2356 75.6897C89.7809 76.1444 89.0777 76.2147 88.5432 75.8678L86.3822 74.4661L84.6337 75.188L84.0946 77.7101C83.9633 78.3335 83.4102 78.7836 82.7679 78.7836H77.5786C76.9411 78.7836 76.3879 78.3382 76.252 77.7101L75.7129 75.188L73.9644 74.4661L71.8033 75.8678C71.2689 76.2147 70.561 76.1397 70.111 75.6897L66.4405 72.0191C66.1826 71.7613 66.0514 71.4238 66.0467 71.0769L6.05802 71.0628C3.26884 71.0628 1 68.794 1 66.0095V6.05802C1 3.26884 3.26884 1 6.05802 1H84.2396C87.0288 1 89.2976 3.26884 89.2976 6.05802V47.8166C89.6399 47.8212 89.9774 47.9525 90.2352 48.2103L93.9057 51.8808C94.3604 52.3356 94.4307 53.0387 94.0838 53.5732L92.6822 55.7342L93.4088 57.4874L95.9261 58.0265C96.5496 58.1577 96.9996 58.7109 96.9996 59.3532L97 59.3575ZM3.70962 6.05797V12.016H86.5883V6.05797C86.5883 4.76418 85.5335 3.70945 84.2397 3.70945H6.05814C4.76435 3.70945 3.70962 4.7642 3.70962 6.05797ZM6.05814 68.3532H67.5241L67.66 68.1469L66.9334 66.3937L64.4161 65.8546C63.7926 65.7234 63.3426 65.1702 63.3426 64.528V59.3387C63.3426 58.7011 63.7879 58.148 64.4161 58.012L66.9334 57.4729L67.66 55.7197L66.2537 53.5587C65.9068 53.0243 65.9771 52.3164 66.4318 51.8617L70.1023 48.1912C70.557 47.7364 71.2602 47.6661 71.7946 48.013L73.9557 49.4147L75.7042 48.6928L76.2433 46.1707C76.3746 45.5473 76.9277 45.0972 77.57 45.0972H82.7593C83.3968 45.0972 83.95 45.5426 84.086 46.1707L84.625 48.6928L86.3735 49.4147L86.5845 49.2787V14.711L3.70943 14.7203V66.0086C3.70943 67.3024 4.76437 68.3532 6.05814 68.3532ZM94.2903 60.4402L92.1479 59.9808C91.712 59.887 91.351 59.587 91.1776 59.1745L89.9025 56.1087C89.729 55.6962 89.7759 55.2274 90.015 54.8524L91.2057 53.0148L89.0869 50.896L87.2493 52.0867C86.8743 52.3304 86.4055 52.3726 85.993 52.2039L82.9272 50.9382C82.5147 50.7694 82.21 50.4038 82.1209 49.9678L81.6615 47.8208H78.666L78.2066 49.9678C78.1129 50.4038 77.8129 50.7647 77.4003 50.9382L74.3345 52.2039C73.922 52.3726 73.4532 52.3305 73.0782 52.0867L71.2406 50.896L69.1218 53.0148L70.3172 54.8524C70.5609 55.2274 70.6031 55.6962 70.4344 56.1087L69.164 59.1745C68.9952 59.587 68.6296 59.887 68.1936 59.9808L66.0513 60.4402V63.4357L68.1936 63.8951C68.6296 63.9888 68.9905 64.2888 69.164 64.7014L70.4344 67.7672C70.6078 68.1797 70.561 68.6485 70.3172 69.0235L69.1218 70.861L71.2406 72.9799L73.0782 71.7892C73.4532 71.5454 73.922 71.5032 74.3345 71.672L77.4003 72.9377C77.8128 73.1064 78.1176 73.4721 78.2066 73.9081L78.666 76.0551H81.6615L82.1209 73.9081C82.2146 73.4721 82.5147 73.1111 82.9272 72.9377L85.993 71.672C86.4055 71.5032 86.8743 71.5454 87.2493 71.7892L89.0869 72.9799L91.2057 70.861L90.015 69.0235C89.7712 68.6485 89.729 68.1797 89.9025 67.7672L91.1776 64.7014C91.3463 64.2888 91.712 63.9888 92.1479 63.8951L94.2903 63.4357V60.4402ZM88.1634 61.9403C88.1634 66.3468 84.5772 69.9329 80.1707 69.9329C75.7642 69.9329 72.178 66.3468 72.178 61.9403C72.178 57.5338 75.7642 53.9476 80.1707 53.9476C84.5772 53.9476 88.1634 57.5338 88.1634 61.9403ZM85.4538 61.9403C85.4538 59.0245 83.0818 56.6572 80.1708 56.6572C77.255 56.6572 74.8878 59.0293 74.8878 61.9403C74.8878 64.8561 77.2598 67.2233 80.1708 67.2233C83.0866 67.2233 85.4538 64.8513 85.4538 61.9403ZM73.3224 39.9167H43.9953C41.6515 39.9167 39.7435 38.0089 39.7435 35.6649V29.299C39.7435 26.9551 41.6514 25.0471 43.9953 25.0471H73.3224C75.6616 25.0471 77.5696 26.955 77.5696 29.299V35.6649C77.5696 38.0088 75.6664 39.9167 73.3224 39.9167ZM43.9953 37.2072H73.3224C74.1709 37.2072 74.8599 36.5182 74.8599 35.6649V29.299C74.8599 28.4458 74.1709 27.7566 73.3224 27.7566H43.9953C43.1609 27.7566 42.453 28.4645 42.453 29.299V35.6649C42.453 36.5181 43.1421 37.2072 43.9953 37.2072Z" stroke="#3C7CFF" stroke-width="1.2" mask="url(#path-1-outside-1_209_1701)"/>
</svg>
