<svg width="100" height="100" viewBox="0 0 100 100" fill="none" xmlns="http://www.w3.org/2000/svg">
<path d="M10.1796 100H89.8243C95.4356 100 100 95.5 100 89.9727C100 58.6864 100 23.1535 100 10.0273C100 4.5 95.4356 0 89.8243 0H10.1757C4.56438 0 0 4.5 0 10.0273C0 23.1553 0 58.6861 0 89.9727C0 95.5 4.56835 100 10.1796 100ZM95.9393 89.9727C95.9393 93.2969 93.1951 96 89.8243 96H10.1796C6.80488 96 4.06075 93.2969 4.06075 89.9727V20.3203H95.9393V89.9727ZM4.06075 10.0273C4.06075 6.70312 6.80488 4 10.1757 4H89.8243C93.1951 4 95.9393 6.70312 95.9393 10.0273V16.3203H4.06075V10.0273Z" fill="#3C7CFF"/>
<path d="M66.5384 8.16016H61.3038C60.1816 8.16016 59.2734 9.05469 59.2734 10.1602C59.2734 11.2656 60.1816 12.1602 61.3038 12.1602H66.5384C67.6606 12.1602 68.5688 11.2656 68.5688 10.1602C68.5688 9.05469 67.6606 8.16016 66.5384 8.16016Z" fill="#3C7CFF"/>
<path d="M77.6858 8.16016H72.4513C71.329 8.16016 70.4209 9.05469 70.4209 10.1602C70.4209 11.2656 71.329 12.1602 72.4513 12.1602H77.6858C78.8081 12.1602 79.7162 11.2656 79.7162 10.1602C79.7162 9.05469 78.8081 8.16016 77.6858 8.16016Z" fill="#3C7CFF"/>
<path d="M88.8368 8.16016H83.5982C82.476 8.16016 81.5679 9.05469 81.5679 10.1602C81.5679 11.2656 82.476 12.1602 83.5982 12.1602H88.8368C89.959 12.1602 90.8672 11.2656 90.8672 10.1602C90.8672 9.05469 89.959 8.16016 88.8368 8.16016Z" fill="#3C7CFF"/>
<path d="M15.6125 66.082H30.8483C32.4841 66.082 33.8586 65.2197 34.7221 63.9844H39.805C42.5135 75.929 53.0964 84.4648 65.7493 84.4648C80.4616 84.4648 92.4297 72.6523 92.4297 58.1367C92.4297 43.6445 80.4616 31.8555 65.7493 31.8555C53.2977 31.8555 42.4905 40.5898 39.8082 52.3359H34.7202C33.8564 51.1033 32.4828 50.2422 30.8483 50.2422H15.6125C11.179 50.2422 7.57031 53.793 7.57031 58.1602C7.57031 62.5273 11.179 66.082 15.6125 66.082ZM65.7493 35.8555C78.2211 35.8555 88.369 45.8516 88.369 58.1367C88.369 70.4492 78.2211 80.4648 65.7493 80.4648C54.5109 80.4648 45.1045 72.5625 43.3795 61.6172C43.1812 60.5742 43.086 59.4336 43.086 58.1367C43.086 56.8711 43.1812 55.7461 43.3914 54.6445C45.0847 43.9336 54.6973 35.8555 65.7493 35.8555ZM35.6506 56.3359H39.0848C39.0451 56.9141 39.0253 57.5117 39.0253 58.1367C39.0253 58.7812 39.0451 59.3945 39.0887 59.9844H35.6506V56.3359ZM15.6125 54.2422H30.8483C31.2488 54.2422 31.574 54.5625 31.574 54.9531V61.3672C31.574 61.7617 31.2488 62.082 30.8483 62.082H15.6125C13.4156 62.082 11.6311 60.3242 11.6311 58.1602C11.6311 56 13.4156 54.2422 15.6125 54.2422Z" fill="#3C7CFF"/>
<path d="M50.133 59.6483C48.5388 60.2538 47.6942 62.0233 48.2057 63.66C48.3921 64.2733 48.6261 64.8436 49.0187 65.7694C49.7721 67.2538 51.5051 67.9413 53.2222 67.371C53.932 67.0975 54.7687 67.289 55.3477 67.8593C55.9267 68.4179 56.1012 69.2733 55.8077 70.0038C55.1137 71.6366 55.7641 73.4686 57.3107 74.2577C57.9729 74.6015 58.6312 74.8788 59.2776 75.1093C60.8956 75.7421 62.7356 74.9921 63.4613 73.4218C64.1672 71.9335 66.6219 71.9413 67.2524 73.578C67.7719 74.8202 69.0091 75.578 70.29 75.578C70.635 75.578 70.984 75.5233 71.3211 75.41C72.0507 75.1874 72.7526 74.9335 73.3951 74.6366C74.9377 73.9413 75.6713 72.1874 75.0963 70.5311C74.8147 69.7655 74.9892 68.9452 75.5404 68.4022C76.1591 67.8124 77.0315 67.6483 77.8167 67.9608C79.4426 68.5858 81.2786 67.9491 82.0757 66.453C82.4088 65.828 82.6825 65.203 82.9957 64.4296C83.543 62.8202 82.7975 61.121 81.1914 60.3671C80.4657 60.0468 80.0136 59.3475 80.0136 58.5468C80.0136 57.7108 80.5371 56.9725 81.3659 56.6522C82.9878 56.0038 83.7968 54.2069 83.2297 52.6132C83.0076 51.9296 82.7538 51.246 82.4643 50.6561C81.7585 49.0624 79.8986 48.3358 78.2965 48.9491C77.5074 49.2186 76.6786 49.0546 76.1234 48.5077C75.5285 47.9061 75.3541 47.0546 75.6673 46.2968C76.3534 44.664 75.6991 42.8358 74.089 42.0155C73.4546 41.7147 72.8082 41.4218 72.1618 41.1874C70.528 40.5858 68.7434 41.3241 67.9741 42.9296C67.3039 44.3593 64.8215 44.3046 64.2029 42.785C63.5763 41.2069 61.8156 40.3905 60.1302 40.8983L60.0945 40.9061C59.4283 41.1171 58.7621 41.3866 58.0403 41.6913C56.4779 42.4296 55.7681 44.2108 56.3788 45.8085C56.6524 46.5468 56.47 47.3749 55.9108 47.9218C55.316 48.5077 54.4475 48.6718 53.6901 48.3905C52.0365 47.7108 50.1845 48.3475 49.2883 50.0429C49.0028 50.6366 48.7212 51.2343 48.5031 51.8202C47.8647 53.4374 48.6578 55.2538 50.2321 55.9218C50.9618 56.2616 51.4297 56.9882 51.4297 57.7616C51.4297 58.5975 50.9102 59.3515 50.133 59.6483ZM55.4905 57.7616C55.4905 55.6874 54.3762 53.746 52.552 52.6249C52.5996 52.5077 52.6551 52.3944 52.7066 52.2772C54.8718 52.8827 57.1957 52.3124 58.7779 50.7538C60.2928 49.2694 60.8916 47.0975 60.384 45.0585C60.503 45.0116 60.6219 44.9647 60.7449 44.9218C61.8116 46.8593 63.8499 48.0741 66.1222 48.0741C68.2874 48.0741 70.2781 46.9491 71.3568 45.1757C71.4757 45.2304 71.5947 45.2811 71.7137 45.3319C71.0792 47.4257 71.6462 49.7147 73.2364 51.3202C74.7354 52.7968 76.9403 53.3788 79.0262 52.8944C79.0738 53.0155 79.1174 53.1327 79.165 53.2538C77.1901 54.3046 75.9529 56.3085 75.9529 58.5468C75.9529 60.6835 77.1029 62.6483 78.9112 63.703C78.8596 63.8202 78.8041 63.9335 78.7526 64.0507C76.6389 63.4413 74.315 63.9882 72.6852 65.5585C71.1704 67.0507 70.5755 69.2421 71.0792 71.2616C70.9562 71.3085 70.8293 71.3554 70.7024 71.3983C69.6595 69.4804 67.5974 68.2343 65.3489 68.2343C63.1758 68.2343 61.2287 69.3241 60.1064 71.1366C59.9874 71.0858 59.8724 71.035 59.7535 70.9843C60.388 68.8515 59.805 66.5546 58.2029 65.0155C56.6564 63.4921 54.4198 62.914 52.4251 63.4218C52.3775 63.3046 52.3299 63.1874 52.2863 63.0663C54.2294 62.035 55.4905 59.9882 55.4905 57.7616Z" fill="#3C7CFF"/>
<path d="M65.7335 66.1211C70.1869 66.1211 73.8074 62.5547 73.8074 58.168C73.8074 53.7812 70.1869 50.2148 65.7335 50.2148C61.2841 50.2148 57.6636 53.7812 57.6636 58.168C57.6636 62.5547 61.2841 66.1211 65.7335 66.1211ZM65.7335 54.2148C67.9463 54.2148 69.7466 55.9883 69.7466 58.168C69.7466 60.3477 67.9463 62.1211 65.7335 62.1211C63.5247 62.1211 61.7243 60.3477 61.7243 58.168C61.7243 55.9883 63.5247 54.2148 65.7335 54.2148Z" fill="#3C7CFF"/>
</svg>
