<svg width="100" height="100" viewBox="0 0 100 100" fill="none" xmlns="http://www.w3.org/2000/svg">
<path d="M73.0647 60.7932L73.0647 60.7932L73.0633 60.7945C71.4609 62.3484 70.583 64.4158 70.583 66.6026V72.1529L68.7286 74.3551L68.7285 74.3551L68.7266 74.3574C68.4947 74.6398 68.3623 74.9901 68.3623 75.3703V77.2835C68.3623 78.1588 69.079 78.8574 69.9448 78.8574H74.8512C75.0821 81.0499 76.9282 82.7692 79.1822 82.7692C81.4362 82.7692 83.2823 81.0499 83.5131 78.8574H88.4196C89.2901 78.8574 90.0021 78.1582 90.0021 77.2835V75.3703C90.0021 75.003 89.8698 74.6449 89.6391 74.3591L89.6392 74.3591L89.6351 74.3542L87.764 72.1524V66.8889C87.764 63.3207 85.4874 60.2139 82.3189 58.9534V57.9888C82.3189 56.2533 80.9042 54.8434 79.1735 54.8434C77.438 54.8434 76.028 56.2581 76.028 57.9888V58.9418C74.9256 59.3591 73.9159 59.9797 73.0647 60.7932ZM78.7231 57.9775V57.9758C78.7231 57.721 78.9272 57.5169 79.1821 57.5169C79.4369 57.5169 79.641 57.721 79.641 57.9758V58.3458C79.5751 58.3406 79.506 58.3367 79.4349 58.3365C79.1972 58.3272 78.9536 58.3384 78.7206 58.3532L78.7231 57.9775ZM72.8819 73.5931L72.8827 73.5922C73.1369 73.2882 73.2783 72.9115 73.2783 72.5136V66.586C73.2783 65.1361 73.8724 63.7564 74.9406 62.7082C76.1174 61.5769 77.6916 60.9659 79.3621 61.0192L79.3636 61.0193C82.5205 61.1012 85.0776 63.7361 85.0776 66.8806V72.5222C85.0776 72.92 85.219 73.2967 85.4732 73.6007L85.4739 73.6016L87.3069 75.7738L87.3068 76.1585H71.0489V75.7653L72.8819 73.5931ZM79.1735 80.0704C78.4076 80.0704 77.7665 79.554 77.5639 78.8451H80.7778C80.5921 79.5529 79.9446 80.0704 79.1735 80.0704Z" fill="#3C7CFF" stroke="#3C7CFF" stroke-width="0.5"/>
<path d="M85.4755 57.5987L85.4756 57.5988C85.5421 57.2596 85.8722 57.0002 86.2355 57.0729L86.2437 57.0746L86.2518 57.0767C88.1496 57.5902 91.0427 59.5303 90.9633 63.9804L90.9632 63.9856L90.9632 63.9856C90.9494 64.3417 90.648 64.6308 90.2852 64.6099L90.2856 64.6099L90.2991 64.3603L90.2844 64.6099L85.4755 57.5987ZM85.4755 57.5987L85.4744 57.605M85.4755 57.5987L85.4744 57.605M85.4744 57.605L85.2355 59.0131M85.4744 57.605L85.2355 59.0131M85.2355 59.0131C85.1798 59.3237 85.3632 59.6285 85.6674 59.7218L85.2355 59.0131ZM88.8648 64.5331C88.8654 64.5332 88.8659 64.5332 88.8665 64.5332L88.8769 64.2834L88.8634 64.5331L88.8648 64.5331Z" fill="#3C7CFF" stroke="#3C7CFF" stroke-width="0.5"/>
<path d="M71.8288 57.0964L71.8288 57.0964L71.824 57.0977C69.9247 57.6026 67.0329 59.5516 67.1114 63.9999C67.113 64.3697 67.4385 64.6449 67.7855 64.6313L67.7855 64.6313L67.7892 64.6312L69.2113 64.5543L69.2113 64.5543L69.2131 64.5542C69.5626 64.5328 69.8096 64.239 69.798 63.9057C69.7822 62.368 70.2546 61.3918 70.8095 60.7713C71.3696 60.145 72.0317 59.8611 72.418 59.7437L72.4312 59.7397L72.4438 59.7343C72.7169 59.6172 72.9048 59.3279 72.8475 59.0118C72.8475 59.0116 72.8475 59.0115 72.8474 59.0114L72.596 57.6051C72.5374 57.2424 72.1775 57.0111 71.8288 57.0964Z" fill="#3C7CFF" stroke="#3C7CFF" stroke-width="0.5"/>
<path d="M51.2301 58.0009L51.2301 58.0009C51.5131 57.7685 52.0057 57.5099 52.762 57.5955M51.2301 58.0009L52.7341 57.8439M51.2301 58.0009L51.2272 58.0033C50.2061 58.8683 48.6288 60.5543 47.1639 62.1941C45.7529 63.7736 44.4343 65.3237 43.7941 66.0882H38.8587C38.3833 66.0882 37.998 66.4734 37.998 66.9489V80.299C37.998 80.7744 38.3833 81.1597 38.8587 81.1597H56.7011C58.4182 81.1597 59.8866 79.9475 60.226 78.2688L60.2261 78.2682L61.8661 70.0686C62.146 68.6691 61.5854 67.2135 60.3303 66.3704C59.7056 65.9449 58.9676 65.7593 58.2347 65.7593H54.1944M51.2301 58.0009L54.1944 65.7593M52.762 57.5955C52.762 57.5955 52.7621 57.5955 52.7622 57.5955L52.7341 57.8439M52.762 57.5955C52.7619 57.5955 52.7619 57.5955 52.7619 57.5955L52.7341 57.8439M52.762 57.5955C53.2807 57.6536 53.895 57.8806 54.4396 58.1735C54.9819 58.4652 55.4906 58.8414 55.7779 59.2221M52.7341 57.8439C53.6864 57.9506 55.0659 58.6937 55.5783 59.3727M55.7779 59.2221L55.7779 59.2221L55.5783 59.3727M55.7779 59.2221L55.78 59.2249C55.8655 59.3381 55.9854 59.4969 56.0532 59.7591C56.1202 60.018 56.132 60.3573 56.0507 60.8381C55.8963 61.7514 55.3954 63.2321 54.1944 65.7593M55.7779 59.2221L55.5783 59.3727M55.5783 59.3727L54.1944 65.7593M59.2202 69.5469L59.2201 69.5477L57.5885 77.7336C57.5884 77.7338 57.5884 77.734 57.5883 77.7342C57.5007 78.1645 57.1331 78.4644 56.6974 78.4644H45.7588V67.9156C46.879 66.5874 50.7003 62.0968 52.6671 60.3164C52.769 60.3504 52.8907 60.402 53.0182 60.4652C53.1381 60.5247 53.2558 60.5907 53.3576 60.6545C53.2451 61.0888 52.9867 61.7863 52.638 62.6219C52.2458 63.5617 51.7484 64.6555 51.242 65.7024C51.1636 65.8592 50.7939 66.5986 50.4792 67.2194C50.1836 67.794 50.6034 68.4586 51.2357 68.4586H58.3292C58.6057 68.4586 58.8617 68.5795 59.0306 68.7914C59.2045 69.0097 59.2732 69.2853 59.2202 69.5469ZM45.7588 78.7144H45.5088V78.4644L45.7588 78.7144ZM40.6762 78.4644V68.7746H43.0716V78.4644H40.6762Z" fill="#3C7CFF" stroke="#3C7CFF" stroke-width="0.5"/>
<path d="M33.7232 70.2677C33.732 64.6499 29.1483 60.0667 23.5226 60.0667H18.2441C12.6184 60.0667 8.04346 64.637 8.04346 70.2673C8.04346 75.893 12.6138 80.4679 18.2441 80.4679H23.5226C29.1482 80.4679 33.723 75.8978 33.7232 70.2677ZM33.7232 70.2677L33.4732 70.2673H33.7232C33.7232 70.2674 33.7232 70.2675 33.7232 70.2677ZM23.5226 77.7855H18.2441C14.0947 77.7855 10.73 74.4086 10.73 70.2714C10.73 66.1346 14.1072 62.7574 18.2441 62.7574H23.5226C27.672 62.7574 31.0366 66.1343 31.0366 70.2714C31.0366 74.4128 27.6721 77.7855 23.5226 77.7855Z" fill="#3C7CFF" stroke="#3C7CFF" stroke-width="0.5"/>
<path d="M25.8747 65.4095L19.7416 72.1794L16.3581 69.3903L16.3581 69.3903L16.3558 69.3884C16.0787 69.1653 15.6687 69.1941 15.4369 69.4812C15.4367 69.4814 15.4365 69.4817 15.4363 69.4819L14.562 70.5525L14.562 70.5525L14.5608 70.5539C14.3379 70.8309 14.3664 71.2406 14.6532 71.4725C14.6536 71.4728 14.654 71.4731 14.6544 71.4734L19.7473 75.657L19.7473 75.6571L19.7536 75.662C19.9108 75.7829 20.1346 75.7638 20.2661 75.6192L20.2665 75.6188L27.875 67.2118C28.1331 66.9368 28.0829 66.5269 27.8268 66.2904L27.8268 66.2904L27.8249 66.2887L26.7976 65.3594C26.5226 65.1014 26.1127 65.1516 25.8763 65.4077L25.8747 65.4095Z" fill="#3C7CFF" stroke="#3C7CFF" stroke-width="0.5"/>
<path d="M98.25 53.6034C98.25 50.5379 95.7791 48.0516 92.731 48.028L92.7293 48.0274H92.6861H81.7518V13.3054C81.7518 11.3527 80.1626 9.75427 78.2006 9.75427L18.1345 9.75C16.1817 9.75 14.5833 11.3392 14.5833 13.3012V48.0275H7.31271C4.24496 48.0275 1.75 50.5225 1.75 53.5902V85.5907C1.75 88.6584 4.24496 91.1534 7.31271 91.1534H92.6873C95.755 91.1534 98.25 88.6584 98.25 85.5907V53.6034ZM95.5487 85.6032V85.8532H95.551C95.4233 87.3233 94.181 88.4794 92.6857 88.4794H7.29795C5.71115 88.4794 4.42181 87.1824 4.42181 85.6032V53.6028C4.42181 52.0156 5.7106 50.7267 7.29795 50.7267H92.6725C94.2598 50.7267 95.5487 52.0155 95.5487 53.6028V85.6032ZM17.2688 13.3054C17.2688 12.8328 17.6608 12.4408 18.1334 12.4408L78.1995 12.4366C78.6721 12.4366 79.0641 12.8286 79.0641 13.3012V48.0275H17.2688V13.3054Z" fill="#3C7CFF" stroke="#3C7CFF" stroke-width="0.5"/>
<path d="M40.8195 44.556L40.8195 44.556L40.8235 44.5534L59.3372 32.4158L59.3383 32.4151C59.8815 32.0549 59.8786 31.2563 59.3398 30.8933L59.3399 30.8933L59.3371 30.8915L40.8237 18.7674C40.8237 18.7674 40.8236 18.7674 40.8236 18.7673C40.2242 18.3738 39.4072 18.796 39.4072 19.5358V43.7849C39.4072 44.5115 40.2085 44.94 40.8195 44.556ZM42.1067 22.8137L55.5962 31.6538L42.1067 40.4939V22.8137Z" fill="#3C7CFF" stroke="#3C7CFF" stroke-width="0.5"/>
</svg>
