<svg width="102" height="102" viewBox="0 0 102 102" fill="none" xmlns="http://www.w3.org/2000/svg">
<mask id="path-1-outside-1_179_1119" maskUnits="userSpaceOnUse" x="0" y="0" width="102" height="102" fill="black">
<rect fill="white" width="102" height="102"/>
<path d="M55.1209 101H46.8486C45.0476 101 43.5824 99.5958 43.3382 97.6728L42.5751 91.5067C41.0488 91.2015 39.5226 90.7741 38.0269 90.2857L34.3028 95.2613C33.1429 96.8181 31.1587 97.3065 29.602 96.3907L22.398 92.2393C20.8413 91.3541 20.2613 89.3699 21.0244 87.5995L23.4359 81.8913C22.2454 80.8535 21.1465 79.7241 20.0781 78.5336L14.37 80.9756C12.569 81.7387 10.6154 81.1587 9.73016 79.602L5.57875 72.4286C4.69353 70.8718 5.1514 68.8877 6.70818 67.7277L11.6532 64.0037C11.1648 62.5079 10.7375 60.9817 10.4322 59.4249L4.32723 58.6618C2.40415 58.4176 1 56.9524 1 55.1514V46.8791C1 45.0781 2.40415 43.6129 4.32723 43.3687L10.4933 42.6056C10.8291 41.0794 11.2259 39.5531 11.7143 38.0574L6.73871 34.3333C5.18193 33.1734 4.69353 31.1893 5.60928 29.6325L9.76068 22.4591C10.6459 20.9023 12.63 20.3223 14.4005 21.0855L20.1087 23.4969C21.1465 22.3065 22.2759 21.2076 23.4664 20.1392L21.0244 14.431C20.2613 12.63 20.8413 10.6764 22.398 9.79121L29.5714 5.63981C31.1282 4.75458 33.1123 5.21245 34.2723 6.76923L37.9963 11.7143C39.4921 11.2259 41.0183 10.7985 42.5751 10.4933L43.3382 4.32723C43.5824 2.40415 45.0476 1 46.8486 1H55.1209C56.9219 1 58.3871 2.40415 58.6313 4.32723L59.3944 10.4933C60.9206 10.8291 62.4469 11.2259 63.9426 11.7143L67.6972 6.76923C68.8571 5.21245 70.8413 4.72405 72.398 5.63981L79.5714 9.79121C81.1282 10.6764 81.7082 12.6606 80.945 14.431L78.5336 20.1392C79.7241 21.177 80.823 22.3065 81.8913 23.4969L87.5995 21.0549C89.4005 20.2918 91.3541 20.8718 92.2393 22.4286L96.3907 29.602C97.2759 31.1587 96.8181 33.1429 95.2613 34.3028L90.2857 38.0269C90.7741 39.5226 91.2015 41.0488 91.5067 42.6056L97.6728 43.3687C99.5958 43.6129 101 45.0781 101 46.8791V55.1514C101 56.9524 99.5958 58.4176 97.6728 58.6618L91.5067 59.4249C91.1709 60.9512 90.7741 62.4774 90.2857 63.9731L95.2613 67.6972C96.8181 68.8571 97.3065 70.8413 96.3907 72.398L92.2393 79.5714C91.3541 81.1282 89.37 81.7082 87.5995 80.945L81.8913 78.5336C80.8535 79.7241 79.7241 80.823 78.5336 81.8913L80.9756 87.5995C81.7387 89.4005 81.1587 91.3541 79.602 92.2393L72.4286 96.3907C70.8718 97.2759 68.8877 96.8181 67.7277 95.2613L64.0037 90.3162C62.5079 90.8046 60.9817 91.232 59.4249 91.5372L58.6618 97.7033C58.4176 99.5958 56.9219 101 55.1209 101ZM37.4774 86.9585C37.6606 86.9585 37.8132 86.989 37.9963 87.0501C40.011 87.7827 42.1172 88.3321 44.254 88.7289C44.9255 88.851 45.4139 89.3699 45.5055 90.0415L46.3907 97.3065C46.4212 97.5812 46.5739 97.978 46.8791 97.978H55.1514C55.4566 97.978 55.6093 97.5812 55.6398 97.3065L56.525 90.0415C56.6166 89.3699 57.105 88.851 57.7766 88.7289C59.9133 88.3626 62.0195 87.7827 64.0342 87.0501C64.6752 86.8364 65.3773 87.0195 65.7741 87.569L70.1697 93.3993C70.3223 93.6129 70.6581 93.8877 70.9328 93.735L78.1062 89.5836C78.3504 89.431 78.2894 89.0037 78.1978 88.7595L75.3284 82.044C75.0537 81.4334 75.2369 80.7008 75.7558 80.2735C77.4041 78.8693 78.9609 77.3431 80.3345 75.6947C80.7619 75.1758 81.4945 75.0232 82.105 75.2674L88.8205 78.1367C89.0647 78.2283 89.4921 78.2894 89.6447 78.0452L93.7961 70.8718C93.9487 70.6276 93.674 70.2918 93.4603 70.1392L87.5385 65.7436C86.989 65.3468 86.8059 64.6447 87.0195 64.0037C87.7521 61.989 88.3016 59.8828 88.6984 57.746C88.8205 57.0745 89.3394 56.5861 90.011 56.4945L97.2759 55.6093C97.5507 55.5788 97.9475 55.4261 97.9475 55.1209V46.8486C97.9475 46.5433 97.5507 46.3907 97.2759 46.3602L90.011 45.475C89.3394 45.3834 88.8205 44.895 88.6984 44.2234C88.3321 42.0867 87.7521 39.9805 87.0195 37.9658C86.8059 37.3248 86.989 36.6227 87.5385 36.2259L93.3687 31.8303C93.5824 31.6777 93.8571 31.3419 93.7045 31.0672L89.5531 23.8938C89.4005 23.6496 88.9731 23.7106 88.7289 23.8022L82.0134 26.6715C81.4029 26.9463 80.6703 26.7631 80.243 26.2442C78.8693 24.5958 77.3126 23.0696 75.6642 21.6654C75.1453 21.2381 74.9927 20.5055 75.2369 19.895L78.1062 13.1795C78.1978 12.9353 78.2588 12.5079 78.0146 12.3553L70.8413 8.20391C70.5971 8.05128 70.2613 8.32601 70.0781 8.53968L65.6825 14.4005C65.2857 14.9499 64.5836 15.1331 63.9426 14.9194C61.928 14.1868 59.8217 13.6374 57.685 13.2405C57.0134 13.1184 56.525 12.5995 56.4335 11.928L55.5482 4.66301C55.5177 4.38828 55.3651 3.99145 55.0598 3.99145H46.7875C46.4823 3.99145 46.3297 4.38828 46.2991 4.66301L45.4139 11.928C45.3223 12.5995 44.8339 13.1184 44.1624 13.2405C42.0256 13.6068 39.9499 14.1868 37.9048 14.9194C37.2637 15.1331 36.5617 14.9499 36.1648 14.4005L31.8608 8.60073C31.7082 8.38706 31.3724 8.11233 31.1282 8.26496L23.9548 12.4164C23.7106 12.569 23.7717 12.9963 23.8632 13.2405L26.7326 19.956C27.0073 20.5665 26.8242 21.2991 26.3052 21.7265C24.6569 23.1306 23.1001 24.6569 21.7265 26.3053C21.2991 26.8242 20.5665 26.9768 19.956 26.7326L13.2405 23.8632C12.9963 23.7717 12.569 23.7106 12.4164 23.9548L8.26496 31.1282C8.11233 31.3724 8.38706 31.7082 8.60073 31.8608L14.4615 36.2564C15.011 36.6532 15.1941 37.3553 14.9805 37.9963C14.2479 40.011 13.6984 42.1172 13.3016 44.254C13.1795 44.9255 12.6606 45.4139 11.989 45.5055L4.72405 46.3907C4.44933 46.4212 4.0525 46.5739 4.0525 46.8791V55.1514C4.0525 55.4566 4.44933 55.6093 4.72405 55.6398L11.989 56.525C12.6606 56.6166 13.1795 57.105 13.3016 57.7766C13.6679 59.9133 14.2479 62.0195 14.9805 64.0342C15.1941 64.6752 15.011 65.3773 14.4615 65.7741L8.63126 70.1697C8.41758 70.3223 8.14286 70.6581 8.29548 70.9023L12.4469 78.0757C12.5995 78.3199 13.0269 78.2588 13.2711 78.1673L19.9866 75.2979C20.5971 75.0232 21.3297 75.2063 21.757 75.7253C23.1612 77.3736 24.6874 78.9304 26.3358 80.304C26.8547 80.7314 27.0073 81.464 26.7631 82.0745L23.8938 88.79C23.8022 89.0342 23.7411 89.4615 23.9853 89.6142L31.1587 93.7656C31.4029 93.9182 31.7387 93.6435 31.8913 93.4298L36.2869 87.569C36.5311 87.1722 36.989 86.9585 37.4774 86.9585Z"/>
</mask>
<path d="M55.1209 101H46.8486C45.0476 101 43.5824 99.5958 43.3382 97.6728L42.5751 91.5067C41.0488 91.2015 39.5226 90.7741 38.0269 90.2857L34.3028 95.2613C33.1429 96.8181 31.1587 97.3065 29.602 96.3907L22.398 92.2393C20.8413 91.3541 20.2613 89.3699 21.0244 87.5995L23.4359 81.8913C22.2454 80.8535 21.1465 79.7241 20.0781 78.5336L14.37 80.9756C12.569 81.7387 10.6154 81.1587 9.73016 79.602L5.57875 72.4286C4.69353 70.8718 5.1514 68.8877 6.70818 67.7277L11.6532 64.0037C11.1648 62.5079 10.7375 60.9817 10.4322 59.4249L4.32723 58.6618C2.40415 58.4176 1 56.9524 1 55.1514V46.8791C1 45.0781 2.40415 43.6129 4.32723 43.3687L10.4933 42.6056C10.8291 41.0794 11.2259 39.5531 11.7143 38.0574L6.73871 34.3333C5.18193 33.1734 4.69353 31.1893 5.60928 29.6325L9.76068 22.4591C10.6459 20.9023 12.63 20.3223 14.4005 21.0855L20.1087 23.4969C21.1465 22.3065 22.2759 21.2076 23.4664 20.1392L21.0244 14.431C20.2613 12.63 20.8413 10.6764 22.398 9.79121L29.5714 5.63981C31.1282 4.75458 33.1123 5.21245 34.2723 6.76923L37.9963 11.7143C39.4921 11.2259 41.0183 10.7985 42.5751 10.4933L43.3382 4.32723C43.5824 2.40415 45.0476 1 46.8486 1H55.1209C56.9219 1 58.3871 2.40415 58.6313 4.32723L59.3944 10.4933C60.9206 10.8291 62.4469 11.2259 63.9426 11.7143L67.6972 6.76923C68.8571 5.21245 70.8413 4.72405 72.398 5.63981L79.5714 9.79121C81.1282 10.6764 81.7082 12.6606 80.945 14.431L78.5336 20.1392C79.7241 21.177 80.823 22.3065 81.8913 23.4969L87.5995 21.0549C89.4005 20.2918 91.3541 20.8718 92.2393 22.4286L96.3907 29.602C97.2759 31.1587 96.8181 33.1429 95.2613 34.3028L90.2857 38.0269C90.7741 39.5226 91.2015 41.0488 91.5067 42.6056L97.6728 43.3687C99.5958 43.6129 101 45.0781 101 46.8791V55.1514C101 56.9524 99.5958 58.4176 97.6728 58.6618L91.5067 59.4249C91.1709 60.9512 90.7741 62.4774 90.2857 63.9731L95.2613 67.6972C96.8181 68.8571 97.3065 70.8413 96.3907 72.398L92.2393 79.5714C91.3541 81.1282 89.37 81.7082 87.5995 80.945L81.8913 78.5336C80.8535 79.7241 79.7241 80.823 78.5336 81.8913L80.9756 87.5995C81.7387 89.4005 81.1587 91.3541 79.602 92.2393L72.4286 96.3907C70.8718 97.2759 68.8877 96.8181 67.7277 95.2613L64.0037 90.3162C62.5079 90.8046 60.9817 91.232 59.4249 91.5372L58.6618 97.7033C58.4176 99.5958 56.9219 101 55.1209 101ZM37.4774 86.9585C37.6606 86.9585 37.8132 86.989 37.9963 87.0501C40.011 87.7827 42.1172 88.3321 44.254 88.7289C44.9255 88.851 45.4139 89.3699 45.5055 90.0415L46.3907 97.3065C46.4212 97.5812 46.5739 97.978 46.8791 97.978H55.1514C55.4566 97.978 55.6093 97.5812 55.6398 97.3065L56.525 90.0415C56.6166 89.3699 57.105 88.851 57.7766 88.7289C59.9133 88.3626 62.0195 87.7827 64.0342 87.0501C64.6752 86.8364 65.3773 87.0195 65.7741 87.569L70.1697 93.3993C70.3223 93.6129 70.6581 93.8877 70.9328 93.735L78.1062 89.5836C78.3504 89.431 78.2894 89.0037 78.1978 88.7595L75.3284 82.044C75.0537 81.4334 75.2369 80.7008 75.7558 80.2735C77.4041 78.8693 78.9609 77.3431 80.3345 75.6947C80.7619 75.1758 81.4945 75.0232 82.105 75.2674L88.8205 78.1367C89.0647 78.2283 89.4921 78.2894 89.6447 78.0452L93.7961 70.8718C93.9487 70.6276 93.674 70.2918 93.4603 70.1392L87.5385 65.7436C86.989 65.3468 86.8059 64.6447 87.0195 64.0037C87.7521 61.989 88.3016 59.8828 88.6984 57.746C88.8205 57.0745 89.3394 56.5861 90.011 56.4945L97.2759 55.6093C97.5507 55.5788 97.9475 55.4261 97.9475 55.1209V46.8486C97.9475 46.5433 97.5507 46.3907 97.2759 46.3602L90.011 45.475C89.3394 45.3834 88.8205 44.895 88.6984 44.2234C88.3321 42.0867 87.7521 39.9805 87.0195 37.9658C86.8059 37.3248 86.989 36.6227 87.5385 36.2259L93.3687 31.8303C93.5824 31.6777 93.8571 31.3419 93.7045 31.0672L89.5531 23.8938C89.4005 23.6496 88.9731 23.7106 88.7289 23.8022L82.0134 26.6715C81.4029 26.9463 80.6703 26.7631 80.243 26.2442C78.8693 24.5958 77.3126 23.0696 75.6642 21.6654C75.1453 21.2381 74.9927 20.5055 75.2369 19.895L78.1062 13.1795C78.1978 12.9353 78.2588 12.5079 78.0146 12.3553L70.8413 8.20391C70.5971 8.05128 70.2613 8.32601 70.0781 8.53968L65.6825 14.4005C65.2857 14.9499 64.5836 15.1331 63.9426 14.9194C61.928 14.1868 59.8217 13.6374 57.685 13.2405C57.0134 13.1184 56.525 12.5995 56.4335 11.928L55.5482 4.66301C55.5177 4.38828 55.3651 3.99145 55.0598 3.99145H46.7875C46.4823 3.99145 46.3297 4.38828 46.2991 4.66301L45.4139 11.928C45.3223 12.5995 44.8339 13.1184 44.1624 13.2405C42.0256 13.6068 39.9499 14.1868 37.9048 14.9194C37.2637 15.1331 36.5617 14.9499 36.1648 14.4005L31.8608 8.60073C31.7082 8.38706 31.3724 8.11233 31.1282 8.26496L23.9548 12.4164C23.7106 12.569 23.7717 12.9963 23.8632 13.2405L26.7326 19.956C27.0073 20.5665 26.8242 21.2991 26.3052 21.7265C24.6569 23.1306 23.1001 24.6569 21.7265 26.3053C21.2991 26.8242 20.5665 26.9768 19.956 26.7326L13.2405 23.8632C12.9963 23.7717 12.569 23.7106 12.4164 23.9548L8.26496 31.1282C8.11233 31.3724 8.38706 31.7082 8.60073 31.8608L14.4615 36.2564C15.011 36.6532 15.1941 37.3553 14.9805 37.9963C14.2479 40.011 13.6984 42.1172 13.3016 44.254C13.1795 44.9255 12.6606 45.4139 11.989 45.5055L4.72405 46.3907C4.44933 46.4212 4.0525 46.5739 4.0525 46.8791V55.1514C4.0525 55.4566 4.44933 55.6093 4.72405 55.6398L11.989 56.525C12.6606 56.6166 13.1795 57.105 13.3016 57.7766C13.6679 59.9133 14.2479 62.0195 14.9805 64.0342C15.1941 64.6752 15.011 65.3773 14.4615 65.7741L8.63126 70.1697C8.41758 70.3223 8.14286 70.6581 8.29548 70.9023L12.4469 78.0757C12.5995 78.3199 13.0269 78.2588 13.2711 78.1673L19.9866 75.2979C20.5971 75.0232 21.3297 75.2063 21.757 75.7253C23.1612 77.3736 24.6874 78.9304 26.3358 80.304C26.8547 80.7314 27.0073 81.464 26.7631 82.0745L23.8938 88.79C23.8022 89.0342 23.7411 89.4615 23.9853 89.6142L31.1587 93.7656C31.4029 93.9182 31.7387 93.6435 31.8913 93.4298L36.2869 87.569C36.5311 87.1722 36.989 86.9585 37.4774 86.9585Z" fill="#3C7CFF"/>
<path d="M55.1209 101H46.8486C45.0476 101 43.5824 99.5958 43.3382 97.6728L42.5751 91.5067C41.0488 91.2015 39.5226 90.7741 38.0269 90.2857L34.3028 95.2613C33.1429 96.8181 31.1587 97.3065 29.602 96.3907L22.398 92.2393C20.8413 91.3541 20.2613 89.3699 21.0244 87.5995L23.4359 81.8913C22.2454 80.8535 21.1465 79.7241 20.0781 78.5336L14.37 80.9756C12.569 81.7387 10.6154 81.1587 9.73016 79.602L5.57875 72.4286C4.69353 70.8718 5.1514 68.8877 6.70818 67.7277L11.6532 64.0037C11.1648 62.5079 10.7375 60.9817 10.4322 59.4249L4.32723 58.6618C2.40415 58.4176 1 56.9524 1 55.1514V46.8791C1 45.0781 2.40415 43.6129 4.32723 43.3687L10.4933 42.6056C10.8291 41.0794 11.2259 39.5531 11.7143 38.0574L6.73871 34.3333C5.18193 33.1734 4.69353 31.1893 5.60928 29.6325L9.76068 22.4591C10.6459 20.9023 12.63 20.3223 14.4005 21.0855L20.1087 23.4969C21.1465 22.3065 22.2759 21.2076 23.4664 20.1392L21.0244 14.431C20.2613 12.63 20.8413 10.6764 22.398 9.79121L29.5714 5.63981C31.1282 4.75458 33.1123 5.21245 34.2723 6.76923L37.9963 11.7143C39.4921 11.2259 41.0183 10.7985 42.5751 10.4933L43.3382 4.32723C43.5824 2.40415 45.0476 1 46.8486 1H55.1209C56.9219 1 58.3871 2.40415 58.6313 4.32723L59.3944 10.4933C60.9206 10.8291 62.4469 11.2259 63.9426 11.7143L67.6972 6.76923C68.8571 5.21245 70.8413 4.72405 72.398 5.63981L79.5714 9.79121C81.1282 10.6764 81.7082 12.6606 80.945 14.431L78.5336 20.1392C79.7241 21.177 80.823 22.3065 81.8913 23.4969L87.5995 21.0549C89.4005 20.2918 91.3541 20.8718 92.2393 22.4286L96.3907 29.602C97.2759 31.1587 96.8181 33.1429 95.2613 34.3028L90.2857 38.0269C90.7741 39.5226 91.2015 41.0488 91.5067 42.6056L97.6728 43.3687C99.5958 43.6129 101 45.0781 101 46.8791V55.1514C101 56.9524 99.5958 58.4176 97.6728 58.6618L91.5067 59.4249C91.1709 60.9512 90.7741 62.4774 90.2857 63.9731L95.2613 67.6972C96.8181 68.8571 97.3065 70.8413 96.3907 72.398L92.2393 79.5714C91.3541 81.1282 89.37 81.7082 87.5995 80.945L81.8913 78.5336C80.8535 79.7241 79.7241 80.823 78.5336 81.8913L80.9756 87.5995C81.7387 89.4005 81.1587 91.3541 79.602 92.2393L72.4286 96.3907C70.8718 97.2759 68.8877 96.8181 67.7277 95.2613L64.0037 90.3162C62.5079 90.8046 60.9817 91.232 59.4249 91.5372L58.6618 97.7033C58.4176 99.5958 56.9219 101 55.1209 101ZM37.4774 86.9585C37.6606 86.9585 37.8132 86.989 37.9963 87.0501C40.011 87.7827 42.1172 88.3321 44.254 88.7289C44.9255 88.851 45.4139 89.3699 45.5055 90.0415L46.3907 97.3065C46.4212 97.5812 46.5739 97.978 46.8791 97.978H55.1514C55.4566 97.978 55.6093 97.5812 55.6398 97.3065L56.525 90.0415C56.6166 89.3699 57.105 88.851 57.7766 88.7289C59.9133 88.3626 62.0195 87.7827 64.0342 87.0501C64.6752 86.8364 65.3773 87.0195 65.7741 87.569L70.1697 93.3993C70.3223 93.6129 70.6581 93.8877 70.9328 93.735L78.1062 89.5836C78.3504 89.431 78.2894 89.0037 78.1978 88.7595L75.3284 82.044C75.0537 81.4334 75.2369 80.7008 75.7558 80.2735C77.4041 78.8693 78.9609 77.3431 80.3345 75.6947C80.7619 75.1758 81.4945 75.0232 82.105 75.2674L88.8205 78.1367C89.0647 78.2283 89.4921 78.2894 89.6447 78.0452L93.7961 70.8718C93.9487 70.6276 93.674 70.2918 93.4603 70.1392L87.5385 65.7436C86.989 65.3468 86.8059 64.6447 87.0195 64.0037C87.7521 61.989 88.3016 59.8828 88.6984 57.746C88.8205 57.0745 89.3394 56.5861 90.011 56.4945L97.2759 55.6093C97.5507 55.5788 97.9475 55.4261 97.9475 55.1209V46.8486C97.9475 46.5433 97.5507 46.3907 97.2759 46.3602L90.011 45.475C89.3394 45.3834 88.8205 44.895 88.6984 44.2234C88.3321 42.0867 87.7521 39.9805 87.0195 37.9658C86.8059 37.3248 86.989 36.6227 87.5385 36.2259L93.3687 31.8303C93.5824 31.6777 93.8571 31.3419 93.7045 31.0672L89.5531 23.8938C89.4005 23.6496 88.9731 23.7106 88.7289 23.8022L82.0134 26.6715C81.4029 26.9463 80.6703 26.7631 80.243 26.2442C78.8693 24.5958 77.3126 23.0696 75.6642 21.6654C75.1453 21.2381 74.9927 20.5055 75.2369 19.895L78.1062 13.1795C78.1978 12.9353 78.2588 12.5079 78.0146 12.3553L70.8413 8.20391C70.5971 8.05128 70.2613 8.32601 70.0781 8.53968L65.6825 14.4005C65.2857 14.9499 64.5836 15.1331 63.9426 14.9194C61.928 14.1868 59.8217 13.6374 57.685 13.2405C57.0134 13.1184 56.525 12.5995 56.4335 11.928L55.5482 4.66301C55.5177 4.38828 55.3651 3.99145 55.0598 3.99145H46.7875C46.4823 3.99145 46.3297 4.38828 46.2991 4.66301L45.4139 11.928C45.3223 12.5995 44.8339 13.1184 44.1624 13.2405C42.0256 13.6068 39.9499 14.1868 37.9048 14.9194C37.2637 15.1331 36.5617 14.9499 36.1648 14.4005L31.8608 8.60073C31.7082 8.38706 31.3724 8.11233 31.1282 8.26496L23.9548 12.4164C23.7106 12.569 23.7717 12.9963 23.8632 13.2405L26.7326 19.956C27.0073 20.5665 26.8242 21.2991 26.3052 21.7265C24.6569 23.1306 23.1001 24.6569 21.7265 26.3053C21.2991 26.8242 20.5665 26.9768 19.956 26.7326L13.2405 23.8632C12.9963 23.7717 12.569 23.7106 12.4164 23.9548L8.26496 31.1282C8.11233 31.3724 8.38706 31.7082 8.60073 31.8608L14.4615 36.2564C15.011 36.6532 15.1941 37.3553 14.9805 37.9963C14.2479 40.011 13.6984 42.1172 13.3016 44.254C13.1795 44.9255 12.6606 45.4139 11.989 45.5055L4.72405 46.3907C4.44933 46.4212 4.0525 46.5739 4.0525 46.8791V55.1514C4.0525 55.4566 4.44933 55.6093 4.72405 55.6398L11.989 56.525C12.6606 56.6166 13.1795 57.105 13.3016 57.7766C13.6679 59.9133 14.2479 62.0195 14.9805 64.0342C15.1941 64.6752 15.011 65.3773 14.4615 65.7741L8.63126 70.1697C8.41758 70.3223 8.14286 70.6581 8.29548 70.9023L12.4469 78.0757C12.5995 78.3199 13.0269 78.2588 13.2711 78.1673L19.9866 75.2979C20.5971 75.0232 21.3297 75.2063 21.757 75.7253C23.1612 77.3736 24.6874 78.9304 26.3358 80.304C26.8547 80.7314 27.0073 81.464 26.7631 82.0745L23.8938 88.79C23.8022 89.0342 23.7411 89.4615 23.9853 89.6142L31.1587 93.7656C31.4029 93.9182 31.7387 93.6435 31.8913 93.4298L36.2869 87.569C36.5311 87.1722 36.989 86.9585 37.4774 86.9585Z" stroke="#3C7CFF" stroke-width="0.6" mask="url(#path-1-outside-1_179_1119)"/>
<path d="M56.094 84.48L56.0997 84.4846L56.1058 84.4887C56.4001 84.6849 56.7644 84.8192 57.1353 84.8192C57.1639 84.8192 57.1918 84.8169 57.2134 84.8151L57.2166 84.8148C57.2406 84.8129 57.2586 84.8115 57.2765 84.8115C57.308 84.8115 57.3375 84.8158 57.3734 84.8338L57.4188 84.8565L57.4687 84.847C67.2492 82.9768 75.7416 76.9368 80.7693 68.2609L80.7694 68.2607C85.7661 59.6161 86.7476 49.2856 83.5299 39.9049C83.3933 39.4317 83.024 39.0643 82.5905 38.896C82.148 38.6936 81.6456 38.7311 81.2177 38.9285L81.2145 38.9301L69.4635 44.6988C69.4634 44.6988 69.4633 44.6989 69.4631 44.699C68.6231 45.1025 68.2903 46.109 68.6911 46.9441C69.0945 47.7844 70.1012 48.1174 70.9365 47.7165L70.9376 47.7159L80.9102 42.8197C83.1244 50.7901 82.0463 59.3457 77.8541 66.5842L77.8539 66.5844C73.6618 73.8528 66.745 79.0552 58.7084 81.1215L58.0176 70.0078L58.0175 70.0065C57.9508 69.0721 57.1491 68.3657 56.2394 68.4328C55.3067 68.4995 54.5988 69.2689 54.6657 70.2104C54.6657 70.2106 54.6657 70.2108 54.6658 70.211L55.4593 83.2741L55.4594 83.2757C55.493 83.7463 55.728 84.1805 56.094 84.48ZM18.5325 39.7164L18.532 39.7177C15.282 49.1 16.294 59.4626 21.291 68.1384C26.2866 76.8117 34.7752 82.8813 44.5216 84.7537C44.633 84.7887 44.7416 84.7887 44.8262 84.7886H44.8337C45.1976 84.7886 45.5668 84.6889 45.9015 84.4221C46.2761 84.1482 46.5069 83.6788 46.5401 83.2146L46.5402 83.2131L47.3337 70.1499C47.3338 70.1497 47.3338 70.1494 47.3338 70.1492C47.4006 69.2078 46.6927 68.4384 45.7601 68.3718C44.8184 68.3045 44.0486 69.0126 43.982 69.9454L43.9819 69.9468L43.2911 81.0297C35.285 78.963 28.3683 73.7308 24.1761 66.4623C19.9838 59.1937 18.9058 50.6081 21.1195 42.6377L31.0588 47.5922C31.0591 47.5924 31.0595 47.5926 31.0598 47.5928C31.8964 48.027 32.9034 47.6931 33.3073 46.8547C33.741 46.0179 33.4064 45.011 32.5674 44.6076C32.5671 44.6075 32.5668 44.6073 32.5665 44.6072L20.8489 38.7789C20.4089 38.5429 19.9057 38.5453 19.4746 38.7111L19.4745 38.7108L19.4656 38.7149C19.036 38.9132 18.7 39.2473 18.5325 39.7164ZM36.2641 38.182L36.2645 38.1822C36.5604 38.3795 36.8636 38.4822 37.2024 38.4822C37.7387 38.4822 38.2771 38.2145 38.5812 37.7096C39.0805 36.9411 38.8818 35.9032 38.1095 35.3988C38.1092 35.3986 38.1089 35.3984 38.1086 35.3982L28.889 29.2118C34.7105 23.3078 42.6755 19.984 51.0303 19.984H51.0305H51.0306H51.0308H51.031H51.0312H51.0313H51.0315H51.0317H51.0319H51.032H51.0322H51.0324H51.0325H51.0327H51.0329H51.033H51.0332H51.0334H51.0335H51.0337H51.0339H51.034H51.0342H51.0344H51.0345H51.0347H51.0349H51.035H51.0352H51.0353H51.0355H51.0356H51.0358H51.036H51.0361H51.0363H51.0364H51.0366H51.0367H51.0369H51.037H51.0372H51.0373H51.0375H51.0376H51.0378H51.0379H51.0381H51.0382H51.0384H51.0385H51.0387H51.0388H51.0389H51.0391H51.0392H51.0394H51.0395H51.0397H51.0398H51.0399H51.0401H51.0402H51.0403H51.0405H51.0406H51.0408H51.0409H51.041H51.0412H51.0413H51.0414H51.0416H51.0417H51.0418H51.042H51.0421H51.0422H51.0423H51.0425H51.0426H51.0427H51.0428H51.043H51.0431H51.0432H51.0433H51.0435H51.0436H51.0437H51.0438H51.0439H51.0441H51.0442H51.0443H51.0444H51.0445H51.0447H51.0448H51.0449H51.045H51.0451H51.0452H51.0454H51.0455H51.0456H51.0457H51.0458H51.0459H51.046H51.0461H51.0462H51.0464H51.0465H51.0466H51.0467H51.0468H51.0469H51.047H51.0471H51.0472H51.0473H51.0474H51.0475H51.0476H51.0477H51.0478H51.0479H51.048H51.0481H51.0482H51.0483H51.0484H51.0485H51.0486H51.0487H51.0488H51.0489H51.049H51.0491H51.0492H51.0493H51.0494H51.0495H51.0496H51.0496H51.0497H51.0498H51.0499H51.05H51.0501H51.0502H51.0503H51.0504H51.0504H51.0505H51.0506H51.0507H51.0508H51.0509H51.051H51.051H51.0511H51.0512H51.0513H51.0514H51.0515H51.0515H51.0516H51.0517H51.0518H51.0519H51.0519H51.052H51.0521H51.0522H51.0522H51.0523H51.0524H51.0525H51.0526H51.0526H51.0527H51.0528H51.0528H51.0529H51.053H51.0531H51.0531H51.0532H51.0533H51.0533H51.0534H51.0535H51.0536H51.0536H51.0537H51.0538H51.0538H51.0539H51.054H51.054H51.0541H51.0542H51.0542H51.0543H51.0543H51.0544H51.0545H51.0545H51.0546H51.0547H51.0547H51.0548H51.0548H51.0549H51.055H51.055H51.0551H51.0551H51.0552H51.0553H51.0553H51.0554H51.0554H51.0555H51.0555H51.0556H51.0556H51.0557H51.0558H51.0558H51.0559H51.0559H51.056H51.056H51.0561H51.0561H51.0562H51.0562H51.0563H51.0563H51.0564H51.0564H51.0565H51.0565H51.0566H51.0566H51.0567H51.0567H51.0568H51.0568H51.0568H51.0569H51.0569H51.057H51.057H51.0571H51.0571H51.0572H51.0572H51.0572H51.0573H51.0573H51.0574H51.0574H51.0575H51.0575H51.0575H51.0576H51.0576H51.0577H51.0577H51.0577H51.0578H51.0578H51.0578H51.0579H51.0579H51.058H51.058H51.058H51.0581H51.0581H51.0581H51.0582H51.0582H51.0582H51.0583H51.0583H51.0583H51.0584H51.0584H51.0584H51.0585H51.0585H51.0585H51.0586H51.0586H51.0586H51.0587H51.0587H51.0587H51.0588H51.0588H51.0589H51.0589H51.059H51.059H51.0591H51.0591H51.0592H51.0592H51.0593H51.0593H51.0594H51.0594H51.0595H51.0595H51.0596H51.0596H51.0596H51.0597H51.0597H51.0598H51.0598H51.0598H51.0599H51.0599H51.0599H51.06H51.06H51.06H51.0601H51.0601H51.0601H51.0602H51.0602H51.0603H51.0603H51.0603H51.0604H51.0604H51.0604H51.0605H51.0605H51.0605H51.0606H51.0606H51.0606H51.0606H51.0607H51.0607H51.0607H51.0608C59.3845 19.984 67.319 23.3373 73.1106 29.2118L63.8909 35.3982C63.8906 35.3984 63.8903 35.3986 63.89 35.3988C63.1169 35.9037 62.9185 36.9433 63.4199 37.712C63.9246 38.4859 64.9646 38.6846 65.7337 38.1831L65.7354 38.182L76.6019 30.8868C77.0044 30.6184 77.2717 30.1836 77.3387 29.7148C77.4068 29.2379 77.2358 28.7696 76.94 28.4081L76.9401 28.4081L76.9369 28.4045C70.4067 20.9238 60.9944 16.6315 51.0608 16.6315H51.0606H51.0604H51.0603H51.0601H51.0599H51.0597H51.0596H51.0594H51.0592H51.059H51.0589H51.0587H51.0585H51.0584H51.0582H51.058H51.0579H51.0577H51.0575H51.0574H51.0572H51.057H51.0569H51.0567H51.0565H51.0564H51.0562H51.0561H51.0559H51.0557H51.0556H51.0554H51.0553H51.0551H51.055H51.0548H51.0546H51.0545H51.0543H51.0542H51.054H51.0539H51.0537H51.0536H51.0534H51.0533H51.0531H51.053H51.0528H51.0527H51.0526H51.0524H51.0523H51.0521H51.052H51.0518H51.0517H51.0516H51.0514H51.0513H51.0511H51.051H51.0509H51.0507H51.0506H51.0504H51.0503H51.0502H51.05H51.0499H51.0498H51.0496H51.0495H51.0494H51.0493H51.0491H51.049H51.0489H51.0487H51.0486H51.0485H51.0484H51.0482H51.0481H51.048H51.0479H51.0477H51.0476H51.0475H51.0474H51.0472H51.0471H51.047H51.0469H51.0468H51.0466H51.0465H51.0464H51.0463H51.0462H51.0461H51.0459H51.0458H51.0457H51.0456H51.0455H51.0454H51.0453H51.0452H51.045H51.0449H51.0448H51.0447H51.0446H51.0445H51.0444H51.0443H51.0442H51.0441H51.044H51.0439H51.0438H51.0437H51.0436H51.0435H51.0434H51.0433H51.0432H51.0431H51.0429H51.0429H51.0428H51.0427H51.0426H51.0425H51.0424H51.0423H51.0422H51.0421H51.042H51.0419H51.0418H51.0417H51.0416H51.0415H51.0414H51.0413H51.0412H51.0412H51.0411H51.041H51.0409H51.0408H51.0407H51.0406H51.0405H51.0404H51.0404H51.0403H51.0402H51.0401H51.04H51.0399H51.0399H51.0398H51.0397H51.0396H51.0395H51.0395H51.0394H51.0393H51.0392H51.0391H51.0391H51.039H51.0389H51.0388H51.0387H51.0387H51.0386H51.0385H51.0384H51.0384H51.0383H51.0382H51.0382H51.0381H51.038H51.0379H51.0379H51.0378H51.0377H51.0377H51.0376H51.0375H51.0374H51.0374H51.0373H51.0372H51.0372H51.0371H51.037H51.037H51.0369H51.0369H51.0368H51.0367H51.0367H51.0366H51.0365H51.0365H51.0364H51.0364H51.0363H51.0362H51.0362H51.0361H51.0361H51.036H51.0359H51.0359H51.0358H51.0358H51.0357H51.0356H51.0356H51.0355H51.0355H51.0354H51.0354H51.0353H51.0353H51.0352H51.0352H51.0351H51.0351H51.035H51.035H51.0349H51.0349H51.0348H51.0347H51.0347H51.0347H51.0346H51.0346H51.0345H51.0345H51.0344H51.0344H51.0343H51.0343H51.0342H51.0342H51.0341H51.0341H51.034H51.034H51.034H51.0339H51.0339H51.0338H51.0338H51.0337H51.0337H51.0337H51.0336H51.0336H51.0335H51.0335H51.0335H51.0334H51.0334H51.0333H51.0333H51.0333H51.0332H51.0332H51.0331H51.0331H51.0331H51.033H51.033H51.033H51.0329H51.0329H51.0329H51.0328H51.0328H51.0328H51.0327H51.0327H51.0327H51.0326H51.0326H51.0326H51.0325H51.0325H51.0325H51.0324H51.0324H51.0324H51.0323H51.0323H51.0323H51.0322H51.0321H51.0321H51.032H51.032H51.0319H51.0319H51.0318H51.0318H51.0317H51.0317H51.0316H51.0316H51.0316H51.0315H51.0315H51.0314H51.0314H51.0314H51.0313H51.0313H51.0312H51.0312H51.0312H51.0311H51.0311H51.0311H51.031H51.031H51.031H51.0309H51.0309H51.0309H51.0308H51.0308H51.0308H51.0307H51.0307H51.0307H51.0306H51.0306H51.0306H51.0305H51.0305H51.0305H51.0304H51.0304H51.0304H51.0303H51.0303C41.0376 16.6315 31.5961 20.9222 25.0658 28.4007C24.7248 28.7445 24.5944 29.2501 24.6608 29.7148C24.7277 30.1835 24.995 30.6183 25.3974 30.8866C25.3975 30.8867 25.3976 30.8867 25.3976 30.8868L36.2641 38.182Z" fill="#3C7CFF" stroke="#3C7CFF" stroke-width="0.3"/>
<path d="M61.7278 69.6284L61.728 69.6283C71.9954 63.7261 75.5303 50.5695 69.5975 40.3024C63.6951 30.0349 50.5386 26.5312 40.272 32.4329C30.0047 38.3351 26.4697 51.4916 32.4024 61.7587C36.3681 68.645 43.5924 72.4871 51.0305 72.4871C54.658 72.4871 58.3468 71.5648 61.7278 69.6284ZM35.318 60.0521L35.3179 60.0519C30.3228 51.4242 33.2896 40.3134 41.9479 35.3181C44.7941 33.6831 47.9123 32.8961 50.9695 32.8961C57.2369 32.8961 63.3218 36.1357 66.6821 41.9482L66.6822 41.9483C71.6772 50.5761 68.7104 61.6869 60.052 66.6821L60.0518 66.6823C51.424 71.6773 40.3132 68.7105 35.318 60.0521Z" fill="#3C7CFF" stroke="#3C7CFF" stroke-width="0.3"/>
<path d="M53.8725 56.5088L53.8723 56.5089C53.2379 56.776 52.8343 57.3791 52.8343 58.0513V70.5055C52.8343 71.443 53.573 72.1817 54.5105 72.1817C55.4219 72.1817 56.1789 71.4109 56.2775 70.4909L56.2783 70.483V70.475V59.0873C59.7308 57.2167 61.8949 53.5885 61.8949 49.5958C61.8949 45.2013 59.295 41.2694 55.2392 39.5976L55.2392 39.5976L55.2378 39.597C54.7385 39.3973 54.1342 39.4283 53.6602 39.7668C53.1951 40.099 52.9258 40.6015 52.9258 41.1709V47.1259H49.2576V41.1709C49.2576 40.6074 48.9928 40.0701 48.5202 39.7647C48.0467 39.4281 47.4439 39.3977 46.9457 39.597L46.9456 39.597L46.9433 39.5979C42.889 41.3001 40.2885 45.2007 40.2885 49.5958C40.2885 53.5885 42.4527 57.2167 45.9051 59.0873V70.475C45.9051 71.4125 46.6438 72.1512 47.5813 72.1512C48.5189 72.1512 49.2576 71.4125 49.2576 70.475V58.0513C49.2576 57.3791 48.8539 56.776 48.2195 56.5089L48.2188 56.5086C45.4053 55.3413 43.6105 52.6486 43.6105 49.6264C43.6105 47.5573 44.442 45.6243 45.8746 44.2575V47.7338C45.8746 49.2513 47.1017 50.4784 48.6192 50.4784H53.4727C54.9902 50.4784 56.2173 49.2513 56.2173 47.7338V44.2617C57.6253 45.6294 58.4814 47.5611 58.4814 49.6264C58.4814 52.6478 56.6567 55.3412 53.8725 56.5088Z" fill="#3C7CFF" stroke="#3C7CFF" stroke-width="0.3"/>
</svg>
