<svg width="100" height="101" viewBox="0 0 100 101" fill="none" xmlns="http://www.w3.org/2000/svg">
<mask id="path-1-outside-1_179_1127" maskUnits="userSpaceOnUse" x="1" y="8" width="98" height="84" fill="black">
<rect fill="white" x="1" y="8" width="98" height="84"/>
<path d="M17.5343 36.1715C17.5343 35.3381 18.2048 34.6676 19.0381 34.6676H29.0536C29.887 34.6676 30.5575 35.3381 30.5575 36.1715C30.5575 37.0049 29.887 37.6754 29.0536 37.6754H19.0381C18.2048 37.6754 17.5343 37.0049 17.5343 36.1715ZM29.046 61.8202H19.0383C18.205 61.8202 17.5345 62.4907 17.5345 63.324C17.5345 64.1574 18.2049 64.8279 19.0383 64.8279H29.0538C29.8872 64.8279 30.5577 64.1574 30.5577 63.324C30.5577 62.4907 29.8794 61.8202 29.046 61.8202ZM35.5123 48.2438H19.0383C18.205 48.2438 17.5345 48.9143 17.5345 49.7477C17.5345 50.5811 18.2049 51.2516 19.0383 51.2516H35.5123C36.3456 51.2516 37.0161 50.5811 37.0161 49.7477C37.0161 48.9143 36.3381 48.2438 35.5123 48.2438ZM59.3882 48.7969C59.3882 49.6302 60.0587 50.3007 60.8921 50.3007C61.7255 50.3007 62.396 49.6302 62.396 48.7969C62.396 45.1906 59.4565 42.2511 55.8502 42.2511H55.0547C53.0964 42.2511 51.5053 40.6602 51.5053 38.7017V25.4851L53.4069 27.3867C53.9902 27.97 54.9372 27.97 55.532 27.3867C56.1153 26.8033 56.1153 25.8563 55.532 25.2616L51.0696 20.7992C50.4862 20.2159 49.5393 20.2159 48.9445 20.7992L44.4822 25.2616C43.8988 25.8449 43.8988 26.7919 44.4822 27.3867C44.7738 27.6783 45.1602 27.8223 45.539 27.8223C45.9254 27.8223 46.3042 27.6783 46.5958 27.3867L48.4974 25.4851V38.7133C48.4974 42.3196 51.4368 45.2591 55.0431 45.2591H55.8386C57.797 45.2591 59.3882 46.846 59.3882 48.7969ZM96.8221 33.4061L71.2792 58.9491V85.3066C71.2792 88.6439 68.5631 91.3675 65.2183 91.3675H8.06087C4.72361 91.3675 2 88.6514 2 85.3066V77.3365C2 75.0485 3.86374 73.1772 6.15931 73.1772H8.64049L8.64427 14.3033C8.64427 11.3827 11.0194 9 13.9476 9H65.9722C68.8928 9 71.2755 11.3751 71.2755 14.3033V42.4558L88.564 25.1673C90.1361 23.5953 92.6968 23.5953 94.265 25.1673L96.8257 27.728C97.5833 28.4856 98 29.5008 98 30.5804C98.0038 31.6334 97.5873 32.6409 96.8221 33.4061ZM59.9798 88.371C59.457 87.477 59.154 86.4315 59.154 85.3178L59.1578 77.3364C59.1578 76.6962 58.635 76.1811 57.9949 76.1811H6.15936C5.51917 76.1811 5.00401 76.6962 5.00401 77.3364V85.3178C5.00401 87.0035 6.37153 88.371 8.05714 88.371H59.9798ZM68.2718 61.9572L67.7566 62.4724C67.5635 62.6656 67.3097 62.8133 67.0407 62.8701L59.0024 64.7793C58.885 64.8097 58.7714 64.8172 58.6539 64.8172C58.2562 64.8172 57.8774 64.6619 57.5971 64.3816C57.2297 64.0142 57.0744 63.48 57.1994 62.9762L59.1086 54.9266C59.1768 54.6539 59.3131 54.4115 59.5063 54.2107L68.2719 45.4451V14.3039C68.2719 13.0349 67.2453 12.0045 65.9726 12.0045H13.948C12.679 12.0045 11.6486 13.0311 11.6486 14.3039V73.1855H57.9915C60.2909 73.1855 62.1508 75.0492 62.1508 77.3448V85.3263C62.1508 87.012 63.5183 88.3794 65.2039 88.3794C66.8895 88.3794 68.2571 87.0119 68.2571 85.3263L68.2609 61.9575L68.2718 61.9572ZM60.6806 61.2981L63.7337 60.5708L61.4079 58.2449L60.6806 61.2981ZM90.5757 35.407L86.5718 31.403L70.8892 47.0818C70.8513 47.1197 70.8134 47.1576 70.7717 47.1992L62.6843 55.2867L66.6882 59.2906L90.5757 35.407ZM94.9964 30.5583C94.9964 30.2856 94.8903 30.0242 94.6971 29.831L92.1365 27.2703C91.9433 27.0771 91.6895 26.971 91.4091 26.971C91.1288 26.971 90.875 27.0771 90.6818 27.2703L88.6855 29.2666L92.6895 33.2706L94.6971 31.2629C94.8903 31.0887 94.9964 30.8272 94.9964 30.5583ZM49.6155 56.7296C49.0321 56.1463 48.0851 56.1463 47.4904 56.7296L45.782 58.438L44.0736 56.7296C43.4903 56.1463 42.5433 56.1463 41.9485 56.7296C41.3652 57.313 41.3652 58.26 41.9485 58.8547L43.6569 60.5631L41.9485 62.2715C41.3652 62.8549 41.3652 63.8018 41.9485 64.3966C42.2402 64.6883 42.6266 64.8322 43.0053 64.8322C43.3841 64.8322 43.7705 64.6883 44.0622 64.3966L45.7706 62.6882L47.479 64.3966C47.7706 64.6883 48.157 64.8322 48.5358 64.8322C48.9145 64.8322 49.301 64.6883 49.5926 64.3966C50.176 63.8132 50.176 62.8662 49.5926 62.2715L47.8842 60.5631L49.5926 58.8547C50.2063 58.2714 50.2064 57.3206 49.6155 56.7296ZM35.5126 21.0917H19.0386C18.2053 21.0917 17.5347 21.7622 17.5347 22.5956C17.5347 23.429 18.2052 24.0994 19.0386 24.0994H35.5126C36.3459 24.0994 37.0164 23.429 37.0164 22.5956C37.0089 21.7698 36.3384 21.0917 35.5126 21.0917Z"/>
</mask>
<path d="M17.5343 36.1715C17.5343 35.3381 18.2048 34.6676 19.0381 34.6676H29.0536C29.887 34.6676 30.5575 35.3381 30.5575 36.1715C30.5575 37.0049 29.887 37.6754 29.0536 37.6754H19.0381C18.2048 37.6754 17.5343 37.0049 17.5343 36.1715ZM29.046 61.8202H19.0383C18.205 61.8202 17.5345 62.4907 17.5345 63.324C17.5345 64.1574 18.2049 64.8279 19.0383 64.8279H29.0538C29.8872 64.8279 30.5577 64.1574 30.5577 63.324C30.5577 62.4907 29.8794 61.8202 29.046 61.8202ZM35.5123 48.2438H19.0383C18.205 48.2438 17.5345 48.9143 17.5345 49.7477C17.5345 50.5811 18.2049 51.2516 19.0383 51.2516H35.5123C36.3456 51.2516 37.0161 50.5811 37.0161 49.7477C37.0161 48.9143 36.3381 48.2438 35.5123 48.2438ZM59.3882 48.7969C59.3882 49.6302 60.0587 50.3007 60.8921 50.3007C61.7255 50.3007 62.396 49.6302 62.396 48.7969C62.396 45.1906 59.4565 42.2511 55.8502 42.2511H55.0547C53.0964 42.2511 51.5053 40.6602 51.5053 38.7017V25.4851L53.4069 27.3867C53.9902 27.97 54.9372 27.97 55.532 27.3867C56.1153 26.8033 56.1153 25.8563 55.532 25.2616L51.0696 20.7992C50.4862 20.2159 49.5393 20.2159 48.9445 20.7992L44.4822 25.2616C43.8988 25.8449 43.8988 26.7919 44.4822 27.3867C44.7738 27.6783 45.1602 27.8223 45.539 27.8223C45.9254 27.8223 46.3042 27.6783 46.5958 27.3867L48.4974 25.4851V38.7133C48.4974 42.3196 51.4368 45.2591 55.0431 45.2591H55.8386C57.797 45.2591 59.3882 46.846 59.3882 48.7969ZM96.8221 33.4061L71.2792 58.9491V85.3066C71.2792 88.6439 68.5631 91.3675 65.2183 91.3675H8.06087C4.72361 91.3675 2 88.6514 2 85.3066V77.3365C2 75.0485 3.86374 73.1772 6.15931 73.1772H8.64049L8.64427 14.3033C8.64427 11.3827 11.0194 9 13.9476 9H65.9722C68.8928 9 71.2755 11.3751 71.2755 14.3033V42.4558L88.564 25.1673C90.1361 23.5953 92.6968 23.5953 94.265 25.1673L96.8257 27.728C97.5833 28.4856 98 29.5008 98 30.5804C98.0038 31.6334 97.5873 32.6409 96.8221 33.4061ZM59.9798 88.371C59.457 87.477 59.154 86.4315 59.154 85.3178L59.1578 77.3364C59.1578 76.6962 58.635 76.1811 57.9949 76.1811H6.15936C5.51917 76.1811 5.00401 76.6962 5.00401 77.3364V85.3178C5.00401 87.0035 6.37153 88.371 8.05714 88.371H59.9798ZM68.2718 61.9572L67.7566 62.4724C67.5635 62.6656 67.3097 62.8133 67.0407 62.8701L59.0024 64.7793C58.885 64.8097 58.7714 64.8172 58.6539 64.8172C58.2562 64.8172 57.8774 64.6619 57.5971 64.3816C57.2297 64.0142 57.0744 63.48 57.1994 62.9762L59.1086 54.9266C59.1768 54.6539 59.3131 54.4115 59.5063 54.2107L68.2719 45.4451V14.3039C68.2719 13.0349 67.2453 12.0045 65.9726 12.0045H13.948C12.679 12.0045 11.6486 13.0311 11.6486 14.3039V73.1855H57.9915C60.2909 73.1855 62.1508 75.0492 62.1508 77.3448V85.3263C62.1508 87.012 63.5183 88.3794 65.2039 88.3794C66.8895 88.3794 68.2571 87.0119 68.2571 85.3263L68.2609 61.9575L68.2718 61.9572ZM60.6806 61.2981L63.7337 60.5708L61.4079 58.2449L60.6806 61.2981ZM90.5757 35.407L86.5718 31.403L70.8892 47.0818C70.8513 47.1197 70.8134 47.1576 70.7717 47.1992L62.6843 55.2867L66.6882 59.2906L90.5757 35.407ZM94.9964 30.5583C94.9964 30.2856 94.8903 30.0242 94.6971 29.831L92.1365 27.2703C91.9433 27.0771 91.6895 26.971 91.4091 26.971C91.1288 26.971 90.875 27.0771 90.6818 27.2703L88.6855 29.2666L92.6895 33.2706L94.6971 31.2629C94.8903 31.0887 94.9964 30.8272 94.9964 30.5583ZM49.6155 56.7296C49.0321 56.1463 48.0851 56.1463 47.4904 56.7296L45.782 58.438L44.0736 56.7296C43.4903 56.1463 42.5433 56.1463 41.9485 56.7296C41.3652 57.313 41.3652 58.26 41.9485 58.8547L43.6569 60.5631L41.9485 62.2715C41.3652 62.8549 41.3652 63.8018 41.9485 64.3966C42.2402 64.6883 42.6266 64.8322 43.0053 64.8322C43.3841 64.8322 43.7705 64.6883 44.0622 64.3966L45.7706 62.6882L47.479 64.3966C47.7706 64.6883 48.157 64.8322 48.5358 64.8322C48.9145 64.8322 49.301 64.6883 49.5926 64.3966C50.176 63.8132 50.176 62.8662 49.5926 62.2715L47.8842 60.5631L49.5926 58.8547C50.2063 58.2714 50.2064 57.3206 49.6155 56.7296ZM35.5126 21.0917H19.0386C18.2053 21.0917 17.5347 21.7622 17.5347 22.5956C17.5347 23.429 18.2052 24.0994 19.0386 24.0994H35.5126C36.3459 24.0994 37.0164 23.429 37.0164 22.5956C37.0089 21.7698 36.3384 21.0917 35.5126 21.0917Z" fill="#3C7CFF"/>
<path d="M17.5343 36.1715C17.5343 35.3381 18.2048 34.6676 19.0381 34.6676H29.0536C29.887 34.6676 30.5575 35.3381 30.5575 36.1715C30.5575 37.0049 29.887 37.6754 29.0536 37.6754H19.0381C18.2048 37.6754 17.5343 37.0049 17.5343 36.1715ZM29.046 61.8202H19.0383C18.205 61.8202 17.5345 62.4907 17.5345 63.324C17.5345 64.1574 18.2049 64.8279 19.0383 64.8279H29.0538C29.8872 64.8279 30.5577 64.1574 30.5577 63.324C30.5577 62.4907 29.8794 61.8202 29.046 61.8202ZM35.5123 48.2438H19.0383C18.205 48.2438 17.5345 48.9143 17.5345 49.7477C17.5345 50.5811 18.2049 51.2516 19.0383 51.2516H35.5123C36.3456 51.2516 37.0161 50.5811 37.0161 49.7477C37.0161 48.9143 36.3381 48.2438 35.5123 48.2438ZM59.3882 48.7969C59.3882 49.6302 60.0587 50.3007 60.8921 50.3007C61.7255 50.3007 62.396 49.6302 62.396 48.7969C62.396 45.1906 59.4565 42.2511 55.8502 42.2511H55.0547C53.0964 42.2511 51.5053 40.6602 51.5053 38.7017V25.4851L53.4069 27.3867C53.9902 27.97 54.9372 27.97 55.532 27.3867C56.1153 26.8033 56.1153 25.8563 55.532 25.2616L51.0696 20.7992C50.4862 20.2159 49.5393 20.2159 48.9445 20.7992L44.4822 25.2616C43.8988 25.8449 43.8988 26.7919 44.4822 27.3867C44.7738 27.6783 45.1602 27.8223 45.539 27.8223C45.9254 27.8223 46.3042 27.6783 46.5958 27.3867L48.4974 25.4851V38.7133C48.4974 42.3196 51.4368 45.2591 55.0431 45.2591H55.8386C57.797 45.2591 59.3882 46.846 59.3882 48.7969ZM96.8221 33.4061L71.2792 58.9491V85.3066C71.2792 88.6439 68.5631 91.3675 65.2183 91.3675H8.06087C4.72361 91.3675 2 88.6514 2 85.3066V77.3365C2 75.0485 3.86374 73.1772 6.15931 73.1772H8.64049L8.64427 14.3033C8.64427 11.3827 11.0194 9 13.9476 9H65.9722C68.8928 9 71.2755 11.3751 71.2755 14.3033V42.4558L88.564 25.1673C90.1361 23.5953 92.6968 23.5953 94.265 25.1673L96.8257 27.728C97.5833 28.4856 98 29.5008 98 30.5804C98.0038 31.6334 97.5873 32.6409 96.8221 33.4061ZM59.9798 88.371C59.457 87.477 59.154 86.4315 59.154 85.3178L59.1578 77.3364C59.1578 76.6962 58.635 76.1811 57.9949 76.1811H6.15936C5.51917 76.1811 5.00401 76.6962 5.00401 77.3364V85.3178C5.00401 87.0035 6.37153 88.371 8.05714 88.371H59.9798ZM68.2718 61.9572L67.7566 62.4724C67.5635 62.6656 67.3097 62.8133 67.0407 62.8701L59.0024 64.7793C58.885 64.8097 58.7714 64.8172 58.6539 64.8172C58.2562 64.8172 57.8774 64.6619 57.5971 64.3816C57.2297 64.0142 57.0744 63.48 57.1994 62.9762L59.1086 54.9266C59.1768 54.6539 59.3131 54.4115 59.5063 54.2107L68.2719 45.4451V14.3039C68.2719 13.0349 67.2453 12.0045 65.9726 12.0045H13.948C12.679 12.0045 11.6486 13.0311 11.6486 14.3039V73.1855H57.9915C60.2909 73.1855 62.1508 75.0492 62.1508 77.3448V85.3263C62.1508 87.012 63.5183 88.3794 65.2039 88.3794C66.8895 88.3794 68.2571 87.0119 68.2571 85.3263L68.2609 61.9575L68.2718 61.9572ZM60.6806 61.2981L63.7337 60.5708L61.4079 58.2449L60.6806 61.2981ZM90.5757 35.407L86.5718 31.403L70.8892 47.0818C70.8513 47.1197 70.8134 47.1576 70.7717 47.1992L62.6843 55.2867L66.6882 59.2906L90.5757 35.407ZM94.9964 30.5583C94.9964 30.2856 94.8903 30.0242 94.6971 29.831L92.1365 27.2703C91.9433 27.0771 91.6895 26.971 91.4091 26.971C91.1288 26.971 90.875 27.0771 90.6818 27.2703L88.6855 29.2666L92.6895 33.2706L94.6971 31.2629C94.8903 31.0887 94.9964 30.8272 94.9964 30.5583ZM49.6155 56.7296C49.0321 56.1463 48.0851 56.1463 47.4904 56.7296L45.782 58.438L44.0736 56.7296C43.4903 56.1463 42.5433 56.1463 41.9485 56.7296C41.3652 57.313 41.3652 58.26 41.9485 58.8547L43.6569 60.5631L41.9485 62.2715C41.3652 62.8549 41.3652 63.8018 41.9485 64.3966C42.2402 64.6883 42.6266 64.8322 43.0053 64.8322C43.3841 64.8322 43.7705 64.6883 44.0622 64.3966L45.7706 62.6882L47.479 64.3966C47.7706 64.6883 48.157 64.8322 48.5358 64.8322C48.9145 64.8322 49.301 64.6883 49.5926 64.3966C50.176 63.8132 50.176 62.8662 49.5926 62.2715L47.8842 60.5631L49.5926 58.8547C50.2063 58.2714 50.2064 57.3206 49.6155 56.7296ZM35.5126 21.0917H19.0386C18.2053 21.0917 17.5347 21.7622 17.5347 22.5956C17.5347 23.429 18.2052 24.0994 19.0386 24.0994H35.5126C36.3459 24.0994 37.0164 23.429 37.0164 22.5956C37.0089 21.7698 36.3384 21.0917 35.5126 21.0917Z" stroke="#3C7CFF" mask="url(#path-1-outside-1_179_1127)"/>
</svg>
