<svg width="100" height="100" viewBox="0 0 100 100" fill="none" xmlns="http://www.w3.org/2000/svg">
<path d="M93.5494 85.2098H5.54142C3.03198 85.2098 1 83.1668 1 80.6684V17.2329C1 14.7235 3.04308 12.6915 5.54142 12.6915H26.1388L25.9389 14.5347C25.9278 14.6236 25.9389 14.7568 26.0278 14.9012L27.871 17.7437C28.8925 19.3093 29.0036 21.3191 28.1597 22.9736C27.6267 24.0284 27.1714 25.1277 26.7939 26.2603C26.2165 28.0258 24.7175 29.3582 22.8965 29.7468L19.5876 30.4575C19.3322 30.513 19.1435 30.7462 19.1435 31.0015V36.4979C19.1435 36.7644 19.3322 36.9864 19.5876 37.042L22.8965 37.7526C24.7286 38.1412 26.2165 39.4848 26.7939 41.2392C27.1603 42.3606 27.6267 43.471 28.1597 44.5259C29.0036 46.1914 28.8925 48.1901 27.871 49.7557L26.0278 52.5983C25.8834 52.8203 25.9167 53.1201 26.1055 53.2978L29.9918 57.1841C30.1805 57.3729 30.4692 57.4062 30.6913 57.2618L33.5339 55.4186C35.0995 54.3971 37.1093 54.286 38.7637 55.1299C39.8186 55.6629 40.9178 56.1181 42.0504 56.4957C43.8159 57.0731 45.1483 58.572 45.537 60.3931L46.2476 63.702C46.3031 63.9574 46.5363 64.1461 46.7917 64.1461H52.288C52.5545 64.1461 52.7766 63.9574 52.8321 63.702L53.5428 60.3931C53.9314 58.5609 55.2749 57.0731 57.0293 56.4957C58.1508 56.1292 59.2612 55.6629 60.316 55.1299C61.9705 54.286 63.9802 54.3971 65.5459 55.4186L68.3884 57.2618C68.6105 57.4062 68.9103 57.3729 69.0879 57.1841L72.9742 53.2978C73.163 53.109 73.1963 52.8203 73.052 52.5983L71.2087 49.7557C70.1872 48.1901 70.0762 46.1803 70.9201 44.5259C71.453 43.471 71.9083 42.3606 72.2747 41.2392C72.8521 39.4737 74.3511 38.1412 76.1721 37.7526L79.481 37.042C79.7364 36.9864 79.9252 36.7533 79.9252 36.4979V31.0015C79.9252 30.7351 79.7364 30.5019 79.481 30.4575L76.1721 29.7468C74.3511 29.3582 72.8521 28.0258 72.2636 26.2603C71.8972 25.1277 71.4308 24.0284 70.8979 22.9736C70.054 21.308 70.165 19.3093 71.1865 17.7437L73.0298 14.9012C73.1186 14.7679 73.1297 14.6236 73.1186 14.5347L72.9187 12.6915H93.5161C96.0255 12.6915 98.0575 14.7346 98.0575 17.2329V80.6795C98.1019 83.1779 96.0589 85.2098 93.5494 85.2098ZM5.54142 16.0115C4.87519 16.0115 4.33111 16.5556 4.33111 17.2218V80.6684C4.33111 81.3347 4.87519 81.8787 5.54142 81.8787H93.5494C94.2156 81.8787 94.7597 81.3347 94.7597 80.6684V17.2329C94.7597 16.5667 94.2156 16.0226 93.5494 16.0226H76.2054C76.1166 16.2558 75.9945 16.489 75.8501 16.7111L74.0069 19.5536C73.6294 20.131 73.596 20.8639 73.8959 21.4746C74.5066 22.6738 75.0284 23.9396 75.4504 25.2165C75.6613 25.8605 76.2165 26.3491 76.8828 26.4934L80.1917 27.193C81.9794 27.5705 83.2785 29.1694 83.2785 31.0015V36.4979C83.2785 38.33 81.9794 39.9289 80.1917 40.3065L76.8828 41.0171C76.2054 41.1614 75.6613 41.65 75.4504 42.294C75.0284 43.5709 74.5066 44.8368 73.8959 46.036C73.5849 46.6467 73.6294 47.3795 74.0069 47.9569L75.8612 50.7772C76.8494 52.3096 76.6385 54.3526 75.3504 55.6518L71.4641 59.5381C70.1761 60.8261 68.1219 61.0482 66.5896 60.0488L63.7471 58.2056C63.1697 57.8281 62.4368 57.7837 61.8261 58.0946C60.6269 58.7053 59.3611 59.2272 58.0842 59.6491C57.4402 59.8601 56.9516 60.4042 56.8072 61.0815L56.1077 64.3904C55.7302 66.1781 54.1312 67.4772 52.2991 67.4772H46.8028C44.9818 67.4772 43.3718 66.1781 42.9942 64.3904L42.2947 61.0815C42.1503 60.4042 41.6618 59.8601 41.0178 59.6491C39.7297 59.2272 38.475 58.7053 37.2758 58.0946C36.6651 57.7837 35.9323 57.8281 35.3549 58.2056L32.5123 60.0488C30.98 61.0371 28.9369 60.8261 27.6378 59.5381L23.7515 55.6518C22.4635 54.3637 22.2414 52.3096 23.2407 50.7772L25.0839 47.9347C25.4615 47.3573 25.4948 46.6245 25.195 46.0138C24.5843 44.8035 24.0624 43.5487 23.6405 42.2718C23.4295 41.6278 22.8854 41.1392 22.2081 41.006L18.8992 40.2953C17.1115 39.9178 15.8123 38.3189 15.8123 36.4868V30.9904C15.8123 29.1694 17.1115 27.5594 18.8992 27.1819L22.2081 26.4823C22.8854 26.338 23.4295 25.8494 23.6405 25.2054C24.0624 23.9174 24.5843 22.6627 25.195 21.4635C25.5059 20.8528 25.4615 20.1199 25.0839 19.5425L23.2296 16.7C23.0853 16.4779 22.9742 16.2558 22.8743 16.0115H5.54142Z" fill="#3C7CFF"/>
<path d="M59.8716 100H39.2188V81.8788H59.8716V100ZM42.5499 96.6689H56.5405V85.2099H42.5499V96.6689Z" fill="#3C7CFF"/>
<path d="M68.022 96.6689H31.0688V100H68.022V96.6689Z" fill="#3C7CFF"/>
<path d="M96.4251 69.6536H2.6543V72.9847H96.4251V69.6536Z" fill="#3C7CFF"/>
<path d="M38.9633 42.9824L30.1914 33.7441L38.9633 24.4948L41.3839 26.7821L34.7883 33.7441L41.3839 40.6951L38.9633 42.9824Z" fill="#3C7CFF"/>
<path d="M60.1272 42.9824L57.7065 40.6951L64.3021 33.7441L57.7065 26.7821L60.1272 24.4948L68.8991 33.7441L60.1272 42.9824Z" fill="#3C7CFF"/>
<path d="M55.7606 23.1899L52.687 21.9054L43.336 44.2813L46.4096 45.5658L55.7606 23.1899Z" fill="#3C7CFF"/>
<path d="M52.2993 67.4772H46.8029C44.9819 67.4772 43.3719 66.1781 42.9944 64.3904L42.2948 61.0815C42.1505 60.4042 41.6619 59.8601 41.0179 59.6491C39.7299 59.2272 38.4752 58.7053 37.276 58.0946C36.6653 57.7837 35.9324 57.8281 35.355 58.2056L32.5125 60.0488C30.9802 61.0371 28.9371 60.8261 27.638 59.5381L23.7517 55.6518C22.4636 54.3638 22.2415 52.3096 23.2409 50.7773L25.0841 47.9347C25.4616 47.3573 25.4949 46.6245 25.1951 46.0138C24.5844 44.8035 24.0626 43.5487 23.6406 42.2718C23.4296 41.6278 22.8856 41.1392 22.2082 41.006L18.8993 40.2954C17.1116 39.9178 15.8125 38.3189 15.8125 36.4868V30.9904C15.8125 29.1694 17.1116 27.5594 18.8993 27.1819L22.2082 26.4823C22.8856 26.338 23.4296 25.8494 23.6406 25.2054C24.0626 23.9174 24.5844 22.6627 25.1951 21.4635C25.506 20.8528 25.4616 20.1199 25.0841 19.5425L23.2298 16.7C22.7523 15.956 22.5302 15.0566 22.6191 14.1794C22.6302 14.024 22.6635 13.8574 22.6968 13.6909C22.8634 12.9802 23.2187 12.3362 23.7405 11.8254L27.6268 7.93915C28.926 6.65112 30.9691 6.42905 32.5014 7.42838L35.3439 9.2716C35.9213 9.64912 36.6542 9.68243 37.2649 9.38263C38.4641 8.77193 39.7299 8.25005 41.0068 7.82811C41.6508 7.61714 42.1394 7.07306 42.2837 6.39574L42.9833 3.08683C43.3608 1.29913 44.9597 0 46.7918 0H52.2882C54.1203 0 55.7192 1.29913 56.0968 3.08683L56.7963 6.39574C56.9406 7.07306 57.4292 7.61714 58.0732 7.82811C59.3501 8.25005 60.6049 8.77193 61.8152 9.38263C62.4259 9.69354 63.1587 9.64912 63.7361 9.2716L66.5787 7.42838C68.111 6.44015 70.154 6.65112 71.4532 7.93915L75.3395 11.8254C75.8503 12.3362 76.2167 12.9913 76.3832 13.6909C76.4165 13.8463 76.4499 14.0129 76.461 14.1683C76.5498 15.0455 76.3388 15.9449 75.8503 16.6889L74.007 19.5314C73.6295 20.1088 73.5962 20.8417 73.896 21.4524C74.5067 22.6516 75.0286 23.9174 75.4505 25.1943C75.6615 25.8383 76.2167 26.3269 76.8829 26.4712L80.1918 27.1708C81.9795 27.5483 83.2786 29.1472 83.2786 30.9793V36.4757C83.2786 38.3078 81.9795 39.9067 80.1918 40.2842L76.8829 40.9949C76.2056 41.1392 75.6615 41.6278 75.4505 42.2718C75.0286 43.5487 74.5067 44.8146 73.896 46.0138C73.5851 46.6245 73.6295 47.3573 74.007 47.9347L75.8614 50.7773C76.8496 52.3096 76.6386 54.3526 75.3506 55.6518L71.4643 59.5381C70.1763 60.8261 68.1221 61.0482 66.5898 60.0488L63.7472 58.2056C63.1698 57.8281 62.437 57.7837 61.8263 58.0946C60.6271 58.7053 59.3612 59.2272 58.0843 59.6491C57.4403 59.8601 56.9517 60.4042 56.8074 61.0815L56.1079 64.3904C55.7192 66.1781 54.1203 67.4772 52.2993 67.4772ZM36.4099 54.5636C37.2205 54.5636 38.031 54.7524 38.775 55.1188C39.8298 55.6518 40.9291 56.107 42.0617 56.4846C43.8272 57.062 45.1596 58.561 45.5482 60.382L46.2589 63.6909C46.3144 63.9463 46.5476 64.135 46.8029 64.135H52.2993C52.5658 64.135 52.7878 63.9463 52.8434 63.6909L53.554 60.382C53.9426 58.5499 55.2862 57.062 57.0406 56.4846C58.162 56.1181 59.2724 55.6518 60.3273 55.1188C61.9817 54.2749 63.9915 54.386 65.5571 55.4075L68.3997 57.2507C68.6217 57.3951 68.9215 57.3617 69.0992 57.173L72.9855 53.2867C73.1743 53.0979 73.2076 52.8092 73.0632 52.5872L71.22 49.7446C70.1985 48.179 70.0874 46.1692 70.9313 44.5148C71.4643 43.4599 71.9195 42.3495 72.286 41.2281C72.8634 39.4626 74.3624 38.1301 76.1834 37.7415L79.4923 37.0309C79.7477 36.9753 79.9364 36.7422 79.9364 36.4868V30.9904C79.9364 30.724 79.7477 30.4908 79.4923 30.4464L76.1834 29.7357C74.3624 29.3471 72.8634 28.0147 72.2749 26.2492C71.9084 25.1166 71.4421 24.0173 70.9091 22.9625C70.0652 21.2969 70.1763 19.2982 71.1978 17.7326L73.041 14.8901C73.1298 14.7568 73.1409 14.6125 73.1298 14.5237V14.5125C73.1298 14.5014 73.1298 14.4792 73.1187 14.457C73.0965 14.346 73.041 14.2572 72.9633 14.1794L69.077 10.2931C68.8882 10.1044 68.5995 10.0711 68.3775 10.2154L65.5349 12.0586C63.9693 13.0802 61.9706 13.1912 60.3051 12.3473C59.2391 11.8143 58.1398 11.3591 57.0184 10.9816C55.2529 10.4042 53.9204 8.90517 53.5318 7.08417L52.8212 3.77526C52.7656 3.51987 52.5325 3.33111 52.2771 3.33111H46.7807C46.5143 3.33111 46.2922 3.50877 46.2367 3.77526L45.526 7.08417C45.1374 8.91628 43.7938 10.4042 42.0395 10.9816C40.918 11.348 39.8076 11.8143 38.7528 12.3473C37.0872 13.1912 35.0885 13.0691 33.5229 12.0586L30.6804 10.2154C30.4583 10.0711 30.1696 10.1044 29.9697 10.2931L26.0834 14.1794C26.0057 14.2572 25.9613 14.346 25.928 14.4459C25.9169 14.4681 25.9169 14.4903 25.9169 14.5014V14.5125C25.9058 14.6014 25.9169 14.7346 26.0057 14.879L27.8489 17.7215C28.8705 19.2871 28.9815 21.2969 28.1376 22.9514C27.6046 24.0062 27.1494 25.1055 26.7719 26.2381C26.1945 28.0036 24.6955 29.336 22.8745 29.7246L19.5656 30.4353C19.3102 30.4908 19.1214 30.724 19.1214 30.9793V36.4757C19.1214 36.7422 19.3102 36.9642 19.5656 37.0198L22.8745 37.7304C24.7066 38.119 26.1945 39.4626 26.7719 41.217C27.1383 42.3384 27.6046 43.4488 28.1376 44.5037C28.9815 46.1692 28.8705 48.1679 27.8489 49.7335L26.0057 52.5761C25.8614 52.7981 25.8947 53.0979 26.0834 53.2756L29.9697 57.1619C30.1585 57.3506 30.4472 57.384 30.6693 57.2396L33.5118 55.3964C34.4001 54.8523 35.4105 54.5636 36.4099 54.5636Z" fill="#3C7CFF"/>
</svg>
