<svg width="100" height="100" viewBox="0 0 100 100" fill="none" xmlns="http://www.w3.org/2000/svg">
<path d="M23.3159 55.0197L23.3033 55.0323L23.2927 55.0465C23.0435 55.3787 22.87 55.8028 22.87 56.24C22.87 56.6811 23.0469 57.1167 23.3904 57.4603C30.7435 64.8133 40.3482 68.49 50.0268 68.49C59.6306 68.49 69.31 64.8135 76.6632 57.4603C77.0068 57.1167 77.1837 56.6811 77.1837 56.24C77.1837 55.7989 77.0068 55.3633 76.6632 55.0197L76.6628 55.0193C61.8823 40.3138 38.0225 40.3132 23.3159 55.0197ZM93.2 1.75H6.8C5.37484 1.75 4.10644 2.58691 3.20487 3.88102C2.30245 5.17635 1.75 6.95002 1.75 8.88995V91.11C1.75 93.05 2.30245 94.8236 3.20487 96.119C4.10644 97.4131 5.37484 98.25 6.8 98.25H93.2C94.6252 98.25 95.8936 97.4131 96.7951 96.119C97.6975 94.8236 98.25 93.05 98.25 91.11V8.88995C98.25 6.95002 97.6975 5.17635 96.7951 3.88102C95.8936 2.58691 94.6252 1.75 93.2 1.75ZM6.8 6.8433H93.2C93.5348 6.8433 93.8664 7.03989 94.1249 7.41085C94.3824 7.78058 94.55 8.30356 94.55 8.88995V17.8266H5.45V8.88995C5.45 8.30356 5.61755 7.78058 5.87513 7.41085C6.13356 7.03989 6.46515 6.8433 6.8 6.8433ZM93.2 93.1567H6.8C6.46515 93.1567 6.13356 92.9601 5.87513 92.5891C5.61755 92.2194 5.45 91.6964 5.45 91.11V22.9199H94.55V91.11C94.55 91.6964 94.3824 92.2194 94.1249 92.5891C93.8664 92.9601 93.5348 93.1567 93.2 93.1567ZM77.6101 14.8815H85.3039C86.7051 14.8815 87.8505 13.7361 87.8505 12.3349C87.8505 10.9337 86.7051 9.78824 85.3039 9.78824H77.6101C76.2089 9.78824 75.0634 10.9337 75.0634 12.3349C75.0634 13.7361 76.2089 14.8815 77.6101 14.8815ZM49.9523 65.0086C45.1711 65.0086 41.2582 61.0957 41.2582 56.3145C41.2582 51.5334 45.1711 47.6204 49.9523 47.6204C54.7335 47.6204 58.6464 51.5333 58.6464 56.3145C58.6464 61.0957 54.7335 65.0086 49.9523 65.0086ZM27.1413 56.2402C30.9657 52.7527 35.4927 50.2967 40.2406 48.8733C38.6555 50.9637 37.7768 53.4775 37.7768 56.24C37.7768 59.0102 38.7219 61.5256 40.2626 63.6136C35.5112 62.1969 31.0372 59.7996 27.1413 56.2402ZM72.7633 56.2398C68.9389 59.7273 64.4119 62.1833 59.664 63.6067C61.2491 61.5163 62.1278 59.0025 62.1278 56.24C62.1278 53.4698 61.1827 50.9544 59.642 48.8664C64.3934 50.2831 68.8674 52.6804 72.7633 56.2398Z" fill="#3C7CFF" stroke="#3C7CFF" stroke-width="0.5"/>
</svg>
