<svg width="102" height="100" viewBox="0 0 102 100" fill="none" xmlns="http://www.w3.org/2000/svg">
<path d="M101.25 30.1702V16.4132C101.25 11.589 97.473 7.75 92.8187 7.75H9.18043C4.52616 7.75 0.75 11.589 0.75 16.4132V83.8421C0.75 88.6663 4.52616 92.5053 9.18043 92.5053H92.8187C97.473 92.5053 101.25 88.6663 101.25 83.8421V30.2021V30.2021V30.202V30.2019V30.2019V30.2018V30.2017V30.2017V30.2016V30.2015V30.2015V30.2014V30.2014V30.2013V30.2012V30.2012V30.2011V30.201V30.201V30.2009V30.2008V30.2008V30.2007V30.2006V30.2006V30.2005V30.2004V30.2004V30.2003V30.2003V30.2002V30.2001V30.2001V30.2V30.1999V30.1999V30.1998V30.1997V30.1997V30.1996V30.1995V30.1995V30.1994V30.1994V30.1993V30.1992V30.1992V30.1991V30.199V30.199V30.1989V30.1988V30.1988V30.1987V30.1987V30.1986V30.1985V30.1985V30.1984V30.1983V30.1983V30.1982V30.1981V30.1981V30.198V30.1979V30.1979V30.1978V30.1978V30.1977V30.1976V30.1976V30.1975V30.1974V30.1974V30.1973V30.1972V30.1972V30.1971V30.1971V30.197V30.1969V30.1969V30.1968V30.1967V30.1967V30.1966V30.1965V30.1965V30.1964V30.1964V30.1963V30.1962V30.1962V30.1961V30.196V30.196V30.1959V30.1958V30.1958V30.1957V30.1957V30.1956V30.1955V30.1955V30.1954V30.1953V30.1953V30.1952V30.1951V30.1951V30.195V30.195V30.1949V30.1948V30.1948V30.1947V30.1946V30.1946V30.1945V30.1944V30.1944V30.1943V30.1943V30.1942V30.1941V30.1941V30.194V30.1939V30.1939V30.1938V30.1937V30.1937V30.1936V30.1936V30.1935V30.1934V30.1934V30.1933V30.1932V30.1932V30.1931V30.193V30.193V30.1929V30.1929V30.1928V30.1927V30.1927V30.1926V30.1925V30.1925V30.1924V30.1923V30.1923V30.1922V30.1922V30.1921V30.192V30.192V30.1919V30.1918V30.1918V30.1917V30.1916V30.1916V30.1915V30.1915V30.1914V30.1913V30.1913V30.1912V30.1911V30.1911V30.191V30.1909V30.1909V30.1908V30.1908V30.1907V30.1906V30.1906V30.1905V30.1904V30.1904V30.1903V30.1902V30.1902V30.1901V30.1901V30.19V30.1899V30.1899V30.1898V30.1897V30.1897V30.1896V30.1895V30.1895V30.1894V30.1893V30.1893V30.1892V30.1892V30.1891V30.189V30.189V30.1889V30.1888V30.1888V30.1887V30.1886V30.1886V30.1885V30.1884V30.1884V30.1883V30.1883V30.1882V30.1881V30.1881V30.188V30.1879V30.1879V30.1878V30.1877V30.1877V30.1876V30.1876V30.1875V30.1874V30.1874V30.1873V30.1872V30.1872V30.1871V30.187V30.187V30.1869V30.1868V30.1868V30.1867V30.1866V30.1866V30.1865V30.1865V30.1864V30.1863V30.1863V30.1862V30.1861V30.1861V30.186V30.1859V30.1859V30.1858V30.1857V30.1857V30.1856V30.1855V30.1855V30.1854V30.1854V30.1853V30.1852V30.1852V30.1851V30.185V30.185V30.1849V30.1848V30.1848V30.1847V30.1846V30.1846V30.1845V30.1845V30.1844V30.1843V30.1843V30.1842V30.1841V30.1841V30.184V30.1839V30.1839V30.1838V30.1837V30.1837V30.1836V30.1836V30.1835V30.1834V30.1834V30.1833V30.1832V30.1832V30.1831V30.183V30.183V30.1829V30.1828V30.1828V30.1827V30.1827V30.1826V30.1825V30.1825V30.1824V30.1823V30.1823V30.1822V30.1821V30.1821V30.182V30.182V30.1819V30.1818V30.1818V30.1817V30.1816V30.1816V30.1815V30.1815V30.1814V30.1813V30.1813V30.1812V30.1811V30.1811V30.181V30.1809V30.1809V30.1808V30.1808V30.1807V30.1806V30.1806V30.1805V30.1804V30.1804V30.1803V30.1803V30.1802V30.1801V30.1801V30.18V30.1799V30.1799V30.1798V30.1798V30.1797V30.1796V30.1796V30.1795V30.1794V30.1794V30.1793V30.1793V30.1792V30.1791V30.1791V30.179V30.1789V30.1789V30.1788V30.1788V30.1787V30.1786V30.1786V30.1785V30.1785V30.1784V30.1783V30.1783V30.1782V30.1781V30.1781V30.178V30.178V30.1779V30.1778V30.1778V30.1777V30.1777V30.1776V30.1775V30.1775V30.1774V30.1774V30.1773V30.1772V30.1772V30.1771V30.177V30.177V30.1769V30.1769V30.1768V30.1767V30.1767V30.1766V30.1766V30.1765V30.1764V30.1764V30.1763V30.1763V30.1762V30.1761V30.1761V30.176V30.176V30.1759V30.1758V30.1758V30.1757V30.1757V30.1756V30.1755V30.1755V30.1754V30.1754V30.1753V30.1752V30.1752V30.1751V30.1751V30.175V30.175V30.1749V30.1748V30.1748V30.1747V30.1747V30.1746V30.1745V30.1745V30.1744V30.1744V30.1743V30.1742V30.1742V30.1741V30.1741V30.174V30.174V30.1739V30.1738V30.1738V30.1737V30.1737V30.1736V30.1735V30.1735V30.1734V30.1734V30.1733V30.1733V30.1732V30.1731V30.1731V30.173V30.173V30.1729V30.1729V30.1728V30.1727V30.1727V30.1726V30.1726V30.1725V30.1725V30.1724V30.1723V30.1723V30.1722V30.1721V30.1721V30.172V30.1719V30.1719V30.1718V30.1717V30.1717V30.1716V30.1715V30.1714V30.1713V30.1713V30.1712V30.1711V30.171V30.1709V30.1708V30.1708V30.1707V30.1706V30.1705V30.1704V30.1703V30.1702ZM9.18043 11.2287H92.8187C95.5401 11.2287 97.7713 13.4934 97.7713 16.4132V28.3883H4.22872V16.4132C4.22872 13.4933 6.45906 11.2287 9.18043 11.2287ZM92.8187 89.0266H9.18043C6.45906 89.0266 4.22872 86.762 4.22872 83.8421V31.867H97.7713V83.8421C97.7713 86.762 95.5401 89.0266 92.8187 89.0266Z" fill="#3C7CFF" stroke="#3C7CFF" stroke-width="0.5"/>
<path d="M27.0235 26.0919C30.3043 26.0919 32.9737 23.3245 32.9737 19.923C32.9737 16.5215 30.3043 13.754 27.0235 13.754C23.7426 13.754 21.0732 16.5215 21.0732 19.923C21.0732 23.3245 23.7424 26.0919 27.0235 26.0919ZM27.0235 16.7328C28.6618 16.7328 29.9949 18.164 29.9949 19.923C29.9949 21.6819 28.662 23.1132 27.0235 23.1132C25.3849 23.1132 24.052 21.6821 24.052 19.923C24.052 18.1638 25.3847 16.7328 27.0235 16.7328Z" fill="#3C7CFF"/>
<path d="M41.521 26.0919C44.8019 26.0919 47.4712 23.3245 47.4712 19.923C47.4712 16.5215 44.8019 13.754 41.521 13.754C38.2402 13.754 35.5708 16.5215 35.5708 19.923C35.5708 23.3245 38.2402 26.0919 41.521 26.0919ZM41.521 16.7328C43.1593 16.7328 44.4925 18.164 44.4925 19.923C44.4925 21.6819 43.1595 23.1132 41.521 23.1132C39.8825 23.1132 38.5495 21.6821 38.5495 19.923C38.5495 18.1638 39.8825 16.7328 41.521 16.7328Z" fill="#3C7CFF"/>
<path d="M12.5259 26.0919C15.8067 26.0919 18.4761 23.3245 18.4761 19.923C18.4761 16.5215 15.8067 13.754 12.5259 13.754C9.24504 13.754 6.57568 16.5215 6.57568 19.923C6.57568 23.3245 9.24504 26.0919 12.5259 26.0919ZM12.5259 16.7328C14.1642 16.7328 15.4974 18.164 15.4974 19.923C15.4974 21.6819 14.1644 23.1132 12.5259 23.1132C10.8874 23.1132 9.55441 21.6821 9.55441 19.923C9.55441 18.1638 10.8874 16.7328 12.5259 16.7328Z" fill="#3C7CFF"/>
<path d="M70.3913 56.5106H68.447V53.9753C68.447 45.0226 60.7253 37.6889 51.3194 37.6274C41.9175 37.6274 34.1917 44.9611 34.1917 53.9753V56.5106H31.6092C31.4145 56.5126 31.2221 56.5531 31.0431 56.6298C30.8641 56.7065 30.7021 56.8179 30.5664 56.9575C30.4307 57.0972 30.3239 57.2623 30.2523 57.4433C30.1807 57.6244 30.1456 57.8179 30.1492 58.0125V71.7498C30.1492 72.5723 30.7875 73.3191 31.6092 73.3191H39.8826C40.2912 73.3032 40.6784 73.1319 40.9652 72.8403C41.2519 72.5487 41.4166 72.1587 41.4258 71.7498V58.0125C41.414 57.6108 41.2464 57.2294 40.9584 56.949C40.6703 56.6687 40.2845 56.5115 39.8826 56.5106H37.1704V53.9753C37.1704 46.6036 43.56 40.6062 51.3096 40.6062C59.0743 40.657 65.4683 46.6545 65.4683 53.9753V56.5106H62.7051C62.3085 56.5133 61.9291 56.6727 61.6496 56.9541C61.37 57.2355 61.2131 57.6159 61.213 58.0125V71.7498C61.2107 72.1535 61.3648 72.5424 61.6429 72.835C61.9211 73.1276 62.3018 73.3011 62.7051 73.3191H64.6172V76.0515C64.6172 77.0868 63.8196 78 62.7845 78H58.4415C58.1171 76.9576 57.4301 76.0658 56.505 75.4862C55.5799 74.9066 54.4778 74.6774 53.3983 74.8401C52.3188 75.0029 51.3333 75.5468 50.6202 76.3734C49.9071 77.2 49.5135 78.2547 49.5109 79.3464C49.5053 80.4209 49.8778 81.4631 50.5632 82.2906C51.2486 83.1182 52.2032 83.6782 53.26 83.8728C54.3167 84.0674 55.4083 83.8841 56.3435 83.355C57.2787 82.8259 57.998 81.9847 58.3755 80.9787H62.7845C65.4621 80.9787 67.596 78.7291 67.596 76.0515V73.3191H70.3913C71.213 73.3191 71.8513 72.5723 71.8513 71.7498V58.0125C71.8548 57.8179 71.8198 57.6244 71.7481 57.4433C71.6765 57.2623 71.5698 57.0972 71.4341 56.9575C71.2984 56.8179 71.1363 56.7065 70.9574 56.6298C70.7784 56.5531 70.586 56.5126 70.3913 56.5106ZM38.447 70.3404H33.1279V59.4894H38.447V70.3404ZM54.0866 80.9257C53.7708 80.9257 53.462 80.8321 53.1994 80.6566C52.9367 80.4811 52.732 80.2317 52.6112 79.9399C52.4903 79.6481 52.4587 79.3269 52.5203 79.0172C52.5819 78.7074 52.734 78.4228 52.9573 78.1995C53.1807 77.9761 53.4653 77.824 53.7751 77.7624C54.0848 77.7008 54.4059 77.7324 54.6978 77.8533C54.9896 77.9741 55.239 78.1788 55.4145 78.4415C55.59 78.7041 55.6836 79.0129 55.6836 79.3287C55.6832 79.7521 55.5148 80.1581 55.2154 80.4575C54.916 80.7569 54.51 80.9253 54.0866 80.9257ZM68.8726 70.3404H64.1917V59.4894H68.8726V70.3404Z" fill="#3C7CFF"/>
</svg>
