<svg width="99" height="100" viewBox="0 0 99 100" fill="none" xmlns="http://www.w3.org/2000/svg">
<path d="M14.7059 72.8813C11.9559 72.8813 9.80396 75.8593 9.80396 79.661C9.80396 83.4627 11.9559 86.4407 14.7059 86.4407C17.4559 86.4407 19.6079 83.4627 19.6079 79.661C19.6079 75.8593 17.4559 72.8813 14.7059 72.8813ZM14.7059 83.0508C14.0392 83.0508 13.0719 81.7305 13.0719 79.661C13.0719 77.5915 14.0392 76.2712 14.7059 76.2712C15.3726 76.2712 16.3399 77.5915 16.3399 79.661C16.3399 81.7305 15.3726 83.0508 14.7059 83.0508Z" fill="#3C7CFF"/>
<path d="M96.4052 0H1.63399C1.20063 0 0.785016 0.178571 0.478584 0.496429C0.172152 0.814287 0 1.2454 0 1.69492V98.3051C0 98.7546 0.172152 99.1857 0.478584 99.5036C0.785016 99.8214 1.20063 100 1.63399 100H96.4052C96.8386 100 97.2542 99.8214 97.5606 99.5036C97.8671 99.1857 98.0392 98.7546 98.0392 98.3051V1.69492C98.0392 1.2454 97.8671 0.814287 97.5606 0.496429C97.2542 0.178571 96.8386 0 96.4052 0ZM94.7712 96.6102H3.26797V16.9492H94.7712V96.6102ZM94.7712 13.5593H3.26797V3.38983H94.7712V13.5593Z" fill="#3C7CFF"/>
<path d="M81.6992 67.7965H71.7319L69.2319 42.7965L75.1633 39.8812V44.3727C74.2111 44.7245 73.3865 45.3721 72.8018 46.2274C72.217 47.0826 71.9005 48.1039 71.8953 49.1524V54.2371C71.8953 54.6867 72.0675 55.1178 72.3739 55.4356C72.6803 55.7535 73.0959 55.9321 73.5293 55.9321H80.0652C80.4986 55.9321 80.9142 55.7535 81.2207 55.4356C81.5271 55.1178 81.6992 54.6867 81.6992 54.2371V49.1524C81.694 48.1039 81.3775 47.0826 80.7928 46.2274C80.208 45.3721 79.3835 44.7245 78.4313 44.3727V38.271L80.7679 37.1185C81.0504 36.9773 81.2878 36.7547 81.4517 36.4774C81.6157 36.2 81.6992 35.8796 81.6923 35.5543C81.6854 35.2291 81.5884 34.9127 81.4129 34.6431C81.2374 34.3735 80.9908 34.1619 80.7025 34.0338L49.6568 20.4744C49.4561 20.3822 49.239 20.3346 49.0195 20.3346C48.8 20.3346 48.5829 20.3822 48.3822 20.4744L17.3365 34.0338C17.0482 34.1619 16.8016 34.3735 16.6261 34.6431C16.4506 34.9127 16.3536 35.2291 16.3467 35.5543C16.3398 35.8796 16.4233 36.2 16.5873 36.4774C16.7512 36.7547 16.9886 36.9773 17.2711 37.1185L28.8071 42.7965L26.3071 67.7965H14.7058C9.29728 67.7965 4.90186 73.1185 4.90186 79.6609C4.90186 86.2032 9.29728 91.5253 14.7058 91.5253H81.6992C84.7328 91.5253 87.642 90.2753 89.7871 88.0503C91.9321 85.8253 93.1371 82.8075 93.1371 79.6609C93.1371 76.5142 91.9321 73.4965 89.7871 71.2715C87.642 69.0465 84.7328 67.7965 81.6992 67.7965ZM76.7973 47.4575C77.2306 47.4575 77.6462 47.6361 77.9527 47.9539C78.2591 48.2718 78.4313 48.7029 78.4313 49.1524V52.5422H75.1633V49.1524C75.1633 48.7029 75.3354 48.2718 75.6419 47.9539C75.9483 47.6361 76.3639 47.4575 76.7973 47.4575ZM21.977 35.6778L49.0195 23.8643L71.977 33.8982H53.6273C53.2419 32.7673 52.4834 31.8142 51.486 31.2073C50.4886 30.6004 49.3165 30.3787 48.1768 30.5816C47.0371 30.7844 46.0032 31.3986 45.2579 32.3157C44.5126 33.2328 44.1038 34.3936 44.1038 35.5931C44.1038 36.7925 44.5126 37.9534 45.2579 38.8705C46.0032 39.7875 47.0371 40.4018 48.1768 40.6046C49.3165 40.8074 50.4886 40.5858 51.486 39.9789C52.4834 39.372 53.2419 38.4189 53.6273 37.288H72.794L49.0195 48.966L21.977 35.6778ZM50.6535 35.5931C50.6535 35.9283 50.5577 36.256 50.3781 36.5347C50.1986 36.8135 49.9434 37.0307 49.6448 37.159C49.3462 37.2873 49.0177 37.3208 48.7007 37.2554C48.3838 37.19 48.0926 37.0286 47.8641 36.7916C47.6356 36.5545 47.48 36.2525 47.4169 35.9237C47.3539 35.595 47.3862 35.2542 47.5099 34.9445C47.6336 34.6348 47.843 34.37 48.1117 34.1838C48.3804 33.9976 48.6963 33.8982 49.0195 33.8982C49.4529 33.8982 49.8685 34.0767 50.1749 34.3946C50.4813 34.7125 50.6535 35.1436 50.6535 35.5931ZM68.4476 67.7965H29.5914L31.9443 44.3219L48.3169 52.3727C48.5355 52.4843 48.7759 52.5423 49.0195 52.5423C49.2631 52.5423 49.5035 52.4843 49.7221 52.3727L66.0947 44.3219L68.4476 67.7965ZM14.7058 88.1355C11.0947 88.1355 8.16983 84.3388 8.16983 79.6609C8.16983 74.9829 11.0947 71.1863 14.7058 71.1863C18.3169 71.1863 21.2417 74.9829 21.2417 79.6609C21.2417 84.3388 18.3169 88.1355 14.7058 88.1355ZM70.2613 88.1355H21.5522C23.4632 85.7563 24.5097 82.7576 24.5097 79.6609C24.5097 76.5642 23.4632 73.5654 21.5522 71.1863H70.2613C72.4281 71.1863 74.5062 72.0792 76.0383 73.6684C77.5705 75.2577 78.4313 77.4133 78.4313 79.6609C78.4313 81.9085 77.5705 84.064 76.0383 85.6533C74.5062 87.2426 72.4281 88.1355 70.2613 88.1355ZM81.6992 88.1355H78.2515C79.3427 87.0333 80.2099 85.7156 80.8021 84.26C81.3943 82.8045 81.6994 81.2407 81.6994 79.6609C81.6994 78.0811 81.3943 76.5172 80.8021 75.0617C80.2099 73.6062 79.3427 72.2885 78.2515 71.1863H81.6992C83.866 71.1863 85.9441 72.0792 87.4762 73.6684C89.0084 75.2577 89.8692 77.4133 89.8692 79.6609C89.8692 81.9085 89.0084 84.064 87.4762 85.6533C85.9441 87.2426 83.866 88.1355 81.6992 88.1355Z" fill="#3C7CFF"/>
<path d="M11.4379 11.8644C13.2427 11.8644 14.7059 10.3467 14.7059 8.47455C14.7059 6.6024 13.2427 5.08472 11.4379 5.08472C9.63304 5.08472 8.16992 6.6024 8.16992 8.47455C8.16992 10.3467 9.63304 11.8644 11.4379 11.8644Z" fill="#3C7CFF"/>
<path d="M21.2419 11.8644C23.0467 11.8644 24.5098 10.3467 24.5098 8.47455C24.5098 6.6024 23.0467 5.08472 21.2419 5.08472C19.437 5.08472 17.9739 6.6024 17.9739 8.47455C17.9739 10.3467 19.437 11.8644 21.2419 11.8644Z" fill="#3C7CFF"/>
<path d="M31.0456 11.8644C32.8504 11.8644 34.3135 10.3467 34.3135 8.47455C34.3135 6.6024 32.8504 5.08472 31.0456 5.08472C29.2407 5.08472 27.7776 6.6024 27.7776 8.47455C27.7776 10.3467 29.2407 11.8644 31.0456 11.8644Z" fill="#3C7CFF"/>
</svg>
