<svg width="100" height="100" viewBox="0 0 100 100" fill="none" xmlns="http://www.w3.org/2000/svg">
<path d="M97.9096 16.6692H12.4991C11.9466 16.6692 11.4167 16.8887 11.0261 17.2794C10.6354 17.6701 10.4159 18.1999 10.4159 18.7524C10.4159 19.3049 10.6354 19.8348 11.0261 20.2255C11.4167 20.6161 11.9466 20.8356 12.4991 20.8356H95.8264V89.5807C95.8264 91.2382 95.168 92.8277 93.996 93.9998C92.824 95.1718 91.2344 95.8302 89.5769 95.8302H10.4159C8.75843 95.8302 7.16884 95.1718 5.99682 93.9998C4.8248 92.8277 4.16637 91.2382 4.16637 89.5807V10.4197C4.16637 8.76221 4.8248 7.17261 5.99682 6.0006C7.16884 4.82858 8.75843 4.17014 10.4159 4.17014H89.5644C90.3976 4.12454 91.2312 4.25486 92.0107 4.55263C92.7903 4.8504 93.4984 5.30894 94.0891 5.89843C94.6798 6.48792 95.1397 7.19516 95.4391 7.97413C95.7384 8.7531 95.8704 9.58635 95.8264 10.4197C95.8264 10.9722 96.0459 11.5021 96.4366 11.8927C96.8273 12.2834 97.3571 12.5029 97.9096 12.5029C98.4621 12.5029 98.992 12.2834 99.3827 11.8927C99.7733 11.5021 99.9928 10.9722 99.9928 10.4197C100.045 9.03781 99.8115 7.66 99.3066 6.37261C98.8017 5.08521 98.0363 3.91596 97.0585 2.93812C96.0806 1.96028 94.9114 1.19491 93.624 0.689985C92.3366 0.185056 90.9588 -0.0485585 89.5769 0.00377732H10.4159C7.65446 0.00708512 5.00705 1.10554 3.05441 3.05818C1.10176 5.01083 0.0033078 7.65824 0 10.4197L0 89.5807C0.0033078 92.3421 1.10176 94.9895 3.05441 96.9422C5.00705 98.8948 7.65446 99.9933 10.4159 99.9966H89.5769C92.3383 99.9933 94.9858 98.8948 96.9384 96.9422C98.8911 94.9895 99.9895 92.3421 99.9928 89.5807V18.7524C99.9928 18.1999 99.7733 17.6701 99.3827 17.2794C98.992 16.8887 98.4621 16.6692 97.9096 16.6692Z" fill="#3C7CFF"/>
<path d="M12.4992 8.33643C11.9467 8.33643 11.4168 8.5559 11.0262 8.94658C10.6355 9.33725 10.416 9.86711 10.416 10.4196C10.416 10.9721 10.6355 11.502 11.0262 11.8926C11.4168 12.2833 11.9467 12.5028 12.4992 12.5028H16.6656C17.2181 12.5028 17.7479 12.2833 18.1386 11.8926C18.5293 11.502 18.7487 10.9721 18.7487 10.4196C18.7487 9.86711 18.5293 9.33725 18.1386 8.94658C17.7479 8.5559 17.2181 8.33643 16.6656 8.33643H12.4992Z" fill="#3C7CFF"/>
<path d="M24.9982 8.33643C24.4457 8.33643 23.9159 8.5559 23.5252 8.94658C23.1345 9.33725 22.915 9.86711 22.915 10.4196C22.915 10.9721 23.1345 11.502 23.5252 11.8926C23.9159 12.2833 24.4457 12.5028 24.9982 12.5028H29.1646C29.7171 12.5028 30.2469 12.2833 30.6376 11.8926C31.0283 11.502 31.2478 10.9721 31.2478 10.4196C31.2478 9.86711 31.0283 9.33725 30.6376 8.94658C30.2469 8.5559 29.7171 8.33643 29.1646 8.33643H24.9982Z" fill="#3C7CFF"/>
<path d="M85.4106 8.33643C84.8581 8.33643 84.3282 8.5559 83.9375 8.94658C83.5469 9.33725 83.3274 9.86711 83.3274 10.4196C83.3274 10.9721 83.5469 11.502 83.9375 11.8926C84.3282 12.2833 84.8581 12.5028 85.4106 12.5028H89.5769C90.1294 12.5028 90.6593 12.2833 91.05 11.8926C91.4407 11.502 91.6601 10.9721 91.6601 10.4196C91.6601 9.86711 91.4407 9.33725 91.05 8.94658C90.6593 8.5559 90.1294 8.33643 89.5769 8.33643H85.4106Z" fill="#3C7CFF"/>
<path d="M20.8318 70.8319C21.3843 70.8319 21.9142 70.6124 22.3049 70.2217C22.6955 69.8311 22.915 69.3012 22.915 68.7487C22.915 68.1962 22.6955 67.6663 22.3049 67.2757C21.9142 66.885 21.3843 66.6655 20.8318 66.6655C19.1743 66.6655 17.5847 67.324 16.4127 68.496C15.2407 69.668 14.5823 71.2576 14.5823 72.9151V81.2478C14.5823 82.9053 15.2407 84.4949 16.4127 85.6669C17.5847 86.8389 19.1743 87.4974 20.8318 87.4974H37.4973C39.1548 87.4974 40.7444 86.8389 41.9164 85.6669C43.0884 84.4949 43.7468 82.9053 43.7468 81.2478V72.9151C43.7468 71.2576 43.0884 69.668 41.9164 68.496C40.7444 67.324 39.1548 66.6655 37.4973 66.6655H31.2477V62.4991H68.745V66.6655H62.4955C60.838 66.6655 59.2484 67.324 58.0764 68.496C56.9044 69.668 56.2459 71.2576 56.2459 72.9151V81.2478C56.2459 82.9053 56.9044 84.4949 58.0764 85.6669C59.2484 86.8389 60.838 87.4974 62.4955 87.4974H79.161C80.8185 87.4974 82.408 86.8389 83.5801 85.6669C84.7521 84.4949 85.4105 82.9053 85.4105 81.2478V72.9151C85.4105 71.2576 84.7521 69.668 83.5801 68.496C82.408 67.324 80.8185 66.6655 79.161 66.6655C78.6085 66.6655 78.0786 66.885 77.6879 67.2757C77.2973 67.6663 77.0778 68.1962 77.0778 68.7487C77.0778 69.3012 77.2973 69.8311 77.6879 70.2217C78.0786 70.6124 78.6085 70.8319 79.161 70.8319C79.7135 70.8319 80.2433 71.0514 80.634 71.442C81.0247 71.8327 81.2441 72.3626 81.2441 72.9151V81.2478C81.2441 81.8003 81.0247 82.3302 80.634 82.7208C80.2433 83.1115 79.7135 83.331 79.161 83.331H62.4955C61.943 83.331 61.4131 83.1115 61.0225 82.7208C60.6318 82.3302 60.4123 81.8003 60.4123 81.2478V72.9151C60.4123 72.3626 60.6318 71.8327 61.0225 71.442C61.4131 71.0514 61.943 70.8319 62.4955 70.8319H70.8282C71.3807 70.8319 71.9106 70.6124 72.3013 70.2217C72.6919 69.8311 72.9114 69.3012 72.9114 68.7487V60.416C72.9114 59.8635 72.6919 59.3336 72.3013 58.9429C71.9106 58.5523 71.3807 58.3328 70.8282 58.3328H52.0796V50H58.3291C59.9866 50 61.5762 49.3416 62.7482 48.1696C63.9202 46.9976 64.5787 45.408 64.5787 43.7505V35.4178C64.5787 33.7603 63.9202 32.1707 62.7482 30.9987C61.5762 29.8266 59.9866 29.1682 58.3291 29.1682H41.6637C40.0062 29.1682 38.4166 29.8266 37.2446 30.9987C36.0725 32.1707 35.4141 33.7603 35.4141 35.4178V43.7505C35.4141 45.408 36.0725 46.9976 37.2446 48.1696C38.4166 49.3416 40.0062 50 41.6637 50C42.2162 50 42.746 49.7806 43.1367 49.3899C43.5274 48.9992 43.7468 48.4694 43.7468 47.9169C43.7468 47.3644 43.5274 46.8345 43.1367 46.4438C42.746 46.0532 42.2162 45.8337 41.6637 45.8337C41.1112 45.8337 40.5813 45.6142 40.1906 45.2235C39.8 44.8329 39.5805 44.303 39.5805 43.7505V35.4178C39.5805 34.8653 39.8 34.3354 40.1906 33.9447C40.5813 33.5541 41.1112 33.3346 41.6637 33.3346H58.3291C58.8816 33.3346 59.4115 33.5541 59.8022 33.9447C60.1928 34.3354 60.4123 34.8653 60.4123 35.4178V43.7505C60.4123 44.303 60.1928 44.8329 59.8022 45.2235C59.4115 45.6142 58.8816 45.8337 58.3291 45.8337H49.9964C49.4439 45.8337 48.914 46.0532 48.5234 46.4438C48.1327 46.8345 47.9132 47.3644 47.9132 47.9169V58.3328H29.1646C28.6121 58.3328 28.0822 58.5523 27.6915 58.9429C27.3009 59.3336 27.0814 59.8635 27.0814 60.416V68.7487C27.0814 69.3012 27.3009 69.8311 27.6915 70.2217C28.0822 70.6124 28.6121 70.8319 29.1646 70.8319H37.4973C38.0498 70.8319 38.5797 71.0514 38.9703 71.442C39.361 71.8327 39.5805 72.3626 39.5805 72.9151V81.2478C39.5805 81.8003 39.361 82.3302 38.9703 82.7208C38.5797 83.1115 38.0498 83.331 37.4973 83.331H20.8318C20.2793 83.331 19.7495 83.1115 19.3588 82.7208C18.9681 82.3302 18.7486 81.8003 18.7486 81.2478V72.9151C18.7486 72.3626 18.9681 71.8327 19.3588 71.442C19.7495 71.0514 20.2793 70.8319 20.8318 70.8319Z" fill="#3C7CFF"/>
</svg>
