<svg width="102" height="86" viewBox="0 0 102 86" fill="none" xmlns="http://www.w3.org/2000/svg">
<path d="M101.25 23.1702V9.41319C101.25 4.58901 97.473 0.75 92.8187 0.75H9.18043C4.52616 0.75 0.75 4.58904 0.75 9.41319V76.8421C0.75 81.6663 4.52616 85.5053 9.18043 85.5053H92.8187C97.473 85.5053 101.25 81.6663 101.25 76.8421V23.2021V23.2021V23.202V23.2019V23.2019V23.2018V23.2017V23.2017V23.2016V23.2015V23.2015V23.2014V23.2014V23.2013V23.2012V23.2012V23.2011V23.201V23.201V23.2009V23.2008V23.2008V23.2007V23.2006V23.2006V23.2005V23.2004V23.2004V23.2003V23.2003V23.2002V23.2001V23.2001V23.2V23.1999V23.1999V23.1998V23.1997V23.1997V23.1996V23.1995V23.1995V23.1994V23.1994V23.1993V23.1992V23.1992V23.1991V23.199V23.199V23.1989V23.1988V23.1988V23.1987V23.1987V23.1986V23.1985V23.1985V23.1984V23.1983V23.1983V23.1982V23.1981V23.1981V23.198V23.1979V23.1979V23.1978V23.1978V23.1977V23.1976V23.1976V23.1975V23.1974V23.1974V23.1973V23.1972V23.1972V23.1971V23.1971V23.197V23.1969V23.1969V23.1968V23.1967V23.1967V23.1966V23.1965V23.1965V23.1964V23.1964V23.1963V23.1962V23.1962V23.1961V23.196V23.196V23.1959V23.1958V23.1958V23.1957V23.1957V23.1956V23.1955V23.1955V23.1954V23.1953V23.1953V23.1952V23.1951V23.1951V23.195V23.195V23.1949V23.1948V23.1948V23.1947V23.1946V23.1946V23.1945V23.1944V23.1944V23.1943V23.1943V23.1942V23.1941V23.1941V23.194V23.1939V23.1939V23.1938V23.1937V23.1937V23.1936V23.1936V23.1935V23.1934V23.1934V23.1933V23.1932V23.1932V23.1931V23.193V23.193V23.1929V23.1929V23.1928V23.1927V23.1927V23.1926V23.1925V23.1925V23.1924V23.1923V23.1923V23.1922V23.1922V23.1921V23.192V23.192V23.1919V23.1918V23.1918V23.1917V23.1916V23.1916V23.1915V23.1915V23.1914V23.1913V23.1913V23.1912V23.1911V23.1911V23.191V23.1909V23.1909V23.1908V23.1908V23.1907V23.1906V23.1906V23.1905V23.1904V23.1904V23.1903V23.1902V23.1902V23.1901V23.1901V23.19V23.1899V23.1899V23.1898V23.1897V23.1897V23.1896V23.1895V23.1895V23.1894V23.1893V23.1893V23.1892V23.1892V23.1891V23.189V23.189V23.1889V23.1888V23.1888V23.1887V23.1886V23.1886V23.1885V23.1884V23.1884V23.1883V23.1883V23.1882V23.1881V23.1881V23.188V23.1879V23.1879V23.1878V23.1877V23.1877V23.1876V23.1876V23.1875V23.1874V23.1874V23.1873V23.1872V23.1872V23.1871V23.187V23.187V23.1869V23.1868V23.1868V23.1867V23.1866V23.1866V23.1865V23.1865V23.1864V23.1863V23.1863V23.1862V23.1861V23.1861V23.186V23.1859V23.1859V23.1858V23.1857V23.1857V23.1856V23.1855V23.1855V23.1854V23.1854V23.1853V23.1852V23.1852V23.1851V23.185V23.185V23.1849V23.1848V23.1848V23.1847V23.1846V23.1846V23.1845V23.1845V23.1844V23.1843V23.1843V23.1842V23.1841V23.1841V23.184V23.1839V23.1839V23.1838V23.1837V23.1837V23.1836V23.1836V23.1835V23.1834V23.1834V23.1833V23.1832V23.1832V23.1831V23.183V23.183V23.1829V23.1828V23.1828V23.1827V23.1827V23.1826V23.1825V23.1825V23.1824V23.1823V23.1823V23.1822V23.1821V23.1821V23.182V23.182V23.1819V23.1818V23.1818V23.1817V23.1816V23.1816V23.1815V23.1815V23.1814V23.1813V23.1813V23.1812V23.1811V23.1811V23.181V23.1809V23.1809V23.1808V23.1808V23.1807V23.1806V23.1806V23.1805V23.1804V23.1804V23.1803V23.1803V23.1802V23.1801V23.1801V23.18V23.1799V23.1799V23.1798V23.1798V23.1797V23.1796V23.1796V23.1795V23.1794V23.1794V23.1793V23.1793V23.1792V23.1791V23.1791V23.179V23.1789V23.1789V23.1788V23.1788V23.1787V23.1786V23.1786V23.1785V23.1785V23.1784V23.1783V23.1783V23.1782V23.1781V23.1781V23.178V23.178V23.1779V23.1778V23.1778V23.1777V23.1777V23.1776V23.1775V23.1775V23.1774V23.1774V23.1773V23.1772V23.1772V23.1771V23.177V23.177V23.1769V23.1769V23.1768V23.1767V23.1767V23.1766V23.1766V23.1765V23.1764V23.1764V23.1763V23.1763V23.1762V23.1761V23.1761V23.176V23.176V23.1759V23.1758V23.1758V23.1757V23.1757V23.1756V23.1755V23.1755V23.1754V23.1754V23.1753V23.1752V23.1752V23.1751V23.1751V23.175V23.175V23.1749V23.1748V23.1748V23.1747V23.1747V23.1746V23.1745V23.1745V23.1744V23.1744V23.1743V23.1742V23.1742V23.1741V23.1741V23.174V23.174V23.1739V23.1738V23.1738V23.1737V23.1737V23.1736V23.1735V23.1735V23.1734V23.1734V23.1733V23.1733V23.1732V23.1731V23.1731V23.173V23.173V23.1729V23.1729V23.1728V23.1727V23.1727V23.1726V23.1726V23.1725V23.1725V23.1724V23.1723V23.1723V23.1722V23.1721V23.1721V23.172V23.1719V23.1719V23.1718V23.1717V23.1717V23.1716V23.1715V23.1714V23.1713V23.1713V23.1712V23.1711V23.171V23.1709V23.1708V23.1708V23.1707V23.1706V23.1705V23.1704V23.1703V23.1702ZM9.18043 4.22872H92.8187C95.5401 4.22872 97.7713 6.49335 97.7713 9.41319V21.3883H4.22872V9.41319C4.22872 6.4933 6.45906 4.22872 9.18043 4.22872ZM92.8187 82.0266H9.18043C6.45906 82.0266 4.22872 79.762 4.22872 76.8421V24.867H97.7713V76.8421C97.7713 79.762 95.5401 82.0266 92.8187 82.0266Z" fill="#3C7CFF" stroke="#3C7CFF" stroke-width="0.5"/>
<path d="M27.0235 19.0919C30.3043 19.0919 32.9737 16.3245 32.9737 12.923C32.9737 9.52148 30.3043 6.75403 27.0235 6.75403C23.7426 6.75403 21.0732 9.52148 21.0732 12.923C21.0732 16.3245 23.7424 19.0919 27.0235 19.0919ZM27.0235 9.73275C28.6618 9.73275 29.9949 11.164 29.9949 12.923C29.9949 14.6819 28.662 16.1132 27.0235 16.1132C25.3849 16.1132 24.052 14.6821 24.052 12.923C24.052 11.1638 25.3847 9.73275 27.0235 9.73275Z" fill="#3C7CFF"/>
<path d="M41.5208 19.0919C44.8016 19.0919 47.471 16.3245 47.471 12.923C47.471 9.52148 44.8016 6.75403 41.5208 6.75403C38.2399 6.75403 35.5706 9.52148 35.5706 12.923C35.5706 16.3245 38.2399 19.0919 41.5208 19.0919ZM41.5208 9.73275C43.1591 9.73275 44.4923 11.164 44.4923 12.923C44.4923 14.6819 43.1593 16.1132 41.5208 16.1132C39.8823 16.1132 38.5493 14.6821 38.5493 12.923C38.5493 11.1638 39.8823 9.73275 41.5208 9.73275Z" fill="#3C7CFF"/>
<path d="M12.5259 19.0919C15.8067 19.0919 18.4761 16.3245 18.4761 12.923C18.4761 9.52148 15.8067 6.75403 12.5259 6.75403C9.24504 6.75403 6.57568 9.52148 6.57568 12.923C6.57568 16.3245 9.24504 19.0919 12.5259 19.0919ZM12.5259 9.73275C14.1642 9.73275 15.4974 11.164 15.4974 12.923C15.4974 14.6819 14.1644 16.1132 12.5259 16.1132C10.8874 16.1132 9.55441 14.6821 9.55441 12.923C9.55441 11.1638 10.8874 9.73275 12.5259 9.73275Z" fill="#3C7CFF"/>
<path d="M70.391 49.5106H68.4468V46.9753C68.4468 38.0226 60.7251 30.6889 51.3191 30.6274C41.9172 30.6274 34.1915 37.9611 34.1915 46.9753V49.5106H31.6089C31.4142 49.5126 31.2218 49.5531 31.0429 49.6298C30.8639 49.7065 30.7019 49.8179 30.5661 49.9575C30.4304 50.0972 30.3237 50.2623 30.2521 50.4433C30.1805 50.6244 30.1454 50.8179 30.1489 51.0125V64.7498C30.1489 65.5723 30.7872 66.3191 31.6089 66.3191H39.8823C40.291 66.3032 40.6782 66.1319 40.9649 65.8403C41.2517 65.5487 41.4164 65.1587 41.4255 64.7498V51.0125C41.4138 50.6108 41.2462 50.2294 40.9581 49.949C40.6701 49.6687 40.2843 49.5115 39.8823 49.5106H37.1702V46.9753C37.1702 39.6036 43.5598 33.6062 51.3094 33.6062C59.074 33.657 65.4681 39.6545 65.4681 46.9753V49.5106H62.7049C62.3083 49.5133 61.9288 49.6727 61.6493 49.9541C61.3698 50.2355 61.2129 50.6159 61.2127 51.0125V64.7498C61.2104 65.1535 61.3645 65.5424 61.6427 65.835C61.9209 66.1276 62.3016 66.3011 62.7049 66.3191H64.617V69.0515C64.617 70.0868 63.8193 71 62.7842 71H58.4413C58.1169 69.9576 57.4299 69.0658 56.5048 68.4862C55.5797 67.9066 54.4776 67.6774 53.3981 67.8401C52.3186 68.0029 51.333 68.5468 50.6199 69.3734C49.9068 70.2 49.5133 71.2547 49.5106 72.3464C49.505 73.4209 49.8775 74.4631 50.5629 75.2906C51.2484 76.1182 52.203 76.6782 53.2598 76.8728C54.3165 77.0674 55.408 76.8841 56.3433 76.355C57.2785 75.8259 57.9978 74.9847 58.3753 73.9787H62.7842C65.4619 73.9787 67.5957 71.7291 67.5957 69.0515V66.3191H70.391C71.2127 66.3191 71.851 65.5723 71.851 64.7498V51.0125C71.8546 50.8179 71.8195 50.6244 71.7479 50.4433C71.6763 50.2623 71.5696 50.0972 71.4338 49.9575C71.2981 49.8179 71.1361 49.7065 70.9571 49.6298C70.7781 49.5531 70.5858 49.5126 70.391 49.5106ZM38.4468 63.3404H33.1276V52.4894H38.4468V63.3404ZM54.0864 73.9257C53.7705 73.9257 53.4617 73.8321 53.1991 73.6566C52.9365 73.4811 52.7318 73.2317 52.6109 72.9399C52.49 72.6481 52.4584 72.3269 52.52 72.0172C52.5817 71.7074 52.7338 71.4228 52.9571 71.1995C53.1805 70.9761 53.465 70.824 53.7748 70.7624C54.0846 70.7008 54.4057 70.7324 54.6975 70.8533C54.9893 70.9741 55.2388 71.1788 55.4142 71.4415C55.5897 71.7041 55.6834 72.0129 55.6834 72.3287C55.6829 72.7521 55.5145 73.1581 55.2151 73.4575C54.9157 73.7569 54.5098 73.9253 54.0864 73.9257ZM68.8723 63.3404H64.1915V52.4894H68.8723V63.3404Z" fill="#3C7CFF"/>
</svg>
