<svg width="102" height="95" viewBox="0 0 102 95" fill="none" xmlns="http://www.w3.org/2000/svg">
<path d="M66.0001 60.85H64.4834V54.3333C64.4834 46.9005 58.4329 40.85 51.0001 40.85C43.5672 40.85 37.5167 46.9005 37.5167 54.3333V60.85H36.0001C31.3172 60.85 27.5167 64.6505 27.5167 69.3333V86C27.5167 90.6828 31.3172 94.4833 36.0001 94.4833H66.0001C70.6829 94.4833 74.4834 90.6828 74.4834 86V69.3333C74.4834 64.6505 70.6829 60.85 66.0001 60.85ZM41.1501 54.3333C41.1501 48.8995 45.5663 44.4833 51.0001 44.4833C56.4339 44.4833 60.8501 48.8995 60.8501 54.3333V60.85H41.1501V54.3333ZM70.8501 86C70.8501 88.6672 68.6672 90.85 66.0001 90.85H36.0001C33.3329 90.85 31.1501 88.6672 31.1501 86V69.3333C31.1501 66.6662 33.3329 64.4833 36.0001 64.4833H66.0001C68.6672 64.4833 70.8501 66.6662 70.8501 69.3333V86Z" fill="#3C7CFF" stroke="#3C7CFF" stroke-width="0.3"/>
<path d="M91 0.85H11C5.40049 0.85 0.85 5.40049 0.85 11V61C0.85 66.5995 5.40049 71.15 11 71.15H22.6667C23.6662 71.15 24.4833 70.3328 24.4833 69.3333C24.4833 68.3338 23.6662 67.5167 22.6667 67.5167H11C7.39951 67.5167 4.48333 64.6005 4.48333 61V34.4833H97.5167V61C97.5167 64.6005 94.6005 67.5167 91 67.5167H79.3333C78.3338 67.5167 77.5167 68.3338 77.5167 69.3333C77.5167 70.3328 78.3338 71.15 79.3333 71.15H91C96.5995 71.15 101.15 66.5995 101.15 61V11C101.15 5.40049 96.5995 0.85 91 0.85ZM11 4.48333H91C94.6005 4.48333 97.5167 7.39951 97.5167 11V14.1833H4.48333V11C4.48333 7.39951 7.39951 4.48333 11 4.48333ZM4.48333 30.85V17.8167H97.5167V30.85H4.48333Z" fill="#3C7CFF" stroke="#3C7CFF" stroke-width="0.3"/>
<path d="M12.6667 57.8167H22.6667C23.6662 57.8167 24.4833 56.9996 24.4833 56C24.4833 55.0005 23.6662 54.1834 22.6667 54.1834H12.6667C11.6672 54.1834 10.85 55.0005 10.85 56C10.85 56.9996 11.6672 57.8167 12.6667 57.8167Z" fill="#3C7CFF" stroke="#3C7CFF" stroke-width="0.3"/>
<path d="M12.6667 49.4833H29.3333C30.3328 49.4833 31.15 48.6662 31.15 47.6667C31.15 46.6672 30.3328 45.85 29.3333 45.85H12.6667C11.6672 45.85 10.85 46.6672 10.85 47.6667C10.85 48.6662 11.6672 49.4833 12.6667 49.4833Z" fill="#3C7CFF" stroke="#3C7CFF" stroke-width="0.3"/>
<path d="M77.5167 52.6667C77.5167 56.4328 80.5672 59.4833 84.3334 59.4833C88.0996 59.4833 91.1501 56.4328 91.1501 52.6667C91.1501 48.9005 88.0996 45.85 84.3334 45.85C80.5672 45.85 77.5167 48.9005 77.5167 52.6667ZM81.1501 52.6667C81.1501 50.9162 82.5829 49.4833 84.3334 49.4833C86.0839 49.4833 87.5167 50.9162 87.5167 52.6667C87.5167 54.4172 86.0839 55.85 84.3334 55.85C82.5829 55.85 81.1501 54.4172 81.1501 52.6667Z" fill="#3C7CFF" stroke="#3C7CFF" stroke-width="0.3"/>
<path d="M56.15 74.3334C56.15 71.5005 53.8328 69.1834 51 69.1834C48.1672 69.1834 45.85 71.5005 45.85 74.3334C45.85 76.5297 47.2454 78.3912 49.1833 79.1375V84.3334C49.1833 85.3329 50.0005 86.15 51 86.15C51.9995 86.15 52.8167 85.3329 52.8167 84.3334V79.1383C54.7554 78.4076 56.15 76.5452 56.15 74.3334ZM51 72.8167C51.8338 72.8167 52.5167 73.4996 52.5167 74.3334C52.5167 75.1672 51.8338 75.85 51 75.85C50.1662 75.85 49.4833 75.1672 49.4833 74.3334C49.4833 73.4996 50.1662 72.8167 51 72.8167Z" fill="#3C7CFF" stroke="#3C7CFF" stroke-width="0.3"/>
</svg>
