<svg width="98" height="84" viewBox="0 0 98 84" fill="none" xmlns="http://www.w3.org/2000/svg">
<path d="M95.6581 82.3435C96.3999 82.3435 97 81.7435 97 81.0016V2.34667C97 1.60487 96.4 1.00477 95.6581 1.00477L2.34195 1.00005C1.60014 1.00005 1.00005 1.60011 1.00005 2.34195V80.9921C1.00005 81.7339 1.60011 82.334 2.34195 82.334L95.6581 82.3435ZM3.68821 3.68858H94.3167V12.0706L71.6941 12.0753C71.2546 12.0753 70.8436 12.2879 70.5931 12.647L67.7866 16.6537H3.68886L3.68821 3.68858ZM3.68821 19.3417H68.4851C68.9245 19.3417 69.3355 19.129 69.586 18.77L72.3925 14.7632H94.3112V79.6545H3.68755L3.68821 19.3417Z" fill="#3C7CFF"/>
<path d="M13.5062 8.86671H10.1469C9.40508 8.86671 8.80499 9.46676 8.80499 10.2086C8.80499 10.9505 9.40505 11.5505 10.1469 11.5505H13.5062C14.248 11.5505 14.8481 10.9505 14.8481 10.2086C14.8481 9.46676 14.2481 8.86671 13.5062 8.86671Z" fill="#3C7CFF"/>
<path d="M23.2215 8.86671H19.8622C19.1204 8.86671 18.5203 9.46676 18.5203 10.2086C18.5203 10.9505 19.1203 11.5505 19.8622 11.5505H23.2215C23.9633 11.5505 24.5634 10.9505 24.5634 10.2086C24.5634 9.46676 23.9634 8.86671 23.2215 8.86671Z" fill="#3C7CFF"/>
<path d="M32.9637 8.86671H29.6043C28.8625 8.86671 28.2624 9.46676 28.2624 10.2086C28.2624 10.9505 28.8625 11.5505 29.6043 11.5505H32.9637C33.7055 11.5505 34.3056 10.9505 34.3056 10.2086C34.3103 9.4668 33.7055 8.86671 32.9637 8.86671Z" fill="#3C7CFF"/>
<path d="M86.572 66.5999H81.5777V28.843C81.5777 28.1012 80.9777 27.5011 80.2358 27.5011H72.1421C71.4003 27.5011 70.8002 28.1012 70.8002 28.843V66.5999H63.1033L63.0939 35.8924C63.0939 35.1506 62.4938 34.5505 61.752 34.5505H53.6582C52.9164 34.5505 52.3163 35.1506 52.3163 35.8924V66.595H44.6479V44.4961C44.6479 43.7543 44.0478 43.1542 43.306 43.1542H35.2122C34.4704 43.1542 33.8703 43.7543 33.8703 44.4961V66.5986H27.213V51.814C27.213 51.0722 26.6129 50.4721 25.8711 50.4721H17.7773C17.0355 50.4721 16.4354 51.0722 16.4354 51.814V66.5986H11.4412C10.6994 66.5986 10.0993 67.1987 10.0993 67.9405C10.0993 68.6824 10.6994 69.2824 11.4412 69.2824H86.5811C87.3229 69.2824 87.923 68.6824 87.923 67.9405C87.9136 67.1987 87.3135 66.5986 86.5717 66.5986L86.572 66.5999ZM24.5196 66.5999H19.1143V53.1627H24.5196V66.5999ZM41.9593 66.5999H36.5539V45.8387H41.9593V66.5999ZM60.4101 66.5999H55.0047L55 37.2399H60.4054L60.4101 66.5999ZM78.8887 66.5999H73.4834L73.4787 30.1856H78.884L78.8887 66.5999Z" fill="#3C7CFF"/>
<path fill-rule="evenodd" clip-rule="evenodd" d="M2.34198 0.300049L95.6581 0.304774C96.7866 0.304774 97.7 1.21828 97.7 2.34667V81.0016C97.7 82.1301 96.7865 83.0435 95.6581 83.0435L2.34195 83.034C1.21349 83.034 0.300049 82.1205 0.300049 80.9921V2.34195C0.300049 1.21349 1.21359 0.300049 2.34198 0.300049ZM87.923 67.9405C87.923 68.6824 87.3229 69.2824 86.5811 69.2824H11.4412C10.6994 69.2824 10.0993 68.6824 10.0993 67.9405C10.0993 67.1987 10.6994 66.5986 11.4412 66.5986H16.4354V51.814C16.4354 51.0722 17.0355 50.4721 17.7773 50.4721H25.8711C26.6129 50.4721 27.213 51.0722 27.213 51.814V66.5986H33.8703V44.4961C33.8703 43.7543 34.4704 43.1542 35.2122 43.1542H43.306C44.0478 43.1542 44.6479 43.7543 44.6479 44.4961V66.595H52.3163V35.8924C52.3163 35.1506 52.9164 34.5505 53.6582 34.5505H61.752C62.4938 34.5505 63.0939 35.1506 63.0939 35.8924L63.1033 66.5999H70.8002V28.843C70.8002 28.1012 71.4003 27.5011 72.1421 27.5011H80.2358C80.9777 27.5011 81.5777 28.1012 81.5777 28.843V66.5999H86.572L86.5717 66.5986C86.5716 66.5986 86.5718 66.5986 86.5717 66.5986C86.5736 66.5986 86.5758 66.5987 86.5777 66.5987C86.8596 66.5999 87.1208 66.6878 87.3366 66.8371C87.6866 67.0792 87.9172 67.4829 87.923 67.9405ZM85.7106 65.8999L85.7104 65.8987H86.5717C87.7018 65.8987 88.6087 66.8119 88.623 67.9316L88.6231 67.9405C88.623 69.069 87.7095 69.9824 86.5811 69.9824H11.4412C10.3128 69.9824 9.39931 69.069 9.39931 67.9405C9.39931 66.8121 10.3128 65.8987 11.4412 65.8987H15.7354V51.814C15.7354 50.6856 16.6489 49.7721 17.7773 49.7721H25.8711C26.9995 49.7721 27.913 50.6856 27.913 51.814V65.8987H33.1703V44.4961C33.1703 43.3676 34.0838 42.4542 35.2122 42.4542H43.306C44.4344 42.4542 45.3479 43.3677 45.3479 44.4961V65.895H51.6163V35.8924C51.6163 34.764 52.5298 33.8505 53.6582 33.8505H61.752C62.8804 33.8505 63.7938 34.7639 63.7939 35.8922C63.7939 35.8921 63.7939 35.8923 63.7939 35.8922L63.8031 65.8999H70.1002V28.843C70.1002 27.7146 71.0137 26.8011 72.1421 26.8011H80.2358C81.3643 26.8011 82.2777 27.7146 82.2777 28.843V65.8999H85.7106ZM2.34195 1.00005C1.60014 1.00005 1.00005 1.60011 1.00005 2.34195V80.9921C1.00005 81.7339 1.60011 82.334 2.34195 82.334L95.6581 82.3435C96.3999 82.3435 97 81.7435 97 81.0016V2.34667C97 1.60487 96.4 1.00477 95.6581 1.00477L2.34195 1.00005ZM3.68886 16.6537H67.7866L70.5931 12.647C70.8436 12.2879 71.2546 12.0753 71.6941 12.0753L94.3167 12.0706V3.68858H3.68821L3.68886 16.6537ZM4.38824 4.38858H93.6167V11.3707L71.6941 11.3753C71.694 11.3753 71.6941 11.3753 71.6941 11.3753C71.0284 11.3753 70.4017 11.6978 70.019 12.2466L67.4223 15.9537H4.38882L4.38824 4.38858ZM68.4851 20.0417H4.3882L4.38756 78.9545H93.6112V15.4632H72.7569L70.1601 19.1704M72.3925 14.7632H94.3112V79.6545H3.68755L3.68821 19.3417H68.4851C68.9245 19.3417 69.3355 19.129 69.586 18.77L72.3925 14.7632ZM68.4851 20.0417C69.1503 20.0417 69.7765 19.7197 70.1593 19.1716L68.4851 20.0417ZM10.1469 8.16671H13.5062C14.6347 8.16671 15.5481 9.08016 15.5481 10.2086C15.5481 11.3371 14.6346 12.2505 13.5062 12.2505H10.1469C9.01845 12.2505 8.10499 11.337 8.10499 10.2086C8.10499 9.08015 9.01849 8.16671 10.1469 8.16671ZM19.8622 8.16671H23.2215C24.35 8.16671 25.2634 9.08016 25.2634 10.2086C25.2634 11.3371 24.3499 12.2505 23.2215 12.2505H19.8622C18.7337 12.2505 17.8203 11.337 17.8203 10.2086C17.8203 9.08015 18.7338 8.16671 19.8622 8.16671ZM29.6043 8.16671H32.9637C34.0872 8.16671 35.0114 9.0758 35.0056 10.2106C35.0045 11.3381 34.0914 12.2505 32.9637 12.2505H29.6043C28.4759 12.2505 27.5624 11.337 27.5624 10.2086C27.5624 9.08015 28.4759 8.16671 29.6043 8.16671ZM34.3056 10.2086L35.0055 10.2131C35.0055 10.2122 35.0056 10.2114 35.0056 10.2106C35.0056 10.2099 35.0056 10.2093 35.0056 10.2086H34.3056ZM34.3056 10.2086C34.3103 9.4668 33.7055 8.86671 32.9637 8.86671H29.6043C28.8625 8.86671 28.2624 9.46676 28.2624 10.2086C28.2624 10.9505 28.8625 11.5505 29.6043 11.5505H32.9637C33.7055 11.5505 34.3056 10.9505 34.3056 10.2086ZM19.8143 65.8999H23.8196V53.8627H19.8143V65.8999ZM37.2539 65.8999H41.2593V46.5387H37.2539V65.8999ZM55.7046 65.8999H59.71L59.7055 37.9399H55.7001L55.7046 65.8999ZM55.0047 66.5999L55 37.2399H60.4054L60.4101 66.5999H55.0047ZM74.1833 65.8999H78.1887L78.1841 30.8856H74.1788L74.1833 65.8999ZM73.4834 66.5999L73.4787 30.1856H78.884L78.8887 66.5999H73.4834ZM13.5062 8.86671H10.1469C9.40508 8.86671 8.80499 9.46676 8.80499 10.2086C8.80499 10.9505 9.40505 11.5505 10.1469 11.5505H13.5062C14.248 11.5505 14.8481 10.9505 14.8481 10.2086C14.8481 9.46676 14.2481 8.86671 13.5062 8.86671ZM19.8622 8.86671H23.2215C23.9634 8.86671 24.5634 9.46676 24.5634 10.2086C24.5634 10.9505 23.9633 11.5505 23.2215 11.5505H19.8622C19.1203 11.5505 18.5203 10.9505 18.5203 10.2086C18.5203 9.46676 19.1204 8.86671 19.8622 8.86671ZM24.5196 66.5999V53.1627H19.1143V66.5999H24.5196ZM41.9593 66.5999V45.8387H36.5539V66.5999H41.9593Z" fill="#3C7CFF"/>
</svg>
