<svg width="102" height="100" viewBox="0 0 102 100" fill="none" xmlns="http://www.w3.org/2000/svg">
<mask id="path-1-outside-1_173_683" maskUnits="userSpaceOnUse" x="0" y="5" width="102" height="90" fill="black">
<rect fill="white" y="5" width="102" height="90"/>
<path fill-rule="evenodd" clip-rule="evenodd" d="M4.24889 94C3.38768 93.9985 2.56217 93.6554 1.9532 93.0457C1.34423 92.4361 1.00147 91.6096 1 90.7474V9.25259C1.00147 8.3904 1.34423 7.56394 1.9532 6.95429C2.56217 6.34463 3.38768 6.00147 4.24889 6H97.7511C98.6123 6.00147 99.4378 6.34463 100.047 6.95429C100.656 7.56394 100.999 8.3904 101 9.25259V90.7474C100.999 91.6096 100.656 92.4361 100.047 93.0457C99.4378 93.6554 98.6123 93.9985 97.7511 94H4.24889ZM97.97 28.9261H4.03V90.7474C4.03 90.8064 4.05341 90.863 4.09509 90.9047C4.13676 90.9464 4.19329 90.9699 4.25222 90.9699H97.7511C97.8086 90.9691 97.8636 90.9459 97.9044 90.9054C97.9454 90.8647 97.9689 90.8096 97.97 90.7519V28.9294V28.9261ZM4.03 25.8959H97.97V9.25259C97.97 9.22337 97.9643 9.19444 97.9531 9.16745C97.9419 9.14046 97.9256 9.11593 97.9049 9.09527C97.8843 9.07461 97.8598 9.05823 97.8328 9.04705C97.8059 9.03586 97.777 9.03011 97.7478 9.03011H4.24889C4.18995 9.03011 4.13343 9.05355 4.09175 9.09527C4.05008 9.13699 4.02667 9.19358 4.02667 9.25259V25.8959H4.03ZM10.8889 19.2595H11.1111C11.5058 19.2488 11.8808 19.0843 12.1561 18.801C12.4315 18.5178 12.5856 18.1381 12.5856 17.7428C12.5856 17.3475 12.4315 16.9678 12.1561 16.6845C11.8808 16.4013 11.5058 16.2368 11.1111 16.2261H10.8889C10.6865 16.2206 10.485 16.2557 10.2964 16.3295C10.1078 16.4033 9.9359 16.5141 9.7908 16.6555C9.6457 16.7969 9.53037 16.9659 9.45162 17.1527C9.37287 17.3394 9.3323 17.5401 9.3323 17.7428C9.3323 17.9455 9.37287 18.1462 9.45162 18.3329C9.53037 18.5197 9.6457 18.6887 9.7908 18.8301C9.9359 18.9715 10.1078 19.0823 10.2964 19.1561C10.485 19.2298 10.6865 19.265 10.8889 19.2595ZM33.8622 19.2595H91.1111C91.3135 19.265 91.515 19.2298 91.7036 19.1561C91.8922 19.0823 92.0641 18.9715 92.2092 18.8301C92.3543 18.6887 92.4696 18.5197 92.5484 18.3329C92.6271 18.1462 92.6677 17.9455 92.6677 17.7428C92.6677 17.5401 92.6271 17.3394 92.5484 17.1527C92.4696 16.9659 92.3543 16.7969 92.2092 16.6555C92.0641 16.5141 91.8922 16.4033 91.7036 16.3295C91.515 16.2557 91.3135 16.2206 91.1111 16.2261H33.8667C33.472 16.2368 33.097 16.4013 32.8216 16.6845C32.5462 16.9678 32.3921 17.3475 32.3921 17.7428C32.3921 18.1381 32.5462 18.5178 32.8216 18.801C33.097 19.0843 33.472 19.2488 33.8667 19.2595H33.8622ZM17.8889 19.2595H18.1111C18.3135 19.265 18.515 19.2298 18.7036 19.1561C18.8922 19.0823 19.0641 18.9715 19.2092 18.8301C19.3543 18.6887 19.4696 18.5197 19.5484 18.3329C19.6271 18.1462 19.6677 17.9455 19.6677 17.7428C19.6677 17.5401 19.6271 17.3394 19.5484 17.1527C19.4696 16.9659 19.3543 16.7969 19.2092 16.6555C19.0641 16.5141 18.8922 16.4033 18.7036 16.3295C18.515 16.2557 18.3135 16.2206 18.1111 16.2261H17.8889C17.6865 16.2206 17.485 16.2557 17.2964 16.3295C17.1078 16.4033 16.9359 16.5141 16.7908 16.6555C16.6457 16.7969 16.5304 16.9659 16.4516 17.1527C16.3729 17.3394 16.3323 17.5401 16.3323 17.7428C16.3323 17.9455 16.3729 18.1462 16.4516 18.3329C16.5304 18.5197 16.6457 18.6887 16.7908 18.8301C16.9359 18.9715 17.1078 19.0823 17.2964 19.1561C17.485 19.2298 17.6865 19.265 17.8889 19.2595ZM24.8889 19.2595H25.1111C25.3135 19.265 25.515 19.2298 25.7036 19.1561C25.8922 19.0823 26.0641 18.9715 26.2092 18.8301C26.3543 18.6887 26.4696 18.5197 26.5484 18.3329C26.6271 18.1462 26.6677 17.9455 26.6677 17.7428C26.6677 17.5401 26.6271 17.3394 26.5484 17.1527C26.4696 16.9659 26.3543 16.7969 26.2092 16.6555C26.0641 16.5141 25.8922 16.4033 25.7036 16.3295C25.515 16.2557 25.3135 16.2206 25.1111 16.2261H24.8889C24.6865 16.2206 24.485 16.2557 24.2964 16.3295C24.1078 16.4033 23.9359 16.5141 23.7908 16.6555C23.6457 16.7969 23.5304 16.9659 23.4516 17.1527C23.3729 17.3394 23.3323 17.5401 23.3323 17.7428C23.3323 17.9455 23.3729 18.1462 23.4516 18.3329C23.5304 18.5197 23.6457 18.6887 23.7908 18.8301C23.9359 18.9715 24.1078 19.0823 24.2964 19.1561C24.485 19.2298 24.6865 19.265 24.8889 19.2595ZM53.2722 37.1254C52.7466 36.5991 52.0549 36.2715 51.315 36.1986C50.5752 36.1256 49.833 36.3117 49.2148 36.7252C48.5967 37.1387 48.1409 37.7539 47.9251 38.4661C47.7092 39.1784 47.7468 39.9435 48.0312 40.6311C48.3157 41.3187 48.8295 41.8863 49.4852 42.2372C50.1408 42.588 50.8977 42.7004 51.6268 42.5553C52.3559 42.4101 53.0122 42.0163 53.4839 41.441C53.9555 40.8657 54.2133 40.1444 54.2133 39.4002C54.2139 38.9776 54.131 38.5591 53.9695 38.1688C53.808 37.7784 53.571 37.4238 53.2722 37.1254ZM51 33.1497C49.5553 33.149 48.1551 33.6498 47.0378 34.5668C45.9206 35.4837 45.1555 36.7602 44.873 38.1786C44.5904 39.597 44.8078 41.0696 45.4882 42.3455C46.1686 43.6214 47.2698 44.6216 48.6043 45.1758C49.9387 45.7299 51.4238 45.8037 52.8065 45.3845C54.1892 44.9654 55.3839 44.0792 56.1872 42.877C56.9904 41.6748 57.3524 40.231 57.2115 38.7916C57.0706 37.3521 56.4355 36.0061 55.4144 34.9829C54.8356 34.4012 54.1476 33.9397 53.39 33.6251C52.6324 33.3105 51.8202 33.1489 51 33.1497ZM58.4633 53.2993H67.9578C68.1132 53.2941 68.2656 53.2557 68.405 53.1866C68.5443 53.1175 68.6672 53.0194 68.7656 52.8988C69.0446 52.5522 69.1968 52.1204 69.1968 51.6752C69.1968 51.23 69.0446 50.7983 68.7656 50.4516C68.6672 50.3311 68.5443 50.233 68.405 50.1639C68.2656 50.0948 68.1132 50.0564 67.9578 50.0512H33.1111C32.9557 50.0564 32.8033 50.0948 32.6639 50.1639C32.5246 50.233 32.4017 50.3311 32.3033 50.4516C32.0243 50.7983 31.8721 51.23 31.8721 51.6752C31.8721 52.1204 32.0243 52.5522 32.3033 52.8988C32.4017 53.0194 32.5246 53.1175 32.6639 53.1866C32.8033 53.2557 32.9557 53.2941 33.1111 53.2993H43.5989C44.0008 53.2993 44.3863 53.4592 44.6706 53.7437C44.9548 54.0282 45.1144 54.4142 45.1144 54.8166V81.8573C45.1286 82.1864 45.2502 82.5018 45.4605 82.7552C45.6708 83.0085 45.9583 83.1859 46.2789 83.26C46.9563 83.4706 47.6815 83.4706 48.3589 83.26C48.6787 83.185 48.9652 83.0073 49.1746 82.7541C49.3841 82.5008 49.505 82.1858 49.5189 81.8573V67.7913C49.5134 67.5887 49.5485 67.387 49.6222 67.1982C49.6959 67.0094 49.8066 66.8373 49.9478 66.692C50.089 66.5467 50.2579 66.4313 50.4444 66.3524C50.631 66.2736 50.8314 66.233 51.0339 66.233C51.2364 66.233 51.4368 66.2736 51.6233 66.3524C51.8099 66.4313 51.9787 66.5467 52.12 66.692C52.2612 66.8373 52.3719 67.0094 52.4456 67.1982C52.5192 67.387 52.5544 67.5887 52.5489 67.7913V81.8573C52.5628 82.1858 52.6837 82.5008 52.8932 82.7541C53.1026 83.0073 53.3891 83.185 53.7089 83.26C54.3863 83.4706 55.1115 83.4706 55.7889 83.26C56.1087 83.185 56.3952 83.0073 56.6046 82.7541C56.8141 82.5008 56.935 82.1858 56.9489 81.8573V54.8166C56.9489 54.4144 57.1084 54.0286 57.3924 53.7441C57.6764 53.4596 58.0616 53.2996 58.4633 53.2993ZM42.0878 56.3339V81.8573C42.0793 82.8267 42.3918 83.7716 42.9766 84.5442C43.5614 85.3169 44.3855 85.8737 45.32 86.1277C46.6184 86.5598 48.0216 86.5598 49.32 86.1277C49.945 85.9239 50.5267 85.6055 51.0356 85.1889C51.5448 85.6055 52.1269 85.9239 52.7522 86.1277C54.0506 86.5598 55.4538 86.5598 56.7522 86.1277C57.6865 85.8735 58.5103 85.3166 59.0949 84.5439C59.6795 83.7713 59.9919 82.8265 59.9833 81.8573V56.3339H67.9622C68.5492 56.3284 69.1281 56.1964 69.6596 55.9468C70.1911 55.6973 70.6627 55.3361 71.0422 54.8878C71.8087 53.9935 72.2301 52.8541 72.2301 51.6758C72.2301 50.4975 71.8087 49.358 71.0422 48.4638C70.6625 48.0157 70.1909 47.6546 69.6595 47.4051C69.128 47.1555 68.5492 47.0234 67.9622 47.0177H33.1111C32.5242 47.0234 31.9453 47.1555 31.4139 47.4051C30.8824 47.6546 30.4108 48.0157 30.0311 48.4638C29.2646 49.358 28.8432 50.4975 28.8432 51.6758C28.8432 52.8541 29.2646 53.9935 30.0311 54.8878C30.4107 55.3361 30.8822 55.6973 31.4137 55.9468C31.9452 56.1964 32.5241 56.3284 33.1111 56.3339H42.0878Z"/>
</mask>
<path fill-rule="evenodd" clip-rule="evenodd" d="M4.24889 94C3.38768 93.9985 2.56217 93.6554 1.9532 93.0457C1.34423 92.4361 1.00147 91.6096 1 90.7474V9.25259C1.00147 8.3904 1.34423 7.56394 1.9532 6.95429C2.56217 6.34463 3.38768 6.00147 4.24889 6H97.7511C98.6123 6.00147 99.4378 6.34463 100.047 6.95429C100.656 7.56394 100.999 8.3904 101 9.25259V90.7474C100.999 91.6096 100.656 92.4361 100.047 93.0457C99.4378 93.6554 98.6123 93.9985 97.7511 94H4.24889ZM97.97 28.9261H4.03V90.7474C4.03 90.8064 4.05341 90.863 4.09509 90.9047C4.13676 90.9464 4.19329 90.9699 4.25222 90.9699H97.7511C97.8086 90.9691 97.8636 90.9459 97.9044 90.9054C97.9454 90.8647 97.9689 90.8096 97.97 90.7519V28.9294V28.9261ZM4.03 25.8959H97.97V9.25259C97.97 9.22337 97.9643 9.19444 97.9531 9.16745C97.9419 9.14046 97.9256 9.11593 97.9049 9.09527C97.8843 9.07461 97.8598 9.05823 97.8328 9.04705C97.8059 9.03586 97.777 9.03011 97.7478 9.03011H4.24889C4.18995 9.03011 4.13343 9.05355 4.09175 9.09527C4.05008 9.13699 4.02667 9.19358 4.02667 9.25259V25.8959H4.03ZM10.8889 19.2595H11.1111C11.5058 19.2488 11.8808 19.0843 12.1561 18.801C12.4315 18.5178 12.5856 18.1381 12.5856 17.7428C12.5856 17.3475 12.4315 16.9678 12.1561 16.6845C11.8808 16.4013 11.5058 16.2368 11.1111 16.2261H10.8889C10.6865 16.2206 10.485 16.2557 10.2964 16.3295C10.1078 16.4033 9.9359 16.5141 9.7908 16.6555C9.6457 16.7969 9.53037 16.9659 9.45162 17.1527C9.37287 17.3394 9.3323 17.5401 9.3323 17.7428C9.3323 17.9455 9.37287 18.1462 9.45162 18.3329C9.53037 18.5197 9.6457 18.6887 9.7908 18.8301C9.9359 18.9715 10.1078 19.0823 10.2964 19.1561C10.485 19.2298 10.6865 19.265 10.8889 19.2595ZM33.8622 19.2595H91.1111C91.3135 19.265 91.515 19.2298 91.7036 19.1561C91.8922 19.0823 92.0641 18.9715 92.2092 18.8301C92.3543 18.6887 92.4696 18.5197 92.5484 18.3329C92.6271 18.1462 92.6677 17.9455 92.6677 17.7428C92.6677 17.5401 92.6271 17.3394 92.5484 17.1527C92.4696 16.9659 92.3543 16.7969 92.2092 16.6555C92.0641 16.5141 91.8922 16.4033 91.7036 16.3295C91.515 16.2557 91.3135 16.2206 91.1111 16.2261H33.8667C33.472 16.2368 33.097 16.4013 32.8216 16.6845C32.5462 16.9678 32.3921 17.3475 32.3921 17.7428C32.3921 18.1381 32.5462 18.5178 32.8216 18.801C33.097 19.0843 33.472 19.2488 33.8667 19.2595H33.8622ZM17.8889 19.2595H18.1111C18.3135 19.265 18.515 19.2298 18.7036 19.1561C18.8922 19.0823 19.0641 18.9715 19.2092 18.8301C19.3543 18.6887 19.4696 18.5197 19.5484 18.3329C19.6271 18.1462 19.6677 17.9455 19.6677 17.7428C19.6677 17.5401 19.6271 17.3394 19.5484 17.1527C19.4696 16.9659 19.3543 16.7969 19.2092 16.6555C19.0641 16.5141 18.8922 16.4033 18.7036 16.3295C18.515 16.2557 18.3135 16.2206 18.1111 16.2261H17.8889C17.6865 16.2206 17.485 16.2557 17.2964 16.3295C17.1078 16.4033 16.9359 16.5141 16.7908 16.6555C16.6457 16.7969 16.5304 16.9659 16.4516 17.1527C16.3729 17.3394 16.3323 17.5401 16.3323 17.7428C16.3323 17.9455 16.3729 18.1462 16.4516 18.3329C16.5304 18.5197 16.6457 18.6887 16.7908 18.8301C16.9359 18.9715 17.1078 19.0823 17.2964 19.1561C17.485 19.2298 17.6865 19.265 17.8889 19.2595ZM24.8889 19.2595H25.1111C25.3135 19.265 25.515 19.2298 25.7036 19.1561C25.8922 19.0823 26.0641 18.9715 26.2092 18.8301C26.3543 18.6887 26.4696 18.5197 26.5484 18.3329C26.6271 18.1462 26.6677 17.9455 26.6677 17.7428C26.6677 17.5401 26.6271 17.3394 26.5484 17.1527C26.4696 16.9659 26.3543 16.7969 26.2092 16.6555C26.0641 16.5141 25.8922 16.4033 25.7036 16.3295C25.515 16.2557 25.3135 16.2206 25.1111 16.2261H24.8889C24.6865 16.2206 24.485 16.2557 24.2964 16.3295C24.1078 16.4033 23.9359 16.5141 23.7908 16.6555C23.6457 16.7969 23.5304 16.9659 23.4516 17.1527C23.3729 17.3394 23.3323 17.5401 23.3323 17.7428C23.3323 17.9455 23.3729 18.1462 23.4516 18.3329C23.5304 18.5197 23.6457 18.6887 23.7908 18.8301C23.9359 18.9715 24.1078 19.0823 24.2964 19.1561C24.485 19.2298 24.6865 19.265 24.8889 19.2595ZM53.2722 37.1254C52.7466 36.5991 52.0549 36.2715 51.315 36.1986C50.5752 36.1256 49.833 36.3117 49.2148 36.7252C48.5967 37.1387 48.1409 37.7539 47.9251 38.4661C47.7092 39.1784 47.7468 39.9435 48.0312 40.6311C48.3157 41.3187 48.8295 41.8863 49.4852 42.2372C50.1408 42.588 50.8977 42.7004 51.6268 42.5553C52.3559 42.4101 53.0122 42.0163 53.4839 41.441C53.9555 40.8657 54.2133 40.1444 54.2133 39.4002C54.2139 38.9776 54.131 38.5591 53.9695 38.1688C53.808 37.7784 53.571 37.4238 53.2722 37.1254ZM51 33.1497C49.5553 33.149 48.1551 33.6498 47.0378 34.5668C45.9206 35.4837 45.1555 36.7602 44.873 38.1786C44.5904 39.597 44.8078 41.0696 45.4882 42.3455C46.1686 43.6214 47.2698 44.6216 48.6043 45.1758C49.9387 45.7299 51.4238 45.8037 52.8065 45.3845C54.1892 44.9654 55.3839 44.0792 56.1872 42.877C56.9904 41.6748 57.3524 40.231 57.2115 38.7916C57.0706 37.3521 56.4355 36.0061 55.4144 34.9829C54.8356 34.4012 54.1476 33.9397 53.39 33.6251C52.6324 33.3105 51.8202 33.1489 51 33.1497ZM58.4633 53.2993H67.9578C68.1132 53.2941 68.2656 53.2557 68.405 53.1866C68.5443 53.1175 68.6672 53.0194 68.7656 52.8988C69.0446 52.5522 69.1968 52.1204 69.1968 51.6752C69.1968 51.23 69.0446 50.7983 68.7656 50.4516C68.6672 50.3311 68.5443 50.233 68.405 50.1639C68.2656 50.0948 68.1132 50.0564 67.9578 50.0512H33.1111C32.9557 50.0564 32.8033 50.0948 32.6639 50.1639C32.5246 50.233 32.4017 50.3311 32.3033 50.4516C32.0243 50.7983 31.8721 51.23 31.8721 51.6752C31.8721 52.1204 32.0243 52.5522 32.3033 52.8988C32.4017 53.0194 32.5246 53.1175 32.6639 53.1866C32.8033 53.2557 32.9557 53.2941 33.1111 53.2993H43.5989C44.0008 53.2993 44.3863 53.4592 44.6706 53.7437C44.9548 54.0282 45.1144 54.4142 45.1144 54.8166V81.8573C45.1286 82.1864 45.2502 82.5018 45.4605 82.7552C45.6708 83.0085 45.9583 83.1859 46.2789 83.26C46.9563 83.4706 47.6815 83.4706 48.3589 83.26C48.6787 83.185 48.9652 83.0073 49.1746 82.7541C49.3841 82.5008 49.505 82.1858 49.5189 81.8573V67.7913C49.5134 67.5887 49.5485 67.387 49.6222 67.1982C49.6959 67.0094 49.8066 66.8373 49.9478 66.692C50.089 66.5467 50.2579 66.4313 50.4444 66.3524C50.631 66.2736 50.8314 66.233 51.0339 66.233C51.2364 66.233 51.4368 66.2736 51.6233 66.3524C51.8099 66.4313 51.9787 66.5467 52.12 66.692C52.2612 66.8373 52.3719 67.0094 52.4456 67.1982C52.5192 67.387 52.5544 67.5887 52.5489 67.7913V81.8573C52.5628 82.1858 52.6837 82.5008 52.8932 82.7541C53.1026 83.0073 53.3891 83.185 53.7089 83.26C54.3863 83.4706 55.1115 83.4706 55.7889 83.26C56.1087 83.185 56.3952 83.0073 56.6046 82.7541C56.8141 82.5008 56.935 82.1858 56.9489 81.8573V54.8166C56.9489 54.4144 57.1084 54.0286 57.3924 53.7441C57.6764 53.4596 58.0616 53.2996 58.4633 53.2993ZM42.0878 56.3339V81.8573C42.0793 82.8267 42.3918 83.7716 42.9766 84.5442C43.5614 85.3169 44.3855 85.8737 45.32 86.1277C46.6184 86.5598 48.0216 86.5598 49.32 86.1277C49.945 85.9239 50.5267 85.6055 51.0356 85.1889C51.5448 85.6055 52.1269 85.9239 52.7522 86.1277C54.0506 86.5598 55.4538 86.5598 56.7522 86.1277C57.6865 85.8735 58.5103 85.3166 59.0949 84.5439C59.6795 83.7713 59.9919 82.8265 59.9833 81.8573V56.3339H67.9622C68.5492 56.3284 69.1281 56.1964 69.6596 55.9468C70.1911 55.6973 70.6627 55.3361 71.0422 54.8878C71.8087 53.9935 72.2301 52.8541 72.2301 51.6758C72.2301 50.4975 71.8087 49.358 71.0422 48.4638C70.6625 48.0157 70.1909 47.6546 69.6595 47.4051C69.128 47.1555 68.5492 47.0234 67.9622 47.0177H33.1111C32.5242 47.0234 31.9453 47.1555 31.4139 47.4051C30.8824 47.6546 30.4108 48.0157 30.0311 48.4638C29.2646 49.358 28.8432 50.4975 28.8432 51.6758C28.8432 52.8541 29.2646 53.9935 30.0311 54.8878C30.4107 55.3361 30.8822 55.6973 31.4137 55.9468C31.9452 56.1964 32.5241 56.3284 33.1111 56.3339H42.0878Z" fill="#3C7CFF"/>
<path fill-rule="evenodd" clip-rule="evenodd" d="M4.24889 94C3.38768 93.9985 2.56217 93.6554 1.9532 93.0457C1.34423 92.4361 1.00147 91.6096 1 90.7474V9.25259C1.00147 8.3904 1.34423 7.56394 1.9532 6.95429C2.56217 6.34463 3.38768 6.00147 4.24889 6H97.7511C98.6123 6.00147 99.4378 6.34463 100.047 6.95429C100.656 7.56394 100.999 8.3904 101 9.25259V90.7474C100.999 91.6096 100.656 92.4361 100.047 93.0457C99.4378 93.6554 98.6123 93.9985 97.7511 94H4.24889ZM97.97 28.9261H4.03V90.7474C4.03 90.8064 4.05341 90.863 4.09509 90.9047C4.13676 90.9464 4.19329 90.9699 4.25222 90.9699H97.7511C97.8086 90.9691 97.8636 90.9459 97.9044 90.9054C97.9454 90.8647 97.9689 90.8096 97.97 90.7519V28.9294V28.9261ZM4.03 25.8959H97.97V9.25259C97.97 9.22337 97.9643 9.19444 97.9531 9.16745C97.9419 9.14046 97.9256 9.11593 97.9049 9.09527C97.8843 9.07461 97.8598 9.05823 97.8328 9.04705C97.8059 9.03586 97.777 9.03011 97.7478 9.03011H4.24889C4.18995 9.03011 4.13343 9.05355 4.09175 9.09527C4.05008 9.13699 4.02667 9.19358 4.02667 9.25259V25.8959H4.03ZM10.8889 19.2595H11.1111C11.5058 19.2488 11.8808 19.0843 12.1561 18.801C12.4315 18.5178 12.5856 18.1381 12.5856 17.7428C12.5856 17.3475 12.4315 16.9678 12.1561 16.6845C11.8808 16.4013 11.5058 16.2368 11.1111 16.2261H10.8889C10.6865 16.2206 10.485 16.2557 10.2964 16.3295C10.1078 16.4033 9.9359 16.5141 9.7908 16.6555C9.6457 16.7969 9.53037 16.9659 9.45162 17.1527C9.37287 17.3394 9.3323 17.5401 9.3323 17.7428C9.3323 17.9455 9.37287 18.1462 9.45162 18.3329C9.53037 18.5197 9.6457 18.6887 9.7908 18.8301C9.9359 18.9715 10.1078 19.0823 10.2964 19.1561C10.485 19.2298 10.6865 19.265 10.8889 19.2595ZM33.8622 19.2595H91.1111C91.3135 19.265 91.515 19.2298 91.7036 19.1561C91.8922 19.0823 92.0641 18.9715 92.2092 18.8301C92.3543 18.6887 92.4696 18.5197 92.5484 18.3329C92.6271 18.1462 92.6677 17.9455 92.6677 17.7428C92.6677 17.5401 92.6271 17.3394 92.5484 17.1527C92.4696 16.9659 92.3543 16.7969 92.2092 16.6555C92.0641 16.5141 91.8922 16.4033 91.7036 16.3295C91.515 16.2557 91.3135 16.2206 91.1111 16.2261H33.8667C33.472 16.2368 33.097 16.4013 32.8216 16.6845C32.5462 16.9678 32.3921 17.3475 32.3921 17.7428C32.3921 18.1381 32.5462 18.5178 32.8216 18.801C33.097 19.0843 33.472 19.2488 33.8667 19.2595H33.8622ZM17.8889 19.2595H18.1111C18.3135 19.265 18.515 19.2298 18.7036 19.1561C18.8922 19.0823 19.0641 18.9715 19.2092 18.8301C19.3543 18.6887 19.4696 18.5197 19.5484 18.3329C19.6271 18.1462 19.6677 17.9455 19.6677 17.7428C19.6677 17.5401 19.6271 17.3394 19.5484 17.1527C19.4696 16.9659 19.3543 16.7969 19.2092 16.6555C19.0641 16.5141 18.8922 16.4033 18.7036 16.3295C18.515 16.2557 18.3135 16.2206 18.1111 16.2261H17.8889C17.6865 16.2206 17.485 16.2557 17.2964 16.3295C17.1078 16.4033 16.9359 16.5141 16.7908 16.6555C16.6457 16.7969 16.5304 16.9659 16.4516 17.1527C16.3729 17.3394 16.3323 17.5401 16.3323 17.7428C16.3323 17.9455 16.3729 18.1462 16.4516 18.3329C16.5304 18.5197 16.6457 18.6887 16.7908 18.8301C16.9359 18.9715 17.1078 19.0823 17.2964 19.1561C17.485 19.2298 17.6865 19.265 17.8889 19.2595ZM24.8889 19.2595H25.1111C25.3135 19.265 25.515 19.2298 25.7036 19.1561C25.8922 19.0823 26.0641 18.9715 26.2092 18.8301C26.3543 18.6887 26.4696 18.5197 26.5484 18.3329C26.6271 18.1462 26.6677 17.9455 26.6677 17.7428C26.6677 17.5401 26.6271 17.3394 26.5484 17.1527C26.4696 16.9659 26.3543 16.7969 26.2092 16.6555C26.0641 16.5141 25.8922 16.4033 25.7036 16.3295C25.515 16.2557 25.3135 16.2206 25.1111 16.2261H24.8889C24.6865 16.2206 24.485 16.2557 24.2964 16.3295C24.1078 16.4033 23.9359 16.5141 23.7908 16.6555C23.6457 16.7969 23.5304 16.9659 23.4516 17.1527C23.3729 17.3394 23.3323 17.5401 23.3323 17.7428C23.3323 17.9455 23.3729 18.1462 23.4516 18.3329C23.5304 18.5197 23.6457 18.6887 23.7908 18.8301C23.9359 18.9715 24.1078 19.0823 24.2964 19.1561C24.485 19.2298 24.6865 19.265 24.8889 19.2595ZM53.2722 37.1254C52.7466 36.5991 52.0549 36.2715 51.315 36.1986C50.5752 36.1256 49.833 36.3117 49.2148 36.7252C48.5967 37.1387 48.1409 37.7539 47.9251 38.4661C47.7092 39.1784 47.7468 39.9435 48.0312 40.6311C48.3157 41.3187 48.8295 41.8863 49.4852 42.2372C50.1408 42.588 50.8977 42.7004 51.6268 42.5553C52.3559 42.4101 53.0122 42.0163 53.4839 41.441C53.9555 40.8657 54.2133 40.1444 54.2133 39.4002C54.2139 38.9776 54.131 38.5591 53.9695 38.1688C53.808 37.7784 53.571 37.4238 53.2722 37.1254ZM51 33.1497C49.5553 33.149 48.1551 33.6498 47.0378 34.5668C45.9206 35.4837 45.1555 36.7602 44.873 38.1786C44.5904 39.597 44.8078 41.0696 45.4882 42.3455C46.1686 43.6214 47.2698 44.6216 48.6043 45.1758C49.9387 45.7299 51.4238 45.8037 52.8065 45.3845C54.1892 44.9654 55.3839 44.0792 56.1872 42.877C56.9904 41.6748 57.3524 40.231 57.2115 38.7916C57.0706 37.3521 56.4355 36.0061 55.4144 34.9829C54.8356 34.4012 54.1476 33.9397 53.39 33.6251C52.6324 33.3105 51.8202 33.1489 51 33.1497ZM58.4633 53.2993H67.9578C68.1132 53.2941 68.2656 53.2557 68.405 53.1866C68.5443 53.1175 68.6672 53.0194 68.7656 52.8988C69.0446 52.5522 69.1968 52.1204 69.1968 51.6752C69.1968 51.23 69.0446 50.7983 68.7656 50.4516C68.6672 50.3311 68.5443 50.233 68.405 50.1639C68.2656 50.0948 68.1132 50.0564 67.9578 50.0512H33.1111C32.9557 50.0564 32.8033 50.0948 32.6639 50.1639C32.5246 50.233 32.4017 50.3311 32.3033 50.4516C32.0243 50.7983 31.8721 51.23 31.8721 51.6752C31.8721 52.1204 32.0243 52.5522 32.3033 52.8988C32.4017 53.0194 32.5246 53.1175 32.6639 53.1866C32.8033 53.2557 32.9557 53.2941 33.1111 53.2993H43.5989C44.0008 53.2993 44.3863 53.4592 44.6706 53.7437C44.9548 54.0282 45.1144 54.4142 45.1144 54.8166V81.8573C45.1286 82.1864 45.2502 82.5018 45.4605 82.7552C45.6708 83.0085 45.9583 83.1859 46.2789 83.26C46.9563 83.4706 47.6815 83.4706 48.3589 83.26C48.6787 83.185 48.9652 83.0073 49.1746 82.7541C49.3841 82.5008 49.505 82.1858 49.5189 81.8573V67.7913C49.5134 67.5887 49.5485 67.387 49.6222 67.1982C49.6959 67.0094 49.8066 66.8373 49.9478 66.692C50.089 66.5467 50.2579 66.4313 50.4444 66.3524C50.631 66.2736 50.8314 66.233 51.0339 66.233C51.2364 66.233 51.4368 66.2736 51.6233 66.3524C51.8099 66.4313 51.9787 66.5467 52.12 66.692C52.2612 66.8373 52.3719 67.0094 52.4456 67.1982C52.5192 67.387 52.5544 67.5887 52.5489 67.7913V81.8573C52.5628 82.1858 52.6837 82.5008 52.8932 82.7541C53.1026 83.0073 53.3891 83.185 53.7089 83.26C54.3863 83.4706 55.1115 83.4706 55.7889 83.26C56.1087 83.185 56.3952 83.0073 56.6046 82.7541C56.8141 82.5008 56.935 82.1858 56.9489 81.8573V54.8166C56.9489 54.4144 57.1084 54.0286 57.3924 53.7441C57.6764 53.4596 58.0616 53.2996 58.4633 53.2993ZM42.0878 56.3339V81.8573C42.0793 82.8267 42.3918 83.7716 42.9766 84.5442C43.5614 85.3169 44.3855 85.8737 45.32 86.1277C46.6184 86.5598 48.0216 86.5598 49.32 86.1277C49.945 85.9239 50.5267 85.6055 51.0356 85.1889C51.5448 85.6055 52.1269 85.9239 52.7522 86.1277C54.0506 86.5598 55.4538 86.5598 56.7522 86.1277C57.6865 85.8735 58.5103 85.3166 59.0949 84.5439C59.6795 83.7713 59.9919 82.8265 59.9833 81.8573V56.3339H67.9622C68.5492 56.3284 69.1281 56.1964 69.6596 55.9468C70.1911 55.6973 70.6627 55.3361 71.0422 54.8878C71.8087 53.9935 72.2301 52.8541 72.2301 51.6758C72.2301 50.4975 71.8087 49.358 71.0422 48.4638C70.6625 48.0157 70.1909 47.6546 69.6595 47.4051C69.128 47.1555 68.5492 47.0234 67.9622 47.0177H33.1111C32.5242 47.0234 31.9453 47.1555 31.4139 47.4051C30.8824 47.6546 30.4108 48.0157 30.0311 48.4638C29.2646 49.358 28.8432 50.4975 28.8432 51.6758C28.8432 52.8541 29.2646 53.9935 30.0311 54.8878C30.4107 55.3361 30.8822 55.6973 31.4137 55.9468C31.9452 56.1964 32.5241 56.3284 33.1111 56.3339H42.0878Z" stroke="#3C7CFF" stroke-width="0.6" mask="url(#path-1-outside-1_173_683)"/>
</svg>
