<svg width="100" height="100" viewBox="0 0 100 100" fill="none" xmlns="http://www.w3.org/2000/svg">
<mask id="path-1-outside-1_173_703" maskUnits="userSpaceOnUse" x="4" y="1" width="91" height="98" fill="black">
<rect fill="white" x="4" y="1" width="91" height="98"/>
<path d="M58.0991 58.4478C57.1518 58.4478 56.2084 58.1965 55.3385 57.6977L50.7492 55.057C50.0301 54.6433 49.5197 54.6433 48.8005 55.057L44.2113 57.6977C42.5797 58.6372 40.6775 58.6991 38.9918 57.864C37.3061 57.0327 36.1965 55.4863 35.9491 53.6226L35.3073 48.7936C35.1874 47.885 34.65 47.2007 33.7956 46.8644L28.866 44.9197C27.1185 44.2276 25.8813 42.7815 25.483 40.9451C25.0809 39.1086 25.599 37.276 26.9019 35.919L30.2772 32.4045C30.9113 31.7434 31.1124 30.8967 30.8456 30.0189L29.2913 24.9579C28.7385 23.1601 29.1058 21.2927 30.2888 19.8312C31.4758 18.3697 33.2311 17.6351 35.1024 17.8053L39.9545 18.2537C40.867 18.3388 41.6558 17.9676 42.1738 17.2098L45.1624 12.837C46.2218 11.2905 47.8959 10.4129 49.7788 10.4206H49.8213C51.681 10.4206 53.3435 11.2982 54.3952 12.837L57.3838 17.2098C57.9019 17.9676 58.6906 18.3388 59.6031 18.2537L64.4552 17.8053C66.3303 17.6313 68.0818 18.3697 69.2688 19.8312C70.4557 21.2927 70.8192 23.1601 70.2663 24.9579L68.712 30.0189C68.4414 30.8966 68.6463 31.7433 69.2804 32.4045L72.6557 35.919C73.9586 37.276 74.4728 39.1048 74.0746 40.9451C73.6725 42.7816 72.4392 44.2315 70.6916 44.9197L65.762 46.8644C64.9076 47.2007 64.3741 47.885 64.2504 48.7936L63.6085 53.6226C63.3611 55.4862 62.2515 57.0327 60.5658 57.864C59.7693 58.2545 58.9342 58.4478 58.0991 58.4478ZM49.7749 51.6161C50.6216 51.6161 51.4683 51.8597 52.3073 52.343L56.8966 54.9837C57.6273 55.4051 58.4161 55.4283 59.17 55.0571C59.9278 54.686 60.384 54.0442 60.4961 53.209L61.1379 48.38C61.4085 46.3541 62.7037 44.6993 64.6021 43.9531L69.5316 42.0084C70.3165 41.6991 70.8269 41.0998 71.0086 40.2763C71.1864 39.4528 70.9738 38.6949 70.39 38.0841L67.0147 34.5696C65.5996 33.0966 65.1163 31.0513 65.7117 29.1027L67.266 24.0417C67.5134 23.2337 67.3626 22.4604 66.8291 21.807C66.2994 21.1498 65.5726 20.8443 64.7297 20.9217L59.8775 21.3701C57.8438 21.5557 55.9416 20.6626 54.7895 18.9769L51.8009 14.6041C51.3253 13.9081 50.6294 13.5447 49.7826 13.5524H49.7556C48.9204 13.5486 48.2129 13.9081 47.7373 14.6041L44.7487 18.9769C43.5965 20.6626 41.6944 21.5557 39.6607 21.3701L34.8085 20.9217C33.9657 20.8443 33.2427 21.1498 32.7091 21.807C32.1794 22.4643 32.0287 23.2337 32.2722 24.0417L33.8265 29.1027C34.4257 31.0553 33.9386 33.0967 32.5235 34.5696L29.1482 38.0841C28.5644 38.6911 28.3518 39.4489 28.5296 40.2763C28.7075 41.0998 29.2217 41.6991 30.0065 42.0084L34.9361 43.9531C36.8345 44.7031 38.1297 46.3579 38.4003 48.38L39.0421 53.209C39.1542 54.0441 39.6105 54.686 40.3682 55.0571C41.126 55.4283 41.9109 55.4051 42.6455 54.9837L47.2347 52.343C48.0815 51.8597 48.9281 51.6161 49.7749 51.6161Z"/>
<path d="M55.6671 45.0669C55.4235 45.0669 55.1838 45.0128 54.9596 44.8968L49.8251 42.2909L44.5785 44.9045C44.0566 45.1636 43.4263 45.1133 42.9586 44.7654C42.4869 44.4174 42.2472 43.8374 42.3361 43.2614L43.2292 37.5741L39.1232 33.3907C38.7134 32.9731 38.5704 32.3622 38.756 31.8055C38.9377 31.2487 39.4171 30.8428 39.9932 30.75L45.6805 29.8414L48.3908 24.6413C48.6614 24.1232 49.195 23.7984 49.7787 23.7984H49.7865C50.3703 23.8023 50.9077 24.1309 51.1744 24.6529L53.7957 29.7796L59.5758 30.75C60.1519 30.8467 60.6274 31.2565 60.8053 31.8132C60.9832 32.37 60.8362 32.9809 60.4225 33.3946L56.3552 37.4735L57.2174 43.273C57.3024 43.853 57.0588 44.4291 56.5833 44.7731C56.3126 44.9703 55.9919 45.0669 55.6671 45.0669ZM43.4771 33.3599L46.0134 35.9426C46.3613 36.2945 46.5198 36.7932 46.4425 37.2804L45.8974 40.7523L49.1373 39.1401C49.5819 38.9197 50.1039 38.9236 50.5408 39.1478L53.6725 40.7369L53.139 37.1606C53.0655 36.6734 53.2279 36.1785 53.5797 35.8228L56.0619 33.3329L52.4932 32.7336C52.0061 32.6524 51.5847 32.3431 51.3605 31.9024L49.7637 28.7707L48.0934 31.9797C47.8653 32.4204 47.44 32.722 46.9529 32.7993L43.4771 33.3599Z"/>
<path d="M49.775 6.72457C48.9129 6.72457 48.2092 6.02478 48.2092 5.15876V3.56582C48.2092 2.70364 48.909 2 49.775 2C50.6372 2 51.3409 2.6998 51.3409 3.56582V5.15876C51.3409 6.02481 50.6372 6.72457 49.775 6.72457Z"/>
<path d="M64.4087 10.6486C64.1458 10.6486 63.8752 10.5829 63.6277 10.4399C62.8815 10.0068 62.6225 9.0519 63.0555 8.30175L63.852 6.92151C64.285 6.17532 65.2399 5.9163 65.9901 6.34931C66.7363 6.78233 66.9953 7.73726 66.5623 8.48741L65.7658 9.86765C65.4758 10.3664 64.95 10.6486 64.4087 10.6486Z"/>
<path d="M75.1261 21.3619C74.5848 21.3619 74.059 21.0797 73.769 20.5809C73.336 19.8347 73.595 18.8759 74.3412 18.4428L75.7215 17.6464C76.4677 17.2134 77.4266 17.4724 77.8596 18.2186C78.2926 18.9648 78.0336 19.9237 77.2874 20.3567L75.9071 21.1532C75.6636 21.2923 75.3929 21.3619 75.1261 21.3619Z"/>
<path d="M80.6399 35.9967H79.047C78.1848 35.9967 77.4812 35.2969 77.4812 34.4309C77.4812 33.5687 78.181 32.8651 79.047 32.8651H80.6399C81.5021 32.8651 82.2057 33.5649 82.2057 34.4309C82.2019 35.297 81.5021 35.9967 80.6399 35.9967Z"/>
<path d="M76.5027 51.4303C76.2398 51.4303 75.9691 51.3646 75.7217 51.2216L74.3415 50.4251C73.5953 49.9921 73.3363 49.0371 73.7693 48.287C74.2023 47.5408 75.1572 47.2818 75.9073 47.7148L77.2876 48.5112C78.0338 48.9443 78.2928 49.8992 77.8598 50.6494C77.5698 51.1481 77.044 51.4303 76.5027 51.4303Z"/>
<path d="M65.2095 62.7276C64.6683 62.7276 64.1425 62.4454 63.8525 61.9466L63.056 60.5664C62.623 59.8202 62.882 58.8613 63.6282 58.4283C64.3744 57.9953 65.3333 58.2543 65.7663 59.0005L66.5628 60.3807C66.9958 61.1269 66.7368 62.0858 65.9906 62.5188C65.7431 62.658 65.4763 62.7276 65.2095 62.7276Z"/>
<path d="M49.775 66.8609C48.9129 66.8609 48.2092 66.1611 48.2092 65.2951V63.7022C48.2092 62.84 48.909 62.1363 49.775 62.1363C50.6372 62.1363 51.3409 62.8361 51.3409 63.7022V65.2951C51.3409 66.1611 50.6372 66.8609 49.775 66.8609Z"/>
<path d="M34.3405 62.7276C34.0776 62.7276 33.807 62.6619 33.5595 62.5188C32.8133 62.0858 32.5543 61.1309 32.9873 60.3807L33.7838 59.0005C34.2168 58.2543 35.1718 57.9953 35.9219 58.4283C36.6681 58.8613 36.9271 59.8162 36.4941 60.5664L35.6977 61.9466C35.4077 62.4454 34.8818 62.7276 34.3405 62.7276Z"/>
<path d="M23.0471 51.4303C22.5058 51.4303 21.98 51.1481 21.69 50.6494C21.257 49.9032 21.5161 48.9443 22.2622 48.5113L23.6425 47.7148C24.3887 47.2818 25.3476 47.5408 25.7806 48.287C26.2136 49.0332 25.9546 49.9921 25.2084 50.4251L23.8281 51.2216C23.5807 51.3646 23.31 51.4303 23.0471 51.4303Z"/>
<path d="M20.5036 35.9967H18.9107C18.0485 35.9967 17.3448 35.2969 17.3448 34.4309C17.3448 33.5687 18.0446 32.8651 18.9107 32.8651H20.5036C21.3658 32.8651 22.0694 33.5649 22.0694 34.4309C22.0694 35.2969 21.3657 35.9967 20.5036 35.9967Z"/>
<path d="M24.424 21.3619C24.161 21.3619 23.8904 21.2962 23.643 21.1531L22.2627 20.3567C21.5165 19.9237 21.2575 18.9687 21.6905 18.2186C22.1235 17.4724 23.0785 17.2134 23.8286 17.6464L25.2089 18.4428C25.9551 18.8759 26.2141 19.8308 25.7811 20.5809C25.4911 21.0797 24.9652 21.3619 24.424 21.3619Z"/>
<path d="M35.1411 10.6486C34.5998 10.6486 34.0741 10.3664 33.784 9.86765L32.9876 8.48742C32.5546 7.74122 32.8136 6.78234 33.5598 6.34931C34.306 5.91629 35.2649 6.17533 35.6979 6.92152L36.4944 8.30176C36.9274 9.04796 36.6683 10.0068 35.9222 10.4399C35.6747 10.579 35.404 10.6486 35.1411 10.6486Z"/>
<path d="M51.7664 98C45.7427 98 41.1144 96.0823 36.2626 94.0718C32.4388 92.4866 28.4836 90.8473 23.4569 89.9697C22.6063 89.8228 22.038 89.0109 22.1849 88.1603C22.3318 87.3097 23.1437 86.7414 23.9943 86.8882C29.3607 87.8278 33.4783 89.5328 37.4571 91.1798C48.9434 95.9431 58.0216 99.7011 89.6676 78.0851C89.7294 78.0426 89.799 78 89.8686 77.9691C90.5336 77.6482 91.0324 77.0837 91.2683 76.3878C91.508 75.688 91.4539 74.938 91.1252 74.2768C90.5569 73.144 89.2771 72.5524 88.0476 72.8347L67.5603 82.4231C66.7794 82.7904 65.8475 82.4502 65.4802 81.6692C65.1129 80.8882 65.4532 79.9564 66.2342 79.5891L86.8531 69.9349C86.9343 69.9001 87.0155 69.8692 87.1005 69.8421C89.7992 69.0959 92.668 70.368 93.9245 72.8695C94.632 74.2884 94.7403 75.889 94.2299 77.3853C93.7312 78.8429 92.7104 80.0221 91.3418 80.718C76.3408 90.9562 65.1782 96.3376 56.2128 97.6481C54.6431 97.8955 53.166 98 51.7664 98Z"/>
<path d="M63.1953 86.8383C62.6849 86.8383 62.1591 86.7648 61.6333 86.614L42.4991 83.2697C41.6485 83.1228 41.0801 82.3109 41.227 81.4603C41.3739 80.6097 42.1859 80.0414 43.0364 80.1882L62.2637 83.5519C62.3294 83.5635 62.3913 83.5789 62.457 83.5983C64.2548 84.155 65.0126 82.6394 65.148 82.334C65.5192 81.4757 65.5037 80.2153 64.2356 79.4962C64.2162 79.4846 64.2008 79.4768 64.1814 79.4652C53.5493 72.8577 46.4665 72.6413 38.2613 72.3899C32.5547 72.216 26.0822 72.0188 17.7889 69.4941C16.9615 69.2428 16.4975 68.369 16.7488 67.5416C17.0001 66.7142 17.8739 66.2502 18.7013 66.5015C26.5964 68.9063 32.574 69.0881 38.3572 69.2659C46.6465 69.5211 54.4756 69.757 65.8075 76.7936C68.2355 78.1894 69.1441 80.977 68.0191 83.579C67.1221 85.632 65.2663 86.8383 63.1939 86.8383L63.1953 86.8383Z"/>
<path d="M14.4065 97.2775C13.7145 97.2775 13.0843 96.8174 12.8987 96.1176L5.05398 66.8421C4.82973 66.007 5.32462 65.1487 6.15975 64.9244L15.0407 62.5428C15.8835 62.3186 16.7573 62.4346 17.5112 62.8676C18.2613 63.3006 18.8026 64.0043 19.0268 64.8433L25.9977 90.8515C26.222 91.6905 26.106 92.5682 25.673 93.3221C25.2361 94.0721 24.5363 94.6134 23.6973 94.8376L14.8164 97.2153C14.681 97.2579 14.5418 97.2775 14.4065 97.2775ZM8.47947 67.5457L15.5123 93.7974L22.8814 91.8218C22.9124 91.814 22.9394 91.7947 22.9588 91.7638C22.9858 91.7174 22.9742 91.6787 22.9704 91.6671L16.0033 65.6589C15.9955 65.628 15.9762 65.6009 15.9453 65.5816C15.8989 65.5545 15.8602 65.5661 15.8486 65.57L8.47947 67.5457Z"/>
</mask>
<path d="M58.0991 58.4478C57.1518 58.4478 56.2084 58.1965 55.3385 57.6977L50.7492 55.057C50.0301 54.6433 49.5197 54.6433 48.8005 55.057L44.2113 57.6977C42.5797 58.6372 40.6775 58.6991 38.9918 57.864C37.3061 57.0327 36.1965 55.4863 35.9491 53.6226L35.3073 48.7936C35.1874 47.885 34.65 47.2007 33.7956 46.8644L28.866 44.9197C27.1185 44.2276 25.8813 42.7815 25.483 40.9451C25.0809 39.1086 25.599 37.276 26.9019 35.919L30.2772 32.4045C30.9113 31.7434 31.1124 30.8967 30.8456 30.0189L29.2913 24.9579C28.7385 23.1601 29.1058 21.2927 30.2888 19.8312C31.4758 18.3697 33.2311 17.6351 35.1024 17.8053L39.9545 18.2537C40.867 18.3388 41.6558 17.9676 42.1738 17.2098L45.1624 12.837C46.2218 11.2905 47.8959 10.4129 49.7788 10.4206H49.8213C51.681 10.4206 53.3435 11.2982 54.3952 12.837L57.3838 17.2098C57.9019 17.9676 58.6906 18.3388 59.6031 18.2537L64.4552 17.8053C66.3303 17.6313 68.0818 18.3697 69.2688 19.8312C70.4557 21.2927 70.8192 23.1601 70.2663 24.9579L68.712 30.0189C68.4414 30.8966 68.6463 31.7433 69.2804 32.4045L72.6557 35.919C73.9586 37.276 74.4728 39.1048 74.0746 40.9451C73.6725 42.7816 72.4392 44.2315 70.6916 44.9197L65.762 46.8644C64.9076 47.2007 64.3741 47.885 64.2504 48.7936L63.6085 53.6226C63.3611 55.4862 62.2515 57.0327 60.5658 57.864C59.7693 58.2545 58.9342 58.4478 58.0991 58.4478ZM49.7749 51.6161C50.6216 51.6161 51.4683 51.8597 52.3073 52.343L56.8966 54.9837C57.6273 55.4051 58.4161 55.4283 59.17 55.0571C59.9278 54.686 60.384 54.0442 60.4961 53.209L61.1379 48.38C61.4085 46.3541 62.7037 44.6993 64.6021 43.9531L69.5316 42.0084C70.3165 41.6991 70.8269 41.0998 71.0086 40.2763C71.1864 39.4528 70.9738 38.6949 70.39 38.0841L67.0147 34.5696C65.5996 33.0966 65.1163 31.0513 65.7117 29.1027L67.266 24.0417C67.5134 23.2337 67.3626 22.4604 66.8291 21.807C66.2994 21.1498 65.5726 20.8443 64.7297 20.9217L59.8775 21.3701C57.8438 21.5557 55.9416 20.6626 54.7895 18.9769L51.8009 14.6041C51.3253 13.9081 50.6294 13.5447 49.7826 13.5524H49.7556C48.9204 13.5486 48.2129 13.9081 47.7373 14.6041L44.7487 18.9769C43.5965 20.6626 41.6944 21.5557 39.6607 21.3701L34.8085 20.9217C33.9657 20.8443 33.2427 21.1498 32.7091 21.807C32.1794 22.4643 32.0287 23.2337 32.2722 24.0417L33.8265 29.1027C34.4257 31.0553 33.9386 33.0967 32.5235 34.5696L29.1482 38.0841C28.5644 38.6911 28.3518 39.4489 28.5296 40.2763C28.7075 41.0998 29.2217 41.6991 30.0065 42.0084L34.9361 43.9531C36.8345 44.7031 38.1297 46.3579 38.4003 48.38L39.0421 53.209C39.1542 54.0441 39.6105 54.686 40.3682 55.0571C41.126 55.4283 41.9109 55.4051 42.6455 54.9837L47.2347 52.343C48.0815 51.8597 48.9281 51.6161 49.7749 51.6161Z" fill="#3C7CFF"/>
<path d="M55.6671 45.0669C55.4235 45.0669 55.1838 45.0128 54.9596 44.8968L49.8251 42.2909L44.5785 44.9045C44.0566 45.1636 43.4263 45.1133 42.9586 44.7654C42.4869 44.4174 42.2472 43.8374 42.3361 43.2614L43.2292 37.5741L39.1232 33.3907C38.7134 32.9731 38.5704 32.3622 38.756 31.8055C38.9377 31.2487 39.4171 30.8428 39.9932 30.75L45.6805 29.8414L48.3908 24.6413C48.6614 24.1232 49.195 23.7984 49.7787 23.7984H49.7865C50.3703 23.8023 50.9077 24.1309 51.1744 24.6529L53.7957 29.7796L59.5758 30.75C60.1519 30.8467 60.6274 31.2565 60.8053 31.8132C60.9832 32.37 60.8362 32.9809 60.4225 33.3946L56.3552 37.4735L57.2174 43.273C57.3024 43.853 57.0588 44.4291 56.5833 44.7731C56.3126 44.9703 55.9919 45.0669 55.6671 45.0669ZM43.4771 33.3599L46.0134 35.9426C46.3613 36.2945 46.5198 36.7932 46.4425 37.2804L45.8974 40.7523L49.1373 39.1401C49.5819 38.9197 50.1039 38.9236 50.5408 39.1478L53.6725 40.7369L53.139 37.1606C53.0655 36.6734 53.2279 36.1785 53.5797 35.8228L56.0619 33.3329L52.4932 32.7336C52.0061 32.6524 51.5847 32.3431 51.3605 31.9024L49.7637 28.7707L48.0934 31.9797C47.8653 32.4204 47.44 32.722 46.9529 32.7993L43.4771 33.3599Z" fill="#3C7CFF"/>
<path d="M49.775 6.72457C48.9129 6.72457 48.2092 6.02478 48.2092 5.15876V3.56582C48.2092 2.70364 48.909 2 49.775 2C50.6372 2 51.3409 2.6998 51.3409 3.56582V5.15876C51.3409 6.02481 50.6372 6.72457 49.775 6.72457Z" fill="#3C7CFF"/>
<path d="M64.4087 10.6486C64.1458 10.6486 63.8752 10.5829 63.6277 10.4399C62.8815 10.0068 62.6225 9.0519 63.0555 8.30175L63.852 6.92151C64.285 6.17532 65.2399 5.9163 65.9901 6.34931C66.7363 6.78233 66.9953 7.73726 66.5623 8.48741L65.7658 9.86765C65.4758 10.3664 64.95 10.6486 64.4087 10.6486Z" fill="#3C7CFF"/>
<path d="M75.1261 21.3619C74.5848 21.3619 74.059 21.0797 73.769 20.5809C73.336 19.8347 73.595 18.8759 74.3412 18.4428L75.7215 17.6464C76.4677 17.2134 77.4266 17.4724 77.8596 18.2186C78.2926 18.9648 78.0336 19.9237 77.2874 20.3567L75.9071 21.1532C75.6636 21.2923 75.3929 21.3619 75.1261 21.3619Z" fill="#3C7CFF"/>
<path d="M80.6399 35.9967H79.047C78.1848 35.9967 77.4812 35.2969 77.4812 34.4309C77.4812 33.5687 78.181 32.8651 79.047 32.8651H80.6399C81.5021 32.8651 82.2057 33.5649 82.2057 34.4309C82.2019 35.297 81.5021 35.9967 80.6399 35.9967Z" fill="#3C7CFF"/>
<path d="M76.5027 51.4303C76.2398 51.4303 75.9691 51.3646 75.7217 51.2216L74.3415 50.4251C73.5953 49.9921 73.3363 49.0371 73.7693 48.287C74.2023 47.5408 75.1572 47.2818 75.9073 47.7148L77.2876 48.5112C78.0338 48.9443 78.2928 49.8992 77.8598 50.6494C77.5698 51.1481 77.044 51.4303 76.5027 51.4303Z" fill="#3C7CFF"/>
<path d="M65.2095 62.7276C64.6683 62.7276 64.1425 62.4454 63.8525 61.9466L63.056 60.5664C62.623 59.8202 62.882 58.8613 63.6282 58.4283C64.3744 57.9953 65.3333 58.2543 65.7663 59.0005L66.5628 60.3807C66.9958 61.1269 66.7368 62.0858 65.9906 62.5188C65.7431 62.658 65.4763 62.7276 65.2095 62.7276Z" fill="#3C7CFF"/>
<path d="M49.775 66.8609C48.9129 66.8609 48.2092 66.1611 48.2092 65.2951V63.7022C48.2092 62.84 48.909 62.1363 49.775 62.1363C50.6372 62.1363 51.3409 62.8361 51.3409 63.7022V65.2951C51.3409 66.1611 50.6372 66.8609 49.775 66.8609Z" fill="#3C7CFF"/>
<path d="M34.3405 62.7276C34.0776 62.7276 33.807 62.6619 33.5595 62.5188C32.8133 62.0858 32.5543 61.1309 32.9873 60.3807L33.7838 59.0005C34.2168 58.2543 35.1718 57.9953 35.9219 58.4283C36.6681 58.8613 36.9271 59.8162 36.4941 60.5664L35.6977 61.9466C35.4077 62.4454 34.8818 62.7276 34.3405 62.7276Z" fill="#3C7CFF"/>
<path d="M23.0471 51.4303C22.5058 51.4303 21.98 51.1481 21.69 50.6494C21.257 49.9032 21.5161 48.9443 22.2622 48.5113L23.6425 47.7148C24.3887 47.2818 25.3476 47.5408 25.7806 48.287C26.2136 49.0332 25.9546 49.9921 25.2084 50.4251L23.8281 51.2216C23.5807 51.3646 23.31 51.4303 23.0471 51.4303Z" fill="#3C7CFF"/>
<path d="M20.5036 35.9967H18.9107C18.0485 35.9967 17.3448 35.2969 17.3448 34.4309C17.3448 33.5687 18.0446 32.8651 18.9107 32.8651H20.5036C21.3658 32.8651 22.0694 33.5649 22.0694 34.4309C22.0694 35.2969 21.3657 35.9967 20.5036 35.9967Z" fill="#3C7CFF"/>
<path d="M24.424 21.3619C24.161 21.3619 23.8904 21.2962 23.643 21.1531L22.2627 20.3567C21.5165 19.9237 21.2575 18.9687 21.6905 18.2186C22.1235 17.4724 23.0785 17.2134 23.8286 17.6464L25.2089 18.4428C25.9551 18.8759 26.2141 19.8308 25.7811 20.5809C25.4911 21.0797 24.9652 21.3619 24.424 21.3619Z" fill="#3C7CFF"/>
<path d="M35.1411 10.6486C34.5998 10.6486 34.0741 10.3664 33.784 9.86765L32.9876 8.48742C32.5546 7.74122 32.8136 6.78234 33.5598 6.34931C34.306 5.91629 35.2649 6.17533 35.6979 6.92152L36.4944 8.30176C36.9274 9.04796 36.6683 10.0068 35.9222 10.4399C35.6747 10.579 35.404 10.6486 35.1411 10.6486Z" fill="#3C7CFF"/>
<path d="M51.7664 98C45.7427 98 41.1144 96.0823 36.2626 94.0718C32.4388 92.4866 28.4836 90.8473 23.4569 89.9697C22.6063 89.8228 22.038 89.0109 22.1849 88.1603C22.3318 87.3097 23.1437 86.7414 23.9943 86.8882C29.3607 87.8278 33.4783 89.5328 37.4571 91.1798C48.9434 95.9431 58.0216 99.7011 89.6676 78.0851C89.7294 78.0426 89.799 78 89.8686 77.9691C90.5336 77.6482 91.0324 77.0837 91.2683 76.3878C91.508 75.688 91.4539 74.938 91.1252 74.2768C90.5569 73.144 89.2771 72.5524 88.0476 72.8347L67.5603 82.4231C66.7794 82.7904 65.8475 82.4502 65.4802 81.6692C65.1129 80.8882 65.4532 79.9564 66.2342 79.5891L86.8531 69.9349C86.9343 69.9001 87.0155 69.8692 87.1005 69.8421C89.7992 69.0959 92.668 70.368 93.9245 72.8695C94.632 74.2884 94.7403 75.889 94.2299 77.3853C93.7312 78.8429 92.7104 80.0221 91.3418 80.718C76.3408 90.9562 65.1782 96.3376 56.2128 97.6481C54.6431 97.8955 53.166 98 51.7664 98Z" fill="#3C7CFF"/>
<path d="M63.1953 86.8383C62.6849 86.8383 62.1591 86.7648 61.6333 86.614L42.4991 83.2697C41.6485 83.1228 41.0801 82.3109 41.227 81.4603C41.3739 80.6097 42.1859 80.0414 43.0364 80.1882L62.2637 83.5519C62.3294 83.5635 62.3913 83.5789 62.457 83.5983C64.2548 84.155 65.0126 82.6394 65.148 82.334C65.5192 81.4757 65.5037 80.2153 64.2356 79.4962C64.2162 79.4846 64.2008 79.4768 64.1814 79.4652C53.5493 72.8577 46.4665 72.6413 38.2613 72.3899C32.5547 72.216 26.0822 72.0188 17.7889 69.4941C16.9615 69.2428 16.4975 68.369 16.7488 67.5416C17.0001 66.7142 17.8739 66.2502 18.7013 66.5015C26.5964 68.9063 32.574 69.0881 38.3572 69.2659C46.6465 69.5211 54.4756 69.757 65.8075 76.7936C68.2355 78.1894 69.1441 80.977 68.0191 83.579C67.1221 85.632 65.2663 86.8383 63.1939 86.8383L63.1953 86.8383Z" fill="#3C7CFF"/>
<path d="M14.4065 97.2775C13.7145 97.2775 13.0843 96.8174 12.8987 96.1176L5.05398 66.8421C4.82973 66.007 5.32462 65.1487 6.15975 64.9244L15.0407 62.5428C15.8835 62.3186 16.7573 62.4346 17.5112 62.8676C18.2613 63.3006 18.8026 64.0043 19.0268 64.8433L25.9977 90.8515C26.222 91.6905 26.106 92.5682 25.673 93.3221C25.2361 94.0721 24.5363 94.6134 23.6973 94.8376L14.8164 97.2153C14.681 97.2579 14.5418 97.2775 14.4065 97.2775ZM8.47947 67.5457L15.5123 93.7974L22.8814 91.8218C22.9124 91.814 22.9394 91.7947 22.9588 91.7638C22.9858 91.7174 22.9742 91.6787 22.9704 91.6671L16.0033 65.6589C15.9955 65.628 15.9762 65.6009 15.9453 65.5816C15.8989 65.5545 15.8602 65.5661 15.8486 65.57L8.47947 67.5457Z" fill="#3C7CFF"/>
<path d="M58.0991 58.4478C57.1518 58.4478 56.2084 58.1965 55.3385 57.6977L50.7492 55.057C50.0301 54.6433 49.5197 54.6433 48.8005 55.057L44.2113 57.6977C42.5797 58.6372 40.6775 58.6991 38.9918 57.864C37.3061 57.0327 36.1965 55.4863 35.9491 53.6226L35.3073 48.7936C35.1874 47.885 34.65 47.2007 33.7956 46.8644L28.866 44.9197C27.1185 44.2276 25.8813 42.7815 25.483 40.9451C25.0809 39.1086 25.599 37.276 26.9019 35.919L30.2772 32.4045C30.9113 31.7434 31.1124 30.8967 30.8456 30.0189L29.2913 24.9579C28.7385 23.1601 29.1058 21.2927 30.2888 19.8312C31.4758 18.3697 33.2311 17.6351 35.1024 17.8053L39.9545 18.2537C40.867 18.3388 41.6558 17.9676 42.1738 17.2098L45.1624 12.837C46.2218 11.2905 47.8959 10.4129 49.7788 10.4206H49.8213C51.681 10.4206 53.3435 11.2982 54.3952 12.837L57.3838 17.2098C57.9019 17.9676 58.6906 18.3388 59.6031 18.2537L64.4552 17.8053C66.3303 17.6313 68.0818 18.3697 69.2688 19.8312C70.4557 21.2927 70.8192 23.1601 70.2663 24.9579L68.712 30.0189C68.4414 30.8966 68.6463 31.7433 69.2804 32.4045L72.6557 35.919C73.9586 37.276 74.4728 39.1048 74.0746 40.9451C73.6725 42.7816 72.4392 44.2315 70.6916 44.9197L65.762 46.8644C64.9076 47.2007 64.3741 47.885 64.2504 48.7936L63.6085 53.6226C63.3611 55.4862 62.2515 57.0327 60.5658 57.864C59.7693 58.2545 58.9342 58.4478 58.0991 58.4478ZM49.7749 51.6161C50.6216 51.6161 51.4683 51.8597 52.3073 52.343L56.8966 54.9837C57.6273 55.4051 58.4161 55.4283 59.17 55.0571C59.9278 54.686 60.384 54.0442 60.4961 53.209L61.1379 48.38C61.4085 46.3541 62.7037 44.6993 64.6021 43.9531L69.5316 42.0084C70.3165 41.6991 70.8269 41.0998 71.0086 40.2763C71.1864 39.4528 70.9738 38.6949 70.39 38.0841L67.0147 34.5696C65.5996 33.0966 65.1163 31.0513 65.7117 29.1027L67.266 24.0417C67.5134 23.2337 67.3626 22.4604 66.8291 21.807C66.2994 21.1498 65.5726 20.8443 64.7297 20.9217L59.8775 21.3701C57.8438 21.5557 55.9416 20.6626 54.7895 18.9769L51.8009 14.6041C51.3253 13.9081 50.6294 13.5447 49.7826 13.5524H49.7556C48.9204 13.5486 48.2129 13.9081 47.7373 14.6041L44.7487 18.9769C43.5965 20.6626 41.6944 21.5557 39.6607 21.3701L34.8085 20.9217C33.9657 20.8443 33.2427 21.1498 32.7091 21.807C32.1794 22.4643 32.0287 23.2337 32.2722 24.0417L33.8265 29.1027C34.4257 31.0553 33.9386 33.0967 32.5235 34.5696L29.1482 38.0841C28.5644 38.6911 28.3518 39.4489 28.5296 40.2763C28.7075 41.0998 29.2217 41.6991 30.0065 42.0084L34.9361 43.9531C36.8345 44.7031 38.1297 46.3579 38.4003 48.38L39.0421 53.209C39.1542 54.0441 39.6105 54.686 40.3682 55.0571C41.126 55.4283 41.9109 55.4051 42.6455 54.9837L47.2347 52.343C48.0815 51.8597 48.9281 51.6161 49.7749 51.6161Z" stroke="#3C7CFF" stroke-width="0.6" mask="url(#path-1-outside-1_173_703)"/>
<path d="M55.6671 45.0669C55.4235 45.0669 55.1838 45.0128 54.9596 44.8968L49.8251 42.2909L44.5785 44.9045C44.0566 45.1636 43.4263 45.1133 42.9586 44.7654C42.4869 44.4174 42.2472 43.8374 42.3361 43.2614L43.2292 37.5741L39.1232 33.3907C38.7134 32.9731 38.5704 32.3622 38.756 31.8055C38.9377 31.2487 39.4171 30.8428 39.9932 30.75L45.6805 29.8414L48.3908 24.6413C48.6614 24.1232 49.195 23.7984 49.7787 23.7984H49.7865C50.3703 23.8023 50.9077 24.1309 51.1744 24.6529L53.7957 29.7796L59.5758 30.75C60.1519 30.8467 60.6274 31.2565 60.8053 31.8132C60.9832 32.37 60.8362 32.9809 60.4225 33.3946L56.3552 37.4735L57.2174 43.273C57.3024 43.853 57.0588 44.4291 56.5833 44.7731C56.3126 44.9703 55.9919 45.0669 55.6671 45.0669ZM43.4771 33.3599L46.0134 35.9426C46.3613 36.2945 46.5198 36.7932 46.4425 37.2804L45.8974 40.7523L49.1373 39.1401C49.5819 38.9197 50.1039 38.9236 50.5408 39.1478L53.6725 40.7369L53.139 37.1606C53.0655 36.6734 53.2279 36.1785 53.5797 35.8228L56.0619 33.3329L52.4932 32.7336C52.0061 32.6524 51.5847 32.3431 51.3605 31.9024L49.7637 28.7707L48.0934 31.9797C47.8653 32.4204 47.44 32.722 46.9529 32.7993L43.4771 33.3599Z" stroke="#3C7CFF" stroke-width="0.6" mask="url(#path-1-outside-1_173_703)"/>
<path d="M49.775 6.72457C48.9129 6.72457 48.2092 6.02478 48.2092 5.15876V3.56582C48.2092 2.70364 48.909 2 49.775 2C50.6372 2 51.3409 2.6998 51.3409 3.56582V5.15876C51.3409 6.02481 50.6372 6.72457 49.775 6.72457Z" stroke="#3C7CFF" stroke-width="0.6" mask="url(#path-1-outside-1_173_703)"/>
<path d="M64.4087 10.6486C64.1458 10.6486 63.8752 10.5829 63.6277 10.4399C62.8815 10.0068 62.6225 9.0519 63.0555 8.30175L63.852 6.92151C64.285 6.17532 65.2399 5.9163 65.9901 6.34931C66.7363 6.78233 66.9953 7.73726 66.5623 8.48741L65.7658 9.86765C65.4758 10.3664 64.95 10.6486 64.4087 10.6486Z" stroke="#3C7CFF" stroke-width="0.6" mask="url(#path-1-outside-1_173_703)"/>
<path d="M75.1261 21.3619C74.5848 21.3619 74.059 21.0797 73.769 20.5809C73.336 19.8347 73.595 18.8759 74.3412 18.4428L75.7215 17.6464C76.4677 17.2134 77.4266 17.4724 77.8596 18.2186C78.2926 18.9648 78.0336 19.9237 77.2874 20.3567L75.9071 21.1532C75.6636 21.2923 75.3929 21.3619 75.1261 21.3619Z" stroke="#3C7CFF" stroke-width="0.6" mask="url(#path-1-outside-1_173_703)"/>
<path d="M80.6399 35.9967H79.047C78.1848 35.9967 77.4812 35.2969 77.4812 34.4309C77.4812 33.5687 78.181 32.8651 79.047 32.8651H80.6399C81.5021 32.8651 82.2057 33.5649 82.2057 34.4309C82.2019 35.297 81.5021 35.9967 80.6399 35.9967Z" stroke="#3C7CFF" stroke-width="0.6" mask="url(#path-1-outside-1_173_703)"/>
<path d="M76.5027 51.4303C76.2398 51.4303 75.9691 51.3646 75.7217 51.2216L74.3415 50.4251C73.5953 49.9921 73.3363 49.0371 73.7693 48.287C74.2023 47.5408 75.1572 47.2818 75.9073 47.7148L77.2876 48.5112C78.0338 48.9443 78.2928 49.8992 77.8598 50.6494C77.5698 51.1481 77.044 51.4303 76.5027 51.4303Z" stroke="#3C7CFF" stroke-width="0.6" mask="url(#path-1-outside-1_173_703)"/>
<path d="M65.2095 62.7276C64.6683 62.7276 64.1425 62.4454 63.8525 61.9466L63.056 60.5664C62.623 59.8202 62.882 58.8613 63.6282 58.4283C64.3744 57.9953 65.3333 58.2543 65.7663 59.0005L66.5628 60.3807C66.9958 61.1269 66.7368 62.0858 65.9906 62.5188C65.7431 62.658 65.4763 62.7276 65.2095 62.7276Z" stroke="#3C7CFF" stroke-width="0.6" mask="url(#path-1-outside-1_173_703)"/>
<path d="M49.775 66.8609C48.9129 66.8609 48.2092 66.1611 48.2092 65.2951V63.7022C48.2092 62.84 48.909 62.1363 49.775 62.1363C50.6372 62.1363 51.3409 62.8361 51.3409 63.7022V65.2951C51.3409 66.1611 50.6372 66.8609 49.775 66.8609Z" stroke="#3C7CFF" stroke-width="0.6" mask="url(#path-1-outside-1_173_703)"/>
<path d="M34.3405 62.7276C34.0776 62.7276 33.807 62.6619 33.5595 62.5188C32.8133 62.0858 32.5543 61.1309 32.9873 60.3807L33.7838 59.0005C34.2168 58.2543 35.1718 57.9953 35.9219 58.4283C36.6681 58.8613 36.9271 59.8162 36.4941 60.5664L35.6977 61.9466C35.4077 62.4454 34.8818 62.7276 34.3405 62.7276Z" stroke="#3C7CFF" stroke-width="0.6" mask="url(#path-1-outside-1_173_703)"/>
<path d="M23.0471 51.4303C22.5058 51.4303 21.98 51.1481 21.69 50.6494C21.257 49.9032 21.5161 48.9443 22.2622 48.5113L23.6425 47.7148C24.3887 47.2818 25.3476 47.5408 25.7806 48.287C26.2136 49.0332 25.9546 49.9921 25.2084 50.4251L23.8281 51.2216C23.5807 51.3646 23.31 51.4303 23.0471 51.4303Z" stroke="#3C7CFF" stroke-width="0.6" mask="url(#path-1-outside-1_173_703)"/>
<path d="M20.5036 35.9967H18.9107C18.0485 35.9967 17.3448 35.2969 17.3448 34.4309C17.3448 33.5687 18.0446 32.8651 18.9107 32.8651H20.5036C21.3658 32.8651 22.0694 33.5649 22.0694 34.4309C22.0694 35.2969 21.3657 35.9967 20.5036 35.9967Z" stroke="#3C7CFF" stroke-width="0.6" mask="url(#path-1-outside-1_173_703)"/>
<path d="M24.424 21.3619C24.161 21.3619 23.8904 21.2962 23.643 21.1531L22.2627 20.3567C21.5165 19.9237 21.2575 18.9687 21.6905 18.2186C22.1235 17.4724 23.0785 17.2134 23.8286 17.6464L25.2089 18.4428C25.9551 18.8759 26.2141 19.8308 25.7811 20.5809C25.4911 21.0797 24.9652 21.3619 24.424 21.3619Z" stroke="#3C7CFF" stroke-width="0.6" mask="url(#path-1-outside-1_173_703)"/>
<path d="M35.1411 10.6486C34.5998 10.6486 34.0741 10.3664 33.784 9.86765L32.9876 8.48742C32.5546 7.74122 32.8136 6.78234 33.5598 6.34931C34.306 5.91629 35.2649 6.17533 35.6979 6.92152L36.4944 8.30176C36.9274 9.04796 36.6683 10.0068 35.9222 10.4399C35.6747 10.579 35.404 10.6486 35.1411 10.6486Z" stroke="#3C7CFF" stroke-width="0.6" mask="url(#path-1-outside-1_173_703)"/>
<path d="M51.7664 98C45.7427 98 41.1144 96.0823 36.2626 94.0718C32.4388 92.4866 28.4836 90.8473 23.4569 89.9697C22.6063 89.8228 22.038 89.0109 22.1849 88.1603C22.3318 87.3097 23.1437 86.7414 23.9943 86.8882C29.3607 87.8278 33.4783 89.5328 37.4571 91.1798C48.9434 95.9431 58.0216 99.7011 89.6676 78.0851C89.7294 78.0426 89.799 78 89.8686 77.9691C90.5336 77.6482 91.0324 77.0837 91.2683 76.3878C91.508 75.688 91.4539 74.938 91.1252 74.2768C90.5569 73.144 89.2771 72.5524 88.0476 72.8347L67.5603 82.4231C66.7794 82.7904 65.8475 82.4502 65.4802 81.6692C65.1129 80.8882 65.4532 79.9564 66.2342 79.5891L86.8531 69.9349C86.9343 69.9001 87.0155 69.8692 87.1005 69.8421C89.7992 69.0959 92.668 70.368 93.9245 72.8695C94.632 74.2884 94.7403 75.889 94.2299 77.3853C93.7312 78.8429 92.7104 80.0221 91.3418 80.718C76.3408 90.9562 65.1782 96.3376 56.2128 97.6481C54.6431 97.8955 53.166 98 51.7664 98Z" stroke="#3C7CFF" stroke-width="0.6" mask="url(#path-1-outside-1_173_703)"/>
<path d="M63.1953 86.8383C62.6849 86.8383 62.1591 86.7648 61.6333 86.614L42.4991 83.2697C41.6485 83.1228 41.0801 82.3109 41.227 81.4603C41.3739 80.6097 42.1859 80.0414 43.0364 80.1882L62.2637 83.5519C62.3294 83.5635 62.3913 83.5789 62.457 83.5983C64.2548 84.155 65.0126 82.6394 65.148 82.334C65.5192 81.4757 65.5037 80.2153 64.2356 79.4962C64.2162 79.4846 64.2008 79.4768 64.1814 79.4652C53.5493 72.8577 46.4665 72.6413 38.2613 72.3899C32.5547 72.216 26.0822 72.0188 17.7889 69.4941C16.9615 69.2428 16.4975 68.369 16.7488 67.5416C17.0001 66.7142 17.8739 66.2502 18.7013 66.5015C26.5964 68.9063 32.574 69.0881 38.3572 69.2659C46.6465 69.5211 54.4756 69.757 65.8075 76.7936C68.2355 78.1894 69.1441 80.977 68.0191 83.579C67.1221 85.632 65.2663 86.8383 63.1939 86.8383L63.1953 86.8383Z" stroke="#3C7CFF" stroke-width="0.6" mask="url(#path-1-outside-1_173_703)"/>
<path d="M14.4065 97.2775C13.7145 97.2775 13.0843 96.8174 12.8987 96.1176L5.05398 66.8421C4.82973 66.007 5.32462 65.1487 6.15975 64.9244L15.0407 62.5428C15.8835 62.3186 16.7573 62.4346 17.5112 62.8676C18.2613 63.3006 18.8026 64.0043 19.0268 64.8433L25.9977 90.8515C26.222 91.6905 26.106 92.5682 25.673 93.3221C25.2361 94.0721 24.5363 94.6134 23.6973 94.8376L14.8164 97.2153C14.681 97.2579 14.5418 97.2775 14.4065 97.2775ZM8.47947 67.5457L15.5123 93.7974L22.8814 91.8218C22.9124 91.814 22.9394 91.7947 22.9588 91.7638C22.9858 91.7174 22.9742 91.6787 22.9704 91.6671L16.0033 65.6589C15.9955 65.628 15.9762 65.6009 15.9453 65.5816C15.8989 65.5545 15.8602 65.5661 15.8486 65.57L8.47947 67.5457Z" stroke="#3C7CFF" stroke-width="0.6" mask="url(#path-1-outside-1_173_703)"/>
</svg>
