<svg width="102" height="102" viewBox="0 0 102 102" fill="none" xmlns="http://www.w3.org/2000/svg">
<mask id="path-1-outside-1_179_982" maskUnits="userSpaceOnUse" x="0" y="0" width="102" height="102" fill="black">
<rect fill="white" width="102" height="102"/>
<path fill-rule="evenodd" clip-rule="evenodd" d="M93.6316 65.1587C91.7319 65.1545 90.0196 66.3075 89.2947 68.0791C88.5656 69.8507 88.9697 71.8876 90.307 73.2426C91.6485 74.6018 93.669 75.0058 95.4189 74.2736C97.1728 73.5414 98.3185 71.8117 98.3185 69.8971C98.3185 68.6388 97.8269 67.4352 96.9478 66.5473C96.0646 65.6594 94.8731 65.1587 93.6316 65.1587ZM50.9536 88.3453C49.0581 88.3411 47.3458 89.4983 46.6209 91.2657C45.8918 93.0373 46.2959 95.0742 47.6374 96.4334C48.9789 97.7884 50.9952 98.1924 52.7492 97.4602C54.5031 96.728 55.6446 94.9983 55.6446 93.0837C55.6446 90.4662 53.5448 88.3453 50.9536 88.3453ZM49.6205 85.7783L49.6246 74.5421C44.3253 74.2686 39.2385 72.3454 35.0602 69.042C30.8816 65.7386 27.8112 61.2148 26.2697 56.0854L14.5007 65.8357C16.5754 69.0508 15.8838 73.3305 12.905 75.7124C9.92208 78.09 5.63936 77.7828 3.02307 75.0012C0.40263 72.2196 0.319228 67.8809 2.8231 64.9983C5.32698 62.1115 9.59722 61.6318 12.6676 63.8874L25.5821 53.1902C24.7531 48.5359 25.1864 43.7344 26.8486 39.3071C28.5109 34.8842 31.3313 30.996 35.01 28.0666L27.5735 19.1453V19.1411C24.3448 21.1694 20.1203 20.3783 17.829 17.3147C15.5376 14.2469 15.9376 9.92515 18.7497 7.34557C21.5618 4.76179 25.8612 4.77439 28.6609 7.37082C31.4605 9.96725 31.8396 14.2933 29.5316 17.3442L37.1722 26.5138C42.0758 23.3872 47.8705 22.0236 53.6372 22.6338C59.3989 23.244 64.7898 25.7984 68.9439 29.8804L83.0465 12.3786C81.0219 9.13413 81.7801 4.86277 84.7963 2.5315C87.8125 0.195926 92.0911 0.570501 94.6658 3.38996C97.2405 6.20946 97.2654 10.548 94.7241 13.3971C92.1786 16.246 87.9042 16.6669 84.8629 14.3649L70.7774 31.8624C74.6435 36.5376 76.7599 42.4417 76.7516 48.5357C76.7516 50.0801 76.6183 51.6245 76.3517 53.1478L89.3163 63.8871C92.3909 61.6273 96.6653 62.1071 99.1733 64.998C101.681 67.8848 101.598 72.2276 98.9775 75.0135C96.357 77.7993 92.0659 78.1065 89.0831 75.7247C86.1001 73.3387 85.4086 69.0547 87.4833 65.8355L75.6598 56.0431H75.664C74.1309 61.1812 71.0604 65.7177 66.8777 69.0299C62.6949 72.3417 57.6039 74.2649 52.2962 74.5426V85.7788C56.0331 86.4731 58.6328 89.9323 58.287 93.7574C57.9412 97.5785 54.7667 100.507 50.9672 100.507C47.1635 100.507 43.9889 97.5784 43.6473 93.7574C43.3015 89.9322 45.897 86.4731 49.634 85.7788L49.6205 85.7783ZM89.2695 3.6809C87.374 3.6809 85.6617 4.83393 84.9326 6.60554C84.2077 8.37295 84.6076 10.414 85.9491 11.769C87.2906 13.124 89.3069 13.5322 91.061 12.7958C92.8148 12.0636 93.9563 10.334 93.9563 8.41929C93.9605 7.16101 93.4647 5.95746 92.5856 5.06955C91.7066 4.18162 90.5152 3.6809 89.2695 3.6809ZM23.6997 8.09533C21.8042 8.09533 20.0919 9.24836 19.367 11.02C18.6421 12.7874 19.042 14.8241 20.3835 16.1792C21.725 17.5343 23.7414 17.9425 25.4954 17.206C27.2451 16.4738 28.3907 14.7485 28.3907 12.8337C28.3907 11.5754 27.895 10.3719 27.0159 9.48398C26.1368 8.59185 24.9454 8.09533 23.6997 8.09533ZM8.34395 65.1586C6.44842 65.1544 4.73612 66.3074 4.0112 68.079C3.28214 69.8506 3.68624 71.8875 5.02356 73.2425C6.36504 74.6017 8.38556 75.0057 10.1354 74.2735C11.8893 73.5413 13.0351 71.8116 13.0351 69.897C13.0351 68.6387 12.5435 67.4351 11.6644 66.5472C10.7812 65.6593 9.58964 65.1586 8.34395 65.1586ZM50.9547 36.231C53.8752 36.2268 56.4831 38.0658 57.483 40.8348C58.487 43.6037 57.6705 46.7051 55.4416 48.6072C59.0869 50.362 61.4158 54.0736 61.4241 58.1556V60.6553C64.6986 57.7642 66.6651 53.6486 66.8609 49.2639C67.0609 44.8748 65.4694 40.5993 62.4657 37.4223C59.4619 34.2452 55.3042 32.4524 50.9547 32.4524C46.6095 32.4524 42.4475 34.2452 39.4437 37.4223C36.44 40.5995 34.8527 44.875 35.0485 49.2639C35.2443 53.6489 37.2106 57.7644 40.4895 60.6553V58.1556C40.4978 54.0736 42.8266 50.362 46.472 48.603C44.2432 46.7051 43.4307 43.5995 44.4306 40.8348C45.4346 38.07 48.0426 36.231 50.9547 36.231ZM50.9547 38.9201C49.2216 38.9201 47.6551 39.9763 46.9928 41.5923C46.3262 43.2124 46.697 45.0767 47.9218 46.3139C49.1508 47.5552 50.9922 47.9256 52.5962 47.2565C54.2001 46.5832 55.2458 45.0009 55.2458 43.2503C55.2458 42.1014 54.7959 40.9989 53.9918 40.1866C53.1836 39.3745 52.0963 38.9201 50.9547 38.9201ZM58.762 62.5538V58.1562C58.7953 56.0396 57.9871 54.0027 56.5205 52.4963C55.0541 50.9898 53.0502 50.1397 50.9546 50.1397C48.8632 50.1397 46.8594 50.9897 45.3886 52.4963C43.9222 54.0027 43.1139 56.0396 43.1472 58.1562V62.5538C47.9966 65.3059 53.9125 65.3059 58.762 62.5538ZM50.9547 29.7631C46.0304 29.7631 41.3018 31.7409 37.8151 35.259C34.3323 38.7812 32.3742 43.5575 32.3742 48.5356C32.3742 53.5097 34.3322 58.286 37.8151 61.8078C41.3021 65.3259 46.0307 67.3038 50.9547 67.3038C55.8832 67.3038 60.6117 65.326 64.0985 61.8078C67.5813 58.2856 69.5395 53.5093 69.5395 48.5356V48.5314C69.5395 43.5573 67.5815 38.781 64.0944 35.2634C60.6115 31.7412 55.8829 29.7631 50.9547 29.7631ZM50.9547 25.1762C44.8264 25.1762 38.9435 27.638 34.607 32.0187C30.2701 36.3952 27.8329 42.3371 27.8329 48.5315C27.8329 54.7258 30.2701 60.6683 34.607 65.0443C38.944 69.425 44.8265 71.8868 50.9547 71.8868C57.0872 71.8868 62.9701 69.425 67.3066 65.0443C71.6435 60.6677 74.0766 54.7258 74.0766 48.5315C74.0766 42.3371 71.6436 36.3947 67.3066 32.0187C62.9697 27.638 57.0872 25.1762 50.9547 25.1762Z"/>
</mask>
<path fill-rule="evenodd" clip-rule="evenodd" d="M93.6316 65.1587C91.7319 65.1545 90.0196 66.3075 89.2947 68.0791C88.5656 69.8507 88.9697 71.8876 90.307 73.2426C91.6485 74.6018 93.669 75.0058 95.4189 74.2736C97.1728 73.5414 98.3185 71.8117 98.3185 69.8971C98.3185 68.6388 97.8269 67.4352 96.9478 66.5473C96.0646 65.6594 94.8731 65.1587 93.6316 65.1587ZM50.9536 88.3453C49.0581 88.3411 47.3458 89.4983 46.6209 91.2657C45.8918 93.0373 46.2959 95.0742 47.6374 96.4334C48.9789 97.7884 50.9952 98.1924 52.7492 97.4602C54.5031 96.728 55.6446 94.9983 55.6446 93.0837C55.6446 90.4662 53.5448 88.3453 50.9536 88.3453ZM49.6205 85.7783L49.6246 74.5421C44.3253 74.2686 39.2385 72.3454 35.0602 69.042C30.8816 65.7386 27.8112 61.2148 26.2697 56.0854L14.5007 65.8357C16.5754 69.0508 15.8838 73.3305 12.905 75.7124C9.92208 78.09 5.63936 77.7828 3.02307 75.0012C0.40263 72.2196 0.319228 67.8809 2.8231 64.9983C5.32698 62.1115 9.59722 61.6318 12.6676 63.8874L25.5821 53.1902C24.7531 48.5359 25.1864 43.7344 26.8486 39.3071C28.5109 34.8842 31.3313 30.996 35.01 28.0666L27.5735 19.1453V19.1411C24.3448 21.1694 20.1203 20.3783 17.829 17.3147C15.5376 14.2469 15.9376 9.92515 18.7497 7.34557C21.5618 4.76179 25.8612 4.77439 28.6609 7.37082C31.4605 9.96725 31.8396 14.2933 29.5316 17.3442L37.1722 26.5138C42.0758 23.3872 47.8705 22.0236 53.6372 22.6338C59.3989 23.244 64.7898 25.7984 68.9439 29.8804L83.0465 12.3786C81.0219 9.13413 81.7801 4.86277 84.7963 2.5315C87.8125 0.195926 92.0911 0.570501 94.6658 3.38996C97.2405 6.20946 97.2654 10.548 94.7241 13.3971C92.1786 16.246 87.9042 16.6669 84.8629 14.3649L70.7774 31.8624C74.6435 36.5376 76.7599 42.4417 76.7516 48.5357C76.7516 50.0801 76.6183 51.6245 76.3517 53.1478L89.3163 63.8871C92.3909 61.6273 96.6653 62.1071 99.1733 64.998C101.681 67.8848 101.598 72.2276 98.9775 75.0135C96.357 77.7993 92.0659 78.1065 89.0831 75.7247C86.1001 73.3387 85.4086 69.0547 87.4833 65.8355L75.6598 56.0431H75.664C74.1309 61.1812 71.0604 65.7177 66.8777 69.0299C62.6949 72.3417 57.6039 74.2649 52.2962 74.5426V85.7788C56.0331 86.4731 58.6328 89.9323 58.287 93.7574C57.9412 97.5785 54.7667 100.507 50.9672 100.507C47.1635 100.507 43.9889 97.5784 43.6473 93.7574C43.3015 89.9322 45.897 86.4731 49.634 85.7788L49.6205 85.7783ZM89.2695 3.6809C87.374 3.6809 85.6617 4.83393 84.9326 6.60554C84.2077 8.37295 84.6076 10.414 85.9491 11.769C87.2906 13.124 89.3069 13.5322 91.061 12.7958C92.8148 12.0636 93.9563 10.334 93.9563 8.41929C93.9605 7.16101 93.4647 5.95746 92.5856 5.06955C91.7066 4.18162 90.5152 3.6809 89.2695 3.6809ZM23.6997 8.09533C21.8042 8.09533 20.0919 9.24836 19.367 11.02C18.6421 12.7874 19.042 14.8241 20.3835 16.1792C21.725 17.5343 23.7414 17.9425 25.4954 17.206C27.2451 16.4738 28.3907 14.7485 28.3907 12.8337C28.3907 11.5754 27.895 10.3719 27.0159 9.48398C26.1368 8.59185 24.9454 8.09533 23.6997 8.09533ZM8.34395 65.1586C6.44842 65.1544 4.73612 66.3074 4.0112 68.079C3.28214 69.8506 3.68624 71.8875 5.02356 73.2425C6.36504 74.6017 8.38556 75.0057 10.1354 74.2735C11.8893 73.5413 13.0351 71.8116 13.0351 69.897C13.0351 68.6387 12.5435 67.4351 11.6644 66.5472C10.7812 65.6593 9.58964 65.1586 8.34395 65.1586ZM50.9547 36.231C53.8752 36.2268 56.4831 38.0658 57.483 40.8348C58.487 43.6037 57.6705 46.7051 55.4416 48.6072C59.0869 50.362 61.4158 54.0736 61.4241 58.1556V60.6553C64.6986 57.7642 66.6651 53.6486 66.8609 49.2639C67.0609 44.8748 65.4694 40.5993 62.4657 37.4223C59.4619 34.2452 55.3042 32.4524 50.9547 32.4524C46.6095 32.4524 42.4475 34.2452 39.4437 37.4223C36.44 40.5995 34.8527 44.875 35.0485 49.2639C35.2443 53.6489 37.2106 57.7644 40.4895 60.6553V58.1556C40.4978 54.0736 42.8266 50.362 46.472 48.603C44.2432 46.7051 43.4307 43.5995 44.4306 40.8348C45.4346 38.07 48.0426 36.231 50.9547 36.231ZM50.9547 38.9201C49.2216 38.9201 47.6551 39.9763 46.9928 41.5923C46.3262 43.2124 46.697 45.0767 47.9218 46.3139C49.1508 47.5552 50.9922 47.9256 52.5962 47.2565C54.2001 46.5832 55.2458 45.0009 55.2458 43.2503C55.2458 42.1014 54.7959 40.9989 53.9918 40.1866C53.1836 39.3745 52.0963 38.9201 50.9547 38.9201ZM58.762 62.5538V58.1562C58.7953 56.0396 57.9871 54.0027 56.5205 52.4963C55.0541 50.9898 53.0502 50.1397 50.9546 50.1397C48.8632 50.1397 46.8594 50.9897 45.3886 52.4963C43.9222 54.0027 43.1139 56.0396 43.1472 58.1562V62.5538C47.9966 65.3059 53.9125 65.3059 58.762 62.5538ZM50.9547 29.7631C46.0304 29.7631 41.3018 31.7409 37.8151 35.259C34.3323 38.7812 32.3742 43.5575 32.3742 48.5356C32.3742 53.5097 34.3322 58.286 37.8151 61.8078C41.3021 65.3259 46.0307 67.3038 50.9547 67.3038C55.8832 67.3038 60.6117 65.326 64.0985 61.8078C67.5813 58.2856 69.5395 53.5093 69.5395 48.5356V48.5314C69.5395 43.5573 67.5815 38.781 64.0944 35.2634C60.6115 31.7412 55.8829 29.7631 50.9547 29.7631ZM50.9547 25.1762C44.8264 25.1762 38.9435 27.638 34.607 32.0187C30.2701 36.3952 27.8329 42.3371 27.8329 48.5315C27.8329 54.7258 30.2701 60.6683 34.607 65.0443C38.944 69.425 44.8265 71.8868 50.9547 71.8868C57.0872 71.8868 62.9701 69.425 67.3066 65.0443C71.6435 60.6677 74.0766 54.7258 74.0766 48.5315C74.0766 42.3371 71.6436 36.3947 67.3066 32.0187C62.9697 27.638 57.0872 25.1762 50.9547 25.1762Z" fill="#3C7CFF"/>
<path fill-rule="evenodd" clip-rule="evenodd" d="M93.6316 65.1587C91.7319 65.1545 90.0196 66.3075 89.2947 68.0791C88.5656 69.8507 88.9697 71.8876 90.307 73.2426C91.6485 74.6018 93.669 75.0058 95.4189 74.2736C97.1728 73.5414 98.3185 71.8117 98.3185 69.8971C98.3185 68.6388 97.8269 67.4352 96.9478 66.5473C96.0646 65.6594 94.8731 65.1587 93.6316 65.1587ZM50.9536 88.3453C49.0581 88.3411 47.3458 89.4983 46.6209 91.2657C45.8918 93.0373 46.2959 95.0742 47.6374 96.4334C48.9789 97.7884 50.9952 98.1924 52.7492 97.4602C54.5031 96.728 55.6446 94.9983 55.6446 93.0837C55.6446 90.4662 53.5448 88.3453 50.9536 88.3453ZM49.6205 85.7783L49.6246 74.5421C44.3253 74.2686 39.2385 72.3454 35.0602 69.042C30.8816 65.7386 27.8112 61.2148 26.2697 56.0854L14.5007 65.8357C16.5754 69.0508 15.8838 73.3305 12.905 75.7124C9.92208 78.09 5.63936 77.7828 3.02307 75.0012C0.40263 72.2196 0.319228 67.8809 2.8231 64.9983C5.32698 62.1115 9.59722 61.6318 12.6676 63.8874L25.5821 53.1902C24.7531 48.5359 25.1864 43.7344 26.8486 39.3071C28.5109 34.8842 31.3313 30.996 35.01 28.0666L27.5735 19.1453V19.1411C24.3448 21.1694 20.1203 20.3783 17.829 17.3147C15.5376 14.2469 15.9376 9.92515 18.7497 7.34557C21.5618 4.76179 25.8612 4.77439 28.6609 7.37082C31.4605 9.96725 31.8396 14.2933 29.5316 17.3442L37.1722 26.5138C42.0758 23.3872 47.8705 22.0236 53.6372 22.6338C59.3989 23.244 64.7898 25.7984 68.9439 29.8804L83.0465 12.3786C81.0219 9.13413 81.7801 4.86277 84.7963 2.5315C87.8125 0.195926 92.0911 0.570501 94.6658 3.38996C97.2405 6.20946 97.2654 10.548 94.7241 13.3971C92.1786 16.246 87.9042 16.6669 84.8629 14.3649L70.7774 31.8624C74.6435 36.5376 76.7599 42.4417 76.7516 48.5357C76.7516 50.0801 76.6183 51.6245 76.3517 53.1478L89.3163 63.8871C92.3909 61.6273 96.6653 62.1071 99.1733 64.998C101.681 67.8848 101.598 72.2276 98.9775 75.0135C96.357 77.7993 92.0659 78.1065 89.0831 75.7247C86.1001 73.3387 85.4086 69.0547 87.4833 65.8355L75.6598 56.0431H75.664C74.1309 61.1812 71.0604 65.7177 66.8777 69.0299C62.6949 72.3417 57.6039 74.2649 52.2962 74.5426V85.7788C56.0331 86.4731 58.6328 89.9323 58.287 93.7574C57.9412 97.5785 54.7667 100.507 50.9672 100.507C47.1635 100.507 43.9889 97.5784 43.6473 93.7574C43.3015 89.9322 45.897 86.4731 49.634 85.7788L49.6205 85.7783ZM89.2695 3.6809C87.374 3.6809 85.6617 4.83393 84.9326 6.60554C84.2077 8.37295 84.6076 10.414 85.9491 11.769C87.2906 13.124 89.3069 13.5322 91.061 12.7958C92.8148 12.0636 93.9563 10.334 93.9563 8.41929C93.9605 7.16101 93.4647 5.95746 92.5856 5.06955C91.7066 4.18162 90.5152 3.6809 89.2695 3.6809ZM23.6997 8.09533C21.8042 8.09533 20.0919 9.24836 19.367 11.02C18.6421 12.7874 19.042 14.8241 20.3835 16.1792C21.725 17.5343 23.7414 17.9425 25.4954 17.206C27.2451 16.4738 28.3907 14.7485 28.3907 12.8337C28.3907 11.5754 27.895 10.3719 27.0159 9.48398C26.1368 8.59185 24.9454 8.09533 23.6997 8.09533ZM8.34395 65.1586C6.44842 65.1544 4.73612 66.3074 4.0112 68.079C3.28214 69.8506 3.68624 71.8875 5.02356 73.2425C6.36504 74.6017 8.38556 75.0057 10.1354 74.2735C11.8893 73.5413 13.0351 71.8116 13.0351 69.897C13.0351 68.6387 12.5435 67.4351 11.6644 66.5472C10.7812 65.6593 9.58964 65.1586 8.34395 65.1586ZM50.9547 36.231C53.8752 36.2268 56.4831 38.0658 57.483 40.8348C58.487 43.6037 57.6705 46.7051 55.4416 48.6072C59.0869 50.362 61.4158 54.0736 61.4241 58.1556V60.6553C64.6986 57.7642 66.6651 53.6486 66.8609 49.2639C67.0609 44.8748 65.4694 40.5993 62.4657 37.4223C59.4619 34.2452 55.3042 32.4524 50.9547 32.4524C46.6095 32.4524 42.4475 34.2452 39.4437 37.4223C36.44 40.5995 34.8527 44.875 35.0485 49.2639C35.2443 53.6489 37.2106 57.7644 40.4895 60.6553V58.1556C40.4978 54.0736 42.8266 50.362 46.472 48.603C44.2432 46.7051 43.4307 43.5995 44.4306 40.8348C45.4346 38.07 48.0426 36.231 50.9547 36.231ZM50.9547 38.9201C49.2216 38.9201 47.6551 39.9763 46.9928 41.5923C46.3262 43.2124 46.697 45.0767 47.9218 46.3139C49.1508 47.5552 50.9922 47.9256 52.5962 47.2565C54.2001 46.5832 55.2458 45.0009 55.2458 43.2503C55.2458 42.1014 54.7959 40.9989 53.9918 40.1866C53.1836 39.3745 52.0963 38.9201 50.9547 38.9201ZM58.762 62.5538V58.1562C58.7953 56.0396 57.9871 54.0027 56.5205 52.4963C55.0541 50.9898 53.0502 50.1397 50.9546 50.1397C48.8632 50.1397 46.8594 50.9897 45.3886 52.4963C43.9222 54.0027 43.1139 56.0396 43.1472 58.1562V62.5538C47.9966 65.3059 53.9125 65.3059 58.762 62.5538ZM50.9547 29.7631C46.0304 29.7631 41.3018 31.7409 37.8151 35.259C34.3323 38.7812 32.3742 43.5575 32.3742 48.5356C32.3742 53.5097 34.3322 58.286 37.8151 61.8078C41.3021 65.3259 46.0307 67.3038 50.9547 67.3038C55.8832 67.3038 60.6117 65.326 64.0985 61.8078C67.5813 58.2856 69.5395 53.5093 69.5395 48.5356V48.5314C69.5395 43.5573 67.5815 38.781 64.0944 35.2634C60.6115 31.7412 55.8829 29.7631 50.9547 29.7631ZM50.9547 25.1762C44.8264 25.1762 38.9435 27.638 34.607 32.0187C30.2701 36.3952 27.8329 42.3371 27.8329 48.5315C27.8329 54.7258 30.2701 60.6683 34.607 65.0443C38.944 69.425 44.8265 71.8868 50.9547 71.8868C57.0872 71.8868 62.9701 69.425 67.3066 65.0443C71.6435 60.6677 74.0766 54.7258 74.0766 48.5315C74.0766 42.3371 71.6436 36.3947 67.3066 32.0187C62.9697 27.638 57.0872 25.1762 50.9547 25.1762Z" stroke="#3C7CFF" stroke-width="1.2" mask="url(#path-1-outside-1_179_982)"/>
</svg>
