<svg width="102" height="102" viewBox="0 0 102 102" fill="none" xmlns="http://www.w3.org/2000/svg">
<mask id="path-1-outside-1_179_963" maskUnits="userSpaceOnUse" x="0" y="0" width="102" height="102" fill="black">
<rect fill="white" width="102" height="102"/>
<path d="M99.1039 68.539L80.8807 50.2825L80.87 50.2931C80.9364 48.2214 80.9125 45.9864 80.7984 43.5883C80.3349 33.9199 78.4818 23.7475 77.4181 18.5427C77.2338 17.6403 77.0464 16.7542 76.8603 15.9096C76.8137 15.6971 76.7545 15.4337 76.6928 15.1584C76.5758 14.6375 76.38 13.7656 76.3573 13.612C76.2867 12.9335 75.9668 12.3053 75.4597 11.849C74.9525 11.3927 74.2941 11.1407 73.6119 11.1419C71.522 11.1449 69.4683 11.6871 67.6493 12.716C65.8303 13.745 64.3076 15.2258 63.2285 17.0154C59.6643 14.4578 55.3867 13.0842 50.9997 13.0887C50.1893 13.0894 49.3796 13.1364 48.5745 13.2293L38.655 3.2914C37.5714 2.20556 36.1917 1.46317 34.6884 1.15701C33.1852 0.850844 31.625 0.994493 30.2029 1.57C28.7809 2.14551 27.56 3.12735 26.6928 4.39281C25.8257 5.65827 25.3508 7.15122 25.3274 8.68506L21.8144 5.16592C21.0897 4.43934 20.2288 3.86288 19.2809 3.46955C18.333 3.07623 17.3169 2.87376 16.2906 2.87376C15.2644 2.87376 14.2482 3.07623 13.3003 3.46955C12.3525 3.86288 11.4915 4.43934 10.7668 5.16592C9.6176 6.32141 8.85677 7.80608 8.59002 9.41374C8.32326 11.0214 8.56381 12.6722 9.27827 14.1369C9.12188 14.1275 8.9649 14.1214 8.80692 14.1214C7.78027 14.1187 6.76331 14.3199 5.81506 14.7134C4.86681 15.1068 4.00615 15.6847 3.28303 16.4134C1.82084 17.8828 1 19.8713 1 21.9442C1 24.0171 1.82084 26.0056 3.28303 27.475L8.1501 32.351C6.66205 32.4989 5.27198 33.1604 4.21875 34.2219C3.00432 35.4423 2.32257 37.0938 2.32257 38.8154C2.32257 40.5371 3.00432 42.1886 4.21875 43.409L33.4686 72.713C37.8274 77.1065 43.6219 79.7845 49.7929 80.2573L68.597 99.096C69.1989 99.6995 69.914 100.178 70.7014 100.505C71.4887 100.832 72.3327 101 73.1852 101C74.0376 101 74.8816 100.832 75.669 100.505C76.4563 100.178 77.1714 99.6995 77.7733 99.096L99.1039 77.726C100.318 76.5056 101 74.8541 101 73.1325C101 71.4109 100.318 69.7594 99.1039 68.539ZM36.6019 35.3996C36.848 38.4036 38.0291 41.2551 39.9794 43.5532L36.9748 46.5642C34.2383 43.4582 32.612 39.5308 32.3516 35.3996H36.6019ZM32.354 33.0091C32.6127 28.902 34.2175 24.9945 36.9201 21.8909C36.9356 21.873 36.9521 21.8561 36.9679 21.8383L39.9794 24.8555C38.0291 27.1537 36.848 30.0051 36.6019 33.0091H32.354ZM41.6684 45.2449C43.9594 47.1961 46.8052 48.3788 49.8044 48.6264V52.8893C45.6785 52.6265 41.7579 50.996 38.6624 48.2556L41.6684 45.2449ZM34.3053 47.0801C34.8371 47.7707 35.4109 48.4279 36.0234 49.0481C36.0477 49.0774 36.068 49.1078 36.0955 49.1361C36.123 49.1644 36.1523 49.1819 36.1804 49.2055C36.8687 49.8881 37.6027 50.5229 38.3775 51.1055C38.876 52.8675 39.7382 54.5056 40.9086 55.9141L38.3849 58.4424C35.7477 55.4055 34.2969 51.518 34.2998 47.4961C34.2998 47.3574 34.3019 47.2188 34.3053 47.0801ZM42.5977 57.6053C44.641 59.3089 47.1548 60.3495 49.8044 60.5884V64.1816C46.2074 63.925 42.7916 62.5044 40.0735 60.1346L42.5977 57.6053ZM43.4504 55.1531C43.4355 55.1364 43.4243 55.1174 43.4082 55.1015C43.392 55.0856 43.3751 55.0758 43.3592 55.0617C42.8205 54.5154 42.3423 53.9128 41.9326 53.2642C44.7636 54.6177 47.8618 55.3202 50.9997 55.3202C54.1377 55.3202 57.2359 54.6177 60.0669 53.2642C59.6573 53.9128 59.179 54.5154 58.6403 55.0617C58.6244 55.076 58.6066 55.0864 58.5913 55.1015C58.576 55.1166 58.564 55.1364 58.5491 55.1531C56.5385 57.1393 53.826 58.2531 50.9997 58.2531C48.1734 58.2531 45.461 57.1393 43.4504 55.1531ZM52.195 52.8901V48.6272C55.1942 48.3796 58.04 47.1969 60.3311 45.2457L63.3371 48.2572C60.2415 50.9973 56.3209 52.6275 52.195 52.8901ZM52.195 60.5884C54.8446 60.3495 57.3585 59.3089 59.4017 57.6053L61.926 60.1352C59.2078 62.5048 55.792 63.9252 52.195 64.1816V60.5884ZM61.0909 55.9141C62.2609 54.5055 63.1227 52.8674 63.6209 51.1055C64.3957 50.5229 65.1298 49.8881 65.8181 49.2055C65.8462 49.1819 65.8765 49.1624 65.903 49.1361C65.9295 49.1098 65.9508 49.0764 65.9751 49.0481C66.5876 48.4279 67.1613 47.7707 67.6931 47.0801C67.6965 47.2196 67.6987 47.3574 67.6987 47.4961C67.7016 51.518 66.2508 55.4055 63.6136 58.4424L61.0909 55.9141ZM65.0246 46.5642L62.019 43.5532C63.9693 41.2551 65.1505 38.4036 65.3966 35.3996H69.6479C69.3875 39.5308 67.7611 43.4582 65.0246 46.5642ZM65.3966 33.0091C65.1505 30.0051 63.9693 27.1537 62.019 24.8555L65.0246 21.8443C67.7611 24.9504 69.3874 28.8779 69.6479 33.0091H65.3966ZM52.195 15.5186C56.321 15.7814 60.2416 17.4119 63.3371 20.1523L60.3311 23.1638C58.0401 21.2126 55.1943 20.0297 52.195 19.7822V15.5186ZM63.0601 34.204C63.0552 36.5881 62.3436 38.9172 61.0154 40.8971C59.6872 42.877 57.8019 44.4188 55.5977 45.3277C53.3935 46.2366 50.9693 46.4719 48.6315 46.0037C46.2937 45.5356 44.1471 44.385 42.4629 42.6974C40.7787 41.0099 39.6326 38.861 39.1693 36.5224C38.7059 34.1837 38.9462 31.7602 39.8598 29.5581C40.7733 27.3559 42.3192 25.4739 44.3019 24.1499C46.2847 22.8259 48.6155 22.1192 50.9997 22.1192C54.2006 22.1262 57.2681 23.4025 59.529 25.6681C61.79 27.9337 63.0599 31.0037 63.0601 34.2044V34.204ZM49.8044 15.519V19.7819C46.8052 20.0295 43.9594 21.2124 41.6684 23.1636L38.6562 20.1457C41.3716 17.7467 44.7277 16.1916 48.3135 15.6708C48.8054 15.601 49.304 15.5506 49.8044 15.519ZM29.2994 4.98106C29.8021 4.47699 30.3993 4.07706 31.0569 3.80418C31.7144 3.5313 32.4193 3.39084 33.1312 3.39084C33.8432 3.39084 34.5481 3.5313 35.2056 3.80418C35.8632 4.07706 36.4604 4.47699 36.9631 4.98106L45.7275 13.7618C42.0996 14.7025 38.7884 16.594 36.1353 19.2411C36.1226 19.2527 36.1078 19.261 36.0955 19.2734C36.0831 19.2857 36.0736 19.3019 36.0612 19.3152C36.0413 19.3361 36.0198 19.3566 35.9993 19.3776L29.296 12.6608C28.2818 11.6397 27.7129 10.2588 27.7135 8.81973C27.7142 7.38061 28.2843 6.00023 29.2994 4.98006V4.98106ZM12.4596 6.85577C12.9622 6.35164 13.5594 5.95165 14.2169 5.67873C14.8745 5.40581 15.5794 5.26532 16.2913 5.26532C17.0032 5.26532 17.7082 5.40581 18.3657 5.67873C19.0232 5.95165 19.6204 6.35164 20.1231 6.85577L34.4157 21.175C31.9391 24.3374 30.416 28.1405 30.025 32.138L14.3314 16.4144L14.3278 16.4108L12.4604 14.5399C11.4442 13.5192 10.8737 12.1377 10.8735 10.6975C10.8734 9.25729 11.4436 7.87565 12.4596 6.85477V6.85577ZM50.4818 77.9072C44.6993 77.5878 39.2407 75.1354 35.162 71.0243L5.9107 41.7201C5.14278 40.9484 4.71168 39.904 4.71168 38.8153C4.71168 37.7267 5.14278 36.6823 5.9107 35.9105C6.29065 35.5295 6.74206 35.2273 7.23904 35.021C7.73603 34.8148 8.26883 34.7086 8.80692 34.7086C9.34501 34.7086 9.87781 34.8148 10.3748 35.021C10.8718 35.2273 11.3232 35.5295 11.7031 35.9105L12.0556 36.2639L26.6719 50.9073L28.5422 52.781C28.7661 53.0053 29.07 53.1316 29.3871 53.1319C29.7041 53.1322 30.0082 53.0066 30.2326 52.7827C30.457 52.5587 30.5833 52.2548 30.5836 51.9378C30.5839 51.6208 30.4583 51.3167 30.2343 51.0923L4.97518 25.7864C3.95938 24.7656 3.38914 23.3842 3.38914 21.9442C3.38914 20.5042 3.95938 19.1228 4.97518 18.1021C5.4777 17.5981 6.07471 17.1982 6.73201 16.9254C7.38931 16.6525 8.09399 16.5119 8.80569 16.5118C9.5174 16.5116 10.2221 16.6519 10.8796 16.9245C11.537 17.1971 12.1341 17.5967 12.6369 18.1005L29.9588 35.4546C30.1284 38.3852 30.9109 41.2476 32.2556 43.857C32.0253 45.0564 31.9093 46.2748 31.9091 47.4961C31.9053 52.5311 33.892 57.3635 37.4362 60.94C37.4585 60.9665 37.4761 60.995 37.5016 61.0197C37.5271 61.0444 37.5532 61.0609 37.5787 61.0824C41.1448 64.6291 45.97 66.6199 50.9997 66.6199C56.0294 66.6199 60.8546 64.6291 64.4208 61.0824C64.4463 61.0609 64.4738 61.0436 64.4979 61.0197C64.522 60.9958 64.5409 60.9663 64.5632 60.94C68.1074 57.3636 70.0941 52.5313 70.0903 47.4965C70.0902 46.2752 69.9742 45.0567 69.7439 43.8574C71.7788 39.8984 72.5102 35.3975 71.8335 30.9979C71.1568 26.5984 69.1067 22.5252 65.9761 19.3606C65.9518 19.3313 65.9315 19.2999 65.904 19.2724C65.8765 19.2449 65.8472 19.2266 65.8191 19.2033C65.5883 18.9743 65.3523 18.7507 65.1111 18.5325C65.9558 17.0188 67.1889 15.7575 68.6832 14.8786C70.1775 13.9998 71.8791 13.5351 73.6127 13.5325C73.7042 13.5324 73.7925 13.5662 73.8605 13.6273C73.9285 13.6885 73.9714 13.7728 73.9808 13.8638C74.0025 14.0684 74.0904 14.4763 74.3611 15.6819C74.4219 15.9526 74.4807 16.2122 74.5261 16.4214C74.7088 17.2548 74.8938 18.1295 75.0759 19.0208C76.1258 24.1573 77.9546 34.194 78.4104 43.7022C78.9316 54.5744 77.5215 62.0101 74.3325 65.2054L68.5239 71.0243C66.3402 73.2252 63.7411 74.9705 60.8775 76.1589C58.0138 77.3472 54.9427 77.9551 51.8422 77.9471L50.4818 77.9072ZM97.4126 76.0373L76.0812 97.4076C75.7013 97.7886 75.2499 98.0909 74.7529 98.2971C74.2559 98.5034 73.7231 98.6096 73.1851 98.6096C72.647 98.6096 72.1142 98.5034 71.6172 98.2971C71.1202 98.0909 70.6689 97.7886 70.2889 97.4076L53.2144 80.3015C59.6293 79.9789 65.6924 77.2726 70.2158 72.713L76.0244 66.8938C78.5839 64.3297 80.1432 59.8322 80.6883 53.473L97.412 70.2275C98.1799 70.9993 98.611 72.0437 98.611 73.1324C98.611 74.2211 98.1799 75.2655 97.412 76.0373H97.4126Z"/>
</mask>
<path d="M99.1039 68.539L80.8807 50.2825L80.87 50.2931C80.9364 48.2214 80.9125 45.9864 80.7984 43.5883C80.3349 33.9199 78.4818 23.7475 77.4181 18.5427C77.2338 17.6403 77.0464 16.7542 76.8603 15.9096C76.8137 15.6971 76.7545 15.4337 76.6928 15.1584C76.5758 14.6375 76.38 13.7656 76.3573 13.612C76.2867 12.9335 75.9668 12.3053 75.4597 11.849C74.9525 11.3927 74.2941 11.1407 73.6119 11.1419C71.522 11.1449 69.4683 11.6871 67.6493 12.716C65.8303 13.745 64.3076 15.2258 63.2285 17.0154C59.6643 14.4578 55.3867 13.0842 50.9997 13.0887C50.1893 13.0894 49.3796 13.1364 48.5745 13.2293L38.655 3.2914C37.5714 2.20556 36.1917 1.46317 34.6884 1.15701C33.1852 0.850844 31.625 0.994493 30.2029 1.57C28.7809 2.14551 27.56 3.12735 26.6928 4.39281C25.8257 5.65827 25.3508 7.15122 25.3274 8.68506L21.8144 5.16592C21.0897 4.43934 20.2288 3.86288 19.2809 3.46955C18.333 3.07623 17.3169 2.87376 16.2906 2.87376C15.2644 2.87376 14.2482 3.07623 13.3003 3.46955C12.3525 3.86288 11.4915 4.43934 10.7668 5.16592C9.6176 6.32141 8.85677 7.80608 8.59002 9.41374C8.32326 11.0214 8.56381 12.6722 9.27827 14.1369C9.12188 14.1275 8.9649 14.1214 8.80692 14.1214C7.78027 14.1187 6.76331 14.3199 5.81506 14.7134C4.86681 15.1068 4.00615 15.6847 3.28303 16.4134C1.82084 17.8828 1 19.8713 1 21.9442C1 24.0171 1.82084 26.0056 3.28303 27.475L8.1501 32.351C6.66205 32.4989 5.27198 33.1604 4.21875 34.2219C3.00432 35.4423 2.32257 37.0938 2.32257 38.8154C2.32257 40.5371 3.00432 42.1886 4.21875 43.409L33.4686 72.713C37.8274 77.1065 43.6219 79.7845 49.7929 80.2573L68.597 99.096C69.1989 99.6995 69.914 100.178 70.7014 100.505C71.4887 100.832 72.3327 101 73.1852 101C74.0376 101 74.8816 100.832 75.669 100.505C76.4563 100.178 77.1714 99.6995 77.7733 99.096L99.1039 77.726C100.318 76.5056 101 74.8541 101 73.1325C101 71.4109 100.318 69.7594 99.1039 68.539ZM36.6019 35.3996C36.848 38.4036 38.0291 41.2551 39.9794 43.5532L36.9748 46.5642C34.2383 43.4582 32.612 39.5308 32.3516 35.3996H36.6019ZM32.354 33.0091C32.6127 28.902 34.2175 24.9945 36.9201 21.8909C36.9356 21.873 36.9521 21.8561 36.9679 21.8383L39.9794 24.8555C38.0291 27.1537 36.848 30.0051 36.6019 33.0091H32.354ZM41.6684 45.2449C43.9594 47.1961 46.8052 48.3788 49.8044 48.6264V52.8893C45.6785 52.6265 41.7579 50.996 38.6624 48.2556L41.6684 45.2449ZM34.3053 47.0801C34.8371 47.7707 35.4109 48.4279 36.0234 49.0481C36.0477 49.0774 36.068 49.1078 36.0955 49.1361C36.123 49.1644 36.1523 49.1819 36.1804 49.2055C36.8687 49.8881 37.6027 50.5229 38.3775 51.1055C38.876 52.8675 39.7382 54.5056 40.9086 55.9141L38.3849 58.4424C35.7477 55.4055 34.2969 51.518 34.2998 47.4961C34.2998 47.3574 34.3019 47.2188 34.3053 47.0801ZM42.5977 57.6053C44.641 59.3089 47.1548 60.3495 49.8044 60.5884V64.1816C46.2074 63.925 42.7916 62.5044 40.0735 60.1346L42.5977 57.6053ZM43.4504 55.1531C43.4355 55.1364 43.4243 55.1174 43.4082 55.1015C43.392 55.0856 43.3751 55.0758 43.3592 55.0617C42.8205 54.5154 42.3423 53.9128 41.9326 53.2642C44.7636 54.6177 47.8618 55.3202 50.9997 55.3202C54.1377 55.3202 57.2359 54.6177 60.0669 53.2642C59.6573 53.9128 59.179 54.5154 58.6403 55.0617C58.6244 55.076 58.6066 55.0864 58.5913 55.1015C58.576 55.1166 58.564 55.1364 58.5491 55.1531C56.5385 57.1393 53.826 58.2531 50.9997 58.2531C48.1734 58.2531 45.461 57.1393 43.4504 55.1531ZM52.195 52.8901V48.6272C55.1942 48.3796 58.04 47.1969 60.3311 45.2457L63.3371 48.2572C60.2415 50.9973 56.3209 52.6275 52.195 52.8901ZM52.195 60.5884C54.8446 60.3495 57.3585 59.3089 59.4017 57.6053L61.926 60.1352C59.2078 62.5048 55.792 63.9252 52.195 64.1816V60.5884ZM61.0909 55.9141C62.2609 54.5055 63.1227 52.8674 63.6209 51.1055C64.3957 50.5229 65.1298 49.8881 65.8181 49.2055C65.8462 49.1819 65.8765 49.1624 65.903 49.1361C65.9295 49.1098 65.9508 49.0764 65.9751 49.0481C66.5876 48.4279 67.1613 47.7707 67.6931 47.0801C67.6965 47.2196 67.6987 47.3574 67.6987 47.4961C67.7016 51.518 66.2508 55.4055 63.6136 58.4424L61.0909 55.9141ZM65.0246 46.5642L62.019 43.5532C63.9693 41.2551 65.1505 38.4036 65.3966 35.3996H69.6479C69.3875 39.5308 67.7611 43.4582 65.0246 46.5642ZM65.3966 33.0091C65.1505 30.0051 63.9693 27.1537 62.019 24.8555L65.0246 21.8443C67.7611 24.9504 69.3874 28.8779 69.6479 33.0091H65.3966ZM52.195 15.5186C56.321 15.7814 60.2416 17.4119 63.3371 20.1523L60.3311 23.1638C58.0401 21.2126 55.1943 20.0297 52.195 19.7822V15.5186ZM63.0601 34.204C63.0552 36.5881 62.3436 38.9172 61.0154 40.8971C59.6872 42.877 57.8019 44.4188 55.5977 45.3277C53.3935 46.2366 50.9693 46.4719 48.6315 46.0037C46.2937 45.5356 44.1471 44.385 42.4629 42.6974C40.7787 41.0099 39.6326 38.861 39.1693 36.5224C38.7059 34.1837 38.9462 31.7602 39.8598 29.5581C40.7733 27.3559 42.3192 25.4739 44.3019 24.1499C46.2847 22.8259 48.6155 22.1192 50.9997 22.1192C54.2006 22.1262 57.2681 23.4025 59.529 25.6681C61.79 27.9337 63.0599 31.0037 63.0601 34.2044V34.204ZM49.8044 15.519V19.7819C46.8052 20.0295 43.9594 21.2124 41.6684 23.1636L38.6562 20.1457C41.3716 17.7467 44.7277 16.1916 48.3135 15.6708C48.8054 15.601 49.304 15.5506 49.8044 15.519ZM29.2994 4.98106C29.8021 4.47699 30.3993 4.07706 31.0569 3.80418C31.7144 3.5313 32.4193 3.39084 33.1312 3.39084C33.8432 3.39084 34.5481 3.5313 35.2056 3.80418C35.8632 4.07706 36.4604 4.47699 36.9631 4.98106L45.7275 13.7618C42.0996 14.7025 38.7884 16.594 36.1353 19.2411C36.1226 19.2527 36.1078 19.261 36.0955 19.2734C36.0831 19.2857 36.0736 19.3019 36.0612 19.3152C36.0413 19.3361 36.0198 19.3566 35.9993 19.3776L29.296 12.6608C28.2818 11.6397 27.7129 10.2588 27.7135 8.81973C27.7142 7.38061 28.2843 6.00023 29.2994 4.98006V4.98106ZM12.4596 6.85577C12.9622 6.35164 13.5594 5.95165 14.2169 5.67873C14.8745 5.40581 15.5794 5.26532 16.2913 5.26532C17.0032 5.26532 17.7082 5.40581 18.3657 5.67873C19.0232 5.95165 19.6204 6.35164 20.1231 6.85577L34.4157 21.175C31.9391 24.3374 30.416 28.1405 30.025 32.138L14.3314 16.4144L14.3278 16.4108L12.4604 14.5399C11.4442 13.5192 10.8737 12.1377 10.8735 10.6975C10.8734 9.25729 11.4436 7.87565 12.4596 6.85477V6.85577ZM50.4818 77.9072C44.6993 77.5878 39.2407 75.1354 35.162 71.0243L5.9107 41.7201C5.14278 40.9484 4.71168 39.904 4.71168 38.8153C4.71168 37.7267 5.14278 36.6823 5.9107 35.9105C6.29065 35.5295 6.74206 35.2273 7.23904 35.021C7.73603 34.8148 8.26883 34.7086 8.80692 34.7086C9.34501 34.7086 9.87781 34.8148 10.3748 35.021C10.8718 35.2273 11.3232 35.5295 11.7031 35.9105L12.0556 36.2639L26.6719 50.9073L28.5422 52.781C28.7661 53.0053 29.07 53.1316 29.3871 53.1319C29.7041 53.1322 30.0082 53.0066 30.2326 52.7827C30.457 52.5587 30.5833 52.2548 30.5836 51.9378C30.5839 51.6208 30.4583 51.3167 30.2343 51.0923L4.97518 25.7864C3.95938 24.7656 3.38914 23.3842 3.38914 21.9442C3.38914 20.5042 3.95938 19.1228 4.97518 18.1021C5.4777 17.5981 6.07471 17.1982 6.73201 16.9254C7.38931 16.6525 8.09399 16.5119 8.80569 16.5118C9.5174 16.5116 10.2221 16.6519 10.8796 16.9245C11.537 17.1971 12.1341 17.5967 12.6369 18.1005L29.9588 35.4546C30.1284 38.3852 30.9109 41.2476 32.2556 43.857C32.0253 45.0564 31.9093 46.2748 31.9091 47.4961C31.9053 52.5311 33.892 57.3635 37.4362 60.94C37.4585 60.9665 37.4761 60.995 37.5016 61.0197C37.5271 61.0444 37.5532 61.0609 37.5787 61.0824C41.1448 64.6291 45.97 66.6199 50.9997 66.6199C56.0294 66.6199 60.8546 64.6291 64.4208 61.0824C64.4463 61.0609 64.4738 61.0436 64.4979 61.0197C64.522 60.9958 64.5409 60.9663 64.5632 60.94C68.1074 57.3636 70.0941 52.5313 70.0903 47.4965C70.0902 46.2752 69.9742 45.0567 69.7439 43.8574C71.7788 39.8984 72.5102 35.3975 71.8335 30.9979C71.1568 26.5984 69.1067 22.5252 65.9761 19.3606C65.9518 19.3313 65.9315 19.2999 65.904 19.2724C65.8765 19.2449 65.8472 19.2266 65.8191 19.2033C65.5883 18.9743 65.3523 18.7507 65.1111 18.5325C65.9558 17.0188 67.1889 15.7575 68.6832 14.8786C70.1775 13.9998 71.8791 13.5351 73.6127 13.5325C73.7042 13.5324 73.7925 13.5662 73.8605 13.6273C73.9285 13.6885 73.9714 13.7728 73.9808 13.8638C74.0025 14.0684 74.0904 14.4763 74.3611 15.6819C74.4219 15.9526 74.4807 16.2122 74.5261 16.4214C74.7088 17.2548 74.8938 18.1295 75.0759 19.0208C76.1258 24.1573 77.9546 34.194 78.4104 43.7022C78.9316 54.5744 77.5215 62.0101 74.3325 65.2054L68.5239 71.0243C66.3402 73.2252 63.7411 74.9705 60.8775 76.1589C58.0138 77.3472 54.9427 77.9551 51.8422 77.9471L50.4818 77.9072ZM97.4126 76.0373L76.0812 97.4076C75.7013 97.7886 75.2499 98.0909 74.7529 98.2971C74.2559 98.5034 73.7231 98.6096 73.1851 98.6096C72.647 98.6096 72.1142 98.5034 71.6172 98.2971C71.1202 98.0909 70.6689 97.7886 70.2889 97.4076L53.2144 80.3015C59.6293 79.9789 65.6924 77.2726 70.2158 72.713L76.0244 66.8938C78.5839 64.3297 80.1432 59.8322 80.6883 53.473L97.412 70.2275C98.1799 70.9993 98.611 72.0437 98.611 73.1324C98.611 74.2211 98.1799 75.2655 97.412 76.0373H97.4126Z" fill="#3C7CFF"/>
<path d="M99.1039 68.539L80.8807 50.2825L80.87 50.2931C80.9364 48.2214 80.9125 45.9864 80.7984 43.5883C80.3349 33.9199 78.4818 23.7475 77.4181 18.5427C77.2338 17.6403 77.0464 16.7542 76.8603 15.9096C76.8137 15.6971 76.7545 15.4337 76.6928 15.1584C76.5758 14.6375 76.38 13.7656 76.3573 13.612C76.2867 12.9335 75.9668 12.3053 75.4597 11.849C74.9525 11.3927 74.2941 11.1407 73.6119 11.1419C71.522 11.1449 69.4683 11.6871 67.6493 12.716C65.8303 13.745 64.3076 15.2258 63.2285 17.0154C59.6643 14.4578 55.3867 13.0842 50.9997 13.0887C50.1893 13.0894 49.3796 13.1364 48.5745 13.2293L38.655 3.2914C37.5714 2.20556 36.1917 1.46317 34.6884 1.15701C33.1852 0.850844 31.625 0.994493 30.2029 1.57C28.7809 2.14551 27.56 3.12735 26.6928 4.39281C25.8257 5.65827 25.3508 7.15122 25.3274 8.68506L21.8144 5.16592C21.0897 4.43934 20.2288 3.86288 19.2809 3.46955C18.333 3.07623 17.3169 2.87376 16.2906 2.87376C15.2644 2.87376 14.2482 3.07623 13.3003 3.46955C12.3525 3.86288 11.4915 4.43934 10.7668 5.16592C9.6176 6.32141 8.85677 7.80608 8.59002 9.41374C8.32326 11.0214 8.56381 12.6722 9.27827 14.1369C9.12188 14.1275 8.9649 14.1214 8.80692 14.1214C7.78027 14.1187 6.76331 14.3199 5.81506 14.7134C4.86681 15.1068 4.00615 15.6847 3.28303 16.4134C1.82084 17.8828 1 19.8713 1 21.9442C1 24.0171 1.82084 26.0056 3.28303 27.475L8.1501 32.351C6.66205 32.4989 5.27198 33.1604 4.21875 34.2219C3.00432 35.4423 2.32257 37.0938 2.32257 38.8154C2.32257 40.5371 3.00432 42.1886 4.21875 43.409L33.4686 72.713C37.8274 77.1065 43.6219 79.7845 49.7929 80.2573L68.597 99.096C69.1989 99.6995 69.914 100.178 70.7014 100.505C71.4887 100.832 72.3327 101 73.1852 101C74.0376 101 74.8816 100.832 75.669 100.505C76.4563 100.178 77.1714 99.6995 77.7733 99.096L99.1039 77.726C100.318 76.5056 101 74.8541 101 73.1325C101 71.4109 100.318 69.7594 99.1039 68.539ZM36.6019 35.3996C36.848 38.4036 38.0291 41.2551 39.9794 43.5532L36.9748 46.5642C34.2383 43.4582 32.612 39.5308 32.3516 35.3996H36.6019ZM32.354 33.0091C32.6127 28.902 34.2175 24.9945 36.9201 21.8909C36.9356 21.873 36.9521 21.8561 36.9679 21.8383L39.9794 24.8555C38.0291 27.1537 36.848 30.0051 36.6019 33.0091H32.354ZM41.6684 45.2449C43.9594 47.1961 46.8052 48.3788 49.8044 48.6264V52.8893C45.6785 52.6265 41.7579 50.996 38.6624 48.2556L41.6684 45.2449ZM34.3053 47.0801C34.8371 47.7707 35.4109 48.4279 36.0234 49.0481C36.0477 49.0774 36.068 49.1078 36.0955 49.1361C36.123 49.1644 36.1523 49.1819 36.1804 49.2055C36.8687 49.8881 37.6027 50.5229 38.3775 51.1055C38.876 52.8675 39.7382 54.5056 40.9086 55.9141L38.3849 58.4424C35.7477 55.4055 34.2969 51.518 34.2998 47.4961C34.2998 47.3574 34.3019 47.2188 34.3053 47.0801ZM42.5977 57.6053C44.641 59.3089 47.1548 60.3495 49.8044 60.5884V64.1816C46.2074 63.925 42.7916 62.5044 40.0735 60.1346L42.5977 57.6053ZM43.4504 55.1531C43.4355 55.1364 43.4243 55.1174 43.4082 55.1015C43.392 55.0856 43.3751 55.0758 43.3592 55.0617C42.8205 54.5154 42.3423 53.9128 41.9326 53.2642C44.7636 54.6177 47.8618 55.3202 50.9997 55.3202C54.1377 55.3202 57.2359 54.6177 60.0669 53.2642C59.6573 53.9128 59.179 54.5154 58.6403 55.0617C58.6244 55.076 58.6066 55.0864 58.5913 55.1015C58.576 55.1166 58.564 55.1364 58.5491 55.1531C56.5385 57.1393 53.826 58.2531 50.9997 58.2531C48.1734 58.2531 45.461 57.1393 43.4504 55.1531ZM52.195 52.8901V48.6272C55.1942 48.3796 58.04 47.1969 60.3311 45.2457L63.3371 48.2572C60.2415 50.9973 56.3209 52.6275 52.195 52.8901ZM52.195 60.5884C54.8446 60.3495 57.3585 59.3089 59.4017 57.6053L61.926 60.1352C59.2078 62.5048 55.792 63.9252 52.195 64.1816V60.5884ZM61.0909 55.9141C62.2609 54.5055 63.1227 52.8674 63.6209 51.1055C64.3957 50.5229 65.1298 49.8881 65.8181 49.2055C65.8462 49.1819 65.8765 49.1624 65.903 49.1361C65.9295 49.1098 65.9508 49.0764 65.9751 49.0481C66.5876 48.4279 67.1613 47.7707 67.6931 47.0801C67.6965 47.2196 67.6987 47.3574 67.6987 47.4961C67.7016 51.518 66.2508 55.4055 63.6136 58.4424L61.0909 55.9141ZM65.0246 46.5642L62.019 43.5532C63.9693 41.2551 65.1505 38.4036 65.3966 35.3996H69.6479C69.3875 39.5308 67.7611 43.4582 65.0246 46.5642ZM65.3966 33.0091C65.1505 30.0051 63.9693 27.1537 62.019 24.8555L65.0246 21.8443C67.7611 24.9504 69.3874 28.8779 69.6479 33.0091H65.3966ZM52.195 15.5186C56.321 15.7814 60.2416 17.4119 63.3371 20.1523L60.3311 23.1638C58.0401 21.2126 55.1943 20.0297 52.195 19.7822V15.5186ZM63.0601 34.204C63.0552 36.5881 62.3436 38.9172 61.0154 40.8971C59.6872 42.877 57.8019 44.4188 55.5977 45.3277C53.3935 46.2366 50.9693 46.4719 48.6315 46.0037C46.2937 45.5356 44.1471 44.385 42.4629 42.6974C40.7787 41.0099 39.6326 38.861 39.1693 36.5224C38.7059 34.1837 38.9462 31.7602 39.8598 29.5581C40.7733 27.3559 42.3192 25.4739 44.3019 24.1499C46.2847 22.8259 48.6155 22.1192 50.9997 22.1192C54.2006 22.1262 57.2681 23.4025 59.529 25.6681C61.79 27.9337 63.0599 31.0037 63.0601 34.2044V34.204ZM49.8044 15.519V19.7819C46.8052 20.0295 43.9594 21.2124 41.6684 23.1636L38.6562 20.1457C41.3716 17.7467 44.7277 16.1916 48.3135 15.6708C48.8054 15.601 49.304 15.5506 49.8044 15.519ZM29.2994 4.98106C29.8021 4.47699 30.3993 4.07706 31.0569 3.80418C31.7144 3.5313 32.4193 3.39084 33.1312 3.39084C33.8432 3.39084 34.5481 3.5313 35.2056 3.80418C35.8632 4.07706 36.4604 4.47699 36.9631 4.98106L45.7275 13.7618C42.0996 14.7025 38.7884 16.594 36.1353 19.2411C36.1226 19.2527 36.1078 19.261 36.0955 19.2734C36.0831 19.2857 36.0736 19.3019 36.0612 19.3152C36.0413 19.3361 36.0198 19.3566 35.9993 19.3776L29.296 12.6608C28.2818 11.6397 27.7129 10.2588 27.7135 8.81973C27.7142 7.38061 28.2843 6.00023 29.2994 4.98006V4.98106ZM12.4596 6.85577C12.9622 6.35164 13.5594 5.95165 14.2169 5.67873C14.8745 5.40581 15.5794 5.26532 16.2913 5.26532C17.0032 5.26532 17.7082 5.40581 18.3657 5.67873C19.0232 5.95165 19.6204 6.35164 20.1231 6.85577L34.4157 21.175C31.9391 24.3374 30.416 28.1405 30.025 32.138L14.3314 16.4144L14.3278 16.4108L12.4604 14.5399C11.4442 13.5192 10.8737 12.1377 10.8735 10.6975C10.8734 9.25729 11.4436 7.87565 12.4596 6.85477V6.85577ZM50.4818 77.9072C44.6993 77.5878 39.2407 75.1354 35.162 71.0243L5.9107 41.7201C5.14278 40.9484 4.71168 39.904 4.71168 38.8153C4.71168 37.7267 5.14278 36.6823 5.9107 35.9105C6.29065 35.5295 6.74206 35.2273 7.23904 35.021C7.73603 34.8148 8.26883 34.7086 8.80692 34.7086C9.34501 34.7086 9.87781 34.8148 10.3748 35.021C10.8718 35.2273 11.3232 35.5295 11.7031 35.9105L12.0556 36.2639L26.6719 50.9073L28.5422 52.781C28.7661 53.0053 29.07 53.1316 29.3871 53.1319C29.7041 53.1322 30.0082 53.0066 30.2326 52.7827C30.457 52.5587 30.5833 52.2548 30.5836 51.9378C30.5839 51.6208 30.4583 51.3167 30.2343 51.0923L4.97518 25.7864C3.95938 24.7656 3.38914 23.3842 3.38914 21.9442C3.38914 20.5042 3.95938 19.1228 4.97518 18.1021C5.4777 17.5981 6.07471 17.1982 6.73201 16.9254C7.38931 16.6525 8.09399 16.5119 8.80569 16.5118C9.5174 16.5116 10.2221 16.6519 10.8796 16.9245C11.537 17.1971 12.1341 17.5967 12.6369 18.1005L29.9588 35.4546C30.1284 38.3852 30.9109 41.2476 32.2556 43.857C32.0253 45.0564 31.9093 46.2748 31.9091 47.4961C31.9053 52.5311 33.892 57.3635 37.4362 60.94C37.4585 60.9665 37.4761 60.995 37.5016 61.0197C37.5271 61.0444 37.5532 61.0609 37.5787 61.0824C41.1448 64.6291 45.97 66.6199 50.9997 66.6199C56.0294 66.6199 60.8546 64.6291 64.4208 61.0824C64.4463 61.0609 64.4738 61.0436 64.4979 61.0197C64.522 60.9958 64.5409 60.9663 64.5632 60.94C68.1074 57.3636 70.0941 52.5313 70.0903 47.4965C70.0902 46.2752 69.9742 45.0567 69.7439 43.8574C71.7788 39.8984 72.5102 35.3975 71.8335 30.9979C71.1568 26.5984 69.1067 22.5252 65.9761 19.3606C65.9518 19.3313 65.9315 19.2999 65.904 19.2724C65.8765 19.2449 65.8472 19.2266 65.8191 19.2033C65.5883 18.9743 65.3523 18.7507 65.1111 18.5325C65.9558 17.0188 67.1889 15.7575 68.6832 14.8786C70.1775 13.9998 71.8791 13.5351 73.6127 13.5325C73.7042 13.5324 73.7925 13.5662 73.8605 13.6273C73.9285 13.6885 73.9714 13.7728 73.9808 13.8638C74.0025 14.0684 74.0904 14.4763 74.3611 15.6819C74.4219 15.9526 74.4807 16.2122 74.5261 16.4214C74.7088 17.2548 74.8938 18.1295 75.0759 19.0208C76.1258 24.1573 77.9546 34.194 78.4104 43.7022C78.9316 54.5744 77.5215 62.0101 74.3325 65.2054L68.5239 71.0243C66.3402 73.2252 63.7411 74.9705 60.8775 76.1589C58.0138 77.3472 54.9427 77.9551 51.8422 77.9471L50.4818 77.9072ZM97.4126 76.0373L76.0812 97.4076C75.7013 97.7886 75.2499 98.0909 74.7529 98.2971C74.2559 98.5034 73.7231 98.6096 73.1851 98.6096C72.647 98.6096 72.1142 98.5034 71.6172 98.2971C71.1202 98.0909 70.6689 97.7886 70.2889 97.4076L53.2144 80.3015C59.6293 79.9789 65.6924 77.2726 70.2158 72.713L76.0244 66.8938C78.5839 64.3297 80.1432 59.8322 80.6883 53.473L97.412 70.2275C98.1799 70.9993 98.611 72.0437 98.611 73.1324C98.611 74.2211 98.1799 75.2655 97.412 76.0373H97.4126Z" stroke="#3C7CFF" mask="url(#path-1-outside-1_179_963)"/>
<path d="M82.6395 69.5935L82.6393 69.5934C82.2658 69.5117 81.8752 69.5809 81.5526 69.786C81.23 69.9911 81.0015 70.3154 80.917 70.6882L80.917 70.6882C80.867 70.909 79.4066 77.0446 71.2839 80.1957L71.2839 80.1958C71.1069 80.2644 70.9452 80.3672 70.808 80.4984C70.6708 80.6295 70.5608 80.7864 70.4842 80.9601C70.4076 81.1338 70.366 81.3209 70.3617 81.5106C70.3574 81.7004 70.3905 81.8891 70.4592 82.0661C70.5279 82.243 70.6307 82.4047 70.7619 82.5419C70.893 82.6791 71.0499 82.7892 71.2236 82.8658C71.5743 83.0204 71.9721 83.0294 72.3295 82.8907C81.9218 79.1692 83.6635 71.6623 83.7404 71.3087L83.7404 71.3086C83.8212 70.9352 83.7508 70.545 83.5444 70.2235L83.3368 70.3568L83.5444 70.2235C83.338 69.902 83.0126 69.6754 82.6395 69.5935Z" fill="#3C7CFF" stroke="#3C7CFF" stroke-width="0.5"/>
<path d="M52.4445 32.8598C53.5821 33.1693 54.593 33.8347 55.3278 34.7611C56.1039 35.7397 56.5263 36.9519 56.5263 38.2008C56.5263 39.4497 56.1039 40.662 55.3278 41.6405C54.593 42.5669 53.5821 43.2323 52.4445 43.5419V43.9104C52.4445 44.2937 52.2922 44.6613 52.0212 44.9323C51.7502 45.2034 51.3826 45.3556 50.9993 45.3556C50.616 45.3556 50.2484 45.2034 49.9773 44.9323C49.7063 44.6613 49.554 44.2937 49.554 43.9104V43.5455C49.0865 43.4195 48.6378 43.2318 48.2197 42.9872C48.0351 43.0531 47.8384 43.0808 47.6418 43.0681C47.3993 43.0524 47.1646 42.9757 46.9596 42.8451C46.7546 42.7145 46.5859 42.5343 46.4691 42.321C46.3524 42.1079 46.2915 41.8687 46.2919 41.6257M52.4445 32.8598L55.4349 26.545M52.4445 32.8598V27.8116M52.4445 32.8598L52.1945 27.6664M46.2919 41.6257C46.2919 41.6256 46.2919 41.6256 46.2919 41.6255L46.5419 41.6259M46.2919 41.6257V41.6259H46.5419M46.2919 41.6257V39.9998C46.2919 39.6165 46.4441 39.2489 46.7152 38.9779C46.9862 38.7069 47.3538 38.5546 47.7371 38.5546C48.1204 38.5546 48.488 38.7069 48.759 38.9779C49.03 39.2489 49.1823 39.6165 49.1823 39.9998V40.1164C49.2971 40.2261 49.4216 40.3249 49.554 40.4117V35.3627C48.4165 35.0531 47.4057 34.3877 46.671 33.4613C45.895 32.4828 45.4727 31.2706 45.4727 30.0218C45.4727 28.7729 45.895 27.5608 46.671 26.5823C47.4057 25.6559 48.4165 24.9905 49.554 24.6808V24.4983C49.554 24.115 49.7063 23.7474 49.9773 23.4764C50.2484 23.2054 50.616 23.0531 50.9993 23.0531C51.3826 23.0531 51.7502 23.2054 52.0212 23.4764C52.2922 23.7474 52.4445 24.115 52.4445 24.4983V24.6771C52.8884 24.7967 53.3156 24.972 53.7157 25.1989C53.9009 25.1264 54.0997 25.0929 54.2995 25.1009C54.5464 25.1108 54.7866 25.1839 54.9971 25.3133C55.2076 25.4426 55.3814 25.6238 55.5018 25.8395C55.6223 26.0552 55.6853 26.2983 55.6849 26.5453M46.5419 41.6259C46.5415 41.8269 46.5919 42.0247 46.6884 42.201C46.7849 42.3773 46.9244 42.5263 47.0939 42.6343C47.2634 42.7423 47.4574 42.8057 47.658 42.8186C47.8585 42.8316 48.0591 42.7937 48.2411 42.7084C48.7236 43.0062 49.2515 43.223 49.804 43.3502L46.5419 41.6259ZM55.6849 26.5453L55.4349 26.545M55.6849 26.5453V26.545H55.4349M55.6849 26.5453V27.4229M55.4349 26.545V27.4336M55.6849 27.4229C55.6846 27.419 55.6843 27.4151 55.6839 27.4111L55.4349 27.4336M55.6849 27.4229C55.6914 27.5018 55.6914 27.5811 55.6849 27.6601M55.6849 27.4229V27.4336H55.4349M55.4349 27.4336L55.6849 27.6601M55.6849 27.6601V27.6493H55.4349L55.6839 27.6718C55.6843 27.6679 55.6846 27.664 55.6849 27.6601ZM55.6849 27.6601V28.1711C55.6849 28.5544 55.5327 28.922 55.2616 29.193C54.9906 29.464 54.623 29.6163 54.2397 29.6163C53.8564 29.6163 53.4888 29.464 53.2178 29.193C52.9468 28.922 52.7945 28.5544 52.7945 28.1711V28.0871M55.6849 27.6601L53.0445 27.9816M52.7945 28.0871C52.819 28.1101 52.8431 28.1335 52.8667 28.1574L53.0445 27.9816M52.7945 28.0871V27.9816H53.0445M52.7945 28.0871C52.6858 27.9853 52.5686 27.8932 52.4445 27.8116M53.0445 27.9816C52.8657 27.8008 52.6638 27.6449 52.4445 27.5178V27.8116M52.4445 27.8116C52.364 27.7586 52.2805 27.7102 52.1945 27.6664M52.1945 27.6664V27.389V27.6664ZM48.3628 30.0217C48.3633 29.5152 48.5092 29.0194 48.783 28.5933C48.9836 28.2813 49.2467 28.0161 49.554 27.8138V32.2296C49.2466 32.0273 48.9836 31.7621 48.783 31.4501C48.5091 31.024 48.3633 30.5282 48.3628 30.0217ZM53.2162 39.6296C53.0156 39.9419 52.7522 40.207 52.4445 40.4092V35.9924C52.7522 36.1946 53.0156 36.4598 53.2162 36.772C53.4902 37.1982 53.6359 37.6942 53.6359 38.2008C53.6359 38.7075 53.4902 39.2034 53.2162 39.6296Z" fill="#3C7CFF" stroke="#3C7CFF" stroke-width="0.5"/>
</svg>
