<svg width="100" height="102" viewBox="0 0 100 102" fill="none" xmlns="http://www.w3.org/2000/svg">
<mask id="path-1-outside-1_179_990" maskUnits="userSpaceOnUse" x="11" y="0" width="79" height="102" fill="black">
<rect fill="white" x="11" width="79" height="102"/>
<path d="M25.0766 40.8928H13.0858C12.484 40.8928 12 41.381 12 41.9786V60.8252C12 61.427 12.4882 61.911 13.0858 61.911H25.0766C25.6785 61.911 26.1625 61.4228 26.1625 60.8252V41.9786C26.1625 41.381 25.6743 40.8928 25.0766 40.8928ZM23.9866 59.7393H14.1718V43.0681H23.9866V59.7393ZM87.8161 18.3798H75.8253C75.2235 18.3798 74.7395 18.868 74.7395 19.4656V60.8252C74.7395 61.427 75.2277 61.911 75.8253 61.911H87.8118C88.4136 61.911 88.8976 61.4228 88.8976 60.8252L88.9018 19.4699C88.9018 18.8681 88.4137 18.3798 87.8161 18.3798ZM86.7303 59.7393H76.9155V20.5562H86.7303V59.7393ZM15.1443 28.5529C14.8497 28.0268 15.0391 27.366 15.5652 27.0756L38.0394 14.5332C38.3046 14.3859 38.6202 14.3564 38.9064 14.449L56.8231 20.2908L78.5615 3.65731L76.6675 3.13542C76.091 2.97549 75.7501 2.37786 75.91 1.79703C76.0699 1.22043 76.6676 0.87953 77.2484 1.03945L81.2382 2.1379C81.4571 2.19682 81.6633 2.32309 81.8148 2.51668V2.52089C81.979 2.73554 82.0505 2.99227 82.0379 3.24059L81.8275 7.38204C81.798 7.97968 81.2972 8.44265 80.6869 8.41318C80.0892 8.38372 79.6263 7.87025 79.6557 7.27261L79.7483 5.47124L57.69 22.3654C57.4038 22.5843 57.0334 22.6474 56.6925 22.5338L38.6832 16.6626L16.6248 28.9734C16.4564 29.066 16.2755 29.1123 16.0945 29.1123C15.7115 29.1123 15.3463 28.9107 15.1443 28.5529ZM80.8636 90.2071L70.9479 81.2888C75.9478 72.8545 74.9588 61.8282 67.9891 54.4165V37.4511C67.9891 36.8493 67.5009 36.3653 66.9033 36.3653L54.9125 36.3611C54.3106 36.3611 53.8266 36.8493 53.8266 37.4469V47.4384C51.575 47.2154 49.2981 47.3332 47.0758 47.7836V31.1889C47.0758 30.587 46.5876 30.103 45.99 30.103H33.9992C33.3974 30.103 32.9134 30.5912 32.9134 31.1889V57.2833C27.0464 66.0249 27.9682 78.0024 35.6869 85.7223C40.0724 90.1077 45.8342 92.3005 51.592 92.3005C55.5651 92.3005 59.5423 91.2568 63.0646 89.1693L71.9828 99.0851C73.0519 100.272 74.5502 100.954 76.2042 100.996C76.259 100.996 76.3137 101 76.3726 101C78.0645 101 79.706 100.322 80.9012 99.1271C82.1343 97.894 82.8161 96.1809 82.7699 94.4301C82.7278 92.776 82.0502 91.2777 80.8633 90.2087L80.8636 90.2071ZM56.0028 38.5364H65.8176V52.3837C62.901 50.0016 59.5213 48.4612 56.0028 47.7624V38.5364ZM35.0855 32.2738H44.9003V48.3427C41.5249 49.3865 38.3515 51.2426 35.6873 53.9067C35.4811 54.113 35.2833 54.3234 35.0855 54.5338L35.0855 32.2738ZM37.2236 84.1848C29.2985 76.2597 29.2985 63.3687 37.2236 55.4474C45.1486 47.5265 58.0396 47.5265 65.9653 55.4474C73.8903 63.3724 73.8903 76.2634 65.9653 84.1848C62.0048 88.1452 56.7986 90.1275 51.5966 90.1275C46.3904 90.1275 41.1883 88.1452 37.2236 84.1848ZM79.3653 97.5859C78.5488 98.4024 77.4125 98.8486 76.2635 98.819C75.2113 98.7896 74.2685 98.3687 73.5993 97.6279L64.8957 87.9562C65.8048 87.287 66.6759 86.5421 67.4967 85.7214C68.3174 84.9007 69.0623 84.0295 69.7315 83.1204L79.4033 91.824C80.144 92.489 80.5691 93.436 80.5944 94.4882C80.6322 95.6414 80.1818 96.7736 79.3653 97.5859ZM63.6035 57.8091C56.9832 51.1888 46.2083 51.1888 39.5885 57.8091C36.3814 61.0162 34.6138 65.2796 34.6138 69.8171C34.6138 74.3541 36.3814 78.6176 39.5885 81.8252C42.9008 85.1374 47.2485 86.7915 51.5966 86.7915C55.9447 86.7915 60.2918 85.1374 63.6046 81.8252C70.2249 75.2007 70.2249 64.4299 63.6046 57.8102L63.6035 57.8091ZM62.0631 80.2833C56.2887 86.0578 46.8949 86.0578 41.1242 80.2833C38.3295 77.4887 36.7892 73.7682 36.7892 69.812C36.7892 65.8557 38.3296 62.1394 41.1242 59.3406C44.0114 56.4534 47.8034 55.0098 51.5956 55.0098C55.3877 55.0098 59.1798 56.4534 62.067 59.3406C67.8372 65.1192 67.8375 74.5126 62.0631 80.2833ZM59.1423 64.5258C59.5674 64.9509 59.5674 65.6369 59.1423 66.062L50.1061 75.0982C49.9041 75.3002 49.6263 75.4181 49.3359 75.4181C49.0498 75.4181 48.772 75.3044 48.5658 75.0982L44.0456 70.578C43.6205 70.1529 43.6205 69.467 44.0456 69.0418C44.4707 68.6167 45.1566 68.6167 45.5818 69.0418L49.3318 72.7918L57.602 64.5216C58.0271 64.105 58.7172 64.105 59.1423 64.5258Z"/>
</mask>
<path d="M25.0766 40.8928H13.0858C12.484 40.8928 12 41.381 12 41.9786V60.8252C12 61.427 12.4882 61.911 13.0858 61.911H25.0766C25.6785 61.911 26.1625 61.4228 26.1625 60.8252V41.9786C26.1625 41.381 25.6743 40.8928 25.0766 40.8928ZM23.9866 59.7393H14.1718V43.0681H23.9866V59.7393ZM87.8161 18.3798H75.8253C75.2235 18.3798 74.7395 18.868 74.7395 19.4656V60.8252C74.7395 61.427 75.2277 61.911 75.8253 61.911H87.8118C88.4136 61.911 88.8976 61.4228 88.8976 60.8252L88.9018 19.4699C88.9018 18.8681 88.4137 18.3798 87.8161 18.3798ZM86.7303 59.7393H76.9155V20.5562H86.7303V59.7393ZM15.1443 28.5529C14.8497 28.0268 15.0391 27.366 15.5652 27.0756L38.0394 14.5332C38.3046 14.3859 38.6202 14.3564 38.9064 14.449L56.8231 20.2908L78.5615 3.65731L76.6675 3.13542C76.091 2.97549 75.7501 2.37786 75.91 1.79703C76.0699 1.22043 76.6676 0.87953 77.2484 1.03945L81.2382 2.1379C81.4571 2.19682 81.6633 2.32309 81.8148 2.51668V2.52089C81.979 2.73554 82.0505 2.99227 82.0379 3.24059L81.8275 7.38204C81.798 7.97968 81.2972 8.44265 80.6869 8.41318C80.0892 8.38372 79.6263 7.87025 79.6557 7.27261L79.7483 5.47124L57.69 22.3654C57.4038 22.5843 57.0334 22.6474 56.6925 22.5338L38.6832 16.6626L16.6248 28.9734C16.4564 29.066 16.2755 29.1123 16.0945 29.1123C15.7115 29.1123 15.3463 28.9107 15.1443 28.5529ZM80.8636 90.2071L70.9479 81.2888C75.9478 72.8545 74.9588 61.8282 67.9891 54.4165V37.4511C67.9891 36.8493 67.5009 36.3653 66.9033 36.3653L54.9125 36.3611C54.3106 36.3611 53.8266 36.8493 53.8266 37.4469V47.4384C51.575 47.2154 49.2981 47.3332 47.0758 47.7836V31.1889C47.0758 30.587 46.5876 30.103 45.99 30.103H33.9992C33.3974 30.103 32.9134 30.5912 32.9134 31.1889V57.2833C27.0464 66.0249 27.9682 78.0024 35.6869 85.7223C40.0724 90.1077 45.8342 92.3005 51.592 92.3005C55.5651 92.3005 59.5423 91.2568 63.0646 89.1693L71.9828 99.0851C73.0519 100.272 74.5502 100.954 76.2042 100.996C76.259 100.996 76.3137 101 76.3726 101C78.0645 101 79.706 100.322 80.9012 99.1271C82.1343 97.894 82.8161 96.1809 82.7699 94.4301C82.7278 92.776 82.0502 91.2777 80.8633 90.2087L80.8636 90.2071ZM56.0028 38.5364H65.8176V52.3837C62.901 50.0016 59.5213 48.4612 56.0028 47.7624V38.5364ZM35.0855 32.2738H44.9003V48.3427C41.5249 49.3865 38.3515 51.2426 35.6873 53.9067C35.4811 54.113 35.2833 54.3234 35.0855 54.5338L35.0855 32.2738ZM37.2236 84.1848C29.2985 76.2597 29.2985 63.3687 37.2236 55.4474C45.1486 47.5265 58.0396 47.5265 65.9653 55.4474C73.8903 63.3724 73.8903 76.2634 65.9653 84.1848C62.0048 88.1452 56.7986 90.1275 51.5966 90.1275C46.3904 90.1275 41.1883 88.1452 37.2236 84.1848ZM79.3653 97.5859C78.5488 98.4024 77.4125 98.8486 76.2635 98.819C75.2113 98.7896 74.2685 98.3687 73.5993 97.6279L64.8957 87.9562C65.8048 87.287 66.6759 86.5421 67.4967 85.7214C68.3174 84.9007 69.0623 84.0295 69.7315 83.1204L79.4033 91.824C80.144 92.489 80.5691 93.436 80.5944 94.4882C80.6322 95.6414 80.1818 96.7736 79.3653 97.5859ZM63.6035 57.8091C56.9832 51.1888 46.2083 51.1888 39.5885 57.8091C36.3814 61.0162 34.6138 65.2796 34.6138 69.8171C34.6138 74.3541 36.3814 78.6176 39.5885 81.8252C42.9008 85.1374 47.2485 86.7915 51.5966 86.7915C55.9447 86.7915 60.2918 85.1374 63.6046 81.8252C70.2249 75.2007 70.2249 64.4299 63.6046 57.8102L63.6035 57.8091ZM62.0631 80.2833C56.2887 86.0578 46.8949 86.0578 41.1242 80.2833C38.3295 77.4887 36.7892 73.7682 36.7892 69.812C36.7892 65.8557 38.3296 62.1394 41.1242 59.3406C44.0114 56.4534 47.8034 55.0098 51.5956 55.0098C55.3877 55.0098 59.1798 56.4534 62.067 59.3406C67.8372 65.1192 67.8375 74.5126 62.0631 80.2833ZM59.1423 64.5258C59.5674 64.9509 59.5674 65.6369 59.1423 66.062L50.1061 75.0982C49.9041 75.3002 49.6263 75.4181 49.3359 75.4181C49.0498 75.4181 48.772 75.3044 48.5658 75.0982L44.0456 70.578C43.6205 70.1529 43.6205 69.467 44.0456 69.0418C44.4707 68.6167 45.1566 68.6167 45.5818 69.0418L49.3318 72.7918L57.602 64.5216C58.0271 64.105 58.7172 64.105 59.1423 64.5258Z" fill="#3C7CFF"/>
<path d="M25.0766 40.8928H13.0858C12.484 40.8928 12 41.381 12 41.9786V60.8252C12 61.427 12.4882 61.911 13.0858 61.911H25.0766C25.6785 61.911 26.1625 61.4228 26.1625 60.8252V41.9786C26.1625 41.381 25.6743 40.8928 25.0766 40.8928ZM23.9866 59.7393H14.1718V43.0681H23.9866V59.7393ZM87.8161 18.3798H75.8253C75.2235 18.3798 74.7395 18.868 74.7395 19.4656V60.8252C74.7395 61.427 75.2277 61.911 75.8253 61.911H87.8118C88.4136 61.911 88.8976 61.4228 88.8976 60.8252L88.9018 19.4699C88.9018 18.8681 88.4137 18.3798 87.8161 18.3798ZM86.7303 59.7393H76.9155V20.5562H86.7303V59.7393ZM15.1443 28.5529C14.8497 28.0268 15.0391 27.366 15.5652 27.0756L38.0394 14.5332C38.3046 14.3859 38.6202 14.3564 38.9064 14.449L56.8231 20.2908L78.5615 3.65731L76.6675 3.13542C76.091 2.97549 75.7501 2.37786 75.91 1.79703C76.0699 1.22043 76.6676 0.87953 77.2484 1.03945L81.2382 2.1379C81.4571 2.19682 81.6633 2.32309 81.8148 2.51668V2.52089C81.979 2.73554 82.0505 2.99227 82.0379 3.24059L81.8275 7.38204C81.798 7.97968 81.2972 8.44265 80.6869 8.41318C80.0892 8.38372 79.6263 7.87025 79.6557 7.27261L79.7483 5.47124L57.69 22.3654C57.4038 22.5843 57.0334 22.6474 56.6925 22.5338L38.6832 16.6626L16.6248 28.9734C16.4564 29.066 16.2755 29.1123 16.0945 29.1123C15.7115 29.1123 15.3463 28.9107 15.1443 28.5529ZM80.8636 90.2071L70.9479 81.2888C75.9478 72.8545 74.9588 61.8282 67.9891 54.4165V37.4511C67.9891 36.8493 67.5009 36.3653 66.9033 36.3653L54.9125 36.3611C54.3106 36.3611 53.8266 36.8493 53.8266 37.4469V47.4384C51.575 47.2154 49.2981 47.3332 47.0758 47.7836V31.1889C47.0758 30.587 46.5876 30.103 45.99 30.103H33.9992C33.3974 30.103 32.9134 30.5912 32.9134 31.1889V57.2833C27.0464 66.0249 27.9682 78.0024 35.6869 85.7223C40.0724 90.1077 45.8342 92.3005 51.592 92.3005C55.5651 92.3005 59.5423 91.2568 63.0646 89.1693L71.9828 99.0851C73.0519 100.272 74.5502 100.954 76.2042 100.996C76.259 100.996 76.3137 101 76.3726 101C78.0645 101 79.706 100.322 80.9012 99.1271C82.1343 97.894 82.8161 96.1809 82.7699 94.4301C82.7278 92.776 82.0502 91.2777 80.8633 90.2087L80.8636 90.2071ZM56.0028 38.5364H65.8176V52.3837C62.901 50.0016 59.5213 48.4612 56.0028 47.7624V38.5364ZM35.0855 32.2738H44.9003V48.3427C41.5249 49.3865 38.3515 51.2426 35.6873 53.9067C35.4811 54.113 35.2833 54.3234 35.0855 54.5338L35.0855 32.2738ZM37.2236 84.1848C29.2985 76.2597 29.2985 63.3687 37.2236 55.4474C45.1486 47.5265 58.0396 47.5265 65.9653 55.4474C73.8903 63.3724 73.8903 76.2634 65.9653 84.1848C62.0048 88.1452 56.7986 90.1275 51.5966 90.1275C46.3904 90.1275 41.1883 88.1452 37.2236 84.1848ZM79.3653 97.5859C78.5488 98.4024 77.4125 98.8486 76.2635 98.819C75.2113 98.7896 74.2685 98.3687 73.5993 97.6279L64.8957 87.9562C65.8048 87.287 66.6759 86.5421 67.4967 85.7214C68.3174 84.9007 69.0623 84.0295 69.7315 83.1204L79.4033 91.824C80.144 92.489 80.5691 93.436 80.5944 94.4882C80.6322 95.6414 80.1818 96.7736 79.3653 97.5859ZM63.6035 57.8091C56.9832 51.1888 46.2083 51.1888 39.5885 57.8091C36.3814 61.0162 34.6138 65.2796 34.6138 69.8171C34.6138 74.3541 36.3814 78.6176 39.5885 81.8252C42.9008 85.1374 47.2485 86.7915 51.5966 86.7915C55.9447 86.7915 60.2918 85.1374 63.6046 81.8252C70.2249 75.2007 70.2249 64.4299 63.6046 57.8102L63.6035 57.8091ZM62.0631 80.2833C56.2887 86.0578 46.8949 86.0578 41.1242 80.2833C38.3295 77.4887 36.7892 73.7682 36.7892 69.812C36.7892 65.8557 38.3296 62.1394 41.1242 59.3406C44.0114 56.4534 47.8034 55.0098 51.5956 55.0098C55.3877 55.0098 59.1798 56.4534 62.067 59.3406C67.8372 65.1192 67.8375 74.5126 62.0631 80.2833ZM59.1423 64.5258C59.5674 64.9509 59.5674 65.6369 59.1423 66.062L50.1061 75.0982C49.9041 75.3002 49.6263 75.4181 49.3359 75.4181C49.0498 75.4181 48.772 75.3044 48.5658 75.0982L44.0456 70.578C43.6205 70.1529 43.6205 69.467 44.0456 69.0418C44.4707 68.6167 45.1566 68.6167 45.5818 69.0418L49.3318 72.7918L57.602 64.5216C58.0271 64.105 58.7172 64.105 59.1423 64.5258Z" stroke="#3C7CFF" mask="url(#path-1-outside-1_179_990)"/>
</svg>
