<svg width="100" height="100" viewBox="0 0 100 100" fill="none" xmlns="http://www.w3.org/2000/svg">
<path d="M98.0769 95.1148H1.92308C1.41305 95.1148 0.923903 94.8887 0.563257 94.4863C0.20261 94.0839 0 93.5381 0 92.969V7.14575C0 6.57666 0.20261 6.03088 0.563257 5.62848C0.923903 5.22607 1.41305 5 1.92308 5H98.0769C98.587 5 99.0761 5.22607 99.4367 5.62848C99.7974 6.03088 100 6.57666 100 7.14575V92.969C100 93.5381 99.7974 94.0839 99.4367 94.4863C99.0761 94.8887 98.587 95.1148 98.0769 95.1148ZM3.84615 90.8233H96.1538V9.2915H3.84615V90.8233Z" fill="#3C7CFF"/>
<path d="M98.0769 27.7837H1.92308C1.41305 27.7837 0.923903 27.5576 0.563257 27.1552C0.20261 26.7528 0 26.207 0 25.6379C0 25.0688 0.20261 24.5231 0.563257 24.1207C0.923903 23.7183 1.41305 23.4922 1.92308 23.4922H98.0769C98.587 23.4922 99.0761 23.7183 99.4367 24.1207C99.7974 24.5231 100 25.0688 100 25.6379C100 26.207 99.7974 26.7528 99.4367 27.1552C99.0761 27.5576 98.587 27.7837 98.0769 27.7837Z" fill="#3C7CFF"/>
<path d="M73.7277 18.5383H67.8659C67.3559 18.5383 66.8668 18.3123 66.5061 17.9099C66.1455 17.5074 65.9429 16.9617 65.9429 16.3926C65.9429 15.8235 66.1455 15.2777 66.5061 14.8753C66.8668 14.4729 67.3559 14.2468 67.8659 14.2468H73.7277C74.2378 14.2468 74.7269 14.4729 75.0875 14.8753C75.4482 15.2777 75.6508 15.8235 75.6508 16.3926C75.6508 16.9617 75.4482 17.5074 75.0875 17.9099C74.7269 18.3123 74.2378 18.5383 73.7277 18.5383Z" fill="#3C7CFF"/>
<path d="M87.3881 18.5383H81.5251C81.0151 18.5383 80.526 18.3123 80.1653 17.9099C79.8047 17.5074 79.6021 16.9617 79.6021 16.3926C79.6021 15.8235 79.8047 15.2777 80.1653 14.8753C80.526 14.4729 81.0151 14.2468 81.5251 14.2468H87.3881C87.8981 14.2468 88.3873 14.4729 88.7479 14.8753C89.1086 15.2777 89.3112 15.8235 89.3112 16.3926C89.3112 16.9617 89.1086 17.5074 88.7479 17.9099C88.3873 18.3123 87.8981 18.5383 87.3881 18.5383Z" fill="#3C7CFF"/>
<path d="M47.6755 68.9634C46.6392 68.9595 45.6465 68.498 44.9143 67.6797C44.1821 66.8615 43.77 65.7531 43.7681 64.5968V54.0021C43.7685 53.2369 43.9493 52.4853 44.2924 51.8227C44.6355 51.1602 45.1288 50.61 45.7228 50.2275C46.3167 49.845 46.9904 49.6435 47.6762 49.6434C48.3621 49.6433 49.0358 49.8446 49.6298 50.227L57.857 55.527C58.4507 55.9099 58.9437 56.4604 59.2865 57.1231C59.6292 57.7859 59.8096 58.5376 59.8096 59.3028C59.8096 60.068 59.6292 60.8197 59.2865 61.4825C58.9437 62.1452 58.4507 62.6957 57.857 63.0787L49.6298 68.3787C49.0357 68.7616 48.3617 68.9632 47.6755 68.9634ZM47.6755 53.9257C47.6644 53.9268 47.6536 53.931 47.6443 53.9378C47.613 53.9579 47.613 53.9713 47.613 53.9968V64.5914C47.613 64.6182 47.613 64.6303 47.6443 64.6504C47.6528 64.6586 47.6637 64.6631 47.6749 64.6631C47.6862 64.6631 47.6971 64.6586 47.7056 64.6504L55.9327 59.3504C55.9532 59.3383 55.9628 59.3316 55.9628 59.2914C55.9648 59.279 55.9628 59.2662 55.957 59.2554C55.9513 59.2445 55.9422 59.2364 55.9315 59.2324L47.7068 53.9431C47.6981 53.9353 47.6878 53.9302 47.6767 53.9284L47.6755 53.9257Z" fill="#3C7CFF"/>
<path d="M49.9996 76.6761C45.8708 76.6707 41.9124 74.8383 38.9929 71.5807C36.0733 68.3231 34.431 63.9064 34.4263 59.2995C34.4263 49.7187 41.413 41.9243 49.9996 41.9243C58.5861 41.9243 65.5729 49.7187 65.5729 59.2995C65.5681 63.9064 63.9258 68.3231 61.0063 71.5807C58.0868 74.8383 54.1284 76.6707 49.9996 76.6761ZM49.9996 46.2158C47.6801 46.2158 45.4127 46.9833 43.4842 48.4211C41.5557 49.859 40.0526 51.9027 39.165 54.2937C38.2774 56.6848 38.0453 59.3158 38.4978 61.8541C38.9504 64.3924 40.0675 66.7239 41.7077 68.5539C43.3479 70.3838 45.4375 71.6299 47.7125 72.1346C49.9874 72.6394 52.3454 72.3801 54.4882 71.3895C56.631 70.3989 58.4625 68.7215 59.751 66.5695C61.0394 64.4175 61.727 61.8876 61.7268 59.2995C61.7233 55.8305 60.4866 52.5046 58.288 50.0518C56.0895 47.5989 53.1086 46.2194 49.9996 46.2158Z" fill="#3C7CFF"/>
<path d="M24.2149 85.0994C23.7051 85.0995 23.2161 84.8738 22.8555 84.4718C16.8805 77.791 13.5249 68.7383 13.5249 59.3001C13.5249 49.862 16.8805 40.8093 22.8555 34.1285C23.0331 33.9245 23.2453 33.762 23.4798 33.6503C23.7142 33.5386 23.9662 33.4801 24.2211 33.4781C24.476 33.4761 24.7287 33.5306 24.9646 33.6386C25.2004 33.7465 25.4146 33.9057 25.5949 34.1068C25.7751 34.308 25.9176 34.5471 26.0143 34.8103C26.1109 35.0735 26.1597 35.3555 26.1578 35.6399C26.1558 35.9243 26.1033 36.2055 26.0031 36.467C25.9029 36.7286 25.7571 36.9653 25.5742 37.1634C20.3211 43.0395 17.371 51.0004 17.371 59.3001C17.371 67.5999 20.3211 75.5608 25.5742 81.4369C25.843 81.737 26.026 82.1192 26.1001 82.5353C26.1743 82.9514 26.1362 83.3827 25.9907 83.7747C25.8452 84.1667 25.5989 84.5017 25.2828 84.7375C24.9667 84.9733 24.5951 85.0992 24.2149 85.0994Z" fill="#3C7CFF"/>
<path d="M31.6103 76.8532C31.3575 76.8537 31.1072 76.7983 30.8737 76.6904C30.6402 76.5824 30.4281 76.424 30.2497 76.2242C26.232 71.7325 23.9756 65.6456 23.9756 59.2996C23.9756 52.9536 26.232 46.8668 30.2497 42.375C30.6104 41.9726 31.0996 41.7465 31.6097 41.7465C32.1198 41.7465 32.609 41.9726 32.9697 42.375C33.3304 42.7775 33.533 43.3233 33.533 43.8925C33.533 44.4616 33.3304 45.0074 32.9697 45.4099C29.6731 49.0969 27.8218 54.0923 27.8218 59.3003C27.8218 64.5083 29.6731 69.5037 32.9697 73.1906C33.2384 73.4907 33.4215 73.873 33.4956 74.2891C33.5697 74.7052 33.5316 75.1365 33.3862 75.5284C33.2407 75.9204 32.9943 76.2554 32.6782 76.4912C32.3622 76.727 31.9905 76.853 31.6103 76.8532Z" fill="#3C7CFF"/>
<path d="M75.7848 85.0995C75.4043 85.0996 75.0324 84.9738 74.716 84.7379C74.3997 84.502 74.1531 84.1668 74.0076 83.7745C73.8621 83.3823 73.8241 82.9507 73.8985 82.5344C73.9728 82.1181 74.1562 81.7357 74.4254 81.4357C79.6785 75.5596 82.6286 67.5986 82.6286 59.2989C82.6286 50.9992 79.6785 43.0383 74.4254 37.1622C74.2425 36.9641 74.0967 36.7274 73.9965 36.4658C73.8963 36.2043 73.8438 35.9231 73.8419 35.6387C73.8399 35.3543 73.8887 35.0723 73.9853 34.8091C74.082 34.5459 74.2245 34.3068 74.4048 34.1056C74.585 33.9045 74.7992 33.7453 75.0351 33.6373C75.2709 33.5294 75.5236 33.4748 75.7785 33.4769C76.0334 33.4789 76.2854 33.5374 76.5198 33.6491C76.7543 33.7607 76.9665 33.9233 77.1441 34.1273C83.1191 40.8081 86.4747 49.8608 86.4747 59.2989C86.4747 68.7371 83.1191 77.7898 77.1441 84.4706C76.7837 84.873 76.2947 85.0993 75.7848 85.0995Z" fill="#3C7CFF"/>
<path d="M68.3895 76.8532C68.0093 76.853 67.6376 76.727 67.3216 76.4912C67.0055 76.2554 66.7591 75.9204 66.6136 75.5284C66.4682 75.1365 66.4301 74.7052 66.5042 74.2891C66.5783 73.873 66.7614 73.4907 67.0301 73.1906C70.3267 69.5037 72.178 64.5083 72.178 59.3003C72.178 54.0923 70.3267 49.0969 67.0301 45.4099C66.6694 45.0074 66.4668 44.4616 66.4668 43.8925C66.4668 43.3233 66.6694 42.7775 67.0301 42.375C67.3908 41.9726 67.88 41.7465 68.3901 41.7465C68.9002 41.7465 69.3894 41.9726 69.7501 42.375C73.7678 46.8668 76.0242 52.9536 76.0242 59.2996C76.0242 65.6456 73.7678 71.7325 69.7501 76.2242C69.5717 76.424 69.3596 76.5824 69.1261 76.6904C68.8926 76.7983 68.6423 76.8537 68.3895 76.8532Z" fill="#3C7CFF"/>
</svg>
