<svg width="100" height="100" viewBox="0 0 100 100" fill="none" xmlns="http://www.w3.org/2000/svg">
<path d="M67.8696 66.4268C67.8696 58.9903 64.1954 53.124 57.7846 50.3435C57.2721 50.1254 56.6725 50.1799 56.2146 50.507C54.3829 51.7937 52.2351 52.4697 49.9891 52.4697C47.7431 52.4697 45.628 51.8046 43.8072 50.5397C43.3493 50.2235 42.7606 50.1581 42.2372 50.3871C35.7937 53.2003 32.1086 59.0448 32.0977 66.4268C32.0977 66.852 32.2721 67.2664 32.5665 67.5717C32.8718 67.877 33.2752 68.0406 33.7113 68.0406H66.2451C67.1391 68.0406 67.8587 67.3209 67.8587 66.4268H67.8696ZM35.4121 64.813C35.87 59.8299 38.4867 55.8718 42.7715 53.7019C44.952 55.0104 47.427 55.6864 49.9891 55.6864C52.5512 55.6864 55.0807 54.9885 57.2721 53.6583C60.1068 55.0976 64.0209 58.2379 64.577 64.813H35.4121ZM49.9891 49.7656C54.9062 49.7656 58.9075 45.7638 58.9075 40.8461C58.9075 35.9285 54.9062 31.9267 49.9891 31.9267C45.072 31.9267 41.0706 35.9285 41.0706 40.8461C41.0706 45.7638 45.072 49.7656 49.9891 49.7656ZM49.9891 35.1652C53.1291 35.1652 55.6803 37.7167 55.6803 40.857C55.6803 43.9974 53.1291 46.5489 49.9891 46.5489C46.8491 46.5489 44.2979 43.9974 44.2979 40.857C44.2979 37.7167 46.8491 35.1652 49.9891 35.1652ZM0.392499 43.7248C1.75534 32.799 6.82512 22.4621 14.6424 14.644C22.4706 6.81496 32.7955 1.75553 43.72 0.392542C44.6031 0.283502 45.4099 0.905026 45.519 1.78825C45.628 2.67146 45.0065 3.47836 44.1234 3.58739C22.9067 6.24796 6.24727 22.9092 3.587 44.1282C3.48888 44.946 2.7911 45.5457 1.9843 45.5457C1.91888 45.5457 1.85347 45.5457 1.77715 45.5348C0.894026 45.4258 0.261666 44.6189 0.381596 43.7357L0.392499 43.7248ZM54.4592 1.78825C54.5683 0.905026 55.3751 0.272599 56.2582 0.392542C67.1827 1.75553 77.5185 6.82586 85.3358 14.644C93.164 22.473 98.2229 32.799 99.5857 43.7248C99.6947 44.608 99.0733 45.4149 98.1902 45.5239C98.1247 45.5239 98.0593 45.5348 97.983 45.5348C97.1762 45.5348 96.4893 44.9351 96.3803 44.1173C93.7309 22.9092 77.0606 6.23705 55.8439 3.57649C54.9608 3.46745 54.3284 2.66056 54.4483 1.77734L54.4592 1.78825ZM99.5966 56.2643C98.2338 67.1901 93.164 77.527 85.3467 85.3451C77.5185 93.1741 67.1936 98.2336 56.2691 99.5965C56.2037 99.5965 56.1382 99.6075 56.0619 99.6075C55.2551 99.6075 54.5683 99.0077 54.4592 98.1899C54.3502 97.3067 54.9717 96.4998 55.8548 96.3908C77.0606 93.7411 93.7309 77.069 96.3912 55.85C96.5002 54.9667 97.307 54.3343 98.1902 54.4543C99.0733 54.5633 99.7056 55.3702 99.5857 56.2534L99.5966 56.2643ZM45.5299 98.2008C45.4318 99.0186 44.734 99.6184 43.9272 99.6184C43.8618 99.6184 43.7963 99.6184 43.72 99.6075C32.7955 98.2445 22.4597 93.1741 14.6424 85.356C6.81422 77.527 1.75534 67.201 0.392499 56.2752C0.283472 55.392 0.904928 54.5851 1.78805 54.4761C2.67117 54.367 3.47798 54.9885 3.587 55.8718C6.23637 77.0799 22.9067 93.752 44.1234 96.4126C45.0065 96.5216 45.6389 97.3285 45.519 98.2117L45.5299 98.2008ZM89.2281 51.6083H98.3864C99.2804 51.6083 100 50.8887 100 49.9945C100 49.1004 99.2804 48.3808 98.3864 48.3808H89.2281C88.3995 28.0122 71.9799 11.5909 51.6136 10.7622V1.61378C51.6136 0.71966 50.894 0 50 0C49.106 0 48.3864 0.71966 48.3864 1.61378V10.7622C28.0201 11.5909 11.6005 28.0122 10.7719 48.3808H1.61361C0.719581 48.3808 0 49.1004 0 49.9945C0 50.8887 0.719581 51.6083 1.61361 51.6083H10.761C11.5896 71.9769 28.0092 88.3982 48.3755 89.2269V98.3862C48.3755 99.2803 49.0951 100 49.9891 100C50.8831 100 51.6027 99.2803 51.6027 98.3862V89.2269C71.969 88.3982 88.3886 71.9769 89.2172 51.6083H89.2281ZM14.01 51.6083H20.9224L17.3245 55.2066C16.6921 55.8391 16.6921 56.8531 17.3245 57.4855C17.6406 57.8018 18.055 57.9544 18.4693 57.9544C18.8836 57.9544 19.2979 57.8018 19.614 57.4855L25.9594 51.1395C26.5918 50.507 26.5918 49.493 25.9594 48.8605L19.614 42.5144C18.9817 41.882 17.9677 41.882 17.3354 42.5144C16.703 43.1469 16.703 44.1609 17.3354 44.7934L20.9333 48.3917H14.0209C14.8386 29.8005 29.819 14.8294 48.4082 14.0007V20.9137L44.8103 17.3155C44.1779 16.683 43.164 16.683 42.5316 17.3155C41.8993 17.9479 41.8993 18.9619 42.5316 19.5944L48.877 25.9405C49.1932 26.2567 49.6075 26.4093 50.0218 26.4093C50.4361 26.4093 50.8504 26.2567 51.1666 25.9405L57.512 19.5944C58.1444 18.9619 58.1444 17.9479 57.512 17.3155C56.8796 16.683 55.8657 16.683 55.2333 17.3155L51.6354 20.9137V14.0007C70.2246 14.8184 85.1941 29.8005 86.0227 48.3917H79.1103L82.7082 44.7934C83.3406 44.1609 83.3406 43.1469 82.7082 42.5144C82.0759 41.882 81.0619 41.882 80.4296 42.5144L74.0842 48.8605C73.4518 49.493 73.4518 50.507 74.0842 51.1395L80.4296 57.4855C80.7458 57.8018 81.1601 57.9544 81.5744 57.9544C81.9887 57.9544 82.403 57.8018 82.7191 57.4855C83.3515 56.8531 83.3515 55.8391 82.7191 55.2066L79.1212 51.6083H86.0336C85.2159 70.1995 70.2355 85.1706 51.6463 85.9993V79.0862L55.2442 82.6845C55.8766 83.317 56.8905 83.317 57.5229 82.6845C58.1553 82.0521 58.1553 81.0381 57.5229 80.4056L51.1775 74.0595C50.5451 73.4271 49.5312 73.4271 48.8988 74.0595L42.5534 80.4056C41.9211 81.0381 41.9211 82.0521 42.5534 82.6845C42.8696 83.0008 43.2839 83.1534 43.6982 83.1534C44.1125 83.1534 44.5268 83.0008 44.843 82.6845L48.4409 79.0862V85.9993C29.8517 85.1815 14.8823 70.1995 14.0536 51.6083H14.01Z" fill="#3C7CFF"/>
</svg>
