<svg width="100" height="101" viewBox="0 0 100 101" fill="none" xmlns="http://www.w3.org/2000/svg">
<path d="M10.1796 101H89.8243C95.4356 101 100 96.5 100 90.9727C100 59.6864 100 24.1535 100 11.0273C100 5.5 95.4356 1 89.8243 1H10.1757C4.56438 1 0 5.5 0 11.0273C0 24.1553 0 59.6861 0 90.9727C0 96.5 4.56835 101 10.1796 101ZM95.9393 90.9727C95.9393 94.2969 93.1951 97 89.8243 97H10.1796C6.80488 97 4.06075 94.2969 4.06075 90.9727V21.3203H95.9393V90.9727ZM4.06075 11.0273C4.06075 7.70312 6.80488 5 10.1757 5H89.8243C93.1951 5 95.9393 7.70312 95.9393 11.0273V17.3203H4.06075V11.0273Z" fill="#3C7CFF"/>
<path d="M66.5384 9.16016H61.3038C60.1816 9.16016 59.2734 10.0547 59.2734 11.1602C59.2734 12.2656 60.1816 13.1602 61.3038 13.1602H66.5384C67.6606 13.1602 68.5688 12.2656 68.5688 11.1602C68.5688 10.0547 67.6606 9.16016 66.5384 9.16016Z" fill="#3C7CFF"/>
<path d="M77.6858 9.16016H72.4513C71.329 9.16016 70.4209 10.0547 70.4209 11.1602C70.4209 12.2656 71.329 13.1602 72.4513 13.1602H77.6858C78.8081 13.1602 79.7162 12.2656 79.7162 11.1602C79.7162 10.0547 78.8081 9.16016 77.6858 9.16016Z" fill="#3C7CFF"/>
<path d="M88.8368 9.16016H83.5982C82.476 9.16016 81.5679 10.0547 81.5679 11.1602C81.5679 12.2656 82.476 13.1602 83.5982 13.1602H88.8368C89.959 13.1602 90.8672 12.2656 90.8672 11.1602C90.8672 10.0547 89.959 9.16016 88.8368 9.16016Z" fill="#3C7CFF"/>
<path d="M15.6125 67.082H30.8483C32.4841 67.082 33.8586 66.2197 34.7221 64.9844H39.805C42.5135 76.929 53.0964 85.4648 65.7493 85.4648C80.4616 85.4648 92.4297 73.6523 92.4297 59.1367C92.4297 44.6445 80.4616 32.8555 65.7493 32.8555C53.2977 32.8555 42.4905 41.5898 39.8082 53.3359H34.7202C33.8564 52.1033 32.4828 51.2422 30.8483 51.2422H15.6125C11.179 51.2422 7.57031 54.793 7.57031 59.1602C7.57031 63.5273 11.179 67.082 15.6125 67.082ZM65.7493 36.8555C78.2211 36.8555 88.369 46.8516 88.369 59.1367C88.369 71.4492 78.2211 81.4648 65.7493 81.4648C54.5109 81.4648 45.1045 73.5625 43.3795 62.6172C43.1812 61.5742 43.086 60.4336 43.086 59.1367C43.086 57.8711 43.1812 56.7461 43.3914 55.6445C45.0847 44.9336 54.6973 36.8555 65.7493 36.8555ZM35.6506 57.3359H39.0848C39.0451 57.9141 39.0253 58.5117 39.0253 59.1367C39.0253 59.7812 39.0451 60.3945 39.0887 60.9844H35.6506V57.3359ZM15.6125 55.2422H30.8483C31.2488 55.2422 31.574 55.5625 31.574 55.9531V62.3672C31.574 62.7617 31.2488 63.082 30.8483 63.082H15.6125C13.4156 63.082 11.6311 61.3242 11.6311 59.1602C11.6311 57 13.4156 55.2422 15.6125 55.2422Z" fill="#3C7CFF"/>
<path d="M50.133 60.6483C48.5388 61.2538 47.6942 63.0233 48.2057 64.66C48.3921 65.2733 48.6261 65.8436 49.0187 66.7694C49.7721 68.2538 51.5051 68.9413 53.2222 68.371C53.932 68.0975 54.7687 68.289 55.3477 68.8593C55.9267 69.4179 56.1012 70.2733 55.8077 71.0038C55.1137 72.6366 55.7641 74.4686 57.3107 75.2577C57.9729 75.6015 58.6312 75.8788 59.2776 76.1093C60.8956 76.7421 62.7356 75.9921 63.4613 74.4218C64.1672 72.9335 66.6219 72.9413 67.2524 74.578C67.7719 75.8202 69.0091 76.578 70.29 76.578C70.635 76.578 70.984 76.5233 71.3211 76.41C72.0507 76.1874 72.7526 75.9335 73.3951 75.6366C74.9377 74.9413 75.6713 73.1874 75.0963 71.5311C74.8147 70.7655 74.9892 69.9452 75.5404 69.4022C76.1591 68.8124 77.0315 68.6483 77.8167 68.9608C79.4426 69.5858 81.2786 68.9491 82.0757 67.453C82.4088 66.828 82.6825 66.203 82.9957 65.4296C83.543 63.8202 82.7975 62.121 81.1914 61.3671C80.4657 61.0468 80.0136 60.3475 80.0136 59.5468C80.0136 58.7108 80.5371 57.9725 81.3659 57.6522C82.9878 57.0038 83.7968 55.2069 83.2297 53.6132C83.0076 52.9296 82.7538 52.246 82.4643 51.6561C81.7585 50.0624 79.8986 49.3358 78.2965 49.9491C77.5074 50.2186 76.6786 50.0546 76.1234 49.5077C75.5285 48.9061 75.3541 48.0546 75.6673 47.2968C76.3534 45.664 75.6991 43.8358 74.089 43.0155C73.4546 42.7147 72.8082 42.4218 72.1618 42.1874C70.528 41.5858 68.7434 42.3241 67.9741 43.9296C67.3039 45.3593 64.8215 45.3046 64.2029 43.785C63.5763 42.2069 61.8156 41.3905 60.1302 41.8983L60.0945 41.9061C59.4283 42.1171 58.7621 42.3866 58.0403 42.6913C56.4779 43.4296 55.7681 45.2108 56.3788 46.8085C56.6524 47.5468 56.47 48.3749 55.9108 48.9218C55.316 49.5077 54.4475 49.6718 53.6901 49.3905C52.0365 48.7108 50.1845 49.3475 49.2883 51.0429C49.0028 51.6366 48.7212 52.2343 48.5031 52.8202C47.8647 54.4374 48.6578 56.2538 50.2321 56.9218C50.9618 57.2616 51.4297 57.9882 51.4297 58.7616C51.4297 59.5975 50.9102 60.3515 50.133 60.6483ZM55.4905 58.7616C55.4905 56.6874 54.3762 54.746 52.552 53.6249C52.5996 53.5077 52.6551 53.3944 52.7066 53.2772C54.8718 53.8827 57.1957 53.3124 58.7779 51.7538C60.2928 50.2694 60.8916 48.0975 60.384 46.0585C60.503 46.0116 60.6219 45.9647 60.7449 45.9218C61.8116 47.8593 63.8499 49.0741 66.1222 49.0741C68.2874 49.0741 70.2781 47.9491 71.3568 46.1757C71.4757 46.2304 71.5947 46.2811 71.7137 46.3319C71.0792 48.4257 71.6462 50.7147 73.2364 52.3202C74.7354 53.7968 76.9403 54.3788 79.0262 53.8944C79.0738 54.0155 79.1174 54.1327 79.165 54.2538C77.1901 55.3046 75.9529 57.3085 75.9529 59.5468C75.9529 61.6835 77.1029 63.6483 78.9112 64.703C78.8596 64.8202 78.8041 64.9335 78.7526 65.0507C76.6389 64.4413 74.315 64.9882 72.6852 66.5585C71.1704 68.0507 70.5755 70.2421 71.0792 72.2616C70.9562 72.3085 70.8293 72.3554 70.7024 72.3983C69.6595 70.4804 67.5974 69.2343 65.3489 69.2343C63.1758 69.2343 61.2287 70.3241 60.1064 72.1366C59.9874 72.0858 59.8724 72.035 59.7535 71.9843C60.388 69.8515 59.805 67.5546 58.2029 66.0155C56.6564 64.4921 54.4198 63.914 52.4251 64.4218C52.3775 64.3046 52.3299 64.1874 52.2863 64.0663C54.2294 63.035 55.4905 60.9882 55.4905 58.7616Z" fill="#3C7CFF"/>
<path d="M65.7335 67.1211C70.1869 67.1211 73.8074 63.5547 73.8074 59.168C73.8074 54.7812 70.1869 51.2148 65.7335 51.2148C61.2841 51.2148 57.6636 54.7812 57.6636 59.168C57.6636 63.5547 61.2841 67.1211 65.7335 67.1211ZM65.7335 55.2148C67.9463 55.2148 69.7466 56.9883 69.7466 59.168C69.7466 61.3477 67.9463 63.1211 65.7335 63.1211C63.5247 63.1211 61.7243 61.3477 61.7243 59.168C61.7243 56.9883 63.5247 55.2148 65.7335 55.2148Z" fill="#3C7CFF"/>
</svg>
