<svg width="102" height="100" viewBox="0 0 102 100" fill="none" xmlns="http://www.w3.org/2000/svg">
<mask id="path-1-outside-1_206_1372" maskUnits="userSpaceOnUse" x="0" y="14" width="102" height="74" fill="black">
<rect fill="white" y="14" width="102" height="74"/>
<path fill-rule="evenodd" clip-rule="evenodd" d="M37.7772 52.4014C37.5044 52.1279 37.1452 51.9575 36.7609 51.9193C36.3765 51.881 35.9908 51.9772 35.6694 52.1915C35.3481 52.4058 35.111 52.7249 34.9986 53.0945C34.8862 53.464 34.9055 53.8611 35.0531 54.218C35.2008 54.5749 35.4676 54.8696 35.8082 55.0518C36.1488 55.234 36.542 55.2924 36.9208 55.2171C37.2997 55.1418 37.6407 54.9375 37.8857 54.6389C38.1307 54.3403 38.2646 53.966 38.2645 53.5797C38.2648 53.3609 38.222 53.1442 38.1383 52.942C38.0547 52.7398 37.932 52.5561 37.7772 52.4014ZM36.5988 49.2558C37.6002 49.2554 38.5708 49.6023 39.3451 50.2374C40.1194 50.8724 40.6496 51.7563 40.8452 52.7385C41.0409 53.7206 40.89 54.7402 40.4182 55.6235C39.9464 56.5068 39.1829 57.1992 38.2578 57.5827C37.3327 57.9662 36.3033 58.017 35.3449 57.7266C34.3865 57.4361 33.5585 56.8224 33.0019 55.9899C32.4453 55.1574 32.1946 54.1576 32.2926 53.161C32.3905 52.1644 32.8309 51.2325 33.5389 50.5243C33.9402 50.1216 34.4171 49.8023 34.9422 49.5846C35.4674 49.3669 36.0303 49.2552 36.5988 49.2558ZM69.3291 41.6026C69.6027 41.8748 69.8199 42.1983 69.9683 42.5546C70.1166 42.9109 70.1932 43.2929 70.1936 43.6789V75.9941C70.1901 76.773 69.8792 77.519 69.3284 78.0697C68.7776 78.6205 68.0316 78.9315 67.2528 78.935H6.60359C5.82451 78.9318 5.07824 78.6209 4.52723 78.0701C3.97623 77.5193 3.66511 76.7732 3.66159 75.9941V43.6744C3.66453 42.8952 3.97546 42.1487 4.52659 41.5978C5.07772 41.0468 5.82433 40.7362 6.60359 40.7336H67.2528C67.6387 40.7338 68.0209 40.8103 68.3772 40.9587C68.7335 41.107 69.057 41.3243 69.3291 41.5981V41.6026ZM9.214 61.1016V58.5658C9.18664 58.2316 9.03458 57.92 8.78803 57.6928C8.54148 57.4656 8.21847 57.3395 7.8832 57.3395C7.54793 57.3395 7.22492 57.4656 6.97837 57.6928C6.73182 57.92 6.57976 58.2316 6.5524 58.5658V61.1016C6.57976 61.4358 6.73182 61.7474 6.97837 61.9746C7.22492 62.2018 7.54793 62.3279 7.8832 62.3279C8.21847 62.3279 8.54148 62.2018 8.78803 61.9746C9.03458 61.7474 9.18664 61.4358 9.214 61.1016ZM60.7323 45.0642V74.6032C60.7323 74.9573 60.5916 75.297 60.3412 75.5474C60.0908 75.7978 59.7512 75.9385 59.397 75.9385H13.2798C12.9257 75.9385 12.5861 75.7978 12.3357 75.5474C12.0853 75.297 11.9446 74.9573 11.9446 74.6032V45.0642C11.9446 44.7101 12.0853 44.3704 12.3357 44.12C12.5861 43.8696 12.9257 43.729 13.2798 43.729H59.397C59.7512 43.729 60.0908 43.8696 60.3412 44.12C60.5916 44.3704 60.7323 44.7101 60.7323 45.0642ZM36.8603 63.4172L29.7145 58.5647C29.4994 58.3998 29.239 58.3047 28.9683 58.2922C28.6976 58.2796 28.4295 58.3503 28.2001 58.4946L14.6084 67.0346V46.395H58.0662V65.3422L45.4804 58.5124C45.2681 58.3969 45.0282 58.3418 44.7867 58.353C44.5453 58.3641 44.3115 58.4412 44.1107 58.5758L36.8625 63.4127L36.8603 63.4172ZM36.166 66.1489C36.1281 66.1255 36.0914 66.0999 36.0547 66.0732L28.8811 61.2007L14.6084 70.1746V73.278H58.0662V68.3687L44.9129 61.2329L39.2292 65.025L41.1409 66.3236C41.2849 66.4214 41.4082 66.5466 41.5038 66.6921C41.5994 66.8376 41.6654 67.0005 41.6981 67.1715C41.7307 67.3425 41.7294 67.5183 41.6941 67.6887C41.6588 67.8592 41.5903 68.0211 41.4925 68.1651C41.3947 68.3091 41.2694 68.4324 41.1239 68.528C40.9784 68.6236 40.8156 68.6896 40.6446 68.7223C40.4735 68.7549 40.2978 68.7536 40.1273 68.7183C39.9568 68.683 39.795 68.6145 39.651 68.5167L36.1626 66.1489H36.166ZM66.6285 62.0519V57.6122C66.6028 57.2767 66.4514 56.9632 66.2046 56.7346C65.9577 56.5059 65.6337 56.3788 65.2972 56.3788C64.9607 56.3788 64.6366 56.5059 64.3897 56.7346C64.1429 56.9632 63.9915 57.2767 63.9658 57.6122V62.0519C63.9915 62.3874 64.1429 62.7008 64.3897 62.9295C64.6366 63.1582 64.9607 63.2852 65.2972 63.2852C65.6337 63.2852 65.9577 63.1582 66.2046 62.9295C66.4514 62.7008 66.6028 62.3874 66.6285 62.0519ZM57.4765 38.072V20.6025C57.4797 19.1176 58.071 17.6945 59.121 16.6445C60.171 15.5945 61.5941 15.0032 63.079 15H95.3975C96.8822 15.0038 98.305 15.5953 99.3549 16.6451C100.405 17.695 100.996 19.1178 101 20.6025V81.2505C100.996 82.7352 100.405 84.158 99.3549 85.2078C98.305 86.2577 96.8822 86.8492 95.3975 86.853H63.079C61.6542 86.8489 60.284 86.3038 59.2458 85.328C58.2076 84.3522 57.5788 83.0184 57.4865 81.5966H6.60359C5.11852 81.5936 3.6951 81.0025 2.64489 79.9525C1.59468 78.9025 1.00323 77.4792 1 75.9941V43.6744C1.00323 42.1894 1.59468 40.7661 2.64489 39.7161C3.6951 38.6661 5.11852 38.0749 6.60359 38.072H57.4765ZM77.9703 23.2107H80.5062C80.8403 23.1833 81.152 23.0312 81.3792 22.7847C81.6064 22.5381 81.7325 22.2151 81.7325 21.8799C81.7325 21.5446 81.6064 21.2216 81.3792 20.975C81.152 20.7285 80.8403 20.5764 80.5062 20.5491H77.9703C77.7864 20.534 77.6014 20.5572 77.4269 20.6173C77.2524 20.6773 77.0923 20.7729 76.9566 20.8979C76.8209 21.023 76.7126 21.1748 76.6385 21.3438C76.5644 21.5128 76.5262 21.6953 76.5262 21.8799C76.5262 22.0644 76.5644 22.2469 76.6385 22.4159C76.7126 22.5849 76.8209 22.7367 76.9566 22.8618C77.0923 22.9868 77.2524 23.0824 77.4269 23.1424C77.6014 23.2025 77.7864 23.2257 77.9703 23.2107ZM63.138 38.072V27.2787C63.138 26.9246 63.2786 26.585 63.529 26.3345C63.7795 26.0841 64.1191 25.9435 64.4732 25.9435H94.0078C94.3619 25.9435 94.7015 26.0841 94.9519 26.3345C95.2023 26.585 95.343 26.9246 95.343 27.2787V73.3948C95.343 73.7489 95.2023 74.0886 94.9519 74.339C94.7015 74.5894 94.3619 74.7301 94.0078 74.7301H72.8552V75.9985C72.852 77.4834 72.2607 78.9065 71.2107 79.9565C70.1608 81.0065 68.7376 81.5978 67.2528 81.601H60.1581C60.2466 82.3145 60.5919 82.9713 61.1294 83.4487C61.667 83.9261 62.3601 84.1913 63.079 84.1947H95.3975C96.1764 84.1912 96.9224 83.8803 97.4732 83.3295C98.0239 82.7787 98.3349 82.0327 98.3384 81.2539V20.5991C98.3358 19.8197 98.0252 19.0728 97.4743 18.5213C96.9235 17.9699 96.177 17.6584 95.3975 17.6549H63.079C62.3001 17.6584 61.5541 17.9694 61.0034 18.5202C60.4526 19.0709 60.1416 19.8169 60.1381 20.5958V38.0653L63.138 38.072ZM92.677 59.9199L84.4429 55.527L81.5499 57.7891L82.3088 58.3455C82.5913 58.555 82.7791 58.8682 82.8307 59.2161C82.8824 59.5641 82.7937 59.9183 82.5842 60.2009C82.3746 60.4835 82.0614 60.6712 81.7135 60.7229C81.3655 60.7745 81.0113 60.6858 80.7287 60.4763L74.5443 55.9142L72.8552 57.2828V72.0662H92.677V59.9199ZM79.3356 56.1545L83.4916 52.9066C83.6982 52.7441 83.9486 52.6468 84.2107 52.6269C84.4728 52.6071 84.7349 52.6657 84.9637 52.7953L92.6747 56.9123V28.6051H65.7996V38.072H67.2528C68.7376 38.0752 70.1608 38.6665 71.2107 39.7165C72.2607 40.7664 72.852 42.1896 72.8552 43.6744V53.869L73.6697 53.2103C73.9016 53.0234 74.1893 52.9193 74.4871 52.9147C74.7848 52.91 75.0756 53.0051 75.3132 53.1847L79.3356 56.1545ZM77.0156 80.6252H81.4564C81.7906 80.5978 82.1022 80.4458 82.3294 80.1992C82.5566 79.9527 82.6827 79.6297 82.6827 79.2944C82.6827 78.9591 82.5566 78.6361 82.3294 78.3895C82.1022 78.143 81.7906 77.9909 81.4564 77.9636H77.0156C76.6815 77.9909 76.3698 78.143 76.1426 78.3895C75.9154 78.6361 75.7893 78.9591 75.7893 79.2944C75.7893 79.6297 75.9154 79.9527 76.1426 80.1992C76.3698 80.4458 76.6815 80.5978 77.0156 80.6252ZM79.2166 49.7876H79.2611C79.8914 49.7876 80.4959 49.5372 80.9417 49.0915C81.3874 48.6458 81.6378 48.0412 81.6378 47.4109C81.6378 46.7805 81.3874 46.176 80.9417 45.7303C80.4959 45.2846 79.8914 45.0342 79.2611 45.0342H79.2166C78.5862 45.0342 77.9817 45.2846 77.5359 45.7303C77.0902 46.176 76.8398 46.7805 76.8398 47.4109C76.8398 48.0412 77.0902 48.6458 77.5359 49.0915C77.9817 49.5372 78.5862 49.7876 79.2166 49.7876Z"/>
</mask>
<path fill-rule="evenodd" clip-rule="evenodd" d="M37.7772 52.4014C37.5044 52.1279 37.1452 51.9575 36.7609 51.9193C36.3765 51.881 35.9908 51.9772 35.6694 52.1915C35.3481 52.4058 35.111 52.7249 34.9986 53.0945C34.8862 53.464 34.9055 53.8611 35.0531 54.218C35.2008 54.5749 35.4676 54.8696 35.8082 55.0518C36.1488 55.234 36.542 55.2924 36.9208 55.2171C37.2997 55.1418 37.6407 54.9375 37.8857 54.6389C38.1307 54.3403 38.2646 53.966 38.2645 53.5797C38.2648 53.3609 38.222 53.1442 38.1383 52.942C38.0547 52.7398 37.932 52.5561 37.7772 52.4014ZM36.5988 49.2558C37.6002 49.2554 38.5708 49.6023 39.3451 50.2374C40.1194 50.8724 40.6496 51.7563 40.8452 52.7385C41.0409 53.7206 40.89 54.7402 40.4182 55.6235C39.9464 56.5068 39.1829 57.1992 38.2578 57.5827C37.3327 57.9662 36.3033 58.017 35.3449 57.7266C34.3865 57.4361 33.5585 56.8224 33.0019 55.9899C32.4453 55.1574 32.1946 54.1576 32.2926 53.161C32.3905 52.1644 32.8309 51.2325 33.5389 50.5243C33.9402 50.1216 34.4171 49.8023 34.9422 49.5846C35.4674 49.3669 36.0303 49.2552 36.5988 49.2558ZM69.3291 41.6026C69.6027 41.8748 69.8199 42.1983 69.9683 42.5546C70.1166 42.9109 70.1932 43.2929 70.1936 43.6789V75.9941C70.1901 76.773 69.8792 77.519 69.3284 78.0697C68.7776 78.6205 68.0316 78.9315 67.2528 78.935H6.60359C5.82451 78.9318 5.07824 78.6209 4.52723 78.0701C3.97623 77.5193 3.66511 76.7732 3.66159 75.9941V43.6744C3.66453 42.8952 3.97546 42.1487 4.52659 41.5978C5.07772 41.0468 5.82433 40.7362 6.60359 40.7336H67.2528C67.6387 40.7338 68.0209 40.8103 68.3772 40.9587C68.7335 41.107 69.057 41.3243 69.3291 41.5981V41.6026ZM9.214 61.1016V58.5658C9.18664 58.2316 9.03458 57.92 8.78803 57.6928C8.54148 57.4656 8.21847 57.3395 7.8832 57.3395C7.54793 57.3395 7.22492 57.4656 6.97837 57.6928C6.73182 57.92 6.57976 58.2316 6.5524 58.5658V61.1016C6.57976 61.4358 6.73182 61.7474 6.97837 61.9746C7.22492 62.2018 7.54793 62.3279 7.8832 62.3279C8.21847 62.3279 8.54148 62.2018 8.78803 61.9746C9.03458 61.7474 9.18664 61.4358 9.214 61.1016ZM60.7323 45.0642V74.6032C60.7323 74.9573 60.5916 75.297 60.3412 75.5474C60.0908 75.7978 59.7512 75.9385 59.397 75.9385H13.2798C12.9257 75.9385 12.5861 75.7978 12.3357 75.5474C12.0853 75.297 11.9446 74.9573 11.9446 74.6032V45.0642C11.9446 44.7101 12.0853 44.3704 12.3357 44.12C12.5861 43.8696 12.9257 43.729 13.2798 43.729H59.397C59.7512 43.729 60.0908 43.8696 60.3412 44.12C60.5916 44.3704 60.7323 44.7101 60.7323 45.0642ZM36.8603 63.4172L29.7145 58.5647C29.4994 58.3998 29.239 58.3047 28.9683 58.2922C28.6976 58.2796 28.4295 58.3503 28.2001 58.4946L14.6084 67.0346V46.395H58.0662V65.3422L45.4804 58.5124C45.2681 58.3969 45.0282 58.3418 44.7867 58.353C44.5453 58.3641 44.3115 58.4412 44.1107 58.5758L36.8625 63.4127L36.8603 63.4172ZM36.166 66.1489C36.1281 66.1255 36.0914 66.0999 36.0547 66.0732L28.8811 61.2007L14.6084 70.1746V73.278H58.0662V68.3687L44.9129 61.2329L39.2292 65.025L41.1409 66.3236C41.2849 66.4214 41.4082 66.5466 41.5038 66.6921C41.5994 66.8376 41.6654 67.0005 41.6981 67.1715C41.7307 67.3425 41.7294 67.5183 41.6941 67.6887C41.6588 67.8592 41.5903 68.0211 41.4925 68.1651C41.3947 68.3091 41.2694 68.4324 41.1239 68.528C40.9784 68.6236 40.8156 68.6896 40.6446 68.7223C40.4735 68.7549 40.2978 68.7536 40.1273 68.7183C39.9568 68.683 39.795 68.6145 39.651 68.5167L36.1626 66.1489H36.166ZM66.6285 62.0519V57.6122C66.6028 57.2767 66.4514 56.9632 66.2046 56.7346C65.9577 56.5059 65.6337 56.3788 65.2972 56.3788C64.9607 56.3788 64.6366 56.5059 64.3897 56.7346C64.1429 56.9632 63.9915 57.2767 63.9658 57.6122V62.0519C63.9915 62.3874 64.1429 62.7008 64.3897 62.9295C64.6366 63.1582 64.9607 63.2852 65.2972 63.2852C65.6337 63.2852 65.9577 63.1582 66.2046 62.9295C66.4514 62.7008 66.6028 62.3874 66.6285 62.0519ZM57.4765 38.072V20.6025C57.4797 19.1176 58.071 17.6945 59.121 16.6445C60.171 15.5945 61.5941 15.0032 63.079 15H95.3975C96.8822 15.0038 98.305 15.5953 99.3549 16.6451C100.405 17.695 100.996 19.1178 101 20.6025V81.2505C100.996 82.7352 100.405 84.158 99.3549 85.2078C98.305 86.2577 96.8822 86.8492 95.3975 86.853H63.079C61.6542 86.8489 60.284 86.3038 59.2458 85.328C58.2076 84.3522 57.5788 83.0184 57.4865 81.5966H6.60359C5.11852 81.5936 3.6951 81.0025 2.64489 79.9525C1.59468 78.9025 1.00323 77.4792 1 75.9941V43.6744C1.00323 42.1894 1.59468 40.7661 2.64489 39.7161C3.6951 38.6661 5.11852 38.0749 6.60359 38.072H57.4765ZM77.9703 23.2107H80.5062C80.8403 23.1833 81.152 23.0312 81.3792 22.7847C81.6064 22.5381 81.7325 22.2151 81.7325 21.8799C81.7325 21.5446 81.6064 21.2216 81.3792 20.975C81.152 20.7285 80.8403 20.5764 80.5062 20.5491H77.9703C77.7864 20.534 77.6014 20.5572 77.4269 20.6173C77.2524 20.6773 77.0923 20.7729 76.9566 20.8979C76.8209 21.023 76.7126 21.1748 76.6385 21.3438C76.5644 21.5128 76.5262 21.6953 76.5262 21.8799C76.5262 22.0644 76.5644 22.2469 76.6385 22.4159C76.7126 22.5849 76.8209 22.7367 76.9566 22.8618C77.0923 22.9868 77.2524 23.0824 77.4269 23.1424C77.6014 23.2025 77.7864 23.2257 77.9703 23.2107ZM63.138 38.072V27.2787C63.138 26.9246 63.2786 26.585 63.529 26.3345C63.7795 26.0841 64.1191 25.9435 64.4732 25.9435H94.0078C94.3619 25.9435 94.7015 26.0841 94.9519 26.3345C95.2023 26.585 95.343 26.9246 95.343 27.2787V73.3948C95.343 73.7489 95.2023 74.0886 94.9519 74.339C94.7015 74.5894 94.3619 74.7301 94.0078 74.7301H72.8552V75.9985C72.852 77.4834 72.2607 78.9065 71.2107 79.9565C70.1608 81.0065 68.7376 81.5978 67.2528 81.601H60.1581C60.2466 82.3145 60.5919 82.9713 61.1294 83.4487C61.667 83.9261 62.3601 84.1913 63.079 84.1947H95.3975C96.1764 84.1912 96.9224 83.8803 97.4732 83.3295C98.0239 82.7787 98.3349 82.0327 98.3384 81.2539V20.5991C98.3358 19.8197 98.0252 19.0728 97.4743 18.5213C96.9235 17.9699 96.177 17.6584 95.3975 17.6549H63.079C62.3001 17.6584 61.5541 17.9694 61.0034 18.5202C60.4526 19.0709 60.1416 19.8169 60.1381 20.5958V38.0653L63.138 38.072ZM92.677 59.9199L84.4429 55.527L81.5499 57.7891L82.3088 58.3455C82.5913 58.555 82.7791 58.8682 82.8307 59.2161C82.8824 59.5641 82.7937 59.9183 82.5842 60.2009C82.3746 60.4835 82.0614 60.6712 81.7135 60.7229C81.3655 60.7745 81.0113 60.6858 80.7287 60.4763L74.5443 55.9142L72.8552 57.2828V72.0662H92.677V59.9199ZM79.3356 56.1545L83.4916 52.9066C83.6982 52.7441 83.9486 52.6468 84.2107 52.6269C84.4728 52.6071 84.7349 52.6657 84.9637 52.7953L92.6747 56.9123V28.6051H65.7996V38.072H67.2528C68.7376 38.0752 70.1608 38.6665 71.2107 39.7165C72.2607 40.7664 72.852 42.1896 72.8552 43.6744V53.869L73.6697 53.2103C73.9016 53.0234 74.1893 52.9193 74.4871 52.9147C74.7848 52.91 75.0756 53.0051 75.3132 53.1847L79.3356 56.1545ZM77.0156 80.6252H81.4564C81.7906 80.5978 82.1022 80.4458 82.3294 80.1992C82.5566 79.9527 82.6827 79.6297 82.6827 79.2944C82.6827 78.9591 82.5566 78.6361 82.3294 78.3895C82.1022 78.143 81.7906 77.9909 81.4564 77.9636H77.0156C76.6815 77.9909 76.3698 78.143 76.1426 78.3895C75.9154 78.6361 75.7893 78.9591 75.7893 79.2944C75.7893 79.6297 75.9154 79.9527 76.1426 80.1992C76.3698 80.4458 76.6815 80.5978 77.0156 80.6252ZM79.2166 49.7876H79.2611C79.8914 49.7876 80.4959 49.5372 80.9417 49.0915C81.3874 48.6458 81.6378 48.0412 81.6378 47.4109C81.6378 46.7805 81.3874 46.176 80.9417 45.7303C80.4959 45.2846 79.8914 45.0342 79.2611 45.0342H79.2166C78.5862 45.0342 77.9817 45.2846 77.5359 45.7303C77.0902 46.176 76.8398 46.7805 76.8398 47.4109C76.8398 48.0412 77.0902 48.6458 77.5359 49.0915C77.9817 49.5372 78.5862 49.7876 79.2166 49.7876Z" fill="#3C7CFF"/>
<path fill-rule="evenodd" clip-rule="evenodd" d="M37.7772 52.4014C37.5044 52.1279 37.1452 51.9575 36.7609 51.9193C36.3765 51.881 35.9908 51.9772 35.6694 52.1915C35.3481 52.4058 35.111 52.7249 34.9986 53.0945C34.8862 53.464 34.9055 53.8611 35.0531 54.218C35.2008 54.5749 35.4676 54.8696 35.8082 55.0518C36.1488 55.234 36.542 55.2924 36.9208 55.2171C37.2997 55.1418 37.6407 54.9375 37.8857 54.6389C38.1307 54.3403 38.2646 53.966 38.2645 53.5797C38.2648 53.3609 38.222 53.1442 38.1383 52.942C38.0547 52.7398 37.932 52.5561 37.7772 52.4014ZM36.5988 49.2558C37.6002 49.2554 38.5708 49.6023 39.3451 50.2374C40.1194 50.8724 40.6496 51.7563 40.8452 52.7385C41.0409 53.7206 40.89 54.7402 40.4182 55.6235C39.9464 56.5068 39.1829 57.1992 38.2578 57.5827C37.3327 57.9662 36.3033 58.017 35.3449 57.7266C34.3865 57.4361 33.5585 56.8224 33.0019 55.9899C32.4453 55.1574 32.1946 54.1576 32.2926 53.161C32.3905 52.1644 32.8309 51.2325 33.5389 50.5243C33.9402 50.1216 34.4171 49.8023 34.9422 49.5846C35.4674 49.3669 36.0303 49.2552 36.5988 49.2558ZM69.3291 41.6026C69.6027 41.8748 69.8199 42.1983 69.9683 42.5546C70.1166 42.9109 70.1932 43.2929 70.1936 43.6789V75.9941C70.1901 76.773 69.8792 77.519 69.3284 78.0697C68.7776 78.6205 68.0316 78.9315 67.2528 78.935H6.60359C5.82451 78.9318 5.07824 78.6209 4.52723 78.0701C3.97623 77.5193 3.66511 76.7732 3.66159 75.9941V43.6744C3.66453 42.8952 3.97546 42.1487 4.52659 41.5978C5.07772 41.0468 5.82433 40.7362 6.60359 40.7336H67.2528C67.6387 40.7338 68.0209 40.8103 68.3772 40.9587C68.7335 41.107 69.057 41.3243 69.3291 41.5981V41.6026ZM9.214 61.1016V58.5658C9.18664 58.2316 9.03458 57.92 8.78803 57.6928C8.54148 57.4656 8.21847 57.3395 7.8832 57.3395C7.54793 57.3395 7.22492 57.4656 6.97837 57.6928C6.73182 57.92 6.57976 58.2316 6.5524 58.5658V61.1016C6.57976 61.4358 6.73182 61.7474 6.97837 61.9746C7.22492 62.2018 7.54793 62.3279 7.8832 62.3279C8.21847 62.3279 8.54148 62.2018 8.78803 61.9746C9.03458 61.7474 9.18664 61.4358 9.214 61.1016ZM60.7323 45.0642V74.6032C60.7323 74.9573 60.5916 75.297 60.3412 75.5474C60.0908 75.7978 59.7512 75.9385 59.397 75.9385H13.2798C12.9257 75.9385 12.5861 75.7978 12.3357 75.5474C12.0853 75.297 11.9446 74.9573 11.9446 74.6032V45.0642C11.9446 44.7101 12.0853 44.3704 12.3357 44.12C12.5861 43.8696 12.9257 43.729 13.2798 43.729H59.397C59.7512 43.729 60.0908 43.8696 60.3412 44.12C60.5916 44.3704 60.7323 44.7101 60.7323 45.0642ZM36.8603 63.4172L29.7145 58.5647C29.4994 58.3998 29.239 58.3047 28.9683 58.2922C28.6976 58.2796 28.4295 58.3503 28.2001 58.4946L14.6084 67.0346V46.395H58.0662V65.3422L45.4804 58.5124C45.2681 58.3969 45.0282 58.3418 44.7867 58.353C44.5453 58.3641 44.3115 58.4412 44.1107 58.5758L36.8625 63.4127L36.8603 63.4172ZM36.166 66.1489C36.1281 66.1255 36.0914 66.0999 36.0547 66.0732L28.8811 61.2007L14.6084 70.1746V73.278H58.0662V68.3687L44.9129 61.2329L39.2292 65.025L41.1409 66.3236C41.2849 66.4214 41.4082 66.5466 41.5038 66.6921C41.5994 66.8376 41.6654 67.0005 41.6981 67.1715C41.7307 67.3425 41.7294 67.5183 41.6941 67.6887C41.6588 67.8592 41.5903 68.0211 41.4925 68.1651C41.3947 68.3091 41.2694 68.4324 41.1239 68.528C40.9784 68.6236 40.8156 68.6896 40.6446 68.7223C40.4735 68.7549 40.2978 68.7536 40.1273 68.7183C39.9568 68.683 39.795 68.6145 39.651 68.5167L36.1626 66.1489H36.166ZM66.6285 62.0519V57.6122C66.6028 57.2767 66.4514 56.9632 66.2046 56.7346C65.9577 56.5059 65.6337 56.3788 65.2972 56.3788C64.9607 56.3788 64.6366 56.5059 64.3897 56.7346C64.1429 56.9632 63.9915 57.2767 63.9658 57.6122V62.0519C63.9915 62.3874 64.1429 62.7008 64.3897 62.9295C64.6366 63.1582 64.9607 63.2852 65.2972 63.2852C65.6337 63.2852 65.9577 63.1582 66.2046 62.9295C66.4514 62.7008 66.6028 62.3874 66.6285 62.0519ZM57.4765 38.072V20.6025C57.4797 19.1176 58.071 17.6945 59.121 16.6445C60.171 15.5945 61.5941 15.0032 63.079 15H95.3975C96.8822 15.0038 98.305 15.5953 99.3549 16.6451C100.405 17.695 100.996 19.1178 101 20.6025V81.2505C100.996 82.7352 100.405 84.158 99.3549 85.2078C98.305 86.2577 96.8822 86.8492 95.3975 86.853H63.079C61.6542 86.8489 60.284 86.3038 59.2458 85.328C58.2076 84.3522 57.5788 83.0184 57.4865 81.5966H6.60359C5.11852 81.5936 3.6951 81.0025 2.64489 79.9525C1.59468 78.9025 1.00323 77.4792 1 75.9941V43.6744C1.00323 42.1894 1.59468 40.7661 2.64489 39.7161C3.6951 38.6661 5.11852 38.0749 6.60359 38.072H57.4765ZM77.9703 23.2107H80.5062C80.8403 23.1833 81.152 23.0312 81.3792 22.7847C81.6064 22.5381 81.7325 22.2151 81.7325 21.8799C81.7325 21.5446 81.6064 21.2216 81.3792 20.975C81.152 20.7285 80.8403 20.5764 80.5062 20.5491H77.9703C77.7864 20.534 77.6014 20.5572 77.4269 20.6173C77.2524 20.6773 77.0923 20.7729 76.9566 20.8979C76.8209 21.023 76.7126 21.1748 76.6385 21.3438C76.5644 21.5128 76.5262 21.6953 76.5262 21.8799C76.5262 22.0644 76.5644 22.2469 76.6385 22.4159C76.7126 22.5849 76.8209 22.7367 76.9566 22.8618C77.0923 22.9868 77.2524 23.0824 77.4269 23.1424C77.6014 23.2025 77.7864 23.2257 77.9703 23.2107ZM63.138 38.072V27.2787C63.138 26.9246 63.2786 26.585 63.529 26.3345C63.7795 26.0841 64.1191 25.9435 64.4732 25.9435H94.0078C94.3619 25.9435 94.7015 26.0841 94.9519 26.3345C95.2023 26.585 95.343 26.9246 95.343 27.2787V73.3948C95.343 73.7489 95.2023 74.0886 94.9519 74.339C94.7015 74.5894 94.3619 74.7301 94.0078 74.7301H72.8552V75.9985C72.852 77.4834 72.2607 78.9065 71.2107 79.9565C70.1608 81.0065 68.7376 81.5978 67.2528 81.601H60.1581C60.2466 82.3145 60.5919 82.9713 61.1294 83.4487C61.667 83.9261 62.3601 84.1913 63.079 84.1947H95.3975C96.1764 84.1912 96.9224 83.8803 97.4732 83.3295C98.0239 82.7787 98.3349 82.0327 98.3384 81.2539V20.5991C98.3358 19.8197 98.0252 19.0728 97.4743 18.5213C96.9235 17.9699 96.177 17.6584 95.3975 17.6549H63.079C62.3001 17.6584 61.5541 17.9694 61.0034 18.5202C60.4526 19.0709 60.1416 19.8169 60.1381 20.5958V38.0653L63.138 38.072ZM92.677 59.9199L84.4429 55.527L81.5499 57.7891L82.3088 58.3455C82.5913 58.555 82.7791 58.8682 82.8307 59.2161C82.8824 59.5641 82.7937 59.9183 82.5842 60.2009C82.3746 60.4835 82.0614 60.6712 81.7135 60.7229C81.3655 60.7745 81.0113 60.6858 80.7287 60.4763L74.5443 55.9142L72.8552 57.2828V72.0662H92.677V59.9199ZM79.3356 56.1545L83.4916 52.9066C83.6982 52.7441 83.9486 52.6468 84.2107 52.6269C84.4728 52.6071 84.7349 52.6657 84.9637 52.7953L92.6747 56.9123V28.6051H65.7996V38.072H67.2528C68.7376 38.0752 70.1608 38.6665 71.2107 39.7165C72.2607 40.7664 72.852 42.1896 72.8552 43.6744V53.869L73.6697 53.2103C73.9016 53.0234 74.1893 52.9193 74.4871 52.9147C74.7848 52.91 75.0756 53.0051 75.3132 53.1847L79.3356 56.1545ZM77.0156 80.6252H81.4564C81.7906 80.5978 82.1022 80.4458 82.3294 80.1992C82.5566 79.9527 82.6827 79.6297 82.6827 79.2944C82.6827 78.9591 82.5566 78.6361 82.3294 78.3895C82.1022 78.143 81.7906 77.9909 81.4564 77.9636H77.0156C76.6815 77.9909 76.3698 78.143 76.1426 78.3895C75.9154 78.6361 75.7893 78.9591 75.7893 79.2944C75.7893 79.6297 75.9154 79.9527 76.1426 80.1992C76.3698 80.4458 76.6815 80.5978 77.0156 80.6252ZM79.2166 49.7876H79.2611C79.8914 49.7876 80.4959 49.5372 80.9417 49.0915C81.3874 48.6458 81.6378 48.0412 81.6378 47.4109C81.6378 46.7805 81.3874 46.176 80.9417 45.7303C80.4959 45.2846 79.8914 45.0342 79.2611 45.0342H79.2166C78.5862 45.0342 77.9817 45.2846 77.5359 45.7303C77.0902 46.176 76.8398 46.7805 76.8398 47.4109C76.8398 48.0412 77.0902 48.6458 77.5359 49.0915C77.9817 49.5372 78.5862 49.7876 79.2166 49.7876Z" stroke="#3C7CFF" stroke-width="0.6" mask="url(#path-1-outside-1_206_1372)"/>
</svg>
