<svg width="103" height="102" viewBox="0 0 103 102" fill="none" xmlns="http://www.w3.org/2000/svg">
<mask id="path-1-outside-1_192_1190" maskUnits="userSpaceOnUse" x="0" y="0" width="103" height="102" fill="black">
<rect fill="white" width="103" height="102"/>
<path fill-rule="evenodd" clip-rule="evenodd" d="M22.3194 98.6878H50.5277V91.6604C50.522 90.7077 50.1406 89.7957 49.4666 89.1225C48.7925 88.4492 47.88 88.0691 46.9273 88.0646H25.9967C25.767 88.1641 25.5112 88.1867 25.2677 88.1289C24.4418 88.2837 23.6957 88.7214 23.1576 89.3667C22.6196 90.0121 22.3232 90.8247 22.3194 91.665V98.6924V98.6878ZM27.0139 85.7478H46.4761C47.9566 81.6628 47.8281 77.1677 46.1168 73.174C44.2997 69.1374 40.6714 65.509 35.2318 62.2891C35.1248 62.2344 35.0271 62.1631 34.9425 62.0778L20.7546 47.8898C19.9666 47.1249 18.9093 46.7006 17.8111 46.7088C16.7129 46.7169 15.662 47.1568 14.8854 47.9333C14.1089 48.7099 13.669 49.7608 13.6609 50.859C13.6527 51.9572 14.077 53.0145 14.8419 53.8025L23.8429 62.8034C24.0535 63.0225 24.1698 63.3155 24.1667 63.6194C24.1637 63.9233 24.0415 64.2139 23.8265 64.4288C23.6115 64.6436 23.3209 64.7656 23.0169 64.7684C22.713 64.7712 22.4201 64.6548 22.2011 64.444L13.2013 55.4442C12.5091 54.749 11.9829 53.9064 11.6619 52.9793C11.341 52.0522 11.2336 51.0646 11.3479 50.0902C11.4621 49.1158 11.795 48.1798 12.3217 47.3521C12.8484 46.5244 13.5553 45.8263 14.3896 45.3101V28.8134C14.3857 27.7059 13.944 26.645 13.1609 25.8619C12.3778 25.0788 11.3169 24.6371 10.2094 24.6332C7.40354 24.6332 6.48048 26.0568 6.00747 29.0372C5.68027 31.2978 5.30944 33.54 4.95469 35.6961C3.19124 46.3813 1.79402 54.8598 6.74913 60.7518L24.1999 78.2026C25.2545 79.131 26.0629 80.3059 26.5531 81.6226C27.0433 82.9394 27.2 84.3569 27.0093 85.7489L27.0139 85.7478ZM56.9007 85.7478H76.3629C76.1722 84.3558 76.3289 82.9382 76.8191 81.6215C77.3093 80.3048 78.1177 79.1298 79.1723 78.2014L96.6231 60.7506C101.578 54.8587 100.182 46.3801 98.4175 35.695C98.0628 33.54 97.6919 31.2978 97.3647 29.0361C96.8906 26.0511 95.9687 24.6321 93.1628 24.6321C92.0553 24.636 90.9944 25.0777 90.2113 25.8607C89.4282 26.6438 88.9865 27.7048 88.9826 28.8122V45.3101C89.8167 45.8265 90.5234 46.5246 91.05 47.3523C91.5766 48.18 91.9094 49.1159 92.0236 50.0903C92.1379 51.0646 92.0306 52.0521 91.7098 52.9792C91.389 53.9063 90.8629 54.7489 90.1709 55.4442L81.1757 64.444C81.0687 64.5553 80.9407 64.6441 80.799 64.7053C80.6573 64.7664 80.5049 64.7987 80.3505 64.8003C80.1962 64.8018 80.0431 64.7726 79.9003 64.7143C79.7574 64.656 79.6276 64.5698 79.5184 64.4607C79.4092 64.3516 79.3229 64.2218 79.2645 64.079C79.2061 63.9361 79.1768 63.7831 79.1782 63.6288C79.1796 63.4745 79.2118 63.322 79.2729 63.1803C79.334 63.0385 79.4227 62.9104 79.5339 62.8034L88.5349 53.8025C89.2998 53.0145 89.7241 51.9572 89.7159 50.859C89.7078 49.7608 89.2679 48.7099 88.4914 47.9333C87.7148 47.1568 86.6639 46.7169 85.5657 46.7088C84.4675 46.7006 83.4102 47.1249 82.6223 47.8898L68.4343 62.0778C68.3497 62.1631 68.252 62.2344 68.145 62.2891C62.7054 65.509 59.0771 69.1374 57.26 73.174C55.5487 77.1677 55.4202 81.6628 56.9007 85.7478ZM82.2181 101H21.1587C21.0068 101 20.8563 100.97 20.7159 100.912C20.5755 100.854 20.4479 100.769 20.3404 100.662C20.233 100.554 20.1477 100.427 20.0895 100.287C20.0314 100.146 20.0014 99.9958 20.0014 99.8439V91.6604C20.0049 90.3147 20.4657 89.0101 21.308 87.9606C22.1503 86.9111 23.3243 86.179 24.6374 85.8844C24.8805 84.7846 24.8163 83.639 24.4518 82.5733C24.0873 81.5075 23.4366 80.5626 22.5708 79.842L5.08786 62.366C5.0649 62.3442 5.04424 62.3201 5.02242 62.2959C-0.674347 55.5923 0.804379 46.6235 2.66542 35.3195L3.7182 28.6412C4.33817 24.5689 6.25316 22.3164 10.206 22.3164C11.929 22.3206 13.5803 23.007 14.7986 24.2253C16.017 25.4437 16.7033 27.0949 16.7076 28.818V44.4422C17.7307 44.2679 18.7806 44.3411 19.7696 44.6554C20.7587 44.9698 21.6581 45.5163 22.3929 46.2492L36.4867 60.3396C42.3036 63.7976 46.2182 67.7585 48.2304 72.2222C50.1334 76.5999 50.338 81.5294 48.8044 86.0497C49.958 86.4385 50.9646 87.1718 51.6884 88.1507C52.411 87.1726 53.4159 86.4394 54.5678 86.0497C53.0342 81.5294 53.2388 76.5999 55.1418 72.2222C57.1517 67.7585 61.0663 63.7976 66.8855 60.3396L80.9805 46.2492C81.7153 45.5164 82.6147 44.9699 83.6038 44.6556C84.5928 44.3412 85.6427 44.268 86.6658 44.4422V28.8134C86.67 27.0903 87.3564 25.4391 88.5747 24.2207C89.7931 23.0024 91.4443 22.316 93.1674 22.3118C97.1202 22.3118 99.0352 24.5643 99.6552 28.6366L100.708 35.3149C102.572 46.6189 104.051 55.582 98.3532 62.2948C98.3314 62.3189 98.3108 62.343 98.2878 62.3648L80.814 79.842C79.9483 80.5626 79.2975 81.5075 78.933 82.5733C78.5685 83.639 78.5043 84.7846 78.7475 85.8844C80.0591 86.1806 81.2312 86.9134 82.0719 87.9627C82.9127 89.0121 83.3723 90.3158 83.3754 91.6604V99.8439C83.3754 99.9957 83.3455 100.146 83.2874 100.286C83.2293 100.427 83.1441 100.554 83.0368 100.661C82.9294 100.769 82.802 100.854 82.6617 100.912C82.5214 100.97 82.37 101 82.2181 101ZM52.8491 98.6878H81.0574V91.6604C81.0536 90.8201 80.7572 90.0075 80.2192 89.3621C79.6811 88.7168 78.935 88.2791 78.1092 88.1243C77.8656 88.1822 77.6098 88.1596 77.3801 88.06H56.4449C55.4922 88.0645 54.5797 88.4447 53.9057 89.1179C53.2316 89.7911 52.8503 90.7031 52.8445 91.6558V98.6832L52.8491 98.6878ZM45.4888 26.283C45.381 26.1752 45.2955 26.0472 45.2371 25.9064C45.1788 25.7655 45.1488 25.6146 45.1488 25.4621C45.1488 25.3097 45.1788 25.1587 45.2371 25.0179C45.2955 24.877 45.381 24.749 45.4888 24.6412C45.5966 24.5334 45.7245 24.4479 45.8654 24.3896C46.0062 24.3313 46.1572 24.3012 46.3097 24.3012C46.4621 24.3012 46.6131 24.3313 46.7539 24.3896C46.8948 24.4479 47.0227 24.5334 47.1305 24.6412L49.716 27.2279L56.2968 21.3796C56.5278 21.1839 56.8261 21.0863 57.128 21.1076C57.43 21.1289 57.7116 21.2675 57.9128 21.4937C58.114 21.7199 58.2187 22.0158 58.2046 22.3182C58.1906 22.6206 58.0588 22.9055 57.8375 23.112L50.476 29.6561C50.2572 29.8683 49.9637 29.9859 49.6589 29.9836C49.3541 29.9812 49.0624 29.859 48.8469 29.6434L45.4888 26.283ZM53.7021 4.4695C55.8835 6.19161 56.6274 6.37071 59.3381 5.7542C61.5688 5.24789 61.6618 5.29496 62.6078 7.36151C63.7559 9.86776 64.3689 10.3626 67.0658 10.9332C69.2644 11.3993 69.3252 11.4739 69.308 13.7242C69.2862 16.4796 69.6317 17.1902 71.8119 18.8779C73.6489 20.3004 73.6787 20.4358 72.6833 22.5667C71.4744 25.151 71.4744 25.9443 72.6833 28.5298C73.6787 30.6606 73.6477 30.7961 71.8119 32.2174C69.6306 33.9062 69.2862 34.6146 69.308 37.3723C69.3252 39.6225 69.2644 39.6972 67.0658 40.1621C64.3689 40.7362 63.7559 41.2287 62.6078 43.735C61.6618 45.8015 61.5688 45.844 59.3381 45.3423C56.6274 44.7269 55.88 44.9025 53.7021 46.6281C51.7952 48.139 51.5816 48.139 49.6747 46.6281C47.4933 44.906 46.7494 44.7269 44.0388 45.3423C41.808 45.8497 41.715 45.8015 40.769 43.735C39.6209 41.2287 39.0079 40.7339 36.311 40.1621C34.1125 39.6972 34.0516 39.6225 34.0688 37.3723C34.0906 34.6169 33.7451 33.9062 31.5649 32.2174C29.7279 30.7961 29.6981 30.6595 30.6935 28.5298C31.9024 25.9443 31.9024 25.1521 30.6935 22.5667C29.6981 20.4358 29.7291 20.3004 31.5649 18.8779C33.7462 17.1902 34.0906 16.4818 34.0688 13.7242C34.0516 11.4739 34.1125 11.3993 36.311 10.9332C39.0079 10.3591 39.6209 9.86776 40.769 7.36151C41.715 5.29496 41.808 5.25249 44.0388 5.7542C46.7494 6.37071 47.4968 6.19391 49.6747 4.4695C51.5816 2.95862 51.7952 2.95862 53.7021 4.4695ZM61.3621 13.7689C61.1252 13.5741 60.9754 13.2931 60.9457 12.9878C60.916 12.6825 61.0088 12.3779 61.2037 12.141C61.3986 11.9041 61.6796 11.7543 61.9849 11.7246C62.2902 11.6949 62.5948 11.7877 62.8317 11.9825C66.1417 14.7045 68.3413 18.5436 69.0155 22.7757C69.6898 27.0077 68.7921 31.3403 66.4918 34.9561C64.1914 38.5718 60.6475 41.2209 56.5285 42.4035C52.4094 43.5862 48 43.2207 44.1319 41.376C40.2638 39.5313 37.2044 36.3349 35.5308 32.3897C33.8572 28.4446 33.6851 24.0234 35.0469 19.96C36.4088 15.8967 39.2104 12.4722 42.9235 10.3324C46.6365 8.19254 51.0042 7.48538 55.2027 8.34426C56.3547 8.57803 57.4802 8.92767 58.562 9.38787C58.7019 9.44734 58.8287 9.5338 58.9352 9.64229C59.0417 9.75078 59.1258 9.87919 59.1827 10.0202C59.2395 10.1612 59.2681 10.312 59.2667 10.464C59.2653 10.616 59.2339 10.7663 59.1745 10.9062C59.115 11.0461 59.0285 11.1729 58.92 11.2794C58.8115 11.3859 58.6831 11.47 58.5421 11.5269C58.4011 11.5838 58.2503 11.6123 58.0983 11.6109C57.9463 11.6095 57.796 11.5782 57.6561 11.5187C56.7171 11.1191 55.7401 10.8152 54.74 10.6117C51.0943 9.86457 47.3011 10.4774 44.0761 12.3345C40.8511 14.1917 38.4172 17.1648 37.2335 20.6931C36.0499 24.2213 36.1982 28.0608 37.6506 31.4871C39.1031 34.9135 41.7591 37.69 45.1178 39.2927C48.4765 40.8955 52.3056 41.2138 55.8828 40.1875C59.46 39.1613 62.5381 36.8614 64.5362 33.7218C66.5344 30.5823 67.3146 26.82 66.7297 23.1448C66.1447 19.4695 64.2351 16.1353 61.361 13.7712L61.3621 13.7689ZM63.129 47.1424V59.2524C63.1278 59.4386 63.0819 59.6218 62.9952 59.7865C62.9085 59.9513 62.7835 60.0929 62.6308 60.1994C62.4781 60.3059 62.302 60.3742 62.1174 60.3986C61.9328 60.423 61.7451 60.4028 61.5699 60.3396L51.6884 56.6991L41.8723 60.3167C41.6957 60.394 41.5026 60.426 41.3104 60.4099C41.1183 60.3938 40.9332 60.33 40.7719 60.2244C40.6106 60.1187 40.4782 59.9745 40.3867 59.8048C40.2952 59.6351 40.2475 59.4452 40.2478 59.2524V47.1424C38.8965 46.0013 38.5039 43.6902 37.6704 43.022C36.7094 42.2505 33.9058 42.5708 32.5476 40.8797C31.1894 39.1886 32.1114 36.517 31.5557 35.3884C31 34.2599 28.3089 33.3127 27.8038 31.1554C27.2986 28.9982 29.2744 26.9581 29.2744 25.5299C29.2744 24.1017 27.2986 22.0615 27.8038 19.9043C28.3089 17.747 31.0035 16.7987 31.5557 15.6725C32.1079 14.5462 31.1906 11.8723 32.5476 10.1812C33.9047 8.49007 36.7094 8.81038 37.6704 8.03887C38.6313 7.26736 38.9332 4.45457 40.9011 3.49018C42.8689 2.5258 45.2638 4.00567 46.5508 3.70487C47.8377 3.40408 49.4175 1 51.6884 1C53.9593 1 55.5368 3.41097 56.8261 3.71291C58.1153 4.01486 60.5137 2.53613 62.4758 3.49822C64.4378 4.46031 64.734 7.26736 65.7065 8.04691C66.6789 8.82646 69.471 8.49696 70.8292 10.1892C72.1874 11.8815 71.2655 14.5519 71.8211 15.6805C72.3768 16.8091 75.0679 17.7562 75.5742 19.9135C76.0805 22.0707 74.1035 24.1108 74.1035 25.539C74.1035 26.9673 76.0782 29.0074 75.5742 31.1646C75.0702 33.3219 72.3722 34.2725 71.8211 35.3976C71.2701 36.5227 72.1862 39.1966 70.8292 40.8889C69.4721 42.5811 66.6674 42.2597 65.7065 43.0312C64.8729 43.6994 64.4803 46.0104 63.129 47.1516V47.1424ZM52.8491 49.8645C54.4495 49.2997 55.7985 47.5971 56.8261 47.356C57.6986 47.1505 59.4666 47.8611 60.8076 47.9013V57.5888L52.8491 54.6566V49.8645ZM50.5277 54.6555L42.5692 57.5888V47.9002C43.9102 47.8611 45.6782 47.1493 46.5508 47.3548C47.584 47.5959 48.9273 49.2985 50.5277 49.8634V54.6555ZM58.9087 18.3199C60.3356 19.7468 61.3074 21.5648 61.7011 23.544C62.0948 25.5232 61.8927 27.5747 61.1205 29.4391C60.3483 31.3034 59.0405 32.8969 57.3626 34.018C55.6848 35.1392 53.7121 35.7376 51.6941 35.7376C49.6762 35.7376 47.7035 35.1392 46.0257 34.018C44.3478 32.8969 43.04 31.3034 42.2678 29.4391C41.4956 27.5747 41.2935 25.5232 41.6872 23.544C42.0809 21.5648 43.0527 19.7468 44.4796 18.3199C46.3932 16.4068 48.9883 15.3321 51.6941 15.3321C54.4 15.3321 56.9951 16.4068 58.9087 18.3199ZM51.6884 13.0112C54.1653 13.0112 56.5865 13.7457 58.646 15.1218C60.7054 16.4978 62.3105 18.4537 63.2584 20.742C64.2062 23.0303 64.4542 25.5483 63.971 27.9776C63.4878 30.4069 62.2951 32.6383 60.5437 34.3897C58.7923 36.1411 56.5608 37.3339 54.1316 37.8171C51.7023 38.3003 49.1843 38.0523 46.896 37.1044C44.6076 36.1566 42.6518 34.5514 41.2757 32.492C39.8996 30.4326 39.1652 28.0113 39.1652 25.5345C39.1652 22.2131 40.4846 19.0277 42.8331 16.6792C45.1817 14.3306 48.367 13.0112 51.6884 13.0112Z"/>
</mask>
<path fill-rule="evenodd" clip-rule="evenodd" d="M22.3194 98.6878H50.5277V91.6604C50.522 90.7077 50.1406 89.7957 49.4666 89.1225C48.7925 88.4492 47.88 88.0691 46.9273 88.0646H25.9967C25.767 88.1641 25.5112 88.1867 25.2677 88.1289C24.4418 88.2837 23.6957 88.7214 23.1576 89.3667C22.6196 90.0121 22.3232 90.8247 22.3194 91.665V98.6924V98.6878ZM27.0139 85.7478H46.4761C47.9566 81.6628 47.8281 77.1677 46.1168 73.174C44.2997 69.1374 40.6714 65.509 35.2318 62.2891C35.1248 62.2344 35.0271 62.1631 34.9425 62.0778L20.7546 47.8898C19.9666 47.1249 18.9093 46.7006 17.8111 46.7088C16.7129 46.7169 15.662 47.1568 14.8854 47.9333C14.1089 48.7099 13.669 49.7608 13.6609 50.859C13.6527 51.9572 14.077 53.0145 14.8419 53.8025L23.8429 62.8034C24.0535 63.0225 24.1698 63.3155 24.1667 63.6194C24.1637 63.9233 24.0415 64.2139 23.8265 64.4288C23.6115 64.6436 23.3209 64.7656 23.0169 64.7684C22.713 64.7712 22.4201 64.6548 22.2011 64.444L13.2013 55.4442C12.5091 54.749 11.9829 53.9064 11.6619 52.9793C11.341 52.0522 11.2336 51.0646 11.3479 50.0902C11.4621 49.1158 11.795 48.1798 12.3217 47.3521C12.8484 46.5244 13.5553 45.8263 14.3896 45.3101V28.8134C14.3857 27.7059 13.944 26.645 13.1609 25.8619C12.3778 25.0788 11.3169 24.6371 10.2094 24.6332C7.40354 24.6332 6.48048 26.0568 6.00747 29.0372C5.68027 31.2978 5.30944 33.54 4.95469 35.6961C3.19124 46.3813 1.79402 54.8598 6.74913 60.7518L24.1999 78.2026C25.2545 79.131 26.0629 80.3059 26.5531 81.6226C27.0433 82.9394 27.2 84.3569 27.0093 85.7489L27.0139 85.7478ZM56.9007 85.7478H76.3629C76.1722 84.3558 76.3289 82.9382 76.8191 81.6215C77.3093 80.3048 78.1177 79.1298 79.1723 78.2014L96.6231 60.7506C101.578 54.8587 100.182 46.3801 98.4175 35.695C98.0628 33.54 97.6919 31.2978 97.3647 29.0361C96.8906 26.0511 95.9687 24.6321 93.1628 24.6321C92.0553 24.636 90.9944 25.0777 90.2113 25.8607C89.4282 26.6438 88.9865 27.7048 88.9826 28.8122V45.3101C89.8167 45.8265 90.5234 46.5246 91.05 47.3523C91.5766 48.18 91.9094 49.1159 92.0236 50.0903C92.1379 51.0646 92.0306 52.0521 91.7098 52.9792C91.389 53.9063 90.8629 54.7489 90.1709 55.4442L81.1757 64.444C81.0687 64.5553 80.9407 64.6441 80.799 64.7053C80.6573 64.7664 80.5049 64.7987 80.3505 64.8003C80.1962 64.8018 80.0431 64.7726 79.9003 64.7143C79.7574 64.656 79.6276 64.5698 79.5184 64.4607C79.4092 64.3516 79.3229 64.2218 79.2645 64.079C79.2061 63.9361 79.1768 63.7831 79.1782 63.6288C79.1796 63.4745 79.2118 63.322 79.2729 63.1803C79.334 63.0385 79.4227 62.9104 79.5339 62.8034L88.5349 53.8025C89.2998 53.0145 89.7241 51.9572 89.7159 50.859C89.7078 49.7608 89.2679 48.7099 88.4914 47.9333C87.7148 47.1568 86.6639 46.7169 85.5657 46.7088C84.4675 46.7006 83.4102 47.1249 82.6223 47.8898L68.4343 62.0778C68.3497 62.1631 68.252 62.2344 68.145 62.2891C62.7054 65.509 59.0771 69.1374 57.26 73.174C55.5487 77.1677 55.4202 81.6628 56.9007 85.7478ZM82.2181 101H21.1587C21.0068 101 20.8563 100.97 20.7159 100.912C20.5755 100.854 20.4479 100.769 20.3404 100.662C20.233 100.554 20.1477 100.427 20.0895 100.287C20.0314 100.146 20.0014 99.9958 20.0014 99.8439V91.6604C20.0049 90.3147 20.4657 89.0101 21.308 87.9606C22.1503 86.9111 23.3243 86.179 24.6374 85.8844C24.8805 84.7846 24.8163 83.639 24.4518 82.5733C24.0873 81.5075 23.4366 80.5626 22.5708 79.842L5.08786 62.366C5.0649 62.3442 5.04424 62.3201 5.02242 62.2959C-0.674347 55.5923 0.804379 46.6235 2.66542 35.3195L3.7182 28.6412C4.33817 24.5689 6.25316 22.3164 10.206 22.3164C11.929 22.3206 13.5803 23.007 14.7986 24.2253C16.017 25.4437 16.7033 27.0949 16.7076 28.818V44.4422C17.7307 44.2679 18.7806 44.3411 19.7696 44.6554C20.7587 44.9698 21.6581 45.5163 22.3929 46.2492L36.4867 60.3396C42.3036 63.7976 46.2182 67.7585 48.2304 72.2222C50.1334 76.5999 50.338 81.5294 48.8044 86.0497C49.958 86.4385 50.9646 87.1718 51.6884 88.1507C52.411 87.1726 53.4159 86.4394 54.5678 86.0497C53.0342 81.5294 53.2388 76.5999 55.1418 72.2222C57.1517 67.7585 61.0663 63.7976 66.8855 60.3396L80.9805 46.2492C81.7153 45.5164 82.6147 44.9699 83.6038 44.6556C84.5928 44.3412 85.6427 44.268 86.6658 44.4422V28.8134C86.67 27.0903 87.3564 25.4391 88.5747 24.2207C89.7931 23.0024 91.4443 22.316 93.1674 22.3118C97.1202 22.3118 99.0352 24.5643 99.6552 28.6366L100.708 35.3149C102.572 46.6189 104.051 55.582 98.3532 62.2948C98.3314 62.3189 98.3108 62.343 98.2878 62.3648L80.814 79.842C79.9483 80.5626 79.2975 81.5075 78.933 82.5733C78.5685 83.639 78.5043 84.7846 78.7475 85.8844C80.0591 86.1806 81.2312 86.9134 82.0719 87.9627C82.9127 89.0121 83.3723 90.3158 83.3754 91.6604V99.8439C83.3754 99.9957 83.3455 100.146 83.2874 100.286C83.2293 100.427 83.1441 100.554 83.0368 100.661C82.9294 100.769 82.802 100.854 82.6617 100.912C82.5214 100.97 82.37 101 82.2181 101ZM52.8491 98.6878H81.0574V91.6604C81.0536 90.8201 80.7572 90.0075 80.2192 89.3621C79.6811 88.7168 78.935 88.2791 78.1092 88.1243C77.8656 88.1822 77.6098 88.1596 77.3801 88.06H56.4449C55.4922 88.0645 54.5797 88.4447 53.9057 89.1179C53.2316 89.7911 52.8503 90.7031 52.8445 91.6558V98.6832L52.8491 98.6878ZM45.4888 26.283C45.381 26.1752 45.2955 26.0472 45.2371 25.9064C45.1788 25.7655 45.1488 25.6146 45.1488 25.4621C45.1488 25.3097 45.1788 25.1587 45.2371 25.0179C45.2955 24.877 45.381 24.749 45.4888 24.6412C45.5966 24.5334 45.7245 24.4479 45.8654 24.3896C46.0062 24.3313 46.1572 24.3012 46.3097 24.3012C46.4621 24.3012 46.6131 24.3313 46.7539 24.3896C46.8948 24.4479 47.0227 24.5334 47.1305 24.6412L49.716 27.2279L56.2968 21.3796C56.5278 21.1839 56.8261 21.0863 57.128 21.1076C57.43 21.1289 57.7116 21.2675 57.9128 21.4937C58.114 21.7199 58.2187 22.0158 58.2046 22.3182C58.1906 22.6206 58.0588 22.9055 57.8375 23.112L50.476 29.6561C50.2572 29.8683 49.9637 29.9859 49.6589 29.9836C49.3541 29.9812 49.0624 29.859 48.8469 29.6434L45.4888 26.283ZM53.7021 4.4695C55.8835 6.19161 56.6274 6.37071 59.3381 5.7542C61.5688 5.24789 61.6618 5.29496 62.6078 7.36151C63.7559 9.86776 64.3689 10.3626 67.0658 10.9332C69.2644 11.3993 69.3252 11.4739 69.308 13.7242C69.2862 16.4796 69.6317 17.1902 71.8119 18.8779C73.6489 20.3004 73.6787 20.4358 72.6833 22.5667C71.4744 25.151 71.4744 25.9443 72.6833 28.5298C73.6787 30.6606 73.6477 30.7961 71.8119 32.2174C69.6306 33.9062 69.2862 34.6146 69.308 37.3723C69.3252 39.6225 69.2644 39.6972 67.0658 40.1621C64.3689 40.7362 63.7559 41.2287 62.6078 43.735C61.6618 45.8015 61.5688 45.844 59.3381 45.3423C56.6274 44.7269 55.88 44.9025 53.7021 46.6281C51.7952 48.139 51.5816 48.139 49.6747 46.6281C47.4933 44.906 46.7494 44.7269 44.0388 45.3423C41.808 45.8497 41.715 45.8015 40.769 43.735C39.6209 41.2287 39.0079 40.7339 36.311 40.1621C34.1125 39.6972 34.0516 39.6225 34.0688 37.3723C34.0906 34.6169 33.7451 33.9062 31.5649 32.2174C29.7279 30.7961 29.6981 30.6595 30.6935 28.5298C31.9024 25.9443 31.9024 25.1521 30.6935 22.5667C29.6981 20.4358 29.7291 20.3004 31.5649 18.8779C33.7462 17.1902 34.0906 16.4818 34.0688 13.7242C34.0516 11.4739 34.1125 11.3993 36.311 10.9332C39.0079 10.3591 39.6209 9.86776 40.769 7.36151C41.715 5.29496 41.808 5.25249 44.0388 5.7542C46.7494 6.37071 47.4968 6.19391 49.6747 4.4695C51.5816 2.95862 51.7952 2.95862 53.7021 4.4695ZM61.3621 13.7689C61.1252 13.5741 60.9754 13.2931 60.9457 12.9878C60.916 12.6825 61.0088 12.3779 61.2037 12.141C61.3986 11.9041 61.6796 11.7543 61.9849 11.7246C62.2902 11.6949 62.5948 11.7877 62.8317 11.9825C66.1417 14.7045 68.3413 18.5436 69.0155 22.7757C69.6898 27.0077 68.7921 31.3403 66.4918 34.9561C64.1914 38.5718 60.6475 41.2209 56.5285 42.4035C52.4094 43.5862 48 43.2207 44.1319 41.376C40.2638 39.5313 37.2044 36.3349 35.5308 32.3897C33.8572 28.4446 33.6851 24.0234 35.0469 19.96C36.4088 15.8967 39.2104 12.4722 42.9235 10.3324C46.6365 8.19254 51.0042 7.48538 55.2027 8.34426C56.3547 8.57803 57.4802 8.92767 58.562 9.38787C58.7019 9.44734 58.8287 9.5338 58.9352 9.64229C59.0417 9.75078 59.1258 9.87919 59.1827 10.0202C59.2395 10.1612 59.2681 10.312 59.2667 10.464C59.2653 10.616 59.2339 10.7663 59.1745 10.9062C59.115 11.0461 59.0285 11.1729 58.92 11.2794C58.8115 11.3859 58.6831 11.47 58.5421 11.5269C58.4011 11.5838 58.2503 11.6123 58.0983 11.6109C57.9463 11.6095 57.796 11.5782 57.6561 11.5187C56.7171 11.1191 55.7401 10.8152 54.74 10.6117C51.0943 9.86457 47.3011 10.4774 44.0761 12.3345C40.8511 14.1917 38.4172 17.1648 37.2335 20.6931C36.0499 24.2213 36.1982 28.0608 37.6506 31.4871C39.1031 34.9135 41.7591 37.69 45.1178 39.2927C48.4765 40.8955 52.3056 41.2138 55.8828 40.1875C59.46 39.1613 62.5381 36.8614 64.5362 33.7218C66.5344 30.5823 67.3146 26.82 66.7297 23.1448C66.1447 19.4695 64.2351 16.1353 61.361 13.7712L61.3621 13.7689ZM63.129 47.1424V59.2524C63.1278 59.4386 63.0819 59.6218 62.9952 59.7865C62.9085 59.9513 62.7835 60.0929 62.6308 60.1994C62.4781 60.3059 62.302 60.3742 62.1174 60.3986C61.9328 60.423 61.7451 60.4028 61.5699 60.3396L51.6884 56.6991L41.8723 60.3167C41.6957 60.394 41.5026 60.426 41.3104 60.4099C41.1183 60.3938 40.9332 60.33 40.7719 60.2244C40.6106 60.1187 40.4782 59.9745 40.3867 59.8048C40.2952 59.6351 40.2475 59.4452 40.2478 59.2524V47.1424C38.8965 46.0013 38.5039 43.6902 37.6704 43.022C36.7094 42.2505 33.9058 42.5708 32.5476 40.8797C31.1894 39.1886 32.1114 36.517 31.5557 35.3884C31 34.2599 28.3089 33.3127 27.8038 31.1554C27.2986 28.9982 29.2744 26.9581 29.2744 25.5299C29.2744 24.1017 27.2986 22.0615 27.8038 19.9043C28.3089 17.747 31.0035 16.7987 31.5557 15.6725C32.1079 14.5462 31.1906 11.8723 32.5476 10.1812C33.9047 8.49007 36.7094 8.81038 37.6704 8.03887C38.6313 7.26736 38.9332 4.45457 40.9011 3.49018C42.8689 2.5258 45.2638 4.00567 46.5508 3.70487C47.8377 3.40408 49.4175 1 51.6884 1C53.9593 1 55.5368 3.41097 56.8261 3.71291C58.1153 4.01486 60.5137 2.53613 62.4758 3.49822C64.4378 4.46031 64.734 7.26736 65.7065 8.04691C66.6789 8.82646 69.471 8.49696 70.8292 10.1892C72.1874 11.8815 71.2655 14.5519 71.8211 15.6805C72.3768 16.8091 75.0679 17.7562 75.5742 19.9135C76.0805 22.0707 74.1035 24.1108 74.1035 25.539C74.1035 26.9673 76.0782 29.0074 75.5742 31.1646C75.0702 33.3219 72.3722 34.2725 71.8211 35.3976C71.2701 36.5227 72.1862 39.1966 70.8292 40.8889C69.4721 42.5811 66.6674 42.2597 65.7065 43.0312C64.8729 43.6994 64.4803 46.0104 63.129 47.1516V47.1424ZM52.8491 49.8645C54.4495 49.2997 55.7985 47.5971 56.8261 47.356C57.6986 47.1505 59.4666 47.8611 60.8076 47.9013V57.5888L52.8491 54.6566V49.8645ZM50.5277 54.6555L42.5692 57.5888V47.9002C43.9102 47.8611 45.6782 47.1493 46.5508 47.3548C47.584 47.5959 48.9273 49.2985 50.5277 49.8634V54.6555ZM58.9087 18.3199C60.3356 19.7468 61.3074 21.5648 61.7011 23.544C62.0948 25.5232 61.8927 27.5747 61.1205 29.4391C60.3483 31.3034 59.0405 32.8969 57.3626 34.018C55.6848 35.1392 53.7121 35.7376 51.6941 35.7376C49.6762 35.7376 47.7035 35.1392 46.0257 34.018C44.3478 32.8969 43.04 31.3034 42.2678 29.4391C41.4956 27.5747 41.2935 25.5232 41.6872 23.544C42.0809 21.5648 43.0527 19.7468 44.4796 18.3199C46.3932 16.4068 48.9883 15.3321 51.6941 15.3321C54.4 15.3321 56.9951 16.4068 58.9087 18.3199ZM51.6884 13.0112C54.1653 13.0112 56.5865 13.7457 58.646 15.1218C60.7054 16.4978 62.3105 18.4537 63.2584 20.742C64.2062 23.0303 64.4542 25.5483 63.971 27.9776C63.4878 30.4069 62.2951 32.6383 60.5437 34.3897C58.7923 36.1411 56.5608 37.3339 54.1316 37.8171C51.7023 38.3003 49.1843 38.0523 46.896 37.1044C44.6076 36.1566 42.6518 34.5514 41.2757 32.492C39.8996 30.4326 39.1652 28.0113 39.1652 25.5345C39.1652 22.2131 40.4846 19.0277 42.8331 16.6792C45.1817 14.3306 48.367 13.0112 51.6884 13.0112Z" fill="#3C7CFF"/>
<path fill-rule="evenodd" clip-rule="evenodd" d="M22.3194 98.6878H50.5277V91.6604C50.522 90.7077 50.1406 89.7957 49.4666 89.1225C48.7925 88.4492 47.88 88.0691 46.9273 88.0646H25.9967C25.767 88.1641 25.5112 88.1867 25.2677 88.1289C24.4418 88.2837 23.6957 88.7214 23.1576 89.3667C22.6196 90.0121 22.3232 90.8247 22.3194 91.665V98.6924V98.6878ZM27.0139 85.7478H46.4761C47.9566 81.6628 47.8281 77.1677 46.1168 73.174C44.2997 69.1374 40.6714 65.509 35.2318 62.2891C35.1248 62.2344 35.0271 62.1631 34.9425 62.0778L20.7546 47.8898C19.9666 47.1249 18.9093 46.7006 17.8111 46.7088C16.7129 46.7169 15.662 47.1568 14.8854 47.9333C14.1089 48.7099 13.669 49.7608 13.6609 50.859C13.6527 51.9572 14.077 53.0145 14.8419 53.8025L23.8429 62.8034C24.0535 63.0225 24.1698 63.3155 24.1667 63.6194C24.1637 63.9233 24.0415 64.2139 23.8265 64.4288C23.6115 64.6436 23.3209 64.7656 23.0169 64.7684C22.713 64.7712 22.4201 64.6548 22.2011 64.444L13.2013 55.4442C12.5091 54.749 11.9829 53.9064 11.6619 52.9793C11.341 52.0522 11.2336 51.0646 11.3479 50.0902C11.4621 49.1158 11.795 48.1798 12.3217 47.3521C12.8484 46.5244 13.5553 45.8263 14.3896 45.3101V28.8134C14.3857 27.7059 13.944 26.645 13.1609 25.8619C12.3778 25.0788 11.3169 24.6371 10.2094 24.6332C7.40354 24.6332 6.48048 26.0568 6.00747 29.0372C5.68027 31.2978 5.30944 33.54 4.95469 35.6961C3.19124 46.3813 1.79402 54.8598 6.74913 60.7518L24.1999 78.2026C25.2545 79.131 26.0629 80.3059 26.5531 81.6226C27.0433 82.9394 27.2 84.3569 27.0093 85.7489L27.0139 85.7478ZM56.9007 85.7478H76.3629C76.1722 84.3558 76.3289 82.9382 76.8191 81.6215C77.3093 80.3048 78.1177 79.1298 79.1723 78.2014L96.6231 60.7506C101.578 54.8587 100.182 46.3801 98.4175 35.695C98.0628 33.54 97.6919 31.2978 97.3647 29.0361C96.8906 26.0511 95.9687 24.6321 93.1628 24.6321C92.0553 24.636 90.9944 25.0777 90.2113 25.8607C89.4282 26.6438 88.9865 27.7048 88.9826 28.8122V45.3101C89.8167 45.8265 90.5234 46.5246 91.05 47.3523C91.5766 48.18 91.9094 49.1159 92.0236 50.0903C92.1379 51.0646 92.0306 52.0521 91.7098 52.9792C91.389 53.9063 90.8629 54.7489 90.1709 55.4442L81.1757 64.444C81.0687 64.5553 80.9407 64.6441 80.799 64.7053C80.6573 64.7664 80.5049 64.7987 80.3505 64.8003C80.1962 64.8018 80.0431 64.7726 79.9003 64.7143C79.7574 64.656 79.6276 64.5698 79.5184 64.4607C79.4092 64.3516 79.3229 64.2218 79.2645 64.079C79.2061 63.9361 79.1768 63.7831 79.1782 63.6288C79.1796 63.4745 79.2118 63.322 79.2729 63.1803C79.334 63.0385 79.4227 62.9104 79.5339 62.8034L88.5349 53.8025C89.2998 53.0145 89.7241 51.9572 89.7159 50.859C89.7078 49.7608 89.2679 48.7099 88.4914 47.9333C87.7148 47.1568 86.6639 46.7169 85.5657 46.7088C84.4675 46.7006 83.4102 47.1249 82.6223 47.8898L68.4343 62.0778C68.3497 62.1631 68.252 62.2344 68.145 62.2891C62.7054 65.509 59.0771 69.1374 57.26 73.174C55.5487 77.1677 55.4202 81.6628 56.9007 85.7478ZM82.2181 101H21.1587C21.0068 101 20.8563 100.97 20.7159 100.912C20.5755 100.854 20.4479 100.769 20.3404 100.662C20.233 100.554 20.1477 100.427 20.0895 100.287C20.0314 100.146 20.0014 99.9958 20.0014 99.8439V91.6604C20.0049 90.3147 20.4657 89.0101 21.308 87.9606C22.1503 86.9111 23.3243 86.179 24.6374 85.8844C24.8805 84.7846 24.8163 83.639 24.4518 82.5733C24.0873 81.5075 23.4366 80.5626 22.5708 79.842L5.08786 62.366C5.0649 62.3442 5.04424 62.3201 5.02242 62.2959C-0.674347 55.5923 0.804379 46.6235 2.66542 35.3195L3.7182 28.6412C4.33817 24.5689 6.25316 22.3164 10.206 22.3164C11.929 22.3206 13.5803 23.007 14.7986 24.2253C16.017 25.4437 16.7033 27.0949 16.7076 28.818V44.4422C17.7307 44.2679 18.7806 44.3411 19.7696 44.6554C20.7587 44.9698 21.6581 45.5163 22.3929 46.2492L36.4867 60.3396C42.3036 63.7976 46.2182 67.7585 48.2304 72.2222C50.1334 76.5999 50.338 81.5294 48.8044 86.0497C49.958 86.4385 50.9646 87.1718 51.6884 88.1507C52.411 87.1726 53.4159 86.4394 54.5678 86.0497C53.0342 81.5294 53.2388 76.5999 55.1418 72.2222C57.1517 67.7585 61.0663 63.7976 66.8855 60.3396L80.9805 46.2492C81.7153 45.5164 82.6147 44.9699 83.6038 44.6556C84.5928 44.3412 85.6427 44.268 86.6658 44.4422V28.8134C86.67 27.0903 87.3564 25.4391 88.5747 24.2207C89.7931 23.0024 91.4443 22.316 93.1674 22.3118C97.1202 22.3118 99.0352 24.5643 99.6552 28.6366L100.708 35.3149C102.572 46.6189 104.051 55.582 98.3532 62.2948C98.3314 62.3189 98.3108 62.343 98.2878 62.3648L80.814 79.842C79.9483 80.5626 79.2975 81.5075 78.933 82.5733C78.5685 83.639 78.5043 84.7846 78.7475 85.8844C80.0591 86.1806 81.2312 86.9134 82.0719 87.9627C82.9127 89.0121 83.3723 90.3158 83.3754 91.6604V99.8439C83.3754 99.9957 83.3455 100.146 83.2874 100.286C83.2293 100.427 83.1441 100.554 83.0368 100.661C82.9294 100.769 82.802 100.854 82.6617 100.912C82.5214 100.97 82.37 101 82.2181 101ZM52.8491 98.6878H81.0574V91.6604C81.0536 90.8201 80.7572 90.0075 80.2192 89.3621C79.6811 88.7168 78.935 88.2791 78.1092 88.1243C77.8656 88.1822 77.6098 88.1596 77.3801 88.06H56.4449C55.4922 88.0645 54.5797 88.4447 53.9057 89.1179C53.2316 89.7911 52.8503 90.7031 52.8445 91.6558V98.6832L52.8491 98.6878ZM45.4888 26.283C45.381 26.1752 45.2955 26.0472 45.2371 25.9064C45.1788 25.7655 45.1488 25.6146 45.1488 25.4621C45.1488 25.3097 45.1788 25.1587 45.2371 25.0179C45.2955 24.877 45.381 24.749 45.4888 24.6412C45.5966 24.5334 45.7245 24.4479 45.8654 24.3896C46.0062 24.3313 46.1572 24.3012 46.3097 24.3012C46.4621 24.3012 46.6131 24.3313 46.7539 24.3896C46.8948 24.4479 47.0227 24.5334 47.1305 24.6412L49.716 27.2279L56.2968 21.3796C56.5278 21.1839 56.8261 21.0863 57.128 21.1076C57.43 21.1289 57.7116 21.2675 57.9128 21.4937C58.114 21.7199 58.2187 22.0158 58.2046 22.3182C58.1906 22.6206 58.0588 22.9055 57.8375 23.112L50.476 29.6561C50.2572 29.8683 49.9637 29.9859 49.6589 29.9836C49.3541 29.9812 49.0624 29.859 48.8469 29.6434L45.4888 26.283ZM53.7021 4.4695C55.8835 6.19161 56.6274 6.37071 59.3381 5.7542C61.5688 5.24789 61.6618 5.29496 62.6078 7.36151C63.7559 9.86776 64.3689 10.3626 67.0658 10.9332C69.2644 11.3993 69.3252 11.4739 69.308 13.7242C69.2862 16.4796 69.6317 17.1902 71.8119 18.8779C73.6489 20.3004 73.6787 20.4358 72.6833 22.5667C71.4744 25.151 71.4744 25.9443 72.6833 28.5298C73.6787 30.6606 73.6477 30.7961 71.8119 32.2174C69.6306 33.9062 69.2862 34.6146 69.308 37.3723C69.3252 39.6225 69.2644 39.6972 67.0658 40.1621C64.3689 40.7362 63.7559 41.2287 62.6078 43.735C61.6618 45.8015 61.5688 45.844 59.3381 45.3423C56.6274 44.7269 55.88 44.9025 53.7021 46.6281C51.7952 48.139 51.5816 48.139 49.6747 46.6281C47.4933 44.906 46.7494 44.7269 44.0388 45.3423C41.808 45.8497 41.715 45.8015 40.769 43.735C39.6209 41.2287 39.0079 40.7339 36.311 40.1621C34.1125 39.6972 34.0516 39.6225 34.0688 37.3723C34.0906 34.6169 33.7451 33.9062 31.5649 32.2174C29.7279 30.7961 29.6981 30.6595 30.6935 28.5298C31.9024 25.9443 31.9024 25.1521 30.6935 22.5667C29.6981 20.4358 29.7291 20.3004 31.5649 18.8779C33.7462 17.1902 34.0906 16.4818 34.0688 13.7242C34.0516 11.4739 34.1125 11.3993 36.311 10.9332C39.0079 10.3591 39.6209 9.86776 40.769 7.36151C41.715 5.29496 41.808 5.25249 44.0388 5.7542C46.7494 6.37071 47.4968 6.19391 49.6747 4.4695C51.5816 2.95862 51.7952 2.95862 53.7021 4.4695ZM61.3621 13.7689C61.1252 13.5741 60.9754 13.2931 60.9457 12.9878C60.916 12.6825 61.0088 12.3779 61.2037 12.141C61.3986 11.9041 61.6796 11.7543 61.9849 11.7246C62.2902 11.6949 62.5948 11.7877 62.8317 11.9825C66.1417 14.7045 68.3413 18.5436 69.0155 22.7757C69.6898 27.0077 68.7921 31.3403 66.4918 34.9561C64.1914 38.5718 60.6475 41.2209 56.5285 42.4035C52.4094 43.5862 48 43.2207 44.1319 41.376C40.2638 39.5313 37.2044 36.3349 35.5308 32.3897C33.8572 28.4446 33.6851 24.0234 35.0469 19.96C36.4088 15.8967 39.2104 12.4722 42.9235 10.3324C46.6365 8.19254 51.0042 7.48538 55.2027 8.34426C56.3547 8.57803 57.4802 8.92767 58.562 9.38787C58.7019 9.44734 58.8287 9.5338 58.9352 9.64229C59.0417 9.75078 59.1258 9.87919 59.1827 10.0202C59.2395 10.1612 59.2681 10.312 59.2667 10.464C59.2653 10.616 59.2339 10.7663 59.1745 10.9062C59.115 11.0461 59.0285 11.1729 58.92 11.2794C58.8115 11.3859 58.6831 11.47 58.5421 11.5269C58.4011 11.5838 58.2503 11.6123 58.0983 11.6109C57.9463 11.6095 57.796 11.5782 57.6561 11.5187C56.7171 11.1191 55.7401 10.8152 54.74 10.6117C51.0943 9.86457 47.3011 10.4774 44.0761 12.3345C40.8511 14.1917 38.4172 17.1648 37.2335 20.6931C36.0499 24.2213 36.1982 28.0608 37.6506 31.4871C39.1031 34.9135 41.7591 37.69 45.1178 39.2927C48.4765 40.8955 52.3056 41.2138 55.8828 40.1875C59.46 39.1613 62.5381 36.8614 64.5362 33.7218C66.5344 30.5823 67.3146 26.82 66.7297 23.1448C66.1447 19.4695 64.2351 16.1353 61.361 13.7712L61.3621 13.7689ZM63.129 47.1424V59.2524C63.1278 59.4386 63.0819 59.6218 62.9952 59.7865C62.9085 59.9513 62.7835 60.0929 62.6308 60.1994C62.4781 60.3059 62.302 60.3742 62.1174 60.3986C61.9328 60.423 61.7451 60.4028 61.5699 60.3396L51.6884 56.6991L41.8723 60.3167C41.6957 60.394 41.5026 60.426 41.3104 60.4099C41.1183 60.3938 40.9332 60.33 40.7719 60.2244C40.6106 60.1187 40.4782 59.9745 40.3867 59.8048C40.2952 59.6351 40.2475 59.4452 40.2478 59.2524V47.1424C38.8965 46.0013 38.5039 43.6902 37.6704 43.022C36.7094 42.2505 33.9058 42.5708 32.5476 40.8797C31.1894 39.1886 32.1114 36.517 31.5557 35.3884C31 34.2599 28.3089 33.3127 27.8038 31.1554C27.2986 28.9982 29.2744 26.9581 29.2744 25.5299C29.2744 24.1017 27.2986 22.0615 27.8038 19.9043C28.3089 17.747 31.0035 16.7987 31.5557 15.6725C32.1079 14.5462 31.1906 11.8723 32.5476 10.1812C33.9047 8.49007 36.7094 8.81038 37.6704 8.03887C38.6313 7.26736 38.9332 4.45457 40.9011 3.49018C42.8689 2.5258 45.2638 4.00567 46.5508 3.70487C47.8377 3.40408 49.4175 1 51.6884 1C53.9593 1 55.5368 3.41097 56.8261 3.71291C58.1153 4.01486 60.5137 2.53613 62.4758 3.49822C64.4378 4.46031 64.734 7.26736 65.7065 8.04691C66.6789 8.82646 69.471 8.49696 70.8292 10.1892C72.1874 11.8815 71.2655 14.5519 71.8211 15.6805C72.3768 16.8091 75.0679 17.7562 75.5742 19.9135C76.0805 22.0707 74.1035 24.1108 74.1035 25.539C74.1035 26.9673 76.0782 29.0074 75.5742 31.1646C75.0702 33.3219 72.3722 34.2725 71.8211 35.3976C71.2701 36.5227 72.1862 39.1966 70.8292 40.8889C69.4721 42.5811 66.6674 42.2597 65.7065 43.0312C64.8729 43.6994 64.4803 46.0104 63.129 47.1516V47.1424ZM52.8491 49.8645C54.4495 49.2997 55.7985 47.5971 56.8261 47.356C57.6986 47.1505 59.4666 47.8611 60.8076 47.9013V57.5888L52.8491 54.6566V49.8645ZM50.5277 54.6555L42.5692 57.5888V47.9002C43.9102 47.8611 45.6782 47.1493 46.5508 47.3548C47.584 47.5959 48.9273 49.2985 50.5277 49.8634V54.6555ZM58.9087 18.3199C60.3356 19.7468 61.3074 21.5648 61.7011 23.544C62.0948 25.5232 61.8927 27.5747 61.1205 29.4391C60.3483 31.3034 59.0405 32.8969 57.3626 34.018C55.6848 35.1392 53.7121 35.7376 51.6941 35.7376C49.6762 35.7376 47.7035 35.1392 46.0257 34.018C44.3478 32.8969 43.04 31.3034 42.2678 29.4391C41.4956 27.5747 41.2935 25.5232 41.6872 23.544C42.0809 21.5648 43.0527 19.7468 44.4796 18.3199C46.3932 16.4068 48.9883 15.3321 51.6941 15.3321C54.4 15.3321 56.9951 16.4068 58.9087 18.3199ZM51.6884 13.0112C54.1653 13.0112 56.5865 13.7457 58.646 15.1218C60.7054 16.4978 62.3105 18.4537 63.2584 20.742C64.2062 23.0303 64.4542 25.5483 63.971 27.9776C63.4878 30.4069 62.2951 32.6383 60.5437 34.3897C58.7923 36.1411 56.5608 37.3339 54.1316 37.8171C51.7023 38.3003 49.1843 38.0523 46.896 37.1044C44.6076 36.1566 42.6518 34.5514 41.2757 32.492C39.8996 30.4326 39.1652 28.0113 39.1652 25.5345C39.1652 22.2131 40.4846 19.0277 42.8331 16.6792C45.1817 14.3306 48.367 13.0112 51.6884 13.0112Z" stroke="#3C7CFF" stroke-width="0.6" mask="url(#path-1-outside-1_192_1190)"/>
</svg>
