<svg width="100" height="100" viewBox="0 0 100 100" fill="none" xmlns="http://www.w3.org/2000/svg">
<mask id="path-1-outside-1_192_1192" maskUnits="userSpaceOnUse" x="1" y="4" width="98" height="92" fill="black">
<rect fill="white" x="1" y="4" width="98" height="92"/>
<path d="M91.1429 95.1225H8.85714C7.03852 95.1225 5.29437 94.4 4.00841 93.114C2.72245 91.8281 2 90.0839 2 88.2653V11.8571C2 10.0385 2.72245 8.29437 4.00841 7.00841C5.29437 5.72245 7.03852 5 8.85714 5H91.1429C92.9615 5 94.7056 5.72245 95.9916 7.00841C97.2775 8.29437 98 10.0385 98 11.8571V88.2653C98 90.0839 97.2775 91.8281 95.9916 93.114C94.7056 94.4 92.9615 95.1225 91.1429 95.1225ZM8.85714 6.95918C7.55812 6.95918 6.31231 7.47522 5.39376 8.39376C4.47522 9.31231 3.95918 10.5581 3.95918 11.8571V88.2653C3.95918 89.5643 4.47522 90.8101 5.39376 91.7287C6.31231 92.6472 7.55812 93.1633 8.85714 93.1633H91.1429C92.4419 93.1633 93.6877 92.6472 94.6062 91.7287C95.5248 90.8101 96.0408 89.5643 96.0408 88.2653V11.8571C96.0408 10.5581 95.5248 9.31231 94.6062 8.39376C93.6877 7.47522 92.4419 6.95918 91.1429 6.95918H8.85714Z"/>
<path d="M97.0204 23.2889H2.97959C2.71979 23.2889 2.47063 23.1857 2.28692 23.002C2.10321 22.8183 2 22.5691 2 22.3093C2 22.0495 2.10321 21.8004 2.28692 21.6167C2.47063 21.433 2.71979 21.3297 2.97959 21.3297H97.0204C97.2802 21.3297 97.5294 21.433 97.7131 21.6167C97.8968 21.8004 98 22.0495 98 22.3093C98 22.5691 97.8968 22.8183 97.7131 23.002C97.5294 23.1857 97.2802 23.2889 97.0204 23.2889Z"/>
<path d="M12.2073 15.1192H9.10202C8.84222 15.1192 8.59305 15.016 8.40935 14.8322C8.22564 14.6485 8.12243 14.3994 8.12243 14.1396C8.12243 13.8798 8.22564 13.6306 8.40935 13.4469C8.59305 13.2632 8.84222 13.16 9.10202 13.16H12.2073C12.4671 13.16 12.7163 13.2632 12.9 13.4469C13.0837 13.6306 13.1869 13.8798 13.1869 14.1396C13.1869 14.3994 13.0837 14.6485 12.9 14.8322C12.7163 15.016 12.4671 15.1192 12.2073 15.1192Z"/>
<path d="M20.6905 15.1192H17.595C17.3352 15.1192 17.086 15.016 16.9023 14.8322C16.7186 14.6485 16.6154 14.3994 16.6154 14.1396C16.6154 13.8798 16.7186 13.6306 16.9023 13.4469C17.086 13.2632 17.3352 13.16 17.595 13.16H20.6905C20.9503 13.16 21.1995 13.2632 21.3832 13.4469C21.5669 13.6306 21.6701 13.8798 21.6701 14.1396C21.6701 14.3994 21.5669 14.6485 21.3832 14.8322C21.1995 15.016 20.9503 15.1192 20.6905 15.1192Z"/>
<path d="M29.1841 15.1192H26.0788C25.8189 15.1192 25.5698 15.016 25.3861 14.8322C25.2024 14.6485 25.0992 14.3994 25.0992 14.1396C25.0992 13.8798 25.2024 13.6306 25.3861 13.4469C25.5698 13.2632 25.8189 13.16 26.0788 13.16H29.1841C29.4439 13.16 29.693 13.2632 29.8767 13.4469C30.0604 13.6306 30.1636 13.8798 30.1636 14.1396C30.1636 14.3994 30.0604 14.6485 29.8767 14.8322C29.693 15.016 29.4439 15.1192 29.1841 15.1192Z"/>
<path d="M90.6532 15.1192H55.8777C55.6179 15.1192 55.3687 15.016 55.185 14.8322C55.0013 14.6485 54.8981 14.3994 54.8981 14.1396C54.8981 13.8798 55.0013 13.6306 55.185 13.4469C55.3687 13.2632 55.6179 13.16 55.8777 13.16H90.6532C90.913 13.16 91.1622 13.2632 91.3459 13.4469C91.5296 13.6306 91.6328 13.8798 91.6328 14.1396C91.6328 14.3994 91.5296 14.6485 91.3459 14.8322C91.1622 15.016 90.913 15.1192 90.6532 15.1192Z"/>
<path d="M29.742 31.5665H9.10202C8.84222 31.5665 8.59305 31.4633 8.40935 31.2796C8.22564 31.0959 8.12243 30.8467 8.12243 30.5869C8.12243 30.3271 8.22564 30.0779 8.40935 29.8942C8.59305 29.7105 8.84222 29.6073 9.10202 29.6073H29.742C30.0018 29.6073 30.251 29.7105 30.4347 29.8942C30.6184 30.0779 30.7216 30.3271 30.7216 30.5869C30.7216 30.8467 30.6184 31.0959 30.4347 31.2796C30.251 31.4633 30.0018 31.5665 29.742 31.5665Z"/>
<path d="M18.9371 37.3266H9.14119C8.88138 37.3266 8.63222 37.2234 8.44851 37.0396C8.2648 36.8559 8.16159 36.6068 8.16159 36.347C8.16159 36.0872 8.2648 35.838 8.44851 35.6543C8.63222 35.4706 8.88138 35.3674 9.14119 35.3674H18.9371C19.1969 35.3674 19.4461 35.4706 19.6298 35.6543C19.8135 35.838 19.9167 36.0872 19.9167 36.347C19.9167 36.6068 19.8135 36.8559 19.6298 37.0396C19.4461 37.2234 19.1969 37.3266 18.9371 37.3266Z"/>
<path d="M25.1873 37.3266H22.8167C22.5568 37.3266 22.3077 37.2234 22.124 37.0396C21.9403 36.8559 21.8371 36.6068 21.8371 36.347C21.8371 36.0872 21.9403 35.838 22.124 35.6543C22.3077 35.4706 22.5568 35.3674 22.8167 35.3674H25.1873C25.4471 35.3674 25.6962 35.4706 25.8799 35.6543C26.0637 35.838 26.1669 36.0872 26.1669 36.347C26.1669 36.6068 26.0637 36.8559 25.8799 37.0396C25.6962 37.2234 25.4471 37.3266 25.1873 37.3266Z"/>
<path d="M34.248 87.609C32.7388 87.5943 31.2499 87.2605 29.879 86.6294C29.7351 86.5641 29.6092 86.4649 29.512 86.3404C29.4148 86.2159 29.3491 86.0697 29.3206 85.9143C29.292 85.7576 29.302 85.5964 29.3498 85.4444C29.3976 85.2925 29.4818 85.1545 29.5949 85.0425L34.1304 80.507L33.8855 77.2841L30.6627 77.0294L26.1173 81.5747C26.0053 81.6879 25.8673 81.772 25.7154 81.8198C25.5635 81.8676 25.4022 81.8776 25.2455 81.849C25.0901 81.8205 24.9439 81.7548 24.8194 81.6576C24.6949 81.5604 24.5957 81.4345 24.5304 81.2906C23.6526 79.3112 23.3914 77.1132 23.7811 74.9831C24.1708 72.8531 25.1931 70.8899 26.7149 69.3494C28.1461 67.9046 29.962 66.9011 31.9469 66.4583C33.9318 66.0155 36.0021 66.1519 37.9116 66.8514L44.2986 60.4743C44.4821 60.2918 44.7304 60.1894 44.9892 60.1894C45.248 60.1894 45.4963 60.2918 45.6798 60.4743L50.6953 65.48C50.7871 65.5711 50.86 65.6794 50.9097 65.7988C50.9595 65.9182 50.9851 66.0462 50.9851 66.1755C50.9851 66.3048 50.9595 66.4329 50.9097 66.5523C50.86 66.6716 50.7871 66.78 50.6953 66.871L44.3084 73.2482C45.0116 75.1565 45.1509 77.2269 44.7097 79.2122C44.2685 81.1975 43.2654 83.014 41.8202 84.4449C39.8123 86.4571 37.0906 87.5944 34.248 87.609ZM32.0733 85.3265C33.6521 85.7375 35.3145 85.6967 36.8713 85.2089C38.428 84.721 39.8164 83.8057 40.8783 82.5672C41.9402 81.3287 42.6328 79.8168 42.8773 78.2038C43.1217 76.5908 42.9082 74.9416 42.261 73.4441C42.1839 73.2645 42.1622 73.0659 42.1989 72.8738C42.2355 72.6818 42.3288 72.5051 42.4667 72.3665L48.6186 66.2147L44.9941 62.5902L38.8422 68.7323C38.7029 68.8722 38.5244 68.9667 38.3304 69.0034C38.1364 69.0401 37.9358 69.0173 37.7549 68.938C36.2547 68.2873 34.6018 68.0713 32.9847 68.3144C31.3677 68.5574 29.8514 69.2499 28.6087 70.3129C27.3661 71.3758 26.447 72.7665 25.9563 74.3263C25.4656 75.8862 25.423 77.5526 25.8333 79.1355L29.5949 75.3641C29.6955 75.2634 29.8168 75.1857 29.9505 75.1367C30.0841 75.0876 30.2269 75.0683 30.3688 75.08L34.8749 75.4327C35.1095 75.451 35.3297 75.5531 35.4951 75.7204C35.6606 75.8876 35.7604 76.1089 35.7761 76.3437L36.119 80.84C36.1307 80.9819 36.1114 81.1246 36.0623 81.2583C36.0132 81.3919 35.9356 81.5133 35.8349 81.6139L32.0733 85.3265Z"/>
<path d="M55.0154 62.1788C54.8865 62.1796 54.7587 62.1548 54.6394 62.1061C54.52 62.0573 54.4115 61.9855 54.3199 61.8947L49.3044 56.9184C49.1235 56.7359 49.0214 56.4897 49.0203 56.2327C49.0196 56.1038 49.0443 55.976 49.0931 55.8566C49.1418 55.7373 49.2136 55.6287 49.3044 55.5372L55.6914 49.0817C54.9943 47.1773 54.8582 45.1129 55.2993 43.1334C55.7403 41.154 56.7399 39.3427 58.1795 37.9143C59.7211 36.3942 61.6848 35.3736 63.8148 34.9857C65.9448 34.5978 68.1422 34.8605 70.1208 35.7396C70.2651 35.8053 70.3913 35.9051 70.4885 36.0303C70.5858 36.1555 70.6512 36.3025 70.6791 36.4586C70.7071 36.6146 70.6967 36.7752 70.6489 36.9264C70.6012 37.0776 70.5174 37.2149 70.4048 37.3266L65.8693 41.8621L66.124 45.0849L69.3371 45.3396L73.8824 40.7943C73.9945 40.6812 74.1324 40.5971 74.2844 40.5493C74.4363 40.5015 74.5976 40.4914 74.7542 40.52C74.9096 40.5485 75.0558 40.6142 75.1803 40.7114C75.3048 40.8087 75.404 40.9346 75.4693 41.0784C76.3429 43.0554 76.6016 45.2495 76.2121 47.3755C75.8225 49.5015 74.8026 51.4612 73.2848 53C71.8539 54.4453 70.0374 55.4483 68.0521 55.8895C66.0668 56.3307 63.9964 56.1914 62.0881 55.4882L55.711 61.8751C55.6211 61.9695 55.5132 62.0449 55.3938 62.0971C55.2744 62.1492 55.1458 62.177 55.0154 62.1788ZM51.3812 56.1935L55.0154 59.8572L61.1575 53.7053C61.2969 53.5654 61.4753 53.4709 61.6693 53.4342C61.8634 53.3975 62.064 53.4203 62.2448 53.4996C63.8488 54.2071 65.6296 54.4117 67.3522 54.0864C69.0748 53.7611 70.6583 52.9212 71.8938 51.6776C72.966 50.6003 73.7394 49.2624 74.1379 47.7957C74.5363 46.3289 74.5462 44.7836 74.1665 43.3119L70.4048 47.0833C70.3042 47.184 70.1829 47.2616 70.0492 47.3107C69.9156 47.3598 69.7728 47.3791 69.631 47.3674L65.1346 47.0147C64.9016 46.9967 64.6827 46.896 64.5174 46.7307C64.3521 46.5655 64.2514 46.3465 64.2334 46.1135L63.8808 41.6074C63.869 41.4655 63.8884 41.3228 63.9374 41.1891C63.9865 41.0555 64.0641 40.9341 64.1648 40.8335L67.9265 37.0327C66.3436 36.6207 64.6768 36.6623 63.1165 37.1527C61.5561 37.6431 60.1652 38.5626 59.1026 39.806C58.04 41.0494 57.3487 42.5667 57.1075 44.1844C56.8663 45.8021 57.085 47.455 57.7387 48.9543C57.8224 49.1376 57.8476 49.3422 57.8108 49.5403C57.774 49.7384 57.677 49.9203 57.533 50.0613L51.3812 56.1935Z"/>
<path d="M65.7518 87.609C62.9148 87.6048 60.1939 86.482 58.1796 84.4841C56.7364 83.0519 55.7348 81.2354 55.2937 79.2506C54.8526 77.2658 54.9907 75.1961 55.6914 73.2874L37.9118 55.5078C36.0012 56.2049 33.9306 56.3391 31.946 55.8946C29.9613 55.4501 28.1458 54.4455 26.7151 53C25.1973 51.4612 24.1774 49.5015 23.7878 47.3755C23.3983 45.2495 23.6571 43.0554 24.5306 41.0784C24.5959 40.9346 24.6951 40.8087 24.8196 40.7114C24.9441 40.6142 25.0903 40.5485 25.2457 40.52C25.4024 40.4914 25.5636 40.5015 25.7155 40.5493C25.8675 40.5971 26.0054 40.6812 26.1175 40.7943L30.6628 45.3298L33.8857 45.0849L34.1306 41.8621L29.5951 37.3266C29.4825 37.2149 29.3987 37.0776 29.351 36.9264C29.3032 36.7752 29.2928 36.6146 29.3208 36.4586C29.3487 36.3025 29.4141 36.1555 29.5114 36.0303C29.6086 35.9051 29.7348 35.8053 29.8792 35.7396C31.8577 34.8605 34.0551 34.5978 36.1851 34.9857C38.3151 35.3736 40.2788 36.3942 41.8204 37.9143C43.2579 39.344 44.2562 41.1553 44.6971 43.1342C45.138 45.1132 45.0032 47.1769 44.3085 49.0817L62.0881 66.8906C63.9975 66.1899 66.0681 66.0528 68.0533 66.4957C70.0384 66.9386 71.8544 67.9427 73.2849 69.3886C74.8066 70.9291 75.829 72.8923 76.2187 75.0223C76.6083 77.1524 76.3472 79.3504 75.4694 81.3298C75.404 81.4737 75.3049 81.5996 75.1803 81.6968C75.0558 81.794 74.9096 81.8597 74.7543 81.8882C74.5976 81.9168 74.4363 81.9068 74.2844 81.859C74.1325 81.8112 73.9945 81.7271 73.8824 81.6139L69.3371 77.0686L66.1241 77.3233L65.8694 80.5462L70.4049 85.0817C70.518 85.1937 70.6021 85.3317 70.6499 85.4836C70.6977 85.6356 70.7077 85.7968 70.6792 85.9535C70.6506 86.1089 70.585 86.2551 70.4877 86.3796C70.3905 86.5041 70.2646 86.6033 70.1208 86.6686C68.7469 87.2862 67.2581 87.6066 65.7518 87.609ZM38.1469 53.3821C38.2758 53.3813 38.4036 53.406 38.523 53.4548C38.6423 53.5035 38.7509 53.5754 38.8424 53.6662L57.533 72.3666C57.6709 72.5051 57.7642 72.6818 57.8009 72.8738C57.8375 73.0659 57.8159 73.2645 57.7387 73.4441C57.0277 75.049 56.8212 76.8321 57.1466 78.5571C57.472 80.282 58.3139 81.8673 59.5608 83.1029C60.6431 84.1666 61.9831 84.9308 63.4497 85.3206C64.9162 85.7104 66.4589 85.7125 67.9265 85.3266L64.1649 81.5747C64.0641 81.4741 63.9865 81.3528 63.9375 81.2191C63.8884 81.0855 63.8691 80.9427 63.8808 80.8008L64.2334 76.2947C64.2514 76.0617 64.3522 75.8428 64.5174 75.6775C64.6827 75.5122 64.9016 75.4115 65.1347 75.3935L69.5918 75.08C69.7337 75.0683 69.8764 75.0876 70.0101 75.1367C70.1437 75.1858 70.2651 75.2634 70.3657 75.3641L74.1273 79.1355C74.5326 77.5573 74.488 75.897 73.9986 74.3428C73.5091 72.7885 72.5943 71.4023 71.3577 70.3411C70.1212 69.2799 68.6122 68.586 67.0017 68.338C65.3912 68.0901 63.7434 68.2979 62.2449 68.938C62.064 69.0173 61.8634 69.0401 61.6694 69.0034C61.4753 68.9667 61.2969 68.8722 61.1575 68.7323L42.4669 50.0613C42.327 49.9219 42.2325 49.7435 42.1958 49.5494C42.1591 49.3554 42.1819 49.1548 42.2612 48.9739C42.9802 47.3656 43.191 45.5762 42.8654 43.8449C42.5398 42.1135 41.6933 40.5229 40.4392 39.2857C39.3566 38.2218 38.0177 37.4554 36.5521 37.0607C35.0865 36.666 33.5439 36.6563 32.0734 37.0327L35.8351 40.7943C35.9345 40.8938 36.0113 41.0136 36.0604 41.1454C36.1094 41.2773 36.1294 41.4181 36.1192 41.5584L35.7763 46.0645C35.7583 46.2976 35.6576 46.5165 35.4923 46.6817C35.327 46.847 35.1081 46.9477 34.8751 46.9657L30.3689 47.3282C30.2271 47.3399 30.0843 47.3206 29.9507 47.2715C29.817 47.2225 29.6957 47.1449 29.5951 47.0441L25.8334 43.2727C25.4537 44.7444 25.4636 46.2897 25.862 47.7565C26.2605 49.2233 27.0339 50.5611 28.1061 51.6384C29.3401 52.8844 30.9237 53.7259 32.647 54.0513C34.3702 54.3767 36.1516 54.1707 37.7551 53.4604C37.8799 53.411 38.0126 53.3844 38.1469 53.3821Z"/>
</mask>
<path d="M91.1429 95.1225H8.85714C7.03852 95.1225 5.29437 94.4 4.00841 93.114C2.72245 91.8281 2 90.0839 2 88.2653V11.8571C2 10.0385 2.72245 8.29437 4.00841 7.00841C5.29437 5.72245 7.03852 5 8.85714 5H91.1429C92.9615 5 94.7056 5.72245 95.9916 7.00841C97.2775 8.29437 98 10.0385 98 11.8571V88.2653C98 90.0839 97.2775 91.8281 95.9916 93.114C94.7056 94.4 92.9615 95.1225 91.1429 95.1225ZM8.85714 6.95918C7.55812 6.95918 6.31231 7.47522 5.39376 8.39376C4.47522 9.31231 3.95918 10.5581 3.95918 11.8571V88.2653C3.95918 89.5643 4.47522 90.8101 5.39376 91.7287C6.31231 92.6472 7.55812 93.1633 8.85714 93.1633H91.1429C92.4419 93.1633 93.6877 92.6472 94.6062 91.7287C95.5248 90.8101 96.0408 89.5643 96.0408 88.2653V11.8571C96.0408 10.5581 95.5248 9.31231 94.6062 8.39376C93.6877 7.47522 92.4419 6.95918 91.1429 6.95918H8.85714Z" fill="#3C7CFF"/>
<path d="M97.0204 23.2889H2.97959C2.71979 23.2889 2.47063 23.1857 2.28692 23.002C2.10321 22.8183 2 22.5691 2 22.3093C2 22.0495 2.10321 21.8004 2.28692 21.6167C2.47063 21.433 2.71979 21.3297 2.97959 21.3297H97.0204C97.2802 21.3297 97.5294 21.433 97.7131 21.6167C97.8968 21.8004 98 22.0495 98 22.3093C98 22.5691 97.8968 22.8183 97.7131 23.002C97.5294 23.1857 97.2802 23.2889 97.0204 23.2889Z" fill="#3C7CFF"/>
<path d="M12.2073 15.1192H9.10202C8.84222 15.1192 8.59305 15.016 8.40935 14.8322C8.22564 14.6485 8.12243 14.3994 8.12243 14.1396C8.12243 13.8798 8.22564 13.6306 8.40935 13.4469C8.59305 13.2632 8.84222 13.16 9.10202 13.16H12.2073C12.4671 13.16 12.7163 13.2632 12.9 13.4469C13.0837 13.6306 13.1869 13.8798 13.1869 14.1396C13.1869 14.3994 13.0837 14.6485 12.9 14.8322C12.7163 15.016 12.4671 15.1192 12.2073 15.1192Z" fill="#3C7CFF"/>
<path d="M20.6905 15.1192H17.595C17.3352 15.1192 17.086 15.016 16.9023 14.8322C16.7186 14.6485 16.6154 14.3994 16.6154 14.1396C16.6154 13.8798 16.7186 13.6306 16.9023 13.4469C17.086 13.2632 17.3352 13.16 17.595 13.16H20.6905C20.9503 13.16 21.1995 13.2632 21.3832 13.4469C21.5669 13.6306 21.6701 13.8798 21.6701 14.1396C21.6701 14.3994 21.5669 14.6485 21.3832 14.8322C21.1995 15.016 20.9503 15.1192 20.6905 15.1192Z" fill="#3C7CFF"/>
<path d="M29.1841 15.1192H26.0788C25.8189 15.1192 25.5698 15.016 25.3861 14.8322C25.2024 14.6485 25.0992 14.3994 25.0992 14.1396C25.0992 13.8798 25.2024 13.6306 25.3861 13.4469C25.5698 13.2632 25.8189 13.16 26.0788 13.16H29.1841C29.4439 13.16 29.693 13.2632 29.8767 13.4469C30.0604 13.6306 30.1636 13.8798 30.1636 14.1396C30.1636 14.3994 30.0604 14.6485 29.8767 14.8322C29.693 15.016 29.4439 15.1192 29.1841 15.1192Z" fill="#3C7CFF"/>
<path d="M90.6532 15.1192H55.8777C55.6179 15.1192 55.3687 15.016 55.185 14.8322C55.0013 14.6485 54.8981 14.3994 54.8981 14.1396C54.8981 13.8798 55.0013 13.6306 55.185 13.4469C55.3687 13.2632 55.6179 13.16 55.8777 13.16H90.6532C90.913 13.16 91.1622 13.2632 91.3459 13.4469C91.5296 13.6306 91.6328 13.8798 91.6328 14.1396C91.6328 14.3994 91.5296 14.6485 91.3459 14.8322C91.1622 15.016 90.913 15.1192 90.6532 15.1192Z" fill="#3C7CFF"/>
<path d="M29.742 31.5665H9.10202C8.84222 31.5665 8.59305 31.4633 8.40935 31.2796C8.22564 31.0959 8.12243 30.8467 8.12243 30.5869C8.12243 30.3271 8.22564 30.0779 8.40935 29.8942C8.59305 29.7105 8.84222 29.6073 9.10202 29.6073H29.742C30.0018 29.6073 30.251 29.7105 30.4347 29.8942C30.6184 30.0779 30.7216 30.3271 30.7216 30.5869C30.7216 30.8467 30.6184 31.0959 30.4347 31.2796C30.251 31.4633 30.0018 31.5665 29.742 31.5665Z" fill="#3C7CFF"/>
<path d="M18.9371 37.3266H9.14119C8.88138 37.3266 8.63222 37.2234 8.44851 37.0396C8.2648 36.8559 8.16159 36.6068 8.16159 36.347C8.16159 36.0872 8.2648 35.838 8.44851 35.6543C8.63222 35.4706 8.88138 35.3674 9.14119 35.3674H18.9371C19.1969 35.3674 19.4461 35.4706 19.6298 35.6543C19.8135 35.838 19.9167 36.0872 19.9167 36.347C19.9167 36.6068 19.8135 36.8559 19.6298 37.0396C19.4461 37.2234 19.1969 37.3266 18.9371 37.3266Z" fill="#3C7CFF"/>
<path d="M25.1873 37.3266H22.8167C22.5568 37.3266 22.3077 37.2234 22.124 37.0396C21.9403 36.8559 21.8371 36.6068 21.8371 36.347C21.8371 36.0872 21.9403 35.838 22.124 35.6543C22.3077 35.4706 22.5568 35.3674 22.8167 35.3674H25.1873C25.4471 35.3674 25.6962 35.4706 25.8799 35.6543C26.0637 35.838 26.1669 36.0872 26.1669 36.347C26.1669 36.6068 26.0637 36.8559 25.8799 37.0396C25.6962 37.2234 25.4471 37.3266 25.1873 37.3266Z" fill="#3C7CFF"/>
<path d="M34.248 87.609C32.7388 87.5943 31.2499 87.2605 29.879 86.6294C29.7351 86.5641 29.6092 86.4649 29.512 86.3404C29.4148 86.2159 29.3491 86.0697 29.3206 85.9143C29.292 85.7576 29.302 85.5964 29.3498 85.4444C29.3976 85.2925 29.4818 85.1545 29.5949 85.0425L34.1304 80.507L33.8855 77.2841L30.6627 77.0294L26.1173 81.5747C26.0053 81.6879 25.8673 81.772 25.7154 81.8198C25.5635 81.8676 25.4022 81.8776 25.2455 81.849C25.0901 81.8205 24.9439 81.7548 24.8194 81.6576C24.6949 81.5604 24.5957 81.4345 24.5304 81.2906C23.6526 79.3112 23.3914 77.1132 23.7811 74.9831C24.1708 72.8531 25.1931 70.8899 26.7149 69.3494C28.1461 67.9046 29.962 66.9011 31.9469 66.4583C33.9318 66.0155 36.0021 66.1519 37.9116 66.8514L44.2986 60.4743C44.4821 60.2918 44.7304 60.1894 44.9892 60.1894C45.248 60.1894 45.4963 60.2918 45.6798 60.4743L50.6953 65.48C50.7871 65.5711 50.86 65.6794 50.9097 65.7988C50.9595 65.9182 50.9851 66.0462 50.9851 66.1755C50.9851 66.3048 50.9595 66.4329 50.9097 66.5523C50.86 66.6716 50.7871 66.78 50.6953 66.871L44.3084 73.2482C45.0116 75.1565 45.1509 77.2269 44.7097 79.2122C44.2685 81.1975 43.2654 83.014 41.8202 84.4449C39.8123 86.4571 37.0906 87.5944 34.248 87.609ZM32.0733 85.3265C33.6521 85.7375 35.3145 85.6967 36.8713 85.2089C38.428 84.721 39.8164 83.8057 40.8783 82.5672C41.9402 81.3287 42.6328 79.8168 42.8773 78.2038C43.1217 76.5908 42.9082 74.9416 42.261 73.4441C42.1839 73.2645 42.1622 73.0659 42.1989 72.8738C42.2355 72.6818 42.3288 72.5051 42.4667 72.3665L48.6186 66.2147L44.9941 62.5902L38.8422 68.7323C38.7029 68.8722 38.5244 68.9667 38.3304 69.0034C38.1364 69.0401 37.9358 69.0173 37.7549 68.938C36.2547 68.2873 34.6018 68.0713 32.9847 68.3144C31.3677 68.5574 29.8514 69.2499 28.6087 70.3129C27.3661 71.3758 26.447 72.7665 25.9563 74.3263C25.4656 75.8862 25.423 77.5526 25.8333 79.1355L29.5949 75.3641C29.6955 75.2634 29.8168 75.1857 29.9505 75.1367C30.0841 75.0876 30.2269 75.0683 30.3688 75.08L34.8749 75.4327C35.1095 75.451 35.3297 75.5531 35.4951 75.7204C35.6606 75.8876 35.7604 76.1089 35.7761 76.3437L36.119 80.84C36.1307 80.9819 36.1114 81.1246 36.0623 81.2583C36.0132 81.3919 35.9356 81.5133 35.8349 81.6139L32.0733 85.3265Z" fill="#3C7CFF"/>
<path d="M55.0154 62.1788C54.8865 62.1796 54.7587 62.1548 54.6394 62.1061C54.52 62.0573 54.4115 61.9855 54.3199 61.8947L49.3044 56.9184C49.1235 56.7359 49.0214 56.4897 49.0203 56.2327C49.0196 56.1038 49.0443 55.976 49.0931 55.8566C49.1418 55.7373 49.2136 55.6287 49.3044 55.5372L55.6914 49.0817C54.9943 47.1773 54.8582 45.1129 55.2993 43.1334C55.7403 41.154 56.7399 39.3427 58.1795 37.9143C59.7211 36.3942 61.6848 35.3736 63.8148 34.9857C65.9448 34.5978 68.1422 34.8605 70.1208 35.7396C70.2651 35.8053 70.3913 35.9051 70.4885 36.0303C70.5858 36.1555 70.6512 36.3025 70.6791 36.4586C70.7071 36.6146 70.6967 36.7752 70.6489 36.9264C70.6012 37.0776 70.5174 37.2149 70.4048 37.3266L65.8693 41.8621L66.124 45.0849L69.3371 45.3396L73.8824 40.7943C73.9945 40.6812 74.1324 40.5971 74.2844 40.5493C74.4363 40.5015 74.5976 40.4914 74.7542 40.52C74.9096 40.5485 75.0558 40.6142 75.1803 40.7114C75.3048 40.8087 75.404 40.9346 75.4693 41.0784C76.3429 43.0554 76.6016 45.2495 76.2121 47.3755C75.8225 49.5015 74.8026 51.4612 73.2848 53C71.8539 54.4453 70.0374 55.4483 68.0521 55.8895C66.0668 56.3307 63.9964 56.1914 62.0881 55.4882L55.711 61.8751C55.6211 61.9695 55.5132 62.0449 55.3938 62.0971C55.2744 62.1492 55.1458 62.177 55.0154 62.1788ZM51.3812 56.1935L55.0154 59.8572L61.1575 53.7053C61.2969 53.5654 61.4753 53.4709 61.6693 53.4342C61.8634 53.3975 62.064 53.4203 62.2448 53.4996C63.8488 54.2071 65.6296 54.4117 67.3522 54.0864C69.0748 53.7611 70.6583 52.9212 71.8938 51.6776C72.966 50.6003 73.7394 49.2624 74.1379 47.7957C74.5363 46.3289 74.5462 44.7836 74.1665 43.3119L70.4048 47.0833C70.3042 47.184 70.1829 47.2616 70.0492 47.3107C69.9156 47.3598 69.7728 47.3791 69.631 47.3674L65.1346 47.0147C64.9016 46.9967 64.6827 46.896 64.5174 46.7307C64.3521 46.5655 64.2514 46.3465 64.2334 46.1135L63.8808 41.6074C63.869 41.4655 63.8884 41.3228 63.9374 41.1891C63.9865 41.0555 64.0641 40.9341 64.1648 40.8335L67.9265 37.0327C66.3436 36.6207 64.6768 36.6623 63.1165 37.1527C61.5561 37.6431 60.1652 38.5626 59.1026 39.806C58.04 41.0494 57.3487 42.5667 57.1075 44.1844C56.8663 45.8021 57.085 47.455 57.7387 48.9543C57.8224 49.1376 57.8476 49.3422 57.8108 49.5403C57.774 49.7384 57.677 49.9203 57.533 50.0613L51.3812 56.1935Z" fill="#3C7CFF"/>
<path d="M65.7518 87.609C62.9148 87.6048 60.1939 86.482 58.1796 84.4841C56.7364 83.0519 55.7348 81.2354 55.2937 79.2506C54.8526 77.2658 54.9907 75.1961 55.6914 73.2874L37.9118 55.5078C36.0012 56.2049 33.9306 56.3391 31.946 55.8946C29.9613 55.4501 28.1458 54.4455 26.7151 53C25.1973 51.4612 24.1774 49.5015 23.7878 47.3755C23.3983 45.2495 23.6571 43.0554 24.5306 41.0784C24.5959 40.9346 24.6951 40.8087 24.8196 40.7114C24.9441 40.6142 25.0903 40.5485 25.2457 40.52C25.4024 40.4914 25.5636 40.5015 25.7155 40.5493C25.8675 40.5971 26.0054 40.6812 26.1175 40.7943L30.6628 45.3298L33.8857 45.0849L34.1306 41.8621L29.5951 37.3266C29.4825 37.2149 29.3987 37.0776 29.351 36.9264C29.3032 36.7752 29.2928 36.6146 29.3208 36.4586C29.3487 36.3025 29.4141 36.1555 29.5114 36.0303C29.6086 35.9051 29.7348 35.8053 29.8792 35.7396C31.8577 34.8605 34.0551 34.5978 36.1851 34.9857C38.3151 35.3736 40.2788 36.3942 41.8204 37.9143C43.2579 39.344 44.2562 41.1553 44.6971 43.1342C45.138 45.1132 45.0032 47.1769 44.3085 49.0817L62.0881 66.8906C63.9975 66.1899 66.0681 66.0528 68.0533 66.4957C70.0384 66.9386 71.8544 67.9427 73.2849 69.3886C74.8066 70.9291 75.829 72.8923 76.2187 75.0223C76.6083 77.1524 76.3472 79.3504 75.4694 81.3298C75.404 81.4737 75.3049 81.5996 75.1803 81.6968C75.0558 81.794 74.9096 81.8597 74.7543 81.8882C74.5976 81.9168 74.4363 81.9068 74.2844 81.859C74.1325 81.8112 73.9945 81.7271 73.8824 81.6139L69.3371 77.0686L66.1241 77.3233L65.8694 80.5462L70.4049 85.0817C70.518 85.1937 70.6021 85.3317 70.6499 85.4836C70.6977 85.6356 70.7077 85.7968 70.6792 85.9535C70.6506 86.1089 70.585 86.2551 70.4877 86.3796C70.3905 86.5041 70.2646 86.6033 70.1208 86.6686C68.7469 87.2862 67.2581 87.6066 65.7518 87.609ZM38.1469 53.3821C38.2758 53.3813 38.4036 53.406 38.523 53.4548C38.6423 53.5035 38.7509 53.5754 38.8424 53.6662L57.533 72.3666C57.6709 72.5051 57.7642 72.6818 57.8009 72.8738C57.8375 73.0659 57.8159 73.2645 57.7387 73.4441C57.0277 75.049 56.8212 76.8321 57.1466 78.5571C57.472 80.282 58.3139 81.8673 59.5608 83.1029C60.6431 84.1666 61.9831 84.9308 63.4497 85.3206C64.9162 85.7104 66.4589 85.7125 67.9265 85.3266L64.1649 81.5747C64.0641 81.4741 63.9865 81.3528 63.9375 81.2191C63.8884 81.0855 63.8691 80.9427 63.8808 80.8008L64.2334 76.2947C64.2514 76.0617 64.3522 75.8428 64.5174 75.6775C64.6827 75.5122 64.9016 75.4115 65.1347 75.3935L69.5918 75.08C69.7337 75.0683 69.8764 75.0876 70.0101 75.1367C70.1437 75.1858 70.2651 75.2634 70.3657 75.3641L74.1273 79.1355C74.5326 77.5573 74.488 75.897 73.9986 74.3428C73.5091 72.7885 72.5943 71.4023 71.3577 70.3411C70.1212 69.2799 68.6122 68.586 67.0017 68.338C65.3912 68.0901 63.7434 68.2979 62.2449 68.938C62.064 69.0173 61.8634 69.0401 61.6694 69.0034C61.4753 68.9667 61.2969 68.8722 61.1575 68.7323L42.4669 50.0613C42.327 49.9219 42.2325 49.7435 42.1958 49.5494C42.1591 49.3554 42.1819 49.1548 42.2612 48.9739C42.9802 47.3656 43.191 45.5762 42.8654 43.8449C42.5398 42.1135 41.6933 40.5229 40.4392 39.2857C39.3566 38.2218 38.0177 37.4554 36.5521 37.0607C35.0865 36.666 33.5439 36.6563 32.0734 37.0327L35.8351 40.7943C35.9345 40.8938 36.0113 41.0136 36.0604 41.1454C36.1094 41.2773 36.1294 41.4181 36.1192 41.5584L35.7763 46.0645C35.7583 46.2976 35.6576 46.5165 35.4923 46.6817C35.327 46.847 35.1081 46.9477 34.8751 46.9657L30.3689 47.3282C30.2271 47.3399 30.0843 47.3206 29.9507 47.2715C29.817 47.2225 29.6957 47.1449 29.5951 47.0441L25.8334 43.2727C25.4537 44.7444 25.4636 46.2897 25.862 47.7565C26.2605 49.2233 27.0339 50.5611 28.1061 51.6384C29.3401 52.8844 30.9237 53.7259 32.647 54.0513C34.3702 54.3767 36.1516 54.1707 37.7551 53.4604C37.8799 53.411 38.0126 53.3844 38.1469 53.3821Z" fill="#3C7CFF"/>
<path d="M91.1429 95.1225H8.85714C7.03852 95.1225 5.29437 94.4 4.00841 93.114C2.72245 91.8281 2 90.0839 2 88.2653V11.8571C2 10.0385 2.72245 8.29437 4.00841 7.00841C5.29437 5.72245 7.03852 5 8.85714 5H91.1429C92.9615 5 94.7056 5.72245 95.9916 7.00841C97.2775 8.29437 98 10.0385 98 11.8571V88.2653C98 90.0839 97.2775 91.8281 95.9916 93.114C94.7056 94.4 92.9615 95.1225 91.1429 95.1225ZM8.85714 6.95918C7.55812 6.95918 6.31231 7.47522 5.39376 8.39376C4.47522 9.31231 3.95918 10.5581 3.95918 11.8571V88.2653C3.95918 89.5643 4.47522 90.8101 5.39376 91.7287C6.31231 92.6472 7.55812 93.1633 8.85714 93.1633H91.1429C92.4419 93.1633 93.6877 92.6472 94.6062 91.7287C95.5248 90.8101 96.0408 89.5643 96.0408 88.2653V11.8571C96.0408 10.5581 95.5248 9.31231 94.6062 8.39376C93.6877 7.47522 92.4419 6.95918 91.1429 6.95918H8.85714Z" stroke="#3C7CFF" mask="url(#path-1-outside-1_192_1192)"/>
<path d="M97.0204 23.2889H2.97959C2.71979 23.2889 2.47063 23.1857 2.28692 23.002C2.10321 22.8183 2 22.5691 2 22.3093C2 22.0495 2.10321 21.8004 2.28692 21.6167C2.47063 21.433 2.71979 21.3297 2.97959 21.3297H97.0204C97.2802 21.3297 97.5294 21.433 97.7131 21.6167C97.8968 21.8004 98 22.0495 98 22.3093C98 22.5691 97.8968 22.8183 97.7131 23.002C97.5294 23.1857 97.2802 23.2889 97.0204 23.2889Z" stroke="#3C7CFF" mask="url(#path-1-outside-1_192_1192)"/>
<path d="M12.2073 15.1192H9.10202C8.84222 15.1192 8.59305 15.016 8.40935 14.8322C8.22564 14.6485 8.12243 14.3994 8.12243 14.1396C8.12243 13.8798 8.22564 13.6306 8.40935 13.4469C8.59305 13.2632 8.84222 13.16 9.10202 13.16H12.2073C12.4671 13.16 12.7163 13.2632 12.9 13.4469C13.0837 13.6306 13.1869 13.8798 13.1869 14.1396C13.1869 14.3994 13.0837 14.6485 12.9 14.8322C12.7163 15.016 12.4671 15.1192 12.2073 15.1192Z" stroke="#3C7CFF" mask="url(#path-1-outside-1_192_1192)"/>
<path d="M20.6905 15.1192H17.595C17.3352 15.1192 17.086 15.016 16.9023 14.8322C16.7186 14.6485 16.6154 14.3994 16.6154 14.1396C16.6154 13.8798 16.7186 13.6306 16.9023 13.4469C17.086 13.2632 17.3352 13.16 17.595 13.16H20.6905C20.9503 13.16 21.1995 13.2632 21.3832 13.4469C21.5669 13.6306 21.6701 13.8798 21.6701 14.1396C21.6701 14.3994 21.5669 14.6485 21.3832 14.8322C21.1995 15.016 20.9503 15.1192 20.6905 15.1192Z" stroke="#3C7CFF" mask="url(#path-1-outside-1_192_1192)"/>
<path d="M29.1841 15.1192H26.0788C25.8189 15.1192 25.5698 15.016 25.3861 14.8322C25.2024 14.6485 25.0992 14.3994 25.0992 14.1396C25.0992 13.8798 25.2024 13.6306 25.3861 13.4469C25.5698 13.2632 25.8189 13.16 26.0788 13.16H29.1841C29.4439 13.16 29.693 13.2632 29.8767 13.4469C30.0604 13.6306 30.1636 13.8798 30.1636 14.1396C30.1636 14.3994 30.0604 14.6485 29.8767 14.8322C29.693 15.016 29.4439 15.1192 29.1841 15.1192Z" stroke="#3C7CFF" mask="url(#path-1-outside-1_192_1192)"/>
<path d="M90.6532 15.1192H55.8777C55.6179 15.1192 55.3687 15.016 55.185 14.8322C55.0013 14.6485 54.8981 14.3994 54.8981 14.1396C54.8981 13.8798 55.0013 13.6306 55.185 13.4469C55.3687 13.2632 55.6179 13.16 55.8777 13.16H90.6532C90.913 13.16 91.1622 13.2632 91.3459 13.4469C91.5296 13.6306 91.6328 13.8798 91.6328 14.1396C91.6328 14.3994 91.5296 14.6485 91.3459 14.8322C91.1622 15.016 90.913 15.1192 90.6532 15.1192Z" stroke="#3C7CFF" mask="url(#path-1-outside-1_192_1192)"/>
<path d="M29.742 31.5665H9.10202C8.84222 31.5665 8.59305 31.4633 8.40935 31.2796C8.22564 31.0959 8.12243 30.8467 8.12243 30.5869C8.12243 30.3271 8.22564 30.0779 8.40935 29.8942C8.59305 29.7105 8.84222 29.6073 9.10202 29.6073H29.742C30.0018 29.6073 30.251 29.7105 30.4347 29.8942C30.6184 30.0779 30.7216 30.3271 30.7216 30.5869C30.7216 30.8467 30.6184 31.0959 30.4347 31.2796C30.251 31.4633 30.0018 31.5665 29.742 31.5665Z" stroke="#3C7CFF" mask="url(#path-1-outside-1_192_1192)"/>
<path d="M18.9371 37.3266H9.14119C8.88138 37.3266 8.63222 37.2234 8.44851 37.0396C8.2648 36.8559 8.16159 36.6068 8.16159 36.347C8.16159 36.0872 8.2648 35.838 8.44851 35.6543C8.63222 35.4706 8.88138 35.3674 9.14119 35.3674H18.9371C19.1969 35.3674 19.4461 35.4706 19.6298 35.6543C19.8135 35.838 19.9167 36.0872 19.9167 36.347C19.9167 36.6068 19.8135 36.8559 19.6298 37.0396C19.4461 37.2234 19.1969 37.3266 18.9371 37.3266Z" stroke="#3C7CFF" mask="url(#path-1-outside-1_192_1192)"/>
<path d="M25.1873 37.3266H22.8167C22.5568 37.3266 22.3077 37.2234 22.124 37.0396C21.9403 36.8559 21.8371 36.6068 21.8371 36.347C21.8371 36.0872 21.9403 35.838 22.124 35.6543C22.3077 35.4706 22.5568 35.3674 22.8167 35.3674H25.1873C25.4471 35.3674 25.6962 35.4706 25.8799 35.6543C26.0637 35.838 26.1669 36.0872 26.1669 36.347C26.1669 36.6068 26.0637 36.8559 25.8799 37.0396C25.6962 37.2234 25.4471 37.3266 25.1873 37.3266Z" stroke="#3C7CFF" mask="url(#path-1-outside-1_192_1192)"/>
<path d="M34.248 87.609C32.7388 87.5943 31.2499 87.2605 29.879 86.6294C29.7351 86.5641 29.6092 86.4649 29.512 86.3404C29.4148 86.2159 29.3491 86.0697 29.3206 85.9143C29.292 85.7576 29.302 85.5964 29.3498 85.4444C29.3976 85.2925 29.4818 85.1545 29.5949 85.0425L34.1304 80.507L33.8855 77.2841L30.6627 77.0294L26.1173 81.5747C26.0053 81.6879 25.8673 81.772 25.7154 81.8198C25.5635 81.8676 25.4022 81.8776 25.2455 81.849C25.0901 81.8205 24.9439 81.7548 24.8194 81.6576C24.6949 81.5604 24.5957 81.4345 24.5304 81.2906C23.6526 79.3112 23.3914 77.1132 23.7811 74.9831C24.1708 72.8531 25.1931 70.8899 26.7149 69.3494C28.1461 67.9046 29.962 66.9011 31.9469 66.4583C33.9318 66.0155 36.0021 66.1519 37.9116 66.8514L44.2986 60.4743C44.4821 60.2918 44.7304 60.1894 44.9892 60.1894C45.248 60.1894 45.4963 60.2918 45.6798 60.4743L50.6953 65.48C50.7871 65.5711 50.86 65.6794 50.9097 65.7988C50.9595 65.9182 50.9851 66.0462 50.9851 66.1755C50.9851 66.3048 50.9595 66.4329 50.9097 66.5523C50.86 66.6716 50.7871 66.78 50.6953 66.871L44.3084 73.2482C45.0116 75.1565 45.1509 77.2269 44.7097 79.2122C44.2685 81.1975 43.2654 83.014 41.8202 84.4449C39.8123 86.4571 37.0906 87.5944 34.248 87.609ZM32.0733 85.3265C33.6521 85.7375 35.3145 85.6967 36.8713 85.2089C38.428 84.721 39.8164 83.8057 40.8783 82.5672C41.9402 81.3287 42.6328 79.8168 42.8773 78.2038C43.1217 76.5908 42.9082 74.9416 42.261 73.4441C42.1839 73.2645 42.1622 73.0659 42.1989 72.8738C42.2355 72.6818 42.3288 72.5051 42.4667 72.3665L48.6186 66.2147L44.9941 62.5902L38.8422 68.7323C38.7029 68.8722 38.5244 68.9667 38.3304 69.0034C38.1364 69.0401 37.9358 69.0173 37.7549 68.938C36.2547 68.2873 34.6018 68.0713 32.9847 68.3144C31.3677 68.5574 29.8514 69.2499 28.6087 70.3129C27.3661 71.3758 26.447 72.7665 25.9563 74.3263C25.4656 75.8862 25.423 77.5526 25.8333 79.1355L29.5949 75.3641C29.6955 75.2634 29.8168 75.1857 29.9505 75.1367C30.0841 75.0876 30.2269 75.0683 30.3688 75.08L34.8749 75.4327C35.1095 75.451 35.3297 75.5531 35.4951 75.7204C35.6606 75.8876 35.7604 76.1089 35.7761 76.3437L36.119 80.84C36.1307 80.9819 36.1114 81.1246 36.0623 81.2583C36.0132 81.3919 35.9356 81.5133 35.8349 81.6139L32.0733 85.3265Z" stroke="#3C7CFF" mask="url(#path-1-outside-1_192_1192)"/>
<path d="M55.0154 62.1788C54.8865 62.1796 54.7587 62.1548 54.6394 62.1061C54.52 62.0573 54.4115 61.9855 54.3199 61.8947L49.3044 56.9184C49.1235 56.7359 49.0214 56.4897 49.0203 56.2327C49.0196 56.1038 49.0443 55.976 49.0931 55.8566C49.1418 55.7373 49.2136 55.6287 49.3044 55.5372L55.6914 49.0817C54.9943 47.1773 54.8582 45.1129 55.2993 43.1334C55.7403 41.154 56.7399 39.3427 58.1795 37.9143C59.7211 36.3942 61.6848 35.3736 63.8148 34.9857C65.9448 34.5978 68.1422 34.8605 70.1208 35.7396C70.2651 35.8053 70.3913 35.9051 70.4885 36.0303C70.5858 36.1555 70.6512 36.3025 70.6791 36.4586C70.7071 36.6146 70.6967 36.7752 70.6489 36.9264C70.6012 37.0776 70.5174 37.2149 70.4048 37.3266L65.8693 41.8621L66.124 45.0849L69.3371 45.3396L73.8824 40.7943C73.9945 40.6812 74.1324 40.5971 74.2844 40.5493C74.4363 40.5015 74.5976 40.4914 74.7542 40.52C74.9096 40.5485 75.0558 40.6142 75.1803 40.7114C75.3048 40.8087 75.404 40.9346 75.4693 41.0784C76.3429 43.0554 76.6016 45.2495 76.2121 47.3755C75.8225 49.5015 74.8026 51.4612 73.2848 53C71.8539 54.4453 70.0374 55.4483 68.0521 55.8895C66.0668 56.3307 63.9964 56.1914 62.0881 55.4882L55.711 61.8751C55.6211 61.9695 55.5132 62.0449 55.3938 62.0971C55.2744 62.1492 55.1458 62.177 55.0154 62.1788ZM51.3812 56.1935L55.0154 59.8572L61.1575 53.7053C61.2969 53.5654 61.4753 53.4709 61.6693 53.4342C61.8634 53.3975 62.064 53.4203 62.2448 53.4996C63.8488 54.2071 65.6296 54.4117 67.3522 54.0864C69.0748 53.7611 70.6583 52.9212 71.8938 51.6776C72.966 50.6003 73.7394 49.2624 74.1379 47.7957C74.5363 46.3289 74.5462 44.7836 74.1665 43.3119L70.4048 47.0833C70.3042 47.184 70.1829 47.2616 70.0492 47.3107C69.9156 47.3598 69.7728 47.3791 69.631 47.3674L65.1346 47.0147C64.9016 46.9967 64.6827 46.896 64.5174 46.7307C64.3521 46.5655 64.2514 46.3465 64.2334 46.1135L63.8808 41.6074C63.869 41.4655 63.8884 41.3228 63.9374 41.1891C63.9865 41.0555 64.0641 40.9341 64.1648 40.8335L67.9265 37.0327C66.3436 36.6207 64.6768 36.6623 63.1165 37.1527C61.5561 37.6431 60.1652 38.5626 59.1026 39.806C58.04 41.0494 57.3487 42.5667 57.1075 44.1844C56.8663 45.8021 57.085 47.455 57.7387 48.9543C57.8224 49.1376 57.8476 49.3422 57.8108 49.5403C57.774 49.7384 57.677 49.9203 57.533 50.0613L51.3812 56.1935Z" stroke="#3C7CFF" mask="url(#path-1-outside-1_192_1192)"/>
<path d="M65.7518 87.609C62.9148 87.6048 60.1939 86.482 58.1796 84.4841C56.7364 83.0519 55.7348 81.2354 55.2937 79.2506C54.8526 77.2658 54.9907 75.1961 55.6914 73.2874L37.9118 55.5078C36.0012 56.2049 33.9306 56.3391 31.946 55.8946C29.9613 55.4501 28.1458 54.4455 26.7151 53C25.1973 51.4612 24.1774 49.5015 23.7878 47.3755C23.3983 45.2495 23.6571 43.0554 24.5306 41.0784C24.5959 40.9346 24.6951 40.8087 24.8196 40.7114C24.9441 40.6142 25.0903 40.5485 25.2457 40.52C25.4024 40.4914 25.5636 40.5015 25.7155 40.5493C25.8675 40.5971 26.0054 40.6812 26.1175 40.7943L30.6628 45.3298L33.8857 45.0849L34.1306 41.8621L29.5951 37.3266C29.4825 37.2149 29.3987 37.0776 29.351 36.9264C29.3032 36.7752 29.2928 36.6146 29.3208 36.4586C29.3487 36.3025 29.4141 36.1555 29.5114 36.0303C29.6086 35.9051 29.7348 35.8053 29.8792 35.7396C31.8577 34.8605 34.0551 34.5978 36.1851 34.9857C38.3151 35.3736 40.2788 36.3942 41.8204 37.9143C43.2579 39.344 44.2562 41.1553 44.6971 43.1342C45.138 45.1132 45.0032 47.1769 44.3085 49.0817L62.0881 66.8906C63.9975 66.1899 66.0681 66.0528 68.0533 66.4957C70.0384 66.9386 71.8544 67.9427 73.2849 69.3886C74.8066 70.9291 75.829 72.8923 76.2187 75.0223C76.6083 77.1524 76.3472 79.3504 75.4694 81.3298C75.404 81.4737 75.3049 81.5996 75.1803 81.6968C75.0558 81.794 74.9096 81.8597 74.7543 81.8882C74.5976 81.9168 74.4363 81.9068 74.2844 81.859C74.1325 81.8112 73.9945 81.7271 73.8824 81.6139L69.3371 77.0686L66.1241 77.3233L65.8694 80.5462L70.4049 85.0817C70.518 85.1937 70.6021 85.3317 70.6499 85.4836C70.6977 85.6356 70.7077 85.7968 70.6792 85.9535C70.6506 86.1089 70.585 86.2551 70.4877 86.3796C70.3905 86.5041 70.2646 86.6033 70.1208 86.6686C68.7469 87.2862 67.2581 87.6066 65.7518 87.609ZM38.1469 53.3821C38.2758 53.3813 38.4036 53.406 38.523 53.4548C38.6423 53.5035 38.7509 53.5754 38.8424 53.6662L57.533 72.3666C57.6709 72.5051 57.7642 72.6818 57.8009 72.8738C57.8375 73.0659 57.8159 73.2645 57.7387 73.4441C57.0277 75.049 56.8212 76.8321 57.1466 78.5571C57.472 80.282 58.3139 81.8673 59.5608 83.1029C60.6431 84.1666 61.9831 84.9308 63.4497 85.3206C64.9162 85.7104 66.4589 85.7125 67.9265 85.3266L64.1649 81.5747C64.0641 81.4741 63.9865 81.3528 63.9375 81.2191C63.8884 81.0855 63.8691 80.9427 63.8808 80.8008L64.2334 76.2947C64.2514 76.0617 64.3522 75.8428 64.5174 75.6775C64.6827 75.5122 64.9016 75.4115 65.1347 75.3935L69.5918 75.08C69.7337 75.0683 69.8764 75.0876 70.0101 75.1367C70.1437 75.1858 70.2651 75.2634 70.3657 75.3641L74.1273 79.1355C74.5326 77.5573 74.488 75.897 73.9986 74.3428C73.5091 72.7885 72.5943 71.4023 71.3577 70.3411C70.1212 69.2799 68.6122 68.586 67.0017 68.338C65.3912 68.0901 63.7434 68.2979 62.2449 68.938C62.064 69.0173 61.8634 69.0401 61.6694 69.0034C61.4753 68.9667 61.2969 68.8722 61.1575 68.7323L42.4669 50.0613C42.327 49.9219 42.2325 49.7435 42.1958 49.5494C42.1591 49.3554 42.1819 49.1548 42.2612 48.9739C42.9802 47.3656 43.191 45.5762 42.8654 43.8449C42.5398 42.1135 41.6933 40.5229 40.4392 39.2857C39.3566 38.2218 38.0177 37.4554 36.5521 37.0607C35.0865 36.666 33.5439 36.6563 32.0734 37.0327L35.8351 40.7943C35.9345 40.8938 36.0113 41.0136 36.0604 41.1454C36.1094 41.2773 36.1294 41.4181 36.1192 41.5584L35.7763 46.0645C35.7583 46.2976 35.6576 46.5165 35.4923 46.6817C35.327 46.847 35.1081 46.9477 34.8751 46.9657L30.3689 47.3282C30.2271 47.3399 30.0843 47.3206 29.9507 47.2715C29.817 47.2225 29.6957 47.1449 29.5951 47.0441L25.8334 43.2727C25.4537 44.7444 25.4636 46.2897 25.862 47.7565C26.2605 49.2233 27.0339 50.5611 28.1061 51.6384C29.3401 52.8844 30.9237 53.7259 32.647 54.0513C34.3702 54.3767 36.1516 54.1707 37.7551 53.4604C37.8799 53.411 38.0126 53.3844 38.1469 53.3821Z" stroke="#3C7CFF" mask="url(#path-1-outside-1_192_1192)"/>
</svg>
