<svg width="100" height="100" viewBox="0 0 100 100" fill="none" xmlns="http://www.w3.org/2000/svg">
<path d="M69.0168 71.125H60.4517C59.5884 71.125 58.8892 70.4258 58.8892 69.5625C58.8892 68.6992 59.5884 68 60.4517 68H69.0168C70.0395 68 70.8716 67.1608 70.8716 66.1289C70.8716 65.097 70.0395 64.2578 69.0168 64.2578H52.561C51.6978 64.2578 50.9985 63.5586 50.9985 62.6953C50.9985 61.832 51.6978 61.1328 52.561 61.1328H69.0168C71.7629 61.1328 73.9966 63.3743 73.9966 66.1289C73.9966 68.8835 71.7629 71.125 69.0168 71.125Z" fill="#3C7CFF"/>
<path d="M70.1808 77.9928H60.4517C59.5884 77.9928 58.8892 77.2936 58.8892 76.4303C58.8892 75.567 59.5884 74.8678 60.4517 74.8678H70.1808C71.2036 74.8678 72.0356 74.0286 72.0356 72.9967C72.0356 71.9648 71.2036 71.1256 70.1808 71.1256H60.4517C59.5884 71.1256 58.8892 70.4264 58.8892 69.5631C58.8892 68.6998 59.5884 68.0006 60.4517 68.0006H70.1808C72.9269 68.0006 75.1606 70.2422 75.1606 72.9967C75.1606 75.7513 72.9263 77.9928 70.1808 77.9928Z" fill="#3C7CFF"/>
<path d="M68.5073 84.86H60.2007C59.3374 84.86 58.6382 84.1608 58.6382 83.2975C58.6382 82.4342 59.3374 81.735 60.2007 81.735H68.5073C69.5301 81.735 70.3621 80.8958 70.3621 79.8639C70.3621 78.832 69.5301 77.9928 68.5073 77.9928H60.4526C59.5894 77.9928 58.8901 77.2936 58.8901 76.4303C58.8901 75.567 59.5894 74.8678 60.4526 74.8678H68.5073C71.2534 74.8678 73.4871 77.1093 73.4871 79.8639C73.4871 82.6184 71.2528 84.86 68.5073 84.86Z" fill="#3C7CFF"/>
<path d="M65.3242 91.7272H35.8047C34.9414 91.7272 34.2422 91.028 34.2422 90.1647C34.2422 89.3014 34.9414 88.6022 35.8047 88.6022H65.3242C66.347 88.6022 67.179 87.763 67.179 86.7311C67.179 85.6992 66.347 84.86 65.3242 84.86H60.2005C59.3372 84.86 58.638 84.1608 58.638 83.2975C58.638 82.4342 59.3372 81.735 60.2005 81.735H65.3242C68.0703 81.735 70.304 83.9765 70.304 86.7311C70.304 89.4856 68.0697 91.7272 65.3242 91.7272Z" fill="#3C7CFF"/>
<path d="M52.5626 64.2585C52.4402 64.2585 52.3165 64.2441 52.1922 64.2135C51.3537 64.0098 50.8393 63.1647 51.0431 62.3262L51.9695 58.5137C52.5392 56.1699 52.5932 53.7174 52.1258 51.4219C51.6251 48.9622 50.6746 47.196 49.2996 46.1719C48.6596 45.6953 47.8517 45.6289 47.1382 45.9954C46.4168 46.3659 45.9949 47.0703 46.0099 47.8789C46.0822 51.7838 45.6824 59.0234 42.1941 63.6374C41.674 64.3255 40.6941 64.4616 40.0053 63.9414C39.3172 63.4212 39.1811 62.4407 39.7013 61.7526C42.6225 57.8887 42.95 51.4381 42.8856 47.9368C42.8484 45.9388 43.9311 44.1296 45.7104 43.2155C47.4819 42.306 49.5724 42.4779 51.1662 43.666C53.1759 45.1634 54.5288 47.5631 55.1876 50.7988C55.7456 53.5417 55.6831 56.4648 55.006 59.2519L54.0796 63.0644C53.9064 63.7786 53.2671 64.2585 52.5626 64.2585Z" fill="#3C7CFF"/>
<path d="M35.8049 93.2578H26.4019C25.5386 93.2578 24.8394 92.5586 24.8394 91.6953V61.1647C24.8394 60.3014 25.5386 59.6022 26.4019 59.6022H35.8049C36.6681 59.6022 37.3674 60.3014 37.3674 61.1647V91.6953C37.3674 92.5586 36.6681 93.2578 35.8049 93.2578ZM27.9644 90.1328H34.2424V62.7272H27.9644V90.1328Z" fill="#3C7CFF"/>
<path d="M40.9479 64.2578H35.8047C34.9414 64.2578 34.2422 63.5586 34.2422 62.6953C34.2422 61.832 34.9414 61.1328 35.8047 61.1328H40.9479C41.8112 61.1328 42.5104 61.832 42.5104 62.6953C42.5104 63.5586 41.8112 64.2578 40.9479 64.2578Z" fill="#3C7CFF"/>
<path d="M98.4375 38.3438H1.5625C0.699219 38.3438 0 37.6445 0 36.7813V7.5625C0 6.69922 0.699219 6 1.5625 6H98.4375C99.3008 6 100 6.69922 100 7.5625V36.7813C100 37.6445 99.3008 38.3438 98.4375 38.3438ZM3.125 35.2188H96.875V9.125H3.125V35.2188Z" fill="#3C7CFF"/>
<path d="M28.7862 32.625C28.5193 32.625 28.2524 32.5567 28.0108 32.4193L23.0089 29.5599L18.0069 32.4193C17.4731 32.7246 16.8103 32.6882 16.3129 32.3269C15.8155 31.9655 15.5766 31.3464 15.7016 30.7448L16.8748 25.1042L12.6098 21.2305C12.1547 20.8171 11.9842 20.1758 12.1743 19.5912C12.3644 19.0066 12.8793 18.5879 13.49 18.5209L19.2172 17.8939L21.5838 12.6407C21.8364 12.0801 22.3937 11.7201 23.0082 11.7201C23.6228 11.7201 24.1808 12.0808 24.4327 12.6407L26.7993 17.8939L32.5265 18.5209C33.1378 18.5879 33.6521 19.0066 33.8422 19.5912C34.0323 20.1758 33.8618 20.8171 33.4067 21.2305L29.1417 25.1042L30.3149 30.7448C30.4399 31.3464 30.201 31.9662 29.7036 32.3269C29.4327 32.5248 29.1098 32.625 28.7862 32.625ZM23.0089 26.198C23.2765 26.198 23.5441 26.2663 23.7843 26.4037L26.5499 27.9844L25.9008 24.8653C25.7882 24.3236 25.9705 23.7624 26.38 23.3907L28.7381 21.2487L25.5707 20.9017C25.0206 20.8418 24.5434 20.4948 24.3162 19.9903L23.0076 17.0853L21.699 19.9903C21.4718 20.4948 20.9946 20.8418 20.4444 20.9017L17.2771 21.2487L19.6352 23.3907C20.0447 23.7631 20.227 24.3236 20.1144 24.8653L19.4653 27.9844L22.2309 26.4037C22.4737 26.2663 22.7413 26.198 23.0089 26.198Z" fill="#3C7CFF"/>
<path d="M55.7775 32.625C55.5105 32.625 55.2436 32.5567 55.0021 32.4193L50.0001 29.5599L44.9982 32.4193C44.4643 32.7246 43.8015 32.6882 43.3041 32.3269C42.8067 31.9655 42.5678 31.3464 42.6928 30.7448L43.866 25.1042L39.601 21.2305C39.1459 20.8171 38.9754 20.1758 39.1655 19.5912C39.3556 19.0066 39.8705 18.5879 40.4812 18.5209L46.2084 17.8939L48.575 12.6407C48.8276 12.0801 49.3849 11.7201 49.9995 11.7201C50.614 11.7201 51.1713 12.0808 51.4239 12.6407L53.7905 17.8939L59.5177 18.5209C60.129 18.5879 60.644 19.0066 60.8334 19.5912C61.0235 20.1758 60.853 20.8171 60.3979 21.2305L56.1329 25.1042L57.3061 30.7455C57.4311 31.347 57.1922 31.9668 56.6948 32.3275C56.4233 32.5248 56.101 32.625 55.7775 32.625ZM50.0001 26.198C50.2677 26.198 50.5353 26.2663 50.7755 26.4037L53.5411 27.9844L52.892 24.8653C52.7794 24.3236 52.9617 23.7624 53.3712 23.3907L55.7293 21.2487L52.562 20.9017C52.0118 20.8418 51.5346 20.4948 51.3074 19.9903L49.9988 17.0853L48.6902 19.9903C48.463 20.4948 47.9858 20.8418 47.4357 20.9017L44.2683 21.2487L46.6264 23.3907C47.0359 23.7631 47.2182 24.3236 47.1056 24.8653L46.4565 27.9844L49.2221 26.4037C49.4649 26.2663 49.7325 26.198 50.0001 26.198Z" fill="#3C7CFF"/>
<path d="M82.7682 32.625C82.5012 32.625 82.2343 32.5567 81.9928 32.4193L76.9908 29.5599L71.9889 32.4193C71.455 32.7246 70.7923 32.6882 70.2949 32.3269C69.7975 31.9655 69.5585 31.3464 69.6835 30.7448L70.8567 25.1042L66.5917 21.2305C66.1367 20.8171 65.9661 20.1758 66.1562 19.5912C66.3463 19.0066 66.8613 18.5879 67.4719 18.5209L73.1992 17.8939L75.5657 12.6407C75.8183 12.0801 76.3756 11.7201 76.9902 11.7201C77.6048 11.7201 78.1627 12.0808 78.4147 12.6407L80.7812 17.8939L86.5084 18.5209C87.1197 18.5879 87.6347 19.0066 87.8242 19.5912C88.0143 20.1758 87.8437 20.8171 87.3886 21.2305L83.1236 25.1042L84.2968 30.7455C84.4218 31.347 84.1829 31.9668 83.6855 32.3275C83.414 32.5248 83.0917 32.625 82.7682 32.625ZM76.9908 26.198C77.2584 26.198 77.526 26.2663 77.7662 26.4037L80.5318 27.9844L79.8828 24.8653C79.7701 24.3236 79.9524 23.7624 80.3619 23.3907L82.72 21.2487L79.5527 20.9017C79.0026 20.8418 78.5253 20.4948 78.2981 19.9903L76.9895 17.0853L75.6809 19.9903C75.4537 20.4948 74.9765 20.8418 74.4264 20.9017L71.2591 21.2487L73.6171 23.3907C74.0266 23.7631 74.2089 24.3236 74.0963 24.8653L73.4472 27.9844L76.2128 26.4037C76.4557 26.2663 76.7232 26.198 76.9908 26.198Z" fill="#3C7CFF"/>
</svg>
