<svg width="100" height="100" viewBox="0 0 100 100" fill="none" xmlns="http://www.w3.org/2000/svg">
<path d="M85.7579 88.2085V1.66667C85.7579 0.745834 85.0121 0 84.0912 0H29C28.5584 0 28.1334 0.174997 27.8208 0.487499L4.4875 23.8208C4.175 24.1333 4 24.5583 4 25V88.2086C4 89.1294 4.74583 89.8752 5.66667 89.8752H84.0912C85.012 89.8752 85.7579 89.1294 85.7579 88.2085ZM27.3334 5.69227V18.3344C27.3334 21.0927 25.0917 23.3344 22.3334 23.3344H9.69123L27.3334 5.69227ZM82.4246 86.5424H7.33337V26.6672H22.3328C26.9287 26.6672 30.6662 22.9297 30.6662 18.3339V3.3344H82.4208L82.4246 86.5424Z" fill="#3C7CFF"/>
<path d="M94.2167 10.1253C93.2959 10.1253 92.5501 10.8711 92.5501 11.792V96.6666H15.7917C14.8708 96.6666 14.125 97.4125 14.125 98.3333C14.125 99.2541 14.8708 100 15.7917 100H94.2162C95.137 100 95.8829 99.2541 95.8829 98.3333V11.7914C95.8829 10.8706 95.1376 10.1253 94.2167 10.1253Z" fill="#3C7CFF"/>
<path d="M30.9122 36.3761L23.7955 40.6469C22.758 39.7011 21.3913 39.1053 19.8788 39.1053C16.6622 39.1053 14.0454 41.7219 14.0454 44.9387C14.0454 48.1554 16.662 50.7721 19.8788 50.7721C23.0955 50.7721 25.7122 48.1554 25.7122 44.9387C25.7122 44.4387 25.6288 43.9637 25.5122 43.5011L32.6289 39.2303C33.6664 40.1761 35.033 40.7719 36.5456 40.7719C38.0581 40.7719 39.4247 40.1803 40.4623 39.2303L47.579 43.5011C47.4623 43.9636 47.379 44.4386 47.379 44.9387C47.379 48.1553 49.9956 50.7721 53.2123 50.7721C56.4291 50.7721 59.0457 48.1554 59.0457 44.9387C59.0457 43.9387 58.7707 43.0095 58.3207 42.1845L67.1207 33.3804C67.9457 33.8262 68.8749 34.1054 69.8749 34.1054C73.0915 34.1054 75.7083 31.4887 75.7083 28.272C75.7083 25.0552 73.0916 22.4386 69.8749 22.4386C66.6581 22.4386 64.0415 25.0552 64.0415 28.272C64.0415 29.272 64.3165 30.2012 64.7623 31.0261L55.9581 39.8303C55.1331 39.3844 54.204 39.1053 53.204 39.1053C51.6915 39.1053 50.3249 39.6969 49.2873 40.6469L42.1706 36.3761C42.2873 35.9136 42.3706 35.4386 42.3706 34.9386C42.3706 31.7219 39.754 29.1052 36.5372 29.1052C33.3205 29.1052 30.7039 31.7218 30.7039 34.9386C30.7039 35.4386 30.7872 35.9136 30.9039 36.3761H30.9122ZM19.8786 47.4385C18.4994 47.4385 17.3785 46.3177 17.3785 44.9385C17.3785 43.5593 18.4994 42.4384 19.8786 42.4384C21.2578 42.4384 22.3786 43.5593 22.3786 44.9385C22.3786 46.3177 21.2578 47.4385 19.8786 47.4385ZM69.8786 25.7724C71.2578 25.7724 72.3786 26.8932 72.3786 28.2724C72.3786 29.6516 71.2578 30.7725 69.8786 30.7725C68.4994 30.7725 67.3785 29.6516 67.3785 28.2724C67.3785 26.8932 68.4994 25.7724 69.8786 25.7724ZM53.2119 42.439C54.5911 42.439 55.712 43.5599 55.712 44.9391C55.712 46.3183 54.5911 47.4391 53.2119 47.4391C51.8327 47.4391 50.7119 46.3183 50.7119 44.9391C50.7119 43.5599 51.8327 42.439 53.2119 42.439ZM36.5453 32.439C37.9245 32.439 39.0453 33.5599 39.0453 34.9391C39.0453 36.3183 37.9245 37.4391 36.5453 37.4391C35.1661 37.4391 34.0452 36.3183 34.0452 34.9391C34.0452 33.5599 35.1661 32.439 36.5453 32.439Z" fill="#3C7CFF"/>
<path d="M74.046 57.6592H26.4919C25.571 57.6592 24.8252 58.405 24.8252 59.3258C24.8252 60.2467 25.571 60.9925 26.4919 60.9925H74.046C74.9668 60.9925 75.7127 60.2467 75.7127 59.3258C75.7127 58.405 74.9668 57.6592 74.046 57.6592Z" fill="#3C7CFF"/>
<path d="M17.3337 60.9925H19.8795C20.8003 60.9925 21.5461 60.2467 21.5461 59.3258C21.5461 58.405 20.8003 57.6592 19.8795 57.6592H17.3337C16.4128 57.6592 15.667 58.405 15.667 59.3258C15.667 60.2467 16.4128 60.9925 17.3337 60.9925Z" fill="#3C7CFF"/>
<path d="M74.046 66.7675H26.4919C25.571 66.7675 24.8252 67.5133 24.8252 68.4341C24.8252 69.355 25.571 70.1008 26.4919 70.1008H74.046C74.9668 70.1008 75.7127 69.355 75.7127 68.4341C75.7127 67.5133 74.9668 66.7675 74.046 66.7675Z" fill="#3C7CFF"/>
<path d="M17.3337 70.1008H19.8795C20.8003 70.1008 21.5461 69.355 21.5461 68.4341C21.5461 67.5133 20.8003 66.7675 19.8795 66.7675H17.3337C16.4128 66.7675 15.667 67.5133 15.667 68.4341C15.667 69.355 16.4128 70.1008 17.3337 70.1008Z" fill="#3C7CFF"/>
<path d="M74.0462 75.8759H17.3337C16.4128 75.8759 15.667 76.6217 15.667 77.5425C15.667 78.4634 16.4128 79.2092 17.3337 79.2092H74.0462C74.967 79.2092 75.7129 78.4634 75.7129 77.5425C75.7129 76.6217 74.967 75.8759 74.0462 75.8759Z" fill="#3C7CFF"/>
</svg>
