<svg width="100" height="101" viewBox="0 0 100 101" fill="none" xmlns="http://www.w3.org/2000/svg">
<path d="M62.5673 100.501H58.597C56.4318 100.501 54.619 98.9434 54.2864 96.798L53.7111 93.0765C52.3943 92.6664 51.1019 92.1262 49.8476 91.4605L46.8325 93.6824C45.0869 94.9724 42.7034 94.7934 41.1653 93.2509L38.3776 90.4552C36.8425 88.9157 36.6625 86.5255 37.9488 84.7703L40.1781 81.7328C39.5174 80.4917 38.9849 79.2002 38.5851 77.872L34.8452 77.295C32.7028 76.9645 31.1479 75.1451 31.1479 72.9721V68.9935C31.1479 66.8205 32.7028 65.0026 34.8436 64.6705L38.5744 64.0921C38.9864 62.7623 39.5189 61.4723 40.1644 60.2389L37.9366 57.1876C36.6579 55.4386 36.8395 53.0529 38.3669 51.5165L41.1638 48.7009C42.6729 47.1798 45.1128 46.9947 46.837 48.2663L49.8629 50.5005C51.0851 49.8455 52.3729 49.3084 53.7111 48.8906L54.2864 45.1675C54.619 43.0221 56.4318 41.4644 58.597 41.4644H62.5673C64.7341 41.4644 66.5453 43.0221 66.8764 45.1691L67.4517 48.8906C68.7899 49.3084 70.0777 49.8455 71.2999 50.5005L74.3257 48.2663C76.0759 46.9748 78.4624 47.1538 80.0005 48.7009L82.7974 51.5165C84.3248 53.0529 84.5049 55.437 83.2262 57.1876L80.9999 60.2389C81.6454 61.4723 82.1764 62.7623 82.5884 64.0921L86.3207 64.6705C88.4615 65.0026 90.0164 66.8205 90.0164 68.9935V72.9721C90.0164 75.1451 88.4615 76.963 86.3192 77.295L82.5777 77.872C82.1779 79.2002 81.6454 80.4917 80.9847 81.7328L83.214 84.7703C84.5018 86.5224 84.3218 88.9142 82.7852 90.4552L79.9974 93.2509C78.4655 94.7888 76.0805 94.9755 74.3303 93.6824L71.3167 91.4605C70.0609 92.1262 68.767 92.6664 67.4517 93.0765L66.8764 96.798C66.5453 98.9434 64.7341 100.501 62.5673 100.501ZM49.7301 88.0358C50.0017 88.0358 50.2748 88.1062 50.519 88.2501C52.1166 89.1866 53.7889 89.8859 55.4918 90.3281C56.0961 90.4842 56.5493 90.9862 56.6454 91.6044L57.3748 96.3175C57.4694 96.925 57.9836 97.3673 58.597 97.3673H62.5673C63.1716 97.3673 63.6965 96.9159 63.788 96.3191L64.5174 91.6044C64.6135 90.9862 65.0667 90.4842 65.671 90.3281C67.3723 89.8859 69.0462 89.1866 70.6453 88.2501C71.187 87.9333 71.8584 87.9716 72.3589 88.3404L76.1812 91.1575C76.6756 91.5202 77.3531 91.4712 77.788 91.0351L80.5757 88.2394C81.0106 87.8032 81.0625 87.1253 80.6978 86.6295L77.8673 82.7733C77.495 82.2653 77.4614 81.5828 77.7849 81.0411C78.7142 79.4818 79.3993 77.8199 79.8235 76.1015C79.9745 75.4878 80.4796 75.0257 81.1022 74.9293L85.8431 74.1978C86.4504 74.1045 86.8914 73.5888 86.8914 72.9721V68.9935C86.8914 68.3768 86.4504 67.8611 85.8446 67.7677L81.1235 67.0363C80.5071 66.9414 80.0081 66.4885 79.8494 65.884C79.3962 64.1426 78.705 62.4685 77.8002 60.9107C77.4858 60.3721 77.5209 59.6988 77.8887 59.1953L80.7054 55.336C81.0671 54.8402 81.0167 54.1639 80.5849 53.7293L77.788 50.9136C77.3592 50.479 76.6664 50.4301 76.1782 50.7912L72.3391 53.6252C71.8325 53.9971 71.1504 54.0307 70.6118 53.7078C69.0844 52.7928 67.4211 52.098 65.6679 51.639C65.0652 51.4813 64.6135 50.9794 64.5174 50.3627L63.788 45.648C63.6965 45.0497 63.1716 44.5983 62.5673 44.5983H58.597C57.9836 44.5983 57.4694 45.0405 57.3748 45.648L56.6454 50.3627C56.5493 50.9794 56.0976 51.4813 55.4949 51.639C53.7401 52.098 52.0784 52.7943 50.5526 53.7078C50.0124 54.0307 49.3303 53.9971 48.8253 53.6252L44.9846 50.7912C44.4979 50.4331 43.8066 50.4821 43.3779 50.9121L40.5794 53.7293C40.1476 54.1639 40.0957 54.8402 40.4573 55.336L43.2756 59.1953C43.6434 59.6988 43.6785 60.3736 43.3641 60.9122C42.4578 62.467 41.7681 64.1411 41.3134 65.884C41.1547 66.4885 40.6557 66.9414 40.0392 67.0363L35.3197 67.7677C34.7139 67.8611 34.2729 68.3768 34.2729 68.9935V72.9721C34.2729 73.5888 34.7139 74.1045 35.3212 74.1978L40.0606 74.9293C40.6832 75.0257 41.1882 75.4878 41.3393 76.1015C41.7635 77.8199 42.4486 79.4818 43.3779 81.0411C43.7014 81.5828 43.6678 82.2653 43.2955 82.7733L40.4665 86.628C40.1018 87.1253 40.1522 87.8032 40.587 88.2394L43.3748 91.0351C43.8097 91.4712 44.4841 91.5248 44.9816 91.1575L48.8054 88.3404C49.0786 88.1384 49.4036 88.0358 49.7301 88.0358Z" fill="#3C7CFF"/>
<path d="M60.5848 84.6067C56.6099 84.6067 52.8471 82.8698 50.2592 79.84C48.1596 77.3916 47.0015 74.2454 47.0015 70.9844C47.0015 63.4725 53.0943 57.3622 60.5848 57.3622C68.0662 57.3622 74.153 63.4725 74.153 70.9844C74.153 74.1903 73.0223 77.3074 70.9684 79.765C68.3714 82.8438 64.5872 84.6067 60.5848 84.6067ZM60.5848 60.4961C54.8185 60.4961 50.1265 65.2016 50.1265 70.9844C50.1265 73.4956 51.0161 75.9164 52.6304 77.7986C54.6263 80.1353 57.5239 81.4727 60.5848 81.4727C63.6671 81.4727 66.58 80.1139 68.5774 77.7466C70.1567 75.8583 71.028 73.4542 71.028 70.9844C71.028 65.2016 66.3435 60.4961 60.5848 60.4961Z" fill="#3C7CFF"/>
<path d="M90.1779 73.5735C89.3143 73.5735 88.6154 72.8726 88.6154 72.0065C88.6154 71.1404 89.3143 70.4396 90.1779 70.4396C93.8705 70.4396 96.875 67.4265 96.875 63.7233V10.3514C96.875 6.64822 93.8705 3.63516 90.1779 3.63516H9.82361C6.12946 3.63516 3.125 6.64822 3.125 10.3514V63.7233C3.125 67.4265 6.12946 70.4396 9.82361 70.4396H32.7133C33.577 70.4396 34.2758 71.1404 34.2758 72.0065C34.2758 72.8726 33.577 73.5735 32.7133 73.5735H9.82361C4.40674 73.5735 0 69.1541 0 63.7233V10.3514C0 4.92057 4.40674 0.501221 9.82361 0.501221H90.1779C95.5933 0.501221 100 4.92057 100 10.3514V63.7233C100 69.1541 95.5933 73.5735 90.1779 73.5735Z" fill="#3C7CFF"/>
<path d="M98.4375 20.7801H1.5625C0.698853 20.7801 0 20.0792 0 19.2131C0 18.347 0.698853 17.6461 1.5625 17.6461H98.4375C99.3011 17.6461 100 18.347 100 19.2131C100 20.0792 99.3011 20.7801 98.4375 20.7801Z" fill="#3C7CFF"/>
<path d="M14.7965 12.1265H14.0122C13.1486 12.1265 12.4497 11.4256 12.4497 10.5595C12.4497 9.69341 13.1486 8.99255 14.0122 8.99255H14.7965C15.6602 8.99255 16.359 9.69341 16.359 10.5595C16.359 11.4256 15.6602 12.1265 14.7965 12.1265Z" fill="#3C7CFF"/>
<path d="M22.548 12.1266H21.7637C20.9 12.1266 20.2012 11.4258 20.2012 10.5596C20.2012 9.69353 20.9 8.99268 21.7637 8.99268H22.548C23.4116 8.99268 24.1105 9.69353 24.1105 10.5596C24.1105 11.4258 23.4116 12.1266 22.548 12.1266Z" fill="#3C7CFF"/>
<path d="M30.2994 12.1266H29.5151C28.6515 12.1266 27.9526 11.4258 27.9526 10.5596C27.9526 9.69353 28.6515 8.99268 29.5151 8.99268H30.2994C31.1631 8.99268 31.8619 9.69353 31.8619 10.5596C31.8619 11.4258 31.1631 12.1266 30.2994 12.1266Z" fill="#3C7CFF"/>
<path d="M85.9892 12.1281H61.7964C60.9327 12.1281 60.2339 11.4272 60.2339 10.5611C60.2339 9.69499 60.9327 8.99414 61.7964 8.99414H85.9892C86.8528 8.99414 87.5517 9.69499 87.5517 10.5611C87.5517 11.4272 86.8528 12.1281 85.9892 12.1281Z" fill="#3C7CFF"/>
<path d="M19.6549 37.2731H19.6473L15.3794 37.2532C13.7849 37.2532 12.233 36.5982 11.0169 35.4077C9.84961 34.1789 9.22705 32.6349 9.22705 31.0174C9.22705 29.3311 9.87708 27.7565 11.0581 26.5797C12.2346 25.4091 13.8337 24.7098 15.4755 24.7817L19.6625 24.8016C20.5216 24.8062 21.2174 25.5055 21.2174 26.3685V35.7061C21.2174 36.1223 21.0511 36.5232 20.7566 36.817C20.4636 37.1093 20.0684 37.2731 19.6549 37.2731ZM15.4343 27.9156C14.6058 27.9156 13.8352 28.2308 13.2599 28.8047C12.674 29.3877 12.3521 30.1727 12.3521 31.0174C12.3521 31.8254 12.6679 32.6028 13.2401 33.2041C13.8199 33.7719 14.6165 34.1192 15.387 34.1192L18.0924 34.1315V27.9279L15.4572 27.9156C15.4496 27.9156 15.442 27.9156 15.4343 27.9156Z" fill="#3C7CFF"/>
<path d="M80.5801 37.4674C80.5786 37.4674 80.5755 37.4674 80.574 37.4674L19.6517 37.273C18.7896 37.2715 18.0923 36.5706 18.0923 35.706V26.3685C18.0923 25.9523 18.2571 25.5529 18.5516 25.2591C18.8445 24.9668 19.2413 24.8015 19.6548 24.8015C19.6563 24.8015 19.6563 24.8015 19.6578 24.8015L80.6625 24.9959C80.9249 24.9974 81.1813 25.0632 81.4102 25.1902L89.9642 29.9171C90.4662 30.1941 90.7775 30.7266 90.7729 31.3005C90.7684 31.8758 90.451 32.4022 89.9444 32.6731L81.314 37.2837C81.0882 37.4046 80.8364 37.4674 80.5801 37.4674ZM21.2173 34.1421L80.1925 34.3319L85.9313 31.2668L80.252 28.1283L21.2173 27.9385V34.1421Z" fill="#3C7CFF"/>
<path d="M77.8169 37.4675C76.9532 37.4675 76.2544 36.7666 76.2544 35.9005V26.5629C76.2544 25.6968 76.9532 24.996 77.8169 24.996C78.6805 24.996 79.3794 25.6968 79.3794 26.5629V35.9005C79.3794 36.7666 78.6805 37.4675 77.8169 37.4675Z" fill="#3C7CFF"/>
<path d="M31.3325 46.9305H9.45752C8.59387 46.9305 7.89502 46.2296 7.89502 45.3635C7.89502 44.4974 8.59387 43.7965 9.45752 43.7965H31.3325C32.1962 43.7965 32.895 44.4974 32.895 45.3635C32.895 46.2296 32.1962 46.9305 31.3325 46.9305Z" fill="#3C7CFF"/>
<path d="M31.3325 56.3322H9.45752C8.59387 56.3322 7.89502 55.6313 7.89502 54.7652C7.89502 53.8991 8.59387 53.1982 9.45752 53.1982H31.3325C32.1962 53.1982 32.895 53.8991 32.895 54.7652C32.895 55.6313 32.1962 56.3322 31.3325 56.3322Z" fill="#3C7CFF"/>
<path d="M28.2075 65.734H9.45752C8.59387 65.734 7.89502 65.0332 7.89502 64.1671C7.89502 63.3009 8.59387 62.6001 9.45752 62.6001H28.2075C29.0712 62.6001 29.77 63.3009 29.77 64.1671C29.77 65.0332 29.0712 65.734 28.2075 65.734Z" fill="#3C7CFF"/>
</svg>
