<svg width="98" height="85" viewBox="0 0 98 85" fill="none" xmlns="http://www.w3.org/2000/svg">
<path d="M6.83353 84.4698H91.1665C94.4718 84.4698 97.15 81.6621 97.15 78.2248V7.0977C97.15 3.65776 94.4718 0.85 91.1665 0.85H6.83353C3.52818 0.85 0.85 3.65776 0.85 7.0977V78.2221C0.85 81.6621 3.52818 84.4698 6.83353 84.4698ZM4.44532 7.0977C4.44532 5.62201 5.53022 4.44532 6.83353 4.44532H91.1665C92.4698 4.44532 93.5547 5.62201 93.5547 7.0977V78.2248C93.5547 79.7005 92.4698 80.8772 91.1665 80.8772H6.83353C5.53022 80.8772 4.44532 79.7005 4.44532 78.2248V7.0977Z" fill="#3C7CFF" stroke="#3C7CFF" stroke-width="0.3"/>
<path d="M2.64766 26.0392H95.3523C96.3448 26.0392 97.15 25.234 97.15 24.2415C97.15 23.2491 96.3448 22.4439 95.3523 22.4439H2.64766C1.6552 22.4439 0.85 23.2491 0.85 24.2415C0.85 25.234 1.6552 26.0392 2.64766 26.0392Z" fill="#3C7CFF" stroke="#3C7CFF" stroke-width="0.3"/>
<path d="M7.48965 13.4431C7.48965 16.8485 10.2584 19.6173 13.6638 19.6173C17.0692 19.6173 19.838 16.8485 19.838 13.4431C19.838 10.0377 17.0692 7.26895 13.6638 7.26895C10.2584 7.26895 7.48965 10.0377 7.48965 13.4431ZM11.085 13.4431C11.085 12.0225 12.2407 10.8643 13.6638 10.8643C15.0843 10.8643 16.2427 12.0226 16.2427 13.4431C16.2427 14.8636 15.0843 16.022 13.6638 16.022C12.2433 16.022 11.085 14.8636 11.085 13.4431Z" fill="#3C7CFF" stroke="#3C7CFF" stroke-width="0.3"/>
<path d="M22.6208 13.4431C22.6208 16.8485 25.3895 19.6173 28.7949 19.6173C32.2003 19.6173 34.9691 16.8485 34.9691 13.4431C34.9691 10.0377 32.2003 7.26895 28.7949 7.26895C25.3895 7.26895 22.6208 10.0377 22.6208 13.4431ZM26.2161 13.4431C26.2161 12.0225 27.3718 10.8643 28.7949 10.8643C30.218 10.8643 31.3738 12.0225 31.3738 13.4431C31.3738 14.8637 30.218 16.022 28.7949 16.022C27.3744 16.022 26.2161 14.8636 26.2161 13.4431Z" fill="#3C7CFF" stroke="#3C7CFF" stroke-width="0.3"/>
<path d="M37.7519 13.4431C37.7519 16.8485 40.5206 19.6173 43.926 19.6173C47.3314 19.6173 50.1002 16.8485 50.1002 13.4431C50.1002 10.0377 47.3314 7.26895 43.926 7.26895C40.5206 7.26895 37.7519 10.0377 37.7519 13.4431ZM41.3472 13.4431C41.3472 12.0225 42.5029 10.8643 43.926 10.8643C45.3491 10.8643 46.5049 12.0225 46.5049 13.4431C46.5049 14.8637 45.3491 16.022 43.926 16.022C42.5055 16.022 41.3472 14.8636 41.3472 13.4431Z" fill="#3C7CFF" stroke="#3C7CFF" stroke-width="0.3"/>
<path d="M56.021 15.1021H88.7127C89.7052 15.1021 90.5104 14.2969 90.5104 13.3044C90.5104 12.3119 89.7052 11.5067 88.7127 11.5067H56.021C55.0285 11.5067 54.2233 12.3119 54.2233 13.3044C54.2233 14.2969 55.0285 15.1021 56.021 15.1021Z" fill="#3C7CFF" stroke="#3C7CFF" stroke-width="0.3"/>
<path d="M10.6328 76.926H58.7935C59.7888 76.926 60.5911 76.1207 60.5911 75.1284C60.5911 74.1359 59.7859 73.3307 58.7935 73.3307H10.6328C9.64031 73.3307 8.83511 74.1359 8.83511 75.1284C8.83511 76.1208 9.64031 76.926 10.6328 76.926Z" fill="#3C7CFF" stroke="#3C7CFF" stroke-width="0.3"/>
<path d="M10.6328 33.5829H49.651C50.6434 33.5829 51.4486 32.7777 51.4486 31.7852C51.4486 30.7928 50.6434 29.9876 49.651 29.9876H10.6328C9.64031 29.9876 8.83511 30.7928 8.83511 31.7852C8.83511 32.7777 9.64031 33.5829 10.6328 33.5829Z" fill="#3C7CFF" stroke="#3C7CFF" stroke-width="0.3"/>
<path d="M10.6328 61.0403H49.651C50.6434 61.0403 51.4486 60.2351 51.4486 59.2426C51.4486 58.2502 50.6434 57.445 49.651 57.445H10.6328C9.64031 57.445 8.83511 58.2502 8.83511 59.2426C8.83511 60.2351 9.64031 61.0403 10.6328 61.0403Z" fill="#3C7CFF" stroke="#3C7CFF" stroke-width="0.3"/>
<path d="M10.6328 68.9817H53.7987C54.7912 68.9817 55.5964 68.1765 55.5964 67.184C55.5964 66.1916 54.7912 65.3864 53.7987 65.3864H10.6328C9.64031 65.3864 8.83511 66.1916 8.83511 67.184C8.83511 68.1765 9.64031 68.9817 10.6328 68.9817Z" fill="#3C7CFF" stroke="#3C7CFF" stroke-width="0.3"/>
<path d="M10.6328 53.0962H65.9778C66.9702 53.0962 67.7754 52.291 67.7754 51.2985V39.7268C67.7754 38.7343 66.9702 37.9291 65.9778 37.9291H10.6328C9.64031 37.9291 8.83511 38.7343 8.83511 39.7268V51.2985C8.83511 52.291 9.64031 53.0962 10.6328 53.0962ZM64.1774 41.5271V49.5008H12.4304V41.5271H64.1774Z" fill="#3C7CFF" stroke="#3C7CFF" stroke-width="0.3"/>
<path d="M66.9147 76.9259H87.3675C88.36 76.9259 89.1652 76.1207 89.1652 75.1282V66.2064C89.1652 65.2139 88.36 64.4087 87.3675 64.4087H66.9147C65.9223 64.4087 65.1171 65.2139 65.1171 66.2064V75.1282C65.1171 76.1207 65.9223 76.9259 66.9147 76.9259ZM85.5699 68.004V73.3306H68.7124V68.004H85.5699Z" fill="#3C7CFF" stroke="#3C7CFF" stroke-width="0.3"/>
</svg>
