<svg width="96" height="89" viewBox="0 0 96 89" fill="none" xmlns="http://www.w3.org/2000/svg">
<path d="M87.3421 49.7061C91.4383 43.5 90.621 35.203 85.3368 29.9187C79.1876 23.7696 69.2369 23.7696 63.0878 29.9187C59.8469 33.1596 58.1077 37.7215 58.5354 42.4735C58.5734 42.9868 58.3548 43.4525 57.9651 43.7471C56.0358 45.1822 54.5437 46.6553 53.8879 47.8813C53.6788 48.29 53.5838 48.6227 53.6028 48.8412C53.6218 48.9458 53.7073 49.0503 53.9069 49.1454C54.4581 49.4495 55.4656 49.6396 57.0242 49.6396C57.8226 49.6396 58.4593 50.2764 58.4593 51.0747V55.38C58.4593 56.549 59.4192 57.5089 60.5882 57.5089H65.0551C67.8208 57.5089 70.0543 59.7614 70.0543 62.508L70.0353 63.5915C69.6646 68.0394 67.4787 69.7216 65.4068 71.2993C63.4585 72.7724 63.2114 73.1431 62.3085 75.1959H92.4648C91.0962 67.2886 87.1615 68.5811 84.2058 61.8808C83.4454 60.1986 83.2649 58.6019 83.8161 56.5775C84.3103 54.7433 85.4413 52.6143 87.3421 49.7061ZM92.0181 46.4082C91.4859 48.1475 90.7255 49.8107 89.7276 51.3028C87.9884 53.9449 86.9619 55.8267 86.5723 57.3474C86.2206 58.6399 86.3442 59.6854 86.8194 60.7498C87.8838 63.1448 89.1764 64.3803 90.4024 65.5683C92.6549 67.7163 94.7267 69.7311 95.5061 76.3839C95.6486 77.3248 94.9548 78.0852 94.09 78.0852H60.1796C59.2006 78.0852 58.4974 77.1062 58.83 76.1558C59.0391 75.6046 59.2577 75.0534 59.4858 74.4926C46.4747 81.0314 30.8026 78.4273 20.5762 68.201C7.42265 55.0474 7.42265 33.7203 20.5762 20.5667C34.6327 6.51026 57.642 7.66025 70.2824 22.8572C81.8298 20.3862 92.7879 29.1774 92.7879 41.0574C92.8164 42.9012 92.5218 44.707 92.0181 46.4082ZM66.6328 65.7299C66.9179 65.0932 67.108 64.3138 67.184 63.3919C67.2221 62.508 67.2221 61.6907 66.5473 61.0349C66.1576 60.6453 65.6254 60.3982 65.0551 60.3982H63.2304C58.887 65.5018 52.6144 68.6762 45.838 69.0658V71.1947C45.838 71.9931 45.2012 72.6298 44.4029 72.6298C43.6045 72.6298 42.9678 71.9931 42.9678 71.1947V69.0658C30.4509 68.353 20.4337 58.3358 19.7114 45.819H17.5825C16.7841 45.819 16.1474 45.1822 16.1474 44.3839C16.1474 43.5855 16.7841 42.9487 17.5825 42.9487H19.7114C20.4337 30.4319 30.4509 20.4052 42.9678 19.6924V17.5635C42.9678 16.7651 43.6045 16.1283 44.4029 16.1283C45.2012 16.1283 45.838 16.7651 45.838 17.5635V19.7114C52.0061 20.063 57.718 22.7051 62.0043 27.0295C63.563 25.6609 65.3688 24.5679 67.3076 23.7696C55.5036 10.6825 35.1174 10.0838 22.6196 22.6006C10.597 34.6232 10.597 54.135 22.6196 66.1766C34.8323 78.4083 54.6862 78.1612 66.6328 65.7299ZM59.4192 60.2746C57.2048 59.7424 55.5891 57.756 55.5891 55.418V54.7433C49.7061 61.0729 39.7554 61.32 33.6063 55.1709C27.6472 49.2119 27.6472 39.5558 33.6063 33.5968C40.1641 27.039 50.9797 27.8183 56.549 35.1744C57.3093 32.903 58.4783 30.8501 59.9895 29.0728C51.5119 20.4432 37.56 20.3481 28.9493 28.9493C20.4337 37.4934 20.4337 51.3218 28.9493 59.8659C37.3319 68.2295 50.8561 68.391 59.4192 60.2746ZM53.9924 52.2247C51.0177 51.4834 49.9342 49.2784 51.3693 46.5698C52.1487 45.0967 53.6883 43.4525 55.6271 41.9413L55.6081 41.0574C55.6081 40.4587 55.6271 39.8694 55.6937 39.2992C54.7338 37.1703 53.1941 35.3645 51.2648 34.072C46.3512 30.7931 39.8124 31.4679 35.6306 35.6306C30.7931 40.4682 30.7931 48.309 35.6306 53.1466C40.8389 58.3548 49.3545 57.8986 53.9924 52.2247ZM42.9487 1.91031C42.9487 1.11197 43.5855 0.475202 44.3839 0.475202C45.1822 0.475202 45.819 1.11197 45.819 1.91031V6.3582C45.819 7.15654 45.1822 7.79331 44.3839 7.79331C43.5855 7.79331 42.9487 7.15654 42.9487 6.3582V1.91031ZM42.9487 82.4285C42.9487 81.6302 43.5855 80.9934 44.3839 80.9934C45.1822 80.9934 45.819 81.6302 45.819 82.4285V86.8764C45.819 87.6747 45.1822 88.3115 44.3839 88.3115C43.5855 88.3115 42.9487 87.6747 42.9487 86.8764V82.4285ZM6.3582 42.9677C7.15654 42.9677 7.79331 43.6045 7.79331 44.4029C7.79331 45.2012 7.15654 45.838 6.3582 45.838H1.91031C1.11197 45.838 0.475202 45.2012 0.475202 44.4029C0.475202 43.6045 1.11197 42.9677 1.91031 42.9677H6.3582Z" fill="#3C7CFF"/>
<path fill-rule="evenodd" clip-rule="evenodd" d="M86.9443 49.4461L86.9455 49.4443C90.9178 43.426 90.1249 35.3789 85.0007 30.2547C79.0372 24.2912 69.3873 24.2912 63.4238 30.2547C60.2804 33.3982 58.5939 37.8223 59.0087 42.4309L59.0093 42.4384C59.0593 43.1133 58.7695 43.7347 58.2517 44.1261L58.2488 44.1284C56.3351 45.5518 54.9148 46.9719 54.309 48.1015C54.164 48.3856 54.1031 48.5848 54.0834 48.7023C54.0916 48.7067 54.1008 48.7114 54.1112 48.7163L54.124 48.7224L54.1365 48.7293C54.5758 48.9717 55.4788 49.1644 57.0242 49.1644C58.085 49.1644 58.9345 50.0139 58.9345 51.0747V55.38C58.9345 56.2866 59.6817 57.0337 60.5882 57.0337H65.0551C68.0844 57.0337 70.5295 59.5001 70.5295 62.508V62.5164L70.5101 63.6154L70.5088 63.631C70.3169 65.9338 69.6507 67.5509 68.7436 68.8008C67.8451 70.039 66.7255 70.8924 65.6947 71.6773L65.6934 71.6783C64.7181 72.4157 64.2154 72.844 63.8396 73.3234C63.554 73.6877 63.3318 74.0937 63.0423 74.7207H91.8929C91.5643 73.0776 91.1166 71.8892 90.597 70.9522C90.0211 69.9136 89.3445 69.1613 88.5968 68.4241C88.3991 68.2291 88.1963 68.0353 87.9898 67.838C86.6229 66.5315 85.0934 65.0697 83.7717 62.0742C82.9676 60.2941 82.777 58.5847 83.3576 56.4527C83.8728 54.5416 85.0398 52.36 86.9443 49.4461ZM83.8161 56.5775C83.2649 58.6019 83.4454 60.1986 84.2058 61.8808C85.488 64.7874 86.9544 66.1899 88.3157 67.4918C90.028 69.1294 91.5739 70.6079 92.3773 74.7207C92.4075 74.8754 92.4367 75.0337 92.4648 75.1959H62.3085C62.3829 75.0266 62.453 74.8687 62.5198 74.7207C63.2637 73.0744 63.6192 72.6509 65.4068 71.2993C67.4787 69.7216 69.6646 68.0394 70.0353 63.5915L70.0543 62.508C70.0543 59.7614 67.8208 57.5089 65.0551 57.5089H60.5882C59.4192 57.5089 58.4593 56.549 58.4593 55.38V51.0747C58.4593 50.2764 57.8226 49.6396 57.0242 49.6396C55.4656 49.6396 54.4581 49.4495 53.9069 49.1454C53.7073 49.0503 53.6218 48.9458 53.6028 48.8412C53.5838 48.6227 53.6788 48.29 53.8879 47.8813C54.5437 46.6553 56.0358 45.1822 57.9651 43.7471C58.3548 43.4525 58.5734 42.9868 58.5354 42.4735C58.1077 37.7215 59.8469 33.1596 63.0878 29.9187C69.2369 23.7696 79.1876 23.7696 85.3368 29.9187C90.621 35.203 91.4383 43.5 87.3421 49.7061C85.4413 52.6143 84.3103 54.7433 83.8161 56.5775ZM92.4737 46.5431L92.4725 46.5473C91.9283 48.3256 91.1494 50.0315 90.1233 51.566C88.3844 54.2077 87.4004 56.03 87.0326 57.4653L87.0309 57.4721C86.709 58.655 86.8211 59.588 87.2533 60.5561C88.2674 62.8377 89.4872 64.02 90.694 65.1892L90.7303 65.2244C90.7309 65.2249 90.7314 65.2254 90.7319 65.2259C91.8575 66.2992 92.9864 67.3829 93.9214 69.0549C94.8565 70.7269 95.5823 72.9565 95.9772 76.3213C96.1576 77.5444 95.2445 78.5604 94.09 78.5604H60.1796C58.8707 78.5604 57.9416 77.2558 58.3815 75.9989L58.3855 75.9873C58.4536 75.8077 58.5228 75.6284 58.5929 75.4487C45.6247 81.3958 30.3223 78.619 20.2402 68.537C6.90106 55.1978 6.90106 33.5699 20.2402 20.2307C34.4276 6.04332 57.6077 7.13173 70.4642 22.3345C82.201 20.0017 93.2609 28.9684 93.2631 41.0539C93.292 42.9515 92.9886 44.8042 92.4737 46.5431ZM92.7879 41.0574C92.7879 29.1774 81.8298 20.3862 70.2824 22.8572C57.642 7.66025 34.6327 6.51026 20.5762 20.5667C7.42265 33.7203 7.42265 55.0474 20.5762 68.201C30.6358 78.2606 45.965 80.9445 58.8471 74.8052C59.0607 74.7035 59.2736 74.5993 59.4858 74.4926C59.3956 74.7142 59.307 74.9343 59.2198 75.1535C59.0864 75.489 58.9565 75.8224 58.83 76.1558C58.4974 77.1062 59.2006 78.0852 60.1796 78.0852H94.09C94.9548 78.0852 95.6486 77.3248 95.5061 76.3839C94.7267 69.7311 92.6549 67.7163 90.4024 65.5683L90.3578 65.5251C89.1451 64.3502 87.8709 63.1158 86.8194 60.7498C86.3442 59.6854 86.2206 58.6399 86.5723 57.3474C86.9619 55.8267 87.9884 53.9449 89.7276 51.3028C90.7255 49.8107 91.4859 48.1475 92.0181 46.4082C92.5218 44.707 92.8164 42.9012 92.7879 41.0574ZM22.6196 66.1766C10.597 54.135 10.597 34.6232 22.6196 22.6006C34.9977 10.2036 55.1139 10.6723 66.9661 23.3971C67.0807 23.5201 67.1946 23.6443 67.3076 23.7696C67.1525 23.8335 66.9983 23.8992 66.845 23.9668C65.0815 24.7445 63.4383 25.7704 62.0043 27.0295C57.718 22.7051 52.0061 20.063 45.838 19.7114V17.5635C45.838 16.7651 45.2012 16.1283 44.4029 16.1283C43.6045 16.1283 42.9678 16.7651 42.9678 17.5635V19.6924C30.4509 20.4052 20.4337 30.4319 19.7114 42.9487H17.5825C16.7841 42.9487 16.1474 43.5855 16.1474 44.3839C16.1474 45.1822 16.7841 45.819 17.5825 45.819H19.7114C20.4337 58.3358 30.4509 68.353 42.9678 69.0658V71.1947C42.9678 71.9931 43.6045 72.6298 44.4029 72.6298C45.2012 72.6298 45.838 71.9931 45.838 71.1947V69.0658C52.6144 68.6762 58.887 65.5018 63.2304 60.3982H65.0551C65.6254 60.3982 66.1576 60.6453 66.5473 61.0349C67.2221 61.6907 67.2221 62.508 67.184 63.3919C67.108 64.3138 66.9179 65.0932 66.6328 65.7299C54.6862 78.1612 34.8323 78.4083 22.6196 66.1766ZM66.2316 65.4615C54.4624 77.6416 34.9596 77.8633 22.9559 65.8409C11.1184 53.9846 11.1187 34.7735 22.9556 22.9366C35.1023 10.7715 54.8188 11.1888 66.5038 23.5986C64.8913 24.3251 63.3771 25.2566 62.0279 26.3837C57.8032 22.2653 52.2803 19.7135 46.3132 19.2665V17.5635C46.3132 16.5027 45.4637 15.6531 44.4029 15.6531C43.3421 15.6531 42.4926 16.5027 42.4926 17.5635V19.2474C30.093 20.1736 20.2017 30.0746 19.2668 42.4735H17.5825C16.5217 42.4735 15.6722 43.3231 15.6722 44.3839C15.6722 45.4446 16.5217 46.2942 17.5825 46.2942H19.2668C20.2018 58.6931 30.0932 68.5848 42.4926 69.5108V71.1947C42.4926 72.2555 43.3421 73.1051 44.4029 73.1051C45.4637 73.1051 46.3132 72.2555 46.3132 71.1947V69.5105C52.9747 69.0076 59.125 65.865 63.4487 60.8734H65.0551C65.4866 60.8734 65.9013 61.061 66.2112 61.371L66.2161 61.3757C66.7206 61.866 66.7477 62.4692 66.7097 63.3621C66.6397 64.2012 66.4719 64.8985 66.2316 65.4615ZM55.1329 41.0574C55.1329 40.4951 55.1494 39.931 55.2069 39.3775C54.2808 37.3815 52.8214 35.6869 51.0006 34.467C46.2773 31.3153 39.989 31.9626 35.9659 35.9674C31.3147 40.6195 31.3149 48.1588 35.9667 52.8106C40.804 57.6479 48.6076 57.4046 53.1541 52.4661C51.9467 52.0273 51.0539 51.3057 50.5974 50.3377C50.0516 49.1803 50.1852 47.7899 50.9493 46.3476C51.7465 44.8405 53.2689 43.2061 55.1469 41.7145L55.1329 41.0574ZM55.6271 41.9413C53.6883 43.4525 52.1487 45.0967 51.3693 46.5698C50.0175 49.1213 50.9004 51.2258 53.4939 52.0811C53.6536 52.1337 53.8198 52.1817 53.9924 52.2247C53.8807 52.3614 53.7668 52.495 53.6506 52.6256C48.9462 57.9173 40.7134 58.2293 35.6306 53.1466C30.7931 48.309 30.7931 40.4682 35.6306 35.6306C39.8124 31.4679 46.3512 30.7931 51.2648 34.072C53.1941 35.3645 54.7338 37.1703 55.6937 39.2992C55.6271 39.8694 55.6081 40.4587 55.6081 41.0574L55.6271 41.9413ZM55.1139 55.2327C49.1824 61.0815 39.5927 61.1574 33.6063 55.1709C27.6472 49.2119 27.6472 39.5558 33.6063 33.5968C40.0294 27.1736 50.5373 27.7894 56.1994 34.7297C56.3181 34.8751 56.4347 35.0234 56.549 35.1744C56.6091 34.995 56.6717 34.8169 56.7368 34.6403C57.4962 32.5804 58.5977 30.7097 59.9895 29.0728C51.5119 20.4432 37.56 20.3481 28.9493 28.9493C20.4337 37.4934 20.4337 51.3218 28.9493 59.8659C37.1987 68.0966 50.4276 68.3838 59.0073 60.6552C59.1459 60.5304 59.2832 60.4036 59.4192 60.2746C59.2395 60.2314 59.0637 60.1786 58.8924 60.1168C56.9567 59.4189 55.5941 57.573 55.5891 55.4298C55.5891 55.4259 55.5891 55.422 55.5891 55.418V54.7433C55.4335 54.9107 55.2751 55.0738 55.1139 55.2327ZM55.1327 55.8733C48.9979 61.6016 39.3391 61.5758 33.2703 55.507C27.1256 49.3623 27.1256 39.4054 33.2703 33.2608C39.827 26.704 50.5111 27.2605 56.3894 34.2147C57.1101 32.3442 58.1086 30.6292 59.3469 29.1029C51.0282 20.9636 37.6075 20.9729 29.2857 29.2849C20.9552 37.6435 20.9552 51.1714 29.2855 59.5301C37.2943 67.5202 50.1003 67.8571 58.497 60.4733C56.6342 59.703 55.304 57.9443 55.1327 55.8733ZM42.4735 1.91031C42.4735 0.849525 43.3231 0 44.3839 0C45.4446 0 46.2942 0.849526 46.2942 1.91031V6.3582C46.2942 7.41899 45.4446 8.26851 44.3839 8.26851C43.3231 8.26851 42.4735 7.41899 42.4735 6.3582V1.91031ZM42.4735 82.4285C42.4735 81.3677 43.3231 80.5182 44.3839 80.5182C45.4446 80.5182 46.2942 81.3677 46.2942 82.4285V86.8764C46.2942 87.9372 45.4446 88.7867 44.3839 88.7867C43.3231 88.7867 42.4735 87.9372 42.4735 86.8764V82.4285ZM6.3582 42.4925C7.41899 42.4925 8.26851 43.3421 8.26851 44.4029C8.26851 45.4636 7.41899 46.3132 6.3582 46.3132H1.91031C0.849526 46.3132 0 45.4636 0 44.4029C0 43.3421 0.849525 42.4925 1.91031 42.4925H6.3582ZM44.3839 0.475202C43.5855 0.475202 42.9487 1.11197 42.9487 1.91031V6.3582C42.9487 7.15654 43.5855 7.79331 44.3839 7.79331C45.1822 7.79331 45.819 7.15654 45.819 6.3582V1.91031C45.819 1.11197 45.1822 0.475202 44.3839 0.475202ZM44.3839 80.9934C43.5855 80.9934 42.9487 81.6302 42.9487 82.4285V86.8764C42.9487 87.6747 43.5855 88.3115 44.3839 88.3115C45.1822 88.3115 45.819 87.6747 45.819 86.8764V82.4285C45.819 81.6302 45.1822 80.9934 44.3839 80.9934ZM7.79331 44.4029C7.79331 43.6045 7.15654 42.9677 6.3582 42.9677H1.91031C1.11197 42.9677 0.475202 43.6045 0.475202 44.4029C0.475202 45.2012 1.11197 45.838 1.91031 45.838H6.3582C7.15654 45.838 7.79331 45.2012 7.79331 44.4029Z" fill="#3C7CFF"/>
</svg>
