<svg width="102" height="83" viewBox="0 0 102 83" fill="none" xmlns="http://www.w3.org/2000/svg">
<path d="M41.1344 46.5526H60.8835C61.6714 46.5526 62.315 45.9147 62.315 45.1211C62.315 44.3281 61.6764 43.6896 60.8835 43.6896H41.1344C40.3464 43.6896 39.7029 44.3275 39.7029 45.1211C39.7029 45.909 40.3408 46.5526 41.1344 46.5526Z" fill="#3C7CFF" stroke="#3C7CFF" stroke-width="0.5"/>
<path d="M41.1344 35.3889H60.8835C61.6714 35.3889 62.315 34.7509 62.315 33.9574C62.315 33.1694 61.677 32.5259 60.8835 32.5259H41.1344C40.3464 32.5259 39.7029 33.1638 39.7029 33.9574C39.7029 34.7454 40.3408 35.3889 41.1344 35.3889Z" fill="#3C7CFF" stroke="#3C7CFF" stroke-width="0.5"/>
<path d="M41.1344 24.2197H58.9849C59.7729 24.2197 60.4164 23.5818 60.4164 22.7882C60.4164 22.0002 59.7785 21.3567 58.9849 21.3567H41.1344C40.3464 21.3567 39.7029 21.9946 39.7029 22.7882C39.7029 23.5762 40.3408 24.2197 41.1344 24.2197Z" fill="#3C7CFF" stroke="#3C7CFF" stroke-width="0.5"/>
<path d="M41.1344 13.056H60.8835C61.6714 13.056 62.315 12.4181 62.315 11.6245C62.315 10.8365 61.677 10.193 60.8835 10.193H41.1344C40.3464 10.193 39.7029 10.8309 39.7029 11.6245C39.7029 12.4125 40.3408 13.056 41.1344 13.056Z" fill="#3C7CFF" stroke="#3C7CFF" stroke-width="0.5"/>
<path d="M63.9678 26.6175L63.9682 26.6182C64.1903 27.0003 64.5604 27.2425 64.962 27.3136L64.9621 27.3399H65.2109C65.4544 27.3399 65.7006 27.2751 65.9235 27.1477L65.9245 27.1471L89.0447 13.7972L89.0452 13.7969C89.3754 13.6052 89.6177 13.2944 89.7147 12.9225C89.8109 12.5537 89.7576 12.1633 89.5702 11.8367L89.5699 11.8362L85.6892 5.11028L85.6891 5.11008C85.2928 4.42478 84.4189 4.18823 83.7324 4.58514L60.6143 17.9338C60.614 17.934 60.6136 17.9342 60.6133 17.9344C60.2811 18.1223 60.039 18.4341 59.9422 18.8052L60.1841 18.8684L59.9422 18.8052C59.846 19.1741 59.8994 19.5644 60.0868 19.891L60.0871 19.8916L63.9678 26.6175ZM86.3751 12.0291L65.736 23.943L63.2869 19.7032L83.926 7.78926L86.3751 12.0291Z" fill="#3C7CFF" stroke="#3C7CFF" stroke-width="0.5"/>
<path d="M57.2811 27.7868H56.6662C56.1574 27.7868 55.68 27.5142 55.4269 27.0677C55.1593 26.6016 55.1756 26.0238 55.4647 25.5741L55.4654 25.5731L55.4654 25.5731L60.1293 18.3959L60.1297 18.3954C60.5632 17.7317 61.4473 17.5438 62.1117 17.9725C62.7775 18.402 62.9643 19.2922 62.5308 19.9562C62.5308 19.9563 62.5307 19.9564 62.5306 19.9565L59.4003 24.7702L65.1358 24.4685L65.1371 24.4685C65.928 24.4311 66.599 25.0309 66.642 25.8241L57.2811 27.7868ZM57.2811 27.7868L57.2486 27.7552M57.2811 27.7868L57.2486 27.7552M57.2486 27.7552L65.286 27.3308L65.2864 27.3308C66.0785 27.2879 66.6849 26.6131 66.642 25.8242L57.2486 27.7552Z" fill="#3C7CFF" stroke="#3C7CFF" stroke-width="0.5"/>
<path d="M87.0926 13.267L87.0929 13.2675C87.3604 13.7276 87.8424 13.9848 88.3356 13.9848C88.5831 13.9848 88.8293 13.9201 89.0526 13.7925L89.0536 13.7919L92.3547 11.8847L92.3549 11.8846C94.8587 10.4354 95.7183 7.22179 94.2747 4.71746L94.2093 4.59972L94.2093 4.5997L94.2073 4.5962C93.51 3.38748 92.3753 2.52321 91.0205 2.15667L91.0197 2.15647C89.664 1.79433 88.2462 1.98002 87.0381 2.67705L87.0379 2.67713L83.7369 4.58429L83.7368 4.58433C83.0515 4.98057 82.8149 5.85447 83.2118 6.54102L83.2119 6.54103C83.6081 7.22629 84.4819 7.46285 85.1684 7.06604C85.1685 7.06601 85.1685 7.06599 85.1685 7.06597L88.4738 5.15894C88.4738 5.15893 88.4738 5.15892 88.4738 5.15891C89.0223 4.84263 89.6617 4.75863 90.2788 4.92692L90.2802 4.92731C90.8972 5.09153 91.4082 5.48277 91.7244 6.03018L91.7898 6.14787L91.7898 6.14789L91.7917 6.15124C92.4444 7.28431 92.0556 8.74655 90.9187 9.40306L90.9187 9.40309L87.6176 11.3103L87.6175 11.3103C86.9322 11.7065 86.6957 12.5804 87.0926 13.267Z" fill="#3C7CFF" stroke="#3C7CFF" stroke-width="0.5"/>
<path d="M11.0182 74.6163H11.2747L11.274 74.5891C11.9407 74.4686 12.4496 73.886 12.4496 73.1804V30.865C12.4496 29.8481 13.2802 29.0175 14.297 29.0175H27.1825C27.9705 29.0175 28.614 28.3796 28.614 27.586C28.614 26.7981 27.9761 26.1545 27.1825 26.1545H14.297C11.6987 26.1545 9.58667 28.2665 9.58667 30.8649V73.1848C9.58667 73.9778 10.2252 74.6163 11.0182 74.6163ZM90.9955 74.6163H91.2513L91.2506 74.5889C91.9177 74.4688 92.4268 73.886 92.4268 73.1802V30.8648C92.4268 28.2664 90.3149 26.1544 87.7165 26.1544H74.831C74.043 26.1544 73.3995 26.7924 73.3995 27.5859C73.3995 28.3739 74.0374 29.0174 74.831 29.0174H87.7165C88.7334 29.0174 89.564 29.8481 89.564 30.8649V73.1848C89.564 73.9778 90.2025 74.6163 90.9955 74.6163Z" fill="#3C7CFF" stroke="#3C7CFF" stroke-width="0.5"/>
<path d="M17.0318 69.3454H84.9811H84.9898C85.7777 69.3454 86.4213 68.7075 86.4213 67.9139V32.8597C86.4213 32.0667 85.7827 31.4282 84.9898 31.4282H74.8389C74.051 31.4282 73.4074 32.0661 73.4074 32.8597C73.4074 33.6527 74.046 34.2912 74.8389 34.2912H83.554V66.4779H18.4676V34.2912H27.1827C27.9706 34.2912 28.6142 33.6533 28.6142 32.8597C28.6142 32.0667 27.9756 31.4282 27.1827 31.4282H17.0318C16.2439 31.4282 15.6003 32.0662 15.6003 32.8597V67.9139C15.6003 68.7019 16.2383 69.3454 17.0318 69.3454Z" fill="#3C7CFF" stroke="#3C7CFF" stroke-width="0.5"/>
<path d="M5.91167 82.0723L96.0883 82.0724C98.9344 82.0724 101.25 79.7568 101.25 76.9107V73.1848C101.25 72.3969 100.612 71.7533 99.8185 71.7533H59.6973C58.9094 71.7533 58.2658 72.3912 58.2658 73.1848C58.2658 73.7017 57.8423 74.1252 57.3255 74.1252H44.6745C44.1576 74.1252 43.7341 73.7017 43.7341 73.1848C43.7341 72.3918 43.0956 71.7533 42.3027 71.7533L2.18149 71.7489H2.18147C1.79916 71.7489 1.43519 71.9049 1.16837 72.1717C0.899861 72.4402 0.75 72.8049 0.75 73.1848V76.9107C0.75 79.7613 3.06569 82.0723 5.91167 82.0723ZM3.62195 76.9107V74.6163L41.1568 74.6207C41.7259 76.0102 43.0917 76.9925 44.6829 76.9925H57.3339C58.9289 76.9925 60.2954 76.0104 60.8606 74.6163H98.3955V76.9107C98.3955 78.1753 97.3658 79.205 96.1012 79.205H5.91631C4.65165 79.205 3.62195 78.1753 3.62195 76.9107Z" fill="#3C7CFF" stroke="#3C7CFF" stroke-width="0.5"/>
<path d="M27.1783 55.9955H74.8303C75.6183 55.9955 76.2618 55.3574 76.2618 54.5639V20.3502C76.2618 19.5622 75.6239 18.9187 74.8303 18.9187C74.0423 18.9187 73.3988 19.5567 73.3988 20.3502V53.1324H28.6132V3.61742H73.3988V11.3854C73.3988 12.1734 74.0367 12.8169 74.8303 12.8169C75.6183 12.8169 76.2618 12.179 76.2618 11.3854V2.1815C76.2618 1.39353 75.6239 0.75 74.8303 0.75H27.1783C26.3904 0.75 25.7468 1.38794 25.7468 2.1815V54.564C25.7468 55.352 26.3848 55.9955 27.1783 55.9955Z" fill="#3C7CFF" stroke="#3C7CFF" stroke-width="0.5"/>
</svg>
