<svg width="98" height="98" viewBox="0 0 98 98" fill="none" xmlns="http://www.w3.org/2000/svg">
<path d="M33.5628 15.75H21.8747L21.8756 8.96899V8.96896C21.8756 6.26351 24.0763 4.0628 26.7818 4.0628H28.6566C31.3621 4.0628 33.5628 6.26351 33.5628 8.96896V15.75ZM61.8435 73.8135H61.8438H84.3434C85.2581 73.8135 85.9998 73.0718 85.9998 72.1571V60.9069C85.9998 59.9922 85.2581 59.2505 84.3434 59.2505H61.8438C60.9291 59.2505 60.1874 59.9922 60.1874 60.9069V72.1562C60.1874 73.0709 60.9291 73.8124 61.8435 73.8135ZM27.7187 23.4847C26.0292 23.4847 24.6559 24.8591 24.6559 26.5475C24.6559 27.6266 25.2188 28.5739 26.0623 29.1191V34.047C26.0623 34.9618 26.804 35.7034 27.7187 35.7034C28.6334 35.7034 29.3751 34.9618 29.3751 34.047V29.1192C30.2187 28.5748 30.7815 27.6274 30.7815 26.5475C30.7815 24.8581 29.4081 23.4847 27.7187 23.4847ZM97.25 89.031V37.4685C97.25 32.9364 93.563 29.2505 89.031 29.2505H45.3121V19.6566C45.3121 17.5026 43.5595 15.75 41.4054 15.75H36.8746V8.96896C36.8746 4.43697 33.1877 0.75 28.6557 0.75H26.7808C22.2488 0.75 18.5628 4.43701 18.5628 8.96896V15.75H14.032C11.8779 15.75 10.1254 17.5026 10.1254 19.6566V29.2495H8.96896C4.43697 29.2495 0.75 32.9365 0.75 37.4685V89.031C0.75 93.564 4.43699 97.25 8.96896 97.25H89.031C93.563 97.25 97.25 93.563 97.25 89.031ZM93.8837 36.75H45.3121V32.5623H89.031C91.4917 32.5623 93.5346 34.384 93.8837 36.75ZM14.031 40.1254C13.7114 40.1254 13.4372 39.8506 13.4372 39.5315V19.6566C13.4372 19.337 13.712 19.0628 14.031 19.0628H41.4064C41.7261 19.0628 42.0002 19.3376 42.0002 19.6566V39.5315C42.0002 39.8512 41.7255 40.1254 41.4064 40.1254H14.031ZM10.1254 32.5623V36.75H4.11631C4.46542 34.3848 6.50833 32.5623 8.96896 32.5623H10.1254ZM4.0628 51.313H93.9372V89.032C93.9372 91.7374 91.7365 93.9382 89.031 93.9382H8.96896C6.26351 93.9382 4.0628 91.7374 4.0628 89.032V51.313ZM4.0628 40.0628H10.1642C10.4247 41.9664 12.057 43.4382 14.031 43.4382H41.4064C43.3804 43.4382 45.0127 41.9656 45.2733 40.0628H93.9372V48.0002H4.0628V40.0628ZM13.6566 80.3751H30.5315C31.4462 80.3751 32.1879 79.6334 32.1879 78.7187C32.1879 77.804 31.4462 77.0623 30.5315 77.0623H13.6566C12.7419 77.0623 12.0002 77.804 12.0002 78.7187C12.0002 79.6334 12.7419 80.3751 13.6566 80.3751ZM13.6566 85.9998H69.9069C70.8216 85.9998 71.5633 85.2581 71.5633 84.3434C71.5633 83.4286 70.8216 82.687 69.9069 82.687H13.6566C12.7419 82.687 12.0002 83.4286 12.0002 84.3434C12.0002 85.2581 12.7419 85.9998 13.6566 85.9998ZM82.6879 62.5623V70.4998H63.5002V62.5623H82.6879Z" fill="#3C7CFF" stroke="#3C7CFF" stroke-width="0.5"/>
</svg>
