<svg width="100" height="102" viewBox="0 0 100 102" fill="none" xmlns="http://www.w3.org/2000/svg">
<path d="M36.4527 25.5631L36.453 25.5633L45.4206 29.804L45.4214 29.8044C45.5897 29.8833 45.772 29.9231 45.9532 29.9231C46.1348 29.9231 46.3168 29.8827 46.4844 29.8047L46.4858 29.804L55.4533 25.5633L55.4536 25.5631C55.8887 25.3567 56.166 24.9192 56.166 24.4374V13.5947C56.166 13.5187 56.1454 13.4559 56.1335 13.4215C56.1279 13.4052 56.1241 13.3945 56.1215 13.3871C56.1174 13.3754 56.1161 13.3718 56.1152 13.3676L56.1148 13.3651C56.1019 13.2895 56.0841 13.1846 56.0383 13.0805L56.0384 13.0805L56.036 13.0755C56.0036 13.0061 55.9638 12.9491 55.9344 12.907C55.9332 12.9053 55.9321 12.9037 55.931 12.9021C55.8579 12.7906 55.7691 12.6969 55.667 12.6158C55.6626 12.6102 55.6568 12.6031 55.6502 12.5959C55.6366 12.5809 55.6168 12.5619 55.5898 12.5443L55.5898 12.5443L55.5866 12.5422C55.5666 12.5296 55.5475 12.5212 55.5316 12.5155C55.5305 12.5146 55.5293 12.5136 55.5281 12.5126C55.5103 12.4978 55.4731 12.4668 55.4219 12.4432L55.4203 12.4425L46.4121 8.3592L46.4111 8.35877C46.0832 8.21181 45.7104 8.21312 45.3836 8.35962L45.3823 8.36021L36.5181 12.3942C36.2666 12.5084 36.097 12.7005 35.9799 12.898C35.8473 13.0878 35.7407 13.321 35.7407 13.5942V24.4374C35.7407 24.9191 36.018 25.3567 36.4527 25.5631ZM38.2306 23.6496V15.5608L44.7078 18.6236V26.7125L38.2306 23.6496ZM53.6758 15.5608V23.6496L47.1985 26.7125V18.6236L53.6758 15.5608ZM39.896 13.5931L45.899 10.8615L51.9683 13.613L45.9532 16.457L39.896 13.5931Z" fill="#3C7CFF" stroke="#3C7CFF" stroke-width="0.5"/>
<path d="M29.8954 65.6411C29.8959 64.9531 29.3385 64.396 28.6505 64.396H18.4266C17.7383 64.396 17.1816 64.9533 17.1816 65.6409V99.9214C17.1816 100.61 17.7389 101.166 18.4266 101.166H28.6505C29.3387 101.166 29.8954 100.609 29.8954 99.9214V65.6411ZM29.8954 65.6411L29.6454 65.6409H29.8954V65.6411ZM27.4056 98.6765H19.6715V66.8863H27.4056V98.6765Z" fill="#3C7CFF" stroke="#3C7CFF" stroke-width="0.5"/>
<path d="M48.2961 55.0397H38.0731C37.3848 55.0397 36.8281 55.5969 36.8281 56.2846V99.9214C36.8281 100.61 37.3854 101.166 38.0731 101.166H48.2961C48.9844 101.166 49.541 100.609 49.541 99.9214V56.285C49.541 55.597 48.9844 55.0397 48.2961 55.0397ZM47.0512 98.6765H39.3184V57.53H47.0512V98.6765Z" fill="#3C7CFF" stroke="#3C7CFF" stroke-width="0.5"/>
<path d="M67.943 58.917H57.7191C57.0308 58.917 56.4741 59.4742 56.4741 60.1619V99.9213C56.4741 100.61 57.0314 101.166 57.7191 101.166H67.943C68.6312 101.166 69.1879 100.609 69.1879 99.9213V60.1619C69.1879 59.4742 68.6312 58.917 67.943 58.917ZM66.698 98.6764H58.964V61.4073H66.698V98.6764Z" fill="#3C7CFF" stroke="#3C7CFF" stroke-width="0.5"/>
<path d="M87.588 45.9524H77.3641C76.6758 45.9524 76.1191 46.5096 76.1191 47.1973V99.9213C76.1191 100.61 76.6764 101.166 77.3641 101.166H87.588C88.2762 101.166 88.8329 100.609 88.8329 99.9213V47.1977C88.8329 46.5097 88.2763 45.9524 87.588 45.9524ZM86.3426 98.6764H78.6086V48.4427H86.3426V98.6764Z" fill="#3C7CFF" stroke="#3C7CFF" stroke-width="0.5"/>
<path d="M64.2403 47.3146C63.834 47.0674 63.3653 46.8872 62.8305 46.8872C61.9034 46.8872 61.1221 47.3568 60.6106 48.0298L45.9423 45.1358C45.6186 43.8995 44.5376 42.9571 43.1849 42.9571C41.5833 42.9571 40.2808 44.2597 40.2808 45.8613C40.2808 45.8625 40.2808 45.8637 40.2808 45.8649L25.4732 52.9166C24.9509 52.4755 24.278 52.2039 23.5393 52.2039C21.8783 52.2039 20.5273 53.554 20.5273 55.2159C20.5273 56.8776 21.8781 58.2295 23.5393 58.2295C25.2005 58.2295 26.5512 56.8776 26.5512 55.2159C26.5512 55.1969 26.5505 55.1785 26.5492 55.1611L41.3727 48.1028C41.8661 48.5058 42.4892 48.7654 43.1845 48.7654C44.1392 48.7654 44.9429 48.2779 45.4636 47.5802L60.1319 50.4742C60.4581 51.6744 61.5128 52.5868 62.8301 52.5868C64.4015 52.5868 65.6794 51.3089 65.6794 49.7374C65.6794 49.6236 65.657 49.5227 65.6356 49.4406C65.6306 49.4214 65.6259 49.4039 65.6214 49.3877L81.0074 39.2352C81.4296 39.498 81.9182 39.6884 82.4765 39.6884C84.084 39.6884 85.3913 38.3812 85.3913 36.7736C85.3913 35.1661 84.084 33.8589 82.4765 33.8589C80.869 33.8589 79.5618 35.1661 79.5618 36.7736C79.5618 36.8936 79.5849 37.0005 79.6078 37.0893C79.6147 37.116 79.6212 37.1398 79.6272 37.1617L64.2403 47.3146Z" fill="#3C7CFF" stroke="#3C7CFF" stroke-width="0.5"/>
<path d="M42.652 38.7873L42.6521 38.7873C43.7494 38.9752 44.848 39.069 45.9392 39.069C49.8754 39.069 53.7068 37.8584 56.9849 35.5404L56.8406 35.3363L56.9849 35.5404C65.6297 29.427 67.6896 17.4202 61.577 8.77499L61.577 8.77495C55.4624 0.13025 43.4547 -1.92972 34.8116 4.1837C30.6245 7.14394 27.8395 11.5596 26.9734 16.6153C26.3799 20.0747 26.7528 23.5447 27.9844 26.7361L13.4216 35.8651L13.4215 35.8652C12.0823 36.7052 11.1742 38.0226 10.8631 39.5707L10.8631 39.5709C10.5534 41.12 10.8848 42.6857 11.7972 43.9761C12.7087 45.2666 14.0745 46.1014 15.6383 46.3251C15.9144 46.3645 16.1894 46.3841 16.4628 46.3841C17.739 46.3841 18.9669 45.9577 19.9863 45.1481L33.4465 34.4606C36.0448 36.6855 39.1917 38.1938 42.652 38.7873ZM43.0723 36.3336L43.0723 36.3335C38.6723 35.5782 34.8306 33.156 32.253 29.5106C29.6753 25.8652 28.6722 21.436 29.4268 17.036C30.1813 12.6361 32.6043 8.7944 36.2485 6.21673C39.1734 4.14871 42.5386 3.15603 45.8743 3.15603C51.1204 3.15603 56.2911 5.61418 59.5431 10.2122C64.8625 17.7368 63.07 28.1867 55.5468 33.5073C51.9013 36.0842 47.4671 37.0893 43.0723 36.3336ZM30.2199 30.9478C30.662 31.5734 31.1461 32.1535 31.6485 32.7075L18.4372 43.1971L18.4372 43.1972C17.7411 43.7503 16.8772 43.9855 15.9919 43.8598C15.1104 43.7333 14.3446 43.2647 13.8302 42.5385C13.3168 41.8114 13.1305 40.9327 13.3046 40.0604C13.4795 39.1871 13.9899 38.448 14.7441 37.9751L29.0375 29.0151C29.3924 29.6732 29.7778 30.3227 30.2199 30.9478Z" fill="#3C7CFF" stroke="#3C7CFF" stroke-width="0.5"/>
</svg>
