<svg width="100" height="100" viewBox="0 0 100 100" fill="none" xmlns="http://www.w3.org/2000/svg">
<path d="M41.929 64.7716H38.7007V68H41.929V64.7716Z" fill="#3C7CFF"/>
<path d="M48.3861 64.7716H45.1577V68H48.3861V64.7716Z" fill="#3C7CFF"/>
<path d="M35.492 64.7716H32.2637V68H35.492V64.7716Z" fill="#3C7CFF"/>
<path d="M95.1575 34.1417H80.6496V18H0V72.8425H29.0354V79.2992H22.5787V82.5276H29.0354H51.6142H58.0709V79.2992H51.6142V72.8425H67.7362V74.4567C67.7362 77.1339 69.9016 79.2992 72.5787 79.2992H95.1575C97.8346 79.2992 100 77.1339 100 74.4567V38.9646C100 36.3071 97.8346 34.1417 95.1575 34.1417ZM77.4213 21.2283V34.122H72.5787C69.9016 34.122 67.7362 36.2874 67.7362 38.9646V59.9291H3.22835V21.2283H77.4213ZM48.3858 79.2992H32.2638V72.8425H48.3858V79.2992ZM51.6142 69.6142H29.0354H3.22835V63.1575H67.7362V69.6142H51.6142ZM96.7717 74.4567C96.7717 75.3425 96.0433 76.0709 95.1575 76.0709H72.5787C71.6929 76.0709 70.9646 75.3425 70.9646 74.4567V38.9646C70.9646 38.0787 71.6929 37.3504 72.5787 37.3504H95.1575C96.0433 37.3504 96.7717 38.0787 96.7717 38.9646V74.4567Z" fill="#3C7CFF"/>
<path d="M85.492 69.6141H82.2637V72.8425H85.492V69.6141Z" fill="#3C7CFF"/>
<path d="M30.6495 26.0709H8.0708V55.1064H30.6495V26.0709ZM27.4212 51.878H11.2991V29.2993H27.4212V51.878Z" fill="#3C7CFF"/>
<path d="M61.2993 26.0709H35.4922V29.2993H61.2993V26.0709Z" fill="#3C7CFF"/>
<path d="M61.2993 38.9646H35.4922V42.1929H61.2993V38.9646Z" fill="#3C7CFF"/>
<path d="M61.2993 51.8779H35.4922V55.1063H61.2993V51.8779Z" fill="#3C7CFF"/>
<path d="M75.8071 56.7204H91.9292V40.5984H75.8071V56.7204ZM79.0355 43.8071H88.7205V53.4921H79.0355V43.8071Z" fill="#3C7CFF"/>
</svg>
