<svg width="102" height="100" viewBox="0 0 102 100" fill="none" xmlns="http://www.w3.org/2000/svg">
<path d="M35.7113 29.5179L35.7119 29.5173C35.9096 29.3208 36.1442 29.1653 36.4022 29.0596C36.6601 28.954 36.9363 28.9003 37.215 28.9015L35.7113 29.5179ZM35.7113 29.5179L25.999 39.2302C25.999 39.2302 25.9989 39.2303 25.9989 39.2303C25.8003 39.4286 25.6428 39.664 25.5354 39.9232L25.766 40.0188L25.5354 39.9232C25.4279 40.1824 25.3726 40.4603 25.3726 40.741C25.3726 41.0216 25.4279 41.2995 25.5354 41.5587C25.6428 41.8179 25.8003 42.0533 25.9989 42.2516C25.9989 42.2517 25.9989 42.2517 25.999 42.2517L35.7113 51.9641L35.7113 51.9641M35.7113 29.5179L35.7113 51.9641M35.7113 51.9641L35.7156 51.9682C36.1216 52.3553 36.661 52.5713 37.222 52.5713C37.7829 52.5713 38.3224 52.3553 38.7284 51.9682L38.7284 51.9683L38.7325 51.9642C38.9311 51.7659 39.0886 51.5304 39.1961 51.2712C39.3036 51.0119 39.3589 50.7341 39.3589 50.4534C39.3589 50.1728 39.3036 49.8949 39.1961 49.6357C39.0887 49.3766 38.9312 49.1412 38.7328 48.943C38.7327 48.9429 38.7326 48.9428 38.7325 48.9427L30.5864 40.7653L38.7964 32.5553M35.7113 51.9641L38.7964 32.5553M38.7964 32.5553C38.995 32.357 39.1525 32.1215 39.26 31.8622C39.3675 31.603 39.4228 31.3251 39.4228 31.0445C39.4228 30.7638 39.3675 30.486 39.26 30.2267C39.1525 29.9675 38.995 29.732 38.7964 29.5337L38.7232 29.4606M38.7964 32.5553L38.7232 29.4606M38.7232 29.4606H38.6409M38.7232 29.4606H38.6409M38.6409 29.4606C38.4616 29.2957 38.255 29.1628 38.03 29.068C37.772 28.9592 37.4951 28.9026 37.2151 28.9015L38.6409 29.4606Z" fill="#3C7CFF" stroke="#3C7CFF" stroke-width="0.5"/>
<path d="M46.7215 52.4339L46.7218 52.434L46.7279 52.4235L58.9528 31.2453C59.1491 31.0127 59.2934 30.7408 59.376 30.4478C59.4609 30.1469 59.4786 29.831 59.4279 29.5226C59.3773 29.2141 59.2595 28.9205 59.083 28.6625C58.9064 28.4045 58.6753 28.1884 58.4061 28.0296C58.1368 27.8707 57.8359 27.7729 57.5247 27.7431C57.2136 27.7133 56.8996 27.7522 56.6051 27.8571C56.3106 27.9619 56.0427 28.1302 55.8203 28.3499C55.6033 28.5645 55.4348 28.823 55.3261 29.1081L43.0363 50.3041L43.0362 50.3041L43.0324 50.311C42.7725 50.7938 42.7083 51.3581 42.8532 51.887C42.998 52.4158 43.3408 52.8686 43.8104 53.1516L43.8104 53.1517L43.817 53.1555C44.302 53.4279 44.8726 53.5049 45.4124 53.3708C45.9522 53.2367 46.4205 52.9015 46.7215 52.4339Z" fill="#3C7CFF" stroke="#3C7CFF" stroke-width="0.5"/>
<path d="M76.6336 40.7618C76.6322 40.4825 76.5757 40.2063 76.4671 39.9489C76.3585 39.6912 76.1999 39.4576 76.0005 39.2615C76.0002 39.2612 76 39.261 75.9997 39.2608L66.2727 29.5497L66.2723 29.5493C66.0746 29.3528 65.84 29.1973 65.582 29.0916C65.3241 28.986 65.0478 28.9322 64.7691 28.9335L64.7691 28.9335L64.7663 28.9335C64.35 28.94 63.9447 29.0681 63.6003 29.302C63.2558 29.5359 62.9873 29.8654 62.8277 30.2499C62.6681 30.6345 62.6244 31.0573 62.702 31.4663C62.7797 31.8754 62.9752 32.2528 63.2646 32.5521L63.2646 32.5522L63.2669 32.5545L71.415 40.7651L63.2837 48.9746C63.2835 48.9748 63.2833 48.975 63.2831 48.9752C63.0848 49.1733 62.9274 49.4087 62.82 49.6677C62.7126 49.9269 62.6572 50.2048 62.6572 50.4854C62.6572 50.766 62.7126 51.0439 62.82 51.3032C62.9275 51.5624 63.0851 51.7979 63.2837 51.9962L63.2836 51.9962L63.2878 52.0002C63.6938 52.3873 64.2332 52.6033 64.7942 52.6033C65.3551 52.6033 65.8946 52.3873 66.3006 52.0002L66.3006 52.0003L66.3047 51.9962L76.0331 42.2837L76.0331 42.2838L76.0359 42.2809C76.2313 42.0795 76.3847 41.8413 76.4873 41.5802C76.5897 41.3197 76.6394 41.0415 76.6336 40.7618ZM76.6336 40.7618C76.6336 40.761 76.6336 40.7603 76.6336 40.7596L76.3836 40.765L76.6336 40.764C76.6336 40.7632 76.6336 40.7625 76.6336 40.7618Z" fill="#3C7CFF" stroke="#3C7CFF" stroke-width="0.5"/>
<path d="M94.3812 15.4933L94.3811 15.4871C94.372 15.1186 94.2903 14.7555 94.1409 14.4185C93.9914 14.0816 93.777 13.7774 93.5099 13.5233C93.2428 13.2693 92.9282 13.0703 92.5842 12.9379C92.2412 12.8058 91.8756 12.7424 91.5082 12.7513H10.5088C10.1402 12.7402 9.77298 12.8018 9.42821 12.9328C9.08217 13.0641 8.76555 13.2627 8.49659 13.517C8.22763 13.7713 8.01164 14.0763 7.86106 14.4144C7.71048 14.7525 7.62828 15.1171 7.61922 15.4872L7.61914 15.4872V15.4933V66.0524C7.61914 66.7966 7.91476 67.5103 8.44097 68.0365C8.96718 68.5627 9.68088 68.8583 10.4251 68.8583H91.5082C91.8815 68.8672 92.2528 68.8015 92.6004 68.6651C92.949 68.5283 93.2666 68.3231 93.5347 68.0616C93.8027 67.8001 94.0157 67.4876 94.161 67.1426C94.3064 66.7975 94.3812 66.4268 94.3811 66.0523L94.3812 15.4933ZM90.6862 65.2912H11.314V16.2704H90.6862V65.2912Z" fill="#3C7CFF" stroke="#3C7CFF" stroke-width="0.5"/>
<path d="M68.1829 77.1491V77.5061C68.1829 77.9961 67.9883 78.466 67.6418 78.8125C67.2954 79.1589 66.8256 79.3535 66.3358 79.3536L66.3361 79.3536L66.3355 79.1036V79.3536L68.1829 77.1491ZM68.1829 77.1491H97.619L97.6189 80.2218L97.6191 80.2281C97.6289 80.6209 97.56 81.0118 97.4164 81.3776C97.2728 81.7435 97.0575 82.0769 96.783 82.3582C96.5086 82.6395 96.1806 82.863 95.8184 83.0156C95.4563 83.1681 95.0672 83.2467 94.6742 83.2466H7.38978H7.3897C6.9967 83.2467 6.60765 83.1681 6.24547 83.0156C5.88329 82.863 5.55532 82.6395 5.28088 82.3582C5.00644 82.0769 4.79108 81.7435 4.64749 81.3776C4.5039 81.0118 4.43499 80.6209 4.44481 80.228L4.44489 80.2281V80.2218V77.1491H33.865H68.1829ZM35.658 73.5662L35.658 73.566H35.6486H2.59744C2.10747 73.566 1.63757 73.7607 1.2911 74.1071C0.944641 74.4536 0.75 74.9235 0.75 75.4135V80.2058C0.75 81.9668 1.44955 83.6557 2.69475 84.9009C3.93995 86.1461 5.6288 86.8456 7.38978 86.8456H94.6102C96.3712 86.8456 98.0601 86.1461 99.3053 84.9009C100.55 83.6557 101.25 81.9668 101.25 80.2058V75.3017C101.25 74.8117 101.055 74.3418 100.709 73.9953L100.532 74.1718L100.709 73.9953C100.362 73.6489 99.8925 73.4542 99.4026 73.4542H66.3514C65.8615 73.4542 65.3916 73.6489 65.0451 73.9953C64.6986 74.3418 64.504 74.8117 64.504 75.3017V75.7386H37.4321V75.3017V75.293L37.4315 75.2843C37.3999 74.8296 37.2013 74.4026 36.8739 74.0854C36.5466 73.7683 36.1135 73.5834 35.658 73.5662Z" fill="#3C7CFF" stroke="#3C7CFF" stroke-width="0.5"/>
</svg>
