<svg width="99" height="100" viewBox="0 0 99 100" fill="none" xmlns="http://www.w3.org/2000/svg">
<path d="M10.0273 100H88.4805C94.0078 100 98.5039 95.5 98.5039 89.9727C98.5039 58.6864 98.5039 23.1535 98.5039 10.0273C98.5039 4.5 94.0078 0 88.4805 0H10.0234C4.49609 0 0 4.5 0 10.0273C0 23.1553 0 58.6861 0 89.9727C0 95.5 4.5 100 10.0273 100ZM94.5039 89.9727C94.5039 93.2969 91.8008 96 88.4805 96H10.0273C6.70307 96 4 93.2969 4 89.9727V20.3203H94.5039V89.9727ZM4 10.0273C4 6.70312 6.70307 4 10.0234 4H88.4805C91.8008 4 94.5039 6.70312 94.5039 10.0273V16.3203H4V10.0273Z" fill="#3C7CFF"/>
<path d="M65.543 8.16016H60.3867C59.2812 8.16016 58.3867 9.05469 58.3867 10.1602C58.3867 11.2656 59.2812 12.1602 60.3867 12.1602H65.543C66.6484 12.1602 67.543 11.2656 67.543 10.1602C67.543 9.05469 66.6484 8.16016 65.543 8.16016Z" fill="#3C7CFF"/>
<path d="M76.5234 8.16016H71.3672C70.2617 8.16016 69.3672 9.05469 69.3672 10.1602C69.3672 11.2656 70.2617 12.1602 71.3672 12.1602H76.5234C77.6289 12.1602 78.5234 11.2656 78.5234 10.1602C78.5234 9.05469 77.6289 8.16016 76.5234 8.16016Z" fill="#3C7CFF"/>
<path d="M87.5078 8.16016H82.3477C81.2422 8.16016 80.3477 9.05469 80.3477 10.1602C80.3477 11.2656 81.2422 12.1602 82.3477 12.1602H87.5078C88.6133 12.1602 89.5078 11.2656 89.5078 10.1602C89.5078 9.05469 88.6133 8.16016 87.5078 8.16016Z" fill="#3C7CFF"/>
<path d="M15.3789 66.082H30.3867C31.998 66.082 33.3521 65.2197 34.2026 63.9844H39.2095C41.8774 75.929 52.302 84.4648 64.7656 84.4648C79.2578 84.4648 91.0469 72.6523 91.0469 58.1367C91.0469 43.6445 79.2578 31.8555 64.7656 31.8555C52.5002 31.8555 41.8547 40.5898 39.2126 52.3359H34.2007C33.3499 51.1033 31.9968 50.2422 30.3867 50.2422H15.3789C11.0117 50.2422 7.45703 53.793 7.45703 58.1602C7.45703 62.5273 11.0117 66.082 15.3789 66.082ZM64.7656 35.8555C77.0508 35.8555 87.0469 45.8516 87.0469 58.1367C87.0469 70.4492 77.0508 80.4648 64.7656 80.4648C53.6953 80.4648 44.4297 72.5625 42.7305 61.6172C42.5352 60.5742 42.4414 59.4336 42.4414 58.1367C42.4414 56.8711 42.5352 55.7461 42.7422 54.6445C44.4102 43.9336 53.8789 35.8555 64.7656 35.8555ZM35.1172 56.3359H38.5C38.4609 56.9141 38.4414 57.5117 38.4414 58.1367C38.4414 58.7812 38.4609 59.3945 38.5039 59.9844H35.1172V56.3359ZM15.3789 54.2422H30.3867C30.7812 54.2422 31.1016 54.5625 31.1016 54.9531V61.3672C31.1016 61.7617 30.7812 62.082 30.3867 62.082H15.3789C13.2148 62.082 11.457 60.3242 11.457 58.1602C11.457 56 13.2148 54.2422 15.3789 54.2422Z" fill="#3C7CFF"/>
<path d="M49.3832 59.6483C47.8129 60.2538 46.9808 62.0233 47.4847 63.66C47.6683 64.2733 47.8988 64.8436 48.2855 65.7694C49.0277 67.2538 50.7347 67.9413 52.4261 67.371C53.1254 67.0975 53.9496 67.289 54.5199 67.8593C55.0902 68.4179 55.2621 69.2733 54.973 70.0038C54.2894 71.6366 54.93 73.4686 56.4535 74.2577C57.1058 74.6015 57.7543 74.8788 58.391 75.1093C59.9847 75.7421 61.7972 74.9921 62.5121 73.4218C63.2074 71.9335 65.6254 71.9413 66.2464 73.578C66.7582 74.8202 67.9769 75.578 69.2386 75.578C69.5785 75.578 69.9222 75.5233 70.2543 75.41C70.973 75.1874 71.6644 74.9335 72.2972 74.6366C73.8168 73.9413 74.5394 72.1874 73.973 70.5311C73.6957 69.7655 73.8675 68.9452 74.4105 68.4022C75.0199 67.8124 75.8793 67.6483 76.6527 67.9608C78.2543 68.5858 80.0629 67.9491 80.848 66.453C81.1761 65.828 81.4457 65.203 81.7543 64.4296C82.2933 62.8202 81.5589 61.121 79.9769 60.3671C79.2621 60.0468 78.8168 59.3475 78.8168 58.5468C78.8168 57.7108 79.3324 56.9725 80.1488 56.6522C81.7464 56.0038 82.5433 54.2069 81.9847 52.6132C81.766 51.9296 81.516 51.246 81.2308 50.6561C80.5355 49.0624 78.7034 48.3358 77.1254 48.9491C76.348 49.2186 75.5316 49.0546 74.9847 48.5077C74.3988 47.9061 74.2269 47.0546 74.5355 46.2968C75.2113 44.664 74.5668 42.8358 72.9808 42.0155C72.3558 41.7147 71.7191 41.4218 71.0824 41.1874C69.473 40.5858 67.7152 41.3241 66.9574 42.9296C66.2972 44.3593 63.8519 44.3046 63.2425 42.785C62.6254 41.2069 60.891 40.3905 59.2308 40.8983L59.1957 40.9061C58.5394 41.1171 57.8832 41.3866 57.1722 41.6913C55.6332 42.4296 54.9339 44.2108 55.5355 45.8085C55.805 46.5468 55.6254 47.3749 55.0746 47.9218C54.4886 48.5077 53.6332 48.6718 52.8871 48.3905C51.2582 47.7108 49.4339 48.3475 48.5511 50.0429C48.2699 50.6366 47.9925 51.2343 47.7777 51.8202C47.1488 53.4374 47.93 55.2538 49.4808 55.9218C50.1996 56.2616 50.6605 56.9882 50.6605 57.7616C50.6605 58.5975 50.1488 59.3515 49.3832 59.6483ZM54.6605 57.7616C54.6605 55.6874 53.5629 53.746 51.766 52.6249C51.8129 52.5077 51.8675 52.3944 51.9183 52.2772C54.0511 52.8827 56.3402 52.3124 57.8988 50.7538C59.391 49.2694 59.9808 47.0975 59.4808 45.0585C59.598 45.0116 59.7152 44.9647 59.8363 44.9218C60.8871 46.8593 62.8949 48.0741 65.1332 48.0741C67.266 48.0741 69.2269 46.9491 70.2894 45.1757C70.4066 45.2304 70.5238 45.2811 70.641 45.3319C70.016 47.4257 70.5746 49.7147 72.141 51.3202C73.6175 52.7968 75.7894 53.3788 77.8441 52.8944C77.891 53.0155 77.9339 53.1327 77.9808 53.2538C76.0355 54.3046 74.8168 56.3085 74.8168 58.5468C74.8168 60.6835 75.9496 62.6483 77.7308 63.703C77.68 63.8202 77.6254 63.9335 77.5746 64.0507C75.4925 63.4413 73.2034 63.9882 71.598 65.5585C70.1058 67.0507 69.5199 69.2421 70.016 71.2616C69.8949 71.3085 69.7699 71.3554 69.6449 71.3983C68.6175 69.4804 66.5863 68.2343 64.3714 68.2343C62.2308 68.2343 60.3129 69.3241 59.2074 71.1366C59.0902 71.0858 58.9769 71.035 58.8597 70.9843C59.4847 68.8515 58.9105 66.5546 57.3324 65.0155C55.8089 63.4921 53.6058 62.914 51.641 63.4218C51.5941 63.3046 51.5472 63.1874 51.5043 63.0663C53.4183 62.035 54.6605 59.9882 54.6605 57.7616Z" fill="#3C7CFF"/>
<path d="M64.75 66.1211C69.1367 66.1211 72.7031 62.5547 72.7031 58.168C72.7031 53.7812 69.1367 50.2148 64.75 50.2148C60.3672 50.2148 56.8008 53.7812 56.8008 58.168C56.8008 62.5547 60.3672 66.1211 64.75 66.1211ZM64.75 54.2148C66.9297 54.2148 68.7031 55.9883 68.7031 58.168C68.7031 60.3477 66.9297 62.1211 64.75 62.1211C62.5742 62.1211 60.8008 60.3477 60.8008 58.168C60.8008 55.9883 62.5742 54.2148 64.75 54.2148Z" fill="#3C7CFF"/>
</svg>
