<svg width="99" height="100" viewBox="0 0 99 100" fill="none" xmlns="http://www.w3.org/2000/svg">
<path d="M33.7808 14.36C35.4228 13.654 37.1318 13.056 38.8598 12.584C39.7298 12.346 40.3328 11.556 40.3328 10.655V4H57.9488V10.655C57.9488 11.556 58.5518 12.346 59.4218 12.584C61.4838 13.147 63.5118 13.888 65.4518 14.785C65.7238 14.91 66.0088 14.97 66.2898 14.97C67.0458 14.97 67.7688 14.54 68.1068 13.809C68.5698 12.806 68.1328 11.618 67.1308 11.154C65.4538 10.379 63.7168 9.71 61.9498 9.157V2C61.9498 0.896 61.0538 0 59.9498 0H38.3328C37.2288 0 36.3328 0.896 36.3328 2V9.157C34.9288 9.595 33.5448 10.108 32.2008 10.685C31.1858 11.122 30.7178 12.298 31.1538 13.312C31.5908 14.328 32.7678 14.797 33.7808 14.36Z" fill="#3C7CFF"/>
<path d="M97.2809 62.949L90.9759 59.317C91.6519 56.281 91.9939 53.156 91.9939 50.006C91.9939 46.858 91.6519 43.729 90.9749 40.684L97.2809 37.052C97.7409 36.787 98.0769 36.349 98.2149 35.836C98.3519 35.322 98.2789 34.775 98.0129 34.316L94.4399 28.157C93.8859 27.202 92.6619 26.876 91.7069 27.43C90.7519 27.984 90.4259 29.208 90.9799 30.163L93.5459 34.587L87.6819 37.965C86.9019 38.415 86.5179 39.331 86.7449 40.202C87.5739 43.382 87.9939 46.681 87.9939 50.005C87.9939 53.333 87.5739 56.627 86.7449 59.796C86.5169 60.668 86.9009 61.585 87.6819 62.035L93.5459 65.413L89.6919 72.057C89.1379 73.012 89.4629 74.236 90.4189 74.79C90.7349 74.973 91.0799 75.061 91.4199 75.061C92.1099 75.061 92.7809 74.704 93.1519 74.064L98.0129 65.685C98.2799 65.226 98.3519 64.679 98.2149 64.165C98.0769 63.652 97.7409 63.214 97.2809 62.949Z" fill="#3C7CFF"/>
<path d="M64.6429 85.588C62.9579 86.321 61.2009 86.94 59.4209 87.426C58.5519 87.664 57.9489 88.454 57.9489 89.355V96H40.3329V89.355C40.3329 88.454 39.7299 87.664 38.8609 87.426C37.4189 87.032 35.9879 86.55 34.6089 85.994C33.5849 85.582 32.4199 86.077 32.0059 87.101C31.5929 88.125 32.0889 89.29 33.1129 89.704C34.1639 90.128 35.2419 90.513 36.3319 90.853V98C36.3319 99.104 37.2279 100 38.3319 100H59.9479C61.0519 100 61.9479 99.104 61.9479 98V90.853C63.4069 90.397 64.8439 89.862 66.2379 89.256C67.2509 88.816 67.7149 87.637 67.2739 86.624C66.8349 85.611 65.6579 85.149 64.6429 85.588Z" fill="#3C7CFF"/>
<path d="M7.66285 76.441C8.00285 76.441 8.34886 76.354 8.66385 76.17C9.61985 75.616 9.94485 74.392 9.39085 73.437L4.73685 65.415L10.5979 62.046C11.3799 61.597 11.7639 60.68 11.5369 59.808C10.7079 56.629 10.2879 53.331 10.2879 50.005C10.2879 46.672 10.7079 43.371 11.5369 40.192C11.7639 39.319 11.3799 38.403 10.5979 37.954L4.73785 34.585L7.83185 29.251C8.38585 28.296 8.06085 27.072 7.10485 26.518C6.14985 25.964 4.92585 26.289 4.37185 27.245L0.269854 34.316C0.00285384 34.776 -0.0691458 35.323 0.0678542 35.837C0.205854 36.351 0.542854 36.788 1.00385 37.053L7.30685 40.676C6.63085 43.719 6.28885 46.851 6.28885 50.006C6.28885 53.154 6.63085 56.282 7.30685 59.325L1.00385 62.948C0.542854 63.213 0.205855 63.651 0.0688546 64.164C-0.0691454 64.678 0.00385424 65.225 0.270854 65.685L5.93185 75.444C6.30185 76.084 6.97285 76.441 7.66285 76.441Z" fill="#3C7CFF"/>
<path d="M83.6418 72.4641C83.6208 72.4191 83.5908 72.382 83.5678 72.34C83.5338 72.2801 83.5018 72.2211 83.4628 72.1641C83.4218 72.1061 83.3758 72.0551 83.3298 72.0021C83.2998 71.9681 83.2768 71.9301 83.2448 71.8991L37.7968 26.5791C41.3178 24.8791 45.1898 23.9761 49.1428 23.9761C53.0928 23.9761 56.9618 24.8801 60.4798 26.5801L54.0968 32.9321C53.3138 33.7111 53.3108 34.9771 54.0898 35.7601C54.8678 36.5441 56.1348 36.5471 56.9178 35.7671L65.1668 27.5591C65.1708 27.5551 65.1748 27.5511 65.1788 27.5471L72.9028 19.8611L79.6898 26.6291L71.9988 34.2821C71.9728 34.3051 71.9498 34.3311 71.9258 34.3551L63.7088 42.5311C62.9258 43.3101 62.9228 44.5761 63.7018 45.3591C64.0928 45.7521 64.6058 45.9481 65.1188 45.9481C65.6288 45.9481 66.1398 45.7541 66.5298 45.3651L72.8018 39.1241C74.3668 42.5201 75.1978 46.2321 75.1978 50.0081C75.1978 51.6261 75.0478 53.2461 74.7528 54.8221C74.5498 55.9081 75.2648 56.9531 76.3508 57.1561C76.4758 57.1791 76.5998 57.1911 76.7218 57.1911C77.6648 57.1911 78.5048 56.5201 78.6848 55.5591C79.0248 53.7401 79.1978 51.8721 79.1978 50.0081C79.1978 45.1641 78.0198 40.4061 75.7968 36.1431L83.8508 28.1291C83.8818 28.1011 83.9178 28.0801 83.9478 28.0501C83.9758 28.0221 83.9948 27.9891 84.0208 27.9601L91.7368 20.2821C93.3988 18.6251 94.3148 16.4211 94.3148 14.0761C94.3148 11.7311 93.3988 9.52705 91.7258 7.85705C88.2988 4.44105 82.7228 4.43905 79.2958 7.85605L63.4638 23.6121C59.0828 21.2361 54.1688 19.9761 49.1438 19.9761C44.1178 19.9761 39.2018 21.2361 34.8198 23.6101L26.8168 15.6301L26.8158 15.6291L26.8138 15.6281L19.0178 7.85305C15.5908 4.43505 10.0148 4.43405 6.58483 7.85505L6.57383 7.86605C4.91183 9.52305 3.99683 11.7271 3.99683 14.0721C3.99683 16.4171 4.91283 18.6211 6.57483 20.2781L60.0658 73.6201C56.6588 75.1911 52.9328 76.0271 49.1438 76.0271C45.3568 76.0271 41.6348 75.1951 38.2308 73.6291L43.9468 67.9211C44.7288 67.1411 44.7298 65.8741 43.9488 65.0931C43.1688 64.3121 41.9028 64.3101 41.1208 65.0911L26.0998 80.0881L19.3138 73.3211L34.3338 58.3201C35.1158 57.5401 35.1168 56.273 34.3358 55.4921C33.5558 54.7111 32.2898 54.7091 31.5078 55.4901L25.6738 61.3161C23.9748 57.8061 23.0728 53.9471 23.0728 50.0081C23.0728 48.5391 23.1958 47.0671 23.4388 45.6331C23.6238 44.5441 22.8898 43.5111 21.8008 43.3271C20.7118 43.1411 19.6788 43.8761 19.4948 44.9651C19.2148 46.6191 19.0728 48.3161 19.0728 50.0081C19.0728 55.0161 20.3308 59.9161 22.7008 64.2851L15.0698 71.9061L15.0688 71.9071L15.0668 71.909C14.9138 72.063 14.7998 72.2381 14.7068 72.4221C14.6978 72.44 14.6818 72.4521 14.6728 72.4701L6.17783 90.5331C5.81983 91.2951 5.97682 92.2001 6.57282 92.7971C6.95582 93.1821 7.46882 93.3841 7.98882 93.3841C8.27583 93.3841 8.56483 93.3221 8.83582 93.1961L26.9498 84.7251C26.9668 84.717 26.9778 84.7021 26.9938 84.6941C27.1788 84.6011 27.3558 84.4861 27.5108 84.3321L27.5148 84.3291L35.2378 76.6161C39.5118 78.843 44.2838 80.0251 49.1448 80.0251C54.0068 80.0251 58.7838 78.8391 63.0608 76.604L70.8018 84.3241C70.8328 84.355 70.8698 84.3781 70.9028 84.4061C70.9568 84.453 71.0098 84.5001 71.0688 84.5411C71.1298 84.5841 71.1938 84.619 71.2588 84.6541C71.2958 84.674 71.3278 84.7001 71.3668 84.7191L89.4808 93.1901C89.7518 93.3171 90.0408 93.3781 90.3278 93.3781C90.8478 93.3781 91.3608 93.1751 91.7438 92.7911C92.3388 92.1951 92.4968 91.2901 92.1388 90.5271L83.6418 72.4641ZM82.1198 10.6901C83.9898 8.82405 87.0318 8.82605 88.9138 10.7021C89.8178 11.6041 90.3158 12.8021 90.3158 14.0761C90.3158 15.3501 89.8178 16.5481 88.9158 17.4491L82.5258 23.8071L75.7388 17.0401L82.1198 10.6901ZM17.0818 76.7441L22.6648 82.312L12.1508 87.229L17.0818 76.7441ZM72.2128 80.0831L18.6128 26.6321L25.3998 19.8641L78.9998 73.3151L72.2128 80.0831ZM7.99683 14.0701C7.99683 12.7961 8.49482 11.5981 9.39882 10.6961L9.41083 10.6841C10.3458 9.75205 11.5738 9.28605 12.8018 9.28605C14.0298 9.28605 15.2578 9.75205 16.1928 10.6841L22.5668 17.0401L15.7798 23.8081L9.39783 17.4441C8.49483 16.5421 7.99683 15.3441 7.99683 14.0701ZM75.6478 82.3061L81.2308 76.7381L86.1618 87.2231L75.6478 82.3061Z" fill="#3C7CFF"/>
</svg>
