<svg width="102" height="77" viewBox="0 0 102 77" fill="none" xmlns="http://www.w3.org/2000/svg">
<mask id="path-1-outside-1_177_705" maskUnits="userSpaceOnUse" x="0" y="0" width="102" height="77" fill="black">
<rect fill="white" width="102" height="77"/>
<path d="M93.7944 1H8.20556C4.23222 1 1 4.21735 1 8.1713V68.8287C1 72.7826 4.23222 76 8.20556 76H93.7944C97.7678 76 101 72.7826 101 68.8287V8.1713C101 4.21735 97.7678 1 93.7944 1ZM8.20556 3.58472H93.7944C96.3356 3.58472 98.4022 5.64188 98.4022 8.1713V14.0574H3.59778V8.1713C3.59778 5.64298 5.66444 3.58472 8.20556 3.58472ZM93.7944 73.4153H8.20556C5.66444 73.4153 3.59778 71.3581 3.59778 68.8287V16.6421H98.4033V68.8287C98.4022 71.357 96.3356 73.4153 93.7944 73.4153ZM95.0933 46.9144C95.0933 47.6289 94.5122 48.2074 93.7944 48.2074H67.3956C66.6778 48.2074 66.0967 47.6289 66.0967 46.9144C66.0967 46.2 66.6778 45.6215 67.3956 45.6215H93.7944C94.5122 45.6215 95.0933 46.2 95.0933 46.9144ZM95.0933 54.3645C95.0933 55.0789 94.5122 55.6574 93.7944 55.6574H67.3956C66.6778 55.6574 66.0967 55.0789 66.0967 54.3645C66.0967 53.65 66.6778 53.0715 67.3956 53.0715H93.7944C94.5122 53.0715 95.0933 53.65 95.0933 54.3645ZM95.0933 61.8145C95.0933 62.5289 94.5122 63.1074 93.7944 63.1074H77.1267C76.4089 63.1074 75.8278 62.5289 75.8278 61.8145C75.8278 61.1 76.4089 60.5215 77.1267 60.5215H93.7956C94.5122 60.5215 95.0933 61.1011 95.0933 61.8145ZM49.6822 22.1909C47.5989 22.1909 45.6444 22.9939 44.1811 24.4516L41.9989 26.6238L41.9978 26.6249L41.9967 26.626L39.6133 28.9984L28.95 30.7834C27.6578 30.9991 25.8022 32.2688 24.7122 33.3538L17.2922 40.7397C16.8478 41.1809 15.4989 42.5247 16.1567 43.7966C16.2678 44.0123 16.6789 44.6449 17.6411 44.6449C17.7689 44.6449 17.9056 44.6339 18.0533 44.6095L25.1189 43.4261L23.2333 45.3019C22.1456 46.3847 22.1467 48.1465 23.2333 49.2282L30.2911 56.2535C30.8344 56.7943 31.5489 57.0653 32.2644 57.0653C32.9789 57.0653 33.6933 56.7943 34.2367 56.2535L36.1233 54.3755L34.9356 61.4086C34.7233 62.6628 35.5056 63.1704 35.7511 63.2954C35.9944 63.4204 36.24 63.4724 36.4811 63.4724C37.5089 63.4724 38.4633 62.5223 38.8222 62.1651L46.2422 54.7792C47.3322 53.6942 48.6067 51.8483 48.8244 50.5609L50.6178 39.9478L55.1844 35.4021C58.2178 32.3827 58.2178 27.4699 55.1844 24.4505C53.7189 22.9939 51.7656 22.1909 49.6822 22.1909ZM26.55 35.1809C27.5633 34.1722 28.9044 33.4113 29.3811 33.3317L36.4478 32.1483L28.2856 40.2718L20.0478 41.651L26.55 35.1809ZM32.4 54.4264C32.3267 54.4983 32.2 54.4983 32.1267 54.4264L25.0689 47.4011C24.9967 47.3292 24.9967 47.202 25.0689 47.1301L29.8278 42.3931L29.8289 42.392L35.5433 36.7039L42.9156 29.3656L50.2456 36.6618L48.4867 38.4126L37.1589 49.6894L37.1578 49.6905L32.4 54.4264ZM46.2622 50.134C46.1822 50.6096 45.4189 51.9434 44.4056 52.9521L37.9044 59.4233L39.29 51.2245L47.4522 43.0999L46.2622 50.134ZM53.3478 33.5761L52.0833 34.8347L44.7533 27.5384L46.0178 26.2798C46.9922 25.3099 48.2933 24.7768 49.6833 24.7768C51.0722 24.7768 52.3744 25.311 53.3489 26.2798C54.3222 27.2498 54.8589 28.5449 54.8589 29.9285C54.8578 31.311 54.3211 32.6061 53.3478 33.5761ZM29.8056 57.1084C30.3133 57.6128 30.3133 58.4323 29.8056 58.9366L21.2144 67.4882C20.9611 67.7404 20.6289 67.8665 20.2967 67.8665C19.9644 67.8665 19.6322 67.7404 19.3789 67.4882C18.8711 66.9839 18.8711 66.1644 19.3789 65.66L27.97 57.1084C28.4756 56.6041 29.2978 56.6041 29.8056 57.1084ZM19.0567 61.705C18.7244 61.705 18.3922 61.5789 18.1389 61.3267C17.6311 60.8224 17.6311 60.0039 18.1389 59.4985L24.2533 53.4111C24.7611 52.9056 25.5822 52.9056 26.09 53.4111C26.5978 53.9154 26.5978 54.7339 26.09 55.2393L19.9756 61.3267C19.7211 61.5789 19.3889 61.705 19.0567 61.705ZM22.3756 51.5408L13.7844 60.0924C13.5311 60.3446 13.1989 60.4707 12.8667 60.4707C12.5344 60.4707 12.2022 60.3446 11.9489 60.0924C11.4411 59.5881 11.4411 58.7685 11.9489 58.2642L20.54 49.7126C21.0478 49.2072 21.8689 49.2072 22.3767 49.7126C22.8833 50.2181 22.8833 51.0365 22.3756 51.5408ZM12.82 8.82163C12.82 8.10715 13.4011 7.52871 14.1189 7.52871H18.62C19.3378 7.52871 19.9189 8.10715 19.9189 8.82163C19.9189 9.5361 19.3378 10.1145 18.62 10.1145H14.1189C13.4011 10.1134 12.82 9.535 12.82 8.82163ZM24.6689 8.82163C24.6689 8.10715 25.25 7.52871 25.9678 7.52871H30.4689C31.1867 7.52871 31.7678 8.10715 31.7678 8.82163C31.7678 9.5361 31.1867 10.1145 30.4689 10.1145H25.9678C25.2511 10.1134 24.6689 9.535 24.6689 8.82163Z"/>
</mask>
<path d="M93.7944 1H8.20556C4.23222 1 1 4.21735 1 8.1713V68.8287C1 72.7826 4.23222 76 8.20556 76H93.7944C97.7678 76 101 72.7826 101 68.8287V8.1713C101 4.21735 97.7678 1 93.7944 1ZM8.20556 3.58472H93.7944C96.3356 3.58472 98.4022 5.64188 98.4022 8.1713V14.0574H3.59778V8.1713C3.59778 5.64298 5.66444 3.58472 8.20556 3.58472ZM93.7944 73.4153H8.20556C5.66444 73.4153 3.59778 71.3581 3.59778 68.8287V16.6421H98.4033V68.8287C98.4022 71.357 96.3356 73.4153 93.7944 73.4153ZM95.0933 46.9144C95.0933 47.6289 94.5122 48.2074 93.7944 48.2074H67.3956C66.6778 48.2074 66.0967 47.6289 66.0967 46.9144C66.0967 46.2 66.6778 45.6215 67.3956 45.6215H93.7944C94.5122 45.6215 95.0933 46.2 95.0933 46.9144ZM95.0933 54.3645C95.0933 55.0789 94.5122 55.6574 93.7944 55.6574H67.3956C66.6778 55.6574 66.0967 55.0789 66.0967 54.3645C66.0967 53.65 66.6778 53.0715 67.3956 53.0715H93.7944C94.5122 53.0715 95.0933 53.65 95.0933 54.3645ZM95.0933 61.8145C95.0933 62.5289 94.5122 63.1074 93.7944 63.1074H77.1267C76.4089 63.1074 75.8278 62.5289 75.8278 61.8145C75.8278 61.1 76.4089 60.5215 77.1267 60.5215H93.7956C94.5122 60.5215 95.0933 61.1011 95.0933 61.8145ZM49.6822 22.1909C47.5989 22.1909 45.6444 22.9939 44.1811 24.4516L41.9989 26.6238L41.9978 26.6249L41.9967 26.626L39.6133 28.9984L28.95 30.7834C27.6578 30.9991 25.8022 32.2688 24.7122 33.3538L17.2922 40.7397C16.8478 41.1809 15.4989 42.5247 16.1567 43.7966C16.2678 44.0123 16.6789 44.6449 17.6411 44.6449C17.7689 44.6449 17.9056 44.6339 18.0533 44.6095L25.1189 43.4261L23.2333 45.3019C22.1456 46.3847 22.1467 48.1465 23.2333 49.2282L30.2911 56.2535C30.8344 56.7943 31.5489 57.0653 32.2644 57.0653C32.9789 57.0653 33.6933 56.7943 34.2367 56.2535L36.1233 54.3755L34.9356 61.4086C34.7233 62.6628 35.5056 63.1704 35.7511 63.2954C35.9944 63.4204 36.24 63.4724 36.4811 63.4724C37.5089 63.4724 38.4633 62.5223 38.8222 62.1651L46.2422 54.7792C47.3322 53.6942 48.6067 51.8483 48.8244 50.5609L50.6178 39.9478L55.1844 35.4021C58.2178 32.3827 58.2178 27.4699 55.1844 24.4505C53.7189 22.9939 51.7656 22.1909 49.6822 22.1909ZM26.55 35.1809C27.5633 34.1722 28.9044 33.4113 29.3811 33.3317L36.4478 32.1483L28.2856 40.2718L20.0478 41.651L26.55 35.1809ZM32.4 54.4264C32.3267 54.4983 32.2 54.4983 32.1267 54.4264L25.0689 47.4011C24.9967 47.3292 24.9967 47.202 25.0689 47.1301L29.8278 42.3931L29.8289 42.392L35.5433 36.7039L42.9156 29.3656L50.2456 36.6618L48.4867 38.4126L37.1589 49.6894L37.1578 49.6905L32.4 54.4264ZM46.2622 50.134C46.1822 50.6096 45.4189 51.9434 44.4056 52.9521L37.9044 59.4233L39.29 51.2245L47.4522 43.0999L46.2622 50.134ZM53.3478 33.5761L52.0833 34.8347L44.7533 27.5384L46.0178 26.2798C46.9922 25.3099 48.2933 24.7768 49.6833 24.7768C51.0722 24.7768 52.3744 25.311 53.3489 26.2798C54.3222 27.2498 54.8589 28.5449 54.8589 29.9285C54.8578 31.311 54.3211 32.6061 53.3478 33.5761ZM29.8056 57.1084C30.3133 57.6128 30.3133 58.4323 29.8056 58.9366L21.2144 67.4882C20.9611 67.7404 20.6289 67.8665 20.2967 67.8665C19.9644 67.8665 19.6322 67.7404 19.3789 67.4882C18.8711 66.9839 18.8711 66.1644 19.3789 65.66L27.97 57.1084C28.4756 56.6041 29.2978 56.6041 29.8056 57.1084ZM19.0567 61.705C18.7244 61.705 18.3922 61.5789 18.1389 61.3267C17.6311 60.8224 17.6311 60.0039 18.1389 59.4985L24.2533 53.4111C24.7611 52.9056 25.5822 52.9056 26.09 53.4111C26.5978 53.9154 26.5978 54.7339 26.09 55.2393L19.9756 61.3267C19.7211 61.5789 19.3889 61.705 19.0567 61.705ZM22.3756 51.5408L13.7844 60.0924C13.5311 60.3446 13.1989 60.4707 12.8667 60.4707C12.5344 60.4707 12.2022 60.3446 11.9489 60.0924C11.4411 59.5881 11.4411 58.7685 11.9489 58.2642L20.54 49.7126C21.0478 49.2072 21.8689 49.2072 22.3767 49.7126C22.8833 50.2181 22.8833 51.0365 22.3756 51.5408ZM12.82 8.82163C12.82 8.10715 13.4011 7.52871 14.1189 7.52871H18.62C19.3378 7.52871 19.9189 8.10715 19.9189 8.82163C19.9189 9.5361 19.3378 10.1145 18.62 10.1145H14.1189C13.4011 10.1134 12.82 9.535 12.82 8.82163ZM24.6689 8.82163C24.6689 8.10715 25.25 7.52871 25.9678 7.52871H30.4689C31.1867 7.52871 31.7678 8.10715 31.7678 8.82163C31.7678 9.5361 31.1867 10.1145 30.4689 10.1145H25.9678C25.2511 10.1134 24.6689 9.535 24.6689 8.82163Z" fill="#3C7CFF"/>
<path d="M93.7944 1H8.20556C4.23222 1 1 4.21735 1 8.1713V68.8287C1 72.7826 4.23222 76 8.20556 76H93.7944C97.7678 76 101 72.7826 101 68.8287V8.1713C101 4.21735 97.7678 1 93.7944 1ZM8.20556 3.58472H93.7944C96.3356 3.58472 98.4022 5.64188 98.4022 8.1713V14.0574H3.59778V8.1713C3.59778 5.64298 5.66444 3.58472 8.20556 3.58472ZM93.7944 73.4153H8.20556C5.66444 73.4153 3.59778 71.3581 3.59778 68.8287V16.6421H98.4033V68.8287C98.4022 71.357 96.3356 73.4153 93.7944 73.4153ZM95.0933 46.9144C95.0933 47.6289 94.5122 48.2074 93.7944 48.2074H67.3956C66.6778 48.2074 66.0967 47.6289 66.0967 46.9144C66.0967 46.2 66.6778 45.6215 67.3956 45.6215H93.7944C94.5122 45.6215 95.0933 46.2 95.0933 46.9144ZM95.0933 54.3645C95.0933 55.0789 94.5122 55.6574 93.7944 55.6574H67.3956C66.6778 55.6574 66.0967 55.0789 66.0967 54.3645C66.0967 53.65 66.6778 53.0715 67.3956 53.0715H93.7944C94.5122 53.0715 95.0933 53.65 95.0933 54.3645ZM95.0933 61.8145C95.0933 62.5289 94.5122 63.1074 93.7944 63.1074H77.1267C76.4089 63.1074 75.8278 62.5289 75.8278 61.8145C75.8278 61.1 76.4089 60.5215 77.1267 60.5215H93.7956C94.5122 60.5215 95.0933 61.1011 95.0933 61.8145ZM49.6822 22.1909C47.5989 22.1909 45.6444 22.9939 44.1811 24.4516L41.9989 26.6238L41.9978 26.6249L41.9967 26.626L39.6133 28.9984L28.95 30.7834C27.6578 30.9991 25.8022 32.2688 24.7122 33.3538L17.2922 40.7397C16.8478 41.1809 15.4989 42.5247 16.1567 43.7966C16.2678 44.0123 16.6789 44.6449 17.6411 44.6449C17.7689 44.6449 17.9056 44.6339 18.0533 44.6095L25.1189 43.4261L23.2333 45.3019C22.1456 46.3847 22.1467 48.1465 23.2333 49.2282L30.2911 56.2535C30.8344 56.7943 31.5489 57.0653 32.2644 57.0653C32.9789 57.0653 33.6933 56.7943 34.2367 56.2535L36.1233 54.3755L34.9356 61.4086C34.7233 62.6628 35.5056 63.1704 35.7511 63.2954C35.9944 63.4204 36.24 63.4724 36.4811 63.4724C37.5089 63.4724 38.4633 62.5223 38.8222 62.1651L46.2422 54.7792C47.3322 53.6942 48.6067 51.8483 48.8244 50.5609L50.6178 39.9478L55.1844 35.4021C58.2178 32.3827 58.2178 27.4699 55.1844 24.4505C53.7189 22.9939 51.7656 22.1909 49.6822 22.1909ZM26.55 35.1809C27.5633 34.1722 28.9044 33.4113 29.3811 33.3317L36.4478 32.1483L28.2856 40.2718L20.0478 41.651L26.55 35.1809ZM32.4 54.4264C32.3267 54.4983 32.2 54.4983 32.1267 54.4264L25.0689 47.4011C24.9967 47.3292 24.9967 47.202 25.0689 47.1301L29.8278 42.3931L29.8289 42.392L35.5433 36.7039L42.9156 29.3656L50.2456 36.6618L48.4867 38.4126L37.1589 49.6894L37.1578 49.6905L32.4 54.4264ZM46.2622 50.134C46.1822 50.6096 45.4189 51.9434 44.4056 52.9521L37.9044 59.4233L39.29 51.2245L47.4522 43.0999L46.2622 50.134ZM53.3478 33.5761L52.0833 34.8347L44.7533 27.5384L46.0178 26.2798C46.9922 25.3099 48.2933 24.7768 49.6833 24.7768C51.0722 24.7768 52.3744 25.311 53.3489 26.2798C54.3222 27.2498 54.8589 28.5449 54.8589 29.9285C54.8578 31.311 54.3211 32.6061 53.3478 33.5761ZM29.8056 57.1084C30.3133 57.6128 30.3133 58.4323 29.8056 58.9366L21.2144 67.4882C20.9611 67.7404 20.6289 67.8665 20.2967 67.8665C19.9644 67.8665 19.6322 67.7404 19.3789 67.4882C18.8711 66.9839 18.8711 66.1644 19.3789 65.66L27.97 57.1084C28.4756 56.6041 29.2978 56.6041 29.8056 57.1084ZM19.0567 61.705C18.7244 61.705 18.3922 61.5789 18.1389 61.3267C17.6311 60.8224 17.6311 60.0039 18.1389 59.4985L24.2533 53.4111C24.7611 52.9056 25.5822 52.9056 26.09 53.4111C26.5978 53.9154 26.5978 54.7339 26.09 55.2393L19.9756 61.3267C19.7211 61.5789 19.3889 61.705 19.0567 61.705ZM22.3756 51.5408L13.7844 60.0924C13.5311 60.3446 13.1989 60.4707 12.8667 60.4707C12.5344 60.4707 12.2022 60.3446 11.9489 60.0924C11.4411 59.5881 11.4411 58.7685 11.9489 58.2642L20.54 49.7126C21.0478 49.2072 21.8689 49.2072 22.3767 49.7126C22.8833 50.2181 22.8833 51.0365 22.3756 51.5408ZM12.82 8.82163C12.82 8.10715 13.4011 7.52871 14.1189 7.52871H18.62C19.3378 7.52871 19.9189 8.10715 19.9189 8.82163C19.9189 9.5361 19.3378 10.1145 18.62 10.1145H14.1189C13.4011 10.1134 12.82 9.535 12.82 8.82163ZM24.6689 8.82163C24.6689 8.10715 25.25 7.52871 25.9678 7.52871H30.4689C31.1867 7.52871 31.7678 8.10715 31.7678 8.82163C31.7678 9.5361 31.1867 10.1145 30.4689 10.1145H25.9678C25.2511 10.1134 24.6689 9.535 24.6689 8.82163Z" stroke="#3C7CFF" stroke-width="1.38" mask="url(#path-1-outside-1_177_705)"/>
</svg>
