<svg width="100" height="100" viewBox="0 0 100 100" fill="none" xmlns="http://www.w3.org/2000/svg">
<path fill-rule="evenodd" clip-rule="evenodd" d="M7.17331 53.6693C6.50774 53.9179 5.7726 53.5727 5.49853 52.887C5.22883 52.1967 5.50723 51.4051 6.14234 51.0737L13.1938 47.9444V47.949C13.8594 47.6959 14.5902 48.041 14.8642 48.7267C15.1383 49.4171 14.8555 50.2132 14.2204 50.54L7.16897 53.6694L7.17331 53.6693ZM9.24832 58.9157L16.2998 55.7863C16.9349 55.4596 17.2176 54.6634 16.9436 53.9731C16.6695 53.2874 15.9344 52.9422 15.2731 53.1953L8.22169 56.3247V56.3201C7.87804 56.4535 7.59528 56.725 7.44738 57.0794C7.29948 57.4338 7.29948 57.8387 7.43868 58.1931C7.58224 58.5521 7.85629 58.8328 8.19994 58.9663C8.53925 59.1043 8.92206 59.086 9.24832 58.9157ZM11.332 64.162C10.6752 64.3691 9.97919 64.0194 9.71382 63.3521C9.44846 62.6894 9.70077 61.9161 10.3011 61.5665L17.3525 58.4371C17.6831 58.2438 18.0746 58.2116 18.4357 58.3405C18.7924 58.4739 19.0795 58.7593 19.2274 59.1274C19.3753 59.5002 19.3666 59.919 19.2057 60.278C19.0447 60.6415 18.7446 60.9176 18.3791 61.0327L11.332 64.162ZM86.8534 54.2445C83.0036 50.1625 76.9613 49.5274 72.4287 52.7304C67.8916 55.9288 66.1254 62.0726 68.2091 67.4016C70.2928 72.7308 75.6434 75.7637 80.9934 74.6407C86.3397 73.5178 90.1938 68.5567 90.1938 62.7898C90.1982 59.5821 88.998 56.5088 86.8534 54.2445ZM78.7753 47.8799C85.4962 47.8845 91.2813 52.9099 92.5864 59.8827C93.8958 66.8595 90.3679 73.8365 84.156 76.5556C77.9441 79.2754 70.7837 76.9698 67.0519 71.0561C63.3238 65.1424 64.0591 57.2637 68.8137 52.2378C71.4542 49.4443 75.0386 47.8753 78.7753 47.8799ZM72.7722 64.277V64.2724C72.4895 64.0423 72.3024 63.7017 72.2589 63.3244C72.2198 62.947 72.3198 62.5696 72.546 62.2751C72.7722 61.9806 73.1028 61.7965 73.4595 61.7597C73.8163 61.7275 74.173 61.8471 74.4427 62.0956L77.1267 64.3966L83.008 58.2897C83.53 57.7604 84.3608 57.7742 84.8698 58.3219C85.3788 58.8695 85.3788 59.7485 84.8698 60.2916L78.1446 67.2776C77.6617 67.7792 76.9004 67.816 76.3741 67.365L72.7679 64.277L72.7722 64.277ZM74.8037 83.9742V83.9696C74.5123 84.0064 74.2208 84.057 73.9337 84.1306C72.1501 84.8578 70.1405 84.057 69.2487 82.2714C69.0442 81.9355 68.7876 81.6364 68.4961 81.3832C68.1438 81.236 67.774 81.1531 67.3956 81.1301C66.8388 81.0749 66.2906 80.9507 65.7599 80.7528L61.7709 91.3789L66.669 89.3908L66.6734 89.3954C67.3172 89.1331 68.0437 89.4414 68.3438 90.0995L70.6233 95.1066L74.8037 83.9742ZM91.7864 80.7573L91.7908 80.7527C91.2601 80.9506 90.712 81.0748 90.1551 81.1301C89.7766 81.1531 89.4069 81.2359 89.0545 81.3832C88.7631 81.6363 88.5064 81.9354 88.302 82.2714C87.4145 84.0569 85.4004 84.8577 83.617 84.1306C83.3298 84.0615 83.0384 84.0063 82.7469 83.9741L86.9274 95.1065L89.2068 90.0994C89.507 89.4414 90.2335 89.133 90.8773 89.3907L95.7754 91.3788L91.7864 80.7527V80.7573ZM30.5596 34.1893L39.8252 57.5587L26.4273 63.5092V63.5046L17.7575 41.6361L17.1615 40.1359H17.1659L30.5596 34.1893ZM22.8687 61.8023L15.8216 44.0196L4.63303 48.9852C2.98866 49.7123 2.21436 51.7142 2.90168 53.4539L7.45617 64.9361C8.14783 66.6757 10.0358 67.4902 11.6801 66.7631L22.8642 61.7975L22.8687 61.8023ZM73.3424 41.3182C72.6551 41.1479 71.933 41.1847 71.2587 41.424C70.4279 41.8198 69.7275 42.4733 69.249 43.297C69.0445 43.633 68.7879 43.9321 68.4964 44.1852C68.1441 44.3325 67.7743 44.4153 67.3958 44.4429C65.5079 44.3739 63.8766 45.8282 63.62 47.8117C63.5373 48.1983 63.3938 48.5664 63.2024 48.9024C62.9196 49.1647 62.6021 49.3764 62.2584 49.5329C61.4145 49.8826 60.688 50.4947 60.1834 51.2863C60.0834 51.4658 60.0007 51.6544 59.9355 51.8477C56.8469 52.3033 53.7845 52.9338 50.7655 53.7438C47.8988 54.5032 45.0712 55.4328 42.3002 56.5189L32.9996 33.0576C39.1072 30.0524 44.8708 26.3248 50.1828 21.9436C54.298 18.6117 57.9521 14.6908 61.0406 10.2912L73.3424 41.3182ZM75.8611 44.2911V44.2865C76.4701 44.0886 77.0487 43.7894 77.5707 43.4075C77.9274 43.1176 78.3407 42.9151 78.7757 42.8092C79.2107 42.9151 79.6239 43.1176 79.9806 43.4075C80.5766 43.8539 81.2508 44.176 81.9642 44.3509C82.6993 44.4521 83.4432 44.3969 84.1567 44.1852L84.2698 44.1622C84.3263 44.153 84.3872 44.1392 84.4438 44.1254C84.7396 44.0334 85.0571 44.0058 85.3616 44.0518C85.6923 44.3003 85.9707 44.6132 86.1795 44.9768C86.932 46.3483 88.3111 47.1996 89.8074 47.218C90.1989 47.2318 90.5817 47.3284 90.9384 47.4987C91.1603 47.8392 91.3125 48.2258 91.3908 48.6308C91.6605 50.1909 92.6872 51.4841 94.0966 52.0271C94.4663 52.179 94.797 52.4045 95.0841 52.6944C95.1841 53.104 95.2059 53.5274 95.1537 53.9462C94.9231 55.5109 95.4756 57.094 96.6153 58.1295C96.9285 58.4286 97.1808 58.7876 97.3591 59.1926C97.3243 59.6436 97.2113 60.0854 97.0198 60.4858C96.2977 61.9263 96.2977 63.6428 97.0198 65.0832C97.2113 65.4882 97.3243 65.9254 97.3591 66.3764C97.1808 66.7814 96.9285 67.1404 96.6153 67.4395C95.4799 68.475 94.9275 70.0536 95.158 71.6182C95.2102 72.037 95.1841 72.4604 95.084 72.87C94.8013 73.1553 94.4663 73.3854 94.1009 73.5373C92.6915 74.0803 91.6605 75.3735 91.3908 76.9336C91.3169 77.2143 91.2255 77.4905 91.1255 77.762L91.1037 77.8126C91.0646 77.9046 91.008 77.9921 90.9428 78.0657C90.5861 78.236 90.2033 78.3326 89.8118 78.3465C88.3153 78.3649 86.9364 79.2162 86.1795 80.583C85.9707 80.9466 85.6923 81.2641 85.366 81.5126C84.9571 81.5494 84.5482 81.5034 84.1567 81.3746C83.4433 81.1675 82.6994 81.1122 81.9642 81.2135C81.2508 81.3884 80.5766 81.7105 79.9807 82.1569C79.624 82.4422 79.2107 82.6493 78.7757 82.7552C78.3364 82.6493 77.9275 82.4422 77.5708 82.1569C76.9748 81.7105 76.3006 81.3884 75.5872 81.2135C74.852 81.1122 74.1082 81.1721 73.3947 81.3838C73.0032 81.508 72.5943 81.554 72.1854 81.5172C71.8592 81.2687 71.5808 80.9558 71.3719 80.5922C70.9717 79.9433 70.4497 79.3911 69.8407 78.9677C69.1882 78.6087 68.4748 78.397 67.744 78.3464C67.3525 78.3326 66.9697 78.2359 66.613 78.0657C66.5434 77.9966 66.4869 77.9092 66.4521 77.8126L66.4303 77.7619C66.3259 77.495 66.2346 77.2189 66.1606 76.9382C65.8909 75.3781 64.8642 74.0803 63.4548 73.5373C63.0894 73.3854 62.7545 73.1599 62.4674 72.8699C62.3673 72.465 62.3456 72.0416 62.3978 71.6228C62.624 70.0535 62.0715 68.4749 60.9361 67.4395C60.6229 67.1403 60.3706 66.7814 60.1923 66.3764C60.2227 65.9254 60.3358 65.4882 60.5272 65.0832C61.245 63.6427 61.245 61.9261 60.5272 60.4857C60.3358 60.0854 60.2227 59.6436 60.1923 59.1925C60.3706 58.7875 60.6229 58.4286 60.9361 58.1294C62.0715 57.0986 62.6239 55.5154 62.3934 53.9507C62.3847 53.716 62.376 53.4813 62.3804 53.2788V53.2742C62.3891 53.2052 62.3934 53.1316 62.3891 53.0579C62.3934 52.9383 62.4195 52.814 62.4674 52.7036C62.7501 52.4182 63.0851 52.1881 63.4505 52.0363C64.8599 51.4932 65.8909 50.1954 66.1563 48.6354C66.2346 48.2304 66.3868 47.8484 66.6087 47.5032C66.9654 47.333 67.3482 47.2409 67.7397 47.2225C68.4705 47.1765 69.1839 46.9648 69.8364 46.6058C70.4454 46.1824 70.9674 45.6302 71.3676 44.9813C71.5764 44.6178 71.8548 44.3048 72.1811 44.0563C72.59 44.0149 73.0032 44.0609 73.3947 44.1898C74.1081 44.3968 74.852 44.4521 75.5872 44.3508C75.6829 44.3416 75.7743 44.3186 75.8656 44.2864L75.8611 44.2911ZM35.0012 62.7547L48.1821 79.0695C49.1086 80.2016 50.7269 80.3396 51.81 79.3686L53.1064 78.1997L39.1427 60.9189L35.0012 62.7547ZM80.6163 30.3656C82.0126 29.0908 82.4738 27.0106 81.7603 25.2112C81.0469 23.4119 79.3199 22.3027 77.4842 22.4593L80.6163 30.3656ZM78.7587 32.9565L67.6617 4.9712C67.3485 4.15662 66.7613 3.48934 66.0087 3.0982C65.3736 2.74844 64.6253 2.71623 63.9642 3.01076C63.303 3.3053 62.8027 3.89436 62.5939 4.61691C62.3285 5.45449 62.3677 6.36573 62.6983 7.17569L76.1274 41.0564L76.1796 41.0242V41.0196C77.6673 39.6527 79.8859 39.6527 81.3736 41.0196C81.6216 41.1898 81.8783 41.3463 82.1436 41.4844L78.7636 32.9567L78.7587 32.9565ZM76.4184 19.785L70.115 3.88025C69.5452 2.42137 68.4882 1.23864 67.1439 0.552971C65.8215 -0.12813 64.2902 -0.183361 62.9331 0.405704C61.5846 1.01778 60.5449 2.21437 60.0838 3.68703C59.7271 4.77772 59.6618 5.94669 59.888 7.07416C56.7908 11.9248 52.9539 16.2001 48.5424 19.7296C43.0831 24.2259 37.1367 28.018 30.8247 31.0139L30.7595 31.0415L16.1388 37.5396C14.7859 38.1471 14.1464 39.7901 14.7075 41.2304L14.7858 41.4237L3.6062 46.3847C0.617689 47.7285 -0.791709 51.3688 0.452428 54.5442L5.00691 66.0264C6.27277 69.188 9.71374 70.6745 12.7153 69.3629L23.8994 64.3973L23.9777 64.5906H23.9733C24.5519 66.0218 26.1049 66.6938 27.4664 66.1L32.4342 63.8956L46.1629 80.8913C48.0378 83.2108 51.3394 83.4868 53.5319 81.5034L55.8375 79.4187C56.1072 79.1748 56.2725 78.8342 56.2986 78.4614C56.3247 78.0887 56.2116 77.7205 55.9854 77.4398L41.7132 59.782L42.083 59.6163L42.1221 59.5979H42.1265C45.1542 58.3507 48.2514 57.3107 51.4051 56.4731C54.1588 55.7368 56.9472 55.1477 59.7573 54.7151C59.7617 54.9038 59.7399 55.0925 59.6877 55.272C59.5006 55.6263 59.2614 55.9531 58.983 56.2292C58.2913 56.8873 57.8041 57.7433 57.5823 58.696C57.4779 59.6624 57.6432 60.6426 58.0564 61.5124C58.2348 61.9174 58.3522 62.3454 58.4044 62.7872C58.3522 63.229 58.2348 63.6569 58.0564 64.0619C57.6432 64.9317 57.4779 65.9073 57.5823 66.8783C57.8041 67.8264 58.2913 68.687 58.9786 69.3404C59.2614 69.6257 59.4963 69.9479 59.6877 70.3022C59.7617 70.7026 59.7834 71.1168 59.7399 71.5218C59.3658 73.4915 60.449 75.4382 62.2586 76.0456C62.6022 76.2021 62.9242 76.4092 63.2069 76.6669C63.3983 77.0074 63.5375 77.3756 63.6245 77.7622C63.6854 77.9693 63.742 78.1718 63.8072 78.3743L58.2304 93.2246C57.9868 93.74 58.0695 94.3659 58.4392 94.7939C58.809 95.2173 59.3875 95.3645 59.9009 95.1574L66.4869 92.4883L69.5494 99.2118V99.2073C69.7756 99.7089 70.2628 100.022 70.7892 99.9988C71.3155 99.9804 71.781 99.6352 71.9724 99.1152L77.2055 85.1709L77.2099 85.1755C78.1886 85.7139 79.3588 85.7139 80.3419 85.1755L85.5751 99.1198L85.5794 99.1152C85.7708 99.6352 86.2363 99.9804 86.7626 99.9988C87.289 100.022 87.7762 99.7089 88.0024 99.2073L91.0649 92.4837L97.6509 95.1528V95.1574C98.1642 95.3645 98.7384 95.2173 99.1082 94.7893C99.478 94.3659 99.5606 93.74 99.3214 93.2246L93.7446 78.3695C93.8098 78.167 93.8707 77.9646 93.9273 77.7575L93.9316 77.7621C94.0143 77.3755 94.1578 77.0073 94.3492 76.6668C94.632 76.4091 94.9539 76.202 95.2976 76.0455C97.1028 75.438 98.1861 73.4867 97.8076 71.5217C97.7684 71.1167 97.7858 70.7025 97.8641 70.3021C98.0511 69.9477 98.2904 69.6256 98.5688 69.3403C99.2605 68.6868 99.7477 67.8261 99.9695 66.8782C100.074 65.9072 99.9086 64.9316 99.4954 64.0618C99.3127 63.6568 99.1952 63.2288 99.143 62.787C99.1952 62.3452 99.3127 61.9172 99.4954 61.5123C99.9086 60.6425 100.074 59.6623 99.9695 58.6959C99.7433 57.7432 99.2561 56.8826 98.5688 56.2291C98.2904 55.9484 98.0511 55.6262 97.8641 55.2719C97.7858 54.8669 97.7684 54.4573 97.8076 54.0523C98.186 52.0871 97.1028 50.1359 95.2976 49.5285C94.9539 49.372 94.632 49.1649 94.3492 48.9026C94.1578 48.5666 94.0143 48.1985 93.9316 47.8119C93.675 45.8284 92.0437 44.3741 90.1558 44.4431C89.7773 44.4155 89.4076 44.3327 89.0552 44.1854C88.7638 43.9323 88.5071 43.6332 88.3027 43.2972C87.8242 42.4735 87.1238 41.82 86.2929 41.4242C85.8536 41.2586 85.3881 41.1849 84.9226 41.2217L81.6774 33.0393C84.4179 31.0833 85.4751 27.3511 84.1961 24.1251C82.9172 20.9036 79.6633 19.0812 76.4224 19.7807L76.4184 19.785Z" fill="#3C7CFF"/>
</svg>
