<svg width="100" height="101" viewBox="0 0 100 101" fill="none" xmlns="http://www.w3.org/2000/svg">
<path d="M10.1796 100.147H89.8243C95.4356 100.147 100 95.647 100 90.1196C100 58.8334 100 23.3005 100 10.1743C100 4.64697 95.4356 0.146973 89.8243 0.146973H10.1757C4.56438 0.146973 0 4.64697 0 10.1743C0 23.3023 0 58.8331 0 90.1196C0 95.647 4.56835 100.147 10.1796 100.147ZM95.9393 90.1196C95.9393 93.4438 93.1951 96.147 89.8243 96.147H10.1796C6.80488 96.147 4.06075 93.4438 4.06075 90.1196V20.4673H95.9393V90.1196ZM4.06075 10.1743C4.06075 6.8501 6.80488 4.14697 10.1757 4.14697H89.8243C93.1951 4.14697 95.9393 6.8501 95.9393 10.1743V16.4673H4.06075V10.1743Z" fill="#3C7CFF"/>
<path d="M66.5384 8.30713H61.3038C60.1816 8.30713 59.2734 9.20166 59.2734 10.3071C59.2734 11.4126 60.1816 12.3071 61.3038 12.3071H66.5384C67.6606 12.3071 68.5688 11.4126 68.5688 10.3071C68.5688 9.20166 67.6606 8.30713 66.5384 8.30713Z" fill="#3C7CFF"/>
<path d="M77.6858 8.30713H72.4513C71.329 8.30713 70.4209 9.20166 70.4209 10.3071C70.4209 11.4126 71.329 12.3071 72.4513 12.3071H77.6858C78.8081 12.3071 79.7162 11.4126 79.7162 10.3071C79.7162 9.20166 78.8081 8.30713 77.6858 8.30713Z" fill="#3C7CFF"/>
<path d="M88.8368 8.30713H83.5982C82.476 8.30713 81.5679 9.20166 81.5679 10.3071C81.5679 11.4126 82.476 12.3071 83.5982 12.3071H88.8368C89.959 12.3071 90.8672 11.4126 90.8672 10.3071C90.8672 9.20166 89.959 8.30713 88.8368 8.30713Z" fill="#3C7CFF"/>
<path d="M15.6125 66.229H30.8483C32.4841 66.229 33.8586 65.3667 34.7221 64.1313H39.805C42.5135 76.0759 53.0964 84.6118 65.7493 84.6118C80.4616 84.6118 92.4297 72.7993 92.4297 58.2837C92.4297 43.7915 80.4616 32.0024 65.7493 32.0024C53.2977 32.0024 42.4905 40.7368 39.8082 52.4829H34.7202C33.8564 51.2502 32.4828 50.3892 30.8483 50.3892H15.6125C11.179 50.3892 7.57031 53.9399 7.57031 58.3071C7.57031 62.6743 11.179 66.229 15.6125 66.229ZM65.7493 36.0024C78.2211 36.0024 88.369 45.9985 88.369 58.2837C88.369 70.5962 78.2211 80.6118 65.7493 80.6118C54.5109 80.6118 45.1045 72.7095 43.3795 61.7642C43.1812 60.7212 43.086 59.5806 43.086 58.2837C43.086 57.0181 43.1812 55.8931 43.3914 54.7915C45.0847 44.0806 54.6973 36.0024 65.7493 36.0024ZM35.6506 56.4829H39.0848C39.0451 57.061 39.0253 57.6587 39.0253 58.2837C39.0253 58.9282 39.0451 59.5415 39.0887 60.1313H35.6506V56.4829ZM15.6125 54.3892H30.8483C31.2488 54.3892 31.574 54.7095 31.574 55.1001V61.5142C31.574 61.9087 31.2488 62.229 30.8483 62.229H15.6125C13.4156 62.229 11.6311 60.4712 11.6311 58.3071C11.6311 56.147 13.4156 54.3892 15.6125 54.3892Z" fill="#3C7CFF"/>
<path d="M50.133 59.7953C48.5388 60.4008 47.6942 62.1703 48.2057 63.807C48.3921 64.4203 48.6261 64.9906 49.0187 65.9164C49.7721 67.4008 51.5051 68.0883 53.2222 67.518C53.932 67.2445 54.7687 67.4359 55.3477 68.0062C55.9267 68.5648 56.1012 69.4203 55.8077 70.1508C55.1137 71.7836 55.7641 73.6156 57.3107 74.4047C57.9729 74.7484 58.6312 75.0258 59.2776 75.2562C60.8956 75.889 62.7356 75.139 63.4613 73.5687C64.1672 72.0805 66.6219 72.0883 67.2524 73.725C67.7719 74.9672 69.0091 75.725 70.29 75.725C70.635 75.725 70.984 75.6703 71.3211 75.557C72.0507 75.3344 72.7526 75.0805 73.3951 74.7836C74.9377 74.0883 75.6713 72.3344 75.0963 70.6781C74.8147 69.9125 74.9892 69.0922 75.5404 68.5492C76.1591 67.9594 77.0315 67.7953 77.8167 68.1078C79.4426 68.7328 81.2786 68.0961 82.0757 66.6C82.4088 65.975 82.6825 65.35 82.9957 64.5766C83.543 62.9672 82.7975 61.268 81.1914 60.5141C80.4657 60.1937 80.0136 59.4945 80.0136 58.6937C80.0136 57.8578 80.5371 57.1195 81.3659 56.7992C82.9878 56.1508 83.7968 54.3539 83.2297 52.7601C83.0076 52.0766 82.7538 51.393 82.4643 50.8031C81.7585 49.2094 79.8986 48.4828 78.2965 49.0961C77.5074 49.3656 76.6786 49.2016 76.1234 48.6547C75.5285 48.0531 75.3541 47.2016 75.6673 46.4437C76.3534 44.8109 75.6991 42.9828 74.089 42.1625C73.4546 41.8617 72.8082 41.5687 72.1618 41.3344C70.528 40.7328 68.7434 41.4711 67.9741 43.0766C67.3039 44.5062 64.8215 44.4516 64.2029 42.932C63.5763 41.3539 61.8156 40.5375 60.1302 41.0453L60.0945 41.0531C59.4283 41.2641 58.7621 41.5336 58.0403 41.8383C56.4779 42.5766 55.7681 44.3578 56.3788 45.9555C56.6524 46.6937 56.47 47.5219 55.9108 48.0687C55.316 48.6547 54.4475 48.8187 53.6901 48.5375C52.0365 47.8578 50.1845 48.4945 49.2883 50.1898C49.0028 50.7836 48.7212 51.3812 48.5031 51.9672C47.8647 53.5844 48.6578 55.4008 50.2321 56.0687C50.9618 56.4086 51.4297 57.1351 51.4297 57.9086C51.4297 58.7445 50.9102 59.4984 50.133 59.7953ZM55.4905 57.9086C55.4905 55.8344 54.3762 53.893 52.552 52.7719C52.5996 52.6547 52.6551 52.5414 52.7066 52.4242C54.8718 53.0297 57.1957 52.4594 58.7779 50.9008C60.2928 49.4164 60.8916 47.2445 60.384 45.2055C60.503 45.1586 60.6219 45.1117 60.7449 45.0687C61.8116 47.0062 63.8499 48.2211 66.1222 48.2211C68.2874 48.2211 70.2781 47.0961 71.3568 45.3226C71.4757 45.3773 71.5947 45.4281 71.7137 45.4789C71.0792 47.5726 71.6462 49.8617 73.2364 51.4672C74.7354 52.9437 76.9403 53.5258 79.0262 53.0414C79.0738 53.1625 79.1174 53.2797 79.165 53.4008C77.1901 54.4516 75.9529 56.4555 75.9529 58.6937C75.9529 60.8305 77.1029 62.7953 78.9112 63.85C78.8596 63.9672 78.8041 64.0805 78.7526 64.1976C76.6389 63.5883 74.315 64.1351 72.6852 65.7055C71.1704 67.1976 70.5755 69.3891 71.0792 71.4086C70.9562 71.4555 70.8293 71.5023 70.7024 71.5453C69.6595 69.6273 67.5974 68.3812 65.3489 68.3812C63.1758 68.3812 61.2287 69.4711 60.1064 71.2836C59.9874 71.2328 59.8724 71.182 59.7535 71.1312C60.388 68.9984 59.805 66.7016 58.2029 65.1625C56.6564 63.6391 54.4198 63.0609 52.4251 63.5687C52.3775 63.4516 52.3299 63.3344 52.2863 63.2133C54.2294 62.182 55.4905 60.1351 55.4905 57.9086Z" fill="#3C7CFF"/>
<path d="M65.7335 66.2681C70.1869 66.2681 73.8074 62.7017 73.8074 58.3149C73.8074 53.9282 70.1869 50.3618 65.7335 50.3618C61.2841 50.3618 57.6636 53.9282 57.6636 58.3149C57.6636 62.7017 61.2841 66.2681 65.7335 66.2681ZM65.7335 54.3618C67.9463 54.3618 69.7466 56.1353 69.7466 58.3149C69.7466 60.4946 67.9463 62.2681 65.7335 62.2681C63.5247 62.2681 61.7243 60.4946 61.7243 58.3149C61.7243 56.1353 63.5247 54.3618 65.7335 54.3618Z" fill="#3C7CFF"/>
</svg>
