<svg width="102" height="93" viewBox="0 0 102 93" fill="none" xmlns="http://www.w3.org/2000/svg">
<mask id="path-1-outside-1_161_50" maskUnits="userSpaceOnUse" x="0" y="0" width="102" height="93" fill="black">
<rect fill="white" width="102" height="93"/>
<path d="M10.2868 9.78593C10.2883 9.4336 10.4289 9.09611 10.6781 8.84696C10.9272 8.59782 11.2647 8.45721 11.617 8.45574H11.6671C11.852 8.43881 12.0384 8.46061 12.2144 8.51977C12.3905 8.57892 12.5522 8.67412 12.6894 8.79928C12.8265 8.92445 12.9361 9.07684 13.011 9.24672C13.086 9.4166 13.1247 9.60025 13.1247 9.78593C13.1247 9.97162 13.086 10.1553 13.011 10.3251C12.9361 10.495 12.8265 10.6474 12.6894 10.7726C12.5522 10.8977 12.3905 10.9929 12.2144 11.0521C12.0384 11.1112 11.852 11.1331 11.6671 11.1161H11.617C11.2647 11.1147 10.9272 10.974 10.6781 10.7249C10.4289 10.4758 10.2883 10.1383 10.2868 9.78593ZM18.3693 11.1217H18.4194C18.7512 11.0913 19.0596 10.938 19.2842 10.6919C19.5088 10.4458 19.6333 10.1247 19.6333 9.7915C19.6333 9.45832 19.5088 9.13717 19.2842 8.89107C19.0596 8.64497 18.7512 8.49169 18.4194 8.46131H18.3693C18.1844 8.44438 17.998 8.46618 17.8219 8.52533C17.6459 8.58448 17.4842 8.67968 17.347 8.80485C17.2099 8.93002 17.1003 9.08241 17.0254 9.25229C16.9504 9.42217 16.9117 9.60581 16.9117 9.7915C16.9117 9.97718 16.9504 10.1608 17.0254 10.3307C17.1003 10.5006 17.2099 10.653 17.347 10.7781C17.4842 10.9033 17.6459 10.9985 17.8219 11.0577C17.998 11.1168 18.1844 11.1386 18.3693 11.1217ZM25.1204 11.1217H25.1716C25.3565 11.1386 25.5429 11.1168 25.7189 11.0577C25.8949 10.9985 26.0567 10.9033 26.1938 10.7781C26.331 10.653 26.4405 10.5006 26.5155 10.3307C26.5905 10.1608 26.6292 9.97718 26.6292 9.7915C26.6292 9.60581 26.5905 9.42217 26.5155 9.25229C26.4405 9.08241 26.331 8.93002 26.1938 8.80485C26.0567 8.67968 25.8949 8.58448 25.7189 8.52533C25.5429 8.46618 25.3565 8.44438 25.1716 8.46131H25.1215C24.9366 8.44438 24.7502 8.46618 24.5742 8.52533C24.3982 8.58448 24.2364 8.67968 24.0993 8.80485C23.9621 8.93002 23.8526 9.08241 23.7776 9.25229C23.7027 9.42217 23.664 9.60581 23.664 9.7915C23.664 9.97718 23.7027 10.1608 23.7776 10.3307C23.8526 10.5006 23.9621 10.653 24.0993 10.7781C24.2364 10.9033 24.3982 10.9985 24.5742 11.0577C24.7502 11.1168 24.9355 11.1386 25.1204 11.1217ZM38.5893 11.1217H78.6018C78.9336 11.0913 79.2421 10.938 79.4667 10.6919C79.6913 10.4458 79.8158 10.1247 79.8158 9.7915C79.8158 9.45832 79.6913 9.13717 79.4667 8.89107C79.2421 8.64497 78.9336 8.49169 78.6018 8.46131H38.5859C38.2332 8.46131 37.8948 8.60145 37.6454 8.85091C37.3959 9.10037 37.2557 9.43871 37.2557 9.7915C37.2557 10.1443 37.3959 10.4826 37.6454 10.7321C37.8948 10.9815 38.2332 11.1217 38.5859 11.1217H38.5893ZM27.9255 34.7111C27.802 34.5875 27.6554 34.4894 27.494 34.4224C27.3326 34.3555 27.1596 34.3211 26.9849 34.3211C26.8102 34.3211 26.6372 34.3555 26.4758 34.4224C26.3144 34.4894 26.1677 34.5875 26.0443 34.7111L18.8223 41.9331C18.6985 42.0565 18.6003 42.2031 18.5333 42.3645C18.4663 42.5259 18.4318 42.6989 18.4318 42.8737C18.4318 43.0485 18.4663 43.2215 18.5333 43.3829C18.6003 43.5443 18.6985 43.6909 18.8223 43.8143L26.0443 51.0363C26.1631 51.179 26.3103 51.2954 26.4766 51.378C26.6429 51.4606 26.8246 51.5076 27.01 51.5161C27.1955 51.5246 27.3807 51.4943 27.5538 51.4271C27.727 51.36 27.8842 51.2575 28.0155 51.1263C28.1468 50.995 28.2492 50.8377 28.3164 50.6646C28.3835 50.4915 28.4138 50.3063 28.4053 50.1208C28.3968 49.9354 28.3498 49.7537 28.2672 49.5874C28.1846 49.4211 28.0682 49.2739 27.9255 49.1551L21.6452 42.8737L27.9255 36.5923C28.0498 36.4686 28.1483 36.3214 28.2155 36.1594C28.2826 35.9974 28.317 35.8236 28.3167 35.6482C28.3164 35.4729 28.2814 35.2993 28.2136 35.1375C28.1459 34.9757 28.0469 34.8289 27.9222 34.7056L27.9255 34.7111ZM43.3635 34.9594C43.1075 34.7449 42.7804 34.6342 42.4468 34.649C42.1131 34.6638 41.7971 34.803 41.5611 35.0392C41.325 35.2754 41.186 35.5915 41.1714 35.9251C41.1568 36.2588 41.2677 36.5858 41.4823 36.8417L47.7626 43.1219L41.479 49.3978C41.3363 49.5165 41.2199 49.6638 41.1373 49.8301C41.0547 49.9963 41.0076 50.178 40.9991 50.3635C40.9907 50.549 41.021 50.7342 41.0881 50.9073C41.1552 51.0804 41.2577 51.2376 41.389 51.3689C41.5203 51.5002 41.6775 51.6027 41.8506 51.6698C42.0237 51.7369 42.2089 51.7672 42.3944 51.7588C42.5799 51.7503 42.7616 51.7033 42.9279 51.6206C43.0941 51.538 43.2414 51.4217 43.3601 51.2789L50.5821 44.0581C50.8306 43.8079 50.97 43.4695 50.97 43.1169C50.97 42.7643 50.8306 42.426 50.5821 42.1758L43.3635 34.9594ZM38.0516 30.5068C37.7109 30.4169 37.3484 30.4653 37.0431 30.6415C36.7379 30.8177 36.5146 31.1074 36.422 31.4474L30.4111 53.8636C30.3474 54.0378 30.3206 54.2232 30.3325 54.4083C30.3444 54.5933 30.3947 54.7738 30.4801 54.9383C30.5656 55.1029 30.6844 55.2478 30.8289 55.3639C30.9734 55.4801 31.1406 55.5648 31.3196 55.6128C31.4987 55.6609 31.6858 55.671 31.8691 55.6428C32.0523 55.6145 32.2277 55.5484 32.384 55.4487C32.5403 55.349 32.6741 55.2178 32.777 55.0636C32.8798 54.9093 32.9494 54.7353 32.9813 54.5527L38.9922 32.1365C39.0379 31.967 39.0496 31.7901 39.0269 31.6161C39.0041 31.442 38.9473 31.2742 38.8596 31.1221C38.772 30.97 38.6552 30.8367 38.516 30.7298C38.3768 30.6229 38.2178 30.5445 38.0483 30.499L38.0516 30.5068ZM96.8928 67.1077C94.524 69.9016 94.5552 71.9464 94.6008 75.3348C94.6086 75.8279 94.6153 76.3366 94.6153 76.8776C94.6076 77.7208 94.3731 78.5464 93.9363 79.2678C93.4996 79.9892 92.8767 80.5796 92.133 80.9772C92.218 81.2706 92.2611 81.5746 92.261 81.88V83.4874C92.3 84.2231 92.0468 84.9445 91.5564 85.4945C91.0661 86.0444 90.3784 86.3784 89.643 86.4238H89.4771C89.0017 87.9596 88.047 89.3028 86.753 90.2569C85.4589 91.2109 83.8934 91.7256 82.2857 91.7256C80.678 91.7256 79.1125 91.2109 77.8185 90.2569C76.5244 89.3028 75.5698 87.9596 75.0944 86.4238H74.9285C74.1931 86.3784 73.5054 86.0444 73.015 85.4945C72.5247 84.9445 72.2715 84.2231 72.3104 83.4874V81.88C72.3091 81.5899 72.3465 81.3009 72.4217 81.0207C71.6576 80.6294 71.015 80.0366 70.5637 79.3062C70.1124 78.5759 69.8696 77.7361 69.8615 76.8776C69.8615 76.3633 69.8682 75.8646 69.8749 75.3804C69.9267 74.1316 69.8895 72.8806 69.7636 71.637H4.72231C3.73555 71.6361 2.78945 71.2438 2.09161 70.5462C1.39376 69.8485 1.00118 68.9025 1 67.9158V4.72119C1.00118 3.73444 1.39376 2.78846 2.09161 2.09082C2.78945 1.39319 3.73555 1.00088 4.72231 1H85.5032C86.4898 1.00118 87.4356 1.39361 88.1332 2.09121C88.8308 2.78882 89.2233 3.73463 89.2244 4.72119V39.6545C91.3453 40.3688 93.3197 41.4601 95.0528 42.8759C96.9788 44.4779 98.5146 46.4974 99.5437 48.7814C100.573 51.0653 101.068 53.5537 100.992 56.0576C100.976 60.1099 99.5231 64.025 96.8928 67.1077ZM3.66149 4.72119V15.7512H86.5607V4.72119C86.5601 4.4406 86.4486 4.17163 86.2505 3.97291C86.0525 3.77419 85.7838 3.66185 85.5032 3.66038H4.72231C4.44114 3.66097 4.17166 3.77292 3.97285 3.97173C3.77403 4.17055 3.66208 4.44003 3.66149 4.72119ZM68.9888 68.9766C68.6378 68.2647 68.1975 67.6004 67.6787 66.9997C65.0466 63.9182 63.5924 60.0033 63.5746 55.9508C63.4965 53.4622 63.9855 50.9885 65.0048 48.7169C66.024 46.4453 67.5466 44.4353 69.4575 42.8392C73.0762 39.9636 77.5813 38.4342 82.2028 38.5125C83.6644 38.5113 85.1226 38.6541 86.5563 38.9388V18.4116H3.66149V67.9158C3.66208 68.1969 3.77403 68.4664 3.97285 68.6652C4.17166 68.8641 4.44114 68.976 4.72231 68.9766H68.9888ZM75.0398 81.6039C74.9934 81.6884 74.97 81.7836 74.9719 81.88V83.4874C74.9701 83.5834 74.9935 83.6782 75.0398 83.7623H89.5317C89.578 83.6782 89.6014 83.5834 89.5996 83.4874V81.88C89.6015 81.7836 89.5781 81.6884 89.5317 81.6039H75.0398ZM86.7021 86.4238H77.8694C78.2972 87.2231 78.9339 87.8914 79.7117 88.3573C80.4895 88.8232 81.3791 89.0692 82.2857 89.0692C83.1924 89.0692 84.082 88.8232 84.8598 88.3573C85.6375 87.8914 86.2743 87.2231 86.7021 86.4238ZM94.8624 65.3856C97.1001 62.7926 98.3311 59.4816 98.3309 56.0565C98.3309 45.8302 89.9725 41.1728 82.2073 41.1728C78.2055 41.0946 74.3006 42.4079 71.1594 44.8885C69.5554 46.2392 68.2794 47.937 67.4282 49.8535C66.577 51.77 66.1728 53.855 66.2461 55.9508C66.2458 59.3755 67.4768 62.6862 69.7146 65.2788C70.8503 66.5687 71.6727 68.1036 72.1179 69.7636C72.184 69.9134 72.2217 70.0742 72.2292 70.2378C72.5293 71.9468 72.6342 73.6844 72.542 75.4172C72.5353 75.8902 72.5286 76.3756 72.5286 76.8776C72.5577 77.4522 72.813 77.9919 73.2386 78.379C73.6643 78.766 74.2257 78.969 74.8005 78.9436H89.6819C90.2576 78.9705 90.8205 78.7682 91.2474 78.381C91.6743 77.9938 91.9303 77.4532 91.9594 76.8776C91.9594 76.3533 91.9527 75.8535 91.946 75.3738C91.8893 71.7795 91.8481 68.9421 94.8624 65.3868V65.3856Z"/>
</mask>
<path d="M10.2868 9.78593C10.2883 9.4336 10.4289 9.09611 10.6781 8.84696C10.9272 8.59782 11.2647 8.45721 11.617 8.45574H11.6671C11.852 8.43881 12.0384 8.46061 12.2144 8.51977C12.3905 8.57892 12.5522 8.67412 12.6894 8.79928C12.8265 8.92445 12.9361 9.07684 13.011 9.24672C13.086 9.4166 13.1247 9.60025 13.1247 9.78593C13.1247 9.97162 13.086 10.1553 13.011 10.3251C12.9361 10.495 12.8265 10.6474 12.6894 10.7726C12.5522 10.8977 12.3905 10.9929 12.2144 11.0521C12.0384 11.1112 11.852 11.1331 11.6671 11.1161H11.617C11.2647 11.1147 10.9272 10.974 10.6781 10.7249C10.4289 10.4758 10.2883 10.1383 10.2868 9.78593ZM18.3693 11.1217H18.4194C18.7512 11.0913 19.0596 10.938 19.2842 10.6919C19.5088 10.4458 19.6333 10.1247 19.6333 9.7915C19.6333 9.45832 19.5088 9.13717 19.2842 8.89107C19.0596 8.64497 18.7512 8.49169 18.4194 8.46131H18.3693C18.1844 8.44438 17.998 8.46618 17.8219 8.52533C17.6459 8.58448 17.4842 8.67968 17.347 8.80485C17.2099 8.93002 17.1003 9.08241 17.0254 9.25229C16.9504 9.42217 16.9117 9.60581 16.9117 9.7915C16.9117 9.97718 16.9504 10.1608 17.0254 10.3307C17.1003 10.5006 17.2099 10.653 17.347 10.7781C17.4842 10.9033 17.6459 10.9985 17.8219 11.0577C17.998 11.1168 18.1844 11.1386 18.3693 11.1217ZM25.1204 11.1217H25.1716C25.3565 11.1386 25.5429 11.1168 25.7189 11.0577C25.8949 10.9985 26.0567 10.9033 26.1938 10.7781C26.331 10.653 26.4405 10.5006 26.5155 10.3307C26.5905 10.1608 26.6292 9.97718 26.6292 9.7915C26.6292 9.60581 26.5905 9.42217 26.5155 9.25229C26.4405 9.08241 26.331 8.93002 26.1938 8.80485C26.0567 8.67968 25.8949 8.58448 25.7189 8.52533C25.5429 8.46618 25.3565 8.44438 25.1716 8.46131H25.1215C24.9366 8.44438 24.7502 8.46618 24.5742 8.52533C24.3982 8.58448 24.2364 8.67968 24.0993 8.80485C23.9621 8.93002 23.8526 9.08241 23.7776 9.25229C23.7027 9.42217 23.664 9.60581 23.664 9.7915C23.664 9.97718 23.7027 10.1608 23.7776 10.3307C23.8526 10.5006 23.9621 10.653 24.0993 10.7781C24.2364 10.9033 24.3982 10.9985 24.5742 11.0577C24.7502 11.1168 24.9355 11.1386 25.1204 11.1217ZM38.5893 11.1217H78.6018C78.9336 11.0913 79.2421 10.938 79.4667 10.6919C79.6913 10.4458 79.8158 10.1247 79.8158 9.7915C79.8158 9.45832 79.6913 9.13717 79.4667 8.89107C79.2421 8.64497 78.9336 8.49169 78.6018 8.46131H38.5859C38.2332 8.46131 37.8948 8.60145 37.6454 8.85091C37.3959 9.10037 37.2557 9.43871 37.2557 9.7915C37.2557 10.1443 37.3959 10.4826 37.6454 10.7321C37.8948 10.9815 38.2332 11.1217 38.5859 11.1217H38.5893ZM27.9255 34.7111C27.802 34.5875 27.6554 34.4894 27.494 34.4224C27.3326 34.3555 27.1596 34.3211 26.9849 34.3211C26.8102 34.3211 26.6372 34.3555 26.4758 34.4224C26.3144 34.4894 26.1677 34.5875 26.0443 34.7111L18.8223 41.9331C18.6985 42.0565 18.6003 42.2031 18.5333 42.3645C18.4663 42.5259 18.4318 42.6989 18.4318 42.8737C18.4318 43.0485 18.4663 43.2215 18.5333 43.3829C18.6003 43.5443 18.6985 43.6909 18.8223 43.8143L26.0443 51.0363C26.1631 51.179 26.3103 51.2954 26.4766 51.378C26.6429 51.4606 26.8246 51.5076 27.01 51.5161C27.1955 51.5246 27.3807 51.4943 27.5538 51.4271C27.727 51.36 27.8842 51.2575 28.0155 51.1263C28.1468 50.995 28.2492 50.8377 28.3164 50.6646C28.3835 50.4915 28.4138 50.3063 28.4053 50.1208C28.3968 49.9354 28.3498 49.7537 28.2672 49.5874C28.1846 49.4211 28.0682 49.2739 27.9255 49.1551L21.6452 42.8737L27.9255 36.5923C28.0498 36.4686 28.1483 36.3214 28.2155 36.1594C28.2826 35.9974 28.317 35.8236 28.3167 35.6482C28.3164 35.4729 28.2814 35.2993 28.2136 35.1375C28.1459 34.9757 28.0469 34.8289 27.9222 34.7056L27.9255 34.7111ZM43.3635 34.9594C43.1075 34.7449 42.7804 34.6342 42.4468 34.649C42.1131 34.6638 41.7971 34.803 41.5611 35.0392C41.325 35.2754 41.186 35.5915 41.1714 35.9251C41.1568 36.2588 41.2677 36.5858 41.4823 36.8417L47.7626 43.1219L41.479 49.3978C41.3363 49.5165 41.2199 49.6638 41.1373 49.8301C41.0547 49.9963 41.0076 50.178 40.9991 50.3635C40.9907 50.549 41.021 50.7342 41.0881 50.9073C41.1552 51.0804 41.2577 51.2376 41.389 51.3689C41.5203 51.5002 41.6775 51.6027 41.8506 51.6698C42.0237 51.7369 42.2089 51.7672 42.3944 51.7588C42.5799 51.7503 42.7616 51.7033 42.9279 51.6206C43.0941 51.538 43.2414 51.4217 43.3601 51.2789L50.5821 44.0581C50.8306 43.8079 50.97 43.4695 50.97 43.1169C50.97 42.7643 50.8306 42.426 50.5821 42.1758L43.3635 34.9594ZM38.0516 30.5068C37.7109 30.4169 37.3484 30.4653 37.0431 30.6415C36.7379 30.8177 36.5146 31.1074 36.422 31.4474L30.4111 53.8636C30.3474 54.0378 30.3206 54.2232 30.3325 54.4083C30.3444 54.5933 30.3947 54.7738 30.4801 54.9383C30.5656 55.1029 30.6844 55.2478 30.8289 55.3639C30.9734 55.4801 31.1406 55.5648 31.3196 55.6128C31.4987 55.6609 31.6858 55.671 31.8691 55.6428C32.0523 55.6145 32.2277 55.5484 32.384 55.4487C32.5403 55.349 32.6741 55.2178 32.777 55.0636C32.8798 54.9093 32.9494 54.7353 32.9813 54.5527L38.9922 32.1365C39.0379 31.967 39.0496 31.7901 39.0269 31.6161C39.0041 31.442 38.9473 31.2742 38.8596 31.1221C38.772 30.97 38.6552 30.8367 38.516 30.7298C38.3768 30.6229 38.2178 30.5445 38.0483 30.499L38.0516 30.5068ZM96.8928 67.1077C94.524 69.9016 94.5552 71.9464 94.6008 75.3348C94.6086 75.8279 94.6153 76.3366 94.6153 76.8776C94.6076 77.7208 94.3731 78.5464 93.9363 79.2678C93.4996 79.9892 92.8767 80.5796 92.133 80.9772C92.218 81.2706 92.2611 81.5746 92.261 81.88V83.4874C92.3 84.2231 92.0468 84.9445 91.5564 85.4945C91.0661 86.0444 90.3784 86.3784 89.643 86.4238H89.4771C89.0017 87.9596 88.047 89.3028 86.753 90.2569C85.4589 91.2109 83.8934 91.7256 82.2857 91.7256C80.678 91.7256 79.1125 91.2109 77.8185 90.2569C76.5244 89.3028 75.5698 87.9596 75.0944 86.4238H74.9285C74.1931 86.3784 73.5054 86.0444 73.015 85.4945C72.5247 84.9445 72.2715 84.2231 72.3104 83.4874V81.88C72.3091 81.5899 72.3465 81.3009 72.4217 81.0207C71.6576 80.6294 71.015 80.0366 70.5637 79.3062C70.1124 78.5759 69.8696 77.7361 69.8615 76.8776C69.8615 76.3633 69.8682 75.8646 69.8749 75.3804C69.9267 74.1316 69.8895 72.8806 69.7636 71.637H4.72231C3.73555 71.6361 2.78945 71.2438 2.09161 70.5462C1.39376 69.8485 1.00118 68.9025 1 67.9158V4.72119C1.00118 3.73444 1.39376 2.78846 2.09161 2.09082C2.78945 1.39319 3.73555 1.00088 4.72231 1H85.5032C86.4898 1.00118 87.4356 1.39361 88.1332 2.09121C88.8308 2.78882 89.2233 3.73463 89.2244 4.72119V39.6545C91.3453 40.3688 93.3197 41.4601 95.0528 42.8759C96.9788 44.4779 98.5146 46.4974 99.5437 48.7814C100.573 51.0653 101.068 53.5537 100.992 56.0576C100.976 60.1099 99.5231 64.025 96.8928 67.1077ZM3.66149 4.72119V15.7512H86.5607V4.72119C86.5601 4.4406 86.4486 4.17163 86.2505 3.97291C86.0525 3.77419 85.7838 3.66185 85.5032 3.66038H4.72231C4.44114 3.66097 4.17166 3.77292 3.97285 3.97173C3.77403 4.17055 3.66208 4.44003 3.66149 4.72119ZM68.9888 68.9766C68.6378 68.2647 68.1975 67.6004 67.6787 66.9997C65.0466 63.9182 63.5924 60.0033 63.5746 55.9508C63.4965 53.4622 63.9855 50.9885 65.0048 48.7169C66.024 46.4453 67.5466 44.4353 69.4575 42.8392C73.0762 39.9636 77.5813 38.4342 82.2028 38.5125C83.6644 38.5113 85.1226 38.6541 86.5563 38.9388V18.4116H3.66149V67.9158C3.66208 68.1969 3.77403 68.4664 3.97285 68.6652C4.17166 68.8641 4.44114 68.976 4.72231 68.9766H68.9888ZM75.0398 81.6039C74.9934 81.6884 74.97 81.7836 74.9719 81.88V83.4874C74.9701 83.5834 74.9935 83.6782 75.0398 83.7623H89.5317C89.578 83.6782 89.6014 83.5834 89.5996 83.4874V81.88C89.6015 81.7836 89.5781 81.6884 89.5317 81.6039H75.0398ZM86.7021 86.4238H77.8694C78.2972 87.2231 78.9339 87.8914 79.7117 88.3573C80.4895 88.8232 81.3791 89.0692 82.2857 89.0692C83.1924 89.0692 84.082 88.8232 84.8598 88.3573C85.6375 87.8914 86.2743 87.2231 86.7021 86.4238ZM94.8624 65.3856C97.1001 62.7926 98.3311 59.4816 98.3309 56.0565C98.3309 45.8302 89.9725 41.1728 82.2073 41.1728C78.2055 41.0946 74.3006 42.4079 71.1594 44.8885C69.5554 46.2392 68.2794 47.937 67.4282 49.8535C66.577 51.77 66.1728 53.855 66.2461 55.9508C66.2458 59.3755 67.4768 62.6862 69.7146 65.2788C70.8503 66.5687 71.6727 68.1036 72.1179 69.7636C72.184 69.9134 72.2217 70.0742 72.2292 70.2378C72.5293 71.9468 72.6342 73.6844 72.542 75.4172C72.5353 75.8902 72.5286 76.3756 72.5286 76.8776C72.5577 77.4522 72.813 77.9919 73.2386 78.379C73.6643 78.766 74.2257 78.969 74.8005 78.9436H89.6819C90.2576 78.9705 90.8205 78.7682 91.2474 78.381C91.6743 77.9938 91.9303 77.4532 91.9594 76.8776C91.9594 76.3533 91.9527 75.8535 91.946 75.3738C91.8893 71.7795 91.8481 68.9421 94.8624 65.3868V65.3856Z" fill="#3C7CFF"/>
<path d="M10.2868 9.78593C10.2883 9.4336 10.4289 9.09611 10.6781 8.84696C10.9272 8.59782 11.2647 8.45721 11.617 8.45574H11.6671C11.852 8.43881 12.0384 8.46061 12.2144 8.51977C12.3905 8.57892 12.5522 8.67412 12.6894 8.79928C12.8265 8.92445 12.9361 9.07684 13.011 9.24672C13.086 9.4166 13.1247 9.60025 13.1247 9.78593C13.1247 9.97162 13.086 10.1553 13.011 10.3251C12.9361 10.495 12.8265 10.6474 12.6894 10.7726C12.5522 10.8977 12.3905 10.9929 12.2144 11.0521C12.0384 11.1112 11.852 11.1331 11.6671 11.1161H11.617C11.2647 11.1147 10.9272 10.974 10.6781 10.7249C10.4289 10.4758 10.2883 10.1383 10.2868 9.78593ZM18.3693 11.1217H18.4194C18.7512 11.0913 19.0596 10.938 19.2842 10.6919C19.5088 10.4458 19.6333 10.1247 19.6333 9.7915C19.6333 9.45832 19.5088 9.13717 19.2842 8.89107C19.0596 8.64497 18.7512 8.49169 18.4194 8.46131H18.3693C18.1844 8.44438 17.998 8.46618 17.8219 8.52533C17.6459 8.58448 17.4842 8.67968 17.347 8.80485C17.2099 8.93002 17.1003 9.08241 17.0254 9.25229C16.9504 9.42217 16.9117 9.60581 16.9117 9.7915C16.9117 9.97718 16.9504 10.1608 17.0254 10.3307C17.1003 10.5006 17.2099 10.653 17.347 10.7781C17.4842 10.9033 17.6459 10.9985 17.8219 11.0577C17.998 11.1168 18.1844 11.1386 18.3693 11.1217ZM25.1204 11.1217H25.1716C25.3565 11.1386 25.5429 11.1168 25.7189 11.0577C25.8949 10.9985 26.0567 10.9033 26.1938 10.7781C26.331 10.653 26.4405 10.5006 26.5155 10.3307C26.5905 10.1608 26.6292 9.97718 26.6292 9.7915C26.6292 9.60581 26.5905 9.42217 26.5155 9.25229C26.4405 9.08241 26.331 8.93002 26.1938 8.80485C26.0567 8.67968 25.8949 8.58448 25.7189 8.52533C25.5429 8.46618 25.3565 8.44438 25.1716 8.46131H25.1215C24.9366 8.44438 24.7502 8.46618 24.5742 8.52533C24.3982 8.58448 24.2364 8.67968 24.0993 8.80485C23.9621 8.93002 23.8526 9.08241 23.7776 9.25229C23.7027 9.42217 23.664 9.60581 23.664 9.7915C23.664 9.97718 23.7027 10.1608 23.7776 10.3307C23.8526 10.5006 23.9621 10.653 24.0993 10.7781C24.2364 10.9033 24.3982 10.9985 24.5742 11.0577C24.7502 11.1168 24.9355 11.1386 25.1204 11.1217ZM38.5893 11.1217H78.6018C78.9336 11.0913 79.2421 10.938 79.4667 10.6919C79.6913 10.4458 79.8158 10.1247 79.8158 9.7915C79.8158 9.45832 79.6913 9.13717 79.4667 8.89107C79.2421 8.64497 78.9336 8.49169 78.6018 8.46131H38.5859C38.2332 8.46131 37.8948 8.60145 37.6454 8.85091C37.3959 9.10037 37.2557 9.43871 37.2557 9.7915C37.2557 10.1443 37.3959 10.4826 37.6454 10.7321C37.8948 10.9815 38.2332 11.1217 38.5859 11.1217H38.5893ZM27.9255 34.7111C27.802 34.5875 27.6554 34.4894 27.494 34.4224C27.3326 34.3555 27.1596 34.3211 26.9849 34.3211C26.8102 34.3211 26.6372 34.3555 26.4758 34.4224C26.3144 34.4894 26.1677 34.5875 26.0443 34.7111L18.8223 41.9331C18.6985 42.0565 18.6003 42.2031 18.5333 42.3645C18.4663 42.5259 18.4318 42.6989 18.4318 42.8737C18.4318 43.0485 18.4663 43.2215 18.5333 43.3829C18.6003 43.5443 18.6985 43.6909 18.8223 43.8143L26.0443 51.0363C26.1631 51.179 26.3103 51.2954 26.4766 51.378C26.6429 51.4606 26.8246 51.5076 27.01 51.5161C27.1955 51.5246 27.3807 51.4943 27.5538 51.4271C27.727 51.36 27.8842 51.2575 28.0155 51.1263C28.1468 50.995 28.2492 50.8377 28.3164 50.6646C28.3835 50.4915 28.4138 50.3063 28.4053 50.1208C28.3968 49.9354 28.3498 49.7537 28.2672 49.5874C28.1846 49.4211 28.0682 49.2739 27.9255 49.1551L21.6452 42.8737L27.9255 36.5923C28.0498 36.4686 28.1483 36.3214 28.2155 36.1594C28.2826 35.9974 28.317 35.8236 28.3167 35.6482C28.3164 35.4729 28.2814 35.2993 28.2136 35.1375C28.1459 34.9757 28.0469 34.8289 27.9222 34.7056L27.9255 34.7111ZM43.3635 34.9594C43.1075 34.7449 42.7804 34.6342 42.4468 34.649C42.1131 34.6638 41.7971 34.803 41.5611 35.0392C41.325 35.2754 41.186 35.5915 41.1714 35.9251C41.1568 36.2588 41.2677 36.5858 41.4823 36.8417L47.7626 43.1219L41.479 49.3978C41.3363 49.5165 41.2199 49.6638 41.1373 49.8301C41.0547 49.9963 41.0076 50.178 40.9991 50.3635C40.9907 50.549 41.021 50.7342 41.0881 50.9073C41.1552 51.0804 41.2577 51.2376 41.389 51.3689C41.5203 51.5002 41.6775 51.6027 41.8506 51.6698C42.0237 51.7369 42.2089 51.7672 42.3944 51.7588C42.5799 51.7503 42.7616 51.7033 42.9279 51.6206C43.0941 51.538 43.2414 51.4217 43.3601 51.2789L50.5821 44.0581C50.8306 43.8079 50.97 43.4695 50.97 43.1169C50.97 42.7643 50.8306 42.426 50.5821 42.1758L43.3635 34.9594ZM38.0516 30.5068C37.7109 30.4169 37.3484 30.4653 37.0431 30.6415C36.7379 30.8177 36.5146 31.1074 36.422 31.4474L30.4111 53.8636C30.3474 54.0378 30.3206 54.2232 30.3325 54.4083C30.3444 54.5933 30.3947 54.7738 30.4801 54.9383C30.5656 55.1029 30.6844 55.2478 30.8289 55.3639C30.9734 55.4801 31.1406 55.5648 31.3196 55.6128C31.4987 55.6609 31.6858 55.671 31.8691 55.6428C32.0523 55.6145 32.2277 55.5484 32.384 55.4487C32.5403 55.349 32.6741 55.2178 32.777 55.0636C32.8798 54.9093 32.9494 54.7353 32.9813 54.5527L38.9922 32.1365C39.0379 31.967 39.0496 31.7901 39.0269 31.6161C39.0041 31.442 38.9473 31.2742 38.8596 31.1221C38.772 30.97 38.6552 30.8367 38.516 30.7298C38.3768 30.6229 38.2178 30.5445 38.0483 30.499L38.0516 30.5068ZM96.8928 67.1077C94.524 69.9016 94.5552 71.9464 94.6008 75.3348C94.6086 75.8279 94.6153 76.3366 94.6153 76.8776C94.6076 77.7208 94.3731 78.5464 93.9363 79.2678C93.4996 79.9892 92.8767 80.5796 92.133 80.9772C92.218 81.2706 92.2611 81.5746 92.261 81.88V83.4874C92.3 84.2231 92.0468 84.9445 91.5564 85.4945C91.0661 86.0444 90.3784 86.3784 89.643 86.4238H89.4771C89.0017 87.9596 88.047 89.3028 86.753 90.2569C85.4589 91.2109 83.8934 91.7256 82.2857 91.7256C80.678 91.7256 79.1125 91.2109 77.8185 90.2569C76.5244 89.3028 75.5698 87.9596 75.0944 86.4238H74.9285C74.1931 86.3784 73.5054 86.0444 73.015 85.4945C72.5247 84.9445 72.2715 84.2231 72.3104 83.4874V81.88C72.3091 81.5899 72.3465 81.3009 72.4217 81.0207C71.6576 80.6294 71.015 80.0366 70.5637 79.3062C70.1124 78.5759 69.8696 77.7361 69.8615 76.8776C69.8615 76.3633 69.8682 75.8646 69.8749 75.3804C69.9267 74.1316 69.8895 72.8806 69.7636 71.637H4.72231C3.73555 71.6361 2.78945 71.2438 2.09161 70.5462C1.39376 69.8485 1.00118 68.9025 1 67.9158V4.72119C1.00118 3.73444 1.39376 2.78846 2.09161 2.09082C2.78945 1.39319 3.73555 1.00088 4.72231 1H85.5032C86.4898 1.00118 87.4356 1.39361 88.1332 2.09121C88.8308 2.78882 89.2233 3.73463 89.2244 4.72119V39.6545C91.3453 40.3688 93.3197 41.4601 95.0528 42.8759C96.9788 44.4779 98.5146 46.4974 99.5437 48.7814C100.573 51.0653 101.068 53.5537 100.992 56.0576C100.976 60.1099 99.5231 64.025 96.8928 67.1077ZM3.66149 4.72119V15.7512H86.5607V4.72119C86.5601 4.4406 86.4486 4.17163 86.2505 3.97291C86.0525 3.77419 85.7838 3.66185 85.5032 3.66038H4.72231C4.44114 3.66097 4.17166 3.77292 3.97285 3.97173C3.77403 4.17055 3.66208 4.44003 3.66149 4.72119ZM68.9888 68.9766C68.6378 68.2647 68.1975 67.6004 67.6787 66.9997C65.0466 63.9182 63.5924 60.0033 63.5746 55.9508C63.4965 53.4622 63.9855 50.9885 65.0048 48.7169C66.024 46.4453 67.5466 44.4353 69.4575 42.8392C73.0762 39.9636 77.5813 38.4342 82.2028 38.5125C83.6644 38.5113 85.1226 38.6541 86.5563 38.9388V18.4116H3.66149V67.9158C3.66208 68.1969 3.77403 68.4664 3.97285 68.6652C4.17166 68.8641 4.44114 68.976 4.72231 68.9766H68.9888ZM75.0398 81.6039C74.9934 81.6884 74.97 81.7836 74.9719 81.88V83.4874C74.9701 83.5834 74.9935 83.6782 75.0398 83.7623H89.5317C89.578 83.6782 89.6014 83.5834 89.5996 83.4874V81.88C89.6015 81.7836 89.5781 81.6884 89.5317 81.6039H75.0398ZM86.7021 86.4238H77.8694C78.2972 87.2231 78.9339 87.8914 79.7117 88.3573C80.4895 88.8232 81.3791 89.0692 82.2857 89.0692C83.1924 89.0692 84.082 88.8232 84.8598 88.3573C85.6375 87.8914 86.2743 87.2231 86.7021 86.4238ZM94.8624 65.3856C97.1001 62.7926 98.3311 59.4816 98.3309 56.0565C98.3309 45.8302 89.9725 41.1728 82.2073 41.1728C78.2055 41.0946 74.3006 42.4079 71.1594 44.8885C69.5554 46.2392 68.2794 47.937 67.4282 49.8535C66.577 51.77 66.1728 53.855 66.2461 55.9508C66.2458 59.3755 67.4768 62.6862 69.7146 65.2788C70.8503 66.5687 71.6727 68.1036 72.1179 69.7636C72.184 69.9134 72.2217 70.0742 72.2292 70.2378C72.5293 71.9468 72.6342 73.6844 72.542 75.4172C72.5353 75.8902 72.5286 76.3756 72.5286 76.8776C72.5577 77.4522 72.813 77.9919 73.2386 78.379C73.6643 78.766 74.2257 78.969 74.8005 78.9436H89.6819C90.2576 78.9705 90.8205 78.7682 91.2474 78.381C91.6743 77.9938 91.9303 77.4532 91.9594 76.8776C91.9594 76.3533 91.9527 75.8535 91.946 75.3738C91.8893 71.7795 91.8481 68.9421 94.8624 65.3868V65.3856Z" stroke="#3C7CFF" stroke-width="1.38" mask="url(#path-1-outside-1_161_50)"/>
</svg>
