<svg width="98" height="98" viewBox="0 0 98 98" fill="none" xmlns="http://www.w3.org/2000/svg">
<path d="M2.41772 97.33H95.5823C96.5475 97.33 97.33 96.5475 97.33 95.5823V2.41772C97.33 1.45248 96.5475 0.67 95.5823 0.67H2.41772C1.45248 0.67 0.67 1.45248 0.67 2.41772V95.5823C0.67 96.5475 1.45248 97.33 2.41772 97.33ZM93.8346 4.16544V93.8346H4.16544V4.16544H93.8346Z" fill="#3C7CFF" stroke="#3C7CFF" stroke-width="0.66"/>
<path d="M13.1607 77.333L13.1608 77.3328C13.49 76.8845 14.0131 76.6193 14.5697 76.6193H21.1941C21.9052 76.6193 22.4843 76.0402 22.4843 75.3291C22.4843 74.618 21.9052 74.0388 21.1941 74.0388H14.5697C14.0131 74.0388 13.4901 73.7737 13.1608 73.3256L13.1607 73.3254C12.8317 72.8768 12.7355 72.2984 12.9023 71.7675C14.4637 66.7958 19.0178 63.4548 24.232 63.4548C28.1093 63.4548 31.7465 65.3715 33.9561 68.5181H79.9284C83.6844 68.5181 86.7394 71.5732 86.7394 75.3291C86.7394 79.085 83.6844 82.1401 79.9284 82.1401H33.9559C31.7463 85.2867 28.1093 87.2034 24.232 87.2034C19.018 87.2034 14.4639 83.8624 12.9023 78.8909L13.1607 77.333ZM13.1607 77.333C12.8317 77.7815 12.7355 78.36 12.9023 78.8909L13.1607 77.333ZM31.4877 71.1412L31.4877 71.1412C29.9917 68.556 27.2106 66.9502 24.232 66.9502C21.4172 66.9502 18.8776 68.3277 17.3454 70.5434H21.1941C23.8332 70.5434 25.9797 72.6899 25.9797 75.3291C25.9797 77.9683 23.8332 80.1148 21.1941 80.1148H17.3454C18.8776 82.3305 21.4172 83.708 24.232 83.708C27.2108 83.708 29.9918 82.1022 31.4878 79.5171L31.4877 71.1412ZM31.4877 71.1412C31.8002 71.6812 32.3765 72.0135 33.0004 72.0135H79.9284C81.7563 72.0135 83.244 73.5012 83.244 75.3291C83.244 77.157 81.7563 78.6447 79.9284 78.6447H33.0006C32.3768 78.6447 31.8003 78.9769 31.4879 79.517L31.4877 71.1412Z" fill="#3C7CFF" stroke="#3C7CFF" stroke-width="0.66"/>
<path d="M2.41772 20.368H95.5823C96.5475 20.368 97.33 19.5855 97.33 18.6202C97.33 17.655 96.5475 16.8725 95.5823 16.8725H2.41772C1.45248 16.8725 0.67 17.655 0.67 18.6202C0.67 19.5855 1.45248 20.368 2.41772 20.368Z" fill="#3C7CFF" stroke="#3C7CFF" stroke-width="0.66"/>
<path d="M29.0244 18.6203C29.0244 19.5855 29.8069 20.368 30.7722 20.368C31.7374 20.368 32.5199 19.5855 32.5199 18.6203V2.41772C32.5199 1.45248 31.7374 0.67 30.7722 0.67C29.8069 0.67 29.0244 1.45248 29.0244 2.41772V18.6203Z" fill="#3C7CFF" stroke="#3C7CFF" stroke-width="0.66"/>
<path d="M53.0507 12.2668H95.5823C96.5475 12.2668 97.33 11.4843 97.33 10.519C97.33 9.5538 96.5475 8.77132 95.5823 8.77132H53.0507C52.0854 8.77132 51.3029 9.5538 51.3029 10.519C51.3029 11.4843 52.0854 12.2668 53.0507 12.2668Z" fill="#3C7CFF" stroke="#3C7CFF" stroke-width="0.66"/>
<path d="M22.6709 30.4945H95.5823C96.5475 30.4945 97.33 29.7121 97.33 28.7468C97.33 27.7816 96.5475 26.9991 95.5823 26.9991H22.6709C21.7057 26.9991 20.9232 27.7816 20.9232 28.7468C20.9232 29.7121 21.7057 30.4945 22.6709 30.4945Z" fill="#3C7CFF" stroke="#3C7CFF" stroke-width="0.66"/>
<path d="M10.519 30.4945H14.5696C15.5349 30.4945 16.3173 29.7121 16.3173 28.7468C16.3173 27.7816 15.5349 26.9991 14.5696 26.9991H10.519C9.55374 26.9991 8.77126 27.7816 8.77126 28.7468C8.77126 29.7121 9.55374 30.4945 10.519 30.4945Z" fill="#3C7CFF" stroke="#3C7CFF" stroke-width="0.66"/>
<path d="M63.1772 62.8996H77.3544C81.6687 62.8996 85.1781 59.3903 85.1781 55.0759C85.1781 50.7616 81.6687 47.2523 77.3544 47.2523H63.1772C62.212 47.2523 61.4295 48.0348 61.4295 49C61.4295 49.1527 61.3046 49.2776 61.1519 49.2776H59.1266C58.9738 49.2776 58.849 49.1527 58.849 49C58.849 48.0348 58.0665 47.2523 57.1013 47.2523H49C48.0348 47.2523 47.2523 48.0348 47.2523 49V61.1519C47.2523 62.1171 48.0348 62.8996 49 62.8996H57.1013C58.0665 62.8996 58.849 62.1171 58.849 61.1519C58.849 60.9992 58.9738 60.8743 59.1266 60.8743H61.1519C61.3046 60.8743 61.4295 60.9992 61.4295 61.1519C61.4295 62.1171 62.212 62.8996 63.1772 62.8996ZM77.3544 59.4042H64.4952C63.8644 58.202 62.6032 57.3789 61.1519 57.3789H59.1266C57.6753 57.3789 56.4141 58.202 55.7833 59.4042H50.7477V50.7477H55.7833C56.4141 51.9499 57.6753 52.773 59.1266 52.773H61.1519C62.6032 52.773 63.8644 51.9499 64.4952 50.7477H77.3544C79.7409 50.7477 81.6827 52.6895 81.6827 55.0759C81.6827 57.4624 79.7409 59.4042 77.3544 59.4042Z" fill="#3C7CFF" stroke="#3C7CFF" stroke-width="0.66"/>
<path d="M20.6456 56.8236H49C49.9652 56.8236 50.7477 56.0412 50.7477 55.0759C50.7477 54.1107 49.9652 53.3282 49 53.3282H20.6456C19.6803 53.3282 18.8978 54.1107 18.8978 55.0759C18.8978 56.0412 19.6803 56.8236 20.6456 56.8236Z" fill="#3C7CFF" stroke="#3C7CFF" stroke-width="0.66"/>
<path d="M12.8743 8.49365V8.16365H12.5443H8.49368H8.16368V8.49365V12.5443V12.8743H8.49368H12.5443H12.8743V12.5443V8.49365Z" fill="#3C7CFF" stroke="#3C7CFF" stroke-width="0.66"/>
<path d="M18.9503 8.49365V8.16365H18.6203H14.5696H14.2396V8.49365V12.5443V12.8743H14.5696H18.6203H18.9503V12.5443V8.49365Z" fill="#3C7CFF" stroke="#3C7CFF" stroke-width="0.66"/>
<path d="M25.0262 8.49365V8.16365H24.6962H20.6456H20.3156V8.49365V12.5443V12.8743H20.6456H24.6962H25.0262V12.5443V8.49365Z" fill="#3C7CFF" stroke="#3C7CFF" stroke-width="0.66"/>
</svg>
