<svg width="100" height="101" viewBox="0 0 100 101" fill="none" xmlns="http://www.w3.org/2000/svg">
<path d="M50.0027 53.7447C49.5652 53.7447 49.1322 53.584 48.7884 53.267L23.1152 29.4463C16.977 23.759 16.0485 14.3577 20.9546 7.57171C22.4857 5.44231 24.5348 3.70135 26.874 2.54517C31.4185 0.143439 37.4316 0.214865 42.3465 2.42017C44.8331 3.55851 47.0339 5.17458 48.8999 7.22798L50.0114 8.48244L51.1275 7.23701C52.9533 5.17458 55.163 3.55407 57.6853 2.42029C62.6404 0.197174 68.4169 0.0766073 73.1715 2.56314C75.466 3.71486 77.5106 5.45136 79.0373 7.57631C83.9434 14.335 83.0327 23.7368 76.9168 29.4463L76.9124 29.4508L51.222 53.2715C50.8827 53.5885 50.4452 53.7492 50.0077 53.7492L50.0027 53.7447ZM34.401 4.28724C32.3163 4.28724 30.2762 4.78275 28.4994 5.72021C26.6424 6.63982 25.0443 7.99692 23.8478 9.65754C19.9998 14.9833 20.7229 22.3622 25.5398 26.826L49.9982 49.5211L74.4704 26.8306C79.2737 22.353 79.988 14.9739 76.131 9.66554C74.9346 8.00046 73.3454 6.64783 71.533 5.73712C67.6894 3.72383 63.0959 3.89788 59.1358 5.67463C57.0778 6.59869 55.2744 7.92459 53.7789 9.6075L51.3237 12.3529C50.9844 12.7323 50.5023 12.9466 49.9933 12.9466C49.5112 12.9912 48.9978 12.7279 48.6585 12.3484L46.23 9.60749C44.7034 7.92893 42.8953 6.59424 40.8642 5.6657C38.8509 4.76396 36.6098 4.28187 34.3912 4.28187L34.401 4.28724Z" fill="#3C7CFF"/>
<path d="M29.1864 24.6876C28.7534 24.6876 28.3159 24.5314 27.9721 24.2099C24.4767 20.9735 23.9456 15.6166 26.7401 11.7556C27.6017 10.5592 28.7445 9.58606 30.0435 8.94323L30.1953 8.86734C31.4273 8.21559 32.8916 7.86292 34.4005 7.86292C35.387 7.86292 36.1861 8.66199 36.1861 9.64856C36.1861 10.6351 35.387 11.4342 34.4005 11.4342C33.4719 11.4342 32.5881 11.644 31.8381 12.0413L31.6461 12.1395C30.8559 12.5324 30.164 13.1216 29.6373 13.8493C27.9008 16.251 28.231 19.5812 30.4051 21.5945C31.1283 22.2641 31.1729 23.3935 30.5033 24.1167C30.1506 24.4961 29.673 24.6881 29.1954 24.6881L29.1864 24.6876Z" fill="#3C7CFF"/>
<path d="M38.3735 90.0382C37.3869 90.0382 36.5878 89.2391 36.5878 88.2525V65.3872C36.5878 62.1997 35.0521 59.182 32.4719 57.3071L15.0349 44.6288C12.9055 43.0797 11.5484 40.687 11.3118 38.0665L9.21372 14.84C9.07979 13.3759 7.87 12.2687 6.40137 12.2687C4.84338 12.2687 3.57109 13.5365 3.57109 15.0945V51.8793C3.57109 55.1828 5.01297 58.3032 7.52179 60.4504L20.8424 71.8339C21.2397 72.1732 21.4674 72.6687 21.4674 73.191V88.2532C21.4674 89.2398 20.6683 90.0389 19.6817 90.0389C18.6952 90.0389 17.8961 89.2398 17.8961 88.2532V74.0126L5.20517 63.1604C1.8973 60.3346 0.00446356 56.2232 0.00446356 51.8751L0 15.0949C0 11.5683 2.8704 8.69775 6.40157 8.69775C9.73184 8.69775 12.4728 11.2021 12.7718 14.519L14.8699 37.7455C15.0128 39.3436 15.8386 40.799 17.1377 41.7409L34.5747 54.4193C38.0746 56.9638 40.1638 61.0618 40.1638 65.3876V88.253C40.1638 89.2395 39.3647 90.0386 38.3781 90.0386L38.3735 90.0382Z" fill="#3C7CFF"/>
<path d="M25.446 62.9226C25.0755 62.9226 24.7005 62.8065 24.3791 62.5699L10.7099 52.3873C7.99126 50.3606 7.39757 46.6062 9.3528 43.8385C10.3171 42.4769 11.7545 41.5751 13.4062 41.3028C15.049 41.0305 16.7097 41.4233 18.0578 42.4054C18.8569 42.9857 19.031 44.1018 18.4507 44.9009C17.8703 45.6999 16.7543 45.874 15.9597 45.2937C15.3883 44.8785 14.6874 44.7134 13.9865 44.825C13.2901 44.941 12.6786 45.3205 12.2723 45.9008C11.442 47.0748 11.6964 48.6641 12.8482 49.5212L26.5173 59.7039C27.3075 60.2932 27.4727 61.4092 26.8834 62.2038C26.5352 62.677 25.995 62.9225 25.4504 62.9225L25.446 62.9226Z" fill="#3C7CFF"/>
<path d="M80.3181 90.0381C79.3315 90.0381 78.5324 89.239 78.5324 88.2524V73.1902C78.5324 72.6679 78.7601 72.1724 79.1574 71.8331L92.478 60.4497C94.9868 58.3069 96.4287 55.182 96.4287 51.8786L96.4243 15.0938C96.4243 13.5358 95.1564 12.2679 93.594 12.2679C92.1208 12.2679 90.911 13.375 90.7816 14.8393L88.6835 38.0658C88.447 40.6862 87.0899 43.0789 84.9605 44.628L67.5235 57.3064C64.9477 59.1813 63.4075 62.199 63.4075 65.3864V88.2518C63.4075 89.2383 62.6085 90.0374 61.6219 90.0374C60.6353 90.0374 59.8362 89.2383 59.8362 88.2518V65.3864C59.8362 61.0606 61.9254 56.9582 65.4253 54.418L82.8623 41.7397C84.1569 40.7977 84.9828 39.3379 85.1301 37.7443L87.2282 14.5178C87.5273 11.1965 90.2683 8.69653 93.5984 8.69653C97.1295 8.69653 100 11.5669 100 15.0936V51.8785C100 56.2265 98.1027 60.3379 94.7993 63.1637L82.1084 74.016V88.2566C82.1084 89.2431 81.3093 90.0422 80.3227 90.0422L80.3181 90.0381Z" fill="#3C7CFF"/>
<path d="M43.5561 100.752H14.4099C13.4233 100.752 12.6242 99.9529 12.6242 98.9663V88.2524C12.6242 87.2659 13.4233 86.4668 14.4099 86.4668H43.5561C44.5427 86.4668 45.3418 87.2659 45.3418 88.2524V98.9663C45.3418 99.9529 44.5427 100.752 43.5561 100.752ZM16.1961 97.1807H41.7711V90.0381H16.1961V97.1807Z" fill="#3C7CFF"/>
<path d="M85.5864 100.752H56.4401C55.4536 100.752 54.6545 99.9529 54.6545 98.9663V88.2524C54.6545 87.2659 55.4536 86.4668 56.4401 86.4668H85.5864C86.573 86.4668 87.372 87.2659 87.372 88.2524V98.9663C87.372 99.9529 86.573 100.752 85.5864 100.752ZM58.2263 97.1807H83.8013V90.0381H58.2263V97.1807Z" fill="#3C7CFF"/>
<path d="M74.5504 62.9227C74.0058 62.9227 73.4701 62.6727 73.1174 62.2039C72.5282 61.4138 72.6933 60.2933 73.4835 59.704L87.1526 49.5214C88.3044 48.6642 88.5589 47.0706 87.7285 45.9009C87.3178 45.3206 86.7107 44.9411 86.0143 44.8251C85.309 44.709 84.617 44.8786 84.0411 45.2938C83.2465 45.8741 82.126 45.6956 81.5501 44.901C80.9698 44.1019 81.1439 42.9858 81.943 42.4055C83.2956 41.4234 84.9428 41.0306 86.5946 41.3029C88.2418 41.5752 89.6837 42.4769 90.648 43.8386C92.6077 46.6063 92.0095 50.3606 89.2909 52.3874L75.6217 62.5655C75.3003 62.8065 74.9253 62.9181 74.5548 62.9181L74.5504 62.9227Z" fill="#3C7CFF"/>
</svg>
