<svg width="96" height="88" viewBox="0 0 96 88" fill="none" xmlns="http://www.w3.org/2000/svg">
<path fill-rule="evenodd" clip-rule="evenodd" d="M96 8C96 3.582 92.418 0 88 0C71.342 0 24.658 0 8 0C3.582 0 0 3.582 0 8C0 21.228 0 52.772 0 66C0 70.418 3.582 74 8 74C24.658 74 71.342 74 88 74C92.418 74 96 70.418 96 66V8ZM92 8V66C92 68.21 90.21 70 88 70C71.342 70 24.658 70 8 70C5.79 70 4 68.21 4 66C4 52.772 4 21.228 4 8C4 5.79 5.79 4 8 4C24.658 4 71.342 4 88 4C90.21 4 92 5.79 92 8Z" fill="#3C7CFF"/>
<path fill-rule="evenodd" clip-rule="evenodd" d="M2 56H94C95.104 56 96 55.104 96 54C96 52.896 95.104 52 94 52H2C0.896 52 0 52.896 0 54C0 55.104 0.896 56 2 56Z" fill="#3C7CFF"/>
<path fill-rule="evenodd" clip-rule="evenodd" d="M57.6941 84.0001L56.02 72.2821C55.864 71.1901 56.6241 70.1761 57.7181 70.0201C58.8101 69.8641 59.8241 70.6241 59.9801 71.7181L61.9801 85.7181C62.0621 86.2921 61.8901 86.8721 61.5101 87.3101C61.1321 87.7481 60.5801 88.0001 60.0001 88.0001H36.0001C35.4201 88.0001 34.8681 87.7481 34.4901 87.3101C34.1101 86.8721 33.9381 86.2921 34.0201 85.7181L36.0201 71.7181C36.1761 70.6241 37.1901 69.8641 38.2821 70.0201C39.3761 70.1761 40.1361 71.1901 39.9801 72.2821L38.3061 84.0001H57.6941Z" fill="#3C7CFF"/>
<path fill-rule="evenodd" clip-rule="evenodd" d="M30 88H66C67.104 88 68 87.104 68 86C68 84.896 67.104 84 66 84H30C28.896 84 28 84.896 28 86C28 87.104 28.896 88 30 88Z" fill="#3C7CFF"/>
<path fill-rule="evenodd" clip-rule="evenodd" d="M34 26C34 24.896 33.104 24 32 24H20C18.896 24 18 24.896 18 26V54C18 55.104 18.896 56 20 56H32C33.104 56 34 55.104 34 54V26ZM22 28V52H30V28H22Z" fill="#3C7CFF"/>
<path fill-rule="evenodd" clip-rule="evenodd" d="M58 26C58 24.896 57.104 24 56 24H44C42.896 24 42 24.896 42 26V54C42 55.104 42.896 56 44 56H56C57.104 56 58 55.104 58 54V26ZM46 28V52H54V28H46Z" fill="#3C7CFF"/>
<path fill-rule="evenodd" clip-rule="evenodd" d="M46 20C46 18.896 45.104 18 44 18H32C30.896 18 30 18.896 30 20V54C30 55.104 30.896 56 32 56H44C45.104 56 46 55.104 46 54V20ZM34 22V52H42V22H34Z" fill="#3C7CFF"/>
<path fill-rule="evenodd" clip-rule="evenodd" d="M67.708 17.2699C67.336 16.2299 66.19 15.6899 65.15 16.0619L53.854 20.1099C52.814 20.4839 52.274 21.6279 52.646 22.6679L64.118 54.6739C64.49 55.7139 65.634 56.2559 66.674 55.8819L77.972 51.8339C79.01 51.4619 79.552 50.3159 79.18 49.2759L67.708 17.2699ZM57.086 23.2019L67.208 51.4419L74.738 48.7439L64.618 20.5019L57.086 23.2019Z" fill="#3C7CFF"/>
<path fill-rule="evenodd" clip-rule="evenodd" d="M46 28C46 26.896 45.104 26 44 26H32C30.896 26 30 26.896 30 28V46C30 47.104 30.896 48 32 48H44C45.104 48 46 47.104 46 46V28ZM34 30V44H42V30H34Z" fill="#3C7CFF"/>
<path fill-rule="evenodd" clip-rule="evenodd" d="M70.408 24.8019C70.034 23.7619 68.89 23.2199 67.85 23.5939L56.554 27.6419C55.514 28.0139 54.972 29.1599 55.346 30.1999L61.418 47.1439C61.79 48.1839 62.936 48.7239 63.976 48.3519L75.272 44.3039C76.312 43.9299 76.852 42.7859 76.48 41.7459L70.408 24.8019ZM59.786 30.7319L64.508 43.9119L72.04 41.2119L67.316 28.0339L59.786 30.7319Z" fill="#3C7CFF"/>
</svg>
