<svg width="98" height="98" viewBox="0 0 98 98" fill="none" xmlns="http://www.w3.org/2000/svg">
<mask id="path-1-outside-1_206_1599" maskUnits="userSpaceOnUse" x="0" y="0" width="98" height="98" fill="black">
<rect fill="white" width="98" height="98"/>
<path d="M91.8438 60.4375H82.5625V15.5312C82.5605 14.1643 82.0166 12.854 81.0501 11.8874C80.0835 10.9209 78.7732 10.377 77.4062 10.375H76.9375V5.21875C76.9375 4.09987 76.493 3.02681 75.7019 2.23564C74.9107 1.44447 73.8376 1 72.7188 1C71.5999 1 70.5268 1.44447 69.7356 2.23564C68.9445 3.02681 68.5 4.09987 68.5 5.21875V10.375H61.4688V5.21875C61.4688 4.09987 61.0243 3.02681 60.2331 2.23564C59.4419 1.44447 58.3689 1 57.25 1C56.1311 1 55.0581 1.44447 54.2669 2.23564C53.4757 3.02681 53.0312 4.09987 53.0312 5.21875V10.375H46V5.21875C46 4.09987 45.5555 3.02681 44.7644 2.23564C43.9732 1.44447 42.9001 1 41.7812 1C40.6624 1 39.5893 1.44447 38.7981 2.23564C38.007 3.02681 37.5625 4.09987 37.5625 5.21875V10.375H30.5312V5.21875C30.5312 4.09987 30.0868 3.02681 29.2956 2.23564C28.5044 1.44447 27.4314 1 26.3125 1C25.1936 1 24.1206 1.44447 23.3294 2.23564C22.5382 3.02681 22.0938 4.09987 22.0938 5.21875V10.375H15.0625V5.21875C15.0625 4.09987 14.618 3.02681 13.8269 2.23564C13.0357 1.44447 11.9626 1 10.8438 1C9.72487 1 8.65181 1.44447 7.86064 2.23564C7.06947 3.02681 6.625 4.09987 6.625 5.21875V10.375H6.15625C4.78934 10.377 3.47898 10.9209 2.51242 11.8874C1.54587 12.854 1.00198 14.1643 1 15.5312L1 77.4062C1.00198 78.7732 1.54587 80.0835 2.51242 81.0501C3.47898 82.0166 4.78934 82.5605 6.15625 82.5625H60.4375V91.8438C60.4395 93.2107 60.9834 94.521 61.9499 95.4876C62.9165 96.4541 64.2268 96.998 65.5938 97H91.8438C93.2107 96.998 94.521 96.4541 95.4876 95.4876C96.4541 94.521 96.998 93.2107 97 91.8438V65.5938C96.998 64.2268 96.4541 62.9165 95.4876 61.9499C94.521 60.9834 93.2107 60.4395 91.8438 60.4375ZM71.3125 5.21875C71.3125 4.84579 71.4607 4.4881 71.7244 4.22438C71.9881 3.96066 72.3458 3.8125 72.7188 3.8125C73.0917 3.8125 73.4494 3.96066 73.7131 4.22438C73.9768 4.4881 74.125 4.84579 74.125 5.21875V10.375H71.3125V5.21875ZM55.8438 5.21875C55.8438 4.84579 55.9919 4.4881 56.2556 4.22438C56.5194 3.96066 56.877 3.8125 57.25 3.8125C57.623 3.8125 57.9806 3.96066 58.2444 4.22438C58.5081 4.4881 58.6562 4.84579 58.6562 5.21875V10.375H55.8438V5.21875ZM40.375 5.21875C40.375 4.84579 40.5232 4.4881 40.7869 4.22438C41.0506 3.96066 41.4083 3.8125 41.7812 3.8125C42.1542 3.8125 42.5119 3.96066 42.7756 4.22438C43.0393 4.4881 43.1875 4.84579 43.1875 5.21875V10.375H40.375V5.21875ZM24.9062 5.21875C24.9062 4.84579 25.0544 4.4881 25.3181 4.22438C25.5819 3.96066 25.9395 3.8125 26.3125 3.8125C26.6855 3.8125 27.0431 3.96066 27.3069 4.22438C27.5706 4.4881 27.7188 4.84579 27.7188 5.21875V10.375H24.9062V5.21875ZM9.4375 5.21875C9.4375 4.84579 9.58566 4.4881 9.84938 4.22438C10.1131 3.96066 10.4708 3.8125 10.8438 3.8125C11.2167 3.8125 11.5744 3.96066 11.8381 4.22438C12.1018 4.4881 12.25 4.84579 12.25 5.21875V10.375H9.4375V5.21875ZM6.15625 13.1875H77.4062C78.0275 13.1885 78.6231 13.4357 79.0624 13.8751C79.5018 14.3144 79.749 14.91 79.75 15.5312V21.625H3.8125V15.5312C3.81349 14.91 4.06074 14.3144 4.50006 13.8751C4.93939 13.4357 5.53495 13.1885 6.15625 13.1875ZM60.4375 65.5938V79.75H6.15625C5.53495 79.749 4.93939 79.5018 4.50006 79.0624C4.06074 78.6231 3.81349 78.0275 3.8125 77.4062V24.4375H79.75V60.4375H65.5938C64.2268 60.4395 62.9165 60.9834 61.9499 61.9499C60.9834 62.9165 60.4395 64.2268 60.4375 65.5938ZM94.1875 91.8438C94.1865 92.465 93.9393 93.0606 93.4999 93.4999C93.0606 93.9393 92.465 94.1865 91.8438 94.1875H65.5938C64.9725 94.1865 64.3769 93.9393 63.9376 93.4999C63.4982 93.0606 63.251 92.465 63.25 91.8438V65.5938C63.251 64.9725 63.4982 64.3769 63.9376 63.9376C64.3769 63.4982 64.9725 63.251 65.5938 63.25H91.8438C92.465 63.251 93.0606 63.4982 93.4999 63.9376C93.9393 64.3769 94.1865 64.9725 94.1875 65.5938V91.8438Z"/>
</mask>
<path d="M91.8438 60.4375H82.5625V15.5312C82.5605 14.1643 82.0166 12.854 81.0501 11.8874C80.0835 10.9209 78.7732 10.377 77.4062 10.375H76.9375V5.21875C76.9375 4.09987 76.493 3.02681 75.7019 2.23564C74.9107 1.44447 73.8376 1 72.7188 1C71.5999 1 70.5268 1.44447 69.7356 2.23564C68.9445 3.02681 68.5 4.09987 68.5 5.21875V10.375H61.4688V5.21875C61.4688 4.09987 61.0243 3.02681 60.2331 2.23564C59.4419 1.44447 58.3689 1 57.25 1C56.1311 1 55.0581 1.44447 54.2669 2.23564C53.4757 3.02681 53.0312 4.09987 53.0312 5.21875V10.375H46V5.21875C46 4.09987 45.5555 3.02681 44.7644 2.23564C43.9732 1.44447 42.9001 1 41.7812 1C40.6624 1 39.5893 1.44447 38.7981 2.23564C38.007 3.02681 37.5625 4.09987 37.5625 5.21875V10.375H30.5312V5.21875C30.5312 4.09987 30.0868 3.02681 29.2956 2.23564C28.5044 1.44447 27.4314 1 26.3125 1C25.1936 1 24.1206 1.44447 23.3294 2.23564C22.5382 3.02681 22.0938 4.09987 22.0938 5.21875V10.375H15.0625V5.21875C15.0625 4.09987 14.618 3.02681 13.8269 2.23564C13.0357 1.44447 11.9626 1 10.8438 1C9.72487 1 8.65181 1.44447 7.86064 2.23564C7.06947 3.02681 6.625 4.09987 6.625 5.21875V10.375H6.15625C4.78934 10.377 3.47898 10.9209 2.51242 11.8874C1.54587 12.854 1.00198 14.1643 1 15.5312L1 77.4062C1.00198 78.7732 1.54587 80.0835 2.51242 81.0501C3.47898 82.0166 4.78934 82.5605 6.15625 82.5625H60.4375V91.8438C60.4395 93.2107 60.9834 94.521 61.9499 95.4876C62.9165 96.4541 64.2268 96.998 65.5938 97H91.8438C93.2107 96.998 94.521 96.4541 95.4876 95.4876C96.4541 94.521 96.998 93.2107 97 91.8438V65.5938C96.998 64.2268 96.4541 62.9165 95.4876 61.9499C94.521 60.9834 93.2107 60.4395 91.8438 60.4375ZM71.3125 5.21875C71.3125 4.84579 71.4607 4.4881 71.7244 4.22438C71.9881 3.96066 72.3458 3.8125 72.7188 3.8125C73.0917 3.8125 73.4494 3.96066 73.7131 4.22438C73.9768 4.4881 74.125 4.84579 74.125 5.21875V10.375H71.3125V5.21875ZM55.8438 5.21875C55.8438 4.84579 55.9919 4.4881 56.2556 4.22438C56.5194 3.96066 56.877 3.8125 57.25 3.8125C57.623 3.8125 57.9806 3.96066 58.2444 4.22438C58.5081 4.4881 58.6562 4.84579 58.6562 5.21875V10.375H55.8438V5.21875ZM40.375 5.21875C40.375 4.84579 40.5232 4.4881 40.7869 4.22438C41.0506 3.96066 41.4083 3.8125 41.7812 3.8125C42.1542 3.8125 42.5119 3.96066 42.7756 4.22438C43.0393 4.4881 43.1875 4.84579 43.1875 5.21875V10.375H40.375V5.21875ZM24.9062 5.21875C24.9062 4.84579 25.0544 4.4881 25.3181 4.22438C25.5819 3.96066 25.9395 3.8125 26.3125 3.8125C26.6855 3.8125 27.0431 3.96066 27.3069 4.22438C27.5706 4.4881 27.7188 4.84579 27.7188 5.21875V10.375H24.9062V5.21875ZM9.4375 5.21875C9.4375 4.84579 9.58566 4.4881 9.84938 4.22438C10.1131 3.96066 10.4708 3.8125 10.8438 3.8125C11.2167 3.8125 11.5744 3.96066 11.8381 4.22438C12.1018 4.4881 12.25 4.84579 12.25 5.21875V10.375H9.4375V5.21875ZM6.15625 13.1875H77.4062C78.0275 13.1885 78.6231 13.4357 79.0624 13.8751C79.5018 14.3144 79.749 14.91 79.75 15.5312V21.625H3.8125V15.5312C3.81349 14.91 4.06074 14.3144 4.50006 13.8751C4.93939 13.4357 5.53495 13.1885 6.15625 13.1875ZM60.4375 65.5938V79.75H6.15625C5.53495 79.749 4.93939 79.5018 4.50006 79.0624C4.06074 78.6231 3.81349 78.0275 3.8125 77.4062V24.4375H79.75V60.4375H65.5938C64.2268 60.4395 62.9165 60.9834 61.9499 61.9499C60.9834 62.9165 60.4395 64.2268 60.4375 65.5938ZM94.1875 91.8438C94.1865 92.465 93.9393 93.0606 93.4999 93.4999C93.0606 93.9393 92.465 94.1865 91.8438 94.1875H65.5938C64.9725 94.1865 64.3769 93.9393 63.9376 93.4999C63.4982 93.0606 63.251 92.465 63.25 91.8438V65.5938C63.251 64.9725 63.4982 64.3769 63.9376 63.9376C64.3769 63.4982 64.9725 63.251 65.5938 63.25H91.8438C92.465 63.251 93.0606 63.4982 93.4999 63.9376C93.9393 64.3769 94.1865 64.9725 94.1875 65.5938V91.8438Z" fill="#3C7CFF"/>
<path d="M91.8438 60.4375H82.5625V15.5312C82.5605 14.1643 82.0166 12.854 81.0501 11.8874C80.0835 10.9209 78.7732 10.377 77.4062 10.375H76.9375V5.21875C76.9375 4.09987 76.493 3.02681 75.7019 2.23564C74.9107 1.44447 73.8376 1 72.7188 1C71.5999 1 70.5268 1.44447 69.7356 2.23564C68.9445 3.02681 68.5 4.09987 68.5 5.21875V10.375H61.4688V5.21875C61.4688 4.09987 61.0243 3.02681 60.2331 2.23564C59.4419 1.44447 58.3689 1 57.25 1C56.1311 1 55.0581 1.44447 54.2669 2.23564C53.4757 3.02681 53.0312 4.09987 53.0312 5.21875V10.375H46V5.21875C46 4.09987 45.5555 3.02681 44.7644 2.23564C43.9732 1.44447 42.9001 1 41.7812 1C40.6624 1 39.5893 1.44447 38.7981 2.23564C38.007 3.02681 37.5625 4.09987 37.5625 5.21875V10.375H30.5312V5.21875C30.5312 4.09987 30.0868 3.02681 29.2956 2.23564C28.5044 1.44447 27.4314 1 26.3125 1C25.1936 1 24.1206 1.44447 23.3294 2.23564C22.5382 3.02681 22.0938 4.09987 22.0938 5.21875V10.375H15.0625V5.21875C15.0625 4.09987 14.618 3.02681 13.8269 2.23564C13.0357 1.44447 11.9626 1 10.8438 1C9.72487 1 8.65181 1.44447 7.86064 2.23564C7.06947 3.02681 6.625 4.09987 6.625 5.21875V10.375H6.15625C4.78934 10.377 3.47898 10.9209 2.51242 11.8874C1.54587 12.854 1.00198 14.1643 1 15.5312L1 77.4062C1.00198 78.7732 1.54587 80.0835 2.51242 81.0501C3.47898 82.0166 4.78934 82.5605 6.15625 82.5625H60.4375V91.8438C60.4395 93.2107 60.9834 94.521 61.9499 95.4876C62.9165 96.4541 64.2268 96.998 65.5938 97H91.8438C93.2107 96.998 94.521 96.4541 95.4876 95.4876C96.4541 94.521 96.998 93.2107 97 91.8438V65.5938C96.998 64.2268 96.4541 62.9165 95.4876 61.9499C94.521 60.9834 93.2107 60.4395 91.8438 60.4375ZM71.3125 5.21875C71.3125 4.84579 71.4607 4.4881 71.7244 4.22438C71.9881 3.96066 72.3458 3.8125 72.7188 3.8125C73.0917 3.8125 73.4494 3.96066 73.7131 4.22438C73.9768 4.4881 74.125 4.84579 74.125 5.21875V10.375H71.3125V5.21875ZM55.8438 5.21875C55.8438 4.84579 55.9919 4.4881 56.2556 4.22438C56.5194 3.96066 56.877 3.8125 57.25 3.8125C57.623 3.8125 57.9806 3.96066 58.2444 4.22438C58.5081 4.4881 58.6562 4.84579 58.6562 5.21875V10.375H55.8438V5.21875ZM40.375 5.21875C40.375 4.84579 40.5232 4.4881 40.7869 4.22438C41.0506 3.96066 41.4083 3.8125 41.7812 3.8125C42.1542 3.8125 42.5119 3.96066 42.7756 4.22438C43.0393 4.4881 43.1875 4.84579 43.1875 5.21875V10.375H40.375V5.21875ZM24.9062 5.21875C24.9062 4.84579 25.0544 4.4881 25.3181 4.22438C25.5819 3.96066 25.9395 3.8125 26.3125 3.8125C26.6855 3.8125 27.0431 3.96066 27.3069 4.22438C27.5706 4.4881 27.7188 4.84579 27.7188 5.21875V10.375H24.9062V5.21875ZM9.4375 5.21875C9.4375 4.84579 9.58566 4.4881 9.84938 4.22438C10.1131 3.96066 10.4708 3.8125 10.8438 3.8125C11.2167 3.8125 11.5744 3.96066 11.8381 4.22438C12.1018 4.4881 12.25 4.84579 12.25 5.21875V10.375H9.4375V5.21875ZM6.15625 13.1875H77.4062C78.0275 13.1885 78.6231 13.4357 79.0624 13.8751C79.5018 14.3144 79.749 14.91 79.75 15.5312V21.625H3.8125V15.5312C3.81349 14.91 4.06074 14.3144 4.50006 13.8751C4.93939 13.4357 5.53495 13.1885 6.15625 13.1875ZM60.4375 65.5938V79.75H6.15625C5.53495 79.749 4.93939 79.5018 4.50006 79.0624C4.06074 78.6231 3.81349 78.0275 3.8125 77.4062V24.4375H79.75V60.4375H65.5938C64.2268 60.4395 62.9165 60.9834 61.9499 61.9499C60.9834 62.9165 60.4395 64.2268 60.4375 65.5938ZM94.1875 91.8438C94.1865 92.465 93.9393 93.0606 93.4999 93.4999C93.0606 93.9393 92.465 94.1865 91.8438 94.1875H65.5938C64.9725 94.1865 64.3769 93.9393 63.9376 93.4999C63.4982 93.0606 63.251 92.465 63.25 91.8438V65.5938C63.251 64.9725 63.4982 64.3769 63.9376 63.9376C64.3769 63.4982 64.9725 63.251 65.5938 63.25H91.8438C92.465 63.251 93.0606 63.4982 93.4999 63.9376C93.9393 64.3769 94.1865 64.9725 94.1875 65.5938V91.8438Z" stroke="#3C7CFF" stroke-width="1.2" mask="url(#path-1-outside-1_206_1599)"/>
<path d="M90.5837 76.9946V76.9997L85.9977 73.0686L85.9974 73.0683C85.653 72.7739 85.2057 72.6284 84.754 72.6638C84.3023 72.6992 83.8832 72.9126 83.5888 73.2571C83.2944 73.6015 83.1489 74.0488 83.1843 74.5005C83.2197 74.9522 83.4331 75.3713 83.7776 75.6657L83.7776 75.6657L87.3507 78.7189L83.7788 81.771C83.7786 81.7711 83.7784 81.7713 83.7782 81.7715C83.6066 81.9167 83.4654 82.0943 83.3627 82.2942C83.2598 82.4944 83.1975 82.7129 83.1795 82.9372C83.1614 83.1616 83.188 83.3872 83.2575 83.6013C83.327 83.8153 83.4382 84.0134 83.5846 84.1843L83.8119 83.9895L83.5846 84.1843C83.731 84.3552 83.9098 84.4954 84.1107 84.5969C84.3115 84.6984 84.5305 84.7592 84.7549 84.7757C84.9793 84.7923 85.2048 84.7642 85.4184 84.6933C85.6316 84.6224 85.8288 84.5101 85.9985 84.3628C85.9987 84.3626 85.999 84.3624 85.9992 84.3622L91.0788 80.008C91.2657 79.848 91.4158 79.6494 91.5187 79.4259C91.6216 79.2024 91.6748 78.9593 91.6748 78.7132C91.6748 78.4672 91.6216 78.224 91.5187 78.0005C91.4158 77.777 91.2657 77.5785 91.0788 77.4184L90.5837 76.9946Z" fill="#3C7CFF" stroke="#3C7CFF" stroke-width="0.6"/>
<path d="M71.4397 73.0686L71.4398 73.0685C71.7832 72.7743 72.2294 72.6284 72.6803 72.663C73.1311 72.6975 73.5498 72.9096 73.8443 73.2526C73.991 73.4229 74.1026 73.6205 74.1728 73.8341C74.243 74.0477 74.2703 74.2731 74.2532 74.4973C74.2361 74.7215 74.1748 74.9401 74.073 75.1406C73.9712 75.3411 73.8308 75.5195 73.6599 75.6656L73.6599 75.6657L70.0868 78.7188L73.6599 81.772L73.6599 81.772C74.0043 82.0664 74.2177 82.4855 74.2531 82.9372C74.2885 83.3889 74.143 83.8362 73.8487 84.1806C73.5543 84.5251 73.1352 84.7384 72.6835 84.7738C72.2318 84.8092 71.7845 84.6638 71.4401 84.3694L71.4397 84.3691L66.3586 80.0136C66.1717 79.8536 66.0217 79.655 65.9188 79.4315C65.8159 79.208 65.7626 78.9649 65.7626 78.7188C65.7626 78.4728 65.8159 78.2297 65.9188 78.0061C66.0216 77.7827 66.1716 77.5842 66.3585 77.4242L71.4397 73.0686ZM71.4397 73.0686L66.3586 77.4241L71.4397 73.0686Z" fill="#3C7CFF" stroke="#3C7CFF" stroke-width="0.6"/>
<path d="M80.9483 69.8047L80.9472 69.8044C80.5082 69.6956 80.044 69.7652 79.6561 69.9979C79.2683 70.2306 78.9885 70.6074 78.8779 71.046L78.8777 71.0466L75.2497 85.5626C75.2496 85.5626 75.2496 85.5628 75.2496 85.5628C75.1951 85.7801 75.1839 86.0059 75.2167 86.2275C75.2495 86.4492 75.3257 86.6623 75.4408 86.8545C75.5559 87.0467 75.7078 87.2144 75.8877 87.348C76.0677 87.4815 76.2722 87.5783 76.4895 87.6328L76.4913 87.6332C76.6269 87.6664 76.7661 87.6831 76.9058 87.6831L76.9062 87.6831C77.2873 87.6824 77.6573 87.5541 77.9571 87.3187C78.2567 87.0834 78.4689 86.7545 78.56 86.3846C78.56 86.3844 78.5601 86.3842 78.5601 86.3841L82.1879 71.8689L82.1881 71.8681C82.2962 71.4301 82.2265 70.9671 81.9941 70.5804C81.7618 70.1938 81.3857 69.9148 80.9483 69.8047Z" fill="#3C7CFF" stroke="#3C7CFF" stroke-width="0.6"/>
<path d="M16.4687 29.125H12.7187C11.6002 29.126 10.5277 29.5708 9.73674 30.3617C8.94579 31.1527 8.50099 32.2252 8.5 33.3437V37.0937C8.50099 38.2123 8.94579 39.2848 9.73674 40.0758C10.5277 40.8667 11.6002 41.3115 12.7187 41.3125H16.4687C17.5873 41.3115 18.6598 40.8667 19.4508 40.0758C20.2417 39.2848 20.6865 38.2123 20.6875 37.0937V33.3437C20.6865 32.2252 20.2417 31.1527 19.4508 30.3617C18.6598 29.5708 17.5873 29.126 16.4687 29.125ZM17.875 37.0937C17.875 37.4667 17.7268 37.8244 17.4631 38.0881C17.1994 38.3518 16.8417 38.5 16.4687 38.5H12.7187C12.3458 38.5 11.9881 38.3518 11.7244 38.0881C11.4607 37.8244 11.3125 37.4667 11.3125 37.0937V33.3437C11.3125 32.9708 11.4607 32.6131 11.7244 32.3494C11.9881 32.0857 12.3458 31.9375 12.7187 31.9375H16.4687C16.8417 31.9375 17.1994 32.0857 17.4631 32.3494C17.7268 32.6131 17.875 32.9708 17.875 33.3437V37.0937Z" fill="#3C7CFF"/>
<path d="M34.5944 29.125H30.8444C29.7258 29.126 28.6533 29.5708 27.8624 30.3617C27.0714 31.1527 26.6266 32.2252 26.6256 33.3437V37.0937C26.6266 38.2123 27.0714 39.2848 27.8624 40.0758C28.6533 40.8667 29.7258 41.3115 30.8444 41.3125H34.5944C35.7128 41.311 36.785 40.8661 37.5758 40.0752C38.3667 39.2844 38.8116 38.2122 38.8131 37.0937V33.3437C38.8116 32.2253 38.3667 31.1531 37.5758 30.3623C36.785 29.5714 35.7128 29.1265 34.5944 29.125ZM36.0006 37.0937C36.0001 37.4666 35.8518 37.824 35.5882 38.0876C35.3246 38.3512 34.9672 38.4995 34.5944 38.5H30.8444C30.4714 38.5 30.1137 38.3518 29.85 38.0881C29.5863 37.8244 29.4381 37.4667 29.4381 37.0937V33.3437C29.4381 32.9708 29.5863 32.6131 29.85 32.3494C30.1137 32.0857 30.4714 31.9375 30.8444 31.9375H34.5944C34.9672 31.938 35.3246 32.0863 35.5882 32.3499C35.8518 32.6135 36.0001 32.9709 36.0006 33.3437V37.0937Z" fill="#3C7CFF"/>
<path d="M52.7181 29.125H48.9681C47.8497 29.1265 46.7775 29.5714 45.9867 30.3623C45.1958 31.1531 44.7509 32.2253 44.7494 33.3437V37.0937C44.7509 38.2122 45.1958 39.2844 45.9867 40.0752C46.7775 40.8661 47.8497 41.311 48.9681 41.3125H52.7181C53.8367 41.3115 54.9092 40.8667 55.7001 40.0758C56.4911 39.2848 56.9359 38.2123 56.9369 37.0937V33.3437C56.9359 32.2252 56.4911 31.1527 55.7001 30.3617C54.9092 29.5708 53.8367 29.126 52.7181 29.125ZM54.1244 37.0937C54.1244 37.4667 53.9762 37.8244 53.7125 38.0881C53.4488 38.3518 53.0911 38.5 52.7181 38.5H48.9681C48.5953 38.4995 48.2379 38.3512 47.9743 38.0876C47.7107 37.824 47.5624 37.4666 47.5619 37.0937V33.3437C47.5624 32.9709 47.7107 32.6135 47.9743 32.3499C48.2379 32.0863 48.5953 31.938 48.9681 31.9375H52.7181C53.0911 31.9375 53.4488 32.0857 53.7125 32.3494C53.9762 32.6131 54.1244 32.9708 54.1244 33.3437V37.0937Z" fill="#3C7CFF"/>
<path d="M67.0937 41.3125H70.8437C71.9623 41.3115 73.0348 40.8667 73.8258 40.0758C74.6167 39.2848 75.0615 38.2123 75.0625 37.0937V33.3437C75.0615 32.2252 74.6167 31.1527 73.8258 30.3617C73.0348 29.5708 71.9623 29.126 70.8437 29.125H67.0937C65.9752 29.126 64.9027 29.5708 64.1117 30.3617C63.3208 31.1527 62.876 32.2252 62.875 33.3437V37.0937C62.876 38.2123 63.3208 39.2848 64.1117 40.0758C64.9027 40.8667 65.9752 41.3115 67.0937 41.3125ZM65.6875 33.3437C65.6875 32.9708 65.8357 32.6131 66.0994 32.3494C66.3631 32.0857 66.7208 31.9375 67.0937 31.9375H70.8437C71.2167 31.9375 71.5744 32.0857 71.8381 32.3494C72.1018 32.6131 72.25 32.9708 72.25 33.3437V37.0937C72.25 37.4667 72.1018 37.8244 71.8381 38.0881C71.5744 38.3518 71.2167 38.5 70.8437 38.5H67.0937C66.7208 38.5 66.3631 38.3518 66.0994 38.0881C65.8357 37.8244 65.6875 37.4667 65.6875 37.0937V33.3437Z" fill="#3C7CFF"/>
<path d="M16.4687 46H12.7187C11.6002 46.001 10.5277 46.4458 9.73674 47.2367C8.94579 48.0277 8.50099 49.1002 8.5 50.2187V53.9687C8.50099 55.0873 8.94579 56.1598 9.73674 56.9508C10.5277 57.7417 11.6002 58.1865 12.7187 58.1875H16.4687C17.5873 58.1865 18.6598 57.7417 19.4508 56.9508C20.2417 56.1598 20.6865 55.0873 20.6875 53.9687V50.2187C20.6865 49.1002 20.2417 48.0277 19.4508 47.2367C18.6598 46.4458 17.5873 46.001 16.4687 46ZM17.875 53.9687C17.875 54.3417 17.7268 54.6994 17.4631 54.9631C17.1994 55.2268 16.8417 55.375 16.4687 55.375H12.7187C12.3458 55.375 11.9881 55.2268 11.7244 54.9631C11.4607 54.6994 11.3125 54.3417 11.3125 53.9687V50.2187C11.3125 49.8458 11.4607 49.4881 11.7244 49.2244C11.9881 48.9607 12.3458 48.8125 12.7187 48.8125H16.4687C16.8417 48.8125 17.1994 48.9607 17.4631 49.2244C17.7268 49.4881 17.875 49.8458 17.875 50.2187V53.9687Z" fill="#3C7CFF"/>
<path d="M34.5944 46H30.8444C29.7258 46.001 28.6533 46.4458 27.8624 47.2367C27.0714 48.0277 26.6266 49.1002 26.6256 50.2187V53.9687C26.6266 55.0873 27.0714 56.1598 27.8624 56.9508C28.6533 57.7417 29.7258 58.1865 30.8444 58.1875H34.5944C35.7128 58.186 36.785 57.7411 37.5758 56.9502C38.3667 56.1594 38.8116 55.0872 38.8131 53.9687V50.2187C38.8116 49.1003 38.3667 48.0281 37.5758 47.2373C36.785 46.4464 35.7128 46.0015 34.5944 46ZM36.0006 53.9687C36.0001 54.3416 35.8518 54.699 35.5882 54.9626C35.3246 55.2262 34.9672 55.3745 34.5944 55.375H30.8444C30.4714 55.375 30.1137 55.2268 29.85 54.9631C29.5863 54.6994 29.4381 54.3417 29.4381 53.9687V50.2187C29.4381 49.8458 29.5863 49.4881 29.85 49.2244C30.1137 48.9607 30.4714 48.8125 30.8444 48.8125H34.5944C34.9672 48.813 35.3246 48.9613 35.5882 49.2249C35.8518 49.4885 36.0001 49.8459 36.0006 50.2187V53.9687Z" fill="#3C7CFF"/>
<path d="M52.7181 46H48.9681C47.8497 46.0015 46.7775 46.4464 45.9867 47.2373C45.1958 48.0281 44.7509 49.1003 44.7494 50.2187V53.9687C44.7509 55.0872 45.1958 56.1594 45.9867 56.9502C46.7775 57.7411 47.8497 58.186 48.9681 58.1875H52.7181C53.8367 58.1865 54.9092 57.7417 55.7001 56.9508C56.4911 56.1598 56.9359 55.0873 56.9369 53.9687V50.2187C56.9359 49.1002 56.4911 48.0277 55.7001 47.2367C54.9092 46.4458 53.8367 46.001 52.7181 46ZM54.1244 53.9687C54.1244 54.3417 53.9762 54.6994 53.7125 54.9631C53.4488 55.2268 53.0911 55.375 52.7181 55.375H48.9681C48.5953 55.3745 48.2379 55.2262 47.9743 54.9626C47.7107 54.699 47.5624 54.3416 47.5619 53.9687V50.2187C47.5624 49.8459 47.7107 49.4885 47.9743 49.2249C48.2379 48.9613 48.5953 48.813 48.9681 48.8125H52.7181C53.0911 48.8125 53.4488 48.9607 53.7125 49.2244C53.9762 49.4881 54.1244 49.8458 54.1244 50.2187V53.9687Z" fill="#3C7CFF"/>
<path d="M70.8437 58.1875C71.9623 58.1865 73.0348 57.7417 73.8258 56.9508C74.6167 56.1598 75.0615 55.0873 75.0625 53.9687V50.2187C75.0615 49.1002 74.6167 48.0277 73.8258 47.2367C73.0348 46.4458 71.9623 46.001 70.8437 46H67.0937C65.9752 46.001 64.9027 46.4458 64.1117 47.2367C63.3208 48.0277 62.876 49.1002 62.875 50.2187V53.9687C62.876 55.0873 63.3208 56.1598 64.1117 56.9508C64.9027 57.7417 65.9752 58.1865 67.0937 58.1875H70.8437ZM65.6875 53.9687V50.2187C65.6875 49.8458 65.8357 49.4881 66.0994 49.2244C66.3631 48.9607 66.7208 48.8125 67.0937 48.8125H70.8437C71.2167 48.8125 71.5744 48.9607 71.8381 49.2244C72.1018 49.4881 72.25 49.8458 72.25 50.2187V53.9687C72.25 54.3417 72.1018 54.6994 71.8381 54.9631C71.5744 55.2268 71.2167 55.375 70.8437 55.375H67.0937C66.7208 55.375 66.3631 55.2268 66.0994 54.9631C65.8357 54.6994 65.6875 54.3417 65.6875 53.9687Z" fill="#3C7CFF"/>
<path d="M16.4687 62.875H12.7187C11.6002 62.876 10.5277 63.3208 9.73674 64.1117C8.94579 64.9027 8.50099 65.9752 8.5 67.0937V70.8437C8.50099 71.9623 8.94579 73.0348 9.73674 73.8258C10.5277 74.6167 11.6002 75.0615 12.7187 75.0625H16.4687C17.5873 75.0615 18.6598 74.6167 19.4508 73.8258C20.2417 73.0348 20.6865 71.9623 20.6875 70.8437V67.0937C20.6865 65.9752 20.2417 64.9027 19.4508 64.1117C18.6598 63.3208 17.5873 62.876 16.4687 62.875ZM17.875 70.8437C17.875 71.2167 17.7268 71.5744 17.4631 71.8381C17.1994 72.1018 16.8417 72.25 16.4687 72.25H12.7187C12.3458 72.25 11.9881 72.1018 11.7244 71.8381C11.4607 71.5744 11.3125 71.2167 11.3125 70.8437V67.0937C11.3125 66.7208 11.4607 66.3631 11.7244 66.0994C11.9881 65.8357 12.3458 65.6875 12.7187 65.6875H16.4687C16.8417 65.6875 17.1994 65.8357 17.4631 66.0994C17.7268 66.3631 17.875 66.7208 17.875 67.0937V70.8437Z" fill="#3C7CFF"/>
<path d="M34.5944 62.875H30.8444C29.7258 62.876 28.6533 63.3208 27.8624 64.1117C27.0714 64.9027 26.6266 65.9752 26.6256 67.0937V70.8437C26.6266 71.9623 27.0714 73.0348 27.8624 73.8258C28.6533 74.6167 29.7258 75.0615 30.8444 75.0625H34.5944C35.7128 75.061 36.785 74.6161 37.5758 73.8252C38.3667 73.0344 38.8116 71.9622 38.8131 70.8437V67.0937C38.8116 65.9753 38.3667 64.9031 37.5758 64.1123C36.785 63.3214 35.7128 62.8765 34.5944 62.875ZM36.0006 70.8437C36.0001 71.2166 35.8518 71.574 35.5882 71.8376C35.3246 72.1012 34.9672 72.2495 34.5944 72.25H30.8444C30.4714 72.25 30.1137 72.1018 29.85 71.8381C29.5863 71.5744 29.4381 71.2167 29.4381 70.8437V67.0937C29.4381 66.7208 29.5863 66.3631 29.85 66.0994C30.1137 65.8357 30.4714 65.6875 30.8444 65.6875H34.5944C34.9672 65.688 35.3246 65.8363 35.5882 66.0999C35.8518 66.3635 36.0001 66.7209 36.0006 67.0937V70.8437Z" fill="#3C7CFF"/>
<path d="M52.7181 62.875H48.9681C47.8497 62.8765 46.7775 63.3214 45.9867 64.1123C45.1958 64.9031 44.7509 65.9753 44.7494 67.0937V70.8437C44.7509 71.9622 45.1958 73.0344 45.9867 73.8252C46.7775 74.6161 47.8497 75.061 48.9681 75.0625H52.7181C53.8367 75.0615 54.9092 74.6167 55.7001 73.8258C56.4911 73.0348 56.9359 71.9623 56.9369 70.8437V67.0937C56.9359 65.9752 56.4911 64.9027 55.7001 64.1117C54.9092 63.3208 53.8367 62.876 52.7181 62.875ZM54.1244 70.8437C54.1244 71.2167 53.9762 71.5744 53.7125 71.8381C53.4488 72.1018 53.0911 72.25 52.7181 72.25H48.9681C48.5953 72.2495 48.2379 72.1012 47.9743 71.8376C47.7107 71.574 47.5624 71.2166 47.5619 70.8437V67.0937C47.5624 66.7209 47.7107 66.3635 47.9743 66.0999C48.2379 65.8363 48.5953 65.688 48.9681 65.6875H52.7181C53.0911 65.6875 53.4488 65.8357 53.7125 66.0994C53.9762 66.3631 54.1244 66.7208 54.1244 67.0937V70.8437Z" fill="#3C7CFF"/>
</svg>
