<svg width="102" height="102" viewBox="0 0 102 102" fill="none" xmlns="http://www.w3.org/2000/svg">
<mask id="path-1-outside-1_169_238" maskUnits="userSpaceOnUse" x="0" y="0" width="102" height="102" fill="black">
<rect fill="white" width="102" height="102"/>
<path d="M50.9973 68.8559C41.1532 68.8559 33.1441 60.8456 33.1441 51.0001C33.1441 41.1547 41.1533 33.1443 50.9973 33.1443C53.1938 33.0996 62.0066 34.3811 60.328 37.7924C59.8548 38.6587 58.7655 38.9758 57.9038 38.4979C55.7921 37.3326 53.4037 36.7208 50.9973 36.7208C43.122 36.7208 36.7111 43.1283 36.7111 51.0091C36.7111 58.8855 43.1176 65.2974 50.9973 65.2974C61.6763 65.4805 68.8105 53.3536 63.5018 44.1016C62.408 42.0253 65.4616 40.3419 66.6314 42.3781C73.2655 53.9379 64.3411 69.0881 50.9965 68.8652L50.9973 68.8559ZM52.7786 79.5722H49.2071C47.2382 79.5722 45.6355 77.9693 45.6355 76.0001V75.3928C42.7649 74.7633 40.0058 73.6202 37.5326 72.0351C36.1754 73.7408 33.6261 74.0533 32.0547 72.4637L29.5278 69.9365C28.1349 68.5434 28.1349 66.2796 29.5278 64.8865L29.9564 64.4578C28.3716 61.9841 27.2331 59.2248 26.6036 56.3537C24.4384 56.5993 22.4114 55.0231 22.4249 52.7816V49.2096C22.4071 46.9681 24.4428 45.3964 26.6036 45.6375C27.2331 42.7664 28.376 40.007 29.9564 37.5334C28.2554 36.1715 27.9341 33.6308 29.5278 32.0547L32.0547 29.5275C33.4476 28.1343 35.711 28.1343 37.104 29.5275L37.5326 29.9561C40.0104 28.371 42.7649 27.2324 45.6355 26.5984V25.9911C45.6355 24.0219 47.2382 22.419 49.2071 22.419H52.7786C55.0153 22.4012 56.5912 24.4372 56.3502 26.5983C59.2208 27.2279 61.9799 28.371 64.4531 29.9561C65.8103 28.2504 68.3595 27.9379 69.931 29.5274L72.4578 32.0546C74.0561 33.6263 73.7302 36.1759 72.0293 37.5333C73.6141 40.007 74.7526 42.7664 75.3821 45.6374C77.5473 45.3918 79.5742 46.9681 79.5607 49.2095V52.7816C79.5786 55.023 77.5428 56.5947 75.3821 56.3537C74.7526 59.2247 73.6097 61.9842 72.0293 64.4578C73.7302 65.8196 74.0516 68.3603 72.4578 69.9365L69.931 72.4637C68.5381 73.8568 66.2747 73.8568 64.8817 72.4637L64.4531 72.035C61.9753 73.6201 59.2208 74.7587 56.3502 75.3928C56.5957 77.5583 55.0153 79.5812 52.7786 79.5722ZM63.6139 68.2889C65.172 67.1547 66.3908 68.972 67.4042 69.9409L69.931 67.4182C68.9846 66.4225 67.1318 65.1857 68.2792 63.6273C70.2837 60.8858 71.6186 57.6619 72.1365 54.3043C72.4534 52.3842 74.574 52.8307 75.9893 52.7906V49.2185H73.9C73.0205 49.2185 72.2704 48.5756 72.1365 47.7049C71.6186 44.3471 70.2793 41.1189 68.2792 38.3818C67.1452 36.8235 68.9667 35.6045 69.931 34.591L67.4042 32.0638L65.9309 33.5373C65.3103 34.1579 64.3237 34.2338 63.6139 33.7159C60.8727 31.7111 57.6493 30.376 54.2922 29.8536C53.4216 29.7196 52.7787 28.9695 52.7787 28.0898V26.0002H49.2072V28.0898C49.2072 28.9694 48.5643 29.7196 47.6937 29.8536C44.3365 30.3715 41.1132 31.7066 38.372 33.7159C36.8095 34.8456 35.5951 33.0327 34.5817 32.0638L32.0549 34.5866C33.0013 35.5823 34.8541 36.8191 33.7067 38.3774C31.7022 41.1189 30.3673 44.3428 29.8494 47.7005C29.7155 48.5712 28.9655 49.2141 28.0859 49.2141H25.9966V52.7862H28.0859C28.9654 52.7862 29.7155 53.4292 29.8494 54.2999C30.3673 57.6576 31.7066 60.8859 33.7067 63.6229C34.8407 65.1813 33.0192 66.4047 32.0549 67.4138L34.5817 69.941C35.2648 69.3516 36.2827 67.8513 37.3184 67.9451C37.6845 67.9451 38.055 68.0567 38.372 68.2889C41.1131 70.2937 44.3366 71.6288 47.6937 72.1512C49.6134 72.4682 49.167 74.5891 49.2071 76.0046H52.7787V73.9149C52.7787 73.0353 53.4216 72.2852 54.2921 72.1512C57.6494 71.6332 60.8727 70.2981 63.6139 68.2889ZM47.0555 100.478C47.752 101.174 48.8816 101.174 49.5824 100.478L54.9397 95.1195C55.7344 94.3425 55.5156 93.0789 54.7433 92.3958L49.5869 87.2386C47.9261 85.5954 45.4216 88.1048 47.06 89.7658L49.3146 92.0207C34.8593 91.5385 21.2016 82.8896 14.6219 70.035C13.5282 67.9855 10.3941 69.5706 11.4567 71.6871C15.5461 79.5367 21.8276 85.9308 29.6048 90.1773C35.6541 93.5039 42.4761 95.3523 49.4181 95.5979L47.0608 97.9555C46.3644 98.6521 46.3644 99.7818 47.0608 100.483L47.0555 100.478ZM6.88037 54.9424C7.59021 55.6747 8.67952 55.5765 9.4072 54.9424L14.7645 49.5843C16.4075 47.9233 13.8984 45.4184 12.2377 47.0571L9.98311 49.312C10.4653 34.8545 19.1129 21.1949 31.9656 14.6143C34.0148 13.5203 32.4299 10.3859 30.3138 11.4486C22.4653 15.543 16.0721 21.821 11.8263 29.5993C8.5002 35.6495 6.65202 42.4679 6.40641 49.4155L4.04918 47.0579C3.35272 46.3613 2.22317 46.3613 1.52234 47.0579C0.825885 47.7545 0.825885 48.8842 1.52234 49.5851L6.88037 54.9424ZM92.5841 47.0571L87.2267 52.4152C85.5838 54.0807 88.0928 56.5811 89.7536 54.9424L92.0082 52.6875C91.7492 58.9967 90.0528 65.1858 87.0303 70.6816C83.1238 77.8436 77.2442 83.6166 70.0251 87.3807C69.15 87.8361 68.8107 88.9167 69.2661 89.7919C69.726 90.6715 70.8153 91.0019 71.6725 90.5509C85.7313 83.3532 95.1419 68.3949 95.5797 52.584L97.9369 54.9416C99.5887 56.5892 102.111 54.0709 100.464 52.4144L95.1064 47.0563C94.3965 46.3374 93.2983 46.4445 92.5796 47.0563L92.5841 47.0571ZM72.3868 11.8278C66.3374 8.50129 59.5154 6.65284 52.5735 6.4072L54.9307 4.04962C55.6272 3.35306 55.6272 2.22335 54.9307 1.52242C54.2342 0.82586 53.1047 0.82586 52.4039 1.52242L47.0465 6.88054C46.2563 7.65747 46.4706 8.91211 47.2385 9.59978L52.4038 14.7659C53.1003 15.4624 54.2298 15.4624 54.9307 14.7659C55.6271 14.0693 55.6271 12.9396 54.9307 12.2387L52.6761 9.98373C67.1315 10.466 80.7891 19.1149 87.3688 31.9694C88.476 34.0234 91.5921 32.4204 90.534 30.3174C86.4446 22.4677 80.164 16.0743 72.3868 11.8278Z"/>
</mask>
<path d="M50.9973 68.8559C41.1532 68.8559 33.1441 60.8456 33.1441 51.0001C33.1441 41.1547 41.1533 33.1443 50.9973 33.1443C53.1938 33.0996 62.0066 34.3811 60.328 37.7924C59.8548 38.6587 58.7655 38.9758 57.9038 38.4979C55.7921 37.3326 53.4037 36.7208 50.9973 36.7208C43.122 36.7208 36.7111 43.1283 36.7111 51.0091C36.7111 58.8855 43.1176 65.2974 50.9973 65.2974C61.6763 65.4805 68.8105 53.3536 63.5018 44.1016C62.408 42.0253 65.4616 40.3419 66.6314 42.3781C73.2655 53.9379 64.3411 69.0881 50.9965 68.8652L50.9973 68.8559ZM52.7786 79.5722H49.2071C47.2382 79.5722 45.6355 77.9693 45.6355 76.0001V75.3928C42.7649 74.7633 40.0058 73.6202 37.5326 72.0351C36.1754 73.7408 33.6261 74.0533 32.0547 72.4637L29.5278 69.9365C28.1349 68.5434 28.1349 66.2796 29.5278 64.8865L29.9564 64.4578C28.3716 61.9841 27.2331 59.2248 26.6036 56.3537C24.4384 56.5993 22.4114 55.0231 22.4249 52.7816V49.2096C22.4071 46.9681 24.4428 45.3964 26.6036 45.6375C27.2331 42.7664 28.376 40.007 29.9564 37.5334C28.2554 36.1715 27.9341 33.6308 29.5278 32.0547L32.0547 29.5275C33.4476 28.1343 35.711 28.1343 37.104 29.5275L37.5326 29.9561C40.0104 28.371 42.7649 27.2324 45.6355 26.5984V25.9911C45.6355 24.0219 47.2382 22.419 49.2071 22.419H52.7786C55.0153 22.4012 56.5912 24.4372 56.3502 26.5983C59.2208 27.2279 61.9799 28.371 64.4531 29.9561C65.8103 28.2504 68.3595 27.9379 69.931 29.5274L72.4578 32.0546C74.0561 33.6263 73.7302 36.1759 72.0293 37.5333C73.6141 40.007 74.7526 42.7664 75.3821 45.6374C77.5473 45.3918 79.5742 46.9681 79.5607 49.2095V52.7816C79.5786 55.023 77.5428 56.5947 75.3821 56.3537C74.7526 59.2247 73.6097 61.9842 72.0293 64.4578C73.7302 65.8196 74.0516 68.3603 72.4578 69.9365L69.931 72.4637C68.5381 73.8568 66.2747 73.8568 64.8817 72.4637L64.4531 72.035C61.9753 73.6201 59.2208 74.7587 56.3502 75.3928C56.5957 77.5583 55.0153 79.5812 52.7786 79.5722ZM63.6139 68.2889C65.172 67.1547 66.3908 68.972 67.4042 69.9409L69.931 67.4182C68.9846 66.4225 67.1318 65.1857 68.2792 63.6273C70.2837 60.8858 71.6186 57.6619 72.1365 54.3043C72.4534 52.3842 74.574 52.8307 75.9893 52.7906V49.2185H73.9C73.0205 49.2185 72.2704 48.5756 72.1365 47.7049C71.6186 44.3471 70.2793 41.1189 68.2792 38.3818C67.1452 36.8235 68.9667 35.6045 69.931 34.591L67.4042 32.0638L65.9309 33.5373C65.3103 34.1579 64.3237 34.2338 63.6139 33.7159C60.8727 31.7111 57.6493 30.376 54.2922 29.8536C53.4216 29.7196 52.7787 28.9695 52.7787 28.0898V26.0002H49.2072V28.0898C49.2072 28.9694 48.5643 29.7196 47.6937 29.8536C44.3365 30.3715 41.1132 31.7066 38.372 33.7159C36.8095 34.8456 35.5951 33.0327 34.5817 32.0638L32.0549 34.5866C33.0013 35.5823 34.8541 36.8191 33.7067 38.3774C31.7022 41.1189 30.3673 44.3428 29.8494 47.7005C29.7155 48.5712 28.9655 49.2141 28.0859 49.2141H25.9966V52.7862H28.0859C28.9654 52.7862 29.7155 53.4292 29.8494 54.2999C30.3673 57.6576 31.7066 60.8859 33.7067 63.6229C34.8407 65.1813 33.0192 66.4047 32.0549 67.4138L34.5817 69.941C35.2648 69.3516 36.2827 67.8513 37.3184 67.9451C37.6845 67.9451 38.055 68.0567 38.372 68.2889C41.1131 70.2937 44.3366 71.6288 47.6937 72.1512C49.6134 72.4682 49.167 74.5891 49.2071 76.0046H52.7787V73.9149C52.7787 73.0353 53.4216 72.2852 54.2921 72.1512C57.6494 71.6332 60.8727 70.2981 63.6139 68.2889ZM47.0555 100.478C47.752 101.174 48.8816 101.174 49.5824 100.478L54.9397 95.1195C55.7344 94.3425 55.5156 93.0789 54.7433 92.3958L49.5869 87.2386C47.9261 85.5954 45.4216 88.1048 47.06 89.7658L49.3146 92.0207C34.8593 91.5385 21.2016 82.8896 14.6219 70.035C13.5282 67.9855 10.3941 69.5706 11.4567 71.6871C15.5461 79.5367 21.8276 85.9308 29.6048 90.1773C35.6541 93.5039 42.4761 95.3523 49.4181 95.5979L47.0608 97.9555C46.3644 98.6521 46.3644 99.7818 47.0608 100.483L47.0555 100.478ZM6.88037 54.9424C7.59021 55.6747 8.67952 55.5765 9.4072 54.9424L14.7645 49.5843C16.4075 47.9233 13.8984 45.4184 12.2377 47.0571L9.98311 49.312C10.4653 34.8545 19.1129 21.1949 31.9656 14.6143C34.0148 13.5203 32.4299 10.3859 30.3138 11.4486C22.4653 15.543 16.0721 21.821 11.8263 29.5993C8.5002 35.6495 6.65202 42.4679 6.40641 49.4155L4.04918 47.0579C3.35272 46.3613 2.22317 46.3613 1.52234 47.0579C0.825885 47.7545 0.825885 48.8842 1.52234 49.5851L6.88037 54.9424ZM92.5841 47.0571L87.2267 52.4152C85.5838 54.0807 88.0928 56.5811 89.7536 54.9424L92.0082 52.6875C91.7492 58.9967 90.0528 65.1858 87.0303 70.6816C83.1238 77.8436 77.2442 83.6166 70.0251 87.3807C69.15 87.8361 68.8107 88.9167 69.2661 89.7919C69.726 90.6715 70.8153 91.0019 71.6725 90.5509C85.7313 83.3532 95.1419 68.3949 95.5797 52.584L97.9369 54.9416C99.5887 56.5892 102.111 54.0709 100.464 52.4144L95.1064 47.0563C94.3965 46.3374 93.2983 46.4445 92.5796 47.0563L92.5841 47.0571ZM72.3868 11.8278C66.3374 8.50129 59.5154 6.65284 52.5735 6.4072L54.9307 4.04962C55.6272 3.35306 55.6272 2.22335 54.9307 1.52242C54.2342 0.82586 53.1047 0.82586 52.4039 1.52242L47.0465 6.88054C46.2563 7.65747 46.4706 8.91211 47.2385 9.59978L52.4038 14.7659C53.1003 15.4624 54.2298 15.4624 54.9307 14.7659C55.6271 14.0693 55.6271 12.9396 54.9307 12.2387L52.6761 9.98373C67.1315 10.466 80.7891 19.1149 87.3688 31.9694C88.476 34.0234 91.5921 32.4204 90.534 30.3174C86.4446 22.4677 80.164 16.0743 72.3868 11.8278Z" fill="#3C7CFF"/>
<path d="M50.9973 68.8559C41.1532 68.8559 33.1441 60.8456 33.1441 51.0001C33.1441 41.1547 41.1533 33.1443 50.9973 33.1443C53.1938 33.0996 62.0066 34.3811 60.328 37.7924C59.8548 38.6587 58.7655 38.9758 57.9038 38.4979C55.7921 37.3326 53.4037 36.7208 50.9973 36.7208C43.122 36.7208 36.7111 43.1283 36.7111 51.0091C36.7111 58.8855 43.1176 65.2974 50.9973 65.2974C61.6763 65.4805 68.8105 53.3536 63.5018 44.1016C62.408 42.0253 65.4616 40.3419 66.6314 42.3781C73.2655 53.9379 64.3411 69.0881 50.9965 68.8652L50.9973 68.8559ZM52.7786 79.5722H49.2071C47.2382 79.5722 45.6355 77.9693 45.6355 76.0001V75.3928C42.7649 74.7633 40.0058 73.6202 37.5326 72.0351C36.1754 73.7408 33.6261 74.0533 32.0547 72.4637L29.5278 69.9365C28.1349 68.5434 28.1349 66.2796 29.5278 64.8865L29.9564 64.4578C28.3716 61.9841 27.2331 59.2248 26.6036 56.3537C24.4384 56.5993 22.4114 55.0231 22.4249 52.7816V49.2096C22.4071 46.9681 24.4428 45.3964 26.6036 45.6375C27.2331 42.7664 28.376 40.007 29.9564 37.5334C28.2554 36.1715 27.9341 33.6308 29.5278 32.0547L32.0547 29.5275C33.4476 28.1343 35.711 28.1343 37.104 29.5275L37.5326 29.9561C40.0104 28.371 42.7649 27.2324 45.6355 26.5984V25.9911C45.6355 24.0219 47.2382 22.419 49.2071 22.419H52.7786C55.0153 22.4012 56.5912 24.4372 56.3502 26.5983C59.2208 27.2279 61.9799 28.371 64.4531 29.9561C65.8103 28.2504 68.3595 27.9379 69.931 29.5274L72.4578 32.0546C74.0561 33.6263 73.7302 36.1759 72.0293 37.5333C73.6141 40.007 74.7526 42.7664 75.3821 45.6374C77.5473 45.3918 79.5742 46.9681 79.5607 49.2095V52.7816C79.5786 55.023 77.5428 56.5947 75.3821 56.3537C74.7526 59.2247 73.6097 61.9842 72.0293 64.4578C73.7302 65.8196 74.0516 68.3603 72.4578 69.9365L69.931 72.4637C68.5381 73.8568 66.2747 73.8568 64.8817 72.4637L64.4531 72.035C61.9753 73.6201 59.2208 74.7587 56.3502 75.3928C56.5957 77.5583 55.0153 79.5812 52.7786 79.5722ZM63.6139 68.2889C65.172 67.1547 66.3908 68.972 67.4042 69.9409L69.931 67.4182C68.9846 66.4225 67.1318 65.1857 68.2792 63.6273C70.2837 60.8858 71.6186 57.6619 72.1365 54.3043C72.4534 52.3842 74.574 52.8307 75.9893 52.7906V49.2185H73.9C73.0205 49.2185 72.2704 48.5756 72.1365 47.7049C71.6186 44.3471 70.2793 41.1189 68.2792 38.3818C67.1452 36.8235 68.9667 35.6045 69.931 34.591L67.4042 32.0638L65.9309 33.5373C65.3103 34.1579 64.3237 34.2338 63.6139 33.7159C60.8727 31.7111 57.6493 30.376 54.2922 29.8536C53.4216 29.7196 52.7787 28.9695 52.7787 28.0898V26.0002H49.2072V28.0898C49.2072 28.9694 48.5643 29.7196 47.6937 29.8536C44.3365 30.3715 41.1132 31.7066 38.372 33.7159C36.8095 34.8456 35.5951 33.0327 34.5817 32.0638L32.0549 34.5866C33.0013 35.5823 34.8541 36.8191 33.7067 38.3774C31.7022 41.1189 30.3673 44.3428 29.8494 47.7005C29.7155 48.5712 28.9655 49.2141 28.0859 49.2141H25.9966V52.7862H28.0859C28.9654 52.7862 29.7155 53.4292 29.8494 54.2999C30.3673 57.6576 31.7066 60.8859 33.7067 63.6229C34.8407 65.1813 33.0192 66.4047 32.0549 67.4138L34.5817 69.941C35.2648 69.3516 36.2827 67.8513 37.3184 67.9451C37.6845 67.9451 38.055 68.0567 38.372 68.2889C41.1131 70.2937 44.3366 71.6288 47.6937 72.1512C49.6134 72.4682 49.167 74.5891 49.2071 76.0046H52.7787V73.9149C52.7787 73.0353 53.4216 72.2852 54.2921 72.1512C57.6494 71.6332 60.8727 70.2981 63.6139 68.2889ZM47.0555 100.478C47.752 101.174 48.8816 101.174 49.5824 100.478L54.9397 95.1195C55.7344 94.3425 55.5156 93.0789 54.7433 92.3958L49.5869 87.2386C47.9261 85.5954 45.4216 88.1048 47.06 89.7658L49.3146 92.0207C34.8593 91.5385 21.2016 82.8896 14.6219 70.035C13.5282 67.9855 10.3941 69.5706 11.4567 71.6871C15.5461 79.5367 21.8276 85.9308 29.6048 90.1773C35.6541 93.5039 42.4761 95.3523 49.4181 95.5979L47.0608 97.9555C46.3644 98.6521 46.3644 99.7818 47.0608 100.483L47.0555 100.478ZM6.88037 54.9424C7.59021 55.6747 8.67952 55.5765 9.4072 54.9424L14.7645 49.5843C16.4075 47.9233 13.8984 45.4184 12.2377 47.0571L9.98311 49.312C10.4653 34.8545 19.1129 21.1949 31.9656 14.6143C34.0148 13.5203 32.4299 10.3859 30.3138 11.4486C22.4653 15.543 16.0721 21.821 11.8263 29.5993C8.5002 35.6495 6.65202 42.4679 6.40641 49.4155L4.04918 47.0579C3.35272 46.3613 2.22317 46.3613 1.52234 47.0579C0.825885 47.7545 0.825885 48.8842 1.52234 49.5851L6.88037 54.9424ZM92.5841 47.0571L87.2267 52.4152C85.5838 54.0807 88.0928 56.5811 89.7536 54.9424L92.0082 52.6875C91.7492 58.9967 90.0528 65.1858 87.0303 70.6816C83.1238 77.8436 77.2442 83.6166 70.0251 87.3807C69.15 87.8361 68.8107 88.9167 69.2661 89.7919C69.726 90.6715 70.8153 91.0019 71.6725 90.5509C85.7313 83.3532 95.1419 68.3949 95.5797 52.584L97.9369 54.9416C99.5887 56.5892 102.111 54.0709 100.464 52.4144L95.1064 47.0563C94.3965 46.3374 93.2983 46.4445 92.5796 47.0563L92.5841 47.0571ZM72.3868 11.8278C66.3374 8.50129 59.5154 6.65284 52.5735 6.4072L54.9307 4.04962C55.6272 3.35306 55.6272 2.22335 54.9307 1.52242C54.2342 0.82586 53.1047 0.82586 52.4039 1.52242L47.0465 6.88054C46.2563 7.65747 46.4706 8.91211 47.2385 9.59978L52.4038 14.7659C53.1003 15.4624 54.2298 15.4624 54.9307 14.7659C55.6271 14.0693 55.6271 12.9396 54.9307 12.2387L52.6761 9.98373C67.1315 10.466 80.7891 19.1149 87.3688 31.9694C88.476 34.0234 91.5921 32.4204 90.534 30.3174C86.4446 22.4677 80.164 16.0743 72.3868 11.8278Z" stroke="#3C7CFF" stroke-width="0.6" mask="url(#path-1-outside-1_169_238)"/>
</svg>
