<svg width="100" height="94" viewBox="0 0 100 94" fill="none" xmlns="http://www.w3.org/2000/svg">
<path d="M46.7196 45.8228C40.0414 44.5134 34.8485 39.3205 33.4947 32.5979C33.4077 32.1614 32.9713 31.8562 32.5348 31.9432C32.0984 32.0301 31.7932 32.4666 31.8801 32.903C33.3208 40.2358 39.0371 45.952 46.3699 47.3928H46.5438C46.9359 47.3928 47.2854 47.1302 47.3297 46.7381C47.461 46.346 47.156 45.9097 46.7196 45.8228Z" fill="#3C7CFF"/>
<path d="M32.5349 26.7503H32.7088C33.1009 26.7503 33.4504 26.4877 33.4948 26.0956C34.8041 19.4175 39.997 14.2246 46.7197 12.8707C47.1561 12.7837 47.4613 12.3473 47.3744 11.9108C47.2874 11.4744 46.851 11.1692 46.4145 11.2562C39.0376 12.7394 33.3638 18.4131 31.9248 25.7904C31.7935 26.2269 32.0985 26.6633 32.5349 26.7503Z" fill="#3C7CFF"/>
<path d="M53.2663 12.8707C59.9868 14.18 65.1374 19.3729 66.4912 26.0956C66.5782 26.4877 66.9277 26.7503 67.2772 26.7503H67.4511C67.8875 26.6633 68.1927 26.2269 68.1058 25.7904C66.6225 18.4135 60.9488 12.7397 53.5715 11.3007C53.1351 11.2137 52.6986 11.5189 52.6117 11.9554C52.5247 12.3918 52.8299 12.7837 53.2663 12.8707Z" fill="#3C7CFF"/>
<path d="M67.4509 31.9877C67.0145 31.9007 66.578 32.2059 66.4911 32.6424C65.1817 39.3205 59.9888 44.5134 53.2662 45.8673C52.8297 45.9542 52.5246 46.3907 52.6115 46.8271C52.6985 47.2192 53.048 47.4818 53.3975 47.4818H53.5714C60.9465 46.0411 66.6204 40.3249 68.1056 32.9921C68.1926 32.5113 67.8874 32.0746 67.4509 31.9877Z" fill="#3C7CFF"/>
<path d="M69.8959 28.5406H64.222C63.8299 21.3392 58.0249 15.534 50.8234 15.142V9.46817C50.8234 9.03172 50.4739 8.63961 49.9949 8.63961C49.5141 8.63961 49.1663 8.98911 49.1663 9.46817V15.142C41.9649 15.5342 36.1596 21.3392 35.7677 28.5406H30.0939C29.6574 28.5406 29.2653 28.8901 29.2653 29.3692C29.2653 29.85 29.6148 30.1978 30.0939 30.1978H35.7677C36.1598 37.3992 41.9649 43.2044 49.1663 43.5964V49.2702C49.1663 49.7067 49.5158 50.0988 49.9949 50.0988C50.4757 50.0988 50.8234 49.7493 50.8234 49.2702V43.5964C58.0249 43.2042 63.8301 37.3992 64.222 30.1978H69.8959C70.3324 30.1978 70.7245 29.8482 70.7245 29.3692C70.7245 28.8884 70.375 28.5406 69.8959 28.5406ZM49.9929 29.9369C47.8106 29.9369 46.0648 28.1911 46.0648 26.0089C46.0648 23.8266 47.8106 22.0808 49.9929 22.0808C52.1751 22.0808 53.9209 23.8266 53.9209 26.0089C53.9209 28.1911 52.1751 29.9369 49.9929 29.9369ZM49.9929 31.5958C50.7788 31.5958 51.5204 31.4219 52.1751 31.1593C55.0564 32.0766 57.1498 34.7822 57.1498 37.9688V39.759C55.1431 41.1536 52.6557 41.9822 49.9929 41.9822C47.3301 41.9822 44.8423 41.1536 42.8359 39.7556V37.9654C42.8359 34.779 44.9313 32.1179 47.8106 31.1559C48.4653 31.4202 49.2069 31.5958 49.9929 31.5958ZM58.8087 38.3608V37.9243C58.8087 34.4327 56.7578 31.4221 53.8341 30.0237C54.8809 29.0195 55.5355 27.5789 55.5355 26.0087C55.5355 22.9535 53.0481 20.4662 49.993 20.4662C46.938 20.4662 44.4506 22.9536 44.4506 26.0087C44.4506 27.5806 45.1052 29.0195 46.152 30.0237C43.2281 31.4643 41.1773 34.4327 41.1773 37.9243V38.3608C38.8212 36.0472 37.3806 32.8606 37.3806 29.3267C37.3806 22.388 43.0544 16.7141 49.9931 16.7141C56.9318 16.7141 62.6057 22.388 62.6057 29.3267C62.6057 32.9052 61.1666 36.0899 58.8087 38.3608Z" fill="#3C7CFF"/>
<path fill-rule="evenodd" clip-rule="evenodd" d="M0 66.7324V6.13986C0 2.7485 2.74838 0 6.13986 0H93.8601C97.2515 0 100 2.74838 100 6.13986V66.7324C100 70.1238 97.2516 72.8723 93.8601 72.8723H63.7803L66.6668 80.9602C68.0577 81.3889 69.3438 82.151 70.3917 83.1989C72.0779 84.8851 73.0258 87.1714 73.0258 89.553V91.3059C73.0258 92.6396 71.9398 93.7209 70.6108 93.7209H29.3894C28.0557 93.7209 26.9744 92.6396 26.9744 91.3059V89.553C26.9744 87.1714 27.9223 84.8851 29.6086 83.1989C30.6565 82.151 31.9378 81.3889 33.3334 80.9602L36.2152 72.8723H6.14023C2.74887 72.8723 0 70.1239 0 66.7324ZM95.1695 53.2241V6.13986C95.1695 5.41585 94.5836 4.82999 93.8597 4.82999H6.13937C5.41536 4.82999 4.82475 5.41587 4.82475 6.13986V53.2241H95.1695ZM6.13962 68.0421H93.8599C94.5839 68.0421 95.1698 67.4562 95.1698 66.7322V58.0536H4.82536V66.7322C4.82536 67.4562 5.41564 68.0421 6.13962 68.0421ZM61.3974 80.5688L58.6537 72.8714H41.3445L38.6009 80.5688H61.3974ZM35.9573 85.3987C34.857 85.3987 33.7996 85.8369 33.0232 86.6133C32.3992 87.2373 31.9943 88.0328 31.8562 88.8901H68.1379C67.9997 88.0328 67.5996 87.2373 66.9756 86.6133C66.1992 85.8369 65.1418 85.3987 64.0415 85.3987H35.9573ZM45.56 65.4593C44.2262 65.4593 43.145 64.378 43.145 63.0443C43.145 61.7154 44.2262 60.6293 45.56 60.6293H54.4386C55.7723 60.6293 56.8536 61.7153 56.8536 63.0443C56.8536 64.378 55.7723 65.4593 54.4386 65.4593H45.56Z" fill="#3C7CFF"/>
</svg>
