<svg width="102" height="76" viewBox="0 0 102 76" fill="none" xmlns="http://www.w3.org/2000/svg">
<mask id="path-1-outside-1_169_265" maskUnits="userSpaceOnUse" x="0" y="0" width="102" height="76" fill="black">
<rect fill="white" width="102" height="76"/>
<path d="M38.54 17.7106C38.3669 17.5344 38.1606 17.3943 37.933 17.2984C37.7055 17.2024 37.4611 17.1525 37.2141 17.1515C36.9683 17.1504 36.7246 17.1978 36.4971 17.291C36.2696 17.3842 36.0627 17.5214 35.8883 17.6947L26.1758 27.4071C26.0005 27.5822 25.8614 27.7901 25.7665 28.019C25.6716 28.2479 25.6227 28.4932 25.6227 28.741C25.6227 28.9888 25.6716 29.2341 25.7665 29.463C25.8614 29.6918 26.0005 29.8998 26.1758 30.0748L35.8883 39.7873C36.2477 40.1301 36.7254 40.3213 37.2221 40.3213C37.7188 40.3213 38.1965 40.1301 38.556 39.7873C38.7313 39.6122 38.8704 39.4043 38.9653 39.1754C39.0602 38.9466 39.1091 38.7012 39.1091 38.4534C39.1091 38.2057 39.0602 37.9603 38.9653 37.7314C38.8704 37.5026 38.7313 37.2946 38.556 37.1196L30.2333 28.7649L38.6199 20.3784C38.7952 20.2033 38.9343 19.9954 39.0292 19.7665C39.1241 19.5376 39.173 19.2923 39.173 19.0445C39.173 18.7967 39.1241 18.5514 39.0292 18.3225C38.9343 18.0936 38.7952 17.8857 38.6199 17.7106H38.54Z"/>
<path d="M46.5113 40.2986L58.7477 19.1005C58.9281 18.8916 59.0605 18.6456 59.1354 18.38C59.2103 18.1143 59.2259 17.8355 59.1812 17.5631C59.1365 17.2907 59.0325 17.0315 58.8766 16.8037C58.7207 16.576 58.5167 16.3852 58.279 16.245C58.0412 16.1047 57.7756 16.0184 57.5009 15.992C57.2261 15.9657 56.9489 16.0001 56.6889 16.0926C56.4289 16.1852 56.1923 16.3338 55.996 16.5278C55.7997 16.7218 55.6484 16.9566 55.5528 17.2155L43.2525 38.4296C43.023 38.8559 42.9664 39.3541 43.0942 39.821C43.2221 40.2879 43.5247 40.6877 43.9394 40.9376C44.3688 41.1788 44.8741 41.247 45.3521 41.1282C45.8301 41.0094 46.2447 40.7127 46.5113 40.2986Z"/>
<path d="M76.3834 28.765C76.3824 28.518 76.3325 28.2737 76.2366 28.0461C76.1406 27.8185 76.0005 27.6122 75.8243 27.4391L66.0959 17.7266C65.9215 17.5533 65.7146 17.4162 65.487 17.323C65.2595 17.2298 65.0159 17.1824 64.77 17.1835C64.4024 17.1892 64.0446 17.3023 63.7405 17.5088C63.4364 17.7153 63.1993 18.0062 63.0584 18.3457C62.9175 18.6853 62.8789 19.0586 62.9474 19.4197C63.016 19.7809 63.1886 20.1141 63.4441 20.3784L71.7668 28.765L63.4601 37.1516C63.2848 37.3266 63.1457 37.5345 63.0508 37.7634C62.9559 37.9923 62.907 38.2376 62.907 38.4854C62.907 38.7332 62.9559 38.9785 63.0508 39.2074C63.1457 39.4363 63.2848 39.6442 63.4601 39.8193C63.8196 40.1621 64.2972 40.3533 64.794 40.3533C65.2907 40.3533 65.7683 40.1621 66.1278 39.8193L75.8563 30.1068C76.0286 29.9292 76.1639 29.7191 76.2544 29.4888C76.3449 29.2584 76.3888 29.0124 76.3834 28.765Z"/>
<path d="M94.1311 3.49329C94.1228 3.15761 94.0484 2.82685 93.9123 2.51992C93.7761 2.21298 93.5808 1.93588 93.3375 1.70446C93.0942 1.47303 92.8077 1.29182 92.4944 1.17116C92.181 1.0505 91.8469 0.992776 91.5113 1.00127H10.5049C10.1679 0.990635 9.8321 1.04678 9.5169 1.16647C9.2017 1.28616 8.91329 1.46703 8.66829 1.69867C8.42329 1.9303 8.22654 2.20812 8.08938 2.51612C7.95222 2.82413 7.87735 3.15622 7.86909 3.49329V54.0524C7.86909 54.7303 8.13837 55.3804 8.6177 55.8597C9.09702 56.339 9.74713 56.6083 10.425 56.6083H91.5113C91.8522 56.6168 92.1915 56.557 92.509 56.4324C92.8265 56.3078 93.1159 56.1209 93.36 55.8827C93.6042 55.6445 93.7982 55.3598 93.9306 55.0455C94.063 54.7312 94.1312 54.3935 94.1311 54.0524V3.49329ZM90.9362 53.5412H11.064V4.02044H90.9362V53.5412Z"/>
<path d="M35.6486 61.8161H2.59744C2.17378 61.8161 1.76746 61.9844 1.46788 62.2839C1.1683 62.5835 1 62.9898 1 63.4135V68.2058C1 69.9005 1.67321 71.5258 2.87152 72.7241C4.06984 73.9224 5.6951 74.5956 7.38978 74.5956H94.6102C96.3049 74.5956 97.9302 73.9224 99.1285 72.7241C100.327 71.5258 101 69.9005 101 68.2058V63.3017C101 62.878 100.832 62.4717 100.532 62.1721C100.233 61.8725 99.8262 61.7042 99.4026 61.7042H66.3514C65.9278 61.7042 65.5215 61.8725 65.2219 62.1721C64.9223 62.4717 64.754 62.878 64.754 63.3017V63.9886H37.1821V63.3017C37.1548 62.9085 36.9831 62.5393 36.7 62.265C36.4169 61.9908 36.0424 61.8309 35.6486 61.8161ZM66.3355 67.1036C66.7591 67.1036 67.1655 66.9353 67.465 66.6357C67.7646 66.3362 67.9329 65.9298 67.9329 65.5062V64.8991H97.869V68.2218C97.8797 68.6481 97.8049 69.0721 97.6491 69.469C97.4934 69.8659 97.2597 70.2276 96.962 70.5328C96.6642 70.8379 96.3084 71.0804 95.9155 71.246C95.5226 71.4115 95.1005 71.4967 94.6741 71.4966H7.38978C6.96341 71.4967 6.54133 71.4115 6.14841 71.246C5.75549 71.0804 5.39968 70.8379 5.10193 70.5328C4.80419 70.2276 4.57055 69.8659 4.41477 69.469C4.25899 69.0721 4.18423 68.6481 4.19489 68.2218V64.8991H34.115V65.586C34.115 66.0097 34.2833 66.416 34.5829 66.7156C34.8825 67.0152 35.2888 67.1835 35.7125 67.1835L66.3355 67.1036Z"/>
</mask>
<path d="M38.54 17.7106C38.3669 17.5344 38.1606 17.3943 37.933 17.2984C37.7055 17.2024 37.4611 17.1525 37.2141 17.1515C36.9683 17.1504 36.7246 17.1978 36.4971 17.291C36.2696 17.3842 36.0627 17.5214 35.8883 17.6947L26.1758 27.4071C26.0005 27.5822 25.8614 27.7901 25.7665 28.019C25.6716 28.2479 25.6227 28.4932 25.6227 28.741C25.6227 28.9888 25.6716 29.2341 25.7665 29.463C25.8614 29.6918 26.0005 29.8998 26.1758 30.0748L35.8883 39.7873C36.2477 40.1301 36.7254 40.3213 37.2221 40.3213C37.7188 40.3213 38.1965 40.1301 38.556 39.7873C38.7313 39.6122 38.8704 39.4043 38.9653 39.1754C39.0602 38.9466 39.1091 38.7012 39.1091 38.4534C39.1091 38.2057 39.0602 37.9603 38.9653 37.7314C38.8704 37.5026 38.7313 37.2946 38.556 37.1196L30.2333 28.7649L38.6199 20.3784C38.7952 20.2033 38.9343 19.9954 39.0292 19.7665C39.1241 19.5376 39.173 19.2923 39.173 19.0445C39.173 18.7967 39.1241 18.5514 39.0292 18.3225C38.9343 18.0936 38.7952 17.8857 38.6199 17.7106H38.54Z" fill="#3C7CFF"/>
<path d="M46.5113 40.2986L58.7477 19.1005C58.9281 18.8916 59.0605 18.6456 59.1354 18.38C59.2103 18.1143 59.2259 17.8355 59.1812 17.5631C59.1365 17.2907 59.0325 17.0315 58.8766 16.8037C58.7207 16.576 58.5167 16.3852 58.279 16.245C58.0412 16.1047 57.7756 16.0184 57.5009 15.992C57.2261 15.9657 56.9489 16.0001 56.6889 16.0926C56.4289 16.1852 56.1923 16.3338 55.996 16.5278C55.7997 16.7218 55.6484 16.9566 55.5528 17.2155L43.2525 38.4296C43.023 38.8559 42.9664 39.3541 43.0942 39.821C43.2221 40.2879 43.5247 40.6877 43.9394 40.9376C44.3688 41.1788 44.8741 41.247 45.3521 41.1282C45.8301 41.0094 46.2447 40.7127 46.5113 40.2986Z" fill="#3C7CFF"/>
<path d="M76.3834 28.765C76.3824 28.518 76.3325 28.2737 76.2366 28.0461C76.1406 27.8185 76.0005 27.6122 75.8243 27.4391L66.0959 17.7266C65.9215 17.5533 65.7146 17.4162 65.487 17.323C65.2595 17.2298 65.0159 17.1824 64.77 17.1835C64.4024 17.1892 64.0446 17.3023 63.7405 17.5088C63.4364 17.7153 63.1993 18.0062 63.0584 18.3457C62.9175 18.6853 62.8789 19.0586 62.9474 19.4197C63.016 19.7809 63.1886 20.1141 63.4441 20.3784L71.7668 28.765L63.4601 37.1516C63.2848 37.3266 63.1457 37.5345 63.0508 37.7634C62.9559 37.9923 62.907 38.2376 62.907 38.4854C62.907 38.7332 62.9559 38.9785 63.0508 39.2074C63.1457 39.4363 63.2848 39.6442 63.4601 39.8193C63.8196 40.1621 64.2972 40.3533 64.794 40.3533C65.2907 40.3533 65.7683 40.1621 66.1278 39.8193L75.8563 30.1068C76.0286 29.9292 76.1639 29.7191 76.2544 29.4888C76.3449 29.2584 76.3888 29.0124 76.3834 28.765Z" fill="#3C7CFF"/>
<path d="M94.1311 3.49329C94.1228 3.15761 94.0484 2.82685 93.9123 2.51992C93.7761 2.21298 93.5808 1.93588 93.3375 1.70446C93.0942 1.47303 92.8077 1.29182 92.4944 1.17116C92.181 1.0505 91.8469 0.992776 91.5113 1.00127H10.5049C10.1679 0.990635 9.8321 1.04678 9.5169 1.16647C9.2017 1.28616 8.91329 1.46703 8.66829 1.69867C8.42329 1.9303 8.22654 2.20812 8.08938 2.51612C7.95222 2.82413 7.87735 3.15622 7.86909 3.49329V54.0524C7.86909 54.7303 8.13837 55.3804 8.6177 55.8597C9.09702 56.339 9.74713 56.6083 10.425 56.6083H91.5113C91.8522 56.6168 92.1915 56.557 92.509 56.4324C92.8265 56.3078 93.1159 56.1209 93.36 55.8827C93.6042 55.6445 93.7982 55.3598 93.9306 55.0455C94.063 54.7312 94.1312 54.3935 94.1311 54.0524V3.49329ZM90.9362 53.5412H11.064V4.02044H90.9362V53.5412Z" fill="#3C7CFF"/>
<path d="M35.6486 61.8161H2.59744C2.17378 61.8161 1.76746 61.9844 1.46788 62.2839C1.1683 62.5835 1 62.9898 1 63.4135V68.2058C1 69.9005 1.67321 71.5258 2.87152 72.7241C4.06984 73.9224 5.6951 74.5956 7.38978 74.5956H94.6102C96.3049 74.5956 97.9302 73.9224 99.1285 72.7241C100.327 71.5258 101 69.9005 101 68.2058V63.3017C101 62.878 100.832 62.4717 100.532 62.1721C100.233 61.8725 99.8262 61.7042 99.4026 61.7042H66.3514C65.9278 61.7042 65.5215 61.8725 65.2219 62.1721C64.9223 62.4717 64.754 62.878 64.754 63.3017V63.9886H37.1821V63.3017C37.1548 62.9085 36.9831 62.5393 36.7 62.265C36.4169 61.9908 36.0424 61.8309 35.6486 61.8161ZM66.3355 67.1036C66.7591 67.1036 67.1655 66.9353 67.465 66.6357C67.7646 66.3362 67.9329 65.9298 67.9329 65.5062V64.8991H97.869V68.2218C97.8797 68.6481 97.8049 69.0721 97.6491 69.469C97.4934 69.8659 97.2597 70.2276 96.962 70.5328C96.6642 70.8379 96.3084 71.0804 95.9155 71.246C95.5226 71.4115 95.1005 71.4967 94.6741 71.4966H7.38978C6.96341 71.4967 6.54133 71.4115 6.14841 71.246C5.75549 71.0804 5.39968 70.8379 5.10193 70.5328C4.80419 70.2276 4.57055 69.8659 4.41477 69.469C4.25899 69.0721 4.18423 68.6481 4.19489 68.2218V64.8991H34.115V65.586C34.115 66.0097 34.2833 66.416 34.5829 66.7156C34.8825 67.0152 35.2888 67.1835 35.7125 67.1835L66.3355 67.1036Z" fill="#3C7CFF"/>
<path d="M38.54 17.7106C38.3669 17.5344 38.1606 17.3943 37.933 17.2984C37.7055 17.2024 37.4611 17.1525 37.2141 17.1515C36.9683 17.1504 36.7246 17.1978 36.4971 17.291C36.2696 17.3842 36.0627 17.5214 35.8883 17.6947L26.1758 27.4071C26.0005 27.5822 25.8614 27.7901 25.7665 28.019C25.6716 28.2479 25.6227 28.4932 25.6227 28.741C25.6227 28.9888 25.6716 29.2341 25.7665 29.463C25.8614 29.6918 26.0005 29.8998 26.1758 30.0748L35.8883 39.7873C36.2477 40.1301 36.7254 40.3213 37.2221 40.3213C37.7188 40.3213 38.1965 40.1301 38.556 39.7873C38.7313 39.6122 38.8704 39.4043 38.9653 39.1754C39.0602 38.9466 39.1091 38.7012 39.1091 38.4534C39.1091 38.2057 39.0602 37.9603 38.9653 37.7314C38.8704 37.5026 38.7313 37.2946 38.556 37.1196L30.2333 28.7649L38.6199 20.3784C38.7952 20.2033 38.9343 19.9954 39.0292 19.7665C39.1241 19.5376 39.173 19.2923 39.173 19.0445C39.173 18.7967 39.1241 18.5514 39.0292 18.3225C38.9343 18.0936 38.7952 17.8857 38.6199 17.7106H38.54Z" stroke="#3C7CFF" mask="url(#path-1-outside-1_169_265)"/>
<path d="M46.5113 40.2986L58.7477 19.1005C58.9281 18.8916 59.0605 18.6456 59.1354 18.38C59.2103 18.1143 59.2259 17.8355 59.1812 17.5631C59.1365 17.2907 59.0325 17.0315 58.8766 16.8037C58.7207 16.576 58.5167 16.3852 58.279 16.245C58.0412 16.1047 57.7756 16.0184 57.5009 15.992C57.2261 15.9657 56.9489 16.0001 56.6889 16.0926C56.4289 16.1852 56.1923 16.3338 55.996 16.5278C55.7997 16.7218 55.6484 16.9566 55.5528 17.2155L43.2525 38.4296C43.023 38.8559 42.9664 39.3541 43.0942 39.821C43.2221 40.2879 43.5247 40.6877 43.9394 40.9376C44.3688 41.1788 44.8741 41.247 45.3521 41.1282C45.8301 41.0094 46.2447 40.7127 46.5113 40.2986Z" stroke="#3C7CFF" mask="url(#path-1-outside-1_169_265)"/>
<path d="M76.3834 28.765C76.3824 28.518 76.3325 28.2737 76.2366 28.0461C76.1406 27.8185 76.0005 27.6122 75.8243 27.4391L66.0959 17.7266C65.9215 17.5533 65.7146 17.4162 65.487 17.323C65.2595 17.2298 65.0159 17.1824 64.77 17.1835C64.4024 17.1892 64.0446 17.3023 63.7405 17.5088C63.4364 17.7153 63.1993 18.0062 63.0584 18.3457C62.9175 18.6853 62.8789 19.0586 62.9474 19.4197C63.016 19.7809 63.1886 20.1141 63.4441 20.3784L71.7668 28.765L63.4601 37.1516C63.2848 37.3266 63.1457 37.5345 63.0508 37.7634C62.9559 37.9923 62.907 38.2376 62.907 38.4854C62.907 38.7332 62.9559 38.9785 63.0508 39.2074C63.1457 39.4363 63.2848 39.6442 63.4601 39.8193C63.8196 40.1621 64.2972 40.3533 64.794 40.3533C65.2907 40.3533 65.7683 40.1621 66.1278 39.8193L75.8563 30.1068C76.0286 29.9292 76.1639 29.7191 76.2544 29.4888C76.3449 29.2584 76.3888 29.0124 76.3834 28.765Z" stroke="#3C7CFF" mask="url(#path-1-outside-1_169_265)"/>
<path d="M94.1311 3.49329C94.1228 3.15761 94.0484 2.82685 93.9123 2.51992C93.7761 2.21298 93.5808 1.93588 93.3375 1.70446C93.0942 1.47303 92.8077 1.29182 92.4944 1.17116C92.181 1.0505 91.8469 0.992776 91.5113 1.00127H10.5049C10.1679 0.990635 9.8321 1.04678 9.5169 1.16647C9.2017 1.28616 8.91329 1.46703 8.66829 1.69867C8.42329 1.9303 8.22654 2.20812 8.08938 2.51612C7.95222 2.82413 7.87735 3.15622 7.86909 3.49329V54.0524C7.86909 54.7303 8.13837 55.3804 8.6177 55.8597C9.09702 56.339 9.74713 56.6083 10.425 56.6083H91.5113C91.8522 56.6168 92.1915 56.557 92.509 56.4324C92.8265 56.3078 93.1159 56.1209 93.36 55.8827C93.6042 55.6445 93.7982 55.3598 93.9306 55.0455C94.063 54.7312 94.1312 54.3935 94.1311 54.0524V3.49329ZM90.9362 53.5412H11.064V4.02044H90.9362V53.5412Z" stroke="#3C7CFF" mask="url(#path-1-outside-1_169_265)"/>
<path d="M35.6486 61.8161H2.59744C2.17378 61.8161 1.76746 61.9844 1.46788 62.2839C1.1683 62.5835 1 62.9898 1 63.4135V68.2058C1 69.9005 1.67321 71.5258 2.87152 72.7241C4.06984 73.9224 5.6951 74.5956 7.38978 74.5956H94.6102C96.3049 74.5956 97.9302 73.9224 99.1285 72.7241C100.327 71.5258 101 69.9005 101 68.2058V63.3017C101 62.878 100.832 62.4717 100.532 62.1721C100.233 61.8725 99.8262 61.7042 99.4026 61.7042H66.3514C65.9278 61.7042 65.5215 61.8725 65.2219 62.1721C64.9223 62.4717 64.754 62.878 64.754 63.3017V63.9886H37.1821V63.3017C37.1548 62.9085 36.9831 62.5393 36.7 62.265C36.4169 61.9908 36.0424 61.8309 35.6486 61.8161ZM66.3355 67.1036C66.7591 67.1036 67.1655 66.9353 67.465 66.6357C67.7646 66.3362 67.9329 65.9298 67.9329 65.5062V64.8991H97.869V68.2218C97.8797 68.6481 97.8049 69.0721 97.6491 69.469C97.4934 69.8659 97.2597 70.2276 96.962 70.5328C96.6642 70.8379 96.3084 71.0804 95.9155 71.246C95.5226 71.4115 95.1005 71.4967 94.6741 71.4966H7.38978C6.96341 71.4967 6.54133 71.4115 6.14841 71.246C5.75549 71.0804 5.39968 70.8379 5.10193 70.5328C4.80419 70.2276 4.57055 69.8659 4.41477 69.469C4.25899 69.0721 4.18423 68.6481 4.19489 68.2218V64.8991H34.115V65.586C34.115 66.0097 34.2833 66.416 34.5829 66.7156C34.8825 67.0152 35.2888 67.1835 35.7125 67.1835L66.3355 67.1036Z" stroke="#3C7CFF" mask="url(#path-1-outside-1_169_265)"/>
</svg>
