<svg width="100" height="65" viewBox="0 0 100 65" fill="none" xmlns="http://www.w3.org/2000/svg">
<path d="M41.9292 46.7716H38.7008V50H41.9292V46.7716Z" fill="#3C7CFF"/>
<path d="M48.3858 46.7716H45.1575V50H48.3858V46.7716Z" fill="#3C7CFF"/>
<path d="M35.4921 46.7716H32.2638V50H35.4921V46.7716Z" fill="#3C7CFF"/>
<path d="M95.1575 16.1417H80.6496V0H0V54.8425H29.0354V61.2992H22.5787V64.5276H58.0709V61.2992H51.6142V54.8425H67.7362V56.4567C67.7362 59.1339 69.9016 61.2992 72.5787 61.2992H95.1575C97.8346 61.2992 100 59.1339 100 56.4567V20.9646C100 18.3071 97.8346 16.1417 95.1575 16.1417ZM77.4213 3.22835V16.122H72.5787C69.9016 16.122 67.7362 18.2874 67.7362 20.9646V41.9291H3.22835V3.22835H77.4213ZM48.3858 61.2992H32.2638V54.8425H48.3858V61.2992ZM3.22835 51.6142V45.1575H67.7362V51.6142H3.22835ZM96.7717 56.4567C96.7717 57.3425 96.0433 58.0709 95.1575 58.0709H72.5787C71.6929 58.0709 70.9646 57.3425 70.9646 56.4567V20.9646C70.9646 20.0787 71.6929 19.3504 72.5787 19.3504H95.1575C96.0433 19.3504 96.7717 20.0787 96.7717 20.9646V56.4567Z" fill="#3C7CFF"/>
<path d="M85.4921 51.6141H82.2638V54.8425H85.4921V51.6141Z" fill="#3C7CFF"/>
<path d="M30.6497 8.07092H8.07092V37.1064H30.6497V8.07092ZM27.4213 33.878H11.2993V11.2993H27.4213V33.878Z" fill="#3C7CFF"/>
<path d="M61.2992 8.07092H35.4921V11.2993H61.2992V8.07092Z" fill="#3C7CFF"/>
<path d="M61.2992 20.9646H35.4921V24.1929H61.2992V20.9646Z" fill="#3C7CFF"/>
<path d="M61.2992 33.8779H35.4921V37.1063H61.2992V33.8779Z" fill="#3C7CFF"/>
<path d="M75.8071 38.7204H91.9292V22.5984H75.8071V38.7204ZM79.0355 25.8071H88.7205V35.4921H79.0355V25.8071Z" fill="#3C7CFF"/>
</svg>
