<svg width="100" height="97" viewBox="0 0 100 97" fill="none" xmlns="http://www.w3.org/2000/svg">
<path d="M67.8857 17.251C64.0703 17.0224 60.3138 16.2092 56.7503 14.8402C53.0012 13.3834 50.7713 10.8693 46.8133 13.1486C46.3128 13.4375 45.8163 13.7279 45.2576 13.986C41.1377 15.9327 36.6657 17.0429 32.1054 17.2509C31.7122 17.2285 31.3186 17.2875 30.9496 17.4241C30.5807 17.5606 30.2446 17.7718 29.9626 18.0442C29.6807 18.3165 29.4592 18.644 29.3122 19.0058C29.1652 19.3677 29.096 19.7558 29.1089 20.1456C28.927 23.7145 29.215 27.2916 29.9655 30.7869C30.7765 34.7125 32.378 38.4361 34.6744 41.7355C38.2393 46.5917 43.126 50.3437 48.7638 52.5535C49.556 52.8684 50.4402 52.869 51.2327 52.555C56.8712 50.3453 61.7586 46.5934 65.3245 41.737C67.6202 38.439 69.2216 34.717 70.0334 30.7931C70.7825 27.3064 71.0712 23.7382 70.8923 20.1779C70.9071 19.7854 70.839 19.3941 70.6925 19.029C70.5459 18.6639 70.3241 18.3331 70.0412 18.0577C69.7583 17.7823 69.4205 17.5683 69.0493 17.4294C68.6782 17.2905 68.2819 17.2297 67.8857 17.251ZM66.1548 29.9418C65.4547 33.3593 64.0664 36.6022 62.0728 39.4769C59.0043 43.6371 54.8228 46.8656 49.9999 48.7983C45.1763 46.8656 40.9944 43.6365 37.9262 39.4753C35.9319 36.5992 34.5434 33.3548 33.8434 29.9356C33.2221 27.0418 32.9561 24.0843 33.0512 21.1273C37.8819 20.8272 42.6087 19.6071 46.9723 17.5337C47.6039 17.2433 48.2083 16.8961 48.8143 16.5473C49.1953 16.3276 49.5771 16.1048 49.9999 15.8896C50.4049 16.0955 50.796 16.3229 51.187 16.5488C51.7922 16.8975 52.3966 17.2432 52.9902 17.5167C57.3649 19.5984 62.1044 20.8244 66.9485 21.1274C67.0454 24.0865 66.7789 27.0463 66.1548 29.9418Z" fill="#3C7CFF"/>
<path d="M99.9924 9.6764C99.9916 3.16504 96.7771 0 90.1649 0H9.83505C3.2221 0 0.00756776 3.16504 0.00756776 9.6764C-0.00252259 28.725 -0.00252259 50.9279 0.00756776 69.9749C0.00756776 76.4248 3.14994 79.5592 9.60926 79.5592C17.8275 79.5745 32.6215 79.5653 38.2048 79.5607L37.647 84.6847C37.6359 84.7891 37.5901 84.887 37.5167 84.9628C35.701 86.8234 30.6794 92.671 30.466 92.9184C30.2205 93.2045 30.0628 93.5541 30.0115 93.9261C29.9603 94.2981 30.0177 94.6768 30.1768 95.0176C30.336 95.3583 30.5904 95.6468 30.9099 95.849C31.2293 96.0512 31.6006 96.1587 31.9798 96.1587H68.0201C68.3993 96.1587 68.7706 96.0513 69.0901 95.8491C69.4096 95.6469 69.6639 95.3583 69.8231 95.0176C69.9823 94.6769 70.0397 94.2981 69.9884 93.9261C69.9372 93.5541 69.7795 93.2045 69.534 92.9184C69.3206 92.671 64.299 86.8234 62.4834 84.9612C62.4101 84.8866 62.3642 84.7897 62.3531 84.6862L61.7953 79.5607C67.3801 79.5668 82.1726 79.573 90.387 79.5591C96.8502 79.5591 99.9925 76.4248 99.9925 69.9764C99.9938 67.6088 99.9949 65.192 99.9958 62.7389L99.9972 62.7322L99.9958 62.7253C100.002 45.4467 100.001 26.3529 99.9924 9.6764ZM63.6976 92.2254H36.3016C37.7998 90.5108 39.5091 88.581 40.3735 87.6961C41.0588 86.9906 41.4888 86.0802 41.5963 85.1072L42.1995 79.5668H57.8004L58.4037 85.1087C58.5112 86.0808 58.9413 86.9902 59.6265 87.6945C60.4909 88.581 62.1994 90.5108 63.6976 92.2254ZM96.0198 69.9749C96.0198 74.2523 94.6512 75.6259 90.383 75.6259C80.1156 75.6444 19.8813 75.6444 9.61314 75.6259C5.34883 75.6259 3.98015 74.2524 3.98015 69.9734C3.97927 68.2359 3.97856 66.4473 3.97772 64.662C11.3655 64.662 78.6932 64.6633 96.0223 64.6904C96.0215 66.4665 96.0207 68.2463 96.0198 69.9749ZM96.0237 60.7572C78.6776 60.7301 11.3567 60.7287 3.97627 60.7287C3.9705 43.9815 3.97161 25.7198 3.98015 9.67794C3.98015 5.32987 5.40314 3.93325 9.83505 3.93325H90.1649C94.5969 3.93325 96.0198 5.32987 96.0198 9.67794V9.67952C96.0284 25.7286 96.0296 44.0017 96.0237 60.7572Z" fill="#3C7CFF"/>
</svg>
