<svg width="89" height="98" viewBox="0 0 89 98" fill="none" xmlns="http://www.w3.org/2000/svg">
<mask id="path-1-outside-1_223_2303" maskUnits="userSpaceOnUse" x="0" y="0" width="89" height="98" fill="black">
<rect fill="white" width="89" height="98"/>
<path d="M44.6247 72.2408C34.2246 72.2408 25.7591 63.7797 25.7591 53.3752V53.3794C25.7591 52.5337 26.4468 51.8461 27.2924 51.8461C28.1381 51.8461 28.8214 52.5338 28.8214 53.3794C28.8214 62.0926 35.9115 69.1824 44.6244 69.1824C53.3375 69.1781 60.4274 62.0923 60.4274 53.375C60.4274 52.5294 61.1108 51.846 61.9564 51.846C62.8021 51.846 63.4897 52.5294 63.4897 53.375C63.4897 63.7795 55.025 72.2408 44.6247 72.2408Z"/>
<path d="M51.6381 96.9999H37.6119C36.7662 96.9999 36.0786 96.3165 36.0786 95.4709V86.5742C32.9607 85.7755 29.9667 84.5368 27.1989 82.8967L20.8991 89.1838C20.6129 89.47 20.22 89.6323 19.8142 89.6323C19.4084 89.6323 19.0198 89.47 18.7336 89.1838L8.8161 79.262C8.52993 78.9758 8.36763 78.5872 8.36763 78.1814C8.36763 77.7757 8.52993 77.387 8.8161 77.0965L15.1117 70.8009V70.8052C13.4673 68.0332 12.2287 65.0435 11.43 61.9255H2.52902C1.68333 61.9255 1 61.2379 1 60.3923V53.3748C1 52.5291 1.68338 51.8458 2.52902 51.8458H86.7213C87.5669 51.8458 88.2503 52.5291 88.2503 53.3748V60.388C88.2503 60.798 88.0922 61.1867 87.8018 61.4729C87.5156 61.759 87.127 61.9213 86.7212 61.9213H77.8202C77.0215 65.0393 75.7829 68.0333 74.1385 70.801L80.4299 77.1009C80.7203 77.387 80.8783 77.78 80.8783 78.1857C80.8783 78.5915 80.7203 78.9802 80.4299 79.2663L70.5081 89.1881H70.5124C70.2219 89.4743 69.8332 89.6366 69.4275 89.6366C69.0217 89.6366 68.6331 89.4743 68.3469 89.1881L62.0513 82.8968C59.2837 84.5411 56.2896 85.7798 53.1716 86.5785V95.4709C53.1716 95.8767 53.0093 96.2654 52.7232 96.5515C52.437 96.8419 52.0481 96.9999 51.6381 96.9999ZM39.1405 93.9417H50.1084V85.361C50.1084 84.6435 50.6081 84.0198 51.3129 83.8661C54.9135 83.0802 58.3475 81.658 61.4482 79.6633C62.0547 79.2746 62.8491 79.36 63.3574 79.8726L69.4224 85.9376L77.1788 78.1812L71.1181 72.1162C70.6098 71.6036 70.5244 70.8092 70.9131 70.207C72.9077 67.1019 74.33 63.6721 75.1115 60.0674C75.2653 59.3627 75.8889 58.8629 76.6107 58.8629H85.1914V54.9036H4.05746V58.8586H12.6382C13.3557 58.8586 13.9793 59.3583 14.1331 60.0631C14.9147 63.6637 16.3412 67.0977 18.3359 70.1984C18.7246 70.8049 18.6392 71.5993 18.1266 72.1076L12.0573 78.1769L19.8137 85.9333L25.883 79.8683C26.3956 79.3558 27.19 79.2703 27.7922 79.659C30.8973 81.6536 34.3271 83.0759 37.9318 83.8619C38.6365 84.0156 39.1363 84.6392 39.1363 85.3568L39.1405 93.9417Z"/>
<path d="M71.6016 54.9038H16.1288C15.2831 54.9038 14.5998 54.2204 14.5998 53.3748V47.2158C14.5998 46.3701 15.2831 45.6825 16.1288 45.6825H71.6016C72.443 45.6825 73.1306 46.3702 73.1306 47.2158V53.3748C73.1306 53.7805 72.9683 54.1692 72.6822 54.4554C72.396 54.7458 72.0074 54.9038 71.6016 54.9038ZM17.6617 51.8456H70.0687V48.7448H17.6617V51.8456Z"/>
<path d="M31.5336 48.7457H23.316C22.4703 48.7457 21.7827 48.0623 21.7827 47.2166V31.8062C21.7827 30.9605 22.4704 30.2772 23.316 30.2772H31.5336C32.3793 30.2772 33.0626 30.9605 33.0626 31.8062V47.2166C33.0626 47.6224 32.9003 48.0111 32.6141 48.2972C32.328 48.5834 31.9393 48.7457 31.5336 48.7457ZM24.845 45.6833H30.0002V33.3398H24.845V45.6833Z"/>
<path d="M47.9699 48.7457H39.7481C38.9066 48.7457 38.219 48.0623 38.219 47.2167V24.1054C38.219 23.2597 38.9067 22.5721 39.7481 22.5721H47.9699C48.8156 22.5721 49.4989 23.2597 49.4989 24.1054V47.2167C49.4989 47.6224 49.3366 48.0111 49.0505 48.2973C48.7643 48.5834 48.3757 48.7457 47.9699 48.7457ZM41.2813 45.6833H46.4365V25.6346H41.2813V45.6833Z"/>
<path d="M64.4046 48.7458H56.187C55.3414 48.7458 54.6538 48.0624 54.6538 47.2168V16.4003C54.6538 15.5546 55.3414 14.867 56.187 14.867H64.4046C65.246 14.867 65.9337 15.5546 65.9337 16.4003V47.2168C65.9337 47.6226 65.7713 48.0112 65.4852 48.2974C65.199 48.5836 64.8104 48.7458 64.4046 48.7458ZM57.7203 45.6834H62.8755L62.8712 17.9295H57.716L57.7203 45.6834Z"/>
<path d="M43.8606 19.471C41.6823 19.471 39.7218 18.1597 38.8847 16.148C38.0518 14.1363 38.5131 11.8214 40.055 10.2837C41.5925 8.7418 43.9075 8.2806 45.9193 9.11345C47.931 9.94629 49.2422 11.911 49.2422 14.0893C49.238 17.0577 46.8291 19.4667 43.8606 19.471ZM43.8606 11.7658C42.9209 11.7658 42.0753 12.3339 41.7165 13.2009C41.3578 14.068 41.5542 15.0674 42.2163 15.7294C42.8826 16.3915 43.8819 16.5922 44.749 16.2334C45.6161 15.8747 46.1798 15.0247 46.1798 14.0894C46.1798 12.808 45.1419 11.7658 43.8606 11.7658Z"/>
<path d="M27.4255 27.1762C25.2472 27.1762 23.2825 25.865 22.4496 23.8532C21.6168 21.8414 22.078 19.5266 23.6156 17.9847C25.1575 16.4471 27.4724 15.9858 29.4841 16.8187C31.4958 17.6515 32.8071 19.6163 32.8071 21.7903C32.8028 24.763 30.394 27.1719 27.4255 27.1762ZM27.4255 19.4711C26.4858 19.4711 25.6402 20.0348 25.2772 20.9019C24.9184 21.7732 25.1191 22.7683 25.7812 23.4347C26.4475 24.0967 27.4468 24.2974 28.3139 23.9386C29.181 23.5756 29.7447 22.7299 29.7447 21.7903C29.7447 20.509 28.7068 19.4711 27.4255 19.4711Z"/>
<path d="M60.2912 11.7656C58.1172 11.7656 56.1524 10.4544 55.3196 8.44268C54.4867 6.43092 54.948 4.11608 56.4856 2.57842C58.0275 1.0365 60.3424 0.5753 62.3541 1.41241C64.3658 2.24528 65.6771 4.20573 65.6771 6.38402C65.6728 9.35677 63.2639 11.7614 60.2912 11.7656ZM60.2912 4.06053C59.3558 4.06053 58.5059 4.62859 58.1471 5.49563C57.7884 6.36266 57.9891 7.36207 58.6511 8.02413C59.3174 8.69041 60.3126 8.88689 61.1796 8.52812C62.0509 8.16935 62.6147 7.32362 62.6147 6.38406C62.6147 5.1027 61.5725 4.06479 60.2912 4.06053Z"/>
<path d="M47.3455 13.9831C46.6323 13.9831 46.0129 13.4834 45.8549 12.7829C45.7011 12.0824 46.0514 11.3691 46.7006 11.0659L56.1611 6.63248C56.5284 6.45309 56.9555 6.42746 57.3441 6.56414C57.7285 6.70082 58.0489 6.98698 58.2197 7.35857C58.3948 7.73015 58.4119 8.15727 58.271 8.54163C58.1257 8.92603 57.8353 9.23782 57.4594 9.40439L48.0032 13.8378C47.7982 13.9361 47.5719 13.9831 47.3455 13.9831Z"/>
<path d="M30.9145 21.6883C30.1927 21.6883 29.5734 21.1886 29.4154 20.488C29.2616 19.7876 29.6118 19.0743 30.2611 18.7711L39.7215 14.3419C40.4732 14.0387 41.3318 14.3761 41.6777 15.115C42.0194 15.8496 41.7333 16.7252 41.0157 17.1096L31.5552 21.543H31.5595C31.3545 21.637 31.1366 21.6883 30.9145 21.6883Z"/>
</mask>
<path d="M44.6247 72.2408C34.2246 72.2408 25.7591 63.7797 25.7591 53.3752V53.3794C25.7591 52.5337 26.4468 51.8461 27.2924 51.8461C28.1381 51.8461 28.8214 52.5338 28.8214 53.3794C28.8214 62.0926 35.9115 69.1824 44.6244 69.1824C53.3375 69.1781 60.4274 62.0923 60.4274 53.375C60.4274 52.5294 61.1108 51.846 61.9564 51.846C62.8021 51.846 63.4897 52.5294 63.4897 53.375C63.4897 63.7795 55.025 72.2408 44.6247 72.2408Z" fill="#3C7CFF"/>
<path d="M51.6381 96.9999H37.6119C36.7662 96.9999 36.0786 96.3165 36.0786 95.4709V86.5742C32.9607 85.7755 29.9667 84.5368 27.1989 82.8967L20.8991 89.1838C20.6129 89.47 20.22 89.6323 19.8142 89.6323C19.4084 89.6323 19.0198 89.47 18.7336 89.1838L8.8161 79.262C8.52993 78.9758 8.36763 78.5872 8.36763 78.1814C8.36763 77.7757 8.52993 77.387 8.8161 77.0965L15.1117 70.8009V70.8052C13.4673 68.0332 12.2287 65.0435 11.43 61.9255H2.52902C1.68333 61.9255 1 61.2379 1 60.3923V53.3748C1 52.5291 1.68338 51.8458 2.52902 51.8458H86.7213C87.5669 51.8458 88.2503 52.5291 88.2503 53.3748V60.388C88.2503 60.798 88.0922 61.1867 87.8018 61.4729C87.5156 61.759 87.127 61.9213 86.7212 61.9213H77.8202C77.0215 65.0393 75.7829 68.0333 74.1385 70.801L80.4299 77.1009C80.7203 77.387 80.8783 77.78 80.8783 78.1857C80.8783 78.5915 80.7203 78.9802 80.4299 79.2663L70.5081 89.1881H70.5124C70.2219 89.4743 69.8332 89.6366 69.4275 89.6366C69.0217 89.6366 68.6331 89.4743 68.3469 89.1881L62.0513 82.8968C59.2837 84.5411 56.2896 85.7798 53.1716 86.5785V95.4709C53.1716 95.8767 53.0093 96.2654 52.7232 96.5515C52.437 96.8419 52.0481 96.9999 51.6381 96.9999ZM39.1405 93.9417H50.1084V85.361C50.1084 84.6435 50.6081 84.0198 51.3129 83.8661C54.9135 83.0802 58.3475 81.658 61.4482 79.6633C62.0547 79.2746 62.8491 79.36 63.3574 79.8726L69.4224 85.9376L77.1788 78.1812L71.1181 72.1162C70.6098 71.6036 70.5244 70.8092 70.9131 70.207C72.9077 67.1019 74.33 63.6721 75.1115 60.0674C75.2653 59.3627 75.8889 58.8629 76.6107 58.8629H85.1914V54.9036H4.05746V58.8586H12.6382C13.3557 58.8586 13.9793 59.3583 14.1331 60.0631C14.9147 63.6637 16.3412 67.0977 18.3359 70.1984C18.7246 70.8049 18.6392 71.5993 18.1266 72.1076L12.0573 78.1769L19.8137 85.9333L25.883 79.8683C26.3956 79.3558 27.19 79.2703 27.7922 79.659C30.8973 81.6536 34.3271 83.0759 37.9318 83.8619C38.6365 84.0156 39.1363 84.6392 39.1363 85.3568L39.1405 93.9417Z" fill="#3C7CFF"/>
<path d="M71.6016 54.9038H16.1288C15.2831 54.9038 14.5998 54.2204 14.5998 53.3748V47.2158C14.5998 46.3701 15.2831 45.6825 16.1288 45.6825H71.6016C72.443 45.6825 73.1306 46.3702 73.1306 47.2158V53.3748C73.1306 53.7805 72.9683 54.1692 72.6822 54.4554C72.396 54.7458 72.0074 54.9038 71.6016 54.9038ZM17.6617 51.8456H70.0687V48.7448H17.6617V51.8456Z" fill="#3C7CFF"/>
<path d="M31.5336 48.7457H23.316C22.4703 48.7457 21.7827 48.0623 21.7827 47.2166V31.8062C21.7827 30.9605 22.4704 30.2772 23.316 30.2772H31.5336C32.3793 30.2772 33.0626 30.9605 33.0626 31.8062V47.2166C33.0626 47.6224 32.9003 48.0111 32.6141 48.2972C32.328 48.5834 31.9393 48.7457 31.5336 48.7457ZM24.845 45.6833H30.0002V33.3398H24.845V45.6833Z" fill="#3C7CFF"/>
<path d="M47.9699 48.7457H39.7481C38.9066 48.7457 38.219 48.0623 38.219 47.2167V24.1054C38.219 23.2597 38.9067 22.5721 39.7481 22.5721H47.9699C48.8156 22.5721 49.4989 23.2597 49.4989 24.1054V47.2167C49.4989 47.6224 49.3366 48.0111 49.0505 48.2973C48.7643 48.5834 48.3757 48.7457 47.9699 48.7457ZM41.2813 45.6833H46.4365V25.6346H41.2813V45.6833Z" fill="#3C7CFF"/>
<path d="M64.4046 48.7458H56.187C55.3414 48.7458 54.6538 48.0624 54.6538 47.2168V16.4003C54.6538 15.5546 55.3414 14.867 56.187 14.867H64.4046C65.246 14.867 65.9337 15.5546 65.9337 16.4003V47.2168C65.9337 47.6226 65.7713 48.0112 65.4852 48.2974C65.199 48.5836 64.8104 48.7458 64.4046 48.7458ZM57.7203 45.6834H62.8755L62.8712 17.9295H57.716L57.7203 45.6834Z" fill="#3C7CFF"/>
<path d="M43.8606 19.471C41.6823 19.471 39.7218 18.1597 38.8847 16.148C38.0518 14.1363 38.5131 11.8214 40.055 10.2837C41.5925 8.7418 43.9075 8.2806 45.9193 9.11345C47.931 9.94629 49.2422 11.911 49.2422 14.0893C49.238 17.0577 46.8291 19.4667 43.8606 19.471ZM43.8606 11.7658C42.9209 11.7658 42.0753 12.3339 41.7165 13.2009C41.3578 14.068 41.5542 15.0674 42.2163 15.7294C42.8826 16.3915 43.8819 16.5922 44.749 16.2334C45.6161 15.8747 46.1798 15.0247 46.1798 14.0894C46.1798 12.808 45.1419 11.7658 43.8606 11.7658Z" fill="#3C7CFF"/>
<path d="M27.4255 27.1762C25.2472 27.1762 23.2825 25.865 22.4496 23.8532C21.6168 21.8414 22.078 19.5266 23.6156 17.9847C25.1575 16.4471 27.4724 15.9858 29.4841 16.8187C31.4958 17.6515 32.8071 19.6163 32.8071 21.7903C32.8028 24.763 30.394 27.1719 27.4255 27.1762ZM27.4255 19.4711C26.4858 19.4711 25.6402 20.0348 25.2772 20.9019C24.9184 21.7732 25.1191 22.7683 25.7812 23.4347C26.4475 24.0967 27.4468 24.2974 28.3139 23.9386C29.181 23.5756 29.7447 22.7299 29.7447 21.7903C29.7447 20.509 28.7068 19.4711 27.4255 19.4711Z" fill="#3C7CFF"/>
<path d="M60.2912 11.7656C58.1172 11.7656 56.1524 10.4544 55.3196 8.44268C54.4867 6.43092 54.948 4.11608 56.4856 2.57842C58.0275 1.0365 60.3424 0.5753 62.3541 1.41241C64.3658 2.24528 65.6771 4.20573 65.6771 6.38402C65.6728 9.35677 63.2639 11.7614 60.2912 11.7656ZM60.2912 4.06053C59.3558 4.06053 58.5059 4.62859 58.1471 5.49563C57.7884 6.36266 57.9891 7.36207 58.6511 8.02413C59.3174 8.69041 60.3126 8.88689 61.1796 8.52812C62.0509 8.16935 62.6147 7.32362 62.6147 6.38406C62.6147 5.1027 61.5725 4.06479 60.2912 4.06053Z" fill="#3C7CFF"/>
<path d="M47.3455 13.9831C46.6323 13.9831 46.0129 13.4834 45.8549 12.7829C45.7011 12.0824 46.0514 11.3691 46.7006 11.0659L56.1611 6.63248C56.5284 6.45309 56.9555 6.42746 57.3441 6.56414C57.7285 6.70082 58.0489 6.98698 58.2197 7.35857C58.3948 7.73015 58.4119 8.15727 58.271 8.54163C58.1257 8.92603 57.8353 9.23782 57.4594 9.40439L48.0032 13.8378C47.7982 13.9361 47.5719 13.9831 47.3455 13.9831Z" fill="#3C7CFF"/>
<path d="M30.9145 21.6883C30.1927 21.6883 29.5734 21.1886 29.4154 20.488C29.2616 19.7876 29.6118 19.0743 30.2611 18.7711L39.7215 14.3419C40.4732 14.0387 41.3318 14.3761 41.6777 15.115C42.0194 15.8496 41.7333 16.7252 41.0157 17.1096L31.5552 21.543H31.5595C31.3545 21.637 31.1366 21.6883 30.9145 21.6883Z" fill="#3C7CFF"/>
<path d="M44.6247 72.2408C34.2246 72.2408 25.7591 63.7797 25.7591 53.3752V53.3794C25.7591 52.5337 26.4468 51.8461 27.2924 51.8461C28.1381 51.8461 28.8214 52.5338 28.8214 53.3794C28.8214 62.0926 35.9115 69.1824 44.6244 69.1824C53.3375 69.1781 60.4274 62.0923 60.4274 53.375C60.4274 52.5294 61.1108 51.846 61.9564 51.846C62.8021 51.846 63.4897 52.5294 63.4897 53.375C63.4897 63.7795 55.025 72.2408 44.6247 72.2408Z" stroke="#3C7CFF" mask="url(#path-1-outside-1_223_2303)"/>
<path d="M51.6381 96.9999H37.6119C36.7662 96.9999 36.0786 96.3165 36.0786 95.4709V86.5742C32.9607 85.7755 29.9667 84.5368 27.1989 82.8967L20.8991 89.1838C20.6129 89.47 20.22 89.6323 19.8142 89.6323C19.4084 89.6323 19.0198 89.47 18.7336 89.1838L8.8161 79.262C8.52993 78.9758 8.36763 78.5872 8.36763 78.1814C8.36763 77.7757 8.52993 77.387 8.8161 77.0965L15.1117 70.8009V70.8052C13.4673 68.0332 12.2287 65.0435 11.43 61.9255H2.52902C1.68333 61.9255 1 61.2379 1 60.3923V53.3748C1 52.5291 1.68338 51.8458 2.52902 51.8458H86.7213C87.5669 51.8458 88.2503 52.5291 88.2503 53.3748V60.388C88.2503 60.798 88.0922 61.1867 87.8018 61.4729C87.5156 61.759 87.127 61.9213 86.7212 61.9213H77.8202C77.0215 65.0393 75.7829 68.0333 74.1385 70.801L80.4299 77.1009C80.7203 77.387 80.8783 77.78 80.8783 78.1857C80.8783 78.5915 80.7203 78.9802 80.4299 79.2663L70.5081 89.1881H70.5124C70.2219 89.4743 69.8332 89.6366 69.4275 89.6366C69.0217 89.6366 68.6331 89.4743 68.3469 89.1881L62.0513 82.8968C59.2837 84.5411 56.2896 85.7798 53.1716 86.5785V95.4709C53.1716 95.8767 53.0093 96.2654 52.7232 96.5515C52.437 96.8419 52.0481 96.9999 51.6381 96.9999ZM39.1405 93.9417H50.1084V85.361C50.1084 84.6435 50.6081 84.0198 51.3129 83.8661C54.9135 83.0802 58.3475 81.658 61.4482 79.6633C62.0547 79.2746 62.8491 79.36 63.3574 79.8726L69.4224 85.9376L77.1788 78.1812L71.1181 72.1162C70.6098 71.6036 70.5244 70.8092 70.9131 70.207C72.9077 67.1019 74.33 63.6721 75.1115 60.0674C75.2653 59.3627 75.8889 58.8629 76.6107 58.8629H85.1914V54.9036H4.05746V58.8586H12.6382C13.3557 58.8586 13.9793 59.3583 14.1331 60.0631C14.9147 63.6637 16.3412 67.0977 18.3359 70.1984C18.7246 70.8049 18.6392 71.5993 18.1266 72.1076L12.0573 78.1769L19.8137 85.9333L25.883 79.8683C26.3956 79.3558 27.19 79.2703 27.7922 79.659C30.8973 81.6536 34.3271 83.0759 37.9318 83.8619C38.6365 84.0156 39.1363 84.6392 39.1363 85.3568L39.1405 93.9417Z" stroke="#3C7CFF" mask="url(#path-1-outside-1_223_2303)"/>
<path d="M71.6016 54.9038H16.1288C15.2831 54.9038 14.5998 54.2204 14.5998 53.3748V47.2158C14.5998 46.3701 15.2831 45.6825 16.1288 45.6825H71.6016C72.443 45.6825 73.1306 46.3702 73.1306 47.2158V53.3748C73.1306 53.7805 72.9683 54.1692 72.6822 54.4554C72.396 54.7458 72.0074 54.9038 71.6016 54.9038ZM17.6617 51.8456H70.0687V48.7448H17.6617V51.8456Z" stroke="#3C7CFF" mask="url(#path-1-outside-1_223_2303)"/>
<path d="M31.5336 48.7457H23.316C22.4703 48.7457 21.7827 48.0623 21.7827 47.2166V31.8062C21.7827 30.9605 22.4704 30.2772 23.316 30.2772H31.5336C32.3793 30.2772 33.0626 30.9605 33.0626 31.8062V47.2166C33.0626 47.6224 32.9003 48.0111 32.6141 48.2972C32.328 48.5834 31.9393 48.7457 31.5336 48.7457ZM24.845 45.6833H30.0002V33.3398H24.845V45.6833Z" stroke="#3C7CFF" mask="url(#path-1-outside-1_223_2303)"/>
<path d="M47.9699 48.7457H39.7481C38.9066 48.7457 38.219 48.0623 38.219 47.2167V24.1054C38.219 23.2597 38.9067 22.5721 39.7481 22.5721H47.9699C48.8156 22.5721 49.4989 23.2597 49.4989 24.1054V47.2167C49.4989 47.6224 49.3366 48.0111 49.0505 48.2973C48.7643 48.5834 48.3757 48.7457 47.9699 48.7457ZM41.2813 45.6833H46.4365V25.6346H41.2813V45.6833Z" stroke="#3C7CFF" mask="url(#path-1-outside-1_223_2303)"/>
<path d="M64.4046 48.7458H56.187C55.3414 48.7458 54.6538 48.0624 54.6538 47.2168V16.4003C54.6538 15.5546 55.3414 14.867 56.187 14.867H64.4046C65.246 14.867 65.9337 15.5546 65.9337 16.4003V47.2168C65.9337 47.6226 65.7713 48.0112 65.4852 48.2974C65.199 48.5836 64.8104 48.7458 64.4046 48.7458ZM57.7203 45.6834H62.8755L62.8712 17.9295H57.716L57.7203 45.6834Z" stroke="#3C7CFF" mask="url(#path-1-outside-1_223_2303)"/>
<path d="M43.8606 19.471C41.6823 19.471 39.7218 18.1597 38.8847 16.148C38.0518 14.1363 38.5131 11.8214 40.055 10.2837C41.5925 8.7418 43.9075 8.2806 45.9193 9.11345C47.931 9.94629 49.2422 11.911 49.2422 14.0893C49.238 17.0577 46.8291 19.4667 43.8606 19.471ZM43.8606 11.7658C42.9209 11.7658 42.0753 12.3339 41.7165 13.2009C41.3578 14.068 41.5542 15.0674 42.2163 15.7294C42.8826 16.3915 43.8819 16.5922 44.749 16.2334C45.6161 15.8747 46.1798 15.0247 46.1798 14.0894C46.1798 12.808 45.1419 11.7658 43.8606 11.7658Z" stroke="#3C7CFF" mask="url(#path-1-outside-1_223_2303)"/>
<path d="M27.4255 27.1762C25.2472 27.1762 23.2825 25.865 22.4496 23.8532C21.6168 21.8414 22.078 19.5266 23.6156 17.9847C25.1575 16.4471 27.4724 15.9858 29.4841 16.8187C31.4958 17.6515 32.8071 19.6163 32.8071 21.7903C32.8028 24.763 30.394 27.1719 27.4255 27.1762ZM27.4255 19.4711C26.4858 19.4711 25.6402 20.0348 25.2772 20.9019C24.9184 21.7732 25.1191 22.7683 25.7812 23.4347C26.4475 24.0967 27.4468 24.2974 28.3139 23.9386C29.181 23.5756 29.7447 22.7299 29.7447 21.7903C29.7447 20.509 28.7068 19.4711 27.4255 19.4711Z" stroke="#3C7CFF" mask="url(#path-1-outside-1_223_2303)"/>
<path d="M60.2912 11.7656C58.1172 11.7656 56.1524 10.4544 55.3196 8.44268C54.4867 6.43092 54.948 4.11608 56.4856 2.57842C58.0275 1.0365 60.3424 0.5753 62.3541 1.41241C64.3658 2.24528 65.6771 4.20573 65.6771 6.38402C65.6728 9.35677 63.2639 11.7614 60.2912 11.7656ZM60.2912 4.06053C59.3558 4.06053 58.5059 4.62859 58.1471 5.49563C57.7884 6.36266 57.9891 7.36207 58.6511 8.02413C59.3174 8.69041 60.3126 8.88689 61.1796 8.52812C62.0509 8.16935 62.6147 7.32362 62.6147 6.38406C62.6147 5.1027 61.5725 4.06479 60.2912 4.06053Z" stroke="#3C7CFF" mask="url(#path-1-outside-1_223_2303)"/>
<path d="M47.3455 13.9831C46.6323 13.9831 46.0129 13.4834 45.8549 12.7829C45.7011 12.0824 46.0514 11.3691 46.7006 11.0659L56.1611 6.63248C56.5284 6.45309 56.9555 6.42746 57.3441 6.56414C57.7285 6.70082 58.0489 6.98698 58.2197 7.35857C58.3948 7.73015 58.4119 8.15727 58.271 8.54163C58.1257 8.92603 57.8353 9.23782 57.4594 9.40439L48.0032 13.8378C47.7982 13.9361 47.5719 13.9831 47.3455 13.9831Z" stroke="#3C7CFF" mask="url(#path-1-outside-1_223_2303)"/>
<path d="M30.9145 21.6883C30.1927 21.6883 29.5734 21.1886 29.4154 20.488C29.2616 19.7876 29.6118 19.0743 30.2611 18.7711L39.7215 14.3419C40.4732 14.0387 41.3318 14.3761 41.6777 15.115C42.0194 15.8496 41.7333 16.7252 41.0157 17.1096L31.5552 21.543H31.5595C31.3545 21.637 31.1366 21.6883 30.9145 21.6883Z" stroke="#3C7CFF" mask="url(#path-1-outside-1_223_2303)"/>
</svg>
