<svg width="95" height="95" viewBox="0 0 95 95" fill="none" xmlns="http://www.w3.org/2000/svg">
<path d="M11.83 16.37L13.79 14.13H6.07001C5.04001 14.12 4.20001 13.29 4.20001 12.26C4.20001 11.23 5.04001 10.39 6.07001 10.39H18.44C19.47 10.39 20.31 11.23 20.31 12.26L11.83 16.37ZM11.83 16.37C4.33001 24.95 0.200012 35.9599 0.200012 47.3699C0.200012 73.3799 21.36 94.54 47.37 94.54C52.55 94.54 57.86 93.65 62.71 91.98C63.18 91.82 63.56 91.47 63.78 91.03C64 90.58 64.04 90.07 63.87 89.59C63.61 88.83 62.9 88.32 62.09 88.32C61.89 88.32 61.69 88.35 61.49 88.42C56.96 89.98 52.2 90.77 47.36 90.77C23.43 90.77 3.96001 71.2999 3.96001 47.3699C3.96001 37.1299 7.58001 27.1899 14.17 19.4L16.56 16.57V24.6299C16.56 25.6699 17.4 26.51 18.44 26.51C19.48 26.51 20.32 25.6699 20.32 24.6299L20.31 12.26L11.83 16.37ZM62.99 66.35V66.15V33.36H60.41H60L60.25 33.04L65.44 26.41C65.56 26.26 65.73 26.18 65.91 26.18C66.09 26.18 66.27 26.27 66.38 26.41L62.99 66.35ZM62.99 66.35H63.19H68.62H68.82V66.15L68.83 33.36L71.42 33.3499H71.83L71.58 33.0299L66.38 26.41L62.99 66.35ZM78.18 78.16L80.56 75.34C87.14 67.55 90.76 57.61 90.76 47.36C90.76 23.43 71.29 3.95995 47.36 3.95995C42.51 3.95995 37.75 4.74995 33.23 6.30995C33.03 6.37995 32.83 6.40995 32.62 6.40995C31.81 6.40995 31.11 5.88995 30.84 5.13995C30.5 4.16995 31.03 3.08995 32 2.75995C36.89 1.07995 42.19 0.199951 47.37 0.199951C73.38 0.199951 94.54 21.3599 94.54 47.3699C94.54 58.7599 90.41 69.77 82.91 78.37L80.96 80.61H88.68C89.71 80.61 90.55 81.45 90.55 82.48C90.55 83.51 89.71 84.35 88.68 84.35H76.29C75.26 84.35 74.42 83.51 74.42 82.48L78.18 78.16ZM28.99 40.0499L29.13 40.4199C38.08 38.2799 45.5 33.35 51.74 25.44L52.38 24.62L54.66 25.61L55.04 25.77L54.94 25.37L53.08 18.15L53.02 17.9L52.79 18.03L46.29 21.6399L45.93 21.84L46.3 22L48.54 22.9599L47.82 24.27C45.96 27.65 41.08 34.0499 28.99 40.0499ZM23.4 55.1899V54.99H23.2H17.77H17.57V55.1899V66.14V66.34H17.77H23.2H23.4V66.14V55.1899ZM53.69 42.57V42.3699H53.49H48.06H47.86V42.57V66.14V66.34H48.06H53.49H53.69V66.14V42.57ZM38.55 48.88V48.68H38.35H32.92H32.72V48.88V66.14V66.34H32.92H38.35H38.55V66.14V48.88ZM74.41 70.12L74.42 82.58L78.18 78.16L78.17 70.12C78.17 69.07 77.33 68.23 76.29 68.23C75.25 68.23 74.41 69.08 74.41 70.12Z" fill="#3C7CFF"/>
<path d="M11.83 16.37L13.79 14.13H6.07001C5.04001 14.12 4.20001 13.29 4.20001 12.26C4.20001 11.23 5.04001 10.39 6.07001 10.39H18.44C19.47 10.39 20.31 11.23 20.31 12.26M11.83 16.37L20.31 12.26M11.83 16.37C4.33001 24.95 0.200012 35.9599 0.200012 47.3699C0.200012 73.3799 21.36 94.54 47.37 94.54C52.55 94.54 57.86 93.65 62.71 91.98C63.18 91.82 63.56 91.47 63.78 91.03C64 90.58 64.04 90.07 63.87 89.59C63.61 88.83 62.9 88.32 62.09 88.32C61.89 88.32 61.69 88.35 61.49 88.42C56.96 89.98 52.2 90.77 47.36 90.77C23.43 90.77 3.96001 71.2999 3.96001 47.3699C3.96001 37.1299 7.58001 27.1899 14.17 19.4L16.56 16.57V24.6299C16.56 25.6699 17.4 26.51 18.44 26.51C19.48 26.51 20.32 25.6699 20.32 24.6299L20.31 12.26M62.99 66.35V66.15V33.36H60.41H60L60.25 33.04L65.44 26.41C65.56 26.26 65.73 26.18 65.91 26.18C66.09 26.18 66.27 26.27 66.38 26.41M62.99 66.35L66.38 26.41M62.99 66.35H63.19H68.62H68.82V66.15L68.83 33.36L71.42 33.3499H71.83L71.58 33.0299L66.38 26.41M78.18 78.16L80.56 75.34C87.14 67.55 90.76 57.61 90.76 47.36C90.76 23.43 71.29 3.95995 47.36 3.95995C42.51 3.95995 37.75 4.74995 33.23 6.30995C33.03 6.37995 32.83 6.40995 32.62 6.40995C31.81 6.40995 31.11 5.88995 30.84 5.13995C30.5 4.16995 31.03 3.08995 32 2.75995C36.89 1.07995 42.19 0.199951 47.37 0.199951C73.38 0.199951 94.54 21.3599 94.54 47.3699C94.54 58.7599 90.41 69.77 82.91 78.37L80.96 80.61H88.68C89.71 80.61 90.55 81.45 90.55 82.48C90.55 83.51 89.71 84.35 88.68 84.35H76.29C75.26 84.35 74.42 83.51 74.42 82.48L78.18 78.16ZM78.18 78.16L78.17 70.11M78.18 78.16L74.42 82.58L74.41 70.12C74.41 69.08 75.25 68.23 76.29 68.23C77.33 68.23 78.17 69.07 78.17 70.12L78.18 78.16ZM28.99 40.0499L29.13 40.4199C38.08 38.2799 45.5 33.35 51.74 25.44L52.38 24.62L54.66 25.61L55.04 25.77L54.94 25.37L53.08 18.15L53.02 17.9L52.79 18.03L46.29 21.6399L45.93 21.84L46.3 22L48.54 22.9599L47.82 24.27C45.96 27.65 41.08 34.0499 28.99 40.0499ZM23.4 55.1899V54.99H23.2H17.77H17.57V55.1899V66.14V66.34H17.77H23.2H23.4V66.14V55.1899ZM53.69 42.57V42.3699H53.49H48.06H47.86V42.57V66.14V66.34H48.06H53.49H53.69V66.14V42.57ZM38.55 48.88V48.68H38.35H32.92H32.72V48.88V66.14V66.34H32.92H38.35H38.55V66.14V48.88Z" stroke="#3C7CFF" stroke-width="0.4"/>
</svg>
