<svg width="100" height="101" viewBox="0 0 100 101" fill="none" xmlns="http://www.w3.org/2000/svg">
<mask id="path-1-outside-1_192_1328" maskUnits="userSpaceOnUse" x="1" y="4" width="98" height="93" fill="black">
<rect fill="white" x="1" y="4" width="98" height="93"/>
<path d="M98 29.4659C98 15.9714 87.0286 5 73.5341 5C67.9333 5 62.458 6.94722 58.1134 10.4648C54.1666 13.6787 51.2981 18.0757 49.9477 22.9437H7.06696C4.27176 22.9437 2 25.048 2 27.6338V73.1631V79.0467C2 81.5906 4.27176 83.6635 7.06696 83.6635H27.429V87.6312H13.3797C11.8303 87.6312 10.574 88.8875 10.574 90.4369V93.6927C10.574 95.2421 11.8303 96.4984 13.3797 96.4984H67.9751C69.5245 96.4984 70.7808 95.2421 70.7808 93.6927V90.4369C70.7808 88.8875 69.5245 87.6312 67.9751 87.6312H53.9258V83.6635H74.2879C77.0831 83.6635 79.3549 81.5906 79.3549 79.0467V53.2198C90.2321 50.5712 98 40.7723 98 29.4554V29.4659ZM75.0835 8.36052C77.6694 9.22944 79.9621 12.234 81.5324 16.4635H75.0835V8.36052ZM71.9847 8.37099V16.453H65.5568C67.1481 12.234 69.4617 9.25038 71.9847 8.37099ZM71.9847 19.5518V22.9437H63.8713C64.0598 21.7712 64.2901 20.6301 64.5727 19.5518H71.9847ZM75.0835 19.5518H82.4955C83.1446 22.0957 83.5634 24.9328 83.6681 27.9165H79.3234C79.0617 25.4144 77.3134 23.4044 75.0835 23.017V19.5518ZM94.8488 27.9165H86.7669C86.6726 24.9433 86.2957 22.1272 85.699 19.5518H92.4619C93.7915 22.0853 94.629 24.9119 94.8488 27.9165ZM79.3549 42.4683H81.5324C80.9147 44.1224 80.1819 45.588 79.3549 46.8233V42.4683ZM79.3549 39.3695V31.0048H83.6681C83.5634 33.9675 83.1551 36.8046 82.4955 39.3695H79.3549ZM86.7669 31.0048H94.8384C94.6185 33.9884 93.7915 36.8255 92.4619 39.3695H85.6885C86.2957 36.7732 86.6726 33.9466 86.7669 31.0048ZM90.4728 16.453H84.8196C83.9193 13.752 82.7363 11.4174 81.3439 9.57492C84.9767 11.0092 88.1278 13.4065 90.4728 16.453ZM65.7034 9.59586C64.3215 11.4279 63.149 13.752 62.2486 16.453H56.6059C58.9614 13.4065 62.1125 11.0301 65.7034 9.59586ZM54.6063 19.5413H61.3692C61.118 20.6301 60.8981 21.7607 60.7306 22.9333H53.1721C53.549 21.7503 54.0305 20.6196 54.5959 19.5413H54.6063ZM5.0988 27.6443C5.0988 26.7858 5.99913 26.053 7.06696 26.053H74.2879C75.3557 26.053 76.2561 27.2046 76.2561 28.5655V70.0748H5.0988V27.6443ZM67.682 93.4205H13.6728V90.7509H67.682V93.4205ZM50.8375 87.6521H30.5173V83.6844H50.827V87.6521H50.8375ZM76.2665 79.0571C76.2665 79.8842 75.3662 80.5856 74.2984 80.5856H7.06696C5.99913 80.5856 5.0988 79.8842 5.0988 79.0571V73.1736H76.2665V79.0571ZM81.3544 49.3568C82.7468 47.4933 83.9193 45.1483 84.8196 42.4683H90.4938C88.1592 45.5147 85.0185 47.9226 81.3544 49.3568ZM35.8356 76.8691C35.8356 76.0107 36.5265 75.3197 37.3849 75.3197H43.9804C44.8388 75.3197 45.5298 76.0107 45.5298 76.8691C45.5298 77.7276 44.8388 78.4185 43.9804 78.4185H37.3849C36.5265 78.4185 35.8356 77.7276 35.8356 76.8691ZM35.6785 50.8329C35.6785 51.6914 34.9876 52.3823 34.1291 52.3823H24.2046C23.3461 52.3823 22.6552 51.6914 22.6552 50.8329C22.6552 49.9745 23.3461 49.2835 24.2046 49.2835H34.1291C34.9876 49.2835 35.6785 49.9745 35.6785 50.8329ZM65.5254 47.9645V33.7267C65.5254 32.1354 64.2273 30.8373 62.636 30.8373H19.4517C17.8604 30.8373 16.5623 32.1354 16.5623 33.7267V56.0046C16.5623 57.5959 17.8604 58.894 19.4517 58.894H49.4347C50.1884 64.1285 54.7005 68.159 60.1339 68.159C66.1012 68.159 70.9483 63.3119 70.9483 57.3446C70.9483 53.3455 68.7603 49.8384 65.5149 47.9749L65.5254 47.9645ZM19.6715 39.9767H62.4266V42.7405H19.6715V39.9767ZM62.4371 33.9361V36.8779H19.6715V33.9361H62.4266H62.4371ZM19.6715 45.8288H62.4266V46.771C61.6833 46.614 60.9191 46.5197 60.1339 46.5197C54.7005 46.5197 50.1884 50.5503 49.4347 55.7847H19.6715V45.8288ZM60.1444 65.0602C55.8835 65.0602 52.4288 61.595 52.4288 57.3446C52.4288 53.0942 55.894 49.629 60.1444 49.629C64.3948 49.629 67.86 53.0942 67.86 57.3446C67.86 61.595 64.3948 65.0602 60.1444 65.0602ZM65.5882 53.2931C66.1954 53.9003 66.1954 54.8739 65.5882 55.4811L59.6942 61.3751C59.3906 61.6787 58.9928 61.8253 58.595 61.8253C58.1972 61.8253 57.7993 61.6787 57.4957 61.3751L54.6901 58.5695C54.0829 57.9623 54.0829 56.9887 54.6901 56.3815C55.2973 55.7743 56.2709 55.7743 56.8781 56.3815L58.595 58.0984L63.4002 53.2931C64.0074 52.6859 64.981 52.6859 65.5882 53.2931ZM48.3354 52.3823H41.7505C40.892 52.3823 40.2011 51.6914 40.2011 50.8329C40.2011 49.9745 40.892 49.2835 41.7505 49.2835H48.3354C49.1939 49.2835 49.8848 49.9745 49.8848 50.8329C49.8848 51.6914 49.1939 52.3823 48.3354 52.3823Z"/>
</mask>
<path d="M98 29.4659C98 15.9714 87.0286 5 73.5341 5C67.9333 5 62.458 6.94722 58.1134 10.4648C54.1666 13.6787 51.2981 18.0757 49.9477 22.9437H7.06696C4.27176 22.9437 2 25.048 2 27.6338V73.1631V79.0467C2 81.5906 4.27176 83.6635 7.06696 83.6635H27.429V87.6312H13.3797C11.8303 87.6312 10.574 88.8875 10.574 90.4369V93.6927C10.574 95.2421 11.8303 96.4984 13.3797 96.4984H67.9751C69.5245 96.4984 70.7808 95.2421 70.7808 93.6927V90.4369C70.7808 88.8875 69.5245 87.6312 67.9751 87.6312H53.9258V83.6635H74.2879C77.0831 83.6635 79.3549 81.5906 79.3549 79.0467V53.2198C90.2321 50.5712 98 40.7723 98 29.4554V29.4659ZM75.0835 8.36052C77.6694 9.22944 79.9621 12.234 81.5324 16.4635H75.0835V8.36052ZM71.9847 8.37099V16.453H65.5568C67.1481 12.234 69.4617 9.25038 71.9847 8.37099ZM71.9847 19.5518V22.9437H63.8713C64.0598 21.7712 64.2901 20.6301 64.5727 19.5518H71.9847ZM75.0835 19.5518H82.4955C83.1446 22.0957 83.5634 24.9328 83.6681 27.9165H79.3234C79.0617 25.4144 77.3134 23.4044 75.0835 23.017V19.5518ZM94.8488 27.9165H86.7669C86.6726 24.9433 86.2957 22.1272 85.699 19.5518H92.4619C93.7915 22.0853 94.629 24.9119 94.8488 27.9165ZM79.3549 42.4683H81.5324C80.9147 44.1224 80.1819 45.588 79.3549 46.8233V42.4683ZM79.3549 39.3695V31.0048H83.6681C83.5634 33.9675 83.1551 36.8046 82.4955 39.3695H79.3549ZM86.7669 31.0048H94.8384C94.6185 33.9884 93.7915 36.8255 92.4619 39.3695H85.6885C86.2957 36.7732 86.6726 33.9466 86.7669 31.0048ZM90.4728 16.453H84.8196C83.9193 13.752 82.7363 11.4174 81.3439 9.57492C84.9767 11.0092 88.1278 13.4065 90.4728 16.453ZM65.7034 9.59586C64.3215 11.4279 63.149 13.752 62.2486 16.453H56.6059C58.9614 13.4065 62.1125 11.0301 65.7034 9.59586ZM54.6063 19.5413H61.3692C61.118 20.6301 60.8981 21.7607 60.7306 22.9333H53.1721C53.549 21.7503 54.0305 20.6196 54.5959 19.5413H54.6063ZM5.0988 27.6443C5.0988 26.7858 5.99913 26.053 7.06696 26.053H74.2879C75.3557 26.053 76.2561 27.2046 76.2561 28.5655V70.0748H5.0988V27.6443ZM67.682 93.4205H13.6728V90.7509H67.682V93.4205ZM50.8375 87.6521H30.5173V83.6844H50.827V87.6521H50.8375ZM76.2665 79.0571C76.2665 79.8842 75.3662 80.5856 74.2984 80.5856H7.06696C5.99913 80.5856 5.0988 79.8842 5.0988 79.0571V73.1736H76.2665V79.0571ZM81.3544 49.3568C82.7468 47.4933 83.9193 45.1483 84.8196 42.4683H90.4938C88.1592 45.5147 85.0185 47.9226 81.3544 49.3568ZM35.8356 76.8691C35.8356 76.0107 36.5265 75.3197 37.3849 75.3197H43.9804C44.8388 75.3197 45.5298 76.0107 45.5298 76.8691C45.5298 77.7276 44.8388 78.4185 43.9804 78.4185H37.3849C36.5265 78.4185 35.8356 77.7276 35.8356 76.8691ZM35.6785 50.8329C35.6785 51.6914 34.9876 52.3823 34.1291 52.3823H24.2046C23.3461 52.3823 22.6552 51.6914 22.6552 50.8329C22.6552 49.9745 23.3461 49.2835 24.2046 49.2835H34.1291C34.9876 49.2835 35.6785 49.9745 35.6785 50.8329ZM65.5254 47.9645V33.7267C65.5254 32.1354 64.2273 30.8373 62.636 30.8373H19.4517C17.8604 30.8373 16.5623 32.1354 16.5623 33.7267V56.0046C16.5623 57.5959 17.8604 58.894 19.4517 58.894H49.4347C50.1884 64.1285 54.7005 68.159 60.1339 68.159C66.1012 68.159 70.9483 63.3119 70.9483 57.3446C70.9483 53.3455 68.7603 49.8384 65.5149 47.9749L65.5254 47.9645ZM19.6715 39.9767H62.4266V42.7405H19.6715V39.9767ZM62.4371 33.9361V36.8779H19.6715V33.9361H62.4266H62.4371ZM19.6715 45.8288H62.4266V46.771C61.6833 46.614 60.9191 46.5197 60.1339 46.5197C54.7005 46.5197 50.1884 50.5503 49.4347 55.7847H19.6715V45.8288ZM60.1444 65.0602C55.8835 65.0602 52.4288 61.595 52.4288 57.3446C52.4288 53.0942 55.894 49.629 60.1444 49.629C64.3948 49.629 67.86 53.0942 67.86 57.3446C67.86 61.595 64.3948 65.0602 60.1444 65.0602ZM65.5882 53.2931C66.1954 53.9003 66.1954 54.8739 65.5882 55.4811L59.6942 61.3751C59.3906 61.6787 58.9928 61.8253 58.595 61.8253C58.1972 61.8253 57.7993 61.6787 57.4957 61.3751L54.6901 58.5695C54.0829 57.9623 54.0829 56.9887 54.6901 56.3815C55.2973 55.7743 56.2709 55.7743 56.8781 56.3815L58.595 58.0984L63.4002 53.2931C64.0074 52.6859 64.981 52.6859 65.5882 53.2931ZM48.3354 52.3823H41.7505C40.892 52.3823 40.2011 51.6914 40.2011 50.8329C40.2011 49.9745 40.892 49.2835 41.7505 49.2835H48.3354C49.1939 49.2835 49.8848 49.9745 49.8848 50.8329C49.8848 51.6914 49.1939 52.3823 48.3354 52.3823Z" fill="#3C7CFF"/>
<path d="M98 29.4659C98 15.9714 87.0286 5 73.5341 5C67.9333 5 62.458 6.94722 58.1134 10.4648C54.1666 13.6787 51.2981 18.0757 49.9477 22.9437H7.06696C4.27176 22.9437 2 25.048 2 27.6338V73.1631V79.0467C2 81.5906 4.27176 83.6635 7.06696 83.6635H27.429V87.6312H13.3797C11.8303 87.6312 10.574 88.8875 10.574 90.4369V93.6927C10.574 95.2421 11.8303 96.4984 13.3797 96.4984H67.9751C69.5245 96.4984 70.7808 95.2421 70.7808 93.6927V90.4369C70.7808 88.8875 69.5245 87.6312 67.9751 87.6312H53.9258V83.6635H74.2879C77.0831 83.6635 79.3549 81.5906 79.3549 79.0467V53.2198C90.2321 50.5712 98 40.7723 98 29.4554V29.4659ZM75.0835 8.36052C77.6694 9.22944 79.9621 12.234 81.5324 16.4635H75.0835V8.36052ZM71.9847 8.37099V16.453H65.5568C67.1481 12.234 69.4617 9.25038 71.9847 8.37099ZM71.9847 19.5518V22.9437H63.8713C64.0598 21.7712 64.2901 20.6301 64.5727 19.5518H71.9847ZM75.0835 19.5518H82.4955C83.1446 22.0957 83.5634 24.9328 83.6681 27.9165H79.3234C79.0617 25.4144 77.3134 23.4044 75.0835 23.017V19.5518ZM94.8488 27.9165H86.7669C86.6726 24.9433 86.2957 22.1272 85.699 19.5518H92.4619C93.7915 22.0853 94.629 24.9119 94.8488 27.9165ZM79.3549 42.4683H81.5324C80.9147 44.1224 80.1819 45.588 79.3549 46.8233V42.4683ZM79.3549 39.3695V31.0048H83.6681C83.5634 33.9675 83.1551 36.8046 82.4955 39.3695H79.3549ZM86.7669 31.0048H94.8384C94.6185 33.9884 93.7915 36.8255 92.4619 39.3695H85.6885C86.2957 36.7732 86.6726 33.9466 86.7669 31.0048ZM90.4728 16.453H84.8196C83.9193 13.752 82.7363 11.4174 81.3439 9.57492C84.9767 11.0092 88.1278 13.4065 90.4728 16.453ZM65.7034 9.59586C64.3215 11.4279 63.149 13.752 62.2486 16.453H56.6059C58.9614 13.4065 62.1125 11.0301 65.7034 9.59586ZM54.6063 19.5413H61.3692C61.118 20.6301 60.8981 21.7607 60.7306 22.9333H53.1721C53.549 21.7503 54.0305 20.6196 54.5959 19.5413H54.6063ZM5.0988 27.6443C5.0988 26.7858 5.99913 26.053 7.06696 26.053H74.2879C75.3557 26.053 76.2561 27.2046 76.2561 28.5655V70.0748H5.0988V27.6443ZM67.682 93.4205H13.6728V90.7509H67.682V93.4205ZM50.8375 87.6521H30.5173V83.6844H50.827V87.6521H50.8375ZM76.2665 79.0571C76.2665 79.8842 75.3662 80.5856 74.2984 80.5856H7.06696C5.99913 80.5856 5.0988 79.8842 5.0988 79.0571V73.1736H76.2665V79.0571ZM81.3544 49.3568C82.7468 47.4933 83.9193 45.1483 84.8196 42.4683H90.4938C88.1592 45.5147 85.0185 47.9226 81.3544 49.3568ZM35.8356 76.8691C35.8356 76.0107 36.5265 75.3197 37.3849 75.3197H43.9804C44.8388 75.3197 45.5298 76.0107 45.5298 76.8691C45.5298 77.7276 44.8388 78.4185 43.9804 78.4185H37.3849C36.5265 78.4185 35.8356 77.7276 35.8356 76.8691ZM35.6785 50.8329C35.6785 51.6914 34.9876 52.3823 34.1291 52.3823H24.2046C23.3461 52.3823 22.6552 51.6914 22.6552 50.8329C22.6552 49.9745 23.3461 49.2835 24.2046 49.2835H34.1291C34.9876 49.2835 35.6785 49.9745 35.6785 50.8329ZM65.5254 47.9645V33.7267C65.5254 32.1354 64.2273 30.8373 62.636 30.8373H19.4517C17.8604 30.8373 16.5623 32.1354 16.5623 33.7267V56.0046C16.5623 57.5959 17.8604 58.894 19.4517 58.894H49.4347C50.1884 64.1285 54.7005 68.159 60.1339 68.159C66.1012 68.159 70.9483 63.3119 70.9483 57.3446C70.9483 53.3455 68.7603 49.8384 65.5149 47.9749L65.5254 47.9645ZM19.6715 39.9767H62.4266V42.7405H19.6715V39.9767ZM62.4371 33.9361V36.8779H19.6715V33.9361H62.4266H62.4371ZM19.6715 45.8288H62.4266V46.771C61.6833 46.614 60.9191 46.5197 60.1339 46.5197C54.7005 46.5197 50.1884 50.5503 49.4347 55.7847H19.6715V45.8288ZM60.1444 65.0602C55.8835 65.0602 52.4288 61.595 52.4288 57.3446C52.4288 53.0942 55.894 49.629 60.1444 49.629C64.3948 49.629 67.86 53.0942 67.86 57.3446C67.86 61.595 64.3948 65.0602 60.1444 65.0602ZM65.5882 53.2931C66.1954 53.9003 66.1954 54.8739 65.5882 55.4811L59.6942 61.3751C59.3906 61.6787 58.9928 61.8253 58.595 61.8253C58.1972 61.8253 57.7993 61.6787 57.4957 61.3751L54.6901 58.5695C54.0829 57.9623 54.0829 56.9887 54.6901 56.3815C55.2973 55.7743 56.2709 55.7743 56.8781 56.3815L58.595 58.0984L63.4002 53.2931C64.0074 52.6859 64.981 52.6859 65.5882 53.2931ZM48.3354 52.3823H41.7505C40.892 52.3823 40.2011 51.6914 40.2011 50.8329C40.2011 49.9745 40.892 49.2835 41.7505 49.2835H48.3354C49.1939 49.2835 49.8848 49.9745 49.8848 50.8329C49.8848 51.6914 49.1939 52.3823 48.3354 52.3823Z" stroke="#3C7CFF" stroke-width="0.9" mask="url(#path-1-outside-1_192_1328)"/>
</svg>
