<svg width="100" height="100" viewBox="0 0 100 100" fill="none" xmlns="http://www.w3.org/2000/svg">
<path d="M50.1577 96.7742C26.9605 96.7742 8.08988 77.9629 8.08988 54.8387V53.2258H6.15638L11.3259 44.9791L16.4954 53.2258H14.5619V54.8387C14.5619 74.4049 30.5298 90.3226 50.1577 90.3226C65.7923 90.3226 79.8236 79.9 84.2779 64.9758L81.1778 64.0565C80.0727 67.7597 78.301 71.142 76.0456 74.1258V45.1613H63.1016V84.3581C61.0371 85.2645 58.8673 85.9452 56.6296 86.4081V35.4839H43.9656L47.323 31.5791C48.1837 32 49.1367 32.2581 50.1577 32.2581C52.0993 32.2581 53.824 31.3839 55.0117 30.0291L63.2489 34.1339C63.155 34.571 63.1016 35.021 63.1016 35.4839C63.1016 39.042 66.0043 41.9355 69.5736 41.9355C73.1429 41.9355 76.0456 39.042 76.0456 35.4839C76.0456 31.9258 73.1429 29.0323 69.5736 29.0323C67.632 29.0323 65.9072 29.9065 64.7196 31.2613L56.4824 27.1565C56.5763 26.7194 56.6296 26.2694 56.6296 25.8065C56.6296 22.2484 53.727 19.3549 50.1577 19.3549C46.5884 19.3549 43.6857 22.2484 43.6857 25.8065C43.6857 27.1774 44.1242 28.4452 44.8588 29.492L33.5749 42.6145C32.7157 42.1936 31.7627 41.9355 30.7418 41.9355C27.1725 41.9355 24.2698 44.8291 24.2698 48.3871C24.2698 51.9452 27.1725 54.8387 30.7418 54.8387C34.3111 54.8387 37.2137 51.9452 37.2137 48.3871C37.2137 47.0161 36.7753 45.7484 36.0407 44.7016L43.6857 35.8097V86.4403C41.4318 85.9823 39.2718 85.2726 37.2137 84.3726V58.0645H24.2698V74.1355C20.5209 69.15 18.1651 63.0678 17.8367 56.4516H22.3347L11.3259 38.892L0.31543 56.4516H4.8814C5.73732 80.6113 25.7195 100 50.1577 100C71.4634 100 89.6302 85.5549 94.3402 64.8742L91.1835 64.1597C86.8117 83.3629 69.9425 96.7742 50.1577 96.7742ZM69.5736 32.2581C71.3582 32.2581 72.8096 33.7049 72.8096 35.4839C72.8096 37.2629 71.3582 38.7097 69.5736 38.7097C67.7889 38.7097 66.3376 37.2629 66.3376 35.4839C66.3376 33.7049 67.7889 32.2581 69.5736 32.2581ZM50.1577 22.5807C51.9423 22.5807 53.3937 24.0274 53.3937 25.8065C53.3937 27.5855 51.9423 29.0323 50.1577 29.0323C48.373 29.0323 46.9217 27.5855 46.9217 25.8065C46.9217 24.0274 48.373 22.5807 50.1577 22.5807ZM30.7418 51.6129C28.9571 51.6129 27.5058 50.1661 27.5058 48.3871C27.5058 46.6081 28.9571 45.1613 30.7418 45.1613C32.5264 45.1613 33.9778 46.6081 33.9778 48.3871C33.9778 50.1661 32.5264 51.6129 30.7418 51.6129ZM66.3376 48.3871H72.8096V77.8C70.8647 79.6968 68.6885 81.3403 66.3376 82.7016V48.3871ZM46.9217 38.7097H53.3937V86.9129C52.3242 87.0226 51.2482 87.0968 50.1577 87.0968C49.0655 87.0968 47.9863 87.0403 46.9217 86.9355V38.7097ZM27.5058 61.2903H33.9778V82.7274C31.6187 81.3613 29.4409 79.7242 27.5058 77.8291V61.2903Z" fill="#3C7CFF"/>
<path d="M17.7979 35.4839C27.611 35.4839 35.5958 27.5242 35.5958 17.7419C35.5958 17.2919 35.5618 16.85 35.5279 16.4081C40.0453 14.121 45.0756 12.9032 50.1578 12.9032C67.4573 12.9032 81.6326 26.5081 82.4788 43.5484H77.9807L88.9896 61.1081L100 43.5484H95.434C94.5781 19.3887 74.5959 0 50.1578 0C43.134 0 36.1654 1.6629 29.9118 4.78065C26.7308 1.82419 22.4788 0 17.7979 0C7.98479 0 0 7.95968 0 17.7419C0 27.5242 7.98479 35.4839 17.7979 35.4839ZM3.33145 16.129C3.64372 13.3339 4.75528 10.7806 6.43152 8.69194L8.64493 10.8984L10.9328 8.61774L8.71936 6.41129C10.8147 4.74032 13.3759 3.63226 16.1799 3.32097V6.45161H19.4159V3.32097C22.2199 3.63226 24.7812 4.74032 26.8765 6.41129L24.6631 8.61774L26.9509 10.8984L29.1643 8.69194C30.8405 10.7806 31.9521 13.3339 32.2644 16.129H29.1239V19.3548H32.2644C31.9521 22.15 30.8405 24.7032 29.1643 26.7919L26.9509 24.5855L24.6631 26.8661L26.8765 29.0726C24.7812 30.7435 22.2199 31.8516 19.4159 32.1629V29.0323H16.1799V32.1629C13.3759 31.8516 10.8147 30.7435 8.71936 29.0726L10.9328 26.8661L8.64493 24.5855L6.43152 26.7919C4.75528 24.7032 3.64372 22.15 3.33145 19.3548H6.47197V16.129H3.33145ZM92.2255 45.1613V46.7742H94.159L88.9896 55.021L83.8201 46.7742H85.7536V45.1613C85.7536 25.5952 69.7856 9.67742 50.1578 9.67742C44.9009 9.67742 39.6877 10.85 34.9519 13.0823C34.371 10.9629 33.4099 9.00484 32.1398 7.27903C37.7413 4.63065 43.9269 3.22581 50.1578 3.22581C73.3549 3.22581 92.2255 22.0371 92.2255 45.1613Z" fill="#3C7CFF"/>
<path d="M16.1797 22.5806H19.4157V17.0741L14.0876 11.7628L11.7998 14.0435L16.1797 18.4096V22.5806Z" fill="#3C7CFF"/>
</svg>
