<svg width="100" height="100" viewBox="0 0 100 100" fill="none" xmlns="http://www.w3.org/2000/svg">
<path d="M95.8503 65.3561L85.2021 49.1979C85.0663 48.9904 84.8898 48.8128 84.6845 48.6749L76.6053 43.2406C76.5454 43.2 76.4834 43.1636 76.4193 43.1305C74.7668 42.2781 71.3262 40.5037 68.5572 43.2749C67.9936 43.8374 67.5733 44.5037 67.2995 45.2332C66.2781 44.6674 65.1508 44.4139 64.0385 44.4759V35.5658C72.9957 34.6267 80 27.0332 80 17.8332C80 8 72.0011 0 62.1668 0C57.784 0 53.7722 1.59572 50.6642 4.22781H13.1626C7.55936 4.22781 3 8.78717 3 14.3904V89.8374C3 95.4406 7.55936 100 13.1626 100H53.8749C59.4781 100 64.0374 95.4406 64.0374 89.8374V83.4599L72.8545 88.5123C73.1455 88.6791 73.4663 88.7594 73.784 88.7594C74.2684 88.7594 74.7476 88.5711 75.108 88.2107L95.6096 67.7091C96.2396 67.0813 96.339 66.0973 95.8503 65.3561ZM52.2438 51.7326L45.3529 44.8417C44.2353 43.7241 42.7647 43.0791 41.2139 43.0257C39.6171 42.9647 38.1262 43.5455 37.0278 44.646C34.7861 46.8877 34.8727 50.6225 37.2235 52.9722L52.3358 68.0845L48.2439 68.2107C44.1668 68.2984 40.9176 71.5209 41.0011 75.3947C41.0845 79.2139 44.3765 82.2631 48.3765 82.2631C48.4332 82.2631 48.4888 82.262 48.5444 82.261L60.2941 82.0096V84.0492H6.74332V19.7048H44.4332C45.3069 28.046 51.9529 34.692 60.2941 35.5658V46.1722C59.6299 46.8695 59.185 47.7166 58.954 48.6406C58.5027 48.5166 58.0417 48.4267 57.5668 48.4107C55.9765 48.3626 54.4791 48.9305 53.3797 50.031C52.8791 50.5315 52.5134 51.1144 52.2438 51.7326ZM62.1668 3.74332C69.9358 3.74332 76.2567 10.0642 76.2567 17.8332C76.2567 25.6021 69.9358 31.923 62.1668 31.923C54.3979 31.923 48.077 25.6021 48.077 17.8332C48.077 10.0642 54.3979 3.74332 62.1668 3.74332ZM13.1626 7.97112H47.3209C45.7636 10.308 44.7401 13.0289 44.4332 15.9615H6.74332V14.3904C6.74332 10.8513 9.62353 7.97112 13.1626 7.97112ZM53.8759 96.2567H13.1626C9.62246 96.2567 6.74332 93.3775 6.74332 89.8374V87.7914H60.2941V89.8374C60.2952 93.3775 57.415 96.2567 53.8759 96.2567ZM73.4749 84.5519L62.8727 78.477C62.5775 78.308 62.2225 78.2267 61.9027 78.2299L48.4663 78.5176C46.4802 78.5487 44.784 77.123 44.7454 75.3123C44.7069 73.5027 46.3134 71.9947 48.3433 71.9508L56.7797 71.6909C57.5262 71.6684 58.1872 71.2032 58.462 70.5102C58.7369 69.8171 58.5733 69.0246 58.0449 68.4973L39.8706 50.3251C38.9968 49.4503 38.907 48.062 39.6749 47.293C40.0332 46.9348 40.5134 46.7455 41.0856 46.7668C41.6866 46.7882 42.262 47.0438 42.707 47.4888L53.57 58.3519C53.5722 58.354 53.5733 58.3561 53.5754 58.3583L53.5786 58.3604L60.8556 65.6374C61.5872 66.369 62.7711 66.369 63.5027 65.6374C64.2342 64.907 64.2342 63.7209 63.5027 62.9904L56.2246 55.7123C55.3497 54.8364 55.2599 53.4481 56.0278 52.6791C56.3882 52.3209 56.9144 52.1401 57.4385 52.1529C58.0396 52.1743 58.615 52.4299 59.0599 52.8749L66.4364 60.2513C66.8021 60.6171 67.2802 60.8 67.7594 60.8C68.2385 60.8 68.7177 60.6171 69.0824 60.2513C69.8139 59.5198 69.8139 58.3348 69.0824 57.6043L63.2246 51.7465L63.2235 51.7455C62.7786 51.2995 62.5219 50.7241 62.5005 50.1241C62.4813 49.5722 62.6684 49.0717 63.0267 48.7134C63.3861 48.3551 63.8963 48.1658 64.4385 48.1872C65.0385 48.2086 65.615 48.4642 66.0599 48.9091L73.1914 56.0406C73.5572 56.4064 74.0353 56.5893 74.5144 56.5893C74.9936 56.5893 75.4727 56.4064 75.8374 56.0406C76.569 55.3102 76.569 54.1241 75.8374 53.3936L71.3989 48.9551C70.954 48.5091 70.6973 47.9337 70.6759 47.3337C70.6567 46.7818 70.8439 46.2813 71.2021 45.923C71.5882 45.5348 72.0289 45.0963 74.6064 46.4096L82.2824 51.5722L91.8845 66.1423L73.4749 84.5519Z" fill="#3C7CFF"/>
<path d="M25.9467 30.9188C25.2151 30.1872 24.0312 30.1872 23.2996 30.9188C22.5681 31.6493 22.5681 32.8343 23.2996 33.5658L28.72 38.9872C29.0857 39.353 29.5638 39.5359 30.043 39.5359C30.5221 39.5359 31.0012 39.353 31.366 38.9872C32.0975 38.2567 32.0975 37.0717 31.366 36.3402L25.9467 30.9188Z" fill="#3C7CFF"/>
<path d="M41.0055 29.4257L35.6654 34.7669C34.9338 35.4985 34.9338 36.6835 35.6654 37.414C36.0311 37.7797 36.5092 37.9626 36.9884 37.9626C37.4675 37.9626 37.9466 37.7797 38.3114 37.414L43.6515 32.0728C44.383 31.3412 44.383 30.1562 43.6515 29.4257C42.921 28.6942 41.737 28.6942 41.0055 29.4257Z" fill="#3C7CFF"/>
<path d="M26.9914 43.4406L21.6502 48.7818C20.9187 49.5123 20.9187 50.6973 21.6502 51.4288C22.016 51.7946 22.4941 51.9775 22.9732 51.9775C23.4524 51.9775 23.9315 51.7946 24.2962 51.4288L29.6374 46.0877C30.3689 45.3572 30.3689 44.1721 29.6374 43.4406C28.9058 42.709 27.7219 42.7101 26.9914 43.4406Z" fill="#3C7CFF"/>
<path d="M37.648 90.5669H29.3902C28.356 90.5669 27.5186 91.4054 27.5186 92.4386C27.5186 93.4717 28.356 94.3102 29.3902 94.3102H37.648C38.6822 94.3102 39.5196 93.4717 39.5196 92.4386C39.5196 91.4054 38.6822 90.5669 37.648 90.5669Z" fill="#3C7CFF"/>
<path d="M14.8472 13.8374H21.2034C22.2376 13.8374 23.0751 12.9989 23.0751 11.9658C23.0751 10.9326 22.2376 10.0941 21.2034 10.0941H14.8472C13.813 10.0941 12.9756 10.9326 12.9756 11.9658C12.9756 12.9989 13.8141 13.8374 14.8472 13.8374Z" fill="#3C7CFF"/>
<path d="M27.1627 13.8374H41.3092C42.3434 13.8374 43.1809 12.9989 43.1809 11.9658C43.1809 10.9326 42.3434 10.0941 41.3092 10.0941H27.1627C26.1284 10.0941 25.291 10.9326 25.291 11.9658C25.291 12.9989 26.1284 13.8374 27.1627 13.8374Z" fill="#3C7CFF"/>
<path d="M55.972 19.6331L61.0329 23.4855C61.3709 23.7433 61.7688 23.8674 62.1655 23.8674C62.7121 23.8674 63.2532 23.6288 63.6212 23.1732L70.3581 14.847C71.0083 14.0438 70.8843 12.8652 70.08 12.2149C69.2768 11.5657 68.0982 11.6887 67.4479 12.493L61.8543 19.4064L58.2383 16.6545C57.4179 16.0289 56.2425 16.1871 55.6158 17.0107C54.9901 17.8321 55.1484 19.0064 55.972 19.6331Z" fill="#3C7CFF"/>
</svg>
