<svg width="98" height="89" viewBox="0 0 98 89" fill="none" xmlns="http://www.w3.org/2000/svg">
<mask id="path-1-outside-1_209_1724" maskUnits="userSpaceOnUse" x="0" y="0" width="98" height="89" fill="black">
<rect fill="white" width="98" height="89"/>
<path d="M9.91537 9.43449C9.91677 9.09625 10.0518 8.77226 10.2909 8.53308C10.5301 8.29391 10.8541 8.15892 11.1923 8.15751H11.2404C11.4179 8.14126 11.5969 8.16219 11.7659 8.21898C11.9348 8.27576 12.0901 8.36715 12.2218 8.48731C12.3535 8.60747 12.4586 8.75377 12.5306 8.91685C12.6025 9.07994 12.6397 9.25624 12.6397 9.43449C12.6397 9.61275 12.6025 9.78905 12.5306 9.95214C12.4586 10.1152 12.3535 10.2615 12.2218 10.3817C12.0901 10.5018 11.9348 10.5932 11.7659 10.65C11.5969 10.7068 11.4179 10.7277 11.2404 10.7115H11.1923C10.8541 10.7101 10.5301 10.5751 10.2909 10.3359C10.0518 10.0967 9.91677 9.77274 9.91537 9.43449ZM17.6745 10.7168H17.7226C18.0411 10.6877 18.3372 10.5405 18.5528 10.3042C18.7684 10.068 18.888 9.75969 18.888 9.43984C18.888 9.11999 18.7684 8.81168 18.5528 8.57543C18.3372 8.33917 18.0411 8.19202 17.7226 8.16286H17.6745C17.497 8.1466 17.318 8.16753 17.1491 8.22432C16.9801 8.2811 16.8248 8.37249 16.6932 8.49265C16.5615 8.61282 16.4563 8.75911 16.3844 8.92219C16.3124 9.08528 16.2752 9.26158 16.2752 9.43984C16.2752 9.61809 16.3124 9.79439 16.3844 9.95748C16.4563 10.1206 16.5615 10.2669 16.6932 10.387C16.8248 10.5072 16.9801 10.5986 17.1491 10.6554C17.318 10.7121 17.497 10.7331 17.6745 10.7168ZM24.1556 10.7168H24.2047C24.3823 10.7331 24.5612 10.7121 24.7302 10.6554C24.8991 10.5986 25.0544 10.5072 25.1861 10.387C25.3178 10.2669 25.4229 10.1206 25.4949 9.95748C25.5668 9.79439 25.604 9.61809 25.604 9.43984C25.604 9.26158 25.5668 9.08528 25.4949 8.92219C25.4229 8.75911 25.3178 8.61282 25.1861 8.49265C25.0544 8.37249 24.8991 8.2811 24.7302 8.22432C24.5612 8.16753 24.3823 8.1466 24.2047 8.16286H24.1567C23.9791 8.1466 23.8002 8.16753 23.6312 8.22432C23.4623 8.2811 23.307 8.37249 23.1753 8.49265C23.0436 8.61282 22.9385 8.75911 22.8665 8.92219C22.7946 9.08528 22.7574 9.26158 22.7574 9.43984C22.7574 9.61809 22.7946 9.79439 22.8665 9.95748C22.9385 10.1206 23.0436 10.2669 23.1753 10.387C23.307 10.5072 23.4623 10.5986 23.6312 10.6554C23.8002 10.7121 23.9781 10.7331 24.1556 10.7168ZM37.0857 10.7168H75.4978C75.8163 10.6877 76.1124 10.5405 76.328 10.3042C76.5436 10.068 76.6631 9.75969 76.6631 9.43984C76.6631 9.11999 76.5436 8.81168 76.328 8.57543C76.1124 8.33917 75.8163 8.19202 75.4978 8.16286H37.0825C36.7438 8.16286 36.419 8.29739 36.1795 8.53688C35.9401 8.77636 35.8055 9.10116 35.8055 9.43984C35.8055 9.77851 35.9401 10.1033 36.1795 10.3428C36.419 10.5823 36.7438 10.7168 37.0825 10.7168H37.0857ZM26.8485 33.3627C26.73 33.244 26.5892 33.1498 26.4343 33.0855C26.2793 33.0213 26.1132 32.9882 25.9455 32.9882C25.7778 32.9882 25.6117 33.0213 25.4567 33.0855C25.3018 33.1498 25.161 33.244 25.0425 33.3627L18.1094 40.2958C17.9906 40.4142 17.8963 40.555 17.832 40.7099C17.7676 40.8649 17.7345 41.031 17.7345 41.1988C17.7345 41.3665 17.7676 41.5327 17.832 41.6876C17.8963 41.8426 17.9906 41.9833 18.1094 42.1017L25.0425 49.0348C25.1566 49.1718 25.2979 49.2835 25.4575 49.3629C25.6172 49.4422 25.7916 49.4873 25.9696 49.4955C26.1477 49.5036 26.3255 49.4745 26.4917 49.4101C26.6579 49.3456 26.8088 49.2472 26.9348 49.1212C27.0609 48.9952 27.1593 48.8442 27.2237 48.678C27.2881 48.5119 27.3172 48.3341 27.3091 48.156C27.301 47.9779 27.2558 47.8035 27.1765 47.6439C27.0972 47.4843 26.9855 47.3429 26.8485 47.2289L20.8194 41.1988L26.8485 35.1686C26.9678 35.0498 27.0624 34.9086 27.1268 34.753C27.1913 34.5975 27.2243 34.4307 27.224 34.2623C27.2237 34.0939 27.1901 33.9273 27.1251 33.772C27.0601 33.6166 26.965 33.4757 26.8453 33.3573L26.8485 33.3627ZM41.6689 33.601C41.4232 33.3951 41.1092 33.2888 40.7889 33.303C40.4686 33.3172 40.1652 33.4509 39.9386 33.6776C39.712 33.9044 39.5785 34.2078 39.5645 34.5281C39.5505 34.8484 39.657 35.1623 39.863 35.408L45.8921 41.4371L39.8598 47.4618C39.7228 47.5759 39.6111 47.7172 39.5318 47.8769C39.4525 48.0365 39.4073 48.2109 39.3992 48.389C39.391 48.567 39.4201 48.7448 39.4846 48.911C39.549 49.0772 39.6474 49.2281 39.7734 49.3542C39.8995 49.4802 40.0504 49.5786 40.2166 49.643C40.3828 49.7075 40.5606 49.7365 40.7386 49.7284C40.9167 49.7203 41.0911 49.6751 41.2507 49.5958C41.4104 49.5165 41.5517 49.4048 41.6657 49.2678L48.5988 42.3358C48.8374 42.0955 48.9712 41.7708 48.9712 41.4322C48.9712 41.0937 48.8374 40.769 48.5988 40.5287L41.6689 33.601ZM36.5696 29.3266C36.2424 29.2402 35.8944 29.2867 35.6014 29.4558C35.3083 29.625 35.094 29.9031 35.0051 30.2295L29.2347 51.7491C29.1735 51.9162 29.1478 52.0943 29.1592 52.2719C29.1706 52.4495 29.2189 52.6228 29.3009 52.7808C29.383 52.9388 29.497 53.0779 29.6357 53.1894C29.7745 53.3009 29.9349 53.3822 30.1069 53.4283C30.2788 53.4744 30.4584 53.4842 30.6343 53.4571C30.8102 53.43 30.9786 53.3665 31.1286 53.2708C31.2787 53.175 31.4071 53.0491 31.5059 52.901C31.6046 52.7529 31.6714 52.5859 31.7021 52.4106L37.4725 30.891C37.5163 30.7283 37.5276 30.5585 37.5058 30.3914C37.484 30.2244 37.4294 30.0632 37.3452 29.9172C37.2611 29.7712 37.149 29.6433 37.0153 29.5406C36.8817 29.438 36.7291 29.3627 36.5664 29.3191L36.5696 29.3266ZM93.0571 64.4633C90.7831 67.1455 90.813 69.1086 90.8568 72.3614C90.8643 72.8348 90.8707 73.3231 90.8707 73.8425C90.8633 74.652 90.6382 75.4446 90.2189 76.1371C89.7996 76.8296 89.2016 77.3964 88.4877 77.7782C88.5692 78.0598 88.6106 78.3516 88.6106 78.6448V80.1879C88.648 80.8942 88.4049 81.5867 87.9342 82.1147C87.4635 82.6426 86.8032 82.9633 86.0972 83.0068H85.938C85.4816 84.4812 84.5651 85.7707 83.3229 86.6866C82.0806 87.6025 80.5777 88.0966 79.0343 88.0966C77.4909 88.0966 75.988 87.6025 74.7458 86.6866C73.5035 85.7707 72.587 84.4812 72.1306 83.0068H71.9714C71.2654 82.9633 70.6051 82.6426 70.1344 82.1147C69.6637 81.5867 69.4206 80.8942 69.458 80.1879V78.6448C69.4567 78.3663 69.4926 78.0888 69.5649 77.8198C68.8313 77.4443 68.2144 76.8751 67.7812 76.174C67.3479 75.4729 67.1148 74.6666 67.1071 73.8425C67.1071 73.3488 67.1135 72.8701 67.1199 72.4052C67.1696 71.2063 67.1339 70.0053 67.013 68.8115H4.57341C3.62613 68.8106 2.71787 68.434 2.04794 67.7643C1.37801 67.0946 1.00113 66.1864 1 65.2392V4.57234C1.00113 3.62506 1.37801 2.71692 2.04794 2.04719C2.71787 1.37746 3.62613 1.00085 4.57341 1H82.1231C83.0702 1.00113 83.9782 1.37787 84.6479 2.04756C85.3176 2.71726 85.6943 3.62525 85.6954 4.57234V38.1084C87.7315 38.794 89.6269 39.8417 91.2907 41.2009C93.1396 42.7387 94.614 44.6775 95.602 46.8701C96.59 49.0627 97.0656 51.4515 96.9927 53.8553C96.9766 57.7455 95.5822 61.504 93.0571 64.4633ZM3.55503 4.57234V15.1611H83.1383V4.57234C83.1377 4.30298 83.0307 4.04476 82.8405 3.85399C82.6503 3.66322 82.3925 3.55537 82.1231 3.55396H4.57341C4.3035 3.55453 4.04479 3.662 3.85393 3.85286C3.66307 4.04373 3.5556 4.30243 3.55503 4.57234ZM66.2693 66.2575C65.9323 65.5741 65.5096 64.9364 65.0115 64.3597C62.4847 61.4015 61.0887 57.6431 61.0716 53.7527C60.9966 51.3637 61.4661 48.989 62.4446 46.8082C63.423 44.6275 64.8848 42.6979 66.7192 41.1656C70.1931 38.4051 74.5181 36.9369 78.9547 37.012C80.3578 37.0109 81.7577 37.148 83.134 37.4212V17.7151H3.55503V65.2392C3.5556 65.5091 3.66307 65.7678 3.85393 65.9586C4.04479 66.1495 4.3035 66.257 4.57341 66.2575H66.2693ZM72.0782 78.3798C72.0336 78.4609 72.0112 78.5523 72.013 78.6448V80.1879C72.0113 80.28 72.0338 80.371 72.0782 80.4518H85.9904C86.0348 80.371 86.0573 80.28 86.0556 80.1879V78.6448C86.0574 78.5523 86.035 78.4609 85.9904 78.3798H72.0782ZM83.274 83.0068H74.7946C75.2053 83.7742 75.8166 84.4157 76.5632 84.863C77.3099 85.3102 78.1639 85.5464 79.0343 85.5464C79.9047 85.5464 80.7587 85.3102 81.5054 84.863C82.252 84.4157 82.8633 83.7742 83.274 83.0068ZM91.1079 62.8102C93.2561 60.3209 94.4379 57.1423 94.4377 53.8542C94.4377 44.037 86.4135 39.5659 78.959 39.5659C75.1173 39.4908 71.3686 40.7516 68.3531 43.1329C66.8131 44.4296 65.5883 46.0595 64.7711 47.8994C63.9539 49.7392 63.5658 51.7408 63.6362 53.7527C63.6359 57.0405 64.8177 60.2188 66.966 62.7076C68.0563 63.946 68.8458 65.4194 69.2731 67.013C69.3366 67.1569 69.3728 67.3112 69.38 67.4683C69.6681 69.1089 69.7689 70.777 69.6803 72.4405C69.6739 72.8946 69.6674 73.3605 69.6674 73.8425C69.6954 74.3941 69.9405 74.9122 70.3491 75.2838C70.7577 75.6554 71.2967 75.8502 71.8485 75.8258H86.1346C86.6873 75.8517 87.2277 75.6575 87.6375 75.2858C88.0473 74.914 88.2931 74.3951 88.321 73.8425C88.321 73.3392 88.3146 72.8594 88.3082 72.3988C88.2537 68.9483 88.2141 66.2244 91.1079 62.8113V62.8102Z"/>
</mask>
<path d="M9.91537 9.43449C9.91677 9.09625 10.0518 8.77226 10.2909 8.53308C10.5301 8.29391 10.8541 8.15892 11.1923 8.15751H11.2404C11.4179 8.14126 11.5969 8.16219 11.7659 8.21898C11.9348 8.27576 12.0901 8.36715 12.2218 8.48731C12.3535 8.60747 12.4586 8.75377 12.5306 8.91685C12.6025 9.07994 12.6397 9.25624 12.6397 9.43449C12.6397 9.61275 12.6025 9.78905 12.5306 9.95214C12.4586 10.1152 12.3535 10.2615 12.2218 10.3817C12.0901 10.5018 11.9348 10.5932 11.7659 10.65C11.5969 10.7068 11.4179 10.7277 11.2404 10.7115H11.1923C10.8541 10.7101 10.5301 10.5751 10.2909 10.3359C10.0518 10.0967 9.91677 9.77274 9.91537 9.43449ZM17.6745 10.7168H17.7226C18.0411 10.6877 18.3372 10.5405 18.5528 10.3042C18.7684 10.068 18.888 9.75969 18.888 9.43984C18.888 9.11999 18.7684 8.81168 18.5528 8.57543C18.3372 8.33917 18.0411 8.19202 17.7226 8.16286H17.6745C17.497 8.1466 17.318 8.16753 17.1491 8.22432C16.9801 8.2811 16.8248 8.37249 16.6932 8.49265C16.5615 8.61282 16.4563 8.75911 16.3844 8.92219C16.3124 9.08528 16.2752 9.26158 16.2752 9.43984C16.2752 9.61809 16.3124 9.79439 16.3844 9.95748C16.4563 10.1206 16.5615 10.2669 16.6932 10.387C16.8248 10.5072 16.9801 10.5986 17.1491 10.6554C17.318 10.7121 17.497 10.7331 17.6745 10.7168ZM24.1556 10.7168H24.2047C24.3823 10.7331 24.5612 10.7121 24.7302 10.6554C24.8991 10.5986 25.0544 10.5072 25.1861 10.387C25.3178 10.2669 25.4229 10.1206 25.4949 9.95748C25.5668 9.79439 25.604 9.61809 25.604 9.43984C25.604 9.26158 25.5668 9.08528 25.4949 8.92219C25.4229 8.75911 25.3178 8.61282 25.1861 8.49265C25.0544 8.37249 24.8991 8.2811 24.7302 8.22432C24.5612 8.16753 24.3823 8.1466 24.2047 8.16286H24.1567C23.9791 8.1466 23.8002 8.16753 23.6312 8.22432C23.4623 8.2811 23.307 8.37249 23.1753 8.49265C23.0436 8.61282 22.9385 8.75911 22.8665 8.92219C22.7946 9.08528 22.7574 9.26158 22.7574 9.43984C22.7574 9.61809 22.7946 9.79439 22.8665 9.95748C22.9385 10.1206 23.0436 10.2669 23.1753 10.387C23.307 10.5072 23.4623 10.5986 23.6312 10.6554C23.8002 10.7121 23.9781 10.7331 24.1556 10.7168ZM37.0857 10.7168H75.4978C75.8163 10.6877 76.1124 10.5405 76.328 10.3042C76.5436 10.068 76.6631 9.75969 76.6631 9.43984C76.6631 9.11999 76.5436 8.81168 76.328 8.57543C76.1124 8.33917 75.8163 8.19202 75.4978 8.16286H37.0825C36.7438 8.16286 36.419 8.29739 36.1795 8.53688C35.9401 8.77636 35.8055 9.10116 35.8055 9.43984C35.8055 9.77851 35.9401 10.1033 36.1795 10.3428C36.419 10.5823 36.7438 10.7168 37.0825 10.7168H37.0857ZM26.8485 33.3627C26.73 33.244 26.5892 33.1498 26.4343 33.0855C26.2793 33.0213 26.1132 32.9882 25.9455 32.9882C25.7778 32.9882 25.6117 33.0213 25.4567 33.0855C25.3018 33.1498 25.161 33.244 25.0425 33.3627L18.1094 40.2958C17.9906 40.4142 17.8963 40.555 17.832 40.7099C17.7676 40.8649 17.7345 41.031 17.7345 41.1988C17.7345 41.3665 17.7676 41.5327 17.832 41.6876C17.8963 41.8426 17.9906 41.9833 18.1094 42.1017L25.0425 49.0348C25.1566 49.1718 25.2979 49.2835 25.4575 49.3629C25.6172 49.4422 25.7916 49.4873 25.9696 49.4955C26.1477 49.5036 26.3255 49.4745 26.4917 49.4101C26.6579 49.3456 26.8088 49.2472 26.9348 49.1212C27.0609 48.9952 27.1593 48.8442 27.2237 48.678C27.2881 48.5119 27.3172 48.3341 27.3091 48.156C27.301 47.9779 27.2558 47.8035 27.1765 47.6439C27.0972 47.4843 26.9855 47.3429 26.8485 47.2289L20.8194 41.1988L26.8485 35.1686C26.9678 35.0498 27.0624 34.9086 27.1268 34.753C27.1913 34.5975 27.2243 34.4307 27.224 34.2623C27.2237 34.0939 27.1901 33.9273 27.1251 33.772C27.0601 33.6166 26.965 33.4757 26.8453 33.3573L26.8485 33.3627ZM41.6689 33.601C41.4232 33.3951 41.1092 33.2888 40.7889 33.303C40.4686 33.3172 40.1652 33.4509 39.9386 33.6776C39.712 33.9044 39.5785 34.2078 39.5645 34.5281C39.5505 34.8484 39.657 35.1623 39.863 35.408L45.8921 41.4371L39.8598 47.4618C39.7228 47.5759 39.6111 47.7172 39.5318 47.8769C39.4525 48.0365 39.4073 48.2109 39.3992 48.389C39.391 48.567 39.4201 48.7448 39.4846 48.911C39.549 49.0772 39.6474 49.2281 39.7734 49.3542C39.8995 49.4802 40.0504 49.5786 40.2166 49.643C40.3828 49.7075 40.5606 49.7365 40.7386 49.7284C40.9167 49.7203 41.0911 49.6751 41.2507 49.5958C41.4104 49.5165 41.5517 49.4048 41.6657 49.2678L48.5988 42.3358C48.8374 42.0955 48.9712 41.7708 48.9712 41.4322C48.9712 41.0937 48.8374 40.769 48.5988 40.5287L41.6689 33.601ZM36.5696 29.3266C36.2424 29.2402 35.8944 29.2867 35.6014 29.4558C35.3083 29.625 35.094 29.9031 35.0051 30.2295L29.2347 51.7491C29.1735 51.9162 29.1478 52.0943 29.1592 52.2719C29.1706 52.4495 29.2189 52.6228 29.3009 52.7808C29.383 52.9388 29.497 53.0779 29.6357 53.1894C29.7745 53.3009 29.9349 53.3822 30.1069 53.4283C30.2788 53.4744 30.4584 53.4842 30.6343 53.4571C30.8102 53.43 30.9786 53.3665 31.1286 53.2708C31.2787 53.175 31.4071 53.0491 31.5059 52.901C31.6046 52.7529 31.6714 52.5859 31.7021 52.4106L37.4725 30.891C37.5163 30.7283 37.5276 30.5585 37.5058 30.3914C37.484 30.2244 37.4294 30.0632 37.3452 29.9172C37.2611 29.7712 37.149 29.6433 37.0153 29.5406C36.8817 29.438 36.7291 29.3627 36.5664 29.3191L36.5696 29.3266ZM93.0571 64.4633C90.7831 67.1455 90.813 69.1086 90.8568 72.3614C90.8643 72.8348 90.8707 73.3231 90.8707 73.8425C90.8633 74.652 90.6382 75.4446 90.2189 76.1371C89.7996 76.8296 89.2016 77.3964 88.4877 77.7782C88.5692 78.0598 88.6106 78.3516 88.6106 78.6448V80.1879C88.648 80.8942 88.4049 81.5867 87.9342 82.1147C87.4635 82.6426 86.8032 82.9633 86.0972 83.0068H85.938C85.4816 84.4812 84.5651 85.7707 83.3229 86.6866C82.0806 87.6025 80.5777 88.0966 79.0343 88.0966C77.4909 88.0966 75.988 87.6025 74.7458 86.6866C73.5035 85.7707 72.587 84.4812 72.1306 83.0068H71.9714C71.2654 82.9633 70.6051 82.6426 70.1344 82.1147C69.6637 81.5867 69.4206 80.8942 69.458 80.1879V78.6448C69.4567 78.3663 69.4926 78.0888 69.5649 77.8198C68.8313 77.4443 68.2144 76.8751 67.7812 76.174C67.3479 75.4729 67.1148 74.6666 67.1071 73.8425C67.1071 73.3488 67.1135 72.8701 67.1199 72.4052C67.1696 71.2063 67.1339 70.0053 67.013 68.8115H4.57341C3.62613 68.8106 2.71787 68.434 2.04794 67.7643C1.37801 67.0946 1.00113 66.1864 1 65.2392V4.57234C1.00113 3.62506 1.37801 2.71692 2.04794 2.04719C2.71787 1.37746 3.62613 1.00085 4.57341 1H82.1231C83.0702 1.00113 83.9782 1.37787 84.6479 2.04756C85.3176 2.71726 85.6943 3.62525 85.6954 4.57234V38.1084C87.7315 38.794 89.6269 39.8417 91.2907 41.2009C93.1396 42.7387 94.614 44.6775 95.602 46.8701C96.59 49.0627 97.0656 51.4515 96.9927 53.8553C96.9766 57.7455 95.5822 61.504 93.0571 64.4633ZM3.55503 4.57234V15.1611H83.1383V4.57234C83.1377 4.30298 83.0307 4.04476 82.8405 3.85399C82.6503 3.66322 82.3925 3.55537 82.1231 3.55396H4.57341C4.3035 3.55453 4.04479 3.662 3.85393 3.85286C3.66307 4.04373 3.5556 4.30243 3.55503 4.57234ZM66.2693 66.2575C65.9323 65.5741 65.5096 64.9364 65.0115 64.3597C62.4847 61.4015 61.0887 57.6431 61.0716 53.7527C60.9966 51.3637 61.4661 48.989 62.4446 46.8082C63.423 44.6275 64.8848 42.6979 66.7192 41.1656C70.1931 38.4051 74.5181 36.9369 78.9547 37.012C80.3578 37.0109 81.7577 37.148 83.134 37.4212V17.7151H3.55503V65.2392C3.5556 65.5091 3.66307 65.7678 3.85393 65.9586C4.04479 66.1495 4.3035 66.257 4.57341 66.2575H66.2693ZM72.0782 78.3798C72.0336 78.4609 72.0112 78.5523 72.013 78.6448V80.1879C72.0113 80.28 72.0338 80.371 72.0782 80.4518H85.9904C86.0348 80.371 86.0573 80.28 86.0556 80.1879V78.6448C86.0574 78.5523 86.035 78.4609 85.9904 78.3798H72.0782ZM83.274 83.0068H74.7946C75.2053 83.7742 75.8166 84.4157 76.5632 84.863C77.3099 85.3102 78.1639 85.5464 79.0343 85.5464C79.9047 85.5464 80.7587 85.3102 81.5054 84.863C82.252 84.4157 82.8633 83.7742 83.274 83.0068ZM91.1079 62.8102C93.2561 60.3209 94.4379 57.1423 94.4377 53.8542C94.4377 44.037 86.4135 39.5659 78.959 39.5659C75.1173 39.4908 71.3686 40.7516 68.3531 43.1329C66.8131 44.4296 65.5883 46.0595 64.7711 47.8994C63.9539 49.7392 63.5658 51.7408 63.6362 53.7527C63.6359 57.0405 64.8177 60.2188 66.966 62.7076C68.0563 63.946 68.8458 65.4194 69.2731 67.013C69.3366 67.1569 69.3728 67.3112 69.38 67.4683C69.6681 69.1089 69.7689 70.777 69.6803 72.4405C69.6739 72.8946 69.6674 73.3605 69.6674 73.8425C69.6954 74.3941 69.9405 74.9122 70.3491 75.2838C70.7577 75.6554 71.2967 75.8502 71.8485 75.8258H86.1346C86.6873 75.8517 87.2277 75.6575 87.6375 75.2858C88.0473 74.914 88.2931 74.3951 88.321 73.8425C88.321 73.3392 88.3146 72.8594 88.3082 72.3988C88.2537 68.9483 88.2141 66.2244 91.1079 62.8113V62.8102Z" fill="#3C7CFF"/>
<path d="M9.91537 9.43449C9.91677 9.09625 10.0518 8.77226 10.2909 8.53308C10.5301 8.29391 10.8541 8.15892 11.1923 8.15751H11.2404C11.4179 8.14126 11.5969 8.16219 11.7659 8.21898C11.9348 8.27576 12.0901 8.36715 12.2218 8.48731C12.3535 8.60747 12.4586 8.75377 12.5306 8.91685C12.6025 9.07994 12.6397 9.25624 12.6397 9.43449C12.6397 9.61275 12.6025 9.78905 12.5306 9.95214C12.4586 10.1152 12.3535 10.2615 12.2218 10.3817C12.0901 10.5018 11.9348 10.5932 11.7659 10.65C11.5969 10.7068 11.4179 10.7277 11.2404 10.7115H11.1923C10.8541 10.7101 10.5301 10.5751 10.2909 10.3359C10.0518 10.0967 9.91677 9.77274 9.91537 9.43449ZM17.6745 10.7168H17.7226C18.0411 10.6877 18.3372 10.5405 18.5528 10.3042C18.7684 10.068 18.888 9.75969 18.888 9.43984C18.888 9.11999 18.7684 8.81168 18.5528 8.57543C18.3372 8.33917 18.0411 8.19202 17.7226 8.16286H17.6745C17.497 8.1466 17.318 8.16753 17.1491 8.22432C16.9801 8.2811 16.8248 8.37249 16.6932 8.49265C16.5615 8.61282 16.4563 8.75911 16.3844 8.92219C16.3124 9.08528 16.2752 9.26158 16.2752 9.43984C16.2752 9.61809 16.3124 9.79439 16.3844 9.95748C16.4563 10.1206 16.5615 10.2669 16.6932 10.387C16.8248 10.5072 16.9801 10.5986 17.1491 10.6554C17.318 10.7121 17.497 10.7331 17.6745 10.7168ZM24.1556 10.7168H24.2047C24.3823 10.7331 24.5612 10.7121 24.7302 10.6554C24.8991 10.5986 25.0544 10.5072 25.1861 10.387C25.3178 10.2669 25.4229 10.1206 25.4949 9.95748C25.5668 9.79439 25.604 9.61809 25.604 9.43984C25.604 9.26158 25.5668 9.08528 25.4949 8.92219C25.4229 8.75911 25.3178 8.61282 25.1861 8.49265C25.0544 8.37249 24.8991 8.2811 24.7302 8.22432C24.5612 8.16753 24.3823 8.1466 24.2047 8.16286H24.1567C23.9791 8.1466 23.8002 8.16753 23.6312 8.22432C23.4623 8.2811 23.307 8.37249 23.1753 8.49265C23.0436 8.61282 22.9385 8.75911 22.8665 8.92219C22.7946 9.08528 22.7574 9.26158 22.7574 9.43984C22.7574 9.61809 22.7946 9.79439 22.8665 9.95748C22.9385 10.1206 23.0436 10.2669 23.1753 10.387C23.307 10.5072 23.4623 10.5986 23.6312 10.6554C23.8002 10.7121 23.9781 10.7331 24.1556 10.7168ZM37.0857 10.7168H75.4978C75.8163 10.6877 76.1124 10.5405 76.328 10.3042C76.5436 10.068 76.6631 9.75969 76.6631 9.43984C76.6631 9.11999 76.5436 8.81168 76.328 8.57543C76.1124 8.33917 75.8163 8.19202 75.4978 8.16286H37.0825C36.7438 8.16286 36.419 8.29739 36.1795 8.53688C35.9401 8.77636 35.8055 9.10116 35.8055 9.43984C35.8055 9.77851 35.9401 10.1033 36.1795 10.3428C36.419 10.5823 36.7438 10.7168 37.0825 10.7168H37.0857ZM26.8485 33.3627C26.73 33.244 26.5892 33.1498 26.4343 33.0855C26.2793 33.0213 26.1132 32.9882 25.9455 32.9882C25.7778 32.9882 25.6117 33.0213 25.4567 33.0855C25.3018 33.1498 25.161 33.244 25.0425 33.3627L18.1094 40.2958C17.9906 40.4142 17.8963 40.555 17.832 40.7099C17.7676 40.8649 17.7345 41.031 17.7345 41.1988C17.7345 41.3665 17.7676 41.5327 17.832 41.6876C17.8963 41.8426 17.9906 41.9833 18.1094 42.1017L25.0425 49.0348C25.1566 49.1718 25.2979 49.2835 25.4575 49.3629C25.6172 49.4422 25.7916 49.4873 25.9696 49.4955C26.1477 49.5036 26.3255 49.4745 26.4917 49.4101C26.6579 49.3456 26.8088 49.2472 26.9348 49.1212C27.0609 48.9952 27.1593 48.8442 27.2237 48.678C27.2881 48.5119 27.3172 48.3341 27.3091 48.156C27.301 47.9779 27.2558 47.8035 27.1765 47.6439C27.0972 47.4843 26.9855 47.3429 26.8485 47.2289L20.8194 41.1988L26.8485 35.1686C26.9678 35.0498 27.0624 34.9086 27.1268 34.753C27.1913 34.5975 27.2243 34.4307 27.224 34.2623C27.2237 34.0939 27.1901 33.9273 27.1251 33.772C27.0601 33.6166 26.965 33.4757 26.8453 33.3573L26.8485 33.3627ZM41.6689 33.601C41.4232 33.3951 41.1092 33.2888 40.7889 33.303C40.4686 33.3172 40.1652 33.4509 39.9386 33.6776C39.712 33.9044 39.5785 34.2078 39.5645 34.5281C39.5505 34.8484 39.657 35.1623 39.863 35.408L45.8921 41.4371L39.8598 47.4618C39.7228 47.5759 39.6111 47.7172 39.5318 47.8769C39.4525 48.0365 39.4073 48.2109 39.3992 48.389C39.391 48.567 39.4201 48.7448 39.4846 48.911C39.549 49.0772 39.6474 49.2281 39.7734 49.3542C39.8995 49.4802 40.0504 49.5786 40.2166 49.643C40.3828 49.7075 40.5606 49.7365 40.7386 49.7284C40.9167 49.7203 41.0911 49.6751 41.2507 49.5958C41.4104 49.5165 41.5517 49.4048 41.6657 49.2678L48.5988 42.3358C48.8374 42.0955 48.9712 41.7708 48.9712 41.4322C48.9712 41.0937 48.8374 40.769 48.5988 40.5287L41.6689 33.601ZM36.5696 29.3266C36.2424 29.2402 35.8944 29.2867 35.6014 29.4558C35.3083 29.625 35.094 29.9031 35.0051 30.2295L29.2347 51.7491C29.1735 51.9162 29.1478 52.0943 29.1592 52.2719C29.1706 52.4495 29.2189 52.6228 29.3009 52.7808C29.383 52.9388 29.497 53.0779 29.6357 53.1894C29.7745 53.3009 29.9349 53.3822 30.1069 53.4283C30.2788 53.4744 30.4584 53.4842 30.6343 53.4571C30.8102 53.43 30.9786 53.3665 31.1286 53.2708C31.2787 53.175 31.4071 53.0491 31.5059 52.901C31.6046 52.7529 31.6714 52.5859 31.7021 52.4106L37.4725 30.891C37.5163 30.7283 37.5276 30.5585 37.5058 30.3914C37.484 30.2244 37.4294 30.0632 37.3452 29.9172C37.2611 29.7712 37.149 29.6433 37.0153 29.5406C36.8817 29.438 36.7291 29.3627 36.5664 29.3191L36.5696 29.3266ZM93.0571 64.4633C90.7831 67.1455 90.813 69.1086 90.8568 72.3614C90.8643 72.8348 90.8707 73.3231 90.8707 73.8425C90.8633 74.652 90.6382 75.4446 90.2189 76.1371C89.7996 76.8296 89.2016 77.3964 88.4877 77.7782C88.5692 78.0598 88.6106 78.3516 88.6106 78.6448V80.1879C88.648 80.8942 88.4049 81.5867 87.9342 82.1147C87.4635 82.6426 86.8032 82.9633 86.0972 83.0068H85.938C85.4816 84.4812 84.5651 85.7707 83.3229 86.6866C82.0806 87.6025 80.5777 88.0966 79.0343 88.0966C77.4909 88.0966 75.988 87.6025 74.7458 86.6866C73.5035 85.7707 72.587 84.4812 72.1306 83.0068H71.9714C71.2654 82.9633 70.6051 82.6426 70.1344 82.1147C69.6637 81.5867 69.4206 80.8942 69.458 80.1879V78.6448C69.4567 78.3663 69.4926 78.0888 69.5649 77.8198C68.8313 77.4443 68.2144 76.8751 67.7812 76.174C67.3479 75.4729 67.1148 74.6666 67.1071 73.8425C67.1071 73.3488 67.1135 72.8701 67.1199 72.4052C67.1696 71.2063 67.1339 70.0053 67.013 68.8115H4.57341C3.62613 68.8106 2.71787 68.434 2.04794 67.7643C1.37801 67.0946 1.00113 66.1864 1 65.2392V4.57234C1.00113 3.62506 1.37801 2.71692 2.04794 2.04719C2.71787 1.37746 3.62613 1.00085 4.57341 1H82.1231C83.0702 1.00113 83.9782 1.37787 84.6479 2.04756C85.3176 2.71726 85.6943 3.62525 85.6954 4.57234V38.1084C87.7315 38.794 89.6269 39.8417 91.2907 41.2009C93.1396 42.7387 94.614 44.6775 95.602 46.8701C96.59 49.0627 97.0656 51.4515 96.9927 53.8553C96.9766 57.7455 95.5822 61.504 93.0571 64.4633ZM3.55503 4.57234V15.1611H83.1383V4.57234C83.1377 4.30298 83.0307 4.04476 82.8405 3.85399C82.6503 3.66322 82.3925 3.55537 82.1231 3.55396H4.57341C4.3035 3.55453 4.04479 3.662 3.85393 3.85286C3.66307 4.04373 3.5556 4.30243 3.55503 4.57234ZM66.2693 66.2575C65.9323 65.5741 65.5096 64.9364 65.0115 64.3597C62.4847 61.4015 61.0887 57.6431 61.0716 53.7527C60.9966 51.3637 61.4661 48.989 62.4446 46.8082C63.423 44.6275 64.8848 42.6979 66.7192 41.1656C70.1931 38.4051 74.5181 36.9369 78.9547 37.012C80.3578 37.0109 81.7577 37.148 83.134 37.4212V17.7151H3.55503V65.2392C3.5556 65.5091 3.66307 65.7678 3.85393 65.9586C4.04479 66.1495 4.3035 66.257 4.57341 66.2575H66.2693ZM72.0782 78.3798C72.0336 78.4609 72.0112 78.5523 72.013 78.6448V80.1879C72.0113 80.28 72.0338 80.371 72.0782 80.4518H85.9904C86.0348 80.371 86.0573 80.28 86.0556 80.1879V78.6448C86.0574 78.5523 86.035 78.4609 85.9904 78.3798H72.0782ZM83.274 83.0068H74.7946C75.2053 83.7742 75.8166 84.4157 76.5632 84.863C77.3099 85.3102 78.1639 85.5464 79.0343 85.5464C79.9047 85.5464 80.7587 85.3102 81.5054 84.863C82.252 84.4157 82.8633 83.7742 83.274 83.0068ZM91.1079 62.8102C93.2561 60.3209 94.4379 57.1423 94.4377 53.8542C94.4377 44.037 86.4135 39.5659 78.959 39.5659C75.1173 39.4908 71.3686 40.7516 68.3531 43.1329C66.8131 44.4296 65.5883 46.0595 64.7711 47.8994C63.9539 49.7392 63.5658 51.7408 63.6362 53.7527C63.6359 57.0405 64.8177 60.2188 66.966 62.7076C68.0563 63.946 68.8458 65.4194 69.2731 67.013C69.3366 67.1569 69.3728 67.3112 69.38 67.4683C69.6681 69.1089 69.7689 70.777 69.6803 72.4405C69.6739 72.8946 69.6674 73.3605 69.6674 73.8425C69.6954 74.3941 69.9405 74.9122 70.3491 75.2838C70.7577 75.6554 71.2967 75.8502 71.8485 75.8258H86.1346C86.6873 75.8517 87.2277 75.6575 87.6375 75.2858C88.0473 74.914 88.2931 74.3951 88.321 73.8425C88.321 73.3392 88.3146 72.8594 88.3082 72.3988C88.2537 68.9483 88.2141 66.2244 91.1079 62.8113V62.8102Z" stroke="#3C7CFF" stroke-width="1.4" mask="url(#path-1-outside-1_209_1724)"/>
</svg>
