<svg width="88" height="96" viewBox="0 0 88 96" fill="none" xmlns="http://www.w3.org/2000/svg">
<path d="M69.8355 13.015H11.8555C9.17475 13.015 6.9953 15.1944 6.9953 17.8752V64.0754C3.21212 67.291 0.8 72.0812 0.8 77.4262C0.8 87.0915 8.663 94.9502 18.328 94.9502H69.836C72.5167 94.9502 74.6962 92.7709 74.6962 90.09V17.875C74.6962 15.1943 72.5163 13.015 69.8355 13.015ZM4.3245 77.426C4.3245 69.7045 10.6061 63.423 18.3275 63.423C26.0451 63.423 32.3265 69.7046 32.3265 77.426C32.3265 85.1437 26.0449 91.425 18.3275 91.425C10.6059 91.425 4.3245 85.1435 4.3245 77.426ZM71.1705 90.09C71.1705 90.8272 70.5725 91.4252 69.8353 91.4252H28.8388C33.0907 88.227 35.852 83.1437 35.852 77.4262C35.852 67.7611 27.9891 59.8982 18.328 59.8982C15.5208 59.8982 12.8737 60.5684 10.5202 61.7476V17.8758C10.5202 17.1386 11.1182 16.5406 11.8554 16.5406H69.8354C70.5726 16.5406 71.1706 17.1386 71.1706 17.8758L71.1705 90.09Z" fill="#3C7CFF" stroke="#3C7CFF" stroke-width="0.4"/>
<path d="M82.0506 0.8H24.0706C21.3898 0.8 19.2104 2.97934 19.2104 5.6602V8.5235C19.2104 9.49724 19.9992 10.286 20.9729 10.286C21.9466 10.286 22.7354 9.49724 22.7354 8.5235V5.6602C22.7354 4.92299 23.3334 4.325 24.0706 4.325H82.0506C82.7878 4.325 83.3858 4.92296 83.3858 5.6602V77.8752C83.3858 78.6124 82.7878 79.2104 82.0506 79.2104H79.1873C78.2136 79.2104 77.4248 79.9992 77.4248 80.9729C77.4248 81.9466 78.2136 82.7354 79.1873 82.7354H82.0506C84.7313 82.7354 86.9108 80.5561 86.9108 77.8752V5.6602C86.9108 2.97945 84.7315 0.8 82.0506 0.8Z" fill="#3C7CFF" stroke="#3C7CFF" stroke-width="0.4"/>
<path d="M61.9495 28.2449H20.9695C19.9957 28.2449 19.207 29.0337 19.207 30.0074C19.207 30.9812 19.9957 31.7699 20.9695 31.7699H61.9495C62.9232 31.7699 63.712 30.9812 63.712 30.0074C63.712 29.0337 62.9232 28.2449 61.9495 28.2449Z" fill="#3C7CFF" stroke="#3C7CFF" stroke-width="0.4"/>
<path d="M20.9685 43.759H52.4915C53.4652 43.759 54.254 42.9702 54.254 41.9965C54.254 41.0227 53.4652 40.234 52.4915 40.234H20.9685C19.9948 40.234 19.206 41.0227 19.206 41.9965C19.206 42.9702 19.9948 43.759 20.9685 43.759Z" fill="#3C7CFF" stroke="#3C7CFF" stroke-width="0.4"/>
<path d="M54.2545 53.98C54.2545 53.0062 53.4657 52.2175 52.492 52.2175H20.969C19.9953 52.2175 19.2065 53.0062 19.2065 53.98C19.2065 54.9537 19.9953 55.7425 20.969 55.7425H52.492C53.4657 55.7425 54.2545 54.9537 54.2545 53.98Z" fill="#3C7CFF" stroke="#3C7CFF" stroke-width="0.4"/>
<path d="M61.9496 64.206H43.0396C42.0658 64.206 41.2771 64.9948 41.2771 65.9685C41.2771 66.9422 42.0658 67.731 43.0396 67.731H61.9496C62.9233 67.731 63.7121 66.9422 63.7121 65.9685C63.7121 64.9948 62.9233 64.206 61.9496 64.206Z" fill="#3C7CFF" stroke="#3C7CFF" stroke-width="0.4"/>
<path d="M61.9496 76.191H43.0396C42.0658 76.191 41.2771 76.9798 41.2771 77.9535C41.2771 78.9272 42.0658 79.716 43.0396 79.716H61.9496C62.9233 79.716 63.7121 78.9272 63.7121 77.9535C63.7121 76.9798 62.9233 76.191 61.9496 76.191Z" fill="#3C7CFF" stroke="#3C7CFF" stroke-width="0.4"/>
<path d="M23.9801 72.0535L16.9731 79.0566L12.6731 74.7566C11.9854 74.0689 10.8708 74.0695 10.1798 74.7562L10.1794 74.7566C9.49165 75.4443 9.49229 76.559 10.1789 77.2499L10.1794 77.2504L15.7263 82.7973C16.07 83.141 16.52 83.3129 16.9732 83.3129C17.4222 83.3129 17.8762 83.1412 18.2201 82.7973L18.2201 82.7973L26.4701 74.5473C27.0535 73.9639 27.1416 73.0735 26.7358 72.3949H26.8152L26.4738 72.0535C25.7861 71.3658 24.6715 71.3664 23.9805 72.0531L23.9801 72.0535Z" fill="#3C7CFF" stroke="#3C7CFF" stroke-width="0.4"/>
</svg>
