<svg width="100" height="86" viewBox="0 0 100 86" fill="none" xmlns="http://www.w3.org/2000/svg">
<path d="M94.6429 0H5.35714C3.93634 0 2.57373 0.564412 1.56907 1.56907C0.564412 2.57373 0 3.93634 0 5.35714V80.3571C0 81.7779 0.564412 83.1405 1.56907 84.1452C2.57373 85.1499 3.93634 85.7143 5.35714 85.7143H94.6429C96.0637 85.7143 97.4263 85.1499 98.4309 84.1452C99.4356 83.1405 100 81.7779 100 80.3571V5.35714C100 3.93634 99.4356 2.57373 98.4309 1.56907C97.4263 0.564412 96.0637 0 94.6429 0ZM5.35714 3.57143H94.6429C95.1165 3.57143 95.5707 3.75957 95.9055 4.09445C96.2404 4.42934 96.4286 4.88354 96.4286 5.35714V14.2857H3.57143V5.35714C3.57143 4.88354 3.75957 4.42934 4.09445 4.09445C4.42934 3.75957 4.88354 3.57143 5.35714 3.57143ZM94.6429 82.1429H5.35714C4.88354 82.1429 4.42934 81.9547 4.09445 81.6198C3.75957 81.285 3.57143 80.8307 3.57143 80.3571V17.8571H96.4286V80.3571C96.4286 80.8307 96.2404 81.285 95.9055 81.6198C95.5707 81.9547 95.1165 82.1429 94.6429 82.1429Z" fill="#3C7CFF"/>
<path d="M91.0714 10.7143C92.0576 10.7143 92.8571 9.91476 92.8571 8.92854C92.8571 7.94231 92.0576 7.14282 91.0714 7.14282C90.0851 7.14282 89.2856 7.94231 89.2856 8.92854C89.2856 9.91476 90.0851 10.7143 91.0714 10.7143Z" fill="#3C7CFF"/>
<path d="M83.9285 10.7143C84.9148 10.7143 85.7143 9.91476 85.7143 8.92854C85.7143 7.94231 84.9148 7.14282 83.9285 7.14282C82.9423 7.14282 82.1428 7.94231 82.1428 8.92854C82.1428 9.91476 82.9423 10.7143 83.9285 10.7143Z" fill="#3C7CFF"/>
<path d="M76.7857 10.7143C77.7719 10.7143 78.5714 9.91476 78.5714 8.92854C78.5714 7.94231 77.7719 7.14282 76.7857 7.14282C75.7995 7.14282 75 7.94231 75 8.92854C75 9.91476 75.7995 10.7143 76.7857 10.7143Z" fill="#3C7CFF"/>
<path d="M85.7143 64.2857H83.9286C83.5089 55.9698 80.03 48.1025 74.1607 42.1964C74.1607 42.1964 74.1607 42.1071 74.1607 42.0714H74.0357C67.6825 35.7793 59.1024 32.2495 50.1607 32.2495C41.2191 32.2495 32.6389 35.7793 26.2857 42.0714H26.1607C26.1607 42.0714 26.1607 42.1607 26.1607 42.1964C20.2062 48.0665 16.6427 55.9381 16.1607 64.2857H14.2857C13.8121 64.2857 13.3579 64.4738 13.023 64.8087C12.6881 65.1436 12.5 65.5978 12.5 66.0714C12.5 66.545 12.6881 66.9992 13.023 67.3341C13.3579 67.669 13.8121 67.8571 14.2857 67.8571H43.1071C43.5184 69.3703 44.4161 70.7061 45.6618 71.6584C46.9075 72.6108 48.432 73.1268 50 73.1268C51.568 73.1268 53.0925 72.6108 54.3382 71.6584C55.5839 70.7061 56.4816 69.3703 56.8929 67.8571H85.7143C86.1879 67.8571 86.6421 67.669 86.977 67.3341C87.3119 66.9992 87.5 66.545 87.5 66.0714C87.5 65.5978 87.3119 65.1436 86.977 64.8087C86.6421 64.4738 86.1879 64.2857 85.7143 64.2857ZM54.4821 60.5535L59.3036 55.7321C59.4701 55.5656 59.6021 55.368 59.6922 55.1504C59.7824 54.9329 59.8287 54.6997 59.8287 54.4643C59.8287 54.2288 59.7824 53.9956 59.6922 53.7781C59.6021 53.5606 59.4701 53.3629 59.3036 53.1964C59.1371 53.0299 58.9394 52.8978 58.7219 52.8077C58.5043 52.7176 58.2712 52.6712 58.0357 52.6712C57.8003 52.6712 57.5671 52.7176 57.3496 52.8077C57.132 52.8978 56.9344 53.0299 56.7679 53.1964L50.9464 59.0178C50.633 58.9695 50.317 58.9397 50 58.9285C48.4204 58.9337 46.8871 59.4622 45.6399 60.4316C44.3927 61.4009 43.502 62.7563 43.1071 64.2857H28.6607C29.0119 58.8531 31.4176 53.7579 35.3893 50.0347C39.3609 46.3116 44.6007 44.2396 50.0446 44.2396C55.4885 44.2396 60.7284 46.3116 64.7 50.0347C68.6716 53.7579 71.0774 58.8531 71.4286 64.2857H56.8929C56.5065 62.817 55.662 61.5097 54.4821 60.5535ZM66.3571 47.1964C62.2868 43.6516 57.1705 41.5323 51.7857 41.1607V35.8035C58.5812 36.201 65.0434 38.8815 70.125 43.4107L66.3571 47.1964ZM48.2143 41.1607C42.8295 41.5323 37.7132 43.6516 33.6429 47.1964L29.875 43.4107C34.9566 38.8815 41.4188 36.201 48.2143 35.8035V41.1607ZM68.875 49.7143L72.6607 45.9464C77.2223 51.0157 79.9348 57.4792 80.3571 64.2857H75C74.6033 58.8903 72.4522 53.7728 68.875 49.7143ZM27.3393 45.9464L31.125 49.7143C27.5802 53.7846 25.4609 58.9009 25.0893 64.2857H19.7321C20.1296 57.4902 22.8101 51.028 27.3393 45.9464ZM50 69.6428C49.2936 69.6428 48.6031 69.4334 48.0158 69.0409C47.4285 68.6485 46.9707 68.0907 46.7004 67.4381C46.4301 66.7855 46.3594 66.0674 46.4972 65.3746C46.635 64.6819 46.9751 64.0455 47.4746 63.546C47.9741 63.0465 48.6105 62.7064 49.3032 62.5686C49.996 62.4308 50.7141 62.5015 51.3667 62.7718C52.0193 63.0421 52.5771 63.4999 52.9695 64.0872C53.362 64.6745 53.5714 65.365 53.5714 66.0714C53.5714 67.0186 53.1952 67.927 52.5254 68.5968C51.8556 69.2666 50.9472 69.6428 50 69.6428Z" fill="#3C7CFF"/>
</svg>
