<svg width="102" height="73" viewBox="0 0 102 73" fill="none" xmlns="http://www.w3.org/2000/svg">
<mask id="path-1-outside-1_166_165" maskUnits="userSpaceOnUse" x="0" y="-0.472412" width="102" height="74" fill="black">
<rect fill="white" y="-0.472412" width="102" height="74"/>
<path fill-rule="evenodd" clip-rule="evenodd" d="M37.7772 37.929C37.5044 37.6555 37.1452 37.4851 36.7609 37.4468C36.3765 37.4086 35.9908 37.5048 35.6694 37.7191C35.3481 37.9334 35.111 38.2525 34.9986 38.622C34.8862 38.9916 34.9055 39.3887 35.0531 39.7456C35.2007 40.1025 35.4676 40.3972 35.8082 40.5794C36.1488 40.7616 36.542 40.82 36.9208 40.7447C37.2997 40.6694 37.6407 40.4651 37.8857 40.1665C38.1307 39.8679 38.2646 39.4936 38.2645 39.1073C38.2648 38.8885 38.222 38.6718 38.1383 38.4696C38.0547 38.2674 37.932 38.0836 37.7772 37.929ZM36.5988 34.7834C37.6002 34.783 38.5708 35.1299 39.3451 35.765C40.1194 36.4 40.6496 37.2839 40.8452 38.266C41.0409 39.2482 40.89 40.2677 40.4182 41.1511C39.9464 42.0344 39.1829 42.7268 38.2578 43.1103C37.3327 43.4938 36.3033 43.5446 35.3449 43.2542C34.3865 42.9637 33.5585 42.35 33.0019 41.5175C32.4453 40.685 32.1946 39.6852 32.2926 38.6886C32.3905 37.692 32.8309 36.7601 33.5389 36.0518C33.9402 35.6492 34.4171 35.3299 34.9422 35.1122C35.4674 34.8945 36.0303 34.7828 36.5988 34.7834ZM69.3291 27.1302C69.6027 27.4024 69.8199 27.7259 69.9683 28.0822C70.1166 28.4385 70.1932 28.8205 70.1936 29.2065V61.5217C70.1901 62.3006 69.8792 63.0466 69.3284 63.5973C68.7776 64.1481 68.0316 64.459 67.2528 64.4626H6.60359C5.82451 64.4593 5.07824 64.1485 4.52723 63.5977C3.97623 63.0469 3.66511 62.3008 3.66159 61.5217V29.202C3.66453 28.4228 3.97546 27.6763 4.52659 27.1254C5.07772 26.5744 5.82433 26.2638 6.60359 26.2611H67.2528C67.6387 26.2614 68.0209 26.3379 68.3772 26.4862C68.7335 26.6346 69.057 26.8519 69.3291 27.1257V27.1302ZM9.214 46.6292V44.0934C9.18664 43.7592 9.03458 43.4476 8.78803 43.2204C8.54148 42.9932 8.21847 42.8671 7.8832 42.8671C7.54793 42.8671 7.22492 42.9932 6.97837 43.2204C6.73181 43.4476 6.57976 43.7592 6.5524 44.0934V46.6292C6.57976 46.9634 6.73181 47.275 6.97837 47.5022C7.22492 47.7294 7.54793 47.8555 7.8832 47.8555C8.21847 47.8555 8.54148 47.7294 8.78803 47.5022C9.03458 47.275 9.18664 46.9634 9.214 46.6292ZM60.7323 30.5918V60.1308C60.7323 60.4849 60.5916 60.8246 60.3412 61.075C60.0908 61.3254 59.7512 61.466 59.397 61.466H13.2798C12.9257 61.466 12.5861 61.3254 12.3357 61.075C12.0853 60.8246 11.9446 60.4849 11.9446 60.1308V30.5918C11.9446 30.2377 12.0853 29.898 12.3357 29.6476C12.5861 29.3972 12.9257 29.2565 13.2798 29.2565H59.397C59.7512 29.2565 60.0908 29.3972 60.3412 29.6476C60.5916 29.898 60.7323 30.2377 60.7323 30.5918ZM36.8603 48.9448L29.7145 44.0923C29.4994 43.9274 29.239 43.8323 28.9683 43.8198C28.6976 43.8072 28.4295 43.8779 28.2001 44.0222L14.6084 52.5622V31.9226H58.0662V50.8698L45.4804 44.04C45.2681 43.9245 45.0282 43.8694 44.7867 43.8806C44.5453 43.8917 44.3115 43.9688 44.1107 44.1034L36.8625 48.9403L36.8603 48.9448ZM36.166 51.6765C36.1281 51.6531 36.0914 51.6275 36.0547 51.6008L28.8811 46.7283L14.6084 55.7022V58.8056H58.0662V53.8963L44.9129 46.7605L39.2292 50.5526L41.1409 51.8512C41.2849 51.949 41.4082 52.0742 41.5038 52.2197C41.5994 52.3652 41.6654 52.5281 41.6981 52.6991C41.7307 52.8701 41.7294 53.0459 41.6941 53.2163C41.6588 53.3868 41.5903 53.5487 41.4925 53.6927C41.3947 53.8367 41.2694 53.96 41.1239 54.0556C40.9784 54.1512 40.8156 54.2172 40.6446 54.2499C40.4735 54.2825 40.2978 54.2812 40.1273 54.2459C39.9568 54.2106 39.795 54.1421 39.651 54.0443L36.1626 51.6765H36.166ZM66.6285 47.5795V43.1398C66.6028 42.8043 66.4514 42.4908 66.2046 42.2622C65.9577 42.0335 65.6337 41.9064 65.2972 41.9064C64.9607 41.9064 64.6366 42.0335 64.3897 42.2622C64.1429 42.4908 63.9915 42.8043 63.9658 43.1398V47.5795C63.9915 47.915 64.1429 48.2284 64.3897 48.4571C64.6366 48.6858 64.9607 48.8128 65.2972 48.8128C65.6337 48.8128 65.9577 48.6858 66.2046 48.4571C66.4514 48.2284 66.6028 47.915 66.6285 47.5795ZM57.4765 23.5995V6.13006C57.4797 4.64519 58.071 3.22205 59.121 2.17209C60.171 1.12212 61.5941 0.530821 63.079 0.527588H95.3975C96.8822 0.531406 98.305 1.12289 99.3549 2.17273C100.405 3.22257 100.996 4.64537 101 6.13006V66.7781C100.996 68.2628 100.405 69.6856 99.3549 70.7354C98.305 71.7853 96.8822 72.3768 95.3975 72.3806H63.079C61.6542 72.3765 60.284 71.8314 59.2458 70.8556C58.2076 69.8798 57.5788 68.546 57.4865 67.1242H6.60359C5.11852 67.1212 3.6951 66.5301 2.64489 65.48C1.59468 64.4301 1.00323 63.0068 1 61.5217V29.202C1.00323 27.717 1.59468 26.2937 2.64489 25.2437C3.6951 24.1937 5.11852 23.6025 6.60359 23.5995H57.4765ZM77.9703 8.73825H80.5062C80.8403 8.71089 81.152 8.55883 81.3792 8.31228C81.6064 8.06572 81.7325 7.74272 81.7325 7.40745C81.7325 7.07218 81.6064 6.74917 81.3792 6.50262C81.152 6.25606 80.8403 6.104 80.5062 6.07665H77.9703C77.7864 6.0616 77.6014 6.08483 77.4269 6.14487C77.2524 6.20492 77.0923 6.30048 76.9566 6.42553C76.8209 6.55057 76.7126 6.70239 76.6385 6.87139C76.5644 7.0404 76.5261 7.22292 76.5261 7.40745C76.5261 7.59198 76.5644 7.7745 76.6385 7.94351C76.7126 8.11251 76.8209 8.26432 76.9566 8.38937C77.0923 8.51441 77.2524 8.60998 77.4269 8.67002C77.6014 8.73007 77.7864 8.7533 77.9703 8.73825ZM63.138 23.5995V12.8063C63.138 12.4522 63.2786 12.1125 63.529 11.8621C63.7794 11.6117 64.1191 11.4711 64.4732 11.4711H94.0078C94.3619 11.4711 94.7015 11.6117 94.9519 11.8621C95.2023 12.1125 95.343 12.4522 95.343 12.8063V58.9224C95.343 59.2765 95.2023 59.6162 94.9519 59.8666C94.7015 60.117 94.3619 60.2576 94.0078 60.2576H72.8552V61.5261C72.852 63.011 72.2607 64.4341 71.2107 65.4841C70.1608 66.5341 68.7376 67.1254 67.2528 67.1286H60.1581C60.2466 67.8421 60.5919 68.4989 61.1294 68.9763C61.667 69.4537 62.3601 69.7189 63.079 69.7223H95.3975C96.1764 69.7188 96.9224 69.4079 97.4732 68.8571C98.0239 68.3063 98.3349 67.5603 98.3384 66.7814V6.12672C98.3358 5.34726 98.0252 4.60042 97.4743 4.04893C96.9235 3.49745 96.177 3.18602 95.3975 3.1825H63.079C62.3001 3.18602 61.5541 3.49699 61.0033 4.04775C60.4526 4.59851 60.1416 5.3445 60.1381 6.12339V23.5929L63.138 23.5995ZM92.677 45.4475L84.4429 41.0546L81.5499 43.3167L82.3088 43.8731C82.5913 44.0826 82.7791 44.3958 82.8307 44.7437C82.8824 45.0917 82.7937 45.4459 82.5842 45.7285C82.3746 46.0111 82.0614 46.1988 81.7135 46.2505C81.3655 46.3021 81.0113 46.2134 80.7287 46.0039L74.5443 41.4418L72.8552 42.8104V57.5938H92.677V45.4475ZM79.3356 41.6821L83.4916 38.4341C83.6982 38.2717 83.9486 38.1744 84.2107 38.1545C84.4728 38.1347 84.7349 38.1933 84.9637 38.3229L92.6747 42.4399V14.1326H65.7996V23.5995H67.2528C68.7376 23.6028 70.1608 24.1941 71.2107 25.244C72.2607 26.294 72.852 27.7171 72.8552 29.202V39.3966L73.6697 38.7379C73.9016 38.551 74.1893 38.4469 74.487 38.4423C74.7848 38.4376 75.0756 38.5327 75.3132 38.7123L79.3356 41.6821ZM77.0156 66.1528H81.4564C81.7906 66.1254 82.1022 65.9734 82.3294 65.7268C82.5566 65.4802 82.6827 65.1572 82.6827 64.822C82.6827 64.4867 82.5566 64.1637 82.3294 63.9171C82.1022 63.6706 81.7906 63.5185 81.4564 63.4912H77.0156C76.6815 63.5185 76.3698 63.6706 76.1426 63.9171C75.9154 64.1637 75.7893 64.4867 75.7893 64.822C75.7893 65.1572 75.9154 65.4802 76.1426 65.7268C76.3698 65.9734 76.6815 66.1254 77.0156 66.1528ZM79.2166 35.3152H79.2611C79.8914 35.3152 80.4959 35.0648 80.9417 34.6191C81.3874 34.1734 81.6378 33.5688 81.6378 32.9385C81.6378 32.3081 81.3874 31.7036 80.9417 31.2579C80.4959 30.8122 79.8914 30.5618 79.2611 30.5618H79.2166C78.5862 30.5618 77.9817 30.8122 77.5359 31.2579C77.0902 31.7036 76.8398 32.3081 76.8398 32.9385C76.8398 33.5688 77.0902 34.1734 77.5359 34.6191C77.9817 35.0648 78.5862 35.3152 79.2166 35.3152Z"/>
</mask>
<path fill-rule="evenodd" clip-rule="evenodd" d="M37.7772 37.929C37.5044 37.6555 37.1452 37.4851 36.7609 37.4468C36.3765 37.4086 35.9908 37.5048 35.6694 37.7191C35.3481 37.9334 35.111 38.2525 34.9986 38.622C34.8862 38.9916 34.9055 39.3887 35.0531 39.7456C35.2007 40.1025 35.4676 40.3972 35.8082 40.5794C36.1488 40.7616 36.542 40.82 36.9208 40.7447C37.2997 40.6694 37.6407 40.4651 37.8857 40.1665C38.1307 39.8679 38.2646 39.4936 38.2645 39.1073C38.2648 38.8885 38.222 38.6718 38.1383 38.4696C38.0547 38.2674 37.932 38.0836 37.7772 37.929ZM36.5988 34.7834C37.6002 34.783 38.5708 35.1299 39.3451 35.765C40.1194 36.4 40.6496 37.2839 40.8452 38.266C41.0409 39.2482 40.89 40.2677 40.4182 41.1511C39.9464 42.0344 39.1829 42.7268 38.2578 43.1103C37.3327 43.4938 36.3033 43.5446 35.3449 43.2542C34.3865 42.9637 33.5585 42.35 33.0019 41.5175C32.4453 40.685 32.1946 39.6852 32.2926 38.6886C32.3905 37.692 32.8309 36.7601 33.5389 36.0518C33.9402 35.6492 34.4171 35.3299 34.9422 35.1122C35.4674 34.8945 36.0303 34.7828 36.5988 34.7834ZM69.3291 27.1302C69.6027 27.4024 69.8199 27.7259 69.9683 28.0822C70.1166 28.4385 70.1932 28.8205 70.1936 29.2065V61.5217C70.1901 62.3006 69.8792 63.0466 69.3284 63.5973C68.7776 64.1481 68.0316 64.459 67.2528 64.4626H6.60359C5.82451 64.4593 5.07824 64.1485 4.52723 63.5977C3.97623 63.0469 3.66511 62.3008 3.66159 61.5217V29.202C3.66453 28.4228 3.97546 27.6763 4.52659 27.1254C5.07772 26.5744 5.82433 26.2638 6.60359 26.2611H67.2528C67.6387 26.2614 68.0209 26.3379 68.3772 26.4862C68.7335 26.6346 69.057 26.8519 69.3291 27.1257V27.1302ZM9.214 46.6292V44.0934C9.18664 43.7592 9.03458 43.4476 8.78803 43.2204C8.54148 42.9932 8.21847 42.8671 7.8832 42.8671C7.54793 42.8671 7.22492 42.9932 6.97837 43.2204C6.73181 43.4476 6.57976 43.7592 6.5524 44.0934V46.6292C6.57976 46.9634 6.73181 47.275 6.97837 47.5022C7.22492 47.7294 7.54793 47.8555 7.8832 47.8555C8.21847 47.8555 8.54148 47.7294 8.78803 47.5022C9.03458 47.275 9.18664 46.9634 9.214 46.6292ZM60.7323 30.5918V60.1308C60.7323 60.4849 60.5916 60.8246 60.3412 61.075C60.0908 61.3254 59.7512 61.466 59.397 61.466H13.2798C12.9257 61.466 12.5861 61.3254 12.3357 61.075C12.0853 60.8246 11.9446 60.4849 11.9446 60.1308V30.5918C11.9446 30.2377 12.0853 29.898 12.3357 29.6476C12.5861 29.3972 12.9257 29.2565 13.2798 29.2565H59.397C59.7512 29.2565 60.0908 29.3972 60.3412 29.6476C60.5916 29.898 60.7323 30.2377 60.7323 30.5918ZM36.8603 48.9448L29.7145 44.0923C29.4994 43.9274 29.239 43.8323 28.9683 43.8198C28.6976 43.8072 28.4295 43.8779 28.2001 44.0222L14.6084 52.5622V31.9226H58.0662V50.8698L45.4804 44.04C45.2681 43.9245 45.0282 43.8694 44.7867 43.8806C44.5453 43.8917 44.3115 43.9688 44.1107 44.1034L36.8625 48.9403L36.8603 48.9448ZM36.166 51.6765C36.1281 51.6531 36.0914 51.6275 36.0547 51.6008L28.8811 46.7283L14.6084 55.7022V58.8056H58.0662V53.8963L44.9129 46.7605L39.2292 50.5526L41.1409 51.8512C41.2849 51.949 41.4082 52.0742 41.5038 52.2197C41.5994 52.3652 41.6654 52.5281 41.6981 52.6991C41.7307 52.8701 41.7294 53.0459 41.6941 53.2163C41.6588 53.3868 41.5903 53.5487 41.4925 53.6927C41.3947 53.8367 41.2694 53.96 41.1239 54.0556C40.9784 54.1512 40.8156 54.2172 40.6446 54.2499C40.4735 54.2825 40.2978 54.2812 40.1273 54.2459C39.9568 54.2106 39.795 54.1421 39.651 54.0443L36.1626 51.6765H36.166ZM66.6285 47.5795V43.1398C66.6028 42.8043 66.4514 42.4908 66.2046 42.2622C65.9577 42.0335 65.6337 41.9064 65.2972 41.9064C64.9607 41.9064 64.6366 42.0335 64.3897 42.2622C64.1429 42.4908 63.9915 42.8043 63.9658 43.1398V47.5795C63.9915 47.915 64.1429 48.2284 64.3897 48.4571C64.6366 48.6858 64.9607 48.8128 65.2972 48.8128C65.6337 48.8128 65.9577 48.6858 66.2046 48.4571C66.4514 48.2284 66.6028 47.915 66.6285 47.5795ZM57.4765 23.5995V6.13006C57.4797 4.64519 58.071 3.22205 59.121 2.17209C60.171 1.12212 61.5941 0.530821 63.079 0.527588H95.3975C96.8822 0.531406 98.305 1.12289 99.3549 2.17273C100.405 3.22257 100.996 4.64537 101 6.13006V66.7781C100.996 68.2628 100.405 69.6856 99.3549 70.7354C98.305 71.7853 96.8822 72.3768 95.3975 72.3806H63.079C61.6542 72.3765 60.284 71.8314 59.2458 70.8556C58.2076 69.8798 57.5788 68.546 57.4865 67.1242H6.60359C5.11852 67.1212 3.6951 66.5301 2.64489 65.48C1.59468 64.4301 1.00323 63.0068 1 61.5217V29.202C1.00323 27.717 1.59468 26.2937 2.64489 25.2437C3.6951 24.1937 5.11852 23.6025 6.60359 23.5995H57.4765ZM77.9703 8.73825H80.5062C80.8403 8.71089 81.152 8.55883 81.3792 8.31228C81.6064 8.06572 81.7325 7.74272 81.7325 7.40745C81.7325 7.07218 81.6064 6.74917 81.3792 6.50262C81.152 6.25606 80.8403 6.104 80.5062 6.07665H77.9703C77.7864 6.0616 77.6014 6.08483 77.4269 6.14487C77.2524 6.20492 77.0923 6.30048 76.9566 6.42553C76.8209 6.55057 76.7126 6.70239 76.6385 6.87139C76.5644 7.0404 76.5261 7.22292 76.5261 7.40745C76.5261 7.59198 76.5644 7.7745 76.6385 7.94351C76.7126 8.11251 76.8209 8.26432 76.9566 8.38937C77.0923 8.51441 77.2524 8.60998 77.4269 8.67002C77.6014 8.73007 77.7864 8.7533 77.9703 8.73825ZM63.138 23.5995V12.8063C63.138 12.4522 63.2786 12.1125 63.529 11.8621C63.7794 11.6117 64.1191 11.4711 64.4732 11.4711H94.0078C94.3619 11.4711 94.7015 11.6117 94.9519 11.8621C95.2023 12.1125 95.343 12.4522 95.343 12.8063V58.9224C95.343 59.2765 95.2023 59.6162 94.9519 59.8666C94.7015 60.117 94.3619 60.2576 94.0078 60.2576H72.8552V61.5261C72.852 63.011 72.2607 64.4341 71.2107 65.4841C70.1608 66.5341 68.7376 67.1254 67.2528 67.1286H60.1581C60.2466 67.8421 60.5919 68.4989 61.1294 68.9763C61.667 69.4537 62.3601 69.7189 63.079 69.7223H95.3975C96.1764 69.7188 96.9224 69.4079 97.4732 68.8571C98.0239 68.3063 98.3349 67.5603 98.3384 66.7814V6.12672C98.3358 5.34726 98.0252 4.60042 97.4743 4.04893C96.9235 3.49745 96.177 3.18602 95.3975 3.1825H63.079C62.3001 3.18602 61.5541 3.49699 61.0033 4.04775C60.4526 4.59851 60.1416 5.3445 60.1381 6.12339V23.5929L63.138 23.5995ZM92.677 45.4475L84.4429 41.0546L81.5499 43.3167L82.3088 43.8731C82.5913 44.0826 82.7791 44.3958 82.8307 44.7437C82.8824 45.0917 82.7937 45.4459 82.5842 45.7285C82.3746 46.0111 82.0614 46.1988 81.7135 46.2505C81.3655 46.3021 81.0113 46.2134 80.7287 46.0039L74.5443 41.4418L72.8552 42.8104V57.5938H92.677V45.4475ZM79.3356 41.6821L83.4916 38.4341C83.6982 38.2717 83.9486 38.1744 84.2107 38.1545C84.4728 38.1347 84.7349 38.1933 84.9637 38.3229L92.6747 42.4399V14.1326H65.7996V23.5995H67.2528C68.7376 23.6028 70.1608 24.1941 71.2107 25.244C72.2607 26.294 72.852 27.7171 72.8552 29.202V39.3966L73.6697 38.7379C73.9016 38.551 74.1893 38.4469 74.487 38.4423C74.7848 38.4376 75.0756 38.5327 75.3132 38.7123L79.3356 41.6821ZM77.0156 66.1528H81.4564C81.7906 66.1254 82.1022 65.9734 82.3294 65.7268C82.5566 65.4802 82.6827 65.1572 82.6827 64.822C82.6827 64.4867 82.5566 64.1637 82.3294 63.9171C82.1022 63.6706 81.7906 63.5185 81.4564 63.4912H77.0156C76.6815 63.5185 76.3698 63.6706 76.1426 63.9171C75.9154 64.1637 75.7893 64.4867 75.7893 64.822C75.7893 65.1572 75.9154 65.4802 76.1426 65.7268C76.3698 65.9734 76.6815 66.1254 77.0156 66.1528ZM79.2166 35.3152H79.2611C79.8914 35.3152 80.4959 35.0648 80.9417 34.6191C81.3874 34.1734 81.6378 33.5688 81.6378 32.9385C81.6378 32.3081 81.3874 31.7036 80.9417 31.2579C80.4959 30.8122 79.8914 30.5618 79.2611 30.5618H79.2166C78.5862 30.5618 77.9817 30.8122 77.5359 31.2579C77.0902 31.7036 76.8398 32.3081 76.8398 32.9385C76.8398 33.5688 77.0902 34.1734 77.5359 34.6191C77.9817 35.0648 78.5862 35.3152 79.2166 35.3152Z" fill="#3C7CFF"/>
<path fill-rule="evenodd" clip-rule="evenodd" d="M37.7772 37.929C37.5044 37.6555 37.1452 37.4851 36.7609 37.4468C36.3765 37.4086 35.9908 37.5048 35.6694 37.7191C35.3481 37.9334 35.111 38.2525 34.9986 38.622C34.8862 38.9916 34.9055 39.3887 35.0531 39.7456C35.2007 40.1025 35.4676 40.3972 35.8082 40.5794C36.1488 40.7616 36.542 40.82 36.9208 40.7447C37.2997 40.6694 37.6407 40.4651 37.8857 40.1665C38.1307 39.8679 38.2646 39.4936 38.2645 39.1073C38.2648 38.8885 38.222 38.6718 38.1383 38.4696C38.0547 38.2674 37.932 38.0836 37.7772 37.929ZM36.5988 34.7834C37.6002 34.783 38.5708 35.1299 39.3451 35.765C40.1194 36.4 40.6496 37.2839 40.8452 38.266C41.0409 39.2482 40.89 40.2677 40.4182 41.1511C39.9464 42.0344 39.1829 42.7268 38.2578 43.1103C37.3327 43.4938 36.3033 43.5446 35.3449 43.2542C34.3865 42.9637 33.5585 42.35 33.0019 41.5175C32.4453 40.685 32.1946 39.6852 32.2926 38.6886C32.3905 37.692 32.8309 36.7601 33.5389 36.0518C33.9402 35.6492 34.4171 35.3299 34.9422 35.1122C35.4674 34.8945 36.0303 34.7828 36.5988 34.7834ZM69.3291 27.1302C69.6027 27.4024 69.8199 27.7259 69.9683 28.0822C70.1166 28.4385 70.1932 28.8205 70.1936 29.2065V61.5217C70.1901 62.3006 69.8792 63.0466 69.3284 63.5973C68.7776 64.1481 68.0316 64.459 67.2528 64.4626H6.60359C5.82451 64.4593 5.07824 64.1485 4.52723 63.5977C3.97623 63.0469 3.66511 62.3008 3.66159 61.5217V29.202C3.66453 28.4228 3.97546 27.6763 4.52659 27.1254C5.07772 26.5744 5.82433 26.2638 6.60359 26.2611H67.2528C67.6387 26.2614 68.0209 26.3379 68.3772 26.4862C68.7335 26.6346 69.057 26.8519 69.3291 27.1257V27.1302ZM9.214 46.6292V44.0934C9.18664 43.7592 9.03458 43.4476 8.78803 43.2204C8.54148 42.9932 8.21847 42.8671 7.8832 42.8671C7.54793 42.8671 7.22492 42.9932 6.97837 43.2204C6.73181 43.4476 6.57976 43.7592 6.5524 44.0934V46.6292C6.57976 46.9634 6.73181 47.275 6.97837 47.5022C7.22492 47.7294 7.54793 47.8555 7.8832 47.8555C8.21847 47.8555 8.54148 47.7294 8.78803 47.5022C9.03458 47.275 9.18664 46.9634 9.214 46.6292ZM60.7323 30.5918V60.1308C60.7323 60.4849 60.5916 60.8246 60.3412 61.075C60.0908 61.3254 59.7512 61.466 59.397 61.466H13.2798C12.9257 61.466 12.5861 61.3254 12.3357 61.075C12.0853 60.8246 11.9446 60.4849 11.9446 60.1308V30.5918C11.9446 30.2377 12.0853 29.898 12.3357 29.6476C12.5861 29.3972 12.9257 29.2565 13.2798 29.2565H59.397C59.7512 29.2565 60.0908 29.3972 60.3412 29.6476C60.5916 29.898 60.7323 30.2377 60.7323 30.5918ZM36.8603 48.9448L29.7145 44.0923C29.4994 43.9274 29.239 43.8323 28.9683 43.8198C28.6976 43.8072 28.4295 43.8779 28.2001 44.0222L14.6084 52.5622V31.9226H58.0662V50.8698L45.4804 44.04C45.2681 43.9245 45.0282 43.8694 44.7867 43.8806C44.5453 43.8917 44.3115 43.9688 44.1107 44.1034L36.8625 48.9403L36.8603 48.9448ZM36.166 51.6765C36.1281 51.6531 36.0914 51.6275 36.0547 51.6008L28.8811 46.7283L14.6084 55.7022V58.8056H58.0662V53.8963L44.9129 46.7605L39.2292 50.5526L41.1409 51.8512C41.2849 51.949 41.4082 52.0742 41.5038 52.2197C41.5994 52.3652 41.6654 52.5281 41.6981 52.6991C41.7307 52.8701 41.7294 53.0459 41.6941 53.2163C41.6588 53.3868 41.5903 53.5487 41.4925 53.6927C41.3947 53.8367 41.2694 53.96 41.1239 54.0556C40.9784 54.1512 40.8156 54.2172 40.6446 54.2499C40.4735 54.2825 40.2978 54.2812 40.1273 54.2459C39.9568 54.2106 39.795 54.1421 39.651 54.0443L36.1626 51.6765H36.166ZM66.6285 47.5795V43.1398C66.6028 42.8043 66.4514 42.4908 66.2046 42.2622C65.9577 42.0335 65.6337 41.9064 65.2972 41.9064C64.9607 41.9064 64.6366 42.0335 64.3897 42.2622C64.1429 42.4908 63.9915 42.8043 63.9658 43.1398V47.5795C63.9915 47.915 64.1429 48.2284 64.3897 48.4571C64.6366 48.6858 64.9607 48.8128 65.2972 48.8128C65.6337 48.8128 65.9577 48.6858 66.2046 48.4571C66.4514 48.2284 66.6028 47.915 66.6285 47.5795ZM57.4765 23.5995V6.13006C57.4797 4.64519 58.071 3.22205 59.121 2.17209C60.171 1.12212 61.5941 0.530821 63.079 0.527588H95.3975C96.8822 0.531406 98.305 1.12289 99.3549 2.17273C100.405 3.22257 100.996 4.64537 101 6.13006V66.7781C100.996 68.2628 100.405 69.6856 99.3549 70.7354C98.305 71.7853 96.8822 72.3768 95.3975 72.3806H63.079C61.6542 72.3765 60.284 71.8314 59.2458 70.8556C58.2076 69.8798 57.5788 68.546 57.4865 67.1242H6.60359C5.11852 67.1212 3.6951 66.5301 2.64489 65.48C1.59468 64.4301 1.00323 63.0068 1 61.5217V29.202C1.00323 27.717 1.59468 26.2937 2.64489 25.2437C3.6951 24.1937 5.11852 23.6025 6.60359 23.5995H57.4765ZM77.9703 8.73825H80.5062C80.8403 8.71089 81.152 8.55883 81.3792 8.31228C81.6064 8.06572 81.7325 7.74272 81.7325 7.40745C81.7325 7.07218 81.6064 6.74917 81.3792 6.50262C81.152 6.25606 80.8403 6.104 80.5062 6.07665H77.9703C77.7864 6.0616 77.6014 6.08483 77.4269 6.14487C77.2524 6.20492 77.0923 6.30048 76.9566 6.42553C76.8209 6.55057 76.7126 6.70239 76.6385 6.87139C76.5644 7.0404 76.5261 7.22292 76.5261 7.40745C76.5261 7.59198 76.5644 7.7745 76.6385 7.94351C76.7126 8.11251 76.8209 8.26432 76.9566 8.38937C77.0923 8.51441 77.2524 8.60998 77.4269 8.67002C77.6014 8.73007 77.7864 8.7533 77.9703 8.73825ZM63.138 23.5995V12.8063C63.138 12.4522 63.2786 12.1125 63.529 11.8621C63.7794 11.6117 64.1191 11.4711 64.4732 11.4711H94.0078C94.3619 11.4711 94.7015 11.6117 94.9519 11.8621C95.2023 12.1125 95.343 12.4522 95.343 12.8063V58.9224C95.343 59.2765 95.2023 59.6162 94.9519 59.8666C94.7015 60.117 94.3619 60.2576 94.0078 60.2576H72.8552V61.5261C72.852 63.011 72.2607 64.4341 71.2107 65.4841C70.1608 66.5341 68.7376 67.1254 67.2528 67.1286H60.1581C60.2466 67.8421 60.5919 68.4989 61.1294 68.9763C61.667 69.4537 62.3601 69.7189 63.079 69.7223H95.3975C96.1764 69.7188 96.9224 69.4079 97.4732 68.8571C98.0239 68.3063 98.3349 67.5603 98.3384 66.7814V6.12672C98.3358 5.34726 98.0252 4.60042 97.4743 4.04893C96.9235 3.49745 96.177 3.18602 95.3975 3.1825H63.079C62.3001 3.18602 61.5541 3.49699 61.0033 4.04775C60.4526 4.59851 60.1416 5.3445 60.1381 6.12339V23.5929L63.138 23.5995ZM92.677 45.4475L84.4429 41.0546L81.5499 43.3167L82.3088 43.8731C82.5913 44.0826 82.7791 44.3958 82.8307 44.7437C82.8824 45.0917 82.7937 45.4459 82.5842 45.7285C82.3746 46.0111 82.0614 46.1988 81.7135 46.2505C81.3655 46.3021 81.0113 46.2134 80.7287 46.0039L74.5443 41.4418L72.8552 42.8104V57.5938H92.677V45.4475ZM79.3356 41.6821L83.4916 38.4341C83.6982 38.2717 83.9486 38.1744 84.2107 38.1545C84.4728 38.1347 84.7349 38.1933 84.9637 38.3229L92.6747 42.4399V14.1326H65.7996V23.5995H67.2528C68.7376 23.6028 70.1608 24.1941 71.2107 25.244C72.2607 26.294 72.852 27.7171 72.8552 29.202V39.3966L73.6697 38.7379C73.9016 38.551 74.1893 38.4469 74.487 38.4423C74.7848 38.4376 75.0756 38.5327 75.3132 38.7123L79.3356 41.6821ZM77.0156 66.1528H81.4564C81.7906 66.1254 82.1022 65.9734 82.3294 65.7268C82.5566 65.4802 82.6827 65.1572 82.6827 64.822C82.6827 64.4867 82.5566 64.1637 82.3294 63.9171C82.1022 63.6706 81.7906 63.5185 81.4564 63.4912H77.0156C76.6815 63.5185 76.3698 63.6706 76.1426 63.9171C75.9154 64.1637 75.7893 64.4867 75.7893 64.822C75.7893 65.1572 75.9154 65.4802 76.1426 65.7268C76.3698 65.9734 76.6815 66.1254 77.0156 66.1528ZM79.2166 35.3152H79.2611C79.8914 35.3152 80.4959 35.0648 80.9417 34.6191C81.3874 34.1734 81.6378 33.5688 81.6378 32.9385C81.6378 32.3081 81.3874 31.7036 80.9417 31.2579C80.4959 30.8122 79.8914 30.5618 79.2611 30.5618H79.2166C78.5862 30.5618 77.9817 30.8122 77.5359 31.2579C77.0902 31.7036 76.8398 32.3081 76.8398 32.9385C76.8398 33.5688 77.0902 34.1734 77.5359 34.6191C77.9817 35.0648 78.5862 35.3152 79.2166 35.3152Z" stroke="#3C7CFF" stroke-width="0.6" mask="url(#path-1-outside-1_166_165)"/>
</svg>
