<svg width="100" height="100" viewBox="0 0 100 100" fill="none" xmlns="http://www.w3.org/2000/svg">
<path d="M93.3333 0H6.66667C4.89856 0 3.20286 0.702379 1.95262 1.95262C0.702379 3.20286 0 4.89856 0 6.66667L0 93.3333C0 95.1014 0.702379 96.7971 1.95262 98.0474C3.20286 99.2976 4.89856 100 6.66667 100H93.3333C95.1014 100 96.7971 99.2976 98.0474 98.0474C99.2976 96.7971 100 95.1014 100 93.3333V6.66667C100 4.89856 99.2976 3.20286 98.0474 1.95262C96.7971 0.702379 95.1014 0 93.3333 0ZM6.66667 3.33333H93.3333C94.2174 3.33333 95.0652 3.68452 95.6904 4.30964C96.3155 4.93476 96.6667 5.78261 96.6667 6.66667V13.3333H3.33333V6.66667C3.33333 5.78261 3.68452 4.93476 4.30964 4.30964C4.93476 3.68452 5.78261 3.33333 6.66667 3.33333ZM93.3333 96.6667H6.66667C5.78261 96.6667 4.93476 96.3155 4.30964 95.6904C3.68452 95.0652 3.33333 94.2174 3.33333 93.3333V16.6667H96.6667V93.3333C96.6667 94.2174 96.3155 95.0652 95.6904 95.6904C95.0652 96.3155 94.2174 96.6667 93.3333 96.6667Z" fill="#3C7CFF"/>
<path d="M8.33335 9.99996H10C10.442 9.99996 10.866 9.82436 11.1785 9.5118C11.4911 9.19924 11.6667 8.77532 11.6667 8.33329C11.6667 7.89127 11.4911 7.46734 11.1785 7.15478C10.866 6.84222 10.442 6.66663 10 6.66663H8.33335C7.89133 6.66663 7.4674 6.84222 7.15484 7.15478C6.84228 7.46734 6.66669 7.89127 6.66669 8.33329C6.66669 8.77532 6.84228 9.19924 7.15484 9.5118C7.4674 9.82436 7.89133 9.99996 8.33335 9.99996Z" fill="#3C7CFF"/>
<path d="M16.6667 9.99996H18.3333C18.7754 9.99996 19.1993 9.82436 19.5118 9.5118C19.8244 9.19924 20 8.77532 20 8.33329C20 7.89127 19.8244 7.46734 19.5118 7.15478C19.1993 6.84222 18.7754 6.66663 18.3333 6.66663H16.6667C16.2246 6.66663 15.8007 6.84222 15.4882 7.15478C15.1756 7.46734 15 7.89127 15 8.33329C15 8.77532 15.1756 9.19924 15.4882 9.5118C15.8007 9.82436 16.2246 9.99996 16.6667 9.99996Z" fill="#3C7CFF"/>
<path d="M25 9.99996H26.6666C27.1087 9.99996 27.5326 9.82436 27.8452 9.5118C28.1577 9.19924 28.3333 8.77532 28.3333 8.33329C28.3333 7.89127 28.1577 7.46734 27.8452 7.15478C27.5326 6.84222 27.1087 6.66663 26.6666 6.66663H25C24.558 6.66663 24.134 6.84222 23.8215 7.15478C23.5089 7.46734 23.3333 7.89127 23.3333 8.33329C23.3333 8.77532 23.5089 9.19924 23.8215 9.5118C24.134 9.82436 24.558 9.99996 25 9.99996Z" fill="#3C7CFF"/>
<path d="M81.6667 9.99996H91.6667C92.1087 9.99996 92.5326 9.82436 92.8452 9.5118C93.1577 9.19924 93.3333 8.77532 93.3333 8.33329C93.3333 7.89127 93.1577 7.46734 92.8452 7.15478C92.5326 6.84222 92.1087 6.66663 91.6667 6.66663H81.6667C81.2246 6.66663 80.8007 6.84222 80.4882 7.15478C80.1756 7.46734 80 7.89127 80 8.33329C80 8.77532 80.1756 9.19924 80.4882 9.5118C80.8007 9.82436 81.2246 9.99996 81.6667 9.99996Z" fill="#3C7CFF"/>
<path d="M63.3333 70.0001C63.3291 68.9696 63.0065 67.9657 62.4099 67.1255C61.8132 66.2854 60.9715 65.6502 60 65.3067V63.3334C60.0033 60.8706 59.0977 58.4932 57.4567 56.6567C59.0887 54.8227 59.9933 52.455 60 50V48.0267C61.1112 47.6353 62.0479 46.8634 62.6444 45.8475C63.2409 44.8316 63.4586 43.6374 63.259 42.4764C63.0594 41.3154 62.4553 40.2625 61.5538 39.5042C60.6522 38.7459 59.5114 38.3312 58.3333 38.3334H41.6667C40.4886 38.3312 39.3478 38.7459 38.4463 39.5042C37.5447 40.2625 36.9407 41.3154 36.741 42.4764C36.5414 43.6374 36.7591 44.8316 37.3556 45.8475C37.9521 46.8634 38.8889 47.6353 40 48.0267V50C40.0071 52.4595 40.9148 54.8311 42.5517 56.6667C40.9148 58.5023 40.0071 60.874 40 63.3334V65.3067C38.8889 65.6981 37.9521 66.4701 37.3556 67.4859C36.7591 68.5018 36.5414 69.696 36.741 70.857C36.9407 72.018 37.5447 73.0709 38.4463 73.8292C39.3478 74.5875 40.4886 75.0023 41.6667 75.0001H58.3333C59.6594 75.0001 60.9312 74.4733 61.8689 73.5356C62.8066 72.5979 63.3333 71.3261 63.3333 70.0001ZM43.3333 65.0001V63.3334C43.3372 62.2991 43.5798 61.2797 44.0424 60.3546C44.5049 59.4295 45.1749 58.6237 46 58C46.207 57.8448 46.375 57.6435 46.4907 57.4121C46.6064 57.1806 46.6667 56.9255 46.6667 56.6667C46.6667 56.408 46.6064 56.1528 46.4907 55.9214C46.375 55.6899 46.207 55.4886 46 55.3334C45.1749 54.7097 44.5049 53.904 44.0424 52.9789C43.5798 52.0538 43.3372 51.0343 43.3333 50V48.3334H56.6667V50C56.6631 51.0344 56.4205 52.0539 55.958 52.979C55.4954 53.9042 54.8253 54.7099 54 55.3334C53.7921 55.4897 53.6236 55.6926 53.5081 55.9257C53.3926 56.1588 53.3333 56.4158 53.335 56.6759C53.3366 56.9361 53.3991 57.1922 53.5175 57.4239C53.6358 57.6556 53.8068 57.8563 54.0167 58.01C54.8379 58.634 55.5041 59.4388 55.9637 60.362C56.4233 61.2853 56.6639 62.3021 56.6667 63.3334V65.0001H43.3333ZM41.6667 41.6667H58.3333C58.7754 41.6667 59.1993 41.8423 59.5119 42.1549C59.8244 42.4674 60 42.8914 60 43.3334C60 43.7754 59.8244 44.1993 59.5119 44.5119C59.1993 44.8245 58.7754 45 58.3333 45H41.6667C41.2247 45 40.8007 44.8245 40.4882 44.5119C40.1756 44.1993 40 43.7754 40 43.3334C40 42.8914 40.1756 42.4674 40.4882 42.1549C40.8007 41.8423 41.2247 41.6667 41.6667 41.6667ZM58.3333 71.6667H41.6667C41.2247 71.6667 40.8007 71.4911 40.4882 71.1786C40.1756 70.866 40 70.4421 40 70.0001C40 69.558 40.1756 69.1341 40.4882 68.8215C40.8007 68.509 41.2247 68.3334 41.6667 68.3334H58.3333C58.7754 68.3334 59.1993 68.509 59.5119 68.8215C59.8244 69.1341 60 69.558 60 70.0001C60 70.4421 59.8244 70.866 59.5119 71.1786C59.1993 71.4911 58.7754 71.6667 58.3333 71.6667Z" fill="#3C7CFF"/>
<path d="M50 31.6666C50.442 31.6666 50.8659 31.491 51.1785 31.1785C51.4911 30.8659 51.6666 30.442 51.6666 30V23.3333C51.6666 22.8913 51.4911 22.4673 51.1785 22.1548C50.8659 21.8422 50.442 21.6666 50 21.6666C49.558 21.6666 49.134 21.8422 48.8215 22.1548C48.5089 22.4673 48.3333 22.8913 48.3333 23.3333V30C48.3333 30.442 48.5089 30.8659 48.8215 31.1785C49.134 31.491 49.558 31.6666 50 31.6666Z" fill="#3C7CFF"/>
<path d="M35.2234 34.4068C35.446 34.7865 35.8097 35.0627 36.2352 35.1752C36.6607 35.2877 37.1134 35.2273 37.4945 35.0073C37.8757 34.7872 38.1543 34.4253 38.2696 34.0006C38.3849 33.5758 38.3276 33.1227 38.1101 32.7401L34.7767 26.9668C34.6681 26.7757 34.5227 26.608 34.349 26.4734C34.1753 26.3387 33.9767 26.2397 33.7645 26.1821C33.5524 26.1245 33.331 26.1095 33.113 26.1378C32.8951 26.1661 32.6849 26.2373 32.4945 26.3472C32.3042 26.4571 32.1374 26.6036 32.0039 26.7782C31.8704 26.9528 31.7727 27.1521 31.7166 27.3646C31.6604 27.5771 31.6468 27.7986 31.6766 28.0164C31.7063 28.2341 31.7789 28.4439 31.8901 28.6335L35.2234 34.4068Z" fill="#3C7CFF"/>
<path d="M27.74 41.8901L21.9667 38.5567C21.777 38.4456 21.5673 38.373 21.3495 38.3432C21.1318 38.3135 20.9103 38.3271 20.6978 38.3832C20.4853 38.4394 20.286 38.5371 20.1114 38.6706C19.9368 38.8041 19.7903 38.9708 19.6804 39.1612C19.5705 39.3515 19.4993 39.5618 19.471 39.7797C19.4427 39.9977 19.4577 40.2191 19.5153 40.4312C19.5729 40.6434 19.6719 40.842 19.8066 41.0157C19.9412 41.1894 20.1089 41.3348 20.3 41.4434L26.0733 44.7767C26.263 44.8879 26.4727 44.9605 26.6905 44.9902C26.9082 45.02 27.1297 45.0064 27.3422 44.9502C27.5547 44.8941 27.754 44.7964 27.9286 44.6629C28.1032 44.5294 28.2497 44.3626 28.3596 44.1723C28.4695 43.9819 28.5407 43.7717 28.569 43.5538C28.5973 43.3358 28.5823 43.1144 28.5247 42.9023C28.4671 42.6901 28.3681 42.4915 28.2334 42.3178C28.0988 42.1441 27.9311 41.9987 27.74 41.8901Z" fill="#3C7CFF"/>
<path d="M25 56.6667C25 56.2246 24.8244 55.8007 24.5118 55.4882C24.1993 55.1756 23.7754 55 23.3333 55H16.6667C16.2246 55 15.8007 55.1756 15.4882 55.4882C15.1756 55.8007 15 56.2246 15 56.6667C15 57.1087 15.1756 57.5326 15.4882 57.8452C15.8007 58.1577 16.2246 58.3333 16.6667 58.3333H23.3333C23.7754 58.3333 24.1993 58.1577 24.5118 57.8452C24.8244 57.5326 25 57.1087 25 56.6667Z" fill="#3C7CFF"/>
<path d="M26.0733 68.5567L20.3 71.8901C20.1089 71.9987 19.9412 72.1441 19.8066 72.3178C19.6719 72.4915 19.5729 72.6901 19.5153 72.9023C19.4577 73.1144 19.4427 73.3358 19.471 73.5538C19.4993 73.7717 19.5705 73.9819 19.6804 74.1723C19.7903 74.3626 19.9368 74.5294 20.1114 74.6629C20.286 74.7964 20.4853 74.8941 20.6978 74.9502C20.9103 75.0064 21.1318 75.02 21.3495 74.9902C21.5673 74.9605 21.777 74.8879 21.9667 74.7767L27.74 71.4434C27.9311 71.3348 28.0988 71.1894 28.2334 71.0157C28.3681 70.842 28.4671 70.6434 28.5247 70.4312C28.5823 70.2191 28.5973 69.9977 28.569 69.7797C28.5407 69.5618 28.4695 69.3516 28.3596 69.1612C28.2497 68.9708 28.1032 68.8041 27.9286 68.6706C27.754 68.5371 27.5547 68.4394 27.3422 68.3832C27.1297 68.3271 26.9082 68.3135 26.6905 68.3432C26.4727 68.373 26.263 68.4456 26.0733 68.5567Z" fill="#3C7CFF"/>
<path d="M37.5001 78.3168C37.1173 78.0958 36.6623 78.0359 36.2354 78.1503C35.8084 78.2647 35.4444 78.544 35.2234 78.9268L31.8901 84.7001C31.7789 84.8897 31.7063 85.0995 31.6766 85.3172C31.6468 85.535 31.6604 85.7565 31.7166 85.969C31.7727 86.1815 31.8704 86.3808 32.0039 86.5554C32.1374 86.73 32.3042 86.8765 32.4945 86.9864C32.6849 87.0963 32.8951 87.1675 33.113 87.1958C33.331 87.2241 33.5524 87.2091 33.7645 87.1515C33.9767 87.0939 34.1753 86.9949 34.349 86.8602C34.5227 86.7256 34.6681 86.5579 34.7767 86.3668L38.1101 80.5935C38.3311 80.2107 38.3909 79.7557 38.2766 79.3288C38.1622 78.9018 37.8828 78.5378 37.5001 78.3168Z" fill="#3C7CFF"/>
<path d="M50 81.6666C49.558 81.6666 49.134 81.8422 48.8215 82.1548C48.5089 82.4673 48.3333 82.8913 48.3333 83.3333V90C48.3333 90.442 48.5089 90.8659 48.8215 91.1785C49.134 91.491 49.558 91.6666 50 91.6666C50.442 91.6666 50.8659 91.491 51.1785 91.1785C51.4911 90.8659 51.6666 90.442 51.6666 90V83.3333C51.6666 82.8913 51.4911 82.4673 51.1785 82.1548C50.8659 81.8422 50.442 81.6666 50 81.6666Z" fill="#3C7CFF"/>
<path d="M64.7767 78.9266C64.6681 78.7356 64.5227 78.5679 64.349 78.4332C64.1753 78.2985 63.9767 78.1996 63.7645 78.142C63.5524 78.0844 63.331 78.0693 63.113 78.0976C62.8951 78.126 62.6849 78.1971 62.4945 78.307C62.3042 78.4169 62.1374 78.5634 62.0039 78.738C61.8704 78.9126 61.7727 79.1119 61.7166 79.3244C61.6604 79.5369 61.6468 79.7584 61.6766 79.9762C61.7063 80.194 61.7789 80.4037 61.8901 80.5933L65.2234 86.3666C65.332 86.5577 65.4774 86.7254 65.6511 86.8601C65.8248 86.9948 66.0234 87.0937 66.2356 87.1513C66.4477 87.2089 66.6691 87.224 66.8871 87.1957C67.105 87.1673 67.3152 87.0962 67.5056 86.9863C67.696 86.8764 67.8627 86.7299 67.9962 86.5553C68.1297 86.3807 68.2274 86.1814 68.2836 85.9689C68.3397 85.7564 68.3533 85.5349 68.3236 85.3171C68.2938 85.0993 68.2212 84.8896 68.1101 84.7L64.7767 78.9266Z" fill="#3C7CFF"/>
<path d="M79.7 71.89L73.9267 68.5567C73.5441 68.3391 73.091 68.2818 72.6663 68.3971C72.2415 68.5124 71.8796 68.791 71.6596 69.1722C71.4395 69.5533 71.3792 70.0061 71.4916 70.4315C71.6041 70.857 71.8804 71.2208 72.26 71.4433L78.0334 74.7767C78.223 74.8878 78.4327 74.9604 78.6505 74.9902C78.8683 75.02 79.0898 75.0064 79.3023 74.9502C79.5148 74.894 79.7141 74.7963 79.8887 74.6628C80.0633 74.5293 80.2097 74.3626 80.3197 74.1722C80.4296 73.9819 80.5007 73.7717 80.529 73.5537C80.5574 73.3357 80.5423 73.1143 80.4847 72.9022C80.4271 72.6901 80.3282 72.4914 80.1935 72.3177C80.0588 72.144 79.8911 71.9986 79.7 71.89Z" fill="#3C7CFF"/>
<path d="M83.3333 55H76.6667C76.2246 55 75.8007 55.1756 75.4882 55.4882C75.1756 55.8007 75 56.2246 75 56.6667C75 57.1087 75.1756 57.5326 75.4882 57.8452C75.8007 58.1577 76.2246 58.3333 76.6667 58.3333H83.3333C83.7754 58.3333 84.1993 58.1577 84.5118 57.8452C84.8244 57.5326 85 57.1087 85 56.6667C85 56.2246 84.8244 55.8007 84.5118 55.4882C84.1993 55.1756 83.7754 55 83.3333 55Z" fill="#3C7CFF"/>
<path d="M73.095 45.0001C73.3876 45.0007 73.6752 44.9236 73.9283 44.7767L79.7017 41.4434C79.8927 41.3348 80.0604 41.1894 80.1951 41.0157C80.3298 40.842 80.4288 40.6434 80.4863 40.4312C80.5439 40.2191 80.559 39.9977 80.5307 39.7797C80.5023 39.5618 80.4312 39.3515 80.3213 39.1612C80.2114 38.9708 80.0649 38.8041 79.8903 38.6706C79.7157 38.5371 79.5164 38.4394 79.3039 38.3832C79.0914 38.3271 78.8699 38.3135 78.6521 38.3432C78.4344 38.373 78.2246 38.4456 78.035 38.5567L72.2617 41.8901C71.9439 42.0735 71.6956 42.3567 71.5553 42.6956C71.4149 43.0346 71.3902 43.4104 71.4852 43.7648C71.5802 44.1192 71.7894 44.4323 72.0804 44.6556C72.3715 44.879 72.7281 45.0001 73.095 45.0001Z" fill="#3C7CFF"/>
<path d="M67.5001 26.3551C67.3104 26.2457 67.1011 26.1748 66.884 26.1463C66.667 26.1179 66.4464 26.1325 66.235 26.1893C66.0236 26.2461 65.8254 26.344 65.6519 26.4774C65.4783 26.6108 65.3327 26.7771 65.2234 26.9667L61.8901 32.7401C61.7789 32.9297 61.7063 33.1394 61.6766 33.3572C61.6468 33.575 61.6604 33.7965 61.7166 34.009C61.7727 34.2215 61.8704 34.4208 62.0039 34.5954C62.1374 34.77 62.3042 34.9164 62.4945 35.0263C62.6849 35.1362 62.8951 35.2074 63.113 35.2357C63.331 35.2641 63.5524 35.249 63.7645 35.1914C63.9767 35.1338 64.1753 35.0349 64.349 34.9002C64.5227 34.7655 64.6681 34.5978 64.7767 34.4067L68.1101 28.6334C68.2197 28.4438 68.291 28.2344 68.3197 28.0172C68.3484 27.8001 68.334 27.5794 68.2774 27.3678C68.2207 27.1562 68.1229 26.9578 67.9895 26.7841C67.8561 26.6103 67.6898 26.4645 67.5001 26.3551Z" fill="#3C7CFF"/>
</svg>
