<svg width="102" height="86" viewBox="0 0 102 86" fill="none" xmlns="http://www.w3.org/2000/svg">
<path d="M75.0326 53.9171L75.0326 53.9171L75.0313 53.9184C73.3641 55.5352 72.4508 57.686 72.4508 59.9611V65.7465L70.5166 68.0433L70.5166 68.0433L70.5146 68.0456C70.2745 68.338 70.1375 68.7006 70.1375 69.094V71.087C70.1375 71.9929 70.8793 72.716 71.7755 72.716H76.8958C77.1314 74.9992 79.0522 76.7909 81.3978 76.7909C83.7434 76.7909 85.6641 74.9992 85.8998 72.716H91.0201C91.9212 72.716 92.6581 71.9923 92.6581 71.087V69.094C92.6581 68.714 92.5212 68.3433 92.2823 68.0473L92.2824 68.0473L92.2783 68.0424L90.3268 65.7459V60.2593C90.3268 56.5445 87.955 53.31 84.6548 52.0002V50.9884C84.6548 49.1863 83.1859 47.7223 81.3887 47.7223C79.5867 47.7223 78.1226 49.1913 78.1226 50.9884V51.9883C76.9729 52.4225 75.92 53.069 75.0326 53.9171ZM80.9092 50.9765V50.9748C80.9092 50.7036 81.1265 50.4864 81.3977 50.4864C81.6689 50.4864 81.8861 50.7036 81.8861 50.9748V51.3715C81.8143 51.3656 81.7387 51.3612 81.6608 51.361C81.4099 51.3511 81.1525 51.3633 80.9065 51.379L80.9092 50.9765ZM74.8271 67.2361L74.8278 67.2352C75.0911 66.9203 75.2375 66.5303 75.2375 66.1184V59.9437C75.2375 58.4305 75.8575 56.9907 76.9722 55.8969C78.2001 54.7166 79.8426 54.079 81.5855 54.1347L81.587 54.1347C84.8812 54.2201 87.5493 56.9695 87.5493 60.2507V66.1273C87.5493 66.5392 87.6957 66.9292 87.9589 67.2441L87.9596 67.245L89.8715 69.5106L89.8714 69.9255H72.9153V69.5018L74.8271 67.2361ZM81.3888 74.0004C80.5813 74.0004 79.9063 73.4528 79.6983 72.7032H83.0733C82.8833 73.4518 82.2015 74.0004 81.3888 74.0004Z" fill="#3C7CFF" stroke="#3C7CFF" stroke-width="0.5"/>
<path d="M87.9637 50.5841L87.9638 50.5841C88.0321 50.2358 88.371 49.9701 88.7432 50.0445L88.7514 50.0462L88.7594 50.0483C90.7328 50.5823 93.7422 52.5998 93.6596 57.2294L93.6595 57.2346L93.6594 57.2346C93.6454 57.5999 93.3361 57.8964 92.9642 57.8749L92.9646 57.875L92.9781 57.6253L92.9634 57.8749L87.9637 50.5841ZM87.9637 50.5841L87.9627 50.5903M87.9637 50.5841L87.9627 50.5903M87.9627 50.5903L87.7138 52.0571M87.9627 50.5903L87.7138 52.0571M87.7138 52.0571C87.6567 52.3756 87.8447 52.688 88.1565 52.7836L87.7138 52.0571ZM91.4846 57.795C91.4851 57.795 91.4857 57.795 91.4863 57.795L91.4967 57.5453L91.4832 57.7949L91.4846 57.795Z" fill="#3C7CFF" stroke="#3C7CFF" stroke-width="0.5"/>
<path d="M73.7406 50.0689L73.7406 50.0689L69.0846 57.2471H68.8346C68.8346 57.2478 68.8346 57.2485 68.8346 57.2493C68.8359 57.6284 69.1697 57.9112 69.526 57.8972L69.526 57.8973L69.5296 57.8971L71.011 57.817L71.011 57.817L71.0128 57.8169C71.371 57.795 71.6243 57.4939 71.6123 57.152C71.5958 55.5477 72.0887 54.5283 72.6686 53.8798C73.2537 53.2255 73.9453 52.9291 74.3489 52.8064L74.362 52.8024L74.3746 52.797C74.6552 52.6767 74.8478 52.3798 74.7891 52.0558C74.789 52.0557 74.789 52.0555 74.789 52.0554L74.5271 50.5903C74.467 50.2186 74.098 49.9814 73.7406 50.0689Z" fill="#3C7CFF" stroke="#3C7CFF" stroke-width="0.5"/>
<path d="M52.2877 51.009L52.2878 51.009C52.5807 50.7685 53.0912 50.5003 53.8757 50.589M52.2877 51.009L53.8478 50.8374M52.2877 51.009L52.2848 51.0115C51.2219 51.912 49.5793 53.6677 48.0533 55.3758C46.5812 57.0237 45.2059 58.6407 44.5402 59.4357H39.3943C38.9048 59.4357 38.5082 59.8323 38.5082 60.3218V74.2282C38.5082 74.7177 38.9048 75.1143 39.3943 75.1143H57.9802C59.7638 75.1143 61.2891 73.8552 61.6417 72.1113L61.6418 72.1108L63.3501 63.5695C63.6408 62.1157 63.0585 60.6037 61.7547 59.7279C61.1059 59.286 60.3393 59.0931 59.5776 59.0931H55.3525M52.2877 51.009L55.3525 59.0931M53.8757 50.589C53.8757 50.589 53.8758 50.589 53.8759 50.589L53.8478 50.8374M53.8757 50.589C53.8757 50.589 53.8756 50.589 53.8756 50.589L53.8478 50.8374M53.8757 50.589C54.4142 50.6494 55.0529 50.8852 55.6194 51.19C56.1837 51.4935 56.7121 51.8845 57.0101 52.2794M53.8478 50.8374C54.8398 50.9486 56.2767 51.7227 56.8106 52.43M57.0101 52.2794L57.0101 52.2794L56.8106 52.43M57.0101 52.2794L57.0122 52.2822C57.1011 52.3999 57.225 52.564 57.2951 52.8351C57.3644 53.1029 57.3769 53.4547 57.2923 53.9547C57.1314 54.9063 56.6086 56.4516 55.3525 59.0931M57.0101 52.2794L56.8106 52.43M56.8106 52.43L55.3525 59.0931M60.6144 63.0302L60.6142 63.0309L58.9147 71.558C58.9146 71.5582 58.9146 71.5584 58.9145 71.5587C58.8222 72.0117 58.4351 72.3275 57.9763 72.3275H46.5714V61.325C47.7358 59.9443 51.726 55.2549 53.7756 53.4012C53.8836 53.4368 54.013 53.4915 54.1483 53.5586C54.2761 53.622 54.4014 53.6925 54.5092 53.7604C54.3928 54.2133 54.1224 54.9436 53.7573 55.8185C53.3487 56.7978 52.8305 57.9373 52.3029 59.028C52.2212 59.1913 51.8361 59.9616 51.5083 60.6083C51.2039 61.1998 51.636 61.884 52.287 61.884H59.6761C59.9672 61.884 60.2368 62.0113 60.4148 62.2346C60.5977 62.4642 60.6702 62.7544 60.6144 63.0302ZM46.5714 72.5775H46.3214V72.3275L46.5714 72.5775ZM41.2771 72.3275V62.2132H43.7932V72.3275H41.2771Z" fill="#3C7CFF" stroke="#3C7CFF" stroke-width="0.5"/>
<path d="M34.0348 63.7788C34.0439 57.9327 29.2739 53.1632 23.4195 53.1632H17.9211C12.0667 53.1632 7.30585 57.9194 7.30585 63.7785C7.30585 69.6329 12.062 74.3937 17.9211 74.3937H23.4195C29.2738 74.3937 34.0346 69.6378 34.0348 63.7788ZM34.0348 63.7788L33.7848 63.7785H34.0348C34.0348 63.7786 34.0348 63.7787 34.0348 63.7788ZM23.4195 71.6204H17.9211C13.593 71.6204 10.0835 68.0981 10.0835 63.7828C10.0835 59.4678 13.6061 55.9452 17.9211 55.9452H23.4195C27.7476 55.9452 31.2571 59.4675 31.2571 63.7828C31.2571 68.1024 27.7477 71.6204 23.4195 71.6204Z" fill="#3C7CFF" stroke="#3C7CFF" stroke-width="0.5"/>
<path d="M25.8773 58.7251L19.482 65.7846L15.9498 62.8729L15.9498 62.8729L15.9475 62.871C15.6631 62.6421 15.2427 62.6717 15.005 62.9661C15.0048 62.9663 15.0046 62.9666 15.0044 62.9669L14.0935 64.0821L14.0935 64.0821L14.0924 64.0835C13.8635 64.3678 13.893 64.7881 14.1872 65.0258C14.1875 65.026 14.1879 65.0263 14.1882 65.0266L19.4935 69.3846L19.4934 69.3847L19.4998 69.3896C19.6593 69.5123 19.8863 69.4929 20.0196 69.3463L20.02 69.3459L27.9456 60.5885C28.2101 60.3067 28.159 59.8863 27.8959 59.6435L27.8959 59.6435L27.8941 59.6418L26.8238 58.6737C26.5421 58.4093 26.1217 58.4604 25.8789 58.7234L25.8773 58.7251Z" fill="#3C7CFF" stroke="#3C7CFF" stroke-width="0.5"/>
<path d="M101.25 46.4202C101.25 43.2321 98.6798 40.6465 95.5096 40.6229L95.5079 40.6223H95.4647H84.0644V4.44317C84.0644 2.41481 82.4136 0.75445 80.3756 0.75445L17.8068 0.75C15.7784 0.75 14.118 2.40077 14.118 4.43872V40.6224H6.53407C3.34425 40.6224 0.75 43.2167 0.75 46.4065V79.7403C0.75 82.9301 3.34425 85.5244 6.53407 85.5244H95.4659C98.6557 85.5244 101.25 82.9301 101.25 79.7403V46.4202ZM98.457 79.7534V80.0034H98.4603C98.3323 81.5454 97.0311 82.7598 95.4642 82.7598H6.51869C4.86001 82.7598 3.5123 81.4041 3.5123 79.7534V46.4196C3.5123 44.7605 4.85946 43.4132 6.51869 43.4132H95.4506C97.1097 43.4132 98.457 44.7604 98.457 46.4196V79.7534ZM16.8946 4.44317C16.8946 3.9451 17.3076 3.53213 17.8056 3.53213L80.3745 3.52768C80.8726 3.52768 81.2856 3.94068 81.2856 4.43872V40.6224H16.8946V4.44317Z" fill="#3C7CFF" stroke="#3C7CFF" stroke-width="0.5"/>
<path d="M41.4312 36.987L41.4312 36.9871L41.4352 36.9845L60.7203 24.3411L60.7214 24.3404C61.281 23.9693 61.2781 23.1466 60.7229 22.7725L60.7229 22.7725L60.7202 22.7707L41.4354 10.1415C41.4353 10.1414 41.4353 10.1414 41.4352 10.1414C40.8177 9.7359 39.976 10.1709 39.976 10.9332V36.1926C39.976 36.9411 40.8015 37.3828 41.4312 36.987ZM42.7672 14.3283L56.8481 23.5561L42.7672 32.7838V14.3283Z" fill="#3C7CFF" stroke="#3C7CFF" stroke-width="0.5"/>
</svg>
