<?xml version="1.0" encoding="utf-8"?>
<!-- Generator: Adobe Illustrator 24.3.0, SVG Export Plug-In . SVG Version: 6.00 Build 0)  -->
<svg version="1.1" id="Layer_1" xmlns="http://www.w3.org/2000/svg" xmlns:xlink="http://www.w3.org/1999/xlink" x="0px" y="0px"
	 width="2462.5px" height="338.3px" viewBox="0 0 2462.5 338.3" style="enable-background:new 0 0 2462.5 338.3;"
	 xml:space="preserve">
<g>
	<path d="M478.2,5.1L397.2,335H284.5l-45.4-202.1L192.8,335H80L0,5.1h99.2l38.4,225.5L189.5,5.1h100.6l50.5,223.6L379,5.1H478.2z"/>
	<path d="M618.1,5.1V335h-91.7V5.1H618.1z"/>
	<path d="M874.9,335L771.5,190.4V335h-91.7V5.1h91.7v142.2L874,5.1h105.7l-121.2,160L985.8,335H874.9z"/>
	<path d="M1120.6,5.1V335h-91.7V5.1H1120.6z"/>
	<path d="M1274,264.8h102.5V335h-194.2V5.1h91.7V264.8z"/>
	<path d="M1494.4,316.5c-25.9-14.5-46.4-34.6-61.5-60.4c-15.1-25.7-22.7-54.8-22.7-87.3c0-32.4,7.6-61.5,22.7-87.3
		c15.1-25.7,35.6-45.8,61.5-60.1C1520.3,7.2,1548.7,0,1579.6,0c31.2,0,59.7,7.2,85.4,21.5c25.7,14.4,46.1,34.4,61.1,60.1
		c15,25.7,22.5,54.8,22.5,87.3c0,32.4-7.5,61.5-22.5,87.3c-15,25.7-35.4,45.9-61.3,60.4c-25.9,14.5-54.3,21.8-85.2,21.8
		S1520.3,331,1494.4,316.5z M1635,230.2c13.6-15.3,20.4-35.7,20.4-61.3c0-26.2-6.8-46.9-20.4-62c-13.6-15.1-32-22.7-55.4-22.7
		c-23.7,0-42.3,7.6-55.7,22.7c-13.4,15.1-20.1,35.8-20.1,62c0,25.9,6.7,46.4,20.1,61.5c13.4,15.1,32,22.7,55.7,22.7
		C1603,253.1,1621.5,245.5,1635,230.2z"/>
	<path d="M2009.6,113.7c-5.3-8.7-12.6-15.4-21.8-20.1c-9.2-4.7-20-7-32.5-7c-23.1,0-41.3,7.5-54.5,22.5
		c-13.3,15-19.9,35.1-19.9,60.4c0,28.4,7.1,50,21.3,64.8c14.2,14.8,34.9,22.2,62,22.2c32.1,0,55-14.5,68.8-43.5h-92.2v-66H2112v88.9
		c-7.2,17.5-17.7,33.8-31.6,49.1c-13.9,15.3-31.4,27.8-52.6,37.7c-21.2,9.8-45.4,14.7-72.5,14.7c-33.1,0-62.3-7.1-87.7-21.3
		c-25.4-14.2-45.1-34-59-59.4c-13.9-25.4-20.8-54.5-20.8-87.3c0-32.4,6.9-61.4,20.8-86.8c13.9-25.4,33.5-45.2,58.7-59.4
		c25.3-14.2,54.4-21.3,87.5-21.3c41.5,0,75.8,10,102.9,29.9c27.1,20,44,47.3,50.5,81.9H2009.6z"/>
	<path d="M2462.5,5.1l-116,225.1V335h-92.2V230.2l-116-225.1H2243l58,127.3l58-127.3H2462.5z"/>
</g>
</svg>
