<?xml version="1.0" encoding="utf-8"?>
<!-- Generator: Adobe Illustrator 24.3.0, SVG Export Plug-In . SVG Version: 6.00 Build 0)  -->
<svg version="1.1" id="Layer_1" xmlns="http://www.w3.org/2000/svg" xmlns:xlink="http://www.w3.org/1999/xlink" x="0px" y="0px"
	 width="2252.7px" height="1050.4px" viewBox="0 0 2252.7 1050.4" style="enable-background:new 0 0 2252.7 1050.4;"
	 xml:space="preserve">
<style type="text/css">
	.st0{fill:#FFFFFF;}
</style>
<g>
	<g>
		<g>
			<path class="st0" d="M218.1,467.8c1.6,0,3.3,0.3,4.9,0.9s3.2,1.7,4.7,3.2l27.5,28.9c-12,15.7-27.1,27.6-45.2,35.6
				c-18.1,8-39.6,12-64.3,12c-22.7,0-43.1-3.9-61-11.6c-18-7.7-33.2-18.4-45.8-32c-12.5-13.6-22.1-29.8-28.8-48.4
				C3.4,437.8,0,417.5,0,395.6c0-22.3,3.8-42.8,11.5-61.5c7.7-18.7,18.4-34.8,32.1-48.3c13.7-13.5,30.2-24.1,49.3-31.6
				c19.1-7.5,40.3-11.3,63.4-11.3c11.2,0,21.8,1,31.7,3c9.9,2,19.2,4.7,27.8,8.2c8.6,3.5,16.5,7.7,23.8,12.5
				c7.2,4.9,13.7,10.2,19.3,16.1l-23.4,31.4c-1.5,1.9-3.3,3.7-5.3,5.2c-2.1,1.6-4.9,2.4-8.6,2.4c-2.5,0-4.8-0.5-7-1.6
				c-2.2-1.1-4.5-2.4-7-4c-2.5-1.6-5.2-3.3-8.1-5.1c-2.9-1.8-6.4-3.6-10.5-5.1c-4-1.6-8.8-2.9-14.2-4c-5.4-1.1-11.7-1.6-19-1.6
				c-12.6,0-24.1,2.2-34.5,6.7c-10.4,4.4-19.3,10.8-26.8,19.1c-7.5,8.3-13.3,18.3-17.4,30.1c-4.2,11.8-6.3,25-6.3,39.6
				c0,15.3,2.1,28.9,6.3,40.8c4.2,11.9,9.8,21.9,17,30.1c7.2,8.1,15.6,14.3,25.1,18.6c9.6,4.2,19.8,6.4,30.8,6.4
				c6.3,0,12-0.3,17.2-0.9c5.2-0.6,10-1.7,14.5-3.2c4.4-1.5,8.7-3.5,12.7-5.8c4-2.4,8.1-5.4,12.2-8.9c1.6-1.4,3.4-2.5,5.3-3.4
				C214.1,468.3,216.1,467.8,218.1,467.8z"/>
			<path class="st0" d="M411.2,490.4c9.3,0,17.6-1.5,24.9-4.6c7.3-3.1,13.5-7.5,18.6-13.2c5.1-5.7,8.9-12.8,11.6-21
				c2.7-8.3,4-17.7,4-28.2V246.2h69.4v177.1c0,18.3-3,35.2-8.9,50.5c-6,15.3-14.5,28.5-25.5,39.6c-11.1,11.1-24.6,19.7-40.4,25.9
				c-15.9,6.2-33.7,9.2-53.6,9.2c-20,0-37.9-3.1-53.8-9.2c-15.9-6.2-29.3-14.8-40.4-25.9c-11.1-11.1-19.6-24.3-25.4-39.6
				c-5.9-15.3-8.8-32.1-8.8-50.5V246.2h69.4v176.9c0,10.5,1.3,19.9,4,28.2c2.7,8.3,6.5,15.3,11.6,21.1c5.1,5.8,11.2,10.3,18.6,13.3
				C393.6,488.9,401.9,490.4,411.2,490.4z"/>
			<path class="st0" d="M654.1,445.3v99.9h-69.4V246.2h105.5c21.1,0,39.2,2.5,54.3,7.5c15.1,5,27.6,11.9,37.3,20.6
				c9.8,8.8,17,19.1,21.6,31c4.6,11.9,7,24.8,7,38.6c0,14.9-2.4,28.6-7.2,41c-4.8,12.4-12.1,23.1-22,32
				c-9.8,8.9-22.3,15.8-37.4,20.8c-15.1,5-33,7.5-53.7,7.5H654.1z M654.1,393h36.1c18.1,0,31-4.3,39-12.9
				c7.9-8.6,11.9-20.7,11.9-36.1c0-6.8-1-13.1-3.1-18.7c-2.1-5.6-5.2-10.4-9.3-14.5c-4.2-4-9.4-7.1-15.8-9.3
				c-6.4-2.2-13.9-3.3-22.7-3.3h-36.1V393z"/>
			<path class="st0" d="M922.5,545.2h-69.8V246.2h69.8V545.2z"/>
			<path class="st0" d="M1249.1,395.6c0,21.6-3.7,41.5-11.2,59.8c-7.5,18.3-18,34.1-31.5,47.4c-13.5,13.3-29.9,23.7-48.9,31.2
				c-19.1,7.5-40.3,11.2-63.5,11.2H977.9V246.2H1094c23.3,0,44.4,3.8,63.5,11.3c19.1,7.5,35.4,17.9,48.9,31.2
				c13.5,13.3,24,29,31.5,47.3C1245.4,354.3,1249.1,374.1,1249.1,395.6z M1178.1,395.6c0-14.8-1.9-28.1-5.7-40
				c-3.8-11.9-9.3-22-16.5-30.3c-7.2-8.3-16-14.6-26.4-19.1c-10.4-4.4-22.2-6.7-35.5-6.7h-46.4v192.3h46.4c13.3,0,25.1-2.2,35.5-6.7
				c10.4-4.4,19.2-10.8,26.4-19.1c7.2-8.3,12.7-18.4,16.5-30.3C1176.2,423.9,1178.1,410.5,1178.1,395.6z"/>
		</g>
		<g>
			<path class="st0" d="M334.8,768.3h73.9v37H288.6V605.8h46.3V768.3z"/>
			<path class="st0" d="M616.5,705.4c0,14.4-2.5,27.8-7.5,40.2c-5,12.4-12,23.2-21,32.4c-9,9.2-19.9,16.4-32.6,21.6
				c-12.7,5.2-26.8,7.8-42.4,7.8c-15.5,0-29.7-2.6-42.4-7.8c-12.8-5.2-23.7-12.4-32.8-21.6c-9.1-9.2-16.1-20-21.1-32.4
				c-5-12.4-7.5-25.8-7.5-40.2c0-14.4,2.5-27.8,7.5-40.2c5-12.4,12-23.2,21.1-32.3c9.1-9.1,20-16.3,32.8-21.5
				c12.8-5.2,26.9-7.8,42.4-7.8c15.5,0,29.6,2.6,42.4,7.9c12.7,5.2,23.6,12.4,32.6,21.6c9,9.1,16,19.9,21,32.3
				C614,677.8,616.5,691.1,616.5,705.4z M569.1,705.4c0-9.9-1.3-18.7-3.8-26.6c-2.6-7.9-6.2-14.6-11-20.1
				c-4.8-5.5-10.7-9.7-17.6-12.6c-6.9-2.9-14.8-4.4-23.7-4.4c-8.9,0-16.9,1.5-23.9,4.4c-7,2.9-12.9,7.1-17.7,12.6
				c-4.8,5.5-8.5,12.2-11,20.1c-2.6,7.9-3.8,16.8-3.8,26.6c0,9.9,1.3,18.9,3.8,26.8c2.6,7.9,6.2,14.6,11,20.1
				c4.8,5.5,10.7,9.6,17.7,12.5c7,2.9,14.9,4.3,23.9,4.3c8.8,0,16.7-1.4,23.7-4.3c6.9-2.9,12.8-7,17.6-12.5
				c4.8-5.5,8.5-12.2,11-20.1C567.9,724.3,569.1,715.4,569.1,705.4z"/>
			<path class="st0" d="M614,605.8h37.2c4,0,7.3,0.9,9.9,2.7c2.6,1.8,4.4,4.2,5.5,7.3l38.6,106.8c1.7,4.7,3.5,9.7,5.3,15.2
				s3.4,11.2,5,17.2c1.3-6,2.8-11.8,4.4-17.2c1.7-5.5,3.4-10.5,5-15.2l38.3-106.8c0.9-2.6,2.7-4.9,5.3-6.9c2.6-2.1,5.9-3.1,9.7-3.1
				h37.5l-79.9,199.4H694L614,605.8z"/>
			<path class="st0" d="M960.6,605.8v35.6h-81.8v46.5h62.7v34.2h-62.7v47.5h81.8v35.6H832.2V605.8H960.6z"/>
		</g>
	</g>
	<g>
		<path class="st0" d="M2252.4,168.9c-9.3-1.2-18.7-2.5-28.1-3.6c-15.3-1.9-30.6-4.1-45.9-5.3c-9.2-0.7-15.8,5-18.1,13.7
			c-2.3,8.7,0.7,14.9,9.3,19.8c1.3,0.8,3.7,0.4,3.8,3.1c-11.5,4.5-22.9,9.2-34.5,13.5c-6.6,2.5-14-3.6-12.9-10.3
			c2.3-14.8,2.7-29.7,1.2-44.6c-2.8-27.1-14.1-48.7-39.5-61.2c-7.2-3.5-14.5-6.6-22.2-8.9c-24.5-7.4-49.5-8.4-74.8-7.4
			c-20.3,0.8-38.9-4.5-53.2-19.8c-13.6-14.6-13.4-29.7-0.1-44.4c0.1-0.1-0.3-0.8-0.5-1.3c-4.1-0.5-6.8,2.1-9.1,4.6
			c-8.9,9.6-12.1,21.4-6.4,32.8c6,11.9,3.3,21.8-1.6,32.4c-0.6,1.4-1.6,2.7-1.1,4.3c-0.3,1.8,0.7,1.8,2,1.5
			c2.4-5.5,5.4-10.8,7.1-16.6c1.4-4.7,2.8-3.3,4.8-1.1c15.9,17.2,36.5,23.1,58.9,24.9c20,1.6,40,3.2,59.2,9.7
			c17.2,5.8,32.9,15,40,31.8c12.5,30,19.3,60.8-2.7,90.3c-2.1,2.8-4.1,4.8-7.5,6.1c-48,18.6-96,37.1-143.7,56.5
			c-12.8,5.2-24.4,8.5-36.9,0.7c-3.4-2.1-8.1-2.8-10.8,0c-2.4,2.4,2.1,5.2,2.4,8.2c0,0.4-0.2,0.8-0.4,1.6c-5.7-2.5-10.5-10.9-18-3.1
			c3,2.6,5.9,5.2,10.6,9.3c-11-2.9-19.1-10.7-28.6-2.8c-2.1,1.7-2.9-0.6-3.2-2.6c-0.9-5.9,0.6-11.2,3.4-16.3
			c5.7-10.3,15-16.9,24.5-23c12.9-8.3,22.5-19.5,29.9-32.7c6.7-11.9,5.9-19-3-29.5c-2.5-3-5.2-6-5.7-9.9
			c-1.8-15.5-5.9-30.5-9.5-45.7c-2.2-9.3-7.9-13.7-17.2-11.2c-2.8,0.8-5.5,2.8-9,0.3c4.2-1.8,9.1-1.4,11.7-6.1l-7.2,1.7
			c4.1-4.2,8.7-6.5,10.4-12.6c-3.8,3.1-6.4,5.5-9.3,7.5c-2.2,1.4-4.3,4.9-7.3,2.5c-2.7-2.2-6.8-3.6-5.7-8.9c1.3-5.9-1.3-11-4.8-15.7
			c-5.2-6.8-10.3-13.7-15.6-20.7c4.1-1,7.6-1.6,11.1-2.7c7.7-2.3,13.4-7.3,14.8-15.3c2.3-12.8,0.2-25-10.3-33.8
			c-10-8.3-21.3-6.4-31.9-1c-3.4,1.7-4.8,1.8-6.2-1.8c-12.4-30.4-59.8-35.1-79.7-9.6c-1.9,2.4-4.3,4.5-6.2,6.9
			c-2.3,3-4.2,3.7-7.3,0.6c-5.2-5.2-11.8-7.1-19.1-6.8c-21.5,1-39.7,17.4-41.1,38.9c-0.6,8.4-3.2,11.1-11.1,13.3
			c-26,7.1-42.4,24.2-48.4,50.8c-5.8,25.9-2.3,49.2,18.5,67.6c3.3,2.9,2.3,4.7,0.7,7.6c-6.8,12-10,24.8-7.5,38.6
			c5.4,30.1,31.9,52.6,63.1,53.5c5.1,0.1,8,0.3,8,7.2c-0.1,14.4,12.8,25.7,27.4,25.8c9,0,16.7-3.1,23.9-9.8
			c0.3,7.4,3.1,11.9,9.5,13.6c6.9,1.8,12.7,0,17.4-5.3c0.7-0.8,1.2-1.6,1.9-2.4c1.9-2.5,3.8-2.1,5.8-0.1c3.4,3.3,4.2,15.3,0.6,18.7
			c-7.7,7.4-12.3,16.5-15.5,26.4c-1.7,5.3-5.2,7.8-10,9.7c-15.3,6-31.2,6.9-47.1,4.6c-29.3-4.3-56.6-12.3-75.1-38.7
			c-7.5-10.7-19.4-13.8-32.5-10.9c-6.3,1.4-12.6,3.3-18,6.8c-14.9,9.5-31,16.1-47.8,21.1c-36.9,11-74,18.1-112.5,8.2
			c-9.9-2.6-20-4.8-30.3-5.6c-3-0.2-6.7-1.2-8.4,2.1c-1.6,3,0.5,5.9,2.3,8.5c9.3,13.6,22.6,21.6,38,26.2c21.1,6.3,42.6,6.3,64.2,4.3
			c15.4-1.5,30.6-4.5,45.8-7.2c-16.5,11.6-35.4,16-54.9,18c-10.2,1-20.5,1.5-30.8,2.4c-2.6,0.2-5.4,0.6-6.5,3.3
			c-1.2,3,1.5,4.7,3.1,6.5c6.1,6.8,13.9,10.4,22.7,12.2c13.8,2.9,27.7,1.9,41.4-0.5c25.9-4.4,51.1-12,76.1-20.8
			c-1,2.3-2.8,3-4.6,4.1c-17.1,10.2-35.8,16.9-54.1,24.3c-3.1,1.2-8.5,2.1-8.1,5.9c0.4,4.3,5.9,4.2,9.5,4.9
			c18.6,3.4,36.3-0.7,53.9-6.2c12.5-3.9,24.6-8.8,38.1-14.8c-5,4.6-8.9,7.9-12.5,11.5c-2.3,2.4-4.7,5.3-2.9,8.9
			c1.6,3.3,5.1,4.2,8.5,4.4c7.1,0.3,13.7-1.9,20.1-4.6c10.8-4.6,20.6-11.1,31.5-18.2c-0.7,2.6-1.1,4-1.3,5.3
			c-1.5,9,3.3,13.4,12.1,10.8c5.8-1.7,10.7-5,14.9-9.3c5.1-5.2,10.1-10.7,15.8-16.8c-0.7,2.3-1.2,3.6-1.4,5
			c-0.7,3.7-2.5,7.7,0.9,10.9c3.3,3,6.9,0.5,10.2-0.3c7.3-1.7,13.3-6.4,21.1-10.4c-6.9,13.9-13.8,26.1-24.4,35.8
			c-7.6,6.9-16.1,11.4-27.1,10.7c-14.8-0.9-29.3,2.4-43.2,7.2c-44.6,15.5-65.1,52.2-55.5,98.5c0.5,2.3,0.8,4.3-0.7,6.5
			c-21.5,29.6-37,61.6-40.1,99.4c-14.3-10-29.4-16.4-46.1-18.1c-16-1.7-31.9-0.6-47.6,2.9c-17.2,3.9-33.2,3.2-47.2-9
			c-2.3-2-5.2-3.3-8-4.7c-11.5-5.9-21.8-4.2-30.9,5c-4.4,4.5-8,9.6-10.1,15.4c-3.6,10-10.2,17.2-19.5,21.9
			c-16.6,8.4-26.9,22-32.8,39.2c-1.1,3.2-2.5,4.9-6.1,5.8c-8.1,2.2-13.1,9-13.5,16.9c-0.3,6.2,2.2,11.1,7.8,13.9
			c5.4,2.8,9.2-0.4,12.9-4c3.8-3.7,7.4-8,12.9-9.4c18.7-4.9,36.5-12.6,54.7-19.1c19.8-7,39.8-11.3,60.1-1.7
			c39.1,18.6,82.2,21.7,123.5,32c11,2.7,20.9-0.6,27.7-9.3c6.8-8.8,15.8-14.4,24.4-20.8c11.5-8.6,22.5-17.7,34.1-27
			c9.7,22.9,22.5,43.4,41.2,60.9c-3.1,0.5-4.8,0.9-6.6,1c-26,2.7-46.7,14.6-62.7,35.2c-11.3,14.5-22.9,29-30.1,45.7
			c-8.4,19.1-20.6,30.2-41.7,30.8c-0.8,0-1.5,0.3-2.2,0.5c-16,4.5-22,13.9-18.8,30.1c2.2,11.4,5.3,22.6,7.6,33.9
			c5.6,28,20.7,53.1,25,81.7c0.7,4.7,4.6,8.6,10.5,8.5c1,0,2.2-0.3,2.9,0.2c8.1,5.4,16.8,7.4,26.7,6.6c10-0.8,12.1-2,11.6-12.4
			c1.8,0.4,3.5,0.9,5.2,1.3c6.9,1.4,11.7-1.6,14.2-7.8c2.6-6.6-3.7-7.3-7.3-9.7c-3-2-6.2-3.7-9.3-5.4c-2.2-1.2-3.3-3-3.8-5.4
			c-3.4-15.4-5.6-30.9-4.6-46.7c0.7-10.5,4.6-19.2,12.7-26.3c12-10.5,24.4-20.4,37-30.3c31.3-24.6,63.1-48.5,92.5-75.6
			c18.6-17.2,28.5-37.7,31-62.7c3.9-39,1.5-77.6-5.3-116c-1-5.7,0.1-7.6,5.8-8.6c14.7-2.8,28.9-7.4,42.7-13.3
			c21.3-9.2,41.2-20.7,53.1-41.6c13.3-23.4,23.8-48,27.4-75c1.1-8,2.6-16,6.7-22.9c11.1-18.9,16.4-38.6,11.1-60.4
			c-0.9-3.8,0.8-5.5,4.2-6.7c8.5-3,16.9-6.3,25.3-9.6c20.7-8.1,39.9-20.5,62.7-23.1c4.8-0.5,7.6-5,10.9-8.2
			c5.3-4.9,8.8-11.4,14.7-15.8c22.2-16.4,42.3-35.1,60-56.4c6.9-8.3,14.2-16.3,22.5-23.3c3.1-2.6,4.4-2.1,6.2,1.1
			c9.3,16.7,17.5,33.8,21.2,52.8c5,26.2-1.9,48.3-21.7,66.3c-12.7,11.5-27.4,19.9-42.8,27.1c-23.5,11-46.6,22.4-58.2,48.1
			c-12.8-10.4-25-20.3-37.1-30.2c-1.4,0-2.1,0.4-1,1.8c10.5,9.4,20.9,19,31.7,28.2c3.5,3,4.8,5.6,3.4,10.4c-2.8,9.4-2,18.9,1.4,28.1
			c4.1,11.1,16.9,19.1,25.7,16.2c-3.4-2.3-7.1-4.2-10.1-6.9c-10.4-9.2-12-24.7-4-39.8c9.6-18.1,25.5-28.3,44.6-34.5
			c29.7-9.7,57.2-23.2,79.1-46.1c17.1-17.9,24.3-38.8,19.2-63.7c-4.6-22.8-13.3-43.7-26.3-62.9c-2.5-3.8-4.1-6.1,1.9-9.1
			c10-4.9,11.1-9.7,9.8-21.4c-0.7-6.1,1.9-12.7-3.8-17.7c-0.3-0.2,0.1-1.5,0.5-2.2c2.5-4.7,1.5-8.2-3.1-11.1
			c-3.9-2.4-3.2-4.8,0.9-6.3c11.4-4.4,22.9-8.8,35.1-13.6c-1.1,3-2,5.1-2.5,7.3c-3.2,12,6.1,23.1,18.5,22.1c6.3-0.5,11-4.1,14.9-8.8
			c14-16.8,28-33.6,42-50.4C2251.4,172.3,2253.6,171.4,2252.4,168.9z M2044.9,272.7c-29.2,13.6-57,29.6-83,48.6
			c-1.4,1-3.1,2.2-4.7,2.4c-17.9,1.9-35.8,2.8-54.4,1.6c1.8-3.2,3.2-5.9,5.2-9.6c-0.2,5.1,1.1,6.7,4.9,3.9c1.7-1.3,3.4-2.5,3.8-4.7
			c1.6-9.4,8.3-12.8,16.5-15.9c46.1-17.7,92-36,137.9-54.1c1.6-0.6,3.3-1.1,6-1.9C2069.4,257.2,2058.5,266.4,2044.9,272.7z"/>
		<path class="st0" d="M1531.6,288c-8.3-6-16.5-12.3-25-17.9c-14.9-9.8-29.6-19.7-41.6-33c-9-9.9-15-21.4-17.7-34.6
			c-0.8-3.7-1.9-8.3,2.1-10.6c4.4-2.5,7.9,1,10.8,3.8c5.5,5.4,10.2,11.6,16,16.7c34,29.9,72.2,51.8,117.2,60.5c5,1,10,2.3,15.1,3.2
			c19.5,3.2,33.1,13.9,43.9,30.6c17.7,27.6,43.9,44.2,76,51.1c6.6,1.4,13.2,1.4,20.3,0c0.4,5.7-2,8.2-7.3,9.7
			c-37,10.6-70.1,1.4-100.8-19.8c-4.9-3.4-8.6-8-11.9-13c-10.5-15.8-26.6-20.3-43.7-12c-7.6,3.7-14.8,8.2-22.2,12.3
			c-4.6,2.6-9.6,3.4-14.8,3.3c-15.5-0.4-30.7-2.1-45.4-7.7c-6.4-2.4-12-6-15.7-11.9c-1.1-1.7-2.2-3.7-1.1-5.8
			c1.2-2.2,3.5-2.2,5.5-1.9c4.8,0.8,9.6,1.8,14.3,3c18,4.7,36.1,7.3,54.9,4.2c-4.7-1.2-9.3-2.3-14-3.5c-23.5-5.9-46.5-13-67.6-25.5
			c-9.6-5.7-16.9-13.5-22.2-23.1c-1.5-2.6-5.2-5.7-2.1-8.9c2.6-2.5,5.9,0.2,8.5,1.4c19.1,9.1,38.7,16.9,58.3,24.5
			c3.5,1.4,7.1,2.6,10.6,3.8C1532,287.5,1531.8,287.7,1531.6,288z"/>
		<path class="st0" d="M1918.8,86.3c0.7,0.5,1.3,1,2,1.5c-3.9,14.1-10.8,27-15.9,40.6c-0.6-0.2-1.2-0.4-1.8-0.7
			C1908.3,113.9,1913.5,100.1,1918.8,86.3z"/>
		<path class="st0" d="M1972.6,453.8c-0.3,0.6-0.7,1.2-1,1.8c-7.7-6.4-15.4-12.9-23.2-19.3c0.4-0.6,0.9-1.1,1.3-1.7
			C1957.4,441,1965,447.4,1972.6,453.8z"/>
	</g>
</g>
</svg>
