<svg width="89" height="100" viewBox="0 0 89 100" fill="none" xmlns="http://www.w3.org/2000/svg">
<path d="M67.4971 45.1267H64.758C64.2639 43.1374 63.4855 41.2554 62.4366 39.5081L64.3689 37.5759C64.6428 37.302 64.7968 36.9311 64.7968 36.543C64.7968 36.1561 64.6428 35.7841 64.3689 35.5101L59.3175 30.4588C58.7697 29.911 57.7996 29.9121 57.2518 30.4588L55.3195 32.391C53.5711 31.341 51.6902 30.5638 49.701 30.0696V27.3305C49.701 26.5236 49.047 25.8696 48.2401 25.8696H41.0968C40.2899 25.8696 39.6359 26.5236 39.6359 27.3305V30.0696C37.6467 30.5638 35.7647 31.3421 34.0173 32.391L32.0851 30.4588C31.8112 30.1849 31.4403 30.0308 31.0523 30.0308C30.6654 30.0308 30.2933 30.1849 30.0194 30.4588L24.968 35.5101C24.6941 35.7841 24.54 36.1561 24.54 36.543C24.54 36.9311 24.6941 37.302 24.968 37.5759L26.9002 39.5081C25.8514 41.2554 25.073 43.1374 24.5788 45.1267H21.8397C21.0329 45.1267 20.3789 45.7806 20.3789 46.5875V53.7309C20.3789 54.5378 21.0329 55.1917 21.8397 55.1917H24.5788C25.073 57.181 25.8502 59.0618 26.9002 60.8103L24.968 62.7425C24.6941 63.0164 24.54 63.3873 24.54 63.7754C24.54 64.1623 24.6941 64.5343 24.968 64.8082L30.0194 69.8596C30.5684 70.4086 31.5384 70.4074 32.0851 69.8596L34.0173 67.9274C35.7647 68.9762 37.6467 69.7546 39.6359 70.2488V72.9879C39.6359 73.7948 40.2899 74.4487 41.0968 74.4487H48.2401C49.047 74.4487 49.701 73.7948 49.701 72.9879V70.2488C51.6902 69.7546 53.5711 68.9774 55.3195 67.9274L57.2518 69.8596C57.5257 70.1335 57.8966 70.2876 58.2846 70.2876C58.6715 70.2876 59.0436 70.1335 59.3175 69.8596L64.3689 64.8082C64.6428 64.5343 64.7968 64.1623 64.7968 63.7754C64.7968 63.3873 64.6428 63.0164 64.3689 62.7425L62.4366 60.8103C63.4866 59.0618 64.2639 57.181 64.758 55.1917H67.4971C68.304 55.1917 68.958 54.5378 68.958 53.7309V46.5875C68.958 45.7806 68.304 45.1267 67.4971 45.1267ZM66.0363 52.27H63.5814C62.8783 52.27 62.2757 52.7699 62.1456 53.4615C61.688 55.8959 60.7532 58.1591 59.3654 60.1883C58.9694 60.7681 59.0424 61.5487 59.5389 62.0452L61.2702 63.7754L58.2846 66.761L56.5544 65.0297C56.058 64.5298 55.275 64.4602 54.6975 64.8562C52.6683 66.244 50.4051 67.1787 47.9708 67.6364C47.2791 67.7665 46.7793 68.3691 46.7793 69.0721V71.527H42.5576V69.0721C42.5576 68.3691 42.0577 67.7665 41.3661 67.6364C38.9317 67.1787 36.6686 66.2429 34.6393 64.8562C34.0607 64.4601 33.2778 64.5298 32.7825 65.0297L31.0523 66.761L28.0666 63.7754L29.798 62.0452C30.2944 61.5487 30.3675 60.7681 29.9715 60.1883C28.5837 58.1591 27.6489 55.8959 27.1913 53.4615C27.0612 52.7699 26.4586 52.27 25.7555 52.27H23.3006V48.0484H25.7555C26.4586 48.0484 27.0612 47.5485 27.1913 46.8569C27.6489 44.4225 28.5848 42.1593 29.9715 40.1301C30.3675 39.5503 30.2945 38.7697 29.798 38.2732L28.0666 36.543L31.0523 33.5574L32.7825 35.2887C33.2778 35.7863 34.0607 35.8582 34.6393 35.4622C36.6686 34.0756 38.9317 33.1397 41.3661 32.682C42.0577 32.5519 42.5576 31.9493 42.5576 31.2463V28.7913H46.7793V31.2463C46.7793 31.9493 47.2791 32.5519 47.9708 32.682C50.4051 33.1397 52.6683 34.0744 54.6975 35.4622C55.275 35.8582 56.058 35.7863 56.5544 35.2887L58.2846 33.5574L61.2702 36.543L59.5389 38.2732C59.0424 38.7697 58.9694 39.5503 59.3654 40.1301C60.7521 42.1593 61.688 44.4225 62.1456 46.8569C62.2757 47.5485 62.8783 48.0484 63.5814 48.0484H66.0363V52.27ZM44.669 39.1646C38.6065 39.1646 33.6738 44.0972 33.6738 50.1598C33.6738 56.2223 38.6065 61.1538 44.669 61.1538C50.7316 61.1538 55.6631 56.2223 55.6631 50.1598C55.6631 44.0972 50.7316 39.1646 44.669 39.1646ZM44.669 58.2321C40.2169 58.2321 36.5955 54.6108 36.5955 50.1598C36.5955 45.7076 40.2169 42.0863 44.669 42.0863C49.1201 42.0863 52.7414 45.7076 52.7414 50.1598C52.7414 54.6108 49.1201 58.2321 44.669 58.2321ZM83.1043 64.2045V36.3764C86.4343 35.6977 88.9477 32.7468 88.9477 29.2193C88.9477 25.1917 85.6711 21.9151 81.6435 21.9151C79.6535 21.9151 77.8487 22.7171 76.53 24.0122L51.7124 9.68386C51.9709 8.93674 52.1182 8.13819 52.1182 7.30427C52.1182 3.27665 48.8416 0 44.814 0C40.7863 0 37.5097 3.27665 37.5097 7.30427C37.5097 8.08634 37.6362 8.83859 37.8649 9.54555L12.5572 24.1563C11.2277 22.7775 9.36629 21.9151 7.30427 21.9151C3.27665 21.9151 0 25.1917 0 29.2194C0 32.882 2.71256 35.9147 6.2326 36.436V64.1449C2.71257 64.6662 0 67.6989 0 71.3616C0 75.3892 3.27665 78.6658 7.30427 78.6658C9.55176 78.6658 11.5638 77.644 12.9047 76.0423L37.865 90.4542C37.6363 91.1612 37.5097 91.9136 37.5097 92.6957C37.5097 96.7233 40.7863 100 44.8139 100C48.8416 100 52.1182 96.7233 52.1182 92.6957C52.1182 91.8617 51.9708 91.0632 51.7123 90.316L76.1769 76.1897C77.5162 77.7042 79.4674 78.6658 81.6434 78.6658C85.671 78.6658 88.9477 75.3892 88.9477 71.3616C88.9477 67.8341 86.4343 64.8831 83.1043 64.2045ZM81.6435 24.8368C84.0596 24.8368 86.026 26.8032 86.026 29.2193C86.026 31.6354 84.0596 33.6019 81.6435 33.6019C79.2273 33.6019 77.2609 31.6354 77.2609 29.2193C77.2609 26.8032 79.2273 24.8368 81.6435 24.8368ZM44.814 2.92171C47.2301 2.92171 49.1965 4.88816 49.1965 7.30427C49.1965 9.72038 47.2301 11.6868 44.814 11.6868C42.3979 11.6868 40.4314 9.72038 40.4314 7.30427C40.4314 4.88816 42.3979 2.92171 44.814 2.92171ZM2.92171 29.2193C2.92171 26.8032 4.88816 24.8368 7.30427 24.8368C9.72038 24.8368 11.6868 26.8032 11.6868 29.2193C11.6868 31.6355 9.72038 33.6019 7.30427 33.6019C4.88816 33.6019 2.92171 31.6355 2.92171 29.2193ZM7.30427 75.7441C4.88816 75.7441 2.92171 73.7777 2.92171 71.3615C2.92171 68.9454 4.88816 66.979 7.30427 66.979C9.72038 66.979 11.6868 68.9454 11.6868 71.3615C11.6868 73.7777 9.72038 75.7441 7.30427 75.7441ZM44.814 97.0783C42.3978 97.0783 40.4314 95.1118 40.4314 92.6957C40.4314 90.2796 42.3978 88.3132 44.814 88.3132C47.2301 88.3132 49.1965 90.2796 49.1965 92.6957C49.1965 95.1118 47.2301 97.0783 44.814 97.0783ZM50.221 87.8021C48.8835 86.3258 46.9582 85.3914 44.814 85.3914C42.6157 85.3914 40.646 86.372 39.3057 87.9135L14.2948 73.4723C14.4972 72.8035 14.6085 72.0955 14.6085 71.3615C14.6085 67.974 12.2874 65.1262 9.15429 64.3038V36.2771C12.2874 35.4547 14.6085 32.6068 14.6085 29.2193C14.6085 28.3053 14.4323 27.4335 14.1243 26.6263L39.3069 12.0878C40.6471 13.6285 42.6163 14.6085 44.8139 14.6085C46.9583 14.6085 48.8836 13.6741 50.221 12.1977L74.8913 26.4409C74.5372 27.2982 74.3392 28.2357 74.3392 29.2193C74.3392 32.7468 76.8526 35.6977 80.1826 36.3764V64.2045C76.8526 64.8831 74.3392 67.8341 74.3392 71.3615C74.3392 72.165 74.4744 72.9362 74.7152 73.6598L50.221 87.8021ZM81.6434 75.7441C79.2273 75.7441 77.2609 73.7776 77.2609 71.3615C77.2609 68.9454 79.2273 66.979 81.6434 66.979C84.0595 66.979 86.026 68.9454 86.026 71.3615C86.026 73.7776 84.0595 75.7441 81.6434 75.7441Z" fill="#3C7CFF"/>
</svg>
