<svg width="100" height="100" viewBox="0 0 100 100" fill="none" xmlns="http://www.w3.org/2000/svg">
<path d="M84.955 25.635C84.3883 19.1983 78.485 14.2167 71.835 15.1017C68.4283 6.00667 59.8333 0 50 0C37.1333 0 26.6667 10.4667 26.6667 23.3333C26.6667 24.29 26.73 25.255 26.8533 26.2217C24.6617 25.4167 22.3383 25 20 25C8.97167 25 0 33.9717 0 45C0 56.0283 8.97167 65 20 65H25.7067C26.9967 67.9383 29.925 70 33.3333 70H54.6083C57.055 73.0433 60.8 75 65 75V90C65 90.9217 65.745 91.6667 66.6667 91.6667H77.6433L72.155 97.155L74.5117 99.5117L82.845 91.1783C83.4967 90.5267 83.4967 89.4733 82.845 88.8217L74.5117 80.4883L72.155 82.845L77.6433 88.3333H68.3333V74.5617C68.9017 74.415 69.4583 74.2383 69.9967 74.02L77.9883 82.0117C79.0017 83.025 80.335 83.5333 81.6667 83.5333C82.9983 83.5333 84.3317 83.025 85.345 82.0117C87.3733 79.9833 87.3733 76.6833 85.345 74.655L77.3533 66.6633C77.5717 66.1267 77.7483 65.57 77.895 65H80C91.0283 65 100 56.0283 100 45C100 35.805 93.75 27.87 84.955 25.635ZM52.64 66.6667H33.3333C31.16 66.6667 29.3067 65.2733 28.6183 63.3333H31.6667H51.77C51.78 63.4133 51.8033 63.49 51.815 63.5683V63.5717L51.8167 63.575C51.82 63.5933 51.825 63.61 51.8267 63.6283C51.885 64.0167 51.9567 64.4017 52.0483 64.7783C52.0867 64.9367 52.1267 65.0933 52.17 65.2517C52.2817 65.6517 52.4117 66.0417 52.56 66.4267C52.59 66.505 52.6083 66.5883 52.64 66.6667ZM66.6667 48.4383C66.63 48.4333 66.5933 48.435 66.5567 48.4317C66.045 48.3717 65.5267 48.3333 65 48.3333C64.5567 48.3333 64.12 48.3567 63.6883 48.4C63.5433 48.415 63.4017 48.4417 63.2583 48.46C63.1867 48.47 63.115 48.48 63.0417 48.49L56.2633 40.5817C55.9417 40.2033 55.4367 40.0483 54.9717 39.9983C54.475 40.0067 54.0083 40.2367 53.6967 40.6233L47.8733 47.905L42.4117 45.1733C41.6883 44.8117 40.8167 45.0183 40.3333 45.665L35.3333 52.3317L38 54.33L42.165 48.7767L47.5883 51.4883C48.2917 51.84 49.145 51.6533 49.6367 51.0383L55.045 44.275L59.5317 49.51C59.4933 49.5267 59.4567 49.55 59.4183 49.5683C59.2317 49.655 59.045 49.745 58.8617 49.84C58.715 49.9167 58.57 49.9967 58.4267 50.0783C58.3667 50.1133 58.305 50.1467 58.245 50.1817C58.09 50.2733 57.9383 50.37 57.7867 50.4667C57.63 50.5683 57.4767 50.6717 57.325 50.78C57.2983 50.7983 57.2717 50.815 57.245 50.8333C57.2183 50.8533 57.19 50.87 57.1633 50.8883C57.0317 50.9833 56.9067 51.0867 56.78 51.1867C56.6333 51.3017 56.4883 51.4183 56.3483 51.5383C56.175 51.6867 56.0083 51.8417 55.8433 51.9983C55.71 52.125 55.5767 52.25 55.4483 52.3833C55.3483 52.4867 55.25 52.5917 55.1533 52.6967C55.1467 52.705 55.1383 52.7117 55.13 52.72L55.1317 52.7217C55.08 52.7783 55.0317 52.8383 54.98 52.8967C54.8617 53.0317 54.74 53.165 54.6267 53.305C54.475 53.4917 54.335 53.6883 54.1933 53.8833C54.0933 54.0217 53.9883 54.1567 53.895 54.2983C53.7483 54.5183 53.6167 54.7467 53.4833 54.975C53.4083 55.105 53.325 55.2283 53.255 55.3617C53.075 55.695 52.9117 56.0367 52.76 56.3867C52.7417 56.43 52.72 56.4717 52.7017 56.515C52.545 56.8867 52.405 57.2683 52.2833 57.6567C52.2383 57.7983 52.2067 57.9433 52.1667 58.0867C52.0933 58.35 52.0183 58.6133 51.9617 58.8817C51.925 59.055 51.9017 59.2317 51.8717 59.4067C51.8383 59.6033 51.795 59.7967 51.77 59.9967H33.3333V36.6667H66.6667V48.4383ZM56.785 67.355C56.5183 66.9717 56.2867 66.5717 56.0783 66.1617C56.04 66.0867 56.005 66.01 55.9683 65.9333C55.7733 65.5233 55.6 65.105 55.4633 64.675C55.4617 64.6683 55.4583 64.6633 55.4567 64.6567C55.3217 64.2283 55.2267 63.79 55.1517 63.3467C55.1383 63.2667 55.1267 63.185 55.115 63.1033V63.0983C55.1067 63.0383 55.1033 62.99 55.095 62.9333C55.0433 62.5133 55 62.0933 55 61.6667C55 59.0783 55.9967 56.725 57.615 54.9467C58.2883 54.2067 59.0583 53.5817 59.8983 53.08C59.9317 53.06 59.965 53.0383 60 53.0183C60.4183 52.775 60.8517 52.5617 61.3017 52.3817C61.3167 52.3767 61.3317 52.3717 61.345 52.365C61.805 52.185 62.2783 52.035 62.7667 51.925C63.4867 51.7617 64.2317 51.6667 65 51.6667C65.4383 51.6667 65.8767 51.705 66.3117 51.7633C66.4033 51.775 66.495 51.79 66.585 51.805C67.0017 51.8733 67.4183 51.96 67.8267 52.08C71.9683 53.3033 75 57.135 75 61.6667C75 61.925 74.98 62.1767 74.9617 62.43C74.9433 62.64 74.92 62.8567 74.885 63.0967V63.1017C74.7217 64.23 74.375 65.2983 73.8667 66.2717C73.645 66.6983 73.39 67.1033 73.1133 67.4883C73.07 67.5483 73.025 67.6067 72.98 67.6667C72.4167 68.4167 71.7517 69.0817 71.0017 69.645C70.9417 69.69 70.8833 69.735 70.8233 69.7783C70.4367 70.055 70.0333 70.31 69.6067 70.5317C68.2267 71.2533 66.6617 71.6667 65 71.6667C61.5983 71.6667 58.5933 69.9567 56.785 67.355ZM75.6533 69.6767L82.9883 77.0117C83.7183 77.7417 83.7183 78.925 82.9883 79.655C82.2583 80.385 81.075 80.385 80.345 79.655L73.01 72.32C73.065 72.2783 73.1117 72.2267 73.1667 72.185C73.5833 71.86 73.9867 71.52 74.3617 71.1483C74.4017 71.1083 74.4433 71.0683 74.4833 71.0267C74.8533 70.6517 75.195 70.2483 75.52 69.8317C75.56 69.7783 75.6117 69.7317 75.6533 69.6767ZM80 61.6667H78.3333C78.3333 56.0833 74.88 51.2983 70 49.315V35C70 34.0783 69.255 33.3333 68.3333 33.3333H31.6667C30.745 33.3333 30 34.0783 30 35V60H26.6667C25.745 60 25 60.745 25 61.6667H20C10.81 61.6667 3.33333 54.19 3.33333 45C3.33333 35.81 10.81 28.3333 20 28.3333C22.9 28.3333 25.7733 29.105 28.305 30.5667C28.8917 30.9067 29.6217 30.8567 30.1583 30.4417C30.6933 30.0267 30.925 29.33 30.745 28.6783C30.25 26.8933 30 25.095 30 23.3333C30 12.305 38.9717 3.33333 50 3.33333C58.865 3.33333 66.5533 9.02833 69.1317 17.5067C69.395 18.3683 70.3 18.865 71.16 18.6317C76.6383 17.145 81.67 21.3533 81.6633 26.7283C81.6617 26.7517 81.6533 26.9083 81.6517 26.9317C81.6267 27.755 82.2083 28.4733 83.0183 28.6217C90.9267 30.0683 96.6667 36.9567 96.6667 45C96.6667 54.19 89.19 61.6667 80 61.6667Z" fill="#3C7CFF"/>
<path d="M51.6665 94.31V73.3333H48.3332V94.31L41.1782 87.155L38.8215 89.5116L48.8215 99.5116C49.1465 99.8366 49.5732 100 49.9999 100C50.4265 100 50.8532 99.8366 51.1782 99.5116L61.1782 89.5116L58.8215 87.155L51.6665 94.31Z" fill="#3C7CFF"/>
<path d="M66.6668 65C67.0934 65 67.5201 64.8367 67.8451 64.5117L72.8451 59.5117L70.4884 57.155L66.6668 60.9767L64.5118 58.8217C63.9484 58.2584 63.0668 58.17 62.4084 58.6134L57.4084 61.9467L59.2568 64.72L63.1201 62.145L65.4868 64.5117C65.8134 64.8367 66.2401 65 66.6668 65Z" fill="#3C7CFF"/>
<path d="M31.6667 88.3333H22.3567L27.845 82.845L25.4883 80.4883L17.155 88.8216C16.5033 89.4733 16.5033 90.5266 17.155 91.1783L25.4883 99.5116L27.845 97.155L22.3567 91.6666H33.3333C34.255 91.6666 35 90.9216 35 90V73.3333H31.6667V88.3333Z" fill="#3C7CFF"/>
</svg>
