<svg width="92" height="101" viewBox="0 0 92 101" fill="none" xmlns="http://www.w3.org/2000/svg">
<path d="M81.7579 88.4244V1.88249C81.7579 0.961655 81.0121 0.21582 80.0912 0.21582H25C24.5584 0.21582 24.1334 0.390818 23.8208 0.703319L0.487499 24.0367C0.174998 24.3492 0 24.7742 0 25.2159V88.4244C0 89.3452 0.745835 90.0911 1.66667 90.0911H80.0912C81.012 90.0911 81.7579 89.3452 81.7579 88.4244ZM23.3334 5.90809V18.5502C23.3334 21.3085 21.0917 23.5502 18.3334 23.5502H5.69123L23.3334 5.90809ZM78.4246 86.7582H3.33337V26.883H18.3328C22.9287 26.883 26.6662 23.1455 26.6662 18.5497V3.55022H78.4208L78.4246 86.7582Z" fill="#3C7CFF"/>
<path d="M90.2167 10.3411C89.2959 10.3411 88.5501 11.0869 88.5501 12.0078V96.8824H11.7917C10.8708 96.8824 10.125 97.6283 10.125 98.5491C10.125 99.4699 10.8708 100.216 11.7917 100.216H90.2162C91.137 100.216 91.8829 99.4699 91.8829 98.5491V12.0072C91.8829 11.0864 91.1376 10.3411 90.2167 10.3411Z" fill="#3C7CFF"/>
<path d="M26.9122 36.5919L19.7955 40.8628C18.758 39.9169 17.3913 39.3211 15.8788 39.3211C12.6622 39.3211 10.0454 41.9377 10.0454 45.1545C10.0454 48.3712 12.662 50.9879 15.8788 50.9879C19.0955 50.9879 21.7122 48.3712 21.7122 45.1545C21.7122 44.6545 21.6288 44.1795 21.5122 43.7169L28.6289 39.4461C29.6664 40.3919 31.033 40.9878 32.5456 40.9878C34.0581 40.9878 35.4247 40.3961 36.4623 39.4461L43.579 43.7169C43.4623 44.1794 43.379 44.6544 43.379 45.1545C43.379 48.3711 45.9956 50.9879 49.2123 50.9879C52.4291 50.9879 55.0457 48.3712 55.0457 45.1545C55.0457 44.1545 54.7707 43.2253 54.3207 42.4004L63.1207 33.5962C63.9457 34.042 64.8749 34.3212 65.8749 34.3212C69.0915 34.3212 71.7083 31.7046 71.7083 28.4878C71.7083 25.2711 69.0916 22.6544 65.8749 22.6544C62.6581 22.6544 60.0415 25.2711 60.0415 28.4878C60.0415 29.4878 60.3165 30.417 60.7623 31.2419L51.9581 40.0461C51.1331 39.6003 50.204 39.3211 49.204 39.3211C47.6915 39.3211 46.3249 39.9128 45.2873 40.8628L38.1706 36.5919C38.2873 36.1294 38.3706 35.6544 38.3706 35.1544C38.3706 31.9377 35.754 29.321 32.5372 29.321C29.3205 29.321 26.7039 31.9376 26.7039 35.1544C26.7039 35.6544 26.7872 36.1294 26.9039 36.5919H26.9122ZM15.8786 47.6543C14.4994 47.6543 13.3785 46.5335 13.3785 45.1543C13.3785 43.7751 14.4994 42.6542 15.8786 42.6542C17.2578 42.6542 18.3786 43.7751 18.3786 45.1543C18.3786 46.5335 17.2578 47.6543 15.8786 47.6543ZM65.8786 25.9882C67.2578 25.9882 68.3786 27.109 68.3786 28.4882C68.3786 29.8674 67.2578 30.9883 65.8786 30.9883C64.4994 30.9883 63.3785 29.8674 63.3785 28.4882C63.3785 27.109 64.4994 25.9882 65.8786 25.9882ZM49.2119 42.6549C50.5911 42.6549 51.712 43.7757 51.712 45.1549C51.712 46.5341 50.5911 47.655 49.2119 47.655C47.8327 47.655 46.7119 46.5341 46.7119 45.1549C46.7119 43.7757 47.8327 42.6549 49.2119 42.6549ZM32.5453 32.6549C33.9245 32.6549 35.0453 33.7757 35.0453 35.1549C35.0453 36.5341 33.9245 37.655 32.5453 37.655C31.1661 37.655 30.0452 36.5341 30.0452 35.1549C30.0452 33.7757 31.1661 32.6549 32.5453 32.6549Z" fill="#3C7CFF"/>
<path d="M70.046 57.875H22.4919C21.571 57.875 20.8252 58.6208 20.8252 59.5417C20.8252 60.4625 21.571 61.2083 22.4919 61.2083H70.046C70.9668 61.2083 71.7127 60.4625 71.7127 59.5417C71.7127 58.6208 70.9668 57.875 70.046 57.875Z" fill="#3C7CFF"/>
<path d="M13.3337 61.2083H15.8795C16.8003 61.2083 17.5461 60.4625 17.5461 59.5417C17.5461 58.6208 16.8003 57.875 15.8795 57.875H13.3337C12.4128 57.875 11.667 58.6208 11.667 59.5417C11.667 60.4625 12.4128 61.2083 13.3337 61.2083Z" fill="#3C7CFF"/>
<path d="M70.046 66.9833H22.4919C21.571 66.9833 20.8252 67.7291 20.8252 68.6499C20.8252 69.5708 21.571 70.3166 22.4919 70.3166H70.046C70.9668 70.3166 71.7127 69.5708 71.7127 68.6499C71.7127 67.7291 70.9668 66.9833 70.046 66.9833Z" fill="#3C7CFF"/>
<path d="M13.3337 70.3166H15.8795C16.8003 70.3166 17.5461 69.5708 17.5461 68.6499C17.5461 67.7291 16.8003 66.9833 15.8795 66.9833H13.3337C12.4128 66.9833 11.667 67.7291 11.667 68.6499C11.667 69.5708 12.4128 70.3166 13.3337 70.3166Z" fill="#3C7CFF"/>
<path d="M70.0462 76.0917H13.3337C12.4128 76.0917 11.667 76.8375 11.667 77.7583C11.667 78.6792 12.4128 79.425 13.3337 79.425H70.0462C70.967 79.425 71.7129 78.6792 71.7129 77.7583C71.7129 76.8375 70.967 76.0917 70.0462 76.0917Z" fill="#3C7CFF"/>
</svg>
