<svg width="92" height="100" viewBox="0 0 92 100" fill="none" xmlns="http://www.w3.org/2000/svg">
<path d="M81.7579 88.2085V1.66667C81.7579 0.745834 81.0121 0 80.0912 0H25C24.5584 0 24.1334 0.174997 23.8208 0.487499L0.487499 23.8208C0.174998 24.1333 0 24.5583 0 25V88.2086C0 89.1294 0.745835 89.8752 1.66667 89.8752H80.0912C81.012 89.8752 81.7579 89.1294 81.7579 88.2085ZM23.3334 5.69227V18.3344C23.3334 21.0927 21.0917 23.3344 18.3334 23.3344H5.69123L23.3334 5.69227ZM78.4246 86.5424H3.33337V26.6672H18.3328C22.9287 26.6672 26.6662 22.9297 26.6662 18.3339V3.3344H78.4208L78.4246 86.5424Z" fill="#3C7CFF"/>
<path d="M90.2167 10.1253C89.2959 10.1253 88.5501 10.8711 88.5501 11.792V96.6666H11.7917C10.8708 96.6666 10.125 97.4125 10.125 98.3333C10.125 99.2541 10.8708 100 11.7917 100H90.2162C91.137 100 91.8829 99.2541 91.8829 98.3333V11.7914C91.8829 10.8706 91.1376 10.1253 90.2167 10.1253Z" fill="#3C7CFF"/>
<path d="M26.9122 36.3761L19.7955 40.6469C18.758 39.7011 17.3913 39.1053 15.8788 39.1053C12.6622 39.1053 10.0454 41.7219 10.0454 44.9387C10.0454 48.1554 12.662 50.7721 15.8788 50.7721C19.0955 50.7721 21.7122 48.1554 21.7122 44.9387C21.7122 44.4387 21.6288 43.9637 21.5122 43.5011L28.6289 39.2303C29.6664 40.1761 31.033 40.7719 32.5456 40.7719C34.0581 40.7719 35.4247 40.1803 36.4623 39.2303L43.579 43.5011C43.4623 43.9636 43.379 44.4386 43.379 44.9387C43.379 48.1553 45.9956 50.7721 49.2123 50.7721C52.4291 50.7721 55.0457 48.1554 55.0457 44.9387C55.0457 43.9387 54.7707 43.0095 54.3207 42.1845L63.1207 33.3804C63.9457 33.8262 64.8749 34.1054 65.8749 34.1054C69.0915 34.1054 71.7083 31.4887 71.7083 28.272C71.7083 25.0552 69.0916 22.4386 65.8749 22.4386C62.6581 22.4386 60.0415 25.0552 60.0415 28.272C60.0415 29.272 60.3165 30.2012 60.7623 31.0261L51.9581 39.8303C51.1331 39.3844 50.204 39.1053 49.204 39.1053C47.6915 39.1053 46.3249 39.6969 45.2873 40.6469L38.1706 36.3761C38.2873 35.9136 38.3706 35.4386 38.3706 34.9386C38.3706 31.7219 35.754 29.1052 32.5372 29.1052C29.3205 29.1052 26.7039 31.7218 26.7039 34.9386C26.7039 35.4386 26.7872 35.9136 26.9039 36.3761H26.9122ZM15.8786 47.4385C14.4994 47.4385 13.3785 46.3177 13.3785 44.9385C13.3785 43.5593 14.4994 42.4384 15.8786 42.4384C17.2578 42.4384 18.3786 43.5593 18.3786 44.9385C18.3786 46.3177 17.2578 47.4385 15.8786 47.4385ZM65.8786 25.7724C67.2578 25.7724 68.3786 26.8932 68.3786 28.2724C68.3786 29.6516 67.2578 30.7725 65.8786 30.7725C64.4994 30.7725 63.3785 29.6516 63.3785 28.2724C63.3785 26.8932 64.4994 25.7724 65.8786 25.7724ZM49.2119 42.439C50.5911 42.439 51.712 43.5599 51.712 44.9391C51.712 46.3183 50.5911 47.4391 49.2119 47.4391C47.8327 47.4391 46.7119 46.3183 46.7119 44.9391C46.7119 43.5599 47.8327 42.439 49.2119 42.439ZM32.5453 32.439C33.9245 32.439 35.0453 33.5599 35.0453 34.9391C35.0453 36.3183 33.9245 37.4391 32.5453 37.4391C31.1661 37.4391 30.0452 36.3183 30.0452 34.9391C30.0452 33.5599 31.1661 32.439 32.5453 32.439Z" fill="#3C7CFF"/>
<path d="M70.046 57.6592H22.4919C21.571 57.6592 20.8252 58.405 20.8252 59.3258C20.8252 60.2467 21.571 60.9925 22.4919 60.9925H70.046C70.9668 60.9925 71.7127 60.2467 71.7127 59.3258C71.7127 58.405 70.9668 57.6592 70.046 57.6592Z" fill="#3C7CFF"/>
<path d="M13.3337 60.9925H15.8795C16.8003 60.9925 17.5461 60.2467 17.5461 59.3258C17.5461 58.405 16.8003 57.6592 15.8795 57.6592H13.3337C12.4128 57.6592 11.667 58.405 11.667 59.3258C11.667 60.2467 12.4128 60.9925 13.3337 60.9925Z" fill="#3C7CFF"/>
<path d="M70.046 66.7675H22.4919C21.571 66.7675 20.8252 67.5133 20.8252 68.4341C20.8252 69.355 21.571 70.1008 22.4919 70.1008H70.046C70.9668 70.1008 71.7127 69.355 71.7127 68.4341C71.7127 67.5133 70.9668 66.7675 70.046 66.7675Z" fill="#3C7CFF"/>
<path d="M13.3337 70.1008H15.8795C16.8003 70.1008 17.5461 69.355 17.5461 68.4341C17.5461 67.5133 16.8003 66.7675 15.8795 66.7675H13.3337C12.4128 66.7675 11.667 67.5133 11.667 68.4341C11.667 69.355 12.4128 70.1008 13.3337 70.1008Z" fill="#3C7CFF"/>
<path d="M70.0462 75.8759H13.3337C12.4128 75.8759 11.667 76.6217 11.667 77.5425C11.667 78.4634 12.4128 79.2092 13.3337 79.2092H70.0462C70.967 79.2092 71.7129 78.4634 71.7129 77.5425C71.7129 76.6217 70.967 75.8759 70.0462 75.8759Z" fill="#3C7CFF"/>
</svg>
