<svg width="100" height="101" viewBox="0 0 100 101" fill="none" xmlns="http://www.w3.org/2000/svg">
<path d="M62.5673 100.216H58.597C56.4318 100.216 54.619 98.6625 54.2864 96.5232L53.7111 92.8123C52.3943 92.4033 51.1019 91.8647 49.8476 91.2009L46.8325 93.4165C45.0869 94.7028 42.7034 94.5243 41.1653 92.9862L38.3776 90.1984C36.8425 88.6634 36.6625 86.28 37.9488 84.5298L40.1781 81.5009C39.5174 80.2634 38.9849 78.9756 38.5851 77.6511L34.8452 77.0759C32.7028 76.7463 31.1479 74.932 31.1479 72.7653V68.798C31.1479 66.6312 32.7028 64.8185 34.8436 64.4874L38.5744 63.9106C38.9864 62.5846 39.5189 61.2983 40.1644 60.0684L37.9366 57.0258C36.6579 55.2817 36.8395 52.9029 38.3669 51.3709L41.1638 48.5633C42.6729 47.0466 45.1128 46.8619 46.837 48.1299L49.8629 50.3577C51.0851 49.7047 52.3729 49.1691 53.7111 48.7525L54.2864 45.04C54.619 42.9008 56.4318 41.3474 58.597 41.3474H62.5673C64.7341 41.3474 66.5453 42.9008 66.8764 45.0416L67.4517 48.7525C68.7899 49.1691 70.0777 49.7047 71.2999 50.3577L74.3257 48.1299C76.0759 46.8421 78.4624 47.0206 80.0005 48.5633L82.7974 51.3709C84.3248 52.9029 84.5049 55.2802 83.2262 57.0258L80.9999 60.0684C81.6454 61.2983 82.1764 62.5846 82.5884 63.9106L86.3207 64.4874C88.4615 64.8185 90.0164 66.6312 90.0164 68.798V72.7653C90.0164 74.932 88.4615 76.7448 86.3192 77.0759L82.5777 77.6511C82.1779 78.9756 81.6454 80.2634 80.9847 81.5009L83.214 84.5298C84.5018 86.2769 84.3218 88.6619 82.7852 90.1984L79.9974 92.9862C78.4655 94.5197 76.0805 94.7059 74.3303 93.4165L71.3167 91.2009C70.0609 91.8647 68.767 92.4033 67.4517 92.8123L66.8764 96.5232C66.5453 98.6625 64.7341 100.216 62.5673 100.216ZM49.7301 87.786C50.0017 87.786 50.2748 87.8562 50.519 87.9996C52.1166 88.9335 53.7889 89.6308 55.4918 90.0718C56.0961 90.2274 56.5493 90.7279 56.6454 91.3444L57.3748 96.0441C57.4694 96.6498 57.9836 97.0908 58.597 97.0908H62.5673C63.1716 97.0908 63.6965 96.6407 63.788 96.0456L64.5174 91.3444C64.6135 90.7279 65.0667 90.2274 65.671 90.0718C67.3723 89.6308 69.0462 88.9335 70.6453 87.9996C71.187 87.6838 71.8584 87.7219 72.3589 88.0897L76.1812 90.8988C76.6756 91.2604 77.3531 91.2116 77.788 90.7767L80.5757 87.989C81.0106 87.5541 81.0625 86.8781 80.6978 86.3837L77.8673 82.5385C77.495 82.0319 77.4614 81.3514 77.7849 80.8112C78.7142 79.2563 79.3993 77.5992 79.8235 75.8857C79.9745 75.2738 80.4796 74.813 81.1022 74.7169L85.8431 73.9875C86.4504 73.8944 86.8914 73.3802 86.8914 72.7653V68.798C86.8914 68.183 86.4504 67.6688 85.8446 67.5757L81.1235 66.8464C80.5071 66.7518 80.0081 66.3001 79.8494 65.6974C79.3962 63.9609 78.705 62.2916 77.8002 60.7383C77.4858 60.2012 77.5209 59.5298 77.8887 59.0278L80.7054 55.1795C81.0671 54.6851 81.0167 54.0107 80.5849 53.5773L77.788 50.7697C77.3592 50.3364 76.6664 50.2875 76.1782 50.6476L72.3391 53.4736C71.8325 53.8444 71.1504 53.8779 70.6118 53.556C69.0844 52.6435 67.4211 51.9507 65.6679 51.493C65.0652 51.3358 64.6135 50.8353 64.5174 50.2204L63.788 45.5192C63.6965 44.9225 63.1716 44.4724 62.5673 44.4724H58.597C57.9836 44.4724 57.4694 44.9134 57.3748 45.5192L56.6454 50.2204C56.5493 50.8353 56.0976 51.3358 55.4949 51.493C53.7401 51.9507 52.0784 52.645 50.5526 53.556C50.0124 53.8779 49.3303 53.8444 48.8253 53.4736L44.9846 50.6476C44.4979 50.2906 43.8066 50.3394 43.3779 50.7682L40.5794 53.5773C40.1476 54.0107 40.0957 54.6851 40.4573 55.1795L43.2756 59.0278C43.6434 59.5298 43.6785 60.2027 43.3641 60.7398C42.4578 62.2901 41.7681 63.9594 41.3134 65.6974C41.1547 66.3001 40.6557 66.7518 40.0392 66.8464L35.3197 67.5757C34.7139 67.6688 34.2729 68.183 34.2729 68.798V72.7653C34.2729 73.3802 34.7139 73.8944 35.3212 73.9875L40.0606 74.7169C40.6832 74.813 41.1882 75.2738 41.3393 75.8857C41.7635 77.5992 42.4486 79.2563 43.3779 80.8112C43.7014 81.3514 43.6678 82.0319 43.2955 82.5385L40.4665 86.3822C40.1018 86.8781 40.1522 87.5541 40.587 87.989L43.3748 90.7767C43.8097 91.2116 44.4841 91.265 44.9816 90.8988L48.8054 88.0897C49.0786 87.8882 49.4036 87.786 49.7301 87.786Z" fill="#3C7CFF"/>
<path d="M60.5848 84.3666C56.6099 84.3666 52.8471 82.6347 50.2592 79.6135C48.1596 77.1721 47.0015 74.0349 47.0015 70.7832C47.0015 63.2927 53.0943 57.1998 60.5848 57.1998C68.0662 57.1998 74.153 63.2927 74.153 70.7832C74.153 73.9799 73.0223 77.0881 70.9684 79.5387C68.3714 82.6088 64.5872 84.3666 60.5848 84.3666ZM60.5848 60.3248C54.8185 60.3248 50.1265 65.0169 50.1265 70.7832C50.1265 73.2872 51.0161 75.7011 52.6304 77.5779C54.6263 79.908 57.5239 81.2416 60.5848 81.2416C63.6671 81.2416 66.58 79.8866 68.5774 77.5261C70.1567 75.6431 71.028 73.246 71.028 70.7832C71.028 65.0169 66.3435 60.3248 60.5848 60.3248Z" fill="#3C7CFF"/>
<path d="M90.1779 73.365C89.3143 73.365 88.6154 72.6661 88.6154 71.8025C88.6154 70.9388 89.3143 70.24 90.1779 70.24C93.8705 70.24 96.875 67.2355 96.875 63.5429V10.3233C96.875 6.63068 93.8705 3.62622 90.1779 3.62622H9.82361C6.12946 3.62622 3.125 6.63068 3.125 10.3233V63.5429C3.125 67.2355 6.12946 70.24 9.82361 70.24H32.7133C33.577 70.24 34.2758 70.9388 34.2758 71.8025C34.2758 72.6661 33.577 73.365 32.7133 73.365H9.82361C4.40674 73.365 0 68.9583 0 63.5429V10.3233C0 4.90796 4.40674 0.501221 9.82361 0.501221H90.1779C95.5933 0.501221 100 4.90796 100 10.3233V63.5429C100 68.9583 95.5933 73.365 90.1779 73.365Z" fill="#3C7CFF"/>
<path d="M98.4375 20.7222H1.5625C0.698853 20.7222 0 20.0233 0 19.1597C0 18.296 0.698853 17.5972 1.5625 17.5972H98.4375C99.3011 17.5972 100 18.296 100 19.1597C100 20.0233 99.3011 20.7222 98.4375 20.7222Z" fill="#3C7CFF"/>
<path d="M14.7965 12.0933H14.0122C13.1486 12.0933 12.4497 11.3944 12.4497 10.5308C12.4497 9.66711 13.1486 8.96826 14.0122 8.96826H14.7965C15.6602 8.96826 16.359 9.66711 16.359 10.5308C16.359 11.3944 15.6602 12.0933 14.7965 12.0933Z" fill="#3C7CFF"/>
<path d="M22.548 12.0933H21.7637C20.9 12.0933 20.2012 11.3944 20.2012 10.5308C20.2012 9.66711 20.9 8.96826 21.7637 8.96826H22.548C23.4116 8.96826 24.1105 9.66711 24.1105 10.5308C24.1105 11.3944 23.4116 12.0933 22.548 12.0933Z" fill="#3C7CFF"/>
<path d="M30.2994 12.0933H29.5151C28.6515 12.0933 27.9526 11.3944 27.9526 10.5308C27.9526 9.66711 28.6515 8.96826 29.5151 8.96826H30.2994C31.1631 8.96826 31.8619 9.66711 31.8619 10.5308C31.8619 11.3944 31.1631 12.0933 30.2994 12.0933Z" fill="#3C7CFF"/>
<path d="M85.9892 12.0948H61.7964C60.9327 12.0948 60.2339 11.396 60.2339 10.5323C60.2339 9.6687 60.9327 8.96985 61.7964 8.96985H85.9892C86.8528 8.96985 87.5517 9.6687 87.5517 10.5323C87.5517 11.396 86.8528 12.0948 85.9892 12.0948Z" fill="#3C7CFF"/>
<path d="M19.6549 37.1682H19.6473L15.3794 37.1484C13.7849 37.1484 12.233 36.4953 11.0169 35.3081C9.84961 34.0829 9.22705 32.5433 9.22705 30.9304C9.22705 29.2489 9.87708 27.6788 11.0581 26.5054C12.2346 25.3381 13.8337 24.6407 15.4755 24.7124L19.6625 24.7323C20.5216 24.7369 21.2174 25.4342 21.2174 26.2948V35.6057C21.2174 36.0207 21.0511 36.4205 20.7566 36.7135C20.4636 37.0049 20.0684 37.1682 19.6549 37.1682ZM15.4343 27.8374C14.6058 27.8374 13.8352 28.1518 13.2599 28.724C12.674 29.3053 12.3521 30.0881 12.3521 30.9304C12.3521 31.7361 12.6679 32.5112 13.2401 33.1109C13.8199 33.677 14.6165 34.0234 15.387 34.0234L18.0924 34.0356V27.8497L15.4572 27.8374C15.4496 27.8374 15.442 27.8374 15.4343 27.8374Z" fill="#3C7CFF"/>
<path d="M80.5801 37.362C80.5786 37.362 80.5755 37.362 80.574 37.362L19.6517 37.1682C18.7896 37.1667 18.0923 36.4678 18.0923 35.6057V26.2948C18.0923 25.8798 18.2571 25.4815 18.5516 25.1885C18.8445 24.8971 19.2413 24.7323 19.6548 24.7323C19.6563 24.7323 19.6563 24.7323 19.6578 24.7323L80.6625 24.9261C80.9249 24.9276 81.1813 24.9932 81.4102 25.1199L89.9642 29.8333C90.4662 30.1095 90.7775 30.6405 90.7729 31.2127C90.7684 31.7864 90.451 32.3113 89.9444 32.5814L81.314 37.1789C81.0882 37.2994 80.8364 37.362 80.5801 37.362ZM21.2173 34.0463L80.1925 34.2355L85.9313 31.1791L80.252 28.0496L21.2173 27.8604V34.0463Z" fill="#3C7CFF"/>
<path d="M77.8169 37.3619C76.9532 37.3619 76.2544 36.6631 76.2544 35.7994V26.4885C76.2544 25.6249 76.9532 24.926 77.8169 24.926C78.6805 24.926 79.3794 25.6249 79.3794 26.4885V35.7994C79.3794 36.6631 78.6805 37.3619 77.8169 37.3619Z" fill="#3C7CFF"/>
<path d="M31.3325 46.7979H9.45752C8.59387 46.7979 7.89502 46.099 7.89502 45.2354C7.89502 44.3717 8.59387 43.6729 9.45752 43.6729H31.3325C32.1962 43.6729 32.895 44.3717 32.895 45.2354C32.895 46.099 32.1962 46.7979 31.3325 46.7979Z" fill="#3C7CFF"/>
<path d="M31.3325 56.1729H9.45752C8.59387 56.1729 7.89502 55.474 7.89502 54.6104C7.89502 53.7467 8.59387 53.0479 9.45752 53.0479H31.3325C32.1962 53.0479 32.895 53.7467 32.895 54.6104C32.895 55.474 32.1962 56.1729 31.3325 56.1729Z" fill="#3C7CFF"/>
<path d="M28.2075 65.5479H9.45752C8.59387 65.5479 7.89502 64.849 7.89502 63.9854C7.89502 63.1217 8.59387 62.4229 9.45752 62.4229H28.2075C29.0712 62.4229 29.77 63.1217 29.77 63.9854C29.77 64.849 29.0712 65.5479 28.2075 65.5479Z" fill="#3C7CFF"/>
</svg>
