<svg width="106" height="100" viewBox="0 0 106 100" fill="none" xmlns="http://www.w3.org/2000/svg">
<path fill-rule="evenodd" clip-rule="evenodd" d="M7.58885 53.6693C6.88472 53.9179 6.10699 53.5727 5.81705 52.887C5.53172 52.1967 5.82626 51.4051 6.49815 51.0737L13.9581 47.9444V47.949C14.6622 47.6959 15.4353 48.041 15.7253 48.7267C16.0152 49.4171 15.7161 50.2132 15.0442 50.54L7.58425 53.6694L7.58885 53.6693ZM9.78406 58.9157L17.244 55.7863C17.9159 55.4596 18.215 54.6634 17.9251 53.9731C17.6352 53.2874 16.8574 52.9422 16.1579 53.1953L8.69796 56.3247V56.3201C8.3344 56.4535 8.03526 56.725 7.87879 57.0794C7.72233 57.4338 7.72233 57.8387 7.86959 58.1931C8.02146 58.5521 8.31139 58.8328 8.67495 58.9663C9.03391 59.1043 9.4389 59.086 9.78406 58.9157ZM11.9885 64.162C11.2936 64.3691 10.5573 64.0194 10.2765 63.3521C9.9958 62.6894 10.2627 61.9161 10.8978 61.5665L18.3577 58.4371C18.7075 58.2438 19.1217 58.2116 19.5036 58.3405C19.881 58.4739 20.1847 58.7593 20.3412 59.1274C20.4977 59.5002 20.4885 59.919 20.3182 60.278C20.1479 60.6415 19.8304 60.9176 19.4438 61.0327L11.9885 64.162ZM91.8847 54.2445C87.8119 50.1625 81.4196 49.5274 76.6244 52.7304C71.8244 55.9288 69.9559 62.0726 72.1603 67.4016C74.3647 72.7308 80.0253 75.7637 85.6852 74.6407C91.3412 73.5178 95.4186 68.5567 95.4186 62.7898C95.4232 59.5821 94.1535 56.5088 91.8847 54.2445ZM83.3386 47.8799C90.4489 47.8845 96.569 52.9099 97.9498 59.8827C99.3351 66.8595 95.6027 73.8365 89.031 76.5556C82.4593 79.2754 74.884 76.9698 70.9361 71.0561C66.9921 65.1425 67.7699 57.2637 72.7999 52.2378C75.5934 49.4443 79.3854 47.8753 83.3386 47.8799ZM76.9878 64.277V64.2724C76.6887 64.0423 76.4908 63.7017 76.4448 63.3244C76.4033 62.947 76.5092 62.5696 76.7485 62.2751C76.9878 61.9806 77.3376 61.7965 77.7149 61.7597C78.0923 61.7275 78.4697 61.8471 78.755 62.0956L81.5945 64.3966L87.8165 58.2897C88.3687 57.7604 89.2477 57.7742 89.7862 58.3219C90.3246 58.8695 90.3246 59.7485 89.7862 60.2916L82.6713 67.2776C82.1605 67.7792 81.3551 67.816 80.7983 67.365L76.9832 64.277L76.9878 64.277ZM79.137 83.9742V83.9696C78.8286 84.0064 78.5203 84.057 78.2165 84.1306C76.3296 84.8578 74.2036 84.057 73.2601 82.2714C73.0439 81.9355 72.7723 81.6364 72.464 81.3832C72.0912 81.236 71.7 81.1531 71.2997 81.1301C70.7106 81.0749 70.1307 80.9506 69.5692 80.7528L65.3492 91.3789L70.5311 89.3908L70.5357 89.3954C71.2168 89.1331 71.9853 89.4414 72.3029 90.0995L74.7144 95.1066L79.137 83.9742ZM97.1034 80.7573L97.1081 80.7527C96.5466 80.9506 95.9667 81.0748 95.3776 81.13C94.9772 81.1531 94.5861 81.2359 94.2133 81.3832C93.905 81.6363 93.6334 81.9354 93.4171 82.2714C92.4783 84.0569 90.3475 84.8577 88.4607 84.1306C88.157 84.0615 87.8487 84.0063 87.5403 83.9741L91.9629 95.1065L94.3744 90.0994C94.692 89.4414 95.4605 89.133 96.1416 89.3907L101.324 91.3788L97.1034 80.7527V80.7573ZM32.3298 34.1893L42.1322 57.5587L27.9581 63.5092V63.5046L18.7862 41.6361L18.1557 40.1359H18.1603L32.3298 34.1893ZM24.1934 61.8023L16.7381 44.0196L4.90141 48.9852C3.16178 49.7123 2.34263 51.7142 3.06977 53.4539L7.88809 64.936C8.61982 66.6757 10.6171 67.4902 12.3567 66.7631L24.1887 61.7975L24.1934 61.8023ZM77.591 41.3182C76.8639 41.1479 76.1 41.1847 75.3866 41.424C74.5076 41.8198 73.7667 42.4733 73.2604 43.297C73.0442 43.633 72.7726 43.9321 72.4643 44.1852C72.0915 44.3325 71.7003 44.4153 71.3 44.4429C69.3027 44.3739 67.5768 45.8282 67.3054 47.8117C67.218 48.1983 67.0661 48.5664 66.8636 48.9024C66.5645 49.1647 66.2285 49.3764 65.8649 49.5329C64.9721 49.8826 64.2035 50.4947 63.6697 51.2863C63.5639 51.4658 63.4764 51.6544 63.4074 51.8477C60.14 52.3033 56.9001 52.9338 53.7062 53.7438C50.6735 54.5032 47.6821 55.4328 44.7505 56.5189L34.9113 33.0576C41.3726 30.0524 47.4701 26.3248 53.0898 21.9436C57.4434 18.6117 61.3092 14.6908 64.5766 10.2912L77.591 41.3182ZM80.2556 44.2911V44.2865C80.8999 44.0886 81.512 43.7894 82.0643 43.4075C82.4416 43.1176 82.8788 42.9151 83.339 42.8092C83.7992 42.9151 84.2364 43.1176 84.6137 43.4075C85.2442 43.8539 85.9575 44.176 86.7122 44.3509C87.49 44.4521 88.2769 44.3969 89.0317 44.1852L89.1514 44.1622C89.2112 44.153 89.2756 44.1392 89.3355 44.1254C89.6484 44.0334 89.9844 44.0058 90.3065 44.0518C90.6563 44.3003 90.9508 44.6132 91.1717 44.9768C91.9678 46.3483 93.4268 47.1996 95.0098 47.218C95.424 47.2318 95.829 47.3284 96.2063 47.4987C96.441 47.8392 96.6021 48.2258 96.6849 48.6308C96.9703 50.1909 98.0564 51.4841 99.5474 52.0271C99.9386 52.179 100.288 52.4045 100.592 52.6944C100.698 53.104 100.721 53.5274 100.666 53.9462C100.422 55.5109 101.006 57.094 102.212 58.1295C102.543 58.4286 102.81 58.7876 102.999 59.1926C102.962 59.6436 102.843 60.0854 102.64 60.4858C101.876 61.9263 101.876 63.6428 102.64 65.0832C102.843 65.4882 102.962 65.9254 102.999 66.3764C102.81 66.7814 102.543 67.1404 102.212 67.4395C101.011 68.475 100.426 70.0536 100.67 71.6182C100.726 72.037 100.698 72.4604 100.592 72.87C100.293 73.1553 99.9386 73.3854 99.552 73.5373C98.061 74.0803 96.9703 75.3735 96.6849 76.9336C96.6067 77.2143 96.5101 77.4905 96.4042 77.762L96.3812 77.8126C96.3398 77.9047 96.28 77.9921 96.2109 78.0657C95.8336 78.236 95.4286 78.3326 95.0144 78.3464C93.4312 78.3649 91.9725 79.2162 91.1717 80.583C90.9508 80.9466 90.6563 81.2641 90.3111 81.5126C89.8785 81.5494 89.4459 81.5034 89.0318 81.3746C88.2771 81.1675 87.4901 81.1122 86.7123 81.2135C85.9575 81.3884 85.2442 81.7105 84.6138 82.1569C84.2364 82.4422 83.7992 82.6493 83.3391 82.7552C82.8743 82.6493 82.4417 82.4422 82.0643 82.1569C81.4338 81.7105 80.7205 81.3884 79.9658 81.2135C79.1881 81.1122 78.4012 81.1721 77.6463 81.3838C77.2321 81.508 76.7996 81.554 76.367 81.5172C76.0218 81.2687 75.7273 80.9558 75.5064 80.5922C75.083 79.9433 74.5308 79.3911 73.8865 78.9677C73.1962 78.6087 72.4414 78.397 71.6683 78.3464C71.2541 78.3326 70.8491 78.2359 70.4718 78.0657C70.3982 77.9966 70.3383 77.9092 70.3015 77.8126L70.2785 77.7619C70.1681 77.495 70.0714 77.2189 69.9932 76.9382C69.7078 75.3781 68.6217 74.0803 67.1307 73.5373C66.7441 73.3854 66.3897 73.1599 66.086 72.87C65.9801 72.465 65.9571 72.0416 66.0124 71.6228C66.2517 70.0535 65.6672 68.4749 64.4661 67.4395C64.1347 67.1403 63.8678 66.7814 63.6791 66.3764C63.7113 65.9254 63.831 65.4882 64.0335 65.0832C64.7928 63.6427 64.7928 61.9261 64.0335 60.4857C63.831 60.0854 63.7113 59.6436 63.6791 59.1925C63.8678 58.7875 64.1347 58.4286 64.4661 58.1294C65.6672 57.0986 66.2516 55.5154 66.0078 53.9507C65.9986 53.716 65.9894 53.4813 65.994 53.2788V53.2742C66.0032 53.2052 66.0078 53.1316 66.0032 53.0579C66.0078 52.9383 66.0354 52.814 66.086 52.7036C66.3851 52.4182 66.7395 52.1881 67.1261 52.0363C68.6171 51.4932 69.7078 50.1954 69.9886 48.6354C70.0714 48.2304 70.2325 47.8484 70.4672 47.5032C70.8446 47.333 71.2495 47.2409 71.6637 47.2225C72.4368 47.1765 73.1916 46.9648 73.8819 46.6058C74.5262 46.1824 75.0784 45.6302 75.5018 44.9813C75.7227 44.6178 76.0172 44.3048 76.3624 44.0563C76.795 44.0149 77.2322 44.0609 77.6463 44.1897C78.4011 44.3968 79.188 44.4521 79.9658 44.3508C80.0671 44.3416 80.1637 44.3186 80.2604 44.2864L80.2556 44.2911ZM37.0288 62.7547L50.9732 79.0695C51.9534 80.2016 53.6654 80.3396 54.8113 79.3686L56.1827 78.1997L41.4102 60.9189L37.0288 62.7547ZM85.2862 30.3656C86.7635 29.0908 87.2513 27.0106 86.4965 25.2112C85.7418 23.4119 83.9148 22.3027 81.9727 22.4593L85.2862 30.3656ZM83.3211 32.9565L71.5813 4.9712C71.2499 4.15662 70.6286 3.48934 69.8324 3.0982C69.1605 2.74844 68.369 2.71623 67.6695 3.01076C66.9701 3.3053 66.4407 3.89436 66.2198 4.61691C65.9391 5.45449 65.9805 6.36573 66.3303 7.17569L80.5373 41.0564L80.5926 41.0242V41.0196C82.1664 39.6527 84.5135 39.6527 86.0875 41.0196C86.3498 41.1898 86.6213 41.3463 86.9021 41.4844L83.3262 32.9567L83.3211 32.9565ZM80.8451 19.785L74.1767 3.88025C73.5738 2.42137 72.4555 1.23864 71.0334 0.552971C69.6344 -0.12813 68.0145 -0.183361 66.5787 0.405704C65.1521 1.01778 64.0522 2.21437 63.5643 3.68703C63.1869 4.77772 63.1179 5.94669 63.3572 7.07416C60.0806 11.9248 56.0215 16.2001 51.3544 19.7296C45.5789 24.2259 39.288 28.018 32.6104 31.0139L32.5413 31.0415L17.0737 37.5396C15.6425 38.1471 14.9659 39.7901 15.5595 41.2305L15.6424 41.4237L3.8151 46.3847C0.653471 47.7285 -0.837571 51.3688 0.478636 54.5442L5.29696 66.0264C6.63614 69.188 10.2764 70.6745 13.4519 69.3629L25.2838 64.3973L25.3667 64.5906H25.3621C25.9741 66.0218 27.6171 66.6938 29.0575 66.1L34.313 63.8956L48.837 80.8913C50.8205 83.2108 54.3134 83.4868 56.633 81.5034L59.072 79.4187C59.3574 79.1748 59.5322 78.8342 59.5599 78.4614C59.5875 78.0887 59.4678 77.7205 59.2285 77.4398L44.1296 59.782L44.5208 59.6163L44.5622 59.5979H44.5668C47.7699 58.3507 51.0465 57.3107 54.383 56.4731C57.2961 55.7368 60.246 55.1477 63.2189 54.7151C63.2235 54.9038 63.2005 55.0925 63.1453 55.272C62.9474 55.6263 62.6943 55.9531 62.3998 56.2292C61.6681 56.8873 61.1526 57.7433 60.9179 58.696C60.8075 59.6624 60.9824 60.6426 61.4195 61.5124C61.6082 61.9174 61.7325 62.3454 61.7877 62.7872C61.7325 63.229 61.6082 63.6569 61.4195 64.0619C60.9824 64.9317 60.8075 65.9073 60.9179 66.8783C61.1526 67.8264 61.6681 68.687 62.3952 69.3404C62.6943 69.6257 62.9428 69.9479 63.1453 70.3022C63.2236 70.7026 63.2466 71.1168 63.2005 71.5218C62.8048 73.4915 63.9507 75.4382 65.8651 76.0456C66.2287 76.2021 66.5692 76.4092 66.8684 76.6669C67.0709 77.0074 67.2181 77.3756 67.3102 77.7622C67.3746 77.9693 67.4344 78.1718 67.5035 78.3743L61.6036 93.2246C61.3459 93.74 61.4333 94.3659 61.8245 94.7939C62.2157 95.2173 62.8278 95.3645 63.3708 95.1574L70.3384 92.4883L73.5782 99.2118V99.2073C73.8175 99.7089 74.333 100.022 74.8899 99.9988C75.4467 99.9804 75.9391 99.6352 76.1416 99.1152L81.6779 85.1709L81.6825 85.1755C82.718 85.7139 83.9559 85.7139 84.996 85.1755L90.5323 99.1198L90.5369 99.1152C90.7394 99.6352 91.2318 99.9804 91.7886 99.9988C92.3455 100.022 92.8609 99.7089 93.1002 99.2073L96.3401 92.4837L103.308 95.1528V95.1574C103.851 95.3645 104.458 95.2173 104.849 94.7893C105.241 94.3659 105.328 93.74 105.075 93.2246L99.175 78.3695C99.2441 78.167 99.3085 77.9646 99.3683 77.7575L99.3729 77.7621C99.4604 77.3755 99.6122 77.0073 99.8147 76.6668C100.114 76.4091 100.454 76.202 100.818 76.0455C102.728 75.438 103.874 73.4867 103.473 71.5217C103.432 71.1167 103.45 70.7025 103.533 70.3021C103.731 69.9477 103.984 69.6256 104.279 69.3403C105.01 68.6868 105.526 67.8261 105.761 66.8782C105.871 65.9072 105.696 64.9316 105.259 64.0618C105.066 63.6568 104.941 63.2288 104.886 62.787C104.941 62.3452 105.066 61.9172 105.259 61.5123C105.696 60.6425 105.871 59.6623 105.761 58.6959C105.521 57.7432 105.006 56.8826 104.279 56.2291C103.984 55.9484 103.731 55.6262 103.533 55.2719C103.45 54.8669 103.432 54.4573 103.473 54.0523C103.874 52.0871 102.728 50.1359 100.818 49.5285C100.454 49.372 100.114 49.1649 99.8147 48.9026C99.6122 48.5666 99.4604 48.1985 99.3729 47.8119C99.1014 45.8284 97.3756 44.3741 95.3784 44.4431C94.978 44.4155 94.5868 44.3327 94.214 44.1854C93.9057 43.9323 93.6342 43.6332 93.4179 43.2972C92.9116 42.4735 92.1707 41.82 91.2917 41.4242C90.8269 41.2586 90.3345 41.1849 89.842 41.2217L86.4088 33.0393C89.3081 31.0833 90.4265 27.3511 89.0734 24.1251C87.7204 20.9036 84.2781 19.0812 80.8495 19.7807L80.8451 19.785Z" fill="#3C7CFF"/>
</svg>
