<svg width="100" height="88" viewBox="0 0 100 88" fill="none" xmlns="http://www.w3.org/2000/svg">
<g clip-path="url(#clip0_171_638)">
<path d="M-407.365 64.8028C-407.401 64.8273 -407.434 64.8517 -407.479 64.872L-404.484 70.056L-401.591 68.3876V68.3917C-401.107 68.1191 -400.504 68.1923 -400.102 68.5748C-398.547 70.0722 -396.35 71.411 -394.254 71.9643C-393.693 72.1026 -393.298 72.6031 -393.298 73.181V76.5135H-387.317V73.1769C-387.317 72.6235 -386.946 72.1352 -386.413 71.9806C-384.212 71.3459 -382.198 70.1821 -380.546 68.5952C-380.147 68.1883 -379.52 68.1029 -379.028 68.3877L-376.139 70.056L-373.14 64.864L-375.964 63.2364V63.2323C-376.485 62.9719 -376.758 62.3819 -376.615 61.8122C-376.07 59.5743 -376.07 57.2386 -376.615 55.0006C-376.754 54.4594 -376.509 53.8979 -376.029 53.6253L-373.14 51.957L-376.139 46.769L-378.967 48.4047H-378.971C-379.455 48.7221 -380.094 48.661 -380.513 48.2623C-381.343 47.4607 -382.267 46.7649 -383.268 46.1871C-383.744 45.9104 -384.236 45.6662 -384.745 45.4506C-384.794 45.4302 -384.835 45.4099 -384.879 45.3895C-385.364 45.1901 -385.86 45.0111 -386.365 44.8646C-386.926 44.7344 -387.325 44.2299 -387.325 43.648V40.3155H-393.306V43.648C-393.306 44.2095 -393.677 44.7018 -394.218 44.8523C-396.415 45.4871 -398.429 46.6468 -400.081 48.2337C-400.48 48.6406 -401.102 48.726 -401.599 48.4412L-404.492 46.7729L-407.487 51.9568L-404.671 53.5885C-404.142 53.8489 -403.869 54.4349 -404.008 55.0045C-404.358 56.4206 -404.488 57.8813 -404.39 59.3339V59.4031V59.4072C-404.337 60.221 -404.211 61.0266 -404.012 61.8201C-403.886 62.3612 -404.126 62.9228 -404.606 63.2035L-407.365 64.8028ZM-1198.2 10.0945L-1205.28 14.1798C-1205.67 14.4036 -1206.14 14.4036 -1206.53 14.1839C-1206.91 13.9601 -1207.15 13.5491 -1207.16 13.1056V4.84951C-1207.16 4.38565 -1206.91 3.96247 -1206.49 3.74274C-1206.09 3.52302 -1205.59 3.5515 -1205.21 3.80785L-1198.12 7.89316C-1197.73 8.1251 -1197.49 8.55641 -1197.5 9.01212C-1197.51 9.47192 -1197.78 9.88695 -1198.19 10.0945L-1198.2 10.0945ZM-1202.95 9.9643L-1201.25 8.9796L-1204.66 7.01429V10.949L-1202.95 9.9643ZM-1202.49 17.1705H-1191.92C-1190.38 17.1665 -1189.14 15.9214 -1189.13 14.3833V3.5968C-1189.14 2.05868 -1190.38 0.813571 -1191.92 0.809508H-1214.62C-1216.16 0.80544 -1217.41 2.05055 -1217.42 3.5968V14.376C-1217.42 15.6251 -1216.58 16.7238 -1215.38 17.0615C-1214.74 17.2405 -1214.35 17.8875 -1214.5 18.5386L-1215.08 21.1061L-1211.61 17.5538C-1211.37 17.3096 -1211.05 17.1754 -1210.71 17.1754H-1207.07C-1207.05 17.1713 -1207.02 17.1713 -1207 17.1754C-1206.98 17.1713 -1206.96 17.1713 -1206.94 17.1754L-1202.49 17.1705ZM-1198.29 19.6689H-1205.75V20.6943C-1205.75 22.2324 -1204.5 23.4775 -1202.96 23.4816H-1184.17H-1184.18C-1183.84 23.4775 -1183.52 23.6159 -1183.28 23.8559L-1179.81 27.4163L-1180.39 24.8488H-1180.4C-1180.54 24.2019 -1180.15 23.5549 -1179.52 23.3758C-1178.31 23.0381 -1177.47 21.9395 -1177.47 20.6862V9.91957C-1177.48 8.38145 -1178.73 7.14041 -1180.26 7.13634H-1186.64V14.3873C-1186.65 17.3048 -1189.01 19.6688 -1191.93 19.677L-1198.29 19.6689ZM-1208.24 19.6689H-1210.18L-1216.38 26.0207C-1216.77 26.4194 -1217.38 26.513 -1217.86 26.2485C-1218.36 25.984 -1218.61 25.4266 -1218.49 24.8813L-1217.16 19.0179H-1217.16C-1218.85 18.0902 -1219.91 16.316 -1219.92 14.3833V3.59685C-1219.91 0.679352 -1217.55 -1.68471 -1214.63 -1.68877H-1191.93C-1189.01 -1.6847 -1186.65 0.67529 -1186.64 3.59685V4.63852H-1180.26C-1177.34 4.64259 -1174.98 7.00664 -1174.98 9.92414V20.7033V20.6992C-1174.98 22.6321 -1176.04 24.4061 -1177.74 25.3338L-1176.4 31.1973V31.2013C-1176.29 31.7425 -1176.54 32.2918 -1177.03 32.5563C-1177.52 32.8208 -1178.12 32.7313 -1178.51 32.3407L-1184.71 25.9848H-1202.96C-1205.88 25.9808 -1208.24 23.6167 -1208.25 20.6992L-1208.24 19.6689ZM-1156.16 71.7033L-1152.28 86.1803V86.1844C-1152.1 86.8517 -1152.5 87.5353 -1153.17 87.7144C-1153.83 87.8894 -1154.52 87.4947 -1154.7 86.8274L-1158.48 72.6961H-1174.37L-1178.7 86.8649H-1178.7C-1178.9 87.52 -1179.59 87.8943 -1180.25 87.699C-1180.91 87.4956 -1181.29 86.8038 -1181.09 86.1446L-1176.51 71.1873V71.1833C-1176.38 70.6055 -1175.88 70.1864 -1175.28 70.1864H-1158.36L-1153.87 51.6645C-1153.71 51.0012 -1153.04 50.5903 -1152.37 50.753C-1151.7 50.9157 -1151.29 51.5913 -1151.45 52.2586L-1156.16 71.7033ZM-1186.09 56.3303L-1173.39 54.0679L-1170.99 50.5848L-1171.08 47.354C-1171.32 40.929 -1165.28 38.7073 -1160.89 40.6239C-1158.66 41.5882 -1157.02 43.5536 -1157.18 46.3123C-1157.11 47.4558 -1157.1 52.7414 -1157.16 57.3071C-1157.21 60.9448 -1157.31 64.2 -1157.48 64.7534C-1157.9 66.1856 -1158.79 67.4389 -1160.01 68.3097C-1162.05 69.8112 -1163.11 69.7664 -1165.32 69.8193C-1169.53 69.9169 -1174.75 69.7908 -1178.65 69.921L-1184.42 87.5971C-1185.79 92.0282 -1191.85 92.5857 -1194.02 88.5004H-1194.02C-1194.67 87.2756 -1194.81 85.8433 -1194.4 84.5209L-1187.85 63.1178C-1189.25 61.775 -1189.52 59.6306 -1188.5 57.9786C-1187.96 57.1119 -1187.08 56.5138 -1186.08 56.3307L-1186.09 56.3303ZM-1168.59 47.1099L-1167 44.8028H-1167C-1166.45 43.9728 -1165.57 43.4072 -1164.59 43.2403C-1163.6 43.0735 -1162.59 43.3217 -1161.79 43.9239C-1160.12 45.2016 -1159.64 47.5982 -1160.85 49.3683L-1168.09 59.9558C-1168.79 60.9731 -1169.65 61.4125 -1170.8 61.6241L-1184.72 64.0981H-1184.72C-1185 64.1469 -1185.29 64.1632 -1185.58 64.1429L-1192.03 85.2408C-1192.24 85.9366 -1192.17 86.6853 -1191.83 87.3241C-1191.49 87.967 -1190.91 88.4471 -1190.21 88.6629C-1189.52 88.8744 -1188.77 88.7971 -1188.13 88.4513C-1187.52 88.1298 -1187.05 87.5886 -1186.83 86.9336C-1186.81 86.8685 -1186.79 86.8115 -1186.77 86.7423L-1180.76 68.3215V68.3256C-1180.59 67.8129 -1180.11 67.467 -1179.58 67.4629C-1177.7 67.3693 -1175.18 67.3734 -1172.44 67.3734L-1165.12 67.3205C-1163.57 67.292 -1162.81 67.2758 -1161.48 66.2951H-1161.48C-1160.71 65.7499 -1160.14 64.9564 -1159.87 64.0491C-1159.77 63.7236 -1159.7 60.7166 -1159.66 57.2823C-1159.59 52.5053 -1159.59 47.0121 -1159.66 46.4511V46.447C-1159.67 46.3697 -1159.68 46.2883 -1159.67 46.2069C-1159.46 43.029 -1163.55 41.6985 -1166.2 42.8744C-1167.59 43.4888 -1168.63 44.8519 -1168.6 47.1062L-1168.59 47.1099ZM-1172.44 56.4361L-1185.69 58.8042C-1186.73 58.9873 -1187.04 60.6596 -1186.06 61.4165V61.4124C-1185.8 61.6199 -1185.45 61.7054 -1185.13 61.6362L-1171.26 59.1663C-1170.75 59.0687 -1170.47 58.9751 -1170.18 58.556L-1162.94 47.9601C-1162.28 47.0039 -1163.08 45.5105 -1164.22 45.7099V45.714C-1164.52 45.775 -1164.79 45.9459 -1164.96 46.2023C-1167.13 49.4372 -1169.4 52.6435 -1171.61 55.858C-1171.79 56.1672 -1172.11 56.3829 -1172.47 56.448L-1172.44 56.4361ZM-1166.19 22.7204V22.7245C-1161.61 22.8791 -1158.03 26.704 -1158.17 31.2816C-1158.16 31.3304 -1158.16 31.3833 -1158.17 31.4321C-1158.27 33.6009 -1159.22 35.6395 -1160.81 37.1165C-1162.41 38.6099 -1164.53 39.4114 -1166.72 39.3423C-1166.78 39.3463 -1166.83 39.3463 -1166.88 39.3423C-1169.04 39.2365 -1171.08 38.2925 -1172.56 36.7096C-1175.69 33.3486 -1175.5 28.0875 -1172.14 24.9586C-1170.53 23.449 -1168.39 22.6474 -1166.18 22.7288L-1166.19 22.7204ZM-1162.23 27.0581C-1165.76 23.2698 -1172.12 25.6583 -1172.3 30.8219V30.826C-1172.36 32.3682 -1171.79 33.8656 -1170.74 34.9926C-1169.71 36.0994 -1168.29 36.7586 -1166.78 36.8359H-1166.74H-1166.74C-1165.18 36.905 -1163.66 36.3435 -1162.52 35.2774C-1161.41 34.248 -1160.75 32.8278 -1160.67 31.3183V31.2694V31.2735C-1160.6 29.7151 -1161.17 28.1933 -1162.24 27.0539L-1162.23 27.0581ZM-1242.94 71.7195L-1247.64 52.2653C-1247.8 51.598 -1247.39 50.9225 -1246.72 50.7598C-1246.06 50.6052 -1245.39 51.0121 -1245.22 51.6754L-1240.74 70.1972H-1223.82C-1223.22 70.1932 -1222.7 70.6123 -1222.59 71.1941L-1218 86.1514H-1218C-1217.81 86.8106 -1218.18 87.5064 -1218.83 87.7058C-1219.49 87.9011 -1220.19 87.5308 -1220.39 86.8717L-1224.72 72.7029H-1240.61L-1244.39 86.8342V86.8382C-1244.57 87.5015 -1245.26 87.9002 -1245.92 87.7212C-1246.24 87.6358 -1246.52 87.4282 -1246.68 87.1393C-1246.85 86.8545 -1246.89 86.5127 -1246.81 86.1912L-1242.94 71.7195ZM-1202.63 51.9518L-1217 53.4573C-1217.35 53.498 -1217.7 53.3841 -1217.96 53.144L-1227.7 45.1606C-1228.8 44.2694 -1230.15 45.2257 -1230 46.6172C-1229.96 47.0404 -1229.76 47.431 -1229.44 47.6996L-1225.8 50.7066C-1225.75 50.7392 -1225.7 50.7799 -1225.66 50.8165L-1218.78 56.4927C-1218.34 56.8589 -1217.99 56.8874 -1217.41 56.8223L-1202.28 55.2354C-1201.05 55.1093 -1200.57 53.2416 -1201.63 52.2936H-1201.63C-1201.9 52.0413 -1202.27 51.9192 -1202.63 51.9518L-1202.63 51.9518ZM-1216.74 50.9223L-1213.66 50.6009L-1205.34 47.9154V47.9113C-1204.84 47.7526 -1204.49 47.305 -1204.44 46.7842C-1204.4 46.2593 -1204.68 45.7629 -1205.14 45.5229C-1205.45 45.3601 -1205.8 45.3276 -1206.13 45.4333L-1217.13 48.9938C-1217.61 49.1402 -1218.14 48.9816 -1218.46 48.595L-1223.88 43.8017C-1226.33 41.6492 -1230.95 40.6604 -1233.4 43.2686C-1235.01 44.9816 -1236.22 47.8748 -1237.19 51.1584C-1238.19 54.5357 -1238.9 58.2874 -1239.5 61.6157C-1239.6 62.7754 -1239.47 63.7194 -1239.16 64.4803V64.4844C-1238.84 65.2046 -1238.34 65.8272 -1237.7 66.2788C-1236.29 67.3205 -1235.48 67.2758 -1233.82 67.3205C-1231.47 67.3734 -1229.03 67.3734 -1226.74 67.3693C-1223.99 67.3693 -1221.46 67.3693 -1219.6 67.4589V67.4548C-1219.06 67.4589 -1218.58 67.8088 -1218.42 68.3174L-1212.37 86.8195C-1212.06 87.8815 -1211.12 88.6465 -1210.03 88.7564C-1208.92 88.8622 -1207.86 88.2966 -1207.34 87.3159C-1207 86.6771 -1206.92 85.9284 -1207.13 85.2326L-1213.8 63.4514H-1213.8C-1213.99 62.841 -1214.39 62.312 -1214.93 61.9662C-1215.47 61.6162 -1216.12 61.4697 -1216.76 61.5471C-1216.81 61.5552 -1216.86 61.5593 -1216.92 61.5593C-1219.19 61.5715 -1221.08 61.6162 -1222.61 61.6529C-1226.4 61.7546 -1228.21 61.7993 -1229.17 60.9326C-1230.33 59.891 -1229.91 58.6662 -1229.12 56.3102C-1228.77 55.2564 -1228.32 53.9136 -1227.89 52.1802L-1231.01 49.6371C-1232.74 48.1641 -1233 45.5925 -1231.6 43.8021C-1230.96 42.9842 -1230.02 42.4634 -1228.98 42.3576C-1227.95 42.2559 -1226.92 42.5774 -1226.12 43.2487L-1216.74 50.9223ZM-1203.22 49.5063L-1202.89 49.4697C-1199.5 49.1157 -1197.25 53.2986 -1199.38 56.1713H-1199.37C-1200 57.038 -1200.96 57.5996 -1202.03 57.7135L-1215.49 59.1336H-1215.48C-1214.82 59.2598 -1214.18 59.5121 -1213.61 59.8823C-1212.57 60.5496 -1211.8 61.5629 -1211.45 62.7429L-1204.79 84.5283C-1203.43 88.9675 -1208.14 92.8494 -1212.23 90.6684C-1213.45 90.0255 -1214.36 88.9227 -1214.77 87.6044L-1220.55 69.92C-1224.45 69.7898 -1229.68 69.92 -1233.88 69.8183C-1236.09 69.7654 -1237.14 69.8061 -1239.19 68.3087C-1241.42 66.673 -1242.26 64.252 -1241.99 61.3507C-1241.98 61.306 -1241.97 61.2571 -1241.96 61.2083C-1241.35 57.7944 -1240.61 53.9451 -1239.59 50.4739C-1238.53 46.8606 -1237.13 43.6177 -1235.22 41.579C-1231.78 37.9129 -1225.66 38.9382 -1222.24 41.9412L-1217.18 46.3886L-1206.88 43.0561C-1203.7 42.0347 -1200.81 45.3917 -1202.35 48.3987C-1202.57 48.8137 -1202.86 49.1881 -1203.21 49.5014L-1203.22 49.5063ZM-1219.25 59.0888C-1219.65 58.926 -1220.03 58.6982 -1220.36 58.4174L-1225.8 53.9293C-1226.16 55.1947 -1226.51 56.2405 -1226.79 57.095C-1227.24 58.4338 -1227.6 59.0197 -1227.53 59.0725C-1227.3 59.28 -1225.81 59.2434 -1222.69 59.1702C-1221.7 59.1376 -1220.56 59.1091 -1219.25 59.0929V59.0888ZM-1227.63 24.8159C-1232.79 24.9949 -1235.18 31.3588 -1231.4 34.8908C-1227.61 38.4227 -1221.42 35.5825 -1221.61 30.427H-1221.6C-1221.73 27.2166 -1224.42 24.706 -1227.63 24.8159ZM-1233.51 24.9624C-1230.38 21.6054 -1225.12 21.4183 -1221.76 24.5473C-1218.41 27.6804 -1218.22 32.9336 -1221.34 36.2984C-1224.47 39.6553 -1229.73 39.8424 -1233.09 36.7134C-1236.44 33.5803 -1236.63 28.3272 -1233.51 24.9624ZM15.9701 60.7696C15.2824 60.7696 14.7208 60.2081 14.7208 59.5205C14.7208 58.8288 15.2824 58.2713 15.9701 58.2713H48.8232C49.515 58.2713 50.0723 58.8288 50.0723 59.5205C50.0723 60.2082 49.515 60.7696 48.8232 60.7696H15.9701ZM24.3156 47.1707C24.3156 47.8584 23.7541 48.4199 23.0664 48.4199C22.3747 48.4199 21.8131 47.8583 21.8131 47.1707C21.8131 45.714 19.9943 45.2949 19.152 46.1494V46.1453C18.8834 46.4179 18.7329 46.7841 18.7369 47.1707V52.9528C18.7369 54.3932 20.5518 54.8164 21.4022 53.9741V53.97C21.6667 53.6974 21.8173 53.3312 21.8173 52.9487C21.8173 52.261 22.3747 51.6995 23.0664 51.6995C23.7581 51.6995 24.3156 52.2611 24.3156 52.9487C24.3156 55.1379 22.5456 56.9079 20.3605 56.9079C19.1602 56.9079 18.1999 56.5661 17.3779 55.7441H17.3739C16.6333 55.0076 16.2181 54.0026 16.2181 52.9568V47.1707C16.2181 44.9815 17.9921 43.2115 20.1772 43.2115C21.3816 43.2115 22.3381 43.5492 23.16 44.3712V44.3671C23.9006 45.1077 24.3156 46.1128 24.3156 47.1626V47.1707ZM48.5625 47.2643C48.5625 47.9519 48.0009 48.5134 47.3132 48.5134C46.6215 48.5134 46.0641 47.9519 46.0641 47.2643C46.06 46.6377 45.6857 46.0762 45.1079 45.836C44.5301 45.596 43.8669 45.7303 43.4233 46.1738C42.9798 46.6132 42.8495 47.2765 43.0896 47.8543C43.3256 48.4321 43.8912 48.8105 44.5138 48.8105C48.1067 48.8105 49.9175 53.1684 47.3784 55.7116C44.8394 58.2547 40.4692 56.444 40.4692 52.8551C40.4692 52.1634 41.0307 51.6059 41.7224 51.6059C42.4101 51.6059 42.9717 52.1634 42.9717 52.8551C42.9717 53.4777 43.3501 54.0432 43.9279 54.2793C44.5016 54.5193 45.1689 54.3851 45.6084 53.9415C46.0479 53.498 46.1781 52.8348 45.938 52.257C45.6979 51.6832 45.1364 51.3089 44.5098 51.3089C40.9209 51.3089 39.1143 46.9428 41.6533 44.4038C44.1924 41.8647 48.5583 43.6714 48.5583 47.2602L48.5625 47.2643ZM33.6459 55.6505V55.6465C33.6459 56.3382 33.0883 56.8997 32.3966 56.8997C31.7049 56.8997 31.1475 56.3382 31.1475 55.6465V46.8981C31.1475 46.3814 30.8504 45.7222 30.4801 45.7222C29.9796 45.7222 29.7762 45.6408 29.5361 45.9541H29.5321C29.3327 46.2268 29.2269 46.5604 29.2391 46.8981V55.6465C29.2391 56.3382 28.6775 56.8997 27.9858 56.8997C27.2982 56.8997 26.7367 56.3382 26.7367 55.6465V46.8981C26.7367 45.0223 28.0226 43.2198 29.8984 43.2198C30.8709 43.2198 31.5503 43.2198 32.3966 43.9685C33.2308 43.2198 33.9185 43.2198 34.895 43.2198C36.7709 43.2198 38.0607 45.0143 38.0607 46.8981V55.6465H38.0648C38.0648 56.3382 37.5034 56.8997 36.8116 56.8997C36.124 56.8997 35.5625 56.3382 35.5625 55.6465V46.8981C35.5625 46.3814 35.2735 45.7222 34.8992 45.7222C34.3905 45.7222 34.1953 45.6408 33.9552 45.9541C33.7558 46.2268 33.65 46.5604 33.6622 46.8981L33.6459 55.6505ZM74.5312 15.5672C79.9959 15.5672 84.6996 19.4287 85.7655 24.7917C86.8315 30.1546 83.9631 35.5219 78.9094 37.6135C73.8597 39.705 68.0363 37.935 64.9978 33.3899C61.9623 28.8448 62.5606 22.7857 66.4261 18.9201C68.5786 16.7717 71.4918 15.5672 74.5312 15.5672ZM80.8625 20.6901C78.2991 18.1267 74.4457 17.3576 71.0969 18.7451C67.7482 20.1326 65.5671 23.4001 65.5671 27.0215C65.5671 30.647 67.7482 33.9103 71.0969 35.2978C74.4457 36.6853 78.2991 35.9163 80.8625 33.3569C84.3579 29.8575 84.3579 24.1852 80.8625 20.6901ZM80.9236 8.17772C83.3975 9.02 85.6802 10.3383 87.6415 12.0637L91.6698 9.73616H91.6658C92.2639 9.39437 93.0248 9.59781 93.3706 10.1919L98.5179 19.1152C98.8557 19.7134 98.6522 20.4702 98.0581 20.8161L94.038 23.1354H94.0339C94.5507 25.6948 94.5507 28.3316 94.0339 30.8909L98.0623 33.2184C98.6604 33.5643 98.8597 34.3252 98.5179 34.9233L93.3706 43.8426C93.1956 44.1397 92.9108 44.3512 92.5771 44.4326C92.2394 44.5099 91.8895 44.4489 91.6006 44.2577L90.9252 43.8792V71.2876C90.9252 71.9752 90.3637 72.5367 89.676 72.5367H52.7865V80.5567H62.7271C64.5866 80.5608 66.0921 82.0663 66.0962 83.9259V86.054C66.0962 86.7458 65.5347 87.3032 64.847 87.3032H28.3074C27.6156 87.3032 27.0583 86.7457 27.0583 86.054V83.93C27.0624 82.0704 28.5679 80.5608 30.4315 80.5567H40.364V72.5367H3.47034C2.77861 72.5367 2.22107 71.9793 2.22107 71.2876V15.9042C2.22107 15.2125 2.77863 14.6551 3.47034 14.6551H53.1161L55.6836 10.1955H55.6876C56.0335 9.60548 56.7903 9.40611 57.3844 9.74384L61.4169 12.0713C63.3741 10.342 65.6567 9.01956 68.1266 8.17727V3.53863C68.1266 2.8469 68.6882 2.28946 69.3759 2.28946H79.6744C80.3662 2.28946 80.9237 2.84692 80.9237 3.53863L80.9236 8.17772ZM88.4227 42.4225L87.6293 41.9668C87.1573 42.3818 86.665 42.7765 86.1522 43.1427V66.6615L86.1562 66.6655C86.1562 67.3573 85.5948 67.9147 84.9071 67.9147H8.23523C7.5435 67.9147 6.98193 67.3573 6.98193 66.6655V20.5228C6.98193 19.8311 7.54352 19.2737 8.23523 19.2737H50.4633C50.4877 19.2248 50.508 19.1719 50.5365 19.1272L51.6718 17.1619L4.71973 17.1578V70.0349H88.427L88.4227 42.4225ZM83.658 44.6849C82.7791 45.1447 81.8635 45.5394 80.9236 45.8649V50.5076V50.5035C80.9236 51.1953 80.3661 51.7568 79.6744 51.7568H69.3799C68.6882 51.7568 68.1307 51.1953 68.1307 50.5035V45.8649C65.6608 45.0226 63.3821 43.7002 61.4209 41.979L57.3844 44.3065C56.7863 44.6442 56.0294 44.4407 55.6836 43.8426L50.5322 34.9233V34.9274C50.1945 34.3292 50.398 33.5683 50.9921 33.2266L55.0122 30.9072L55.0162 30.9031C54.5076 28.3437 54.5076 25.707 55.0162 23.1435L52.6442 21.7682H9.48364V65.4203H83.666L83.658 44.6849ZM83.2185 11.9537C82.0141 11.2579 80.7283 10.7045 79.3895 10.3179C78.8239 10.1836 78.4252 9.6791 78.4252 9.10126V4.78814H70.6249V9.10126C70.6289 9.65872 70.2587 10.1511 69.7216 10.3056C66.9912 11.0869 64.4929 12.5314 62.4502 14.5048C62.0514 14.8873 61.4493 14.9605 60.9691 14.6879L57.2174 12.5232L54.9672 16.4254L54.9713 16.4213C54.9347 16.4946 54.898 16.5638 54.8533 16.6329L53.3192 19.29L53.4901 19.3877L53.4861 19.3836C53.5593 19.4162 53.6285 19.4568 53.6976 19.5016L56.9895 21.4018C57.5144 21.6622 57.7911 22.2482 57.6527 22.8179C56.9732 25.5807 56.9732 28.4616 57.6527 31.2244C57.7829 31.7615 57.5389 32.3231 57.0587 32.5997L53.3152 34.7603L57.2174 41.5231L60.8956 39.4031H60.8997C61.3879 39.0816 62.0308 39.1426 62.45 39.5455C64.4844 41.5067 66.9625 42.9431 69.6765 43.7325C70.234 43.8667 70.6287 44.3672 70.6328 44.941V49.2582H78.425V44.941C78.425 44.3835 78.7953 43.8953 79.3324 43.7407C81.0454 43.2524 82.669 42.4996 84.1501 41.5109C84.1949 41.4743 84.2397 41.4458 84.2844 41.4132C85.1104 40.8558 85.8876 40.2292 86.6078 39.5415C87.0065 39.159 87.6088 39.0857 88.089 39.3584L90.2048 40.5832L90.2008 40.5791C90.274 40.6116 90.3432 40.6483 90.4124 40.693L91.8406 41.5272L95.7428 34.7645L92.0237 32.6201H92.0197C91.5273 32.3434 91.2831 31.7737 91.4174 31.2245C92.0928 28.4657 92.0928 25.5807 91.4174 22.822C91.2912 22.2808 91.5313 21.7233 92.0115 21.4466L95.7507 19.2901L91.8406 12.5233L88.1622 14.6474C87.674 14.9688 87.0311 14.9078 86.6119 14.505C85.5865 13.5203 84.4474 12.6657 83.2185 11.9537ZM42.8665 80.5568H50.2883V72.5368H42.8665V80.5568ZM62.7268 83.0551H30.4352V83.0592C29.955 83.0592 29.5644 83.4457 29.5603 83.9259V84.8007H63.5936C63.5936 84.1985 63.6953 83.6655 63.3413 83.3114H63.3373C63.1745 83.1487 62.9548 83.0592 62.7269 83.0592L62.7268 83.0551ZM-1013.21 -1.77613L-1016.51 11.302C-1016.62 11.7455 -1016.97 12.0914 -1017.41 12.2053C-1017.86 12.3152 -1018.33 12.1809 -1018.64 11.8472L-1020.46 10.0813C-1024.47 15.017 -1029.67 19.497 -1035.75 22.3417C-1041.32 24.9378 -1047.61 26.1869 -1054.39 25.1941C-1055.88 24.9744 -1055.79 22.7242 -1054.18 22.708C-1049.99 22.5289 -1045.44 20.9298 -1040.57 17.7234C-1036.04 14.7367 -1031.25 10.3707 -1026.23 4.4786L-1028.26 2.51328V2.50922C-1028.58 2.1959 -1028.71 1.74017 -1028.6 1.3089C-1028.49 0.877631 -1028.15 0.535788 -1027.73 0.413715L-1014.77 -3.28097C-1014.34 -3.39897 -1013.88 -3.28097 -1013.56 -2.9758C-1013.24 -2.66655 -1013.11 -2.21082 -1013.22 -1.77955L-1013.21 -1.77613ZM-1017.28 4.15241L-1016.16 -0.290925L-1024.97 2.20741L-1023.66 3.47699V3.48106C-1023.2 3.93679 -1023.16 4.66919 -1023.57 5.16971C-1029.82 12.6689 -1036.7 18.9843 -1043.78 22.4103C-1034.65 20.5142 -1027.05 14.5368 -1021.57 7.45721V7.45314C-1021.35 7.16831 -1021.02 6.9852 -1020.66 6.95672C-1020.3 6.93231 -1019.95 7.06251 -1019.69 7.31479L-1018.39 8.58438L-1017.28 4.15241ZM-1013.26 49.5909H-1003.58L-1003.57 17.6691H-1013.26L-1013.26 49.5909ZM-1015.76 22.093V16.4168C-1015.76 15.7291 -1015.2 15.1676 -1014.51 15.1676H-1002.32C-1001.63 15.1676 -1001.07 15.7291 -1001.07 16.4168V50.8407C-1001.07 51.5325 -1001.63 52.0899 -1002.32 52.0899H-1051.08C-1051.77 52.0899 -1052.33 51.5324 -1052.33 50.8407V37.6532C-1052.33 36.9656 -1051.77 36.4041 -1051.08 36.4041H-1040.13L-1040.14 30.4796C-1040.14 29.7879 -1039.58 29.2304 -1038.89 29.2304H-1027.94L-1027.94 23.3467C-1027.94 22.655 -1027.38 22.0975 -1026.69 22.0975L-1015.76 22.093ZM-1015.76 24.5914H-1025.45V49.5914H-1015.76V24.5914ZM-1027.94 31.7244H-1037.64V49.5838H-1027.94V31.7244ZM-1040.13 38.894H-1049.83V49.5836H-1040.13V38.894ZM-1088.52 63.0846L-1082.43 60.3218C-1080.73 59.5487 -1078.73 60.4235 -1078.02 62.1163C-1077.11 61.4164 -1076.2 60.6799 -1075.31 59.9312C-1064.59 50.9834 -1059.8 51.7402 -1042.5 53.4737C-1039.74 53.7503 -1038.06 54.967 -1037.32 56.5173L-1037.33 56.5092C-1036.8 57.6322 -1036.75 58.918 -1037.19 60.0777L-1030.46 56.7941C-1028.51 55.8338 -1026.31 55.5001 -1024.16 55.8378C-1022.36 56.1267 -1020.8 56.9079 -1019.79 57.9334L-1017.45 56.794C-1012.64 54.4421 -1007.1 56.2162 -1005.79 59.3493C-1002.94 58.4704 -1000.24 58.7674 -998.451 59.687C-996.885 60.4968 -995.741 61.9372 -995.965 63.7072C-996.136 65.0582 -997.117 66.4823 -999.196 67.7193L-1015.34 77.3344C-1016.13 77.8064 -1021.41 79.7555 -1026.76 81.5459C-1029.87 82.5875 -1036.59 84.7319 -1037.56 84.7767L-1067.75 86.0259V86.0218C-1067.93 86.0299 -1068.12 86.0462 -1068.3 86.0747C-1067.99 87.6494 -1068.81 89.2241 -1070.28 89.867L-1076.48 92.6827C-1078.19 93.346 -1080.12 92.5078 -1080.8 90.8069L-1090.34 67.4631C-1091.02 65.7542 -1090.22 63.8173 -1088.54 63.089L-1088.52 63.0846ZM-1077.04 64.5088L-1069.2 83.7025L-1069.2 83.6984C-1068.75 83.6089 -1068.3 83.552 -1067.84 83.5275C-1066.59 83.4746 -1056.53 83.0718 -1048.12 82.7259C-1043.75 82.5469 -1039.81 82.3842 -1037.76 82.2946C-1035.58 81.7982 -1031.53 80.5287 -1027.54 79.19C-1022.32 77.4362 -1017.26 75.593 -1016.6 75.2023L-1000.45 65.5913C-998.44 64.391 -997.553 62.9546 -999.579 61.913C-1001.04 61.1683 -1003.39 61.03 -1005.91 62.0594L-1024.81 69.7661L-1024.9 69.8027L-1025.01 69.8394H-1025.02C-1025.05 69.8516 -1025.09 69.8556 -1025.12 69.8678C-1025.16 69.8801 -1025.2 69.8841 -1025.24 69.8963H-1025.25L-1025.38 69.9207H-1025.39L-1025.53 69.9411H-1025.54L-1025.68 69.9614H-1025.7L-1025.85 69.9777H-1025.86L-1026.02 69.9981H-1026.04L-1026.2 70.0143H-1026.23L-1026.39 70.0347H-1026.43C-1026.48 70.0347 -1026.53 70.0347 -1026.59 70.0469H-1026.62C-1026.68 70.0469 -1026.74 70.0591 -1026.8 70.0591H-1026.81L-1026.82 70.0469C-1026.88 70.055 -1026.94 70.0591 -1027.01 70.0591H-1027.04C-1027.11 70.0591 -1027.17 70.0591 -1027.25 70.0713H-1027.49H-1027.7H-1027.72H-1027.93H-1027.97H-1028.19H-1031.39C-1033.4 69.994 -1036.94 69.7865 -1038.06 69.4894L-1039.31 69.1598L-1046.71 67.1945C-1046.71 67.1945 -1046.73 67.1945 -1046.74 67.1823L-1057.87 64.2242C-1059.28 63.8539 -1058.99 61.738 -1057.52 61.7746L-1044.82 62.0757C-1042.42 62.1367 -1040.71 61.1805 -1039.9 59.968C-1039.42 59.26 -1039.21 58.3607 -1039.57 57.608C-1039.96 56.7983 -1040.98 56.1513 -1042.75 55.9723C-1059.22 54.3203 -1063.79 53.5878 -1073.71 61.8642C-1074.84 62.8082 -1075.93 63.6911 -1077.04 64.5212L-1077.04 64.5088ZM-1081.41 62.5964L-1087.5 65.3592V65.3551C-1087.96 65.5382 -1088.19 66.0509 -1088.02 66.5148L-1078.49 89.8627C-1078.32 90.2859 -1077.85 90.5056 -1077.42 90.3632L-1071.3 87.5881C-1070.85 87.4009 -1070.62 86.8964 -1070.78 86.4325L-1071.09 85.6756C-1071.11 85.6349 -1071.13 85.5902 -1071.14 85.5454L-1079.68 64.6392C-1079.71 64.5781 -1079.74 64.5171 -1079.76 64.452L-1080.32 63.0848V63.0807C-1080.49 62.6454 -1080.98 62.4256 -1081.42 62.5925L-1081.41 62.5964ZM-1046.26 64.5251L-1047.09 64.5007L-1046.53 64.6472L-1046.26 64.5251ZM-1029.18 67.6257C-1027.56 67.6502 -1026.24 67.6054 -1025.82 67.4711H-1025.8C-1025.78 67.4711 -1025.78 67.4711 -1025.77 67.4589L-1008.14 60.269C-1008.71 59.0646 -1010.56 58.4094 -1011.96 58.2548L-1011.96 58.2508C-1013.48 58.1002 -1015 58.3728 -1016.36 59.0483L-1033.58 67.4549C-1032.83 67.5037 -1032.12 67.5362 -1031.53 67.5607C-1030.79 67.5932 -1029.99 67.6136 -1029.21 67.6258L-1029.18 67.6257ZM-1035.79 65.7499L-1022.24 59.1296L-1022.24 59.1255C-1022.95 58.6983 -1023.74 58.4135 -1024.56 58.2954C-1026.2 58.0391 -1027.88 58.2954 -1029.37 59.0319L-1042.85 65.6156L-1039 66.641C-1038.26 66.4457 -1036.05 65.8679 -1035.79 65.7417L-1035.79 65.7499ZM-710.175 62.7714C-706.143 62.7714 -704.104 67.6745 -706.961 70.5269C-709.817 73.3793 -714.716 71.3488 -714.716 67.3124H-714.721C-714.721 64.8059 -712.686 62.7714 -710.18 62.7714H-710.175ZM-708.735 65.872C-709.317 65.2901 -710.196 65.1152 -710.961 65.4285C-711.722 65.7459 -712.222 66.4864 -712.222 67.3124C-712.222 68.1385 -711.722 68.8831 -710.961 69.1964C-710.2 69.5138 -709.321 69.3429 -708.735 68.761C-707.938 67.9635 -707.938 66.6695 -708.735 65.872ZM-766.962 62.7877C-762.93 62.7877 -760.891 67.6908 -763.748 70.5432C-766.604 73.3956 -771.499 71.3652 -771.499 67.3288C-771.499 64.8223 -769.469 62.7877 -766.962 62.7877ZM-765.501 65.8843C-766.087 65.3024 -766.966 65.1274 -767.727 65.4448C-768.488 65.7581 -768.989 66.5027 -768.993 67.3288C-768.989 68.1548 -768.492 68.8953 -767.727 69.2127C-766.966 69.5301 -766.087 69.3552 -765.501 68.7774C-764.704 67.9758 -764.704 66.6858 -765.501 65.8843ZM-710.171 18.3822C-706.139 18.3822 -704.1 23.2813 -706.957 26.1377C-709.813 28.9901 -714.712 26.9597 -714.712 22.9232L-714.716 22.9273C-714.716 21.7229 -714.236 20.5673 -713.386 19.7169C-712.535 18.8624 -711.38 18.3864 -710.175 18.3864L-710.171 18.3822ZM-708.727 21.4869C-709.313 20.905 -710.192 20.7301 -710.953 21.0434C-711.713 21.3608 -712.214 22.1013 -712.218 22.9273C-712.214 23.7533 -711.717 24.498 -710.953 24.8153C-710.192 25.1287 -709.313 24.9578 -708.727 24.3718C-708.344 23.9893 -708.129 23.4726 -708.129 22.9274C-708.129 22.3862 -708.344 21.8694 -708.727 21.4869ZM-729.398 52.1797H-726.338C-724.645 52.1756 -723.278 50.8084 -723.27 49.1157V40.4853C-723.278 38.7926 -724.645 37.4254 -726.338 37.4173H-729.402L-729.398 52.1797ZM-726.334 54.678H-730.651L-730.647 54.6821C-731.338 54.6821 -731.9 54.1206 -731.9 53.4329V36.1683C-731.9 35.4766 -731.338 34.9192 -730.647 34.9192H-726.338C-723.266 34.9233 -720.775 37.4135 -720.767 40.4856V49.1119C-720.775 52.184 -723.265 54.6701 -726.338 54.6783L-726.334 54.678ZM-734.065 40.4812L-734.061 40.4852C-734.061 41.177 -734.622 41.7344 -735.31 41.7344C-736.002 41.7344 -736.559 41.1769 -736.559 40.4852C-736.563 39.2482 -737.308 38.1293 -738.455 37.6573C-739.599 37.1812 -740.913 37.4416 -741.792 38.3165C-743.725 40.2452 -742.353 43.5492 -739.627 43.5492C-734.671 43.5492 -732.205 49.555 -735.692 53.0463C-739.184 56.5375 -745.194 54.0513 -745.194 49.1075C-745.194 48.4158 -744.636 47.8584 -743.944 47.8584C-743.253 47.8584 -742.695 48.4158 -742.695 49.1075C-742.695 51.8378 -739.387 53.205 -737.462 51.2763C-735.538 49.3475 -736.925 46.0354 -739.631 46.0354C-744.571 46.0354 -747.065 40.0337 -743.57 36.5343C-740.071 33.0309 -734.069 35.5293 -734.069 40.473L-734.065 40.4812ZM-746.979 40.4812L-746.975 40.4852C-746.975 41.177 -747.537 41.7344 -748.229 41.7344C-748.916 41.7344 -749.478 41.1769 -749.478 40.4852C-749.478 37.7549 -752.79 36.3918 -754.714 38.3165C-756.639 40.2412 -755.268 43.5492 -752.55 43.5492C-747.59 43.5492 -745.12 49.555 -748.611 53.0463C-752.102 56.5375 -758.112 54.0513 -758.112 49.1075C-758.112 48.4158 -757.551 47.8583 -756.859 47.8583C-756.171 47.8583 -755.61 48.4158 -755.61 49.1075C-755.61 51.8378 -752.302 53.205 -750.377 51.2763C-748.448 49.3475 -749.836 46.0354 -752.546 46.0354C-757.482 46.0354 -759.976 40.0337 -756.481 36.5343C-752.985 33.0308 -746.979 35.5292 -746.979 40.473V40.4812ZM-767.561 29.3041H-711.311L-711.307 29.3081C-710.615 29.3081 -710.057 29.8656 -710.057 30.5573V59.0448C-710.057 59.7365 -710.615 60.294 -711.307 60.294H-767.557C-768.248 60.294 -768.806 59.7365 -768.806 59.0448V30.55C-768.806 29.8624 -768.248 29.3008 -767.557 29.3008L-767.561 29.3041ZM-712.56 31.8024H-766.299L-766.295 57.7909H-712.556L-712.56 31.8024ZM-691.197 60.3753H-685.126V56.522H-691.197V60.3753ZM-685.126 62.8736H-691.197V66.7189H-685.126V62.8736ZM-691.197 41.3809H-685.126V36.8806H-691.197V41.3809ZM-685.126 43.8793H-691.197V48.3877H-685.126V43.8793ZM-691.197 34.3781H-685.126V29.8778H-691.197V34.3781ZM-691.197 27.3672H-685.126V22.8669H-691.197V27.3672ZM-685.142 69.2214H-692.467C-693.154 69.2214 -693.716 68.6598 -693.716 67.9681V55.2608C-693.716 54.5732 -693.154 54.0117 -692.467 54.0117H-685.142V50.8867H-692.467C-693.154 50.8867 -693.716 50.3252 -693.716 49.6375V21.6146C-693.716 20.9269 -693.154 20.3654 -692.467 20.3654H-685.142V19.1163C-685.151 16.4754 -687.291 14.3352 -689.932 14.3229H-699.632L-699.636 75.2813H-689.932C-687.291 75.2731 -685.151 73.1328 -685.142 70.4879V69.2214ZM-702.138 75.276V14.3146H-771.597H-771.592C-774.237 14.3227 -776.378 16.463 -776.386 19.1079V70.4715C-776.378 73.1123 -774.237 75.2525 -771.592 75.2607L-702.138 75.276ZM-766.961 18.3875C-762.929 18.3875 -760.89 23.2866 -763.747 26.143C-766.603 28.9954 -771.498 26.965 -771.498 22.9286C-771.502 21.7242 -771.022 20.5686 -770.172 19.7181C-769.321 18.8636 -768.166 18.3875 -766.961 18.3875ZM-765.513 21.4881C-766.094 20.9022 -766.973 20.7272 -767.738 21.0405C-768.503 21.3579 -769 22.1025 -769 22.9286C-769 23.7546 -768.503 24.4992 -767.738 24.8166C-766.973 25.1299 -766.099 24.959 -765.513 24.3731C-765.13 23.9906 -764.914 23.4738 -764.914 22.9286C-764.914 22.3874 -765.13 21.8706 -765.513 21.4881ZM-771.604 11.8243H-689.943C-685.922 11.8365 -682.667 15.0957 -682.651 19.1159V70.4712C-682.667 74.4914 -685.922 77.7506 -689.943 77.7628H-771.6C-775.624 77.7506 -778.883 74.4914 -778.891 70.4712V19.1201C-778.883 15.0958 -775.624 11.8366 -771.6 11.8285L-771.604 11.8243ZM208.906 44.7878C208.215 44.7878 207.657 44.2304 207.657 43.5387C207.657 42.851 208.215 42.2895 208.906 42.2895H216.035C216.727 42.2895 217.285 42.851 217.285 43.5387C217.285 44.2304 216.727 44.7878 216.035 44.7878H208.906ZM209.781 33.3618C209.09 33.3618 208.532 32.8043 208.532 32.1126C208.532 31.4209 209.09 30.8634 209.781 30.8634H212.231C212.923 30.8634 213.48 31.4209 213.48 32.1126C213.48 32.8043 212.923 33.3618 212.231 33.3618H209.781ZM207.234 27.6448C206.546 27.6448 205.985 27.0873 205.985 26.3956C205.985 25.7039 206.546 25.1465 207.234 25.1465H216.035C216.727 25.1465 217.284 25.7039 217.284 26.3956C217.284 27.0874 216.727 27.6448 216.035 27.6448H207.234ZM202.298 29.1951C205.045 31.9376 205.867 36.0677 204.378 39.6566C202.892 43.2414 199.393 45.5811 195.511 45.5811C191.625 45.5811 188.126 43.2414 186.641 39.6566C185.156 36.0677 185.978 31.9376 188.724 29.1951C192.472 25.4435 198.547 25.4435 202.298 29.1951ZM200.541 30.957C198.51 28.9266 195.454 28.3162 192.797 29.4189C190.144 30.5175 188.415 33.1054 188.415 35.9822C188.415 38.8549 190.144 41.4428 192.797 42.5455C195.454 43.6442 198.51 43.0338 200.541 41.0033C201.875 39.6728 202.624 37.8662 202.624 35.9822C202.624 34.0982 201.875 32.2916 200.541 30.957ZM208.329 35.9781H208.333C208.333 40.6127 205.834 44.8852 201.798 47.1552C197.757 49.4257 192.809 49.3403 188.85 46.9273L187.182 48.5957C187.182 48.7178 187.194 48.8439 187.182 48.966H213.667V48.8764C213.667 48.1888 214.225 47.6273 214.916 47.6273H223.343V43.1799C223.343 42.4882 223.905 41.9267 224.592 41.9267H233.019V37.5199C233.019 36.8282 233.581 36.2707 234.268 36.2707H236.767L236.771 33.8619L236.628 34.0043C236.177 34.4559 235.456 34.4885 234.96 34.0897L227.554 28.0676L210.651 39.5666L210.655 39.5625C210.122 39.9125 209.41 39.8026 209.003 39.3103C208.601 38.8179 208.633 38.0977 209.077 37.6419L226.911 20.1857H226.915C227.359 19.7503 228.054 19.7096 228.551 20.088L235.472 25.4714L236.754 24.1896V17.9396H182.436V44.299C182.591 44.2908 182.745 44.2908 182.9 44.299L184.568 42.6306H184.564C182.477 39.2085 182.111 35.0053 183.58 31.2702C185.049 27.539 188.178 24.7069 192.039 23.6246C195.901 22.5381 200.047 23.3275 203.245 25.7527C206.44 28.1737 208.315 31.9539 208.315 35.9659L208.329 35.9781ZM186.836 45.4101C186.571 45.17 186.323 44.9218 186.079 44.6533L185.453 45.2799C185.587 45.3938 185.725 45.5078 185.855 45.6339C185.986 45.76 186.095 45.8902 186.209 46.0367L186.836 45.4101ZM202.798 43.2739C205.643 40.4255 206.571 36.1856 205.179 32.4134C203.783 28.6415 200.324 26.0211 196.312 25.7077C192.304 25.3903 188.476 27.4371 186.51 30.9445C184.545 34.4561 184.797 38.7895 187.161 42.0445C187.178 42.0567 187.186 42.073 187.198 42.0892C187.507 42.5083 187.849 42.9031 188.219 43.2733C188.585 43.6436 188.98 43.9854 189.403 44.2946C189.419 44.3028 189.432 44.315 189.448 44.3272C193.554 47.3057 199.214 46.8587 202.798 43.2739ZM184.659 48.4619C184.659 48.4212 184.643 48.3886 184.635 48.352C184.48 47.762 184.077 47.2737 183.532 47.0051C182.982 46.7407 182.348 46.7284 181.79 46.9685C181.75 46.9889 181.709 47.0092 181.664 47.0296C181.485 47.1272 181.314 47.2534 181.172 47.3998L172.566 56.0058V56.0017C171.776 56.8114 171.78 58.1054 172.582 58.907C173.38 59.7045 174.673 59.7127 175.483 58.9192L184.081 50.3174C184.26 50.1424 184.399 49.9349 184.5 49.707C184.614 49.4466 184.675 49.1618 184.675 48.8729C184.679 48.7426 184.667 48.6084 184.643 48.4782L184.659 48.4619ZM186.376 51.4607C186.225 51.6845 186.05 51.8921 185.863 52.0874L177.253 60.6771C174.405 63.5213 169.469 61.5315 169.469 57.4503V57.4543C169.465 56.2458 169.945 55.0862 170.796 54.2316L179.406 45.6216C179.572 45.4548 179.752 45.3043 179.939 45.1659V27.1201H165.331V65.4222H230.635V60.5882H214.916C214.224 60.5882 213.667 60.0267 213.667 59.339V51.4614L186.376 51.4607ZM187.157 21.9274C186.465 21.9274 185.904 21.37 185.904 20.6782C185.904 19.9865 186.465 19.4291 187.157 19.4291H216.035C216.727 19.4291 217.284 19.9865 217.284 20.6782C217.284 21.37 216.727 21.9274 216.035 21.9274H187.157ZM247.68 18.1066L242.59 19.4697L242.919 19.7952H242.915C243.151 20.0312 243.286 20.3486 243.286 20.6823C243.286 21.0159 243.151 21.3333 242.915 21.5693L238.899 25.5854L238.879 25.6017L236.466 28.0106H236.47C235.998 28.4826 235.245 28.5029 234.749 28.0594L227.872 22.7249L220.845 29.6016L226.904 25.4716C227.376 25.1461 228.01 25.1868 228.438 25.5693L235.64 31.4327L244.218 22.8552V22.8593C244.454 22.6233 244.771 22.489 245.104 22.489C245.438 22.489 245.756 22.6233 245.988 22.8593L246.313 23.1848L247.68 18.1066ZM244.49 16.3772L249.108 15.1402L249.104 15.1443C249.536 15.0222 249.999 15.1443 250.317 15.4576C250.638 15.775 250.764 16.2348 250.646 16.6661L248.177 25.8743H248.181C248.083 26.3219 247.749 26.6799 247.314 26.8101C246.874 26.9404 246.402 26.8224 246.077 26.5009L245.1 25.5284L239.253 31.3756V36.2828H242.683L242.687 32.0266C242.687 31.339 243.245 30.7775 243.937 30.7775H253.609C254.3 30.7775 254.862 31.339 254.862 32.0266V59.3339C254.862 60.0257 254.3 60.5831 253.609 60.5831H237.337V70.7515H237.341C237.341 71.4433 236.779 72.0048 236.088 72.0048H203.617V78.804H212.255C213.085 78.804 213.879 79.1336 214.465 79.7196C215.051 80.3055 215.38 81.0989 215.38 81.929V83.8049C215.38 84.4925 214.823 85.054 214.131 85.054H181.823C181.135 85.054 180.574 84.4925 180.574 83.8049V81.929C180.574 80.2038 181.974 78.804 183.699 78.804H192.337V72.0007H159.862C159.171 72.0007 158.613 71.4432 158.613 70.7515V21.7932C158.613 21.1015 159.171 20.544 159.862 20.544H179.938V9.58258C179.942 6.79529 182.197 4.53696 184.984 4.52883H234.215H234.211C236.998 4.53697 239.253 6.79529 239.257 9.58258V17.9688C239.415 17.7979 239.623 17.6718 239.851 17.6108L244.49 16.3772ZM239.257 21.6914L240.266 20.6823L239.294 19.7057L239.257 19.6691V21.6914ZM245.19 58.0882H252.359V33.2799H245.19V58.0882ZM234.838 60.5866H233.125V66.6739C233.125 67.3656 232.564 67.9271 231.876 67.9271H164.082C163.395 67.9271 162.833 67.3656 162.833 66.6739V25.8655C162.833 25.1779 163.395 24.6164 164.082 24.6164H179.944V23.0376L161.117 23.0417V69.5021H234.839L234.838 60.5866ZM242.688 38.773H235.518V58.0887H242.688V38.773ZM233.02 44.429H225.846V58.0842H233.02V44.429ZM223.348 50.1174H216.166V58.0845H223.339L223.348 50.1174ZM201.545 8.38616C204.227 8.38616 205.586 11.6454 203.686 13.5456C201.785 15.4458 198.518 14.0949 198.518 11.4094C198.522 9.73699 199.877 8.38616 201.545 8.38616ZM201.92 11.0392C201.432 10.5468 200.671 11.2915 201.171 11.7838C201.672 12.2762 202.42 11.5315 201.92 11.0392ZM194.612 8.38616C197.297 8.38616 198.652 11.6454 196.748 13.5456C194.844 15.4458 191.585 14.0868 191.585 11.4013C191.593 9.73293 192.944 8.38616 194.612 8.38616ZM194.982 11.0392C194.494 10.5468 193.749 11.2915 194.237 11.7838C194.726 12.2762 195.474 11.5315 194.982 11.0392ZM182.442 15.4419H236.759V9.58251C236.755 8.1746 235.616 7.03939 234.212 7.03533H184.985C183.581 7.03939 182.442 8.17876 182.438 9.58251L182.442 15.4419ZM187.67 8.38626C190.356 8.38626 191.715 11.6455 189.815 13.5457C189.103 14.2619 188.077 14.5752 187.084 14.3799C186.095 14.1846 185.265 13.5051 184.879 12.5732C184.492 11.6373 184.594 10.5753 185.156 9.73301C185.717 8.89073 186.661 8.38626 187.67 8.38626ZM188.041 11.0271C187.548 10.5347 186.804 11.2794 187.296 11.7717C187.784 12.2641 188.533 11.5194 188.041 11.0271ZM213.805 8.08522H233.3C233.992 8.08522 234.549 8.64674 234.549 9.33845V13.4644C234.549 14.1561 233.992 14.7136 233.3 14.7136H213.805C213.113 14.7136 212.556 14.1561 212.556 13.4644V9.33845C212.556 8.65078 213.113 8.08928 213.805 8.08928V8.08522ZM232.047 10.5836H215.058V12.2112H232.047V10.5836ZM194.839 78.8044H201.114L201.11 72.0011H194.839V78.8044ZM212.255 81.3027H183.695C183.349 81.3027 183.072 81.5835 183.072 81.9293V82.556H212.881C212.881 82.1246 212.951 81.7381 212.698 81.4859C212.58 81.3679 212.422 81.3027 212.255 81.3027ZM-907.641 44.885L-917.284 50.4596C-917.671 50.6753 -918.143 50.6712 -918.525 50.4515C-918.908 50.2277 -919.144 49.8208 -919.148 49.3773V38.1627C-919.148 37.6988 -918.892 37.2675 -918.477 37.0519C-918.061 36.8362 -917.565 36.8688 -917.183 37.1373L-912.426 39.8839L-907.572 42.6915L-907.567 42.6874C-907.177 42.9194 -906.941 43.3507 -906.957 43.8064C-906.969 44.2621 -907.234 44.6731 -907.641 44.8805L-907.641 44.885ZM-913.671 45.4954L-910.684 43.7702L-913.679 42.0449L-916.662 40.3197V47.2167L-913.671 45.4954ZM-925.516 31.4568H-924.613C-924.637 30.4599 -924.613 29.4712 -924.576 28.4783H-928.979C-930.936 28.4783 -932.458 26.7937 -932.458 24.8365L-932.462 1.6188C-932.462 -0.342445 -930.94 -2.02297 -928.983 -2.02297H-900.097C-899.707 -2.02297 -899.316 -1.95379 -898.946 -1.81545C-898.71 -1.88462 -898.474 -1.94565 -898.238 -2.00668C-889.009 -4.35856 -878.76 -3.60585 -870.003 0.564981C-860.755 4.96769 -853.373 13.065 -850.354 24.9379C-849.5 28.2866 -849.105 30.2927 -849.113 31.9C-849.142 33.6415 -849.63 34.793 -850.57 36.3922C-851.64 38.2232 -850.57 39.623 -848.442 42.3939C-847.909 43.0979 -847.315 43.871 -846.717 44.6848C-843.669 48.8717 -841.622 51.948 -841.606 54.3039C-841.586 57.0912 -843.848 58.5641 -849.553 58.9426C-850.037 58.9792 -850.192 59.1949 -850.163 59.6506C-850.122 60.2243 -849.862 60.5132 -849.537 60.9771C-848.32 62.7267 -848.633 65.929 -850.594 67.3003L-850.599 67.3044C-851.302 67.817 -852.116 68.1548 -852.975 68.2931C-851.16 71.1496 -852.401 74.0101 -855.986 75.0192C-856.193 75.0802 -855.791 75.1453 -855.807 75.4057C-855.819 75.5644 -855.831 75.7394 -855.856 75.9794C-856.966 86.2943 -860.816 85.9933 -867.88 85.448C-868.295 85.4114 -868.734 85.3788 -869.178 85.3463V85.3381C-869.275 85.3544 -869.377 85.3544 -869.475 85.3381L-869.951 85.2852C-871.285 85.2038 -872.726 85.1428 -874.244 85.1835C-875.961 85.2242 -877.279 85.7206 -878.288 86.7298C-879.366 87.8243 -880.164 89.5373 -880.766 91.9503L-880.77 91.9543C-880.925 92.5769 -881.519 92.9797 -882.154 92.8943L-915.784 88.2108C-916.179 88.1539 -916.52 87.9138 -916.712 87.5639C-916.899 87.2099 -916.907 86.7907 -916.736 86.4327C-913.489 78.9783 -912.093 74.4327 -912.183 70.4577C-912.264 66.5312 -913.818 62.9789 -916.476 57.5796L-917.293 56.066H-925.517C-927.206 56.066 -928.528 54.6215 -928.528 52.9247V34.5893C-928.528 32.9006 -927.206 31.448 -925.517 31.448L-925.516 31.4568ZM-922.114 31.4568H-904.976V28.4783H-922.082C-922.139 29.463 -922.151 30.4517 -922.119 31.4568H-922.114ZM-902.477 31.469V31.465C-902.338 31.4731 -902.196 31.4934 -902.062 31.526L-898.762 28.3888C-897.586 27.339 -895.812 27.339 -894.636 28.3888L-889.676 33.1007L-880.809 23.3472C-879.804 22.2445 -877.762 22.2161 -876.643 23.2699L-869.644 29.8251L-869.648 14.7783C-869.648 14.1109 -870.116 13.4924 -870.759 13.4924H-901.382C-902.025 13.4924 -902.492 14.1191 -902.492 14.7783V31.4658L-902.477 31.469ZM-900.064 33.0763V33.0723C-899.811 33.5402 -899.677 34.0651 -899.677 34.5981V40.6771H-870.747C-870.104 40.6771 -869.636 40.0505 -869.636 39.3913V32.0019C-870.116 32.2868 -870.723 32.2257 -871.134 31.8433L-878.332 25.0927C-878.511 24.9259 -878.958 25.0317 -878.958 25.0276L-891.234 38.5328C-891.698 39.0415 -892.484 39.0781 -892.992 38.6183C-893.24 38.3945 -893.387 38.0812 -893.403 37.7516C-893.419 37.422 -893.301 37.0965 -893.078 36.8523L-891.348 34.9481L-896.349 30.1955L-896.345 30.1914C-896.561 30.0734 -896.817 30.0734 -897.033 30.1914L-900.064 33.0763ZM-899.681 43.1715V52.9453C-899.681 54.642 -901.004 56.0865 -902.692 56.0865H-914.464L-914.297 56.3917L-914.293 56.3876C-914.281 56.4039 -914.273 56.4243 -914.265 56.4487C-911.441 62.1941 -909.785 65.9864 -909.683 70.4258C-909.594 74.5314 -910.863 79.0276 -913.817 85.9778L-882.889 90.2869C-881.966 87.1986 -880.562 84.8711 -878.246 83.6544C-885.038 81.6646 -890.905 78.0798 -894.747 72.0982H-894.751C-895.121 71.5163 -894.95 70.7431 -894.368 70.3729C-893.79 70.0067 -893.025 70.1736 -892.651 70.7473C-887.76 78.3726 -879.122 81.6848 -869.734 82.816C-869.014 82.8567 -868.335 82.9096 -867.683 82.9625C-862.174 83.3938 -859.175 83.6298 -858.325 75.7238C-858.178 74.3282 -858.378 73.1196 -856.648 72.6313C-854.785 72.1023 -854.056 71.1054 -855.147 69.5266V69.5225C-855.794 68.6233 -856.709 67.956 -857.763 67.6142C-858.081 67.5084 -858.345 67.2846 -858.491 66.9876C-858.642 66.6865 -858.666 66.3406 -858.561 66.0273C-858.337 65.3844 -857.645 65.0385 -856.998 65.246C-855.216 65.8279 -853.377 66.365 -851.961 65.2338C-851.216 64.6397 -851.127 62.9836 -851.611 62.3895C-853.56 59.9969 -852.714 56.6726 -849.719 56.4773C-845.686 56.2046 -844.095 55.5332 -844.095 54.341C-844.108 52.7175 -845.971 49.9831 -848.738 46.1745C-849.365 45.3119 -849.926 44.5836 -850.427 43.9243C-853.226 40.2744 -854.638 38.4312 -852.718 35.1515C-852.002 33.9227 -851.623 33.0682 -851.607 31.8882C-851.586 30.4315 -852.262 27.3065 -853.076 24.4419C-856.103 13.8294 -862.89 6.73361 -871.077 2.82736C-879.056 -0.98941 -888.386 -1.75431 -896.879 0.231318C-896.704 0.674838 -896.614 1.14278 -896.614 1.61882V10.9938H-870.744C-868.713 10.9938 -867.134 12.7435 -867.134 14.778V39.379C-867.134 41.4176 -868.713 43.1632 -870.744 43.1632L-899.681 43.1715ZM-902.692 33.9634L-925.515 33.9553C-925.816 33.9553 -926.024 34.2767 -926.024 34.5941V52.9295C-926.024 53.255 -925.816 53.5724 -925.515 53.5724H-902.692C-902.391 53.5724 -902.18 53.255 -902.18 52.9295V34.5941L-902.176 34.5982C-902.171 34.3744 -902.273 34.1628 -902.452 34.0285C-902.521 33.9878 -902.603 33.9634 -902.684 33.9634L-902.692 33.9634ZM-916.405 8.77591L-906.371 5.44341V4.21862L-916.405 7.55112V8.77591ZM-906.371 8.05976L-916.405 11.3923V21.6543C-916.454 24.7793 -921.011 26.3256 -923.782 24.2666C-926.728 22.0734 -924.856 18.0166 -920.811 18.0166L-920.807 18.0126C-920.156 18.0126 -919.509 18.1346 -918.903 18.3747V6.6643C-918.903 6.07836 -918.5 5.56971 -917.927 5.43951L-905.626 1.34607V1.35014C-905.463 1.2769 -905.292 1.24435 -905.117 1.24435C-904.425 1.24435 -903.868 1.8018 -903.868 2.49351V12.0557C-903.209 11.3762 -902.309 10.9937 -901.365 10.9937H-899.115V1.61872C-899.111 1.21589 -899.302 0.83747 -899.632 0.605532C-899.66 0.597394 -899.685 0.585188 -899.709 0.564842C-899.827 0.503807 -899.962 0.471254 -900.096 0.471254H-928.978C-929.552 0.471254 -929.959 1.02871 -929.959 1.61875L-929.963 24.8448C-929.963 25.4348 -929.548 25.9842 -928.982 25.9842H-904.975V19.8441C-906.509 21.2234 -909.316 21.5449 -911.249 20.1004C-914.195 17.9153 -912.323 13.8504 -908.279 13.8504V13.8545C-907.624 13.8545 -906.977 13.9725 -906.37 14.2085L-906.371 8.05976ZM-906.786 18.1021C-905.284 16.9872 -908.21 15.6281 -909.768 16.7837C-911.27 17.8986 -908.344 19.2577 -906.786 18.1021ZM-919.318 22.2687C-917.817 21.1538 -920.742 19.7948 -922.301 20.9504C-923.802 22.0653 -920.876 23.4243 -919.318 22.2687ZM-890.896 16.4337C-887.283 16.4337 -885.456 20.8283 -888.011 23.3836C-890.567 25.9389 -894.965 24.116 -894.965 20.5068L-894.961 20.5109C-894.961 18.2607 -893.142 16.4378 -890.892 16.4337L-890.896 16.4337ZM-889.781 19.4001C-890.233 18.9484 -890.908 18.8141 -891.494 19.0583C-892.08 19.3024 -892.463 19.8721 -892.463 20.5109C-892.463 21.1416 -892.08 21.7153 -891.494 21.9554C-890.908 22.1995 -890.233 22.0652 -889.781 21.6176C-889.488 21.3247 -889.321 20.9259 -889.321 20.5109C-889.321 20.0918 -889.488 19.693 -889.781 19.4001ZM-255.848 23.8923H-230.176V23.8963C-229.484 23.8963 -228.923 24.4538 -228.923 25.1455V39.0122H-224.288C-223.6 39.0122 -223.039 39.5696 -223.039 40.2613V53.1759C-223.039 53.8676 -223.601 54.4251 -224.288 54.4251H-237.207C-237.895 54.4251 -238.456 53.8676 -238.456 53.1759V40.2613C-238.456 39.5696 -237.895 39.0122 -237.207 39.0122H-231.421L-231.417 26.4028H-255.847C-256.351 28.8849 -258.292 30.8258 -260.774 31.3304V39.0127H-255.566C-254.878 39.0127 -254.317 39.5701 -254.317 40.2618V53.1764C-254.317 53.7624 -254.724 54.271 -255.298 54.4012L-254.643 55.4754C-253.418 54.035 -251.33 53.7013 -249.719 54.6819C-248.315 53.0381 -245.882 52.7451 -244.132 54.0187C-243.143 52.9567 -241.63 52.5661 -240.254 53.0177C-239.229 53.3351 -238.195 54.1163 -237.426 55.4428C-232.308 64.2929 -233.37 65.2695 -230.981 72.4918H-230.985C-229.883 72.2639 -228.759 72.7684 -228.202 73.745L-225.284 78.7947H-225.289C-224.894 79.4091 -224.78 80.1619 -224.971 80.8658C-225.158 81.5698 -225.639 82.1598 -226.285 82.4975L-243.616 92.5073C-244.938 93.3577 -246.7 92.7962 -247.306 91.5389L-250.236 86.4648C-250.667 85.7283 -250.704 84.825 -250.338 84.0559C-253.113 82.1598 -255.729 79.8445 -257.548 77.3624C-258.439 76.1539 -259.928 73.6636 -260.779 72.1948C-262.573 69.1065 -260.555 66.0831 -257.743 65.7373C-260.111 61.3713 -260.095 61.3143 -264.067 54.4175H-268.485C-269.173 54.4175 -269.735 53.86 -269.735 53.1683V40.261C-269.735 39.5693 -269.173 39.0119 -268.485 39.0119H-263.277V31.3296C-265.759 30.825 -267.696 28.8841 -268.201 26.402H-292.261V39.0114H-286.845C-286.154 39.0114 -285.592 39.5688 -285.592 40.2605V53.1751C-285.592 53.8668 -286.154 54.4243 -286.845 54.4243H-299.76C-300.452 54.4243 -301.009 53.8668 -301.009 53.1751V40.2605C-301.009 39.5688 -300.452 39.0114 -299.76 39.0114H-294.759V25.152C-294.759 24.4603 -294.202 23.9028 -293.51 23.9028H-268.201C-267.696 21.4167 -265.759 19.4757 -263.273 18.9752V11.301H-272.982C-275.496 11.297 -277.535 9.25844 -277.535 6.74376V1.22615C-277.535 -1.28447 -275.496 -3.32301 -272.982 -3.33114H-251.066H-251.07C-248.555 -3.323 -246.517 -1.28447 -246.513 1.22615V6.73157C-246.513 9.25032 -248.551 11.297 -251.07 11.301H-260.779V18.9833H-260.775C-258.293 19.4879 -256.352 21.4248 -255.847 23.9109L-255.848 23.8923ZM-262.078 28.9501H-261.959C-260.971 28.9419 -260.027 28.5391 -259.335 27.8352C-257.854 26.35 -257.854 23.9452 -259.335 22.46C-260.027 21.752 -260.971 21.3532 -261.959 21.3451H-262.078H-262.073C-264.157 21.3695 -265.829 23.0662 -265.825 25.1455C-265.825 27.2248 -264.153 28.9215 -262.073 28.95L-262.078 28.9501ZM-255.913 69.0824H-255.909C-255.921 69.0661 -255.933 69.0498 -255.941 69.0295C-255.945 69.0213 -255.954 69.0173 -255.958 69.0051C-256.999 67.2351 -259.917 68.6917 -258.619 70.9419C-257.854 72.2603 -256.34 74.7871 -255.535 75.8817C-253.748 78.3149 -251.103 80.5733 -248.361 82.3718L-233.224 73.6357C-235.739 66.1731 -234.6 65.3023 -239.58 56.6878C-240.683 54.7794 -242.221 55.1944 -242.465 56.0204L-240.101 60.1139V60.118C-239.763 60.712 -239.963 61.473 -240.557 61.8188C-241.151 62.1647 -241.916 61.9653 -242.262 61.3712L-244.821 56.9279C-245.936 55.0032 -247.682 55.7601 -248.015 56.6308L-245.68 60.6835H-245.676C-245.334 61.2817 -245.537 62.0426 -246.131 62.3884C-246.725 62.7302 -247.486 62.5268 -247.832 61.9368L-250.396 57.5016C-251.372 55.8129 -253.504 56.7976 -252.878 58.3805L-250.379 62.7343H-250.375C-250.042 63.3284 -250.245 64.0853 -250.835 64.427C-251.429 64.7648 -252.186 64.5613 -252.532 63.9713L-255.055 59.6053C-255.067 59.5808 -255.087 59.5646 -255.095 59.5402L-258.534 53.9005C-258.57 53.8476 -258.599 53.7947 -258.627 53.7418L-260.446 50.7551C-261.085 49.685 -262.192 49.9332 -262.656 50.5476C-262.904 50.8772 -262.961 51.3695 -262.635 51.927L-262.322 52.4722C-262.293 52.5251 -262.261 52.5739 -262.232 52.6228C-256.922 61.8309 -257.793 60.5004 -253.753 67.853L-251.206 72.2597L-251.21 72.2638C-250.864 72.8579 -251.067 73.6229 -251.661 73.9687C-251.95 74.1355 -252.292 74.1803 -252.613 74.0948C-252.931 74.0094 -253.203 73.7978 -253.37 73.513L-255.913 69.0824ZM-248.08 85.2074L-245.106 90.3628C-245.045 90.4645 -244.939 90.3913 -244.898 90.3628L-227.426 80.2676L-227.39 80.1252L-230.36 74.9697L-230.502 74.9331L-231.052 75.2505L-231.048 75.2586C-231.076 75.2749 -231.105 75.2871 -231.133 75.3075L-248.039 85.069L-248.08 85.2074ZM-265.276 51.9272C-265.732 49.7258 -264.096 47.8053 -262.017 47.553C-260.658 47.3862 -259.205 47.9233 -258.285 49.5061L-256.816 51.915V41.5105H-267.233V51.9272H-265.276ZM-225.538 41.5105H-235.955V51.9272H-225.538V41.5105ZM-288.092 41.5105H-298.508V51.9272H-288.092V41.5105ZM-251.072 -0.828051H-272.987H-272.983C-274.119 -0.823982 -275.038 0.0956161 -275.038 1.22685V6.73226C-275.034 7.86747 -274.119 8.78309 -272.983 8.78716H-251.068H-251.072C-249.937 8.78716 -249.013 7.86756 -249.013 6.73226V1.22685C-249.013 0.0956995 -249.936 -0.828051 -251.072 -0.828051ZM-600.145 62.3272C-594.753 62.3272 -590.383 66.6973 -590.379 72.0887C-590.379 77.2482 -594.395 81.5207 -599.547 81.834H-599.608C-599.787 81.834 -599.958 81.8462 -600.137 81.8462C-600.316 81.8462 -600.491 81.8462 -600.661 81.834H-600.657C-600.678 81.8381 -600.698 81.8381 -600.714 81.834C-605.87 81.5248 -609.894 77.2524 -609.894 72.0887C-609.894 66.6973 -605.524 62.3272 -600.133 62.3272H-600.145ZM-595.01 66.9577C-597.846 64.1215 -602.444 64.1215 -605.28 66.9577C-608.112 69.7938 -608.112 74.3877 -605.28 77.2279C-604.023 78.4852 -602.35 79.238 -600.576 79.3397H-599.717C-597.943 79.242 -596.267 78.4892 -595.01 77.2279C-592.178 74.3877 -592.177 69.7938 -595.01 66.9577ZM-593.439 56.6956V56.6915C-591.897 57.367 -590.46 58.2662 -589.187 59.3689L-585.952 57.4931C-585.358 57.1554 -584.601 57.3588 -584.255 57.9488L-579.958 65.3829C-579.91 65.4724 -579.873 65.5701 -579.84 65.6677H-560.634L-560.455 64.5162V64.5039H-560.459C-560.439 64.3249 -560.386 64.154 -560.3 63.9953C-560.28 63.9709 -560.268 63.9465 -560.252 63.9261V63.9099L-556.085 56.6874L-593.439 56.6956ZM-582.286 68.182L-583.645 68.9674V68.9633C-583.254 71.0304 -583.254 73.1503 -583.645 75.2133L-580.418 77.0891C-580.129 77.2519 -579.922 77.5245 -579.836 77.8419C-579.751 78.1634 -579.796 78.5052 -579.962 78.79L-580.28 79.3475H-547.04C-546.186 79.3475 -545.372 78.7452 -545.372 77.8908V57.6397L-551.829 68.8012H-551.833C-551.915 68.9599 -552.029 69.1023 -552.167 69.2162L-559.976 75.4906C-560.378 75.8039 -560.932 75.8446 -561.375 75.5883C-561.819 75.3319 -562.059 74.8314 -561.986 74.3269L-561.034 68.1787L-582.286 68.182ZM-581.724 81.8414L-584.259 86.2278H-584.255C-584.43 86.5248 -584.715 86.7364 -585.049 86.8137C-585.382 86.8951 -585.736 86.83 -586.021 86.6428L-589.187 84.8158C-590.782 86.1871 -592.617 87.2491 -594.603 87.9408V91.668C-594.603 92.3598 -595.164 92.9172 -595.852 92.9172H-604.438C-605.129 92.9172 -605.691 92.3597 -605.691 91.668V87.9449C-607.672 87.2491 -609.512 86.1912 -611.107 84.8199L-614.337 86.6957H-614.333C-614.932 87.0375 -615.692 86.83 -616.038 86.2359L-620.331 78.7937C-620.665 78.1956 -620.461 77.4428 -619.867 77.097L-616.645 75.2374C-617.039 73.1703 -617.039 71.0463 -616.645 68.9793L-619.875 67.1156V67.1116C-620.172 66.9407 -620.384 66.6558 -620.461 66.3181C-620.543 65.9844 -620.478 65.6345 -620.29 65.3456L-616.038 57.9766C-615.697 57.3785 -614.936 57.1751 -614.338 57.5168L-612.388 58.648V0.61987C-612.388 -1.60586 -610.452 -3.3393 -608.222 -3.3393H-561.225C-560.842 -3.37185 -560.464 -3.22943 -560.195 -2.95274L-543.277 12.7254C-543.264 12.7254 -543.252 12.7498 -543.24 12.762L-543.228 12.7742V12.7864C-543.008 13.0143 -542.882 13.3195 -542.886 13.6409V33.819L-540.424 29.5547L-540.388 29.4855L-540.347 29.4285L-537.543 24.5701V24.566C-537.063 23.6993 -536.258 23.0646 -535.31 22.796C-534.357 22.5315 -533.336 22.6617 -532.482 23.1541L-530.419 24.3463C-528.661 25.3635 -528.059 27.6096 -529.072 29.3674L-531.912 34.291H-531.916C-531.924 34.3154 -531.936 34.3398 -531.953 34.3561C-531.965 34.3805 -531.977 34.4049 -531.989 34.4212L-542.886 53.2889V77.8743C-542.886 80.1286 -544.852 81.8335 -547.053 81.8335L-581.724 81.8414ZM-609.878 58.4164L-609.873 58.4124C-608.592 57.4887 -607.18 56.7604 -605.686 56.2395V52.5124C-605.686 51.8206 -605.129 51.2632 -604.437 51.2632H-595.852C-595.16 51.2632 -594.602 51.8206 -594.602 52.5124V54.1969H-554.629L-545.376 38.1688L-545.372 14.898H-557.009C-559.865 14.898 -562.352 12.7048 -562.352 9.85236V-0.833059H-608.221C-609.088 -0.833059 -609.89 -0.222704 -609.89 0.615483L-609.878 58.4164ZM-593.003 59.7104L-592.999 59.7063C-593.988 59.1326 -595.046 58.6809 -596.145 58.3635C-596.706 58.2292 -597.105 57.7287 -597.105 57.1468V53.7574H-603.192V57.1468C-603.192 57.7043 -603.563 58.1926 -604.096 58.3471C-606.33 58.9901 -608.368 60.166 -610.044 61.7733C-610.443 62.1802 -611.07 62.2656 -611.562 61.9808L-611.676 61.9116C-611.729 61.8832 -611.782 61.8547 -611.831 61.8181L-614.5 60.2759L-617.548 65.5574L-614.63 67.238L-614.634 67.242C-614.138 67.5146 -613.89 68.0843 -614.024 68.6295C-614.581 70.9 -614.581 73.2682 -614.024 75.5387C-613.894 76.0799 -614.134 76.6414 -614.618 76.9181L-617.552 78.6148L-614.504 83.8923L-611.627 82.224V82.2281C-611.139 81.9025 -610.492 81.9636 -610.073 82.3705C-608.494 83.8882 -606.281 85.2391 -604.148 85.8047H-604.153C-603.587 85.939 -603.192 86.4436 -603.192 87.0214V90.4068H-597.105V87.0336C-597.105 86.4761 -596.735 85.9838 -596.193 85.8292C-593.952 85.1863 -591.901 84.0023 -590.22 82.3828C-589.821 82.0003 -589.219 81.927 -588.735 82.1997L-585.797 83.9005L-583.571 80.0431C-583.543 79.9902 -583.514 79.9373 -583.482 79.8885L-582.745 78.6148L-585.618 76.9588H-585.614C-586.139 76.6984 -586.412 76.1124 -586.273 75.5428C-585.72 73.2804 -585.716 70.9204 -586.261 68.658C-586.407 68.1127 -586.172 67.5431 -585.683 67.2582L-583.315 65.895V65.891C-583.266 65.8584 -583.217 65.8299 -583.16 65.8055L-582.745 65.5655L-585.793 60.2839L-588.67 61.9522V61.9482C-589.154 62.2655 -589.797 62.2086 -590.216 61.8057C-591.054 60.996 -591.99 60.2923 -593.003 59.7104ZM-564.561 34.7468L-564.557 34.7428C-565.248 34.7428 -565.806 34.1813 -565.806 33.4895C-565.806 32.8019 -565.248 32.2404 -564.557 32.2404H-553.391C-552.699 32.2404 -552.142 32.8019 -552.142 33.4895C-552.142 34.1813 -552.699 34.7428 -553.391 34.7428L-564.561 34.7468ZM-555.137 68.4218L-558.262 66.6192L-558.323 67.0139L-558.319 67.0099C-558.323 67.0831 -558.335 67.1563 -558.352 67.2296L-559.011 71.5387L-555.137 68.4218ZM-557.509 64.1779L-553.395 66.5583L-545.257 52.4718L-545.249 52.4637C-545.221 52.3905 -545.184 52.3213 -545.135 52.2562L-534.719 34.2062L-538.841 31.8258L-542.987 39.0075L-542.983 39.0035C-543.015 39.0767 -543.056 39.1459 -543.105 39.211L-552.224 55.0068V55.0109C-552.171 55.1492 -552.146 55.2957 -552.146 55.4422C-552.146 56.0526 -552.586 56.5733 -553.188 56.6751L-557.509 64.1779ZM-537.591 29.6768L-533.47 32.049L-531.215 28.1468L-531.211 28.1387C-530.89 27.5691 -531.085 26.8488 -531.647 26.5152L-533.714 25.323C-534.296 24.9893 -534.975 25.1887 -535.366 25.8235L-537.591 29.6768ZM-564.561 24.8225L-564.557 24.8143C-565.249 24.8143 -565.806 24.2528 -565.806 23.5652C-565.806 22.8734 -565.249 22.3119 -564.557 22.3119H-553.392C-552.7 22.3119 -552.142 22.8735 -552.142 23.5652C-552.142 24.2528 -552.7 24.8143 -553.392 24.8143L-564.561 24.8225ZM-577.834 21.4737L-592.69 30.0512C-593.077 30.275 -593.553 30.275 -593.94 30.0512C-594.326 29.8274 -594.562 29.4164 -594.566 28.9688V11.8136C-594.566 11.3538 -594.31 10.9266 -593.903 10.7068C-593.496 10.4912 -593 10.5156 -592.617 10.7719L-585.264 15.0159L-577.847 19.3047V19.3087C-577.464 19.5325 -577.228 19.9435 -577.228 20.3829C-577.228 20.8264 -577.464 21.2374 -577.847 21.4612L-577.834 21.4737ZM-586.513 23.5937L-580.955 20.3874L-592.063 13.9828V26.8047L-586.513 23.5937ZM-600.083 6.16976H-573.329C-571.469 6.16976 -570.017 7.77299 -570.017 9.63653V31.1334C-570.017 33.0092 -571.473 34.5961 -573.329 34.5961H-600.083C-601.943 34.5961 -603.399 32.9969 -603.399 31.1334L-603.395 9.63237C-603.395 7.75653 -601.939 6.1656 -600.079 6.1656L-600.083 6.16976ZM-573.329 8.66809H-600.083C-600.563 8.66809 -600.901 9.13603 -600.901 9.63245L-600.897 31.1335C-600.897 31.6299 -600.559 32.1019 -600.079 32.1019H-573.325C-572.853 32.1019 -572.515 31.6299 -572.515 31.1335L-572.523 9.63245C-572.523 9.13603 -572.861 8.66809 -573.333 8.66809H-573.329ZM-601.853 45.1993H-601.857C-602.545 45.1993 -603.106 44.6419 -603.106 43.9502C-603.106 43.2585 -602.545 42.701 -601.857 42.701H-553.396C-552.704 42.701 -552.146 43.2585 -552.146 43.9502C-552.146 44.6419 -552.704 45.1993 -553.396 45.1993H-601.853ZM-557 12.3952H-547.303L-549.203 10.6292L-559.84 0.774137L-559.844 9.85622C-559.844 11.3129 -558.497 12.4034 -557.004 12.4034L-557 12.3952ZM-97.4998 28.7202C-92.682 28.7202 -88.7717 32.6264 -88.7717 37.4482C-88.7677 39.7635 -89.6872 41.9852 -91.327 43.6209C-92.9628 45.2566 -95.1844 46.1803 -97.4998 46.1803C-99.8151 46.1803 -102.037 45.2566 -103.672 43.6209C-107.078 40.2111 -107.078 34.6854 -103.672 31.2751C-102.037 29.6393 -99.8151 28.7202 -97.4998 28.7202ZM-93.097 33.0495C-94.2649 31.8817 -95.8477 31.2226 -97.4998 31.2226C-99.1517 31.2226 -100.739 31.8817 -101.906 33.0495C-104.332 35.4828 -104.332 39.4216 -101.906 41.8508C-100.739 43.0227 -99.1518 43.6778 -97.4998 43.6778C-95.8478 43.6778 -94.2649 43.0227 -93.097 41.8508C-91.9252 40.687 -91.2701 39.1002 -91.2701 37.4522C-91.2701 35.8002 -91.9252 34.2174 -93.097 33.0495ZM-92.4664 23.4101H-92.4705C-90.7859 24.0204 -89.2234 24.9318 -87.8562 26.0915L-85.1056 24.5087C-84.5115 24.171 -83.7546 24.3785 -83.4088 24.9685L-79.6368 31.5074C-79.295 32.1055 -79.5025 32.8664 -80.0966 33.2123L-82.8351 34.7951V34.791C-82.5136 36.561 -82.5136 38.3717 -82.8351 40.1377L-80.1007 41.7164C-79.5066 42.0623 -79.2991 42.8232 -79.6409 43.4213L-83.4128 49.9602V49.9561C-83.7587 50.5502 -84.5197 50.7536 -85.1178 50.4118L-87.8643 48.829H-87.8601C-89.2273 49.9887 -90.7899 50.892 -92.4785 51.4983V54.6558C-92.4785 55.3435 -93.04 55.905 -93.7277 55.905H-101.276C-101.967 55.905 -102.525 55.3434 -102.525 54.6558V51.4901C-104.218 50.8879 -105.784 49.9805 -107.151 48.8127L-109.894 50.4036C-110.492 50.7413 -111.249 50.5379 -111.595 49.9438L-115.367 43.4131V43.409C-115.7 42.8109 -115.489 42.0581 -114.895 41.7163L-112.156 40.1335L-112.152 40.1376C-112.478 38.3676 -112.478 36.5568 -112.152 34.7909L-114.895 33.2C-115.489 32.8581 -115.696 32.0972 -115.354 31.4991L-111.583 24.9684C-111.237 24.3743 -110.476 24.1668 -109.882 24.5086L-107.135 26.0914C-105.768 24.9277 -104.201 24.0203 -102.509 23.414V20.2606C-102.509 19.5688 -101.951 19.0073 -101.259 19.0073H-93.7114C-93.0197 19.0073 -92.4622 19.5689 -92.4622 20.2606L-92.4664 23.4101ZM-91.2904 26.6978L-91.2946 26.7018C-92.149 26.2054 -93.0564 25.8148 -94.0045 25.534C-94.566 25.4038 -94.9647 24.8993 -94.9647 24.3174V21.5098H-100.01V24.3336C-100.01 24.8911 -100.381 25.3834 -100.922 25.5339C-102.867 26.0955 -104.649 27.1249 -106.102 28.5328C-106.505 28.9153 -107.107 28.9885 -107.587 28.7118L-110.045 27.2877L-112.572 31.6618L-110.191 33.0371V33.0412C-109.666 33.2976 -109.394 33.8876 -109.532 34.4572C-110.016 36.4266 -110.016 38.4815 -109.532 40.4509C-109.402 40.9921 -109.642 41.5495 -110.122 41.8262L-112.567 43.2422L-110.041 47.6164L-107.648 46.2411C-107.164 45.9197 -106.517 45.9766 -106.098 46.3835C-104.73 47.7019 -102.81 48.8819 -100.958 49.3661H-100.963C-100.401 49.5045 -100.006 50.005 -100.006 50.5828V53.4066H-94.9607V50.5869C-94.9607 50.0253 -94.5904 49.533 -94.0533 49.3825C-92.1205 48.825 -90.3506 47.8037 -88.8979 46.4121C-88.4992 46.0052 -87.8766 45.9197 -87.3802 46.2045L-84.9266 47.6206L-82.3997 43.2464L-84.7802 41.8711C-85.3051 41.6066 -85.5777 41.0207 -85.4353 40.451C-84.9552 38.4816 -84.9552 36.4267 -85.4353 34.4574C-85.5696 33.9162 -85.3295 33.3587 -84.8494 33.078L-82.4037 31.666L-84.9307 27.2918L-87.3152 28.6753V28.6793C-87.8035 29.0008 -88.4463 28.9398 -88.8695 28.5369C-89.5938 27.833 -90.4077 27.2227 -91.2825 26.7181L-91.2904 26.6978ZM-108.433 3.35403C-105.182 3.35403 -103.538 7.3132 -105.841 9.60403C-108.144 11.8949 -112.091 10.2673 -112.091 7.01205C-112.091 4.98976 -110.455 3.35403 -108.433 3.35403ZM-107.611 6.19424H-107.615C-107.949 5.86465 -108.445 5.76699 -108.881 5.94603C-109.312 6.12508 -109.597 6.54418 -109.601 7.01614C-109.601 7.48407 -109.32 7.91132 -108.885 8.09447C-108.449 8.27761 -107.949 8.17992 -107.615 7.85032C-107.16 7.3946 -107.16 6.65814 -107.615 6.20241L-107.611 6.19424ZM-117.861 3.35403C-114.606 3.35403 -112.966 7.3132 -115.269 9.60403C-117.572 11.8949 -121.519 10.2673 -121.519 7.01205C-121.515 4.98976 -119.879 3.34997 -117.857 3.34997L-117.861 3.35403ZM-117.039 6.19424C-117.373 5.86465 -117.873 5.76293 -118.304 5.94196C-118.74 6.12506 -119.025 6.54417 -119.025 7.01613C-119.025 7.48406 -118.744 7.90724 -118.309 8.09029C-117.877 8.2734 -117.377 8.17574 -117.039 7.85022C-116.823 7.63049 -116.697 7.33346 -116.697 7.02421C-116.697 6.71496 -116.823 6.41793 -117.039 6.20227L-117.039 6.19424ZM-137.339 14.2021L-137.343 4.54632C-137.339 1.01039 -134.47 -1.85826 -130.934 -1.86232H-64.0605C-60.5246 -1.85418 -57.6559 1.01039 -57.6519 4.54632V54.5911C-57.6559 58.1271 -60.5246 60.9916 -64.0605 60.9957H-65.1958V75.4363H-65.1917C-65.1917 76.1281 -65.7531 76.6855 -66.4448 76.6855H-103.334V84.7055H-93.4019C-91.5423 84.7096 -90.0327 86.2151 -90.0287 88.0787V90.2028C-90.0287 90.8945 -90.5903 91.452 -91.282 91.452H-127.809C-128.501 91.452 -129.058 90.8945 -129.058 90.2028V88.0787C-129.054 86.2191 -127.545 84.7096 -125.685 84.7055H-115.744L-115.748 76.6895H-152.659C-153.347 76.6895 -153.908 76.128 -153.908 75.4363V20.0488C-153.908 19.3612 -153.347 18.7997 -152.659 18.7997H-137.347L-137.339 14.2021ZM-134.841 12.9529H-60.1459L-60.1499 4.54632C-60.154 2.38976 -61.9037 0.644137 -64.0603 0.636012H-130.934C-133.091 0.64415 -134.836 2.38976 -134.844 4.54632L-134.841 12.9529ZM-60.1459 15.4512H-134.849V54.5908C-134.841 56.7474 -133.091 58.493 -130.935 58.497H-64.0608C-61.9042 58.493 -60.1545 56.7474 -60.1504 54.5908L-60.1459 15.4512ZM-127.289 3.35434C-124.033 3.35434 -122.394 7.31351 -124.697 9.60434C-127 11.8952 -130.947 10.2676 -130.947 7.01237C-130.943 4.99414 -129.307 3.35841 -127.289 3.35434ZM-126.454 6.19455C-126.788 5.86496 -127.289 5.76324 -127.724 5.94227C-128.159 6.1213 -128.444 6.54448 -128.444 7.01644C-128.444 7.4884 -128.164 7.91163 -127.728 8.09477C-127.293 8.27792 -126.792 8.18022 -126.454 7.85063C-126.007 7.39082 -126.007 6.65844 -126.454 6.20271V6.19455ZM-91.7659 2.96778H-65.2847C-64.597 2.96778 -64.0354 3.5293 -64.0354 4.21695V9.81997C-64.0354 10.5117 -64.597 11.0691 -65.2847 11.0691H-91.7659C-92.4576 11.0691 -93.0192 10.5117 -93.0192 9.81997V4.21695C-93.0192 3.52928 -92.4576 2.96778 -91.7659 2.96778ZM-66.5377 5.46612H-90.517V8.57487H-66.5377V5.46612ZM-67.6853 60.9994H-69.9478V70.8302C-69.9478 71.5219 -70.5052 72.0793 -71.1969 72.0793H-147.894C-148.581 72.0793 -149.143 71.5219 -149.143 70.8302V24.6718C-149.143 23.9801 -148.581 23.4227 -147.894 23.4227H-137.347L-137.343 21.3027H-151.401L-151.405 74.1839H-67.6937L-67.6853 60.9994ZM-72.4501 60.9994L-130.934 61.0035C-134.47 60.9994 -137.339 58.1349 -137.343 54.5949V25.9209H-146.641L-146.637 69.573H-72.4587L-72.4501 60.9994ZM-113.263 84.7057H-105.841L-105.837 76.6898H-113.259L-113.263 84.7057ZM-93.4021 87.204H-125.694V87.2081C-126.174 87.2081 -126.561 87.5947 -126.561 88.0748V88.9496H-92.5189C-92.5189 88.3474 -92.4253 87.8144 -92.7793 87.4604H-92.7834C-92.9462 87.2976 -93.1659 87.2081 -93.3938 87.2081L-93.4021 87.204ZM-384.319 59.4936L-392.758 64.3602V64.3642C-393.14 64.588 -393.617 64.588 -394.003 64.3683C-394.39 64.1445 -394.63 63.7336 -394.63 63.29V53.5325C-394.63 53.0645 -394.369 52.6332 -393.95 52.4216C-393.535 52.206 -393.035 52.2467 -392.652 52.5152L-388.53 54.8956L-384.307 57.3289C-383.92 57.5527 -383.684 57.9677 -383.688 58.4153C-383.692 58.8629 -383.932 59.2739 -384.319 59.4977L-384.319 59.4936ZM-389.779 59.7662L-387.424 58.4072L-389.779 57.0481L-392.123 55.689V61.1211L-389.779 59.7662ZM-390.28 47.1808V47.1849C-384.083 47.189 -379.061 52.2142 -379.061 58.4109C-379.061 64.608 -384.082 69.6297 -390.28 69.6328C-393.259 69.6328 -396.115 68.4528 -398.219 66.3451C-400.326 64.2415 -401.506 61.385 -401.506 58.4064C-401.506 52.2053 -396.481 47.1808 -390.28 47.1808ZM-384.115 52.2427C-385.751 50.607 -387.969 49.6874 -390.284 49.6874C-392.599 49.6874 -394.817 50.607 -396.453 52.2427C-399.858 55.6484 -399.858 61.1742 -396.453 64.5844C-394.817 66.2201 -392.599 67.1397 -390.284 67.1397C-387.969 67.1397 -385.751 66.2201 -384.115 64.5844C-380.71 61.1746 -380.71 55.6488 -384.115 52.2427ZM-410.234 65.0272H-418.82V72.3961H-409.579V72.4002C-407.793 72.4043 -406.34 73.8528 -406.336 75.6432V77.6371C-406.336 78.3247 -406.898 78.8862 -407.589 78.8862H-441.866H-441.862C-442.554 78.8862 -443.115 78.3247 -443.115 77.6371V75.6432C-443.111 73.8528 -441.659 72.4043 -439.868 72.4002H-430.632L-430.636 65.0272H-465.158C-465.849 65.0272 -466.407 64.4697 -466.407 63.778V11.8332C-466.407 11.1415 -465.849 10.5841 -465.158 10.5841H-384.294C-383.606 10.5841 -383.045 11.1415 -383.045 11.8332V43.4613C-381.755 44.092 -380.551 44.8855 -379.46 45.8254L-376.278 43.9822C-375.68 43.6445 -374.919 43.8479 -374.577 44.442L-370.337 51.7866L-370.333 51.7906C-369.996 52.3847 -370.199 53.1456 -370.793 53.4915L-373.971 55.3306L-373.967 55.3266C-373.585 57.3651 -373.585 59.4607 -373.967 61.4993L-370.789 63.3303H-370.793C-370.199 63.6762 -369.996 64.433 -370.333 65.0271L-374.573 72.3757H-374.577C-374.923 72.9698 -375.68 73.1733 -376.278 72.8315L-379.46 70.9923C-381.031 72.3473 -382.837 73.393 -384.795 74.0766V77.7591C-384.795 78.4467 -385.352 79.0082 -386.044 79.0082H-394.528C-395.219 79.0082 -395.777 78.4467 -395.777 77.7591V74.0848C-397.734 73.3971 -399.541 72.3514 -401.111 71.0005L-404.293 72.8397L-404.297 72.8356C-404.594 73.0106 -404.948 73.0513 -405.278 72.9496C-405.608 72.8519 -405.884 72.62 -406.039 72.3107L-410.234 65.0272ZM-385.543 37.9157L-385.548 13.0866H-463.912L-463.908 62.5334H-408.39L-406.596 61.4918C-406.649 61.2273 -406.69 60.9587 -406.726 60.6942H-460.685C-461.377 60.6942 -461.935 60.1327 -461.935 59.4451V16.1628C-461.935 15.4711 -461.377 14.9136 -460.685 14.9136H-388.762C-388.07 14.9136 -387.508 15.4711 -387.508 16.1628V37.818H-386.052C-385.881 37.8139 -385.71 37.8505 -385.555 37.9197L-385.543 37.9157ZM-406.885 58.2001V58.2082C-406.877 57.2398 -406.779 56.2795 -406.596 55.3315L-409.774 53.4923C-410.368 53.1464 -410.576 52.3896 -410.234 51.7915L-405.994 44.4388C-405.648 43.8447 -404.887 43.6412 -404.289 43.9871L-401.107 45.8222C-399.537 44.4713 -397.726 43.4255 -395.773 42.742V39.0637C-395.773 38.3719 -395.211 37.8145 -394.524 37.8145H-390.007V17.4166H-459.436V58.2041L-406.885 58.2001ZM-416.805 49.7976L-434.062 49.8017V52.2065H-416.805V49.7976ZM-435.316 47.2993H-434.543V45.9239C-434.543 45.0044 -434.03 44.158 -433.216 43.7307C-433.859 40.2924 -433.953 36.7768 -433.497 33.3141C-433.489 33.2408 -433.473 33.1716 -433.448 33.1065C-432.878 30.6366 -431.784 28.3132 -430.246 26.299C-428.59 24.1913 -426.543 22.4212 -424.216 21.0907C-423.78 20.8425 -423.235 20.8791 -422.836 21.1843C-422.437 21.4854 -422.258 21.9981 -422.385 22.4864C-422.564 23.1252 -422.677 23.7844 -422.726 24.4476C-421.196 24.8504 -420.016 25.3265 -419.158 25.8637C-418.116 26.5269 -417.51 27.3 -417.331 28.1912C-414.718 30.0384 -413.534 30.6895 -413.534 30.6895H-413.539C-413.075 30.9418 -412.818 31.4585 -412.9 31.9794C-413.05 33.3954 -413.266 35.3567 -414.841 35.7839C-415.406 35.9344 -417.587 35.6048 -418.218 35.5112L-418.222 35.5072C-419.231 35.3322 -420.248 35.2345 -421.274 35.2142C-421.469 35.2101 -421.66 35.1898 -421.852 35.1532C-420.444 37.9934 -418.69 39.5192 -418.328 43.4865C-417.172 43.7266 -416.338 44.7397 -416.33 45.9197V47.295H-415.557C-414.865 47.295 -414.308 47.8566 -414.308 48.5483V53.4555V53.4514C-414.308 54.1431 -414.865 54.7006 -415.557 54.7006H-435.312C-436.004 54.7006 -436.561 54.1431 -436.561 53.4514V48.5483C-436.561 47.8565 -436.004 47.2991 -435.312 47.2991L-435.316 47.2993ZM-418.828 45.9402H-432.045V47.2993H-418.828V45.9402ZM-430.726 43.4419H-420.843C-421.408 39.027 -424.334 37.8185 -425.363 32.5169L-425.359 32.5209C-425.465 31.9675 -425.188 31.4182 -424.688 31.17C-424.187 30.9218 -423.581 31.0357 -423.203 31.4508C-422.454 32.2849 -421.795 32.7121 -421.229 32.7203C-419.077 32.7203 -417.368 33.2208 -415.459 33.3185C-415.435 33.1923 -415.435 32.8505 -415.423 32.4681C-416.127 32.0367 -417.376 31.227 -419.219 29.9127L-419.223 29.9087C-419.589 29.6686 -419.801 29.2454 -419.772 28.806C-419.723 27.9067 -422.828 26.9301 -424.167 26.6575C-425.176 26.45 -425.237 25.5996 -425.237 24.7817C-426.368 25.6565 -427.385 26.6738 -428.26 27.8049C-429.587 29.5384 -430.531 31.5362 -431.023 33.6643C-431.255 35.5116 -431.332 37.3752 -431.247 39.2389C-431.186 40.6509 -431.011 42.0583 -430.726 43.4419ZM-421.319 72.4012L-421.323 65.0282H-428.13V72.3972L-421.319 72.4012ZM-409.579 74.8996H-439.865L-439.869 74.9036C-440.276 74.9036 -440.609 75.2332 -440.613 75.6401V76.3807H-408.834C-408.834 75.8721 -408.753 75.4163 -409.042 75.1315C-409.184 74.9891 -409.371 74.9118 -409.571 74.9118L-409.579 74.8996Z" fill="#3C7CFF"/>
</g>
<defs>
<clipPath id="clip0_171_638">
<rect width="100" height="87" fill="white" transform="translate(0 0.595581)"/>
</clipPath>
</defs>
</svg>
