<svg width="100" height="103" viewBox="0 0 100 103" fill="none" xmlns="http://www.w3.org/2000/svg">
<path d="M34.3711 15.1297C36.0418 14.4114 37.7806 13.8029 39.5388 13.3227C40.424 13.0805 41.0376 12.2767 41.0376 11.36V4.58869H58.9614V11.36C58.9614 12.2767 59.5749 13.0805 60.4601 13.3227C62.5581 13.8955 64.6216 14.6495 66.5955 15.5621C66.8722 15.6893 67.1622 15.7504 67.4481 15.7504C68.2173 15.7504 68.953 15.3129 69.2969 14.5691C69.768 13.5486 69.3233 12.3398 68.3038 11.8677C66.5975 11.0792 64.8302 10.3985 63.0323 9.8358V2.55374C63.0323 1.43045 62.1206 0.518799 60.9973 0.518799H39.0026C37.8793 0.518799 36.9677 1.43045 36.9677 2.55374V9.8358C35.5392 10.2815 34.131 10.8034 32.7635 11.3905C31.7308 11.8351 31.2546 13.0317 31.6982 14.0634C32.1428 15.0972 33.3404 15.5743 34.3711 15.1297Z" fill="#3C7CFF"/>
<path d="M98.9807 64.5678L92.5656 60.8723C93.2534 57.7833 93.6014 54.6036 93.6014 51.3986C93.6014 48.1956 93.2534 45.0119 92.5646 41.9137L98.9807 38.2183C99.4488 37.9486 99.7906 37.503 99.9311 36.981C100.07 36.458 99.9962 35.9015 99.7255 35.4345L96.0901 29.1678C95.5264 28.1962 94.281 27.8645 93.3093 28.4281C92.3377 28.9918 92.006 30.2372 92.5696 31.2089L95.1805 35.7102L89.214 39.1472C88.4204 39.6051 88.0297 40.5371 88.2606 41.4233C89.1041 44.6589 89.5315 48.0155 89.5315 51.3976C89.5315 54.7837 89.1041 58.1353 88.2606 61.3597C88.0287 62.2469 88.4194 63.1799 89.214 63.6378L95.1805 67.0748L91.2591 73.8349C90.6955 74.8066 91.0261 76.052 91.9988 76.6157C92.3204 76.8019 92.6714 76.8914 93.0173 76.8914C93.7194 76.8914 94.4021 76.5282 94.7796 75.877L99.7255 67.3516C99.9972 66.8846 100.07 66.328 99.9311 65.805C99.7906 65.2831 99.4488 64.8374 98.9807 64.5678Z" fill="#3C7CFF"/>
<path d="M65.7724 87.6023C64.0579 88.3481 62.2702 88.9779 60.4591 89.4724C59.5749 89.7145 58.9614 90.5183 58.9614 91.4351V98.1962H41.0376V91.4351C41.0376 90.5183 40.424 89.7145 39.5399 89.4724C38.0727 89.0715 36.6167 88.5811 35.2136 88.0154C34.1717 87.5962 32.9863 88.0998 32.5651 89.1417C32.1449 90.1836 32.6495 91.3689 33.6914 91.7902C34.7608 92.2216 35.8576 92.6133 36.9667 92.9592V100.231C36.9667 101.354 37.8783 102.266 39.0016 102.266H60.9953C62.1186 102.266 63.0303 101.354 63.0303 100.231V92.9592C64.5148 92.4953 65.9769 91.9509 67.3952 91.3343C68.4259 90.8867 68.898 89.6871 68.4493 88.6564C68.0027 87.6257 66.8051 87.1556 65.7724 87.6023Z" fill="#3C7CFF"/>
<path d="M7.79675 78.2954C8.14269 78.2954 8.49473 78.2069 8.81524 78.0197C9.78794 77.456 10.1186 76.2106 9.55494 75.239L4.81962 67.0768L10.783 63.6489C11.5787 63.1921 11.9694 62.2591 11.7384 61.3718C10.895 58.1373 10.4676 54.7816 10.4676 51.3975C10.4676 48.0063 10.895 44.6476 11.7384 41.4131C11.9694 40.5248 11.5787 39.5928 10.783 39.136L4.82064 35.7081L7.9687 30.2809C8.53238 29.3092 8.2017 28.0638 7.229 27.5001C6.25731 26.9365 5.01192 27.2671 4.44824 28.2398L0.274569 35.4344C0.00290371 35.9024 -0.070354 36.459 0.0690398 36.982C0.209451 37.505 0.552339 37.9496 1.02139 38.2192L7.43453 41.9055C6.74672 45.0017 6.39874 48.1884 6.39874 51.3985C6.39874 54.6016 6.74672 57.7842 7.43453 60.8804L1.02139 64.5667C0.552339 64.8363 0.209451 65.282 0.0700576 65.8039C-0.0703536 66.3269 0.00392159 66.8835 0.275587 67.3515L6.0355 77.281C6.41197 77.9322 7.09469 78.2954 7.79675 78.2954Z" fill="#3C7CFF"/>
<path d="M85.1033 74.249C85.0819 74.2032 85.0514 74.1656 85.028 74.1228C84.9934 74.0618 84.9608 74.0018 84.9212 73.9438C84.8794 73.8847 84.8326 73.8329 84.7858 73.7789C84.7553 73.7443 84.7319 73.7057 84.6993 73.6741L38.4572 27.5623C42.0398 25.8325 45.9794 24.9138 50.0015 24.9138C54.0205 24.9138 57.9571 25.8336 61.5366 27.5633L55.042 34.0263C54.2454 34.8189 54.2423 36.107 55.0349 36.9037C55.8265 37.7014 57.1157 37.7044 57.9123 36.9108L66.3055 28.5594C66.3095 28.5553 66.3136 28.5512 66.3177 28.5472L74.1766 20.7269L81.0822 27.6131L73.2568 35.3998C73.2304 35.4233 73.207 35.4497 73.1826 35.4741L64.822 43.793C64.0253 44.5856 64.0223 45.8737 64.8149 46.6704C65.2127 47.0703 65.7347 47.2697 66.2566 47.2697C66.7755 47.2697 67.2955 47.0723 67.6923 46.6765L74.0739 40.3265C75.6662 43.7818 76.5117 47.5587 76.5117 51.4006C76.5117 53.0469 76.3591 54.6952 76.059 56.2987C75.8524 57.4037 76.5799 58.467 77.6849 58.6735C77.8121 58.6969 77.9382 58.7091 78.0624 58.7091C79.0218 58.7091 79.8765 58.0264 80.0597 57.0486C80.4056 55.1978 80.5816 53.2972 80.5816 51.4006C80.5816 46.472 79.383 41.6309 77.1212 37.2934L85.3159 29.1393C85.3475 29.1108 85.3841 29.0895 85.4146 29.059C85.4431 29.0305 85.4624 28.9969 85.4889 28.9674L93.3397 21.1552C95.0308 19.4693 95.9628 17.2268 95.9628 14.8408C95.9628 12.4548 95.0308 10.2123 93.3285 8.51312C89.8417 5.03744 84.1682 5.0354 80.6813 8.51211L64.5727 24.5434C60.1152 22.1259 55.1153 20.8439 50.0025 20.8439C44.8887 20.8439 39.8868 22.1259 35.4282 24.5414L27.2854 16.4219L27.2844 16.4209L27.2823 16.4199L19.3501 8.50905C15.8632 5.03133 10.1898 5.03031 6.69987 8.51109L6.68868 8.52228C4.99764 10.2082 4.06665 12.4507 4.06665 14.8367C4.06665 17.2227 4.99865 19.4652 6.68969 21.1512L61.1153 75.4252C57.6488 77.0237 53.8577 77.8743 50.0025 77.8743C46.1493 77.8743 42.3623 77.0277 38.8988 75.4344L44.7147 69.6266C45.5104 68.833 45.5114 67.5439 44.7167 66.7492C43.9231 65.9546 42.635 65.9525 41.8393 66.7472L26.5559 82.0062L19.6513 75.121L34.9337 59.8579C35.7294 59.0642 35.7304 57.7751 34.9358 56.9804C34.1421 56.1858 32.854 56.1838 32.0583 56.9784L26.1224 62.9062C24.3937 59.3349 23.476 55.4085 23.476 51.4006C23.476 49.906 23.6011 48.4082 23.8484 46.9492C24.0366 45.8412 23.2898 44.7901 22.1817 44.6029C21.0737 44.4136 20.0227 45.1615 19.8354 46.2695C19.5506 47.9524 19.4061 49.6791 19.4061 51.4006C19.4061 56.4961 20.6861 61.4818 23.0975 65.9271L15.3331 73.6812L15.3321 73.6823L15.3301 73.6843C15.1744 73.841 15.0584 74.019 14.9638 74.2063C14.9546 74.2246 14.9383 74.2368 14.9292 74.2551L6.28576 92.6337C5.9215 93.409 6.08125 94.3298 6.68766 94.9373C7.07735 95.329 7.59932 95.5345 8.1284 95.5345C8.42042 95.5345 8.71447 95.4715 8.9902 95.3432L27.4207 86.7242C27.438 86.7161 27.4492 86.7008 27.4655 86.6927C27.6537 86.5981 27.8338 86.4811 27.9915 86.3244L27.9956 86.3213L35.8535 78.4735C40.2022 80.7395 45.0576 81.9421 50.0035 81.9421C54.9505 81.9421 59.8109 80.7354 64.1627 78.4613L72.0389 86.3162C72.0705 86.3478 72.1081 86.3712 72.1417 86.3997C72.1966 86.4475 72.2506 86.4953 72.3106 86.537C72.3727 86.5808 72.4378 86.6164 72.5039 86.652C72.5416 86.6723 72.5741 86.6988 72.6138 86.7181L91.0443 95.3371C91.32 95.4664 91.6141 95.5284 91.9061 95.5284C92.4352 95.5284 92.9572 95.3219 93.3468 94.9312C93.9522 94.3248 94.113 93.4039 93.7488 92.6276L85.1033 74.249ZM83.5547 11.3956C85.4574 9.49702 88.5525 9.49905 90.4674 11.4078C91.3872 12.3256 91.8939 13.5445 91.8939 14.8408C91.8939 16.137 91.3872 17.356 90.4694 18.2727L83.9678 24.7418L77.0622 17.8566L83.5547 11.3956ZM17.3803 78.6038L23.0608 84.2691L12.3631 89.272L17.3803 78.6038ZM73.4746 82.0011L18.938 27.6162L25.8436 20.7299L80.3802 75.1149L73.4746 82.0011ZM8.13654 14.8347C8.13654 13.5384 8.64324 12.3195 9.56304 11.4017L9.57525 11.3895C10.5266 10.4412 11.776 9.96709 13.0255 9.96709C14.275 9.96709 15.5244 10.4412 16.4758 11.3895L22.9611 17.8566L16.0555 24.7428L9.56202 18.2676C8.64324 17.3499 8.13654 16.1309 8.13654 14.8347ZM76.9696 84.263L82.6502 78.5977L87.6673 89.2659L76.9696 84.263Z" fill="#3C7CFF"/>
</svg>
