<svg width="100" height="99" viewBox="0 0 100 99" fill="none" xmlns="http://www.w3.org/2000/svg">
<path d="M15 71.6666C12.195 71.6666 10 74.595 10 78.3333C10 82.0716 12.195 85 15 85C17.805 85 20 82.0716 20 78.3333C20 74.595 17.805 71.6666 15 71.6666ZM15 81.6666C14.32 81.6666 13.3333 80.3683 13.3333 78.3333C13.3333 76.2983 14.32 75 15 75C15.68 75 16.6667 76.2983 16.6667 78.3333C16.6667 80.3683 15.68 81.6666 15 81.6666Z" fill="#3C7CFF"/>
<path d="M98.3333 0H1.66667C1.22464 0 0.800716 0.175595 0.488155 0.488155C0.175595 0.800716 0 1.22464 0 1.66667V96.6667C0 97.1087 0.175595 97.5326 0.488155 97.8452C0.800716 98.1577 1.22464 98.3333 1.66667 98.3333H98.3333C98.7754 98.3333 99.1993 98.1577 99.5118 97.8452C99.8244 97.5326 100 97.1087 100 96.6667V1.66667C100 1.22464 99.8244 0.800716 99.5118 0.488155C99.1993 0.175595 98.7754 0 98.3333 0ZM96.6667 95H3.33333V16.6667H96.6667V95ZM96.6667 13.3333H3.33333V3.33333H96.6667V13.3333Z" fill="#3C7CFF"/>
<path d="M83.3333 66.6666H73.1667L70.6167 42.0832L76.6667 39.2166V43.6332C75.6954 43.9792 74.8544 44.616 74.2579 45.4569C73.6615 46.2979 73.3386 47.3022 73.3333 48.3332V53.3332C73.3333 53.7753 73.5089 54.1992 73.8215 54.5118C74.134 54.8243 74.558 54.9999 75 54.9999H81.6667C82.1087 54.9999 82.5326 54.8243 82.8452 54.5118C83.1577 54.1992 83.3333 53.7753 83.3333 53.3332V48.3332C83.328 47.3022 83.0052 46.2979 82.4087 45.4569C81.8123 44.616 80.9712 43.9792 80 43.6332V37.6332L82.3833 36.4999C82.6715 36.3611 82.9137 36.1422 83.0809 35.8695C83.2481 35.5967 83.3332 35.2816 83.3262 34.9618C83.3192 34.642 83.2203 34.3309 83.0412 34.0658C82.8622 33.8006 82.6107 33.5926 82.3167 33.4666L50.65 20.1332C50.4453 20.0426 50.2239 19.9957 50 19.9957C49.7761 19.9957 49.5547 20.0426 49.35 20.1332L17.6833 33.4666C17.3893 33.5926 17.1378 33.8006 16.9588 34.0658C16.7797 34.3309 16.6808 34.642 16.6738 34.9618C16.6667 35.2816 16.7519 35.5967 16.9191 35.8695C17.0863 36.1422 17.3285 36.3611 17.6167 36.4999L29.3833 42.0832L26.8333 66.6666H15C9.48333 66.6666 5 71.8999 5 78.3332C5 84.7666 9.48333 89.9999 15 89.9999H83.3333C86.4275 89.9999 89.395 88.7707 91.5829 86.5828C93.7708 84.3949 95 81.4274 95 78.3332C95 75.239 93.7708 72.2716 91.5829 70.0837C89.395 67.8957 86.4275 66.6666 83.3333 66.6666ZM78.3333 46.6666C78.7754 46.6666 79.1993 46.8422 79.5118 47.1547C79.8244 47.4673 80 47.8912 80 48.3332V51.6666H76.6667V48.3332C76.6667 47.8912 76.8423 47.4673 77.1548 47.1547C77.4674 46.8422 77.8913 46.6666 78.3333 46.6666ZM22.4167 35.0832L50 23.4666L73.4167 33.3332H54.7C54.3068 32.2212 53.5332 31.284 52.5159 30.6872C51.4985 30.0904 50.3029 29.8725 49.1404 30.0719C47.978 30.2714 46.9234 30.8754 46.1632 31.7771C45.4029 32.6789 44.986 33.8204 44.986 34.9999C44.986 36.1794 45.4029 37.3209 46.1632 38.2227C46.9234 39.1245 47.978 39.7284 49.1404 39.9279C50.3029 40.1273 51.4985 39.9094 52.5159 39.3126C53.5332 38.7158 54.3068 37.7786 54.7 36.6666H74.25L50 48.1499L22.4167 35.0832ZM51.6667 34.9999C51.6667 35.3295 51.5689 35.6518 51.3858 35.9259C51.2026 36.1999 50.9423 36.4136 50.6378 36.5397C50.3333 36.6659 49.9981 36.6989 49.6748 36.6345C49.3515 36.5702 49.0546 36.4115 48.8215 36.1784C48.5884 35.9453 48.4297 35.6484 48.3654 35.3251C48.301 35.0018 48.3341 34.6666 48.4602 34.3621C48.5863 34.0576 48.8 33.7973 49.074 33.6141C49.3481 33.431 49.6704 33.3332 50 33.3332C50.442 33.3332 50.866 33.5088 51.1785 33.8214C51.4911 34.134 51.6667 34.5579 51.6667 34.9999ZM69.8167 66.6666H30.1833L32.5833 43.5832L49.2833 51.4999C49.5063 51.6096 49.7515 51.6667 50 51.6667C50.2485 51.6667 50.4937 51.6096 50.7167 51.4999L67.4167 43.5832L69.8167 66.6666ZM15 86.6666C11.3167 86.6666 8.33333 82.9332 8.33333 78.3332C8.33333 73.7332 11.3167 69.9999 15 69.9999C18.6833 69.9999 21.6667 73.7332 21.6667 78.3332C21.6667 82.9332 18.6833 86.6666 15 86.6666ZM71.6667 86.6666H21.9833C23.9326 84.3271 25 81.3783 25 78.3332C25 75.2881 23.9326 72.3394 21.9833 69.9999H71.6667C73.8768 69.9999 75.9964 70.8779 77.5592 72.4407C79.122 74.0035 80 76.1231 80 78.3332C80 80.5434 79.122 82.663 77.5592 84.2258C75.9964 85.7886 73.8768 86.6666 71.6667 86.6666ZM83.3333 86.6666H79.8167C80.9296 85.5828 81.8142 84.287 82.4182 82.8557C83.0223 81.4245 83.3335 79.8867 83.3335 78.3332C83.3335 76.7797 83.0223 75.242 82.4182 73.8107C81.8142 72.3795 80.9296 71.0837 79.8167 69.9999H83.3333C85.5435 69.9999 87.6631 70.8779 89.2259 72.4407C90.7887 74.0035 91.6667 76.1231 91.6667 78.3332C91.6667 80.5434 90.7887 82.663 89.2259 84.2258C87.6631 85.7886 85.5435 86.6666 83.3333 86.6666Z" fill="#3C7CFF"/>
<path d="M11.6666 11.6667C13.5075 11.6667 14.9999 10.1743 14.9999 8.33333C14.9999 6.49238 13.5075 5 11.6666 5C9.82564 5 8.33325 6.49238 8.33325 8.33333C8.33325 10.1743 9.82564 11.6667 11.6666 11.6667Z" fill="#3C7CFF"/>
<path d="M21.6666 11.6667C23.5075 11.6667 24.9999 10.1743 24.9999 8.33333C24.9999 6.49238 23.5075 5 21.6666 5C19.8256 5 18.3333 6.49238 18.3333 8.33333C18.3333 10.1743 19.8256 11.6667 21.6666 11.6667Z" fill="#3C7CFF"/>
<path d="M31.6666 11.6667C33.5075 11.6667 34.9999 10.1743 34.9999 8.33333C34.9999 6.49238 33.5075 5 31.6666 5C29.8256 5 28.3333 6.49238 28.3333 8.33333C28.3333 10.1743 29.8256 11.6667 31.6666 11.6667Z" fill="#3C7CFF"/>
</svg>
