<svg width="100" height="98" viewBox="0 0 100 98" fill="none" xmlns="http://www.w3.org/2000/svg">
<path d="M67.8857 17.4235C64.0703 17.1926 60.3138 16.3712 56.7503 14.9886C53.0012 13.5172 50.7713 10.978 46.8133 13.2801C46.3128 13.5719 45.8163 13.8651 45.2576 14.1258C41.1377 16.0921 36.6657 17.2133 32.1054 17.4234C31.7122 17.4008 31.3186 17.4603 30.9496 17.5983C30.5807 17.7362 30.2446 17.9495 29.9626 18.2246C29.6807 18.4997 29.4592 18.8305 29.3122 19.1959C29.1652 19.5613 29.096 19.9534 29.1089 20.347C28.927 23.9516 29.215 27.5645 29.9655 31.0947C30.7765 35.0596 32.378 38.8205 34.6744 42.1528C38.2393 47.0576 43.126 50.8472 48.7638 53.079C49.556 53.3971 50.4402 53.3977 51.2327 53.0806C56.8712 50.8488 61.7586 47.0593 65.3245 42.1544C67.6202 38.8234 69.2216 35.0642 70.0334 31.101C70.7825 27.5795 71.0712 23.9756 70.8923 20.3797C70.9071 19.9832 70.839 19.588 70.6925 19.2193C70.5459 18.8506 70.3241 18.5165 70.0412 18.2383C69.7583 17.9601 69.4205 17.744 69.0493 17.6037C68.6782 17.4634 68.2819 17.402 67.8857 17.4235ZM66.1548 30.2412C65.4547 33.6929 64.0664 36.9682 62.0728 39.8717C59.0043 44.0735 54.8228 47.3343 49.9999 49.2863C45.1763 47.3343 40.9944 44.0728 37.9262 39.87C35.9319 36.9652 34.5434 33.6883 33.8434 30.235C33.2221 27.3122 32.9561 24.3251 33.0512 21.3386C37.8819 21.0355 42.6087 19.8031 46.9723 17.7091C47.6039 17.4158 48.2083 17.0651 48.8143 16.7127C49.1953 16.4908 49.5771 16.2658 49.9999 16.0485C50.4049 16.2565 50.796 16.4861 51.187 16.7142C51.7922 17.0665 52.3966 17.4156 52.9902 17.6919C57.3649 19.7944 62.1044 21.0326 66.9485 21.3386C67.0454 24.3274 66.7789 27.3168 66.1548 30.2412Z" fill="#3C7CFF"/>
<path d="M99.9924 9.77317C99.9916 3.19669 96.7771 0 90.1649 0H9.83505C3.2221 0 0.00756776 3.19669 0.00756776 9.77317C-0.00252259 29.0122 -0.00252259 51.4372 0.00756776 70.6747C0.00756776 77.1891 3.14994 80.3547 9.60926 80.3547C17.8275 80.3702 32.6215 80.361 38.2048 80.3563L37.647 85.5315C37.6359 85.637 37.5901 85.7358 37.5167 85.8124C35.701 87.6916 30.6794 93.5977 30.466 93.8475C30.2205 94.1365 30.0628 94.4897 30.0115 94.8654C29.9603 95.2411 30.0177 95.6236 30.1768 95.9677C30.336 96.3119 30.5904 96.6033 30.9099 96.8075C31.2293 97.0118 31.6006 97.1203 31.9798 97.1203H68.0201C68.3993 97.1203 68.7706 97.0118 69.0901 96.8075C69.4096 96.6033 69.6639 96.3119 69.8231 95.9678C69.9823 95.6236 70.0397 95.2411 69.9884 94.8654C69.9372 94.4897 69.7795 94.1365 69.534 93.8475C69.3206 93.5977 64.299 87.6916 62.4834 85.8108C62.4101 85.7354 62.3642 85.6376 62.3531 85.5331L61.7953 80.3563C67.3801 80.3625 82.1726 80.3687 90.387 80.3547C96.8502 80.3547 99.9925 77.1891 99.9925 70.6762C99.9938 68.2849 99.9949 65.844 99.9958 63.3663L99.9972 63.3595L99.9958 63.3525C100.002 45.9011 100.001 26.6165 99.9924 9.77317ZM63.6976 93.1477H36.3016C37.7998 91.4159 39.5091 89.4668 40.3735 88.573C41.0588 87.8605 41.4888 86.941 41.5963 85.9583L42.1995 80.3625H57.8004L58.4037 85.9598C58.5112 86.9416 58.9413 87.8601 59.6265 88.5715C60.4909 89.4668 62.1994 91.4159 63.6976 93.1477ZM96.0198 70.6747C96.0198 74.9949 94.6512 76.3822 90.383 76.3822C80.1156 76.4008 19.8813 76.4008 9.61314 76.3822C5.34883 76.3822 3.98015 74.995 3.98015 70.6732C3.97927 68.9183 3.97856 67.1118 3.97772 65.3086C11.3655 65.3086 78.6932 65.3099 96.0223 65.3373C96.0215 67.1312 96.0207 68.9287 96.0198 70.6747ZM96.0237 61.3647C78.6776 61.3374 11.3567 61.336 3.97627 61.336C3.9705 44.4213 3.97161 25.977 3.98015 9.77472C3.98015 5.38316 5.40314 3.97258 9.83505 3.97258H90.1649C94.5969 3.97258 96.0198 5.38316 96.0198 9.77472V9.77631C96.0284 25.9859 96.0296 44.4417 96.0237 61.3647Z" fill="#3C7CFF"/>
</svg>
