<svg width="100" height="100" viewBox="0 0 100 100" fill="none" xmlns="http://www.w3.org/2000/svg">
<path fill-rule="evenodd" clip-rule="evenodd" d="M4.79895 96.966H95.194C95.6801 96.966 96.1228 96.7663 96.4439 96.4452C96.7651 96.124 96.9647 95.6813 96.9647 95.1952V93.4244H3.02764V95.1952C3.02764 95.6813 3.22729 96.124 3.54845 96.4452C3.86961 96.7663 4.31286 96.966 4.79895 96.966ZM59.2111 90.3994V88.3378H40.7874V90.3994H59.2111ZM88.0421 76.0333L89.5915 81.6537C89.6522 81.8143 89.6826 81.9923 89.6826 82.1746C89.6826 83.0122 89.0055 83.6893 88.1679 83.6893L11.8256 83.6849V83.6806C11.652 83.6806 11.474 83.6502 11.3004 83.5851C10.5192 83.2943 10.1199 82.4263 10.4107 81.6451L12.5113 76.0333C12.6892 75.391 13.2751 74.9223 13.9739 74.9223H86.5875V74.9266C87.2515 74.9266 87.8598 75.3649 88.0421 76.0333ZM86.1845 80.6556L85.438 77.9474L15.0154 77.9517L14.0042 80.6599H86.18L86.1845 80.6556ZM14.122 22.5458V4.43437C14.122 3.21475 14.6211 2.10369 15.4241 1.30084C16.227 0.497914 17.3381 -0.0012207 18.5576 -0.0012207H81.4416C82.6612 -0.0012207 83.7723 0.497892 84.5751 1.30084C85.378 2.10378 85.8772 3.21487 85.8772 4.43437V22.6714C87.1879 23.2052 88.325 24.0515 89.193 25.1062C90.2954 26.4515 90.9551 28.1269 90.9551 29.9411V64.8618C90.9551 66.9797 90.061 68.9111 88.6114 70.339C89.6443 70.8077 90.5036 71.5368 91.2458 72.4352C92.4307 73.8675 93.2596 75.7033 94.0452 77.5566L99.8218 91.1971C99.9346 91.4098 99.9997 91.6528 99.9997 91.9132V95.1986C99.9997 96.518 99.4616 97.7202 98.5893 98.5883C97.7212 99.4563 96.519 99.9988 95.1996 99.9988H4.80013C3.48074 99.9988 2.27857 99.4606 1.4105 98.5883C0.542477 97.7203 0 96.518 0 95.1986V91.9132C0 91.6658 0.0607617 91.4315 0.164926 91.2232L5.5987 77.5871C6.34953 75.7035 7.18718 73.8502 8.38502 72.4181C9.13152 71.524 9.99951 70.8036 11.0368 70.3348C9.58719 68.9113 8.69745 66.9843 8.69745 64.862V29.9412C8.69745 28.0533 9.40922 26.3129 10.594 24.9458C11.5141 23.8824 12.7294 23.0448 14.1182 22.5456L14.122 22.5458ZM49.9971 8.58864H77.5304C78.3681 8.58864 79.0451 7.91158 79.0451 7.07392C79.0451 6.23628 78.3681 5.55921 77.5304 5.55921H49.9971C49.1595 5.55921 48.4824 6.23627 48.4824 7.07392C48.4824 7.91157 49.1595 8.58864 49.9971 8.58864ZM23.8049 8.58864H26.1833C27.0209 8.58864 27.698 7.91158 27.698 7.07392C27.698 6.23628 27.0209 5.55921 26.1833 5.55921H23.8049C22.9673 5.55921 22.2902 6.23627 22.2902 7.07392C22.2902 7.91157 22.9673 8.58864 23.8049 8.58864ZM30.8055 8.58864H33.1839C34.0215 8.58864 34.6986 7.91158 34.6986 7.07392C34.6986 6.23628 34.0215 5.55921 33.1839 5.55921H30.8055C29.9679 5.55921 29.2908 6.23627 29.2908 7.07392C29.2908 7.91157 29.9679 8.58864 30.8055 8.58864ZM37.8061 8.58864H40.1844C41.0221 8.58864 41.6992 7.91158 41.6992 7.07392C41.6992 6.23628 41.0221 5.55921 40.1844 5.55921H37.8061C36.9685 5.55921 36.2914 6.23627 36.2914 7.07392C36.2914 7.91157 36.9684 8.58864 37.8061 8.58864ZM17.1559 11.1189H82.8475V4.43081C82.8475 4.04454 82.6869 3.69733 82.4352 3.44128C82.1791 3.18521 81.8276 3.02897 81.4457 3.02897H18.5572C18.171 3.02897 17.8238 3.18956 17.5677 3.44128C17.3116 3.69734 17.1554 4.0489 17.1554 4.43081L17.1559 11.1189ZM43.4348 57.3413V59.2119H56.8542V57.3197C56.711 57.3327 56.5677 57.3414 56.4202 57.3414H43.4307L43.4348 57.3413ZM59.8885 55.6096V57.0549H81.4409C81.8272 57.0549 82.1744 56.8943 82.4304 56.6426C82.6865 56.3865 82.8428 56.035 82.8428 55.6531V14.1493H17.1511V55.6497C17.1511 56.036 17.3117 56.3832 17.5634 56.6393C17.8195 56.8953 18.171 57.0516 18.5529 57.0516H40.4009V56.1011C39.6935 55.4067 39.2204 54.4648 39.1206 53.3972C38.7257 49.1048 37.1936 47.3298 35.692 45.5981C33.6695 43.2587 31.6947 40.9715 31.6947 34.622C31.6947 29.5701 33.7433 24.9956 37.0547 21.6837C40.3662 18.3721 44.9407 16.3237 49.993 16.3237C55.0454 16.3237 59.6194 18.3723 62.9314 21.6837C66.2434 24.9951 68.2914 29.5697 68.2914 34.622C68.2914 40.9715 66.3036 43.172 64.2464 45.4419C62.7101 47.1388 61.1346 48.8836 60.7397 53.3842C60.6659 54.2219 60.3578 54.9814 59.8804 55.615L59.8885 55.6096ZM57.2627 54.0211C57.3061 53.9734 57.3539 53.93 57.4059 53.8866C57.5882 53.6826 57.7054 53.4179 57.7358 53.1184C58.2219 47.6195 60.1489 45.4885 62.0238 43.4139C63.6731 41.5911 65.2746 39.8203 65.2746 34.6209C65.2746 30.4023 63.5646 26.5873 60.8043 23.8227C58.0397 21.058 54.2247 19.3524 50.0061 19.3524C45.7875 19.3524 41.9726 21.0624 39.2079 23.8227C36.4433 26.5873 34.7377 30.4023 34.7377 34.6209C34.7377 39.855 36.3435 41.7169 37.9884 43.6179C39.8026 45.7142 41.6515 47.8582 42.1376 53.1227C42.168 53.4569 42.3242 53.7564 42.5586 53.9691C42.7886 54.1817 43.1011 54.3076 43.4439 54.3076H56.4301C56.7512 54.3076 57.042 54.1991 57.2634 54.0168L57.2627 54.0211ZM44.5677 62.2412C44.5764 62.749 44.6892 63.1917 44.8758 63.5085C44.8932 63.5302 44.9106 63.5563 44.9279 63.5823C45.0234 63.7299 45.0972 63.821 45.1232 63.821H55.1836C55.2096 63.821 55.2834 63.7299 55.3789 63.5823L55.3832 63.5866L55.3876 63.5823C55.5959 63.2611 55.7304 62.7881 55.7391 62.2412L44.5677 62.2412ZM58.7593 62.0503C59.0544 61.9027 59.3062 61.6727 59.5058 61.3776C59.7445 61.026 59.8921 60.566 59.8921 60.0929V60.0756H81.4445C82.6641 60.0756 83.7752 59.5765 84.578 58.7735C85.381 57.9706 85.8801 56.8595 85.8801 55.64V26.0924C86.249 26.3571 86.5832 26.6652 86.8653 27.0125C87.5337 27.8241 87.9286 28.8353 87.9286 29.9333V64.8541C87.9286 66.1778 87.3427 67.3886 86.3922 68.2697C85.4157 69.1768 84.0616 69.741 82.5643 69.741H79.4654C78.6278 69.741 77.9507 70.418 77.9507 71.2557C77.9507 72.0933 78.6278 72.7704 79.4654 72.7704H85.7803C87.1431 72.7704 88.1283 73.3997 88.9181 74.3546C89.8599 75.4916 90.5761 77.0931 91.2661 78.7207L96.2095 90.3913H62.2487V86.815C62.2487 85.9774 61.5717 85.3003 60.734 85.3003H39.2771C38.4395 85.3003 37.7624 85.9774 37.7624 86.815V90.3913L3.74054 90.4L8.40179 78.7038C9.0528 77.0719 9.76028 75.4878 10.7064 74.3638C11.5049 73.4133 12.5075 72.7883 13.879 72.7883H73.6942C74.5319 72.7883 75.2089 72.1112 75.2089 71.2736C75.2089 70.4359 74.5319 69.7589 73.6942 69.7589L17.0911 69.7502C15.5937 69.7502 14.2396 69.186 13.2631 68.2789C12.317 67.3979 11.7268 66.187 11.7268 64.8633V29.9426C11.7268 28.8055 12.1608 27.7508 12.8769 26.9218C13.2285 26.5182 13.6495 26.1623 14.1182 25.8715V55.6491C14.1182 56.8687 14.6173 57.9798 15.4203 58.7826C16.2232 59.5855 17.3343 60.0847 18.5538 60.0847H40.4018V60.1021C40.4018 60.5751 40.5493 61.0352 40.788 61.3867C40.9833 61.6775 41.2351 61.9075 41.5345 62.0594V62.1939C41.5345 63.2963 41.8297 64.325 42.3157 65.1191C42.3374 65.1625 42.3635 65.2059 42.3895 65.2493C43.0405 66.2432 44.004 66.8595 45.1151 66.8595H55.1754C56.2908 66.8595 57.25 66.2432 57.901 65.2493L57.8966 65.245C58.4261 64.4378 58.756 63.3528 58.756 62.1939V62.0594L58.7593 62.0503ZM45.3221 36.2525L42.5053 33.4357L45.3221 30.6189C45.9124 30.0287 45.9124 29.0696 45.3221 28.4749C44.7319 27.8847 43.7727 27.8847 43.1781 28.4749L39.2894 32.3636C38.6991 32.9539 38.6991 33.913 39.2894 34.5077L43.1781 38.3964C43.7683 38.9866 44.7275 38.9866 45.3221 38.3964C45.9124 37.8061 45.9124 36.8471 45.3221 36.2525ZM50.6388 29.3127L46.7501 36.0485C46.3334 36.7689 46.5851 37.6934 47.3056 38.1101C48.026 38.5267 48.9505 38.275 49.3672 37.5545L53.2559 30.8187C53.6725 30.0983 53.4208 29.1738 52.7004 28.7571C51.9799 28.3405 51.0554 28.5922 50.6388 29.3127ZM56.8234 38.3922L60.7121 34.5034C61.3024 33.9132 61.3024 32.9541 60.7121 32.3594L56.8234 28.4707C56.2331 27.8804 55.274 27.8804 54.6794 28.4707C54.0891 29.061 54.0891 30.0201 54.6794 30.6147L57.4962 33.4315L54.6794 36.2483C54.0891 36.8385 54.0891 37.7976 54.6794 38.3923C55.2696 38.9825 56.2288 38.9824 56.8234 38.3922Z" fill="#3C7CFF"/>
</svg>
