<svg width="100" height="100" viewBox="0 0 100 100" fill="none" xmlns="http://www.w3.org/2000/svg">
<path d="M13.7636 71.0041C13.389 71.1647 13.0698 71.4318 12.8456 71.772C12.6213 72.1123 12.5017 72.5109 12.5017 72.9185C12.5017 73.3261 12.6213 73.7247 12.8456 74.065C13.0698 74.4052 13.389 74.6723 13.7636 74.8329C23.9129 79.168 24.5149 79.168 24.9982 79.168H64.5787C65.1312 79.168 65.661 78.9486 66.0517 78.5579C66.4424 78.1672 66.6619 77.6374 66.6619 77.0849C66.6619 76.5324 66.4424 76.0025 66.0517 75.6118C65.661 75.2212 65.1312 75.0017 64.5787 75.0017H25.2294C24.5441 74.7934 22.4421 73.9476 19.9548 72.9185C22.4421 71.8894 24.5378 71.0436 25.2294 70.8353H70.8282V77.0849C70.8282 77.6374 71.0477 78.1672 71.4384 78.5579C71.8291 78.9486 72.3589 79.168 72.9114 79.168H83.3273C84.4323 79.168 85.4921 78.7291 86.2734 77.9477C87.0547 77.1664 87.4937 76.1067 87.4937 75.0017V70.8353C87.4937 69.7303 87.0547 68.6706 86.2734 67.8892C85.4921 67.1079 84.4323 66.6689 83.3273 66.6689H24.9982C24.5149 66.6689 23.9129 66.6689 13.7636 71.0041ZM74.9946 70.8353H83.3273V75.0017H74.9946V70.8353Z" fill="#3C7CFF"/>
<path d="M36.8871 36.0317C36.4964 35.6411 35.9666 35.4218 35.4143 35.4218C34.8619 35.4218 34.3321 35.6411 33.9414 36.0317L25.6087 44.3644C25.2182 44.7551 24.9988 45.2848 24.9988 45.8372C24.9988 46.3896 25.2182 46.9194 25.6087 47.31L33.9414 55.6428C34.3343 56.0222 34.8606 56.2322 35.4068 56.2275C35.953 56.2227 36.4754 56.0036 36.8617 55.6174C37.2479 55.2312 37.467 54.7087 37.4718 54.1625C37.4765 53.6163 37.2665 53.09 36.8871 52.6971L30.0271 45.8372L36.8871 38.9773C37.2776 38.5866 37.497 38.0569 37.497 37.5045C37.497 36.9521 37.2776 36.4223 36.8871 36.0317Z" fill="#3C7CFF"/>
<path d="M63.106 55.6428C63.4967 56.0333 64.0264 56.2527 64.5788 56.2527C65.1312 56.2527 65.661 56.0333 66.0516 55.6428L74.3844 47.31C74.7749 46.9194 74.9943 46.3896 74.9943 45.8372C74.9943 45.2848 74.7749 44.7551 74.3844 44.3644L66.0516 36.0317C65.6588 35.6522 65.1325 35.4422 64.5863 35.447C64.0401 35.4517 63.5176 35.6708 63.1314 36.0571C62.7452 36.4433 62.5261 36.9658 62.5213 37.512C62.5166 38.0582 62.7266 38.5844 63.106 38.9773L69.9659 45.8372L63.106 52.6971C62.7155 53.0878 62.4961 53.6176 62.4961 54.17C62.4961 54.7223 62.7155 55.2521 63.106 55.6428Z" fill="#3C7CFF"/>
<path d="M43.7468 60.4195C44.1214 60.4199 44.4892 60.3194 44.8114 60.1284C45.1337 59.9374 45.3985 59.663 45.5779 59.3342L58.077 36.4191C58.3416 35.934 58.4027 35.3637 58.2469 34.8336C58.091 34.3034 57.7309 33.8569 57.2458 33.5923C56.7607 33.3276 56.1904 33.2665 55.6602 33.4224C55.1301 33.5783 54.6836 33.9384 54.4189 34.4234L41.9198 57.3385C41.7468 57.6556 41.6592 58.0123 41.6656 58.3735C41.6721 58.7347 41.7723 59.0881 41.9566 59.3988C42.1409 59.7096 42.4028 59.9671 42.7166 60.146C43.0305 60.325 43.3855 60.4192 43.7468 60.4195Z" fill="#3C7CFF"/>
<path d="M97.9096 16.6727H12.4991C11.9466 16.6727 11.4167 16.8921 11.0261 17.2828C10.6354 17.6735 10.4159 18.2034 10.4159 18.7558C10.4159 19.3083 10.6354 19.8382 11.0261 20.2289C11.4167 20.6196 11.9466 20.839 12.4991 20.839H95.8264V89.5841C95.8264 91.2416 95.168 92.8312 93.996 94.0032C92.824 95.1752 91.2344 95.8336 89.5769 95.8336H10.4159C8.75843 95.8336 7.16884 95.1752 5.99682 94.0032C4.8248 92.8312 4.16637 91.2416 4.16637 89.5841V10.4231C4.16637 8.76563 4.8248 7.17603 5.99682 6.00401C7.16884 4.832 8.75843 4.17356 10.4159 4.17356H89.5644C90.3976 4.12796 91.2312 4.25828 92.0107 4.55605C92.7903 4.85382 93.4984 5.31236 94.0891 5.90185C94.6798 6.49134 95.1397 7.19857 95.4391 7.97754C95.7384 8.75651 95.8704 9.58977 95.8264 10.4231C95.8264 10.9756 96.0459 11.5055 96.4366 11.8961C96.8273 12.2868 97.3571 12.5063 97.9096 12.5063C98.4621 12.5063 98.992 12.2868 99.3827 11.8961C99.7733 11.5055 99.9928 10.9756 99.9928 10.4231C100.045 9.04123 99.8115 7.66342 99.3066 6.37602C98.8017 5.08863 98.0363 3.91938 97.0585 2.94154C96.0806 1.96369 94.9114 1.19833 93.624 0.693403C92.3366 0.188474 90.9588 -0.0451405 89.5769 0.00719529H10.4159C7.65446 0.0105031 5.00705 1.10895 3.05441 3.0616C1.10176 5.01425 0.0033078 7.66166 0 10.4231L0 89.5841C0.0033078 92.3455 1.10176 94.9929 3.05441 96.9456C5.00705 98.8982 7.65446 99.9967 10.4159 100H89.5769C92.3383 99.9967 94.9858 98.8982 96.9384 96.9456C98.891 94.9929 99.9895 92.3455 99.9928 89.5841V18.7558C99.9928 18.2034 99.7733 17.6735 99.3827 17.2828C98.992 16.8921 98.4621 16.6727 97.9096 16.6727Z" fill="#3C7CFF"/>
<path d="M12.4992 8.33984C11.9467 8.33984 11.4168 8.55932 11.0262 8.94999C10.6355 9.34067 10.416 9.87053 10.416 10.423C10.416 10.9755 10.6355 11.5054 11.0262 11.8961C11.4168 12.2867 11.9467 12.5062 12.4992 12.5062H16.6656C17.2181 12.5062 17.7479 12.2867 18.1386 11.8961C18.5293 11.5054 18.7487 10.9755 18.7487 10.423C18.7487 9.87053 18.5293 9.34067 18.1386 8.94999C17.7479 8.55932 17.2181 8.33984 16.6656 8.33984H12.4992Z" fill="#3C7CFF"/>
<path d="M24.9982 8.33984C24.4457 8.33984 23.9159 8.55932 23.5252 8.94999C23.1345 9.34067 22.915 9.87053 22.915 10.423C22.915 10.9755 23.1345 11.5054 23.5252 11.8961C23.9159 12.2867 24.4457 12.5062 24.9982 12.5062H29.1646C29.7171 12.5062 30.2469 12.2867 30.6376 11.8961C31.0283 11.5054 31.2478 10.9755 31.2478 10.423C31.2478 9.87053 31.0283 9.34067 30.6376 8.94999C30.2469 8.55932 29.7171 8.33984 29.1646 8.33984H24.9982Z" fill="#3C7CFF"/>
<path d="M85.4106 8.33984C84.8581 8.33984 84.3282 8.55932 83.9375 8.94999C83.5469 9.34067 83.3274 9.87053 83.3274 10.423C83.3274 10.9755 83.5469 11.5054 83.9375 11.8961C84.3282 12.2867 84.8581 12.5062 85.4106 12.5062H89.5769C90.1294 12.5062 90.6593 12.2867 91.05 11.8961C91.4407 11.5054 91.6601 10.9755 91.6601 10.423C91.6601 9.87053 91.4407 9.34067 91.05 8.94999C90.6593 8.55932 90.1294 8.33984 89.5769 8.33984H85.4106Z" fill="#3C7CFF"/>
</svg>
