<svg width="98" height="100" viewBox="0 0 98 100" fill="none" xmlns="http://www.w3.org/2000/svg">
<mask id="path-1-inside-1_166_213" fill="white">
<path d="M48.6156 4.27298e-06C48.0686 -0.000926283 47.5322 0.150151 47.0665 0.436304C46.6007 0.722458 46.224 1.13238 45.9786 1.62013L41.0665 11.4443L30.1679 12.9898C29.6256 13.068 29.1159 13.2957 28.6962 13.6472C28.2764 13.9986 27.9633 14.46 27.792 14.9793C27.6207 15.4987 27.5979 16.0554 27.7264 16.587C27.8549 17.1185 28.1294 17.6037 28.5191 17.9881L36.3727 25.6865L34.4653 36.4932C34.3689 37.0339 34.4262 37.5907 34.6309 38.1006C34.8355 38.6104 35.1792 39.0528 35.6231 39.3777C36.0669 39.7025 36.5931 39.8967 37.142 39.9382C37.6908 39.9798 38.2403 39.867 38.7282 39.6128L48.4835 34.5398L58.2043 39.6817C58.6895 39.9388 59.2372 40.0553 59.7854 40.0181C60.3336 39.9808 60.8604 39.7913 61.3062 39.4709C61.7521 39.1506 62.0993 38.7121 62.3085 38.2052C62.5177 37.6983 62.5806 37.1431 62.4901 36.6023L60.6747 25.7727L68.5857 18.1432C68.9815 17.7619 69.2624 17.2777 69.3966 16.7454C69.5307 16.2131 69.5128 15.6539 69.3447 15.1312C69.1767 14.6085 68.8653 14.1433 68.4458 13.7881C68.0263 13.433 67.5155 13.2022 66.9713 13.1219L56.0843 11.5075L51.2526 1.63736C51.0096 1.14639 50.634 0.732934 50.168 0.443626C49.7021 0.154317 49.1644 0.000667094 48.6156 4.27298e-06ZM48.5867 9.55992L51.4823 15.4717C51.6911 15.8981 52.0004 16.2676 52.3836 16.5488C52.7668 16.8299 53.2125 17.0143 53.6827 17.0861L60.1976 18.057L55.4636 22.6301C55.1197 22.9608 54.8616 23.37 54.7115 23.8223C54.5614 24.2747 54.5238 24.7568 54.6019 25.2269L55.6935 31.6959L49.8852 28.6165C49.4631 28.394 48.9931 28.2772 48.5157 28.2762C48.0383 28.2752 47.5678 28.39 47.1448 28.6108L41.2962 31.6442L42.4395 25.1752C42.5205 24.7069 42.4865 24.226 42.3404 23.7738C42.1943 23.3215 41.9405 22.9113 41.6007 22.5784L36.8954 17.9708L43.4219 17.0516C43.896 16.9853 44.3468 16.8047 44.7353 16.5254C45.1237 16.2461 45.438 15.8765 45.651 15.4487L48.5867 9.55992ZM11.5478 20.4355C11.0127 20.413 10.4816 20.537 10.0118 20.7942C9.54206 21.0513 9.15141 21.4319 8.88201 21.8947C8.68961 22.2297 8.56508 22.5993 8.51552 22.9824C8.46596 23.3655 8.49235 23.7547 8.59318 24.1276C8.69401 24.5005 8.86731 24.8499 9.10317 25.1558C9.33904 25.4617 9.63286 25.7182 9.96785 25.9106L22.9117 33.4023C23.2466 33.5947 23.6162 33.7192 23.9993 33.7688C24.3824 33.8183 24.7716 33.7919 25.1445 33.6911C25.5174 33.5903 25.8668 33.417 26.1727 33.1811C26.4787 32.9452 26.7351 32.6514 26.9275 32.3164C27.318 31.6427 27.4254 30.8416 27.2262 30.0888C27.0269 29.336 26.5373 28.6929 25.8647 28.3006L12.8979 20.8319C12.4866 20.5925 12.0232 20.4564 11.5478 20.4355ZM85.775 20.4355C85.2254 20.4184 84.6821 20.5558 84.2066 20.8319L71.2456 28.3006C70.9106 28.493 70.6167 28.7494 70.3809 29.0554C70.145 29.3613 69.9717 29.7107 69.8709 30.0836C69.7701 30.4565 69.7437 30.8456 69.7932 31.2287C69.8428 31.6119 69.9673 31.9815 70.1597 32.3164C70.3521 32.6514 70.6086 32.9452 70.9145 33.1811C71.2204 33.417 71.5698 33.5903 71.9427 33.6911C72.3157 33.7919 72.7048 33.8183 73.0879 33.7688C73.471 33.7192 73.8406 33.5947 74.1756 33.4023L87.1424 25.9106C87.4773 25.7182 87.7712 25.4617 88.007 25.1558C88.2429 24.8499 88.4162 24.5005 88.517 24.1276C88.6179 23.7547 88.6442 23.3655 88.5947 22.9824C88.5451 22.5993 88.4206 22.2297 88.2282 21.8947C88.0327 21.559 87.7726 21.2653 87.463 21.0306C87.1534 20.7959 86.8003 20.6249 86.4242 20.5274C86.2119 20.4725 85.9942 20.4419 85.775 20.4355ZM2.95302 42.3245C2.56626 42.323 2.18299 42.3977 1.82515 42.5445C1.46732 42.6913 1.14195 42.9072 0.867662 43.1799C0.593375 43.4526 0.375557 43.7767 0.226677 44.1337C0.077796 44.4907 0.000775067 44.8735 2.25535e-05 45.2603C-0.00149763 45.6485 0.0738463 46.0331 0.22171 46.3921C0.369574 46.7511 0.587032 47.0772 0.861546 47.3517C1.13606 47.6262 1.4622 47.8437 1.82116 47.9916C2.18012 48.1394 2.5648 48.2148 2.95302 48.2133H17.9134C18.3002 48.2125 18.683 48.1355 19.0399 47.9866C19.3969 47.8377 19.721 47.6199 19.9937 47.3456C20.2664 47.0713 20.4823 46.746 20.6291 46.3881C20.7759 46.0303 20.8507 45.647 20.8491 45.2603C20.8476 44.4821 20.5378 43.7363 19.9876 43.186C19.4374 42.6358 18.6915 42.326 17.9134 42.3245H2.95302ZM79.1911 42.3245C78.4139 42.3275 77.6696 42.638 77.1206 43.188C76.5716 43.7381 76.2626 44.4831 76.2611 45.2603C76.2596 45.6465 76.3341 46.0293 76.4806 46.3868C76.627 46.7443 76.8424 47.0694 77.1145 47.3436C77.3866 47.6178 77.71 47.8357 78.0663 47.985C78.4226 48.1342 78.8048 48.2118 79.1911 48.2133H94.1515C94.5397 48.2148 94.9243 48.1394 95.2833 47.9916C95.6423 47.8437 95.9684 47.6262 96.2429 47.3517C96.5174 47.0772 96.7349 46.7511 96.8828 46.3921C97.0306 46.0331 97.106 45.6485 97.1045 45.2603C97.1037 44.8735 97.0267 44.4907 96.8778 44.1337C96.7289 43.7767 96.5111 43.4526 96.2368 43.1799C95.9625 42.9072 95.6372 42.6913 95.2793 42.5445C94.9215 42.3977 94.5382 42.323 94.1515 42.3245H79.1911ZM48.5522 46.2369C40.6532 46.2369 34.1779 52.7121 34.1779 60.6113C34.1779 64.7932 35.9971 68.5711 38.8774 71.2053C30.9734 74.8272 25.474 82.746 25.474 91.9453V97.07C25.4771 97.8461 25.7868 98.5896 26.3356 99.1384C26.8844 99.6872 27.6279 99.9969 28.404 100H68.6832C69.4633 100.003 70.2127 99.6959 70.7665 99.1465C71.3202 98.597 71.6331 97.8501 71.6362 97.07V91.9453C71.6362 82.7441 66.1337 74.8262 58.2271 71.2053C61.0998 68.5712 62.9094 64.7917 62.9094 60.6113C62.9094 52.7121 56.4513 46.2369 48.5522 46.2369ZM48.3339 52.1199C48.4073 52.1181 48.4784 52.1199 48.5522 52.1199C53.2718 52.1199 57.0436 55.8914 57.0436 60.6113C57.0436 65.3311 53.2718 69.1026 48.5522 69.1026C43.8327 69.1026 40.0667 65.3311 40.0667 60.6113C40.0667 55.9652 43.718 52.2353 48.3339 52.1199ZM72.6071 56.739C72.3899 56.7459 72.1741 56.7769 71.9637 56.8313C71.5857 56.9315 71.2315 57.1061 70.9217 57.3448C70.612 57.5835 70.3529 57.8816 70.1598 58.2216C69.9674 58.5566 69.8428 58.9262 69.7933 59.3093C69.7437 59.6924 69.7701 60.0815 69.8709 60.4545C69.9718 60.8274 70.1451 61.1768 70.3809 61.4827C70.6168 61.7886 70.9106 62.0451 71.2456 62.2375L84.2066 69.7062C84.5419 69.8995 84.9119 70.0247 85.2956 70.0748C85.6794 70.1248 86.0692 70.0986 86.4428 69.9978C86.8163 69.8969 87.1664 69.7233 87.4727 69.487C87.7791 69.2506 88.0359 68.9561 88.2282 68.6203C88.4206 68.2854 88.5452 67.9158 88.5947 67.5327C88.6443 67.1496 88.6179 66.7604 88.5171 66.3875C88.4162 66.0146 88.243 65.6652 88.0071 65.3593C87.7712 65.0533 87.4774 64.7969 87.1424 64.6045L74.1756 57.1358C73.7001 56.8597 73.1567 56.722 72.6071 56.739ZM24.2618 56.7448C23.7868 56.764 23.3235 56.898 22.9116 57.1354L9.96784 64.6041C9.63285 64.7965 9.33903 65.053 9.10316 65.3589C8.8673 65.6648 8.694 66.0142 8.59317 66.3871C8.49234 66.76 8.46595 67.1492 8.51551 67.5323C8.56507 67.9154 8.6896 68.285 8.882 68.62C9.07438 68.955 9.33086 69.2488 9.63679 69.4846C9.94273 69.7205 10.2921 69.8938 10.665 69.9946C11.0379 70.0955 11.4271 70.1218 11.8102 70.0723C12.1933 70.0227 12.5629 69.8982 12.8979 69.7058L25.8647 62.2371C26.5373 61.8447 27.0269 61.2017 27.2261 60.4489C27.4254 59.6961 27.318 58.895 26.9275 58.2213C26.6603 57.7552 26.2706 57.3712 25.8007 57.1109C25.3308 56.8506 24.7986 56.724 24.2618 56.7448ZM48.5522 74.9856C58.15 74.9856 65.7532 82.5114 65.7532 91.9453V94.117H31.357V91.9453C31.357 82.5114 38.9544 74.9856 48.5522 74.9856Z"/>
</mask>
<path d="M48.6156 4.27298e-06C48.0686 -0.000926283 47.5322 0.150151 47.0665 0.436304C46.6007 0.722458 46.224 1.13238 45.9786 1.62013L41.0665 11.4443L30.1679 12.9898C29.6256 13.068 29.1159 13.2957 28.6962 13.6472C28.2764 13.9986 27.9633 14.46 27.792 14.9793C27.6207 15.4987 27.5979 16.0554 27.7264 16.587C27.8549 17.1185 28.1294 17.6037 28.5191 17.9881L36.3727 25.6865L34.4653 36.4932C34.3689 37.0339 34.4262 37.5907 34.6309 38.1006C34.8355 38.6104 35.1792 39.0528 35.6231 39.3777C36.0669 39.7025 36.5931 39.8967 37.142 39.9382C37.6908 39.9798 38.2403 39.867 38.7282 39.6128L48.4835 34.5398L58.2043 39.6817C58.6895 39.9388 59.2372 40.0553 59.7854 40.0181C60.3336 39.9808 60.8604 39.7913 61.3062 39.4709C61.7521 39.1506 62.0993 38.7121 62.3085 38.2052C62.5177 37.6983 62.5806 37.1431 62.4901 36.6023L60.6747 25.7727L68.5857 18.1432C68.9815 17.7619 69.2624 17.2777 69.3966 16.7454C69.5307 16.2131 69.5128 15.6539 69.3447 15.1312C69.1767 14.6085 68.8653 14.1433 68.4458 13.7881C68.0263 13.433 67.5155 13.2022 66.9713 13.1219L56.0843 11.5075L51.2526 1.63736C51.0096 1.14639 50.634 0.732934 50.168 0.443626C49.7021 0.154317 49.1644 0.000667094 48.6156 4.27298e-06ZM48.5867 9.55992L51.4823 15.4717C51.6911 15.8981 52.0004 16.2676 52.3836 16.5488C52.7668 16.8299 53.2125 17.0143 53.6827 17.0861L60.1976 18.057L55.4636 22.6301C55.1197 22.9608 54.8616 23.37 54.7115 23.8223C54.5614 24.2747 54.5238 24.7568 54.6019 25.2269L55.6935 31.6959L49.8852 28.6165C49.4631 28.394 48.9931 28.2772 48.5157 28.2762C48.0383 28.2752 47.5678 28.39 47.1448 28.6108L41.2962 31.6442L42.4395 25.1752C42.5205 24.7069 42.4865 24.226 42.3404 23.7738C42.1943 23.3215 41.9405 22.9113 41.6007 22.5784L36.8954 17.9708L43.4219 17.0516C43.896 16.9853 44.3468 16.8047 44.7353 16.5254C45.1237 16.2461 45.438 15.8765 45.651 15.4487L48.5867 9.55992ZM11.5478 20.4355C11.0127 20.413 10.4816 20.537 10.0118 20.7942C9.54206 21.0513 9.15141 21.4319 8.88201 21.8947C8.68961 22.2297 8.56508 22.5993 8.51552 22.9824C8.46596 23.3655 8.49235 23.7547 8.59318 24.1276C8.69401 24.5005 8.86731 24.8499 9.10317 25.1558C9.33904 25.4617 9.63286 25.7182 9.96785 25.9106L22.9117 33.4023C23.2466 33.5947 23.6162 33.7192 23.9993 33.7688C24.3824 33.8183 24.7716 33.7919 25.1445 33.6911C25.5174 33.5903 25.8668 33.417 26.1727 33.1811C26.4787 32.9452 26.7351 32.6514 26.9275 32.3164C27.318 31.6427 27.4254 30.8416 27.2262 30.0888C27.0269 29.336 26.5373 28.6929 25.8647 28.3006L12.8979 20.8319C12.4866 20.5925 12.0232 20.4564 11.5478 20.4355ZM85.775 20.4355C85.2254 20.4184 84.6821 20.5558 84.2066 20.8319L71.2456 28.3006C70.9106 28.493 70.6167 28.7494 70.3809 29.0554C70.145 29.3613 69.9717 29.7107 69.8709 30.0836C69.7701 30.4565 69.7437 30.8456 69.7932 31.2287C69.8428 31.6119 69.9673 31.9815 70.1597 32.3164C70.3521 32.6514 70.6086 32.9452 70.9145 33.1811C71.2204 33.417 71.5698 33.5903 71.9427 33.6911C72.3157 33.7919 72.7048 33.8183 73.0879 33.7688C73.471 33.7192 73.8406 33.5947 74.1756 33.4023L87.1424 25.9106C87.4773 25.7182 87.7712 25.4617 88.007 25.1558C88.2429 24.8499 88.4162 24.5005 88.517 24.1276C88.6179 23.7547 88.6442 23.3655 88.5947 22.9824C88.5451 22.5993 88.4206 22.2297 88.2282 21.8947C88.0327 21.559 87.7726 21.2653 87.463 21.0306C87.1534 20.7959 86.8003 20.6249 86.4242 20.5274C86.2119 20.4725 85.9942 20.4419 85.775 20.4355ZM2.95302 42.3245C2.56626 42.323 2.18299 42.3977 1.82515 42.5445C1.46732 42.6913 1.14195 42.9072 0.867662 43.1799C0.593375 43.4526 0.375557 43.7767 0.226677 44.1337C0.077796 44.4907 0.000775067 44.8735 2.25535e-05 45.2603C-0.00149763 45.6485 0.0738463 46.0331 0.22171 46.3921C0.369574 46.7511 0.587032 47.0772 0.861546 47.3517C1.13606 47.6262 1.4622 47.8437 1.82116 47.9916C2.18012 48.1394 2.5648 48.2148 2.95302 48.2133H17.9134C18.3002 48.2125 18.683 48.1355 19.0399 47.9866C19.3969 47.8377 19.721 47.6199 19.9937 47.3456C20.2664 47.0713 20.4823 46.746 20.6291 46.3881C20.7759 46.0303 20.8507 45.647 20.8491 45.2603C20.8476 44.4821 20.5378 43.7363 19.9876 43.186C19.4374 42.6358 18.6915 42.326 17.9134 42.3245H2.95302ZM79.1911 42.3245C78.4139 42.3275 77.6696 42.638 77.1206 43.188C76.5716 43.7381 76.2626 44.4831 76.2611 45.2603C76.2596 45.6465 76.3341 46.0293 76.4806 46.3868C76.627 46.7443 76.8424 47.0694 77.1145 47.3436C77.3866 47.6178 77.71 47.8357 78.0663 47.985C78.4226 48.1342 78.8048 48.2118 79.1911 48.2133H94.1515C94.5397 48.2148 94.9243 48.1394 95.2833 47.9916C95.6423 47.8437 95.9684 47.6262 96.2429 47.3517C96.5174 47.0772 96.7349 46.7511 96.8828 46.3921C97.0306 46.0331 97.106 45.6485 97.1045 45.2603C97.1037 44.8735 97.0267 44.4907 96.8778 44.1337C96.7289 43.7767 96.5111 43.4526 96.2368 43.1799C95.9625 42.9072 95.6372 42.6913 95.2793 42.5445C94.9215 42.3977 94.5382 42.323 94.1515 42.3245H79.1911ZM48.5522 46.2369C40.6532 46.2369 34.1779 52.7121 34.1779 60.6113C34.1779 64.7932 35.9971 68.5711 38.8774 71.2053C30.9734 74.8272 25.474 82.746 25.474 91.9453V97.07C25.4771 97.8461 25.7868 98.5896 26.3356 99.1384C26.8844 99.6872 27.6279 99.9969 28.404 100H68.6832C69.4633 100.003 70.2127 99.6959 70.7665 99.1465C71.3202 98.597 71.6331 97.8501 71.6362 97.07V91.9453C71.6362 82.7441 66.1337 74.8262 58.2271 71.2053C61.0998 68.5712 62.9094 64.7917 62.9094 60.6113C62.9094 52.7121 56.4513 46.2369 48.5522 46.2369ZM48.3339 52.1199C48.4073 52.1181 48.4784 52.1199 48.5522 52.1199C53.2718 52.1199 57.0436 55.8914 57.0436 60.6113C57.0436 65.3311 53.2718 69.1026 48.5522 69.1026C43.8327 69.1026 40.0667 65.3311 40.0667 60.6113C40.0667 55.9652 43.718 52.2353 48.3339 52.1199ZM72.6071 56.739C72.3899 56.7459 72.1741 56.7769 71.9637 56.8313C71.5857 56.9315 71.2315 57.1061 70.9217 57.3448C70.612 57.5835 70.3529 57.8816 70.1598 58.2216C69.9674 58.5566 69.8428 58.9262 69.7933 59.3093C69.7437 59.6924 69.7701 60.0815 69.8709 60.4545C69.9718 60.8274 70.1451 61.1768 70.3809 61.4827C70.6168 61.7886 70.9106 62.0451 71.2456 62.2375L84.2066 69.7062C84.5419 69.8995 84.9119 70.0247 85.2956 70.0748C85.6794 70.1248 86.0692 70.0986 86.4428 69.9978C86.8163 69.8969 87.1664 69.7233 87.4727 69.487C87.7791 69.2506 88.0359 68.9561 88.2282 68.6203C88.4206 68.2854 88.5452 67.9158 88.5947 67.5327C88.6443 67.1496 88.6179 66.7604 88.5171 66.3875C88.4162 66.0146 88.243 65.6652 88.0071 65.3593C87.7712 65.0533 87.4774 64.7969 87.1424 64.6045L74.1756 57.1358C73.7001 56.8597 73.1567 56.722 72.6071 56.739ZM24.2618 56.7448C23.7868 56.764 23.3235 56.898 22.9116 57.1354L9.96784 64.6041C9.63285 64.7965 9.33903 65.053 9.10316 65.3589C8.8673 65.6648 8.694 66.0142 8.59317 66.3871C8.49234 66.76 8.46595 67.1492 8.51551 67.5323C8.56507 67.9154 8.6896 68.285 8.882 68.62C9.07438 68.955 9.33086 69.2488 9.63679 69.4846C9.94273 69.7205 10.2921 69.8938 10.665 69.9946C11.0379 70.0955 11.4271 70.1218 11.8102 70.0723C12.1933 70.0227 12.5629 69.8982 12.8979 69.7058L25.8647 62.2371C26.5373 61.8447 27.0269 61.2017 27.2261 60.4489C27.4254 59.6961 27.318 58.895 26.9275 58.2213C26.6603 57.7552 26.2706 57.3712 25.8007 57.1109C25.3308 56.8506 24.7986 56.724 24.2618 56.7448ZM48.5522 74.9856C58.15 74.9856 65.7532 82.5114 65.7532 91.9453V94.117H31.357V91.9453C31.357 82.5114 38.9544 74.9856 48.5522 74.9856Z" fill="#3C7CFF" stroke="white" stroke-width="2" mask="url(#path-1-inside-1_166_213)"/>
</svg>
