<svg width="100" height="101" viewBox="0 0 100 101" fill="none" xmlns="http://www.w3.org/2000/svg">
<path d="M88.9458 9.24126C90.4897 10.3362 91.6793 11.8553 92.3731 13.6109H7.62728C8.32102 11.8553 9.51069 10.3362 11.0546 9.24126C12.6953 8.07764 14.6558 7.44994 16.6672 7.44421H83.3332C85.3446 7.44994 87.3051 8.07764 88.9458 9.24126Z" stroke="white" stroke-width="0.5"/>
<path d="M53.0834 67.1943C53.0834 68.8972 51.7029 70.2776 50 70.2776C48.2971 70.2776 46.9167 68.8972 46.9167 67.1943C46.9167 65.4914 48.2971 64.111 50 64.111C51.7029 64.111 53.0834 65.4914 53.0834 67.1943Z" stroke="white" stroke-width="0.5"/>
<path d="M32.5435 56.4044C32.879 56.0714 33.1453 55.6753 33.3271 55.239C33.509 54.8023 33.6027 54.334 33.6027 53.8609C33.6027 53.3879 33.509 52.9195 33.3271 52.4829C33.1453 52.0464 32.8788 51.6503 32.5432 51.3172C32.5431 51.3171 32.5429 51.3169 32.5427 51.3168L29.8604 48.6344C34.4453 44.4226 40.2362 41.7553 46.4167 41.0083V43.8609C46.4167 44.8113 46.7942 45.7227 47.4662 46.3947C48.1382 47.0667 49.0497 47.4443 50 47.4443C50.9504 47.4443 51.8618 47.0667 52.5338 46.3947C53.2058 45.7227 53.5834 44.8113 53.5834 43.8609V41.07C55.3937 41.2567 57.1827 41.6126 58.9269 42.1333C59.8339 42.4177 60.8168 42.3305 61.6595 41.8906C62.5028 41.4505 63.1368 40.6934 63.4219 39.7858C63.7069 38.8783 63.6198 37.8947 63.1797 37.0514C62.7396 36.2081 61.9825 35.5742 61.0749 35.2891L61.0742 35.2889C57.4886 34.1741 53.7548 33.6084 49.9998 33.6109C41.3077 33.6174 32.8966 36.6907 26.2479 42.2896C19.5992 47.8884 15.1394 55.6537 13.6538 64.2178C13.4355 65.4547 13.4881 66.7243 13.808 67.9389C14.128 69.1536 14.7077 70.2844 15.5072 71.2534L15.5093 71.2558C16.2998 72.1892 17.2836 72.9398 18.3926 73.4557C19.5017 73.9717 20.7095 74.2407 21.9326 74.2443H21.9334H23.3334C24.2837 74.2443 25.1951 73.8667 25.8672 73.1947C26.5392 72.5227 26.9167 71.6113 26.9167 70.6609C26.9167 69.7106 26.5392 68.7991 25.8672 68.1271C25.1951 67.4551 24.2837 67.0776 23.3334 67.0776H21.9334H21.933C21.7534 67.0778 21.5759 67.0383 21.4133 66.9618C21.251 66.8854 21.1076 66.7741 20.9933 66.6357C20.8632 66.4761 20.7704 66.2895 20.7216 66.0894C20.6727 65.8891 20.6692 65.6805 20.7114 65.4787L20.7116 65.4787L20.7131 65.47C21.4038 61.4577 22.9243 57.6349 25.1761 54.2456L27.4586 56.4064C27.7912 56.741 28.1865 57.0066 28.622 57.188C29.0586 57.3699 29.527 57.4636 30 57.4636C30.4731 57.4636 30.9414 57.3699 31.3781 57.188C31.8144 57.0062 32.2105 56.7399 32.5435 56.4044ZM32.5435 56.4044C32.5432 56.4046 32.543 56.4048 32.5427 56.4051L32.3667 56.2276L32.5442 56.4036C32.5439 56.4039 32.5437 56.4041 32.5435 56.4044ZM78.0665 74.1109C79.2907 74.112 80.5003 73.845 81.6103 73.3286C82.7203 72.8122 83.7037 72.0589 84.4914 71.1218L84.4928 71.12C85.27 70.1783 85.8398 69.0833 86.1651 67.9064C86.4903 66.7295 86.5638 65.4972 86.3805 64.2901L86.3806 64.2901L86.3795 64.284C85.8675 61.3953 85.0112 58.5784 83.8288 55.8935L83.828 55.8917L83.228 54.5583L83.2281 54.5583L83.2246 54.5511C82.8065 53.6959 82.0658 53.0418 81.1654 52.7327C80.265 52.4236 79.2788 52.4849 78.4235 52.903C77.5683 53.3211 76.9142 54.0618 76.6052 54.9622C76.2962 55.862 76.3572 56.8477 76.7747 57.7026C76.7749 57.7031 76.7752 57.7036 76.7754 57.7041L77.2714 58.762C77.2718 58.7629 77.2721 58.7638 77.2725 58.7646C78.2076 60.8801 78.8948 63.0967 79.3203 65.3701C79.3519 65.5694 79.3406 65.7732 79.2871 65.9678C79.2333 66.1633 79.1382 66.345 79.0082 66.5006L79.0072 66.5018C78.8929 66.6404 78.7493 66.752 78.5867 66.8285C78.4241 66.9049 78.2467 66.9445 78.067 66.9443H78.0667H76.6667C75.7163 66.9443 74.8049 67.3218 74.1329 67.9938C73.4609 68.6658 73.0834 69.5772 73.0834 70.5276C73.0834 71.4779 73.4609 72.3894 74.1329 73.0614C74.8049 73.7334 75.7163 74.1109 76.6667 74.1109H78.0665ZM78.0665 74.1109L78.0667 73.8609V74.1109H78.0665ZM50.0015 56.9443H50C47.2816 56.9443 44.6744 58.0242 42.7522 59.9464C40.8299 61.8687 39.75 64.4758 39.75 67.1943C39.75 69.9127 40.8299 72.5199 42.7522 74.4421C44.6744 76.3643 47.2816 77.4443 50 77.4443C52.7185 77.4443 55.3256 76.3643 57.2479 74.4421C59.1701 72.5199 60.25 69.9127 60.25 67.1943V67.1937C60.2467 65.7396 59.9341 64.3036 59.3337 62.9808L75.8768 46.4377C76.5514 45.7631 76.9303 44.8482 76.9303 43.8943C76.9303 42.9403 76.5514 42.0254 75.8768 41.3508C75.2022 40.6763 74.2873 40.2973 73.3334 40.2973C72.3794 40.2973 71.4645 40.6763 70.7899 41.3508L54.2478 57.8929C52.9172 57.2767 51.4692 56.953 50.0015 56.9443ZM6.91669 83.8609V20.7776H93.0834V83.8609C93.0834 86.4468 92.0561 88.9267 90.2276 90.7552C88.3992 92.5837 85.9192 93.6109 83.3334 93.6109H16.6667C14.0808 93.6109 11.6009 92.5837 9.7724 90.7552C7.94392 88.9267 6.91669 86.4468 6.91669 83.8609ZM61.0002 35.527L61.0002 35.527L61.0002 35.527Z" stroke="white" stroke-width="0.5"/>
<path d="M16.6667 6.94425L16.666 6.94426C14.5512 6.9502 12.4901 7.61009 10.7652 8.83346C9.04021 10.0568 7.73587 11.7838 7.03096 13.7776L6.91312 14.1109H7.26667H92.7333H93.0869L92.969 13.7776C92.2641 11.7838 90.9598 10.0568 89.2348 8.83346C87.5099 7.61009 85.4488 6.9502 83.334 6.94425H83.3333L16.6667 6.94425ZM6.66667 20.2776H6.41667V20.5276V83.8609C6.41667 86.5794 7.49657 89.1865 9.41882 91.1088C11.3411 93.031 13.9482 94.1109 16.6667 94.1109H83.3333C86.0518 94.1109 88.6589 93.031 90.5812 91.1088C92.5034 89.1865 93.5833 86.5794 93.5833 83.8609V20.5276V20.2776H93.3333H6.66667ZM16.6667 0.777588H83.3333C85.4892 0.777588 87.624 1.20222 89.6157 2.02723C91.6075 2.85225 93.4172 4.06149 94.9417 5.58592C96.4661 7.11035 97.6753 8.92011 98.5004 10.9119C99.3254 12.9036 99.75 15.0384 99.75 17.1943V83.8609C99.75 88.2149 98.0204 92.3905 94.9417 95.4693C91.8629 98.548 87.6873 100.278 83.3333 100.278H16.6667C14.5108 100.278 12.376 99.853 10.3843 99.0279C8.39252 98.2029 6.58276 96.9937 5.05833 95.4693C1.97961 92.3905 0.25 88.2149 0.25 83.8609V17.1943C0.25 12.8403 1.97961 8.66464 5.05833 5.58592C6.58276 4.06149 8.39252 2.85225 10.3843 2.02723C12.376 1.20222 14.5108 0.777588 16.6667 0.777588Z" fill="#3C7CFF" stroke="white" stroke-width="0.5"/>
<path d="M77.2264 57.3548L77.2263 57.3548L77.7263 58.4215L77.7287 58.4265L77.7286 58.4265C78.6804 60.5791 79.3796 62.8347 79.8124 65.1483L79.8136 65.1545L79.8135 65.1546C79.857 65.4254 79.8419 65.7025 79.7692 65.967C79.6965 66.2313 79.568 66.4769 79.3923 66.6873C79.2311 66.8826 79.0287 67.0397 78.7996 67.1475C78.5702 67.2554 78.3198 67.3112 78.0663 67.3109M77.2264 57.3548L83 54.5276C82.611 53.7319 81.9219 53.1234 81.0842 52.8358C80.2465 52.5483 79.329 52.6053 78.5333 52.9942C77.7377 53.3832 77.1291 54.0723 76.8416 54.91C76.554 55.7477 76.611 56.6653 77 57.4609L77.5 58.5276C78.4439 60.6626 79.1374 62.8997 79.5666 65.1942C79.6045 65.4298 79.5914 65.6707 79.5281 65.9007C79.4649 66.1308 79.353 66.3445 79.2 66.5276C79.0622 66.6946 78.8891 66.8291 78.6931 66.9213C78.4972 67.0135 78.2832 67.0612 78.0666 67.0609H76.6666C75.7826 67.0609 74.9347 67.4121 74.3096 68.0372C73.6845 68.6623 73.3333 69.5102 73.3333 70.3942C73.3333 71.2783 73.6845 72.1261 74.3096 72.7513C74.9347 73.3764 75.7826 73.7276 76.6666 73.7276H78.0666C79.2544 73.7286 80.4279 73.4696 81.5048 72.9686C82.5817 72.4676 83.5358 71.7368 84.3 70.8276C85.0593 69.909 85.6153 68.8399 85.9313 67.6908C86.2473 66.5416 86.3161 65.3386 86.1333 64.1609M77.2264 57.3548L77.2246 57.3511C76.8647 56.615 76.812 55.7661 77.078 54.9912C77.3441 54.2162 77.907 53.5787 78.6431 53.2188C79.3792 52.859 80.2281 52.8063 81.003 53.0723C81.7768 53.3379 82.4135 53.8995 82.7737 54.6339L83.3713 55.9618L77.2264 57.3548ZM78.0663 67.3109L78.0666 67.0611V67.3109H78.0663ZM78.0663 67.3109H76.6666C75.8489 67.3109 75.0646 67.6358 74.4864 68.214C73.9082 68.7922 73.5833 69.5765 73.5833 70.3942C73.5833 71.212 73.9082 71.9963 74.4864 72.5745C75.0646 73.1527 75.8489 73.4776 76.6666 73.4776H78.0666H78.0669C79.2181 73.4786 80.3556 73.2275 81.3993 72.7419C82.4428 72.2564 83.3674 71.5484 84.108 70.6675M84.108 70.6675C84.1078 70.6677 84.1075 70.668 84.1073 70.6683L84.3 70.8276L84.1086 70.6667C84.1084 70.667 84.1082 70.6672 84.108 70.6675ZM84.108 70.6675C84.8444 69.7763 85.3837 68.7392 85.6902 67.6245C85.9966 66.5103 86.0636 65.344 85.8867 64.2021M85.8867 64.2021C85.8869 64.203 85.8871 64.204 85.8872 64.2049L86.1333 64.1609M85.8867 64.2021C85.8866 64.2012 85.8864 64.2002 85.8863 64.1993L86.1333 64.1609M85.8867 64.2021C85.3791 61.3653 84.5348 58.5993 83.3716 55.9626L83.372 55.9635L83.6 55.8609C84.7718 58.5169 85.6222 61.3033 86.1333 64.1609" fill="#3C7CFF" stroke="white" stroke-width="0.5"/>
<path d="M29.1446 48.6176L29.3292 48.445C34.0904 43.9944 40.1616 41.2004 46.639 40.4792L46.9166 40.4483V40.7276V43.861C46.9166 44.6787 47.2415 45.463 47.8197 46.0412C48.398 46.6195 49.1822 46.9443 50 46.9443C50.8177 46.9443 51.602 46.6195 52.1802 46.0412C52.7584 45.463 53.0833 44.6787 53.0833 43.861V40.7943V40.5198L53.3566 40.5454C55.2934 40.7266 57.2076 41.0982 59.0715 41.6548L59.0749 41.6558C59.8559 41.9011 60.7024 41.8262 61.4281 41.4474C62.1539 41.0686 62.6994 40.4171 62.9448 39.636C63.1901 38.855 63.1152 38.0085 62.7364 37.2828C62.3577 36.5572 61.7063 36.0117 60.9256 35.7663C57.3881 34.6665 53.7046 34.1084 50.0001 34.111L50 34.111C41.4447 34.1119 33.1628 37.1248 26.6068 42.6214C20.0509 48.118 15.6394 55.7473 14.1461 64.1713C13.9404 65.337 13.99 66.5335 14.2915 67.6782C14.5929 68.8225 15.1389 69.8878 15.8918 70.8006C16.6354 71.6782 17.5606 72.3839 18.6035 72.8691C19.6467 73.3544 20.7828 73.6075 21.9333 73.611M29.1446 48.6176L21.9333 73.611M29.1446 48.6176L29.3192 48.8004L32.1859 51.8004L32.1858 51.8004L32.1906 51.8051C32.4796 52.0918 32.709 52.4328 32.8655 52.8085C33.022 53.1843 33.1026 53.5873 33.1026 53.9943C33.1026 54.4013 33.022 54.8043 32.8655 55.1801C32.709 55.5558 32.4796 55.8968 32.1906 56.1835L32.1891 56.1849C31.9025 56.4739 31.5615 56.7033 31.1857 56.8598C30.81 57.0164 30.407 57.097 30 57.097C29.5929 57.097 29.1899 57.0164 28.8142 56.8598C28.4384 56.7033 28.0974 56.4739 27.8108 56.1849L27.8101 56.1842L25.3101 53.6842L25.0967 53.4708L24.9267 53.7201C22.5628 57.1875 20.9591 61.1158 20.2211 65.2469L29.1446 48.6176ZM21.9333 73.611C21.9335 73.611 21.9338 73.611 21.934 73.611M21.9333 73.611L21.934 73.611M21.934 73.611L23.3333 73.611C24.151 73.611 24.9353 73.2861 25.5135 72.7079C26.0918 72.1297 26.4166 71.3454 26.4166 70.5276C26.4166 69.7099 26.0918 68.9256 25.5135 68.3474C24.9353 67.7692 24.151 67.4443 23.3333 67.4443H21.9336L21.934 73.611Z" fill="#3C7CFF" stroke="white" stroke-width="0.5"/>
<path d="M75.5232 46.0507L58.9298 62.6441H58.6011L58.775 63.0031C59.4081 64.3102 59.7413 65.7423 59.75 67.1946C59.7499 69.1228 59.1781 71.0077 58.1068 72.6109C57.0355 74.2143 55.5127 75.464 53.7312 76.2019C51.9496 76.9399 49.9892 77.133 48.0979 76.7568C46.2066 76.3806 44.4693 75.452 43.1057 74.0884C41.7422 72.7248 40.8136 70.9875 40.4373 69.0962C40.0611 67.2049 40.2542 65.2445 40.9922 63.4629C41.7301 61.6814 42.9798 60.1586 44.5832 59.0873C46.1866 58.0159 48.0716 57.4441 50 57.4441H50.0003C51.4505 57.4426 52.8828 57.7645 54.1928 58.3866L54.3521 58.4622L54.4768 58.3375L71.1435 41.6709C71.431 41.3833 71.7724 41.1552 72.1482 40.9995C72.5239 40.8439 72.9266 40.7638 73.3333 40.7638C73.74 40.7638 74.1428 40.8439 74.5185 40.9995C74.8942 41.1552 75.2356 41.3833 75.5232 41.6709C75.8108 41.9585 76.0389 42.2999 76.1946 42.6756C76.3502 43.0513 76.4303 43.4541 76.4303 43.8608C76.4303 44.2675 76.3502 44.6702 76.1946 45.0459C76.0389 45.4217 75.8108 45.7631 75.5232 46.0507ZM48.0092 70.1735C48.5985 70.5673 49.2913 70.7774 50 70.7774C50.9504 70.7774 51.8618 70.3999 52.5338 69.7279C53.2058 69.0559 53.5833 68.1445 53.5833 67.1941C53.5833 66.4854 53.3732 65.7926 52.9794 65.2033C52.5857 64.614 52.0261 64.1547 51.3713 63.8835C50.7165 63.6123 49.996 63.5414 49.3009 63.6796C48.6058 63.8179 47.9673 64.1592 47.4662 64.6603C46.9651 65.1614 46.6238 65.7999 46.4855 66.495C46.3473 67.1901 46.4182 67.9106 46.6894 68.5654C46.9607 69.2201 47.4199 69.7798 48.0092 70.1735Z" fill="#3C7CFF" stroke="white" stroke-width="0.5"/>
</svg>
