<svg width="102" height="100" viewBox="0 0 102 100" fill="none" xmlns="http://www.w3.org/2000/svg">
<mask id="path-1-outside-1_179_872" maskUnits="userSpaceOnUse" x="0" y="1" width="102" height="99" fill="black">
<rect fill="white" y="1" width="102" height="99"/>
<path fill-rule="evenodd" clip-rule="evenodd" d="M30.8836 35.7997C30.8836 35.166 31.3958 34.6539 32.0294 34.6539C32.6631 34.6539 33.1752 35.166 33.1752 35.7997V36.3509C33.9 36.5462 34.5511 36.9195 35.0718 37.4186C35.8661 38.1781 36.3565 39.2328 36.3565 40.4004C36.3565 41.0341 35.8444 41.5462 35.2107 41.5462C34.5771 41.5462 34.065 41.034 34.065 40.4004C34.065 39.8795 33.8436 39.4108 33.4877 39.0679C33.1188 38.7164 32.6023 38.495 32.0294 38.495C31.4521 38.495 30.9399 38.712 30.571 39.0679C30.2151 39.4108 29.9938 39.8839 29.9938 40.4004C29.9938 40.9212 30.2151 41.39 30.571 41.7328C30.9399 42.0844 31.4564 42.3057 32.0294 42.3057C33.2099 42.3057 34.2863 42.7702 35.0719 43.5211C35.8662 44.2806 36.3566 45.3353 36.3566 46.5029C36.3566 47.6704 35.8661 48.7208 35.0719 49.4847C34.5511 49.9838 33.9 50.3571 33.1753 50.5524V51.1036C33.1753 51.7373 32.6631 52.2494 32.0295 52.2494C31.3958 52.2494 30.8837 51.7372 30.8837 51.1036V50.5524C30.1589 50.3571 29.5078 49.9838 28.987 49.4847C28.1927 48.7251 27.7023 47.6704 27.7023 46.5029C27.7023 45.8692 28.2145 45.3571 28.8481 45.3571C29.4817 45.3571 29.9939 45.8692 29.9939 46.5029C29.9939 47.0237 30.2153 47.4925 30.5712 47.8353C30.9401 48.1869 31.4566 48.4082 32.0295 48.4082C32.6068 48.4082 33.1189 48.1912 33.4878 47.8353C33.8437 47.4924 34.0651 47.0193 34.0651 46.5029C34.0651 45.982 33.8437 45.5133 33.4878 45.1704C33.1189 44.8189 32.6024 44.5975 32.0295 44.5975C30.8489 44.5975 29.7726 44.1331 28.9869 43.3822C28.1927 42.6226 27.7023 41.5679 27.7023 40.4004C27.7023 39.2328 28.1927 38.1825 28.9869 37.4186C29.5078 36.9195 30.1588 36.5462 30.8836 36.3509V35.7997ZM32.0294 30.7823C28.5312 30.7823 25.3627 32.2015 23.071 34.4932C20.7794 36.7849 19.3601 39.9533 19.3601 43.4516C19.3601 46.9498 20.7794 50.1183 23.071 52.4099C25.3627 54.7016 28.5312 56.1209 32.0294 56.1209C35.5276 56.1209 38.6961 54.7016 40.9878 52.4099C43.2794 50.1183 44.6987 46.9498 44.6987 43.4516C44.6987 39.9533 43.2794 36.7849 40.9878 34.4932C38.6961 32.2015 35.5276 30.7823 32.0294 30.7823ZM44.0128 52.4102C45.8834 49.9145 46.9902 46.8112 46.9902 43.4518C46.9902 40.0925 45.8835 36.9934 44.0128 34.4934V5.01888C44.0128 4.81922 44.0952 4.63693 44.2298 4.50239C44.3643 4.37218 44.5423 4.28538 44.7463 4.28538H81.912C82.1116 4.28538 82.2939 4.36784 82.4285 4.50239C82.5587 4.63693 82.6455 4.81489 82.6455 5.01888V56.5769C82.6455 56.7765 82.563 56.9588 82.4285 57.0933C82.2939 57.2236 82.1116 57.3104 81.912 57.3104H44.7463C44.5466 57.3104 44.3643 57.2279 44.2298 57.0933C44.0996 56.9588 44.0128 56.7808 44.0128 56.5769V52.4058V52.4102ZM75.5018 11.7545H51.075V19.9489H75.5018V11.7545ZM49.9283 9.46712C49.2947 9.46712 48.7826 9.97928 48.7826 10.6129V21.0991C48.7826 21.7327 49.2947 22.2448 49.9283 22.2448H76.6473C77.281 22.2448 77.7931 21.7327 77.7931 21.0991V10.6129C77.7931 9.97922 77.281 9.46712 76.6473 9.46712H49.9283ZM54.0777 28.4561H51.0786V31.4552H54.0777V28.4561ZM49.9283 26.1644C49.2947 26.1644 48.7826 26.6766 48.7826 27.3102V32.601C48.7826 33.2347 49.2947 33.7468 49.9283 33.7468H55.2192C55.8528 33.7468 56.3649 33.2346 56.3649 32.601V27.3102C56.3649 26.6765 55.8528 26.1644 55.2192 26.1644H49.9283ZM54.0777 38.1311H51.0786V41.1302H54.0777V38.1311ZM49.9283 35.8394C49.2947 35.8394 48.7826 36.3516 48.7826 36.9852V42.276C48.7826 42.9097 49.2947 43.4218 49.9283 43.4218H55.2192C55.8528 43.4218 56.3649 42.9096 56.3649 42.276V36.9852C56.3649 36.3515 55.8528 35.8394 55.2192 35.8394H49.9283ZM54.0777 47.8062H51.0786V50.8053H54.0777V47.8062ZM49.9283 45.5145C49.2947 45.5145 48.7826 46.0266 48.7826 46.6603V51.9511C48.7826 52.5847 49.2947 53.0968 49.9283 53.0968H55.2192C55.8528 53.0968 56.3649 52.5847 56.3649 51.9511V46.6603C56.3649 46.0266 55.8528 45.5145 55.2192 45.5145H49.9283ZM64.824 28.4566H61.8248V31.4558H64.824V28.4566ZM60.6789 26.165C60.0453 26.165 59.5332 26.6771 59.5332 27.3107V32.6015C59.5332 33.2352 60.0453 33.7473 60.6789 33.7473H65.9697C66.6034 33.7473 67.1155 33.2352 67.1155 32.6015V27.3107C67.1155 26.6771 66.6034 26.165 65.9697 26.165H60.6789ZM64.824 38.1317H61.8248V41.1308H64.824V38.1317ZM60.6789 35.84C60.0453 35.84 59.5332 36.3522 59.5332 36.9858V42.2766C59.5332 42.9103 60.0453 43.4224 60.6789 43.4224H65.9697C66.6034 43.4224 67.1155 42.9102 67.1155 42.2766V36.9858C67.1155 36.3521 66.6034 35.84 65.9697 35.84H60.6789ZM64.824 47.8067H61.8248V50.8058H64.824V47.8067ZM60.6789 45.515C60.0453 45.515 59.5332 46.0272 59.5332 46.6608V51.9516C59.5332 52.5853 60.0453 53.0974 60.6789 53.0974H65.9697C66.6034 53.0974 67.1155 52.5852 67.1155 51.9516V46.6608C67.1155 46.0271 66.6034 45.515 65.9697 45.515H60.6789ZM75.5746 28.4572H72.5754V31.4563H75.5746V28.4572ZM71.4295 26.1655C70.7959 26.1655 70.2838 26.6777 70.2838 27.3113V32.6021C70.2838 33.2358 70.7959 33.7479 71.4295 33.7479H76.7203C77.354 33.7479 77.8661 33.2357 77.8661 32.6021V27.3113C77.8661 26.6776 77.354 26.1655 76.7203 26.1655H71.4295ZM75.5746 38.1322H72.5754V50.8056H75.5746V38.1322ZM71.4295 35.8406C70.7959 35.8406 70.2838 36.3527 70.2838 36.9863V51.9519C70.2838 52.5856 70.7959 53.0977 71.4295 53.0977H76.7203C77.354 53.0977 77.8661 52.5856 77.8661 51.9519V36.9863C77.8661 36.3527 77.354 35.8406 76.7203 35.8406H71.4295ZM78.9642 92.3863H23.4429V96.54H78.9687V92.3863H78.9642ZM64.7153 90.099C63.8429 89.5348 63.0356 88.8837 62.3021 88.1502C59.9409 85.7891 58.3872 82.6163 58.1094 79.0964H44.2938C44.016 82.6121 42.4622 85.7891 40.1011 88.1502C39.3719 88.8794 38.5603 89.5348 37.6879 90.099H64.7153ZM60.4097 79.0964H95.4965C97.0113 79.0964 98.3872 78.4757 99.3811 77.4818C100.379 76.4836 100.996 75.1077 100.996 73.5973L101 12.0781C101 10.5633 100.379 9.18745 99.3854 8.19356C98.3872 7.19529 97.0113 6.579 95.5009 6.579H84.9323V5.02088C84.9323 4.19189 84.5937 3.43232 84.0469 2.88543C83.5 2.33855 82.7447 2 81.9114 2H44.7457C43.9167 2 43.1571 2.33855 42.6103 2.88543C42.0634 3.43231 41.7248 4.18754 41.7248 5.02088V6.579H6.49913C4.98435 6.579 3.60845 7.19965 2.61456 8.19356C1.61629 9.19183 1 10.5677 1 12.0781V73.5973C1 75.112 1.62066 76.4879 2.61456 77.4818C3.61283 78.4801 4.98868 79.0964 6.49913 79.0964H41.9937C41.7246 81.9827 40.4313 84.5825 38.4824 86.5313C36.2818 88.7319 33.248 90.099 29.9103 90.099H22.6924C22.2671 90.099 21.8808 90.2726 21.5987 90.5504C21.3209 90.8282 21.1473 91.2144 21.1473 91.6441V97.2908C21.1473 97.7118 21.3209 98.0981 21.603 98.3802L21.5987 98.3846C21.8808 98.6667 22.2627 98.836 22.6924 98.836H79.706C80.1313 98.836 80.5176 98.6624 80.7997 98.3846L80.7954 98.3802C81.0775 98.0981 81.2511 97.7118 81.2511 97.2908V91.6441C81.2511 91.2188 81.0775 90.8325 80.7997 90.5504C80.5176 90.2682 80.1357 90.099 79.706 90.099H72.4881C69.1504 90.099 66.1165 88.7318 63.916 86.5313C61.9672 84.5825 60.6738 81.9826 60.4047 79.0964H60.4097ZM98.7088 71.3402V73.5971C98.7088 74.4782 98.3485 75.2811 97.7626 75.8628C97.181 76.4444 96.378 76.8047 95.4969 76.8047H6.49878C5.6177 76.8047 4.81477 76.4444 4.23311 75.8628C3.6515 75.2812 3.28692 74.4783 3.28692 73.5971V71.3402H98.7088ZM3.29172 69.0486H98.7132L98.7089 12.0784C98.7089 11.1973 98.3486 10.3943 97.7627 9.81267C97.1811 9.23107 96.3781 8.87083 95.497 8.87083H84.9284V56.5832C84.9284 57.4122 84.5899 58.1718 84.043 58.7187C83.4961 59.2656 82.7409 59.6041 81.9075 59.6041H44.7418C43.9128 59.6041 43.1533 59.2656 42.6064 58.7187C42.0595 58.1718 41.721 57.4166 41.721 56.5832V54.8514C39.1081 57.0737 35.7271 58.4148 32.029 58.4148C27.897 58.4148 24.1601 56.7395 21.4518 54.0354C18.7434 51.3271 17.0724 47.5901 17.0724 43.4582C17.0724 39.3263 18.7478 35.5893 21.4518 32.8809C24.1601 30.1726 27.8971 28.5016 32.029 28.5016C35.7269 28.5016 39.1081 29.8427 41.721 32.0649V8.86594H6.49972C5.61864 8.86594 4.81571 9.22618 4.23404 9.80779C3.65244 10.3894 3.28786 11.1923 3.28786 12.0735V69.0437L3.29172 69.0486Z"/>
</mask>
<path fill-rule="evenodd" clip-rule="evenodd" d="M30.8836 35.7997C30.8836 35.166 31.3958 34.6539 32.0294 34.6539C32.6631 34.6539 33.1752 35.166 33.1752 35.7997V36.3509C33.9 36.5462 34.5511 36.9195 35.0718 37.4186C35.8661 38.1781 36.3565 39.2328 36.3565 40.4004C36.3565 41.0341 35.8444 41.5462 35.2107 41.5462C34.5771 41.5462 34.065 41.034 34.065 40.4004C34.065 39.8795 33.8436 39.4108 33.4877 39.0679C33.1188 38.7164 32.6023 38.495 32.0294 38.495C31.4521 38.495 30.9399 38.712 30.571 39.0679C30.2151 39.4108 29.9938 39.8839 29.9938 40.4004C29.9938 40.9212 30.2151 41.39 30.571 41.7328C30.9399 42.0844 31.4564 42.3057 32.0294 42.3057C33.2099 42.3057 34.2863 42.7702 35.0719 43.5211C35.8662 44.2806 36.3566 45.3353 36.3566 46.5029C36.3566 47.6704 35.8661 48.7208 35.0719 49.4847C34.5511 49.9838 33.9 50.3571 33.1753 50.5524V51.1036C33.1753 51.7373 32.6631 52.2494 32.0295 52.2494C31.3958 52.2494 30.8837 51.7372 30.8837 51.1036V50.5524C30.1589 50.3571 29.5078 49.9838 28.987 49.4847C28.1927 48.7251 27.7023 47.6704 27.7023 46.5029C27.7023 45.8692 28.2145 45.3571 28.8481 45.3571C29.4817 45.3571 29.9939 45.8692 29.9939 46.5029C29.9939 47.0237 30.2153 47.4925 30.5712 47.8353C30.9401 48.1869 31.4566 48.4082 32.0295 48.4082C32.6068 48.4082 33.1189 48.1912 33.4878 47.8353C33.8437 47.4924 34.0651 47.0193 34.0651 46.5029C34.0651 45.982 33.8437 45.5133 33.4878 45.1704C33.1189 44.8189 32.6024 44.5975 32.0295 44.5975C30.8489 44.5975 29.7726 44.1331 28.9869 43.3822C28.1927 42.6226 27.7023 41.5679 27.7023 40.4004C27.7023 39.2328 28.1927 38.1825 28.9869 37.4186C29.5078 36.9195 30.1588 36.5462 30.8836 36.3509V35.7997ZM32.0294 30.7823C28.5312 30.7823 25.3627 32.2015 23.071 34.4932C20.7794 36.7849 19.3601 39.9533 19.3601 43.4516C19.3601 46.9498 20.7794 50.1183 23.071 52.4099C25.3627 54.7016 28.5312 56.1209 32.0294 56.1209C35.5276 56.1209 38.6961 54.7016 40.9878 52.4099C43.2794 50.1183 44.6987 46.9498 44.6987 43.4516C44.6987 39.9533 43.2794 36.7849 40.9878 34.4932C38.6961 32.2015 35.5276 30.7823 32.0294 30.7823ZM44.0128 52.4102C45.8834 49.9145 46.9902 46.8112 46.9902 43.4518C46.9902 40.0925 45.8835 36.9934 44.0128 34.4934V5.01888C44.0128 4.81922 44.0952 4.63693 44.2298 4.50239C44.3643 4.37218 44.5423 4.28538 44.7463 4.28538H81.912C82.1116 4.28538 82.2939 4.36784 82.4285 4.50239C82.5587 4.63693 82.6455 4.81489 82.6455 5.01888V56.5769C82.6455 56.7765 82.563 56.9588 82.4285 57.0933C82.2939 57.2236 82.1116 57.3104 81.912 57.3104H44.7463C44.5466 57.3104 44.3643 57.2279 44.2298 57.0933C44.0996 56.9588 44.0128 56.7808 44.0128 56.5769V52.4058V52.4102ZM75.5018 11.7545H51.075V19.9489H75.5018V11.7545ZM49.9283 9.46712C49.2947 9.46712 48.7826 9.97928 48.7826 10.6129V21.0991C48.7826 21.7327 49.2947 22.2448 49.9283 22.2448H76.6473C77.281 22.2448 77.7931 21.7327 77.7931 21.0991V10.6129C77.7931 9.97922 77.281 9.46712 76.6473 9.46712H49.9283ZM54.0777 28.4561H51.0786V31.4552H54.0777V28.4561ZM49.9283 26.1644C49.2947 26.1644 48.7826 26.6766 48.7826 27.3102V32.601C48.7826 33.2347 49.2947 33.7468 49.9283 33.7468H55.2192C55.8528 33.7468 56.3649 33.2346 56.3649 32.601V27.3102C56.3649 26.6765 55.8528 26.1644 55.2192 26.1644H49.9283ZM54.0777 38.1311H51.0786V41.1302H54.0777V38.1311ZM49.9283 35.8394C49.2947 35.8394 48.7826 36.3516 48.7826 36.9852V42.276C48.7826 42.9097 49.2947 43.4218 49.9283 43.4218H55.2192C55.8528 43.4218 56.3649 42.9096 56.3649 42.276V36.9852C56.3649 36.3515 55.8528 35.8394 55.2192 35.8394H49.9283ZM54.0777 47.8062H51.0786V50.8053H54.0777V47.8062ZM49.9283 45.5145C49.2947 45.5145 48.7826 46.0266 48.7826 46.6603V51.9511C48.7826 52.5847 49.2947 53.0968 49.9283 53.0968H55.2192C55.8528 53.0968 56.3649 52.5847 56.3649 51.9511V46.6603C56.3649 46.0266 55.8528 45.5145 55.2192 45.5145H49.9283ZM64.824 28.4566H61.8248V31.4558H64.824V28.4566ZM60.6789 26.165C60.0453 26.165 59.5332 26.6771 59.5332 27.3107V32.6015C59.5332 33.2352 60.0453 33.7473 60.6789 33.7473H65.9697C66.6034 33.7473 67.1155 33.2352 67.1155 32.6015V27.3107C67.1155 26.6771 66.6034 26.165 65.9697 26.165H60.6789ZM64.824 38.1317H61.8248V41.1308H64.824V38.1317ZM60.6789 35.84C60.0453 35.84 59.5332 36.3522 59.5332 36.9858V42.2766C59.5332 42.9103 60.0453 43.4224 60.6789 43.4224H65.9697C66.6034 43.4224 67.1155 42.9102 67.1155 42.2766V36.9858C67.1155 36.3521 66.6034 35.84 65.9697 35.84H60.6789ZM64.824 47.8067H61.8248V50.8058H64.824V47.8067ZM60.6789 45.515C60.0453 45.515 59.5332 46.0272 59.5332 46.6608V51.9516C59.5332 52.5853 60.0453 53.0974 60.6789 53.0974H65.9697C66.6034 53.0974 67.1155 52.5852 67.1155 51.9516V46.6608C67.1155 46.0271 66.6034 45.515 65.9697 45.515H60.6789ZM75.5746 28.4572H72.5754V31.4563H75.5746V28.4572ZM71.4295 26.1655C70.7959 26.1655 70.2838 26.6777 70.2838 27.3113V32.6021C70.2838 33.2358 70.7959 33.7479 71.4295 33.7479H76.7203C77.354 33.7479 77.8661 33.2357 77.8661 32.6021V27.3113C77.8661 26.6776 77.354 26.1655 76.7203 26.1655H71.4295ZM75.5746 38.1322H72.5754V50.8056H75.5746V38.1322ZM71.4295 35.8406C70.7959 35.8406 70.2838 36.3527 70.2838 36.9863V51.9519C70.2838 52.5856 70.7959 53.0977 71.4295 53.0977H76.7203C77.354 53.0977 77.8661 52.5856 77.8661 51.9519V36.9863C77.8661 36.3527 77.354 35.8406 76.7203 35.8406H71.4295ZM78.9642 92.3863H23.4429V96.54H78.9687V92.3863H78.9642ZM64.7153 90.099C63.8429 89.5348 63.0356 88.8837 62.3021 88.1502C59.9409 85.7891 58.3872 82.6163 58.1094 79.0964H44.2938C44.016 82.6121 42.4622 85.7891 40.1011 88.1502C39.3719 88.8794 38.5603 89.5348 37.6879 90.099H64.7153ZM60.4097 79.0964H95.4965C97.0113 79.0964 98.3872 78.4757 99.3811 77.4818C100.379 76.4836 100.996 75.1077 100.996 73.5973L101 12.0781C101 10.5633 100.379 9.18745 99.3854 8.19356C98.3872 7.19529 97.0113 6.579 95.5009 6.579H84.9323V5.02088C84.9323 4.19189 84.5937 3.43232 84.0469 2.88543C83.5 2.33855 82.7447 2 81.9114 2H44.7457C43.9167 2 43.1571 2.33855 42.6103 2.88543C42.0634 3.43231 41.7248 4.18754 41.7248 5.02088V6.579H6.49913C4.98435 6.579 3.60845 7.19965 2.61456 8.19356C1.61629 9.19183 1 10.5677 1 12.0781V73.5973C1 75.112 1.62066 76.4879 2.61456 77.4818C3.61283 78.4801 4.98868 79.0964 6.49913 79.0964H41.9937C41.7246 81.9827 40.4313 84.5825 38.4824 86.5313C36.2818 88.7319 33.248 90.099 29.9103 90.099H22.6924C22.2671 90.099 21.8808 90.2726 21.5987 90.5504C21.3209 90.8282 21.1473 91.2144 21.1473 91.6441V97.2908C21.1473 97.7118 21.3209 98.0981 21.603 98.3802L21.5987 98.3846C21.8808 98.6667 22.2627 98.836 22.6924 98.836H79.706C80.1313 98.836 80.5176 98.6624 80.7997 98.3846L80.7954 98.3802C81.0775 98.0981 81.2511 97.7118 81.2511 97.2908V91.6441C81.2511 91.2188 81.0775 90.8325 80.7997 90.5504C80.5176 90.2682 80.1357 90.099 79.706 90.099H72.4881C69.1504 90.099 66.1165 88.7318 63.916 86.5313C61.9672 84.5825 60.6738 81.9826 60.4047 79.0964H60.4097ZM98.7088 71.3402V73.5971C98.7088 74.4782 98.3485 75.2811 97.7626 75.8628C97.181 76.4444 96.378 76.8047 95.4969 76.8047H6.49878C5.6177 76.8047 4.81477 76.4444 4.23311 75.8628C3.6515 75.2812 3.28692 74.4783 3.28692 73.5971V71.3402H98.7088ZM3.29172 69.0486H98.7132L98.7089 12.0784C98.7089 11.1973 98.3486 10.3943 97.7627 9.81267C97.1811 9.23107 96.3781 8.87083 95.497 8.87083H84.9284V56.5832C84.9284 57.4122 84.5899 58.1718 84.043 58.7187C83.4961 59.2656 82.7409 59.6041 81.9075 59.6041H44.7418C43.9128 59.6041 43.1533 59.2656 42.6064 58.7187C42.0595 58.1718 41.721 57.4166 41.721 56.5832V54.8514C39.1081 57.0737 35.7271 58.4148 32.029 58.4148C27.897 58.4148 24.1601 56.7395 21.4518 54.0354C18.7434 51.3271 17.0724 47.5901 17.0724 43.4582C17.0724 39.3263 18.7478 35.5893 21.4518 32.8809C24.1601 30.1726 27.8971 28.5016 32.029 28.5016C35.7269 28.5016 39.1081 29.8427 41.721 32.0649V8.86594H6.49972C5.61864 8.86594 4.81571 9.22618 4.23404 9.80779C3.65244 10.3894 3.28786 11.1923 3.28786 12.0735V69.0437L3.29172 69.0486Z" fill="#3C7CFF"/>
<path fill-rule="evenodd" clip-rule="evenodd" d="M30.8836 35.7997C30.8836 35.166 31.3958 34.6539 32.0294 34.6539C32.6631 34.6539 33.1752 35.166 33.1752 35.7997V36.3509C33.9 36.5462 34.5511 36.9195 35.0718 37.4186C35.8661 38.1781 36.3565 39.2328 36.3565 40.4004C36.3565 41.0341 35.8444 41.5462 35.2107 41.5462C34.5771 41.5462 34.065 41.034 34.065 40.4004C34.065 39.8795 33.8436 39.4108 33.4877 39.0679C33.1188 38.7164 32.6023 38.495 32.0294 38.495C31.4521 38.495 30.9399 38.712 30.571 39.0679C30.2151 39.4108 29.9938 39.8839 29.9938 40.4004C29.9938 40.9212 30.2151 41.39 30.571 41.7328C30.9399 42.0844 31.4564 42.3057 32.0294 42.3057C33.2099 42.3057 34.2863 42.7702 35.0719 43.5211C35.8662 44.2806 36.3566 45.3353 36.3566 46.5029C36.3566 47.6704 35.8661 48.7208 35.0719 49.4847C34.5511 49.9838 33.9 50.3571 33.1753 50.5524V51.1036C33.1753 51.7373 32.6631 52.2494 32.0295 52.2494C31.3958 52.2494 30.8837 51.7372 30.8837 51.1036V50.5524C30.1589 50.3571 29.5078 49.9838 28.987 49.4847C28.1927 48.7251 27.7023 47.6704 27.7023 46.5029C27.7023 45.8692 28.2145 45.3571 28.8481 45.3571C29.4817 45.3571 29.9939 45.8692 29.9939 46.5029C29.9939 47.0237 30.2153 47.4925 30.5712 47.8353C30.9401 48.1869 31.4566 48.4082 32.0295 48.4082C32.6068 48.4082 33.1189 48.1912 33.4878 47.8353C33.8437 47.4924 34.0651 47.0193 34.0651 46.5029C34.0651 45.982 33.8437 45.5133 33.4878 45.1704C33.1189 44.8189 32.6024 44.5975 32.0295 44.5975C30.8489 44.5975 29.7726 44.1331 28.9869 43.3822C28.1927 42.6226 27.7023 41.5679 27.7023 40.4004C27.7023 39.2328 28.1927 38.1825 28.9869 37.4186C29.5078 36.9195 30.1588 36.5462 30.8836 36.3509V35.7997ZM32.0294 30.7823C28.5312 30.7823 25.3627 32.2015 23.071 34.4932C20.7794 36.7849 19.3601 39.9533 19.3601 43.4516C19.3601 46.9498 20.7794 50.1183 23.071 52.4099C25.3627 54.7016 28.5312 56.1209 32.0294 56.1209C35.5276 56.1209 38.6961 54.7016 40.9878 52.4099C43.2794 50.1183 44.6987 46.9498 44.6987 43.4516C44.6987 39.9533 43.2794 36.7849 40.9878 34.4932C38.6961 32.2015 35.5276 30.7823 32.0294 30.7823ZM44.0128 52.4102C45.8834 49.9145 46.9902 46.8112 46.9902 43.4518C46.9902 40.0925 45.8835 36.9934 44.0128 34.4934V5.01888C44.0128 4.81922 44.0952 4.63693 44.2298 4.50239C44.3643 4.37218 44.5423 4.28538 44.7463 4.28538H81.912C82.1116 4.28538 82.2939 4.36784 82.4285 4.50239C82.5587 4.63693 82.6455 4.81489 82.6455 5.01888V56.5769C82.6455 56.7765 82.563 56.9588 82.4285 57.0933C82.2939 57.2236 82.1116 57.3104 81.912 57.3104H44.7463C44.5466 57.3104 44.3643 57.2279 44.2298 57.0933C44.0996 56.9588 44.0128 56.7808 44.0128 56.5769V52.4058V52.4102ZM75.5018 11.7545H51.075V19.9489H75.5018V11.7545ZM49.9283 9.46712C49.2947 9.46712 48.7826 9.97928 48.7826 10.6129V21.0991C48.7826 21.7327 49.2947 22.2448 49.9283 22.2448H76.6473C77.281 22.2448 77.7931 21.7327 77.7931 21.0991V10.6129C77.7931 9.97922 77.281 9.46712 76.6473 9.46712H49.9283ZM54.0777 28.4561H51.0786V31.4552H54.0777V28.4561ZM49.9283 26.1644C49.2947 26.1644 48.7826 26.6766 48.7826 27.3102V32.601C48.7826 33.2347 49.2947 33.7468 49.9283 33.7468H55.2192C55.8528 33.7468 56.3649 33.2346 56.3649 32.601V27.3102C56.3649 26.6765 55.8528 26.1644 55.2192 26.1644H49.9283ZM54.0777 38.1311H51.0786V41.1302H54.0777V38.1311ZM49.9283 35.8394C49.2947 35.8394 48.7826 36.3516 48.7826 36.9852V42.276C48.7826 42.9097 49.2947 43.4218 49.9283 43.4218H55.2192C55.8528 43.4218 56.3649 42.9096 56.3649 42.276V36.9852C56.3649 36.3515 55.8528 35.8394 55.2192 35.8394H49.9283ZM54.0777 47.8062H51.0786V50.8053H54.0777V47.8062ZM49.9283 45.5145C49.2947 45.5145 48.7826 46.0266 48.7826 46.6603V51.9511C48.7826 52.5847 49.2947 53.0968 49.9283 53.0968H55.2192C55.8528 53.0968 56.3649 52.5847 56.3649 51.9511V46.6603C56.3649 46.0266 55.8528 45.5145 55.2192 45.5145H49.9283ZM64.824 28.4566H61.8248V31.4558H64.824V28.4566ZM60.6789 26.165C60.0453 26.165 59.5332 26.6771 59.5332 27.3107V32.6015C59.5332 33.2352 60.0453 33.7473 60.6789 33.7473H65.9697C66.6034 33.7473 67.1155 33.2352 67.1155 32.6015V27.3107C67.1155 26.6771 66.6034 26.165 65.9697 26.165H60.6789ZM64.824 38.1317H61.8248V41.1308H64.824V38.1317ZM60.6789 35.84C60.0453 35.84 59.5332 36.3522 59.5332 36.9858V42.2766C59.5332 42.9103 60.0453 43.4224 60.6789 43.4224H65.9697C66.6034 43.4224 67.1155 42.9102 67.1155 42.2766V36.9858C67.1155 36.3521 66.6034 35.84 65.9697 35.84H60.6789ZM64.824 47.8067H61.8248V50.8058H64.824V47.8067ZM60.6789 45.515C60.0453 45.515 59.5332 46.0272 59.5332 46.6608V51.9516C59.5332 52.5853 60.0453 53.0974 60.6789 53.0974H65.9697C66.6034 53.0974 67.1155 52.5852 67.1155 51.9516V46.6608C67.1155 46.0271 66.6034 45.515 65.9697 45.515H60.6789ZM75.5746 28.4572H72.5754V31.4563H75.5746V28.4572ZM71.4295 26.1655C70.7959 26.1655 70.2838 26.6777 70.2838 27.3113V32.6021C70.2838 33.2358 70.7959 33.7479 71.4295 33.7479H76.7203C77.354 33.7479 77.8661 33.2357 77.8661 32.6021V27.3113C77.8661 26.6776 77.354 26.1655 76.7203 26.1655H71.4295ZM75.5746 38.1322H72.5754V50.8056H75.5746V38.1322ZM71.4295 35.8406C70.7959 35.8406 70.2838 36.3527 70.2838 36.9863V51.9519C70.2838 52.5856 70.7959 53.0977 71.4295 53.0977H76.7203C77.354 53.0977 77.8661 52.5856 77.8661 51.9519V36.9863C77.8661 36.3527 77.354 35.8406 76.7203 35.8406H71.4295ZM78.9642 92.3863H23.4429V96.54H78.9687V92.3863H78.9642ZM64.7153 90.099C63.8429 89.5348 63.0356 88.8837 62.3021 88.1502C59.9409 85.7891 58.3872 82.6163 58.1094 79.0964H44.2938C44.016 82.6121 42.4622 85.7891 40.1011 88.1502C39.3719 88.8794 38.5603 89.5348 37.6879 90.099H64.7153ZM60.4097 79.0964H95.4965C97.0113 79.0964 98.3872 78.4757 99.3811 77.4818C100.379 76.4836 100.996 75.1077 100.996 73.5973L101 12.0781C101 10.5633 100.379 9.18745 99.3854 8.19356C98.3872 7.19529 97.0113 6.579 95.5009 6.579H84.9323V5.02088C84.9323 4.19189 84.5937 3.43232 84.0469 2.88543C83.5 2.33855 82.7447 2 81.9114 2H44.7457C43.9167 2 43.1571 2.33855 42.6103 2.88543C42.0634 3.43231 41.7248 4.18754 41.7248 5.02088V6.579H6.49913C4.98435 6.579 3.60845 7.19965 2.61456 8.19356C1.61629 9.19183 1 10.5677 1 12.0781V73.5973C1 75.112 1.62066 76.4879 2.61456 77.4818C3.61283 78.4801 4.98868 79.0964 6.49913 79.0964H41.9937C41.7246 81.9827 40.4313 84.5825 38.4824 86.5313C36.2818 88.7319 33.248 90.099 29.9103 90.099H22.6924C22.2671 90.099 21.8808 90.2726 21.5987 90.5504C21.3209 90.8282 21.1473 91.2144 21.1473 91.6441V97.2908C21.1473 97.7118 21.3209 98.0981 21.603 98.3802L21.5987 98.3846C21.8808 98.6667 22.2627 98.836 22.6924 98.836H79.706C80.1313 98.836 80.5176 98.6624 80.7997 98.3846L80.7954 98.3802C81.0775 98.0981 81.2511 97.7118 81.2511 97.2908V91.6441C81.2511 91.2188 81.0775 90.8325 80.7997 90.5504C80.5176 90.2682 80.1357 90.099 79.706 90.099H72.4881C69.1504 90.099 66.1165 88.7318 63.916 86.5313C61.9672 84.5825 60.6738 81.9826 60.4047 79.0964H60.4097ZM98.7088 71.3402V73.5971C98.7088 74.4782 98.3485 75.2811 97.7626 75.8628C97.181 76.4444 96.378 76.8047 95.4969 76.8047H6.49878C5.6177 76.8047 4.81477 76.4444 4.23311 75.8628C3.6515 75.2812 3.28692 74.4783 3.28692 73.5971V71.3402H98.7088ZM3.29172 69.0486H98.7132L98.7089 12.0784C98.7089 11.1973 98.3486 10.3943 97.7627 9.81267C97.1811 9.23107 96.3781 8.87083 95.497 8.87083H84.9284V56.5832C84.9284 57.4122 84.5899 58.1718 84.043 58.7187C83.4961 59.2656 82.7409 59.6041 81.9075 59.6041H44.7418C43.9128 59.6041 43.1533 59.2656 42.6064 58.7187C42.0595 58.1718 41.721 57.4166 41.721 56.5832V54.8514C39.1081 57.0737 35.7271 58.4148 32.029 58.4148C27.897 58.4148 24.1601 56.7395 21.4518 54.0354C18.7434 51.3271 17.0724 47.5901 17.0724 43.4582C17.0724 39.3263 18.7478 35.5893 21.4518 32.8809C24.1601 30.1726 27.8971 28.5016 32.029 28.5016C35.7269 28.5016 39.1081 29.8427 41.721 32.0649V8.86594H6.49972C5.61864 8.86594 4.81571 9.22618 4.23404 9.80779C3.65244 10.3894 3.28786 11.1923 3.28786 12.0735V69.0437L3.29172 69.0486Z" stroke="#3C7CFF" mask="url(#path-1-outside-1_179_872)"/>
</svg>
