<svg width="100" height="69" viewBox="0 0 100 69" fill="none" xmlns="http://www.w3.org/2000/svg">
<path d="M97.673 0.243408H2.32858C1.04165 0.243408 0 1.28506 0 2.57199V59.47C0 60.7569 1.04165 61.7986 2.32858 61.7986H30.4997V63.8058H22.5763C21.2894 63.8058 20.2478 64.8475 20.2478 66.1344C20.2478 67.4213 21.2894 68.463 22.5763 68.463H77.4252C78.7106 68.463 79.7538 67.4213 79.7538 66.1344C79.7538 64.8475 78.7106 63.8058 77.4252 63.8058H67.4496V61.7986H97.6714C98.9583 61.7986 100 60.7569 100 59.47V2.57199C100.002 1.28506 98.9599 0.243408 97.673 0.243408ZM95.3444 4.90056V47.4033H4.65716V4.90056H95.3444ZM62.794 63.8058H35.1569V61.7986H62.794V63.8058ZM4.65716 57.1414V52.0605H95.3444V57.1414H4.65716Z" fill="#3C7CFF"/>
<path d="M75.69 8.24341H24.31C19.7203 8.24341 16 10.9504 16 14.2899V39.1969C16 40.802 16.8756 42.3392 18.4335 43.4727C19.9914 44.6063 22.104 45.2434 24.31 45.2434H75.69C77.896 45.2434 80.0086 44.6063 81.5665 43.4727C83.1244 42.3392 84 40.802 84 39.1969V14.2899C84 12.6848 83.1244 11.1476 81.5665 10.0141C80.0086 8.8805 77.896 8.24341 75.69 8.24341ZM80.6754 39.1969C80.6754 41.201 78.4444 42.8243 75.69 42.8243H24.31C21.5556 42.8243 19.3246 41.201 19.3246 39.1969V14.2899C19.3246 12.2858 21.5556 10.6625 24.31 10.6625H75.69C78.4444 10.6625 80.6754 12.2858 80.6754 14.2899V39.1969ZM33.6975 14.4942C33.6975 14.8162 33.5231 15.1222 33.2115 15.349C32.8999 15.5757 32.4761 15.7049 32.0368 15.7049H26.9331V19.4162C26.9331 20.085 26.1915 20.6246 25.2723 20.6246C24.3532 20.6246 23.6116 20.085 23.6116 19.4162V14.4942C23.6116 13.8277 24.3532 13.2858 25.2723 13.2858H32.0368C32.4762 13.2858 32.8999 13.4128 33.2116 13.6395C33.5232 13.8662 33.6975 14.1745 33.6975 14.4942ZM33.6975 38.9931C33.6975 39.3128 33.5231 39.6211 33.2115 39.8479C32.8999 40.0746 32.4761 40.2015 32.0368 40.2015H25.2723C24.3531 40.2015 23.6115 39.6597 23.6115 38.9932V34.0711C23.6115 33.4024 24.3531 32.8628 25.2723 32.8628C26.1914 32.8628 26.933 33.4024 26.933 34.0711V37.7825H32.0367C32.476 37.7825 32.8998 37.9117 33.2114 38.1384C33.523 38.3651 33.6975 38.6711 33.6975 38.9931ZM76.388 14.4942V19.4162C76.388 20.085 75.6464 20.6246 74.7273 20.6246C73.8081 20.6246 73.0666 20.085 73.0666 19.4162V15.7049H67.9628C67.0468 15.7049 66.3021 15.1631 66.3021 14.4943C66.3021 13.8278 67.0468 13.2859 67.9628 13.2859H74.7273C75.1667 13.2859 75.5904 13.4129 75.9021 13.6396C76.2137 13.8663 76.388 14.1745 76.388 14.4942ZM76.388 34.0709V38.9929C76.388 39.3125 76.2135 39.6209 75.9019 39.8476C75.5903 40.0744 75.1666 40.2013 74.7272 40.2013H67.9627C67.0467 40.2013 66.302 39.6595 66.302 38.9929C66.302 38.3241 67.0467 37.7823 67.9627 37.7823H73.0633L73.0664 34.071C73.0664 33.4022 73.808 32.8626 74.7271 32.8626C75.6463 32.8626 76.388 33.4021 76.388 34.0709ZM48.1367 19.398V34.0889H48.1398C48.1398 34.7576 47.3951 35.2972 46.476 35.2972C45.5599 35.2972 44.8153 34.7576 44.8153 34.0889V27.9518H38.1692V34.0889C38.1692 34.7576 37.4245 35.2972 36.5054 35.2972C35.5893 35.2972 34.8447 34.7576 34.8447 34.0889V19.398C34.8447 18.7292 35.5893 18.1896 36.5054 18.1896C37.4245 18.1896 38.1692 18.7292 38.1692 19.398V25.535H44.8153V19.398C44.8153 18.7292 45.5599 18.1896 46.476 18.1896C47.3951 18.1896 48.1398 18.7292 48.1398 19.398H48.1367ZM53.4149 18.1896C52.4958 18.1896 51.7542 18.7292 51.7542 19.398V34.0889C51.7542 34.4085 51.9287 34.7168 52.2403 34.9436C52.5519 35.1704 52.9756 35.2973 53.415 35.2973C57.6151 35.2973 61.4976 33.6672 63.5978 31.0214C65.6979 28.3734 65.6979 25.113 63.5978 22.4653C61.4978 19.8195 57.6154 18.1896 53.4149 18.1896ZM55.0725 32.7719L55.0756 20.6969C59.0358 21.2637 61.8931 23.7893 61.8931 26.7254C61.8931 29.6616 59.0359 32.187 55.0756 32.7539L55.0725 32.7719Z" fill="#3C7CFF"/>
</svg>
