<svg width="100" height="100" viewBox="0 0 100 100" fill="none" xmlns="http://www.w3.org/2000/svg">
<path fill-rule="evenodd" clip-rule="evenodd" d="M36.9566 26.087H50.0001C51.2001 26.087 52.174 25.113 52.174 23.913C52.174 22.713 51.2001 21.7391 50.0001 21.7391H36.9566C35.7566 21.7391 34.7827 22.713 34.7827 23.913C34.7827 25.113 35.7566 26.087 36.9566 26.087Z" fill="#3C7CFF"/>
<path fill-rule="evenodd" clip-rule="evenodd" d="M36.9566 17.3913H63.0436C64.2436 17.3913 65.2175 16.4174 65.2175 15.2174C65.2175 14.0174 64.2436 13.0435 63.0436 13.0435H36.9566C35.7566 13.0435 34.7827 14.0174 34.7827 15.2174C34.7827 16.4174 35.7566 17.3913 36.9566 17.3913Z" fill="#3C7CFF"/>
<path fill-rule="evenodd" clip-rule="evenodd" d="M66.3652 78.2609H60.8695C56.0673 78.2609 52.1738 82.1544 52.1738 86.9566C52.1738 89.5522 52.1738 92.4261 52.1738 94.5653C52.1738 96.0066 52.7456 97.3892 53.7651 98.4087C54.7847 99.4283 56.1673 100 57.6086 100H94.5651C96.0064 100 97.3891 99.4283 98.4086 98.4087C99.4282 97.3892 99.9999 96.0066 99.9999 94.5653V86.9566C99.9999 82.1544 96.1064 78.2609 91.3043 78.2609H85.8086C87.8738 75.9522 89.1303 72.9066 89.1303 69.5653C89.1303 65.4109 89.1303 69.3718 89.1303 65.2174C89.1303 58.0131 83.2912 52.174 76.0869 52.174C68.8825 52.174 63.0434 58.0131 63.0434 65.2174C63.0434 69.3718 63.0434 65.4109 63.0434 69.5653C63.0434 72.9066 64.2999 75.9522 66.3652 78.2609ZM95.6521 86.9566V94.5653C95.6521 94.8544 95.5369 95.1305 95.3347 95.3348C95.1304 95.537 94.8543 95.6522 94.5651 95.6522H57.6086C57.3195 95.6522 57.0434 95.537 56.839 95.3348C56.6369 95.1305 56.5217 94.8544 56.5217 94.5653V86.9566C56.5217 84.5544 58.4673 82.6087 60.8695 82.6087H91.3043C93.7064 82.6087 95.6521 84.5544 95.6521 86.9566ZM76.0869 78.2609C80.889 78.2609 84.7825 74.3674 84.7825 69.5653V65.2174C84.7825 60.4153 80.889 56.5218 76.0869 56.5218C71.2847 56.5218 67.3912 60.4153 67.3912 65.2174V69.5653C67.3912 74.3674 71.2847 78.2609 76.0869 78.2609Z" fill="#3C7CFF"/>
<path fill-rule="evenodd" clip-rule="evenodd" d="M14.1913 78.2609H8.69565C3.89348 78.2609 0 82.1544 0 86.9566C0 89.5522 0 92.4261 0 94.5653C0 96.0066 0.571727 97.3892 1.59129 98.4087C2.61086 99.4283 3.99348 100 5.43478 100H10.8696C12.0696 100 13.0435 99.0261 13.0435 97.8261C13.0435 96.6261 12.0696 95.6522 10.8696 95.6522H5.43478C5.14565 95.6522 4.86956 95.537 4.66521 95.3348C4.46303 95.1305 4.34783 94.8544 4.34783 94.5653V86.9566C4.34783 84.5544 6.29348 82.6087 8.69565 82.6087H39.1304C41.5326 82.6087 43.4783 84.5544 43.4783 86.9566V94.5653C43.4783 94.8544 43.3631 95.1305 43.1609 95.3348C42.9565 95.537 42.6804 95.6522 42.3913 95.6522H19.5652C18.3652 95.6522 17.3913 96.6261 17.3913 97.8261C17.3913 99.0261 18.3652 100 19.5652 100C28.0891 100 37.5435 100 42.3913 100C43.8326 100 45.2152 99.4283 46.2348 98.4087C47.2544 97.3892 47.8261 96.0066 47.8261 94.5653V86.9566C47.8261 82.1544 43.9326 78.2609 39.1304 78.2609H33.6347C35.7 75.9522 36.9565 72.9066 36.9565 69.5653C36.9565 65.4109 36.9565 69.3718 36.9565 65.2174C36.9565 58.0131 31.1174 52.174 23.913 52.174C16.7087 52.174 10.8696 58.0131 10.8696 65.2174C10.8696 69.3718 10.8696 65.4109 10.8696 69.5653C10.8696 72.9066 12.1261 75.9522 14.1913 78.2609ZM23.913 78.2609C28.7152 78.2609 32.6087 74.3674 32.6087 69.5653V65.2174C32.6087 60.4153 28.7152 56.5218 23.913 56.5218C19.1109 56.5218 15.2174 60.4153 15.2174 65.2174V69.5653C15.2174 74.3674 19.1109 78.2609 23.913 78.2609Z" fill="#3C7CFF"/>
<path fill-rule="evenodd" clip-rule="evenodd" d="M78.2608 5.43478C78.2608 2.43261 75.8281 0 72.826 0H27.1738C24.1716 0 21.739 2.43261 21.739 5.43478V45.6522C21.739 46.5304 22.2695 47.3239 23.0803 47.6609C23.8934 47.9978 24.8281 47.8109 25.4499 47.1891L33.5086 39.1304H66.4912L74.5499 47.1891C75.1716 47.8109 76.1064 47.9978 76.9194 47.6609C77.7303 47.3239 78.2608 46.5304 78.2608 45.6522V5.43478ZM73.9129 5.43478V40.4043L68.9281 35.4196C68.5216 35.0109 67.9673 34.7826 67.3912 34.7826H32.6086C32.0325 34.7826 31.4781 35.0109 31.0716 35.4196L26.0868 40.4043V5.43478C26.0868 4.83478 26.5738 4.34783 27.1738 4.34783H72.826C73.426 4.34783 73.9129 4.83478 73.9129 5.43478Z" fill="#3C7CFF"/>
</svg>
