<svg width="93" height="100" viewBox="0 0 93 100" fill="none" xmlns="http://www.w3.org/2000/svg">
<path fill-rule="evenodd" clip-rule="evenodd" d="M34.6307 65.736V71.6974C34.6307 74.8676 37.1998 77.4405 40.3738 77.4405H44.9415L44.9224 77.5209C44.7539 78.1412 44.6926 78.7844 44.7386 79.4276L45.8604 94.6776C46.0404 97.1127 47.7403 99.1726 50.1027 99.8043C52.4612 100.436 54.9652 99.5057 56.3397 97.4841L64.9353 84.8377C65.2952 84.3055 65.5632 83.7158 65.7317 83.0956C67.1636 77.7506 77.3711 39.6545 80.6217 27.525C81.4411 24.4619 79.6224 21.3109 76.5594 20.4915L72.2253 19.3314C68.8598 8.15143 58.48 0 46.2127 0C31.2192 0 19.0476 12.1716 19.0476 27.1651C19.0476 33.896 21.5018 40.0565 25.5603 44.8042L30.1204 60.1115C30.8517 62.562 32.5019 64.5491 34.6307 65.736ZM48.709 81.185L60.6165 84.3782L53.1733 95.3323C52.7139 96.0062 51.8792 96.3163 51.0943 96.1057C50.3056 95.8951 49.7389 95.2098 49.6777 94.3981L48.709 81.185ZM57.5037 79.5808L62.3624 80.8826L73.9788 37.518L69.1201 36.2162L57.5037 79.5808ZM48.9464 77.2874L53.8051 78.5891L65.4215 35.2284L60.5667 33.9266L48.9464 77.2874ZM38.4594 66.9153V71.6974C38.4594 72.7541 39.3171 73.6118 40.3738 73.6118H45.9676L47.7518 66.9497H39.2979C39.0146 66.9497 38.7351 66.9382 38.4594 66.9153ZM67.7265 18.1253C64.1925 9.72888 55.8841 3.82876 46.2127 3.82876C33.3327 3.82876 22.8764 14.2851 22.8764 27.1651C22.8764 33.0767 25.0817 38.479 28.7076 42.5911C28.8913 42.7979 29.0292 43.0429 29.1096 43.3109L33.7883 59.0165C34.5158 61.4516 36.7556 63.1209 39.2979 63.1209H44.2983V39.7655C44.1987 39.6162 44.126 39.4554 44.0724 39.2907L34.8795 30.0979C34.1329 29.3513 34.1329 28.1376 34.8795 27.391C35.6261 26.6405 36.8399 26.6405 37.5865 27.391L46.0557 35.8563L54.5249 27.391C55.2715 26.6405 56.4852 26.6405 57.2318 27.391C57.9784 28.1376 57.9784 29.3513 57.2318 30.0979L48.127 39.2027V63.1209H48.7779L59.8124 21.9503C60.6318 18.8834 63.779 17.0686 66.8458 17.888L67.7265 18.1253ZM74.9705 33.8194L61.5545 30.2281L63.5072 22.9381C63.7828 21.9197 64.8319 21.3109 65.8542 21.5866L75.5678 24.1901C76.59 24.462 77.195 25.5149 76.9232 26.5333L74.9705 33.8194Z" fill="#3C7CFF"/>
<path fill-rule="evenodd" clip-rule="evenodd" d="M7.52021 19.9927H1.91649C0.857385 19.9927 0 20.85 0 21.9091C0 22.9682 0.857385 23.8256 1.91649 23.8256H7.52021C8.57931 23.8256 9.43669 22.9682 9.43669 21.9091C9.43669 20.85 8.57931 19.9927 7.52021 19.9927Z" fill="#3C7CFF"/>
<path fill-rule="evenodd" clip-rule="evenodd" d="M13.0115 5.78928L8.1585 2.98742C7.24129 2.45787 6.0701 2.77167 5.54055 3.68888C5.011 4.60609 5.32483 5.77728 6.24204 6.30683L11.095 9.10869C12.0122 9.63824 13.1834 9.32443 13.7129 8.40723C14.2425 7.49002 13.9287 6.31883 13.0115 5.78928Z" fill="#3C7CFF"/>
<path fill-rule="evenodd" clip-rule="evenodd" d="M9.86399 35.038L5.01104 37.8399C4.09383 38.3694 3.78 39.5406 4.30955 40.4578C4.8391 41.375 6.0103 41.6888 6.92751 41.1593L11.7805 38.3574C12.6977 37.8279 13.0115 36.6567 12.4819 35.7395C11.9524 34.8222 10.7812 34.5084 9.86399 35.038Z" fill="#3C7CFF"/>
<path fill-rule="evenodd" clip-rule="evenodd" d="M84.9007 23.8256H90.5044C91.5635 23.8256 92.4209 22.9682 92.4209 21.9091C92.4209 20.85 91.5635 19.9927 90.5044 19.9927H84.9007C83.8416 19.9927 82.9842 20.85 82.9842 21.9091C82.9842 22.9682 83.8416 23.8256 84.9007 23.8256Z" fill="#3C7CFF"/>
<path fill-rule="evenodd" clip-rule="evenodd" d="M81.3269 9.10869L86.1798 6.30683C87.097 5.77728 87.4109 4.60609 86.8813 3.68888C86.3518 2.77167 85.1806 2.45787 84.2634 2.98742L79.4104 5.78928C78.4932 6.31883 78.1794 7.49002 78.7089 8.40723C79.2385 9.32443 80.4097 9.63824 81.3269 9.10869Z" fill="#3C7CFF"/>
<path fill-rule="evenodd" clip-rule="evenodd" d="M80.6407 38.3574L85.4936 41.1593C86.4108 41.6888 87.582 41.375 88.1116 40.4578C88.6411 39.5406 88.3273 38.3694 87.4101 37.8399L82.5572 35.038C81.6399 34.5084 80.4687 34.8222 79.9392 35.7395C79.4096 36.6567 79.7235 37.8279 80.6407 38.3574Z" fill="#3C7CFF"/>
</svg>
