<svg width="109" height="102" viewBox="0 0 109 102" fill="none" xmlns="http://www.w3.org/2000/svg">
<path d="M3.05176 98.9482L3.22854 98.7715L3.05176 98.9482C4.52555 100.422 6.52444 101.25 8.6087 101.25H99.913C101.997 101.25 103.996 100.422 105.47 98.9482C106.944 97.4744 107.772 95.4756 107.772 93.3913V8.6087C107.772 6.52444 106.944 4.52555 105.47 3.05176C103.996 1.57797 101.997 0.75 99.913 0.75H8.6087C6.52444 0.75 4.52555 1.57797 3.05176 3.05176C1.57797 4.52555 0.75 6.52444 0.75 8.6087V93.3913C0.75 95.4756 1.57797 97.4744 3.05176 98.9482ZM4.9425 4.9425C5.91484 3.97017 7.23361 3.42391 8.6087 3.42391H99.913C101.288 3.42391 102.607 3.97017 103.579 4.9425C104.552 5.91484 105.098 7.2336 105.098 8.6087V93.3913C105.098 94.7664 104.552 96.0852 103.579 97.0575C102.607 98.0298 101.288 98.5761 99.913 98.5761H8.6087C7.23361 98.5761 5.91484 98.0298 4.9425 97.0575C3.97017 96.0852 3.42391 94.7664 3.42391 93.3913V8.6087C3.42391 7.23361 3.97017 5.91484 4.9425 4.9425Z" fill="#3C7CFF" stroke="#3C7CFF" stroke-width="0.5"/>
<path d="M2.08696 21.5434H106.435C106.789 21.5434 107.129 21.4026 107.38 21.1518C107.631 20.9011 107.772 20.561 107.772 20.2065C107.772 19.8519 107.631 19.5118 107.38 19.2611C107.129 19.0104 106.789 18.8695 106.435 18.8695H2.08696C1.73237 18.8695 1.39231 19.0104 1.14159 19.2611C0.890858 19.5118 0.75 19.8519 0.75 20.2065C0.75 20.561 0.890858 20.9011 1.14159 21.1518C1.39231 21.4026 1.73237 21.5434 2.08696 21.5434Z" fill="#3C7CFF" stroke="#3C7CFF" stroke-width="0.5"/>
<path d="M8.88041 12.4782H12.3261C12.6806 12.4782 13.0207 12.3374 13.2714 12.0866C13.5222 11.8359 13.663 11.4959 13.663 11.1413C13.663 10.7867 13.5222 10.4466 13.2714 10.1959C13.0207 9.94518 12.6806 9.80432 12.3261 9.80432H8.88041C8.52583 9.80432 8.18577 9.94518 7.93504 10.1959C7.68431 10.4466 7.54346 10.7867 7.54346 11.1413C7.54346 11.4959 7.68431 11.8359 7.93504 12.0866C8.18577 12.3374 8.52583 12.4782 8.88041 12.4782Z" fill="#3C7CFF" stroke="#3C7CFF" stroke-width="0.5"/>
<path d="M18.3042 12.4782H21.739C22.0936 12.4782 22.4337 12.3374 22.6844 12.0866C22.9351 11.8359 23.076 11.4959 23.076 11.1413C23.076 10.7867 22.9351 10.4466 22.6844 10.1959C22.4337 9.94518 22.0936 9.80432 21.739 9.80432H18.3042C17.9497 9.80432 17.6096 9.94518 17.3589 10.1959C17.1081 10.4466 16.9673 10.7867 16.9673 11.1413C16.9673 11.4959 17.1081 11.8359 17.3589 12.0866C17.6096 12.3374 17.9497 12.4782 18.3042 12.4782Z" fill="#3C7CFF" stroke="#3C7CFF" stroke-width="0.5"/>
<path d="M27.7178 12.4782H31.1635C31.5181 12.4782 31.8581 12.3374 32.1088 12.0866C32.3596 11.8359 32.5004 11.4959 32.5004 11.1413C32.5004 10.7867 32.3596 10.4466 32.1088 10.1959C31.8581 9.94518 31.5181 9.80432 31.1635 9.80432H27.7178C27.3632 9.80432 27.0232 9.94518 26.7724 10.1959C26.5217 10.4466 26.3809 10.7867 26.3809 11.1413C26.3809 11.4959 26.5217 11.8359 26.7724 12.0866C27.0232 12.3374 27.3632 12.4782 27.7178 12.4782Z" fill="#3C7CFF" stroke="#3C7CFF" stroke-width="0.5"/>
<path d="M60.7828 12.4782H99.3697C99.7243 12.4782 100.064 12.3374 100.315 12.0867C100.566 11.8359 100.707 11.4959 100.707 11.1413C100.707 10.7867 100.566 10.4466 100.315 10.1959C100.064 9.94518 99.7243 9.80432 99.3697 9.80432H60.7828C60.4282 9.80432 60.0881 9.94518 59.8374 10.1959C59.5867 10.4466 59.4458 10.7867 59.4458 11.1413C59.4458 11.4959 59.5867 11.8359 59.8374 12.0866C60.0881 12.3374 60.4282 12.4782 60.7828 12.4782Z" fill="#3C7CFF" stroke="#3C7CFF" stroke-width="0.5"/>
<path d="M8.88041 30.7282H31.7826C32.1372 30.7282 32.4772 30.5874 32.728 30.3366C32.9787 30.0859 33.1195 29.7459 33.1195 29.3913C33.1195 29.0367 32.9787 28.6966 32.728 28.4459C32.4772 28.1952 32.1372 28.0543 31.7826 28.0543H8.88041C8.52583 28.0543 8.18577 28.1952 7.93504 28.4459C7.68431 28.6966 7.54346 29.0367 7.54346 29.3913C7.54346 29.7459 7.68431 30.0859 7.93504 30.3366C8.18577 30.5874 8.52583 30.7282 8.88041 30.7282Z" fill="#3C7CFF" stroke="#3C7CFF" stroke-width="0.5"/>
<path d="M8.92387 37.1196H19.7934C20.148 37.1196 20.4881 36.9787 20.7388 36.728C20.9895 36.4773 21.1304 36.1372 21.1304 35.7826C21.1304 35.4281 20.9895 35.088 20.7388 34.8373C20.4881 34.5865 20.148 34.4457 19.7934 34.4457H8.92387C8.56929 34.4457 8.22923 34.5865 7.9785 34.8373C7.72777 35.088 7.58691 35.4281 7.58691 35.7826C7.58691 36.1372 7.72777 36.4773 7.9785 36.728C8.22923 36.9787 8.56929 37.1196 8.92387 37.1196Z" fill="#3C7CFF" stroke="#3C7CFF" stroke-width="0.5"/>
<path d="M24.0982 37.1196H26.7286C27.0832 37.1196 27.4233 36.9787 27.674 36.728C27.9247 36.4773 28.0656 36.1372 28.0656 35.7826C28.0656 35.4281 27.9247 35.088 27.674 34.8373C27.4233 34.5865 27.0832 34.4457 26.7286 34.4457H24.0982C23.7436 34.4457 23.4035 34.5865 23.1528 34.8373C22.9021 35.088 22.7612 35.4281 22.7612 35.7826C22.7612 36.1372 22.9021 36.4773 23.1528 36.728C23.4035 36.9787 23.7436 37.1196 24.0982 37.1196Z" fill="#3C7CFF" stroke="#3C7CFF" stroke-width="0.5"/>
<path d="M36.7837 92.913L36.7799 92.9131C35.0704 92.8964 33.3836 92.5183 31.8306 91.8035M36.7837 92.913L31.9346 91.5761M36.7837 92.913C40.0035 92.8965 43.0865 91.6084 45.361 89.3293C46.9984 87.7079 48.1349 85.6497 48.6348 83.4002C49.1231 81.2027 48.9838 78.9133 48.2345 76.7929L55.2084 69.8297C55.2086 69.8296 55.2087 69.8294 55.2088 69.8293C55.3339 69.7051 55.4333 69.5574 55.5011 69.3946C55.569 69.2317 55.6039 69.0569 55.6039 68.8804C55.6039 68.7039 55.569 68.5292 55.5011 68.3663C55.4332 68.2035 55.3339 68.0557 55.2086 67.9314C55.2086 67.9313 55.2085 67.9313 55.2084 67.9312L49.6438 62.3774L49.6434 62.3771C49.3929 62.128 49.0541 61.9883 48.7009 61.9883C48.3477 61.9883 48.0088 62.128 47.7583 62.3771L47.7579 62.3774L40.783 69.3417M36.7837 92.913L40.783 69.3417M31.8306 91.8035C31.8304 91.8034 31.8302 91.8033 31.83 91.8032L31.9346 91.5761M31.8306 91.8035C31.8308 91.8035 31.831 91.8036 31.8312 91.8037L31.9346 91.5761M31.8306 91.8035C31.6345 91.7143 31.4629 91.579 31.3303 91.4093C31.1976 91.2393 31.108 91.0398 31.0691 90.8277L31.069 90.8275C31.03 90.6137 31.0437 90.3936 31.1089 90.1862C31.1741 89.9791 31.2887 89.791 31.4429 89.6381L31.4426 89.6384L31.6193 89.8152M31.9346 91.5761C31.775 91.5036 31.6353 91.3936 31.5274 91.2554C31.4195 91.1172 31.3466 90.955 31.315 90.7826C31.2833 90.6088 31.2944 90.4298 31.3474 90.2613C31.4005 90.0927 31.4938 89.9396 31.6193 89.8152M31.6193 89.8152L31.4434 89.6376M31.6193 89.8152L36.6519 84.7826L36.3802 81.2065L32.8041 80.9239L27.7606 85.9674C27.6363 86.0929 27.4832 86.1863 27.3146 86.2393C27.146 86.2923 26.9671 86.3035 26.7932 86.2717C26.6208 86.2401 26.4586 86.1672 26.3205 86.0594C26.1823 85.9515 26.0723 85.8118 25.9998 85.6522C25.0257 83.4558 24.736 81.0169 25.1683 78.6534C25.6007 76.2899 26.7351 74.1115 28.4237 72.4022C30.0117 70.799 32.0267 69.6855 34.2291 69.1942C36.4315 68.7028 38.7287 68.8543 40.8476 69.6304L31.4434 89.6376M31.4434 89.6376L36.394 84.687L36.1471 81.4389L32.8994 81.1822L27.9383 86.1433C27.9381 86.1435 27.938 86.1436 27.9378 86.1438C27.7849 86.298 27.5968 86.4126 27.3896 86.4778C27.1823 86.543 26.9622 86.5567 26.7484 86.5177L26.7481 86.5176C26.5361 86.4787 26.3365 86.3891 26.1666 86.2564C25.9967 86.1237 25.8613 85.9519 25.7722 85.7556L25.7712 85.7535C24.7768 83.5112 24.481 81.0213 24.9224 78.6084C25.3638 76.1955 26.522 73.9715 28.2458 72.2265L28.2461 72.2263C29.8678 70.589 31.9255 69.452 34.1747 68.9502C36.3718 68.46 38.6612 68.5962 40.783 69.3417M31.4434 89.6376L40.783 69.3417M27.5861 82.7658C27.2551 81.1857 27.3345 79.5444 27.8204 77.9996C28.3509 76.3135 29.3443 74.8102 30.6876 73.6612C32.0309 72.5122 33.6699 71.7637 35.4179 71.5009C37.1657 71.2382 38.9523 71.4717 40.5739 72.1749C40.8206 72.2829 41.0941 72.3139 41.3587 72.2639C41.6235 72.2138 41.8669 72.0848 42.0572 71.894C42.0572 71.8939 42.0573 71.8939 42.0573 71.8939L48.7062 65.2556L52.3745 68.9239L45.7252 75.5732L45.7247 75.5737C45.5365 75.7628 45.4092 76.0039 45.3592 76.266C45.3091 76.5281 45.3387 76.7992 45.444 77.0443L45.4442 77.0448C46.1437 78.6635 46.3745 80.4461 46.1103 82.1896C45.846 83.933 45.0974 85.5672 43.9496 86.9059C42.8018 88.2446 41.3011 89.234 39.6184 89.7613C38.078 90.2441 36.4418 90.3218 34.8668 89.9907L38.7189 86.1888L38.7199 86.1878C38.8574 86.0505 38.9633 85.8849 39.0303 85.7025C39.0971 85.5203 39.1236 85.3258 39.1077 85.1324C39.1077 85.1321 39.1076 85.1318 39.1076 85.1316L38.7275 80.1463C38.7274 80.1459 38.7274 80.1455 38.7274 80.1451C38.7056 79.8251 38.5696 79.5236 38.344 79.2956C38.1181 79.0673 37.8176 78.9279 37.4975 78.9029L32.4986 78.5117C32.4984 78.5117 32.4983 78.5117 32.4981 78.5117C32.3046 78.4958 32.11 78.5222 31.9278 78.5891L32.0139 78.8238L31.9278 78.5891C31.7454 78.656 31.5797 78.7619 31.4424 78.8994L31.4423 78.8996L27.5861 82.7658Z" fill="#3C7CFF" stroke="#3C7CFF" stroke-width="0.5"/>
<path d="M59.8295 64.6957L59.8275 64.6957C59.6515 64.6967 59.4771 64.663 59.3142 64.5964C59.1513 64.5299 59.0032 64.4319 58.8782 64.308L58.8782 64.3079L53.313 58.7862L53.3116 58.7848C53.0646 58.5358 52.9254 58.1998 52.9238 57.8491M59.8295 64.6957L53.3113 56.9003C53.1875 57.0252 53.0896 57.1732 53.0231 57.336C52.9566 57.4989 52.9229 57.6732 52.9238 57.8491M59.8295 64.6957C60.0073 64.6932 60.1829 64.6553 60.3459 64.5841L60.2458 64.355L60.3459 64.5841C60.5079 64.5133 60.6543 64.4111 60.7766 64.2834L67.7385 57.3109C69.8589 58.0602 72.1483 58.1994 74.3458 57.7111C76.5955 57.2112 78.6539 56.0745 80.2754 54.4368L80.2757 54.4365C81.9951 52.6933 83.1504 50.4733 83.5917 48.0649C84.033 45.6566 83.7399 43.1712 82.7504 40.9316L82.7493 40.9293C82.6601 40.7329 82.5248 40.5611 82.3548 40.4284L82.201 40.6255L82.3548 40.4284C82.1849 40.2957 81.9854 40.2061 81.7733 40.1672L81.7731 40.1671C81.5593 40.1281 81.3391 40.1418 81.1318 40.207C80.9247 40.2722 80.7365 40.3869 80.5836 40.5411C80.5835 40.5412 80.5833 40.5414 80.5832 40.5415L75.6221 45.5026L72.3845 45.2459L72.1278 41.9975L77.0782 37.0471C77.0783 37.047 77.0784 37.0469 77.0785 37.0468C77.232 36.8944 77.3462 36.7071 77.4113 36.5009C77.4765 36.2945 77.4907 36.0754 77.4526 35.8624C77.4144 35.6494 77.3252 35.4488 77.1924 35.2779C77.0597 35.107 76.8874 34.9709 76.6905 34.8812L76.6884 34.8803C74.4471 33.8844 71.9579 33.5868 69.545 34.0263C67.1322 34.4657 64.9076 35.6217 63.1614 37.3438L63.1608 37.3443C61.5295 38.9629 60.3967 41.0155 59.8969 43.2585C59.4087 45.4498 59.5446 47.733 60.2875 49.8492L53.3116 56.9001L59.8295 64.6957ZM52.9238 57.8491C52.9238 57.8492 52.9239 57.8492 52.9239 57.8493L53.1738 57.8479L52.9238 57.8489C52.9238 57.849 52.9238 57.849 52.9238 57.8491ZM67.9482 54.5863L67.9487 54.5865C69.6821 55.3511 71.6067 55.5722 73.4685 55.2207C75.3302 54.8691 77.0416 53.9614 78.3769 52.6173L78.3771 52.6172C79.5362 51.4525 80.3723 50.0063 80.803 48.4206C81.1949 46.9782 81.2391 45.4656 80.9349 44.0064L77.0791 47.8722L77.079 47.8723C76.9417 48.0098 76.7761 48.1157 76.5937 48.1827C76.4114 48.2496 76.2168 48.276 76.0233 48.2601C76.0231 48.2601 76.023 48.2601 76.0228 48.2601L71.035 47.8689L71.0347 47.8688L71.0543 47.6196C70.7957 47.5996 70.5528 47.4879 70.3694 47.3045L67.9482 54.5863ZM67.9482 54.5863C67.7013 54.4781 67.4275 54.447 67.1627 54.4971C66.8979 54.5472 66.6544 54.6761 66.4641 54.8671L59.8266 61.5152L56.1465 57.8054L62.7944 51.1787C62.7947 51.1784 62.795 51.1781 62.7953 51.1778C62.9913 50.9855 63.1233 50.7376 63.1735 50.4677C63.2236 50.198 63.1896 49.9195 63.0761 49.6699C62.3702 48.0498 62.134 46.2639 62.3946 44.5159C62.6553 42.7673 63.4026 41.1273 64.5512 39.7832C65.6998 38.4392 67.2032 37.4453 68.8899 36.9152C70.4363 36.4292 72.0795 36.351 73.6608 36.6846M67.9482 54.5863L73.6608 36.6846M73.6608 36.6846L69.8015 40.584C69.8013 40.5842 69.8011 40.5845 69.8009 40.5847C69.6637 40.7218 69.558 40.8872 69.4912 41.0693L73.6608 36.6846Z" fill="#3C7CFF" stroke="#3C7CFF" stroke-width="0.5"/>
<path d="M41.1072 54.4348L41.1072 54.4348C41.2832 54.4338 41.4576 54.4675 41.6205 54.5341C41.7834 54.6006 41.9315 54.6986 42.0565 54.8225L42.0572 54.8233L62.7963 75.5733L62.7967 75.5737C62.9849 75.7628 63.1123 76.004 63.1623 76.266C63.2123 76.5281 63.1828 76.7992 63.0775 77.0443L63.0764 77.047C62.3079 78.7814 62.0847 80.7085 62.4364 82.5727C62.788 84.4366 63.6977 86.1497 65.0449 87.4849C66.2149 88.6347 67.6635 89.4608 69.2489 89.8822C70.6916 90.2657 72.2026 90.3021 73.6584 89.9911L69.8017 86.1444L69.8016 86.1443C69.6641 86.007 69.5582 85.8414 69.4912 85.659C69.4243 85.4767 69.3979 85.2821 69.4138 85.0886C69.4138 85.0885 69.4138 85.0883 69.4139 85.0881L69.8051 80.0895L41.1072 54.4348ZM41.1072 54.4348L41.1043 54.4349M41.1072 54.4348L41.1043 54.4349M41.1043 54.4349C40.9252 54.438 40.7482 54.4734 40.5818 54.5394L40.5817 54.5392L40.5726 54.5432C38.8398 55.3107 36.9146 55.5334 35.0523 55.1818C33.19 54.8301 31.4786 53.9207 30.145 52.5741L30.1446 52.5737C28.9854 51.409 28.1494 49.9628 27.7186 48.3771C27.3268 46.9347 27.2825 45.4221 27.5867 43.9629M41.1043 54.4349L32.4986 48.2166M62.6195 75.75C62.7725 75.9038 62.876 76.0998 62.9167 76.3129C62.9574 76.526 62.9334 76.7464 62.8478 76.9457L62.6195 75.75ZM62.6195 75.75L41.8804 55M62.6195 75.75L41.8804 55M41.8804 55C41.7788 54.8993 41.6584 54.8196 41.5259 54.7655C41.3935 54.7114 41.2517 54.684 41.1087 54.6848M41.8804 55L41.1087 54.6848M41.1087 54.6848C40.9597 54.6874 40.8124 54.7169 40.6739 54.7718C38.8947 55.5599 36.918 55.7885 35.0059 55.4274C33.0938 55.0664 31.3366 54.1326 29.9674 52.75C28.7776 51.5546 27.9195 50.0702 27.4774 48.4426C27.0608 46.9095 27.027 45.2991 27.3767 43.7523L27.5867 43.9629M41.1087 54.6848L31.6195 47.6522L27.6517 43.674C27.6285 43.7701 27.6069 43.8664 27.5867 43.9629M27.5867 43.9629L31.4425 47.8288L31.4426 47.8289C31.5799 47.9664 31.7455 48.0723 31.928 48.1392C32.1103 48.2062 32.305 48.2326 32.4986 48.2166M32.4986 48.2166L32.4983 48.2166L32.4782 47.9674L32.4988 48.2166C32.4988 48.2166 32.4987 48.2166 32.4986 48.2166ZM37.4979 47.8145C37.8158 47.7898 38.1144 47.6524 38.3399 47.4269C38.5654 47.2013 38.7029 46.9026 38.7275 46.5845L38.7275 46.5842L39.1079 41.5842L39.108 41.5835C39.122 41.3921 39.0947 41.1998 39.0278 41.0199C38.9609 40.8399 38.856 40.6765 38.7203 40.5407L38.7202 40.5407L34.865 36.6855M37.4979 47.8145L69.8051 80.0892C69.8297 79.7713 69.9672 79.4726 70.1927 79.2471C70.4182 79.0215 70.717 78.884 71.035 78.8595L71.0368 78.8593L75.9794 78.5118C75.98 78.5117 75.9806 78.5117 75.9812 78.5116C76.1742 78.4959 76.3684 78.5224 76.5502 78.5891C76.7326 78.6561 76.8983 78.762 77.0356 78.8995L77.0357 78.8996L80.891 82.7649C81.217 81.1905 81.1357 79.5562 80.6512 78.0179C80.1221 76.3378 79.1333 74.8394 77.7966 73.6923C76.4599 72.5452 74.8288 71.7951 73.0879 71.5271C71.3473 71.2591 69.5664 71.4836 67.9468 72.1753C67.7003 72.283 67.4271 72.3139 67.1627 72.2639C66.8979 72.2138 66.6545 72.0849 66.4643 71.894C66.4642 71.8939 66.4642 71.8939 66.4642 71.8939L45.7257 51.1771C45.5348 50.9869 45.4058 50.7434 45.3557 50.4786C45.3056 50.2137 45.3367 49.94 45.4449 49.6931L45.4456 49.6915C46.2227 47.9534 46.4505 46.0196 46.0986 44.1485C45.7467 42.2775 44.8319 40.5585 43.4766 39.2215M37.4979 47.8145L37.4983 47.8144L37.4782 47.5653L37.4975 47.8145L37.4979 47.8145ZM34.865 36.6855C36.3227 36.3841 37.8329 36.4279 39.2741 36.816C40.8586 37.2428 42.3061 38.0713 43.4766 39.2215M34.865 36.6855L34.6546 36.4751C36.1997 36.1286 37.8073 36.1621 39.3391 36.5746C40.9653 37.0126 42.451 37.863 43.6521 39.0435M34.865 36.6855C34.7684 36.7054 34.6721 36.7269 34.576 36.7499L38.5434 40.7174C38.6538 40.8278 38.739 40.9607 38.7934 41.107L43.6521 39.0435M43.4766 39.2215C43.4767 39.2216 43.4768 39.2217 43.4769 39.2218L43.6521 39.0435M43.4766 39.2215L43.6521 39.0435M63.1608 89.3731L63.1609 89.3732C65.4427 91.6364 68.5249 92.9083 71.7387 92.9131H71.7395C73.4461 92.9104 75.1329 92.5473 76.6894 91.8476L76.6903 91.8472C76.8866 91.758 77.0585 91.6227 77.1911 91.4528C77.3238 91.2828 77.4135 91.0833 77.4524 90.8712L77.4524 90.871C77.4915 90.6572 77.4777 90.4371 77.4125 90.2297C77.3474 90.0226 77.2327 89.8344 77.0785 89.6815C77.0784 89.6814 77.0782 89.6813 77.0781 89.6811L72.1278 84.7309L72.3846 81.4824L75.6221 81.2258L80.5832 86.1868C80.5834 86.187 80.5835 86.1871 80.5836 86.1873C80.7365 86.3415 80.9247 86.4561 81.1318 86.5213C81.3392 86.5865 81.5593 86.6002 81.7731 86.5612L81.7733 86.5611C81.9854 86.5222 82.1849 86.4326 82.3549 86.2999C82.5248 86.1672 82.6601 85.9954 82.7493 85.7991L82.7502 85.797C83.7447 83.5547 84.0405 81.0648 83.5991 78.6519C83.1576 76.239 81.9995 74.015 80.2756 72.27L80.2755 72.2699C78.6545 70.6315 76.5967 69.4935 74.3472 68.9917C72.1499 68.5015 69.8603 68.6383 67.7387 69.385L48.2342 49.8483C48.9743 47.732 49.1088 45.4498 48.6207 43.2594C48.1211 41.017 46.99 38.9645 45.361 37.3445L45.3603 37.3438C43.614 35.6217 41.3895 34.4657 38.9766 34.0263C36.5638 33.5868 34.0745 33.8844 31.8332 34.8803L31.8332 34.8803L31.8312 34.8812C31.6342 34.9709 31.462 35.107 31.3292 35.2779C31.1965 35.4488 31.1072 35.6494 31.0691 35.8624C31.0309 36.0754 31.0451 36.2945 31.1103 36.5009C31.1754 36.707 31.2896 36.8943 31.4431 37.0467C31.4432 37.0468 31.4433 37.0469 31.4434 37.0471L36.3942 41.9978L36.1474 45.2453L32.8997 45.4921L27.9384 40.5415C27.9383 40.5413 27.9381 40.5411 27.9379 40.541C27.7851 40.3868 27.5969 40.2722 27.3898 40.207L27.3148 40.4455L27.3898 40.207C27.1825 40.1418 26.9624 40.1281 26.7486 40.1671L26.7483 40.1672C26.5362 40.2061 26.3367 40.2957 26.1668 40.4284C25.9968 40.5611 25.8615 40.7329 25.7723 40.9293L25.7723 40.9292L25.7713 40.9316C24.7818 43.1712 24.4886 45.6566 24.9299 48.0649C25.3712 50.4733 26.5266 52.6933 28.2459 54.4365L28.2462 54.4368C29.8674 56.0747 31.9246 57.213 34.1734 57.7167C36.3703 58.2087 38.66 58.0749 40.7829 57.3322L60.2871 76.8364C59.5404 78.9572 59.4025 81.2459 59.8907 83.4428C60.3905 85.6919 61.5255 87.7502 63.1608 89.3731Z" fill="#3C7CFF" stroke="#3C7CFF" stroke-width="0.5"/>
</svg>
