<svg width="100" height="100" viewBox="0 0 100 100" fill="none" xmlns="http://www.w3.org/2000/svg">
<path d="M97.9096 16.6727H12.4991C11.9466 16.6727 11.4167 16.8921 11.0261 17.2828C10.6354 17.6735 10.4159 18.2034 10.4159 18.7558C10.4159 19.3083 10.6354 19.8382 11.0261 20.2289C11.4167 20.6196 11.9466 20.839 12.4991 20.839H95.8264V89.5841C95.8264 91.2416 95.168 92.8312 93.996 94.0032C92.824 95.1752 91.2344 95.8336 89.5769 95.8336H10.4159C8.75843 95.8336 7.16884 95.1752 5.99682 94.0032C4.8248 92.8312 4.16637 91.2416 4.16637 89.5841V10.4231C4.16637 8.76563 4.8248 7.17603 5.99682 6.00401C7.16884 4.832 8.75843 4.17356 10.4159 4.17356H89.5644C90.3976 4.12796 91.2312 4.25828 92.0107 4.55605C92.7903 4.85382 93.4984 5.31236 94.0891 5.90185C94.6798 6.49134 95.1397 7.19857 95.4391 7.97754C95.7384 8.75651 95.8704 9.58977 95.8264 10.4231C95.8264 10.9756 96.0459 11.5055 96.4366 11.8961C96.8273 12.2868 97.3571 12.5063 97.9096 12.5063C98.4621 12.5063 98.992 12.2868 99.3827 11.8961C99.7733 11.5055 99.9928 10.9756 99.9928 10.4231C100.045 9.04123 99.8115 7.66342 99.3066 6.37602C98.8017 5.08863 98.0363 3.91938 97.0585 2.94154C96.0806 1.96369 94.9114 1.19833 93.624 0.693403C92.3366 0.188474 90.9588 -0.0451405 89.5769 0.00719529H10.4159C7.65446 0.0105031 5.00705 1.10895 3.05441 3.0616C1.10176 5.01425 0.0033078 7.66166 0 10.4231L0 89.5841C0.0033078 92.3455 1.10176 94.993 3.05441 96.9456C5.00705 98.8982 7.65446 99.9967 10.4159 100H89.5769C92.3383 99.9967 94.9858 98.8982 96.9384 96.9456C98.8911 94.993 99.9895 92.3455 99.9928 89.5841V18.7558C99.9928 18.2034 99.7733 17.6735 99.3827 17.2828C98.992 16.8921 98.4621 16.6727 97.9096 16.6727Z" fill="#3C7CFF"/>
<path d="M12.4992 8.33984C11.9467 8.33984 11.4168 8.55932 11.0262 8.94999C10.6355 9.34067 10.416 9.87053 10.416 10.423C10.416 10.9755 10.6355 11.5054 11.0262 11.8961C11.4168 12.2867 11.9467 12.5062 12.4992 12.5062H16.6656C17.2181 12.5062 17.7479 12.2867 18.1386 11.8961C18.5293 11.5054 18.7487 10.9755 18.7487 10.423C18.7487 9.87053 18.5293 9.34067 18.1386 8.94999C17.7479 8.55932 17.2181 8.33984 16.6656 8.33984H12.4992Z" fill="#3C7CFF"/>
<path d="M24.9982 8.33984C24.4457 8.33984 23.9159 8.55932 23.5252 8.94999C23.1345 9.34067 22.915 9.87053 22.915 10.423C22.915 10.9755 23.1345 11.5054 23.5252 11.8961C23.9159 12.2867 24.4457 12.5062 24.9982 12.5062H29.1646C29.7171 12.5062 30.2469 12.2867 30.6376 11.8961C31.0283 11.5054 31.2478 10.9755 31.2478 10.423C31.2478 9.87053 31.0283 9.34067 30.6376 8.94999C30.2469 8.55932 29.7171 8.33984 29.1646 8.33984H24.9982Z" fill="#3C7CFF"/>
<path d="M85.4106 8.33984C84.8581 8.33984 84.3282 8.55932 83.9375 8.94999C83.5469 9.34067 83.3274 9.87053 83.3274 10.423C83.3274 10.9755 83.5469 11.5054 83.9375 11.8961C84.3282 12.2867 84.8581 12.5062 85.4106 12.5062H89.5769C90.1294 12.5062 90.6593 12.2867 91.05 11.8961C91.4407 11.5054 91.6601 10.9755 91.6601 10.423C91.6601 9.87053 91.4407 9.34067 91.05 8.94999C90.6593 8.55932 90.1294 8.33984 89.5769 8.33984H85.4106Z" fill="#3C7CFF"/>
<path d="M20.8318 70.8353C21.3843 70.8353 21.9142 70.6158 22.3049 70.2252C22.6955 69.8345 22.915 69.3046 22.915 68.7521C22.915 68.1996 22.6955 67.6698 22.3049 67.2791C21.9142 66.8884 21.3843 66.6689 20.8318 66.6689C19.1743 66.6689 17.5847 67.3274 16.4127 68.4994C15.2407 69.6714 14.5823 71.261 14.5823 72.9185V81.2512C14.5823 82.9087 15.2407 84.4983 16.4127 85.6703C17.5847 86.8423 19.1743 87.5008 20.8318 87.5008H37.4973C39.1548 87.5008 40.7444 86.8423 41.9164 85.6703C43.0884 84.4983 43.7468 82.9087 43.7468 81.2512V72.9185C43.7468 71.261 43.0884 69.6714 41.9164 68.4994C40.7444 67.3274 39.1548 66.6689 37.4973 66.6689H31.2477V62.5026H68.745V66.6689H62.4955C60.838 66.6689 59.2484 67.3274 58.0764 68.4994C56.9044 69.6714 56.2459 71.261 56.2459 72.9185V81.2512C56.2459 82.9087 56.9044 84.4983 58.0764 85.6703C59.2484 86.8423 60.838 87.5008 62.4955 87.5008H79.161C80.8185 87.5008 82.408 86.8423 83.5801 85.6703C84.7521 84.4983 85.4105 82.9087 85.4105 81.2512V72.9185C85.4105 71.261 84.7521 69.6714 83.5801 68.4994C82.408 67.3274 80.8185 66.6689 79.161 66.6689C78.6085 66.6689 78.0786 66.8884 77.6879 67.2791C77.2973 67.6698 77.0778 68.1996 77.0778 68.7521C77.0778 69.3046 77.2973 69.8345 77.6879 70.2252C78.0786 70.6158 78.6085 70.8353 79.161 70.8353C79.7135 70.8353 80.2433 71.0548 80.634 71.4454C81.0247 71.8361 81.2441 72.366 81.2441 72.9185V81.2512C81.2441 81.8037 81.0247 82.3336 80.634 82.7243C80.2433 83.1149 79.7135 83.3344 79.161 83.3344H62.4955C61.943 83.3344 61.4131 83.1149 61.0225 82.7243C60.6318 82.3336 60.4123 81.8037 60.4123 81.2512V72.9185C60.4123 72.366 60.6318 71.8361 61.0225 71.4454C61.4131 71.0548 61.943 70.8353 62.4955 70.8353H70.8282C71.3807 70.8353 71.9106 70.6158 72.3013 70.2252C72.6919 69.8345 72.9114 69.3046 72.9114 68.7521V60.4194C72.9114 59.8669 72.6919 59.337 72.3013 58.9463C71.9106 58.5557 71.3807 58.3362 70.8282 58.3362H52.0796V50.0035H58.3291C59.9866 50.0035 61.5762 49.345 62.7482 48.173C63.9202 47.001 64.5787 45.4114 64.5787 43.7539V35.4212C64.5787 33.7637 63.9202 32.1741 62.7482 31.0021C61.5762 29.8301 59.9866 29.1716 58.3291 29.1716H41.6637C40.0062 29.1716 38.4166 29.8301 37.2446 31.0021C36.0725 32.1741 35.4141 33.7637 35.4141 35.4212V43.7539C35.4141 45.4114 36.0725 47.001 37.2446 48.173C38.4166 49.345 40.0062 50.0035 41.6637 50.0035C42.2162 50.0035 42.746 49.784 43.1367 49.3933C43.5274 49.0026 43.7468 48.4728 43.7468 47.9203C43.7468 47.3678 43.5274 46.8379 43.1367 46.4472C42.746 46.0566 42.2162 45.8371 41.6637 45.8371C41.1112 45.8371 40.5813 45.6176 40.1906 45.2269C39.8 44.8363 39.5805 44.3064 39.5805 43.7539V35.4212C39.5805 34.8687 39.8 34.3388 40.1906 33.9481C40.5813 33.5575 41.1112 33.338 41.6637 33.338H58.3291C58.8816 33.338 59.4115 33.5575 59.8022 33.9481C60.1928 34.3388 60.4123 34.8687 60.4123 35.4212V43.7539C60.4123 44.3064 60.1928 44.8363 59.8022 45.2269C59.4115 45.6176 58.8816 45.8371 58.3291 45.8371H49.9964C49.4439 45.8371 48.914 46.0566 48.5234 46.4472C48.1327 46.8379 47.9132 47.3678 47.9132 47.9203V58.3362H29.1646C28.6121 58.3362 28.0822 58.5557 27.6915 58.9463C27.3009 59.337 27.0814 59.8669 27.0814 60.4194V68.7521C27.0814 69.3046 27.3009 69.8345 27.6915 70.2252C28.0822 70.6158 28.6121 70.8353 29.1646 70.8353H37.4973C38.0498 70.8353 38.5797 71.0548 38.9703 71.4454C39.361 71.8361 39.5805 72.366 39.5805 72.9185V81.2512C39.5805 81.8037 39.361 82.3336 38.9703 82.7243C38.5797 83.1149 38.0498 83.3344 37.4973 83.3344H20.8318C20.2793 83.3344 19.7495 83.1149 19.3588 82.7243C18.9681 82.3336 18.7486 81.8037 18.7486 81.2512V72.9185C18.7486 72.366 18.9681 71.8361 19.3588 71.4454C19.7495 71.0548 20.2793 70.8353 20.8318 70.8353Z" fill="#3C7CFF"/>
</svg>
