<svg width="100" height="101" viewBox="0 0 100 101" fill="none" xmlns="http://www.w3.org/2000/svg">
<path d="M15.0272 35.1076H45.7171C46.6073 35.1076 47.3295 34.3854 47.3295 33.4952V21.4024C47.3295 20.5123 46.6073 19.79 45.7171 19.79H15.0272C14.137 19.79 13.4148 20.5123 13.4148 21.4024V33.4952C13.4148 34.3854 14.137 35.1076 15.0272 35.1076ZM16.6395 23.0148H44.1047V31.8828H16.6395V23.0148Z" fill="#3C7CFF"/>
<path d="M96.7425 0.764981C93.7026 -0.889422 89.8857 0.227523 88.2271 3.26749L86.8415 5.81623H4.65234C2.08265 5.81623 0 7.90307 0 10.4686V72.5578C0 75.1275 2.08684 77.2102 4.65234 77.2102H37.5759V86.4225H17.7781C16.888 86.4225 16.1658 87.1447 16.1658 88.0349V98.7841C16.1658 99.6742 16.888 100.396 17.7781 100.396H82.2731C83.1632 100.396 83.8855 99.6742 83.8855 98.7841V88.0349C83.8855 87.1447 83.1632 86.4225 82.2731 86.4225H62.3871V77.2102H95.3107C97.8804 77.2102 99.9631 75.1234 99.9631 72.5578L99.9673 10.4686C99.9673 9.80095 99.8161 9.16695 99.56 8.58747C100.71 5.68605 99.5474 2.29749 96.7425 0.760789V0.764981ZM80.6607 97.1752L19.3905 97.1711V89.6466H80.6607V97.1752ZM59.1624 86.4261H40.805V77.2137H59.1624V86.4261ZM60.7748 73.9893L4.65234 73.9851C3.86715 73.9851 3.22475 73.3385 3.22475 72.5575V10.4682C3.22475 9.68305 3.87137 9.04064 4.65234 9.04064H85.0775L82.9697 12.8994H8.5028C7.61264 12.8994 6.89043 13.6216 6.89043 14.5117V66.9268C6.89043 67.817 7.61264 68.5392 8.5028 68.5392H91.4519C92.3421 68.5392 93.0643 67.817 93.0643 66.9268V20.5958L93.6437 19.5209L96.7299 13.865V72.5575C96.7299 73.3427 96.0833 73.9851 95.3023 73.9851H60.7749L60.7748 73.9893ZM95.1936 3.60383C96.6674 4.41002 97.2132 6.27016 96.4071 7.74398L94.9458 10.4187L89.5922 7.49621L91.0534 4.8215C91.8596 3.34768 93.7197 2.80184 95.1936 3.60803V3.60383ZM91.5909 16.5662L86.2373 13.6438L88.0554 10.3225L93.409 13.245L91.5909 16.5662ZM67.4053 57.4969C66.6831 58.2821 65.8559 57.9168 65.6207 57.7866C65.3856 57.6564 64.6298 57.1526 64.8985 56.1322L66.112 51.4546L70.6678 53.9362L67.3884 57.4926L67.4053 57.4969ZM67.2667 48.4021L84.6922 16.4653L90.0458 19.3878L72.6203 51.3246L67.2667 48.4021ZM63.664 48.272V48.2846C63.643 48.3182 63.643 48.3475 63.622 48.3811C63.5884 48.4567 63.5591 48.5323 63.5381 48.6079C63.5381 48.6205 63.5381 48.6289 63.5255 48.6415L61.7829 55.3177C61.2329 57.434 62.1482 59.5753 64.0713 60.6167C64.8019 61.0156 65.5745 61.2087 66.3387 61.2087C67.6068 61.2087 68.8412 60.6839 69.7692 59.6803L74.4468 54.608C74.5308 54.5114 74.6064 54.4022 74.6736 54.2973L89.832 26.5086V65.3227H10.1163V16.1238H81.2123L63.6697 48.2874L63.664 48.272Z" fill="#3C7CFF"/>
<path d="M67.0943 24.7239H72.62C73.5102 24.7239 74.2324 24.0017 74.2324 23.1115C74.2324 22.2214 73.5102 21.4991 72.62 21.4991H67.0943C66.2041 21.4991 65.4819 22.2214 65.4819 23.1115C65.4819 24.0017 66.2041 24.7239 67.0943 24.7239Z" fill="#3C7CFF"/>
<path d="M55.4002 33.4953H66.1494C67.0395 33.4953 67.7617 32.773 67.7617 31.8829C67.7617 30.9927 67.0395 30.2705 66.1494 30.2705H55.4002C54.5101 30.2705 53.7878 30.9927 53.7878 31.8829C53.7878 32.773 54.5101 33.4953 55.4002 33.4953Z" fill="#3C7CFF"/>
<path d="M61.5593 39.03H15.0692C14.179 39.03 13.4568 39.7522 13.4568 40.6424C13.4568 41.5326 14.179 42.2548 15.0692 42.2548H61.5593C62.4494 42.2548 63.1716 41.5326 63.1716 40.6424C63.1716 39.7522 62.4494 39.03 61.5593 39.03Z" fill="#3C7CFF"/>
<path d="M15.0272 51.026H55.3999C56.2901 51.026 57.0123 50.3038 57.0123 49.4136C57.0123 48.5235 56.2901 47.8013 55.3999 47.8013H15.0272C14.137 47.8013 13.4148 48.5235 13.4148 49.4136C13.4148 50.3038 14.137 51.026 15.0272 51.026Z" fill="#3C7CFF"/>
<path d="M14.9737 59.7887H55.4002C56.2904 59.7887 57.0126 59.0665 57.0126 58.1763C57.0126 57.2862 56.2904 56.564 55.4002 56.564H14.9737C14.0835 56.564 13.3613 57.2862 13.3613 58.1763C13.3613 59.0665 14.0835 59.7887 14.9737 59.7887Z" fill="#3C7CFF"/>
<path d="M78.6624 59.7887H84.713C85.6032 59.7887 86.3254 59.0665 86.3254 58.1763C86.3254 57.2862 85.6032 56.564 84.713 56.564H78.6624C77.7723 56.564 77.05 57.2862 77.05 58.1763C77.05 59.0665 77.7723 59.7887 78.6624 59.7887Z" fill="#3C7CFF"/>
<path d="M82.273 51.026H84.7125C85.6027 51.026 86.3249 50.3038 86.3249 49.4136C86.3249 48.5235 85.6027 47.8013 84.7125 47.8013H82.273C81.3829 47.8013 80.6606 48.5235 80.6606 49.4136C80.6606 50.3038 81.3829 51.026 82.273 51.026Z" fill="#3C7CFF"/>
</svg>
