<svg width="102" height="101" viewBox="0 0 102 101" fill="none" xmlns="http://www.w3.org/2000/svg">
<mask id="path-1-outside-1_166_164" maskUnits="userSpaceOnUse" x="0" y="13.5276" width="102" height="74" fill="black">
<rect fill="white" y="13.5276" width="102" height="74"/>
<path fill-rule="evenodd" clip-rule="evenodd" d="M37.7772 51.929C37.5044 51.6555 37.1452 51.4851 36.7609 51.4468C36.3765 51.4086 35.9908 51.5048 35.6694 51.7191C35.3481 51.9334 35.111 52.2525 34.9986 52.622C34.8862 52.9916 34.9055 53.3887 35.0531 53.7456C35.2007 54.1025 35.4676 54.3972 35.8082 54.5794C36.1488 54.7616 36.542 54.82 36.9208 54.7447C37.2997 54.6694 37.6407 54.4651 37.8857 54.1665C38.1307 53.8679 38.2646 53.4936 38.2645 53.1073C38.2648 52.8885 38.222 52.6718 38.1383 52.4696C38.0547 52.2674 37.932 52.0836 37.7772 51.929ZM36.5988 48.7834C37.6002 48.783 38.5708 49.1299 39.3451 49.765C40.1194 50.4 40.6496 51.2839 40.8452 52.266C41.0409 53.2482 40.89 54.2677 40.4182 55.1511C39.9464 56.0344 39.1829 56.7268 38.2578 57.1103C37.3327 57.4938 36.3033 57.5446 35.3449 57.2542C34.3865 56.9637 33.5585 56.35 33.0019 55.5175C32.4453 54.685 32.1946 53.6852 32.2926 52.6886C32.3905 51.692 32.8309 50.7601 33.5389 50.0518C33.9402 49.6492 34.4171 49.3299 34.9422 49.1122C35.4674 48.8945 36.0303 48.7828 36.5988 48.7834ZM69.3291 41.1302C69.6027 41.4024 69.8199 41.7259 69.9683 42.0822C70.1166 42.4385 70.1932 42.8205 70.1936 43.2065V75.5217C70.1901 76.3006 69.8792 77.0466 69.3284 77.5973C68.7776 78.1481 68.0316 78.459 67.2528 78.4626H6.60359C5.82451 78.4593 5.07824 78.1485 4.52723 77.5977C3.97623 77.0469 3.66511 76.3008 3.66159 75.5217V43.202C3.66453 42.4228 3.97546 41.6763 4.52659 41.1254C5.07772 40.5744 5.82433 40.2638 6.60359 40.2611H67.2528C67.6387 40.2614 68.0209 40.3379 68.3772 40.4862C68.7335 40.6346 69.057 40.8519 69.3291 41.1257V41.1302ZM9.214 60.6292V58.0934C9.18664 57.7592 9.03458 57.4476 8.78803 57.2204C8.54148 56.9932 8.21847 56.8671 7.8832 56.8671C7.54793 56.8671 7.22492 56.9932 6.97837 57.2204C6.73181 57.4476 6.57976 57.7592 6.5524 58.0934V60.6292C6.57976 60.9634 6.73181 61.275 6.97837 61.5022C7.22492 61.7294 7.54793 61.8555 7.8832 61.8555C8.21847 61.8555 8.54148 61.7294 8.78803 61.5022C9.03458 61.275 9.18664 60.9634 9.214 60.6292ZM60.7323 44.5918V74.1308C60.7323 74.4849 60.5916 74.8246 60.3412 75.075C60.0908 75.3254 59.7512 75.466 59.397 75.466H13.2798C12.9257 75.466 12.5861 75.3254 12.3357 75.075C12.0853 74.8246 11.9446 74.4849 11.9446 74.1308V44.5918C11.9446 44.2377 12.0853 43.898 12.3357 43.6476C12.5861 43.3972 12.9257 43.2565 13.2798 43.2565H59.397C59.7512 43.2565 60.0908 43.3972 60.3412 43.6476C60.5916 43.898 60.7323 44.2377 60.7323 44.5918ZM36.8603 62.9448L29.7145 58.0923C29.4994 57.9274 29.239 57.8323 28.9683 57.8198C28.6976 57.8072 28.4295 57.8779 28.2001 58.0222L14.6084 66.5622V45.9226H58.0662V64.8698L45.4804 58.04C45.2681 57.9245 45.0282 57.8694 44.7867 57.8806C44.5453 57.8917 44.3115 57.9688 44.1107 58.1034L36.8625 62.9403L36.8603 62.9448ZM36.166 65.6765C36.1281 65.6531 36.0914 65.6275 36.0547 65.6008L28.8811 60.7283L14.6084 69.7022V72.8056H58.0662V67.8963L44.9129 60.7605L39.2292 64.5526L41.1409 65.8512C41.2849 65.949 41.4082 66.0742 41.5038 66.2197C41.5994 66.3652 41.6654 66.5281 41.6981 66.6991C41.7307 66.8701 41.7294 67.0459 41.6941 67.2163C41.6588 67.3868 41.5903 67.5487 41.4925 67.6927C41.3947 67.8367 41.2694 67.96 41.1239 68.0556C40.9784 68.1512 40.8156 68.2172 40.6446 68.2499C40.4735 68.2825 40.2978 68.2812 40.1273 68.2459C39.9568 68.2106 39.795 68.1421 39.651 68.0443L36.1626 65.6765H36.166ZM66.6285 61.5795V57.1398C66.6028 56.8043 66.4514 56.4908 66.2046 56.2622C65.9577 56.0335 65.6337 55.9064 65.2972 55.9064C64.9607 55.9064 64.6366 56.0335 64.3897 56.2622C64.1429 56.4908 63.9915 56.8043 63.9658 57.1398V61.5795C63.9915 61.915 64.1429 62.2284 64.3897 62.4571C64.6366 62.6858 64.9607 62.8128 65.2972 62.8128C65.6337 62.8128 65.9577 62.6858 66.2046 62.4571C66.4514 62.2284 66.6028 61.915 66.6285 61.5795ZM57.4765 37.5995V20.1301C57.4797 18.6452 58.071 17.2221 59.121 16.1721C60.171 15.1221 61.5941 14.5308 63.079 14.5276H95.3975C96.8822 14.5314 98.305 15.1229 99.3549 16.1727C100.405 17.2226 100.996 18.6454 101 20.1301V80.7781C100.996 82.2628 100.405 83.6856 99.3549 84.7354C98.305 85.7853 96.8822 86.3768 95.3975 86.3806H63.079C61.6542 86.3765 60.284 85.8314 59.2458 84.8556C58.2076 83.8798 57.5788 82.546 57.4865 81.1242H6.60359C5.11852 81.1212 3.6951 80.5301 2.64489 79.48C1.59468 78.4301 1.00323 77.0068 1 75.5217V43.202C1.00323 41.717 1.59468 40.2937 2.64489 39.2437C3.6951 38.1937 5.11852 37.6025 6.60359 37.5995H57.4765ZM77.9703 22.7382H80.5062C80.8403 22.7109 81.152 22.5588 81.3792 22.3123C81.6064 22.0657 81.7325 21.7427 81.7325 21.4074C81.7325 21.0722 81.6064 20.7492 81.3792 20.5026C81.152 20.2561 80.8403 20.104 80.5062 20.0767H77.9703C77.7864 20.0616 77.6014 20.0848 77.4269 20.1449C77.2524 20.2049 77.0923 20.3005 76.9566 20.4255C76.8209 20.5506 76.7126 20.7024 76.6385 20.8714C76.5644 21.0404 76.5261 21.2229 76.5261 21.4074C76.5261 21.592 76.5644 21.7745 76.6385 21.9435C76.7126 22.1125 76.8209 22.2643 76.9566 22.3894C77.0923 22.5144 77.2524 22.61 77.4269 22.67C77.6014 22.7301 77.7864 22.7533 77.9703 22.7382ZM63.138 37.5995V26.8063C63.138 26.4522 63.2786 26.1125 63.529 25.8621C63.7794 25.6117 64.1191 25.4711 64.4732 25.4711H94.0078C94.3619 25.4711 94.7015 25.6117 94.9519 25.8621C95.2023 26.1125 95.343 26.4522 95.343 26.8063V72.9224C95.343 73.2765 95.2023 73.6162 94.9519 73.8666C94.7015 74.117 94.3619 74.2576 94.0078 74.2576H72.8552V75.5261C72.852 77.011 72.2607 78.4341 71.2107 79.4841C70.1608 80.5341 68.7376 81.1254 67.2528 81.1286H60.1581C60.2466 81.8421 60.5919 82.4989 61.1294 82.9763C61.667 83.4537 62.3601 83.7189 63.079 83.7223H95.3975C96.1764 83.7188 96.9224 83.4079 97.4732 82.8571C98.0239 82.3063 98.3349 81.5603 98.3384 80.7814V20.1267C98.3358 19.3473 98.0252 18.6004 97.4743 18.0489C96.9235 17.4975 96.177 17.186 95.3975 17.1825H63.079C62.3001 17.186 61.5541 17.497 61.0033 18.0478C60.4526 18.5985 60.1416 19.3445 60.1381 20.1234V37.5929L63.138 37.5995ZM92.677 59.4475L84.4429 55.0546L81.5499 57.3167L82.3088 57.8731C82.5913 58.0826 82.7791 58.3958 82.8307 58.7437C82.8824 59.0917 82.7937 59.4459 82.5842 59.7285C82.3746 60.0111 82.0614 60.1988 81.7135 60.2505C81.3655 60.3021 81.0113 60.2134 80.7287 60.0039L74.5443 55.4418L72.8552 56.8104V71.5938H92.677V59.4475ZM79.3356 55.6821L83.4916 52.4341C83.6982 52.2717 83.9486 52.1744 84.2107 52.1545C84.4728 52.1347 84.7349 52.1933 84.9637 52.3229L92.6747 56.4399V28.1326H65.7996V37.5995H67.2528C68.7376 37.6028 70.1608 38.1941 71.2107 39.244C72.2607 40.294 72.852 41.7171 72.8552 43.202V53.3966L73.6697 52.7379C73.9016 52.551 74.1893 52.4469 74.487 52.4423C74.7848 52.4376 75.0756 52.5327 75.3132 52.7123L79.3356 55.6821ZM77.0156 80.1528H81.4564C81.7906 80.1254 82.1022 79.9734 82.3294 79.7268C82.5566 79.4802 82.6827 79.1572 82.6827 78.822C82.6827 78.4867 82.5566 78.1637 82.3294 77.9171C82.1022 77.6706 81.7906 77.5185 81.4564 77.4912H77.0156C76.6815 77.5185 76.3698 77.6706 76.1426 77.9171C75.9154 78.1637 75.7893 78.4867 75.7893 78.822C75.7893 79.1572 75.9154 79.4802 76.1426 79.7268C76.3698 79.9734 76.6815 80.1254 77.0156 80.1528ZM79.2166 49.3152H79.2611C79.8914 49.3152 80.4959 49.0648 80.9417 48.6191C81.3874 48.1734 81.6378 47.5688 81.6378 46.9385C81.6378 46.3081 81.3874 45.7036 80.9417 45.2579C80.4959 44.8122 79.8914 44.5618 79.2611 44.5618H79.2166C78.5862 44.5618 77.9817 44.8122 77.5359 45.2579C77.0902 45.7036 76.8398 46.3081 76.8398 46.9385C76.8398 47.5688 77.0902 48.1734 77.5359 48.6191C77.9817 49.0648 78.5862 49.3152 79.2166 49.3152Z"/>
</mask>
<path fill-rule="evenodd" clip-rule="evenodd" d="M37.7772 51.929C37.5044 51.6555 37.1452 51.4851 36.7609 51.4468C36.3765 51.4086 35.9908 51.5048 35.6694 51.7191C35.3481 51.9334 35.111 52.2525 34.9986 52.622C34.8862 52.9916 34.9055 53.3887 35.0531 53.7456C35.2007 54.1025 35.4676 54.3972 35.8082 54.5794C36.1488 54.7616 36.542 54.82 36.9208 54.7447C37.2997 54.6694 37.6407 54.4651 37.8857 54.1665C38.1307 53.8679 38.2646 53.4936 38.2645 53.1073C38.2648 52.8885 38.222 52.6718 38.1383 52.4696C38.0547 52.2674 37.932 52.0836 37.7772 51.929ZM36.5988 48.7834C37.6002 48.783 38.5708 49.1299 39.3451 49.765C40.1194 50.4 40.6496 51.2839 40.8452 52.266C41.0409 53.2482 40.89 54.2677 40.4182 55.1511C39.9464 56.0344 39.1829 56.7268 38.2578 57.1103C37.3327 57.4938 36.3033 57.5446 35.3449 57.2542C34.3865 56.9637 33.5585 56.35 33.0019 55.5175C32.4453 54.685 32.1946 53.6852 32.2926 52.6886C32.3905 51.692 32.8309 50.7601 33.5389 50.0518C33.9402 49.6492 34.4171 49.3299 34.9422 49.1122C35.4674 48.8945 36.0303 48.7828 36.5988 48.7834ZM69.3291 41.1302C69.6027 41.4024 69.8199 41.7259 69.9683 42.0822C70.1166 42.4385 70.1932 42.8205 70.1936 43.2065V75.5217C70.1901 76.3006 69.8792 77.0466 69.3284 77.5973C68.7776 78.1481 68.0316 78.459 67.2528 78.4626H6.60359C5.82451 78.4593 5.07824 78.1485 4.52723 77.5977C3.97623 77.0469 3.66511 76.3008 3.66159 75.5217V43.202C3.66453 42.4228 3.97546 41.6763 4.52659 41.1254C5.07772 40.5744 5.82433 40.2638 6.60359 40.2611H67.2528C67.6387 40.2614 68.0209 40.3379 68.3772 40.4862C68.7335 40.6346 69.057 40.8519 69.3291 41.1257V41.1302ZM9.214 60.6292V58.0934C9.18664 57.7592 9.03458 57.4476 8.78803 57.2204C8.54148 56.9932 8.21847 56.8671 7.8832 56.8671C7.54793 56.8671 7.22492 56.9932 6.97837 57.2204C6.73181 57.4476 6.57976 57.7592 6.5524 58.0934V60.6292C6.57976 60.9634 6.73181 61.275 6.97837 61.5022C7.22492 61.7294 7.54793 61.8555 7.8832 61.8555C8.21847 61.8555 8.54148 61.7294 8.78803 61.5022C9.03458 61.275 9.18664 60.9634 9.214 60.6292ZM60.7323 44.5918V74.1308C60.7323 74.4849 60.5916 74.8246 60.3412 75.075C60.0908 75.3254 59.7512 75.466 59.397 75.466H13.2798C12.9257 75.466 12.5861 75.3254 12.3357 75.075C12.0853 74.8246 11.9446 74.4849 11.9446 74.1308V44.5918C11.9446 44.2377 12.0853 43.898 12.3357 43.6476C12.5861 43.3972 12.9257 43.2565 13.2798 43.2565H59.397C59.7512 43.2565 60.0908 43.3972 60.3412 43.6476C60.5916 43.898 60.7323 44.2377 60.7323 44.5918ZM36.8603 62.9448L29.7145 58.0923C29.4994 57.9274 29.239 57.8323 28.9683 57.8198C28.6976 57.8072 28.4295 57.8779 28.2001 58.0222L14.6084 66.5622V45.9226H58.0662V64.8698L45.4804 58.04C45.2681 57.9245 45.0282 57.8694 44.7867 57.8806C44.5453 57.8917 44.3115 57.9688 44.1107 58.1034L36.8625 62.9403L36.8603 62.9448ZM36.166 65.6765C36.1281 65.6531 36.0914 65.6275 36.0547 65.6008L28.8811 60.7283L14.6084 69.7022V72.8056H58.0662V67.8963L44.9129 60.7605L39.2292 64.5526L41.1409 65.8512C41.2849 65.949 41.4082 66.0742 41.5038 66.2197C41.5994 66.3652 41.6654 66.5281 41.6981 66.6991C41.7307 66.8701 41.7294 67.0459 41.6941 67.2163C41.6588 67.3868 41.5903 67.5487 41.4925 67.6927C41.3947 67.8367 41.2694 67.96 41.1239 68.0556C40.9784 68.1512 40.8156 68.2172 40.6446 68.2499C40.4735 68.2825 40.2978 68.2812 40.1273 68.2459C39.9568 68.2106 39.795 68.1421 39.651 68.0443L36.1626 65.6765H36.166ZM66.6285 61.5795V57.1398C66.6028 56.8043 66.4514 56.4908 66.2046 56.2622C65.9577 56.0335 65.6337 55.9064 65.2972 55.9064C64.9607 55.9064 64.6366 56.0335 64.3897 56.2622C64.1429 56.4908 63.9915 56.8043 63.9658 57.1398V61.5795C63.9915 61.915 64.1429 62.2284 64.3897 62.4571C64.6366 62.6858 64.9607 62.8128 65.2972 62.8128C65.6337 62.8128 65.9577 62.6858 66.2046 62.4571C66.4514 62.2284 66.6028 61.915 66.6285 61.5795ZM57.4765 37.5995V20.1301C57.4797 18.6452 58.071 17.2221 59.121 16.1721C60.171 15.1221 61.5941 14.5308 63.079 14.5276H95.3975C96.8822 14.5314 98.305 15.1229 99.3549 16.1727C100.405 17.2226 100.996 18.6454 101 20.1301V80.7781C100.996 82.2628 100.405 83.6856 99.3549 84.7354C98.305 85.7853 96.8822 86.3768 95.3975 86.3806H63.079C61.6542 86.3765 60.284 85.8314 59.2458 84.8556C58.2076 83.8798 57.5788 82.546 57.4865 81.1242H6.60359C5.11852 81.1212 3.6951 80.5301 2.64489 79.48C1.59468 78.4301 1.00323 77.0068 1 75.5217V43.202C1.00323 41.717 1.59468 40.2937 2.64489 39.2437C3.6951 38.1937 5.11852 37.6025 6.60359 37.5995H57.4765ZM77.9703 22.7382H80.5062C80.8403 22.7109 81.152 22.5588 81.3792 22.3123C81.6064 22.0657 81.7325 21.7427 81.7325 21.4074C81.7325 21.0722 81.6064 20.7492 81.3792 20.5026C81.152 20.2561 80.8403 20.104 80.5062 20.0767H77.9703C77.7864 20.0616 77.6014 20.0848 77.4269 20.1449C77.2524 20.2049 77.0923 20.3005 76.9566 20.4255C76.8209 20.5506 76.7126 20.7024 76.6385 20.8714C76.5644 21.0404 76.5261 21.2229 76.5261 21.4074C76.5261 21.592 76.5644 21.7745 76.6385 21.9435C76.7126 22.1125 76.8209 22.2643 76.9566 22.3894C77.0923 22.5144 77.2524 22.61 77.4269 22.67C77.6014 22.7301 77.7864 22.7533 77.9703 22.7382ZM63.138 37.5995V26.8063C63.138 26.4522 63.2786 26.1125 63.529 25.8621C63.7794 25.6117 64.1191 25.4711 64.4732 25.4711H94.0078C94.3619 25.4711 94.7015 25.6117 94.9519 25.8621C95.2023 26.1125 95.343 26.4522 95.343 26.8063V72.9224C95.343 73.2765 95.2023 73.6162 94.9519 73.8666C94.7015 74.117 94.3619 74.2576 94.0078 74.2576H72.8552V75.5261C72.852 77.011 72.2607 78.4341 71.2107 79.4841C70.1608 80.5341 68.7376 81.1254 67.2528 81.1286H60.1581C60.2466 81.8421 60.5919 82.4989 61.1294 82.9763C61.667 83.4537 62.3601 83.7189 63.079 83.7223H95.3975C96.1764 83.7188 96.9224 83.4079 97.4732 82.8571C98.0239 82.3063 98.3349 81.5603 98.3384 80.7814V20.1267C98.3358 19.3473 98.0252 18.6004 97.4743 18.0489C96.9235 17.4975 96.177 17.186 95.3975 17.1825H63.079C62.3001 17.186 61.5541 17.497 61.0033 18.0478C60.4526 18.5985 60.1416 19.3445 60.1381 20.1234V37.5929L63.138 37.5995ZM92.677 59.4475L84.4429 55.0546L81.5499 57.3167L82.3088 57.8731C82.5913 58.0826 82.7791 58.3958 82.8307 58.7437C82.8824 59.0917 82.7937 59.4459 82.5842 59.7285C82.3746 60.0111 82.0614 60.1988 81.7135 60.2505C81.3655 60.3021 81.0113 60.2134 80.7287 60.0039L74.5443 55.4418L72.8552 56.8104V71.5938H92.677V59.4475ZM79.3356 55.6821L83.4916 52.4341C83.6982 52.2717 83.9486 52.1744 84.2107 52.1545C84.4728 52.1347 84.7349 52.1933 84.9637 52.3229L92.6747 56.4399V28.1326H65.7996V37.5995H67.2528C68.7376 37.6028 70.1608 38.1941 71.2107 39.244C72.2607 40.294 72.852 41.7171 72.8552 43.202V53.3966L73.6697 52.7379C73.9016 52.551 74.1893 52.4469 74.487 52.4423C74.7848 52.4376 75.0756 52.5327 75.3132 52.7123L79.3356 55.6821ZM77.0156 80.1528H81.4564C81.7906 80.1254 82.1022 79.9734 82.3294 79.7268C82.5566 79.4802 82.6827 79.1572 82.6827 78.822C82.6827 78.4867 82.5566 78.1637 82.3294 77.9171C82.1022 77.6706 81.7906 77.5185 81.4564 77.4912H77.0156C76.6815 77.5185 76.3698 77.6706 76.1426 77.9171C75.9154 78.1637 75.7893 78.4867 75.7893 78.822C75.7893 79.1572 75.9154 79.4802 76.1426 79.7268C76.3698 79.9734 76.6815 80.1254 77.0156 80.1528ZM79.2166 49.3152H79.2611C79.8914 49.3152 80.4959 49.0648 80.9417 48.6191C81.3874 48.1734 81.6378 47.5688 81.6378 46.9385C81.6378 46.3081 81.3874 45.7036 80.9417 45.2579C80.4959 44.8122 79.8914 44.5618 79.2611 44.5618H79.2166C78.5862 44.5618 77.9817 44.8122 77.5359 45.2579C77.0902 45.7036 76.8398 46.3081 76.8398 46.9385C76.8398 47.5688 77.0902 48.1734 77.5359 48.6191C77.9817 49.0648 78.5862 49.3152 79.2166 49.3152Z" fill="#3C7CFF"/>
<path fill-rule="evenodd" clip-rule="evenodd" d="M37.7772 51.929C37.5044 51.6555 37.1452 51.4851 36.7609 51.4468C36.3765 51.4086 35.9908 51.5048 35.6694 51.7191C35.3481 51.9334 35.111 52.2525 34.9986 52.622C34.8862 52.9916 34.9055 53.3887 35.0531 53.7456C35.2007 54.1025 35.4676 54.3972 35.8082 54.5794C36.1488 54.7616 36.542 54.82 36.9208 54.7447C37.2997 54.6694 37.6407 54.4651 37.8857 54.1665C38.1307 53.8679 38.2646 53.4936 38.2645 53.1073C38.2648 52.8885 38.222 52.6718 38.1383 52.4696C38.0547 52.2674 37.932 52.0836 37.7772 51.929ZM36.5988 48.7834C37.6002 48.783 38.5708 49.1299 39.3451 49.765C40.1194 50.4 40.6496 51.2839 40.8452 52.266C41.0409 53.2482 40.89 54.2677 40.4182 55.1511C39.9464 56.0344 39.1829 56.7268 38.2578 57.1103C37.3327 57.4938 36.3033 57.5446 35.3449 57.2542C34.3865 56.9637 33.5585 56.35 33.0019 55.5175C32.4453 54.685 32.1946 53.6852 32.2926 52.6886C32.3905 51.692 32.8309 50.7601 33.5389 50.0518C33.9402 49.6492 34.4171 49.3299 34.9422 49.1122C35.4674 48.8945 36.0303 48.7828 36.5988 48.7834ZM69.3291 41.1302C69.6027 41.4024 69.8199 41.7259 69.9683 42.0822C70.1166 42.4385 70.1932 42.8205 70.1936 43.2065V75.5217C70.1901 76.3006 69.8792 77.0466 69.3284 77.5973C68.7776 78.1481 68.0316 78.459 67.2528 78.4626H6.60359C5.82451 78.4593 5.07824 78.1485 4.52723 77.5977C3.97623 77.0469 3.66511 76.3008 3.66159 75.5217V43.202C3.66453 42.4228 3.97546 41.6763 4.52659 41.1254C5.07772 40.5744 5.82433 40.2638 6.60359 40.2611H67.2528C67.6387 40.2614 68.0209 40.3379 68.3772 40.4862C68.7335 40.6346 69.057 40.8519 69.3291 41.1257V41.1302ZM9.214 60.6292V58.0934C9.18664 57.7592 9.03458 57.4476 8.78803 57.2204C8.54148 56.9932 8.21847 56.8671 7.8832 56.8671C7.54793 56.8671 7.22492 56.9932 6.97837 57.2204C6.73181 57.4476 6.57976 57.7592 6.5524 58.0934V60.6292C6.57976 60.9634 6.73181 61.275 6.97837 61.5022C7.22492 61.7294 7.54793 61.8555 7.8832 61.8555C8.21847 61.8555 8.54148 61.7294 8.78803 61.5022C9.03458 61.275 9.18664 60.9634 9.214 60.6292ZM60.7323 44.5918V74.1308C60.7323 74.4849 60.5916 74.8246 60.3412 75.075C60.0908 75.3254 59.7512 75.466 59.397 75.466H13.2798C12.9257 75.466 12.5861 75.3254 12.3357 75.075C12.0853 74.8246 11.9446 74.4849 11.9446 74.1308V44.5918C11.9446 44.2377 12.0853 43.898 12.3357 43.6476C12.5861 43.3972 12.9257 43.2565 13.2798 43.2565H59.397C59.7512 43.2565 60.0908 43.3972 60.3412 43.6476C60.5916 43.898 60.7323 44.2377 60.7323 44.5918ZM36.8603 62.9448L29.7145 58.0923C29.4994 57.9274 29.239 57.8323 28.9683 57.8198C28.6976 57.8072 28.4295 57.8779 28.2001 58.0222L14.6084 66.5622V45.9226H58.0662V64.8698L45.4804 58.04C45.2681 57.9245 45.0282 57.8694 44.7867 57.8806C44.5453 57.8917 44.3115 57.9688 44.1107 58.1034L36.8625 62.9403L36.8603 62.9448ZM36.166 65.6765C36.1281 65.6531 36.0914 65.6275 36.0547 65.6008L28.8811 60.7283L14.6084 69.7022V72.8056H58.0662V67.8963L44.9129 60.7605L39.2292 64.5526L41.1409 65.8512C41.2849 65.949 41.4082 66.0742 41.5038 66.2197C41.5994 66.3652 41.6654 66.5281 41.6981 66.6991C41.7307 66.8701 41.7294 67.0459 41.6941 67.2163C41.6588 67.3868 41.5903 67.5487 41.4925 67.6927C41.3947 67.8367 41.2694 67.96 41.1239 68.0556C40.9784 68.1512 40.8156 68.2172 40.6446 68.2499C40.4735 68.2825 40.2978 68.2812 40.1273 68.2459C39.9568 68.2106 39.795 68.1421 39.651 68.0443L36.1626 65.6765H36.166ZM66.6285 61.5795V57.1398C66.6028 56.8043 66.4514 56.4908 66.2046 56.2622C65.9577 56.0335 65.6337 55.9064 65.2972 55.9064C64.9607 55.9064 64.6366 56.0335 64.3897 56.2622C64.1429 56.4908 63.9915 56.8043 63.9658 57.1398V61.5795C63.9915 61.915 64.1429 62.2284 64.3897 62.4571C64.6366 62.6858 64.9607 62.8128 65.2972 62.8128C65.6337 62.8128 65.9577 62.6858 66.2046 62.4571C66.4514 62.2284 66.6028 61.915 66.6285 61.5795ZM57.4765 37.5995V20.1301C57.4797 18.6452 58.071 17.2221 59.121 16.1721C60.171 15.1221 61.5941 14.5308 63.079 14.5276H95.3975C96.8822 14.5314 98.305 15.1229 99.3549 16.1727C100.405 17.2226 100.996 18.6454 101 20.1301V80.7781C100.996 82.2628 100.405 83.6856 99.3549 84.7354C98.305 85.7853 96.8822 86.3768 95.3975 86.3806H63.079C61.6542 86.3765 60.284 85.8314 59.2458 84.8556C58.2076 83.8798 57.5788 82.546 57.4865 81.1242H6.60359C5.11852 81.1212 3.6951 80.5301 2.64489 79.48C1.59468 78.4301 1.00323 77.0068 1 75.5217V43.202C1.00323 41.717 1.59468 40.2937 2.64489 39.2437C3.6951 38.1937 5.11852 37.6025 6.60359 37.5995H57.4765ZM77.9703 22.7382H80.5062C80.8403 22.7109 81.152 22.5588 81.3792 22.3123C81.6064 22.0657 81.7325 21.7427 81.7325 21.4074C81.7325 21.0722 81.6064 20.7492 81.3792 20.5026C81.152 20.2561 80.8403 20.104 80.5062 20.0767H77.9703C77.7864 20.0616 77.6014 20.0848 77.4269 20.1449C77.2524 20.2049 77.0923 20.3005 76.9566 20.4255C76.8209 20.5506 76.7126 20.7024 76.6385 20.8714C76.5644 21.0404 76.5261 21.2229 76.5261 21.4074C76.5261 21.592 76.5644 21.7745 76.6385 21.9435C76.7126 22.1125 76.8209 22.2643 76.9566 22.3894C77.0923 22.5144 77.2524 22.61 77.4269 22.67C77.6014 22.7301 77.7864 22.7533 77.9703 22.7382ZM63.138 37.5995V26.8063C63.138 26.4522 63.2786 26.1125 63.529 25.8621C63.7794 25.6117 64.1191 25.4711 64.4732 25.4711H94.0078C94.3619 25.4711 94.7015 25.6117 94.9519 25.8621C95.2023 26.1125 95.343 26.4522 95.343 26.8063V72.9224C95.343 73.2765 95.2023 73.6162 94.9519 73.8666C94.7015 74.117 94.3619 74.2576 94.0078 74.2576H72.8552V75.5261C72.852 77.011 72.2607 78.4341 71.2107 79.4841C70.1608 80.5341 68.7376 81.1254 67.2528 81.1286H60.1581C60.2466 81.8421 60.5919 82.4989 61.1294 82.9763C61.667 83.4537 62.3601 83.7189 63.079 83.7223H95.3975C96.1764 83.7188 96.9224 83.4079 97.4732 82.8571C98.0239 82.3063 98.3349 81.5603 98.3384 80.7814V20.1267C98.3358 19.3473 98.0252 18.6004 97.4743 18.0489C96.9235 17.4975 96.177 17.186 95.3975 17.1825H63.079C62.3001 17.186 61.5541 17.497 61.0033 18.0478C60.4526 18.5985 60.1416 19.3445 60.1381 20.1234V37.5929L63.138 37.5995ZM92.677 59.4475L84.4429 55.0546L81.5499 57.3167L82.3088 57.8731C82.5913 58.0826 82.7791 58.3958 82.8307 58.7437C82.8824 59.0917 82.7937 59.4459 82.5842 59.7285C82.3746 60.0111 82.0614 60.1988 81.7135 60.2505C81.3655 60.3021 81.0113 60.2134 80.7287 60.0039L74.5443 55.4418L72.8552 56.8104V71.5938H92.677V59.4475ZM79.3356 55.6821L83.4916 52.4341C83.6982 52.2717 83.9486 52.1744 84.2107 52.1545C84.4728 52.1347 84.7349 52.1933 84.9637 52.3229L92.6747 56.4399V28.1326H65.7996V37.5995H67.2528C68.7376 37.6028 70.1608 38.1941 71.2107 39.244C72.2607 40.294 72.852 41.7171 72.8552 43.202V53.3966L73.6697 52.7379C73.9016 52.551 74.1893 52.4469 74.487 52.4423C74.7848 52.4376 75.0756 52.5327 75.3132 52.7123L79.3356 55.6821ZM77.0156 80.1528H81.4564C81.7906 80.1254 82.1022 79.9734 82.3294 79.7268C82.5566 79.4802 82.6827 79.1572 82.6827 78.822C82.6827 78.4867 82.5566 78.1637 82.3294 77.9171C82.1022 77.6706 81.7906 77.5185 81.4564 77.4912H77.0156C76.6815 77.5185 76.3698 77.6706 76.1426 77.9171C75.9154 78.1637 75.7893 78.4867 75.7893 78.822C75.7893 79.1572 75.9154 79.4802 76.1426 79.7268C76.3698 79.9734 76.6815 80.1254 77.0156 80.1528ZM79.2166 49.3152H79.2611C79.8914 49.3152 80.4959 49.0648 80.9417 48.6191C81.3874 48.1734 81.6378 47.5688 81.6378 46.9385C81.6378 46.3081 81.3874 45.7036 80.9417 45.2579C80.4959 44.8122 79.8914 44.5618 79.2611 44.5618H79.2166C78.5862 44.5618 77.9817 44.8122 77.5359 45.2579C77.0902 45.7036 76.8398 46.3081 76.8398 46.9385C76.8398 47.5688 77.0902 48.1734 77.5359 48.6191C77.9817 49.0648 78.5862 49.3152 79.2166 49.3152Z" stroke="#3C7CFF" stroke-width="0.6" mask="url(#path-1-outside-1_166_164)"/>
</svg>
