<svg width="102" height="102" viewBox="0 0 102 102" fill="none" xmlns="http://www.w3.org/2000/svg">
<mask id="path-1-outside-1_179_963" maskUnits="userSpaceOnUse" x="0" y="0" width="102" height="102" fill="black">
<rect fill="white" width="102" height="102"/>
<path d="M99.0977 68.539L80.8756 50.2825L80.8649 50.2931C80.9313 48.2214 80.9074 45.9864 80.7934 43.5883C80.3298 33.9199 78.4768 23.7475 77.4133 18.5427C77.229 17.6403 77.0415 16.7542 76.8555 15.9096C76.8089 15.6971 76.7497 15.4337 76.6879 15.1584C76.571 14.6375 76.3752 13.7656 76.3525 13.612C76.2819 12.9335 75.962 12.3053 75.4549 11.849C74.9478 11.3927 74.2894 11.1407 73.6073 11.1419C71.5175 11.1449 69.4639 11.6871 67.645 12.716C65.8262 13.745 64.3036 15.2258 63.2245 17.0154C59.6606 14.4578 55.3833 13.0842 50.9965 13.0887C50.1862 13.0894 49.3765 13.1364 48.5714 13.2293L38.6526 3.2914C37.569 2.20556 36.1894 1.46317 34.6863 1.15701C33.1831 0.850844 31.6231 0.994493 30.2011 1.57C28.7791 2.14551 27.5583 3.12735 26.6912 4.39281C25.8241 5.65827 25.3492 7.15122 25.3259 8.68506L21.8131 5.16592C21.0884 4.43934 20.2275 3.86288 19.2797 3.46955C18.3319 3.07623 17.3158 2.87376 16.2896 2.87376C15.2635 2.87376 14.2474 3.07623 13.2996 3.46955C12.3517 3.86288 11.4909 4.43934 10.7662 5.16592C9.61705 6.32141 8.85627 7.80608 8.58953 9.41374C8.32279 11.0214 8.56333 12.6722 9.27774 14.1369C9.12137 14.1275 8.96439 14.1214 8.80642 14.1214C7.77984 14.1187 6.76295 14.3199 5.81475 14.7134C4.86656 15.1068 4.00596 15.6847 3.28288 16.4134C1.82079 17.8828 1 19.8713 1 21.9442C1 24.0171 1.82079 26.0056 3.28288 27.475L8.14965 32.351C6.66169 32.4989 5.27171 33.1604 4.21854 34.2219C3.00419 35.4423 2.32248 37.0938 2.32248 38.8154C2.32248 40.5371 3.00419 42.1886 4.21854 43.409L33.4665 72.713C37.825 77.1065 43.6192 79.7845 49.7898 80.2573L68.5927 99.096C69.1946 99.6995 69.9097 100.178 70.6969 100.505C71.4842 100.832 72.3282 101 73.1806 101C74.0329 101 74.8769 100.832 75.6642 100.505C76.4515 100.178 77.1665 99.6995 77.7684 99.096L99.0977 77.726C100.312 76.5056 100.994 74.8541 100.994 73.1325C100.994 71.4109 100.312 69.7594 99.0977 68.539ZM36.5996 35.3996C36.8457 38.4036 38.0268 41.2551 39.9769 43.5532L36.9725 46.5642C34.2362 43.4582 32.61 39.5308 32.3496 35.3996H36.5996ZM32.352 33.0091C32.6107 28.902 34.2153 24.9945 36.9178 21.8909C36.9333 21.873 36.9498 21.8561 36.9656 21.8383L39.9769 24.8555C38.0268 27.1537 36.8457 30.0051 36.5996 33.0091H32.352ZM41.6658 45.2449C43.9567 47.1961 46.8023 48.3788 49.8013 48.6264V52.8893C45.6756 52.6265 41.7553 50.996 38.66 48.2556L41.6658 45.2449ZM34.3032 47.0801C34.835 47.7707 35.4087 48.4279 36.0211 49.0481C36.0454 49.0774 36.0658 49.1078 36.0933 49.1361C36.1207 49.1644 36.15 49.1819 36.1781 49.2055C36.8664 49.8881 37.6004 50.5229 38.3751 51.1055C38.8736 52.8675 39.7358 54.5056 40.906 55.9141L38.3825 58.4424C35.7455 55.4055 34.2948 51.518 34.2976 47.4961C34.2976 47.3574 34.2998 47.2188 34.3032 47.0801ZM42.5951 57.6053C44.6382 59.3089 47.1519 60.3495 49.8013 60.5884V64.1816C46.2045 63.925 42.7889 62.5044 40.071 60.1346L42.5951 57.6053ZM43.4477 55.1531C43.4327 55.1364 43.4216 55.1174 43.4055 55.1015C43.3893 55.0856 43.3724 55.0758 43.3565 55.0617C42.8179 54.5154 42.3396 53.9128 41.9299 53.2642C44.7608 54.6177 47.8588 55.3202 50.9965 55.3202C54.1343 55.3202 57.2323 54.6177 60.0631 53.2642C59.6535 53.9128 59.1753 54.5155 58.6366 55.0617C58.6207 55.076 58.603 55.0864 58.5876 55.1015C58.5723 55.1166 58.5603 55.1364 58.5454 55.1531C56.5349 57.1393 53.8227 58.2531 50.9965 58.2531C48.1704 58.2531 45.4582 57.1393 43.4477 55.1531ZM52.1918 52.8901V48.6272C55.1908 48.3796 58.0364 47.1969 60.3273 45.2457L63.3331 48.2572C60.2377 50.9973 56.3174 52.6275 52.1918 52.8901ZM52.1918 60.5884C54.8412 60.3495 57.3549 59.3089 59.398 57.6053L61.9221 60.1352C59.2041 62.5048 55.7885 63.9252 52.1918 64.1816V60.5884ZM61.087 55.9141C62.257 54.5055 63.1188 52.8674 63.6169 51.1055C64.3917 50.5229 65.1257 49.8881 65.814 49.2055C65.8421 49.1819 65.8723 49.1624 65.8988 49.1361C65.9253 49.1098 65.9466 49.0764 65.9709 49.0481C66.5834 48.4279 67.1571 47.7707 67.6889 47.0801C67.6923 47.2196 67.6945 47.3574 67.6945 47.4961C67.6973 51.518 66.2466 55.4055 63.6096 58.4424L61.087 55.9141ZM65.0205 46.5642L62.0151 43.5532C63.9653 41.2551 65.1464 38.4036 65.3925 35.3996H69.6435C69.3831 39.5308 67.7569 43.4582 65.0205 46.5642ZM65.3925 33.0091C65.1464 30.0051 63.9653 27.1537 62.0151 24.8555L65.0205 21.8443C67.7568 24.9504 69.383 28.8779 69.6435 33.0091H65.3925ZM52.1918 15.5186C56.3175 15.7814 60.2378 17.4119 63.3331 20.1523L60.3273 23.1638C58.0364 21.2126 55.1908 20.0297 52.1918 19.7821V15.5186ZM63.0562 34.204C63.0512 36.5881 62.3397 38.9172 61.0116 40.8971C59.6834 42.877 57.7982 44.4188 55.5942 45.3277C53.3902 46.2366 50.9662 46.4719 48.6285 46.0037C46.2908 45.5356 44.1443 44.385 42.4603 42.6974C40.7762 41.0099 39.6301 38.861 39.1668 36.5224C38.7035 34.1837 38.9438 31.7602 39.8573 29.5581C40.7708 27.3559 42.3165 25.4739 44.2992 24.1499C46.2818 22.8259 48.6124 22.1192 50.9965 22.1192C54.1972 22.1262 57.2645 23.4025 59.5253 25.6681C61.7862 27.9337 63.056 31.0037 63.0562 34.2044V34.204ZM49.8013 15.519V19.782C46.8023 20.0295 43.9567 21.2124 41.6658 23.1636L38.6538 20.1457C41.3691 17.7467 44.7249 16.1916 48.3105 15.6708C48.8023 15.601 49.3009 15.5506 49.8013 15.519ZM29.2976 4.98106C29.8003 4.47699 30.3975 4.07706 31.0549 3.80418C31.7124 3.5313 32.4173 3.39084 33.1292 3.39084C33.8411 3.39084 34.5459 3.5313 35.2034 3.80418C35.8609 4.07706 36.4581 4.47699 36.9608 4.98106L45.7246 13.7618C42.097 14.7025 38.7859 16.594 36.1331 19.2411C36.1203 19.2527 36.1056 19.261 36.0933 19.2734C36.0809 19.2857 36.0713 19.3019 36.059 19.3152C36.0391 19.3361 36.0176 19.3566 35.997 19.3776L29.2942 12.6608C28.2801 11.6397 27.7112 10.2588 27.7118 8.81973C27.7125 7.38061 28.2826 6.00023 29.2976 4.98006V4.98106ZM12.4588 6.85577C12.9615 6.35164 13.5586 5.95165 14.2161 5.67873C14.8736 5.40581 15.5785 5.26532 16.2903 5.26532C17.0022 5.26532 17.7071 5.40581 18.3646 5.67873C19.0221 5.95165 19.6192 6.35164 20.1218 6.85577L34.4136 21.175C31.9372 24.3374 30.4141 28.1405 30.0231 32.138L14.3306 16.4144L14.327 16.4108L12.4596 14.5399C11.4436 13.5192 10.873 12.1377 10.8729 10.6975C10.8728 9.25729 11.443 7.87565 12.4588 6.85477V6.85577ZM50.4786 77.9072C44.6965 77.5878 39.2383 75.1354 35.1598 71.0243L5.91039 41.7201C5.14251 40.9484 4.71145 39.904 4.71145 38.8153C4.71145 37.7267 5.14251 36.6823 5.91039 35.9105C6.29032 35.5295 6.74169 35.2273 7.23864 35.021C7.7356 34.8148 8.26837 34.7086 8.80642 34.7086C9.34448 34.7086 9.87725 34.8148 10.3742 35.021C10.8712 35.2273 11.3225 35.5295 11.7025 35.9105L12.0549 36.2639L26.6703 50.9073L28.5404 52.781C28.7643 53.0053 29.0682 53.1316 29.3852 53.1319C29.7022 53.1322 30.0064 53.0066 30.2308 52.7827C30.4551 52.5587 30.5814 52.2548 30.5817 51.9378C30.582 51.6208 30.4564 51.3167 30.2325 51.0923L4.97492 25.7864C3.9592 24.7656 3.38898 23.3842 3.38898 21.9442C3.38898 20.5042 3.9592 19.1228 4.97492 18.1021C5.47741 17.5981 6.07438 17.1982 6.73164 16.9254C7.3889 16.6525 8.09354 16.5119 8.8052 16.5118C9.51685 16.5116 10.2215 16.6519 10.8789 16.9245C11.5363 17.1971 12.1334 17.5967 12.6361 18.1005L29.957 35.4546C30.1266 38.3852 30.909 41.2476 32.2536 43.857C32.0233 45.0564 31.9073 46.2748 31.9072 47.4961C31.9033 52.5311 33.8899 57.3635 37.4339 60.94C37.4562 60.9665 37.4737 60.995 37.4992 61.0197C37.5247 61.0444 37.5508 61.0609 37.5763 61.0824C41.1423 64.6291 45.9672 66.6199 50.9965 66.6199C56.0259 66.6199 60.8508 64.6291 64.4167 61.0824C64.4422 61.0609 64.4697 61.0436 64.4938 61.0197C64.5179 60.9958 64.5369 60.9663 64.5592 60.94C68.1031 57.3636 70.0897 52.5313 70.0859 47.4965C70.0858 46.2752 69.9698 45.0567 69.7395 43.8574C71.7743 39.8984 72.5056 35.3975 71.829 30.9979C71.1523 26.5984 69.1023 22.5252 65.9719 19.3606C65.9476 19.3313 65.9273 19.2999 65.8998 19.2724C65.8723 19.2449 65.8431 19.2266 65.815 19.2033C65.5842 18.9743 65.3482 18.7507 65.107 18.5325C65.9517 17.0188 67.1846 15.7575 68.6788 14.8786C70.1731 13.9998 71.8745 13.5351 73.608 13.5325C73.6995 13.5324 73.7878 13.5662 73.8558 13.6274C73.9238 13.6885 73.9667 13.7728 73.9762 13.8638C73.9979 14.0684 74.0857 14.4763 74.3565 15.6819C74.4172 15.9526 74.476 16.2122 74.5214 16.4214C74.7041 17.2548 74.8891 18.1295 75.0712 19.0208C76.121 24.1573 77.9497 34.194 78.4055 43.7022C78.9266 54.5744 77.5166 62.0101 74.3278 65.2054L68.5196 71.0243C66.336 73.2252 63.7371 74.9705 60.8737 76.1589C58.0102 77.3472 54.9392 77.9551 51.839 77.9471L50.4786 77.9072ZM97.4064 76.0373L76.0764 97.4076C75.6965 97.7886 75.2451 98.0909 74.7482 98.2972C74.2513 98.5034 73.7185 98.6096 73.1805 98.6096C72.6424 98.6096 72.1096 98.5034 71.6127 98.2972C71.1158 98.0909 70.6644 97.7886 70.2845 97.4076L53.2111 80.3015C59.6255 79.9789 65.6883 77.2726 70.2114 72.713L76.0196 66.8938C78.579 64.3297 80.1382 59.8322 80.6832 53.473L97.4058 70.2275C98.1737 70.9993 98.6048 72.0437 98.6048 73.1324C98.6048 74.2211 98.1737 75.2655 97.4058 76.0373H97.4064Z"/>
</mask>
<path d="M99.0977 68.539L80.8756 50.2825L80.8649 50.2931C80.9313 48.2214 80.9074 45.9864 80.7934 43.5883C80.3298 33.9199 78.4768 23.7475 77.4133 18.5427C77.229 17.6403 77.0415 16.7542 76.8555 15.9096C76.8089 15.6971 76.7497 15.4337 76.6879 15.1584C76.571 14.6375 76.3752 13.7656 76.3525 13.612C76.2819 12.9335 75.962 12.3053 75.4549 11.849C74.9478 11.3927 74.2894 11.1407 73.6073 11.1419C71.5175 11.1449 69.4639 11.6871 67.645 12.716C65.8262 13.745 64.3036 15.2258 63.2245 17.0154C59.6606 14.4578 55.3833 13.0842 50.9965 13.0887C50.1862 13.0894 49.3765 13.1364 48.5714 13.2293L38.6526 3.2914C37.569 2.20556 36.1894 1.46317 34.6863 1.15701C33.1831 0.850844 31.6231 0.994493 30.2011 1.57C28.7791 2.14551 27.5583 3.12735 26.6912 4.39281C25.8241 5.65827 25.3492 7.15122 25.3259 8.68506L21.8131 5.16592C21.0884 4.43934 20.2275 3.86288 19.2797 3.46955C18.3319 3.07623 17.3158 2.87376 16.2896 2.87376C15.2635 2.87376 14.2474 3.07623 13.2996 3.46955C12.3517 3.86288 11.4909 4.43934 10.7662 5.16592C9.61705 6.32141 8.85627 7.80608 8.58953 9.41374C8.32279 11.0214 8.56333 12.6722 9.27774 14.1369C9.12137 14.1275 8.96439 14.1214 8.80642 14.1214C7.77984 14.1187 6.76295 14.3199 5.81475 14.7134C4.86656 15.1068 4.00596 15.6847 3.28288 16.4134C1.82079 17.8828 1 19.8713 1 21.9442C1 24.0171 1.82079 26.0056 3.28288 27.475L8.14965 32.351C6.66169 32.4989 5.27171 33.1604 4.21854 34.2219C3.00419 35.4423 2.32248 37.0938 2.32248 38.8154C2.32248 40.5371 3.00419 42.1886 4.21854 43.409L33.4665 72.713C37.825 77.1065 43.6192 79.7845 49.7898 80.2573L68.5927 99.096C69.1946 99.6995 69.9097 100.178 70.6969 100.505C71.4842 100.832 72.3282 101 73.1806 101C74.0329 101 74.8769 100.832 75.6642 100.505C76.4515 100.178 77.1665 99.6995 77.7684 99.096L99.0977 77.726C100.312 76.5056 100.994 74.8541 100.994 73.1325C100.994 71.4109 100.312 69.7594 99.0977 68.539ZM36.5996 35.3996C36.8457 38.4036 38.0268 41.2551 39.9769 43.5532L36.9725 46.5642C34.2362 43.4582 32.61 39.5308 32.3496 35.3996H36.5996ZM32.352 33.0091C32.6107 28.902 34.2153 24.9945 36.9178 21.8909C36.9333 21.873 36.9498 21.8561 36.9656 21.8383L39.9769 24.8555C38.0268 27.1537 36.8457 30.0051 36.5996 33.0091H32.352ZM41.6658 45.2449C43.9567 47.1961 46.8023 48.3788 49.8013 48.6264V52.8893C45.6756 52.6265 41.7553 50.996 38.66 48.2556L41.6658 45.2449ZM34.3032 47.0801C34.835 47.7707 35.4087 48.4279 36.0211 49.0481C36.0454 49.0774 36.0658 49.1078 36.0933 49.1361C36.1207 49.1644 36.15 49.1819 36.1781 49.2055C36.8664 49.8881 37.6004 50.5229 38.3751 51.1055C38.8736 52.8675 39.7358 54.5056 40.906 55.9141L38.3825 58.4424C35.7455 55.4055 34.2948 51.518 34.2976 47.4961C34.2976 47.3574 34.2998 47.2188 34.3032 47.0801ZM42.5951 57.6053C44.6382 59.3089 47.1519 60.3495 49.8013 60.5884V64.1816C46.2045 63.925 42.7889 62.5044 40.071 60.1346L42.5951 57.6053ZM43.4477 55.1531C43.4327 55.1364 43.4216 55.1174 43.4055 55.1015C43.3893 55.0856 43.3724 55.0758 43.3565 55.0617C42.8179 54.5154 42.3396 53.9128 41.9299 53.2642C44.7608 54.6177 47.8588 55.3202 50.9965 55.3202C54.1343 55.3202 57.2323 54.6177 60.0631 53.2642C59.6535 53.9128 59.1753 54.5155 58.6366 55.0617C58.6207 55.076 58.603 55.0864 58.5876 55.1015C58.5723 55.1166 58.5603 55.1364 58.5454 55.1531C56.5349 57.1393 53.8227 58.2531 50.9965 58.2531C48.1704 58.2531 45.4582 57.1393 43.4477 55.1531ZM52.1918 52.8901V48.6272C55.1908 48.3796 58.0364 47.1969 60.3273 45.2457L63.3331 48.2572C60.2377 50.9973 56.3174 52.6275 52.1918 52.8901ZM52.1918 60.5884C54.8412 60.3495 57.3549 59.3089 59.398 57.6053L61.9221 60.1352C59.2041 62.5048 55.7885 63.9252 52.1918 64.1816V60.5884ZM61.087 55.9141C62.257 54.5055 63.1188 52.8674 63.6169 51.1055C64.3917 50.5229 65.1257 49.8881 65.814 49.2055C65.8421 49.1819 65.8723 49.1624 65.8988 49.1361C65.9253 49.1098 65.9466 49.0764 65.9709 49.0481C66.5834 48.4279 67.1571 47.7707 67.6889 47.0801C67.6923 47.2196 67.6945 47.3574 67.6945 47.4961C67.6973 51.518 66.2466 55.4055 63.6096 58.4424L61.087 55.9141ZM65.0205 46.5642L62.0151 43.5532C63.9653 41.2551 65.1464 38.4036 65.3925 35.3996H69.6435C69.3831 39.5308 67.7569 43.4582 65.0205 46.5642ZM65.3925 33.0091C65.1464 30.0051 63.9653 27.1537 62.0151 24.8555L65.0205 21.8443C67.7568 24.9504 69.383 28.8779 69.6435 33.0091H65.3925ZM52.1918 15.5186C56.3175 15.7814 60.2378 17.4119 63.3331 20.1523L60.3273 23.1638C58.0364 21.2126 55.1908 20.0297 52.1918 19.7821V15.5186ZM63.0562 34.204C63.0512 36.5881 62.3397 38.9172 61.0116 40.8971C59.6834 42.877 57.7982 44.4188 55.5942 45.3277C53.3902 46.2366 50.9662 46.4719 48.6285 46.0037C46.2908 45.5356 44.1443 44.385 42.4603 42.6974C40.7762 41.0099 39.6301 38.861 39.1668 36.5224C38.7035 34.1837 38.9438 31.7602 39.8573 29.5581C40.7708 27.3559 42.3165 25.4739 44.2992 24.1499C46.2818 22.8259 48.6124 22.1192 50.9965 22.1192C54.1972 22.1262 57.2645 23.4025 59.5253 25.6681C61.7862 27.9337 63.056 31.0037 63.0562 34.2044V34.204ZM49.8013 15.519V19.782C46.8023 20.0295 43.9567 21.2124 41.6658 23.1636L38.6538 20.1457C41.3691 17.7467 44.7249 16.1916 48.3105 15.6708C48.8023 15.601 49.3009 15.5506 49.8013 15.519ZM29.2976 4.98106C29.8003 4.47699 30.3975 4.07706 31.0549 3.80418C31.7124 3.5313 32.4173 3.39084 33.1292 3.39084C33.8411 3.39084 34.5459 3.5313 35.2034 3.80418C35.8609 4.07706 36.4581 4.47699 36.9608 4.98106L45.7246 13.7618C42.097 14.7025 38.7859 16.594 36.1331 19.2411C36.1203 19.2527 36.1056 19.261 36.0933 19.2734C36.0809 19.2857 36.0713 19.3019 36.059 19.3152C36.0391 19.3361 36.0176 19.3566 35.997 19.3776L29.2942 12.6608C28.2801 11.6397 27.7112 10.2588 27.7118 8.81973C27.7125 7.38061 28.2826 6.00023 29.2976 4.98006V4.98106ZM12.4588 6.85577C12.9615 6.35164 13.5586 5.95165 14.2161 5.67873C14.8736 5.40581 15.5785 5.26532 16.2903 5.26532C17.0022 5.26532 17.7071 5.40581 18.3646 5.67873C19.0221 5.95165 19.6192 6.35164 20.1218 6.85577L34.4136 21.175C31.9372 24.3374 30.4141 28.1405 30.0231 32.138L14.3306 16.4144L14.327 16.4108L12.4596 14.5399C11.4436 13.5192 10.873 12.1377 10.8729 10.6975C10.8728 9.25729 11.443 7.87565 12.4588 6.85477V6.85577ZM50.4786 77.9072C44.6965 77.5878 39.2383 75.1354 35.1598 71.0243L5.91039 41.7201C5.14251 40.9484 4.71145 39.904 4.71145 38.8153C4.71145 37.7267 5.14251 36.6823 5.91039 35.9105C6.29032 35.5295 6.74169 35.2273 7.23864 35.021C7.7356 34.8148 8.26837 34.7086 8.80642 34.7086C9.34448 34.7086 9.87725 34.8148 10.3742 35.021C10.8712 35.2273 11.3225 35.5295 11.7025 35.9105L12.0549 36.2639L26.6703 50.9073L28.5404 52.781C28.7643 53.0053 29.0682 53.1316 29.3852 53.1319C29.7022 53.1322 30.0064 53.0066 30.2308 52.7827C30.4551 52.5587 30.5814 52.2548 30.5817 51.9378C30.582 51.6208 30.4564 51.3167 30.2325 51.0923L4.97492 25.7864C3.9592 24.7656 3.38898 23.3842 3.38898 21.9442C3.38898 20.5042 3.9592 19.1228 4.97492 18.1021C5.47741 17.5981 6.07438 17.1982 6.73164 16.9254C7.3889 16.6525 8.09354 16.5119 8.8052 16.5118C9.51685 16.5116 10.2215 16.6519 10.8789 16.9245C11.5363 17.1971 12.1334 17.5967 12.6361 18.1005L29.957 35.4546C30.1266 38.3852 30.909 41.2476 32.2536 43.857C32.0233 45.0564 31.9073 46.2748 31.9072 47.4961C31.9033 52.5311 33.8899 57.3635 37.4339 60.94C37.4562 60.9665 37.4737 60.995 37.4992 61.0197C37.5247 61.0444 37.5508 61.0609 37.5763 61.0824C41.1423 64.6291 45.9672 66.6199 50.9965 66.6199C56.0259 66.6199 60.8508 64.6291 64.4167 61.0824C64.4422 61.0609 64.4697 61.0436 64.4938 61.0197C64.5179 60.9958 64.5369 60.9663 64.5592 60.94C68.1031 57.3636 70.0897 52.5313 70.0859 47.4965C70.0858 46.2752 69.9698 45.0567 69.7395 43.8574C71.7743 39.8984 72.5056 35.3975 71.829 30.9979C71.1523 26.5984 69.1023 22.5252 65.9719 19.3606C65.9476 19.3313 65.9273 19.2999 65.8998 19.2724C65.8723 19.2449 65.8431 19.2266 65.815 19.2033C65.5842 18.9743 65.3482 18.7507 65.107 18.5325C65.9517 17.0188 67.1846 15.7575 68.6788 14.8786C70.1731 13.9998 71.8745 13.5351 73.608 13.5325C73.6995 13.5324 73.7878 13.5662 73.8558 13.6274C73.9238 13.6885 73.9667 13.7728 73.9762 13.8638C73.9979 14.0684 74.0857 14.4763 74.3565 15.6819C74.4172 15.9526 74.476 16.2122 74.5214 16.4214C74.7041 17.2548 74.8891 18.1295 75.0712 19.0208C76.121 24.1573 77.9497 34.194 78.4055 43.7022C78.9266 54.5744 77.5166 62.0101 74.3278 65.2054L68.5196 71.0243C66.336 73.2252 63.7371 74.9705 60.8737 76.1589C58.0102 77.3472 54.9392 77.9551 51.839 77.9471L50.4786 77.9072ZM97.4064 76.0373L76.0764 97.4076C75.6965 97.7886 75.2451 98.0909 74.7482 98.2972C74.2513 98.5034 73.7185 98.6096 73.1805 98.6096C72.6424 98.6096 72.1096 98.5034 71.6127 98.2972C71.1158 98.0909 70.6644 97.7886 70.2845 97.4076L53.2111 80.3015C59.6255 79.9789 65.6883 77.2726 70.2114 72.713L76.0196 66.8938C78.579 64.3297 80.1382 59.8322 80.6832 53.473L97.4058 70.2275C98.1737 70.9993 98.6048 72.0437 98.6048 73.1324C98.6048 74.2211 98.1737 75.2655 97.4058 76.0373H97.4064Z" fill="#3C7CFF"/>
<path d="M99.0977 68.539L80.8756 50.2825L80.8649 50.2931C80.9313 48.2214 80.9074 45.9864 80.7934 43.5883C80.3298 33.9199 78.4768 23.7475 77.4133 18.5427C77.229 17.6403 77.0415 16.7542 76.8555 15.9096C76.8089 15.6971 76.7497 15.4337 76.6879 15.1584C76.571 14.6375 76.3752 13.7656 76.3525 13.612C76.2819 12.9335 75.962 12.3053 75.4549 11.849C74.9478 11.3927 74.2894 11.1407 73.6073 11.1419C71.5175 11.1449 69.4639 11.6871 67.645 12.716C65.8262 13.745 64.3036 15.2258 63.2245 17.0154C59.6606 14.4578 55.3833 13.0842 50.9965 13.0887C50.1862 13.0894 49.3765 13.1364 48.5714 13.2293L38.6526 3.2914C37.569 2.20556 36.1894 1.46317 34.6863 1.15701C33.1831 0.850844 31.6231 0.994493 30.2011 1.57C28.7791 2.14551 27.5583 3.12735 26.6912 4.39281C25.8241 5.65827 25.3492 7.15122 25.3259 8.68506L21.8131 5.16592C21.0884 4.43934 20.2275 3.86288 19.2797 3.46955C18.3319 3.07623 17.3158 2.87376 16.2896 2.87376C15.2635 2.87376 14.2474 3.07623 13.2996 3.46955C12.3517 3.86288 11.4909 4.43934 10.7662 5.16592C9.61705 6.32141 8.85627 7.80608 8.58953 9.41374C8.32279 11.0214 8.56333 12.6722 9.27774 14.1369C9.12137 14.1275 8.96439 14.1214 8.80642 14.1214C7.77984 14.1187 6.76295 14.3199 5.81475 14.7134C4.86656 15.1068 4.00596 15.6847 3.28288 16.4134C1.82079 17.8828 1 19.8713 1 21.9442C1 24.0171 1.82079 26.0056 3.28288 27.475L8.14965 32.351C6.66169 32.4989 5.27171 33.1604 4.21854 34.2219C3.00419 35.4423 2.32248 37.0938 2.32248 38.8154C2.32248 40.5371 3.00419 42.1886 4.21854 43.409L33.4665 72.713C37.825 77.1065 43.6192 79.7845 49.7898 80.2573L68.5927 99.096C69.1946 99.6995 69.9097 100.178 70.6969 100.505C71.4842 100.832 72.3282 101 73.1806 101C74.0329 101 74.8769 100.832 75.6642 100.505C76.4515 100.178 77.1665 99.6995 77.7684 99.096L99.0977 77.726C100.312 76.5056 100.994 74.8541 100.994 73.1325C100.994 71.4109 100.312 69.7594 99.0977 68.539ZM36.5996 35.3996C36.8457 38.4036 38.0268 41.2551 39.9769 43.5532L36.9725 46.5642C34.2362 43.4582 32.61 39.5308 32.3496 35.3996H36.5996ZM32.352 33.0091C32.6107 28.902 34.2153 24.9945 36.9178 21.8909C36.9333 21.873 36.9498 21.8561 36.9656 21.8383L39.9769 24.8555C38.0268 27.1537 36.8457 30.0051 36.5996 33.0091H32.352ZM41.6658 45.2449C43.9567 47.1961 46.8023 48.3788 49.8013 48.6264V52.8893C45.6756 52.6265 41.7553 50.996 38.66 48.2556L41.6658 45.2449ZM34.3032 47.0801C34.835 47.7707 35.4087 48.4279 36.0211 49.0481C36.0454 49.0774 36.0658 49.1078 36.0933 49.1361C36.1207 49.1644 36.15 49.1819 36.1781 49.2055C36.8664 49.8881 37.6004 50.5229 38.3751 51.1055C38.8736 52.8675 39.7358 54.5056 40.906 55.9141L38.3825 58.4424C35.7455 55.4055 34.2948 51.518 34.2976 47.4961C34.2976 47.3574 34.2998 47.2188 34.3032 47.0801ZM42.5951 57.6053C44.6382 59.3089 47.1519 60.3495 49.8013 60.5884V64.1816C46.2045 63.925 42.7889 62.5044 40.071 60.1346L42.5951 57.6053ZM43.4477 55.1531C43.4327 55.1364 43.4216 55.1174 43.4055 55.1015C43.3893 55.0856 43.3724 55.0758 43.3565 55.0617C42.8179 54.5154 42.3396 53.9128 41.9299 53.2642C44.7608 54.6177 47.8588 55.3202 50.9965 55.3202C54.1343 55.3202 57.2323 54.6177 60.0631 53.2642C59.6535 53.9128 59.1753 54.5155 58.6366 55.0617C58.6207 55.076 58.603 55.0864 58.5876 55.1015C58.5723 55.1166 58.5603 55.1364 58.5454 55.1531C56.5349 57.1393 53.8227 58.2531 50.9965 58.2531C48.1704 58.2531 45.4582 57.1393 43.4477 55.1531ZM52.1918 52.8901V48.6272C55.1908 48.3796 58.0364 47.1969 60.3273 45.2457L63.3331 48.2572C60.2377 50.9973 56.3174 52.6275 52.1918 52.8901ZM52.1918 60.5884C54.8412 60.3495 57.3549 59.3089 59.398 57.6053L61.9221 60.1352C59.2041 62.5048 55.7885 63.9252 52.1918 64.1816V60.5884ZM61.087 55.9141C62.257 54.5055 63.1188 52.8674 63.6169 51.1055C64.3917 50.5229 65.1257 49.8881 65.814 49.2055C65.8421 49.1819 65.8723 49.1624 65.8988 49.1361C65.9253 49.1098 65.9466 49.0764 65.9709 49.0481C66.5834 48.4279 67.1571 47.7707 67.6889 47.0801C67.6923 47.2196 67.6945 47.3574 67.6945 47.4961C67.6973 51.518 66.2466 55.4055 63.6096 58.4424L61.087 55.9141ZM65.0205 46.5642L62.0151 43.5532C63.9653 41.2551 65.1464 38.4036 65.3925 35.3996H69.6435C69.3831 39.5308 67.7569 43.4582 65.0205 46.5642ZM65.3925 33.0091C65.1464 30.0051 63.9653 27.1537 62.0151 24.8555L65.0205 21.8443C67.7568 24.9504 69.383 28.8779 69.6435 33.0091H65.3925ZM52.1918 15.5186C56.3175 15.7814 60.2378 17.4119 63.3331 20.1523L60.3273 23.1638C58.0364 21.2126 55.1908 20.0297 52.1918 19.7821V15.5186ZM63.0562 34.204C63.0512 36.5881 62.3397 38.9172 61.0116 40.8971C59.6834 42.877 57.7982 44.4188 55.5942 45.3277C53.3902 46.2366 50.9662 46.4719 48.6285 46.0037C46.2908 45.5356 44.1443 44.385 42.4603 42.6974C40.7762 41.0099 39.6301 38.861 39.1668 36.5224C38.7035 34.1837 38.9438 31.7602 39.8573 29.5581C40.7708 27.3559 42.3165 25.4739 44.2992 24.1499C46.2818 22.8259 48.6124 22.1192 50.9965 22.1192C54.1972 22.1262 57.2645 23.4025 59.5253 25.6681C61.7862 27.9337 63.056 31.0037 63.0562 34.2044V34.204ZM49.8013 15.519V19.782C46.8023 20.0295 43.9567 21.2124 41.6658 23.1636L38.6538 20.1457C41.3691 17.7467 44.7249 16.1916 48.3105 15.6708C48.8023 15.601 49.3009 15.5506 49.8013 15.519ZM29.2976 4.98106C29.8003 4.47699 30.3975 4.07706 31.0549 3.80418C31.7124 3.5313 32.4173 3.39084 33.1292 3.39084C33.8411 3.39084 34.5459 3.5313 35.2034 3.80418C35.8609 4.07706 36.4581 4.47699 36.9608 4.98106L45.7246 13.7618C42.097 14.7025 38.7859 16.594 36.1331 19.2411C36.1203 19.2527 36.1056 19.261 36.0933 19.2734C36.0809 19.2857 36.0713 19.3019 36.059 19.3152C36.0391 19.3361 36.0176 19.3566 35.997 19.3776L29.2942 12.6608C28.2801 11.6397 27.7112 10.2588 27.7118 8.81973C27.7125 7.38061 28.2826 6.00023 29.2976 4.98006V4.98106ZM12.4588 6.85577C12.9615 6.35164 13.5586 5.95165 14.2161 5.67873C14.8736 5.40581 15.5785 5.26532 16.2903 5.26532C17.0022 5.26532 17.7071 5.40581 18.3646 5.67873C19.0221 5.95165 19.6192 6.35164 20.1218 6.85577L34.4136 21.175C31.9372 24.3374 30.4141 28.1405 30.0231 32.138L14.3306 16.4144L14.327 16.4108L12.4596 14.5399C11.4436 13.5192 10.873 12.1377 10.8729 10.6975C10.8728 9.25729 11.443 7.87565 12.4588 6.85477V6.85577ZM50.4786 77.9072C44.6965 77.5878 39.2383 75.1354 35.1598 71.0243L5.91039 41.7201C5.14251 40.9484 4.71145 39.904 4.71145 38.8153C4.71145 37.7267 5.14251 36.6823 5.91039 35.9105C6.29032 35.5295 6.74169 35.2273 7.23864 35.021C7.7356 34.8148 8.26837 34.7086 8.80642 34.7086C9.34448 34.7086 9.87725 34.8148 10.3742 35.021C10.8712 35.2273 11.3225 35.5295 11.7025 35.9105L12.0549 36.2639L26.6703 50.9073L28.5404 52.781C28.7643 53.0053 29.0682 53.1316 29.3852 53.1319C29.7022 53.1322 30.0064 53.0066 30.2308 52.7827C30.4551 52.5587 30.5814 52.2548 30.5817 51.9378C30.582 51.6208 30.4564 51.3167 30.2325 51.0923L4.97492 25.7864C3.9592 24.7656 3.38898 23.3842 3.38898 21.9442C3.38898 20.5042 3.9592 19.1228 4.97492 18.1021C5.47741 17.5981 6.07438 17.1982 6.73164 16.9254C7.3889 16.6525 8.09354 16.5119 8.8052 16.5118C9.51685 16.5116 10.2215 16.6519 10.8789 16.9245C11.5363 17.1971 12.1334 17.5967 12.6361 18.1005L29.957 35.4546C30.1266 38.3852 30.909 41.2476 32.2536 43.857C32.0233 45.0564 31.9073 46.2748 31.9072 47.4961C31.9033 52.5311 33.8899 57.3635 37.4339 60.94C37.4562 60.9665 37.4737 60.995 37.4992 61.0197C37.5247 61.0444 37.5508 61.0609 37.5763 61.0824C41.1423 64.6291 45.9672 66.6199 50.9965 66.6199C56.0259 66.6199 60.8508 64.6291 64.4167 61.0824C64.4422 61.0609 64.4697 61.0436 64.4938 61.0197C64.5179 60.9958 64.5369 60.9663 64.5592 60.94C68.1031 57.3636 70.0897 52.5313 70.0859 47.4965C70.0858 46.2752 69.9698 45.0567 69.7395 43.8574C71.7743 39.8984 72.5056 35.3975 71.829 30.9979C71.1523 26.5984 69.1023 22.5252 65.9719 19.3606C65.9476 19.3313 65.9273 19.2999 65.8998 19.2724C65.8723 19.2449 65.8431 19.2266 65.815 19.2033C65.5842 18.9743 65.3482 18.7507 65.107 18.5325C65.9517 17.0188 67.1846 15.7575 68.6788 14.8786C70.1731 13.9998 71.8745 13.5351 73.608 13.5325C73.6995 13.5324 73.7878 13.5662 73.8558 13.6274C73.9238 13.6885 73.9667 13.7728 73.9762 13.8638C73.9979 14.0684 74.0857 14.4763 74.3565 15.6819C74.4172 15.9526 74.476 16.2122 74.5214 16.4214C74.7041 17.2548 74.8891 18.1295 75.0712 19.0208C76.121 24.1573 77.9497 34.194 78.4055 43.7022C78.9266 54.5744 77.5166 62.0101 74.3278 65.2054L68.5196 71.0243C66.336 73.2252 63.7371 74.9705 60.8737 76.1589C58.0102 77.3472 54.9392 77.9551 51.839 77.9471L50.4786 77.9072ZM97.4064 76.0373L76.0764 97.4076C75.6965 97.7886 75.2451 98.0909 74.7482 98.2972C74.2513 98.5034 73.7185 98.6096 73.1805 98.6096C72.6424 98.6096 72.1096 98.5034 71.6127 98.2972C71.1158 98.0909 70.6644 97.7886 70.2845 97.4076L53.2111 80.3015C59.6255 79.9789 65.6883 77.2726 70.2114 72.713L76.0196 66.8938C78.579 64.3297 80.1382 59.8322 80.6832 53.473L97.4058 70.2275C98.1737 70.9993 98.6048 72.0437 98.6048 73.1324C98.6048 74.2211 98.1737 75.2655 97.4058 76.0373H97.4064Z" stroke="#3C7CFF" mask="url(#path-1-outside-1_179_963)"/>
<path d="M72.3251 82.8907C81.9174 79.1692 83.6592 71.6623 83.736 71.3087L83.736 71.3086C83.8168 70.9352 83.7464 70.545 83.54 70.2235C83.3336 69.902 83.0082 69.6754 82.6351 69.5935L82.6349 69.5934C82.2614 69.5117 81.8708 69.5809 81.5482 69.786C81.2256 69.9911 80.9971 70.3154 80.9126 70.6882L80.9126 70.6882C80.8626 70.909 79.4022 77.0446 71.2795 80.1957L71.2795 80.1958C71.1025 80.2644 70.9408 80.3672 70.8036 80.4984C70.6664 80.6295 70.5564 80.7864 70.4798 80.9601C70.4032 81.1338 70.3616 81.3209 70.3573 81.5106C70.353 81.7004 70.3861 81.8891 70.4548 82.0661C70.5235 82.243 70.6263 82.4047 70.7575 82.5419C70.8886 82.6791 71.0455 82.7892 71.2192 82.8658C71.5699 83.0204 71.9678 83.0294 72.3251 82.8907ZM72.3251 82.8907L72.2347 82.6577M72.3251 82.8907C72.3251 82.8907 72.3251 82.8907 72.3251 82.8907L72.2347 82.6577M72.2347 82.6577C71.9391 82.7723 71.6101 82.7649 71.32 82.637C71.1764 82.5737 71.0466 82.4827 70.9382 82.3692C70.8297 82.2557 70.7447 82.122 70.6879 81.9756C70.6311 81.8293 70.6037 81.6732 70.6072 81.5163C70.6108 81.3593 70.6452 81.2046 70.7085 81.061C70.7719 80.9173 70.8629 80.7876 70.9763 80.6791C71.0898 80.5707 71.2235 80.4856 71.3699 80.4288C79.6006 77.2358 81.0967 71.0072 81.1564 70.7435C81.2264 70.435 81.4154 70.1667 81.6823 69.997C81.9493 69.8273 82.2725 69.77 82.5814 69.8376C82.8899 69.9054 83.159 70.0927 83.3296 70.3585C83.5002 70.6243 83.5585 70.947 83.4917 71.2557C83.4235 71.5692 81.7156 78.9793 72.2347 82.6577Z" fill="#3C7CFF" stroke="#3C7CFF" stroke-width="0.5"/>
<path d="M46.2889 41.6257C46.2885 41.8687 46.3495 42.1079 46.4662 42.321C46.5829 42.5343 46.7516 42.7145 46.9566 42.8451C47.1617 42.9757 47.3963 43.0524 47.6389 43.0681C47.8355 43.0808 48.0321 43.0531 48.2168 42.9872C48.6349 43.2318 49.0836 43.4195 49.5511 43.5455V43.9104C49.5511 44.2937 49.7034 44.6613 49.9744 44.9323C50.2454 45.2034 50.613 45.3556 50.9963 45.3556C51.3796 45.3556 51.7472 45.2034 52.0183 44.9323C52.2893 44.6613 52.4416 44.2937 52.4416 43.9104V43.5419C53.5792 43.2323 54.5901 42.5669 55.3249 41.6405C56.101 40.662 56.5233 39.4497 56.5233 38.2008C56.5233 36.9519 56.101 35.7397 55.3249 34.7611C54.5901 33.8347 53.5792 33.1693 52.4416 32.8598L55.682 26.545M46.2889 41.6257C46.2889 41.6256 46.2889 41.6256 46.2889 41.6255L46.5384 41.6259H46.2889V41.6257ZM46.2889 41.6257V39.9998C46.2889 39.6165 46.4412 39.2489 46.7122 38.9779C46.9833 38.7069 47.3509 38.5546 47.7342 38.5546C48.1174 38.5546 48.485 38.7069 48.7561 38.9779C49.0271 39.2489 49.1794 39.6165 49.1794 39.9998V40.1164C49.2942 40.2261 49.4187 40.3249 49.5511 40.4117V35.3627C48.4136 35.0531 47.4027 34.3877 46.668 33.4613C45.892 32.4828 45.4697 31.2706 45.4697 30.0218C45.4697 28.7729 45.892 27.5608 46.668 26.5823C47.4027 25.6559 48.4136 24.9905 49.5511 24.6808V24.4983C49.5511 24.115 49.7034 23.7474 49.9744 23.4764C50.2454 23.2054 50.613 23.0531 50.9963 23.0531C51.3796 23.0531 51.7472 23.2054 52.0183 23.4764C52.2893 23.7474 52.4416 24.115 52.4416 24.4983V24.6771C52.8855 24.7967 53.3126 24.972 53.7127 25.1989C53.898 25.1264 54.0968 25.0929 54.2966 25.1009C54.5434 25.1108 54.7836 25.1839 54.9941 25.3133C55.2047 25.4426 55.3785 25.6238 55.4989 25.8395C55.6193 26.0551 55.6823 26.298 55.682 26.545M55.682 26.545C55.682 26.5451 55.682 26.5452 55.682 26.5453M55.682 26.545L55.682 26.5453M55.682 26.5453L55.682 27.4229" fill="#3C7CFF" stroke="#3C7CFF" stroke-width="0.5"/>
</svg>
