<svg width="100" height="101" viewBox="0 0 100 101" fill="none" xmlns="http://www.w3.org/2000/svg">
<path fill-rule="evenodd" clip-rule="evenodd" d="M4.79895 97.3832H95.194C95.6801 97.3832 96.1228 97.1836 96.4439 96.8624C96.7651 96.5413 96.9648 96.0986 96.9648 95.6125V93.8417H3.02764V95.6125C3.02764 96.0986 3.22729 96.5413 3.54845 96.8624C3.86961 97.1836 4.31286 97.3832 4.79895 97.3832ZM59.2111 90.8166V88.755H40.7874V90.8166H59.2111ZM88.0421 76.4506L89.5915 82.071C89.6522 82.2316 89.6826 82.4095 89.6826 82.5918C89.6826 83.4294 89.0055 84.1065 88.1679 84.1065L11.8256 84.1022V84.0978C11.652 84.0978 11.474 84.0674 11.3004 84.0023C10.5192 83.7116 10.1199 82.8435 10.4107 82.0623L12.5113 76.4506C12.6892 75.8082 13.2751 75.3395 13.9739 75.3395H86.5875V75.3438C87.2515 75.3438 87.8597 75.7822 88.0421 76.4506ZM86.1845 81.0728L85.438 78.3646L15.0154 78.3689L14.0042 81.0771H86.18L86.1845 81.0728ZM14.122 22.9631V4.8516C14.122 3.63199 14.6211 2.52093 15.4241 1.71807C16.227 0.91515 17.3381 0.416016 18.5576 0.416016H81.4416C82.6612 0.416016 83.7723 0.915128 84.5751 1.71807C85.378 2.52102 85.8772 3.6321 85.8772 4.8516V23.0886C87.1879 23.6224 88.325 24.4688 89.193 25.5234C90.2954 26.8688 90.9551 28.5442 90.9551 30.3583V65.279C90.9551 67.3969 90.061 69.3283 88.6114 70.7562C89.6443 71.225 90.5036 71.9541 91.2458 72.8525C92.4307 74.2848 93.2596 76.1206 94.0452 77.9738L99.8218 91.6144C99.9346 91.827 99.9997 92.0701 99.9997 92.3305V95.6159C99.9997 96.9353 99.4616 98.1374 98.5892 99.0055C97.7212 99.8735 96.519 100.416 95.1996 100.416H4.80013C3.48074 100.416 2.27857 99.8778 1.4105 99.0055C0.542477 98.1375 0 96.9353 0 95.6159V92.3305C0 92.0831 0.0607617 91.8487 0.164926 91.6404L5.5987 78.0043C6.34953 76.1207 7.18718 74.2675 8.38502 72.8353C9.13152 71.9412 9.99951 71.2208 11.0368 70.7521C9.58719 69.3286 8.69745 67.4015 8.69745 65.2792V30.3585C8.69745 28.4705 9.40922 26.7302 10.594 25.363C11.5141 24.2997 12.7294 23.4621 14.1182 22.9629L14.122 22.9631ZM49.9971 9.00587H77.5304C78.3681 9.00587 79.0451 8.32881 79.0451 7.49116C79.0451 6.65352 78.3681 5.97645 77.5304 5.97645H49.9971C49.1595 5.97645 48.4824 6.65351 48.4824 7.49116C48.4824 8.3288 49.1595 9.00587 49.9971 9.00587ZM23.8049 9.00587H26.1833C27.0209 9.00587 27.698 8.32881 27.698 7.49116C27.698 6.65352 27.0209 5.97645 26.1833 5.97645H23.8049C22.9673 5.97645 22.2902 6.65351 22.2902 7.49116C22.2902 8.3288 22.9673 9.00587 23.8049 9.00587ZM30.8055 9.00587H33.1839C34.0215 9.00587 34.6986 8.32881 34.6986 7.49116C34.6986 6.65352 34.0215 5.97645 33.1839 5.97645H30.8055C29.9679 5.97645 29.2908 6.65351 29.2908 7.49116C29.2908 8.3288 29.9679 9.00587 30.8055 9.00587ZM37.8061 9.00587H40.1844C41.0221 9.00587 41.6992 8.32881 41.6992 7.49116C41.6992 6.65352 41.0221 5.97645 40.1844 5.97645H37.8061C36.9685 5.97645 36.2914 6.65351 36.2914 7.49116C36.2914 8.3288 36.9684 9.00587 37.8061 9.00587ZM17.1559 11.5361H82.8475V4.84805C82.8475 4.46178 82.6869 4.11457 82.4352 3.85851C82.1791 3.60245 81.8276 3.44621 81.4457 3.44621H18.5572C18.171 3.44621 17.8238 3.60679 17.5677 3.85851C17.3116 4.11458 17.1554 4.46613 17.1554 4.84805L17.1559 11.5361ZM43.4348 57.7586V59.6292H56.8542V57.7369C56.711 57.7499 56.5677 57.7586 56.4202 57.7586H43.4307L43.4348 57.7586ZM59.8885 56.0269V57.4721H81.4409C81.8272 57.4721 82.1744 57.3116 82.4305 57.0598C82.6865 56.8038 82.8428 56.4522 82.8428 56.0703V14.5665H17.1511V56.067C17.1511 56.4532 17.3117 56.8004 17.5634 57.0565C17.8195 57.3126 18.171 57.4688 18.5529 57.4688H40.4009V56.5183C39.6935 55.8239 39.2204 54.8821 39.1206 53.8144C38.7257 49.5221 37.1936 47.747 35.692 46.0153C33.6695 43.676 31.6947 41.3887 31.6947 35.0392C31.6947 29.9873 33.7433 25.4129 37.0547 22.1009C40.3662 18.7894 44.9407 16.7409 49.993 16.7409C55.0454 16.7409 59.6194 18.7895 62.9314 22.1009C66.2434 25.4123 68.2914 29.9869 68.2914 35.0392C68.2914 41.3887 66.3036 43.5892 64.2464 45.8591C62.7101 47.556 61.1346 49.3009 60.7397 53.8014C60.6659 54.6391 60.3578 55.3986 59.8804 56.0322L59.8885 56.0269ZM57.2627 54.4384C57.3061 54.3906 57.3539 54.3472 57.4059 54.3038C57.5882 54.0999 57.7054 53.8351 57.7358 53.5356C58.2219 48.0368 60.1489 45.9058 62.0238 43.8312C63.6731 42.0084 65.2746 40.2375 65.2746 35.0381C65.2746 30.8195 63.5646 27.0046 60.8043 24.2399C58.0397 21.4752 54.2247 19.7696 50.0061 19.7696C45.7875 19.7696 41.9726 21.4797 39.2079 24.2399C36.4433 27.0046 34.7377 30.8195 34.7377 35.0381C34.7377 40.2722 36.3435 42.1341 37.9884 44.0352C39.8026 46.1314 41.6515 48.2754 42.1376 53.54C42.168 53.8742 42.3242 54.1736 42.5586 54.3863C42.7886 54.599 43.1011 54.7248 43.4439 54.7248H56.4301C56.7512 54.7248 57.042 54.6163 57.2634 54.434L57.2627 54.4384ZM44.5677 62.6585C44.5764 63.1663 44.6892 63.609 44.8758 63.9258C44.8932 63.9475 44.9106 63.9735 44.9279 63.9995C45.0234 64.1471 45.0972 64.2382 45.1232 64.2382H55.1836C55.2096 64.2382 55.2834 64.1471 55.3789 63.9995L55.3832 64.0039L55.3876 63.9995C55.5959 63.6784 55.7304 63.2053 55.7391 62.6585L44.5677 62.6585ZM58.7593 62.4675C59.0544 62.32 59.3062 62.0899 59.5058 61.7948C59.7445 61.4432 59.8921 60.9832 59.8921 60.5102V60.4928H81.4445C82.6641 60.4928 83.7752 59.9937 84.578 59.1908C85.381 58.3878 85.8801 57.2767 85.8801 56.0572V26.5096C86.249 26.7743 86.5832 27.0825 86.8653 27.4297C87.5337 28.2413 87.9286 29.2525 87.9286 30.3506V65.2713C87.9286 66.595 87.3427 67.8059 86.3923 68.6869C85.4157 69.594 84.0616 70.1582 82.5643 70.1582H79.4654C78.6278 70.1582 77.9507 70.8353 77.9507 71.6729C77.9507 72.5106 78.6278 73.1876 79.4654 73.1876H85.7803C87.1431 73.1876 88.1283 73.8169 88.9181 74.7718C89.8599 75.9089 90.5761 77.5103 91.2662 79.1379L96.2095 90.8085H62.2487V87.2323C62.2487 86.3946 61.5717 85.7175 60.734 85.7175H39.2771C38.4395 85.7175 37.7624 86.3946 37.7624 87.2323V90.8085L3.74054 90.8172L8.40179 79.1211C9.0528 77.4891 9.76028 75.9051 10.7064 74.781C11.5049 73.8305 12.5075 73.2055 13.879 73.2055H73.6942C74.5319 73.2055 75.2089 72.5285 75.2089 71.6908C75.2089 70.8532 74.5319 70.1761 73.6942 70.1761L17.0911 70.1674C15.5937 70.1674 14.2396 69.6032 13.2631 68.6962C12.317 67.8151 11.7268 66.6042 11.7268 65.2805V30.3598C11.7268 29.2227 12.1608 28.168 12.8769 27.339C13.2285 26.9354 13.6495 26.5795 14.1182 26.2887V56.0664C14.1182 57.286 14.6173 58.397 15.4203 59.1999C16.2232 60.0027 17.3343 60.5019 18.5538 60.5019H40.4018V60.5193C40.4018 60.9924 40.5493 61.4524 40.788 61.8039C40.9833 62.0947 41.2351 62.3247 41.5345 62.4766V62.6112C41.5345 63.7136 41.8297 64.7422 42.3157 65.5364C42.3374 65.5798 42.3635 65.6232 42.3895 65.6666C43.0405 66.6605 44.004 67.2767 45.1151 67.2767H55.1754C56.2908 67.2767 57.25 66.6604 57.901 65.6666L57.8966 65.6622C58.4261 64.855 58.756 63.77 58.756 62.6112V62.4766L58.7593 62.4675ZM45.3221 36.6697L42.5053 33.8529L45.3221 31.0362C45.9124 30.4459 45.9124 29.4868 45.3221 28.8922C44.7319 28.3019 43.7727 28.3019 43.1781 28.8922L39.2894 32.7809C38.6991 33.3711 38.6991 34.3303 39.2894 34.9249L43.1781 38.8136C43.7683 39.4039 44.7275 39.4039 45.3221 38.8136C45.9124 38.2234 45.9124 37.2644 45.3221 36.6697ZM50.6388 29.7299L46.7501 36.4657C46.3334 37.1862 46.5851 38.1107 47.3056 38.5273C48.026 38.944 48.9505 38.6922 49.3672 37.9718L53.2559 31.2359C53.6725 30.5155 53.4208 29.591 52.7004 29.1744C51.9799 28.7577 51.0554 29.0094 50.6388 29.7299ZM56.8234 38.8094L60.7121 34.9207C61.3024 34.3304 61.3024 33.3713 60.7121 32.7767L56.8234 28.8879C56.2332 28.2977 55.274 28.2977 54.6794 28.8879C54.0891 29.4782 54.0891 30.4373 54.6794 31.032L57.4962 33.8487L54.6794 36.6655C54.0891 37.2558 54.0891 38.2149 54.6794 38.8095C55.2696 39.3998 56.2288 39.3997 56.8234 38.8094Z" fill="#3C7CFF"/>
</svg>
