<svg width="102" height="102" viewBox="0 0 102 102" fill="none" xmlns="http://www.w3.org/2000/svg">
<mask id="path-1-outside-1_169_263" maskUnits="userSpaceOnUse" x="0" y="0" width="102" height="102" fill="black">
<rect fill="white" width="102" height="102"/>
<path d="M51.0046 68.8559C41.159 68.8559 33.1487 60.8456 33.1487 51.0001C33.1487 41.1547 41.1591 33.1443 51.0046 33.1443C53.2014 33.0996 62.0155 34.3811 60.3367 37.7925C59.8634 38.6587 58.7739 38.9758 57.9121 38.4979C55.8001 37.3326 53.4113 36.7208 51.0046 36.7208C43.1282 36.7208 36.7163 43.1283 36.7163 51.0091C36.7163 58.8855 43.1237 65.2974 51.0046 65.2974C61.6851 65.4805 68.8204 53.3536 63.5108 44.1016C62.4169 42.0253 65.471 40.3419 66.6409 42.3781C73.2761 53.9379 64.3503 69.0881 51.0038 68.8652L51.0046 68.8559ZM52.7862 79.5722H49.2141C47.2449 79.5722 45.642 77.9693 45.642 76.0001V75.3928C42.771 74.7633 40.0115 73.6202 37.5379 72.0351C36.1805 73.7408 33.6309 74.0533 32.0592 72.4637L29.532 69.9365C28.1388 68.5434 28.1388 66.2796 29.532 64.8865L29.9606 64.4578C28.3755 61.9841 27.2369 59.2248 26.6073 56.3537C24.4418 56.5993 22.4146 55.0231 22.4281 52.7816V49.2096C22.4102 46.9681 24.4462 45.3964 26.6073 45.6375C27.2369 42.7664 28.38 40.007 29.9606 37.5334C28.2594 36.1715 27.938 33.6308 29.532 32.0547L32.0592 29.5275C33.4523 28.1343 35.7161 28.1343 37.1092 29.5275L37.5379 29.9561C40.0161 28.371 42.771 27.2324 45.642 26.5984V25.9911C45.642 24.0219 47.2449 22.419 49.2141 22.419H52.7862C55.0231 22.4012 56.5993 24.4372 56.3582 26.5983C59.2293 27.2279 61.9887 28.371 64.4623 29.9561C65.8197 28.2504 68.3693 27.9379 69.941 29.5274L72.4682 32.0546C74.0667 33.6263 73.7408 36.1759 72.0396 37.5333C73.6247 40.007 74.7633 42.7664 75.3929 45.6374C77.5584 45.3918 79.5857 46.9681 79.5722 49.2095V52.7816C79.59 55.023 77.554 56.5947 75.3929 56.3537C74.7633 59.2247 73.6202 61.9842 72.0396 64.4578C73.7408 65.8196 74.0623 68.3603 72.4682 69.9365L69.941 72.4637C68.5479 73.8568 66.2842 73.8568 64.891 72.4637L64.4623 72.035C61.9842 73.6201 59.2293 74.7587 56.3582 75.3928C56.6038 77.5583 55.0231 79.5812 52.7862 79.5722ZM63.623 68.2889C65.1813 67.1547 66.4003 68.972 67.4138 69.9409L69.941 67.4182C68.9945 66.4225 67.1415 65.1857 68.289 63.6273C70.2938 60.8858 71.6289 57.6619 72.1468 54.3043C72.4638 52.3842 74.5847 52.8307 76.0002 52.7906V49.2185H73.9106C73.0309 49.2185 72.2808 48.5756 72.1468 47.7049C71.6289 44.3471 70.2893 41.1189 68.289 38.3818C67.1548 36.8235 68.9766 35.6045 69.941 34.591L67.4138 32.0638L65.9403 33.5373C65.3197 34.1579 64.3329 34.2338 63.623 33.7159C60.8815 31.7111 57.6576 30.376 54.2999 29.8536C53.4292 29.7196 52.7863 28.9695 52.7863 28.0898V26.0002H49.2142V28.0898C49.2142 28.9694 48.5712 29.7196 47.7005 29.8536C44.3428 30.3715 41.119 31.7066 38.3775 33.7159C36.8147 34.8455 35.6002 33.0327 34.5866 32.0638L32.0594 34.5866C33.006 35.5823 34.859 36.8191 33.7115 38.3774C31.7067 41.1189 30.3716 44.3428 29.8536 47.7005C29.7197 48.5712 28.9695 49.2141 28.0899 49.2141H26.0002V52.7862H28.0899C28.9695 52.7862 29.7197 53.4292 29.8536 54.2999C30.3716 57.6576 31.7111 60.8859 33.7115 63.6229C34.8456 65.1813 33.0239 66.4047 32.0594 67.4138L34.5866 69.941C35.2698 69.3516 36.2878 67.8514 37.3237 67.9451C37.6898 67.9451 38.0604 68.0567 38.3774 68.2889C41.119 70.2937 44.3429 71.6288 47.7005 72.1512C49.6205 72.4682 49.174 74.5891 49.2142 76.0046H52.7862V73.9149C52.7862 73.0353 53.4292 72.2852 54.2999 72.1512C57.6576 71.6333 60.8815 70.2981 63.623 68.2889ZM47.0623 100.478C47.7588 101.174 48.8885 101.174 49.5895 100.478L54.9476 95.1195C55.7424 94.3425 55.5236 93.0789 54.7511 92.3958L49.5939 87.2386C47.933 85.5954 45.428 88.1048 47.0667 89.7658L49.3217 92.0207C34.8642 91.5385 21.2046 82.8896 14.6239 70.035C13.53 67.9855 10.3955 69.5706 11.4582 71.6871C15.5482 79.5367 21.8306 85.9308 29.6089 90.1773C35.6592 93.5039 42.4821 95.3523 49.4251 95.5979L47.0675 97.9555C46.371 98.6521 46.371 99.7818 47.0675 100.483L47.0623 100.478ZM6.88122 54.9424C7.59117 55.6747 8.68064 55.5765 9.40843 54.9424L14.7665 49.5843C16.4097 47.9233 13.9003 45.4184 12.2393 47.0571L9.98442 49.312C10.4667 34.8545 19.1156 21.1949 31.9701 14.6143C34.0196 13.5203 32.4345 10.3859 30.3181 11.4486C22.4684 15.543 16.0743 21.821 11.8278 29.5993C8.50129 35.6495 6.65284 42.4679 6.4072 49.4155L4.04962 47.0579C3.35306 46.3613 2.22335 46.3613 1.52242 47.0579C0.82586 47.7545 0.82586 48.8842 1.52242 49.5851L6.88122 54.9424ZM92.5974 47.0571L87.2393 52.4152C85.5961 54.0807 88.1055 56.5811 89.7665 54.9424L92.0214 52.6875C91.7624 58.9967 90.0657 65.1858 87.0428 70.6816C83.1358 77.8436 77.2553 83.6166 70.0351 87.3807C69.16 87.8361 68.8206 88.9167 69.2761 89.7919C69.736 90.6715 70.8255 91.0019 71.6828 90.5509C85.7436 83.3532 95.1556 68.3949 95.5934 52.584L97.951 54.9416C99.6031 56.5892 102.126 54.0709 100.478 52.4144L95.1201 47.0563C94.4101 46.3374 93.3118 46.4445 92.5929 47.0563L92.5974 47.0571ZM72.3971 11.8278C66.3469 8.50129 59.5239 6.65284 52.581 6.4072L54.9385 4.04962C55.6351 3.35306 55.6351 2.22335 54.9385 1.52242C54.242 0.82586 53.1123 0.82586 52.4113 1.52242L47.0532 6.88054C46.2629 7.65747 46.4772 8.91211 47.2452 9.59978L52.4113 14.7659C53.1079 15.4624 54.2376 15.4624 54.9385 14.7659C55.6351 14.0693 55.6351 12.9396 54.9385 12.2387L52.6836 9.98373C67.1411 10.466 80.8007 19.1149 87.3813 31.9694C88.4887 34.0234 91.6053 32.4204 90.5471 30.3174C86.4571 22.4677 80.1755 16.0743 72.3971 11.8278Z"/>
</mask>
<path d="M51.0046 68.8559C41.159 68.8559 33.1487 60.8456 33.1487 51.0001C33.1487 41.1547 41.1591 33.1443 51.0046 33.1443C53.2014 33.0996 62.0155 34.3811 60.3367 37.7925C59.8634 38.6587 58.7739 38.9758 57.9121 38.4979C55.8001 37.3326 53.4113 36.7208 51.0046 36.7208C43.1282 36.7208 36.7163 43.1283 36.7163 51.0091C36.7163 58.8855 43.1237 65.2974 51.0046 65.2974C61.6851 65.4805 68.8204 53.3536 63.5108 44.1016C62.4169 42.0253 65.471 40.3419 66.6409 42.3781C73.2761 53.9379 64.3503 69.0881 51.0038 68.8652L51.0046 68.8559ZM52.7862 79.5722H49.2141C47.2449 79.5722 45.642 77.9693 45.642 76.0001V75.3928C42.771 74.7633 40.0115 73.6202 37.5379 72.0351C36.1805 73.7408 33.6309 74.0533 32.0592 72.4637L29.532 69.9365C28.1388 68.5434 28.1388 66.2796 29.532 64.8865L29.9606 64.4578C28.3755 61.9841 27.2369 59.2248 26.6073 56.3537C24.4418 56.5993 22.4146 55.0231 22.4281 52.7816V49.2096C22.4102 46.9681 24.4462 45.3964 26.6073 45.6375C27.2369 42.7664 28.38 40.007 29.9606 37.5334C28.2594 36.1715 27.938 33.6308 29.532 32.0547L32.0592 29.5275C33.4523 28.1343 35.7161 28.1343 37.1092 29.5275L37.5379 29.9561C40.0161 28.371 42.771 27.2324 45.642 26.5984V25.9911C45.642 24.0219 47.2449 22.419 49.2141 22.419H52.7862C55.0231 22.4012 56.5993 24.4372 56.3582 26.5983C59.2293 27.2279 61.9887 28.371 64.4623 29.9561C65.8197 28.2504 68.3693 27.9379 69.941 29.5274L72.4682 32.0546C74.0667 33.6263 73.7408 36.1759 72.0396 37.5333C73.6247 40.007 74.7633 42.7664 75.3929 45.6374C77.5584 45.3918 79.5857 46.9681 79.5722 49.2095V52.7816C79.59 55.023 77.554 56.5947 75.3929 56.3537C74.7633 59.2247 73.6202 61.9842 72.0396 64.4578C73.7408 65.8196 74.0623 68.3603 72.4682 69.9365L69.941 72.4637C68.5479 73.8568 66.2842 73.8568 64.891 72.4637L64.4623 72.035C61.9842 73.6201 59.2293 74.7587 56.3582 75.3928C56.6038 77.5583 55.0231 79.5812 52.7862 79.5722ZM63.623 68.2889C65.1813 67.1547 66.4003 68.972 67.4138 69.9409L69.941 67.4182C68.9945 66.4225 67.1415 65.1857 68.289 63.6273C70.2938 60.8858 71.6289 57.6619 72.1468 54.3043C72.4638 52.3842 74.5847 52.8307 76.0002 52.7906V49.2185H73.9106C73.0309 49.2185 72.2808 48.5756 72.1468 47.7049C71.6289 44.3471 70.2893 41.1189 68.289 38.3818C67.1548 36.8235 68.9766 35.6045 69.941 34.591L67.4138 32.0638L65.9403 33.5373C65.3197 34.1579 64.3329 34.2338 63.623 33.7159C60.8815 31.7111 57.6576 30.376 54.2999 29.8536C53.4292 29.7196 52.7863 28.9695 52.7863 28.0898V26.0002H49.2142V28.0898C49.2142 28.9694 48.5712 29.7196 47.7005 29.8536C44.3428 30.3715 41.119 31.7066 38.3775 33.7159C36.8147 34.8455 35.6002 33.0327 34.5866 32.0638L32.0594 34.5866C33.006 35.5823 34.859 36.8191 33.7115 38.3774C31.7067 41.1189 30.3716 44.3428 29.8536 47.7005C29.7197 48.5712 28.9695 49.2141 28.0899 49.2141H26.0002V52.7862H28.0899C28.9695 52.7862 29.7197 53.4292 29.8536 54.2999C30.3716 57.6576 31.7111 60.8859 33.7115 63.6229C34.8456 65.1813 33.0239 66.4047 32.0594 67.4138L34.5866 69.941C35.2698 69.3516 36.2878 67.8514 37.3237 67.9451C37.6898 67.9451 38.0604 68.0567 38.3774 68.2889C41.119 70.2937 44.3429 71.6288 47.7005 72.1512C49.6205 72.4682 49.174 74.5891 49.2142 76.0046H52.7862V73.9149C52.7862 73.0353 53.4292 72.2852 54.2999 72.1512C57.6576 71.6333 60.8815 70.2981 63.623 68.2889ZM47.0623 100.478C47.7588 101.174 48.8885 101.174 49.5895 100.478L54.9476 95.1195C55.7424 94.3425 55.5236 93.0789 54.7511 92.3958L49.5939 87.2386C47.933 85.5954 45.428 88.1048 47.0667 89.7658L49.3217 92.0207C34.8642 91.5385 21.2046 82.8896 14.6239 70.035C13.53 67.9855 10.3955 69.5706 11.4582 71.6871C15.5482 79.5367 21.8306 85.9308 29.6089 90.1773C35.6592 93.5039 42.4821 95.3523 49.4251 95.5979L47.0675 97.9555C46.371 98.6521 46.371 99.7818 47.0675 100.483L47.0623 100.478ZM6.88122 54.9424C7.59117 55.6747 8.68064 55.5765 9.40843 54.9424L14.7665 49.5843C16.4097 47.9233 13.9003 45.4184 12.2393 47.0571L9.98442 49.312C10.4667 34.8545 19.1156 21.1949 31.9701 14.6143C34.0196 13.5203 32.4345 10.3859 30.3181 11.4486C22.4684 15.543 16.0743 21.821 11.8278 29.5993C8.50129 35.6495 6.65284 42.4679 6.4072 49.4155L4.04962 47.0579C3.35306 46.3613 2.22335 46.3613 1.52242 47.0579C0.82586 47.7545 0.82586 48.8842 1.52242 49.5851L6.88122 54.9424ZM92.5974 47.0571L87.2393 52.4152C85.5961 54.0807 88.1055 56.5811 89.7665 54.9424L92.0214 52.6875C91.7624 58.9967 90.0657 65.1858 87.0428 70.6816C83.1358 77.8436 77.2553 83.6166 70.0351 87.3807C69.16 87.8361 68.8206 88.9167 69.2761 89.7919C69.736 90.6715 70.8255 91.0019 71.6828 90.5509C85.7436 83.3532 95.1556 68.3949 95.5934 52.584L97.951 54.9416C99.6031 56.5892 102.126 54.0709 100.478 52.4144L95.1201 47.0563C94.4101 46.3374 93.3118 46.4445 92.5929 47.0563L92.5974 47.0571ZM72.3971 11.8278C66.3469 8.50129 59.5239 6.65284 52.581 6.4072L54.9385 4.04962C55.6351 3.35306 55.6351 2.22335 54.9385 1.52242C54.242 0.82586 53.1123 0.82586 52.4113 1.52242L47.0532 6.88054C46.2629 7.65747 46.4772 8.91211 47.2452 9.59978L52.4113 14.7659C53.1079 15.4624 54.2376 15.4624 54.9385 14.7659C55.6351 14.0693 55.6351 12.9396 54.9385 12.2387L52.6836 9.98373C67.1411 10.466 80.8007 19.1149 87.3813 31.9694C88.4887 34.0234 91.6053 32.4204 90.5471 30.3174C86.4571 22.4677 80.1755 16.0743 72.3971 11.8278Z" fill="#3C7CFF"/>
<path d="M51.0046 68.8559C41.159 68.8559 33.1487 60.8456 33.1487 51.0001C33.1487 41.1547 41.1591 33.1443 51.0046 33.1443C53.2014 33.0996 62.0155 34.3811 60.3367 37.7925C59.8634 38.6587 58.7739 38.9758 57.9121 38.4979C55.8001 37.3326 53.4113 36.7208 51.0046 36.7208C43.1282 36.7208 36.7163 43.1283 36.7163 51.0091C36.7163 58.8855 43.1237 65.2974 51.0046 65.2974C61.6851 65.4805 68.8204 53.3536 63.5108 44.1016C62.4169 42.0253 65.471 40.3419 66.6409 42.3781C73.2761 53.9379 64.3503 69.0881 51.0038 68.8652L51.0046 68.8559ZM52.7862 79.5722H49.2141C47.2449 79.5722 45.642 77.9693 45.642 76.0001V75.3928C42.771 74.7633 40.0115 73.6202 37.5379 72.0351C36.1805 73.7408 33.6309 74.0533 32.0592 72.4637L29.532 69.9365C28.1388 68.5434 28.1388 66.2796 29.532 64.8865L29.9606 64.4578C28.3755 61.9841 27.2369 59.2248 26.6073 56.3537C24.4418 56.5993 22.4146 55.0231 22.4281 52.7816V49.2096C22.4102 46.9681 24.4462 45.3964 26.6073 45.6375C27.2369 42.7664 28.38 40.007 29.9606 37.5334C28.2594 36.1715 27.938 33.6308 29.532 32.0547L32.0592 29.5275C33.4523 28.1343 35.7161 28.1343 37.1092 29.5275L37.5379 29.9561C40.0161 28.371 42.771 27.2324 45.642 26.5984V25.9911C45.642 24.0219 47.2449 22.419 49.2141 22.419H52.7862C55.0231 22.4012 56.5993 24.4372 56.3582 26.5983C59.2293 27.2279 61.9887 28.371 64.4623 29.9561C65.8197 28.2504 68.3693 27.9379 69.941 29.5274L72.4682 32.0546C74.0667 33.6263 73.7408 36.1759 72.0396 37.5333C73.6247 40.007 74.7633 42.7664 75.3929 45.6374C77.5584 45.3918 79.5857 46.9681 79.5722 49.2095V52.7816C79.59 55.023 77.554 56.5947 75.3929 56.3537C74.7633 59.2247 73.6202 61.9842 72.0396 64.4578C73.7408 65.8196 74.0623 68.3603 72.4682 69.9365L69.941 72.4637C68.5479 73.8568 66.2842 73.8568 64.891 72.4637L64.4623 72.035C61.9842 73.6201 59.2293 74.7587 56.3582 75.3928C56.6038 77.5583 55.0231 79.5812 52.7862 79.5722ZM63.623 68.2889C65.1813 67.1547 66.4003 68.972 67.4138 69.9409L69.941 67.4182C68.9945 66.4225 67.1415 65.1857 68.289 63.6273C70.2938 60.8858 71.6289 57.6619 72.1468 54.3043C72.4638 52.3842 74.5847 52.8307 76.0002 52.7906V49.2185H73.9106C73.0309 49.2185 72.2808 48.5756 72.1468 47.7049C71.6289 44.3471 70.2893 41.1189 68.289 38.3818C67.1548 36.8235 68.9766 35.6045 69.941 34.591L67.4138 32.0638L65.9403 33.5373C65.3197 34.1579 64.3329 34.2338 63.623 33.7159C60.8815 31.7111 57.6576 30.376 54.2999 29.8536C53.4292 29.7196 52.7863 28.9695 52.7863 28.0898V26.0002H49.2142V28.0898C49.2142 28.9694 48.5712 29.7196 47.7005 29.8536C44.3428 30.3715 41.119 31.7066 38.3775 33.7159C36.8147 34.8455 35.6002 33.0327 34.5866 32.0638L32.0594 34.5866C33.006 35.5823 34.859 36.8191 33.7115 38.3774C31.7067 41.1189 30.3716 44.3428 29.8536 47.7005C29.7197 48.5712 28.9695 49.2141 28.0899 49.2141H26.0002V52.7862H28.0899C28.9695 52.7862 29.7197 53.4292 29.8536 54.2999C30.3716 57.6576 31.7111 60.8859 33.7115 63.6229C34.8456 65.1813 33.0239 66.4047 32.0594 67.4138L34.5866 69.941C35.2698 69.3516 36.2878 67.8514 37.3237 67.9451C37.6898 67.9451 38.0604 68.0567 38.3774 68.2889C41.119 70.2937 44.3429 71.6288 47.7005 72.1512C49.6205 72.4682 49.174 74.5891 49.2142 76.0046H52.7862V73.9149C52.7862 73.0353 53.4292 72.2852 54.2999 72.1512C57.6576 71.6333 60.8815 70.2981 63.623 68.2889ZM47.0623 100.478C47.7588 101.174 48.8885 101.174 49.5895 100.478L54.9476 95.1195C55.7424 94.3425 55.5236 93.0789 54.7511 92.3958L49.5939 87.2386C47.933 85.5954 45.428 88.1048 47.0667 89.7658L49.3217 92.0207C34.8642 91.5385 21.2046 82.8896 14.6239 70.035C13.53 67.9855 10.3955 69.5706 11.4582 71.6871C15.5482 79.5367 21.8306 85.9308 29.6089 90.1773C35.6592 93.5039 42.4821 95.3523 49.4251 95.5979L47.0675 97.9555C46.371 98.6521 46.371 99.7818 47.0675 100.483L47.0623 100.478ZM6.88122 54.9424C7.59117 55.6747 8.68064 55.5765 9.40843 54.9424L14.7665 49.5843C16.4097 47.9233 13.9003 45.4184 12.2393 47.0571L9.98442 49.312C10.4667 34.8545 19.1156 21.1949 31.9701 14.6143C34.0196 13.5203 32.4345 10.3859 30.3181 11.4486C22.4684 15.543 16.0743 21.821 11.8278 29.5993C8.50129 35.6495 6.65284 42.4679 6.4072 49.4155L4.04962 47.0579C3.35306 46.3613 2.22335 46.3613 1.52242 47.0579C0.82586 47.7545 0.82586 48.8842 1.52242 49.5851L6.88122 54.9424ZM92.5974 47.0571L87.2393 52.4152C85.5961 54.0807 88.1055 56.5811 89.7665 54.9424L92.0214 52.6875C91.7624 58.9967 90.0657 65.1858 87.0428 70.6816C83.1358 77.8436 77.2553 83.6166 70.0351 87.3807C69.16 87.8361 68.8206 88.9167 69.2761 89.7919C69.736 90.6715 70.8255 91.0019 71.6828 90.5509C85.7436 83.3532 95.1556 68.3949 95.5934 52.584L97.951 54.9416C99.6031 56.5892 102.126 54.0709 100.478 52.4144L95.1201 47.0563C94.4101 46.3374 93.3118 46.4445 92.5929 47.0563L92.5974 47.0571ZM72.3971 11.8278C66.3469 8.50129 59.5239 6.65284 52.581 6.4072L54.9385 4.04962C55.6351 3.35306 55.6351 2.22335 54.9385 1.52242C54.242 0.82586 53.1123 0.82586 52.4113 1.52242L47.0532 6.88054C46.2629 7.65747 46.4772 8.91211 47.2452 9.59978L52.4113 14.7659C53.1079 15.4624 54.2376 15.4624 54.9385 14.7659C55.6351 14.0693 55.6351 12.9396 54.9385 12.2387L52.6836 9.98373C67.1411 10.466 80.8007 19.1149 87.3813 31.9694C88.4887 34.0234 91.6053 32.4204 90.5471 30.3174C86.4571 22.4677 80.1755 16.0743 72.3971 11.8278Z" stroke="#3C7CFF" stroke-width="0.6" mask="url(#path-1-outside-1_169_263)"/>
</svg>
