<svg width="102" height="86" viewBox="0 0 102 86" fill="none" xmlns="http://www.w3.org/2000/svg">
<path d="M75.0328 53.5591L75.0328 53.5591L75.0314 53.5604C73.3643 55.1771 72.451 57.3279 72.451 59.603V65.3884L70.5168 67.6852L70.5168 67.6852L70.5148 67.6876C70.2747 67.9799 70.1377 68.3425 70.1377 68.736V70.729C70.1377 71.6348 70.8795 72.358 71.7757 72.358H76.8959C77.1316 74.6412 79.0523 76.4329 81.398 76.4329C83.7436 76.4329 85.6643 74.6412 85.9 72.358H91.0202C91.9213 72.358 92.6583 71.6343 92.6583 70.729V68.736C92.6583 68.356 92.5214 67.9852 92.2825 67.6893L92.2826 67.6892L92.2785 67.6844L90.327 65.3879V59.9013C90.327 56.1865 87.9551 52.952 84.655 51.6422V50.6304C84.655 48.8283 83.186 47.3643 81.3889 47.3643C79.5869 47.3643 78.1228 48.8332 78.1228 50.6304V51.6302C76.9731 52.0645 75.9201 52.711 75.0328 53.5591ZM80.9094 50.6185V50.6168C80.9094 50.3456 81.1266 50.1283 81.3979 50.1283C81.6691 50.1283 81.8863 50.3456 81.8863 50.6168V51.0135C81.8145 51.0076 81.7389 51.0031 81.661 51.003C81.41 50.9931 81.1527 51.0052 80.9067 51.021L80.9094 50.6185ZM74.8273 66.878L74.828 66.8772C75.0913 66.5623 75.2376 66.1723 75.2376 65.7604V59.5857C75.2376 58.0724 75.8577 56.6327 76.9724 55.5389C78.2003 54.3585 79.8428 53.7209 81.5857 53.7766L81.5872 53.7767C84.8813 53.8621 87.5495 56.6114 87.5495 59.8926V65.7692C87.5495 66.1812 87.6958 66.5712 87.9591 66.886L87.9598 66.8869L89.8716 69.1526L89.8716 69.5675H72.9154V69.1437L74.8273 66.878ZM81.3889 73.6424C80.5815 73.6424 79.9065 73.0948 79.6985 72.3452H83.0735C82.8835 73.0938 82.2017 73.6424 81.3889 73.6424Z" fill="#3C7CFF" stroke="#3C7CFF" stroke-width="0.5"/>
<path d="M87.9637 50.226L87.9638 50.226C88.0321 49.8778 88.371 49.612 88.7432 49.6865L88.7514 49.6881L88.7594 49.6903C90.7328 50.2243 93.7422 52.2418 93.6596 56.8714L93.6595 56.8766L93.6594 56.8766C93.6454 57.2419 93.3361 57.5384 92.9642 57.5169L92.9646 57.5169L92.9781 57.2673L92.9634 57.5169L87.9637 50.226ZM87.9637 50.226L87.9627 50.2323M87.9637 50.226L87.9627 50.2323M87.9627 50.2323L87.7138 51.6991M87.9627 50.2323L87.7138 51.6991M87.7138 51.6991C87.6567 52.0176 87.8447 52.33 88.1565 52.4256L87.7138 51.6991ZM91.4846 57.4369C91.4851 57.437 91.4857 57.437 91.4863 57.437L91.4967 57.1872L91.4832 57.4369L91.4846 57.4369Z" fill="#3C7CFF" stroke="#3C7CFF" stroke-width="0.5"/>
<path d="M73.7406 49.7109L73.7406 49.7109L69.0846 56.889H68.8346C68.8346 56.8898 68.8346 56.8905 68.8346 56.8912C68.8359 57.2704 69.1697 57.5532 69.526 57.5392L69.526 57.5392L69.5296 57.539L71.011 57.459L71.011 57.459L71.0128 57.4589C71.371 57.4369 71.6243 57.1359 71.6123 56.794C71.5958 55.1897 72.0887 54.1703 72.6686 53.5218C73.2537 52.8675 73.9453 52.571 74.3489 52.4483L74.362 52.4444L74.3746 52.4389C74.6552 52.3187 74.8478 52.0217 74.7891 51.6978C74.789 51.6976 74.789 51.6975 74.789 51.6974L74.5271 50.2323C74.467 49.8606 74.098 49.6234 73.7406 49.7109Z" fill="#3C7CFF" stroke="#3C7CFF" stroke-width="0.5"/>
<path d="M52.2879 50.651L52.2879 50.651C52.5808 50.4104 53.0913 50.1422 53.8758 50.231M52.2879 50.651L53.8479 50.4794M52.2879 50.651L52.285 50.6534C51.222 51.5539 49.5794 53.3097 48.0534 55.0178C46.5814 56.6656 45.206 58.2827 44.5403 59.0776H39.3944C38.9049 59.0776 38.5083 59.4743 38.5083 59.9638V73.8701C38.5083 74.3596 38.9049 74.7563 39.3944 74.7563H57.9803C59.7639 74.7563 61.2892 73.4971 61.6418 71.7533L61.6419 71.7527L63.3502 63.2114C63.641 61.7577 63.0586 60.2457 61.7549 59.3698C61.1061 58.9279 60.3394 58.7351 59.5777 58.7351H55.3526M52.2879 50.651L55.3526 58.7351M53.8758 50.231C53.8759 50.231 53.8759 50.231 53.876 50.231L53.8479 50.4794M53.8758 50.231C53.8758 50.231 53.8758 50.231 53.8757 50.231L53.8479 50.4794M53.8758 50.231C54.4143 50.2913 55.053 50.5272 55.6196 50.832C56.1838 51.1355 56.7122 51.5265 57.0102 51.9214M53.8479 50.4794C54.8399 50.5906 56.2769 51.3646 56.8107 52.072M57.0102 51.9214L57.0102 51.9213L56.8107 52.072M57.0102 51.9214L57.0123 51.9241C57.1012 52.0419 57.2251 52.2059 57.2953 52.4771C57.3645 52.7449 57.377 53.0967 57.2924 53.5967C57.1315 54.5483 56.6087 56.0936 55.3526 58.7351M57.0102 51.9214L56.8107 52.072M56.8107 52.072L55.3526 58.7351M60.6145 62.6721L60.6144 62.6729L58.9148 71.1999C58.9147 71.2002 58.9147 71.2004 58.9146 71.2006C58.8223 71.6536 58.4352 71.9695 57.9764 71.9695H46.5715V60.9669C47.736 59.5863 51.7262 54.8969 53.7757 53.0432C53.8837 53.0788 54.0131 53.1335 54.1485 53.2006C54.2763 53.2639 54.4016 53.3344 54.5094 53.4024C54.3929 53.8552 54.1225 54.5855 53.7574 55.4605C53.3488 56.4398 52.8306 57.5793 52.303 58.67C52.2214 58.8332 51.8362 59.6036 51.5084 60.2503C51.2041 60.8418 51.6361 61.526 52.2871 61.526H59.6762C59.9673 61.526 60.2369 61.6533 60.4149 61.8766C60.5979 62.1062 60.6704 62.3964 60.6145 62.6721ZM46.5715 72.2195H46.3215V71.9695L46.5715 72.2195ZM41.2772 71.9695V61.8552H43.7933V71.9695H41.2772Z" fill="#3C7CFF" stroke="#3C7CFF" stroke-width="0.5"/>
<path d="M34.0346 63.4208C34.0437 57.5747 29.2737 52.8052 23.4193 52.8052H17.9209C12.0665 52.8052 7.30566 57.5613 7.30566 63.4204C7.30566 69.2748 12.0618 74.0357 17.9209 74.0357H23.4193C29.2736 74.0357 34.0344 69.2797 34.0346 63.4208ZM34.0346 63.4208L33.7846 63.4204H34.0346C34.0346 63.4206 34.0346 63.4207 34.0346 63.4208ZM23.4193 71.2623H17.9209C13.5928 71.2623 10.0833 67.74 10.0833 63.4248C10.0833 59.1097 13.6059 55.5872 17.9209 55.5872H23.4193C27.7474 55.5872 31.2569 59.1095 31.2569 63.4248C31.2569 67.7444 27.7475 71.2623 23.4193 71.2623Z" fill="#3C7CFF" stroke="#3C7CFF" stroke-width="0.5"/>
<path d="M25.8774 58.3671L19.4821 65.4265L15.9499 62.5148L15.9499 62.5148L15.9476 62.513C15.6632 62.2841 15.2428 62.3136 15.0051 62.608C15.0049 62.6083 15.0047 62.6086 15.0045 62.6088L14.0937 63.724L14.0936 63.724L14.0925 63.7254C13.8637 64.0098 13.8931 64.43 14.1873 64.6677C14.1876 64.668 14.188 64.6683 14.1884 64.6686L19.4936 69.0266L19.4936 69.0267L19.4999 69.0316C19.6594 69.1543 19.8864 69.1348 20.0197 68.9883L20.0201 68.9878L27.9457 60.2304C28.2102 59.9487 28.1591 59.5283 27.896 59.2855L27.896 59.2854L27.8942 59.2838L26.824 58.3157C26.5422 58.0513 26.1218 58.1023 25.879 58.3654L25.8774 58.3671Z" fill="#3C7CFF" stroke="#3C7CFF" stroke-width="0.5"/>
<path d="M101.25 46.0621C101.25 42.874 98.6798 40.2885 95.5096 40.2649L95.5079 40.2643H95.4647H84.0644V4.08514C84.0644 2.05678 82.4136 0.396417 80.3756 0.396417L17.8068 0.391968C15.7784 0.391968 14.118 2.04274 14.118 4.08069V40.2644H6.53407C3.34425 40.2644 0.75 42.8587 0.75 46.0485V79.3823C0.75 82.5721 3.34425 85.1663 6.53407 85.1663H95.4659C98.6557 85.1663 101.25 82.5721 101.25 79.3823V46.0621ZM98.457 79.3954V79.6454H98.4603C98.3323 81.1874 97.0311 82.4017 95.4642 82.4017H6.51869C4.86001 82.4017 3.5123 81.0461 3.5123 79.3954V46.0616C3.5123 44.4024 4.85946 43.0552 6.51869 43.0552H95.4506C97.1097 43.0552 98.457 44.4023 98.457 46.0616V79.3954ZM16.8946 4.08514C16.8946 3.58707 17.3076 3.17409 17.8056 3.17409L80.3745 3.16964C80.8726 3.16964 81.2856 3.58265 81.2856 4.08069V40.2644H16.8946V4.08514Z" fill="#3C7CFF" stroke="#3C7CFF" stroke-width="0.5"/>
<path d="M41.4312 36.629L41.4313 36.6291L41.4353 36.6264L60.7203 23.9831L60.7214 23.9823C61.281 23.6113 61.2781 22.7886 60.723 22.4145L60.723 22.4145L60.7202 22.4127L41.4354 9.78344C41.4354 9.78341 41.4353 9.78337 41.4353 9.78334C40.8177 9.37787 39.9761 9.81288 39.9761 10.5752V35.8346C39.9761 36.5831 40.8016 37.0248 41.4312 36.629ZM42.7672 13.9703L56.8481 23.198L42.7672 32.4258V13.9703Z" fill="#3C7CFF" stroke="#3C7CFF" stroke-width="0.5"/>
</svg>
