<svg width="102" height="87" viewBox="0 0 102 87" fill="none" xmlns="http://www.w3.org/2000/svg">
<path d="M75.0328 54.289L75.0328 54.289L75.0314 54.2902C73.3643 55.907 72.451 58.0578 72.451 60.3329V66.1183L70.5168 68.4151L70.5168 68.4151L70.5148 68.4175C70.2747 68.7098 70.1377 69.0724 70.1377 69.4659V71.4588C70.1377 72.3647 70.8795 73.0878 71.7757 73.0878H76.8959C77.1316 75.371 79.0523 77.1627 81.398 77.1627C83.7436 77.1627 85.6643 75.371 85.9 73.0878H91.0202C91.9213 73.0878 92.6583 72.3641 92.6583 71.4588V69.4659C92.6583 69.0858 92.5214 68.7151 92.2825 68.4191L92.2826 68.4191L92.2785 68.4143L90.327 66.1178V60.6312C90.327 56.9163 87.9551 53.6818 84.655 52.372V51.3602C84.655 49.5582 83.186 48.0941 81.3889 48.0941C79.5869 48.0941 78.1228 49.5631 78.1228 51.3602V52.3601C76.9731 52.7943 75.9201 53.4409 75.0328 54.289ZM80.9094 51.3483V51.3467C80.9094 51.0755 81.1266 50.8582 81.3979 50.8582C81.6691 50.8582 81.8863 51.0755 81.8863 51.3467V51.7434C81.8145 51.7374 81.7389 51.733 81.661 51.7328C81.41 51.7229 81.1527 51.7351 80.9067 51.7508L80.9094 51.3483ZM74.8273 67.6079L74.828 67.607C75.0913 67.2921 75.2376 66.9021 75.2376 66.4902V60.3156C75.2376 58.8023 75.8577 57.3625 76.9724 56.2688C78.2003 55.0884 79.8428 54.4508 81.5857 54.5065L81.5872 54.5065C84.8813 54.592 87.5495 57.3413 87.5495 60.6225V66.4991C87.5495 66.911 87.6958 67.301 87.9591 67.6159L87.9598 67.6168L89.8716 69.8825L89.8716 70.2974H72.9154V69.8736L74.8273 67.6079ZM81.3889 74.3722C80.5815 74.3722 79.9065 73.8246 79.6985 73.075H83.0735C82.8835 73.8236 82.2017 74.3722 81.3889 74.3722Z" fill="#3C7CFF" stroke="#3C7CFF" stroke-width="0.5"/>
<path d="M87.9637 50.9559L87.9638 50.9559C88.0321 50.6076 88.371 50.3419 88.7432 50.4163L88.7514 50.418L88.7594 50.4202C90.7328 50.9541 93.7422 52.9716 93.6596 57.6013L93.6595 57.6064L93.6594 57.6064C93.6454 57.9718 93.3361 58.2682 92.9642 58.2468L92.9646 58.2468L92.9781 57.9972L92.9634 58.2467L87.9637 50.9559ZM87.9637 50.9559L87.9627 50.9622M87.9637 50.9559L87.9627 50.9622M87.9627 50.9622L87.7138 52.429M87.9627 50.9622L87.7138 52.429M87.7138 52.429C87.6567 52.7474 87.8447 53.0598 88.1565 53.1555L87.7138 52.429ZM91.4846 58.1668C91.4851 58.1668 91.4857 58.1668 91.4863 58.1669L91.4967 57.9171L91.4832 58.1667L91.4846 58.1668Z" fill="#3C7CFF" stroke="#3C7CFF" stroke-width="0.5"/>
<path d="M73.7406 50.4408L73.7406 50.4407L69.0846 57.6189H68.8346C68.8346 57.6196 68.8346 57.6204 68.8346 57.6211C68.8359 58.0003 69.1697 58.283 69.526 58.2691L69.526 58.2691L69.5296 58.2689L71.011 58.1888L71.011 58.1888L71.0128 58.1887C71.371 58.1668 71.6243 57.8657 71.6123 57.5238C71.5958 55.9196 72.0887 54.9002 72.6686 54.2517C73.2537 53.5974 73.9453 53.3009 74.3489 53.1782L74.362 53.1742L74.3746 53.1688C74.6552 53.0486 74.8478 52.7516 74.7891 52.4276C74.789 52.4275 74.789 52.4274 74.789 52.4272L74.5271 50.9622C74.467 50.5905 74.098 50.3533 73.7406 50.4408Z" fill="#3C7CFF" stroke="#3C7CFF" stroke-width="0.5"/>
<path d="M52.2879 51.3808L52.2879 51.3809C52.5808 51.1403 53.0913 50.8721 53.8758 50.9608M52.2879 51.3808L53.8479 51.2093M52.2879 51.3808L52.285 51.3833C51.222 52.2838 49.5794 54.0395 48.0534 55.7477C46.5814 57.3955 45.206 59.0126 44.5403 59.8075H39.3944C38.9049 59.8075 38.5083 60.2041 38.5083 60.6936V74.6C38.5083 75.0895 38.9049 75.4861 39.3944 75.4861H57.9803C59.7639 75.4861 61.2892 74.227 61.6418 72.4831L61.6419 72.4826L63.3502 63.9413C63.641 62.4875 63.0586 60.9756 61.7549 60.0997C61.1061 59.6578 60.3394 59.4649 59.5777 59.4649H55.3526M52.2879 51.3808L55.3526 59.4649M53.8758 50.9608C53.8759 50.9608 53.8759 50.9609 53.876 50.9609L53.8479 51.2093M53.8758 50.9608C53.8758 50.9608 53.8758 50.9608 53.8757 50.9608L53.8479 51.2093M53.8758 50.9608C54.4143 51.0212 55.053 51.2571 55.6196 51.5618C56.1838 51.8653 56.7122 52.2564 57.0102 52.6512M53.8479 51.2093C54.8399 51.3204 56.2769 52.0945 56.8107 52.8018M57.0102 52.6512L57.0102 52.6512L56.8107 52.8018M57.0102 52.6512L57.0123 52.654C57.1012 52.7717 57.2251 52.9358 57.2953 53.2069C57.3645 53.4747 57.377 53.8266 57.2924 54.3265C57.1315 55.2781 56.6087 56.8235 55.3526 59.4649M57.0102 52.6512L56.8107 52.8018M56.8107 52.8018L55.3526 59.4649M60.6145 63.402L60.6144 63.4027L58.9148 71.9298C58.9147 71.93 58.9147 71.9303 58.9146 71.9305C58.8223 72.3835 58.4352 72.6993 57.9764 72.6993H46.5715V61.6968C47.736 60.3161 51.7262 55.6267 53.7757 53.7731C53.8837 53.8086 54.0131 53.8633 54.1485 53.9305C54.2763 53.9938 54.4016 54.0643 54.5094 54.1323C54.3929 54.5851 54.1225 55.3154 53.7574 56.1904C53.3488 57.1696 52.8306 58.3091 52.303 59.3998C52.2214 59.5631 51.8362 60.3334 51.5084 60.9801C51.2041 61.5716 51.6361 62.2558 52.2871 62.2558H59.6762C59.9673 62.2558 60.2369 62.3831 60.4149 62.6065C60.5979 62.8361 60.6704 63.1263 60.6145 63.402ZM46.5715 72.9493H46.3215V72.6993L46.5715 72.9493ZM41.2772 72.6993V62.585H43.7933V72.6993H41.2772Z" fill="#3C7CFF" stroke="#3C7CFF" stroke-width="0.5"/>
<path d="M34.0346 64.1507C34.0437 58.3046 29.2737 53.535 23.4193 53.535H17.9209C12.0665 53.535 7.30566 58.2912 7.30566 64.1503C7.30566 70.0047 12.0618 74.7655 17.9209 74.7655H23.4193C29.2736 74.7655 34.0344 70.0096 34.0346 64.1507ZM34.0346 64.1507L33.7846 64.1503H34.0346C34.0346 64.1504 34.0346 64.1505 34.0346 64.1507ZM23.4193 71.9922H17.9209C13.5928 71.9922 10.0833 68.4699 10.0833 64.1546C10.0833 59.8396 13.6059 56.317 17.9209 56.317H23.4193C27.7474 56.317 31.2569 59.8393 31.2569 64.1546C31.2569 68.4742 27.7475 71.9922 23.4193 71.9922Z" fill="#3C7CFF" stroke="#3C7CFF" stroke-width="0.5"/>
<path d="M25.8774 59.097L19.4821 66.1564L15.9499 63.2447L15.9499 63.2447L15.9476 63.2429C15.6632 63.0139 15.2428 63.0435 15.0051 63.3379C15.0049 63.3382 15.0047 63.3384 15.0045 63.3387L14.0937 64.4539L14.0936 64.4539L14.0925 64.4553C13.8637 64.7396 13.8931 65.1599 14.1873 65.3976C14.1876 65.3979 14.188 65.3982 14.1884 65.3984L19.4936 69.7565L19.4936 69.7566L19.4999 69.7614C19.6594 69.8841 19.8864 69.8647 20.0197 69.7181L20.0201 69.7177L27.9457 60.9603C28.2102 60.6786 28.1591 60.2581 27.896 60.0153L27.896 60.0153L27.8942 60.0136L26.824 59.0455C26.5422 58.7811 26.1218 58.8322 25.879 59.0952L25.8774 59.097Z" fill="#3C7CFF" stroke="#3C7CFF" stroke-width="0.5"/>
<path d="M101.25 46.792C101.25 43.6039 98.6798 41.0183 95.5096 40.9948L95.5079 40.9941H95.4647H84.0644V4.815C84.0644 2.78664 82.4136 1.12628 80.3756 1.12628L17.8068 1.12183C15.7784 1.12183 14.118 2.77259 14.118 4.81055V40.9943H6.53407C3.34425 40.9943 0.75 43.5885 0.75 46.7783V80.1121C0.75 83.3019 3.34425 85.8962 6.53407 85.8962H95.4659C98.6557 85.8962 101.25 83.3019 101.25 80.1121V46.792ZM98.457 80.1252V80.3752H98.4603C98.3323 81.9172 97.0311 83.1316 95.4642 83.1316H6.51869C4.86001 83.1316 3.5123 81.7759 3.5123 80.1252V46.7914C3.5123 45.1323 4.85946 43.785 6.51869 43.785H95.4506C97.1097 43.785 98.457 45.1322 98.457 46.7914V80.1252ZM16.8946 4.815C16.8946 4.31693 17.3076 3.90395 17.8056 3.90395L80.3745 3.8995C80.8726 3.8995 81.2856 4.31251 81.2856 4.81055V40.9943H16.8946V4.815Z" fill="#3C7CFF" stroke="#3C7CFF" stroke-width="0.5"/>
<path d="M41.4312 37.3589L41.4313 37.3589L41.4353 37.3563L60.7203 24.7129L60.7214 24.7122C61.281 24.3412 61.2781 23.5184 60.723 23.1443L60.723 23.1443L60.7202 23.1425L41.4354 10.5133C41.4354 10.5133 41.4353 10.5132 41.4353 10.5132C40.8177 10.1077 39.9761 10.5427 39.9761 11.305V36.5644C39.9761 37.3129 40.8016 37.7546 41.4312 37.3589ZM42.7672 14.7002L56.8481 23.9279L42.7672 33.1557V14.7002Z" fill="#3C7CFF" stroke="#3C7CFF" stroke-width="0.5"/>
</svg>
