<svg width="100" height="100" viewBox="0 0 100 100" fill="none" xmlns="http://www.w3.org/2000/svg">
<path d="M26.6936 68.1644C26.6936 69.2443 25.8189 70.1145 24.7435 70.1145H23.0701V71.7969C23.0701 72.8768 22.1954 73.747 21.12 73.747C20.0401 73.747 19.1699 72.8723 19.1699 71.7969V70.1145H17.4875C16.4076 70.1145 15.5375 69.2399 15.5375 68.1644C15.5375 67.0845 16.4121 66.2143 17.4875 66.2143H19.1699V64.5319C19.1699 63.452 20.0446 62.5819 21.12 62.5819C22.1999 62.5819 23.0701 63.4565 23.0701 64.5319V66.2143H24.7435C25.8234 66.2143 26.6936 67.089 26.6936 68.1644ZM39.7112 48.6637H41.3936V50.3461C41.3936 51.426 42.2682 52.2962 43.3437 52.2962C44.4236 52.2962 45.2938 51.4215 45.2938 50.3461V48.6637H46.9671C48.0471 48.6637 48.9172 47.789 48.9172 46.7136C48.9172 45.6337 48.0426 44.7635 46.9671 44.7635H45.2938V43.0901C45.2938 42.0102 44.4191 41.1401 43.3437 41.1401C42.2638 41.1401 41.3936 42.0147 41.3936 43.0901V44.7635H39.7112C38.6313 44.7635 37.7611 45.6382 37.7611 46.7136C37.7611 47.7935 38.6358 48.6637 39.7112 48.6637ZM61.5242 65.8179C61.5242 69.3924 58.6146 72.2975 55.0401 72.2975C52.1485 72.2975 49.6896 70.392 48.8595 67.7681H41.425C38.2298 67.7681 35.6327 65.171 35.6327 61.9803V58.1381C35.6327 57.0983 34.7893 56.2549 33.7496 56.2549H19.1394C18.3094 58.8789 15.855 60.7843 12.9588 60.7843C9.38438 60.7843 6.47926 57.8792 6.47926 54.3047C6.47926 50.7303 9.38438 47.8207 12.9588 47.8207C15.855 47.8207 18.3094 49.7307 19.1394 52.3547H33.7496C36.9403 52.3547 39.5374 54.9518 39.5374 58.1425V61.9847C39.5374 63.0245 40.3853 63.8679 41.4295 63.8679H48.864C49.694 61.2439 52.1484 59.3385 55.0446 59.3385C58.619 59.3385 61.5286 62.2436 61.5286 65.8181L61.5242 65.8179ZM15.5335 54.3048C15.5335 52.8813 14.3777 51.7211 12.9542 51.7211C11.5351 51.7211 10.3748 52.8813 10.3748 54.3048C10.3748 55.7239 11.5306 56.8842 12.9542 56.8842C14.3732 56.8842 15.5335 55.7284 15.5335 54.3048ZM57.6194 65.8179C57.6194 64.3988 56.4592 63.2386 55.0357 63.2386C53.6166 63.2386 52.4564 64.3944 52.4564 65.8179C52.4564 67.237 53.6121 68.3972 55.0357 68.3972C56.4592 68.3972 57.6194 67.2415 57.6194 65.8179ZM90.4325 28.6317C90.4325 37.0033 86.9697 41.5637 84.185 45.2319C83.0159 46.7715 81.9538 48.1727 81.2621 49.681H81.8823C82.9623 49.681 83.8324 50.5556 83.8324 51.6311V55.2725C83.8324 57.2047 82.8462 58.9094 81.3512 59.9135C80.4811 63.769 77.4554 66.75 73.6668 67.6246V77.1253C73.6668 80.3785 71.0205 83.0248 67.7673 83.0248H39.4221V87.2374C42.0728 88.0674 44.0006 90.5485 44.0006 93.4714C44.0006 97.0726 41.0732 100 37.4721 100C33.8709 100 30.9435 97.0726 30.9435 93.4714C30.9435 90.5485 32.8713 88.0718 35.522 87.2374V83.0248H7.1802C3.927 83.0248 1.28074 80.3785 1.28074 77.1253V35.6425C0.535511 35.3703 0 34.6518 0 33.8128V27.8152C0 26.7353 0.874643 25.8652 1.95007 25.8652H52.4967C53.8399 16.659 61.7876 9.56313 71.3599 9.56313C81.8736 9.56313 90.4277 18.1133 90.4277 28.6275L90.4325 28.6317ZM40.1042 93.4674C40.1042 92.0171 38.9261 90.839 37.4757 90.839C36.0255 90.839 34.8473 92.017 34.8473 93.4674C34.8473 94.9178 36.0254 96.0958 37.4757 96.0958C38.926 96.0958 40.1042 94.9178 40.1042 93.4674ZM56.2051 28.6317C56.2051 28.8771 56.2096 29.1137 56.2141 29.3502C57.3743 27.0073 59.7885 25.392 62.5731 25.392C65.4202 25.392 67.8834 27.0833 69.008 29.5109V28.4221C69.008 27.3421 69.8827 26.472 70.9581 26.472C72.7164 26.472 74.1444 25.044 74.1444 23.2857C74.1444 21.5275 72.7164 20.095 70.9581 20.095C69.8782 20.095 69.008 19.2204 69.008 18.1449V13.6601C61.7609 14.7936 56.2006 21.0768 56.2006 28.6358L56.2051 28.6317ZM63.8717 41.6756C63.8717 38.4448 66.0449 35.7092 69.008 34.8614V34.433H67.7094C66.6295 34.433 65.7594 33.5584 65.7594 32.483C65.7594 30.7247 64.3314 29.2967 62.5731 29.2967C60.8148 29.2967 59.3868 30.7247 59.3868 32.483C59.3868 33.5629 58.5122 34.433 57.4368 34.433H56.9548C57.9589 37.9941 59.8286 40.4618 61.6583 42.8671C63.2202 44.9244 64.8266 47.044 65.6522 49.6813H69.0125V48.4943C66.0493 47.6464 63.8762 44.9109 63.8762 41.6801L63.8717 41.6756ZM64.126 53.5817H64.1171H64.1082H62.8052V55.273C62.8052 56.2012 63.5593 56.9599 64.492 56.9599H78.2499C79.1781 56.9599 79.9368 56.2057 79.9368 55.273V53.5817H64.126ZM3.90448 31.8624H52.4827C52.4024 31.193 52.3488 30.4969 52.3221 29.7695H3.90377L3.90448 31.8624ZM69.7661 77.1254V67.7631C65.6516 67.116 62.3003 64.0101 61.3765 59.918C59.8816 58.914 58.8953 57.2093 58.8953 55.277V51.6356C58.8953 50.5557 59.77 49.6856 60.8454 49.6856H61.4701C60.774 48.1728 59.7119 46.776 58.5428 45.232C56.6774 42.7732 54.5041 39.9128 53.277 35.7716L5.18427 35.7627V77.1209C5.18427 78.2232 6.08124 79.1157 7.17902 79.1157H67.7707C68.8729 79.1157 69.7655 78.2187 69.7655 77.1209L69.7661 77.1254ZM76.8346 60.8599H65.9016C67.0082 62.7386 69.0565 63.9837 71.3682 63.9837C73.6798 63.9837 75.728 62.7432 76.8392 60.8599H76.8346ZM77.089 49.6769C77.9146 47.044 79.5166 44.9243 81.0785 42.8671C82.1629 41.4391 83.2607 39.9933 84.1845 38.3109C83.0421 39.1008 81.6543 39.5649 80.1638 39.5649C76.9285 39.5649 74.1929 37.3917 73.3406 34.4286H72.9122V36.5349C72.9122 37.6149 72.0375 38.485 70.9621 38.485C69.2038 38.485 67.7758 39.913 67.7758 41.6713C67.7758 43.4296 69.2038 44.8575 70.9621 44.8575C72.042 44.8575 72.9122 45.7322 72.9122 46.8076V49.6725H77.089V49.6769ZM86.5316 28.6316C86.5316 20.7954 80.5519 14.3253 72.9119 13.5485V16.4625C75.8751 17.3149 78.0483 20.0504 78.0483 23.2857C78.0483 26.5166 75.8751 29.2521 72.9119 30.0999V30.5283H75.0183C76.0982 30.5283 76.9684 31.403 76.9684 32.4784C76.9684 34.2367 78.4008 35.6647 80.1591 35.6647C81.9174 35.6647 83.3454 34.2367 83.3454 32.4784C83.3454 31.3985 84.22 30.5283 85.2954 30.5283H86.4557C86.5003 29.9259 86.5271 29.2922 86.5271 28.6317L86.5316 28.6316ZM71.364 8.38943C72.4439 8.38943 73.3141 7.51479 73.3141 6.43936V1.95007C73.3141 0.870154 72.4394 0 71.364 0C70.2841 0 69.4139 0.874643 69.4139 1.95007V6.43936C69.4139 7.51928 70.2886 8.38943 71.364 8.38943ZM81.4894 11.1026C81.7973 11.2811 82.132 11.3659 82.4622 11.3659C83.1361 11.3659 83.7921 11.0134 84.1536 10.3886L86.3937 6.50185C86.9337 5.56918 86.6124 4.37322 85.6797 3.83777C84.747 3.29781 83.5511 3.61911 83.0156 4.55177L80.7755 8.43856C80.2355 9.37122 80.5568 10.5672 81.4894 11.1026ZM96.1624 14.3156C95.6224 13.383 94.431 13.0616 93.4983 13.6016L89.6115 15.8418C88.6789 16.3817 88.3575 17.5732 88.8975 18.5058C89.259 19.1306 89.915 19.4831 90.5889 19.4831C90.9191 19.4831 91.2538 19.3983 91.5617 19.2198L95.4485 16.9797C96.3811 16.4397 96.7024 15.2483 96.1624 14.3156ZM98.05 26.6764H93.5607C92.4808 26.6764 91.6106 27.551 91.6106 28.6265C91.6106 29.7064 92.4853 30.5765 93.5607 30.5765H98.05C99.1299 30.5765 100 29.7019 100 28.6265C100 27.5465 99.1254 26.6764 98.05 26.6764ZM47.2841 16.9838L51.1708 19.2239C51.4788 19.4024 51.8134 19.4872 52.1437 19.4872C52.8175 19.4872 53.4735 19.1347 53.835 18.5099C54.375 17.5773 54.0537 16.3813 53.121 15.8459L49.2342 13.6057C48.3015 13.0658 47.1056 13.3871 46.5701 14.3197C46.0302 15.2524 46.3514 16.4484 47.2841 16.9838ZM58.5786 10.3883C58.9401 11.013 59.5961 11.3656 60.2699 11.3656C60.6002 11.3656 60.9348 11.2808 61.2428 11.1023C62.1754 10.5623 62.4968 9.37087 61.9568 8.43821L59.7166 4.55143C59.1767 3.61877 57.9852 3.29742 57.0526 3.83743C56.1199 4.37744 55.7985 5.56885 56.3386 6.50151L58.5786 10.3883Z" fill="#3C7CFF"/>
</svg>
