<svg width="100" height="94" viewBox="0 0 100 94" fill="none" xmlns="http://www.w3.org/2000/svg">
<path d="M46.7684 45.5776L46.7676 45.5774C40.1898 44.2877 35.0739 39.1731 33.7397 32.5488C33.6269 31.9833 33.0639 31.5829 32.4859 31.698L32.4859 31.698C31.9205 31.8106 31.52 32.3734 31.6348 32.9512C33.095 40.3837 38.8892 46.1778 46.3216 47.6381L46.3455 47.6428H46.3698H46.5437C47.0323 47.6428 47.5017 47.3168 47.5748 46.7921C47.7435 46.2335 47.3088 45.6853 46.7684 45.5776Z" fill="#3C7CFF" stroke="#3C7CFF" stroke-width="0.5"/>
<path d="M32.4861 26.9954L32.5103 27.0003H32.5349H32.7088C33.2021 27.0003 33.6758 26.6681 33.7419 26.1345C35.0346 19.5611 40.1475 14.4494 46.7688 13.1158C47.3342 13.003 47.7347 12.44 47.6195 11.862C47.5069 11.2964 46.9437 10.8958 46.3657 11.011L46.3652 11.0111C38.8936 12.5134 33.1438 18.2593 31.6816 25.7311C31.5121 26.3224 31.9284 26.8843 32.4861 26.9954Z" fill="#3C7CFF" stroke="#3C7CFF" stroke-width="0.5"/>
<path d="M53.2174 13.1159L53.2174 13.1159L53.2185 13.1161C59.8379 14.4058 64.9119 19.5199 66.2461 26.145L66.2461 26.145L66.2471 26.1497C66.3592 26.655 66.8091 27.0003 67.2772 27.0003H67.4511H67.4757L67.4999 26.9955C68.0655 26.8828 68.4661 26.3197 68.3509 25.7416L68.3508 25.7412C66.8478 18.2659 61.097 12.5141 53.6198 11.0554C53.042 10.9406 52.4791 11.3411 52.3665 11.9066C52.2485 12.4986 52.6667 13.0061 53.2174 13.1159Z" fill="#3C7CFF" stroke="#3C7CFF" stroke-width="0.5"/>
<path d="M66.2458 32.5943L66.2459 32.5936C66.3586 32.028 66.9217 31.6274 67.4998 31.7426M66.2458 32.5943L67.4998 31.7426M66.2458 32.5943C64.9561 39.172 59.8416 44.2879 53.2173 45.6221M66.2458 32.5943L53.2173 45.6221M67.4998 31.7426C68.0745 31.857 68.462 32.4262 68.3516 33.0366L68.3507 33.0417L68.3506 33.0417C66.8456 40.4723 61.095 46.2669 53.6193 47.7272L53.5956 47.7318H53.5714H53.3975C52.9294 47.7318 52.4795 47.3865 52.3674 46.8813L52.3663 46.876L52.3663 46.876C52.2512 46.2979 52.6518 45.7348 53.2173 45.6221M67.4998 31.7426L53.2173 45.6221" fill="#3C7CFF" stroke="#3C7CFF" stroke-width="0.5"/>
<path d="M69.8959 28.2907H64.4568C63.9507 21.1502 58.2138 15.4132 51.0734 14.9072V9.46821C51.0734 8.90213 50.6203 8.38965 49.9948 8.38965C49.3756 8.38965 48.9163 8.85143 48.9163 9.46821V14.9073C41.7759 15.4134 36.0388 21.1502 35.5329 28.2907H30.0938C29.5277 28.2907 29.0153 28.7438 29.0153 29.3692C29.0153 29.9884 29.477 30.4478 30.0938 30.4478H35.5329C36.039 37.5882 41.7758 43.3253 48.9163 43.8312V49.2703C48.9163 49.8363 49.3694 50.3488 49.9948 50.3488C50.6141 50.3488 51.0734 49.887 51.0734 49.2703V43.8312C58.2138 43.3251 63.9509 37.5882 64.4568 30.4478H69.8959C70.4619 30.4478 70.9744 29.9947 70.9744 29.3692C70.9744 28.75 70.5126 28.2907 69.8959 28.2907ZM49.9928 29.687C47.9487 29.687 46.3148 28.0531 46.3148 26.0089C46.3148 23.9647 47.9487 22.3309 49.9928 22.3309C52.037 22.3309 53.6709 23.9647 53.6709 26.0089C53.6709 28.0531 52.037 29.687 49.9928 29.687ZM49.9928 31.8458C50.7814 31.8458 51.5245 31.6786 52.183 31.4249C54.9203 32.3354 56.8998 34.9252 56.8998 37.9689V39.6275C54.9531 40.949 52.5563 41.7322 49.9928 41.7322C47.4292 41.7322 45.0322 40.9489 43.0859 39.6243V37.9655C43.0859 34.9251 45.0644 32.3761 47.8042 31.4223C48.4622 31.6773 49.2047 31.8458 49.9928 31.8458ZM62.3557 29.3267C62.3557 32.6173 61.1155 35.5653 59.0571 37.7539C58.9939 34.3592 57.0464 31.4276 54.2521 29.9541C55.2029 28.9218 55.7855 27.5226 55.7855 26.0087C55.7855 22.8155 53.1861 20.2162 49.993 20.2162C46.7999 20.2162 44.2005 22.8156 44.2005 26.0087C44.2005 27.5256 44.7842 28.9245 45.7364 29.9568C42.9451 31.4623 40.9951 34.3525 40.929 37.7462C38.8709 35.5214 37.6305 32.5739 37.6305 29.3267C37.6305 22.5261 43.1925 16.9642 49.9931 16.9642C56.7937 16.9642 62.3557 22.5261 62.3557 29.3267Z" fill="#3C7CFF" stroke="#3C7CFF" stroke-width="0.5"/>
<path fill-rule="evenodd" clip-rule="evenodd" d="M0 66.7324V6.13986C0 2.7485 2.74838 0 6.13986 0H93.8601C97.2515 0 100 2.74838 100 6.13986V66.7324C100 70.1238 97.2516 72.8723 93.8601 72.8723H63.7803L66.6668 80.9602C68.0577 81.3889 69.3438 82.151 70.3917 83.1989C72.0779 84.8851 73.0258 87.1714 73.0258 89.553V91.3059C73.0258 92.6397 71.9398 93.7209 70.6108 93.7209H29.3894C28.0557 93.7209 26.9744 92.6396 26.9744 91.3059V89.553C26.9744 87.1714 27.9223 84.8851 29.6086 83.1989C30.6565 82.151 31.9378 81.3889 33.3334 80.9602L36.2152 72.8723H6.14023C2.74887 72.8723 0 70.1239 0 66.7324ZM95.1695 53.2241V6.13986C95.1695 5.41585 94.5836 4.82999 93.8597 4.82999H6.13937C5.41536 4.82999 4.82475 5.41587 4.82475 6.13986V53.2241H95.1695ZM6.13961 68.0421H93.8599C94.5839 68.0421 95.1698 67.4562 95.1698 66.7322V58.0536H4.82536V66.7322C4.82536 67.4562 5.41564 68.0421 6.13961 68.0421ZM61.3974 80.5688L58.6537 72.8714H41.3445L38.6009 80.5688H61.3974ZM35.9573 85.3987C34.857 85.3987 33.7996 85.8369 33.0232 86.6133C32.3992 87.2373 31.9943 88.0328 31.8562 88.8901H68.1379C67.9997 88.0328 67.5996 87.2373 66.9756 86.6133C66.1992 85.8369 65.1418 85.3987 64.0415 85.3987H35.9573ZM45.56 65.4593C44.2262 65.4593 43.145 64.378 43.145 63.0443C43.145 61.7154 44.2262 60.6293 45.56 60.6293H54.4386C55.7723 60.6293 56.8536 61.7153 56.8536 63.0443C56.8536 64.378 55.7723 65.4593 54.4386 65.4593H45.56Z" fill="#3C7CFF"/>
</svg>
