<svg width="94" height="101" viewBox="0 0 94 101" fill="none" xmlns="http://www.w3.org/2000/svg">
<path d="M92.8503 65.9517L82.2021 49.7934C82.0663 49.586 81.8898 49.4084 81.6845 49.2704L73.6053 43.8362C73.5454 43.7956 73.4834 43.7592 73.4193 43.7261C71.7668 42.8737 68.3262 41.0993 65.5572 43.8704C64.9936 44.433 64.5733 45.0993 64.2995 45.8287C63.2781 45.263 62.1508 45.0095 61.0385 45.0715V36.1614C69.9957 35.2223 77 27.6287 77 18.4287C77 8.59558 69.0011 0.595581 59.1668 0.595581C54.784 0.595581 50.7722 2.1913 47.6642 4.82339H10.1626C4.55936 4.82339 0 9.38275 0 14.986V90.433C0 96.0362 4.55936 100.596 10.1626 100.596H50.8749C56.4781 100.596 61.0374 96.0362 61.0374 90.433V84.0555L69.8545 89.1079C70.1455 89.2747 70.4663 89.3549 70.784 89.3549C71.2684 89.3549 71.7476 89.1667 72.108 88.8063L92.6096 68.3047C93.2396 67.6769 93.339 66.6929 92.8503 65.9517ZM49.2438 52.3282L42.3529 45.4373C41.2353 44.3196 39.7647 43.6747 38.2139 43.6213C36.6171 43.5603 35.1262 44.141 34.0278 45.2416C31.7861 47.4833 31.8727 51.218 34.2235 53.5678L49.3358 68.6801L45.2439 68.8063C41.1668 68.894 37.9176 72.1164 38.0011 75.9902C38.0845 79.8095 41.3765 82.8587 45.3765 82.8587C45.4332 82.8587 45.4888 82.8576 45.5444 82.8565L57.2941 82.6052V84.6448H3.74332V20.3004H41.4332C42.3069 28.6416 48.9529 35.2876 57.2941 36.1614V46.7678C56.6299 47.4651 56.185 48.3122 55.954 49.2362C55.5027 49.1122 55.0417 49.0223 54.5668 49.0063C52.9765 48.9581 51.4791 49.5261 50.3797 50.6266C49.8791 51.1271 49.5134 51.71 49.2438 52.3282ZM59.1668 4.3389C66.9358 4.3389 73.2567 10.6598 73.2567 18.4287C73.2567 26.1977 66.9358 32.5186 59.1668 32.5186C51.3979 32.5186 45.077 26.1977 45.077 18.4287C45.077 10.6598 51.3979 4.3389 59.1668 4.3389ZM10.1626 8.5667H44.3209C42.7636 10.9036 41.7401 13.6245 41.4332 16.5571H3.74332V14.986C3.74332 11.4469 6.62353 8.5667 10.1626 8.5667ZM50.8759 96.8523H10.1626C6.62246 96.8523 3.74332 93.9731 3.74332 90.433V88.387H57.2941V90.433C57.2952 93.9731 54.415 96.8523 50.8759 96.8523ZM70.4749 85.1475L59.8727 79.0726C59.5775 78.9036 59.2225 78.8223 58.9027 78.8255L45.4663 79.1132C43.4802 79.1442 41.784 77.7186 41.7454 75.9079C41.7069 74.0983 43.3134 72.5902 45.3433 72.5464L53.7797 72.2865C54.5262 72.264 55.1872 71.7988 55.462 71.1057C55.7369 70.4127 55.5733 69.6202 55.0449 69.0929L36.8706 50.9207C35.9968 50.0458 35.907 48.6576 36.6749 47.8886C37.0332 47.5303 37.5134 47.341 38.0856 47.3624C38.6866 47.3838 39.262 47.6394 39.707 48.0844L50.57 58.9474C50.5722 58.9496 50.5733 58.9517 50.5754 58.9539L50.5786 58.956L57.8556 66.233C58.5872 66.9646 59.7711 66.9646 60.5027 66.233C61.2342 65.5025 61.2342 64.3164 60.5027 63.586L53.2246 56.3079C52.3497 55.4319 52.2599 54.0437 53.0278 53.2747C53.3882 52.9164 53.9144 52.7357 54.4385 52.7485C55.0396 52.7699 55.615 53.0255 56.0599 53.4704L63.4364 60.8469C63.8021 61.2127 64.2802 61.3956 64.7594 61.3956C65.2385 61.3956 65.7177 61.2127 66.0824 60.8469C66.8139 60.1154 66.8139 58.9303 66.0824 58.1999L60.2246 52.3421L60.2235 52.341C59.7786 51.895 59.5219 51.3196 59.5005 50.7196C59.4813 50.1678 59.6684 49.6672 60.0267 49.3089C60.3861 48.9507 60.8963 48.7614 61.4385 48.7827C62.0385 48.8041 62.615 49.0597 63.0599 49.5047L70.1914 56.6362C70.5572 57.002 71.0353 57.1849 71.5144 57.1849C71.9936 57.1849 72.4727 57.002 72.8374 56.6362C73.569 55.9057 73.569 54.7196 72.8374 53.9892L68.3989 49.5507C67.954 49.1047 67.6973 48.5293 67.6759 47.9293C67.6567 47.3774 67.8439 46.8769 68.2021 46.5186C68.5882 46.1303 69.0289 45.6918 71.6064 47.0052L79.2824 52.1678L88.8845 66.7378L70.4749 85.1475Z" fill="#3C7CFF"/>
<path d="M22.9467 31.5144C22.2151 30.7828 21.0312 30.7828 20.2996 31.5144C19.5681 32.2448 19.5681 33.4299 20.2996 34.1614L25.72 39.5828C26.0857 39.9486 26.5638 40.1315 27.043 40.1315C27.5221 40.1315 28.0012 39.9486 28.366 39.5828C29.0975 38.8523 29.0975 37.6673 28.366 36.9358L22.9467 31.5144Z" fill="#3C7CFF"/>
<path d="M38.0055 30.0213L32.6654 35.3625C31.9338 36.094 31.9338 37.2791 32.6654 38.0096C33.0311 38.3753 33.5092 38.5582 33.9884 38.5582C34.4675 38.5582 34.9466 38.3753 35.3114 38.0096L40.6515 32.6684C41.383 31.9368 41.383 30.7518 40.6515 30.0213C39.921 29.2898 38.737 29.2898 38.0055 30.0213Z" fill="#3C7CFF"/>
<path d="M23.9914 44.0362L18.6502 49.3774C17.9187 50.1078 17.9187 51.2929 18.6502 52.0244C19.016 52.3902 19.4941 52.5731 19.9732 52.5731C20.4524 52.5731 20.9315 52.3902 21.2962 52.0244L26.6374 46.6832C27.3689 45.9528 27.3689 44.7677 26.6374 44.0362C25.9058 43.3046 24.7219 43.3057 23.9914 44.0362Z" fill="#3C7CFF"/>
<path d="M34.648 91.1625H26.3902C25.356 91.1625 24.5186 92.001 24.5186 93.0341C24.5186 94.0673 25.356 94.9058 26.3902 94.9058H34.648C35.6822 94.9058 36.5196 94.0673 36.5196 93.0341C36.5196 92.001 35.6822 91.1625 34.648 91.1625Z" fill="#3C7CFF"/>
<path d="M11.8472 14.433H18.2034C19.2376 14.433 20.0751 13.5945 20.0751 12.5614C20.0751 11.5282 19.2376 10.6897 18.2034 10.6897H11.8472C10.813 10.6897 9.97559 11.5282 9.97559 12.5614C9.97559 13.5945 10.8141 14.433 11.8472 14.433Z" fill="#3C7CFF"/>
<path d="M24.1627 14.433H38.3092C39.3434 14.433 40.1809 13.5945 40.1809 12.5614C40.1809 11.5282 39.3434 10.6897 38.3092 10.6897H24.1627C23.1284 10.6897 22.291 11.5282 22.291 12.5614C22.291 13.5945 23.1284 14.433 24.1627 14.433Z" fill="#3C7CFF"/>
<path d="M52.972 20.2287L58.0329 24.0811C58.3709 24.3389 58.7688 24.4629 59.1655 24.4629C59.7121 24.4629 60.2532 24.2244 60.6212 23.7688L67.3581 15.4426C68.0083 14.6394 67.8843 13.4608 67.08 12.8105C66.2768 12.1613 65.0982 12.2843 64.4479 13.0886L58.8543 20.002L55.2383 17.2501C54.4179 16.6244 53.2425 16.7827 52.6158 17.6062C51.9901 18.4276 52.1484 19.602 52.972 20.2287Z" fill="#3C7CFF"/>
</svg>
