<svg width="100" height="100" viewBox="0 0 100 100" fill="none" xmlns="http://www.w3.org/2000/svg">
<mask id="path-1-outside-1_257_8305" maskUnits="userSpaceOnUse" x="1" y="4" width="98" height="91" fill="black">
<rect fill="white" x="1" y="4" width="98" height="91"/>
<path d="M22 20.5C22 23.5376 19.5376 26 16.5 26C13.4624 26 11 23.5376 11 20.5C11 17.4624 13.4624 15 16.5 15C19.5376 15 22 17.4624 22 20.5Z"/>
<path d="M89 20.5C89 23.5376 86.5376 26 83.5 26C80.4624 26 78 23.5376 78 20.5C78 17.4624 80.4624 15 83.5 15C86.5376 15 89 17.4624 89 20.5Z"/>
<path d="M6 64H28C28 67.3137 25.3137 70 22 70H12C8.68629 70 6 67.3137 6 64Z"/>
<path d="M35 9H63C66.3137 9 69 11.6863 69 15V20C69 23.3137 66.3137 26 63 26H44C39.0294 26 35 21.9706 35 17V9Z"/>
<path d="M73 64H95C95 67.3137 92.3137 70 89 70H79C75.6863 70 73 67.3137 73 64Z"/>
<path d="M38 56H40V91H38V56Z"/>
<path d="M38 91V89H62V91H38Z"/>
<path d="M64.7219 29.3796H64.2742C62.684 29.3763 61.1598 28.743 60.0353 27.6186C58.9108 26.4941 58.2776 24.9699 58.2742 23.3796V13.8027C58.2776 12.2124 58.9108 10.6883 60.0353 9.56376C61.1598 8.43927 62.684 7.80605 64.2742 7.8027H64.7219C66.3122 7.80605 67.8364 8.43927 68.9609 9.56376C70.0853 10.6883 70.7186 12.2124 70.7219 13.8027V23.3796C70.7186 24.9699 70.0853 26.4941 68.9609 27.6186C67.8364 28.743 66.3122 29.3763 64.7219 29.3796ZM64.2742 11.4881C63.6628 11.4899 63.0768 11.7336 62.6445 12.166C62.2121 12.5984 61.9684 13.1843 61.9665 13.7958V23.3727C61.9684 23.9842 62.2121 24.5701 62.6445 25.0025C63.0768 25.4348 63.6628 25.6786 64.2742 25.6804H64.7219C65.3334 25.6786 65.9193 25.4348 66.3517 25.0025C66.7841 24.5701 67.0278 23.9842 67.0296 23.3727V13.7958C67.0278 13.1843 66.7841 12.5984 66.3517 12.166C65.9193 11.7336 65.3334 11.4899 64.7219 11.4881H64.2742Z"/>
<path d="M55.8846 29.3796H55.5731C53.963 29.3778 52.4195 28.7374 51.281 27.599C50.1426 26.4605 49.5022 24.917 49.5004 23.3069V12.1919C49.5022 10.5819 50.1426 9.03838 51.281 7.89993C52.4195 6.76147 53.963 6.12109 55.5731 6.11925H55.8846C57.4946 6.12109 59.0382 6.76147 60.1766 7.89993C61.3151 9.03838 61.9555 10.5819 61.9573 12.1919V23.3069C61.9555 24.917 61.3151 26.4605 60.1766 27.599C59.0382 28.7374 57.4946 29.3778 55.8846 29.3796ZM55.5731 9.81156C54.9419 9.81217 54.3368 10.0632 53.8906 10.5094C53.4443 10.9557 53.1933 11.5608 53.1927 12.1919V23.3069C53.1933 23.9381 53.4443 24.5432 53.8906 24.9895C54.3368 25.4357 54.9419 25.6867 55.5731 25.6873H55.8846C56.5157 25.6867 57.1208 25.4357 57.5671 24.9895C58.0134 24.5432 58.2644 23.9381 58.265 23.3069V12.1919C58.2644 11.5608 58.0134 10.9557 57.5671 10.5094C57.1208 10.0632 56.5157 9.81217 55.8846 9.81156H55.5731Z"/>
<path d="M48.1204 29.2354C47.6704 29.2363 47.2356 29.0728 46.8977 28.7757C46.5598 28.4785 46.342 28.0682 46.2853 27.6218C46.2286 27.1754 46.3369 26.7237 46.5899 26.3515C46.8428 25.9794 47.223 25.7124 47.6589 25.6008C48.7296 25.325 49.4877 24.4158 49.505 23.3865V11.0288C49.505 9.74 48.3719 8.69231 46.9804 8.69231H46.9573C45.5646 8.69231 44.4327 9.74 44.4327 11.0288V23.3404C44.4304 23.6711 44.5038 23.9979 44.6473 24.2958C44.764 24.5153 44.835 24.7561 44.8563 25.0038C44.8776 25.2515 44.8486 25.501 44.7712 25.7372C44.6937 25.9734 44.5693 26.1915 44.4055 26.3785C44.2417 26.5655 44.0418 26.7174 43.8178 26.8253C43.5938 26.9331 43.3503 26.9946 43.102 27.0061C42.8536 27.0175 42.6056 26.9787 42.3726 26.8919C42.1396 26.8051 41.9266 26.6722 41.7463 26.5011C41.5659 26.33 41.422 26.1242 41.3231 25.8962C40.9399 25.1013 40.7426 24.2297 40.7462 23.3473V11.0288C40.7462 7.70461 43.535 5 46.9631 5H46.9862C50.4143 5 53.2031 7.70461 53.2031 11.0288V23.3992C53.2036 23.4065 53.2036 23.4139 53.2031 23.4212C53.172 26.1177 51.2739 28.4854 48.5877 29.1765C48.4352 29.2164 48.2781 29.2362 48.1204 29.2354Z"/>
<path d="M33.8231 25.625C33.3334 25.625 32.8638 25.4305 32.5176 25.0843C32.1714 24.7381 31.9769 24.2685 31.9769 23.7789V11.6635C31.977 10.8711 32.1336 10.0866 32.4378 9.35495C32.7419 8.6233 33.1876 7.95894 33.7492 7.40001C34.9176 6.23615 36.4938 5.57391 38.1428 5.55408C39.7919 5.53426 41.3836 6.15842 42.5796 7.29386C43.1652 7.84664 43.6317 8.5132 43.9506 9.25267C44.2694 9.99215 44.4339 10.789 44.4338 11.5942V23.3404C44.4352 23.83 44.242 24.3001 43.8968 24.6473C43.5515 24.9945 43.0825 25.1904 42.5929 25.1917C42.1032 25.1931 41.6331 24.9999 41.2859 24.6547C40.9387 24.3094 40.7429 23.8404 40.7415 23.3508V11.5989C40.7397 11.2925 40.6755 10.9896 40.5527 10.7089C40.4298 10.4282 40.2511 10.1755 40.0273 9.96616C39.7743 9.72727 39.4762 9.5411 39.1506 9.41848C38.8249 9.29586 38.4781 9.23925 38.1304 9.25193C36.7734 9.2877 35.6692 10.3723 35.6692 11.6681V23.7835C35.668 24.2723 35.4729 24.7407 35.1269 25.0859C34.7808 25.4311 34.3119 25.625 33.8231 25.625Z"/>
<path d="M63.6246 56.3935H36.74C36.321 56.3926 35.9148 56.2492 35.5881 55.9869C35.2614 55.7245 35.0337 55.3589 34.9423 54.95C33.2265 47.2885 31.04 38.6589 30.3523 37.4819C30.3131 37.4173 30.2761 37.3515 30.2369 37.2858C29.2152 35.4815 28.6496 33.455 28.5893 31.3824C28.529 29.3097 28.9757 27.2538 29.8908 25.3931C31.6908 21.7008 36.2761 20.0854 40.1104 21.7965L51.7884 27.0039C52.2886 27.223 52.7391 27.5413 53.1128 27.9396C53.4864 28.3378 53.7754 28.8077 53.9623 29.3208C54.1446 29.8185 54.2242 30.3479 54.1962 30.8772C54.1683 31.4065 54.0334 31.9247 53.7996 32.4004C51.8577 36.3858 46.9111 38.1269 42.7734 36.2808L36.8888 33.6558C36.4535 33.4493 36.1161 33.0808 35.9487 32.629C35.7813 32.1771 35.7973 31.6777 35.9931 31.2375C36.1889 30.7972 36.549 30.4509 36.9967 30.2726C37.4443 30.0943 37.9439 30.0981 38.3888 30.2831L44.2734 32.9092C46.6134 33.9535 49.3965 33.0004 50.4754 30.785C50.4915 30.7545 50.5009 30.7209 50.5029 30.6865C50.5049 30.652 50.4995 30.6175 50.4869 30.5854C50.4684 30.5385 50.4404 30.496 50.4046 30.4604C50.3689 30.4249 50.3262 30.3971 50.2792 30.3789L38.6127 25.1681C36.575 24.2589 34.1554 25.0862 33.2161 27.0142C32.5641 28.3347 32.2443 29.7944 32.2845 31.2665C32.3248 32.7386 32.7238 34.1787 33.4469 35.4615C33.4758 35.5123 33.5046 35.5631 33.5346 35.6139C34.6884 37.5754 37.1115 47.8596 38.2192 52.7046H61.8246C61.9896 49.6077 62.7154 43.3989 65.8111 39.2969C67.8015 36.6592 68.2561 31.0008 67.0596 23.7708C66.9796 23.2877 67.0947 22.7927 67.3797 22.3945C67.6647 21.9964 68.0962 21.7277 68.5792 21.6477C69.0623 21.5677 69.5573 21.6828 69.9555 21.9678C70.3536 22.2528 70.6223 22.6843 70.7023 23.1673C71.6796 29.0704 72.1354 37.0458 68.7581 41.5216C65.3461 46.0412 65.4685 54.4262 65.4708 54.5115C65.4757 54.7571 65.4315 55.0011 65.341 55.2294C65.2504 55.4576 65.1152 55.6655 64.9433 55.8409C64.7713 56.0163 64.5662 56.1556 64.3397 56.2506C64.1133 56.3457 63.8702 56.3947 63.6246 56.3946V56.3935Z"/>
<path d="M55.7358 45.995C55.6388 45.9953 55.5419 45.9876 55.4462 45.972C54.9627 45.8956 54.5294 45.6304 54.2414 45.2347C53.9534 44.839 53.8343 44.3451 53.9104 43.8616C54.6246 39.3316 48.8577 35.7846 48.7988 35.75C48.4042 35.4867 48.1261 35.0815 48.0222 34.6185C47.9184 34.1556 47.9967 33.6704 48.241 33.2637C48.4854 32.857 48.8769 32.56 49.3344 32.4342C49.7919 32.3085 50.2802 32.3638 50.6981 32.5885C51.0246 32.7835 58.6596 37.4427 57.5577 44.4408C57.4883 44.8741 57.2668 45.2686 56.9329 45.5534C56.5991 45.8382 56.1746 45.9948 55.7358 45.995Z"/>
<path d="M63.6258 94.3308H36.7411C36.2515 94.3308 35.7819 94.1363 35.4357 93.7901C35.0895 93.4438 34.895 92.9743 34.895 92.4846V54.5473C34.895 54.0577 35.0895 53.5881 35.4357 53.2419C35.7819 52.8957 36.2515 52.7012 36.7411 52.7012C37.2308 52.7012 37.7003 52.8957 38.0466 53.2419C38.3928 53.5881 38.5873 54.0577 38.5873 54.5473V90.6385H63.6258C64.1154 90.6385 64.585 90.833 64.9312 91.1792C65.2774 91.5254 65.4719 91.995 65.4719 92.4846C65.4719 92.9743 65.2774 93.4438 64.9312 93.7901C64.585 94.1363 64.1154 94.3308 63.6258 94.3308Z"/>
<path d="M63.6258 94.3308C63.1361 94.3308 62.6665 94.1363 62.3203 93.7901C61.9741 93.4438 61.7796 92.9743 61.7796 92.4846V54.5473C61.7796 54.0577 61.9741 53.5881 62.3203 53.2419C62.6665 52.8957 63.1361 52.7012 63.6258 52.7012C64.1154 52.7012 64.585 52.8957 64.9312 53.2419C65.2774 53.5881 65.4719 54.0577 65.4719 54.5473L65.4719 92.4846C65.4719 92.9743 65.2774 93.4438 64.9312 93.7901C64.585 94.1363 64.1154 94.3308 63.6258 94.3308Z"/>
<path d="M87.7677 72.8139H79.3804C76.6685 72.8093 74.0692 71.7296 72.1522 69.8115C70.2351 67.8934 69.1569 65.2934 69.1538 62.5815C69.1538 62.0919 69.3484 61.6223 69.6946 61.2761C70.0408 60.9299 70.5104 60.7354 71 60.7354H96.1538C96.6435 60.7354 97.1131 60.9299 97.4593 61.2761C97.8055 61.6223 98 62.0919 98 62.5815C97.9969 65.2944 96.9179 67.8952 94.9997 69.8135C93.0814 71.7318 90.4805 72.8108 87.7677 72.8139ZM73.1058 64.4277C73.5061 65.7818 74.3333 66.9703 75.464 67.8161C76.5947 68.6619 77.9683 69.1198 79.3804 69.1215H87.7677C89.1797 69.1198 90.5534 68.6619 91.6841 67.8161C92.8148 66.9703 93.6419 65.7818 94.0423 64.4277H73.1058Z"/>
<path d="M71 64.3712C70.7049 64.3711 70.4141 64.3003 70.1521 64.1647C69.89 64.0292 69.6642 63.8327 69.4937 63.5919C69.3232 63.3511 69.2128 63.0729 69.172 62.7807C69.1311 62.4885 69.1609 62.1907 69.2588 61.9123L81.8323 26.1269C81.9948 25.665 82.3341 25.2865 82.7757 25.0748C83.2172 24.8631 83.7248 24.8354 84.1867 24.9979C84.6486 25.1604 85.0271 25.4997 85.2388 25.9413C85.4506 26.3828 85.4782 26.8904 85.3157 27.3523L72.7307 63.1366C72.6047 63.4957 72.3707 63.807 72.0609 64.028C71.7511 64.249 71.3805 64.3689 71 64.3712Z"/>
<path d="M96.1538 64.3712C95.7715 64.371 95.3987 64.2521 95.0868 64.031C94.7749 63.8098 94.5393 63.4973 94.4127 63.1366L81.8358 27.3546C81.6918 26.8979 81.7309 26.4032 81.9448 25.9748C82.1587 25.5463 82.5307 25.2178 82.9823 25.0585C83.4339 24.8992 83.9297 24.9216 84.365 25.1209C84.8004 25.3203 85.1413 25.681 85.3158 26.1269L97.8927 61.91C97.991 62.1883 98.0212 62.4861 97.9807 62.7785C97.9401 63.0709 97.8301 63.3492 97.6598 63.5903C97.4895 63.8314 97.2638 64.0281 97.0018 64.1639C96.7398 64.2998 96.449 64.3709 96.1538 64.3712Z"/>
<path d="M20.6196 72.8139H12.2323C9.51947 72.8108 6.91862 71.7318 5.00035 69.8135C3.08208 67.8952 2.00305 65.2944 2 62.5815C2 62.0919 2.19451 61.6223 2.54073 61.2761C2.88695 60.9299 3.35652 60.7354 3.84615 60.7354H29.0058C29.4954 60.7354 29.965 60.9299 30.3112 61.2761C30.6574 61.6223 30.8519 62.0919 30.8519 62.5815C30.8489 65.2944 29.7698 67.8952 27.8516 69.8135C25.9333 71.7318 23.3325 72.8108 20.6196 72.8139ZM5.95769 64.4277C6.35808 65.7818 7.18523 66.9703 8.3159 67.8161C9.44658 68.6619 10.8203 69.1198 12.2323 69.1215H20.6196C22.0317 69.1198 23.4053 68.6619 24.536 67.8161C25.6667 66.9703 26.4938 65.7818 26.8942 64.4277H5.95769Z"/>
<path d="M3.84617 64.4277C3.55123 64.4276 3.26062 64.3568 2.99866 64.2213C2.7367 64.0858 2.51102 63.8894 2.34052 63.6488C2.17002 63.4081 2.05966 63.1301 2.01869 62.838C1.97772 62.5459 2.00732 62.2483 2.10502 61.97L14.6842 26.1269C14.7646 25.8981 14.8891 25.6874 15.0509 25.5067C15.2127 25.3261 15.4084 25.1791 15.627 25.0741C15.8456 24.9691 16.0827 24.9081 16.3248 24.8948C16.5669 24.8814 16.8093 24.9159 17.0381 24.9962C17.2669 25.0765 17.4776 25.2011 17.6583 25.3628C17.8389 25.5246 17.986 25.7203 18.091 25.9389C18.196 26.1575 18.2569 26.3946 18.2703 26.6367C18.2836 26.8788 18.2492 27.1212 18.1689 27.35L5.59194 63.1896C5.46561 63.5518 5.22962 63.8656 4.91677 64.0875C4.60391 64.3093 4.22972 64.4283 3.84617 64.4277Z"/>
<path d="M29.0057 64.4277C28.6242 64.4266 28.2524 64.3073 27.9414 64.0862C27.6304 63.8651 27.3956 63.5531 27.2692 63.1931L14.6923 27.3535C14.5301 26.8914 14.5581 26.3838 14.7702 25.9424C14.9822 25.5009 15.361 25.1618 15.8231 24.9996C16.2851 24.8374 16.7927 24.8655 17.2342 25.0775C17.6756 25.2896 18.0147 25.6683 18.1769 26.1304L30.7538 61.97C30.8516 62.2484 30.8811 62.5461 30.8401 62.8383C30.7991 63.1305 30.6886 63.4086 30.518 63.6493C30.3474 63.8899 30.1215 64.0862 29.8594 64.2217C29.5973 64.3571 29.3066 64.4278 29.0115 64.4277H29.0057Z"/>
<path d="M51.3523 24.7977C50.9872 24.7977 50.6303 24.6894 50.3267 24.4866C50.0231 24.2837 49.7864 23.9954 49.6467 23.658C49.507 23.3207 49.4704 22.9495 49.5417 22.5914C49.6129 22.2333 49.7887 21.9043 50.0469 21.6461C50.3051 21.3879 50.634 21.2121 50.9922 21.1409C51.3503 21.0696 51.7215 21.1062 52.0588 21.2459C52.3962 21.3857 52.6845 21.6223 52.8874 21.9259C53.0902 22.2295 53.1985 22.5864 53.1985 22.9516C53.1985 23.1941 53.1507 23.4342 53.0578 23.6583C52.965 23.8824 52.8289 24.0859 52.6574 24.2574C52.4858 24.4288 52.2821 24.5648 52.058 24.6575C51.8339 24.7502 51.5937 24.7979 51.3512 24.7977H51.3523Z"/>
<path d="M51.3523 19.7462C50.9872 19.7462 50.6303 19.6379 50.3267 19.435C50.0231 19.2322 49.7864 18.9438 49.6467 18.6065C49.507 18.2692 49.4704 17.898 49.5417 17.5398C49.6129 17.1817 49.7887 16.8528 50.0469 16.5946C50.3051 16.3364 50.634 16.1606 50.9922 16.0893C51.3503 16.0181 51.7215 16.0547 52.0588 16.1944C52.3962 16.3341 52.6845 16.5707 52.8874 16.8743C53.0902 17.1779 53.1985 17.5349 53.1985 17.9C53.1985 18.1425 53.1507 18.3827 53.0578 18.6068C52.965 18.8308 52.8289 19.0344 52.6574 19.2058C52.4858 19.3773 52.2821 19.5133 52.058 19.606C51.8339 19.6987 51.5937 19.7463 51.3512 19.7462H51.3523Z"/>
<path d="M83.5769 28.5881C81.9625 28.5881 80.3844 28.1093 79.042 27.2124C77.6997 26.3155 76.6535 25.0406 76.0358 23.5491C75.418 22.0576 75.2565 20.4163 75.5715 18.833C75.8866 17.2496 76.664 15.7952 77.8057 14.6537C78.9473 13.5123 80.4018 12.735 81.9852 12.4202C83.5686 12.1053 85.2098 12.2671 86.7013 12.8851C88.1927 13.5031 89.4674 14.5494 90.3642 15.8919C91.2609 17.2343 91.7394 18.8125 91.7392 20.4269C91.7368 22.5908 90.876 24.6654 89.3458 26.1954C87.8155 27.7255 85.7408 28.5859 83.5769 28.5881ZM83.5769 15.9569C82.6928 15.9569 81.8286 16.2191 81.0935 16.7103C80.3584 17.2014 79.7855 17.8995 79.4472 18.7163C79.1088 19.5331 79.0203 20.4319 79.1928 21.299C79.3653 22.1661 79.791 22.9625 80.4161 23.5877C81.0413 24.2128 81.8378 24.6386 82.7048 24.811C83.5719 24.9835 84.4707 24.895 85.2875 24.5567C86.1043 24.2183 86.8024 23.6454 87.2936 22.9103C87.7847 22.1752 88.0469 21.311 88.0469 20.4269C88.0457 19.2418 87.5743 18.1055 86.7363 17.2675C85.8983 16.4295 84.762 15.9581 83.5769 15.9569Z"/>
<path d="M16.4231 28.5881C14.8086 28.5883 13.2304 28.1098 11.8879 27.213C10.5455 26.3162 9.49909 25.0414 8.88116 23.5499C8.26323 22.0584 8.10149 20.4171 8.4164 18.8337C8.73131 17.2502 9.50872 15.7957 10.6503 14.6541C11.7919 13.5126 13.2464 12.7351 14.8298 12.4202C16.4133 12.1053 18.0545 12.2671 19.546 12.885C21.0376 13.5029 22.3123 14.5493 23.2091 15.8918C24.1059 17.2342 24.5845 18.8125 24.5842 20.4269C24.5818 22.5906 23.7212 24.665 22.1912 26.195C20.6612 27.725 18.5868 28.5856 16.4231 28.5881ZM16.4231 15.9569C15.5389 15.9567 14.6746 16.2187 13.9394 16.7097C13.2041 17.2007 12.631 17.8988 12.2925 18.7155C11.954 19.5323 11.8653 20.4311 12.0377 21.2983C12.21 22.1654 12.6357 22.962 13.2608 23.5873C13.8858 24.2125 14.6823 24.6384 15.5494 24.8109C16.4166 24.9835 17.3154 24.8951 18.1323 24.5568C18.9491 24.2185 19.6473 23.6456 20.1385 22.9104C20.6297 22.1753 20.8919 21.3111 20.8919 20.4269C20.8904 19.2421 20.4191 18.1062 19.5814 17.2682C18.7437 16.4303 17.6079 15.9588 16.4231 15.9569Z"/>
<path d="M33.8231 22.2731H22.7461C22.2565 22.2731 21.7869 22.0786 21.4407 21.7324C21.0945 21.3862 20.9 20.9166 20.9 20.4269C20.9 19.9373 21.0945 19.4677 21.4407 19.1215C21.7869 18.7753 22.2565 18.5808 22.7461 18.5808H33.8231C34.3127 18.5808 34.7823 18.7753 35.1285 19.1215C35.4747 19.4677 35.6692 19.9373 35.6692 20.4269C35.6692 20.9166 35.4747 21.3862 35.1285 21.7324C34.7823 22.0786 34.3127 22.2731 33.8231 22.2731Z"/>
<path d="M77.2584 22.2731H68.8804C68.3907 22.2731 67.9212 22.0786 67.5749 21.7324C67.2287 21.3862 67.0342 20.9166 67.0342 20.4269C67.0342 19.9373 67.2287 19.4677 67.5749 19.1215C67.9212 18.7753 68.3907 18.5808 68.8804 18.5808H77.2584C77.7481 18.5808 78.2177 18.7753 78.5639 19.1215C78.9101 19.4677 79.1046 19.9373 79.1046 20.4269C79.1046 20.9166 78.9101 21.3862 78.5639 21.7324C78.2177 22.0786 77.7481 22.2731 77.2584 22.2731Z"/>
</mask>
<path d="M22 20.5C22 23.5376 19.5376 26 16.5 26C13.4624 26 11 23.5376 11 20.5C11 17.4624 13.4624 15 16.5 15C19.5376 15 22 17.4624 22 20.5Z" fill="#00B0FB"/>
<path d="M89 20.5C89 23.5376 86.5376 26 83.5 26C80.4624 26 78 23.5376 78 20.5C78 17.4624 80.4624 15 83.5 15C86.5376 15 89 17.4624 89 20.5Z" fill="#00B0FB"/>
<path d="M6 64H28C28 67.3137 25.3137 70 22 70H12C8.68629 70 6 67.3137 6 64Z" fill="#00B0FB" fill-opacity="0.5"/>
<path d="M35 9H63C66.3137 9 69 11.6863 69 15V20C69 23.3137 66.3137 26 63 26H44C39.0294 26 35 21.9706 35 17V9Z" fill="#00B0FB"/>
<path d="M73 64H95C95 67.3137 92.3137 70 89 70H79C75.6863 70 73 67.3137 73 64Z" fill="#00B0FB" fill-opacity="0.5"/>
<path d="M38 56H40V91H38V56Z" fill="#00B0FB"/>
<path d="M38 91V89H62V91H38Z" fill="#00B0FB"/>
<path d="M64.7219 29.3796H64.2742C62.684 29.3763 61.1598 28.743 60.0353 27.6186C58.9108 26.4941 58.2776 24.9699 58.2742 23.3796V13.8027C58.2776 12.2124 58.9108 10.6883 60.0353 9.56376C61.1598 8.43927 62.684 7.80605 64.2742 7.8027H64.7219C66.3122 7.80605 67.8364 8.43927 68.9609 9.56376C70.0853 10.6883 70.7186 12.2124 70.7219 13.8027V23.3796C70.7186 24.9699 70.0853 26.4941 68.9609 27.6186C67.8364 28.743 66.3122 29.3763 64.7219 29.3796ZM64.2742 11.4881C63.6628 11.4899 63.0768 11.7336 62.6445 12.166C62.2121 12.5984 61.9684 13.1843 61.9665 13.7958V23.3727C61.9684 23.9842 62.2121 24.5701 62.6445 25.0025C63.0768 25.4348 63.6628 25.6786 64.2742 25.6804H64.7219C65.3334 25.6786 65.9193 25.4348 66.3517 25.0025C66.7841 24.5701 67.0278 23.9842 67.0296 23.3727V13.7958C67.0278 13.1843 66.7841 12.5984 66.3517 12.166C65.9193 11.7336 65.3334 11.4899 64.7219 11.4881H64.2742Z" fill="black"/>
<path d="M55.8846 29.3796H55.5731C53.963 29.3778 52.4195 28.7374 51.281 27.599C50.1426 26.4605 49.5022 24.917 49.5004 23.3069V12.1919C49.5022 10.5819 50.1426 9.03838 51.281 7.89993C52.4195 6.76147 53.963 6.12109 55.5731 6.11925H55.8846C57.4946 6.12109 59.0382 6.76147 60.1766 7.89993C61.3151 9.03838 61.9555 10.5819 61.9573 12.1919V23.3069C61.9555 24.917 61.3151 26.4605 60.1766 27.599C59.0382 28.7374 57.4946 29.3778 55.8846 29.3796ZM55.5731 9.81156C54.9419 9.81217 54.3368 10.0632 53.8906 10.5094C53.4443 10.9557 53.1933 11.5608 53.1927 12.1919V23.3069C53.1933 23.9381 53.4443 24.5432 53.8906 24.9895C54.3368 25.4357 54.9419 25.6867 55.5731 25.6873H55.8846C56.5157 25.6867 57.1208 25.4357 57.5671 24.9895C58.0134 24.5432 58.2644 23.9381 58.265 23.3069V12.1919C58.2644 11.5608 58.0134 10.9557 57.5671 10.5094C57.1208 10.0632 56.5157 9.81217 55.8846 9.81156H55.5731Z" fill="black"/>
<path d="M48.1204 29.2354C47.6704 29.2363 47.2356 29.0728 46.8977 28.7757C46.5598 28.4785 46.342 28.0682 46.2853 27.6218C46.2286 27.1754 46.3369 26.7237 46.5899 26.3515C46.8428 25.9794 47.223 25.7124 47.6589 25.6008C48.7296 25.325 49.4877 24.4158 49.505 23.3865V11.0288C49.505 9.74 48.3719 8.69231 46.9804 8.69231H46.9573C45.5646 8.69231 44.4327 9.74 44.4327 11.0288V23.3404C44.4304 23.6711 44.5038 23.9979 44.6473 24.2958C44.764 24.5153 44.835 24.7561 44.8563 25.0038C44.8776 25.2515 44.8486 25.501 44.7712 25.7372C44.6937 25.9734 44.5693 26.1915 44.4055 26.3785C44.2417 26.5655 44.0418 26.7174 43.8178 26.8253C43.5938 26.9331 43.3503 26.9946 43.102 27.0061C42.8536 27.0175 42.6056 26.9787 42.3726 26.8919C42.1396 26.8051 41.9266 26.6722 41.7463 26.5011C41.5659 26.33 41.422 26.1242 41.3231 25.8962C40.9399 25.1013 40.7426 24.2297 40.7462 23.3473V11.0288C40.7462 7.70461 43.535 5 46.9631 5H46.9862C50.4143 5 53.2031 7.70461 53.2031 11.0288V23.3992C53.2036 23.4065 53.2036 23.4139 53.2031 23.4212C53.172 26.1177 51.2739 28.4854 48.5877 29.1765C48.4352 29.2164 48.2781 29.2362 48.1204 29.2354Z" fill="black"/>
<path d="M33.8231 25.625C33.3334 25.625 32.8638 25.4305 32.5176 25.0843C32.1714 24.7381 31.9769 24.2685 31.9769 23.7789V11.6635C31.977 10.8711 32.1336 10.0866 32.4378 9.35495C32.7419 8.6233 33.1876 7.95894 33.7492 7.40001C34.9176 6.23615 36.4938 5.57391 38.1428 5.55408C39.7919 5.53426 41.3836 6.15842 42.5796 7.29386C43.1652 7.84664 43.6317 8.5132 43.9506 9.25267C44.2694 9.99215 44.4339 10.789 44.4338 11.5942V23.3404C44.4352 23.83 44.242 24.3001 43.8968 24.6473C43.5515 24.9945 43.0825 25.1904 42.5929 25.1917C42.1032 25.1931 41.6331 24.9999 41.2859 24.6547C40.9387 24.3094 40.7429 23.8404 40.7415 23.3508V11.5989C40.7397 11.2925 40.6755 10.9896 40.5527 10.7089C40.4298 10.4282 40.2511 10.1755 40.0273 9.96616C39.7743 9.72727 39.4762 9.5411 39.1506 9.41848C38.8249 9.29586 38.4781 9.23925 38.1304 9.25193C36.7734 9.2877 35.6692 10.3723 35.6692 11.6681V23.7835C35.668 24.2723 35.4729 24.7407 35.1269 25.0859C34.7808 25.4311 34.3119 25.625 33.8231 25.625Z" fill="black"/>
<path d="M63.6246 56.3935H36.74C36.321 56.3926 35.9148 56.2492 35.5881 55.9869C35.2614 55.7245 35.0337 55.3589 34.9423 54.95C33.2265 47.2885 31.04 38.6589 30.3523 37.4819C30.3131 37.4173 30.2761 37.3515 30.2369 37.2858C29.2152 35.4815 28.6496 33.455 28.5893 31.3824C28.529 29.3097 28.9757 27.2538 29.8908 25.3931C31.6908 21.7008 36.2761 20.0854 40.1104 21.7965L51.7884 27.0039C52.2886 27.223 52.7391 27.5413 53.1128 27.9396C53.4864 28.3378 53.7754 28.8077 53.9623 29.3208C54.1446 29.8185 54.2242 30.3479 54.1962 30.8772C54.1683 31.4065 54.0334 31.9247 53.7996 32.4004C51.8577 36.3858 46.9111 38.1269 42.7734 36.2808L36.8888 33.6558C36.4535 33.4493 36.1161 33.0808 35.9487 32.629C35.7813 32.1771 35.7973 31.6777 35.9931 31.2375C36.1889 30.7972 36.549 30.4509 36.9967 30.2726C37.4443 30.0943 37.9439 30.0981 38.3888 30.2831L44.2734 32.9092C46.6134 33.9535 49.3965 33.0004 50.4754 30.785C50.4915 30.7545 50.5009 30.7209 50.5029 30.6865C50.5049 30.652 50.4995 30.6175 50.4869 30.5854C50.4684 30.5385 50.4404 30.496 50.4046 30.4604C50.3689 30.4249 50.3262 30.3971 50.2792 30.3789L38.6127 25.1681C36.575 24.2589 34.1554 25.0862 33.2161 27.0142C32.5641 28.3347 32.2443 29.7944 32.2845 31.2665C32.3248 32.7386 32.7238 34.1787 33.4469 35.4615C33.4758 35.5123 33.5046 35.5631 33.5346 35.6139C34.6884 37.5754 37.1115 47.8596 38.2192 52.7046H61.8246C61.9896 49.6077 62.7154 43.3989 65.8111 39.2969C67.8015 36.6592 68.2561 31.0008 67.0596 23.7708C66.9796 23.2877 67.0947 22.7927 67.3797 22.3945C67.6647 21.9964 68.0962 21.7277 68.5792 21.6477C69.0623 21.5677 69.5573 21.6828 69.9555 21.9678C70.3536 22.2528 70.6223 22.6843 70.7023 23.1673C71.6796 29.0704 72.1354 37.0458 68.7581 41.5216C65.3461 46.0412 65.4685 54.4262 65.4708 54.5115C65.4757 54.7571 65.4315 55.0011 65.341 55.2294C65.2504 55.4576 65.1152 55.6655 64.9433 55.8409C64.7713 56.0163 64.5662 56.1556 64.3397 56.2506C64.1133 56.3457 63.8702 56.3947 63.6246 56.3946V56.3935Z" fill="black"/>
<path d="M55.7358 45.995C55.6388 45.9953 55.5419 45.9876 55.4462 45.972C54.9627 45.8956 54.5294 45.6304 54.2414 45.2347C53.9534 44.839 53.8343 44.3451 53.9104 43.8616C54.6246 39.3316 48.8577 35.7846 48.7988 35.75C48.4042 35.4867 48.1261 35.0815 48.0222 34.6185C47.9184 34.1556 47.9967 33.6704 48.241 33.2637C48.4854 32.857 48.8769 32.56 49.3344 32.4342C49.7919 32.3085 50.2802 32.3638 50.6981 32.5885C51.0246 32.7835 58.6596 37.4427 57.5577 44.4408C57.4883 44.8741 57.2668 45.2686 56.9329 45.5534C56.5991 45.8382 56.1746 45.9948 55.7358 45.995Z" fill="black"/>
<path d="M63.6258 94.3308H36.7411C36.2515 94.3308 35.7819 94.1363 35.4357 93.7901C35.0895 93.4438 34.895 92.9743 34.895 92.4846V54.5473C34.895 54.0577 35.0895 53.5881 35.4357 53.2419C35.7819 52.8957 36.2515 52.7012 36.7411 52.7012C37.2308 52.7012 37.7003 52.8957 38.0466 53.2419C38.3928 53.5881 38.5873 54.0577 38.5873 54.5473V90.6385H63.6258C64.1154 90.6385 64.585 90.833 64.9312 91.1792C65.2774 91.5254 65.4719 91.995 65.4719 92.4846C65.4719 92.9743 65.2774 93.4438 64.9312 93.7901C64.585 94.1363 64.1154 94.3308 63.6258 94.3308Z" fill="black"/>
<path d="M63.6258 94.3308C63.1361 94.3308 62.6665 94.1363 62.3203 93.7901C61.9741 93.4438 61.7796 92.9743 61.7796 92.4846V54.5473C61.7796 54.0577 61.9741 53.5881 62.3203 53.2419C62.6665 52.8957 63.1361 52.7012 63.6258 52.7012C64.1154 52.7012 64.585 52.8957 64.9312 53.2419C65.2774 53.5881 65.4719 54.0577 65.4719 54.5473L65.4719 92.4846C65.4719 92.9743 65.2774 93.4438 64.9312 93.7901C64.585 94.1363 64.1154 94.3308 63.6258 94.3308Z" fill="black"/>
<path d="M87.7677 72.8139H79.3804C76.6685 72.8093 74.0692 71.7296 72.1522 69.8115C70.2351 67.8934 69.1569 65.2934 69.1538 62.5815C69.1538 62.0919 69.3484 61.6223 69.6946 61.2761C70.0408 60.9299 70.5104 60.7354 71 60.7354H96.1538C96.6435 60.7354 97.1131 60.9299 97.4593 61.2761C97.8055 61.6223 98 62.0919 98 62.5815C97.9969 65.2944 96.9179 67.8952 94.9997 69.8135C93.0814 71.7318 90.4805 72.8108 87.7677 72.8139ZM73.1058 64.4277C73.5061 65.7818 74.3333 66.9703 75.464 67.8161C76.5947 68.6619 77.9683 69.1198 79.3804 69.1215H87.7677C89.1797 69.1198 90.5534 68.6619 91.6841 67.8161C92.8148 66.9703 93.6419 65.7818 94.0423 64.4277H73.1058Z" fill="black"/>
<path d="M71 64.3712C70.7049 64.3711 70.4141 64.3003 70.1521 64.1647C69.89 64.0292 69.6642 63.8327 69.4937 63.5919C69.3232 63.3511 69.2128 63.0729 69.172 62.7807C69.1311 62.4885 69.1609 62.1907 69.2588 61.9123L81.8323 26.1269C81.9948 25.665 82.3341 25.2865 82.7757 25.0748C83.2172 24.8631 83.7248 24.8354 84.1867 24.9979C84.6486 25.1604 85.0271 25.4997 85.2388 25.9413C85.4506 26.3828 85.4782 26.8904 85.3157 27.3523L72.7307 63.1366C72.6047 63.4957 72.3707 63.807 72.0609 64.028C71.7511 64.249 71.3805 64.3689 71 64.3712Z" fill="black"/>
<path d="M96.1538 64.3712C95.7715 64.371 95.3987 64.2521 95.0868 64.031C94.7749 63.8098 94.5393 63.4973 94.4127 63.1366L81.8358 27.3546C81.6918 26.8979 81.7309 26.4032 81.9448 25.9748C82.1587 25.5463 82.5307 25.2178 82.9823 25.0585C83.4339 24.8992 83.9297 24.9216 84.365 25.1209C84.8004 25.3203 85.1413 25.681 85.3158 26.1269L97.8927 61.91C97.991 62.1883 98.0212 62.4861 97.9807 62.7785C97.9401 63.0709 97.8301 63.3492 97.6598 63.5903C97.4895 63.8314 97.2638 64.0281 97.0018 64.1639C96.7398 64.2998 96.449 64.3709 96.1538 64.3712Z" fill="black"/>
<path d="M20.6196 72.8139H12.2323C9.51947 72.8108 6.91862 71.7318 5.00035 69.8135C3.08208 67.8952 2.00305 65.2944 2 62.5815C2 62.0919 2.19451 61.6223 2.54073 61.2761C2.88695 60.9299 3.35652 60.7354 3.84615 60.7354H29.0058C29.4954 60.7354 29.965 60.9299 30.3112 61.2761C30.6574 61.6223 30.8519 62.0919 30.8519 62.5815C30.8489 65.2944 29.7698 67.8952 27.8516 69.8135C25.9333 71.7318 23.3325 72.8108 20.6196 72.8139ZM5.95769 64.4277C6.35808 65.7818 7.18523 66.9703 8.3159 67.8161C9.44658 68.6619 10.8203 69.1198 12.2323 69.1215H20.6196C22.0317 69.1198 23.4053 68.6619 24.536 67.8161C25.6667 66.9703 26.4938 65.7818 26.8942 64.4277H5.95769Z" fill="black"/>
<path d="M3.84617 64.4277C3.55123 64.4276 3.26062 64.3568 2.99866 64.2213C2.7367 64.0858 2.51102 63.8894 2.34052 63.6488C2.17002 63.4081 2.05966 63.1301 2.01869 62.838C1.97772 62.5459 2.00732 62.2483 2.10502 61.97L14.6842 26.1269C14.7646 25.8981 14.8891 25.6874 15.0509 25.5067C15.2127 25.3261 15.4084 25.1791 15.627 25.0741C15.8456 24.9691 16.0827 24.9081 16.3248 24.8948C16.5669 24.8814 16.8093 24.9159 17.0381 24.9962C17.2669 25.0765 17.4776 25.2011 17.6583 25.3628C17.8389 25.5246 17.986 25.7203 18.091 25.9389C18.196 26.1575 18.2569 26.3946 18.2703 26.6367C18.2836 26.8788 18.2492 27.1212 18.1689 27.35L5.59194 63.1896C5.46561 63.5518 5.22962 63.8656 4.91677 64.0875C4.60391 64.3093 4.22972 64.4283 3.84617 64.4277Z" fill="black"/>
<path d="M29.0057 64.4277C28.6242 64.4266 28.2524 64.3073 27.9414 64.0862C27.6304 63.8651 27.3956 63.5531 27.2692 63.1931L14.6923 27.3535C14.5301 26.8914 14.5581 26.3838 14.7702 25.9424C14.9822 25.5009 15.361 25.1618 15.8231 24.9996C16.2851 24.8374 16.7927 24.8655 17.2342 25.0775C17.6756 25.2896 18.0147 25.6683 18.1769 26.1304L30.7538 61.97C30.8516 62.2484 30.8811 62.5461 30.8401 62.8383C30.7991 63.1305 30.6886 63.4086 30.518 63.6493C30.3474 63.8899 30.1215 64.0862 29.8594 64.2217C29.5973 64.3571 29.3066 64.4278 29.0115 64.4277H29.0057Z" fill="black"/>
<path d="M51.3523 24.7977C50.9872 24.7977 50.6303 24.6894 50.3267 24.4866C50.0231 24.2837 49.7864 23.9954 49.6467 23.658C49.507 23.3207 49.4704 22.9495 49.5417 22.5914C49.6129 22.2333 49.7887 21.9043 50.0469 21.6461C50.3051 21.3879 50.634 21.2121 50.9922 21.1409C51.3503 21.0696 51.7215 21.1062 52.0588 21.2459C52.3962 21.3857 52.6845 21.6223 52.8874 21.9259C53.0902 22.2295 53.1985 22.5864 53.1985 22.9516C53.1985 23.1941 53.1507 23.4342 53.0578 23.6583C52.965 23.8824 52.8289 24.0859 52.6574 24.2574C52.4858 24.4288 52.2821 24.5648 52.058 24.6575C51.8339 24.7502 51.5937 24.7979 51.3512 24.7977H51.3523Z" fill="black"/>
<path d="M51.3523 19.7462C50.9872 19.7462 50.6303 19.6379 50.3267 19.435C50.0231 19.2322 49.7864 18.9438 49.6467 18.6065C49.507 18.2692 49.4704 17.898 49.5417 17.5398C49.6129 17.1817 49.7887 16.8528 50.0469 16.5946C50.3051 16.3364 50.634 16.1606 50.9922 16.0893C51.3503 16.0181 51.7215 16.0547 52.0588 16.1944C52.3962 16.3341 52.6845 16.5707 52.8874 16.8743C53.0902 17.1779 53.1985 17.5349 53.1985 17.9C53.1985 18.1425 53.1507 18.3827 53.0578 18.6068C52.965 18.8308 52.8289 19.0344 52.6574 19.2058C52.4858 19.3773 52.2821 19.5133 52.058 19.606C51.8339 19.6987 51.5937 19.7463 51.3512 19.7462H51.3523Z" fill="black"/>
<path d="M83.5769 28.5881C81.9625 28.5881 80.3844 28.1093 79.042 27.2124C77.6997 26.3155 76.6535 25.0406 76.0358 23.5491C75.418 22.0576 75.2565 20.4163 75.5715 18.833C75.8866 17.2496 76.664 15.7952 77.8057 14.6537C78.9473 13.5123 80.4018 12.735 81.9852 12.4202C83.5686 12.1053 85.2098 12.2671 86.7013 12.8851C88.1927 13.5031 89.4674 14.5494 90.3642 15.8919C91.2609 17.2343 91.7394 18.8125 91.7392 20.4269C91.7368 22.5908 90.876 24.6654 89.3458 26.1954C87.8155 27.7255 85.7408 28.5859 83.5769 28.5881ZM83.5769 15.9569C82.6928 15.9569 81.8286 16.2191 81.0935 16.7103C80.3584 17.2014 79.7855 17.8995 79.4472 18.7163C79.1088 19.5331 79.0203 20.4319 79.1928 21.299C79.3653 22.1661 79.791 22.9625 80.4161 23.5877C81.0413 24.2128 81.8378 24.6386 82.7048 24.811C83.5719 24.9835 84.4707 24.895 85.2875 24.5567C86.1043 24.2183 86.8024 23.6454 87.2936 22.9103C87.7847 22.1752 88.0469 21.311 88.0469 20.4269C88.0457 19.2418 87.5743 18.1055 86.7363 17.2675C85.8983 16.4295 84.762 15.9581 83.5769 15.9569Z" fill="black"/>
<path d="M16.4231 28.5881C14.8086 28.5883 13.2304 28.1098 11.8879 27.213C10.5455 26.3162 9.49909 25.0414 8.88116 23.5499C8.26323 22.0584 8.10149 20.4171 8.4164 18.8337C8.73131 17.2502 9.50872 15.7957 10.6503 14.6541C11.7919 13.5126 13.2464 12.7351 14.8298 12.4202C16.4133 12.1053 18.0545 12.2671 19.546 12.885C21.0376 13.5029 22.3123 14.5493 23.2091 15.8918C24.1059 17.2342 24.5845 18.8125 24.5842 20.4269C24.5818 22.5906 23.7212 24.665 22.1912 26.195C20.6612 27.725 18.5868 28.5856 16.4231 28.5881ZM16.4231 15.9569C15.5389 15.9567 14.6746 16.2187 13.9394 16.7097C13.2041 17.2007 12.631 17.8988 12.2925 18.7155C11.954 19.5323 11.8653 20.4311 12.0377 21.2983C12.21 22.1654 12.6357 22.962 13.2608 23.5873C13.8858 24.2125 14.6823 24.6384 15.5494 24.8109C16.4166 24.9835 17.3154 24.8951 18.1323 24.5568C18.9491 24.2185 19.6473 23.6456 20.1385 22.9104C20.6297 22.1753 20.8919 21.3111 20.8919 20.4269C20.8904 19.2421 20.4191 18.1062 19.5814 17.2682C18.7437 16.4303 17.6079 15.9588 16.4231 15.9569Z" fill="black"/>
<path d="M33.8231 22.2731H22.7461C22.2565 22.2731 21.7869 22.0786 21.4407 21.7324C21.0945 21.3862 20.9 20.9166 20.9 20.4269C20.9 19.9373 21.0945 19.4677 21.4407 19.1215C21.7869 18.7753 22.2565 18.5808 22.7461 18.5808H33.8231C34.3127 18.5808 34.7823 18.7753 35.1285 19.1215C35.4747 19.4677 35.6692 19.9373 35.6692 20.4269C35.6692 20.9166 35.4747 21.3862 35.1285 21.7324C34.7823 22.0786 34.3127 22.2731 33.8231 22.2731Z" fill="black"/>
<path d="M77.2584 22.2731H68.8804C68.3907 22.2731 67.9212 22.0786 67.5749 21.7324C67.2287 21.3862 67.0342 20.9166 67.0342 20.4269C67.0342 19.9373 67.2287 19.4677 67.5749 19.1215C67.9212 18.7753 68.3907 18.5808 68.8804 18.5808H77.2584C77.7481 18.5808 78.2177 18.7753 78.5639 19.1215C78.9101 19.4677 79.1046 19.9373 79.1046 20.4269C79.1046 20.9166 78.9101 21.3862 78.5639 21.7324C78.2177 22.0786 77.7481 22.2731 77.2584 22.2731Z" fill="black"/>
<path d="M65.3719 92.4846C65.3719 92.9477 65.1879 93.3919 64.8605 93.7194L65.0019 93.8608C65.3669 93.4958 65.5719 93.0008 65.5719 92.4846H65.3719ZM64.8605 93.7194C64.533 94.0468 64.0889 94.2308 63.6258 94.2308V94.4308C64.1419 94.4308 64.6369 94.2257 65.0019 93.8608L64.8605 93.7194ZM6 64V63.8H5.8V64H6ZM28 64H28.2V63.8H28V64ZM35 9V8.8H34.8V9H35ZM73 64V63.8H72.8V64H73ZM95 64H95.2V63.8H95V64ZM38 56V55.8H37.8V56H38ZM40 56H40.2V55.8H40V56ZM40 91V91.2H40.2V91H40ZM38 91H37.8V91.2H38V91ZM38 89V88.8H37.8V89H38ZM62 89H62.2V88.8H62V89ZM62 91V91.2H62.2V91H62ZM64.7219 29.3796V29.5796L64.7223 29.5796L64.7219 29.3796ZM64.2742 29.3796L64.2738 29.5796H64.2742V29.3796ZM58.2742 23.3796H58.0742V23.38L58.2742 23.3796ZM58.2742 13.8027L58.0742 13.8023V13.8027H58.2742ZM64.2742 7.8027V7.6027L64.2738 7.6027L64.2742 7.8027ZM64.7219 7.8027L64.7223 7.6027H64.7219V7.8027ZM70.7219 13.8027H70.9219V13.8023L70.7219 13.8027ZM70.7219 23.3796L70.9219 23.38V23.3796H70.7219ZM64.2742 11.4881V11.2881L64.2736 11.2881L64.2742 11.4881ZM61.9665 13.7958L61.7665 13.7952V13.7958H61.9665ZM61.9665 23.3727H61.7665V23.3733L61.9665 23.3727ZM64.2742 25.6804L64.2736 25.8804H64.2742V25.6804ZM64.7219 25.6804V25.8804L64.7225 25.8804L64.7219 25.6804ZM67.0296 23.3727L67.2296 23.3733V23.3727H67.0296ZM67.0296 13.7958H67.2296L67.2296 13.7952L67.0296 13.7958ZM64.7219 11.4881L64.7225 11.2881H64.7219V11.4881ZM55.8846 29.3796V29.5796H55.8848L55.8846 29.3796ZM55.5731 29.3796L55.5728 29.5796H55.5731V29.3796ZM49.5004 23.3069H49.3004V23.3072L49.5004 23.3069ZM49.5004 12.1919L49.3004 12.1917V12.1919H49.5004ZM55.5731 6.11925V5.91925L55.5728 5.91925L55.5731 6.11925ZM55.8846 6.11925L55.8848 5.91925H55.8846V6.11925ZM61.9573 12.1919H62.1573V12.1917L61.9573 12.1919ZM61.9573 23.3069L62.1573 23.3072V23.3069H61.9573ZM55.5731 9.81156V9.61156L55.5729 9.61156L55.5731 9.81156ZM53.1927 12.1919L52.9927 12.1918V12.1919H53.1927ZM53.1927 23.3069H52.9927V23.3071L53.1927 23.3069ZM55.5731 25.6873L55.5729 25.8873H55.5731V25.6873ZM55.8846 25.6873V25.8873H55.8848L55.8846 25.6873ZM58.265 23.3069L58.465 23.3071V23.3069H58.265ZM58.265 12.1919H58.465V12.1918L58.265 12.1919ZM55.8846 9.81156L55.8848 9.61156H55.8846V9.81156ZM48.1204 29.2354L48.1214 29.0354L48.12 29.0354L48.1204 29.2354ZM47.6589 25.6008L47.7085 25.7945L47.7088 25.7945L47.6589 25.6008ZM49.505 23.3865L49.705 23.3899V23.3865H49.505ZM44.4327 23.3404L44.6327 23.3418V23.3404H44.4327ZM44.6473 24.2958L44.467 24.3827L44.4707 24.3896L44.6473 24.2958ZM41.3231 25.8962L41.5067 25.8165L41.5033 25.8093L41.3231 25.8962ZM40.7462 23.3473L40.9462 23.3481V23.3473H40.7462ZM53.2031 23.3992H53.0031V23.4067L53.0037 23.4141L53.2031 23.3992ZM53.2031 23.4212L53.0033 23.4063L53.0031 23.4188L53.2031 23.4212ZM48.5877 29.1765L48.5379 28.9828L48.5372 28.983L48.5877 29.1765ZM33.8231 25.625V25.425V25.625ZM31.9769 11.6635L31.7769 11.6634V11.6635H31.9769ZM33.7492 7.40001L33.8903 7.54177L33.8904 7.5417L33.7492 7.40001ZM42.5796 7.29386L42.4419 7.4389L42.4423 7.43929L42.5796 7.29386ZM44.4338 11.5942L44.2338 11.5942V11.5942H44.4338ZM44.4338 23.3404H44.2338V23.341L44.4338 23.3404ZM40.7415 23.3508H40.5415V23.3513L40.7415 23.3508ZM40.7415 11.5989H40.9415L40.9415 11.5977L40.7415 11.5989ZM40.0273 9.96616L39.89 10.1116L39.8907 10.1122L40.0273 9.96616ZM38.1304 9.25193L38.1356 9.45187L38.1377 9.4518L38.1304 9.25193ZM35.6692 23.7835L35.8692 23.784V23.7835H35.6692ZM63.6246 56.3935H63.8246V56.1935H63.6246V56.3935ZM36.74 56.3935L36.7396 56.5935H36.74V56.3935ZM34.9423 54.95L35.1375 54.9064L35.1375 54.9063L34.9423 54.95ZM30.3523 37.4819L30.525 37.381L30.5233 37.3781L30.3523 37.4819ZM30.2369 37.2858L30.0628 37.3843L30.0651 37.3882L30.2369 37.2858ZM29.8908 25.3931L30.0702 25.4813L30.0705 25.4807L29.8908 25.3931ZM40.1104 21.7965L40.0289 21.9792L40.0289 21.9792L40.1104 21.7965ZM51.7884 27.0039L51.707 27.1865L51.7082 27.187L51.7884 27.0039ZM53.9623 29.3208L53.7744 29.3892L53.7745 29.3896L53.9623 29.3208ZM53.7996 32.4004L53.6201 32.3122L53.6198 32.3128L53.7996 32.4004ZM42.7734 36.2808L42.8549 36.0981L42.8549 36.0981L42.7734 36.2808ZM36.8888 33.6558L36.8031 33.8365L36.8074 33.8384L36.8888 33.6558ZM38.3888 30.2831L38.4704 30.1004L38.4656 30.0984L38.3888 30.2831ZM44.2734 32.9092L44.1919 33.0919L44.1919 33.0919L44.2734 32.9092ZM50.4754 30.785L50.2986 30.6913L50.2956 30.6974L50.4754 30.785ZM50.4869 30.5854L50.6732 30.5127L50.6729 30.5119L50.4869 30.5854ZM50.2792 30.3789L50.1976 30.5617L50.2068 30.5653L50.2792 30.3789ZM38.6127 25.1681L38.6942 24.9855L38.6942 24.9854L38.6127 25.1681ZM33.2161 27.0142L33.3955 27.1028L33.3959 27.1018L33.2161 27.0142ZM33.4469 35.4615L33.2727 35.5598L33.273 35.5604L33.4469 35.4615ZM33.5346 35.6139L33.707 35.5125L33.7068 35.5121L33.5346 35.6139ZM38.2192 52.7046L38.0243 52.7492L38.0598 52.9046H38.2192V52.7046ZM61.8246 52.7046V52.9046H62.0142L62.0243 52.7153L61.8246 52.7046ZM65.8111 39.2969L65.9708 39.4174L65.9708 39.4174L65.8111 39.2969ZM67.0596 23.7708L67.2569 23.7381L67.2569 23.7381L67.0596 23.7708ZM70.7023 23.1673L70.8996 23.1347V23.1346L70.7023 23.1673ZM68.7581 41.5216L68.9177 41.6421L68.9177 41.642L68.7581 41.5216ZM65.4708 54.5115L65.6707 54.5075L65.6707 54.5061L65.4708 54.5115ZM63.6246 56.3946H63.4246V56.5946L63.6246 56.5946L63.6246 56.3946ZM55.7358 45.995L55.7357 45.795H55.7352L55.7358 45.995ZM55.4462 45.972L55.4784 45.7746L55.4774 45.7744L55.4462 45.972ZM53.9104 43.8616L53.7128 43.8304L53.7128 43.8305L53.9104 43.8616ZM48.7988 35.75L48.6877 35.9167L48.6974 35.9224L48.7988 35.75ZM50.6981 32.5885L50.8007 32.4166L50.7928 32.4123L50.6981 32.5885ZM57.5577 44.4408L57.7552 44.4724L57.7553 44.4719L57.5577 44.4408ZM38.5873 90.6385H38.3873V90.8385H38.5873V90.6385ZM65.4719 54.5473H65.2719H65.4719ZM87.7677 72.8139V73.0138H87.7679L87.7677 72.8139ZM79.3804 72.8139L79.3801 73.0138H79.3804V72.8139ZM69.1538 62.5815H68.9538V62.5818L69.1538 62.5815ZM98 62.5815L98.2 62.5818V62.5815H98ZM73.1058 64.4277V64.2277H72.8381L72.914 64.4844L73.1058 64.4277ZM79.3804 69.1215L79.3801 69.3215H79.3804V69.1215ZM87.7677 69.1215V69.3215H87.7679L87.7677 69.1215ZM94.0423 64.4277L94.2341 64.4844L94.31 64.2277H94.0423V64.4277ZM71 64.3712L70.9999 64.5712L71.0012 64.5712L71 64.3712ZM69.2588 61.9123L69.4475 61.9787L69.4475 61.9786L69.2588 61.9123ZM81.8323 26.1269L81.6436 26.0606L81.6436 26.0606L81.8323 26.1269ZM85.3157 27.3523L85.1271 27.286L85.1271 27.286L85.3157 27.3523ZM72.7307 63.1366L72.5421 63.0702L72.542 63.0703L72.7307 63.1366ZM96.1538 64.3712L96.1538 64.5712H96.154L96.1538 64.3712ZM94.4127 63.1366L94.6014 63.0703L94.6014 63.0702L94.4127 63.1366ZM81.8358 27.3546L81.6449 27.4148L81.6471 27.4209L81.8358 27.3546ZM85.3158 26.1269L85.5046 26.0606L85.502 26.0541L85.3158 26.1269ZM97.8927 61.91L97.704 61.9763L97.7041 61.9766L97.8927 61.91ZM20.6196 72.8139V73.0138H20.6198L20.6196 72.8139ZM12.2323 72.8139L12.2321 73.0138H12.2323V72.8139ZM2 62.5815H1.8L1.8 62.5818L2 62.5815ZM30.8519 62.5815L31.0519 62.5818V62.5815H30.8519ZM5.95769 64.4277V64.2277H5.69L5.7659 64.4844L5.95769 64.4277ZM12.2323 69.1215L12.2321 69.3215H12.2323V69.1215ZM20.6196 69.1215V69.3215H20.6199L20.6196 69.1215ZM26.8942 64.4277L27.086 64.4844L27.1619 64.2277H26.8942V64.4277ZM3.84617 64.4277L3.84646 64.2277H3.84625L3.84617 64.4277ZM2.10502 61.97L2.29373 62.0363L2.29373 62.0362L2.10502 61.97ZM14.6842 26.1269L14.4955 26.0607L14.4955 26.0607L14.6842 26.1269ZM18.1689 27.35L17.9802 27.2838L17.9801 27.2838L18.1689 27.35ZM5.59194 63.1896L5.40322 63.1234L5.4031 63.1238L5.59194 63.1896ZM29.0057 64.4277L29.0052 64.6277H29.0057V64.4277ZM27.2692 63.1931L27.0805 63.2593L27.0805 63.2593L27.2692 63.1931ZM14.6923 27.3535L14.881 27.2873L14.881 27.2872L14.6923 27.3535ZM18.1769 26.1304L18.3656 26.0642L18.3656 26.0642L18.1769 26.1304ZM30.7538 61.97L30.5651 62.0362L30.5651 62.0363L30.7538 61.97ZM29.0115 64.4277L29.0116 64.2277H29.0115V64.4277ZM53.1985 22.9516H52.9985H53.1985ZM51.3512 24.7977V24.5977L51.3511 24.9977L51.3512 24.7977ZM53.1985 17.9H52.9985H53.1985ZM51.3512 19.7462V19.5462L51.3511 19.9462L51.3512 19.7462ZM83.5769 28.5881V28.7881H83.5771L83.5769 28.5881ZM91.7392 20.4269L91.9392 20.4271V20.427L91.7392 20.4269ZM83.5769 15.9569L83.5771 15.7569H83.5769V15.9569ZM88.0469 20.4269H88.2469V20.4267L88.0469 20.4269ZM16.4231 28.5881L16.4231 28.7881H16.4233L16.4231 28.5881ZM24.5842 20.4269L24.7842 20.4271V20.427L24.5842 20.4269ZM16.4231 15.9569L16.4234 15.7569H16.4231L16.4231 15.9569ZM20.8919 20.4269H21.0919V20.4267L20.8919 20.4269ZM21.8 20.5C21.8 23.4271 19.4271 25.8 16.5 25.8V26.2C19.648 26.2 22.2 23.648 22.2 20.5H21.8ZM16.5 25.8C13.5729 25.8 11.2 23.4271 11.2 20.5H10.8C10.8 23.648 13.352 26.2 16.5 26.2V25.8ZM11.2 20.5C11.2 17.5729 13.5729 15.2 16.5 15.2V14.8C13.352 14.8 10.8 17.352 10.8 20.5H11.2ZM16.5 15.2C19.4271 15.2 21.8 17.5729 21.8 20.5H22.2C22.2 17.352 19.648 14.8 16.5 14.8V15.2ZM88.8 20.5C88.8 23.4271 86.4271 25.8 83.5 25.8V26.2C86.648 26.2 89.2 23.648 89.2 20.5H88.8ZM83.5 25.8C80.5729 25.8 78.2 23.4271 78.2 20.5H77.8C77.8 23.648 80.352 26.2 83.5 26.2V25.8ZM78.2 20.5C78.2 17.5729 80.5729 15.2 83.5 15.2V14.8C80.352 14.8 77.8 17.352 77.8 20.5H78.2ZM83.5 15.2C86.4271 15.2 88.8 17.5729 88.8 20.5H89.2C89.2 17.352 86.648 14.8 83.5 14.8V15.2ZM6 64.2H28V63.8H6V64.2ZM22 69.8H12V70.2H22V69.8ZM12 69.8C8.79675 69.8 6.2 67.2033 6.2 64H5.8C5.8 67.4242 8.57583 70.2 12 70.2V69.8ZM27.8 64C27.8 67.2033 25.2033 69.8 22 69.8V70.2C25.4242 70.2 28.2 67.4242 28.2 64H27.8ZM35 9.2H63V8.8H35V9.2ZM68.8 15V20H69.2V15H68.8ZM63 25.8H44V26.2H63V25.8ZM35.2 17V9H34.8V17H35.2ZM44 25.8C39.1399 25.8 35.2 21.8601 35.2 17H34.8C34.8 22.081 38.919 26.2 44 26.2V25.8ZM68.8 20C68.8 23.2033 66.2033 25.8 63 25.8V26.2C66.4242 26.2 69.2 23.4242 69.2 20H68.8ZM63 9.2C66.2033 9.2 68.8 11.7967 68.8 15H69.2C69.2 11.5758 66.4242 8.8 63 8.8V9.2ZM73 64.2H95V63.8H73V64.2ZM89 69.8H79V70.2H89V69.8ZM79 69.8C75.7967 69.8 73.2 67.2033 73.2 64H72.8C72.8 67.4242 75.5758 70.2 79 70.2V69.8ZM94.8 64C94.8 67.2033 92.2033 69.8 89 69.8V70.2C92.4242 70.2 95.2 67.4242 95.2 64H94.8ZM38 56.2H40V55.8H38V56.2ZM39.8 56V91H40.2V56H39.8ZM40 90.8H38V91.2H40V90.8ZM38.2 91V56H37.8V91H38.2ZM38.2 91V89H37.8V91H38.2ZM38 89.2H62V88.8H38V89.2ZM61.8 89V91H62.2V89H61.8ZM62 90.8H38V91.2H62V90.8ZM64.7219 29.1796H64.2742V29.5796H64.7219V29.1796ZM64.2747 29.1796C62.7373 29.1764 61.2638 28.5642 60.1767 27.4771L59.8939 27.76C61.0558 28.9219 62.6306 29.5762 64.2738 29.5796L64.2747 29.1796ZM60.1767 27.4771C59.0896 26.39 58.4775 24.9166 58.4742 23.3792L58.0742 23.38C58.0777 25.0232 58.732 26.5981 59.8939 27.76L60.1767 27.4771ZM58.4742 23.3796V13.8027H58.0742V23.3796H58.4742ZM58.4742 13.8031C58.4775 12.2657 59.0896 10.7923 60.1767 9.70518L59.8939 9.42234C58.732 10.5842 58.0777 12.1591 58.0742 13.8023L58.4742 13.8031ZM60.1767 9.70518C61.2638 8.61809 62.7373 8.00594 64.2747 8.0027L64.2738 7.6027C62.6306 7.60616 61.0558 8.26044 59.8939 9.42234L60.1767 9.70518ZM64.2742 8.0027H64.7219V7.6027H64.2742V8.0027ZM64.7215 8.0027C66.2589 8.00594 67.7323 8.61809 68.8194 9.70518L69.1023 9.42234C67.9404 8.26044 66.3655 7.60616 64.7223 7.6027L64.7215 8.0027ZM68.8194 9.70518C69.9065 10.7923 70.5187 12.2657 70.5219 13.8031L70.9219 13.8023C70.9185 12.1591 70.2642 10.5842 69.1023 9.42234L68.8194 9.70518ZM70.5219 13.8027V23.3796H70.9219V13.8027H70.5219ZM70.5219 23.3792C70.5187 24.9166 69.9065 26.39 68.8194 27.4771L69.1023 27.76C70.2642 26.5981 70.9185 25.0232 70.9219 23.38L70.5219 23.3792ZM68.8194 27.4771C67.7323 28.5642 66.2589 29.1764 64.7215 29.1796L64.7223 29.5796C66.3655 29.5762 67.9404 28.9219 69.1023 27.76L68.8194 27.4771ZM64.2736 11.2881C63.6093 11.2901 62.9728 11.5548 62.503 12.0246L62.7859 12.3074C63.1809 11.9124 63.7162 11.6897 64.2748 11.6881L64.2736 11.2881ZM62.503 12.0246C62.0333 12.4943 61.7685 13.1309 61.7665 13.7952L62.1665 13.7964C62.1682 13.2377 62.3909 12.7024 62.7859 12.3074L62.503 12.0246ZM61.7665 13.7958V23.3727H62.1665V13.7958H61.7665ZM61.7665 23.3733C61.7685 24.0376 62.0333 24.6741 62.503 25.1439L62.7859 24.861C62.3909 24.466 62.1682 23.9307 62.1665 23.3721L61.7665 23.3733ZM62.503 25.1439C62.9728 25.6136 63.6093 25.8784 64.2736 25.8804L64.2748 25.4804C63.7162 25.4787 63.1809 25.2561 62.7859 24.861L62.503 25.1439ZM64.2742 25.8804H64.7219V25.4804H64.2742V25.8804ZM64.7225 25.8804C65.3868 25.8784 66.0234 25.6136 66.4931 25.1439L66.2103 24.861C65.8152 25.2561 65.28 25.4787 64.7213 25.4804L64.7225 25.8804ZM66.4931 25.1439C66.9628 24.6741 67.2276 24.0376 67.2296 23.3733L66.8296 23.3721C66.8279 23.9307 66.6053 24.466 66.2103 24.861L66.4931 25.1439ZM67.2296 23.3727V13.7958H66.8296V23.3727H67.2296ZM67.2296 13.7952C67.2276 13.1309 66.9628 12.4943 66.4931 12.0246L66.2103 12.3074C66.6053 12.7024 66.8279 13.2377 66.8296 13.7964L67.2296 13.7952ZM66.4931 12.0246C66.0234 11.5548 65.3868 11.2901 64.7225 11.2881L64.7213 11.6881C65.28 11.6897 65.8152 11.9124 66.2103 12.3074L66.4931 12.0246ZM64.7219 11.2881H64.2742V11.6881H64.7219V11.2881ZM55.8846 29.1796H55.5731V29.5796H55.8846V29.1796ZM55.5733 29.1796C54.0162 29.1779 52.5235 28.5585 51.4225 27.4575L51.1396 27.7404C52.3155 28.9163 53.9099 29.5777 55.5728 29.5796L55.5733 29.1796ZM51.4225 27.4575C50.3215 26.3565 49.7021 24.8638 49.7004 23.3067L49.3004 23.3072C49.3023 24.9702 49.9637 26.5645 51.1396 27.7404L51.4225 27.4575ZM49.7004 23.3069V12.1919H49.3004V23.3069H49.7004ZM49.7004 12.1922C49.7021 10.6351 50.3215 9.14235 51.4225 8.04135L51.1396 7.75851C49.9637 8.93441 49.3023 10.5287 49.3004 12.1917L49.7004 12.1922ZM51.4225 8.04135C52.5235 6.94035 54.0162 6.32103 55.5733 6.31925L55.5728 5.91925C53.9099 5.92115 52.3155 6.5826 51.1396 7.75851L51.4225 8.04135ZM55.5731 6.31925H55.8846V5.91925H55.5731V6.31925ZM55.8844 6.31925C57.4414 6.32103 58.9342 6.94035 60.0352 8.04135L60.318 7.75851C59.1421 6.5826 57.5478 5.92115 55.8848 5.91925L55.8844 6.31925ZM60.0352 8.04135C61.1362 9.14235 61.7555 10.6351 61.7573 12.1922L62.1573 12.1917C62.1554 10.5287 61.4939 8.93441 60.318 7.75851L60.0352 8.04135ZM61.7573 12.1919V23.3069H62.1573V12.1919H61.7573ZM61.7573 23.3067C61.7555 24.8638 61.1362 26.3565 60.0352 27.4575L60.318 27.7404C61.4939 26.5645 62.1554 24.9702 62.1573 23.3072L61.7573 23.3067ZM60.0352 27.4575C58.9342 28.5585 57.4414 29.1779 55.8844 29.1796L55.8848 29.5796C57.5478 29.5777 59.1421 28.9163 60.318 27.7404L60.0352 27.4575ZM55.5729 9.61156C54.8888 9.61222 54.2329 9.88428 53.7491 10.368L54.032 10.6509C54.4408 10.242 54.9951 10.0121 55.5733 10.0116L55.5729 9.61156ZM53.7491 10.368C53.2654 10.8517 52.9933 11.5076 52.9927 12.1918L53.3927 12.1921C53.3932 11.614 53.6232 11.0597 54.032 10.6509L53.7491 10.368ZM52.9927 12.1919V23.3069H53.3927V12.1919H52.9927ZM52.9927 23.3071C52.9933 23.9912 53.2654 24.6471 53.7491 25.1309L54.032 24.848C53.6232 24.4392 53.3932 23.8849 53.3927 23.3068L52.9927 23.3071ZM53.7491 25.1309C54.2329 25.6146 54.8888 25.8867 55.5729 25.8873L55.5733 25.4873C54.9951 25.4868 54.4408 25.2569 54.032 24.848L53.7491 25.1309ZM55.5731 25.8873H55.8846V25.4873H55.5731V25.8873ZM55.8848 25.8873C56.5689 25.8867 57.2248 25.6146 57.7085 25.1309L57.4257 24.848C57.0169 25.2569 56.4626 25.4868 55.8844 25.4873L55.8848 25.8873ZM57.7085 25.1309C58.1923 24.6471 58.4643 23.9912 58.465 23.3071L58.065 23.3068C58.0644 23.8849 57.8345 24.4392 57.4257 24.848L57.7085 25.1309ZM58.465 23.3069V12.1919H58.065V23.3069H58.465ZM58.465 12.1918C58.4643 11.5076 58.1923 10.8518 57.7085 10.368L57.4257 10.6509C57.8345 11.0597 58.0644 11.614 58.065 12.1921L58.465 12.1918ZM57.7085 10.368C57.2248 9.88428 56.5689 9.61222 55.8848 9.61156L55.8844 10.0116C56.4626 10.0121 57.0169 10.242 57.4257 10.6509L57.7085 10.368ZM55.8846 9.61156H55.5731V10.0116H55.8846V9.61156ZM48.12 29.0354C47.7188 29.0362 47.3311 28.8904 47.0298 28.6255L46.7656 28.9258C47.1402 29.2552 47.6221 29.4364 48.1208 29.4354L48.12 29.0354ZM47.0298 28.6255C46.7285 28.3605 46.5343 27.9946 46.4837 27.5966L46.0869 27.647C46.1497 28.1417 46.3911 28.5965 46.7656 28.9258L47.0298 28.6255ZM46.4837 27.5966C46.4332 27.1986 46.5298 26.7958 46.7553 26.4639L46.4245 26.2391C46.1441 26.6516 46.0241 27.1522 46.0869 27.647L46.4837 27.5966ZM46.7553 26.4639C46.9808 26.1321 47.3198 25.894 47.7085 25.7945L47.6093 25.407C47.1261 25.5307 46.7048 25.8266 46.4245 26.2391L46.7553 26.4639ZM47.7088 25.7945C48.8577 25.4986 49.686 24.5181 49.705 23.3899L49.3051 23.3832C49.2894 24.3135 48.6016 25.1515 47.609 25.4071L47.7088 25.7945ZM49.705 23.3865V11.0288H49.305V23.3865H49.705ZM49.705 11.0288C49.705 9.61519 48.4675 8.49231 46.9804 8.49231V8.89231C48.2764 8.89231 49.305 9.86481 49.305 11.0288H49.705ZM46.9804 8.49231H46.9573V8.89231H46.9804V8.49231ZM46.9573 8.49231C45.469 8.49231 44.2327 9.61525 44.2327 11.0288H44.6327C44.6327 9.86475 45.6602 8.89231 46.9573 8.89231V8.49231ZM44.2327 11.0288V23.3404H44.6327V11.0288H44.2327ZM44.2327 23.339C44.2302 23.7002 44.3104 24.0572 44.4672 24.3826L44.8275 24.209C44.6972 23.9386 44.6306 23.6419 44.6327 23.3418L44.2327 23.339ZM44.4707 24.3896C44.5747 24.5854 44.6381 24.8001 44.6571 25.021L45.0556 24.9867C45.032 24.7122 44.9532 24.4453 44.824 24.2019L44.4707 24.3896ZM44.6571 25.021C44.676 25.2418 44.6502 25.4642 44.5811 25.6748L44.9612 25.7995C45.0471 25.5377 45.0792 25.2612 45.0556 24.9867L44.6571 25.021ZM44.5811 25.6748C44.5121 25.8855 44.4011 26.08 44.2551 26.2467L44.5559 26.5103C44.7375 26.3031 44.8753 26.0613 44.9612 25.7995L44.5811 25.6748ZM44.2551 26.2467C44.109 26.4134 43.9307 26.5489 43.731 26.6451L43.9045 27.0055C44.1528 26.886 44.3743 26.7175 44.5559 26.5103L44.2551 26.2467ZM43.731 26.6451C43.5313 26.7412 43.3142 26.7961 43.0928 26.8063L43.1112 27.2058C43.3864 27.1931 43.6563 27.125 43.9045 27.0055L43.731 26.6451ZM43.0928 26.8063C42.8713 26.8165 42.6501 26.7819 42.4424 26.7045L42.3028 27.0793C42.561 27.1755 42.8359 27.2185 43.1112 27.2058L43.0928 26.8063ZM42.4424 26.7045C42.2347 26.6271 42.0447 26.5086 41.8839 26.356L41.6086 26.6462C41.8085 26.8358 42.0446 26.9832 42.3028 27.0793L42.4424 26.7045ZM41.8839 26.356C41.7231 26.2035 41.5948 26.02 41.5066 25.8166L41.1396 25.9757C41.2492 26.2285 41.4087 26.4566 41.6086 26.6462L41.8839 26.356ZM41.5033 25.8093C41.1332 25.0418 40.9427 24.2001 40.9462 23.3481L40.5462 23.3465C40.5425 24.2592 40.7466 25.1608 41.1429 25.983L41.5033 25.8093ZM40.9462 23.3473V11.0288H40.5462V23.3473H40.9462ZM40.9462 11.0288C40.9462 7.82082 43.6397 5.2 46.9631 5.2V4.8C43.4304 4.8 40.5462 7.58841 40.5462 11.0288H40.9462ZM46.9631 5.2H46.9862V4.8H46.9631V5.2ZM46.9862 5.2C50.3096 5.2 53.0031 7.82082 53.0031 11.0288H53.4031C53.4031 7.58841 50.5189 4.8 46.9862 4.8V5.2ZM53.0031 11.0288V23.3992H53.4031V11.0288H53.0031ZM53.0037 23.4141C53.0035 23.4115 53.0035 23.4089 53.0037 23.4063L53.4026 23.436C53.4038 23.4188 53.4038 23.4016 53.4026 23.3844L53.0037 23.4141ZM53.0031 23.4188C52.973 26.0214 51.14 28.3133 48.5379 28.9828L48.6376 29.3702C51.4078 28.6574 53.3709 26.2139 53.4031 23.4235L53.0031 23.4188ZM48.5372 28.983C48.4015 29.0185 48.2617 29.0361 48.1214 29.0354L48.1194 29.4354C48.2945 29.4362 48.4689 29.4143 48.6382 29.3701L48.5372 28.983ZM33.8231 25.425C33.3865 25.425 32.9678 25.2516 32.659 24.9429L32.3762 25.2257C32.7599 25.6094 33.2804 25.825 33.8231 25.825V25.425ZM32.659 24.9429C32.3503 24.6341 32.1769 24.2154 32.1769 23.7789H31.7769C31.7769 24.3215 31.9925 24.842 32.3762 25.2257L32.659 24.9429ZM32.1769 23.7789V11.6635H31.7769V23.7789H32.1769ZM32.1769 11.6635C32.177 10.8975 32.3284 10.139 32.6225 9.43172L32.2531 9.27818C31.9388 10.0342 31.777 10.8448 31.7769 11.6634L32.1769 11.6635ZM32.6225 9.43172C32.9165 8.72439 33.3473 8.08212 33.8903 7.54177L33.6081 7.25825C33.0278 7.83576 32.5673 8.52221 32.2531 9.27818L32.6225 9.43172ZM33.8904 7.5417C35.0218 6.4146 36.5483 5.77327 38.1453 5.75407L38.1404 5.3541C36.4394 5.37455 34.8133 6.0577 33.6081 7.25832L33.8904 7.5417ZM38.1453 5.75407C39.7422 5.73487 41.2837 6.33932 42.4419 7.4389L42.7173 7.14881C41.4835 5.97752 39.8415 5.33365 38.1404 5.3541L38.1453 5.75407ZM42.4423 7.43929C43.0081 7.97338 43.4588 8.6174 43.7669 9.33186L44.1342 9.17348C43.8046 8.409 43.3223 7.71989 42.7169 7.14842L42.4423 7.43929ZM43.7669 9.33186C44.075 10.0463 44.2339 10.8162 44.2338 11.5942L44.6338 11.5942C44.6339 10.7617 44.4638 9.93797 44.1342 9.17348L43.7669 9.33186ZM44.2338 11.5942V23.3404H44.6338V11.5942H44.2338ZM44.2338 23.341C44.2351 23.7775 44.0628 24.1967 43.755 24.5063L44.0386 24.7884C44.4212 24.4036 44.6354 23.8825 44.6338 23.3398L44.2338 23.341ZM43.755 24.5063C43.4471 24.8159 43.0289 24.9905 42.5923 24.9917L42.5934 25.3917C43.1361 25.3902 43.6559 25.1732 44.0386 24.7884L43.755 24.5063ZM42.5923 24.9917C42.1557 24.993 41.7365 24.8207 41.4269 24.5129L41.1449 24.7965C41.5297 25.1792 42.0508 25.3933 42.5934 25.3917L42.5923 24.9917ZM41.4269 24.5129C41.1174 24.205 40.9427 23.7868 40.9415 23.3502L40.5415 23.3513C40.543 23.894 40.7601 24.4139 41.1449 24.7965L41.4269 24.5129ZM40.9415 23.3508V11.5989H40.5415V23.3508H40.9415ZM40.9415 11.5977C40.9396 11.2641 40.8696 10.9344 40.7359 10.6287L40.3694 10.7891C40.4813 11.0449 40.5399 11.3208 40.5415 11.6L40.9415 11.5977ZM40.7359 10.6287C40.6022 10.3231 40.4076 10.048 40.1639 9.82009L39.8907 10.1122C40.0946 10.303 40.2575 10.5333 40.3694 10.7891L40.7359 10.6287ZM40.1646 9.82074C39.8923 9.56364 39.5715 9.36327 39.2211 9.23131L39.0801 9.60565C39.3809 9.71893 39.6562 9.89091 39.89 10.1116L40.1646 9.82074ZM39.2211 9.23131C38.8706 9.09934 38.4973 9.03841 38.1231 9.05207L38.1377 9.4518C38.4589 9.44008 38.7793 9.49238 39.0801 9.60565L39.2211 9.23131ZM38.1251 9.052C36.6682 9.09041 35.4692 10.2557 35.4692 11.6681H35.8692C35.8692 10.4889 36.8787 9.485 38.1356 9.45186L38.1251 9.052ZM35.4692 11.6681V23.7835H35.8692V11.6681H35.4692ZM35.4692 23.783C35.4681 24.2188 35.2942 24.6365 34.9856 24.9443L35.2681 25.2275C35.6517 24.8449 35.8679 24.3258 35.8692 23.784L35.4692 23.783ZM34.9856 24.9443C34.677 25.2521 34.2589 25.425 33.8231 25.425V25.825C34.3648 25.825 34.8845 25.6101 35.2681 25.2275L34.9856 24.9443ZM63.6246 56.1935H36.74V56.5935H63.6246V56.1935ZM36.7404 56.1935C36.3668 56.1927 36.0046 56.0648 35.7133 55.8309L35.4629 56.1428C35.825 56.4335 36.2752 56.5925 36.7396 56.5935L36.7404 56.1935ZM35.7133 55.8309C35.422 55.597 35.219 55.271 35.1375 54.9064L34.7471 54.9936C34.8484 55.4468 35.1008 55.8521 35.4629 56.1428L35.7133 55.8309ZM35.1375 54.9063C34.2792 51.0738 33.3031 46.9988 32.4553 43.734C32.0315 42.1018 31.6394 40.6706 31.3099 39.5729C31.1452 39.0242 30.9956 38.5572 30.8651 38.1893C30.7362 37.8258 30.6214 37.5461 30.525 37.381L30.1796 37.5828C30.2551 37.712 30.3591 37.9594 30.4881 38.323C30.6155 38.6823 30.763 39.1424 30.9268 39.6879C31.2542 40.7788 31.6449 42.2045 32.0682 43.8345C32.9146 47.0941 33.8896 51.1647 34.7471 54.9937L35.1375 54.9063ZM30.5233 37.3781C30.4824 37.3108 30.4536 37.2587 30.4087 37.1833L30.0651 37.3882C30.0986 37.4444 30.1438 37.5238 30.1813 37.5857L30.5233 37.3781ZM30.4109 37.1872C29.4053 35.4113 28.8486 33.4166 28.7892 31.3765L28.3894 31.3882C28.4507 33.4933 29.0251 35.5517 30.0629 37.3843L30.4109 37.1872ZM28.7892 31.3765C28.7299 29.3365 29.1696 27.3128 30.0702 25.4813L29.7113 25.3048C28.7819 27.1947 28.3281 29.283 28.3894 31.3882L28.7892 31.3765ZM30.0705 25.4807C31.8216 21.8887 36.2896 20.3104 40.0289 21.9792L40.1919 21.6139C36.2627 19.8604 31.5599 21.5128 29.711 25.3054L30.0705 25.4807ZM40.0289 21.9792L51.707 27.1865L51.8699 26.8212L40.1918 21.6139L40.0289 21.9792ZM51.7082 27.187C52.1836 27.3953 52.6118 27.6979 52.9669 28.0764L53.2586 27.8027C52.8665 27.3848 52.3937 27.0507 51.8687 26.8207L51.7082 27.187ZM52.9669 28.0764C53.3221 28.4549 53.5968 28.9015 53.7744 29.3892L54.1502 29.2523C53.9541 28.7138 53.6508 28.2207 53.2586 27.8027L52.9669 28.0764ZM53.7745 29.3896C53.9475 29.8619 54.0231 30.3644 53.9965 30.8667L54.396 30.8878C54.4254 30.3315 54.3417 29.775 54.1501 29.252L53.7745 29.3896ZM53.9965 30.8667C53.97 31.369 53.8419 31.8607 53.6201 32.3122L53.9791 32.4886C54.2248 31.9886 54.3666 31.4441 54.396 30.8878L53.9965 30.8667ZM53.6198 32.3128C51.7268 36.1978 46.8977 37.9019 42.8549 36.0981L42.692 36.4634C46.9246 38.3519 51.9885 36.5738 53.9794 32.488L53.6198 32.3128ZM42.8549 36.0981L36.9703 33.4731L36.8074 33.8384L42.692 36.4634L42.8549 36.0981ZM36.9745 33.4751C36.5863 33.291 36.2855 32.9624 36.1362 32.5595L35.7612 32.6984C35.9467 33.1992 36.3206 33.6077 36.8031 33.8365L36.9745 33.4751ZM36.1362 32.5595C35.987 32.1566 36.0012 31.7113 36.1758 31.3188L35.8103 31.1562C35.5933 31.6442 35.5757 32.1976 35.7612 32.6984L36.1362 32.5595ZM36.1758 31.3188C36.3504 30.9262 36.6716 30.6174 37.0707 30.4584L36.9227 30.0868C36.4265 30.2845 36.0273 30.6682 35.8103 31.1562L36.1758 31.3188ZM37.0707 30.4584C37.4698 30.2994 37.9153 30.3028 38.312 30.4678L38.4656 30.0984C37.9725 29.8933 37.4188 29.8892 36.9227 30.0868L37.0707 30.4584ZM38.3073 30.4657L44.1919 33.0919L44.355 32.7266L38.4703 30.1004L38.3073 30.4657ZM44.1919 33.0919C46.6239 34.1772 49.5261 33.1912 50.6552 30.8726L50.2956 30.6974C49.267 32.8096 46.603 33.7298 44.355 32.7266L44.1919 33.0919ZM50.6521 30.8787C50.6817 30.8228 50.6989 30.7612 50.7026 30.698L50.3033 30.6749C50.3029 30.6807 50.3014 30.6863 50.2987 30.6913L50.6521 30.8787ZM50.7026 30.698C50.7062 30.6349 50.6962 30.5717 50.6732 30.5127L50.3006 30.6581C50.3027 30.6634 50.3036 30.6692 50.3033 30.6749L50.7026 30.698ZM50.6729 30.5119C50.6443 30.4394 50.6009 30.3736 50.5457 30.3186L50.2636 30.6022C50.2798 30.6183 50.2925 30.6376 50.3009 30.6589L50.6729 30.5119ZM50.5457 30.3186C50.4904 30.2636 50.4243 30.2207 50.3517 30.1924L50.2068 30.5653C50.2281 30.5735 50.2474 30.5861 50.2636 30.6022L50.5457 30.3186ZM50.3608 30.1962L38.6942 24.9855L38.5311 25.3507L50.1977 30.5615L50.3608 30.1962ZM38.6942 24.9854C36.5646 24.0352 34.0259 24.8952 33.0363 26.9267L33.3959 27.1018C34.2848 25.2771 36.5854 24.4825 38.5312 25.3507L38.6942 24.9854ZM33.0368 26.9257C32.3704 28.2753 32.0435 29.7673 32.0846 31.272L32.4845 31.261C32.4451 29.8215 32.7579 28.3941 33.3955 27.1028L33.0368 26.9257ZM32.0846 31.272C32.1257 32.7766 32.5335 34.2485 33.2727 35.5598L33.6211 35.3633C32.914 34.1088 32.5238 32.7006 32.4845 31.261L32.0846 31.272ZM33.273 35.5604C33.3017 35.6109 33.3314 35.6631 33.3624 35.7156L33.7068 35.5121C33.6778 35.463 33.6498 35.4138 33.6208 35.3627L33.273 35.5604ZM33.3622 35.7153C33.6369 36.1822 33.9986 37.1701 34.4065 38.4896C34.8119 39.801 35.2567 41.4185 35.7006 43.1282C36.5883 46.5472 37.4705 50.3272 38.0243 52.7492L38.4142 52.6601C37.8602 50.237 36.977 46.4524 36.0878 43.0277C35.6432 41.3155 35.1967 39.6913 34.7887 38.3714C34.3831 37.0595 34.0092 36.0263 33.707 35.5125L33.3622 35.7153ZM38.2192 52.9046H61.8246V52.5046H38.2192V52.9046ZM62.0243 52.7153C62.1064 51.1743 62.328 48.8608 62.9133 46.4244C63.499 43.9861 64.4459 41.4378 65.9708 39.4174L65.6515 39.1765C64.0806 41.258 63.1167 43.8651 62.5244 46.3309C61.9316 48.7987 61.7078 51.1381 61.6249 52.694L62.0243 52.7153ZM65.9708 39.4174C66.9995 38.0542 67.6157 35.9355 67.8298 33.272C68.0444 30.6033 67.857 27.3642 67.2569 23.7381L66.8623 23.8034C67.4587 27.4073 67.6423 30.6125 67.4311 33.2399C67.2195 35.8726 66.6132 37.902 65.6515 39.1765L65.9708 39.4174ZM67.2569 23.7381C67.1856 23.3074 67.2882 22.8659 67.5423 22.5109L67.2171 22.2781C66.9012 22.7194 66.7736 23.2681 66.8623 23.8035L67.2569 23.7381ZM67.5423 22.5109C67.7964 22.1559 68.1812 21.9164 68.6119 21.845L68.5465 21.4504C68.0112 21.5391 67.5329 21.8368 67.2171 22.2781L67.5423 22.5109ZM68.6119 21.845C69.0426 21.7737 69.484 21.8763 69.8391 22.1304L70.0719 21.8052C69.6306 21.4893 69.0819 21.3617 68.5465 21.4504L68.6119 21.845ZM69.8391 22.1304C70.1941 22.3845 70.4336 22.7693 70.505 23.2L70.8996 23.1346C70.8109 22.5992 70.5132 22.121 70.0719 21.8052L69.8391 22.1304ZM70.505 23.2C70.9924 26.1438 71.3484 29.5975 71.1635 32.8684C70.9783 36.1434 70.2522 39.2094 68.5984 41.4011L68.9177 41.642C70.6413 39.3579 71.3759 36.1983 71.5628 32.891C71.75 29.5795 71.3895 26.0939 70.8996 23.1347L70.505 23.2ZM68.5984 41.4011C66.8613 43.7022 66.0331 46.9699 65.6362 49.6501C65.2385 52.3365 65.2695 54.4662 65.2708 54.5169L65.6707 54.5061C65.6707 54.5061 65.6706 54.5039 65.6706 54.4985C65.6705 54.4935 65.6704 54.4865 65.6703 54.4775C65.6701 54.4595 65.6699 54.4338 65.6698 54.4007C65.6696 54.3345 65.6699 54.2388 65.6714 54.1168C65.6745 53.8726 65.6828 53.5227 65.7034 53.091C65.7447 52.2272 65.8353 51.0366 66.0319 49.7087C66.4263 47.0452 67.2429 43.8605 68.9177 41.6421L68.5984 41.4011ZM65.2708 54.5155C65.2752 54.7345 65.2358 54.9521 65.1551 55.1556L65.5269 55.3032C65.6273 55.0502 65.6762 54.7797 65.6707 54.5075L65.2708 54.5155ZM65.1551 55.1556C65.0743 55.3592 64.9537 55.5445 64.8004 55.7009L65.0861 55.9809C65.2766 55.7866 65.4265 55.5561 65.5269 55.3032L65.1551 55.1556ZM64.8004 55.7009C64.6471 55.8573 64.4642 55.9815 64.2623 56.0662L64.4172 56.4351C64.6681 56.3297 64.8955 56.1753 65.0861 55.9809L64.8004 55.7009ZM64.2623 56.0662C64.0604 56.151 63.8436 56.1947 63.6246 56.1946L63.6246 56.5946C63.8968 56.5947 64.1662 56.5404 64.4172 56.4351L64.2623 56.0662ZM63.8246 56.3946V56.3935H63.4246V56.3946H63.8246ZM55.7352 45.795C55.6492 45.7953 55.5633 45.7885 55.4784 45.7746L55.4139 46.1693C55.5205 46.1868 55.6284 46.1954 55.7364 46.195L55.7352 45.795ZM55.4774 45.7744C55.0463 45.7063 54.6599 45.4699 54.4031 45.117L54.0797 45.3524C54.3989 45.791 54.8791 46.0849 55.415 46.1695L55.4774 45.7744ZM54.4031 45.117C54.1463 44.7641 54.0402 44.3238 54.108 43.8926L53.7128 43.8305C53.6285 44.3664 53.7605 44.9138 54.0797 45.3524L54.4031 45.117ZM54.1079 43.8927C54.4798 41.5341 53.1629 39.4541 51.7907 37.9836C50.4134 36.5074 48.9395 35.6007 48.9002 35.5776L48.6974 35.9224C48.6968 35.922 48.7021 35.9252 48.7149 35.9332C48.7268 35.9406 48.744 35.9514 48.766 35.9655C48.81 35.9937 48.8733 36.0349 48.9529 36.0886C49.1121 36.1959 49.3363 36.3528 49.6019 36.5543C50.1334 36.9578 50.8283 37.5384 51.4983 38.2565C52.8457 39.7005 54.0552 41.659 53.7128 43.8304L54.1079 43.8927ZM48.9099 35.5837C48.558 35.3488 48.31 34.9875 48.2174 34.5747L47.8271 34.6623C47.9422 35.1754 48.2504 35.6245 48.6878 35.9164L48.9099 35.5837ZM48.2174 34.5747C48.1248 34.162 48.1946 33.7293 48.4125 33.3667L48.0696 33.1607C47.7988 33.6115 47.712 34.1492 47.8271 34.6623L48.2174 34.5747ZM48.4125 33.3667C48.6303 33.004 48.9795 32.7392 49.3874 32.6271L49.2814 32.2414C48.7743 32.3807 48.3404 32.7099 48.0696 33.1607L48.4125 33.3667ZM49.3874 32.6271C49.7953 32.515 50.2308 32.5642 50.6033 32.7646L50.7928 32.4123C50.3297 32.1633 49.7885 32.102 49.2814 32.2414L49.3874 32.6271ZM50.5955 32.7602C50.7508 32.8529 52.7211 34.0539 54.5133 36.0954C56.3065 38.1382 57.8979 40.9944 57.3601 44.4097L57.7553 44.4719C58.3194 40.8891 56.6443 37.9167 54.8139 35.8315C52.9823 33.7452 50.9719 32.5191 50.8006 32.4168L50.5955 32.7602ZM57.3602 44.4092C57.2983 44.7956 57.1008 45.1473 56.8031 45.4012L57.0627 45.7056C57.4328 45.3899 57.6783 44.9527 57.7552 44.4724L57.3602 44.4092ZM56.8031 45.4012C56.5054 45.6552 56.127 45.7948 55.7357 45.795L55.7359 46.195C56.2223 46.1948 56.6927 46.0212 57.0627 45.7056L56.8031 45.4012ZM63.6258 94.1308H36.7411V94.5308H63.6258V94.1308ZM36.7411 94.1308C36.3045 94.1308 35.8858 93.9574 35.5771 93.6486L35.2943 93.9315C35.678 94.3152 36.1985 94.5308 36.7411 94.5308V94.1308ZM35.5771 93.6486C35.2684 93.3399 35.095 92.9212 35.095 92.4846H34.695C34.695 93.0273 34.9106 93.5478 35.2943 93.9315L35.5771 93.6486ZM35.095 92.4846V54.5473H34.695V92.4846H35.095ZM35.095 54.5473C35.095 54.1107 35.2684 53.692 35.5771 53.3833L35.2943 53.1005C34.9106 53.4842 34.695 54.0047 34.695 54.5473H35.095ZM35.5771 53.3833C35.8858 53.0746 36.3045 52.9012 36.7411 52.9012V52.5012C36.1985 52.5012 35.678 52.7167 35.2943 53.1005L35.5771 53.3833ZM36.7411 52.9012C37.1777 52.9012 37.5964 53.0746 37.9051 53.3833L38.188 53.1005C37.8043 52.7167 37.2838 52.5012 36.7411 52.5012V52.9012ZM37.9051 53.3833C38.2139 53.692 38.3873 54.1107 38.3873 54.5473H38.7873C38.7873 54.0047 38.5717 53.4842 38.188 53.1005L37.9051 53.3833ZM38.3873 54.5473V90.6385H38.7873V54.5473H38.3873ZM38.5873 90.8385H63.6258V90.4385H38.5873V90.8385ZM63.6258 90.8385C64.0623 90.8385 64.481 91.0119 64.7898 91.3206L65.0726 91.0378C64.6889 90.6541 64.1684 90.4385 63.6258 90.4385V90.8385ZM64.7898 91.3206C65.0985 91.6293 65.2719 92.048 65.2719 92.4846H65.6719C65.6719 91.942 65.4563 91.4215 65.0726 91.0378L64.7898 91.3206ZM63.6258 94.1308C63.1892 94.1308 62.7705 93.9574 62.4617 93.6486L62.1789 93.9315C62.5626 94.3152 63.0831 94.5308 63.6258 94.5308V94.1308ZM62.4617 93.6486C62.153 93.3399 61.9796 92.9212 61.9796 92.4846H61.5796C61.5796 93.0273 61.7952 93.5478 62.1789 93.9315L62.4617 93.6486ZM61.9796 92.4846V54.5473H61.5796V92.4846H61.9796ZM61.9796 54.5473C61.9796 54.1107 62.153 53.692 62.4617 53.3833L62.1789 53.1005C61.7952 53.4842 61.5796 54.0047 61.5796 54.5473H61.9796ZM62.4617 53.3833C62.7705 53.0746 63.1892 52.9012 63.6258 52.9012V52.5012C63.0831 52.5012 62.5626 52.7167 62.1789 53.1005L62.4617 53.3833ZM63.6258 52.9012C64.0623 52.9012 64.481 53.0746 64.7898 53.3833L65.0726 53.1005C64.6889 52.7167 64.1684 52.5012 63.6258 52.5012V52.9012ZM64.7898 53.3833C65.0985 53.692 65.2719 54.1107 65.2719 54.5473H65.6719C65.6719 54.0047 65.4563 53.4842 65.0726 53.1005L64.7898 53.3833ZM65.2719 54.5473L65.2719 92.4846H65.6719L65.6719 54.5473H65.2719ZM87.7677 72.6139H79.3804V73.0138H87.7677V72.6139ZM79.3807 72.6139C76.7218 72.6094 74.1732 71.5507 72.2936 69.6701L72.0107 69.9529C73.9651 71.9084 76.6153 73.0092 79.3801 73.0138L79.3807 72.6139ZM72.2936 69.6701C70.414 67.7894 69.3568 65.2402 69.3538 62.5813L68.9538 62.5818C68.957 65.3466 70.0562 67.9973 72.0107 69.9529L72.2936 69.6701ZM69.3538 62.5815C69.3538 62.145 69.5273 61.7262 69.836 61.4175L69.5532 61.1347C69.1694 61.5184 68.9538 62.0389 68.9538 62.5815H69.3538ZM69.836 61.4175C70.1447 61.1088 70.5634 60.9354 71 60.9354V60.5354C70.4573 60.5354 69.9369 60.751 69.5532 61.1347L69.836 61.4175ZM71 60.9354H96.1538V60.5354H71V60.9354ZM96.1538 60.9354C96.5904 60.9354 97.0091 61.1088 97.3179 61.4175L97.6007 61.1347C97.217 60.751 96.6965 60.5354 96.1538 60.5354V60.9354ZM97.3179 61.4175C97.6266 61.7262 97.8 62.145 97.8 62.5815H98.2C98.2 62.0389 97.9844 61.5184 97.6007 61.1347L97.3179 61.4175ZM97.8 62.5813C97.797 65.2412 96.7391 67.7913 94.8582 69.6721L95.1411 69.9549C97.0968 67.9992 98.1969 65.3476 98.2 62.5818L97.8 62.5813ZM94.8582 69.6721C92.9774 71.5529 90.4273 72.6109 87.7675 72.6139L87.7679 73.0138C90.5337 73.0107 93.1854 71.9107 95.1411 69.9549L94.8582 69.6721ZM72.914 64.4844C73.3266 65.8798 74.179 67.1046 75.3442 67.9762L75.5838 67.656C74.4876 66.8359 73.6857 65.6837 73.2976 64.371L72.914 64.4844ZM75.3442 67.9762C76.5094 68.8479 77.925 69.3198 79.3801 69.3215L79.3806 68.9215C78.0117 68.9199 76.6799 68.476 75.5838 67.656L75.3442 67.9762ZM79.3804 69.3215H87.7677V68.9215H79.3804V69.3215ZM87.7679 69.3215C89.2231 69.3198 90.6387 68.8479 91.8039 67.9762L91.5643 67.656C90.4681 68.476 89.1364 68.9199 87.7674 68.9215L87.7679 69.3215ZM91.8039 67.9762C92.9691 67.1046 93.8215 65.8798 94.2341 64.4844L93.8505 64.371C93.4624 65.6837 92.6605 66.8359 91.5643 67.656L91.8039 67.9762ZM94.0423 64.2277H73.1058V64.6277H94.0423V64.2277ZM71 64.1712C70.7369 64.1711 70.4776 64.108 70.2439 63.9871L70.0602 64.3424C70.3506 64.4927 70.6729 64.5711 70.9999 64.5712L71 64.1712ZM70.2439 63.9871C70.0103 63.8662 69.8089 63.6911 69.6569 63.4763L69.3305 63.7075C69.5195 63.9744 69.7697 64.1921 70.0602 64.3424L70.2439 63.9871ZM69.6569 63.4763C69.5048 63.2616 69.4065 63.0136 69.37 62.753L68.9739 62.8084C69.0192 63.1323 69.1415 63.4406 69.3305 63.7075L69.6569 63.4763ZM69.37 62.753C69.3336 62.4924 69.3602 62.2269 69.4475 61.9787L69.0701 61.846C68.9616 62.1545 68.9286 62.4845 68.9739 62.8084L69.37 62.753ZM69.4475 61.9786L82.021 26.1932L81.6436 26.0606L69.0701 61.846L69.4475 61.9786ZM82.0209 26.1933C82.1658 25.7814 82.4684 25.4439 82.8621 25.2551L82.6892 24.8945C82.1998 25.1291 81.8237 25.5486 81.6436 26.0606L82.0209 26.1933ZM82.8621 25.2551C83.2559 25.0663 83.7084 25.0417 84.1203 25.1866L84.2531 24.8092C83.7411 24.6291 83.1785 24.6598 82.6892 24.8945L82.8621 25.2551ZM84.1203 25.1866C84.5322 25.3315 84.8697 25.6341 85.0585 26.0278L85.4192 25.8548C85.1845 25.3654 84.765 24.9893 84.2531 24.8092L84.1203 25.1866ZM85.0585 26.0278C85.2473 26.4215 85.272 26.8741 85.1271 27.286L85.5044 27.4187C85.6845 26.9067 85.6538 26.3442 85.4192 25.8548L85.0585 26.0278ZM85.1271 27.286L72.5421 63.0702L72.9194 63.2029L85.5044 27.4187L85.1271 27.286ZM72.542 63.0703C72.4296 63.3905 72.221 63.6681 71.9448 63.8652L72.1771 64.1908C72.5204 63.9459 72.7797 63.6008 72.9194 63.2028L72.542 63.0703ZM71.9448 63.8652C71.6685 64.0623 71.3381 64.1691 70.9988 64.1712L71.0012 64.5712C71.423 64.5686 71.8337 64.4358 72.1771 64.1908L71.9448 63.8652ZM96.1539 64.1712C95.813 64.171 95.4805 64.065 95.2024 63.8678L94.9711 64.1941C95.3167 64.4393 95.73 64.571 96.1538 64.5712L96.1539 64.1712ZM95.2024 63.8678C94.9243 63.6706 94.7143 63.392 94.6014 63.0703L94.224 63.2028C94.3643 63.6026 94.6254 63.949 94.9711 64.1941L95.2024 63.8678ZM94.6014 63.0702L82.0244 27.2883L81.6471 27.4209L94.224 63.2029L94.6014 63.0702ZM82.0265 27.2945C81.8981 26.8873 81.933 26.4461 82.1237 26.0641L81.7659 25.8854C81.5288 26.3602 81.4854 26.9086 81.645 27.4148L82.0265 27.2945ZM82.1237 26.0641C82.3145 25.6821 82.6462 25.3892 83.0488 25.2471L82.9157 24.8699C82.4153 25.0465 82.0029 25.4106 81.7659 25.8854L82.1237 26.0641ZM83.0488 25.2471C83.4515 25.1051 83.8936 25.125 84.2818 25.3028L84.4483 24.9391C83.9658 24.7181 83.4162 24.6933 82.9157 24.8699L83.0488 25.2471ZM84.2818 25.3028C84.67 25.4805 84.974 25.8022 85.1295 26.1998L85.502 26.0541C85.3087 25.5598 84.9308 25.16 84.4483 24.9391L84.2818 25.3028ZM85.1271 26.1933L97.704 61.9763L98.0814 61.8437L85.5044 26.0606L85.1271 26.1933ZM97.7041 61.9766C97.7918 62.2248 97.8187 62.4903 97.7825 62.751L98.1788 62.8059C98.2237 62.4819 98.1902 62.1518 98.0813 61.8434L97.7041 61.9766ZM97.7825 62.751C97.7464 63.0117 97.6483 63.2599 97.4964 63.4749L97.8231 63.7057C98.0119 63.4385 98.1338 63.13 98.1788 62.8059L97.7825 62.751ZM97.4964 63.4749C97.3446 63.6898 97.1434 63.8652 96.9097 63.9864L97.0939 64.3415C97.3843 64.1909 97.6344 63.9729 97.8231 63.7057L97.4964 63.4749ZM96.9097 63.9864C96.6761 64.1075 96.4168 64.1709 96.1536 64.1712L96.154 64.5712C96.4812 64.5708 96.8035 64.4921 97.0939 64.3415L96.9097 63.9864ZM20.6196 72.6139H12.2323V73.0138H20.6196V72.6139ZM12.2325 72.6139C9.57266 72.6109 7.02258 71.5529 5.14177 69.6721L4.85893 69.9549C6.81465 71.9107 9.46628 73.0107 12.2321 73.0138L12.2325 72.6139ZM5.14177 69.6721C3.26095 67.7913 2.20299 65.2412 2.2 62.5813L1.8 62.5818C1.80311 65.3476 2.90321 67.9992 4.85893 69.9549L5.14177 69.6721ZM2.2 62.5815C2.2 62.145 2.37343 61.7262 2.68215 61.4175L2.3993 61.1347C2.01558 61.5184 1.8 62.0389 1.8 62.5815H2.2ZM2.68215 61.4175C2.99086 61.1088 3.40957 60.9354 3.84615 60.9354V60.5354C3.30348 60.5354 2.78303 60.751 2.3993 61.1347L2.68215 61.4175ZM3.84615 60.9354H29.0058V60.5354H3.84615V60.9354ZM29.0058 60.9354C29.4424 60.9354 29.8611 61.1088 30.1698 61.4175L30.4526 61.1347C30.0689 60.751 29.5484 60.5354 29.0058 60.5354V60.9354ZM30.1698 61.4175C30.4785 61.7262 30.6519 62.145 30.6519 62.5815H31.0519C31.0519 62.0389 30.8363 61.5184 30.4526 61.1347L30.1698 61.4175ZM30.6519 62.5813C30.6489 65.2412 29.591 67.7913 27.7102 69.6721L27.993 69.9549C29.9487 67.9992 31.0488 65.3476 31.0519 62.5818L30.6519 62.5813ZM27.7102 69.6721C25.8293 71.5529 23.2793 72.6109 20.6194 72.6139L20.6198 73.0138C23.3856 73.0107 26.0373 71.9107 27.993 69.9549L27.7102 69.6721ZM5.7659 64.4844C6.17851 65.8798 7.03091 67.1046 8.1961 67.9762L8.4357 67.656C7.33954 66.8359 6.53764 65.6837 6.14948 64.371L5.7659 64.4844ZM8.1961 67.9762C9.36129 68.8479 10.7769 69.3198 12.2321 69.3215L12.2326 68.9215C10.8636 68.9199 9.53187 68.476 8.4357 67.656L8.1961 67.9762ZM12.2323 69.3215H20.6196V68.9215H12.2323V69.3215ZM20.6199 69.3215C22.075 69.3198 23.4906 68.8479 24.6558 67.9762L24.4162 67.656C23.3201 68.476 21.9883 68.9199 20.6194 68.9215L20.6199 69.3215ZM24.6558 67.9762C25.821 67.1046 26.6734 65.8798 27.086 64.4844L26.7024 64.371C26.3143 65.6837 25.5124 66.8359 24.4162 67.656L24.6558 67.9762ZM26.8942 64.2277H5.95769V64.6277H26.8942V64.2277ZM3.84625 64.2277C3.58327 64.2276 3.32414 64.1645 3.09055 64.0436L2.90676 64.3989C3.1971 64.5491 3.5192 64.6276 3.84609 64.6277L3.84625 64.2277ZM3.09055 64.0436C2.85697 63.9228 2.65574 63.7478 2.50372 63.5332L2.17732 63.7644C2.36629 64.0311 2.61642 64.2487 2.90676 64.3989L3.09055 64.0436ZM2.50372 63.5332C2.35169 63.3186 2.25329 63.0707 2.21675 62.8102L1.82063 62.8658C1.86604 63.1895 1.98836 63.4977 2.17732 63.7644L2.50372 63.5332ZM2.21675 62.8102C2.18022 62.5498 2.20661 62.2844 2.29373 62.0363L1.91631 61.9038C1.80803 62.2122 1.77522 62.5421 1.82063 62.8658L2.21675 62.8102ZM2.29373 62.0362L14.873 26.1932L14.4955 26.0607L1.9163 61.9038L2.29373 62.0362ZM14.873 26.1932C14.9446 25.9891 15.0557 25.8012 15.1999 25.6401L14.9019 25.3733C14.7226 25.5735 14.5845 25.8071 14.4955 26.0607L14.873 26.1932ZM15.1999 25.6401C15.3441 25.4791 15.5187 25.348 15.7136 25.2543L15.5404 24.8938C15.2981 25.0101 15.0812 25.1731 14.9019 25.3733L15.1999 25.6401ZM15.7136 25.2543C15.9085 25.1607 16.1199 25.1064 16.3358 25.0945L16.3138 24.6951C16.0454 24.7099 15.7826 24.7774 15.5404 24.8938L15.7136 25.2543ZM16.3358 25.0945C16.5517 25.0825 16.7678 25.1133 16.9719 25.1849L17.1043 24.8075C16.8507 24.7184 16.5821 24.6803 16.3138 24.6951L16.3358 25.0945ZM16.9719 25.1849C17.1759 25.2565 17.3638 25.3676 17.5249 25.5118L17.7917 25.2138C17.5915 25.0345 17.3579 24.8965 17.1043 24.8075L16.9719 25.1849ZM17.5249 25.5118C17.686 25.6561 17.8171 25.8306 17.9107 26.0255L18.2713 25.8523C18.1549 25.61 17.9919 25.3931 17.7917 25.2138L17.5249 25.5118ZM17.9107 26.0255C18.0043 26.2204 18.0587 26.4318 18.0706 26.6477L18.47 26.6257C18.4551 26.3573 18.3876 26.0945 18.2713 25.8523L17.9107 26.0255ZM18.0706 26.6477C18.0825 26.8636 18.0518 27.0798 17.9802 27.2838L18.3576 27.4162C18.4466 27.1627 18.4848 26.894 18.47 26.6257L18.0706 26.6477ZM17.9801 27.2838L5.40322 63.1234L5.78066 63.2559L18.3576 27.4162L17.9801 27.2838ZM5.4031 63.1238C5.29046 63.4467 5.08004 63.7265 4.80107 63.9243L5.03246 64.2506C5.37921 64.0047 5.64076 63.6569 5.78078 63.2555L5.4031 63.1238ZM4.80107 63.9243C4.52211 64.1222 4.18845 64.2282 3.84646 64.2277L3.84589 64.6277C4.27098 64.6283 4.68571 64.4965 5.03246 64.2506L4.80107 63.9243ZM29.0063 64.2277C28.6661 64.2267 28.3346 64.1203 28.0573 63.9232L27.8255 64.2492C28.1702 64.4942 28.5823 64.6265 29.0052 64.6277L29.0063 64.2277ZM28.0573 63.9232C27.78 63.7261 27.5706 63.4479 27.4579 63.1268L27.0805 63.2593C27.2206 63.6584 27.4809 64.0042 27.8255 64.2492L28.0573 63.9232ZM27.4579 63.1269L14.881 27.2873L14.5036 27.4197L27.0805 63.2593L27.4579 63.1269ZM14.881 27.2872C14.7364 26.8752 14.7614 26.4226 14.9504 26.029L14.5899 25.8558C14.3549 26.345 14.3238 26.9076 14.5036 27.4197L14.881 27.2872ZM14.9504 26.029C15.1395 25.6353 15.4773 25.333 15.8893 25.1883L15.7568 24.8109C15.2447 24.9907 14.8249 25.3665 14.5899 25.8558L14.9504 26.029ZM15.8893 25.1883C16.3013 25.0437 16.7539 25.0687 17.1476 25.2578L17.3208 24.8972C16.8315 24.6622 16.269 24.6312 15.7568 24.8109L15.8893 25.1883ZM17.1476 25.2578C17.5412 25.4469 17.8436 25.7846 17.9882 26.1966L18.3656 26.0642C18.1859 25.552 17.81 25.1323 17.3208 24.8972L17.1476 25.2578ZM17.9882 26.1966L30.5651 62.0362L30.9425 61.9038L18.3656 26.0642L17.9882 26.1966ZM30.5651 62.0363C30.6523 62.2845 30.6786 62.55 30.6421 62.8105L31.0382 62.8661C31.0836 62.5423 31.0509 62.2123 30.9425 61.9038L30.5651 62.0363ZM30.6421 62.8105C30.6055 63.071 30.507 63.319 30.3548 63.5336L30.6812 63.7649C30.8703 63.4981 30.9927 63.1899 31.0382 62.8661L30.6421 62.8105ZM30.3548 63.5336C30.2027 63.7482 30.0013 63.9232 29.7676 64.044L29.9512 64.3994C30.2417 64.2492 30.492 64.0317 30.6812 63.7649L30.3548 63.5336ZM29.7676 64.044C29.5339 64.1648 29.2746 64.2278 29.0116 64.2277L29.0115 64.6277C29.3385 64.6278 29.6607 64.5495 29.9512 64.3994L29.7676 64.044ZM29.0115 64.2277H29.0057V64.6277H29.0115V64.2277ZM51.3523 24.5977C51.0268 24.5977 50.7085 24.5012 50.4378 24.3203L50.2155 24.6529C50.552 24.8777 50.9476 24.9977 51.3523 24.9977V24.5977ZM50.4378 24.3203C50.1671 24.1394 49.9561 23.8823 49.8315 23.5815L49.4619 23.7346C49.6168 24.1085 49.8791 24.428 50.2155 24.6529L50.4378 24.3203ZM49.8315 23.5815C49.7069 23.2807 49.6743 22.9497 49.7378 22.6304L49.3455 22.5524C49.2665 22.9493 49.3071 23.3607 49.4619 23.7346L49.8315 23.5815ZM49.7378 22.6304C49.8013 22.3111 49.9581 22.0178 50.1883 21.7875L49.9055 21.5047C49.6193 21.7909 49.4244 22.1554 49.3455 22.5524L49.7378 22.6304ZM50.1883 21.7875C50.4185 21.5573 50.7119 21.4005 51.0312 21.337L50.9531 20.9447C50.5562 21.0237 50.1916 21.2185 49.9055 21.5047L50.1883 21.7875ZM51.0312 21.337C51.3505 21.2735 51.6815 21.3061 51.9823 21.4307L52.1354 21.0611C51.7615 20.9063 51.3501 20.8658 50.9531 20.9447L51.0312 21.337ZM51.9823 21.4307C52.2831 21.5553 52.5402 21.7663 52.7211 22.037L53.0536 21.8148C52.8288 21.4783 52.5093 21.216 52.1354 21.0611L51.9823 21.4307ZM52.7211 22.037C52.9019 22.3077 52.9985 22.626 52.9985 22.9516H53.3985C53.3985 22.5469 53.2785 22.1513 53.0536 21.8148L52.7211 22.037ZM52.9985 22.9516C52.9985 23.1678 52.9559 23.382 52.8731 23.5817L53.2426 23.7349C53.3455 23.4865 53.3985 23.2204 53.3985 22.9516H52.9985ZM52.8731 23.5817C52.7903 23.7815 52.6689 23.963 52.516 24.1159L52.7987 24.3989C52.9889 24.2088 53.1397 23.9832 53.2426 23.7349L52.8731 23.5817ZM52.516 24.1159C52.363 24.2688 52.1814 24.39 51.9816 24.4727L52.1345 24.8423C52.3829 24.7396 52.6086 24.5889 52.7987 24.3989L52.516 24.1159ZM51.9816 24.4727C51.7817 24.5554 51.5676 24.5978 51.3513 24.5977L51.3511 24.9977C51.6199 24.9979 51.8861 24.9451 52.1345 24.8423L51.9816 24.4727ZM51.3512 24.9977H51.3523V24.5977H51.3512V24.9977ZM51.3523 19.5462C51.0268 19.5462 50.7085 19.4496 50.4378 19.2687L50.2155 19.6013C50.552 19.8262 50.9476 19.9462 51.3523 19.9462V19.5462ZM50.4378 19.2687C50.1671 19.0879 49.9561 18.8308 49.8315 18.53L49.4619 18.683C49.6168 19.0569 49.8791 19.3765 50.2155 19.6013L50.4378 19.2687ZM49.8315 18.53C49.7069 18.2292 49.6743 17.8982 49.7378 17.5789L49.3455 17.5008C49.2665 17.8977 49.3071 18.3092 49.4619 18.683L49.8315 18.53ZM49.7378 17.5789C49.8013 17.2595 49.9581 16.9662 50.1883 16.736L49.9055 16.4532C49.6193 16.7393 49.4244 17.1039 49.3455 17.5008L49.7378 17.5789ZM50.1883 16.736C50.4185 16.5058 50.7119 16.349 51.0312 16.2855L50.9531 15.8932C50.5562 15.9721 50.1916 16.167 49.9055 16.4532L50.1883 16.736ZM51.0312 16.2855C51.3505 16.222 51.6815 16.2546 51.9823 16.3792L52.1354 16.0096C51.7615 15.8547 51.3501 15.8142 50.9531 15.8932L51.0312 16.2855ZM51.9823 16.3792C52.2831 16.5038 52.5402 16.7147 52.7211 16.9855L53.0536 16.7632C52.8288 16.4267 52.5093 16.1645 52.1354 16.0096L51.9823 16.3792ZM52.7211 16.9855C52.9019 17.2562 52.9985 17.5744 52.9985 17.9H53.3985C53.3985 17.4953 53.2785 17.0997 53.0536 16.7632L52.7211 16.9855ZM52.9985 17.9C52.9985 18.1163 52.9559 18.3304 52.8731 18.5302L53.2426 18.6833C53.3455 18.435 53.3985 18.1688 53.3985 17.9H52.9985ZM52.8731 18.5302C52.7903 18.73 52.6689 18.9115 52.516 19.0644L52.7987 19.3473C52.9889 19.1573 53.1397 18.9317 53.2426 18.6833L52.8731 18.5302ZM52.516 19.0644C52.363 19.2172 52.1814 19.3385 51.9816 19.4212L52.1345 19.7908C52.3829 19.688 52.6086 19.5373 52.7987 19.3473L52.516 19.0644ZM51.9816 19.4212C51.7817 19.5038 51.5676 19.5463 51.3513 19.5462L51.3511 19.9462C51.6199 19.9463 51.8861 19.8935 52.1345 19.7908L51.9816 19.4212ZM51.3512 19.9462H51.3523V19.5462H51.3512V19.9462ZM83.5769 28.3881C82.0021 28.3881 80.4626 27.9211 79.1532 27.0461L78.9309 27.3787C80.3061 28.2976 81.9229 28.7881 83.5769 28.7881V28.3881ZM79.1532 27.0461C77.8437 26.1711 76.8232 24.9275 76.2206 23.4726L75.851 23.6256C76.4839 25.1537 77.5557 26.4598 78.9309 27.3787L79.1532 27.0461ZM76.2206 23.4726C75.618 22.0176 75.4604 20.4166 75.7677 18.872L75.3754 18.7939C75.0526 20.4161 75.2181 22.0975 75.851 23.6256L76.2206 23.4726ZM75.7677 18.872C76.075 17.3274 76.8334 15.9087 77.9471 14.7952L77.6643 14.5123C76.4947 15.6817 75.6981 17.1718 75.3754 18.7939L75.7677 18.872ZM77.9471 14.7952C79.0608 13.6817 80.4796 12.9234 82.0242 12.6163L81.9462 12.224C80.324 12.5465 78.8339 13.3429 77.6643 14.5123L77.9471 14.7952ZM82.0242 12.6163C83.5688 12.3092 85.1698 12.4671 86.6247 13.0699L86.7778 12.7003C85.2498 12.0672 83.5684 11.9015 81.9462 12.224L82.0242 12.6163ZM86.6247 13.0699C88.0796 13.6727 89.3231 14.6934 90.1979 16.003L90.5305 15.7808C89.6118 14.4054 88.3058 13.3334 86.7778 12.7003L86.6247 13.0699ZM90.1979 16.003C91.0726 17.3125 91.5394 18.8521 91.5392 20.4269L91.9392 20.427C91.9394 18.773 91.4492 17.1561 90.5305 15.7808L90.1979 16.003ZM91.5392 20.4267C91.5368 22.5377 90.6971 24.5614 89.2043 26.054L89.4872 26.3369C91.0549 24.7694 91.9367 22.644 91.9392 20.4271L91.5392 20.4267ZM89.2043 26.054C87.7116 27.5466 85.6877 28.386 83.5767 28.3881L83.5771 28.7881C85.794 28.7859 87.9195 27.9043 89.4872 26.3369L89.2043 26.054ZM83.5769 15.7569C82.6533 15.7569 81.7504 16.0308 80.9824 16.544L81.2046 16.8765C81.9068 16.4074 82.7324 16.1569 83.5769 16.1569V15.7569ZM80.9824 16.544C80.2144 17.0571 79.6158 17.7865 79.2624 18.6398L79.6319 18.7929C79.9551 18.0126 80.5024 17.3457 81.2046 16.8765L80.9824 16.544ZM79.2624 18.6398C78.9089 19.4931 78.8164 20.4321 78.9966 21.338L79.389 21.26C79.2242 20.4317 79.3087 19.5731 79.6319 18.7929L79.2624 18.6398ZM78.9966 21.338C79.1768 22.2439 79.6216 23.076 80.2747 23.7291L80.5575 23.4463C79.9604 22.8491 79.5537 22.0883 79.389 21.26L78.9966 21.338ZM80.2747 23.7291C80.9278 24.3822 81.7599 24.827 82.6658 25.0072L82.7439 24.6149C81.9156 24.4501 81.1547 24.0434 80.5575 23.4463L80.2747 23.7291ZM82.6658 25.0072C83.5717 25.1874 84.5107 25.0949 85.364 24.7414L85.211 24.3719C84.4307 24.6951 83.5722 24.7796 82.7439 24.6149L82.6658 25.0072ZM85.364 24.7414C86.2174 24.388 86.9467 23.7894 87.4599 23.0214L87.1273 22.7992C86.6581 23.5014 85.9912 24.0487 85.211 24.3719L85.364 24.7414ZM87.4599 23.0214C87.973 22.2535 88.2469 21.3506 88.2469 20.4269H87.8469C87.8469 21.2715 87.5965 22.097 87.1273 22.7992L87.4599 23.0214ZM88.2469 20.4267C88.2456 19.1886 87.7532 18.0016 86.8777 17.1261L86.5949 17.4089C87.3955 18.2095 87.8457 19.295 87.8469 20.4271L88.2469 20.4267ZM86.8777 17.1261C86.0023 16.2506 84.8152 15.7582 83.5771 15.7569L83.5767 16.1569C84.7089 16.1581 85.7943 16.6084 86.5949 17.4089L86.8777 17.1261ZM16.4231 28.3881C14.8482 28.3883 13.3086 27.9215 11.999 27.0467L11.7768 27.3793C13.1522 28.298 14.7691 28.7883 16.4231 28.7881L16.4231 28.3881ZM11.999 27.0467C10.6894 26.1718 9.66872 24.9283 9.06593 23.4733L8.69639 23.6264C9.32946 25.1545 10.4015 26.4605 11.7768 27.3793L11.999 27.0467ZM9.06593 23.4733C8.46314 22.0184 8.30537 20.4173 8.61256 18.8727L8.22024 18.7947C7.89762 20.4169 8.06332 22.0984 8.69639 23.6264L9.06593 23.4733ZM8.61256 18.8727C8.91975 17.328 9.67811 15.9092 10.7917 14.7956L10.5089 14.5127C9.33932 15.6823 8.54286 17.1724 8.22024 18.7947L8.61256 18.8727ZM10.7917 14.7956C11.9053 13.6819 13.3242 12.9236 14.8688 12.6164L14.7908 12.2241C13.1686 12.5467 11.6784 13.3432 10.5089 14.5127L10.7917 14.7956ZM14.8688 12.6164C16.4135 12.3092 18.0145 12.467 19.4695 13.0698L19.6226 12.7002C18.0945 12.0672 16.413 11.9015 14.7908 12.2241L14.8688 12.6164ZM19.4695 13.0698C20.9245 13.6726 22.168 14.6933 23.0428 16.0028L23.3754 15.7807C22.4566 14.4053 21.1507 13.3333 19.6226 12.7002L19.4695 13.0698ZM23.0428 16.0028C23.9176 17.3124 24.3845 18.852 24.3842 20.4269L24.7842 20.427C24.7845 18.7729 24.2942 17.156 23.3754 15.7807L23.0428 16.0028ZM24.3842 20.4267C24.3819 22.5375 23.5423 24.5611 22.0498 26.0536L22.3326 26.3365C23.9 24.769 24.7817 22.6438 24.7842 20.4271L24.3842 20.4267ZM22.0498 26.0536C20.5572 27.5461 18.5336 28.3857 16.4229 28.3881L16.4233 28.7881C18.64 28.7856 20.7652 27.9039 22.3326 26.3365L22.0498 26.0536ZM16.4231 15.7569C15.4994 15.7567 14.5964 16.0304 13.8283 16.5434L14.0504 16.876C14.7528 16.4069 15.5785 16.1567 16.423 16.1569L16.4231 15.7569ZM13.8283 16.5434C13.0602 17.0564 12.4614 17.7856 12.1078 18.639L12.4773 18.7921C12.8006 18.0119 13.3481 17.3451 14.0504 16.876L13.8283 16.5434ZM12.1078 18.639C11.7541 19.4923 11.6615 20.4313 11.8415 21.3373L12.2338 21.2593C12.0692 20.4309 12.1539 19.5723 12.4773 18.7921L12.1078 18.639ZM11.8415 21.3373C12.0216 22.2432 12.4662 23.0755 13.1193 23.7287L13.4022 23.4459C12.8051 22.8486 12.3985 22.0877 12.2338 21.2593L11.8415 21.3373ZM13.1193 23.7287C13.7724 24.3819 14.6045 24.8268 15.5104 25.0071L15.5885 24.6148C14.7602 24.4499 13.9993 24.0432 13.4022 23.4459L13.1193 23.7287ZM15.5104 25.0071C16.4163 25.1874 17.3554 25.095 18.2088 24.7416L18.0557 24.372C17.2754 24.6951 16.4168 24.7796 15.5885 24.6148L15.5104 25.0071ZM18.2088 24.7416C19.0622 24.3881 19.7916 23.7896 20.3048 23.0216L19.9722 22.7993C19.503 23.5015 18.836 24.0488 18.0557 24.372L18.2088 24.7416ZM20.3048 23.0216C20.818 22.2536 21.0919 21.3506 21.0919 20.4269H20.6919C20.6919 21.2715 20.4415 22.0971 19.9722 22.7993L20.3048 23.0216ZM21.0919 20.4267C21.0903 19.1889 20.598 18.0022 19.7229 17.1268L19.44 17.4097C20.2402 18.2101 20.6905 19.2953 20.6919 20.4272L21.0919 20.4267ZM19.7229 17.1268C18.8477 16.2515 17.6612 15.7588 16.4234 15.7569L16.4228 16.1569C17.5547 16.1587 18.6397 16.6092 19.44 17.4097L19.7229 17.1268ZM33.8231 22.0731H22.7461V22.4731H33.8231V22.0731ZM22.7461 22.0731C22.3095 22.0731 21.8908 21.8997 21.5821 21.591L21.2993 21.8738C21.683 22.2575 22.2035 22.4731 22.7461 22.4731V22.0731ZM21.5821 21.591C21.2734 21.2822 21.1 20.8635 21.1 20.4269H20.7C20.7 20.9696 20.9156 21.4901 21.2993 21.8738L21.5821 21.591ZM21.1 20.4269C21.1 19.9904 21.2734 19.5717 21.5821 19.2629L21.2993 18.9801C20.9156 19.3638 20.7 19.8843 20.7 20.4269H21.1ZM21.5821 19.2629C21.8908 18.9542 22.3095 18.7808 22.7461 18.7808V18.3808C22.2035 18.3808 21.683 18.5964 21.2993 18.9801L21.5821 19.2629ZM22.7461 18.7808H33.8231V18.3808H22.7461V18.7808ZM33.8231 18.7808C34.2596 18.7808 34.6783 18.9542 34.9871 19.2629L35.2699 18.9801C34.8862 18.5964 34.3657 18.3808 33.8231 18.3808V18.7808ZM34.9871 19.2629C35.2958 19.5717 35.4692 19.9904 35.4692 20.4269H35.8692C35.8692 19.8843 35.6536 19.3638 35.2699 18.9801L34.9871 19.2629ZM35.4692 20.4269C35.4692 20.8635 35.2958 21.2822 34.9871 21.591L35.2699 21.8738C35.6536 21.4901 35.8692 20.9696 35.8692 20.4269H35.4692ZM34.9871 21.591C34.6783 21.8997 34.2596 22.0731 33.8231 22.0731V22.4731C34.3657 22.4731 34.8862 22.2575 35.2699 21.8738L34.9871 21.591ZM77.2584 22.0731H68.8804V22.4731H77.2584V22.0731ZM68.8804 22.0731C68.4438 22.0731 68.0251 21.8997 67.7164 21.591L67.4335 21.8738C67.8173 22.2575 68.3377 22.4731 68.8804 22.4731V22.0731ZM67.7164 21.591C67.4077 21.2822 67.2342 20.8635 67.2342 20.4269H66.8342C66.8342 20.9696 67.0498 21.4901 67.4335 21.8738L67.7164 21.591ZM67.2342 20.4269C67.2342 19.9904 67.4077 19.5717 67.7164 19.2629L67.4335 18.9801C67.0498 19.3638 66.8342 19.8843 66.8342 20.4269H67.2342ZM67.7164 19.2629C68.0251 18.9542 68.4438 18.7808 68.8804 18.7808V18.3808C68.3377 18.3808 67.8173 18.5964 67.4335 18.9801L67.7164 19.2629ZM68.8804 18.7808H77.2584V18.3808H68.8804V18.7808ZM77.2584 18.7808C77.695 18.7808 78.1137 18.9542 78.4225 19.2629L78.7053 18.9801C78.3216 18.5964 77.8011 18.3808 77.2584 18.3808V18.7808ZM78.4225 19.2629C78.7312 19.5717 78.9046 19.9904 78.9046 20.4269H79.3046C79.3046 19.8843 79.089 19.3638 78.7053 18.9801L78.4225 19.2629ZM78.9046 20.4269C78.9046 20.8635 78.7312 21.2822 78.4225 21.591L78.7053 21.8738C79.089 21.4901 79.3046 20.9696 79.3046 20.4269H78.9046ZM78.4225 21.591C78.1137 21.8997 77.695 22.0731 77.2584 22.0731V22.4731C77.8011 22.4731 78.3216 22.2575 78.7053 21.8738L78.4225 21.591Z" fill="black" mask="url(#path-1-outside-1_257_8305)"/>
</svg>
