<svg width="100" height="100" viewBox="0 0 100 100" fill="none" xmlns="http://www.w3.org/2000/svg">
<circle cx="56.3999" cy="56.3999" r="24" fill="#00B0FB" fill-opacity="0.5"/>
<path d="M30.7999 19.6001C30.7998 20.0244 30.6311 20.4313 30.3311 20.7313L26.6626 24.3999L94.7998 24.3999L94.8002 16.3999C94.8002 15.9756 94.6316 15.5687 94.3316 15.2687C94.0315 14.9686 93.6246 14.8 93.2003 14.8H30.8003L30.7999 19.6001Z" fill="#00B0FB" fill-opacity="0.5"/>
<path d="M26.6113 94.7999L27.6001 92.8223L27.6001 81.0623L21.669 75.1312C21.3689 74.8312 21.2003 74.4243 21.2002 74V26.0001C21.2003 25.5758 21.3689 25.1687 21.6689 24.8687L27.6001 18.9377L27.6001 7.17755L26.6111 5.19995H25.3887L24.3999 7.17773L24.4 13.2C24.4001 13.4973 24.3174 13.7888 24.1611 14.0417C24.0048 14.2947 23.7812 14.4992 23.5152 14.6321L17.1151 17.832C16.893 17.943 16.6485 18.0008 16.4003 18.0008C16.152 18.0008 15.9067 17.9431 15.6847 17.8321L9.2851 14.632C9.01912 14.4991 8.79505 14.2947 8.63877 14.0417C8.48248 13.7888 8.39976 13.4975 8.3999 13.2001L8.39993 7.17755L7.41136 5.19995H6.18899L5.2002 7.17773V18.9375L11.1313 24.8689C11.4314 25.1689 11.6 25.5757 11.6001 26L11.6001 74C11.6001 74.4243 11.4315 74.8311 11.1314 75.1311L5.2002 81.0625V92.8223L6.18896 94.8L7.41113 94.7999L8.3999 92.8224L8.39993 86.8C8.3983 86.5013 8.48035 86.208 8.63672 85.9535C8.79309 85.699 9.01748 85.4934 9.28467 85.3599L15.6851 82.16C15.9071 82.049 16.1516 81.9912 16.3999 81.9912C16.6482 81.9912 16.8932 82.0489 17.1152 82.1599L23.5151 85.3599C23.7823 85.4934 24.0072 85.6991 24.1636 85.9536C24.3199 86.2081 24.4015 86.5014 24.3999 86.8V92.8223L25.3887 94.8L26.6113 94.7999Z" fill="#00B0FB"/>
<path d="M23.3999 28.6001H93.7999L93.7998 84.6001" stroke="#00B0FB" stroke-width="2"/>
<mask id="path-5-outside-1_255_8255" maskUnits="userSpaceOnUse" x="1" y="1" width="98" height="98" fill="black">
<rect fill="white" x="1" y="1" width="98" height="98"/>
<path d="M93.2001 11.6H30.8001V6.80002C30.8003 6.55182 30.7428 6.30696 30.6321 6.08482L29.0321 2.88482C28.8992 2.61885 28.6948 2.39517 28.4418 2.23889C28.1889 2.0826 27.8974 1.99989 27.6001 2.00002H24.4001C24.1028 1.99989 23.8113 2.0826 23.5583 2.23889C23.3054 2.39517 23.101 2.61885 22.9681 2.88482L21.3681 6.08482C21.2574 6.30696 21.1999 6.55182 21.2001 6.80002V12.2112L16.4001 14.6112L11.6001 12.2112V6.80002C11.6028 6.55245 11.548 6.30763 11.4401 6.08482L9.84009 2.88482C9.70658 2.61763 9.50094 2.39315 9.24645 2.23677C8.99196 2.0804 8.69878 1.99839 8.40009 2.00002H5.20009C4.90276 1.99989 4.61128 2.0826 4.35833 2.23889C4.10539 2.39517 3.901 2.61885 3.7681 2.88482L2.1681 6.08482C2.05738 6.30696 1.99986 6.55182 2.0001 6.80002V19.6C2.00019 20.0243 2.16882 20.4312 2.4689 20.7312L8.40009 26.6624V73.3376L2.4689 79.2688C2.16882 79.5688 2.00019 79.9757 2.0001 80.4V93.2C1.99738 93.4475 2.05215 93.6924 2.1601 93.9152L3.7601 97.1152C3.89361 97.3824 4.09925 97.6069 4.35374 97.7632C4.60823 97.9196 4.90141 98.0016 5.20009 98H8.40009C8.69742 98.0001 8.98891 97.9174 9.24185 97.7611C9.4948 97.6048 9.69919 97.3811 9.83209 97.1152L11.4321 93.9152C11.5428 93.693 11.6003 93.4482 11.6001 93.2V87.7888L16.4001 85.3888L21.2001 87.7888V93.2C21.1999 93.4482 21.2574 93.693 21.3681 93.9152L22.9681 97.1152C23.101 97.3811 23.3054 97.6048 23.5583 97.7611C23.8113 97.9174 24.1028 98.0001 24.4001 98H27.6001C27.8974 98.0001 28.1889 97.9174 28.4418 97.7611C28.6948 97.6048 28.8992 97.3811 29.0321 97.1152L30.6321 93.9152C30.7428 93.693 30.8003 93.4482 30.8001 93.2V88.4H93.2001C94.4731 88.4 95.694 87.8943 96.5942 86.9941C97.4943 86.0939 98 84.873 98 83.6V16.4C98 15.127 97.4943 13.9061 96.5942 13.0059C95.694 12.1057 94.4731 11.6 93.2001 11.6ZM30.3313 20.7312C30.6314 20.4312 30.8 20.0243 30.8001 19.6V14.8H93.2001C93.6244 14.8 94.0314 14.9686 94.3314 15.2686C94.6315 15.5687 94.8 15.9757 94.8 16.4V24.4H26.6625L30.3313 20.7312ZM27.6001 92.8224L26.6113 94.8H25.3889L24.4001 92.8224V86.8C24.4017 86.5013 24.3197 86.2081 24.1633 85.9536C24.007 85.6991 23.7825 85.4935 23.5153 85.36L17.1153 82.16C16.8932 82.049 16.6484 81.9912 16.4001 81.9912C16.1518 81.9912 15.907 82.049 15.6849 82.16L9.28489 85.36C9.0177 85.4935 8.79321 85.6991 8.63684 85.9536C8.48047 86.2081 8.39846 86.5013 8.40009 86.8V92.8224L7.41129 94.8H6.18889L5.20009 92.8224V81.0624L11.1313 75.1312C11.4314 74.8312 11.6 74.4243 11.6001 74V26C11.6 25.5757 11.4314 25.1688 11.1313 24.8688L5.20009 18.9376V7.17762L6.18889 5.20002H7.41129L8.40009 7.17762V13.2C8.39996 13.4973 8.48267 13.7888 8.63896 14.0418C8.79524 14.2947 9.01892 14.4991 9.28489 14.632L15.6849 17.832C15.907 17.943 16.1518 18.0008 16.4001 18.0008C16.6484 18.0008 16.8932 17.943 17.1153 17.832L23.5153 14.632C23.7813 14.4991 24.0049 14.2947 24.1612 14.0418C24.3175 13.7888 24.4002 13.4973 24.4001 13.2V7.17762L25.3889 5.20002H26.6113L27.6001 7.17762V18.9376L21.6689 24.8688C21.3688 25.1688 21.2002 25.5757 21.2001 26V74C21.2002 74.4243 21.3688 74.8312 21.6689 75.1312L27.6001 81.0624V92.8224ZM93.2001 85.2H30.8001V80.4C30.8 79.9757 30.6314 79.5688 30.3313 79.2688L24.4001 73.3376V27.6H94.8V83.6C94.8 84.0243 94.6315 84.4313 94.3314 84.7314C94.0314 85.0314 93.6244 85.2 93.2001 85.2Z"/>
</mask>
<path d="M93.2001 11.6H30.8001V6.80002C30.8003 6.55182 30.7428 6.30696 30.6321 6.08482L29.0321 2.88482C28.8992 2.61885 28.6948 2.39517 28.4418 2.23889C28.1889 2.0826 27.8974 1.99989 27.6001 2.00002H24.4001C24.1028 1.99989 23.8113 2.0826 23.5583 2.23889C23.3054 2.39517 23.101 2.61885 22.9681 2.88482L21.3681 6.08482C21.2574 6.30696 21.1999 6.55182 21.2001 6.80002V12.2112L16.4001 14.6112L11.6001 12.2112V6.80002C11.6028 6.55245 11.548 6.30763 11.4401 6.08482L9.84009 2.88482C9.70658 2.61763 9.50094 2.39315 9.24645 2.23677C8.99196 2.0804 8.69878 1.99839 8.40009 2.00002H5.20009C4.90276 1.99989 4.61128 2.0826 4.35833 2.23889C4.10539 2.39517 3.901 2.61885 3.7681 2.88482L2.1681 6.08482C2.05738 6.30696 1.99986 6.55182 2.0001 6.80002V19.6C2.00019 20.0243 2.16882 20.4312 2.4689 20.7312L8.40009 26.6624V73.3376L2.4689 79.2688C2.16882 79.5688 2.00019 79.9757 2.0001 80.4V93.2C1.99738 93.4475 2.05215 93.6924 2.1601 93.9152L3.7601 97.1152C3.89361 97.3824 4.09925 97.6069 4.35374 97.7632C4.60823 97.9196 4.90141 98.0016 5.20009 98H8.40009C8.69742 98.0001 8.98891 97.9174 9.24185 97.7611C9.4948 97.6048 9.69919 97.3811 9.83209 97.1152L11.4321 93.9152C11.5428 93.693 11.6003 93.4482 11.6001 93.2V87.7888L16.4001 85.3888L21.2001 87.7888V93.2C21.1999 93.4482 21.2574 93.693 21.3681 93.9152L22.9681 97.1152C23.101 97.3811 23.3054 97.6048 23.5583 97.7611C23.8113 97.9174 24.1028 98.0001 24.4001 98H27.6001C27.8974 98.0001 28.1889 97.9174 28.4418 97.7611C28.6948 97.6048 28.8992 97.3811 29.0321 97.1152L30.6321 93.9152C30.7428 93.693 30.8003 93.4482 30.8001 93.2V88.4H93.2001C94.4731 88.4 95.694 87.8943 96.5942 86.9941C97.4943 86.0939 98 84.873 98 83.6V16.4C98 15.127 97.4943 13.9061 96.5942 13.0059C95.694 12.1057 94.4731 11.6 93.2001 11.6ZM30.3313 20.7312C30.6314 20.4312 30.8 20.0243 30.8001 19.6V14.8H93.2001C93.6244 14.8 94.0314 14.9686 94.3314 15.2686C94.6315 15.5687 94.8 15.9757 94.8 16.4V24.4H26.6625L30.3313 20.7312ZM27.6001 92.8224L26.6113 94.8H25.3889L24.4001 92.8224V86.8C24.4017 86.5013 24.3197 86.2081 24.1633 85.9536C24.007 85.6991 23.7825 85.4935 23.5153 85.36L17.1153 82.16C16.8932 82.049 16.6484 81.9912 16.4001 81.9912C16.1518 81.9912 15.907 82.049 15.6849 82.16L9.28489 85.36C9.0177 85.4935 8.79321 85.6991 8.63684 85.9536C8.48047 86.2081 8.39846 86.5013 8.40009 86.8V92.8224L7.41129 94.8H6.18889L5.20009 92.8224V81.0624L11.1313 75.1312C11.4314 74.8312 11.6 74.4243 11.6001 74V26C11.6 25.5757 11.4314 25.1688 11.1313 24.8688L5.20009 18.9376V7.17762L6.18889 5.20002H7.41129L8.40009 7.17762V13.2C8.39996 13.4973 8.48267 13.7888 8.63896 14.0418C8.79524 14.2947 9.01892 14.4991 9.28489 14.632L15.6849 17.832C15.907 17.943 16.1518 18.0008 16.4001 18.0008C16.6484 18.0008 16.8932 17.943 17.1153 17.832L23.5153 14.632C23.7813 14.4991 24.0049 14.2947 24.1612 14.0418C24.3175 13.7888 24.4002 13.4973 24.4001 13.2V7.17762L25.3889 5.20002H26.6113L27.6001 7.17762V18.9376L21.6689 24.8688C21.3688 25.1688 21.2002 25.5757 21.2001 26V74C21.2002 74.4243 21.3688 74.8312 21.6689 75.1312L27.6001 81.0624V92.8224ZM93.2001 85.2H30.8001V80.4C30.8 79.9757 30.6314 79.5688 30.3313 79.2688L24.4001 73.3376V27.6H94.8V83.6C94.8 84.0243 94.6315 84.4313 94.3314 84.7314C94.0314 85.0314 93.6244 85.2 93.2001 85.2Z" fill="black"/>
<path d="M93.2001 11.6H30.8001V6.80002C30.8003 6.55182 30.7428 6.30696 30.6321 6.08482L29.0321 2.88482C28.8992 2.61885 28.6948 2.39517 28.4418 2.23889C28.1889 2.0826 27.8974 1.99989 27.6001 2.00002H24.4001C24.1028 1.99989 23.8113 2.0826 23.5583 2.23889C23.3054 2.39517 23.101 2.61885 22.9681 2.88482L21.3681 6.08482C21.2574 6.30696 21.1999 6.55182 21.2001 6.80002V12.2112L16.4001 14.6112L11.6001 12.2112V6.80002C11.6028 6.55245 11.548 6.30763 11.4401 6.08482L9.84009 2.88482C9.70658 2.61763 9.50094 2.39315 9.24645 2.23677C8.99196 2.0804 8.69878 1.99839 8.40009 2.00002H5.20009C4.90276 1.99989 4.61128 2.0826 4.35833 2.23889C4.10539 2.39517 3.901 2.61885 3.7681 2.88482L2.1681 6.08482C2.05738 6.30696 1.99986 6.55182 2.0001 6.80002V19.6C2.00019 20.0243 2.16882 20.4312 2.4689 20.7312L8.40009 26.6624V73.3376L2.4689 79.2688C2.16882 79.5688 2.00019 79.9757 2.0001 80.4V93.2C1.99738 93.4475 2.05215 93.6924 2.1601 93.9152L3.7601 97.1152C3.89361 97.3824 4.09925 97.6069 4.35374 97.7632C4.60823 97.9196 4.90141 98.0016 5.20009 98H8.40009C8.69742 98.0001 8.98891 97.9174 9.24185 97.7611C9.4948 97.6048 9.69919 97.3811 9.83209 97.1152L11.4321 93.9152C11.5428 93.693 11.6003 93.4482 11.6001 93.2V87.7888L16.4001 85.3888L21.2001 87.7888V93.2C21.1999 93.4482 21.2574 93.693 21.3681 93.9152L22.9681 97.1152C23.101 97.3811 23.3054 97.6048 23.5583 97.7611C23.8113 97.9174 24.1028 98.0001 24.4001 98H27.6001C27.8974 98.0001 28.1889 97.9174 28.4418 97.7611C28.6948 97.6048 28.8992 97.3811 29.0321 97.1152L30.6321 93.9152C30.7428 93.693 30.8003 93.4482 30.8001 93.2V88.4H93.2001C94.4731 88.4 95.694 87.8943 96.5942 86.9941C97.4943 86.0939 98 84.873 98 83.6V16.4C98 15.127 97.4943 13.9061 96.5942 13.0059C95.694 12.1057 94.4731 11.6 93.2001 11.6ZM30.3313 20.7312C30.6314 20.4312 30.8 20.0243 30.8001 19.6V14.8H93.2001C93.6244 14.8 94.0314 14.9686 94.3314 15.2686C94.6315 15.5687 94.8 15.9757 94.8 16.4V24.4H26.6625L30.3313 20.7312ZM27.6001 92.8224L26.6113 94.8H25.3889L24.4001 92.8224V86.8C24.4017 86.5013 24.3197 86.2081 24.1633 85.9536C24.007 85.6991 23.7825 85.4935 23.5153 85.36L17.1153 82.16C16.8932 82.049 16.6484 81.9912 16.4001 81.9912C16.1518 81.9912 15.907 82.049 15.6849 82.16L9.28489 85.36C9.0177 85.4935 8.79321 85.6991 8.63684 85.9536C8.48047 86.2081 8.39846 86.5013 8.40009 86.8V92.8224L7.41129 94.8H6.18889L5.20009 92.8224V81.0624L11.1313 75.1312C11.4314 74.8312 11.6 74.4243 11.6001 74V26C11.6 25.5757 11.4314 25.1688 11.1313 24.8688L5.20009 18.9376V7.17762L6.18889 5.20002H7.41129L8.40009 7.17762V13.2C8.39996 13.4973 8.48267 13.7888 8.63896 14.0418C8.79524 14.2947 9.01892 14.4991 9.28489 14.632L15.6849 17.832C15.907 17.943 16.1518 18.0008 16.4001 18.0008C16.6484 18.0008 16.8932 17.943 17.1153 17.832L23.5153 14.632C23.7813 14.4991 24.0049 14.2947 24.1612 14.0418C24.3175 13.7888 24.4002 13.4973 24.4001 13.2V7.17762L25.3889 5.20002H26.6113L27.6001 7.17762V18.9376L21.6689 24.8688C21.3688 25.1688 21.2002 25.5757 21.2001 26V74C21.2002 74.4243 21.3688 74.8312 21.6689 75.1312L27.6001 81.0624V92.8224ZM93.2001 85.2H30.8001V80.4C30.8 79.9757 30.6314 79.5688 30.3313 79.2688L24.4001 73.3376V27.6H94.8V83.6C94.8 84.0243 94.6315 84.4313 94.3314 84.7314C94.0314 85.0314 93.6244 85.2 93.2001 85.2Z" stroke="black" mask="url(#path-5-outside-1_255_8255)"/>
<path d="M75.5999 18H72.3999V21.2H75.5999V18Z" fill="black"/>
<path d="M81.9998 18H78.7998V21.2H81.9998V18Z" fill="black"/>
<path d="M88.4002 18H85.2002V21.2H88.4002V18Z" fill="black"/>
<path d="M54.3315 64.2064L67.9075 50.6304C68.0562 50.4818 68.1744 50.3055 68.2549 50.1114C68.3354 49.9173 68.3764 49.7091 68.3765 49.4989C68.3766 49.2888 68.3353 49.0807 68.2549 48.8865C68.1746 48.6923 68.0568 48.516 67.9082 48.3674C67.7597 48.2187 67.5834 48.1007 67.3892 48.0202C67.1951 47.9397 66.9872 47.8983 66.777 47.8982C66.5669 47.8981 66.3585 47.9394 66.1643 48.0198C65.9701 48.1001 65.7938 48.2179 65.6451 48.3665L54.3314 59.6799C54.0314 59.9799 53.6248 60.1484 53.2005 60.1484C52.7763 60.1484 52.3694 59.9799 52.0694 59.68L48.6754 56.2865C48.3754 55.9863 47.9688 55.8175 47.5444 55.8174C47.1199 55.8172 46.7127 55.9856 46.4125 56.2856C46.1123 56.5857 45.9435 56.9926 45.9434 57.417C45.9432 57.8414 46.1116 58.2486 46.4116 58.5488L52.0693 64.2065C52.3694 64.5065 52.7759 64.675 53.2002 64.675C53.6245 64.675 54.0315 64.5063 54.3315 64.2064Z" fill="#00B0FB"/>
<path d="M63.3828 46.104L53.2004 56.2864L50.938 54.0224C50.0377 53.1222 48.8167 52.6164 47.5436 52.6164C46.2704 52.6164 45.0494 53.1222 44.1492 54.0224C43.2489 54.9227 42.7432 56.1437 42.7432 57.4168C42.7432 58.69 43.2489 59.911 44.1492 60.8112L49.8068 66.4688C50.7069 67.3687 51.9276 67.8742 53.2004 67.8742C54.4732 67.8742 55.6938 67.3687 56.594 66.4688L70.17 52.8928C71.0581 51.9903 71.5537 50.7734 71.5487 49.5071C71.5437 48.2408 71.0385 47.0279 70.1432 46.1324C69.2479 45.2369 68.0351 44.7314 66.7688 44.7261C65.5026 44.7208 64.2855 45.2161 63.3828 46.104ZM67.9076 50.6304L54.3316 64.2064C54.0315 64.5064 53.6246 64.6749 53.2004 64.6749C52.7761 64.6749 52.3692 64.5064 52.0692 64.2064L46.4116 58.5488C46.1116 58.2486 45.9431 57.8415 45.9432 57.4171C45.9434 56.9926 46.1121 56.5856 46.4124 56.2856C46.7126 55.9856 47.1197 55.8172 47.5441 55.8173C47.9686 55.8175 48.3756 55.9862 48.6756 56.2864L52.0692 59.68C52.3692 59.98 52.7761 60.1485 53.2004 60.1485C53.6246 60.1485 54.0315 59.98 54.3316 59.68L65.6452 48.3664C65.7938 48.2179 65.9703 48.1001 66.1645 48.0197C66.3587 47.9394 66.5668 47.898 66.7769 47.8981C66.9871 47.8982 67.1952 47.9397 67.3893 48.0201C67.5834 48.1006 67.7598 48.2186 67.9084 48.3672C68.0569 48.5159 68.1747 48.6924 68.2551 48.8865C68.3354 49.0807 68.3768 49.2888 68.3767 49.499C68.3766 49.7092 68.3351 49.9172 68.2546 50.1114C68.1742 50.3055 68.0562 50.4819 67.9076 50.6304Z" fill="black"/>
<path d="M56.3999 32.3999C51.6532 32.3999 47.013 33.8075 43.0662 36.4446C39.1194 39.0818 36.0433 42.8301 34.2268 47.2155C32.4103 51.6009 31.935 56.4265 32.8611 61.0821C33.7871 65.7376 36.0729 70.014 39.4293 73.3704C42.7858 76.7269 47.0622 79.0127 51.7177 79.9387C56.3733 80.8648 61.1989 80.3895 65.5843 78.573C69.9697 76.7565 73.718 73.6803 76.3552 69.7336C78.9923 65.7868 80.3999 61.1466 80.3999 56.3999C80.3927 50.0369 77.8618 43.9366 73.3625 39.4373C68.8632 34.938 62.7629 32.4071 56.3999 32.3999ZM56.3999 77.1999C52.2861 77.1999 48.2646 75.98 44.844 73.6945C41.4235 71.4089 38.7575 68.1604 37.1832 64.3597C35.6089 60.559 35.197 56.3768 35.9996 52.342C36.8022 48.3072 38.7832 44.601 41.6921 41.6921C44.601 38.7831 48.3072 36.8021 52.342 35.9996C56.3768 35.197 60.559 35.6089 64.3597 37.1832C68.1604 38.7575 71.4089 41.4235 73.6945 44.844C75.98 48.2646 77.1999 52.286 77.1999 56.3999C77.1935 61.9144 75.0001 67.2013 71.1007 71.1007C67.2013 75.0001 61.9144 77.1935 56.3999 77.1999Z" fill="black"/>
</svg>
