<svg width="100" height="100" viewBox="0 0 100 100" fill="none" xmlns="http://www.w3.org/2000/svg">
<path d="M59.3867 56.8801C61.3382 58.8316 62.686 61.3929 63.121 64.2524H36.8789C37.3139 61.3929 38.6618 58.8318 40.6133 56.8803C43.0129 54.4807 46.3334 52.9939 49.9988 52.9939C53.6213 52.9939 56.9052 54.4415 59.2988 56.7864L59.3867 56.8801Z" fill="#00B0FB" fill-opacity="0.5"/>
<path d="M49.999 35.7451C51.8258 35.7451 53.4801 36.4856 54.6746 37.68L54.7625 37.762C55.9046 38.9505 56.6094 40.5703 56.6094 42.3555C56.6094 44.1822 55.8692 45.8368 54.6747 47.0312L54.5902 47.1213C53.4065 48.2635 51.7877 48.9673 49.999 48.9673C48.1676 48.9673 46.5132 48.229 45.3236 47.031C44.1291 45.8366 43.3887 44.1824 43.3887 42.3556C43.3887 40.5277 44.1278 38.8721 45.3198 37.6764C46.5155 36.4844 48.1711 35.7451 49.999 35.7451Z" fill="#00B0FB"/>
<path d="M90.3889 47.9856H83.542C83.0404 39.5116 79.3953 31.8766 73.7582 26.2408C68.1211 20.6037 60.4886 16.9584 52.0122 16.4568V9.60986C62.3795 10.1185 71.7209 14.5293 78.5952 21.4036C85.4695 28.2779 89.8803 37.6183 90.3889 47.9856Z" fill="#00B0FB"/>
<path d="M47.9856 9.60986C37.6195 10.1185 28.2779 14.5291 21.4036 21.4034C14.5293 28.2777 10.1185 37.6195 9.60986 47.9856" stroke="#00B0FB" stroke-width="2"/>
<path d="M9.60986 52.0122H16.4568C16.9584 60.4886 20.6037 68.121 26.2407 73.7581C31.8766 79.3951 39.5116 83.0404 47.9856 83.542L47.9856 90.3887C37.6183 89.88 28.2777 85.4697 21.4034 78.5954C14.5291 71.7211 10.1185 62.3795 9.60986 52.0122Z" fill="#00B0FB"/>
<path d="M52.0122 90.3887C62.3795 89.88 71.7211 85.4695 78.5954 78.5952C85.4697 71.7209 89.88 62.3795 90.3887 52.0122" stroke="#00B0FB" stroke-width="2"/>
<path d="M52.0121 5.57858C63.4895 6.08963 73.8366 10.9542 81.4406 18.5582C89.0446 26.1622 93.9092 36.5093 94.4202 47.9855H95.9867C97.0979 47.9855 98 48.8876 98 49.9988C98 51.1101 97.0979 52.0121 95.9867 52.0121H94.4202C93.9092 63.4895 89.0446 73.8366 81.4406 81.4406C73.8366 89.0446 63.4895 93.9092 52.0121 94.4202V95.9867C52.0121 97.0979 51.1101 98 49.9988 98C48.8876 98 47.9855 97.0979 47.9855 95.9867V94.4202C36.5093 93.9092 26.1622 89.0446 18.5582 81.4406C10.9542 73.8366 6.08963 63.4895 5.57858 52.0121H4.01332C2.90207 52.0121 2 51.1101 2 49.9988C2 48.8876 2.90207 47.9855 4.01332 47.9855H5.57858C6.08963 36.5093 10.9542 26.1622 18.5582 18.5582C26.1622 10.9542 36.5093 6.08963 47.9855 5.57858V4.01332C47.9855 2.90207 48.8876 2 49.9988 2C51.1101 2 52.0121 2.90207 52.0121 4.01332V5.57858ZM63.121 64.2525C62.6861 61.393 61.3383 58.8318 59.3868 56.8802L59.2988 56.7863C56.9052 54.4414 53.6214 52.9938 49.9988 52.9938C46.3335 52.9938 43.0128 54.4807 40.6132 56.8802C38.6617 58.8318 37.3139 61.393 36.8789 64.2525H63.121ZM62.2321 54.035C65.3614 57.1643 67.2998 61.4916 67.2998 66.2658C67.2998 67.3771 66.3978 68.2792 65.2865 68.2792H34.7135C33.6022 68.2792 32.7002 67.3771 32.7002 66.2658C32.7002 61.4916 34.6386 57.1643 37.7679 54.035C39.2821 52.5208 41.0755 51.286 43.0651 50.4148C42.8642 50.2413 42.6693 50.0606 42.4815 49.8728C40.5538 47.9522 39.3617 45.2912 39.3617 42.3556C39.3617 39.4259 40.5538 36.7672 42.478 34.8419C44.4105 32.9105 47.0692 31.7185 49.9988 31.7185C52.9344 31.7185 55.5955 32.9105 57.5196 34.8347L57.6278 34.9524C59.489 36.8683 60.6359 39.4818 60.6359 42.3556C60.6359 45.2912 59.4438 47.9522 57.5196 49.8764L57.402 49.9857C57.2499 50.1343 57.093 50.2769 56.9313 50.416C58.8722 51.2669 60.6264 52.4638 62.118 53.9292L62.2321 54.035ZM54.6744 37.68C53.4799 36.4856 51.8255 35.7451 49.9988 35.7451C48.1709 35.7451 46.5153 36.4844 45.3197 37.6764C44.1276 38.8721 43.3884 40.5276 43.3884 42.3556C43.3884 44.1823 44.1288 45.8367 45.3232 47.0311C46.5129 48.2291 48.1673 48.9672 49.9988 48.9672C51.7875 48.9672 53.4062 48.2636 54.59 47.1214L54.6744 47.0311C55.8688 45.8367 56.6093 44.1823 56.6093 42.3556C56.6093 40.5704 55.9045 38.9505 54.7623 37.762L54.6744 37.68ZM77.3902 52.0121C76.2789 52.0121 75.3769 51.1101 75.3769 49.9988C75.3769 48.8876 76.2789 47.9855 77.3902 47.9855H79.5057C79.0113 40.6203 75.8202 33.9921 70.9129 29.0859C66.0055 24.1786 59.3785 20.9875 52.0121 20.4931V22.6098C52.0121 23.7211 51.1101 24.6231 49.9988 24.6231C48.8876 24.6231 47.9855 23.7211 47.9855 22.6098V20.4931C40.6203 20.9875 33.9921 24.1786 29.0848 29.0848C24.1786 33.9921 20.9875 40.6203 20.4931 47.9855H22.6098C23.7211 47.9855 24.6231 48.8876 24.6231 49.9988C24.6231 51.1101 23.7211 52.0121 22.6098 52.0121H20.4931C20.9875 59.3785 24.1786 66.0055 29.0859 70.9129C33.9921 75.8202 40.6203 79.0113 47.9855 79.5057V77.3902C47.9855 76.2789 48.8876 75.3769 49.9988 75.3769C51.1101 75.3769 52.0121 76.2789 52.0121 77.3902V79.5057C59.3785 79.0113 66.0055 75.8202 70.9129 70.9129C75.8202 66.0055 79.0113 59.3785 79.5057 52.0121H77.3902ZM83.5419 47.9855H90.3888C89.8802 37.6182 85.4696 28.2778 78.5953 21.4035C71.721 14.5292 62.3794 10.1187 52.0121 9.60997V16.4569C60.4885 16.9585 68.1211 20.6036 73.7581 26.2407C79.3952 31.8765 83.0403 39.5115 83.5419 47.9855ZM90.3888 52.0121H83.5419C83.0403 60.4885 79.3952 68.1211 73.7581 73.7581C68.1211 79.3952 60.4885 83.0403 52.0121 83.5419V90.3888C62.3794 89.8802 71.721 85.4696 78.5953 78.5953C85.4696 71.721 89.8802 62.3794 90.3888 52.0121ZM9.60997 47.9855H16.4569C16.9585 39.5115 20.6036 31.8765 26.2395 26.2395C31.8765 20.6036 39.5115 16.9585 47.9855 16.4569V9.60997C37.6194 10.1187 28.2778 14.5292 21.4035 21.4035C14.5292 28.2778 10.1187 37.6194 9.60997 47.9855ZM16.4569 52.0121H9.60997C10.1187 62.3794 14.5292 71.721 21.4035 78.5953C28.2778 85.4696 37.6182 89.8802 47.9855 90.3888V83.5419C39.5115 83.0403 31.8765 79.3952 26.2407 73.7581C20.6036 68.1211 16.9585 60.4885 16.4569 52.0121Z" fill="black"/>
<path d="M52.0121 5.57858C63.4895 6.08963 73.8366 10.9542 81.4406 18.5582C89.0446 26.1622 93.9092 36.5093 94.4202 47.9855H95.9867C97.0979 47.9855 98 48.8876 98 49.9988C98 51.1101 97.0979 52.0121 95.9867 52.0121H94.4202C93.9092 63.4895 89.0446 73.8366 81.4406 81.4406C73.8366 89.0446 63.4895 93.9092 52.0121 94.4202V95.9867C52.0121 97.0979 51.1101 98 49.9988 98C48.8876 98 47.9855 97.0979 47.9855 95.9867V94.4202C36.5093 93.9092 26.1622 89.0446 18.5582 81.4406C10.9542 73.8366 6.08963 63.4895 5.57858 52.0121H4.01332C2.90207 52.0121 2 51.1101 2 49.9988C2 48.8876 2.90207 47.9855 4.01332 47.9855H5.57858C6.08963 36.5093 10.9542 26.1622 18.5582 18.5582C26.1622 10.9542 36.5093 6.08963 47.9855 5.57858V4.01332C47.9855 2.90207 48.8876 2 49.9988 2C51.1101 2 52.0121 2.90207 52.0121 4.01332V5.57858ZM63.121 64.2525C62.6861 61.393 61.3383 58.8318 59.3868 56.8802L59.2988 56.7863C56.9052 54.4414 53.6214 52.9938 49.9988 52.9938C46.3335 52.9938 43.0128 54.4807 40.6132 56.8802C38.6617 58.8318 37.3139 61.393 36.8789 64.2525H63.121ZM62.2321 54.035C65.3614 57.1643 67.2998 61.4916 67.2998 66.2658C67.2998 67.3771 66.3978 68.2792 65.2865 68.2792H34.7135C33.6022 68.2792 32.7002 67.3771 32.7002 66.2658C32.7002 61.4916 34.6386 57.1643 37.7679 54.035C39.2821 52.5208 41.0755 51.286 43.0651 50.4148C42.8642 50.2413 42.6693 50.0606 42.4815 49.8728C40.5538 47.9522 39.3617 45.2912 39.3617 42.3556C39.3617 39.4259 40.5538 36.7672 42.478 34.8419C44.4105 32.9105 47.0692 31.7185 49.9988 31.7185C52.9344 31.7185 55.5955 32.9105 57.5196 34.8347L57.6278 34.9524C59.489 36.8683 60.6359 39.4818 60.6359 42.3556C60.6359 45.2912 59.4438 47.9522 57.5196 49.8764L57.402 49.9857C57.2499 50.1343 57.093 50.2769 56.9313 50.416C58.8722 51.2669 60.6264 52.4638 62.118 53.9292L62.2321 54.035ZM54.6744 37.68C53.4799 36.4856 51.8255 35.7451 49.9988 35.7451C48.1709 35.7451 46.5153 36.4844 45.3197 37.6764C44.1276 38.8721 43.3884 40.5276 43.3884 42.3556C43.3884 44.1823 44.1288 45.8367 45.3232 47.0311C46.5129 48.2291 48.1673 48.9672 49.9988 48.9672C51.7875 48.9672 53.4062 48.2636 54.59 47.1214L54.6744 47.0311C55.8688 45.8367 56.6093 44.1823 56.6093 42.3556C56.6093 40.5704 55.9045 38.9505 54.7623 37.762L54.6744 37.68ZM77.3902 52.0121C76.2789 52.0121 75.3769 51.1101 75.3769 49.9988C75.3769 48.8876 76.2789 47.9855 77.3902 47.9855H79.5057C79.0113 40.6203 75.8202 33.9921 70.9129 29.0859C66.0055 24.1786 59.3785 20.9875 52.0121 20.4931V22.6098C52.0121 23.7211 51.1101 24.6231 49.9988 24.6231C48.8876 24.6231 47.9855 23.7211 47.9855 22.6098V20.4931C40.6203 20.9875 33.9921 24.1786 29.0848 29.0848C24.1786 33.9921 20.9875 40.6203 20.4931 47.9855H22.6098C23.7211 47.9855 24.6231 48.8876 24.6231 49.9988C24.6231 51.1101 23.7211 52.0121 22.6098 52.0121H20.4931C20.9875 59.3785 24.1786 66.0055 29.0859 70.9129C33.9921 75.8202 40.6203 79.0113 47.9855 79.5057V77.3902C47.9855 76.2789 48.8876 75.3769 49.9988 75.3769C51.1101 75.3769 52.0121 76.2789 52.0121 77.3902V79.5057C59.3785 79.0113 66.0055 75.8202 70.9129 70.9129C75.8202 66.0055 79.0113 59.3785 79.5057 52.0121H77.3902ZM83.5419 47.9855H90.3888C89.8802 37.6182 85.4696 28.2778 78.5953 21.4035C71.721 14.5292 62.3794 10.1187 52.0121 9.60997V16.4569C60.4885 16.9585 68.1211 20.6036 73.7581 26.2407C79.3952 31.8765 83.0403 39.5115 83.5419 47.9855ZM90.3888 52.0121H83.5419C83.0403 60.4885 79.3952 68.1211 73.7581 73.7581C68.1211 79.3952 60.4885 83.0403 52.0121 83.5419V90.3888C62.3794 89.8802 71.721 85.4696 78.5953 78.5953C85.4696 71.721 89.8802 62.3794 90.3888 52.0121ZM9.60997 47.9855H16.4569C16.9585 39.5115 20.6036 31.8765 26.2395 26.2395C31.8765 20.6036 39.5115 16.9585 47.9855 16.4569V9.60997C37.6194 10.1187 28.2778 14.5292 21.4035 21.4035C14.5292 28.2778 10.1187 37.6194 9.60997 47.9855ZM16.4569 52.0121H9.60997C10.1187 62.3794 14.5292 71.721 21.4035 78.5953C28.2778 85.4696 37.6182 89.8802 47.9855 90.3888V83.5419C39.5115 83.0403 31.8765 79.3952 26.2407 73.7581C20.6036 68.1211 16.9585 60.4885 16.4569 52.0121Z" fill="black"/>
</svg>
