<?xml version="1.0" encoding="utf-8"?>
<!-- Generator: Adobe Illustrator 24.3.0, SVG Export Plug-In . SVG Version: 6.00 Build 0)  -->
<svg version="1.1" id="Layer_1" xmlns="http://www.w3.org/2000/svg" xmlns:xlink="http://www.w3.org/1999/xlink" x="0px" y="0px"
	 width="3160.7px" height="1508px" viewBox="0 0 3160.7 1508" style="enable-background:new 0 0 3160.7 1508;" xml:space="preserve"
	>
<style type="text/css">
	.st0{fill:#031826;stroke:#002A3D;stroke-miterlimit:10;}
	.st1{fill:url(#SVGID_1_);}
	.st2{fill:url(#SVGID_2_);}
	.st3{fill:#FFFFFF;}
</style>
<g>
	<rect x="0.5" y="0.5" class="st0" width="1734.3" height="1507"/>
	<g>
		
			<linearGradient id="SVGID_1_" gradientUnits="userSpaceOnUse" x1="561.4115" y1="-703.5309" x2="561.4115" y2="-1529.2855" gradientTransform="matrix(1 0 0 -1 0 -261.7769)">
			<stop  offset="0" style="stop-color:#00AAFF"/>
			<stop  offset="1" style="stop-color:#00AAFF;stop-opacity:0"/>
		</linearGradient>
		<path class="st1" d="M391.6,633.8c-17.5,51.6-18,69.9-16,72.5c1,3.9,3.3,13.5,5.1,21c1.7,7.5,20.1,25.9,29.1,34.1
			c11.6,16.8,34.4,28.3,44.4,31.9c17.5,3.5,18.4-17.9,16.7-29c2.9-19.2-3.2-56.3-6.5-72.5c-11.1-27.3-16.7-105.7-18.2-141.4
			c-2.3-20.9,7.3-52.2,12.4-65.3c5.8-18,21.8-36,29.1-42.8c5.8-2.3,9.7,2.9,10.9,5.8l-5.1,8c-13.4,18.6-18.2,80.8-18.9,109.5
			l13.1,68.2L508,749.2c1.7,23.8,15.8,41.8,22.6,47.9l57.5,23.2c12.8-5.2,20.4-33.6,22.6-47.2l19.6-133.5l12.4-74l10.9-36.3
			l10.2-21.8c8.2-7,10.7,2.9,10.9,8.7l-7.3,34.1l-13.8,108.1l-3.6,105.9c-2.3,15.7,3.4,63.6,6.5,85.6l10.2,8
			c12.2,0.6,53.1,67,72,100.1c0.6,7,6.1,8.7,8.7,8.7l16-63.1c0-9.9,7.3-8.5,10.9-6.5c5.8,3.5,5.8,26.6,5.1,37.7l-16,82.7l3.6,45.7
			c-15.7,7-42.9-2.9-54.6-8.7c4.1-47-19.2-80.5-31.3-91.4C620.6,879.6,495.9,837.4,441,826.8c-43.1-18.6-80.5-70.6-93.9-94.3
			c-14-33.7,11.2-79.8,25.5-98.7C379,625.7,387.9,630.4,391.6,633.8z"/>
		
			<linearGradient id="SVGID_2_" gradientUnits="userSpaceOnUse" x1="1173.8619" y1="-704.1093" x2="1173.8619" y2="-1529.8625" gradientTransform="matrix(1 0 0 -1 0 -261.7769)">
			<stop  offset="0" style="stop-color:#00AAFF"/>
			<stop  offset="1" style="stop-color:#00AAFF;stop-opacity:0"/>
		</linearGradient>
		<path class="st2" d="M1343.7,634.4c17.5,51.6,17.9,69.9,16,72.5c-1,3.9-3.3,13.5-5.1,21c-1.7,7.5-20.1,25.9-29.1,34.1
			c-11.6,16.8-34.4,28.3-44.4,31.9c-17.5,3.5-18.4-17.9-16.7-29c-2.9-19.1,3.2-56.3,6.5-72.5c11.1-27.3,16.7-105.7,18.2-141.5
			c2.3-20.9-7.3-52.2-12.4-65.3c-5.8-18-21.8-36-29.1-42.8c-5.8-2.3-9.7,2.9-10.9,5.8l5.1,8c13.4,18.6,18.2,80.8,18.9,109.5
			l-13.1,68.2l-20.4,115.3c-1.7,23.8-15.8,41.8-22.6,47.9l-57.5,23.2c-12.8-5.2-20.4-33.6-22.6-47.2L1105,640.2l-12.4-74l-10.9-36.3
			l-10.2-21.8c-8.2-7-10.7,2.9-10.9,8.7l7.3,34.1l13.8,108.1l3.6,105.9c2.3,15.7-3.4,63.6-6.5,85.6l-10.2,8
			c-12.2,0.6-53.1,67-72,100.1c-0.6,7-6.1,8.7-8.7,8.7l-16-63.1c0-9.9-7.3-8.5-10.9-6.5c-5.8,3.5-5.8,26.6-5.1,37.7l16,82.7
			l-3.6,45.7c15.7,7,42.9-2.9,54.6-8.7c-4.1-47,19.2-80.5,31.3-91.4c60.5-83.6,185.3-125.7,240.1-136.4
			c43.1-18.6,80.5-70.6,93.9-94.3c14-33.7-11.2-79.8-25.5-98.7C1356.2,626.3,1347.4,631,1343.7,634.4z"/>
	</g>
	<g>
		<path class="st3" d="M2138.7,892c-23.5,0-44.5-4-62.9-12.1c-18.4-8-33-19.8-43.7-35.3c-10.7-15.5-16.2-34.2-16.5-56.2h66.4
			c0.3,9.6,2.8,18.3,7.4,26c4.6,7.8,11.1,13.9,19.3,18.4c8.2,4.5,18,6.7,29.5,6.7c9.9,0,18.5-1.6,25.8-4.9c7.3-3.3,12.9-7.8,17-13.7
			s6-12.9,6-20.9c0-9.3-2.2-17-6.7-23.2c-4.5-6.2-10.7-11.4-18.6-15.8c-7.9-4.3-17-8.3-27.4-11.9c-10.4-3.6-21.3-7.3-32.7-11.4
			c-25.7-8.3-45.3-19.5-58.8-33.4c-13.5-13.9-20.2-32.3-20.2-55.3c0-19.5,4.7-36.2,14.2-50.2c9.4-13.9,22.5-24.6,39.2-32.1
			c16.7-7.4,35.8-11.1,57.1-11.1c22,0,41.3,3.8,57.8,11.4c16.6,7.6,29.7,18.5,39.5,32.8s14.8,31,15.1,50.2h-66.9
			c-0.3-7.1-2.4-13.9-6.3-20.2c-3.9-6.3-9.2-11.4-16-15.3c-6.8-3.9-14.9-5.8-24.1-5.8c-8.1-0.3-15.4,0.9-22.1,3.7
			c-6.7,2.8-11.9,6.9-15.8,12.3c-3.9,5.4-5.8,12.1-5.8,20.2c0,7.7,1.9,14.2,5.8,19.5c3.9,5.3,9.2,9.8,16,13.7
			c6.8,3.9,14.9,7.4,24.1,10.7c9.3,3.2,19.4,6.6,30.2,10c16.1,5.6,31,12.1,44.6,19.7c13.6,7.6,24.5,17.4,32.5,29.5
			c8.1,12.1,12.1,28,12.1,47.9c0,17-4.5,32.8-13.5,47.4c-9,14.6-21.9,26.3-38.8,35.3C2184.8,887.5,2163.8,892,2138.7,892z"/>
		<path class="st3" d="M2379.8,886.4V611.9h-95.2v-50.6h252.2v50.6H2442v274.5H2379.8z"/>
		<path class="st3" d="M2525.2,886.4l118.9-325.2h71.1l118.5,325.2h-66.4l-87.8-253.6l-88.3,253.6H2525.2z M2577.7,812.5l16.7-48.8
			h165.4l16.2,48.8H2577.7z"/>
		<path class="st3" d="M3000.4,892c-31,0-57.9-6.9-80.8-20.7c-22.9-13.8-40.7-33.1-53.4-58.1c-12.7-24.9-19-54-19-87.1
			c0-33.4,6.5-62.9,19.5-88.5c13-25.5,31.7-45.6,56.2-60.2c24.5-14.6,53.7-21.8,87.8-21.8c38.1,0,69.7,9.1,95,27.4
			c25.2,18.3,41.6,43.7,49,76.2h-70.1c-4.6-14.2-13.2-25.5-25.8-33.7c-12.5-8.2-28.7-12.3-48.5-12.3c-21.1,0-39,4.7-53.9,13.9
			c-14.9,9.3-26.2,22.3-33.9,39c-7.7,16.7-11.6,36.7-11.6,59.9c0,23.5,3.9,43.5,11.6,59.9c7.7,16.4,18.8,28.9,33.2,37.4
			c14.4,8.5,31.3,12.8,50.9,12.8c28.5,0,50.1-7.7,64.8-23c14.7-15.3,23.5-35.2,26.2-59.7h-79.9v-46.9h143.1v179.8h-58.1l-4.6-41.3
			c-6.8,10.2-14.8,18.8-23.9,25.8s-19.7,12.2-31.8,15.8C3030.1,890.2,3016.2,892,3000.4,892z"/>
	</g>
</g>
</svg>
