<?xml version="1.0" encoding="utf-8"?>
<!-- Generator: Adobe Illustrator 24.3.0, SVG Export Plug-In . SVG Version: 6.00 Build 0)  -->
<svg version="1.1" id="Layer_1" xmlns="http://www.w3.org/2000/svg" xmlns:xlink="http://www.w3.org/1999/xlink" x="0px" y="0px"
	 width="3160.7px" height="1508px" viewBox="0 0 3160.7 1508" style="enable-background:new 0 0 3160.7 1508;" xml:space="preserve"
	>
<style type="text/css">
	.st0{fill:#FFFFFF;stroke:#231F20;stroke-miterlimit:10;}
	.st1{fill:#FFFFFF;}
</style>
<g>
	<path class="st0" d="M0.3,0.5v1507h1734.3V0.5H0.3z M779.2,934.9l-16,82.7l3.6,45.7c-15.7,7-42.9-2.9-54.6-8.7
		c4.1-47-19.2-80.5-31.3-91.4c-60.6-83.6-185.3-125.7-240.1-136.4c-43.1-18.6-80.5-70.6-93.9-94.3c-14-33.6,11.2-79.8,25.5-98.6
		c6.4-8.1,15.3-3.4,18.9,0c-17.5,51.6-17.9,69.9-16,72.5c1,3.9,3.4,13.5,5.1,21c1.7,7.5,20.1,25.9,29.1,34.1
		c11.6,16.8,34.4,28.3,44.4,31.9c17.5,3.5,18.4-17.9,16.7-29c2.9-19.2-3.2-56.3-6.6-72.5c-11.1-27.3-16.7-105.7-18.2-141.5
		c-2.3-20.9,7.3-52.2,12.4-65.3c5.8-18,21.8-36,29.1-42.8c5.8-2.3,9.7,2.9,10.9,5.8l-5.1,8c-13.4,18.6-18.2,80.8-18.9,109.5
		l13.1,68.2l20.4,115.3c1.7,23.8,15.8,41.8,22.6,47.9l57.5,23.2c12.8-5.2,20.4-33.6,22.6-47.2L630,639.6l12.4-74l10.9-36.3
		l10.2-21.8c8.1-7,10.7,2.9,10.9,8.7l-7.3,34.1l-13.8,108.1l-3.6,105.9c-2.3,15.7,3.4,63.6,6.5,85.6l10.2,8
		c12.2,0.6,53.1,67,72,100.1c0.6,7,6.1,8.7,8.7,8.7l16-63.1c0-9.9,7.3-8.5,10.9-6.5C779.9,900.6,779.9,923.7,779.2,934.9z
		 M1387.9,733.1c-13.3,23.7-50.8,75.7-93.9,94.3c-54.8,10.6-179.6,52.8-240.1,136.4c-12.1,10.9-35.4,44.4-31.3,91.4
		c-11.7,5.8-38.9,15.7-54.6,8.7l3.6-45.7l-16-82.7c-0.7-11.1-0.7-34.2,5.1-37.7c3.6-1.9,10.9-3.3,10.9,6.5l16,63.1
		c2.7,0,8.1-1.7,8.7-8.7c18.9-33.1,59.8-99.5,72-100.1l10.2-8c3.2-22,8.9-69.9,6.5-85.6l-3.6-105.9L1067.7,551l-7.3-34.1
		c0.2-5.8,2.8-15.7,10.9-8.7l10.2,21.8l10.9,36.3l12.4,74l19.6,133.5c2.2,13.5,9.8,41.9,22.6,47.2l57.5-23.2
		c6.8-6,20.8-24.1,22.6-47.9l20.4-115.3l13.1-68.2c-0.7-28.8-5.5-91-18.9-109.5l-5.1-8c1.2-2.9,5.1-8.1,10.9-5.8
		c7.3,6.8,23.3,24.8,29.1,42.8c5.1,13,14.7,44.4,12.4,65.3c-1.5,35.8-7.1,114.2-18.2,141.5c-3.4,16.2-9.5,53.4-6.6,72.5
		c-1.7,11.1-0.7,32.5,16.7,29c10-3.6,32.8-15.1,44.4-31.9c9-8.2,27.4-26.5,29.1-34.1c1.8-7.5,4.1-17.2,5.1-21
		c1.9-2.7,1.4-20.9-16-72.5c3.6-3.4,12.5-8.1,18.9,0C1376.7,653.3,1401.8,699.4,1387.9,733.1z"/>
	<g>
		<path class="st1" d="M2241.6,747.9c-8.1-12.1-18.9-21.9-32.5-29.5c-13.6-7.6-28.5-14.2-44.6-19.7c-10.8-3.4-20.9-6.7-30.2-10
			c-9.3-3.3-17.4-6.8-24.1-10.7c-6.8-3.9-12.2-8.4-16-13.7c-3.9-5.3-5.8-11.8-5.8-19.5c0-8,1.9-14.8,5.8-20.2
			c3.9-5.4,9.1-9.5,15.8-12.3c6.7-2.8,14-4,22.1-3.7c9.3,0,17.4,1.9,24.2,5.8c6.8,3.9,12.2,9,16,15.3c3.9,6.4,6,13.1,6.3,20.2h66.9
			c-0.3-19.2-5.4-35.9-15.1-50.1c-9.8-14.2-22.9-25.2-39.5-32.8c-16.6-7.6-35.8-11.4-57.8-11.4c-21.4,0-40.4,3.7-57.1,11.1
			s-29.8,18.1-39.2,32c-9.4,13.9-14.2,30.7-14.2,50.2c0,22.9,6.7,41.3,20.2,55.3c13.5,14,33,25.1,58.7,33.4
			c11.4,4.1,22.4,7.8,32.8,11.4c10.4,3.6,19.5,7.5,27.4,11.9c7.9,4.3,14.1,9.6,18.6,15.8c4.5,6.2,6.7,13.9,6.7,23.2
			c0,8.1-2,15-6,20.9c-4,5.9-9.7,10.5-17,13.7c-7.3,3.2-15.9,4.9-25.8,4.9c-11.5,0-21.3-2.2-29.5-6.7c-8.2-4.5-14.6-10.6-19.3-18.4
			c-4.6-7.7-7.1-16.4-7.4-26h-66.4c0.3,22,5.8,40.7,16.5,56.2c10.7,15.5,25.2,27.2,43.7,35.3c18.4,8,39.4,12.1,62.9,12.1
			c25.1,0,46.1-4.5,63-13.5c16.9-9,29.8-20.7,38.8-35.3c9-14.5,13.5-30.3,13.5-47.4C2253.7,776,2249.7,760,2241.6,747.9z"/>
		<path class="st1" d="M2284.3,561.2v50.6h95.2v274.5h62.2V611.8h94.8v-50.6H2284.3z"/>
		<path class="st1" d="M2714.9,561.2h-71.1L2525,886.4h66l25.7-73.9l17-48.8l45.6-131l45.3,131l16.9,48.8l25.6,73.9h66.4
			L2714.9,561.2z M2759.5,763.7h-165.4l-16.7,48.8h198.3L2759.5,763.7z"/>
		<path class="st1" d="M3017.3,706.6v46.9h79.9c-2.8,24.5-11.5,44.3-26.2,59.7c-14.7,15.3-36.3,23-64.8,23
			c-19.5,0-36.5-4.2-50.9-12.8c-14.4-8.5-25.5-21-33.2-37.4c-7.7-16.4-11.6-36.4-11.6-59.9c0-23.2,3.9-43.2,11.6-59.9
			c7.7-16.7,19-29.7,33.9-39c14.9-9.3,32.8-13.9,53.9-13.9c19.8,0,36,4.1,48.5,12.3c12.5,8.2,21.1,19.5,25.8,33.7h70.1
			c-7.4-32.5-23.8-57.9-49-76.2c-25.2-18.2-56.9-27.4-95-27.4c-34.1,0-63.3,7.3-87.8,21.8c-24.5,14.6-43.2,34.6-56.2,60.2
			c-13,25.5-19.5,55-19.5,88.5c0,33.2,6.3,62.2,19,87.1c12.7,24.9,30.5,44.3,53.4,58.1c22.9,13.8,49.9,20.7,80.8,20.7
			c15.8,0,29.7-1.8,41.8-5.3c12.1-3.6,22.7-8.8,31.8-15.8c9.1-7,17.1-15.6,23.9-25.8l4.6,41.3h58.1V706.6H3017.3z"/>
	</g>
</g>
</svg>
