<?xml version="1.0" encoding="utf-8"?>
<!-- Generator: Adobe Illustrator 24.3.0, SVG Export Plug-In . SVG Version: 6.00 Build 0)  -->
<svg version="1.1" id="Layer_1" xmlns="http://www.w3.org/2000/svg" xmlns:xlink="http://www.w3.org/1999/xlink" x="0px" y="0px"
	 width="2364.4px" height="558.5px" viewBox="0 0 2364.4 558.5" style="enable-background:new 0 0 2364.4 558.5;"
	 xml:space="preserve">
<style type="text/css">
	.st0{fill:#222222;}
</style>
<g>
	<path class="st0" d="M104.4,469h171.5v82.8H0V31.3h104.4V469z"/>
	<path class="st0" d="M723.3,376.6h-302c2.5,29.8,12.9,53.2,31.3,70.1c18.4,16.9,41,25.3,67.9,25.3c38.8,0,66.4-16.6,82.8-50h112.6
		c-11.9,39.8-34.8,72.5-68.6,98.1c-33.8,25.6-75.3,38.4-124.5,38.4c-39.8,0-75.4-8.8-107-26.5c-31.6-17.6-56.2-42.6-73.8-74.9
		c-17.7-32.3-26.5-69.6-26.5-111.8c0-42.7,8.7-80.3,26.1-112.6c17.4-32.3,41.8-57.2,73.1-74.6c31.3-17.4,67.4-26.1,108.1-26.1
		c39.3,0,74.4,8.5,105.5,25.3c31.1,16.9,55.2,40.9,72.3,72c17.1,31.1,25.7,66.7,25.7,107C726.3,351.2,725.3,364.6,723.3,376.6z
		 M618.1,306.5c-0.5-26.8-10.2-48.3-29.1-64.5c-18.9-16.1-42-24.2-69.3-24.2c-25.9,0-47.6,7.8-65.3,23.5
		c-17.7,15.7-28.5,37.4-32.4,65.2H618.1z"/>
	<path class="st0" d="M1046.9,551.8l-140.2-176v176H802.3V0h104.4v313.9l138.7-175.2h135.7L999.2,346l183.4,205.8H1046.9z"/>
	<path class="st0" d="M1482.3,551.8l-140.2-176v176h-104.4V0h104.4v313.9l138.7-175.2h135.7L1434.6,346L1618,551.8H1482.3z"/>
	<path class="st0" d="M2054.3,376.6h-302c2.5,29.8,12.9,53.2,31.3,70.1c18.4,16.9,41,25.3,67.9,25.3c38.8,0,66.4-16.6,82.8-50h112.6
		c-11.9,39.8-34.8,72.5-68.6,98.1c-33.8,25.6-75.3,38.4-124.5,38.4c-39.8,0-75.4-8.8-107-26.5c-31.6-17.6-56.2-42.6-73.8-74.9
		c-17.7-32.3-26.5-69.6-26.5-111.8c0-42.7,8.7-80.3,26.1-112.6c17.4-32.3,41.8-57.2,73.1-74.6c31.3-17.4,67.4-26.1,108.1-26.1
		c39.3,0,74.4,8.5,105.5,25.3c31.1,16.9,55.2,40.9,72.3,72c17.1,31.1,25.7,66.7,25.7,107C2057.2,351.2,2056.2,364.6,2054.3,376.6z
		 M1949.1,306.5c-0.5-26.8-10.2-48.3-29.1-64.5c-18.9-16.1-42-24.2-69.3-24.2c-25.9,0-47.6,7.8-65.3,23.5
		c-17.7,15.7-28.5,37.4-32.4,65.2H1949.1z"/>
	<path class="st0" d="M2290.2,151.4c21.6-12.4,46.4-18.6,74.2-18.6v109.6h-27.6c-32.8,0-57.5,7.7-74.2,23.1
		c-16.7,15.4-25,42.3-25,80.5v205.8h-104.4V138.7h104.4v64.1C2251.1,180.9,2268.6,163.8,2290.2,151.4z"/>
</g>
</svg>
