<?xml version="1.0" encoding="utf-8"?>
<!-- Generator: Adobe Illustrator 24.3.0, SVG Export Plug-In . SVG Version: 6.00 Build 0)  -->
<svg version="1.1" id="Layer_1" xmlns="http://www.w3.org/2000/svg" xmlns:xlink="http://www.w3.org/1999/xlink" x="0px" y="0px"
	 viewBox="0 0 10394.2 2165.2" style="enable-background:new 0 0 10394.2 2165.2;" xml:space="preserve">
<style type="text/css">
	.st0{fill:#FFFFFF;}
</style>
<g>
	<g>
		<path class="st0" d="M3307.6,1514.4c0-36.6-18.1-65.4-54.4-86.4c-36.2-21-94.4-39.9-174.4-56.4
			c-266.4-55.9-399.6-169.1-399.6-339.6c0-99.4,41.2-182.4,123.7-249c82.5-66.6,190.3-99.9,323.5-99.9
			c142.2,0,255.9,33.5,341.1,100.4c85.2,67,127.9,153.9,127.9,260.9h-299.2c0-42.8-13.8-78.2-41.4-106.1
			c-27.6-28-70.8-41.9-129.4-41.9c-50.4,0-89.4,11.4-117,34.2c-27.6,22.8-41.4,51.8-41.4,87c0,33.1,15.7,59.9,47.1,80.2
			c31.4,20.4,84.4,38,158.9,52.8c74.5,14.8,137.3,31.6,188.4,50.2c158,58,237.1,158.4,237.1,301.3c0,102.2-43.8,184.8-131.5,248
			c-87.7,63.2-200.8,94.7-339.6,94.7c-93.9,0-177.2-16.7-250-50.2c-72.8-33.5-129.9-79.4-171.3-137.7
			c-41.4-58.3-62.1-121.3-62.1-188.9h283.7c2.8,53.2,22.4,93.9,59,122.2c36.6,28.3,85.6,42.4,147,42.4c57.3,0,100.6-10.9,129.9-32.6
			C3292.9,1578.1,3307.6,1549.6,3307.6,1514.4z"/>
		<path class="st0" d="M4149.3,428.4v275.4h191.5v219.5h-191.5v559.1c0,41.4,7.9,71.1,23.8,89c15.9,18,46.2,26.9,91.1,26.9
			c33.1,0,62.5-2.4,88-7.2v226.7c-58.7,17.9-119.1,26.9-181.2,26.9c-209.8,0-316.8-105.9-320.9-317.8V923.3h-163.6V703.8h163.6
			V428.4H4149.3z"/>
		<path class="st0" d="M5137,984.4c-40.7-5.5-76.6-8.3-107.7-8.3c-113.2,0-187.4,38.3-222.6,114.9v733h-299.2V703.8h282.6l8.3,133.6
			c60.1-102.8,143.2-154.3,249.5-154.3c33.1,0,64.2,4.5,93.2,13.5L5137,984.4z"/>
		<path class="st0" d="M5776.8,1844.7c-164.3,0-298-50.4-401.2-151.2c-103.2-100.8-154.8-235-154.8-402.7v-29
			c0-112.5,21.7-213.1,65.2-301.8c43.5-88.7,105.1-157,184.8-205c79.7-48,170.6-72,272.8-72c153.2,0,273.8,48.3,361.8,144.9
			c88,96.6,132,233.6,132,411v122.2h-713.3c9.7,73.2,38.8,131.8,87.5,176c48.7,44.2,110.3,66.3,184.8,66.3
			c115.3,0,205.3-41.8,270.2-125.3l147,164.6c-44.9,63.5-105.6,113-182.2,148.6C5954.9,1826.9,5870,1844.7,5776.8,1844.7z
			 M5742.6,924.3c-59.4,0-107.5,20.1-144.4,60.3c-36.9,40.2-60.6,97.8-70.9,172.6h416.2v-23.9c-1.4-66.6-19.3-118-53.8-154.4
			C5855.1,942.5,5806.1,924.3,5742.6,924.3z"/>
		<path class="st0" d="M7056.4,1824c-13.8-26.9-23.8-60.4-30-100.4c-72.5,80.8-166.7,121.1-282.6,121.1
			c-109.7,0-200.7-31.7-272.8-95.2c-72.1-63.5-108.2-143.5-108.2-240.2c0-118.7,44-209.8,132-273.3c88-63.5,215.2-95.6,381.5-96.3
			H7014v-64.2c0-51.8-13.3-93.2-39.9-124.2c-26.6-31.1-68.5-46.6-125.8-46.6c-50.4,0-89.9,12.1-118.5,36.2
			c-28.6,24.2-43,57.3-43,99.4h-299.2c0-64.9,20-124.9,60-180.1c40-55.2,96.6-98.5,169.8-129.9c73.2-31.4,155.3-47.1,246.4-47.1
			c138,0,247.6,34.7,328.7,104c81.1,69.4,121.6,166.9,121.6,292.5v485.6c0.7,106.3,15.5,186.7,44.5,241.2v17.6H7056.4z M6809,1615.9
			c44.2,0,84.9-9.8,122.2-29.5c37.3-19.7,64.9-46.1,82.8-79.2v-192.6h-111.8c-149.8,0-229.5,51.8-239.2,155.3l-1,17.6
			c0,37.3,13.1,68,39.3,92.1C6727.5,1603.8,6763.4,1615.9,6809,1615.9z"/>
		<path class="st0" d="M7824.6,703.8l9.3,125.3c79.4-97.3,186.7-146,322-146c144.2,0,243.3,56.9,297.1,170.8
			c78.7-113.9,190.8-170.8,336.5-170.8c121.5,0,211.9,35.4,271.2,106.1c59.4,70.8,89,177.2,89,319.4V1824h-300.2v-714.4
			c0-63.5-12.4-109.9-37.3-139.2c-24.8-29.3-68.7-44-131.5-44c-89.7,0-151.8,42.8-186.4,128.4l1,769.2h-299.2v-713.3
			c0-64.9-12.8-111.8-38.3-140.8c-25.5-29-69-43.5-130.4-43.5c-84.9,0-146.3,35.2-184.3,105.6v792H7544V703.8H7824.6z"/>
		<path class="st0" d="M9333,1253.5c0-111.1,21.4-210.2,64.2-297.1c42.8-87,104.4-154.3,184.8-201.9
			c80.4-47.6,173.8-71.4,280.1-71.4c151.2,0,274.5,46.2,370.1,138.7c95.6,92.5,148.9,218.1,160,376.9l2.1,76.6
			c0,171.9-48,309.7-143.9,413.6c-95.9,103.9-224.7,155.8-386.2,155.8c-161.5,0-290.4-51.8-386.7-155.3
			c-96.3-103.5-144.4-244.3-144.4-422.4V1253.5z M9632.2,1274.8c0,106.5,20,187.9,60,244.2c40,56.3,97.3,84.5,171.9,84.5
			c72.5,0,129.1-27.8,169.8-83.5c40.7-55.6,61.1-144.6,61.1-267c0-104.4-20.4-185.3-61.1-242.6c-40.7-57.4-98-86.1-171.9-86.1
			c-73.2,0-129.8,28.5-169.8,85.5C9652.2,1066.9,9632.2,1155.2,9632.2,1274.8z"/>
	</g>
	<g>
		<g>
			<g>
				<g>
					<path class="st0" d="M806,798.4c-85.7,57.9-124.3,104.1-154.6,185.8c-83.5-21.5-167.4-42.9-251.2-64.9
						c-33.2-8.7-66.7-16.9-98.9-28.7c-38.8-14.1-45.6-30.8-31.4-68.9C318,693.2,396.3,586.5,504.1,501.5
						c11.6-9.2,24.3-17.3,37.3-24.6c46.6-26.1,59.5-23.5,92.1,19C704.9,589,756.9,693.1,806,798.4z"/>
				</g>
				<g>
					<path class="st0" d="M670,1176.8c7.1,86.5,30.6,162.5,92.8,224.1c-78.7,84.6-156.5,170-236.5,253.2
						c-42.7,44.4-61.4,41.5-99.5-5.4c-87.8-107.9-145.7-229-163-368c-1.3-10.2-1.9-20.6-1.6-30.8c1.1-44.4,7.7-52.8,52.5-61.1
						C431.6,1167.1,549.3,1172,670,1176.8z"/>
				</g>
				<g>
					<path class="st0" d="M1477.2,966.9c-13.7-85.1-40.9-160.3-107.8-218.9c76.4-92.6,151.1-185.4,228.4-275.8
						c30.3-35.5,50.5-33.7,82.7-0.5c103.7,107.3,175.1,231.9,196,381.3c8.7,61.9,2.9,67.8-58.7,82
						C1705.5,960.9,1591.2,964,1477.2,966.9z"/>
				</g>
				<g>
					<path class="st0" d="M1497.2,1175.6c119.4,10,235.9,18.2,352,30.2c51,5.2,60,20.7,50.4,70.9
						c-25.7,134.8-85.7,252.6-177.6,354.4c-3.8,4.2-8,8.3-12.2,12.1c-54.3,50-73.2,52.3-122.2-1.5c-73.9-81-143.6-165.8-215.7-249.7
						C1438.2,1329.2,1485.2,1264.6,1497.2,1175.6z"/>
				</g>
				<g>
					<path class="st0" d="M1205.7,686.6c-80.7-33.5-158.1-46.8-242.7-20.4c-40-113.6-81.5-227.4-119.9-342.3
						c-13.5-40.4-3.1-54.5,37.4-64.7c132.1-33.3,263.5-29.2,393.9,9c19.6,5.8,38.1,15.7,56.9,24.1c30.5,13.6,38.1,36.8,28.5,67.7
						C1324.2,475.8,1267,581.2,1205.7,686.6z"/>
				</g>
				<g>
					<path class="st0" d="M971.1,1482.8c88,30.4,165.6,43.7,247.3,11c3.8,7,8.7,14.3,12.1,22.2c38.2,89.4,76.2,178.9,114.1,268.5
						c4,9.5,7.8,19.1,11.1,28.8c19.1,57.8,12.9,70.8-44.3,86.6c-131.9,36.5-264.2,39.5-396.5,1.7c-4.4-1.3-8.9-2.4-13.2-3.9
						c-64.2-23-75.5-38-53.1-100.9C886.1,1691.5,929.5,1588.5,971.1,1482.8z"/>
				</g>
			</g>
			<g>
				<circle class="st0" cx="1082.6" cy="1082.6" r="195.4"/>
			</g>
			<g>
				<path class="st0" d="M1758.2,236.7h1298.1C3056.3-5.6,2831.6,0,2831.6,0h-1731l0.6,0.2c-6.2-0.1-12.4-0.2-18.6-0.2
					c-289.2,0-561,112.6-765.5,317.1C112.6,521.6,0,793.4,0,1082.6c0,289.2,112.6,561,317.1,765.5
					c204.4,204.5,476.3,317.1,765.5,317.1c289.1,0,561-112.6,765.5-317.1c204.4-204.4,317.1-476.3,317.1-765.5
					c0-289.1-112.6-561-317.1-765.5C1819.4,288.4,1789.4,261.6,1758.2,236.7z M2438.6,94.2c7.3-7.3,17.4-11.9,28.6-11.9h362
					c22.3,0,40.4,18.1,40.4,40.4c0,11.2-4.5,21.2-11.8,28.6c-7.3,7.3-17.4,11.8-28.6,11.8h-362c-22.3,0-40.4-18.1-40.4-40.4
					C2426.7,111.6,2431.3,101.4,2438.6,94.2z M1820.1,94.2c7.3-7.3,17.4-11.9,28.6-11.9h362c22.3,0,40.4,18.1,40.4,40.4
					c0,11.2-4.5,21.2-11.9,28.6c-7.3,7.3-17.4,11.8-28.6,11.8h-362c-22.3,0-40.4-18.1-40.4-40.4
					C1808.3,111.6,1812.9,101.4,1820.1,94.2z M1082.6,2082.9c-551.5,0-1000.3-448.7-1000.3-1000.3S531.1,82.3,1082.6,82.3
					S2082.8,531,2082.8,1082.6S1634.1,2082.9,1082.6,2082.9z"/>
			</g>
		</g>
	</g>
</g>
</svg>
