<svg width="100" height="100" viewBox="0 0 100 100" fill="none" xmlns="http://www.w3.org/2000/svg">
<path d="M30.5713 78.2246L30.6687 82.5117L30.6732 92.2458C30.6687 92.8083 30.2125 93.2602 29.6545 93.2646L25.6464 93.2645V67.8655H29.6589C30.217 67.8743 30.6688 68.3216 30.6776 68.8841L30.6776 76.5195C30.6067 76.9713 30.5713 77.4274 30.5713 77.8792V78.2246Z" fill="#00B0FB" fill-opacity="0.5"/>
<path d="M63.0613 15.2681C63.6504 15.4409 64.235 15.649 64.8107 15.8882L64.8063 15.8927C65.3821 16.1318 65.9401 16.3974 66.4893 16.6942C67.065 17.013 67.7071 17.1858 68.367 17.1947C69.0225 17.208 69.6691 17.053 70.2493 16.7474L71.0598 16.3354C71.6046 16.0431 72.2777 16.1494 72.6984 16.5968H72.7029L73.695 17.5802C73.9076 17.7927 74.0492 18.0628 74.0979 18.3551C74.1466 18.6518 74.0935 18.9531 73.9563 19.2188L73.5399 20.0247C73.2387 20.6139 73.0882 21.2648 73.1015 21.9202C73.1103 22.5801 73.2831 23.2224 73.602 23.7982C73.8987 24.3474 74.1644 24.9053 74.4036 25.481C74.6383 26.0523 74.8464 26.6371 75.0236 27.2262C75.3867 28.5105 76.3743 29.5248 77.6454 29.9278H77.6499L78.5091 30.2066C78.7925 30.2952 79.0405 30.4723 79.2177 30.7115C79.3904 30.9551 79.4879 31.2475 79.4834 31.5487L79.4834 32.9481C79.4878 33.2492 79.3904 33.5417 79.2177 33.7852C79.0405 34.0244 78.7925 34.1971 78.5091 34.2857H78.5046L77.6411 34.5692C76.37 34.9722 75.3823 35.9865 75.0147 37.2708C74.8376 37.8644 74.6295 38.4444 74.3947 39.0157C74.16 39.5915 73.8943 40.1541 73.5975 40.6988C72.9509 41.8635 72.9288 43.2763 73.5399 44.4588V44.4632L73.9562 45.2738C74.0935 45.5395 74.1467 45.8406 74.098 46.1373C74.0492 46.4296 73.9076 46.6999 73.6994 46.908L73.2033 47.3995C73.1812 47.4261 73.1546 47.4484 73.1324 47.4749L72.7118 47.8956C72.4992 48.1082 72.229 48.2542 71.9322 48.3074C71.6355 48.3473 71.3388 48.2942 71.0731 48.1569L70.2626 47.7405C69.6779 47.4393 69.0313 47.2888 68.3758 47.2977C67.7204 47.3066 67.0738 47.4793 66.4981 47.7982C65.9533 48.0949 65.3908 48.3605 64.8195 48.5997H64.8151C64.2394 48.8344 63.6636 49.0427 63.0657 49.2198C61.7814 49.583 60.7672 50.5705 60.3686 51.8416H60.373L60.3508 51.908L60.3109 52.0411L60.0895 52.7008C60.001 52.9886 59.8238 53.2411 59.5802 53.4183C59.3367 53.591 59.0443 53.6842 58.7431 53.6798L57.3391 53.6796C57.0424 53.6796 56.7501 53.5865 56.5065 53.4138C56.263 53.2367 56.0858 52.9843 55.9972 52.7008L55.7182 51.8417C55.3196 50.5662 54.3054 49.5785 53.0167 49.2153C52.4231 49.0382 51.8429 48.8346 51.2672 48.5954C50.6958 48.3562 50.1422 48.0905 49.5974 47.7937C48.4283 47.1471 47.0155 47.125 45.8286 47.7362L45.0181 48.1525C44.4777 48.4492 43.8046 48.343 43.3838 47.8913L42.3918 46.9036C42.3785 46.8814 42.3607 46.8637 42.3386 46.8505C41.9356 46.4209 41.8515 45.783 42.1349 45.2649L42.5468 44.4589C43.1624 43.272 43.1447 41.8591 42.4937 40.6899C42.1969 40.1451 41.9311 39.5826 41.692 39.0068C41.4528 38.4399 41.2447 37.8554 41.072 37.262C40.7044 35.982 39.7212 34.9678 38.4457 34.5604L38.4457 34.5648L37.5821 34.2813C37.2986 34.1928 37.0506 34.0155 36.8735 33.7763C36.6963 33.5328 36.6033 33.2404 36.6077 32.9393L36.6077 31.5442C36.6033 31.243 36.6963 30.9507 36.8734 30.7071C37.0506 30.468 37.2986 30.2908 37.5821 30.1978V30.2024L38.4457 29.9233C39.7168 29.5159 40.7043 28.5016 41.0719 27.2216C41.2447 26.6281 41.4529 26.0437 41.692 25.4768C41.9312 24.901 42.1969 24.3428 42.4937 23.7937C43.1447 22.6289 43.1624 21.2118 42.5468 20.0249L42.1349 19.2187C41.9977 18.9529 41.9444 18.6519 41.9843 18.3552C42.0374 18.0629 42.1792 17.7881 42.3918 17.58L43.3838 16.5924C43.592 16.3753 43.8621 16.2337 44.1588 16.185C44.4556 16.1407 44.7524 16.1938 45.0181 16.3311L45.8285 16.743C46.4132 17.0486 47.0599 17.1991 47.7198 17.1902C48.3752 17.1814 49.0217 17.0088 49.5974 16.6899C50.1378 16.3931 50.6959 16.1273 51.2672 15.8882C51.843 15.6534 52.4187 15.4455 53.0166 15.2683C53.65 15.0867 54.2302 14.7544 54.6996 14.2982C55.1691 13.8377 55.5146 13.2708 55.7183 12.6463V12.642L55.9972 11.7784C56.1789 11.1938 56.7236 10.7951 57.3347 10.8084L58.7432 10.8085C59.3544 10.7952 59.8991 11.1938 60.0807 11.7784L60.3022 12.4471L60.3242 12.5135L60.3642 12.6463C60.7584 13.9174 61.7725 14.905 63.0613 15.2681Z" fill="#00B0FB" fill-opacity="0.5"/>
<path d="M13.631 65.7703H23.0024V95.3677L13.631 95.3677V65.7703Z" fill="#00B0FB"/>
<path d="M47.4845 30.1403C48.4898 25.1047 52.9098 21.4819 58.0472 21.4863C60.8994 21.4818 63.6361 22.6207 65.6512 24.6401C69.2828 28.276 69.8409 33.967 66.9844 38.2319C64.1281 42.5014 58.6586 44.1579 53.9153 42.1914C49.172 40.2248 46.4791 35.1803 47.4845 30.1403Z" fill="#00B0FB"/>
<mask id="path-5-outside-1_228_3768" maskUnits="userSpaceOnUse" x="10" y="1" width="79" height="98" fill="black">
<rect fill="white" x="10" y="1" width="79" height="98"/>
<path d="M69.0843 76.7459L76.3254 69.4781H76.3298C77.8312 67.7509 80.2848 67.2061 82.3796 68.1362C83.1369 68.4772 83.8234 68.9688 84.3903 69.5755C84.9571 70.1734 85.4089 70.8687 85.7322 71.6261C86.7243 73.7076 86.2681 76.1922 84.5984 77.7822L74.1374 87.6319C73.8496 87.8977 73.5883 88.1944 73.3225 88.4867C72.2153 89.7046 71.0903 90.958 69.1461 90.9713L33.3038 91.1839V92.2512L33.2994 92.2468C33.2994 94.2663 31.6651 95.9006 29.6455 95.905H25.6285C25.5178 97.0876 24.5258 97.9955 23.3344 97.9999H13.3075C12.6963 98.0044 12.1073 97.7608 11.6732 97.3268C11.2392 96.8927 10.9956 96.3037 11.0001 95.6925V65.4432C10.9956 64.832 11.2392 64.2429 11.6732 63.8089C12.1028 63.3749 12.6919 63.1313 13.3031 63.1313H23.33C24.5214 63.1357 25.5179 64.0481 25.6241 65.235H29.6455C30.611 65.235 31.5411 65.6204 32.2275 66.3024C32.914 66.9889 33.2993 67.9189 33.2949 68.8888V71.3557V71.3512C33.8308 70.7844 34.4198 70.2662 35.0531 69.8011C38.0736 67.6886 41.6876 66.5858 45.3768 66.6433C47.6931 66.6345 49.9872 67.0552 52.153 67.8835C53.991 68.5788 55.6695 69.6329 57.0912 70.9881L63.8939 70.9792V70.9748C66.5999 70.9792 68.7922 73.1671 68.801 75.8687C68.801 76.3071 68.7434 76.7456 68.6238 77.1663C68.7833 77.0379 68.9383 76.9006 69.0844 76.7544L69.0843 76.7459ZM70.2357 3.59415H70.2402C70.0896 2.89883 70.5148 2.2123 71.2057 2.03962C71.8921 1.8669 72.5964 2.27435 72.7867 2.96082L73.7699 6.89811C73.8496 7.23913 73.7965 7.59344 73.6149 7.89461C73.4333 8.19134 73.141 8.40393 72.8 8.48807L68.8717 9.46685C68.1675 9.63957 67.4544 9.20998 67.2818 8.50578C67.109 7.8016 67.5386 7.08855 68.2428 6.91588L68.7123 6.7963C62.5296 4.20537 55.6159 3.95299 49.2611 6.08325C42.9057 8.21794 37.5423 12.5892 34.1716 18.3825L34.1406 18.4445H34.1361C31.1732 23.5819 29.942 29.5343 30.624 35.4207C31.3016 41.311 33.8615 46.8254 37.9183 51.1474C38.4143 51.6789 38.3922 52.5115 37.8607 53.0075C37.3337 53.5035 36.5011 53.4814 36.0006 52.9499C31.5585 48.2155 28.7551 42.179 28.0066 35.73C27.2625 29.2772 28.6133 22.7618 31.8596 17.1382L31.9083 17.0585C35.6684 10.5792 41.7005 5.73393 48.8357 3.45309C55.9706 1.17226 63.6985 1.62396 70.5194 4.71976L70.2357 3.59415ZM45.8458 60.9035C46.0185 61.6077 45.5889 62.3208 44.8803 62.4979C44.1761 62.6706 43.4586 62.2366 43.286 61.5324L42.3116 57.5951C42.1345 56.8909 42.5641 56.1779 43.2638 56.0008L47.1921 55.0176V55.022C47.9008 54.8493 48.6138 55.2788 48.7865 55.983C48.9592 56.6917 48.5296 57.4047 47.821 57.5774L47.3515 57.697H47.356C55.2571 61.0142 64.2516 60.4738 71.6972 56.231C79.1421 51.9925 84.1994 44.5349 85.3774 36.0439C86.5555 27.5538 83.7255 19.002 77.7155 12.8898C77.4719 12.6418 77.3346 12.3052 77.3391 11.9598C77.3391 11.6099 77.4808 11.2777 77.7288 11.0297C78.247 10.5204 79.0796 10.5292 79.5889 11.043C86.241 17.8058 89.3324 27.2969 87.9373 36.6812C86.5466 46.0615 80.829 54.2458 72.5031 58.781C64.1768 63.3205 54.1981 63.6881 45.5621 59.773L45.8458 60.9035ZM59.3582 40.0566C59.3582 40.783 58.7692 41.3765 58.0428 41.3765C57.312 41.3765 56.723 40.783 56.723 40.0566V39.4499C56.0542 39.2373 55.4475 38.8697 54.9558 38.3737C54.1365 37.5588 53.6759 36.4472 53.6759 35.2911C53.6759 34.5604 54.265 33.9713 54.9913 33.9713C55.7221 33.9713 56.3112 34.5603 56.3112 35.2911C56.3112 35.9865 56.7319 36.6198 57.3741 36.8855C58.0207 37.1556 58.7648 37.0051 59.2564 36.509C59.748 36.0174 59.8986 35.2779 59.6329 34.6313C59.3671 33.9891 58.7382 33.5683 58.0429 33.5639C56.2758 33.5683 54.6815 32.5054 54.0083 30.8756C53.3306 29.2413 53.7071 27.3635 54.956 26.119C55.4476 25.623 56.0544 25.2554 56.7232 25.0428V24.4361C56.7232 23.7097 57.3122 23.1162 58.043 23.1162C58.7693 23.1162 59.3584 23.7097 59.3584 24.4361V25.0428C61.1699 25.623 62.401 27.306 62.401 29.2104C62.401 29.9367 61.812 30.5258 61.0856 30.5258C60.3549 30.5258 59.7658 29.9368 59.7658 29.2104C59.7791 28.7409 59.6019 28.2936 59.2742 27.957C58.9509 27.6248 58.5036 27.4344 58.0386 27.4344C57.5735 27.4344 57.1262 27.6248 56.803 27.957C56.4753 28.2936 56.2981 28.7409 56.3114 29.2104C56.3114 29.6665 56.4974 30.1006 56.8207 30.4239C57.1396 30.7516 57.5825 30.9332 58.043 30.9332C60.191 30.9332 62.0201 32.5054 62.3479 34.6312C62.6756 36.7571 61.4046 38.8032 59.354 39.4498L59.3582 40.0566ZM58.0473 21.4864C52.9099 21.482 48.4899 25.1048 47.4845 30.1403C46.4792 35.1804 49.172 40.2248 53.9153 42.1913C58.6586 44.1579 64.1282 42.5014 66.9844 38.2319C69.841 33.967 69.2829 28.2759 65.6513 24.6401C63.6362 22.6206 60.8995 21.4819 58.0473 21.4864ZM48.5652 22.7707C53.087 18.2489 60.1728 17.5491 65.488 21.101C70.8071 24.6529 72.8709 31.4645 70.4262 37.3731C67.9816 43.2811 61.7014 46.6383 55.4297 45.3893C49.1585 44.1447 44.641 38.6398 44.641 32.2442C44.6366 28.6923 46.0496 25.282 48.5652 22.7707ZM63.8009 12.7438C64.4874 12.9475 65.1606 13.1867 65.8204 13.4613C66.4759 13.7359 67.1225 14.0414 67.747 14.3869C68.15 14.6216 68.6505 14.6261 69.0578 14.4002L69.8683 13.9839C71.4273 13.1822 73.3228 13.4834 74.5584 14.7279L75.5549 15.7244C76.8039 16.9556 77.1051 18.86 76.299 20.4145L75.8871 21.225V21.2294C75.7764 21.4332 75.7232 21.659 75.7188 21.8893C75.7277 22.1196 75.7897 22.3411 75.9004 22.5404C76.2458 23.1693 76.5514 23.8115 76.826 24.4757C77.1006 25.1312 77.3354 25.8044 77.5346 26.4864C77.5966 26.7078 77.7118 26.916 77.8712 27.0843C78.0351 27.2437 78.2344 27.3633 78.4558 27.4297L79.3195 27.7132C80.9936 28.2402 82.123 29.8036 82.1052 31.5574V32.9569V32.9525C82.1229 34.7108 80.9935 36.2697 79.3195 36.7967L78.4558 37.0802C78.2344 37.1466 78.0351 37.2662 77.8712 37.4256C77.7118 37.5939 77.5966 37.8021 77.5346 38.0235C77.1361 39.392 76.5869 40.7118 75.9004 41.9608C75.7897 42.1645 75.7277 42.3904 75.7188 42.6207C75.7233 42.851 75.7808 43.0769 75.8871 43.2806L76.299 44.0866C77.1051 45.6456 76.8039 47.5456 75.555 48.7768V48.7812L75.0589 49.2772C75.0368 49.2994 75.0102 49.3215 74.9881 49.3392L74.554 49.7644L74.5585 49.7732C73.3273 51.0178 71.4273 51.3234 69.8683 50.5173L69.0579 50.101C68.6504 49.8751 68.15 49.884 67.747 50.1187C67.1225 50.4597 66.4759 50.7697 65.8205 51.0443C65.1606 51.3145 64.4874 51.5536 63.801 51.7574C63.584 51.8194 63.3802 51.9345 63.2164 52.0895C63.0525 52.2534 62.9285 52.4527 62.8576 52.6697L62.8355 52.7273L62.7912 52.8646L62.5786 53.5333C62.0516 55.2075 60.4881 56.3413 58.7344 56.3235V56.3279H57.3349V56.3058C56.4845 56.3146 55.6519 56.0489 54.9609 55.5484C54.27 55.0435 53.7563 54.3349 53.495 53.52L53.2159 52.6563C53.1451 52.4349 53.0255 52.2356 52.8572 52.0717C52.6933 51.9167 52.4896 51.8016 52.2726 51.7396C51.5861 51.5358 50.913 51.3011 50.2531 51.0265C49.5976 50.7519 48.9511 50.4463 48.3266 50.1053C48.1273 49.9902 47.9014 49.9282 47.6755 49.9237C47.4452 49.9237 47.2149 49.9813 47.0156 50.0876L46.2052 50.5039H46.2007C44.6418 51.3055 42.7418 51.0044 41.5106 49.7554L40.5186 48.7678C40.492 48.7368 40.4654 48.7102 40.4388 48.6792H40.4344C39.2563 47.4391 38.9951 45.5923 39.7745 44.0732L40.1864 43.2672C40.2971 43.0634 40.3547 42.8376 40.3547 42.6029C40.3503 42.3726 40.2883 42.1511 40.1731 41.9474C39.8321 41.3229 39.5221 40.6763 39.2475 40.0209C38.9729 39.361 38.7382 38.6922 38.5344 38.0102C38.4768 37.7843 38.3617 37.5806 38.1978 37.4123C38.0384 37.2484 37.8391 37.1333 37.6176 37.0669L36.7585 36.7834C35.0843 36.252 33.9549 34.6929 33.9683 32.9392V31.5485C33.955 29.7947 35.0844 28.2357 36.7585 27.7043L37.6176 27.4209C37.8391 27.3588 38.0384 27.2393 38.1978 27.0754C38.3617 26.9071 38.4768 26.7034 38.5344 26.4775C38.7382 25.7955 38.9773 25.1223 39.2519 24.4669C39.5265 23.807 39.8321 23.1604 40.1775 22.5315C40.4123 22.1285 40.4167 21.628 40.1864 21.2206L39.7745 20.4101V20.4057C39.3848 19.6484 39.2475 18.7847 39.3803 17.9432C39.5132 17.0973 39.9118 16.3178 40.5185 15.7156L41.5106 14.7235C42.7462 13.479 44.6462 13.1823 46.2051 13.9795L47.0156 14.3958C47.2193 14.5065 47.4452 14.5641 47.6755 14.5641C47.9058 14.5552 48.1273 14.4932 48.3266 14.3825C49.58 13.696 50.9041 13.1513 52.2771 12.7438C52.4986 12.6863 52.6978 12.5711 52.8617 12.4161C53.03 12.2522 53.154 12.0529 53.2205 11.8315L53.4995 10.9679C54.0354 9.29814 55.5899 8.16878 57.3437 8.16878H58.7476C60.5015 8.16435 62.056 9.29813 62.5919 10.9679L62.8044 11.6366C62.8133 11.6543 62.8222 11.6765 62.8266 11.6986L62.8709 11.8315H62.8664C62.9373 12.0529 63.0613 12.2522 63.2252 12.4161C63.3935 12.5711 63.5928 12.6863 63.8142 12.7438L63.8009 12.7438ZM64.8107 15.8882C64.235 15.6491 63.6504 15.4409 63.0613 15.2682C61.7725 14.905 60.7584 13.9174 60.3641 12.6463L60.3243 12.5134L60.3021 12.447L60.0807 11.7783C59.8991 11.1936 59.3544 10.795 58.7432 10.8083H57.3348C56.7236 10.795 56.1789 11.1936 55.9972 11.7783L55.7182 12.6419V12.6463C55.5145 13.2708 55.1691 13.8377 54.6996 14.2982C54.2301 14.7544 53.65 15.0866 53.0166 15.2682C52.4187 15.4453 51.8429 15.6535 51.2672 15.8882C50.6959 16.1274 50.1378 16.3931 49.5975 16.6898C49.0217 17.0087 48.3751 17.1814 47.7197 17.1903C47.0598 17.1991 46.4132 17.0486 45.8285 16.743L45.0181 16.3311C44.7523 16.1938 44.4556 16.1406 44.1589 16.1849C43.8621 16.2336 43.592 16.3754 43.3838 16.5924L42.3918 17.58C42.1792 17.7882 42.0375 18.0628 41.9843 18.3551C41.9444 18.6518 41.9976 18.9529 42.1349 19.2187L42.5468 20.0247C43.1624 21.2117 43.1447 22.6289 42.4936 23.7937C42.1969 24.3428 41.9312 24.9009 41.692 25.4767C41.4528 26.0435 41.2447 26.6281 41.072 27.2217C40.7044 28.5016 39.7167 29.5158 38.4457 29.9232L37.582 30.2023V30.1978C37.2986 30.2908 37.0506 30.468 36.8734 30.7071C36.6963 30.9507 36.6033 31.243 36.6077 31.5442V32.9437V32.9393C36.6033 33.2405 36.6963 33.5328 36.8734 33.7764C37.0506 34.0155 37.2986 34.1927 37.582 34.2812L38.4457 34.5647V34.5603C39.7212 34.9677 40.7044 35.9819 41.072 37.2618C41.2447 37.8553 41.4528 38.44 41.692 39.0068C41.9312 39.5826 42.1969 40.1451 42.4936 40.6898C43.1447 41.859 43.1624 43.2718 42.5468 44.4588L42.1349 45.2648C41.8514 45.783 41.9356 46.4207 42.3386 46.8503C42.3608 46.8636 42.3785 46.8813 42.3918 46.9034L43.3838 47.8911C43.8046 48.3428 44.4777 48.4491 45.0181 48.1524L45.8285 47.7361C47.0155 47.1249 48.4283 47.147 49.5975 47.7936C50.1422 48.0904 50.6958 48.3561 51.2672 48.5953C51.8429 48.8344 52.4231 49.0381 53.0166 49.2153C54.3054 49.5785 55.3195 50.5661 55.7182 51.8416L55.9972 52.7008C56.0858 52.9842 56.2629 53.2367 56.5065 53.4138C56.7501 53.5866 57.0424 53.6796 57.3391 53.6796H58.7431C59.0443 53.684 59.3366 53.591 59.5802 53.4183C59.8237 53.2411 60.0009 52.9887 60.0895 52.7008L60.3109 52.0409L60.3508 51.908L60.3729 51.8416H60.3685C60.7671 50.5705 61.7813 49.5829 63.0657 49.2197C63.6635 49.0426 64.2393 48.8344 64.8151 48.5997H64.8195C65.3908 48.3605 65.9533 48.0948 66.4981 47.7981C67.0738 47.4792 67.7204 47.3065 68.3759 47.2976C69.0313 47.2887 69.6779 47.4393 70.2626 47.7405L71.0731 48.1568C71.3388 48.2941 71.6355 48.3472 71.9322 48.3074C72.229 48.2542 72.4991 48.1081 72.7117 47.8955L73.1325 47.4748C73.1546 47.4482 73.1812 47.426 73.2033 47.3995L73.6994 46.9079C73.9075 46.6997 74.0492 46.4296 74.0979 46.1373C74.1467 45.8405 74.0935 45.5394 73.9562 45.2736L73.5399 44.4632V44.4587C72.9287 43.2762 72.9509 41.8634 73.5975 40.6986C73.8942 40.1539 74.1599 39.5914 74.3947 39.0157C74.6294 38.4443 74.8376 37.8642 75.0147 37.2706C75.3823 35.9863 76.3699 34.9721 77.641 34.5691L78.5046 34.2856H78.5091C78.7925 34.197 79.0405 34.0243 79.2177 33.7852C79.3904 33.5416 79.4878 33.2493 79.4834 32.9481V31.5486C79.4878 31.2474 79.3904 30.9551 79.2177 30.7115C79.0405 30.4724 78.7925 30.2952 78.5091 30.2066L77.6499 29.9276H77.6454C76.3744 29.5246 75.3867 28.5104 75.0236 27.226C74.8464 26.637 74.6383 26.0523 74.4035 25.481C74.1644 24.9053 73.8986 24.3472 73.6019 23.798C73.283 23.2223 73.1103 22.5801 73.1014 21.9203C73.0882 21.2648 73.2387 20.6138 73.5399 20.0247L73.9562 19.2186C74.0935 18.9529 74.1467 18.6517 74.0979 18.355C74.0492 18.0627 73.9075 17.7926 73.6949 17.58L72.7029 16.5968H72.6984C72.2777 16.1495 71.6045 16.0432 71.0598 16.3355L70.2493 16.7473C69.6691 17.0529 69.0225 17.2079 68.367 17.1947C67.7071 17.1858 67.0649 17.0131 66.4892 16.6942C65.94 16.3975 65.382 16.1317 64.8062 15.8926L64.8107 15.8882ZM23.0024 65.7702H13.631V95.3676H23.0024V65.7702ZM30.6687 82.5116L30.5713 78.2246V78.0519V77.8791C30.5713 77.4274 30.6067 76.9712 30.6776 76.5195V68.8797V68.8842C30.6687 68.3217 30.217 67.8744 29.659 67.8655H25.6464V93.2645H29.6545C30.2126 93.2601 30.6687 92.8084 30.6732 92.2459L30.6687 82.5116ZM33.295 76.7542V82.9412L33.4235 88.5526L69.1286 88.34C69.9081 88.34 70.6522 87.5206 71.3652 86.7234C71.6929 86.3647 72.0118 86.006 72.3263 85.7137L82.7961 75.8639L82.7917 75.8595C83.642 75.0047 83.8457 73.7071 83.301 72.6352C83.1017 72.1658 82.8182 71.7362 82.4639 71.3641C82.1406 71.0143 81.7509 70.7308 81.3169 70.5359C80.2141 70.0842 78.943 70.4031 78.1857 71.3198L70.9446 78.5876H70.9401C69.39 80.1865 67.2154 81.0279 64.9922 80.8906L62.4988 80.7621L47.7505 80.74V80.7444C47.0242 80.7444 46.4351 80.1554 46.4351 79.429C46.4351 78.7071 47.0241 78.1181 47.7505 78.1181L62.5691 78.1403H63.9066C64.5089 78.1403 65.0891 77.8967 65.5099 77.4671C65.9351 77.0419 66.1742 76.4617 66.1742 75.8594C66.1742 75.2615 65.9306 74.6857 65.5055 74.2651C65.0803 73.8355 64.5001 73.5919 63.8978 73.5963L56.6167 73.6052V73.6096C56.2225 73.6317 55.8417 73.4767 55.5715 73.1889C54.3492 71.9222 52.8567 70.9478 51.2046 70.3367C49.3445 69.6281 47.3693 69.2694 45.3807 69.2826C42.2495 69.2206 39.1848 70.1463 36.6116 71.931C34.9374 73.0604 33.755 74.7832 33.3032 76.7496L33.295 76.7542Z"/>
</mask>
<path d="M69.0843 76.7459L76.3254 69.4781H76.3298C77.8312 67.7509 80.2848 67.2061 82.3796 68.1362C83.1369 68.4772 83.8234 68.9688 84.3903 69.5755C84.9571 70.1734 85.4089 70.8687 85.7322 71.6261C86.7243 73.7076 86.2681 76.1922 84.5984 77.7822L74.1374 87.6319C73.8496 87.8977 73.5883 88.1944 73.3225 88.4867C72.2153 89.7046 71.0903 90.958 69.1461 90.9713L33.3038 91.1839V92.2512L33.2994 92.2468C33.2994 94.2663 31.6651 95.9006 29.6455 95.905H25.6285C25.5178 97.0876 24.5258 97.9955 23.3344 97.9999H13.3075C12.6963 98.0044 12.1073 97.7608 11.6732 97.3268C11.2392 96.8927 10.9956 96.3037 11.0001 95.6925V65.4432C10.9956 64.832 11.2392 64.2429 11.6732 63.8089C12.1028 63.3749 12.6919 63.1313 13.3031 63.1313H23.33C24.5214 63.1357 25.5179 64.0481 25.6241 65.235H29.6455C30.611 65.235 31.5411 65.6204 32.2275 66.3024C32.914 66.9889 33.2993 67.9189 33.2949 68.8888V71.3557V71.3512C33.8308 70.7844 34.4198 70.2662 35.0531 69.8011C38.0736 67.6886 41.6876 66.5858 45.3768 66.6433C47.6931 66.6345 49.9872 67.0552 52.153 67.8835C53.991 68.5788 55.6695 69.6329 57.0912 70.9881L63.8939 70.9792V70.9748C66.5999 70.9792 68.7922 73.1671 68.801 75.8687C68.801 76.3071 68.7434 76.7456 68.6238 77.1663C68.7833 77.0379 68.9383 76.9006 69.0844 76.7544L69.0843 76.7459ZM70.2357 3.59415H70.2402C70.0896 2.89883 70.5148 2.2123 71.2057 2.03962C71.8921 1.8669 72.5964 2.27435 72.7867 2.96082L73.7699 6.89811C73.8496 7.23913 73.7965 7.59344 73.6149 7.89461C73.4333 8.19134 73.141 8.40393 72.8 8.48807L68.8717 9.46685C68.1675 9.63957 67.4544 9.20998 67.2818 8.50578C67.109 7.8016 67.5386 7.08855 68.2428 6.91588L68.7123 6.7963C62.5296 4.20537 55.6159 3.95299 49.2611 6.08325C42.9057 8.21794 37.5423 12.5892 34.1716 18.3825L34.1406 18.4445H34.1361C31.1732 23.5819 29.942 29.5343 30.624 35.4207C31.3016 41.311 33.8615 46.8254 37.9183 51.1474C38.4143 51.6789 38.3922 52.5115 37.8607 53.0075C37.3337 53.5035 36.5011 53.4814 36.0006 52.9499C31.5585 48.2155 28.7551 42.179 28.0066 35.73C27.2625 29.2772 28.6133 22.7618 31.8596 17.1382L31.9083 17.0585C35.6684 10.5792 41.7005 5.73393 48.8357 3.45309C55.9706 1.17226 63.6985 1.62396 70.5194 4.71976L70.2357 3.59415ZM45.8458 60.9035C46.0185 61.6077 45.5889 62.3208 44.8803 62.4979C44.1761 62.6706 43.4586 62.2366 43.286 61.5324L42.3116 57.5951C42.1345 56.8909 42.5641 56.1779 43.2638 56.0008L47.1921 55.0176V55.022C47.9008 54.8493 48.6138 55.2788 48.7865 55.983C48.9592 56.6917 48.5296 57.4047 47.821 57.5774L47.3515 57.697H47.356C55.2571 61.0142 64.2516 60.4738 71.6972 56.231C79.1421 51.9925 84.1994 44.5349 85.3774 36.0439C86.5555 27.5538 83.7255 19.002 77.7155 12.8898C77.4719 12.6418 77.3346 12.3052 77.3391 11.9598C77.3391 11.6099 77.4808 11.2777 77.7288 11.0297C78.247 10.5204 79.0796 10.5292 79.5889 11.043C86.241 17.8058 89.3324 27.2969 87.9373 36.6812C86.5466 46.0615 80.829 54.2458 72.5031 58.781C64.1768 63.3205 54.1981 63.6881 45.5621 59.773L45.8458 60.9035ZM59.3582 40.0566C59.3582 40.783 58.7692 41.3765 58.0428 41.3765C57.312 41.3765 56.723 40.783 56.723 40.0566V39.4499C56.0542 39.2373 55.4475 38.8697 54.9558 38.3737C54.1365 37.5588 53.6759 36.4472 53.6759 35.2911C53.6759 34.5604 54.265 33.9713 54.9913 33.9713C55.7221 33.9713 56.3112 34.5603 56.3112 35.2911C56.3112 35.9865 56.7319 36.6198 57.3741 36.8855C58.0207 37.1556 58.7648 37.0051 59.2564 36.509C59.748 36.0174 59.8986 35.2779 59.6329 34.6313C59.3671 33.9891 58.7382 33.5683 58.0429 33.5639C56.2758 33.5683 54.6815 32.5054 54.0083 30.8756C53.3306 29.2413 53.7071 27.3635 54.956 26.119C55.4476 25.623 56.0544 25.2554 56.7232 25.0428V24.4361C56.7232 23.7097 57.3122 23.1162 58.043 23.1162C58.7693 23.1162 59.3584 23.7097 59.3584 24.4361V25.0428C61.1699 25.623 62.401 27.306 62.401 29.2104C62.401 29.9367 61.812 30.5258 61.0856 30.5258C60.3549 30.5258 59.7658 29.9368 59.7658 29.2104C59.7791 28.7409 59.6019 28.2936 59.2742 27.957C58.9509 27.6248 58.5036 27.4344 58.0386 27.4344C57.5735 27.4344 57.1262 27.6248 56.803 27.957C56.4753 28.2936 56.2981 28.7409 56.3114 29.2104C56.3114 29.6665 56.4974 30.1006 56.8207 30.4239C57.1396 30.7516 57.5825 30.9332 58.043 30.9332C60.191 30.9332 62.0201 32.5054 62.3479 34.6312C62.6756 36.7571 61.4046 38.8032 59.354 39.4498L59.3582 40.0566ZM58.0473 21.4864C52.9099 21.482 48.4899 25.1048 47.4845 30.1403C46.4792 35.1804 49.172 40.2248 53.9153 42.1913C58.6586 44.1579 64.1282 42.5014 66.9844 38.2319C69.841 33.967 69.2829 28.2759 65.6513 24.6401C63.6362 22.6206 60.8995 21.4819 58.0473 21.4864ZM48.5652 22.7707C53.087 18.2489 60.1728 17.5491 65.488 21.101C70.8071 24.6529 72.8709 31.4645 70.4262 37.3731C67.9816 43.2811 61.7014 46.6383 55.4297 45.3893C49.1585 44.1447 44.641 38.6398 44.641 32.2442C44.6366 28.6923 46.0496 25.282 48.5652 22.7707ZM63.8009 12.7438C64.4874 12.9475 65.1606 13.1867 65.8204 13.4613C66.4759 13.7359 67.1225 14.0414 67.747 14.3869C68.15 14.6216 68.6505 14.6261 69.0578 14.4002L69.8683 13.9839C71.4273 13.1822 73.3228 13.4834 74.5584 14.7279L75.5549 15.7244C76.8039 16.9556 77.1051 18.86 76.299 20.4145L75.8871 21.225V21.2294C75.7764 21.4332 75.7232 21.659 75.7188 21.8893C75.7277 22.1196 75.7897 22.3411 75.9004 22.5404C76.2458 23.1693 76.5514 23.8115 76.826 24.4757C77.1006 25.1312 77.3354 25.8044 77.5346 26.4864C77.5966 26.7078 77.7118 26.916 77.8712 27.0843C78.0351 27.2437 78.2344 27.3633 78.4558 27.4297L79.3195 27.7132C80.9936 28.2402 82.123 29.8036 82.1052 31.5574V32.9569V32.9525C82.1229 34.7108 80.9935 36.2697 79.3195 36.7967L78.4558 37.0802C78.2344 37.1466 78.0351 37.2662 77.8712 37.4256C77.7118 37.5939 77.5966 37.8021 77.5346 38.0235C77.1361 39.392 76.5869 40.7118 75.9004 41.9608C75.7897 42.1645 75.7277 42.3904 75.7188 42.6207C75.7233 42.851 75.7808 43.0769 75.8871 43.2806L76.299 44.0866C77.1051 45.6456 76.8039 47.5456 75.555 48.7768V48.7812L75.0589 49.2772C75.0368 49.2994 75.0102 49.3215 74.9881 49.3392L74.554 49.7644L74.5585 49.7732C73.3273 51.0178 71.4273 51.3234 69.8683 50.5173L69.0579 50.101C68.6504 49.8751 68.15 49.884 67.747 50.1187C67.1225 50.4597 66.4759 50.7697 65.8205 51.0443C65.1606 51.3145 64.4874 51.5536 63.801 51.7574C63.584 51.8194 63.3802 51.9345 63.2164 52.0895C63.0525 52.2534 62.9285 52.4527 62.8576 52.6697L62.8355 52.7273L62.7912 52.8646L62.5786 53.5333C62.0516 55.2075 60.4881 56.3413 58.7344 56.3235V56.3279H57.3349V56.3058C56.4845 56.3146 55.6519 56.0489 54.9609 55.5484C54.27 55.0435 53.7563 54.3349 53.495 53.52L53.2159 52.6563C53.1451 52.4349 53.0255 52.2356 52.8572 52.0717C52.6933 51.9167 52.4896 51.8016 52.2726 51.7396C51.5861 51.5358 50.913 51.3011 50.2531 51.0265C49.5976 50.7519 48.9511 50.4463 48.3266 50.1053C48.1273 49.9902 47.9014 49.9282 47.6755 49.9237C47.4452 49.9237 47.2149 49.9813 47.0156 50.0876L46.2052 50.5039H46.2007C44.6418 51.3055 42.7418 51.0044 41.5106 49.7554L40.5186 48.7678C40.492 48.7368 40.4654 48.7102 40.4388 48.6792H40.4344C39.2563 47.4391 38.9951 45.5923 39.7745 44.0732L40.1864 43.2672C40.2971 43.0634 40.3547 42.8376 40.3547 42.6029C40.3503 42.3726 40.2883 42.1511 40.1731 41.9474C39.8321 41.3229 39.5221 40.6763 39.2475 40.0209C38.9729 39.361 38.7382 38.6922 38.5344 38.0102C38.4768 37.7843 38.3617 37.5806 38.1978 37.4123C38.0384 37.2484 37.8391 37.1333 37.6176 37.0669L36.7585 36.7834C35.0843 36.252 33.9549 34.6929 33.9683 32.9392V31.5485C33.955 29.7947 35.0844 28.2357 36.7585 27.7043L37.6176 27.4209C37.8391 27.3588 38.0384 27.2393 38.1978 27.0754C38.3617 26.9071 38.4768 26.7034 38.5344 26.4775C38.7382 25.7955 38.9773 25.1223 39.2519 24.4669C39.5265 23.807 39.8321 23.1604 40.1775 22.5315C40.4123 22.1285 40.4167 21.628 40.1864 21.2206L39.7745 20.4101V20.4057C39.3848 19.6484 39.2475 18.7847 39.3803 17.9432C39.5132 17.0973 39.9118 16.3178 40.5185 15.7156L41.5106 14.7235C42.7462 13.479 44.6462 13.1823 46.2051 13.9795L47.0156 14.3958C47.2193 14.5065 47.4452 14.5641 47.6755 14.5641C47.9058 14.5552 48.1273 14.4932 48.3266 14.3825C49.58 13.696 50.9041 13.1513 52.2771 12.7438C52.4986 12.6863 52.6978 12.5711 52.8617 12.4161C53.03 12.2522 53.154 12.0529 53.2205 11.8315L53.4995 10.9679C54.0354 9.29814 55.5899 8.16878 57.3437 8.16878H58.7476C60.5015 8.16435 62.056 9.29813 62.5919 10.9679L62.8044 11.6366C62.8133 11.6543 62.8222 11.6765 62.8266 11.6986L62.8709 11.8315H62.8664C62.9373 12.0529 63.0613 12.2522 63.2252 12.4161C63.3935 12.5711 63.5928 12.6863 63.8142 12.7438L63.8009 12.7438ZM64.8107 15.8882C64.235 15.6491 63.6504 15.4409 63.0613 15.2682C61.7725 14.905 60.7584 13.9174 60.3641 12.6463L60.3243 12.5134L60.3021 12.447L60.0807 11.7783C59.8991 11.1936 59.3544 10.795 58.7432 10.8083H57.3348C56.7236 10.795 56.1789 11.1936 55.9972 11.7783L55.7182 12.6419V12.6463C55.5145 13.2708 55.1691 13.8377 54.6996 14.2982C54.2301 14.7544 53.65 15.0866 53.0166 15.2682C52.4187 15.4453 51.8429 15.6535 51.2672 15.8882C50.6959 16.1274 50.1378 16.3931 49.5975 16.6898C49.0217 17.0087 48.3751 17.1814 47.7197 17.1903C47.0598 17.1991 46.4132 17.0486 45.8285 16.743L45.0181 16.3311C44.7523 16.1938 44.4556 16.1406 44.1589 16.1849C43.8621 16.2336 43.592 16.3754 43.3838 16.5924L42.3918 17.58C42.1792 17.7882 42.0375 18.0628 41.9843 18.3551C41.9444 18.6518 41.9976 18.9529 42.1349 19.2187L42.5468 20.0247C43.1624 21.2117 43.1447 22.6289 42.4936 23.7937C42.1969 24.3428 41.9312 24.9009 41.692 25.4767C41.4528 26.0435 41.2447 26.6281 41.072 27.2217C40.7044 28.5016 39.7167 29.5158 38.4457 29.9232L37.582 30.2023V30.1978C37.2986 30.2908 37.0506 30.468 36.8734 30.7071C36.6963 30.9507 36.6033 31.243 36.6077 31.5442V32.9437V32.9393C36.6033 33.2405 36.6963 33.5328 36.8734 33.7764C37.0506 34.0155 37.2986 34.1927 37.582 34.2812L38.4457 34.5647V34.5603C39.7212 34.9677 40.7044 35.9819 41.072 37.2618C41.2447 37.8553 41.4528 38.44 41.692 39.0068C41.9312 39.5826 42.1969 40.1451 42.4936 40.6898C43.1447 41.859 43.1624 43.2718 42.5468 44.4588L42.1349 45.2648C41.8514 45.783 41.9356 46.4207 42.3386 46.8503C42.3608 46.8636 42.3785 46.8813 42.3918 46.9034L43.3838 47.8911C43.8046 48.3428 44.4777 48.4491 45.0181 48.1524L45.8285 47.7361C47.0155 47.1249 48.4283 47.147 49.5975 47.7936C50.1422 48.0904 50.6958 48.3561 51.2672 48.5953C51.8429 48.8344 52.4231 49.0381 53.0166 49.2153C54.3054 49.5785 55.3195 50.5661 55.7182 51.8416L55.9972 52.7008C56.0858 52.9842 56.2629 53.2367 56.5065 53.4138C56.7501 53.5866 57.0424 53.6796 57.3391 53.6796H58.7431C59.0443 53.684 59.3366 53.591 59.5802 53.4183C59.8237 53.2411 60.0009 52.9887 60.0895 52.7008L60.3109 52.0409L60.3508 51.908L60.3729 51.8416H60.3685C60.7671 50.5705 61.7813 49.5829 63.0657 49.2197C63.6635 49.0426 64.2393 48.8344 64.8151 48.5997H64.8195C65.3908 48.3605 65.9533 48.0948 66.4981 47.7981C67.0738 47.4792 67.7204 47.3065 68.3759 47.2976C69.0313 47.2887 69.6779 47.4393 70.2626 47.7405L71.0731 48.1568C71.3388 48.2941 71.6355 48.3472 71.9322 48.3074C72.229 48.2542 72.4991 48.1081 72.7117 47.8955L73.1325 47.4748C73.1546 47.4482 73.1812 47.426 73.2033 47.3995L73.6994 46.9079C73.9075 46.6997 74.0492 46.4296 74.0979 46.1373C74.1467 45.8405 74.0935 45.5394 73.9562 45.2736L73.5399 44.4632V44.4587C72.9287 43.2762 72.9509 41.8634 73.5975 40.6986C73.8942 40.1539 74.1599 39.5914 74.3947 39.0157C74.6294 38.4443 74.8376 37.8642 75.0147 37.2706C75.3823 35.9863 76.3699 34.9721 77.641 34.5691L78.5046 34.2856H78.5091C78.7925 34.197 79.0405 34.0243 79.2177 33.7852C79.3904 33.5416 79.4878 33.2493 79.4834 32.9481V31.5486C79.4878 31.2474 79.3904 30.9551 79.2177 30.7115C79.0405 30.4724 78.7925 30.2952 78.5091 30.2066L77.6499 29.9276H77.6454C76.3744 29.5246 75.3867 28.5104 75.0236 27.226C74.8464 26.637 74.6383 26.0523 74.4035 25.481C74.1644 24.9053 73.8986 24.3472 73.6019 23.798C73.283 23.2223 73.1103 22.5801 73.1014 21.9203C73.0882 21.2648 73.2387 20.6138 73.5399 20.0247L73.9562 19.2186C74.0935 18.9529 74.1467 18.6517 74.0979 18.355C74.0492 18.0627 73.9075 17.7926 73.6949 17.58L72.7029 16.5968H72.6984C72.2777 16.1495 71.6045 16.0432 71.0598 16.3355L70.2493 16.7473C69.6691 17.0529 69.0225 17.2079 68.367 17.1947C67.7071 17.1858 67.0649 17.0131 66.4892 16.6942C65.94 16.3975 65.382 16.1317 64.8062 15.8926L64.8107 15.8882ZM23.0024 65.7702H13.631V95.3676H23.0024V65.7702ZM30.6687 82.5116L30.5713 78.2246V78.0519V77.8791C30.5713 77.4274 30.6067 76.9712 30.6776 76.5195V68.8797V68.8842C30.6687 68.3217 30.217 67.8744 29.659 67.8655H25.6464V93.2645H29.6545C30.2126 93.2601 30.6687 92.8084 30.6732 92.2459L30.6687 82.5116ZM33.295 76.7542V82.9412L33.4235 88.5526L69.1286 88.34C69.9081 88.34 70.6522 87.5206 71.3652 86.7234C71.6929 86.3647 72.0118 86.006 72.3263 85.7137L82.7961 75.8639L82.7917 75.8595C83.642 75.0047 83.8457 73.7071 83.301 72.6352C83.1017 72.1658 82.8182 71.7362 82.4639 71.3641C82.1406 71.0143 81.7509 70.7308 81.3169 70.5359C80.2141 70.0842 78.943 70.4031 78.1857 71.3198L70.9446 78.5876H70.9401C69.39 80.1865 67.2154 81.0279 64.9922 80.8906L62.4988 80.7621L47.7505 80.74V80.7444C47.0242 80.7444 46.4351 80.1554 46.4351 79.429C46.4351 78.7071 47.0241 78.1181 47.7505 78.1181L62.5691 78.1403H63.9066C64.5089 78.1403 65.0891 77.8967 65.5099 77.4671C65.9351 77.0419 66.1742 76.4617 66.1742 75.8594C66.1742 75.2615 65.9306 74.6857 65.5055 74.2651C65.0803 73.8355 64.5001 73.5919 63.8978 73.5963L56.6167 73.6052V73.6096C56.2225 73.6317 55.8417 73.4767 55.5715 73.1889C54.3492 71.9222 52.8567 70.9478 51.2046 70.3367C49.3445 69.6281 47.3693 69.2694 45.3807 69.2826C42.2495 69.2206 39.1848 70.1463 36.6116 71.931C34.9374 73.0604 33.755 74.7832 33.3032 76.7496L33.295 76.7542Z" fill="black"/>
<path d="M69.0843 76.7459L76.3254 69.4781H76.3298C77.8312 67.7509 80.2848 67.2061 82.3796 68.1362C83.1369 68.4772 83.8234 68.9688 84.3903 69.5755C84.9571 70.1734 85.4089 70.8687 85.7322 71.6261C86.7243 73.7076 86.2681 76.1922 84.5984 77.7822L74.1374 87.6319C73.8496 87.8977 73.5883 88.1944 73.3225 88.4867C72.2153 89.7046 71.0903 90.958 69.1461 90.9713L33.3038 91.1839V92.2512L33.2994 92.2468C33.2994 94.2663 31.6651 95.9006 29.6455 95.905H25.6285C25.5178 97.0876 24.5258 97.9955 23.3344 97.9999H13.3075C12.6963 98.0044 12.1073 97.7608 11.6732 97.3268C11.2392 96.8927 10.9956 96.3037 11.0001 95.6925V65.4432C10.9956 64.832 11.2392 64.2429 11.6732 63.8089C12.1028 63.3749 12.6919 63.1313 13.3031 63.1313H23.33C24.5214 63.1357 25.5179 64.0481 25.6241 65.235H29.6455C30.611 65.235 31.5411 65.6204 32.2275 66.3024C32.914 66.9889 33.2993 67.9189 33.2949 68.8888V71.3557V71.3512C33.8308 70.7844 34.4198 70.2662 35.0531 69.8011C38.0736 67.6886 41.6876 66.5858 45.3768 66.6433C47.6931 66.6345 49.9872 67.0552 52.153 67.8835C53.991 68.5788 55.6695 69.6329 57.0912 70.9881L63.8939 70.9792V70.9748C66.5999 70.9792 68.7922 73.1671 68.801 75.8687C68.801 76.3071 68.7434 76.7456 68.6238 77.1663C68.7833 77.0379 68.9383 76.9006 69.0844 76.7544L69.0843 76.7459ZM70.2357 3.59415H70.2402C70.0896 2.89883 70.5148 2.2123 71.2057 2.03962C71.8921 1.8669 72.5964 2.27435 72.7867 2.96082L73.7699 6.89811C73.8496 7.23913 73.7965 7.59344 73.6149 7.89461C73.4333 8.19134 73.141 8.40393 72.8 8.48807L68.8717 9.46685C68.1675 9.63957 67.4544 9.20998 67.2818 8.50578C67.109 7.8016 67.5386 7.08855 68.2428 6.91588L68.7123 6.7963C62.5296 4.20537 55.6159 3.95299 49.2611 6.08325C42.9057 8.21794 37.5423 12.5892 34.1716 18.3825L34.1406 18.4445H34.1361C31.1732 23.5819 29.942 29.5343 30.624 35.4207C31.3016 41.311 33.8615 46.8254 37.9183 51.1474C38.4143 51.6789 38.3922 52.5115 37.8607 53.0075C37.3337 53.5035 36.5011 53.4814 36.0006 52.9499C31.5585 48.2155 28.7551 42.179 28.0066 35.73C27.2625 29.2772 28.6133 22.7618 31.8596 17.1382L31.9083 17.0585C35.6684 10.5792 41.7005 5.73393 48.8357 3.45309C55.9706 1.17226 63.6985 1.62396 70.5194 4.71976L70.2357 3.59415ZM45.8458 60.9035C46.0185 61.6077 45.5889 62.3208 44.8803 62.4979C44.1761 62.6706 43.4586 62.2366 43.286 61.5324L42.3116 57.5951C42.1345 56.8909 42.5641 56.1779 43.2638 56.0008L47.1921 55.0176V55.022C47.9008 54.8493 48.6138 55.2788 48.7865 55.983C48.9592 56.6917 48.5296 57.4047 47.821 57.5774L47.3515 57.697H47.356C55.2571 61.0142 64.2516 60.4738 71.6972 56.231C79.1421 51.9925 84.1994 44.5349 85.3774 36.0439C86.5555 27.5538 83.7255 19.002 77.7155 12.8898C77.4719 12.6418 77.3346 12.3052 77.3391 11.9598C77.3391 11.6099 77.4808 11.2777 77.7288 11.0297C78.247 10.5204 79.0796 10.5292 79.5889 11.043C86.241 17.8058 89.3324 27.2969 87.9373 36.6812C86.5466 46.0615 80.829 54.2458 72.5031 58.781C64.1768 63.3205 54.1981 63.6881 45.5621 59.773L45.8458 60.9035ZM59.3582 40.0566C59.3582 40.783 58.7692 41.3765 58.0428 41.3765C57.312 41.3765 56.723 40.783 56.723 40.0566V39.4499C56.0542 39.2373 55.4475 38.8697 54.9558 38.3737C54.1365 37.5588 53.6759 36.4472 53.6759 35.2911C53.6759 34.5604 54.265 33.9713 54.9913 33.9713C55.7221 33.9713 56.3112 34.5603 56.3112 35.2911C56.3112 35.9865 56.7319 36.6198 57.3741 36.8855C58.0207 37.1556 58.7648 37.0051 59.2564 36.509C59.748 36.0174 59.8986 35.2779 59.6329 34.6313C59.3671 33.9891 58.7382 33.5683 58.0429 33.5639C56.2758 33.5683 54.6815 32.5054 54.0083 30.8756C53.3306 29.2413 53.7071 27.3635 54.956 26.119C55.4476 25.623 56.0544 25.2554 56.7232 25.0428V24.4361C56.7232 23.7097 57.3122 23.1162 58.043 23.1162C58.7693 23.1162 59.3584 23.7097 59.3584 24.4361V25.0428C61.1699 25.623 62.401 27.306 62.401 29.2104C62.401 29.9367 61.812 30.5258 61.0856 30.5258C60.3549 30.5258 59.7658 29.9368 59.7658 29.2104C59.7791 28.7409 59.6019 28.2936 59.2742 27.957C58.9509 27.6248 58.5036 27.4344 58.0386 27.4344C57.5735 27.4344 57.1262 27.6248 56.803 27.957C56.4753 28.2936 56.2981 28.7409 56.3114 29.2104C56.3114 29.6665 56.4974 30.1006 56.8207 30.4239C57.1396 30.7516 57.5825 30.9332 58.043 30.9332C60.191 30.9332 62.0201 32.5054 62.3479 34.6312C62.6756 36.7571 61.4046 38.8032 59.354 39.4498L59.3582 40.0566ZM58.0473 21.4864C52.9099 21.482 48.4899 25.1048 47.4845 30.1403C46.4792 35.1804 49.172 40.2248 53.9153 42.1913C58.6586 44.1579 64.1282 42.5014 66.9844 38.2319C69.841 33.967 69.2829 28.2759 65.6513 24.6401C63.6362 22.6206 60.8995 21.4819 58.0473 21.4864ZM48.5652 22.7707C53.087 18.2489 60.1728 17.5491 65.488 21.101C70.8071 24.6529 72.8709 31.4645 70.4262 37.3731C67.9816 43.2811 61.7014 46.6383 55.4297 45.3893C49.1585 44.1447 44.641 38.6398 44.641 32.2442C44.6366 28.6923 46.0496 25.282 48.5652 22.7707ZM63.8009 12.7438C64.4874 12.9475 65.1606 13.1867 65.8204 13.4613C66.4759 13.7359 67.1225 14.0414 67.747 14.3869C68.15 14.6216 68.6505 14.6261 69.0578 14.4002L69.8683 13.9839C71.4273 13.1822 73.3228 13.4834 74.5584 14.7279L75.5549 15.7244C76.8039 16.9556 77.1051 18.86 76.299 20.4145L75.8871 21.225V21.2294C75.7764 21.4332 75.7232 21.659 75.7188 21.8893C75.7277 22.1196 75.7897 22.3411 75.9004 22.5404C76.2458 23.1693 76.5514 23.8115 76.826 24.4757C77.1006 25.1312 77.3354 25.8044 77.5346 26.4864C77.5966 26.7078 77.7118 26.916 77.8712 27.0843C78.0351 27.2437 78.2344 27.3633 78.4558 27.4297L79.3195 27.7132C80.9936 28.2402 82.123 29.8036 82.1052 31.5574V32.9569V32.9525C82.1229 34.7108 80.9935 36.2697 79.3195 36.7967L78.4558 37.0802C78.2344 37.1466 78.0351 37.2662 77.8712 37.4256C77.7118 37.5939 77.5966 37.8021 77.5346 38.0235C77.1361 39.392 76.5869 40.7118 75.9004 41.9608C75.7897 42.1645 75.7277 42.3904 75.7188 42.6207C75.7233 42.851 75.7808 43.0769 75.8871 43.2806L76.299 44.0866C77.1051 45.6456 76.8039 47.5456 75.555 48.7768V48.7812L75.0589 49.2772C75.0368 49.2994 75.0102 49.3215 74.9881 49.3392L74.554 49.7644L74.5585 49.7732C73.3273 51.0178 71.4273 51.3234 69.8683 50.5173L69.0579 50.101C68.6504 49.8751 68.15 49.884 67.747 50.1187C67.1225 50.4597 66.4759 50.7697 65.8205 51.0443C65.1606 51.3145 64.4874 51.5536 63.801 51.7574C63.584 51.8194 63.3802 51.9345 63.2164 52.0895C63.0525 52.2534 62.9285 52.4527 62.8576 52.6697L62.8355 52.7273L62.7912 52.8646L62.5786 53.5333C62.0516 55.2075 60.4881 56.3413 58.7344 56.3235V56.3279H57.3349V56.3058C56.4845 56.3146 55.6519 56.0489 54.9609 55.5484C54.27 55.0435 53.7563 54.3349 53.495 53.52L53.2159 52.6563C53.1451 52.4349 53.0255 52.2356 52.8572 52.0717C52.6933 51.9167 52.4896 51.8016 52.2726 51.7396C51.5861 51.5358 50.913 51.3011 50.2531 51.0265C49.5976 50.7519 48.9511 50.4463 48.3266 50.1053C48.1273 49.9902 47.9014 49.9282 47.6755 49.9237C47.4452 49.9237 47.2149 49.9813 47.0156 50.0876L46.2052 50.5039H46.2007C44.6418 51.3055 42.7418 51.0044 41.5106 49.7554L40.5186 48.7678C40.492 48.7368 40.4654 48.7102 40.4388 48.6792H40.4344C39.2563 47.4391 38.9951 45.5923 39.7745 44.0732L40.1864 43.2672C40.2971 43.0634 40.3547 42.8376 40.3547 42.6029C40.3503 42.3726 40.2883 42.1511 40.1731 41.9474C39.8321 41.3229 39.5221 40.6763 39.2475 40.0209C38.9729 39.361 38.7382 38.6922 38.5344 38.0102C38.4768 37.7843 38.3617 37.5806 38.1978 37.4123C38.0384 37.2484 37.8391 37.1333 37.6176 37.0669L36.7585 36.7834C35.0843 36.252 33.9549 34.6929 33.9683 32.9392V31.5485C33.955 29.7947 35.0844 28.2357 36.7585 27.7043L37.6176 27.4209C37.8391 27.3588 38.0384 27.2393 38.1978 27.0754C38.3617 26.9071 38.4768 26.7034 38.5344 26.4775C38.7382 25.7955 38.9773 25.1223 39.2519 24.4669C39.5265 23.807 39.8321 23.1604 40.1775 22.5315C40.4123 22.1285 40.4167 21.628 40.1864 21.2206L39.7745 20.4101V20.4057C39.3848 19.6484 39.2475 18.7847 39.3803 17.9432C39.5132 17.0973 39.9118 16.3178 40.5185 15.7156L41.5106 14.7235C42.7462 13.479 44.6462 13.1823 46.2051 13.9795L47.0156 14.3958C47.2193 14.5065 47.4452 14.5641 47.6755 14.5641C47.9058 14.5552 48.1273 14.4932 48.3266 14.3825C49.58 13.696 50.9041 13.1513 52.2771 12.7438C52.4986 12.6863 52.6978 12.5711 52.8617 12.4161C53.03 12.2522 53.154 12.0529 53.2205 11.8315L53.4995 10.9679C54.0354 9.29814 55.5899 8.16878 57.3437 8.16878H58.7476C60.5015 8.16435 62.056 9.29813 62.5919 10.9679L62.8044 11.6366C62.8133 11.6543 62.8222 11.6765 62.8266 11.6986L62.8709 11.8315H62.8664C62.9373 12.0529 63.0613 12.2522 63.2252 12.4161C63.3935 12.5711 63.5928 12.6863 63.8142 12.7438L63.8009 12.7438ZM64.8107 15.8882C64.235 15.6491 63.6504 15.4409 63.0613 15.2682C61.7725 14.905 60.7584 13.9174 60.3641 12.6463L60.3243 12.5134L60.3021 12.447L60.0807 11.7783C59.8991 11.1936 59.3544 10.795 58.7432 10.8083H57.3348C56.7236 10.795 56.1789 11.1936 55.9972 11.7783L55.7182 12.6419V12.6463C55.5145 13.2708 55.1691 13.8377 54.6996 14.2982C54.2301 14.7544 53.65 15.0866 53.0166 15.2682C52.4187 15.4453 51.8429 15.6535 51.2672 15.8882C50.6959 16.1274 50.1378 16.3931 49.5975 16.6898C49.0217 17.0087 48.3751 17.1814 47.7197 17.1903C47.0598 17.1991 46.4132 17.0486 45.8285 16.743L45.0181 16.3311C44.7523 16.1938 44.4556 16.1406 44.1589 16.1849C43.8621 16.2336 43.592 16.3754 43.3838 16.5924L42.3918 17.58C42.1792 17.7882 42.0375 18.0628 41.9843 18.3551C41.9444 18.6518 41.9976 18.9529 42.1349 19.2187L42.5468 20.0247C43.1624 21.2117 43.1447 22.6289 42.4936 23.7937C42.1969 24.3428 41.9312 24.9009 41.692 25.4767C41.4528 26.0435 41.2447 26.6281 41.072 27.2217C40.7044 28.5016 39.7167 29.5158 38.4457 29.9232L37.582 30.2023V30.1978C37.2986 30.2908 37.0506 30.468 36.8734 30.7071C36.6963 30.9507 36.6033 31.243 36.6077 31.5442V32.9437V32.9393C36.6033 33.2405 36.6963 33.5328 36.8734 33.7764C37.0506 34.0155 37.2986 34.1927 37.582 34.2812L38.4457 34.5647V34.5603C39.7212 34.9677 40.7044 35.9819 41.072 37.2618C41.2447 37.8553 41.4528 38.44 41.692 39.0068C41.9312 39.5826 42.1969 40.1451 42.4936 40.6898C43.1447 41.859 43.1624 43.2718 42.5468 44.4588L42.1349 45.2648C41.8514 45.783 41.9356 46.4207 42.3386 46.8503C42.3608 46.8636 42.3785 46.8813 42.3918 46.9034L43.3838 47.8911C43.8046 48.3428 44.4777 48.4491 45.0181 48.1524L45.8285 47.7361C47.0155 47.1249 48.4283 47.147 49.5975 47.7936C50.1422 48.0904 50.6958 48.3561 51.2672 48.5953C51.8429 48.8344 52.4231 49.0381 53.0166 49.2153C54.3054 49.5785 55.3195 50.5661 55.7182 51.8416L55.9972 52.7008C56.0858 52.9842 56.2629 53.2367 56.5065 53.4138C56.7501 53.5866 57.0424 53.6796 57.3391 53.6796H58.7431C59.0443 53.684 59.3366 53.591 59.5802 53.4183C59.8237 53.2411 60.0009 52.9887 60.0895 52.7008L60.3109 52.0409L60.3508 51.908L60.3729 51.8416H60.3685C60.7671 50.5705 61.7813 49.5829 63.0657 49.2197C63.6635 49.0426 64.2393 48.8344 64.8151 48.5997H64.8195C65.3908 48.3605 65.9533 48.0948 66.4981 47.7981C67.0738 47.4792 67.7204 47.3065 68.3759 47.2976C69.0313 47.2887 69.6779 47.4393 70.2626 47.7405L71.0731 48.1568C71.3388 48.2941 71.6355 48.3472 71.9322 48.3074C72.229 48.2542 72.4991 48.1081 72.7117 47.8955L73.1325 47.4748C73.1546 47.4482 73.1812 47.426 73.2033 47.3995L73.6994 46.9079C73.9075 46.6997 74.0492 46.4296 74.0979 46.1373C74.1467 45.8405 74.0935 45.5394 73.9562 45.2736L73.5399 44.4632V44.4587C72.9287 43.2762 72.9509 41.8634 73.5975 40.6986C73.8942 40.1539 74.1599 39.5914 74.3947 39.0157C74.6294 38.4443 74.8376 37.8642 75.0147 37.2706C75.3823 35.9863 76.3699 34.9721 77.641 34.5691L78.5046 34.2856H78.5091C78.7925 34.197 79.0405 34.0243 79.2177 33.7852C79.3904 33.5416 79.4878 33.2493 79.4834 32.9481V31.5486C79.4878 31.2474 79.3904 30.9551 79.2177 30.7115C79.0405 30.4724 78.7925 30.2952 78.5091 30.2066L77.6499 29.9276H77.6454C76.3744 29.5246 75.3867 28.5104 75.0236 27.226C74.8464 26.637 74.6383 26.0523 74.4035 25.481C74.1644 24.9053 73.8986 24.3472 73.6019 23.798C73.283 23.2223 73.1103 22.5801 73.1014 21.9203C73.0882 21.2648 73.2387 20.6138 73.5399 20.0247L73.9562 19.2186C74.0935 18.9529 74.1467 18.6517 74.0979 18.355C74.0492 18.0627 73.9075 17.7926 73.6949 17.58L72.7029 16.5968H72.6984C72.2777 16.1495 71.6045 16.0432 71.0598 16.3355L70.2493 16.7473C69.6691 17.0529 69.0225 17.2079 68.367 17.1947C67.7071 17.1858 67.0649 17.0131 66.4892 16.6942C65.94 16.3975 65.382 16.1317 64.8062 15.8926L64.8107 15.8882ZM23.0024 65.7702H13.631V95.3676H23.0024V65.7702ZM30.6687 82.5116L30.5713 78.2246V78.0519V77.8791C30.5713 77.4274 30.6067 76.9712 30.6776 76.5195V68.8797V68.8842C30.6687 68.3217 30.217 67.8744 29.659 67.8655H25.6464V93.2645H29.6545C30.2126 93.2601 30.6687 92.8084 30.6732 92.2459L30.6687 82.5116ZM33.295 76.7542V82.9412L33.4235 88.5526L69.1286 88.34C69.9081 88.34 70.6522 87.5206 71.3652 86.7234C71.6929 86.3647 72.0118 86.006 72.3263 85.7137L82.7961 75.8639L82.7917 75.8595C83.642 75.0047 83.8457 73.7071 83.301 72.6352C83.1017 72.1658 82.8182 71.7362 82.4639 71.3641C82.1406 71.0143 81.7509 70.7308 81.3169 70.5359C80.2141 70.0842 78.943 70.4031 78.1857 71.3198L70.9446 78.5876H70.9401C69.39 80.1865 67.2154 81.0279 64.9922 80.8906L62.4988 80.7621L47.7505 80.74V80.7444C47.0242 80.7444 46.4351 80.1554 46.4351 79.429C46.4351 78.7071 47.0241 78.1181 47.7505 78.1181L62.5691 78.1403H63.9066C64.5089 78.1403 65.0891 77.8967 65.5099 77.4671C65.9351 77.0419 66.1742 76.4617 66.1742 75.8594C66.1742 75.2615 65.9306 74.6857 65.5055 74.2651C65.0803 73.8355 64.5001 73.5919 63.8978 73.5963L56.6167 73.6052V73.6096C56.2225 73.6317 55.8417 73.4767 55.5715 73.1889C54.3492 71.9222 52.8567 70.9478 51.2046 70.3367C49.3445 69.6281 47.3693 69.2694 45.3807 69.2826C42.2495 69.2206 39.1848 70.1463 36.6116 71.931C34.9374 73.0604 33.755 74.7832 33.3032 76.7496L33.295 76.7542Z" stroke="black" mask="url(#path-5-outside-1_228_3768)"/>
<path d="M69.0842 76.7458L76.3254 69.478" stroke="black" stroke-width="0.6"/>
<path d="M76.3254 69.478H76.3299" stroke="black" stroke-width="0.6"/>
<path d="M76.3298 69.4782C77.8312 67.751 80.2848 67.2062 82.3796 68.1363" stroke="black" stroke-width="0.6"/>
<path d="M82.3796 68.1362C83.137 68.4773 83.8234 68.9689 84.3903 69.5756" stroke="black" stroke-width="0.6"/>
<path d="M84.3903 69.5754C84.9572 70.1733 85.4089 70.8686 85.7322 71.626" stroke="black" stroke-width="0.6"/>
<path d="M85.7322 71.626C86.7242 73.7075 86.2681 76.1921 84.5984 77.7821" stroke="black" stroke-width="0.6"/>
<path d="M84.5984 77.7822L74.1375 87.632" stroke="black" stroke-width="0.6"/>
<path d="M74.1374 87.6318C73.8495 87.8976 73.5882 88.1943 73.3225 88.4866" stroke="black" stroke-width="0.6"/>
<path d="M73.3225 88.4868C72.2153 89.7047 71.0903 90.9581 69.1461 90.9714" stroke="black" stroke-width="0.6"/>
<path d="M69.1461 90.9712L33.3038 91.1838" stroke="black" stroke-width="0.6"/>
<path d="M33.3038 91.1838V92.2512" stroke="black" stroke-width="0.6"/>
<path d="M33.3039 92.2513L33.2994 92.2468" stroke="black" stroke-width="0.6"/>
<path d="M33.2994 92.2468C33.2994 94.2663 31.6651 95.9007 29.6455 95.9051" stroke="black" stroke-width="0.6"/>
<path d="M29.6455 95.905H25.6285" stroke="black" stroke-width="0.6"/>
<path d="M25.6286 95.905C25.5178 97.0876 24.5258 97.9955 23.3345 97.9999" stroke="black" stroke-width="0.6"/>
<path d="M23.3345 98H13.3075" stroke="black" stroke-width="0.6"/>
<path d="M13.3075 97.9998C12.6963 98.0043 12.1072 97.7607 11.6732 97.3267" stroke="black" stroke-width="0.6"/>
<path d="M11.6732 97.3269C11.2392 96.8928 10.9956 96.3038 11.0001 95.6926" stroke="black" stroke-width="0.6"/>
<path d="M11 95.6925V65.4431" stroke="black" stroke-width="0.6"/>
<path d="M11.0001 65.4431C10.9956 64.8319 11.2392 64.2429 11.6732 63.8088" stroke="black" stroke-width="0.6"/>
<path d="M11.6732 63.809C12.1028 63.3749 12.6919 63.1313 13.303 63.1313" stroke="black" stroke-width="0.6"/>
<path d="M13.3031 63.1313H23.3301" stroke="black" stroke-width="0.6"/>
<path d="M23.3301 63.1313C24.5215 63.1358 25.5179 64.0481 25.6242 65.2351" stroke="black" stroke-width="0.6"/>
<path d="M25.6241 65.2351H29.6456" stroke="black" stroke-width="0.6"/>
<path d="M29.6455 65.2351C30.611 65.2351 31.5411 65.6204 32.2275 66.3025" stroke="black" stroke-width="0.6"/>
<path d="M32.2275 66.3025C32.914 66.989 33.2993 67.919 33.2949 68.8889" stroke="black" stroke-width="0.6"/>
<path d="M33.2948 68.8887V71.3556" stroke="black" stroke-width="0.6"/>
<path d="M33.2948 71.3558V71.3513" stroke="black" stroke-width="0.6"/>
<path d="M33.2948 71.3511C33.8307 70.7842 34.4197 70.2661 35.0531 69.801" stroke="black" stroke-width="0.6"/>
<path d="M35.0531 69.8011C38.0736 67.6885 41.6876 66.5858 45.3768 66.6433" stroke="black" stroke-width="0.6"/>
<path d="M45.3768 66.6434C47.6932 66.6346 49.9872 67.0553 52.153 67.8836" stroke="black" stroke-width="0.6"/>
<path d="M52.153 67.8835C53.9909 68.5789 55.6695 69.633 57.0912 70.9882" stroke="black" stroke-width="0.6"/>
<path d="M57.0912 70.9881L63.8939 70.9792" stroke="black" stroke-width="0.6"/>
<path d="M63.8939 70.9793V70.9749" stroke="black" stroke-width="0.6"/>
<path d="M63.8939 70.9749C66.5999 70.9793 68.7922 73.1671 68.801 75.8687" stroke="black" stroke-width="0.6"/>
<path d="M68.8011 75.8687C68.8011 76.3071 68.7435 76.7456 68.6239 77.1663" stroke="black" stroke-width="0.6"/>
<path d="M68.6239 77.1663C68.7833 77.0378 68.9383 76.9006 69.0845 76.7544" stroke="black" stroke-width="0.6"/>
<path d="M69.0844 76.7544L69.0842 76.7458" stroke="black" stroke-width="0.6"/>
<path d="M70.2357 3.59424H70.2401" stroke="black" stroke-width="0.6"/>
<path d="M70.2402 3.59408C70.0897 2.89876 70.5148 2.21223 71.2057 2.03955" stroke="black" stroke-width="0.6"/>
<path d="M71.2057 2.03962C71.8922 1.8669 72.5964 2.27435 72.7867 2.96082" stroke="black" stroke-width="0.6"/>
<path d="M72.7867 2.96094L73.77 6.89823" stroke="black" stroke-width="0.6"/>
<path d="M73.7699 6.89819C73.8496 7.23921 73.7965 7.59352 73.6149 7.89469" stroke="black" stroke-width="0.6"/>
<path d="M73.615 7.89453C73.4334 8.19127 73.1411 8.40385 72.8 8.488" stroke="black" stroke-width="0.6"/>
<path d="M72.8 8.48804L68.8717 9.46681" stroke="black" stroke-width="0.6"/>
<path d="M68.8716 9.46692C68.1675 9.63964 67.4544 9.21005 67.2817 8.50586" stroke="black" stroke-width="0.6"/>
<path d="M67.2817 8.50568C67.109 7.8015 67.5386 7.08845 68.2428 6.91577" stroke="black" stroke-width="0.6"/>
<path d="M68.2428 6.91597L68.7122 6.79639" stroke="black" stroke-width="0.6"/>
<path d="M34.1715 18.3826L34.1405 18.4446" stroke="black" stroke-width="0.6"/>
<path d="M34.1405 18.4446H34.1361" stroke="black" stroke-width="0.6"/>
<path d="M68.7123 6.79635C62.5297 4.20542 55.616 3.95304 49.2611 6.0833C42.9057 8.21799 37.5422 12.5892 34.1715 18.3825M34.1362 18.4446C31.1732 23.582 29.9421 29.5343 30.624 35.4207C31.3017 41.3111 33.8615 46.8254 37.9183 51.1474" stroke="#00B0FB" stroke-width="0.6" stroke-linejoin="round"/>
<path d="M37.9183 51.1475C38.4143 51.6789 38.3922 52.5115 37.8607 53.0075" stroke="black" stroke-width="0.6"/>
<path d="M37.8607 53.0075C37.3337 53.5036 36.5011 53.4814 36.0006 52.95" stroke="black" stroke-width="0.6"/>
<path d="M36.0007 52.9499C31.5585 48.2154 28.7551 42.1789 28.0066 35.73" stroke="black" stroke-width="0.6"/>
<path d="M28.0066 35.73C27.2625 29.2772 28.6133 22.7618 31.8596 17.1382" stroke="black" stroke-width="0.6"/>
<path d="M31.8596 17.1383L31.9083 17.0586" stroke="black" stroke-width="0.6"/>
<path d="M31.9083 17.0585C35.6684 10.5792 41.7005 5.73396 48.8357 3.45312" stroke="black" stroke-width="0.6"/>
<path d="M48.8357 3.45314C55.9706 1.17231 63.6985 1.62401 70.5193 4.71981" stroke="black" stroke-width="0.6"/>
<path d="M70.5193 4.71984L70.2357 3.59424" stroke="black" stroke-width="0.6"/>
<path d="M45.8457 60.9036C46.0185 61.6077 45.5889 62.3208 44.8802 62.4979" stroke="black" stroke-width="0.6"/>
<path d="M44.8803 62.498C44.1762 62.6707 43.4587 62.2367 43.286 61.5325" stroke="black" stroke-width="0.6"/>
<path d="M43.286 61.5323L42.3116 57.595" stroke="black" stroke-width="0.6"/>
<path d="M42.3116 57.5951C42.1345 56.8909 42.5641 56.1778 43.2638 56.0007" stroke="black" stroke-width="0.6"/>
<path d="M43.2638 56.0008L47.1921 55.0176" stroke="black" stroke-width="0.6"/>
<path d="M47.1921 55.0176V55.022" stroke="black" stroke-width="0.6"/>
<path d="M47.1921 55.0221C47.9008 54.8493 48.6138 55.2789 48.7865 55.9831" stroke="black" stroke-width="0.6"/>
<path d="M48.7865 55.9832C48.9593 56.6918 48.5297 57.4048 47.821 57.5775" stroke="black" stroke-width="0.6"/>
<path d="M47.821 57.5774L47.3516 57.697" stroke="black" stroke-width="0.6"/>
<path d="M47.3516 57.697H47.356" stroke="black" stroke-width="0.6"/>
<path d="M47.356 57.6969C55.2571 61.0142 64.2516 60.4738 71.6972 56.231C79.142 51.9925 84.1994 44.5349 85.3774 36.0439C86.5555 27.5538 83.7255 19.0021 77.7156 12.8899C77.472 12.6419 77.3347 12.3052 77.3391 11.9597" stroke="#00B0FB" stroke-width="0.6" stroke-linecap="round"/>
<path d="M77.3391 11.9598C77.3391 11.61 77.4808 11.2778 77.7288 11.0298" stroke="black" stroke-width="0.6"/>
<path d="M77.7288 11.0296C78.2469 10.5203 79.0795 10.5292 79.5888 11.0429" stroke="black" stroke-width="0.6"/>
<path d="M79.5889 11.043C86.241 17.8058 89.3324 27.2969 87.9373 36.6812" stroke="black" stroke-width="0.6"/>
<path d="M87.9373 36.6812C86.5466 46.0614 80.829 54.2457 72.5031 58.7809" stroke="black" stroke-width="0.6"/>
<path d="M72.5031 58.781C64.1768 63.3206 54.1982 63.6881 45.5621 59.7731" stroke="black" stroke-width="0.6"/>
<path d="M45.5621 59.7729L45.8458 60.9035" stroke="black" stroke-width="0.6"/>
<path d="M48.5652 22.7708C53.0871 18.2489 60.1729 17.5492 65.488 21.1011" stroke="black" stroke-width="0.6"/>
<path d="M65.488 21.1011C70.8071 24.653 72.8709 31.4645 70.4262 37.3731" stroke="black" stroke-width="0.6"/>
<path d="M70.4263 37.373C67.9816 43.2811 61.7014 46.6382 55.4297 45.3892" stroke="black" stroke-width="0.6"/>
<path d="M55.4296 45.3892C49.1584 44.1447 44.641 38.6397 44.641 32.2441" stroke="black" stroke-width="0.6"/>
<path d="M44.641 32.2442C44.6366 28.6923 46.0496 25.282 48.5651 22.7708" stroke="black" stroke-width="0.6"/>
<path d="M63.8009 12.7439C64.4874 12.9476 65.1605 13.1868 65.8204 13.4614" stroke="black" stroke-width="0.6"/>
<path d="M65.8204 13.4612C66.4759 13.7358 67.1225 14.0414 67.747 14.3868" stroke="black" stroke-width="0.6"/>
<path d="M67.7469 14.387C68.15 14.6217 68.6504 14.6261 69.0578 14.4002" stroke="black" stroke-width="0.6"/>
<path d="M69.0579 14.4002L69.8683 13.9839" stroke="black" stroke-width="0.6"/>
<path d="M69.8683 13.9838C71.4272 13.1822 73.3228 13.4834 74.5584 14.7279" stroke="black" stroke-width="0.6"/>
<path d="M74.5585 14.728L75.555 15.7245" stroke="black" stroke-width="0.6"/>
<path d="M75.5549 15.7244C76.8039 16.9555 77.105 18.86 76.299 20.4145" stroke="black" stroke-width="0.6"/>
<path d="M76.299 20.4146L75.8871 21.225" stroke="black" stroke-width="0.6"/>
<path d="M75.8871 21.2251V21.2295" stroke="black" stroke-width="0.6"/>
<path d="M75.887 21.2295C75.7763 21.4332 75.7232 21.6591 75.7188 21.8894" stroke="black" stroke-width="0.6"/>
<path d="M75.7188 21.8894C75.7276 22.1197 75.7896 22.3412 75.9003 22.5404" stroke="black" stroke-width="0.6"/>
<path d="M75.9004 22.5403C76.2458 23.1692 76.5514 23.8114 76.826 24.4757" stroke="black" stroke-width="0.6"/>
<path d="M76.826 24.4758C77.1006 25.1313 77.3354 25.8045 77.5347 26.4865" stroke="black" stroke-width="0.6"/>
<path d="M77.5347 26.4863C77.5967 26.7078 77.7118 26.9159 77.8713 27.0842" stroke="black" stroke-width="0.6"/>
<path d="M77.8712 27.0842C78.0351 27.2437 78.2344 27.3632 78.4558 27.4297" stroke="black" stroke-width="0.6"/>
<path d="M78.4558 27.4297L79.3194 27.7131" stroke="black" stroke-width="0.6"/>
<path d="M79.3195 27.7131C80.9936 28.2402 82.123 29.8036 82.1052 31.5573" stroke="black" stroke-width="0.6"/>
<path d="M82.1052 31.5574V32.9569" stroke="black" stroke-width="0.6"/>
<path d="M82.1052 32.9568V32.9524" stroke="black" stroke-width="0.6"/>
<path d="M82.1052 32.9524C82.1229 34.7107 80.9935 36.2696 79.3195 36.7966" stroke="black" stroke-width="0.6"/>
<path d="M79.3194 36.7966L78.4558 37.0801" stroke="black" stroke-width="0.6"/>
<path d="M78.4558 37.0801C78.2344 37.1465 78.0351 37.2661 77.8712 37.4255" stroke="black" stroke-width="0.6"/>
<path d="M77.8713 37.4255C77.7118 37.5938 77.5967 37.802 77.5347 38.0234" stroke="black" stroke-width="0.6"/>
<path d="M77.5346 38.0234C77.136 39.3919 76.5869 40.7118 75.9004 41.9607" stroke="black" stroke-width="0.6"/>
<path d="M75.9005 41.9607C75.7897 42.1644 75.7277 42.3903 75.7189 42.6206" stroke="black" stroke-width="0.6"/>
<path d="M75.7189 42.6206C75.7233 42.8509 75.7809 43.0768 75.8872 43.2805" stroke="black" stroke-width="0.6"/>
<path d="M75.8871 43.2805L76.299 44.0866" stroke="black" stroke-width="0.6"/>
<path d="M76.299 44.0867C77.105 45.6456 76.8039 47.5456 75.5549 48.7768" stroke="black" stroke-width="0.6"/>
<path d="M75.5549 48.7769V48.7813" stroke="black" stroke-width="0.6"/>
<path d="M75.555 48.7812L75.059 49.2773" stroke="black" stroke-width="0.6"/>
<path d="M75.0589 49.2771C75.0368 49.2992 75.0102 49.3214 74.988 49.3391" stroke="black" stroke-width="0.6"/>
<path d="M74.9881 49.3391L74.5541 49.7643" stroke="black" stroke-width="0.6"/>
<path d="M74.5541 49.7644L74.5585 49.7733" stroke="black" stroke-width="0.6"/>
<path d="M74.5585 49.7732C73.3273 51.0177 71.4274 51.3233 69.8684 50.5172" stroke="black" stroke-width="0.6"/>
<path d="M69.8683 50.5174L69.0579 50.1011" stroke="black" stroke-width="0.6"/>
<path d="M69.0578 50.101C68.6504 49.8752 68.1499 49.884 67.7469 50.1187" stroke="black" stroke-width="0.6"/>
<path d="M67.747 50.1187C67.1225 50.4597 66.4759 50.7697 65.8204 51.0443" stroke="black" stroke-width="0.6"/>
<path d="M65.8205 51.0444C65.1606 51.3146 64.4874 51.5538 63.801 51.7575" stroke="black" stroke-width="0.6"/>
<path d="M63.8009 51.7573C63.5839 51.8193 63.3802 51.9345 63.2163 52.0895" stroke="black" stroke-width="0.6"/>
<path d="M63.2164 52.0896C63.0525 52.2535 62.9285 52.4528 62.8577 52.6698" stroke="black" stroke-width="0.6"/>
<path d="M62.8576 52.6697L62.8354 52.7273" stroke="black" stroke-width="0.6"/>
<path d="M62.8354 52.7273L62.7911 52.8646" stroke="black" stroke-width="0.6"/>
<path d="M62.7912 52.8645L62.5786 53.5333" stroke="black" stroke-width="0.6"/>
<path d="M62.5786 53.5334C62.0516 55.2076 60.4881 56.3414 58.7344 56.3236" stroke="black" stroke-width="0.6"/>
<path d="M58.7344 56.3235V56.3279" stroke="black" stroke-width="0.6"/>
<path d="M58.7344 56.3279H57.3348" stroke="black" stroke-width="0.6"/>
<path d="M57.3348 56.3278V56.3057" stroke="black" stroke-width="0.6"/>
<path d="M57.3349 56.3057C56.4845 56.3145 55.6519 56.0488 54.9609 55.5483" stroke="black" stroke-width="0.6"/>
<path d="M54.961 55.5485C54.2701 55.0436 53.7563 54.335 53.495 53.52" stroke="black" stroke-width="0.6"/>
<path d="M53.495 53.5199L53.2159 52.6562" stroke="black" stroke-width="0.6"/>
<path d="M53.2159 52.6564C53.1451 52.4349 53.0255 52.2356 52.8572 52.0718" stroke="black" stroke-width="0.6"/>
<path d="M52.8572 52.0717C52.6933 51.9167 52.4896 51.8015 52.2726 51.7395" stroke="black" stroke-width="0.6"/>
<path d="M52.2725 51.7397C51.5861 51.5359 50.9129 51.3012 50.2531 51.0266" stroke="black" stroke-width="0.6"/>
<path d="M50.2531 51.0264C49.5976 50.7518 48.951 50.4462 48.3265 50.1052" stroke="black" stroke-width="0.6"/>
<path d="M48.3266 50.1054C48.1273 49.9903 47.9014 49.9283 47.6755 49.9238" stroke="black" stroke-width="0.6"/>
<path d="M47.6755 49.9238C47.4452 49.9238 47.2149 49.9814 47.0156 50.0877" stroke="black" stroke-width="0.6"/>
<path d="M47.0157 50.0876L46.2052 50.504" stroke="black" stroke-width="0.6"/>
<path d="M46.2051 50.5039H46.2007" stroke="black" stroke-width="0.6"/>
<path d="M46.2007 50.5039C44.6418 51.3055 42.7418 51.0043 41.5106 49.7554" stroke="black" stroke-width="0.6"/>
<path d="M41.5106 49.7554L40.5186 48.7678" stroke="black" stroke-width="0.6"/>
<path d="M40.5186 48.7678C40.492 48.7368 40.4654 48.7102 40.4388 48.6792" stroke="black" stroke-width="0.6"/>
<path d="M40.4389 48.6792H40.4344" stroke="black" stroke-width="0.6"/>
<path d="M40.4344 48.6792C39.2563 47.4391 38.9951 45.5923 39.7745 44.0732" stroke="black" stroke-width="0.6"/>
<path d="M39.7745 44.0731L40.1864 43.2671" stroke="black" stroke-width="0.6"/>
<path d="M40.1864 43.2671C40.2971 43.0634 40.3547 42.8375 40.3547 42.6028" stroke="black" stroke-width="0.6"/>
<path d="M40.3547 42.6027C40.3503 42.3724 40.2882 42.151 40.1731 41.9473" stroke="black" stroke-width="0.6"/>
<path d="M40.1731 41.9473C39.832 41.3228 39.522 40.6762 39.2474 40.0208" stroke="black" stroke-width="0.6"/>
<path d="M39.2475 40.0209C38.9729 39.361 38.7382 38.6922 38.5344 38.0103" stroke="black" stroke-width="0.6"/>
<path d="M38.5345 38.0102C38.4769 37.7844 38.3618 37.5806 38.1979 37.4124" stroke="black" stroke-width="0.6"/>
<path d="M38.1979 37.4123C38.0384 37.2485 37.8391 37.1333 37.6177 37.0669" stroke="black" stroke-width="0.6"/>
<path d="M37.6176 37.0669L36.7584 36.7834" stroke="black" stroke-width="0.6"/>
<path d="M36.7585 36.7834C35.0844 36.252 33.955 34.6929 33.9684 32.9392" stroke="black" stroke-width="0.6"/>
<path d="M33.9683 32.9393V31.5486" stroke="black" stroke-width="0.6"/>
<path d="M33.9684 31.5486C33.9551 29.7947 35.0845 28.2358 36.7585 27.7043" stroke="black" stroke-width="0.6"/>
<path d="M36.7584 27.7043L37.6176 27.4209" stroke="black" stroke-width="0.6"/>
<path d="M37.6177 27.4209C37.8391 27.3589 38.0384 27.2393 38.1979 27.0754" stroke="black" stroke-width="0.6"/>
<path d="M38.1979 27.0754C38.3617 26.9071 38.4769 26.7034 38.5345 26.4775" stroke="black" stroke-width="0.6"/>
<path d="M38.5344 26.4774C38.7382 25.7954 38.9773 25.1222 39.2519 24.4668" stroke="black" stroke-width="0.6"/>
<path d="M39.2518 24.4669C39.5264 23.807 39.832 23.1604 40.1775 22.5315" stroke="black" stroke-width="0.6"/>
<path d="M40.1775 22.5316C40.4122 22.1286 40.4167 21.6281 40.1863 21.2207" stroke="black" stroke-width="0.6"/>
<path d="M40.1864 21.2206L39.7745 20.4102" stroke="black" stroke-width="0.6"/>
<path d="M39.7745 20.4102V20.4058" stroke="black" stroke-width="0.6"/>
<path d="M39.7745 20.4056C39.3848 19.6482 39.2475 18.7846 39.3803 17.9431" stroke="black" stroke-width="0.6"/>
<path d="M39.3804 17.9432C39.5132 17.0973 39.9118 16.3178 40.5186 15.7156" stroke="black" stroke-width="0.6"/>
<path d="M40.5186 15.7157L41.5106 14.7236" stroke="black" stroke-width="0.6"/>
<path d="M41.5106 14.7235C42.7462 13.4789 44.6462 13.1822 46.2052 13.9795" stroke="black" stroke-width="0.6"/>
<path d="M46.2052 13.9795L47.0157 14.3958" stroke="black" stroke-width="0.6"/>
<path d="M47.0156 14.3958C47.2194 14.5065 47.4452 14.5641 47.6755 14.5641" stroke="black" stroke-width="0.6"/>
<path d="M47.6755 14.5642C47.9058 14.5553 48.1273 14.4933 48.3266 14.3826" stroke="black" stroke-width="0.6"/>
<path d="M48.3265 14.3826C49.5799 13.6961 50.9041 13.1514 52.2771 12.7439" stroke="black" stroke-width="0.6"/>
<path d="M52.2771 12.7437C52.4985 12.6862 52.6978 12.571 52.8617 12.416" stroke="black" stroke-width="0.6"/>
<path d="M52.8617 12.4162C53.03 12.2523 53.154 12.053 53.2204 11.8315" stroke="black" stroke-width="0.6"/>
<path d="M53.2205 11.8314L53.4995 10.9678" stroke="black" stroke-width="0.6"/>
<path d="M53.4995 10.9678C54.0354 9.29806 55.59 8.1687 57.3437 8.1687" stroke="black" stroke-width="0.6"/>
<path d="M57.3436 8.1687H58.7476" stroke="black" stroke-width="0.6"/>
<path d="M58.7477 8.16871C60.5015 8.16429 62.0561 9.29806 62.5919 10.9678" stroke="black" stroke-width="0.6"/>
<path d="M62.5918 10.9678L62.8044 11.6365" stroke="black" stroke-width="0.6"/>
<path d="M62.8044 11.6367C62.8133 11.6544 62.8222 11.6766 62.8266 11.6987" stroke="black" stroke-width="0.6"/>
<path d="M62.8265 11.6987L62.8708 11.8316" stroke="black" stroke-width="0.6"/>
<path d="M62.8709 11.8315H62.8665" stroke="black" stroke-width="0.6"/>
<path d="M62.8665 11.8315C62.9373 12.053 63.0613 12.2523 63.2252 12.4162" stroke="black" stroke-width="0.6"/>
<path d="M63.2252 12.416C63.3935 12.571 63.5928 12.6862 63.8143 12.7437" stroke="black" stroke-width="0.6"/>
<path d="M63.8142 12.7439L63.8009 12.7439" stroke="black" stroke-width="0.6"/>
<path d="M33.295 76.7542V82.9412" stroke="black" stroke-width="0.6"/>
<path d="M33.295 82.9412L33.4235 88.5525" stroke="black" stroke-width="0.6"/>
<path d="M33.4235 88.5527L69.1286 88.3401" stroke="black" stroke-width="0.6"/>
<path d="M69.1285 88.3399C69.908 88.3399 70.6521 87.5206 71.3652 86.7234" stroke="black" stroke-width="0.6"/>
<path d="M71.3652 86.7234C71.693 86.3646 72.0118 86.0059 72.3263 85.7136" stroke="black" stroke-width="0.6"/>
<path d="M72.3263 85.7138L82.7961 75.864" stroke="black" stroke-width="0.6"/>
<path d="M82.7961 75.8638L82.7916 75.8594" stroke="black" stroke-width="0.6"/>
<path d="M82.7916 75.8595C83.642 75.0047 83.8457 73.7071 83.3009 72.6353" stroke="black" stroke-width="0.6"/>
<path d="M83.301 72.6351C83.1017 72.1656 82.8183 71.736 82.464 71.364" stroke="black" stroke-width="0.6"/>
<path d="M82.464 71.3641C82.1406 71.0142 81.7509 70.7308 81.3169 70.5359" stroke="black" stroke-width="0.6"/>
<path d="M81.3168 70.536C80.214 70.0842 78.9429 70.4031 78.1857 71.3199" stroke="black" stroke-width="0.6"/>
<path d="M78.1857 71.3198L70.9446 78.5876" stroke="black" stroke-width="0.6"/>
<path d="M70.9446 78.5876H70.9402" stroke="black" stroke-width="0.6"/>
<path d="M70.9401 78.5876C69.39 80.1865 67.2154 81.0279 64.9922 80.8906" stroke="black" stroke-width="0.6"/>
<path d="M64.9922 80.8906L62.4988 80.7622" stroke="black" stroke-width="0.6"/>
<path d="M62.4987 80.7621L47.7505 80.74" stroke="black" stroke-width="0.6"/>
<path d="M47.7505 80.74V80.7444" stroke="black" stroke-width="0.6"/>
<path d="M47.7505 80.7444C47.0242 80.7444 46.4351 80.1553 46.4351 79.429" stroke="black" stroke-width="0.6"/>
<path d="M46.4351 79.429C46.4351 78.7071 47.0241 78.1182 47.7505 78.1182" stroke="black" stroke-width="0.6"/>
<path d="M47.7505 78.1182L62.569 78.1403" stroke="black" stroke-width="0.6"/>
<path d="M62.5691 78.1404H63.9066" stroke="black" stroke-width="0.6"/>
<path d="M63.9066 78.1402C64.5089 78.1402 65.0892 77.8966 65.5099 77.467" stroke="black" stroke-width="0.6"/>
<path d="M65.5099 77.4671C65.9351 77.0419 66.1742 76.4617 66.1742 75.8594" stroke="black" stroke-width="0.6"/>
<path d="M66.1742 75.8595C66.1742 75.2616 65.9307 74.6858 65.5055 74.2651" stroke="black" stroke-width="0.6"/>
<path d="M65.5054 74.265C65.0802 73.8354 64.5001 73.5918 63.8977 73.5963" stroke="black" stroke-width="0.6"/>
<path d="M63.8978 73.5962L56.6167 73.605" stroke="black" stroke-width="0.6"/>
<path d="M56.6167 73.6052V73.6096" stroke="black" stroke-width="0.6"/>
<path d="M56.6167 73.6097C56.2226 73.6318 55.8417 73.4768 55.5715 73.189" stroke="black" stroke-width="0.6"/>
<path d="M55.5715 73.1888C54.3491 71.9222 52.8566 70.9478 51.2046 70.3367" stroke="black" stroke-width="0.6"/>
<path d="M51.2046 70.3366C49.3446 69.628 47.3693 69.2693 45.3807 69.2826" stroke="black" stroke-width="0.6"/>
<path d="M45.3807 69.2827C42.2495 69.2207 39.1848 70.1463 36.6116 71.9311" stroke="black" stroke-width="0.6"/>
<path d="M36.6116 71.9312C34.9375 73.0605 33.755 74.7833 33.3032 76.7497" stroke="black" stroke-width="0.6"/>
<path d="M33.3032 76.7498L33.295 76.7543" stroke="black" stroke-width="0.6"/>
</svg>
