<svg width="100" height="100" viewBox="0 0 100 100" fill="none" xmlns="http://www.w3.org/2000/svg">
<path fill-rule="evenodd" clip-rule="evenodd" d="M27.6806 56.3401C13.5205 56.3401 2 44.8204 2 30.6603C2 16.5107 13.5205 5 27.6806 5C41.8408 5 53.3605 16.5107 53.3605 30.6603C53.3605 44.8204 41.8408 56.3401 27.6806 56.3401ZM16.1375 43.5997C19.3369 46.4438 23.4363 48.01 27.6806 48.01C31.9249 48.01 36.0236 46.4438 39.22 43.6028C42.9128 40.3362 45.0311 35.6197 45.0311 30.6602C45.0311 21.105 37.248 13.3301 27.6806 13.3301C18.1133 13.3301 10.3301 21.105 10.3301 30.6602C10.3301 35.6197 12.4477 40.3377 16.1375 43.5997Z" fill="#00B0FB" fill-opacity="0.5"/>
<path d="M1.75 30.6603C1.75 44.9585 13.3824 56.5901 27.6806 56.5901C41.9788 56.5901 53.6105 44.9585 53.6105 30.6603C53.6105 16.3724 41.9786 4.75 27.6806 4.75C13.3826 4.75 1.75 16.3724 1.75 30.6603ZM5.34003 30.6603C5.34003 18.3539 15.3618 8.34003 27.6806 8.34003C39.9987 8.34003 50.0205 18.3539 50.0205 30.6603C50.0205 42.9789 39.9985 53.0001 27.6806 53.0001C15.362 53.0001 5.34003 42.9789 5.34003 30.6603Z" fill="black" stroke="black" stroke-width="0.5"/>
<ellipse cx="27.5651" cy="30.0458" rx="4.92474" ry="4.92474" fill="#00B0FB" fill-opacity="0.5"/>
<path d="M20.073 29.6402C20.073 33.8355 23.4855 37.2471 27.6807 37.2471C31.8752 37.2471 35.2876 33.8354 35.2876 29.6402C35.2876 25.445 31.8752 22.0317 27.6807 22.0317C23.4854 22.0317 20.073 25.445 20.073 29.6402ZM23.663 29.6402C23.663 27.4245 25.4658 25.6218 27.6807 25.6218C29.8955 25.6218 31.6976 27.4244 31.6976 29.6402C31.6976 31.8544 29.8956 33.6571 27.6807 33.6571C25.4657 33.6571 23.663 31.8543 23.663 29.6402Z" fill="black" stroke="black" stroke-width="0.5"/>
<path d="M27.6807 48.0099C23.4364 48.0099 19.337 46.4437 16.1376 43.5996C15.6457 43.1621 15.485 42.4605 15.7377 41.8524C17.6886 37.157 22.2143 34.0489 27.2921 33.9071C27.6226 33.8588 27.7357 33.8588 28.0647 33.9071C31.3584 33.9855 34.4597 35.3178 36.8104 37.667C37.9881 38.8439 38.959 40.2878 39.6183 41.8419C39.8778 42.4529 39.7179 43.1591 39.223 43.5996C36.0236 46.4437 31.9249 48.0099 27.6807 48.0099Z" fill="#00B0FB"/>
<path d="M15.9714 43.7864L15.9715 43.7865C19.2162 46.6709 23.3746 48.2599 27.6807 48.2599C31.9868 48.2599 36.1444 46.6709 39.3891 43.7865L39.3893 43.7864C39.964 43.2747 40.15 42.4542 39.8484 41.7441C39.1767 40.161 38.1878 38.6901 36.9872 37.4902C34.595 35.0996 31.4386 33.7412 28.0858 33.6575C27.9262 33.6343 27.8046 33.6208 27.679 33.6208C27.5532 33.6208 27.4312 33.6343 27.2705 33.6576C22.1002 33.8077 17.4937 36.9746 15.5069 41.7565C15.2132 42.463 15.3999 43.2781 15.9714 43.7864ZM27.8835 37.244V37.244L27.8856 37.2441C30.3545 37.2764 32.6847 38.265 34.449 40.0286C35.0183 40.5979 35.5233 41.2523 35.943 41.9597C33.5408 43.7158 30.6534 44.6698 27.6807 44.6698C24.7045 44.6698 21.8146 43.7141 19.4099 41.9547C21.0802 39.1143 24.1246 37.3045 27.4837 37.244L27.4849 37.244C27.5509 37.2425 27.6157 37.2373 27.679 37.2297C27.7492 37.2387 27.8178 37.2426 27.8835 37.244Z" fill="black" stroke="black" stroke-width="0.5"/>
<path d="M18.354 41.1014L18.3535 41.101C15.3772 38.4692 13.6701 34.6645 13.6701 30.6602C13.6701 22.9468 19.9552 16.6701 27.6806 16.6701C35.406 16.6701 41.6911 22.9468 41.6911 30.6602C41.6911 34.6629 39.9832 38.4692 37.0038 41.104L37.0034 41.1044C34.4158 43.4043 31.1048 44.6699 27.6806 44.6699C24.2557 44.6699 20.9447 43.4044 18.354 41.1014ZM10.0801 30.6602C10.0801 35.6906 12.2279 40.4769 15.9716 43.7868C19.2163 46.6711 23.3746 48.26 27.6806 48.26C31.9866 48.26 36.1443 46.671 39.386 43.7896C43.1325 40.4753 45.2811 35.6906 45.2811 30.6602C45.2811 20.9666 37.3857 13.0801 27.6806 13.0801C17.9754 13.0801 10.0801 20.9666 10.0801 30.6602Z" fill="black" stroke="black" stroke-width="0.5"/>
<path d="M21.2893 52.819L21.2893 52.819L21.2883 52.8198C20.8628 53.1613 20.6146 53.6765 20.6146 54.2218V63.8495C20.6146 64.8417 21.4184 65.6445 22.4096 65.6445H32.9426C33.9338 65.6445 34.7376 64.8417 34.7376 63.8495V54.2218C34.7376 53.6748 34.4886 53.1595 34.0623 52.8182L34.0621 52.818C33.6355 52.4771 33.073 52.3462 32.5426 52.4726C29.433 53.1791 25.9715 53.1822 22.8039 52.4706L22.8038 52.4706C22.2716 52.3514 21.7146 52.4812 21.2893 52.819ZM31.1476 56.3664V62.0545H24.2047V56.3635C26.4908 56.6696 28.8831 56.6686 31.1476 56.3664Z" fill="black" stroke="black" stroke-width="0.5"/>
<path d="M18.1748 86.3319C18.1748 91.5712 22.4367 95.8339 27.676 95.8339C32.9154 95.8339 37.1773 91.5712 37.1773 86.3319V66.2572C37.1773 63.945 35.2955 62.0632 32.9825 62.0632H22.3696C20.0566 62.0632 18.1748 63.945 18.1748 66.2572V86.3319ZM21.7648 66.2572C21.7648 65.9247 22.036 65.6533 22.3696 65.6533H32.9825C33.3161 65.6533 33.5872 65.9247 33.5872 66.2572V86.3319C33.5872 89.5917 30.935 92.2439 27.676 92.2439C24.4171 92.2439 21.7648 89.5917 21.7648 86.3319V66.2572Z" fill="black" stroke="black" stroke-width="0.5"/>
<path d="M53 63H60V92H53V63Z" fill="#00B0FB" fill-opacity="0.5"/>
<path d="M52.1541 95.4058H61.4205C62.4117 95.4058 63.2155 94.603 63.2155 93.6108V61.3133C63.2155 60.3212 62.4117 59.5183 61.4205 59.5183H52.1541C51.1629 59.5183 50.3591 60.3212 50.3591 61.3133V93.6108C50.3591 94.603 51.1629 95.4058 52.1541 95.4058ZM59.6255 63.1083V91.8158H53.9492V63.1083H59.6255Z" fill="black" stroke="black" stroke-width="0.5"/>
<path d="M69.6715 95.4058H78.9378C79.929 95.4058 80.7328 94.6029 80.7328 93.6108V46.7352C80.7328 45.7431 79.929 44.9402 78.9378 44.9402H69.6715C68.6803 44.9402 67.8765 45.7431 67.8765 46.7352V93.6108C67.8765 94.6029 68.6803 95.4058 69.6715 95.4058ZM77.1428 48.5302V91.8158H71.4665V48.5302H77.1428Z" fill="black" stroke="black" stroke-width="0.5"/>
<rect x="71.8878" y="48.103" width="5.47193" height="43.7755" fill="#00B0FB"/>
<path d="M87.1887 95.4054H96.455C97.4462 95.4054 98.25 94.6026 98.25 93.6104V32.1583C98.25 31.1662 97.4462 30.3633 96.455 30.3633H87.1887C86.1975 30.3633 85.3937 31.1662 85.3937 32.1583V93.6104C85.3937 94.6026 86.1975 95.4054 87.1887 95.4054ZM94.66 33.9533V91.8154H88.9837V33.9533H94.66Z" fill="black" stroke="black" stroke-width="0.5"/>
<rect x="89.3979" y="33.8762" width="5.47193" height="58.0025" fill="#00B0FB" fill-opacity="0.5"/>
<path d="M77.589 29.4987C77.2503 29.4987 76.9116 29.3696 76.6537 29.1113C76.136 28.596 76.136 27.7578 76.6524 27.2412L91.5151 12.3764C92.0309 11.8599 92.8699 11.8586 93.387 12.3764C93.9047 12.8917 93.9047 13.7299 93.3883 14.2465L78.5256 29.1113C78.2671 29.3696 77.9284 29.4987 77.589 29.4987Z" fill="#00B0FB"/>
<path d="M76.1174 24.8709L76.1174 24.8709C75.4173 25.5719 75.4169 26.7093 76.1191 27.4092C76.4689 27.7597 76.9287 27.935 77.3874 27.935C77.8471 27.935 78.3068 27.7596 78.6573 27.4091L78.6574 27.409L96.0042 10.0427L96.0042 10.0427C96.7042 9.34179 96.7047 8.20453 96.0028 7.50468C95.3014 6.80156 94.1636 6.80339 93.464 7.50468L76.1174 24.8709Z" fill="black" stroke="black" stroke-width="0.5"/>
<path d="M46.6626 60.6001C46.2673 60.6001 45.872 60.4492 45.5702 60.1474C44.9667 59.5439 44.9667 58.5662 45.5702 57.9627L70.8087 32.7234C71.4123 32.1199 72.39 32.1199 72.9935 32.7234C73.597 33.3269 73.597 34.3046 72.9935 34.9081L47.7549 60.1474C47.4532 60.4492 47.0579 60.6001 46.6626 60.6001Z" fill="#00B0FB"/>
<path d="M44.2991 59.23C44.6496 59.5805 45.1093 59.7558 45.5682 59.7558C46.0272 59.7558 46.4869 59.5805 46.8374 59.23L72.0759 33.9907C72.7771 33.2895 72.7771 32.1535 72.0759 31.4524C71.3747 30.7512 70.2388 30.7512 69.5376 31.4524L44.2991 56.6917C43.5979 57.3928 43.5979 58.5288 44.2991 59.23Z" fill="black" stroke="black" stroke-width="0.5"/>
<path d="M92.9293 24.5814C92.9293 25.5735 93.7331 26.3764 94.7243 26.3764C95.7156 26.3764 96.5194 25.5735 96.5194 24.5814V8.77964C96.5194 7.7875 95.7156 6.98462 94.7243 6.98462H78.9377C77.9465 6.98462 77.1427 7.7875 77.1427 8.77964C77.1427 9.77177 77.9465 10.5747 78.9377 10.5747H92.9293V24.5814Z" fill="black" stroke="black" stroke-width="0.5"/>
<circle cx="74.0765" cy="29.4987" r="3.28316" fill="#00B0FB" fill-opacity="0.5"/>
<path d="M69.5656 34.0176L69.5656 34.0176L69.5701 34.022C70.7935 35.185 72.3871 35.8274 74.0561 35.8274C77.6063 35.8274 80.4944 32.9393 80.4944 29.3898C80.4944 27.7185 79.8514 26.1258 78.6603 24.8736L78.6603 24.8736L78.6557 24.8689C77.4343 23.6507 75.759 22.9507 74.0561 22.9507C70.5051 22.9507 67.6169 25.8388 67.6169 29.3898C67.6169 31.095 68.3176 32.7695 69.5656 34.0176ZM71.207 29.3898C71.207 27.8184 72.4854 26.5407 74.0561 26.5407C74.8112 26.5407 75.5638 26.8571 76.0892 27.3798C76.6165 27.9348 76.9044 28.6481 76.9044 29.3898C76.9044 30.9597 75.6268 32.2374 74.0561 32.2374C73.3137 32.2374 72.6007 31.9478 72.0744 31.4498C71.5222 30.8963 71.207 30.1441 71.207 29.3898Z" fill="black" stroke="black" stroke-width="0.5"/>
</svg>
