<?xml version="1.0" encoding="utf-8"?>
<!-- Generator: Adobe Illustrator 24.3.0, SVG Export Plug-In . SVG Version: 6.00 Build 0)  -->
<svg version="1.1" id="Layer_1" xmlns="http://www.w3.org/2000/svg" xmlns:xlink="http://www.w3.org/1999/xlink" x="0px" y="0px"
	 width="7692.7px" height="1576px" viewBox="0 0 7692.7 1576" style="enable-background:new 0 0 7692.7 1576;" xml:space="preserve"
	>
<style type="text/css">
	.st0{fill:url(#SVGID_1_);}
	.st1{fill:#FFFFFF;}
</style>
<g>
	<g>
		
			<radialGradient id="SVGID_1_" cx="509.2693" cy="548.1203" r="1148.2938" fx="432.4583" fy="942.4647" gradientUnits="userSpaceOnUse">
			<stop  offset="3.072626e-02" style="stop-color:#FD7954"/>
			<stop  offset="0.564" style="stop-color:#E12763"/>
			<stop  offset="0.989" style="stop-color:#CD0089"/>
		</radialGradient>
		<circle class="st0" cx="788" cy="788" r="788"/>
		<polygon class="st1" points="506.1,543.3 654.3,543.3 776.7,833.3 889.5,543.3 1069.9,543.3 788,1168.4 728.4,1168.4 		"/>
	</g>
	<g>
		<path class="st1" d="M2228.9,1006l-238.2-594.5h87.4l196.2,502.9h-31.7l197.9-502.9h86.5L2287.1,1006H2228.9z"/>
		<path class="st1" d="M2726.6,1006V411.5h80.5V1006H2726.6z"/>
		<path class="st1" d="M3050.4,1006V411.5h80.5V1006H3050.4z M3103.5,1006v-73.7h165.3c44,0,82.5-9.6,115.7-28.7
			c33.1-19.1,59-45.5,77.5-79.2c18.6-33.7,27.8-72.5,27.8-116.5c0-43.4-9.4-81.9-28.3-115.7c-18.8-33.7-44.8-60-78-78.8
			c-33.1-18.8-71.4-28.3-114.8-28.3h-164.5v-73.7h166.2c43.4,0,83.5,7.4,120.4,22.3c36.8,14.9,68.8,35.7,95.9,62.5
			c27.1,26.9,48.3,58.3,63.4,94.2c15.1,36,22.7,75.4,22.7,118.2c0,42.3-7.6,81.5-22.7,117.8c-15.1,36.3-36.1,67.8-63,94.7
			c-26.9,26.8-58.7,47.7-95.5,62.5c-36.8,14.9-76.7,22.3-119.5,22.3H3103.5z"/>
		<path class="st1" d="M3787.1,1006V411.5h80.5V1006H3787.1z M3842,485.2v-73.7h336.7v73.7H3842z M3842,737v-70.2h312.7V737H3842z
			 M3842,1006v-73.7h341v73.7H3842z"/>
		<path class="st1" d="M4653.2,1014.6c-42.3,0-81.7-7.9-118.2-23.6c-36.6-15.7-68.5-37.7-95.9-66c-27.4-28.3-48.7-61-63.8-98.1
			c-15.1-37.1-22.7-76.8-22.7-119.1c0-42.8,7.6-82.7,22.7-119.5c15.1-36.8,36.3-69.2,63.4-97.2c27.1-28,58.8-49.7,95.1-65.1
			c36.3-15.4,75.5-23.1,117.8-23.1c42.3,0,81.5,7.7,117.8,23.1c36.3,15.4,68.1,37.1,95.5,65.1c27.4,28,48.8,60.5,64.2,97.7
			c15.4,37.1,23.1,77.1,23.1,119.9c0,42.3-7.7,82-23.1,119.1c-15.4,37.1-36.7,69.7-63.8,97.7c-27.1,28-58.8,49.8-95.1,65.5
			C4733.9,1006.7,4694.9,1014.6,4653.2,1014.6z M4651.5,937.5c42.8,0,80.4-9.9,112.7-29.6c32.3-19.7,57.8-46.8,76.7-81.4
			c18.8-34.5,28.3-74.1,28.3-118.7c0-33.1-5.4-63.5-16.3-91.2c-10.9-27.7-26-51.8-45.4-72.4c-19.4-20.6-42.3-36.4-68.5-47.5
			c-26.3-11.1-55.4-16.7-87.4-16.7c-42.3,0-79.5,9.7-111.8,29.1c-32.3,19.4-57.7,46.3-76.2,80.5c-18.6,34.3-27.8,73.7-27.8,118.2
			c0,33.1,5.3,63.8,15.8,92.1c10.6,28.3,25.4,52.5,44.5,72.8c19.1,20.3,42,36.1,68.5,47.5C4591.1,931.8,4620.1,937.5,4651.5,937.5z"
			/>
		<path class="st1" d="M5314.6,1014.6c-46.8,0-86.8-8.6-119.9-25.7c-33.1-17.1-62.5-42-88.2-74.5l54.8-54.8
			c18.8,26.3,40.5,46.1,65.1,59.5c24.5,13.4,54.8,20.1,90.8,20.1c35.4,0,63.8-7.7,85.2-23.1c21.4-15.4,32.1-36.5,32.1-63.4
			c0-22.3-5.1-40.3-15.4-54c-10.3-13.7-24.1-25-41.5-33.8c-17.4-8.8-36.4-16.8-57-24c-20.6-7.1-41.1-14.8-61.7-23.1
			c-20.6-8.3-39.4-18.6-56.5-30.8c-17.1-12.3-31-28.4-41.5-48.4c-10.6-20-15.8-45.1-15.8-75.4c0-33.7,8.1-62.4,24.4-86.1
			c16.3-23.7,38.6-42,66.8-54.8c28.3-12.8,60.1-19.3,95.5-19.3c38.8,0,73.7,7.6,104.5,22.7c30.8,15.1,56,35,75.4,59.5l-54.8,54.8
			c-17.7-20.6-36.7-36-57-46.3c-20.3-10.3-43.6-15.4-69.8-15.4c-32,0-57.4,7-76.2,21c-18.8,14-28.3,33.6-28.3,58.7
			c0,20,5.3,36.1,15.8,48.4c10.6,12.3,24.4,22.7,41.6,31.3c17.1,8.6,36.1,16.4,57,23.6c20.8,7.1,41.5,15,62.1,23.6
			c20.6,8.6,39.4,19.4,56.5,32.6c17.1,13.1,31,30.1,41.5,51c10.6,20.9,15.8,47,15.8,78.4c0,52.6-18.1,93.7-54.4,123.4
			C5425.2,999.7,5376.3,1014.6,5314.6,1014.6z"/>
		<path class="st1" d="M5727.5,1006V411.5h80.5V1006H5727.5z M5781.5,774.7v-70.2h161.9c22.3,0,42.1-4.6,59.5-13.7
			c17.4-9.1,31.1-22,41.1-38.5c10-16.6,15-36.3,15-59.1c0-22.8-5-42.5-15-59.1c-10-16.6-23.7-29.4-41.1-38.5
			c-17.4-9.1-37.3-13.7-59.5-13.7h-161.9v-70.2h167.1c36.5,0,69.2,7.4,98.1,22.3c28.8,14.9,51.7,35.8,68.5,63
			c16.8,27.1,25.3,59.3,25.3,96.4c0,36.6-8.4,68.4-25.3,95.5c-16.9,27.1-39.7,48.3-68.5,63.4c-28.8,15.1-61.5,22.7-98.1,22.7H5781.5
			z"/>
		<path class="st1" d="M6342.6,1006V411.5h80.5V1006H6342.6z"/>
		<path class="st1" d="M6666.4,1006V411.5h80.5V1006H6666.4z M6720.4,747.3v-67.7h161.1c34.8,0,61.7-8.8,80.5-26.6
			c18.8-17.7,28.3-41.7,28.3-72c0-28.5-9.3-52.3-27.8-71.1c-18.6-18.8-45.3-28.3-80.1-28.3h-161.9v-70.2h164.5
			c37.7,0,70.5,7.3,98.5,21.8c28,14.6,49.5,34.4,64.7,59.5c15.1,25.1,22.7,54,22.7,86.5c0,33.7-7.6,63.1-22.7,88.2
			c-15.1,25.1-36.7,44.7-64.7,58.7c-28,14-60.8,21-98.5,21H6720.4z M7009.1,1006l-215.9-266.4l76.2-26.6l241.6,293H7009.1z"/>
		<path class="st1" d="M7296.9,1006V411.5h80.5V1006H7296.9z M7351.8,485.2v-73.7h336.7v73.7H7351.8z M7351.8,737v-70.2h312.7V737
			H7351.8z M7351.8,1006v-73.7h341v73.7H7351.8z"/>
	</g>
</g>
</svg>
