<?xml version="1.0" encoding="utf-8"?>
<!-- Generator: Adobe Illustrator 24.3.0, SVG Export Plug-In . SVG Version: 6.00 Build 0)  -->
<svg version="1.1" id="Layer_1" xmlns="http://www.w3.org/2000/svg" xmlns:xlink="http://www.w3.org/1999/xlink" x="0px" y="0px"
	 width="7692.7px" height="1576px" viewBox="0 0 7692.7 1576" style="enable-background:new 0 0 7692.7 1576;" xml:space="preserve"
	>
<style type="text/css">
	.st0{fill:#FFFFFF;}
</style>
<g>
	<g>
		<path class="st0" d="M788,0C352.8,0,0,352.8,0,788c0,435.2,352.8,788,788,788c435.2,0,788-352.8,788-788
			C1576,352.8,1223.2,0,788,0z M788,1168.4h-59.6L506.1,543.3h148.2l122.4,290l112.8-290h180.4L788,1168.4z"/>
	</g>
	<g>
		<path class="st0" d="M2440.5,411.5l-182,462.4l-180.4-462.4h-87.4l238.2,594.5h58.2L2527,411.5H2440.5z"/>
		<path class="st0" d="M2726.6,411.5V1006h80.5V411.5H2726.6z"/>
		<path class="st0" d="M3550.3,590.5c-15.1-36-36.3-67.4-63.4-94.2c-27.1-26.8-59.1-47.7-95.9-62.5c-36.8-14.9-77-22.3-120.4-22.3
			h-166.2v73.7h164.5c43.4,0,81.7,9.4,114.8,28.3c33.1,18.8,59.1,45.1,78,78.8c18.9,33.7,28.3,72.3,28.3,115.6
			c0,44-9.3,82.8-27.8,116.5c-18.6,33.7-44.4,60.1-77.5,79.2c-33.1,19.1-71.7,28.7-115.7,28.7h-165.3v73.7h168.8
			c42.8,0,82.7-7.4,119.5-22.3c36.8-14.8,68.7-35.7,95.5-62.5c26.8-26.8,47.8-58.4,63-94.7c15.1-36.3,22.7-75.5,22.7-117.8
			C3573,665.9,3565.4,626.5,3550.3,590.5z M3050.4,411.5V1006h80.5V411.5H3050.4z"/>
		<path class="st0" d="M3842,932.3v73.7h340.9v-73.7H3842z M3842,666.8V737h312.7v-70.2H3842z M3842,411.5v73.7h336.7v-73.7H3842z
			 M3787.1,411.5V1006h80.5V411.5H3787.1z"/>
		<path class="st0" d="M4929.1,588.8c-15.4-37.1-36.8-69.7-64.2-97.6c-27.4-28-59.3-49.7-95.5-65.1c-36.3-15.4-75.5-23.1-117.8-23.1
			c-42.3,0-81.5,7.7-117.8,23.1c-36.3,15.4-68,37.1-95.1,65.1c-27.1,28-48.3,60.4-63.4,97.2c-15.1,36.8-22.7,76.7-22.7,119.5
			c0,42.3,7.6,82,22.7,119.1c15.1,37.1,36.4,69.8,63.8,98.1c27.4,28.3,59.4,50.3,95.9,66c36.5,15.7,76,23.6,118.2,23.6
			c41.7,0,80.7-7.9,116.9-23.6c36.3-15.7,68-37.5,95.1-65.5c27.1-28,48.4-60.5,63.8-97.7c15.4-37.1,23.1-76.8,23.1-119.1
			C4952.2,665.9,4944.5,626,4929.1,588.8z M4840.9,826.5c-18.9,34.6-44.4,61.7-76.7,81.4c-32.3,19.7-69.8,29.6-112.7,29.6
			c-31.4,0-60.4-5.7-86.9-17.1c-26.6-11.4-49.4-27.3-68.5-47.5c-19.1-20.3-34-44.5-44.5-72.8c-10.6-28.3-15.9-59-15.9-92.1
			c0-44.5,9.3-83.9,27.9-118.2c18.5-34.3,44-61.1,76.2-80.5c32.3-19.4,69.5-29.1,111.8-29.1c32,0,61.1,5.6,87.4,16.7
			c26.3,11.1,49.1,27,68.5,47.5c19.4,20.6,34.6,44.7,45.4,72.4c10.8,27.7,16.3,58.1,16.3,91.2C4869.1,752.4,4859.7,792,4840.9,826.5
			z"/>
		<path class="st0" d="M5500.1,768.3c-10.6-20.8-24.4-37.8-41.5-51c-17.1-13.1-36-24-56.5-32.6c-20.6-8.6-41.3-16.4-62.1-23.6
			c-20.9-7.1-39.8-15-57-23.6c-17.1-8.6-31-19-41.5-31.3c-10.6-12.3-15.8-28.4-15.8-48.4c0-25.1,9.4-44.7,28.3-58.7
			c18.9-14,44.3-21,76.2-21c26.3,0,49.5,5.1,69.8,15.4c20.3,10.3,39.3,25.7,57,46.3l54.8-54.8c-19.4-24.6-44.5-44.4-75.4-59.5
			c-30.8-15.1-65.7-22.7-104.5-22.7c-35.4,0-67.2,6.4-95.5,19.3c-28.3,12.8-50.5,31.1-66.8,54.8c-16.3,23.7-24.4,52.4-24.4,86.1
			c0,30.3,5.3,55.4,15.9,75.4c10.5,20,24.4,36.1,41.5,48.4c17.1,12.3,36,22.6,56.5,30.9c20.6,8.3,41.1,16,61.7,23.1
			c20.6,7.1,39.5,15.1,57,24c17.4,8.9,31.3,20.1,41.5,33.8c10.3,13.7,15.4,31.7,15.4,54c0,26.8-10.7,48-32.1,63.4
			c-21.4,15.4-49.8,23.1-85.2,23.1c-36,0-66.3-6.7-90.8-20.1c-24.6-13.4-46.3-33.3-65.1-59.5l-54.8,54.8
			c25.7,32.6,55.1,57.4,88.2,74.5c33.1,17.1,73.1,25.7,119.9,25.7c61.7,0,110.6-14.8,146.9-44.6c36.3-29.7,54.4-70.8,54.4-123.4
			C5515.9,815.3,5510.6,789.1,5500.1,768.3z"/>
		<path class="st0" d="M6115.2,496.7c-16.9-27.1-39.7-48.1-68.5-63c-28.9-14.9-61.6-22.3-98.1-22.3h-167v70.2h161.9
			c22.3,0,42.1,4.6,59.5,13.7c17.4,9.1,31.1,22,41.1,38.6c10,16.6,15,36.3,15,59.1c0,22.9-5,42.6-15,59.1
			c-10,16.6-23.7,29.4-41.1,38.6c-17.4,9.1-37.3,13.7-59.5,13.7h-161.9v70.2h167c36.5,0,69.2-7.6,98.1-22.7
			c28.8-15.1,51.7-36.3,68.5-63.4c16.8-27.1,25.3-59,25.3-95.5C6140.4,556,6132,523.9,6115.2,496.7z M5727.5,411.5V1006h80.5V411.5
			H5727.5z"/>
		<path class="st0" d="M6342.6,411.5V1006h80.5V411.5H6342.6z"/>
		<path class="st0" d="M6897.5,747l-28-34l-76.2,26.6l6.2,7.7l209.6,258.7H7111L6897.5,747z M7048.1,492.9
			c-15.1-25.1-36.7-45-64.7-59.5c-28-14.6-60.8-21.8-98.5-21.8h-164.5v70.2h161.9c34.8,0,61.5,9.4,80.1,28.3
			c18.6,18.8,27.8,42.6,27.8,71.1c0,30.3-9.4,54.3-28.3,72c-18.8,17.7-45.7,26.5-80.5,26.5h-161v67.7h164.5c4.3,0,8.5-0.1,12.6-0.3
			c32.5-1.4,61.1-8.3,85.9-20.7c28-14,49.5-33.5,64.7-58.7c15.1-25.1,22.7-54.5,22.7-88.2C7070.8,546.8,7063.2,518,7048.1,492.9z
			 M6666.4,411.5V1006h80.5V411.5H6666.4z"/>
		<path class="st0" d="M7351.8,932.3v73.7h341v-73.7H7351.8z M7351.8,666.8V737h312.7v-70.2H7351.8z M7351.8,411.5v73.7h336.7v-73.7
			H7351.8z M7296.9,411.5V1006h80.5V411.5H7296.9z"/>
	</g>
</g>
</svg>
