<?xml version="1.0" encoding="utf-8"?>
<!-- Generator: Adobe Illustrator 24.3.0, SVG Export Plug-In . SVG Version: 6.00 Build 0)  -->
<svg version="1.1" id="Layer_1" xmlns="http://www.w3.org/2000/svg" xmlns:xlink="http://www.w3.org/1999/xlink" x="0px" y="0px"
	 viewBox="0 0 6123.1 2664.7" style="enable-background:new 0 0 6123.1 2664.7;" xml:space="preserve">
<style type="text/css">
	.st0{fill:#FFFFFF;}
	.st1{opacity:0.1;fill:#FFFFFF;}
</style>
<g>
	<path class="st1" d="M1332.3,0C596.5,0,0,596.5,0,1332.3s596.5,1332.3,1332.3,1332.3c735.8,0,1332.3-596.5,1332.3-1332.3
		S2068.2,0,1332.3,0z M1235.4,2061.6C734.2,1937.8,781,1655.9,781,1655.9V603.2c435-4.4,454.4,413.8,454.4,413.8V2061.6z
		 M1884.9,2048.5c-428.9-37.1-418.3-293.8-418.3-293.8l-10.6-638c344.1-66.2,428.9,270,428.9,270V2048.5z"/>
	<g>
		<path class="st0" d="M3690.1,1116.2c-20.4-26.9-48.4-44.8-83.8-53.7c31-12,55.3-31,72.7-56.8c17.4-25.8,26.1-55.7,26.1-89.6
			c0-62.1-21.7-109.2-65.1-141.3c-43.4-32.1-107.1-48.2-191-48.2h-242.3v691.7h268.9c78.5-0.6,139-18.1,181.5-52.3
			c42.4-34.2,63.7-84.6,63.7-151.1C3720.7,1176.1,3710.5,1143.1,3690.1,1116.2z M3349.2,842.1h99.8c39.3,0,68,6.9,86.2,20.7
			c18.2,13.8,27.3,36.4,27.3,67.7c0,56.1-36,84.7-107.8,86h-105.5V842.1z M3549.9,1279.9c-18.9,16-45.1,24-78.6,24h-122.1v-186.7
			h130.6c65.6,0.9,98.3,33.1,98.3,96.4C3578.2,1241.8,3568.8,1263.9,3549.9,1279.9z"/>
		<path class="st0" d="M3950.7,720.5c-13.9-13.3-32.6-20-56.1-20c-23.8,0-42.5,6.7-56.3,20c-13.8,13.3-20.7,30.2-20.7,50.8
			c0,20.9,7,38,21.1,51.3c14.1,13.3,32.7,19.9,55.8,19.9c23.1,0,41.7-6.7,55.8-19.9c14.1-13.3,21.1-30.4,21.1-51.3
			C3971.6,750.7,3964.6,733.8,3950.7,720.5z M3825.7,904.3v514h137.8v-514H3825.7z"/>
		<path class="st0" d="M4476.6,942.8c-26.6-32-67.1-48-121.6-48c-61.8,0-111,23-147.7,68.9l-4.3-59.4h-129.2v514H4211v-362.5
			c19.3-32.9,48.3-49.4,86.9-49.4c29.5,0,50.5,6.6,63.2,19.7c12.7,13.1,19,34.3,19,63.4v328.7h137.3v-332.1
			C4516.8,1022.6,4503.2,974.8,4476.6,942.8z"/>
		<path class="st0" d="M4925.5,688.6v262.2c-32.6-37.4-74-56.1-124-56.1c-62.4,0-111.6,23.8-147.5,71.3
			c-35.9,47.5-53.9,111.3-53.9,191.4c0,84.9,18.3,151.2,54.9,198.8c36.6,47.7,85.1,71.5,145.6,71.5c53.8,0,97.9-21.4,132.1-64.1
			l6.6,54.6h124V688.6H4925.5z M4925.5,1263.4c-17.4,35.8-47.4,53.8-89.8,53.8c-32,0-56.4-12.8-73.2-38.5
			c-16.8-25.7-25.2-62.6-25.2-110.9c0-107.5,33.1-161.3,99.3-161.3c42.1,0,71.7,17.9,88.8,53.8V1263.4z"/>
		<path class="st0" d="M5472.8,904.3v364.3c-17.4,32.3-49.4,48.5-96,48.5c-48.8,0-73.2-26.8-73.2-80.4V904.3h-137.3v336.8
			c0.6,61.1,15.4,107.5,44.4,139.2c29,31.7,71,47.5,126.1,47.5c59.9,0,106.7-20.6,140.6-61.8l3.8,52.3h129.2v-514H5472.8z"/>
		<path class="st0" d="M5871.8,1307.6l243.7-322.4v-80.9h-411.9V1015h234.7l-241.8,319.7v83.6h426.6v-110.7H5871.8z"/>
	</g>
	<g>
		<path class="st0" d="M3661.4,1687.4c-30.5,0-58.4,7.1-83.7,21.3c-25.3,14.2-45.5,34.5-60.6,60.8c-18-54.7-60.4-82.1-127.1-82.1
			c-28.7,0-54.7,6.4-78.2,19.2s-43,31.9-58.6,57.5l-1.6-68.8h-45v423.1h46.9v-290.1c10.2-33.1,25.8-58.1,46.9-74.9
			c21.1-16.8,46.4-25.2,75.9-25.2c34.9,0,60.8,8.9,77.6,26.8c16.8,17.9,25.3,44.9,25.6,81.1v282.3h46.9v-279.9
			c2.6-30.5,15.5-56.4,38.7-77.6c23.2-21.2,51.6-32.1,85.2-32.7c36.2,0,62.4,9.1,78.4,27.4c16,18.2,24.2,46.3,24.4,84.1v278.8h46.9
			v-282.3C3798.4,1736.9,3752.1,1687.4,3661.4,1687.4z"/>
		<path class="st0" d="M4222.9,2021.7v-200.2c-0.8-42.2-14.8-75.1-42-98.7c-27.2-23.6-64.5-35.4-111.6-35.4
			c-45.6,0-84.1,12.3-115.4,36.9c-31.3,24.6-46.9,53.8-46.9,87.4l46.9,0.4c0-23.5,10.7-43.5,32.1-60.2c21.4-16.7,48.3-25,80.9-25
			c35.7,0,62.9,8.7,81.5,26c18.6,17.3,28,41.1,28,71.3v48.1h-84.9c-61.3,0-109,12-143.3,36c-34.3,24-51.4,56.6-51.4,97.7
			c0,34.7,12.6,63.3,37.7,86c25.2,22.7,58.1,34,98.7,34c28.4,0,55.3-5.8,80.7-17.4c25.4-11.6,46.3-28.1,62.8-49.5
			c1.3,26.1,4.3,45.7,9,59h50.1v-4.7C4227.2,2093.2,4222.9,2062.6,4222.9,2021.7z M4176.4,2001.3c-11.2,25.3-29.1,45.5-53.8,60.6
			c-24.6,15.1-52.6,22.7-83.9,22.7c-28.2,0-51-7.8-68.6-23.5c-17.6-15.6-26.4-35.3-26.4-59c0-28.9,13.2-51.7,39.5-68.2
			c26.3-16.5,62.8-25.1,109.5-25.6h83.7V2001.3z"/>
		<path class="st0" d="M4626,1695.2l-2.3,61c-30-45.9-73.8-68.8-131.4-68.8c-50.3,0-90.1,19.3-119.4,58.1
			c-29.3,38.7-44,91.2-44,157.4v6.3c0,66.5,14.9,119.2,44.6,158.3c29.7,39.1,69.1,58.7,118.1,58.7c57.3,0,101-20.9,131-62.6v53.2
			c-0.8,40.9-12.1,72.9-34,96c-21.9,23.1-52.4,34.6-91.5,34.6c-45.6,0-85-20.3-118.1-61l-26.2,28.2c15.4,21.9,36.4,39.4,63.1,52.6
			c26.7,13.2,54.8,19.7,84.2,19.7c52.1,0,93.5-15.9,124-47.7c30.5-31.8,45.7-74.9,45.7-129.4v-414.4H4626z M4622.5,2008
			c-24,51.6-64.8,77.4-122.4,77.4c-39.4,0-69.9-15.6-91.5-46.7c-21.6-31.1-32.5-73.7-32.5-127.7c0-60.2,11-105.8,32.8-136.6
			c21.9-30.9,52.5-46.3,91.9-46.3c28.9,0,53.7,7.1,74.3,21.3c20.6,14.2,36.4,34.9,47.3,62V2008z"/>
		<path class="st0" d="M4822.7,2078.8l257.7-348.4v-35.1h-307.7v40.7h248.7l-256.5,348v34.4h332.7v-39.5H4822.7z"/>
		<path class="st0" d="M5234.2,1550.7c-5.9-6.1-13.8-9.1-23.7-9.1c-9.9,0-17.7,3.1-23.5,9.1c-5.7,6.1-8.6,13.5-8.6,22.3
			s2.9,16.2,8.6,22.2c5.7,6,13.5,8.9,23.5,8.9c9.9,0,17.8-3,23.7-8.9c5.9-6,8.8-13.3,8.8-22.2S5240.1,1556.8,5234.2,1550.7z
			 M5186.7,1695.2v423.1h46.9v-423.1H5186.7z"/>
		<path class="st0" d="M5646.1,1725.7c-22.1-25.5-55.9-38.3-101.3-38.3c-28.7,0-54.9,6.8-78.6,20.5c-23.7,13.7-43.5,33.6-59.4,59.6
			l-1.6-72.3h-44.6v423.1h46.5v-289.7c10.7-30.8,27.2-55.2,49.5-73.3c22.3-18.1,47.9-27.2,76.8-27.2c34.7,0,59.9,9.2,75.7,27.8
			c15.8,18.5,23.8,46.7,24,84.4v278h46.5v-277.6C5679.5,1789.6,5668.3,1751.2,5646.1,1725.7z"/>
		<path class="st0" d="M6123.1,1909.9v-26.2c0-60.7-15.1-108.6-45.2-143.7c-30.1-35-70.8-52.6-122.2-52.6
			c-32.9,0-63.3,9.3-91.5,27.9c-28.1,18.6-50.1,44.2-65.9,76.8c-15.8,32.6-23.6,69.2-23.6,109.9v16.8c0,39.4,8.1,74.9,24.2,106.5
			c16.2,31.7,38.8,56.4,67.8,74.1c29.1,17.7,61.6,26.6,97.6,26.6c65.4,0,115.3-24.9,149.8-74.7l-29.3-22.3
			c-15.6,20.1-33,34.7-52.2,43.8c-19.2,9.1-41.2,13.7-66.3,13.7c-41.7,0-76.3-16-103.8-47.9c-27.5-31.9-41.2-71.9-41.2-119.8v-9
			H6123.1z M5866.8,1766c24.1-25.8,53.8-38.7,89-38.7c35.4,0,64.1,12.8,86,38.3c21.9,25.6,33.5,58.6,34.8,99.3v5.1h-253.8
			C5828,1826.4,5842.7,1791.8,5866.8,1766z"/>
	</g>
</g>
</svg>
