<?xml version="1.0" encoding="utf-8"?>
<!-- Generator: Adobe Illustrator 24.3.0, SVG Export Plug-In . SVG Version: 6.00 Build 0)  -->
<svg version="1.1" id="Layer_1" xmlns="http://www.w3.org/2000/svg" xmlns:xlink="http://www.w3.org/1999/xlink" x="0px" y="0px"
	 viewBox="0 0 6123.1 2664.7" style="enable-background:new 0 0 6123.1 2664.7;" xml:space="preserve">
<style type="text/css">
	.st0{fill:#FFFFFF;}
	.st1{opacity:0.1;fill:#FF3333;}
	.st2{fill:#F63A3A;}
	.st3{fill:#F63939;}
</style>
<g>
	<circle class="st1" cx="1332.3" cy="1332.3" r="1332.3"/>
	<g>
		<path d="M3206.7,1418.3V726.6H3449c83.9,0,147.6,16.1,191,48.2c43.4,32.1,65.1,79.3,65.1,141.3c0,33.9-8.7,63.7-26.1,89.5
			c-17.4,25.8-41.6,44.7-72.7,56.8c35.5,8.9,63.4,26.8,83.8,53.7c20.4,26.9,30.6,59.9,30.6,98.8c0,66.5-21.2,116.9-63.7,151.1
			c-42.4,34.2-102.9,51.6-181.5,52.3H3206.7z M3349.2,1016.4h105.5c71.9-1.3,107.8-29.9,107.8-86c0-31.4-9.1-53.9-27.3-67.7
			c-18.2-13.8-47-20.7-86.2-20.7h-99.8V1016.4z M3349.2,1117.1v186.7h122.1c33.6,0,59.8-8,78.6-24c18.8-16,28.3-38.1,28.3-66.3
			c0-63.3-32.8-95.5-98.3-96.4H3349.2z"/>
		<path d="M3817.7,771.3c0-20.6,6.9-37.5,20.7-50.8c13.8-13.3,32.5-20,56.3-20c23.4,0,42.1,6.7,56.1,20
			c13.9,13.3,20.9,30.2,20.9,50.8c0,20.9-7.1,38-21.1,51.3c-14.1,13.3-32.7,20-55.8,20c-23.1,0-41.7-6.7-55.8-20
			C3824.7,809.3,3817.7,792.2,3817.7,771.3z M3963.5,1418.3h-137.8v-514h137.8V1418.3z"/>
		<path d="M4202.9,904.3l4.3,59.4c36.7-45.9,86-68.9,147.7-68.9c54.5,0,95,16,121.6,48c26.6,32,40.2,79.8,40.9,143.5v332.1h-137.3
			v-328.7c0-29.1-6.3-50.3-19-63.4c-12.7-13.1-33.7-19.7-63.2-19.7c-38.6,0-67.6,16.5-86.9,49.4v362.5h-137.3v-514H4202.9z"/>
		<path d="M4600.1,1157.5c0-80.1,18-143.9,53.9-191.4c35.9-47.5,85.1-71.3,147.5-71.3c50,0,91.4,18.7,124,56.1V688.6h137.8v729.7
			h-124l-6.7-54.6c-34.2,42.8-78.2,64.1-132.1,64.1c-60.5,0-109-23.8-145.6-71.5C4618.4,1308.7,4600.1,1242.4,4600.1,1157.5z
			 M4737.4,1167.7c0,48.2,8.4,85.2,25.2,110.9c16.8,25.7,41.2,38.5,73.2,38.5c42.4,0,72.4-17.9,89.8-53.8v-203.2
			c-17.1-35.8-46.7-53.8-88.8-53.8C4770.5,1006.4,4737.4,1060.2,4737.4,1167.7z"/>
		<path d="M5477.5,1366.1c-33.9,41.2-80.8,61.8-140.6,61.8c-55.1,0-97.2-15.8-126.1-47.5c-29-31.7-43.8-78.1-44.4-139.2V904.3h137.3
			v332.5c0,53.6,24.4,80.4,73.2,80.4c46.6,0,78.5-16.2,96-48.5V904.3h137.8v514h-129.2L5477.5,1366.1z"/>
		<path d="M5871.8,1307.6h251.3v110.7h-426.6v-83.6l241.8-319.7h-234.7V904.3h411.9v80.9L5871.8,1307.6z"/>
	</g>
	<g>
		<path class="st2" d="M3251.7,1695.2l1.6,68.8c15.6-25.5,35.2-44.7,58.6-57.5c23.5-12.8,49.5-19.2,78.2-19.2
			c66.7,0,109.1,27.4,127.1,82.1c15.1-26.3,35.3-46.6,60.6-60.8c25.3-14.2,53.2-21.3,83.7-21.3c90.7,0,137,49.5,138.8,148.6v282.3
			h-46.9v-278.8c-0.3-37.8-8.4-65.8-24.4-84.1c-16-18.2-42.2-27.4-78.4-27.4c-33.6,0.5-62,11.4-85.2,32.6
			c-23.2,21.2-36.1,47.1-38.7,77.6v279.9h-46.9V1836c-0.3-36.2-8.8-63.3-25.6-81.1c-16.8-17.9-42.7-26.8-77.6-26.8
			c-29.5,0-54.7,8.4-75.9,25.2c-21.1,16.8-36.8,41.8-46.9,74.9v290.1h-46.9v-423.1H3251.7z"/>
		<path class="st2" d="M4185.8,2118.2c-4.7-13.3-7.7-33-9-59c-16.4,21.4-37.3,37.9-62.8,49.5c-25.4,11.6-52.3,17.4-80.7,17.4
			c-40.7,0-73.6-11.3-98.7-34c-25.2-22.7-37.7-51.3-37.7-86c0-41.2,17.1-73.8,51.4-97.7c34.3-24,82-36,143.3-36h84.8v-48.1
			c0-30.2-9.3-54-28-71.4c-18.6-17.3-45.8-26-81.5-26c-32.6,0-59.6,8.3-80.9,25c-21.4,16.7-32.1,36.8-32.1,60.2l-46.9-0.4
			c0-33.6,15.6-62.8,46.9-87.4c31.3-24.6,69.7-36.9,115.3-36.9c47.2,0,84.4,11.8,111.6,35.4c27.2,23.6,41.2,56.5,42,98.7v200.2
			c0,40.9,4.3,71.6,12.9,91.9v4.7H4185.8z M4038.8,2084.6c31.3,0,59.2-7.6,83.9-22.7c24.6-15.1,42.6-35.3,53.8-60.6v-93.1h-83.7
			c-46.7,0.5-83.2,9.1-109.5,25.6c-26.3,16.6-39.5,39.3-39.5,68.2c0,23.7,8.8,43.4,26.4,59
			C3987.7,2076.8,4010.6,2084.6,4038.8,2084.6z"/>
		<path class="st2" d="M4328.9,1902.8c0-66.2,14.7-118.7,44-157.4c29.3-38.7,69.1-58.1,119.4-58.1c57.6,0,101.4,22.9,131.4,68.8
			l2.3-61h43.8v414.4c0,54.5-15.2,97.6-45.7,129.4c-30.5,31.8-71.8,47.7-123.9,47.7c-29.5,0-57.5-6.6-84.3-19.7
			c-26.7-13.2-47.8-30.7-63.1-52.6l26.2-28.2c33.1,40.7,72.5,61,118.1,61c39.1,0,69.6-11.5,91.5-34.6c21.9-23.1,33.2-55.1,34-96
			v-53.2c-30,41.7-73.6,62.6-131,62.6c-49,0-88.4-19.5-118.1-58.6c-29.7-39.1-44.6-91.9-44.6-158.4V1902.8z M4376.2,1911
			c0,54,10.8,96.5,32.5,127.7c21.6,31.2,52.1,46.7,91.5,46.7c57.6,0,98.4-25.8,122.4-77.4v-196.7c-10.9-27.1-26.7-47.8-47.3-62
			c-20.6-14.2-45.4-21.3-74.3-21.3c-39.4,0-70,15.4-91.9,46.3C4387.1,1805.3,4376.2,1850.8,4376.2,1911z"/>
		<path class="st2" d="M4822.7,2078.8h274.9v39.5h-332.7v-34.4l256.5-348h-248.7v-40.7h307.7v35.1L4822.7,2078.8z"/>
		<path class="st2" d="M5178.5,1573c0-8.8,2.9-16.3,8.6-22.3c5.7-6.1,13.6-9.1,23.5-9.1c9.9,0,17.8,3,23.7,9.1s8.8,13.5,8.8,22.3
			c0,8.8-2.9,16.2-8.8,22.1c-5.9,6-13.8,8.9-23.7,8.9c-9.9,0-17.7-3-23.5-8.9C5181.3,1589.2,5178.5,1581.8,5178.5,1573z
			 M5233.6,2118.2h-46.9v-423.1h46.9V2118.2z"/>
		<path class="st2" d="M5405.3,1695.2l1.6,72.3c15.9-26.1,35.7-45.9,59.4-59.6c23.7-13.7,49.9-20.5,78.6-20.5
			c45.4,0,79.1,12.8,101.3,38.3c22.2,25.5,33.4,63.9,33.6,115v277.6h-46.5v-278c-0.3-37.8-8.3-65.9-24-84.5
			c-15.8-18.5-41-27.8-75.7-27.8c-28.9,0-54.5,9.1-76.8,27.2c-22.3,18.1-38.8,42.6-49.5,73.3v289.7h-46.5v-423.1H5405.3z"/>
		<path class="st2" d="M5964.4,2126.1c-36,0-68.5-8.9-97.6-26.6c-29.1-17.7-51.7-42.4-67.8-74.1c-16.2-31.7-24.2-67.2-24.2-106.5
			V1902c0-40.7,7.9-77.3,23.7-109.9c15.8-32.6,37.7-58.2,65.9-76.8c28.2-18.6,58.6-28,91.5-28c51.3,0,92.1,17.5,122.2,52.6
			c30.1,35.1,45.2,83,45.2,143.7v26.2h-301.8v9c0,48,13.7,87.9,41.2,119.8c27.5,31.9,62.1,47.9,103.8,47.9c25,0,47.1-4.6,66.3-13.7
			c19.2-9.1,36.6-23.7,52.2-43.8l29.3,22.3C6079.7,2101.2,6029.8,2126.1,5964.4,2126.1z M5955.8,1727.3c-35.2,0-64.8,12.9-88.9,38.7
			c-24.1,25.8-38.8,60.5-44,104h253.8v-5.1c-1.3-40.7-12.9-73.8-34.8-99.3C6019.9,1740,5991.2,1727.3,5955.8,1727.3z"/>
	</g>
	<g>
		<path class="st3" d="M781,603.2v1052.7c0,0-46.8,281.9,454.4,405.7V1017C1235.4,1017,1216,598.7,781,603.2z"/>
		<path class="st3" d="M1456,1116.7l10.6,638c0,0-10.6,256.8,418.3,293.8v-661.8C1884.9,1386.7,1800.2,1050.5,1456,1116.7z"/>
	</g>
</g>
</svg>
