<?xml version="1.0" encoding="utf-8"?>
<!-- Generator: Adobe Illustrator 24.3.0, SVG Export Plug-In . SVG Version: 6.00 Build 0)  -->
<svg version="1.1" id="Layer_1" xmlns="http://www.w3.org/2000/svg" xmlns:xlink="http://www.w3.org/1999/xlink" x="0px" y="0px"
	 width="2817.2px" height="613.1px" viewBox="0 0 2817.2 613.1" style="enable-background:new 0 0 2817.2 613.1;"
	 xml:space="preserve">
<style type="text/css">
	.st0{fill:#FFFFFF;}
</style>
<g>
	<g>
		<g>
			<path class="st0" d="M1069.7,332.4h-56.2V59.6h56.2V332.4z"/>
			<path class="st0" d="M1343.6,332.4h-56.2L1178,152.9v179.5h-56.2V59.6h56.2l109.6,179.8V59.6h56V332.4z"/>
			<path class="st0" d="M1556.8,220.9h-107.9v111.5h-56.2V59.6h177.6v45.5h-121.4v70.4h107.9V220.9z"/>
			<path class="st0" d="M1659.1,287.2h119.3v45.1h-175.5V59.6h56.2V287.2z"/>
			<path class="st0" d="M1968.2,276.2h-98.5l-18.7,56.2h-59.8l101.5-272.8h52.1l102.1,272.8h-59.8L1968.2,276.2z M1884.8,230.6h68.2
				l-34.3-102.1L1884.8,230.6z"/>
			<path class="st0" d="M2294.2,332.4H2238l-109.4-179.5v179.5h-56.2V59.6h56.2l109.6,179.8V59.6h56V332.4z"/>
			<path class="st0" d="M2500.6,276.2h-98.5l-18.7,56.2h-59.8l101.5-272.8h52.1l102.1,272.8h-59.8L2500.6,276.2z M2417.3,230.6h68.2
				l-34.3-102.1L2417.3,230.6z"/>
			<path class="st0" d="M2705.8,232.5H2661v99.9h-56.2V59.6h101.4c32.2,0,57.1,7.2,74.6,21.5c17.5,14.4,26.2,34.7,26.2,60.9
				c0,18.6-4,34.1-12.1,46.6c-8.1,12.4-20.3,22.3-36.6,29.7l59,111.5v2.6h-60.3L2705.8,232.5z M2661,187h45.3
				c14.1,0,25-3.6,32.8-10.8c7.7-7.2,11.6-17.1,11.6-29.7c0-12.9-3.7-23-11-30.3c-7.3-7.4-18.5-11.1-33.6-11.1H2661V187z"/>
		</g>
		<g>
			<path class="st0" d="M1028.5,520.3h-15V406.8h15V520.3z"/>
			<path class="st0" d="M1067.2,436l0.5,10.6c6.4-8.1,14.9-12.2,25.2-12.2c17.8,0,26.8,10.1,27,30.2v55.7h-14.4v-55.8
				c-0.1-6.1-1.4-10.6-4.2-13.5c-2.7-2.9-7-4.4-12.7-4.4c-4.7,0-8.8,1.2-12.3,3.7c-3.5,2.5-6.3,5.8-8.3,9.8v60.1h-14.4V436H1067.2z"
				/>
			<path class="st0" d="M1148.7,520.3v-73.2h-13.3V436h13.3v-8.7c0-9,2.4-16,7.2-21c4.8-4.9,11.7-7.4,20.5-7.4
				c3.3,0,6.6,0.4,9.9,1.3l-0.8,11.6c-2.4-0.5-5-0.7-7.8-0.7c-4.7,0-8.3,1.4-10.8,4.1c-2.5,2.7-3.8,6.7-3.8,11.8v8.9h18v11.1h-18
				v73.2H1148.7z"/>
			<path class="st0" d="M1212.7,520.3h-14.4V400.6h14.4V520.3z"/>
			<path class="st0" d="M1287.8,512c-5.6,6.6-13.8,9.9-24.7,9.9c-9,0-15.8-2.6-20.5-7.8c-4.7-5.2-7.1-12.9-7.1-23.2V436h14.4v54.5
				c0,12.8,5.2,19.2,15.6,19.2c11,0,18.3-4.1,22-12.3V436h14.4v84.3h-13.7L1287.8,512z"/>
			<path class="st0" d="M1358.8,521.9c-11.4,0-20.7-3.7-27.9-11.3c-7.2-7.5-10.8-17.5-10.8-30.1v-2.7c0-8.4,1.6-15.8,4.8-22.4
				c3.2-6.6,7.7-11.7,13.4-15.4c5.7-3.7,12-5.6,18.7-5.6c11,0,19.5,3.6,25.6,10.8c6.1,7.2,9.1,17.6,9.1,31v6h-57.1
				c0.2,8.3,2.6,15,7.3,20.2c4.7,5.1,10.6,7.7,17.7,7.7c5.1,0,9.4-1,12.9-3.1c3.5-2.1,6.6-4.8,9.3-8.3l8.8,6.9
				C1383.5,516.4,1372.9,521.9,1358.8,521.9z M1357,446.3c-5.8,0-10.7,2.1-14.6,6.4c-4,4.2-6.4,10.2-7.3,17.8h42.2v-1.1
				c-0.4-7.3-2.4-13-5.9-17C1367.8,448.3,1363,446.3,1357,446.3z"/>
			<path class="st0" d="M1422,436l0.5,10.6c6.4-8.1,14.9-12.2,25.2-12.2c17.8,0,26.8,10.1,27,30.2v55.7h-14.4v-55.8
				c-0.1-6.1-1.4-10.6-4.2-13.5c-2.7-2.9-7-4.4-12.7-4.4c-4.7,0-8.8,1.2-12.3,3.7c-3.5,2.5-6.3,5.8-8.3,9.8v60.1h-14.4V436H1422z"/>
			<path class="st0" d="M1530.2,510.1c5.2,0,9.6-1.6,13.5-4.7c3.8-3.1,6-7,6.4-11.7h13.6c-0.3,4.8-1.9,9.4-5,13.8
				c-3.1,4.4-7.2,7.8-12.3,10.4c-5.1,2.6-10.5,3.9-16.3,3.9c-11.5,0-20.6-3.8-27.4-11.5s-10.2-18.1-10.2-31.4v-2.4
				c0-8.2,1.5-15.5,4.5-21.9s7.3-11.4,13-14.9c5.6-3.5,12.3-5.3,20-5.3c9.4,0,17.3,2.8,23.6,8.5c6.3,5.7,9.6,13,10,22.1h-13.6
				c-0.4-5.5-2.5-9.9-6.2-13.4c-3.7-3.5-8.3-5.3-13.8-5.3c-7.3,0-13,2.6-17,7.9c-4,5.3-6,12.9-6,22.9v2.7c0,9.7,2,17.2,6,22.4
				C1517.1,507.5,1522.8,510.1,1530.2,510.1z"/>
			<path class="st0" d="M1614.9,521.9c-11.4,0-20.7-3.7-27.9-11.3c-7.2-7.5-10.8-17.5-10.8-30.1v-2.7c0-8.4,1.6-15.8,4.8-22.4
				c3.2-6.6,7.7-11.7,13.4-15.4c5.7-3.7,12-5.6,18.7-5.6c11,0,19.5,3.6,25.6,10.8c6.1,7.2,9.1,17.6,9.1,31v6h-57.1
				c0.2,8.3,2.6,15,7.3,20.2c4.7,5.1,10.6,7.7,17.7,7.7c5.1,0,9.4-1,12.9-3.1c3.5-2.1,6.6-4.8,9.3-8.3l8.8,6.9
				C1639.6,516.4,1629,521.9,1614.9,521.9z M1613.1,446.3c-5.8,0-10.7,2.1-14.6,6.4c-4,4.2-6.4,10.2-7.3,17.8h42.2v-1.1
				c-0.4-7.3-2.4-13-5.9-17C1623.9,448.3,1619.1,446.3,1613.1,446.3z"/>
			<path class="st0" d="M1705.2,448.9c-2.2-0.4-4.6-0.6-7.1-0.6c-9.5,0-15.9,4-19.2,12.1v59.9h-14.4V436h14l0.2,9.7
				c4.7-7.5,11.4-11.3,20.1-11.3c2.8,0,4.9,0.4,6.4,1.1V448.9z"/>
			<path class="st0" d="M1847.4,520.3h-15v-52.4h-57.2v52.4h-15V406.8h15v48.8h57.2v-48.8h15V520.3z"/>
			<path class="st0" d="M1871.8,413.6c0-2.3,0.7-4.3,2.1-5.9c1.4-1.6,3.5-2.4,6.4-2.4s4.9,0.8,6.4,2.4c1.5,1.6,2.2,3.6,2.2,5.9
				s-0.7,4.3-2.2,5.8c-1.5,1.6-3.6,2.3-6.4,2.3s-4.9-0.8-6.4-2.3C1872.5,417.9,1871.8,415.9,1871.8,413.6z M1887.4,520.3H1873V436
				h14.4V520.3z"/>
			<path class="st0" d="M1951.2,448.9c-2.2-0.4-4.6-0.6-7.1-0.6c-9.5,0-15.9,4-19.2,12.1v59.9h-14.4V436h14l0.2,9.7
				c4.7-7.5,11.4-11.3,20.1-11.3c2.8,0,4.9,0.4,6.4,1.1V448.9z"/>
			<path class="st0" d="M1964.6,413.6c0-2.3,0.7-4.3,2.1-5.9c1.4-1.6,3.5-2.4,6.4-2.4c2.8,0,4.9,0.8,6.4,2.4
				c1.5,1.6,2.2,3.6,2.2,5.9s-0.7,4.3-2.2,5.8c-1.5,1.6-3.6,2.3-6.4,2.3c-2.8,0-4.9-0.8-6.4-2.3
				C1965.3,417.9,1964.6,415.9,1964.6,413.6z M1980.1,520.3h-14.4V436h14.4V520.3z"/>
			<path class="st0" d="M2016.8,436l0.5,10.6c6.4-8.1,14.9-12.2,25.2-12.2c17.8,0,26.8,10.1,27,30.2v55.7h-14.4v-55.8
				c-0.1-6.1-1.4-10.6-4.2-13.5c-2.7-2.9-7-4.4-12.7-4.4c-4.7,0-8.8,1.2-12.3,3.7c-3.5,2.5-6.3,5.8-8.3,9.8v60.1h-14.4V436H2016.8z"
				/>
			<path class="st0" d="M2087.8,477.4c0-13.1,3-23.6,9.1-31.4c6.1-7.8,14.1-11.6,24.2-11.6c10.3,0,18.3,3.6,24.1,10.9l0.7-9.3h13.2
				v82.3c0,10.9-3.2,19.5-9.7,25.8c-6.5,6.3-15.2,9.4-26.1,9.4c-6.1,0-12-1.3-17.9-3.9c-5.8-2.6-10.3-6.2-13.3-10.7l7.5-8.7
				c6.2,7.6,13.7,11.5,22.7,11.5c7,0,12.5-2,16.4-5.9c3.9-3.9,5.9-9.5,5.9-16.7v-7.2c-5.8,6.7-13.6,10-23.6,10
				c-9.9,0-17.9-4-24-11.9C2090.9,502,2087.8,491.1,2087.8,477.4z M2102.3,479.1c0,9.5,1.9,17,5.8,22.4c3.9,5.4,9.4,8.2,16.4,8.2
				c9.1,0,15.8-4.1,20-12.4v-38.5c-4.4-8.1-11-12.1-19.9-12.1c-7,0-12.5,2.7-16.4,8.2C2104.3,460.3,2102.3,468.4,2102.3,479.1z"/>
			<path class="st0" d="M2237.5,475.9v44.4h-15V406.8h41.9c12.4,0,22.1,3.2,29.2,9.5c7,6.3,10.5,14.7,10.5,25.2
				c0,11-3.4,19.5-10.3,25.4c-6.9,5.9-16.7,8.9-29.6,8.9H2237.5z M2237.5,463.6h26.9c8,0,14.1-1.9,18.4-5.7s6.4-9.2,6.4-16.4
				c0-6.8-2.1-12.2-6.4-16.2c-4.3-4.1-10.1-6.2-17.5-6.3h-27.7V463.6z"/>
			<path class="st0" d="M2336.7,520.3h-14.4V400.6h14.4V520.3z"/>
			<path class="st0" d="M2411.8,520.3c-0.8-1.7-1.5-4.6-2-8.9c-6.7,7-14.7,10.4-24,10.4c-8.3,0-15.1-2.3-20.4-7
				c-5.3-4.7-8-10.7-8-17.9c0-8.8,3.3-15.6,10-20.5c6.7-4.9,16.1-7.3,28.2-7.3h14v-6.6c0-5-1.5-9-4.5-12c-3-3-7.5-4.5-13.3-4.5
				c-5.1,0-9.4,1.3-12.9,3.9c-3.5,2.6-5.2,5.7-5.2,9.4H2359c0-4.2,1.5-8.3,4.5-12.2c3-3.9,7-7,12.2-9.3c5.1-2.3,10.7-3.4,16.9-3.4
				c9.7,0,17.3,2.4,22.8,7.3c5.5,4.9,8.4,11.5,8.6,20.1v38.8c0,7.7,1,13.9,3,18.5v1.2H2411.8z M2387.9,509.3c4.5,0,8.8-1.2,12.9-3.5
				s7-5.4,8.8-9.1v-17.3h-11.3c-17.7,0-26.5,5.2-26.5,15.5c0,4.5,1.5,8.1,4.5,10.6C2379.3,508,2383.1,509.3,2387.9,509.3z"/>
			<path class="st0" d="M2466.1,415.6V436h15.7v11.1h-15.7v52.4c0,3.4,0.7,5.9,2.1,7.6c1.4,1.7,3.8,2.5,7.2,2.5
				c1.7,0,3.9-0.3,6.9-0.9v11.6c-3.8,1-7.5,1.5-11.1,1.5c-6.4,0-11.3-1.9-14.6-5.8c-3.3-3.9-4.9-9.4-4.9-16.6v-52.3h-15.4V436h15.4
				v-20.4H2466.1z"/>
			<path class="st0" d="M2505.8,520.3v-73.2h-13.3V436h13.3v-8.7c0-9,2.4-16,7.2-21c4.8-4.9,11.7-7.4,20.5-7.4
				c3.3,0,6.6,0.4,9.9,1.3l-0.8,11.6c-2.4-0.5-5-0.7-7.8-0.7c-4.7,0-8.3,1.4-10.8,4.1c-2.5,2.7-3.8,6.7-3.8,11.8v8.9h18v11.1h-18
				v73.2H2505.8z"/>
			<path class="st0" d="M2550.3,477.4c0-8.3,1.6-15.7,4.9-22.3c3.3-6.6,7.8-11.7,13.6-15.3c5.8-3.6,12.4-5.4,19.8-5.4
				c11.5,0,20.8,4,27.9,11.9c7.1,7.9,10.6,18.5,10.6,31.7v1c0,8.2-1.6,15.6-4.7,22.1c-3.1,6.5-7.6,11.6-13.5,15.2
				c-5.8,3.6-12.6,5.4-20.1,5.4c-11.4,0-20.7-4-27.8-11.9c-7.1-7.9-10.6-18.5-10.6-31.6V477.4z M2564.8,479.1
				c0,9.3,2.2,16.9,6.5,22.5c4.3,5.7,10.1,8.5,17.4,8.5c7.3,0,13.1-2.9,17.5-8.6c4.3-5.7,6.5-13.8,6.5-24.1c0-9.2-2.2-16.7-6.6-22.5
				c-4.4-5.7-10.2-8.6-17.5-8.6c-7.1,0-12.9,2.8-17.2,8.5C2566.9,460.4,2564.8,468.5,2564.8,479.1z"/>
			<path class="st0" d="M2685.9,448.9c-2.2-0.4-4.6-0.6-7.1-0.6c-9.5,0-15.9,4-19.2,12.1v59.9h-14.4V436h14l0.2,9.7
				c4.7-7.5,11.4-11.3,20.1-11.3c2.8,0,4.9,0.4,6.4,1.1V448.9z"/>
			<path class="st0" d="M2712.7,436l0.4,9.3c6.2-7.3,14.5-10.9,25-10.9c11.8,0,19.8,4.5,24.1,13.6c2.8-4.1,6.5-7.3,11-9.8
				c4.5-2.5,9.8-3.7,15.9-3.7c18.5,0,27.9,9.8,28.2,29.4v56.5h-14.4v-55.6c0-6-1.4-10.5-4.1-13.5c-2.8-3-7.4-4.5-13.9-4.5
				c-5.3,0-9.8,1.6-13.3,4.8c-3.5,3.2-5.6,7.5-6.2,12.9v55.9h-14.5V465c0-12.3-6-18.4-18-18.4c-9.5,0-15.9,4-19.4,12.1v61.6H2699
				V436H2712.7z"/>
		</g>
	</g>
	<g>
		<path class="st0" d="M354.6,281.4v164.9c-65.7,12-119.9,16.7-156.7,18.5V281.4c0-14.7,11.8-26.4,26.4-26.4h103.9
			C342.8,254.9,354.6,266.7,354.6,281.4z"/>
		<path class="st0" d="M336.5,525.6c-1.5,3.3-0.7,7,2.2,9.9c5.3,5.3,10.6,10.6,15.9,15.9v61.7H197.8v-90.8
			c55.8-5.7,108.5-14.5,156.7-25v29.6c-1.1-1.1-2-2-3-3c-0.5-0.5-1.1-1.1-1.6-1.5C345.5,518.7,338.9,520.3,336.5,525.6z"/>
		<path class="st0" d="M548.5,215.4c-2.9,2.9-3.7,6.6-2.2,9.9c2.4,5.3,9,6.9,13.5,3.2c0.5-0.4,1.1-0.9,1.5-1.5
			c2.2-2.2,4.5-4.4,6.6-6.6v168.6c-55.6,20.1-108.5,34.9-156.9,45.9V175.5c0-14.7,11.8-26.4,26.4-26.4h104
			c14.5,0,26.4,11.8,26.4,26.4v20.6C561.3,202.6,554.9,208.9,548.5,215.4z"/>
		<path class="st0" d="M567.8,434.8v178.3H410.9v-51.5c8.6-8.6,17.2-17.2,25.8-25.8c0.5-0.5,1.1-1.2,1.6-1.7
			c3.6-4.6,1.3-11.8-4.2-13.3c-3.7-0.9-6.7,0.3-9.4,2.8c-4.6,4.6-9.3,9.3-13.7,13.9V484C476.3,467.2,530.4,449,567.8,434.8z"/>
		<path class="st0" d="M780.8,26.4v259.4c-80.5,53.8-148.6,78.6-156.9,81.7V217c3.6,3.4,7,7,10.4,10.4c2.6,2.6,5.7,3.7,9.4,2.8
			c5.5-1.6,7.8-8.7,4.2-13.2c-0.5-0.7-1.1-1.3-1.6-1.9c-7.5-7.4-14.9-14.9-22.5-22.3V26.4c0-14.5,11.8-26.4,26.4-26.4h104
			C768.9,0,780.8,11.9,780.8,26.4z"/>
		<path class="st0" d="M626,411.3c53.8-21.3,108.1-52.2,154.8-82.9v284.7H623.9V406.9L626,411.3z"/>
		<path class="st0" d="M185.1,347.8c0,0-129.2,65.6-71.1,110.2c13,10,29.4,14.3,45.7,14.3c58.6,0,245.8-7.8,465.9-98.4
			c0,0,127.5-43.3,247.9-151.3c4.7-4.2,2.2-12.1-4-12.9h0c-6.4-0.9-8.7-8.8-3.8-13l58.8-50.2c4.8-4.1,12.3-0.7,12.3,5.6v73.5
			c0,4.9-4.6,8.4-9.4,7.2l-18.9-5.1c-2.4-0.7-5-0.1-6.9,1.6C878.7,250,753.2,353.9,623.6,405.2c-0.4,0.1-0.7,0.2-1.1,0.4
			c-11.5,5.3-217.8,98.4-474.1,114.1c-30,1.8-60.3-0.5-89-9.3c-51.2-15.7-104-53,2.5-138.1c0,0,84.5-68,125.5-78.4L185.1,347.8
			C185.1,347.8,185.1,347.8,185.1,347.8z"/>
	</g>
</g>
</svg>
