<?xml version="1.0" encoding="utf-8"?>
<!-- Generator: Adobe Illustrator 24.3.0, SVG Export Plug-In . SVG Version: 6.00 Build 0)  -->
<svg version="1.1" id="Layer_1" xmlns="http://www.w3.org/2000/svg" xmlns:xlink="http://www.w3.org/1999/xlink" x="0px" y="0px"
	 width="1599.6px" height="794.1px" viewBox="0 0 1599.6 794.1" style="enable-background:new 0 0 1599.6 794.1;"
	 xml:space="preserve">
<style type="text/css">
	.st0{fill:none;}
</style>
<g>
	<path class="st0" d="M1429.3,278.4c-18.2-11.6-39.2-17.5-63-17.5c-24.4,0-45.8,5.8-64.2,17.5c-18.4,11.7-32.9,27.4-43.5,47.1
		c-10.6,19.8-15.8,42.7-15.8,68.7c0,25.5,5.3,48.4,15.8,68.7c10.6,20.3,25.1,36.2,43.5,47.5c18.4,11.4,39.8,17.1,64.2,17.1
		c23.8,0,44.8-5.7,63-17.1c18.1-11.4,32.5-27.2,43.1-47.5c10.6-20.3,15.8-43.2,15.8-68.7c0-26-5.3-48.9-15.8-68.7
		C1461.8,305.8,1447.4,290,1429.3,278.4z"/>
	<polygon points="406.4,173.1 273.9,173.1 106.5,348.4 106.5,0 0,0 0,615.3 106.5,615.3 106.5,480.4 163.8,418.9 287.7,615.3 
		409.7,615.3 243,351.1 	"/>
	<path d="M657.5,478.1l-114.5-305H428.3l175,442.3l-10,23.4c-8.7,18.4-18.6,33.2-29.7,44.3c-11.1,11.1-28.9,16.7-53.2,16.7
		c-8.7,0-18-0.8-28-2.4c-10-1.6-18.6-3.3-25.6-4.9v88.6c9.2,4.9,19.5,8.3,30.9,10.2c11.4,1.9,23,2.8,34.9,2.8
		c27.6,0,52.1-5.3,73.6-15.9c21.4-10.6,40.2-25.9,56.5-45.9c16.3-20.1,30.1-44.2,41.5-72.3l192.6-486.9H771.3L657.5,478.1z"/>
	<rect x="945.3" width="106.5" height="615.3"/>
	<path d="M1568.3,275.1c-20.9-34.4-48.9-61.6-84.1-81.7c-35.2-20-74.5-30.1-117.9-30.1c-43.9,0-83.5,10-118.7,30.1
		c-35.2,20.1-63.3,47.4-84.1,82.1c-20.9,34.7-31.3,74.2-31.3,118.7c0,44.4,10.4,84,31.3,118.7c20.9,34.7,49,62.1,84.5,82.1
		c35.5,20.1,74.9,30.1,118.3,30.1c42.8,0,81.8-10,117-30.1c35.2-20,63.4-47.4,84.5-82.1c21.1-34.7,31.7-74.2,31.7-118.7
		C1599.6,349.2,1589.1,309.5,1568.3,275.1z M1472.4,462.9c-10.6,20.3-24.9,36.2-43.1,47.5c-18.2,11.4-39.2,17.1-63,17.1
		c-24.4,0-45.8-5.7-64.2-17.1c-18.4-11.4-32.9-27.2-43.5-47.5c-10.6-20.3-15.8-43.2-15.8-68.7c0-26,5.3-48.9,15.8-68.7
		c10.6-19.8,25.1-35.5,43.5-47.1c18.4-11.6,39.8-17.5,64.2-17.5c23.8,0,44.8,5.8,63,17.5c18.1,11.7,32.5,27.4,43.1,47.1
		c10.6,19.8,15.8,42.7,15.8,68.7C1488.2,419.7,1482.9,442.6,1472.4,462.9z"/>
</g>
</svg>
