<?xml version="1.0" encoding="utf-8"?>
<!-- Generator: Adobe Illustrator 24.3.0, SVG Export Plug-In . SVG Version: 6.00 Build 0)  -->
<svg version="1.1" id="Layer_1" xmlns="http://www.w3.org/2000/svg" xmlns:xlink="http://www.w3.org/1999/xlink" x="0px" y="0px"
	 width="2173.1px" height="591.6px" viewBox="0 0 2173.1 591.6" style="enable-background:new 0 0 2173.1 591.6;"
	 xml:space="preserve">
<style type="text/css">
	.st0{fill:#E2525A;}
	.st1{fill:#111010;}
	.st2{fill:#0A090A;}
	.st3{fill:#0C0C0C;}
</style>
<g>
	<path class="st0" d="M774.4,591.6c-4.8-38.2-36.3-71.5-15.8-119.2c-35.2,16.7-62.2,41.3-97.3,21.9c-13.4-23.2-26.7-46.4-40-69.6
		c3.4-31.9,28.1-37.6,53.5-42.4c19.1-3.6,38.2-7.3,58.9-11.3c-11.9-33.6-38.8-52.8-56.1-78.5c-9.8-14.6-26.1-29.9-10.7-48.5
		c12-14.4,28.4-23,49-13.5c31.8,14.7,32.5-4.6,31.2-27.6c-1-17.4-9.4-37.4,9.1-50.7c15-10.8,33.5-18.4,51.6-14.3
		c18.8,4.2,22.2,23.9,24.9,39.7c3.2,18.6,2.6,37.8,3.7,57.8c13.4-4.9,4.4-20.9,17-23.2c19.5-8.7,37.1-22.8,60.6-19.4
		c40.4,70.9-26.9,112.5-52.6,175.6c47.4,0,89.1,0,130.9,0c18.2,1.2,36.5,2.4,54.7,3.6c19.2,11.7,27.9,26.9,16.1,48.6
		c-18.9,3.9-37.9,7.9-56.9,11.8c-37.4,0.7-81.5-19-101.5,33.9c-1.6,4.4-11.9,9.6-16.3,8.3c-68.2-20.2-52.3,28-53,62.6
		c-0.4,18.1-0.5,36.1-0.7,54.2C814.7,591.6,794.6,591.6,774.4,591.6z"/>
	<path class="st1" d="M2173.1,482.3c-9.8,5.7-20.1,17.1-29.2,16.1c-65-7.1-129,4.5-193.4,6.2c-27.8,0.7-36.2-30-35.2-56
		c1.2-32.8,4.6-65.4,7.1-98.1c20.6,4.9,32.1,22.7,48.7,33.4c-9.9,41.6-2,61.1,49.2,51.8c51.1-9.3,102.1,8.2,152.8,16.9
		C2173.1,462.4,2173.1,472.4,2173.1,482.3z"/>
	<path class="st2" d="M621.4,424.7c13.3,23.2,26.7,46.4,40,69.6c-28.6,38.7-53,38.9-78-2.6c-22.4-37.2-48-71.4-80.1-100.8
		c-10.8-9.9-22.6-23.6-38.8-18.7c-19.7,6-10.3,25.3-11.7,38.7c-3.1,29.5-3.2,59.3-6.4,88.8c-2.4,22-14,38.8-39.3,34.5
		c-22.9-3.9-27.2-22.1-24.5-42c16.5-123.5,17-246.8-1.8-370.1c-3.2-20.8,9.2-34.2,23.2-46.5c50.1-43.8,142.6-39,187.3,9.5
		c61.3,66.6,62.2,143.7,3.7,197.5c-20.1,18.5-59.7,28.1-57.7,54.1c1.5,19.8,34.6,37.1,53.4,55.8C601.1,403,611.1,414,621.4,424.7z
		 M576.3,188.2c-3-28.6-18-57.6-47.6-76.8c-18.2-11.8-39.2-18.9-61.7-8.1c-24.1,11.6-25.3,32.8-23.7,54.9
		c2.6,37.9,5.6,75.8,8.3,113.7c0.9,12.5,3,22.3,19.6,22.3C510.4,294.4,576.2,232.5,576.3,188.2z"/>
	<path class="st3" d="M1176.1,272.4c1.5-85.1,25.3-163.1,83.8-227.4c52.6-57.8,126.2-59.6,176.9-7.7c13.1,13.5,22.7,28.3,23.4,47.9
		c0.5,13.6,1.3,27.7-13.4,34.4c-14.9,6.7-26.1-3.7-34.5-13.4c-17.1-19.8-28.7-47-62.5-40.8c-34.3,6.3-54.3,31.4-71.8,57.8
		c-63,95.2-57.6,241.2,11.2,327c31.2,39,56.6,39,89.1,0.9c25-29.3,30.9-65.3,37.4-101c3-16.2,9-31,25.9-32
		c19.9-1.2,27.4,15.2,32,32.2c18.9,71-52.7,183.6-125.7,197.1c-35.2,6.5-61.9-8.8-84.1-33.4C1201.6,445.5,1177.2,363.3,1176.1,272.4
		z"/>
	<path class="st3" d="M296.9,294.6c-1.1,100.8-63.2,162.9-161.2,161.1C50.4,454.1-0.6,397.5,0.5,305.6
		c1.3-108,66.2-174.2,169.1-172.7C252.1,134.1,298,192.3,296.9,294.6z M239.2,289.9c-0.2-62.1-30.8-104.7-75.6-105.1
		c-59.4-0.5-105.7,55.6-105,127.1c0.5,56.6,32.6,91.3,83.2,90.2C194.8,400.9,239.4,349.4,239.2,289.9z"/>
	<path class="st2" d="M1805.3,436.2c-63.9,6.5-127.8,15.8-191.9,18.2c-31.3,1.2-40-26.3-36.4-53.8c14.3-108.4,12.2-217.3,11.2-326.2
		c-0.2-18.9,1.8-38.8,26.6-39.9c27-1.2,33.3,20.6,33.6,40.5c1,72.6-0.6,145.2-0.3,217.8c0.5,106.8-22.5,92.6,94.1,86.9
		c16.3-0.8,33-8.1,48.8,1.9C1788.6,401.6,1777.6,423.8,1805.3,436.2z"/>
	<path class="st0" d="M1805.3,436.2c-27.7-12.4-16.7-34.6-14.2-54.6c15.6-6.4,18-23,27.4-34.1c29.7-34.7,28.2-59.7-19.3-76.2
		c-18.9-6.6-39-20.4-25.6-44.5c10.6-19.2,29.4-8.5,44.7-2.6c73.6,28.3,75.2,27.7,113.2-46.3c16.7-9.2,21.8-34.7,46.5-32.8
		c22.8,21.4,16.8,44.6,4.5,68.2c-64.1,67-64.1,67-10.3,99.6c9.8,8.5,19.8,16.6,29.2,25.5c12,11.3,14.5,25.8,7.9,39.8
		c-8.9,19-24.6,8.3-38.1,5.8c-16.6-10.7-28.1-28.5-48.7-33.4c-19.3-28.1-30.9-14.7-47.1,5.2C1852.8,383.1,1851,428.7,1805.3,436.2z"
		/>
	<path class="st3" d="M1047.1,372.2c-18.2-1.2-36.5-2.4-54.7-3.5c-15.6-71.5-25.8-144.4-55.6-217.4c-16.5,14.1-20.4,27.5-22.7,41.8
		c-23.4-3.5-41.1,10.7-60.6,19.4c12.5-51.3,25.6-102.4,37-154c3.6-16.3,2.6-32.3,25.8-35.6c22.9-3.3,34.6,8.3,43.5,25.4
		c25.6,48.7,38.8,101.7,51.4,154.6C1024.6,258.9,1035.3,315.7,1047.1,372.2z"/>
	<path class="st3" d="M139.9,497c34.9,1.7,69.8,3,104.6,5.2c13.7,0.9,26.7,5.1,29.1,21.4c2.7,18.2-8.5,29-24,32.2
		c-73.8,15.6-148.2,17-222.1,0.7C10.6,552.8-2.9,541,0.5,521c3.2-18.9,19.4-20.3,34.7-20.4c34.9-0.4,69.7-0.1,104.6-0.1
		C139.9,499.3,139.9,498.1,139.9,497z"/>
	<path class="st1" d="M1977.9,145c-24.8-1.8-29.8,23.6-46.5,32.8c-1.3-36-3.3-72-3.8-108c-0.3-24.7,10.7-40.6,38.3-41.2
		c51.6-1.1,103.1-2.9,154.7-3.7c14.7-0.2,31.7-1.3,34,19.8c2,18.3-10.8,26-25.3,31.9c-31.4,12.8-65.7,15.1-98.1,14.4
		C1988.9,90.1,1976.1,108.2,1977.9,145z"/>
	<path class="st1" d="M1686.1,570.5c-25.2-1.7-60.2-2.9-94.8-6.7c-17.1-1.8-33.5-10.2-32.9-30.6c0.7-23.7,20.8-22.4,37-22.7
		c63.2-0.9,126.5-1.5,189.7-0.9c20.7,0.2,43.9,6.5,45.2,30c1.8,30-26.7,23.5-44.6,25.4C1755.9,568.3,1725.8,568.5,1686.1,570.5z"/>
	<path class="st1" d="M1972.1,312.8c-53.8-32.6-53.8-32.6,10.3-99.6c35.5,10.4,69-5.8,103.5-7c18.5-0.6,45-6.6,48.6,20.8
		c3.6,27.5-18,34.3-42.2,36.9c-29.7,3.2-59,9.9-88.7,13.6C1981.7,280.3,1970.7,290.6,1972.1,312.8z"/>
	<path class="st1" d="M1006.3,432.6c19-3.9,37.9-7.8,56.9-11.8c8.3,25,15.9,50.2,25.2,74.9c7,18.5,11.9,36.8-11.9,45
		c-22,7.6-41.3-1.1-47.7-23.6C1020.9,489,1004.7,463,1006.3,432.6z"/>
	<path class="st1" d="M1366.8,261.9c-3.9,19.6-9.7,40.9-36.5,42.8c-29,2-41.1-16.2-43.4-42.1c-2.2-24.7,9-42.9,34.4-44.5
		C1348.4,216.4,1362.7,234,1366.8,261.9z"/>
	<path class="st1" d="M532.9,184.5c-1.5,18.8-10.7,30-30.5,31.7c-19.9,1.7-34.2-8.5-34.7-26.3c-0.4-18.1,14.9-28,33.5-28.9
		C517.9,160.1,529.8,166.9,532.9,184.5z"/>
</g>
</svg>
