<?xml version="1.0" encoding="utf-8"?>
<!-- Generator: Adobe Illustrator 24.3.0, SVG Export Plug-In . SVG Version: 6.00 Build 0)  -->
<svg version="1.1" id="Layer_1" xmlns="http://www.w3.org/2000/svg" xmlns:xlink="http://www.w3.org/1999/xlink" x="0px" y="0px"
	 viewBox="0 0 10945.6 1956.8" style="enable-background:new 0 0 10945.6 1956.8;" xml:space="preserve">
<style type="text/css">
	.st0{fill:#FFFFFF;}
</style>
<g>
	<path class="st0" d="M1194.5,936.5c-32.1-26.3-64.2-52-94.4-79.6c-31.5-28.2-61.6-56.5-86-90.5c-10.9-16-18.6-32.1-23.8-50.1
		c-37.2-14.1-77.7-21.8-120-21.8c-186.8,0-337.6,150.8-337.6,337.6c0,186.8,150.8,337.6,337.6,337.6
		c186.8,0,337.6-150.8,337.6-337.6C1208,998.8,1203.5,966.7,1194.5,936.5z M944.2,936.5c0-22.5,18.6-41.1,41.1-41.1
		c21.8,0.6,39.8,18.6,40.4,41.1v73.2c-0.6,22.5-18.6,40.4-41.1,40.4c-22.5-0.6-40.4-18-40.4-41.1V936.5z M715,935.9
		c0.6-21.8,19.3-40.4,41.1-40.4c21.8,0.6,39.8,18.6,40.4,40.4v73.8c0,22.5-18.6,39.8-40.4,40.4c-22.5,0-40.4-18-41.1-40.4V935.9z
		 M1118.1,1140c-3.9,8.3-8.3,15.4-13.5,23.1c-45.6,67.4-108.5,108.5-188.7,122.6c-15.4,2.6-30.2,3.9-45.6,3.2
		c-72.5-0.6-136.1-25-190-73.8c-23.1-20.5-41.7-44.9-56.5-71.9c-7.7-14.1-1.3-28.2,13.5-30.8c7.7-1.9,16,1.9,20.5,9.6
		c7.7,14.8,16.7,28.2,27,40.4c39.2,45.6,87.9,74.5,147,84.1c61,9,118.1-2.6,170.1-35.9c32.7-21.2,58.4-49.4,77.7-82.8
		c1.3-1.9,2.6-3.9,3.9-5.8c5.8-9.6,16.7-12.8,26.3-7.7C1118.8,1118.8,1122.6,1130.4,1118.1,1140z"/>
	<g>
		<g>
			<path class="st0" d="M2720.9,1379.9h-208.7V338.5h530.6v175.2h-321.9v276.4h300.6v175.2h-300.6V1379.9z"/>
			<path class="st0" d="M3595.6,567.9c10.9,0,22.4,0.7,34.5,2.1c12.1,1.4,23.9,3.6,35.3,6.4l-17.1,203c-8.1-3.3-18.2-5.6-30.3-6.8
				c-12.1-1.2-23.9-1.8-35.3-1.8c-25.2,0-48.6,4.2-70.2,12.5c-21.6,8.3-40.6,20.9-57,37.8c-16.4,16.9-29.1,38-38.1,63.4
				c-9,25.4-13.5,55.2-13.5,89.4v406h-203v-797h155.3l29.2,132.5h10c13.3-26.1,29.7-50.4,49.1-73c19.5-22.5,42-40.6,67.7-54.1
				C3537.9,574.7,3565.7,567.9,3595.6,567.9z"/>
			<path class="st0" d="M3887.7,269.5c33.7,0,60.5,8.4,80.5,25.3c19.9,16.9,29.9,44.5,29.9,83c0,37.5-10.1,64.7-30.3,81.6
				c-20.2,16.9-46.9,25.3-80.1,25.3c-33.2,0-60.1-8.4-80.5-25.3c-20.4-16.8-30.6-44-30.6-81.6c0-38.9,10-66.7,29.9-83.3
				C3826.4,277.8,3853.5,269.5,3887.7,269.5z M3988.8,582.9v797h-203v-797H3988.8z"/>
			<path class="st0" d="M4479.6,568.6c67,0,124,14.4,171.3,43.1c47.2,28.7,83.4,70,108.6,123.9c25.2,53.9,37.8,118.6,37.8,194.1
				v106.1h-446.6c1.4,65.5,17,115.3,46.7,149.2c29.7,34,72.5,50.9,128.6,50.9c42.3,0,81.4-4.9,117.5-14.6
				c36.1-9.7,73.8-25,113.3-45.9v163.1c-35.6,19-73.1,33-112.5,42c-39.4,9-85,13.5-136.8,13.5c-76.5,0-141.5-15.7-195.2-47
				c-53.7-31.3-94.6-77.3-122.9-137.8c-28.3-60.5-42.4-134.7-42.4-222.6c0-91.6,13.3-168.5,39.9-230.4
				c26.6-62,64.7-108.7,114.3-140.3C4350.7,584.4,4410.2,568.6,4479.6,568.6z M4482.4,720.3c-36.6,0-66.5,13.8-89.7,41.3
				c-23.3,27.5-36.3,71.9-39.2,133.2h254.3c-0.5-35.1-5.3-65.8-14.6-91.9c-9.3-26.1-23.1-46.4-41.7-60.9
				C4533,727.6,4509.9,720.3,4482.4,720.3z"/>
			<path class="st0" d="M5355.6,567.9c76,0,136,23.8,180.2,71.2c44.2,47.5,66.2,119.9,66.2,217.2v523.5h-203.7V910.5
				c0-56.5-8-99.1-23.9-127.9c-15.9-28.7-42.9-43.1-80.8-43.1c-53.2,0-89.9,21-110,63c-20.2,42-30.3,107.9-30.3,197.7v379.6h-203
				v-797h158.1l24.2,101.9h12.1c14.7-26.6,32.6-48.4,53.8-65.5c21.1-17.1,45.1-29.9,71.9-38.5
				C5297.4,572.2,5325.7,567.9,5355.6,567.9z"/>
			<path class="st0" d="M6024.5,1394.1c-82.6,0-148-35.7-196.2-107.2c-48.2-71.5-72.3-173.2-72.3-305.2c0-133.4,24.2-235.8,72.7-307
				c48.4-71.2,113.7-106.8,195.9-106.8c31.3,0,59.5,4.8,84.4,14.2c24.9,9.5,47.1,22.9,66.6,40.2c19.5,17.3,36.3,38.1,50.6,62.3h7.1
				c-2.4-23.3-4.9-47.8-7.5-73.7c-2.6-25.9-3.9-50.5-3.9-73.7V271.6h203.7v1108.3h-158.8l-34.2-95.4h-10.7
				c-14.2,22.8-30.6,42.4-49.1,58.8c-18.5,16.4-39.8,29-63.7,37.8C6084.9,1389.7,6056.8,1394.1,6024.5,1394.1z M6090.7,1228.2
				c48.9,0,84-18.2,105.4-54.5c21.4-36.3,32.5-92,33.5-167v-34.9c0-77.9-10.5-136.2-31.3-174.9c-20.9-38.7-57.2-58-109-58
				c-41.3,0-72.8,20.7-94.4,62c-21.6,41.3-32.4,101.9-32.4,181.6c0,81.7,11,143.1,33.1,184.1
				C6017.7,1207.6,6049.4,1228.2,6090.7,1228.2z"/>
			<path class="st0" d="M7164.8,1379.9h-208.7V338.5h530.6v175.2h-321.9v276.4h300.6v175.2h-300.6V1379.9z"/>
			<path class="st0" d="M7746.7,269.5c33.7,0,60.5,8.4,80.5,25.3c19.9,16.9,29.9,44.5,29.9,83c0,37.5-10.1,64.7-30.3,81.6
				c-20.2,16.9-46.9,25.3-80.1,25.3c-33.2,0-60.1-8.4-80.5-25.3c-20.4-16.8-30.6-44-30.6-81.6c0-38.9,10-66.7,29.9-83.3
				C7685.5,277.8,7712.6,269.5,7746.7,269.5z M7847.9,582.9v797h-203v-797H7847.9z"/>
			<path class="st0" d="M8450.5,567.9c76,0,136,23.8,180.2,71.2c44.2,47.5,66.2,119.9,66.2,217.2v523.5h-203.7V910.5
				c0-56.5-8-99.1-23.9-127.9c-15.9-28.7-42.9-43.1-80.8-43.1c-53.2,0-89.9,21-110,63c-20.2,42-30.3,107.9-30.3,197.7v379.6h-203
				v-797h158.1l24.2,101.9h12.1c14.7-26.6,32.6-48.4,53.8-65.5c21.1-17.1,45.1-29.9,71.9-38.5
				C8392.2,572.2,8420.6,567.9,8450.5,567.9z"/>
			<path class="st0" d="M9119.3,1394.1c-82.6,0-148-35.7-196.2-107.2c-48.2-71.5-72.3-173.2-72.3-305.2c0-133.4,24.2-235.8,72.7-307
				c48.4-71.2,113.7-106.8,195.9-106.8c31.3,0,59.5,4.8,84.4,14.2c24.9,9.5,47.1,22.9,66.6,40.2c19.5,17.3,36.3,38.1,50.6,62.3h7.1
				c-2.4-23.3-4.9-47.8-7.5-73.7c-2.6-25.9-3.9-50.5-3.9-73.7V271.6h203.7v1108.3h-158.8l-34.2-95.4h-10.7
				c-14.2,22.8-30.6,42.4-49.1,58.8c-18.5,16.4-39.8,29-63.7,37.8C9179.7,1389.7,9151.6,1394.1,9119.3,1394.1z M9185.5,1228.2
				c48.9,0,84-18.2,105.4-54.5c21.4-36.3,32.5-92,33.5-167v-34.9c0-77.9-10.5-136.2-31.3-174.9c-20.9-38.7-57.2-58-109-58
				c-41.3,0-72.8,20.7-94.4,62c-21.6,41.3-32.4,101.9-32.4,181.6c0,81.7,11,143.1,33.1,184.1
				C9112.5,1207.6,9144.2,1228.2,9185.5,1228.2z"/>
			<path class="st0" d="M10009.6,568.6c67,0,124,14.4,171.3,43.1c47.2,28.7,83.4,70,108.6,123.9c25.2,53.9,37.8,118.6,37.8,194.1
				v106.1h-446.6c1.4,65.5,17,115.3,46.7,149.2c29.7,34,72.5,50.9,128.6,50.9c42.3,0,81.4-4.9,117.5-14.6
				c36.1-9.7,73.8-25,113.3-45.9v163.1c-35.6,19-73.1,33-112.5,42c-39.4,9-85,13.5-136.8,13.5c-76.5,0-141.5-15.7-195.2-47
				c-53.7-31.3-94.6-77.3-122.9-137.8c-28.3-60.5-42.4-134.7-42.4-222.6c0-91.6,13.3-168.5,39.9-230.4
				c26.6-62,64.7-108.7,114.3-140.3C9880.8,584.4,9940.3,568.6,10009.6,568.6z M10012.5,720.3c-36.6,0-66.5,13.8-89.7,41.3
				c-23.3,27.5-36.3,71.9-39.2,133.2h254.3c-0.5-35.1-5.3-65.8-14.6-91.9c-9.3-26.1-23.1-46.4-41.7-60.9
				C10063.1,727.6,10040,720.3,10012.5,720.3z"/>
			<path class="st0" d="M10875.8,567.9c10.9,0,22.4,0.7,34.5,2.1c12.1,1.4,23.9,3.6,35.3,6.4l-17.1,203c-8.1-3.3-18.2-5.6-30.3-6.8
				c-12.1-1.2-23.9-1.8-35.3-1.8c-25.2,0-48.6,4.2-70.2,12.5c-21.6,8.3-40.6,20.9-57,37.8c-16.4,16.9-29.1,38-38.1,63.4
				c-9,25.4-13.5,55.2-13.5,89.4v406h-203v-797h155.3l29.2,132.5h10c13.3-26.1,29.7-50.4,49.1-73c19.5-22.5,42-40.6,67.7-54.1
				C10818.1,574.7,10845.9,567.9,10875.8,567.9z"/>
		</g>
		<g>
			<path class="st0" d="M1934,1431.4C1705.5-75.1,1138,0.6,1138,0.6C458.9,0.6,46.2,917.3,46.2,917.3
				C-233.1,1507.8,846,1863.4,846,1863.4C2087.4,2222.3,1934,1431.4,1934,1431.4z M1399.9,782.5c-24.4,30.2-53.3,56.5-82.8,82.2
				c-28.2,25-57.8,49.4-87.3,73.8c7.7,30.2,12.2,61.6,12.2,95c-0.6,204.1-168.2,371-372.9,370.4c-204.1-0.6-371-168.2-370.4-373.6
				c0.6-202.8,167.5-370.4,371.7-369.7c40.4,0,79,6.4,114.9,18c-0.6-5.1-0.6-10.3,0-16c3.9-53.9,48.8-101.4,102.1-108.5
				c48.1-6.4,86.7,10.9,118.8,45.6c7.7,9,6.4,9,14.1,0c23.1-25,50.7-42.4,85.4-46.2c70.6-7.1,125.2,41.1,134.2,102.1
				c1.3,7.1,1.3,13.5,1.3,21.2C1442.3,717,1425,751.7,1399.9,782.5z"/>
		</g>
	</g>
</g>
</svg>
