<svg width="100" height="100" viewBox="0 0 100 100" fill="none" xmlns="http://www.w3.org/2000/svg">
<rect x="6.2666" y="16.2795" width="87.4667" height="8" rx="2" fill="#00B0FB" fill-opacity="0.5"/>
<path d="M53.4192 78.5601C52.1616 81.6737 47.5803 80.2252 46.6928 77.8444L46.6908 77.8401C46.5425 77.3382 46.5204 76.8073 46.6267 76.2948C46.733 75.7823 46.9645 75.3041 47.3001 74.9026L56.2151 62.4866L53.9527 76.0001C53.8534 76.8679 53.6747 77.7248 53.4192 78.5601Z" fill="#00B0FB"/>
<path d="M76.0649 74.8811C76.2981 73.4568 76.4154 72.016 76.4158 70.5728C76.4162 66.9213 75.6583 63.3093 74.1924 59.9649C72.7265 56.6205 70.5835 53.6164 67.8981 51.1422C65.2126 48.6679 62.0432 46.777 58.5902 45.5893C55.1373 44.4015 51.4756 43.9428 47.8363 44.2416C44.197 44.5403 40.6591 45.5902 37.446 47.3252C34.233 49.0601 31.4147 51.4424 29.1687 54.3215C26.9227 57.2006 25.2979 60.5141 24.3971 64.0528C23.4962 67.5914 23.3387 71.2783 23.9346 74.8809L19.8944 74.8809C19.189 70.5206 19.4391 66.0594 20.6274 61.8053C21.8158 57.5512 23.9139 53.6059 26.7769 50.2425C29.6399 46.8791 33.1995 44.1777 37.2092 42.3251C41.2189 40.4726 45.5829 39.5132 49.9998 39.5132C54.4168 39.5132 58.7807 40.4726 62.7904 42.3252C66.8001 44.1777 70.3597 46.8792 73.2227 50.2426C76.0857 53.606 78.1838 57.551 79.3722 61.8051C80.5606 66.0592 80.8109 70.5206 80.1054 74.8809L76.0649 74.8811Z" fill="#00B0FB" fill-opacity="0.5"/>
<path d="M73.1177 74.8854C74.1751 69.18 73.0883 63.2851 70.066 58.3318L67.8035 60.5942C67.6681 60.7292 67.5073 60.8361 67.3306 60.9091C67.1538 60.982 66.9645 61.0195 66.7733 61.0192C66.5821 61.019 66.3931 60.9812 66.2165 60.9078C66.04 60.8344 65.8797 60.7268 65.7446 60.5914C65.6096 60.456 65.5025 60.2955 65.4295 60.1188C65.3566 59.942 65.3189 59.7524 65.3191 59.5612C65.3194 59.37 65.3573 59.1807 65.4307 59.0042C65.5041 58.8276 65.6115 58.6673 65.7468 58.5323L68.3712 55.9146C66.3244 53.3461 63.761 51.2358 60.8473 49.7203C57.9335 48.2048 54.7343 47.3181 51.4561 47.1169V52.0439C51.4561 52.43 51.3026 52.8003 51.0295 53.0733C50.7565 53.3464 50.386 53.4996 49.9999 53.4996C49.6137 53.4996 49.2432 53.3462 48.9702 53.0732C48.6971 52.8001 48.5436 52.4299 48.5436 52.0438V47.1169C45.2654 47.3181 42.0662 48.205 39.1525 49.7205C36.2387 51.236 33.6753 53.3461 31.6285 55.9146L34.5085 58.7946C34.6435 58.9296 34.7509 59.0901 34.8239 59.2666C34.897 59.443 34.9345 59.632 34.9345 59.8229C34.9345 60.0139 34.8969 60.203 34.8238 60.3794C34.7507 60.5559 34.6437 60.7162 34.5087 60.8512C34.3737 60.9863 34.2133 61.0935 34.0368 61.1665C33.8604 61.2396 33.6716 61.2771 33.4806 61.2771C33.2896 61.2771 33.1002 61.2395 32.9238 61.1664C32.7474 61.0933 32.587 60.9864 32.4519 60.8513L29.9368 58.336C26.9162 63.2899 25.8316 69.1848 26.8908 74.8896" stroke="#00B0FB" stroke-width="2"/>
<mask id="path-5-outside-1_261_11279" maskUnits="userSpaceOnUse" x="1" y="11" width="98" height="79" fill="black">
<rect fill="white" x="1" y="11" width="98" height="79"/>
<path d="M46.6933 77.8443C47.5808 80.2251 52.1621 81.6736 53.4197 78.56C53.6752 77.7247 53.8537 76.8678 53.9531 76L56.2155 62.4864L47.3003 74.9024C46.9646 75.304 46.7333 75.7823 46.6271 76.2948C46.5208 76.8073 46.5429 77.3381 46.6912 77.84L46.6933 77.8443ZM24.1248 17.4709C24.7189 17.4703 25.2998 17.6459 25.7941 17.9756C26.2883 18.3052 26.6737 18.7741 26.9014 19.3228C27.1291 19.8715 27.1889 20.4755 27.0732 21.0582C26.9575 21.6409 26.6716 22.1763 26.2516 22.5964C25.8316 23.0166 25.2963 23.3027 24.7137 23.4186C24.131 23.5345 23.527 23.4749 22.9782 23.2474C22.4294 23.0199 21.9604 22.6347 21.6306 22.1406C21.3007 21.6464 21.1249 21.0656 21.1253 20.4715C21.1265 19.6763 21.4428 18.914 22.0051 18.3518C22.5674 17.7895 23.3296 17.4721 24.1248 17.4709ZM32.4224 21.9296C32.0362 21.9296 31.6659 21.7762 31.3929 21.5031C31.1198 21.2301 30.9664 20.8598 30.9664 20.4736C30.9664 20.0874 31.1198 19.7171 31.3929 19.4441C31.6659 19.171 32.0362 19.0176 32.4224 19.0176H51.5691C51.7603 19.0176 51.9496 19.0553 52.1263 19.1284C52.3029 19.2016 52.4634 19.3088 52.5986 19.4441C52.7338 19.5793 52.8411 19.7398 52.9142 19.9164C52.9874 20.0931 53.0251 20.2824 53.0251 20.4736C53.0251 20.6648 52.9874 20.8541 52.9142 21.0308C52.8411 21.2074 52.7338 21.3679 52.5986 21.5031C52.4634 21.6383 52.3029 21.7456 52.1263 21.8188C51.9496 21.8919 51.7603 21.9296 51.5691 21.9296H32.4224ZM14.9771 17.4709C15.5712 17.4703 16.1522 17.6459 16.6465 17.9756C17.1407 18.3053 17.5261 18.7743 17.7538 19.323C17.9814 19.8718 18.0411 20.4758 17.9254 21.0586C17.8096 21.6414 17.5236 22.1767 17.1035 22.5968C16.6833 23.0169 16.148 23.303 15.5653 23.4187C14.9825 23.5345 14.3785 23.4747 13.8297 23.2471C13.2809 23.0194 12.812 22.6341 12.4823 22.1398C12.1526 21.6455 11.977 21.0645 11.9776 20.4704C11.9775 20.0765 12.0549 19.6864 12.2056 19.3224C12.3563 18.9584 12.5773 18.6277 12.8558 18.3491C13.1344 18.0706 13.4651 17.8497 13.8291 17.699C14.193 17.5483 14.5831 17.4708 14.9771 17.4709ZM9.63307 28.5461C9.24691 28.5461 8.87657 28.3927 8.60352 28.1197C8.33047 27.8466 8.17707 27.4763 8.17707 27.0901C8.17707 26.704 8.33047 26.3336 8.60352 26.0606C8.87657 25.7875 9.24691 25.6341 9.63307 25.6341H90.3669C90.7531 25.6341 91.1234 25.7875 91.3965 26.0606C91.6695 26.3336 91.8229 26.704 91.8229 27.0901C91.8229 27.4763 91.6695 27.8466 91.3965 28.1197C91.1234 28.3927 90.7531 28.5461 90.3669 28.5461H9.63307ZM8.20053 12.0021H91.7995C93.4422 12.0061 95.0165 12.6602 96.1784 13.8214C97.3403 14.9827 97.9952 16.5567 98 18.1995V82.6315C97.9958 84.2742 97.341 85.8483 96.1789 87.0093C95.0169 88.1704 93.4422 88.8238 91.7995 88.8267H8.20053C6.55784 88.8238 4.98315 88.1704 3.82109 87.0093C2.65903 85.8483 2.00423 84.2742 2 82.6315V18.1995C2.00422 16.5564 2.65888 14.9818 3.82083 13.8201C4.98277 12.6583 6.55745 12.0039 8.20053 12V12.0021ZM91.7995 14.9088H8.20053C7.32946 14.9136 6.49545 15.2619 5.8797 15.878C5.26395 16.4942 4.9162 17.3284 4.912 18.1995V82.6315C4.91676 83.5022 5.26476 84.3359 5.88045 84.9516C6.49614 85.5672 7.32983 85.9152 8.20053 85.92H91.7995C92.6711 85.9166 93.5062 85.5693 94.123 84.9534C94.7398 84.3376 95.0886 83.5031 95.0933 82.6315V18.1995C95.0897 17.3271 94.7415 16.4915 94.1245 15.8748C93.5075 15.258 92.6718 14.91 91.7995 14.9067V14.9088ZM43.6992 77.792H18.688C18.3289 77.7927 17.9821 77.6605 17.7147 77.4208C17.4472 77.1812 17.2779 76.8509 17.2395 76.4939C17.0336 75.4475 16.8736 74.3957 16.7712 73.3344C16.2908 68.551 16.8488 63.7203 18.4071 59.1724C19.9653 54.6245 22.487 50.4667 25.7998 46.9829C29.1127 43.4992 33.1386 40.7717 37.6025 38.9869C42.0663 37.2022 46.8629 36.4021 51.6643 36.6415C56.4658 36.8809 61.159 38.154 65.4232 40.3739C69.6874 42.5938 73.4221 45.7082 76.372 49.5041C79.3219 53.3001 81.4176 57.6882 82.5157 62.3685C83.6139 67.0488 83.6887 71.9111 82.7349 76.6229C82.6702 76.9513 82.4934 77.2469 82.2349 77.4594C81.9763 77.6718 81.652 77.7879 81.3173 77.7877H56.5995C56.5149 78.424 56.3523 79.0473 56.1152 79.6437C53.6512 85.7237 44.5803 83.3696 43.6992 77.7877V77.792ZM57.0891 74.8853H73.1179C74.1752 69.1799 73.0884 63.285 70.0661 58.3317L67.8037 60.5941C67.6684 60.7292 67.5077 60.8362 67.3309 60.9092C67.1542 60.9821 66.9648 61.0195 66.7736 61.0193C66.5824 61.019 66.3931 60.9811 66.2165 60.9077C66.0399 60.8343 65.8796 60.7268 65.7445 60.5915C65.6095 60.4561 65.5025 60.2954 65.4295 60.1187C65.3566 59.9419 65.3191 59.7525 65.3194 59.5613C65.3196 59.3701 65.3575 59.1808 65.431 59.0042C65.5044 58.8277 65.6118 58.6673 65.7472 58.5323L68.3712 55.9147C66.3244 53.3462 63.7612 51.2359 60.8474 49.7204C57.9336 48.2049 54.7342 47.3179 51.456 47.1168V52.0437C51.456 52.4299 51.3026 52.8002 51.0296 53.0733C50.7565 53.3463 50.3862 53.4997 50 53.4997C49.6138 53.4997 49.2435 53.3463 48.9705 53.0733C48.6974 52.8002 48.544 52.4299 48.544 52.0437V47.1168C45.2658 47.3179 42.0664 48.2049 39.1526 49.7204C36.2388 51.2359 33.6756 53.3462 31.6288 55.9147L34.5088 58.7947C34.6438 58.9297 34.7509 59.09 34.824 59.2664C34.8971 59.4429 34.9347 59.632 34.9347 59.8229C34.9347 60.0139 34.8971 60.203 34.824 60.3794C34.7509 60.5559 34.6438 60.7162 34.5088 60.8512C34.3738 60.9862 34.2135 61.0933 34.037 61.1664C33.8606 61.2395 33.6715 61.2771 33.4805 61.2771C33.2896 61.2771 33.1005 61.2395 32.924 61.1664C32.7476 61.0933 32.5873 60.9862 32.4523 60.8512L29.9371 58.336C26.9164 63.2899 25.8316 69.1849 26.8907 74.8896H44.0267C44.2605 74.2955 44.5707 73.7343 44.9493 73.2203L57.4496 55.8016C57.6286 55.5177 57.9002 55.3045 58.2184 55.198C58.5366 55.0914 58.8819 55.0982 59.1957 55.217C59.5095 55.3359 59.7726 55.5596 59.9403 55.8502C60.1081 56.1409 60.1703 56.4805 60.1163 56.8117L57.0891 74.8853ZM76.416 70.5728C76.4156 72.016 76.2982 73.4568 76.0651 74.8811H80.1056C80.811 70.5208 80.5609 66.0594 79.3726 61.8053C78.1842 57.5512 76.086 53.606 73.223 50.2426C70.36 46.8792 66.8006 44.1778 62.7909 42.3252C58.7812 40.4727 54.417 39.5133 50 39.5133C45.5831 39.5133 41.2188 40.4727 37.2091 42.3252C33.1995 44.1778 29.64 46.8792 26.777 50.2426C23.914 53.606 21.8158 57.5512 20.6274 61.8053C19.4391 66.0594 19.189 70.5208 19.8944 74.8811H23.9349C23.339 71.2785 23.4965 67.5915 24.3973 64.0528C25.2982 60.5142 26.9229 57.2007 29.1688 54.3216C31.4148 51.4424 34.2333 49.0602 37.4463 47.3253C40.6594 45.5903 44.1972 44.5403 47.8365 44.2415C51.4758 43.9428 55.1375 44.4017 58.5904 45.5895C62.0434 46.7772 65.2127 48.6679 67.8981 51.1421C70.5835 53.6164 72.7269 56.6206 74.1928 59.9649C75.6587 63.3093 76.4164 66.9213 76.416 70.5728Z"/>
</mask>
<path d="M46.6933 77.8443C47.5808 80.2251 52.1621 81.6736 53.4197 78.56C53.6752 77.7247 53.8537 76.8678 53.9531 76L56.2155 62.4864L47.3003 74.9024C46.9646 75.304 46.7333 75.7823 46.6271 76.2948C46.5208 76.8073 46.5429 77.3381 46.6912 77.84L46.6933 77.8443ZM24.1248 17.4709C24.7189 17.4703 25.2998 17.6459 25.7941 17.9756C26.2883 18.3052 26.6737 18.7741 26.9014 19.3228C27.1291 19.8715 27.1889 20.4755 27.0732 21.0582C26.9575 21.6409 26.6716 22.1763 26.2516 22.5964C25.8316 23.0166 25.2963 23.3027 24.7137 23.4186C24.131 23.5345 23.527 23.4749 22.9782 23.2474C22.4294 23.0199 21.9604 22.6347 21.6306 22.1406C21.3007 21.6464 21.1249 21.0656 21.1253 20.4715C21.1265 19.6763 21.4428 18.914 22.0051 18.3518C22.5674 17.7895 23.3296 17.4721 24.1248 17.4709ZM32.4224 21.9296C32.0362 21.9296 31.6659 21.7762 31.3929 21.5031C31.1198 21.2301 30.9664 20.8598 30.9664 20.4736C30.9664 20.0874 31.1198 19.7171 31.3929 19.4441C31.6659 19.171 32.0362 19.0176 32.4224 19.0176H51.5691C51.7603 19.0176 51.9496 19.0553 52.1263 19.1284C52.3029 19.2016 52.4634 19.3088 52.5986 19.4441C52.7338 19.5793 52.8411 19.7398 52.9142 19.9164C52.9874 20.0931 53.0251 20.2824 53.0251 20.4736C53.0251 20.6648 52.9874 20.8541 52.9142 21.0308C52.8411 21.2074 52.7338 21.3679 52.5986 21.5031C52.4634 21.6383 52.3029 21.7456 52.1263 21.8188C51.9496 21.8919 51.7603 21.9296 51.5691 21.9296H32.4224ZM14.9771 17.4709C15.5712 17.4703 16.1522 17.6459 16.6465 17.9756C17.1407 18.3053 17.5261 18.7743 17.7538 19.323C17.9814 19.8718 18.0411 20.4758 17.9254 21.0586C17.8096 21.6414 17.5236 22.1767 17.1035 22.5968C16.6833 23.0169 16.148 23.303 15.5653 23.4187C14.9825 23.5345 14.3785 23.4747 13.8297 23.2471C13.2809 23.0194 12.812 22.6341 12.4823 22.1398C12.1526 21.6455 11.977 21.0645 11.9776 20.4704C11.9775 20.0765 12.0549 19.6864 12.2056 19.3224C12.3563 18.9584 12.5773 18.6277 12.8558 18.3491C13.1344 18.0706 13.4651 17.8497 13.8291 17.699C14.193 17.5483 14.5831 17.4708 14.9771 17.4709ZM9.63307 28.5461C9.24691 28.5461 8.87657 28.3927 8.60352 28.1197C8.33047 27.8466 8.17707 27.4763 8.17707 27.0901C8.17707 26.704 8.33047 26.3336 8.60352 26.0606C8.87657 25.7875 9.24691 25.6341 9.63307 25.6341H90.3669C90.7531 25.6341 91.1234 25.7875 91.3965 26.0606C91.6695 26.3336 91.8229 26.704 91.8229 27.0901C91.8229 27.4763 91.6695 27.8466 91.3965 28.1197C91.1234 28.3927 90.7531 28.5461 90.3669 28.5461H9.63307ZM8.20053 12.0021H91.7995C93.4422 12.0061 95.0165 12.6602 96.1784 13.8214C97.3403 14.9827 97.9952 16.5567 98 18.1995V82.6315C97.9958 84.2742 97.341 85.8483 96.1789 87.0093C95.0169 88.1704 93.4422 88.8238 91.7995 88.8267H8.20053C6.55784 88.8238 4.98315 88.1704 3.82109 87.0093C2.65903 85.8483 2.00423 84.2742 2 82.6315V18.1995C2.00422 16.5564 2.65888 14.9818 3.82083 13.8201C4.98277 12.6583 6.55745 12.0039 8.20053 12V12.0021ZM91.7995 14.9088H8.20053C7.32946 14.9136 6.49545 15.2619 5.8797 15.878C5.26395 16.4942 4.9162 17.3284 4.912 18.1995V82.6315C4.91676 83.5022 5.26476 84.3359 5.88045 84.9516C6.49614 85.5672 7.32983 85.9152 8.20053 85.92H91.7995C92.6711 85.9166 93.5062 85.5693 94.123 84.9534C94.7398 84.3376 95.0886 83.5031 95.0933 82.6315V18.1995C95.0897 17.3271 94.7415 16.4915 94.1245 15.8748C93.5075 15.258 92.6718 14.91 91.7995 14.9067V14.9088ZM43.6992 77.792H18.688C18.3289 77.7927 17.9821 77.6605 17.7147 77.4208C17.4472 77.1812 17.2779 76.8509 17.2395 76.4939C17.0336 75.4475 16.8736 74.3957 16.7712 73.3344C16.2908 68.551 16.8488 63.7203 18.4071 59.1724C19.9653 54.6245 22.487 50.4667 25.7998 46.9829C29.1127 43.4992 33.1386 40.7717 37.6025 38.9869C42.0663 37.2022 46.8629 36.4021 51.6643 36.6415C56.4658 36.8809 61.159 38.154 65.4232 40.3739C69.6874 42.5938 73.4221 45.7082 76.372 49.5041C79.3219 53.3001 81.4176 57.6882 82.5157 62.3685C83.6139 67.0488 83.6887 71.9111 82.7349 76.6229C82.6702 76.9513 82.4934 77.2469 82.2349 77.4594C81.9763 77.6718 81.652 77.7879 81.3173 77.7877H56.5995C56.5149 78.424 56.3523 79.0473 56.1152 79.6437C53.6512 85.7237 44.5803 83.3696 43.6992 77.7877V77.792ZM57.0891 74.8853H73.1179C74.1752 69.1799 73.0884 63.285 70.0661 58.3317L67.8037 60.5941C67.6684 60.7292 67.5077 60.8362 67.3309 60.9092C67.1542 60.9821 66.9648 61.0195 66.7736 61.0193C66.5824 61.019 66.3931 60.9811 66.2165 60.9077C66.0399 60.8343 65.8796 60.7268 65.7445 60.5915C65.6095 60.4561 65.5025 60.2954 65.4295 60.1187C65.3566 59.9419 65.3191 59.7525 65.3194 59.5613C65.3196 59.3701 65.3575 59.1808 65.431 59.0042C65.5044 58.8277 65.6118 58.6673 65.7472 58.5323L68.3712 55.9147C66.3244 53.3462 63.7612 51.2359 60.8474 49.7204C57.9336 48.2049 54.7342 47.3179 51.456 47.1168V52.0437C51.456 52.4299 51.3026 52.8002 51.0296 53.0733C50.7565 53.3463 50.3862 53.4997 50 53.4997C49.6138 53.4997 49.2435 53.3463 48.9705 53.0733C48.6974 52.8002 48.544 52.4299 48.544 52.0437V47.1168C45.2658 47.3179 42.0664 48.2049 39.1526 49.7204C36.2388 51.2359 33.6756 53.3462 31.6288 55.9147L34.5088 58.7947C34.6438 58.9297 34.7509 59.09 34.824 59.2664C34.8971 59.4429 34.9347 59.632 34.9347 59.8229C34.9347 60.0139 34.8971 60.203 34.824 60.3794C34.7509 60.5559 34.6438 60.7162 34.5088 60.8512C34.3738 60.9862 34.2135 61.0933 34.037 61.1664C33.8606 61.2395 33.6715 61.2771 33.4805 61.2771C33.2896 61.2771 33.1005 61.2395 32.924 61.1664C32.7476 61.0933 32.5873 60.9862 32.4523 60.8512L29.9371 58.336C26.9164 63.2899 25.8316 69.1849 26.8907 74.8896H44.0267C44.2605 74.2955 44.5707 73.7343 44.9493 73.2203L57.4496 55.8016C57.6286 55.5177 57.9002 55.3045 58.2184 55.198C58.5366 55.0914 58.8819 55.0982 59.1957 55.217C59.5095 55.3359 59.7726 55.5596 59.9403 55.8502C60.1081 56.1409 60.1703 56.4805 60.1163 56.8117L57.0891 74.8853ZM76.416 70.5728C76.4156 72.016 76.2982 73.4568 76.0651 74.8811H80.1056C80.811 70.5208 80.5609 66.0594 79.3726 61.8053C78.1842 57.5512 76.086 53.606 73.223 50.2426C70.36 46.8792 66.8006 44.1778 62.7909 42.3252C58.7812 40.4727 54.417 39.5133 50 39.5133C45.5831 39.5133 41.2188 40.4727 37.2091 42.3252C33.1995 44.1778 29.64 46.8792 26.777 50.2426C23.914 53.606 21.8158 57.5512 20.6274 61.8053C19.4391 66.0594 19.189 70.5208 19.8944 74.8811H23.9349C23.339 71.2785 23.4965 67.5915 24.3973 64.0528C25.2982 60.5142 26.9229 57.2007 29.1688 54.3216C31.4148 51.4424 34.2333 49.0602 37.4463 47.3253C40.6594 45.5903 44.1972 44.5403 47.8365 44.2415C51.4758 43.9428 55.1375 44.4017 58.5904 45.5895C62.0434 46.7772 65.2127 48.6679 67.8981 51.1421C70.5835 53.6164 72.7269 56.6206 74.1928 59.9649C75.6587 63.3093 76.4164 66.9213 76.416 70.5728Z" fill="black"/>
<path d="M46.6933 77.8443C47.5808 80.2251 52.1621 81.6736 53.4197 78.56C53.6752 77.7247 53.8537 76.8678 53.9531 76L56.2155 62.4864L47.3003 74.9024C46.9646 75.304 46.7333 75.7823 46.6271 76.2948C46.5208 76.8073 46.5429 77.3381 46.6912 77.84L46.6933 77.8443ZM24.1248 17.4709C24.7189 17.4703 25.2998 17.6459 25.7941 17.9756C26.2883 18.3052 26.6737 18.7741 26.9014 19.3228C27.1291 19.8715 27.1889 20.4755 27.0732 21.0582C26.9575 21.6409 26.6716 22.1763 26.2516 22.5964C25.8316 23.0166 25.2963 23.3027 24.7137 23.4186C24.131 23.5345 23.527 23.4749 22.9782 23.2474C22.4294 23.0199 21.9604 22.6347 21.6306 22.1406C21.3007 21.6464 21.1249 21.0656 21.1253 20.4715C21.1265 19.6763 21.4428 18.914 22.0051 18.3518C22.5674 17.7895 23.3296 17.4721 24.1248 17.4709ZM32.4224 21.9296C32.0362 21.9296 31.6659 21.7762 31.3929 21.5031C31.1198 21.2301 30.9664 20.8598 30.9664 20.4736C30.9664 20.0874 31.1198 19.7171 31.3929 19.4441C31.6659 19.171 32.0362 19.0176 32.4224 19.0176H51.5691C51.7603 19.0176 51.9496 19.0553 52.1263 19.1284C52.3029 19.2016 52.4634 19.3088 52.5986 19.4441C52.7338 19.5793 52.8411 19.7398 52.9142 19.9164C52.9874 20.0931 53.0251 20.2824 53.0251 20.4736C53.0251 20.6648 52.9874 20.8541 52.9142 21.0308C52.8411 21.2074 52.7338 21.3679 52.5986 21.5031C52.4634 21.6383 52.3029 21.7456 52.1263 21.8188C51.9496 21.8919 51.7603 21.9296 51.5691 21.9296H32.4224ZM14.9771 17.4709C15.5712 17.4703 16.1522 17.6459 16.6465 17.9756C17.1407 18.3053 17.5261 18.7743 17.7538 19.323C17.9814 19.8718 18.0411 20.4758 17.9254 21.0586C17.8096 21.6414 17.5236 22.1767 17.1035 22.5968C16.6833 23.0169 16.148 23.303 15.5653 23.4187C14.9825 23.5345 14.3785 23.4747 13.8297 23.2471C13.2809 23.0194 12.812 22.6341 12.4823 22.1398C12.1526 21.6455 11.977 21.0645 11.9776 20.4704C11.9775 20.0765 12.0549 19.6864 12.2056 19.3224C12.3563 18.9584 12.5773 18.6277 12.8558 18.3491C13.1344 18.0706 13.4651 17.8497 13.8291 17.699C14.193 17.5483 14.5831 17.4708 14.9771 17.4709ZM9.63307 28.5461C9.24691 28.5461 8.87657 28.3927 8.60352 28.1197C8.33047 27.8466 8.17707 27.4763 8.17707 27.0901C8.17707 26.704 8.33047 26.3336 8.60352 26.0606C8.87657 25.7875 9.24691 25.6341 9.63307 25.6341H90.3669C90.7531 25.6341 91.1234 25.7875 91.3965 26.0606C91.6695 26.3336 91.8229 26.704 91.8229 27.0901C91.8229 27.4763 91.6695 27.8466 91.3965 28.1197C91.1234 28.3927 90.7531 28.5461 90.3669 28.5461H9.63307ZM8.20053 12.0021H91.7995C93.4422 12.0061 95.0165 12.6602 96.1784 13.8214C97.3403 14.9827 97.9952 16.5567 98 18.1995V82.6315C97.9958 84.2742 97.341 85.8483 96.1789 87.0093C95.0169 88.1704 93.4422 88.8238 91.7995 88.8267H8.20053C6.55784 88.8238 4.98315 88.1704 3.82109 87.0093C2.65903 85.8483 2.00423 84.2742 2 82.6315V18.1995C2.00422 16.5564 2.65888 14.9818 3.82083 13.8201C4.98277 12.6583 6.55745 12.0039 8.20053 12V12.0021ZM91.7995 14.9088H8.20053C7.32946 14.9136 6.49545 15.2619 5.8797 15.878C5.26395 16.4942 4.9162 17.3284 4.912 18.1995V82.6315C4.91676 83.5022 5.26476 84.3359 5.88045 84.9516C6.49614 85.5672 7.32983 85.9152 8.20053 85.92H91.7995C92.6711 85.9166 93.5062 85.5693 94.123 84.9534C94.7398 84.3376 95.0886 83.5031 95.0933 82.6315V18.1995C95.0897 17.3271 94.7415 16.4915 94.1245 15.8748C93.5075 15.258 92.6718 14.91 91.7995 14.9067V14.9088ZM43.6992 77.792H18.688C18.3289 77.7927 17.9821 77.6605 17.7147 77.4208C17.4472 77.1812 17.2779 76.8509 17.2395 76.4939C17.0336 75.4475 16.8736 74.3957 16.7712 73.3344C16.2908 68.551 16.8488 63.7203 18.4071 59.1724C19.9653 54.6245 22.487 50.4667 25.7998 46.9829C29.1127 43.4992 33.1386 40.7717 37.6025 38.9869C42.0663 37.2022 46.8629 36.4021 51.6643 36.6415C56.4658 36.8809 61.159 38.154 65.4232 40.3739C69.6874 42.5938 73.4221 45.7082 76.372 49.5041C79.3219 53.3001 81.4176 57.6882 82.5157 62.3685C83.6139 67.0488 83.6887 71.9111 82.7349 76.6229C82.6702 76.9513 82.4934 77.2469 82.2349 77.4594C81.9763 77.6718 81.652 77.7879 81.3173 77.7877H56.5995C56.5149 78.424 56.3523 79.0473 56.1152 79.6437C53.6512 85.7237 44.5803 83.3696 43.6992 77.7877V77.792ZM57.0891 74.8853H73.1179C74.1752 69.1799 73.0884 63.285 70.0661 58.3317L67.8037 60.5941C67.6684 60.7292 67.5077 60.8362 67.3309 60.9092C67.1542 60.9821 66.9648 61.0195 66.7736 61.0193C66.5824 61.019 66.3931 60.9811 66.2165 60.9077C66.0399 60.8343 65.8796 60.7268 65.7445 60.5915C65.6095 60.4561 65.5025 60.2954 65.4295 60.1187C65.3566 59.9419 65.3191 59.7525 65.3194 59.5613C65.3196 59.3701 65.3575 59.1808 65.431 59.0042C65.5044 58.8277 65.6118 58.6673 65.7472 58.5323L68.3712 55.9147C66.3244 53.3462 63.7612 51.2359 60.8474 49.7204C57.9336 48.2049 54.7342 47.3179 51.456 47.1168V52.0437C51.456 52.4299 51.3026 52.8002 51.0296 53.0733C50.7565 53.3463 50.3862 53.4997 50 53.4997C49.6138 53.4997 49.2435 53.3463 48.9705 53.0733C48.6974 52.8002 48.544 52.4299 48.544 52.0437V47.1168C45.2658 47.3179 42.0664 48.2049 39.1526 49.7204C36.2388 51.2359 33.6756 53.3462 31.6288 55.9147L34.5088 58.7947C34.6438 58.9297 34.7509 59.09 34.824 59.2664C34.8971 59.4429 34.9347 59.632 34.9347 59.8229C34.9347 60.0139 34.8971 60.203 34.824 60.3794C34.7509 60.5559 34.6438 60.7162 34.5088 60.8512C34.3738 60.9862 34.2135 61.0933 34.037 61.1664C33.8606 61.2395 33.6715 61.2771 33.4805 61.2771C33.2896 61.2771 33.1005 61.2395 32.924 61.1664C32.7476 61.0933 32.5873 60.9862 32.4523 60.8512L29.9371 58.336C26.9164 63.2899 25.8316 69.1849 26.8907 74.8896H44.0267C44.2605 74.2955 44.5707 73.7343 44.9493 73.2203L57.4496 55.8016C57.6286 55.5177 57.9002 55.3045 58.2184 55.198C58.5366 55.0914 58.8819 55.0982 59.1957 55.217C59.5095 55.3359 59.7726 55.5596 59.9403 55.8502C60.1081 56.1409 60.1703 56.4805 60.1163 56.8117L57.0891 74.8853ZM76.416 70.5728C76.4156 72.016 76.2982 73.4568 76.0651 74.8811H80.1056C80.811 70.5208 80.5609 66.0594 79.3726 61.8053C78.1842 57.5512 76.086 53.606 73.223 50.2426C70.36 46.8792 66.8006 44.1778 62.7909 42.3252C58.7812 40.4727 54.417 39.5133 50 39.5133C45.5831 39.5133 41.2188 40.4727 37.2091 42.3252C33.1995 44.1778 29.64 46.8792 26.777 50.2426C23.914 53.606 21.8158 57.5512 20.6274 61.8053C19.4391 66.0594 19.189 70.5208 19.8944 74.8811H23.9349C23.339 71.2785 23.4965 67.5915 24.3973 64.0528C25.2982 60.5142 26.9229 57.2007 29.1688 54.3216C31.4148 51.4424 34.2333 49.0602 37.4463 47.3253C40.6594 45.5903 44.1972 44.5403 47.8365 44.2415C51.4758 43.9428 55.1375 44.4017 58.5904 45.5895C62.0434 46.7772 65.2127 48.6679 67.8981 51.1421C70.5835 53.6164 72.7269 56.6206 74.1928 59.9649C75.6587 63.3093 76.4164 66.9213 76.416 70.5728Z" stroke="black" stroke-width="1.2" mask="url(#path-5-outside-1_261_11279)"/>
<path d="M16.6464 17.9757C16.1521 17.646 15.5712 17.4703 14.977 17.4709C14.5831 17.4708 14.1929 17.5484 13.8289 17.6991C13.4649 17.8498 13.1344 18.0708 12.8558 18.3493C12.5773 18.6279 12.3563 18.9585 12.2056 19.3225C12.0549 19.6865 11.9774 20.0765 11.9775 20.4704C11.9769 21.0646 12.1525 21.6457 12.4822 22.14C12.8119 22.6342 13.2808 23.0196 13.8296 23.2473C14.3784 23.4749 14.9823 23.5347 15.565 23.4189C16.1478 23.3032 16.6835 23.017 17.1036 22.5969C17.5237 22.1768 17.8095 21.6416 17.9252 21.0588C18.041 20.4761 17.9812 19.8718 17.7536 19.323C17.5259 18.7743 17.1407 18.3054 16.6464 17.9757Z" fill="#00B0FB"/>
<path d="M25.7947 17.9756C25.3005 17.6459 24.7196 17.4703 24.1255 17.4709C23.3303 17.4721 22.568 17.7897 22.0057 18.3519C21.4435 18.9142 21.1271 19.6763 21.126 20.4715C21.1256 21.0656 21.3014 21.6466 21.6312 22.1407C21.961 22.6349 22.4298 23.02 22.9786 23.2475C23.5274 23.475 24.1313 23.5345 24.714 23.4186C25.2967 23.3028 25.832 23.0168 26.252 22.5967C26.672 22.1765 26.9582 21.6412 27.0738 21.0584C27.1895 20.4757 27.1297 19.8716 26.902 19.3229C26.6743 18.7741 26.289 18.3052 25.7947 17.9756Z" fill="#00B0FB"/>
<path d="M31.3924 21.5032C31.6654 21.7763 32.0358 21.9297 32.4219 21.9297L51.5689 21.9297C51.7601 21.9297 51.9491 21.892 52.1257 21.8189C52.3024 21.7457 52.4629 21.6384 52.5981 21.5032C52.7333 21.368 52.8406 21.2076 52.9137 21.031C52.9869 20.8543 53.0246 20.6649 53.0246 20.4737C53.0246 20.2825 52.9869 20.0931 52.9137 19.9165C52.8406 19.7398 52.7333 19.5793 52.5981 19.4441C52.4629 19.3089 52.3028 19.2018 52.1261 19.1287C51.9495 19.0555 51.7599 19.0178 51.5687 19.0178H32.4219C32.0358 19.0178 31.6653 19.1711 31.3923 19.4441C31.1192 19.7172 30.9658 20.0877 30.9658 20.4738C30.9658 20.86 31.1193 21.2302 31.3924 21.5032Z" fill="#00B0FB"/>
</svg>
