<svg width="100" height="100" viewBox="0 0 100 100" fill="none" xmlns="http://www.w3.org/2000/svg">
<path fill-rule="evenodd" clip-rule="evenodd" d="M41.4211 33.9268L43.0044 35.317L44.8927 34.5205L45.1794 30.5749C45.2151 30.0602 45.6365 29.6671 46.1355 29.6674L53.6223 29.6659C54.1465 29.6659 54.5724 30.0938 54.5821 30.6252L54.8651 34.5207L56.7534 35.3171L59.6959 32.7334C60.0741 32.4001 60.6466 32.4179 61.0006 32.7793L66.2945 38.1716C66.6693 38.5534 66.6693 39.1723 66.2945 39.554L63.8026 42.4982L64.585 44.421L68.4587 44.7132C68.964 44.7495 69.3499 45.1787 69.3496 45.687L69.3511 53.3128C69.3511 53.8467 68.931 54.2806 68.4093 54.2905L64.5849 54.5787L63.8024 56.5018L66.3396 59.4994C66.6668 59.8846 66.6493 60.4678 66.2945 60.8284L61.0006 66.2207C60.6259 66.6025 60.0182 66.6025 59.6434 66.2207L56.7535 63.6826L54.865 64.4791L54.5783 68.4251C54.5428 68.9398 54.1213 69.3329 53.6223 69.3326L46.1354 69.3341C45.6113 69.3341 45.1853 68.9062 45.1756 68.3748L44.8927 64.4793L43.0048 63.6822L40.0619 66.2666C39.6837 66.5999 39.1111 66.5821 38.7571 66.2207L33.4632 60.8284C33.0883 60.4466 33.0883 59.8277 33.4632 59.446L35.9551 56.5018L35.1735 54.5809L31.2582 54.3009C30.6962 54.3218 28.833 55.3552 26.3565 53.8544C26.8709 66.6615 37.2276 76.8366 49.8788 76.8366C62.8821 76.8366 73.4214 66.1014 73.4214 52.8565V50.2526C73.4214 49.7126 73.8513 49.2748 74.3813 49.2748H79.4941C80.0242 49.2748 80.454 49.7126 80.454 50.2526V52.8565C80.454 70.0552 66.7636 84 49.8787 84C29.2406 84 14.67 63.6438 20.637 43.7406C19.6603 42.5693 19.4446 40.798 20.3917 39.5508C19.8348 36.913 17.9987 36.6806 16.727 32.9078C13.7852 24.1792 20.1323 15 29.2691 15C33.4096 15 37.1469 16.9383 39.5986 20.0368H67.8011L67.8047 18.7713C67.8041 18.0182 68.6213 17.539 69.2635 17.9424L76.399 22.4216C77.02 22.8053 77.0151 23.7072 76.411 24.0868L69.334 28.5292C68.6031 29.0345 67.801 28.4746 67.801 27.7447V26.4792H42.381C42.7568 29.0193 42.4163 31.6107 41.4211 33.9268ZM42.2462 37.2251L40.5015 35.6932C39.5726 37.1933 38.5408 37.6758 38.1458 39.5503C39.2557 41.0132 38.7747 43.1743 37.3334 44.288C38.5081 46.1383 37.2686 49.0601 34.9205 49.6549C34.7745 50.7303 34.3391 51.7132 33.6961 52.5185L35.9537 52.6816C36.3437 52.7082 36.6937 52.9782 36.8087 53.3826C38.0641 57.7884 39.3701 55.4529 35.4488 60.0859L39.4862 64.1983C44.2422 60.0216 41.7919 61.6847 46.0087 62.7954C46.4122 62.8867 46.7262 63.2385 46.7568 63.6799L47.0255 67.3785H52.7324C53.1732 61.3505 52.5311 63.8218 56.4246 61.6563C56.7659 61.4669 57.2009 61.5005 57.5118 61.7747L60.2717 64.1984L64.3091 60.086C60.2075 55.2402 61.8423 57.7361 62.9318 53.4424C63.0212 53.0313 63.3666 52.7113 63.8 52.6801L67.4312 52.4063V46.5936L63.8005 46.3179C63.4121 46.2899 63.0639 46.0201 62.9493 45.6171C61.6932 41.2117 60.3886 43.5464 64.3091 38.9142L60.2717 34.8018C55.5195 38.9746 57.9733 37.3173 53.7492 36.2045C53.3457 36.1133 53.0316 35.7614 53.0011 35.3201L52.7324 31.6215H47.0255C46.5847 37.6503 47.2268 35.1777 43.3334 37.3437C42.9921 37.533 42.5571 37.4993 42.2462 37.2251ZM32.9464 49.7752L25.6036 49.8233C26.5789 53.6745 32.0168 53.6643 32.9464 49.7752ZM49.8789 38.877C44.1195 38.877 39.4499 43.6335 39.4499 49.4999C39.4499 58.9318 50.6986 63.6876 57.2532 57.0112C63.8078 50.3348 59.1386 38.877 49.8789 38.877ZM55.896 43.371C50.55 37.9257 41.3698 41.8011 41.3698 49.4999C41.3698 57.1987 50.55 61.0742 55.896 55.6288C59.2189 52.2442 59.2189 46.7556 55.896 43.371ZM21.6128 37.3256C21.8049 37.6857 21.9667 38.0693 22.0959 38.4876C22.8168 38.3261 25.227 38.3943 26.0925 38.3943V32.2311L25.2974 31.7636C23.3208 33.5719 20.1622 32.1356 20.1622 29.4311C20.1622 27.7012 21.5449 26.294 23.2423 26.294C25.1927 26.294 26.6572 28.132 26.2563 30.0794C27.1219 30.5885 28.012 30.8972 28.0124 31.6718V38.3944H30.1212V27.5644C30.1224 26.5916 31.2113 26.518 32.2205 26.2427C32.433 22.2338 38.3759 22.3871 38.3759 26.4141C38.3759 29.5137 34.3947 30.7286 32.7192 28.1281L32.0411 28.3131V38.3942C32.9486 38.3942 35.7076 38.3227 36.4424 38.4878C37.3975 35.3962 40.6099 34.2393 40.6099 28.5072C40.6099 18.3163 28.4146 13.0411 21.2499 20.3389C18.2156 23.4297 17.1189 28.0532 18.542 32.2741C19.4106 34.8499 20.5789 35.3882 21.6128 37.3256ZM40.8876 21.9924C41.3199 22.7904 41.6752 23.6375 41.9433 24.5238H68.761C69.7388 24.5238 69.7209 25.4607 69.7209 25.9981L74.0857 23.2581L69.7209 20.5181C69.7209 21.0555 69.7388 21.9924 68.761 21.9924H40.8876ZM24.4352 51.9446C24.0271 51.2832 23.7461 50.5321 23.6273 49.7268C22.7526 49.5129 22.0534 48.9862 21.5644 48.3238C18.8569 66.0159 32.263 82.0446 49.8789 82.0446C65.7043 82.0446 78.5344 68.9761 78.5344 52.8566V51.2305H75.3414V52.8566C75.3414 67.1809 63.9417 78.7924 49.8788 78.7924C35.5427 78.7924 24.0326 66.8338 24.4352 51.9446ZM24.45 47.8817L34.0106 47.8206C35.7554 47.8093 36.6789 45.061 34.9601 45.061H23.5777C21.8898 45.061 22.7467 47.827 24.45 47.8817ZM23.5778 43.1054H34.9602C37.0238 43.1054 37.6475 40.3499 35.5561 40.3499H22.9819C20.8904 40.3499 21.5149 43.1054 23.5778 43.1054ZM23.2424 28.2495C21.7134 28.2495 21.7135 30.6128 23.2424 30.6128C24.7686 30.6128 24.7745 28.2495 23.2424 28.2495ZM35.296 25.2323C33.7698 25.2323 33.7639 27.5956 35.296 27.5956C36.8253 27.5956 36.8242 25.2323 35.296 25.2323ZM78.9917 37.614C77.796 36.2851 75.6005 36.3784 74.3874 37.614C72.3391 39.7004 73.8055 43.2754 76.6895 43.2754C79.5659 43.2754 81.0442 39.7048 78.9917 37.614ZM75.7447 40.9213C77.0282 42.1921 78.8662 40.2511 77.6344 38.9964C76.3712 37.7147 74.4995 39.6883 75.7447 40.9213ZM49.879 43.3545C46.5476 43.3545 43.8456 46.106 43.8456 49.5C43.8456 54.9555 50.3526 57.7083 54.1451 53.8453C57.9376 49.9824 55.2352 43.3545 49.879 43.3545ZM52.7878 46.5371C50.204 43.9052 45.7655 45.7774 45.7655 49.5C45.7655 53.2226 50.2039 55.0948 52.7878 52.4629C54.3939 50.8269 54.3941 48.1729 52.7878 46.5371ZM71.339 33.531C70.8089 33.531 70.3791 33.9688 70.3791 34.5087V45.4087C70.3791 45.9486 70.8089 46.3864 71.339 46.3864H82.0401C82.5701 46.3864 83 45.9486 83 45.4087V34.5087C83 33.9688 82.5701 33.531 82.0401 33.531H71.339ZM81.08 35.4865H72.299V44.4308H81.08V35.4865Z" fill="#3C7CFF"/>
</svg>
