<svg width="92" height="100" viewBox="0 0 92 100" fill="none" xmlns="http://www.w3.org/2000/svg">
<path d="M81.7579 88.2085V1.66667C81.7579 0.745834 81.0121 0 80.0912 0H25C24.5584 0 24.1334 0.174997 23.8208 0.487499L0.487499 23.8208C0.174998 24.1333 0 24.5583 0 25V88.2086C0 89.1294 0.745835 89.8752 1.66667 89.8752H80.0912C81.012 89.8752 81.7579 89.1294 81.7579 88.2085ZM23.3334 5.69227V18.3344C23.3334 21.0927 21.0917 23.3344 18.3334 23.3344H5.69123L23.3334 5.69227ZM78.4246 86.5424H3.33337V26.6672H18.3328C22.9287 26.6672 26.6662 22.9297 26.6662 18.3339V3.3344H78.4208L78.4246 86.5424Z" fill="#3C7CFF"/>
<path d="M90.2165 10.1253C89.2957 10.1253 88.5498 10.8711 88.5498 11.792V96.6666H11.7914C10.8706 96.6666 10.1248 97.4125 10.1248 98.3333C10.1248 99.2541 10.8706 100 11.7914 100H90.216C91.1368 100 91.8826 99.2541 91.8826 98.3333V11.7914C91.8826 10.8706 91.1373 10.1253 90.2165 10.1253Z" fill="#3C7CFF"/>
<path d="M26.9119 36.3761L19.7952 40.6469C18.7577 39.7011 17.3911 39.1053 15.8786 39.1053C12.6619 39.1053 10.0452 41.7219 10.0452 44.9387C10.0452 48.1554 12.6618 50.7721 15.8786 50.7721C19.0953 50.7721 21.7119 48.1554 21.7119 44.9387C21.7119 44.4387 21.6286 43.9637 21.5119 43.5011L28.6286 39.2303C29.6661 40.1761 31.0328 40.7719 32.5453 40.7719C34.0579 40.7719 35.4245 40.1803 36.462 39.2303L43.5787 43.5011C43.462 43.9636 43.3787 44.4386 43.3787 44.9387C43.3787 48.1553 45.9954 50.7721 49.2121 50.7721C52.4288 50.7721 55.0455 48.1554 55.0455 44.9387C55.0455 43.9387 54.7705 43.0095 54.3205 42.1845L63.1205 33.3804C63.9455 33.8262 64.8746 34.1054 65.8746 34.1054C69.0913 34.1054 71.708 31.4887 71.708 28.272C71.708 25.0552 69.0914 22.4386 65.8746 22.4386C62.6579 22.4386 60.0412 25.0552 60.0412 28.272C60.0412 29.272 60.3162 30.2012 60.7621 31.0261L51.9579 39.8303C51.1329 39.3844 50.2038 39.1053 49.2038 39.1053C47.6912 39.1053 46.3246 39.6969 45.2871 40.6469L38.1704 36.3761C38.2871 35.9136 38.3704 35.4386 38.3704 34.9386C38.3704 31.7219 35.7537 29.1052 32.537 29.1052C29.3202 29.1052 26.7036 31.7218 26.7036 34.9386C26.7036 35.4386 26.7869 35.9136 26.9036 36.3761H26.9119ZM15.8783 47.4385C14.4991 47.4385 13.3783 46.3177 13.3783 44.9385C13.3783 43.5593 14.4991 42.4384 15.8783 42.4384C17.2575 42.4384 18.3784 43.5593 18.3784 44.9385C18.3784 46.3177 17.2575 47.4385 15.8783 47.4385ZM65.8783 25.7724C67.2575 25.7724 68.3784 26.8932 68.3784 28.2724C68.3784 29.6516 67.2575 30.7725 65.8783 30.7725C64.4991 30.7725 63.3783 29.6516 63.3783 28.2724C63.3783 26.8932 64.4991 25.7724 65.8783 25.7724ZM49.2117 42.439C50.5909 42.439 51.7117 43.5599 51.7117 44.9391C51.7117 46.3183 50.5909 47.4391 49.2117 47.4391C47.8325 47.4391 46.7116 46.3183 46.7116 44.9391C46.7116 43.5599 47.8325 42.439 49.2117 42.439ZM32.545 32.439C33.9242 32.439 35.0451 33.5599 35.0451 34.9391C35.0451 36.3183 33.9242 37.4391 32.545 37.4391C31.1658 37.4391 30.045 36.3183 30.045 34.9391C30.045 33.5599 31.1658 32.439 32.545 32.439Z" fill="#3C7CFF"/>
<path d="M70.046 57.6592H22.4919C21.571 57.6592 20.8252 58.405 20.8252 59.3258C20.8252 60.2467 21.571 60.9925 22.4919 60.9925H70.046C70.9668 60.9925 71.7127 60.2467 71.7127 59.3258C71.7127 58.405 70.9668 57.6592 70.046 57.6592Z" fill="#3C7CFF"/>
<path d="M13.3334 60.9925H15.8792C16.8001 60.9925 17.5459 60.2467 17.5459 59.3258C17.5459 58.405 16.8001 57.6592 15.8792 57.6592H13.3334C12.4126 57.6592 11.6667 58.405 11.6667 59.3258C11.6667 60.2467 12.4126 60.9925 13.3334 60.9925Z" fill="#3C7CFF"/>
<path d="M70.046 66.7675H22.4919C21.571 66.7675 20.8252 67.5133 20.8252 68.4341C20.8252 69.355 21.571 70.1008 22.4919 70.1008H70.046C70.9668 70.1008 71.7127 69.355 71.7127 68.4341C71.7127 67.5133 70.9668 66.7675 70.046 66.7675Z" fill="#3C7CFF"/>
<path d="M13.3334 70.1008H15.8792C16.8001 70.1008 17.5459 69.355 17.5459 68.4341C17.5459 67.5133 16.8001 66.7675 15.8792 66.7675H13.3334C12.4126 66.7675 11.6667 67.5133 11.6667 68.4341C11.6667 69.355 12.4126 70.1008 13.3334 70.1008Z" fill="#3C7CFF"/>
<path d="M70.046 75.8759H13.3334C12.4126 75.8759 11.6667 76.6217 11.6667 77.5425C11.6667 78.4634 12.4126 79.2092 13.3334 79.2092H70.046C70.9668 79.2092 71.7126 78.4634 71.7126 77.5425C71.7126 76.6217 70.9668 75.8759 70.046 75.8759Z" fill="#3C7CFF"/>
</svg>
