<svg width="92" height="101" viewBox="0 0 92 101" fill="none" xmlns="http://www.w3.org/2000/svg">
<path d="M81.7579 88.8548V2.31291C81.7579 1.39207 81.0121 0.64624 80.0912 0.64624H25C24.5584 0.64624 24.1334 0.821238 23.8208 1.13374L0.487499 24.4671C0.174998 24.7796 0 25.2046 0 25.6463V88.8548C0 89.7757 0.745835 90.5215 1.66667 90.5215H80.0912C81.012 90.5215 81.7579 89.7756 81.7579 88.8548ZM23.3334 6.33851V18.9806C23.3334 21.7389 21.0917 23.9806 18.3334 23.9806H5.69123L23.3334 6.33851ZM78.4246 87.1887H3.33337V27.3134H18.3328C22.9287 27.3134 26.6662 23.5759 26.6662 18.9801V3.98064H78.4208L78.4246 87.1887Z" fill="#3C7CFF"/>
<path d="M90.2167 10.7715C89.2959 10.7715 88.5501 11.5174 88.5501 12.4382V97.3129H11.7917C10.8708 97.3129 10.125 98.0587 10.125 98.9795C10.125 99.9004 10.8708 100.646 11.7917 100.646H90.2162C91.137 100.646 91.8829 99.9004 91.8829 98.9795V12.4377C91.8829 11.5168 91.1376 10.7715 90.2167 10.7715Z" fill="#3C7CFF"/>
<path d="M26.9122 37.0223L19.7955 41.2932C18.758 40.3473 17.3913 39.7515 15.8788 39.7515C12.6622 39.7515 10.0454 42.3682 10.0454 45.5849C10.0454 48.8017 12.662 51.4183 15.8788 51.4183C19.0955 51.4183 21.7122 48.8017 21.7122 45.5849C21.7122 45.0849 21.6288 44.6099 21.5122 44.1474L28.6289 39.8765C29.6664 40.8224 31.033 41.4182 32.5456 41.4182C34.0581 41.4182 35.4247 40.8265 36.4623 39.8765L43.579 44.1474C43.4623 44.6099 43.379 45.0849 43.379 45.5849C43.379 48.8015 45.9956 51.4183 49.2123 51.4183C52.4291 51.4183 55.0457 48.8017 55.0457 45.5849C55.0457 44.5849 54.7707 43.6557 54.3207 42.8308L63.1207 34.0266C63.9457 34.4724 64.8749 34.7516 65.8749 34.7516C69.0915 34.7516 71.7083 32.135 71.7083 28.9182C71.7083 25.7015 69.0916 23.0848 65.8749 23.0848C62.6581 23.0848 60.0415 25.7015 60.0415 28.9182C60.0415 29.9182 60.3165 30.8474 60.7623 31.6724L51.9581 40.4765C51.1331 40.0307 50.204 39.7515 49.204 39.7515C47.6915 39.7515 46.3249 40.3432 45.2873 41.2932L38.1706 37.0223C38.2873 36.5598 38.3706 36.0848 38.3706 35.5848C38.3706 32.3682 35.754 29.7514 32.5372 29.7514C29.3205 29.7514 26.7039 32.368 26.7039 35.5848C26.7039 36.0848 26.7872 36.5598 26.9039 37.0223H26.9122ZM15.8786 48.0847C14.4994 48.0847 13.3785 46.9639 13.3785 45.5847C13.3785 44.2055 14.4994 43.0846 15.8786 43.0846C17.2578 43.0846 18.3786 44.2055 18.3786 45.5847C18.3786 46.9639 17.2578 48.0847 15.8786 48.0847ZM65.8786 26.4186C67.2578 26.4186 68.3786 27.5395 68.3786 28.9187C68.3786 30.2979 67.2578 31.4187 65.8786 31.4187C64.4994 31.4187 63.3785 30.2979 63.3785 28.9187C63.3785 27.5395 64.4994 26.4186 65.8786 26.4186ZM49.2119 43.0853C50.5911 43.0853 51.712 44.2061 51.712 45.5853C51.712 46.9645 50.5911 48.0854 49.2119 48.0854C47.8327 48.0854 46.7119 46.9645 46.7119 45.5853C46.7119 44.2061 47.8327 43.0853 49.2119 43.0853ZM32.5453 33.0853C33.9245 33.0853 35.0453 34.2061 35.0453 35.5853C35.0453 36.9645 33.9245 38.0854 32.5453 38.0854C31.1661 38.0854 30.0452 36.9645 30.0452 35.5853C30.0452 34.2061 31.1661 33.0853 32.5453 33.0853Z" fill="#3C7CFF"/>
<path d="M70.046 58.3054H22.4919C21.571 58.3054 20.8252 59.0513 20.8252 59.9721C20.8252 60.8929 21.571 61.6388 22.4919 61.6388H70.046C70.9668 61.6388 71.7127 60.8929 71.7127 59.9721C71.7127 59.0513 70.9668 58.3054 70.046 58.3054Z" fill="#3C7CFF"/>
<path d="M13.3337 61.6388H15.8795C16.8003 61.6388 17.5461 60.8929 17.5461 59.9721C17.5461 59.0513 16.8003 58.3054 15.8795 58.3054H13.3337C12.4128 58.3054 11.667 59.0513 11.667 59.9721C11.667 60.8929 12.4128 61.6388 13.3337 61.6388Z" fill="#3C7CFF"/>
<path d="M70.046 67.4137H22.4919C21.571 67.4137 20.8252 68.1595 20.8252 69.0804C20.8252 70.0012 21.571 70.747 22.4919 70.747H70.046C70.9668 70.747 71.7127 70.0012 71.7127 69.0804C71.7127 68.1595 70.9668 67.4137 70.046 67.4137Z" fill="#3C7CFF"/>
<path d="M13.3337 70.747H15.8795C16.8003 70.747 17.5461 70.0012 17.5461 69.0804C17.5461 68.1595 16.8003 67.4137 15.8795 67.4137H13.3337C12.4128 67.4137 11.667 68.1595 11.667 69.0804C11.667 70.0012 12.4128 70.747 13.3337 70.747Z" fill="#3C7CFF"/>
<path d="M70.0462 76.5221H13.3337C12.4128 76.5221 11.667 77.2679 11.667 78.1888C11.667 79.1096 12.4128 79.8554 13.3337 79.8554H70.0462C70.967 79.8554 71.7129 79.1096 71.7129 78.1888C71.7129 77.2679 70.967 76.5221 70.0462 76.5221Z" fill="#3C7CFF"/>
</svg>
