<svg width="102" height="94" viewBox="0 0 102 94" fill="none" xmlns="http://www.w3.org/2000/svg">
<path d="M98.3847 43.7025C98.3839 31.0912 86.7973 21.7507 74.5394 24.2859C61.1249 8.28826 36.8271 7.1137 21.9704 21.9704C8.03333 35.9075 8.03333 58.5063 21.9704 72.4434C32.6488 83.1218 48.9386 85.9531 62.6053 79.3978C62.4518 79.7788 62.3009 80.1612 62.1591 80.5438L62.1575 80.5485C61.7569 81.7001 62.6071 82.907 63.8164 82.907H99.4928C100.55 82.907 101.399 81.9752 101.228 80.8345C100.816 77.3116 100.06 74.9991 99.0966 73.2764C98.1334 71.5536 96.971 70.4369 95.7858 69.3056C95.7856 69.3054 95.7854 69.3052 95.7852 69.305L95.7382 69.2595C94.4634 68.0275 93.1552 66.7631 92.0688 64.3188C91.5952 63.2481 91.4719 62.2074 91.8229 60.9067L91.8236 60.9037C92.2217 59.3532 93.2774 57.4011 95.1094 54.6207C96.1806 53.0247 96.9879 51.2561 97.5546 49.4034L97.5549 49.4023C98.1003 47.5916 98.4064 45.6699 98.3847 43.7025ZM98.3847 43.7025C98.3847 43.703 98.3847 43.7035 98.3847 43.7039H98.1347M98.3847 43.7025C98.3847 43.7021 98.3847 43.7016 98.3847 43.7012L98.1347 43.7039M98.1347 43.7039C98.1347 31.201 86.6019 21.9532 74.4438 24.5615L94.9012 54.4823C95.9575 52.9087 96.7551 51.1626 97.3156 49.3302C97.8545 47.541 98.1563 45.644 98.1347 43.7039ZM92.192 52.6632L92.1915 52.6639L88.6929 60.0224L88.4517 59.9566C88.4516 59.9568 88.4515 59.9571 88.4515 59.9573C87.8541 62.148 88.0537 63.8886 88.874 65.7072C90.2419 68.8129 91.8169 70.3199 93.2519 71.6929C93.4692 71.9009 93.6833 72.1057 93.893 72.3126C94.6871 73.0959 95.418 73.9072 96.041 75.0303C96.6344 76.0998 97.1357 77.4629 97.4908 79.3675H66.4425C66.8304 78.5 67.1007 77.9691 67.4703 77.4974C67.8873 76.9653 68.4398 76.4975 69.4643 75.7209L69.4649 75.7205C70.5506 74.8928 71.7006 74.0157 72.6224 72.7478C73.5489 71.4736 74.2368 69.8176 74.4343 67.437L74.435 67.4291L74.4351 67.4211L74.4567 66.2786V66.2738C74.4567 63.2478 71.9958 60.764 68.9469 60.764H64.2475C63.1568 60.764 62.2556 59.8628 62.2556 58.7721V54.2452C62.2556 53.2664 61.4754 52.4862 60.4966 52.4862C58.8641 52.4862 57.8638 52.2905 57.3414 52.0003L57.3415 52.0001L57.3318 51.9952C57.2403 51.9495 57.1917 51.9112 57.1668 51.885C57.1534 51.8708 57.1472 51.8607 57.1444 51.8543C57.1369 51.6905 57.2154 51.4081 57.4206 50.997C58.0842 49.755 59.6193 48.2315 61.6366 46.7291C62.1151 46.3765 62.3911 45.7974 62.3411 45.1714L62.3408 45.1688C61.895 40.2431 63.6995 35.5085 67.0542 32.1538C73.4236 25.7844 83.7419 25.7844 90.1113 32.1538C95.5888 37.6313 96.4381 46.2303 92.192 52.6632ZM70.3437 64.8986L70.3465 64.9012C70.9677 65.5036 70.9824 66.2526 70.9393 67.1838C70.8563 68.113 70.6732 68.8885 70.3963 69.5165C57.9221 82.4698 37.2179 82.7154 24.4798 69.9559C11.9233 57.378 11.9235 37.0142 24.4796 24.4581L24.4798 24.4579C37.4442 11.4723 58.5391 12.0011 70.8948 25.4167C69.0216 26.2214 67.2777 27.2808 65.7468 28.5958C61.2727 24.1572 55.359 21.4248 48.9766 21.0066V18.9783C48.9766 17.9995 48.1965 17.2194 47.2177 17.2194C46.2389 17.2194 45.4587 17.9995 45.4587 18.9783V20.9852C32.3493 21.8532 21.8747 32.3278 21.0067 45.4371H18.9999C18.0211 45.4371 17.2409 46.2173 17.2409 47.1961C17.2409 48.1749 18.0211 48.9551 18.9999 48.9551H21.0067C21.8748 62.0645 32.3493 72.539 45.4587 73.407V75.4139C45.4587 76.3927 46.2389 77.1729 47.2177 77.1729C48.1965 77.1729 48.9766 76.3927 48.9766 75.4139V73.407C56.0515 72.9368 62.5834 69.6121 67.1435 64.3035H68.9469C69.4781 64.3035 69.9766 64.5314 70.3437 64.8986ZM58.7592 43.7039H58.7591L58.7593 43.7097L58.7779 44.5113C56.7634 46.0953 55.1552 47.8149 54.3261 49.3856C53.5469 50.855 53.4314 52.2336 53.9625 53.3602C54.4493 54.3931 55.4552 55.1619 56.8641 55.5898C52.0345 61.1652 43.4469 61.5244 38.1682 56.2456C33.1784 51.2559 33.1784 43.1579 38.1682 38.1682C42.4823 33.8755 49.2271 33.1788 54.3005 36.5611C56.2697 37.881 57.8444 39.7196 58.8397 41.8917C58.7794 42.4857 58.7592 43.0968 58.7592 43.7039ZM58.7377 58.8152C58.7377 61.2341 60.312 63.313 62.5238 64.0429C53.5976 72.1806 39.7572 71.9113 31.1409 63.3165C22.2706 54.4249 22.2706 40.032 31.1409 31.1405C40.0423 22.2393 54.442 22.291 63.284 31.1073C61.8365 32.8492 60.6971 34.8248 59.9151 37.0007C53.8831 29.4827 42.5761 28.7848 35.6805 35.6805C29.3098 42.0511 29.3098 52.3627 35.6805 58.7333C42.1 65.1528 52.409 65.0463 58.7377 58.7233V58.8152ZM47.1961 0.75C46.2173 0.75 45.4371 1.53019 45.4371 2.50897V7.18679C45.4371 8.16557 46.2173 8.94576 47.1961 8.94576C48.1749 8.94576 48.9551 8.16557 48.9551 7.18679V2.50897C48.9551 1.53019 48.1749 0.75 47.1961 0.75ZM47.1961 85.468C46.2173 85.468 45.4371 86.2482 45.4371 87.227V91.9048C45.4371 92.8836 46.2173 93.6638 47.1961 93.6638C48.1749 93.6638 48.9551 92.8836 48.9551 91.9048V87.227C48.9551 86.2482 48.1749 85.468 47.1961 85.468ZM8.94576 47.2177C8.94576 46.2389 8.16557 45.4587 7.18679 45.4587H2.50897C1.53019 45.4587 0.75 46.2389 0.75 47.2177C0.75 48.1965 1.53019 48.9767 2.50897 48.9767H7.18679C8.16557 48.9767 8.94576 48.1965 8.94576 47.2177Z" fill="#3C7CFF" stroke="#3C7CFF" stroke-width="0.5"/>
</svg>
