<svg width="100" height="101" viewBox="0 0 100 101" fill="none" xmlns="http://www.w3.org/2000/svg">
<path fill-rule="evenodd" clip-rule="evenodd" d="M0 2.5112C0 1.19625 1.066 0.130249 2.38095 0.130249H97.619C98.9338 0.130249 100 1.19625 100 2.5112V97.7493C100 99.0641 98.9338 100.13 97.619 100.13H2.38095C1.066 100.13 0 99.0641 0 97.7493V2.5112ZM4.7619 4.89215V95.3683H95.2381V4.89215H4.7619Z" fill="#3C7CFF"/>
<path fill-rule="evenodd" clip-rule="evenodd" d="M0 2.5112C0 1.19625 1.066 0.130249 2.38095 0.130249H97.619C98.9338 0.130249 100 1.19625 100 2.5112V26.3207C100 27.6357 98.9338 28.7017 97.619 28.7017H2.38095C1.066 28.7017 0 27.6357 0 26.3207V2.5112ZM4.7619 4.89215V23.9398H95.2381V4.89215H4.7619Z" fill="#3C7CFF"/>
<path fill-rule="evenodd" clip-rule="evenodd" d="M23.8095 16.7969H14.2856V12.035H23.8095V16.7969Z" fill="#3C7CFF"/>
<path fill-rule="evenodd" clip-rule="evenodd" d="M42.8571 16.7969H33.3333V12.035H42.8571V16.7969Z" fill="#3C7CFF"/>
<path fill-rule="evenodd" clip-rule="evenodd" d="M61.9047 16.7969H52.3809V12.035H61.9047V16.7969Z" fill="#3C7CFF"/>
<path fill-rule="evenodd" clip-rule="evenodd" d="M44.0006 40.7366C46.8149 36.384 53.1825 36.384 55.9968 40.7366L56.4834 41.4895C56.8991 42.1323 57.5987 42.5362 58.3634 42.5747L59.2587 42.62C64.4353 42.8809 67.6191 48.3957 65.2568 53.009L64.8482 53.8071C64.4991 54.4885 64.4991 55.2962 64.8482 55.9776L65.2568 56.7757C67.6191 61.389 64.4353 66.9038 59.2587 67.1647L58.3634 67.21C57.5987 67.2485 56.8991 67.6523 56.4834 68.2952L55.9968 69.0481C53.1825 73.4009 46.8149 73.4009 44.0006 69.0481L43.5134 68.2952C43.0977 67.6523 42.3987 67.2485 41.6339 67.21L40.7387 67.1647C35.5619 66.9038 32.3779 61.389 34.7404 56.7757L35.1489 55.9776C35.4978 55.2962 35.4978 54.4885 35.1489 53.8071L34.7404 53.009C32.3779 48.3957 35.5619 42.8809 40.7387 42.62L41.6339 42.5747C42.3987 42.5362 43.0977 42.1323 43.5134 41.4895L44.0006 40.7366ZM51.9982 43.3223C51.0601 41.8714 48.9372 41.8714 47.9991 43.3223L47.5125 44.0752C46.2653 46.0038 44.1672 47.2152 41.8739 47.3304L40.9782 47.3757C39.2528 47.4628 38.1914 49.3009 38.9789 50.839L39.3875 51.6366C40.4342 53.6809 40.4342 56.1038 39.3875 58.1481L38.9789 58.9457C38.1914 60.4838 39.2528 62.3219 40.9782 62.409L41.8739 62.4543C44.1672 62.5695 46.2653 63.7809 47.5125 65.7095L47.9991 66.4623C48.9372 67.9133 51.0601 67.9133 51.9982 66.4623L52.4849 65.7095C53.7315 63.7809 55.8301 62.5695 58.1234 62.4543L59.0187 62.409C60.7444 62.3219 61.8058 60.4838 61.0182 58.9457L60.6096 58.1481C59.5629 56.1038 59.5629 53.6809 60.6096 51.6366L61.0182 50.839C61.8058 49.3009 60.7444 47.4628 59.0187 47.3757L58.1234 47.3304C55.8301 47.2152 53.7315 46.0038 52.4849 44.0752L51.9982 43.3223Z" fill="#3C7CFF"/>
<path fill-rule="evenodd" clip-rule="evenodd" d="M31.3989 82.0795L43.3039 65.4128L47.1787 68.1805L35.2738 84.8471L31.3989 82.0795Z" fill="#3C7CFF"/>
<path fill-rule="evenodd" clip-rule="evenodd" d="M68.6011 82.0795L56.6963 65.4128L52.8215 68.1805L64.7263 84.8471L68.6011 82.0795Z" fill="#3C7CFF"/>
</svg>
