<svg width="102" height="108" viewBox="0 0 102 108" fill="none" xmlns="http://www.w3.org/2000/svg">
<mask id="path-1-outside-1_173_703" maskUnits="userSpaceOnUse" x="0" y="0" width="102" height="108" fill="black">
<rect fill="white" width="102" height="108"/>
<path fill-rule="evenodd" clip-rule="evenodd" d="M78.5811 79.4737L80.4338 77.6209L79.3275 76.5135C79.1365 76.3225 79.0153 76.0728 78.9834 75.8045C78.9515 75.5363 79.0108 75.2651 79.1518 75.0346C79.4077 74.6157 79.6302 74.1772 79.8174 73.7233C79.9929 73.2997 80.1371 72.8638 80.2486 72.419C80.2945 72.1356 80.4397 71.8778 80.6583 71.6917C80.8768 71.5055 81.1545 71.4032 81.4416 71.403H83.0072V68.7804H81.4451C81.1747 68.7806 80.9122 68.6899 80.6996 68.5228C80.487 68.3558 80.3369 68.1221 80.2732 67.8593C80.0461 66.9307 79.6815 66.0412 79.1916 65.2203C79.028 64.9877 78.9516 64.7049 78.9758 64.4216C79.0001 64.1382 79.1233 63.8725 79.324 63.6711L80.4314 62.5636L78.5787 60.7109L77.524 61.7656L77.5041 61.7867L77.4748 61.8148L77.4514 61.8359C77.2592 62.018 77.0124 62.1317 76.7491 62.1595C76.4858 62.1872 76.2207 62.1275 75.9948 61.9894C75.5756 61.7336 75.1371 61.5106 74.6834 61.3226C74.2607 61.146 73.8255 61.0007 73.3815 60.8879C73.0981 60.842 72.8403 60.6968 72.6541 60.4782C72.468 60.2596 72.3657 59.982 72.3655 59.6949V58.1305H69.7405V59.6961C69.7405 59.9664 69.6497 60.2289 69.4827 60.4414C69.3157 60.6539 69.0821 60.8041 68.8194 60.868C67.8892 61.0903 66.9982 61.4526 66.1769 61.9426C65.9442 62.1062 65.6613 62.1825 65.3779 62.1581C65.0945 62.1337 64.8288 62.01 64.6277 61.809L63.5202 60.7027L61.6628 62.5601L62.7691 63.6675C62.9601 63.8586 63.0813 64.1083 63.1132 64.3765C63.1451 64.6448 63.0858 64.916 62.9449 65.1464C62.6893 65.5642 62.4664 66.001 62.2781 66.4531C62.1024 66.8785 61.9575 67.3159 61.8445 67.762C61.7988 68.0453 61.6539 68.3031 61.4355 68.4893C61.2171 68.6754 60.9396 68.7778 60.6527 68.778H59.0906V71.3983H60.6562C60.9265 71.3983 61.189 71.4891 61.4015 71.6561C61.614 71.8232 61.7642 72.0568 61.8281 72.3194C62.0529 73.2488 62.4176 74.1386 62.9097 74.9585C63.0734 75.1911 63.1497 75.474 63.1253 75.7574C63.1008 76.0408 62.9772 76.3065 62.7761 76.5077L61.6699 77.6151L63.5226 79.4678L64.63 78.3616C64.8212 78.1704 65.0711 78.0492 65.3396 78.0173C65.608 77.9854 65.8794 78.0448 66.1101 78.1858C66.511 78.4311 66.9298 78.6462 67.3628 78.8291L67.4214 78.8526C67.8454 79.0277 68.2812 79.1726 68.7257 79.2862C69.009 79.3318 69.2668 79.4768 69.4529 79.6952C69.6391 79.9135 69.7414 80.191 69.7417 80.4779V82.0436H72.362V80.485C72.3619 80.2147 72.4527 79.9522 72.6198 79.7397C72.7868 79.5272 73.0204 79.3769 73.2831 79.3131C73.7595 79.1975 74.2262 79.0447 74.6787 78.8561C75.1087 78.6787 75.5251 78.47 75.9244 78.2315C76.1571 78.0678 76.44 77.9915 76.7234 78.0159C77.0068 78.0404 77.2725 78.164 77.4736 78.3651L78.5811 79.4713V79.4737ZM60.0937 79.4631L52.2071 84.0158V57.166L75.4522 43.7458V59.0352C75.2295 58.9461 75.0041 58.8641 74.776 58.7891V57.7344C74.776 57.2015 74.5654 56.6901 74.1901 56.3117L74.183 56.3047C73.8055 55.9257 73.293 55.712 72.7581 55.7106H69.3479C68.8116 55.7115 68.2975 55.9251 67.9183 56.3044C67.5392 56.6838 67.3259 57.198 67.3253 57.7344V58.7891C67.0448 58.8813 66.7714 58.9836 66.505 59.0961C66.2296 59.2133 65.9601 59.3305 65.6987 59.4652L64.9558 58.7223C64.593 58.3595 64.1059 58.1483 63.5932 58.1316C63.0804 58.1148 62.5805 58.2937 62.1949 58.632C62.1596 58.6602 62.126 58.6903 62.0941 58.7223L59.6824 61.1293C59.4954 61.3175 59.3474 61.5408 59.2469 61.7863C59.1463 62.0319 59.0952 62.2948 59.0965 62.5601C59.0966 63.0497 59.2749 63.5225 59.598 63.8902C59.6261 63.9242 59.6554 63.9582 59.6882 63.991L60.4312 64.7339C60.2992 64.9964 60.1757 65.2652 60.0609 65.5402C59.9461 65.8152 59.8441 66.0886 59.755 66.3605H58.7004C58.4355 66.3607 58.1733 66.4132 57.9288 66.515C57.6843 66.6167 57.4622 66.7657 57.2754 66.9535C57.0874 67.1401 56.9381 67.3621 56.8361 67.6067C56.7341 67.8512 56.6815 68.1135 56.6812 68.3784V71.7839C56.6822 72.3202 56.8957 72.8343 57.2751 73.2135C57.6545 73.5926 58.1687 73.8059 58.7051 73.8065H59.7597C59.8519 74.0862 59.9543 74.3596 60.0668 74.6268C60.1839 74.9022 60.3011 75.1717 60.4359 75.4331L59.6929 76.176C59.3141 76.5559 59.1013 77.0704 59.1013 77.6069C59.1013 78.1433 59.3141 78.6579 59.6929 79.0377L60.1043 79.4491L60.0937 79.4631ZM74.3905 66.7484C75.1631 67.5216 75.6438 68.5388 75.7505 69.6266C75.8573 70.7144 75.5836 71.8057 74.9761 72.7144C74.3686 73.623 73.4648 74.293 72.4187 74.61C71.3726 74.9271 70.2489 74.8716 69.2391 74.4531C68.2294 74.0346 67.3959 73.279 66.8808 72.3149C66.3657 71.3508 66.2007 70.2379 66.4141 69.1659C66.6275 68.0938 67.2059 67.1289 68.0509 66.4355C68.896 65.7422 69.9552 65.3632 71.0483 65.3632C71.6695 65.3621 72.2848 65.4838 72.8587 65.7213C73.4327 65.9588 73.9541 66.3075 74.3928 66.7472L74.3905 66.7484ZM71.0483 62.948C72.7023 62.9473 74.3054 63.5201 75.5843 64.5689C76.8633 65.6178 77.7389 67.0776 78.0621 68.6997C78.3852 70.3219 78.1359 72.0059 77.3565 73.4647C76.5772 74.9236 75.316 76.067 73.788 76.7002C72.26 77.3334 70.5597 77.4171 68.9769 76.9371C67.3941 76.4571 66.0267 75.4431 65.1078 74.0678C64.1889 72.6926 63.7753 71.0412 63.9376 69.3952C64.0998 67.7492 64.8278 66.2103 65.9976 65.041C66.66 64.3765 67.4472 63.8495 68.314 63.4903C69.1808 63.1311 70.11 62.9468 71.0483 62.948ZM34.976 45.8294L58.2293 32.4045L50.9989 28.2303L38.8337 35.2533C38.8138 35.2674 38.7939 35.2791 38.7728 35.292L27.7479 41.6564L34.976 45.8294ZM41.4212 49.5536L64.221 35.8662L60.6293 33.7932L37.3806 47.2181L41.4259 49.5536H41.4212ZM66.6046 37.249L43.8106 50.927L50.9989 55.0813L74.2522 41.6552L66.6093 37.2432L66.6046 37.249ZM67.1425 34.7822C67.1775 34.8003 67.2115 34.8203 67.2444 34.842L77.19 40.5841C77.3912 40.6834 77.5605 40.837 77.6788 41.0275C77.797 41.2181 77.8595 41.438 77.8592 41.6623V58.2676C78.087 58.1805 78.3289 58.136 78.5728 58.1363C78.8386 58.1359 79.1018 58.1879 79.3473 58.2894C79.5929 58.391 79.8159 58.5401 80.0037 58.7281L82.4107 61.1351C82.7895 61.514 83.0024 62.0279 83.0024 62.5636C83.0024 63.0994 82.7895 63.6133 82.4107 63.9921L81.6689 64.7339C81.8013 64.9964 81.9244 65.2648 82.0369 65.5367C82.1494 65.8085 82.2513 66.0828 82.3439 66.3663H83.3986C83.9333 66.3678 84.4457 66.581 84.8236 66.9593L84.8318 66.9675C85.207 67.3455 85.4176 67.8564 85.4177 68.389V71.7944C85.4163 72.3294 85.2026 72.8419 84.8236 73.2194L84.8165 73.2264C84.4382 73.6017 83.9268 73.8123 83.3939 73.8124H82.3392C82.247 74.0921 82.1451 74.3655 82.0334 74.6327C81.9162 74.9046 81.799 75.1729 81.6642 75.4354L82.406 76.1772C82.7849 76.557 82.9976 77.0716 82.9976 77.608C82.9976 78.1445 82.7849 78.6591 82.406 79.0389L79.999 81.4459C79.9652 81.4794 79.9296 81.5111 79.8924 81.5408C79.5066 81.8771 79.0076 82.0543 78.4961 82.0367C77.9847 82.0191 77.499 81.8079 77.1373 81.4459L76.3955 80.7041C76.133 80.8365 75.8647 80.9596 75.5928 81.0721C75.3209 81.1846 75.0467 81.2865 74.7631 81.3791V82.4338C74.7617 82.9685 74.5485 83.4809 74.1702 83.8588L74.1619 83.867C73.784 84.2422 73.2731 84.4528 72.7405 84.4529H69.3479C68.813 84.4515 68.3005 84.2378 67.9229 83.8588L67.9159 83.8517C67.5406 83.4734 67.33 82.962 67.33 82.4291V81.3955C67.0464 81.3018 66.7698 81.1994 66.5003 81.0885L66.4382 81.0604C66.1862 80.9537 65.939 80.8401 65.6987 80.7182L64.9558 81.4611C64.576 81.84 64.0614 82.0527 63.5249 82.0527C62.9885 82.0527 62.4739 81.84 62.0941 81.4611L61.8597 81.2268L51.7043 87.0861C51.4999 87.2313 51.2554 87.3093 51.0047 87.3093C50.754 87.3093 50.5095 87.2313 50.3051 87.0861L37.5658 79.735L24.735 72.33C24.5521 72.2242 24.4002 72.0721 24.2947 71.8891C24.1891 71.706 24.1337 71.4983 24.1339 71.287V41.6564C24.134 41.4297 24.1979 41.2076 24.3183 41.0155C24.4387 40.8234 24.6107 40.669 24.8147 40.5701L37.5681 33.2073L37.6349 33.1709L50.4082 25.7999C50.593 25.693 50.8031 25.6375 51.0166 25.6392C51.23 25.6408 51.4392 25.6995 51.6223 25.8093L61.2316 31.3557L61.2597 31.3721L67.1565 34.7705L67.1425 34.7822ZM36.4888 49.4856L40.015 51.5212V56.6844L36.4888 54.6489V49.4856ZM42.4302 52.9157L49.7907 57.166V84.0158L38.7751 77.6537L26.5456 70.5933V43.7458L34.0736 48.0911V55.3391C34.0739 55.5506 34.1298 55.7583 34.2358 55.9414C34.3417 56.1244 34.4939 56.2764 34.6771 56.3821L40.5189 59.7547C40.6997 59.8828 40.9122 59.9587 41.1332 59.9741C41.3543 59.9895 41.5753 59.9438 41.7721 59.8421C41.9689 59.7404 42.134 59.5865 42.2492 59.3972C42.3645 59.208 42.4254 58.9907 42.4255 58.7691V52.9098L42.4302 52.9157ZM50.3754 13.3066C50.4875 13.4187 50.5765 13.5518 50.6371 13.6983C50.6978 13.8448 50.7291 14.0018 50.7291 14.1603C50.7291 14.3189 50.6978 14.4759 50.6371 14.6224C50.5765 14.7688 50.4875 14.9019 50.3754 15.014C50.2633 15.1262 50.1302 15.2151 49.9838 15.2758C49.8373 15.3364 49.6803 15.3677 49.5217 15.3677C49.3632 15.3677 49.2062 15.3364 49.0597 15.2758C48.9132 15.2151 48.7801 15.1262 48.668 15.014L42.6915 9.03754C42.5792 8.92552 42.4901 8.79246 42.4294 8.64597C42.3686 8.49948 42.3373 8.34243 42.3373 8.18383C42.3373 8.02523 42.3686 7.86819 42.4294 7.72169C42.4901 7.5752 42.5792 7.44214 42.6915 7.33013L48.668 1.35362C48.7801 1.24151 48.9132 1.15258 49.0597 1.0919C49.2062 1.03123 49.3632 1 49.5217 1C49.6803 1 49.8373 1.03123 49.9838 1.0919C50.1302 1.15258 50.2633 1.24151 50.3754 1.35362C50.4875 1.46573 50.5765 1.59882 50.6371 1.7453C50.6978 1.89178 50.7291 2.04877 50.7291 2.20732C50.7291 2.36587 50.6978 2.52286 50.6371 2.66934C50.5765 2.81582 50.4875 2.94891 50.3754 3.06102L46.7954 6.64693C47.0731 6.62349 47.3509 6.60357 47.6286 6.58482C48.763 6.5067 49.8864 6.46764 50.9989 6.46764C57.5654 6.46748 64.0678 7.76081 70.1345 10.2738C76.2012 12.7867 81.7135 16.4701 86.3566 21.1135C90.9997 25.757 94.6827 31.2695 97.1952 37.3364C99.7077 43.4033 101.001 49.9057 101 56.4723C101 57.1863 100.982 57.9492 100.945 58.7609C100.911 59.5133 100.859 60.2742 100.789 61.0437C100.753 61.3556 100.596 61.641 100.353 61.839C100.109 62.0371 99.7978 62.1321 99.4851 62.1038C99.1725 62.0755 98.8832 61.9262 98.6791 61.6876C98.475 61.4491 98.3722 61.1402 98.3926 60.8269C98.4574 60.1238 98.5063 59.4004 98.5391 58.6566C98.5696 57.9856 98.5848 57.2574 98.5848 56.4723C98.5851 50.2231 97.3545 44.0351 94.9631 38.2616C92.5718 32.4881 89.0667 27.2421 84.6479 22.8233C80.2291 18.4045 74.9831 14.8993 69.2096 12.508C63.4361 10.1167 57.248 8.88606 50.9989 8.88636C49.8997 8.88636 48.8297 8.92113 47.7891 8.99066C47.2509 9.02582 46.7192 9.06996 46.1942 9.12308L50.3754 13.3031V13.3066ZM13.4207 77.8553C13.4593 77.6999 13.5285 77.5538 13.6242 77.4255C13.7199 77.2971 13.8403 77.1891 13.9781 77.1078C14.116 77.0264 14.2688 76.9733 14.4274 76.9516C14.586 76.9299 14.7474 76.94 14.902 76.9814C15.0567 77.0227 15.2016 77.0944 15.3283 77.1923C15.455 77.2902 15.5609 77.4124 15.6399 77.5516C15.7188 77.6909 15.7693 77.8445 15.7882 78.0035C15.8072 78.1625 15.7943 78.3236 15.7503 78.4776L13.5648 86.6361C13.4821 86.945 13.2801 87.2085 13.0032 87.3684C12.7263 87.5284 12.3972 87.5719 12.0883 87.4892L3.93091 85.3037C3.62182 85.2212 3.35817 85.0192 3.19796 84.7423C3.03775 84.4654 2.9941 84.1362 3.07662 83.8271C3.15914 83.5181 3.36106 83.2544 3.63797 83.0942C3.91487 82.934 4.24408 82.8903 4.55317 82.9728L9.44453 84.2842C5.42399 78.2739 2.75438 71.4633 1.61968 64.3218C0.484981 57.1803 0.91217 49.8777 2.87181 42.9172C4.83145 35.9567 8.27694 29.5038 12.9708 24.0033C17.6647 18.5028 23.4955 14.0854 30.0612 11.0555C30.2048 10.9892 30.3601 10.9518 30.5182 10.9455C30.6763 10.9392 30.8341 10.9641 30.9826 11.0188C31.1311 11.0734 31.2674 11.1568 31.3836 11.2642C31.4999 11.3715 31.5938 11.5007 31.6602 11.6443C31.7265 11.788 31.7639 11.9433 31.7702 12.1014C31.7765 12.2595 31.7516 12.4173 31.6969 12.5658C31.6422 12.7143 31.5588 12.8506 31.4515 12.9668C31.3441 13.0831 31.215 13.177 31.0713 13.2434C24.7583 16.1503 19.1588 20.405 14.6667 25.7082C10.1746 31.0115 6.89885 37.2346 5.06995 43.9397C3.24105 50.6449 2.90337 57.6693 4.08067 64.519C5.25796 71.3686 7.92164 77.8772 11.8844 83.5869L13.4207 77.8553ZM88.3146 78.3241C88.1606 78.368 87.9995 78.3809 87.8405 78.3619C87.6815 78.343 87.5279 78.2925 87.3886 78.2136C87.2493 78.1346 87.1272 78.0287 87.0293 77.902C86.9314 77.7754 86.8597 77.6304 86.8183 77.4758C86.777 77.3211 86.7669 77.1597 86.7886 77.0011C86.8103 76.8425 86.8634 76.6898 86.9448 76.5519C87.0261 76.414 87.1341 76.2937 87.2625 76.1979C87.3908 76.1022 87.5369 76.033 87.6923 75.9944L95.8497 73.8077C96.1587 73.7254 96.4878 73.7691 96.7647 73.9293C97.0415 74.0895 97.2435 74.353 97.3262 74.662L99.5141 82.8228C99.5967 83.1319 99.5532 83.4612 99.3931 83.7382C99.233 84.0152 98.9695 84.2173 98.6604 84.3C98.3513 84.3827 98.022 84.3392 97.745 84.1791C97.468 84.019 97.2659 83.7554 97.1832 83.4463L95.8707 78.5491C92.6808 85.0408 88.1196 90.7628 82.5023 95.3196C76.885 99.8765 70.3455 103.16 63.3355 104.942C56.3254 106.725 49.0119 106.965 41.9001 105.645C34.7883 104.326 28.0478 101.478 22.144 97.2989C21.902 97.1084 21.7423 96.8322 21.6981 96.5273C21.6539 96.2225 21.7285 95.9123 21.9065 95.6609C22.0845 95.4095 22.3522 95.2361 22.6545 95.1765C22.9567 95.1169 23.2702 95.1757 23.5303 95.3407C29.2056 99.3497 35.6896 102.068 42.5271 103.304C49.3647 104.541 56.39 104.266 63.1098 102.498C69.8297 100.73 76.0811 97.5133 81.4253 93.0725C86.7695 88.6318 91.0769 83.075 94.045 76.7924L88.3146 78.3241Z"/>
</mask>
<path fill-rule="evenodd" clip-rule="evenodd" d="M78.5811 79.4737L80.4338 77.6209L79.3275 76.5135C79.1365 76.3225 79.0153 76.0728 78.9834 75.8045C78.9515 75.5363 79.0108 75.2651 79.1518 75.0346C79.4077 74.6157 79.6302 74.1772 79.8174 73.7233C79.9929 73.2997 80.1371 72.8638 80.2486 72.419C80.2945 72.1356 80.4397 71.8778 80.6583 71.6917C80.8768 71.5055 81.1545 71.4032 81.4416 71.403H83.0072V68.7804H81.4451C81.1747 68.7806 80.9122 68.6899 80.6996 68.5228C80.487 68.3558 80.3369 68.1221 80.2732 67.8593C80.0461 66.9307 79.6815 66.0412 79.1916 65.2203C79.028 64.9877 78.9516 64.7049 78.9758 64.4216C79.0001 64.1382 79.1233 63.8725 79.324 63.6711L80.4314 62.5636L78.5787 60.7109L77.524 61.7656L77.5041 61.7867L77.4748 61.8148L77.4514 61.8359C77.2592 62.018 77.0124 62.1317 76.7491 62.1595C76.4858 62.1872 76.2207 62.1275 75.9948 61.9894C75.5756 61.7336 75.1371 61.5106 74.6834 61.3226C74.2607 61.146 73.8255 61.0007 73.3815 60.8879C73.0981 60.842 72.8403 60.6968 72.6541 60.4782C72.468 60.2596 72.3657 59.982 72.3655 59.6949V58.1305H69.7405V59.6961C69.7405 59.9664 69.6497 60.2289 69.4827 60.4414C69.3157 60.6539 69.0821 60.8041 68.8194 60.868C67.8892 61.0903 66.9982 61.4526 66.1769 61.9426C65.9442 62.1062 65.6613 62.1825 65.3779 62.1581C65.0945 62.1337 64.8288 62.01 64.6277 61.809L63.5202 60.7027L61.6628 62.5601L62.7691 63.6675C62.9601 63.8586 63.0813 64.1083 63.1132 64.3765C63.1451 64.6448 63.0858 64.916 62.9449 65.1464C62.6893 65.5642 62.4664 66.001 62.2781 66.4531C62.1024 66.8785 61.9575 67.3159 61.8445 67.762C61.7988 68.0453 61.6539 68.3031 61.4355 68.4893C61.2171 68.6754 60.9396 68.7778 60.6527 68.778H59.0906V71.3983H60.6562C60.9265 71.3983 61.189 71.4891 61.4015 71.6561C61.614 71.8232 61.7642 72.0568 61.8281 72.3194C62.0529 73.2488 62.4176 74.1386 62.9097 74.9585C63.0734 75.1911 63.1497 75.474 63.1253 75.7574C63.1008 76.0408 62.9772 76.3065 62.7761 76.5077L61.6699 77.6151L63.5226 79.4678L64.63 78.3616C64.8212 78.1704 65.0711 78.0492 65.3396 78.0173C65.608 77.9854 65.8794 78.0448 66.1101 78.1858C66.511 78.4311 66.9298 78.6462 67.3628 78.8291L67.4214 78.8526C67.8454 79.0277 68.2812 79.1726 68.7257 79.2862C69.009 79.3318 69.2668 79.4768 69.4529 79.6952C69.6391 79.9135 69.7414 80.191 69.7417 80.4779V82.0436H72.362V80.485C72.3619 80.2147 72.4527 79.9522 72.6198 79.7397C72.7868 79.5272 73.0204 79.3769 73.2831 79.3131C73.7595 79.1975 74.2262 79.0447 74.6787 78.8561C75.1087 78.6787 75.5251 78.47 75.9244 78.2315C76.1571 78.0678 76.44 77.9915 76.7234 78.0159C77.0068 78.0404 77.2725 78.164 77.4736 78.3651L78.5811 79.4713V79.4737ZM60.0937 79.4631L52.2071 84.0158V57.166L75.4522 43.7458V59.0352C75.2295 58.9461 75.0041 58.8641 74.776 58.7891V57.7344C74.776 57.2015 74.5654 56.6901 74.1901 56.3117L74.183 56.3047C73.8055 55.9257 73.293 55.712 72.7581 55.7106H69.3479C68.8116 55.7115 68.2975 55.9251 67.9183 56.3044C67.5392 56.6838 67.3259 57.198 67.3253 57.7344V58.7891C67.0448 58.8813 66.7714 58.9836 66.505 59.0961C66.2296 59.2133 65.9601 59.3305 65.6987 59.4652L64.9558 58.7223C64.593 58.3595 64.1059 58.1483 63.5932 58.1316C63.0804 58.1148 62.5805 58.2937 62.1949 58.632C62.1596 58.6602 62.126 58.6903 62.0941 58.7223L59.6824 61.1293C59.4954 61.3175 59.3474 61.5408 59.2469 61.7863C59.1463 62.0319 59.0952 62.2948 59.0965 62.5601C59.0966 63.0497 59.2749 63.5225 59.598 63.8902C59.6261 63.9242 59.6554 63.9582 59.6882 63.991L60.4312 64.7339C60.2992 64.9964 60.1757 65.2652 60.0609 65.5402C59.9461 65.8152 59.8441 66.0886 59.755 66.3605H58.7004C58.4355 66.3607 58.1733 66.4132 57.9288 66.515C57.6843 66.6167 57.4622 66.7657 57.2754 66.9535C57.0874 67.1401 56.9381 67.3621 56.8361 67.6067C56.7341 67.8512 56.6815 68.1135 56.6812 68.3784V71.7839C56.6822 72.3202 56.8957 72.8343 57.2751 73.2135C57.6545 73.5926 58.1687 73.8059 58.7051 73.8065H59.7597C59.8519 74.0862 59.9543 74.3596 60.0668 74.6268C60.1839 74.9022 60.3011 75.1717 60.4359 75.4331L59.6929 76.176C59.3141 76.5559 59.1013 77.0704 59.1013 77.6069C59.1013 78.1433 59.3141 78.6579 59.6929 79.0377L60.1043 79.4491L60.0937 79.4631ZM74.3905 66.7484C75.1631 67.5216 75.6438 68.5388 75.7505 69.6266C75.8573 70.7144 75.5836 71.8057 74.9761 72.7144C74.3686 73.623 73.4648 74.293 72.4187 74.61C71.3726 74.9271 70.2489 74.8716 69.2391 74.4531C68.2294 74.0346 67.3959 73.279 66.8808 72.3149C66.3657 71.3508 66.2007 70.2379 66.4141 69.1659C66.6275 68.0938 67.2059 67.1289 68.0509 66.4355C68.896 65.7422 69.9552 65.3632 71.0483 65.3632C71.6695 65.3621 72.2848 65.4838 72.8587 65.7213C73.4327 65.9588 73.9541 66.3075 74.3928 66.7472L74.3905 66.7484ZM71.0483 62.948C72.7023 62.9473 74.3054 63.5201 75.5843 64.5689C76.8633 65.6178 77.7389 67.0776 78.0621 68.6997C78.3852 70.3219 78.1359 72.0059 77.3565 73.4647C76.5772 74.9236 75.316 76.067 73.788 76.7002C72.26 77.3334 70.5597 77.4171 68.9769 76.9371C67.3941 76.4571 66.0267 75.4431 65.1078 74.0678C64.1889 72.6926 63.7753 71.0412 63.9376 69.3952C64.0998 67.7492 64.8278 66.2103 65.9976 65.041C66.66 64.3765 67.4472 63.8495 68.314 63.4903C69.1808 63.1311 70.11 62.9468 71.0483 62.948ZM34.976 45.8294L58.2293 32.4045L50.9989 28.2303L38.8337 35.2533C38.8138 35.2674 38.7939 35.2791 38.7728 35.292L27.7479 41.6564L34.976 45.8294ZM41.4212 49.5536L64.221 35.8662L60.6293 33.7932L37.3806 47.2181L41.4259 49.5536H41.4212ZM66.6046 37.249L43.8106 50.927L50.9989 55.0813L74.2522 41.6552L66.6093 37.2432L66.6046 37.249ZM67.1425 34.7822C67.1775 34.8003 67.2115 34.8203 67.2444 34.842L77.19 40.5841C77.3912 40.6834 77.5605 40.837 77.6788 41.0275C77.797 41.2181 77.8595 41.438 77.8592 41.6623V58.2676C78.087 58.1805 78.3289 58.136 78.5728 58.1363C78.8386 58.1359 79.1018 58.1879 79.3473 58.2894C79.5929 58.391 79.8159 58.5401 80.0037 58.7281L82.4107 61.1351C82.7895 61.514 83.0024 62.0279 83.0024 62.5636C83.0024 63.0994 82.7895 63.6133 82.4107 63.9921L81.6689 64.7339C81.8013 64.9964 81.9244 65.2648 82.0369 65.5367C82.1494 65.8085 82.2513 66.0828 82.3439 66.3663H83.3986C83.9333 66.3678 84.4457 66.581 84.8236 66.9593L84.8318 66.9675C85.207 67.3455 85.4176 67.8564 85.4177 68.389V71.7944C85.4163 72.3294 85.2026 72.8419 84.8236 73.2194L84.8165 73.2264C84.4382 73.6017 83.9268 73.8123 83.3939 73.8124H82.3392C82.247 74.0921 82.1451 74.3655 82.0334 74.6327C81.9162 74.9046 81.799 75.1729 81.6642 75.4354L82.406 76.1772C82.7849 76.557 82.9976 77.0716 82.9976 77.608C82.9976 78.1445 82.7849 78.6591 82.406 79.0389L79.999 81.4459C79.9652 81.4794 79.9296 81.5111 79.8924 81.5408C79.5066 81.8771 79.0076 82.0543 78.4961 82.0367C77.9847 82.0191 77.499 81.8079 77.1373 81.4459L76.3955 80.7041C76.133 80.8365 75.8647 80.9596 75.5928 81.0721C75.3209 81.1846 75.0467 81.2865 74.7631 81.3791V82.4338C74.7617 82.9685 74.5485 83.4809 74.1702 83.8588L74.1619 83.867C73.784 84.2422 73.2731 84.4528 72.7405 84.4529H69.3479C68.813 84.4515 68.3005 84.2378 67.9229 83.8588L67.9159 83.8517C67.5406 83.4734 67.33 82.962 67.33 82.4291V81.3955C67.0464 81.3018 66.7698 81.1994 66.5003 81.0885L66.4382 81.0604C66.1862 80.9537 65.939 80.8401 65.6987 80.7182L64.9558 81.4611C64.576 81.84 64.0614 82.0527 63.5249 82.0527C62.9885 82.0527 62.4739 81.84 62.0941 81.4611L61.8597 81.2268L51.7043 87.0861C51.4999 87.2313 51.2554 87.3093 51.0047 87.3093C50.754 87.3093 50.5095 87.2313 50.3051 87.0861L37.5658 79.735L24.735 72.33C24.5521 72.2242 24.4002 72.0721 24.2947 71.8891C24.1891 71.706 24.1337 71.4983 24.1339 71.287V41.6564C24.134 41.4297 24.1979 41.2076 24.3183 41.0155C24.4387 40.8234 24.6107 40.669 24.8147 40.5701L37.5681 33.2073L37.6349 33.1709L50.4082 25.7999C50.593 25.693 50.8031 25.6375 51.0166 25.6392C51.23 25.6408 51.4392 25.6995 51.6223 25.8093L61.2316 31.3557L61.2597 31.3721L67.1565 34.7705L67.1425 34.7822ZM36.4888 49.4856L40.015 51.5212V56.6844L36.4888 54.6489V49.4856ZM42.4302 52.9157L49.7907 57.166V84.0158L38.7751 77.6537L26.5456 70.5933V43.7458L34.0736 48.0911V55.3391C34.0739 55.5506 34.1298 55.7583 34.2358 55.9414C34.3417 56.1244 34.4939 56.2764 34.6771 56.3821L40.5189 59.7547C40.6997 59.8828 40.9122 59.9587 41.1332 59.9741C41.3543 59.9895 41.5753 59.9438 41.7721 59.8421C41.9689 59.7404 42.134 59.5865 42.2492 59.3972C42.3645 59.208 42.4254 58.9907 42.4255 58.7691V52.9098L42.4302 52.9157ZM50.3754 13.3066C50.4875 13.4187 50.5765 13.5518 50.6371 13.6983C50.6978 13.8448 50.7291 14.0018 50.7291 14.1603C50.7291 14.3189 50.6978 14.4759 50.6371 14.6224C50.5765 14.7688 50.4875 14.9019 50.3754 15.014C50.2633 15.1262 50.1302 15.2151 49.9838 15.2758C49.8373 15.3364 49.6803 15.3677 49.5217 15.3677C49.3632 15.3677 49.2062 15.3364 49.0597 15.2758C48.9132 15.2151 48.7801 15.1262 48.668 15.014L42.6915 9.03754C42.5792 8.92552 42.4901 8.79246 42.4294 8.64597C42.3686 8.49948 42.3373 8.34243 42.3373 8.18383C42.3373 8.02523 42.3686 7.86819 42.4294 7.72169C42.4901 7.5752 42.5792 7.44214 42.6915 7.33013L48.668 1.35362C48.7801 1.24151 48.9132 1.15258 49.0597 1.0919C49.2062 1.03123 49.3632 1 49.5217 1C49.6803 1 49.8373 1.03123 49.9838 1.0919C50.1302 1.15258 50.2633 1.24151 50.3754 1.35362C50.4875 1.46573 50.5765 1.59882 50.6371 1.7453C50.6978 1.89178 50.7291 2.04877 50.7291 2.20732C50.7291 2.36587 50.6978 2.52286 50.6371 2.66934C50.5765 2.81582 50.4875 2.94891 50.3754 3.06102L46.7954 6.64693C47.0731 6.62349 47.3509 6.60357 47.6286 6.58482C48.763 6.5067 49.8864 6.46764 50.9989 6.46764C57.5654 6.46748 64.0678 7.76081 70.1345 10.2738C76.2012 12.7867 81.7135 16.4701 86.3566 21.1135C90.9997 25.757 94.6827 31.2695 97.1952 37.3364C99.7077 43.4033 101.001 49.9057 101 56.4723C101 57.1863 100.982 57.9492 100.945 58.7609C100.911 59.5133 100.859 60.2742 100.789 61.0437C100.753 61.3556 100.596 61.641 100.353 61.839C100.109 62.0371 99.7978 62.1321 99.4851 62.1038C99.1725 62.0755 98.8832 61.9262 98.6791 61.6876C98.475 61.4491 98.3722 61.1402 98.3926 60.8269C98.4574 60.1238 98.5063 59.4004 98.5391 58.6566C98.5696 57.9856 98.5848 57.2574 98.5848 56.4723C98.5851 50.2231 97.3545 44.0351 94.9631 38.2616C92.5718 32.4881 89.0667 27.2421 84.6479 22.8233C80.2291 18.4045 74.9831 14.8993 69.2096 12.508C63.4361 10.1167 57.248 8.88606 50.9989 8.88636C49.8997 8.88636 48.8297 8.92113 47.7891 8.99066C47.2509 9.02582 46.7192 9.06996 46.1942 9.12308L50.3754 13.3031V13.3066ZM13.4207 77.8553C13.4593 77.6999 13.5285 77.5538 13.6242 77.4255C13.7199 77.2971 13.8403 77.1891 13.9781 77.1078C14.116 77.0264 14.2688 76.9733 14.4274 76.9516C14.586 76.9299 14.7474 76.94 14.902 76.9814C15.0567 77.0227 15.2016 77.0944 15.3283 77.1923C15.455 77.2902 15.5609 77.4124 15.6399 77.5516C15.7188 77.6909 15.7693 77.8445 15.7882 78.0035C15.8072 78.1625 15.7943 78.3236 15.7503 78.4776L13.5648 86.6361C13.4821 86.945 13.2801 87.2085 13.0032 87.3684C12.7263 87.5284 12.3972 87.5719 12.0883 87.4892L3.93091 85.3037C3.62182 85.2212 3.35817 85.0192 3.19796 84.7423C3.03775 84.4654 2.9941 84.1362 3.07662 83.8271C3.15914 83.5181 3.36106 83.2544 3.63797 83.0942C3.91487 82.934 4.24408 82.8903 4.55317 82.9728L9.44453 84.2842C5.42399 78.2739 2.75438 71.4633 1.61968 64.3218C0.484981 57.1803 0.91217 49.8777 2.87181 42.9172C4.83145 35.9567 8.27694 29.5038 12.9708 24.0033C17.6647 18.5028 23.4955 14.0854 30.0612 11.0555C30.2048 10.9892 30.3601 10.9518 30.5182 10.9455C30.6763 10.9392 30.8341 10.9641 30.9826 11.0188C31.1311 11.0734 31.2674 11.1568 31.3836 11.2642C31.4999 11.3715 31.5938 11.5007 31.6602 11.6443C31.7265 11.788 31.7639 11.9433 31.7702 12.1014C31.7765 12.2595 31.7516 12.4173 31.6969 12.5658C31.6422 12.7143 31.5588 12.8506 31.4515 12.9668C31.3441 13.0831 31.215 13.177 31.0713 13.2434C24.7583 16.1503 19.1588 20.405 14.6667 25.7082C10.1746 31.0115 6.89885 37.2346 5.06995 43.9397C3.24105 50.6449 2.90337 57.6693 4.08067 64.519C5.25796 71.3686 7.92164 77.8772 11.8844 83.5869L13.4207 77.8553ZM88.3146 78.3241C88.1606 78.368 87.9995 78.3809 87.8405 78.3619C87.6815 78.343 87.5279 78.2925 87.3886 78.2136C87.2493 78.1346 87.1272 78.0287 87.0293 77.902C86.9314 77.7754 86.8597 77.6304 86.8183 77.4758C86.777 77.3211 86.7669 77.1597 86.7886 77.0011C86.8103 76.8425 86.8634 76.6898 86.9448 76.5519C87.0261 76.414 87.1341 76.2937 87.2625 76.1979C87.3908 76.1022 87.5369 76.033 87.6923 75.9944L95.8497 73.8077C96.1587 73.7254 96.4878 73.7691 96.7647 73.9293C97.0415 74.0895 97.2435 74.353 97.3262 74.662L99.5141 82.8228C99.5967 83.1319 99.5532 83.4612 99.3931 83.7382C99.233 84.0152 98.9695 84.2173 98.6604 84.3C98.3513 84.3827 98.022 84.3392 97.745 84.1791C97.468 84.019 97.2659 83.7554 97.1832 83.4463L95.8707 78.5491C92.6808 85.0408 88.1196 90.7628 82.5023 95.3196C76.885 99.8765 70.3455 103.16 63.3355 104.942C56.3254 106.725 49.0119 106.965 41.9001 105.645C34.7883 104.326 28.0478 101.478 22.144 97.2989C21.902 97.1084 21.7423 96.8322 21.6981 96.5273C21.6539 96.2225 21.7285 95.9123 21.9065 95.6609C22.0845 95.4095 22.3522 95.2361 22.6545 95.1765C22.9567 95.1169 23.2702 95.1757 23.5303 95.3407C29.2056 99.3497 35.6896 102.068 42.5271 103.304C49.3647 104.541 56.39 104.266 63.1098 102.498C69.8297 100.73 76.0811 97.5133 81.4253 93.0725C86.7695 88.6318 91.0769 83.075 94.045 76.7924L88.3146 78.3241Z" fill="#3C7CFF"/>
<path fill-rule="evenodd" clip-rule="evenodd" d="M78.5811 79.4737L80.4338 77.6209L79.3275 76.5135C79.1365 76.3225 79.0153 76.0728 78.9834 75.8045C78.9515 75.5363 79.0108 75.2651 79.1518 75.0346C79.4077 74.6157 79.6302 74.1772 79.8174 73.7233C79.9929 73.2997 80.1371 72.8638 80.2486 72.419C80.2945 72.1356 80.4397 71.8778 80.6583 71.6917C80.8768 71.5055 81.1545 71.4032 81.4416 71.403H83.0072V68.7804H81.4451C81.1747 68.7806 80.9122 68.6899 80.6996 68.5228C80.487 68.3558 80.3369 68.1221 80.2732 67.8593C80.0461 66.9307 79.6815 66.0412 79.1916 65.2203C79.028 64.9877 78.9516 64.7049 78.9758 64.4216C79.0001 64.1382 79.1233 63.8725 79.324 63.6711L80.4314 62.5636L78.5787 60.7109L77.524 61.7656L77.5041 61.7867L77.4748 61.8148L77.4514 61.8359C77.2592 62.018 77.0124 62.1317 76.7491 62.1595C76.4858 62.1872 76.2207 62.1275 75.9948 61.9894C75.5756 61.7336 75.1371 61.5106 74.6834 61.3226C74.2607 61.146 73.8255 61.0007 73.3815 60.8879C73.0981 60.842 72.8403 60.6968 72.6541 60.4782C72.468 60.2596 72.3657 59.982 72.3655 59.6949V58.1305H69.7405V59.6961C69.7405 59.9664 69.6497 60.2289 69.4827 60.4414C69.3157 60.6539 69.0821 60.8041 68.8194 60.868C67.8892 61.0903 66.9982 61.4526 66.1769 61.9426C65.9442 62.1062 65.6613 62.1825 65.3779 62.1581C65.0945 62.1337 64.8288 62.01 64.6277 61.809L63.5202 60.7027L61.6628 62.5601L62.7691 63.6675C62.9601 63.8586 63.0813 64.1083 63.1132 64.3765C63.1451 64.6448 63.0858 64.916 62.9449 65.1464C62.6893 65.5642 62.4664 66.001 62.2781 66.4531C62.1024 66.8785 61.9575 67.3159 61.8445 67.762C61.7988 68.0453 61.6539 68.3031 61.4355 68.4893C61.2171 68.6754 60.9396 68.7778 60.6527 68.778H59.0906V71.3983H60.6562C60.9265 71.3983 61.189 71.4891 61.4015 71.6561C61.614 71.8232 61.7642 72.0568 61.8281 72.3194C62.0529 73.2488 62.4176 74.1386 62.9097 74.9585C63.0734 75.1911 63.1497 75.474 63.1253 75.7574C63.1008 76.0408 62.9772 76.3065 62.7761 76.5077L61.6699 77.6151L63.5226 79.4678L64.63 78.3616C64.8212 78.1704 65.0711 78.0492 65.3396 78.0173C65.608 77.9854 65.8794 78.0448 66.1101 78.1858C66.511 78.4311 66.9298 78.6462 67.3628 78.8291L67.4214 78.8526C67.8454 79.0277 68.2812 79.1726 68.7257 79.2862C69.009 79.3318 69.2668 79.4768 69.4529 79.6952C69.6391 79.9135 69.7414 80.191 69.7417 80.4779V82.0436H72.362V80.485C72.3619 80.2147 72.4527 79.9522 72.6198 79.7397C72.7868 79.5272 73.0204 79.3769 73.2831 79.3131C73.7595 79.1975 74.2262 79.0447 74.6787 78.8561C75.1087 78.6787 75.5251 78.47 75.9244 78.2315C76.1571 78.0678 76.44 77.9915 76.7234 78.0159C77.0068 78.0404 77.2725 78.164 77.4736 78.3651L78.5811 79.4713V79.4737ZM60.0937 79.4631L52.2071 84.0158V57.166L75.4522 43.7458V59.0352C75.2295 58.9461 75.0041 58.8641 74.776 58.7891V57.7344C74.776 57.2015 74.5654 56.6901 74.1901 56.3117L74.183 56.3047C73.8055 55.9257 73.293 55.712 72.7581 55.7106H69.3479C68.8116 55.7115 68.2975 55.9251 67.9183 56.3044C67.5392 56.6838 67.3259 57.198 67.3253 57.7344V58.7891C67.0448 58.8813 66.7714 58.9836 66.505 59.0961C66.2296 59.2133 65.9601 59.3305 65.6987 59.4652L64.9558 58.7223C64.593 58.3595 64.1059 58.1483 63.5932 58.1316C63.0804 58.1148 62.5805 58.2937 62.1949 58.632C62.1596 58.6602 62.126 58.6903 62.0941 58.7223L59.6824 61.1293C59.4954 61.3175 59.3474 61.5408 59.2469 61.7863C59.1463 62.0319 59.0952 62.2948 59.0965 62.5601C59.0966 63.0497 59.2749 63.5225 59.598 63.8902C59.6261 63.9242 59.6554 63.9582 59.6882 63.991L60.4312 64.7339C60.2992 64.9964 60.1757 65.2652 60.0609 65.5402C59.9461 65.8152 59.8441 66.0886 59.755 66.3605H58.7004C58.4355 66.3607 58.1733 66.4132 57.9288 66.515C57.6843 66.6167 57.4622 66.7657 57.2754 66.9535C57.0874 67.1401 56.9381 67.3621 56.8361 67.6067C56.7341 67.8512 56.6815 68.1135 56.6812 68.3784V71.7839C56.6822 72.3202 56.8957 72.8343 57.2751 73.2135C57.6545 73.5926 58.1687 73.8059 58.7051 73.8065H59.7597C59.8519 74.0862 59.9543 74.3596 60.0668 74.6268C60.1839 74.9022 60.3011 75.1717 60.4359 75.4331L59.6929 76.176C59.3141 76.5559 59.1013 77.0704 59.1013 77.6069C59.1013 78.1433 59.3141 78.6579 59.6929 79.0377L60.1043 79.4491L60.0937 79.4631ZM74.3905 66.7484C75.1631 67.5216 75.6438 68.5388 75.7505 69.6266C75.8573 70.7144 75.5836 71.8057 74.9761 72.7144C74.3686 73.623 73.4648 74.293 72.4187 74.61C71.3726 74.9271 70.2489 74.8716 69.2391 74.4531C68.2294 74.0346 67.3959 73.279 66.8808 72.3149C66.3657 71.3508 66.2007 70.2379 66.4141 69.1659C66.6275 68.0938 67.2059 67.1289 68.0509 66.4355C68.896 65.7422 69.9552 65.3632 71.0483 65.3632C71.6695 65.3621 72.2848 65.4838 72.8587 65.7213C73.4327 65.9588 73.9541 66.3075 74.3928 66.7472L74.3905 66.7484ZM71.0483 62.948C72.7023 62.9473 74.3054 63.5201 75.5843 64.5689C76.8633 65.6178 77.7389 67.0776 78.0621 68.6997C78.3852 70.3219 78.1359 72.0059 77.3565 73.4647C76.5772 74.9236 75.316 76.067 73.788 76.7002C72.26 77.3334 70.5597 77.4171 68.9769 76.9371C67.3941 76.4571 66.0267 75.4431 65.1078 74.0678C64.1889 72.6926 63.7753 71.0412 63.9376 69.3952C64.0998 67.7492 64.8278 66.2103 65.9976 65.041C66.66 64.3765 67.4472 63.8495 68.314 63.4903C69.1808 63.1311 70.11 62.9468 71.0483 62.948ZM34.976 45.8294L58.2293 32.4045L50.9989 28.2303L38.8337 35.2533C38.8138 35.2674 38.7939 35.2791 38.7728 35.292L27.7479 41.6564L34.976 45.8294ZM41.4212 49.5536L64.221 35.8662L60.6293 33.7932L37.3806 47.2181L41.4259 49.5536H41.4212ZM66.6046 37.249L43.8106 50.927L50.9989 55.0813L74.2522 41.6552L66.6093 37.2432L66.6046 37.249ZM67.1425 34.7822C67.1775 34.8003 67.2115 34.8203 67.2444 34.842L77.19 40.5841C77.3912 40.6834 77.5605 40.837 77.6788 41.0275C77.797 41.2181 77.8595 41.438 77.8592 41.6623V58.2676C78.087 58.1805 78.3289 58.136 78.5728 58.1363C78.8386 58.1359 79.1018 58.1879 79.3473 58.2894C79.5929 58.391 79.8159 58.5401 80.0037 58.7281L82.4107 61.1351C82.7895 61.514 83.0024 62.0279 83.0024 62.5636C83.0024 63.0994 82.7895 63.6133 82.4107 63.9921L81.6689 64.7339C81.8013 64.9964 81.9244 65.2648 82.0369 65.5367C82.1494 65.8085 82.2513 66.0828 82.3439 66.3663H83.3986C83.9333 66.3678 84.4457 66.581 84.8236 66.9593L84.8318 66.9675C85.207 67.3455 85.4176 67.8564 85.4177 68.389V71.7944C85.4163 72.3294 85.2026 72.8419 84.8236 73.2194L84.8165 73.2264C84.4382 73.6017 83.9268 73.8123 83.3939 73.8124H82.3392C82.247 74.0921 82.1451 74.3655 82.0334 74.6327C81.9162 74.9046 81.799 75.1729 81.6642 75.4354L82.406 76.1772C82.7849 76.557 82.9976 77.0716 82.9976 77.608C82.9976 78.1445 82.7849 78.6591 82.406 79.0389L79.999 81.4459C79.9652 81.4794 79.9296 81.5111 79.8924 81.5408C79.5066 81.8771 79.0076 82.0543 78.4961 82.0367C77.9847 82.0191 77.499 81.8079 77.1373 81.4459L76.3955 80.7041C76.133 80.8365 75.8647 80.9596 75.5928 81.0721C75.3209 81.1846 75.0467 81.2865 74.7631 81.3791V82.4338C74.7617 82.9685 74.5485 83.4809 74.1702 83.8588L74.1619 83.867C73.784 84.2422 73.2731 84.4528 72.7405 84.4529H69.3479C68.813 84.4515 68.3005 84.2378 67.9229 83.8588L67.9159 83.8517C67.5406 83.4734 67.33 82.962 67.33 82.4291V81.3955C67.0464 81.3018 66.7698 81.1994 66.5003 81.0885L66.4382 81.0604C66.1862 80.9537 65.939 80.8401 65.6987 80.7182L64.9558 81.4611C64.576 81.84 64.0614 82.0527 63.5249 82.0527C62.9885 82.0527 62.4739 81.84 62.0941 81.4611L61.8597 81.2268L51.7043 87.0861C51.4999 87.2313 51.2554 87.3093 51.0047 87.3093C50.754 87.3093 50.5095 87.2313 50.3051 87.0861L37.5658 79.735L24.735 72.33C24.5521 72.2242 24.4002 72.0721 24.2947 71.8891C24.1891 71.706 24.1337 71.4983 24.1339 71.287V41.6564C24.134 41.4297 24.1979 41.2076 24.3183 41.0155C24.4387 40.8234 24.6107 40.669 24.8147 40.5701L37.5681 33.2073L37.6349 33.1709L50.4082 25.7999C50.593 25.693 50.8031 25.6375 51.0166 25.6392C51.23 25.6408 51.4392 25.6995 51.6223 25.8093L61.2316 31.3557L61.2597 31.3721L67.1565 34.7705L67.1425 34.7822ZM36.4888 49.4856L40.015 51.5212V56.6844L36.4888 54.6489V49.4856ZM42.4302 52.9157L49.7907 57.166V84.0158L38.7751 77.6537L26.5456 70.5933V43.7458L34.0736 48.0911V55.3391C34.0739 55.5506 34.1298 55.7583 34.2358 55.9414C34.3417 56.1244 34.4939 56.2764 34.6771 56.3821L40.5189 59.7547C40.6997 59.8828 40.9122 59.9587 41.1332 59.9741C41.3543 59.9895 41.5753 59.9438 41.7721 59.8421C41.9689 59.7404 42.134 59.5865 42.2492 59.3972C42.3645 59.208 42.4254 58.9907 42.4255 58.7691V52.9098L42.4302 52.9157ZM50.3754 13.3066C50.4875 13.4187 50.5765 13.5518 50.6371 13.6983C50.6978 13.8448 50.7291 14.0018 50.7291 14.1603C50.7291 14.3189 50.6978 14.4759 50.6371 14.6224C50.5765 14.7688 50.4875 14.9019 50.3754 15.014C50.2633 15.1262 50.1302 15.2151 49.9838 15.2758C49.8373 15.3364 49.6803 15.3677 49.5217 15.3677C49.3632 15.3677 49.2062 15.3364 49.0597 15.2758C48.9132 15.2151 48.7801 15.1262 48.668 15.014L42.6915 9.03754C42.5792 8.92552 42.4901 8.79246 42.4294 8.64597C42.3686 8.49948 42.3373 8.34243 42.3373 8.18383C42.3373 8.02523 42.3686 7.86819 42.4294 7.72169C42.4901 7.5752 42.5792 7.44214 42.6915 7.33013L48.668 1.35362C48.7801 1.24151 48.9132 1.15258 49.0597 1.0919C49.2062 1.03123 49.3632 1 49.5217 1C49.6803 1 49.8373 1.03123 49.9838 1.0919C50.1302 1.15258 50.2633 1.24151 50.3754 1.35362C50.4875 1.46573 50.5765 1.59882 50.6371 1.7453C50.6978 1.89178 50.7291 2.04877 50.7291 2.20732C50.7291 2.36587 50.6978 2.52286 50.6371 2.66934C50.5765 2.81582 50.4875 2.94891 50.3754 3.06102L46.7954 6.64693C47.0731 6.62349 47.3509 6.60357 47.6286 6.58482C48.763 6.5067 49.8864 6.46764 50.9989 6.46764C57.5654 6.46748 64.0678 7.76081 70.1345 10.2738C76.2012 12.7867 81.7135 16.4701 86.3566 21.1135C90.9997 25.757 94.6827 31.2695 97.1952 37.3364C99.7077 43.4033 101.001 49.9057 101 56.4723C101 57.1863 100.982 57.9492 100.945 58.7609C100.911 59.5133 100.859 60.2742 100.789 61.0437C100.753 61.3556 100.596 61.641 100.353 61.839C100.109 62.0371 99.7978 62.1321 99.4851 62.1038C99.1725 62.0755 98.8832 61.9262 98.6791 61.6876C98.475 61.4491 98.3722 61.1402 98.3926 60.8269C98.4574 60.1238 98.5063 59.4004 98.5391 58.6566C98.5696 57.9856 98.5848 57.2574 98.5848 56.4723C98.5851 50.2231 97.3545 44.0351 94.9631 38.2616C92.5718 32.4881 89.0667 27.2421 84.6479 22.8233C80.2291 18.4045 74.9831 14.8993 69.2096 12.508C63.4361 10.1167 57.248 8.88606 50.9989 8.88636C49.8997 8.88636 48.8297 8.92113 47.7891 8.99066C47.2509 9.02582 46.7192 9.06996 46.1942 9.12308L50.3754 13.3031V13.3066ZM13.4207 77.8553C13.4593 77.6999 13.5285 77.5538 13.6242 77.4255C13.7199 77.2971 13.8403 77.1891 13.9781 77.1078C14.116 77.0264 14.2688 76.9733 14.4274 76.9516C14.586 76.9299 14.7474 76.94 14.902 76.9814C15.0567 77.0227 15.2016 77.0944 15.3283 77.1923C15.455 77.2902 15.5609 77.4124 15.6399 77.5516C15.7188 77.6909 15.7693 77.8445 15.7882 78.0035C15.8072 78.1625 15.7943 78.3236 15.7503 78.4776L13.5648 86.6361C13.4821 86.945 13.2801 87.2085 13.0032 87.3684C12.7263 87.5284 12.3972 87.5719 12.0883 87.4892L3.93091 85.3037C3.62182 85.2212 3.35817 85.0192 3.19796 84.7423C3.03775 84.4654 2.9941 84.1362 3.07662 83.8271C3.15914 83.5181 3.36106 83.2544 3.63797 83.0942C3.91487 82.934 4.24408 82.8903 4.55317 82.9728L9.44453 84.2842C5.42399 78.2739 2.75438 71.4633 1.61968 64.3218C0.484981 57.1803 0.91217 49.8777 2.87181 42.9172C4.83145 35.9567 8.27694 29.5038 12.9708 24.0033C17.6647 18.5028 23.4955 14.0854 30.0612 11.0555C30.2048 10.9892 30.3601 10.9518 30.5182 10.9455C30.6763 10.9392 30.8341 10.9641 30.9826 11.0188C31.1311 11.0734 31.2674 11.1568 31.3836 11.2642C31.4999 11.3715 31.5938 11.5007 31.6602 11.6443C31.7265 11.788 31.7639 11.9433 31.7702 12.1014C31.7765 12.2595 31.7516 12.4173 31.6969 12.5658C31.6422 12.7143 31.5588 12.8506 31.4515 12.9668C31.3441 13.0831 31.215 13.177 31.0713 13.2434C24.7583 16.1503 19.1588 20.405 14.6667 25.7082C10.1746 31.0115 6.89885 37.2346 5.06995 43.9397C3.24105 50.6449 2.90337 57.6693 4.08067 64.519C5.25796 71.3686 7.92164 77.8772 11.8844 83.5869L13.4207 77.8553ZM88.3146 78.3241C88.1606 78.368 87.9995 78.3809 87.8405 78.3619C87.6815 78.343 87.5279 78.2925 87.3886 78.2136C87.2493 78.1346 87.1272 78.0287 87.0293 77.902C86.9314 77.7754 86.8597 77.6304 86.8183 77.4758C86.777 77.3211 86.7669 77.1597 86.7886 77.0011C86.8103 76.8425 86.8634 76.6898 86.9448 76.5519C87.0261 76.414 87.1341 76.2937 87.2625 76.1979C87.3908 76.1022 87.5369 76.033 87.6923 75.9944L95.8497 73.8077C96.1587 73.7254 96.4878 73.7691 96.7647 73.9293C97.0415 74.0895 97.2435 74.353 97.3262 74.662L99.5141 82.8228C99.5967 83.1319 99.5532 83.4612 99.3931 83.7382C99.233 84.0152 98.9695 84.2173 98.6604 84.3C98.3513 84.3827 98.022 84.3392 97.745 84.1791C97.468 84.019 97.2659 83.7554 97.1832 83.4463L95.8707 78.5491C92.6808 85.0408 88.1196 90.7628 82.5023 95.3196C76.885 99.8765 70.3455 103.16 63.3355 104.942C56.3254 106.725 49.0119 106.965 41.9001 105.645C34.7883 104.326 28.0478 101.478 22.144 97.2989C21.902 97.1084 21.7423 96.8322 21.6981 96.5273C21.6539 96.2225 21.7285 95.9123 21.9065 95.6609C22.0845 95.4095 22.3522 95.2361 22.6545 95.1765C22.9567 95.1169 23.2702 95.1757 23.5303 95.3407C29.2056 99.3497 35.6896 102.068 42.5271 103.304C49.3647 104.541 56.39 104.266 63.1098 102.498C69.8297 100.73 76.0811 97.5133 81.4253 93.0725C86.7695 88.6318 91.0769 83.075 94.045 76.7924L88.3146 78.3241Z" stroke="#3C7CFF" stroke-width="1.2" mask="url(#path-1-outside-1_173_703)"/>
</svg>
