<svg width="101" height="102" viewBox="0 0 101 102" fill="none" xmlns="http://www.w3.org/2000/svg">
<mask id="path-1-outside-1_120_83" maskUnits="userSpaceOnUse" x="0" y="0" width="102" height="102" fill="black">
<rect fill="white" width="102" height="102"/>
<path fill-rule="evenodd" clip-rule="evenodd" d="M39.8105 7.85908V2.02281C39.8105 1.45923 40.2655 1 40.8333 1C41.042 1 41.2424 1.06262 41.4052 1.17534L51.3119 6.89479C61.1226 6.99916 70.1655 10.3097 77.4372 15.833C84.7471 21.3854 90.2706 29.1676 92.9884 38.1674H99.4884V38.1716C99.6596 38.1716 99.8349 38.2133 99.9936 38.3094C100.482 38.5891 100.649 39.2111 100.369 39.6954L94.8294 49.289C94.8377 49.4978 94.8419 49.719 94.8503 49.9487C94.8586 50.3703 94.867 50.6959 94.867 50.9089C94.867 61.2038 91.3309 70.6719 85.4028 78.1745C79.5164 85.6223 71.2794 91.1244 61.8072 93.5504L61.803 99.9837H61.7988C61.7988 100.155 61.7571 100.33 61.6611 100.489C61.3814 100.977 60.7593 101.144 60.275 100.865L50.3016 95.1076L49.9676 94.9155C39.5724 94.711 30.0666 90.9119 22.6357 84.7041C15.2297 78.517 9.88995 69.9384 7.79844 60.152L2.01636 60.1561V60.152C1.84519 60.152 1.66985 60.1102 1.51121 60.0184C1.02276 59.7387 0.855771 59.1166 1.13548 58.6323L6.86327 48.7089C6.86744 48.6964 6.87579 48.688 6.87997 48.6755C7.36841 38.9024 11.0422 29.9683 16.8869 22.8965C22.7106 15.8453 30.6885 10.6434 39.8145 8.28899V7.85899L39.8105 7.85908ZM31.7407 58.3238C31.1771 58.3238 30.722 58.7788 30.722 59.3424V70.4477C30.722 71.0113 31.1771 71.4663 31.7407 71.4663H38.078C38.6415 71.4663 39.1008 71.0113 39.1008 70.4477V59.3424C39.1008 58.7788 38.6457 58.3238 38.078 58.3238H31.7407ZM37.0552 60.3653H32.7594V69.4287H37.0552V60.3653ZM42.2986 53.4978C41.735 53.4978 41.2758 53.957 41.2758 54.5206V70.4469C41.2758 71.0105 41.7308 71.4656 42.2986 71.4656H48.6359C49.1995 71.4656 49.6587 71.0105 49.6587 70.4469L49.6545 54.5206C49.6545 53.957 49.1995 53.4978 48.6317 53.4978H42.2986ZM47.6173 55.5393H43.3215V69.4243H47.6173V55.5393ZM52.8607 48.0665C52.2971 48.0665 51.8379 48.5215 51.8379 49.0851V70.447C51.8379 71.0106 52.293 71.4657 52.8607 71.4657H59.198C59.7616 71.4657 60.2208 71.0106 60.2208 70.447L60.2167 49.0851C60.2167 48.5215 59.7574 48.0665 59.1938 48.0665H52.8607ZM58.1752 50.108H53.8794V69.4286H58.1752V50.108ZM63.4187 40.6814C62.8551 40.6814 62.4 41.1406 62.4 41.7042V70.4511C62.4 71.0147 62.8551 71.4697 63.4187 71.4697H69.756C70.3195 71.4697 70.7788 71.0147 70.7788 70.4511V41.6999C70.7788 41.1363 70.3195 40.6771 69.756 40.6771L63.4187 40.6814ZM68.7373 42.7229H64.4416V69.4285H68.7373V42.7229ZM31.8873 53.9446C38.7881 52.9218 45.3128 50.4169 51.054 46.6847C56.2308 43.3157 60.7645 38.9489 64.3587 33.7594L65.1812 35.8677C65.3857 36.3937 65.9744 36.6484 66.5004 36.4438C67.0264 36.2392 67.2811 35.6506 67.0807 35.1245L65.5444 31.1877C65.3732 30.7452 64.9224 30.4906 64.4673 30.549L60.2842 31.0124C59.7248 31.075 59.324 31.576 59.3824 32.1354C59.445 32.6948 59.946 33.0956 60.5055 33.0372L62.5343 32.8117C59.1194 37.6878 54.8278 41.8 49.9436 44.9772C44.4496 48.5508 38.2045 50.947 31.5912 51.924C31.0318 52.0033 30.6477 52.5251 30.7312 53.0803C30.8147 53.6356 31.3321 54.0239 31.8873 53.9446ZM92.225 40.206H78.2149L83.091 48.6473C83.1035 48.6682 83.1119 48.6849 83.1202 48.7058L85.8254 53.3898V53.394L86.5518 54.6506L87.9671 57.1054L92.814 48.7099C92.8223 48.6891 92.8349 48.6724 92.8432 48.6515L92.9142 48.5262C92.9225 48.5137 92.9309 48.5012 92.9392 48.4845L97.7194 40.206L92.2254 40.2101L92.225 40.206ZM81.5248 38.1688C79.3414 32.9211 75.8513 28.3539 71.4636 24.8683C66.8588 21.2196 61.2646 18.7607 55.1482 17.9675L51.32 20.176C51.2992 20.1885 51.2825 20.1968 51.2616 20.2052L41.3382 25.933C40.8497 26.2127 40.2318 26.0457 39.9521 25.5572C39.8603 25.3986 39.8185 25.2233 39.8185 25.0521H39.8143V19.5581C34.3704 21.4744 29.5737 24.7682 25.8459 29.0265C21.9342 33.4935 19.204 39.0126 18.1309 45.1078L20.1766 48.6522L25.8877 58.5421C26.0046 58.7091 26.0756 58.9137 26.0756 59.135C26.0756 59.6985 25.6205 60.1536 25.057 60.1536H18.9326C20.7152 66.3197 24.2386 71.7515 28.9353 75.8758C33.8197 80.1632 39.9732 83.0438 46.7576 83.8788L50.3061 81.8331H50.3103L60.2002 76.122C60.3672 76.0051 60.5718 75.9342 60.7889 75.9342C61.3525 75.9342 61.8117 76.3892 61.8117 76.9528V82.2756C67.6856 80.2216 72.8122 76.5645 76.6575 71.8221C80.6569 66.8959 83.2703 60.797 83.9091 54.1217L81.3709 49.7215C81.3583 49.7048 81.3458 49.6881 81.3375 49.6672L75.6013 39.7606C75.4928 39.5977 75.426 39.4015 75.426 39.1886C75.426 38.625 75.8811 38.1658 76.4446 38.1658H81.5253L81.5248 38.1688ZM83.7165 38.1688H90.8512C88.2002 29.8318 83.0152 22.6261 76.2063 17.4535C70.2531 12.9322 63.0555 9.96812 55.2153 9.15407L61.2895 12.6608C61.778 12.9405 61.945 13.5667 61.6611 14.051C61.5651 14.2138 61.4315 14.3433 61.277 14.4309L57.9205 16.368C63.4312 17.491 68.4785 19.904 72.7279 23.2772C77.5998 27.1388 81.429 32.2695 83.7165 38.1688ZM88.8473 59.644C88.8306 59.6732 88.8098 59.7024 88.7889 59.7317C88.7805 59.7442 88.768 59.7567 88.7597 59.7734L88.743 59.7943L88.6971 59.8402L88.6929 59.8485L88.6845 59.8527L88.6804 59.8611L88.6595 59.8819L88.6511 59.8861C88.576 59.9571 88.4883 60.0155 88.3923 60.0615L88.3714 60.0698L88.3631 60.074L88.3505 60.0823L88.338 60.0865L88.3338 60.0907C88.2253 60.1324 88.1168 60.1575 88.004 60.1617H87.9498C87.8078 60.1617 87.6617 60.1324 87.5239 60.0698H87.5198L87.5031 60.0615L87.4905 60.0531L87.4822 60.0489L87.4613 60.0406C87.4363 60.0281 87.4112 60.0114 87.3862 59.9947L87.3528 59.978C87.3403 59.9696 87.3277 59.9613 87.3152 59.9529L87.2818 59.9362L87.2735 59.9279L87.2401 59.9112L87.2359 59.9028H87.2317L87.215 59.8861H87.2108L87.1941 59.8694C87.1315 59.8026 87.0772 59.7316 87.0355 59.6565L86.0377 57.9281L85.5201 57.0306C84.468 63.0589 81.8797 68.5612 78.1767 73.1279C73.9518 78.3338 68.27 82.3124 61.7534 84.4415V91.4635C70.5746 89.0838 78.2483 83.903 83.7544 76.9308C89.0271 70.2553 92.3168 61.9311 92.7259 52.8553L88.8058 59.6477L88.8016 59.656L88.8473 59.644ZM15.8601 45.2534L13.5306 41.2207L8.65028 49.6703C8.63776 49.687 8.62941 49.7037 8.61688 49.7246L3.77839 58.1159H23.2871L18.411 49.6704L15.8601 45.2534ZM9.3642 44.3684L12.6497 38.6782C12.6873 38.6114 12.7332 38.553 12.7875 38.4945L12.8042 38.4778L12.8125 38.4737L12.8292 38.457L12.8376 38.4528L12.8501 38.4444L12.8668 38.4277L12.8751 38.4236C12.9419 38.3651 13.0171 38.3192 13.0922 38.2816L13.1089 38.2733L13.1215 38.2649L13.1298 38.2607C13.2592 38.2065 13.3928 38.1773 13.5264 38.1773C13.66 38.1773 13.7978 38.2023 13.923 38.2607L13.9313 38.2649L13.9439 38.2733L13.9564 38.2774L13.9647 38.2816C14.0524 38.3234 14.1359 38.3776 14.2069 38.4444L14.2319 38.457L14.2403 38.4653L14.2486 38.4695L14.257 38.4778L14.2653 38.4904L14.282 38.5071L14.2987 38.5279C14.3405 38.578 14.378 38.6281 14.4073 38.6824V38.6866L16.5907 42.4689C17.9558 36.904 20.6444 31.8609 24.2972 27.6862C28.4053 22.9979 33.7363 19.4035 39.7982 17.4121V10.3902C31.3109 12.6946 23.8879 17.5958 18.4406 24.1918C13.7732 29.8612 10.5499 36.7782 9.3642 44.3684ZM59.7616 82.7884V78.718L51.3161 83.5941L42.8706 88.4744L50.7567 93.0291V93.0332C50.7651 93.0374 50.7776 93.0458 50.7859 93.0499L51.3161 93.3547L59.7616 98.2308L59.7616 82.7884ZM88.7889 59.7317L88.7597 59.7734C88.768 59.7567 88.7805 59.7442 88.7889 59.7317ZM40.3319 89.3558C40.2609 89.3182 40.1983 89.2682 40.1399 89.2139L40.1315 89.2055L40.1232 89.2014L40.0981 89.1763H40.094L40.0647 89.1471L40.0606 89.1387C39.9896 89.0594 39.9353 88.9717 39.8894 88.8799L39.881 88.8632V88.859L39.8727 88.8381L39.8685 88.834C39.8268 88.7338 39.8059 88.6294 39.7975 88.5292V88.4582C39.7975 88.308 39.8309 88.1535 39.9019 88.0115L39.9103 87.9907V87.9865L39.9228 87.9656C39.927 87.9531 39.9353 87.9447 39.9395 87.9322L39.9437 87.9239C39.9478 87.9113 39.9562 87.903 39.9645 87.8905L39.9687 87.8821C39.9771 87.8696 39.9812 87.8613 39.9896 87.8529L39.9938 87.8446L40.0021 87.832L40.0188 87.8153L40.0272 87.8028L40.0313 87.7945L40.048 87.7778L40.0689 87.7945C40.0814 87.7819 40.0898 87.7694 40.0981 87.7611C40.1691 87.6859 40.2484 87.6275 40.3361 87.5774L43.9556 85.49C37.7644 84.2627 32.1535 81.4155 27.5868 77.4077C22.4602 72.9032 18.6486 66.9332 16.8118 60.1572H9.88168C11.9399 69.3083 16.9871 77.3318 23.942 83.1436C30.0539 88.2493 37.6432 91.6517 45.9719 92.612L40.3319 89.3558ZM58.7431 13.5417L50.5188 8.79089L50.4896 8.77419L50.3518 8.69487C50.3309 8.68652 50.3142 8.674 50.2934 8.66565L41.852 3.78954V23.294L50.2433 18.4471C50.26 18.4345 50.2767 18.4262 50.2976 18.4137L58.7431 13.5417Z"/>
</mask>
<path fill-rule="evenodd" clip-rule="evenodd" d="M39.8105 7.85908V2.02281C39.8105 1.45923 40.2655 1 40.8333 1C41.042 1 41.2424 1.06262 41.4052 1.17534L51.3119 6.89479C61.1226 6.99916 70.1655 10.3097 77.4372 15.833C84.7471 21.3854 90.2706 29.1676 92.9884 38.1674H99.4884V38.1716C99.6596 38.1716 99.8349 38.2133 99.9936 38.3094C100.482 38.5891 100.649 39.2111 100.369 39.6954L94.8294 49.289C94.8377 49.4978 94.8419 49.719 94.8503 49.9487C94.8586 50.3703 94.867 50.6959 94.867 50.9089C94.867 61.2038 91.3309 70.6719 85.4028 78.1745C79.5164 85.6223 71.2794 91.1244 61.8072 93.5504L61.803 99.9837H61.7988C61.7988 100.155 61.7571 100.33 61.6611 100.489C61.3814 100.977 60.7593 101.144 60.275 100.865L50.3016 95.1076L49.9676 94.9155C39.5724 94.711 30.0666 90.9119 22.6357 84.7041C15.2297 78.517 9.88995 69.9384 7.79844 60.152L2.01636 60.1561V60.152C1.84519 60.152 1.66985 60.1102 1.51121 60.0184C1.02276 59.7387 0.855771 59.1166 1.13548 58.6323L6.86327 48.7089C6.86744 48.6964 6.87579 48.688 6.87997 48.6755C7.36841 38.9024 11.0422 29.9683 16.8869 22.8965C22.7106 15.8453 30.6885 10.6434 39.8145 8.28899V7.85899L39.8105 7.85908ZM31.7407 58.3238C31.1771 58.3238 30.722 58.7788 30.722 59.3424V70.4477C30.722 71.0113 31.1771 71.4663 31.7407 71.4663H38.078C38.6415 71.4663 39.1008 71.0113 39.1008 70.4477V59.3424C39.1008 58.7788 38.6457 58.3238 38.078 58.3238H31.7407ZM37.0552 60.3653H32.7594V69.4287H37.0552V60.3653ZM42.2986 53.4978C41.735 53.4978 41.2758 53.957 41.2758 54.5206V70.4469C41.2758 71.0105 41.7308 71.4656 42.2986 71.4656H48.6359C49.1995 71.4656 49.6587 71.0105 49.6587 70.4469L49.6545 54.5206C49.6545 53.957 49.1995 53.4978 48.6317 53.4978H42.2986ZM47.6173 55.5393H43.3215V69.4243H47.6173V55.5393ZM52.8607 48.0665C52.2971 48.0665 51.8379 48.5215 51.8379 49.0851V70.447C51.8379 71.0106 52.293 71.4657 52.8607 71.4657H59.198C59.7616 71.4657 60.2208 71.0106 60.2208 70.447L60.2167 49.0851C60.2167 48.5215 59.7574 48.0665 59.1938 48.0665H52.8607ZM58.1752 50.108H53.8794V69.4286H58.1752V50.108ZM63.4187 40.6814C62.8551 40.6814 62.4 41.1406 62.4 41.7042V70.4511C62.4 71.0147 62.8551 71.4697 63.4187 71.4697H69.756C70.3195 71.4697 70.7788 71.0147 70.7788 70.4511V41.6999C70.7788 41.1363 70.3195 40.6771 69.756 40.6771L63.4187 40.6814ZM68.7373 42.7229H64.4416V69.4285H68.7373V42.7229ZM31.8873 53.9446C38.7881 52.9218 45.3128 50.4169 51.054 46.6847C56.2308 43.3157 60.7645 38.9489 64.3587 33.7594L65.1812 35.8677C65.3857 36.3937 65.9744 36.6484 66.5004 36.4438C67.0264 36.2392 67.2811 35.6506 67.0807 35.1245L65.5444 31.1877C65.3732 30.7452 64.9224 30.4906 64.4673 30.549L60.2842 31.0124C59.7248 31.075 59.324 31.576 59.3824 32.1354C59.445 32.6948 59.946 33.0956 60.5055 33.0372L62.5343 32.8117C59.1194 37.6878 54.8278 41.8 49.9436 44.9772C44.4496 48.5508 38.2045 50.947 31.5912 51.924C31.0318 52.0033 30.6477 52.5251 30.7312 53.0803C30.8147 53.6356 31.3321 54.0239 31.8873 53.9446ZM92.225 40.206H78.2149L83.091 48.6473C83.1035 48.6682 83.1119 48.6849 83.1202 48.7058L85.8254 53.3898V53.394L86.5518 54.6506L87.9671 57.1054L92.814 48.7099C92.8223 48.6891 92.8349 48.6724 92.8432 48.6515L92.9142 48.5262C92.9225 48.5137 92.9309 48.5012 92.9392 48.4845L97.7194 40.206L92.2254 40.2101L92.225 40.206ZM81.5248 38.1688C79.3414 32.9211 75.8513 28.3539 71.4636 24.8683C66.8588 21.2196 61.2646 18.7607 55.1482 17.9675L51.32 20.176C51.2992 20.1885 51.2825 20.1968 51.2616 20.2052L41.3382 25.933C40.8497 26.2127 40.2318 26.0457 39.9521 25.5572C39.8603 25.3986 39.8185 25.2233 39.8185 25.0521H39.8143V19.5581C34.3704 21.4744 29.5737 24.7682 25.8459 29.0265C21.9342 33.4935 19.204 39.0126 18.1309 45.1078L20.1766 48.6522L25.8877 58.5421C26.0046 58.7091 26.0756 58.9137 26.0756 59.135C26.0756 59.6985 25.6205 60.1536 25.057 60.1536H18.9326C20.7152 66.3197 24.2386 71.7515 28.9353 75.8758C33.8197 80.1632 39.9732 83.0438 46.7576 83.8788L50.3061 81.8331H50.3103L60.2002 76.122C60.3672 76.0051 60.5718 75.9342 60.7889 75.9342C61.3525 75.9342 61.8117 76.3892 61.8117 76.9528V82.2756C67.6856 80.2216 72.8122 76.5645 76.6575 71.8221C80.6569 66.8959 83.2703 60.797 83.9091 54.1217L81.3709 49.7215C81.3583 49.7048 81.3458 49.6881 81.3375 49.6672L75.6013 39.7606C75.4928 39.5977 75.426 39.4015 75.426 39.1886C75.426 38.625 75.8811 38.1658 76.4446 38.1658H81.5253L81.5248 38.1688ZM83.7165 38.1688H90.8512C88.2002 29.8318 83.0152 22.6261 76.2063 17.4535C70.2531 12.9322 63.0555 9.96812 55.2153 9.15407L61.2895 12.6608C61.778 12.9405 61.945 13.5667 61.6611 14.051C61.5651 14.2138 61.4315 14.3433 61.277 14.4309L57.9205 16.368C63.4312 17.491 68.4785 19.904 72.7279 23.2772C77.5998 27.1388 81.429 32.2695 83.7165 38.1688ZM88.8473 59.644C88.8306 59.6732 88.8098 59.7024 88.7889 59.7317C88.7805 59.7442 88.768 59.7567 88.7597 59.7734L88.743 59.7943L88.6971 59.8402L88.6929 59.8485L88.6845 59.8527L88.6804 59.8611L88.6595 59.8819L88.6511 59.8861C88.576 59.9571 88.4883 60.0155 88.3923 60.0615L88.3714 60.0698L88.3631 60.074L88.3505 60.0823L88.338 60.0865L88.3338 60.0907C88.2253 60.1324 88.1168 60.1575 88.004 60.1617H87.9498C87.8078 60.1617 87.6617 60.1324 87.5239 60.0698H87.5198L87.5031 60.0615L87.4905 60.0531L87.4822 60.0489L87.4613 60.0406C87.4363 60.0281 87.4112 60.0114 87.3862 59.9947L87.3528 59.978C87.3403 59.9696 87.3277 59.9613 87.3152 59.9529L87.2818 59.9362L87.2735 59.9279L87.2401 59.9112L87.2359 59.9028H87.2317L87.215 59.8861H87.2108L87.1941 59.8694C87.1315 59.8026 87.0772 59.7316 87.0355 59.6565L86.0377 57.9281L85.5201 57.0306C84.468 63.0589 81.8797 68.5612 78.1767 73.1279C73.9518 78.3338 68.27 82.3124 61.7534 84.4415V91.4635C70.5746 89.0838 78.2483 83.903 83.7544 76.9308C89.0271 70.2553 92.3168 61.9311 92.7259 52.8553L88.8058 59.6477L88.8016 59.656L88.8473 59.644ZM15.8601 45.2534L13.5306 41.2207L8.65028 49.6703C8.63776 49.687 8.62941 49.7037 8.61688 49.7246L3.77839 58.1159H23.2871L18.411 49.6704L15.8601 45.2534ZM9.3642 44.3684L12.6497 38.6782C12.6873 38.6114 12.7332 38.553 12.7875 38.4945L12.8042 38.4778L12.8125 38.4737L12.8292 38.457L12.8376 38.4528L12.8501 38.4444L12.8668 38.4277L12.8751 38.4236C12.9419 38.3651 13.0171 38.3192 13.0922 38.2816L13.1089 38.2733L13.1215 38.2649L13.1298 38.2607C13.2592 38.2065 13.3928 38.1773 13.5264 38.1773C13.66 38.1773 13.7978 38.2023 13.923 38.2607L13.9313 38.2649L13.9439 38.2733L13.9564 38.2774L13.9647 38.2816C14.0524 38.3234 14.1359 38.3776 14.2069 38.4444L14.2319 38.457L14.2403 38.4653L14.2486 38.4695L14.257 38.4778L14.2653 38.4904L14.282 38.5071L14.2987 38.5279C14.3405 38.578 14.378 38.6281 14.4073 38.6824V38.6866L16.5907 42.4689C17.9558 36.904 20.6444 31.8609 24.2972 27.6862C28.4053 22.9979 33.7363 19.4035 39.7982 17.4121V10.3902C31.3109 12.6946 23.8879 17.5958 18.4406 24.1918C13.7732 29.8612 10.5499 36.7782 9.3642 44.3684ZM59.7616 82.7884V78.718L51.3161 83.5941L42.8706 88.4744L50.7567 93.0291V93.0332C50.7651 93.0374 50.7776 93.0458 50.7859 93.0499L51.3161 93.3547L59.7616 98.2308L59.7616 82.7884ZM88.7889 59.7317L88.7597 59.7734C88.768 59.7567 88.7805 59.7442 88.7889 59.7317ZM40.3319 89.3558C40.2609 89.3182 40.1983 89.2682 40.1399 89.2139L40.1315 89.2055L40.1232 89.2014L40.0981 89.1763H40.094L40.0647 89.1471L40.0606 89.1387C39.9896 89.0594 39.9353 88.9717 39.8894 88.8799L39.881 88.8632V88.859L39.8727 88.8381L39.8685 88.834C39.8268 88.7338 39.8059 88.6294 39.7975 88.5292V88.4582C39.7975 88.308 39.8309 88.1535 39.9019 88.0115L39.9103 87.9907V87.9865L39.9228 87.9656C39.927 87.9531 39.9353 87.9447 39.9395 87.9322L39.9437 87.9239C39.9478 87.9113 39.9562 87.903 39.9645 87.8905L39.9687 87.8821C39.9771 87.8696 39.9812 87.8613 39.9896 87.8529L39.9938 87.8446L40.0021 87.832L40.0188 87.8153L40.0272 87.8028L40.0313 87.7945L40.048 87.7778L40.0689 87.7945C40.0814 87.7819 40.0898 87.7694 40.0981 87.7611C40.1691 87.6859 40.2484 87.6275 40.3361 87.5774L43.9556 85.49C37.7644 84.2627 32.1535 81.4155 27.5868 77.4077C22.4602 72.9032 18.6486 66.9332 16.8118 60.1572H9.88168C11.9399 69.3083 16.9871 77.3318 23.942 83.1436C30.0539 88.2493 37.6432 91.6517 45.9719 92.612L40.3319 89.3558ZM58.7431 13.5417L50.5188 8.79089L50.4896 8.77419L50.3518 8.69487C50.3309 8.68652 50.3142 8.674 50.2934 8.66565L41.852 3.78954V23.294L50.2433 18.4471C50.26 18.4345 50.2767 18.4262 50.2976 18.4137L58.7431 13.5417Z" fill="#3C7CFF"/>
<path d="M88.5809 59.593C88.5838 59.5887 88.5857 59.5863 88.5844 59.5879C88.5838 59.5887 88.5832 59.5895 88.5816 59.5915C88.5803 59.5932 88.5783 59.5957 88.5761 59.5985C88.5678 59.6094 88.551 59.6317 88.5361 59.6616L88.9833 59.8852C88.9798 59.8922 88.9766 59.8973 88.9746 59.9003C88.9727 59.9031 88.9716 59.9045 88.9724 59.9034C88.9729 59.9028 88.9735 59.9021 88.9747 59.9005C88.9757 59.8992 88.9777 59.8967 88.9795 59.8943C88.9832 59.8896 88.9899 59.8809 88.9969 59.8703L88.5809 59.593ZM39.8105 7.85908H39.3105V8.3704L39.8217 8.35895L39.8105 7.85908ZM41.4052 1.17534L41.1207 1.58644L41.1375 1.59811L41.1552 1.60835L41.4052 1.17534ZM51.3119 6.89479L51.0619 7.32781L51.1755 7.39337L51.3066 7.39476L51.3119 6.89479ZM77.4372 15.833L77.7396 15.4348V15.4348L77.4372 15.833ZM92.9884 38.1674L92.5097 38.312L92.6171 38.6674H92.9884V38.1674ZM99.4884 38.1674H99.9884V37.6674H99.4884V38.1674ZM99.4884 38.1716H98.9884V38.6716H99.4884V38.1716ZM99.9936 38.3094L99.7346 38.7372L99.7451 38.7433L99.9936 38.3094ZM100.369 39.6954L99.9363 39.4453L99.9363 39.4454L100.369 39.6954ZM94.8294 49.289L94.3964 49.039L94.324 49.1644L94.3298 49.309L94.8294 49.289ZM94.8503 49.9487L95.3502 49.9388L95.3499 49.9305L94.8503 49.9487ZM85.4028 78.1745L85.795 78.4845L85.7951 78.4845L85.4028 78.1745ZM61.8072 93.5504L61.6831 93.066L61.3074 93.1622L61.3072 93.5501L61.8072 93.5504ZM61.803 99.9837V100.484H62.3027L62.303 99.984L61.803 99.9837ZM61.7988 99.9837V99.4837H61.2988V99.9837H61.7988ZM61.6611 100.489L61.2332 100.23L61.2272 100.24L61.6611 100.489ZM60.275 100.865L60.5251 100.432L60.525 100.431L60.275 100.865ZM50.3016 95.1076L50.5515 94.6745L50.5508 94.6741L50.3016 95.1076ZM49.9676 94.9155L50.2168 94.4821L50.1057 94.4181L49.9774 94.4156L49.9676 94.9155ZM22.6357 84.7041L22.9563 84.3203H22.9563L22.6357 84.7041ZM7.79844 60.152L8.2874 60.0475L8.20281 59.6517L7.79808 59.652L7.79844 60.152ZM2.01636 60.1561H1.51636V60.6565L2.01672 60.6561L2.01636 60.1561ZM2.01636 60.152H2.51636V59.652H2.01636V60.152ZM1.51121 60.0184L1.76172 59.5856L1.75968 59.5845L1.51121 60.0184ZM1.13548 58.6323L1.56845 58.8824L1.56852 58.8823L1.13548 58.6323ZM6.86327 48.7089L7.29631 48.9588L7.32161 48.915L7.33762 48.867L6.86327 48.7089ZM6.87997 48.6755L7.35431 48.8336L7.37593 48.7687L7.37935 48.7004L6.87997 48.6755ZM16.8869 22.8965L17.2723 23.215L17.2724 23.2149L16.8869 22.8965ZM39.8145 8.28899L39.9394 8.77313L40.3145 8.67636V8.28899H39.8145ZM39.8145 7.85899H40.3145V7.34767L39.8033 7.35912L39.8145 7.85899ZM37.0552 60.3653H37.5552V59.8653H37.0552V60.3653ZM32.7594 60.3653V59.8653H32.2594V60.3653H32.7594ZM32.7594 69.4287H32.2594V69.9287H32.7594V69.4287ZM37.0552 69.4287V69.9287H37.5552V69.4287H37.0552ZM49.6587 70.4469H50.1587V70.4468L49.6587 70.4469ZM49.6545 54.5206H49.1545V54.5207L49.6545 54.5206ZM47.6173 55.5393H48.1173V55.0393H47.6173V55.5393ZM43.3215 55.5393V55.0393H42.8215V55.5393H43.3215ZM43.3215 69.4243H42.8215V69.9243H43.3215V69.4243ZM47.6173 69.4243V69.9243H48.1173V69.4243H47.6173ZM60.2208 70.447H60.7208V70.4469L60.2208 70.447ZM60.2167 49.0851H59.7167V49.0852L60.2167 49.0851ZM58.1752 50.108H58.6752V49.608H58.1752V50.108ZM53.8794 50.108V49.608H53.3794V50.108H53.8794ZM53.8794 69.4286H53.3794V69.9286H53.8794V69.4286ZM58.1752 69.4286V69.9286H58.6752V69.4286H58.1752ZM63.4187 40.6814V41.1814H63.419L63.4187 40.6814ZM69.756 40.6771V40.1771L69.7556 40.1771L69.756 40.6771ZM68.7373 42.7229H69.2373V42.2229H68.7373V42.7229ZM64.4416 42.7229V42.2229H63.9416V42.7229H64.4416ZM64.4416 69.4285H63.9416V69.9285H64.4416V69.4285ZM68.7373 69.4285V69.9285H69.2373V69.4285H68.7373ZM31.8873 53.9446L31.958 54.4396L31.9606 54.4392L31.8873 53.9446ZM51.054 46.6847L51.3265 47.1039L51.3268 47.1038L51.054 46.6847ZM64.3587 33.7594L64.8245 33.5777L64.4829 32.7019L63.9477 33.4747L64.3587 33.7594ZM65.1812 35.8677L65.6472 35.6865L65.647 35.686L65.1812 35.8677ZM66.5004 36.4438L66.6816 36.9098V36.9098L66.5004 36.4438ZM67.0807 35.1245L67.548 34.9466L67.5465 34.9428L67.0807 35.1245ZM65.5444 31.1877L65.0781 31.3681L65.0786 31.3695L65.5444 31.1877ZM64.4673 30.549L64.5224 31.046L64.531 31.0449L64.4673 30.549ZM60.2842 31.0124L60.2291 30.5154L60.2285 30.5155L60.2842 31.0124ZM59.3824 32.1354L58.8851 32.1874L58.8855 32.1911L59.3824 32.1354ZM60.5055 33.0372L60.5574 33.5345L60.5607 33.5341L60.5055 33.0372ZM62.5343 32.8117L62.9439 33.0986L63.5783 32.1927L62.4791 32.3148L62.5343 32.8117ZM49.9436 44.9772L50.2162 45.3963L50.2162 45.3963L49.9436 44.9772ZM31.5912 51.924L31.6614 52.419L31.6643 52.4186L31.5912 51.924ZM30.7312 53.0803L30.2368 53.1547L30.7312 53.0803ZM92.225 40.206L92.722 40.1519L92.6735 39.706H92.225V40.206ZM78.2149 40.206V39.706H77.3487L77.782 40.4561L78.2149 40.206ZM83.091 48.6473L82.658 48.8974L82.6623 48.9046L83.091 48.6473ZM83.1202 48.7058L82.656 48.8915L82.6693 48.9248L82.6873 48.9558L83.1202 48.7058ZM85.8254 53.3898H86.3254V53.2558L86.2584 53.1398L85.8254 53.3898ZM85.8254 53.394H85.3254V53.5281L85.3925 53.6442L85.8254 53.394ZM86.5518 54.6506L86.985 54.4009L86.9847 54.4004L86.5518 54.6506ZM87.9671 57.1054L87.5339 57.3551L87.9668 58.106L88.4001 57.3554L87.9671 57.1054ZM92.814 48.7099L93.247 48.9599L93.2649 48.9289L93.2782 48.8956L92.814 48.7099ZM92.8432 48.6515L92.4082 48.405L92.3915 48.4344L92.379 48.4658L92.8432 48.6515ZM92.9142 48.5262L92.4982 48.2489L92.4881 48.264L92.4792 48.2797L92.9142 48.5262ZM92.9392 48.4845L92.5062 48.2345L92.4987 48.2475L92.492 48.2609L92.9392 48.4845ZM97.7194 40.206L98.1524 40.456L98.5858 39.7053L97.719 39.706L97.7194 40.206ZM92.2254 40.2101L91.7284 40.2642L91.7769 40.7105L92.2258 40.7101L92.2254 40.2101ZM81.5248 38.1688L81.0631 38.3609L81.7222 39.9448L82.0173 38.2548L81.5248 38.1688ZM71.4636 24.8683L71.7746 24.4768L71.7741 24.4765L71.4636 24.8683ZM55.1482 17.9675L55.2126 17.4717L55.0449 17.4499L54.8984 17.5344L55.1482 17.9675ZM51.32 20.176L51.0701 19.7428L51.0628 19.7472L51.32 20.176ZM51.2616 20.2052L51.0759 19.7409L51.0426 19.7542L51.0116 19.7721L51.2616 20.2052ZM41.3382 25.933L41.5866 26.3669L41.5881 26.366L41.3382 25.933ZM39.9521 25.5572L40.386 25.3088L40.3848 25.3067L39.9521 25.5572ZM39.8185 25.0521H40.3185V24.5521H39.8185V25.0521ZM39.8143 25.0521H39.3143V25.5521H39.8143V25.0521ZM39.8143 19.5581H40.3143V18.8521L39.6483 19.0865L39.8143 19.5581ZM25.8459 29.0265L26.2221 29.3559L26.2222 29.3559L25.8459 29.0265ZM18.1309 45.1078L17.6385 45.0211L17.607 45.2002L17.6979 45.3577L18.1309 45.1078ZM20.1766 48.6522L19.7436 48.9021L19.7436 48.9022L20.1766 48.6522ZM25.8877 58.5421L25.4547 58.7922L25.4656 58.811L25.4781 58.8289L25.8877 58.5421ZM18.9326 60.1536V59.6536H18.2675L18.4522 60.2925L18.9326 60.1536ZM28.9353 75.8758L28.6054 76.2515L28.6055 76.2516L28.9353 75.8758ZM46.7576 83.8788L46.6965 84.3751L46.8624 84.3955L47.0073 84.312L46.7576 83.8788ZM50.3061 81.8331V81.3331H50.1723L50.0564 81.4L50.3061 81.8331ZM50.3103 81.8331V82.3331H50.4443L50.5603 82.2661L50.3103 81.8331ZM60.2002 76.122L60.4503 76.555L60.4691 76.5441L60.487 76.5316L60.2002 76.122ZM61.8117 82.2756H61.3117V82.9802L61.9767 82.7476L61.8117 82.2756ZM76.6575 71.8221L76.2693 71.507L76.2691 71.5072L76.6575 71.8221ZM83.9091 54.1217L84.4068 54.1693L84.4221 54.0103L84.3422 53.8718L83.9091 54.1217ZM81.3709 49.7215L81.804 49.4716L81.7889 49.4456L81.7709 49.4215L81.3709 49.7215ZM81.3375 49.6672L81.8017 49.4815L81.7883 49.448L81.7702 49.4167L81.3375 49.6672ZM75.6013 39.7606L76.034 39.51L76.0261 39.4963L76.0174 39.4832L75.6013 39.7606ZM81.5253 38.1658L82.0179 38.2518L82.1202 37.6658H81.5253V38.1658ZM83.7165 38.1688L83.2504 38.3495L83.3742 38.6688H83.7165V38.1688ZM90.8512 38.1688V38.6688H91.5349L91.3277 38.0173L90.8512 38.1688ZM76.2063 17.4535L76.5088 17.0553L76.5087 17.0553L76.2063 17.4535ZM55.2153 9.15407L55.2669 8.65674L54.9653 9.58709L55.2153 9.15407ZM61.2895 12.6608L61.0395 13.0938L61.0411 13.0947L61.2895 12.6608ZM61.6611 14.051L62.0918 14.305L62.0924 14.3039L61.6611 14.051ZM61.277 14.4309L61.0302 13.9961L61.0271 13.9979L61.277 14.4309ZM57.9205 16.368L57.6706 15.935L56.5278 16.5945L57.8207 16.8579L57.9205 16.368ZM72.7279 23.2772L72.417 23.6688L72.4173 23.669L72.7279 23.2772ZM88.8473 59.644L89.2815 59.8921L89.8734 58.8562L88.7198 59.1605L88.8473 59.644ZM88.7889 59.7317L88.382 59.441L88.3793 59.4449L88.7889 59.7317ZM88.7597 59.7734L89.1501 60.0858L89.1601 60.0733L89.1693 60.0601L88.7597 59.7734ZM88.743 59.7943L89.0965 60.1478L89.1161 60.1283L89.1334 60.1067L88.743 59.7943ZM88.6971 59.8402L88.3435 59.4867L88.2861 59.544L88.2498 59.6166L88.6971 59.8402ZM88.6929 59.8485L88.9165 60.2958L89.0656 60.2212L89.1401 60.0722L88.6929 59.8485ZM88.6845 59.8527L88.4609 59.4055L88.3119 59.48L88.2374 59.629L88.6845 59.8527ZM88.6804 59.8611L89.0339 60.2146L89.0913 60.1573L89.1275 60.0848L88.6804 59.8611ZM88.6595 59.8819L88.8831 60.3292L88.9557 60.2929L89.0131 60.2355L88.6595 59.8819ZM88.6511 59.8861L88.4275 59.4389L88.3615 59.4719L88.3078 59.5226L88.6511 59.8861ZM88.3923 60.0615L88.578 60.5257L88.5932 60.5196L88.608 60.5125L88.3923 60.0615ZM88.3714 60.0698L88.1857 59.6056L88.1664 59.6133L88.1478 59.6226L88.3714 60.0698ZM88.3631 60.074L88.1395 59.6268L88.1116 59.6407L88.0857 59.658L88.3631 60.074ZM88.3505 60.0823L88.5087 60.5567L88.5722 60.5355L88.6279 60.4984L88.3505 60.0823ZM88.338 60.0865L88.1799 59.6122L88.0679 59.6495L87.9845 59.733L88.338 60.0865ZM88.3338 60.0907L88.5133 60.5574L88.6124 60.5193L88.6874 60.4442L88.3338 60.0907ZM88.004 60.1617V60.6617H88.0133L88.0225 60.6613L88.004 60.1617ZM87.5239 60.0698L87.7308 59.6146L87.6322 59.5698H87.5239V60.0698ZM87.5198 60.0698L87.2962 60.517L87.4017 60.5698H87.5198V60.0698ZM87.5031 60.0615L87.2257 60.4775L87.2516 60.4947L87.2795 60.5087L87.5031 60.0615ZM87.4905 60.0531L87.7679 59.6371L87.742 59.6198L87.7142 59.6059L87.4905 60.0531ZM87.4822 60.0489L87.7058 59.6017L87.6872 59.5924L87.6679 59.5847L87.4822 60.0489ZM87.4613 60.0406L87.2377 60.4878L87.2563 60.4971L87.2756 60.5048L87.4613 60.0406ZM87.3862 59.9947L87.6635 59.5786L87.6376 59.5614L87.6098 59.5474L87.3862 59.9947ZM87.3528 59.978L87.0754 60.394L87.1013 60.4113L87.1292 60.4252L87.3528 59.978ZM87.3152 59.9529L87.5926 59.5369L87.5667 59.5196L87.5388 59.5057L87.3152 59.9529ZM87.2818 59.9362L86.9283 60.2898L86.9856 60.3471L87.0582 60.3834L87.2818 59.9362ZM87.2735 59.9279L87.627 59.5743L87.5696 59.5169L87.4971 59.4807L87.2735 59.9279ZM87.2401 59.9112L86.7928 60.1348L86.8674 60.2838L87.0165 60.3584L87.2401 59.9112ZM87.2359 59.9028L87.6831 59.6792L87.5449 59.4028H87.2359V59.9028ZM87.2317 59.9028L86.8782 60.2564L87.0246 60.4028H87.2317V59.9028ZM87.215 59.8861L87.5686 59.5326L87.4221 59.3861H87.215V59.8861ZM87.2108 59.8861L86.8573 60.2397L87.0037 60.3861H87.2108V59.8861ZM87.1941 59.8694L86.8294 60.2114L86.8349 60.2173L86.8406 60.223L87.1941 59.8694ZM87.0355 59.6565L87.4726 59.4136L87.4685 59.4065L87.0355 59.6565ZM86.0377 57.9281L85.6046 58.1779L85.6047 58.1781L86.0377 57.9281ZM85.5201 57.0306L85.9532 56.7808L85.2645 55.5867L85.0275 56.9446L85.5201 57.0306ZM78.1767 73.1279L78.5649 73.443L78.565 73.4428L78.1767 73.1279ZM61.7534 84.4415L61.5981 83.9663L61.2534 84.0789V84.4415H61.7534ZM61.7534 91.4635H61.2534V92.1162L61.8836 91.9462L61.7534 91.4635ZM83.7544 76.9308L83.362 76.6209L83.362 76.6209L83.7544 76.9308ZM92.7259 52.8553L93.2254 52.8779L92.2929 52.6054L92.7259 52.8553ZM88.8058 59.6477L88.3727 59.3978L88.3653 59.4107L88.3586 59.4241L88.8058 59.6477ZM88.8016 59.656L88.3544 59.4324L87.8598 60.4216L88.9291 60.1395L88.8016 59.656ZM15.8601 45.2534L16.2931 45.0034L16.293 45.0033L15.8601 45.2534ZM13.5306 41.2207L13.9635 40.9706L13.5305 40.221L13.0976 40.9706L13.5306 41.2207ZM8.65028 49.6703L9.05028 49.9703L9.06826 49.9463L9.08325 49.9204L8.65028 49.6703ZM8.61688 49.7246L8.18807 49.4673L8.18373 49.4748L8.61688 49.7246ZM3.77839 58.1159L3.34524 57.8661L2.91292 58.6159H3.77839V58.1159ZM23.2871 58.1159V58.6159H24.1531L23.7201 57.8659L23.2871 58.1159ZM18.411 49.6704L18.844 49.4204L18.844 49.4203L18.411 49.6704ZM9.3642 44.3684L8.87019 44.2912L9.7972 44.6184L9.3642 44.3684ZM12.6497 38.6782L13.0827 38.9283L13.0855 38.9234L12.6497 38.6782ZM12.7875 38.4945L12.4339 38.141L12.4274 38.1475L12.4211 38.1543L12.7875 38.4945ZM12.8042 38.4778L12.5805 38.0306L12.508 38.0669L12.4506 38.1243L12.8042 38.4778ZM12.8125 38.4737L13.0362 38.9209L13.1087 38.8846L13.1661 38.8272L12.8125 38.4737ZM12.8292 38.457L12.6056 38.0097L12.5331 38.046L12.4757 38.1034L12.8292 38.457ZM12.8376 38.4528L13.0612 38.9L13.089 38.8861L13.1149 38.8688L12.8376 38.4528ZM12.8501 38.4444L13.1275 38.8605L13.1686 38.833L13.2036 38.798L12.8501 38.4444ZM12.8668 38.4277L12.6432 37.9805L12.5706 38.0168L12.5133 38.0742L12.8668 38.4277ZM12.8751 38.4236L13.0988 38.8708L13.1561 38.8421L13.2044 38.7999L12.8751 38.4236ZM13.0922 38.2816L12.8687 37.8344L12.8686 37.8344L13.0922 38.2816ZM13.1089 38.2733L13.3324 38.7205L13.3604 38.7066L13.3864 38.6892L13.1089 38.2733ZM13.1215 38.2649L12.8978 37.8177L12.87 37.8317L12.844 37.849L13.1215 38.2649ZM13.1298 38.2607L12.9364 37.7997L12.9211 37.8061L12.9062 37.8135L13.1298 38.2607ZM13.923 38.2607L14.1467 37.8134L14.1344 37.8077L13.923 38.2607ZM13.9313 38.2649L14.2088 37.8489L14.1828 37.8317L14.155 37.8177L13.9313 38.2649ZM13.9439 38.2733L13.6664 38.6893L13.7223 38.7265L13.7859 38.7477L13.9439 38.2733ZM13.9564 38.2774L14.18 37.8302L14.1482 37.8143L14.1144 37.8031L13.9564 38.2774ZM13.9647 38.2816L13.7411 38.7289L13.7498 38.7331L13.9647 38.2816ZM14.2069 38.4444L13.8642 38.8085L13.9176 38.8588L13.9832 38.8916L14.2069 38.4444ZM14.2319 38.457L14.5854 38.1033L14.5281 38.046L14.4556 38.0098L14.2319 38.457ZM14.2403 38.4653L13.8868 38.819L13.9441 38.8762L14.0165 38.9124L14.2403 38.4653ZM14.2486 38.4695L14.6021 38.1158L14.5448 38.0586L14.4724 38.0224L14.2486 38.4695ZM14.257 38.4778L14.6731 38.2006L14.6455 38.1593L14.6104 38.1242L14.257 38.4778ZM14.2653 38.4904L13.8492 38.7676L13.8767 38.8089L13.9118 38.8439L14.2653 38.4904ZM14.282 38.5071L14.6724 38.1947L14.6551 38.1731L14.6356 38.1535L14.282 38.5071ZM14.2987 38.5279L13.9082 38.8404L13.9146 38.848L14.2987 38.5279ZM14.4073 38.6824H14.9073V38.5563L14.8475 38.4454L14.4073 38.6824ZM14.4073 38.6866H13.9073V38.8205L13.9742 38.9365L14.4073 38.6866ZM16.5907 42.4689L16.1577 42.7189L16.7798 43.7967L17.0763 42.5881L16.5907 42.4689ZM24.2972 27.6862L23.9212 27.3566L23.921 27.3569L24.2972 27.6862ZM39.7982 17.4121L39.9543 17.8871L40.2982 17.7741V17.4121H39.7982ZM39.7982 10.3902H40.2982V9.73629L39.6672 9.90762L39.7982 10.3902ZM18.4406 24.1918L18.055 23.8734L18.0546 23.874L18.4406 24.1918ZM59.7616 82.7884H59.2616H59.7616ZM59.7616 78.718H60.2616V77.852L59.5116 78.285L59.7616 78.718ZM51.3161 83.5941L51.0661 83.1611L51.0659 83.1612L51.3161 83.5941ZM42.8706 88.4744L42.6204 88.0415L41.8711 88.4745L42.6205 88.9074L42.8706 88.4744ZM50.7567 93.0291H51.2567V92.7404L51.0068 92.5961L50.7567 93.0291ZM50.7567 93.0332H50.2567V93.3423L50.5331 93.4805L50.7567 93.0332ZM50.7859 93.0499L51.0351 92.6165L51.0225 92.6092L51.0095 92.6027L50.7859 93.0499ZM51.3161 93.3547L51.5661 92.9217L51.5653 92.9212L51.3161 93.3547ZM59.7616 98.2308L59.5116 98.6638L60.2616 99.0968V98.2308H59.7616ZM40.3319 89.3558L40.5819 88.9228L40.574 88.9182L40.5659 88.9139L40.3319 89.3558ZM40.1399 89.2139L39.7863 89.5674L39.7929 89.574L39.7997 89.5803L40.1399 89.2139ZM40.1315 89.2055L40.4851 88.852L40.4277 88.7946L40.3551 88.7583L40.1315 89.2055ZM40.1232 89.2014L39.7696 89.5549L39.827 89.6123L39.8996 89.6486L40.1232 89.2014ZM40.0981 89.1763L40.4517 88.8228L40.3052 88.6763H40.0981V89.1763ZM40.094 89.1763L39.7404 89.5299L39.8869 89.6763H40.094V89.1763ZM40.0647 89.1471L39.6175 89.3707L39.6538 89.4433L39.7112 89.5006L40.0647 89.1471ZM40.0606 89.1387L40.5078 88.9151L40.4778 88.8552L40.4332 88.8053L40.0606 89.1387ZM39.881 88.8632H39.381V88.9812L39.4338 89.0868L39.881 88.8632ZM39.881 88.859H40.381V88.7627L40.3453 88.6733L39.881 88.859ZM39.8727 88.8381L40.3369 88.6525L40.2988 88.557L40.2261 88.4844L39.8727 88.8381ZM39.8685 88.834L39.407 89.0263L39.4451 89.1177L39.5151 89.1877L39.8685 88.834ZM39.7975 88.5292H39.2975V88.55L39.2993 88.5707L39.7975 88.5292ZM39.9019 88.0115L40.3491 88.2352L40.3584 88.2166L40.3661 88.1973L39.9019 88.0115ZM39.9103 87.9907L40.3745 88.1764L40.4103 88.087V87.9907H39.9103ZM39.9103 87.9865L39.4815 87.7292L39.4103 87.848V87.9865H39.9103ZM39.9228 87.9656L40.3515 88.2229L40.3798 88.1758L40.3971 88.1237L39.9228 87.9656ZM39.9395 87.9322L39.4923 87.7086L39.4764 87.7404L39.4652 87.7741L39.9395 87.9322ZM39.9437 87.9239L40.3909 88.1475L40.4068 88.1157L40.418 88.082L39.9437 87.9239ZM39.9645 87.8905L40.3806 88.1678L40.3979 88.1418L40.4118 88.1139L39.9645 87.8905ZM39.9687 87.8821L39.5527 87.6048L39.5354 87.6307L39.5214 87.6587L39.9687 87.8821ZM39.9896 87.8529L40.3431 88.2065L40.4005 88.1491L40.4368 88.0765L39.9896 87.8529ZM39.9938 87.8446L39.5777 87.5673L39.5604 87.5932L39.5465 87.6209L39.9938 87.8446ZM40.0021 87.832L39.6486 87.4784L39.6135 87.5135L39.586 87.5548L40.0021 87.832ZM40.0188 87.8153L40.3723 88.1689L40.4074 88.1339L40.4348 88.0927L40.0188 87.8153ZM40.0272 87.8028L40.4432 88.0802L40.4604 88.0543L40.4744 88.0264L40.0272 87.8028ZM40.0313 87.7945L39.6778 87.4409L39.6204 87.4983L39.5841 87.5708L40.0313 87.7945ZM40.048 87.7778L40.3604 87.3874L40.011 87.1077L39.6945 87.4242L40.048 87.7778ZM40.0689 87.7945L39.7565 88.1849L40.106 88.4645L40.4225 88.148L40.0689 87.7945ZM40.0981 87.7611L40.4517 88.1146L40.4567 88.1096L40.4616 88.1044L40.0981 87.7611ZM40.3361 87.5774L40.5842 88.0115L40.5859 88.0105L40.3361 87.5774ZM43.9556 85.49L44.2054 85.9231L45.3582 85.2583L44.0528 84.9995L43.9556 85.49ZM27.5868 77.4077L27.2568 77.7833L27.257 77.7835L27.5868 77.4077ZM16.8118 60.1572L17.2944 60.0264L17.1943 59.6572H16.8118V60.1572ZM9.88168 60.1572V59.6572H9.25674L9.39387 60.2669L9.88168 60.1572ZM23.942 83.1436L23.6214 83.5273L23.6214 83.5273L23.942 83.1436ZM45.9719 92.612L45.9146 93.1087L46.2219 92.179L45.9719 92.612ZM58.7431 13.5417L58.9929 13.9748L59.7432 13.542L58.9932 13.1088L58.7431 13.5417ZM50.5188 8.79089L50.7689 8.35793L50.7669 8.35677L50.5188 8.79089ZM50.4896 8.77419L50.2401 9.20751L50.2415 9.20831L50.4896 8.77419ZM50.3518 8.69487L50.6013 8.26156L50.5705 8.24383L50.5375 8.23063L50.3518 8.69487ZM50.2934 8.66565L50.0433 9.09861L50.0743 9.11656L50.1077 9.12989L50.2934 8.66565ZM41.852 3.78954L42.1021 3.35658L41.352 2.92329V3.78954H41.852ZM41.852 23.294H41.352V24.1602L42.1021 23.7269L41.852 23.294ZM50.2433 18.4471L50.4934 18.88L50.5194 18.865L50.5433 18.8471L50.2433 18.4471ZM50.2976 18.4137L50.0477 17.9805L50.0404 17.9849L50.2976 18.4137ZM40.3105 7.85908V2.02281H39.3105V7.85908H40.3105ZM40.3105 2.02281C40.3105 1.73404 40.543 1.5 40.8333 1.5V0.5C39.9881 0.5 39.3105 1.18441 39.3105 2.02281H40.3105ZM40.8333 1.5C40.9431 1.5 41.0437 1.53314 41.1207 1.58644L41.6898 0.764232C41.4412 0.592099 41.141 0.5 40.8333 0.5V1.5ZM41.1552 1.60835L51.0619 7.32781L51.5619 6.46177L41.6552 0.742321L41.1552 1.60835ZM51.3066 7.39476C61.0064 7.49795 69.9457 10.7707 77.1347 16.2311L77.7396 15.4348C70.3852 9.84875 61.2388 6.50037 51.3172 6.39482L51.3066 7.39476ZM77.1347 16.2311C84.3625 21.7211 89.8231 29.4154 92.5097 38.312L93.467 38.0229C90.718 28.9198 85.1317 21.0496 77.7396 15.4348L77.1347 16.2311ZM92.9884 38.6674H99.4884V37.6674H92.9884V38.6674ZM98.9884 38.1674V38.1716H99.9884V38.1674H98.9884ZM99.4884 38.6716C99.5784 38.6716 99.6623 38.6933 99.7347 38.7371L100.252 37.8816C100.008 37.7334 99.7408 37.6716 99.4884 37.6716V38.6716ZM99.7451 38.7433C99.9937 38.8856 100.077 39.2012 99.9363 39.4453L100.802 39.9455C101.221 39.2211 100.97 38.2925 100.242 37.8755L99.7451 38.7433ZM99.9363 39.4454L94.3964 49.039L95.2624 49.5391L100.802 39.9454L99.9363 39.4454ZM94.3298 49.309C94.3386 49.5281 94.3414 49.7139 94.3506 49.9668L95.3499 49.9305C95.3424 49.7241 95.3369 49.4675 95.329 49.2691L94.3298 49.309ZM94.3504 49.9586C94.3588 50.3864 94.367 50.7025 94.367 50.9089H95.367C95.367 50.6893 95.3584 50.3542 95.3502 49.9388L94.3504 49.9586ZM94.367 50.9089C94.367 61.0872 90.8714 70.447 85.0105 77.8645L85.7951 78.4845C91.7904 70.8969 95.367 61.3203 95.367 50.9089H94.367ZM85.0105 77.8644C79.1902 85.2286 71.0465 90.6679 61.6831 93.066L61.9312 94.0348C71.5124 91.5808 79.8426 86.0159 85.795 78.4845L85.0105 77.8644ZM61.3072 93.5501L61.303 99.9833L62.303 99.984L62.3072 93.5507L61.3072 93.5501ZM61.803 99.4837H61.7988V100.484H61.803V99.4837ZM61.2988 99.9837C61.2988 100.074 61.2771 100.158 61.2333 100.23L62.0888 100.748C62.2371 100.503 62.2988 100.236 62.2988 99.9837H61.2988ZM61.2272 100.24C61.0848 100.489 60.7693 100.573 60.5251 100.432L60.025 101.298C60.7494 101.716 61.6779 101.466 62.095 100.737L61.2272 100.24ZM60.525 100.431L50.5515 94.6745L50.0516 95.5406L60.0251 101.298L60.525 100.431ZM50.5508 94.6741L50.2168 94.4821L49.7183 95.349L50.0523 95.541L50.5508 94.6741ZM49.9774 94.4156C39.7 94.2134 30.3029 90.4578 22.9563 84.3203L22.3152 85.0878C29.8303 91.366 39.4449 95.2085 49.9578 95.4154L49.9774 94.4156ZM22.9563 84.3203C15.6336 78.203 10.3549 69.7216 8.2874 60.0475L7.30948 60.2565C9.42498 70.1551 14.8257 78.8311 22.3152 85.0878L22.9563 84.3203ZM7.79808 59.652L2.01599 59.6561L2.01672 60.6561L7.7988 60.652L7.79808 59.652ZM2.51636 60.1561V60.152H1.51636V60.1561H2.51636ZM2.01636 59.652C1.92597 59.652 1.83825 59.63 1.76172 59.5857L1.26069 60.4511C1.50145 60.5905 1.7644 60.652 2.01636 60.652V59.652ZM1.75968 59.5845C1.5111 59.4421 1.42744 59.1266 1.56845 58.8824L0.702507 58.3823C0.284105 59.1067 0.534423 60.0352 1.26274 60.4523L1.75968 59.5845ZM1.56852 58.8823L7.29631 48.9588L6.43023 48.4589L0.70244 58.3824L1.56852 58.8823ZM7.33762 48.867C7.32804 48.8957 7.31737 48.918 7.30997 48.9321C7.30635 48.9391 7.30335 48.9443 7.30175 48.9471C7.30038 48.9494 7.29927 48.9513 7.30036 48.9494C7.30084 48.9487 7.30351 48.9442 7.30642 48.9392C7.30955 48.9338 7.31405 48.9259 7.3191 48.9162C7.32938 48.8966 7.34265 48.8686 7.35431 48.8336L6.40562 48.5174C6.4152 48.4886 6.42587 48.4664 6.43327 48.4522C6.43689 48.4453 6.43989 48.4401 6.44149 48.4373C6.44286 48.4349 6.44397 48.4331 6.44288 48.4349C6.4424 48.4357 6.43973 48.4402 6.43682 48.4452C6.43369 48.4506 6.42919 48.4585 6.42414 48.4681C6.41386 48.4878 6.40059 48.5158 6.38892 48.5508L7.33762 48.867ZM7.37935 48.7004C7.86224 39.0385 11.4939 30.2066 17.2723 23.215L16.5015 22.578C10.5904 29.73 6.87459 38.7663 6.38059 48.6505L7.37935 48.7004ZM17.2724 23.2149C23.0305 16.2431 30.918 11.1006 39.9394 8.77313L39.6896 7.80484C30.4591 10.1862 22.3907 15.4474 16.5014 22.5781L17.2724 23.2149ZM40.3145 8.28899V7.85899H39.3145V8.28899H40.3145ZM39.8033 7.35912L39.7993 7.3592L39.8217 8.35895L39.8257 8.35886L39.8033 7.35912ZM31.7407 57.8238C30.9009 57.8238 30.222 58.5027 30.222 59.3424H31.222C31.222 59.055 31.4532 58.8238 31.7407 58.8238V57.8238ZM30.222 59.3424V70.4477H31.222V59.3424H30.222ZM30.222 70.4477C30.222 71.2874 30.9009 71.9663 31.7407 71.9663V70.9663C31.4532 70.9663 31.222 70.7351 31.222 70.4477H30.222ZM31.7407 71.9663H38.078V70.9663H31.7407V71.9663ZM38.078 71.9663C38.915 71.9663 39.6008 71.2901 39.6008 70.4477H38.6008C38.6008 70.7325 38.3681 70.9663 38.078 70.9663V71.9663ZM39.6008 70.4477V59.3424H38.6008V70.4477H39.6008ZM39.6008 59.3424C39.6008 58.5014 38.9205 57.8238 38.078 57.8238V58.8238C38.3709 58.8238 38.6008 59.0563 38.6008 59.3424H39.6008ZM38.078 57.8238H31.7407V58.8238H38.078V57.8238ZM37.0552 59.8653H32.7594V60.8653H37.0552V59.8653ZM32.2594 60.3653V69.4287H33.2594V60.3653H32.2594ZM32.7594 69.9287H37.0552V68.9287H32.7594V69.9287ZM37.5552 69.4287V60.3653H36.5552V69.4287H37.5552ZM42.2986 52.9978C41.4589 52.9978 40.7758 53.6809 40.7758 54.5206H41.7758C41.7758 54.2332 42.0112 53.9978 42.2986 53.9978V52.9978ZM40.7758 54.5206V70.4469H41.7758V54.5206H40.7758ZM40.7758 70.4469C40.7758 71.288 41.456 71.9656 42.2986 71.9656V70.9656C42.0057 70.9656 41.7758 70.733 41.7758 70.4469H40.7758ZM42.2986 71.9656H48.6359V70.9656H42.2986V71.9656ZM48.6359 71.9656C49.473 71.9656 50.1587 71.2893 50.1587 70.4469H49.1587C49.1587 70.7317 48.926 70.9656 48.6359 70.9656V71.9656ZM50.1587 70.4468L50.1545 54.5205L49.1545 54.5207L49.1587 70.4471L50.1587 70.4468ZM50.1545 54.5206C50.1545 53.6822 49.477 52.9978 48.6317 52.9978V53.9978C48.922 53.9978 49.1545 54.2318 49.1545 54.5206H50.1545ZM48.6317 52.9978H42.2986V53.9978H48.6317V52.9978ZM47.6173 55.0393H43.3215V56.0393H47.6173V55.0393ZM42.8215 55.5393V69.4243H43.8215V55.5393H42.8215ZM43.3215 69.9243H47.6173V68.9243H43.3215V69.9243ZM48.1173 69.4243V55.5393H47.1173V69.4243H48.1173ZM52.8607 47.5665C52.0237 47.5665 51.3379 48.2427 51.3379 49.0851H52.3379C52.3379 48.8003 52.5706 48.5665 52.8607 48.5665V47.5665ZM51.3379 49.0851V70.447H52.3379V49.0851H51.3379ZM51.3379 70.447C51.3379 71.2881 52.0181 71.9657 52.8607 71.9657V70.9657C52.5678 70.9657 52.3379 70.7331 52.3379 70.447H51.3379ZM52.8607 71.9657H59.198V70.9657H52.8607V71.9657ZM59.198 71.9657C60.0351 71.9657 60.7208 71.2894 60.7208 70.447H59.7208C59.7208 70.7318 59.4881 70.9657 59.198 70.9657V71.9657ZM60.7208 70.4469L60.7167 49.085L59.7167 49.0852L59.7208 70.4471L60.7208 70.4469ZM60.7167 49.0851C60.7167 48.2427 60.0309 47.5665 59.1938 47.5665V48.5665C59.484 48.5665 59.7167 48.8003 59.7167 49.0851H60.7167ZM59.1938 47.5665H52.8607V48.5665H59.1938V47.5665ZM58.1752 49.608H53.8794V50.608H58.1752V49.608ZM53.3794 50.108V69.4286H54.3794V50.108H53.3794ZM53.8794 69.9286H58.1752V68.9286H53.8794V69.9286ZM58.6752 69.4286V50.108H57.6752V69.4286H58.6752ZM63.4187 40.1814C62.5763 40.1814 61.9 40.8671 61.9 41.7042H62.9C62.9 41.4141 63.1339 41.1814 63.4187 41.1814V40.1814ZM61.9 41.7042V70.4511H62.9V41.7042H61.9ZM61.9 70.4511C61.9 71.2908 62.5789 71.9697 63.4187 71.9697V70.9697C63.1312 70.9697 62.9 70.7385 62.9 70.4511H61.9ZM63.4187 71.9697H69.756V70.9697H63.4187V71.9697ZM69.756 71.9697C70.593 71.9697 71.2788 71.2935 71.2788 70.4511H70.2788C70.2788 70.7359 70.0461 70.9697 69.756 70.9697V71.9697ZM71.2788 70.4511V41.6999H70.2788V70.4511H71.2788ZM71.2788 41.6999C71.2788 40.8602 70.5957 40.1771 69.756 40.1771V41.1771C70.0434 41.1771 70.2788 41.4125 70.2788 41.6999H71.2788ZM69.7556 40.1771L63.4183 40.1814L63.419 41.1814L69.7563 41.1771L69.7556 40.1771ZM68.7373 42.2229H64.4416V43.2229H68.7373V42.2229ZM63.9416 42.7229V69.4285H64.9416V42.7229H63.9416ZM64.4416 69.9285H68.7373V68.9285H64.4416V69.9285ZM69.2373 69.4285V42.7229H68.2373V69.4285H69.2373ZM31.9606 54.4392C38.9334 53.4057 45.5259 50.8748 51.3265 47.1039L50.7815 46.2655C45.0996 49.9591 38.6428 52.4379 31.814 53.45L31.9606 54.4392ZM51.3268 47.1038C56.5572 43.6998 61.1381 39.2875 64.7698 34.0441L63.9477 33.4747C60.3908 38.6102 55.9043 42.9316 50.7813 46.2656L51.3268 47.1038ZM63.8929 33.9411L64.7153 36.0494L65.647 35.686L64.8245 33.5777L63.8929 33.9411ZM64.7152 36.0489C65.0211 36.8357 65.9016 37.2131 66.6816 36.9098L66.3192 35.9778C66.0471 36.0836 65.7503 35.9518 65.6472 35.6865L64.7152 36.0489ZM66.6816 36.9098C67.4685 36.6038 67.8443 35.7246 67.548 34.9466L66.6135 35.3025C66.7178 35.5766 66.5843 35.8747 66.3192 35.9778L66.6816 36.9098ZM67.5465 34.9428L66.0102 31.006L65.0786 31.3695L66.6149 35.3063L67.5465 34.9428ZM66.0107 31.0074C65.7541 30.344 65.0802 29.9662 64.4036 30.0531L64.531 31.0449C64.7645 31.015 64.9923 31.1464 65.0781 31.3681L66.0107 31.0074ZM64.4123 30.052L60.2291 30.5154L60.3392 31.5094L64.5224 31.046L64.4123 30.052ZM60.2285 30.5155C59.3946 30.6089 58.7983 31.3562 58.8851 32.1874L59.8797 32.0835C59.8497 31.7957 60.0549 31.5412 60.3398 31.5093L60.2285 30.5155ZM58.8855 32.1911C58.9789 33.025 59.7263 33.6213 60.5574 33.5345L60.4535 32.5399C60.1658 32.5699 59.9112 32.3647 59.8793 32.0798L58.8855 32.1911ZM60.5607 33.5341L62.5896 33.3087L62.4791 32.3148L60.4502 32.5402L60.5607 33.5341ZM62.1248 32.5249C58.747 37.3479 54.5021 41.4154 49.6709 44.558L50.2162 45.3963C55.1535 42.1847 59.4918 38.0278 62.9439 33.0986L62.1248 32.5249ZM49.6709 44.558C44.2365 48.0929 38.0594 50.463 31.5181 51.4293L31.6643 52.4186C38.3497 51.431 44.6627 49.0087 50.2162 45.3963L49.6709 44.558ZM31.521 51.4289C30.6843 51.5476 30.1123 52.3271 30.2368 53.1547L31.2256 53.006C31.1831 52.7232 31.3793 52.459 31.6614 52.419L31.521 51.4289ZM30.2368 53.1547C30.3607 53.979 31.1283 54.5581 31.958 54.4396L31.8166 53.4496C31.5359 53.4898 31.2687 53.2921 31.2256 53.006L30.2368 53.1547ZM92.225 39.706H78.2149V40.706H92.225V39.706ZM77.782 40.4561L82.6581 48.8974L83.524 48.3972L78.6479 39.9559L77.782 40.4561ZM82.6623 48.9046C82.6634 48.9064 82.6621 48.9044 82.66 48.9002C82.6577 48.8956 82.6563 48.8922 82.656 48.8915L83.5845 48.5201C83.5655 48.4725 83.5449 48.4319 83.5198 48.3901L82.6623 48.9046ZM82.6873 48.9558L85.3924 53.6399L86.2584 53.1398L83.5532 48.4557L82.6873 48.9558ZM85.3254 53.3898V53.394H86.3254V53.3898H85.3254ZM85.3925 53.6442L86.119 54.9009L86.9847 54.4004L86.2583 53.1438L85.3925 53.6442ZM86.1187 54.9004L87.5339 57.3551L88.4002 56.8557L86.985 54.4009L86.1187 54.9004ZM88.4001 57.3554L93.247 48.9599L92.381 48.4599L87.534 56.8554L88.4001 57.3554ZM93.2782 48.8956C93.2729 48.909 93.2681 48.9187 93.2657 48.9233C93.2638 48.927 93.2625 48.9294 93.2657 48.9235C93.2677 48.92 93.2743 48.9082 93.2811 48.8949C93.2884 48.8806 93.2979 48.861 93.3074 48.8372L92.379 48.4658C92.3843 48.4524 92.3892 48.4427 92.3915 48.4381C92.3934 48.4345 92.3948 48.4321 92.3915 48.4379C92.3895 48.4415 92.3829 48.4532 92.3761 48.4665C92.3688 48.4808 92.3593 48.5005 92.3498 48.5242L93.2782 48.8956ZM93.2782 48.898L93.3492 48.7727L92.4792 48.2797L92.4082 48.405L93.2782 48.898ZM93.3302 48.8036C93.3385 48.7912 93.3627 48.7556 93.3865 48.7081L92.492 48.2609C92.4991 48.2468 92.5066 48.2363 92.4982 48.2489L93.3302 48.8036ZM93.3722 48.7345L98.1524 40.456L97.2864 39.9559L92.5062 48.2345L93.3722 48.7345ZM97.719 39.706L92.2251 39.7101L92.2258 40.7101L97.7197 40.706L97.719 39.706ZM92.7225 40.156L92.722 40.1519L91.7279 40.2601L91.7284 40.2642L92.7225 40.156ZM81.9864 37.9767C79.77 32.6496 76.2275 28.0142 71.7746 24.4768L71.1526 25.2599C75.4751 28.6936 78.9128 33.1926 81.0631 38.3609L81.9864 37.9767ZM71.7741 24.4765C67.1005 20.7732 61.4218 18.2769 55.2126 17.4717L55.0839 18.4634C61.1075 19.2445 66.6171 21.666 71.1531 25.2602L71.7741 24.4765ZM54.8984 17.5344L51.0702 19.7429L51.5699 20.6091L55.3981 18.4006L54.8984 17.5344ZM51.0628 19.7472C51.061 19.7483 51.0629 19.747 51.0672 19.7449C51.0717 19.7427 51.0751 19.7412 51.0759 19.7409L51.4473 20.6694C51.4948 20.6504 51.5354 20.6298 51.5773 20.6047L51.0628 19.7472ZM51.0116 19.7721L41.0882 25.4999L41.5881 26.366L51.5115 20.6382L51.0116 19.7721ZM41.0897 25.4991C40.8402 25.642 40.5281 25.5569 40.386 25.3088L39.5182 25.8057C39.9355 26.5345 40.8592 26.7834 41.5866 26.3669L41.0897 25.4991ZM40.3848 25.3067C40.3405 25.2302 40.3185 25.1425 40.3185 25.0521H39.3185C39.3185 25.304 39.38 25.567 39.5194 25.8078L40.3848 25.3067ZM39.8185 24.5521H39.8143V25.5521H39.8185V24.5521ZM40.3143 25.0521V19.5581H39.3143V25.0521H40.3143ZM39.6483 19.0865C34.1219 21.0318 29.2532 24.3753 25.4697 28.6972L26.2222 29.3559C29.8942 25.1612 34.619 21.917 39.9804 20.0298L39.6483 19.0865ZM25.4698 28.6971C21.4995 33.2309 18.7278 38.8334 17.6385 45.0211L18.6234 45.1945C19.6801 39.1918 22.3688 33.7561 26.2221 29.3559L25.4698 28.6971ZM17.6979 45.3577L19.7436 48.9021L20.6097 48.4022L18.564 44.8579L17.6979 45.3577ZM19.7436 48.9022L25.4547 58.7922L26.3207 58.2921L20.6096 48.4021L19.7436 48.9022ZM25.4781 58.8289C25.5396 58.9168 25.5756 59.0221 25.5756 59.135H26.5756C26.5756 58.8053 26.4696 58.5015 26.2973 58.2554L25.4781 58.8289ZM25.5756 59.135C25.5756 59.4224 25.3444 59.6536 25.057 59.6536V60.6536C25.8967 60.6536 26.5756 59.9747 26.5756 59.135H25.5756ZM25.057 59.6536H18.9326V60.6536H25.057V59.6536ZM18.4522 60.2925C20.262 66.5523 23.8386 72.0657 28.6054 76.2515L29.2652 75.5001C24.6386 71.4374 21.1684 66.0871 19.4129 60.0147L18.4522 60.2925ZM28.6055 76.2516C33.5629 80.6031 39.8093 83.5274 46.6965 84.3751L46.8186 83.3826C40.1372 82.5602 34.0766 79.7234 29.2651 75.5L28.6055 76.2516ZM47.0073 84.312L50.5558 82.2663L50.0564 81.4L46.5078 83.4456L47.0073 84.312ZM50.3061 82.3331H50.3103V81.3331H50.3061V82.3331ZM50.5603 82.2661L60.4503 76.555L59.9502 75.689L50.0602 81.4002L50.5603 82.2661ZM60.487 76.5316C60.5758 76.4695 60.6813 76.4342 60.7889 76.4342V75.4342C60.4623 75.4342 60.1587 75.5408 59.9135 75.7124L60.487 76.5316ZM60.7889 76.4342C61.079 76.4342 61.3117 76.668 61.3117 76.9528H62.3117C62.3117 76.1104 61.626 75.4342 60.7889 75.4342V76.4342ZM61.3117 76.9528V82.2756H62.3117V76.9528H61.3117ZM61.9767 82.7476C67.9396 80.6625 73.1431 76.9503 77.0459 72.137L76.2691 71.5072C72.4813 76.1787 67.4316 79.7808 61.6467 81.8037L61.9767 82.7476ZM77.0457 72.1373C81.1053 67.1369 83.7584 60.9456 84.4068 54.1693L83.4114 54.0741C82.7823 60.6484 80.2086 66.6548 76.2693 71.507L77.0457 72.1373ZM84.3422 53.8718L81.804 49.4716L80.9378 49.9713L83.476 54.3715L84.3422 53.8718ZM81.7709 49.4215C81.7692 49.4192 81.7683 49.418 81.7675 49.417C81.7668 49.416 81.7666 49.4157 81.7667 49.4159C81.7669 49.4162 81.7692 49.4193 81.7724 49.4243C81.7791 49.4346 81.7908 49.4543 81.8017 49.4815L80.8732 49.8529C80.9098 49.9442 80.963 50.0111 80.9709 50.0215L81.7709 49.4215ZM81.7702 49.4167L76.034 39.51L75.1686 40.0111L80.9048 49.9177L81.7702 49.4167ZM76.0174 39.4832C75.9591 39.3958 75.926 39.2951 75.926 39.1886H74.926C74.926 39.508 75.0265 39.7997 75.1853 40.0379L76.0174 39.4832ZM75.926 39.1886C75.926 38.8985 76.1599 38.6658 76.4446 38.6658V37.6658C75.6022 37.6658 74.926 38.3516 74.926 39.1886H75.926ZM76.4446 38.6658H81.5253V37.6658H76.4446V38.6658ZM81.0328 38.0798L81.0322 38.0828L82.0173 38.2548L82.0179 38.2518L81.0328 38.0798ZM83.7165 38.6688H90.8512V37.6688H83.7165V38.6688ZM91.3277 38.0173C88.6449 29.5801 83.398 22.289 76.5088 17.0553L75.9039 17.8516C82.6325 22.9633 87.7556 30.0835 90.3747 38.3203L91.3277 38.0173ZM76.5087 17.0553C70.4846 12.4801 63.2007 9.48051 55.2669 8.65674L55.1636 9.65139C62.9103 10.4557 70.0216 13.3842 75.9039 17.8516L76.5087 17.0553ZM54.9653 9.58709L61.0395 13.0938L61.5395 12.2278L55.4652 8.72105L54.9653 9.58709ZM61.0411 13.0947C61.2888 13.2365 61.3726 13.5544 61.2297 13.7982L62.0924 14.3039C62.5173 13.5791 62.2672 12.6445 61.538 12.2269L61.0411 13.0947ZM61.2304 13.797C61.1787 13.8846 61.1085 13.9516 61.0302 13.9961L61.5238 14.8658C61.7545 14.7349 61.9514 14.543 62.0918 14.305L61.2304 13.797ZM61.0271 13.9979L57.6706 15.935L58.1705 16.8011L61.5269 14.864L61.0271 13.9979ZM57.8207 16.8579C63.2522 17.9649 68.2276 20.3433 72.417 23.6688L73.0387 22.8856C68.7293 19.4648 63.6101 17.0172 58.0204 15.8781L57.8207 16.8579ZM72.4173 23.669C77.2205 27.4762 80.9955 32.5344 83.2504 38.3495L84.1827 37.988C81.8626 32.0045 77.9791 26.8015 73.0385 22.8853L72.4173 23.669ZM88.4132 59.3959C88.4134 59.3955 88.4117 59.3987 88.4059 59.4071C88.4 59.4159 88.3931 59.4256 88.382 59.441L89.1958 60.0223C89.2135 59.9975 89.2499 59.9472 89.2815 59.8921L88.4132 59.3959ZM88.3693 59.461L88.3526 59.4819L89.1334 60.1067L89.1501 60.0858L88.3693 59.461ZM88.3894 59.4407L88.3435 59.4867L89.0506 60.1937L89.0965 60.1478L88.3894 59.4407ZM88.2498 59.6166L88.2457 59.6249L89.1401 60.0722L89.1443 60.0638L88.2498 59.6166ZM88.4693 59.4013L88.4609 59.4055L88.9081 60.2999L88.9165 60.2958L88.4693 59.4013ZM88.2374 59.629L88.2332 59.6374L89.1275 60.0848L89.1317 60.0764L88.2374 59.629ZM88.3268 59.5075L88.3059 59.5284L89.0131 60.2355L89.0339 60.2146L88.3268 59.5075ZM88.4359 59.4347L88.4275 59.4389L88.8747 60.3333L88.8831 60.3292L88.4359 59.4347ZM88.3078 59.5226C88.2742 59.5544 88.2307 59.5845 88.1766 59.6104L88.608 60.5125C88.7459 60.4466 88.8778 60.3598 88.9944 60.2496L88.3078 59.5226ZM88.2066 59.5972L88.1857 59.6056L88.5571 60.534L88.578 60.5257L88.2066 59.5972ZM88.1478 59.6226L88.1395 59.6268L88.5867 60.5212L88.595 60.517L88.1478 59.6226ZM88.0857 59.658L88.0732 59.6663L88.6279 60.4984L88.6404 60.49L88.0857 59.658ZM88.1924 59.608L88.1799 59.6122L88.4961 60.5608L88.5087 60.5567L88.1924 59.608ZM87.9845 59.733L87.9803 59.7371L88.6874 60.4442L88.6916 60.4401L87.9845 59.733ZM88.1543 59.624C88.0884 59.6494 88.0344 59.6602 87.9855 59.662L88.0225 60.6613C88.1992 60.6548 88.3622 60.6155 88.5133 60.5574L88.1543 59.624ZM88.004 59.6617H87.9498V60.6617H88.004V59.6617ZM87.9498 59.6617C87.876 59.6617 87.8007 59.6464 87.7308 59.6146L87.317 60.525C87.5227 60.6185 87.7397 60.6617 87.9498 60.6617V59.6617ZM87.5239 59.5698H87.5198V60.5698H87.5239V59.5698ZM87.7434 59.6226L87.7267 59.6142L87.2795 60.5087L87.2962 60.517L87.7434 59.6226ZM87.7804 59.6454L87.7679 59.6371L87.2132 60.4691L87.2257 60.4775L87.7804 59.6454ZM87.7142 59.6059L87.7058 59.6017L87.2586 60.4961L87.2669 60.5003L87.7142 59.6059ZM87.6679 59.5847L87.647 59.5763L87.2756 60.5048L87.2965 60.5132L87.6679 59.5847ZM87.6849 59.5934C87.6915 59.5967 87.6935 59.5982 87.6888 59.5952C87.6866 59.5938 87.6836 59.5919 87.6793 59.5891C87.6748 59.5861 87.6701 59.583 87.6635 59.5786L87.1088 60.4107C87.1281 60.4236 87.1797 60.4588 87.2377 60.4878L87.6849 59.5934ZM87.6098 59.5474L87.5764 59.5307L87.1292 60.4252L87.1626 60.4419L87.6098 59.5474ZM87.6301 59.5619C87.6176 59.5536 87.6051 59.5452 87.5926 59.5369L87.0379 60.3689C87.0504 60.3773 87.0629 60.3856 87.0754 60.394L87.6301 59.5619ZM87.5388 59.5057L87.5054 59.489L87.0582 60.3834L87.0916 60.4001L87.5388 59.5057ZM87.6354 59.5827L87.627 59.5743L86.9199 60.2814L86.9283 60.2898L87.6354 59.5827ZM87.4971 59.4807L87.4637 59.464L87.0165 60.3584L87.0499 60.3751L87.4971 59.4807ZM87.6873 59.6876L87.6831 59.6792L86.7887 60.1264L86.7928 60.1348L87.6873 59.6876ZM87.2359 59.4028H87.2317V60.4028H87.2359V59.4028ZM87.5853 59.5493L87.5686 59.5326L86.8615 60.2397L86.8782 60.2564L87.5853 59.5493ZM87.215 59.3861H87.2108V60.3861H87.215V59.3861ZM87.5644 59.5326L87.5477 59.5159L86.8406 60.223L86.8573 60.2397L87.5644 59.5326ZM87.5589 59.5275C87.5179 59.4837 87.4902 59.4455 87.4725 59.4136L86.5984 59.8994C86.6642 60.0178 86.7451 60.1215 86.8294 60.2114L87.5589 59.5275ZM87.4685 59.4065L86.4708 57.6782L85.6047 58.1781L86.6025 59.9065L87.4685 59.4065ZM86.4709 57.6783L85.9532 56.7808L85.0869 57.2804L85.6046 58.1779L86.4709 57.6783ZM85.0275 56.9446C83.9906 62.8863 81.4394 68.3103 77.7883 72.813L78.565 73.4428C82.32 68.812 84.9455 63.2314 86.0126 57.1165L85.0275 56.9446ZM77.7884 72.8128C73.623 77.9455 68.0214 81.8676 61.5981 83.9663L61.9087 84.9168C68.5186 82.7572 74.2807 78.7221 78.5649 73.443L77.7884 72.8128ZM61.2534 84.4415V91.4635H62.2534V84.4415H61.2534ZM61.8836 91.9462C70.8109 89.538 78.5756 84.2953 84.1468 77.2407L83.362 76.6209C77.9209 83.5108 70.3384 88.6297 61.6232 90.9807L61.8836 91.9462ZM84.1468 77.2407C89.4822 70.4858 92.8114 62.0617 93.2254 52.8779L92.2264 52.8328C91.8222 61.8004 88.572 70.0249 83.362 76.6209L84.1468 77.2407ZM92.2929 52.6054L88.3727 59.3978L89.2388 59.8976L93.159 53.1053L92.2929 52.6054ZM88.3586 59.4241L88.3544 59.4324L89.2488 59.8797L89.253 59.8713L88.3586 59.4241ZM88.9291 60.1395L88.9749 60.1274L88.7198 59.1605L88.6741 59.1726L88.9291 60.1395ZM16.293 45.0033L13.9635 40.9706L13.0976 41.4708L15.4271 45.5035L16.293 45.0033ZM13.0976 40.9706L8.21731 49.4202L9.08325 49.9204L13.9635 41.4707L13.0976 40.9706ZM8.25028 49.3703C8.22795 49.4001 8.21197 49.4265 8.20261 49.4424C8.1984 49.4495 8.19393 49.4574 8.19223 49.4603C8.18987 49.4644 8.18884 49.4662 8.18813 49.4673L9.04563 49.9818C9.05119 49.9726 9.0559 49.9644 9.05901 49.959C9.06096 49.9556 9.06155 49.9546 9.06282 49.9524C9.06379 49.9507 9.06429 49.9498 9.06455 49.9494C9.06563 49.9476 9.06009 49.9572 9.05028 49.9703L8.25028 49.3703ZM8.18373 49.4748L3.34524 57.8661L4.21154 58.3656L9.05003 49.9743L8.18373 49.4748ZM3.77839 58.6159H23.2871V57.6159H3.77839V58.6159ZM23.7201 57.8659L18.844 49.4204L17.978 49.9204L22.8541 58.3659L23.7201 57.8659ZM18.844 49.4203L16.2931 45.0034L15.4271 45.5035L17.978 49.9205L18.844 49.4203ZM9.7972 44.6184L13.0827 38.9282L12.2167 38.4282L8.93119 44.1184L9.7972 44.6184ZM13.0855 38.9234C13.0981 38.9009 13.1172 38.8742 13.1539 38.8348L12.4211 38.1543C12.3492 38.2317 12.2764 38.3219 12.2139 38.4331L13.0855 38.9234ZM13.141 38.8481L13.1577 38.8314L12.4506 38.1243L12.4339 38.141L13.141 38.8481ZM13.0278 38.925L13.0362 38.9209L12.5889 38.0265L12.5805 38.0306L13.0278 38.925ZM13.1661 38.8272L13.1828 38.8105L12.4757 38.1034L12.459 38.1201L13.1661 38.8272ZM13.0528 38.9042L13.0612 38.9L12.614 38.0056L12.6056 38.0097L13.0528 38.9042ZM13.1149 38.8688L13.1275 38.8605L12.5727 38.0284L12.5602 38.0368L13.1149 38.8688ZM13.2036 38.798L13.2203 38.7813L12.5133 38.0742L12.4966 38.0909L13.2036 38.798ZM13.0904 38.8749L13.0988 38.8708L12.6515 37.9764L12.6432 37.9805L13.0904 38.8749ZM13.2044 38.7999C13.2299 38.7776 13.2659 38.7538 13.3158 38.7288L12.8686 37.8344C12.7683 37.8846 12.654 37.9527 12.5459 38.0473L13.2044 38.7999ZM13.3157 38.7289L13.3324 38.7205L12.8854 37.826L12.8687 37.8344L13.3157 38.7289ZM13.3864 38.6892L13.3989 38.6809L12.844 37.849L12.8315 37.8573L13.3864 38.6892ZM13.3451 38.7121L13.3534 38.708L12.9062 37.8135L12.8978 37.8177L13.3451 38.7121ZM13.3232 38.7218C13.3984 38.6903 13.4664 38.6773 13.5264 38.6773V37.6773C13.3192 37.6773 13.12 37.7227 12.9364 37.7997L13.3232 38.7218ZM13.5264 38.6773C13.5997 38.6773 13.6632 38.6913 13.7115 38.7138L14.1344 37.8077C13.9324 37.7133 13.7203 37.6773 13.5264 37.6773V38.6773ZM13.6994 38.708L13.7077 38.7121L14.155 37.8177L14.1466 37.8135L13.6994 38.708ZM13.6539 38.6809L13.6664 38.6893L14.2213 37.8573L14.2088 37.8489L13.6539 38.6809ZM13.7859 38.7477L13.7984 38.7518L14.1144 37.8031L14.1018 37.7989L13.7859 38.7477ZM13.7328 38.7247L13.7411 38.7288L14.1884 37.8344L14.18 37.8302L13.7328 38.7247ZM13.7498 38.7331C13.798 38.756 13.8366 38.7825 13.8642 38.8085L14.5496 38.0803C14.4352 37.9727 14.3068 37.8907 14.1797 37.8302L13.7498 38.7331ZM13.9832 38.8916L14.0083 38.9041L14.4556 38.0098L14.4306 37.9973L13.9832 38.8916ZM13.8785 38.8106L13.8868 38.819L14.5937 38.1116L14.5854 38.1033L13.8785 38.8106ZM14.0165 38.9124L14.0248 38.9166L14.4724 38.0224L14.4641 38.0182L14.0165 38.9124ZM13.8952 38.8231L13.9035 38.8315L14.6104 38.1242L14.6021 38.1158L13.8952 38.8231ZM13.8409 38.7551L13.8492 38.7676L14.6814 38.2131L14.6731 38.2006L13.8409 38.7551ZM13.9118 38.8439L13.9285 38.8606L14.6356 38.1535L14.6189 38.1368L13.9118 38.8439ZM13.8916 38.8194L13.9083 38.8403L14.6891 38.2155L14.6724 38.1947L13.8916 38.8194ZM13.9146 38.848C13.9475 38.8874 13.9609 38.908 13.967 38.9194L14.8475 38.4454C14.7952 38.3483 14.7335 38.2686 14.6828 38.2078L13.9146 38.848ZM13.9073 38.6824V38.6866H14.9073V38.6824H13.9073ZM13.9742 38.9365L16.1577 42.7189L17.0237 42.219L14.8403 38.4366L13.9742 38.9365ZM17.0763 42.5881C18.4218 37.1031 21.072 32.1315 24.6735 28.0154L23.921 27.3569C20.2168 31.5902 17.4898 36.705 16.1051 42.3498L17.0763 42.5881ZM24.6733 28.0157C28.7237 23.3932 33.9794 19.8499 39.9543 17.8871L39.6422 16.9371C33.4933 18.957 28.0868 22.6027 23.9212 27.3566L24.6733 28.0157ZM40.2982 17.4121V10.3902H39.2982V17.4121H40.2982ZM39.6672 9.90762C31.0778 12.2398 23.5667 17.1996 18.055 23.8734L18.8261 24.5102C24.2092 17.992 31.544 13.1494 39.9292 10.8727L39.6672 9.90762ZM18.0546 23.874C13.3322 29.6101 10.0701 36.6097 8.87019 44.2912L9.8582 44.4456C11.0296 36.9467 14.2142 30.1122 18.8266 24.5096L18.0546 23.874ZM60.2616 82.7884V78.718H59.2616V82.7884H60.2616ZM59.5116 78.285L51.0661 83.1611L51.5661 84.0272L60.0116 79.151L59.5116 78.285ZM51.0659 83.1612L42.6204 88.0415L43.1208 88.9073L51.5662 84.0271L51.0659 83.1612ZM42.6205 88.9074L50.5066 93.462L51.0068 92.5961L43.1207 88.0415L42.6205 88.9074ZM50.2567 93.0291V93.0332H51.2567V93.0291H50.2567ZM50.5331 93.4805C50.527 93.4774 50.5222 93.4748 50.5193 93.4732C50.5163 93.4716 50.5141 93.4703 50.5131 93.4697C50.5116 93.4689 50.5107 93.4683 50.5141 93.4703C50.516 93.4715 50.522 93.4751 50.5285 93.4789C50.532 93.4809 50.5366 93.4835 50.5419 93.4864C50.5471 93.4893 50.5541 93.493 50.5623 93.4972L51.0095 92.6027C51.0157 92.6058 51.0205 92.6084 51.0233 92.61C51.0263 92.6116 51.0285 92.6129 51.0295 92.6134C51.0311 92.6143 51.0319 92.6148 51.0286 92.6128C51.0267 92.6117 51.0206 92.6081 51.0141 92.6043C51.0106 92.6023 51.006 92.5997 51.0007 92.5967C50.9955 92.5939 50.9885 92.5901 50.9803 92.586L50.5331 93.4805ZM50.5368 93.4834L51.0669 93.7882L51.5653 92.9212L51.0351 92.6165L50.5368 93.4834ZM51.0661 93.7877L59.5116 98.6638L60.0116 97.7978L51.5661 92.9217L51.0661 93.7877ZM60.2616 98.2308L60.2616 82.7884H59.2616L59.2616 98.2308H60.2616ZM88.3793 59.4449L88.3501 59.4867L89.1693 60.0601L89.1985 60.0184L88.3793 59.4449ZM40.5659 88.9139C40.5485 88.9047 40.5221 88.8865 40.4801 88.8475L39.7997 89.5803C39.8746 89.6498 39.9734 89.7317 40.098 89.7977L40.5659 88.9139ZM40.4934 88.8603L40.4851 88.852L39.778 89.5591L39.7863 89.5674L40.4934 88.8603ZM40.3551 88.7583L40.3468 88.7541L39.8996 89.6486L39.9079 89.6527L40.3551 88.7583ZM40.4767 88.8478L40.4517 88.8228L39.7446 89.5299L39.7696 89.5549L40.4767 88.8478ZM40.0981 88.6763H40.094V89.6763H40.0981V88.6763ZM40.4475 88.8228L40.4183 88.7935L39.7112 89.5006L39.7404 89.5299L40.4475 88.8228ZM40.5119 88.9235L40.5078 88.9151L39.6133 89.3623L39.6175 89.3707L40.5119 88.9235ZM40.4332 88.8053C40.4001 88.7684 40.3691 88.7213 40.3366 88.6563L39.4422 89.1035C39.5015 89.2222 39.579 89.3504 39.6879 89.4721L40.4332 88.8053ZM40.3366 88.6563L40.3283 88.6396L39.4338 89.0868L39.4422 89.1035L40.3366 88.6563ZM40.381 88.8632V88.859H39.381V88.8632H40.381ZM40.3453 88.6733L40.3369 88.6525L39.4085 89.0238L39.4168 89.0447L40.3453 88.6733ZM40.2261 88.4844L40.2219 88.4802L39.5151 89.1877L39.5193 89.1919L40.2261 88.4844ZM40.3301 88.6417C40.3128 88.6002 40.3009 88.5489 40.2958 88.4877L39.2993 88.5707C39.3109 88.7099 39.3408 88.8674 39.407 89.0263L40.3301 88.6417ZM40.2975 88.5292V88.4582H39.2975V88.5292H40.2975ZM40.2975 88.4582C40.2975 88.381 40.3148 88.3037 40.3491 88.2352L39.4547 87.7879C39.347 88.0033 39.2975 88.2349 39.2975 88.4582H40.2975ZM40.3661 88.1973L40.3745 88.1764L39.4461 87.8049L39.4377 87.8258L40.3661 88.1973ZM40.4103 87.9907V87.9865H39.4103V87.9907H40.4103ZM40.339 88.2437L40.3515 88.2229L39.494 87.7084L39.4815 87.7292L40.339 88.2437ZM40.3971 88.1237C40.3876 88.1525 40.3769 88.1747 40.3695 88.1889C40.3659 88.1958 40.3629 88.201 40.3613 88.2038C40.3599 88.2062 40.3588 88.208 40.3599 88.2062C40.3604 88.2054 40.363 88.2009 40.3659 88.1959C40.3691 88.1905 40.3736 88.1826 40.3786 88.173C40.3889 88.1534 40.4022 88.1254 40.4138 88.0904L39.4652 87.7741C39.4747 87.7454 39.4854 87.7231 39.4928 87.7089C39.4964 87.702 39.4994 87.6968 39.501 87.6941C39.5024 87.6917 39.5035 87.6899 39.5024 87.6917C39.5019 87.6925 39.4992 87.6969 39.4963 87.7019C39.4932 87.7073 39.4887 87.7152 39.4837 87.7249C39.4734 87.7445 39.4601 87.7725 39.4484 87.8075L40.3971 88.1237ZM40.3867 88.1558L40.3909 88.1475L39.4964 87.7003L39.4923 87.7086L40.3867 88.1558ZM40.418 88.082C40.3983 88.1411 40.3711 88.1811 40.3621 88.1939C40.3593 88.198 40.3554 88.2033 40.3606 88.1961C40.3638 88.1918 40.3716 88.1812 40.3806 88.1678L39.5485 87.6131C39.5533 87.606 39.5569 87.6011 39.5561 87.6023C39.5558 87.6026 39.5556 87.6028 39.5549 87.6038C39.5544 87.6045 39.5534 87.6058 39.5524 87.6072C39.5504 87.61 39.5469 87.6147 39.5429 87.6204C39.5266 87.6437 39.4932 87.6942 39.4693 87.7658L40.418 88.082ZM40.4118 88.1139L40.416 88.1056L39.5214 87.6587L39.5172 87.667L40.4118 88.1139ZM40.3847 88.1595C40.3902 88.1512 40.3947 88.1442 40.3965 88.1413C40.3994 88.1368 40.3975 88.1399 40.3951 88.1433C40.3879 88.1542 40.3705 88.1791 40.3431 88.2065L39.6361 87.4993C39.6003 87.5351 39.5766 87.5683 39.5632 87.5886C39.5577 87.5967 39.5526 87.6048 39.5521 87.6056C39.5506 87.608 39.5514 87.6068 39.5527 87.6048L40.3847 88.1595ZM40.4368 88.0765L40.441 88.0682L39.5465 87.6209L39.5424 87.6293L40.4368 88.0765ZM40.4098 88.1218L40.4182 88.1093L39.586 87.5548L39.5777 87.5673L40.4098 88.1218ZM40.3556 88.1856L40.3723 88.1689L39.6653 87.4617L39.6486 87.4784L40.3556 88.1856ZM40.4348 88.0927L40.4432 88.0802L39.6111 87.5255L39.6028 87.538L40.4348 88.0927ZM40.4744 88.0264L40.4785 88.0181L39.5841 87.5708L39.5799 87.5792L40.4744 88.0264ZM40.3849 88.148L40.4016 88.1313L39.6945 87.4242L39.6778 87.4409L40.3849 88.148ZM39.7356 88.1682L39.7565 88.1849L40.3813 87.4041L40.3604 87.3874L39.7356 88.1682ZM40.4225 88.148C40.4475 88.123 40.4659 88.1003 40.472 88.0929C40.4746 88.0897 40.4739 88.0906 40.475 88.0892C40.4755 88.0887 40.4747 88.0895 40.4735 88.091C40.4714 88.0935 40.4635 88.1028 40.4517 88.1146L39.7446 87.4075C39.7286 87.4235 39.7165 87.4375 39.7101 87.445C39.7067 87.4491 39.7038 87.4526 39.702 87.4548C39.701 87.456 39.7002 87.457 39.6996 87.4578C39.6989 87.4586 39.6985 87.4591 39.6981 87.4595C39.6948 87.4636 39.7029 87.4534 39.7153 87.4409L40.4225 88.148ZM40.4616 88.1044C40.4924 88.0718 40.5302 88.0423 40.5842 88.0115L40.088 87.1432C39.9666 87.2126 39.8458 87.3 39.7346 87.4177L40.4616 88.1044ZM40.5859 88.0105L44.2054 85.9231L43.7058 85.0569L40.0863 87.1442L40.5859 88.0105ZM44.0528 84.9995C37.9502 83.7898 32.419 80.9832 27.9166 77.0319L27.257 77.7835C31.888 81.8477 37.5786 84.7356 43.8584 85.9805L44.0528 84.9995ZM27.9168 77.0321C22.8621 72.5908 19.1049 66.7052 17.2944 60.0264L16.3292 60.288C18.1924 67.1612 22.0582 73.2156 27.2568 77.7833L27.9168 77.0321ZM16.8118 59.6572H9.88168V60.6572H16.8118V59.6572ZM9.39387 60.2669C11.4768 69.5281 16.5845 77.647 23.6214 83.5273L24.2626 82.7599C17.3897 77.0167 12.4029 69.0884 10.3695 60.0475L9.39387 60.2669ZM23.6214 83.5273C29.8057 88.6935 37.4859 92.1369 45.9146 93.1087L46.0291 92.1153C37.8005 91.1665 30.302 87.8051 24.2625 82.7599L23.6214 83.5273ZM46.2219 92.179L40.5819 88.9228L40.0819 89.7888L45.7219 93.045L46.2219 92.179ZM58.9932 13.1088L50.7689 8.35794L50.2687 9.22384L58.493 13.9747L58.9932 13.1088ZM50.7669 8.35677L50.7376 8.34007L50.2415 9.20831L50.2707 9.22501L50.7669 8.35677ZM50.7391 8.34088L50.6013 8.26156L50.1023 9.12818L50.2401 9.20751L50.7391 8.34088ZM50.5375 8.23063C50.5508 8.23597 50.5606 8.2408 50.5652 8.24317C50.5688 8.24504 50.5712 8.24642 50.5654 8.24318C50.5618 8.2412 50.5501 8.2346 50.5368 8.22778C50.5225 8.22045 50.5028 8.21092 50.479 8.20141L50.1077 9.12989C50.0943 9.12455 50.0846 9.11972 50.08 9.11735C50.0763 9.11548 50.0739 9.1141 50.0798 9.11734C50.0833 9.11932 50.0951 9.12592 50.1084 9.13274C50.1227 9.14007 50.1423 9.1496 50.1661 9.15911L50.5375 8.23063ZM50.5435 8.23269L42.1021 3.35658L41.602 4.22249L50.0433 9.09861L50.5435 8.23269ZM41.352 3.78954V23.294H42.352V3.78954H41.352ZM42.1021 23.7269L50.4934 18.88L49.9933 18.0141L41.602 22.861L42.1021 23.7269ZM50.5433 18.8471C50.5303 18.8569 50.5206 18.8624 50.5224 18.8613C50.5229 18.8611 50.5237 18.8606 50.5254 18.8596C50.5276 18.8583 50.5286 18.8577 50.532 18.8558C50.5374 18.8527 50.5456 18.848 50.5549 18.8424L50.0404 17.9849C50.0392 17.9856 50.0374 17.9866 50.0333 17.989C50.0304 17.9907 50.0226 17.9952 50.0154 17.9994C49.9995 18.0087 49.9731 18.0247 49.9434 18.047L50.5433 18.8471ZM50.5475 18.8468L58.9929 13.9748L58.4932 13.1086L50.0478 17.9805L50.5475 18.8468Z" fill="#3C7CFF" mask="url(#path-1-outside-1_120_83)"/>
</svg>
