<svg width="100" height="100" viewBox="0 0 100 100" fill="none" xmlns="http://www.w3.org/2000/svg">
<path fill-rule="evenodd" clip-rule="evenodd" d="M64.1077 90.9891C65.8463 90.3912 67.7418 91.3198 68.3397 93.0584C68.9376 94.797 68.0089 96.6925 66.2704 97.2903C61.063 99.084 55.5037 100 49.9999 100C22.3854 100 0 77.6146 0 50C0 37.8939 4.37189 26.2403 12.3266 17.1368H7.44153C5.60965 17.1368 4.12123 15.6484 4.12123 13.8165C4.12123 11.9846 5.60965 10.4962 7.44153 10.4962H20.1882C22.0201 10.4962 23.5085 11.9846 23.5085 13.8165L23.5212 26.5588C23.5212 28.3992 22.0286 29.8918 20.1882 29.8918C18.3479 29.8918 16.8552 28.3992 16.8552 26.5588V22.0682C10.2486 29.9003 6.66538 39.7466 6.66538 49.9997C6.66538 73.9331 26.0655 93.3332 49.9989 93.3332C54.833 93.3332 59.5358 92.5615 64.1069 90.9882L64.1077 90.9891ZM20.1717 45.5224C38.9444 45.3952 49.2746 36.2824 55.5925 28.2674L58.3828 29.4675C59.0104 29.7389 59.7059 29.1791 59.5277 28.488L56.9791 18.6034C56.8434 18.0733 56.2413 17.8104 55.7621 18.0775L46.8401 23.0346C46.2167 23.3824 46.2888 24.2686 46.9164 24.5358L49.2359 25.5323C46.6959 30.1459 39.5927 38.6193 20.1717 45.5224ZM18.7087 56.4584C18.2634 56.4584 17.903 56.8231 17.903 57.2641V70.1421C17.903 70.5874 18.2677 70.9478 18.7087 70.9478H25.8921C26.3373 70.9478 26.6978 70.5831 26.6978 70.1421L26.702 57.2684C26.702 56.8232 26.3373 56.4627 25.8963 56.4627L18.7087 56.4584ZM73.5166 36.9563H76.0185C76.8581 36.9563 77.3288 35.9937 76.8072 35.3321L70.6925 27.5381C69.8868 26.5119 68.3347 26.5119 67.5333 27.5381L61.4185 35.3321C60.9012 35.9937 61.3719 36.9563 62.2072 36.9563H64.7091V70.1463C64.7091 70.5915 65.0738 70.952 65.5148 70.952H72.6982C73.1435 70.952 73.5039 70.5873 73.5039 70.1463L73.5166 36.9563ZM49.923 43.4569C49.4777 43.4569 49.1173 43.8216 49.1173 44.2626V70.1424C49.1173 70.5877 49.482 70.9481 49.923 70.9481H57.1064C57.5516 70.9481 57.9121 70.5835 57.9121 70.1424V44.2626C57.9121 43.8174 57.5474 43.4569 57.1064 43.4569H49.923ZM34.318 49.9576C33.8728 49.9576 33.5123 50.3223 33.5123 50.7633V70.1428C33.5123 70.588 33.877 70.9485 34.318 70.9485H41.5014C41.9467 70.9485 42.3071 70.5838 42.3071 70.1428V50.7633C42.3071 50.318 41.9424 49.9576 41.5014 49.9576H34.318ZM92.5563 82.8632H87.667C95.6179 73.742 99.9979 62.1061 99.9979 49.9999C99.9979 22.3854 77.6125 0 49.998 0C44.4896 0 38.935 0.920188 33.7276 2.70967C31.9889 3.30758 31.0603 5.19887 31.6583 6.94163C32.2562 8.68027 34.1475 9.60886 35.8902 9.01093C40.4614 7.43773 45.1642 6.6659 49.9982 6.6659C73.9316 6.6659 93.3317 26.066 93.3317 49.9994C93.3317 60.274 89.774 70.078 83.1461 77.9309L83.1418 73.4403C83.1418 71.5999 81.6492 70.1073 79.8088 70.1073C77.9685 70.1073 76.4758 71.5999 76.4758 73.4403L76.4886 86.187C76.4886 88.0189 77.977 89.5073 79.8089 89.5073H92.5555C94.3874 89.5073 95.8759 88.0189 95.8759 86.187C95.8759 84.3508 94.3882 82.8632 92.5563 82.8632Z" fill="#3C7CFF"/>
</svg>
