<svg width="119" height="102" viewBox="0 0 119 102" fill="none" xmlns="http://www.w3.org/2000/svg">
<path d="M72.8834 20.0371L72.8833 20.0371C72.6496 19.8566 72.362 19.7565 72.0654 19.7565L11.6406 19.7566C10.9042 19.7566 10.3073 20.3537 10.3073 21.09C10.3073 21.8261 10.9042 22.4232 11.6406 22.4232H71.6086L75.4885 25.4366C75.4885 25.4366 75.4886 25.4367 75.4887 25.4367C75.7227 25.6202 76.0106 25.7172 76.3065 25.7172H107.924C108.661 25.7173 109.257 25.12 109.257 24.3839C109.257 23.6478 108.661 23.0504 107.924 23.0504H76.7633L72.8834 20.0371Z" fill="#3C7CFF" stroke="#3C7CFF" stroke-width="0.1"/>
<path d="M79.2375 19.346H81.4074C82.1438 19.346 82.7408 18.7487 82.7407 18.0127C82.7407 17.2766 82.1439 16.6793 81.4074 16.6793L79.2374 16.6794C78.501 16.6794 77.9041 17.2765 77.9041 18.0127C77.9041 18.7488 78.501 19.346 79.2375 19.346Z" fill="#3C7CFF" stroke="#3C7CFF" stroke-width="0.1"/>
<path d="M88.9001 19.346H91.0697C91.8061 19.346 92.4033 18.7487 92.4033 18.0127C92.4033 17.2765 91.8061 16.6793 91.0697 16.6793L88.9 16.6794C88.1636 16.6794 87.5667 17.2765 87.5667 18.0127C87.5667 18.7488 88.1636 19.346 88.9001 19.346Z" fill="#3C7CFF" stroke="#3C7CFF" stroke-width="0.1"/>
<path d="M98.5679 19.346H100.738C101.474 19.346 102.071 18.7487 102.071 18.0127C102.071 17.2766 101.474 16.6793 100.738 16.6793L98.5679 16.6794C97.8318 16.6794 97.2345 17.2765 97.2345 18.0127C97.2345 18.7488 97.8318 19.346 98.5679 19.346Z" fill="#3C7CFF" stroke="#3C7CFF" stroke-width="0.1"/>
<path d="M115.945 3.61675V77.5074H3.61701V3.61675H115.945ZM2.2834 80.1741H117.278C118.014 80.1742 118.611 79.5768 118.611 78.8408V2.28348C118.611 1.54733 118.014 0.95 117.278 0.95L2.2834 0.950076C1.54709 0.950076 0.95 1.54732 0.95 2.2834V78.8409C0.95 79.577 1.54709 80.1741 2.2834 80.1741Z" fill="#3C7CFF" stroke="#3C7CFF" stroke-width="0.1"/>
<path d="M106.591 12.9718V68.1523H12.974V12.9718H106.591ZM11.6406 70.8189H107.924C108.66 70.819 109.257 70.2218 109.257 69.4858V11.6386C109.257 10.9025 108.661 10.3052 107.924 10.3052H11.6406C10.9042 10.3052 10.3073 10.9024 10.3073 11.6386V69.4857C10.3073 70.2218 10.9042 70.8189 11.6406 70.8189Z" fill="#3C7CFF" stroke="#3C7CFF" stroke-width="0.1"/>
<path d="M77.0072 79.0352C77.1148 78.3073 76.6111 77.6295 75.8826 77.5213C75.1536 77.413 74.4763 77.9185 74.3691 78.6463C73.313 85.8099 75.2394 92.4372 80.0941 98.3832L39.47 98.3833C44.3246 92.4374 46.251 85.8098 45.1949 78.6464C45.0876 77.9187 44.4105 77.4129 43.6814 77.5214C42.9529 77.6297 42.4495 78.3073 42.5567 79.0353L42.5567 79.0353C43.6359 86.3569 41.3424 92.8173 35.5371 98.7887C35.1634 99.1721 35.0565 99.7416 35.2651 100.236C35.4735 100.731 35.9574 101.05 36.4932 101.05H83.0708C83.6066 101.05 84.0905 100.73 84.2989 100.236C84.5074 99.7416 84.4006 99.172 84.0269 98.7886C78.2216 92.8173 75.928 86.3568 77.0072 79.0352Z" fill="#3C7CFF" stroke="#3C7CFF" stroke-width="0.1"/>
<path d="M60.0479 92.5984H59.5169C55.3558 92.5984 51.9708 89.2154 51.9708 85.0543V78.8407C51.9708 78.1044 52.5677 77.5073 53.3041 77.5073L60.0479 92.5984ZM60.0479 92.5984C64.2089 92.5985 67.594 89.2154 67.594 85.0542V78.8407C67.594 78.1046 66.9971 77.5072 66.2607 77.5073C65.5242 77.5073 64.9273 78.1044 64.9273 78.8407V85.0543C64.9273 87.743 62.7383 89.9318 60.0479 89.9318H59.5168C56.8264 89.9318 54.6375 87.743 54.6375 85.0542V78.8407C54.6375 78.1046 54.0406 77.5073 53.3041 77.5073L60.0479 92.5984Z" fill="#3C7CFF" stroke="#3C7CFF" stroke-width="0.1"/>
<path d="M31.5115 48.2213C26.9977 48.2213 23.3257 44.5494 23.3257 40.0354C23.3257 36.8153 25.224 33.8833 28.1619 32.565L31.5115 48.2213ZM31.5115 48.2213C36.0252 48.2213 39.6971 44.5493 39.6971 40.0354C39.6971 36.8154 37.7988 33.8832 34.8607 32.565C34.4483 32.379 33.9699 32.415 33.5903 32.6622C33.2105 32.9068 32.9814 33.329 32.9814 33.7817V38.1665C32.9814 38.9784 32.3218 39.6378 31.5115 39.6378C30.7009 39.6378 30.0415 38.9783 30.0415 38.1664V33.7817C30.0415 33.3291 29.8124 32.9068 29.4326 32.6622M31.5115 48.2213L29.4326 32.6622M29.4326 32.6622C29.0531 32.4151 28.5745 32.3789 28.162 32.565L29.4326 32.6622ZM25.9925 40.0354C25.9925 38.6679 26.5017 37.3747 27.3749 36.3847L27.3749 38.1665C27.3749 40.448 29.2305 42.3044 31.5115 42.3045C33.7925 42.3045 35.6479 40.4479 35.6479 38.1664V36.3848C36.5213 37.3748 37.0304 38.6677 37.0304 40.0354C37.0304 43.0798 34.5545 45.5546 31.5115 45.5547C28.4684 45.5547 25.9925 43.0797 25.9925 40.0354Z" fill="#3C7CFF" stroke="#3C7CFF" stroke-width="0.1"/>
<path d="M27.0866 64.2914L27.0865 64.2913C26.1615 63.3648 25.652 62.1384 25.6521 60.8337V45.1793C25.6521 44.4432 26.2491 43.8461 26.9855 43.8461L27.0866 64.2914ZM27.0866 64.2914C28.0115 65.215 29.2391 65.7256 30.5427 65.7256H32.4805C35.177 65.7257 37.3712 63.5321 37.3712 60.8335V45.1794C37.3712 44.4433 36.774 43.846 36.0376 43.8461C35.3012 43.8461 34.7042 44.4431 34.7042 45.1793L34.7042 60.8337C34.7042 62.06 33.7066 63.0588 32.4805 63.0588L30.5427 63.0589C29.9513 63.0589 29.3937 62.8263 28.9722 62.4052L28.9369 62.4405M27.0866 64.2914L28.9369 62.4405M28.9369 62.4405L28.9722 62.4052C28.5505 61.984 28.3187 61.4271 28.3187 60.8335V45.1794C28.3187 44.4433 27.7219 43.846 26.9855 43.8461L28.9369 62.4405Z" fill="#3C7CFF" stroke="#3C7CFF" stroke-width="0.1"/>
<path d="M26.4504 51.6021L26.4501 51.602C25.291 51.094 24.2255 50.4228 23.2716 49.5986L22.6572 49.9524L26.4504 51.6021ZM26.4504 51.6021C26.6243 51.677 26.8059 51.713 26.9845 51.713C27.4977 51.7131 27.9873 51.4159 28.2065 50.9158L28.2065 50.9158C28.502 50.2409 28.1948 49.4546 27.5202 49.1602C26.3545 48.6494 25.3088 47.9285 24.4117 47.016M26.4504 51.6021L41.1076 42.6957M19.1615 49.0172L19.1615 49.0171L17.5588 46.2391C17.5588 46.2391 17.5588 46.2391 17.5588 46.2391C16.8534 45.0175 17.2734 43.4496 18.4956 42.7459L19.1087 42.3921C18.9623 41.6168 18.8884 40.8287 18.8884 40.0354C18.8884 39.2422 18.9623 38.4541 19.1085 37.6814L18.4954 37.3275L18.4954 37.3275C17.9049 36.9865 17.4817 36.4329 17.3046 35.7732L17.3045 35.7732C17.1275 35.1107 17.2177 34.4207 17.5589 33.8316L19.1615 49.0172ZM19.1615 49.0172C19.5025 49.606 20.0544 50.0315 20.7157 50.2061M19.1615 49.0172L20.7157 50.2061M40.3655 49.9525L39.7507 49.5985C38.7971 50.4228 37.7317 51.0941 36.5728 51.602L36.5728 51.602C35.8985 51.8963 35.1117 51.5909 34.8162 50.9158C34.5206 50.2408 34.8275 49.4547 35.502 49.1602C36.6676 48.6494 37.7136 47.926 38.6107 47.0161C39.0369 46.5799 39.7021 46.4911 40.2283 46.7939L40.2284 46.7939L41.6056 47.5895L43.1004 44.9999L41.726 44.2068L40.3655 49.9525ZM40.3655 49.9525C41.5873 50.6588 43.1554 50.2388 43.8612 49.017L43.8612 49.017L45.4638 46.2392C45.4638 46.2392 45.4638 46.2392 45.4638 46.2392C46.1693 45.0175 45.7494 43.4495 44.527 42.7459L43.914 42.3921C44.0602 41.6169 44.1342 40.8286 44.1342 40.0354C44.1342 39.2422 44.0602 38.454 43.9141 37.6813L44.5268 37.3275C45.1177 36.9867 45.541 36.4328 45.7182 35.7732L45.7183 35.7732M40.3655 49.9525L45.7183 35.7732M45.7183 35.7732C45.8951 35.1108 45.805 34.4205 45.4638 33.8315L45.7183 35.7732ZM41.1076 42.6957L41.1076 42.6956C41.3465 41.8338 41.4672 40.9373 41.4672 40.0354C41.4672 39.1333 41.3465 38.2369 41.1076 37.3751L41.1076 37.375C40.9459 36.7889 41.2001 36.1695 41.7257 35.864L41.7259 35.8639L43.1004 35.0707L41.6053 32.481L40.2284 33.2768L40.2283 33.2769C39.7021 33.5796 39.037 33.4909 38.6108 33.0574L38.6108 33.0574C37.3402 31.7645 35.748 30.844 34.0067 30.3945L34.0067 30.3944C33.4178 30.2417 33.0065 29.7112 33.0065 29.1028V27.5164H30.0163V29.1027C30.0163 29.7111 29.6048 30.2417 29.016 30.3944L29.0159 30.3945C27.2746 30.844 25.6824 31.7644 24.4117 33.0574L24.376 33.0224L24.4117 33.0574C23.9856 33.4908 23.3203 33.5796 22.7942 33.2769L22.7941 33.2769L21.4173 32.481L19.9222 35.0707L21.2967 35.8639L21.2968 35.8639C21.8228 36.1695 22.0771 36.7889 21.9149 37.375L21.9149 37.3751C21.6762 38.2368 21.5552 39.1335 21.5552 40.0354C21.5552 40.9373 21.6763 41.8338 21.9151 42.6956L21.9151 42.6957C22.077 43.2817 21.8228 43.9039 21.2965 44.2069L19.9222 44.9999L21.4172 47.5895L22.7942 46.7939L22.7943 46.7939C23.32 46.4911 23.9855 46.5799 24.4117 47.016M41.1076 42.6957C40.9456 43.2817 41.1997 43.9039 41.7259 44.2067L41.1076 42.6957ZM24.4117 47.016C24.4117 47.0161 24.4117 47.0161 24.4118 47.0161L24.376 47.0511L24.4117 47.016C24.4117 47.016 24.4117 47.016 24.4117 47.016ZM20.7157 50.2061C21.3766 50.3834 22.0662 50.2932 22.6571 49.9524L20.7157 50.2061ZM19.1617 31.0536L17.5589 33.8315L22.6568 30.1183C21.4346 29.412 19.8666 29.8319 19.1617 31.0536L19.205 31.0786L19.1617 31.0536ZM23.2722 30.4722L22.6569 30.1183L45.4637 33.8314L43.8609 31.0537L43.8176 31.0786L43.8609 31.0536C43.1556 29.8319 41.5874 29.4148 40.3654 30.1183L39.7504 30.4722C38.5486 29.4364 37.165 28.638 35.6731 28.1155V27.4104C35.6731 25.9979 34.5252 24.8498 33.1142 24.8498H29.9085C28.4975 24.8498 27.3494 25.9978 27.3494 27.4103V28.1155C25.8576 28.638 24.4741 29.4364 23.2722 30.4722Z" fill="#3C7CFF" stroke="#3C7CFF" stroke-width="0.1"/>
<path d="M54.6215 31.5171V31.5171C54.6215 32.2533 55.2185 32.8503 55.9549 32.8503H101.008C101.745 32.8504 102.342 32.2532 102.342 31.5171C102.342 30.7809 101.745 30.1838 101.008 30.1838H55.9549C55.2185 30.1838 54.6216 30.7809 54.6215 31.5171Z" fill="#3C7CFF" stroke="#3C7CFF" stroke-width="0.1"/>
<path d="M54.6215 40.6983V40.6983C54.6215 41.4344 55.2185 42.0315 55.9549 42.0315H101.008C101.745 42.0316 102.342 41.4344 102.342 40.6983C102.342 39.9621 101.745 39.3648 101.008 39.3648L55.9549 39.3649C55.2185 39.3649 54.6216 39.9621 54.6215 40.6983Z" fill="#3C7CFF" stroke="#3C7CFF" stroke-width="0.1"/>
<path d="M54.6215 49.8772V49.8772C54.6215 50.6133 55.2185 51.2104 55.9549 51.2104H101.008C101.745 51.2105 102.342 50.6132 102.342 49.8772C102.342 49.1411 101.745 48.5438 101.008 48.5438H55.9549C55.2185 48.5438 54.6216 49.141 54.6215 49.8772Z" fill="#3C7CFF" stroke="#3C7CFF" stroke-width="0.1"/>
<path d="M54.6215 59.0586V59.0586C54.6215 59.7947 55.2185 60.3919 55.9549 60.3919H101.008C101.745 60.3919 102.342 59.7946 102.342 59.0586C102.342 58.3224 101.745 57.7251 101.008 57.7251L55.9549 57.7252C55.2185 57.7252 54.6216 58.3224 54.6215 59.0586Z" fill="#3C7CFF" stroke="#3C7CFF" stroke-width="0.1"/>
</svg>
