<svg width="100" height="85" viewBox="0 0 100 85" fill="none" xmlns="http://www.w3.org/2000/svg">
<path d="M100 22.5036V8.74656C100 4.05486 96.3294 0.333374 91.8187 0.333374H8.18043C3.66979 0.333374 0 4.05486 0 8.74656V76.1755C0 80.8672 3.66979 84.5887 8.18043 84.5887H91.8187C96.3294 84.5887 100 80.8672 100 76.1755V22.5355C100 22.53 100 22.5246 100 22.5191C100 22.5136 100 22.5083 100 22.5036ZM8.18043 3.3121H91.8187C94.6868 3.3121 97.0213 5.69742 97.0213 8.74656V20.9717H2.97872V8.74656C2.97872 5.69742 5.31234 3.3121 8.18043 3.3121ZM91.8187 81.61H8.18043C5.31234 81.61 2.97872 79.2246 2.97872 76.1755V23.9504H97.0213V76.1755C97.0213 79.2246 94.6868 81.61 91.8187 81.61Z" fill="#3C7CFF"/>
<path d="M26.0235 18.4253C29.3043 18.4253 31.9737 15.6578 31.9737 12.2563C31.9737 8.85485 29.3043 6.0874 26.0235 6.0874C22.7426 6.0874 20.0732 8.85485 20.0732 12.2563C20.0732 15.6578 22.7424 18.4253 26.0235 18.4253ZM26.0235 9.06613C27.6618 9.06613 28.9949 10.4974 28.9949 12.2563C28.9949 14.0153 27.662 15.4466 26.0235 15.4466C24.3849 15.4466 23.052 14.0155 23.052 12.2563C23.052 10.4972 24.3847 9.06613 26.0235 9.06613Z" fill="#3C7CFF"/>
<path d="M40.5208 18.4253C43.8016 18.4253 46.471 15.6578 46.471 12.2563C46.471 8.85485 43.8016 6.0874 40.5208 6.0874C37.2399 6.0874 34.5706 8.85485 34.5706 12.2563C34.5706 15.6578 37.2399 18.4253 40.5208 18.4253ZM40.5208 9.06613C42.1591 9.06613 43.4923 10.4974 43.4923 12.2563C43.4923 14.0153 42.1593 15.4466 40.5208 15.4466C38.8823 15.4466 37.5493 14.0155 37.5493 12.2563C37.5493 10.4972 38.8823 9.06613 40.5208 9.06613Z" fill="#3C7CFF"/>
<path d="M11.526 18.4253C14.8069 18.4253 17.4762 15.6578 17.4762 12.2563C17.4762 8.85485 14.8069 6.0874 11.526 6.0874C8.24517 6.0874 5.57581 8.85485 5.57581 12.2563C5.57581 15.6578 8.24517 18.4253 11.526 18.4253ZM11.526 9.06613C13.1643 9.06613 14.4975 10.4974 14.4975 12.2563C14.4975 14.0153 13.1645 15.4466 11.526 15.4466C9.88751 15.4466 8.55453 14.0155 8.55453 12.2563C8.55453 10.4972 9.88751 9.06613 11.526 9.06613Z" fill="#3C7CFF"/>
<path d="M69.391 48.844H67.4468V46.3087C67.4468 37.3559 59.7251 30.0223 50.3191 29.9608C40.9172 29.9608 33.1915 37.2944 33.1915 46.3087V48.844H30.6089C30.4142 48.846 30.2218 48.8865 30.0429 48.9632C29.8639 49.0399 29.7019 49.1513 29.5661 49.2909C29.4304 49.4305 29.3237 49.5956 29.2521 49.7767C29.1805 49.9578 29.1454 50.1512 29.1489 50.3459V64.0832C29.1489 64.9057 29.7872 65.6525 30.6089 65.6525H38.8823C39.291 65.6365 39.6782 65.4653 39.9649 65.1737C40.2517 64.882 40.4164 64.492 40.4255 64.0832V50.3459C40.4138 49.9442 40.2462 49.5627 39.9581 49.2824C39.6701 49.0021 39.2843 48.8448 38.8823 48.844H36.1702V46.3087C36.1702 38.937 42.5598 32.9395 50.3094 32.9395C58.074 32.9904 64.4681 38.9878 64.4681 46.3087V48.844H61.7049C61.3083 48.8467 60.9288 49.0061 60.6493 49.2875C60.3698 49.5688 60.2129 49.9493 60.2127 50.3459V64.0832C60.2104 64.4869 60.3645 64.8758 60.6427 65.1684C60.9209 65.461 61.3016 65.6345 61.7049 65.6525H63.617V68.3849C63.617 69.4202 62.8193 70.3334 61.7842 70.3334H57.4413C57.1169 69.291 56.4299 68.3992 55.5048 67.8196C54.5797 67.2399 53.4776 67.0107 52.3981 67.1735C51.3186 67.3362 50.333 67.8802 49.6199 68.7068C48.9068 69.5334 48.5133 70.5881 48.5106 71.6798C48.505 72.7543 48.8775 73.7965 49.5629 74.624C50.2484 75.4515 51.203 76.0116 52.2598 76.2062C53.3165 76.4008 54.408 76.2175 55.3433 75.6884C56.2785 75.1593 56.9978 74.3181 57.3753 73.3121H61.7842C64.4619 73.3121 66.5957 71.0625 66.5957 68.3849V65.6525H69.391C70.2127 65.6525 70.851 64.9057 70.851 64.0832V50.3459C70.8546 50.1512 70.8195 49.9578 70.7479 49.7767C70.6763 49.5956 70.5696 49.4305 70.4338 49.2909C70.2981 49.1513 70.1361 49.0399 69.9571 48.9632C69.7781 48.8865 69.5858 48.846 69.391 48.844ZM37.4468 62.6738H32.1276V51.8227H37.4468V62.6738ZM53.0864 73.2591C52.7705 73.2591 52.4617 73.1655 52.1991 72.99C51.9365 72.8145 51.7318 72.5651 51.6109 72.2733C51.49 71.9814 51.4584 71.6603 51.52 71.3505C51.5817 71.0407 51.7338 70.7562 51.9571 70.5328C52.1805 70.3095 52.465 70.1574 52.7748 70.0958C53.0846 70.0341 53.4057 70.0658 53.6975 70.1866C53.9893 70.3075 54.2388 70.5122 54.4142 70.7748C54.5897 71.0375 54.6834 71.3462 54.6834 71.6621C54.6829 72.0855 54.5145 72.4915 54.2151 72.7909C53.9157 73.0903 53.5098 73.2587 53.0864 73.2591ZM67.8723 62.6738H63.1915V51.8227H67.8723V62.6738Z" fill="#3C7CFF"/>
</svg>
