<svg width="100" height="99" viewBox="0 0 100 99" fill="none" xmlns="http://www.w3.org/2000/svg">
<path d="M93.8317 43.0446C93.3993 31.709 88.5921 20.9817 80.4193 13.1148C72.2466 5.24781 61.3438 0.853027 50 0.853027C38.6561 0.853027 27.7534 5.24781 19.5807 13.1148C11.4079 20.9817 6.60072 31.709 6.16831 43.0446C4.33899 43.8496 2.78252 45.168 1.68764 46.8401C0.592767 48.5121 0.00652165 50.4658 0 52.4644V64.036C0 66.771 1.08648 69.394 3.02043 71.328C4.95438 73.2619 7.57738 74.3484 10.3124 74.3484C12.0809 74.3484 13.7771 73.647 15.0291 72.398C16.2811 71.149 16.9865 69.4544 16.9908 67.686V48.8304C16.9825 47.1795 16.3617 45.5905 15.2485 44.3713C14.1354 43.1522 12.6092 42.3897 10.9659 42.2317C11.3734 32.148 15.6658 22.6129 22.9446 15.6224C30.2233 8.63187 39.924 4.72799 50.0159 4.72799C60.1079 4.72799 69.8086 8.63187 77.0873 15.6224C84.366 22.6129 88.6585 32.148 89.066 42.2317C87.4242 42.3899 85.8998 43.153 84.7893 44.3725C83.6787 45.5921 83.0613 47.181 83.0571 48.8304V67.686C83.0668 69.3511 83.6982 70.9525 84.8276 72.1762C85.9569 73.3999 87.5026 74.1575 89.1616 74.3006V79.0822C89.1574 81.6595 88.1317 84.1301 86.3093 85.9525C84.4868 87.775 82.0163 88.8007 79.4389 88.8049H72.139C71.8115 87.7916 71.2676 86.8616 70.5451 86.0794C69.8748 85.4053 69.0775 84.8708 68.1993 84.5069C67.321 84.1431 66.3794 83.957 65.4287 83.9595H57.9535C56.9067 83.9538 55.8719 84.1826 54.9251 84.6289C53.4389 85.3263 52.2339 86.5082 51.5081 87.9808C50.7823 89.4533 50.5788 91.1289 50.931 92.7324C51.2832 94.3358 52.1702 95.7719 53.4463 96.8047C54.7224 97.8375 56.3118 98.4057 57.9535 98.416H65.3809C66.8683 98.4111 68.3184 97.9501 69.5355 97.095C70.7526 96.2399 71.678 95.032 72.1868 93.6343H79.3911C83.2366 93.6301 86.9234 92.1006 89.6426 89.3815C92.3617 86.6623 93.8912 82.9755 93.8954 79.13V73.4877C95.7116 72.676 97.2542 71.3564 98.3373 69.6878C99.4205 68.0193 99.9979 66.0731 100 64.0838V52.4644C99.9915 50.4663 99.4044 48.5134 98.3098 46.8417C97.2151 45.1701 95.6598 43.8512 93.8317 43.0446ZM12.2091 48.8304V67.686C12.2049 68.1863 12.0032 68.6646 11.648 69.0169C11.2927 69.3691 10.8127 69.5668 10.3124 69.5668C8.84555 69.5668 7.43878 68.9841 6.40156 67.9468C5.36434 66.9096 4.78164 65.5029 4.78164 64.036V52.4644C4.78584 50.9989 5.3699 49.5946 6.40621 48.5582C7.44252 47.5219 8.84684 46.9379 10.3124 46.9337C10.8142 46.9378 11.2942 47.139 11.649 47.4938C12.0038 47.8486 12.205 48.3286 12.2091 48.8304ZM67.7399 91.6898C67.6234 92.2382 67.3226 92.7303 66.8877 93.084C66.4527 93.4378 65.9097 93.632 65.3491 93.6343H57.9535C57.3025 93.6343 56.6781 93.3757 56.2178 92.9154C55.7575 92.4551 55.4989 91.8308 55.4989 91.1798C55.4989 90.5288 55.7575 89.9044 56.2178 89.4441C56.6781 88.9838 57.3025 88.7252 57.9535 88.7252H65.3809C65.7048 88.7251 66.0255 88.7899 66.3239 88.9158C66.6223 89.0418 66.8924 89.2262 67.1183 89.4584C67.347 89.6826 67.5284 89.9506 67.6516 90.2463C67.7749 90.542 67.8374 90.8594 67.8355 91.1798C67.8205 91.3525 67.7885 91.5234 67.7399 91.6898ZM95.1865 64.036C95.1865 65.5029 94.6038 66.9096 93.5666 67.9468C92.5293 68.9841 91.1226 69.5668 89.6557 69.5668C89.1554 69.5668 88.6754 69.3691 88.3201 69.0169C87.9649 68.6646 87.7632 68.1863 87.759 67.686V48.8304C87.7632 48.3286 87.9643 47.8486 88.3191 47.4938C88.6739 47.139 89.154 46.9378 89.6557 46.9337C91.1213 46.9379 92.5256 47.5219 93.5619 48.5582C94.5982 49.5946 95.1823 50.9989 95.1865 52.4644V64.036Z" fill="#3C7CFF"/>
<path d="M65.4606 64.8649C68.1463 64.8649 70.7223 63.7991 72.6229 61.9015C74.5235 60.0039 75.5934 57.4296 75.5976 54.7438V34.0234C75.5976 32.6929 75.3353 31.3755 74.8257 30.1465C74.3161 28.9175 73.5691 27.801 72.6276 26.861C71.6861 25.921 70.5685 25.1758 69.3387 24.6681C68.1089 24.1604 66.791 23.9001 65.4606 23.9022H34.5074C31.8217 23.9022 29.2457 24.9681 27.3451 26.8657C25.4445 28.7633 24.3746 31.3376 24.3704 34.0234V54.7438C24.3746 57.4296 25.4445 60.0039 27.3451 61.9015C29.2457 63.7991 31.8217 64.8649 34.5074 64.8649H34.6987V70.3001C34.6939 71.2892 34.986 72.2569 35.5372 73.0782C36.0885 73.8994 36.8736 74.5363 37.7908 74.9064C38.6951 75.2784 39.6902 75.3709 40.6476 75.1721C41.605 74.9732 42.4808 74.492 43.1622 73.7907L52.056 64.9446L65.4606 64.8649ZM49.3783 60.7368L39.8151 70.3001C39.8151 70.3001 39.8151 70.3798 39.6557 70.3001C39.6192 70.289 39.5878 70.2653 39.5674 70.2331C39.5469 70.2009 39.5386 70.1625 39.5441 70.1247V62.4741C39.5441 61.84 39.2922 61.2319 38.8438 60.7836C38.3955 60.3352 37.7874 60.0833 37.1533 60.0833H34.5074C33.0898 60.0833 31.7301 59.5213 30.7262 58.5204C29.7223 57.5195 29.1562 56.1614 29.152 54.7438V34.0234C29.1562 32.6058 29.7223 31.2477 30.7262 30.2468C31.7301 29.2459 33.0898 28.6839 34.5074 28.6839H65.4606C66.8782 28.6839 68.2379 29.2459 69.2418 30.2468C70.2457 31.2477 70.8118 32.6058 70.816 34.0234V54.7438C70.8118 56.1614 70.2457 57.5195 69.2418 58.5204C68.2379 59.5213 66.8782 60.0833 65.4606 60.0833H51.1157C50.7971 60.0709 50.4793 60.1223 50.181 60.2346C49.8826 60.3468 49.6097 60.5175 49.3783 60.7368Z" fill="#3C7CFF"/>
<path d="M38.3647 41.2755C37.6687 41.2787 36.9892 41.488 36.4121 41.8769C35.8349 42.2659 35.3859 42.8171 35.1217 43.461C34.8576 44.105 34.7901 44.8127 34.9278 45.4949C35.0655 46.1772 35.4022 46.8033 35.8955 47.2944C36.3888 47.7854 37.0164 48.1193 37.6993 48.2539C38.3821 48.3886 39.0896 48.3179 39.7323 48.0508C40.375 47.7837 40.9242 47.3323 41.3105 46.7533C41.6969 46.1744 41.9031 45.494 41.9031 44.798C41.9031 44.3341 41.8115 43.8747 41.6335 43.4463C41.4554 43.0179 41.1945 42.6289 40.8658 42.3016C40.537 41.9743 40.1468 41.7152 39.7176 41.5391C39.2884 41.363 38.8286 41.2734 38.3647 41.2755Z" fill="#3C7CFF"/>
<path d="M49.9841 41.2755C49.2875 41.2755 48.6064 41.4821 48.0272 41.8692C47.4479 42.2562 46.9964 42.8063 46.7298 43.45C46.4632 44.0936 46.3934 44.8019 46.5294 45.4852C46.6653 46.1685 47.0008 46.7961 47.4934 47.2887C47.986 47.7814 48.6137 48.1169 49.2969 48.2528C49.9802 48.3887 50.6885 48.3189 51.3321 48.0523C51.9758 47.7857 52.5259 47.3342 52.913 46.755C53.3 46.1757 53.5066 45.4947 53.5066 44.798C53.5066 43.8638 53.1355 42.9678 52.4749 42.3072C51.8143 41.6466 50.9184 41.2755 49.9841 41.2755Z" fill="#3C7CFF"/>
<path d="M61.5873 41.2755C60.8914 41.2787 60.2119 41.4879 59.6347 41.8769C59.0576 42.2659 58.6086 42.8171 58.3444 43.461C58.0802 44.1049 58.0127 44.8127 58.1505 45.4949C58.2882 46.1771 58.6249 46.8033 59.1182 47.2943C59.6114 47.7854 60.2391 48.1193 60.9219 48.2539C61.6048 48.3885 62.3122 48.3178 62.9549 48.0508C63.5977 47.7837 64.1468 47.3322 64.5332 46.7533C64.9196 46.1744 65.1258 45.494 65.1258 44.798C65.1215 43.8623 64.7469 42.9664 64.0838 42.3062C63.4206 41.6461 62.523 41.2755 61.5873 41.2755Z" fill="#3C7CFF"/>
</svg>
