<svg width="100" height="74" viewBox="0 0 100 74" fill="none" xmlns="http://www.w3.org/2000/svg">
<path d="M37.5399 16.7106C37.3668 16.5344 37.1605 16.3943 36.9329 16.2983C36.7053 16.2024 36.461 16.1525 36.214 16.1515C35.9681 16.1504 35.7244 16.1978 35.4969 16.291C35.2694 16.3842 35.0625 16.5213 34.8881 16.6946L25.1756 26.4071C25.0003 26.5822 24.8612 26.7901 24.7663 27.019C24.6714 27.2479 24.6226 27.4932 24.6226 27.741C24.6226 27.9887 24.6714 28.2341 24.7663 28.463C24.8612 28.6918 25.0003 28.8998 25.1756 29.0748L34.8881 38.7873C35.2476 39.1301 35.7252 39.3213 36.222 39.3213C36.7187 39.3213 37.1963 39.1301 37.5558 38.7873C37.7312 38.6122 37.8703 38.4043 37.9652 38.1754C38.0601 37.9465 38.1089 37.7012 38.1089 37.4534C38.1089 37.2057 38.0601 36.9603 37.9652 36.7314C37.8703 36.5026 37.7312 36.2946 37.5558 36.1196L29.2331 27.7649L37.6197 19.3783C37.7951 19.2033 37.9342 18.9953 38.0291 18.7665C38.124 18.5376 38.1728 18.2923 38.1728 18.0445C38.1728 17.7967 38.124 17.5514 38.0291 17.3225C37.9342 17.0936 37.7951 16.8857 37.6197 16.7106H37.5399Z" fill="#3C7CFF"/>
<path d="M45.5113 39.2985L57.7478 18.1005C57.9282 17.8916 58.0605 17.6456 58.1354 17.3799C58.2103 17.1143 58.226 16.8354 58.1813 16.563C58.1365 16.2907 58.0326 16.0315 57.8767 15.8037C57.7208 15.5759 57.5167 15.3852 57.279 15.2449C57.0413 15.1046 56.7757 15.0183 56.5009 14.992C56.2262 14.9657 55.949 15 55.6889 15.0926C55.4289 15.1852 55.1924 15.3337 54.9961 15.5277C54.7998 15.7218 54.6485 15.9565 54.5529 16.2155L42.2525 37.4295C42.0231 37.8558 41.9664 38.354 42.0943 38.8209C42.2222 39.2878 42.5248 39.6877 42.9394 39.9375C43.3689 40.1787 43.8741 40.2469 44.3521 40.1282C44.8301 40.0094 45.2447 39.7127 45.5113 39.2985Z" fill="#3C7CFF"/>
<path d="M75.3836 27.765C75.3827 27.518 75.3328 27.2736 75.2368 27.0461C75.1408 26.8185 75.0007 26.6122 74.8245 26.4391L65.0961 16.7266C64.9217 16.5533 64.7148 16.4162 64.4873 16.323C64.2597 16.2298 64.0161 16.1824 63.7702 16.1835C63.4027 16.1892 63.0448 16.3023 62.7407 16.5088C62.4366 16.7153 62.1995 17.0062 62.0586 17.3457C61.9177 17.6852 61.8791 18.0586 61.9477 18.4197C62.0162 18.7809 62.1888 19.1141 62.4443 19.3784L70.767 27.765L62.4603 36.1515C62.285 36.3266 62.1459 36.5345 62.051 36.7634C61.9561 36.9923 61.9072 37.2376 61.9072 37.4854C61.9072 37.7332 61.9561 37.9785 62.051 38.2074C62.1459 38.4363 62.285 38.6442 62.4603 38.8193C62.8198 39.1621 63.2975 39.3533 63.7942 39.3533C64.2909 39.3533 64.7686 39.1621 65.128 38.8193L74.8565 29.1068C75.0288 28.9292 75.1642 28.7191 75.2546 28.4888C75.3451 28.2584 75.389 28.0124 75.3836 27.765Z" fill="#3C7CFF"/>
<path d="M93.1311 2.49329C93.1228 2.15761 93.0485 1.82685 92.9123 1.51992C92.7762 1.21298 92.5809 0.935885 92.3376 0.70446C92.0943 0.473034 91.8078 0.291816 91.4944 0.171161C91.1811 0.0505048 90.847 -0.00722431 90.5113 0.0012725H9.50492C9.16793 -0.00936508 8.83216 0.0467778 8.51695 0.166468C8.20175 0.286159 7.91334 0.467032 7.66834 0.698668C7.42335 0.930303 7.2266 1.20812 7.08943 1.51612C6.95227 1.82413 6.8774 2.15622 6.86914 2.49329V53.0524C6.86914 53.7303 7.13842 54.3804 7.61775 54.8597C8.09708 55.339 8.74718 55.6083 9.42505 55.6083H90.5113C90.8523 55.6168 91.1915 55.557 91.5091 55.4324C91.8266 55.3078 92.1159 55.1209 92.3601 54.8827C92.6042 54.6445 92.7982 54.3598 92.9306 54.0455C93.0631 53.7312 93.1312 53.3935 93.1311 53.0524V2.49329ZM89.9362 52.5412H10.064V3.02044H89.9362V52.5412Z" fill="#3C7CFF"/>
<path d="M34.6486 60.816H1.59744C1.17378 60.816 0.767459 60.9843 0.467881 61.2839C0.168302 61.5835 0 61.9898 0 62.4135V67.2058C0 68.9005 0.673207 70.5258 1.87152 71.7241C3.06984 72.9224 4.6951 73.5956 6.38978 73.5956H93.6102C95.3049 73.5956 96.9302 72.9224 98.1285 71.7241C99.3268 70.5258 100 68.9005 100 67.2058V62.3017C100 61.878 99.8317 61.4717 99.5321 61.1721C99.2325 60.8725 98.8262 60.7042 98.4026 60.7042H65.3514C64.9278 60.7042 64.5215 60.8725 64.2219 61.1721C63.9223 61.4717 63.754 61.878 63.754 62.3017V62.9886H36.1821V62.3017C36.1548 61.9085 35.9831 61.5393 35.7 61.265C35.4169 60.9908 35.0424 60.8309 34.6486 60.816ZM65.3355 66.1036C65.7591 66.1036 66.1655 65.9353 66.465 65.6357C66.7646 65.3361 66.9329 64.9298 66.9329 64.5061V63.8991H96.869V67.2218C96.8797 67.648 96.8049 68.0721 96.6491 68.469C96.4934 68.8659 96.2597 69.2276 95.962 69.5327C95.6642 69.8379 95.3084 70.0804 94.9155 70.246C94.5226 70.4115 94.1005 70.4967 93.6741 70.4966H6.38978C5.96341 70.4967 5.54133 70.4115 5.14841 70.246C4.75549 70.0804 4.39968 69.8379 4.10193 69.5327C3.80419 69.2276 3.57055 68.8659 3.41477 68.469C3.25899 68.0721 3.18423 67.648 3.19489 67.2218V63.8991H33.115V64.586C33.115 65.0097 33.2833 65.416 33.5829 65.7156C33.8825 66.0152 34.2888 66.1835 34.7125 66.1835L65.3355 66.1036Z" fill="#3C7CFF"/>
</svg>
