<svg width="100" height="100" viewBox="0 0 100 100" fill="none" xmlns="http://www.w3.org/2000/svg">
<path d="M46.3649 87.4224H46.3647C41.3595 87.4169 36.445 86.0855 32.1214 83.5638C27.7979 81.0421 24.2196 77.4201 21.7506 73.0663C21.2803 72.2458 20.8525 71.4016 20.4689 70.5372L20.4688 70.537C20.3552 70.28 20.2417 70.0217 20.1342 69.7585L20.1341 69.7583C19.7661 68.853 19.4458 67.9289 19.1746 66.99C19.1746 66.99 19.1746 66.9899 19.1746 66.9899L19.3187 66.9483C19.2395 66.676 19.1716 66.3996 19.1037 66.123C19.084 66.0429 19.0643 65.9628 19.0444 65.8828L46.3649 87.4224ZM46.3649 87.4224H48.1831C49.8312 87.4224 51.4117 88.077 52.577 89.2423C53.7423 90.4077 54.397 91.9882 54.397 93.6362C54.397 95.2842 53.7423 96.8647 52.577 98.03C51.4117 99.1953 49.8312 99.85 48.1831 99.85H40.9104C39.263 99.848 37.6836 99.1926 36.5187 98.0277C35.3539 96.8629 34.6985 95.2838 34.6964 93.6365C34.7029 92.6728 34.9363 91.7242 35.3776 90.8674L35.4563 90.7145L35.2941 90.6573C28.7832 88.361 23.1377 84.1147 19.1256 78.4962L19.0479 78.3873L18.9308 78.4522C17.3094 79.3507 15.4896 79.8309 13.636 79.8494C6.23057 79.8489 0.15 72.2025 0.15 62.7262C0.15 53.2504 6.23002 45.6042 13.635 45.603C14.2654 45.6172 14.8934 45.6872 15.5114 45.8123L15.6304 45.8364L15.6787 45.7251C18.7707 38.6056 24.2427 32.7833 31.1567 29.2559C38.0707 25.7285 45.9964 24.7156 53.5753 26.391L53.5753 26.391C54.2429 26.5383 54.8246 26.9447 55.1924 27.5209C55.5603 28.0971 55.6842 28.7958 55.5369 29.4633C55.3896 30.1309 54.9831 30.7126 54.407 31.0804C53.8308 31.4483 53.1321 31.5722 52.4646 31.4249C45.6467 29.9167 38.512 30.9837 32.4336 34.4205C26.3554 37.8572 21.7631 43.4206 19.5407 50.04L46.3649 87.4224ZM14.0419 67.7012C14.0084 67.5751 13.9745 67.4502 13.9407 67.3258C13.8467 66.98 13.754 66.6388 13.6776 66.2906L13.6776 66.2906C13.5048 65.5038 13.3794 64.6999 13.2623 63.8891L13.2623 63.889C13.2396 63.7324 13.2142 63.5817 13.1891 63.433C13.1502 63.2022 13.1121 62.9763 13.0863 62.7409L13.0862 62.7401C12.8017 60.2723 12.8083 57.7795 13.1056 55.3132L13.1058 55.3119C13.1399 55.0056 13.1896 54.7074 13.2402 54.4044C13.2653 54.2535 13.2907 54.1013 13.3145 53.9464C13.4376 53.1537 13.5754 52.3693 13.7527 51.5992L13.7527 51.5992C13.7772 51.4928 13.7944 51.3847 13.8107 51.2825L13.8143 51.2596C13.832 51.1487 13.8493 51.0445 13.8745 50.9444L13.9216 50.7577H13.7291H13.6367C11.3541 50.7577 9.26791 52.1497 7.75907 54.3292C6.24917 56.5102 5.3047 59.4952 5.3047 62.7262C5.3047 65.9573 6.24917 68.9422 7.75907 71.1233C9.26791 73.3027 11.3541 74.6947 13.6367 74.6947L13.6375 74.6947C14.5424 74.6903 15.4346 74.4811 16.2472 74.0828L16.3823 74.0166L16.3157 73.8817C16.2476 73.7438 16.1891 73.6003 16.1298 73.4513C16.1234 73.4351 16.1169 73.4189 16.1104 73.4026C16.0578 73.2702 16.0035 73.1335 15.942 72.9996L15.942 72.9994C15.6727 72.4147 15.4205 71.8205 15.1855 71.2169C14.9896 70.7139 14.8006 70.2128 14.6304 69.7035L14.6303 69.7032C14.4099 69.0473 14.2218 68.3779 14.0419 67.7012ZM14.0419 67.7012L13.8969 67.7397M14.0419 67.7012C14.0418 67.7012 14.0418 67.7012 14.0418 67.7011L13.8969 67.7397M13.8969 67.7397C14.0771 68.4175 14.2662 69.0905 14.4881 69.751M13.8969 67.7397C13.864 67.6156 13.8304 67.4919 13.7968 67.3683C13.7025 67.0213 13.6083 66.6749 13.5311 66.3227C13.3571 65.5304 13.231 64.722 13.1138 63.9105C13.0922 63.7616 13.0673 63.6135 13.0424 63.4655C13.0028 63.2303 12.9633 62.9954 12.9372 62.7573C12.6514 60.2778 12.6579 57.7732 12.9567 55.2953C12.9912 54.985 13.0421 54.6798 13.0931 54.3743C13.1181 54.2244 13.1431 54.0743 13.1662 53.9236C13.2896 53.129 13.4281 52.3406 13.6066 51.5656L14.4881 69.751M14.4881 69.751C14.6595 70.2637 14.8495 70.7675 15.0457 71.2714C15.2818 71.8778 15.5352 72.4747 15.8057 73.0621L14.4881 69.751ZM40.9102 94.6953H48.1831C48.464 94.6953 48.7334 94.5837 48.9321 94.3851C49.1307 94.1865 49.2423 93.9171 49.2423 93.6362C49.2423 93.3553 49.1307 93.0859 48.9321 92.8873C48.7334 92.6886 48.464 92.5771 48.1831 92.5771H40.9102C40.6293 92.5771 40.3599 92.6886 40.1613 92.8873C39.9627 93.0859 39.8511 93.3553 39.8511 93.6362C39.8511 93.9171 39.9627 94.1865 40.1613 94.3851C40.3599 94.5837 40.6293 94.6953 40.9102 94.6953Z" fill="#3C7CFF" stroke="white" stroke-width="0.3"/>
<path d="M49.2777 66.7339C50.1822 66.2815 50.9688 65.6247 51.5753 64.8156C51.9856 64.2686 52.5964 63.9071 53.2733 63.8105C53.9502 63.7139 54.6378 63.8901 55.1847 64.3004C55.7316 64.7108 56.0932 65.3216 56.1898 65.9984C56.2864 66.6753 56.1102 67.3629 55.6998 67.9098C54.6127 69.3588 53.2033 70.5349 51.583 71.3448C49.9627 72.1548 48.1761 72.5765 46.3647 72.5765C44.5532 72.5765 42.7666 72.1548 41.1463 71.3448C39.526 70.5349 38.1166 69.3588 37.0295 67.9098C36.8263 67.639 36.6785 67.3308 36.5944 67.0029C36.5103 66.6749 36.4917 66.3336 36.5395 65.9984C36.5873 65.6633 36.7007 65.3408 36.8732 65.0495C37.0456 64.7581 37.2738 64.5036 37.5446 64.3004C37.8154 64.0973 38.1236 63.9494 38.4516 63.8654C38.7795 63.7813 39.1208 63.7627 39.456 63.8105C39.7911 63.8583 40.1136 63.9717 40.4049 64.1442C40.6963 64.3166 40.9508 64.5447 41.1539 64.8155C41.7605 65.6247 42.5471 66.2815 43.4516 66.7339C44.356 67.1863 45.3534 67.4218 46.3647 67.4218C47.3759 67.4218 48.3733 67.1863 49.2777 66.7339Z" fill="#3C7CFF" stroke="white" stroke-width="0.3"/>
<path d="M85.3157 35.0623C88.4335 33.6953 91.0225 31.3518 92.6924 28.3852C94.3624 25.4182 95.0227 21.9888 94.5737 18.6138C94.1246 15.2389 92.5905 12.1014 90.2028 9.67436C87.815 7.24733 84.7029 5.66233 81.3357 5.15831C77.9686 4.65429 74.5288 5.25857 71.535 6.88005C68.5412 8.50153 66.1557 11.0523 64.7381 14.1479C63.3205 17.2434 62.9477 20.7159 63.6758 24.0418C64.4038 27.3672 66.193 30.3659 68.7737 32.5859C69.0284 32.814 69.2353 33.0905 69.3822 33.3993C69.5294 33.7085 69.6135 34.0439 69.6298 34.3859C69.646 34.728 69.594 35.0698 69.4768 35.3916C69.3596 35.7133 69.1796 36.0085 68.9471 36.26L68.7144 36.5118H69.0573H69.9256C69.9274 36.5123 69.9314 36.5133 69.939 36.5157C69.9517 36.5196 69.9851 36.5308 70.0245 36.5332C70.6949 36.6077 71.3231 36.898 71.8144 37.3602C71.8411 37.3879 71.8709 37.406 71.8814 37.4128C71.8878 37.4169 71.8912 37.4193 71.8927 37.4204C74.0083 39.9203 75.7432 42.7188 77.0413 45.7256L77.0895 45.8373L77.2088 45.8131C77.8299 45.6869 78.461 45.6166 79.0947 45.603C86.4997 45.6041 92.5798 53.2504 92.5798 62.7262C92.5798 72.2025 86.4992 79.849 79.0937 79.8494C76.1849 79.8215 73.3921 78.7051 71.2656 76.7201L71.2633 76.7182C70.8185 76.3192 70.5259 75.7782 70.4356 75.1875C70.3453 74.5969 70.4629 73.9932 70.7683 73.4796L70.7684 73.4794C73.3495 69.1238 74.7069 64.1523 74.6975 59.0895L74.6975 59.089C74.6903 57.6155 74.5689 56.1448 74.3342 54.69L74.3342 54.6899C74.322 54.6144 74.3133 54.5377 74.3039 54.4564C74.2946 54.3764 74.2846 54.2922 74.2701 54.2083C74.0208 52.7714 73.6536 51.3574 73.1721 49.9808C72.1591 46.9991 70.6533 44.2082 68.7175 41.7244L68.6725 41.6666H68.5992H63.6396C63.0608 41.6549 62.4944 41.4966 61.9935 41.2065L61.8195 41.4491C66.4695 45.5225 69.3315 51.261 69.7877 57.426C70.2439 63.591 68.2578 69.6882 64.258 74.4017C60.2582 79.1152 54.5655 82.0671 48.4084 82.6202C42.2513 83.1733 36.1236 81.2833 31.3478 77.3581C26.572 73.4329 23.531 67.7873 22.8811 61.6397C22.2313 55.4921 24.0247 49.3354 27.8743 44.4985C31.7239 39.6615 37.321 36.5321 43.4576 35.7857C49.5943 35.0393 55.7784 36.7356 60.6752 40.5087L60.8849 40.2975C60.5996 39.9327 60.3904 39.5144 60.2697 39.0673C60.1491 38.6201 60.1195 38.1534 60.1827 37.6946C60.2458 37.2358 60.4005 36.7944 60.6375 36.3965C60.8745 35.9986 61.189 35.6524 61.5623 35.3784L61.563 35.3778L63.042 34.2787L63.1688 34.1845L63.0682 34.0628C60.7013 31.1976 59.1489 27.7483 58.5738 24.0767C57.9987 20.4051 58.4221 16.6463 59.7997 13.1946C61.1772 9.74298 63.4581 6.72554 66.4032 4.45878C69.3483 2.19202 72.849 0.759441 76.5383 0.311278L76.5389 0.311202C81.4704 -0.308079 86.4599 0.869426 90.5941 3.62817C94.7284 6.38691 97.7308 10.5423 99.0517 15.3338C100.373 20.1252 99.9238 25.2321 97.7873 29.7196C95.6507 34.2072 91.9694 37.7751 87.4173 39.7703L87.4168 39.7706C86.7928 40.0468 86.0847 40.0644 85.4478 39.8194C84.8109 39.5744 84.2971 39.0869 84.0191 38.4637C83.741 37.8405 83.7214 37.1325 83.9645 36.4949C84.2076 35.8573 84.6935 35.3422 85.3157 35.0623ZM85.3157 35.0623C85.3154 35.0624 85.315 35.0626 85.3147 35.0627L85.2545 34.9253M85.3157 35.0623C85.3158 35.0622 85.3159 35.0622 85.316 35.0621L85.2545 34.9253M85.2545 34.9253C84.5959 35.2215 84.0816 35.7667 83.8243 36.4414C83.5671 37.1161 83.5878 37.8654 83.8821 38.5248C84.1763 39.1843 84.72 39.7001 85.394 39.9594C86.068 40.2186 86.8172 40.2 87.4775 39.9077L69.1862 36.2118C69.3705 35.9809 69.5164 35.7213 69.6178 35.4429C69.7418 35.1025 69.7968 34.7407 69.7796 34.3788C69.7624 34.0169 69.6734 33.662 69.5177 33.3348C69.362 33.0077 69.1427 32.7148 68.8726 32.4732C66.316 30.2743 64.5435 27.3039 63.8223 24.0097C63.1012 20.7156 63.4704 17.2763 64.8745 14.2103C66.2785 11.1444 68.6413 8.61794 71.6064 7.01195C74.5716 5.40596 77.9785 4.80745 81.3135 5.30666C84.6485 5.80586 87.7309 7.37572 90.0958 9.77956C92.4608 12.1834 93.9802 15.2909 94.425 18.6336C94.8697 21.9763 94.2158 25.373 92.5617 28.3116C90.9075 31.2502 88.3429 33.5714 85.2545 34.9253ZM79.4234 52.9288L79.2758 52.9559C79.2845 53.003 79.2952 53.0493 79.305 53.0919L79.3068 53.0998C79.3174 53.1458 79.327 53.1877 79.3341 53.2292L79.3342 53.2298C79.3874 53.5291 79.4269 53.8306 79.467 54.136C79.4814 54.2452 79.4958 54.3549 79.5109 54.4651C79.5534 54.7789 79.5941 55.0908 79.6285 55.4048L79.6285 55.4051C79.6376 55.4871 79.649 55.5683 79.66 55.647L79.665 55.6827C79.6776 55.7735 79.6894 55.8614 79.6975 55.9499L79.6976 55.9507C79.6987 55.9625 79.7 55.9742 79.7014 55.9857C79.7044 56.0095 79.7077 56.0324 79.7107 56.0532C79.7131 56.0701 79.7153 56.0859 79.7172 56.1011C79.7188 56.1146 79.7203 56.1276 79.7213 56.1405L79.7214 56.141C79.8054 57.1146 79.8522 58.0975 79.8522 59.0898V59.09C79.8581 64.2195 78.681 69.2812 76.4123 73.8818L76.3458 74.0167L76.4809 74.0829C77.2941 74.4811 78.1869 74.6903 79.0924 74.6947H79.0931L79.0576 51.2185L78.9118 51.2537C78.9118 51.2537 78.9118 51.2538 78.9118 51.2539C79.0476 51.8167 79.169 52.3842 79.2759 52.9564L79.4234 52.9288ZM79.4234 52.9288C79.4313 52.9724 79.4413 53.0156 79.4513 53.0588C79.4624 53.1069 79.4735 53.155 79.4819 53.2036M79.4234 52.9288L79.4819 53.2036M79.4819 53.2036C79.5357 53.5065 79.5759 53.8129 79.6162 54.1194C79.6304 54.2279 79.6447 54.3364 79.6595 54.4448C79.7021 54.759 79.743 55.0724 79.7776 55.3885L79.4819 53.2036ZM64.6972 59.0898V59.0896C64.6915 54.2294 62.7583 49.5698 59.3216 46.1331C55.8849 42.6964 51.2253 40.7632 46.3651 40.7575H46.3649C42.7391 40.7575 39.1948 41.8326 36.18 43.847C33.1653 45.8614 30.8156 48.7245 29.4281 52.0743C28.0405 55.4241 27.6775 59.1101 28.3848 62.6662C29.0922 66.2224 30.8382 69.4889 33.402 72.0527C35.9658 74.6165 39.2323 76.3625 42.7885 77.0698C46.3446 77.7772 50.0306 77.4142 53.3804 76.0266C56.7302 74.6391 59.5933 72.2894 61.6077 69.2747C63.6221 66.2599 64.6972 62.7156 64.6972 59.0898Z" fill="#3C7CFF" stroke="white" stroke-width="0.3"/>
<path d="M89.8527 20.9069C89.8527 22.3303 88.6988 23.4842 87.2753 23.4842C85.8519 23.4842 84.698 22.3303 84.698 20.9069C84.698 19.4835 85.8519 18.3295 87.2753 18.3295C88.6988 18.3295 89.8527 19.4835 89.8527 20.9069Z" fill="#3C7CFF" stroke="white" stroke-width="0.3"/>
<path d="M81.6704 20.9069C81.6704 22.3303 80.5165 23.4842 79.0931 23.4842C77.6696 23.4842 76.5157 22.3303 76.5157 20.9069C76.5157 19.4835 77.6696 18.3295 79.0931 18.3295C80.5165 18.3295 81.6704 19.4835 81.6704 20.9069Z" fill="#3C7CFF" stroke="white" stroke-width="0.3"/>
<path d="M73.4884 20.9069C73.4884 22.3303 72.3345 23.4842 70.9111 23.4842C69.4876 23.4842 68.3337 22.3303 68.3337 20.9069C68.3337 19.4835 69.4876 18.3295 70.9111 18.3295C72.3345 18.3295 73.4884 19.4835 73.4884 20.9069Z" fill="#3C7CFF" stroke="white" stroke-width="0.3"/>
<path d="M77.2326 37.2288C76.8723 37.5893 76.6269 38.0485 76.5275 38.5485C76.4281 39.0484 76.4792 39.5666 76.6743 40.0375C76.8693 40.5084 77.1997 40.9109 77.6235 41.1941C78.0473 41.4772 78.5456 41.6284 79.0554 41.6284C79.5651 41.6284 80.0634 41.4772 80.4872 41.1941C80.911 40.9109 81.2414 40.5084 81.4365 40.0375C81.6315 39.5666 81.6826 39.0484 81.5832 38.5485C81.4838 38.0485 81.2384 37.5893 80.878 37.2288C80.3945 36.7456 79.7389 36.4742 79.0554 36.4742C78.3718 36.4742 77.7162 36.7456 77.2327 37.2288C77.2327 37.2288 77.2326 37.2288 77.2326 37.2288ZM77.2326 37.2288L77.1266 37.1228L77.2326 37.2288Z" fill="#3C7CFF" stroke="white" stroke-width="0.3"/>
</svg>
