<svg width="79" height="102" viewBox="0 0 79 102" fill="none" xmlns="http://www.w3.org/2000/svg">
<mask id="path-1-outside-1_179_990" maskUnits="userSpaceOnUse" x="0" y="0" width="79" height="102" fill="black">
<rect fill="white" width="79" height="102"/>
<path d="M14.0766 40.8928H2.08584C1.484 40.8928 1 41.381 1 41.9786V60.8252C1 61.427 1.48821 61.911 2.08584 61.911H14.0766C14.6785 61.911 15.1625 61.4228 15.1625 60.8252V41.9786C15.1625 41.381 14.6743 40.8928 14.0766 40.8928ZM12.9866 59.7393H3.17179V43.0681H12.9866V59.7393ZM76.8161 18.3798H64.8253C64.2235 18.3798 63.7395 18.868 63.7395 19.4656V60.8252C63.7395 61.427 64.2277 61.911 64.8253 61.911H76.8118C77.4136 61.911 77.8976 61.4228 77.8976 60.8252L77.9018 19.4699C77.9018 18.8681 77.4137 18.3798 76.8161 18.3798ZM75.7303 59.7393H65.9155V20.5562H75.7303V59.7393ZM4.14428 28.5529C3.84967 28.0268 4.03907 27.366 4.56515 27.0756L27.0394 14.5332C27.3046 14.3859 27.6202 14.3564 27.9064 14.449L45.8231 20.2908L67.5615 3.65731L65.6676 3.13542C65.091 2.97549 64.7501 2.37786 64.91 1.79703C65.0699 1.22043 65.6676 0.87953 66.2484 1.03945L70.2382 2.1379C70.4571 2.19682 70.6633 2.32309 70.8148 2.51668V2.52089C70.979 2.73554 71.0505 2.99227 71.0379 3.24059L70.8275 7.38204C70.798 7.97968 70.2972 8.44265 69.6869 8.41318C69.0892 8.38372 68.6263 7.87025 68.6557 7.27261L68.7483 5.47124L46.69 22.3654C46.4038 22.5843 46.0334 22.6474 45.6925 22.5338L27.6832 16.6626L5.62479 28.9734C5.45644 29.066 5.27546 29.1123 5.09448 29.1123C4.71149 29.1123 4.3463 28.9107 4.14428 28.5529ZM69.8636 90.2071L59.9479 81.2888C64.9478 72.8545 63.9588 61.8282 56.9891 54.4165V37.4511C56.9891 36.8493 56.5009 36.3653 55.9033 36.3653L43.9125 36.3611C43.3106 36.3611 42.8266 36.8493 42.8266 37.4469V47.4384C40.575 47.2154 38.2981 47.3332 36.0758 47.7836V31.1889C36.0758 30.587 35.5876 30.103 34.99 30.103H22.9992C22.3974 30.103 21.9134 30.5912 21.9134 31.1889V57.2833C16.0464 66.0249 16.9682 78.0024 24.6869 85.7223C29.0724 90.1077 34.8342 92.3005 40.592 92.3005C44.5651 92.3005 48.5423 91.2568 52.0646 89.1693L60.9828 99.0851C62.0519 100.272 63.5502 100.954 65.2042 100.996C65.259 100.996 65.3137 101 65.3726 101C67.0645 101 68.706 100.322 69.9012 99.1271C71.1343 97.894 71.8161 96.1809 71.7699 94.4301C71.7278 92.776 71.0502 91.2777 69.8634 90.2087L69.8636 90.2071ZM45.0028 38.5364H54.8176V52.3837C51.901 50.0016 48.5213 48.4611 45.0028 47.7624V38.5364ZM24.0855 32.2738H33.9003V48.3427C30.5249 49.3865 27.3515 51.2426 24.6873 53.9067C24.4811 54.113 24.2833 54.3234 24.0855 54.5338L24.0855 32.2738ZM26.2236 84.1848C18.2985 76.2597 18.2985 63.3687 26.2236 55.4474C34.1486 47.5265 47.0396 47.5265 54.9653 55.4474C62.8903 63.3724 62.8903 76.2634 54.9653 84.1848C51.0048 88.1452 45.7986 90.1275 40.5966 90.1275C35.3904 90.1275 30.1883 88.1452 26.2236 84.1848ZM68.3653 97.5859C67.5488 98.4024 66.4125 98.8486 65.2635 98.819C64.2113 98.7896 63.2685 98.3687 62.5993 97.6279L53.8957 87.9562C54.8048 87.287 55.6759 86.5421 56.4967 85.7214C57.3174 84.9007 58.0623 84.0295 58.7315 83.1204L68.4033 91.824C69.144 92.489 69.5691 93.436 69.5944 94.4882C69.6322 95.6414 69.1818 96.7736 68.3653 97.5859ZM52.6035 57.8091C45.9832 51.1888 35.2083 51.1888 28.5885 57.8091C25.3814 61.0162 23.6138 65.2796 23.6138 69.8171C23.6138 74.3541 25.3814 78.6176 28.5885 81.8252C31.9008 85.1374 36.2485 86.7915 40.5966 86.7915C44.9447 86.7915 49.2918 85.1374 52.6046 81.8252C59.2249 75.2007 59.2249 64.4299 52.6046 57.8102L52.6035 57.8091ZM51.0631 80.2834C45.2887 86.0578 35.8949 86.0578 30.1242 80.2834C27.3295 77.4887 25.7892 73.7682 25.7892 69.812C25.7892 65.8557 27.3296 62.1394 30.1242 59.3406C33.0114 56.4534 36.8034 55.0098 40.5956 55.0098C44.3877 55.0098 48.1798 56.4534 51.067 59.3406C56.8372 65.1192 56.8375 74.5126 51.0631 80.2834ZM48.1423 64.5258C48.5674 64.9509 48.5674 65.6369 48.1423 66.0621L39.1061 75.0982C38.9041 75.3002 38.6263 75.4181 38.3359 75.4181C38.0498 75.4181 37.772 75.3044 37.5657 75.0982L33.0456 70.578C32.6205 70.1529 32.6205 69.467 33.0456 69.0418C33.4707 68.6167 34.1566 68.6167 34.5818 69.0418L38.3318 72.7918L46.602 64.5216C47.0271 64.105 47.7172 64.105 48.1423 64.5258Z"/>
</mask>
<path d="M14.0766 40.8928H2.08584C1.484 40.8928 1 41.381 1 41.9786V60.8252C1 61.427 1.48821 61.911 2.08584 61.911H14.0766C14.6785 61.911 15.1625 61.4228 15.1625 60.8252V41.9786C15.1625 41.381 14.6743 40.8928 14.0766 40.8928ZM12.9866 59.7393H3.17179V43.0681H12.9866V59.7393ZM76.8161 18.3798H64.8253C64.2235 18.3798 63.7395 18.868 63.7395 19.4656V60.8252C63.7395 61.427 64.2277 61.911 64.8253 61.911H76.8118C77.4136 61.911 77.8976 61.4228 77.8976 60.8252L77.9018 19.4699C77.9018 18.8681 77.4137 18.3798 76.8161 18.3798ZM75.7303 59.7393H65.9155V20.5562H75.7303V59.7393ZM4.14428 28.5529C3.84967 28.0268 4.03907 27.366 4.56515 27.0756L27.0394 14.5332C27.3046 14.3859 27.6202 14.3564 27.9064 14.449L45.8231 20.2908L67.5615 3.65731L65.6676 3.13542C65.091 2.97549 64.7501 2.37786 64.91 1.79703C65.0699 1.22043 65.6676 0.87953 66.2484 1.03945L70.2382 2.1379C70.4571 2.19682 70.6633 2.32309 70.8148 2.51668V2.52089C70.979 2.73554 71.0505 2.99227 71.0379 3.24059L70.8275 7.38204C70.798 7.97968 70.2972 8.44265 69.6869 8.41318C69.0892 8.38372 68.6263 7.87025 68.6557 7.27261L68.7483 5.47124L46.69 22.3654C46.4038 22.5843 46.0334 22.6474 45.6925 22.5338L27.6832 16.6626L5.62479 28.9734C5.45644 29.066 5.27546 29.1123 5.09448 29.1123C4.71149 29.1123 4.3463 28.9107 4.14428 28.5529ZM69.8636 90.2071L59.9479 81.2888C64.9478 72.8545 63.9588 61.8282 56.9891 54.4165V37.4511C56.9891 36.8493 56.5009 36.3653 55.9033 36.3653L43.9125 36.3611C43.3106 36.3611 42.8266 36.8493 42.8266 37.4469V47.4384C40.575 47.2154 38.2981 47.3332 36.0758 47.7836V31.1889C36.0758 30.587 35.5876 30.103 34.99 30.103H22.9992C22.3974 30.103 21.9134 30.5912 21.9134 31.1889V57.2833C16.0464 66.0249 16.9682 78.0024 24.6869 85.7223C29.0724 90.1077 34.8342 92.3005 40.592 92.3005C44.5651 92.3005 48.5423 91.2568 52.0646 89.1693L60.9828 99.0851C62.0519 100.272 63.5502 100.954 65.2042 100.996C65.259 100.996 65.3137 101 65.3726 101C67.0645 101 68.706 100.322 69.9012 99.1271C71.1343 97.894 71.8161 96.1809 71.7699 94.4301C71.7278 92.776 71.0502 91.2777 69.8634 90.2087L69.8636 90.2071ZM45.0028 38.5364H54.8176V52.3837C51.901 50.0016 48.5213 48.4611 45.0028 47.7624V38.5364ZM24.0855 32.2738H33.9003V48.3427C30.5249 49.3865 27.3515 51.2426 24.6873 53.9067C24.4811 54.113 24.2833 54.3234 24.0855 54.5338L24.0855 32.2738ZM26.2236 84.1848C18.2985 76.2597 18.2985 63.3687 26.2236 55.4474C34.1486 47.5265 47.0396 47.5265 54.9653 55.4474C62.8903 63.3724 62.8903 76.2634 54.9653 84.1848C51.0048 88.1452 45.7986 90.1275 40.5966 90.1275C35.3904 90.1275 30.1883 88.1452 26.2236 84.1848ZM68.3653 97.5859C67.5488 98.4024 66.4125 98.8486 65.2635 98.819C64.2113 98.7896 63.2685 98.3687 62.5993 97.6279L53.8957 87.9562C54.8048 87.287 55.6759 86.5421 56.4967 85.7214C57.3174 84.9007 58.0623 84.0295 58.7315 83.1204L68.4033 91.824C69.144 92.489 69.5691 93.436 69.5944 94.4882C69.6322 95.6414 69.1818 96.7736 68.3653 97.5859ZM52.6035 57.8091C45.9832 51.1888 35.2083 51.1888 28.5885 57.8091C25.3814 61.0162 23.6138 65.2796 23.6138 69.8171C23.6138 74.3541 25.3814 78.6176 28.5885 81.8252C31.9008 85.1374 36.2485 86.7915 40.5966 86.7915C44.9447 86.7915 49.2918 85.1374 52.6046 81.8252C59.2249 75.2007 59.2249 64.4299 52.6046 57.8102L52.6035 57.8091ZM51.0631 80.2834C45.2887 86.0578 35.8949 86.0578 30.1242 80.2834C27.3295 77.4887 25.7892 73.7682 25.7892 69.812C25.7892 65.8557 27.3296 62.1394 30.1242 59.3406C33.0114 56.4534 36.8034 55.0098 40.5956 55.0098C44.3877 55.0098 48.1798 56.4534 51.067 59.3406C56.8372 65.1192 56.8375 74.5126 51.0631 80.2834ZM48.1423 64.5258C48.5674 64.9509 48.5674 65.6369 48.1423 66.0621L39.1061 75.0982C38.9041 75.3002 38.6263 75.4181 38.3359 75.4181C38.0498 75.4181 37.772 75.3044 37.5657 75.0982L33.0456 70.578C32.6205 70.1529 32.6205 69.467 33.0456 69.0418C33.4707 68.6167 34.1566 68.6167 34.5818 69.0418L38.3318 72.7918L46.602 64.5216C47.0271 64.105 47.7172 64.105 48.1423 64.5258Z" fill="#3C7CFF"/>
<path d="M14.0766 40.8928H2.08584C1.484 40.8928 1 41.381 1 41.9786V60.8252C1 61.427 1.48821 61.911 2.08584 61.911H14.0766C14.6785 61.911 15.1625 61.4228 15.1625 60.8252V41.9786C15.1625 41.381 14.6743 40.8928 14.0766 40.8928ZM12.9866 59.7393H3.17179V43.0681H12.9866V59.7393ZM76.8161 18.3798H64.8253C64.2235 18.3798 63.7395 18.868 63.7395 19.4656V60.8252C63.7395 61.427 64.2277 61.911 64.8253 61.911H76.8118C77.4136 61.911 77.8976 61.4228 77.8976 60.8252L77.9018 19.4699C77.9018 18.8681 77.4137 18.3798 76.8161 18.3798ZM75.7303 59.7393H65.9155V20.5562H75.7303V59.7393ZM4.14428 28.5529C3.84967 28.0268 4.03907 27.366 4.56515 27.0756L27.0394 14.5332C27.3046 14.3859 27.6202 14.3564 27.9064 14.449L45.8231 20.2908L67.5615 3.65731L65.6676 3.13542C65.091 2.97549 64.7501 2.37786 64.91 1.79703C65.0699 1.22043 65.6676 0.87953 66.2484 1.03945L70.2382 2.1379C70.4571 2.19682 70.6633 2.32309 70.8148 2.51668V2.52089C70.979 2.73554 71.0505 2.99227 71.0379 3.24059L70.8275 7.38204C70.798 7.97968 70.2972 8.44265 69.6869 8.41318C69.0892 8.38372 68.6263 7.87025 68.6557 7.27261L68.7483 5.47124L46.69 22.3654C46.4038 22.5843 46.0334 22.6474 45.6925 22.5338L27.6832 16.6626L5.62479 28.9734C5.45644 29.066 5.27546 29.1123 5.09448 29.1123C4.71149 29.1123 4.3463 28.9107 4.14428 28.5529ZM69.8636 90.2071L59.9479 81.2888C64.9478 72.8545 63.9588 61.8282 56.9891 54.4165V37.4511C56.9891 36.8493 56.5009 36.3653 55.9033 36.3653L43.9125 36.3611C43.3106 36.3611 42.8266 36.8493 42.8266 37.4469V47.4384C40.575 47.2154 38.2981 47.3332 36.0758 47.7836V31.1889C36.0758 30.587 35.5876 30.103 34.99 30.103H22.9992C22.3974 30.103 21.9134 30.5912 21.9134 31.1889V57.2833C16.0464 66.0249 16.9682 78.0024 24.6869 85.7223C29.0724 90.1077 34.8342 92.3005 40.592 92.3005C44.5651 92.3005 48.5423 91.2568 52.0646 89.1693L60.9828 99.0851C62.0519 100.272 63.5502 100.954 65.2042 100.996C65.259 100.996 65.3137 101 65.3726 101C67.0645 101 68.706 100.322 69.9012 99.1271C71.1343 97.894 71.8161 96.1809 71.7699 94.4301C71.7278 92.776 71.0502 91.2777 69.8634 90.2087L69.8636 90.2071ZM45.0028 38.5364H54.8176V52.3837C51.901 50.0016 48.5213 48.4611 45.0028 47.7624V38.5364ZM24.0855 32.2738H33.9003V48.3427C30.5249 49.3865 27.3515 51.2426 24.6873 53.9067C24.4811 54.113 24.2833 54.3234 24.0855 54.5338L24.0855 32.2738ZM26.2236 84.1848C18.2985 76.2597 18.2985 63.3687 26.2236 55.4474C34.1486 47.5265 47.0396 47.5265 54.9653 55.4474C62.8903 63.3724 62.8903 76.2634 54.9653 84.1848C51.0048 88.1452 45.7986 90.1275 40.5966 90.1275C35.3904 90.1275 30.1883 88.1452 26.2236 84.1848ZM68.3653 97.5859C67.5488 98.4024 66.4125 98.8486 65.2635 98.819C64.2113 98.7896 63.2685 98.3687 62.5993 97.6279L53.8957 87.9562C54.8048 87.287 55.6759 86.5421 56.4967 85.7214C57.3174 84.9007 58.0623 84.0295 58.7315 83.1204L68.4033 91.824C69.144 92.489 69.5691 93.436 69.5944 94.4882C69.6322 95.6414 69.1818 96.7736 68.3653 97.5859ZM52.6035 57.8091C45.9832 51.1888 35.2083 51.1888 28.5885 57.8091C25.3814 61.0162 23.6138 65.2796 23.6138 69.8171C23.6138 74.3541 25.3814 78.6176 28.5885 81.8252C31.9008 85.1374 36.2485 86.7915 40.5966 86.7915C44.9447 86.7915 49.2918 85.1374 52.6046 81.8252C59.2249 75.2007 59.2249 64.4299 52.6046 57.8102L52.6035 57.8091ZM51.0631 80.2834C45.2887 86.0578 35.8949 86.0578 30.1242 80.2834C27.3295 77.4887 25.7892 73.7682 25.7892 69.812C25.7892 65.8557 27.3296 62.1394 30.1242 59.3406C33.0114 56.4534 36.8034 55.0098 40.5956 55.0098C44.3877 55.0098 48.1798 56.4534 51.067 59.3406C56.8372 65.1192 56.8375 74.5126 51.0631 80.2834ZM48.1423 64.5258C48.5674 64.9509 48.5674 65.6369 48.1423 66.0621L39.1061 75.0982C38.9041 75.3002 38.6263 75.4181 38.3359 75.4181C38.0498 75.4181 37.772 75.3044 37.5657 75.0982L33.0456 70.578C32.6205 70.1529 32.6205 69.467 33.0456 69.0418C33.4707 68.6167 34.1566 68.6167 34.5818 69.0418L38.3318 72.7918L46.602 64.5216C47.0271 64.105 47.7172 64.105 48.1423 64.5258Z" stroke="#3C7CFF" mask="url(#path-1-outside-1_179_990)"/>
</svg>
