<svg width="102" height="102" viewBox="0 0 102 102" fill="none" xmlns="http://www.w3.org/2000/svg">
<mask id="path-1-outside-1_125_739" maskUnits="userSpaceOnUse" x="0" y="0" width="102" height="102" fill="black">
<rect fill="white" width="102" height="102"/>
<path d="M52.4891 1H51.8879C47.9846 1.00939 44.7812 4.1 44.6262 8.00324L17.2564 18.1488H12.5828C6.18551 18.1488 1 23.3343 1 29.7316C1 36.1337 6.18551 41.3192 12.5828 41.3192H16.115L6.96048 55.3733C4.95482 58.6612 5.92713 62.9496 9.15397 65.0539C12.3855 67.1534 16.6973 66.3127 18.8956 63.1516L30.3705 45.6176L44.6254 50.2396C44.7992 54.1287 47.9979 57.1911 51.887 57.2006H52.4883C54.4282 57.1959 56.2834 56.4162 57.6503 55.04C59.0171 53.6638 59.778 51.799 59.7687 49.8638V38.3421L67.0584 35.6506V35.646C69.0922 34.8897 70.445 32.9452 70.4497 30.7751V25.6648C70.445 23.49 69.0922 21.5501 67.0584 20.7892L59.7687 18.0978V8.2763C59.7593 4.2604 56.5051 1.00469 52.4891 1ZM18.7367 39.1533V20.2618L44.6131 10.6799V47.5418L18.7367 39.1533ZM3.5042 29.6841C3.50889 24.6724 7.5718 20.6095 12.5836 20.6001H16.2284V38.7629H12.5836C7.5718 38.7582 3.50889 34.6959 3.5042 29.6841ZM16.8056 61.7832C15.4058 63.9156 12.5453 64.5168 10.4035 63.1266C8.27583 61.7268 7.67461 58.871 9.06487 56.7386L18.7972 41.8068L27.9047 44.7143L16.8056 61.7832ZM57.2616 49.8621C57.2569 52.5018 55.1198 54.6391 52.48 54.6437H51.8787C49.239 54.6391 47.1065 52.4972 47.1065 49.8621V8.27463C47.1112 5.6443 49.2436 3.51189 51.8787 3.50239H52.48C55.115 3.50239 57.2569 5.63949 57.2616 8.27463V49.8621ZM66.1906 23.1452H66.1953C67.2428 23.535 67.9379 24.5307 67.9473 25.6486V30.759C67.9379 31.8769 67.2427 32.8727 66.1953 33.2625L59.7697 35.658V20.7634L66.1906 23.1452ZM94.7389 49.0216H74.2229C70.7659 49.0216 67.9618 51.8257 67.9618 55.2827V94.6902C67.9618 96.3483 68.6194 97.9405 69.7936 99.1148C70.9679 100.294 72.5602 100.951 74.2229 100.951H94.7389C96.4016 100.951 97.9939 100.294 99.1682 99.1148C100.342 97.9406 101 96.3483 101 94.6902V55.2827C101 53.6247 100.342 52.0324 99.1682 50.8581C97.994 49.6792 96.4016 49.0216 94.7389 49.0216ZM98.4965 94.6902C98.4965 96.7617 96.815 98.4478 94.7389 98.4478H74.2229C72.1468 98.4478 70.4653 96.7617 70.4653 94.6902V55.2827C70.4653 53.2113 72.1468 51.5251 74.2229 51.5251H94.7389C96.815 51.5251 98.4965 53.2113 98.4965 55.2827V94.6902ZM94.7389 54.0334H74.2229C73.5325 54.0334 72.9688 54.5923 72.9688 55.2828V94.6903C72.9688 95.0191 73.1003 95.3385 73.3352 95.5734C73.57 95.8082 73.8894 95.9398 74.2229 95.9398H94.7389C95.0724 95.9398 95.3918 95.8082 95.6266 95.5734C95.8615 95.3385 95.993 95.0191 95.993 94.6903V55.2828C95.993 54.9541 95.8615 54.6347 95.6266 54.3998C95.3918 54.1649 95.0724 54.0334 94.7389 54.0334ZM93.4848 93.4373H75.4759V56.5369H93.4848V93.4373ZM79.1962 89.4683C79.1962 88.7731 79.7551 88.2141 80.4456 88.2141H88.5762C89.2666 88.2141 89.8303 88.7731 89.8303 89.4683C89.8303 90.1587 89.2667 90.7177 88.5762 90.7177H80.4456C79.7552 90.7177 79.1962 90.1588 79.1962 89.4683ZM53.6167 69.99H32.6871C29.9205 69.99 27.68 72.2352 27.68 75.0017V95.941C27.68 97.2703 28.2061 98.5479 29.1456 99.4872C30.085 100.427 31.3578 100.953 32.6871 100.953H53.6167C54.946 100.953 56.2236 100.427 57.163 99.4872C58.1023 98.5478 58.6285 97.2702 58.6285 95.941V75.0017C58.6285 73.6724 58.1024 72.3949 57.163 71.4555C56.2235 70.5162 54.9459 69.99 53.6167 69.99ZM56.1202 95.941H56.1249C56.1249 96.608 55.8572 97.242 55.3875 97.7118C54.9178 98.1815 54.2837 98.4493 53.6167 98.4493H32.687C31.3061 98.4493 30.1836 97.3267 30.1836 95.9411V75.0018C30.1836 73.6163 31.3061 72.4937 32.687 72.4937H53.6167C54.2836 72.4937 54.9177 72.7614 55.3875 73.2311C55.8572 73.7008 56.1249 74.3349 56.1249 75.0019L56.1202 95.941ZM52.3626 74.9969L33.9413 75.0016C33.2508 75.0016 32.6871 75.5606 32.6871 76.2511V94.6917C32.6871 95.0205 32.8186 95.3399 33.0535 95.5747C33.2883 95.8096 33.6077 95.9411 33.9412 95.9411H52.3674C52.6962 95.9411 53.0156 95.8096 53.2504 95.5747C53.4853 95.3399 53.6168 95.0205 53.6168 94.6917V76.2511C53.6168 75.9223 53.4853 75.6029 53.2504 75.368C53.0156 75.1332 52.6962 75.0017 52.3674 75.0017L52.3626 74.9969ZM51.1085 93.4327L35.1954 93.4374V77.5051H51.1133L51.1085 93.4327ZM39.3283 91.2203C39.7839 91.4834 40.3006 91.6243 40.8314 91.6196C41.3574 91.6243 41.8788 91.4881 42.3344 91.2203L47.7688 88.078C48.6988 87.5379 49.2766 86.5468 49.2766 85.4711C49.2766 84.3954 48.6988 83.4044 47.7688 82.8643L42.3344 79.783C41.4044 79.2335 40.2536 79.2335 39.3283 79.783C38.4218 80.2997 37.8487 81.2485 37.8253 82.2912V88.5523C37.7971 89.6514 38.3748 90.6754 39.3283 91.2203ZM40.3241 82.3336L40.3288 82.3383C40.3194 82.1551 40.418 81.986 40.5777 81.9015C40.6529 81.8545 40.7421 81.8263 40.8314 81.8263C40.9206 81.831 41.0051 81.8545 41.0803 81.9015L46.5147 85.0344C46.6744 85.119 46.773 85.2881 46.7684 85.4713C46.7731 85.6544 46.6791 85.8235 46.5147 85.9081L41.0803 89.0551C40.9253 89.1443 40.7327 89.1443 40.5777 89.0504C40.4227 88.9612 40.3288 88.7968 40.3288 88.6136L40.3241 82.3336ZM92.2586 24.5457C92.2586 24.8791 92.127 25.1985 91.8922 25.4334C91.6573 25.6682 91.3379 25.7998 91.0044 25.7998H77.9556C77.2604 25.7998 76.7015 25.2408 76.7015 24.5456C76.7015 23.8552 77.2604 23.2962 77.9556 23.2962H91.0044C91.3379 23.2962 91.6573 23.4277 91.8922 23.6625C92.127 23.8974 92.2586 24.2169 92.2586 24.5457ZM92.2586 31.8731C92.2586 32.2066 92.127 32.526 91.8922 32.7608C91.6573 32.9957 91.3379 33.1272 91.0044 33.1272H77.9556C77.2604 33.1272 76.7015 32.5682 76.7015 31.873C76.7015 31.1826 77.2604 30.6236 77.9556 30.6236H91.0044C91.3379 30.6236 91.6573 30.7551 91.8922 30.9899C92.127 31.2248 92.2586 31.5443 92.2586 31.8731ZM71.2532 39.2005C71.2532 38.51 71.8121 37.951 72.5073 37.951H84.4425C85.1329 37.951 85.6966 38.51 85.6966 39.2005C85.6966 39.8956 85.133 40.4546 84.4425 40.4546H72.5073C71.8122 40.4546 71.2532 39.8957 71.2532 39.2005ZM85.6968 17.2187C85.6968 17.5522 85.5653 17.8716 85.3305 18.1065C85.0956 18.3413 84.7762 18.4728 84.4427 18.4728H72.5076C71.8124 18.4728 71.2535 17.9139 71.2535 17.2187C71.2535 16.5282 71.8124 15.9692 72.5076 15.9692H84.4427C84.7762 15.9692 85.0956 16.1008 85.3305 16.3356C85.5653 16.5704 85.6968 16.8899 85.6968 17.2187Z"/>
</mask>
<path d="M52.4891 1H51.8879C47.9846 1.00939 44.7812 4.1 44.6262 8.00324L17.2564 18.1488H12.5828C6.18551 18.1488 1 23.3343 1 29.7316C1 36.1337 6.18551 41.3192 12.5828 41.3192H16.115L6.96048 55.3733C4.95482 58.6612 5.92713 62.9496 9.15397 65.0539C12.3855 67.1534 16.6973 66.3127 18.8956 63.1516L30.3705 45.6176L44.6254 50.2396C44.7992 54.1287 47.9979 57.1911 51.887 57.2006H52.4883C54.4282 57.1959 56.2834 56.4162 57.6503 55.04C59.0171 53.6638 59.778 51.799 59.7687 49.8638V38.3421L67.0584 35.6506V35.646C69.0922 34.8897 70.445 32.9452 70.4497 30.7751V25.6648C70.445 23.49 69.0922 21.5501 67.0584 20.7892L59.7687 18.0978V8.2763C59.7593 4.2604 56.5051 1.00469 52.4891 1ZM18.7367 39.1533V20.2618L44.6131 10.6799V47.5418L18.7367 39.1533ZM3.5042 29.6841C3.50889 24.6724 7.5718 20.6095 12.5836 20.6001H16.2284V38.7629H12.5836C7.5718 38.7582 3.50889 34.6959 3.5042 29.6841ZM16.8056 61.7832C15.4058 63.9156 12.5453 64.5168 10.4035 63.1266C8.27583 61.7268 7.67461 58.871 9.06487 56.7386L18.7972 41.8068L27.9047 44.7143L16.8056 61.7832ZM57.2616 49.8621C57.2569 52.5018 55.1198 54.6391 52.48 54.6437H51.8787C49.239 54.6391 47.1065 52.4972 47.1065 49.8621V8.27463C47.1112 5.6443 49.2436 3.51189 51.8787 3.50239H52.48C55.115 3.50239 57.2569 5.63949 57.2616 8.27463V49.8621ZM66.1906 23.1452H66.1953C67.2428 23.535 67.9379 24.5307 67.9473 25.6486V30.759C67.9379 31.8769 67.2427 32.8727 66.1953 33.2625L59.7697 35.658V20.7634L66.1906 23.1452ZM94.7389 49.0216H74.2229C70.7659 49.0216 67.9618 51.8257 67.9618 55.2827V94.6902C67.9618 96.3483 68.6194 97.9405 69.7936 99.1148C70.9679 100.294 72.5602 100.951 74.2229 100.951H94.7389C96.4016 100.951 97.9939 100.294 99.1682 99.1148C100.342 97.9406 101 96.3483 101 94.6902V55.2827C101 53.6247 100.342 52.0324 99.1682 50.8581C97.994 49.6792 96.4016 49.0216 94.7389 49.0216ZM98.4965 94.6902C98.4965 96.7617 96.815 98.4478 94.7389 98.4478H74.2229C72.1468 98.4478 70.4653 96.7617 70.4653 94.6902V55.2827C70.4653 53.2113 72.1468 51.5251 74.2229 51.5251H94.7389C96.815 51.5251 98.4965 53.2113 98.4965 55.2827V94.6902ZM94.7389 54.0334H74.2229C73.5325 54.0334 72.9688 54.5923 72.9688 55.2828V94.6903C72.9688 95.0191 73.1003 95.3385 73.3352 95.5734C73.57 95.8082 73.8894 95.9398 74.2229 95.9398H94.7389C95.0724 95.9398 95.3918 95.8082 95.6266 95.5734C95.8615 95.3385 95.993 95.0191 95.993 94.6903V55.2828C95.993 54.9541 95.8615 54.6347 95.6266 54.3998C95.3918 54.1649 95.0724 54.0334 94.7389 54.0334ZM93.4848 93.4373H75.4759V56.5369H93.4848V93.4373ZM79.1962 89.4683C79.1962 88.7731 79.7551 88.2141 80.4456 88.2141H88.5762C89.2666 88.2141 89.8303 88.7731 89.8303 89.4683C89.8303 90.1587 89.2667 90.7177 88.5762 90.7177H80.4456C79.7552 90.7177 79.1962 90.1588 79.1962 89.4683ZM53.6167 69.99H32.6871C29.9205 69.99 27.68 72.2352 27.68 75.0017V95.941C27.68 97.2703 28.2061 98.5479 29.1456 99.4872C30.085 100.427 31.3578 100.953 32.6871 100.953H53.6167C54.946 100.953 56.2236 100.427 57.163 99.4872C58.1023 98.5478 58.6285 97.2702 58.6285 95.941V75.0017C58.6285 73.6724 58.1024 72.3949 57.163 71.4555C56.2235 70.5162 54.9459 69.99 53.6167 69.99ZM56.1202 95.941H56.1249C56.1249 96.608 55.8572 97.242 55.3875 97.7118C54.9178 98.1815 54.2837 98.4493 53.6167 98.4493H32.687C31.3061 98.4493 30.1836 97.3267 30.1836 95.9411V75.0018C30.1836 73.6163 31.3061 72.4937 32.687 72.4937H53.6167C54.2836 72.4937 54.9177 72.7614 55.3875 73.2311C55.8572 73.7008 56.1249 74.3349 56.1249 75.0019L56.1202 95.941ZM52.3626 74.9969L33.9413 75.0016C33.2508 75.0016 32.6871 75.5606 32.6871 76.2511V94.6917C32.6871 95.0205 32.8186 95.3399 33.0535 95.5747C33.2883 95.8096 33.6077 95.9411 33.9412 95.9411H52.3674C52.6962 95.9411 53.0156 95.8096 53.2504 95.5747C53.4853 95.3399 53.6168 95.0205 53.6168 94.6917V76.2511C53.6168 75.9223 53.4853 75.6029 53.2504 75.368C53.0156 75.1332 52.6962 75.0017 52.3674 75.0017L52.3626 74.9969ZM51.1085 93.4327L35.1954 93.4374V77.5051H51.1133L51.1085 93.4327ZM39.3283 91.2203C39.7839 91.4834 40.3006 91.6243 40.8314 91.6196C41.3574 91.6243 41.8788 91.4881 42.3344 91.2203L47.7688 88.078C48.6988 87.5379 49.2766 86.5468 49.2766 85.4711C49.2766 84.3954 48.6988 83.4044 47.7688 82.8643L42.3344 79.783C41.4044 79.2335 40.2536 79.2335 39.3283 79.783C38.4218 80.2997 37.8487 81.2485 37.8253 82.2912V88.5523C37.7971 89.6514 38.3748 90.6754 39.3283 91.2203ZM40.3241 82.3336L40.3288 82.3383C40.3194 82.1551 40.418 81.986 40.5777 81.9015C40.6529 81.8545 40.7421 81.8263 40.8314 81.8263C40.9206 81.831 41.0051 81.8545 41.0803 81.9015L46.5147 85.0344C46.6744 85.119 46.773 85.2881 46.7684 85.4713C46.7731 85.6544 46.6791 85.8235 46.5147 85.9081L41.0803 89.0551C40.9253 89.1443 40.7327 89.1443 40.5777 89.0504C40.4227 88.9612 40.3288 88.7968 40.3288 88.6136L40.3241 82.3336ZM92.2586 24.5457C92.2586 24.8791 92.127 25.1985 91.8922 25.4334C91.6573 25.6682 91.3379 25.7998 91.0044 25.7998H77.9556C77.2604 25.7998 76.7015 25.2408 76.7015 24.5456C76.7015 23.8552 77.2604 23.2962 77.9556 23.2962H91.0044C91.3379 23.2962 91.6573 23.4277 91.8922 23.6625C92.127 23.8974 92.2586 24.2169 92.2586 24.5457ZM92.2586 31.8731C92.2586 32.2066 92.127 32.526 91.8922 32.7608C91.6573 32.9957 91.3379 33.1272 91.0044 33.1272H77.9556C77.2604 33.1272 76.7015 32.5682 76.7015 31.873C76.7015 31.1826 77.2604 30.6236 77.9556 30.6236H91.0044C91.3379 30.6236 91.6573 30.7551 91.8922 30.9899C92.127 31.2248 92.2586 31.5443 92.2586 31.8731ZM71.2532 39.2005C71.2532 38.51 71.8121 37.951 72.5073 37.951H84.4425C85.1329 37.951 85.6966 38.51 85.6966 39.2005C85.6966 39.8956 85.133 40.4546 84.4425 40.4546H72.5073C71.8122 40.4546 71.2532 39.8957 71.2532 39.2005ZM85.6968 17.2187C85.6968 17.5522 85.5653 17.8716 85.3305 18.1065C85.0956 18.3413 84.7762 18.4728 84.4427 18.4728H72.5076C71.8124 18.4728 71.2535 17.9139 71.2535 17.2187C71.2535 16.5282 71.8124 15.9692 72.5076 15.9692H84.4427C84.7762 15.9692 85.0956 16.1008 85.3305 16.3356C85.5653 16.5704 85.6968 16.8899 85.6968 17.2187Z" fill="#3C7CFF"/>
<path d="M39.2175 91.3217L39.2222 91.3264L39.4344 91.1143L39.4297 91.1096L39.2175 91.3217ZM52.4891 1L52.4894 0.7H52.4891V1ZM51.8879 1V0.699999L51.8872 0.700001L51.8879 1ZM44.6262 8.00324L44.7305 8.28453L44.9181 8.21501L44.926 8.01514L44.6262 8.00324ZM17.2564 18.1488V18.4488H17.3102L17.3606 18.4301L17.2564 18.1488ZM16.115 41.3192L16.3664 41.4829L16.6684 41.0192H16.115V41.3192ZM6.96048 55.3733L6.709 55.2095L6.70437 55.217L6.96048 55.3733ZM9.15397 65.0539L8.9901 65.3051L8.99052 65.3054L9.15397 65.0539ZM18.8956 63.1516L19.142 63.3229L19.1467 63.3159L18.8956 63.1516ZM30.3705 45.6176L30.463 45.3323L30.245 45.2616L30.1195 45.4534L30.3705 45.6176ZM44.6254 50.2396L44.9251 50.2262L44.9158 50.0184L44.7179 49.9542L44.6254 50.2396ZM51.887 57.2006L51.8863 57.5006H51.887V57.2006ZM52.4883 57.2006V57.5006L52.489 57.5006L52.4883 57.2006ZM57.6503 55.04L57.8632 55.2514V55.2514L57.6503 55.04ZM59.7687 49.8638H59.4687L59.4687 49.8653L59.7687 49.8638ZM59.7687 38.3421L59.6648 38.0606L59.4687 38.133V38.3421H59.7687ZM67.0584 35.6506L67.1623 35.9321L67.3584 35.8597V35.6506H67.0584ZM67.0584 35.646L66.9539 35.3648L66.7584 35.4374V35.646H67.0584ZM70.4497 30.7751L70.7497 30.7758V30.7751H70.4497ZM70.4497 25.6648H70.7497L70.7497 25.6641L70.4497 25.6648ZM67.0584 20.7892L67.1636 20.5082L67.1623 20.5078L67.0584 20.7892ZM59.7687 18.0978H59.4687V18.3068L59.6648 18.3792L59.7687 18.0978ZM59.7687 8.2763H60.0687V8.2756L59.7687 8.2763ZM18.7367 39.1533H18.4367V39.3715L18.6442 39.4387L18.7367 39.1533ZM18.7367 20.2618L18.6325 19.9805L18.4367 20.053V20.2618H18.7367ZM44.6131 10.6799H44.9131V10.2489L44.509 10.3985L44.6131 10.6799ZM44.6131 47.5418L44.5206 47.8272L44.9131 47.9544V47.5418H44.6131ZM3.5042 29.6841L3.2042 29.6839L3.2042 29.6844L3.5042 29.6841ZM12.5836 20.6001V20.3001H12.583L12.5836 20.6001ZM16.2284 20.6001H16.5284V20.3001H16.2284V20.6001ZM16.2284 38.7629V39.0629H16.5284V38.7629H16.2284ZM12.5836 38.7629L12.5833 39.0629H12.5836V38.7629ZM16.8056 61.7832L17.0564 61.9478L17.0571 61.9468L16.8056 61.7832ZM10.4035 63.1266L10.2387 63.3772L10.2402 63.3782L10.4035 63.1266ZM9.06487 56.7386L9.31618 56.9025L9.3162 56.9024L9.06487 56.7386ZM18.7972 41.8068L18.8884 41.521L18.6706 41.4515L18.5458 41.643L18.7972 41.8068ZM27.9047 44.7143L28.1562 44.8778L28.3706 44.5481L27.9959 44.4285L27.9047 44.7143ZM57.2616 49.8621L57.5616 49.8627V49.8621H57.2616ZM52.48 54.6437V54.9437H52.4805L52.48 54.6437ZM51.8787 54.6437L51.8782 54.9437H51.8787V54.6437ZM47.1065 8.27463L46.8065 8.27409V8.27463H47.1065ZM51.8787 3.50239V3.20239L51.8777 3.2024L51.8787 3.50239ZM57.2616 8.27463H57.5616V8.27409L57.2616 8.27463ZM66.1906 23.1452L66.0863 23.4264L66.1368 23.4452H66.1906V23.1452ZM66.1953 23.1452L66.3 22.864L66.2494 22.8452H66.1953V23.1452ZM67.9473 25.6486H68.2473L68.2473 25.6461L67.9473 25.6486ZM67.9473 30.759L68.2473 30.7615V30.759H67.9473ZM66.1953 33.2625L66.0907 32.9813L66.0905 32.9814L66.1953 33.2625ZM59.7697 35.658H59.4697V36.09L59.8745 35.9391L59.7697 35.658ZM59.7697 20.7634L59.8741 20.4821L59.4697 20.3321V20.7634H59.7697ZM69.7936 99.1148L70.0062 98.9031L70.0058 98.9027L69.7936 99.1148ZM99.1682 99.1148L98.9561 98.9027L98.9557 98.9031L99.1682 99.1148ZM99.1682 50.8581L98.9557 51.0698L98.9561 51.0702L99.1682 50.8581ZM73.3352 95.5734L73.123 95.7855L73.123 95.7855L73.3352 95.5734ZM95.6266 54.3998L95.8387 54.1877V54.1877L95.6266 54.3998ZM93.4848 93.4373V93.7373H93.7848V93.4373H93.4848ZM75.4759 93.4373H75.1759V93.7373H75.4759V93.4373ZM75.4759 56.5369V56.2369H75.1759V56.5369H75.4759ZM93.4848 56.5369H93.7848V56.2369H93.4848V56.5369ZM56.1202 95.941L55.8202 95.9409L55.8202 96.241H56.1202V95.941ZM56.1249 95.941H56.4249V95.641H56.1249V95.941ZM55.3875 97.7118L55.5996 97.924L55.5996 97.9239L55.3875 97.7118ZM55.3875 73.2311L55.5996 73.019L55.5996 73.0189L55.3875 73.2311ZM56.1249 75.0019L56.4249 75.002V75.0019H56.1249ZM52.3626 74.9969L52.5739 74.784L52.4862 74.6969L52.3625 74.6969L52.3626 74.9969ZM33.9413 75.0016V75.3016H33.9413L33.9413 75.0016ZM33.0535 95.5747L32.8414 95.7868H32.8414L33.0535 95.5747ZM53.2504 95.5747L53.4626 95.7868L53.4626 95.7868L53.2504 95.5747ZM53.2504 75.368L53.4626 75.1559L53.4626 75.1559L53.2504 75.368ZM52.3674 75.0017L52.1561 75.2146L52.2438 75.3017H52.3674V75.0017ZM51.1085 93.4327L51.1086 93.7327L51.4084 93.7326L51.4085 93.4328L51.1085 93.4327ZM35.1954 93.4374H34.8954V93.7375L35.1955 93.7374L35.1954 93.4374ZM35.1954 77.5051V77.2051H34.8954V77.5051H35.1954ZM51.1133 77.5051L51.4133 77.5052L51.4134 77.2051H51.1133V77.5051ZM39.3283 91.2203L39.4783 90.9605L39.4772 90.9599L39.3283 91.2203ZM40.8314 91.6196L40.834 91.3196L40.8287 91.3196L40.8314 91.6196ZM42.3344 91.2203L42.1842 90.9606L42.1824 90.9617L42.3344 91.2203ZM47.7688 88.078L47.919 88.3377L47.9195 88.3374L47.7688 88.078ZM47.7688 82.8643L47.9195 82.6048L47.9168 82.6033L47.7688 82.8643ZM42.3344 79.783L42.1818 80.0413L42.1864 80.044L42.3344 79.783ZM39.3283 79.783L39.4769 80.0437L39.4815 80.0409L39.3283 79.783ZM37.8253 82.2912L37.5253 82.2844V82.2912H37.8253ZM37.8253 88.5523L38.1253 88.56V88.5523H37.8253ZM40.3241 82.3336L40.5362 82.1215L40.0235 81.6088L40.0241 82.3338L40.3241 82.3336ZM40.3288 82.3383L40.1166 82.5504L40.6683 83.1021L40.6284 82.3229L40.3288 82.3383ZM40.5777 81.9015L40.7181 82.1666L40.7276 82.1616L40.7367 82.1559L40.5777 81.9015ZM40.8314 81.8263L40.8471 81.5267L40.8392 81.5263H40.8314V81.8263ZM41.0803 81.9015L40.9212 82.156L40.9305 82.1614L41.0803 81.9015ZM46.5147 85.0344L46.3648 85.2945L46.3743 85.2996L46.5147 85.0344ZM46.7684 85.4713L46.4685 85.4636L46.4683 85.4713L46.4685 85.4789L46.7684 85.4713ZM46.5147 85.9081L46.3775 85.6413L46.3709 85.6447L46.3644 85.6485L46.5147 85.9081ZM41.0803 89.0551L41.23 89.3151L41.2306 89.3147L41.0803 89.0551ZM40.5777 89.0504L40.7332 88.7938L40.7274 88.7904L40.5777 89.0504ZM40.3288 88.6136H40.6288V88.6133L40.3288 88.6136ZM52.4891 0.7H51.8879V1.3H52.4891V0.7ZM51.8872 0.700001C47.8228 0.709782 44.4878 3.92778 44.3265 7.99133L44.926 8.01514C45.0746 4.27223 48.1465 1.309 51.8886 1.3L51.8872 0.700001ZM44.522 7.72194L17.1521 17.8675L17.3606 18.4301L44.7305 8.28453L44.522 7.72194ZM17.2564 17.8488H12.5828V18.4488H17.2564V17.8488ZM12.5828 17.8488C6.01983 17.8488 0.7 23.1686 0.7 29.7316H1.3C1.3 23.5 6.3512 18.4488 12.5828 18.4488V17.8488ZM0.7 29.7316C0.7 36.2993 6.01975 41.6192 12.5828 41.6192V41.0192C6.35128 41.0192 1.3 35.9681 1.3 29.7316H0.7ZM12.5828 41.6192H16.115V41.0192H12.5828V41.6192ZM15.8636 41.1554L6.70911 55.2095L7.21186 55.537L16.3664 41.4829L15.8636 41.1554ZM6.70437 55.217C4.61418 58.6436 5.62755 63.1124 8.9901 65.3051L9.31784 64.8026C6.22671 62.7868 5.29546 58.6789 7.21659 55.5295L6.70437 55.217ZM8.99052 65.3054C12.3576 67.493 16.8509 66.6173 19.1419 63.3229L18.6493 62.9803C16.5438 66.0081 12.4135 66.8138 9.31742 64.8023L8.99052 65.3054ZM19.1467 63.3159L30.6215 45.7819L30.1195 45.4534L18.6446 62.9873L19.1467 63.3159ZM30.278 45.903L44.5329 50.525L44.7179 49.9542L30.463 45.3323L30.278 45.903ZM44.3257 50.253C44.5066 54.3023 47.8371 57.4907 51.8863 57.5006L51.8878 56.9006C48.1587 56.8915 45.0917 53.9552 44.9251 50.2262L44.3257 50.253ZM51.887 57.5006H52.4883V56.9006H51.887V57.5006ZM52.489 57.5006C54.5091 57.4957 56.4405 56.6838 57.8632 55.2514L57.4375 54.8285C56.1263 56.1486 54.3472 56.8961 52.4875 56.9006L52.489 57.5006ZM57.8632 55.2514C59.2863 53.8185 60.0784 51.8771 60.0687 49.8624L59.4687 49.8653C59.4777 51.7209 58.748 53.509 57.4375 54.8285L57.8632 55.2514ZM60.0687 49.8638V38.3421H59.4687V49.8638H60.0687ZM59.8726 38.6235L67.1623 35.9321L66.9545 35.3692L59.6648 38.0606L59.8726 38.6235ZM67.3584 35.6506V35.646H66.7584V35.6506H67.3584ZM67.163 35.9271C69.3143 35.1272 70.7447 33.0707 70.7497 30.7758L70.1497 30.7745C70.1452 32.8196 68.8702 34.6522 66.9539 35.3648L67.163 35.9271ZM70.7497 30.7751V25.6648H70.1497V30.7751H70.7497ZM70.7497 25.6641C70.7447 23.3642 69.3141 21.3128 67.1636 20.5083L66.9533 21.0702C68.8704 21.7874 70.1452 23.6159 70.1497 25.6654L70.7497 25.6641ZM67.1623 20.5078L59.8726 17.8164L59.6648 18.3792L66.9545 21.0707L67.1623 20.5078ZM60.0687 18.0978V8.2763H59.4687V18.0978H60.0687ZM60.0687 8.2756C60.0589 4.09471 56.671 0.704883 52.4894 0.7L52.4888 1.3C56.3392 1.3045 59.4597 4.42609 59.4687 8.27701L60.0687 8.2756ZM19.0367 39.1533V20.2618H18.4367V39.1533H19.0367ZM18.8409 20.5432L44.7173 10.9612L44.509 10.3985L18.6325 19.9805L18.8409 20.5432ZM44.3131 10.6799V47.5418H44.9131V10.6799H44.3131ZM44.7056 47.2564L18.8292 38.868L18.6442 39.4387L44.5206 47.8272L44.7056 47.2564ZM3.8042 29.6844C3.80874 24.8382 7.73756 20.9092 12.5841 20.9001L12.583 20.3001C7.40605 20.3098 3.20905 24.5066 3.2042 29.6839L3.8042 29.6844ZM12.5836 20.9001H16.2284V20.3001H12.5836V20.9001ZM15.9284 20.6001V38.7629H16.5284V20.6001H15.9284ZM16.2284 38.4629H12.5836V39.0629H16.2284V38.4629ZM12.5838 38.4629C7.73752 38.4584 3.80873 34.5301 3.8042 29.6839L3.2042 29.6844C3.20904 34.8617 7.40608 39.0581 12.5833 39.0629L12.5838 38.4629ZM16.5548 61.6186C15.2456 63.6129 12.5703 64.1754 10.5669 62.875L10.2402 63.3782C12.5204 64.8583 15.566 64.2183 17.0564 61.9478L16.5548 61.6186ZM10.5684 62.876C8.57812 61.5666 8.01654 58.8959 9.31618 56.9025L8.81356 56.5748C7.33268 58.8462 7.97354 61.8871 10.2387 63.3772L10.5684 62.876ZM9.3162 56.9024L19.0485 41.9706L18.5458 41.643L8.81354 56.5748L9.3162 56.9024ZM18.7059 42.0926L27.8134 45L27.9959 44.4285L18.8884 41.521L18.7059 42.0926ZM27.6532 44.5507L16.5541 61.6197L17.0571 61.9468L28.1562 44.8778L27.6532 44.5507ZM56.9616 49.8616C56.9572 52.336 54.954 54.3394 52.4794 54.3438L52.4805 54.9437C55.2856 54.9388 57.5566 52.6676 57.5616 49.8627L56.9616 49.8616ZM52.48 54.3438H51.8787V54.9437H52.48V54.3438ZM51.8793 54.3438C49.4053 54.3393 47.4065 52.3319 47.4065 49.8621H46.8065C46.8065 52.6624 49.0728 54.9388 51.8782 54.9437L51.8793 54.3438ZM47.4065 49.8621V8.27463H46.8065V49.8621H47.4065ZM47.4065 8.27516C47.4109 5.8104 49.4092 3.8113 51.8798 3.80239L51.8777 3.2024C49.078 3.21249 46.8115 5.47819 46.8065 8.27409L47.4065 8.27516ZM51.8787 3.80239H52.48V3.20239H51.8787V3.80239ZM52.48 3.80239C54.9496 3.80239 56.9572 5.80557 56.9616 8.27516L57.5616 8.27409C57.5566 5.4734 55.2804 3.20239 52.48 3.20239V3.80239ZM56.9616 8.27463V49.8621H57.5616V8.27463H56.9616ZM66.1906 23.4452H66.1953V22.8452H66.1906V23.4452ZM66.0907 23.4263C67.021 23.7726 67.639 24.6571 67.6473 25.6512L68.2473 25.6461C68.2369 24.4044 67.4645 23.2975 66.3 22.864L66.0907 23.4263ZM67.6473 25.6486V30.759H68.2473V25.6486H67.6473ZM67.6473 30.7565C67.6389 31.7506 67.021 32.6351 66.0907 32.9813L66.3 33.5436C67.4645 33.1102 68.2368 32.0033 68.2473 30.7615L67.6473 30.7565ZM66.0905 32.9814L59.665 35.3769L59.8745 35.9391L66.3001 33.5436L66.0905 32.9814ZM60.0697 35.658V20.7634H59.4697V35.658H60.0697ZM59.6654 21.0447L66.0863 23.4264L66.295 22.8639L59.8741 20.4821L59.6654 21.0447ZM94.7389 48.7216H74.2229V49.3216H94.7389V48.7216ZM74.2229 48.7216C70.6002 48.7216 67.6618 51.66 67.6618 55.2827H68.2618C68.2618 51.9914 70.9316 49.3216 74.2229 49.3216V48.7216ZM67.6618 55.2827V94.6902H68.2618V55.2827H67.6618ZM67.6618 94.6902C67.6618 96.4277 68.3509 98.0963 69.5815 99.327L70.0058 98.9027C68.8879 97.7848 68.2618 96.2689 68.2618 94.6902H67.6618ZM69.5811 99.3265C70.8119 100.562 72.4809 101.251 74.2229 101.251V100.651C72.6395 100.651 71.1238 100.025 70.0062 98.9031L69.5811 99.3265ZM74.2229 101.251H94.7389V100.651H74.2229V101.251ZM94.7389 101.251C96.481 101.251 98.1499 100.562 99.3808 99.3265L98.9557 98.9031C97.838 100.025 96.3223 100.651 94.7389 100.651V101.251ZM99.3803 99.327C100.611 98.0963 101.3 96.4276 101.3 94.6902H100.7C100.7 96.2689 100.074 97.7848 98.9561 98.9027L99.3803 99.327ZM101.3 94.6902V55.2827H100.7V94.6902H101.3ZM101.3 55.2827C101.3 53.5453 100.611 51.8767 99.3804 50.646L98.9561 51.0702C100.074 52.1882 100.7 53.7041 100.7 55.2827H101.3ZM99.3808 50.6464C98.1499 49.4106 96.481 48.7216 94.7389 48.7216V49.3216C96.3223 49.3216 97.838 49.9477 98.9557 51.0698L99.3808 50.6464ZM98.1965 94.6902C98.1965 96.5962 96.6491 98.1478 94.7389 98.1478V98.7478C96.981 98.7478 98.7965 96.9271 98.7965 94.6902H98.1965ZM94.7389 98.1478H74.2229V98.7478H94.7389V98.1478ZM74.2229 98.1478C72.3127 98.1478 70.7653 96.5962 70.7653 94.6902H70.1653C70.1653 96.9271 71.9809 98.7478 74.2229 98.7478V98.1478ZM70.7653 94.6902V55.2827H70.1653V94.6902H70.7653ZM70.7653 55.2827C70.7653 53.3767 72.3127 51.8251 74.2229 51.8251V51.2251C71.9809 51.2251 70.1653 53.0458 70.1653 55.2827H70.7653ZM74.2229 51.8251H94.7389V51.2251H74.2229V51.8251ZM94.7389 51.8251C96.6491 51.8251 98.1965 53.3767 98.1965 55.2827H98.7965C98.7965 53.0458 96.981 51.2251 94.7389 51.2251V51.8251ZM98.1965 55.2827V94.6902H98.7965V55.2827H98.1965ZM94.7389 53.7334H74.2229V54.3334H94.7389V53.7334ZM74.2229 53.7334C73.3682 53.7334 72.6688 54.4252 72.6688 55.2828H73.2688C73.2688 54.7595 73.6967 54.3334 74.2229 54.3334V53.7334ZM72.6688 55.2828V94.6903H73.2688V55.2828H72.6688ZM72.6688 94.6903C72.6688 95.0986 72.8319 95.4944 73.123 95.7855L73.5473 95.3613C73.3687 95.1827 73.2688 94.9396 73.2688 94.6903H72.6688ZM73.123 95.7855C73.4146 96.0771 73.8105 96.2398 74.2229 96.2398V95.6397C73.9683 95.6397 73.7254 95.5394 73.5473 95.3613L73.123 95.7855ZM74.2229 96.2398H94.7389V95.6397H74.2229V96.2398ZM94.7389 96.2398C95.1513 96.2398 95.5472 96.0771 95.8387 95.7855L95.4145 95.3613C95.2364 95.5394 94.9934 95.6397 94.7389 95.6397V96.2398ZM95.8387 95.7855C96.1299 95.4944 96.293 95.0986 96.293 94.6903H95.693C95.693 94.9396 95.593 95.1827 95.4145 95.3613L95.8387 95.7855ZM96.293 94.6903V55.2828H95.693V94.6903H96.293ZM96.293 55.2828C96.293 54.8745 96.1299 54.4788 95.8387 54.1877L95.4145 54.6119C95.593 54.7905 95.693 55.0336 95.693 55.2828H96.293ZM95.8387 54.1877C95.5472 53.8961 95.1513 53.7334 94.7389 53.7334V54.3334C94.9934 54.3334 95.2363 54.4338 95.4145 54.6119L95.8387 54.1877ZM93.4848 93.1373H75.4759V93.7373H93.4848V93.1373ZM75.7759 93.4373V56.5369H75.1759V93.4373H75.7759ZM75.4759 56.8369H93.4848V56.2369H75.4759V56.8369ZM93.1848 56.5369V93.4373H93.7848V56.5369H93.1848ZM79.4962 89.4683C79.4962 88.938 79.9216 88.5141 80.4456 88.5141V87.9141C79.5887 87.9141 78.8962 88.6082 78.8962 89.4683H79.4962ZM80.4456 88.5141H88.5762V87.9141H80.4456V88.5141ZM88.5762 88.5141C89.1017 88.5141 89.5303 88.9395 89.5303 89.4683H90.1303C90.1303 88.6066 89.4316 87.9141 88.5762 87.9141V88.5141ZM89.5303 89.4683C89.5303 89.9916 89.1024 90.4177 88.5762 90.4177V91.0177C89.4309 91.0177 90.1303 90.3259 90.1303 89.4683H89.5303ZM88.5762 90.4177H80.4456V91.0177H88.5762V90.4177ZM80.4456 90.4177C79.9209 90.4177 79.4962 89.9931 79.4962 89.4683H78.8962C78.8962 90.3245 79.5895 91.0177 80.4456 91.0177V90.4177ZM53.6167 69.69H32.6871V70.29H53.6167V69.69ZM32.6871 69.69C29.7545 69.69 27.38 72.0698 27.38 75.0017H27.98C27.98 72.4005 30.0866 70.29 32.6871 70.29V69.69ZM27.38 75.0017V95.941H27.98V75.0017H27.38ZM27.38 95.941C27.38 97.3493 27.9374 98.7034 28.9335 99.6994L29.3577 99.2751C28.4749 98.3924 27.98 97.1912 27.98 95.941H27.38ZM28.9335 99.6994C29.9293 100.695 31.2784 101.253 32.6871 101.253V100.653C31.4372 100.653 30.2408 100.158 29.3577 99.2751L28.9335 99.6994ZM32.6871 101.253H53.6167V100.653H32.6871V101.253ZM53.6167 101.253C55.0251 101.253 56.3792 100.695 57.3751 99.6993L56.9508 99.2751C56.0681 100.158 54.867 100.653 53.6167 100.653V101.253ZM57.3751 99.6993C58.3711 98.7033 58.9285 97.3492 58.9285 95.941H58.3285C58.3285 97.1911 57.8336 98.3922 56.9508 99.2751L57.3751 99.6993ZM58.9285 95.941V75.0017H58.3285V95.941H58.9285ZM58.9285 75.0017C58.9285 73.5934 58.3712 72.2393 57.3751 71.2434L56.9509 71.6677C57.8337 72.5504 58.3285 73.7515 58.3285 75.0017H58.9285ZM57.3751 71.2434C56.379 70.2474 55.025 69.69 53.6167 69.69V70.29C54.8668 70.29 56.068 70.7849 56.9509 71.6677L57.3751 71.2434ZM56.1202 96.241H56.1249V95.641H56.1202V96.241ZM55.8249 95.941C55.8249 96.527 55.5898 97.0852 55.1753 97.4997L55.5996 97.9239C56.1246 97.3989 56.4249 96.6889 56.4249 95.941H55.8249ZM55.1754 97.4997C54.7609 97.9141 54.2027 98.1493 53.6167 98.1493V98.7493C54.3646 98.7493 55.0746 98.4489 55.5996 97.924L55.1754 97.4997ZM53.6167 98.1493H32.687V98.7493H53.6167V98.1493ZM32.687 98.1493C31.4722 98.1493 30.4836 97.1613 30.4836 95.9411H29.8836C29.8836 97.492 31.1401 98.7493 32.687 98.7493V98.1493ZM30.4836 95.9411V75.0018H29.8836V95.9411H30.4836ZM30.4836 75.0018C30.4836 73.7816 31.4722 72.7937 32.687 72.7937V72.1937C31.1401 72.1937 29.8836 73.451 29.8836 75.0018H30.4836ZM32.687 72.7937H53.6167V72.1937H32.687V72.7937ZM53.6167 72.7937C54.2027 72.7937 54.7608 73.0288 55.1754 73.4433L55.5996 73.0189C55.0745 72.494 54.3646 72.1937 53.6167 72.1937V72.7937ZM55.1754 73.4432C55.5898 73.8577 55.8249 74.4158 55.8249 75.0019H56.4249C56.4249 74.254 56.1246 73.544 55.5996 73.019L55.1754 73.4432ZM55.8249 75.0019L55.8202 95.9409L56.4202 95.9411L56.4249 75.002L55.8249 75.0019ZM52.3625 74.6969L33.9412 74.7016L33.9413 75.3016L52.3627 75.2969L52.3625 74.6969ZM33.9413 74.7016C33.0866 74.7016 32.3871 75.3934 32.3871 76.2511H32.9871C32.9871 75.7277 33.415 75.3016 33.9413 75.3016V74.7016ZM32.3871 76.2511V94.6917H32.9871V76.2511H32.3871ZM32.3871 94.6917C32.3871 95.1 32.5502 95.4957 32.8414 95.7868L33.2656 95.3626C33.0871 95.184 32.9871 94.9409 32.9871 94.6917H32.3871ZM32.8414 95.7868C33.1329 96.0784 33.5288 96.2411 33.9412 96.2411V95.6411C33.6867 95.6411 33.4437 95.5407 33.2656 95.3626L32.8414 95.7868ZM33.9412 96.2411H52.3674V95.6411H33.9412V96.2411ZM52.3674 96.2411C52.7757 96.2411 53.1714 96.078 53.4626 95.7868L53.0383 95.3626C52.8597 95.5411 52.6167 95.6411 52.3674 95.6411V96.2411ZM53.4626 95.7868C53.7537 95.4957 53.9168 95.1 53.9168 94.6917H53.3168C53.3168 94.9409 53.2168 95.184 53.0383 95.3626L53.4626 95.7868ZM53.9168 94.6917V76.2511H53.3168V94.6917H53.9168ZM53.9168 76.2511C53.9168 75.8428 53.7537 75.4471 53.4626 75.1559L53.0383 75.5802C53.2168 75.7587 53.3168 76.0018 53.3168 76.2511H53.9168ZM53.4626 75.1559C53.1714 74.8648 52.7757 74.7017 52.3674 74.7017V75.3017C52.6167 75.3017 52.8597 75.4016 53.0383 75.5802L53.4626 75.1559ZM52.5787 74.7887L52.5739 74.784L52.1513 75.2099L52.1561 75.2146L52.5787 74.7887ZM51.1084 93.1327L35.1953 93.1374L35.1955 93.7374L51.1086 93.7327L51.1084 93.1327ZM35.4954 93.4374V77.5051H34.8954V93.4374H35.4954ZM35.1954 77.8051H51.1133V77.2051H35.1954V77.8051ZM50.8133 77.505L50.8085 93.4326L51.4085 93.4328L51.4133 77.5052L50.8133 77.505ZM39.1783 91.4802C39.6789 91.7691 40.2481 91.9248 40.834 91.9196L40.8287 91.3196C40.3531 91.3238 39.889 91.1976 39.4783 90.9605L39.1783 91.4802ZM40.8287 91.9196C41.408 91.9248 41.983 91.7748 42.4864 91.479L42.1824 90.9617C41.7746 91.2013 41.3068 91.3238 40.834 91.3196L40.8287 91.9196ZM42.4846 91.4801L47.919 88.3377L47.6187 87.8183L42.1842 90.9606L42.4846 91.4801ZM47.9195 88.3374C48.9407 87.7443 49.5766 86.6551 49.5766 85.4711H48.9766C48.9766 86.4386 48.4569 87.3314 47.6181 87.8186L47.9195 88.3374ZM49.5766 85.4711C49.5766 84.2871 48.9407 83.198 47.9195 82.6048L47.6182 83.1237C48.4569 83.6108 48.9766 84.5037 48.9766 85.4711H49.5766ZM47.9168 82.6033L42.4824 79.522L42.1864 80.044L47.6209 83.1252L47.9168 82.6033ZM42.487 79.5247C41.4631 78.9197 40.1951 78.9193 39.1751 79.5251L39.4815 80.0409C40.3121 79.5476 41.3457 79.5472 42.1818 80.0413L42.487 79.5247ZM39.1798 79.5224C38.183 80.0905 37.5512 81.135 37.5253 82.2844L38.1252 82.2979C38.1462 81.3621 38.6606 80.5089 39.4769 80.0436L39.1798 79.5224ZM37.5253 82.2912V88.5523H38.1253V82.2912H37.5253ZM37.5254 88.5446C37.4943 89.7542 38.1302 90.8811 39.1795 91.4808L39.4772 90.9599C38.6194 90.4697 38.0998 89.5486 38.1252 88.56L37.5254 88.5446ZM40.1119 82.5457L40.1166 82.5504L40.5409 82.1262L40.5362 82.1215L40.1119 82.5457ZM40.6284 82.3229C40.6251 82.2584 40.6596 82.1976 40.7181 82.1666L40.4374 81.6363C40.1764 81.7745 40.0137 82.0519 40.0292 82.3537L40.6284 82.3229ZM40.7367 82.1559C40.769 82.1357 40.8038 82.1263 40.8314 82.1263V81.5263C40.6804 81.5263 40.5367 81.5733 40.4187 81.6471L40.7367 82.1559ZM40.8156 82.1259C40.8617 82.1283 40.8954 82.1397 40.9213 82.1559L41.2393 81.6471C41.1149 81.5693 40.9795 81.5337 40.8471 81.5267L40.8156 82.1259ZM40.9305 82.1614L46.3649 85.2943L46.6645 84.7745L41.2301 81.6416L40.9305 82.1614ZM46.3743 85.2996C46.4323 85.3303 46.4703 85.3931 46.4685 85.4636L47.0683 85.4789C47.0758 85.1831 46.9165 84.9077 46.6551 84.7693L46.3743 85.2996ZM46.4685 85.4789C46.4704 85.5538 46.4336 85.6125 46.3775 85.6413L46.6519 86.1749C46.9247 86.0346 47.0757 85.7551 47.0683 85.4636L46.4685 85.4789ZM46.3644 85.6485L40.93 88.7955L41.2306 89.3147L46.6651 86.1677L46.3644 85.6485ZM40.9306 88.7951C40.8685 88.8308 40.7929 88.83 40.7332 88.7938L40.4222 89.307C40.6725 89.4586 40.982 89.4578 41.23 89.3151L40.9306 88.7951ZM40.7274 88.7904C40.6677 88.7561 40.6288 88.6922 40.6288 88.6136H40.0288C40.0288 88.9013 40.1777 89.1662 40.428 89.3104L40.7274 88.7904ZM40.6288 88.6133L40.6241 82.3334L40.0241 82.3338L40.0288 88.6138L40.6288 88.6133ZM91.9585 24.5457C91.9585 24.8002 91.8582 25.0431 91.6801 25.2213L92.1043 25.6455C92.3959 25.354 92.5585 24.958 92.5585 24.5457H91.9585ZM91.6801 25.2213C91.5019 25.3994 91.259 25.4998 91.0044 25.4998V26.0998C91.4168 26.0998 91.8128 25.9371 92.1043 25.6455L91.6801 25.2213ZM91.0044 25.4998H77.9556V26.0998H91.0044V25.4998ZM77.9556 25.4998C77.4261 25.4998 77.0015 25.0751 77.0015 24.5456H76.4015C76.4015 25.4065 77.0948 26.0998 77.9556 26.0998V25.4998ZM77.0015 24.5456C77.0015 24.0216 77.4254 23.5962 77.9556 23.5962V22.9962C77.0954 22.9962 76.4015 23.6887 76.4015 24.5456H77.0015ZM77.9556 23.5962H91.0044V22.9962H77.9556V23.5962ZM91.0044 23.5962C91.259 23.5962 91.5019 23.6965 91.6801 23.8747L92.1043 23.4504C91.8127 23.1588 91.4168 22.9962 91.0044 22.9962V23.5962ZM91.6801 23.8747C91.8586 24.0532 91.9585 24.2963 91.9585 24.5457H92.5585C92.5585 24.1374 92.3955 23.7416 92.1043 23.4504L91.6801 23.8747ZM91.9585 31.8731C91.9585 32.1276 91.8582 32.3705 91.6801 32.5487L92.1043 32.9729C92.3959 32.6814 92.5585 32.2855 92.5585 31.8731H91.9585ZM91.6801 32.5487C91.5019 32.7268 91.259 32.8272 91.0044 32.8272V33.4272C91.4168 33.4272 91.8127 33.2645 92.1043 32.9729L91.6801 32.5487ZM91.0044 32.8272H77.9556V33.4272H91.0044V32.8272ZM77.9556 32.8272C77.4261 32.8272 77.0015 32.4025 77.0015 31.873H76.4015C76.4015 32.7339 77.0948 33.4272 77.9556 33.4272V32.8272ZM77.0015 31.873C77.0015 31.349 77.4254 30.9236 77.9556 30.9236V30.3236C77.0954 30.3236 76.4015 31.0162 76.4015 31.873H77.0015ZM77.9556 30.9236H91.0044V30.3236H77.9556V30.9236ZM91.0044 30.9236C91.259 30.9236 91.5019 31.024 91.6801 31.2021L92.1043 30.7778C91.8128 30.4862 91.4168 30.3236 91.0044 30.3236V30.9236ZM91.6801 31.2021C91.8586 31.3806 91.9585 31.6238 91.9585 31.8731H92.5585C92.5585 31.4648 92.3955 31.069 92.1043 30.7778L91.6801 31.2021ZM71.5532 39.2005C71.5532 38.6764 71.9771 38.251 72.5073 38.251V37.651C71.6472 37.651 70.9532 38.3436 70.9532 39.2005H71.5532ZM72.5073 38.251H84.4425V37.651H72.5073V38.251ZM84.4425 38.251C84.9687 38.251 85.3966 38.6771 85.3966 39.2005H85.9966C85.9966 38.3428 85.2971 37.651 84.4425 37.651V38.251ZM85.3966 39.2005C85.3966 39.7292 84.968 40.1546 84.4425 40.1546V40.7546C85.2979 40.7546 85.9966 40.062 85.9966 39.2005H85.3966ZM84.4425 40.1546H72.5073V40.7546H84.4425V40.1546ZM72.5073 40.1546C71.9778 40.1546 71.5532 39.73 71.5532 39.2005H70.9532C70.9532 40.0614 71.6465 40.7546 72.5073 40.7546V40.1546ZM85.3969 17.2187C85.3969 17.4733 85.2965 17.7162 85.1183 17.8943L85.5426 18.3186C85.8342 18.027 85.9968 17.6311 85.9968 17.2187H85.3969ZM85.1183 17.8943C84.9402 18.0725 84.6973 18.1728 84.4427 18.1728V18.7728C84.8551 18.7728 85.251 18.6102 85.5426 18.3186L85.1183 17.8943ZM84.4427 18.1728H72.5076V18.7728H84.4427V18.1728ZM72.5076 18.1728C71.9781 18.1728 71.5535 17.7482 71.5535 17.2187H70.9535C70.9535 18.0796 71.6468 18.7728 72.5076 18.7728V18.1728ZM71.5535 17.2187C71.5535 16.6946 71.9774 16.2692 72.5076 16.2692V15.6692C71.6474 15.6692 70.9535 16.3618 70.9535 17.2187H71.5535ZM72.5076 16.2692H84.4427V15.6692H72.5076V16.2692ZM84.4427 16.2692C84.6973 16.2692 84.9402 16.3696 85.1183 16.5477L85.5426 16.1235C85.251 15.8319 84.8551 15.6692 84.4427 15.6692V16.2692ZM85.1183 16.5477C85.2969 16.7263 85.3969 16.9694 85.3969 17.2187H85.9968C85.9968 16.8104 85.8338 16.4146 85.5426 16.1235L85.1183 16.5477Z" fill="#3C7CFF" mask="url(#path-1-outside-1_125_739)"/>
</svg>
