<svg width="100" height="95" viewBox="0 0 100 95" fill="none" xmlns="http://www.w3.org/2000/svg">
<path d="M71.931 15.7936L71.931 15.7936C72.6644 15.0601 73.8525 15.0602 74.586 15.7936C75.3195 16.5271 75.3195 17.7152 74.586 18.4487L68.2529 24.7818C67.886 25.1487 67.4061 25.3319 66.9253 25.3319C66.4434 25.3319 65.9644 25.1521 65.5987 24.7827L65.5978 24.7818C64.8644 24.0484 64.8644 22.8602 65.5978 22.1267L71.931 15.7936Z" fill="#3C7CFF" stroke="white" stroke-width="0.5"/>
<path d="M63.052 17.7074C63.052 18.7454 62.2123 19.5851 61.1743 19.5851C60.1402 19.5851 59.2966 18.7451 59.2966 17.7074V8.74791C59.2966 7.70994 60.1363 6.87024 61.1743 6.87024C62.2123 6.87024 63.052 7.70991 63.052 8.74791V17.7074Z" fill="#3C7CFF" stroke="white" stroke-width="0.5"/>
<path d="M72.6765 31.083C71.6385 31.083 70.7988 30.2433 70.7988 29.2053C70.7988 28.1673 71.6385 27.3276 72.6765 27.3276H81.636C82.674 27.3276 83.5137 28.1673 83.5137 29.2053C83.5137 30.2433 82.674 31.083 81.636 31.083H72.6765Z" fill="#3C7CFF" stroke="white" stroke-width="0.5"/>
<path d="M41.3209 70.5217L41.0515 70.6306L41.1995 70.8807L49.5402 84.9768C49.5402 84.9768 49.5403 84.9769 49.5403 84.9769C49.9768 85.7181 49.8557 86.6569 49.2505 87.2621L42.7886 93.724C42.4217 94.0908 41.9417 94.2741 41.461 94.2741C40.9802 94.2741 40.5002 94.0908 40.1334 93.724L28.5887 82.1793L28.4396 82.0302L28.2675 82.152C26.2193 83.6016 23.7805 84.3916 21.2061 84.3916C17.9226 84.3916 14.8446 83.121 12.5356 80.812L9.5726 77.849C7.26361 75.54 5.99304 72.462 5.99304 69.1785C5.99304 65.8908 7.26364 62.8128 9.5726 60.5039L19.0432 51.0333L19.0791 50.9973L19.0982 50.9502L29.3856 25.4973C30.8418 22.2824 33.2401 20.2833 36.1652 19.7522L36.1205 19.5062L36.1652 19.7522C39.3158 19.1801 42.7442 20.437 45.5599 23.2527L48.5229 26.2157L48.669 26.3619L48.84 26.2458C50.6481 25.0188 52.7809 24.3524 55.0162 24.3524C61.0867 24.3524 66.0279 29.2897 66.0279 35.3642C66.0279 37.5997 65.3656 39.7324 64.1348 41.54L64.0183 41.7111L64.1647 41.8575L67.1277 44.8205C69.9433 47.6361 71.2002 51.0644 70.6282 54.2148C70.0928 57.1414 68.0967 59.5392 64.962 60.9615L41.3209 70.5217ZM61.064 38.7569L61.3058 38.9987L61.4629 38.695C61.988 37.6793 62.2721 36.5428 62.2721 35.3638C62.2721 31.361 59.0185 28.1075 55.0158 28.1075C53.8367 28.1075 52.7003 28.3914 51.6845 28.9165L51.3807 29.0736L51.6225 29.3154L61.064 38.7569ZM32.838 26.9742L32.8378 26.9742L32.8339 26.9839L22.9428 51.4512L22.8808 51.6046L22.9978 51.7217L38.6564 67.3845L38.7734 67.5016L38.9269 67.4395L63.4781 57.516L63.4782 57.5162L63.488 57.5117C65.3492 56.6645 66.6206 55.2524 66.9299 53.5477C67.2908 51.5801 66.3622 49.3698 64.4713 47.4789L42.9042 25.9117C41.0093 24.0169 38.7989 23.088 36.8352 23.449L36.8352 23.449C35.1291 23.7629 33.7176 25.0356 32.838 26.9742ZM12.2268 63.1586L12.4036 63.3354L12.2268 63.1586C10.6295 64.756 9.74753 66.8934 9.74753 69.174C9.74753 71.4548 10.6295 73.5922 12.2268 75.1895L15.1898 78.1525L15.3445 77.9978L15.1898 78.1525C16.7872 79.7498 18.9248 80.632 21.2055 80.632C23.4864 80.632 25.6194 79.7499 27.2207 78.1529L27.2209 78.1527L35.4905 69.8831L35.6673 69.7063L35.4905 69.5295L20.85 54.889L20.6732 54.7122L20.4965 54.889L12.2268 63.1586ZM41.2868 89.5642L41.4635 89.7409L41.6402 89.5643L45.4343 85.7742L45.5716 85.637L45.4728 85.47L38.109 73.0242L37.9449 72.7469L37.7171 72.9747L31.384 79.3079L31.2072 79.4846L31.384 79.6614L41.2868 89.5642Z" fill="#3C7CFF" stroke="white" stroke-width="0.5"/>
<path d="M95.9946 77.9391H95.7446H94.1696C93.3407 77.9391 92.611 78.4819 92.3727 79.2738L92.3725 79.2744C92.1558 79.9882 91.867 80.6848 91.5144 81.3432C91.1257 82.0732 91.2577 82.9718 91.8405 83.5588L95.9946 77.9391ZM95.9946 77.9391V77.6891V74.2109V73.9589L95.7426 73.9609L94.1696 73.9734M95.9946 77.9391L94.1686 73.9734M71.3342 70.5569C70.9816 71.2153 70.6928 71.9119 70.4761 72.6256L70.4758 72.6265C70.2376 73.4218 69.5085 73.9609 68.679 73.9609H67.104H66.854V74.2109V77.6891V77.9391H67.104H68.679C69.508 77.9391 70.2376 78.4819 70.4759 79.2739L70.4761 79.2744C70.6928 79.9882 70.9817 80.685 71.3343 81.3436L71.3345 81.3439C71.7271 82.0741 71.5946 82.9759 71.0087 83.5582L71.0081 83.5588L69.8944 84.6725L69.7178 84.8491L69.8942 85.0259L72.3502 87.486L72.527 87.6631L72.7039 87.4862L73.8171 86.373C73.8171 86.373 73.8172 86.3729 73.8172 86.3729C74.4049 85.789 75.3036 85.6541 76.0325 86.046L76.0334 86.0465C76.6957 86.3989 77.3921 86.6877 78.1016 86.9044L78.1026 86.9047C78.8945 87.143 79.4373 87.8726 79.4373 88.7015V90.2766V90.5266H79.6873H83.1613H83.4113V90.2766V88.7015C83.4113 87.8725 83.9541 87.143 84.746 86.9047L84.7466 86.9045C85.4604 86.6878 86.1571 86.3989 86.8158 86.0462L86.8161 86.046C87.5455 85.6539 88.4479 85.7894 89.031 86.3725L90.1447 87.4862L90.3216 87.6631L90.4984 87.486L92.9544 85.0259L93.1308 84.8491L92.9542 84.6725L91.841 83.5593L71.5547 70.6745M71.3342 70.5569C71.3342 70.5567 71.3343 70.5566 71.3343 70.5565L71.5547 70.6745M71.3342 70.5569C71.3341 70.5569 71.3341 70.557 71.3341 70.557L71.5547 70.6745M71.3342 70.5569C71.723 69.8268 71.5909 68.928 71.0078 68.341L71.0081 68.3413L71.1849 68.1645M71.5547 70.6745C71.9952 69.8476 71.8456 68.8294 71.1849 68.1645M71.1849 68.1645L71.0076 68.3407M71.1849 68.1645L71.0076 68.3407M71.0076 68.3407L69.8944 67.2276L69.7178 67.0509L69.8942 66.8742L72.3502 64.414L72.527 64.237L72.7039 64.4139L73.8176 65.5276C74.4045 66.1145 75.3027 66.2464 76.0325 65.8541L76.0334 65.8535C76.6955 65.5013 77.3878 65.2124 78.102 64.9956L78.1026 64.9954C78.8945 64.7571 79.4373 64.0275 79.4373 63.1985V61.636V61.386H79.6873H83.1613H83.4113V61.636V63.211C83.4113 64.0399 83.9541 64.7696 84.746 65.0079L84.7466 65.008C85.4608 65.2249 86.1532 65.5138 86.8152 65.866L86.8161 65.8665C87.545 66.2584 88.4435 66.1236 89.0312 65.5398L89.031 65.5401L89.2077 65.7168M71.0076 68.3407L89.2077 65.7168M90.3215 64.6031L90.4983 64.7799L90.4981 64.78L90.3215 64.6031ZM90.3215 64.6031L90.1445 64.7797L90.1447 64.7799L90.3215 64.6031ZM89.2077 65.7168L89.0315 65.5395M89.2077 65.7168L89.0315 65.5395M89.0315 65.5395L90.1447 64.4263L90.3216 64.2494L90.4984 64.4265L92.9544 66.8866L93.1308 67.0634L92.9542 67.24L91.8405 68.3537L91.8399 68.3543C91.254 68.9366 91.1215 69.8384 91.5141 70.5686L91.5143 70.569C91.8669 71.2274 92.1557 71.924 92.3724 72.6377M89.0315 65.5395L92.3724 72.6377M92.3724 72.6377L92.1333 72.7107L92.3725 72.6381C92.3725 72.6379 92.3724 72.6378 92.3724 72.6377ZM94.1686 73.9734L94.1676 73.9734L94.1696 74.2234V73.9734M94.1686 73.9734C94.1689 73.9734 94.1693 73.9734 94.1696 73.9734M94.1686 73.9734H94.1696M95.7215 69.7788L95.2948 70.2056H95.8983H97.8723C98.9099 70.2056 99.7499 71.0491 99.7499 72.0833V79.8168C99.7499 80.8548 98.9103 81.6945 97.8723 81.6945L97.8717 81.6945L95.8978 81.6986L95.296 81.6999L95.7215 82.1254L97.1178 83.5217L97.2946 83.3449L97.1178 83.5217C97.8513 84.2551 97.8513 85.4433 97.1178 86.1768L91.6491 91.6455C90.9156 92.379 89.7275 92.379 88.994 91.6455L87.5977 90.2492L87.1709 89.8225V90.426V92.4C87.1709 93.4379 86.3312 94.2776 85.2933 94.2776H77.5639C76.5259 94.2776 75.6862 93.438 75.6862 92.4V90.426V89.8225L75.2594 90.2492L73.8631 91.6455C73.1297 92.379 71.9415 92.379 71.208 91.6455L65.7393 86.1768L65.5625 86.3536L65.7393 86.1768C65.0058 85.4433 65.0058 84.2552 65.7393 83.5217L67.1356 82.1254L67.5623 81.6986H66.9588H64.9848C63.9469 81.6986 63.1072 80.859 63.1072 79.821V72.0874C63.1072 71.0494 63.9469 70.2097 64.9848 70.2097H66.9588H67.5623L67.1356 69.783L65.7393 68.3867L65.7393 68.3867C65.0058 67.6532 65.0058 66.4651 65.7393 65.7316L71.208 60.2628L71.208 60.2628C71.9415 59.5294 73.1296 59.5294 73.8631 60.2628L75.2594 61.6591L75.6862 62.0859V61.4824V59.5084C75.6862 58.4704 76.5259 57.6307 77.5639 57.6307H85.2933C86.3312 57.6307 87.1709 58.4704 87.1709 59.5084V61.4782V62.0818L87.5977 61.655L88.994 60.2587L88.8172 60.0819L88.994 60.2587C89.7274 59.5252 90.9156 59.5252 91.6491 60.2587L97.1178 65.7275L97.2946 65.5507L97.1178 65.7275C97.8513 66.4609 97.8513 67.649 97.1178 68.3825L95.7215 69.7788ZM72.7039 64.7674L72.704 64.7673L72.5271 64.5907L72.7039 64.7674ZM72.5268 64.591L72.3503 64.7674L72.3505 64.7676L72.5268 64.591Z" fill="#3C7CFF" stroke="white" stroke-width="0.5"/>
<path d="M72.8354 75.9476C72.8354 71.2111 76.6881 67.3545 81.4286 67.3545C86.1691 67.3545 90.0217 71.2111 90.0217 75.9476C90.0217 80.6841 86.1691 84.5408 81.4286 84.5408C76.6921 84.5408 72.8354 80.6881 72.8354 75.9476ZM76.5908 75.9519C76.5908 78.6164 78.7596 80.7897 81.4286 80.7897C84.0976 80.7897 86.2664 78.6164 86.2664 75.9519C86.2664 73.283 84.0974 71.1141 81.4286 71.1141C78.7598 71.1141 76.5908 73.283 76.5908 75.9519Z" fill="#3C7CFF" stroke="white" stroke-width="0.5"/>
<path d="M18.6136 18.0676L18.6135 18.0676L13.5354 21.6456C12.5418 22.3456 11.5519 22.6889 10.5912 22.6929C9.6865 22.6927 8.74806 22.3441 8.03553 21.6122C7.32506 20.8823 6.82336 19.7545 6.82336 18.1681V9.62418C6.82336 8.03978 7.32502 6.91194 8.03558 6.18153C8.74836 5.44884 9.68706 5.09937 10.5918 5.09937C11.5519 5.09937 12.5415 5.44231 13.5354 6.14247L13.5355 6.14254L18.6136 9.71639L18.6139 9.71662C20.1152 10.7696 20.9593 12.2974 20.9593 13.892C20.9593 15.4863 20.1154 17.0103 18.6136 18.0676ZM10.9736 8.97265L10.6669 8.81928L10.6147 9.15824C10.596 9.27982 10.5827 9.43388 10.5827 9.62014V18.1683C10.5827 18.3545 10.596 18.5086 10.6147 18.6302L10.6669 18.9691L10.9736 18.8158C11.0856 18.7598 11.216 18.6829 11.3689 18.5781L11.3689 18.5781L11.3715 18.5763L16.4496 14.9983L16.451 14.9973C16.6703 14.8407 16.8532 14.6685 16.9834 14.4873C17.1128 14.3073 17.1998 14.1044 17.1998 13.8921C17.1998 13.4788 16.8792 13.0855 16.4491 12.7856C16.4489 12.7855 16.4488 12.7854 16.4486 12.7853L11.3735 9.21351C11.2169 9.09867 11.079 9.02535 10.9736 8.97265Z" fill="#3C7CFF" stroke="white" stroke-width="0.5"/>
<path d="M27.5341 19.4271C27.5341 23.8975 23.8936 27.5341 19.423 27.5341H8.35696C3.88639 27.5341 0.25 23.8976 0.25 19.4271V8.36111C0.25 3.89038 3.88666 0.25 8.35696 0.25H19.423C23.8976 0.25 27.5341 3.89056 27.5341 8.36111V19.4271ZM4.00481 8.36111V19.4271C4.00481 21.8258 5.95771 23.7787 8.35643 23.7787H19.4224C21.825 23.7787 23.7782 21.8303 23.7782 19.4271V8.36111C23.7782 5.95824 21.8253 4.00534 19.4224 4.00534H8.35643C5.95754 4.00534 4.00481 5.9584 4.00481 8.36111Z" fill="#3C7CFF" stroke="white" stroke-width="0.5"/>
<path d="M9.35804 43.9543V43.7043H9.10804H5.98717C4.9492 43.7043 4.1095 42.8646 4.1095 41.8266C4.1095 40.7887 4.94917 39.949 5.98717 39.949H9.10804H9.35804V39.699V36.574C9.35804 35.536 10.1977 34.6963 11.2357 34.6963C12.2737 34.6963 13.1134 35.536 13.1134 36.574V39.699V39.949H13.3634H16.4884C17.5264 39.949 18.3661 40.7887 18.3661 41.8266C18.3661 42.8646 17.5264 43.7043 16.4884 43.7043H13.3634H13.1134V43.9543V47.0793C13.1134 48.1173 12.2737 48.957 11.2357 48.957C10.1977 48.957 9.35804 48.1173 9.35804 47.0793V43.9543Z" fill="#3C7CFF" stroke="white" stroke-width="0.5"/>
<path d="M85.6642 43.9543V43.7043H85.4142H82.2892C81.2512 43.7043 80.4115 42.8646 80.4115 41.8266C80.4115 40.7887 81.2512 39.949 82.2892 39.949H85.4142H85.6642V39.699V36.574C85.6642 35.536 86.5039 34.6963 87.5419 34.6963C88.5798 34.6963 89.4195 35.536 89.4195 36.574V39.699V39.949H89.6695H92.7945C93.8325 39.949 94.6722 40.7887 94.6722 41.8266C94.6722 42.8646 93.8325 43.7043 92.7945 43.7043H89.6695H89.4195V43.9543V47.0793C89.4195 48.1173 88.5799 48.957 87.5419 48.957C86.5039 48.957 85.6642 48.1173 85.6642 47.0793V43.9543Z" fill="#3C7CFF" stroke="white" stroke-width="0.5"/>
</svg>
