<svg width="102" height="102" viewBox="0 0 102 102" fill="none" xmlns="http://www.w3.org/2000/svg">
<path d="M62.8167 39.3335V39.3333V26C62.8167 24.6341 62.2741 23.3242 61.3083 22.3584C60.3424 21.3926 59.0325 20.85 57.6667 20.85H44.3333C42.9675 20.85 41.6575 21.3926 40.6917 22.3584C39.7259 23.3242 39.1833 24.6341 39.1833 26V39.3333V39.3335C39.1839 40.0661 39.342 40.7895 39.6462 41.4549C37.0963 43.437 35.1111 46.0546 33.8902 49.0461C32.6541 52.0749 32.2459 55.3782 32.7077 58.6168C33.1695 61.8555 34.4846 64.913 36.518 67.4757C38.5302 70.0116 41.174 71.9725 44.1833 73.1623V89.1833H7.66667C6.82239 89.1833 6.0127 88.848 5.41571 88.251C4.81872 87.654 4.48333 86.8443 4.48333 86V17.8167H97.5167V86C97.5167 86.8443 97.1813 87.654 96.5843 88.251C95.9873 88.848 95.1776 89.1833 94.3333 89.1833H57.8167V73.1623C60.826 71.9725 63.4698 70.0116 65.482 67.4757C67.5154 64.913 68.8305 61.8555 69.2923 58.6168C69.7541 55.3782 69.3459 52.0749 68.1098 49.0461C66.8889 46.0546 64.9037 43.437 62.3538 41.4549C62.658 40.7895 62.8161 40.0661 62.8167 39.3335ZM94.3333 0.85H7.66667C5.85877 0.85 4.12493 1.56818 2.84656 2.84656C1.56818 4.12493 0.85 5.85877 0.85 7.66667V86C0.85 87.8079 1.56818 89.5417 2.84656 90.8201C4.12493 92.0985 5.85877 92.8167 7.66667 92.8167H44.1833V94.3333C44.1833 96.1412 44.9015 97.8751 46.1799 99.1534C47.4583 100.432 49.1921 101.15 51 101.15C52.8079 101.15 54.5417 100.432 55.8201 99.1534C57.0985 97.8751 57.8167 96.1412 57.8167 94.3333V92.8167H94.3333C96.1412 92.8167 97.8751 92.0985 99.1534 90.8201C100.432 89.5417 101.15 87.8079 101.15 86V7.66667C101.15 5.85877 100.432 4.12493 99.1534 2.84656C97.8751 1.56818 96.1412 0.85 94.3333 0.85ZM7.66667 4.48333H94.3333C95.1776 4.48333 95.9873 4.81872 96.5843 5.41571C97.1813 6.0127 97.5167 6.82239 97.5167 7.66667V14.1833H4.48333V7.66667C4.48333 6.82239 4.81872 6.0127 5.41571 5.41571C6.0127 4.81872 6.82239 4.48333 7.66667 4.48333ZM42.8167 39.3247V26C42.8167 25.5978 42.9765 25.212 43.2609 24.9276C43.5453 24.6431 43.9311 24.4833 44.3333 24.4833H57.6667C58.0689 24.4833 58.4547 24.6431 58.7391 24.9276C59.0235 25.212 59.1833 25.5978 59.1833 26V39.3247C59.1788 39.3633 59.1726 39.4017 59.1649 39.4398C56.6297 38.1754 53.8347 37.5167 51 37.5167C48.1653 37.5167 45.3703 38.1754 42.8351 39.4398C42.8274 39.4017 42.8212 39.3633 42.8167 39.3247ZM51.0002 41.15C53.9372 41.15 56.8082 42.021 59.2502 43.6527C61.6923 45.2844 63.5956 47.6037 64.7196 50.3172C65.8436 53.0306 66.1376 56.0165 65.5647 58.8971C64.9917 61.7777 63.5773 64.4237 61.5005 66.5005C59.4237 68.5773 56.7777 69.9917 53.8971 70.5647C51.0165 71.1376 48.0306 70.8436 45.3172 69.7196C42.6037 68.5956 40.2844 66.6923 38.6527 64.2502C37.021 61.8082 36.15 58.9372 36.15 56.0002C36.1544 52.063 37.7203 48.2883 40.5043 45.5043C43.2883 42.7203 47.063 41.1544 51.0002 41.15ZM54.1833 94.3333C54.1833 95.1776 53.8479 95.9873 53.251 96.5843C52.654 97.1813 51.8443 97.5167 51 97.5167C50.1557 97.5167 49.346 97.1813 48.749 96.5843C48.1521 95.9873 47.8167 95.1776 47.8167 94.3333V74.1957C49.9216 74.5792 52.0784 74.5792 54.1833 74.1957V94.3333Z" fill="#3C7CFF" stroke="#3C7CFF" stroke-width="0.3"/>
<path d="M26 20.85H12.6666C11.3008 20.85 9.99084 21.3926 9.02503 22.3584C8.05921 23.3242 7.51663 24.6341 7.51663 26V39.3333C7.51663 40.6992 8.05921 42.0091 9.02503 42.9749C9.99084 43.9407 11.3008 44.4833 12.6666 44.4833H26C27.3658 44.4833 28.6757 43.9407 29.6416 42.9749C30.6074 42.0091 31.15 40.6992 31.15 39.3333V26C31.15 24.6341 30.6074 23.3242 29.6416 22.3584C28.6757 21.3926 27.3658 20.85 26 20.85ZM27.5166 39.3333C27.5166 39.7356 27.3568 40.1213 27.0724 40.4058C26.788 40.6902 26.4022 40.85 26 40.85H12.6666C12.2644 40.85 11.8786 40.6902 11.5942 40.4058C11.3098 40.1213 11.15 39.7356 11.15 39.3333V26C11.15 25.5978 11.3098 25.212 11.5942 24.9276C11.8786 24.6431 12.2644 24.4833 12.6666 24.4833H26C26.4022 24.4833 26.788 24.6431 27.0724 24.9276C27.3568 25.212 27.5166 25.5978 27.5166 26V39.3333Z" fill="#3C7CFF" stroke="#3C7CFF" stroke-width="0.3"/>
<path d="M89.3335 20.85H76.0001C74.6343 20.85 73.3243 21.3926 72.3585 22.3584C71.3927 23.3242 70.8501 24.6341 70.8501 26V39.3333C70.8501 40.6992 71.3927 42.0091 72.3585 42.9749C73.3243 43.9407 74.6343 44.4833 76.0001 44.4833H89.3335C90.6993 44.4833 92.0092 43.9407 92.9751 42.9749C93.9409 42.0091 94.4835 40.6992 94.4835 39.3333V26C94.4835 24.6341 93.9409 23.3242 92.9751 22.3584C92.0092 21.3926 90.6993 20.85 89.3335 20.85ZM90.8501 39.3333C90.8501 39.7356 90.6903 40.1214 90.4059 40.4058C90.1215 40.6902 89.7357 40.85 89.3335 40.85H76.0001C75.5979 40.85 75.2121 40.6902 74.9277 40.4058C74.6432 40.1213 74.4835 39.7356 74.4835 39.3333V26C74.4835 25.5978 74.6432 25.212 74.9277 24.9276C75.2121 24.6431 75.5979 24.4833 76.0001 24.4833H89.3335C89.7357 24.4833 90.1215 24.6431 90.4059 24.9276C90.6903 25.212 90.8501 25.5978 90.8501 26V39.3333Z" fill="#3C7CFF" stroke="#3C7CFF" stroke-width="0.3"/>
<path d="M48.0488 62.2844L48.0488 62.2844C48.3894 62.6251 48.8514 62.8166 49.3332 62.8167H49.3332H49.3365C49.3873 62.8167 49.4501 62.8167 49.5178 62.8073C49.7839 62.7804 50.0409 62.6951 50.2702 62.5574C50.5005 62.4192 50.6972 62.2316 50.8463 62.0083L50.8463 62.0082L57.513 52.0082C57.513 52.0082 57.513 52.0082 57.513 52.0082C57.6454 51.8097 57.7374 51.5871 57.7838 51.3531C57.8301 51.119 57.83 50.8782 57.7832 50.6442C57.7365 50.4102 57.6441 50.1877 57.5114 49.9894C57.3787 49.7912 57.2083 49.621 57.0098 49.4886C56.8113 49.3561 56.5887 49.2641 56.3546 49.2178C56.1206 49.1714 55.8797 49.1716 55.6457 49.2183C55.4117 49.265 55.1893 49.3574 54.991 49.4901C54.7927 49.6228 54.6225 49.7933 54.4901 49.9918L54.49 49.9918L49.0532 58.1495L47.2859 56.3823L47.2859 56.3823L47.2841 56.3804C46.9414 56.0495 46.4826 55.8664 46.0062 55.8706C45.5299 55.8747 45.0743 56.0657 44.7374 56.4026C44.4006 56.7394 44.2096 57.195 44.2054 57.6714C44.2013 58.1477 44.3844 58.6066 44.7153 58.9492L44.7153 58.9492L44.7171 58.951L48.0488 62.2844Z" fill="#3C7CFF" stroke="#3C7CFF" stroke-width="0.3"/>
<path d="M9.33329 11.15H11C11.4818 11.15 11.9438 10.9586 12.2845 10.6179C12.6252 10.2772 12.8166 9.81514 12.8166 9.33333C12.8166 8.85152 12.6252 8.38944 12.2845 8.04875C11.9438 7.70806 11.4818 7.51666 11 7.51666H9.33329C8.85148 7.51666 8.38941 7.70806 8.04872 8.04875C7.70802 8.38944 7.51663 8.85152 7.51663 9.33333C7.51663 9.81514 7.70802 10.2772 8.04872 10.6179C8.38941 10.9586 8.85148 11.15 9.33329 11.15Z" fill="#3C7CFF" stroke="#3C7CFF" stroke-width="0.3"/>
<path d="M17.6667 11.15H19.3333C19.8151 11.15 20.2772 10.9586 20.6179 10.6179C20.9586 10.2772 21.15 9.81514 21.15 9.33333C21.15 8.85152 20.9586 8.38944 20.6179 8.04875C20.2772 7.70806 19.8151 7.51666 19.3333 7.51666H17.6667C17.1849 7.51666 16.7228 7.70806 16.3821 8.04875C16.0414 8.38944 15.85 8.85152 15.85 9.33333C15.85 9.81514 16.0414 10.2772 16.3821 10.6179C16.7228 10.9586 17.1849 11.15 17.6667 11.15Z" fill="#3C7CFF" stroke="#3C7CFF" stroke-width="0.3"/>
<path d="M25.9999 11.15H27.6666C28.1484 11.15 28.6105 10.9586 28.9512 10.6179C29.2919 10.2772 29.4833 9.81514 29.4833 9.33333C29.4833 8.85152 29.2919 8.38945 28.9512 8.04875C28.6105 7.70806 28.1484 7.51666 27.6666 7.51666H25.9999C25.5181 7.51666 25.056 7.70806 24.7153 8.04875C24.3747 8.38944 24.1833 8.85152 24.1833 9.33333C24.1833 9.81514 24.3747 10.2772 24.7153 10.6179C25.056 10.9586 25.5181 11.15 25.9999 11.15Z" fill="#3C7CFF" stroke="#3C7CFF" stroke-width="0.3"/>
<path d="M77.6667 11.15H92.6667C93.1485 11.15 93.6106 10.9586 93.9512 10.6179C94.2919 10.2772 94.4833 9.81514 94.4833 9.33333C94.4833 8.85152 94.2919 8.38944 93.9512 8.04875C93.6106 7.70806 93.1485 7.51666 92.6667 7.51666H77.6667C77.1849 7.51666 76.7228 7.70806 76.3821 8.04875C76.0414 8.38945 75.85 8.85152 75.85 9.33333C75.85 9.81514 76.0414 10.2772 76.3821 10.6179C76.7228 10.9586 77.1849 11.15 77.6667 11.15Z" fill="#3C7CFF" stroke="#3C7CFF" stroke-width="0.3"/>
<path d="M9.33329 51.15H19.3333C19.8151 51.15 20.2772 50.9586 20.6179 50.6179C20.9586 50.2772 21.15 49.8151 21.15 49.3333C21.15 48.8515 20.9586 48.3894 20.6179 48.0488C20.2772 47.7081 19.8151 47.5167 19.3333 47.5167H9.33329C8.85148 47.5167 8.38941 47.7081 8.04872 48.0488C7.70802 48.3894 7.51663 48.8515 7.51663 49.3333C7.51663 49.8151 7.70802 50.2772 8.04872 50.6179C8.38941 50.9586 8.85148 51.15 9.33329 51.15Z" fill="#3C7CFF" stroke="#3C7CFF" stroke-width="0.3"/>
<path d="M27.6666 55.85H9.33329C8.85148 55.85 8.38941 56.0414 8.04872 56.3821C7.70802 56.7228 7.51663 57.1849 7.51663 57.6667C7.51663 58.1485 7.70802 58.6106 8.04872 58.9512C8.38941 59.2919 8.85148 59.4833 9.33329 59.4833H27.6666C28.1484 59.4833 28.6105 59.2919 28.9512 58.9512C29.2919 58.6106 29.4833 58.1485 29.4833 57.6667C29.4833 57.1849 29.2919 56.7228 28.9512 56.3821C28.6105 56.0414 28.1484 55.85 27.6666 55.85Z" fill="#3C7CFF" stroke="#3C7CFF" stroke-width="0.3"/>
<path d="M21 72.5167H9.33329C8.85148 72.5167 8.38941 72.7081 8.04872 73.0487C7.70802 73.3894 7.51663 73.8515 7.51663 74.3333C7.51663 74.8151 7.70802 75.2772 8.04872 75.6179C8.38941 75.9586 8.85148 76.15 9.33329 76.15H21C21.4818 76.15 21.9438 75.9586 22.2845 75.6179C22.6252 75.2772 22.8166 74.8151 22.8166 74.3333C22.8166 73.8515 22.6252 73.3894 22.2845 73.0487C21.9438 72.7081 21.4818 72.5167 21 72.5167Z" fill="#3C7CFF" stroke="#3C7CFF" stroke-width="0.3"/>
<path d="M27.6666 47.5167H25.9999C25.5181 47.5167 25.056 47.7081 24.7153 48.0488C24.3747 48.3894 24.1833 48.8515 24.1833 49.3333C24.1833 49.8151 24.3747 50.2772 24.7153 50.6179C25.056 50.9586 25.5181 51.15 25.9999 51.15H27.6666C28.1484 51.15 28.6105 50.9586 28.9512 50.6179C29.2919 50.2772 29.4833 49.8151 29.4833 49.3333C29.4833 48.8515 29.2919 48.3894 28.9512 48.0488C28.6105 47.7081 28.1484 47.5167 27.6666 47.5167Z" fill="#3C7CFF" stroke="#3C7CFF" stroke-width="0.3"/>
<path d="M27.6667 64.1833H17.6667C17.1849 64.1833 16.7228 64.3747 16.3821 64.7154C16.0414 65.0561 15.85 65.5182 15.85 66C15.85 66.4818 16.0414 66.9439 16.3821 67.2846C16.7228 67.6253 17.1849 67.8167 17.6667 67.8167H27.6667C28.1485 67.8167 28.6106 67.6253 28.9512 67.2846C29.2919 66.9439 29.4833 66.4818 29.4833 66C29.4833 65.5182 29.2919 65.0561 28.9512 64.7154C28.6106 64.3747 28.1485 64.1833 27.6667 64.1833Z" fill="#3C7CFF" stroke="#3C7CFF" stroke-width="0.3"/>
<path d="M9.33329 67.8167H11C11.4818 67.8167 11.9438 67.6253 12.2845 67.2846C12.6252 66.9439 12.8166 66.4818 12.8166 66C12.8166 65.5182 12.6252 65.0561 12.2845 64.7154C11.9438 64.3747 11.4818 64.1833 11 64.1833H9.33329C8.85148 64.1833 8.38941 64.3747 8.04872 64.7154C7.70802 65.0561 7.51663 65.5182 7.51663 66C7.51663 66.4818 7.70802 66.9439 8.04872 67.2846C8.38941 67.6253 8.85148 67.8167 9.33329 67.8167Z" fill="#3C7CFF" stroke="#3C7CFF" stroke-width="0.3"/>
<path d="M74.3333 51.15H82.6666C83.1484 51.15 83.6105 50.9586 83.9512 50.6179C84.2919 50.2772 84.4833 49.8151 84.4833 49.3333C84.4833 48.8515 84.2919 48.3894 83.9512 48.0488C83.6105 47.7081 83.1484 47.5167 82.6666 47.5167H74.3333C73.8515 47.5167 73.3894 47.7081 73.0487 48.0488C72.708 48.3894 72.5166 48.8515 72.5166 49.3333C72.5166 49.8151 72.708 50.2772 73.0487 50.6179C73.3894 50.9586 73.8515 51.15 74.3333 51.15Z" fill="#3C7CFF" stroke="#3C7CFF" stroke-width="0.3"/>
<path d="M91 55.85H74.3333C73.8515 55.85 73.3894 56.0414 73.0487 56.3821C72.708 56.7228 72.5166 57.1849 72.5166 57.6667C72.5166 58.1485 72.708 58.6106 73.0487 58.9512C73.3894 59.2919 73.8515 59.4833 74.3333 59.4833H91C91.4818 59.4833 91.9438 59.2919 92.2845 58.9512C92.6252 58.6106 92.8166 58.1485 92.8166 57.6667C92.8166 57.1849 92.6252 56.7228 92.2845 56.3821C91.9438 56.0414 91.4818 55.85 91 55.85Z" fill="#3C7CFF" stroke="#3C7CFF" stroke-width="0.3"/>
<path d="M84.3333 72.5167H74.3333C73.8515 72.5167 73.3894 72.7081 73.0487 73.0487C72.708 73.3894 72.5166 73.8515 72.5166 74.3333C72.5166 74.8151 72.708 75.2772 73.0487 75.6179C73.3894 75.9586 73.8515 76.15 74.3333 76.15H84.3333C84.8151 76.15 85.2772 75.9586 85.6179 75.6179C85.9586 75.2772 86.15 74.8151 86.15 74.3333C86.15 73.8515 85.9586 73.3894 85.6179 73.0487C85.2772 72.7081 84.8151 72.5167 84.3333 72.5167Z" fill="#3C7CFF" stroke="#3C7CFF" stroke-width="0.3"/>
<path d="M91.0001 47.5167H89.3334C88.8516 47.5167 88.3895 47.7081 88.0488 48.0488C87.7081 48.3894 87.5167 48.8515 87.5167 49.3333C87.5167 49.8151 87.7081 50.2772 88.0488 50.6179C88.3895 50.9586 88.8516 51.15 89.3334 51.15H91.0001C91.4819 51.15 91.944 50.9586 92.2847 50.6179C92.6254 50.2772 92.8167 49.8151 92.8167 49.3333C92.8167 48.8515 92.6254 48.3894 92.2847 48.0488C91.944 47.7081 91.4819 47.5167 91.0001 47.5167Z" fill="#3C7CFF" stroke="#3C7CFF" stroke-width="0.3"/>
<path d="M90.9999 64.1833H82.6665C82.1847 64.1833 81.7227 64.3747 81.382 64.7154C81.0413 65.0561 80.8499 65.5182 80.8499 66C80.8499 66.4818 81.0413 66.9439 81.382 67.2846C81.7227 67.6253 82.1847 67.8167 82.6665 67.8167H90.9999C91.4817 67.8167 91.9438 67.6253 92.2845 67.2846C92.6251 66.9439 92.8165 66.4818 92.8165 66C92.8165 65.5182 92.6251 65.0561 92.2845 64.7154C91.9438 64.3747 91.4817 64.1833 90.9999 64.1833Z" fill="#3C7CFF" stroke="#3C7CFF" stroke-width="0.3"/>
<path d="M74.3333 67.8167H76C76.4818 67.8167 76.9438 67.6253 77.2845 67.2846C77.6252 66.9439 77.8166 66.4818 77.8166 66C77.8166 65.5182 77.6252 65.0561 77.2845 64.7154C76.9438 64.3747 76.4818 64.1833 76 64.1833H74.3333C73.8515 64.1833 73.3894 64.3747 73.0487 64.7154C72.708 65.0561 72.5166 65.5182 72.5166 66C72.5166 66.4818 72.708 66.9439 73.0487 67.2846C73.3894 67.6253 73.8515 67.8167 74.3333 67.8167Z" fill="#3C7CFF" stroke="#3C7CFF" stroke-width="0.3"/>
</svg>
