<svg width="94" height="100" viewBox="0 0 94 100" fill="none" xmlns="http://www.w3.org/2000/svg">
<path d="M13.6665 9.99996C14.587 9.99996 15.3332 9.25377 15.3332 8.33329C15.3332 7.41282 14.587 6.66663 13.6665 6.66663C12.7461 6.66663 11.9999 7.41282 11.9999 8.33329C11.9999 9.25377 12.7461 9.99996 13.6665 9.99996Z" fill="#3C7CFF"/>
<path d="M20.3332 9.99996C21.2536 9.99996 21.9998 9.25377 21.9998 8.33329C21.9998 7.41282 21.2536 6.66663 20.3332 6.66663C19.4127 6.66663 18.6665 7.41282 18.6665 8.33329C18.6665 9.25377 19.4127 9.99996 20.3332 9.99996Z" fill="#3C7CFF"/>
<path d="M26.9999 9.99996C27.9204 9.99996 28.6666 9.25377 28.6666 8.33329C28.6666 7.41282 27.9204 6.66663 26.9999 6.66663C26.0794 6.66663 25.3333 7.41282 25.3333 8.33329C25.3333 9.25377 26.0794 9.99996 26.9999 9.99996Z" fill="#3C7CFF"/>
<path d="M93.3333 55.6667C93.1667 55.5 91.6667 53.5 88.6667 51V5C88.6667 2.16667 86.5 0 83.6667 0H10.3333C7.5 0 5.33333 2.16667 5.33333 5V51C2.33333 53.5 0.833333 55.5 0.666666 55.6667L0 56.6667L0.666666 57.6667C0.833333 57.8333 2.33333 59.8333 5.33333 62.3333V100H88.6667V62.3333C91.6667 59.8333 93.1667 57.8333 93.3333 57.6667L94 56.6667L93.3333 55.6667ZM10.3333 3.33333H83.6667C84.6667 3.33333 85.3333 4 85.3333 5V13.3333H8.66667V5C8.66667 4 9.33333 3.33333 10.3333 3.33333ZM8.66667 16.6667H85.3333V48.5C78.3333 43.6667 66.1667 38.3333 47 38.3333C27.8333 38.3333 15.6667 43.6667 8.66667 48.5V16.6667ZM57.3333 45.8333L48.6667 56.5L62 57.1667C61.6667 65.1667 55.1667 71.6667 47 71.6667C38.6667 71.6667 32 65 32 56.6667C32 48.3333 38.6667 41.6667 47 41.6667C50.8333 41.6667 54.5 43.1667 57.3333 45.8333ZM4.16667 56.6667C6.66667 53.6667 16 45 35.3333 42.5C31.1667 45.8333 28.6667 51 28.6667 56.6667C28.6667 62.5 31.3333 67.5 35.3333 70.8333C16 68.3333 6.66667 59.6667 4.16667 56.6667ZM85.3333 96.6667H8.66667V64.8333C15.6667 69.6667 27.8333 75 47 75C66.1667 75 78.3333 69.6667 85.3333 64.8333V96.6667ZM58.6667 70.8333C62.8333 67.5 65.3333 62.3333 65.3333 56.6667C65.3333 56.3333 65.3333 56 65.3333 55.6667L65.1667 54L55.3333 53.5L61.8333 45.6667L60.8333 44.6667C60.1667 43.8333 59.3333 43.1667 58.5 42.5C77.8333 45 87.1667 53.6667 89.8333 56.6667C87.3333 59.6667 78 68.3333 58.6667 70.8333Z" fill="#3C7CFF"/>
<path d="M78.6666 23.3334H15.3333V26.6667H78.6666V23.3334Z" fill="#3C7CFF"/>
<path d="M78.6666 33.3333H15.3333V36.6666H78.6666V33.3333Z" fill="#3C7CFF"/>
<path d="M78.6666 76.6667H15.3333V80.0001H78.6666V76.6667Z" fill="#3C7CFF"/>
<path d="M48.6666 86.6667H15.3333V90.0001H48.6666V86.6667Z" fill="#3C7CFF"/>
</svg>
