<svg width="100" height="101" viewBox="0 0 100 101" fill="none" xmlns="http://www.w3.org/2000/svg">
<path d="M88.9458 9.43462C90.4897 10.5296 91.6793 12.0487 92.3731 13.8042H7.62728C8.32102 12.0487 9.51069 10.5296 11.0546 9.43462C12.6953 8.27099 14.6558 7.6433 16.6672 7.63757H83.3332C85.3446 7.6433 87.3051 8.27099 88.9458 9.43462Z" stroke="white" stroke-width="0.5"/>
<path d="M53.0834 67.3877C53.0834 69.0905 51.703 70.471 50.0001 70.471C48.2972 70.471 46.9167 69.0905 46.9167 67.3877C46.9167 65.6848 48.2972 64.3043 50.0001 64.3043C51.703 64.3043 53.0834 65.6848 53.0834 67.3877Z" stroke="white" stroke-width="0.5"/>
<path d="M78.0665 74.3043C79.2907 74.3054 80.5004 74.0383 81.6103 73.5219C82.7203 73.0055 83.7037 72.2523 84.4915 71.3151L84.4929 71.3134C85.2701 70.3717 85.8399 69.2766 86.1651 68.0997C86.4904 66.9229 86.5638 65.6906 86.3806 64.4834L86.3807 64.4834L86.3796 64.4773C85.8676 61.5886 85.0113 58.7717 83.8289 56.0869L83.8281 56.085L83.2281 54.7517L83.2282 54.7516L83.2247 54.7445C82.8066 53.8893 82.0659 53.2352 81.1655 52.9261C80.2651 52.617 79.2788 52.6783 78.4236 53.0964C77.5684 53.5145 76.9143 54.2552 76.6052 55.1555C76.2964 56.0553 76.3573 57.0408 76.7746 57.8955C76.7749 57.8962 76.7752 57.8968 76.7755 57.8974L77.2714 58.9554C77.2718 58.9562 77.2722 58.9571 77.2726 58.9579C78.2077 61.0734 78.8948 63.29 79.3204 65.5635C79.352 65.7628 79.3407 65.9666 79.2872 66.1612C79.2334 66.3567 79.1383 66.5384 79.0082 66.694L79.0072 66.6952C78.8929 66.8338 78.7493 66.9453 78.5868 67.0218C78.4242 67.0983 78.2467 67.1379 78.0671 67.1376H78.0667H76.6667C75.7164 67.1376 74.805 67.5151 74.1329 68.1871C73.4609 68.8591 73.0834 69.7706 73.0834 70.721C73.0834 71.6713 73.4609 72.5827 74.1329 73.2548C74.805 73.9268 75.7164 74.3043 76.6667 74.3043H78.0665ZM78.0665 74.3043L78.0667 74.0543V74.3043H78.0665ZM20.7115 65.6721L20.7116 65.6721L20.7131 65.6634C21.4038 61.6511 22.9243 57.8283 25.1762 54.439L27.4588 56.5999C27.7913 56.9344 28.1866 57.2 28.622 57.3814C29.0587 57.5633 29.527 57.6569 30.0001 57.6569C30.4731 57.6569 30.9415 57.5633 31.3781 57.3814C31.8145 57.1996 32.2106 56.9332 32.5435 56.5977C32.879 56.2648 33.1454 55.8687 33.3272 55.4324C33.5091 54.9957 33.6027 54.5273 33.6027 54.0543C33.6027 53.5812 33.5091 53.1129 33.3272 52.6762C33.1453 52.2398 32.8789 51.8436 32.5433 51.5106C32.5431 51.5104 32.543 51.5103 32.5428 51.5101L29.8605 48.8278C34.4454 44.6159 40.2363 41.9487 46.4167 41.2017V44.0543C46.4167 45.0046 46.7943 45.9161 47.4663 46.5881C48.1383 47.2601 49.0497 47.6376 50.0001 47.6376C50.9504 47.6376 51.8619 47.2601 52.5339 46.5881C53.2059 45.9161 53.5834 45.0046 53.5834 44.0543V41.2634C55.3937 41.45 57.1827 41.806 58.9268 42.3267C59.8339 42.6111 60.8168 42.5238 61.6596 42.084C62.5029 41.6438 63.1368 40.8867 63.4219 39.9792C63.707 39.0717 63.6199 38.0881 63.1798 37.2448C62.7396 36.4015 61.9825 35.7675 61.075 35.4824L61.0743 35.4822C57.4886 34.3674 53.7549 33.8017 49.9999 33.8043C41.3078 33.8107 32.8966 36.884 26.2479 42.483C19.5993 48.0818 15.1395 55.8471 13.6538 64.4112C13.4355 65.6481 13.4882 66.9177 13.8081 68.1323C14.1281 69.347 14.7078 70.4778 15.5072 71.4467L15.5093 71.4492C16.2999 72.3825 17.2837 73.1331 18.3927 73.6491C19.5017 74.165 20.7095 74.4341 21.9327 74.4376H21.9334H23.3334C24.2838 74.4376 25.1952 74.0601 25.8672 73.3881C26.5392 72.7161 26.9167 71.8046 26.9167 70.8543C26.9167 69.9039 26.5392 68.9925 25.8672 68.3205C25.1952 67.6485 24.2838 67.271 23.3334 67.271H21.9334H21.9331C21.7534 67.2712 21.576 67.2316 21.4134 67.1552C21.251 67.0787 21.1076 66.9674 20.9933 66.829C20.8632 66.6694 20.7704 66.4828 20.7216 66.2828C20.6728 66.0825 20.6693 65.8739 20.7115 65.6721ZM9.77246 90.9486L9.59568 91.1254L9.77246 90.9486C7.94398 89.1201 6.91675 86.6401 6.91675 84.0543V20.9709H93.0834V84.0543C93.0834 86.6401 92.0562 89.1201 90.2277 90.9486C88.3992 92.7771 85.9193 93.8043 83.3334 93.8043H16.6667C14.0809 93.8043 11.6009 92.7771 9.77246 90.9486ZM50.0016 57.1376H50.0001C47.2816 57.1376 44.6745 58.2175 42.7522 60.1398C40.83 62.062 39.7501 64.6691 39.7501 67.3876C39.7501 70.1061 40.83 72.7132 42.7522 74.6355C44.6745 76.5577 47.2816 77.6376 50.0001 77.6376C52.7185 77.6376 55.3257 76.5577 57.2479 74.6355C59.1702 72.7132 60.2501 70.1061 60.2501 67.3876V67.387C60.2468 65.933 59.9341 64.497 59.3337 63.1742L75.8768 46.6311C76.5514 45.9565 76.9304 45.0416 76.9304 44.0876C76.9304 43.1336 76.5514 42.2187 75.8769 41.5442C75.2023 40.8696 74.2874 40.4906 73.3334 40.4906C72.3794 40.4906 71.4645 40.8696 70.79 41.5442L54.2479 58.0863C52.9173 57.4701 51.4693 57.1463 50.0016 57.1376Z" stroke="white" stroke-width="0.5"/>
<path d="M16.6667 7.13761L16.666 7.13761C14.5512 7.14356 12.4901 7.80345 10.7652 9.02682C9.0402 10.2502 7.73587 11.9772 7.03096 13.9709L6.91312 14.3043H7.26667H92.7333H93.0869L92.969 13.9709C92.2641 11.9772 90.9598 10.2502 89.2348 9.02682C87.5099 7.80345 85.4488 7.14356 83.334 7.13761H83.3333L16.6667 7.13761ZM6.66667 20.4709H6.41667V20.7209V84.0543C6.41667 86.7728 7.49657 89.3799 9.41882 91.3021C11.3411 93.2244 13.9482 94.3043 16.6667 94.3043H83.3333C86.0518 94.3043 88.6589 93.2244 90.5812 91.3021C92.5034 89.3799 93.5833 86.7728 93.5833 84.0543V20.7209V20.4709H93.3333H6.66667ZM16.6667 0.970947H83.3333C85.4892 0.970947 87.624 1.39558 89.6157 2.22059C91.6075 3.04561 93.4172 4.25485 94.9417 5.77928C96.4661 7.30371 97.6753 9.11347 98.5004 11.1052C99.3254 13.097 99.75 15.2317 99.75 17.3876V84.0543C99.75 88.4082 98.0204 92.5839 94.9417 95.6626C91.8629 98.7413 87.6873 100.471 83.3333 100.471H16.6667C14.5108 100.471 12.376 100.046 10.3843 99.2213C8.39252 98.3963 6.58276 97.187 5.05833 95.6626C1.97961 92.5839 0.25 88.4082 0.25 84.0543V17.3876C0.25 13.0336 1.97961 8.858 5.05833 5.77928C6.58276 4.25485 8.39252 3.04561 10.3843 2.22059C12.376 1.39558 14.5108 0.970947 16.6667 0.970947Z" fill="#3C7CFF" stroke="white" stroke-width="0.5"/>
<path d="M78.0666 67.2543H76.6666C75.7825 67.2543 74.9347 67.6055 74.3096 68.2306C73.6844 68.8557 73.3333 69.7035 73.3333 70.5876C73.3333 71.4717 73.6844 72.3195 74.3096 72.9446C74.9347 73.5697 75.7825 73.9209 76.6666 73.9209H78.0666C79.2543 73.922 80.4278 73.6629 81.5047 73.1619C82.5816 72.6609 83.5357 71.9301 84.2999 71.0209M78.0666 67.2543L78.0663 67.5043M78.0666 67.2543C78.2832 67.2546 78.4971 67.2069 78.693 67.1147C78.889 67.0225 79.0621 66.888 79.1999 66.7209L78.0663 67.5043M78.0666 67.2543V67.5043H78.0663M78.0663 67.5043H76.6666C75.8488 67.5043 75.0646 67.8291 74.4863 68.4074C73.9081 68.9856 73.5833 69.7698 73.5833 70.5876C73.5833 71.4053 73.9081 72.1896 74.4863 72.7678C75.0646 73.3461 75.8488 73.6709 76.6666 73.6709H78.0666H78.0668C79.218 73.672 80.3555 73.4209 81.3993 72.9353C82.4428 72.4498 83.3673 71.7417 84.1079 70.8608M84.1079 70.8608C84.1077 70.8611 84.1075 70.8614 84.1072 70.8617L84.2999 71.0209M84.1079 70.8608C84.1081 70.8606 84.1083 70.8603 84.1085 70.8601L84.2999 71.0209M84.1079 70.8608C84.8444 69.9696 85.3836 68.9325 85.6901 67.8178C85.9965 66.7037 86.0635 65.5373 85.8867 64.3955M84.2999 71.0209C85.0592 70.1023 85.6152 69.0332 85.9312 67.8841C86.2472 66.735 86.3161 65.5319 86.1333 64.3543M86.1333 64.3543L85.8872 64.3983C85.887 64.3973 85.8868 64.3964 85.8867 64.3955M86.1333 64.3543C85.6222 61.4966 84.7717 58.7102 83.5999 56.0543L83.3719 56.1569L83.3716 56.156C84.5348 58.7927 85.3791 61.5587 85.8867 64.3955M86.1333 64.3543L85.8862 64.3926C85.8864 64.3936 85.8865 64.3945 85.8867 64.3955M82.7736 54.8272L83.3712 56.1552L79.3923 66.8806C79.5679 66.6703 79.6964 66.4246 79.7691 66.1604C79.8419 65.8958 79.857 65.6188 79.8134 65.3479L79.8135 65.3479L79.8123 65.3416C79.3796 63.0281 78.6803 60.7725 77.7286 58.6198L77.7286 58.6198L77.7263 58.6148L77.2263 57.5482L77.2263 57.5481L77.2245 57.5445C76.8647 56.8084 76.8119 55.9595 77.078 55.1845C77.344 54.4096 77.907 53.7721 78.6431 53.4122C79.3791 53.0523 80.228 52.9996 81.003 53.2656C81.7767 53.5312 82.4134 54.0929 82.7736 54.8272Z" fill="#3C7CFF" stroke="white" stroke-width="0.5"/>
<path d="M29.1445 48.811L29.3292 48.6384C34.0903 44.1877 40.1615 41.3938 46.6389 40.6725L46.9166 40.6416V40.921V44.0543C46.9166 44.8721 47.2414 45.6563 47.8197 46.2346C48.3979 46.8128 49.1821 47.1377 49.9999 47.1377C50.8177 47.1377 51.6019 46.8128 52.1801 46.2346C52.7584 45.6563 53.0832 44.8721 53.0832 44.0543V40.9877V40.7132L53.3565 40.7387C55.2933 40.92 57.2075 41.2915 59.0714 41.8481L59.0748 41.8491C59.8558 42.0945 60.7023 42.0195 61.4281 41.6408C62.1538 41.262 62.6994 40.6104 62.9447 39.8294C63.1901 39.0484 63.1151 38.2019 62.7363 37.4762C62.3576 36.7505 61.7061 36.2049 60.9251 35.9596C57.3878 34.8599 53.7044 34.3018 50.0001 34.3043L49.9999 34.3043C41.4446 34.3052 33.1627 37.3182 26.6068 42.8148C20.0508 48.3114 15.6394 55.9407 14.1461 64.3646C13.9403 65.5304 13.9899 66.7269 14.2914 67.8716C14.5928 69.0159 15.1388 70.0812 15.8917 70.994C16.6354 71.8715 17.5605 72.5773 18.6034 73.0625C19.6468 73.5479 20.7832 73.801 21.934 73.8043H23.3332C24.151 73.8043 24.9352 73.4795 25.5135 72.9012C26.0917 72.323 26.4166 71.5387 26.4166 70.721C26.4166 69.9032 26.0917 69.119 25.5135 68.5407C24.9352 67.9625 24.151 67.6377 23.3332 67.6377H21.9336H21.9332V67.3877C21.7167 67.388 21.5027 67.3403 21.3068 67.2481C21.1108 67.1558 20.9377 67.0214 20.7999 66.8543L29.1445 48.811ZM29.1445 48.811L29.3192 48.9937L32.1858 51.9937L32.1858 51.9938L32.1905 51.9985C32.4795 52.2851 32.7089 52.6262 32.8654 53.0019C33.022 53.3776 33.1026 53.7806 33.1026 54.1877C33.1026 54.5947 33.022 54.9977 32.8654 55.3734C32.7089 55.7492 32.4795 56.0902 32.1905 56.3768L32.1891 56.3783C31.9024 56.6673 31.5614 56.8967 31.1857 57.0532C30.8099 57.2097 30.4069 57.2903 29.9999 57.2903C29.5929 57.2903 29.1899 57.2097 28.8141 57.0532C28.4384 56.8967 28.0974 56.6673 27.8107 56.3783L27.81 56.3776L25.31 53.8776L25.0966 53.6642L24.9267 53.9135C22.5627 57.3809 20.9591 61.3091 20.2211 65.4402L29.1445 48.811Z" fill="#3C7CFF" stroke="white" stroke-width="0.5"/>
<path d="M75.5232 46.244L58.9298 62.8375H58.6011L58.775 63.1964C59.4082 64.5037 59.7413 65.9358 59.75 67.3883C59.7498 69.3164 59.178 71.2011 58.1068 72.8043C57.0355 74.4076 55.5127 75.6573 53.7312 76.3953C51.9496 77.1332 49.9892 77.3263 48.0979 76.9501C46.2066 76.5739 44.4693 75.6453 43.1057 74.2817C41.7422 72.9182 40.8136 71.1809 40.4373 69.2896C40.0611 67.3983 40.2542 65.4379 40.9922 63.6563C41.7301 61.8747 42.9798 60.352 44.5832 59.2806C46.1866 58.2093 48.0716 57.6375 50 57.6375H50.0003C51.4505 57.6359 52.8828 57.9579 54.1928 58.58L54.3521 58.6556L54.4768 58.5309L71.1435 41.8642C71.431 41.5767 71.7724 41.3485 72.1482 41.1929C72.5239 41.0373 72.9266 40.9572 73.3333 40.9572C73.74 40.9572 74.1428 41.0373 74.5185 41.1929L74.6142 40.9619L74.5185 41.1929C74.8942 41.3485 75.2356 41.5767 75.5232 41.8642C75.8108 42.1518 76.0389 42.4932 76.1946 42.869L76.4174 42.7767L76.1946 42.869C76.3502 43.2447 76.4303 43.6474 76.4303 44.0541C76.4303 44.4608 76.3502 44.8635 76.1946 45.2393L76.4255 45.335L76.1946 45.2393C76.0389 45.615 75.8108 45.9564 75.5232 46.244ZM48.0092 70.3669C48.5985 70.7606 49.2913 70.9708 50 70.9708C50.9504 70.9708 51.8618 70.5933 52.5338 69.9213C53.2058 69.2493 53.5833 68.3378 53.5833 67.3875C53.5833 66.6787 53.3732 65.9859 52.9794 65.3967C52.5857 64.8074 52.0261 64.3481 51.3713 64.0769C50.7165 63.8057 49.996 63.7347 49.3009 63.873C48.6058 64.0112 47.9673 64.3525 47.4662 64.8537C46.9651 65.3548 46.6238 65.9933 46.4855 66.6884C46.3473 67.3835 46.4182 68.104 46.6894 68.7587C46.9607 69.4135 47.4199 69.9732 48.0092 70.3669Z" fill="#3C7CFF" stroke="white" stroke-width="0.5"/>
</svg>
