<svg width="102" height="100" viewBox="0 0 102 100" fill="none" xmlns="http://www.w3.org/2000/svg">
<path d="M11.9375 15.525C12.8833 15.525 13.65 14.7583 13.65 13.8125C13.65 12.8667 12.8833 12.1 11.9375 12.1C10.9917 12.1 10.225 12.8667 10.225 13.8125C10.225 14.7583 10.9917 15.525 11.9375 15.525Z" fill="#3C7CFF" stroke="#3C7CFF" stroke-width="0.3"/>
<path d="M18.1875 15.525C19.1333 15.525 19.9 14.7583 19.9 13.8125C19.9 12.8667 19.1333 12.1 18.1875 12.1C17.2417 12.1 16.475 12.8667 16.475 13.8125C16.475 14.7583 17.2417 15.525 18.1875 15.525Z" fill="#3C7CFF" stroke="#3C7CFF" stroke-width="0.3"/>
<path d="M24.4375 15.525C25.3833 15.525 26.15 14.7583 26.15 13.8125C26.15 12.8667 25.3833 12.1 24.4375 12.1C23.4917 12.1 22.725 12.8667 22.725 13.8125C22.725 14.7583 23.4917 15.525 24.4375 15.525Z" fill="#3C7CFF" stroke="#3C7CFF" stroke-width="0.3"/>
<path d="M76.15 13.8125C76.15 12.8656 75.3844 12.1 74.4375 12.1H30.6875C29.7406 12.1 28.975 12.8656 28.975 13.8125C28.975 14.7594 29.7406 15.525 30.6875 15.525H74.4375C75.3844 15.525 76.15 14.7594 76.15 13.8125Z" fill="#3C7CFF" stroke="#3C7CFF" stroke-width="0.3"/>
<path d="M69.7438 69.0812L69.25 68.339C68.836 67.7187 68.9188 66.8937 69.4453 66.3672L69.7438 69.0812ZM69.7438 69.0812C70.0375 69.5219 70.0907 70.0562 69.8875 70.5469C69.6844 71.0375 69.2703 71.3765 68.75 71.4812L69.7438 69.0812ZM69.1253 68.4223C69.1252 68.4223 69.1252 68.4222 69.1252 68.4222L69.1253 68.4223ZM69.1253 68.4223L69.6189 69.1643L69.619 69.1644C69.885 69.5635 69.9329 70.0452 69.7489 70.4895C69.5651 70.9336 69.1921 71.2392 68.7206 71.3341L69.1253 68.4223ZM89.6326 62.2521C89.1897 62.0681 88.8826 61.695 88.7878 61.2237L99.773 71.5091L98.8966 71.3341L98.8965 71.3341C98.4271 71.2408 98.0539 70.934 97.8699 70.4895C97.6859 70.045 97.7324 69.565 97.9998 69.1645L97.9999 69.1643L98.4935 68.4225C98.4935 68.4224 98.4936 68.4223 98.4937 68.4222C98.9475 67.7437 98.8564 66.838 98.2795 66.2611L93.8608 61.8424L93.8606 61.8422C93.2809 61.2642 92.3784 61.1726 91.6996 61.6283C91.6995 61.6284 91.6994 61.6285 91.6992 61.6286L90.9576 62.122L90.9575 62.1221C90.5578 62.3885 90.0749 62.4386 89.6333 62.2524L89.6326 62.2521ZM68.7204 71.3342L67.8456 71.5091L67.8455 71.5092C67.0443 71.6701 66.4688 72.3721 66.4688 73.1875V79.4375C66.4688 80.2543 67.0442 80.9566 67.8458 81.1159L68.7222 81.2908L68.7223 81.2909C69.1917 81.3842 69.5649 81.6909 69.7489 82.1355C69.933 82.58 69.8864 83.06 69.619 83.4604L69.6189 83.4607L69.1254 84.2025C68.6713 84.881 68.7623 85.7869 69.3393 86.3639L73.758 90.7826C74.335 91.3596 75.2393 91.4505 75.9192 90.9966L76.6612 90.5031C77.0623 90.2366 77.5439 90.1877 77.9859 90.3727L77.9862 90.3729C78.4291 90.5568 78.7362 90.93 78.8311 91.4013L68.7204 71.3342ZM78.8311 91.4015L79.0061 92.2763L79.0061 92.2764C79.167 93.0776 79.869 93.6531 80.6844 93.6531H86.9344C87.7512 93.6531 88.4535 93.0777 88.6128 92.2761L88.7878 91.3997L88.7878 91.3996C88.8811 90.9302 89.1879 90.557 89.6324 90.373L89.6335 90.3725C90.0731 90.1865 90.5546 90.2363 90.9579 90.5032L91.6992 90.9964C91.6993 90.9964 91.6994 90.9965 91.6994 90.9965C92.3781 91.4523 93.2824 91.361 93.8608 90.7826L98.2795 86.3639C98.8565 85.7869 98.9474 84.8828 98.4937 84.2028L78.8311 91.4015ZM98.4936 84.2027L97.9999 83.4607L97.9998 83.4605C97.7338 83.0615 97.6859 82.5798 97.8699 82.1355C98.0538 81.6913 98.4267 81.3857 98.8982 81.2908L98.4936 84.2027ZM98.8984 81.2908L99.7732 81.1158L99.7733 81.1158C100.574 80.9549 101.15 80.2529 101.15 79.4375V73.1875C101.15 72.3708 100.575 71.6685 99.7732 71.5091L98.8984 81.2908ZM88.3256 87.2082L88.3255 87.2083C86.9904 87.7612 85.9886 88.8682 85.5635 90.225H82.0632C81.6379 88.8666 80.6332 87.7596 79.3012 87.2083C77.9708 86.657 76.4748 86.7269 75.2115 87.3884L72.738 84.9149C73.3967 83.652 73.4697 82.1591 72.9183 80.8255L72.9183 80.8254C72.3654 79.4903 71.2584 78.4885 69.9016 78.0634V74.5631C71.26 74.1379 72.367 73.1331 72.9183 71.8011C73.4696 70.4691 73.3982 68.9746 72.7381 67.7116L75.2116 65.238C76.4749 65.8981 77.9707 65.968 79.3011 65.4183L79.3012 65.4183C80.6363 64.8654 81.6381 63.7583 82.0631 62.4015H85.5635C85.9887 63.7599 86.9935 64.8669 88.3255 65.4183C89.6573 65.9695 91.1519 65.8997 92.4151 65.2381L94.8886 67.7116C94.23 68.9745 94.157 70.4675 94.7083 71.801L94.7083 71.8011C95.2612 73.1362 96.3682 74.138 97.725 74.5631V78.0634C96.3666 78.4887 95.2597 79.4934 94.7083 80.8254C94.157 82.1574 94.2284 83.6519 94.8886 84.915L92.415 87.3885C91.1518 86.7284 89.6574 86.6585 88.3256 87.2082Z" fill="#3C7CFF" stroke="#3C7CFF" stroke-width="0.3"/>
<path d="M83.8125 68.35C79.4218 68.35 75.85 71.9219 75.85 76.3125C75.85 80.7032 79.4218 84.275 83.8125 84.275C88.2032 84.275 91.775 80.7032 91.775 76.3125C91.775 71.9219 88.2032 68.35 83.8125 68.35ZM83.8125 80.85C81.311 80.85 79.275 78.8141 79.275 76.3125C79.275 73.811 81.311 71.775 83.8125 71.775C86.314 71.775 88.35 73.811 88.35 76.3125C88.35 78.8141 86.314 80.85 83.8125 80.85Z" fill="#3C7CFF" stroke="#3C7CFF" stroke-width="0.3"/>
<path d="M61.9375 74.6H5.6875C4.90784 74.6 4.275 73.9672 4.275 73.1875V10.6875C4.275 9.90784 4.90784 9.275 5.6875 9.275H80.6875C81.4672 9.275 82.1 9.90784 82.1 10.6875V54.4375C82.1 55.3844 82.8656 56.15 83.8125 56.15C84.7594 56.15 85.525 55.3844 85.525 54.4375V10.6875C85.525 8.02028 83.3547 5.85 80.6875 5.85H5.6875C3.02028 5.85 0.85 8.02028 0.85 10.6875V73.1875C0.85 75.8547 3.02028 78.025 5.6875 78.025H61.9375C62.8844 78.025 63.65 77.2594 63.65 76.3125C63.65 75.3656 62.8844 74.6 61.9375 74.6Z" fill="#3C7CFF" stroke="#3C7CFF" stroke-width="0.3"/>
<path d="M30.6875 59.275H68.1875C69.1344 59.275 69.9 58.5094 69.9 57.5625V54.4375C69.9 39.7078 57.9172 27.725 43.1875 27.725C28.4578 27.725 16.475 39.7078 16.475 54.4375V57.5625C16.475 58.5094 17.2406 59.275 18.1875 59.275H24.4375C25.3844 59.275 26.15 58.5094 26.15 57.5625C26.15 56.6156 25.3844 55.85 24.4375 55.85H19.9V54.4375C19.9 41.5969 30.3469 31.15 43.1875 31.15C56.0281 31.15 66.475 41.5969 66.475 54.4375V55.85H50.9637C50.6753 54.5459 50.0479 53.3784 49.2069 52.4021L53.7733 47.8358C54.4428 47.1662 54.4428 46.0838 53.7733 45.4143C53.1038 44.7447 52.0213 44.7447 51.3518 45.4143L46.4445 50.3216C45.4489 49.8695 44.3525 49.6 43.1875 49.6C39.3853 49.6 36.1975 52.2805 35.4113 55.85H30.6875C29.7406 55.85 28.975 56.6156 28.975 57.5625C28.975 58.5094 29.7406 59.275 30.6875 59.275ZM43.1875 53.025C45.0797 53.025 46.6912 54.1974 47.3694 55.85H39.0071C39.6853 54.1974 41.2954 53.025 43.1875 53.025Z" fill="#3C7CFF" stroke="#3C7CFF" stroke-width="0.3"/>
<path d="M63.3651 51.0282C61.6998 41.1481 53.2138 33.975 43.1875 33.975C33.1612 33.975 24.6736 41.1481 23.0099 51.0282C22.8524 51.9614 23.4808 52.8452 24.4144 53.0011L24.4159 53.0013C25.3432 53.1465 26.2291 52.5301 26.387 51.5969L26.387 51.5968C27.7732 43.3691 34.8372 37.4 43.1875 37.4C51.5378 37.4 58.6018 43.3691 59.988 51.5968L59.9881 51.597C60.1302 52.4326 60.8544 53.025 61.675 53.025C61.77 53.025 61.8655 53.0164 61.9598 53.0012L61.9609 53.001C62.894 52.8435 63.5227 51.9616 63.3651 51.0282ZM63.3651 51.0282L63.2172 51.0531M63.3651 51.0282C63.3651 51.0282 63.3651 51.0282 63.3651 51.0282L63.2172 51.0531M63.2172 51.0531C63.361 51.9047 62.7875 52.7094 61.936 52.8531H24.4391C23.5875 52.7109 23.0141 51.9047 23.1578 51.0531C24.8094 41.2453 33.2344 34.125 43.1875 34.125C53.1406 34.125 61.5641 41.2453 63.2172 51.0531Z" fill="#3C7CFF" stroke="#3C7CFF" stroke-width="0.3"/>
</svg>
