<svg width="100" height="69" viewBox="0 0 100 69" fill="none" xmlns="http://www.w3.org/2000/svg">
<path d="M97.673 0.720947H2.32858C1.04165 0.720947 0 1.7626 0 3.04953V59.9476C0 61.2345 1.04165 62.2761 2.32858 62.2761H30.4997V64.2834H22.5763C21.2894 64.2834 20.2478 65.325 20.2478 66.6119C20.2478 67.8989 21.2894 68.9405 22.5763 68.9405H77.4252C78.7106 68.9405 79.7538 67.8989 79.7538 66.6119C79.7538 65.325 78.7106 64.2834 77.4252 64.2834H67.4496V62.2761H97.6714C98.9583 62.2761 100 61.2345 100 59.9476V3.04953C100.002 1.7626 98.9599 0.720947 97.673 0.720947ZM95.3444 5.3781V47.8809H4.65716V5.3781H95.3444ZM62.794 64.2834H35.1569V62.2761H62.794V64.2834ZM4.65716 57.619V52.538H95.3444V57.619H4.65716Z" fill="#3C7CFF"/>
<path d="M75.69 8.72095H24.31C19.7203 8.72095 16 11.428 16 14.7675V39.6744C16 41.2796 16.8756 42.8167 18.4335 43.9503C19.9914 45.0839 22.104 45.7209 24.31 45.7209H75.69C77.896 45.7209 80.0086 45.0839 81.5665 43.9503C83.1244 42.8167 84 41.2796 84 39.6744V14.7675C84 13.1623 83.1244 11.6252 81.5665 10.4916C80.0086 9.35804 77.896 8.72095 75.69 8.72095ZM80.6754 39.6744C80.6754 41.6786 78.4444 43.3019 75.69 43.3019H24.31C21.5556 43.3019 19.3246 41.6786 19.3246 39.6744V14.7675C19.3246 12.7633 21.5556 11.14 24.31 11.14H75.69C78.4444 11.14 80.6754 12.7633 80.6754 14.7675V39.6744ZM33.6975 14.9718C33.6975 15.2937 33.5231 15.5998 33.2115 15.8265C32.8999 16.0532 32.4761 16.1825 32.0368 16.1825H26.9331V19.8938C26.9331 20.5626 26.1915 21.1022 25.2723 21.1022C24.3532 21.1022 23.6116 20.5626 23.6116 19.8938V14.9718C23.6116 14.3052 24.3532 13.7634 25.2723 13.7634H32.0368C32.4762 13.7634 32.8999 13.8903 33.2116 14.1171C33.5232 14.3438 33.6975 14.6521 33.6975 14.9718ZM33.6975 39.4706C33.6975 39.7903 33.5231 40.0986 33.2115 40.3254C32.8999 40.5522 32.4761 40.6791 32.0368 40.6791H25.2723C24.3531 40.6791 23.6115 40.1372 23.6115 39.4707V34.5487C23.6115 33.8799 24.3531 33.3403 25.2723 33.3403C26.1914 33.3403 26.933 33.8799 26.933 34.5487V38.26H32.0367C32.476 38.26 32.8998 38.3892 33.2114 38.6159C33.523 38.8427 33.6975 39.1487 33.6975 39.4706ZM76.388 14.9718V19.8938C76.388 20.5626 75.6464 21.1022 74.7273 21.1022C73.8081 21.1022 73.0666 20.5626 73.0666 19.8938V16.1825H67.9628C67.0468 16.1825 66.3021 15.6406 66.3021 14.9718C66.3021 14.3053 67.0468 13.7635 67.9628 13.7635H74.7273C75.1667 13.7635 75.5904 13.8904 75.9021 14.1171C76.2137 14.3439 76.388 14.6521 76.388 14.9718ZM76.388 34.5484V39.4704C76.388 39.7901 76.2135 40.0984 75.9019 40.3252C75.5903 40.5519 75.1666 40.6788 74.7272 40.6788H67.9627C67.0467 40.6788 66.302 40.137 66.302 39.4705C66.302 38.8017 67.0467 38.2598 67.9627 38.2598H73.0633L73.0664 34.5485C73.0664 33.8797 73.808 33.3401 74.7271 33.3401C75.6463 33.3401 76.388 33.8796 76.388 34.5484ZM48.1367 19.8755V34.5664H48.1398C48.1398 35.2352 47.3951 35.7748 46.476 35.7748C45.5599 35.7748 44.8153 35.2352 44.8153 34.5664V28.4293H38.1692V34.5664C38.1692 35.2352 37.4245 35.7748 36.5054 35.7748C35.5893 35.7748 34.8447 35.2352 34.8447 34.5664V19.8755C34.8447 19.2067 35.5893 18.6671 36.5054 18.6671C37.4245 18.6671 38.1692 19.2067 38.1692 19.8755V26.0126H44.8153V19.8755C44.8153 19.2067 45.5599 18.6671 46.476 18.6671C47.3951 18.6671 48.1398 19.2067 48.1398 19.8755H48.1367ZM53.4149 18.6671C52.4958 18.6671 51.7542 19.2067 51.7542 19.8755V34.5664C51.7542 34.8861 51.9287 35.1944 52.2403 35.4211C52.5519 35.6479 52.9756 35.7748 53.415 35.7748C57.6151 35.7748 61.4976 34.1447 63.5978 31.4989C65.6979 28.8509 65.6979 25.5906 63.5978 22.9428C61.4978 20.297 57.6154 18.6671 53.4149 18.6671ZM55.0725 33.2495L55.0756 21.1744C59.0358 21.7412 61.8931 24.2668 61.8931 27.203C61.8931 30.1391 59.0359 32.6646 55.0756 33.2315L55.0725 33.2495Z" fill="#3C7CFF"/>
</svg>
