<svg width="100" height="81" viewBox="0 0 100 81" fill="none" xmlns="http://www.w3.org/2000/svg">
<path d="M98.0769 80.7632H1.92308C1.41305 80.7632 0.923903 80.5606 0.563257 80.2C0.20261 79.8393 0 79.3502 0 78.8401V1.92308C0 1.41305 0.20261 0.923903 0.563257 0.563257C0.923903 0.20261 1.41305 0 1.92308 0H98.0769C98.587 0 99.0761 0.20261 99.4367 0.563257C99.7974 0.923903 100 1.41305 100 1.92308V78.8401C100 79.3502 99.7974 79.8393 99.4367 80.2C99.0761 80.5606 98.587 80.7632 98.0769 80.7632ZM3.84615 76.9171H96.1538V3.84615H3.84615V76.9171Z" fill="#3C7CFF"/>
<path d="M98.0769 20.4194H1.92308C1.41305 20.4194 0.923903 20.2168 0.563257 19.8561C0.20261 19.4955 0 19.0064 0 18.4963C0 17.9863 0.20261 17.4971 0.563257 17.1365C0.923903 16.7759 1.41305 16.5732 1.92308 16.5732H98.0769C98.587 16.5732 99.0761 16.7759 99.4367 17.1365C99.7974 17.4971 100 17.9863 100 18.4963C100 19.0064 99.7974 19.4955 99.4367 19.8561C99.0761 20.2168 98.587 20.4194 98.0769 20.4194Z" fill="#3C7CFF"/>
<path d="M73.7277 12.1334H67.8659C67.3559 12.1334 66.8668 11.9308 66.5061 11.5701C66.1455 11.2095 65.9429 10.7203 65.9429 10.2103C65.9429 9.70028 66.1455 9.21113 66.5061 8.85049C66.8668 8.48984 67.3559 8.28723 67.8659 8.28723H73.7277C74.2378 8.28723 74.7269 8.48984 75.0875 8.85049C75.4482 9.21113 75.6508 9.70028 75.6508 10.2103C75.6508 10.7203 75.4482 11.2095 75.0875 11.5701C74.7269 11.9308 74.2378 12.1334 73.7277 12.1334Z" fill="#3C7CFF"/>
<path d="M87.3881 12.1334H81.5251C81.0151 12.1334 80.526 11.9308 80.1653 11.5701C79.8047 11.2095 79.6021 10.7203 79.6021 10.2103C79.6021 9.70028 79.8047 9.21113 80.1653 8.85049C80.526 8.48984 81.0151 8.28723 81.5251 8.28723H87.3881C87.8981 8.28723 88.3873 8.48984 88.7479 8.85049C89.1086 9.21113 89.3112 9.70028 89.3112 10.2103C89.3112 10.7203 89.1086 11.2095 88.7479 11.5701C88.3873 11.9308 87.8981 12.1334 87.3881 12.1334Z" fill="#3C7CFF"/>
<path d="M47.6755 57.3257C46.6392 57.3222 45.6465 56.9085 44.9143 56.1752C44.1821 55.4419 43.77 54.4485 43.7681 53.4122V43.917C43.7685 43.2312 43.9493 42.5576 44.2924 41.9638C44.6355 41.37 45.1288 40.8769 45.7228 40.5341C46.3167 40.1912 46.9904 40.0107 47.6762 40.0106C48.3621 40.0105 49.0358 40.1909 49.6298 40.5336L57.857 45.2836C58.4507 45.6268 58.9437 46.1201 59.2865 46.7141C59.6292 47.3081 59.8096 47.9818 59.8096 48.6676C59.8096 49.3534 59.6292 50.0271 59.2865 50.6211C58.9437 51.2151 58.4507 51.7084 57.857 52.0516L49.6298 56.8016C49.0357 57.1448 48.3617 57.3255 47.6755 57.3257ZM47.6755 43.8485C47.6644 43.8495 47.6536 43.8532 47.6443 43.8593C47.613 43.8773 47.613 43.8894 47.613 43.9122V53.4074C47.613 53.4314 47.613 53.4422 47.6443 53.4603C47.6528 53.4676 47.6637 53.4717 47.6749 53.4717C47.6862 53.4717 47.6971 53.4676 47.7056 53.4603L55.9327 48.7103C55.9532 48.6995 55.9628 48.6934 55.9628 48.6574C55.9648 48.6463 55.9628 48.6348 55.957 48.6251C55.9513 48.6154 55.9422 48.6081 55.9315 48.6045L47.7068 43.8641C47.6981 43.8571 47.6878 43.8525 47.6767 43.8509L47.6755 43.8485Z" fill="#3C7CFF"/>
<path d="M49.9996 64.238C45.8708 64.2332 41.9124 62.5909 38.9929 59.6714C36.0733 56.7518 34.431 52.7935 34.4263 48.6646C34.4263 40.0781 41.413 33.0925 49.9996 33.0925C58.5861 33.0925 65.5729 40.0781 65.5729 48.6646C65.5681 52.7935 63.9258 56.7518 61.0063 59.6714C58.0868 62.5909 54.1284 64.2332 49.9996 64.238ZM49.9996 36.9387C47.6801 36.9387 45.4127 37.6265 43.4842 38.9152C41.5557 40.2038 40.0526 42.0354 39.165 44.1783C38.2774 46.3213 38.0453 48.6793 38.4978 50.9541C38.9504 53.229 40.0675 55.3186 41.7077 56.9586C43.3479 58.5987 45.4375 59.7155 47.7125 60.1678C49.9874 60.6202 52.3454 60.3878 54.4882 59.5C56.631 58.6122 58.4625 57.1089 59.751 55.1802C61.0394 53.2516 61.727 50.9841 61.7268 48.6646C61.7233 45.5556 60.4866 42.5749 58.288 40.3766C56.0895 38.1783 53.1086 36.9419 49.9996 36.9387Z" fill="#3C7CFF"/>
<path d="M24.2149 71.7872C23.7051 71.7873 23.2161 71.5849 22.8555 71.2247C16.8805 65.2372 13.5249 57.1239 13.5249 48.6652C13.5249 40.2064 16.8805 32.0932 22.8555 26.1057C23.0331 25.9229 23.2453 25.7772 23.4798 25.6771C23.7142 25.577 23.9662 25.5246 24.2211 25.5228C24.476 25.5209 24.7287 25.5698 24.9646 25.6666C25.2004 25.7633 25.4146 25.906 25.5949 26.0863C25.7751 26.2666 25.9176 26.4809 26.0143 26.7167C26.1109 26.9526 26.1597 27.2054 26.1578 27.4603C26.1558 27.7152 26.1033 27.9671 26.0031 28.2015C25.9029 28.4359 25.7571 28.6481 25.5742 28.8256C20.3211 34.092 17.371 41.2268 17.371 48.6652C17.371 56.1036 20.3211 63.2384 25.5742 68.5047C25.843 68.7737 26.026 69.1162 26.1001 69.4892C26.1743 69.8621 26.1362 70.2486 25.9907 70.5999C25.8452 70.9512 25.5989 71.2515 25.2828 71.4628C24.9667 71.6741 24.5951 71.787 24.2149 71.7872Z" fill="#3C7CFF"/>
<path d="M31.6103 64.3967C31.3575 64.3971 31.1072 64.3475 30.8737 64.2508C30.6402 64.154 30.4281 64.012 30.2497 63.833C26.232 59.8073 23.9756 54.3522 23.9756 48.6647C23.9756 42.9772 26.232 37.522 30.2497 33.4964C30.6104 33.1357 31.0996 32.9331 31.6097 32.9331C32.1198 32.9331 32.609 33.1357 32.9697 33.4964C33.3304 33.8571 33.533 34.3463 33.533 34.8564C33.533 35.3665 33.3304 35.8557 32.9697 36.2164C29.6731 39.5207 27.8218 43.9977 27.8218 48.6653C27.8218 53.3329 29.6731 57.8099 32.9697 61.1142C33.2384 61.3832 33.4215 61.7257 33.4956 62.0987C33.5697 62.4716 33.5316 62.8581 33.3862 63.2094C33.2407 63.5607 32.9943 63.861 32.6782 64.0723C32.3622 64.2836 31.9905 64.3965 31.6103 64.3967Z" fill="#3C7CFF"/>
<path d="M75.7848 71.7873C75.4043 71.7873 75.0324 71.6745 74.716 71.4632C74.3997 71.2518 74.1531 70.9513 74.0076 70.5998C73.8621 70.2482 73.8241 69.8614 73.8985 69.4883C73.9728 69.1152 74.1562 68.7725 74.4254 68.5036C79.6785 63.2373 82.6286 56.1025 82.6286 48.6641C82.6286 41.2257 79.6785 34.0909 74.4254 28.8245C74.2425 28.647 74.0967 28.4348 73.9965 28.2004C73.8963 27.966 73.8438 27.7141 73.8419 27.4592C73.8399 27.2043 73.8887 26.9515 73.9854 26.7156C74.082 26.4798 74.2245 26.2654 74.4048 26.0852C74.585 25.9049 74.7992 25.7622 75.0351 25.6655C75.2709 25.5687 75.5236 25.5198 75.7785 25.5217C76.0334 25.5235 76.2854 25.5759 76.5198 25.676C76.7543 25.7761 76.9665 25.9218 77.1441 26.1046C83.1191 32.0921 86.4747 40.2053 86.4747 48.6641C86.4747 57.1228 83.1191 65.2361 77.1441 71.2236C76.7837 71.5843 76.2947 71.787 75.7848 71.7873Z" fill="#3C7CFF"/>
<path d="M68.3895 64.3967C68.0093 64.3965 67.6376 64.2836 67.3216 64.0723C67.0055 63.861 66.7591 63.5607 66.6136 63.2094C66.4682 62.8581 66.4301 62.4716 66.5042 62.0987C66.5783 61.7257 66.7614 61.3832 67.0301 61.1142C70.3267 57.8099 72.178 53.3329 72.178 48.6653C72.178 43.9977 70.3267 39.5207 67.0301 36.2164C66.6694 35.8557 66.4668 35.3665 66.4668 34.8564C66.4668 34.3463 66.6694 33.8571 67.0301 33.4964C67.3908 33.1357 67.88 32.9331 68.3901 32.9331C68.9002 32.9331 69.3894 33.1357 69.7501 33.4964C73.7678 37.522 76.0242 42.9772 76.0242 48.6647C76.0242 54.3522 73.7678 59.8073 69.7501 63.833C69.5717 64.012 69.3596 64.154 69.1261 64.2508C68.8926 64.3475 68.6423 64.3971 68.3895 64.3967Z" fill="#3C7CFF"/>
</svg>
