<svg width="102" height="73" viewBox="0 0 102 73" fill="none" xmlns="http://www.w3.org/2000/svg">
<mask id="path-1-outside-1_179_944" maskUnits="userSpaceOnUse" x="0" y="-0.351074" width="102" height="74" fill="black">
<rect fill="white" y="-0.351074" width="102" height="74"/>
<path fill-rule="evenodd" clip-rule="evenodd" d="M37.7772 38.0503C37.5044 37.7768 37.1452 37.6064 36.7609 37.5682C36.3765 37.5299 35.9908 37.6261 35.6694 37.8404C35.3481 38.0547 35.111 38.3738 34.9986 38.7434C34.8862 39.1129 34.9055 39.51 35.0531 39.8669C35.2008 40.2239 35.4676 40.5185 35.8082 40.7007C36.1488 40.8829 36.542 40.9414 36.9208 40.8661C37.2997 40.7908 37.6407 40.5864 37.8857 40.2878C38.1307 39.9892 38.2646 39.6149 38.2645 39.2287C38.2648 39.0098 38.222 38.7931 38.1383 38.5909C38.0547 38.3887 37.932 38.205 37.7772 38.0503ZM36.5988 34.9047C37.6002 34.9044 38.5708 35.2513 39.3451 35.8863C40.1194 36.5214 40.6496 37.4053 40.8452 38.3874C41.0409 39.3695 40.89 40.3891 40.4182 41.2724C39.9464 42.1557 39.1829 42.8481 38.2578 43.2316C37.3327 43.6151 36.3033 43.6659 35.3449 43.3755C34.3865 43.0851 33.5585 42.4713 33.0019 41.6388C32.4453 40.8063 32.1946 39.8065 32.2926 38.8099C32.3905 37.8133 32.8309 36.8815 33.5389 36.1732C33.9402 35.7706 34.4171 35.4512 34.9422 35.2335C35.4674 35.0158 36.0303 34.9041 36.5988 34.9047ZM69.3291 27.2515C69.6027 27.5237 69.8199 27.8472 69.9683 28.2035C70.1166 28.5598 70.1932 28.9419 70.1936 29.3278V61.643C70.1901 62.4219 69.8792 63.1679 69.3284 63.7187C68.7776 64.2694 68.0316 64.5804 67.2528 64.5839H6.60359C5.82451 64.5807 5.07824 64.2698 4.52723 63.719C3.97623 63.1683 3.66511 62.4221 3.66159 61.643V29.3234C3.66453 28.5441 3.97546 27.7976 4.52659 27.2467C5.07772 26.6958 5.82433 26.3851 6.60359 26.3825H67.2528C67.6387 26.3827 68.0209 26.4592 68.3772 26.6076C68.7335 26.756 69.057 26.9733 69.3291 27.247V27.2515ZM9.214 46.7506V44.2147C9.18664 43.8805 9.03458 43.5689 8.78803 43.3417C8.54148 43.1145 8.21847 42.9884 7.8832 42.9884C7.54793 42.9884 7.22492 43.1145 6.97837 43.3417C6.73182 43.5689 6.57976 43.8805 6.5524 44.2147V46.7506C6.57976 47.0847 6.73182 47.3964 6.97837 47.6236C7.22492 47.8507 7.54793 47.9769 7.8832 47.9769C8.21847 47.9769 8.54148 47.8507 8.78803 47.6236C9.03458 47.3964 9.18664 47.0847 9.214 46.7506ZM60.7323 30.7131V60.2521C60.7323 60.6063 60.5916 60.9459 60.3412 61.1963C60.0908 61.4467 59.7512 61.5874 59.397 61.5874H13.2798C12.9257 61.5874 12.5861 61.4467 12.3357 61.1963C12.0853 60.9459 11.9446 60.6063 11.9446 60.2521V30.7131C11.9446 30.359 12.0853 30.0194 12.3357 29.769C12.5861 29.5186 12.9257 29.3779 13.2798 29.3779H59.397C59.7512 29.3779 60.0908 29.5186 60.3412 29.769C60.5916 30.0194 60.7323 30.359 60.7323 30.7131ZM36.8603 49.0661L29.7145 44.2136C29.4994 44.0487 29.239 43.9536 28.9683 43.9411C28.6976 43.9286 28.4295 43.9992 28.2001 44.1435L14.6084 52.6835V32.0439H58.0662V50.9911L45.4804 44.1613C45.2681 44.0458 45.0282 43.9907 44.7867 44.0019C44.5453 44.0131 44.3115 44.0901 44.1107 44.2247L36.8625 49.0617L36.8603 49.0661ZM36.166 51.7978C36.1281 51.7744 36.0914 51.7488 36.0547 51.7221L28.8811 46.8496L14.6084 55.8236V58.9269H58.0662V54.0176L44.9129 46.8819L39.2292 50.674L41.1409 51.9725C41.2849 52.0703 41.4082 52.1956 41.5038 52.341C41.5994 52.4865 41.6654 52.6494 41.6981 52.8204C41.7307 52.9914 41.7294 53.1672 41.6941 53.3377C41.6588 53.5082 41.5903 53.67 41.4925 53.814C41.3947 53.958 41.2694 54.0814 41.1239 54.177C40.9784 54.2726 40.8156 54.3386 40.6446 54.3712C40.4735 54.4039 40.2978 54.4025 40.1273 54.3672C39.9568 54.332 39.795 54.2635 39.651 54.1656L36.1626 51.7978H36.166ZM66.6285 47.7008V43.2611C66.6028 42.9256 66.4514 42.6122 66.2046 42.3835C65.9577 42.1548 65.6337 42.0278 65.2972 42.0278C64.9607 42.0278 64.6366 42.1548 64.3897 42.3835C64.1429 42.6122 63.9915 42.9256 63.9658 43.2611V47.7008C63.9915 48.0363 64.1429 48.3498 64.3897 48.5784C64.6366 48.8071 64.9607 48.9341 65.2972 48.9341C65.6337 48.9341 65.9577 48.8071 66.2046 48.5784C66.4514 48.3498 66.6028 48.0363 66.6285 47.7008ZM57.4765 23.7209V6.2514C57.4797 4.76653 58.071 3.34339 59.121 2.29342C60.171 1.24346 61.5941 0.652159 63.079 0.648926H95.3975C96.8822 0.652744 98.305 1.24423 99.3549 2.29407C100.405 3.34391 100.996 4.76671 101 6.2514V66.8994C100.996 68.3841 100.405 69.8069 99.3549 70.8568C98.305 71.9066 96.8822 72.4981 95.3975 72.5019H63.079C61.6542 72.4978 60.284 71.9528 59.2458 70.9769C58.2076 70.0011 57.5788 68.6673 57.4865 67.2455H6.60359C5.11852 67.2426 3.6951 66.6514 2.64489 65.6014C1.59468 64.5514 1.00323 63.1281 1 61.643V29.3234C1.00323 27.8383 1.59468 26.415 2.64489 25.365C3.6951 24.315 5.11852 23.7238 6.60359 23.7209H57.4765ZM77.9703 8.85958H80.5062C80.8403 8.83223 81.152 8.68017 81.3792 8.43362C81.6064 8.18706 81.7325 7.86406 81.7325 7.52879C81.7325 7.19351 81.6064 6.87051 81.3792 6.62396C81.152 6.3774 80.8403 6.22534 80.5062 6.19799H77.9703C77.7864 6.18294 77.6014 6.20616 77.4269 6.26621C77.2524 6.32626 77.0923 6.42182 76.9566 6.54686C76.8209 6.67191 76.7126 6.82373 76.6385 6.99273C76.5644 7.16173 76.5262 7.34426 76.5262 7.52879C76.5262 7.71331 76.5644 7.89584 76.6385 8.06484C76.7126 8.23385 76.8209 8.38566 76.9566 8.51071C77.0923 8.63575 77.2524 8.73131 77.4269 8.79136C77.6014 8.85141 77.7864 8.87464 77.9703 8.85958ZM63.138 23.7209V12.9276C63.138 12.5735 63.2786 12.2339 63.529 11.9835C63.7795 11.7331 64.1191 11.5924 64.4732 11.5924H94.0078C94.3619 11.5924 94.7015 11.7331 94.9519 11.9835C95.2023 12.2339 95.343 12.5735 95.343 12.9276V59.0437C95.343 59.3979 95.2023 59.7375 94.9519 59.9879C94.7015 60.2383 94.3619 60.379 94.0078 60.379H72.8552V61.6475C72.852 63.1323 72.2607 64.5555 71.2107 65.6054C70.1608 66.6554 68.7376 67.2467 67.2528 67.2499H60.1581C60.2466 67.9634 60.5919 68.6203 61.1294 69.0976C61.667 69.575 62.3601 69.8402 63.079 69.8437H95.3975C96.1764 69.8401 96.9224 69.5292 97.4732 68.9784C98.0239 68.4277 98.3349 67.6817 98.3384 66.9028V6.24806C98.3358 5.46859 98.0252 4.72175 97.4743 4.17027C96.9235 3.61879 96.177 3.30736 95.3975 3.30384H63.079C62.3001 3.30735 61.5541 3.61832 61.0034 4.16909C60.4526 4.71985 60.1416 5.46584 60.1381 6.24472V23.7142L63.138 23.7209ZM92.677 45.5689L84.4429 41.1759L81.5499 43.438L82.3088 43.9944C82.5913 44.2039 82.7791 44.5171 82.8307 44.8651C82.8824 45.213 82.7937 45.5673 82.5842 45.8498C82.3746 46.1324 82.0614 46.3201 81.7135 46.3718C81.3655 46.4234 81.0113 46.3347 80.7287 46.1252L74.5443 41.5631L72.8552 42.9318V57.7152H92.677V45.5689ZM79.3356 41.8035L83.4916 38.5555C83.6982 38.393 83.9486 38.2957 84.2107 38.2759C84.4728 38.2561 84.7349 38.3147 84.9637 38.4442L92.6747 42.5612V14.254H65.7996V23.7209H67.2528C68.7376 23.7241 70.1608 24.3154 71.2107 25.3654C72.2607 26.4153 72.852 27.8385 72.8552 29.3234V39.518L73.6697 38.8593C73.9016 38.6723 74.1893 38.5682 74.4871 38.5636C74.7848 38.559 75.0756 38.654 75.3132 38.8337L79.3356 41.8035ZM77.0156 66.2741H81.4564C81.7906 66.2467 82.1022 66.0947 82.3294 65.8481C82.5566 65.6016 82.6827 65.2786 82.6827 64.9433C82.6827 64.608 82.5566 64.285 82.3294 64.0385C82.1022 63.7919 81.7906 63.6399 81.4564 63.6125H77.0156C76.6815 63.6399 76.3698 63.7919 76.1426 64.0385C75.9154 64.285 75.7893 64.608 75.7893 64.9433C75.7893 65.2786 75.9154 65.6016 76.1426 65.8481C76.3698 66.0947 76.6815 66.2467 77.0156 66.2741ZM79.2166 35.4366H79.2611C79.8914 35.4366 80.4959 35.1862 80.9417 34.7404C81.3874 34.2947 81.6378 33.6902 81.6378 33.0598C81.6378 32.4295 81.3874 31.8249 80.9417 31.3792C80.4959 30.9335 79.8914 30.6831 79.2611 30.6831H79.2166C78.5862 30.6831 77.9817 30.9335 77.5359 31.3792C77.0902 31.8249 76.8398 32.4295 76.8398 33.0598C76.8398 33.6902 77.0902 34.2947 77.5359 34.7404C77.9817 35.1862 78.5862 35.4366 79.2166 35.4366Z"/>
</mask>
<path fill-rule="evenodd" clip-rule="evenodd" d="M37.7772 38.0503C37.5044 37.7768 37.1452 37.6064 36.7609 37.5682C36.3765 37.5299 35.9908 37.6261 35.6694 37.8404C35.3481 38.0547 35.111 38.3738 34.9986 38.7434C34.8862 39.1129 34.9055 39.51 35.0531 39.8669C35.2008 40.2239 35.4676 40.5185 35.8082 40.7007C36.1488 40.8829 36.542 40.9414 36.9208 40.8661C37.2997 40.7908 37.6407 40.5864 37.8857 40.2878C38.1307 39.9892 38.2646 39.6149 38.2645 39.2287C38.2648 39.0098 38.222 38.7931 38.1383 38.5909C38.0547 38.3887 37.932 38.205 37.7772 38.0503ZM36.5988 34.9047C37.6002 34.9044 38.5708 35.2513 39.3451 35.8863C40.1194 36.5214 40.6496 37.4053 40.8452 38.3874C41.0409 39.3695 40.89 40.3891 40.4182 41.2724C39.9464 42.1557 39.1829 42.8481 38.2578 43.2316C37.3327 43.6151 36.3033 43.6659 35.3449 43.3755C34.3865 43.0851 33.5585 42.4713 33.0019 41.6388C32.4453 40.8063 32.1946 39.8065 32.2926 38.8099C32.3905 37.8133 32.8309 36.8815 33.5389 36.1732C33.9402 35.7706 34.4171 35.4512 34.9422 35.2335C35.4674 35.0158 36.0303 34.9041 36.5988 34.9047ZM69.3291 27.2515C69.6027 27.5237 69.8199 27.8472 69.9683 28.2035C70.1166 28.5598 70.1932 28.9419 70.1936 29.3278V61.643C70.1901 62.4219 69.8792 63.1679 69.3284 63.7187C68.7776 64.2694 68.0316 64.5804 67.2528 64.5839H6.60359C5.82451 64.5807 5.07824 64.2698 4.52723 63.719C3.97623 63.1683 3.66511 62.4221 3.66159 61.643V29.3234C3.66453 28.5441 3.97546 27.7976 4.52659 27.2467C5.07772 26.6958 5.82433 26.3851 6.60359 26.3825H67.2528C67.6387 26.3827 68.0209 26.4592 68.3772 26.6076C68.7335 26.756 69.057 26.9733 69.3291 27.247V27.2515ZM9.214 46.7506V44.2147C9.18664 43.8805 9.03458 43.5689 8.78803 43.3417C8.54148 43.1145 8.21847 42.9884 7.8832 42.9884C7.54793 42.9884 7.22492 43.1145 6.97837 43.3417C6.73182 43.5689 6.57976 43.8805 6.5524 44.2147V46.7506C6.57976 47.0847 6.73182 47.3964 6.97837 47.6236C7.22492 47.8507 7.54793 47.9769 7.8832 47.9769C8.21847 47.9769 8.54148 47.8507 8.78803 47.6236C9.03458 47.3964 9.18664 47.0847 9.214 46.7506ZM60.7323 30.7131V60.2521C60.7323 60.6063 60.5916 60.9459 60.3412 61.1963C60.0908 61.4467 59.7512 61.5874 59.397 61.5874H13.2798C12.9257 61.5874 12.5861 61.4467 12.3357 61.1963C12.0853 60.9459 11.9446 60.6063 11.9446 60.2521V30.7131C11.9446 30.359 12.0853 30.0194 12.3357 29.769C12.5861 29.5186 12.9257 29.3779 13.2798 29.3779H59.397C59.7512 29.3779 60.0908 29.5186 60.3412 29.769C60.5916 30.0194 60.7323 30.359 60.7323 30.7131ZM36.8603 49.0661L29.7145 44.2136C29.4994 44.0487 29.239 43.9536 28.9683 43.9411C28.6976 43.9286 28.4295 43.9992 28.2001 44.1435L14.6084 52.6835V32.0439H58.0662V50.9911L45.4804 44.1613C45.2681 44.0458 45.0282 43.9907 44.7867 44.0019C44.5453 44.0131 44.3115 44.0901 44.1107 44.2247L36.8625 49.0617L36.8603 49.0661ZM36.166 51.7978C36.1281 51.7744 36.0914 51.7488 36.0547 51.7221L28.8811 46.8496L14.6084 55.8236V58.9269H58.0662V54.0176L44.9129 46.8819L39.2292 50.674L41.1409 51.9725C41.2849 52.0703 41.4082 52.1956 41.5038 52.341C41.5994 52.4865 41.6654 52.6494 41.6981 52.8204C41.7307 52.9914 41.7294 53.1672 41.6941 53.3377C41.6588 53.5082 41.5903 53.67 41.4925 53.814C41.3947 53.958 41.2694 54.0814 41.1239 54.177C40.9784 54.2726 40.8156 54.3386 40.6446 54.3712C40.4735 54.4039 40.2978 54.4025 40.1273 54.3672C39.9568 54.332 39.795 54.2635 39.651 54.1656L36.1626 51.7978H36.166ZM66.6285 47.7008V43.2611C66.6028 42.9256 66.4514 42.6122 66.2046 42.3835C65.9577 42.1548 65.6337 42.0278 65.2972 42.0278C64.9607 42.0278 64.6366 42.1548 64.3897 42.3835C64.1429 42.6122 63.9915 42.9256 63.9658 43.2611V47.7008C63.9915 48.0363 64.1429 48.3498 64.3897 48.5784C64.6366 48.8071 64.9607 48.9341 65.2972 48.9341C65.6337 48.9341 65.9577 48.8071 66.2046 48.5784C66.4514 48.3498 66.6028 48.0363 66.6285 47.7008ZM57.4765 23.7209V6.2514C57.4797 4.76653 58.071 3.34339 59.121 2.29342C60.171 1.24346 61.5941 0.652159 63.079 0.648926H95.3975C96.8822 0.652744 98.305 1.24423 99.3549 2.29407C100.405 3.34391 100.996 4.76671 101 6.2514V66.8994C100.996 68.3841 100.405 69.8069 99.3549 70.8568C98.305 71.9066 96.8822 72.4981 95.3975 72.5019H63.079C61.6542 72.4978 60.284 71.9528 59.2458 70.9769C58.2076 70.0011 57.5788 68.6673 57.4865 67.2455H6.60359C5.11852 67.2426 3.6951 66.6514 2.64489 65.6014C1.59468 64.5514 1.00323 63.1281 1 61.643V29.3234C1.00323 27.8383 1.59468 26.415 2.64489 25.365C3.6951 24.315 5.11852 23.7238 6.60359 23.7209H57.4765ZM77.9703 8.85958H80.5062C80.8403 8.83223 81.152 8.68017 81.3792 8.43362C81.6064 8.18706 81.7325 7.86406 81.7325 7.52879C81.7325 7.19351 81.6064 6.87051 81.3792 6.62396C81.152 6.3774 80.8403 6.22534 80.5062 6.19799H77.9703C77.7864 6.18294 77.6014 6.20616 77.4269 6.26621C77.2524 6.32626 77.0923 6.42182 76.9566 6.54686C76.8209 6.67191 76.7126 6.82373 76.6385 6.99273C76.5644 7.16173 76.5262 7.34426 76.5262 7.52879C76.5262 7.71331 76.5644 7.89584 76.6385 8.06484C76.7126 8.23385 76.8209 8.38566 76.9566 8.51071C77.0923 8.63575 77.2524 8.73131 77.4269 8.79136C77.6014 8.85141 77.7864 8.87464 77.9703 8.85958ZM63.138 23.7209V12.9276C63.138 12.5735 63.2786 12.2339 63.529 11.9835C63.7795 11.7331 64.1191 11.5924 64.4732 11.5924H94.0078C94.3619 11.5924 94.7015 11.7331 94.9519 11.9835C95.2023 12.2339 95.343 12.5735 95.343 12.9276V59.0437C95.343 59.3979 95.2023 59.7375 94.9519 59.9879C94.7015 60.2383 94.3619 60.379 94.0078 60.379H72.8552V61.6475C72.852 63.1323 72.2607 64.5555 71.2107 65.6054C70.1608 66.6554 68.7376 67.2467 67.2528 67.2499H60.1581C60.2466 67.9634 60.5919 68.6203 61.1294 69.0976C61.667 69.575 62.3601 69.8402 63.079 69.8437H95.3975C96.1764 69.8401 96.9224 69.5292 97.4732 68.9784C98.0239 68.4277 98.3349 67.6817 98.3384 66.9028V6.24806C98.3358 5.46859 98.0252 4.72175 97.4743 4.17027C96.9235 3.61879 96.177 3.30736 95.3975 3.30384H63.079C62.3001 3.30735 61.5541 3.61832 61.0034 4.16909C60.4526 4.71985 60.1416 5.46584 60.1381 6.24472V23.7142L63.138 23.7209ZM92.677 45.5689L84.4429 41.1759L81.5499 43.438L82.3088 43.9944C82.5913 44.2039 82.7791 44.5171 82.8307 44.8651C82.8824 45.213 82.7937 45.5673 82.5842 45.8498C82.3746 46.1324 82.0614 46.3201 81.7135 46.3718C81.3655 46.4234 81.0113 46.3347 80.7287 46.1252L74.5443 41.5631L72.8552 42.9318V57.7152H92.677V45.5689ZM79.3356 41.8035L83.4916 38.5555C83.6982 38.393 83.9486 38.2957 84.2107 38.2759C84.4728 38.2561 84.7349 38.3147 84.9637 38.4442L92.6747 42.5612V14.254H65.7996V23.7209H67.2528C68.7376 23.7241 70.1608 24.3154 71.2107 25.3654C72.2607 26.4153 72.852 27.8385 72.8552 29.3234V39.518L73.6697 38.8593C73.9016 38.6723 74.1893 38.5682 74.4871 38.5636C74.7848 38.559 75.0756 38.654 75.3132 38.8337L79.3356 41.8035ZM77.0156 66.2741H81.4564C81.7906 66.2467 82.1022 66.0947 82.3294 65.8481C82.5566 65.6016 82.6827 65.2786 82.6827 64.9433C82.6827 64.608 82.5566 64.285 82.3294 64.0385C82.1022 63.7919 81.7906 63.6399 81.4564 63.6125H77.0156C76.6815 63.6399 76.3698 63.7919 76.1426 64.0385C75.9154 64.285 75.7893 64.608 75.7893 64.9433C75.7893 65.2786 75.9154 65.6016 76.1426 65.8481C76.3698 66.0947 76.6815 66.2467 77.0156 66.2741ZM79.2166 35.4366H79.2611C79.8914 35.4366 80.4959 35.1862 80.9417 34.7404C81.3874 34.2947 81.6378 33.6902 81.6378 33.0598C81.6378 32.4295 81.3874 31.8249 80.9417 31.3792C80.4959 30.9335 79.8914 30.6831 79.2611 30.6831H79.2166C78.5862 30.6831 77.9817 30.9335 77.5359 31.3792C77.0902 31.8249 76.8398 32.4295 76.8398 33.0598C76.8398 33.6902 77.0902 34.2947 77.5359 34.7404C77.9817 35.1862 78.5862 35.4366 79.2166 35.4366Z" fill="#3C7CFF"/>
<path fill-rule="evenodd" clip-rule="evenodd" d="M37.7772 38.0503C37.5044 37.7768 37.1452 37.6064 36.7609 37.5682C36.3765 37.5299 35.9908 37.6261 35.6694 37.8404C35.3481 38.0547 35.111 38.3738 34.9986 38.7434C34.8862 39.1129 34.9055 39.51 35.0531 39.8669C35.2008 40.2239 35.4676 40.5185 35.8082 40.7007C36.1488 40.8829 36.542 40.9414 36.9208 40.8661C37.2997 40.7908 37.6407 40.5864 37.8857 40.2878C38.1307 39.9892 38.2646 39.6149 38.2645 39.2287C38.2648 39.0098 38.222 38.7931 38.1383 38.5909C38.0547 38.3887 37.932 38.205 37.7772 38.0503ZM36.5988 34.9047C37.6002 34.9044 38.5708 35.2513 39.3451 35.8863C40.1194 36.5214 40.6496 37.4053 40.8452 38.3874C41.0409 39.3695 40.89 40.3891 40.4182 41.2724C39.9464 42.1557 39.1829 42.8481 38.2578 43.2316C37.3327 43.6151 36.3033 43.6659 35.3449 43.3755C34.3865 43.0851 33.5585 42.4713 33.0019 41.6388C32.4453 40.8063 32.1946 39.8065 32.2926 38.8099C32.3905 37.8133 32.8309 36.8815 33.5389 36.1732C33.9402 35.7706 34.4171 35.4512 34.9422 35.2335C35.4674 35.0158 36.0303 34.9041 36.5988 34.9047ZM69.3291 27.2515C69.6027 27.5237 69.8199 27.8472 69.9683 28.2035C70.1166 28.5598 70.1932 28.9419 70.1936 29.3278V61.643C70.1901 62.4219 69.8792 63.1679 69.3284 63.7187C68.7776 64.2694 68.0316 64.5804 67.2528 64.5839H6.60359C5.82451 64.5807 5.07824 64.2698 4.52723 63.719C3.97623 63.1683 3.66511 62.4221 3.66159 61.643V29.3234C3.66453 28.5441 3.97546 27.7976 4.52659 27.2467C5.07772 26.6958 5.82433 26.3851 6.60359 26.3825H67.2528C67.6387 26.3827 68.0209 26.4592 68.3772 26.6076C68.7335 26.756 69.057 26.9733 69.3291 27.247V27.2515ZM9.214 46.7506V44.2147C9.18664 43.8805 9.03458 43.5689 8.78803 43.3417C8.54148 43.1145 8.21847 42.9884 7.8832 42.9884C7.54793 42.9884 7.22492 43.1145 6.97837 43.3417C6.73182 43.5689 6.57976 43.8805 6.5524 44.2147V46.7506C6.57976 47.0847 6.73182 47.3964 6.97837 47.6236C7.22492 47.8507 7.54793 47.9769 7.8832 47.9769C8.21847 47.9769 8.54148 47.8507 8.78803 47.6236C9.03458 47.3964 9.18664 47.0847 9.214 46.7506ZM60.7323 30.7131V60.2521C60.7323 60.6063 60.5916 60.9459 60.3412 61.1963C60.0908 61.4467 59.7512 61.5874 59.397 61.5874H13.2798C12.9257 61.5874 12.5861 61.4467 12.3357 61.1963C12.0853 60.9459 11.9446 60.6063 11.9446 60.2521V30.7131C11.9446 30.359 12.0853 30.0194 12.3357 29.769C12.5861 29.5186 12.9257 29.3779 13.2798 29.3779H59.397C59.7512 29.3779 60.0908 29.5186 60.3412 29.769C60.5916 30.0194 60.7323 30.359 60.7323 30.7131ZM36.8603 49.0661L29.7145 44.2136C29.4994 44.0487 29.239 43.9536 28.9683 43.9411C28.6976 43.9286 28.4295 43.9992 28.2001 44.1435L14.6084 52.6835V32.0439H58.0662V50.9911L45.4804 44.1613C45.2681 44.0458 45.0282 43.9907 44.7867 44.0019C44.5453 44.0131 44.3115 44.0901 44.1107 44.2247L36.8625 49.0617L36.8603 49.0661ZM36.166 51.7978C36.1281 51.7744 36.0914 51.7488 36.0547 51.7221L28.8811 46.8496L14.6084 55.8236V58.9269H58.0662V54.0176L44.9129 46.8819L39.2292 50.674L41.1409 51.9725C41.2849 52.0703 41.4082 52.1956 41.5038 52.341C41.5994 52.4865 41.6654 52.6494 41.6981 52.8204C41.7307 52.9914 41.7294 53.1672 41.6941 53.3377C41.6588 53.5082 41.5903 53.67 41.4925 53.814C41.3947 53.958 41.2694 54.0814 41.1239 54.177C40.9784 54.2726 40.8156 54.3386 40.6446 54.3712C40.4735 54.4039 40.2978 54.4025 40.1273 54.3672C39.9568 54.332 39.795 54.2635 39.651 54.1656L36.1626 51.7978H36.166ZM66.6285 47.7008V43.2611C66.6028 42.9256 66.4514 42.6122 66.2046 42.3835C65.9577 42.1548 65.6337 42.0278 65.2972 42.0278C64.9607 42.0278 64.6366 42.1548 64.3897 42.3835C64.1429 42.6122 63.9915 42.9256 63.9658 43.2611V47.7008C63.9915 48.0363 64.1429 48.3498 64.3897 48.5784C64.6366 48.8071 64.9607 48.9341 65.2972 48.9341C65.6337 48.9341 65.9577 48.8071 66.2046 48.5784C66.4514 48.3498 66.6028 48.0363 66.6285 47.7008ZM57.4765 23.7209V6.2514C57.4797 4.76653 58.071 3.34339 59.121 2.29342C60.171 1.24346 61.5941 0.652159 63.079 0.648926H95.3975C96.8822 0.652744 98.305 1.24423 99.3549 2.29407C100.405 3.34391 100.996 4.76671 101 6.2514V66.8994C100.996 68.3841 100.405 69.8069 99.3549 70.8568C98.305 71.9066 96.8822 72.4981 95.3975 72.5019H63.079C61.6542 72.4978 60.284 71.9528 59.2458 70.9769C58.2076 70.0011 57.5788 68.6673 57.4865 67.2455H6.60359C5.11852 67.2426 3.6951 66.6514 2.64489 65.6014C1.59468 64.5514 1.00323 63.1281 1 61.643V29.3234C1.00323 27.8383 1.59468 26.415 2.64489 25.365C3.6951 24.315 5.11852 23.7238 6.60359 23.7209H57.4765ZM77.9703 8.85958H80.5062C80.8403 8.83223 81.152 8.68017 81.3792 8.43362C81.6064 8.18706 81.7325 7.86406 81.7325 7.52879C81.7325 7.19351 81.6064 6.87051 81.3792 6.62396C81.152 6.3774 80.8403 6.22534 80.5062 6.19799H77.9703C77.7864 6.18294 77.6014 6.20616 77.4269 6.26621C77.2524 6.32626 77.0923 6.42182 76.9566 6.54686C76.8209 6.67191 76.7126 6.82373 76.6385 6.99273C76.5644 7.16173 76.5262 7.34426 76.5262 7.52879C76.5262 7.71331 76.5644 7.89584 76.6385 8.06484C76.7126 8.23385 76.8209 8.38566 76.9566 8.51071C77.0923 8.63575 77.2524 8.73131 77.4269 8.79136C77.6014 8.85141 77.7864 8.87464 77.9703 8.85958ZM63.138 23.7209V12.9276C63.138 12.5735 63.2786 12.2339 63.529 11.9835C63.7795 11.7331 64.1191 11.5924 64.4732 11.5924H94.0078C94.3619 11.5924 94.7015 11.7331 94.9519 11.9835C95.2023 12.2339 95.343 12.5735 95.343 12.9276V59.0437C95.343 59.3979 95.2023 59.7375 94.9519 59.9879C94.7015 60.2383 94.3619 60.379 94.0078 60.379H72.8552V61.6475C72.852 63.1323 72.2607 64.5555 71.2107 65.6054C70.1608 66.6554 68.7376 67.2467 67.2528 67.2499H60.1581C60.2466 67.9634 60.5919 68.6203 61.1294 69.0976C61.667 69.575 62.3601 69.8402 63.079 69.8437H95.3975C96.1764 69.8401 96.9224 69.5292 97.4732 68.9784C98.0239 68.4277 98.3349 67.6817 98.3384 66.9028V6.24806C98.3358 5.46859 98.0252 4.72175 97.4743 4.17027C96.9235 3.61879 96.177 3.30736 95.3975 3.30384H63.079C62.3001 3.30735 61.5541 3.61832 61.0034 4.16909C60.4526 4.71985 60.1416 5.46584 60.1381 6.24472V23.7142L63.138 23.7209ZM92.677 45.5689L84.4429 41.1759L81.5499 43.438L82.3088 43.9944C82.5913 44.2039 82.7791 44.5171 82.8307 44.8651C82.8824 45.213 82.7937 45.5673 82.5842 45.8498C82.3746 46.1324 82.0614 46.3201 81.7135 46.3718C81.3655 46.4234 81.0113 46.3347 80.7287 46.1252L74.5443 41.5631L72.8552 42.9318V57.7152H92.677V45.5689ZM79.3356 41.8035L83.4916 38.5555C83.6982 38.393 83.9486 38.2957 84.2107 38.2759C84.4728 38.2561 84.7349 38.3147 84.9637 38.4442L92.6747 42.5612V14.254H65.7996V23.7209H67.2528C68.7376 23.7241 70.1608 24.3154 71.2107 25.3654C72.2607 26.4153 72.852 27.8385 72.8552 29.3234V39.518L73.6697 38.8593C73.9016 38.6723 74.1893 38.5682 74.4871 38.5636C74.7848 38.559 75.0756 38.654 75.3132 38.8337L79.3356 41.8035ZM77.0156 66.2741H81.4564C81.7906 66.2467 82.1022 66.0947 82.3294 65.8481C82.5566 65.6016 82.6827 65.2786 82.6827 64.9433C82.6827 64.608 82.5566 64.285 82.3294 64.0385C82.1022 63.7919 81.7906 63.6399 81.4564 63.6125H77.0156C76.6815 63.6399 76.3698 63.7919 76.1426 64.0385C75.9154 64.285 75.7893 64.608 75.7893 64.9433C75.7893 65.2786 75.9154 65.6016 76.1426 65.8481C76.3698 66.0947 76.6815 66.2467 77.0156 66.2741ZM79.2166 35.4366H79.2611C79.8914 35.4366 80.4959 35.1862 80.9417 34.7404C81.3874 34.2947 81.6378 33.6902 81.6378 33.0598C81.6378 32.4295 81.3874 31.8249 80.9417 31.3792C80.4959 30.9335 79.8914 30.6831 79.2611 30.6831H79.2166C78.5862 30.6831 77.9817 30.9335 77.5359 31.3792C77.0902 31.8249 76.8398 32.4295 76.8398 33.0598C76.8398 33.6902 77.0902 34.2947 77.5359 34.7404C77.9817 35.1862 78.5862 35.4366 79.2166 35.4366Z" stroke="#3C7CFF" stroke-width="0.6" mask="url(#path-1-outside-1_179_944)"/>
</svg>
