<svg width="100" height="85" viewBox="0 0 100 85" fill="none" xmlns="http://www.w3.org/2000/svg">
<path d="M100 22.1702V8.41319C100 3.72149 96.3294 0 91.8187 0H8.18043C3.66979 0 0 3.72149 0 8.41319V75.8421C0 80.5338 3.66979 84.2553 8.18043 84.2553H91.8187C96.3294 84.2553 100 80.5338 100 75.8421V22.2021C100 22.1966 100 22.1913 100 22.1857C100 22.1802 100 22.1749 100 22.1702ZM8.18043 2.97872H91.8187C94.6868 2.97872 97.0213 5.36404 97.0213 8.41319V20.6383H2.97872V8.41319C2.97872 5.36404 5.31234 2.97872 8.18043 2.97872ZM91.8187 81.2766H8.18043C5.31234 81.2766 2.97872 78.8913 2.97872 75.8421V23.617H97.0213V75.8421C97.0213 78.8913 94.6868 81.2766 91.8187 81.2766Z" fill="#3C7CFF"/>
<path d="M26.0235 18.0919C29.3043 18.0919 31.9737 15.3245 31.9737 11.923C31.9737 8.52148 29.3043 5.75403 26.0235 5.75403C22.7426 5.75403 20.0732 8.52148 20.0732 11.923C20.0732 15.3245 22.7424 18.0919 26.0235 18.0919ZM26.0235 8.73275C27.6618 8.73275 28.9949 10.164 28.9949 11.923C28.9949 13.6819 27.662 15.1132 26.0235 15.1132C24.3849 15.1132 23.052 13.6821 23.052 11.923C23.052 10.1638 24.3847 8.73275 26.0235 8.73275Z" fill="#3C7CFF"/>
<path d="M40.521 18.0919C43.8019 18.0919 46.4712 15.3245 46.4712 11.923C46.4712 8.52148 43.8019 5.75403 40.521 5.75403C37.2402 5.75403 34.5708 8.52148 34.5708 11.923C34.5708 15.3245 37.2402 18.0919 40.521 18.0919ZM40.521 8.73275C42.1593 8.73275 43.4925 10.164 43.4925 11.923C43.4925 13.6819 42.1595 15.1132 40.521 15.1132C38.8825 15.1132 37.5495 13.6821 37.5495 11.923C37.5495 10.1638 38.8825 8.73275 40.521 8.73275Z" fill="#3C7CFF"/>
<path d="M11.5259 18.0919C14.8067 18.0919 17.4761 15.3245 17.4761 11.923C17.4761 8.52148 14.8067 5.75403 11.5259 5.75403C8.24504 5.75403 5.57568 8.52148 5.57568 11.923C5.57568 15.3245 8.24504 18.0919 11.5259 18.0919ZM11.5259 8.73275C13.1642 8.73275 14.4974 10.164 14.4974 11.923C14.4974 13.6819 13.1644 15.1132 11.5259 15.1132C9.88738 15.1132 8.55441 13.6821 8.55441 11.923C8.55441 10.1638 9.88738 8.73275 11.5259 8.73275Z" fill="#3C7CFF"/>
<path d="M69.3913 48.5106H67.447V45.9753C67.447 37.0226 59.7253 29.6889 50.3194 29.6274C40.9175 29.6274 33.1917 36.9611 33.1917 45.9753V48.5106H30.6092C30.4145 48.5126 30.2221 48.5531 30.0431 48.6298C29.8641 48.7065 29.7021 48.8179 29.5664 48.9575C29.4307 49.0972 29.3239 49.2623 29.2523 49.4433C29.1807 49.6244 29.1456 49.8179 29.1492 50.0125V63.7498C29.1492 64.5723 29.7875 65.3191 30.6092 65.3191H38.8826C39.2912 65.3032 39.6784 65.1319 39.9652 64.8403C40.2519 64.5487 40.4166 64.1587 40.4258 63.7498V50.0125C40.414 49.6108 40.2464 49.2294 39.9584 48.949C39.6703 48.6687 39.2845 48.5115 38.8826 48.5106H36.1704V45.9753C36.1704 38.6036 42.56 32.6062 50.3096 32.6062C58.0743 32.657 64.4683 38.6545 64.4683 45.9753V48.5106H61.7051C61.3085 48.5133 60.9291 48.6727 60.6496 48.9541C60.37 49.2355 60.2131 49.6159 60.213 50.0125V63.7498C60.2107 64.1535 60.3648 64.5424 60.6429 64.835C60.9211 65.1276 61.3018 65.3011 61.7051 65.3191H63.6172V68.0515C63.6172 69.0868 62.8196 70 61.7845 70H57.4415C57.1171 68.9576 56.4301 68.0658 55.505 67.4862C54.5799 66.9066 53.4778 66.6774 52.3983 66.8401C51.3188 67.0029 50.3333 67.5468 49.6202 68.3734C48.9071 69.2 48.5135 70.2547 48.5109 71.3464C48.5053 72.4209 48.8778 73.4631 49.5632 74.2906C50.2486 75.1182 51.2032 75.6782 52.26 75.8728C53.3167 76.0674 54.4083 75.8841 55.3435 75.355C56.2787 74.8259 56.998 73.9847 57.3755 72.9787H61.7845C64.4621 72.9787 66.596 70.7291 66.596 68.0515V65.3191H69.3913C70.213 65.3191 70.8513 64.5723 70.8513 63.7498V50.0125C70.8548 49.8179 70.8198 49.6244 70.7481 49.4433C70.6765 49.2623 70.5698 49.0972 70.4341 48.9575C70.2984 48.8179 70.1363 48.7065 69.9574 48.6298C69.7784 48.5531 69.586 48.5126 69.3913 48.5106ZM37.447 62.3404H32.1279V51.4894H37.447V62.3404ZM53.0866 72.9257C52.7708 72.9257 52.462 72.8321 52.1994 72.6566C51.9367 72.4811 51.732 72.2317 51.6112 71.9399C51.4903 71.6481 51.4587 71.3269 51.5203 71.0172C51.5819 70.7074 51.734 70.4228 51.9573 70.1995C52.1807 69.9761 52.4653 69.824 52.7751 69.7624C53.0848 69.7008 53.4059 69.7324 53.6978 69.8533C53.9896 69.9741 54.239 70.1788 54.4145 70.4415C54.59 70.7041 54.6836 71.0129 54.6836 71.3287C54.6832 71.7521 54.5148 72.1581 54.2154 72.4575C53.916 72.7569 53.51 72.9253 53.0866 72.9257ZM67.8726 62.3404H63.1917V51.4894H67.8726V62.3404Z" fill="#3C7CFF"/>
</svg>
