<svg width="100" height="87" viewBox="0 0 100 87" fill="none" xmlns="http://www.w3.org/2000/svg">
<path d="M94.6429 0.416016H5.35714C3.93634 0.416016 2.57373 0.980427 1.56907 1.98509C0.564412 2.98975 0 4.35236 0 5.77316V80.7732C0 82.194 0.564412 83.5566 1.56907 84.5612C2.57373 85.5659 3.93634 86.1303 5.35714 86.1303H94.6429C96.0637 86.1303 97.4263 85.5659 98.4309 84.5612C99.4356 83.5566 100 82.194 100 80.7732V5.77316C100 4.35236 99.4356 2.98975 98.4309 1.98509C97.4263 0.980427 96.0637 0.416016 94.6429 0.416016ZM5.35714 3.98744H94.6429C95.1165 3.98744 95.5707 4.17558 95.9055 4.51047C96.2404 4.84535 96.4286 5.29956 96.4286 5.77316V14.7017H3.57143V5.77316C3.57143 5.29956 3.75957 4.84535 4.09445 4.51047C4.42934 4.17558 4.88354 3.98744 5.35714 3.98744ZM94.6429 82.5589H5.35714C4.88354 82.5589 4.42934 82.3707 4.09445 82.0358C3.75957 81.701 3.57143 81.2468 3.57143 80.7732V18.2732H96.4286V80.7732C96.4286 81.2468 96.2404 81.701 95.9055 82.0358C95.5707 82.3707 95.1165 82.5589 94.6429 82.5589Z" fill="#3C7CFF"/>
<path d="M91.0714 11.1303C92.0576 11.1303 92.8571 10.3308 92.8571 9.34455C92.8571 8.35833 92.0576 7.55884 91.0714 7.55884C90.0851 7.55884 89.2856 8.35833 89.2856 9.34455C89.2856 10.3308 90.0851 11.1303 91.0714 11.1303Z" fill="#3C7CFF"/>
<path d="M83.9285 11.1303C84.9148 11.1303 85.7143 10.3308 85.7143 9.34455C85.7143 8.35833 84.9148 7.55884 83.9285 7.55884C82.9423 7.55884 82.1428 8.35833 82.1428 9.34455C82.1428 10.3308 82.9423 11.1303 83.9285 11.1303Z" fill="#3C7CFF"/>
<path d="M76.7857 11.1303C77.7719 11.1303 78.5714 10.3308 78.5714 9.34455C78.5714 8.35833 77.7719 7.55884 76.7857 7.55884C75.7995 7.55884 75 8.35833 75 9.34455C75 10.3308 75.7995 11.1303 76.7857 11.1303Z" fill="#3C7CFF"/>
<path d="M85.7143 64.7017H83.9286C83.5089 56.3858 80.03 48.5185 74.1607 42.6124C74.1607 42.6124 74.1607 42.5231 74.1607 42.4874H74.0357C67.6825 36.1953 59.1024 32.6655 50.1607 32.6655C41.2191 32.6655 32.6389 36.1953 26.2857 42.4874H26.1607C26.1607 42.4874 26.1607 42.5767 26.1607 42.6124C20.2062 48.4825 16.6427 56.3541 16.1607 64.7017H14.2857C13.8121 64.7017 13.3579 64.8898 13.023 65.2247C12.6881 65.5596 12.5 66.0138 12.5 66.4874C12.5 66.961 12.6881 67.4152 13.023 67.7501C13.3579 68.085 13.8121 68.2731 14.2857 68.2731H43.1071C43.5184 69.7863 44.4161 71.1221 45.6618 72.0744C46.9075 73.0268 48.432 73.5428 50 73.5428C51.568 73.5428 53.0925 73.0268 54.3382 72.0744C55.5839 71.1221 56.4816 69.7863 56.8929 68.2731H85.7143C86.1879 68.2731 86.6421 68.085 86.977 67.7501C87.3119 67.4152 87.5 66.961 87.5 66.4874C87.5 66.0138 87.3119 65.5596 86.977 65.2247C86.6421 64.8898 86.1879 64.7017 85.7143 64.7017ZM54.4821 60.9696L59.3036 56.1481C59.4701 55.9816 59.6021 55.784 59.6922 55.5664C59.7824 55.3489 59.8287 55.1157 59.8287 54.8803C59.8287 54.6448 59.7824 54.4116 59.6922 54.1941C59.6021 53.9766 59.4701 53.7789 59.3036 53.6124C59.1371 53.4459 58.9394 53.3138 58.7219 53.2237C58.5043 53.1336 58.2712 53.0872 58.0357 53.0872C57.8003 53.0872 57.5671 53.1336 57.3496 53.2237C57.132 53.3138 56.9344 53.4459 56.7679 53.6124L50.9464 59.4338C50.633 59.3856 50.317 59.3557 50 59.3446C48.4204 59.3497 46.8871 59.8783 45.6399 60.8476C44.3927 61.8169 43.502 63.1723 43.1071 64.7017H28.6607C29.0119 59.2691 31.4176 54.1739 35.3893 50.4508C39.3609 46.7276 44.6007 44.6556 50.0446 44.6556C55.4885 44.6556 60.7284 46.7276 64.7 50.4508C68.6716 54.1739 71.0774 59.2691 71.4286 64.7017H56.8929C56.5065 63.233 55.662 61.9257 54.4821 60.9696ZM66.3571 47.6124C62.2868 44.0676 57.1705 41.9483 51.7857 41.5767V36.2196C58.5812 36.617 65.0434 39.2975 70.125 43.8267L66.3571 47.6124ZM48.2143 41.5767C42.8295 41.9483 37.7132 44.0676 33.6429 47.6124L29.875 43.8267C34.9566 39.2975 41.4188 36.617 48.2143 36.2196V41.5767ZM68.875 50.1303L72.6607 46.3624C77.2223 51.4318 79.9348 57.8952 80.3571 64.7017H75C74.6033 59.3063 72.4522 54.1888 68.875 50.1303ZM27.3393 46.3624L31.125 50.1303C27.5802 54.2006 25.4609 59.3169 25.0893 64.7017H19.7321C20.1296 57.9062 22.8101 51.4441 27.3393 46.3624ZM50 70.0588C49.2936 70.0588 48.6031 69.8494 48.0158 69.457C47.4285 69.0645 46.9707 68.5067 46.7004 67.8541C46.4301 67.2015 46.3594 66.4834 46.4972 65.7907C46.635 65.0979 46.9751 64.4615 47.4746 63.962C47.9741 63.4626 48.6105 63.1224 49.3032 62.9846C49.996 62.8468 50.7141 62.9175 51.3667 63.1878C52.0193 63.4582 52.5771 63.9159 52.9695 64.5032C53.362 65.0906 53.5714 65.7811 53.5714 66.4874C53.5714 67.4346 53.1952 68.343 52.5254 69.0128C51.8556 69.6826 50.9472 70.0588 50 70.0588Z" fill="#3C7CFF"/>
</svg>
