<svg width="100" height="100" viewBox="0 0 100 100" fill="none" xmlns="http://www.w3.org/2000/svg">
<path d="M67.8696 66.4195C67.8696 58.9839 64.1954 53.1182 57.7846 50.338C57.2721 50.1199 56.6725 50.1744 56.2146 50.5015C54.3829 51.7881 52.2351 52.464 49.9891 52.464C47.7431 52.464 45.628 51.799 43.8072 50.5342C43.3493 50.2181 42.7606 50.1526 42.2372 50.3816C35.7937 53.1945 32.1086 59.0384 32.0977 66.4195C32.0977 66.8447 32.2721 67.2591 32.5665 67.5643C32.8718 67.8696 33.2752 68.0331 33.7113 68.0331H66.2451C67.1391 68.0331 67.8587 67.3136 67.8587 66.4195H67.8696ZM35.4121 64.8059C35.87 59.8234 38.4867 55.8657 42.7715 53.696C44.952 55.0044 47.427 55.6803 49.9891 55.6803C52.5512 55.6803 55.0807 54.9826 57.2721 53.6524C60.1069 55.0916 64.0209 58.2316 64.577 64.8059H35.4121ZM49.9891 49.7601C54.9062 49.7601 58.9075 45.7588 58.9075 40.8417C58.9075 35.9246 54.9062 31.9232 49.9891 31.9232C45.072 31.9232 41.0706 35.9246 41.0706 40.8417C41.0706 45.7588 45.072 49.7601 49.9891 49.7601ZM49.9891 35.1614C53.1291 35.1614 55.6803 37.7126 55.6803 40.8526C55.6803 43.9926 53.1291 46.5438 49.9891 46.5438C46.8491 46.5438 44.2979 43.9926 44.2979 40.8526C44.2979 37.7126 46.8491 35.1614 49.9891 35.1614ZM0.392499 43.72C1.75534 32.7955 6.82512 22.4597 14.6424 14.6424C22.4706 6.81422 32.7955 1.75534 43.72 0.392499C44.6031 0.283472 45.4099 0.904928 45.519 1.78805C45.628 2.67117 45.0065 3.47798 44.1234 3.587C22.9067 6.24727 6.24727 22.9067 3.587 44.1234C3.48888 44.9411 2.7911 45.5408 1.9843 45.5408C1.91888 45.5408 1.85347 45.5408 1.77715 45.5299C0.894025 45.4208 0.261666 44.614 0.381596 43.7309L0.392499 43.72ZM54.4592 1.78805C54.5683 0.904928 55.3751 0.272569 56.2582 0.392499C67.1827 1.75534 77.5185 6.82512 85.3358 14.6424C93.164 22.4706 98.2229 32.7955 99.5857 43.72C99.6947 44.6031 99.0733 45.4099 98.1902 45.519C98.1247 45.519 98.0593 45.5299 97.983 45.5299C97.1762 45.5299 96.4893 44.9302 96.3803 44.1125C93.7309 22.9067 77.0606 6.23637 55.8439 3.5761C54.9608 3.46707 54.3284 2.66027 54.4483 1.77715L54.4592 1.78805ZM99.5966 56.2582C98.2338 67.1827 93.164 77.5185 85.3467 85.3358C77.5185 93.164 67.1936 98.2229 56.2691 99.5857C56.2037 99.5857 56.1382 99.5966 56.0619 99.5966C55.2551 99.5966 54.5683 98.9969 54.4592 98.1792C54.3502 97.2961 54.9717 96.4893 55.8548 96.3803C77.0606 93.7309 93.7309 77.0606 96.3912 55.8439C96.5002 54.9607 97.307 54.3284 98.1902 54.4483C99.0733 54.5573 99.7056 55.3642 99.5857 56.2473L99.5966 56.2582ZM45.5299 98.1901C45.4317 99.0078 44.734 99.6075 43.9272 99.6075C43.8618 99.6075 43.7963 99.6075 43.72 99.5966C32.7955 98.2338 22.4597 93.164 14.6424 85.3467C6.81422 77.5185 1.75534 67.1936 0.392499 56.2691C0.283472 55.386 0.904928 54.5792 1.78805 54.4701C2.67117 54.3611 3.47798 54.9826 3.587 55.8657C6.23637 77.0715 22.9067 93.7418 44.1234 96.4021C45.0065 96.5111 45.6389 97.3179 45.519 98.201L45.5299 98.1901ZM89.2281 51.6027H98.3864C99.2804 51.6027 100 50.8831 100 49.9891C100 49.0951 99.2804 48.3755 98.3864 48.3755H89.2281C88.3995 28.0092 71.9799 11.5896 51.6136 10.761V1.61361C51.6136 0.719581 50.894 0 50 0C49.106 0 48.3864 0.719581 48.3864 1.61361V10.761C28.0201 11.5896 11.6005 28.0092 10.7719 48.3755H1.61361C0.719581 48.3755 0 49.0951 0 49.9891C0 50.8831 0.719581 51.6027 1.61361 51.6027H10.761C11.5896 71.969 28.0092 88.3886 48.3755 89.2172V98.3755C48.3755 99.2695 49.0951 99.9891 49.9891 99.9891C50.8831 99.9891 51.6027 99.2695 51.6027 98.3755V89.2172C71.969 88.3886 88.3886 71.969 89.2172 51.6027H89.2281ZM14.01 51.6027H20.9224L17.3245 55.2006C16.6921 55.833 16.6921 56.8469 17.3245 57.4793C17.6406 57.7955 18.055 57.9481 18.4693 57.9481C18.8836 57.9481 19.2979 57.7955 19.614 57.4793L25.9594 51.1339C26.5918 50.5015 26.5918 49.4876 25.9594 48.8552L19.614 42.5098C18.9817 41.8774 17.9677 41.8774 17.3354 42.5098C16.703 43.1422 16.703 44.1561 17.3354 44.7885L20.9333 48.3864H14.0209C14.8386 29.7972 29.819 14.8277 48.4082 13.9991V20.9115L44.8103 17.3136C44.1779 16.6812 43.164 16.6812 42.5316 17.3136C41.8993 17.9459 41.8993 18.9599 42.5316 19.5922L48.877 25.9376C49.1932 26.2538 49.6075 26.4065 50.0218 26.4065C50.4361 26.4065 50.8504 26.2538 51.1666 25.9376L57.512 19.5922C58.1444 18.9599 58.1444 17.9459 57.512 17.3136C56.8796 16.6812 55.8657 16.6812 55.2333 17.3136L51.6354 20.9115V13.9991C70.2246 14.8168 85.1941 29.7972 86.0227 48.3864H79.1103L82.7082 44.7885C83.3406 44.1561 83.3406 43.1422 82.7082 42.5098C82.0759 41.8774 81.0619 41.8774 80.4296 42.5098L74.0842 48.8552C73.4518 49.4876 73.4518 50.5015 74.0842 51.1339L80.4296 57.4793C80.7457 57.7955 81.1601 57.9481 81.5744 57.9481C81.9887 57.9481 82.403 57.7955 82.7191 57.4793C83.3515 56.8469 83.3515 55.833 82.7191 55.2006L79.1212 51.6027H86.0336C85.2159 70.1919 70.2355 85.1614 51.6463 85.99V79.0776L55.2442 82.6755C55.8766 83.3079 56.8905 83.3079 57.5229 82.6755C58.1553 82.0432 58.1553 81.0292 57.5229 80.3969L51.1775 74.0515C50.5451 73.4191 49.5312 73.4191 48.8988 74.0515L42.5534 80.3969C41.9211 81.0292 41.9211 82.0432 42.5534 82.6755C42.8696 82.9917 43.2839 83.1444 43.6982 83.1444C44.1125 83.1444 44.5268 82.9917 44.843 82.6755L48.4409 79.0776V85.99C29.8517 85.1723 14.8823 70.1919 14.0536 51.6027H14.01Z" fill="#3C7CFF"/>
</svg>
