<svg width="100" height="100" viewBox="0 0 100 100" fill="none" xmlns="http://www.w3.org/2000/svg">
<path d="M56.8313 11.4611H75.0578C76.2079 11.4611 77.1385 10.5295 77.1385 9.38039C77.1385 8.23133 76.2079 7.29968 75.0578 7.29968H56.8313C55.6812 7.29968 54.7506 8.23133 54.7506 9.38039C54.7506 10.5295 55.6812 11.4611 56.8313 11.4611Z" fill="#3C7CFF"/>
<path d="M24.932 11.5659C26.0821 11.5659 27.1164 10.5296 27.1164 9.38051C27.1164 8.23144 26.0821 7.19617 24.932 7.19617C23.7819 7.19617 22.7477 8.23144 22.7477 9.38051C22.7477 10.5296 23.7819 11.5659 24.932 11.5659Z" fill="#3C7CFF"/>
<path d="M32.7203 11.5659C33.8704 11.5659 34.9047 10.5296 34.9047 9.38051C34.9047 8.23144 33.8704 7.19617 32.7203 7.19617C31.5703 7.19617 30.536 8.23144 30.536 9.38051C30.536 10.5296 31.5703 11.5659 32.7203 11.5659Z" fill="#3C7CFF"/>
<path d="M40.5088 11.5659C41.6589 11.5659 42.6931 10.5296 42.6931 9.38051C42.6931 8.23144 41.6589 7.19617 40.5088 7.19617C39.3587 7.19617 38.3245 8.23144 38.3245 9.38051C38.3245 10.5296 39.3587 11.5659 40.5088 11.5659Z" fill="#3C7CFF"/>
<path d="M100 87.15V82.8575C100 80.5614 98.1306 78.6941 95.8345 78.6941H94.1033V33.0821C94.1033 28.096 90.5044 23.95 85.7703 23.066V6.84257C85.7703 3.06925 82.702 0 78.9288 0H21.0733C17.3 0 14.2297 3.06925 14.2297 6.84257V23.0639C9.49755 23.9398 5.8967 28.08 5.8967 33.0617V78.6941H4.16548C1.86939 78.6941 0 80.5614 0 82.8575V87.15C0 93.8341 5.43951 99.2726 12.1246 99.2726H87.8774C94.5625 99.2726 100 93.8341 100 87.15ZM49.9939 68.4876C51.2719 68.4876 52.369 69.2588 52.8654 70.3601H47.1409C47.6346 69.2588 48.7248 68.4876 49.9939 68.4876ZM57.1813 70.3601C56.5634 66.9362 53.5836 64.3262 49.9939 64.3262C49.3756 64.3262 48.7849 64.4274 48.2113 64.5736L43.2174 57.4471C42.555 56.5053 41.2606 56.2767 40.3178 56.937C39.377 57.5964 39.1494 58.8938 39.8078 59.8346L44.6345 66.7226C43.7208 67.7237 43.0767 68.9689 42.8264 70.3601H28.4914C28.8587 67.8212 29.6652 65.4269 30.8404 63.2509L32.3465 64.121C33.3311 64.6928 34.6097 64.3619 35.1892 63.36C35.7642 62.3654 35.4228 61.0924 34.4272 60.5183L33.165 59.7893C36.7698 55.3852 42.0345 52.3924 47.9193 51.8185V53.4441C47.9193 54.5932 48.8499 55.5248 50 55.5248C51.1501 55.5248 52.0807 54.5932 52.0807 53.4441V51.8143C58.0542 52.3698 63.305 55.3091 66.8825 59.7084L65.4814 60.5173C64.4857 61.0924 64.1443 62.3644 64.7194 63.36C65.2979 64.3603 66.574 64.6928 67.5621 64.122L69.1898 63.1822C70.3509 65.3664 71.1459 67.7819 71.511 70.3601H57.1813ZM75.7053 70.3601C74.154 57.3062 63.2599 47.5556 50 47.5556C37.1738 47.5556 25.8723 57.3077 24.2964 70.3601H18.3911V18.64H81.6089V70.3601H75.7053ZM21.0733 4.16142H78.9288C80.406 4.16142 81.6089 5.36433 81.6089 6.84257V14.4786H18.3911V6.84257C18.3911 5.36433 19.594 4.16142 21.0733 4.16142ZM10.0581 33.0617C10.0581 30.3909 11.8175 28.1467 14.2297 27.3598V70.9839C14.2297 72.9345 15.8166 74.5215 17.7673 74.5215C40.4796 74.5215 57.3236 74.5215 82.2327 74.5215C84.1834 74.5215 85.7703 72.9345 85.7703 70.9839V27.3654C88.183 28.1593 89.9419 30.4075 89.9419 33.0821V78.6941H62.3481C59.8549 78.6941 57.5243 80.0311 56.2665 82.1849C55.7524 83.0638 54.7994 83.6104 53.7794 83.6104H44.1378C43.1178 83.6104 42.1628 83.0638 41.6487 82.1839C40.3909 80.0311 38.0623 78.6941 35.5691 78.6941H10.0581V33.0617ZM95.8386 87.15C95.8386 91.54 92.2664 95.1111 87.8774 95.1111H12.1246C7.73357 95.1111 4.16142 91.54 4.16142 87.15L4.16548 82.8555C11.9429 82.8555 27.2861 82.8555 35.5691 82.8555C36.5892 82.8555 37.5422 83.4021 38.0562 84.2839C39.314 86.4348 41.6447 87.7718 44.1378 87.7718H53.7794C56.2746 87.7718 58.6032 86.4348 59.859 84.2829C60.3731 83.4021 61.3281 82.8555 62.3481 82.8555C62.7057 82.8555 62.4833 82.8555 95.8386 82.8545V87.15Z" fill="#3C7CFF"/>
<path d="M76.7566 87.5056C76.4142 87.8871 76.1531 88.4071 76.1531 88.9829C76.1531 90.1225 77.0752 91.0636 78.2338 91.0636C79.3837 91.0636 80.3145 90.1277 80.3145 88.9829C80.3145 86.9908 77.9326 86.3296 76.7566 87.5056Z" fill="#3C7CFF"/>
<path d="M16.5664 87.155H12.7139C11.5638 87.155 10.6332 88.0867 10.6332 89.2357C10.6332 90.3848 11.5638 91.3164 12.7139 91.3164H16.5664C17.7165 91.3164 18.6472 90.3848 18.6472 89.2357C18.6472 88.0867 17.7165 87.155 16.5664 87.155Z" fill="#3C7CFF"/>
<path d="M30.7088 87.155H26.8562C25.7061 87.155 24.7755 88.0867 24.7755 89.2357C24.7755 90.3848 25.7061 91.3164 26.8562 91.3164H30.7088C31.8589 91.3164 32.7895 90.3848 32.7895 89.2357C32.7895 88.0867 31.8589 87.155 30.7088 87.155Z" fill="#3C7CFF"/>
<path d="M23.9302 26.7007H50.0041C51.1542 26.7007 52.0848 25.7691 52.0848 24.62C52.0848 23.471 51.1542 22.5393 50.0041 22.5393H23.9302C22.7801 22.5393 21.8495 23.471 21.8495 24.62C21.8495 25.7691 22.7801 26.7007 23.9302 26.7007Z" fill="#3C7CFF"/>
<path d="M76.0698 30.403H23.9302C22.7801 30.403 21.8495 31.3346 21.8495 32.4837C21.8495 33.6327 22.7801 34.5644 23.9302 34.5644H76.0698C77.2199 34.5644 78.1505 33.6327 78.1505 32.4837C78.1505 31.3346 77.2199 30.403 76.0698 30.403Z" fill="#3C7CFF"/>
<path d="M76.0698 38.2655H23.9302C22.7801 38.2655 21.8495 39.1971 21.8495 40.3462C21.8495 41.4953 22.7801 42.4269 23.9302 42.4269H76.0698C77.2199 42.4269 78.1505 41.4953 78.1505 40.3462C78.1505 39.1971 77.2199 38.2655 76.0698 38.2655Z" fill="#3C7CFF"/>
<path d="M60.7023 26.8054C61.8524 26.8054 62.8785 25.7691 62.8785 24.62C62.8785 23.4709 61.8524 22.4357 60.7023 22.4357C59.5523 22.4357 58.5261 23.4709 58.5261 24.62C58.5261 25.7691 59.5523 26.8054 60.7023 26.8054Z" fill="#3C7CFF"/>
<path d="M68.3382 26.8054C69.4883 26.8054 70.5144 25.7691 70.5144 24.62C70.5144 23.4709 69.4883 22.4357 68.3382 22.4357C67.1881 22.4357 66.162 23.4709 66.162 24.62C66.162 25.7691 67.1881 26.8054 68.3382 26.8054Z" fill="#3C7CFF"/>
<path d="M75.9743 22.4357C74.8242 22.4357 73.7981 23.4709 73.7981 24.62C73.7981 25.7691 74.8242 26.8054 75.9743 26.8054C77.1244 26.8054 78.1505 25.7691 78.1505 24.62C78.1505 23.4709 77.1244 22.4357 75.9743 22.4357Z" fill="#3C7CFF"/>
</svg>
