<svg width="100" height="66" viewBox="0 0 100 66" fill="none" xmlns="http://www.w3.org/2000/svg">
<path d="M41.929 47.3672H38.7007V50.5955H41.929V47.3672Z" fill="#3C7CFF"/>
<path d="M48.3861 47.3672H45.1577V50.5955H48.3861V47.3672Z" fill="#3C7CFF"/>
<path d="M35.492 47.3672H32.2637V50.5955H35.492V47.3672Z" fill="#3C7CFF"/>
<path d="M95.1575 16.7373H80.6496V0.595581H0V55.4381H29.0354V61.8948H22.5787V65.1231H29.0354H51.6142H58.0709V61.8948H51.6142V55.4381H67.7362V57.0523C67.7362 59.7294 69.9016 61.8948 72.5787 61.8948H95.1575C97.8346 61.8948 100 59.7294 100 57.0523V21.5601C100 18.9027 97.8346 16.7373 95.1575 16.7373ZM77.4213 3.82393V16.7176H72.5787C69.9016 16.7176 67.7362 18.883 67.7362 21.5601V42.5247H3.22835V3.82393H77.4213ZM48.3858 61.8948H32.2638V55.4381H48.3858V61.8948ZM51.6142 52.2098H29.0354H3.22835V45.7531H67.7362V52.2098H51.6142ZM96.7717 57.0523C96.7717 57.9381 96.0433 58.6664 95.1575 58.6664H72.5787C71.6929 58.6664 70.9646 57.9381 70.9646 57.0523V21.5601C70.9646 20.6743 71.6929 19.946 72.5787 19.946H95.1575C96.0433 19.946 96.7717 20.6743 96.7717 21.5601V57.0523Z" fill="#3C7CFF"/>
<path d="M85.492 52.2097H82.2637V55.4381H85.492V52.2097Z" fill="#3C7CFF"/>
<path d="M30.6495 8.6665H8.0708V37.7019H30.6495V8.6665ZM27.4212 34.4736H11.2991V11.8948H27.4212V34.4736Z" fill="#3C7CFF"/>
<path d="M61.2993 8.6665H35.4922V11.8948H61.2993V8.6665Z" fill="#3C7CFF"/>
<path d="M61.2993 21.5602H35.4922V24.7885H61.2993V21.5602Z" fill="#3C7CFF"/>
<path d="M61.2993 34.4735H35.4922V37.7019H61.2993V34.4735Z" fill="#3C7CFF"/>
<path d="M75.8071 39.316H91.9292V23.194H75.8071V39.316ZM79.0355 26.4026H88.7205V36.0877H79.0355V26.4026Z" fill="#3C7CFF"/>
</svg>
