<svg width="100" height="100" viewBox="0 0 100 100" fill="none" xmlns="http://www.w3.org/2000/svg">
<path fill-rule="evenodd" clip-rule="evenodd" d="M4.79895 96.9672H95.194C95.6801 96.9672 96.1228 96.7676 96.4439 96.4464C96.7651 96.1252 96.9648 95.6825 96.9648 95.1964V93.4256H3.02764V95.1964C3.02764 95.6825 3.22729 96.1252 3.54845 96.4464C3.86961 96.7676 4.31286 96.9672 4.79895 96.9672ZM59.2111 90.4006V88.339H40.7874V90.4006H59.2111ZM88.0421 76.0345L89.5915 81.655C89.6522 81.8156 89.6826 81.9935 89.6826 82.1758C89.6826 83.0134 89.0055 83.6905 88.1679 83.6905L11.8256 83.6861V83.6818C11.652 83.6818 11.474 83.6514 11.3004 83.5863C10.5192 83.2955 10.1199 82.4275 10.4107 81.6463L12.5113 76.0345C12.6892 75.3922 13.2751 74.9235 13.9739 74.9235H86.5875V74.9278C87.2515 74.9278 87.8597 75.3662 88.0421 76.0345ZM86.1845 80.6568L85.438 77.9486L15.0154 77.9529L14.0042 80.6611H86.18L86.1845 80.6568ZM14.122 22.547V4.43559C14.122 3.21597 14.6211 2.10491 15.4241 1.30206C16.227 0.499135 17.3381 0 18.5576 0H81.4416C82.6612 0 83.7723 0.499112 84.5751 1.30206C85.378 2.105 85.8772 3.21609 85.8772 4.43559V22.6726C87.1879 23.2064 88.325 24.0528 89.193 25.1074C90.2954 26.4528 90.9551 28.1281 90.9551 29.9423V64.863C90.9551 66.9809 90.061 68.9123 88.6114 70.3402C89.6443 70.809 90.5036 71.5381 91.2458 72.4365C92.4307 73.8687 93.2596 75.7046 94.0452 77.5578L99.8218 91.1983C99.9346 91.411 99.9997 91.6541 99.9997 91.9145V95.1999C99.9997 96.5193 99.4616 97.7214 98.5892 98.5895C97.7212 99.4575 96.519 100 95.1996 100H4.80013C3.48074 100 2.27857 99.4618 1.4105 98.5895C0.542477 97.7215 0 96.5193 0 95.1999V91.9145C0 91.6671 0.0607617 91.4327 0.164926 91.2244L5.5987 77.5883C6.34953 75.7047 7.18718 73.8515 8.38502 72.4193C9.13152 71.5252 9.99951 70.8048 11.0368 70.3361C9.58719 68.9126 8.69745 66.9855 8.69745 64.8632V29.9424C8.69745 28.0545 9.40922 26.3141 10.594 24.947C11.5141 23.8837 12.7294 23.0461 14.1182 22.5469L14.122 22.547ZM49.9971 8.58986H77.5304C78.3681 8.58986 79.0451 7.9128 79.0451 7.07514C79.0451 6.2375 78.3681 5.56043 77.5304 5.56043H49.9971C49.1595 5.56043 48.4824 6.23749 48.4824 7.07514C48.4824 7.91279 49.1595 8.58986 49.9971 8.58986ZM23.8049 8.58986H26.1833C27.0209 8.58986 27.698 7.9128 27.698 7.07514C27.698 6.2375 27.0209 5.56043 26.1833 5.56043H23.8049C22.9673 5.56043 22.2902 6.23749 22.2902 7.07514C22.2902 7.91279 22.9673 8.58986 23.8049 8.58986ZM30.8055 8.58986H33.1839C34.0215 8.58986 34.6986 7.9128 34.6986 7.07514C34.6986 6.2375 34.0215 5.56043 33.1839 5.56043H30.8055C29.9679 5.56043 29.2908 6.23749 29.2908 7.07514C29.2908 7.91279 29.9679 8.58986 30.8055 8.58986ZM37.8061 8.58986H40.1844C41.0221 8.58986 41.6992 7.9128 41.6992 7.07514C41.6992 6.2375 41.0221 5.56043 40.1844 5.56043H37.8061C36.9685 5.56043 36.2914 6.23749 36.2914 7.07514C36.2914 7.91279 36.9684 8.58986 37.8061 8.58986ZM17.1559 11.1201H82.8475V4.43203C82.8475 4.04576 82.6869 3.69855 82.4352 3.4425C82.1791 3.18643 81.8276 3.03019 81.4457 3.03019H18.5572C18.171 3.03019 17.8238 3.19078 17.5677 3.4425C17.3116 3.69857 17.1554 4.05012 17.1554 4.43203L17.1559 11.1201ZM43.4348 57.3426V59.2132H56.8542V57.3209C56.711 57.3339 56.5677 57.3426 56.4202 57.3426H43.4307L43.4348 57.3426ZM59.8885 55.6109V57.0561H81.4409C81.8272 57.0561 82.1744 56.8955 82.4305 56.6438C82.6865 56.3878 82.8428 56.0362 82.8428 55.6543V14.1505H17.1511V55.651C17.1511 56.0372 17.3117 56.3844 17.5634 56.6405C17.8195 56.8966 18.171 57.0528 18.5529 57.0528H40.4009V56.1023C39.6935 55.4079 39.2204 54.466 39.1206 53.3984C38.7257 49.1061 37.1936 47.331 35.692 45.5993C33.6695 43.26 31.6947 40.9727 31.6947 34.6232C31.6947 29.5713 33.7433 24.9969 37.0547 21.6849C40.3662 18.3734 44.9407 16.3249 49.993 16.3249C55.0454 16.3249 59.6194 18.3735 62.9314 21.6849C66.2434 24.9963 68.2914 29.5709 68.2914 34.6232C68.2914 40.9727 66.3036 43.1732 64.2464 45.4431C62.7101 47.14 61.1346 48.8848 60.7397 53.3854C60.6659 54.2231 60.3578 54.9826 59.8804 55.6162L59.8885 55.6109ZM57.2627 54.0224C57.3061 53.9746 57.3539 53.9312 57.4059 53.8878C57.5882 53.6838 57.7054 53.4191 57.7358 53.1196C58.2219 47.6208 60.1489 45.4897 62.0238 43.4152C63.6731 41.5923 65.2746 39.8215 65.2746 34.6221C65.2746 30.4035 63.5646 26.5885 60.8043 23.8239C58.0397 21.0592 54.2247 19.3536 50.0061 19.3536C45.7875 19.3536 41.9726 21.0637 39.2079 23.8239C36.4433 26.5885 34.7377 30.4035 34.7377 34.6221C34.7377 39.8562 36.3435 41.7181 37.9884 43.6191C39.8026 45.7154 41.6515 47.8594 42.1376 53.124C42.168 53.4581 42.3242 53.7576 42.5586 53.9703C42.7886 54.183 43.1011 54.3088 43.4439 54.3088H56.4301C56.7512 54.3088 57.042 54.2003 57.2634 54.018L57.2627 54.0224ZM44.5677 62.2425C44.5764 62.7503 44.6892 63.1929 44.8758 63.5097C44.8932 63.5314 44.9106 63.5575 44.9279 63.5835C45.0234 63.7311 45.0972 63.8222 45.1232 63.8222H55.1836C55.2096 63.8222 55.2834 63.7311 55.3789 63.5835L55.3832 63.5879L55.3876 63.5835C55.5959 63.2624 55.7304 62.7893 55.7391 62.2425L44.5677 62.2425ZM58.7593 62.0515C59.0544 61.9039 59.3062 61.6739 59.5058 61.3788C59.7445 61.0272 59.8921 60.5672 59.8921 60.0942V60.0768H81.4445C82.6641 60.0768 83.7752 59.5777 84.578 58.7747C85.381 57.9718 85.8801 56.8607 85.8801 55.6412V26.0936C86.249 26.3583 86.5832 26.6665 86.8653 27.0137C87.5337 27.8253 87.9286 28.8365 87.9286 29.9346V64.8553C87.9286 66.179 87.3427 67.3898 86.3923 68.2709C85.4157 69.178 84.0616 69.7422 82.5643 69.7422H79.4654C78.6278 69.7422 77.9507 70.4193 77.9507 71.2569C77.9507 72.0945 78.6278 72.7716 79.4654 72.7716H85.7803C87.1431 72.7716 88.1283 73.4009 88.9181 74.3558C89.8599 75.4928 90.5761 77.0943 91.2662 78.7219L96.2095 90.3925H62.2487V86.8162C62.2487 85.9786 61.5717 85.3015 60.734 85.3015H39.2771C38.4395 85.3015 37.7624 85.9786 37.7624 86.8162V90.3925L3.74054 90.4012L8.40179 78.705C9.0528 77.0731 9.76028 75.4891 10.7064 74.365C11.5049 73.4145 12.5075 72.7895 13.879 72.7895H73.6942C74.5319 72.7895 75.2089 72.1125 75.2089 71.2748C75.2089 70.4372 74.5319 69.7601 73.6942 69.7601L17.0911 69.7514C15.5937 69.7514 14.2396 69.1872 13.2631 68.2801C12.317 67.3991 11.7268 66.1882 11.7268 64.8645V29.9438C11.7268 28.8067 12.1608 27.752 12.8769 26.923C13.2285 26.5194 13.6495 26.1635 14.1182 25.8727V55.6503C14.1182 56.87 14.6173 57.981 15.4203 58.7839C16.2232 59.5867 17.3343 60.0859 18.5538 60.0859H40.4018V60.1033C40.4018 60.5764 40.5493 61.0364 40.788 61.3879C40.9833 61.6787 41.2351 61.9087 41.5345 62.0606V62.1952C41.5345 63.2975 41.8297 64.3262 42.3157 65.1204C42.3374 65.1638 42.3635 65.2072 42.3895 65.2506C43.0405 66.2445 44.004 66.8607 45.1151 66.8607H55.1754C56.2908 66.8607 57.25 66.2444 57.901 65.2506L57.8966 65.2462C58.4261 64.439 58.756 63.354 58.756 62.1951V62.0606L58.7593 62.0515ZM45.3221 36.2537L42.5053 33.4369L45.3221 30.6202C45.9124 30.0299 45.9124 29.0708 45.3221 28.4761C44.7319 27.8859 43.7727 27.8859 43.1781 28.4761L39.2894 32.3649C38.6991 32.9551 38.6991 33.9142 39.2894 34.5089L43.1781 38.3976C43.7683 38.9879 44.7275 38.9879 45.3221 38.3976C45.9124 37.8074 45.9124 36.8483 45.3221 36.2537ZM50.6388 29.3139L46.7501 36.0497C46.3334 36.7702 46.5851 37.6946 47.3056 38.1113C48.026 38.5279 48.9505 38.2762 49.3672 37.5558L53.2559 30.8199C53.6725 30.0995 53.4208 29.175 52.7004 28.7584C51.9799 28.3417 51.0554 28.5934 50.6388 29.3139ZM56.8234 38.3934L60.7121 34.5047C61.3024 33.9144 61.3024 32.9553 60.7121 32.3606L56.8234 28.4719C56.2332 27.8817 55.274 27.8817 54.6794 28.4719C54.0891 29.0622 54.0891 30.0213 54.6794 30.6159L57.4962 33.4327L54.6794 36.2495C54.0891 36.8397 54.0891 37.7989 54.6794 38.3935C55.2696 38.9838 56.2288 38.9836 56.8234 38.3934Z" fill="#3C7CFF"/>
</svg>
