<svg width="115" height="101" viewBox="0 0 115 101" fill="none" xmlns="http://www.w3.org/2000/svg">
<path d="M10.214 23.8846L10.2139 23.8846L10.2155 23.8861L10.2581 23.9288L15.0791 28.7498L15.079 28.7498L15.0824 28.7529C15.4273 29.0678 15.8778 29.2484 16.3444 29.2484C16.8109 29.2484 17.2632 29.0678 17.5955 28.7355L27.2375 19.0936C27.9307 18.4003 27.9307 17.2847 27.2375 16.5914C26.5442 15.8982 25.4285 15.8982 24.7353 16.5914L16.3302 24.9966L12.761 21.4274C12.0822 20.7192 10.967 20.7052 10.2597 21.3825C9.55071 22.0613 9.53647 23.177 10.214 23.8846Z" fill="#3C7CFF" stroke="#3C7CFF" stroke-width="0.2"/>
<path d="M97.8604 52.1446C98.8346 52.1446 99.6243 51.3548 99.6243 50.3807C99.6243 49.4065 98.8346 48.6168 97.8604 48.6168C96.8863 48.6168 96.0965 49.4065 96.0965 50.3807C96.0965 51.3548 96.8863 52.1446 97.8604 52.1446Z" fill="#3C7CFF" stroke="#3C7CFF" stroke-width="0.2"/>
<path d="M104.672 59.2875V38.4952C97.7434 37.6608 92.2636 32.1954 91.443 25.2663H35.7625C34.9042 28.4925 33.484 31.549 31.5436 34.2686C28.6184 38.4351 24.4678 42.0145 19.5922 44.6377C19.0647 44.924 18.4458 44.9241 17.9184 44.6378C17.9183 44.6378 17.9183 44.6378 17.9182 44.6377L17.9659 44.5498C15.488 43.2199 13.1893 41.6143 11.0833 39.7739L104.672 59.2875ZM104.672 59.2875C102.643 57.516 100.029 56.5379 97.3202 56.5379H94.6466H94.6464C88.4622 56.5522 83.4398 61.5598 83.4398 67.7446V72.9569C81.7918 73.3778 80.3099 74.2747 79.1939 75.5419C79.0784 75.52 78.9627 75.5089 78.8468 75.5089H24.3123C23.4919 68.58 18.0263 63.1003 11.0833 62.2799V39.9065L104.672 59.2875ZM99.752 21.7386H36.4241C36.544 20.7332 36.6103 19.7151 36.6103 18.7099V10.3478C36.6103 9.51929 36.0379 8.79571 35.2237 8.61478L35.2235 8.61475C32.2026 7.94817 29.2672 6.89874 26.5308 5.4667L26.5306 5.4666C24.1346 4.219 21.9084 2.68768 19.8661 0.929133C19.2166 0.35558 18.2377 0.356896 17.5755 0.898672L17.5749 0.899192C15.972 2.2325 14.2558 3.43809 12.4547 4.4876C9.27766 6.33138 5.84546 7.70711 2.25734 8.5581C1.45679 8.7396 0.9 9.46381 0.9 10.2767V18.6957C0.9 24.1783 2.65622 29.5596 5.98096 34.2686C6.47393 34.9728 7.0081 35.6486 7.55552 36.3092V70.6031C7.55552 75.2516 11.3261 79.0367 15.9891 79.0367H77.3368C77.1594 79.7185 77.083 80.4225 77.083 81.1125V92.262C77.083 96.9105 80.8536 100.696 85.5166 100.696H106.422C111.07 100.696 114.855 96.925 114.855 92.262V81.1125V81.1122C114.841 77.267 112.243 73.9186 108.513 72.957V67.7446C108.513 66.3729 108.262 65.0291 107.774 63.7545C108.036 63.4435 108.186 63.0412 108.186 62.625V30.1722C108.186 25.5236 104.415 21.7386 99.752 21.7386ZM8.8609 32.2196L8.86065 32.2192C5.95663 28.1111 4.44198 23.4381 4.44198 18.6957V11.6472C7.86534 10.7068 11.1617 9.33081 14.2334 7.53311C15.7791 6.63378 17.2692 5.62381 18.69 4.53056C20.626 6.07861 22.7153 7.44483 24.9165 8.58774C27.5172 9.94464 30.2579 10.9932 33.0968 11.7335V18.6957C33.0968 23.4378 31.5681 28.1108 28.6781 32.2192C26.2229 35.6904 22.8106 38.7279 18.7762 41.05C14.7139 38.742 11.3019 35.7047 8.8609 32.2196ZM99.7378 25.2663C99.7379 25.2663 99.738 25.2663 99.7381 25.2663C102.441 25.2665 104.63 27.4542 104.644 30.1727V34.9482C99.6608 34.178 95.76 30.2639 94.9762 25.2802L99.7378 25.2663ZM15.9891 75.5089C15.989 75.5089 15.9889 75.5089 15.9889 75.5089C13.2853 75.5088 11.0833 73.3067 11.0833 70.6031V65.827C16.0661 66.5973 19.9669 70.5114 20.7507 75.495L15.9891 75.5089ZM104.985 67.7446V72.6931H86.9534V67.7446C86.9534 63.505 90.3928 60.0656 94.6324 60.0656H97.306C101.546 60.0656 104.985 63.505 104.985 67.7446ZM111.328 92.2762C111.328 94.9794 109.126 97.1681 106.421 97.182H85.5166C82.8134 97.182 80.6247 94.9802 80.6107 92.2757V81.1268C80.6107 78.4235 82.8126 76.2348 85.5171 76.2209H106.422C109.125 76.2209 111.314 78.4227 111.328 81.1273V92.2762Z" fill="#3C7CFF" stroke="#3C7CFF" stroke-width="0.2"/>
<path d="M95.9694 79.9033C93.8237 79.8747 92.0726 81.5973 92.0579 83.7426C92.0579 83.7427 92.0579 83.7427 92.0579 83.7428L92.1579 83.7435M95.9694 79.9033L94.2053 91.4798C94.2053 92.4594 94.9896 93.2437 95.9692 93.2437C96.9488 93.2437 97.7331 92.4594 97.7331 91.4798V87.2475M95.9694 79.9033C97.4723 79.8891 98.8586 80.75 99.501 82.1078L95.9694 79.9033ZM92.1579 83.7435C92.1437 85.2082 92.9827 86.5593 94.3053 87.185M92.1579 83.7435C92.1721 81.6529 93.8787 79.9748 95.9692 80.0033C97.434 79.9891 98.785 80.8281 99.4107 82.1507M92.1579 83.7435L99.4107 82.1507M94.3053 87.185H94.2053V87.2477C94.2243 87.2571 94.2434 87.2663 94.2625 87.2754L94.3053 87.185ZM94.3053 87.185V91.4798C94.3053 92.4042 95.0448 93.1437 95.9692 93.1437C96.8936 93.1437 97.6331 92.4042 97.6331 91.4798V87.185M97.6331 87.185L97.6761 87.2752C97.6952 87.2661 97.7142 87.2569 97.7331 87.2475M97.6331 87.185C99.5103 86.2891 100.307 84.0279 99.4107 82.1507M97.6331 87.185H97.7331V87.2475M97.7331 87.2475L99.4107 82.1507" fill="#3C7CFF" stroke="#3C7CFF" stroke-width="0.2"/>
<path d="M35.5431 50.3806C35.5431 38.0667 45.5427 28.0671 57.8707 28.0671C57.8707 28.0671 57.8708 28.0671 57.8708 28.0671V28.1671L35.5431 50.3806ZM35.5431 50.3806C35.5431 62.7087 45.5426 72.7083 57.8566 72.7083M35.5431 50.3806L57.8566 72.7083M57.8566 72.7083C70.1847 72.7083 80.1843 62.7087 80.1843 50.3948M57.8566 72.7083L80.1843 50.3948M80.1843 50.3948C80.1843 44.4808 77.8274 38.7954 73.642 34.6099L80.1843 50.3948ZM71.1541 63.6633L71.1538 63.6636C63.812 71.0054 51.9154 71.0053 44.5879 63.6636C37.2601 56.3218 37.2462 44.425 44.5877 37.0976C51.9296 29.7699 63.8263 29.756 71.1537 37.0975L71.1538 37.0976C74.6761 40.6199 76.6566 45.4012 76.6566 50.3806L76.6566 50.3809C76.6707 55.3743 74.6903 60.1553 71.1541 63.6633Z" fill="#3C7CFF" stroke="#3C7CFF" stroke-width="0.2"/>
<path d="M66.6595 40.3405C66.6168 39.4019 65.8773 38.6624 64.953 38.6624M66.6595 40.3405V40.3547C66.6595 41.2791 65.9058 42.0186 64.9814 42.0043H62.0945C62.6491 42.8149 63.0331 43.7109 63.2464 44.6637H64.9814C65.9058 44.6637 66.6453 45.4032 66.6453 46.3276C66.6453 47.252 65.9058 47.9915 64.9814 47.9915H63.2464C62.45 51.4614 59.364 53.9217 55.7945 53.9359M66.6595 40.3405L66.7594 40.3359L66.7596 40.3405H66.6595ZM64.953 38.6624L49.1959 52.0445C49.1959 52.0729 49.1959 52.1014 49.1816 52.1298C49.1722 52.1488 49.1753 52.1678 49.1785 52.1867C49.1801 52.1962 49.1816 52.2057 49.1816 52.2152V52.272V52.2863V52.3858V52.4569L49.1959 52.5422V52.5423C49.1959 52.5707 49.1959 52.5991 49.2101 52.6276C49.2243 52.656 49.2243 52.6702 49.2243 52.6845C49.2243 52.6987 49.2385 52.7556 49.2527 52.784C49.2527 52.7899 49.2552 52.7958 49.258 52.8027C49.2621 52.8124 49.267 52.8242 49.267 52.8409M64.953 38.6624V38.5624H50.7886C49.809 38.5624 49.0248 39.3466 49.0248 40.3262C49.0248 41.3058 49.809 42.0901 50.7886 42.0901H55.7376C57.3955 42.0901 58.8833 43.0578 59.5668 44.5495M64.953 38.6624L59.5668 44.5495M55.7945 53.9359H54.9555L62.706 61.4305M55.7945 53.9359L55.7949 54.0359L55.7945 54.0359V53.9359ZM62.706 61.4305L62.7202 61.4447C63.3744 62.0989 63.3886 63.1513 62.7487 63.8054M62.706 61.4305L62.7755 61.3586L62.7767 61.3598L62.706 61.4305ZM62.7487 63.8054C62.0945 64.4596 61.0421 64.4738 60.3879 63.8339L49.6794 53.4666M62.7487 63.8054L62.8202 63.8754L62.8194 63.8762L62.7487 63.8054ZM49.6794 53.4666L49.6083 53.3955M49.6794 53.4666L49.6098 53.5385L49.6087 53.5373L49.6794 53.4666ZM49.6083 53.3955L49.5656 53.3528M49.6083 53.3955L49.5376 53.4662L49.5376 53.4662L49.6083 53.3955ZM49.5656 53.3528L49.5087 53.2817C49.5016 53.2746 49.4945 53.264 49.4874 53.2533C49.4803 53.2426 49.4732 53.232 49.4661 53.2249M49.5656 53.3528L49.4949 53.4236L49.487 53.4157L49.5656 53.3528ZM49.4661 53.2249C49.459 53.2106 49.4518 53.2 49.4447 53.1893C49.4376 53.1786 49.4305 53.168 49.4234 53.1538C49.4163 53.1395 49.4092 53.1289 49.4021 53.1182C49.395 53.1075 49.3878 53.0969 49.3807 53.0826C49.3736 53.0684 49.3701 53.0578 49.3665 53.0471C49.363 53.0364 49.3594 53.0258 49.3523 53.0115C49.3381 52.9973 49.3239 52.9689 49.3096 52.9405L49.3096 52.9404C49.3025 52.9262 49.2954 52.9084 49.2883 52.8907C49.2812 52.8729 49.2741 52.8551 49.267 52.8409M49.4661 53.2249L49.3954 53.2956L49.3839 53.2841L49.3766 53.2696L49.4661 53.2249ZM49.267 52.8409L49.1775 52.8856L49.167 52.8645V52.8409H49.267ZM59.5668 44.5495H50.7886C49.809 44.5495 49.0248 45.3338 49.0248 46.3134C49.0248 47.293 49.809 48.0772 50.7886 48.0772H59.5667C58.8826 49.5687 57.3818 50.5366 55.7376 50.5366H50.7744H50.6891H50.618H50.6081L50.5984 50.5385L50.5288 50.5525L50.4451 50.5664L50.4374 50.5677L50.4299 50.5702L50.3909 50.5832L50.2928 50.6077H50.2909H50.2747L50.2593 50.6128L50.1313 50.6555L50.1245 50.6578L50.1182 50.6609L50.0639 50.6881L49.9671 50.7296L49.9667 50.7287L49.955 50.7357L49.8839 50.7784L49.8839 50.7784L49.8128 50.8211L49.8125 50.8206L49.8043 50.8268L49.7531 50.8652C49.7289 50.8792 49.7116 50.8966 49.7028 50.9055C49.7022 50.9061 49.7016 50.9067 49.7011 50.9072C49.694 50.9143 49.6911 50.9169 49.6904 50.9175C49.6776 50.924 49.6659 50.9315 49.6552 50.9405C49.644 50.95 49.6358 50.9595 49.6296 50.9677C49.6267 50.9715 49.6244 50.975 49.6228 50.9773L49.6206 50.9806L49.5518 51.0494L49.5091 51.0921L49.5087 51.0916L49.5017 51.1003L49.4449 51.1714L49.4448 51.1714L49.443 51.1739L49.4003 51.2308L49.3999 51.2305L49.3945 51.2393L49.3519 51.3104L49.3516 51.3103L49.3482 51.3172C49.3441 51.3252 49.3402 51.3313 49.3331 51.342L49.3325 51.3428C49.3254 51.3534 49.3154 51.3684 49.3055 51.3883C49.3015 51.3963 49.2975 51.4024 49.2904 51.4131L49.2899 51.4139C49.2828 51.4245 49.2728 51.4395 49.2629 51.4594C49.2588 51.4674 49.2549 51.4735 49.2478 51.4842L49.2472 51.485C49.2401 51.4956 49.2301 51.5106 49.2202 51.5305C49.2181 51.5347 49.2158 51.5387 49.2126 51.5443L49.2117 51.5458C49.2089 51.5507 49.2045 51.5582 49.2006 51.566C49.1932 51.5809 49.1863 51.5988 49.1831 51.6204C49.1781 51.6323 49.1748 51.642 49.1723 51.6496L49.1721 51.6502C49.1688 51.6602 49.167 51.6652 49.1633 51.6727C49.1512 51.6969 49.1454 51.7204 49.142 51.7338L49.1415 51.7358C49.1377 51.7512 49.1363 51.755 49.1349 51.758L49.1243 51.7791V51.8027C49.1243 51.8026 49.1243 51.8026 49.1243 51.8026C49.1243 51.8026 49.124 51.8058 49.121 51.8162C49.1208 51.817 49.1205 51.8182 49.12 51.8196C49.1187 51.824 49.1168 51.8306 49.1155 51.8355C49.1143 51.8401 49.1118 51.8501 49.1106 51.8623L49.0972 51.9427L49.0959 51.9509V51.9592V51.9593V51.9595V51.9597V51.9598V51.96V51.9602V51.9603V51.9605V51.9607V51.9608V51.961V51.9612V51.9613V51.9615V51.9617V51.9618V51.962V51.9622V51.9623V51.9625V51.9627V51.9628V51.963V51.9632V51.9633V51.9635V51.9637V51.9638V51.964V51.9642V51.9643V51.9645V51.9647V51.9648V51.965V51.9652V51.9653V51.9655V51.9657V51.9658V51.966V51.9662V51.9663V51.9665V51.9667V51.9668V51.967V51.9672V51.9673V51.9675V51.9677V51.9678V51.968V51.9682V51.9683V51.9685V51.9687V51.9688V51.969V51.9692V51.9693V51.9695V51.9697V51.9698V51.97V51.9702V51.9703V51.9705V51.9707V51.9708V51.971V51.9712V51.9713V51.9715V51.9717V51.9718V51.972V51.9722V51.9723V51.9725V51.9727V51.9728V51.973V51.9732V51.9733V51.9735V51.9737V51.9738V51.974V51.9742V51.9743V51.9745V51.9747V51.9748V51.975V51.9752V51.9753V51.9755V51.9757V51.9758V51.976V51.9762V51.9763V51.9765V51.9767V51.9768V51.977V51.9772V51.9773V51.9775V51.9777V51.9778V51.978V51.9782V51.9783V51.9785V51.9787V51.9788V51.979V51.9792V51.9793V51.9795V51.9797V51.9798V51.98V51.9802V51.9803V51.9805V51.9807V51.9808V51.981V51.9812V51.9813V51.9815V51.9817V51.9818V51.982V51.9822V51.9823V51.9825V51.9827V51.9828V51.983V51.9832V51.9833V51.9835V51.9837V51.9838V51.984V51.9842V51.9843V51.9845V51.9847V51.9848V51.985V51.9852V51.9853V51.9855V51.9857V51.9858V51.986V51.9862V51.9863V51.9865V51.9867V51.9868V51.987V51.9872V51.9873V51.9875V51.9877V51.9878V51.988V51.9882V51.9883V51.9885V51.9887V51.9888V51.989V51.9892V51.9893V51.9895V51.9897V51.9898V51.99V51.9902V51.9903V51.9905V51.9907V51.9908V51.991V51.9912V51.9913V51.9915V51.9917V51.9918V51.992V51.9922V51.9923V51.9925V51.9927V51.9928V51.993V51.9932V51.9933V51.9935V51.9937V51.9938V51.994V51.9942V51.9943V51.9945V51.9947V51.9948V51.995V51.9952V51.9953V51.9955V51.9957V51.9958V51.996V51.9962V51.9963V51.9965V51.9967V51.9968V51.997V51.9972V51.9973V51.9975V51.9977V51.9978V51.998V51.9982V51.9983V51.9985V51.9987V51.9988V51.999V51.9992V51.9993V51.9995V51.9997V51.9998V52V52.0002V52.0003V52.0005V52.0007V52.0008V52.001V52.0012V52.0013V52.0015V52.0017V52.0018V52.002V52.0022V52.0023V52.0025V52.0027V52.0028V52.003V52.0032V52.0033V52.0035V52.0037V52.0038V52.004V52.0042V52.0043V52.0045V52.0047V52.0048V52.005V52.0052V52.0053V52.0055V52.0057V52.0058V52.006V52.0062V52.0063V52.0065V52.0067V52.0068V52.007V52.0072V52.0073V52.0075V52.0077V52.0078V52.008V52.0082V52.0083V52.0085V52.0087V52.0088V52.009V52.0092V52.0093V52.0095V52.0097V52.0098V52.01V52.0102V52.0103V52.0105V52.0107V52.0108V52.011V52.0112V52.0113V52.0115V52.0117V52.0118V52.012V52.0122V52.0123V52.0125V52.0127V52.0128V52.013V52.0132V52.0133V52.0135V52.0137V52.0138V52.014V52.0142V52.0143V52.0145V52.0147V52.0148V52.015V52.0152V52.0153V52.0155V52.0157V52.0158V52.016V52.0162V52.0163V52.0165V52.0167V52.0168V52.017V52.0172V52.0173V52.0175V52.0177V52.0178V52.018V52.0182V52.0183V52.0185V52.0187V52.0188V52.019V52.0192V52.0193V52.0195V52.0197V52.0198V52.02V52.0202V52.0203V52.0205V52.0207V52.0208V52.021V52.0212V52.0213V52.0215V52.0217V52.0218V52.022V52.0222V52.0223V52.0225V52.0227V52.0228V52.023V52.0232V52.0233V52.0235V52.0237V52.0238V52.024V52.0242V52.0243V52.0245V52.0247V52.0248V52.025V52.0252V52.0253V52.0255V52.0257V52.0258V52.026V52.0262V52.0263V52.0265V52.0267V52.0268V52.027V52.0272V52.0273V52.0275V52.0277V52.0278V52.028V52.0282V52.0283V52.0285V52.0287V52.0288V52.029V52.0292V52.0293V52.0295V52.0297V52.0298V52.03V52.0302V52.0303V52.0305V52.0307V52.0308V52.031V52.0312V52.0313V52.0315V52.0317V52.0318V52.032V52.0322V52.0323V52.0325V52.0327V52.0328V52.033V52.0332V52.0333V52.0335V52.0337V52.0338V52.034V52.0342V52.0343V52.0345V52.0347V52.0348V52.035V52.0352V52.0353V52.0355V52.0357V52.0358V52.036V52.0362V52.0363V52.0365V52.0367V52.0368V52.037V52.0372V52.0373V52.0375V52.0377V52.0378V52.038V52.0382V52.0383V52.0385V52.0387V52.0388V52.039V52.0392V52.0393V52.0395V52.0397V52.0398V52.04V52.0402V52.0403V52.0405V52.0407V52.0408V52.041V52.0412V52.0413V52.0415V52.0417V52.0418V52.042V52.0422V52.0423V52.0425V52.0427V52.0428V52.043V52.0432V52.0433V52.0435V52.0437V52.0438V52.044V52.0442V52.0443V52.0445C49.0959 52.0755 49.0944 52.0807 49.0922 52.0851C49.0721 52.1253 49.0743 52.1629 49.0771 52.1849C49.0779 52.1918 49.0795 52.2011 49.0803 52.2061C49.0806 52.2076 49.0807 52.2086 49.0808 52.2093C49.0815 52.2136 49.0816 52.2152 49.0816 52.2154V52.2155V52.2157V52.2158V52.216V52.2161V52.2163V52.2165V52.2166V52.2168V52.217V52.2171V52.2173V52.2175V52.2176V52.2178V52.2179V52.2181V52.2183V52.2184V52.2186V52.2187V52.2189V52.2191V52.2192V52.2194V52.2195V52.2197V52.2199V52.22V52.2202V52.2203V52.2205V52.2206V52.2208V52.2209V52.2211V52.2213V52.2214V52.2216V52.2217V52.2219V52.222V52.2222V52.2223V52.2225V52.2226V52.2228V52.2229V52.2231V52.2232V52.2234V52.2235V52.2237V52.2238V52.224V52.2241V52.2243V52.2244V52.2246V52.2247V52.2249V52.225V52.2252V52.2253V52.2255V52.2256V52.2258V52.2259V52.2261V52.2262V52.2264V52.2265V52.2266V52.2268V52.2269V52.2271V52.2272V52.2274V52.2275V52.2276V52.2278V52.2279V52.2281V52.2282V52.2284V52.2285V52.2286V52.2288V52.2289V52.2291V52.2292V52.2293V52.2295V52.2296V52.2297V52.2299V52.23V52.2302V52.2303V52.2304V52.2306V52.2307V52.2308V52.231V52.2311V52.2313V52.2314V52.2315V52.2317V52.2318V52.2319V52.2321V52.2322V52.2323V52.2325V52.2326V52.2327V52.2329V52.233V52.2331V52.2333V52.2334V52.2335V52.2337V52.2338V52.2339V52.234V52.2342V52.2343V52.2344V52.2346V52.2347V52.2348V52.2349V52.2351V52.2352V52.2353V52.2355V52.2356V52.2357V52.2358V52.236V52.2361V52.2362V52.2363V52.2365V52.2366V52.2367V52.2368V52.237V52.2371V52.2372V52.2373V52.2375V52.2376V52.2377V52.2378V52.238V52.2381V52.2382V52.2383V52.2385V52.2386V52.2387V52.2388V52.2389V52.2391V52.2392V52.2393V52.2394V52.2395V52.2397V52.2398V52.2399V52.24V52.2401V52.2403V52.2404V52.2405V52.2406V52.2407V52.2409V52.241V52.2411V52.2412V52.2413V52.2414V52.2416V52.2417V52.2418V52.2419V52.242V52.2421V52.2423V52.2424V52.2425V52.2426V52.2427V52.2428V52.2429V52.2431V52.2432V52.2433V52.2434V52.2435V52.2436V52.2437V52.2438V52.244V52.2441V52.2442V52.2443V52.2444V52.2445V52.2446V52.2447V52.2449V52.245V52.2451V52.2452V52.2453V52.2454V52.2455V52.2456V52.2457V52.2458V52.2459V52.2461V52.2462V52.2463V52.2464V52.2465V52.2466V52.2467V52.2468V52.2469V52.247V52.2471V52.2472V52.2474V52.2475V52.2476V52.2477V52.2478V52.2479V52.248V52.2481V52.2482V52.2483V52.2484V52.2485V52.2486V52.2487V52.2488V52.2489V52.249V52.2491V52.2492V52.2493V52.2494V52.2496V52.2497V52.2498V52.2499V52.25V52.2501V52.2502V52.2503V52.2504V52.2505V52.2506V52.2507V52.2508V52.2509V52.251V52.2511V52.2512V52.2513V52.2514V52.2515V52.2516V52.2517V52.2518V52.2519V52.252V52.2521V52.2522V52.2523V52.2524V52.2525V52.2526V52.2527V52.2528V52.2529V52.253V52.2531V52.2532V52.2533V52.2534V52.2535V52.2536V52.2537V52.2538V52.2539V52.2539V52.254V52.2541V52.2542V52.2543V52.2544V52.2545V52.2546V52.2547V52.2548V52.2549V52.255V52.2551V52.2552V52.2553V52.2554V52.2555V52.2556V52.2557V52.2558V52.2559V52.256V52.256V52.2561V52.2562V52.2563V52.2564V52.2565V52.2566V52.2567V52.2568V52.2569V52.257V52.2571V52.2572V52.2573V52.2574V52.2574V52.2575V52.2576V52.2577V52.2578V52.2579V52.258V52.2581V52.2582V52.2583V52.2584V52.2585V52.2585V52.2586V52.2587V52.2588V52.2589V52.259V52.2591V52.2592V52.2593V52.2594V52.2595V52.2595V52.2596V52.2597V52.2598V52.2599V52.26V52.2601V52.2602V52.2603V52.2604V52.2604V52.2605V52.2606V52.2607V52.2608V52.2609V52.261V52.2611V52.2612V52.2612V52.2613V52.2614V52.2615V52.2616V52.2617V52.2618V52.2619V52.2619V52.262V52.2621V52.2622V52.2623V52.2624V52.2625V52.2626V52.2626V52.2627V52.2628V52.2629V52.263V52.2631V52.2632V52.2633V52.2633V52.2634V52.2635V52.2636V52.2637V52.2638V52.2639V52.2639V52.264V52.2641V52.2642V52.2643V52.2644V52.2645V52.2646V52.2646V52.2647V52.2648V52.2649V52.265V52.2651V52.2652V52.2652V52.2653V52.2654V52.2655V52.2656V52.2657V52.2657V52.2658V52.2659V52.266V52.2661V52.2662V52.2663V52.2663V52.2664V52.2665V52.2666V52.2667V52.2668V52.2668V52.2669V52.267V52.2671V52.2672V52.2673V52.2674V52.2674V52.2675V52.2676V52.2677V52.2678V52.2679V52.2679V52.268V52.2681V52.2682V52.2683V52.2684V52.2684V52.2685V52.2686V52.2687V52.2688V52.2689V52.269V52.269V52.2691V52.2692V52.2693V52.2694V52.2695V52.2695V52.2696V52.2697V52.2698V52.2699V52.27V52.27V52.2701V52.2702V52.2703V52.2704V52.2705V52.2705V52.2706V52.2707V52.2708V52.2709V52.271V52.271V52.2711V52.2712V52.2713V52.2714V52.2715V52.2715V52.2716V52.2717V52.2718V52.2719V52.272V52.272V52.2863V52.2864V52.2866V52.2868V52.2869V52.2871V52.2873V52.2874V52.2876V52.2878V52.2879V52.2881V52.2883V52.2884V52.2886V52.2888V52.2889V52.2891V52.2893V52.2894V52.2896V52.2898V52.2899V52.2901V52.2903V52.2904V52.2906V52.2908V52.2909V52.2911V52.2913V52.2914V52.2916V52.2918V52.2919V52.2921V52.2923V52.2924V52.2926V52.2928V52.2929V52.2931V52.2933V52.2934V52.2936V52.2938V52.2939V52.2941V52.2943V52.2944V52.2946V52.2948V52.2949V52.2951V52.2953V52.2954V52.2956V52.2958V52.2959V52.2961V52.2963V52.2964V52.2966V52.2968V52.297V52.2971V52.2973V52.2975V52.2976V52.2978V52.298V52.2981V52.2983V52.2985V52.2986V52.2988V52.299V52.2991V52.2993V52.2995V52.2996V52.2998V52.3V52.3002V52.3003V52.3005V52.3007V52.3008V52.301V52.3012V52.3013V52.3015V52.3017V52.3018V52.302V52.3022V52.3024V52.3025V52.3027V52.3029V52.303V52.3032V52.3034V52.3035V52.3037V52.3039V52.3041V52.3042V52.3044V52.3046V52.3047V52.3049V52.3051V52.3052V52.3054V52.3056V52.3058V52.3059V52.3061V52.3063V52.3064V52.3066V52.3068V52.307V52.3071V52.3073V52.3075V52.3076V52.3078V52.308V52.3082V52.3083V52.3085V52.3087V52.3088V52.309V52.3092V52.3094V52.3095V52.3097V52.3099V52.3101V52.3102V52.3104V52.3106V52.3107V52.3109V52.3111V52.3113V52.3114V52.3116V52.3118V52.312V52.3121V52.3123V52.3125V52.3127V52.3128V52.313V52.3132V52.3134V52.3135V52.3137V52.3139V52.3141V52.3142V52.3144V52.3146V52.3148V52.3149V52.3151V52.3153V52.3155V52.3156V52.3158V52.316V52.3162V52.3163V52.3165V52.3167V52.3169V52.3171V52.3172V52.3174V52.3176V52.3178V52.3179V52.3181V52.3183V52.3185V52.3187V52.3188V52.319V52.3192V52.3194V52.3195V52.3197V52.3199V52.3201V52.3203V52.3204V52.3206V52.3208V52.321V52.3212V52.3213V52.3215V52.3217V52.3219V52.3221V52.3222V52.3224V52.3226V52.3228V52.323V52.3231V52.3233V52.3235V52.3237V52.3239V52.3241V52.3242V52.3244V52.3246V52.3248V52.325V52.3251V52.3253V52.3255V52.3257V52.3259V52.3261V52.3262V52.3264V52.3266V52.3268V52.327V52.3272V52.3274V52.3275V52.3277V52.3279V52.3281V52.3283V52.3285V52.3286V52.3288V52.329V52.3292V52.3294V52.3296V52.3298V52.33V52.3301V52.3303V52.3305V52.3307V52.3309V52.3311V52.3313V52.3315V52.3316V52.3318V52.332V52.3322V52.3324V52.3326V52.3328V52.333V52.3332V52.3333V52.3335V52.3337V52.3339V52.3341V52.3343V52.3345V52.3347V52.3349V52.3351V52.3352V52.3354V52.3356V52.3358V52.336V52.3362V52.3364V52.3366V52.3368V52.337V52.3372V52.3374V52.3376V52.3378V52.3379V52.3381V52.3383V52.3385V52.3387V52.3389V52.3391V52.3393V52.3395V52.3397V52.3399V52.3401V52.3403V52.3405V52.3407V52.3409V52.3411V52.3413V52.3415V52.3417V52.3419V52.3421V52.3423V52.3425V52.3427V52.3429V52.3431V52.3433V52.3435V52.3437V52.3439V52.3441V52.3443V52.3445V52.3447V52.3449V52.3451V52.3453V52.3455V52.3457V52.3459V52.3461V52.3463V52.3465V52.3467V52.3469V52.3471V52.3473V52.3475V52.3477V52.3479V52.3481V52.3483V52.3485V52.3487V52.3489V52.3491V52.3493V52.3495V52.3497V52.35V52.3502V52.3504V52.3506V52.3508V52.351V52.3512V52.3514V52.3516V52.3518V52.352V52.3522V52.3525V52.3527V52.3529V52.3531V52.3533V52.3535V52.3537V52.3539V52.3541V52.3543V52.3546V52.3548V52.355V52.3552V52.3554V52.3556V52.3558V52.356V52.3563V52.3565V52.3567V52.3569V52.3571V52.3573V52.3575V52.3578V52.358V52.3582V52.3584V52.3586V52.3588V52.3591V52.3593V52.3595V52.3597V52.3599V52.3601V52.3604V52.3606V52.3608V52.361V52.3612V52.3615V52.3617V52.3619V52.3621V52.3623V52.3626V52.3628V52.363V52.3632V52.3634V52.3637V52.3639V52.3641V52.3643V52.3646V52.3648V52.365V52.3652V52.3654V52.3657V52.3659V52.3661V52.3663V52.3666V52.3668V52.367V52.3672V52.3675V52.3677V52.3679V52.3682V52.3684V52.3686V52.3688V52.3691V52.3693V52.3695V52.3698V52.37V52.3702V52.3704V52.3707V52.3709V52.3711V52.3714V52.3716V52.3718V52.3721V52.3723V52.3725V52.3728V52.373V52.3732V52.3735V52.3737V52.3739V52.3742V52.3744V52.3746V52.3749V52.3751V52.3754V52.3756V52.3758V52.3761V52.3763V52.3765V52.3768V52.377V52.3773V52.3775V52.3777V52.378V52.3782V52.3785V52.3787V52.3789V52.3792V52.3794V52.3797V52.3799V52.3801V52.3804V52.3806V52.3809V52.3811V52.3814V52.3816V52.3818V52.3821V52.3823V52.3826V52.3828V52.3831V52.3833V52.3836V52.3838V52.3841V52.3843V52.3846V52.3848V52.3851V52.3853V52.3856V52.3858V52.386V52.3861V52.3863V52.3865V52.3866V52.3868V52.387V52.3871V52.3873V52.3875V52.3876V52.3878V52.3879V52.3881V52.3883V52.3884V52.3886V52.3888V52.3889V52.3891V52.3892V52.3894V52.3896V52.3897V52.3899V52.39V52.3902V52.3904V52.3905V52.3907V52.3908V52.391V52.3911V52.3913V52.3915V52.3916V52.3918V52.3919V52.3921V52.3922V52.3924V52.3925V52.3927V52.3928V52.393V52.3932V52.3933V52.3935V52.3936V52.3938V52.3939V52.3941V52.3942V52.3944V52.3945V52.3947V52.3948V52.395V52.3951V52.3953V52.3954V52.3956V52.3957V52.3959V52.396V52.3962V52.3963V52.3965V52.3966V52.3967V52.3969V52.397V52.3972V52.3973V52.3975V52.3976V52.3978V52.3979V52.3981V52.3982V52.3984V52.3985V52.3986V52.3988V52.3989V52.3991V52.3992V52.3994V52.3995V52.3996V52.3998V52.3999V52.4001V52.4002V52.4004V52.4005V52.4006V52.4008V52.4009V52.4011V52.4012V52.4013V52.4015V52.4016V52.4018V52.4019V52.402V52.4022V52.4023V52.4025V52.4026V52.4027V52.4029V52.403V52.4031V52.4033V52.4034V52.4036V52.4037V52.4038V52.404V52.4041V52.4042V52.4044V52.4045V52.4046V52.4048V52.4049V52.4051V52.4052V52.4053V52.4055V52.4056V52.4057V52.4059V52.406V52.4061V52.4063V52.4064V52.4065V52.4067V52.4068V52.4069V52.4071V52.4072V52.4073V52.4075V52.4076V52.4077V52.4079V52.408V52.4081V52.4083V52.4084V52.4085V52.4087V52.4088V52.4089V52.409V52.4092V52.4093V52.4094V52.4096V52.4097V52.4098V52.41V52.4101V52.4102V52.4103V52.4105V52.4106V52.4107V52.4109V52.411V52.4111V52.4113V52.4114V52.4115V52.4116V52.4118V52.4119V52.412V52.4122V52.4123V52.4124V52.4125V52.4127V52.4128V52.4129V52.4131V52.4132V52.4133V52.4134V52.4136V52.4137V52.4138V52.4139V52.4141V52.4142V52.4143V52.4145V52.4146V52.4147V52.4148V52.415V52.4151V52.4152V52.4153V52.4155V52.4156V52.4157V52.4158V52.416V52.4161V52.4162V52.4163V52.4165V52.4166V52.4167V52.4169V52.417V52.4171V52.4172V52.4174V52.4175V52.4176V52.4177V52.4179V52.418V52.4181V52.4182V52.4184V52.4185V52.4186V52.4187V52.4189V52.419V52.4191V52.4192V52.4194V52.4195V52.4196V52.4197V52.4199V52.42V52.4201V52.4202V52.4204V52.4205V52.4206V52.4207V52.4209V52.421V52.4211V52.4212V52.4214V52.4215V52.4216V52.4217V52.4219V52.422V52.4221V52.4222V52.4224V52.4225V52.4226V52.4227V52.4229V52.423V52.4231V52.4232V52.4234V52.4235V52.4236V52.4237V52.4239V52.424V52.4241V52.4242V52.4244V52.4245V52.4246V52.4247V52.4249V52.425V52.4251V52.4252V52.4254V52.4255V52.4256V52.4257V52.4259V52.426V52.4261V52.4263V52.4264V52.4265V52.4266V52.4268V52.4269V52.427V52.4271V52.4273V52.4274V52.4275V52.4276V52.4278V52.4279V52.428V52.4281V52.4283V52.4284V52.4285V52.4287V52.4288V52.4289V52.429V52.4292V52.4293V52.4294V52.4295V52.4297V52.4298V52.4299V52.4301V52.4302V52.4303V52.4304V52.4306V52.4307V52.4308V52.431V52.4311V52.4312V52.4313V52.4315V52.4316V52.4317V52.4319V52.432V52.4321V52.4322V52.4324V52.4325V52.4326V52.4328V52.4329V52.433V52.4332V52.4333V52.4334V52.4336V52.4337V52.4338V52.4339V52.4341V52.4342V52.4343V52.4345V52.4346V52.4347V52.4349V52.435V52.4351V52.4353V52.4354V52.4355V52.4357V52.4358V52.4359V52.4361V52.4362V52.4363V52.4365V52.4366V52.4367V52.4369V52.437V52.4371V52.4373V52.4374V52.4375V52.4377V52.4378V52.4379V52.4381V52.4382V52.4384V52.4385V52.4386V52.4388V52.4389V52.439V52.4392V52.4393V52.4394V52.4396V52.4397V52.4399V52.44V52.4401V52.4403V52.4404V52.4406V52.4407V52.4408V52.441V52.4411V52.4412V52.4414V52.4415V52.4417V52.4418V52.4419V52.4421V52.4422V52.4424V52.4425V52.4427V52.4428V52.4429V52.4431V52.4432V52.4434V52.4435V52.4437V52.4438V52.4439V52.4441V52.4442V52.4444V52.4445V52.4447V52.4448V52.445V52.4451V52.4452V52.4454V52.4455V52.4457V52.4458V52.446V52.4461V52.4463V52.4464V52.4466V52.4467V52.4469V52.447V52.4472V52.4473V52.4475V52.4476V52.4478V52.4479V52.4481V52.4482V52.4484V52.4485V52.4487V52.4488V52.449V52.4491V52.4493V52.4494V52.4496V52.4497V52.4499V52.45V52.4502V52.4503V52.4505V52.4507V52.4508V52.451V52.4511V52.4513V52.4514V52.4516V52.4517V52.4519V52.4521V52.4522V52.4524V52.4525V52.4527V52.4529V52.453V52.4532V52.4533V52.4535V52.4536V52.4538V52.454V52.4541V52.4543V52.4545V52.4546V52.4548V52.4549V52.4551V52.4553V52.4554V52.4556V52.4558V52.4559V52.4561V52.4563V52.4564V52.4566V52.4568V52.4569V52.4652L49.083 52.4734L59.5668 44.5495Z" fill="#3C7CFF" stroke="#3C7CFF" stroke-width="0.2"/>
<path d="M17.8804 52.1446C18.8546 52.1446 19.6443 51.3548 19.6443 50.3807C19.6443 49.4065 18.8546 48.6168 17.8804 48.6168C16.9063 48.6168 16.1166 49.4065 16.1166 50.3807C16.1166 51.3548 16.9063 52.1446 17.8804 52.1446Z" fill="#3C7CFF" stroke="#3C7CFF" stroke-width="0.2"/>
</svg>
