<svg width="100" height="94" viewBox="0 0 100 94" fill="none" xmlns="http://www.w3.org/2000/svg">
<path d="M65 60H63.3333V53.3333C63.3333 45.9833 57.35 40 50 40C42.65 40 36.6666 45.9833 36.6666 53.3333V60H35C30.4 60 26.6666 63.7333 26.6666 68.3333V85C26.6666 89.6 30.4 93.3333 35 93.3333H65C69.6 93.3333 73.3333 89.6 73.3333 85V68.3333C73.3333 63.7333 69.6 60 65 60ZM40 53.3333C40 47.8167 44.4833 43.3333 50 43.3333C55.5166 43.3333 60 47.8167 60 53.3333V60H40V53.3333ZM70 85C70 87.75 67.75 90 65 90H35C32.25 90 30 87.75 30 85V68.3333C30 65.5833 32.25 63.3333 35 63.3333H65C67.75 63.3333 70 65.5833 70 68.3333V85Z" fill="#3C7CFF"/>
<path d="M90 0H10C4.48333 0 0 4.48333 0 10V60C0 65.5167 4.48333 70 10 70H21.6667C22.5833 70 23.3333 69.25 23.3333 68.3333C23.3333 67.4167 22.5833 66.6667 21.6667 66.6667H10C6.31667 66.6667 3.33333 63.6833 3.33333 60V33.3333H96.6667V60C96.6667 63.6833 93.6833 66.6667 90 66.6667H78.3333C77.4167 66.6667 76.6667 67.4167 76.6667 68.3333C76.6667 69.25 77.4167 70 78.3333 70H90C95.5167 70 100 65.5167 100 60V10C100 4.48333 95.5167 0 90 0ZM10 3.33333H90C93.6833 3.33333 96.6667 6.31667 96.6667 10V13.3333H3.33333V10C3.33333 6.31667 6.31667 3.33333 10 3.33333ZM3.33333 30V16.6667H96.6667V30H3.33333Z" fill="#3C7CFF"/>
<path d="M21.6667 56.6667H11.6667C10.75 56.6667 10 55.9167 10 55C10 54.0834 10.75 53.3334 11.6667 53.3334H21.6667C22.5833 53.3334 23.3333 54.0834 23.3333 55C23.3333 55.9167 22.5833 56.6667 21.6667 56.6667Z" fill="#3C7CFF"/>
<path d="M28.3333 48.3333H11.6667C10.75 48.3333 10 47.5833 10 46.6667C10 45.75 10.75 45 11.6667 45H28.3333C29.25 45 30 45.75 30 46.6667C30 47.5833 29.25 48.3333 28.3333 48.3333Z" fill="#3C7CFF"/>
<path d="M83.3334 58.3333C79.6501 58.3333 76.6667 55.35 76.6667 51.6667C76.6667 47.9833 79.6501 45 83.3334 45C87.0167 45 90.0001 47.9833 90.0001 51.6667C90.0001 55.35 87.0167 58.3333 83.3334 58.3333ZM83.3334 48.3333C81.5001 48.3333 80.0001 49.8333 80.0001 51.6667C80.0001 53.5 81.5001 55 83.3334 55C85.1667 55 86.6667 53.5 86.6667 51.6667C86.6667 49.8333 85.1667 48.3333 83.3334 48.3333Z" fill="#3C7CFF"/>
<path d="M55 73.3334C55 70.5834 52.75 68.3334 50 68.3334C47.25 68.3334 45 70.5834 45 73.3334C45 75.5 46.4 77.3334 48.3333 78.0334V83.3334C48.3333 84.25 49.0833 85 50 85C50.9167 85 51.6667 84.25 51.6667 83.3334V78.0334C53.6 77.35 55 75.5167 55 73.3334ZM50 71.6667C50.9167 71.6667 51.6667 72.4167 51.6667 73.3334C51.6667 74.25 50.9167 75 50 75C49.0833 75 48.3333 74.25 48.3333 73.3334C48.3333 72.4167 49.0833 71.6667 50 71.6667Z" fill="#3C7CFF"/>
</svg>
