<svg width="100" height="94" viewBox="0 0 100 94" fill="none" xmlns="http://www.w3.org/2000/svg">
<path d="M64.9998 60.3156H63.3332V53.6489C63.3332 46.2989 57.3498 40.3156 49.9998 40.3156C42.6498 40.3156 36.6665 46.2989 36.6665 53.6489V60.3156H34.9998C30.3998 60.3156 26.6665 64.0489 26.6665 68.6489V85.3156C26.6665 89.9156 30.3998 93.6489 34.9998 93.6489H64.9998C69.5998 93.6489 73.3332 89.9156 73.3332 85.3156V68.6489C73.3332 64.0489 69.5998 60.3156 64.9998 60.3156ZM39.9998 53.6489C39.9998 48.1322 44.4832 43.6489 49.9998 43.6489C55.5165 43.6489 59.9998 48.1322 59.9998 53.6489V60.3156H39.9998V53.6489ZM69.9998 85.3156C69.9998 88.0656 67.7498 90.3156 64.9998 90.3156H34.9998C32.2498 90.3156 29.9998 88.0656 29.9998 85.3156V68.6489C29.9998 65.8989 32.2498 63.6489 34.9998 63.6489H64.9998C67.7498 63.6489 69.9998 65.8989 69.9998 68.6489V85.3156Z" fill="#3C7CFF"/>
<path d="M90 0.315552H10C4.48333 0.315552 0 4.79888 0 10.3156V60.3156C0 65.8322 4.48333 70.3156 10 70.3156H21.6667C22.5833 70.3156 23.3333 69.5656 23.3333 68.6489C23.3333 67.7322 22.5833 66.9822 21.6667 66.9822H10C6.31667 66.9822 3.33333 63.9989 3.33333 60.3156V33.6489H96.6667V60.3156C96.6667 63.9989 93.6833 66.9822 90 66.9822H78.3333C77.4167 66.9822 76.6667 67.7322 76.6667 68.6489C76.6667 69.5656 77.4167 70.3156 78.3333 70.3156H90C95.5167 70.3156 100 65.8322 100 60.3156V10.3156C100 4.79888 95.5167 0.315552 90 0.315552ZM10 3.64889H90C93.6833 3.64889 96.6667 6.63222 96.6667 10.3156V13.6489H3.33333V10.3156C3.33333 6.63222 6.31667 3.64889 10 3.64889ZM3.33333 30.3156V16.9822H96.6667V30.3156H3.33333Z" fill="#3C7CFF"/>
<path d="M21.6667 56.9823H11.6667C10.75 56.9823 10 56.2323 10 55.3156C10 54.3989 10.75 53.6489 11.6667 53.6489H21.6667C22.5833 53.6489 23.3333 54.3989 23.3333 55.3156C23.3333 56.2323 22.5833 56.9823 21.6667 56.9823Z" fill="#3C7CFF"/>
<path d="M28.3333 48.6489H11.6667C10.75 48.6489 10 47.8989 10 46.9822C10 46.0656 10.75 45.3156 11.6667 45.3156H28.3333C29.25 45.3156 30 46.0656 30 46.9822C30 47.8989 29.25 48.6489 28.3333 48.6489Z" fill="#3C7CFF"/>
<path d="M83.3332 58.6489C79.6498 58.6489 76.6665 55.6656 76.6665 51.9822C76.6665 48.2989 79.6498 45.3156 83.3332 45.3156C87.0165 45.3156 89.9998 48.2989 89.9998 51.9822C89.9998 55.6656 87.0165 58.6489 83.3332 58.6489ZM83.3332 48.6489C81.4998 48.6489 79.9998 50.1489 79.9998 51.9822C79.9998 53.8156 81.4998 55.3156 83.3332 55.3156C85.1665 55.3156 86.6665 53.8156 86.6665 51.9822C86.6665 50.1489 85.1665 48.6489 83.3332 48.6489Z" fill="#3C7CFF"/>
<path d="M55 73.6489C55 70.8989 52.75 68.6489 50 68.6489C47.25 68.6489 45 70.8989 45 73.6489C45 75.8156 46.4 77.6489 48.3333 78.3489V83.6489C48.3333 84.5656 49.0833 85.3156 50 85.3156C50.9167 85.3156 51.6667 84.5656 51.6667 83.6489V78.3489C53.6 77.6656 55 75.8323 55 73.6489ZM50 71.9823C50.9167 71.9823 51.6667 72.7323 51.6667 73.6489C51.6667 74.5656 50.9167 75.3156 50 75.3156C49.0833 75.3156 48.3333 74.5656 48.3333 73.6489C48.3333 72.7323 49.0833 71.9823 50 71.9823Z" fill="#3C7CFF"/>
</svg>
