<svg width="102" height="102" viewBox="0 0 102 102" fill="none" xmlns="http://www.w3.org/2000/svg">
<path d="M97.625 91.9375H97.6247L97.6253 91.9494C97.7744 95.0809 95.0833 97.7812 91.9375 97.7812H10.0625C6.91513 97.7812 4.21875 95.2328 4.21875 91.9375V26.0938H97.625V91.9375ZM91.9375 0.75H10.0625C4.92443 0.75 0.75 4.92443 0.75 10.0625V10.158V10.2539V10.3503V10.4472V10.5446V10.6424V10.7408V10.8396V10.9388V11.0386V11.1388V11.2395V11.3406V11.4422V11.5443V11.6468V11.7498V11.8533V11.9572V12.0616V12.1664V12.2717V12.3774V12.4836V12.5902V12.6973V12.8049V12.9128V13.0213V13.1301V13.2395V13.3492V13.4594V13.57V13.6811V13.7926V13.9045V14.0169V14.1297V14.243V14.3566V14.4707V14.5852V14.7002V14.8155V14.9313V15.0475V15.1641V15.2812V15.3987V15.5165V15.6348V15.7535V15.8726V15.9922V16.1121V16.2324V16.3532V16.4743V16.5959V16.7179V16.8402V16.963V17.0861V17.2097V17.3336V17.458V17.5827V17.7078V17.8333V17.9592V18.0855V18.2122V18.3393V18.4667V18.5945V18.7227V18.8513V18.9803V19.1096V19.2393V19.3694V19.4999V19.6307V19.7619V19.8935V20.0254V20.1577V20.2903V20.4234V20.5568V20.6905V20.8246V20.9591V21.0939V21.2291V21.3646V21.5005V21.6367V21.7733V21.9102V22.0475V22.1851V22.3231V22.4614V22.6V22.739V22.8783V23.018V23.158V23.2983V23.439V23.58V23.7213V23.863V24.005V24.1473V24.2899V24.4329V24.5762V24.7198V24.8637V25.0079V25.1525V25.2974V25.4426V25.5881V25.7339V25.88V26.0264V26.1732V26.3202V26.4676V26.6152V26.7632V26.9115V27.06V27.2089V27.358V27.5075V27.6572V27.8072V27.9576V28.1082V28.2591V28.4103V28.5618V28.7135V28.8656V29.0179V29.1705V29.3234V29.4766V29.63V29.7837V29.9377V30.092V30.2465V30.4013V30.5564V30.7117V30.8673V31.0232V31.1793V31.3357V31.4924V31.6493V31.8065V31.9639V32.1216V32.2795V32.4377V32.5962V32.7548V32.9138V33.073V33.2324V33.3921V33.552V33.7122V33.8726V34.0332V34.1941V34.3552V34.5165V34.6781V34.8399V35.002V35.1642V35.3267V35.4895V35.6524V35.8156V35.979V36.1426V36.3064V36.4705V36.6348V36.7993V36.964V37.1289V37.294V37.4594V37.6249V37.7907V37.9566V38.1228V38.2892V38.4558V38.6225V38.7895V38.9567V39.1241V39.2916V39.4594V39.6273V39.7955V39.9638V40.1323V40.3011V40.47V40.639V40.8083V40.9778V41.1474V41.3172V41.4872V41.6574V41.8277V41.9982V42.1689V42.3398V42.5108V42.682V42.8533V43.0249V43.1966V43.3684V43.5405V43.7126V43.885V44.0575V44.2301V44.4029V44.5759V44.749V44.9223V45.0957V45.2693V45.443V45.6168V45.7909V45.965V46.1393V46.3137V46.4883V46.663V46.8378V47.0128V47.1879V47.3632V47.5385V47.714V47.8897V48.0654V48.2413V48.4173V48.5934V48.7697V48.9461V49.1226V49.2992V49.4759V49.6527V49.8297V50.0068V50.1839V50.3612V50.5386V50.7161V50.8937V51.0714V51.2492V51.4272V51.6052V51.7833V51.9615V52.1398V52.3182V52.4967V52.6753V52.8539V53.0327V53.2116V53.3905V53.5695V53.7486V53.9278V54.1071V54.2864V54.4659V54.6454V54.825V55.0046V55.1843V55.3641V55.544V55.724V55.904V56.084V56.2642V56.4444V56.6246V56.805V56.9854V57.1658V57.3463V57.5269V57.7075V57.8881V58.0688V58.2496V58.4304V58.6113V58.7922V58.9731V59.1541V59.3352V59.5162V59.6973V59.8785V60.0597V60.2409V60.4222V60.6035V60.7848V60.9661V61.1475V61.3289V61.5104V61.6918V61.8733V62.0548V62.2363V62.4179V62.5994V62.781V62.9626V63.1442V63.3258V63.5075V63.6891V63.8707V64.0524V64.2341V64.4157V64.5974V64.7791V64.9607V65.1424V65.3241V65.5057V65.6874V65.869V66.0507V66.2323V66.4139V66.5955V66.7771V66.9587V67.1403V67.3218V67.5033V67.6848V67.8663V68.0478V68.2292V68.4107V68.592V68.7734V68.9547V69.136V69.3173V69.4985V69.6797V69.8609V70.042V70.2231V70.4042V70.5852V70.7661V70.947V71.1279V71.3087V71.4895V71.6702V71.8509V72.0315V72.2121V72.3926V72.5731V72.7535V72.9338V73.1141V73.2943V73.4745V73.6546V73.8346V74.0146V74.1945V74.3743V74.554V74.7337V74.9133V75.0928V75.2723V75.4516V75.6309V75.8102V75.9893V76.1683V76.3473V76.5262V76.7049V76.8837V77.0623V77.2408V77.4192V77.5975V77.7758V77.9539V78.1319V78.3099V78.4877V78.6655V78.8431V79.0206V79.198V79.3754V79.5526V79.7297V79.9066V80.0835V80.2603V80.4369V80.6134V80.7898V80.9661V81.1423V81.3183V81.4942V81.67V81.8457V82.0212V82.1967V82.3719V82.5471V82.7221V82.897V83.0717V83.2463V83.4208V83.5951V83.7693V83.9433V84.1172V84.291V84.4646V84.6381V84.8114V84.9845V85.1575V85.3304V85.5031V85.6756V85.848V86.0202V86.1923V86.3642V86.5359V86.7075V86.8789V87.0502V87.2212V87.3921V87.5629V87.7334V87.9038V88.074V88.2441V88.4139V88.5836V88.7531V88.9224V89.0916V89.2605V89.4293V89.5978V89.7662V89.9344V90.1024V90.2702V90.4379V90.6053V90.7725V90.9396V91.1064V91.273V91.4394V91.6057V91.7717V91.9375C0.75 97.0756 4.92443 101.25 10.0625 101.25H91.9375C97.0756 101.25 101.25 97.0756 101.25 91.9375V91.7717V91.6057V91.4395V91.273V91.1064V90.9396V90.7726V90.6054V90.438V90.2704V90.1026V89.9347V89.7665V89.5982V89.4297V89.2609V89.0921V88.923V88.7537V88.5843V88.4147V88.2449V88.0749V87.9048V87.7345V87.564V87.3934V87.2226V87.0516V86.8804V86.7091V86.5376V86.366V86.1942V86.0223V85.8502V85.6779V85.5055V85.3329V85.1602V84.9873V84.8143V84.6411V84.4678V84.2943V84.1207V83.9469V83.773V83.599V83.4248V83.2505V83.0761V82.9015V82.7268V82.5519V82.3769V82.2018V82.0266V81.8512V81.6757V81.5001V81.3244V81.1485V80.9725V80.7964V80.6202V80.4439V80.2674V80.0909V79.9142V79.7374V79.5605V79.3835V79.2064V79.0292V78.8519V78.6745V78.4969V78.3193V78.1416V77.9638V77.7859V77.6078V77.4297V77.2515V77.0733V76.8949V76.7164V76.5379V76.3592V76.1805V76.0017V75.8228V75.6438V75.4648V75.2857V75.1065V74.9272V74.7478V74.5684V74.3889V74.2093V74.0297V73.85V73.6702V73.4904V73.3105V73.1306V72.9505V72.7705V72.5903V72.4101V72.2299V72.0496V71.8693V71.6889V71.5084V71.3279V71.1474V70.9668V70.7861V70.6054V70.4247V70.2439V70.0631V69.8823V69.7014V69.5205V69.3396V69.1586V68.9776V68.7965V68.6155V68.4344V68.2532V68.0721V67.8909V67.7097V67.5285V67.3473V67.166V66.9847V66.8035V66.6222V66.4409V66.2595V66.0782V65.8969V65.7155V65.5342V65.3528V65.1714V64.9901V64.8087V64.6273V64.446V64.2646V64.0833V63.9019V63.7206V63.5392V63.3579V63.1766V62.9953V62.814V62.6327V62.4515V62.2702V62.089V61.9078V61.7266V61.5455V61.3644V61.1833V61.0022V60.8211V60.6401V60.4591V60.2782V60.0973V59.9164V59.7355V59.5547V59.3739V59.1932V59.0125V58.8319V58.6513V58.4707V58.2902V58.1097V57.9293V57.749V57.5686V57.3884V57.2082V57.028V56.848V56.6679V56.488V56.3081V56.1282V55.9484V55.7687V55.5891V55.4095V55.23V55.0506V54.8712V54.6919V54.5127V54.3335V54.1545V53.9755V53.7966V53.6178V53.439V53.2604V53.0818V52.9033V52.7249V52.5466V52.3684V52.1903V52.0122V51.8343V51.6565V51.4787V51.3011V51.1235V50.9461V50.7687V50.5915V50.4144V50.2374V50.0604V49.8836V49.7069V49.5304V49.3539V49.1775V49.0013V48.8252V48.6492V48.4733V48.2975V48.1219V47.9464V47.771V47.5957V47.4206V47.2456V47.0707V46.896V46.7214V46.5469V46.3725V46.1983V46.0243V45.8503V45.6766V45.5029V45.3294V45.1561V44.9829V44.8098V44.6369V44.4641V44.2915V44.1191V43.9468V43.7747V43.6027V43.4308V43.2592V43.0877V42.9163V42.7451V42.5741V42.4033V42.2326V42.0621V41.8918V41.7216V41.5516V41.3818V41.2121V41.0426V40.8734V40.7042V40.5353V40.3666V40.198V40.0296V39.8614V39.6934V39.5256V39.358V39.1906V39.0233V38.8563V38.6894V38.5228V38.3563V38.1901V38.024V37.8581V37.6925V37.5271V37.3618V37.1968V37.032V36.8674V36.703V36.5388V36.3748V36.211V36.0475V35.8842V35.7211V35.5582V35.3955V35.2331V35.0709V34.9089V34.7471V34.5856V34.4243V34.2632V34.1024V33.9418V33.7814V33.6213V33.4614V33.3018V33.1424V32.9832V32.8243V32.6656V32.5072V32.349V32.191V32.0333V31.8759V31.7187V31.5618V31.4051V31.2487V31.0925V30.9366V30.781V30.6256V30.4705V30.3157V30.1611V30.0068V29.8527V29.6989V29.5454V29.3922V29.2392V29.0865V28.9341V28.782V28.6302V28.4786V28.3273V28.1763V28.0256V27.8751V27.725V27.5751V27.4256V27.2763V27.1273V26.9786V26.8302V26.6821V26.5343V26.3868V26.2396V26.0927V25.9461V25.7998V25.6538V25.5081V25.3628V25.2177V25.073V24.9285V24.7844V24.6406V24.4971V24.3539V24.211V24.0685V23.9263V23.7844V23.6428V23.5016V23.3607V23.2201V23.0798V22.9399V22.8003V22.6611V22.5221V22.3835V22.2453V22.1074V21.9698V21.8326V21.6957V21.5591V21.4229V21.2871V21.1516V21.0164V20.8816V20.7472V20.6131V20.4793V20.346V20.2129V20.0803V19.948V19.816V19.6844V19.5532V19.4224V19.2919V19.1617V19.032V18.9026V18.7736V18.645V18.5167V18.3888V18.2613V18.1342V18.0075V17.8811V17.7551V17.6295V17.5043V17.3795V17.255V17.131V17.0073V16.8841V16.7612V16.6387V16.5166V16.3949V16.2737V16.1528V16.0323V15.9122V15.7925V15.6733V15.5544V15.4359V15.3179V15.2002V15.083V14.9662V14.8498V14.7338V14.6183V14.5031V14.3884V14.2741V14.1602V14.0467V13.9337V13.8211V13.7089V13.5972V13.4858V13.375V13.2645V13.1545V13.0449V12.9357V12.827V12.7188V12.6109V12.5036V12.3966V12.2901V12.1841V12.0785V11.9733V11.8686V11.7644V11.6606V11.5572V11.4543V11.3519V11.2499V11.1484V11.0474V10.9468V10.8467V10.747V10.6478V10.5491V10.4508V10.353V10.2557V10.1589V10.0625C101.25 4.92443 97.0756 0.75 91.9375 0.75ZM4.21875 10.0625C4.21875 6.91513 6.76722 4.21875 10.0625 4.21875H91.9375C95.0849 4.21875 97.7812 6.76722 97.7812 10.0625V22.4688H4.21875V10.0625Z" fill="#3C7CFF" stroke="#3C7CFF" stroke-width="0.5"/>
<path d="M65.5314 57H64.8439V48.0313C64.8439 40.3932 58.6382 34.1875 51.0001 34.1875C43.3621 34.1875 37.1564 40.3932 37.1564 48.0313V57H36.4689C33.8308 57 31.6876 59.1432 31.6876 61.7813V84.75C31.6876 87.3881 33.8308 89.5312 36.4689 89.5312H65.3751C68.0132 89.5312 70.1564 87.3881 70.1564 84.75V61.7889C70.3174 59.1394 68.1635 57 65.5314 57ZM40.7814 48.0313C40.7814 42.3905 45.3545 37.8125 51.1564 37.8125C56.7995 37.8125 61.3751 42.3881 61.3751 48.0313V57H40.7814V48.0313ZM66.6876 84.75C66.6876 85.4097 66.1586 86.0625 65.3751 86.0625H36.4689C35.8092 86.0625 35.1564 85.5335 35.1564 84.75V61.7813C35.1564 61.1215 35.6854 60.4688 36.4689 60.4688H65.3751C66.0348 60.4688 66.6876 60.9978 66.6876 61.7813V84.75Z" fill="#3C7CFF" stroke="#3C7CFF" stroke-width="0.5"/>
<path d="M17.5624 7.78125C14.4556 7.78125 11.9999 10.2369 11.9999 13.3437C11.9999 16.4506 14.4556 18.9062 17.5624 18.9062C20.6692 18.9062 23.1249 16.4506 23.1249 13.3437C23.1249 10.2369 20.6692 7.78125 17.5624 7.78125ZM17.5624 15.4375C16.4504 15.4375 15.4686 14.4557 15.4686 13.3437C15.4686 12.2318 16.4504 11.25 17.5624 11.25C18.6743 11.25 19.6561 12.2318 19.6561 13.3437C19.6561 14.4557 18.6743 15.4375 17.5624 15.4375Z" fill="#3C7CFF" stroke="#3C7CFF" stroke-width="0.5"/>
<path d="M86.9376 11.6875H34.2814C33.3786 11.6875 32.4689 12.4085 32.4689 13.5C32.4689 14.0256 32.6452 14.483 32.9718 14.8096C33.2984 15.1362 33.7558 15.3125 34.2814 15.3125H86.9376C87.8404 15.3125 88.7501 14.5915 88.7501 13.5C88.7501 12.9744 88.5738 12.517 88.2472 12.1904C87.9206 11.8638 87.4632 11.6875 86.9376 11.6875Z" fill="#3C7CFF" stroke="#3C7CFF" stroke-width="0.5"/>
<path d="M51 68.0938C50.0972 68.0938 49.1875 68.8147 49.1875 69.9062V76.625C49.1875 77.5278 49.9085 78.4375 51 78.4375C51.9028 78.4375 52.8125 77.7165 52.8125 76.625V69.9062C52.8125 69.4343 52.5791 68.9833 52.251 68.6553C51.9229 68.3272 51.4719 68.0938 51 68.0938Z" fill="#3C7CFF" stroke="#3C7CFF" stroke-width="0.5"/>
</svg>
