<svg width="114" height="100" viewBox="0 0 114 100" fill="none" xmlns="http://www.w3.org/2000/svg">
<path d="M15.3444 28.5528C15.7853 28.5528 16.2119 28.3821 16.5248 28.0693L26.1667 18.4273C26.8209 17.7731 26.8209 16.7207 26.1667 16.0666C25.5126 15.4124 24.4602 15.4124 23.806 16.0666L15.3302 24.5424L11.6896 20.9018C11.0496 20.2334 9.99724 20.2192 9.32884 20.8591C8.66045 21.4991 8.64623 22.5514 9.28618 23.2198C9.3004 23.234 9.31462 23.2483 9.32884 23.2625L14.1498 28.0835C14.4769 28.3821 14.9036 28.5528 15.3444 28.5528Z" fill="#3C7CFF"/>
<path d="M96.8604 51.549C97.8346 51.549 98.6243 50.7593 98.6243 49.7851C98.6243 48.8109 97.8346 48.0212 96.8604 48.0212C95.8863 48.0212 95.0965 48.8109 95.0965 49.7851C95.0965 50.7593 95.8863 51.549 96.8604 51.549Z" fill="#3C7CFF" stroke="#3C7CFF" stroke-width="0.2"/>
<path d="M107.413 72.4393V67.149C107.413 65.7696 107.157 64.4186 106.659 63.1387C106.929 62.84 107.086 62.4418 107.086 62.0294V29.5766C107.086 24.9832 103.36 21.243 98.752 21.243H35.3112C35.4392 20.2048 35.5103 19.1525 35.5103 18.1143V9.75226C35.5103 8.9701 34.9699 8.28748 34.202 8.11682C31.1729 7.44843 28.2291 6.39606 25.4844 4.95972C23.081 3.70825 20.8483 2.17236 18.8004 0.408932C18.1889 -0.131474 17.2645 -0.131474 16.6388 0.380489C15.0318 1.71728 13.311 2.92608 11.505 3.97845C8.3194 5.82721 4.87787 7.20667 1.27991 8.05994C0.526184 8.23059 0 8.91321 0 9.68115V18.1001C0 23.561 1.74921 28.9224 5.06275 33.6154C5.56049 34.3265 6.10089 35.0091 6.65552 35.6775V70.0075C6.65552 74.6009 10.3815 78.3411 14.9891 78.3411H76.4674C76.2683 79.0522 76.183 79.7917 76.183 80.517V91.6664C76.183 96.2598 79.9089 100 84.5166 100H105.422C110.015 100 113.755 96.274 113.755 91.6664V80.517C113.741 76.6915 111.139 73.3637 107.413 72.4393ZM98.7378 24.5708C101.497 24.5708 103.729 26.8035 103.744 29.5766V34.4687C98.624 33.7292 94.6136 29.7046 93.8599 24.585L98.7378 24.5708ZM7.779 31.6814C4.86365 27.5572 3.34198 22.8642 3.34198 18.1001V10.9753C6.78351 10.0367 10.0971 8.65723 13.1831 6.85114C14.7474 5.94098 16.2548 4.91705 17.6912 3.8078C19.6395 5.37213 21.7442 6.75159 23.9627 7.9035C26.5794 9.26874 29.3383 10.3211 32.1968 11.0606V18.1001C32.1968 22.8642 30.6609 27.5572 27.7598 31.6814C25.2853 35.1798 21.8438 38.2373 17.7765 40.5696C13.6808 38.2515 10.2393 35.194 7.779 31.6814ZM14.9891 75.0133C12.2302 75.0133 9.98328 72.7664 9.98328 70.0075V65.1154C15.1029 65.8549 19.1133 69.8795 19.867 74.9991L14.9891 75.0133ZM78.2308 75.056C78.1028 75.0276 77.9748 75.0133 77.8469 75.0133H23.2232C22.4411 68.0592 16.9517 62.5556 9.98328 61.7734V39.0906C12.1165 40.9678 14.4487 42.6032 16.9659 43.9542C17.4636 44.2245 18.0467 44.2245 18.5444 43.9542C23.4081 41.3375 27.5465 37.768 30.4618 33.6154C32.4101 30.885 33.8322 27.8132 34.6855 24.5708H90.5322C91.3143 31.5249 96.8179 37.0143 103.772 37.8107V58.915C101.738 57.0662 99.0791 56.0423 96.3202 56.0423H93.6466C87.5173 56.0565 82.5399 61.0197 82.5399 67.149V72.4393C80.8617 72.8517 79.3543 73.7619 78.2308 75.056ZM104.085 67.149V72.1976H85.8534V67.149C85.8534 62.8542 89.3376 59.37 93.6324 59.37H96.306C100.601 59.37 104.085 62.8542 104.085 67.149ZM110.428 91.6806C110.428 94.4395 108.181 96.6722 105.422 96.6865H84.5166C81.7577 96.6865 79.525 94.4395 79.5107 91.6806V80.5312C79.5107 77.7723 81.7577 75.5395 84.5166 75.5253H105.422C108.181 75.5253 110.413 77.7723 110.428 80.5312V91.6806Z" fill="#3C7CFF"/>
<path d="M94.9692 79.4077C92.8787 79.3793 91.1721 81.0574 91.1579 83.1479C91.1437 84.6127 91.9827 85.9637 93.3053 86.5894V90.8842C93.3053 91.8086 94.0448 92.5481 94.9692 92.5481C95.8936 92.5481 96.6331 91.8086 96.6331 90.8842V86.5894C98.5103 85.6935 99.3066 83.4323 98.4107 81.5551C97.785 80.2325 96.434 79.3935 94.9692 79.4077Z" fill="#3C7CFF"/>
<path d="M56.8708 27.5715C44.5979 27.5715 34.6431 37.5263 34.6431 49.785C34.6431 62.0579 44.5979 72.0127 56.8566 72.0127C69.1295 72.0127 79.0843 62.0579 79.0843 49.7992C79.0843 43.9116 76.7378 38.2516 72.571 34.0848C68.4184 29.9038 62.7726 27.5573 56.8708 27.5715ZM70.2245 63.1387C62.8437 70.5195 50.8837 70.5195 43.5171 63.1387C36.1505 55.7579 36.1363 43.7979 43.5171 36.4313C50.8979 29.0647 62.8579 29.0505 70.2245 36.4313C73.7656 39.9724 75.7566 44.7791 75.7566 49.785C75.7708 54.8051 73.7798 59.6118 70.2245 63.1387Z" fill="#3C7CFF"/>
<path d="M63.953 38.0667H49.7886C48.8643 38.0667 48.1248 38.8062 48.1248 39.7305C48.1248 40.6549 48.8643 41.3944 49.7886 41.3944H54.7376C56.4868 41.3944 58.0512 42.4468 58.7196 44.0538H49.7886C48.8643 44.0538 48.1248 44.7933 48.1248 45.7177C48.1248 46.642 48.8643 47.3815 49.7886 47.3815H58.7196C58.0512 48.9885 56.4726 50.0409 54.7376 50.0409H49.7744H49.6891H49.618L49.5469 50.0551L49.4616 50.0693L49.4189 50.0836L49.3051 50.112H49.2909L49.1629 50.1547L49.106 50.1831L49.0065 50.2258L48.9354 50.2684L48.8643 50.3111L48.8074 50.3538C48.7789 50.368 48.7647 50.3964 48.7363 50.4107C48.7078 50.4249 48.7078 50.4391 48.6936 50.4533L48.6225 50.5244L48.5798 50.5671L48.523 50.6382L48.4803 50.6951L48.4376 50.7662C48.4234 50.7946 48.4092 50.8088 48.395 50.8373C48.3807 50.8657 48.3665 50.8799 48.3523 50.9084C48.3381 50.9368 48.3239 50.9511 48.3096 50.9795C48.2954 51.0079 48.2812 51.0222 48.2812 51.0506C48.267 51.079 48.267 51.0933 48.2527 51.1217C48.2385 51.1502 48.2385 51.1786 48.2243 51.207C48.2243 51.2355 48.2101 51.2639 48.2101 51.2781L48.1959 51.3635C48.1959 51.3919 48.1959 51.4204 48.1959 51.4488C48.1959 51.4772 48.1959 51.5057 48.1816 51.5341C48.1674 51.5626 48.1816 51.591 48.1816 51.6195C48.1816 51.6479 48.1816 51.6621 48.1816 51.6763V51.6906C48.1816 51.719 48.1816 51.7474 48.1816 51.7901C48.1816 51.8185 48.1816 51.8328 48.1816 51.8612L48.1959 51.9465C48.1959 51.975 48.1959 52.0034 48.2101 52.0319C48.2243 52.0603 48.2243 52.0745 48.2243 52.0888C48.2243 52.103 48.2385 52.1599 48.2527 52.1883C48.2527 52.2025 48.267 52.2167 48.267 52.2452C48.2812 52.2736 48.2954 52.3163 48.3096 52.3447C48.3239 52.3732 48.3381 52.4016 48.3523 52.4158C48.3665 52.4443 48.3665 52.4585 48.3807 52.4869C48.395 52.5154 48.4092 52.5296 48.4234 52.5581C48.4376 52.5865 48.4518 52.6007 48.4661 52.6292C48.4803 52.6434 48.4945 52.6718 48.5087 52.686L48.5656 52.7571L48.6083 52.7998L48.6794 52.8709L59.3879 63.2382C60.0421 63.8781 61.0945 63.8639 61.7487 63.2097C62.3886 62.5556 62.3744 61.5032 61.7202 60.849L61.706 60.8348L53.9555 53.3402H54.7945C58.364 53.326 61.45 50.8657 62.2464 47.3958H63.9814C64.9058 47.3958 65.6453 46.6563 65.6453 45.7319C65.6453 44.8075 64.9058 44.068 63.9814 44.068H62.2464C62.0331 43.1152 61.6491 42.2192 61.0945 41.4086H63.9814C64.9058 41.4229 65.6595 40.6833 65.6595 39.759V39.7448C65.6168 38.8062 64.8773 38.0667 63.953 38.0667Z" fill="#3C7CFF"/>
<path d="M16.8804 51.449C17.7994 51.449 18.5443 50.704 18.5443 49.7851C18.5443 48.8662 17.7994 48.1212 16.8804 48.1212C15.9615 48.1212 15.2166 48.8662 15.2166 49.7851C15.2166 50.704 15.9615 51.449 16.8804 51.449Z" fill="#3C7CFF"/>
</svg>
