<svg width="100" height="102" viewBox="0 0 100 102" fill="none" xmlns="http://www.w3.org/2000/svg">
<path d="M10.1796 101.519H89.8243C95.4356 101.519 100 96.9505 100 91.3392C100 59.5777 100 23.5052 100 10.1796C100 4.56835 95.4356 0 89.8243 0H10.1757C4.56438 0 0 4.56835 0 10.1796C0 23.507 0 59.5775 0 91.3392C0 96.9505 4.56835 101.519 10.1796 101.519ZM95.9393 91.3392C95.9393 94.7139 93.1951 97.4581 89.8243 97.4581H10.1796C6.80488 97.4581 4.06075 94.7139 4.06075 91.3392V20.6289H95.9393V91.3392ZM4.06075 10.1796C4.06075 6.80493 6.80488 4.06075 10.1757 4.06075H89.8243C93.1951 4.06075 95.9393 6.80493 95.9393 10.1796V16.5682H4.06075V10.1796Z" fill="#3C7CFF"/>
<path d="M66.5384 8.28406H61.3038C60.1816 8.28406 59.2734 9.19218 59.2734 10.3144C59.2734 11.4367 60.1816 12.3448 61.3038 12.3448H66.5384C67.6606 12.3448 68.5688 11.4367 68.5688 10.3144C68.5688 9.19218 67.6606 8.28406 66.5384 8.28406Z" fill="#3C7CFF"/>
<path d="M77.6858 8.28406H72.4513C71.329 8.28406 70.4209 9.19218 70.4209 10.3144C70.4209 11.4367 71.329 12.3448 72.4513 12.3448H77.6858C78.8081 12.3448 79.7162 11.4367 79.7162 10.3144C79.7162 9.19218 78.8081 8.28406 77.6858 8.28406Z" fill="#3C7CFF"/>
<path d="M88.8368 8.28406H83.5982C82.476 8.28406 81.5679 9.19218 81.5679 10.3144C81.5679 11.4367 82.476 12.3448 83.5982 12.3448H88.8368C89.959 12.3448 90.8672 11.4367 90.8672 10.3144C90.8672 9.19218 89.959 8.28406 88.8368 8.28406Z" fill="#3C7CFF"/>
<path d="M15.6125 67.0858H30.8483C32.4841 67.0858 33.8586 66.2104 34.7221 64.9562H39.805C42.5135 77.0822 53.0964 85.7478 65.7493 85.7478C80.4616 85.7478 92.4297 73.7559 92.4297 59.0198C92.4297 44.3075 80.4616 32.3394 65.7493 32.3394C53.2977 32.3394 42.4905 41.2064 39.8082 53.1309H34.7202C33.8564 51.8795 32.4828 51.0053 30.8483 51.0053H15.6125C11.179 51.0053 7.57031 54.61 7.57031 59.0436C7.57031 63.4771 11.179 67.0858 15.6125 67.0858ZM65.7493 36.4001C78.2211 36.4001 88.369 46.548 88.369 59.0198C88.369 71.5193 78.2211 81.687 65.7493 81.687C54.5109 81.687 45.1045 73.6646 43.3795 62.5531C43.1812 61.4943 43.086 60.3363 43.086 59.0198C43.086 57.7349 43.1812 56.5928 43.3914 55.4745C45.0847 44.6009 54.6973 36.4001 65.7493 36.4001ZM35.6506 57.1916H39.0848C39.0451 57.7785 39.0253 58.3853 39.0253 59.0198C39.0253 59.6741 39.0451 60.2967 39.0887 60.8955H35.6506V57.1916ZM15.6125 55.0661H30.8483C31.2488 55.0661 31.574 55.3913 31.574 55.7878V62.2993C31.574 62.6998 31.2488 63.025 30.8483 63.025H15.6125C13.4156 63.025 11.6311 61.2405 11.6311 59.0436C11.6311 56.8506 13.4156 55.0661 15.6125 55.0661Z" fill="#3C7CFF"/>
<path d="M50.133 60.5543C48.5388 61.169 47.6942 62.9654 48.2057 64.6269C48.3921 65.2495 48.6261 65.8285 49.0187 66.7683C49.7721 68.2753 51.5051 68.9732 53.2222 68.3942C53.932 68.1166 54.7687 68.311 55.3477 68.8899C55.9267 69.457 56.1012 70.3255 55.8077 71.067C55.1137 72.7246 55.7641 74.5845 57.3107 75.3856C57.9729 75.7345 58.6312 76.0161 59.2776 76.25C60.8956 76.8925 62.7356 76.1311 63.4613 74.5369C64.1672 73.026 66.6219 73.034 67.2524 74.6955C67.7719 75.9566 69.0091 76.7259 70.29 76.7259C70.635 76.7259 70.984 76.6704 71.3211 76.5554C72.0507 76.3294 72.7526 76.0716 73.3951 75.7702C74.9377 75.0643 75.6713 73.2838 75.0963 71.6024C74.8147 70.8251 74.9892 69.9924 75.5404 69.4411C76.1591 68.8423 77.0315 68.6758 77.8167 68.993C79.4426 69.6275 81.2786 68.9811 82.0757 67.4623C82.4088 66.8278 82.6825 66.1933 82.9957 65.4082C83.543 63.7743 82.7975 62.0493 81.1914 61.284C80.4657 60.9588 80.0136 60.2489 80.0136 59.436C80.0136 58.5874 80.5371 57.8379 81.3659 57.5127C82.9878 56.8544 83.7968 55.0302 83.2297 53.4123C83.0076 52.7183 82.7538 52.0243 82.4643 51.4255C81.7585 49.8076 79.8986 49.07 78.2965 49.6926C77.5074 49.9662 76.6786 49.7996 76.1234 49.2445C75.5285 48.6338 75.3541 47.7693 75.6673 46.9999C76.3534 45.3423 75.6991 43.4864 74.089 42.6537C73.4546 42.3483 72.8082 42.0509 72.1618 41.813C70.528 41.2023 68.7434 41.9518 67.9741 43.5816C67.3039 45.033 64.8215 44.9775 64.2029 43.4349C63.5763 41.8328 61.8156 41.004 60.1302 41.5195L60.0945 41.5274C59.4283 41.7416 58.7621 42.0152 58.0403 42.3245C56.4779 43.074 55.7681 44.8823 56.3788 46.5042C56.6524 47.2537 56.47 48.0944 55.9108 48.6496C55.316 49.2445 54.4475 49.411 53.6901 49.1255C52.0365 48.4355 50.1845 49.0819 49.2883 50.8029C49.0028 51.4057 48.7212 52.0124 48.5031 52.6073C47.8647 54.249 48.6578 56.093 50.2321 56.7711C50.9618 57.1161 51.4297 57.8537 51.4297 58.6389C51.4297 59.4875 50.9102 60.2529 50.133 60.5543ZM55.4905 58.6389C55.4905 56.5332 54.3762 54.5623 52.552 53.4242C52.5996 53.3052 52.6551 53.1902 52.7066 53.0712C54.8718 53.6859 57.1957 53.1069 58.7779 51.5247C60.2928 50.0177 60.8916 47.8129 60.384 45.7428C60.503 45.6953 60.6219 45.6477 60.7449 45.6041C61.8116 47.571 63.8499 48.8043 66.1222 48.8043C68.2874 48.8043 70.2781 47.6622 71.3568 45.8618C71.4757 45.9173 71.5947 45.9689 71.7137 46.0204C71.0792 48.146 71.6462 50.4698 73.2364 52.0997C74.7354 53.5987 76.9403 54.1895 79.0262 53.6978C79.0738 53.8207 79.1174 53.9397 79.165 54.0626C77.1901 55.1294 75.9529 57.1637 75.9529 59.436C75.9529 61.6052 77.1029 63.5999 78.9112 64.6706C78.8596 64.7895 78.8041 64.9045 78.7526 65.0235C76.6389 64.4049 74.315 64.96 72.6852 66.5542C71.1704 68.0691 70.5755 70.2937 71.0792 72.344C70.9562 72.3915 70.8293 72.4391 70.7024 72.4827C69.6595 70.5356 67.5974 69.2706 65.3489 69.2706C63.1758 69.2706 61.2287 70.377 60.1064 72.2171C59.9874 72.1655 59.8724 72.1139 59.7535 72.0624C60.388 69.8972 59.805 67.5654 58.2029 66.003C56.6564 64.4564 54.4198 63.8695 52.4251 64.385C52.3775 64.2661 52.3299 64.1471 52.2863 64.0242C54.2294 62.9773 55.4905 60.8993 55.4905 58.6389Z" fill="#3C7CFF"/>
<path d="M65.7335 67.1254C70.1869 67.1254 73.8074 63.5048 73.8074 59.0515C73.8074 54.5981 70.1869 50.9775 65.7335 50.9775C61.2841 50.9775 57.6636 54.5981 57.6636 59.0515C57.6636 63.5048 61.2841 67.1254 65.7335 67.1254ZM65.7335 55.0383C67.9463 55.0383 69.7466 56.8387 69.7466 59.0515C69.7466 61.2643 67.9463 63.0646 65.7335 63.0646C63.5247 63.0646 61.7243 61.2643 61.7243 59.0515C61.7243 56.8387 63.5247 55.0383 65.7335 55.0383Z" fill="#3C7CFF"/>
</svg>
