<svg width="100" height="102" viewBox="0 0 100 102" fill="none" xmlns="http://www.w3.org/2000/svg">
<path d="M10.1796 101.642H89.8243C95.4356 101.642 100 97.0736 100 91.4623C100 59.7009 100 23.6283 100 10.3028C100 4.69151 95.4356 0.123169 89.8243 0.123169H10.1757C4.56438 0.123169 0 4.69152 0 10.3028C0 23.6301 0 59.7006 0 91.4623C0 97.0736 4.56835 101.642 10.1796 101.642ZM95.9393 91.4623C95.9393 94.837 93.1951 97.5812 89.8243 97.5812H10.1796C6.80488 97.5812 4.06075 94.837 4.06075 91.4623V20.7521H95.9393V91.4623ZM4.06075 10.3028C4.06075 6.9281 6.80488 4.18392 10.1757 4.18392H89.8243C93.1951 4.18392 95.9393 6.9281 95.9393 10.3028V16.6914H4.06075V10.3028Z" fill="#3C7CFF"/>
<path d="M66.5384 8.40723H61.3038C60.1816 8.40723 59.2734 9.31534 59.2734 10.4376C59.2734 11.5599 60.1816 12.468 61.3038 12.468H66.5384C67.6606 12.468 68.5688 11.5599 68.5688 10.4376C68.5688 9.31534 67.6606 8.40723 66.5384 8.40723Z" fill="#3C7CFF"/>
<path d="M77.6858 8.40723H72.4513C71.329 8.40723 70.4209 9.31534 70.4209 10.4376C70.4209 11.5599 71.329 12.468 72.4513 12.468H77.6858C78.8081 12.468 79.7162 11.5599 79.7162 10.4376C79.7162 9.31534 78.8081 8.40723 77.6858 8.40723Z" fill="#3C7CFF"/>
<path d="M88.8368 8.40723H83.5982C82.476 8.40723 81.5679 9.31534 81.5679 10.4376C81.5679 11.5599 82.476 12.468 83.5982 12.468H88.8368C89.959 12.468 90.8672 11.5599 90.8672 10.4376C90.8672 9.31534 89.959 8.40723 88.8368 8.40723Z" fill="#3C7CFF"/>
<path d="M15.6125 67.2088H30.8483C32.4841 67.2088 33.8586 66.3334 34.7221 65.0793H39.805C42.5135 77.2053 53.0964 85.8708 65.7493 85.8708C80.4616 85.8708 92.4297 73.8789 92.4297 59.1428C92.4297 44.4305 80.4616 32.4624 65.7493 32.4624C53.2977 32.4624 42.4905 41.3294 39.8082 53.2539H34.7202C33.8564 52.0025 32.4828 51.1284 30.8483 51.1284H15.6125C11.179 51.1284 7.57031 54.7331 7.57031 59.1666C7.57031 63.6001 11.179 67.2088 15.6125 67.2088ZM65.7493 36.5232C78.2211 36.5232 88.369 46.6711 88.369 59.1428C88.369 71.6423 78.2211 81.8101 65.7493 81.8101C54.5109 81.8101 45.1045 73.7877 43.3795 62.6761C43.1812 61.6173 43.086 60.4594 43.086 59.1428C43.086 57.858 43.1812 56.7159 43.3914 55.5976C45.0847 44.724 54.6973 36.5232 65.7493 36.5232ZM35.6506 57.3147H39.0848C39.0451 57.9016 39.0253 58.5083 39.0253 59.1428C39.0253 59.7971 39.0451 60.4197 39.0887 61.0185H35.6506V57.3147ZM15.6125 55.1891H30.8483C31.2488 55.1891 31.574 55.5143 31.574 55.9109V62.4223C31.574 62.8229 31.2488 63.148 30.8483 63.148H15.6125C13.4156 63.148 11.6311 61.3635 11.6311 59.1666C11.6311 56.9736 13.4156 55.1891 15.6125 55.1891Z" fill="#3C7CFF"/>
<path d="M50.133 60.6775C48.5388 61.2921 47.6942 63.0885 48.2057 64.7501C48.3921 65.3727 48.6261 65.9517 49.0187 66.8915C49.7721 68.3984 51.5051 69.0964 53.2222 68.5174C53.932 68.2398 54.7687 68.4341 55.3477 69.0131C55.9267 69.5802 56.1012 70.4486 55.8077 71.1902C55.1137 72.8478 55.7641 74.7077 57.3107 75.5087C57.9729 75.8577 58.6312 76.1392 59.2776 76.3732C60.8956 77.0156 62.7356 76.2542 63.4613 74.6601C64.1672 73.1492 66.6219 73.1571 67.2524 74.8187C67.7719 76.0798 69.0091 76.8491 70.29 76.8491C70.635 76.8491 70.984 76.7936 71.3211 76.6786C72.0507 76.4525 72.7526 76.1948 73.3951 75.8934C74.9377 75.1875 75.6713 73.407 75.0963 71.7256C74.8147 70.9483 74.9892 70.1155 75.5404 69.5643C76.1591 68.9655 77.0315 68.799 77.8167 69.1162C79.4426 69.7507 81.2786 69.1043 82.0757 67.5855C82.4088 66.951 82.6825 66.3165 82.9957 65.5313C83.543 63.8975 82.7975 62.1725 81.1914 61.4071C80.4657 61.0819 80.0136 60.3721 80.0136 59.5592C80.0136 58.7105 80.5371 57.961 81.3659 57.6359C82.9878 56.9776 83.7968 55.1534 83.2297 53.5354C83.0076 52.8415 82.7538 52.1475 82.4643 51.5487C81.7585 49.9307 79.8986 49.1931 78.2965 49.8157C77.5074 50.0894 76.6786 49.9228 76.1234 49.3676C75.5285 48.7569 75.3541 47.8924 75.6673 47.1231C76.3534 45.4655 75.6991 43.6096 74.089 42.7768C73.4546 42.4715 72.8082 42.1741 72.1618 41.9361C70.528 41.3254 68.7434 42.0749 67.9741 43.7048C67.3039 45.1562 64.8215 45.1007 64.2029 43.5581C63.5763 41.956 61.8156 41.1272 60.1302 41.6427L60.0945 41.6506C59.4283 41.8647 58.7621 42.1384 58.0403 42.4477C56.4779 43.1972 55.7681 45.0055 56.3788 46.6274C56.6524 47.3769 56.47 48.2176 55.9108 48.7728C55.316 49.3676 54.4475 49.5342 53.6901 49.2487C52.0365 48.5586 50.1845 49.205 49.2883 50.9261C49.0028 51.5289 48.7212 52.1356 48.5031 52.7304C47.8647 54.3722 48.6578 56.2162 50.2321 56.8943C50.9618 57.2393 51.4297 57.9769 51.4297 58.7621C51.4297 59.6107 50.9102 60.3761 50.133 60.6775ZM55.4905 58.7621C55.4905 56.6564 54.3762 54.6855 52.552 53.5473C52.5996 53.4284 52.6551 53.3134 52.7066 53.1944C54.8718 53.8091 57.1957 53.2301 58.7779 51.6478C60.2928 50.1409 60.8916 47.936 60.384 45.866C60.503 45.8184 60.6219 45.7708 60.7449 45.7272C61.8116 47.6941 63.8499 48.9274 66.1222 48.9274C68.2874 48.9274 70.2781 47.7854 71.3568 45.985C71.4757 46.0405 71.5947 46.0921 71.7137 46.1436C71.0792 48.2692 71.6462 50.593 73.2364 52.2228C74.7354 53.7218 76.9403 54.3127 79.0262 53.821C79.0738 53.9439 79.1174 54.0629 79.165 54.1858C77.1901 55.2525 75.9529 57.2869 75.9529 59.5592C75.9529 61.7283 77.1029 63.723 78.9112 64.7937C78.8596 64.9127 78.8041 65.0277 78.7526 65.1467C76.6389 64.528 74.315 65.0832 72.6852 66.6774C71.1704 68.1922 70.5755 70.4169 71.0792 72.4671C70.9562 72.5147 70.8293 72.5623 70.7024 72.6059C69.6595 70.6588 67.5974 69.3938 65.3489 69.3938C63.1758 69.3938 61.2287 70.5002 60.1064 72.3402C59.9874 72.2887 59.8724 72.2371 59.7535 72.1856C60.388 70.0204 59.805 67.6886 58.2029 66.1262C56.6564 64.5796 54.4198 63.9927 52.4251 64.5082C52.3775 64.3892 52.3299 64.2703 52.2863 64.1473C54.2294 63.1004 55.4905 61.0225 55.4905 58.7621Z" fill="#3C7CFF"/>
<path d="M65.7335 67.2485C70.1869 67.2485 73.8074 63.628 73.8074 59.1746C73.8074 54.7213 70.1869 51.1007 65.7335 51.1007C61.2841 51.1007 57.6636 54.7213 57.6636 59.1746C57.6636 63.628 61.2841 67.2485 65.7335 67.2485ZM65.7335 55.1615C67.9463 55.1615 69.7466 56.9618 69.7466 59.1746C69.7466 61.3874 67.9463 63.1878 65.7335 63.1878C63.5247 63.1878 61.7243 61.3874 61.7243 59.1746C61.7243 56.9618 63.5247 55.1615 65.7335 55.1615Z" fill="#3C7CFF"/>
</svg>
