<svg width="102" height="86" viewBox="0 0 102 86" fill="none" xmlns="http://www.w3.org/2000/svg">
<path d="M75.0328 53.9171L75.0328 53.9171L75.0314 53.9184C73.3643 55.5352 72.451 57.686 72.451 59.9611V65.7465L70.5168 68.0433L70.5168 68.0433L70.5148 68.0456C70.2747 68.338 70.1377 68.7006 70.1377 69.094V71.087C70.1377 71.9929 70.8795 72.716 71.7757 72.716H76.8959C77.1316 74.9992 79.0523 76.7909 81.398 76.7909C83.7436 76.7909 85.6643 74.9992 85.9 72.716H91.0202C91.9213 72.716 92.6583 71.9923 92.6583 71.087V69.094C92.6583 68.714 92.5214 68.3433 92.2825 68.0473L92.2826 68.0473L92.2785 68.0424L90.327 65.7459V60.2593C90.327 56.5445 87.9551 53.31 84.655 52.0002V50.9884C84.655 49.1863 83.186 47.7223 81.3889 47.7223C79.5869 47.7223 78.1228 49.1913 78.1228 50.9884V51.9883C76.9731 52.4225 75.9201 53.069 75.0328 53.9171ZM80.9094 50.9765V50.9748C80.9094 50.7036 81.1266 50.4864 81.3979 50.4864C81.6691 50.4864 81.8863 50.7036 81.8863 50.9748V51.3715C81.8145 51.3656 81.7389 51.3612 81.661 51.361C81.41 51.3511 81.1527 51.3633 80.9067 51.379L80.9094 50.9765ZM74.8273 67.2361L74.828 67.2352C75.0913 66.9203 75.2376 66.5303 75.2376 66.1184V59.9437C75.2376 58.4305 75.8577 56.9907 76.9724 55.8969C78.2003 54.7166 79.8428 54.079 81.5857 54.1347L81.5872 54.1347C84.8813 54.2201 87.5495 56.9695 87.5495 60.2507V66.1273C87.5495 66.5392 87.6958 66.9292 87.9591 67.2441L87.9598 67.245L89.8716 69.5106L89.8716 69.9255H72.9154V69.5018L74.8273 67.2361ZM81.3889 74.0004C80.5815 74.0004 79.9065 73.4528 79.6985 72.7032H83.0735C82.8835 73.4518 82.2017 74.0004 81.3889 74.0004Z" fill="#3C7CFF" stroke="#3C7CFF" stroke-width="0.5"/>
<path d="M87.9637 50.5841L87.9638 50.5841C88.0321 50.2358 88.371 49.9701 88.7432 50.0445L88.7514 50.0462L88.7594 50.0483C90.7328 50.5823 93.7422 52.5998 93.6596 57.2294L93.6595 57.2346L93.6594 57.2346C93.6454 57.5999 93.3361 57.8964 92.9642 57.8749L92.9646 57.875L92.9781 57.6253L92.9634 57.8749L87.9637 50.5841ZM87.9637 50.5841L87.9627 50.5903M87.9637 50.5841L87.9627 50.5903M87.9627 50.5903L87.7138 52.0571M87.9627 50.5903L87.7138 52.0571M87.7138 52.0571C87.6567 52.3756 87.8447 52.688 88.1565 52.7836L87.7138 52.0571ZM91.4846 57.795C91.4851 57.795 91.4857 57.795 91.4863 57.795L91.4967 57.5453L91.4832 57.7949L91.4846 57.795Z" fill="#3C7CFF" stroke="#3C7CFF" stroke-width="0.5"/>
<path d="M73.7406 50.0689L73.7406 50.0689L69.0846 57.2471H68.8346C68.8346 57.2478 68.8346 57.2485 68.8346 57.2493C68.8359 57.6284 69.1697 57.9112 69.526 57.8972L69.526 57.8973L69.5296 57.8971L71.011 57.817L71.011 57.817L71.0128 57.8169C71.371 57.795 71.6243 57.4939 71.6123 57.152C71.5958 55.5477 72.0887 54.5283 72.6686 53.8798C73.2537 53.2255 73.9453 52.9291 74.3489 52.8064L74.362 52.8024L74.3746 52.797C74.6552 52.6767 74.8478 52.3798 74.7891 52.0558C74.789 52.0557 74.789 52.0555 74.789 52.0554L74.5271 50.5903C74.467 50.2186 74.098 49.9814 73.7406 50.0689Z" fill="#3C7CFF" stroke="#3C7CFF" stroke-width="0.5"/>
<path d="M52.2879 51.009L52.2879 51.009C52.5808 50.7685 53.0913 50.5003 53.8758 50.589M52.2879 51.009L53.8479 50.8374M52.2879 51.009L52.285 51.0115C51.222 51.912 49.5794 53.6677 48.0534 55.3758C46.5814 57.0237 45.206 58.6407 44.5403 59.4357H39.3944C38.9049 59.4357 38.5083 59.8323 38.5083 60.3218V74.2282C38.5083 74.7177 38.9049 75.1143 39.3944 75.1143H57.9803C59.7639 75.1143 61.2892 73.8552 61.6418 72.1113L61.6419 72.1108L63.3502 63.5695C63.641 62.1157 63.0586 60.6037 61.7549 59.7279C61.1061 59.286 60.3394 59.0931 59.5777 59.0931H55.3526M52.2879 51.009L55.3526 59.0931M53.8758 50.589C53.8759 50.589 53.8759 50.589 53.876 50.589L53.8479 50.8374M53.8758 50.589C53.8758 50.589 53.8758 50.589 53.8757 50.589L53.8479 50.8374M53.8758 50.589C54.4143 50.6494 55.053 50.8852 55.6196 51.19C56.1838 51.4935 56.7122 51.8845 57.0102 52.2794M53.8479 50.8374C54.8399 50.9486 56.2769 51.7227 56.8107 52.43M57.0102 52.2794L57.0102 52.2794L56.8107 52.43M57.0102 52.2794L57.0123 52.2822C57.1012 52.3999 57.2251 52.564 57.2953 52.8351C57.3645 53.1029 57.377 53.4547 57.2924 53.9547C57.1315 54.9063 56.6087 56.4516 55.3526 59.0931M57.0102 52.2794L56.8107 52.43M56.8107 52.43L55.3526 59.0931M60.6145 63.0302L60.6144 63.0309L58.9148 71.558C58.9147 71.5582 58.9147 71.5584 58.9146 71.5587C58.8223 72.0117 58.4352 72.3275 57.9764 72.3275H46.5715V61.325C47.736 59.9443 51.7262 55.2549 53.7757 53.4012C53.8837 53.4368 54.0131 53.4915 54.1485 53.5586C54.2763 53.622 54.4016 53.6925 54.5094 53.7604C54.3929 54.2133 54.1225 54.9436 53.7574 55.8185C53.3488 56.7978 52.8306 57.9373 52.303 59.028C52.2214 59.1913 51.8362 59.9616 51.5084 60.6083C51.2041 61.1998 51.6361 61.884 52.2871 61.884H59.6762C59.9673 61.884 60.2369 62.0113 60.4149 62.2346C60.5979 62.4642 60.6704 62.7544 60.6145 63.0302ZM46.5715 72.5775H46.3215V72.3275L46.5715 72.5775ZM41.2772 72.3275V62.2132H43.7933V72.3275H41.2772Z" fill="#3C7CFF" stroke="#3C7CFF" stroke-width="0.5"/>
<path d="M34.0346 63.7788C34.0437 57.9327 29.2737 53.1632 23.4193 53.1632H17.9209C12.0665 53.1632 7.30566 57.9194 7.30566 63.7785C7.30566 69.6329 12.0618 74.3937 17.9209 74.3937H23.4193C29.2736 74.3937 34.0344 69.6378 34.0346 63.7788ZM34.0346 63.7788L33.7846 63.7785H34.0346C34.0346 63.7786 34.0346 63.7787 34.0346 63.7788ZM23.4193 71.6204H17.9209C13.5928 71.6204 10.0833 68.0981 10.0833 63.7828C10.0833 59.4678 13.6059 55.9452 17.9209 55.9452H23.4193C27.7474 55.9452 31.2569 59.4675 31.2569 63.7828C31.2569 68.1024 27.7475 71.6204 23.4193 71.6204Z" fill="#3C7CFF" stroke="#3C7CFF" stroke-width="0.5"/>
<path d="M25.8774 58.7251L19.4821 65.7846L15.9499 62.8729L15.9499 62.8729L15.9476 62.871C15.6632 62.6421 15.2428 62.6717 15.0051 62.9661C15.0049 62.9663 15.0047 62.9666 15.0045 62.9669L14.0937 64.0821L14.0936 64.0821L14.0925 64.0835C13.8637 64.3678 13.8931 64.7881 14.1873 65.0258C14.1876 65.026 14.188 65.0263 14.1884 65.0266L19.4936 69.3846L19.4936 69.3847L19.4999 69.3896C19.6594 69.5123 19.8864 69.4929 20.0197 69.3463L20.0201 69.3459L27.9457 60.5885C28.2102 60.3067 28.1591 59.8863 27.896 59.6435L27.896 59.6435L27.8942 59.6418L26.824 58.6737C26.5422 58.4093 26.1218 58.4604 25.879 58.7234L25.8774 58.7251Z" fill="#3C7CFF" stroke="#3C7CFF" stroke-width="0.5"/>
<path d="M101.25 46.4202C101.25 43.2321 98.6798 40.6465 95.5096 40.6229L95.5079 40.6223H95.4647H84.0644V4.44317C84.0644 2.41481 82.4136 0.75445 80.3756 0.75445L17.8068 0.75C15.7784 0.75 14.118 2.40077 14.118 4.43872V40.6224H6.53407C3.34425 40.6224 0.75 43.2167 0.75 46.4065V79.7403C0.75 82.9301 3.34425 85.5244 6.53407 85.5244H95.4659C98.6557 85.5244 101.25 82.9301 101.25 79.7403V46.4202ZM98.457 79.7534V80.0034H98.4603C98.3323 81.5454 97.0311 82.7598 95.4642 82.7598H6.51869C4.86001 82.7598 3.5123 81.4041 3.5123 79.7534V46.4196C3.5123 44.7605 4.85946 43.4132 6.51869 43.4132H95.4506C97.1097 43.4132 98.457 44.7604 98.457 46.4196V79.7534ZM16.8946 4.44317C16.8946 3.9451 17.3076 3.53213 17.8056 3.53213L80.3745 3.52768C80.8726 3.52768 81.2856 3.94068 81.2856 4.43872V40.6224H16.8946V4.44317Z" fill="#3C7CFF" stroke="#3C7CFF" stroke-width="0.5"/>
<path d="M41.4312 36.987L41.4313 36.9871L41.4353 36.9845L60.7203 24.3411L60.7214 24.3404C61.281 23.9693 61.2781 23.1466 60.723 22.7725L60.723 22.7725L60.7202 22.7707L41.4354 10.1415C41.4354 10.1414 41.4353 10.1414 41.4353 10.1414C40.8177 9.7359 39.9761 10.1709 39.9761 10.9332V36.1926C39.9761 36.9411 40.8016 37.3828 41.4312 36.987ZM42.7672 14.3283L56.8481 23.5561L42.7672 32.7838V14.3283Z" fill="#3C7CFF" stroke="#3C7CFF" stroke-width="0.5"/>
</svg>
