<svg width="100" height="99" viewBox="0 0 100 99" fill="none" xmlns="http://www.w3.org/2000/svg">
<path fill-rule="evenodd" clip-rule="evenodd" d="M92.6316 63.5171C90.7319 63.5129 89.0196 64.6544 88.2947 66.4083C87.5656 68.1622 87.9697 70.1787 89.307 71.5201C90.6485 72.8658 92.669 73.2657 94.4189 72.5408C96.1728 71.8159 97.3185 70.1036 97.3185 68.2081C97.3185 66.9624 96.8269 65.7709 95.9478 64.8919C95.0646 64.0128 93.8731 63.5171 92.6316 63.5171ZM49.9536 86.4718C48.0581 86.4677 46.3458 87.6133 45.6209 89.3631C44.8918 91.117 45.2959 93.1334 46.6374 94.4791C47.9789 95.8205 49.9952 96.2205 51.7492 95.4956C53.5031 94.7707 54.6446 93.0584 54.6446 91.1628C54.6446 88.5715 52.5448 86.4718 49.9536 86.4718ZM48.6205 83.9305L48.6246 72.8067C43.3253 72.5359 38.2385 70.632 34.0602 67.3616C29.8816 64.0912 26.8112 59.6127 25.2697 54.5345L13.5007 64.1874C15.5754 67.3703 14.8838 71.6072 11.905 73.9653C8.92208 76.3191 4.63936 76.015 2.02307 73.2612C-0.59737 70.5074 -0.680772 66.2121 1.8231 63.3583C4.32698 60.5004 8.59722 60.0254 11.6676 62.2585L24.5821 51.6683C23.7531 47.0606 24.1864 42.3071 25.8486 37.924C27.5109 33.5454 30.3313 29.696 34.01 26.7959L26.5734 17.9638V17.9597C23.3448 19.9677 19.1203 19.1845 16.829 16.1516C14.5376 13.1145 14.9376 8.8359 17.7497 6.28211C20.5618 3.72417 24.8612 3.73665 27.6609 6.30711C30.4605 8.87757 30.8396 13.1604 28.5316 16.1808L36.1722 25.2587C41.0758 22.1633 46.8705 20.8134 52.6372 21.4175C58.3989 22.0216 63.7898 24.5504 67.9439 28.5915L82.0465 11.2648C80.0219 8.05279 80.7801 3.82414 83.7963 1.51619C86.8125 -0.796033 91.0911 -0.425204 93.6658 2.36607C96.2405 5.15737 96.2654 9.45257 93.7241 12.2731C91.1786 15.0935 86.9042 15.5102 83.8629 13.2313L69.7774 30.5537C73.6435 35.1822 75.7599 41.0273 75.7516 47.0603C75.7516 48.5893 75.6183 50.1182 75.3517 51.6263L88.3163 62.2582C91.3909 60.021 95.6653 60.496 98.1733 63.358C100.681 66.216 100.598 70.5154 97.9775 73.2734C95.3571 76.0313 91.0659 76.3355 88.0831 73.9775C85.1001 71.6153 84.4086 67.3742 86.4833 64.1871L74.6598 54.4926H74.664C73.1309 59.5794 70.0604 64.0705 65.8777 67.3496C61.6949 70.6283 56.6039 72.5322 51.2962 72.8072V83.931C55.0332 84.6184 57.6328 88.043 57.287 91.8299C56.9412 95.6127 53.7667 98.5123 49.9672 98.5123C46.1635 98.5123 42.9889 95.6126 42.6473 91.8299C42.3015 88.0429 44.897 84.6184 48.634 83.931L48.6205 83.9305ZM88.2695 2.65409C86.374 2.65409 84.6617 3.79559 83.9326 5.54948C83.2077 7.29922 83.6076 9.31985 84.9491 10.6613C86.2906 12.0028 88.3069 12.4069 90.061 11.6778C91.8148 10.9529 92.9563 9.24063 92.9563 7.3451C92.9605 6.0994 92.4647 4.90788 91.5856 4.02886C90.7066 3.14981 89.5152 2.65409 88.2695 2.65409ZM22.6997 7.02438C20.8042 7.02438 19.0919 8.16587 18.367 9.91977C17.6421 11.6695 18.042 13.6859 19.3835 15.0274C20.725 16.3689 22.7414 16.773 24.4954 16.044C26.2451 15.3191 27.3907 13.611 27.3907 11.7154C27.3907 10.4697 26.895 9.27817 26.0159 8.39914C25.1368 7.51594 23.9454 7.02438 22.6997 7.02438ZM7.34395 63.517C5.44842 63.5128 3.73612 64.6543 3.0112 66.4082C2.28214 68.1621 2.68624 70.1786 4.02356 71.52C5.36504 72.8657 7.38556 73.2656 9.1354 72.5407C10.8893 71.8158 12.0351 70.1035 12.0351 68.208C12.0351 66.9623 11.5435 65.7708 10.6644 64.8918C9.78116 64.0127 8.58964 63.517 7.34395 63.517ZM49.9547 34.8787C52.8752 34.8746 55.4831 36.6951 56.483 39.4364C57.487 42.1777 56.6705 45.2481 54.4416 47.1311C58.0869 48.8684 60.4158 52.5429 60.4241 56.5841V59.0587C63.6986 56.1966 65.6651 52.1221 65.8609 47.7813C66.0609 43.4361 64.4694 39.2033 61.4657 36.0581C58.4619 32.9127 54.3042 31.1379 49.9547 31.1379C45.6095 31.1379 41.4475 32.9127 38.4437 36.0581C35.44 39.2035 33.8527 43.4363 34.0485 47.7813C34.2443 52.1224 36.2106 56.1968 39.4895 59.0587V56.5841C39.4978 52.5429 41.8266 48.8684 45.472 47.127C43.2432 45.2481 42.4307 42.1735 43.4306 39.4364C44.4346 36.6993 47.0426 34.8787 49.9547 34.8787ZM49.9547 37.5409C48.2216 37.5409 46.6551 38.5866 45.9928 40.1864C45.3262 41.7903 45.697 43.6359 46.9218 44.8607C48.1508 46.0897 49.9922 46.4564 51.5962 45.7939C53.2001 45.1274 54.2458 43.5609 54.2458 41.8278C54.2458 40.6904 53.7959 39.5989 52.9918 38.7948C52.1836 37.9907 51.0963 37.5409 49.9547 37.5409ZM57.762 60.9382V56.5847C57.7953 54.4892 56.9871 52.4727 55.5206 50.9813C54.0541 49.4899 52.0502 48.6483 49.9546 48.6483C47.8632 48.6483 45.8594 49.4898 44.3886 50.9813C42.9222 52.4727 42.1139 54.4892 42.1472 56.5847V60.9382C46.9966 63.6629 52.9125 63.6629 57.762 60.9382ZM49.9547 28.4754C45.0304 28.4754 40.3018 30.4335 36.8151 33.9164C33.3323 37.4034 31.3742 42.1319 31.3742 47.0602C31.3742 51.9846 33.3322 56.7131 36.8151 60.1998C40.3021 63.6826 45.0307 65.6407 49.9547 65.6407C54.8832 65.6407 59.6117 63.6827 63.0985 60.1998C66.5813 56.7128 68.5395 51.9842 68.5395 47.0602V47.0561C68.5395 42.1317 66.5815 37.4032 63.0944 33.9208C59.6115 30.4338 54.8829 28.4754 49.9547 28.4754ZM49.9547 23.9344C43.8264 23.9344 37.9435 26.3716 33.607 30.7085C29.2701 35.0413 26.8329 40.9238 26.8329 47.0562C26.8329 53.1886 29.2701 59.0716 33.607 63.4038C37.944 67.7407 43.8265 70.1779 49.9547 70.1779C56.0872 70.1779 61.9701 67.7407 66.3066 63.4038C70.6435 59.0711 73.0766 53.1886 73.0766 47.0562C73.0766 40.9238 70.6436 35.0407 66.3066 30.7085C61.9697 26.3716 56.0872 23.9344 49.9547 23.9344Z" fill="#3C7CFF"/>
</svg>
