<svg width="102" height="86" viewBox="0 0 102 86" fill="none" xmlns="http://www.w3.org/2000/svg">
<path d="M75.0326 53.7781L75.0326 53.7781L75.0313 53.7794C73.3641 55.3961 72.4508 57.5469 72.4508 59.822V65.6074L70.5166 67.9042L70.5166 67.9042L70.5146 67.9066C70.2745 68.1989 70.1375 68.5615 70.1375 68.955V70.948C70.1375 71.8538 70.8793 72.577 71.7755 72.577H76.8958C77.1314 74.8602 79.0522 76.6519 81.3978 76.6519C83.7434 76.6519 85.6641 74.8602 85.8998 72.577H91.0201C91.9212 72.577 92.6581 71.8533 92.6581 70.948V68.955C92.6581 68.5749 92.5212 68.2042 92.2823 67.9083L92.2824 67.9082L92.2783 67.9034L90.3268 65.6069V60.1203C90.3268 56.4054 87.955 53.171 84.6548 51.8612V50.8493C84.6548 49.0473 83.1859 47.5833 81.3887 47.5833C79.5867 47.5833 78.1226 49.0522 78.1226 50.8493V51.8492C76.9729 52.2835 75.92 52.93 75.0326 53.7781ZM80.9092 50.8375V50.8358C80.9092 50.5646 81.1265 50.3473 81.3977 50.3473C81.6689 50.3473 81.8861 50.5646 81.8861 50.8358V51.2325C81.8143 51.2266 81.7387 51.2221 81.6608 51.2219C81.4099 51.2121 81.1525 51.2242 80.9065 51.24L80.9092 50.8375ZM74.8271 67.097L74.8278 67.0962C75.0911 66.7813 75.2375 66.3913 75.2375 65.9794V59.8047C75.2375 58.2914 75.8575 56.8517 76.9722 55.7579C78.2001 54.5775 79.8426 53.9399 81.5855 53.9956L81.587 53.9957C84.8812 54.0811 87.5493 56.8304 87.5493 60.1116V65.9882C87.5493 66.4002 87.6957 66.7902 87.9589 67.105L87.9596 67.1059L89.8715 69.3716L89.8714 69.7865H72.9153V69.3627L74.8271 67.097ZM81.3888 73.8614C80.5813 73.8614 79.9063 73.3138 79.6983 72.5642H83.0733C82.8833 73.3127 82.2015 73.8614 81.3888 73.8614Z" fill="#3C7CFF" stroke="#3C7CFF" stroke-width="0.5"/>
<path d="M87.9637 50.445L87.9638 50.445C88.0321 50.0968 88.371 49.831 88.7432 49.9055L88.7514 49.9071L88.7594 49.9093C90.7328 50.4433 93.7422 52.4607 93.6596 57.0904L93.6595 57.0955L93.6594 57.0955C93.6454 57.4609 93.3361 57.7574 92.9642 57.7359L92.9646 57.7359L92.9781 57.4863L92.9634 57.7359L87.9637 50.445ZM87.9637 50.445L87.9627 50.4513M87.9637 50.445L87.9627 50.4513M87.9627 50.4513L87.7138 51.9181M87.9627 50.4513L87.7138 51.9181M87.7138 51.9181C87.6567 52.2365 87.8447 52.549 88.1565 52.6446L87.7138 51.9181ZM91.4846 57.6559C91.4851 57.656 91.4857 57.656 91.4863 57.656L91.4967 57.4062L91.4832 57.6559L91.4846 57.6559Z" fill="#3C7CFF" stroke="#3C7CFF" stroke-width="0.5"/>
<path d="M73.7406 49.9298L73.7406 49.9299C74.098 49.8424 74.467 50.0796 74.5271 50.4513L74.789 51.9164C74.789 51.9165 74.789 51.9166 74.7891 51.9168L74.7891 51.9171L74.543 51.9611C74.5786 52.1568 74.463 52.3481 74.2762 52.4282L73.7406 49.9298ZM73.7406 49.9298L73.7359 49.9311C71.761 50.4562 68.7531 52.4828 68.8346 57.1102M73.7406 49.9298L68.8346 57.1102M68.8346 57.1102C68.8346 57.1095 68.8346 57.1088 68.8346 57.108H69.0846L68.8347 57.1125C68.8347 57.1117 68.8346 57.111 68.8346 57.1102Z" fill="#3C7CFF" stroke="#3C7CFF" stroke-width="0.5"/>
<path d="M52.2877 50.87L52.2878 50.87C52.5807 50.6294 53.0912 50.3612 53.8758 50.45C53.8758 50.45 53.8759 50.45 53.8759 50.45L53.8478 50.6984C54.8398 50.8096 56.2767 51.5836 56.8106 52.291C57.1481 52.738 57.6972 53.4658 55.0755 58.9541L52.2877 50.87ZM52.2877 50.87L52.2848 50.8724C51.2219 51.7729 49.5793 53.5287 48.0533 55.2368C46.5812 56.8846 45.2059 58.5017 44.5402 59.2966H39.3943C38.9048 59.2966 38.5082 59.6933 38.5082 60.1828V74.0891C38.5082 74.5786 38.9048 74.9753 39.3943 74.9753H57.9802C59.7638 74.9753 61.2891 73.7161 61.6417 71.9722L61.6418 71.9717L63.3501 63.4304C63.6408 61.9766 63.0585 60.4647 61.7547 59.5888C61.1059 59.1469 60.3393 58.9541 59.5776 58.9541H55.3525M52.2877 50.87L55.3525 58.9541M55.3525 58.9541C56.6086 56.3126 57.1314 54.7673 57.2923 53.8157C57.3769 53.3157 57.3644 52.9639 57.2951 52.6961C57.225 52.4249 57.1011 52.2609 57.0122 52.1431L57.0101 52.1404C57.0101 52.1403 57.0101 52.1403 57.0101 52.1403L55.3525 58.9541ZM60.6144 62.8911L60.6142 62.8919L58.9147 71.4189C58.9146 71.419 58.9146 71.4191 58.9146 71.4192C58.8224 71.8724 58.4352 72.1885 57.9763 72.1885H46.5714V61.1859C47.7358 59.8053 51.726 55.1159 53.7756 53.2622C53.8836 53.2978 54.013 53.3525 54.1483 53.4196C54.2761 53.4829 54.4014 53.5534 54.5092 53.6214C54.3928 54.0742 54.1224 54.8045 53.7573 55.6795C53.3487 56.6588 52.8304 57.7983 52.3029 58.889C52.2212 59.0523 51.836 59.8226 51.5083 60.4693C51.2039 61.0608 51.636 61.745 52.287 61.745H59.6761C59.9672 61.745 60.2368 61.8723 60.4148 62.0956C60.5977 62.3252 60.6702 62.6154 60.6144 62.8911ZM41.2771 72.1885V62.0742H43.7932V72.1885H41.2771Z" fill="#3C7CFF" stroke="#3C7CFF" stroke-width="0.5"/>
<path d="M34.0348 63.6398C34.0439 57.7937 29.2739 53.0242 23.4195 53.0242H17.9211C12.0667 53.0242 7.30585 57.7803 7.30585 63.6394C7.30585 69.4938 12.062 74.2547 17.9211 74.2547H23.4195C29.2738 74.2547 34.0346 69.4987 34.0348 63.6398ZM34.0348 63.6398L33.7851 63.6394H34.0348C34.0348 63.6395 34.0348 63.6397 34.0348 63.6398ZM23.4195 71.4813H17.9211C13.593 71.4813 10.0835 67.959 10.0835 63.6437C10.0835 59.3287 13.6061 55.8062 17.9211 55.8062H23.4195C27.7476 55.8062 31.2571 59.3285 31.2571 63.6437C31.2571 67.9634 27.7477 71.4813 23.4195 71.4813Z" fill="#3C7CFF" stroke="#3C7CFF" stroke-width="0.5"/>
<path d="M25.8773 58.5861L19.482 65.6455L15.9498 62.7338L15.9498 62.7338L15.9475 62.732C15.6631 62.503 15.2427 62.5326 15.005 62.827C15.0048 62.8273 15.0046 62.8276 15.0044 62.8278L14.0935 63.943L14.0935 63.943L14.0924 63.9444C13.8635 64.2288 13.893 64.649 14.1872 64.8867C14.1875 64.887 14.1879 64.8873 14.1882 64.8876L19.4935 69.2456L19.4934 69.2457L19.4998 69.2506C19.6593 69.3733 19.8863 69.3538 20.0196 69.2073L20.02 69.2068L27.9456 60.4495C28.2101 60.1677 28.159 59.7473 27.8959 59.5045L27.8959 59.5044L27.8941 59.5028L26.8238 58.5347C26.5421 58.2703 26.1217 58.3213 25.8789 58.5844L25.8773 58.5861Z" fill="#3C7CFF" stroke="#3C7CFF" stroke-width="0.5"/>
<path d="M101.25 46.2811C101.25 43.0931 98.6799 40.5075 95.5097 40.4839L95.508 40.4833H95.4647H84.0644V4.30413C84.0644 2.27578 82.4136 0.615412 80.3756 0.615412L17.8068 0.610962C15.7784 0.610962 14.118 2.26173 14.118 4.29968V40.4834H6.53407C3.34425 40.4834 0.75 43.0776 0.75 46.2675V79.6012C0.75 82.7911 3.34425 85.3853 6.53407 85.3853H95.4659C98.6558 85.3853 101.25 82.7911 101.25 79.6012V46.2811ZM98.457 79.6143V79.8643H98.4603C98.3323 81.4064 97.0311 82.6207 95.4642 82.6207H6.51869C4.86001 82.6207 3.5123 81.265 3.5123 79.6143V46.2806C3.5123 44.6214 4.85946 43.2742 6.51869 43.2742H95.4506C97.1097 43.2742 98.457 44.6213 98.457 46.2806V79.6143ZM16.8946 4.30413C16.8946 3.80606 17.3076 3.39309 17.8056 3.39309L80.3745 3.38864C80.8726 3.38864 81.2856 3.80164 81.2856 4.29968V40.4834H16.8946V4.30413Z" fill="#3C7CFF" stroke="#3C7CFF" stroke-width="0.5"/>
<path d="M41.4312 36.848L41.4312 36.848L41.4352 36.8454L60.7203 24.202L60.7214 24.2013C61.281 23.8303 61.2781 23.0076 60.7229 22.6335L60.7229 22.6335L60.7202 22.6317L41.4354 10.0024C41.4353 10.0024 41.4353 10.0024 41.4352 10.0023C40.8177 9.59686 39.976 10.0319 39.976 10.7942V36.0536C39.976 36.8021 40.8015 37.2438 41.4312 36.848ZM42.7672 14.1893L56.8481 23.417L42.7672 32.6448V14.1893Z" fill="#3C7CFF" stroke="#3C7CFF" stroke-width="0.5"/>
</svg>
