<svg width="117" height="101" viewBox="0 0 117 101" fill="none" xmlns="http://www.w3.org/2000/svg">
<path d="M18.8597 33.2435C18.8597 32.2318 19.6737 31.4177 20.6855 31.4177H32.845C33.8568 31.4177 34.6708 32.2317 34.6708 33.2435C34.6708 34.2553 33.8568 35.0693 32.845 35.0693H20.6855C19.6737 35.0693 18.8597 34.2553 18.8597 33.2435ZM32.8358 64.3828H20.6857C19.674 64.3828 18.8599 65.1969 18.8599 66.2086C18.8599 67.2204 19.674 68.0344 20.6857 68.0344H32.8452C33.857 68.0344 34.6711 67.2204 34.6711 66.2086C34.6711 65.1969 33.8476 64.3828 32.8358 64.3828ZM40.6863 47.9002H20.6857C19.674 47.9002 18.8599 48.7142 18.8599 49.726C18.8599 50.7378 19.674 51.5518 20.6857 51.5518H40.6863C41.6981 51.5518 42.5121 50.7378 42.5121 49.726C42.5121 48.7142 41.6889 47.9002 40.6863 47.9002ZM69.6734 48.5716C69.6734 49.5834 70.4874 50.3974 71.4992 50.3974C72.511 50.3974 73.325 49.5834 73.325 48.5716C73.325 44.1933 69.7563 40.6246 65.378 40.6246H64.4123C62.0346 40.6246 60.103 38.6931 60.103 36.3153V20.2695L62.4116 22.5781C63.1199 23.2863 64.2696 23.2863 64.9916 22.5781C65.6999 21.8698 65.6999 20.7201 64.9916 19.9981L59.574 14.5805C58.8658 13.8722 57.7161 13.8722 56.994 14.5805L51.5764 19.9981C50.8681 20.7063 50.8681 21.856 51.5764 22.5781C51.9305 22.9322 52.3996 23.107 52.8594 23.107C53.3285 23.107 53.7884 22.9322 54.1425 22.5781L56.4511 20.2695V36.3295C56.4511 40.7077 60.0199 44.2765 64.3981 44.2765H65.3639C67.7415 44.2765 69.6734 46.2032 69.6734 48.5716ZM115.121 29.8861L84.1099 60.8971V92.897C84.1099 96.9487 80.8124 100.255 76.7515 100.255H7.35833C3.30666 100.255 0 96.9579 0 92.897V83.2208C0 80.443 2.26272 78.1711 5.0497 78.1711H8.06203L8.06662 6.69397C8.06662 3.1482 10.9502 0.255371 14.5052 0.255371H77.6668C81.2126 0.255371 84.1054 3.1389 84.1054 6.69397V40.8731L105.095 19.8836C107.003 17.9751 110.112 17.9751 112.016 19.8836L115.125 22.9925C116.045 23.9123 116.551 25.1448 116.551 26.4555C116.555 27.734 116.05 28.9571 115.121 29.8861ZM70.3916 96.6174C69.7569 95.5321 69.389 94.2627 69.389 92.9107L69.3936 83.2206C69.3936 82.4434 68.759 81.818 67.9818 81.818H5.04976C4.27253 81.818 3.64708 82.4434 3.64708 83.2206V92.9107C3.64708 94.9573 5.30736 96.6174 7.3538 96.6174H70.3916ZM80.4587 64.5492L79.8333 65.1747C79.5987 65.4092 79.2906 65.5886 78.9641 65.6576L69.205 67.9755C69.0625 68.0123 68.9245 68.0215 68.7819 68.0215C68.299 68.0215 67.8391 67.8329 67.4989 67.4926C67.0528 67.0465 66.8642 66.398 67.016 65.7864L69.3339 56.0136C69.4167 55.6825 69.5823 55.3881 69.8168 55.1444L80.4588 44.5024V6.69465C80.4588 5.15399 79.2125 3.90307 77.6673 3.90307H14.5057C12.965 3.90307 11.7141 5.1494 11.7141 6.69465V78.1812H67.9777C70.7693 78.1812 73.0274 80.4439 73.0274 83.2309V92.9209C73.0274 94.9675 74.6877 96.6276 76.7341 96.6276C78.7806 96.6276 80.4408 94.9673 80.4408 92.9209L80.4454 64.5495L80.4587 64.5492ZM71.2424 63.749L74.9492 62.866L72.1255 60.0423L71.2424 63.749ZM107.537 32.3153L102.676 27.4543L83.6364 46.4894C83.5904 46.5354 83.5444 46.5814 83.4938 46.632L73.6751 56.4507L78.5362 61.3118L80.9828 58.8652L107.537 32.3153ZM112.904 26.4287C112.904 26.0976 112.776 25.7802 112.541 25.5457L109.432 22.4368C109.198 22.2023 108.889 22.0735 108.549 22.0735C108.209 22.0735 107.901 22.2023 107.666 22.4368L105.242 24.8605L110.104 29.7216L112.541 27.2841C112.776 27.0726 112.904 26.7552 112.904 26.4287ZM57.8086 58.2026C57.1004 57.4943 55.9507 57.4943 55.2286 58.2026L53.1545 60.2767L51.0804 58.2026C50.3721 57.4943 49.2224 57.4943 48.5004 58.2026C47.7921 58.9108 47.7921 60.0605 48.5004 60.7826L50.5745 62.8567L48.5004 64.9308C47.7921 65.639 47.7921 66.7887 48.5004 67.5108C48.8545 67.8649 49.3236 68.0397 49.7834 68.0397C50.2433 68.0397 50.7124 67.8649 51.0665 67.5108L53.1406 65.4367L55.2147 67.5108C55.5688 67.8649 56.0379 68.0397 56.4978 68.0397C56.9576 68.0397 57.4268 67.8649 57.7808 67.5108C58.4891 66.8026 58.4891 65.6528 57.7808 64.9308L55.7067 62.8567L57.7808 60.7826C58.5258 60.0743 58.526 58.92 57.8086 58.2026ZM40.6866 14.9356H20.6861C19.6743 14.9356 18.8603 15.7496 18.8603 16.7614C18.8603 17.7732 19.6743 18.5872 20.6861 18.5872H40.6866C41.6984 18.5872 42.5125 17.7732 42.5125 16.7614C42.5033 15.7588 41.6892 14.9356 40.6866 14.9356Z" fill="#3C7CFF"/>
</svg>
