<svg width="94" height="100" viewBox="0 0 94 100" fill="none" xmlns="http://www.w3.org/2000/svg">
<path d="M92.8503 65.3561L82.2021 49.1979C82.0663 48.9904 81.8898 48.8128 81.6845 48.6749L73.6053 43.2406C73.5454 43.2 73.4834 43.1636 73.4193 43.1305C71.7668 42.2781 68.3262 40.5037 65.5572 43.2749C64.9936 43.8374 64.5733 44.5037 64.2995 45.2332C63.2781 44.6674 62.1508 44.4139 61.0385 44.4759V35.5658C69.9957 34.6267 77 27.0332 77 17.8332C77 8 69.0011 0 59.1668 0C54.784 0 50.7722 1.59572 47.6642 4.22781H10.1626C4.55936 4.22781 0 8.78717 0 14.3904V89.8374C0 95.4406 4.55936 100 10.1626 100H50.8749C56.4781 100 61.0374 95.4406 61.0374 89.8374V83.4599L69.8545 88.5123C70.1455 88.6791 70.4663 88.7594 70.784 88.7594C71.2684 88.7594 71.7476 88.5711 72.108 88.2107L92.6096 67.7091C93.2396 67.0813 93.339 66.0973 92.8503 65.3561ZM49.2438 51.7326L42.3529 44.8417C41.2353 43.7241 39.7647 43.0791 38.2139 43.0257C36.6171 42.9647 35.1262 43.5455 34.0278 44.646C31.7861 46.8877 31.8727 50.6225 34.2235 52.9722L49.3358 68.0845L45.2439 68.2107C41.1668 68.2984 37.9176 71.5209 38.0011 75.3947C38.0845 79.2139 41.3765 82.2631 45.3765 82.2631C45.4332 82.2631 45.4888 82.262 45.5444 82.261L57.2941 82.0096V84.0492H3.74332V19.7048H41.4332C42.3069 28.046 48.9529 34.692 57.2941 35.5658V46.1722C56.6299 46.8695 56.185 47.7166 55.954 48.6406C55.5027 48.5166 55.0417 48.4267 54.5668 48.4107C52.9765 48.3626 51.4791 48.9305 50.3797 50.031C49.8791 50.5315 49.5134 51.1144 49.2438 51.7326ZM59.1668 3.74332C66.9358 3.74332 73.2567 10.0642 73.2567 17.8332C73.2567 25.6021 66.9358 31.923 59.1668 31.923C51.3979 31.923 45.077 25.6021 45.077 17.8332C45.077 10.0642 51.3979 3.74332 59.1668 3.74332ZM10.1626 7.97112H44.3209C42.7636 10.308 41.7401 13.0289 41.4332 15.9615H3.74332V14.3904C3.74332 10.8513 6.62353 7.97112 10.1626 7.97112ZM50.8759 96.2567H10.1626C6.62246 96.2567 3.74332 93.3775 3.74332 89.8374V87.7914H57.2941V89.8374C57.2952 93.3775 54.415 96.2567 50.8759 96.2567ZM70.4749 84.5519L59.8727 78.477C59.5775 78.308 59.2225 78.2267 58.9027 78.2299L45.4663 78.5176C43.4802 78.5487 41.784 77.123 41.7454 75.3123C41.7069 73.5027 43.3134 71.9947 45.3433 71.9508L53.7797 71.6909C54.5262 71.6684 55.1872 71.2032 55.462 70.5102C55.7369 69.8171 55.5733 69.0246 55.0449 68.4973L36.8706 50.3251C35.9968 49.4503 35.907 48.062 36.6749 47.293C37.0332 46.9348 37.5134 46.7455 38.0856 46.7668C38.6866 46.7882 39.262 47.0438 39.707 47.4888L50.57 58.3519C50.5722 58.354 50.5733 58.3561 50.5754 58.3583L50.5786 58.3604L57.8556 65.6374C58.5872 66.369 59.7711 66.369 60.5027 65.6374C61.2342 64.907 61.2342 63.7209 60.5027 62.9904L53.2246 55.7123C52.3497 54.8364 52.2599 53.4481 53.0278 52.6791C53.3882 52.3209 53.9144 52.1401 54.4385 52.1529C55.0396 52.1743 55.615 52.4299 56.0599 52.8749L63.4364 60.2513C63.8021 60.6171 64.2802 60.8 64.7594 60.8C65.2385 60.8 65.7177 60.6171 66.0824 60.2513C66.8139 59.5198 66.8139 58.3348 66.0824 57.6043L60.2246 51.7465L60.2235 51.7455C59.7786 51.2995 59.5219 50.7241 59.5005 50.1241C59.4813 49.5722 59.6684 49.0717 60.0267 48.7134C60.3861 48.3551 60.8963 48.1658 61.4385 48.1872C62.0385 48.2086 62.615 48.4642 63.0599 48.9091L70.1914 56.0406C70.5572 56.4064 71.0353 56.5893 71.5144 56.5893C71.9936 56.5893 72.4727 56.4064 72.8374 56.0406C73.569 55.3102 73.569 54.1241 72.8374 53.3936L68.3989 48.9551C67.954 48.5091 67.6973 47.9337 67.6759 47.3337C67.6567 46.7818 67.8439 46.2813 68.2021 45.923C68.5882 45.5348 69.0289 45.0963 71.6064 46.4096L79.2824 51.5722L88.8845 66.1423L70.4749 84.5519Z" fill="#3C7CFF"/>
<path d="M22.9467 30.9188C22.2151 30.1872 21.0312 30.1872 20.2996 30.9188C19.5681 31.6493 19.5681 32.8343 20.2996 33.5658L25.72 38.9872C26.0857 39.353 26.5638 39.5359 27.043 39.5359C27.5221 39.5359 28.0012 39.353 28.366 38.9872C29.0975 38.2567 29.0975 37.0717 28.366 36.3402L22.9467 30.9188Z" fill="#3C7CFF"/>
<path d="M38.0055 29.4257L32.6654 34.7669C31.9338 35.4985 31.9338 36.6835 32.6654 37.414C33.0311 37.7797 33.5092 37.9626 33.9884 37.9626C34.4675 37.9626 34.9466 37.7797 35.3114 37.414L40.6515 32.0728C41.383 31.3412 41.383 30.1562 40.6515 29.4257C39.921 28.6942 38.737 28.6942 38.0055 29.4257Z" fill="#3C7CFF"/>
<path d="M23.9914 43.4406L18.6502 48.7818C17.9187 49.5123 17.9187 50.6973 18.6502 51.4288C19.016 51.7946 19.4941 51.9775 19.9732 51.9775C20.4524 51.9775 20.9315 51.7946 21.2962 51.4288L26.6374 46.0877C27.3689 45.3572 27.3689 44.1721 26.6374 43.4406C25.9058 42.709 24.7219 42.7101 23.9914 43.4406Z" fill="#3C7CFF"/>
<path d="M34.648 90.5669H26.3902C25.356 90.5669 24.5186 91.4054 24.5186 92.4386C24.5186 93.4717 25.356 94.3102 26.3902 94.3102H34.648C35.6822 94.3102 36.5196 93.4717 36.5196 92.4386C36.5196 91.4054 35.6822 90.5669 34.648 90.5669Z" fill="#3C7CFF"/>
<path d="M11.8472 13.8374H18.2034C19.2376 13.8374 20.0751 12.9989 20.0751 11.9658C20.0751 10.9326 19.2376 10.0941 18.2034 10.0941H11.8472C10.813 10.0941 9.97559 10.9326 9.97559 11.9658C9.97559 12.9989 10.8141 13.8374 11.8472 13.8374Z" fill="#3C7CFF"/>
<path d="M24.1627 13.8374H38.3092C39.3434 13.8374 40.1809 12.9989 40.1809 11.9658C40.1809 10.9326 39.3434 10.0941 38.3092 10.0941H24.1627C23.1284 10.0941 22.291 10.9326 22.291 11.9658C22.291 12.9989 23.1284 13.8374 24.1627 13.8374Z" fill="#3C7CFF"/>
<path d="M52.972 19.6331L58.0329 23.4855C58.3709 23.7433 58.7688 23.8674 59.1655 23.8674C59.7121 23.8674 60.2532 23.6288 60.6212 23.1732L67.3581 14.847C68.0083 14.0438 67.8843 12.8652 67.08 12.2149C66.2768 11.5657 65.0982 11.6887 64.4479 12.493L58.8543 19.4064L55.2383 16.6545C54.4179 16.0289 53.2425 16.1871 52.6158 17.0107C51.9901 17.8321 52.1484 19.0064 52.972 19.6331Z" fill="#3C7CFF"/>
</svg>
