<svg width="100" height="100" viewBox="0 0 100 100" fill="none" xmlns="http://www.w3.org/2000/svg">
<path d="M95 0H5C2.25 0 0 3.22966 0 7.17703V92.823C0 96.7703 2.25 100 5 100H95C97.75 100 100 96.7703 100 92.823V7.17703C100 3.22966 97.75 0 95 0ZM5 4.78469H95C95.9167 4.78469 96.6667 5.86124 96.6667 7.17703V16.7464H3.33333V7.17703C3.33333 5.86124 4.08333 4.78469 5 4.78469ZM95 95.2153H5C4.08333 95.2153 3.33333 94.1388 3.33333 92.823V21.5311H96.6667V92.823C96.6667 94.1388 95.9167 95.2153 95 95.2153Z" fill="#3C7CFF"/>
<path d="M78.7605 13.1579H86.7749C88.0906 13.1579 89.1672 12.0813 89.1672 10.7655C89.1672 9.44972 88.0906 8.37317 86.7749 8.37317H78.7605C77.4447 8.37317 76.3682 9.44972 76.3682 10.7655C76.3682 12.0813 77.4447 13.1579 78.7605 13.1579Z" fill="#3C7CFF"/>
<path d="M22.3882 55.413C22.1553 55.7236 22 56.1118 22 56.5C22 56.8882 22.1553 57.2764 22.4658 57.587C30.0745 65.1957 40.0124 69 50.028 69C59.9658 69 69.9814 65.1957 77.5901 57.587C77.9006 57.2764 78.0559 56.8882 78.0559 56.5C78.0559 56.1118 77.9006 55.7236 77.5901 55.413C62.295 40.1957 37.6056 40.1957 22.3882 55.413ZM49.9503 65.8944C44.8261 65.8944 40.6335 61.7019 40.6335 56.5776C40.6335 51.4534 44.8261 47.2609 49.9503 47.2609C55.0745 47.2609 59.2671 51.4534 59.2671 56.5776C59.2671 61.7019 55.0745 65.8944 49.9503 65.8944ZM40.5559 48.3478C38.6149 50.5994 37.528 53.3944 37.528 56.5C37.528 59.6056 38.6925 62.4006 40.5559 64.6522C35.1988 63.177 30.1522 60.5373 25.8043 56.5C30.0745 52.5404 35.1988 49.823 40.5559 48.3478ZM59.3447 64.6522C61.2857 62.4006 62.3727 59.6056 62.3727 56.5C62.3727 53.3944 61.2081 50.5994 59.3447 48.3478C64.7019 49.823 69.7485 52.4627 74.0963 56.5C69.8261 60.4596 64.7019 63.177 59.3447 64.6522Z" fill="#3C7CFF"/>
</svg>
