<svg width="97" height="97" viewBox="0 0 97 97" fill="none" xmlns="http://www.w3.org/2000/svg">
<g clip-path="url(#clip0_242_586)">
<mask id="path-1-outside-1_242_586" maskUnits="userSpaceOnUse" x="0" y="3" width="98" height="92" fill="black">
<rect fill="white" y="3" width="98" height="92"/>
<path d="M59.5424 90.7598H68.5284V56.6895H59.5424V90.7598Z"/>
<path d="M89.4655 46.5595C89.4655 45.7774 90.101 45.146 90.879 45.146L94.1092 45.1418L85.9868 34.7872C85.7424 34.4776 85.3717 34.2983 84.9766 34.2983C84.5774 34.2983 84.2107 34.4735 83.9663 34.7871L75.8439 45.1418H79.0701C79.8523 45.1418 80.4836 45.7774 80.4836 46.5554L80.4796 90.7646L89.4655 90.7648V46.5595Z"/>
<path d="M65.7178 34.0256C66.1129 33.5245 66.7973 33.3494 67.3839 33.6019L70.5853 34.9778L67.408 22.6436L56.2751 28.8271L58.8495 29.9309C59.2162 30.0898 59.4973 30.3953 59.6276 30.77C59.758 31.1489 59.7213 31.5603 59.5298 31.9106C56.5161 37.3853 48.593 47.2396 28.3846 55.9974C43.4812 53.9035 55.7542 46.6611 65.7178 34.0256Z"/>
<path d="M22.6204 6.82275C12.2538 6.82275 3.82184 15.2585 3.82184 25.6213C3.82184 35.9838 12.2534 44.4158 22.6203 44.4199C32.9869 44.4199 41.4188 35.9878 41.4188 25.6213C41.4188 15.2547 32.9869 6.82275 22.6204 6.82275Z"/>
<path d="M22.6203 12.8679C15.586 12.8679 9.86688 18.5906 9.86688 25.6213C9.86688 32.6516 15.5855 38.3707 22.6203 38.3748C29.6546 38.3748 35.3737 32.6521 35.3737 25.6213C35.3737 18.587 29.6511 12.8679 22.6203 12.8679Z"/>
<path d="M48.0916 62.5876H38.1036C36.8245 62.5876 35.7817 63.6304 35.7817 64.9095V91.2569C35.7817 92.5359 36.8245 93.5787 38.1036 93.5787H48.0916C49.3707 93.5787 50.4135 92.5359 50.4135 91.2569V64.9137C50.4135 63.6305 49.3707 62.5876 48.0916 62.5876ZM47.5906 90.7598L38.6046 90.7598V65.4146L47.5906 65.4146V90.7598ZM69.0295 53.8667H59.0414C57.7623 53.8667 56.7195 54.9095 56.7195 56.1886V91.261C56.7195 92.5401 57.7623 93.5829 59.0414 93.5829H69.0295C70.3086 93.5829 71.3514 92.5401 71.3514 91.261V56.1886C71.3514 54.9095 70.3126 53.8667 69.0295 53.8667ZM68.5284 90.7598H59.5424V56.6895H68.5284V90.7598ZM96.4108 43.5044L88.2069 33.0441C87.4248 32.0461 86.2475 31.4718 84.9766 31.4718C83.7056 31.4718 82.5284 32.0461 81.7463 33.0441L73.5424 43.5044C72.8866 44.3436 72.7644 45.4597 73.2328 46.4129C73.6972 47.3701 74.6504 47.9649 75.7135 47.9649H77.6607V91.2577C77.6607 92.5368 78.7034 93.5796 79.9825 93.5796H89.9706C91.2497 93.5796 92.2924 92.5368 92.2924 91.2577L92.2884 47.9691H94.2355C95.2986 47.9691 96.2518 47.3743 96.7162 46.4171C97.1846 45.4598 97.0666 44.3436 96.4108 43.5044ZM90.879 45.146C90.101 45.146 89.4655 45.7774 89.4655 46.5595V90.7648L80.4796 90.7646L80.4836 46.5554C80.4836 45.7774 79.8523 45.1418 79.0701 45.1418H75.8439L83.9663 34.7871C84.2107 34.4735 84.5774 34.2983 84.9766 34.2983C85.3717 34.2983 85.7424 34.4776 85.9868 34.7872L94.1092 45.1418L90.879 45.146ZM73.4695 34.8402L70.052 21.5769C69.8524 20.8111 69.3228 20.1919 68.5978 19.8783C67.8727 19.5646 67.058 19.6053 66.3656 19.9923L54.3942 26.6442C53.5388 27.1167 53.0418 28.0129 53.0907 28.9824C53.1396 29.96 53.7262 30.8073 54.6265 31.1902L56.264 31.8949C52.4227 37.9929 42.7441 48.2168 18.8296 56.7187C18.182 56.9509 17.7909 57.6149 17.9131 58.2951C18.0312 58.9713 18.6178 59.4642 19.3021 59.4642H19.3103C30.8582 59.3868 41.1965 56.7635 50.0363 51.6676C56.3827 48.0097 62.0243 43.0808 67.2591 36.6242L70.0127 37.8055C70.9089 38.1924 71.9272 38.0336 72.6727 37.3981C73.4059 36.7627 73.7114 35.785 73.4711 34.8401L73.4695 34.8402ZM67.3839 33.6019C66.7973 33.3494 66.1129 33.5245 65.7178 34.0256C55.7542 46.6611 43.4812 53.9035 28.3846 55.9974C48.593 47.2396 56.5161 37.3853 59.5298 31.9106C59.7213 31.5603 59.758 31.1489 59.6276 30.77C59.4973 30.3953 59.2162 30.0898 58.8495 29.9309L56.2751 28.8271L67.408 22.6436L70.5853 34.9778L67.3839 33.6019ZM27.1548 71.3137H17.1668C15.8877 71.3137 14.8449 72.3564 14.8449 73.6355V91.2609C14.8449 92.54 15.8877 93.5828 17.1668 93.5828H27.1548C28.4339 93.5828 29.4767 92.54 29.4767 91.2609V73.6355C29.4767 72.3564 28.4339 71.3137 27.1548 71.3137ZM26.6497 90.7598H17.6637V74.1365H26.6497V90.7598ZM44.2386 25.6214C44.2386 13.698 34.5397 4 22.6172 4C10.698 4 1 13.6989 1 25.6214C1 37.5439 10.6989 47.2427 22.6214 47.2427C34.5405 47.2387 44.2386 37.5398 44.2386 25.6214ZM3.82184 25.6213C3.82184 15.2585 12.2538 6.82275 22.6204 6.82275C32.9869 6.82275 41.4188 15.2547 41.4188 25.6213C41.4188 35.9878 32.9869 44.4199 22.6203 44.4199C12.2534 44.4158 3.82184 35.9838 3.82184 25.6213ZM38.1976 25.6214C38.1976 17.0305 31.2117 10.0441 22.6203 10.0441C14.0289 10.0441 7.04301 17.03 7.04301 25.6214C7.04301 34.2128 14.0289 41.1987 22.6203 41.1987C31.2117 41.1987 38.1976 34.2087 38.1976 25.6214ZM9.86688 25.6213C9.86688 18.5906 15.586 12.8679 22.6203 12.8679C29.6511 12.8679 35.3737 18.587 35.3737 25.6213C35.3737 32.6521 29.6546 38.3748 22.6203 38.3748C15.5855 38.3707 9.86688 32.6516 9.86688 25.6213ZM22.6203 36.2204C21.8423 36.2204 21.2068 35.589 21.2068 34.8069V33.6826C19.2231 33.0757 17.7729 31.2263 17.7729 29.0471C17.7729 28.269 18.4043 27.6336 19.1864 27.6336C19.9644 27.6336 20.5999 28.2649 20.5999 29.0471C20.5999 30.1632 21.5083 31.0675 22.6203 31.0675C23.6998 31.0675 24.9626 30.5379 24.9626 29.0471C24.9626 27.5562 23.6998 27.0266 22.6203 27.0266C19.6263 27.0266 17.4552 24.99 17.4552 22.1834C17.4552 19.8411 18.9665 18.0325 21.2069 17.4989V16.4236C21.2069 15.6456 21.8383 15.0101 22.6204 15.0101C23.3984 15.0101 24.0339 15.6415 24.0339 16.4236V17.5478C26.0177 18.1548 27.4679 20.0041 27.4679 22.1834C27.4679 22.9614 26.8365 23.5969 26.0544 23.5969C25.2763 23.5969 24.6409 22.9655 24.6409 22.1834C24.6409 21.0673 23.7325 20.163 22.6204 20.163C21.5409 20.163 20.2782 20.6925 20.2782 22.1834C20.2782 23.6742 21.5409 24.2038 22.6204 24.2038C25.6144 24.2038 27.7855 26.2405 27.7855 29.0471C27.7855 31.3893 26.2743 33.1979 24.0338 33.7315V34.8069C24.0298 35.589 23.3984 36.2204 22.6203 36.2204Z"/>
</mask>
<path d="M59.5424 90.7598H68.5284V56.6895H59.5424V90.7598Z" fill="#00B0FB" fill-opacity="0.5"/>
<path d="M89.4655 46.5595C89.4655 45.7774 90.101 45.146 90.879 45.146L94.1092 45.1418L85.9868 34.7872C85.7424 34.4776 85.3717 34.2983 84.9766 34.2983C84.5774 34.2983 84.2107 34.4735 83.9663 34.7871L75.8439 45.1418H79.0701C79.8523 45.1418 80.4836 45.7774 80.4836 46.5554L80.4796 90.7646L89.4655 90.7648V46.5595Z" fill="#00B0FB"/>
<path d="M65.7178 34.0256C66.1129 33.5245 66.7973 33.3494 67.3839 33.6019L70.5853 34.9778L67.408 22.6436L56.2751 28.8271L58.8495 29.9309C59.2162 30.0898 59.4973 30.3953 59.6276 30.77C59.758 31.1489 59.7213 31.5603 59.5298 31.9106C56.5161 37.3853 48.593 47.2396 28.3846 55.9974C43.4812 53.9035 55.7542 46.6611 65.7178 34.0256Z" fill="#00B0FB"/>
<path d="M22.6204 6.82275C12.2538 6.82275 3.82184 15.2585 3.82184 25.6213C3.82184 35.9838 12.2534 44.4158 22.6203 44.4199C32.9869 44.4199 41.4188 35.9878 41.4188 25.6213C41.4188 15.2547 32.9869 6.82275 22.6204 6.82275Z" fill="#00B0FB" fill-opacity="0.5"/>
<path d="M22.6203 12.8679C15.586 12.8679 9.86688 18.5906 9.86688 25.6213C9.86688 32.6516 15.5855 38.3707 22.6203 38.3748C29.6546 38.3748 35.3737 32.6521 35.3737 25.6213C35.3737 18.587 29.6511 12.8679 22.6203 12.8679Z" fill="#00B0FB"/>
<path d="M48.0916 62.5876H38.1036C36.8245 62.5876 35.7817 63.6304 35.7817 64.9095V91.2569C35.7817 92.5359 36.8245 93.5787 38.1036 93.5787H48.0916C49.3707 93.5787 50.4135 92.5359 50.4135 91.2569V64.9137C50.4135 63.6305 49.3707 62.5876 48.0916 62.5876ZM47.5906 90.7598L38.6046 90.7598V65.4146L47.5906 65.4146V90.7598ZM69.0295 53.8667H59.0414C57.7623 53.8667 56.7195 54.9095 56.7195 56.1886V91.261C56.7195 92.5401 57.7623 93.5829 59.0414 93.5829H69.0295C70.3086 93.5829 71.3514 92.5401 71.3514 91.261V56.1886C71.3514 54.9095 70.3126 53.8667 69.0295 53.8667ZM68.5284 90.7598H59.5424V56.6895H68.5284V90.7598ZM96.4108 43.5044L88.2069 33.0441C87.4248 32.0461 86.2475 31.4718 84.9766 31.4718C83.7056 31.4718 82.5284 32.0461 81.7463 33.0441L73.5424 43.5044C72.8866 44.3436 72.7644 45.4597 73.2328 46.4129C73.6972 47.3701 74.6504 47.9649 75.7135 47.9649H77.6607V91.2577C77.6607 92.5368 78.7034 93.5796 79.9825 93.5796H89.9706C91.2497 93.5796 92.2924 92.5368 92.2924 91.2577L92.2884 47.9691H94.2355C95.2986 47.9691 96.2518 47.3743 96.7162 46.4171C97.1846 45.4598 97.0666 44.3436 96.4108 43.5044ZM90.879 45.146C90.101 45.146 89.4655 45.7774 89.4655 46.5595V90.7648L80.4796 90.7646L80.4836 46.5554C80.4836 45.7774 79.8523 45.1418 79.0701 45.1418H75.8439L83.9663 34.7871C84.2107 34.4735 84.5774 34.2983 84.9766 34.2983C85.3717 34.2983 85.7424 34.4776 85.9868 34.7872L94.1092 45.1418L90.879 45.146ZM73.4695 34.8402L70.052 21.5769C69.8524 20.8111 69.3228 20.1919 68.5978 19.8783C67.8727 19.5646 67.058 19.6053 66.3656 19.9923L54.3942 26.6442C53.5388 27.1167 53.0418 28.0129 53.0907 28.9824C53.1396 29.96 53.7262 30.8073 54.6265 31.1902L56.264 31.8949C52.4227 37.9929 42.7441 48.2168 18.8296 56.7187C18.182 56.9509 17.7909 57.6149 17.9131 58.2951C18.0312 58.9713 18.6178 59.4642 19.3021 59.4642H19.3103C30.8582 59.3868 41.1965 56.7635 50.0363 51.6676C56.3827 48.0097 62.0243 43.0808 67.2591 36.6242L70.0127 37.8055C70.9089 38.1924 71.9272 38.0336 72.6727 37.3981C73.4059 36.7627 73.7114 35.785 73.4711 34.8401L73.4695 34.8402ZM67.3839 33.6019C66.7973 33.3494 66.1129 33.5245 65.7178 34.0256C55.7542 46.6611 43.4812 53.9035 28.3846 55.9974C48.593 47.2396 56.5161 37.3853 59.5298 31.9106C59.7213 31.5603 59.758 31.1489 59.6276 30.77C59.4973 30.3953 59.2162 30.0898 58.8495 29.9309L56.2751 28.8271L67.408 22.6436L70.5853 34.9778L67.3839 33.6019ZM27.1548 71.3137H17.1668C15.8877 71.3137 14.8449 72.3564 14.8449 73.6355V91.2609C14.8449 92.54 15.8877 93.5828 17.1668 93.5828H27.1548C28.4339 93.5828 29.4767 92.54 29.4767 91.2609V73.6355C29.4767 72.3564 28.4339 71.3137 27.1548 71.3137ZM26.6497 90.7598H17.6637V74.1365H26.6497V90.7598ZM44.2386 25.6214C44.2386 13.698 34.5397 4 22.6172 4C10.698 4 1 13.6989 1 25.6214C1 37.5439 10.6989 47.2427 22.6214 47.2427C34.5405 47.2387 44.2386 37.5398 44.2386 25.6214ZM3.82184 25.6213C3.82184 15.2585 12.2538 6.82275 22.6204 6.82275C32.9869 6.82275 41.4188 15.2547 41.4188 25.6213C41.4188 35.9878 32.9869 44.4199 22.6203 44.4199C12.2534 44.4158 3.82184 35.9838 3.82184 25.6213ZM38.1976 25.6214C38.1976 17.0305 31.2117 10.0441 22.6203 10.0441C14.0289 10.0441 7.04301 17.03 7.04301 25.6214C7.04301 34.2128 14.0289 41.1987 22.6203 41.1987C31.2117 41.1987 38.1976 34.2087 38.1976 25.6214ZM9.86688 25.6213C9.86688 18.5906 15.586 12.8679 22.6203 12.8679C29.6511 12.8679 35.3737 18.587 35.3737 25.6213C35.3737 32.6521 29.6546 38.3748 22.6203 38.3748C15.5855 38.3707 9.86688 32.6516 9.86688 25.6213ZM22.6203 36.2204C21.8423 36.2204 21.2068 35.589 21.2068 34.8069V33.6826C19.2231 33.0757 17.7729 31.2263 17.7729 29.0471C17.7729 28.269 18.4043 27.6336 19.1864 27.6336C19.9644 27.6336 20.5999 28.2649 20.5999 29.0471C20.5999 30.1632 21.5083 31.0675 22.6203 31.0675C23.6998 31.0675 24.9626 30.5379 24.9626 29.0471C24.9626 27.5562 23.6998 27.0266 22.6203 27.0266C19.6263 27.0266 17.4552 24.99 17.4552 22.1834C17.4552 19.8411 18.9665 18.0325 21.2069 17.4989V16.4236C21.2069 15.6456 21.8383 15.0101 22.6204 15.0101C23.3984 15.0101 24.0339 15.6415 24.0339 16.4236V17.5478C26.0177 18.1548 27.4679 20.0041 27.4679 22.1834C27.4679 22.9614 26.8365 23.5969 26.0544 23.5969C25.2763 23.5969 24.6409 22.9655 24.6409 22.1834C24.6409 21.0673 23.7325 20.163 22.6204 20.163C21.5409 20.163 20.2782 20.6925 20.2782 22.1834C20.2782 23.6742 21.5409 24.2038 22.6204 24.2038C25.6144 24.2038 27.7855 26.2405 27.7855 29.0471C27.7855 31.3893 26.2743 33.1979 24.0338 33.7315V34.8069C24.0298 35.589 23.3984 36.2204 22.6203 36.2204Z" fill="black"/>
<path d="M59.5424 90.7598H68.5284V56.6895H59.5424V90.7598Z" stroke="black" stroke-width="2" mask="url(#path-1-outside-1_242_586)"/>
<path d="M89.4655 46.5595C89.4655 45.7774 90.101 45.146 90.879 45.146L94.1092 45.1418L85.9868 34.7872C85.7424 34.4776 85.3717 34.2983 84.9766 34.2983C84.5774 34.2983 84.2107 34.4735 83.9663 34.7871L75.8439 45.1418H79.0701C79.8523 45.1418 80.4836 45.7774 80.4836 46.5554L80.4796 90.7646L89.4655 90.7648V46.5595Z" stroke="black" stroke-width="2" mask="url(#path-1-outside-1_242_586)"/>
<path d="M65.7178 34.0256C66.1129 33.5245 66.7973 33.3494 67.3839 33.6019L70.5853 34.9778L67.408 22.6436L56.2751 28.8271L58.8495 29.9309C59.2162 30.0898 59.4973 30.3953 59.6276 30.77C59.758 31.1489 59.7213 31.5603 59.5298 31.9106C56.5161 37.3853 48.593 47.2396 28.3846 55.9974C43.4812 53.9035 55.7542 46.6611 65.7178 34.0256Z" stroke="black" stroke-width="2" mask="url(#path-1-outside-1_242_586)"/>
<path d="M22.6204 6.82275C12.2538 6.82275 3.82184 15.2585 3.82184 25.6213C3.82184 35.9838 12.2534 44.4158 22.6203 44.4199C32.9869 44.4199 41.4188 35.9878 41.4188 25.6213C41.4188 15.2547 32.9869 6.82275 22.6204 6.82275Z" stroke="black" stroke-width="2" mask="url(#path-1-outside-1_242_586)"/>
<path d="M22.6203 12.8679C15.586 12.8679 9.86688 18.5906 9.86688 25.6213C9.86688 32.6516 15.5855 38.3707 22.6203 38.3748C29.6546 38.3748 35.3737 32.6521 35.3737 25.6213C35.3737 18.587 29.6511 12.8679 22.6203 12.8679Z" stroke="black" stroke-width="2" mask="url(#path-1-outside-1_242_586)"/>
<path d="M48.0916 62.5876H38.1036C36.8245 62.5876 35.7817 63.6304 35.7817 64.9095V91.2569C35.7817 92.5359 36.8245 93.5787 38.1036 93.5787H48.0916C49.3707 93.5787 50.4135 92.5359 50.4135 91.2569V64.9137C50.4135 63.6305 49.3707 62.5876 48.0916 62.5876ZM47.5906 90.7598L38.6046 90.7598V65.4146L47.5906 65.4146V90.7598ZM69.0295 53.8667H59.0414C57.7623 53.8667 56.7195 54.9095 56.7195 56.1886V91.261C56.7195 92.5401 57.7623 93.5829 59.0414 93.5829H69.0295C70.3086 93.5829 71.3514 92.5401 71.3514 91.261V56.1886C71.3514 54.9095 70.3126 53.8667 69.0295 53.8667ZM68.5284 90.7598H59.5424V56.6895H68.5284V90.7598ZM96.4108 43.5044L88.2069 33.0441C87.4248 32.0461 86.2475 31.4718 84.9766 31.4718C83.7056 31.4718 82.5284 32.0461 81.7463 33.0441L73.5424 43.5044C72.8866 44.3436 72.7644 45.4597 73.2328 46.4129C73.6972 47.3701 74.6504 47.9649 75.7135 47.9649H77.6607V91.2577C77.6607 92.5368 78.7034 93.5796 79.9825 93.5796H89.9706C91.2497 93.5796 92.2924 92.5368 92.2924 91.2577L92.2884 47.9691H94.2355C95.2986 47.9691 96.2518 47.3743 96.7162 46.4171C97.1846 45.4598 97.0666 44.3436 96.4108 43.5044ZM90.879 45.146C90.101 45.146 89.4655 45.7774 89.4655 46.5595V90.7648L80.4796 90.7646L80.4836 46.5554C80.4836 45.7774 79.8523 45.1418 79.0701 45.1418H75.8439L83.9663 34.7871C84.2107 34.4735 84.5774 34.2983 84.9766 34.2983C85.3717 34.2983 85.7424 34.4776 85.9868 34.7872L94.1092 45.1418L90.879 45.146ZM73.4695 34.8402L70.052 21.5769C69.8524 20.8111 69.3228 20.1919 68.5978 19.8783C67.8727 19.5646 67.058 19.6053 66.3656 19.9923L54.3942 26.6442C53.5388 27.1167 53.0418 28.0129 53.0907 28.9824C53.1396 29.96 53.7262 30.8073 54.6265 31.1902L56.264 31.8949C52.4227 37.9929 42.7441 48.2168 18.8296 56.7187C18.182 56.9509 17.7909 57.6149 17.9131 58.2951C18.0312 58.9713 18.6178 59.4642 19.3021 59.4642H19.3103C30.8582 59.3868 41.1965 56.7635 50.0363 51.6676C56.3827 48.0097 62.0243 43.0808 67.2591 36.6242L70.0127 37.8055C70.9089 38.1924 71.9272 38.0336 72.6727 37.3981C73.4059 36.7627 73.7114 35.785 73.4711 34.8401L73.4695 34.8402ZM67.3839 33.6019C66.7973 33.3494 66.1129 33.5245 65.7178 34.0256C55.7542 46.6611 43.4812 53.9035 28.3846 55.9974C48.593 47.2396 56.5161 37.3853 59.5298 31.9106C59.7213 31.5603 59.758 31.1489 59.6276 30.77C59.4973 30.3953 59.2162 30.0898 58.8495 29.9309L56.2751 28.8271L67.408 22.6436L70.5853 34.9778L67.3839 33.6019ZM27.1548 71.3137H17.1668C15.8877 71.3137 14.8449 72.3564 14.8449 73.6355V91.2609C14.8449 92.54 15.8877 93.5828 17.1668 93.5828H27.1548C28.4339 93.5828 29.4767 92.54 29.4767 91.2609V73.6355C29.4767 72.3564 28.4339 71.3137 27.1548 71.3137ZM26.6497 90.7598H17.6637V74.1365H26.6497V90.7598ZM44.2386 25.6214C44.2386 13.698 34.5397 4 22.6172 4C10.698 4 1 13.6989 1 25.6214C1 37.5439 10.6989 47.2427 22.6214 47.2427C34.5405 47.2387 44.2386 37.5398 44.2386 25.6214ZM3.82184 25.6213C3.82184 15.2585 12.2538 6.82275 22.6204 6.82275C32.9869 6.82275 41.4188 15.2547 41.4188 25.6213C41.4188 35.9878 32.9869 44.4199 22.6203 44.4199C12.2534 44.4158 3.82184 35.9838 3.82184 25.6213ZM38.1976 25.6214C38.1976 17.0305 31.2117 10.0441 22.6203 10.0441C14.0289 10.0441 7.04301 17.03 7.04301 25.6214C7.04301 34.2128 14.0289 41.1987 22.6203 41.1987C31.2117 41.1987 38.1976 34.2087 38.1976 25.6214ZM9.86688 25.6213C9.86688 18.5906 15.586 12.8679 22.6203 12.8679C29.6511 12.8679 35.3737 18.587 35.3737 25.6213C35.3737 32.6521 29.6546 38.3748 22.6203 38.3748C15.5855 38.3707 9.86688 32.6516 9.86688 25.6213ZM22.6203 36.2204C21.8423 36.2204 21.2068 35.589 21.2068 34.8069V33.6826C19.2231 33.0757 17.7729 31.2263 17.7729 29.0471C17.7729 28.269 18.4043 27.6336 19.1864 27.6336C19.9644 27.6336 20.5999 28.2649 20.5999 29.0471C20.5999 30.1632 21.5083 31.0675 22.6203 31.0675C23.6998 31.0675 24.9626 30.5379 24.9626 29.0471C24.9626 27.5562 23.6998 27.0266 22.6203 27.0266C19.6263 27.0266 17.4552 24.99 17.4552 22.1834C17.4552 19.8411 18.9665 18.0325 21.2069 17.4989V16.4236C21.2069 15.6456 21.8383 15.0101 22.6204 15.0101C23.3984 15.0101 24.0339 15.6415 24.0339 16.4236V17.5478C26.0177 18.1548 27.4679 20.0041 27.4679 22.1834C27.4679 22.9614 26.8365 23.5969 26.0544 23.5969C25.2763 23.5969 24.6409 22.9655 24.6409 22.1834C24.6409 21.0673 23.7325 20.163 22.6204 20.163C21.5409 20.163 20.2782 20.6925 20.2782 22.1834C20.2782 23.6742 21.5409 24.2038 22.6204 24.2038C25.6144 24.2038 27.7855 26.2405 27.7855 29.0471C27.7855 31.3893 26.2743 33.1979 24.0338 33.7315V34.8069C24.0298 35.589 23.3984 36.2204 22.6203 36.2204Z" stroke="black" stroke-width="2" mask="url(#path-1-outside-1_242_586)"/>
</g>
<defs>
<clipPath id="clip0_242_586">
<rect width="97" height="97" fill="white"/>
</clipPath>
</defs>
</svg>
