<svg width="100" height="100" viewBox="0 0 100 100" fill="none" xmlns="http://www.w3.org/2000/svg">
<path d="M50.1324 19.7393C61.9173 19.7393 71.4165 29.2017 71.4165 40.8909C71.4165 52.5795 61.9178 62.0263 50.1324 62.0263C38.3472 62.0263 28.8514 52.5797 28.8514 40.8909C28.8514 29.2017 38.3477 19.7393 50.1324 19.7393Z" stroke="#00B0FB"/>
<mask id="path-2-outside-1_243_2524" maskUnits="userSpaceOnUse" x="13.3446" y="4.30688" width="73" height="73" fill="black">
<rect fill="white" x="13.3446" y="4.30688" width="73" height="73"/>
<path fill-rule="evenodd" clip-rule="evenodd" d="M50.2294 5.34002C50.4151 5.39983 50.826 5.53215 51.2767 5.77885C51.9423 6.14291 52.7592 6.68901 53.5913 7.25607C53.7972 7.39649 54.0037 7.53831 54.21 7.67998C54.837 8.1106 55.462 8.53983 56.0641 8.92411C56.8642 9.43505 57.5512 9.87227 58.4336 10.1072C59.3159 10.342 60.1279 10.3072 61.0778 10.2624C61.7541 10.2312 62.4732 10.171 63.1943 10.1107C63.4861 10.0863 63.7781 10.0619 64.0679 10.0393C65.0738 9.96018 66.0561 9.90384 66.8155 9.91967C67.332 9.93155 67.7537 10.0237 67.9425 10.065C67.9922 10.0758 68.0257 10.0831 68.0407 10.0846C68.0505 10.0975 68.0725 10.1217 68.1039 10.1564C68.2326 10.2983 68.5201 10.6154 68.7873 11.0545C69.1808 11.7 69.6128 12.5712 70.0481 13.4756C70.1823 13.7544 70.3155 14.0362 70.4483 14.3172C70.7464 14.9477 71.0427 15.5744 71.3443 16.1554C71.7803 16.9952 72.1531 17.7118 72.799 18.3536C73.4395 18.9902 74.1527 19.3558 74.9885 19.7842L75.01 19.7952C75.6478 20.1224 76.351 20.4534 77.049 20.7818C77.2758 20.8886 77.5021 20.9951 77.7254 21.1011C78.6357 21.5338 79.513 21.9641 80.1628 22.3553C80.6042 22.6204 80.9218 22.906 81.0646 23.0343C81.1011 23.0671 81.1261 23.0897 81.1389 23.099C81.1402 23.1166 81.1476 23.1553 81.1585 23.212C81.1958 23.4075 81.274 23.8167 81.2847 24.3143C81.3034 25.0689 81.241 26.0465 81.1653 27.046C81.1554 27.1734 81.1454 27.3012 81.1354 27.4292C81.0668 28.306 80.9974 29.1931 80.9581 30.0166C80.9554 30.0753 80.9526 30.1334 80.9499 30.191C80.9084 31.0611 80.8721 31.8224 81.0939 32.6447C81.3287 33.5156 81.7669 34.1936 82.2764 34.9818L82.2867 34.9978C82.6316 35.5317 83.0198 36.0836 83.4105 36.639C83.6016 36.9106 83.7932 37.183 83.9806 37.4545C84.5511 38.2812 85.0855 39.0947 85.4515 39.7562C85.6991 40.2032 85.8328 40.608 85.8936 40.7921C85.9093 40.8397 85.9201 40.8725 85.9268 40.8875C85.92 40.9015 85.9083 40.936 85.891 40.9873C85.8295 41.1695 85.6964 41.5637 85.4514 42.0062C85.0855 42.6675 84.5514 43.4809 83.9807 44.3077C83.8207 44.5396 83.6575 44.7735 83.4943 45.0075C83.0757 45.6075 82.6565 46.2085 82.2867 46.7805L82.2802 46.7905C81.7688 47.5813 81.3293 48.2608 81.0939 49.1338C80.8705 49.9621 80.9079 50.7283 80.9506 51.6063C80.9531 51.6577 80.9557 51.7096 80.9582 51.7619C80.9968 52.594 81.0674 53.4909 81.1372 54.3765C81.1466 54.4955 81.1559 54.6143 81.1652 54.7327C81.2434 55.7323 81.301 56.6934 81.2848 57.448C81.275 57.9486 81.1956 58.3597 81.1581 58.5538C81.1475 58.6086 81.1403 58.6461 81.1389 58.6634C81.1256 58.6729 81.0992 58.6965 81.0607 58.731C80.916 58.8606 80.6002 59.1434 80.1627 59.4068C79.5129 59.7982 78.6357 60.2453 77.7255 60.6774C77.418 60.8235 77.1048 60.9686 76.7924 61.1134C76.1797 61.3973 75.5697 61.68 75.01 61.967L74.987 61.9788C74.1518 62.4073 73.439 62.7729 72.799 63.4088C72.153 64.0508 71.7804 64.767 71.3444 65.6068C71.0556 66.163 70.7717 66.7682 70.4864 67.3763C70.341 67.6865 70.1951 67.9974 70.0481 68.3029C69.6127 69.2074 69.1808 70.0621 68.7874 70.7077C68.5274 71.1343 68.2487 71.453 68.1152 71.6055C68.0775 71.6486 68.0514 71.6785 68.0406 71.6937C68.0238 71.6944 67.983 71.7023 67.9219 71.7142C67.7242 71.7525 67.3138 71.8322 66.8156 71.8425C66.0562 71.8601 65.0738 71.7993 64.0679 71.7229C63.7954 71.7014 63.5208 71.6785 63.2463 71.6556C62.5078 71.594 61.7704 71.5325 61.0778 71.4998L61.0695 71.4993C60.1231 71.4557 59.3134 71.4184 58.4336 71.6516C57.5587 71.8844 56.876 72.3201 56.0846 72.8251L56.083 72.8261L56.0641 72.8382C55.5279 73.1806 54.9735 73.5657 54.4157 73.9531C54.1411 74.1439 53.8657 74.3352 53.5912 74.5223C52.7591 75.0895 51.9423 75.6196 51.2767 75.9833C50.8266 76.2295 50.4166 76.3618 50.2304 76.4218C50.1804 76.4379 50.1466 76.4489 50.1324 76.4554C50.1176 76.449 50.0858 76.4386 50.0397 76.4236C49.8561 76.364 49.4471 76.231 48.9945 75.9834C48.3289 75.6193 47.5088 75.0893 46.6768 74.5222C46.397 74.3315 46.1166 74.1363 45.8372 73.9419C45.2857 73.5581 44.7383 73.1771 44.2072 72.8381L44.1934 72.8294C43.3991 72.3222 42.715 71.8854 41.8376 71.6519C40.9553 71.417 40.1434 71.455 39.1935 71.4999C38.5294 71.5305 37.8241 71.5894 37.116 71.6486C36.8113 71.674 36.506 71.6995 36.2034 71.7228C35.1974 71.802 34.2119 71.8583 33.4524 71.8425C32.9548 71.8309 32.5467 71.754 32.3492 71.7168C32.2922 71.7061 32.2528 71.6986 32.2338 71.697C32.2245 71.684 32.2008 71.657 32.166 71.6175C32.0359 71.4695 31.7502 71.1448 31.4838 70.7078C31.0903 70.0623 30.6551 69.2075 30.2198 68.303C30.0721 67.996 29.9255 67.6836 29.7794 67.3719C29.4949 66.7653 29.2117 66.1617 28.9237 65.6069L28.9138 65.5877C28.4821 64.756 28.1133 64.0456 27.4723 63.4087C26.8507 62.7908 26.1425 62.4282 25.3367 62.0157C25.3052 61.9995 25.2736 61.9833 25.2418 61.967C24.6485 61.6627 24.0081 61.3632 23.3642 61.062C23.0909 60.9342 22.817 60.8061 22.5458 60.6772C21.6355 60.2446 20.7583 59.7979 20.1085 59.407C19.6677 59.142 19.3491 58.8559 19.2059 58.7273C19.1702 58.6953 19.1454 58.6731 19.1323 58.6633C19.1311 58.6458 19.1234 58.6068 19.1122 58.5495C19.074 58.3539 18.994 57.9451 18.9834 57.448C18.9646 56.6934 19.0272 55.7323 19.1061 54.7327C19.1135 54.6382 19.1209 54.5434 19.1284 54.4485C19.1997 53.5396 19.2722 52.6166 19.313 51.762C19.3153 51.7117 19.3177 51.6618 19.32 51.6122C19.3617 50.7318 19.398 49.9639 19.1742 49.1338C18.9391 48.2621 18.5006 47.5837 17.9905 46.7946L17.9814 46.7805C17.6101 46.2064 17.1893 45.603 16.7692 45.0007C16.6076 44.7689 16.446 44.5373 16.2875 44.3076C15.717 43.4809 15.186 42.6674 14.8199 42.0061C14.5752 41.5639 14.4419 41.1694 14.3804 40.9873C14.3631 40.9361 14.3515 40.9017 14.3446 40.8877C14.3506 40.8736 14.3603 40.8439 14.3744 40.8012C14.4334 40.6215 14.5683 40.2106 14.82 39.7563C15.186 39.095 15.7168 38.2814 16.2875 37.4546C16.4757 37.1819 16.668 36.9084 16.8598 36.6358C17.2496 36.0816 17.637 35.5309 17.9814 34.998L17.9934 34.9792C18.5019 34.1922 18.9397 33.5145 19.1742 32.6445C19.3998 31.8082 19.3623 31.0352 19.3193 30.1464C19.3172 30.1034 19.3151 30.0602 19.3131 30.0166C19.2745 29.1863 19.204 28.2913 19.1344 27.4075C19.1249 27.2867 19.1154 27.1661 19.106 27.0459C19.0278 26.0464 18.9671 25.069 18.9834 24.3145C18.9931 23.8166 19.0737 23.4073 19.1122 23.212C19.1234 23.1551 19.131 23.1164 19.1323 23.0989C19.1457 23.089 19.1714 23.066 19.2085 23.0328C19.3529 22.9035 19.6702 22.6194 20.1085 22.3555C20.7583 21.9641 21.6356 21.5338 22.5459 21.1013C22.6805 21.0373 22.8158 20.9731 22.9514 20.9088C23.7323 20.5385 24.5216 20.1641 25.2417 19.7952C25.2743 19.7784 25.3068 19.7618 25.3391 19.7452C26.1438 19.3329 26.8513 18.9704 27.4723 18.3535C28.1131 17.7166 28.4818 17.0067 28.9133 16.1755L28.9237 16.1555C29.2258 15.5737 29.5225 14.9459 29.8211 14.3144C29.9535 14.0343 30.0862 13.7535 30.2199 13.4756C30.6553 12.5711 31.0903 11.7001 31.4837 11.0544C31.7504 10.6169 32.0364 10.2994 32.1652 10.1564C32.1984 10.1196 32.2212 10.0943 32.2305 10.0815C32.2461 10.0797 32.278 10.0728 32.3242 10.0628C32.5117 10.0222 32.9339 9.93071 33.4524 9.91992C34.212 9.90241 35.1974 9.96295 36.2033 10.0394C36.4764 10.0609 36.7516 10.0839 37.0266 10.1068C37.7646 10.1684 38.5014 10.2299 39.1935 10.2626C40.1434 10.3064 40.9553 10.3414 41.8377 10.1074C42.7201 9.8726 43.4069 9.43492 44.2071 8.92432C44.7959 8.54833 45.4048 8.12956 46.0169 7.70859C46.2368 7.55742 46.457 7.40596 46.6768 7.2561C47.5089 6.68887 48.3289 6.14279 48.9945 5.77905C49.445 5.53258 49.8526 5.39977 50.0373 5.33957C50.0847 5.32413 50.1174 5.31346 50.1324 5.30688C50.1465 5.31332 50.18 5.32411 50.2294 5.34002ZM50.1324 19.2393C62.1908 19.2393 71.9165 28.923 71.9165 40.8909C71.9165 52.8588 62.1908 62.5263 50.1324 62.5263C38.0741 62.5263 28.3514 52.8588 28.3514 40.8909C28.3514 28.923 38.0741 19.2393 50.1324 19.2393Z"/>
</mask>
<path fill-rule="evenodd" clip-rule="evenodd" d="M50.2294 5.34002C50.4151 5.39983 50.826 5.53215 51.2767 5.77885C51.9423 6.14291 52.7592 6.68901 53.5913 7.25607C53.7972 7.39649 54.0037 7.53831 54.21 7.67998C54.837 8.1106 55.462 8.53983 56.0641 8.92411C56.8642 9.43505 57.5512 9.87227 58.4336 10.1072C59.3159 10.342 60.1279 10.3072 61.0778 10.2624C61.7541 10.2312 62.4732 10.171 63.1943 10.1107C63.4861 10.0863 63.7781 10.0619 64.0679 10.0393C65.0738 9.96018 66.0561 9.90384 66.8155 9.91967C67.332 9.93155 67.7537 10.0237 67.9425 10.065C67.9922 10.0758 68.0257 10.0831 68.0407 10.0846C68.0505 10.0975 68.0725 10.1217 68.1039 10.1564C68.2326 10.2983 68.5201 10.6154 68.7873 11.0545C69.1808 11.7 69.6128 12.5712 70.0481 13.4756C70.1823 13.7544 70.3155 14.0362 70.4483 14.3172C70.7464 14.9477 71.0427 15.5744 71.3443 16.1554C71.7803 16.9952 72.1531 17.7118 72.799 18.3536C73.4395 18.9902 74.1527 19.3558 74.9885 19.7842L75.01 19.7952C75.6478 20.1224 76.351 20.4534 77.049 20.7818C77.2758 20.8886 77.5021 20.9951 77.7254 21.1011C78.6357 21.5338 79.513 21.9641 80.1628 22.3553C80.6042 22.6204 80.9218 22.906 81.0646 23.0343C81.1011 23.0671 81.1261 23.0897 81.1389 23.099C81.1402 23.1166 81.1476 23.1553 81.1585 23.212C81.1958 23.4075 81.274 23.8167 81.2847 24.3143C81.3034 25.0689 81.241 26.0465 81.1653 27.046C81.1554 27.1734 81.1454 27.3012 81.1354 27.4292C81.0668 28.306 80.9974 29.1931 80.9581 30.0166C80.9554 30.0753 80.9526 30.1334 80.9499 30.191C80.9084 31.0611 80.8721 31.8224 81.0939 32.6447C81.3287 33.5156 81.7669 34.1936 82.2764 34.9818L82.2867 34.9978C82.6316 35.5317 83.0198 36.0836 83.4105 36.639C83.6016 36.9106 83.7932 37.183 83.9806 37.4545C84.5511 38.2812 85.0855 39.0947 85.4515 39.7562C85.6991 40.2032 85.8328 40.608 85.8936 40.7921C85.9093 40.8397 85.9201 40.8725 85.9268 40.8875C85.92 40.9015 85.9083 40.936 85.891 40.9873C85.8295 41.1695 85.6964 41.5637 85.4514 42.0062C85.0855 42.6675 84.5514 43.4809 83.9807 44.3077C83.8207 44.5396 83.6575 44.7735 83.4943 45.0075C83.0757 45.6075 82.6565 46.2085 82.2867 46.7805L82.2802 46.7905C81.7688 47.5813 81.3293 48.2608 81.0939 49.1338C80.8705 49.9621 80.9079 50.7283 80.9506 51.6063C80.9531 51.6577 80.9557 51.7096 80.9582 51.7619C80.9968 52.594 81.0674 53.4909 81.1372 54.3765C81.1466 54.4955 81.1559 54.6143 81.1652 54.7327C81.2434 55.7323 81.301 56.6934 81.2848 57.448C81.275 57.9486 81.1956 58.3597 81.1581 58.5538C81.1475 58.6086 81.1403 58.6461 81.1389 58.6634C81.1256 58.6729 81.0992 58.6965 81.0607 58.731C80.916 58.8606 80.6002 59.1434 80.1627 59.4068C79.5129 59.7982 78.6357 60.2453 77.7255 60.6774C77.418 60.8235 77.1048 60.9686 76.7924 61.1134C76.1797 61.3973 75.5697 61.68 75.01 61.967L74.987 61.9788C74.1518 62.4073 73.439 62.7729 72.799 63.4088C72.153 64.0508 71.7804 64.767 71.3444 65.6068C71.0556 66.163 70.7717 66.7682 70.4864 67.3763C70.341 67.6865 70.1951 67.9974 70.0481 68.3029C69.6127 69.2074 69.1808 70.0621 68.7874 70.7077C68.5274 71.1343 68.2487 71.453 68.1152 71.6055C68.0775 71.6486 68.0514 71.6785 68.0406 71.6937C68.0238 71.6944 67.983 71.7023 67.9219 71.7142C67.7242 71.7525 67.3138 71.8322 66.8156 71.8425C66.0562 71.8601 65.0738 71.7993 64.0679 71.7229C63.7954 71.7014 63.5208 71.6785 63.2463 71.6556C62.5078 71.594 61.7704 71.5325 61.0778 71.4998L61.0695 71.4993C60.1231 71.4557 59.3134 71.4184 58.4336 71.6516C57.5587 71.8844 56.876 72.3201 56.0846 72.8251L56.083 72.8261L56.0641 72.8382C55.5279 73.1806 54.9735 73.5657 54.4157 73.9531C54.1411 74.1439 53.8657 74.3352 53.5912 74.5223C52.7591 75.0895 51.9423 75.6196 51.2767 75.9833C50.8266 76.2295 50.4166 76.3618 50.2304 76.4218C50.1804 76.4379 50.1466 76.4489 50.1324 76.4554C50.1176 76.449 50.0858 76.4386 50.0397 76.4236C49.8561 76.364 49.4471 76.231 48.9945 75.9834C48.3289 75.6193 47.5088 75.0893 46.6768 74.5222C46.397 74.3315 46.1166 74.1363 45.8372 73.9419C45.2857 73.5581 44.7383 73.1771 44.2072 72.8381L44.1934 72.8294C43.3991 72.3222 42.715 71.8854 41.8376 71.6519C40.9553 71.417 40.1434 71.455 39.1935 71.4999C38.5294 71.5305 37.8241 71.5894 37.116 71.6486C36.8113 71.674 36.506 71.6995 36.2034 71.7228C35.1974 71.802 34.2119 71.8583 33.4524 71.8425C32.9548 71.8309 32.5467 71.754 32.3492 71.7168C32.2922 71.7061 32.2528 71.6986 32.2338 71.697C32.2245 71.684 32.2008 71.657 32.166 71.6175C32.0359 71.4695 31.7502 71.1448 31.4838 70.7078C31.0903 70.0623 30.6551 69.2075 30.2198 68.303C30.0721 67.996 29.9255 67.6836 29.7794 67.3719C29.4949 66.7653 29.2117 66.1617 28.9237 65.6069L28.9138 65.5877C28.4821 64.756 28.1133 64.0456 27.4723 63.4087C26.8507 62.7908 26.1425 62.4282 25.3367 62.0157C25.3052 61.9995 25.2736 61.9833 25.2418 61.967C24.6485 61.6627 24.0081 61.3632 23.3642 61.062C23.0909 60.9342 22.817 60.8061 22.5458 60.6772C21.6355 60.2446 20.7583 59.7979 20.1085 59.407C19.6677 59.142 19.3491 58.8559 19.2059 58.7273C19.1702 58.6953 19.1454 58.6731 19.1323 58.6633C19.1311 58.6458 19.1234 58.6068 19.1122 58.5495C19.074 58.3539 18.994 57.9451 18.9834 57.448C18.9646 56.6934 19.0272 55.7323 19.1061 54.7327C19.1135 54.6382 19.1209 54.5434 19.1284 54.4485C19.1997 53.5396 19.2722 52.6166 19.313 51.762C19.3153 51.7117 19.3177 51.6618 19.32 51.6122C19.3617 50.7318 19.398 49.9639 19.1742 49.1338C18.9391 48.2621 18.5006 47.5837 17.9905 46.7946L17.9814 46.7805C17.6101 46.2064 17.1893 45.603 16.7692 45.0007C16.6076 44.7689 16.446 44.5373 16.2875 44.3076C15.717 43.4809 15.186 42.6674 14.8199 42.0061C14.5752 41.5639 14.4419 41.1694 14.3804 40.9873C14.3631 40.9361 14.3515 40.9017 14.3446 40.8877C14.3506 40.8736 14.3603 40.8439 14.3744 40.8012C14.4334 40.6215 14.5683 40.2106 14.82 39.7563C15.186 39.095 15.7168 38.2814 16.2875 37.4546C16.4757 37.1819 16.668 36.9084 16.8598 36.6358C17.2496 36.0816 17.637 35.5309 17.9814 34.998L17.9934 34.9792C18.5019 34.1922 18.9397 33.5145 19.1742 32.6445C19.3998 31.8082 19.3623 31.0352 19.3193 30.1464C19.3172 30.1034 19.3151 30.0602 19.3131 30.0166C19.2745 29.1863 19.204 28.2913 19.1344 27.4075C19.1249 27.2867 19.1154 27.1661 19.106 27.0459C19.0278 26.0464 18.9671 25.069 18.9834 24.3145C18.9931 23.8166 19.0737 23.4073 19.1122 23.212C19.1234 23.1551 19.131 23.1164 19.1323 23.0989C19.1457 23.089 19.1714 23.066 19.2085 23.0328C19.3529 22.9035 19.6702 22.6194 20.1085 22.3555C20.7583 21.9641 21.6356 21.5338 22.5459 21.1013C22.6805 21.0373 22.8158 20.9731 22.9514 20.9088C23.7323 20.5385 24.5216 20.1641 25.2417 19.7952C25.2743 19.7784 25.3068 19.7618 25.3391 19.7452C26.1438 19.3329 26.8513 18.9704 27.4723 18.3535C28.1131 17.7166 28.4818 17.0067 28.9133 16.1755L28.9237 16.1555C29.2258 15.5737 29.5225 14.9459 29.8211 14.3144C29.9535 14.0343 30.0862 13.7535 30.2199 13.4756C30.6553 12.5711 31.0903 11.7001 31.4837 11.0544C31.7504 10.6169 32.0364 10.2994 32.1652 10.1564C32.1984 10.1196 32.2212 10.0943 32.2305 10.0815C32.2461 10.0797 32.278 10.0728 32.3242 10.0628C32.5117 10.0222 32.9339 9.93071 33.4524 9.91992C34.212 9.90241 35.1974 9.96295 36.2033 10.0394C36.4764 10.0609 36.7516 10.0839 37.0266 10.1068C37.7646 10.1684 38.5014 10.2299 39.1935 10.2626C40.1434 10.3064 40.9553 10.3414 41.8377 10.1074C42.7201 9.8726 43.4069 9.43492 44.2071 8.92432C44.7959 8.54833 45.4048 8.12956 46.0169 7.70859C46.2368 7.55742 46.457 7.40596 46.6768 7.2561C47.5089 6.68887 48.3289 6.14279 48.9945 5.77905C49.445 5.53258 49.8526 5.39977 50.0373 5.33957C50.0847 5.32413 50.1174 5.31346 50.1324 5.30688C50.1465 5.31332 50.18 5.32411 50.2294 5.34002ZM50.1324 19.2393C62.1908 19.2393 71.9165 28.923 71.9165 40.8909C71.9165 52.8588 62.1908 62.5263 50.1324 62.5263C38.0741 62.5263 28.3514 52.8588 28.3514 40.8909C28.3514 28.923 38.0741 19.2393 50.1324 19.2393Z" fill="#00B0FB" fill-opacity="0.5"/>
<path fill-rule="evenodd" clip-rule="evenodd" d="M50.2294 5.34002C50.4151 5.39983 50.826 5.53215 51.2767 5.77885C51.9423 6.14291 52.7592 6.68901 53.5913 7.25607C53.7972 7.39649 54.0037 7.53831 54.21 7.67998C54.837 8.1106 55.462 8.53983 56.0641 8.92411C56.8642 9.43505 57.5512 9.87227 58.4336 10.1072C59.3159 10.342 60.1279 10.3072 61.0778 10.2624C61.7541 10.2312 62.4732 10.171 63.1943 10.1107C63.4861 10.0863 63.7781 10.0619 64.0679 10.0393C65.0738 9.96018 66.0561 9.90384 66.8155 9.91967C67.332 9.93155 67.7537 10.0237 67.9425 10.065C67.9922 10.0758 68.0257 10.0831 68.0407 10.0846C68.0505 10.0975 68.0725 10.1217 68.1039 10.1564C68.2326 10.2983 68.5201 10.6154 68.7873 11.0545C69.1808 11.7 69.6128 12.5712 70.0481 13.4756C70.1823 13.7544 70.3155 14.0362 70.4483 14.3172C70.7464 14.9477 71.0427 15.5744 71.3443 16.1554C71.7803 16.9952 72.1531 17.7118 72.799 18.3536C73.4395 18.9902 74.1527 19.3558 74.9885 19.7842L75.01 19.7952C75.6478 20.1224 76.351 20.4534 77.049 20.7818C77.2758 20.8886 77.5021 20.9951 77.7254 21.1011C78.6357 21.5338 79.513 21.9641 80.1628 22.3553C80.6042 22.6204 80.9218 22.906 81.0646 23.0343C81.1011 23.0671 81.1261 23.0897 81.1389 23.099C81.1402 23.1166 81.1476 23.1553 81.1585 23.212C81.1958 23.4075 81.274 23.8167 81.2847 24.3143C81.3034 25.0689 81.241 26.0465 81.1653 27.046C81.1554 27.1734 81.1454 27.3012 81.1354 27.4292C81.0668 28.306 80.9974 29.1931 80.9581 30.0166C80.9554 30.0753 80.9526 30.1334 80.9499 30.191C80.9084 31.0611 80.8721 31.8224 81.0939 32.6447C81.3287 33.5156 81.7669 34.1936 82.2764 34.9818L82.2867 34.9978C82.6316 35.5317 83.0198 36.0836 83.4105 36.639C83.6016 36.9106 83.7932 37.183 83.9806 37.4545C84.5511 38.2812 85.0855 39.0947 85.4515 39.7562C85.6991 40.2032 85.8328 40.608 85.8936 40.7921C85.9093 40.8397 85.9201 40.8725 85.9268 40.8875C85.92 40.9015 85.9083 40.936 85.891 40.9873C85.8295 41.1695 85.6964 41.5637 85.4514 42.0062C85.0855 42.6675 84.5514 43.4809 83.9807 44.3077C83.8207 44.5396 83.6575 44.7735 83.4943 45.0075C83.0757 45.6075 82.6565 46.2085 82.2867 46.7805L82.2802 46.7905C81.7688 47.5813 81.3293 48.2608 81.0939 49.1338C80.8705 49.9621 80.9079 50.7283 80.9506 51.6063C80.9531 51.6577 80.9557 51.7096 80.9582 51.7619C80.9968 52.594 81.0674 53.4909 81.1372 54.3765C81.1466 54.4955 81.1559 54.6143 81.1652 54.7327C81.2434 55.7323 81.301 56.6934 81.2848 57.448C81.275 57.9486 81.1956 58.3597 81.1581 58.5538C81.1475 58.6086 81.1403 58.6461 81.1389 58.6634C81.1256 58.6729 81.0992 58.6965 81.0607 58.731C80.916 58.8606 80.6002 59.1434 80.1627 59.4068C79.5129 59.7982 78.6357 60.2453 77.7255 60.6774C77.418 60.8235 77.1048 60.9686 76.7924 61.1134C76.1797 61.3973 75.5697 61.68 75.01 61.967L74.987 61.9788C74.1518 62.4073 73.439 62.7729 72.799 63.4088C72.153 64.0508 71.7804 64.767 71.3444 65.6068C71.0556 66.163 70.7717 66.7682 70.4864 67.3763C70.341 67.6865 70.1951 67.9974 70.0481 68.3029C69.6127 69.2074 69.1808 70.0621 68.7874 70.7077C68.5274 71.1343 68.2487 71.453 68.1152 71.6055C68.0775 71.6486 68.0514 71.6785 68.0406 71.6937C68.0238 71.6944 67.983 71.7023 67.9219 71.7142C67.7242 71.7525 67.3138 71.8322 66.8156 71.8425C66.0562 71.8601 65.0738 71.7993 64.0679 71.7229C63.7954 71.7014 63.5208 71.6785 63.2463 71.6556C62.5078 71.594 61.7704 71.5325 61.0778 71.4998L61.0695 71.4993C60.1231 71.4557 59.3134 71.4184 58.4336 71.6516C57.5587 71.8844 56.876 72.3201 56.0846 72.8251L56.083 72.8261L56.0641 72.8382C55.5279 73.1806 54.9735 73.5657 54.4157 73.9531C54.1411 74.1439 53.8657 74.3352 53.5912 74.5223C52.7591 75.0895 51.9423 75.6196 51.2767 75.9833C50.8266 76.2295 50.4166 76.3618 50.2304 76.4218C50.1804 76.4379 50.1466 76.4489 50.1324 76.4554C50.1176 76.449 50.0858 76.4386 50.0397 76.4236C49.8561 76.364 49.4471 76.231 48.9945 75.9834C48.3289 75.6193 47.5088 75.0893 46.6768 74.5222C46.397 74.3315 46.1166 74.1363 45.8372 73.9419C45.2857 73.5581 44.7383 73.1771 44.2072 72.8381L44.1934 72.8294C43.3991 72.3222 42.715 71.8854 41.8376 71.6519C40.9553 71.417 40.1434 71.455 39.1935 71.4999C38.5294 71.5305 37.8241 71.5894 37.116 71.6486C36.8113 71.674 36.506 71.6995 36.2034 71.7228C35.1974 71.802 34.2119 71.8583 33.4524 71.8425C32.9548 71.8309 32.5467 71.754 32.3492 71.7168C32.2922 71.7061 32.2528 71.6986 32.2338 71.697C32.2245 71.684 32.2008 71.657 32.166 71.6175C32.0359 71.4695 31.7502 71.1448 31.4838 70.7078C31.0903 70.0623 30.6551 69.2075 30.2198 68.303C30.0721 67.996 29.9255 67.6836 29.7794 67.3719C29.4949 66.7653 29.2117 66.1617 28.9237 65.6069L28.9138 65.5877C28.4821 64.756 28.1133 64.0456 27.4723 63.4087C26.8507 62.7908 26.1425 62.4282 25.3367 62.0157C25.3052 61.9995 25.2736 61.9833 25.2418 61.967C24.6485 61.6627 24.0081 61.3632 23.3642 61.062C23.0909 60.9342 22.817 60.8061 22.5458 60.6772C21.6355 60.2446 20.7583 59.7979 20.1085 59.407C19.6677 59.142 19.3491 58.8559 19.2059 58.7273C19.1702 58.6953 19.1454 58.6731 19.1323 58.6633C19.1311 58.6458 19.1234 58.6068 19.1122 58.5495C19.074 58.3539 18.994 57.9451 18.9834 57.448C18.9646 56.6934 19.0272 55.7323 19.1061 54.7327C19.1135 54.6382 19.1209 54.5434 19.1284 54.4485C19.1997 53.5396 19.2722 52.6166 19.313 51.762C19.3153 51.7117 19.3177 51.6618 19.32 51.6122C19.3617 50.7318 19.398 49.9639 19.1742 49.1338C18.9391 48.2621 18.5006 47.5837 17.9905 46.7946L17.9814 46.7805C17.6101 46.2064 17.1893 45.603 16.7692 45.0007C16.6076 44.7689 16.446 44.5373 16.2875 44.3076C15.717 43.4809 15.186 42.6674 14.8199 42.0061C14.5752 41.5639 14.4419 41.1694 14.3804 40.9873C14.3631 40.9361 14.3515 40.9017 14.3446 40.8877C14.3506 40.8736 14.3603 40.8439 14.3744 40.8012C14.4334 40.6215 14.5683 40.2106 14.82 39.7563C15.186 39.095 15.7168 38.2814 16.2875 37.4546C16.4757 37.1819 16.668 36.9084 16.8598 36.6358C17.2496 36.0816 17.637 35.5309 17.9814 34.998L17.9934 34.9792C18.5019 34.1922 18.9397 33.5145 19.1742 32.6445C19.3998 31.8082 19.3623 31.0352 19.3193 30.1464C19.3172 30.1034 19.3151 30.0602 19.3131 30.0166C19.2745 29.1863 19.204 28.2913 19.1344 27.4075C19.1249 27.2867 19.1154 27.1661 19.106 27.0459C19.0278 26.0464 18.9671 25.069 18.9834 24.3145C18.9931 23.8166 19.0737 23.4073 19.1122 23.212C19.1234 23.1551 19.131 23.1164 19.1323 23.0989C19.1457 23.089 19.1714 23.066 19.2085 23.0328C19.3529 22.9035 19.6702 22.6194 20.1085 22.3555C20.7583 21.9641 21.6356 21.5338 22.5459 21.1013C22.6805 21.0373 22.8158 20.9731 22.9514 20.9088C23.7323 20.5385 24.5216 20.1641 25.2417 19.7952C25.2743 19.7784 25.3068 19.7618 25.3391 19.7452C26.1438 19.3329 26.8513 18.9704 27.4723 18.3535C28.1131 17.7166 28.4818 17.0067 28.9133 16.1755L28.9237 16.1555C29.2258 15.5737 29.5225 14.9459 29.8211 14.3144C29.9535 14.0343 30.0862 13.7535 30.2199 13.4756C30.6553 12.5711 31.0903 11.7001 31.4837 11.0544C31.7504 10.6169 32.0364 10.2994 32.1652 10.1564C32.1984 10.1196 32.2212 10.0943 32.2305 10.0815C32.2461 10.0797 32.278 10.0728 32.3242 10.0628C32.5117 10.0222 32.9339 9.93071 33.4524 9.91992C34.212 9.90241 35.1974 9.96295 36.2033 10.0394C36.4764 10.0609 36.7516 10.0839 37.0266 10.1068C37.7646 10.1684 38.5014 10.2299 39.1935 10.2626C40.1434 10.3064 40.9553 10.3414 41.8377 10.1074C42.7201 9.8726 43.4069 9.43492 44.2071 8.92432C44.7959 8.54833 45.4048 8.12956 46.0169 7.70859C46.2368 7.55742 46.457 7.40596 46.6768 7.2561C47.5089 6.68887 48.3289 6.14279 48.9945 5.77905C49.445 5.53258 49.8526 5.39977 50.0373 5.33957C50.0847 5.32413 50.1174 5.31346 50.1324 5.30688C50.1465 5.31332 50.18 5.32411 50.2294 5.34002ZM50.1324 19.2393C62.1908 19.2393 71.9165 28.923 71.9165 40.8909C71.9165 52.8588 62.1908 62.5263 50.1324 62.5263C38.0741 62.5263 28.3514 52.8588 28.3514 40.8909C28.3514 28.923 38.0741 19.2393 50.1324 19.2393Z" stroke="black" stroke-width="0.6" mask="url(#path-2-outside-1_243_2524)"/>
<path d="M53.6282 39.8494L53.6281 39.8494L50.2437 36.1093L50.1324 35.9864L50.0212 36.1093L46.6367 39.8495C46.3927 40.1188 46.0594 40.2907 45.6985 40.3334C45.3376 40.376 44.9736 40.2867 44.6735 40.0819C44.6734 40.0818 44.6733 40.0818 44.6732 40.0817L40.604 37.273L40.3014 37.0642L40.3716 37.4251L42.1172 46.4051L42.1408 46.5265H42.2644L58.0004 46.5265L58.1238 46.5265L58.1476 46.4054L59.9094 37.4254L59.9802 37.0644L59.6772 37.2729L55.5946 40.0818C55.5945 40.0819 55.5945 40.0819 55.5945 40.0819C55.2941 40.2876 54.9293 40.3774 54.5678 40.3348C54.2062 40.2921 53.8724 40.1195 53.6282 39.8494Z" fill="#00B0FB" stroke="black" stroke-width="0.3"/>
<path d="M28.777 72.3495L28.777 72.3495C28.4318 71.7827 28.1041 71.1575 27.7878 70.5184L27.6638 70.268L27.5236 70.5097L18.8021 85.5445L18.6617 85.7865L18.941 85.7695L26.5756 85.304C26.5757 85.304 26.5758 85.304 26.5758 85.304C26.8695 85.2875 27.1617 85.3576 27.4161 85.5054C27.6705 85.6533 27.8759 85.8725 28.0071 86.1359L28.0074 86.1366L31.4404 92.9443L31.5651 93.1916L31.7041 92.952L41.9223 75.3314L41.999 75.1991L41.8652 75.125C41.6493 75.0053 41.4564 74.9068 41.3101 74.8357C41.1685 74.767 41.0607 74.7191 41.0206 74.7062L41.0202 74.7061C40.9963 74.6984 40.9644 74.6932 40.9361 74.6891C40.9042 74.6845 40.8641 74.6798 40.8172 74.6753C40.7233 74.6661 40.5986 74.657 40.451 74.6499C40.1557 74.6356 39.7657 74.6293 39.3423 74.647L39.3415 74.647C38.7994 74.6727 38.1814 74.7256 37.5339 74.7811C37.1791 74.8115 36.8155 74.8426 36.4506 74.8704C35.4142 74.9468 34.3571 75.0071 33.3873 74.9898L33.3538 74.9891L33.3507 75.139L33.3538 74.9891C32.3881 74.9691 31.5498 74.9497 30.6405 74.4276L30.6405 74.4276C29.7251 73.9025 29.2887 73.1898 28.7849 72.3624L28.6568 72.4404L28.7849 72.3624L28.777 72.3495Z" fill="#00B0FB" fill-opacity="0.5" stroke="black" stroke-width="0.3"/>
<path d="M81.3271 85.766L81.6063 85.783L81.4659 85.541L72.7445 70.5097L72.6042 70.2679L72.4803 70.5184C72.164 71.1577 71.8393 71.7826 71.4943 72.3492L71.4935 72.3506L71.4933 72.3509C71.4933 72.3509 71.4932 72.351 71.4932 72.3511C70.9865 73.1826 70.5472 73.8996 69.6277 74.4275C68.7079 74.9546 67.8632 74.9719 66.8847 74.9894L66.8846 74.9894L66.884 74.9894L66.8836 74.9894C65.9139 75.0095 64.8569 74.9492 63.8208 74.8701C63.4696 74.843 63.1194 74.8126 62.7771 74.7828C62.1152 74.7252 61.4828 74.6701 60.9293 74.6469C60.5056 74.6279 60.1153 74.6344 59.8199 74.6489C59.6722 74.6562 59.5475 74.6656 59.4536 74.6749C59.4068 74.6795 59.3667 74.6843 59.3349 74.6889C59.3076 74.6928 59.2775 74.6978 59.2543 74.7047C59.2269 74.7126 59.1859 74.7297 59.1431 74.7486C59.0946 74.7701 59.032 74.7993 58.9583 74.8352C58.8108 74.9071 58.617 75.0071 58.3994 75.1282L58.266 75.2025L58.3427 75.3346L68.5737 92.9487L68.7126 93.188L68.8373 92.9409L72.2703 86.1364L72.2706 86.1356C72.402 85.8717 72.608 85.652 72.863 85.5042C73.1179 85.3563 73.4105 85.2867 73.7047 85.3038C73.7048 85.3038 73.7049 85.3038 73.705 85.3038L81.3271 85.766Z" fill="#00B0FB" stroke="black" stroke-width="0.3"/>
<path d="M50.1357 2.00002C49.03 2.00002 48.2605 2.42789 47.4041 2.89545C46.5477 3.36335 45.6696 3.93989 44.8116 4.52464C43.9536 5.10946 43.1113 5.70733 42.4066 6.15708C41.7018 6.60646 41.0588 6.90679 40.9746 6.92967C40.8907 6.95594 40.1853 7.00041 39.3486 6.96532C38.5119 6.93029 37.4993 6.84172 36.4619 6.76171C35.4246 6.68252 34.3617 6.60245 33.3846 6.62272C32.4074 6.64023 31.5233 6.659 30.5658 7.20784C29.6083 7.7575 29.1551 8.52351 28.6489 9.35424C28.1428 10.1853 27.6786 11.1174 27.2298 12.0502C26.7813 12.9829 26.3531 13.9062 25.9691 14.6459C25.585 15.3855 25.1838 15.9585 25.1222 16.0198C25.0596 16.0811 24.4668 16.4955 23.7225 16.8764C22.9781 17.2581 22.0492 17.6849 21.1106 18.1306C20.1719 18.5765 19.2346 19.037 18.3985 19.54C17.5624 20.0431 16.8081 20.4958 16.2553 21.4472C15.7023 22.3987 15.6873 23.2757 15.6667 24.2466C15.6479 25.2176 15.7042 26.2739 15.7862 27.3046C15.8669 28.3353 15.9532 29.3405 15.9932 30.1718C16.0307 31.0029 15.9807 31.7044 15.9619 31.7881C15.9369 31.8761 15.6354 32.5135 15.1829 33.2137C14.73 33.9137 14.1454 34.7467 13.5569 35.5993C12.9683 36.4515 12.3696 37.3084 11.8986 38.1595C11.4276 39.0108 11 39.7923 11 40.891C11 41.9896 11.4279 42.752 11.8986 43.6031C12.3697 44.4544 12.9684 45.3269 13.5569 46.1794C14.1456 47.0316 14.7303 47.868 15.1829 48.5683C15.6358 49.2683 15.9394 49.8939 15.9619 49.9776C15.987 50.0656 16.0339 50.7786 15.9932 51.6101C15.9557 52.4412 15.8669 53.4466 15.7862 54.4773C15.7055 55.5081 15.646 56.5482 15.6667 57.5192C15.6855 58.4901 15.7042 59.3833 16.2553 60.3347C16.8083 61.2862 17.5624 61.739 18.3985 62.2419C19.2346 62.745 20.1719 63.2021 21.1106 63.6481C22.0492 64.094 22.9781 64.5208 23.7225 64.9023C24.4668 65.284 25.0605 65.6845 25.1222 65.746C25.1785 65.8042 25.5413 66.3246 25.9045 67.0035L14.5194 86.6186C14.3692 86.8772 14.292 87.1718 14.2958 87.4709C14.2997 87.77 14.3846 88.0624 14.5415 88.3171C14.6983 88.5718 14.9213 88.7792 15.1866 88.9173C15.452 89.0553 15.7498 89.1189 16.0484 89.1012L25.6749 88.5258L29.9871 97.0888C30.1214 97.3544 30.3248 97.5789 30.576 97.7386C30.8272 97.8983 31.1167 97.9874 31.4142 97.9963C31.7117 98.0052 32.0061 97.9337 32.2664 97.7894C32.5267 97.645 32.7432 97.4332 32.8932 97.1761L44.5724 77.0761C44.6531 77.1311 44.73 77.1824 44.8113 77.2377C45.6693 77.8226 46.5475 78.4022 47.4039 78.8702C48.2602 79.338 49.0297 79.7624 50.1354 79.7624C51.241 79.7624 52.0104 79.3386 52.8669 78.8702C53.7232 78.4023 54.6014 77.8226 55.4593 77.2377C55.5419 77.1814 55.6195 77.129 55.702 77.0729L67.3715 97.1761C67.5213 97.434 67.7379 97.6466 67.9985 97.7915C68.2592 97.9364 68.5541 98.0082 68.8522 97.9993C69.1503 97.9903 69.4404 97.901 69.6919 97.7407C69.9434 97.5805 70.1469 97.3552 70.2808 97.0888L74.593 88.5258L84.2196 89.1011C84.5193 89.1214 84.8188 89.0596 85.086 88.9226C85.3532 88.7855 85.5782 88.5783 85.7366 88.3232C85.8951 88.0681 85.9811 87.7746 85.9855 87.4743C85.9899 87.174 85.9124 86.8782 85.7615 86.6185L74.3635 67.0099C74.7282 66.3275 75.0907 65.804 75.1491 65.746C75.2116 65.6847 75.8044 65.284 76.5488 64.9023C77.2931 64.5206 78.2188 64.0938 79.1574 63.6481C80.0961 63.2022 81.0366 62.7449 81.8728 62.2419C82.7089 61.7388 83.4631 61.2862 84.0159 60.3347C84.5689 59.3832 84.5839 58.4901 84.6046 57.5191C84.6233 56.5482 84.567 55.5081 84.4851 54.4773C84.4044 53.4466 84.3149 52.4414 84.2749 51.6101C84.2374 50.779 84.2874 50.0613 84.3124 49.9776C84.3374 49.8897 84.639 49.2688 85.0915 48.5682C85.5444 47.8682 86.1257 47.032 86.7142 46.1794C87.3028 45.3272 87.9048 44.454 88.3757 43.603C88.8468 42.7517 89.255 41.9896 89.255 40.8909C89.255 39.7923 88.8465 39.0104 88.3757 38.1594C87.9047 37.3081 87.3027 36.4518 86.7142 35.5993C86.1255 34.7471 85.5441 33.9139 85.0915 33.2136C84.6386 32.5136 84.3349 31.8717 84.3124 31.7881C84.2874 31.7001 84.2367 31.0029 84.2749 30.1718C84.3124 29.3407 84.4044 28.3353 84.4851 27.3045C84.5658 26.2738 84.6252 25.2176 84.6046 24.2466C84.5858 23.2756 84.567 22.3986 84.0159 21.4472C83.463 20.4958 82.7089 20.0429 81.8728 19.54C81.0366 19.0369 80.0961 18.5765 79.1574 18.1306C78.2188 17.6847 77.2931 17.2579 76.5488 16.8764C75.8044 16.4946 75.2107 16.0804 75.1491 16.0197C75.0865 15.9584 74.6862 15.3851 74.3021 14.6459C73.918 13.9063 73.487 12.9828 73.0382 12.0502C72.5897 11.1174 72.1286 10.185 71.6224 9.35422C71.1163 8.52314 70.6597 7.75719 69.7022 7.20782C68.7447 6.65816 67.8638 6.64296 66.8867 6.62269C65.9095 6.60518 64.8466 6.68606 63.8093 6.76169C62.772 6.84082 61.7593 6.92664 60.9226 6.9653C60.086 7.00033 59.3809 6.95591 59.2966 6.92964C59.2128 6.90337 58.5662 6.60737 57.8614 6.15706C57.1566 5.70767 56.3176 5.10936 55.4596 4.52462C54.6017 3.93981 53.7235 3.36337 52.8671 2.89542C52.0107 2.42752 51.2412 2.00002 50.1357 2.00002ZM50.1324 5.30692C50.1993 5.33757 50.706 5.46656 51.2767 5.77889C51.9423 6.14295 52.7591 6.68909 53.5912 7.25615C54.4233 7.82338 55.2639 8.41345 56.0641 8.92416C56.8643 9.43509 57.5512 9.87236 58.4336 10.1073C59.3159 10.3421 60.1278 10.3072 61.0778 10.2625C62.0277 10.2187 63.062 10.1177 64.0679 10.0394C65.0738 9.96026 66.0561 9.90396 66.8156 9.91979C67.4679 9.9348 67.9691 10.0779 68.0407 10.0847C68.0907 10.1506 68.4548 10.508 68.7874 11.0544C69.1808 11.7 69.6128 12.5712 70.0481 13.4756C70.4835 14.3801 70.9083 15.3156 71.3443 16.1554C71.7803 16.9953 72.1531 17.7117 72.799 18.3535C73.4449 18.9955 74.1649 19.362 75.01 19.7953C75.8552 20.2288 76.8151 20.669 77.7254 21.1012C78.6357 21.5339 79.5129 21.9642 80.1628 22.3554C80.717 22.6883 81.0762 23.0533 81.139 23.0989C81.1448 23.1773 81.271 23.6724 81.2847 24.3143C81.3035 25.0689 81.2409 26.0463 81.1652 27.0459C81.0877 28.0454 81.0032 29.0727 80.9582 30.0166C80.9144 30.9605 80.8575 31.7679 81.0939 32.6446C81.3304 33.5214 81.7729 34.2028 82.2868 34.9979C82.8003 35.7929 83.4099 36.6278 83.9807 37.4546C84.5511 38.2813 85.0854 39.0948 85.4515 39.7562C85.763 40.3188 85.8943 40.8146 85.9269 40.8876C85.8956 40.9515 85.7655 41.439 85.4515 42.0061C85.0855 42.6674 84.5513 43.4809 83.9807 44.3076C83.4102 45.1343 82.8007 45.9854 82.2868 46.7805C81.7726 47.5756 81.3304 48.2571 81.0939 49.1338C80.8575 50.0107 80.9131 50.818 80.9582 51.7619C81.002 52.7058 81.087 53.733 81.1652 54.7326C81.2434 55.7322 81.301 56.6934 81.2847 57.4479C81.2722 58.09 81.1452 58.5849 81.139 58.6634C81.0758 58.7084 80.7167 59.0732 80.1628 59.4069C79.5129 59.7982 78.6357 60.2452 77.7254 60.6773C76.8151 61.1099 75.8552 61.5336 75.01 61.967C74.1649 62.4006 73.4449 62.7671 72.799 63.4088C72.1531 64.0508 71.7804 64.7671 71.3443 65.6069C70.9083 66.4468 70.4833 67.3983 70.0481 68.3028C69.6127 69.2074 69.1808 70.0621 68.7874 70.7078C68.454 71.255 68.0896 71.6246 68.0407 71.6938C67.9694 71.6968 67.4677 71.8289 66.8156 71.8425C66.0562 71.86 65.0738 71.7993 64.0679 71.7229C63.062 71.6437 62.0277 71.5447 61.0778 71.4998C60.1278 71.456 59.3159 71.4178 58.4336 71.6517C57.5511 71.8866 56.8643 72.3275 56.0641 72.8381C55.2639 73.349 54.4233 73.9552 53.5912 74.5222C52.7591 75.0895 51.9423 75.6196 51.2767 75.9833C50.7056 76.2957 50.1991 76.4245 50.1324 76.4553C50.0586 76.4234 49.5607 76.293 48.9945 75.9833C48.329 75.6193 47.5088 75.0893 46.6768 74.5222C45.8447 73.955 45.0073 73.3488 44.2071 72.8381C43.4069 72.3271 42.72 71.8866 41.8377 71.6517C40.9553 71.4169 40.1434 71.4549 39.1935 71.4998C38.2435 71.5436 37.2093 71.6454 36.2033 71.7229C35.1974 71.802 34.2119 71.8583 33.4524 71.8425C32.8112 71.8275 32.3187 71.7042 32.2338 71.697C32.19 71.6351 31.8215 71.2617 31.4838 70.7079C31.0903 70.0624 30.6551 69.2074 30.2199 68.3029C29.7845 67.3983 29.3597 66.4467 28.9237 65.6069C28.4877 64.767 28.1182 64.0506 27.4722 63.4088C26.8263 62.7668 26.0869 62.4003 25.2418 61.9671C24.3967 61.5335 23.4561 61.1099 22.5458 60.6773C21.6355 60.2446 20.7583 59.7978 20.1085 59.4069C19.558 59.0759 19.1981 58.7124 19.1323 58.6634C19.1267 58.5858 18.9972 58.0907 18.9834 57.448C18.9646 56.6934 19.0272 55.7322 19.106 54.7326C19.1842 53.733 19.268 52.7058 19.3131 51.7619C19.3568 50.818 19.4106 50.0107 19.1742 49.1339C18.9377 48.257 18.4954 47.5757 17.9814 46.7806C17.4672 45.9855 16.8583 45.1345 16.2875 44.3077C15.717 43.481 15.186 42.6674 14.82 42.0061C14.5066 41.4397 14.3758 40.9518 14.3446 40.8876C14.3758 40.8142 14.5084 40.3184 14.82 39.7562C15.1859 39.0949 15.7169 38.2814 16.2875 37.4547C16.858 36.628 17.4675 35.7931 17.9814 34.9979C18.495 34.2029 18.9378 33.5214 19.1742 32.6446C19.4106 31.7678 19.3581 30.9605 19.3131 30.0166C19.2693 29.0728 19.1842 28.0455 19.106 27.0459C19.0278 26.0464 18.9671 25.0689 18.9834 24.3144C18.9959 23.6715 19.1266 23.1766 19.1323 23.0989C19.198 23.0508 19.5576 22.6871 20.1085 22.3554C20.7583 21.9641 21.6355 21.5337 22.5458 21.1012C23.4561 20.6685 24.3967 20.2283 25.2418 19.7953C26.0869 19.3617 26.8263 18.9952 27.4722 18.3536C28.1182 17.7116 28.4876 16.9952 28.9237 16.1554C29.3597 15.3156 29.7847 14.3802 30.2199 13.4756C30.6553 12.5712 31.0904 11.7002 31.4838 11.0545C31.8191 10.5042 32.185 10.1438 32.2306 10.0815C32.3094 10.0721 32.8061 9.93329 33.4524 9.91984C34.2119 9.90233 35.1974 9.963 36.2033 10.0394C37.2093 10.1186 38.2435 10.2177 39.1935 10.2625C40.1434 10.3063 40.9553 10.3413 41.8377 10.1073C42.72 9.87249 43.4069 9.43481 44.2071 8.92421C45.0073 8.41321 45.8447 7.82338 46.6768 7.2562C47.5088 6.68897 48.329 6.14268 48.9945 5.77894C49.5607 5.46924 50.0588 5.33914 50.1324 5.30692ZM50.1324 15.9291C36.2966 15.9291 25.0381 27.1235 25.0381 40.8908C25.0381 54.6581 36.2966 65.8363 50.1324 65.8364C63.9682 65.8364 75.2298 54.6581 75.2298 40.8908C75.2298 27.1235 63.9682 15.9291 50.1324 15.9291ZM50.1324 19.2392C62.1908 19.2392 71.9165 28.9229 71.9165 40.8908C71.9165 52.8587 62.1908 62.5262 50.1324 62.5262C38.074 62.5262 28.3515 52.8587 28.3515 40.8908C28.3515 28.9229 38.074 19.2392 50.1324 19.2392ZM50.1324 32.0821C49.9017 32.0834 49.6738 32.133 49.4633 32.2277C49.2529 32.3223 49.0646 32.4599 48.9105 32.6316L45.2706 36.6497L39.0415 32.373C38.7702 32.1886 38.4502 32.0891 38.1222 32.0869C37.7942 32.0848 37.473 32.1802 37.1993 32.3611C36.9256 32.5419 36.7118 32.8 36.5852 33.1026C36.4585 33.4051 36.4246 33.7385 36.4878 34.0604L39.284 48.3418C39.3561 48.7201 39.558 49.0615 39.8548 49.3069C40.1516 49.5524 40.5248 49.6867 40.9099 49.6865H59.358C59.7432 49.6867 60.1164 49.5524 60.4132 49.3069C60.71 49.0615 60.9119 48.7201 60.984 48.3418L63.7802 34.0604C63.8434 33.7385 63.8095 33.4051 63.6828 33.1026C63.5561 32.8 63.3424 32.5419 63.0687 32.3611C62.795 32.1802 62.4738 32.0848 62.1458 32.0869C61.8178 32.0891 61.4978 32.1886 61.2265 32.373L55.0071 36.6497L51.3543 32.6316C51.2002 32.4599 51.0119 32.3223 50.8014 32.2277C50.591 32.133 50.3631 32.0834 50.1324 32.0821ZM50.1324 36.2101L53.5169 39.9501C53.7854 40.2471 54.1525 40.4367 54.5502 40.4836C54.9479 40.5306 55.3491 40.4318 55.6794 40.2055L59.7621 37.3964L58.0004 46.3764H42.2643L40.5188 37.3964L44.5886 40.2055C44.9186 40.4309 45.3191 40.5292 45.7161 40.4822C46.113 40.4353 46.4795 40.2463 46.7479 39.9501L50.1324 36.2101ZM27.6533 70.585C27.9704 71.2257 28.3003 71.8554 28.6489 72.4275C29.1549 73.2586 29.6083 74.0084 30.5658 74.5578C31.5233 75.1074 32.4074 75.1194 33.3846 75.1396C34.3617 75.1572 35.4246 75.0965 36.4619 75.02C37.4993 74.9409 38.5119 74.8366 39.3486 74.797C40.1853 74.7619 40.8904 74.822 40.9746 74.8489C41.0309 74.867 41.3655 75.0195 41.7924 75.2562L31.5743 92.8768L28.1414 86.069C27.9972 85.7793 27.7712 85.5382 27.4914 85.3756C27.2116 85.2131 26.8903 85.1361 26.5671 85.1542L18.9319 85.6197L27.6533 70.585ZM72.6147 70.585L81.3361 85.6163L73.7138 85.154C73.3901 85.1352 73.0681 85.2119 72.7877 85.3745C72.5072 85.5372 72.2807 85.7786 72.1363 86.0688L68.7034 92.8733L58.4724 75.2592C58.9027 75.0195 59.2383 74.8645 59.2966 74.8487C59.3804 74.8224 60.0859 74.7591 60.9226 74.7967C61.7593 74.8318 62.772 74.9397 63.8093 75.0198C64.8466 75.0989 65.9095 75.1596 66.8867 75.1394C67.8638 75.1219 68.7447 75.1063 69.7022 74.5575C70.6597 74.0079 71.1162 73.2581 71.6224 72.4273C71.9708 71.855 72.2978 71.2255 72.6147 70.585Z" fill="black"/>
</svg>
