<svg width="100" height="100" viewBox="0 0 100 100" fill="none" xmlns="http://www.w3.org/2000/svg">
<path d="M11 8H13V74H11V8Z" fill="#00B0FB"/>
<path d="M12 10V8H89V10H12Z" fill="#00B0FB"/>
<path d="M62 41.5C62 48.4036 56.4036 54 49.5 54C42.5964 54 37 48.4036 37 41.5C37 34.5964 42.5964 29 49.5 29C56.4036 29 62 34.5964 62 41.5Z" fill="#00B0FB"/>
<path d="M53 90.5C53 92.433 51.433 94 49.5 94C47.567 94 46 92.433 46 90.5C46 88.567 47.567 87 49.5 87C51.433 87 53 88.567 53 90.5Z" fill="#00B0FB"/>
<path d="M24.4502 41.2349C24.4502 44.5909 25.1112 47.9139 26.3955 51.0144C27.6797 54.1149 29.5621 56.932 31.9351 59.305C34.3081 61.678 37.1252 63.5604 40.2257 64.8447C43.3262 66.1289 46.6493 66.7899 50.0052 66.7899L50.0052 41.2349L24.4502 41.2349Z" fill="#00B0FB" fill-opacity="0.5"/>
<path d="M75.56 41.2349C75.56 37.879 74.899 34.5559 73.6147 31.4555C72.3305 28.355 70.4481 25.5378 68.0751 23.1648C65.7021 20.7918 62.885 18.9094 59.7845 17.6252C56.684 16.3409 53.3609 15.6799 50.005 15.6799L50.0052 41.2349H75.56Z" fill="#00B0FB" fill-opacity="0.5"/>
<path d="M93.8092 8.38091H6.19045C4.98123 8.38091 4 7.39967 4 6.19045C4 4.98123 4.98123 4 6.19045 4H93.8092C95.0184 4 95.9997 4.98123 95.9997 6.19045C95.9997 7.39967 95.0184 8.38091 93.8092 8.38091Z" fill="black"/>
<path d="M93.8092 78.4762H6.19045C4.98123 78.4762 4 77.495 4 76.2858C4 75.0766 4.98123 74.0953 6.19045 74.0953H93.8092C95.0184 74.0953 95.9997 75.0766 95.9997 76.2858C95.9997 77.495 95.0184 78.4762 93.8092 78.4762Z" fill="black"/>
<path d="M90.8877 78.476H9.11038C7.90116 78.476 6.91992 77.4948 6.91992 76.2856V6.19045C6.91992 4.98123 7.90116 4 9.11038 4H90.8877C92.097 4 93.0782 4.98123 93.0782 6.19045V76.2856C93.0782 77.4948 92.097 78.476 90.8877 78.476ZM11.3008 74.0951H88.6973V8.38091H11.3008V74.0951Z" fill="black"/>
<path d="M50.0006 96C46.7591 96 44.121 93.3616 44.121 90.1189C44.121 86.8788 46.7593 84.2407 50.0006 84.2407C53.2419 84.2407 55.8803 86.8791 55.8803 90.1189C55.8803 93.3619 53.2419 96 50.0006 96ZM50.0006 88.6214C49.1735 88.6214 48.5019 89.2944 48.5019 90.1187C48.5019 90.9458 49.1735 91.6188 50.0006 91.6188C50.8277 91.6188 51.4993 90.9458 51.4993 90.1187C51.4993 89.2944 50.8277 88.6214 50.0006 88.6214Z" fill="black"/>
<path d="M50.0008 88.6099C48.7915 88.6099 47.8103 87.6287 47.8103 86.4195V79.2064C47.8103 77.9972 48.7915 77.016 50.0008 77.016C51.21 77.016 52.1912 77.9972 52.1912 79.2064V86.4195C52.1912 87.6287 51.21 88.6099 50.0008 88.6099Z" fill="black"/>
<path d="M50.0007 55.1111C42.3512 55.1111 36.1277 48.8876 36.1277 41.2381C36.1277 33.5886 42.3512 27.3651 50.0007 27.3651C57.6502 27.3651 63.8737 33.5886 63.8737 41.2381C63.8737 48.8876 57.6502 55.1111 50.0007 55.1111ZM50.0007 31.746C44.7671 31.746 40.5087 36.0045 40.5087 41.2381C40.5087 46.4717 44.7671 50.7302 50.0007 50.7302C55.2344 50.7302 59.4928 46.4717 59.4928 41.2381C59.4928 36.0045 55.2344 31.746 50.0007 31.746Z" fill="black"/>
<path d="M50.0007 66.7936C35.9095 66.7936 24.4452 55.3307 24.4452 41.2381C24.4452 27.1454 35.9095 15.6826 50.0007 15.6826C64.0919 15.6826 75.5562 27.1454 75.5562 41.2381C75.5562 55.3307 64.0919 66.7936 50.0007 66.7936ZM50.0007 20.0635C38.3254 20.0635 28.8261 29.5613 28.8261 41.2381C28.8261 52.9148 38.3254 62.4126 50.0007 62.4126C61.676 62.4126 71.1753 52.9148 71.1753 41.2381C71.1753 29.5613 61.676 20.0635 50.0007 20.0635Z" fill="black"/>
<path d="M50.0007 31.746C48.7915 31.746 47.8103 30.7648 47.8103 29.5555V17.873C47.8103 16.6638 48.7915 15.6826 50.0007 15.6826C51.2099 15.6826 52.1912 16.6638 52.1912 17.873V29.5555C52.1912 30.7648 51.2099 31.746 50.0007 31.746Z" fill="black"/>
<path d="M73.3658 43.4281H61.6833C60.4741 43.4281 59.4928 42.4473 59.4928 41.2381C59.4928 40.0289 60.4741 39.0472 61.6833 39.0472H73.3658C74.5751 39.0472 75.5562 40.0288 75.5562 41.2381C75.5562 42.4473 74.5751 43.4281 73.3658 43.4281Z" fill="black"/>
<path d="M50.0007 66.7936C48.7915 66.7936 47.8103 65.8119 47.8103 64.6027V52.9202C47.8103 51.711 48.7915 50.7302 50.0007 50.7302C51.2099 50.7302 52.1912 51.711 52.1912 52.9202V64.6027C52.1912 65.8119 51.2099 66.7936 50.0007 66.7936Z" fill="black"/>
<path d="M38.3182 43.4281H26.6356C25.4264 43.4281 24.4452 42.4473 24.4452 41.2381C24.4452 40.0288 25.4264 39.0472 26.6356 39.0472H38.3182C39.5274 39.0472 40.5087 40.0289 40.5087 41.2381C40.5087 42.4473 39.5274 43.4281 38.3182 43.4281Z" fill="black"/>
<path d="M65.445 25.9046C64.9204 25.9046 64.3954 25.7192 63.9762 25.34C63.0792 24.5272 63.0094 23.1438 63.8192 22.2454L71.7384 13.4835C72.1547 13.0244 72.7452 12.7619 73.3642 12.7619H82.126C83.3352 12.7619 84.3165 13.7432 84.3165 14.9524C84.3165 16.1616 83.3352 17.1428 82.126 17.1428H74.3368L67.0709 25.183C66.6373 25.6623 66.0428 25.9046 65.445 25.9046Z" fill="black"/>
<path d="M34.554 25.9046C33.9566 25.9046 33.3617 25.6623 32.9282 25.183L25.6622 17.1428H17.873C16.6638 17.1428 15.6826 16.1616 15.6826 14.9524C15.6826 13.7432 16.6638 12.7619 17.873 12.7619H26.6348C27.2538 12.7619 27.8441 13.0244 28.2606 13.4835L36.1798 22.2454C36.9897 23.1438 36.9198 24.5272 36.0228 25.34C35.6036 25.7192 35.0787 25.9046 34.554 25.9046Z" fill="black"/>
<path d="M82.126 69.714H73.3642C72.7452 69.714 72.155 69.4515 71.7384 68.9924L63.8192 60.2306C63.0094 59.3321 63.0792 57.9487 63.9762 57.1359C64.8761 56.326 66.2592 56.3945 67.0709 57.2929L74.3368 65.3331H82.126C83.3352 65.3331 84.3165 66.3143 84.3165 67.5236C84.3165 68.7328 83.3352 69.714 82.126 69.714Z" fill="black"/>
<path d="M26.6348 69.714H17.873C16.6638 69.714 15.6826 68.7328 15.6826 67.5236C15.6826 66.3143 16.6638 65.3331 17.873 65.3331H25.6622L32.9282 57.2929C33.7424 56.3945 35.1287 56.326 36.0228 57.1359C36.9198 57.9487 36.9897 59.3321 36.1798 60.2306L28.2606 68.9924C27.8443 69.4515 27.2538 69.714 26.6348 69.714Z" fill="black"/>
</svg>
