<svg width="100" height="100" viewBox="0 0 100 100" fill="none" xmlns="http://www.w3.org/2000/svg">
<path fill-rule="evenodd" clip-rule="evenodd" d="M27.6806 56.3401C13.5205 56.3401 2 44.8204 2 30.6603C2 16.5107 13.5205 5 27.6806 5C41.8408 5 53.3605 16.5107 53.3605 30.6603C53.3605 44.8204 41.8408 56.3401 27.6806 56.3401ZM16.1375 43.5997C19.3369 46.4438 23.4363 48.01 27.6806 48.01C31.9249 48.01 36.0236 46.4438 39.22 43.6028C42.9128 40.3362 45.0311 35.6197 45.0311 30.6602C45.0311 21.105 37.248 13.3301 27.6806 13.3301C18.1133 13.3301 10.3301 21.105 10.3301 30.6602C10.3301 35.6197 12.4477 40.3377 16.1375 43.5997Z" fill="#00B0FB" fill-opacity="0.5"/>
<path d="M1.75 30.6603C1.75 44.9585 13.3824 56.5901 27.6806 56.5901C41.9788 56.5901 53.6105 44.9585 53.6105 30.6603C53.6105 16.3724 41.9786 4.75 27.6806 4.75C13.3826 4.75 1.75 16.3724 1.75 30.6603ZM5.34003 30.6603C5.34003 18.3539 15.3618 8.34003 27.6806 8.34003C39.9987 8.34003 50.0205 18.3539 50.0205 30.6603C50.0205 42.9789 39.9985 53.0001 27.6806 53.0001C15.362 53.0001 5.34003 42.9789 5.34003 30.6603Z" fill="black" stroke="black" stroke-width="0.5"/>
<ellipse cx="27.5649" cy="30.0458" rx="4.92474" ry="4.92474" fill="#00B0FB" fill-opacity="0.5"/>
<path d="M20.0728 29.6402C20.0728 33.8355 23.4852 37.2471 27.6804 37.2471C31.8749 37.2471 35.2874 33.8354 35.2874 29.6402C35.2874 25.445 31.875 22.0317 27.6804 22.0317C23.4852 22.0317 20.0728 25.445 20.0728 29.6402ZM23.6628 29.6402C23.6628 27.4245 25.4656 25.6218 27.6804 25.6218C29.8953 25.6218 31.6973 27.4244 31.6973 29.6402C31.6973 31.8544 29.8953 33.6571 27.6804 33.6571C25.4655 33.6571 23.6628 31.8543 23.6628 29.6402Z" fill="black" stroke="black" stroke-width="0.5"/>
<path d="M27.6804 48.0099C23.4362 48.0099 19.3367 46.4437 16.1373 43.5996C15.6454 43.1621 15.4847 42.4605 15.7375 41.8524C17.6884 37.157 22.214 34.0489 27.2919 33.9071C27.6223 33.8588 27.7355 33.8588 28.0644 33.9071C31.3581 33.9855 34.4595 35.3178 36.8102 37.667C37.9878 38.8439 38.9587 40.2878 39.6181 41.8419C39.8776 42.4529 39.7177 43.1591 39.2228 43.5996C36.0234 46.4437 31.9247 48.0099 27.6804 48.0099Z" fill="#00B0FB"/>
<path d="M15.9711 43.7864L15.9712 43.7865C19.216 46.6709 23.3743 48.2599 27.6804 48.2599C31.9865 48.2599 36.1441 46.6709 39.3889 43.7865L39.389 43.7864C39.9638 43.2747 40.1498 42.4542 39.8482 41.7441C39.1765 40.161 38.1876 38.6901 36.9869 37.4902C34.5948 35.0996 31.4384 33.7412 28.0856 33.6575C27.9259 33.6343 27.8044 33.6208 27.6787 33.6208C27.553 33.6208 27.4309 33.6343 27.2703 33.6576C22.1 33.8077 17.4934 36.9746 15.5066 41.7565C15.213 42.463 15.3997 43.2781 15.9711 43.7864ZM27.8833 37.244V37.244L27.8854 37.2441C30.3543 37.2764 32.6844 38.265 34.4487 40.0286C35.018 40.5979 35.5231 41.2523 35.9428 41.9597C33.5405 43.7158 30.6532 44.6698 27.6804 44.6698C24.7043 44.6698 21.8144 43.7141 19.4097 41.9547C21.0799 39.1143 24.1244 37.3045 27.4835 37.244L27.4846 37.244C27.5507 37.2425 27.6155 37.2373 27.6788 37.2297C27.7489 37.2387 27.8175 37.2426 27.8833 37.244Z" fill="black" stroke="black" stroke-width="0.5"/>
<path d="M18.354 41.1014L18.3535 41.101C15.3772 38.4692 13.6701 34.6645 13.6701 30.6602C13.6701 22.9468 19.9552 16.6701 27.6806 16.6701C35.406 16.6701 41.6911 22.9468 41.6911 30.6602C41.6911 34.6629 39.9832 38.4692 37.0038 41.104L37.0034 41.1044C34.4158 43.4043 31.1048 44.6699 27.6806 44.6699C24.2557 44.6699 20.9447 43.4044 18.354 41.1014ZM10.0801 30.6602C10.0801 35.6906 12.2279 40.4769 15.9716 43.7868C19.2163 46.6711 23.3746 48.26 27.6806 48.26C31.9866 48.26 36.1443 46.671 39.386 43.7896C43.1325 40.4753 45.2811 35.6906 45.2811 30.6602C45.2811 20.9666 37.3857 13.0801 27.6806 13.0801C17.9754 13.0801 10.0801 20.9666 10.0801 30.6602Z" fill="black" stroke="black" stroke-width="0.5"/>
<path d="M21.2894 52.819L21.2894 52.819L21.2884 52.8198C20.8629 53.1613 20.6147 53.6765 20.6147 54.2218V63.8495C20.6147 64.8417 21.4185 65.6445 22.4098 65.6445H32.9427C33.934 65.6445 34.7377 64.8417 34.7377 63.8495V54.2218C34.7377 53.6748 34.4887 53.1595 34.0624 52.8182L34.0622 52.818C33.6356 52.4771 33.0731 52.3462 32.5427 52.4726C29.4331 53.1791 25.9716 53.1822 22.804 52.4706L22.8039 52.4706C22.2717 52.3514 21.7148 52.4812 21.2894 52.819ZM31.1477 56.3664V62.0545H24.2048V56.3635C26.491 56.6696 28.8833 56.6686 31.1477 56.3664Z" fill="black" stroke="black" stroke-width="0.5"/>
<path d="M18.1748 86.3319C18.1748 91.5712 22.4367 95.8339 27.676 95.8339C32.9154 95.8339 37.1773 91.5712 37.1773 86.3319V66.2572C37.1773 63.945 35.2955 62.0632 32.9825 62.0632H22.3696C20.0566 62.0632 18.1748 63.945 18.1748 66.2572V86.3319ZM21.7648 66.2572C21.7648 65.9247 22.036 65.6533 22.3696 65.6533H32.9825C33.3161 65.6533 33.5872 65.9247 33.5872 66.2572V86.3319C33.5872 89.5917 30.935 92.2439 27.676 92.2439C24.4171 92.2439 21.7648 89.5917 21.7648 86.3319V66.2572Z" fill="black" stroke="black" stroke-width="0.5"/>
<rect x="54.3779" y="63.4246" width="5.47193" height="28.4541" fill="#00B0FB" fill-opacity="0.5"/>
<path d="M52.1544 95.4058H61.4207C62.4119 95.4058 63.2157 94.603 63.2157 93.6108V61.3133C63.2157 60.3212 62.4119 59.5183 61.4207 59.5183H52.1544C51.1632 59.5183 50.3594 60.3212 50.3594 61.3133V93.6108C50.3594 94.603 51.1632 95.4058 52.1544 95.4058ZM59.6257 63.1083V91.8158H53.9494V63.1083H59.6257Z" fill="black" stroke="black" stroke-width="0.5"/>
<path d="M69.6715 95.4058H78.9378C79.929 95.4058 80.7328 94.6029 80.7328 93.6108V46.7352C80.7328 45.7431 79.929 44.9402 78.9378 44.9402H69.6715C68.6803 44.9402 67.8765 45.7431 67.8765 46.7352V93.6108C67.8765 94.6029 68.6803 95.4058 69.6715 95.4058ZM77.1428 48.5302V91.8158H71.4665V48.5302H77.1428Z" fill="black" stroke="black" stroke-width="0.5"/>
<rect x="71.8877" y="48.103" width="5.47193" height="43.7755" fill="#00B0FB"/>
<path d="M87.1886 95.4054H96.4549C97.4461 95.4054 98.2499 94.6026 98.2499 93.6104V32.1583C98.2499 31.1662 97.4461 30.3633 96.4549 30.3633H87.1886C86.1974 30.3633 85.3936 31.1662 85.3936 32.1583V93.6104C85.3936 94.6026 86.1974 95.4054 87.1886 95.4054ZM94.6599 33.9533V91.8154H88.9836V33.9533H94.6599Z" fill="black" stroke="black" stroke-width="0.5"/>
<rect x="89.3979" y="33.8762" width="5.47193" height="58.0025" fill="#00B0FB" fill-opacity="0.5"/>
<path d="M77.5889 29.4987C77.2502 29.4987 76.9115 29.3696 76.6536 29.1113C76.1359 28.596 76.1359 27.7578 76.6523 27.2412L91.515 12.3764C92.0308 11.8599 92.8698 11.8586 93.3869 12.3764C93.9046 12.8917 93.9046 13.7299 93.3881 14.2465L78.5255 29.1113C78.2669 29.3696 77.9282 29.4987 77.5889 29.4987Z" fill="#00B0FB"/>
<path d="M76.1173 24.8709L76.1173 24.8709C75.4172 25.5719 75.4168 26.7093 76.119 27.4092C76.4688 27.7597 76.9285 27.935 77.3873 27.935C77.8469 27.935 78.3067 27.7596 78.6572 27.4091L78.6573 27.409L96.004 10.0427L96.0041 10.0427C96.704 9.34179 96.7045 8.20453 96.0027 7.50468C95.3013 6.80156 94.1634 6.80339 93.4639 7.50468L76.1173 24.8709Z" fill="black" stroke="black" stroke-width="0.5"/>
<path d="M46.6627 60.6001C46.2674 60.6001 45.8721 60.4492 45.5703 60.1474C44.9668 59.5439 44.9668 58.5662 45.5703 57.9627L70.8089 32.7234C71.4124 32.1199 72.3901 32.1199 72.9936 32.7234C73.5971 33.3269 73.5971 34.3046 72.9936 34.9081L47.7551 60.1474C47.4533 60.4492 47.058 60.6001 46.6627 60.6001Z" fill="#00B0FB"/>
<path d="M44.2993 59.23C44.6498 59.5805 45.1095 59.7558 45.5685 59.7558C46.0274 59.7558 46.4871 59.5805 46.8376 59.23L72.0761 33.9907C72.7773 33.2895 72.7773 32.1535 72.0761 31.4524C71.375 30.7512 70.239 30.7512 69.5378 31.4524L44.2993 56.6917C43.5981 57.3928 43.5981 58.5288 44.2993 59.23Z" fill="black" stroke="black" stroke-width="0.5"/>
<path d="M92.9292 24.5814C92.9292 25.5735 93.733 26.3764 94.7242 26.3764C95.7154 26.3764 96.5192 25.5735 96.5192 24.5814V8.77964C96.5192 7.7875 95.7154 6.98462 94.7242 6.98462H78.9376C77.9464 6.98462 77.1426 7.7875 77.1426 8.77964C77.1426 9.77177 77.9464 10.5747 78.9376 10.5747H92.9292V24.5814Z" fill="black" stroke="black" stroke-width="0.5"/>
<circle cx="74.0761" cy="29.4987" r="3.28316" fill="#00B0FB" fill-opacity="0.5"/>
<path d="M69.5654 34.0176L69.5653 34.0176L69.5699 34.022C70.7933 35.185 72.3869 35.8274 74.0558 35.8274C77.606 35.8274 80.4942 32.9393 80.4942 29.3898C80.4942 27.7185 79.8512 26.1258 78.66 24.8736L78.6601 24.8736L78.6554 24.8689C77.434 23.6507 75.7587 22.9507 74.0558 22.9507C70.5048 22.9507 67.6167 25.8388 67.6167 29.3898C67.6167 31.095 68.3173 32.7695 69.5654 34.0176ZM71.2067 29.3898C71.2067 27.8184 72.4851 26.5407 74.0558 26.5407C74.811 26.5407 75.5636 26.8571 76.0889 27.3798C76.6163 27.9348 76.9042 28.6481 76.9042 29.3898C76.9042 30.9597 75.6265 32.2374 74.0558 32.2374C73.3135 32.2374 72.6004 31.9478 72.0742 31.4498C71.522 30.8963 71.2067 30.1441 71.2067 29.3898Z" fill="black" stroke="black" stroke-width="0.5"/>
</svg>
