<svg width="100" height="100" viewBox="0 0 100 100" fill="none" xmlns="http://www.w3.org/2000/svg">
<path d="M5 77H95V77C95 80.866 91.866 84 88 84H12C8.13401 84 5 80.866 5 77V77Z" fill="#00B0FB" fill-opacity="0.5"/>
<path d="M19 23V21.75H18V23H19ZM19 24.25H84V21.75H19V24.25ZM20 68V23H18V68H20Z" fill="#00B0FB"/>
<path d="M98.2305 76.9405L98.2305 76.9404C98.4278 75.2558 97.105 73.7727 95.4114 73.7727H92.8321V19.5C92.8321 15.2267 89.3554 11.75 85.0821 11.75H14.9274C10.6541 11.75 7.17745 15.2267 7.17745 19.5V73.7727H4.5886C2.89353 73.7727 1.57228 75.2564 1.7695 76.9404L2.01779 76.9113L1.76951 76.9404C2.48083 83.0095 7.63124 87.5851 13.7497 87.5851H86.2503C92.3673 87.5851 97.5177 83.0095 98.2305 76.9405ZM10.6774 19.5C10.6774 17.1566 12.5841 15.25 14.9274 15.25H85.0821C87.4255 15.25 89.3321 17.1566 89.3321 19.5V73.7727H10.6774V19.5ZM86.2503 84.0851H13.7497C9.65845 84.0851 6.17713 81.2046 5.36472 77.2726L10.8134 77.2727C32.5231 77.2727 79.9529 77.2729 94.6345 77.2727C93.8215 81.2053 90.3408 84.0851 86.2503 84.0851Z" fill="black" stroke="black" stroke-width="0.5"/>
<path d="M83.6117 18.8296H16.3823C15.4158 18.8296 14.6323 19.614 14.6323 20.5796V68.4446C14.6323 69.411 15.4159 70.1946 16.3823 70.1946H83.6117C84.5782 70.1946 85.3617 69.411 85.3617 68.4446V20.5796C85.3617 19.614 84.5783 18.8296 83.6117 18.8296ZM81.8617 66.6946H18.1323V22.3296H81.8617V66.6946Z" fill="black" stroke="black" stroke-width="0.5"/>
<path d="M54.6875 78.929H45.3125C44.346 78.929 43.5625 79.7133 43.5625 80.6789C43.5625 81.6462 44.3461 82.4289 45.3125 82.4289H54.6875C55.6538 82.4289 56.4374 81.6462 56.4374 80.6789C56.4374 79.7133 55.654 78.929 54.6875 78.929Z" fill="black" stroke="black" stroke-width="0.5"/>
<path d="M44.9062 61.6228C45.1825 62.0731 45.7074 62.156 46.0745 61.9312C46.4663 61.6916 46.5948 61.1816 46.3513 60.7834L43.4751 56.3333L42.0513 57.2048L44.9062 61.6228Z" fill="#00B0FB"/>
<path d="M64.1182 39.397C64.8491 38.2222 64.8997 36.6995 64.1328 35.4448C63.366 34.1909 61.982 33.5389 60.6089 33.6575C60.3904 33.3003 63.9161 39.0665 64.1182 39.397Z" fill="#00B0FB"/>
<path d="M52.6365 27.0147C52.3258 26.9376 52.0129 26.9752 51.7312 27.148C51.1782 27.4856 51.0037 28.2107 51.3401 28.7637L64.2488 49.8755C64.5869 50.4265 65.3112 50.6045 65.867 50.2644C66.4207 49.926 66.5957 49.1996 66.2573 48.6459C54.228 28.9725 72.2458 58.443 53.3499 27.5376C53.1397 27.1934 52.846 27.063 52.6365 27.0147Z" fill="#00B0FB" fill-opacity="0.5"/>
<path d="M39.2366 45.927L35.6177 48.1396C33.7222 49.2983 33.0943 51.7745 34.2705 53.698C35.4348 55.6012 37.9145 56.2164 39.8379 55.0412L43.4558 52.8279L39.2366 45.927Z" fill="#00B0FB" fill-opacity="0.5"/>
<path d="M39.2841 58.4499L42.3662 63.2187C43.4566 65.0045 45.8193 65.6019 47.6396 64.4909C49.4435 63.3864 50.0141 61.0214 48.8905 59.1867L46.035 54.7673L46.2729 54.6223C51.5034 53.0681 56.7864 52.2954 62.385 52.2756C63.8208 53.6422 65.8728 53.7784 67.4317 52.8235C69.3968 51.6223 70.0186 49.0457 68.8167 47.0813L65.7753 42.1067C67.8853 39.93 68.3353 36.566 66.692 33.8802C65.0504 31.1937 61.8514 30.0606 58.9514 30.9469L55.91 25.973C55.3219 25.0099 54.3983 24.3412 53.34 24.0988C52.2758 23.83 51.1164 24.0072 50.1671 24.588C48.5269 25.5907 47.841 27.5492 48.3515 29.3128C45.78 34.2918 42.6908 38.6541 38.922 42.6033L34.0532 45.5799C30.7324 47.6094 29.6781 51.9382 31.7117 55.2639C33.2388 57.7606 36.2028 59.1514 39.2841 58.4499ZM46.0744 61.9311C45.7073 62.156 45.1825 62.073 44.9062 61.6227L42.0512 57.2048L43.475 56.3332L46.3512 60.7834C46.5947 61.1815 46.4662 61.6915 46.0744 61.9311ZM64.1329 35.4446C64.8997 36.6993 64.8492 38.222 64.1183 39.3968C63.9162 39.0664 60.3904 33.3003 60.6089 33.6575C61.982 33.5389 63.3661 34.1907 64.1329 35.4446ZM51.7316 27.1478C52.0132 26.975 52.3262 26.9374 52.6369 27.0145C52.8463 27.0628 53.14 27.1932 53.3502 27.5375C72.2462 58.4429 54.2283 28.9724 66.2576 48.6458C66.596 49.1995 66.421 49.926 65.8673 50.2644C65.3115 50.6045 64.5871 50.4265 64.249 49.8755L51.3403 28.7635C51.0039 28.2105 51.1786 27.4855 51.7316 27.1478ZM50.0869 32.4652L60.384 49.3057C55.4907 49.4734 50.808 50.2029 46.1703 51.5154L41.6418 44.1092C44.9238 40.5804 47.706 36.7454 50.0869 32.4652ZM35.6177 48.1397L39.2365 45.927L43.456 52.8279L39.8378 55.0412C37.9144 56.2164 35.435 55.6012 34.2707 53.698C33.0945 51.7744 33.7221 49.2984 35.6177 48.1397Z" fill="black"/>
</svg>
