<?xml version="1.0" encoding="utf-8"?>
<!-- Generator: Adobe Illustrator 24.3.0, SVG Export Plug-In . SVG Version: 6.00 Build 0)  -->
<svg version="1.1" id="Layer_1" xmlns="http://www.w3.org/2000/svg" xmlns:xlink="http://www.w3.org/1999/xlink" x="0px" y="0px"
	 width="6486.1px" height="2611.7px" viewBox="0 0 6486.1 2611.7" style="enable-background:new 0 0 6486.1 2611.7;"
	 xml:space="preserve">
<style type="text/css">
	.st0{fill:#1D1E1E;}
</style>
<g>
	<path class="st0" d="M0,1988.7v-91.1c62.3-1.6,112.2-6.4,149.8-14.4c37.5-8,66.3-21.6,86.3-40.7c20-19.2,33.5-46.3,40.7-81.5
		c7.2-35.1,10.8-80.6,10.8-136.6V508c0-55.9-2.8-101-8.4-135.4c-5.6-34.3-16.8-61.5-33.5-81.5c-16.8-20-41.1-33.5-73.1-40.7
		c-32-7.2-73.5-12.4-124.6-15.6v-91.1h716.4c215.6,0,383.4,38.3,503.2,115c119.8,76.7,179.7,184.5,179.7,323.5
		c0,105.4-33.2,191.7-99.4,258.8c-66.3,67.1-171.3,122.2-315.1,165.3v9.6c49.5,4.8,92.6,10.4,129.4,16.8c36.7,6.4,69.5,14,98.2,22.8
		c28.8,8.8,55.5,19.6,80.3,32.3c24.7,12.8,49.1,27.2,73.1,43.1c142.2,100.6,213.3,226.8,213.3,378.6c0,84.7-23.6,163.3-70.7,236
		c-47.1,72.7-113,129.8-197.7,171.3c-27.2,14.4-55.1,26-83.9,34.7c-28.8,8.8-62.3,16-100.6,21.6c-38.3,5.6-82.7,9.6-133,12
		c-50.3,2.4-109.8,3.6-178.5,3.6H0z M673.3,958.4c49.5,0,91-0.8,124.6-2.4c33.5-1.6,62.3-4.4,86.3-8.4c24-4,45.1-9.6,63.5-16.8
		c18.3-7.2,37.1-17.1,56.3-30c51.1-31.9,87.5-70.3,109-115c21.6-44.7,32.3-103,32.3-174.9c0-126.2-30.8-216.8-92.2-272
		c-61.5-55.1-157.8-82.7-288.7-82.7H579.8c-27.2,0-40.7,13.6-40.7,40.7v661.3H673.3z M869.8,1885.7c289.1,0,433.7-123.8,433.7-371.4
		c0-180.5-74.3-306.7-222.8-378.6c-25.6-11.2-50.3-20.7-74.3-28.7c-24-8-51.9-14-83.9-18c-32-4-69.9-6.8-113.8-8.4
		c-44-1.6-97.9-2.4-161.7-2.4H539.1v534.3c0,97.5,25.5,167.4,76.7,209.7C666.9,1864.6,751.5,1885.7,869.8,1885.7z"/>
	<path class="st0" d="M2583,1176.5v-98.2c0-194.9-83.1-292.3-249.2-292.3c-27.2,0-50.3,2.4-69.5,7.2c-19.2,4.8-35.2,12.8-47.9,24
		c-12.8,11.2-24.4,27.2-34.7,47.9c-10.4,20.8-20.4,46.3-30,76.7c-17.6,46.4-34.7,77.1-51.5,92.3c-16.8,15.2-41.1,22.8-73.1,22.8
		c-79.9,0-119.8-39.9-119.8-119.8c0-76.7,40.7-136.2,122.2-178.5c81.5-42.3,197.3-63.5,347.4-63.5c159.7,0,273.2,28.4,340.2,85.1
		c67.1,56.7,100.6,153,100.6,288.7v536.7c0,182.1,35.9,273.2,107.8,273.2c22.3,0,43.9-2.8,64.7-8.4c20.7-5.6,38.3-20.4,52.7-44.3
		l33.5,57.5c-19.2,36.8-54.3,67.5-105.4,92.2c-51.1,24.7-104.6,37.1-160.5,37.1c-70.3,0-122.6-22.4-156.9-67.1
		c-34.4-44.7-51.5-107.8-51.5-189.3h-12c-41.6,78.3-99.1,140.2-172.5,185.7c-73.5,45.5-155,68.3-244.4,68.3
		c-100.6,0-179.7-25.5-237.2-76.7c-57.5-51.1-86.3-119.8-86.3-206.1c0-38.3,6.8-75.1,20.4-110.2c13.6-35.1,35.5-68.7,65.9-100.6
		c30.3-31.9,70.3-63.5,119.8-94.6c49.5-31.1,110.2-62.7,182.1-94.6L2583,1176.5z M2583,1279.5c-91.1,35.2-168.1,69.5-231.2,103
		c-63.1,33.5-113.8,67.1-152.2,100.6s-65.9,67.1-82.7,100.6c-16.8,33.5-25.2,67.9-25.2,103c0,52.7,17.6,95.8,52.7,129.4
		c35.1,33.5,81.5,50.3,139,50.3c41.5,0,80.3-10.4,116.2-31.2c35.9-20.7,67.5-49.1,94.6-85.1c27.1-35.9,48.7-78.2,64.7-127
		c16-48.7,24-100.2,24-154.5V1279.5z"/>
	<path class="st0" d="M3606.1,1607.8c0,65.5,1.6,117.4,4.8,155.7c3.2,38.3,11.6,67.5,25.2,87.5c13.5,20,33.1,33.2,58.7,39.5
		c25.5,6.4,61.5,11.2,107.8,14.4v83.9h-637.4v-83.9c46.3-1.6,83-6,110.2-13.2c27.1-7.2,47.9-20.4,62.3-39.5
		c14.4-19.2,23.6-46.7,27.6-82.7c4-35.9,6-84.2,6-145v-280.3c0-108.6-1.2-193.3-3.6-254c-2.4-60.7-10.4-105.4-24-134.2
		c-13.6-28.8-34.7-45.9-63.5-51.5c-28.8-5.6-68.7-8.4-119.8-8.4v-83.9l419.3-91.1l33.5,297.1h9.6c20.7-47.9,46.7-91.8,77.9-131.8
		c31.2-39.9,65.1-73.9,101.8-101.8c36.7-27.9,75.1-49.9,115-65.9c39.9-15.9,80.6-24,122.2-24c51.1,0,91.4,12.4,121,37.1
		c29.5,24.8,44.3,57.9,44.3,99.4c0,38.3-12,68.3-35.9,89.9c-24,21.6-58.3,32.3-103,32.3c-25.6,0-47.1-3.2-64.7-9.6
		c-17.6-6.4-33.2-13.2-46.7-20.4c-13.6-7.2-26.4-14-38.3-20.4c-12-6.4-25.2-9.6-39.5-9.6c-43.1,0-86.3,27.6-129.4,82.7
		c-43.1,55.1-76.7,125-100.6,209.7c-12.8,46.3-22.8,98.6-29.9,156.9c-7.2,58.3-10.8,119.4-10.8,183.3V1607.8z"/>
	<path class="st0" d="M4717.8,1615c0,60.7,2.4,109.4,7.2,146.2c4.8,36.8,14.7,65.5,29.9,86.3c15.2,20.8,36.7,35.2,64.7,43.1
		c27.9,8,65.1,12.8,111.4,14.4v83.9h-661.3v-83.9c47.9-1.6,86.3-6.8,115-15.6c28.8-8.8,51.5-22.8,68.3-41.9
		c16.8-19.2,27.9-45.9,33.5-80.3c5.6-34.3,8.4-79.4,8.4-135.4V599c0-86.3-1.2-158.5-3.6-216.8c-2.4-58.3-6-97.8-10.8-118.6
		c-8-36.7-26.8-61.5-56.3-74.3c-29.6-12.8-82.7-19.2-159.3-19.2V88.7L4717.8,0V1615z"/>
	<path class="st0" d="M5654.7,2364.9c-73.5,164.5-187.7,246.8-342.6,246.8c-100.6,0-151-37.6-151-112.6c0-39.9,14-69.1,41.9-87.5
		c27.9-18.4,79.4-34,154.5-46.7c33.5-4.8,62.3-11.6,86.3-20.4c24-8.8,45.5-20,64.7-33.5c19.2-13.6,36.3-30.8,51.5-51.5
		c15.2-20.8,29.9-46.3,44.3-76.7l83.9-167.7l-460-999.2c-20.8-44.7-38.7-80.3-53.9-106.6c-15.2-26.4-31.1-47.1-47.9-62.3
		c-16.8-15.2-35.6-25.5-56.3-31.2c-20.8-5.6-47.1-10-79.1-13.2v-83.9h635v83.9c-107,0-160.5,26.4-160.5,79.1
		c0,20.8,6.4,53.5,19.2,98.2c12.8,44.7,28.8,90.3,47.9,136.6l263.6,637.4h12l218-539.1c20.7-52.7,37.9-95.8,51.5-129.4
		c13.6-33.5,24-61.1,31.2-82.7c7.2-21.6,12-39.5,14.4-53.9c2.4-14.4,3.6-27.9,3.6-40.7c0-41.5-11.6-69.5-34.7-83.9
		c-23.2-14.4-67.5-21.6-133-21.6v-83.9h527.1v83.9c-30.4,0-55.9,4-76.7,12c-20.8,8-41.9,26-63.5,53.9c-21.6,28-45.5,68.3-71.9,121
		c-26.4,52.7-58.7,123.8-97,213.3L5654.7,2364.9z"/>
</g>
</svg>
