<?xml version="1.0" encoding="utf-8"?>
<!-- Generator: Adobe Illustrator 24.3.0, SVG Export Plug-In . SVG Version: 6.00 Build 0)  -->
<svg version="1.1" id="Layer_1" xmlns="http://www.w3.org/2000/svg" xmlns:xlink="http://www.w3.org/1999/xlink" x="0px" y="0px"
	 width="5342.2px" height="1228.2px" viewBox="0 0 5342.2 1228.2" style="enable-background:new 0 0 5342.2 1228.2;"
	 xml:space="preserve">
<style type="text/css">
	.st0{fill:#C1282A;}
</style>
<g>
	<g>
		<path class="st0" d="M296.4,1225.3c-61.9,0-115-11.1-159.2-33.2c-44.2-22.1-78.1-54.6-101.7-97.3C11.8,1052,0,1000.7,0,940.7
			V628.1c0-60.9,11.8-112.5,35.4-154.8C59,431,93.1,398.8,137.9,376.7c44.7-22.1,97.5-33.2,158.5-33.2c62.9,0,115.3,10.8,157,32.4
			c41.8,21.6,73.2,53.6,94.4,95.8c21.1,42.3,31.7,94.4,31.7,156.3v171H237.4v163.7c0,21.6,2.4,39.3,7.4,53.1
			c4.9,13.8,11.8,23.6,20.7,29.5c8.8,5.9,19.2,8.9,31,8.9c11.8,0,22.4-2.7,31.7-8.1c9.3-5.4,16.7-14,22.1-25.8
			c5.4-11.8,8.1-28,8.1-48.7v-89.9h221.2v82.6c0,86.5-25.1,151.6-75.2,195.4C454.1,1203.4,384.8,1225.3,296.4,1225.3z M237.4,687.1
			h120.9v-85.5c0-22.6-2.7-40.3-8.1-53.1c-5.4-12.8-12.8-21.6-22.1-26.5c-9.4-4.9-20.4-7.4-33.2-7.4c-11.8,0-21.9,3-30.2,8.9
			c-8.4,5.9-15,16-19.9,30.2c-4.9,14.3-7.4,34.7-7.4,61.2V687.1z"/>
		<path d="M1064.5,1228.2c-82.6,0-147.7-17.2-195.4-51.6c-47.7-34.4-81.6-82.8-101.7-145.2c-20.2-62.4-30.2-134.4-30.2-216V414.3
			c0-84.5,10.8-157.8,32.4-219.7C791.3,132.7,828.4,84.8,881,50.9C933.6,17,1005.1,0,1095.5,0c88.5,0,158,14.7,208.6,44.2
			c50.6,29.5,86.7,70.3,108.4,122.4c21.6,52.1,32.4,113.1,32.4,182.8v76.7h-258v-97.3c0-25.5-1.7-49.1-5.2-70.8
			c-3.5-21.6-11.3-39.1-23.6-52.3s-32.2-19.9-59.7-19.9c-28.5,0-49.1,7.6-61.9,22.9c-12.8,15.2-20.9,34.2-24.3,56.8
			c-3.5,22.6-5.2,46.2-5.2,70.8v552.9c0,26.5,2.7,51.4,8.1,74.5c5.4,23.1,15.2,41.8,29.5,56c14.2,14.3,34.7,21.4,61.2,21.4
			c27.5,0,48.7-7.4,63.4-22.1c14.7-14.7,25.1-33.9,31-57.5c5.9-23.6,8.8-48.7,8.8-75.2V746.1h-107.6V591.3h345v619.3h-174
			l-14.7-98.8c-15.7,33.4-38.8,61.2-69.3,83.3C1157.9,1217.2,1116.6,1228.2,1064.5,1228.2z"/>
		<path d="M1907.9,1225.3c-61,0-113.8-10.3-158.5-31c-44.8-20.6-79.1-51.6-103.2-92.9c-24.1-41.3-36.1-92.9-36.1-154.8V622.2
			c0-61.9,12-113.5,36.1-154.8c24.1-41.3,58.5-72.3,103.2-92.9c44.7-20.7,97.5-31,158.5-31c60.9,0,113.8,10.3,158.5,31
			c44.7,20.6,79.4,51.6,104,92.9c24.5,41.3,36.9,92.9,36.9,154.8v324.4c0,61.9-12.3,113.5-36.9,154.8c-24.6,41.3-59.2,72.3-104,92.9
			C2021.7,1215,1968.9,1225.3,1907.9,1225.3z M1909.4,1066c15.7,0,28-4.2,36.9-12.5c8.9-8.3,15-20.1,18.4-35.4
			c3.4-15.2,5.2-33.7,5.2-55.3V606c0-21.6-1.7-40-5.2-55.3c-3.5-15.2-9.6-27-18.4-35.4c-8.8-8.3-21.1-12.5-36.9-12.5
			c-15.7,0-28,4.2-36.9,12.5c-8.8,8.4-15.2,20.2-19.2,35.4c-3.9,15.2-5.9,33.7-5.9,55.3v356.8c0,21.6,2,40.1,5.9,55.3
			c3.9,15.2,10.3,27.1,19.2,35.4C1881.4,1061.9,1893.7,1066,1909.4,1066z"/>
		<path d="M2480,1210.5l-171-852.2h230l70.8,544.1l64.9-544.1h230l-175.5,852.2H2480z"/>
		<path d="M3298.3,1225.3c-61.9,0-115-11.1-159.2-33.2c-44.2-22.1-78.1-54.6-101.7-97.3c-23.6-42.8-35.4-94.1-35.4-154.1V628.1
			c0-60.9,11.8-112.5,35.4-154.8c23.6-42.2,57.7-74.5,102.5-96.6c44.7-22.1,97.5-33.2,158.5-33.2c62.9,0,115.3,10.8,157,32.4
			c41.8,21.6,73.2,53.6,94.4,95.8c21.1,42.3,31.7,94.4,31.7,156.3v171h-342.1v163.7c0,21.6,2.4,39.3,7.4,53.1
			c4.9,13.8,11.8,23.6,20.7,29.5c8.8,5.9,19.2,8.9,31,8.9c11.8,0,22.4-2.7,31.7-8.1c9.3-5.4,16.7-14,22.1-25.8
			c5.4-11.8,8.1-28,8.1-48.7v-89.9h221.2v82.6c0,86.5-25.1,151.6-75.2,195.4C3456.1,1203.4,3386.8,1225.3,3298.3,1225.3z
			 M3239.3,687.1h120.9v-85.5c0-22.6-2.7-40.3-8.1-53.1c-5.4-12.8-12.8-21.6-22.1-26.5c-9.4-4.9-20.4-7.4-33.2-7.4
			c-11.8,0-21.9,3-30.2,8.9c-8.4,5.9-15,16-19.9,30.2c-4.9,14.3-7.4,34.7-7.4,61.2V687.1z"/>
		<path d="M3742.1,1210.5V358.3h240.3v85.5c31.5-31.5,64.1-56,98-73.7c33.9-17.7,69.5-26.5,106.9-26.5c35.4,0,64.6,8.6,87.7,25.8
			c23.1,17.2,40.5,40.8,52.3,70.8c11.8,30,17.7,64.1,17.7,102.5v667.9h-238.9v-634c0-20.7-3.5-36.4-10.3-47.2
			c-6.9-10.8-19.7-16.2-38.3-16.2c-9.8,0-21.4,2.7-34.7,8.1c-13.3,5.4-26.8,13-40.6,22.9v666.5H3742.1z"/>
		<path d="M4495.5,1210.5v-154.8l234.5-522h-216.8V358.3h467.4v146l-237.4,530.8h240.3v175.5H4495.5z"/>
	</g>
	<circle class="st0" cx="5230.9" cy="1099.2" r="111.4"/>
</g>
</svg>
