<?xml version="1.0" encoding="utf-8"?>
<!-- Generator: Adobe Illustrator 24.3.0, SVG Export Plug-In . SVG Version: 6.00 Build 0)  -->
<svg version="1.1" id="Layer_1" xmlns="http://www.w3.org/2000/svg" xmlns:xlink="http://www.w3.org/1999/xlink" x="0px" y="0px"
	 viewBox="0 0 371.3 371.6" style="enable-background:new 0 0 371.3 371.6;" xml:space="preserve">
<style type="text/css">
	.st0{fill:#00B0FB;}
	.st1{fill:#FFFFFF;}
	.st2{opacity:0.4;fill:#00B0FB;}
</style>
<g>
	<g>
		<path class="st0" d="M35,289.3c4.2,0,8.3,0.6,12,1.7V77.3h96.6c0.2-4,1.2-8.2,2.8-12.2c-34.1-0.1-68.3,0-102.4,0
			c-7.7,0-9.2,1.5-9.2,9.1c0,71.7,0,143.5-0.1,215.2C34.9,289.3,35,289.3,35,289.3z"/>
	</g>
	<g>
		<path class="st1" d="M293.6,359.6c-1.8,8.8-5.8,12-14.4,12c-18.3,0-36.7,0-55,0c-9.2,0-12.9-2.9-15.1-12c-1.4,0-2.9,0-4.4,0
			c-64.9,0-129.8,0-194.6,0c-1.1,0-2.2,0-3.4,0c-5.7-0.2-8.4-4.3-5.8-9.4c4.4-9.1,9-18.1,13.5-27.1c4.6-9.1,9.2-18.2,13.7-27.4
			c1-2.1,1.7-4.7,1.7-7.1c0.1-73.1,0.1-146.3,0.1-219.4c0-7.6,1.5-9.1,9.2-9.1c35.1,0,70.1,0,105.2,0c2.5,0,4-0.6,5.4-2.8
			c25.6-41.9,75.2-64.2,122.6-55.4c49.9,9.3,87.7,46.5,96.8,95.9c6.7,36.5-2.2,69.2-25.3,98.1c-1.8,2.2-2.5,4.3-2.5,7.1
			c0.1,28.6,0,57.2,0.1,85.7c0,2.3,0.6,4.7,1.6,6.7c8.7,17.7,17.6,35.2,26.4,52.9c0.7,1.4,1.5,2.9,1.8,4.5c0.7,4-2.4,6.8-7.3,6.8
			c-22,0-43.9,0-65.9,0C296.6,359.6,295.2,359.6,293.6,359.6z M169.5,207.6c-37.9-39.6-47.2-84.6-28.3-135.4c-33.1,0-66.1,0-99.1,0
			c0,71.9,0,143.5,0,215.3c55.9,0,111.5,0,167.2,0c0.9-7.1,5-11.2,12.2-12.1c0-12.6,0-25.1-0.1-37.6c0-0.9-1.2-2.3-2.2-2.6
			c-3.9-1.6-8.2-2.4-11.9-4.2c-9.7-4.7-19.1-9.9-29.1-15.1c-5.2,6.3-10.9,13.2-16.6,20.1c-3.6,4.3-5.7,4.7-10.6,2
			c-12.5-7-25-13.9-37.6-20.9c-3.2-1.8-6.5-3.6-10-5.5c-11,14.6-21.8,29-32.8,43.7c-3.3-2.5-6.3-4.8-9.5-7.2
			c11.5-15.4,22.8-30.4,34.1-45.5c4.3-5.7,5.9-6.1,12.1-2.6c14.7,8.2,29.4,16.4,44.1,24.5c1.4,0.8,2.6,1.9,4.2,0
			C160.1,218.8,164.9,213.2,169.5,207.6z M15.9,347.3c64.7,0,129.1,0,193.4,0c0-16,0-31.8,0-47.5c-0.5-0.1-0.8-0.1-1-0.1
			c-55.4,0-110.8,0-166.1,0.1c-1.3,0-3.1,1.4-3.8,2.6c-7.2,14.1-14.2,28.3-21.3,42.4C16.6,345.6,16.3,346.3,15.9,347.3z M251.5,12.1
			c-59.5,0-107.8,48.2-107.9,107.7c0,59.3,48.2,107.8,107.3,107.9c59.9,0.1,108.3-48.3,108.3-108.1
			C359.2,60.5,310.8,12.1,251.5,12.1z M221.7,359.3c20.1,0,39.8,0,59.4,0c0-24,0-47.8,0-71.4c-20,0-39.6,0-59.4,0
			C221.7,311.8,221.7,335.4,221.7,359.3z M329.1,287.6c0-25.5,0-50.7,0-76.4c-1.3,1-2.3,1.8-3.3,2.5c-11.4,9-23.9,15.7-37.7,20.1
			c-6.7,2.1-6.7,2.1-6.7,9.2c0,10.8,0,21.7,0,32.5c7.3,1,11.2,5.1,12.2,12C305.4,287.6,317.1,287.6,329.1,287.6z M293.5,347.4
			c20.8,0,41.1,0,61.9,0c-7.8-15.6-15.4-30.9-23.1-46c-0.4-0.9-2.1-1.5-3.3-1.6c-6.6-0.1-13.2-0.1-19.8-0.1c-5.2,0-10.4,0-15.7,0
			C293.5,315.8,293.5,331.5,293.5,347.4z M233.8,239.1c0,11.9,0,24.2,0,36.4c12,0,23.6,0,35.5,0c0-12.5,0-24.8,0-36.4
			C257.4,239.1,245.7,239.1,233.8,239.1z"/>
		<path class="st2" d="M221.7,359.3c0-23.9,0-47.6,0-71.4c19.8,0,39.5,0,59.4,0c0,23.7,0,47.4,0,71.4
			C261.5,359.3,241.7,359.3,221.7,359.3z"/>
		<path class="st1" d="M202,187.1c31.4,24.7,83.3,23.4,114.1-13.7c30.1-36.2,24-91-13.2-119.6c-38.1-29.2-92.4-21-119.8,17.9
			c-27.4,39.1-14.3,86.5,9.9,107.5c20.7-25,41.3-50,62.4-75.6c-6.8,0.7-12.7,1.3-18.9,1.9c-0.5-4-0.9-7.7-1.3-11.9
			c11.7-1.2,23.2-2.5,34.7-3.5c2.9-0.2,5.1,1.9,5.4,4.8c1.4,11.2,2.5,22.5,3.8,34.1c-4.1,0.4-7.8,0.9-11.8,1.3
			c-0.8-6.5-1.5-12.5-2.3-19.4C243.6,136.7,222.8,161.8,202,187.1z"/>
		<path class="st0" d="M202,187.1c20.9-25.3,41.6-50.4,62.9-76.2c0.8,6.9,1.5,12.9,2.3,19.4c4-0.4,7.7-0.8,11.8-1.3
			c-1.3-11.6-2.4-22.9-3.8-34.1c-0.4-2.9-2.5-5-5.4-4.8c-11.5,1-23,2.3-34.7,3.5c0.5,4.2,0.9,7.9,1.3,11.9
			c6.2-0.6,12.1-1.2,18.9-1.9c-21.1,25.6-41.8,50.6-62.4,75.6c-24.2-21-37.3-68.5-9.9-107.5c27.3-38.9,81.7-47.1,119.8-17.9
			c37.3,28.6,43.3,83.4,13.2,119.6C285.3,210.5,233.3,211.8,202,187.1z"/>
	</g>
</g>
</svg>
