<?xml version="1.0" encoding="utf-8"?>
<!-- Generator: Adobe Illustrator 24.3.0, SVG Export Plug-In . SVG Version: 6.00 Build 0)  -->
<svg version="1.1" id="Layer_1" xmlns="http://www.w3.org/2000/svg" xmlns:xlink="http://www.w3.org/1999/xlink" x="0px" y="0px"
	 viewBox="0 0 58.3 58.8" style="enable-background:new 0 0 58.3 58.8;" xml:space="preserve">
<style type="text/css">
	.st0{fill:#00B0FB;}
	.st1{opacity:0.4;fill:#00B0FB;}
	.st2{fill:#FFFFFF;}
</style>
<g>
	<g>
		<path class="st0" d="M49.9,7.9c-1.2-0.5-2.1-1.4-2.7-2.4c-1.5,1.4-2.9,2.9-4.3,4.3c-0.5,1.2-1.3,2.3-2.5,3.1
			c-0.7,1.3-1.9,2.4-3.5,2.9l-1.5,1.5c-1.8,1.8-3.5,3.5-5.3,5.3c-0.3,0.3-0.5,0.7-0.7,1c-0.1,0.4-0.2,0.7-0.3,1.1
			c0.7-0.1,1.5-0.2,2.3-0.2c0.1,0,0.2,0,0.4,0c-0.1-0.1-0.2-0.3-0.2-0.5c0-0.3,0.2-0.6,0.5-0.9L46.6,8.5c0.1-0.1,0.2-0.2,0.3-0.3
			l0.3-0.2l4.2,4.2c0.4-0.4,0.9-0.7,1.5-0.9C51.4,10.5,50.4,9.3,49.9,7.9z"/>
	</g>
	<g>
		<path class="st0" d="M1.8,39l0.3-0.3c1.7-1.6,3.6-1.7,5.4-1.7c0.3,0,1.4,0,1.7,0c0.4,0,0.8,0,1.1,0l0.2,0V1.8h-0.2
			c-0.5,0-1,0-1.4,0c-0.5,0-0.9,0-1.4,0c-0.6,0-1.1,0-1.7,0.1c-2.2,0.2-4,2.2-4,4.7c0,8,0,16.1,0,24.1v7.2c0,0.1,0,0.2,0,0.4L1.8,39
			z"/>
		<path class="st1" d="M50.6,41.1l0-0.1l-0.1-0.4L40,51l0.3,0.1c0.1,0,0.2,0.1,0.3,0.1h3.5c1.9,0,3.8,0,5.7,0c0.3,0,0.5-0.1,0.6-0.2
			c0.2-0.2,0.2-0.4,0.2-0.7l0-8.8C50.6,41.3,50.6,41.2,50.6,41.1z"/>
		<path class="st2" d="M57.4,23.9c-0.2-0.1-0.4-0.1-0.6-0.1c-0.5,0-0.9,0.2-1.4,0.8c-0.8,0.8-1.6,1.6-2.4,2.4l-0.8,0.8
			c-0.1,0.1-0.3,0.3-0.4,0.4l-0.6,0.5l0-0.7c0-0.1,0-0.2,0-0.3v-2.1c0-3.6,0-7.1,0-10.7c0-0.4,0.2-0.8,0.5-1.1
			c0.9-0.9,1.7-1.7,2.5-2.6c0.9-0.9,1.8-1.8,2.6-2.6c1.6-1.7,1.6-3.9,0-5.6c-0.3-0.3-0.6-0.6-0.9-0.9L55.7,2c-1-1-2-1.5-3.1-1.5
			S50.5,1.1,49.6,2l-0.2,0.2c-2.8,2.8-5.6,5.6-8.4,8.4c-0.4,0.4-0.8,0.6-1.4,0.6c-5.8,0-11.6,0-17.3,0h-9.7v-0.2c0,0,0-7.6,0-9.9
			c0-0.9-0.3-1.2-1.2-1.2c-0.7,0-1.3,0-2,0H6.9C2.7,0,0,2.7,0,6.9v36.3c0,0.5,0,1,0.1,1.5c0.6,3.2,3.2,5.4,6.5,5.4
			c3.1,0,6.2,0,9.2,0h13.9l-1.7,1.7c-1.4,1.4-2.8,2.8-4.2,4.1c-0.6,0.6-0.8,1.2-0.5,1.8c0.3,0.7,0.8,1,1.7,1h32
			c0.9,0,1.2-0.3,1.2-1.2c0-0.6,0-1.2,0-1.8v-7.5c0-7.5,0-15,0-22.5C58.3,24.8,58,24.2,57.4,23.9z M49.6,4.6
			c0.6-0.6,1.2-1.3,1.9-1.9c0.3-0.3,0.8-0.5,1.2-0.5c0.5,0,1,0.2,1.4,0.5c0.5,0.5,1.1,1,1.6,1.6c0.7,0.8,0.7,2,0,2.8
			c-0.6,0.6-1.2,1.2-1.8,1.8c-0.3,0.2-0.5,0.5-0.8,0.7l-0.1,0.1l-4.2-4.2C48.7,5.6,49.3,4.9,49.6,4.6z M46.6,7.5
			c0.1-0.1,0.2-0.2,0.3-0.3l0.3-0.2l4.5,4.5l-0.2,0.1c-0.1,0-0.1,0.1-0.2,0.1c-0.1,0.1-0.3,0.2-0.4,0.3c-4,4-8.1,8.1-12.1,12.1
			l-2.3,2.3c-0.4,0.4-0.7,0.5-1,0.5c-0.4,0-0.7-0.4-1-0.8c-0.1-0.2-0.3-0.5-0.3-0.8c-0.1-0.7-0.4-1-1.2-1.1
			c-0.4-0.1-0.7-0.3-0.9-0.5c-0.3-0.2-0.5-0.5-0.5-0.8c0-0.3,0.2-0.6,0.5-0.9L46.6,7.5z M33.3,27.9l-4,1.2l1.2-4l0.2,0.1
			c1.3,0.5,2.1,1.2,2.5,2.5L33.3,27.9z M1.8,30.7c0-8,0-16.1,0-24.1c0-2.4,1.8-4.5,4-4.7c0.6,0,1.2-0.1,1.7-0.1c0.5,0,0.9,0,1.4,0
			c0.5,0,1,0,1.4,0h0.2v35.2l-0.2,0c-0.4,0-0.8,0-1.1,0c-0.3,0-1.4,0-1.7,0c-1.8,0-3.8,0.1-5.4,1.7L1.8,39l0-0.7c0-0.2,0-0.3,0-0.4
			V30.7z M16.1,48.3c-3.1,0-6.1,0-9.2,0c-1.9,0-3.5-0.9-4.5-2.4c-0.8-1.4-0.9-3-0.1-4.5c0.9-1.7,2.3-2.6,4.3-2.7c0.6,0,1.1,0,1.7,0
			l2.8,0c1.1,0,1.4-0.2,1.4-1.4V13.1h26l-0.5,0.6c-0.1,0.2-0.3,0.3-0.4,0.4l-2.1,2.1c-1.8,1.8-3.5,3.5-5.3,5.3
			c-0.3,0.3-0.5,0.7-0.7,1c-0.6,1.8-1.2,3.7-1.8,5.6l-0.5,1.5c-0.1,0.2-0.1,0.3-0.1,0.5c-0.1,0.4,0,0.7,0.2,0.9
			c0.2,0.2,0.4,0.3,0.7,0.3c0.1,0,0.2,0,0.3,0c2.3-0.7,4.8-1.5,7.9-2.5c0.3-0.1,0.6-0.4,0.8-0.6c2.8-2.8,5.6-5.6,8.4-8.4l2.7-2.7
			c0.1-0.1,0.2-0.2,0.4-0.4l0.7-0.6v3.9c0,3.3,0,6.6,0,9.9c0,0.5-0.2,1-0.5,1.3c-5.4,5.5-11,11-16.4,16.5c-0.3,0.3-0.9,0.5-1.3,0.5
			C25.9,48.3,21,48.3,16.1,48.3z M55,57v-0.6c0-0.3,0-0.6,0-1c0-0.6-0.3-0.9-1-0.9c-0.5,0-0.8,0.4-0.9,0.9c0,0.3,0,0.6,0,0.9l0,0.7
			h-2.3l0-0.2c-0.2-1.3-0.5-1.6-1-1.6h0c-0.5,0-0.8,0.3-0.9,1.6l0,0.2h-2.3v-0.6c0-0.3,0-0.6,0-0.9c0-0.6-0.4-1-0.9-1
			c-0.5,0-0.8,0.4-0.9,1c-0.1,1-0.1,1.6-0.9,1.6c-0.3,0-0.6-0.1-1.1-0.1l-0.1,0l0-0.1c-0.2-1.4-0.5-1.5-1-1.6h-0.1
			c-0.5,0-0.7,0.2-1,1.6l0,0.2h-2.2v-0.7c0-0.3,0-0.6,0-0.9c0-0.6-0.4-1-0.9-1c-0.5,0-0.9,0.4-0.9,1c0,0.1,0,0.3,0,0.4
			c0,0.1,0,0.2,0,0.3c0,0.1,0,0.3,0,0.4l0,0.4h-2.2l0-0.2c0-0.1,0-0.2-0.1-0.4c-0.1-0.8-0.2-1.2-1-1.2c0,0,0,0,0,0
			c-0.8,0-0.9,0.6-0.9,1.5l0,0.2l-0.3,0c-0.1,0-0.2,0-0.2,0c-0.3,0-0.5,0-0.7,0c-1,0-1-0.4-1.1-1.6c0-0.6-0.3-1-0.9-1
			c-0.1,0-0.2,0-0.3,0L28,54.6L27.9,57h-2.3l2.3-2.4l28.4-28.4L56.5,57H55z"/>
		<path class="st2" d="M51.9,37.3c-0.1,0-0.2-0.1-0.4-0.1c-0.3,0-0.5,0.1-0.8,0.4c-4.5,4.5-9.1,9.1-13.6,13.6
			c-0.4,0.4-0.5,0.8-0.4,1.2c0.2,0.4,0.5,0.6,1.1,0.6h13.3c0.9,0,1.3-0.3,1.3-1.3c0-1.6,0-8.4,0-8.4c0-1.6,0-3.3,0-4.9
			C52.5,37.9,52.4,37.5,51.9,37.3z M50.4,51c-0.1,0.1-0.3,0.2-0.6,0.2c-1.9,0-3.8,0-5.7,0h-3.5c-0.1,0-0.2,0-0.3-0.1L40,51
			l10.5-10.5l0.1,0.4l0,0.1c0,0.1,0,0.2,0,0.4l0,8.8C50.6,50.6,50.6,50.8,50.4,51z"/>
	</g>
</g>
</svg>
