<?xml version="1.0" encoding="utf-8"?>
<!-- Generator: Adobe Illustrator 24.3.0, SVG Export Plug-In . SVG Version: 6.00 Build 0)  -->
<svg version="1.1" id="Layer_1" xmlns="http://www.w3.org/2000/svg" xmlns:xlink="http://www.w3.org/1999/xlink" x="0px" y="0px"
	 viewBox="0 0 45.7 36" style="enable-background:new 0 0 45.7 36;" xml:space="preserve">
<style type="text/css">
	.st0{fill:#00B0FB;}
	.st1{fill:#FFFFFF;}
	.st2{opacity:0.4;fill:#00B0FB;}
</style>
<g>
	<g>
		<path class="st0" d="M33.8,0.3c-0.1,0-0.1,0-0.2,0c-5.6,0-11.2,0-16.7,0c-0.1,0-0.2,0-0.4,0c-2,0.1-3.3,1.5-3.3,3.4
			c0,1.2,0,2.5,0,3.7v0.4c-0.1,0-0.2,0-0.3,0.1c0.3,0.1,0.5,0.3,0.7,0.4c0.3-0.3,0.6-0.6,0.9-0.8c0-1.2,0-2.5,0-3.7
			c0-1.5,0.8-2.3,2.3-2.3c5.6,0,11.2,0,16.8,0c1,0,1.7,0.4,2,1.1c0.2-0.1,0.3-0.1,0.5-0.1c-0.3-0.3-0.6-0.7-0.8-1.1
			C34.8,1.2,34.3,0.8,33.8,0.3z"/>
	</g>
	<g>
		<path class="st1" d="M45.7,28.5c-0.2,0.3-0.6,0.5-1,0.4c-0.1,0-0.1,0-0.2,0c-1.1,0-1.1,0-1.4,1c0,0.1,0,0.3,0.1,0.4
			c0.2,0.3,0.5,0.5,0.8,0.8c0.3,0.3,0.3,0.6,0,1c-0.7,0.7-1.4,1.4-2.1,2.1c-0.3,0.3-0.6,0.3-1,0c-0.1-0.1-0.2-0.2-0.3-0.3
			c-0.5-0.7-1-0.9-1.7-0.4c-0.2,0.1-0.4,0.2-0.3,0.5c0,0.4,0,0.7,0,1.1c0,0.5-0.3,0.9-0.8,0.9c-1,0-2,0-3,0c-0.5,0-0.7-0.3-0.7-0.8
			c0-0.2,0-0.3,0-0.5c0.1-0.7-0.1-1.1-0.9-1.4c-0.3-0.1-0.5-0.1-0.7,0.1c-0.2,0.3-0.4,0.5-0.7,0.7c-0.4,0.3-0.7,0.4-1.1,0
			c-0.7-0.7-1.5-1.4-2.2-2.1c-0.3-0.3-0.3-0.7,0-1c0.1-0.1,0.1-0.1,0.2-0.2c0.9-0.9,0.9-0.9,0.3-2.1c-0.5,0-0.9,0-1.4,0
			c-0.5,0-0.8-0.2-0.8-0.8c0-1,0-2,0-3c0-0.5,0.2-0.8,0.8-0.8c0.4,0,0.8,0,1.2,0c0.1,0,0.3-0.1,0.3-0.1c0.2-0.3,0.3-0.7,0.4-1
			c0-0.1,0-0.2-0.1-0.3c-0.3-0.3-0.6-0.6-0.8-0.9c-0.4-0.4-0.4-0.7,0-1.1c0.7-0.7,1.4-1.4,2.1-2.1c0.4-0.4,0.7-0.4,1.1,0
			c0.3,0.3,0.5,0.5,0.8,0.8c0.1,0.1,0.2,0.2,0.3,0.1c0.3-0.1,0.7-0.3,1-0.4c0.1,0,0.1-0.2,0.1-0.3c0-0.4,0-0.8,0-1.2
			c0-0.4,0.2-0.7,0.7-0.7c1.1,0,2.1,0,3.2,0c0.4,0,0.7,0.3,0.7,0.7c0,0.4,0,0.8,0,1.2c0,0.1,0.1,0.3,0.3,0.4
			c0.7,0.5,1.3,0.4,1.8-0.3c0.1-0.1,0.2-0.2,0.3-0.3c0.3-0.3,0.6-0.3,0.9,0c0.8,0.7,1.5,1.5,2.2,2.2c0.3,0.3,0.2,0.6,0,0.9
			c-0.1,0.1-0.2,0.2-0.2,0.3c-0.8,0.8-0.8,0.8-0.3,1.8c0.1,0.1,0.2,0.2,0.4,0.3c0.3,0,0.7,0,1,0c0.4,0,0.7,0.1,0.9,0.5
			C45.7,26,45.7,27.2,45.7,28.5z M31.4,32.9c0.3-0.3,0.6-0.7,0.9-1c0.3-0.3,0.5-0.3,0.9-0.1c0.5,0.3,1.1,0.5,1.7,0.7
			c0.4,0.1,0.6,0.4,0.6,0.8c0,0.5,0,0.9,0,1.4c0.6,0,1.2,0,1.9,0c0-0.4,0-0.8,0-1.2c0-0.4,0.2-0.6,0.6-0.8c0.6-0.2,1.2-0.4,1.7-0.7
			c0.4-0.2,0.7-0.2,1,0.1c0.3,0.3,0.6,0.6,0.8,0.8c0.5-0.4,0.9-0.9,1.4-1.3c-0.3-0.3-0.6-0.5-0.9-0.8c-0.3-0.3-0.3-0.6-0.1-1
			c0.3-0.5,0.5-1,0.7-1.5c0.2-0.5,0.3-0.7,0.9-0.7c0.4,0,0.8,0,1.1,0c0-0.7,0-1.3,0-1.9c-0.4,0-0.8,0-1.2,0c-0.4,0-0.6-0.2-0.8-0.6
			c-0.2-0.6-0.5-1.1-0.7-1.7c-0.2-0.4-0.2-0.7,0.1-1c0.3-0.3,0.6-0.5,0.9-0.8c-0.5-0.5-1-1-1.4-1.4c-0.3,0.3-0.6,0.6-0.9,0.9
			c-0.3,0.3-0.5,0.3-0.9,0.1c-0.5-0.3-1.1-0.5-1.7-0.7c-0.4-0.1-0.6-0.4-0.6-0.8c0-0.4,0-0.8,0-1.2c-0.7,0-1.3,0-1.9,0
			c0,0.4,0,0.8,0,1.2c0,0.4-0.2,0.7-0.6,0.8c-0.6,0.2-1.1,0.4-1.6,0.7c-0.4,0.2-0.7,0.2-1-0.1c-0.3-0.3-0.5-0.7-0.8-1
			c-0.6,0.6-1,1-1.4,1.4c0,0,0,0,0,0.1c0.2,0.2,0.4,0.4,0.7,0.7c0.5,0.5,0.5,0.6,0.2,1.3c-0.2,0.4-0.4,0.9-0.6,1.4
			c-0.2,0.5-0.3,0.7-0.8,0.7c-0.4,0-0.8,0-1.2,0c0,0.7,0,1.3,0,1.9c0.4,0,0.9,0,1.3,0c0.4,0,0.6,0.2,0.7,0.5
			c0.2,0.6,0.5,1.2,0.7,1.8c0.1,0.3,0.1,0.6-0.2,0.8c-0.3,0.3-0.6,0.6-0.9,0.9C30.4,32,30.8,32.4,31.4,32.9z"/>
		<path class="st1" d="M37,11.5c0.6-0.6,1.1-1.2,1.7-1.7c0.1-0.1,0.2-0.2,0.3-0.3c0.3-0.2,0.6-0.2,0.9,0c0.3,0.3,0.3,0.6,0,0.9
			c-1.1,1.1-2.1,2.2-3.2,3.2c-0.3,0.3-0.7,0.2-1,0c-1-1-2-2.1-3.1-3.1c-0.3-0.3-0.3-0.7-0.1-0.9c0.3-0.3,0.6-0.3,1,0
			c0.6,0.6,1.2,1.3,1.9,2c0-0.3,0-0.4,0-0.5c0-2.5,0-5,0-7.5c0-1.5-0.8-2.2-2.2-2.2c-5.6,0-11.2,0-16.8,0c-1.5,0-2.3,0.8-2.3,2.3
			c0,1.3,0,2.6,0,3.8c0,0,0,0.1,0,0.1c0.4,0.1,0.9,0.1,1.3,0.2c3.9,0.9,6.6,4.4,6.6,8.5c0,1.8-0.5,3.4-1.7,4.8c-1.6,1.9-2,4.2-2,6.7
			c0.8,0,1.6,0,2.1,0.8c0.5,0.7,0.4,1.5,0,2.1c0.1,0.4,0.3,0.8,0.3,1.2c0.1,1-0.7,1.8-1.7,1.9c-0.6,0-1.1,0-1.7,0
			c0,0.1-0.1,0.2-0.1,0.3c-0.5,1.1-1.3,1.8-2.5,1.9c-0.8,0.1-1.6,0.1-2.4,0c-1.2-0.1-2-0.8-2.4-1.9c-0.1-0.3-0.2-0.4-0.5-0.3
			c-0.4,0-0.8,0-1.2,0c-0.7,0-1.3-0.3-1.7-0.9c-0.4-0.7-0.3-1.3,0.1-1.9c0,0,0-0.1,0.1-0.1c-0.5-0.7-0.6-1.4-0.1-2.2
			c0.5-0.7,1.2-0.9,2.1-0.8c-0.1-2.1-0.3-4-1.4-5.8c-0.2-0.4-0.5-0.8-0.8-1.1C4,17.7,4.7,12.5,7.9,9.7c1.3-1.1,2.8-1.8,4.6-2.1
			c0.1,0,0.3,0,0.4-0.1c0-0.1,0-0.3,0-0.4c0-1.2,0-2.5,0-3.7c0-2,1.3-3.3,3.3-3.4c0.1,0,0.2,0,0.4,0c5.6,0,11.2,0,16.7,0
			c2.3,0,3.6,1.3,3.6,3.6c0,2.5,0,4.9,0,7.4c0,0.2,0,0.3,0,0.5C36.9,11.5,37,11.5,37,11.5z M17.1,27.8c0-0.3,0-0.6,0.1-0.9
			c0.1-2.5,0.7-4.8,2.4-6.7c1-1.2,1.3-2.5,1.3-4c0-4-3.4-7.7-8.2-7.2c-4.3,0.5-7.3,4.8-6.2,9c0.2,1,0.8,1.8,1.4,2.6
			c1.1,1.4,1.7,3,1.9,4.8c0.1,0.8,0.2,1.6,0.2,2.5c0.9,0,1.9,0,2.8,0c0-0.1,0-0.1,0-0.2c0-1.7,0-3.4,0-5.1c0-0.1-0.2-0.3-0.3-0.4
			c-0.6-0.4-1.2-0.7-1.8-1.1c-0.4-0.3-0.6-0.6-0.4-0.9c0.2-0.4,0.6-0.4,1-0.2c0.6,0.3,1.2,0.7,1.8,1c0.1,0.1,0.4,0.1,0.6,0
			c0.6-0.3,1.2-0.7,1.9-1c0.4-0.2,0.8-0.2,1,0.2c0.2,0.3,0,0.7-0.4,1c-0.6,0.3-1.2,0.7-1.8,1c-0.2,0.1-0.3,0.3-0.3,0.6
			c0,1.5,0,3.1,0,4.6c0,0.2,0,0.4,0,0.6C15.2,27.8,16.1,27.8,17.1,27.8z M13.6,29.1c-1.8,0-3.6,0-5.4,0c-0.3,0-0.5,0.1-0.6,0.4
			c0,0.3,0.2,0.5,0.5,0.5c0.3,0,0.6,0.1,0.9,0.1c3.1,0,6.1,0,9.2,0c0.3,0,0.6-0.1,0.8-0.1c0.4,0,0.6-0.2,0.6-0.6
			c0-0.4-0.3-0.4-0.7-0.4C17.1,29.1,15.4,29.1,13.6,29.1z M13.6,31.4c-1.8,0-3.6,0-5.4,0c-0.4,0-0.7,0.1-0.6,0.5
			c0,0.4,0.3,0.5,0.6,0.5c3.5,0,7.1,0,10.6,0c0.4,0,0.7-0.2,0.7-0.5c0-0.4-0.3-0.5-0.7-0.5C17.1,31.4,15.4,31.4,13.6,31.4z
			 M11.3,33.8c0.3,0.6,0.7,0.9,1.4,1c0.7,0,1.4,0,2,0c0.6,0,1-0.4,1.3-1C14.4,33.8,12.9,33.8,11.3,33.8z"/>
		<path class="st1" d="M26.6,10.2c0.2,0.2,0.5,0.3,0.5,0.5c0.1,0.2,0,0.6-0.2,0.7c-0.7,0.5-1.4,0.9-2.2,1.2c-0.3,0.1-0.6,0-0.7-0.2
			c-0.2-0.3-0.2-0.6,0.1-0.8c0.7-0.5,1.5-0.9,2.2-1.3C26.4,10.2,26.5,10.2,26.6,10.2C26.6,10.2,26.6,10.2,26.6,10.2z"/>
		<path class="st1" d="M3.2,11.9c0,0.6-0.4,0.9-0.8,0.7c-0.7-0.4-1.4-0.8-2.1-1.2c-0.3-0.2-0.3-0.5-0.2-0.8c0.2-0.3,0.5-0.4,0.8-0.3
			c0.7,0.4,1.4,0.7,2,1.1C3.1,11.6,3.2,11.8,3.2,11.9z"/>
		<path class="st1" d="M6.3,4.7c0.1,0.1,0.3,0.2,0.4,0.4C7.1,5.7,7.5,6.4,7.8,7C8,7.4,7.9,7.7,7.6,7.9C7.3,8.1,6.9,8,6.7,7.6
			C6.3,7,5.9,6.4,5.6,5.7C5.4,5.3,5.7,4.7,6.3,4.7z"/>
		<path class="st1" d="M21.7,5.3c-0.1,0.2-0.1,0.4-0.2,0.5c-0.3,0.6-0.7,1.2-1,1.8C20.3,8,20,8.1,19.6,7.9c-0.3-0.2-0.4-0.6-0.2-0.9
			c0.3-0.6,0.7-1.2,1-1.9c0.2-0.3,0.5-0.5,0.8-0.3C21.4,4.9,21.6,5.2,21.7,5.3z"/>
		<path class="st0" d="M17.1,27.8c-1,0-1.9,0-2.8,0c0-0.2,0-0.4,0-0.6c0-1.5,0-3.1,0-4.6c0-0.3,0.1-0.4,0.3-0.6
			c0.6-0.3,1.2-0.7,1.8-1c0.4-0.3,0.6-0.6,0.4-1c-0.2-0.3-0.6-0.4-1-0.2c-0.6,0.3-1.2,0.7-1.9,1c-0.2,0.1-0.4,0.1-0.6,0
			c-0.6-0.3-1.2-0.7-1.8-1c-0.4-0.3-0.9-0.2-1,0.2c-0.2,0.3,0,0.7,0.4,0.9c0.6,0.4,1.2,0.7,1.8,1.1c0.1,0.1,0.3,0.3,0.3,0.4
			c0,1.7,0,3.4,0,5.1c0,0.1,0,0.1,0,0.2c-0.9,0-1.9,0-2.8,0c-0.1-0.8-0.1-1.7-0.2-2.5c-0.2-1.8-0.8-3.4-1.9-4.8
			c-0.6-0.8-1.2-1.6-1.4-2.6c-1.1-4.2,1.9-8.5,6.2-9c4.7-0.5,8.2,3.2,8.2,7.2c0,1.5-0.4,2.9-1.3,4c-1.6,1.9-2.3,4.2-2.4,6.7
			C17.1,27.2,17.1,27.4,17.1,27.8z M7.9,16.9c0,0,0,0.1,0,0.1c0,0.6,0.2,0.9,0.6,1c0.4,0,0.6-0.3,0.7-0.9c0.1-0.7,0.2-1.3,0.5-1.9
			c1-2.1,2.6-3.2,4.9-3.3c0.5,0,0.8-0.3,0.8-0.7c0-0.4-0.3-0.7-0.8-0.7c-0.1,0-0.2,0-0.3,0C10.8,10.8,8.2,13.5,7.9,16.9z"/>
		<path class="st1" d="M32.2,26.6c0-2.2,1.8-4.1,4-4.1c2.2,0,4.1,1.8,4.1,4.1c0,2.2-1.8,4.1-4.1,4.1C34,30.7,32.2,28.9,32.2,26.6z
			 M36.2,23.9c-1.5,0-2.7,1.2-2.7,2.8c0,1.5,1.2,2.8,2.7,2.8c1.5,0,2.8-1.2,2.8-2.8C39,25.1,37.8,23.9,36.2,23.9z"/>
		<path class="st1" d="M7.9,16.9c0.2-3.5,2.9-6.1,6.4-6.4c0.1,0,0.2,0,0.3,0c0.5,0,0.8,0.3,0.8,0.7c0,0.4-0.3,0.6-0.8,0.7
			c-2.3,0.1-4,1.2-4.9,3.3c-0.3,0.6-0.4,1.3-0.5,1.9C9.1,17.7,9,18,8.5,18c-0.4,0-0.6-0.4-0.6-1C7.9,17,7.9,17,7.9,16.9z"/>
		<path class="st2" d="M36.2,23.9c1.6,0,2.8,1.2,2.8,2.7c0,1.5-1.2,2.8-2.8,2.8c-1.5,0-2.7-1.2-2.7-2.8
			C33.5,25.1,34.7,23.9,36.2,23.9z"/>
	</g>
</g>
</svg>
