<?xml version="1.0" encoding="utf-8"?>
<!-- Generator: Adobe Illustrator 24.3.0, SVG Export Plug-In . SVG Version: 6.00 Build 0)  -->
<svg version="1.1" id="Layer_1" xmlns="http://www.w3.org/2000/svg" xmlns:xlink="http://www.w3.org/1999/xlink" x="0px" y="0px"
	 viewBox="0 0 44.9 44.9" style="enable-background:new 0 0 44.9 44.9;" xml:space="preserve">
<style type="text/css">
	.st0{fill:#00B0FB;}
	.st1{fill:#FFFFFF;}
	.st2{opacity:0.4;fill:#00B0FB;}
</style>
<g>
	<g>
		<path class="st0" d="M43,26.1c0,5.4,0,10.7,0,16.1c0,0.5-0.1,0.9-0.4,1.2c0.1,0,0.2,0,0.3,0c0.1,0,0.2,0.1,0.4,0.1
			c0.3-0.1,0.5-0.1,0.8-0.1c0.1,0,0.1,0,0.2,0c0.1-0.4,0.2-0.8,0.2-1.3c0-5.4,0-10.7,0-16.1c0-1.9-1.3-3.2-3.2-3.2
			c-2.8,0-5.7,0-8.5,0c-0.3,0-0.6,0-0.9,0.1c-0.3,0.4-0.7,0.7-1.2,1c0.2,0.3,0.4,0.7,0.6,1c0.3-0.4,0.7-0.7,1.4-0.7
			c2.9,0,5.7,0,8.6,0C42.4,24.4,43,25,43,26.1z"/>
	</g>
	<g>
		<path class="st1" d="M22.2,43.4c2.7,0,5.4,0,8.2,0c-0.5-0.9-0.4-1.9-0.4-2.8c0-5,0-9.9,0-14.9c0-2,1.2-3.3,3.3-3.3
			c2.8,0,5.7,0,8.5,0c1.9,0,3.2,1.3,3.2,3.2c0,5.4,0,10.7,0,16.1c0,1.9-1.3,3.2-3.2,3.2c-12.9,0-25.7,0-38.6,0
			c-1.9,0-3.2-1.3-3.2-3.2C0,33.4,0,25,0,16.7c0-1.9,1.3-3.2,3.2-3.2c5.4,0,10.7,0,16.1,0c1.9,0,3.2,1.3,3.2,3.2
			c0,8.4,0,16.7,0,25.1C22.4,42.3,22.3,42.8,22.2,43.4z M20.9,40.4c0-7.5,0-15,0-22.4c-6.5,0-13,0-19.4,0c0,7.5,0,14.9,0,22.4
			C8,40.4,14.4,40.4,20.9,40.4z M31.4,33.7c0,2.7,0,5.4,0,8c0,1.1,0.6,1.7,1.7,1.7c2.9,0,5.7,0,8.6,0c1.1,0,1.7-0.6,1.7-1.7
			c0-5.4,0-10.7,0-16.1c0-1.1-0.6-1.7-1.7-1.7c-2.9,0-5.7,0-8.6,0c-1.1,0-1.7,0.6-1.7,1.7C31.4,28.3,31.4,31,31.4,33.7z M20.9,42
			c-6.5,0-13,0-19.4,0c0.1,0.9,0.6,1.4,1.5,1.5c0.4,0,0.8,0,1.3,0c5,0,10,0,15.1,0C20.3,43.4,20.9,42.9,20.9,42z M1.5,16.4
			c6.5,0,13,0,19.4,0c-0.1-0.9-0.7-1.5-1.6-1.5c-3.6,0-7.2,0-10.8,0c-1.8,0-3.6,0-5.5,0C2.2,15,1.6,15.6,1.5,16.4z"/>
		<path class="st1" d="M36.7,7.5c-9.5,0-18.9,0-28.4,0c0,0.2,0,0.3,0,0.4c0,1,0,4.5,0,5.5c0,0.6-0.3,0.9-0.7,0.9
			c-0.5,0-0.8-0.3-0.8-0.9c0-2.2,0-6.9,0-9.1C6.8,2,8.7,0,11.1,0c7.5,0,15.1,0,22.6,0c2.4,0,4.4,2,4.4,4.4c0,5.2,0,13,0,18.3
			c0,0.5-0.3,0.9-0.8,0.9c-0.5,0-0.7-0.3-0.7-0.9c0-4,0-10.6,0-14.6C36.7,7.9,36.7,7.7,36.7,7.5z M36.7,6c0-0.4,0-0.8,0-1.2
			c0-2-1.2-3.2-3.2-3.2c-3.1,0-6.3,0-9.4,0c-4.2,0-8.5,0-12.7,0c-1.2,0-2.2,0.5-2.8,1.7C8.1,4.1,8.3,5,8.2,6C17.8,6,27.2,6,36.7,6z"
			/>
		<path class="st0" d="M20.9,40.4c-6.5,0-12.9,0-19.4,0c0-7.5,0-14.9,0-22.4c6.5,0,12.9,0,19.4,0C20.9,25.4,20.9,32.9,20.9,40.4z"/>
		<path class="st2" d="M36.7,6C27.2,6,17.8,6,8.2,6c0-0.9-0.2-1.9,0.3-2.8c0.6-1.1,1.5-1.7,2.8-1.7c4.2,0,8.5,0,12.7,0
			c3.1,0,6.3,0,9.4,0c2,0,3.2,1.2,3.2,3.2C36.7,5.1,36.7,5.5,36.7,6z M28.4,4.5c0.2,0,0.5,0,0.7,0c0.5,0,0.8-0.3,0.8-0.8
			c0-0.4-0.3-0.7-0.8-0.7c-0.5,0-1,0-1.5,0c-0.4,0-0.7,0.3-0.7,0.8c0,0.4,0.3,0.7,0.8,0.7C27.9,4.5,28.2,4.5,28.4,4.5z M32.9,3
			c-0.3,0-0.5,0-0.8,0c-0.4,0-0.7,0.4-0.7,0.7c0,0.4,0.3,0.7,0.7,0.7c0.5,0,1.1,0,1.6,0c0.4,0,0.7-0.4,0.7-0.7
			c0-0.4-0.3-0.7-0.7-0.7C33.5,3,33.2,3,32.9,3z"/>
		<path class="st1" d="M37.4,40.4c0.5,0,1,0,1.4,0c0.5,0,0.8,0.3,0.8,0.7c0,0.4-0.3,0.7-0.8,0.7c-1,0-1.9,0-2.9,0
			c-0.5,0-0.8-0.3-0.8-0.7c0-0.4,0.3-0.7,0.8-0.7C36.5,40.4,36.9,40.4,37.4,40.4z"/>
		<path class="st1" d="M28.4,4.5c-0.2,0-0.5,0-0.7,0c-0.4,0-0.7-0.3-0.8-0.7c0-0.4,0.3-0.7,0.7-0.8c0.5,0,1,0,1.5,0
			c0.4,0,0.8,0.3,0.8,0.7c0,0.4-0.3,0.7-0.8,0.8C28.9,4.5,28.7,4.5,28.4,4.5z"/>
		<path class="st1" d="M32.9,3c0.3,0,0.5,0,0.8,0c0.4,0,0.7,0.3,0.7,0.7c0,0.4-0.3,0.7-0.7,0.7c-0.5,0-1.1,0-1.6,0
			c-0.4,0-0.7-0.3-0.7-0.7c0-0.4,0.3-0.7,0.7-0.7C32.4,3,32.7,3,32.9,3z"/>
		<g>
			<path class="st1" d="M9.7,31.1c0,0.1-0.1,0.2-0.1,0.2l0,0l0.9,0.4l2.2-4.4c0-0.1,0.1-0.1,0.1-0.2l0,0L12,26.6L9.7,31.1z"/>
			<path class="st1" d="M8.4,27.8l-0.7-0.7l-0.5,0.5C6.8,28,6.4,28.4,6,28.9c-0.2,0.2-0.2,0.4,0,0.6c0.4,0.4,0.9,0.9,1.3,1.3
				l0.4,0.4l0.8-0.7L7,29.2L8.4,27.8z"/>
			<path class="st1" d="M15.2,27.6l-0.4-0.4L14,27.9l1.5,1.4l-1.5,1.4l0.7,0.7l0.5-0.4c0.5-0.4,0.9-0.9,1.3-1.3
				c0.2-0.2,0.2-0.4,0-0.6C16.1,28.5,15.6,28,15.2,27.6z"/>
		</g>
	</g>
</g>
</svg>
