<?xml version="1.0" encoding="utf-8"?>
<!-- Generator: Adobe Illustrator 24.3.0, SVG Export Plug-In . SVG Version: 6.00 Build 0)  -->
<svg version="1.1" id="Layer_1" xmlns="http://www.w3.org/2000/svg" xmlns:xlink="http://www.w3.org/1999/xlink" x="0px" y="0px"
	 viewBox="0 0 42.8 59.4" style="enable-background:new 0 0 42.8 59.4;" xml:space="preserve">
<style type="text/css">
	.st0{fill:#00B0FB;}
	.st1{fill:#FFFFFF;}
	.st2{opacity:0.4;fill:#00B0FB;}
</style>
<g>
	<g>
		<path class="st0" d="M1.6,10.9c0.2-0.4,0.5-0.6,1.1-0.8c5.9-2.5,11.8-5,17.7-7.5c0.7-0.3,1.3-0.3,1.9,0C28.2,5,34,7.5,39.9,9.9
			c0.6,0.3,0.9,0.6,1.1,1.2c0.4,0,0.7-0.1,1.1-0.1c0.2,0-0.7-0.1-0.4,0c-0.3-1.3,0.1-2.1-1.2-2.7C34.6,5.9,28.8,3.4,23.1,1
			c-1.1-0.5-2.2-0.5-3.3,0C13.8,3.5,7.9,6,2,8.5c-1.1,0.5-0.8,1.2-1.1,2.1c0,0-0.9-0.1-0.9-0.1C0.6,10.5,1.2,10.6,1.6,10.9z"/>
	</g>
	<g>
		<path class="st1" d="M37.2,53.7c-0.2,1.4-0.4,2.8-0.6,4.1c-0.1,0.7-0.3,1.2-1,1.4c-0.7,0.2-1.2-0.1-1.7-0.5
			c-2.8-2.8-5.6-5.6-8.4-8.4c-0.2-0.2-0.3-0.3-0.6-0.6c-0.4,0.5-0.9,1-1.3,1.4c-1.2,1.2-2.8,1.2-4,0c-0.7-0.7-1.4-1.3-2.2-2
			c-0.2,0.2-0.4,0.3-0.5,0.5c-2.7,2.7-5.4,5.5-8.1,8.2c-0.8,0.8-1.7,0.8-2.3,0c-0.2-0.3-0.3-0.6-0.3-1c-0.2-1.2-0.4-2.4-0.5-3.6
			c0-0.3-0.1-0.5-0.5-0.6c-1.3-0.1-2.5-0.4-3.7-0.5c-0.7-0.1-1.1-0.3-1.4-1c-0.2-0.7,0.1-1.2,0.5-1.6c2.7-2.6,5.3-5.3,8-7.9
			c0.5-0.5,0.5-1.1-0.1-1.3c-2.7-1.1-3.7-3.6-4.8-6c-1.7-3.5-2.6-7.3-2.9-11.2c-0.3-4-0.5-8-0.6-12.1C0,9.4,0.7,8.4,2.3,7.7
			c5.8-2.5,11.6-4.9,17.4-7.4c1.1-0.5,2.2-0.5,3.3,0c5.7,2.4,11.4,4.9,17.1,7.2c1.5,0.6,2.2,1.7,2.4,3.3c0.8,8.2-0.6,16-4.1,23.5
			c-0.4,0.8-0.9,1.6-1,2.6c-0.1,0.5-0.6,0.9-0.9,1.4c-0.8,1-1.6,2-2.3,3c-0.4,0.5-0.2,0.9,0.2,1.3c2.6,2.6,5.2,5.3,7.8,7.9
			c0.4,0.4,0.7,0.9,0.6,1.5c-0.1,0.6-0.6,1-1.3,1.1C40,53.3,38.6,53.5,37.2,53.7z M33.6,29.6c0.2-0.1,0.2-0.1,0.2-0.1
			c0-0.1,0.1-0.2,0.1-0.3c2-5.2,2.9-10.5,2.6-16.1c0-0.4-0.2-0.5-0.5-0.6c-4.7-2-9.5-4-14.2-6c-0.3-0.1-0.6-0.1-0.9,0
			c-4.5,1.9-9,3.8-13.5,5.7c-1.2,0.5-1.3,0.5-1.2,1.9c0.1,4.6,0.3,9.1,1.5,13.5c0.3,1.3,0.8,2.5,1.1,3.7c0.1,0,0.1,0,0.2,0
			c0.1-0.5,0.4-1,0.4-1.5c0.1-0.9,0.1-1.8,0.1-2.7c0-1.7,1.1-2.8,2.8-2.8c0.4,0,0.9,0,1.3,0c1.9,0,3.6-0.7,4.9-2
			c0.4-0.4,0.7-0.7,1.1-1.1c1.1-1,2.6-1,3.7,0c0.4,0.3,0.7,0.7,1,1c0.6,0.5,1.3,1,2,1.4c1.3,0.8,2.8,0.7,4.3,0.7
			c1.8,0,2.9,1.1,2.9,2.9C33.6,27.9,33.6,28.7,33.6,29.6z M36.5,34.2c0.1-0.3,0.2-0.4,0.3-0.5c3.4-7.2,4.8-14.7,4-22.7
			c-0.1-0.9-0.4-1.5-1.2-1.8c-5.8-2.4-11.5-4.9-17.3-7.3c-0.7-0.3-1.2-0.3-1.9,0C14.6,4.4,8.8,6.8,3,9.3c-1,0.4-1.3,0.7-1.2,1.9
			c0.1,3.2,0.2,6.3,0.4,9.5c0.2,3.6,0.8,7.2,2,10.6c0.5,1.3,1.1,2.6,1.6,3.9c0.6-0.7,1.2-1.3,1.7-1.8c0.2-0.2,0.3-0.4,0.1-0.7
			c-1.4-3-2.2-6.2-2.5-9.5c-0.3-3.5-0.5-7-0.7-10.6c-0.1-0.9,0-1,0.9-1.3C10.5,9.1,15.5,7,20.6,4.8c0.6-0.2,1-0.2,1.6,0
			c5,2.2,10.1,4.3,15.1,6.4c0.6,0.3,0.9,0.6,0.9,1.3c0,2.3,0,4.6-0.2,6.8c-0.4,4.3-1.5,8.4-3.3,12.3c-0.1,0.2,0,0.5,0.1,0.6
			C35.4,32.9,35.9,33.5,36.5,34.2z M35.9,36.2c-0.3-0.4-0.6-0.8-0.9-1.1c-2.2-1.9-3.2-4.3-3.1-7.3c0.1-1.7-0.1-1.9-1.8-1.8
			C27.3,26,24.9,25.1,23,23c-1.2-1.3-1.4-1.3-2.7,0c-1.9,2.1-4.3,3-7.1,2.9c-1.8-0.1-2,0.1-1.9,1.9c0.1,2.8-0.9,5.2-2.9,7.1
			c-1.3,1.2-1.3,1.4,0,2.7c2,1.9,3,4.2,2.9,7c-0.1,1.9,0.1,2,1.9,1.9c2.7-0.1,5.1,0.8,6.9,2.9c1.3,1.4,1.6,1.4,2.9,0
			c1.3-1.4,2.8-2.4,4.7-2.7c1-0.2,2-0.1,3.1-0.2c0.8,0,1.2-0.3,1.2-1.2c0-0.5,0-1.1,0-1.6c0-2,0.7-3.8,2.1-5.2c0.5-0.5,1-1,1.4-1.5
			C35.6,36.8,35.7,36.5,35.9,36.2z M40.7,51.5c-2.4-2.3-4.8-4.6-7.1-6.9c0,0.2,0,0.6,0,1c-0.1,1.6-1.2,2.6-2.7,2.6
			c-0.6,0-1.1-0.1-1.7,0c-0.9,0.1-1.8,0.3-2.7,0.5c2.9,2.9,5.7,5.7,8.5,8.4c0-0.1,0-0.2,0.1-0.3c0.2-1.2,0.4-2.5,0.5-3.7
			c0.1-0.6,0.4-0.9,1-1C37.9,52,39.3,51.7,40.7,51.5z M2.2,50.6c1.2,0.2,2.4,0.3,3.7,0.5c1.2,0.2,1.3,0.3,1.4,1.5
			c0.2,1.2,0.4,2.4,0.5,3.4c2.6-2.5,5.2-5,7.8-7.5c0-0.1,0-0.1,0-0.2c-0.8-0.1-1.5-0.2-2.3-0.1c-2.8,0.2-3.9-1.2-3.7-3.7
			c0-0.4,0-0.9,0-1.3C7.1,45.7,4.7,48.1,2.2,50.6z"/>
		<path class="st0" d="M33.6,29.6c0-0.9,0-1.7,0-2.5c0-1.8-1.1-2.9-2.9-2.9c-1.5,0-3,0.1-4.3-0.7c-0.7-0.4-1.3-0.9-2-1.4
			c-0.4-0.3-0.7-0.7-1-1c-1.1-1-2.6-1-3.7,0c-0.4,0.4-0.7,0.7-1.1,1.1c-1.4,1.4-3,2-4.9,2c-0.4,0-0.9,0-1.3,0
			c-1.7,0-2.8,1.1-2.8,2.8c0,0.9,0,1.8-0.1,2.7c-0.1,0.5-0.3,1-0.4,1.5c-0.1,0-0.1,0-0.2,0c-0.4-1.2-0.8-2.5-1.1-3.7
			c-1.1-4.4-1.4-9-1.5-13.5c0-1.3,0-1.3,1.2-1.9c4.5-1.9,9-3.8,13.5-5.7c0.3-0.1,0.6-0.1,0.9,0c4.7,2,9.5,4,14.2,6
			c0.3,0.1,0.5,0.2,0.5,0.6c0.3,5.5-0.6,10.9-2.6,16.1c0,0.1-0.1,0.2-0.1,0.3C33.8,29.5,33.8,29.5,33.6,29.6z"/>
		<path class="st2" d="M40.7,51.5c-1.5,0.2-2.8,0.4-4.2,0.6c-0.6,0.1-0.9,0.4-1,1c-0.2,1.2-0.4,2.5-0.5,3.7c0,0.1,0,0.3-0.1,0.3
			c-2.8-2.8-5.6-5.5-8.5-8.4c0.9-0.2,1.8-0.4,2.7-0.5c0.6-0.1,1.1,0,1.7,0c1.6,0,2.6-1,2.7-2.6c0-0.4,0-0.8,0-1
			C35.9,46.9,38.3,49.2,40.7,51.5z"/>
		<path class="st1" d="M20.3,35.3c1.3-1.3,2.5-2.5,3.6-3.6c0.7-0.7,1.6-0.9,2.5-0.7c0.9,0.3,1.5,0.9,1.8,1.9c0.2,0.9,0,1.7-0.7,2.3
			c-1.8,1.9-3.7,3.7-5.6,5.6c-1,1-2.5,1-3.5,0c-1-1-2-2.1-2.9-3.1c-0.9-1-0.8-2.5,0.2-3.4c1-0.9,2.5-1,3.4-0.1
			C19.6,34.5,19.9,34.9,20.3,35.3z M17.5,35.1c-0.3,0.2-0.6,0.4-0.7,0.6c-0.1,0.3,0,0.7,0.2,1c0.8,0.9,1.6,1.8,2.5,2.7
			c0.6,0.6,1,0.6,1.6,0c1.2-1.2,2.4-2.4,3.6-3.7c0.5-0.5,1.1-1.1,1.6-1.6c0.2-0.2,0.3-0.6,0.2-0.9c-0.1-0.2-0.4-0.5-0.7-0.5
			c-0.3,0-0.6,0.2-0.8,0.4c-1.3,1.2-2.5,2.5-3.8,3.8c-0.7,0.7-1,0.7-1.7,0c-0.4-0.4-0.8-0.9-1.3-1.3C18,35.3,17.8,35.2,17.5,35.1z"
			/>
		<path class="st0" d="M17.5,35.1c0.3,0.2,0.6,0.3,0.7,0.4c0.4,0.4,0.9,0.8,1.3,1.3c0.7,0.7,1,0.7,1.7,0c1.3-1.3,2.5-2.5,3.8-3.8
			c0.2-0.2,0.6-0.4,0.8-0.4c0.3,0,0.6,0.3,0.7,0.5c0.1,0.3,0,0.7-0.2,0.9c-0.5,0.6-1.1,1.1-1.6,1.6c-1.2,1.2-2.4,2.4-3.6,3.7
			c-0.6,0.6-1,0.6-1.6,0c-0.8-0.9-1.7-1.8-2.5-2.7c-0.2-0.2-0.3-0.7-0.2-1C16.8,35.4,17.2,35.3,17.5,35.1z"/>
	</g>
</g>
</svg>
