<?xml version="1.0" encoding="utf-8"?>
<!-- Generator: Adobe Illustrator 24.3.0, SVG Export Plug-In . SVG Version: 6.00 Build 0)  -->
<svg version="1.1" id="Layer_1" xmlns="http://www.w3.org/2000/svg" xmlns:xlink="http://www.w3.org/1999/xlink" x="0px" y="0px"
	 viewBox="0 0 63.1 59.2" style="enable-background:new 0 0 63.1 59.2;" xml:space="preserve">
<style type="text/css">
	.st0{fill:#00B0FB;}
	.st1{opacity:0.4;fill:#00B0FB;}
	.st2{fill:none;}
	.st3{fill:#FFFFFF;}
</style>
<g>
	<g>
		<path class="st0" d="M24.4,16.8c-1.3,0-3,0-3.2,0H10.3c-2.8,0-4.3,1.6-4.3,4.4v32.6c0.2,0,0.5,0.1,0.7,0.1
			c0.4-0.1,0.8-0.2,1.2-0.3V21.1c0-1.7,0.8-2.5,2.5-2.5h14.3C24.5,18.1,24.4,17.5,24.4,16.8z"/>
	</g>
	<path class="st1" d="M63.1,55.1v1.7c-0.6,1.8-1.8,2.4-3.6,2.4c-18.7,0-37.5,0-56.2,0c-0.8,0-1.4-0.2-1.9-0.5
		c-0.1-0.2-0.2-0.5-0.3-0.8C1,57.1,1,56.1,1,55.1v0H63.1z"/>
	<g>
		<path class="st2" d="M34.3,33.6h-5.5c0.2-0.6,0.3-1.3,0.5-1.9c0-0.1,0.3-0.2,0.4-0.2c1.2,0,2.5,0,3.7,0c0.2,0,0.4,0.1,0.5,0.3
			C34.1,32.4,34.2,32.9,34.3,33.6z"/>
		<path class="st2" d="M42.5,31c-1.8-1-3.5-2-5.2-2.9c0.5-1.2,0.9-2.4,1.3-3.7c0.5,0.6,0.9,1.1,1.4,1.6c0.6,0.7,1.1,1.4,1.7,2.1
			C42.5,28.8,42.6,29.8,42.5,31z"/>
		<path class="st2" d="M35.3,7.9h-7.5c1-2.1,2.2-3.9,3.8-5.6C33.1,4,34.4,5.8,35.3,7.9z"/>
		<path class="st2" d="M56.4,20v33.3h-3.2c0-0.1,0-0.2,0-0.3c0.5-5.1-4-9.3-9.1-8.4c-0.4,0.1-0.6-0.1-0.8-0.4
			c-1.4-2.1-3.9-3.1-6.3-2.5c-0.2,0.1-0.4,0.1-0.6,0.1c-0.5-2.5-2.2-4-4.3-4.2c-1.1-0.1-2.1,0.1-3.1,0.7c-1.4,0.8-2.1,2.1-2.4,3.6
			c-0.1,0-0.2,0-0.2,0c-2.8-0.8-5.2,0.1-6.8,2.5c-0.2,0.3-0.4,0.3-0.7,0.2c-2.4-0.3-4.6,0.2-6.4,1.9c-2.1,1.8-2.9,4.2-2.6,6.9H6.8
			V20.1c0-1.7,0.8-2.5,2.5-2.5h14.5c0,1.2,0.1,2.4,0.2,3.7c0.1,0.4,0,0.7-0.3,1c-1.3,1.5-2.6,3.1-3.9,4.6c-0.7,0.9-1.1,1.9-1.1,3
			c0,0.8,0,1.5,0,2.3c0,1.1,0.7,1.5,1.6,1c1-0.6,2-1.2,3.1-1.7c1.1-0.6,2.2-1.2,3.2-1.8c0.7,0.7,1,1.5,0.6,2.4
			c-0.2,0.6-0.3,1.3-0.5,2c-0.2,0.9,0.2,1.4,1,1.4c2.5,0,5,0,7.5,0c0.9,0,1.2-0.5,1-1.3c-0.2-0.7-0.3-1.4-0.5-2.1
			c-0.4-1,0-1.6,0.6-2.4c0.2,0.1,0.4,0.2,0.6,0.3c1.9,1.1,3.8,2.2,5.7,3.2c0.9,0.5,1.6,0.1,1.6-0.9c0-0.7,0-1.5,0-2.2
			c0-1.2-0.4-2.3-1.2-3.2c-1.3-1.5-2.6-3-3.8-4.6c-0.2-0.2-0.3-0.5-0.3-0.8c0.2-1.3,0.3-2.6,0.3-3.9H54C55.6,17.7,56.4,18.5,56.4,20
			z"/>
		<path class="st2" d="M31.6,18.8c1.1,0,2-0.9,2-2c0-1.1-0.9-2-2.1-2c-1.1,0-2,0.9-2,2.1C29.6,17.9,30.5,18.8,31.6,18.8z"/>
		<path class="st2" d="M25.9,28c-1.7,1-3.4,1.9-5.2,2.9c-0.2-1.2,0-2.2,0.8-3c0.9-1,1.8-2.1,2.6-3.2c0.1-0.2,0.3-0.3,0.4-0.5
			C25,25.6,25.4,26.7,25.9,28z"/>
		<path class="st2" d="M61.3,56.3c0,0.6-0.4,1-1,1c-0.2,0-0.4,0-0.7,0H3.8c-1.8,0-2-0.2-1.9-2.1h59.4C61.3,55.6,61.3,56,61.3,56.3z"
			/>
		<path class="st2" d="M51.3,53.4H13.5c-0.5,0-1.1,0-1.6,0c-0.6-1.9,0.4-4.4,2.1-5.8c1.6-1.2,3.4-1.6,5.4-1c0.9,0.3,1.2,0.1,1.6-0.7
			c1-2.4,3.9-3.2,6-1.7c0.4,0.3,0.8,0.6,1.3,0.2c0.5-0.3,0.4-0.8,0.3-1.3c-0.3-1.3,0.2-2.3,1.2-3.1c1-0.7,2.3-0.8,3.4-0.1
			c1.1,0.7,1.5,1.7,1.3,3c0,0.1,0,0.2-0.1,0.4c-0.1,0.4,0,0.8,0.4,1.1c0.4,0.3,0.8,0.2,1.1-0.1c0.7-0.6,1.5-0.9,2.4-0.9
			c1.7,0,3,0.8,3.7,2.4c0.5,1,0.6,1.1,1.8,0.8C48.1,45.4,52.2,49.2,51.3,53.4z"/>
		<path class="st3" d="M61.9,53.4c-1.2,0-2.4,0-3.6,0V20.2c0-2.8-1.6-4.4-4.4-4.4H39.4c0,0-0.1,0-0.1,0c0-0.4,0-0.7-0.1-1.1
			c-0.7-5.5-3-10.3-6.9-14.3c-0.6-0.6-1-0.6-1.6,0c-4.3,4.5-6.5,9.6-6.9,15.4c-1.3,0-3.4,0-3.6,0H9.3c-2.8,0-4.3,1.6-4.3,4.4v33.2H3
			c-0.6,0-1.3,0-1.9,0c-0.5,0-1,0.2-1,0.7v0C0,55.1,0,56.1,0.1,57c0.1,0.8,0.6,1.4,1.3,1.8c0.5,0.3,1.2,0.5,1.9,0.5
			c18.8,0,37.5,0,56.2,0c1.8,0,3.1-0.6,3.6-2.4V54C62.9,53.5,62.4,53.4,61.9,53.4z M31.6,2.3c1.6,1.7,2.8,3.5,3.8,5.6h-7.5
			C28.8,5.8,30,4,31.6,2.3z M26.8,10.3c0.1-0.4,0.3-0.6,0.8-0.6c2.7,0,5.3,0,8,0c0.4,0,0.6,0.1,0.8,0.5c2.1,6.6,1.5,12.9-1.8,18.9
			c-0.2,0.4-0.5,0.5-0.9,0.5c-0.7,0-1.4,0-2.1,0c-0.6,0-1.3,0-1.9,0c-0.5,0-0.8-0.1-1.1-0.6C25.3,23.1,24.7,16.8,26.8,10.3z
			 M38.6,24.3c0.5,0.6,0.9,1.1,1.4,1.6c0.6,0.7,1.1,1.4,1.7,2.1c0.8,0.8,0.9,1.8,0.8,3c-1.8-1-3.5-2-5.2-2.9
			C37.7,26.8,38.2,25.6,38.6,24.3z M34.3,33.6h-5.5c0.2-0.6,0.3-1.3,0.5-1.9c0-0.1,0.3-0.2,0.4-0.2c1.2,0,2.5,0,3.7,0
			c0.2,0,0.4,0.1,0.5,0.3C34.1,32.4,34.2,32.9,34.3,33.6z M24.5,24.3c0.5,1.2,0.9,2.4,1.3,3.7c-1.7,1-3.4,1.9-5.2,2.9
			c-0.2-1.2,0-2.2,0.8-3c0.9-1,1.8-2.1,2.6-3.2C24.3,24.6,24.4,24.5,24.5,24.3z M6.8,20.1c0-1.7,0.8-2.5,2.5-2.5h14.5
			c0,1.2,0.1,2.4,0.2,3.7c0.1,0.4,0,0.7-0.3,1c-1.3,1.5-2.6,3.1-3.9,4.6c-0.7,0.9-1.1,1.9-1.1,3c0,0.8,0,1.5,0,2.3
			c0,1.1,0.7,1.5,1.6,1c1-0.6,2-1.2,3.1-1.7c1.1-0.6,2.2-1.2,3.2-1.8c0.7,0.7,1,1.5,0.6,2.4c-0.2,0.6-0.3,1.3-0.5,2
			c-0.2,0.9,0.2,1.4,1,1.4c2.5,0,5,0,7.5,0c0.9,0,1.2-0.5,1-1.3c-0.2-0.7-0.3-1.4-0.5-2.1c-0.4-1,0-1.6,0.6-2.4
			c0.2,0.1,0.4,0.2,0.6,0.3c1.9,1.1,3.8,2.2,5.7,3.2c0.9,0.5,1.6,0.1,1.6-0.9c0-0.7,0-1.5,0-2.2c0-1.2-0.4-2.3-1.2-3.2
			c-1.3-1.5-2.6-3-3.8-4.6c-0.2-0.2-0.3-0.5-0.3-0.8c0.2-1.3,0.3-2.6,0.3-3.9H54c1.6,0,2.4,0.8,2.4,2.4v33.3h-3.2c0-0.1,0-0.2,0-0.3
			c0.5-5.1-4-9.3-9.1-8.4c-0.4,0.1-0.6-0.1-0.8-0.4c-1.4-2.1-3.9-3.1-6.3-2.5c-0.2,0.1-0.4,0.1-0.6,0.1c-0.5-2.5-2.2-4-4.3-4.2
			c-1.1-0.1-2.1,0.1-3.1,0.7c-1.4,0.8-2.1,2.1-2.4,3.6c-0.1,0-0.2,0-0.2,0c-2.8-0.8-5.2,0.1-6.8,2.5c-0.2,0.3-0.4,0.3-0.7,0.2
			c-2.4-0.3-4.6,0.2-6.4,1.9c-2.1,1.8-2.9,4.2-2.6,6.9H6.8V20.1z M28.6,43.1c-0.3-1.3,0.2-2.3,1.2-3.1c1-0.7,2.3-0.8,3.4-0.1
			c1.1,0.7,1.5,1.7,1.3,3c0,0.1,0,0.2-0.1,0.4c-0.1,0.4,0,0.8,0.4,1.1c0.4,0.3,0.8,0.2,1.1-0.1c0.7-0.6,1.5-0.9,2.4-0.9
			c1.7,0,3,0.8,3.7,2.4c0.5,1,0.6,1.1,1.8,0.8c4.2-1.1,8.3,2.7,7.4,6.8H13.5c-0.5,0-1.1,0-1.6,0c-0.6-1.9,0.4-4.4,2.1-5.8
			c1.6-1.2,3.4-1.6,5.4-1c0.9,0.3,1.2,0.1,1.6-0.7c1-2.4,3.9-3.2,6-1.7c0.4,0.3,0.8,0.6,1.3,0.2C28.8,44,28.7,43.6,28.6,43.1z
			 M61.3,56.3c0,0.6-0.4,1-1,1c-0.2,0-0.4,0-0.7,0H3.8c-1.8,0-2-0.2-1.9-2.1h59.4C61.3,55.6,61.3,56,61.3,56.3z"/>
		<path class="st0" d="M36.3,10.3c-0.1-0.4-0.3-0.5-0.8-0.5c-2.7,0-5.3,0-8,0c-0.5,0-0.6,0.2-0.8,0.6c-2.1,6.5-1.5,12.7,1.7,18.7
			c0.3,0.5,0.6,0.7,1.1,0.6c0.6,0,1.3,0,1.9,0c0.7,0,1.4,0,2.1,0c0.5,0,0.7-0.1,0.9-0.5C37.9,23.1,38.4,16.8,36.3,10.3z M31.6,20.6
			c-2.1,0-3.9-1.7-3.9-3.9c0-2.1,1.8-3.9,3.9-3.9c2.1,0,3.9,1.8,3.9,3.9C35.5,18.9,33.7,20.6,31.6,20.6z"/>
		<path class="st3" d="M31.6,12.9c-2.1,0-3.9,1.8-3.9,3.9c0,2.2,1.8,3.9,3.9,3.9c2.2,0,3.9-1.7,3.9-3.9
			C35.5,14.6,33.7,12.9,31.6,12.9z M31.6,18.8c-1.1,0-2-0.9-2-2c0-1.1,0.9-2,2-2.1c1.1,0,2,0.9,2.1,2C33.6,17.9,32.7,18.8,31.6,18.8
			z"/>
	</g>
</g>
</svg>
