<?xml version="1.0" encoding="utf-8"?>
<!-- Generator: Adobe Illustrator 24.3.0, SVG Export Plug-In . SVG Version: 6.00 Build 0)  -->
<svg version="1.1" id="Layer_1" xmlns="http://www.w3.org/2000/svg" xmlns:xlink="http://www.w3.org/1999/xlink" x="0px" y="0px"
	 viewBox="0 0 354.5 348.9" style="enable-background:new 0 0 354.5 348.9;" xml:space="preserve">
<style type="text/css">
	.st0{fill:#00B0FB;}
	.st1{opacity:0.4;fill:#00B0FB;}
	.st2{fill:#FFFFFF;}
	.st3{fill:#FEFEFE;}
</style>
<g>
	<path class="st0" d="M77.3,169.1v-4.3c-0.8,0.8-1.6,1.6-2.3,2.4C75.8,167.9,76.6,168.5,77.3,169.1z"/>
	<path class="st0" d="M344.2,41.5c-0.1-0.1-0.1-0.3-0.2-0.4c-0.1-0.2-0.2-0.4-0.3-0.6c-3.7-15.8-15-24.8-31.1-24.8h-16.8
		c1.3,2.6,2.3,5.5,3,8.4c4.7,0,9.4,0,14.1,0c6.8,0,12.9,2.4,17,6.8c4,4.3,6.1,10.4,5.8,17.1h-41.3c-2.3,3.4-5.1,6.4-8.4,8.8h49.6
		v155.1h-57.2c0.4,1.9,0.6,3.8,0.7,5.7c0,1.1,0,2.2,0,3.2h57.1c-0.1,1.5-0.2,3-0.3,4.5c-0.2,3.9-0.4,7.9-1.4,11.7
		c-2.1,8.2-10,14.2-18.6,14.4c-4.7,0.1-9.9,0.1-16.1,0.1c-3.8,0-7.7,0-11.5,0c-3.1,0-6.1,0-9.2,0c0,2.9-0.4,5.8-1.2,8.5
		c12,0,24.1,0,36.1,0c13.1,0,22.5-6,28-17.9c0.7-1.6,1.2-3.4,1.7-5.1c0.2-0.8,0.4-1.5,0.6-2.3l0-0.1V41.7L344.2,41.5z"/>
	<path class="st1" d="M251.2,175.2v-0.9c0,0,0,0,0,0L251.2,175.2c-2.6,0-3,2.1-3.1,3.3c-0.1,1.6-0.1,3.2,0,4.8c0,0.7,0,1.4,0,2.1
		c0,0.7,0,1.5,0,2.2c0,1.7,0,3.4,0.1,5c0.1,1,0.5,3.2,3,3.2c1.9,0,3-1.2,3.1-3.2c0.1-5.2,0.1-9.8,0-14.2
		C254.2,176.4,253.1,175.2,251.2,175.2z"/>
	<path class="st1" d="M207.7,91.4C207.7,91.4,207.7,91.4,207.7,91.4c3.7,0,7.2-3.7,7.2-7.6c0-1.7-0.8-3.5-2.2-5
		c-1.4-1.4-3.2-2.3-5-2.3l0-0.9v0.9c-3.9,0-7.6,3.5-7.6,7.2C200.1,87.7,203.7,91.3,207.7,91.4z"/>
	<path class="st0" d="M14.4,56.9V212h58.4V56.9H14.4z M59.1,196.1c-1.1,1.1-2.9,1.3-4.3,1.3h-0.2c-2,0-3.9,0-5.9,0l-8.4,0l-8.4,0
		c-2,0-3.9,0-5.9,0h-0.2c-1.4,0-3.1-0.1-4.2-1.3c-0.7-0.7-1.1-1.7-1.1-3.1c0.1-4.1,4-4.1,5.3-4.1c4.9,0,9.7,0,14.5,0
		c4.8,0,9.6,0,14.5,0h0c1.4,0,5.2,0,5.3,4.1C60.2,194.3,59.8,195.4,59.1,196.1z M59.1,166.8c-1.1,1.1-2.9,1.3-4.3,1.3h-0.2
		c-2,0-4,0-6.1,0l-8.6,0c-1.4,0-6.9,0-8.2,0c-1.9,0-3.8,0-5.8,0h-0.2c-1.4,0-3.1-0.1-4.2-1.3c-0.7-0.7-1.1-1.8-1.1-3.1
		c0.1-4.1,4-4.1,5.3-4.1c4.9,0,9.6,0,14.4,0c4.9,0,9.7,0,14.6,0c0,0,0,0,0,0c1.4,0,5.2,0,5.3,4.1C60.2,165,59.8,166,59.1,166.8z
		 M54.9,138.7L54.9,138.7c-4.9,0-9.8,0-14.7,0c-4.9,0-9.8,0-14.7,0c-3.3,0-5-1.4-5-4.1c0-1.3,0.3-2.4,1-3.1c0.8-0.9,2.1-1.3,4-1.3
		h0.1c2.1,0,4.1,0,6.2,0l8.8,0l8.3,0c2,0,4,0,6,0H55c1.9,0,3.2,0.4,4,1.3c0.7,0.7,1.1,1.7,1.1,3C60.1,138.7,56.2,138.7,54.9,138.7z
		 M61.5,108.7c-6,0-11.9,0-17.9,0c-5.9,0-11.9,0-17.8,0h-0.1c-1.4,0-5.2,0-5.3-4.1c0-1.3,0.3-2.3,1-3.1c1.1-1.1,2.9-1.3,4.3-1.3
		l0.2,0c2.5,0,5,0,7.5,0l10.1,0l10.1,0c2.5,0,5,0,7.5,0l0.2,0c1.5,0,3.2,0.2,4.3,1.3c0.7,0.7,1.1,1.7,1.1,3
		C66.8,108.7,62.8,108.7,61.5,108.7z M65.8,78.1c-1.1,1.1-2.9,1.3-4.3,1.3h-0.1c-2.5,0-5.1,0-7.6,0l-10.4,0l-10,0
		c-2.4,0-4.9,0-7.3,0h-0.2c-1.4,0-3.2-0.1-4.3-1.3c-0.7-0.7-1.1-1.8-1.1-3.1c0.1-4.1,4-4.1,5.3-4.1c6,0,11.9,0,17.9,0
		c5.9,0,11.9,0,17.8,0c0,0,0,0,0,0c1.5,0,5.3,0,5.3,4.1C66.8,76.4,66.5,77.4,65.8,78.1z"/>
	<polygon class="st1" points="270.9,102 294,89.6 270.9,77.2 	"/>
	<path class="st2" d="M348.7,41.5c-0.1-0.1-0.1-0.3-0.2-0.4c-0.1-0.2-0.2-0.4-0.3-0.6c-3.7-15.8-15-24.8-31.1-24.8h-93.2
		c-62.1,0-124.2,0-186.3,0h-0.3c-1.9,0-3.9,0-5.8,0.3C16.1,18.6,5.8,31,5.8,46.9c0,54.9,0,109.8,0,164.7v16.9
		c0,19.1,12.4,31.5,31.5,31.5c12.9,0,25.7,0,38.6,0l59.1,0l-0.1,0.2c-0.3,0.9-0.5,1.6-0.8,2.3l-2.3,6.4c-2.7,7.4-5.3,14.7-8,22.1
		c-0.3,0.9-0.6,1.8-0.8,2.8c-0.6,2.1-1.2,4.3-2.4,5.2c-0.7,0.5-1.7,0.7-3.3,0.7c-0.7,0-1.6,0-2.3-0.1c-0.8,0-1.6-0.1-2.4-0.1
		c-0.1,0-0.3,0-0.4,0c-9.5,0.2-16.8,7.5-17,17c0,2.5,0,5.1,0,7.6l0,2.8c0,5.5,1,6.4,6.4,6.4l133.5,0c6.3,0,12.5,0,18.8,0
		c4.4,0,5.6-1.2,5.7-5.5l0-1.6c0-3.3,0.1-6.7,0-10c-0.2-8.9-7.5-16.2-16.4-16.5c-1.2,0-2.6-0.1-4-0.1c-1.2,0-2.3,0-3.4,0.1
		c-0.1,0-0.2,0-0.3,0c-1,0-1.6-0.2-2.1-1.8c-3-8.6-6.2-17.3-9.2-25.7c-1.4-3.8-2.8-7.7-4.1-11.5c-0.1-0.2-0.1-0.4-0.1-0.6
		c0,0,48.7,0,57.8,0c13.7,0,27.3,0,41,0c13.1,0,22.5-6,28-17.9c0.7-1.6,1.2-3.4,1.7-5.1c0.2-0.8,0.4-1.5,0.6-2.3l0-0.1V41.7
		L348.7,41.5z M73,251.5h-5.1c-3.3,0-6.5,0-9.8,0c-3.3,0-6.5,0-9.8,0c-4.1,0-8.3,0-12.4,0c-12.4-0.1-21.5-9.2-21.6-21.7
		c0-2.2,0-4.4,0-6.6l0-2.3H73V251.5z M14.4,212V56.9h58.4V212H14.4z M14.4,48.1c-0.3-6.7,1.8-12.8,5.8-17.1c4.1-4.4,10.2-6.9,17-6.9
		c46.7,0,93.4,0,140.1,0c46.7,0,93.4,0,140.1,0c6.8,0,12.9,2.4,17,6.8c4,4.3,6.1,10.4,5.8,17.1H14.4z M240.5,307.9
		c7.8,0,10.5,2.8,10.5,10.6v6.1H103.8c0-0.9,0-1.8-0.1-2.7c-0.1-2.7-0.2-5.3,0.2-7.8c0.5-3.8,3.9-6.2,8.7-6.2c6.2,0,12.5,0,18.7,0
		l23.2,0H240.5z M157,299.3l4.2-14.5h32l4.3,14.5H157z M222.1,293.4l2.2,6h-17.8c-0.5-1.6-0.9-3.2-1.4-4.8c-1.2-4.3-2.5-8.7-3.6-13
		c-1-3.8-3-5.5-6.9-5.5h-0.3c-5.3,0.1-10.8,0.1-16.7,0.1c-5.5,0-11.2,0-17.6-0.1h-0.2c-3.6,0-5.7,1.6-6.6,5.1
		c-1.2,4.5-2.5,9-3.8,13.3c-0.5,1.6-0.9,3.2-1.4,4.8h-17.7c0-0.2,0.1-0.3,0.1-0.5c1.4-3.9,2.8-7.7,4.2-11.6c3-8.4,6.2-17.1,9.2-25.6
		c0.5-1.4,1-1.8,2.5-1.8c9.8,0,19.6,0,29.5,0c10.8,0,21.6,0,32.4,0.1c0.8,0,1.9,0.5,2,0.8C214.2,271.6,218,282.1,222.1,293.4z
		 M272.8,251.4h-191v-30.5h191V251.4z M81.8,211.9V56.9h258.3v155.1H81.8z M340.4,225.4c-0.2,3.9-0.4,7.9-1.4,11.7
		c-2.1,8.2-10,14.2-18.6,14.4c-4.7,0.1-9.9,0.1-16.1,0.1c-3.8,0-7.7,0-11.5,0c-3.6,0-7.3,0-10.9,0c0,0-0.1,0-0.2,0v-30.6h59.1
		C340.5,222.4,340.5,223.9,340.4,225.4z"/>
	<path class="st2" d="M238,120.8c0,1.3-0.3,2.3-1.1,3.1c-0.8,0.9-2.2,1.3-4,1.3c-0.8,0-1.5,0-2.2,0c-1.3,0-2.6,0-3.8,0
		c-1.3,0-2.6,0-3.8,0c-3.1,0-5.4,0-7.6-0.1c-1.9-0.1-3.8-1.1-4.9-2c-3.6-2.9-7-5.8-10.6-9c-1.1-0.9-2.2-1.9-3.3-2.8L185,128.3
		c1.6,1.5,3.3,2.9,4.9,4.4c4.4,3.9,8.9,8,13.4,11.8c3.1,2.6,4.4,5.4,4.2,9.3c-0.2,5.1-0.2,10.2-0.1,15.2c0,1.6,0,3.2,0,4.7
		c0,1.2-0.1,3-1.3,4.1c-0.7,0.7-1.7,1.1-3,1.1h-0.1c-4.2,0-4.2-4-4.2-5.3l0-2.7c0-5.5,0.1-11.3-0.1-16.9c0-1.2-0.7-2.7-1.6-3.5
		c-3.5-3.3-7.1-6.5-11-9.8c-0.9-0.8-1.9-1.7-2.9-2.5v3.1c0,3.6,0,6.9,0,10.3c0,4.3-1.3,5.5-5.7,5.5c-2.6,0-5.2,0-7.8,0l-9.7,0
		c-3.5,0-7,0-10.5,0h0c-1.5,0-5.2,0-5.3-4.1c0-1.3,0.3-2.4,1-3.1c1.1-1.1,2.9-1.3,4.3-1.3c3.9,0,7.7,0,11.6,0l13.6,0
		c0-1.5,0-2.9,0-4.4c0-4.5-0.1-8.8,0.1-13.2c0.1-2.2,0.9-4.6,2-6.5c2.6-4,5.3-7.9,8.2-12c0.8-1.2,1.6-2.3,2.5-3.6
		c-0.9,0-1.8,0-2.7,0c-1.4,0-2.7,0-4.1,0c-2.2,0-5,0-7.9,0.1c-0.3,0-1.1,0.5-1.9,1.4c-1.5,1.8-3,3.7-4.5,5.5
		c-1.3,1.7-2.7,3.4-4.1,5.1c-0.8,1-2.2,2.6-4,2.6c-0.9,0-1.7-0.4-2.6-1.1c-3.4-2.9-0.7-6,0.1-7c1.3-1.5,2.5-3.1,3.8-4.6
		c2-2.5,4.1-5.1,6.3-7.4c1.5-1.6,4.1-2.8,6.2-2.9c3.2-0.1,6.7-0.2,10.6-0.2c3.7,0,7.4,0.1,11.7,0.1c1.6,0,3.5,0.7,4.7,1.7
		c2.6,2.1,5.2,4.3,7.6,6.5c2.5,2.1,5,4.3,7.6,6.4c0.9,0.7,2.3,1.2,3.6,1.3c2,0.1,4.2,0.1,6.9,0.1c1.8,0,3.6,0,5.4,0l2.3,0
		C237.1,116.7,238,118.9,238,120.8z"/>
	<path class="st2" d="M290.3,182.6c-1.1-1.1-2.8-1.3-4.2-1.3l-0.3,0c-1.5,0-3,0-4.5,0c-1.1,0-5.7,0-6.8,0h-11.6
		c-0.8-10.1-4.4-14.7-11.7-14.7c-7.2,0-10.8,4.5-11.7,14.7H120.5c-0.5,0-1,0-1.5,0c-2.9,0.1-4.5,1.6-4.5,4.3c0,2.5,1.6,4,4.3,4.1
		c0.5,0,1,0,1.5,0h119.2c1.1,8.9,3.5,14.4,10.9,14.5h0.2c2.4,0,5-0.7,7.1-2c4.8-2.9,5.3-7.7,5.1-12.6h12.6c3.5,0,6.9,0,10.3,0h0.2
		c1.8,0,5.4,0,5.5-4.1C291.4,184.3,291,183.3,290.3,182.6z M254.3,192.6c0,2-1.2,3.2-3.1,3.2c-2.6,0-3-2.2-3-3.2
		c-0.1-1.7-0.1-3.4-0.1-5c0-0.7,0-1.5,0-2.2c0-0.7,0-1.4,0-2.1c0-1.6,0-3.2,0-4.8c0.1-1.2,0.5-3.2,3-3.3l0.1-0.9v0.9
		c1.8,0,3,1.2,3,3.2C254.4,182.8,254.4,187.5,254.3,192.6z"/>
	<path class="st2" d="M304.2,86.1l-10.6-5.9c-8.1-4.5-16.2-9-24.3-13.4c-1.3-0.7-2.4-1.1-3.4-1.1c-1.3,0-3.6,0.7-3.6,5.2
		c0,4.3,0,8.7,0,13v5.3c0,1.9,0,3.8,0,5.7c0,4.4,0,8.9,0,13.3c0,3,1.4,4.7,3.6,4.7c0.9,0,2-0.3,3.1-0.9c4.5-2.5,9.1-4.9,13.6-7.3
		c2.3-1.2,4.6-2.5,6.9-3.7c1.2-0.7,2.5-1.3,3.7-2c3.6-1.9,7.3-3.9,10.9-5.9c2.2-1.2,2.6-2.6,2.6-3.5C306.8,88.2,305.9,87,304.2,86.1
		z M271,102V77.2l23,12.4L271,102z"/>
	<path class="st2" d="M208,68.1h-0.2c-8.8,0-16.1,7-16.1,15.5c-0.1,9,7,16.2,16,16.2h0.1c8.6,0,15.6-7.2,15.6-16.1
		C223.5,75.2,216.5,68.2,208,68.1z M207.7,91.4c-0.1,0-0.2,0-0.4,0c-0.1,0-0.2,0-0.2,0c-0.2,0-0.3,0-0.5-0.1c-0.2,0-0.5-0.1-0.7-0.2
		c-0.1,0-0.2-0.1-0.2-0.1c0,0-0.1,0-0.1,0c0,0-0.1,0-0.1,0c-0.2-0.1-0.4-0.1-0.6-0.2c0,0,0,0,0,0c-0.2-0.1-0.3-0.2-0.5-0.3
		c-0.2-0.1-0.3-0.2-0.5-0.3c-0.1-0.1-0.2-0.1-0.3-0.2c-0.1-0.1-0.2-0.1-0.3-0.2c-0.2-0.2-0.4-0.3-0.6-0.5c-0.1-0.1-0.2-0.2-0.3-0.3
		c-0.2-0.2-0.3-0.4-0.5-0.6c-0.1-0.1-0.2-0.2-0.2-0.3c-0.2-0.2-0.3-0.4-0.4-0.6c-0.1-0.2-0.3-0.4-0.4-0.6c-0.1-0.2-0.2-0.5-0.3-0.8
		c-0.1-0.1-0.1-0.3-0.1-0.4c0-0.1-0.1-0.3-0.1-0.4c0-0.1-0.1-0.3-0.1-0.4c0-0.1,0-0.2-0.1-0.3c0,0,0,0,0,0c0-0.2,0-0.3,0-0.4
		c0-0.1,0-0.1,0-0.2c0-0.1,0-0.1,0-0.2v0c0-3.7,3.7-7.2,7.6-7.2v-0.9l0,0.9c1.7,0,3.6,0.8,5,2.3c1.4,1.4,2.2,3.2,2.2,5
		C214.9,87.7,211.4,91.4,207.7,91.4z"/>
	<path class="st2" d="M232.7,133.4c-0.8,11.1-6.4,19.9-16.5,26.3c-0.3,0.2-0.8,0.3-1.3,0.3c-1,0-2.9-0.5-3.5-1.5
		c-0.6-1-0.7-2.6-0.1-4.8c0.2-0.8,1-1.3,1.7-1.7c0.2-0.1,0.5-0.3,0.7-0.4c6.4-4.6,10-11,10.6-18.9c0.2-2.2,0.4-5.4,4.2-5.4h0.2
		c1.3,0,2.4,0.5,3.1,1.2C232.8,129.9,232.8,131.7,232.7,133.4z"/>
	<path class="st2" d="M166.7,142.2l-0.2,0.3c-0.1,0.2-0.2,0.4-0.4,0.7c-0.4,0.8-1,1.8-1.9,2.1c-0.6,0.2-1.3,0.3-2,0.3
		c-1,0-2.3-0.2-2.8-1c-3.3-4.6-5.9-8.7-7.9-12.7c-0.4-0.8-0.2-1.8,0.1-2.6c0.4-1.1,1.1-2.4,2.1-2.9c0.3-0.1,0.7-0.2,1.1-0.2
		c1.4,0,3.5,0.8,4.4,2c2,2.7,3.7,5.6,5.3,8.4c0.5,0.8,1,1.7,1.4,2.5c0.3,0.5,0.4,1,0.5,1.6c0.1,0.3,0.1,0.6,0.2,1L166.7,142.2z"/>
	<path class="st2" d="M25.9,79.4l0.2,0c2.4,0,4.9,0,7.3,0l10,0l10.4,0c2.5,0,5.1,0,7.6,0l0.1,0c1.4,0,3.2-0.1,4.3-1.3
		c0.7-0.7,1.1-1.8,1-3.1c-0.1-4.1-3.8-4.1-5.3-4.1c0,0,0,0,0,0c-5.9,0-11.9,0-17.8,0c-5.9,0-11.9,0-17.9,0c-1.3,0-5.2,0-5.3,4.1
		c0,1.3,0.3,2.3,1.1,3.1C22.7,79.3,24.5,79.4,25.9,79.4z"/>
	<path class="st2" d="M61.5,100.3l-0.2,0c-2.5,0-5,0-7.5,0l-10.1,0l-10.1,0c-2.5,0-5,0-7.5,0l-0.2,0c-1.4,0-3.2,0.1-4.3,1.3
		c-0.7,0.7-1.1,1.8-1,3.1c0.1,4.1,3.8,4.1,5.3,4.1c0,0,0.1,0,0.1,0c5.9,0,11.9,0,17.8,0c5.9,0,11.9,0,17.9,0c1.3,0,5.2,0,5.3-4.2
		c0-1.3-0.3-2.3-1.1-3C64.6,100.4,63,100.3,61.5,100.3z"/>
	<path class="st2" d="M55,130.2l-0.1,0c-2,0-4,0-6,0l-8.4,0l-8.8,0c-2.1,0-4.1,0-6.2,0h-0.1c-1.8,0-3.1,0.4-4,1.3
		c-0.7,0.7-1.1,1.8-1,3.1c0.1,2.7,1.8,4.1,5.1,4.1c4.9,0,9.8,0,14.6,0c4.9,0,9.8,0,14.6,0h0.1c1.3,0,5.2,0,5.2-4.2
		c0-1.3-0.3-2.3-1.1-3C58.2,130.6,56.9,130.2,55,130.2z"/>
	<path class="st2" d="M54.8,159.6C54.8,159.6,54.8,159.6,54.8,159.6c-4.9,0-9.7,0-14.6,0c-4.8,0-9.6,0-14.4,0c-1.3,0-5.2,0-5.3,4.1
		c0,1.3,0.3,2.3,1.1,3.1c1.1,1.1,2.9,1.3,4.2,1.3l0.2,0c1.9,0,3.8,0,5.7,0c1.4,0,6.9,0,8.2,0l8.6,0c2,0,4,0,6,0l0.2,0
		c1.4,0,3.1-0.1,4.3-1.3c0.7-0.7,1.1-1.8,1.1-3.1C60.1,159.6,56.2,159.6,54.8,159.6z"/>
	<path class="st2" d="M54.8,188.9C54.8,188.9,54.8,188.9,54.8,188.9c-4.8,0-9.7,0-14.5,0s-9.7,0-14.5,0c-1.3,0-5.2,0-5.3,4.1
		c0,1.3,0.3,2.3,1.1,3.1c1.1,1.1,2.9,1.3,4.3,1.3l0.2,0c2,0,3.9,0,5.9,0l8.4,0l8.4,0c2,0,3.9,0,5.9,0l0.2,0c1.4,0,3.1-0.1,4.3-1.3
		c0.7-0.7,1.1-1.8,1.1-3.1C60.1,188.9,56.2,188.9,54.8,188.9z"/>
	<path class="st2" d="M53.5,39.1c-0.7,0.9-1.9,1.5-3.4,1.6c-0.7,0-1.4,0.1-2.1,0.1c-0.5,0-1.1,0-1.6,0c-0.5,0-1.1,0-1.6,0
		c-0.6,0-1.1,0-1.7,0c-0.6,0-1.1,0-1.7,0c-0.7,0-1.4,0-2.1,0c-1.5-0.1-2.7-0.6-3.5-1.6c-0.6-0.8-0.8-1.8-0.6-2.8
		c0.3-1.5,2.2-3.6,3.8-3.8c1.8-0.2,3.7-0.3,5.6-0.3c1.9,0,3.7,0.1,5.6,0.3c1.6,0.2,3.5,2.2,3.8,3.8C54.3,37.3,54.1,38.3,53.5,39.1z"
		/>
	<path class="st2" d="M80,36.9c-0.4,1.5-2.2,3.5-3.9,3.7c-1.8,0.2-3.7,0.3-5.5,0.3c-1.9,0-3.8-0.1-5.6-0.3c-1.6-0.2-3.6-2.5-3.6-4
		c0-1.6,1.9-3.5,3.5-4c0.7-0.2,1.5-0.3,2.4-0.3c0.6,0,1.2,0,1.8,0.1c0.4,0,0.8,0.1,1.2,0.1l0.5,0c0.5,0,1.1,0,1.6,0
		c0.5,0,1.1,0,1.6,0c0.7,0,1.4,0,2.1,0.1c1.5,0.1,2.7,0.7,3.4,1.6C80.1,34.8,80.3,35.8,80,36.9z"/>
	<path class="st2" d="M106,36.8c-0.4,1.5-2.2,3.6-3.8,3.8c-1.8,0.2-3.7,0.3-5.6,0.3c-1.9,0-3.8-0.1-5.6-0.3
		c-1.6-0.2-3.4-2.3-3.8-3.8c-0.2-1.1,0-2.1,0.6-2.8c0.7-0.9,1.9-1.5,3.5-1.6c0.7,0,1.4,0,2.1,0c0.6,0,1.1,0,1.7,0c0.5,0,1.1,0,1.6,0
		c0.6,0,1.1,0,1.6,0c0.5,0,1.1,0,1.6,0c0.7,0,1.4,0,2.1,0c1.5,0.1,2.7,0.6,3.4,1.6C106.1,34.7,106.2,35.7,106,36.8z"/>
	<path class="st1" d="M322,235.7c0,1.4-0.4,2.5-1.3,3.2c-0.8,0.7-1.9,1-3.2,1c-1.3,0-2.6,0-3.9,0l-5.9,0l-5.6,0c-1.3,0-2.6,0-3.9,0
		c-1.5,0-2.6-0.4-3.4-1.2c-0.7-0.8-1.1-1.8-1.1-3.1c0.1-2.5,1.7-4.1,4.4-4.1c3.3,0,6.7,0,10,0c3.2,0,6.4,0,9.6,0
		C320.3,231.6,322,233.2,322,235.7z"/>
</g>
</svg>
