<?xml version="1.0" encoding="utf-8"?>
<!-- Generator: Adobe Illustrator 24.3.0, SVG Export Plug-In . SVG Version: 6.00 Build 0)  -->
<svg version="1.1" id="Layer_1" xmlns="http://www.w3.org/2000/svg" xmlns:xlink="http://www.w3.org/1999/xlink" x="0px" y="0px"
	 viewBox="0 0 354.5 348.9" style="enable-background:new 0 0 354.5 348.9;" xml:space="preserve">
<style type="text/css">
	.st0{fill:#00B0FB;}
	.st1{opacity:0.4;fill:#00B0FB;}
	.st2{fill:#FFFFFF;}
	.st3{fill:#FEFEFE;}
</style>
<g>
	<g>
		<path class="st0" d="M28.7,38c0-1.3,0-2.7,0-4c0-6.3,1.6-7.9,7.9-7.9c93.8,0,187.5,0,281.3,0c6.3,0,7.9,1.6,7.9,7.9
			c0,1.4,0,2.7,0,4.1h7.6c0-1,0-1.9,0-2.9c0-7.9-2.3-13.7-10-16.5H31.2c-7.7,2.8-10.1,8.6-10,16.5c0,1,0,1.9,0,2.9H28.7z"/>
	</g>
	<g>
		<path class="st2" d="M323.4,15.3H31.1c-7.7,2.8-10.1,8.6-10,16.5c0,0.8,0,1.7,0,2.5V38c0.2,76.3,0.1,152.6,0.1,228.8
			c0,10.4,4.8,15.2,15.2,15.2h94.4c-3.1,5.8-5.9,11.3-8.9,16.6c-0.3,0.6-1.8,0.7-2.7,0.7c-9.7,0-19.5,0-29.2,0
			c-10.1,0.1-17.8,7.6-17.8,17.3c0,9.4,7.8,16.8,17.9,16.9c58.1,0,116.3,0,174.4,0c9.1,0,16.3-6,17.7-14.4
			c1.3-7.9-3.6-16.1-11.5-18.8c-2.1-0.7-4.5-1-6.7-1c-9.5-0.1-19.1-0.1-28.6,0c-1.8,0-2.8-0.5-3.6-2.1c-2.5-5-5.1-9.9-7.9-15.2
			c1.4-0.1,2.5-0.1,3.6-0.1c30.4,0,60.7,0,91.1,0c10,0,14.9-4.9,14.9-14.9c0-76.4-0.1-152.8,0.1-229.1c0-1,0-1.9,0-2.9V35
			c0-0.1,0-0.1,0-0.2c0,0,0,0,0,0c0,0,0,0,0-0.1v-2.9C333.4,23.9,331.1,18.1,323.4,15.3z M263.7,306.9c4.7,0,8.3,1.6,10.3,5.9
			c2.7,6-1.4,12.7-8.2,13.3c-1,0.1-2.1,0.1-3.1,0.1h-85.8c-28.5,0-57,0-85.5,0c-1.5,0-3.1,0-4.6-0.4c-4.7-1.2-7.6-5.4-7.2-9.9
			c0.5-4.7,4.3-8.4,9-8.8c0.7-0.1,1.4,0,2.2,0C148.5,306.9,206.1,306.9,263.7,306.9z M224.6,299.3h-94.7c2.9-5.6,5.6-10.9,8.5-16.1
			c0.4-0.7,1.6-1.1,2.5-1.1c24.2-0.1,48.4-0.1,72.6,0c0.8,0,2,0.3,2.3,0.9C218.8,288.2,221.6,293.6,224.6,299.3z M325.9,267.8
			c0,4.8-2,6.7-6.9,6.8c-0.5,0-1,0-1.6,0H37.1c-7,0-8.4-1.4-8.4-8.3v-22h297c0.1,0.8,0.2,1.5,0.2,2.2
			C325.9,253.5,325.9,260.7,325.9,267.8z M325.9,142.2v3.5h-39.2V63.8c0-0.9,0.3-2.2-0.1-2.7c-1-1.3-2.3-3-3.8-3.3
			c-2.1-0.4-3.3,1.3-3.5,3.4c-0.1,0.7,0,1.5,0,2.2v84.2c0,4.9,0.9,5.7,5.9,5.7h40.6v83.1H28.9v-83.1h3.2c12.5,0,25.1,0,37.6,0
			c4.6,0,5.5-0.9,5.5-5.4c0-28.4,0-56.8,0-85.2c0-3.5-1.2-5.1-3.6-5.2c-2.4,0-3.9,1.9-3.9,5.3c0,26.3,0,52.6,0,79v3.9H28.7V30.6
			c0-6.2,1.6-7.9,7.9-7.9c93.8,0,187.5,0,281.3,0c6.3,0,7.9,1.6,7.9,7.9V38C325.9,72.7,325.9,107.5,325.9,142.2z"/>
		<path class="st0" d="M325.7,244.2h-297v22c0,6.9,1.5,8.3,8.4,8.3h280.4c0.5,0,1,0,1.6,0c4.8,0,6.8-2,6.9-6.8c0-7.1,0-14.3,0-21.4
			C325.8,245.7,325.7,245,325.7,244.2z M254.3,263.3c-3.1,0.2-6.2,0.2-9.3,0c-2.1-0.2-3.2-1.8-3.1-3.9c0.1-2.1,1.2-3.2,3.3-3.4
			c1.4-0.1,2.9,0,4.3,0c0,0,0,0,0,0c1.4,0,2.9,0,4.3,0c2.2,0.1,3.5,1.2,3.5,3.4C257.5,261.5,256.5,263.1,254.3,263.3z M282.1,259.4
			c-0.3,1.5-1.9,3.5-3.2,3.7c-3,0.6-6.2,0.4-9.3,0.1c-2.2-0.2-3.6-1.7-3.4-4c0.2-2.2,1.6-3.2,3.8-3.3c1.4,0,2.9,0,4.3,0v0
			c1.4,0,2.9-0.1,4.3,0C280.9,256.1,282.6,257.4,282.1,259.4z M303.4,263.1c-3,0.6-6.2,0.4-9.2,0.1c-2.2-0.2-3.2-1.8-3.1-4
			c0.1-2.1,1.3-3.2,3.3-3.3c1.4-0.1,2.9,0,4.3,0c1.4,0,3.1-0.4,4.3,0.1c1.4,0.6,3.4,2.2,3.3,3.2
			C306.2,260.6,304.6,262.9,303.4,263.1z"/>
		<path class="st2" d="M289.7,195c-4.6,0-9.1-0.1-13.7,0c-1.8,0-2.7-0.4-3.6-2.1c-2.5-4.9-6.6-7.7-12.1-7.8
			c-5.7-0.2-10.4,2.2-13.1,7.3c-1.2,2.3-2.6,2.7-4.8,2.6c-29.3-0.1-58.6,0-87.9,0H66.8c-0.9,0-1.9,0-2.8,0c-2.2,0.2-3.9,1.4-3.4,3.5
			c0.3,1.5,2,2.8,3.3,3.8c0.7,0.5,2,0.1,3,0.1c58.3,0,116.6,0,174.9,0c1.7,0,3.2-0.5,4,2.1c1.9,6.1,7.4,9.7,14,9.7
			c6.4,0,11.5-3.6,13.6-9.8c0.6-1.7,1.3-2,2.8-2c4.5,0.1,8.9,0,13.4,0c2.5,0,4.3-1.2,4.4-3.8C294.1,195.9,292.2,195,289.7,195z
			 M259.8,206.8c-4,0-7.3-3.1-7.3-6.9c0-4.2,3.3-7.5,7.5-7.3c3.8,0.1,6.8,3.4,6.7,7.4C266.7,203.8,263.6,206.8,259.8,206.8z"/>
		<path class="st2" d="M215.2,88.1c-24-12.3-48.1-24.6-72.1-36.8c-4.4-2.2-6.8-0.8-6.8,4.1c0,12,0,24,0,36c0,12,0.1,24-0.1,36
			c-0.1,4.6,2.2,7,7.2,4.5c24-12.1,48-24.3,71.9-36.6c1.3-0.7,2.9-2.4,2.8-3.5C217.9,90.6,216.5,88.8,215.2,88.1z M143.8,123.4V60.1
			c20.8,10.5,41.4,20.9,62.7,31.6C185.2,102.5,164.7,112.9,143.8,123.4z"/>
		<path class="st2" d="M267.8,161.6c-0.3-1.5-1.9-2.8-3.3-3.8c-0.7-0.5-2-0.1-3-0.1c-41.7,0-83.5,0-125.2,0c-1.5,0-2.9,0.4-3.8-1.7
			c-2.5-5.9-7.4-8.8-13.7-8.8c-6.3,0-11,3-13.8,8.8c-0.4,0.8-1.8,1.6-2.7,1.6c-3.5,0.2-7,0.1-10.6,0.1c-3.2,0-5,1.4-5.1,3.7
			c-0.1,2.4,1.6,3.7,5,3.7c4.2,0,8.5,0,12.7,0c2.5,7.1,7.3,11.2,14.9,11.1c7.3-0.1,11.9-4.1,14.4-11.1h128.2c0.9,0,1.9,0,2.8,0
			C266.6,164.9,268.3,163.7,267.8,161.6z M118.6,168.8c-3.9-0.1-7.3-3.6-7.2-7.5c0.1-3.6,3.6-6.8,7.5-6.8c3.9,0,7.4,3.3,7.4,6.9
			C126.3,165.5,122.6,169,118.6,168.8z"/>
		<path class="st1" d="M259.8,206.8c-4.1,0-7.3-3.1-7.3-6.9c0-4.2,3.3-7.5,7.5-7.4c3.8,0.1,6.8,3.4,6.7,7.4
			C266.7,203.8,263.6,206.8,259.8,206.8z"/>
		<path class="st0" d="M206.5,91.8c-21.3,10.7-41.8,21.1-62.7,31.6c0-21.2,0-42,0-63.3C164.6,70.6,185.2,81,206.5,91.8z"/>
		<path class="st1" d="M118.9,154.6c3.9,0,7.4,3.3,7.4,6.9c0,4-3.6,7.5-7.6,7.3c-3.9-0.1-7.3-3.6-7.2-7.5
			C111.5,157.8,115,154.6,118.9,154.6z"/>
	</g>
</g>
</svg>
