<?xml version="1.0" encoding="utf-8"?>
<!-- Generator: Adobe Illustrator 24.3.0, SVG Export Plug-In . SVG Version: 6.00 Build 0)  -->
<svg version="1.1" id="Layer_1" xmlns="http://www.w3.org/2000/svg" xmlns:xlink="http://www.w3.org/1999/xlink" x="0px" y="0px"
	 viewBox="0 0 354.5 348.9" style="enable-background:new 0 0 354.5 348.9;" xml:space="preserve">
<style type="text/css">
	.st0{fill:#00B0FB;}
	.st1{opacity:0.4;fill:#00B0FB;}
	.st2{fill:#FFFFFF;}
	.st3{fill:#FEFEFE;}
</style>
<g>
	<path class="st0" d="M33.9,335.6H20.1v-14.5h13.7v-8h-6.1c-0.5,0-1,0-1.5-0.1c-0.3,0-0.5-0.1-0.9-0.1l-2.5-0.2l1-2.3
		c0.2-0.4,0.3-0.8,0.5-1.2c0.3-0.8,0.6-1.5,1-2.1c1.9-3.8,3.8-7.7,5.7-11.5c4.6-9.1,9.3-18.6,13.9-27.9c1.3-2.7,3.2-3.9,6.1-3.9
		c0.5,0,0.9,0,1.4,0v-8.1h-4v-187c0-7.9,2.3-10.2,10.3-10.2l1.3,0v-7.8h-2.3c-11,0-17.1,6.1-17.1,17l0,48.5c0,45.4,0,92.3-0.1,138.5
		c0,2.6-0.7,5.4-1.8,7.7C32,276.3,25,290.3,18.2,303.9l-6,12v20.6c2.2,5.2,6,7.3,12.9,7.3h0c2.9,0,5.8,0,8.7,0V335.6z"/>
	<path class="st1" d="M155.4,167.8c-0.5,0.1-1,0.1-1.6,0.1c-1.4,0-2.8-0.2-4.2-0.4c-5.9-0.9-10.6-4.1-15-10l-1.8-2.4l-1.3,2.7
		l-0.7,1.4c-0.4,0.8-0.7,1.5-1,2.2c-4,9.2-8,18.3-12,27.5c-1.8,4.1-2.6,6-1.5,7.6c1.1,1.6,3,1.6,7.3,1.7c0,0,1.4,0,2,0
		c1.4,0,2.7,0,3.8,0c0.9,0,1.7,0,2.5,0c6.1,0,6.2,0.1,12.4,6.4c1,1,2.1,2.1,3.4,3.4c1.3,1.3,2.5,2.4,4,2.4c2.1,0,3.1-2.2,3.9-3.8
		c4.7-10.3,9.4-20.6,14-31c0.2-0.5,0.4-1,0.5-1.5c0.1-0.2,0.1-0.4,0.2-0.5l0.4-1.3l-1.2-0.7c-4.2-2.7-7.9-3.9-11.7-3.9
		C157,167.7,156.2,167.7,155.4,167.8z"/>
	<path class="st1" d="M222.7,158.2l-1-1.7l-1.6,1.2c-0.1,0.1-0.3,0.2-0.3,0.2c-0.2,0.2-0.5,0.3-0.7,0.5c-0.4,0.4-0.8,0.9-1.2,1.3
		c-4.6,5.4-10.2,8.2-16.8,8.2c-0.8,0-1.5,0-2.3-0.1c-0.6-0.1-1.3-0.1-1.9-0.1c-4.1,0-7.9,1.2-12.4,4l-1.3,0.8l4.5,9.9
		c3.8,8.4,7.6,16.8,11.4,25.1c1,2.3,2.5,2.8,3.5,2.8c1.1,0,2.2-0.5,3.2-1.6c1.1-1.1,2.1-2.1,3.2-3.2c1.5-1.5,2.9-2.9,4.4-4.4
		c2-2,4.2-2.9,6.9-2.9l0.1,0c1.7,0,3.4,0,5.2,0c1.6,0,3.2,0,4.9,0l2.4,0c2.3,0,4.2-0.1,5.2-1.6c1-1.5,0.3-3.3-0.5-5.2
		c-4.5-10.3-8.9-20.6-13.4-30.8c-0.3-0.6-0.6-1.2-0.9-1.7C223,158.6,222.8,158.4,222.7,158.2z"/>
	<path class="st0" d="M177.3,41.6H177c-25.9,0-47.1,21-47.2,46.9c-0.1,26.1,20.8,47.6,46.6,47.8h0.4c26.6,0,47.5-20.7,47.6-47
		C224.6,62.7,203.9,41.7,177.3,41.6z M196.7,80.5c-9.6,9.7-19,19.2-28,28c-1,1-2,1.5-2.9,1.5c-1,0-2.1-0.5-3.2-1.6
		c-1.6-1.5-3.2-3.1-4.7-4.6c-1.2-1.3-2.9-3.7-0.6-6.1c0.7-0.8,1.6-1.1,2.5-1.1c1.1,0,2.3,0.5,3.4,1.4c0.2,0.2,0.5,0.4,0.8,0.7
		l1.8,1.6l17.5-17.5c0.8-0.8,1.5-1.5,2.3-2.3c1.8-1.8,3.6-3.7,5.5-5.4c0.9-0.9,2-1.4,3.1-1.4c1,0,2,0.4,2.7,1.2
		C198.5,76.5,198.5,78.7,196.7,80.5z"/>
	<path class="st0" d="M250.6,80.6c-2.2-3.8-3-8.1-2.4-12.8c0.7-5.8-1.2-10.5-5.6-14c-4-3.2-6.7-7.2-8.1-12.2
		c-1.5-5.2-5-8.6-10.3-10.2c-4.8-1.4-8.9-4.1-11.9-7.9c-3.1-3.9-7.1-5.9-11.9-5.9c-0.7,0-1.4,0-2.1,0.1c-0.9,0.1-1.8,0.2-2.8,0.2
		c-3.8,0-7.5-1-11-2.9c-2.4-1.3-4.9-2-7.4-2c-2.5,0-5.1,0.7-7.7,2.2c-3.4,1.9-7,2.8-10.7,2.8c-0.9,0-1.8-0.1-2.7-0.2
		c-0.7-0.1-1.5-0.1-2.2-0.1c-4.8,0-8.8,1.9-11.8,5.8c-3.2,4-7.1,6.6-11.9,8c-5.4,1.5-8.9,5-10.4,10.4c-1.4,4.8-4.1,8.8-8,11.9
		c-4.5,3.6-6.4,8.3-5.7,14c0.6,4.8-0.3,9.2-2.5,13.1c-3,5.3-3,10.7-0.1,16c2.2,3.9,3.1,8.2,2.5,12.8c-0.7,6,1.3,10.9,5.9,14.6
		c3.8,3,6.3,6.8,7.6,11.4c1.6,5.7,5.2,9.3,10.9,10.9c4.6,1.3,8.4,3.8,11.4,7.6c3.2,4,7.3,6.1,12.2,6.1c0.7,0,1.5,0,2.3-0.1
		c0.9-0.1,1.8-0.2,2.7-0.2c3.5,0,6.9,0.9,10,2.7c2.6,1.5,5.1,2.2,7.8,2.2c2.5,0,5.2-0.6,8.1-2c2.9-1.3,6.1-2.1,8.5-2.6
		c0.7-0.2,1.4-0.3,2-0.5c1.5,0.2,3,0.3,4.3,0.3c5.6,0,9.6-1.9,12.9-6.1c2.9-3.6,6.7-6.1,11.4-7.5c5.4-1.5,8.9-5,10.5-10.4
		c1.4-4.8,4.1-8.8,7.9-11.9c4.5-3.6,6.4-8.3,5.7-14c-0.6-4.8,0.3-9.2,2.5-13.1C253.7,91.5,253.7,86.1,250.6,80.6z M177,144.1h-0.2
		c-30.3-0.1-54.9-24.8-54.8-55.1c0.1-30.5,24.6-55.2,54.7-55.2h0.3c31.1,0.2,55.4,24.6,55.3,55.6C232.2,119.5,207.4,144.1,177,144.1
		z"/>
	<path class="st1" d="M231.3,306.1c-1.4-3.4-2.7-6.6-3.8-9.8c-1.2-3.6-3.7-4-6-4c-10,0.1-19.7,0.1-27.1,0.1l-40.7,0
		c-6.2,0-13.5,0-21,0.1c-1.6,0-4.2,0.9-5,2.6c-1.7,3.7-3.1,7.4-4.7,11.4c-0.5,1.3-1,2.7-1.6,4.1l-1,2.4H234l-1-2.4
		C232.4,309,231.8,307.5,231.3,306.1z"/>
	<path class="st2" d="M339.7,302.3c-5.7-10.3-10.9-21-15.9-31.4c-1.3-2.8-2.7-5.5-4-8.3c-1.2-2.4-1.9-5.2-1.9-7.7
		c-0.1-68.4-0.1-135.5,0-186.4c0-4.4-0.5-7.9-2.7-11c-3.2-4.5-7.7-6.7-13.8-6.7c-6,0-12,0-18,0h-25.1c-9.3,0-13.6-3.1-16.5-11.9
		c-1.9-5.8-4.4-9.3-8-11.1c-8.3-4.1-15.5-8.9-22-14.8c-2.9-2.6-6.9-3.2-9.7-3.2c-0.7,0-1.5,0-2.2,0.1c-1,0.1-1.9,0.1-2.8,0.1
		c-4.1,0-7.7-1-11.1-2.9c-1-0.6-2.3-1-3.6-1.4c-0.6-0.2-1.1-0.3-1.6-0.5h-7.4c-0.8,0.4-1.7,0.7-2.5,1.1c-2.3,1-4.6,2-7.1,2.8
		c-1.9,0.6-4,0.9-6.1,0.9c-0.5,0-0.9,0-1.4,0c-0.7,0-1.3-0.1-2-0.1c-7.3,0-13.4,2.8-18.4,8.6c-2.1,2.3-5,4.3-8.1,5.4
		c-8.2,2.9-13.3,8-15.5,15.6c-1.4,4.8-4.7,7.9-7.8,10.2c-1.3,1-2.9,1-4.5,1c-9.1,0-18.3,0-27.4,0c0,0-14.6,0-19,0
		c-11,0-17.1,6.1-17.1,17l0,48.5c0,45.4,0,92.3-0.1,138.5c0,2.6-0.7,5.4-1.8,7.7c-6.8,13.8-13.8,27.8-20.7,41.3l-6,12v20.6
		c2.2,5.2,6,7.3,12.9,7.3h0c67.6-0.1,135.7-0.1,193.4-0.1l119.6,0c9.2,0,12.2-2.9,12.7-12.5C347.2,320.9,345,311.7,339.7,302.3z
		 M103.6,80.9c2.2-3.9,3-8.3,2.5-13.1c-0.7-5.7,1.2-10.4,5.7-14c3.9-3.1,6.6-7.1,8-11.9c1.5-5.4,5.1-8.9,10.4-10.4
		c4.8-1.4,8.7-4,11.9-8c3.1-3.9,7.1-5.8,11.8-5.8c0.7,0,1.4,0,2.2,0.1c0.9,0.1,1.8,0.2,2.7,0.2c3.7,0,7.3-0.9,10.7-2.8
		c2.6-1.4,5.2-2.2,7.7-2.2c2.5,0,5,0.7,7.4,2c3.4,1.9,7.1,2.9,11,2.9c0.9,0,1.8-0.1,2.8-0.2c0.7-0.1,1.4-0.1,2.1-0.1
		c4.8,0,8.8,2,11.9,5.9c3.1,3.9,7.1,6.5,11.9,7.9c5.3,1.5,8.8,5,10.3,10.2c1.5,5,4.1,9,8.1,12.2c4.4,3.5,6.3,8.3,5.6,14
		c-0.6,4.6,0.2,8.9,2.4,12.8c3.1,5.5,3.1,10.9,0.1,16.3c-2.2,3.9-3,8.4-2.5,13.1c0.7,5.7-1.2,10.4-5.7,14c-3.9,3.1-6.5,7.1-7.9,11.9
		c-1.5,5.4-5.1,8.9-10.5,10.4c-4.7,1.4-8.6,3.9-11.4,7.5c-3.3,4.2-7.3,6.1-12.9,6.1c-1.3,0-2.8-0.1-4.3-0.3c-0.6,0.2-1.2,0.3-2,0.5
		c-2.4,0.6-5.6,1.3-8.5,2.6c-2.9,1.3-5.6,2-8.1,2c-2.7,0-5.2-0.7-7.8-2.2c-3.1-1.8-6.5-2.7-10-2.7c-0.9,0-1.8,0.1-2.7,0.2
		c-0.8,0.1-1.6,0.1-2.3,0.1c-4.9,0-9-2-12.2-6.1c-3-3.7-6.8-6.3-11.4-7.6c-5.6-1.6-9.3-5.3-10.9-10.9c-1.3-4.6-3.8-8.4-7.6-11.4
		c-4.6-3.7-6.6-8.6-5.9-14.6c0.5-4.6-0.3-8.9-2.5-12.8C100.5,91.6,100.5,86.2,103.6,80.9z M237.5,191.4c0.8,1.9,1.5,3.8,0.5,5.2
		c-1,1.5-2.9,1.6-5.2,1.6l-2.4,0c-1.6,0-3.2,0-4.9,0c-1.7,0-3.4,0-5.1,0h-0.1c-2.7,0-5,1-6.9,2.9c-1.5,1.5-2.9,2.9-4.4,4.4
		c-1.1,1.1-2.1,2.1-3.2,3.2c-1.1,1-2.1,1.6-3.2,1.6c-1,0-2.5-0.5-3.5-2.8c-3.8-8.3-7.6-16.7-11.4-25.1l-4.5-9.9l1.3-0.8
		c4.4-2.7,8.3-4,12.4-4c0.6,0,1.3,0,1.9,0.1c0.8,0.1,1.6,0.1,2.3,0.1c6.5,0,12.2-2.7,16.8-8.2c0.4-0.5,0.8-0.9,1.2-1.3
		c0.2-0.2,0.5-0.4,0.7-0.5c0.1-0.1,0.2-0.1,0.3-0.2l1.6-1.2l1,1.7c0.1,0.2,0.3,0.4,0.4,0.6c0.3,0.5,0.7,1.1,0.9,1.7
		C228.5,170.8,233,181.1,237.5,191.4z M170.8,172.3l-0.4,1.3c-0.1,0.2-0.1,0.4-0.2,0.5c-0.1,0.5-0.3,1-0.5,1.5
		c-4.7,10.3-9.3,20.6-14,30.9c-0.7,1.6-1.7,3.8-3.9,3.8c-1.5,0-2.7-1.1-4-2.4c-1.3-1.3-2.4-2.4-3.4-3.4c-6.2-6.3-6.3-6.4-12.4-6.4
		c-0.7,0-1.5,0-2.5,0c-1.1,0-2.4,0-3.8,0c-0.6,0-2,0-2,0c-4.3,0-6.3,0-7.3-1.7c-1.1-1.6-0.3-3.5,1.5-7.6c4-9.2,8-18.3,12-27.5
		c0.3-0.7,0.6-1.3,1-2.2l0.7-1.4l1.3-2.7l1.8,2.4c4.4,5.9,9.2,9,15,10c1.3,0.2,2.8,0.4,4.2,0.4c0.6,0,1.1,0,1.6-0.1
		c0.8-0.1,1.7-0.2,2.5-0.2c3.8,0,7.5,1.3,11.7,3.9L170.8,172.3z M106.7,130.1c1.4,1.2,3.9,3.7,5,6.9c2.2,7.1,6,11.8,11.8,15.1
		l1.4,0.8l-0.6,1.5c-0.2,0.4-0.3,0.7-0.4,1.1c-0.3,0.8-0.6,1.6-0.9,2.3c-1.8,4.2-3.7,8.5-5.5,12.7c-2.6,6.1-5.3,12.1-7.9,18.2
		c-2.1,4.7-2,9.3,0.2,12.6c2,3,5.6,4.7,10.1,4.7c0.3,0,0.7,0,1.1,0c0.9-0.1,1.8-0.1,2.7-0.1c8.8,0,15.2,2.8,20.6,9.2
		c1.9,2.3,4.6,3.5,7.4,3.5c4.4,0,8.5-2.8,10.6-7.2c2.7-5.7,5.3-11.5,7.8-17.2c1.2-2.8,2.5-5.5,3.7-8.3c0.3-0.7,0.7-1.5,1.1-2.3
		c0.2-0.4,0.5-0.9,0.7-1.4l1.6-3.1l1.6,3.1c0.2,0.5,0.5,0.9,0.7,1.3c0.4,0.8,0.8,1.5,1.2,2.3c1.4,3.2,2.9,6.4,4.3,9.6
		c2.3,5,4.5,10,6.8,15c2.3,5,6.4,8.1,10.9,8.1c3.2,0,6.3-1.6,8.9-4.4c5-5.6,10.2-8.1,16.4-8.1c1.1,0,2.2,0.1,3.4,0.2
		c0.9,0.1,1.8,0.2,2.7,0.2c4.8,0,8.6-1.9,10.7-5.3c2.4-3.9,2.1-9.3-0.6-14.5c-3.8-7.1-6.8-14.5-9.8-21.8c-1.3-3.1-2.6-6.4-4-9.5
		l-0.5-1.1l0.9-0.9c1-0.9,2-1.8,3-2.6c2-1.6,3.8-3.2,4.7-5c4-8.1,8.8-15.2,14.6-21.7c3.1-3.5,3.3-8.4,3.3-13.7
		c0-3.6,0.7-7.4,2.1-10.6c2.4-5.8,3.1-10.7,2-15.8l-0.4-2.2H287V233H67.2V81.6h27.2L94,83.7c-1.2,5.7-0.3,11.1,3,17.7
		c1.3,2.6,1.4,5.8,1.2,8.1C97.5,117.9,100.4,124.7,106.7,130.1z M44.3,68.7c0-7.9,2.3-10.2,10.3-10.2l14.8,0l28.9,0v15h-5.7
		c-2.3,0-4.6,0-6.8,0c-2.3,0-4.6,0-6.8,0c-3.6,0-6.5,0-9.2,0.1c-6.6,0.1-10.4,3.8-10.4,10.3c0,50.2,0,99.7,0,147
		c0,6.1,3.7,9.9,9.9,10.1c0.4,0,0.8,0,1.2,0h60.8c50.5,0,100.9,0,151.4,0h0.2c1.9,0,3.9,0,5.6-0.5c4.2-1.1,6.7-4.8,6.7-10
		c0-16.3,0-32.5,0-48.8v-39c0-19.3,0-38.5,0-57.8c0-7.8-3.5-11.4-11.3-11.4c-3.2,0-6.5,0-9.8,0l-17.7,0v-15l27.6,0
		c5.5,0,11.1,0,16.6,0c7,0,9.6,2.6,9.6,9.5c0,47.8,0,95.6,0,143.4v44.3H44.3V68.7z M19.6,310.4c0.2-0.4,0.3-0.8,0.5-1.2
		c0.3-0.8,0.6-1.5,1-2.1c1.9-3.8,3.8-7.7,5.7-11.5c4.6-9.1,9.3-18.6,13.9-27.9c1.3-2.7,3.2-3.9,6.1-3.9c49,0,100.9,0.1,168.4,0.1
		c30.7,0,92.4,0,92.4,0c1.6,0,4,0,5.5,2.9c4.9,10,10,20.1,14.9,29.9c2,4,4,7.9,5.9,11.9c0.2,0.4,0.4,0.8,0.5,1.3
		c0.1,0.2,0.1,0.4,0.2,0.7l0.8,2.3l-2.4,0.1c-0.4,0-0.9,0-1.2,0.1c-0.8,0.1-1.6,0.1-2.3,0.1H296c-15.4,0-32,0-48.8,0.1
		c-3.5,0-5.3-1.3-6.5-4.4c-1.3-3.6-2.8-7.3-4.2-10.8c-0.9-2.1-1.8-4.3-2.6-6.5c-1.8-4.7-5.1-6.9-10.1-6.9h-93.2
		c-4.9,0-8.2,2.2-10,6.7c-0.7,1.8-1.4,3.6-2.2,5.4c-1.7,4.2-3.5,8.6-5.1,12.9c-0.7,1.8-1.9,3.7-5.3,3.7c-19.4-0.1-39.2-0.1-57.8-0.1
		H23.5c-0.5,0-1,0-1.5-0.1c-0.3,0-0.5-0.1-0.9-0.1l-2.5-0.2L19.6,310.4z M234,312.9H120.3l1-2.4c0.5-1.4,1.1-2.7,1.6-4.1
		c1.5-3.9,3-7.7,4.7-11.4c0.8-1.8,3.5-2.6,5-2.6c7.5-0.1,14.8-0.1,21-0.1l40.7,0c7.4,0,17.1,0,27.1-0.1c2.3,0,4.8,0.5,6,4
		c1.1,3.3,2.4,6.5,3.8,9.8c0.6,1.4,1.2,2.8,1.7,4.3L234,312.9z M338.4,335.6H15.8v-14.5h322.6V335.6z"/>
	<path class="st2" d="M177,33.7h-0.3c-30.1,0-54.6,24.8-54.7,55.2c-0.1,30.3,24.5,55,54.8,55.1h0.2c30.4,0,55.2-24.6,55.3-54.8
		C232.4,58.3,208.1,33.9,177,33.7z M176.8,136.2h-0.4c-25.8-0.2-46.7-21.6-46.6-47.8c0.1-25.8,21.3-46.9,47.2-46.9h0.3
		c26.6,0.2,47.3,21.1,47.1,47.6C224.3,115.5,203.4,136.2,176.8,136.2z"/>
	<path class="st2" d="M162.6,108.4c1.1,1.1,2.2,1.6,3.2,1.6c0.9,0,1.9-0.5,2.9-1.5c9-8.9,18.4-18.3,28-28c1.7-1.7,1.8-3.9,0.3-5.6
		c-0.7-0.8-1.7-1.2-2.7-1.2c-1.1,0-2.2,0.5-3.1,1.4c-1.9,1.8-3.7,3.6-5.5,5.4c-0.8,0.8-1.5,1.5-2.3,2.3l-17.5,17.5l-1.9-1.6
		c-0.3-0.3-0.6-0.5-0.8-0.7c-1.1-0.9-2.3-1.4-3.4-1.4c-1,0-1.8,0.4-2.5,1.1c-2.3,2.3-0.6,4.8,0.6,6.1
		C159.4,105.2,161,106.8,162.6,108.4z"/>
</g>
</svg>
