<?xml version="1.0" encoding="utf-8"?>
<!-- Generator: Adobe Illustrator 24.3.0, SVG Export Plug-In . SVG Version: 6.00 Build 0)  -->
<svg version="1.1" id="Layer_1" xmlns="http://www.w3.org/2000/svg" xmlns:xlink="http://www.w3.org/1999/xlink" x="0px" y="0px"
	 viewBox="0 0 354.5 348.9" style="enable-background:new 0 0 354.5 348.9;" xml:space="preserve">
<style type="text/css">
	.st0{fill:#00B0FB;}
	.st1{opacity:0.4;fill:#00B0FB;}
	.st2{fill:#FFFFFF;}
	.st3{fill:#FEFEFE;}
</style>
<g>
	<g>
		<path class="st0" d="M43,335.8c-0.3-0.7-0.5-1.4-0.7-2.1c-4.9,0-9.8,0-14.7,0c-5.6,0-7.1-1.5-7.1-7.2c0-95.9,0-191.8,0-287.8v-3
			h17c0.3-0.7,0.6-1.5,0.9-2.2c0.1-0.1,0.1-0.3,0.2-0.4c0.3-0.9,0.8-1.9,1.1-2.8c0,0,0,0,0-0.1H20.5c0-3.5-0.1-6.8,0-10.2
			c0.1-2.9,2.1-4.9,5.1-5.1c0.8,0,1.5,0,2.3,0h8.5c0-0.3-0.1-0.6-0.1-0.9c-0.1-1.4,0.1-2.8,0.4-4.2h-9.6c-7.9,0-11.8,4-11.8,11.8
			c0,101.7,0,203.5,0,305.2c0,7.9,4,11.8,11.8,11.8c5.8,0,11.6,0,17.4,0C44,338,43.5,336.9,43,335.8z"/>
	</g>
	<g>
		<path class="st3" d="M341.7,174.5c0,50.9,0,101.7,0,152.6c0,7.9-3.9,11.8-11.8,11.8c-101.7,0-203.5,0-305.2,0
			c-7.9,0-11.8-4-11.8-11.8c0-101.7,0-203.5,0-305.2c0-7.9,4-11.8,11.8-11.8c101.7,0,203.5,0,305.2,0c7.9,0,11.8,3.9,11.8,11.8
			C341.7,72.7,341.7,123.6,341.7,174.5z M17.9,35.8c0,1.1,0,2,0,3c0,95.9,0,191.8,0,287.8c0,5.7,1.5,7.2,7.1,7.2
			c101.5,0,203,0,304.5,0c5.4,0,7-1.6,7-7c0-96,0-192,0-288c0-0.9,0-1.8,0-2.9C230.3,35.8,124.3,35.8,17.9,35.8z M18,30.4
			c106.4,0,212.4,0,318.6,0c0-2.7,0-5.3,0-7.9c0-5.9-1.5-7.4-7.5-7.4c-101.2,0-202.5,0-303.7,0c-0.8,0-1.5,0-2.3,0
			c-3,0.2-5,2.1-5.1,5.1C17.9,23.6,18,26.9,18,30.4z"/>
		<path class="st3" d="M252,189.9c19.3,0,38.5,0,57.8,0c7.2,0,11.3,4.2,11.3,11.3c0,35.3,0,70.6,0,105.9c0,7.1-4.2,11.3-11.3,11.3
			c-38.7,0-77.4,0-116.1,0c-7.2,0-11.3-4.2-11.3-11.3c0-35.3,0-70.6,0-105.9c0-7.2,4.2-11.3,11.3-11.3
			C213.2,189.9,232.6,189.9,252,189.9z M316,290.9c0-1.5,0-2.4,0-3.2c0-28.6,0-57.2,0-85.8c0-5.2-1.6-6.9-6.9-6.9
			c-38.2,0-76.4,0-114.6,0c-5.3,0-6.9,1.6-6.9,6.9c0,34.8,0,69.5,0,104.3c0,5.4,1.6,7,7.1,7c38.1,0,76.2,0,114.3,0c0.5,0,1,0,1.5,0
			c3.4-0.1,5.4-2.1,5.5-5.5c0.1-1.9-0.2-3.8,0.1-5.6c0.3-2.7-0.8-4.6-2.7-6.5c-18.6-19.3-37.2-38.6-55.8-57.9
			c-2.2-2.3-4.6-4.4-7-6.7c-2.7,2.8-5.5,5.8-8.3,8.7c-1.8,1.9-3.6,3.7-5.3,5.6c-1.4,1.5-2.9,3-4.7,1.1c-1.9-1.9-0.3-3.4,1-4.8
			c1.2-1.2,2.4-2.5,3.6-3.7c2.9-3.1,5.8-6.2,9.1-9.6c-11.6-3.1-22.7-6.1-34.2-9.1c2.9,11.7,5.7,22.9,8.6,34.1c0.3,1,1,2,1.7,2.7
			c8,8.6,16.1,17.1,24.2,25.6c7.5,8,15.1,15.9,22.6,23.9c1.2,1.3,2.2,2.7,0.7,4.2c-1.7,1.8-3.2,0.7-4.6-0.8
			c-15.9-16.8-31.8-33.6-47.6-50.4c-0.8-0.9-1.5-2.1-1.8-3.3c-3.2-12.6-6.3-25.2-9.5-37.8c-0.9-3.7,0.4-5,4.1-4
			c13.4,3.6,26.8,7.1,40.1,10.8c1.4,0.4,2.8,1.2,3.8,2.3c9.9,10.1,19.6,20.3,29.4,30.5C294.1,268.2,304.8,279.3,316,290.9z"/>
		<path class="st3" d="M172.1,107.5c-1.8,0-3.3,0-5.1,0c0-0.9,0-1.8,0-2.7c0-14,0-27.9,0-41.9c0-4.9-1.7-6.7-6.6-6.7
			c-38.4,0-76.9,0-115.3,0c-4.7,0-6.5,1.8-6.5,6.5c0,35,0,70,0,105.1c0,4.9,1.8,6.6,6.7,6.6c38.4,0,76.7,0,115.1,0
			c4.9,0,6.7-1.7,6.7-6.6c0-13.9,0-27.7,0-41.6c0-0.9,0-1.9,0-3c1.7,0,3.3,0,5,0c0,0.8,0.1,1.7,0.1,2.5c0,14.2,0,28.4,0,42.6
			c0,7-4.2,11.2-11.2,11.2c-38.8,0-77.6,0-116.4,0c-7,0-11.2-4.2-11.2-11.1c0-35.4,0-70.7,0-106.1c0-7,4.2-11.2,11.1-11.2
			c38.8,0,77.6,0,116.4,0c7,0,11.2,4.2,11.2,11.1c0,14.2,0,28.4,0,42.6C172.1,105.7,172.1,106.6,172.1,107.5z"/>
		<path class="st3" d="M172.1,199.3c0,1.2,0,2,0,2.9c0,34.9,0,69.7,0,104.6c0,7.5-4,11.6-11.5,11.6c-38.6,0-77.2,0-115.9,0
			c-7.2,0-11.4-4.1-11.4-11.3c0-35.5,0-70.9,0-106.4c0-6.4,4.3-10.8,10.5-10.8c37.9,0,75.7,0,113.6,0c0.3,0,0.7,0,1.8,0.1
			c-3,2.2-4.3,5.1-8.4,5.1C115.8,195,80.7,195,45.6,195c-5.4,0-7,1.6-7,7c0,34.8,0,69.5,0,104.3c0,5.2,1.6,6.9,6.9,6.9
			c38.2,0,76.4,0,114.6,0c5.3,0,6.9-1.6,6.9-6.9c0-32.5,0.1-65.1-0.1-97.6C166.8,204.3,168.4,201.7,172.1,199.3z"/>
		<path class="st3" d="M187.5,107.6c-1.8,0-3.3,0-5,0c0-0.9-0.1-1.7-0.1-2.5c0-14.2,0-28.4,0-42.6c0-7.1,4.2-11.2,11.4-11.2
			c38.7,0,77.4,0,116.1,0c7.1,0,11.3,4.2,11.3,11.3c0,35.3,0,70.6,0,105.8c0,7.1-4.2,11.3-11.3,11.3c-38.1,0-76.2,0-114.3,0
			c-0.8,0-1.7,0-3,0c2.9-3.1,5.1-5.3,9.6-5.3c35.6,0.3,71.2,0.1,106.9,0.1c5.4,0,7-1.6,7-7c0-34.8,0-69.5,0-104.3
			c0-5.2-1.6-6.9-6.9-6.9c-38.2,0-76.4,0-114.6,0c-5.4,0-7,1.6-7,7.1c0,13.7,0,27.4,0,41.1C187.5,105.4,187.5,106.3,187.5,107.6z"/>
		<path class="st3" d="M128.6,274.7c5.7,0,10.2,4.7,10.2,10.4c0,5.7-4.7,10.2-10.4,10.2c-5.7,0-10.2-4.7-10.2-10.4
			C118.2,279.1,122.8,274.6,128.6,274.7z M133.6,284.9c-0.1-2.8-2.4-5-5.1-5c-2.9,0-5.2,2.5-5.1,5.3c0.1,2.7,2.5,5,5.3,4.9
			C131.3,290,133.6,287.6,133.6,284.9z"/>
		<path class="st3" d="M102.6,125.6c-5.7-0.1-10.2-4.7-10.1-10.4c0.1-5.7,4.7-10.2,10.4-10.1c5.7,0.1,10.2,4.7,10.1,10.4
			C113,121.2,108.3,125.7,102.6,125.6z M107.9,115.4c0-2.8-2.3-5.1-5.1-5.1c-2.8,0-5.2,2.4-5.2,5.2c0.1,2.8,2.4,5,5.2,5
			C105.6,120.4,107.9,118.1,107.9,115.4z"/>
		<path class="st3" d="M87.3,285c0,5.7-4.6,10.2-10.4,10.2c-5.7,0-10.2-4.6-10.2-10.4c0-5.7,4.6-10.2,10.4-10.2
			C82.8,274.7,87.4,279.3,87.3,285z M77,290.1c2.8,0,5.1-2.3,5.1-5c0-2.8-2.2-5.1-5-5.2c-2.8-0.1-5.3,2.3-5.3,5.2
			C72,287.8,74.3,290.1,77,290.1z"/>
		<path class="st3" d="M280,112.8c0,5.7-4.5,10.3-10.3,10.3c-5.7,0-10.3-4.6-10.3-10.3c0-5.7,4.5-10.3,10.3-10.3
			C275.5,102.5,280,107.1,280,112.8z M269.9,107.7c-2.7-0.1-5.1,2.2-5.2,4.9c-0.1,2.7,2.1,5.2,4.9,5.3c2.8,0.1,5.3-2.2,5.4-5.1
			C274.9,110.1,272.6,107.7,269.9,107.7z"/>
		<path class="st3" d="M305.7,112.9c0,5.7-4.6,10.2-10.3,10.2c-5.7,0-10.2-4.6-10.2-10.3c0-5.7,4.6-10.2,10.3-10.2
			C301.2,102.5,305.8,107.1,305.7,112.9z M295.5,117.9c2.8,0,5.1-2.3,5.1-5.1c0-2.7-2.2-5.1-5-5.2c-2.9-0.1-5.3,2.3-5.2,5.2
			C290.4,115.6,292.7,117.9,295.5,117.9z"/>
		<path class="st3" d="M102.6,295.2c-5.7-0.1-10.2-4.7-10.1-10.4c0.1-5.7,4.7-10.2,10.4-10.1c5.7,0.1,10.2,4.7,10.1,10.4
			C113,290.8,108.3,295.3,102.6,295.2z M102.7,290.1c2.8,0,5.1-2.3,5.1-5.1c0-2.8-2.2-5.1-5-5.2c-2.9-0.1-5.3,2.3-5.2,5.2
			C97.7,287.8,100,290.1,102.7,290.1z"/>
		<path class="st3" d="M182.6,123.2c1.6,0,3.2,0,4.9,0c0,1.6,0,3,0,4.4c0,9.9-0.2,19.9,0.1,29.8c0.2,4.4-1.1,7.6-5,9.8
			C182.6,152.6,182.6,138,182.6,123.2z"/>
		<path class="st3" d="M243.3,110.7c1.9-0.1,5.8,3.1,5.9,4.6c0,1.6-3.9,4.7-5.8,4.7c-1.4,0-4.4-3.1-4.5-4.6
			C238.9,113.9,241.9,110.7,243.3,110.7z"/>
		<path class="st3" d="M101.1,259.7c0.1,3.4-1.3,4.6-5.8,4.6c-1.7,0-2.8-0.8-2.9-2.5c-0.2-3.3,1.4-6.3,3.4-6.3
			C100.4,255.5,101,255.9,101.1,259.7z"/>
		<path class="st3" d="M161.2,200.7c-0.4-0.3-1.4-0.7-1.6-1.4c-0.3-0.8-0.2-2.1,0.4-2.8c1.1-1.5,2.5-2.8,4.1-3.9
			c0.7-0.5,2-0.5,2.8-0.1c0.6,0.3,1.1,1.5,1.2,2.3C168,196.4,163.3,200.7,161.2,200.7z"/>
		<path class="st3" d="M190.2,173.4c0,1.7-4.6,6.2-6.3,6.1c-1.9-0.1-3.3-2.3-2.1-3.9c1.3-1.7,2.9-3.2,4.6-4.4
			C188.1,170,190.2,171.4,190.2,173.4z"/>
		<path class="st3" d="M201.4,162.3c0,2.2-4.7,6.7-6.4,6.5c-0.7-0.1-1.8-0.6-2-1.2c-0.3-0.8-0.3-2.2,0.2-2.8c1.2-1.5,2.7-2.9,4.2-4
			c0.6-0.4,1.8-0.4,2.6-0.1C200.7,160.9,201.1,161.9,201.4,162.3z"/>
		<path class="st3" d="M156.9,205.2c0,1.7-4.6,6.2-6.2,6.2c-1.8,0-3.3-2.2-2.2-3.6c1.4-1.8,3-3.5,4.9-4.8
			C154.8,201.9,156.8,203.3,156.9,205.2z"/>
		<path class="st3" d="M123.5,236.6c0,2.2-4.7,6.8-6.3,6.6c-0.8-0.1-1.8-0.8-2.1-1.5c-0.3-0.7-0.2-2,0.2-2.5c1.2-1.5,2.7-2.9,4.2-4
			c0.6-0.5,1.9-0.5,2.6-0.2C122.8,235.2,123.2,236.2,123.5,236.6z"/>
		<path class="st3" d="M132.6,223.8c0.4,0.3,1.4,0.7,1.7,1.4c0.3,0.7,0.3,2-0.1,2.6c-1.3,1.6-2.8,3-4.4,4.2c-0.6,0.4-1.9,0.4-2.6,0
			c-0.7-0.4-1.2-1.5-1.2-2.3C125.8,228.3,130.5,223.9,132.6,223.8z"/>
		<path class="st3" d="M179.2,183.6c0,2.1-4.7,6.6-6.3,6.4c-0.8-0.1-1.8-0.7-2.2-1.4c-0.3-0.7-0.2-2,0.2-2.6c1.2-1.5,2.7-2.9,4.2-4
			c0.7-0.5,2-0.4,2.8-0.1C178.6,182.2,178.9,183.2,179.2,183.6z"/>
		<path class="st3" d="M228.6,117.9c-0.9,0-1.7,0.1-2.6,0c-1.6-0.1-2.8-1.1-2.4-2.6c0.2-1,1.4-2.1,2.4-2.4c1.6-0.4,3.5-0.4,5.1,0
			c1,0.3,1.8,1.6,2.7,2.4c-0.9,0.9-1.6,1.9-2.6,2.5C230.5,118.2,229.5,117.9,228.6,117.9z"/>
		<path class="st3" d="M136.1,117.9c-0.9,0-1.7,0.1-2.6,0c-1.6-0.1-2.8-1.1-2.4-2.6c0.2-1,1.4-2.1,2.4-2.4c1.6-0.4,3.5-0.4,5.1,0
			c1,0.3,1.8,1.6,2.7,2.4c-0.9,0.9-1.6,1.9-2.6,2.5C138,118.2,137,117.9,136.1,117.9z"/>
		<path class="st3" d="M151.6,117.9c-0.9,0-2.1,0.3-2.8-0.1c-1-0.5-2.1-1.6-2.2-2.5c-0.1-0.7,1.2-2.2,2-2.4c1.9-0.4,3.9-0.4,5.8,0
			c0.9,0.2,2.1,1.6,2.1,2.3c-0.1,0.9-1.2,2-2.2,2.6C153.6,118.2,152.5,117.9,151.6,117.9z"/>
		<path class="st3" d="M182.4,112.8c0.9,0,1.9-0.3,2.5,0.1c1,0.6,2.3,1.6,2.4,2.6c0.1,0.7-1.3,2.1-2.3,2.3c-1.7,0.4-3.6,0.4-5.3,0
			c-1-0.2-2.4-1.7-2.3-2.4c0.2-1,1.4-2,2.4-2.6C180.5,112.5,181.6,112.8,182.4,112.8z"/>
		<path class="st3" d="M197.8,117.9c-0.9,0-2.1,0.3-2.8-0.1c-1-0.5-2.1-1.6-2.2-2.5c-0.1-0.7,1.2-2.2,2-2.4c1.9-0.4,3.9-0.4,5.8,0
			c0.9,0.2,2.1,1.6,2.1,2.3c-0.1,0.9-1.2,2-2.2,2.6C199.9,118.2,198.8,117.9,197.8,117.9z"/>
		<path class="st3" d="M166.7,117.9c-0.9,0-1.9,0.3-2.5-0.1c-0.9-0.6-2.2-1.7-2.2-2.5c0-0.8,1.3-2.2,2.3-2.4c1.6-0.4,3.5-0.4,5.1,0
			c1,0.3,2.4,1.4,2.6,2.4c0.4,1.7-1,2.6-2.7,2.6C168.5,117.9,167.6,117.9,166.7,117.9C166.7,117.9,166.7,117.9,166.7,117.9z"/>
		<path class="st3" d="M105.6,253.7c-0.3-0.3-1.4-0.6-1.6-1.2c-0.3-0.9-0.3-2.2,0.2-2.8c1.2-1.5,2.7-2.9,4.2-4
			c0.6-0.4,1.9-0.5,2.6-0.1c0.7,0.4,1.2,1.4,1.3,2.2C112.6,249.4,107.7,253.8,105.6,253.7z"/>
		<path class="st3" d="M213.2,117.9c-0.9,0-1.7,0.1-2.6,0c-1.6-0.1-2.8-1.1-2.4-2.6c0.2-1,1.4-2.1,2.4-2.4c1.6-0.4,3.5-0.4,5.1,0
			c1,0.3,1.8,1.6,2.7,2.4c-0.9,0.9-1.6,1.9-2.7,2.5C215.1,118.2,214,117.9,213.2,117.9z"/>
		<path class="st3" d="M139,221.9c-0.3-0.2-1.4-0.6-1.6-1.2c-0.3-0.8-0.3-2.2,0.2-2.8c1.2-1.5,2.7-2.9,4.2-4
			c0.6-0.4,1.9-0.5,2.6-0.1c0.7,0.4,1.3,1.4,1.4,2.2C146,217.5,141.1,221.9,139,221.9z"/>
		<path class="st3" d="M101.6,243.7c-0.5,2-0.5,3.7-1.2,5c-0.4,0.8-1.9,1.7-2.7,1.6c-0.8-0.1-1.9-1.5-2-2.4c-0.1-1.6,0.3-3.3,1-4.7
			c0.4-0.8,1.9-1.5,2.8-1.4C100.2,241.8,100.9,243.1,101.6,243.7z"/>
		<path class="st3" d="M109.3,261.8c-0.5-0.6-1.9-1.4-1.9-2.3c-0.1-0.9,0.8-2.3,1.7-2.8c1.2-0.7,2.8-1,4.2-0.8
			c1,0.1,2.3,1.2,2.6,2.2c0.2,0.7-0.8,2.2-1.7,2.6C113,261.4,111.4,261.4,109.3,261.8z"/>
		<path class="st3" d="M234.2,110.3c-1.9-1.5-3.8-2.8-5.3-4.4c-0.4-0.4,0.1-2.1,0.6-2.6c0.6-0.5,2-0.8,2.7-0.5
			c1.4,0.6,2.8,1.4,3.8,2.5c0.6,0.6,0.8,2,0.5,3C236.4,109,235.3,109.5,234.2,110.3z"/>
		<path class="st3" d="M231.3,128.8c-1-0.9-2.1-1.4-2.4-2.2c-0.3-0.8,0-2.2,0.5-2.7c1.1-1.1,2.5-2.1,4-2.7c0.7-0.3,2.2,0,2.7,0.6
			c0.5,0.6,0.9,2.3,0.5,2.7C235.1,126.1,233.3,127.3,231.3,128.8z"/>
		<path class="st3" d="M208.7,150.9c0.7,1,1.7,1.9,1.9,3c0.3,1.6-2.9,4.6-4.4,4.1c-1-0.3-2.1-1.4-2.4-2.4
			C203.3,154.2,206.4,151.4,208.7,150.9z"/>
		<path class="st3" d="M122,118.1c-1-0.3-2.2-0.3-2.8-0.9c-0.6-0.6-1.1-1.9-0.8-2.7c0.6-2.2,2.6-2.1,4.2-1.7c1.1,0.2,2.4,1,3.1,1.9
			c0.3,0.4-0.4,1.9-1,2.5C124.1,117.9,123,117.9,122,118.1z"/>
		<path class="st3" d="M319.1,19.9c0.7,1,1.9,2.1,1.8,3c-0.1,0.9-1.5,2.2-2.5,2.4c-0.7,0.1-2.2-1.4-2.3-2.3c-0.1-1,1.1-2,1.7-3
			C318.3,19.9,318.7,19.9,319.1,19.9z"/>
		<path class="st3" d="M311.3,23.4c-1,0.7-2.1,2-2.9,1.9c-0.9-0.1-2.2-1.5-2.4-2.5c-0.1-0.7,1.4-2.2,2.3-2.3c1-0.1,2,1.1,3.1,1.7
			C311.3,22.6,311.3,23,311.3,23.4z"/>
		<path class="st3" d="M301,23.5c-1,0.6-2.1,1.9-3,1.8c-0.9-0.2-2.2-1.6-2.3-2.5c-0.1-0.7,1.5-2.2,2.3-2.2c1,0,2,1.1,3,1.8
			C301,22.7,301,23.1,301,23.5z"/>
		<path class="st0" d="M316,290.9c-11.2-11.7-21.9-22.8-32.6-33.9c-9.8-10.2-19.6-20.4-29.4-30.5c-1-1-2.4-1.9-3.8-2.3
			c-13.4-3.7-26.7-7.2-40.1-10.8c-3.7-1-5,0.3-4.1,4c3.1,12.6,6.2,25.2,9.5,37.8c0.3,1.2,1,2.4,1.8,3.3
			c15.8,16.8,31.7,33.6,47.6,50.4c1.4,1.4,2.8,2.6,4.6,0.8c1.5-1.5,0.6-2.9-0.7-4.2c-7.5-8-15.1-15.9-22.6-23.9
			c-8.1-8.5-16.1-17-24.2-25.6c-0.7-0.8-1.5-1.7-1.7-2.7c-2.9-11.2-5.7-22.4-8.6-34.1c11.5,3.1,22.6,6,34.2,9.1
			c-3.2,3.4-6.1,6.5-9.1,9.6c-1.2,1.2-2.4,2.5-3.6,3.7c-1.4,1.4-2.9,2.9-1,4.8c1.9,1.9,3.4,0.3,4.7-1.1c1.7-1.9,3.5-3.7,5.3-5.6
			c2.8-3,5.7-5.9,8.3-8.7c2.4,2.3,4.8,4.4,7,6.7c18.6,19.3,37.2,38.7,55.8,57.9c1.8,1.9,3,3.7,2.7,6.5c-0.2,1.9,0,3.8-0.1,5.6
			c-0.1,3.4-2.1,5.3-5.5,5.5c-0.5,0-1,0-1.5,0c-38.1,0-76.2,0-114.3,0c-5.5,0-7.1-1.6-7.1-7c0-34.8,0-69.5,0-104.3
			c0-5.2,1.6-6.9,6.9-6.9c38.2,0,76.4,0,114.6,0c5.3,0,6.9,1.6,6.9,6.9c0,28.6,0,57.2,0,85.8C316,288.5,316,289.4,316,290.9z
			 M291.6,289.7c-0.4-0.5-0.9-1.4-1.6-2.2c-10.5-10.6-21.1-21.2-31.6-31.8c-0.4-0.4-0.7-1-1.1-1c-1.1-0.1-2.6-0.4-3.2,0.2
			c-0.6,0.6-0.6,2.1-0.5,3.2c0,0.5,0.8,1,1.3,1.5c10.3,10.4,20.6,20.7,30.9,31.1c0.6,0.6,1.2,1.3,1.9,1.7
			C289.4,293.5,291.5,292.3,291.6,289.7z M283.2,297.2c-0.3-0.4-0.7-1.2-1.3-1.9c-6.7-6.8-13.5-13.6-20.2-20.4
			c-1.3-1.4-2.8-2.3-4.4-0.7c-1.6,1.6-0.5,3.1,0.8,4.4c6.7,6.7,13.4,13.4,20.1,20.2c0.4,0.4,0.8,0.9,1.4,1.2
			C281.3,301,283.2,299.8,283.2,297.2z M226.2,253.5c0.4,0,0.8,0,1.2,0c0.6-1,1.8-2,1.7-3c-0.1-0.9-1.3-2.2-2.3-2.4
			c-1.5-0.4-2.7,0.8-2.5,2.4C224.5,251.5,225.6,252.5,226.2,253.5z"/>
		<path class="st1" d="M133.6,284.9c0.1,2.8-2.2,5.1-5,5.2c-2.7,0.1-5.1-2.2-5.3-4.9c-0.1-2.8,2.2-5.3,5.1-5.3
			C131.2,279.8,133.5,282.1,133.6,284.9z"/>
		<path class="st1" d="M107.9,115.4c0,2.8-2.3,5.1-5,5.1c-2.8,0-5.1-2.2-5.2-5c-0.1-2.8,2.3-5.3,5.2-5.2
			C105.6,110.3,107.9,112.6,107.9,115.4z"/>
		<path class="st1" d="M77,290.1c-2.8,0-5.1-2.3-5.1-5.1c0-2.9,2.4-5.2,5.3-5.2c2.8,0.1,5,2.4,5,5.2C82.1,287.8,79.8,290.1,77,290.1
			z"/>
		<path class="st1" d="M269.9,107.7c2.8,0.1,5,2.4,5,5.2c0,2.9-2.5,5.2-5.4,5.1c-2.7-0.1-5-2.6-4.9-5.3
			C264.7,109.9,267.1,107.6,269.9,107.7z"/>
		<path class="st1" d="M295.5,117.9c-2.8,0-5.1-2.3-5.1-5c0-2.9,2.4-5.3,5.2-5.2c2.8,0.1,5,2.4,5,5.2
			C300.5,115.6,298.2,117.9,295.5,117.9z"/>
		<path class="st1" d="M102.7,290.1c-2.7,0-5.1-2.3-5.1-5c0-2.9,2.4-5.3,5.2-5.2c2.8,0.1,5,2.4,5,5.2
			C107.8,287.8,105.5,290.1,102.7,290.1z"/>
		<path class="st3" d="M291.6,289.7c-0.1,2.6-2.2,3.7-3.9,2.7c-0.7-0.4-1.3-1.1-1.9-1.7c-10.3-10.4-20.6-20.7-30.9-31.1
			c-0.5-0.5-1.3-1-1.3-1.5c-0.1-1.1-0.1-2.6,0.5-3.2c0.6-0.6,2.1-0.3,3.2-0.2c0.4,0,0.8,0.6,1.1,1c10.6,10.6,21.1,21.2,31.6,31.8
			C290.7,288.3,291.2,289.2,291.6,289.7z"/>
		<path class="st3" d="M283.2,297.2c0.1,2.5-1.9,3.8-3.7,2.8c-0.5-0.3-0.9-0.7-1.4-1.2c-6.7-6.7-13.4-13.4-20.1-20.2
			c-1.3-1.3-2.4-2.7-0.8-4.4c1.6-1.6,3.1-0.7,4.4,0.7c6.7,6.8,13.5,13.6,20.2,20.4C282.5,296,282.9,296.8,283.2,297.2z"/>
		<path class="st3" d="M226.2,253.5c-0.6-1-1.7-2-1.8-3c-0.2-1.5,1-2.7,2.5-2.4c0.9,0.2,2.2,1.5,2.3,2.4c0.1,1-1.1,2-1.7,3
			C227,253.5,226.6,253.5,226.2,253.5z"/>
	</g>
</g>
</svg>
