<?xml version="1.0" encoding="utf-8"?>
<!-- Generator: Adobe Illustrator 24.3.0, SVG Export Plug-In . SVG Version: 6.00 Build 0)  -->
<svg version="1.1" id="Layer_1" xmlns="http://www.w3.org/2000/svg" xmlns:xlink="http://www.w3.org/1999/xlink" x="0px" y="0px"
	 viewBox="0 0 354.5 348.9" style="enable-background:new 0 0 354.5 348.9;" xml:space="preserve">
<style type="text/css">
	.st0{fill:#00B0FB;}
	.st1{opacity:0.4;fill:#00B0FB;}
	.st2{fill:#FFFFFF;}
	.st3{fill:#FEFEFE;}
</style>
<g>
	<g>
		<path class="st0" d="M283.2,283.1H71.4v-6.5h-8.8c0,2.9,0,5.8,0,8.7c0,5.3,1.1,6.4,6.4,6.4c72.1,0,144.2,0.1,216.3,0.1
			c5.7,0,6.7-1,6.7-6.8c0-2.8,0-5.6,0-8.3h-8.8V283.1z"/>
	</g>
	<g>
		<path class="st2" d="M329,316.8c-1-5.9-6.1-9.5-12-9.7c-1.6,0-3.1,0-5.1,0v-5.1c0-52,0-103.9,0-155.9c0-12.5-7.7-22.7-20-23.8
			c-12.2-1.1-38.2-0.5-51.3-0.3c-6-9-14-16.2-24.9-21c-1.1-0.5-2.1-2.3-2.2-3.6c-2.1-17.4-5.4-34.6-11.6-51
			C197,33.9,191.2,22,181.6,12.4c-3.4-3.5-5.2-3.4-8.6,0c-6.3,6.1-10.8,13.5-14.7,21.3c-9.9,20-14.5,41.5-17,63.5
			c-0.2,2-0.5,3.4-2.6,4.3c-10.5,4.5-18.4,11.5-24.5,20.6c-0.2,0-0.5,0-0.7,0c-10.5,0-34.6,0-45.1,0c-15.9,0-25.6,9.7-25.6,25.5
			c0,51.7,0,103.5,0,155.2v4.6c-2.2,0-3.7,0-5.3,0c-5.8,0.2-10.5,3.8-11.9,9.5c-0.5,2.2-0.5,4.5-0.5,6.8
			c-0.1,10.9,4.6,15.6,15.5,15.6c91.1,0,182.3,0,273.4,0c1,0,2.1,0,3.1,0c5.9-0.2,11-3.9,12-9.8C329.7,325.3,329.7,320.9,329,316.8z
			 M104,185.3c7.3,0,14.6,0.1,21.9-0.1c1.7,0,3.6-0.8,4.9-1.9c4.1-3.3,7.8-7,11.9-10.3c1.5-1.2,3.6-2,5.4-2.1
			c9.8-0.2,19.6-0.1,29.4-0.1v0c9.8,0,19.6-0.1,29.4,0.1c1.7,0,3.7,0.9,5.1,2c4.1,3.3,7.8,7,11.8,10.3c1.2,1,2.9,2,4.5,2
			c7.5,0.2,15,0.1,22.5,0.1c3.1,0,4.5-1.7,4.5-4.7c0.1-10.5-0.8-20.9-3.2-31c3.4,0,9.3,0,10.2,0h21.1v138H71.4v-138
			c7.2,0,22.7,0,31.2,0c-2.4,10.2-3.2,20.7-3.1,31.4C99.5,184,101.1,185.3,104,185.3z M215.3,110.4c6.2,2.9,11.1,7.3,15.3,12.6
			c8.2,10.3,12.3,22.4,14.3,35.3c0.9,6,1.3,12.1,2,18.8c-6.2,0-12,0.8-17.4-0.3c-3.1-0.6-5.6-4.3-8.3-6.6c7.1-8.8,4.6-22.6-6-23.3
			V110.4z M176.3,20c0.6,0,1.2,0,1.8-0.1c4,6.3,8,12.7,12,19c-7.3,4.6-17.6,4.7-25.8,0.1C168.4,32.7,172.3,26.4,176.3,20z
			 M156.6,61.4c1.2-4.2,2.8-8.4,4.2-12.6c0.1-0.4,0.4-0.7,0.8-1.4c10.5,4.4,21,4.4,31.7-0.1c12.1,32.4,14.1,65.7,13.8,99.6
			c-1.5,0.1-2.5,0.2-3.5,0.2c-17.5,0-35.1,0-52.6,0.1c-2.2,0-3.6-0.3-3.6-3.1C147.3,116.2,148.8,88.5,156.6,61.4z M141.5,155.4
			c11.8-0.1,23.7-0.1,35.5-0.1v0c12,0,23.9,0.1,35.9,0c2.8,0,4.1,0.6,4.1,3.8c0,3.3-1.5,3.7-4.2,3.7c-23.7,0-47.4,0-71.1,0
			c-3.9,0-5.6-2.4-3.9-5.9C138.2,156,140.2,155.4,141.5,155.4z M123.8,123c4.1-5.3,9.1-9.7,16.1-13c-0.3,5.9-0.6,10.9-0.8,16
			c-0.1,5.9-0.1,11.8-0.1,17.7c0,2-0.1,3.2-2.7,3.7c-4.4,0.9-6.8,4.4-7,8.9c-0.3,7.9-0.3,7.9,3.7,13.4c-4.1,4.2-7.9,8.7-14.8,7.5
			c-2.6-0.5-5.5,0.1-8.2-0.2c-0.8-0.1-2.3-1.3-2.3-1.9C108.5,156.4,111.9,138.4,123.8,123z M67.8,130.4c9.5,0,29.7,0,41.6,0
			c-1.7,3.6-3.2,7.2-4.4,10.9c-8.6,0-27.4,0-36,0c-5.1,0-6.4,1.3-6.4,6.5c0,47.4,0,94.8,0,142.2c0,5.3,1.1,6.4,6.4,6.4
			c72.1,0,144.2,0.1,216.3,0.1c5.7,0,6.7-1,6.7-6.8c0-34.5,0-69,0-103.6c0-13,0-26,0-39c0-4.3-1.5-5.8-5.7-5.8c-4.4,0-8.9,0-13.3,0
			c-4.7,0-18.4,0-23.1,0c-0.1,0-0.2,0-0.3,0c0-0.1,0-0.1-0.1-0.2c-1.2-3.7-2.7-7.2-4.3-10.6c11.1,0,32.4,0,41.4,0
			c10.8,0.1,16.7,5.9,16.7,16.7c0,52.1,0,104.1,0,156.2c0,1.2-0.1,2.4-0.2,3.9h-4.4c-24.3,0-48.5,0.4-72.8-0.2
			c-9.8-0.3-17.5,1.6-23.4,9.7c-1,1.3-3.5,2.1-5.3,2.1c-10,0.2-20.1-0.5-30.1,0.3c-9.3,0.7-16.6-1.4-22.1-9.1
			c-1.6-2.2-3.9-2.8-6.6-2.8c-27.6,0.1-55.1,0.1-82.7,0.1h-4.6v-3.9c0-52.1,0-104.1,0-156.2C51.2,136.2,57,130.4,67.8,130.4z
			 M321,324.6c0,0.6,0,1.1,0,1.7c-0.2,2.5-1.5,4-4.1,4.2c-1.2,0.1-2.5,0.1-3.8,0.1h-136v0c-45.6,0-91.1,0-136.7,0
			c-6.3,0-7-0.7-7-7.1c0-1.3,0-2.5,0-3.8c0.2-2.4,1.5-3.7,3.9-4c1-0.1,2.1-0.1,3.1-0.1c31.7,0,63.3,0,95,0c2.5,0,4.5,0.5,5.9,2.6
			c5.5,7.8,12.9,10.1,22.4,9.4c12-0.8,24.1-0.1,36.2-0.3c2.2-0.1,5.2-1.1,6.5-2.7c5.7-7.6,12.9-9.3,22.2-9.1
			c27.9,0.6,55.8,0.2,83.7,0.2C320.9,315.7,321.1,315.9,321,324.6z"/>
		<path class="st2" d="M210.1,240.8c-1.3-0.9-2.8-1.8-4.1-2.8c-7-5.4-10.7-12.5-10.8-21.4c0-2.8,0.7-5,3.9-5.3
			c2.8-0.3,4.6,1.5,4.4,5.2c-0.3,7.6,5.6,16,14.1,17.8c7.3,1.5,13.4-0.5,18.1-6.1c4.7-5.6,5.6-12.1,2.7-18.9
			c-2.9-6.7-8.4-10.3-15.7-10.9c-2-0.2-4.1,0-6.1-0.1c-2.5-0.1-4.1-1.3-4.3-3.9c-0.2-2.6,1.3-4.2,3.8-4.4c10.7-0.9,20.3,1.5,27,10.6
			c6.4,8.7,7.4,18.3,2.5,28c-4.9,9.8-13.4,14.6-24.3,14.7c-2.1,0-2.9,0.7-3.7,2.5c-12.1,29.6-50,35.2-70.2,10.3
			c-1.3-1.6-2.5-2-4.6-1.9c-17.5,1.3-32.4-10.6-34.9-27.6c-2.4-16.3,8.3-31.8,24.8-35.8c2.1-0.5,4.3-0.7,6.4-0.9
			c3.2-0.2,5.2,1.4,5.3,4c0.1,2.7-1.6,4.2-4.9,4.4c-13,0.7-22.3,9.6-23.5,22.6c-1.2,13.5,11.5,26.2,25.1,24.6
			c-0.5-1.9-0.9-3.9-1.4-5.8c-1.6-6.6-1.3-13.1,0.4-19.6c0.7-2.7,2.1-4.7,5.2-4.1c2.7,0.5,3.7,2.8,2.9,6.2
			c-4.8,20.5,7.8,38.4,28.7,41C190.8,265,206.6,254.4,210.1,240.8z"/>
		<path class="st1" d="M321,324.6c0,0.6,0,1.1,0,1.7c-0.2,2.5-1.5,4-4.1,4.2c-1.2,0.1-2.5,0.1-3.8,0.1h-136v0
			c-45.6,0-91.1,0-136.7,0c-6.3,0-7-0.7-7-7.1c0-1.3,0-2.5,0-3.8c0.2-2.4,1.5-3.7,3.9-4c1-0.1,2.1-0.1,3.1-0.1c31.7,0,63.3,0,95,0
			c2.5,0,4.5,0.5,5.9,2.6c5.5,7.8,12.9,10.1,22.4,9.4c12-0.8,24.1-0.1,36.2-0.3c2.2-0.1,5.2-1.1,6.5-2.7c5.7-7.6,12.9-9.3,22.2-9.1
			c27.9,0.6,55.8,0.2,83.7,0.2C320.9,315.7,321.1,315.9,321,324.6z"/>
		<path class="st0" d="M193.3,47.3c-10.8,4.5-21.3,4.5-31.7,0.1c-0.4,0.6-0.7,1-0.8,1.4c-1.4,4.2-2.9,8.4-4.2,12.6
			c-7.7,27.1-9.3,54.8-9.2,82.7c0,2.8,1.4,3.1,3.6,3.1c17.5-0.1,35,0,52.6-0.1c1,0,2-0.1,3.5-0.2C207.4,113.1,205.4,79.7,193.3,47.3
			z M177.1,98.5c-8.9,0-15.7-6.9-15.7-15.9c0-8.8,7.1-15.9,15.8-15.9c8.8,0,15.9,7.2,15.8,16.2C192.9,91.8,186.1,98.5,177.1,98.5z"
			/>
		<path class="st0" d="M139.2,126c-0.1,5.9-0.1,11.8-0.1,17.7c0,2-0.1,3.2-2.7,3.7c-4.4,0.9-6.8,4.4-7,8.9
			c-0.3,7.9-0.3,7.9,3.7,13.4c-4.1,4.2-7.9,8.7-14.8,7.5c-2.6-0.5-5.5,0.1-8.2-0.2c-0.8-0.1-2.3-1.3-2.3-1.9
			c0.6-18.8,4-36.8,15.9-52.2c4.1-5.3,9.1-9.7,16.1-13C139.7,115.9,139.3,121,139.2,126z"/>
		<path class="st0" d="M247,177c-6.2,0-12,0.8-17.4-0.3c-3.1-0.6-5.6-4.3-8.3-6.6c7.1-8.8,4.6-22.6-6-23.3v-36.4
			c6.2,2.9,11.1,7.3,15.3,12.6c8.2,10.3,12.3,22.4,14.3,35.3C245.9,164.3,246.3,170.4,247,177z"/>
		<path class="st0" d="M190.1,39c-7.3,4.6-17.6,4.7-25.8,0.1c4-6.4,8-12.7,12-19c0.6,0,1.2,0,1.8-0.1
			C182.1,26.3,186.1,32.6,190.1,39z"/>
		<path class="st2" d="M177.1,98.5c-8.9,0-15.7-6.9-15.7-15.9c0-8.8,7.1-15.9,15.8-15.9c8.8,0,15.9,7.2,15.8,16.2
			C192.9,91.8,186.1,98.5,177.1,98.5z M184.9,82.7c0-4.1-3.4-7.6-7.6-7.6c-4.2,0-7.7,3.3-7.7,7.5c-0.1,4,3.5,7.7,7.6,7.7
			C181.2,90.4,184.8,86.8,184.9,82.7z"/>
	</g>
</g>
</svg>
