<svg width="100" height="100" viewBox="0 0 100 100" fill="none" xmlns="http://www.w3.org/2000/svg">
<path d="M30.689 15.8611C36.5464 12.5404 43.2239 10.7856 49.9994 10.7856C56.7749 10.7856 63.4523 12.5404 69.3097 15.8611" stroke="#00B0FB" stroke-width="2" stroke-linecap="round"/>
<path d="M66.0933 85.77C61.023 88.055 55.6082 89.2145 49.9994 89.2145C44.3906 89.2145 38.9756 88.0562 33.9053 85.7712" stroke="#00B0FB" stroke-width="2" stroke-linecap="round"/>
<path d="M87.3679 38.0762C88.5924 41.9168 89.2124 45.9276 89.2124 49.9994C89.2124 54.2598 88.5333 58.4493 87.1943 62.4508" stroke="#00B0FB" stroke-width="2" stroke-linecap="round"/>
<path d="M12.6302 38.0762C11.4057 41.9168 10.7847 45.9287 10.7847 49.9994C10.7847 54.2598 11.4635 58.4493 12.8025 62.4508" stroke="#00B0FB" stroke-width="2" stroke-linecap="round"/>
<path d="M15.3295 15.31C12.6566 15.31 10.481 13.1694 10.481 10.5378C10.481 7.90625 12.6565 5.76465 15.3304 5.76465C18.0043 5.76465 20.179 7.90625 20.179 10.5378C20.179 13.1694 18.0023 15.31 15.3295 15.31Z" fill="#00B0FB" fill-opacity="0.5"/>
<path d="M24.8961 28.9022H5.76514V24.8668C5.76514 21.0809 8.6576 17.8922 12.3951 17.4919C13.2987 17.8664 14.2888 18.0748 15.3297 18.0748C16.3706 18.0748 17.3621 17.8674 18.2658 17.4919C22.0043 17.8912 24.8957 21.0808 24.8957 24.8668L24.8961 28.9022Z" fill="#00B0FB" fill-opacity="0.5"/>
<path d="M84.6683 15.31C81.9955 15.31 79.8198 13.1695 79.8198 10.5379C79.8198 7.90627 81.9955 5.76459 84.6683 5.76562C87.3412 5.76562 89.5168 7.90627 89.5168 10.5379C89.5168 13.1695 87.3422 15.31 84.6683 15.31Z" fill="#00B0FB"/>
<path d="M87.6042 17.4907C91.3416 17.89 94.2342 21.0796 94.2342 24.8656L94.2344 28.9013L75.1045 28.9012V24.8656C75.1045 21.0796 77.997 17.891 81.7344 17.4907C82.6381 17.8652 83.6297 18.0736 84.6695 18.0736C85.7094 18.0736 86.7005 17.8662 87.6042 17.4907Z" fill="#00B0FB"/>
<path d="M15.3295 80.6418C12.6566 80.6418 10.481 78.5013 10.481 75.8697C10.481 73.2381 12.6556 71.0977 15.3295 71.0977C18.0034 71.0977 20.179 73.2381 20.179 75.8697C20.179 78.5013 18.0023 80.6418 15.3295 80.6418Z" fill="#00B0FB"/>
<path d="M18.2657 82.8237C22.0042 83.224 24.8958 86.4127 24.8958 90.1986L24.8947 90.1986L24.8946 94.2343L5.76367 94.2342V90.1986C5.76367 86.4127 8.65661 83.224 12.3941 82.8237C13.2988 83.1992 14.2898 83.4076 15.3297 83.4076C16.3695 83.4076 17.3621 83.1992 18.2657 82.8237Z" fill="#00B0FB"/>
<path d="M84.6683 80.6418C81.9955 80.6418 79.8198 78.5013 79.8198 75.8697C79.8198 73.2381 81.9955 71.0966 84.6683 71.0977C87.3412 71.0977 89.5168 73.2381 89.5168 75.8697C89.5168 78.5013 87.3422 80.6418 84.6683 80.6418Z" fill="#00B0FB" fill-opacity="0.5"/>
<path d="M87.6041 82.8237C91.3426 83.224 94.2342 86.4127 94.2342 90.1986L94.234 94.2343L75.1021 94.2342V90.1986C75.1021 86.4127 77.995 83.224 81.7325 82.8237C82.6372 83.1992 83.6282 83.4076 84.6681 83.4076C85.7079 83.4076 86.7004 83.1992 87.6041 82.8237Z" fill="#00B0FB" fill-opacity="0.5"/>
<path d="M63.066 63.0191L64.2554 64.2621C64.8413 64.8739 64.8505 65.8023 64.2759 66.379C63.6993 66.9556 62.7606 66.9558 62.184 66.3791L56.2212 60.2825C55.6879 59.7357 54.8132 59.7254 54.2665 60.2587C53.7197 60.792 53.7091 61.6667 54.2425 62.2135L59.6833 67.7882L59.6896 67.7944C59.6916 67.7965 59.6928 67.7986 59.6948 67.8006C60.2715 68.3773 60.2713 69.3159 59.6947 69.8926C59.118 70.4693 58.1793 70.4693 57.6026 69.8926L51.3861 63.5422C50.8528 62.9955 49.9781 62.9851 49.4313 63.5185C48.8846 64.0518 48.874 64.9267 49.4073 65.4734L54.8482 71.0482C54.8503 71.0503 54.8524 71.0511 54.8544 71.0532L54.8607 71.0594C55.1382 71.3369 55.2908 71.7084 55.2908 72.1055C55.2908 72.5027 55.138 72.8741 54.8605 73.1516C54.2839 73.7283 53.3454 73.7281 52.7687 73.1514L46.0189 66.2677C45.4855 65.7209 44.6108 65.7106 44.0641 66.2439C43.5173 66.7772 43.5068 67.6522 44.0401 68.1989L49.481 73.7736C49.483 73.7757 49.4851 73.7766 49.4872 73.7787L49.4934 73.7849C49.8586 74.149 49.8583 74.7661 49.4931 75.1312C49.3126 75.3118 49.0701 75.4107 48.8102 75.4107L48.8043 75.4107C48.6599 75.4097 48.3843 75.3736 48.1584 75.1425L38.3913 65.1341C38.2845 65.0243 38.168 64.9033 38.0434 64.7738L38.0238 64.7534C36.5764 63.2462 34.0232 60.5909 30.5488 59.1786L35.5087 44.856C37.444 45.4636 39.2545 45.7616 41.1815 45.7616C41.624 45.7616 42.0742 45.7451 42.5322 45.7142L41.2681 46.9025C40.1292 47.9733 39.5268 49.366 39.5268 50.9299V60.4578C39.5268 61.2212 40.1461 61.84 40.9094 61.84C45.2102 61.84 49.6574 59.0929 49.6574 54.4961C49.6574 53.3521 50.5011 52.4526 51.2758 51.7861L61.3276 61.8319C61.8444 62.3488 62.4346 62.7457 63.066 63.0191Z" fill="#00B0FB" fill-opacity="0.5"/>
<path d="M64.4007 44.597L69.3895 59.0032C69.212 59.0919 69.0324 59.1806 68.8591 59.2682C68.0287 59.686 67.1705 60.1173 66.2802 60.4804C65.2156 60.9147 64.0954 60.6887 63.2825 59.8758L52.3403 48.9408C51.8225 48.423 50.9897 48.3994 50.4429 48.8864C50.3501 48.9689 50.2162 49.0771 50.0615 49.2019L50.0606 49.2026C48.9524 50.0972 46.8914 51.761 46.8914 54.495C46.8914 56.8718 44.6983 58.4873 42.2905 58.9433V50.9287C42.2905 50.1241 42.5752 49.4661 43.1612 48.9152L48.1808 44.1957C50.0222 42.4647 52.3751 41.892 54.8055 42.5842C55.4616 42.7719 56.1147 42.9783 56.7471 43.1785C59.0568 43.9099 61.439 44.661 64.4007 44.597Z" fill="#00B0FB"/>
<mask id="path-15-outside-1_253_6630" maskUnits="userSpaceOnUse" x="2" y="2" width="96" height="96" fill="black">
<rect fill="white" x="2" y="2" width="96" height="96"/>
<path d="M12.6299 38.0763C11.4054 41.9169 10.7844 45.9288 10.7844 49.9995C10.7844 54.26 11.4632 58.4493 12.8022 62.4508C13.0446 63.175 12.6537 63.958 11.9295 64.2004C11.784 64.2489 11.6365 64.2726 11.4911 64.2726C10.9123 64.2726 10.3738 63.9075 10.1799 63.3287C8.74702 59.0435 8.01974 54.5591 8.01974 49.9995C8.01974 45.6431 8.68409 41.3496 9.99525 37.2366C10.2274 36.5093 11.0041 36.108 11.7325 36.3391C12.4597 36.5712 12.8621 37.349 12.6299 38.0763ZM30.0082 16.0414C30.2393 16.0414 30.4734 15.9837 30.6891 15.8609C36.5465 12.5402 43.224 10.7855 49.9995 10.7855C56.775 10.7855 63.4525 12.5402 69.3099 15.8609C69.9743 16.2374 70.8181 16.0043 71.1946 15.3399C71.5712 14.6756 71.338 13.8318 70.6737 13.4552C64.4006 9.89931 57.2516 8.01974 49.9995 8.01974C42.7474 8.01974 35.5984 9.89931 29.3253 13.4552C28.6609 13.8318 28.4278 14.6756 28.8043 15.3399C29.0591 15.7887 29.5275 16.0414 30.0082 16.0414ZM66.0934 85.7701C61.0231 88.055 55.6083 89.2146 49.9995 89.2146C44.3907 89.2146 38.9759 88.0561 33.9056 85.7711C33.2092 85.4575 32.3912 85.768 32.0776 86.4633C31.764 87.1596 32.0735 87.9777 32.7698 88.2913C38.2001 90.7382 43.9966 91.9792 49.9995 91.9792C56.0023 91.9792 61.7989 90.7382 67.2292 88.2913C67.9255 87.9777 68.235 87.1596 67.9214 86.4633C67.6078 85.767 66.7897 85.4565 66.0934 85.7701ZM88.0685 64.2004C88.2139 64.2489 88.3614 64.2726 88.5069 64.2726C89.0846 64.2726 89.6241 63.9075 89.818 63.3287C91.252 59.0435 91.9782 54.5591 91.9782 49.9995C91.9782 45.6431 91.3139 41.3496 90.0027 37.2366C89.7706 36.5093 88.9928 36.107 88.2655 36.3391C87.5382 36.5712 87.1359 37.349 87.368 38.0763C88.5925 41.9169 89.2125 45.9278 89.2125 49.9995C89.2125 54.26 88.5337 58.4493 87.1947 62.4508C86.9543 63.175 87.3443 63.958 88.0685 64.2004ZM3 29.5997V24.8657C3 20.5897 5.68834 16.8677 9.50008 15.3771C8.38802 14.067 7.71645 12.3782 7.71645 10.5368C7.71645 6.38054 11.1321 3 15.3296 3C19.5272 3 22.9438 6.38157 22.9438 10.5368C22.9438 12.3782 22.2723 14.067 21.1602 15.3771C24.9709 16.8677 27.6593 20.5897 27.6593 24.8657V29.5997C27.6593 30.7396 26.7319 31.667 25.5919 31.667H5.06732C3.9274 31.667 3 30.7396 3 29.5997ZM10.4811 10.5379C10.4811 13.1695 12.6568 15.31 15.3296 15.31C18.0025 15.31 20.1792 13.1695 20.1792 10.5379C20.1792 7.90627 18.0046 5.76468 15.3307 5.76468C12.6568 5.76468 10.4811 7.90627 10.4811 10.5379ZM5.76468 28.9023H24.8956V24.8667C24.8956 21.0808 22.0041 17.8911 18.2655 17.4919C17.3619 17.8674 16.3705 18.0747 15.3296 18.0747C14.2887 18.0747 13.2984 17.8663 12.3947 17.4919C8.65727 17.8921 5.76468 21.0808 5.76468 24.8667V28.9023ZM96.999 24.8657V29.5997C96.999 30.7396 96.0716 31.667 94.9317 31.667H74.405C73.2651 31.667 72.3377 30.7396 72.3377 29.5997V24.8657C72.3377 20.5897 75.026 16.8677 78.8377 15.3771C77.7257 14.067 77.0541 12.3782 77.0541 10.5368C77.0541 6.38054 80.4697 3 84.6673 3C88.8659 3 92.2805 6.38157 92.2805 10.5368C92.2805 12.3782 91.6089 14.0659 90.4968 15.3771C94.3106 16.8677 96.999 20.5897 96.999 24.8657ZM79.8198 10.5379C79.8198 13.1695 81.9955 15.31 84.6683 15.31C87.3422 15.31 89.5168 13.1695 89.5168 10.5379C89.5168 7.90627 87.3412 5.76571 84.6683 5.76571C81.9955 5.76468 79.8198 7.90627 79.8198 10.5379ZM94.2343 24.8657C94.2343 21.0797 91.3417 17.89 87.6042 17.4908C86.7006 17.8663 85.7092 18.0737 84.6693 18.0737C83.6295 18.0737 82.6381 17.8653 81.7345 17.4908C77.997 17.8911 75.1044 21.0797 75.1044 24.8657V28.9013H94.2343V24.8657ZM27.6603 90.1987V94.9327C27.6603 96.0726 26.7329 97 25.593 97H5.06732C3.9274 97 3 96.0726 3 94.9327V90.1987C3 85.9227 5.68834 82.2007 9.50008 80.7101C8.38802 79.4 7.71645 77.7112 7.71645 75.8698C7.71645 71.7135 11.1321 68.333 15.3296 68.333C19.5272 68.333 22.9438 71.7146 22.9438 75.8698C22.9438 77.7112 22.2723 79.3989 21.1602 80.7101C24.972 82.2007 27.6603 85.9217 27.6603 90.1987ZM10.4811 75.8698C10.4811 78.5014 12.6568 80.642 15.3296 80.642C18.0025 80.642 20.1792 78.5014 20.1792 75.8698C20.1792 73.2382 18.0035 71.0977 15.3296 71.0977C12.6557 71.0977 10.4811 73.2382 10.4811 75.8698ZM24.8956 90.1987C24.8956 86.4127 22.0041 83.2241 18.2655 82.8238C17.3619 83.1993 16.3695 83.4077 15.3296 83.4077C14.2898 83.4077 13.2984 83.1993 12.3937 82.8238C8.65624 83.2241 5.76364 86.4127 5.76364 90.1987V94.2343H24.8946V90.1987H24.8956ZM96.999 90.1987V94.9327C96.999 96.0726 96.0716 97 94.9317 97H74.405C73.2651 97 72.3377 96.0726 72.3377 94.9327V90.1987C72.3377 85.9227 75.026 82.2007 78.8377 80.7101C77.7257 79.4 77.0541 77.7112 77.0541 75.8698C77.0541 71.7135 80.4697 68.333 84.6673 68.333C88.8659 68.333 92.2805 71.7146 92.2805 75.8698C92.2805 77.7112 91.6089 79.3989 90.4968 80.7101C94.3106 82.2007 96.999 85.9217 96.999 90.1987ZM79.8198 75.8698C79.8198 78.5014 81.9955 80.642 84.6683 80.642C87.3422 80.642 89.5168 78.5014 89.5168 75.8698C89.5168 73.2382 87.3412 71.0977 84.6683 71.0977C81.9955 71.0967 79.8198 73.2382 79.8198 75.8698ZM94.2343 90.1987C94.2343 86.4127 91.3427 83.2241 87.6042 82.8238C86.7006 83.1993 85.7082 83.4077 84.6683 83.4077C83.6285 83.4077 82.6371 83.1993 81.7324 82.8238C77.9949 83.2241 75.1023 86.4127 75.1023 90.1987V94.2343H94.2343V90.1987ZM72.5821 63.3731C71.5619 63.3731 70.6881 62.75 70.3539 61.7865L70.3023 61.6369C70.2353 61.671 70.1682 61.704 70.1001 61.739C69.2233 62.1795 68.3155 62.6355 67.3251 63.0399C67.1797 63.0997 67.0332 63.1513 66.8857 63.1977C67.842 64.8441 67.6253 66.9383 66.2327 68.332C65.3042 69.2604 64.0478 69.6679 62.8325 69.5544C62.6912 70.3941 62.2971 71.1988 61.6514 71.8446C60.6476 72.8483 59.2601 73.2434 57.9562 73.0288C57.7839 73.8097 57.394 74.5267 56.8163 75.1044C56.0168 75.9039 54.9512 76.3444 53.8154 76.3444C53.248 76.3444 52.6981 76.235 52.1896 76.0246C52.0111 76.4083 51.7635 76.7684 51.4478 77.0851C50.7443 77.7886 49.8086 78.1744 48.8111 78.1744C48.8028 78.1744 48.7956 78.1744 48.7874 78.1744C47.7929 78.1682 46.8665 77.7773 46.1795 77.0727L36.4123 67.0641C36.2947 66.9445 36.1679 66.8114 36.0296 66.668C34.7546 65.3403 32.515 63.01 29.642 61.7948C29.3057 62.7531 28.434 63.3731 27.4168 63.3731H20.5495C19.3838 63.3731 18.4358 62.4251 18.4358 61.2594V39.0718C18.4358 38.0454 19.1692 37.1706 20.1792 36.9911C25.2742 36.0833 30.4322 36.6568 35.5128 38.6942C36.5619 39.1151 37.0932 40.2808 36.7239 41.3485L36.4144 42.2419C39.5412 43.2085 42.2532 43.2322 46.0774 42.3812L46.2868 42.1841C48.8276 39.7949 52.2081 38.9728 55.5629 39.928C56.2582 40.1261 56.9308 40.3386 57.5817 40.5449C59.4933 41.1505 61.3243 41.7261 63.4401 41.8231L63.2761 41.3485C62.9068 40.2808 63.4381 39.1151 64.4872 38.6942C69.5668 36.6568 74.7258 36.0843 79.8208 36.9911C80.8308 37.1706 81.5642 38.0464 81.5642 39.0718V61.2594C81.5642 62.4251 80.6162 63.3731 79.4505 63.3731H72.5821ZM66.0924 41.0339L72.871 60.6084H78.7975V39.6227C74.5865 38.9697 70.3178 39.4432 66.0924 41.0339ZM33.9066 41.0339C29.6822 39.4432 25.4135 38.9686 21.2015 39.6216V60.6074H27.128L33.9066 41.0339ZM64.2551 64.2623L63.0657 63.0193C62.4343 62.7459 61.8443 62.3487 61.3274 61.8319L51.2756 51.7862C50.5008 52.4526 49.657 53.3522 49.657 54.4962C49.657 59.093 45.2098 61.8401 40.9091 61.8401C40.1457 61.8401 39.5267 61.2212 39.5267 60.4578V50.93C39.5267 49.3661 40.1292 47.9734 41.2681 46.9026L42.5318 45.7142C42.0737 45.7452 41.624 45.7617 41.1814 45.7617C39.2544 45.7617 37.4439 45.4636 35.5087 44.856L30.5488 59.1786C34.0232 60.5909 36.5764 63.2462 38.0237 64.7534C38.1557 64.8906 38.2785 65.0185 38.3909 65.134L48.1581 75.1426C48.384 75.3736 48.6594 75.4097 48.8039 75.4108C48.8059 75.4108 48.808 75.4108 48.8101 75.4108C49.07 75.4108 49.3124 75.3117 49.493 75.1312C49.8582 74.766 49.8582 74.1491 49.493 73.785C49.4909 73.7829 49.4888 73.7809 49.4868 73.7788C49.4847 73.7767 49.4827 73.7757 49.4806 73.7736L44.04 68.1989C43.5066 67.6522 43.5169 66.7774 44.0637 66.244C44.6104 65.7107 45.4852 65.721 46.0186 66.2677L52.7683 73.1516C53.345 73.7282 54.2837 73.7282 54.8604 73.1516C55.1379 72.8741 55.2905 72.5027 55.2905 72.1055C55.2905 71.7084 55.1379 71.337 54.8604 71.0595C54.8583 71.0574 54.8562 71.0554 54.8542 71.0533C54.8521 71.0513 54.8501 71.0502 54.848 71.0482L49.4074 65.4734C48.874 64.9267 48.8843 64.0519 49.4311 63.5185C49.9778 62.9852 50.8526 62.9955 51.386 63.5423L57.6023 69.8928C58.179 70.4694 59.1178 70.4694 59.6944 69.8928C60.2711 69.3161 60.2711 68.3774 59.6944 67.8007C59.6924 67.7986 59.6913 67.7966 59.6893 67.7945C59.6872 67.7925 59.6851 67.7904 59.6831 67.7883L54.2424 62.2136C53.7091 61.6668 53.7194 60.792 54.2662 60.2587C54.8129 59.7254 55.6877 59.7357 56.221 60.2824L62.1837 66.3792C62.7603 66.9558 63.6991 66.9558 64.2757 66.3792C64.8503 65.8025 64.8411 64.8741 64.2551 64.2623ZM69.3893 59.0033L64.4006 44.597C61.4389 44.661 59.0569 43.91 56.7472 43.1786C56.1148 42.9785 55.4618 42.7721 54.8057 42.5844C52.3753 41.8922 50.0222 42.4647 48.1808 44.1957L43.161 48.9153C42.5751 49.4662 42.2904 50.1243 42.2904 50.929V58.9434C44.6981 58.4875 46.8913 56.872 46.8913 54.4952C46.8913 51.7604 48.9535 50.0965 50.0614 49.2021C50.2161 49.0772 50.3502 48.9689 50.4431 48.8864C50.9898 48.3995 51.8223 48.4232 52.3402 48.9411L63.2823 59.876C64.0952 60.6889 65.2155 60.9148 66.2801 60.4805C67.1704 60.1174 68.0287 59.6862 68.8591 59.2684C69.0324 59.1807 69.2119 59.092 69.3893 59.0033Z"/>
</mask>
<path d="M12.6299 38.0763C11.4054 41.9169 10.7844 45.9288 10.7844 49.9995C10.7844 54.26 11.4632 58.4493 12.8022 62.4508C13.0446 63.175 12.6537 63.958 11.9295 64.2004C11.784 64.2489 11.6365 64.2726 11.4911 64.2726C10.9123 64.2726 10.3738 63.9075 10.1799 63.3287C8.74702 59.0435 8.01974 54.5591 8.01974 49.9995C8.01974 45.6431 8.68409 41.3496 9.99525 37.2366C10.2274 36.5093 11.0041 36.108 11.7325 36.3391C12.4597 36.5712 12.8621 37.349 12.6299 38.0763ZM30.0082 16.0414C30.2393 16.0414 30.4734 15.9837 30.6891 15.8609C36.5465 12.5402 43.224 10.7855 49.9995 10.7855C56.775 10.7855 63.4525 12.5402 69.3099 15.8609C69.9743 16.2374 70.8181 16.0043 71.1946 15.3399C71.5712 14.6756 71.338 13.8318 70.6737 13.4552C64.4006 9.89931 57.2516 8.01974 49.9995 8.01974C42.7474 8.01974 35.5984 9.89931 29.3253 13.4552C28.6609 13.8318 28.4278 14.6756 28.8043 15.3399C29.0591 15.7887 29.5275 16.0414 30.0082 16.0414ZM66.0934 85.7701C61.0231 88.055 55.6083 89.2146 49.9995 89.2146C44.3907 89.2146 38.9759 88.0561 33.9056 85.7711C33.2092 85.4575 32.3912 85.768 32.0776 86.4633C31.764 87.1596 32.0735 87.9777 32.7698 88.2913C38.2001 90.7382 43.9966 91.9792 49.9995 91.9792C56.0023 91.9792 61.7989 90.7382 67.2292 88.2913C67.9255 87.9777 68.235 87.1596 67.9214 86.4633C67.6078 85.767 66.7897 85.4565 66.0934 85.7701ZM88.0685 64.2004C88.2139 64.2489 88.3614 64.2726 88.5069 64.2726C89.0846 64.2726 89.6241 63.9075 89.818 63.3287C91.252 59.0435 91.9782 54.5591 91.9782 49.9995C91.9782 45.6431 91.3139 41.3496 90.0027 37.2366C89.7706 36.5093 88.9928 36.107 88.2655 36.3391C87.5382 36.5712 87.1359 37.349 87.368 38.0763C88.5925 41.9169 89.2125 45.9278 89.2125 49.9995C89.2125 54.26 88.5337 58.4493 87.1947 62.4508C86.9543 63.175 87.3443 63.958 88.0685 64.2004ZM3 29.5997V24.8657C3 20.5897 5.68834 16.8677 9.50008 15.3771C8.38802 14.067 7.71645 12.3782 7.71645 10.5368C7.71645 6.38054 11.1321 3 15.3296 3C19.5272 3 22.9438 6.38157 22.9438 10.5368C22.9438 12.3782 22.2723 14.067 21.1602 15.3771C24.9709 16.8677 27.6593 20.5897 27.6593 24.8657V29.5997C27.6593 30.7396 26.7319 31.667 25.5919 31.667H5.06732C3.9274 31.667 3 30.7396 3 29.5997ZM10.4811 10.5379C10.4811 13.1695 12.6568 15.31 15.3296 15.31C18.0025 15.31 20.1792 13.1695 20.1792 10.5379C20.1792 7.90627 18.0046 5.76468 15.3307 5.76468C12.6568 5.76468 10.4811 7.90627 10.4811 10.5379ZM5.76468 28.9023H24.8956V24.8667C24.8956 21.0808 22.0041 17.8911 18.2655 17.4919C17.3619 17.8674 16.3705 18.0747 15.3296 18.0747C14.2887 18.0747 13.2984 17.8663 12.3947 17.4919C8.65727 17.8921 5.76468 21.0808 5.76468 24.8667V28.9023ZM96.999 24.8657V29.5997C96.999 30.7396 96.0716 31.667 94.9317 31.667H74.405C73.2651 31.667 72.3377 30.7396 72.3377 29.5997V24.8657C72.3377 20.5897 75.026 16.8677 78.8377 15.3771C77.7257 14.067 77.0541 12.3782 77.0541 10.5368C77.0541 6.38054 80.4697 3 84.6673 3C88.8659 3 92.2805 6.38157 92.2805 10.5368C92.2805 12.3782 91.6089 14.0659 90.4968 15.3771C94.3106 16.8677 96.999 20.5897 96.999 24.8657ZM79.8198 10.5379C79.8198 13.1695 81.9955 15.31 84.6683 15.31C87.3422 15.31 89.5168 13.1695 89.5168 10.5379C89.5168 7.90627 87.3412 5.76571 84.6683 5.76571C81.9955 5.76468 79.8198 7.90627 79.8198 10.5379ZM94.2343 24.8657C94.2343 21.0797 91.3417 17.89 87.6042 17.4908C86.7006 17.8663 85.7092 18.0737 84.6693 18.0737C83.6295 18.0737 82.6381 17.8653 81.7345 17.4908C77.997 17.8911 75.1044 21.0797 75.1044 24.8657V28.9013H94.2343V24.8657ZM27.6603 90.1987V94.9327C27.6603 96.0726 26.7329 97 25.593 97H5.06732C3.9274 97 3 96.0726 3 94.9327V90.1987C3 85.9227 5.68834 82.2007 9.50008 80.7101C8.38802 79.4 7.71645 77.7112 7.71645 75.8698C7.71645 71.7135 11.1321 68.333 15.3296 68.333C19.5272 68.333 22.9438 71.7146 22.9438 75.8698C22.9438 77.7112 22.2723 79.3989 21.1602 80.7101C24.972 82.2007 27.6603 85.9217 27.6603 90.1987ZM10.4811 75.8698C10.4811 78.5014 12.6568 80.642 15.3296 80.642C18.0025 80.642 20.1792 78.5014 20.1792 75.8698C20.1792 73.2382 18.0035 71.0977 15.3296 71.0977C12.6557 71.0977 10.4811 73.2382 10.4811 75.8698ZM24.8956 90.1987C24.8956 86.4127 22.0041 83.2241 18.2655 82.8238C17.3619 83.1993 16.3695 83.4077 15.3296 83.4077C14.2898 83.4077 13.2984 83.1993 12.3937 82.8238C8.65624 83.2241 5.76364 86.4127 5.76364 90.1987V94.2343H24.8946V90.1987H24.8956ZM96.999 90.1987V94.9327C96.999 96.0726 96.0716 97 94.9317 97H74.405C73.2651 97 72.3377 96.0726 72.3377 94.9327V90.1987C72.3377 85.9227 75.026 82.2007 78.8377 80.7101C77.7257 79.4 77.0541 77.7112 77.0541 75.8698C77.0541 71.7135 80.4697 68.333 84.6673 68.333C88.8659 68.333 92.2805 71.7146 92.2805 75.8698C92.2805 77.7112 91.6089 79.3989 90.4968 80.7101C94.3106 82.2007 96.999 85.9217 96.999 90.1987ZM79.8198 75.8698C79.8198 78.5014 81.9955 80.642 84.6683 80.642C87.3422 80.642 89.5168 78.5014 89.5168 75.8698C89.5168 73.2382 87.3412 71.0977 84.6683 71.0977C81.9955 71.0967 79.8198 73.2382 79.8198 75.8698ZM94.2343 90.1987C94.2343 86.4127 91.3427 83.2241 87.6042 82.8238C86.7006 83.1993 85.7082 83.4077 84.6683 83.4077C83.6285 83.4077 82.6371 83.1993 81.7324 82.8238C77.9949 83.2241 75.1023 86.4127 75.1023 90.1987V94.2343H94.2343V90.1987ZM72.5821 63.3731C71.5619 63.3731 70.6881 62.75 70.3539 61.7865L70.3023 61.6369C70.2353 61.671 70.1682 61.704 70.1001 61.739C69.2233 62.1795 68.3155 62.6355 67.3251 63.0399C67.1797 63.0997 67.0332 63.1513 66.8857 63.1977C67.842 64.8441 67.6253 66.9383 66.2327 68.332C65.3042 69.2604 64.0478 69.6679 62.8325 69.5544C62.6912 70.3941 62.2971 71.1988 61.6514 71.8446C60.6476 72.8483 59.2601 73.2434 57.9562 73.0288C57.7839 73.8097 57.394 74.5267 56.8163 75.1044C56.0168 75.9039 54.9512 76.3444 53.8154 76.3444C53.248 76.3444 52.6981 76.235 52.1896 76.0246C52.0111 76.4083 51.7635 76.7684 51.4478 77.0851C50.7443 77.7886 49.8086 78.1744 48.8111 78.1744C48.8028 78.1744 48.7956 78.1744 48.7874 78.1744C47.7929 78.1682 46.8665 77.7773 46.1795 77.0727L36.4123 67.0641C36.2947 66.9445 36.1679 66.8114 36.0296 66.668C34.7546 65.3403 32.515 63.01 29.642 61.7948C29.3057 62.7531 28.434 63.3731 27.4168 63.3731H20.5495C19.3838 63.3731 18.4358 62.4251 18.4358 61.2594V39.0718C18.4358 38.0454 19.1692 37.1706 20.1792 36.9911C25.2742 36.0833 30.4322 36.6568 35.5128 38.6942C36.5619 39.1151 37.0932 40.2808 36.7239 41.3485L36.4144 42.2419C39.5412 43.2085 42.2532 43.2322 46.0774 42.3812L46.2868 42.1841C48.8276 39.7949 52.2081 38.9728 55.5629 39.928C56.2582 40.1261 56.9308 40.3386 57.5817 40.5449C59.4933 41.1505 61.3243 41.7261 63.4401 41.8231L63.2761 41.3485C62.9068 40.2808 63.4381 39.1151 64.4872 38.6942C69.5668 36.6568 74.7258 36.0843 79.8208 36.9911C80.8308 37.1706 81.5642 38.0464 81.5642 39.0718V61.2594C81.5642 62.4251 80.6162 63.3731 79.4505 63.3731H72.5821ZM66.0924 41.0339L72.871 60.6084H78.7975V39.6227C74.5865 38.9697 70.3178 39.4432 66.0924 41.0339ZM33.9066 41.0339C29.6822 39.4432 25.4135 38.9686 21.2015 39.6216V60.6074H27.128L33.9066 41.0339ZM64.2551 64.2623L63.0657 63.0193C62.4343 62.7459 61.8443 62.3487 61.3274 61.8319L51.2756 51.7862C50.5008 52.4526 49.657 53.3522 49.657 54.4962C49.657 59.093 45.2098 61.8401 40.9091 61.8401C40.1457 61.8401 39.5267 61.2212 39.5267 60.4578V50.93C39.5267 49.3661 40.1292 47.9734 41.2681 46.9026L42.5318 45.7142C42.0737 45.7452 41.624 45.7617 41.1814 45.7617C39.2544 45.7617 37.4439 45.4636 35.5087 44.856L30.5488 59.1786C34.0232 60.5909 36.5764 63.2462 38.0237 64.7534C38.1557 64.8906 38.2785 65.0185 38.3909 65.134L48.1581 75.1426C48.384 75.3736 48.6594 75.4097 48.8039 75.4108C48.8059 75.4108 48.808 75.4108 48.8101 75.4108C49.07 75.4108 49.3124 75.3117 49.493 75.1312C49.8582 74.766 49.8582 74.1491 49.493 73.785C49.4909 73.7829 49.4888 73.7809 49.4868 73.7788C49.4847 73.7767 49.4827 73.7757 49.4806 73.7736L44.04 68.1989C43.5066 67.6522 43.5169 66.7774 44.0637 66.244C44.6104 65.7107 45.4852 65.721 46.0186 66.2677L52.7683 73.1516C53.345 73.7282 54.2837 73.7282 54.8604 73.1516C55.1379 72.8741 55.2905 72.5027 55.2905 72.1055C55.2905 71.7084 55.1379 71.337 54.8604 71.0595C54.8583 71.0574 54.8562 71.0554 54.8542 71.0533C54.8521 71.0513 54.8501 71.0502 54.848 71.0482L49.4074 65.4734C48.874 64.9267 48.8843 64.0519 49.4311 63.5185C49.9778 62.9852 50.8526 62.9955 51.386 63.5423L57.6023 69.8928C58.179 70.4694 59.1178 70.4694 59.6944 69.8928C60.2711 69.3161 60.2711 68.3774 59.6944 67.8007C59.6924 67.7986 59.6913 67.7966 59.6893 67.7945C59.6872 67.7925 59.6851 67.7904 59.6831 67.7883L54.2424 62.2136C53.7091 61.6668 53.7194 60.792 54.2662 60.2587C54.8129 59.7254 55.6877 59.7357 56.221 60.2824L62.1837 66.3792C62.7603 66.9558 63.6991 66.9558 64.2757 66.3792C64.8503 65.8025 64.8411 64.8741 64.2551 64.2623ZM69.3893 59.0033L64.4006 44.597C61.4389 44.661 59.0569 43.91 56.7472 43.1786C56.1148 42.9785 55.4618 42.7721 54.8057 42.5844C52.3753 41.8922 50.0222 42.4647 48.1808 44.1957L43.161 48.9153C42.5751 49.4662 42.2904 50.1243 42.2904 50.929V58.9434C44.6981 58.4875 46.8913 56.872 46.8913 54.4952C46.8913 51.7604 48.9535 50.0965 50.0614 49.2021C50.2161 49.0772 50.3502 48.9689 50.4431 48.8864C50.9898 48.3995 51.8223 48.4232 52.3402 48.9411L63.2823 59.876C64.0952 60.6889 65.2155 60.9148 66.2801 60.4805C67.1704 60.1174 68.0287 59.6862 68.8591 59.2684C69.0324 59.1807 69.2119 59.092 69.3893 59.0033Z" fill="black"/>
<path d="M12.6299 38.0763C11.4054 41.9169 10.7844 45.9288 10.7844 49.9995C10.7844 54.26 11.4632 58.4493 12.8022 62.4508C13.0446 63.175 12.6537 63.958 11.9295 64.2004C11.784 64.2489 11.6365 64.2726 11.4911 64.2726C10.9123 64.2726 10.3738 63.9075 10.1799 63.3287C8.74702 59.0435 8.01974 54.5591 8.01974 49.9995C8.01974 45.6431 8.68409 41.3496 9.99525 37.2366C10.2274 36.5093 11.0041 36.108 11.7325 36.3391C12.4597 36.5712 12.8621 37.349 12.6299 38.0763ZM30.0082 16.0414C30.2393 16.0414 30.4734 15.9837 30.6891 15.8609C36.5465 12.5402 43.224 10.7855 49.9995 10.7855C56.775 10.7855 63.4525 12.5402 69.3099 15.8609C69.9743 16.2374 70.8181 16.0043 71.1946 15.3399C71.5712 14.6756 71.338 13.8318 70.6737 13.4552C64.4006 9.89931 57.2516 8.01974 49.9995 8.01974C42.7474 8.01974 35.5984 9.89931 29.3253 13.4552C28.6609 13.8318 28.4278 14.6756 28.8043 15.3399C29.0591 15.7887 29.5275 16.0414 30.0082 16.0414ZM66.0934 85.7701C61.0231 88.055 55.6083 89.2146 49.9995 89.2146C44.3907 89.2146 38.9759 88.0561 33.9056 85.7711C33.2092 85.4575 32.3912 85.768 32.0776 86.4633C31.764 87.1596 32.0735 87.9777 32.7698 88.2913C38.2001 90.7382 43.9966 91.9792 49.9995 91.9792C56.0023 91.9792 61.7989 90.7382 67.2292 88.2913C67.9255 87.9777 68.235 87.1596 67.9214 86.4633C67.6078 85.767 66.7897 85.4565 66.0934 85.7701ZM88.0685 64.2004C88.2139 64.2489 88.3614 64.2726 88.5069 64.2726C89.0846 64.2726 89.6241 63.9075 89.818 63.3287C91.252 59.0435 91.9782 54.5591 91.9782 49.9995C91.9782 45.6431 91.3139 41.3496 90.0027 37.2366C89.7706 36.5093 88.9928 36.107 88.2655 36.3391C87.5382 36.5712 87.1359 37.349 87.368 38.0763C88.5925 41.9169 89.2125 45.9278 89.2125 49.9995C89.2125 54.26 88.5337 58.4493 87.1947 62.4508C86.9543 63.175 87.3443 63.958 88.0685 64.2004ZM3 29.5997V24.8657C3 20.5897 5.68834 16.8677 9.50008 15.3771C8.38802 14.067 7.71645 12.3782 7.71645 10.5368C7.71645 6.38054 11.1321 3 15.3296 3C19.5272 3 22.9438 6.38157 22.9438 10.5368C22.9438 12.3782 22.2723 14.067 21.1602 15.3771C24.9709 16.8677 27.6593 20.5897 27.6593 24.8657V29.5997C27.6593 30.7396 26.7319 31.667 25.5919 31.667H5.06732C3.9274 31.667 3 30.7396 3 29.5997ZM10.4811 10.5379C10.4811 13.1695 12.6568 15.31 15.3296 15.31C18.0025 15.31 20.1792 13.1695 20.1792 10.5379C20.1792 7.90627 18.0046 5.76468 15.3307 5.76468C12.6568 5.76468 10.4811 7.90627 10.4811 10.5379ZM5.76468 28.9023H24.8956V24.8667C24.8956 21.0808 22.0041 17.8911 18.2655 17.4919C17.3619 17.8674 16.3705 18.0747 15.3296 18.0747C14.2887 18.0747 13.2984 17.8663 12.3947 17.4919C8.65727 17.8921 5.76468 21.0808 5.76468 24.8667V28.9023ZM96.999 24.8657V29.5997C96.999 30.7396 96.0716 31.667 94.9317 31.667H74.405C73.2651 31.667 72.3377 30.7396 72.3377 29.5997V24.8657C72.3377 20.5897 75.026 16.8677 78.8377 15.3771C77.7257 14.067 77.0541 12.3782 77.0541 10.5368C77.0541 6.38054 80.4697 3 84.6673 3C88.8659 3 92.2805 6.38157 92.2805 10.5368C92.2805 12.3782 91.6089 14.0659 90.4968 15.3771C94.3106 16.8677 96.999 20.5897 96.999 24.8657ZM79.8198 10.5379C79.8198 13.1695 81.9955 15.31 84.6683 15.31C87.3422 15.31 89.5168 13.1695 89.5168 10.5379C89.5168 7.90627 87.3412 5.76571 84.6683 5.76571C81.9955 5.76468 79.8198 7.90627 79.8198 10.5379ZM94.2343 24.8657C94.2343 21.0797 91.3417 17.89 87.6042 17.4908C86.7006 17.8663 85.7092 18.0737 84.6693 18.0737C83.6295 18.0737 82.6381 17.8653 81.7345 17.4908C77.997 17.8911 75.1044 21.0797 75.1044 24.8657V28.9013H94.2343V24.8657ZM27.6603 90.1987V94.9327C27.6603 96.0726 26.7329 97 25.593 97H5.06732C3.9274 97 3 96.0726 3 94.9327V90.1987C3 85.9227 5.68834 82.2007 9.50008 80.7101C8.38802 79.4 7.71645 77.7112 7.71645 75.8698C7.71645 71.7135 11.1321 68.333 15.3296 68.333C19.5272 68.333 22.9438 71.7146 22.9438 75.8698C22.9438 77.7112 22.2723 79.3989 21.1602 80.7101C24.972 82.2007 27.6603 85.9217 27.6603 90.1987ZM10.4811 75.8698C10.4811 78.5014 12.6568 80.642 15.3296 80.642C18.0025 80.642 20.1792 78.5014 20.1792 75.8698C20.1792 73.2382 18.0035 71.0977 15.3296 71.0977C12.6557 71.0977 10.4811 73.2382 10.4811 75.8698ZM24.8956 90.1987C24.8956 86.4127 22.0041 83.2241 18.2655 82.8238C17.3619 83.1993 16.3695 83.4077 15.3296 83.4077C14.2898 83.4077 13.2984 83.1993 12.3937 82.8238C8.65624 83.2241 5.76364 86.4127 5.76364 90.1987V94.2343H24.8946V90.1987H24.8956ZM96.999 90.1987V94.9327C96.999 96.0726 96.0716 97 94.9317 97H74.405C73.2651 97 72.3377 96.0726 72.3377 94.9327V90.1987C72.3377 85.9227 75.026 82.2007 78.8377 80.7101C77.7257 79.4 77.0541 77.7112 77.0541 75.8698C77.0541 71.7135 80.4697 68.333 84.6673 68.333C88.8659 68.333 92.2805 71.7146 92.2805 75.8698C92.2805 77.7112 91.6089 79.3989 90.4968 80.7101C94.3106 82.2007 96.999 85.9217 96.999 90.1987ZM79.8198 75.8698C79.8198 78.5014 81.9955 80.642 84.6683 80.642C87.3422 80.642 89.5168 78.5014 89.5168 75.8698C89.5168 73.2382 87.3412 71.0977 84.6683 71.0977C81.9955 71.0967 79.8198 73.2382 79.8198 75.8698ZM94.2343 90.1987C94.2343 86.4127 91.3427 83.2241 87.6042 82.8238C86.7006 83.1993 85.7082 83.4077 84.6683 83.4077C83.6285 83.4077 82.6371 83.1993 81.7324 82.8238C77.9949 83.2241 75.1023 86.4127 75.1023 90.1987V94.2343H94.2343V90.1987ZM72.5821 63.3731C71.5619 63.3731 70.6881 62.75 70.3539 61.7865L70.3023 61.6369C70.2353 61.671 70.1682 61.704 70.1001 61.739C69.2233 62.1795 68.3155 62.6355 67.3251 63.0399C67.1797 63.0997 67.0332 63.1513 66.8857 63.1977C67.842 64.8441 67.6253 66.9383 66.2327 68.332C65.3042 69.2604 64.0478 69.6679 62.8325 69.5544C62.6912 70.3941 62.2971 71.1988 61.6514 71.8446C60.6476 72.8483 59.2601 73.2434 57.9562 73.0288C57.7839 73.8097 57.394 74.5267 56.8163 75.1044C56.0168 75.9039 54.9512 76.3444 53.8154 76.3444C53.248 76.3444 52.6981 76.235 52.1896 76.0246C52.0111 76.4083 51.7635 76.7684 51.4478 77.0851C50.7443 77.7886 49.8086 78.1744 48.8111 78.1744C48.8028 78.1744 48.7956 78.1744 48.7874 78.1744C47.7929 78.1682 46.8665 77.7773 46.1795 77.0727L36.4123 67.0641C36.2947 66.9445 36.1679 66.8114 36.0296 66.668C34.7546 65.3403 32.515 63.01 29.642 61.7948C29.3057 62.7531 28.434 63.3731 27.4168 63.3731H20.5495C19.3838 63.3731 18.4358 62.4251 18.4358 61.2594V39.0718C18.4358 38.0454 19.1692 37.1706 20.1792 36.9911C25.2742 36.0833 30.4322 36.6568 35.5128 38.6942C36.5619 39.1151 37.0932 40.2808 36.7239 41.3485L36.4144 42.2419C39.5412 43.2085 42.2532 43.2322 46.0774 42.3812L46.2868 42.1841C48.8276 39.7949 52.2081 38.9728 55.5629 39.928C56.2582 40.1261 56.9308 40.3386 57.5817 40.5449C59.4933 41.1505 61.3243 41.7261 63.4401 41.8231L63.2761 41.3485C62.9068 40.2808 63.4381 39.1151 64.4872 38.6942C69.5668 36.6568 74.7258 36.0843 79.8208 36.9911C80.8308 37.1706 81.5642 38.0464 81.5642 39.0718V61.2594C81.5642 62.4251 80.6162 63.3731 79.4505 63.3731H72.5821ZM66.0924 41.0339L72.871 60.6084H78.7975V39.6227C74.5865 38.9697 70.3178 39.4432 66.0924 41.0339ZM33.9066 41.0339C29.6822 39.4432 25.4135 38.9686 21.2015 39.6216V60.6074H27.128L33.9066 41.0339ZM64.2551 64.2623L63.0657 63.0193C62.4343 62.7459 61.8443 62.3487 61.3274 61.8319L51.2756 51.7862C50.5008 52.4526 49.657 53.3522 49.657 54.4962C49.657 59.093 45.2098 61.8401 40.9091 61.8401C40.1457 61.8401 39.5267 61.2212 39.5267 60.4578V50.93C39.5267 49.3661 40.1292 47.9734 41.2681 46.9026L42.5318 45.7142C42.0737 45.7452 41.624 45.7617 41.1814 45.7617C39.2544 45.7617 37.4439 45.4636 35.5087 44.856L30.5488 59.1786C34.0232 60.5909 36.5764 63.2462 38.0237 64.7534C38.1557 64.8906 38.2785 65.0185 38.3909 65.134L48.1581 75.1426C48.384 75.3736 48.6594 75.4097 48.8039 75.4108C48.8059 75.4108 48.808 75.4108 48.8101 75.4108C49.07 75.4108 49.3124 75.3117 49.493 75.1312C49.8582 74.766 49.8582 74.1491 49.493 73.785C49.4909 73.7829 49.4888 73.7809 49.4868 73.7788C49.4847 73.7767 49.4827 73.7757 49.4806 73.7736L44.04 68.1989C43.5066 67.6522 43.5169 66.7774 44.0637 66.244C44.6104 65.7107 45.4852 65.721 46.0186 66.2677L52.7683 73.1516C53.345 73.7282 54.2837 73.7282 54.8604 73.1516C55.1379 72.8741 55.2905 72.5027 55.2905 72.1055C55.2905 71.7084 55.1379 71.337 54.8604 71.0595C54.8583 71.0574 54.8562 71.0554 54.8542 71.0533C54.8521 71.0513 54.8501 71.0502 54.848 71.0482L49.4074 65.4734C48.874 64.9267 48.8843 64.0519 49.4311 63.5185C49.9778 62.9852 50.8526 62.9955 51.386 63.5423L57.6023 69.8928C58.179 70.4694 59.1178 70.4694 59.6944 69.8928C60.2711 69.3161 60.2711 68.3774 59.6944 67.8007C59.6924 67.7986 59.6913 67.7966 59.6893 67.7945C59.6872 67.7925 59.6851 67.7904 59.6831 67.7883L54.2424 62.2136C53.7091 61.6668 53.7194 60.792 54.2662 60.2587C54.8129 59.7254 55.6877 59.7357 56.221 60.2824L62.1837 66.3792C62.7603 66.9558 63.6991 66.9558 64.2757 66.3792C64.8503 65.8025 64.8411 64.8741 64.2551 64.2623ZM69.3893 59.0033L64.4006 44.597C61.4389 44.661 59.0569 43.91 56.7472 43.1786C56.1148 42.9785 55.4618 42.7721 54.8057 42.5844C52.3753 41.8922 50.0222 42.4647 48.1808 44.1957L43.161 48.9153C42.5751 49.4662 42.2904 50.1243 42.2904 50.929V58.9434C44.6981 58.4875 46.8913 56.872 46.8913 54.4952C46.8913 51.7604 48.9535 50.0965 50.0614 49.2021C50.2161 49.0772 50.3502 48.9689 50.4431 48.8864C50.9898 48.3995 51.8223 48.4232 52.3402 48.9411L63.2823 59.876C64.0952 60.6889 65.2155 60.9148 66.2801 60.4805C67.1704 60.1174 68.0287 59.6862 68.8591 59.2684C69.0324 59.1807 69.2119 59.092 69.3893 59.0033Z" stroke="black" mask="url(#path-15-outside-1_253_6630)"/>
</svg>
