<svg width="100" height="100" viewBox="0 0 100 100" fill="none" xmlns="http://www.w3.org/2000/svg">
<path d="M52.8062 57.6998C53.1393 57.2916 53.6033 57.0111 54.1196 56.9058C56.536 56.4022 58.9042 55.6903 61.1978 54.7779C61.2953 53.1857 61.3594 51.5942 61.3899 50.0034H34.0571C34.1503 55.1149 34.6088 60.2131 35.4287 65.2593C40.9351 63.8724 46.6348 63.4197 52.291 63.92V59.1455C52.2909 58.6186 52.473 58.108 52.8062 57.6998Z" fill="#00B0FB" fill-opacity="0.5"/>
<path d="M34.0503 45.4324H61.3899C61.3081 39.5708 60.7271 33.7267 59.653 27.9639C55.749 28.9316 51.7426 29.4251 47.7204 29.4335C43.6982 29.4251 39.6914 28.9316 35.7873 27.9639C34.7132 33.7267 34.1321 39.5708 34.0503 45.4324Z" fill="#00B0FB" fill-opacity="0.5"/>
<path d="M56.8623 7.63403C59.7814 12.0821 61.8721 17.0214 63.0333 22.2135C67.0201 20.7784 70.7789 18.7755 74.1935 16.2665C69.1877 12.0478 63.2452 9.08795 56.8623 7.63403Z" fill="#00B0FB" fill-opacity="0.5"/>
<path d="M47.7202 24.8626C51.4108 24.8568 55.087 24.4024 58.6679 23.5095L58.6588 23.5094C55.9619 12.9776 51.704 6.57812 47.7203 6.57812C43.7366 6.57812 39.4787 12.9778 36.7817 23.5095C40.3597 24.4017 44.0327 24.856 47.7202 24.8626Z" fill="#00B0FB"/>
<path d="M21.2466 16.271C24.6615 18.7783 28.4203 20.7798 32.4069 22.2134C33.5681 17.0213 35.6587 12.0821 38.5778 7.63403C32.1945 9.08929 26.252 12.0507 21.2466 16.271Z" fill="#00B0FB" fill-opacity="0.5"/>
<path d="M31.8981 71.2004C31.8979 71.1993 31.8977 71.1983 31.8975 71.1973H31.9065C31.9037 71.1983 31.9009 71.1993 31.8981 71.2004C33.0277 77.126 35.3055 82.7734 38.6032 87.8246C31.6015 86.2462 25.1451 82.8346 19.896 77.9395C23.5134 75.0699 27.5649 72.7951 31.8981 71.2004Z" fill="#00B0FB" fill-opacity="0.5"/>
<path d="M36.2812 69.7983C39.1176 82.4579 43.8167 88.5123 47.3707 88.8574L47.7202 88.8574C50.4629 88.8574 53.386 85.6898 55.8361 80.1725C54.0294 76.5361 52.8929 72.6037 52.481 68.5641C50.9002 68.3866 49.3111 68.2943 47.7204 68.2876C43.8582 68.2966 40.0133 68.8044 36.2812 69.7983Z" fill="#00B0FB"/>
<path d="M60.2425 86.8898C59.6779 86.2292 59.1431 85.5436 58.6426 84.8579L58.6428 84.8464C58.09 85.8777 57.4717 86.8724 56.7915 87.8244C57.9571 87.5593 59.0997 87.2554 60.2425 86.8898Z" fill="#00B0FB" fill-opacity="0.5"/>
<path d="M89.9785 78.9251C92.2516 74.6741 93.4376 69.9267 93.4309 65.1062L93.4309 60.9694C92.1007 60.638 90.8048 60.2266 89.5317 59.79L89.4745 59.79C89.4082 59.774 89.3625 59.7307 89.3008 59.7101C84.3363 57.9273 79.5887 55.5912 75.1469 52.7461C71.6424 54.9822 67.9528 56.9143 64.1189 58.5215C61.7641 59.5175 59.3386 60.3373 56.8623 60.9739L56.8623 65.1062C56.8549 69.9275 58.0404 74.6759 60.3135 78.9277C62.5866 83.1796 65.8763 86.8028 69.8896 89.4746L75.1465 92.9714L80.4033 89.47C84.416 86.7987 87.7055 83.176 89.9785 78.9251Z" fill="#00B0FB"/>
<path d="M29.4863 50.0034C29.575 55.5676 30.0876 61.117 31.0199 66.6033" stroke="#00B0FB" stroke-width="2"/>
<path d="M31.4082 26.6909C30.2212 32.8704 29.5697 39.1408 29.4609 45.4323" stroke="#00B0FB" stroke-width="2"/>
<path d="M65.9795 45.4323C65.8707 39.1408 65.2192 32.8704 64.0322 26.6909" stroke="#00B0FB" stroke-width="2"/>
<path d="M65.8901 52.7049C65.9267 51.8021 65.945 50.9039 65.961 50.0034" stroke="#00B0FB" stroke-width="2"/>
<path d="M96.1736 56.9057C94.9942 56.6771 93.8195 56.3617 92.6653 56.0143C94.0471 48.6231 93.5722 41.0044 91.2833 33.842C88.9943 26.6796 84.9629 20.1975 79.5508 14.9775L79.5326 14.9432C79.4846 14.8861 79.4183 14.8609 79.368 14.8106C70.879 6.5939 59.5276 2 47.7133 2C35.899 2 24.5476 6.5939 16.0586 14.8106C16.0083 14.8609 15.9443 14.8838 15.9009 14.9386L15.8826 14.9706C7.21574 23.3584 2.22642 34.8392 2.00752 46.8983C1.78861 58.9574 6.35797 70.6117 14.7147 79.3085L14.7604 79.3588C18.9241 83.7398 23.9248 87.2405 29.4663 89.6534C35.0077 92.0663 40.9772 93.3423 47.0208 93.4057C47.2494 93.424 47.4962 93.4286 47.7202 93.4286C47.9442 93.4286 48.2116 93.4149 48.4653 93.392C53.6861 93.3115 58.853 92.3232 63.7349 90.4711C64.884 91.4862 66.1004 92.4223 67.3758 93.2732L73.8873 97.6157C74.2629 97.8663 74.7043 98 75.1558 98C75.6073 98 76.0487 97.8663 76.4242 97.6157L82.9357 93.2732C87.5757 90.1853 91.3795 85.9975 94.0083 81.0829C96.6371 76.1683 98.0091 70.6797 98.002 65.1062V59.1455C98.0021 58.6186 97.8202 58.1079 97.487 57.6997C97.1538 57.2916 96.6898 57.0111 96.1736 56.9057ZM79.416 50.0034H88.7867C88.703 51.4956 88.5359 52.982 88.2862 54.4556C85.2251 53.1892 82.2605 51.7012 79.416 50.0034ZM54.1197 56.9057C53.6034 57.0111 53.1395 57.2916 52.8063 57.6997C52.4731 58.1079 52.2911 58.6186 52.2912 59.1455V63.92C46.635 63.4197 40.9349 63.8725 35.4285 65.2593C34.6087 60.2132 34.1504 55.1149 34.0572 50.0034H61.39C61.3595 51.5941 61.2955 53.1856 61.198 54.7779C58.9044 55.6902 56.5361 56.4021 54.1197 56.9057ZM6.6902 50.0034H29.4862C29.5748 55.5676 30.0875 61.1169 31.0197 66.6032C25.813 68.4289 20.9581 71.1347 16.6666 74.6026C10.6806 67.7512 7.16752 59.0888 6.6902 50.0034ZM17.9053 19.4549C21.995 22.5662 26.5527 25.0086 31.4083 26.6909C30.2213 32.8704 29.5698 39.1408 29.461 45.4323H6.69705C7.22741 35.7163 11.2009 26.5069 17.9053 19.4549ZM88.7433 45.4323H65.9793C65.8705 39.1408 65.219 32.8704 64.0321 26.6909C68.8872 25.0108 73.4449 22.5707 77.535 19.4617C84.2379 26.512 88.2113 35.7187 88.7433 45.4323ZM61.39 45.4323H34.0504C34.1321 39.5707 34.7133 33.7268 35.7874 27.9639C39.6914 28.9317 43.698 29.4251 47.7202 29.4335C51.7424 29.4251 55.7489 28.9317 59.653 27.9639C60.7271 33.7268 61.3082 39.5707 61.39 45.4323ZM63.0333 22.2135C61.8721 17.0214 59.7815 12.0821 56.8623 7.63406C63.2453 9.08797 69.1877 12.0478 74.1936 16.2665C70.779 18.7755 67.0201 20.7784 63.0333 22.2135ZM58.6679 23.5094C55.087 24.4023 51.4108 24.8566 47.7202 24.8624C44.0326 24.8559 40.3596 24.4016 36.7816 23.5094C39.4785 12.9776 43.7365 6.57814 47.7202 6.57814C51.7039 6.57814 55.9618 12.9776 58.6588 23.5094H58.6679ZM32.4071 22.2135C28.4205 20.7799 24.6617 18.7784 21.2468 16.2711C26.2522 12.0508 32.1947 9.08931 38.578 7.63406C35.6589 12.0821 33.5683 17.0214 32.4071 22.2135ZM31.8974 71.1972C33.0268 77.1239 35.3049 82.7724 38.6032 87.8244C31.6014 86.2461 25.1452 82.8346 19.896 77.9395C23.5158 75.0681 27.5702 72.792 31.9065 71.1972H31.8974ZM47.3705 88.8575C43.8165 88.5124 39.1174 82.458 36.2811 69.7984C40.0132 68.8045 43.858 68.2967 47.7202 68.2877C49.3109 68.2944 50.9001 68.3867 52.4809 68.5642C52.8928 72.6038 54.0294 76.5361 55.8361 80.1725C53.386 85.6898 50.4628 88.8575 47.7202 88.8575C47.6242 88.8575 47.5213 88.8575 47.3705 88.8575ZM58.6428 84.8578C59.1433 85.5435 59.6781 86.2291 60.2426 86.8897C59.0999 87.2553 57.9571 87.5593 56.7915 87.8244C57.4716 86.8724 58.09 85.8777 58.6428 84.8464V84.8578ZM65.9611 50.0034H70.8772C69.5516 50.7919 67.8512 51.7427 65.8902 52.7049C65.9268 51.8021 65.9451 50.9039 65.9611 50.0034ZM93.4309 65.1062C93.4376 69.9267 92.2515 74.674 89.9785 78.925C87.7055 83.176 84.416 86.7987 80.4034 89.47L75.1466 92.9715L69.8899 89.4746C65.8766 86.8028 62.5868 83.1795 60.3137 78.9276C58.0406 74.6758 56.8549 69.9275 56.8623 65.1062V60.9739C59.3386 60.3373 61.7641 59.5176 64.1189 58.5216C67.9528 56.9143 71.6421 54.9821 75.1466 52.746C79.5884 55.5912 84.3365 57.9272 89.301 59.71C89.3627 59.7306 89.4084 59.774 89.4747 59.79C89.493 59.79 89.5112 59.79 89.5318 59.79C90.8048 60.2266 92.1007 60.638 93.4309 60.9694V65.1062Z" fill="black"/>
<path d="M80.3865 66.6719L72.8603 74.1981L69.9051 71.2429C69.474 70.8266 68.8967 70.5962 68.2974 70.6014C67.6982 70.6066 67.1249 70.847 66.7012 71.2708C66.2774 71.6945 66.037 72.2678 66.0318 72.867C66.0266 73.4663 66.257 74.0436 66.6733 74.4747L71.2444 79.0458C71.673 79.4742 72.2542 79.7149 72.8603 79.7149C73.4663 79.7149 74.0475 79.4742 74.4761 79.0458L83.6183 69.9036C84.0346 69.4725 84.265 68.8952 84.2598 68.2959C84.2546 67.6967 84.0142 67.1235 83.5905 66.6997C83.1667 66.2759 82.5935 66.0356 81.9942 66.0304C81.3949 66.0252 80.8176 66.2555 80.3865 66.6719Z" fill="black"/>
</svg>
