<?xml version="1.0" encoding="utf-8"?>
<!-- Generator: Adobe Illustrator 24.3.0, SVG Export Plug-In . SVG Version: 6.00 Build 0)  -->
<svg version="1.1" id="Layer_1" xmlns="http://www.w3.org/2000/svg" xmlns:xlink="http://www.w3.org/1999/xlink" x="0px" y="0px"
	 width="1826.2px" height="573.9px" viewBox="0 0 1826.2 573.9" style="enable-background:new 0 0 1826.2 573.9;"
	 xml:space="preserve">
<style type="text/css">
	.st0{fill:#303030;}
	.st1{fill:url(#SVGID_1_);}
	.st2{fill:#F6472E;}
	.st3{fill:#FE8E0D;}
	.st4{fill:#F11446;}
	.st5{fill:url(#SVGID_2_);}
</style>
<g>
	<g>
		<g>
			<g>
				<path class="st0" d="M789.5,113.5c-0.7,1.4-1.8,2-3.1,2c-1,0-2.4-0.7-4-2.2c-1.6-1.5-3.9-3.1-6.7-4.9c-2.8-1.8-6.3-3.4-10.5-5
					c-4.2-1.5-9.4-2.3-15.5-2.3c-6.2,0-11.6,0.9-16.2,2.6c-4.7,1.8-8.6,4.1-11.7,7.2c-3.2,3-5.6,6.5-7.2,10.5
					c-1.6,4-2.5,8.2-2.5,12.5c0,5.7,1.2,10.5,3.6,14.2c2.4,3.7,5.6,6.9,9.6,9.6c4,2.6,8.5,4.8,13.6,6.6c5.1,1.8,10.3,3.6,15.6,5.3
					c5.3,1.8,10.5,3.7,15.6,5.8c5.1,2.1,9.6,4.8,13.6,7.9c4,3.2,7.2,7.1,9.6,11.8c2.4,4.7,3.6,10.5,3.6,17.4c0,7.1-1.2,13.8-3.6,20
					c-2.4,6.3-6,11.7-10.6,16.3c-4.6,4.6-10.3,8.3-17,10.9c-6.7,2.7-14.3,4-22.9,4c-11.2,0-20.8-2-28.8-5.9
					c-8-3.9-15.1-9.3-21.1-16.2l3.3-5.3c1-1.2,2.1-1.8,3.3-1.8c0.7,0,1.6,0.5,2.8,1.4c1.1,1,2.5,2.1,4.1,3.5
					c1.6,1.4,3.5,2.9,5.7,4.5c2.2,1.6,4.8,3.1,7.8,4.5c3,1.4,6.3,2.6,10.2,3.5c3.8,1,8.2,1.4,13,1.4c6.7,0,12.7-1,18-3
					c5.3-2,9.7-4.8,13.3-8.3c3.6-3.5,6.4-7.7,8.3-12.5c1.9-4.8,2.9-10,2.9-15.5c0-6-1.2-10.9-3.6-14.8c-2.4-3.9-5.6-7.1-9.6-9.7
					c-4-2.6-8.5-4.8-13.6-6.5c-5.1-1.8-10.3-3.5-15.6-5.1c-5.3-1.7-10.5-3.5-15.6-5.6c-5.1-2.1-9.6-4.7-13.6-7.9
					c-4-3.2-7.2-7.2-9.6-12.1c-2.4-4.8-3.6-10.9-3.6-18.1c0-5.7,1.1-11.1,3.2-16.4c2.2-5.3,5.3-9.9,9.5-13.9c4.1-4,9.3-7.2,15.4-9.7
					c6.1-2.4,13.1-3.6,20.9-3.6c8.8,0,16.6,1.4,23.6,4.2c7,2.8,13.3,7,19.1,12.8L789.5,113.5z"/>
				<path class="st0" d="M983.3,177.4c0,13.1-2,24.9-5.9,35.5c-3.9,10.6-9.4,19.7-16.5,27.2c-7.1,7.5-15.6,13.3-25.5,17.4
					c-9.9,4.1-20.8,6.2-32.9,6.2c-11.9,0-22.7-2-32.6-6.2c-9.9-4.1-18.4-9.9-25.5-17.4c-7.1-7.5-12.6-16.6-16.5-27.2
					c-3.9-10.6-5.9-22.5-5.9-35.5c0-13,2-24.8,5.9-35.4c3.9-10.6,9.5-19.7,16.5-27.2c7.1-7.5,15.6-13.4,25.5-17.5
					c9.9-4.1,20.8-6.2,32.6-6.2c12,0,23,2.1,32.9,6.2c9.9,4.1,18.4,9.9,25.5,17.5c7.1,7.6,12.6,16.7,16.5,27.3
					C981.4,152.6,983.3,164.4,983.3,177.4z M970.7,177.4c0-11.8-1.6-22.4-4.9-31.8c-3.3-9.4-7.9-17.4-13.8-23.9
					c-5.9-6.5-13.1-11.5-21.4-15c-8.4-3.5-17.6-5.2-27.8-5.2c-10,0-19.2,1.7-27.5,5.2c-8.3,3.5-15.5,8.5-21.5,15
					c-6,6.5-10.7,14.5-14,23.9c-3.3,9.4-5,20-5,31.8c0,11.9,1.7,22.5,5,31.8c3.3,9.4,8,17.3,14,23.8c6,6.5,13.2,11.5,21.5,14.9
					c8.3,3.4,17.5,5.1,27.5,5.1c10.2,0,19.5-1.7,27.8-5.1c8.4-3.4,15.5-8.4,21.4-14.9c5.9-6.5,10.5-14.5,13.8-23.8
					C969,199.9,970.7,189.2,970.7,177.4z"/>
				<path class="st0" d="M1145.9,233.5c0.8,0,1.5,0.3,2,0.8l4.8,5.1c-3.5,3.7-7.3,7.1-11.5,10.1c-4.1,3-8.7,5.5-13.6,7.6
					c-4.9,2.1-10.3,3.7-16.1,4.9c-5.9,1.2-12.3,1.7-19.3,1.7c-11.7,0-22.4-2-32.2-6.2c-9.8-4.1-18.1-9.9-25.1-17.4
					c-7-7.5-12.4-16.6-16.3-27.3c-3.9-10.7-5.9-22.5-5.9-35.6c0-12.8,2-24.5,6-35.1c4-10.6,9.7-19.7,17-27.3
					c7.3-7.6,16-13.5,26.2-17.7c10.2-4.2,21.4-6.3,33.6-6.3c6.1,0,11.7,0.5,16.8,1.4c5.1,0.9,9.9,2.2,14.3,3.9
					c4.4,1.7,8.6,3.8,12.5,6.4c3.9,2.5,7.7,5.5,11.5,8.8l-3.7,5.4c-0.6,1-1.6,1.4-3,1.4c-0.7,0-1.6-0.4-2.7-1.3
					c-1.1-0.8-2.5-1.9-4.2-3.1c-1.7-1.2-3.8-2.6-6.2-4.1c-2.4-1.5-5.3-2.8-8.7-4.1c-3.3-1.2-7.2-2.3-11.6-3.1
					c-4.4-0.8-9.4-1.3-14.9-1.3c-10.3,0-19.7,1.8-28.3,5.3c-8.6,3.5-16,8.6-22.2,15.2c-6.2,6.6-11.1,14.5-14.5,23.9
					c-3.5,9.4-5.2,19.9-5.2,31.5c0,11.9,1.7,22.6,5.1,32c3.4,9.4,8.2,17.3,14.2,23.8c6.1,6.5,13.2,11.5,21.4,14.9
					c8.2,3.5,17.2,5.2,26.8,5.2c6.1,0,11.4-0.4,16.2-1.2c4.7-0.8,9.1-2,13.1-3.6c4-1.6,7.7-3.5,11.1-5.9c3.4-2.3,6.8-5,10.2-8.1
					c0.4-0.3,0.8-0.6,1.1-0.8C1145,233.6,1145.5,233.5,1145.9,233.5z"/>
				<path class="st0" d="M1208,262h-12.3V92.9h12.3V262z"/>
				<path class="st0" d="M1389.9,262h-9.4c-1.1,0-2-0.3-2.7-0.9c-0.7-0.6-1.3-1.4-1.7-2.3l-20-49.1h-83l-19.8,49.1
					c-0.3,0.9-0.9,1.6-1.7,2.3c-0.8,0.6-1.8,1-2.9,1h-9.3l69.2-169.1h12.2L1389.9,262z M1276.8,200.6h75.8l-34.5-85.4
					c-0.6-1.4-1.1-2.9-1.7-4.6c-0.6-1.7-1.1-3.5-1.7-5.4c-0.6,1.9-1.1,3.7-1.7,5.4c-0.6,1.7-1.1,3.3-1.7,4.7L1276.8,200.6z"/>
				<path class="st0" d="M1428.9,251.6h80.2V262h-92.4V92.9h12.2V251.6z"/>
			</g>
			<g>
				<path class="st0" d="M863.9,481h-25.2c-2.8,0-5.1-0.7-7-2.1c-1.8-1.4-3.1-3.2-3.9-5.3l-13.1-35.7h-72.5l-13.1,35.7
					c-0.6,1.9-1.9,3.6-3.8,5.1c-1.9,1.5-4.2,2.3-7,2.3H693l68.8-175.1h33.3L863.9,481z M750.5,414.9h55.8L785,356.6
					c-1-2.6-2-5.6-3.2-9.1c-1.2-3.5-2.3-7.3-3.5-11.4c-1.1,4.1-2.2,8-3.3,11.5c-1.1,3.6-2.2,6.7-3.2,9.3L750.5,414.9z"/>
				<path class="st0" d="M996.1,439.7c1.8,0,3.3,0.7,4.6,2.1l12.8,13.9c-7.1,8.8-15.8,15.5-26.2,20.2c-10.4,4.7-22.8,7-37.4,7
					c-13,0-24.7-2.2-35.1-6.7c-10.4-4.4-19.2-10.6-26.6-18.5c-7.3-7.9-13-17.4-16.9-28.3c-3.9-11-5.9-23-5.9-36
					c0-13.2,2.2-25.2,6.5-36.2c4.4-10.9,10.5-20.4,18.4-28.3c7.9-7.9,17.4-14.1,28.4-18.5c11-4.4,23.2-6.6,36.5-6.6
					c13,0,24.4,2.1,34.1,6.2c9.7,4.2,18.1,9.7,25,16.5l-10.9,15.1c-0.6,1-1.5,1.8-2.5,2.5c-1,0.7-2.4,1.1-4.2,1.1
					c-1.9,0-3.8-0.7-5.7-2.2c-1.9-1.5-4.4-3-7.4-4.7c-3-1.7-6.8-3.3-11.3-4.7c-4.6-1.5-10.4-2.2-17.4-2.2c-8.2,0-15.8,1.4-22.7,4.3
					c-6.9,2.9-12.8,7-17.8,12.3c-5,5.3-8.8,11.8-11.6,19.4c-2.8,7.6-4.2,16.2-4.2,25.7c0,9.9,1.4,18.6,4.2,26.3
					c2.8,7.7,6.6,14.1,11.3,19.4c4.8,5.3,10.4,9.3,16.8,12.1c6.5,2.8,13.4,4.2,20.8,4.2c4.4,0,8.5-0.2,12-0.7
					c3.6-0.5,6.9-1.3,9.9-2.3c3-1,5.9-2.4,8.6-4.1c2.7-1.7,5.4-3.7,8.1-6.1c0.8-0.7,1.7-1.3,2.5-1.8
					C994.1,439.9,995.1,439.7,996.1,439.7z"/>
				<path class="st0" d="M1161.5,305.9v26.8h-52.7V481h-32.6V332.6h-52.9v-26.8H1161.5z"/>
				<path class="st0" d="M1218.9,481h-32.7V305.9h32.7V481z"/>
				<path class="st0" d="M1241.1,305.9h26.3c2.8,0,5.1,0.7,6.9,2.1c1.8,1.4,3.1,3.1,4,5.3l41.2,106.8c1.4,3.5,2.7,7.3,3.9,11.4
					c1.3,4.2,2.4,8.5,3.6,13.1c1.9-9.3,4.2-17.5,6.9-24.6l41.1-106.8c0.7-1.9,2-3.6,3.9-5.1c1.9-1.5,4.2-2.3,6.9-2.3h26.3
					L1341.3,481h-29.4L1241.1,305.9z"/>
				<path class="st0" d="M1467,481h-32.7V305.9h32.7V481z"/>
				<path class="st0" d="M1600.2,337.7c-0.9,1.8-1.9,3-3.1,3.8c-1.2,0.7-2.6,1.1-4.2,1.1c-1.6,0-3.4-0.6-5.4-1.9
					c-2-1.3-4.4-2.6-7.1-4.2c-2.7-1.5-6-2.9-9.6-4.2c-3.7-1.3-8-1.9-13-1.9c-4.5,0-8.5,0.5-11.8,1.6c-3.4,1.1-6.2,2.6-8.5,4.5
					c-2.3,1.9-4,4.3-5.1,7c-1.1,2.7-1.7,5.7-1.7,8.9c0,4.1,1.2,7.6,3.5,10.3c2.3,2.7,5.3,5.1,9.1,7c3.8,1.9,8.1,3.7,13,5.2
					c4.8,1.5,9.8,3.2,14.8,4.9c5,1.7,10,3.8,14.8,6.1c4.8,2.3,9.2,5.2,13,8.7c3.8,3.5,6.8,7.8,9.1,12.9c2.3,5.1,3.5,11.3,3.5,18.5
					c0,7.9-1.4,15.3-4.1,22.2c-2.7,6.9-6.7,12.9-11.9,18c-5.2,5.1-11.6,9.2-19.1,12.1c-7.5,2.9-16.1,4.4-25.8,4.4
					c-5.6,0-11.1-0.5-16.5-1.6c-5.4-1.1-10.6-2.6-15.6-4.7c-5-2-9.6-4.4-13.9-7.3c-4.3-2.8-8.2-6-11.6-9.4l9.4-15.6
					c0.9-1.1,2-2.1,3.2-2.8c1.3-0.8,2.6-1.1,4.2-1.1c2,0,4.2,0.8,6.5,2.5c2.3,1.7,5.1,3.5,8.3,5.5c3.2,2,6.9,3.9,11.3,5.5
					c4.3,1.7,9.5,2.5,15.6,2.5c9.3,0,16.5-2.2,21.6-6.6c5.1-4.4,7.6-10.7,7.6-19c0-4.6-1.2-8.4-3.5-11.3c-2.3-2.9-5.4-5.3-9.1-7.3
					c-3.8-2-8.1-3.7-13-5c-4.8-1.4-9.8-2.9-14.8-4.5c-5-1.6-9.9-3.6-14.8-5.8c-4.8-2.3-9.2-5.2-13-8.8c-3.8-3.6-6.8-8.2-9.1-13.6
					c-2.3-5.4-3.5-12.2-3.5-20.2c0-6.4,1.3-12.6,3.8-18.7c2.5-6.1,6.3-11.4,11.1-16.1c4.9-4.7,10.9-8.4,18-11.3
					c7.1-2.8,15.2-4.2,24.3-4.2c10.3,0,19.9,1.6,28.6,4.8c8.7,3.2,16.1,7.8,22.3,13.6L1600.2,337.7z"/>
				<path class="st0" d="M1728,416.4c1.2,2.8,2.3,5.6,3.5,8.4c1.1-2.9,2.3-5.8,3.5-8.6c1.2-2.8,2.5-5.5,3.9-8.1l51.8-97
					c0.6-1.2,1.3-2.2,2-2.9c0.7-0.7,1.5-1.3,2.3-1.6c0.8-0.3,1.8-0.5,2.8-0.6c1-0.1,2.3-0.1,3.8-0.1h24.6V481h-28.7V367.9
					c0-2.1,0.1-4.4,0.2-6.9c0.1-2.5,0.3-5,0.5-7.6l-52.9,99.3c-1.2,2.3-2.8,4-4.7,5.3c-1.9,1.3-4.2,1.9-6.8,1.9h-4.5
					c-2.6,0-4.8-0.6-6.8-1.9c-1.9-1.3-3.5-3-4.7-5.3l-53.7-99.7c0.3,2.7,0.5,5.3,0.7,7.8c0.1,2.5,0.2,4.9,0.2,7.1V481h-28.7V305.9
					h24.6c1.5,0,2.7,0,3.8,0.1c1,0.1,2,0.3,2.8,0.6c0.8,0.3,1.6,0.8,2.4,1.6s1.4,1.7,2.1,2.9l52.3,97.3
					C1725.6,410.9,1726.9,413.6,1728,416.4z"/>
			</g>
		</g>
	</g>
	<g>
		<linearGradient id="SVGID_1_" gradientUnits="userSpaceOnUse" x1="0" y1="355.9274" x2="549.8523" y2="355.9274">
			<stop  offset="0" style="stop-color:#FF9B07"/>
			<stop  offset="0.5" style="stop-color:#F96221"/>
			<stop  offset="1" style="stop-color:#F00D49"/>
		</linearGradient>
		<path class="st1" d="M256.9,294.8v-89.3c0-10.8,8.8-19.6,19.6-19.6h0.2c9.1,0,16.5,7.4,16.5,16.5V303v189.4v3
			c0,30.6,18,57.1,44.1,70c10.8,5.4,23.1,8.4,36,8.4c13,0,25.2-3,36-8.4c26.1-12.9,44-39.4,44-70v-3V390.2v-56.7
			c0-10.8,8.7-19.6,19.6-19.6h0.2c9.1,0,16.5,7.5,16.5,16.5V448c0,14.8,9.9,28.7,24.5,31.3c19,3.4,35.7-11.1,35.7-29.6V347.4
			c0-0.3,0-0.6-0.1-0.9c0.1-0.7,0.1-1.5,0.1-2.2c0-43.3-35.1-78.4-78.4-78.4c-43.4,0-78.5,35.1-78.5,78.4c0,0.7,0,1.5,0.1,2.2
			c-0.1,0.3-0.1,0.6-0.1,0.9v161.8c0,4.5-2.2,8.8-5.5,11.9c-3.3,3-7.9,5-12.5,5h-0.2c-11,0-21.3-8.8-21.3-19.7v-87.1V219.4
			c0-0.3,0-0.6-0.1-0.9c0.1-0.7,0.1-1.5,0.1-2.2c0-43.3-35.1-78.4-78.4-78.4c-43.4,0-78.5,35.1-78.5,78.4c0,0.7,0,1.5,0.1,2.2
			c-0.1,0.3-0.1,0.6-0.1,0.9v84.4v117.7c0,9.1-8.1,16.5-17.5,16.6h-0.2c-11.2-0.1-21.9-9.5-21.9-20.4v-70.3v-3
			c0-37-25.7-68-60.2-76.3c-5.9-1.4-12-2.2-18.3-2.2C35.2,265.9,0,301.1,0,344.3c0,0.7,0,1.5,0.1,2.2C0,346.8,0,347.1,0,347.4v189.5
			c0,14.8,10,28.8,24.6,31.5c19,3.4,35.7-11.2,35.7-29.7V333.5c0-10.8,8.8-19.6,19.6-19.6h0.2c9.1,0,16.6,7.5,16.6,16.5v74.2v3
			c0,36.4,25.5,67,60.2,75.9c6.5,1.7,13.4,2.6,20.4,2.6c6.6,0,13-0.8,19.1-2.3c31.1-7.4,55.3-32.5,60.4-63.7c0.6-4,1-8.2,1-12.5
			c0-0.7,0-1.5-0.1-2.2c0.1-0.3,0.1-0.6,0.1-0.9"/>
		<path class="st2" d="M274.9,121.3c33.5,0,60.7-27.2,60.7-60.7S308.4,0,274.9,0c-33.5,0-60.7,27.2-60.7,60.7
			S241.4,121.3,274.9,121.3z"/>
		<path class="st3" d="M77.9,246.7c33.5,0,60.7-27.2,60.7-60.7s-27.2-60.7-60.7-60.7c-33.5,0-60.7,27.2-60.7,60.7
			S44.4,246.7,77.9,246.7z"/>
		<path class="st4" d="M472,246.7c33.5,0,60.7-27.2,60.7-60.7s-27.2-60.7-60.7-60.7c-33.5,0-60.7,27.2-60.7,60.7
			S438.5,246.7,472,246.7z"/>
	</g>
</g>
</svg>
