<?xml version="1.0" encoding="utf-8"?>
<!-- Generator: Adobe Illustrator 24.3.0, SVG Export Plug-In . SVG Version: 6.00 Build 0)  -->
<svg version="1.1" id="Layer_1" xmlns="http://www.w3.org/2000/svg" xmlns:xlink="http://www.w3.org/1999/xlink" x="0px" y="0px"
	 viewBox="0 0 381.2 382.4" style="enable-background:new 0 0 381.2 382.4;" xml:space="preserve">
<style type="text/css">
	.st0{fill:none;}
	.st1{fill:#FFFFFF;}
</style>
<g>
	<g>
		<path class="st0" d="M86.6,202.8c-0.6,0.9-1.1,1.9-1.7,2.8c-1.1-2-2.3-3.8-3.4-5.7c0.5,0.9,1.1,1.8,1.7,2.8
			C84,204,85.8,204,86.6,202.8z"/>
		<path class="st0" d="M194.1,124.9c0.1,0.5,0.3,1,0.4,1.4c-0.2-0.9-1-1.4-1.9-1.4C193.1,125,193.6,124.9,194.1,124.9z"/>
		<path class="st0" d="M75.4,322.9c0,5.9,0.1,11.7,0,17.6c-0.1,5-3.4,8.1-8,7.9c-4.1-0.2-6.9-3.3-6.9-7.8c-0.1-5.9,0-11.8,0-17.8
			c-25.4,2.9-44.1,25.6-45.5,45.5c35.3,0,70.5,0,106,0C117.9,341.9,94.3,324.1,75.4,322.9z"/>
		<path class="st0" d="M52.8,292.6c0.5,8.2,7.1,14.4,15.2,14.3c8,0,14.5-6.2,15-14.2c0.2-3.8,0.2-7.7,0-11.6
			c-0.5-8-7.2-14-15.2-13.9c-8,0-14.5,6.1-15,14.1c-0.1,1.9,0,3.7,0,5.6C52.7,288.9,52.6,290.8,52.8,292.6z"/>
		<path class="st0" d="M197.5,175.6c-0.6,0.7-0.6,1.8,0.1,2.5c-0.4-0.4-0.7-0.8-1.1-1.2c0.4-0.5,0.8-1.1,1.2-1.6
			C197.7,175.4,197.6,175.5,197.5,175.6z"/>
		<path class="st0" d="M209.8,124.9h2.3c-1.2,0-2.1,1-1.9,2.2C210,126.4,209.9,125.7,209.8,124.9z"/>
		<path class="st0" d="M298,212.1c-0.6,0.9-1.1,1.9-1.7,2.9c-0.6-1-1.1-1.9-1.7-2.9C295.4,213.3,297.3,213.4,298,212.1z"/>
		<path class="st0" d="M236.8,16.6c-5.9-1.4-12.1-1.2-18.2-1.6c0,0-0.1,0-0.1,0c-21.9,0-73.6,0-75.4,0c-30.4,0.5-52.7,30-44.9,59.4
			c5.5,20.6,23.5,34.9,45.2,35.5c4.4,0.1,7.4,1.6,9.3,5.5c1,2,2.2,3.9,3.3,5.8c0.2,0.4,0.5,0.8,0.7,1.2c0.6,1.1,1.3,2.2,2,3.4
			c0.4,0.8,0.9,1.5,1.3,2.3c0,0,0,0,0,0c0.5,0.9,1.1,1.9,1.7,2.9c0.6-1,1.1-2,1.7-2.9c0,0,0,0,0,0c2.8-4.8,5.3-9.2,7.8-13.6
			c1.8-3.1,4.2-4.6,7.9-4.6c7.5,0.1,15,0.1,22.5,0c9.8-0.1,19.8,0.3,29.5-0.6c22.6-2.3,39.9-21.1,41.4-44.1
			C273.9,42.7,258.8,21.7,236.8,16.6z M148.5,69.8c-4.2,0-7.3-3.1-7.4-7.3c0-4.1,3.1-7.4,7.2-7.5c4.1-0.1,7.7,3.4,7.7,7.5
			C155.9,66.6,152.6,69.8,148.5,69.8z M184.6,69.8c-4.1,0-7.4-3.3-7.4-7.3c0-4,3.3-7.4,7.3-7.5c4.2-0.1,7.7,3.5,7.6,7.6
			C192,66.7,188.7,69.8,184.6,69.8z M221,69.8c-4.2,0.1-7.7-3.4-7.6-7.5c0.1-4,3.5-7.3,7.5-7.3c4,0,7.3,3.3,7.3,7.4
			C228.2,66.5,225.1,69.8,221,69.8z"/>
		<path class="st0" d="M298.3,292.8c0.5,8,7,14.1,15,14.2c8.1,0.1,14.8-6.1,15.2-14.3c0.2-3.7,0.2-7.5,0-11.2c-0.4-8-7-14.1-15-14.2
			c-8.2-0.1-14.8,6.1-15.2,14.3c-0.1,1.9,0,3.7,0,5.6C298.3,289,298.2,290.9,298.3,292.8z"/>
		<path class="st0" d="M320.9,323.1c0,5.5,0,10.9,0,16.4c0,5.6-2.8,8.8-7.4,8.8c-4.7,0-7.5-3.2-7.5-8.7c0-5.6,0-11.2,0-16.8
			c-25.1,2.4-44.7,26.1-45.3,45.4c35.3,0,70.5,0,105.8,0C365.6,347.1,340.3,321.9,320.9,323.1z"/>
		<path class="st1" d="M381.2,374.1c-1.4-26.1-13.8-45.9-36.9-58.6c-1.7-0.9-3.4-1.7-5.1-2.4c-0.8-0.4-1.6-0.7-2.4-1.1l-0.9-0.4
			l0.4-0.9c0.5-1.1,1.1-2.1,1.7-3.1c1.2-2.1,2.4-4.1,2.7-6.2c1.2-7.6,1.8-14.2,1.6-20.2c-0.4-15.6-13.1-27.8-29-27.9
			c-15.6,0-28.4,12.2-29.1,27.8c-0.1,3.3-0.1,6.7,0,9.9l0,2c0.1,5,1.6,9.8,4.6,14.6c0.4,0.6,0.8,1.3,1.2,2l1.2,2.1l-1.1,0.4
			c-16.3,6.2-28.6,17-37.4,32.9l-0.9,1.6l-0.9-1.6c-8.5-15.5-20.9-26.6-36.7-32.7l-1-0.4l0.4-0.9c0.6-1.4,1.2-2.7,1.8-4
			c1.4-2.8,2.7-5.5,3.1-8.3c0.9-5,1.1-10.8,0.8-18c-0.6-15-13.5-27.2-28.8-27.2h-0.1c-15.6,0-28.4,12-29.1,27.3l0,0.3
			c-0.5,10.6-1,20.7,5.8,28.5l0.7,0.9l-1,0.6c-2.3,1.5-4.6,2.9-6.8,4.3c-5.1,3.2-10,6.2-14.3,9.9c-4.3,3.8-7.8,8.2-11.6,12.8
			c-1.6,2-3.3,4.1-5,6.1l-0.9,1.1l-0.7-1.3c-8.1-14.8-20.4-25.5-36.6-31.8l-1.1-0.4l0.6-1c6-10.7,6.4-11.9,6.4-22.5v-0.9
			c0-2,0-4.1-0.1-6.2c-0.7-14.5-12-26.3-26.3-27.6c-0.9-0.1-1.8-0.1-2.7-0.1c-13.9,0-25.7,9.4-28.2,22.2c-2.1,11-3.1,23.8,5.5,34.8
			l0.8,1l-1.1,0.5c-0.4,0.2-0.7,0.4-1,0.5c-0.6,0.3-1.1,0.6-1.7,0.8c-17,7.2-29.2,19.1-36.2,35.4c-1.9,4.5-3.1,9.5-4.3,14.2
			c-0.5,2.2-1.1,4.4-1.7,6.6v8.6c1.9,3.2,4.4,4.6,8,4.6h0c91.1-0.1,183.7-0.1,273.2-0.1h92c2.9,0,5-0.7,6.2-2
			C380.8,379.1,381.4,377,381.2,374.1z M51.7,285.2c0-1.2,0-2.5,0-3.8c0.5-8.6,7.4-15,16-15.1h0.1c8.5,0,15.6,6.5,16.1,14.9
			c0.2,3.8,0.2,7.7,0,11.7c-0.5,8.4-7.5,15.1-16.1,15.1c-8.7,0-15.6-6.6-16.1-15.3c-0.1-1.3-0.1-2.6,0-3.9c0-0.6,0-1.2,0-1.8
			C51.7,286.4,51.7,285.8,51.7,285.2z M13.9,369.2l0.1-1.1c1.3-20,20.2-43.4,46.3-46.4l1.1-0.1v1.1c0,1.8,0,3.6,0,5.4
			c0,4.1,0,8.2,0,12.4c0.1,3.9,2.4,6.6,6,6.8c0.2,0,0.3,0,0.5,0c3.8,0,6.4-2.7,6.4-6.9c0.1-4.1,0.1-8.2,0-12.2c0-1.8,0-3.5,0-5.3
			v-1.1l1.1,0.1c20,1.3,43.5,20.2,46.5,46.2l0.1,1.1H13.9z M207.1,286.6l-0.1,1c-0.1,0.8-0.1,1.7-0.1,2.5c-0.1,1.9-0.2,3.9-0.6,5.8
			c-1.7,7-8.3,12.1-15.7,12.1c-0.5,0-0.9,0-1.4-0.1c-8-0.7-14.3-7.2-14.7-15.2c-0.2-3.8-0.2-7.6,0-11.3c0.4-8.4,7.4-15.1,15.9-15.2
			l0.2,0c8.7,0,15.6,6.5,16.2,15.2 M136.7,369.1l0.1-1.1c1.4-22.4,23.5-44.4,46.3-46.1l1.1-0.1l0,6.2c0,3.9,0,7.8,0,11.7
			c0,4.8,2.4,7.6,6.5,7.6h0.2c4-0.1,6.3-2.8,6.3-7.6c0-3.9,0-7.8,0-11.7v-6.2l1,0c17.3,0.9,43.1,17.3,46.5,46.1l0.1,1.1H136.7z
			 M297.3,281.5c0.5-8.7,7.4-15.2,16.1-15.2h0.1c8.6,0.1,15.5,6.6,15.9,15.1c0.2,3.7,0.2,7.5,0,11.3c-0.5,8.7-7.4,15.3-16.1,15.3
			h-0.1c-8.6-0.1-15.4-6.6-16-15.1c-0.1-1.3-0.1-2.6,0-3.9c0-0.6,0-1.2,0-1.7c0-0.6,0-1.1,0-1.7
			C297.2,284.2,297.2,282.9,297.3,281.5z M259.6,369.2l0-1c0.6-19.8,20.5-43.9,46.2-46.4l1.1-0.1l0,6.2c0,3.9,0,7.8,0,11.7
			c0,4.9,2.4,7.7,6.5,7.7c4.1,0,6.4-2.8,6.4-7.8c0-3.8,0-7.6,0-11.4v-5.9l0.9-0.1c0.5,0,0.9,0,1.4,0c19.9,0,44.4,25,45.2,46.2l0,1
			H259.6z"/>
		<path class="st1" d="M329.3,86.1c-8.7-2.1-18-1.7-27.1-2.2c-5.1-0.3-10.3-0.1-15.6-0.1c-1.3,0-2.2-1.2-1.9-2.5
			c0.1-0.4,0.2-0.8,0.3-1.2c9.9-34.3-9.9-69.4-44.5-78.3c-2.9-0.8-5.8-1.3-8.7-2h-94c-0.2,0-0.4,0-0.6,0.1c-0.6,0.2-1.2,0.5-1.8,0.6
			C105.8,5,83.6,29,81.9,58.8c-0.3,4.5-0.1,9.1,0,13.8c0,1.1-0.9,2-2,2c-3.2,0-6.8-0.1-10.2,0c-4.2,0.1-8.5,0.2-12.7,0.9
			C26,80.6,3.9,108,5,140c1,30,25.3,55.8,55.3,59.2c2,0.2,4.4,1.7,5.4,3.4c4.1,6.8,7.9,13.7,11.9,20.5c4,6.9,10.5,6.9,14.5,0
			c4-6.9,8.1-13.8,11.9-20.8c1.2-2.1,2.5-2.9,5-2.9c12.2,0.1,24.5,0.1,36.7,0c3.9,0,7.7-0.2,11.6-0.7c9.8-1.2,18.7-5,26.8-10.5
			c0.8-0.5,1.9-0.5,2.5,0.2c0,0,0,0,0,0c13.1,14,29.3,20.6,48.4,20.5c12.5-0.1,24.9,0,37.4-0.1c2.1,0,3.3,0.6,4.4,2.5
			c3.9,7.1,8,14.1,12.1,21.1c4,6.9,10.5,6.9,14.5,0c3.9-6.7,7.8-13.3,11.5-20.1c1.4-2.6,3.1-3.7,6-4c29.9-3.5,53-27.7,55.1-57.5
			C378.3,120.7,358.6,93.1,329.3,86.1z M143.1,15c1.8,0,53.5,0,75.4,0c0,0,0.1,0,0.1,0c6.1,0.4,12.3,0.2,18.2,1.6
			c21.9,5.1,37.1,26.1,35.6,48.6c-1.5,23-18.8,41.8-41.4,44.1c-9.8,1-19.7,0.5-29.5,0.6c-7.5,0.1-15,0.1-22.5,0
			c-3.7,0-6.1,1.5-7.9,4.6c-2.5,4.4-5.1,8.8-7.8,13.6c0,0,0,0,0,0c-0.8,1.3-2.6,1.3-3.4,0c0,0,0,0,0,0c-0.5-0.8-0.9-1.6-1.3-2.3
			c-0.7-1.1-1.3-2.3-2-3.4c-0.2-0.4-0.4-0.8-0.7-1.2c-1.1-1.9-2.4-3.8-3.3-5.8c-1.9-3.9-4.9-5.4-9.3-5.5
			c-21.6-0.5-39.7-14.8-45.2-35.5C90.4,45,112.7,15.5,143.1,15z M196,138.7c0,0.4,0,0.8-0.1,1.2c0,0.7-0.1,1.4-0.2,2.1
			c-0.1,1.1-0.3,2.1-0.5,3.2c-0.1,0.4-0.1,0.8-0.2,1.1c-0.1,0.4-0.2,0.8-0.3,1.3c-0.1,0.6-0.3,1.2-0.5,1.8c-0.2,0.6-0.4,1.2-0.5,1.8
			c-0.2,0.5-0.3,1-0.5,1.5c0,0.1-0.1,0.2-0.1,0.3c-0.2,0.4-0.3,0.9-0.5,1.3c-0.2,0.4-0.4,0.9-0.5,1.3c-0.1,0.3-0.2,0.6-0.4,0.9
			c-0.1,0.3-0.3,0.6-0.4,0.9c-0.3,0.6-0.6,1.1-0.9,1.7c-0.2,0.3-0.3,0.6-0.5,0.8c-0.1,0.3-0.3,0.6-0.5,0.8c-0.5,0.8-1,1.6-1.5,2.4
			c-0.5,0.8-1.1,1.6-1.7,2.3c-0.7,0.9-1.5,1.9-2.3,2.8c-0.3,0.3-0.5,0.6-0.8,0.9c-0.4,0.5-0.9,0.9-1.3,1.4c-0.3,0.3-0.7,0.7-1.1,1
			c-0.3,0.3-0.7,0.6-1,0.9c-0.5,0.4-1,0.8-1.5,1.2c-0.7,0.5-1.4,1.1-2.1,1.6c-0.1,0.1-0.2,0.1-0.2,0.2c-0.4,0.3-0.7,0.5-1.1,0.8
			c-0.4,0.3-0.8,0.6-1.3,0.8c0,0,0,0,0,0c-0.4,0.3-0.8,0.5-1.2,0.8c-0.4,0.3-0.9,0.5-1.3,0.8c-0.5,0.2-0.9,0.5-1.3,0.7
			c-0.4,0.2-0.7,0.4-1.1,0.6c-0.2,0.1-0.3,0.2-0.5,0.2c-0.3,0.2-0.7,0.3-1,0.5c-0.5,0.2-1,0.4-1.6,0.6c-0.4,0.2-0.8,0.3-1.2,0.5
			c-0.6,0.2-1.2,0.4-1.9,0.6c-0.4,0.1-0.9,0.3-1.3,0.4c-4.9,1.3-10.1,1.7-15.1,1.8c-13.6,0.2-27.2,0.3-40.8,0
			c-5.8-0.1-9.7,1.6-12.2,7c-0.9,1.9-2,3.8-3,5.7c-0.3,0.5-0.5,0.9-0.8,1.4c-0.3,0.5-0.6,0.9-0.8,1.4c-0.6,1-1.2,1.9-1.8,2.9
			c0,0,0,0,0,0c-0.1,0.2-0.2,0.3-0.3,0.4c-0.2,0.2-0.4,0.3-0.6,0.4c0,0,0,0,0,0c-0.1,0-0.2,0.1-0.3,0.1c0,0,0,0-0.1,0
			c-0.1,0-0.2,0-0.3,0h0c-0.2,0-0.3,0-0.5-0.1c-0.1,0-0.2-0.1-0.2-0.1c-0.1,0-0.1,0-0.2-0.1c-0.1,0-0.1-0.1-0.2-0.1
			c-0.1-0.1-0.2-0.2-0.3-0.3c-0.1-0.1-0.1-0.1-0.2-0.2c0,0,0,0,0,0c0,0,0,0,0,0c0,0,0,0,0,0c-0.6-1-1.1-1.9-1.7-2.8
			c-0.6-1-1.2-1.9-1.7-2.9c-0.2-0.4-0.5-0.8-0.7-1.2c-0.5-0.9-1-1.8-1.5-2.7c-0.2-0.3-0.3-0.7-0.5-1c-0.1-0.1-0.1-0.2-0.2-0.3
			c0,0,0,0,0,0c-2.3-4.4-6.7-7.3-11.6-7.5c-0.2,0-0.4,0-0.6,0c-0.7,0-1.3-0.1-2-0.1c-0.3,0-0.7-0.1-1-0.1c-0.3,0-0.7-0.1-1-0.1
			c-0.3,0-0.7-0.1-1-0.1c-0.7-0.1-1.3-0.2-2-0.3c-0.3-0.1-0.6-0.1-1-0.2c-0.6-0.1-1.3-0.3-1.9-0.5c-0.3-0.1-0.6-0.2-1-0.3
			c-0.3-0.1-0.6-0.2-0.9-0.3c-0.3-0.1-0.6-0.2-0.9-0.3c-0.3-0.1-0.5-0.2-0.8-0.3c0,0,0,0-0.1,0c-0.1,0-0.2-0.1-0.4-0.1
			c-0.5-0.2-1-0.4-1.5-0.6c-0.3-0.1-0.6-0.2-0.9-0.4c-0.3-0.1-0.6-0.2-0.9-0.4c-0.3-0.1-0.6-0.3-0.9-0.4c-0.3-0.1-0.6-0.3-0.9-0.4
			c-0.3-0.1-0.6-0.3-0.9-0.4c-0.1,0-0.2-0.1-0.2-0.1c-0.2-0.1-0.4-0.2-0.6-0.3c-0.3-0.2-0.6-0.3-0.8-0.5c-0.5-0.3-1.1-0.7-1.6-1
			c-0.3-0.2-0.5-0.3-0.8-0.5c-0.5-0.4-1-0.7-1.6-1.1c-0.2-0.2-0.5-0.3-0.7-0.5c0,0,0,0,0,0c-0.4-0.3-0.9-0.7-1.3-1
			c-0.5-0.5-1.1-0.9-1.6-1.4c-0.5-0.4-0.9-0.9-1.4-1.3c-0.5-0.4-0.9-0.9-1.3-1.4c-0.4-0.5-0.9-0.9-1.3-1.4c-0.9-1-1.7-2-2.5-3.1
			c-0.4-0.5-0.8-1-1.1-1.6c-0.3-0.5-0.7-1.1-1-1.6c-1-1.6-1.9-3.3-2.7-5.1c-0.2-0.5-0.5-1-0.7-1.5c-0.3-0.7-0.6-1.4-0.9-2.2
			c-0.2-0.6-0.4-1.2-0.6-1.9c-0.4-1.3-0.8-2.6-1.1-3.9c-6.6-28.1,14.4-56.2,43.2-57.6c7.1-0.3,14.2-0.2,21.3-0.1
			c1.2,0,2.8,1,3.4,2.1c11,19.2,27.3,30.3,49.3,32.8c1.3,0.1,3,1.3,3.7,2.5c4,6.6,8.2,13.1,11.6,20.1c4.1,8.5,12.3,8.3,16.2,0.2
			c3.2-6.6,7.4-12.7,10.9-19.2c1.3-2.4,2.7-3.5,5.5-3.2c2.1,0.2,4.2,0.1,6.5,0.1h0c0.9,0,1.7,0.6,1.9,1.4c0,0.2,0.1,0.3,0.1,0.5
			c0.1,0.4,0.2,0.8,0.3,1.2c0.1,0.5,0.2,0.9,0.3,1.4c0,0.2,0.1,0.4,0.1,0.6c0,0.3,0.1,0.6,0.1,0.9c0,0.2,0.1,0.4,0.1,0.6
			c0,0.3,0.1,0.7,0.1,1c0,0.1,0,0.2,0,0.2c0,0,0,0.1,0,0.1c0,0.3,0.1,0.6,0.1,0.9c0,0,0,0.1,0,0.2c0,0.2,0,0.4,0,0.6
			c0,0,0,0.1,0,0.1c0,0.4,0,0.8,0.1,1.2c0,0.5,0,1,0,1.6C196,137.8,196,138.2,196,138.7z M321,193.2c-1.3,0.2-2.8,0.7-4.1,0.5
			c-6.9-1-10.5,2.7-13.3,8.4c-0.3,0.6-0.6,1.1-0.8,1.7c0,0,0,0.1,0,0.1c-0.2,0.5-0.5,0.9-0.8,1.4c-0.3,0.5-0.6,1-0.9,1.6
			c-1,1.7-2,3.4-3.1,5.2c-0.8,1.3-2.6,1.3-3.4,0c-0.6-1-1.2-2.1-1.8-3.1c-0.5-0.9-1-1.7-1.5-2.6c0,0,0,0,0-0.1
			c-0.4-0.8-0.9-1.5-1.3-2.2c-0.3-0.5-0.6-1-0.9-1.6c-0.3-0.5-0.6-1.1-0.9-1.6c-0.3-0.5-0.6-1-0.9-1.6c-2.1-4-5.1-5.7-9.6-5.6
			c-15.1,0.2-30.2,0.2-45.3,0c-0.9,0-1.7,0-2.6-0.1c-0.4,0-0.8-0.1-1.3-0.1c0,0-0.1,0-0.1,0c-0.3,0-0.6-0.1-0.9-0.1
			c-0.3,0-0.6-0.1-0.9-0.1c-0.6-0.1-1.2-0.2-1.8-0.3c-0.4-0.1-0.8-0.1-1.2-0.2c-0.2,0-0.3-0.1-0.5-0.1c-0.3-0.1-0.6-0.1-0.9-0.2
			c-0.1,0-0.1,0-0.2,0h0c-0.3-0.1-0.5-0.1-0.8-0.2c-0.2-0.1-0.5-0.1-0.7-0.2c-0.3-0.1-0.6-0.1-0.9-0.2c-0.4-0.1-0.7-0.2-1-0.3
			c-0.1,0-0.1,0-0.2-0.1c-0.4-0.1-0.8-0.2-1.2-0.4c-0.4-0.1-0.8-0.3-1.1-0.4c-0.4-0.2-0.8-0.3-1.3-0.5c-0.7-0.3-1.5-0.6-2.2-1
			c-0.4-0.2-0.8-0.4-1.2-0.6c-0.3-0.2-0.6-0.3-0.9-0.5c-0.5-0.3-1-0.6-1.5-0.9c-0.6-0.4-1.2-0.8-1.9-1.2c-0.3-0.2-0.5-0.3-0.8-0.5
			c-0.6-0.4-1.3-0.9-1.9-1.4c-0.3-0.2-0.7-0.5-1-0.8c-0.1-0.1-0.3-0.2-0.4-0.3c-0.4-0.3-0.8-0.7-1.2-1c-0.1-0.1-0.3-0.2-0.4-0.3
			c-0.4-0.4-0.9-0.8-1.3-1.2c-0.3-0.3-0.6-0.6-1-0.9c-0.6-0.6-1.1-1.1-1.7-1.7c0,0,0,0,0-0.1v0c-0.6-0.7-0.6-1.7-0.1-2.5
			c0.1-0.1,0.2-0.2,0.2-0.3c0.4-0.6,0.9-1.2,1.3-1.8c0.3-0.4,0.6-0.8,0.8-1.2c0.5-0.7,1-1.5,1.5-2.2c0,0,0,0,0,0
			c0.2-0.4,0.5-0.8,0.7-1.2c0.2-0.4,0.5-0.8,0.7-1.2c0.2-0.4,0.5-0.8,0.7-1.2c0.2-0.4,0.4-0.8,0.6-1.2c0.2-0.4,0.4-0.8,0.6-1.2
			c0.2-0.4,0.4-0.8,0.6-1.2c0.7-1.5,1.3-2.9,1.8-4.4c0.1-0.3,0.2-0.7,0.4-1c0.1-0.2,0.2-0.5,0.2-0.7c0.1-0.4,0.3-0.8,0.4-1.2
			c0.1-0.4,0.3-0.9,0.4-1.3c0.1-0.4,0.2-0.8,0.3-1.2c0.1-0.5,0.2-0.9,0.4-1.4c0.1-0.4,0.2-0.8,0.3-1.3c0,0,0,0,0,0
			c0.1-0.4,0.2-0.9,0.3-1.3c0-0.2,0.1-0.5,0.1-0.7c0.1-0.3,0.1-0.6,0.2-0.9c0.1-0.3,0.1-0.7,0.2-1c0-0.3,0.1-0.6,0.1-0.9
			c0.1-0.6,0.1-1.2,0.2-1.8c0-0.3,0.1-0.6,0.1-0.9c0.1-1.1,0.2-2.1,0.2-3.2c0-0.4,0-0.8,0-1.2c0-0.2,0-0.4,0-0.6v-0.2
			c0-0.3,0-0.5,0-0.8c0-0.5,0-1,0-1.4c0-0.4,0-0.7,0-1.1c0-0.1,0-0.2,0-0.2c0-0.1,0-0.2,0-0.3c0-0.3,0-0.7-0.1-1c0-0.3,0-0.7-0.1-1
			v-0.1c0-0.3,0-0.6-0.1-0.9c0-0.4-0.1-0.8-0.1-1.3c0-0.4-0.1-0.9-0.2-1.3c0-0.3-0.1-0.7-0.1-1c-0.2-1.2,0.8-2.2,1.9-2.2
			c3.6,0,7,0,10.3,0c21.1,0.2,38.6-7.6,52-24.2c0.7-0.9,1.9-1.8,2.9-1.8c14.7,0.1,29.5-0.7,44.1,0.8c22.7,2.3,40,23.6,39.9,47
			C361.2,169.8,343.5,190.2,321,193.2z"/>
		<path class="st1" d="M184.6,69.8c4.1,0,7.4-3.1,7.5-7.2c0.1-4.2-3.4-7.7-7.6-7.6c-4,0.1-7.4,3.5-7.3,7.5
			C177.2,66.5,180.5,69.8,184.6,69.8z"/>
		<path class="st1" d="M148.5,69.8c4.1,0,7.4-3.3,7.5-7.3c0.1-4.1-3.5-7.6-7.7-7.5c-4.1,0.1-7.2,3.4-7.2,7.6
			C141.1,66.7,144.3,69.8,148.5,69.8z"/>
		<path class="st1" d="M221,69.8c4.1-0.1,7.3-3.3,7.2-7.4c0-4.1-3.3-7.4-7.3-7.4c-4,0-7.4,3.3-7.5,7.3
			C213.3,66.4,216.7,69.9,221,69.8z"/>
	</g>
</g>
</svg>
